# CantinaStool_LOD1
v 0.03399802 0.136520997 0.041313
v 0.0342170037 0.0455529913 0.0416439995
v 0.0547680072 0.0455529913 -0.00120799593
v 0.0543890223 0.136520967 -0.00124799577
v 0.0479580238 0.148240983 -0.00104799634
v 0.0298240203 0.148376003 0.0363989994
v 0.0478180535 0.336656481 0.000409003551
v 0.0286260545 0.336656481 0.0372180007
v -0.0107509773 0.148408994 0.0455819964
v -0.0121199489 0.336656481 0.0451669954
v 0.0298240203 0.148376003 0.0363989994
v -0.0119759804 0.136520997 0.0519129969
v 0.03399802 0.136520997 0.041313
v 0.0342170037 0.0455529913 0.0416439995
v -0.012098995 0.0455529951 0.0522879958
v -0.016586002 0.0216349959 0.0720999986
v 0.0342170037 0.0455529913 0.0416439995
v 0.0469019972 0.0216259807 0.0575039983
v 0.0750780106 0.0216389894 -0.00123599439
v 0.0547680072 0.0455529913 -0.00120799593
v 0.046717003 0.0216459762 -0.0598949939
v 0.0340730101 0.0455529913 -0.043988999
v 0.0543890223 0.136520967 -0.00124799577
v 0.0547680072 0.0455529913 -0.00120799593
v 0.0337960273 0.136520997 -0.0437010005
v 0.029956026 0.148105994 -0.0385610014
v 0.0479580238 0.148240983 -0.00104799634
v 0.030999057 0.336656481 -0.0375420004
v 0.029956026 0.148105994 -0.0385610014
v -0.00915994216 0.336656481 -0.0480710007
v -0.0105839716 0.148073003 -0.0478839949
v 0.0337960273 0.136520997 -0.0437010005
v -0.0122189717 0.136520997 -0.054099001
v -0.0122719882 0.0455529951 -0.0544859953
v 0.0340730101 0.0455529913 -0.043988999
v 0.046717003 0.0216459762 -0.0598949939
v -0.0168179907 0.021638006 -0.0742840022
v -0.0122719882 0.0455529951 -0.0544859953
v -0.0677019879 0.0216480196 -0.0336010084
v -0.0493829921 0.0455530062 -0.0248020031
v -0.0493149981 0.0455530062 0.0227269959
v -0.0676060021 0.0216470212 0.0315819941
v -0.012098995 0.0455529951 0.0522879958
v -0.016586002 0.0216349959 0.0720999986
v -0.0489589758 0.136521012 0.0225989949
v -0.0119759804 0.136520997 0.0519129969
v -0.0107509773 0.148408994 0.0455819964
v -0.0432379805 0.148315012 0.0195919964
v -0.0121199489 0.336656481 0.0451669954
v -0.0437409468 0.336656481 0.0182689968
v -0.0431679711 0.148166001 -0.0220180023
v -0.0432379805 0.148315012 0.0195919964
v -0.0424279459 0.336656481 -0.0232289992
v -0.0490459725 0.136521012 -0.0245950017
v -0.0489589758 0.136521012 0.0225989949
v -0.0493149981 0.0455530062 0.0227269959
v -0.0493829921 0.0455530062 -0.0248020031
v -0.0105839716 0.148073003 -0.0478839949
v -0.0431679711 0.148166001 -0.0220180023
v -0.0122189717 0.136520997 -0.054099001
v -0.0490459725 0.136521012 -0.0245950017
v -0.0493829921 0.0455530062 -0.0248020031
v -0.0122719882 0.0455529951 -0.0544859953
v -0.106325984 0.00181300938 -0.132247001
v -0.15293999 0.00251702964 -0.0732610077
v -0.15215598 0.0203340333 -0.0729000047
v -0.106187969 0.0198480189 -0.132156998
v -0.0379819795 0.001880005 -0.165677011
v -0.0377969816 0.0198889971 -0.165426016
v 0.0381920151 0.00228300691 -0.165805012
v 0.0380110182 0.0201729983 -0.165142
v -0.0168179907 0.021638006 -0.0742840022
v -0.0677019879 0.0216480196 -0.0336010084
v 0.046717003 0.0216459762 -0.0598949939
v -0.168099985 0.0204440355 -0.000380012672
v -0.15293999 0.00251702964 -0.0732610077
v -0.169149011 0.00269003212 -0.000432012777
v -0.0676060021 0.0216470212 0.0315819941
v -0.151599035 0.0200590342 0.0723849908
v -0.169149011 0.00269003212 -0.000432012777
v -0.152085021 0.00209403038 0.0725379959
v -0.104414016 0.00250601768 0.131908
v -0.103952006 0.0203160178 0.131173998
v -0.0388140157 0.00226600468 0.16336599
v -0.016586002 0.0216349959 0.0720999986
v -0.0385940112 0.0201690048 0.162795007
v 0.0379799865 0.0195319951 0.163377985
v -0.0388140157 0.00226600468 0.16336599
v 0.0380109809 0.00146600604 0.163179979
v 0.105954975 0.00241498649 0.130656987
v 0.105411984 0.0202649832 0.130019993
v 0.0469019972 0.0216259807 0.0575039983
v 0.105411984 0.0202649832 0.130019993
v 0.151884988 0.0202139746 0.0714040101
v 0.152616948 0.0023509711 0.071600005
v 0.105954975 0.00241498649 0.130656987
v 0.0750780106 0.0216389894 -0.00123599439
v 0.151884988 0.0202139746 0.0714040101
v 0.167751998 0.0206479728 -0.00208998728
v 0.169241995 0.00309896469 -0.00189098716
v 0.152616948 0.0023509711 0.071600005
v 0.151974007 0.00262996554 -0.0753789917
v 0.151164979 0.0203809738 -0.0747119933
v 0.104906023 0.0198239814 -0.133197993
v 0.105054013 0.00178799033 -0.133260012
v 0.0381920151 0.00228300691 -0.165805012
v -0.20547393 0.416816026 -0.207473025
v -0.201362908 0.367974043 -0.205976024
v -0.232244596 0.365575582 -0.124900796
v -0.242759869 0.417994082 -0.123491749
v -0.241166964 0.362069994 0.153345987
v -0.230677947 0.473512024 -0.117944017
v -0.191493928 0.473456025 -0.193160012
v -0.169353917 0.492506027 -0.165978029
v -0.254707962 0.41801402 0.153238952
v -0.237856954 0.404305041 0.218534976
v -0.232873946 0.357661039 0.218620956
v -0.22448495 0.458598018 0.206619963
v -0.237652943 0.468271017 0.150394991
v -0.201685905 0.490819037 -0.112212017
v -0.196658924 0.476424009 0.188226983
v -0.207077935 0.483209014 0.147791967
v -0.143982917 0.490536034 -0.119638011
v -0.210000947 0.455342025 0.219507977
v -0.237856954 0.404305041 0.218534976
v -0.155302942 0.480038017 0.150607988
v -0.225048959 0.403308034 0.232772991
v -0.232873946 0.357661039 0.218620956
v -0.222155973 0.359908998 0.233509973
v -0.145301953 0.356597006 0.238594964
v -0.143673971 0.40507704 0.250667959
v 3.95787971E-08 0.354308009 0.240337998
v 4.64982399E-08 0.402548969 0.252770007
v 5.59178304E-08 0.452035964 0.234784976
v -0.146101952 0.474643022 0.201240972
v -0.144965947 0.450949043 0.234113991
v 6.19777083E-08 0.474238008 0.202464998
v 6.61052866E-08 0.478347957 0.156659991
v 8.88872975E-08 0.486869991 -0.126738012
v -0.108981892 0.493487 -0.190711021
v -0.110675894 0.476844013 -0.229877993
v -0.191493928 0.473456025 -0.193160012
v 9.51735331E-08 0.493166 -0.196412995
v -0.11556191 0.421401024 -0.252133042
v -0.20547393 0.416816026 -0.207473025
v -0.115600914 0.36350897 -0.245551005
v -0.201362908 0.367974043 -0.205976024
v 7.79861296E-08 0.363972008 -0.247566015
v 8.87991192E-08 0.424006999 -0.261215031
v 9.57442978E-08 0.47891596 -0.234715983
v 0.110676095 0.476843983 -0.229877993
v 8.87991192E-08 0.424006999 -0.261215031
v 0.108982094 0.493486971 -0.190711021
v 0.143983096 0.490535945 -0.119637981
v 0.115562081 0.421400934 -0.252132982
v 7.79861296E-08 0.363972008 -0.247566015
v 0.115601078 0.36350897 -0.245551005
v 0.205474064 0.416815937 -0.20747298
v 0.201364055 0.367973953 -0.205976978
v 0.191494077 0.473455966 -0.193159983
v 0.169354096 0.492505938 -0.165977985
v 0.152938038 0.477477938 0.152629003
v 6.19777083E-08 0.474238008 0.202464998
v 0.201686069 0.490818977 -0.112211987
v 0.230678052 0.473511964 -0.11794398
v 0.191494077 0.473455966 -0.193159983
v 0.205474064 0.416815937 -0.20747298
v 0.146102041 0.474642932 0.201240972
v 5.59178304E-08 0.452035964 0.234784976
v 0.207078055 0.483208984 0.147791997
v 0.187075034 0.475024968 0.198717996
v 0.237653047 0.468270928 0.150395021
v 0.247662038 0.417176962 -0.122922979
v 0.237240046 0.36570698 -0.11922098
v 0.201364055 0.367973953 -0.205976978
v 0.241167024 0.362069964 0.153346017
v 0.254708022 0.41801393 0.153239012
v 0.237857029 0.404304951 0.218535021
v 0.232874051 0.357660919 0.218621001
v 0.224485025 0.458597928 0.206619978
v 0.210001051 0.455341935 0.219507992
v 0.237857029 0.404304951 0.218535021
v 0.225049049 0.403307974 0.232773006
v 0.232874051 0.357660919 0.218621001
v 0.222156018 0.359908968 0.233509988
v 0.145302042 0.356596977 0.238594964
v 0.143674031 0.405076981 0.250668019
v 3.95787971E-08 0.354308009 0.240337998
v 4.64982399E-08 0.402548969 0.252770007
v 0.210001051 0.455341935 0.219507992
v 0.144966066 0.450948983 0.234113991
v -0.232873946 0.357661039 0.218620956
v -0.216380969 0.346677989 0.220625967
v -0.222155973 0.359908998 0.233509973
v -0.221757963 0.345635027 0.14967598
v -0.241166964 0.362069994 0.153345987
v -0.210336417 0.346244395 -0.124903254
v -0.232244596 0.365575582 -0.124900796
v -0.181212932 0.344765991 -0.191078007
v -0.201362908 0.367974043 -0.205976024
v -0.115600914 0.36350897 -0.245551005
v -0.155908927 0.337456018 -0.165309995
v -0.117875919 0.34415099 -0.223092988
v -0.155908927 0.337456018 -0.165309995
v 7.79861296E-08 0.363972008 -0.247566015
v 6.73048248E-08 0.335812002 -0.166850999
v -0.162383959 0.334625989 0.15274097
v 4.25977973E-08 0.329158008 0.146043986
v 0.162384048 0.334625959 0.152741
v -0.147687957 0.345276028 0.228107974
v -0.222155973 0.359908998 0.233509973
v -0.145301953 0.356597006 0.238594964
v 4.25977973E-08 0.329158008 0.146043986
v 3.95787971E-08 0.354308009 0.240337998
v 7.33274135E-08 0.34483698 -0.227107003
v 0.0645000786 0.343384951 -0.224216968
v 0.115601078 0.36350897 -0.245551005
v 3.90864194E-08 0.343573004 0.223681986
v 0.147688046 0.345275939 0.228107974
v 0.145302042 0.356596977 0.238594964
v 0.222156018 0.359908968 0.233509988
v 0.216381028 0.346677959 0.220626011
v 0.221758023 0.345634937 0.14967601
v 0.0781940669 0.335916966 -0.168943003
v 0.117876075 0.34415096 -0.223092988
v 0.155909076 0.337455928 -0.165309981
v 0.153603047 0.345452964 -0.212534979
v 0.201364055 0.367973953 -0.205976978
v 0.181213066 0.344765961 -0.191077992
v 0.20299907 0.347738981 -0.165076971
v 0.237240046 0.36570698 -0.11922098
v 0.241167024 0.362069964 0.153346017
v 0.232874051 0.357660919 0.218621001
v 0.216381028 0.346677959 0.220626011
v 0.222156018 0.359908968 0.233509988
v 0.151974007 0.00262996554 -0.0753789917
v -3.51442708E-10 0 0.00465499982
v 0.105054013 0.00178799033 -0.133260012
v 0.169241995 0.00309896469 -0.00189098716
v 0.0381920151 0.00228300691 -0.165805012
v 0.152616948 0.0023509711 0.071600005
v -0.0379819795 0.001880005 -0.165677011
v 0.105954975 0.00241498649 0.130656987
v -0.106325984 0.00181300938 -0.132247001
v 0.0380109809 0.00146600604 0.163179979
v -0.15293999 0.00251702964 -0.0732610077
v -0.0388140157 0.00226600468 0.16336599
v -0.169149011 0.00269003212 -0.000432012777
v -0.104414016 0.00250601768 0.131908
v -0.152085021 0.00209403038 0.0725379959
vn 0.608664572 0.233352542 0.758336246
vn 0.57732898 0.382017493 0.721632779
vn 0.924113274 0.382115811 -0.00150203786
vn 0.971986711 0.235012367 -0.00331258145
vn 0.964023411 0.265802801 0.00278391968
vn 0.599053562 0.263503015 0.756109059
vn 0.9994874 0.00363957533 0.0318078548
vn 0.59828943 0.00349280913 0.801272452
vn -0.217820197 0.263121605 0.93985182
vn -0.253316611 0.00348387891 0.967377126
vn 0.599053562 0.263503015 0.756109059
vn -0.213066965 0.232756019 0.948908389
vn 0.608664572 0.233352542 0.758336246
vn 0.57732898 0.382017493 0.721632779
vn -0.204018489 0.3820979 0.901319921
vn -0.168185174 0.6473068 0.743443131
vn 0.57732898 0.382017493 0.721632779
vn 0.47624436 0.647109509 0.595349193
vn 0.762240052 0.647293627 -0.00107315974
vn 0.924113274 0.382115811 -0.00150203786
vn 0.474099278 0.647562981 -0.596566916
vn 0.574845493 0.382285357 -0.723471224
vn 0.971986711 0.235012367 -0.00331258145
vn 0.924113274 0.382115811 -0.00150203786
vn 0.603183329 0.236562029 -0.761714041
vn 0.602936745 0.268055886 -0.751407623
vn 0.964023411 0.265802801 0.00278391968
vn 0.648072064 0.00373740937 -0.761569917
vn 0.602936745 0.268055886 -0.751407623
vn -0.191308245 0.00368772913 -0.981523037
vn -0.210373312 0.269277841 -0.939804435
vn 0.603183329 0.236562029 -0.761714041
vn -0.218881533 0.23704958 -0.946519136
vn -0.206979901 0.382180005 -0.900609672
vn 0.574845493 0.382285357 -0.723471224
vn 0.474099278 0.647562981 -0.596566916
vn -0.170633212 0.647401512 -0.74280256
vn -0.206979901 0.382180005 -0.900609672
vn -0.686920881 0.647639394 -0.329701275
vn -0.833098173 0.382380515 -0.399665684
vn -0.831864834 0.38233605 0.402268559
vn -0.685881078 0.647634983 0.331867605
vn -0.204018489 0.3820979 0.901319921
vn -0.168185174 0.6473068 0.743443131
vn -0.874578238 0.234241739 0.424551308
vn -0.213066965 0.232756019 0.948908389
vn -0.217820197 0.263121605 0.93985182
vn -0.870345831 0.26561752 0.414663255
vn -0.253316611 0.00348387891 0.967377126
vn -0.914240301 0.00357860909 0.405156612
vn -0.866286933 0.267292768 -0.422020823
vn -0.870345831 0.26561752 0.414663255
vn -0.886738777 0.00364297489 -0.46225661
vn -0.876881957 0.235371351 -0.419139922
vn -0.874578238 0.234241739 0.424551308
vn -0.831864834 0.38233605 0.402268559
vn -0.833098173 0.382380515 -0.399665684
vn -0.210373312 0.269277841 -0.939804435
vn -0.866286933 0.267292768 -0.422020823
vn -0.218881533 0.23704958 -0.946519136
vn -0.876881957 0.235371351 -0.419139922
vn -0.833098173 0.382380515 -0.399665684
vn -0.206979901 0.382180005 -0.900609672
vn -0.630321503 0.0115978094 -0.776247561
vn -0.902019024 0.0492231436 -0.428880781
vn -0.666976929 0.673718333 -0.318190724
vn -0.474861383 0.656134784 -0.586509824
vn -0.226828694 0.0152014773 -0.973816037
vn -0.169503182 0.659502864 -0.732341886
vn 0.22620064 0.0366032198 -0.973392725
vn 0.167718366 0.66992712 -0.723234534
vn -0.00483730203 0.999868274 -0.0154932206
vn -0.0113107758 0.999903798 -0.00802895799
vn 0.00864394102 0.999888659 -0.0121688433
vn -0.734165609 0.678964555 0.00280330982
vn -0.902019024 0.0492231436 -0.428880781
vn -0.99838376 0.0567725599 0.00256701629
vn -0.0118683837 0.999909401 0.0063537946
vn -0.67159152 0.664400578 0.327927947
vn -0.99838376 0.0567725599 0.00256701629
vn -0.898886919 0.0280406512 0.437282473
vn -0.618891597 0.0468762405 0.784076393
vn -0.458324105 0.674531937 0.578745008
vn -0.225555331 0.0317067541 0.973714292
vn -0.000370330876 0.999875546 0.0157761332
vn -0.165445954 0.66892314 0.724685788
vn 0.168886229 0.648397446 0.742332935
vn -0.225555331 0.0317067541 0.973714292
vn 0.222954154 -0.0103016794 0.97477448
vn 0.627394497 0.0426320843 0.77753371
vn 0.462384164 0.674555063 0.575479269
vn 0.00750996964 0.999878883 0.0136331096
vn 0.462384164 0.674555063 0.575479269
vn 0.668518543 0.670522571 0.321686894
vn 0.90135181 0.0422049724 0.43102625
vn 0.627394497 0.0426320843 0.77753371
vn 0.0115011595 0.9999336 0.000707710744
vn 0.668518543 0.670522571 0.321686894
vn 0.724448204 0.689294994 -0.00686611561
vn 0.996672511 0.0812581927 -0.00640307181
vn 0.90135181 0.0422049724 0.43102625
vn 0.898285329 0.0554114841 -0.435904771
vn 0.662606716 0.677714765 -0.318833947
vn 0.466907889 0.655868173 -0.59315598
vn 0.619682491 0.010192059 -0.784786344
vn 0.22620064 0.0366032198 -0.973392725
vn -0.719846904 0.101278968 -0.686704338
vn -0.721206248 -0.0817863792 -0.68787539
vn -0.960522413 -0.172611564 -0.218179032
vn -0.974058926 0.020470947 -0.225366831
vn -0.976071239 -0.206865236 0.0670195594
vn -0.792285204 0.579727054 -0.190265015
vn -0.553379118 0.615010619 -0.56172359
vn -0.205810502 0.960849702 -0.185499012
vn -0.992220461 0.0553775355 0.111497998
vn -0.975782394 0.0227533169 0.217557117
vn -0.987378538 -0.105263926 0.118334509
vn -0.629292071 0.610407174 0.481034875
vn -0.743663609 0.654554963 0.136096463
vn -0.286602378 0.955945909 -0.0634552538
vn -0.168685138 0.935075998 0.311734021
vn -0.210265175 0.970603108 0.117124513
vn 0.0158774406 0.999132931 0.0384880602
vn -0.318545252 0.586667955 0.744546533
vn -0.718643308 0.151333779 0.678711951
vn 0.0255331602 0.996608973 0.0782218948
vn -0.495534033 0.126886785 0.859270453
vn -0.791508615 -0.0530789047 0.608848631
vn -0.47713989 -0.0168847106 0.878665149
vn -0.0904337242 -0.199634716 0.975688279
vn -0.10710182 0.0505000725 0.992964745
vn -1.9184786E-07 -0.247759417 0.968821526
vn -2.28097917E-07 0.0447401255 0.998998702
vn 0 0.610836804 0.791756511
vn -0.0259068795 0.92944932 0.368039042
vn -0.0758334175 0.585539997 0.807088733
vn 0.00314808614 0.940595746 0.339514136
vn 0.00513478182 0.997931957 0.0640733466
vn 0.00414983975 0.998382092 0.0567104332
vn -0.0495290682 0.980390787 -0.190737084
vn -0.184155494 0.681692779 -0.708083093
vn -0.553379118 0.615010619 -0.56172359
vn 6.87734257E-07 0.989405572 -0.145177305
vn -0.2499239 0.123791732 -0.960319638
vn -0.719846904 0.101278968 -0.686704338
vn -0.231019691 -0.103988931 -0.967375934
vn -0.721206248 -0.0817863792 -0.68787539
vn 1.50917501E-07 -0.189695492 -0.981842935
vn 1.98459432E-07 0.106149979 -0.994350135
vn 0 0.73625505 -0.676704228
vn 0.184156507 0.681692064 -0.70808351
vn 1.98459432E-07 0.106149979 -0.994350135
vn 0.0495298505 0.980390787 -0.190737009
vn -0.0118373204 0.998964071 0.0439393707
vn 0.249924392 0.123791404 -0.960319519
vn 1.50917501E-07 -0.189695492 -0.981842935
vn 0.231017768 -0.103984341 -0.967376947
vn 0.710918069 0.105078094 -0.695380569
vn 0.711371064 -0.0812441185 -0.698105037
vn 0.55337888 0.615010798 -0.561723828
vn 0.205810428 0.960849702 -0.185499027
vn -0.0401177704 0.997430503 0.0593552329
vn 0.00314808614 0.940595746 0.339514136
vn 0.285479367 0.956754565 -0.0558762141
vn 0.774297953 0.604249299 -0.188003749
vn 0.55337888 0.615010798 -0.561723828
vn 0.710918069 0.105078094 -0.695380569
vn 0.0180031676 0.938305914 0.345337421
vn 0 0.610836804 0.791756511
vn 0.199100718 0.972424328 0.12144836
vn 0.109621093 0.915175557 0.387861907
vn 0.739095867 0.6591869 0.138599828
vn 0.969507456 0.0450058244 -0.240893975
vn 0.957273722 -0.190556988 -0.217520341
vn 0.711371064 -0.0812441185 -0.698105037
vn 0.97541672 -0.206946746 0.0757321268
vn 0.991576493 0.0592020638 0.115201242
vn 0.975782514 0.0227533486 0.2175567
vn 0.987378776 -0.10526371 0.118333302
vn 0.631836295 0.6163432 0.470004141
vn 0.325106561 0.568902433 0.755417585
vn 0.71864301 0.151333645 0.678712308
vn 0.495533675 0.126886368 0.859270811
vn 0.791507304 -0.0530793257 0.60885042
vn 0.477138817 -0.0168856829 0.878665686
vn 0.0904337689 -0.199636057 0.9756881
vn 0.107101865 0.0505003221 0.992964745
vn -1.9184786E-07 -0.247759417 0.968821526
vn -2.28097917E-07 0.0447401255 0.998998702
vn 0.325106561 0.568902433 0.755417585
vn 0.0758336037 0.58554095 0.807088017
vn -0.570940435 -0.792557359 0.214195758
vn -0.297203094 -0.885279 0.357702821
vn -0.299577504 -0.72601527 0.61899513
vn -0.431533933 -0.902088642 0.00381234311
vn -0.646405458 -0.76299113 0.00215665065
vn -0.456008494 -0.884119093 -0.101929739
vn -0.655279756 -0.742707968 -0.137816727
vn -0.365315765 -0.864901066 -0.344224334
vn -0.509925663 -0.732382178 -0.45121184
vn -0.145072967 -0.741859734 -0.654673994
vn -0.537238419 -0.829398036 -0.153211787
vn -0.126518339 -0.886304438 -0.44548589
vn -0.156132564 0.908975422 -0.386505187
vn -0.00233105314 -0.733540833 -0.679641306
vn -0.00293620024 -0.996952891 -0.0779508874
vn -0.0919289365 -0.994396567 0.0521971062
vn 0.00359200756 -0.999847174 -0.017106995
vn 0.0903795511 -0.994630456 0.0504152849
vn -0.0423369445 -0.878523767 0.475818843
vn -0.299577504 -0.72601527 0.61899513
vn -0.0456906371 -0.673659921 0.737627745
vn -2.29760531E-07 -0.985258579 0.171071738
vn 0 -0.831388593 0.555691481
vn -0.00503541389 -0.896842837 -0.442320526
vn 0.00761973299 -0.906837821 -0.421410888
vn 0.130264059 -0.722874939 -0.678589046
vn -1.40341655E-07 -0.930838823 0.365429968
vn 0.0423368365 -0.87852329 0.475819767
vn 0.0456904247 -0.673658192 0.737629294
vn 0.299577653 -0.726015031 0.618995428
vn 0.297202617 -0.885279357 0.357702315
vn 0.429873556 -0.902870357 0.00583130959
vn 0.0103956368 -0.997359455 -0.0718747973
vn 0.0922956616 -0.895600319 -0.435179889
vn 0.109680228 -0.99132359 -0.0724422485
vn 0.253117889 -0.836273551 -0.486392647
vn 0.53566438 -0.683504283 -0.495868385
vn 0.342802227 -0.883119941 -0.320290178
vn 0.50475198 -0.840952277 -0.194999635
vn 0.547909141 -0.832969785 -0.077180706
vn 0.6454916 -0.763740063 0.00644924026
vn 0.570939839 -0.792557657 0.21419616
vn 0.297202617 -0.885279357 0.357702315
vn 0.299577653 -0.726015031 0.618995428
vn 0.0179312322 -0.999838471 0.00119374297
vn 0.00047757171 -0.999999762 0.000607776223
vn 0.00821159314 -0.999943852 -0.0067086881
vn 0.0182339288 -0.999831915 -0.00190919428
vn 0.00224795123 -0.999914408 -0.0128884036
vn 0.0146628767 -0.999891043 0.00168662588
vn 0.000673670962 -0.999937177 -0.0111868232
vn 0.0137411319 -0.999876618 0.00760898646
vn -0.00994449761 -0.999935389 -0.00551879313
vn 0.00316603668 -0.999958992 0.00848826487
vn -0.0159686841 -0.999872088 -0.00095560716
vn -0.00988618564 -0.999880791 0.0118581075
vn -0.015817849 -0.999871016 -0.00277414266
vn -0.00861889776 -0.999883294 0.0126188872
vn -0.0119091338 -0.999920487 0.00416396605
vt 0.250006229 0.831572652
vt 0.250115156 0.757421494
vt 0.209776193 0.757421553
vt 0.209776208 0.830288351
vt 0.209776208 0.840996385
vt 0.249232948 0.841025829
vt 0.209776223 0.991927445
vt 0.250115246 0.991927445
vt 0.289571971 0.841005325
vt 0.290450275 0.991927505
vt 0.250115246 0.840996385
vt 0.290342331 0.831565022
vt 0.250115246 0.830288351
vt 0.250115186 0.757421553
vt 0.290450275 0.757421553
vt 0.290450275 0.730293095
vt 0.250115156 0.757421494
vt 0.250115246 0.730293095
vt 0.209776208 0.730293095
vt 0.209776193 0.757421613
vt 0.169435218 0.730293095
vt 0.169435173 0.757421553
vt 0.209670141 0.831602991
vt 0.209776193 0.757421613
vt 0.169435173 0.830288351
vt 0.169435173 0.840996385
vt 0.208890229 0.841026545
vt 0.169435248 0.991927445
vt 0.1685462 0.841014743
vt 0.129100814 0.991927445
vt 0.1291008 0.840996385
vt 0.169327259 0.831708491
vt 0.1291008 0.830288351
vt 0.1291008 0.757421553
vt 0.169435188 0.757421553
vt 0.169435218 0.730293095
vt 0.129100785 0.730293095
vt 0.1291008 0.757421494
vt 0.0887625217 0.730293095
vt 0.0887625366 0.757421613
vt 0.0484134406 0.757421613
vt 0.0484134853 0.730293095
vt 0.00807529688 0.757421553
vt 0.00807526708 0.730293095
vt 0.0483088419 0.831575036
vt 0.00807526708 0.830288351
vt 0.00807529688 0.840996385
vt 0.047535263 0.84099412
vt 0.00807526708 0.991927505
vt 0.0484134555 0.991927445
vt 0.0878822654 0.84098798
vt 0.0484134257 0.840996385
vt 0.0887625366 0.991927445
vt 0.0886505842 0.83168757
vt 0.0484134257 0.830288351
vt 0.0484134406 0.757421553
vt 0.0887625366 0.757421613
vt 0.12821421 0.841001093
vt 0.0887625366 0.840996385
vt 0.129003003 0.831621289
vt 0.0887625217 0.830288351
vt 0.0887625366 0.757421553
vt 0.1291008 0.757421494
vt 0.494814962 0.0399234295
vt 0.450868547 0.0936126709
vt 0.464782476 0.100590654
vt 0.504413605 0.0522416607
vt 0.558422148 0.0107192397
vt 0.561778724 0.0259396285
vt 0.628170788 0.0122438064
vt 0.624575078 0.0273275208
vt 0.577679455 0.101925224
vt 0.534600854 0.134943098
vt 0.630386412 0.114822388
vt 0.449850857 0.161140263
vt 0.450868547 0.0936126709
vt 0.433977038 0.160958722
vt 0.533707678 0.189234406
vt 0.463133097 0.222311825
vt 0.433977038 0.160958722
vt 0.448982388 0.229053795
vt 0.492706597 0.283735514
vt 0.502313197 0.271637738
vt 0.552527428 0.313664585
vt 0.57568264 0.223634094
vt 0.556173563 0.29858762
vt 0.619566202 0.30017975
vt 0.552527368 0.313664556
vt 0.622880399 0.315449983
vt 0.685545743 0.286092937
vt 0.67608881 0.273810297
vt 0.62876749 0.212482303
vt 0.67608875 0.273810267
vt 0.716038942 0.226057529
vt 0.729981124 0.232978106
vt 0.685545743 0.286092937
vt 0.653231502 0.164052814
vt 0.716038942 0.226057544
vt 0.731006265 0.164754927
vt 0.746761322 0.164998561
vt 0.729981124 0.232978106
vt 0.73158288 0.0968160927
vt 0.717697978 0.10370858
vt 0.679680347 0.0546146333
vt 0.689460695 0.0424283594
vt 0.628170848 0.0122438073
vt 0.420657158 0.484046936
vt 0.377175897 0.470723271
vt 0.355275154 0.549536884
vt 0.400194168 0.5619362
vt 0.335876107 0.800116539
vt 0.443888217 0.573450565
vt 0.471652985 0.507596016
vt 0.495172322 0.535066724
vt 0.385721326 0.795003533
vt 0.380268276 0.855035245
vt 0.337948114 0.85998112
vt 0.430681825 0.841606855
vt 0.429040432 0.790667832
vt 0.469820142 0.578769684
vt 0.460805476 0.824510872
vt 0.456105053 0.78960377
vt 0.515859067 0.573258638
vt 0.444654047 0.854728043
vt 0.404443741 0.893424392
vt 0.498296052 0.795588732
vt 0.421421945 0.900969207
vt 0.39534992 0.939587891
vt 0.413808346 0.942124307
vt 0.486904263 0.961245239
vt 0.495903641 0.915878713
vt 0.625148058 0.974701047
vt 0.625653028 0.92841202
vt 0.626167059 0.881048977
vt 0.502237141 0.838863909
vt 0.499893814 0.873239756
vt 0.626534462 0.84692049
vt 0.626948357 0.808007836
vt 0.629585266 0.567897975
vt 0.543994904 0.516798437
vt 0.542982876 0.483432293
vt 0.471653014 0.507596076
vt 0.630197287 0.512815833
vt 0.534861207 0.435703307
vt 0.4487212 0.455629855
vt 0.525139809 0.385584235
vt 0.438604504 0.410735905
vt 0.631709456 0.376833022
vt 0.631112814 0.430458188
vt 0.630557895 0.48036921
vt 0.718041897 0.485378593
vt 0.631112814 0.430458128
vt 0.716289222 0.518713176
vt 0.743165374 0.575784504
vt 0.727222562 0.437843144
vt 0.631709516 0.376833051
vt 0.73805654 0.387954295
vt 0.812893867 0.45968008
vt 0.824006796 0.415024906
vt 0.788812995 0.511120081
vt 0.764692664 0.538060427
vt 0.754083693 0.800507426
vt 0.626534462 0.846920431
vt 0.7890715 0.582312107
vt 0.815113187 0.57756573
vt 0.788812876 0.511120081
vt 0.840307057 0.48870644
vt 0.75103569 0.841560781
vt 0.626166999 0.881048977
vt 0.798287511 0.793403029
vt 0.785326898 0.836963415
vt 0.825274587 0.795039117
vt 0.86144948 0.567908645
vt 0.906468749 0.561151028
vt 0.884063303 0.476346672
vt 0.918162644 0.806491554
vt 0.868459225 0.800304413
vt 0.872604012 0.860416293
vt 0.914793193 0.866277516
vt 0.822511196 0.845897913
vt 0.808253586 0.858706951
vt 0.847601652 0.898281693
vt 0.830460787 0.905450821
vt 0.855677009 0.944636345
vt 0.837166429 0.946765661
vt 0.763662696 0.964274466
vt 0.755662382 0.918715835
vt 0.625148058 0.974701047
vt 0.625652969 0.928411901
vt 0.808253527 0.858706951
vt 0.75261277 0.875991344
vt 0.0202815831 0.0306580961
vt 0.0369237959 0.0306604505
vt 0.0289201438 0.0165920556
vt 0.0316883065 0.0897163823
vt 0.0102410018 0.0860590339
vt 0.0416745618 0.321061432
vt 0.0171201322 0.323071301
vt 0.0667588413 0.375573397
vt 0.044159472 0.393454075
vt 0.118834287 0.427839905
vt 0.0878814161 0.354033053
vt 0.118700147 0.402662039
vt 0.0878814161 0.354033053
vt 0.217740372 0.431530297
vt 0.218055218 0.356218755
vt 0.0823162198 0.0874661505
vt 0.218686581 0.0931450203
vt 0.355239034 0.0878626928
vt 0.0939871967 0.023391813
vt 0.0298109166 0.0161546022
vt 0.0957098305 0.010209024
vt 0.218686551 0.0931450129
vt 0.218758672 0.00981920864
vt 0.217853904 0.407661259
vt 0.272448719 0.404952109
vt 0.316917837 0.428692937
vt 0.218755156 0.0265844464
vt 0.343746722 0.0236109197
vt 0.342063785 0.0103888512
vt 0.408102483 0.0165696107
vt 0.40092355 0.0310867764
vt 0.405968279 0.09029755
vt 0.283706009 0.358005792
vt 0.317219734 0.403440952
vt 0.348412812 0.354895651
vt 0.346897244 0.394486785
vt 0.392008692 0.394668579
vt 0.369455576 0.376608849
vt 0.3883937 0.355763793
vt 0.42414093 0.319383174
vt 0.427479506 0.0867094994
vt 0.41760534 0.0311411321
vt 0.400923491 0.0310867727
vt 0.408993363 0.0170120001
vt 0.277522504 0.643081307
vt 0.14970541 0.575686932
vt 0.238016278 0.691750288
vt 0.292089134 0.581233382
vt 0.181761399 0.71910125
vt 0.278113514 0.519411147
vt 0.117686525 0.718958318
vt 0.238880724 0.469719589
vt 0.0602015853 0.690804005
vt 0.181731388 0.442347288
vt 0.0210047364 0.641159415
vt 0.117106706 0.442157924
vt 0.00740200281 0.57989037
vt 0.0619144738 0.468592644
vt 0.0217938423 0.518518686
g submesh0
f 1/1/1 2/2/2 3/3/3
f 1/1/1 3/3/3 4/4/4
f 1/1/1 4/4/4 5/5/5
f 1/1/1 5/5/5 6/6/6
f 6/6/6 5/5/5 7/7/7
f 6/6/6 7/7/7 8/8/8
f 9/9/9 8/8/8 10/10/10
f 9/9/9 11/11/11 8/8/8
f 12/12/12 11/11/11 9/9/9
f 12/12/12 13/13/13 11/11/11
f 12/12/12 14/14/14 13/13/13
f 12/12/12 15/15/15 14/14/14
f 16/16/16 17/17/17 15/15/15
f 16/16/16 18/18/18 17/17/17
f 17/17/17 18/18/18 19/19/19
f 17/17/17 19/19/19 20/20/20
f 20/20/20 19/19/19 21/21/21
f 20/20/20 21/21/21 22/22/22
f 23/23/23 24/24/24 22/22/22
f 23/23/23 22/22/22 25/25/25
f 23/23/23 25/25/25 26/26/26
f 23/23/23 26/26/26 27/27/27
f 27/27/27 26/26/26 28/28/28
f 27/27/27 28/28/28 7/7/7
f 29/29/29 30/30/30 28/28/28
f 29/29/29 31/31/31 30/30/30
f 32/32/32 31/31/31 29/29/29
f 32/32/32 33/33/33 31/31/31
f 32/32/32 34/34/34 33/33/33
f 32/32/32 35/35/35 34/34/34
f 35/35/35 36/36/36 37/37/37
f 35/35/35 37/37/37 38/38/38
f 38/38/38 37/37/37 39/39/39
f 38/38/38 39/39/39 40/40/40
f 39/39/39 41/41/41 40/40/40
f 39/39/39 42/42/42 41/41/41
f 42/42/42 43/43/43 41/41/41
f 42/42/42 44/44/44 43/43/43
f 45/45/45 41/41/41 43/43/43
f 45/45/45 43/43/43 46/46/46
f 45/45/45 46/46/46 47/47/47
f 45/45/45 47/47/47 48/48/48
f 48/48/48 47/47/47 49/49/49
f 48/48/48 49/49/49 50/50/50
f 51/51/51 52/52/52 50/50/50
f 51/51/51 50/50/50 53/53/53
f 54/54/54 52/52/52 51/51/51
f 54/54/54 55/55/55 52/52/52
f 54/54/54 56/56/56 55/55/55
f 54/54/54 57/57/57 56/56/56
f 58/58/58 53/53/53 30/30/30
f 58/58/58 59/59/59 53/53/53
f 60/60/60 59/59/59 58/58/58
f 60/60/60 61/61/61 59/59/59
f 60/60/60 62/62/62 61/61/61
f 60/60/60 63/63/63 62/62/62
f 64/64/64 65/65/65 66/66/66
f 64/64/64 66/66/66 67/67/67
f 68/68/68 64/64/64 67/67/67
f 68/68/68 67/67/67 69/69/69
f 70/70/70 68/68/68 69/69/69
f 70/70/70 69/69/69 71/71/71
f 72/72/72 69/69/69 67/67/67
f 72/72/72 71/71/71 69/69/69
f 73/73/73 72/72/72 67/67/67
f 73/73/73 67/67/67 66/66/66
f 72/72/72 74/74/74 71/71/71
f 73/73/73 66/66/66 75/75/75
f 76/76/76 75/75/75 66/66/66
f 76/76/76 77/77/77 75/75/75
f 78/78/78 73/73/73 75/75/75
f 78/78/78 75/75/75 79/79/79
f 80/80/80 79/79/79 75/75/75
f 80/80/80 81/81/81 79/79/79
f 79/79/79 81/81/81 82/82/82
f 78/78/78 79/79/79 83/83/83
f 79/79/79 82/82/82 83/83/83
f 83/83/83 82/82/82 84/84/84
f 85/85/85 78/78/78 83/83/83
f 83/83/83 84/84/84 86/86/86
f 85/85/85 83/83/83 86/86/86
f 85/85/85 86/86/86 87/87/87
f 88/88/88 87/87/87 86/86/86
f 88/88/88 89/89/89 87/87/87
f 87/87/87 89/89/89 90/90/90
f 87/87/87 90/90/90 91/91/91
f 92/92/92 85/85/85 87/87/87
f 92/92/92 87/87/87 91/91/91
f 92/92/92 93/93/93 94/94/94
f 93/93/93 95/95/95 94/94/94
f 93/93/93 96/96/96 95/95/95
f 97/97/97 92/92/92 98/98/98
f 97/97/97 98/98/98 99/99/99
f 98/98/98 100/100/100 99/99/99
f 98/98/98 101/101/101 100/100/100
f 99/99/99 100/100/100 102/102/102
f 97/97/97 99/99/99 103/103/103
f 99/99/99 102/102/102 103/103/103
f 74/74/74 97/97/97 103/103/103
f 102/102/102 104/104/104 103/103/103
f 74/74/74 103/103/103 104/104/104
f 102/102/102 105/105/105 104/104/104
f 74/74/74 104/104/104 71/71/71
f 105/105/105 71/71/71 104/104/104
f 105/105/105 106/106/106 71/71/71
f 107/107/107 108/108/108 109/109/109
f 107/107/107 109/109/109 110/110/110
f 110/110/110 109/109/109 111/111/111
f 112/112/112 107/107/107 110/110/110
f 112/112/112 113/113/113 107/107/107
f 112/112/112 114/114/114 113/113/113
f 110/110/110 111/111/111 115/115/115
f 112/112/112 110/110/110 115/115/115
f 111/111/111 116/116/116 115/115/115
f 111/111/111 117/117/117 116/116/116
f 115/115/115 116/116/116 118/118/118
f 112/112/112 115/115/115 119/119/119
f 115/115/115 118/118/118 119/119/119
f 112/112/112 120/120/120 114/114/114
f 119/119/119 120/120/120 112/112/112
f 119/119/119 118/118/118 121/121/121
f 119/119/119 122/122/122 120/120/120
f 119/119/119 121/121/121 122/122/122
f 123/123/123 120/120/120 122/122/122
f 120/120/120 123/123/123 114/114/114
f 124/124/124 121/121/121 118/118/118
f 125/125/125 124/124/124 118/118/118
f 126/126/126 122/122/122 121/121/121
f 123/123/123 122/122/122 126/126/126
f 125/125/125 127/127/127 124/124/124
f 128/128/128 127/127/127 125/125/125
f 128/128/128 129/129/129 127/127/127
f 127/127/127 129/129/129 130/130/130
f 127/127/127 130/130/130 131/131/131
f 124/124/124 127/127/127 131/131/131
f 131/131/131 130/130/130 132/132/132
f 131/131/131 132/132/132 133/133/133
f 131/131/131 133/133/133 134/134/134
f 135/135/135 121/121/121 124/124/124
f 126/126/126 121/121/121 135/135/135
f 124/124/124 131/131/131 136/136/136
f 131/131/131 134/134/134 136/136/136
f 135/135/135 124/124/124 136/136/136
f 135/135/135 136/136/136 134/134/134
f 135/135/135 134/134/134 137/137/137
f 126/126/126 135/135/135 137/137/137
f 126/126/126 137/137/137 138/138/138
f 126/126/126 138/138/138 123/123/123
f 138/138/138 139/139/139 123/123/123
f 123/123/123 139/139/139 140/140/140
f 123/123/123 140/140/140 114/114/114
f 114/114/114 140/140/140 141/141/141
f 114/114/114 141/141/141 142/142/142
f 139/139/139 143/143/143 140/140/140
f 143/143/143 141/141/141 140/140/140
f 142/142/142 141/141/141 144/144/144
f 142/142/142 144/144/144 145/145/145
f 145/145/145 144/144/144 146/146/146
f 145/145/145 146/146/146 147/147/147
f 144/144/144 148/148/148 146/146/146
f 144/144/144 149/149/149 148/148/148
f 141/141/141 149/149/149 144/144/144
f 141/141/141 150/150/150 149/149/149
f 143/143/143 150/150/150 141/141/141
f 151/151/151 150/150/150 143/143/143
f 152/152/152 150/150/150 151/151/151
f 143/143/143 139/139/139 153/153/153
f 151/151/151 143/143/143 153/153/153
f 153/153/153 139/139/139 154/154/154
f 154/154/154 139/139/139 138/138/138
f 152/152/152 151/151/151 155/155/155
f 156/156/156 152/152/152 155/155/155
f 156/156/156 155/155/155 157/157/157
f 157/157/157 155/155/155 158/158/158
f 157/157/157 158/158/158 159/159/159
f 155/155/155 160/160/160 158/158/158
f 155/155/155 151/151/151 160/160/160
f 151/151/151 161/161/161 160/160/160
f 151/151/151 153/153/153 161/161/161
f 153/153/153 154/154/154 161/161/161
f 154/154/154 138/138/138 162/162/162
f 163/163/163 162/162/162 138/138/138
f 154/154/154 164/164/164 161/161/161
f 164/164/164 154/154/154 162/162/162
f 161/161/161 164/164/164 165/165/165
f 161/161/161 165/165/165 166/166/166
f 167/167/167 166/166/166 165/165/165
f 163/163/163 168/168/168 162/162/162
f 169/169/169 168/168/168 163/163/163
f 164/164/164 162/162/162 170/170/170
f 165/165/165 164/164/164 170/170/170
f 170/170/170 162/162/162 171/171/171
f 171/171/171 162/162/162 168/168/168
f 165/165/165 170/170/170 172/172/172
f 171/171/171 172/172/172 170/170/170
f 167/167/167 165/165/165 173/173/173
f 173/173/173 165/165/165 172/172/172
f 174/174/174 167/167/167 173/173/173
f 174/174/174 175/175/175 167/167/167
f 176/176/176 174/174/174 173/173/173
f 173/173/173 172/172/172 177/177/177
f 176/176/176 173/173/173 177/177/177
f 178/178/178 176/176/176 177/177/177
f 178/178/178 179/179/179 176/176/176
f 180/180/180 178/178/178 177/177/177
f 180/180/180 177/177/177 172/172/172
f 171/171/171 180/180/180 172/172/172
f 171/171/171 181/181/181 180/180/180
f 181/181/181 182/182/182 180/180/180
f 181/181/181 183/183/183 182/182/182
f 183/183/183 184/184/184 182/182/182
f 183/183/183 185/185/185 184/184/184
f 186/186/186 185/185/185 183/183/183
f 186/186/186 183/183/183 187/187/187
f 188/188/188 186/186/186 187/187/187
f 188/188/188 187/187/187 189/189/189
f 169/169/169 189/189/189 187/187/187
f 187/187/187 183/183/183 190/190/190
f 190/190/190 171/171/171 168/168/168
f 169/169/169 191/191/191 168/168/168
f 169/169/169 187/187/187 191/191/191
f 190/190/190 168/168/168 191/191/191
f 187/187/187 190/190/190 191/191/191
f 192/192/192 193/193/193 194/194/194
f 195/195/195 193/193/193 192/192/192
f 195/195/195 192/192/192 196/196/196
f 197/197/197 195/195/195 196/196/196
f 197/197/197 196/196/196 198/198/198
f 198/198/198 199/199/199 197/197/197
f 198/198/198 200/200/200 199/199/199
f 201/201/201 199/199/199 200/200/200
f 202/202/202 195/195/195 197/197/197
f 199/199/199 202/202/202 197/197/197
f 201/201/201 203/203/203 199/199/199
f 203/203/203 204/204/204 199/199/199
f 203/203/203 201/201/201 205/205/205
f 203/203/203 206/206/206 204/204/204
f 195/195/195 207/207/207 193/193/193
f 202/202/202 207/207/207 195/195/195
f 202/202/202 208/208/208 207/207/207
f 202/202/202 206/206/206 208/208/208
f 209/209/209 208/208/208 206/206/206
f 207/207/207 210/210/210 193/193/193
f 211/211/211 193/193/193 210/210/210
f 211/211/211 210/210/210 212/212/212
f 210/210/210 207/207/207 213/213/213
f 212/212/212 210/210/210 214/214/214
f 205/205/205 215/215/215 203/203/203
f 203/203/203 215/215/215 206/206/206
f 215/215/215 205/205/205 216/216/216
f 206/206/206 215/215/215 216/216/216
f 217/217/217 216/216/216 205/205/205
f 210/210/210 213/213/213 218/218/218
f 214/214/214 210/210/210 218/218/218
f 213/213/213 219/219/219 218/218/218
f 218/218/218 219/219/219 214/214/214
f 219/219/219 220/220/220 214/214/214
f 219/219/219 221/221/221 220/220/220
f 219/219/219 222/222/222 221/221/221
f 213/213/213 209/209/209 219/219/219
f 219/219/219 209/209/209 222/222/222
f 222/222/222 209/209/209 223/223/223
f 206/206/206 216/216/216 224/224/224
f 209/209/209 206/206/206 224/224/224
f 217/217/217 225/225/225 216/216/216
f 225/225/225 224/224/224 216/216/216
f 209/209/209 224/224/224 226/226/226
f 226/226/226 224/224/224 225/225/225
f 223/223/223 209/209/209 226/226/226
f 227/227/227 225/225/225 217/217/217
f 226/226/226 225/225/225 227/227/227
f 227/227/227 217/217/217 228/228/228
f 226/226/226 227/227/227 229/229/229
f 229/229/229 227/227/227 228/228/228
f 230/230/230 226/226/226 229/229/229
f 230/230/230 229/229/229 228/228/228
f 223/223/223 226/226/226 230/230/230
f 230/230/230 228/228/228 231/231/231
f 231/231/231 223/223/223 230/230/230
f 232/232/232 223/223/223 231/231/231
f 233/233/233 223/223/223 232/232/232
f 233/233/233 234/234/234 223/223/223
f 234/234/234 233/233/233 235/235/235
f 236/236/236 237/237/237 238/238/238
f 239/239/239 237/237/237 236/236/236
f 238/238/238 237/237/237 240/240/240
f 241/241/241 237/237/237 239/239/239
f 240/240/240 237/237/237 242/242/242
f 243/243/243 237/237/237 241/241/241
f 242/242/242 237/237/237 244/244/244
f 245/245/245 237/237/237 243/243/243
f 244/244/244 237/237/237 246/246/246
f 247/247/247 237/237/237 245/245/245
f 246/246/246 237/237/237 248/248/248
f 249/249/249 237/237/237 247/247/247
f 248/248/248 237/237/237 250/250/250
f 250/250/250 237/237/237 249/249/249
