# chair_b_LOD1
v 0.215694964 1.04040909 -0.284964442
v 0.248997107 1.03895307 -0.277425259
v 0.250786275 1.04089463 -0.287477523
v 0.250338972 1.0356698 -0.331602931
v 0.250786275 1.04089463 -0.287477523
v 0.250338972 1.02619112 -0.272224426
v -0.218733862 1.03895307 -0.277425259
v -0.216944695 1.04089463 -0.287477523
v -0.252035946 1.04040921 -0.284964442
v -0.216944695 1.04089463 -0.287477523
v -0.217391968 1.02619112 -0.272224426
v -0.217391968 1.03567004 -0.331602901
v -0.217391968 0.61112684 -0.278193116
v -0.217391968 1.03567004 -0.331602901
v -0.217391968 0.61112684 -0.213876873
v -0.217391968 0.334375083 -0.267763883
v -0.217391968 0.334427953 -0.208050221
v -0.217391968 3.15185625E-17 -0.272172451
v -0.217391968 2.8393858E-17 -0.221142188
v -0.252035946 1.04040921 -0.284964442
v -0.252035975 1.03567004 -0.331602931
v -0.252035975 1.02619112 -0.272224426
v 0.248997107 1.03895307 -0.277425259
v 0.250338972 1.02619112 -0.272224426
v 0.250786275 1.04089463 -0.287477523
v 0.250338972 0.61112684 -0.278193116
v 0.250338972 1.0356698 -0.331602931
v 0.250338972 0.61112684 -0.213876873
v -0.218733862 1.03895307 -0.277425259
v -0.217391968 1.02619112 -0.272224426
v -0.216944695 1.04089463 -0.287477523
v -0.252035946 1.04040921 -0.284964442
v -0.217391968 1.02619112 -0.272224426
v -0.252035975 1.02619112 -0.272224426
v -0.217391968 0.61112684 -0.213876873
v -0.252035975 0.61112684 -0.213876873
v -0.252035975 0.61112684 -0.213876873
v -0.217391968 0.334427953 -0.208050221
v -0.252035975 0.334427953 -0.208050221
v 0.263099909 1.90558425E-18 0.211444139
v 0.200858817 -1.90558425E-18 0.273685247
v 0.200858817 1.90558425E-18 0.211444139
v 0.263099909 -1.90558425E-18 0.273685247
v 0.263099909 0.497313172 0.273685247
v 0.200858817 -1.90558425E-18 0.273685247
v 0.263099909 -1.90558425E-18 0.273685247
v 0.200858817 0.497313172 0.273685247
v 0.200858817 1.90558425E-18 0.211444139
v 0.200858817 0.497313172 0.273685247
v 0.200858817 0.497313172 0.211444139
v 0.200858817 -1.90558425E-18 0.273685247
v 0.200858817 0.497313172 0.211444139
v 0.263099909 1.90558425E-18 0.211444139
v 0.200858817 1.90558425E-18 0.211444139
v 0.263099909 0.497313172 0.211444139
v 0.263099909 -1.90558425E-18 0.273685247
v 0.263099909 0.497313172 0.211444139
v 0.263099909 0.497313172 0.273685247
v 0.263099909 1.90558425E-18 0.211444139
v 0.215694964 1.0356698 -0.331602901
v 0.250786275 1.04089463 -0.287477523
v 0.250338972 1.0356698 -0.331602931
v 0.215694964 1.04040909 -0.284964442
v 0.250338972 0.334427953 -0.208050221
v 0.215694964 2.8393858E-17 -0.221142188
v 0.250338972 2.8393858E-17 -0.221142188
v 0.215694964 0.334427953 -0.208050221
v 0.250338972 0.61112684 -0.213876873
v 0.215694964 0.61112684 -0.213876873
v 0.215694964 0.334427953 -0.208050221
v 0.215694964 3.15185625E-17 -0.272172451
v 0.215694964 2.8393858E-17 -0.221142188
v 0.215694964 0.334375083 -0.267763883
v 0.215694964 0.61112684 -0.213876873
v 0.215694964 0.61112684 -0.278193116
v 0.215694964 0.334375083 -0.267763883
v 0.250338972 3.15185625E-17 -0.272172451
v 0.215694964 3.15185625E-17 -0.272172451
v 0.250338972 0.334375083 -0.267763883
v 0.215694964 0.61112684 -0.278193116
v 0.250338972 0.61112684 -0.278193116
v 0.250338972 2.8393858E-17 -0.221142188
v 0.250338972 0.334375083 -0.267763883
v 0.250338972 0.334427953 -0.208050221
v 0.250338972 3.15185625E-17 -0.272172451
v 0.215694964 1.02619112 -0.272224426
v 0.248997107 1.03895307 -0.277425259
v 0.215694964 1.04040909 -0.284964442
v 0.250338972 1.02619112 -0.272224426
v 0.215694964 0.61112684 -0.213876873
v 0.250338972 0.61112684 -0.213876873
v 0.215694964 1.04040909 -0.284964442
v 0.215694964 1.0356698 -0.331602901
v 0.215694964 1.02619112 -0.272224426
v 0.215694964 0.61112684 -0.278193116
v 0.215694964 0.61112684 -0.213876873
v 0.250338972 0.61112684 -0.278193116
v 0.215694964 1.0356698 -0.331602901
v 0.250338972 1.0356698 -0.331602931
v 0.215694964 0.61112684 -0.278193116
v 0.250338972 0.61112684 -0.278193116
v 0.250338972 0.334427953 -0.208050221
v 0.250338972 0.334375083 -0.267763883
v 0.250338972 0.61112684 -0.213876873
v -0.264796913 0.497313172 0.273685247
v -0.202555835 -1.90558446E-18 0.273685247
v -0.202555835 0.497313172 0.273685247
v -0.264796913 -1.90558446E-18 0.273685247
v -0.202555835 1.90558446E-18 0.211444125
v -0.202555835 0.497313172 0.273685247
v -0.202555835 -1.90558446E-18 0.273685247
v -0.202555835 0.497313172 0.211444139
v -0.202555835 0.497313172 0.211444139
v -0.264796913 1.90558446E-18 0.211444125
v -0.264796913 0.497313172 0.211444139
v -0.202555835 1.90558446E-18 0.211444125
v -0.264796913 -1.90558446E-18 0.273685247
v -0.264796913 0.497313172 0.211444139
v -0.264796913 1.90558446E-18 0.211444125
v -0.264796913 0.497313172 0.273685247
v -0.217391968 3.15185625E-17 -0.272172451
v -0.252035975 2.8393858E-17 -0.221142188
v -0.252035975 3.15185625E-17 -0.272172451
v -0.217391968 2.8393858E-17 -0.221142188
v -0.217391968 1.03567004 -0.331602901
v -0.252035946 1.04040921 -0.284964442
v -0.216944695 1.04089463 -0.287477523
v -0.252035975 1.03567004 -0.331602931
v -0.217391968 2.8393858E-17 -0.221142188
v -0.252035975 0.334427953 -0.208050221
v -0.252035975 2.8393858E-17 -0.221142188
v -0.217391968 0.334427953 -0.208050221
v -0.252035975 3.15185625E-17 -0.272172451
v -0.217391968 0.334375083 -0.267763883
v -0.217391968 3.15185625E-17 -0.272172451
v -0.252035975 0.334375083 -0.267763883
v -0.252035975 2.8393858E-17 -0.221142188
v -0.252035975 0.334375083 -0.267763883
v -0.252035975 3.15185625E-17 -0.272172451
v -0.252035975 0.334427953 -0.208050221
v -0.252035975 0.61112684 -0.278193116
v -0.252035975 0.61112684 -0.213876873
v -0.252035975 1.02619112 -0.272224426
v -0.252035975 1.03567004 -0.331602931
v -0.252035975 0.61112684 -0.278193116
v -0.217391968 1.03567004 -0.331602901
v -0.217391968 0.61112684 -0.278193116
v -0.252035975 1.03567004 -0.331602931
v -0.217391968 0.61112684 -0.278193116
v -0.252035975 0.334375083 -0.267763883
v -0.217391968 0.334375083 -0.267763883
v -0.202555835 -1.90558446E-18 0.273685247
v -0.264796913 1.90558446E-18 0.211444125
v -0.202555835 1.90558446E-18 0.211444125
v -0.264796913 -1.90558446E-18 0.273685247
v 0.250338972 2.8393858E-17 -0.221142188
v 0.215694964 3.15185625E-17 -0.272172451
v 0.250338972 3.15185625E-17 -0.272172451
v 0.215694964 2.8393858E-17 -0.221142188
v 0.241536692 0.495148689 0.209064692
v 0.241536692 0.378010541 -0.209349662
v 0.241536692 0.495148689 -0.209349662
v 0.241536692 0.378010541 0.209064692
v 0.222422048 0.378010541 0.209064692
v 0.222422048 0.378010541 -0.209349662
v 0.222422048 0.495148689 -0.209349662
v 0.222422048 0.495148689 0.209064692
v -0.202500761 0.378010541 0.250760019
v 0.200803757 0.495148689 0.250760019
v -0.202500761 0.495148689 0.250760019
v 0.200803757 0.378010541 0.250760019
v -0.202500761 0.378010541 0.231645331
v 0.200803757 0.378010541 0.231645331
v -0.202500761 0.495148689 0.231645331
v 0.200803757 0.495148689 0.231645331
v -0.216050103 0.840835631 -0.269113421
v 0.214353099 1.00651026 -0.298326194
v -0.216050103 1.00651026 -0.298326194
v 0.214353099 0.840835631 -0.269113421
v -0.216050103 0.837516546 -0.287937731
v 0.214353099 0.837516546 -0.287937731
v -0.216050103 1.00319111 -0.317150503
v 0.214353099 1.00319111 -0.317150503
v -0.216050103 1.00651026 -0.298326194
v 0.214353099 1.00651026 -0.298326194
v -0.216050103 0.495148689 -0.225312948
v 0.214353099 0.378010541 -0.225312948
v 0.214353099 0.495148689 -0.225312948
v -0.216050103 0.378010541 -0.225312948
v 0.214353099 0.378010541 -0.244427636
v -0.216050103 0.378010541 -0.244427636
v -0.216050103 0.495148689 -0.244427636
v 0.214353099 0.495148689 -0.244427636
v -0.243233711 0.378010541 -0.209349662
v -0.243233711 0.495148689 0.209064692
v -0.243233711 0.495148689 -0.209349662
v -0.243233711 0.378010541 0.209064692
v -0.224119022 0.378010541 0.209064692
v -0.224119022 0.378010541 -0.209349662
v -0.224119022 0.495148689 -0.209349662
v -0.224119022 0.495148689 0.209064692
v -0.206402585 0.510288 0.29319337
v 0.215871006 0.492473185 0.285151452
v 0.2158636 0.510219395 0.285151392
v -0.20640254 0.49254179 0.29319334
v 0.286826551 0.512504339 0.291144013
v 0.2158636 0.510219395 0.285151392
v 0.286826551 0.494758129 0.291143984
v -0.206402585 0.510288 0.29319337
v -0.283247173 0.494598448 0.28836152
v -0.283247322 0.512344658 0.28836152
v -0.104470059 0.511853337 -0.304657042
v -0.208024397 0.494426072 -0.295817494
v -0.208024517 0.512172282 -0.295817494
v -0.104470059 0.494107097 -0.304657042
v 0.0985834599 0.512337148 -0.311370999
v 0.0985832736 0.494590908 -0.31137076
v 0.207502171 0.510879219 -0.202011377
v 0.203705966 0.494500875 -0.300433874
v 0.203707054 0.512247086 -0.300433815
v 0.207443267 0.493133008 -0.202011794
v 0.286747664 0.494762957 -0.194123834
v 0.286747694 0.512509167 -0.194123983
v 0.286826551 0.512504339 0.291144013
v 0.286747664 0.494762957 -0.194123834
v 0.286747694 0.512509167 -0.194123983
v 0.286826551 0.494758129 0.291143984
v 0.286826551 0.494758129 0.291143984
v 0.207443267 0.493133008 -0.202011794
v 0.286747664 0.494762957 -0.194123834
v 0.215871006 0.492473185 0.285151452
v 0.0985832736 0.494590908 -0.31137076
v 0.203705966 0.494500875 -0.300433874
v -0.20640254 0.49254179 0.29319334
v -0.104470059 0.494107097 -0.304657042
v -0.21195285 0.493110955 -0.19639343
v -0.208024397 0.494426072 -0.295817494
v -0.283247173 0.494598448 0.28836152
v -0.286524564 0.494725943 -0.198261067
v -0.206402585 0.510288 0.29319337
v -0.286524564 0.512472153 -0.198261067
v -0.283247322 0.512344658 0.28836152
v -0.21195285 0.510857224 -0.196393356
v -0.104470059 0.511853337 -0.304657042
v -0.208024517 0.512172282 -0.295817494
v 0.0985834599 0.512337148 -0.311370999
v 0.2158636 0.510219395 0.285151392
v 0.207502171 0.510879219 -0.202011377
v 0.203707054 0.512247086 -0.300433815
v 0.286747694 0.512509167 -0.194123983
v 0.286826551 0.512504339 0.291144013
v -0.286524564 0.512472153 -0.198261067
v -0.283247173 0.494598448 0.28836152
v -0.283247322 0.512344658 0.28836152
v -0.286524564 0.494725943 -0.198261067
v -0.208024397 0.494426072 -0.295817494
v -0.21195285 0.510857224 -0.196393356
v -0.208024517 0.512172282 -0.295817494
v -0.21195285 0.493110955 -0.19639343
v -0.286524564 0.512472153 -0.198261067
v -0.286524564 0.494725943 -0.198261067
v 0.0985832736 0.494590908 -0.31137076
v 0.203707054 0.512247086 -0.300433815
v 0.203705966 0.494500875 -0.300433874
v 0.0985834599 0.512337148 -0.311370999
vn -0.125963449 0.709434509 0.693423331
vn -0.0107263559 0.998310924 -0.0570982285
vn -0.01774396 0.998333275 -0.0549164377
vn 0.999319196 -0.036433205 -0.00581593672
vn 0.999999523 -0.00103938009 2.99095955E-05
vn 0.999999881 -0.000501700561 -8.00878915E-05
vn 0.0724592805 0.687461436 0.722596943
vn -0.0105375629 0.998065174 -0.0612774752
vn -0.0329313353 0.673386991 0.738556266
vn 0.999628305 -0.027072696 0.00321528222
vn 0.999999881 -0.000501669827 -8.00843191E-05
vn 0.999319196 -0.0364319682 -0.00581583614
vn 1 0 0
vn 0.999999881 -0.000501669827 -8.00843191E-05
vn 1 0 0
vn 1 0 0
vn 1 0 0
vn 1 0 0
vn 1 0 0
vn -1 3.13080886E-06 4.99787973E-07
vn -1 0 0
vn -1 3.13080886E-06 4.99787973E-07
vn 0.194722071 0.49340409 0.847723842
vn 0.999999523 -0.00103938009 2.99095955E-05
vn 0.960685611 0.185277507 0.206773445
vn 1 0 0
vn 0.999999881 -0.000501700561 -8.00878915E-05
vn 1 0 0
vn 0.0724592805 0.687461436 0.722596943
vn 1 0.000211998005 0.000236592343
vn 0.999628305 -0.027072696 0.00321528222
vn -0.0329313353 0.673386991 0.738556266
vn -0.00378107303 0.151339084 0.988474667
vn 0 0.163371205 0.986564636
vn 0 0.0923724174 0.995724559
vn 0 0.0923723951 0.995724559
vn 0 0.0210530367 0.99977833
vn 0 0.0923724174 0.995724559
vn 0 0.0210530367 0.99977833
vn 0 -0.12418592 -0.992258966
vn 0 -0.12418592 0.992258966
vn 0 -0.124185905 -0.992258966
vn 0 -0.124185905 0.992258966
vn 0 0 1
vn 0 -0.12418592 0.992258966
vn 0 -0.124185905 0.992258966
vn 0 0 1
vn -1 0 0
vn -1 0 0
vn -1 0 0
vn -1 0 0
vn 0 0 -1
vn 0 -0.12418592 -0.992258966
vn 0 -0.124185905 -0.992258966
vn 0 0 -1
vn 1 0 0
vn 1 0 0
vn 1 0 0
vn 1 0 0
vn -0.00928184856 0.993855178 -0.110298127
vn -0.0107263559 0.998310924 -0.0570982285
vn -1.29475069E-07 0.993062794 -0.117585704
vn -0.01774396 0.998333275 -0.0549164377
vn 0 -0.0118875522 0.999929309
vn 0 -0.188307002 0.982110202
vn 0 -0.188306957 0.982110202
vn 0 -0.0118875625 0.999929309
vn 0 -0.0118875625 0.999929309
vn 0 -0.0118875522 0.999929309
vn -1 0 0
vn -1 0 0
vn -1 0 0
vn -1 0 0
vn -1 0 0
vn -1 0 0
vn 0 -0.00985125545 -0.999951482
vn 0 -0.138093501 -0.990419209
vn 0 -0.138093531 -0.990419209
vn 0 -0.00985126011 -0.999951482
vn 0 -0.00985126011 -0.999951482
vn 0 -0.00985125545 -0.999951482
vn 1 0 0
vn 1 0 0
vn 1 0 0
vn 1 0 0
vn -0.00451078499 0.158948794 0.987276495
vn 0.194722071 0.49340409 0.847723842
vn -0.125963449 0.709434509 0.693423331
vn 0 0.146462932 0.989216089
vn 0 0.139206037 0.990263462
vn 0 0.139206022 0.990263462
vn -1 2.93514432E-07 0
vn -1 0 0
vn -1 0 0
vn -1 0 0
vn -1 0 0
vn 0 -0.124821447 -0.992179275
vn -1.03631191E-06 -0.124821521 -0.992179275
vn -1.09250084E-06 -0.124821521 -0.992179275
vn 0 -0.124821447 -0.992179275
vn 1 0 0
vn 1 0 0
vn 1 0 0
vn 1 0 0
vn 0 0 1
vn 0 -0.124185935 0.992258966
vn 0 0 1
vn 0 -0.124185935 0.992258966
vn 1 0 0
vn 1 0 0
vn 1 0 0
vn 1 0 0
vn 0 0 -1
vn 0 -0.124185935 -0.992258966
vn 0 0 -1
vn 0 -0.124185935 -0.992258966
vn -1 0 0
vn -1 0 0
vn -1 0 0
vn -1 0 0
vn 0 -0.138093516 -0.990419209
vn 0 -0.188306957 0.982110202
vn 0 -0.138093501 -0.990419209
vn 0 -0.188307002 0.982110202
vn -0.00884265173 0.994155884 -0.107590951
vn -0.0105375629 0.998065174 -0.0612774752
vn -0.0221358836 0.992845953 -0.117332332
vn 1.11317696E-07 0.994876683 -0.101095609
vn 0 -0.188307002 0.982110202
vn 0 -0.039117381 0.999234557
vn 0 -0.188306957 0.982110202
vn 0 -0.039117381 0.999234557
vn 0 -0.138093501 -0.990419209
vn 0 0.0131833581 -0.999913096
vn 0 -0.138093516 -0.990419209
vn 0 0.0131833591 -0.999913096
vn -1 0 0
vn -1 0 0
vn -1 0 0
vn -1 0 0
vn -1 0 0
vn -1 0 0
vn -1 0 0
vn -1 0 0
vn 0 -0.0906553417 -0.995882392
vn 1.03631248E-06 -0.124821492 -0.992179275
vn 0 -0.0906553566 -0.995882392
vn 1.09250141E-06 -0.124821492 -0.992179275
vn 0 -0.0376576893 -0.999290705
vn 0 -0.0906553417 -0.995882392
vn 0 -0.0376576856 -0.999290705
vn 0 -0.124185935 0.992258966
vn 0 -0.124185935 -0.992258966
vn 0 -0.124185935 -0.992258966
vn 0 -0.124185935 0.992258966
vn 0 -0.188306957 0.982110202
vn 0 -0.138093531 -0.990419209
vn 0 -0.138093501 -0.990419209
vn 0 -0.188307002 0.982110202
vn 1 0 0
vn 0.986946166 -0.161050409 0
vn 1 0 0
vn 0.986946166 -0.161050409 0
vn -0.986946166 -0.161050409 0
vn -0.986946166 -0.161050409 0
vn -1 0 0
vn -1 0 0
vn 0 -0.161050558 0.986946166
vn 0 0 1
vn 0 0 1
vn 0 -0.161050618 0.986946166
vn 0 -0.161050618 -0.986946166
vn 0 -0.161050558 -0.986946166
vn 0 0 -1
vn 0 0 -1
vn 0 0.0613565519 0.998115897
vn 0 0.283717662 0.958907783
vn 0 0.283717662 0.958907783
vn 0 0.0613565408 0.998115897
vn 0 -0.283717692 -0.958907783
vn 0 -0.283717662 -0.958907783
vn 0 -0.0613565631 -0.998115897
vn 0 -0.0613565445 -0.998115897
vn 0 0.283717662 0.958907783
vn 0 0.283717662 0.958907783
vn 0 0 1
vn 0 -0.161050588 0.986946166
vn 0 0 1
vn 0 -0.161050603 0.986946166
vn 0 -0.161050618 -0.986946166
vn 0 -0.161050558 -0.986946166
vn 0 0 -1
vn 0 0 -1
vn -0.986946166 -0.161050618 0
vn -1 0 0
vn -1 0 0
vn -0.986946166 -0.161050558 0
vn 0.986946166 -0.161050618 0
vn 0.986946166 -0.161050558 0
vn 1 0 0
vn 1 0 0
vn 0.0190408714 -6.92621995E-07 0.999818742
vn 0.00440811412 5.98974248E-06 0.999990344
vn 0.0066173519 9.76201136E-06 0.999978185
vn 0.0190408565 -1.0336679E-06 0.999818742
vn 0.989674985 -8.54722657E-07 0.14332971
vn -0.084146671 -3.14327481E-05 0.996453404
vn 0.988798797 -1.60418125E-07 0.149254933
vn -0.0627542287 -1.26525777E-06 0.998028934
vn -0.986549854 -8.45424165E-06 0.16346024
vn -0.987383306 -8.66005212E-06 0.158348516
vn -0.0507029593 -4.80846268E-07 -0.998713732
vn -0.711651683 -4.06595746E-06 -0.70253253
vn -0.707645476 -4.56342286E-06 -0.706567705
vn -0.0506214015 -8.3169507E-06 -0.998717904
vn -0.0330457725 -1.18558382E-05 -0.999453843
vn -0.0506214015 -8.3169507E-06 -0.998717904
vn 0.786413312 -0.00230428902 -0.617696345
vn 0.711390853 -0.000275575207 -0.702796459
vn 0.705665171 -4.06706058E-05 -0.708545446
vn 0.78976506 -0.0026071188 -0.613403916
vn 0.986986816 -8.52468293E-06 -0.160801783
vn 0.987626016 -1.8792017E-06 -0.156827331
vn 0.989674985 -8.54722657E-07 0.14332971
vn 0.986986816 -8.52468293E-06 -0.160801783
vn 0.987626016 -1.8792017E-06 -0.156827331
vn 0.988798797 -1.60418125E-07 0.149254933
vn 0.0309541039 -0.999519348 -0.00168888399
vn 0.00194007659 -0.999997139 -0.00138798787
vn 0.0205499828 -0.999788821 -1.3243106E-05
vn -0.000535077241 -0.99999392 -0.00344489911
vn 0.00278217299 -0.999992728 -0.00262824888
vn 0.000591825054 -0.999902964 -0.0139191644
vn -0.00319253141 -0.999990344 -0.00302229519
vn 0.00306263613 -0.999993086 -0.00209599524
vn 0.00760941114 -0.999969244 -0.00192950526
vn -0.00422330108 -0.999901414 -0.013392915
vn -0.0262447298 -0.999655247 -0.000792379142
vn -0.0216488894 -0.999765694 -0.000116117342
vn -0.00246770144 0.999993324 0.00272009498
vn 0.0221550334 0.99975425 0.000831285666
vn 0.0267490596 0.999642134 8.18221233E-05
vn -0.00246770144 0.999993324 0.00272009498
vn 0.00234786328 0.999995708 0.00173951464
vn 0.00422326196 0.999901414 0.0133925183
vn 0.000437936367 0.99999547 0.00300686085
vn -0.00382879539 0.999988198 0.00299506588
vn 0.0115453107 0.999931693 0.00183192815
vn -0.000591932272 0.999902964 0.0139198564
vn -0.0216437578 0.999764502 0.00157528627
vn -0.0321834721 0.999481976 1.51304093E-05
vn -0.989654541 -1.01612841E-07 -0.143470928
vn -0.986549854 -8.45424165E-06 0.16346024
vn -0.987383306 -8.66005212E-06 0.158348516
vn -0.989055872 0 -0.147542104
vn -0.711651683 -4.06595746E-06 -0.70253253
vn -0.777513206 2.11791621E-06 -0.628866613
vn -0.707645476 -4.56342286E-06 -0.706567705
vn -0.780700266 2.3039704E-06 -0.624905646
vn -0.989654541 -1.01612841E-07 -0.143470928
vn -0.989055872 0 -0.147542104
vn 0.103482507 -1.26275381E-05 -0.99463129
vn 0.705665171 -4.06706058E-05 -0.708545446
vn 0.711390853 -0.000275575207 -0.702796459
vn 0.103482708 -1.38848545E-05 -0.99463129
vt 0.22953783 0.448049396
vt 0.231020629 0.430685282
vt 0.224868685 0.430843949
vt 0.230973005 0.489400566
vt 0.230954438 0.508664787
vt 0.238117412 0.514782906
vt 0.205004424 0.337452531
vt 0.211132735 0.337452531
vt 0.208068579 0.323642671
vt 0.232319161 0.359590381
vt 0.239651799 0.365216553
vt 0.231686488 0.339685112
vt 0.418108225 0.337573051
vt 0.231686488 0.339685112
vt 0.420536935 0.365212321
vt 0.538982868 0.338253975
vt 0.539038181 0.364265501
vt 0.68356061 0.338846713
vt 0.68355006 0.363712609
vt 0.232450172 0.384330332
vt 0.232258916 0.405128479
vt 0.239604875 0.380195379
vt 0.231916308 0.513245463
vt 0.238117412 0.514782906
vt 0.230954438 0.508664787
vt 0.416297853 0.48752594
vt 0.230973005 0.489400566
vt 0.418971539 0.515675068
vt 0.233208746 0.36468482
vt 0.239651799 0.365216553
vt 0.232319161 0.359590381
vt 0.232450172 0.384330332
vt 0.239651799 0.365216553
vt 0.239604875 0.380195379
vt 0.420536935 0.365212321
vt 0.420481235 0.380307436
vt 0.420481235 0.380307436
vt 0.539038181 0.364265501
vt 0.539105773 0.380129576
vt 0.498332769 0.100072719
vt 0.525199056 0.126939029
vt 0.525199056 0.100072719
vt 0.498332769 0.126939029
vt 0.264419913 0.114370704
vt 0.479083985 0.143291056
vt 0.479083985 0.114370704
vt 0.264419913 0.143291056
vt 0.479083985 0.170157447
vt 0.264419913 0.143291056
vt 0.264419883 0.170157447
vt 0.479083985 0.143291056
vt 0.264419973 0.0571316034
vt 0.479083985 0.0854503512
vt 0.479084045 0.0571315624
vt 0.264419973 0.0854503512
vt 0.479083985 0.114370704
vt 0.264419973 0.0854503512
vt 0.264419913 0.114370704
vt 0.479083985 0.0854503512
vt 0.207875311 0.444653869
vt 0.224868685 0.430843949
vt 0.207875311 0.430843979
vt 0.22953783 0.448049396
vt 0.537919998 0.431166321
vt 0.681839228 0.449718714
vt 0.682388067 0.435117066
vt 0.537343025 0.445845127
vt 0.418561727 0.429797947
vt 0.418698668 0.444283545
vt 0.537343025 0.445845127
vt 0.681638062 0.472093344
vt 0.681839228 0.449718714
vt 0.537067533 0.472066939
vt 0.418698668 0.444283545
vt 0.416238368 0.472132981
vt 0.537067533 0.472066939
vt 0.681553662 0.487358153
vt 0.681638062 0.472093344
vt 0.536994457 0.4873541
vt 0.416238368 0.472132981
vt 0.416297853 0.48752594
vt 0.681488276 0.509805381
vt 0.536994457 0.4873541
vt 0.537044942 0.513484716
vt 0.681553662 0.487358153
vt 0.237823874 0.444469452
vt 0.231020629 0.430685282
vt 0.22953783 0.448049396
vt 0.23738946 0.430021942
vt 0.418698668 0.444283545
vt 0.418561727 0.429797947
vt 0.22953783 0.448049396
vt 0.23087208 0.469680488
vt 0.237823874 0.444469452
vt 0.416238368 0.472132981
vt 0.418698668 0.444283545
vt 0.416297853 0.48752594
vt 0.23087208 0.469680488
vt 0.230973005 0.489400566
vt 0.416238368 0.472132981
vt 0.416297853 0.48752594
vt 0.537044942 0.513484716
vt 0.536994457 0.4873541
vt 0.418971539 0.515675068
vt 0.266673982 0.245533556
vt 0.481338114 0.216613144
vt 0.266673923 0.216613114
vt 0.481338054 0.245533556
vt 0.481338114 0.189746946
vt 0.266673923 0.216613114
vt 0.481338114 0.216613144
vt 0.266673923 0.189746872
vt 0.266673952 0.302772611
vt 0.481337994 0.274453908
vt 0.266673952 0.274453908
vt 0.481337994 0.302772611
vt 0.481338054 0.245533556
vt 0.266673952 0.274453908
vt 0.481337994 0.274453908
vt 0.266673982 0.245533556
vt 0.204940945 0.346322536
vt 0.219909638 0.368371904
vt 0.219909638 0.346322507
vt 0.204940945 0.368371904
vt 0.231686488 0.339685112
vt 0.208068579 0.323642671
vt 0.211132735 0.337452531
vt 0.231146812 0.323436141
vt 0.68355006 0.363712609
vt 0.539105773 0.380129576
vt 0.683643937 0.380057931
vt 0.539038181 0.364265501
vt 0.683373988 0.323716521
vt 0.538982868 0.338253975
vt 0.68356061 0.338846713
vt 0.538808405 0.323643327
vt 0.683643937 0.380057931
vt 0.539679527 0.406598508
vt 0.684261203 0.402700722
vt 0.539105773 0.380129576
vt 0.417833209 0.408213794
vt 0.420481235 0.380307436
vt 0.239604875 0.380195379
vt 0.232258916 0.405128479
vt 0.418245167 0.323147565
vt 0.231686488 0.339685112
vt 0.418108225 0.337573051
vt 0.231146812 0.323436141
vt 0.418108225 0.337573051
vt 0.538808405 0.323643327
vt 0.538982868 0.338253975
vt 0.497938424 0.0611656047
vt 0.524804592 0.0880317688
vt 0.524804592 0.0611656047
vt 0.497938424 0.0880317688
vt 0.222175807 0.485958487
vt 0.206870899 0.507776022
vt 0.221838042 0.508005261
vt 0.207208976 0.485729218
vt 0.408545971 0.54319644
vt 0.589153528 0.593758762
vt 0.589153528 0.54319644
vt 0.408545971 0.593758762
vt 0.408545971 0.602009773
vt 0.589153409 0.602009773
vt 0.589153409 0.652572155
vt 0.408545911 0.652572155
vt 0.210583642 0.594750404
vt 0.384669006 0.544188023
vt 0.210583642 0.544188023
vt 0.384669006 0.594750404
vt 0.210583553 0.603001177
vt 0.384669006 0.603001177
vt 0.210583553 0.653563738
vt 0.384669006 0.653563738
vt 0.683147848 0.231858313
vt 0.49650538 0.303702384
vt 0.683147848 0.303702444
vt 0.49650538 0.231858313
vt 0.683147848 0.223695278
vt 0.49650538 0.223695219
vt 0.683147907 0.151851058
vt 0.49650538 0.151851058
vt 0.683147848 0.143687963
vt 0.49650538 0.143687963
vt 0.192397863 0.525517821
vt 0.00661537051 0.47495544
vt 0.00661537051 0.525517821
vt 0.192397863 0.47495544
vt 0.00661537051 0.466704607
vt 0.192397863 0.466704667
vt 0.192397863 0.416142166
vt 0.00661537051 0.416142166
vt 0.0120000038 0.595422745
vt 0.192607597 0.544860423
vt 0.0120000038 0.544860423
vt 0.192607597 0.595422745
vt 0.192607597 0.603673518
vt 0.0120000038 0.603673518
vt 0.0120000038 0.654235959
vt 0.192607597 0.654235959
vt 0.710908175 0.0562788807
vt 0.706215143 0.24214077
vt 0.714759231 0.242675066
vt 0.70247221 0.0563501716
vt 0.710802019 0.274727285
vt 0.714759231 0.242675066
vt 0.703526735 0.273253381
vt 0.710908175 0.0562788807
vt 0.704214334 0.0224689841
vt 0.712830067 0.0223716684
vt 0.974291086 0.10152483
vt 0.98012048 0.0555533692
vt 0.97187376 0.0556226522
vt 0.982747674 0.101154663
vt 0.977282643 0.190813839
vt 0.985744834 0.190952867
vt 0.929857433 0.240324169
vt 0.976290941 0.243807137
vt 0.974178791 0.236988053
vt 0.933809757 0.244450033
vt 0.932903945 0.278643787
vt 0.92553854 0.275815725
vt 0.71223563 0.274656653
vt 0.925314546 0.283581972
vt 0.92553854 0.275815725
vt 0.712165833 0.283584774
vt 0.714088321 0.297883898
vt 0.929326415 0.331923157
vt 0.925726295 0.297157139
vt 0.716763437 0.328331977
vt 0.977562129 0.378698528
vt 0.972602189 0.333516836
vt 0.713834703 0.514080167
vt 0.974901378 0.468733817
vt 0.927404642 0.515277386
vt 0.97114259 0.513255119
vt 0.716007829 0.547099471
vt 0.928266406 0.547905922
vt 0.710908175 0.0562788807
vt 0.926638246 0.020511426
vt 0.712830067 0.0223716684
vt 0.927192688 0.0533650592
vt 0.974291086 0.10152483
vt 0.97187376 0.0556226522
vt 0.977282643 0.190813839
vt 0.714759231 0.242675066
vt 0.929857433 0.240324169
vt 0.974178791 0.236988053
vt 0.92553854 0.275815725
vt 0.71223563 0.274656653
vt 0.926638246 0.020511426
vt 0.712923765 0.012406338
vt 0.712245345 0.0201638266
vt 0.926672339 0.0124790268
vt 0.973840117 0.0476180464
vt 0.927192688 0.0533650592
vt 0.97187376 0.0556226522
vt 0.930975795 0.0500332192
vt 0.926694691 0.0189338252
vt 0.933409095 0.0180641022
vt 0.985744834 0.190952867
vt 0.974178791 0.236988053
vt 0.982649684 0.237358719
vt 0.977282643 0.190813839
g submesh0
f 1/1/1 2/2/2 3/3/3
f 4/4/4 5/5/5 6/6/6
f 7/7/7 8/8/8 9/9/9
f 10/10/10 11/11/11 12/12/12
f 11/11/11 13/13/13 14/14/14
f 13/13/13 11/11/11 15/15/15
f 15/15/15 16/16/16 13/13/13
f 16/16/16 15/15/15 17/17/17
f 17/17/17 18/18/18 16/16/16
f 18/18/18 17/17/17 19/19/19
f 20/20/20 21/21/21 22/22/22
f 23/23/23 24/24/24 25/25/25
f 24/24/24 26/26/26 27/27/27
f 26/26/26 24/24/24 28/28/28
f 29/29/29 30/30/30 31/31/31
f 32/32/32 33/33/33 29/29/29
f 33/33/33 32/32/32 34/34/34
f 34/34/34 35/35/35 33/33/33
f 35/35/35 34/34/34 36/36/36
f 37/37/37 38/38/38 35/35/35
f 38/38/38 37/37/37 39/39/39
f 40/40/40 41/41/41 42/42/42
f 41/41/41 40/40/40 43/43/43
f 44/44/44 45/45/45 46/46/46
f 45/45/45 44/44/44 47/47/47
f 48/48/48 49/49/49 50/50/50
f 49/49/49 48/48/48 51/51/51
f 52/52/52 53/53/53 54/54/54
f 53/53/53 52/52/52 55/55/55
f 56/56/56 57/57/57 58/58/58
f 57/57/57 56/56/56 59/59/59
f 60/60/60 61/61/61 62/62/62
f 61/61/61 60/60/60 63/63/63
f 64/64/64 65/65/65 66/66/66
f 65/65/65 64/64/64 67/67/67
f 68/68/68 67/67/67 64/64/64
f 67/67/67 68/68/68 69/69/69
f 70/70/70 71/71/71 72/72/72
f 71/71/71 70/70/70 73/73/73
f 74/74/74 73/73/73 70/70/70
f 73/73/73 74/74/74 75/75/75
f 76/76/76 77/77/77 78/78/78
f 77/77/77 76/76/76 79/79/79
f 80/80/80 79/79/79 76/76/76
f 79/79/79 80/80/80 81/81/81
f 82/82/82 83/83/83 84/84/84
f 83/83/83 82/82/82 85/85/85
f 86/86/86 87/87/87 88/88/88
f 87/87/87 86/86/86 89/89/89
f 90/90/90 89/89/89 86/86/86
f 89/89/89 90/90/90 91/91/91
f 92/92/92 93/93/93 94/94/94
f 95/95/95 94/94/94 93/93/93
f 94/94/94 95/95/95 96/96/96
f 97/97/97 98/98/98 99/99/99
f 98/98/98 97/97/97 100/100/100
f 101/101/101 102/102/102 103/103/103
f 102/102/102 101/101/101 104/104/104
f 105/105/105 106/106/106 107/107/107
f 106/106/106 105/105/105 108/108/108
f 109/109/109 110/110/110 111/111/111
f 110/110/110 109/109/109 112/112/112
f 113/113/113 114/114/114 115/115/115
f 114/114/114 113/113/113 116/116/116
f 117/117/117 118/118/118 119/119/119
f 118/118/118 117/117/117 120/120/120
f 121/121/121 122/122/122 123/123/123
f 122/122/122 121/121/121 124/124/124
f 125/125/125 126/126/126 127/127/127
f 126/126/126 125/125/125 128/128/128
f 129/129/129 130/130/130 131/131/131
f 130/130/130 129/129/129 132/132/132
f 133/133/133 134/134/134 135/135/135
f 134/134/134 133/133/133 136/136/136
f 137/137/137 138/138/138 139/139/139
f 138/138/138 137/137/137 140/140/140
f 140/140/140 141/141/141 138/138/138
f 141/141/141 140/140/140 142/142/142
f 143/143/143 141/141/141 142/142/142
f 141/141/141 143/143/143 144/144/144
f 145/145/145 146/146/146 147/147/147
f 146/146/146 145/145/145 148/148/148
f 149/149/149 150/150/150 145/145/145
f 150/150/150 149/149/149 151/151/151
f 152/152/152 153/153/153 154/154/154
f 153/153/153 152/152/152 155/155/155
f 156/156/156 157/157/157 158/158/158
f 157/157/157 156/156/156 159/159/159
f 160/160/160 161/161/161 162/162/162
f 161/161/161 160/160/160 163/163/163
f 164/164/164 161/161/161 163/163/163
f 161/161/161 164/164/164 165/165/165
f 164/164/164 166/166/166 165/165/165
f 166/166/166 164/164/164 167/167/167
f 168/168/168 169/169/169 170/170/170
f 169/169/169 168/168/168 171/171/171
f 172/172/172 171/171/171 168/168/168
f 171/171/171 172/172/172 173/173/173
f 174/174/174 173/173/173 172/172/172
f 173/173/173 174/174/174 175/175/175
f 176/176/176 177/177/177 178/178/178
f 177/177/177 176/176/176 179/179/179
f 180/180/180 179/179/179 176/176/176
f 179/179/179 180/180/180 181/181/181
f 182/182/182 181/181/181 180/180/180
f 181/181/181 182/182/182 183/183/183
f 184/184/184 183/183/183 182/182/182
f 183/183/183 184/184/184 185/185/185
f 186/186/186 187/187/187 188/188/188
f 187/187/187 186/186/186 189/189/189
f 189/189/189 190/190/190 187/187/187
f 190/190/190 189/189/189 191/191/191
f 192/192/192 190/190/190 191/191/191
f 190/190/190 192/192/192 193/193/193
f 194/194/194 195/195/195 196/196/196
f 195/195/195 194/194/194 197/197/197
f 194/194/194 198/198/198 197/197/197
f 198/198/198 194/194/194 199/199/199
f 200/200/200 198/198/198 199/199/199
f 198/198/198 200/200/200 201/201/201
f 202/202/202 203/203/203 204/204/204
f 203/203/203 202/202/202 205/205/205
f 203/203/203 206/206/206 207/207/207
f 206/206/206 203/203/203 208/208/208
f 209/209/209 210/210/210 205/205/205
f 210/210/210 209/209/209 211/211/211
f 212/212/212 213/213/213 214/214/214
f 213/213/213 212/212/212 215/215/215
f 216/216/216 215/215/215 212/212/212
f 215/215/215 216/216/216 217/217/217
f 218/218/218 219/219/219 220/220/220
f 219/219/219 218/218/218 221/221/221
f 218/218/218 222/222/222 221/221/221
f 222/222/222 218/218/218 223/223/223
f 224/224/224 225/225/225 226/226/226
f 225/225/225 224/224/224 227/227/227
f 228/228/228 229/229/229 230/230/230
f 229/229/229 228/228/228 231/231/231
f 231/231/231 232/232/232 229/229/229
f 229/229/229 232/232/232 233/233/233
f 231/231/231 234/234/234 232/232/232
f 232/232/232 234/234/234 235/235/235
f 235/235/235 234/234/234 236/236/236
f 235/235/235 236/236/236 237/237/237
f 238/238/238 236/236/236 234/234/234
f 236/236/236 238/238/238 239/239/239
f 240/240/240 241/241/241 242/242/242
f 241/241/241 240/240/240 243/243/243
f 240/240/240 244/244/244 243/243/243
f 243/243/243 244/244/244 245/245/245
f 240/240/240 246/246/246 244/244/244
f 247/247/247 246/246/246 240/240/240
f 247/247/247 248/248/248 246/246/246
f 246/246/246 248/248/248 249/249/249
f 247/247/247 250/250/250 248/248/248
f 250/250/250 247/247/247 251/251/251
f 252/252/252 253/253/253 254/254/254
f 253/253/253 252/252/252 255/255/255
f 256/256/256 257/257/257 258/258/258
f 257/257/257 256/256/256 259/259/259
f 259/259/259 260/260/260 257/257/257
f 260/260/260 259/259/259 261/261/261
f 262/262/262 263/263/263 264/264/264
f 263/263/263 262/262/262 265/265/265
