# cover_e_LOD2
v 1.49657106 -0.258461684 0.0860000178
v 1.49657106 1.30286837 0.0860000104
v -1.50046873 1.30286837 0.0860000104
v -1.50046873 -0.258461684 0.0860000178
v 1.49657106 -0.258461595 0.0648238733
v -1.50046873 -0.258461595 0.0648238733
v -1.50046873 1.30286837 0.0648238659
v 1.49657106 1.30286837 0.0648238659
vn 0 0 1
vn 0 0 1
vn 0 0 1
vn 0 0 1
vn 0 0 -1
vn 0 0 -1
vn 0 0 -1
vn 0 0 -1
vt 0.000811737496 0.513723969
vt 0.244317919 0.513723969
vt 0.244317919 0.0415614173
vt 0.000811804086 0.0415614173
vt 0.000811737496 0.513723969
vt 0.000811804086 0.0415614173
vt 0.244317919 0.0415614173
vt 0.244317919 0.513723969
g submesh0
f 1/1/1 2/2/2 3/3/3
f 1/1/1 3/3/3 4/4/4
f 5/5/5 6/6/6 7/7/7
f 5/5/5 7/7/7 8/8/8
