# jungle_ruins_beam_600_a_LOD3
v -0.00825439394 -0.149999991 -0.149999991
v -4.41057682 -0.149999991 -0.149999648
v -4.41168308 0.149999991 -0.149999663
v -0.00825439394 0.149999991 -0.149999991
v -0.00825439394 -0.149999991 -0.149999991
v -0.00825439394 -0.149999991 0.149999991
v -4.41151667 -0.150000006 0.150000334
v -4.41057682 -0.149999991 -0.149999648
v -4.40969706 0.149999991 0.15000017
v -0.00825439394 0.149999991 0.149999991
v -0.00825439394 0.149999991 -0.149999991
v -4.41168308 0.149999991 -0.149999663
v -0.00825439394 -0.149999991 0.149999991
v -0.00825439394 0.149999991 0.149999991
v -4.40969706 0.149999991 0.15000017
v -4.41151667 -0.150000006 0.150000334
v -4.41151667 -0.150000006 0.150000334
v -5.99174547 -0.149999991 0.150000557
v -5.99174547 -0.149999991 -0.14999944
v -4.41057682 -0.149999991 -0.149999648
v -4.40969706 0.149999991 0.15000017
v -5.99174547 0.149999991 0.150000557
v -5.99174547 -0.149999991 0.150000557
v -4.41151667 -0.150000006 0.150000334
v -5.99174547 0.149999991 -0.14999944
v -5.99174547 0.149999991 0.150000557
v -4.40969706 0.149999991 0.15000017
v -4.41168308 0.149999991 -0.149999663
v -5.99174547 -0.149999991 -0.14999944
v -5.99174547 0.149999991 -0.14999944
v -4.41168308 0.149999991 -0.149999663
v -4.41057682 -0.149999991 -0.149999648
v -5.99174547 -0.149999991 -0.14999944
v -5.99174547 -0.149999991 0.150000557
v -5.99174547 0.149999991 0.150000557
v -5.99174547 0.149999991 -0.14999944
vn 0 0 -1
vn -1.09265144E-07 0 -1
vn -1.09417527E-07 0 -1
vn 0 0 -1
vn 0 -1 0
vn 0 -1 0
vn 0 -1 0
vn 0 -1 0
vn 0 1 0
vn 0 1 0
vn 0 1 0
vn 0 1 0
vn 0 2.85924983E-07 1
vn 0 2.85924983E-07 1
vn 1.2549026E-07 2.85721853E-07 1
vn 1.26009553E-07 2.85720262E-07 1
vn 0 -1 0
vn 0 -1 0
vn 0 -1 0
vn 0 -1 0
vn 1.2549026E-07 2.85721853E-07 1
vn 1.93010152E-07 2.85517075E-07 1
vn 1.93010152E-07 2.85517075E-07 1
vn 1.26009553E-07 2.85720262E-07 1
vn 0 1 0
vn 0 1 0
vn 0 1 0
vn 0 1 0
vn -1.41788732E-07 0 -1
vn -1.41788732E-07 0 -1
vn -1.09417527E-07 0 -1
vn -1.09265144E-07 0 -1
vn -1 0 0
vn -1 0 0
vn -1 0 0
vn -1 0 0
vt -0.593201876 0.757096052
vt 1.25508511 0.757098556
vt 1.30815315 0.908831179
vt -0.593406141 0.908851802
vt -0.593681097 0.908868432
vt -0.593260348 0.752375364
vt 1.30504262 0.752375364
vt 1.25508511 0.908868432
vt -0.744341612 0.909137785
vt 1.43078113 0.908916354
vt 1.43072557 0.75537163
vt -0.816539109 0.75530386
vt -0.597514689 0.910976231
vt -0.596161485 0.7549389
vt 1.15341997 0.757098556
vt 1.31049848 0.908831239
vt 0.807498574 0.908663392
vt 0.074686721 0.908663392
vt 0.074686721 0.752543569
vt 0.807498574 0.752543569
vt 0.799040139 0.902613759
vt 0.0758724958 0.914906085
vt 0.076906614 0.751050472
vt 0.786364317 0.751045823
vt 0.0771755725 0.91476047
vt 0.0773252398 0.75112474
vt 0.811715901 0.751045823
vt 0.775862038 0.914885163
vt 0.0755655318 0.915472865
vt 0.0759466738 0.750232041
vt 0.775861979 0.751045823
vt 0.812836409 0.914885223
vt 0.149279714 0.0181959867
vt 0.0223795585 0.0181959867
vt 0.0223795585 0.145096138
vt 0.149279684 0.145096138
g submesh0
f 1/1/1 2/2/2 3/3/3
f 1/1/1 3/3/3 4/4/4
f 5/5/5 6/6/6 7/7/7
f 5/5/5 7/7/7 8/8/8
f 9/9/9 10/10/10 11/11/11
f 9/9/9 11/11/11 12/12/12
f 13/13/13 14/14/14 15/15/15
f 13/13/13 15/15/15 16/16/16
f 17/17/17 18/18/18 19/19/19
f 17/17/17 19/19/19 20/20/20
f 21/21/21 22/22/22 23/23/23
f 21/21/21 23/23/23 24/24/24
f 25/25/25 26/26/26 27/27/27
f 25/25/25 27/27/27 28/28/28
f 29/29/29 30/30/30 31/31/31
f 29/29/29 31/31/31 32/32/32
f 33/33/33 34/34/34 35/35/35
f 33/33/33 35/35/35 36/36/36
