# jungle_ruin_walls_foundation_b_LOD0
v -1.45208895 0 0.184411824
v -1.41804254 0.0198745728 0.0741830468
v -1.40896297 0 0.0898784995
v -1.45591402 0.0599887073 0.177841336
v -1.45624542 0.0871075392 0.0797099024
v -1.44636929 0.153515011 0.169271126
v -1.51003325 0.0920657292 0.257832557
v -1.45208895 0 0.184411824
v -1.49384308 0 0.233039886
v -1.51883316 0 0.257777959
v -1.54625213 0.0298291016 0.27522862
v -1.61241722 0 0.290151685
v -1.65698183 0.0736859143 0.306532443
v -1.66032279 0 0.363939822
v -1.57387114 0.155314639 0.319093853
v -1.66419947 0.108582459 0.380553931
v -1.6585089 0 0.408122629
v -1.55592012 0.163374633 0.27704069
v -1.53124452 0.257781357 0.357979953
v -1.64670348 0.130220026 0.332860738
v -1.65417445 0.0867645219 0.483667403
v -1.63815415 0 0.48730582
v -1.59578025 0 0.50588268
v -1.55244625 0.169732049 0.392619759
v -1.63955653 0.164450675 0.443465412
v -1.61727381 0.151656792 0.513179779
v -1.59578025 0 0.50588268
v -1.50997376 0.174204096 0.477391332
v -1.48649168 0.230661616 0.215964764
v -1.5145663 0.24161315 0.435440123
v -1.42049098 0.23933959 0.426653653
v -1.41996551 0.257742912 0.299657732
v -1.41562343 0.273188472 0.176988706
v -1.39424562 0.227374256 0.114861332
v -1.43795288 0.121752009 0.511631906
v -1.3739599 0.214598686 0.47665289
v -1.29336786 0.14359802 0.504821599
v -1.36713195 1.52587887E-07 0.53564018
v -1.59578025 0 0.50588268
v -1.44337368 0.211618349 0.0636005849
v -1.29885983 0.070143126 0.524176717
v -1.36713195 1.52587887E-07 0.53564018
v -1.39308774 0.207652584 0.0174532086
v -1.32655764 0.251680285 0.0439453386
v -1.43829131 0.145295709 0.0166863911
v -1.35515344 0.18436797 -0.00204797089
v -1.2800827 0.0536080934 -0.019232709
v -1.23814034 0.212507322 0.00867411029
v -1.2021755 0.183154896 -0.00801849458
v -1.43488336 0.064408876 0.0046800659
v -1.37043488 0.0113385003 0.0422111675
v -1.35760558 0 0.0595476888
v -1.40896297 0 0.0898784995
v -1.24658549 2.74658191E-06 0.00098094577
v -1.11934173 0.0459036231 -0.0362027176
v -1.06456101 0.17216064 -0.00466854498
v -1.15574729 0 -0.0178730227
v -1.24658549 2.74658191E-06 0.00098094577
v -1.0011611 0.0201351922 -0.014364142
v -1.0216428 0.164353937 0.0270225797
v -1.09388053 0 -0.0127185397
v -1.00536525 0 -0.0141986925
v -0.981630623 0.0315206908 0.0364716277
v -0.99140805 0 0.0272414442
v -0.99140805 0 0.0405099727
v -0.969299078 0.258027643 -0.0120325265
v -0.95437026 0.223287955 0.0494162366
v -1.0216428 0.164353937 0.0270225797
v -1.06456101 0.17216064 -0.00466854498
v -1.130656 0.312502742 -0.0147847347
v -1.2021755 0.183154896 -0.00801849458
v -0.962247968 0.319603264 0.00620569522
v -0.95437026 0.223287955 0.0494162366
v -1.21346438 0.333786607 -0.00676968088
v -1.23814034 0.212507322 0.00867411029
v -1.12253463 0.349049062 0.00975586195
v -1.03310549 0.359206229 0.108594894
v -1.27592993 0.332782269 0.107323684
v -1.11461461 0.356712341 0.129515842
v -1.12927771 0.337126464 0.187687501
v -1.28655243 0.317496032 0.0467782877
v -1.32655764 0.251680285 0.0439453386
v -1.39424562 0.227374256 0.114861332
v -1.41562343 0.273188472 0.176988706
v -1.41996551 0.257742912 0.299657732
v -1.22329319 0.313442677 0.178164363
v -1.2726295 0.308508605 0.235153154
v -1.17745245 0.334489435 0.255173177
v -1.27942502 0.334499508 0.303985476
v -1.38049221 0.32328552 0.32897231
v -1.25963569 0.353137493 0.358310729
v -1.32156491 0.35408631 0.414886892
v -1.39186668 0.25698486 0.422585905
v -1.42049098 0.23933959 0.426653653
v -1.3739599 0.214598686 0.47665289
v -1.3596561 0.340141594 0.462296546
v -1.14051211 0.342442006 0.498261064
v -1.34910882 0.323190004 0.489301056
v -1.29336786 0.14359802 0.504821599
v -1.30235648 0.272958368 0.501575053
v -1.08145952 0.209233701 0.515260518
v -0.979879677 0.327756345 0.499893725
v -1.20176423 0.14215973 0.504009068
v -0.975855589 0.221201167 0.504904389
v -0.965764344 0.271811217 0.458473891
v -1.00866115 0.139127806 0.443292379
v -1.08767974 0.157235712 0.512290418
v -1.12153554 0.103492737 0.443893194
v -0.232534409 0.788905621 0.505786836
v -0.236741766 0.773023963 0.469471157
v -0.0500636473 0.767962039 0.462673783
v 0.0195498206 0.801654637 0.52495575
v -0.0502385795 0.752048314 0.308672845
v -0.0471117869 0.834147036 0.518350422
v -0.282561421 0.835809946 0.528464973
v -0.222659886 0.90587461 0.525867701
v -0.0826668367 0.973168314 0.511993527
v -0.286100239 0.970831275 0.515514076
v -0.159322113 0.996079981 0.504861653
v -0.3288306 0.992456973 0.4769665
v -0.185239941 1.00250185 0.454777867
v -0.339509904 0.990860283 0.416727483
v -0.196796566 0.986477613 0.318149
v -0.383502811 0.971553326 0.353920043
v -0.39491877 0.926886857 0.302807957
v -0.0278205816 0.994887054 0.35215202
v -0.00235440256 0.987036407 0.44962734
v 0.0123837302 0.925833404 0.502605677
v 0.0306270979 0.874377131 0.496059865
v -0.00287807942 0.983313859 0.293499976
v -0.0166485924 0.914627671 0.276453465
v -0.245309159 0.947048306 0.292002529
v -0.456467569 0.939091146 0.215184852
v 0.0388374105 0.813276649 0.435415149
v 0.000783007126 0.865627706 0.309663415
v -0.00550967222 0.776985466 0.352427274
v 0.0253992863 0.81079191 0.309621215
v 0.00109445571 0.772497237 0.270004541
v 0.0253992863 0.81079191 0.309621215
v -0.0356236212 0.771929026 0.130822644
v -0.267151147 0.958948016 0.234017253
v -0.323360711 0.981208146 0.195867345
v -0.460758269 1.00121391 0.038329538
v -0.488957047 0.950233161 0.0719940141
v -0.480902761 0.924933732 0.00420886604
v -0.108438462 0.936304629 0.225933179
v -0.109938435 0.984877586 0.196141616
v -0.0066081523 0.916624427 0.183998555
v -0.438547313 0.979530931 -0.0257851835
v -0.400918543 0.872865558 -0.0478294417
v 0.0247092713 0.867219508 0.207172319
v 0.0354937837 0.801854849 0.197906718
v 0.0253992863 0.81079191 0.309621215
v 0.0166505277 0.757032752 0.165958971
v 0.0119510433 0.810387254 0.149294466
v 0.0200497974 0.885838926 0.152639732
v -0.0120808072 0.785173953 0.13366127
v 0.0208030082 0.787374258 0.0869495347
v -0.0181589499 0.968886077 0.153166696
v -0.02133606 0.999571204 0.0291865487
v 0.00633823359 0.985353649 -0.00341560738
v -0.22104156 0.989735365 -0.0368442945
v -0.0896194503 0.971675992 -0.0250538681
v -0.226925164 0.958296776 -0.0562278032
v -0.120143436 0.911107779 -0.0432750732
v -0.340916336 0.819013357 -0.0384589434
v -0.0135035655 0.930579484 -0.0389247946
v -0.160781354 0.792944908 -0.0296496246
v -0.35436064 0.814250767 0.0212414879
v -0.271629125 0.795679927 0.0314366482
v -0.057927873 0.802649796 -0.0116177779
v -0.100526929 0.801042795 0.053556934
v 0.00445198035 0.896087945 -0.0253014043
v -0.00740544777 0.793867767 0.0473877676
v 0.032808464 0.865795553 0.0566448905
v 0.00962289702 0.829564512 -0.00173405523
v 0.00487396354 0.815830946 0.0502144471
v -0.446766168 0.764284015 0.0431355238
v -0.340916336 0.819013357 -0.0384589434
v -0.35436064 0.814250767 0.0212414879
v -0.444402754 0.776596069 -0.00848682784
v -0.45471105 0.861316204 -0.0237989463
v -0.400918543 0.872865558 -0.0478294417
v -0.52298665 0.704754293 0.0442470126
v -0.480902761 0.924933732 0.00420886604
v -0.568060338 0.698020637 0.00838775188
v -0.621271372 0.641399801 0.062529102
v -0.518888056 0.776248455 -0.0280089993
v -0.682725608 0.687106907 -0.030021213
v -0.636937678 0.663480818 0.0265821777
v -0.717608273 0.747825921 -0.0305958595
v -0.776477873 0.686783433 -0.0247539561
v -0.755660594 0.840919197 -0.0116362795
v -0.739540219 0.872064471 0.00340697845
v -0.668810964 0.585859954 -0.0514166281
v -0.65043503 0.583084404 0.00660304585
v -0.678082883 0.510104954 -0.00568478042
v -0.668305516 0.490497112 0.0662620068
v -0.868879139 0.454636067 0.0804801136
v -0.896072447 0.458513469 0.0416577458
v -0.914138615 0.398432314 0.137579948
v -0.785239637 0.519118667 -0.0441320464
v -0.598920226 0.938707888 0.0616200194
v -0.488957047 0.950233161 0.0719940141
v -0.873652339 0.556564629 -0.0370883606
v -0.537481844 0.923905313 0.181150541
v -0.456467569 0.939091146 0.215184852
v -0.92931819 0.422104031 0.0734634697
v -0.940885901 0.466115415 0.026171755
v -0.934855461 0.367362201 0.0408312939
v -0.916948855 0.34376663 0.111207537
v -0.983404338 0.29685837 0.0945637077
v -0.979035914 0.333220512 -0.00917305425
v -1.06236804 0.264633477 0.0974245071
v -1.07947779 0.303115368 0.0341350511
v -1.12510622 0.315798789 0.00129497133
v -0.986617804 0.41281113 -0.0381105468
v -0.951752365 0.520856917 -0.0201664399
v -1.00320435 0.482586354 -0.0044463384
v -1.09491563 0.446005076 -0.00854420103
v -1.26141524 0.42560944 0.0357221179
v -1.05412328 0.496711582 0.0119693717
v -1.18546236 0.287554771 0.0182902105
v -1.24986613 0.308048844 0.0581351034
v -1.28784537 0.305210859 0.190914452
v -1.02815211 0.535656393 -0.00975407008
v -0.922373354 0.682810068 -0.0216492116
v -1.03619599 0.671527982 0.00132415385
v -1.16026306 0.46258682 0.0160568189
v -1.11664057 0.491345346 0.130517155
v -1.24991202 0.44788298 0.0485832915
v -1.27570915 0.430739433 0.128824085
v -0.942909777 0.695350945 0.0077147251
v -0.867081404 0.716109276 0.149314344
v -0.81175983 0.71291256 0.0428426675
v -0.807405293 0.812488973 0.029467959
v -1.24747682 0.455577999 0.114596479
v -1.24825823 0.408335865 0.199448347
v -1.28769004 0.293369442 0.215878636
v -1.2034843 0.45647642 0.186602965
v -1.14943421 0.453878611 0.237756386
v -1.08879304 0.518608391 0.172746852
v -1.11086869 0.486909926 0.331931055
v -1.27812433 0.315352768 0.276964307
v -0.736118674 0.878875434 0.108213462
v -1.09039223 0.513489962 0.129516408
v -1.08399677 0.629508674 0.0412980206
v -1.08336794 0.631547213 0.146003038
v -1.0680896 0.671945453 0.0393060632
v -1.06628883 0.658581853 0.192802086
v -0.633944392 0.912739515 0.142162353
v -0.716930389 0.847409368 0.168850243
v -0.786425889 0.82301724 0.125507385
v -0.801931143 0.75304836 0.147228435
v -0.743669629 0.789950252 0.25103128
v -0.850607753 0.75595212 0.253227085
v -1.04192901 0.579471707 0.209644809
v -0.960549355 0.664043248 0.213212803
v -1.0442456 0.557180762 0.294596493
v -0.968383253 0.646571636 0.289426148
v -1.01507652 0.585156262 0.325844795
v -1.04308832 0.543606579 0.449856639
v -1.08373582 0.534767151 0.403361201
v -1.02292037 0.64714992 0.380000293
v -0.906686664 0.717093468 0.324965537
v -0.993710756 0.685334146 0.365665585
v -1.03032517 0.658506453 0.488798499
v -1.02199233 0.490040869 0.506908298
v -1.09325266 0.493978858 0.447027504
v -0.991760612 0.695378125 0.503704906
v -0.846770465 0.758580029 0.332919538
v -0.865808368 0.725080848 0.41764468
v -0.795506597 0.729601443 0.556401789
v -0.997385085 0.647661448 0.537676036
v -0.755013704 0.773773789 0.331369251
v -0.862128019 0.702051044 0.555301964
v -0.965186596 0.512705088 0.532684803
v -0.715535462 0.747477114 0.458748817
v -0.80564636 0.565387845 0.543016136
v -0.781384349 0.501740992 0.506248653
v -0.892253637 0.490743995 0.510609806
v -0.668645918 0.779307842 0.447790086
v -0.700883687 0.794187009 0.38949126
v -0.676203072 0.862057805 0.420134276
v -0.637289822 0.746736407 0.497216314
v -0.704422891 0.853075564 0.265333116
v -0.60061568 0.914565384 0.221163288
v -0.576526046 0.965340555 0.253114283
v -0.657654226 0.893020332 0.336581886
v -0.497170717 0.963329732 0.351839602
v -0.39491877 0.926886857 0.302807957
v -0.383502811 0.971553326 0.353920043
v -0.608981609 0.963338315 0.360544205
v -0.621245325 0.891541421 0.403144062
v -0.443485618 0.993498206 0.446211338
v -0.339509904 0.990860283 0.416727483
v -0.3288306 0.992456973 0.4769665
v -0.505256772 0.910874009 0.40715912
v -0.61367929 0.867883265 0.476059794
v -0.409488618 0.99125272 0.508785427
v -0.286100239 0.970831275 0.515514076
v -0.449752927 0.935960352 0.526022911
v -0.384313613 0.961002469 0.527760148
v -0.222659886 0.90587461 0.525867701
v -0.40765667 0.872887254 0.539554119
v -0.282561421 0.835809946 0.528464973
v -0.47465229 0.827136219 0.490120292
v -0.580455661 0.805078387 0.504061103
v -0.429313272 0.790140033 0.533380568
v -0.330857038 0.723782957 0.529273212
v -0.232534409 0.788905621 0.505786836
v -0.613130152 0.724046946 0.527668357
v -0.563524246 0.772965074 0.542015612
v -0.541791618 0.711929619 0.547577679
v -0.315229177 0.687001348 0.50055331
v -0.236741766 0.773023963 0.469471157
v -0.314479858 0.695745826 0.424205363
v -0.543160975 0.607548177 0.432731211
v -0.639920712 0.680029273 0.549988985
v -0.565503597 0.682759702 0.50597012
v -0.433450729 0.693363309 0.53115803
v -0.564075232 0.560391247 0.506998003
v -0.725029528 0.540989339 0.539581835
v -0.672735751 0.501522183 0.441372097
v -0.779720664 0.476461023 0.458402365
v -0.63619864 0.577661753 0.536891401
v -0.863932312 0.459268779 0.46138674
v -0.934998155 0.444586486 0.456974626
v -0.958586276 0.447776794 0.484981179
v -0.95593679 0.337875813 0.504577875
v -0.955691636 0.328680426 0.453478307
v -0.996177197 0.441166371 0.5355618
v -1.02969444 0.311169893 0.526983082
v -1.02923608 0.294983208 0.479803622
v -1.08122444 0.27453658 0.479552746
v -1.11573207 0.289371639 0.503549814
v -0.987886429 0.359818727 0.527618468
v -1.09469819 0.471701354 0.528509736
v -1.05718648 0.324109942 0.5283041
v -1.09102571 0.44819212 0.53767246
v -1.10528457 0.345927417 0.542100847
v -1.18975556 0.337862402 0.531038404
v -1.21230912 0.275743097 0.500142515
v -1.26746476 0.266331166 0.498504996
v -1.27214503 0.387005299 0.543833017
v -1.34172118 0.355699152 0.520428836
v -1.35773575 0.275690138 0.46159026
v -1.37183988 0.303008109 0.416665792
v -1.31197631 0.417243809 0.511401713
v -1.33067369 0.438961178 0.470250964
v -1.36065733 0.407130569 0.48292625
v -1.36042142 0.420364976 0.402160048
v -1.12237513 0.488666058 0.40620169
v -1.16396141 0.451003104 0.344774455
v -1.23065495 0.399597913 0.319578558
v -1.33189905 0.340982199 0.338288218
v -1.33980608 0.30660522 0.350799471
v -1.36139452 0.336312234 0.379902869
v -1.36713195 1.52587887E-07 0.53564018
v -1.29715967 0 0.527983785
v -1.24153244 0 0.510634542
v -1.22979391 0 0.504626691
v -1.20176423 0.14215973 0.504009068
v -1.19578254 0 0.503636539
v -1.1739589 0.0339639261 0.502609611
v -1.13827717 0 0.44933489
v -1.12153554 0.103492737 0.443893194
v -1.11902666 0.0248690788 0.449141711
v -2.07609173E-06 0.844033778 0.500000238
v -1.93890105E-06 0.844033778 3.80673214E-07
v -0.357330471 0.905725062 3.87816897E-07
v -0.357330769 0.90572536 0.500000358
v -0.443489343 0.787805438 4.74620066E-07
v -0.410221279 0.743835747 0.500000536
v -0.682946622 0.700653374 1.90958716E-07
v -0.97217536 0.528401792 0.499999881
v -0.845476568 0.522004664 -8.68075816E-08
v -1.16741419 0.37528196 0.442653418
v -1.15736258 0.357245177 0.499999672
v -0.921439171 0.504995108 -5.95222843E-07
v -1.24817979 0.372732997 0.386523843
v -1.31245089 0.0540409833 0.499999672
v -1.10222995 0.302215278 -1.12713302E-07
v -1.49309945 0 0.267209798
v -1.37974083 0 0.499999762
v -1.29151392 0.120097041 0.0662496686
v -1.36835837 0 0.133372173
v -1.32307315 0 0.0691193119
v -1.27390528 0 0.0519828685
v -1.14615119 0 -5.2697203E-08
v -1.93890105E-06 0.844033778 3.80673214E-07
v -0.443489343 0.787805438 4.74620066E-07
v -0.357330471 0.905725062 3.87816897E-07
v -1.91692607E-06 0.259235084 3.78193306E-07
v -0.396591038 0.231419057 1.56061446E-07
v -0.682946622 0.700653374 1.90958716E-07
v -0.36879757 0 1.62244177E-07
v -1.91336744E-06 0 3.70857947E-07
v -0.737593234 0 -4.63695962E-08
v -0.793180168 0.203603208 -6.60704131E-08
v -0.845476568 0.522004664 -8.68075816E-08
v -1.14615119 0 -5.2697203E-08
v -0.921439171 0.504995108 -5.95222843E-07
v -1.10222995 0.302215278 -1.12713302E-07
v -0.410221279 0.743835747 0.500000536
v -2.07609173E-06 0.844033778 0.500000238
v -0.357330769 0.90572536 0.500000358
v -0.230144233 0.278726041 0.500000119
v -2.02606179E-06 0.259237051 0.500000298
v -0.220284998 0 0.500000119
v -2.01030025E-06 0 0.500000298
v -0.440568 0 0.5
v -0.460286438 0.298215032 0.5
v -0.857924163 0 0.499999881
v -0.410221308 0.743835747 0.500000536
v -1.15736258 0.357245177 0.499999672
v -0.97217536 0.528401792 0.499999881
v -1.18633461 0 0.499999762
v -1.31245089 0.0540409833 0.499999672
v -1.30967879 0 0.499999672
v -1.37974083 0 0.499999762
v -1.91692607E-06 0.259235084 3.78193306E-07
v -2.01030025E-06 0 0.500000298
v -1.91336744E-06 0 3.70857947E-07
v -2.02606179E-06 0.259237051 0.500000298
v -2.07609173E-06 0.844033778 0.500000238
v -1.93890105E-06 0.844033778 3.80673214E-07
v -1.37974083 0 0.499999762
v -1.49309945 0 0.267209798
v -1.30967879 0 0.499999672
v -0.737593234 0 -4.63695962E-08
v -1.27390528 0 0.0519828685
v -1.14615119 0 -5.2697203E-08
v -1.36835837 0 0.133372173
v -1.32307315 0 0.0691193119
v -0.36879757 0 1.62244177E-07
v -0.65484035 0 0.25000003
v -1.91336744E-06 0 3.70857947E-07
v -0.593168259 0 0.250000089
v -1.18633461 0 0.499999762
v -0.428963035 0 0.250000119
v -0.857924163 0 0.499999881
v -0.220284954 0 0.250000179
v -0.440568 0 0.5
v -0.220284998 0 0.500000119
v -2.01030025E-06 0 0.500000298
vn -0.825678051 -0.113181353 -0.552671552
vn -0.811142981 -0.551445186 -0.194821268
vn -0.670686305 -0.623587966 -0.40164426
vn -0.952441752 -0.041910924 -0.301824778
vn -0.997294724 -0.0528135709 -0.0511260256
vn -0.954062283 0.130487934 -0.269699782
vn -0.727421582 -0.0440461785 -0.68477571
vn -0.825678051 -0.113181353 -0.552671552
vn -0.743459702 0.0488756411 -0.666992426
vn -0.651981711 -0.166553602 -0.739715934
vn -0.367678106 0.171652675 -0.913973808
vn -0.50173229 -0.0958737135 -0.859693468
vn -0.635679483 0.124616779 -0.761828244
vn -0.989922225 -0.105776854 -0.0941550508
vn -0.658806682 0.514135301 -0.54921639
vn -0.993089616 0.115798041 0.0190771762
vn -0.997310996 -0.0129789468 0.07212767
vn -0.840367258 0.162584856 -0.517058194
vn -0.492026627 0.870167136 0.0268119872
vn -0.526786208 0.730553925 -0.434496552
vn -0.894162774 0.00626913272 0.447697967
vn -0.814107835 -0.126551703 0.566756546
vn -0.167723298 -0.0674057603 0.983527005
vn -0.583625734 0.809945405 0.058047343
vn -0.526209116 0.849380374 0.0407066345
vn -0.241802499 0.299073696 0.923085332
vn -0.167723298 -0.0674057603 0.983527005
vn -0.0740039125 0.725384712 0.684354067
vn -0.705482244 0.439107358 -0.556308746
vn -0.400725514 0.724619329 0.560665607
vn -0.0385765024 0.84515065 0.533134341
vn 0.0699378625 0.988673627 0.132789835
vn -0.615330398 0.63149339 -0.471788704
vn -0.710869491 0.692420661 -0.123362713
vn 0.00986197777 0.327669293 0.94474107
vn -0.211782649 0.468996197 0.857432604
vn 0.0368032902 0.164159134 0.985747099
vn -0.0389189236 0.0867272839 0.995471597
vn -0.167723298 -0.0674057603 0.983527005
vn -0.88139832 0.467329264 -0.068851158
vn 0.162403822 0.194206744 0.967423797
vn -0.0389189236 0.0867272839 0.995471597
vn -0.29657647 0.671366274 -0.679197848
vn -0.185673073 0.695924938 -0.693695962
vn -0.59008503 0.117367879 -0.798764348
vn -0.120567918 0.271274507 -0.954920709
vn -0.139098749 -0.113439962 -0.983759642
vn -0.0476055816 0.522369802 -0.85138917
vn -0.0372949727 0.173397094 -0.984145582
vn -0.468893349 -0.227897584 -0.853347421
vn -0.256433547 -0.75343591 -0.605455339
vn -0.227676019 -0.883511603 -0.40935412
vn -0.670686305 -0.623587966 -0.40164426
vn -0.214677691 -0.466759443 -0.857932985
vn 0.0371978618 -0.00316273072 -0.999302983
vn 0.280903459 0.239595652 -0.929347694
vn -0.142287403 -0.267672956 -0.95294565
vn -0.214677691 -0.466759443 -0.857932985
vn 0.631838262 0.19788523 -0.749414325
vn 0.604008973 0.125960201 -0.786960661
vn 0.0740161985 -0.414946407 -0.906830251
vn 0.617997766 -0.135399833 -0.774432421
vn 0.899852812 0.198640406 -0.388338625
vn 0.936729848 -0.208150804 -0.281443328
vn 0.955105543 -0.296265632 0
vn 0.377836406 -0.184854284 -0.907231271
vn 0.662186563 -0.571895778 -0.484194249
vn 0.529622912 -0.303601325 -0.792039037
vn 0.11260777 -0.19290784 -0.974733829
vn 0.00307716336 0.107467942 -0.994203866
vn -0.0732132196 -0.0442861505 -0.996332526
vn 0.257547468 0.668996274 -0.697218239
vn 0.966380298 -0.0352231748 -0.254692793
vn -0.324910671 0.604242265 -0.727546871
vn -0.459999949 0.0409720093 -0.886973143
vn -0.0121722836 0.949967563 -0.312111318
vn 0.100537591 0.976368666 -0.19130227
vn -0.268708289 0.962761819 0.0297588967
vn -0.12758328 0.991313159 0.0319474079
vn -0.210702345 0.961552143 0.176130384
vn -0.562601864 0.577144384 -0.591931999
vn -0.54903549 0.366065353 -0.751369536
vn -0.711416721 0.430464506 -0.555505693
vn -0.466959059 0.882059276 -0.062614724
vn -0.516658962 0.856095016 -0.0128388405
vn -0.148091748 0.970746756 0.188995987
vn -0.259512097 0.965565264 -0.0183632821
vn -0.221169174 0.956564665 -0.189916342
vn -0.304689705 0.871967912 -0.383191973
vn -0.650020957 0.702529073 -0.289699286
vn -0.178676173 0.955211282 -0.23589465
vn -0.181917489 0.982421339 0.0418857299
vn -0.865801156 0.42414391 0.265500307
vn -0.465665281 0.82763654 0.313326627
vn -0.504426837 0.0402326658 0.862516701
vn -0.557007194 0.771727324 0.306887597
vn -0.023648018 0.178167775 0.983715892
vn -0.320743859 0.394356042 0.861165881
vn -0.0950747058 -0.00136093237 0.995469213
vn -0.0821379125 0.0790327489 0.993482411
vn 0.016730845 0.03083154 0.999384522
vn 0.138704687 0.105805151 0.984665573
vn 0.0116359023 -0.547625005 0.836642921
vn 0.213209599 -0.308578879 0.926995575
vn 0.963679671 0.0487406924 0.262575179
vn 0.373173714 -0.698443353 0.610670447
vn 0.316056788 -0.352023244 0.881015182
vn 0.154473469 -0.812573731 0.562015951
vn 0.0227824133 -0.760286212 0.649188638
vn -0.0102058928 -0.915734828 0.401653469
vn 0.163331941 -0.932567716 0.32193175
vn 0.369277507 -0.731854498 0.572732866
vn 0.39827466 -0.915705323 0.0534886084
vn 0.0372044072 0.0525659695 0.997924209
vn 0.0412145257 -0.161659211 0.985985637
vn 0.0397985503 0.0739559382 0.996466994
vn 0.145633683 0.331634343 0.932099462
vn -0.0583876148 0.56434232 0.823473513
vn 0.0525850095 0.900675774 0.431297868
vn -0.0798728839 0.987646341 0.134814411
vn -0.0124124391 0.999602377 -0.0253213253
vn -0.0837074667 0.987024188 -0.137026191
vn -0.0444922559 0.900646329 -0.432269275
vn -0.158557594 0.871549666 -0.463961989
vn -0.151558086 0.983502924 -0.0987538323
vn 0.0728815645 0.994564056 -0.0743675455
vn 0.659806848 0.73899585 0.136161983
vn 0.439752609 0.291701585 0.849427938
vn 0.948878944 0.194936693 0.248250976
vn 0.587191284 0.534476876 -0.607898772
vn 0.421691179 0.785352409 -0.453208745
vn 0.031453032 0.987076104 -0.157135576
vn -0.243226498 0.915945709 0.319193304
vn 0.986355126 -0.157441229 -0.0481241643
vn 0.974479139 0.164465815 -0.152778551
vn 0.506535232 -0.860976279 0.0462807976
vn 0.99990654 -0.0136656184 -0.000396867719
vn 0.57892555 -0.796463132 0.174618483
vn 0.99990654 -0.0136656184 -0.000396867719
vn -0.100038849 -0.976025224 -0.193305254
vn 0.0459517427 0.964397788 0.260432839
vn -0.0805726796 0.95625037 0.28123498
vn -0.199580237 0.979238689 0.0354871303
vn -0.838295043 0.534549892 0.10732121
vn -0.7436921 0.169249386 -0.646743178
vn 0.166474447 0.920102954 0.354537547
vn 0.042476017 0.969214618 0.242525801
vn 0.608848393 0.720515251 0.331905812
vn -0.260824919 0.573203444 -0.77679354
vn -0.0735466778 -0.00896950904 -0.997251451
vn 0.956480742 0.276194632 0.0941323638
vn 0.994017839 -0.109091625 0.00524475751
vn 0.99990654 -0.0136656184 -0.000396867719
vn -0.080229409 -0.996271372 0.0317254029
vn 0.985003293 -0.137482435 -0.104246058
vn 0.9650985 0.230222881 0.124829501
vn 0.640524983 -0.739728212 -0.206228212
vn 0.846901476 -0.523022413 -0.0959448293
vn 0.620363235 0.71108669 0.33091566
vn 0.0788144097 0.996251166 0.0356650129
vn 0.802403033 0.537351787 -0.259619534
vn 0.00632589124 0.94889003 -0.315543741
vn 0.12546809 0.574060023 -0.809143305
vn 0.0127689317 0.0756400675 -0.997053385
vn 0.0625265092 -0.0683853775 -0.995697737
vn 0.00641696667 -0.295749813 -0.955243886
vn 0.220554873 -0.0233684033 -0.975094557
vn 0.0582130142 -0.410492212 -0.910004079
vn -0.144434959 -0.979666054 -0.139258191
vn -0.115764283 -0.975873768 -0.185119003
vn 0.176895157 -0.631220579 -0.755161345
vn -0.00963985734 -0.997429788 -0.0709987134
vn 0.535818219 -0.18397437 -0.824046254
vn 0.219959989 -0.912442744 -0.345059216
vn 0.994743586 -0.0145855332 -0.101353332
vn 0.910153389 -0.21315755 -0.355224669
vn 0.864390135 -0.45600152 -0.211877838
vn 0.537359655 -0.825565457 -0.172297031
vn 0.174676359 -0.845223963 -0.505058944
vn 0.482391477 -0.87509501 0.0388225801
vn 0.297823697 -0.746234894 -0.595344067
vn -0.11137367 0.132143572 -0.984953761
vn -0.333853364 -0.302558959 -0.892748535
vn 0.508022606 -0.695639372 -0.507935941
vn -0.112073608 0.568241298 -0.815194011
vn 0.390277356 -0.731618166 -0.558944046
vn 0.790362358 -0.455103278 -0.4101322
vn 0.10959921 -0.161619693 -0.980748177
vn 0.180326402 -0.0164832212 -0.983468771
vn 0.661179364 -0.426088899 -0.617486894
vn -0.0670636594 0.1109512 -0.991560519
vn -0.174854636 0.244031161 -0.953873396
vn -0.224016279 0.260118157 -0.939231157
vn -0.361506224 0.789287627 -0.496324837
vn 0.265287191 -0.0194416344 -0.963973343
vn 0.940619886 -0.219394222 -0.259037614
vn 0.408884346 -0.799929202 -0.439234287
vn 0.415314168 -0.861775696 -0.291302085
vn 0.225055665 -0.941286743 -0.251652867
vn 0.191107854 -0.905519366 -0.378830582
vn 0.917897642 -0.248109594 -0.309685975
vn 0.0394539759 -0.575606823 -0.816774309
vn -0.219831392 0.948386133 -0.228556365
vn -0.127095029 0.991685152 -0.0201843847
vn -0.114167273 0.0510879979 -0.992147148
vn -0.199922547 0.978708923 -0.04647284
vn 0.0926277339 0.989957035 -0.106794707
vn 0.901314497 -0.279109746 -0.331254989
vn 0.362770438 -0.465149641 -0.807485878
vn 0.877181709 -0.268915266 -0.397789776
vn 0.848060727 -0.398419797 -0.349363208
vn 0.455758989 -0.845811605 -0.277284265
vn 0.369920641 -0.684556186 -0.628125429
vn 0.297436833 -0.777969718 -0.553438663
vn 0.0409991667 -0.862468123 -0.504447997
vn -0.24624899 -0.0561345592 -0.967579663
vn 0.0134548396 -0.00802736823 -0.999877214
vn -0.0970632136 -0.457982838 -0.883646131
vn 0.0416333117 0.16919826 -0.984702289
vn -0.253526121 0.0431590527 -0.966365278
vn -0.524842083 -0.00541275507 -0.851182342
vn -0.726175427 0.312515199 -0.612375259
vn -0.289070338 -0.0382554531 -0.956543148
vn -0.851209641 -0.17776607 -0.493802935
vn -0.996567726 0.0794380978 -0.0232853498
vn -0.444822758 0.0128761176 -0.895526111
vn -0.123135418 0.248568237 -0.960755706
vn -0.398258299 0.526693404 -0.750988841
vn -0.290847868 0.86385113 -0.411301225
vn -0.393021524 0.918535471 -0.042739246
vn -0.379859567 0.891409278 -0.247176394
vn -0.961463571 0.268048018 0.0611404851
vn -0.177025348 0.973152637 -0.147091269
vn -0.423050523 0.902985692 -0.0751335099
vn -0.570554256 0.773630023 -0.275616527
vn -0.900003552 0.336425304 -0.277149081
vn -0.372643143 0.927278459 0.0359392315
vn -0.630291045 0.381458402 0.67618233
vn -0.789492488 0.592779815 0.159102842
vn -0.372842878 0.866403699 0.332163751
vn -0.681405842 0.722094178 0.11944057
vn -0.802782536 0.587703407 0.100721233
vn -0.711791813 0.702183425 -0.0170526262
vn -0.689963102 0.662997544 -0.290491223
vn -0.516933322 0.843075931 0.148333937
vn -0.975850821 0.138139695 -0.169211969
vn -0.89218545 0.0360996723 -0.450224161
vn -0.975916207 0.197345272 0.0929637924
vn -0.367707402 0.929587305 -0.0256640017
vn -0.417760581 0.83136642 0.366477668
vn -0.325829059 0.866022646 0.379262745
vn -0.611392736 0.740775645 0.278298885
vn -0.788189232 0.49176836 0.370029181
vn -0.710087359 0.704066873 -0.00811040867
vn -0.641484737 0.762411714 0.0850040913
vn -0.577100813 0.804270983 -0.141784638
vn -0.72381711 0.447852105 0.524897516
vn -0.364843845 0.82896477 0.423917741
vn -0.722224772 0.689711809 0.051855024
vn -0.705832243 0.679767132 -0.199292809
vn -0.870110273 0.480851114 -0.108121522
vn -0.928606033 0.290647179 0.230684236
vn -0.591289282 0.80355525 0.0683808923
vn -0.938335717 0.264603406 -0.222510576
vn -0.587320864 0.799061537 -0.128665894
vn -0.545707166 0.808263421 -0.221164703
vn -0.932794392 0.301941335 0.196789235
vn -0.378055871 0.284543425 0.880970418
vn -0.297049612 0.911233306 0.285333842
vn -0.373325258 0.901367009 0.219466925
vn -0.344257981 0.923709214 0.168070942
vn -0.214980096 0.97135669 0.101241067
vn -0.0398042165 0.294458985 0.954834878
vn -0.373619854 0.0814199373 0.924001634
vn -0.270952791 0.935983002 0.224767417
vn -0.0446076579 0.0084450189 0.99896884
vn -0.119287856 -0.238391757 0.963815212
vn -0.209464833 0.956989467 0.200737804
vn 0.0118504278 -0.147408023 0.989004791
vn 0.149636954 -0.780602038 0.606851876
vn 0.121434309 -0.701384008 0.702363312
vn -0.612353563 0.470501244 0.635335863
vn -0.879617453 0.300850213 0.368459553
vn -0.766825855 0.485632569 0.419689298
vn -0.219114691 0.795795977 0.564532995
vn -0.734308362 0.677241325 0.046210371
vn -0.482538879 0.785315037 -0.38786146
vn -0.224920794 0.948122561 -0.224665016
vn -0.714056909 0.697484434 0.0603178889
vn -0.038333714 0.99825424 0.0449320525
vn 0.192982733 0.936293066 -0.293450266
vn -0.0540815257 0.914063573 -0.401948929
vn -0.408283859 0.859939575 0.306281358
vn -0.337548614 0.789423168 0.512710512
vn -0.47752744 0.876008272 0.0676534846
vn -0.0173280854 0.988601029 -0.149558708
vn 0.0680681616 0.983120084 0.16982767
vn -0.43038854 0.648535788 0.627827227
vn -0.239837691 0.623041272 0.744511604
vn -0.234181777 0.872659504 0.428513974
vn 0.104425237 0.39616558 0.912221551
vn -0.735139728 0.262063563 0.625213742
vn 0.0191053804 0.242299929 0.970013261
vn 0.07430356 0.0417939834 0.996359408
vn -0.00274473079 0.0184160136 0.999826729
vn 0.107524149 -0.0408754945 0.993361831
vn -0.435188651 0.454629183 0.777125001
vn -0.261310428 0.46411553 0.846353114
vn -0.0616893768 0.0903920531 0.993993819
vn 0.170403078 -0.168164268 0.970918894
vn 0.64564532 -0.47973299 0.594136775
vn -0.00839163456 0.388748199 0.921305776
vn -0.162446797 0.413524091 0.895884395
vn -0.0417918041 -0.282566339 0.958336949
vn 0.222974285 -0.974784911 0.00877290033
vn 0.599727273 -0.756344855 0.261284709
vn 0.436610669 -0.894281566 -0.09814132
vn 0.529020965 -0.717225909 0.453567952
vn 0.12045446 -0.00190029724 0.992717028
vn 0.192171752 -0.581990421 0.790162742
vn 0.0615735091 -0.751509666 0.656842291
vn 0.446011752 -0.875603139 -0.185452595
vn 0.0449040867 -0.182213485 0.982233167
vn 0.443511397 -0.49911958 0.74443078
vn 0.220664173 -0.859187663 0.461631805
vn 0.201746061 -0.352828056 0.913679957
vn 0.164551631 -0.785308719 0.596835673
vn 0.540064394 -0.654274404 0.529391587
vn 0.606370747 -0.207886651 0.767526984
vn 0.856594086 -0.437351137 0.273807347
vn 0.834090054 -0.542196751 0.101569988
vn 0.384112865 0.190800905 0.903356194
vn 0.27674529 -0.805053473 0.524691284
vn 0.426284403 -0.854352951 0.297258407
vn 0.243584946 -0.628411174 0.738759637
vn 0.00109148386 -0.621683002 0.783268213
vn 0.253181428 -0.0874743462 0.963455975
vn -0.161818892 0.863925517 0.476914465
vn 0.0313882455 -0.352417827 0.935316205
vn 0.0207014773 0.0904764235 0.995683432
vn -0.0101168724 -0.131293446 0.99129194
vn 0.00373974745 -0.25134477 0.967890382
vn 0.0426463895 -0.457288772 0.888295114
vn -0.184809104 -0.420398891 0.888318837
vn -0.141647935 0.0933825523 0.98550272
vn -0.578904569 -0.220350578 0.785057425
vn -0.699917316 -0.326899499 0.635021627
vn -0.996212244 -0.00416259421 0.086856164
vn -0.30417338 0.662605822 0.684421003
vn -0.317862123 0.941844225 0.109055512
vn -0.932566047 0.210000604 0.293632865
vn -0.604363799 0.709081888 -0.363245457
vn -0.372031987 0.921649516 -0.110246673
vn -0.341883212 0.861276388 -0.375923961
vn -0.353111506 0.618436277 -0.70203203
vn -0.560061991 0.390844107 -0.73045975
vn -0.81063664 -0.0850874856 -0.579334497
vn -0.90926975 0.0422572233 -0.414056659
vn -0.0389189236 0.0867272839 0.995471597
vn 0.195686758 0.057877183 0.978956997
vn 0.42109561 0.172231138 0.890513897
vn 0.101815917 0.0437270179 0.993841767
vn 0.203698963 0.0396955088 0.978228509
vn 0.102495715 -0.0358011276 0.994089007
vn 0.359422088 0.0184151568 0.932993412
vn 0.607680798 -0.465390593 0.643533707
vn 0.620063961 0.0719381496 0.781246185
vn 0.69358623 -0.03944958 0.719292641
vn 0.170129716 0.985421658 0
vn 0.170128986 0.985421777 0
vn -0.145505369 0.989357531 -6.9266531E-07
vn -0.213835761 0.976869643 -7.26748738E-07
vn -0.480648756 0.870174527 0.108503155
vn -0.553356528 0.825724661 0.109431952
vn -0.391555309 0.915839195 0.0890114829
vn -0.46062085 0.887507319 0.0126211382
vn -0.611295581 0.783497453 -0.111576751
vn -0.415321082 0.908483624 0.0465392843
vn -0.693332076 0.467097014 0.548735857
vn -0.515545607 0.844167888 -0.146945998
vn -0.833894432 0.17179203 -0.524506986
vn -0.802767575 0.596132278 -0.0138068013
vn -0.728501916 0.684232593 -0.0333286598
vn -0.537614286 0.829435587 0.151682317
vn -0.598945379 0.745787263 0.291660398
vn -0.71340555 0.693519533 -0.100414969
vn -0.733523369 0.0930590406 -0.673263192
vn -0.674108922 0.15991202 -0.721113861
vn -0.373158902 0.0553045459 -0.926117539
vn -0.37632823 0.0546920113 -0.924870729
vn -1.71489603E-07 -3.18226711E-07 -1
vn 1.78378329E-07 1.86840097E-07 -1
vn -1.30605031E-07 -6.40693997E-07 -1
vn 5.58964814E-07 0 -1
vn 5.37088965E-07 3.28166038E-07 -1
vn 1.29609236E-06 2.29667563E-07 -1
vn 5.65662219E-07 0 -1
vn 5.65662276E-07 0 -1
vn 2.90574945E-07 0 -1
vn 1.45402964E-06 0 -1
vn 3.988956E-06 5.90044522E-07 -1
vn 0 -2.00838087E-07 -1
vn 2.99800831E-06 -4.79876064E-07 -1
vn -1.94958304E-07 -1.08399229E-06 -1
vn 1.52402009E-07 1.49327875E-07 1
vn 5.46107401E-07 4.29200668E-07 1
vn 4.57206056E-07 7.93170159E-07 1
vn -6.2674718E-07 -5.50391576E-07 1
vn -6.60253704E-07 0 1
vn -6.92690207E-07 0 1
vn -6.92690207E-07 0 1
vn -4.83447366E-07 -1.59883967E-07 1
vn -4.86759006E-07 -4.54399355E-07 1
vn -3.11336777E-07 0 1
vn -1.95308701E-07 -9.93350113E-07 1
vn -5.0484914E-07 -1.45612489E-07 1
vn -1.24193184E-06 2.29351741E-07 1
vn -4.83507279E-07 2.83411794E-07 1
vn 0 0 1
vn 2.35201E-07 0 1
vn 1.08894744E-06 0 1
vn 1 0 2.18271254E-07
vn 1 0 1.93865574E-07
vn 1 0 1.93865574E-07
vn 1 0 2.1827104E-07
vn 1 0 2.74381506E-07
vn 1 0 2.74381506E-07
vn 0 -1 0
vn 0 -1 0
vn 0 -1 0
vn 0 -1 0
vn 0 -1 0
vn 0 -1 0
vn 0 -1 0
vn 0 -1 0
vn 0 -1 0
vn 0 -1 0
vn 0 -1 0
vn 0 -1 0
vn 0 -1 0
vn 0 -1 0
vn 0 -1 0
vn 0 -1 0
vn 0 -1 0
vn 0 -1 0
vn 0 -1 0
vt 0.900117636 0.647413492
vt 0.896266103 0.667127848
vt 0.900829077 0.666450918
vt 0.888815999 0.647040486
vt 0.882840872 0.660559654
vt 0.869634509 0.645115137
vt 0.884793282 0.631254256
vt 0.900117636 0.647413492
vt 0.901231408 0.638197958
vt 0.900661588 0.633751929
vt 0.896190405 0.628046334
vt 0.901383758 0.615973294
vt 0.89498204 0.611888289
vt 0.907001615 0.603998423
vt 0.877024531 0.613615751
vt 0.891334176 0.602087498
vt 0.907067299 0.598110795
vt 0.874170065 0.620598674
vt 0.859111369 0.604436576
vt 0.887047529 0.608111799
vt 0.893927813 0.588305116
vt 0.90532434 0.584102571
vt 0.903737724 0.576679885
vt 0.872390985 0.59852457
vt 0.882878125 0.594081879
vt 0.883618474 0.584666252
vt 0.903737724 0.576679885
vt 0.870065749 0.580909908
vt 0.854845047 0.625193357
vt 0.860778809 0.591380358
vt 0.847576737 0.583466649
vt 0.841527939 0.613818884
vt 0.844778359 0.638967276
vt 0.851899624 0.654412746
vt 0.873007953 0.564635336
vt 0.850978851 0.568296552
vt 0.857873201 0.546702147
vt 0.888537824 0.543728292
vt 0.903737724 0.576679885
vt 0.862353206 0.661183834
vt 0.871377587 0.540558934
vt 0.888537824 0.543728292
vt 0.860246599 0.671438217
vt 0.847407818 0.675678611
vt 0.871876776 0.669222951
vt 0.862458944 0.679320097
vt 0.884338021 0.695937216
vt 0.852522254 0.695797205
vt 0.857557654 0.704175711
vt 0.884506345 0.671902418
vt 0.896741033 0.678423524
vt 0.898849487 0.679370344
vt 0.900829077 0.666450918
vt 0.894887924 0.701726794
vt 0.882406712 0.721912265
vt 0.858090103 0.729204416
vt 0.892478943 0.71705389
vt 0.894887924 0.701726794
vt 0.885395527 0.741926014
vt 0.858137131 0.738768101
vt 0.891289413 0.727203488
vt 0.889243543 0.741990805
vt 0.881527781 0.75049305
vt 0.887866914 0.748991549
vt 0.887711406 0.751281023
vt 0.81175983 0.738909125
vt 0.800981104 0.733475029
vt 0.791112423 0.740038037
vt 0.789704978 0.749975979
vt 0.806477249 0.768439651
vt 0.784386575 0.778199315
vt 0.818375349 0.747471571
vt 0.828900516 0.732559681
vt 0.80767262 0.782155871
vt 0.789707243 0.786947608
vt 0.813551068 0.769889116
vt 0.8322469 0.760468602
vt 0.821678996 0.797850609
vt 0.832805395 0.773652911
vt 0.842543542 0.778149009
vt 0.810544133 0.79610765
vt 0.80270946 0.805296421
vt 0.810963273 0.822260618
vt 0.825723052 0.825921893
vt 0.847385645 0.8343786
vt 0.836340129 0.793491364
vt 0.84292531 0.804275274
vt 0.85149163 0.788040519
vt 0.854187489 0.808679819
vt 0.856877565 0.824407101
vt 0.864158273 0.804261684
vt 0.871095836 0.815728545
vt 0.874130726 0.836766481
vt 0.873898268 0.842428565
vt 0.889361501 0.837449908
vt 0.876966715 0.823304415
vt 0.892201602 0.793644547
vt 0.882106423 0.823367715
vt 0.911077321 0.831401587
vt 0.892535925 0.821224213
vt 0.916389704 0.789734244
vt 0.899095058 0.771782279
vt 0.918455005 0.814803243
vt 0.914195299 0.769776702
vt 0.900286078 0.762830973
vt 0.933334827 0.778361797
vt 0.923305988 0.793815374
vt 0.936163723 0.801664591
vt 0.466356188 0.143149704
vt 0.469304174 0.135729641
vt 0.435742468 0.116237752
vt 0.432968944 0.125985384
vt 0.404212266 0.0987642333
vt 0.438870341 0.136202395
vt 0.469685346 0.160182476
vt 0.452107459 0.169829845
vt 0.42967537 0.158997774
vt 0.438999087 0.190787971
vt 0.42896542 0.172198862
vt 0.428507179 0.202589095
vt 0.419801861 0.17851001
vt 0.412110656 0.207893252
vt 0.392311305 0.179875731
vt 0.392999619 0.214810908
vt 0.375647396 0.215180993
vt 0.402976602 0.153893411
vt 0.417324096 0.15099293
vt 0.424845189 0.143218577
vt 0.424868792 0.13494119
vt 0.394913524 0.148365498
vt 0.388778359 0.140877485
vt 0.381320268 0.187057734
vt 0.350925535 0.221189082
vt 0.417767972 0.123597108
vt 0.39587 0.128540635
vt 0.408150047 0.111312501
vt 0.398061633 0.118176468
vt 0.392607898 0.107944779
vt 0.398061633 0.118176468
vt 0.357724279 0.09868031
vt 0.36850962 0.187838852
vt 0.355742127 0.194591463
vt 0.315845937 0.202863961
vt 0.316211432 0.212426186
vt 0.298526138 0.201856077
vt 0.37656042 0.158758342
vt 0.36810419 0.160539627
vt 0.372712523 0.137906611
vt 0.306352407 0.19448489
vt 0.286163419 0.177243888
vt 0.377961785 0.127398163
vt 0.377849072 0.11536213
vt 0.398061633 0.118176468
vt 0.371139497 0.107580714
vt 0.365153402 0.113806926
vt 0.368378609 0.128960311
vt 0.360200256 0.105059318
vt 0.352614135 0.110030495
vt 0.364316493 0.145315588
vt 0.345267624 0.146267742
vt 0.343266934 0.141296923
vt 0.32322064 0.166854739
vt 0.333088011 0.148921847
vt 0.316479236 0.164635837
vt 0.322373658 0.14436686
vt 0.286237329 0.156100988
vt 0.336451501 0.13608104
vt 0.315136164 0.126611441
vt 0.284520477 0.144090176
vt 0.29751125 0.128468424
vt 0.329844445 0.11696633
vt 0.32558164 0.107531451
vt 0.339110881 0.13060084
vt 0.342702955 0.111452691
vt 0.350841135 0.124179892
vt 0.341448545 0.118139476
vt 0.345187962 0.115338966
vt 0.221017182 0.41797927
vt 0.213767588 0.43625012
vt 0.222633362 0.435099274
vt 0.212463439 0.418970019
vt 0.197365373 0.42610839
vt 0.199701726 0.433885366
vt 0.220290363 0.401208669
vt 0.183936834 0.429772645
vt 0.212685645 0.394020706
vt 0.22210592 0.380826145
vt 0.203873575 0.408106118
vt 0.199351609 0.375994831
vt 0.213428646 0.380679876
vt 0.18773216 0.379217774
vt 0.184052289 0.363445669
vt 0.173817694 0.386415511
vt 0.171045184 0.391535908
vt 0.210310906 0.363151819
vt 0.218554974 0.367046684
vt 0.222291589 0.354169935
vt 0.234365344 0.352754682
vt 0.217840433 0.315200955
vt 0.208892524 0.312440723
vt 0.225842476 0.301732808
vt 0.207551658 0.341087967
vt 0.167572588 0.416786045
vt 0.171171844 0.435295969
vt 0.192411035 0.331566364
vt 0.147488952 0.430783361
vt 0.143713415 0.447002679
vt 0.213202238 0.302561432
vt 0.200222135 0.306408316
vt 0.212372482 0.291217834
vt 0.225518465 0.29096666
vt 0.221520185 0.273950309
vt 0.204622149 0.280026883
vt 0.214620829 0.254937559
vt 0.199674726 0.257313997
vt 0.184593469 0.251572251
vt 0.193755567 0.289306194
vt 0.187796712 0.31355086
vt 0.184473574 0.299461573
vt 0.173248887 0.276816756
vt 0.152798712 0.247012377
vt 0.171848297 0.293001443
vt 0.17312929 0.235624433
vt 0.155031085 0.230431676
vt 0.122288905 0.234032631
vt 0.175090104 0.303342074
vt 0.17094624 0.338996738
vt 0.16206485 0.322504789
vt 0.160310566 0.266069084
vt 0.140472054 0.286423475
vt 0.150632083 0.251780391
vt 0.135846555 0.250921905
vt 0.164701939 0.338291019
vt 0.14421916 0.357957929
vt 0.167437792 0.362925559
vt 0.166057587 0.378133565
vt 0.138772398 0.256737739
vt 0.12249779 0.2549977
vt 0.115998983 0.237911552
vt 0.125857502 0.266697437
vt 0.115917586 0.280372113
vt 0.132357538 0.296373516
vt 0.0990213826 0.295971662
vt 0.107876159 0.247636259
vt 0.154550076 0.394340545
vt 0.142258227 0.293230385
vt 0.155979216 0.31171301
vt 0.141139925 0.313331336
vt 0.155674875 0.318806082
vt 0.134761453 0.319853574
vt 0.152164936 0.412486106
vt 0.142879903 0.395169884
vt 0.151398629 0.382569343
vt 0.146076083 0.371260911
vt 0.12727046 0.386541396
vt 0.126084417 0.365945786
vt 0.124665491 0.31376186
vt 0.12990433 0.337703615
vt 0.108755924 0.313306123
vt 0.115561478 0.335758299
vt 0.104887582 0.321783215
vt 0.0764960721 0.317664295
vt 0.0856103972 0.308220476
vt 0.0974161103 0.332335502
vt 0.112208374 0.354662627
vt 0.101961531 0.34012273
vt 0.0824025348 0.336493284
vt 0.0574027859 0.317404538
vt 0.0750522092 0.303832442
vt 0.0828051046 0.345193416
vt 0.112267919 0.368383199
vt 0.0975860134 0.365040332
vt 0.0739837661 0.375534683
vt 0.0749584809 0.34107545
vt 0.112107135 0.385315031
vt 0.073325105 0.364021808
vt 0.0545389019 0.331016213
vt 0.0865524188 0.391890556
vt 0.0492079817 0.362333268
vt 0.0346324705 0.361742347
vt 0.0434096716 0.341271251
vt 0.0879804268 0.401378661
vt 0.101228185 0.396605581
vt 0.100023724 0.409201771
vt 0.0743329003 0.404703707
vt 0.126817316 0.399814636
vt 0.1379897 0.420133501
vt 0.131873697 0.428905636
vt 0.115539007 0.41221562
vt 0.114872061 0.445177406
vt 0.12954402 0.46228376
vt 0.117364518 0.466692537
vt 0.11439272 0.426537961
vt 0.103337206 0.419477135
vt 0.100372024 0.458655864
vt 0.104413845 0.476447374
vt 0.0920742229 0.478256732
vt 0.0997131541 0.439959556
vt 0.0903598145 0.418732792
vt 0.0900178328 0.464406461
vt 0.0804944113 0.483079821
vt 0.084145464 0.455430776
vt 0.0832069591 0.466421753
vt 0.0639296845 0.489778668
vt 0.0710764304 0.455998093
vt 0.0552723967 0.473716706
vt 0.0749993995 0.438942581
vt 0.0773723796 0.419129044
vt 0.0615096353 0.444430381
vt 0.0426481925 0.455245763
vt 0.0410600863 0.476611644
vt 0.0651309267 0.407310396
vt 0.0679754689 0.419995576
vt 0.0566401742 0.420255214
vt 0.0336238407 0.454326183
vt 0.0332508944 0.475379258
vt 0.0201770384 0.45522514
vt 0.0266899485 0.410119325
vt 0.0594562255 0.398749083
vt 0.0495476685 0.412488014
vt 0.0453917347 0.436570317
vt 0.0372818373 0.400340885
vt 0.0420095287 0.374300271
vt 0.020826729 0.380023211
vt 0.0256446023 0.359179765
vt 0.0435805582 0.390789717
vt 0.0314295888 0.343327612
vt 0.0356944464 0.330686361
vt 0.0415014587 0.326425582
vt 0.0261586923 0.314534456
vt 0.0177503843 0.318272024
vt 0.0455087088 0.315606505
vt 0.0259243865 0.301618725
vt 0.0175901968 0.302189738
vt 0.0177176315 0.290441543
vt 0.0248821992 0.283521324
vt 0.0321772359 0.310560077
vt 0.0586816631 0.300692707
vt 0.0293825585 0.297325164
vt 0.0538208149 0.299512118
vt 0.0365315042 0.289310724
vt 0.0406447314 0.271619946
vt 0.0323560238 0.262145013
vt 0.0377383493 0.249489754
vt 0.0543939434 0.263765126
vt 0.0587794147 0.251980245
vt 0.0592908822 0.236294031
vt 0.072290726 0.235722721
vt 0.0630686581 0.26140812
vt 0.0705997124 0.260730535
vt 0.0680916384 0.254810721
vt 0.0796682611 0.254127413
vt 0.0834609643 0.296719164
vt 0.0948569551 0.282739788
vt 0.0980675891 0.265079409
vt 0.0913593844 0.244850338
vt 0.0917175189 0.236857235
vt 0.0814066902 0.241813481
vt 0.888537824 0.543728292
vt 0.884163439 0.534065485
vt 0.878190279 0.52567631
vt 0.877049148 0.523984849
vt 0.851165652 0.532869458
vt 0.874125004 0.519217968
vt 0.866420448 0.519424915
vt 0.867356062 0.507375419
vt 0.848430634 0.514289379
vt 0.861360788 0.507404208
vt 1.36618412 0.446784407
vt 1.55598867 0.427485943
vt 1.53647733 0.345281124
vt 1.34663165 0.36458379
vt 1.53178048 0.290178418
vt 1.34374833 0.306518018
vt 1.51872659 0.20218879
vt 1.31257296 0.0984115303
vt 1.50986636 0.110103846
vt 1.31842577 0.0109906858
vt 1.30301845 0.000923663378
vt 1.50871933 0.080645293
vt 1.33858812 -0.0255913381
vt 1.29456389 -0.122893691
vt 1.49586964 -0.018458426
vt 1.37310421 -0.195089996
vt 1.29089558 -0.155622795
vt 1.46039629 -0.116119266
vt 1.43072128 -0.166716024
vt 1.45758629 -0.157019988
vt 1.46801519 -0.145214871
vt 1.49583125 -0.113546647
vt 1 0.285224259
vt 0.852054417 0.266499817
vt 0.880746007 0.305767894
vt 1 0.0904816985
vt 0.867671907 0.0812187195
vt 0.772313237 0.237477481
vt 0.876927376 0
vt 1 0
vt 0.754115462 0
vt 0.735604584 0.0719557405
vt 0.718189478 0.177986026
vt 0.618062496 0
vt 0.692893326 0.172321737
vt 0.632688642 0.104794383
vt 0.136351719 0.250174582
vt 0 0.283541262
vt 0.118738793 0.304085016
vt 0.0763846934 0.0952894092
vt 0 0.088799417
vt 0.0731014907 0
vt 0 0
vt 0.146457434 0
vt 0.153023824 0.101779401
vt 0.285440266 0
vt 0.136351734 0.250174522
vt 0.385155559 0.121436775
vt 0.323486805 0.178433239
vt 0.394803524 0
vt 0.436801195 0.0204674602
vt 0.435878068 0
vt 0.459209353 0
vt 1.02761555 0.797084987
vt 1.19411945 0.710757673
vt 1.02761555 0.710757673
vt 1.19411945 0.797085643
vt 1.19411945 0.991827488
vt 1.02761555 0.991827488
vt 0.490017414 0.332562923
vt 0.448117524 0.418607324
vt 0.515913963 0.332562953
vt 0.727369666 0.517374158
vt 0.529136598 0.498160064
vt 0.576357424 0.517374158
vt 0.494224608 0.468076736
vt 0.510963082 0.491826028
vt 0.863684833 0.517374039
vt 0.757956982 0.424968451
vt 1 0.517373919
vt 0.780752361 0.424968421
vt 0.561504722 0.332562923
vt 0.84144628 0.424968392
vt 0.682892621 0.332562894
vt 0.918578446 0.424968362
vt 0.837156892 0.332562834
vt 0.918578446 0.332562804
vt 1 0.332562745
g submesh0
f 1/1/1 2/2/2 3/3/3
f 1/1/1 4/4/4 2/2/2
f 4/4/4 5/5/5 2/2/2
f 4/4/4 6/6/6 5/5/5
f 7/7/7 6/6/6 4/4/4
f 7/7/7 4/4/4 8/8/8
f 7/7/7 8/8/8 9/9/9
f 10/10/10 7/7/7 9/9/9
f 10/10/10 11/11/11 7/7/7
f 10/10/10 12/12/12 11/11/11
f 11/11/11 12/12/12 13/13/13
f 13/13/13 12/12/12 14/14/14
f 11/11/11 15/15/15 7/7/7
f 13/13/13 15/15/15 11/11/11
f 13/13/13 14/14/14 16/16/16
f 16/16/16 14/14/14 17/17/17
f 7/7/7 18/18/18 6/6/6
f 15/15/15 18/18/18 7/7/7
f 15/15/15 19/19/19 18/18/18
f 13/13/13 20/20/20 15/15/15
f 20/20/20 13/13/13 16/16/16
f 16/16/16 17/17/17 21/21/21
f 17/17/17 22/22/22 21/21/21
f 21/21/21 22/22/22 23/23/23
f 15/15/15 20/20/20 24/24/24
f 15/15/15 24/24/24 19/19/19
f 20/20/20 16/16/16 25/25/25
f 16/16/16 21/21/21 25/25/25
f 24/24/24 20/20/20 25/25/25
f 25/25/25 21/21/21 26/26/26
f 26/26/26 21/21/21 27/27/27
f 24/24/24 25/25/25 28/28/28
f 25/25/25 26/26/26 28/28/28
f 18/18/18 19/19/19 29/29/29
f 18/18/18 29/29/29 6/6/6
f 30/30/30 24/24/24 28/28/28
f 19/19/19 24/24/24 30/30/30
f 30/30/30 28/28/28 31/31/31
f 19/19/19 30/30/30 31/31/31
f 19/19/19 31/31/31 32/32/32
f 19/19/19 32/32/32 33/33/33
f 19/19/19 33/33/33 29/29/29
f 6/6/6 29/29/29 33/33/33
f 33/33/33 34/34/34 6/6/6
f 28/28/28 35/35/35 31/31/31
f 28/28/28 26/26/26 35/35/35
f 36/36/36 31/31/31 35/35/35
f 36/36/36 35/35/35 37/37/37
f 26/26/26 38/38/38 35/35/35
f 26/26/26 39/39/39 38/38/38
f 6/6/6 34/34/34 40/40/40
f 6/6/6 40/40/40 5/5/5
f 35/35/35 41/41/41 37/37/37
f 41/41/41 35/35/35 42/42/42
f 40/40/40 34/34/34 43/43/43
f 34/34/34 44/44/44 43/43/43
f 5/5/5 40/40/40 45/45/45
f 40/40/40 43/43/43 45/45/45
f 46/46/46 43/43/43 44/44/44
f 45/45/45 43/43/43 46/46/46
f 45/45/45 46/46/46 47/47/47
f 46/46/46 44/44/44 48/48/48
f 48/48/48 49/49/49 46/46/46
f 49/49/49 47/47/47 46/46/46
f 5/5/5 45/45/45 50/50/50
f 45/45/45 47/47/47 50/50/50
f 5/5/5 50/50/50 2/2/2
f 50/50/50 51/51/51 2/2/2
f 50/50/50 47/47/47 51/51/51
f 2/2/2 51/51/51 52/52/52
f 2/2/2 52/52/52 53/53/53
f 51/51/51 54/54/54 52/52/52
f 51/51/51 47/47/47 54/54/54
f 49/49/49 55/55/55 47/47/47
f 56/56/56 55/55/55 49/49/49
f 47/47/47 55/55/55 57/57/57
f 47/47/47 57/57/57 58/58/58
f 56/56/56 59/59/59 55/55/55
f 57/57/57 55/55/55 59/59/59
f 59/59/59 56/56/56 60/60/60
f 57/57/57 59/59/59 61/61/61
f 59/59/59 62/62/62 61/61/61
f 59/59/59 60/60/60 63/63/63
f 62/62/62 59/59/59 63/63/63
f 62/62/62 63/63/63 64/64/64
f 63/63/63 65/65/65 64/64/64
f 66/66/66 67/67/67 68/68/68
f 66/66/66 68/68/68 69/69/69
f 70/70/70 66/66/66 69/69/69
f 70/70/70 69/69/69 71/71/71
f 72/72/72 66/66/66 70/70/70
f 72/72/72 73/73/73 66/66/66
f 71/71/71 74/74/74 70/70/70
f 71/71/71 75/75/75 74/74/74
f 70/70/70 76/76/76 72/72/72
f 70/70/70 74/74/74 76/76/76
f 72/72/72 76/76/76 77/77/77
f 74/74/74 78/78/78 76/76/76
f 76/76/76 78/78/78 79/79/79
f 76/76/76 79/79/79 77/77/77
f 78/78/78 80/80/80 79/79/79
f 75/75/75 81/81/81 74/74/74
f 74/74/74 81/81/81 78/78/78
f 75/75/75 82/82/82 81/81/81
f 82/82/82 83/83/83 81/81/81
f 83/83/83 84/84/84 81/81/81
f 81/81/81 84/84/84 78/78/78
f 85/85/85 78/78/78 84/84/84
f 78/78/78 86/86/86 80/80/80
f 78/78/78 87/87/87 86/86/86
f 86/86/86 87/87/87 80/80/80
f 78/78/78 85/85/85 87/87/87
f 87/87/87 88/88/88 80/80/80
f 88/88/88 87/87/87 89/89/89
f 85/85/85 89/89/89 87/87/87
f 85/85/85 90/90/90 89/89/89
f 89/89/89 90/90/90 91/91/91
f 90/90/90 92/92/92 91/91/91
f 93/93/93 90/90/90 85/85/85
f 94/94/94 93/93/93 85/85/85
f 93/93/93 94/94/94 95/95/95
f 90/90/90 96/96/96 92/92/92
f 93/93/93 96/96/96 90/90/90
f 96/96/96 93/93/93 95/95/95
f 92/92/92 96/96/96 97/97/97
f 96/96/96 95/95/95 98/98/98
f 96/96/96 98/98/98 97/97/97
f 98/98/98 95/95/95 99/99/99
f 98/98/98 100/100/100 97/97/97
f 100/100/100 98/98/98 99/99/99
f 100/100/100 101/101/101 97/97/97
f 100/100/100 99/99/99 101/101/101
f 97/97/97 101/101/101 102/102/102
f 101/101/101 99/99/99 103/103/103
f 104/104/104 102/102/102 101/101/101
f 104/104/104 105/105/105 102/102/102
f 101/101/101 106/106/106 104/104/104
f 101/101/101 103/103/103 107/107/107
f 101/101/101 107/107/107 106/106/106
f 108/108/108 107/107/107 103/103/103
f 108/108/108 106/106/106 107/107/107
f 109/109/109 110/110/110 111/111/111
f 109/109/109 111/111/111 112/112/112
f 113/113/113 112/112/112 111/111/111
f 114/114/114 109/109/109 112/112/112
f 109/109/109 114/114/114 115/115/115
f 116/116/116 115/115/115 114/114/114
f 116/116/116 114/114/114 117/117/117
f 118/118/118 116/116/116 117/117/117
f 119/119/119 118/118/118 117/117/117
f 120/120/120 118/118/118 119/119/119
f 120/120/120 119/119/119 121/121/121
f 122/122/122 120/120/120 121/121/121
f 123/123/123 122/122/122 121/121/121
f 124/124/124 122/122/122 123/123/123
f 123/123/123 125/125/125 124/124/124
f 121/121/121 119/119/119 126/126/126
f 123/123/123 121/121/121 126/126/126
f 119/119/119 117/117/117 127/127/127
f 126/126/126 119/119/119 127/127/127
f 117/117/117 114/114/114 128/128/128
f 117/117/117 128/128/128 127/127/127
f 128/128/128 114/114/114 129/129/129
f 128/128/128 129/129/129 127/127/127
f 114/114/114 112/112/112 129/129/129
f 127/127/127 130/130/130 126/126/126
f 127/127/127 129/129/129 130/130/130
f 123/123/123 126/126/126 130/130/130
f 123/123/123 130/130/130 131/131/131
f 132/132/132 125/125/125 123/123/123
f 123/123/123 131/131/131 132/132/132
f 133/133/133 125/125/125 132/132/132
f 129/129/129 112/112/112 134/134/134
f 129/129/129 134/134/134 130/130/130
f 130/130/130 135/135/135 131/131/131
f 130/130/130 134/134/134 135/135/135
f 134/134/134 112/112/112 136/136/136
f 113/113/113 136/136/136 112/112/112
f 137/137/137 134/134/134 136/136/136
f 134/134/134 137/137/137 135/135/135
f 136/136/136 113/113/113 138/138/138
f 139/139/139 136/136/136 138/138/138
f 138/138/138 113/113/113 140/140/140
f 141/141/141 133/133/133 132/132/132
f 141/141/141 132/132/132 131/131/131
f 142/142/142 133/133/133 141/141/141
f 143/143/143 133/133/133 142/142/142
f 143/143/143 144/144/144 133/133/133
f 143/143/143 145/145/145 144/144/144
f 142/142/142 141/141/141 146/146/146
f 141/141/141 131/131/131 146/146/146
f 142/142/142 146/146/146 147/147/147
f 143/143/143 142/142/142 147/147/147
f 131/131/131 148/148/148 146/146/146
f 147/147/147 146/146/146 148/148/148
f 145/145/145 143/143/143 149/149/149
f 145/145/145 149/149/149 150/150/150
f 131/131/131 151/151/151 148/148/148
f 131/131/131 135/135/135 151/151/151
f 151/151/151 135/135/135 152/152/152
f 135/135/135 153/153/153 152/152/152
f 152/152/152 153/153/153 138/138/138
f 152/152/152 138/138/138 154/154/154
f 138/138/138 140/140/140 154/154/154
f 151/151/151 152/152/152 155/155/155
f 155/155/155 152/152/152 154/154/154
f 148/148/148 151/151/151 156/156/156
f 156/156/156 151/151/151 155/155/155
f 155/155/155 154/154/154 157/157/157
f 154/154/154 140/140/140 157/157/157
f 155/155/155 157/157/157 158/158/158
f 157/157/157 140/140/140 158/158/158
f 156/156/156 155/155/155 158/158/158
f 148/148/148 156/156/156 159/159/159
f 147/147/147 148/148/148 159/159/159
f 147/147/147 159/159/159 160/160/160
f 143/143/143 147/147/147 160/160/160
f 159/159/159 156/156/156 161/161/161
f 159/159/159 161/161/161 160/160/160
f 143/143/143 160/160/160 162/162/162
f 149/149/149 143/143/143 162/162/162
f 162/162/162 160/160/160 163/163/163
f 160/160/160 161/161/161 163/163/163
f 164/164/164 149/149/149 162/162/162
f 164/164/164 162/162/162 163/163/163
f 150/150/150 149/149/149 164/164/164
f 150/150/150 164/164/164 165/165/165
f 165/165/165 164/164/164 163/163/163
f 165/165/165 166/166/166 150/150/150
f 163/163/163 167/167/167 165/165/165
f 163/163/163 161/161/161 167/167/167
f 168/168/168 166/166/166 165/165/165
f 168/168/168 165/165/165 167/167/167
f 169/169/169 166/166/166 168/168/168
f 169/169/169 168/168/168 170/170/170
f 168/168/168 171/171/171 170/170/170
f 167/167/167 171/171/171 168/168/168
f 171/171/171 172/172/172 170/170/170
f 161/161/161 173/173/173 167/167/167
f 173/173/173 171/171/171 167/167/167
f 171/171/171 174/174/174 172/172/172
f 174/174/174 140/140/140 172/172/172
f 158/158/158 140/140/140 174/174/174
f 161/161/161 175/175/175 173/173/173
f 161/161/161 156/156/156 175/175/175
f 156/156/156 158/158/158 175/175/175
f 173/173/173 176/176/176 171/171/171
f 171/171/171 176/176/176 174/174/174
f 176/176/176 173/173/173 175/175/175
f 175/175/175 158/158/158 177/177/177
f 177/177/177 158/158/158 174/174/174
f 176/176/176 175/175/175 177/177/177
f 176/176/176 177/177/177 174/174/174
f 178/178/178 179/179/179 180/180/180
f 178/178/178 181/181/181 179/179/179
f 182/182/182 179/179/179 181/181/181
f 182/182/182 183/183/183 179/179/179
f 181/181/181 178/178/178 184/184/184
f 182/182/182 185/185/185 183/183/183
f 181/181/181 184/184/184 186/186/186
f 184/184/184 187/187/187 186/186/186
f 182/182/182 181/181/181 188/188/188
f 181/181/181 186/186/186 188/188/188
f 188/188/188 186/186/186 189/189/189
f 187/187/187 190/190/190 186/186/186
f 189/189/189 186/186/186 190/190/190
f 182/182/182 188/188/188 191/191/191
f 191/191/191 188/188/188 189/189/189
f 191/191/191 189/189/189 192/192/192
f 193/193/193 191/191/191 192/192/192
f 193/193/193 182/182/182 191/191/191
f 182/182/182 194/194/194 185/185/185
f 182/182/182 193/193/193 194/194/194
f 190/190/190 195/195/195 189/189/189
f 192/192/192 189/189/189 195/195/195
f 190/190/190 187/187/187 196/196/196
f 190/190/190 196/196/196 195/195/195
f 196/196/196 187/187/187 197/197/197
f 195/195/195 196/196/196 197/197/197
f 187/187/187 198/198/198 197/197/197
f 197/197/197 198/198/198 199/199/199
f 197/197/197 199/199/199 200/200/200
f 199/199/199 201/201/201 200/200/200
f 202/202/202 195/195/195 197/197/197
f 197/197/197 200/200/200 202/202/202
f 194/194/194 203/203/203 185/185/185
f 185/185/185 203/203/203 204/204/204
f 192/192/192 195/195/195 205/205/205
f 205/205/205 195/195/195 202/202/202
f 203/203/203 206/206/206 204/204/204
f 204/204/204 206/206/206 207/207/207
f 201/201/201 208/208/208 200/200/200
f 202/202/202 200/200/200 209/209/209
f 208/208/208 209/209/209 200/200/200
f 210/210/210 208/208/208 201/201/201
f 209/209/209 208/208/208 210/210/210
f 210/210/210 201/201/201 211/211/211
f 210/210/210 211/211/211 212/212/212
f 210/210/210 212/212/212 213/213/213
f 213/213/213 212/212/212 214/214/214
f 213/213/213 214/214/214 215/215/215
f 216/216/216 213/213/213 215/215/215
f 217/217/217 210/210/210 213/213/213
f 209/209/209 210/210/210 217/217/217
f 217/217/217 213/213/213 216/216/216
f 218/218/218 202/202/202 209/209/209
f 205/205/205 202/202/202 218/218/218
f 209/209/209 217/217/217 219/219/219
f 218/218/218 209/209/209 219/219/219
f 220/220/220 217/217/217 216/216/216
f 219/219/219 217/217/217 220/220/220
f 220/220/220 216/216/216 221/221/221
f 219/219/219 220/220/220 222/222/222
f 221/221/221 216/216/216 223/223/223
f 221/221/221 223/223/223 224/224/224
f 224/224/224 225/225/225 221/221/221
f 219/219/219 226/226/226 218/218/218
f 226/226/226 205/205/205 218/218/218
f 226/226/226 219/219/219 222/222/222
f 227/227/227 205/205/205 226/226/226
f 227/227/227 192/192/192 205/205/205
f 228/228/228 227/227/227 226/226/226
f 222/222/222 228/228/228 226/226/226
f 220/220/220 229/229/229 222/222/222
f 221/221/221 229/229/229 220/220/220
f 229/229/229 230/230/230 222/222/222
f 221/221/221 231/231/231 229/229/229
f 229/229/229 231/231/231 230/230/230
f 225/225/225 232/232/232 221/221/221
f 221/221/221 232/232/232 231/231/231
f 233/233/233 192/192/192 227/227/227
f 228/228/228 233/233/233 227/227/227
f 234/234/234 233/233/233 228/228/228
f 234/234/234 235/235/235 233/233/233
f 233/233/233 235/235/235 192/192/192
f 235/235/235 236/236/236 192/192/192
f 236/236/236 193/193/193 192/192/192
f 236/236/236 194/194/194 193/193/193
f 237/237/237 230/230/230 231/231/231
f 231/231/231 232/232/232 237/237/237
f 225/225/225 238/238/238 232/232/232
f 238/238/238 225/225/225 239/239/239
f 232/232/232 240/240/240 237/237/237
f 232/232/232 238/238/238 240/240/240
f 230/230/230 237/237/237 240/240/240
f 238/238/238 239/239/239 241/241/241
f 240/240/240 238/238/238 241/241/241
f 230/230/230 240/240/240 241/241/241
f 230/230/230 241/241/241 242/242/242
f 241/241/241 243/243/243 242/242/242
f 241/241/241 239/239/239 244/244/244
f 244/244/244 243/243/243 241/241/241
f 245/245/245 194/194/194 236/236/236
f 194/194/194 245/245/245 203/203/203
f 230/230/230 242/242/242 246/246/246
f 222/222/222 230/230/230 246/246/246
f 246/246/246 247/247/247 222/222/222
f 247/247/247 228/228/228 222/222/222
f 246/246/246 248/248/248 247/247/247
f 242/242/242 248/248/248 246/246/246
f 247/247/247 249/249/249 228/228/228
f 247/247/247 248/248/248 249/249/249
f 249/249/249 234/234/234 228/228/228
f 249/249/249 248/248/248 250/250/250
f 242/242/242 250/250/250 248/248/248
f 250/250/250 234/234/234 249/249/249
f 203/203/203 245/245/245 251/251/251
f 245/245/245 252/252/252 251/251/251
f 203/203/203 251/251/251 206/206/206
f 251/251/251 252/252/252 206/206/206
f 252/252/252 245/245/245 253/253/253
f 236/236/236 253/253/253 245/245/245
f 254/254/254 253/253/253 236/236/236
f 254/254/254 252/252/252 253/253/253
f 254/254/254 255/255/255 252/252/252
f 254/254/254 236/236/236 235/235/235
f 235/235/235 234/234/234 254/254/254
f 256/256/256 255/255/255 254/254/254
f 256/256/256 254/254/254 234/234/234
f 242/242/242 257/257/257 250/250/250
f 258/258/258 234/234/234 250/250/250
f 257/257/257 258/258/258 250/250/250
f 242/242/242 259/259/259 257/257/257
f 259/259/259 258/258/258 257/257/257
f 243/243/243 259/259/259 242/242/242
f 260/260/260 234/234/234 258/258/258
f 260/260/260 256/256/256 234/234/234
f 259/259/259 261/261/261 258/258/258
f 261/261/261 260/260/260 258/258/258
f 259/259/259 262/262/262 261/261/261
f 259/259/259 243/243/243 263/263/263
f 263/263/263 262/262/262 259/259/259
f 261/261/261 264/264/264 260/260/260
f 262/262/262 264/264/264 261/261/261
f 256/256/256 260/260/260 265/265/265
f 264/264/264 266/266/266 260/260/260
f 260/260/260 266/266/266 265/265/265
f 267/267/267 266/266/266 264/264/264
f 267/267/267 264/264/264 262/262/262
f 262/262/262 268/268/268 267/267/267
f 269/269/269 268/268/268 262/262/262
f 263/263/263 269/269/269 262/262/262
f 266/266/266 267/267/267 270/270/270
f 270/270/270 265/265/265 266/266/266
f 265/265/265 271/271/271 256/256/256
f 271/271/271 255/255/255 256/256/256
f 272/272/272 271/271/271 265/265/265
f 270/270/270 272/272/272 265/265/265
f 272/272/272 270/270/270 273/273/273
f 267/267/267 274/274/274 270/270/270
f 267/267/267 268/268/268 274/274/274
f 272/272/272 275/275/275 271/271/271
f 255/255/255 271/271/271 275/275/275
f 270/270/270 274/274/274 276/276/276
f 276/276/276 273/273/273 270/270/270
f 274/274/274 277/277/277 276/276/276
f 268/268/268 277/277/277 274/274/274
f 272/272/272 278/278/278 275/275/275
f 272/272/272 273/273/273 278/278/278
f 276/276/276 277/277/277 279/279/279
f 276/276/276 279/279/279 273/273/273
f 280/280/280 279/279/279 277/277/277
f 281/281/281 280/280/280 277/277/277
f 277/277/277 268/268/268 281/281/281
f 282/282/282 275/275/275 278/278/278
f 275/275/275 283/283/283 255/255/255
f 282/282/282 283/283/283 275/275/275
f 283/283/283 284/284/284 255/255/255
f 284/284/284 283/283/283 282/282/282
f 278/278/278 273/273/273 285/285/285
f 282/282/282 278/278/278 285/285/285
f 255/255/255 284/284/284 286/286/286
f 252/252/252 255/255/255 286/286/286
f 252/252/252 286/286/286 287/287/287
f 252/252/252 287/287/287 206/206/206
f 287/287/287 288/288/288 206/206/206
f 287/287/287 286/286/286 288/288/288
f 206/206/206 288/288/288 207/207/207
f 286/286/286 284/284/284 289/289/289
f 286/286/286 289/289/289 288/288/288
f 288/288/288 290/290/290 207/207/207
f 207/207/207 290/290/290 291/291/291
f 291/291/291 290/290/290 292/292/292
f 288/288/288 289/289/289 293/293/293
f 288/288/288 293/293/293 290/290/290
f 289/289/289 284/284/284 294/294/294
f 293/293/293 289/289/289 294/294/294
f 290/290/290 295/295/295 292/292/292
f 292/292/292 295/295/295 296/296/296
f 295/295/295 297/297/297 296/296/296
f 290/290/290 293/293/293 298/298/298
f 293/293/293 294/294/294 298/298/298
f 298/298/298 295/295/295 290/290/290
f 294/294/294 284/284/284 299/299/299
f 294/294/294 299/299/299 298/298/298
f 299/299/299 284/284/284 282/282/282
f 295/295/295 300/300/300 297/297/297
f 297/297/297 300/300/300 301/301/301
f 298/298/298 302/302/302 295/295/295
f 295/295/295 302/302/302 300/300/300
f 300/300/300 303/303/303 301/301/301
f 300/300/300 302/302/302 303/303/303
f 301/301/301 303/303/303 304/304/304
f 303/303/303 305/305/305 304/304/304
f 302/302/302 305/305/305 303/303/303
f 305/305/305 306/306/306 304/304/304
f 299/299/299 307/307/307 298/298/298
f 302/302/302 298/298/298 307/307/307
f 282/282/282 308/308/308 299/299/299
f 307/307/307 299/299/299 308/308/308
f 282/282/282 285/285/285 308/308/308
f 302/302/302 307/307/307 309/309/309
f 305/305/305 302/302/302 309/309/309
f 308/308/308 309/309/309 307/307/307
f 305/305/305 310/310/310 306/306/306
f 305/305/305 309/309/309 310/310/310
f 306/306/306 310/310/310 311/311/311
f 308/308/308 285/285/285 312/312/312
f 285/285/285 273/273/273 312/312/312
f 308/308/308 313/313/313 309/309/309
f 308/308/308 312/312/312 313/313/313
f 313/313/313 314/314/314 309/309/309
f 309/309/309 314/314/314 310/310/310
f 312/312/312 314/314/314 313/313/313
f 311/311/311 310/310/310 315/315/315
f 316/316/316 311/311/311 315/315/315
f 316/316/316 315/315/315 317/317/317
f 315/315/315 318/318/318 317/317/317
f 273/273/273 319/319/319 312/312/312
f 273/273/273 279/279/279 319/319/319
f 314/314/314 312/312/312 320/320/320
f 312/312/312 319/319/319 320/320/320
f 315/315/315 320/320/320 318/318/318
f 310/310/310 321/321/321 315/315/315
f 310/310/310 314/314/314 321/321/321
f 321/321/321 320/320/320 315/315/315
f 320/320/320 321/321/321 314/314/314
f 320/320/320 322/322/322 318/318/318
f 320/320/320 319/319/319 322/322/322
f 279/279/279 323/323/323 319/319/319
f 279/279/279 280/280/280 323/323/323
f 318/318/318 322/322/322 280/280/280
f 318/318/318 280/280/280 324/324/324
f 325/325/325 324/324/324 280/280/280
f 322/322/322 319/319/319 326/326/326
f 326/326/326 319/319/319 323/323/323
f 322/322/322 326/326/326 280/280/280
f 323/323/323 280/280/280 326/326/326
f 281/281/281 325/325/325 280/280/280
f 281/281/281 327/327/327 325/325/325
f 281/281/281 328/328/328 327/327/327
f 281/281/281 329/329/329 328/328/328
f 268/268/268 329/329/329 281/281/281
f 328/328/328 329/329/329 330/330/330
f 328/328/328 330/330/330 331/331/331
f 268/268/268 332/332/332 329/329/329
f 330/330/330 329/329/329 332/332/332
f 333/333/333 331/331/331 330/330/330
f 333/333/333 334/334/334 331/331/331
f 335/335/335 334/334/334 333/333/333
f 335/335/335 333/333/333 336/336/336
f 337/337/337 333/333/333 330/330/330
f 332/332/332 337/337/337 330/330/330
f 268/268/268 338/338/338 332/332/332
f 269/269/269 338/338/338 268/268/268
f 333/333/333 339/339/339 336/336/336
f 339/339/339 333/333/333 337/337/337
f 340/340/340 337/337/337 332/332/332
f 338/338/338 340/340/340 332/332/332
f 341/341/341 339/339/339 337/337/337
f 339/339/339 341/341/341 336/336/336
f 340/340/340 341/341/341 337/337/337
f 336/336/336 341/341/341 342/342/342
f 341/341/341 340/340/340 342/342/342
f 343/343/343 336/336/336 342/342/342
f 344/344/344 343/343/343 342/342/342
f 345/345/345 342/342/342 340/340/340
f 345/345/345 344/344/344 342/342/342
f 345/345/345 340/340/340 338/338/338
f 346/346/346 344/344/344 345/345/345
f 346/346/346 347/347/347 344/344/344
f 348/348/348 347/347/347 346/346/346
f 349/349/349 345/345/345 338/338/338
f 349/349/349 346/346/346 345/345/345
f 350/350/350 349/349/349 338/338/338
f 350/350/350 338/338/338 269/269/269
f 351/351/351 346/346/346 349/349/349
f 351/351/351 348/348/348 346/346/346
f 350/350/350 351/351/351 349/349/349
f 352/352/352 348/348/348 351/351/351
f 352/352/352 351/351/351 350/350/350
f 350/350/350 269/269/269 353/353/353
f 352/352/352 350/350/350 353/353/353
f 353/353/353 269/269/269 263/263/263
f 243/243/243 353/353/353 263/263/263
f 353/353/353 243/243/243 354/354/354
f 354/354/354 352/352/352 353/353/353
f 243/243/243 355/355/355 354/354/354
f 352/352/352 354/354/354 355/355/355
f 244/244/244 355/355/355 243/243/243
f 244/244/244 356/356/356 355/355/355
f 355/355/355 356/356/356 352/352/352
f 244/244/244 357/357/357 356/356/356
f 358/358/358 348/348/348 352/352/352
f 357/357/357 348/348/348 358/358/358
f 356/356/356 358/358/358 352/352/352
f 357/357/357 358/358/358 356/356/356
f 359/359/359 360/360/360 41/41/41
f 41/41/41 360/360/360 361/361/361
f 41/41/41 361/361/361 362/362/362
f 41/41/41 362/362/362 37/37/37
f 363/363/363 37/37/37 362/362/362
f 362/362/362 364/364/364 363/363/363
f 364/364/364 365/365/365 363/363/363
f 366/366/366 365/365/365 364/364/364
f 365/365/365 367/367/367 363/363/363
f 366/366/366 368/368/368 365/365/365
f 365/365/365 368/368/368 367/367/367
g submesh1
f 369/369/369 370/370/370 371/371/371
f 369/369/369 371/371/371 372/372/372
f 372/372/372 371/371/371 373/373/373
f 372/372/372 373/373/373 374/374/374
f 374/374/374 373/373/373 375/375/375
f 374/374/374 375/375/375 376/376/376
f 376/376/376 375/375/375 377/377/377
f 376/376/376 377/377/377 378/378/378
f 376/376/376 378/378/378 379/379/379
f 378/378/378 377/377/377 380/380/380
f 378/378/378 381/381/381 379/379/379
f 378/378/378 380/380/380 381/381/381
f 381/381/381 382/382/382 379/379/379
f 383/383/383 381/381/381 380/380/380
f 383/383/383 382/382/382 381/381/381
f 382/382/382 383/383/383 384/384/384
f 382/382/382 384/384/384 385/385/385
f 386/386/386 384/384/384 383/383/383
f 386/386/386 387/387/387 384/384/384
f 388/388/388 387/387/387 386/386/386
f 386/386/386 389/389/389 388/388/388
f 383/383/383 389/389/389 386/386/386
f 383/383/383 390/390/390 389/389/389
f 391/391/391 392/392/392 393/393/393
f 394/394/394 392/392/392 391/391/391
f 394/394/394 395/395/395 392/392/392
f 396/396/396 392/392/392 395/395/395
f 397/397/397 395/395/395 394/394/394
f 397/397/397 394/394/394 398/398/398
f 399/399/399 395/395/395 397/397/397
f 396/396/396 395/395/395 400/400/400
f 399/399/399 400/400/400 395/395/395
f 396/396/396 400/400/400 401/401/401
f 400/400/400 399/399/399 402/402/402
f 400/400/400 403/403/403 401/401/401
f 400/400/400 402/402/402 404/404/404
f 403/403/403 400/400/400 404/404/404
f 405/405/405 406/406/406 407/407/407
f 408/408/408 406/406/406 405/405/405
f 408/408/408 409/409/409 406/406/406
f 409/409/409 408/408/408 410/410/410
f 409/409/409 410/410/410 411/411/411
f 408/408/408 412/412/412 410/410/410
f 408/408/408 413/413/413 412/412/412
f 413/413/413 414/414/414 412/412/412
f 405/405/405 415/415/415 408/408/408
f 408/408/408 415/415/415 413/413/413
f 414/414/414 413/413/413 416/416/416
f 416/416/416 413/413/413 415/415/415
f 416/416/416 415/415/415 405/405/405
f 416/416/416 405/405/405 417/417/417
f 418/418/418 414/414/414 416/416/416
f 416/416/416 419/419/419 418/418/418
f 420/420/420 418/418/418 419/419/419
f 421/421/421 420/420/420 419/419/419
f 422/422/422 423/423/423 424/424/424
f 422/422/422 425/425/425 423/423/423
f 426/426/426 425/425/425 422/422/422
f 426/426/426 422/422/422 427/427/427
f 428/428/428 429/429/429 430/430/430
f 430/430/430 429/429/429 431/431/431
f 431/431/431 429/429/429 432/432/432
f 431/431/431 432/432/432 433/433/433
f 432/432/432 429/429/429 434/434/434
f 432/432/432 434/434/434 435/435/435
f 430/430/430 431/431/431 436/436/436
f 430/430/430 436/436/436 437/437/437
f 437/437/437 436/436/436 438/438/438
f 430/430/430 437/437/437 439/439/439
f 439/439/439 437/437/437 438/438/438
f 430/430/430 439/439/439 440/440/440
f 440/440/440 439/439/439 441/441/441
f 441/441/441 439/439/439 438/438/438
f 440/440/440 441/441/441 442/442/442
f 442/442/442 441/441/441 443/443/443
f 443/443/443 441/441/441 438/438/438
f 442/442/442 443/443/443 444/444/444
f 444/444/444 443/443/443 445/445/445
f 445/445/445 443/443/443 438/438/438
f 445/445/445 438/438/438 446/446/446
