# jungle_ruins_beam_175_a_LOD0
v -0.404543281 0.156396836 0.143237442
v -0.0105371857 0.150166616 0.149822667
v -0.0105373766 0.149829954 -0.15016216
v -0.414075643 0.143317625 -0.156325698
v -1.11096799 0.139171138 0.160096854
v -1.11096799 0.160098076 -0.13917236
v -1.73946285 0.149821445 0.15016529
v -1.73946285 0.150166512 -0.149822667
v -0.414075643 0.143317625 -0.156325698
v -0.0105373766 0.149829954 -0.15016216
v -0.0105373003 -0.150162786 -0.149829149
v -0.414075643 -0.156396836 -0.143239871
v -1.11096799 0.160098076 -0.13917236
v -1.11096799 -0.139171138 -0.160099298
v -1.73946285 0.150166512 -0.149822667
v -1.73946285 -0.149821445 -0.150167733
v -0.414075643 -0.156396836 -0.143239871
v -0.0105373003 -0.150162786 -0.149829149
v -0.0105372621 -0.149825945 0.150163516
v -0.404543281 -0.143317625 0.156323254
v -1.11096799 -0.139171138 -0.160099298
v -1.11096799 -0.160098076 0.139169917
v -1.73946285 -0.149821445 -0.150167733
v -1.73946285 -0.150166512 0.149820223
v -0.404543281 -0.143317625 0.156323254
v -0.0105372621 -0.149825945 0.150163516
v -0.0105371857 0.150166616 0.149822667
v -0.404543281 0.156396836 0.143237442
v -1.11096799 -0.160098076 0.139169917
v -1.11096799 0.139171138 0.160096854
v -1.73946285 -0.150166512 0.149820223
v -1.73946285 0.149821445 0.15016529
v 0 -0.139460027 -0.139461249
v 0 0.139460027 -0.139461249
v 0 0.139460027 0.139458805
v 0 -0.139460027 0.139458805
v -1.75 0.139460027 -0.139461249
v -1.75 -0.139460027 -0.139461249
v -1.75 -0.139460027 0.139458805
v -1.75 0.139460027 0.139458805
v -0.0105371857 0.150166616 0.149822667
v 0 0.139460027 0.139458805
v 0 0.139460027 -0.139461249
v -0.0105373766 0.149829954 -0.15016216
v -0.0105373766 0.149829954 -0.15016216
v 0 0.139460027 -0.139461249
v 0 -0.139460027 -0.139461249
v -0.0105373003 -0.150162786 -0.149829149
v -0.0105373003 -0.150162786 -0.149829149
v 0 -0.139460027 -0.139461249
v 0 -0.139460027 0.139458805
v -0.0105372621 -0.149825945 0.150163516
v -0.0105372621 -0.149825945 0.150163516
v 0 -0.139460027 0.139458805
v 0 0.139460027 0.139458805
v -0.0105371857 0.150166616 0.149822667
v -1.73946285 0.150166512 -0.149822667
v -1.75 0.139460027 -0.139461249
v -1.75 0.139460027 0.139458805
v -1.73946285 0.149821445 0.15016529
v -1.73946285 -0.149821445 -0.150167733
v -1.75 -0.139460027 -0.139461249
v -1.75 0.139460027 -0.139461249
v -1.73946285 0.150166512 -0.149822667
v -1.73946285 -0.150166512 0.149820223
v -1.75 -0.139460027 0.139458805
v -1.75 -0.139460027 -0.139461249
v -1.73946285 -0.149821445 -0.150167733
v -1.73946285 0.149821445 0.15016529
v -1.75 0.139460027 0.139458805
v -1.75 -0.139460027 0.139458805
v -1.73946285 -0.150166512 0.149820223
vn 2.20136621E-06 0.999987721 -0.00495106867
vn 3.99712508E-06 0.99974972 -0.0223711208
vn 3.99712462E-06 0.99974972 -0.022371117
vn 2.13692147E-06 0.999990702 -0.00432600593
vn -4.55998816E-06 0.999704182 0.0243218206
vn -4.53564735E-06 0.999705493 0.024266094
vn -9.43204941E-06 0.999370635 0.0354749449
vn -9.4320485E-06 0.999370635 0.0354749486
vn -3.24596585E-05 -0.00459904037 -0.99998951
vn -0.00017407925 -0.0223700292 -0.99974972
vn -0.000174079265 -0.0223700348 -0.99974972
vn -3.3231132E-05 -0.00469584716 -0.999989033
vn 4.93710068E-05 0.0243155006 -0.999704301
vn 4.96709108E-05 0.0242585782 -0.999705732
vn -9.43204941E-06 0.0354749449 -0.999370635
vn -9.4320485E-06 0.0354749486 -0.999370635
vn 6.93359243E-06 -0.999991059 0.00423820456
vn 1.38261594E-05 -0.99974972 0.0223708358
vn 1.38261594E-05 -0.99974972 0.022370832
vn 7.24184838E-06 -0.999987245 0.00504905311
vn -4.56040834E-06 -0.999704063 -0.0243230872
vn -4.53598932E-06 -0.999705493 -0.0242671836
vn -9.43204941E-06 -0.999370635 -0.0354749449
vn -9.4320485E-06 -0.999370635 -0.0354749486
vn -3.51673625E-05 0.00460932776 0.99998939
vn -0.000177975089 0.022383118 0.999749482
vn -0.000177975104 0.0223831162 0.999749482
vn -3.58818397E-05 0.00469825184 0.999989033
vn 4.86475255E-05 -0.0243142452 0.999704301
vn 4.89314989E-05 -0.0242596641 0.999705613
vn -9.43204941E-06 -0.0354749449 0.999370635
vn -9.4320485E-06 -0.0354749486 0.999370635
vn 1 0 0
vn 1 0 0
vn 1 0 0
vn 1 0 0
vn -1 0 0
vn -1 0 0
vn -1 0 0
vn -1 0 0
vn 0.707142591 0.707070827 -0.000411434798
vn 0.707142532 0.707070827 -0.000411434798
vn 0.707142532 0.707070827 -0.000411434739
vn 0.707142532 0.707070827 -0.000411434798
vn 0.7070117 -0.000406705542 -0.707201779
vn 0.7070117 -0.000406705571 -0.707201779
vn 0.7070117 -0.000406705571 -0.707201779
vn 0.7070117 -0.000406705542 -0.707201779
vn 0.707011104 -0.707202315 0.000411435612
vn 0.707011104 -0.707202375 0.000411435642
vn 0.707011104 -0.707202315 0.000411435612
vn 0.707011104 -0.707202315 0.000411435583
vn 0.707011402 0.000416294264 0.707202137
vn 0.707011402 0.000416294264 0.707202077
vn 0.707011402 0.000416294264 0.707202137
vn 0.707011402 0.000416294264 0.707202137
vn -0.707004189 0.707209349 0.000421544362
vn -0.70700413 0.707209349 0.000421544362
vn -0.70700407 0.707209408 0.000421544362
vn -0.70700413 0.707209349 0.000421544362
vn -0.707004189 0.000421544362 -0.707209349
vn -0.70700413 0.000421544362 -0.707209349
vn -0.70700407 0.000421544362 -0.707209408
vn -0.70700413 0.000421544362 -0.707209349
vn -0.707004189 -0.707209349 -0.000421544362
vn -0.70700413 -0.707209349 -0.000421544362
vn -0.70700407 -0.707209408 -0.000421544362
vn -0.70700413 -0.707209349 -0.000421544362
vn -0.707004189 -0.000421544362 0.707209349
vn -0.70700413 -0.000421544362 0.707209349
vn -0.70700407 -0.000421544362 0.707209408
vn -0.70700413 -0.000421544362 0.707209349
vt 0.2842893 0.914885163
vt 0.135001123 0.914885163
vt 0.134909213 0.751045823
vt 0.2842893 0.751045823
vt 0.547053337 0.914885163
vt 0.547053337 0.751045823
vt 0.78241533 0.914885163
vt 0.78241533 0.751045823
vt 0.2842893 0.914885163
vt 0.134909213 0.914885163
vt 0.134909168 0.751045823
vt 0.2842893 0.751045823
vt 0.547053337 0.914885163
vt 0.547053337 0.751045823
vt 0.78241533 0.914885163
vt 0.78241533 0.751045823
vt 0.2842893 0.914885163
vt 0.134909168 0.914885163
vt 0.135001108 0.751045823
vt 0.2842893 0.751045823
vt 0.547053337 0.914885163
vt 0.547053337 0.751045823
vt 0.78241533 0.914885163
vt 0.78241533 0.751045823
vt 0.2842893 0.914885163
vt 0.135001108 0.914885163
vt 0.135001078 0.751045823
vt 0.284289271 0.751045823
vt 0.547053337 0.914885163
vt 0.547053337 0.751045823
vt 0.78241533 0.914885163
vt 0.78241533 0.751045823
vt 0.0317097642 0.0215118639
vt 0.0317113623 0.144492686
vt 0.154697224 0.144511983
vt 0.154695764 0.0215208065
vt 0.154697895 0.144502252
vt 0.154696316 0.0215163585
vt 0.0317103863 0.0215179622
vt 0.0317119732 0.144503877
vt 0.160126284 0.150077805
vt 0.154697224 0.144511983
vt 0.0317113623 0.144492686
vt 0.0261526015 0.149919212
vt 0.0261526015 0.149919212
vt 0.0317113623 0.144492686
vt 0.0317097642 0.0215118639
vt 0.026278289 0.0159506779
vt 0.026278289 0.0159506779
vt 0.0317097642 0.0215118639
vt 0.154695764 0.0215208065
vt 0.160255164 0.0160926338
vt 0.160255164 0.0160926338
vt 0.154695764 0.0215208065
vt 0.154697224 0.144511983
vt 0.160126284 0.150077805
vt 0.160127223 0.15006192
vt 0.154697895 0.144502252
vt 0.0317119732 0.144503877
vt 0.0261523146 0.149933174
vt 0.160255983 0.0160870422
vt 0.154696316 0.0215163585
vt 0.154697895 0.144502252
vt 0.160127223 0.15006192
vt 0.02628107 0.0159582794
vt 0.0317103863 0.0215179622
vt 0.154696316 0.0215163585
vt 0.160255983 0.0160870422
vt 0.0261523146 0.149933174
vt 0.0317119732 0.144503877
vt 0.0317103863 0.0215179622
vt 0.02628107 0.0159582794
g submesh0
f 1/1/1 2/2/2 3/3/3
f 1/1/1 3/3/3 4/4/4
f 5/5/5 1/1/1 4/4/4
f 5/5/5 4/4/4 6/6/6
f 7/7/7 5/5/5 6/6/6
f 7/7/7 6/6/6 8/8/8
f 9/9/9 10/10/10 11/11/11
f 9/9/9 11/11/11 12/12/12
f 13/13/13 9/9/9 12/12/12
f 13/13/13 12/12/12 14/14/14
f 15/15/15 13/13/13 14/14/14
f 15/15/15 14/14/14 16/16/16
f 17/17/17 18/18/18 19/19/19
f 17/17/17 19/19/19 20/20/20
f 21/21/21 17/17/17 20/20/20
f 21/21/21 20/20/20 22/22/22
f 23/23/23 21/21/21 22/22/22
f 23/23/23 22/22/22 24/24/24
f 25/25/25 26/26/26 27/27/27
f 25/25/25 27/27/27 28/28/28
f 29/29/29 25/25/25 28/28/28
f 29/29/29 28/28/28 30/30/30
f 31/31/31 29/29/29 30/30/30
f 31/31/31 30/30/30 32/32/32
f 33/33/33 34/34/34 35/35/35
f 33/33/33 35/35/35 36/36/36
f 37/37/37 38/38/38 39/39/39
f 37/37/37 39/39/39 40/40/40
f 41/41/41 42/42/42 43/43/43
f 41/41/41 43/43/43 44/44/44
f 45/45/45 46/46/46 47/47/47
f 45/45/45 47/47/47 48/48/48
f 49/49/49 50/50/50 51/51/51
f 49/49/49 51/51/51 52/52/52
f 53/53/53 54/54/54 55/55/55
f 53/53/53 55/55/55 56/56/56
g submesh1
f 57/57/57 58/58/58 59/59/59
f 57/57/57 59/59/59 60/60/60
f 61/61/61 62/62/62 63/63/63
f 61/61/61 63/63/63 64/64/64
f 65/65/65 66/66/66 67/67/67
f 65/65/65 67/67/67 68/68/68
f 69/69/69 70/70/70 71/71/71
f 69/69/69 71/71/71 72/72/72
