# jungle_ruins_stone_pile_a_LOD0
v 0.306912988 -0.0500703976 -0.32113418
v 0.347105622 -0.0201090053 -0.206544191
v 0.394859165 -0.05237066 -0.269677132
v 0.472096086 -0.0535018593 -0.21166274
v 0.415962249 -0.0322110057 -0.129051968
v 0.52862829 -0.054435581 -0.168828011
v 0.418379724 -0.021662835 -0.0242124926
v 0.503631413 -0.0496301651 -0.0103268428
v 0.447150022 -0.0473710559 0.0917424783
v 0.327389836 0.0274544992 -0.0936843455
v 0.234065011 0.0230641644 -0.20306778
v 0.288657099 0.0237734783 -0.157415241
v 0.235438108 0.0596548244 -0.067442283
v 0.191052094 -0.00544068078 -0.287285924
v 0.205646545 -0.0442183428 -0.352236927
v 0.103428267 -0.0385798737 -0.351900488
v 0.33908686 0.0319834426 -0.0155318063
v 0.157589644 0.0276244059 -0.225149229
v 0.391329348 -0.0220409632 0.0653609857
v 0.326410145 0.0300557707 0.063473016
v 0.302871138 -0.0290698875 0.21227251
v 0.243221849 -0.0462929383 0.384526134
v 0.297630101 0.0207072441 0.132943183
v 0.194843665 -0.0249519423 0.328916043
v 0.0749042481 -0.0459273979 0.432333887
v 0.244379789 0.0610603988 0.00309116347
v 0.238981694 0.0524016097 0.073531799
v 0.150443882 0.022512177 0.28586939
v 0.122734256 -0.0301492568 0.356409281
v 0.0876234025 0.018154297 0.309305668
v -0.00504219066 -0.0278279688 0.401357651
v 0.00351055129 -0.0459579378 0.426054001
v -0.0453704074 -0.0465356894 0.4428747
v -0.032941781 0.0149658751 0.361154854
v 0.108299866 0.0436420627 0.233937711
v -0.086158447 -0.000161907665 0.380687177
v 0.046254158 0.0498029403 0.259408683
v -0.114908978 -0.0345097147 0.432350278
v -0.106169507 -0.0472036153 0.467535347
v -0.231382668 -0.033129774 0.415658027
v -0.180304259 -0.0478612408 0.469347209
v -0.0700493976 0.0385075733 0.307531387
v -0.164597705 -0.00843893737 0.388198167
v -0.336453706 -0.0373494178 0.387617111
v -0.431193292 -0.0495513342 0.366308957
v -0.137977213 0.0196747202 0.33525002
v -0.220929712 -0.0144954249 0.37515074
v -0.158988953 0.0435607694 0.269418031
v -0.142716065 0.0875622407 0.122241512
v -0.0770019889 0.0946625322 0.0889145657
v -0.231624678 0.0427796356 0.233677253
v -0.418038487 -0.0423978418 0.347428441
v -0.466446519 -0.0533429049 0.334496945
v -0.299698412 0.0175221432 0.259858638
v -0.168295816 0.0972053334 0.0656911433
v -0.391081691 -0.0206505563 0.29417029
v -0.425770164 -0.0394712687 0.308934122
v -0.413923562 -0.0194326937 0.242361903
v -0.489506364 -0.0536130928 0.295382857
v -0.387379676 0.00475506531 0.201290339
v -0.283831477 0.0464429073 0.147525132
v -0.457380146 -0.0357981399 0.23446548
v -0.356934428 0.0238398835 0.157024145
v -0.480538547 -0.0472088084 0.205670372
v -0.509942472 -0.0523189642 0.225261077
v -0.455254644 -0.0463479757 0.145599738
v -0.380975395 -0.0401229523 0.0287741851
v -0.391747952 0.011075804 0.127809986
v -0.413213402 -0.0111553548 0.105293155
v -0.267097235 0.0652238578 0.0588681772
v -0.352127761 0.0252059922 0.068986468
v -0.29435873 0.0408014469 0.0151729584
v -0.308630735 -0.00786151644 -0.0126269525
v -0.26963973 -0.0343001373 -0.0948495865
v -0.222517461 0.0529558845 -0.0346221924
v -0.172352374 0.00363334408 -0.109729879
v -0.192989722 -0.0305103939 -0.132821038
v -0.19674468 0.0919254869 0.0100545501
v -0.145401686 0.0648817271 -0.0890154615
v -0.107941628 0.000797769986 -0.151226953
v -0.0525431037 0.0579122342 -0.145995215
v -0.134141073 -0.0290858075 -0.182604283
v -0.0968619138 0.103855446 0.0262839124
v -0.120077208 0.106914677 -0.036715012
v -0.0748001859 -0.016800642 -0.198892206
v -0.0388016887 0.0933786407 -0.074408032
v -0.0241904445 0.100643642 -0.00603946671
v -0.0713634491 -0.0364644527 -0.250660688
v -0.0812488943 -0.0348046683 -0.300769866
v 0.00777961733 -0.035584908 -0.320135415
v 0.0106222155 -0.0223858394 -0.26817748
v 0.0432664864 0.0810359344 -0.097372435
v 0.0992316008 -0.010472266 -0.2856462
v 0.0728039145 0.0292223636 -0.226837605
v 0.0444990918 0.0588241927 -0.164340705
v 0.0505911633 0.094993934 -0.0298676677
v 0.14589642 0.083635971 0.0226144399
v 0.0604981221 0.0939093605 0.040803872
v 0.153597683 0.0494675227 0.150638655
v 0.0227892306 0.0635532811 0.193839893
vn 0.243445635 0.891713619 -0.381550729
vn 0.317356288 0.90374285 -0.287287027
vn 0.222567752 0.926025748 -0.304860324
vn 0.194097236 0.966659665 -0.167019054
vn 0.311252534 0.940409184 -0.136939511
vn 0.185880974 0.977480292 -0.0999026075
vn 0.418012917 0.90801841 0.0277077518
vn 0.300258517 0.951120317 0.0722150505
vn 0.317578405 0.932694018 0.17095536
vn 0.40201968 0.897691548 -0.180361092
vn 0.213213518 0.918818474 -0.332133204
vn 0.302274793 0.904980361 -0.299400091
vn 0.212957218 0.965329468 -0.150957569
vn 0.106920615 0.884662688 -0.453805804
vn 0.125117987 0.863991022 -0.487714052
vn -0.0697056577 0.912917912 -0.402146846
vn 0.444806159 0.895586371 -0.00851726625
vn 0.0974867865 0.923116684 -0.371957004
vn 0.470694363 0.855267644 0.216712043
vn 0.449458301 0.868591309 0.208653644
vn 0.400963187 0.862725616 0.308112055
vn 0.166758925 0.95850426 0.23121649
vn 0.441245198 0.833475411 0.33259812
vn 0.234830484 0.900158525 0.366836786
vn 0.0771880522 0.947303474 0.3108989
vn 0.249629229 0.967865765 0.0303483736
vn 0.237098753 0.95181787 0.194491416
vn 0.239248827 0.869407713 0.432308018
vn 0.122318983 0.893517613 0.432046831
vn 0.186210975 0.842462003 0.505552471
vn 0.137367234 0.812194586 0.566983402
vn 0.0509334318 0.813390851 0.579483569
vn 0.124292567 0.853118658 0.506695092
vn 0.0774319023 0.833094776 0.547683716
vn 0.167941749 0.95833081 0.231079236
vn -0.00308551989 0.848215401 0.529642344
vn 0.135825962 0.946136475 0.293899536
vn 0.00619850121 0.891016722 0.453928232
vn 0.0462017432 0.947105408 0.317579627
vn -0.125438496 0.911491871 0.391724288
vn -0.0288843047 0.955469131 0.293673992
vn -0.0259473585 0.935382962 0.352683216
vn -0.108746424 0.874351978 0.472951144
vn -0.203542039 0.881693721 0.425660282
vn -0.225568607 0.946823061 0.229444951
vn -0.117418185 0.904905975 0.409094274
vn -0.170492843 0.911031365 0.37543866
vn -0.133161262 0.935075045 0.32848525
vn -0.0755795762 0.969495356 0.233166322
vn 0.0378141217 0.983808815 0.17518647
vn -0.211028457 0.934980512 0.285093695
vn -0.239401594 0.948286951 0.208419502
vn -0.258335799 0.950289369 0.173818335
vn -0.238590375 0.927525878 0.287698448
vn -0.164305702 0.980204642 0.1104647
vn -0.325994819 0.913139224 0.244753376
vn -0.29096517 0.936727643 0.194629222
vn -0.389631361 0.894799531 0.217993483
vn -0.314836085 0.941453874 0.120594256
vn -0.378507972 0.908402085 0.177587613
vn -0.275564432 0.944326282 0.179755718
vn -0.435098886 0.896959782 0.0784359872
vn -0.336282462 0.935109496 0.11173404
vn -0.362491846 0.931355774 -0.0342917703
vn -0.149179935 0.988229752 0.0338697731
vn -0.180911243 0.981538177 -0.0620802194
vn -0.609420598 0.62651968 -0.485880196
vn -0.500297546 0.864100277 -0.0550724715
vn -0.737030864 0.570023596 -0.363123536
vn -0.407885939 0.910937667 -0.0618190058
vn -0.501857817 0.819945216 -0.275369674
vn -0.526201785 0.73710227 -0.42401877
vn -0.568023443 0.613417447 -0.548696995
vn -0.41131258 0.771175802 -0.48591131
vn -0.506775439 0.66891104 -0.543816864
vn -0.449871957 0.587550104 -0.672606885
vn -0.373651385 0.691420853 -0.618321896
vn -0.360833496 0.913902104 -0.185962528
vn -0.400504827 0.677450776 -0.616973579
vn -0.437540174 0.644664586 -0.626869977
vn -0.269117564 0.785349905 -0.557495475
vn -0.307657212 0.855510116 -0.416472554
vn 0.00206042384 0.996571183 0.0827148855
vn -0.159590602 0.952407837 -0.259711623
vn -0.386892617 0.768697619 -0.509330988
vn 0.00503261713 0.950645089 -0.310239762
vn 0.094173789 0.995549083 0.00363522978
vn -0.0715562701 0.984696269 -0.158911645
vn 0.0462609082 0.998642147 0.0239521191
vn -0.0870292038 0.976171434 -0.198784545
vn -0.225758538 0.872254193 -0.433826804
vn 0.0659784675 0.959900737 -0.272465348
vn -0.126704544 0.8610605 -0.492464006
vn -0.0946726352 0.844506085 -0.527111471
vn -0.0133087654 0.926349998 -0.376428723
vn 0.0842128471 0.990611732 -0.107687548
vn 0.186852023 0.98087585 0.0544885769
vn 0.100079939 0.988336623 0.114780776
vn 0.121974826 0.978332341 0.167296216
vn 0.142821446 0.974019229 0.17575182
vt 0.47601366 0.568936586
vt 0.439580768 0.543571949
vt 0.440671772 0.574397683
vt 0.407629848 0.574884176
vt 0.404001206 0.539916337
vt 0.384386629 0.575520635
vt 0.380449533 0.512457371
vt 0.353361577 0.53127569
vt 0.340539515 0.493153781
vt 0.420394242 0.507565856
vt 0.466265142 0.515707493
vt 0.443337917 0.515744209
vt 0.434283316 0.481857598
vt 0.497840852 0.528167725
vt 0.510486782 0.553875625
vt 0.537948608 0.531200767
vt 0.400995553 0.490250021
vt 0.488713175 0.504930735
vt 0.365553319 0.484285206
vt 0.386356711 0.468583912
vt 0.351430178 0.427286774
vt 0.327261865 0.368437886
vt 0.375871539 0.445813477
vt 0.35576719 0.372797251
vt 0.358533502 0.316800416
vt 0.417952836 0.46709469
vt 0.403785914 0.449710429
vt 0.37874791 0.377295673
vt 0.366011083 0.348458171
vt 0.388280272 0.356143564
vt 0.390267223 0.309723675
vt 0.376554787 0.300365746
vt 0.38715291 0.285565913
vt 0.408711672 0.317462295
vt 0.399256468 0.38433665
vt 0.417432964 0.300033271
vt 0.409708977 0.364650428
vt 0.412386358 0.278399795
vt 0.400405288 0.267645061
vt 0.446495593 0.258739024
vt 0.419844687 0.252074897
vt 0.429615617 0.324342012
vt 0.435656965 0.281382084
vt 0.479848087 0.243541479
vt 0.508706987 0.225951433
vt 0.440693438 0.301566482
vt 0.452550054 0.272135317
vt 0.46027106 0.31439203
vt 0.487399608 0.355079234
vt 0.47724402 0.377990723
vt 0.48555395 0.30842033
vt 0.509190202 0.236449093
vt 0.524736047 0.226410151
vt 0.496856242 0.286981523
vt 0.505444825 0.363694966
vt 0.513421655 0.257143676
vt 0.519195855 0.245218784
vt 0.530207634 0.265073836
vt 0.539423108 0.231455028
vt 0.531345546 0.282714903
vt 0.515993357 0.319396198
vt 0.543114424 0.256957501
vt 0.53220427 0.30135411
vt 0.555265546 0.258983612
vt 0.560031176 0.245214373
vt 0.571650028 0.275216013
vt 0.583830476 0.321657211
vt 0.547815144 0.30026868
vt 0.560237765 0.299224794
vt 0.530280352 0.345214009
vt 0.550233006 0.323541045
vt 0.548063993 0.349023402
vt 0.567240238 0.350746274
vt 0.586750805 0.380005002
vt 0.543498158 0.375999451
vt 0.558308005 0.406570017
vt 0.579166532 0.409734249
vt 0.523827791 0.371107876
vt 0.536050677 0.405402333
vt 0.552029192 0.431742758
vt 0.524681091 0.440164834
vt 0.572559714 0.438431829
vt 0.495356202 0.388681173
vt 0.514153242 0.398317516
vt 0.554102242 0.452146202
vt 0.501594424 0.425902486
vt 0.482778341 0.413428664
vt 0.563277364 0.46792388
vt 0.576317906 0.480394542
vt 0.557312846 0.503245831
vt 0.543818235 0.487839878
vt 0.484235018 0.45036751
vt 0.522485197 0.509491742
vt 0.511233151 0.487525791
vt 0.500192523 0.466302842
vt 0.467285812 0.436576933
vt 0.434124231 0.444891065
vt 0.450473785 0.422784716
vt 0.40505904 0.414596736
vt 0.429016739 0.37536788
g submesh0
f 1/1/1 2/2/2 3/3/3
f 2/2/2 4/4/4 3/3/3
f 4/4/4 2/2/2 5/5/5
f 6/6/6 4/4/4 5/5/5
f 7/7/7 6/6/6 5/5/5
f 6/6/6 7/7/7 8/8/8
f 7/7/7 9/9/9 8/8/8
f 2/2/2 10/10/10 5/5/5
f 10/10/10 7/7/7 5/5/5
f 11/11/11 2/2/2 1/1/1
f 10/10/10 2/2/2 12/12/12
f 2/2/2 11/11/11 12/12/12
f 13/13/13 10/10/10 12/12/12
f 11/11/11 13/13/13 12/12/12
f 14/14/14 11/11/11 1/1/1
f 1/1/1 15/15/15 14/14/14
f 16/16/16 14/14/14 15/15/15
f 7/7/7 10/10/10 17/17/17
f 13/13/13 17/17/17 10/10/10
f 13/13/13 11/11/11 18/18/18
f 11/11/11 14/14/14 18/18/18
f 9/9/9 7/7/7 19/19/19
f 20/20/20 7/7/7 17/17/17
f 7/7/7 20/20/20 19/19/19
f 21/21/21 9/9/9 19/19/19
f 9/9/9 21/21/21 22/22/22
f 23/23/23 21/21/21 19/19/19
f 19/19/19 20/20/20 23/23/23
f 24/24/24 22/22/22 21/21/21
f 23/23/23 24/24/24 21/21/21
f 24/24/24 25/25/25 22/22/22
f 26/26/26 20/20/20 17/17/17
f 17/17/17 13/13/13 26/26/26
f 20/20/20 27/27/27 23/23/23
f 20/20/20 26/26/26 27/27/27
f 24/24/24 23/23/23 28/28/28
f 27/27/27 28/28/28 23/23/23
f 25/25/25 24/24/24 29/29/29
f 30/30/30 24/24/24 28/28/28
f 24/24/24 30/30/30 29/29/29
f 31/31/31 25/25/25 29/29/29
f 25/25/25 31/31/31 32/32/32
f 33/33/33 32/32/32 31/31/31
f 29/29/29 34/34/34 31/31/31
f 34/34/34 29/29/29 30/30/30
f 35/35/35 30/30/30 28/28/28
f 28/28/28 27/27/27 35/35/35
f 31/31/31 36/36/36 33/33/33
f 36/36/36 31/31/31 34/34/34
f 37/37/37 34/34/34 30/30/30
f 30/30/30 35/35/35 37/37/37
f 36/36/36 38/38/38 33/33/33
f 33/33/33 38/38/38 39/39/39
f 40/40/40 39/39/39 38/38/38
f 39/39/39 40/40/40 41/41/41
f 34/34/34 37/37/37 42/42/42
f 42/42/42 36/36/36 34/34/34
f 36/36/36 43/43/43 38/38/38
f 38/38/38 43/43/43 40/40/40
f 44/44/44 41/41/41 40/40/40
f 41/41/41 44/44/44 45/45/45
f 43/43/43 36/36/36 46/46/46
f 36/36/36 42/42/42 46/46/46
f 47/47/47 40/40/40 43/43/43
f 46/46/46 47/47/47 43/43/43
f 47/47/47 44/44/44 40/40/40
f 46/46/46 42/42/42 48/48/48
f 48/48/48 47/47/47 46/46/46
f 48/48/48 42/42/42 49/49/49
f 42/42/42 37/37/37 49/49/49
f 49/49/49 37/37/37 50/50/50
f 47/47/47 48/48/48 51/51/51
f 48/48/48 49/49/49 51/51/51
f 45/45/45 44/44/44 52/52/52
f 53/53/53 45/45/45 52/52/52
f 47/47/47 54/54/54 44/44/44
f 54/54/54 47/47/47 51/51/51
f 55/55/55 51/51/51 49/49/49
f 50/50/50 55/55/55 49/49/49
f 44/44/44 56/56/56 52/52/52
f 56/56/56 44/44/44 54/54/54
f 57/57/57 53/53/53 52/52/52
f 56/56/56 57/57/57 52/52/52
f 53/53/53 57/57/57 58/58/58
f 56/56/56 58/58/58 57/57/57
f 53/53/53 58/58/58 59/59/59
f 60/60/60 58/58/58 56/56/56
f 60/60/60 56/56/56 54/54/54
f 61/61/61 54/54/54 51/51/51
f 51/51/51 55/55/55 61/61/61
f 59/59/59 58/58/58 62/62/62
f 62/62/62 58/58/58 60/60/60
f 54/54/54 61/61/61 63/63/63
f 60/60/60 54/54/54 63/63/63
f 64/64/64 59/59/59 62/62/62
f 59/59/59 64/64/64 65/65/65
f 64/64/64 66/66/66 65/65/65
f 64/64/64 67/67/67 66/66/66
f 60/60/60 68/68/68 62/62/62
f 68/68/68 64/64/64 62/62/62
f 68/68/68 60/60/60 63/63/63
f 67/67/67 64/64/64 69/69/69
f 64/64/64 68/68/68 69/69/69
f 55/55/55 70/70/70 61/61/61
f 61/61/61 70/70/70 63/63/63
f 68/68/68 63/63/63 71/71/71
f 71/71/71 69/69/69 68/68/68
f 63/63/63 72/72/72 71/71/71
f 72/72/72 69/69/69 71/71/71
f 72/72/72 63/63/63 70/70/70
f 73/73/73 67/67/67 69/69/69
f 69/69/69 72/72/72 73/73/73
f 67/67/67 73/73/73 74/74/74
f 70/70/70 75/75/75 72/72/72
f 73/73/73 72/72/72 75/75/75
f 76/76/76 74/74/74 73/73/73
f 75/75/75 76/76/76 73/73/73
f 74/74/74 76/76/76 77/77/77
f 70/70/70 55/55/55 78/78/78
f 75/75/75 70/70/70 78/78/78
f 76/76/76 75/75/75 79/79/79
f 78/78/78 79/79/79 75/75/75
f 80/80/80 77/77/77 76/76/76
f 79/79/79 80/80/80 76/76/76
f 80/80/80 79/79/79 81/81/81
f 77/77/77 80/80/80 82/82/82
f 83/83/83 78/78/78 55/55/55
f 55/55/55 50/50/50 83/83/83
f 79/79/79 78/78/78 84/84/84
f 78/78/78 83/83/83 84/84/84
f 85/85/85 82/82/82 80/80/80
f 81/81/81 85/85/85 80/80/80
f 86/86/86 79/79/79 84/84/84
f 79/79/79 86/86/86 81/81/81
f 87/87/87 84/84/84 83/83/83
f 84/84/84 87/87/87 86/86/86
f 50/50/50 87/87/87 83/83/83
f 85/85/85 88/88/88 82/82/82
f 88/88/88 89/89/89 82/82/82
f 88/88/88 90/90/90 89/89/89
f 85/85/85 91/91/91 88/88/88
f 90/90/90 88/88/88 91/91/91
f 85/85/85 81/81/81 91/91/91
f 91/91/91 16/16/16 90/90/90
f 87/87/87 92/92/92 86/86/86
f 92/92/92 81/81/81 86/86/86
f 16/16/16 91/91/91 93/93/93
f 14/14/14 16/16/16 93/93/93
f 91/91/91 94/94/94 93/93/93
f 94/94/94 14/14/14 93/93/93
f 81/81/81 94/94/94 91/91/91
f 14/14/14 94/94/94 18/18/18
f 94/94/94 81/81/81 95/95/95
f 18/18/18 94/94/94 95/95/95
f 81/81/81 92/92/92 95/95/95
f 92/92/92 18/18/18 95/95/95
f 18/18/18 92/92/92 13/13/13
f 92/92/92 87/87/87 96/96/96
f 96/96/96 13/13/13 92/92/92
f 96/96/96 26/26/26 13/13/13
f 50/50/50 96/96/96 87/87/87
f 26/26/26 96/96/96 97/97/97
f 97/97/97 27/27/27 26/26/26
f 96/96/96 50/50/50 98/98/98
f 96/96/96 98/98/98 97/97/97
f 99/99/99 27/27/27 97/97/97
f 98/98/98 99/99/99 97/97/97
f 27/27/27 99/99/99 35/35/35
f 100/100/100 98/98/98 50/50/50
f 98/98/98 100/100/100 99/99/99
f 100/100/100 35/35/35 99/99/99
f 50/50/50 37/37/37 100/100/100
f 35/35/35 100/100/100 37/37/37
