# jungle_ruins_beam_125_b_LOD0
v -1.24942625 -0.149999991 -0.149999991
v -1.23076534 -0.149999991 -0.0268725976
v -1.24942625 -0.149999991 -0.0329389535
v -1.20814478 0.149999991 -0.0101318415
v -1.23172605 0.149999991 -0.0693505853
v -1.22898424 0.149999991 -0.0331054665
v -1.24499893 -0.103994757 0.150000006
v -1.22939873 -0.00574950362 0.149999991
v -1.24942625 -0.0278497636 0.149999991
v -1.26923823 0.149999991 -0.115339331
v -1.24942625 0.149999991 -0.0863118172
v -1.23172605 0.149999991 -0.0693505853
v -1.27652597 0.149999991 -0.149999991
v -0.0101517867 0.149999991 -0.149999991
v -1.20814478 0.149999991 -0.0101318415
v -0.0101517867 0.149999991 0.149999991
v -1.22201943 0.149999991 0.00221192953
v -1.23289669 0.149999991 0.0374755859
v -1.19750988 0.149999991 0.149999991
v -1.19750988 0.149999991 0.149999991
v -1.2223947 0.0152075263 0.149999991
v -0.0101517867 0.149999991 0.149999991
v -1.22939873 -0.00574950362 0.149999991
v -1.24499893 -0.103994757 0.150000006
v -0.0101517867 -0.149999991 0.149999991
v -1.27772367 -0.149999991 0.149999991
v -1.27606416 -0.149999991 0.0659588575
v -1.26737916 -0.149999991 0.0304077193
v -1.2461766 -0.149999991 0.00646497589
v -1.27083528 -0.149999991 0.0983538628
v -1.25882554 -0.149999991 -0.0827606171
v -1.2709707 -0.149999991 -0.106355585
v -1.24942625 -0.149999991 -0.149999991
v -1.24942625 -0.149999991 -0.0329389535
v -1.24942625 0.105060488 -0.149999991
v -1.27652597 0.149999991 -0.149999991
v -0.0101517867 0.149999991 -0.149999991
v -1.25657463 0.0042334008 -0.149999991
v -1.24942625 -0.0301035251 -0.149999991
v -1.23275542 -0.0680248961 -0.149999991
v -0.0101517867 -0.149999991 -0.149999991
v -1.23624873 -0.112316929 -0.149999991
v -1.24942625 -0.149999991 -0.149999991
v -1.27083528 -0.149999991 0.0983538628
v -0.0101517867 -0.149999991 0.149999991
v -1.27772367 -0.149999991 0.149999991
v -1.2461766 -0.149999991 0.00646497589
v -1.23076534 -0.149999991 -0.0268725976
v -0.0101517867 -0.149999991 -0.149999991
v -1.24942625 -0.149999991 -0.149999991
v -1.27277339 0.0488818362 -0.149999991
v -1.24942625 0.105060488 -0.149999991
v -1.25657463 0.0042334008 -0.149999991
v -1.27086747 0.0135473628 -0.149999991
v -1.2223947 0.0152075263 0.149999991
v -1.19750988 0.149999991 0.149999991
v -1.23944855 0.0443410352 0.149999991
v -1.24942625 0.100077592 0.149999991
v -1.27041841 0.113056637 0.150000006
v -1.27888954 0.149999991 0.149999991
v -1.25832248 0.149999902 0.0819939151
v -1.23289669 0.149999991 0.0374755859
v -1.24942625 0.149999991 0.0492125116
v -1.19750988 0.149999991 0.149999991
v -1.27888954 0.149999991 0.149999991
v -0.0101517867 -0.149999991 0.149999991
v 0 0.139848217 0.139848217
v -0.0101517867 0.149999991 0.149999991
v 0 -0.139848217 0.139848217
v -0.0101517867 -0.149999991 -0.149999991
v 0 -0.139848217 -0.139848217
v -0.0101517867 0.149999991 -0.149999991
v 0 0.139848217 -0.139848217
v -1.25832248 0.149999902 0.0819939151
v -1.27041841 0.113056637 0.150000006
v -1.27888954 0.149999991 0.149999991
v -1.37291121 -0.155271515 -0.0982789397
v -1.32882774 -0.153918564 -0.156405985
v -1.3324573 -0.154051274 -0.0186551716
v -1.30448699 0.00762818335 0.156906173
v -1.16366363 0.0294541549 0.156448036
v -1.16033959 0.151888564 0.151465148
v -1.16033959 0.151888564 0.151465148
v -1.38113737 0.099663496 0.156906188
v -1.41553414 0.170554385 0.170271248
v -1.24334574 0.0651107952 -0.108109623
v -1.24942625 0.105060488 -0.149999991
v -1.27277339 0.0488818362 -0.149999991
v -1.24446523 0.008689031 -0.111109339
v -1.27086747 0.0135473628 -0.149999991
v -1.25657463 0.0042334008 -0.149999991
v -1.23944855 0.0443410352 0.149999991
v -1.22938323 0.00555046648 0.114429884
v -1.2223947 0.0152075263 0.149999991
v -1.26282692 0.0412757285 0.0720281079
v -1.26631892 -0.0417165831 0.0973768234
v -1.25274992 0.0201346893 0.0350751393
v -1.21665633 -0.0120811295 0.0109529616
v -1.24636078 0.0617972352 0.00534512522
v -1.25709343 0.0871459618 0.0972611755
v -1.25832248 0.149999902 0.0819939151
v -1.24942625 0.100077592 0.149999991
v -1.27041841 0.113056637 0.150000006
v -1.23624957 0.0433768407 -0.0330462866
v -1.20399499 -0.0765789598 -0.0488650985
v -1.22393632 -0.0303876586 -0.0790280998
v -1.23366868 0.0812518299 -0.0330673084
v -1.2471869 0.103531495 0.0181346741
v -1.22260892 0.114997029 -0.0112797758
v -1.24942625 0.149999991 0.0492125116
v -1.22201943 0.149999991 0.00221192953
v -1.23289669 0.149999991 0.0374755859
v -1.20814478 0.149999991 -0.0101318415
v -1.22898424 0.149999991 -0.0331054665
v -1.24635446 0.091943197 -0.0686408803
v -1.23172605 0.149999991 -0.0693505853
v -1.24942625 0.149999991 -0.0863118172
v -1.24446523 0.008689031 -0.111109339
v -1.25657463 0.0042334008 -0.149999991
v -1.24942625 -0.0301035251 -0.149999991
v -1.24334574 0.0651107952 -0.108109623
v -1.26923823 0.149999991 -0.115339331
v -1.27652597 0.149999991 -0.149999991
v -1.24942625 0.105060488 -0.149999991
v -1.20399499 -0.0765789598 -0.0488650985
v -1.22393632 -0.0303876586 -0.0790280998
v -1.25066483 -0.069135882 -0.0683144331
v -1.25895035 -0.0780333728 -0.108511463
v -1.24942625 -0.0301035251 -0.149999991
v -1.23275542 -0.0680248961 -0.149999991
v -1.27606416 -0.149999991 0.0659588575
v -1.27928877 -0.126673579 0.0439990126
v -1.26737916 -0.149999991 0.0304077193
v -1.27828324 -0.0665750131 0.0242469758
v -1.2461766 -0.149999991 0.00646497589
v -1.24792731 -0.0556949973 0.0131422849
v -1.23624873 -0.112316929 -0.149999991
v -1.25895035 -0.0780333728 -0.108511463
v -1.23275542 -0.0680248961 -0.149999991
v -1.24942625 -0.149999991 -0.149999991
v -1.2709707 -0.149999991 -0.106355585
v -1.25882554 -0.149999991 -0.0827606171
v -1.25895035 -0.0780333728 -0.108511463
v -1.2709707 -0.149999991 -0.106355585
v -1.25066483 -0.069135882 -0.0683144331
v -1.24942625 -0.149999991 -0.0329389535
v -1.24643683 -0.106129102 -0.032963302
v -1.20399499 -0.0765789598 -0.0488650985
v -1.23076534 -0.149999991 -0.0268725976
v -1.27928877 -0.126673579 0.0439990126
v -1.27606416 -0.149999991 0.0659588575
v -1.27083528 -0.149999991 0.0983538628
v -1.26631892 -0.0417165831 0.0973768234
v -1.27828324 -0.0665750131 0.0242469758
v -1.24391568 -0.118047386 0.110663526
v -1.27828324 -0.0665750131 0.0242469758
v -1.26631892 -0.0417165831 0.0973768234
v -1.24792731 -0.0556949973 0.0131422849
v -1.21665633 -0.0120811295 0.0109529616
v -1.20399499 -0.0765789598 -0.0488650985
v -1.23076534 -0.149999991 -0.0268725976
v -1.2461766 -0.149999991 0.00646497589
v -1.28404319 0.0919194743 0.0228285212
v -1.25832248 0.149999902 0.0819939151
v -1.24942625 0.149999991 0.0492125116
v -1.26282692 0.0412757285 0.0720281079
v -1.25274992 0.0201346893 0.0350751393
v -1.28404319 0.0919194743 0.0228285212
v -1.24636078 0.0617972352 0.00534512522
v -1.25274992 0.0201346893 0.0350751393
v -1.2471869 0.103531495 0.0181346741
v -1.24942625 0.149999991 0.0492125116
v -1.22938323 0.00555046648 0.114429884
v -1.22939873 -0.00574950362 0.149999991
v -1.2223947 0.0152075263 0.149999991
v -1.24942625 -0.0278497636 0.149999991
v -1.26631892 -0.0417165831 0.0973768234
v -1.24391568 -0.118047386 0.110663526
v -1.24499893 -0.103994757 0.150000006
v -1.27772367 -0.149999991 0.149999991
v -1.27083528 -0.149999991 0.0983538628
v -1.14540195 0.135840744 -0.0159855839
v -1.14701641 0.0870637968 -0.12945053
v -1.32379854 0.0848321319 -0.134641841
v -1.3246057 0.138391241 -0.0100526614
v -1.1476723 0.0470765531 0.144260168
v -1.3794241 0.118892036 0.0826230794
v -1.40741622 0.0444182903 0.125226393
v -1.12309349 0.119154476 0.107314982
v -1.3500278 0.112093888 -0.0346015021
v -1.09728181 0.109840311 -0.00396762369
v -1.37698972 0.0609796233 0.131775096
v -1.22099829 0.0489336587 0.116688646
v -1.16172862 -0.0792251006 -0.0265357867
v -1.32467008 -0.0715156272 -0.016880393
v -1.32570553 -0.0542057566 -0.0145565718
v -1.23114145 0.0090356702 -0.132352337
v -1.32533324 0.0278923847 -0.133821845
v -1.2309289 -0.0742171928 -0.0157731734
v -1.14548635 0.0101169683 -0.129837021
v -1.14474201 -0.0741859749 -0.0157005303
v -1.14384389 -0.0685876384 0.122013949
v -1.23067248 -0.0673518628 0.124888591
v -1.32615447 -0.0459471531 0.129346222
v -1.2424531 0.012214005 0.072599031
v -1.13453138 -4.09436216E-05 0.0690694824
v -1.13343441 0.0400562473 -0.0199905839
v -1.24084425 0.0530957356 -0.0185635183
v -1.33473992 0.00334665761 0.0756172538
v -1.33269358 0.0448992625 -0.0173431896
v -1.330688 -0.00217656256 -0.131205365
v -1.23926759 0.00536242593 -0.130663723
v -1.13235927 -0.00844592787 -0.130030289
v -1.16830909 -0.117895953 0.0674544498
v -1.32579589 -0.105690591 -0.0275043864
v -1.38045931 -0.0928274691 0.0677110627
v -1.14130747 -0.131170675 -0.0427210815
v -1.37854195 -0.116535924 -0.133823261
v -1.11854136 -0.142363027 -0.13561371
v -1.14628744 0.0988954082 -0.0456429273
v -1.32091141 -0.0197731163 -0.0251472089
v -1.32261288 0.091683194 -0.0651912838
v -1.14537537 -0.00923140068 -0.00654446566
v -1.31904411 -0.109824158 0.0685677156
v -1.14437449 -0.0956284478 0.0861326903
v -1.18608391 0.1282368 0.0934458897
v -1.18753052 -0.0112581914 0.0151377767
v -1.34592319 -0.0162080284 0.0140739437
v -1.34664643 0.133893743 0.0946616754
v -1.16774881 -0.117478862 -0.0689850375
v -1.32640743 -0.0590930022 -0.0841932446
v -1.32442749 -0.112432748 -0.0337700248
v -1.17023218 -0.0675335228 -0.116213508
v -1.17360902 0.028363632 -0.134473413
v -1.32910001 0.0414198898 -0.10679739
v -1.21501076 0.151832104 -0.151425242
v -1.12314069 0.151156798 -0.0740725175
v -1.12486827 0.14959088 -0.149258584
v -1.41508889 0.157411978 -0.119830951
v -1.43009531 0.157179758 -0.156594977
v -1.28557229 0.154414132 -0.0458527468
v -1.28526163 -0.107559852 0.156906158
v -1.34906662 -0.156663448 0.156045154
v -1.13257217 -0.150694847 0.149975017
v -1.19300103 -0.0900944769 0.152628019
v -1.11642051 -0.0758430213 0.153303966
v -1.20884871 -0.0742017999 0.153323784
v -1.28682029 -0.0729349405 0.156906173
v -1.39924097 -0.156827167 0.0497571416
v -1.3198806 -0.156827167 -0.0186551716
v -1.37900424 -0.156827167 0.101788692
v -1.11640358 -0.150032729 0.0667804927
v -1.10482049 -0.154757306 -0.0151123572
v -1.12220967 -0.150694847 0.149975032
v -1.39318824 -0.156663448 0.156045154
v -1.35105073 -0.0667266101 -0.157332942
v -1.14719474 -0.14929308 -0.152404204
v -1.35505617 -0.156694472 -0.156405985
v -1.19015503 -0.0424139164 -0.151420727
v -1.42236841 0.0509874187 -0.157332927
v -1.38165283 -0.0131224347 -0.157332927
v -1.41844368 0.0143422978 -0.157332927
v -1.37429285 0.109249912 -0.157332897
v -1.25277865 0.0838591903 -0.151989788
v -1.22781205 0.0183992945 -0.155334026
v -1.21501076 0.151832104 -0.151425242
v -1.43009531 0.157179758 -0.156594977
v -1.12486827 0.14959088 -0.149258584
v -1.18075609 0.0682662651 -0.152646318
v -1.17702258 0.0130134476 -0.154947996
v -1.1046505 0.151888564 0.151465148
v -1.30855894 0.157411933 0.042494677
v -1.35984504 0.170554385 0.170271248
v -1.21039355 0.154421374 0.0317509137
v -1.13850117 0.152808174 0.0162883792
v -1.32882774 -0.153918564 -0.156405985
v -1.07940304 -0.150933668 -0.152404189
v -1.3324573 -0.154051274 -0.0186551716
v -1.09313357 -0.152318045 -0.0591369122
v -1.09455955 -0.151981428 0.0100104762
v -1.12761354 0.15380916 0.0162883773
v -1.14380741 0.158449933 -0.0639767349
v -1.20361114 0.155422345 0.0317509137
v -1.29188478 0.155951992 -0.0515151694
v -1.27353227 0.158412904 0.042494677
v -1.28570235 0.0145791871 0.156906173
v -1.13197899 -0.0758430213 0.153303966
v -1.14129865 0.0225031469 0.156448036
v -1.2244072 -0.0742017999 0.153323784
v -1.30237877 -0.0729349405 0.156906173
v -1.33415985 0.0116292713 -0.157332957
v -1.18634462 0.0267578308 -0.156018943
v -1.26812398 -0.0932231918 -0.157332942
v -1.13217282 -0.0636108071 -0.151420727
v -1.15157259 0.0366810374 -0.15357016
vn 0 -1 0
vn 0 -1 0
vn 0 -1 0
vn 0 1 0
vn 0 1 0
vn 0 1 0
vn 0 0 1
vn 0 0 1
vn 0 0 1
vn 0 1 0
vn 0 1 0
vn 0 1 0
vn 0 1 0
vn 0 1 0
vn 0 1 0
vn 0 1 0
vn 0 1 0
vn 0 1 0
vn -4.51880283E-07 1 -2.13879034E-07
vn 0 0 1
vn 0 0 1
vn 0 0 1
vn 0 0 1
vn 0 0 1
vn 0 0 1
vn 0 0 1
vn 0 -1 0
vn 0 -1 0
vn 0 -1 0
vn 0 -1 0
vn 0 -1 0
vn 0 -1 0
vn 0 -1 0
vn 0 -1 0
vn 0 0 -1
vn 0 0 -1
vn 0 0 -1
vn 0 0 -1
vn 0 0 -1
vn 0 0 -1
vn 0 0 -1
vn 0 0 -1
vn 0 0 -1
vn 0 -1 0
vn 0 -1 0
vn 0 -1 0
vn 0 -1 0
vn 0 -1 0
vn 0 -1 0
vn 0 -1 0
vn 0 0 -1
vn 0 0 -1
vn 0 0 -1
vn 0 0 -1
vn 0 0 1
vn 0 0 1
vn 0 0 1
vn 0 0 1
vn 0 0 1
vn 0 0 1
vn -1.03651951E-06 1 2.51515075E-07
vn 0 1 0
vn 1.43402156E-06 1 3.60358854E-06
vn -4.51880283E-07 1 -2.13879034E-07
vn 0 1 -1.40233681E-06
vn 0.816496551 -0.408248276 0.408248276
vn 0.997761846 0.0472831354 0.0472831354
vn 0.816496551 0.408248276 0.408248276
vn 0.997761846 -0.0472831354 0.0472831354
vn 0.816496551 -0.408248276 -0.408248276
vn 0.997761846 -0.0472831354 -0.0472831354
vn 0.816496551 0.408248276 -0.408248276
vn 0.997761846 0.0472831354 -0.0472831354
vn -0.937286973 -0.150136635 -0.314566374
vn -0.465422571 -0.707374454 -0.531980455
vn -0.827999592 -0.338779062 -0.446816981
vn -0.054184489 -0.998528361 -0.00224479893
vn 0.0365555808 -0.991626501 -0.123857126
vn 0.0346011147 -0.999371588 0.00770193571
vn 0.0249386635 0.00939496513 0.999644876
vn 0.00713553 -0.0173700135 0.999823749
vn -0.00923137926 0.0481501669 0.998797417
vn 0.069978714 0.963286817 0.259193808
vn 0.0459328815 -0.0707049817 0.996439159
vn 0.108334504 0.894919455 0.432877392
vn -0.963115871 0.0198289901 0.268355697
vn -0.634564936 0.470557719 0.613109171
vn -0.452537864 0.257411897 0.853784859
vn -0.623897731 -0.0685978234 0.77848953
vn -0.633747637 -0.227827415 0.739228368
vn -0.328743279 -0.900144994 0.285773993
vn -0.759441614 -0.492015362 0.425639898
vn -0.675002575 -0.369603723 0.638564467
vn -0.633330882 -0.661508381 0.401620209
vn -0.902408421 -0.0777942836 0.423800945
vn -0.97854507 -0.0736005008 0.192438021
vn -0.615015209 -0.398067564 -0.680660307
vn -0.831071854 -0.519630551 -0.198251516
vn -0.863995194 -0.103215665 -0.49280709
vn -0.966667235 0.0621329583 0.248382509
vn -0.937286973 -0.150136635 -0.314566374
vn -0.699444532 -0.63072747 0.33609575
vn -0.465422571 -0.707374454 -0.531980455
vn -0.960433185 -0.274002701 0.0499050133
vn -0.868545234 -0.445380032 0.21740678
vn -0.826509953 -0.430958271 0.362155199
vn -0.816343844 0.09957055 0.568918705
vn -0.584010243 0.320682645 -0.745717466
vn -0.724972486 0.504856467 -0.468545496
vn -0.318502605 0.507896483 -0.800373197
vn -0.821030498 0.226636007 -0.523970604
vn 0 1 0
vn -0.778276205 0.564850807 0.274280429
vn -0.940097451 0.159435719 0.30132556
vn -0.977491677 -0.0523442663 0.204377294
vn -0.864004552 0.392306715 0.315581441
vn -0.596114695 0.181758031 0.782055855
vn -0.888827503 -0.271104485 0.36944285
vn -0.817650318 -0.303732306 0.489075303
vn -0.804056466 -0.29868257 0.514083624
vn -0.984053135 -0.165049285 -0.0663187802
vn -0.739997923 -0.35403356 0.571894526
vn -0.839373231 -0.533136725 0.105914183
vn -0.603431761 -0.649287999 -0.462920308
vn -0.165427566 0.446719706 0.87924701
vn -0.481939912 0.602752447 0.635942936
vn -0.492598474 0.735097706 0.465808958
vn -0.504753351 0.823036253 -0.260452181
vn -0.703252912 -0.551642179 0.44847098
vn -0.546631217 -0.428785831 -0.719261408
vn -0.78526175 -0.515942335 -0.342297345
vn -0.778528154 -0.597691178 -0.191465527
vn -0.561284363 -0.0294223595 -0.82709986
vn -0.268920124 -0.123021536 -0.955273569
vn -0.263364762 -0.115750931 -0.957726896
vn -0.119349837 0.0661897063 -0.990643561
vn -0.587401927 0.240936279 -0.772598565
vn -0.672126055 0.202854544 -0.712107122
vn -0.672118723 0.0945872366 -0.734377086
vn -0.662614107 0.250449598 -0.705845237
vn -0.735290945 0.199738905 -0.647650838
vn -0.917698324 0.132246867 0.374620646
vn -0.930137932 0.121156849 0.346647322
vn -0.716196179 0.233154923 0.657800734
vn -0.858485341 0.250954241 0.447241455
vn -0.897871435 0.109403856 0.426447868
vn -0.727039874 0.265740216 0.633083761
vn 0.00626140134 0.461373389 0.887184024
vn 0.051393263 0.169397727 0.984206915
vn -0.871727884 -0.0674643815 0.485323548
vn -0.960675597 0.0235006921 0.276676774
vn -0.837945998 0.0672492385 0.541593969
vn -0.727374494 -0.0861708373 0.680809021
vn -0.678175688 -0.249557674 0.69122982
vn -0.265888035 0.0284825806 0.963583052
vn -0.131245866 0.968450963 -0.211842358
vn -0.271834552 0.926646769 -0.259676427
vn -0.506648004 0.666413844 -0.546992242
vn -0.504816353 0.615452528 -0.605292201
vn -0.551627517 0.271298856 -0.788735747
vn -0.653971076 0.105508499 -0.749126077
vn -0.771280229 0.0194987915 -0.636196971
vn -0.873426557 -0.0186817199 0.486597389
vn -0.873839796 0.373995274 0.31069532
vn -0.589078546 0.756056011 -0.285246938
vn -0.879876494 -0.298551112 0.369708657
vn -0.786506593 -0.616862953 -0.0297901481
vn -0.266099155 0.133085459 -0.954714358
vn -0.337566674 -0.22266233 -0.914587438
vn -0.408998758 -0.45325613 -0.792009413
vn -0.140973076 0.4398745 -0.886925578
vn -0.154408619 0.540048003 -0.827348828
vn -0.623751998 0.745076478 0.236208767
vn -0.551881254 0.794905841 0.252094835
vn -0.84781754 0.505589247 0.159952626
vn -0.804142892 0.530196309 0.268786162
vn -0.874552786 0.101454541 0.47419861
vn -0.933084607 0.355424404 0.0550132021
vn -0.942257047 0.298018456 -0.152763233
vn -0.554622471 0.80939126 -0.193079501
vn -0.527009487 0.84055382 -0.1254206
vn 0 0.918707311 -0.394939095
vn 0 0.918707311 -0.394939095
vn 0 0.918707311 -0.394939095
vn 0 0.918707311 -0.394939095
vn 0.0856111571 0.90668875 0.413020849
vn -0.044691246 0.841186762 0.538894773
vn 0.0853685439 0.906115294 0.414327323
vn -0.0316333584 0.916191995 0.399489015
vn 0.0862523764 0.905923724 0.414563477
vn 0.086570397 0.906487882 0.413261831
vn -0.00692672236 0.745288253 -0.666706443
vn -0.00721886382 0.743708253 -0.668465436
vn -0.00435628602 0.744310439 -0.667819619
vn -0.00418966729 0.745778918 -0.666180372
vn -0.000576274877 0.962898076 0.269864708
vn 0.0799859017 0.811532915 0.578806221
vn -0.0235221703 0.912311077 0.408821702
vn 0.0961014032 0.956153035 0.276651323
vn -0.0242138095 0.898496032 0.438313305
vn -0.000596107682 0.954933763 0.296818167
vn 0.0194938816 0.986118913 0.164892286
vn 0.111974023 0.992522061 -0.0485982634
vn 0.0187337156 0.989933014 0.140291855
vn 0.017943792 0.91225636 0.409226388
vn 0.116239719 0.983281672 0.140162647
vn 0.124745153 0.992186427 0.00216428889
vn 0.019728085 0.999763548 0.00915102474
vn 0.116403937 0.981712997 0.150630593
vn -0.0845524371 0.996236622 0.0190665051
vn 0.125756517 0.980554104 0.150661692
vn 0.0173201077 0.919731915 -0.392165005
vn 0.126016572 0.98208344 0.140114024
vn 0.116757326 0.989024043 -0.0905498192
vn 0.127170771 0.985873699 -0.108998068
vn 0.117006592 0.99088937 -0.066690363
vn 0.129217625 0.987762094 -0.087343961
vn 0.0967419818 0.984185755 -0.14838931
vn 0.0977468416 0.990628123 -0.0954020917
vn 0.117350295 -0.336824626 -0.934225917
vn 0.120662421 -0.544694722 -0.82990855
vn 0.117347412 -0.334196836 -0.935169637
vn 0.120529734 -0.557326853 -0.821498275
vn 0.127264112 -0.713930488 -0.688554347
vn 0.126999706 -0.724847972 -0.677101612
vn 0.0106398184 0.489400089 -0.871994495
vn -0.00944292545 0.48956424 -0.871916115
vn -0.00886319578 0.472972482 -0.881032646
vn 0.00999527052 0.473038018 -0.880985379
vn 0.181493983 0.680406749 0.710004687
vn 0.203667566 0.42793566 0.880562663
vn 0.181723982 0.679076135 0.711218655
vn 0.204481304 0.408009231 0.889784098
vn 0.1874917 0.190100715 0.963695288
vn 0.188831061 0.220273003 0.956986189
vn 0.024934832 0.999493003 -0.0198001731
vn 0.0243177023 0.99957794 -0.015891917
vn 0.0568122454 0.575302482 -0.815965295
vn 0.0364428833 0.999141932 -0.0196798779
vn 0.0344746225 0.951973081 -0.304234713
vn 0.0244298186 0.999602258 -0.0140910717
vn 0.0288441237 -0.0176822003 0.999427557
vn 0.0254339613 -0.982815683 0.182828799
vn 0.0342774466 -0.971920848 0.232797995
vn 0.0226908624 -0.0211310089 0.99951911
vn 0.0952095464 0.0441562943 0.994477451
vn 0.0345506333 -0.00929794181 0.999359667
vn 0.0459298417 0.00206732401 0.998942554
vn 0 -1 -1.1920929E-07
vn 0.0346011147 -0.999371588 0.00770193571
vn 0.0342504978 -0.999327421 0.0131016485
vn 0.0347083919 -0.999393106 0.00294278283
vn 0.00863867067 -0.998231709 0.0588120669
vn 0.0342774466 -0.971920848 0.232797995
vn 0.0254339613 -0.982815683 0.182828799
vn 0.05476382 0.0492390543 -0.997284532
vn 0.0506106354 -0.944302559 -0.325163305
vn 0.0365555808 -0.991626501 -0.123857126
vn 0.0333037265 0.0225807112 -0.999190152
vn 0 1.1920929E-07 -1
vn 0.0479503833 0.0164359603 -0.998714447
vn 0 1.1920929E-07 -1
vn 0.0336156115 0.00795232505 -0.999403119
vn 0.0218534432 0.0234786496 -0.999485493
vn 0.0142697617 0.0367547646 -0.999222398
vn 0.0269544832 0.00239976658 -0.999633789
vn 0.0344746225 0.951973081 -0.304234713
vn 0.0568122454 0.575302482 -0.815965295
vn 0.00288404222 0.0448229872 -0.998990715
vn 0.0525048859 0.00201910455 -0.998618603
vn 0.069978714 0.963286817 0.259193808
vn 0.0604557246 0.9974038 -0.0391249843
vn 0.108334504 0.894919455 0.432877392
vn 0.0275263637 0.999616027 -0.00316491956
vn 0.0564497747 0.998404205 0.00156355568
vn 0.0365555808 -0.991626501 -0.123857126
vn 0.0506106354 -0.944302559 -0.325163305
vn 0.0346011147 -0.999371588 0.00770193571
vn 0.00622394774 -0.999962568 -0.00601834524
vn 0.00809353869 -0.999954581 0.00503481925
vn 0.0564497747 0.998404205 0.00156355568
vn 0.0156719126 0.999563754 0.0250352211
vn 0.0102651576 0.999817312 0.0161273554
vn 0.00263899914 0.999990225 0.0035630702
vn 0.0604557246 0.9974038 -0.0391249843
vn 0.0265666954 -0.0154401828 0.999527812
vn 0.0952095464 0.0441562943 0.994477451
vn 0.00713553 -0.0173700135 0.999823749
vn 0.0134775573 -0.0310227852 0.999427736
vn 0.0457533263 -0.00871864334 0.998914719
vn 0.00835083798 0.00525925308 -0.999951363
vn 0.0414844491 -0.0125391893 -0.999060452
vn 0.05476382 0.0492390543 -0.997284532
vn 0.0532657877 -0.0188711174 -0.998402059
vn 0.0532657914 -0.0188711174 -0.998402059
vt 0.202896744 0.819861293
vt 0.146784127 0.810670257
vt 0.159194797 0.811794102
vt 0.132133245 0.958540261
vt 0.158213615 0.949956715
vt 0.1454283 0.949103057
vt 0.0497710928 0.835566461
vt 0.0453627557 0.879009485
vt 0.0551939644 0.866234362
vt 0.804898322 0.769975066
vt 0.786364317 0.785827875
vt 0.769805849 0.795090914
vt 0.811715901 0.751045823
vt 0.136329547 0.751045883
vt 0.747745752 0.827432156
vt 0.136329517 0.914885163
vt 0.760725379 0.834173441
vt 0.770900965 0.853432059
vt 0.737796843 0.914885163
vt 0.737796783 0.751045823
vt 0.76107645 0.824660182
vt 0.13631326 0.751064181
vt 0.767628729 0.836105466
vt 0.793840766 0.876605332
vt 0.136329576 0.914885044
vt 0.812836409 0.914885223
vt 0.0865383819 0.812963426
vt 0.101577558 0.809421182
vt 0.120340817 0.80326122
vt 0.0754198581 0.813116729
vt 0.178730696 0.816498101
vt 0.185445786 0.821645439
vt 0.202896744 0.819861293
vt 0.159194797 0.811794102
vt 0.786364317 0.890342355
vt 0.811715961 0.914885163
vt 0.136329502 0.914885163
vt 0.79305166 0.835277498
vt 0.786364317 0.816525042
vt 0.770768881 0.795814991
vt 0.136329532 0.751045883
vt 0.774036884 0.771625757
vt 0.786364317 0.751045823
vt 0.806392372 0.779251337
vt 0.136329472 0.751045823
vt 0.812836409 0.751045704
vt 0.783324361 0.829434812
vt 0.769870281 0.847252488
vt 0.136329472 0.914885163
vt 0.786364317 0.914885163
vt 0.194439083 0.904229283
vt 0.201683193 0.923772573
vt 0.191331476 0.886888266
vt 0.190972 0.894178629
vt 0.0432027243 0.893669248
vt 0.0424835086 0.95766592
vt 0.053581696 0.904328346
vt 0.0630433857 0.919255435
vt 0.0712498799 0.917729139
vt 0.0753359795 0.921043813
vt 0.0851889998 0.9412992
vt 0.101651013 0.954900682
vt 0.0980907306 0.946489036
vt 0.0424835086 0.95766592
vt 0.0753359795 0.921043813
vt 0.15441592 0.019836437
vt 0.14930661 0.143979803
vt 0.15441592 0.149089113
vt 0.14930661 0.0249457266
vt 0.0251632426 0.019836437
vt 0.0302725323 0.0249457266
vt 0.0251632426 0.149089113
vt 0.0302725323 0.143979803
vt 0.0851889998 0.9412992
vt 0.0712498799 0.917729139
vt 0.0753359795 0.921043813
vt 0.691678405 0.127780035
vt 0.713665307 0.115729213
vt 0.661573052 0.117076188
vt 0.450183034 0.0970132425
vt 0.440048128 0.0314519368
vt 0.383115888 0.0299036074
vt 0.383115888 0.0299036074
vt 0.407140255 0.13276495
vt 0.37339583 0.148852184
vt 0.176935107 0.911349177
vt 0.201683193 0.923772573
vt 0.194439083 0.904229283
vt 0.173442066 0.888229191
vt 0.190972 0.894178629
vt 0.191331476 0.886888266
vt 0.053581696 0.904328346
vt 0.0578202456 0.886146843
vt 0.0432027243 0.893669248
vt 0.0872485936 0.895664752
vt 0.0796906948 0.860987306
vt 0.106140584 0.887887299
vt 0.127452701 0.872300267
vt 0.123027794 0.908632278
vt 0.0818295181 0.915679038
vt 0.0851889998 0.9412992
vt 0.0630433857 0.919255435
vt 0.0712498799 0.917729139
vt 0.142703712 0.903418183
vt 0.146706372 0.849418044
vt 0.160761595 0.868271589
vt 0.141371191 0.921864927
vt 0.116364449 0.929196179
vt 0.131825447 0.940457284
vt 0.0980907306 0.946489036
vt 0.122266397 0.954506338
vt 0.101651013 0.954900682
vt 0.132133245 0.958540261
vt 0.1454283 0.949103057
vt 0.1605286 0.923852623
vt 0.158213615 0.949956715
vt 0.170405954 0.946203887
vt 0.173442066 0.888229191
vt 0.191331476 0.886888266
vt 0.191092968 0.872450531
vt 0.176935107 0.911349177
vt 0.18577224 0.948427022
vt 0.199468613 0.949594736
vt 0.201683193 0.923772573
vt 0.146706372 0.849418044
vt 0.160761595 0.868271589
vt 0.171720088 0.845473349
vt 0.183815718 0.846931338
vt 0.191092968 0.872450531
vt 0.196966141 0.861640096
vt 0.0865383819 0.812963426
vt 0.0903685018 0.819238365
vt 0.101577558 0.809421182
vt 0.0922897533 0.835180163
vt 0.120340817 0.80326122
vt 0.11538253 0.845873892
vt 0.20674029 0.842190266
vt 0.183815718 0.846931338
vt 0.196966141 0.861640096
vt 0.202896744 0.819861293
vt 0.185445786 0.821645439
vt 0.178730696 0.816498101
vt 0.183815718 0.846931338
vt 0.185445786 0.821645439
vt 0.171720088 0.845473349
vt 0.159194797 0.811794102
vt 0.161604136 0.826862752
vt 0.146706372 0.849418044
vt 0.146784127 0.810670257
vt 0.0903685018 0.819238365
vt 0.0865383819 0.812963426
vt 0.0754198581 0.813116729
vt 0.0796906948 0.860987306
vt 0.0922897533 0.835180163
vt 0.0635068268 0.830782652
vt 0.0922897533 0.835180163
vt 0.0796906948 0.860987306
vt 0.11538253 0.845873892
vt 0.127452701 0.872300267
vt 0.146706372 0.849418044
vt 0.146784127 0.810670257
vt 0.120340817 0.80326122
vt 0.101188019 0.916633606
vt 0.0851889998 0.9412992
vt 0.0980907306 0.946489036
vt 0.0872485936 0.895664752
vt 0.106140584 0.887887299
vt 0.101188019 0.916633606
vt 0.123027794 0.908632278
vt 0.106140584 0.887887299
vt 0.116364449 0.929196179
vt 0.0980907306 0.946489036
vt 0.0578202456 0.886146843
vt 0.0453627557 0.879009485
vt 0.0432027243 0.893669248
vt 0.0551939644 0.866234362
vt 0.0796906948 0.860987306
vt 0.0635068268 0.830782652
vt 0.0497710928 0.835566461
vt 0.0547237806 0.802913666
vt 0.0754198581 0.813116729
vt 0.929039598 0.0221050158
vt 0.858718395 0.023011528
vt 0.855482936 0.123666525
vt 0.93269825 0.124140114
vt 0.826046288 0.0270789023
vt 0.804621875 0.111769602
vt 0.833845437 0.113568991
vt 0.79905951 0.025847083
vt 0.773932397 0.109879941
vt 0.770718873 0.0245534685
vt 0.800464034 0.0236968175
vt 0.800464034 0.11927107
vt 0.926213503 0.11927107
vt 0.926213503 0.0236968175
vt 0.882525563 0.0348979384
vt 0.944795847 0.0807409063
vt 0.945804954 0.0351210982
vt 0.882457852 0.0807891563
vt 0.943878293 0.122226164
vt 0.882396221 0.122521222
vt 0.814788342 0.122917593
vt 0.813533127 0.0808658153
vt 0.812152863 0.0346230194
vt 0.841091037 0.0758896619
vt 0.842418194 0.128495142
vt 0.885973454 0.128639877
vt 0.885711074 0.0762427375
vt 0.839956164 0.0309051499
vt 0.885486722 0.0314363763
vt 0.930107951 0.031956993
vt 0.929439902 0.0765887499
vt 0.928658724 0.128781706
vt 0.849815369 0.11010842
vt 0.888811707 0.0354596525
vt 0.843728304 0.0126784183
vt 0.901064515 0.119959652
vt 0.936478853 0.00915751234
vt 0.944247603 0.128297389
vt 0.808129311 0.114096731
vt 0.879263639 0.0216729715
vt 0.814333558 0.0166720711
vt 0.871191144 0.118563205
vt 0.95010674 0.0310721472
vt 0.940291286 0.127408221
vt 0.937289953 0.0218690038
vt 0.838213444 0.0230078921
vt 0.834993124 0.123148948
vt 0.94096148 0.12418057
vt 0.937289953 0.0218690038
vt 0.896056056 0.123743445
vt 0.94096148 0.12418057
vt 0.895305157 0.0223515779
vt 0.838213444 0.0230078921
vt 0.834993124 0.123148948
vt 0.205356985 0.0534511544
vt 0.241635352 0.0157406386
vt 0.20868364 0.0143488627
vt 0.213508785 0.141348824
vt 0.197592586 0.146815613
vt 0.249265492 0.0872314125
vt 0.587502658 0.114879653
vt 0.600611269 0.139611751
vt 0.600395441 0.0275951978
vt 0.577997327 0.0627689511
vt 0.572468162 0.0275951978
vt 0.572123349 0.0719934106
vt 0.573788345 0.116265282
vt 0.63827306 0.137312114
vt 0.667531431 0.105371162
vt 0.617023647 0.128301144
vt 0.634746075 0.0201857947
vt 0.668789744 0.0164558385
vt 0.600296378 0.0215595886
vt 0.594427168 0.133486152
vt 0.748669863 0.129986376
vt 0.700050473 0.0228154808
vt 0.700646579 0.134101048
vt 0.758124709 0.0433751009
vt 0.152952254 0.138958469
vt 0.12665461 0.118741959
vt 0.137198091 0.135894448
vt 0.179881573 0.120386466
vt 0.174093962 0.0666406006
vt 0.146715492 0.0530840382
vt 0.205356985 0.0534511544
vt 0.197592586 0.146815613
vt 0.20868364 0.0143488627
vt 0.170588285 0.0347470641
vt 0.146667495 0.0307485722
vt 0.385818452 0.0284032188
vt 0.323106915 0.112050079
vt 0.376566112 0.143957436
vt 0.325056106 0.0674922541
vt 0.323073745 0.0343186446
vt 0.74417299 0.648172975
vt 0.742536306 0.54294771
vt 0.686086059 0.649674892
vt 0.703131795 0.548750937
vt 0.673973083 0.549358189
vt 0.54172349 0.583382487
vt 0.499734074 0.581524611
vt 0.539978266 0.623099983
vt 0.487651259 0.65672195
vt 0.536675692 0.659208059
vt 0.575717926 0.655002236
vt 0.629185319 0.543601632
vt 0.561758995 0.562566161
vt 0.628119051 0.602746367
vt 0.627299488 0.652692974
vt 0.844549 0.650676847
vt 0.832735717 0.590563178
vt 0.79527086 0.637249589
vt 0.790543258 0.580040932
vt 0.832430005 0.575623393
g submesh0
f 1/1/1 2/2/2 3/3/3
f 4/4/4 5/5/5 6/6/6
f 7/7/7 8/8/8 9/9/9
f 10/10/10 11/11/11 12/12/12
f 13/13/13 10/10/10 12/12/12
f 12/12/12 14/14/14 13/13/13
f 14/14/14 12/12/12 15/15/15
f 14/14/14 15/15/15 16/16/16
f 16/16/16 15/15/15 17/17/17
f 16/16/16 17/17/17 18/18/18
f 18/18/18 19/19/19 16/16/16
f 20/20/20 21/21/21 22/22/22
f 22/22/22 21/21/21 23/23/23
f 22/22/22 23/23/23 24/24/24
f 24/24/24 25/25/25 22/22/22
f 24/24/24 26/26/26 25/25/25
f 27/27/27 28/28/28 29/29/29
f 27/27/27 29/29/29 30/30/30
f 31/31/31 32/32/32 33/33/33
f 31/31/31 33/33/33 34/34/34
f 35/35/35 36/36/36 37/37/37
f 35/35/35 37/37/37 38/38/38
f 38/38/38 37/37/37 39/39/39
f 40/40/40 39/39/39 37/37/37
f 40/40/40 37/37/37 41/41/41
f 40/40/40 41/41/41 42/42/42
f 42/42/42 41/41/41 43/43/43
f 44/44/44 45/45/45 46/46/46
f 44/44/44 47/47/47 45/45/45
f 45/45/45 47/47/47 48/48/48
f 45/45/45 48/48/48 49/49/49
f 49/49/49 48/48/48 50/50/50
f 51/51/51 52/52/52 53/53/53
f 51/51/51 53/53/53 54/54/54
f 55/55/55 56/56/56 57/57/57
f 57/57/57 56/56/56 58/58/58
f 59/59/59 58/58/58 56/56/56
f 59/59/59 56/56/56 60/60/60
f 61/61/61 62/62/62 63/63/63
f 61/61/61 64/64/64 62/62/62
f 64/64/64 61/61/61 65/65/65
f 66/66/66 67/67/67 68/68/68
f 66/66/66 69/69/69 67/67/67
f 70/70/70 69/69/69 66/66/66
f 70/70/70 71/71/71 69/69/69
f 71/71/71 67/67/67 69/69/69
f 72/72/72 71/71/71 70/70/70
f 68/68/68 67/67/67 73/73/73
f 68/68/68 73/73/73 72/72/72
f 71/71/71 73/73/73 67/67/67
f 72/72/72 73/73/73 71/71/71
g submesh1
f 74/74/74 75/75/75 76/76/76
f 77/77/77 78/78/78 79/79/79
f 80/80/80 81/81/81 82/82/82
f 80/80/80 83/83/83 84/84/84
f 84/84/84 83/83/83 85/85/85
f 86/86/86 87/87/87 88/88/88
f 86/86/86 88/88/88 89/89/89
f 89/89/89 88/88/88 90/90/90
f 91/91/91 89/89/89 90/90/90
f 92/92/92 93/93/93 94/94/94
f 92/92/92 95/95/95 93/93/93
f 93/93/93 95/95/95 96/96/96
f 97/97/97 96/96/96 95/95/95
f 97/97/97 98/98/98 96/96/96
f 99/99/99 98/98/98 97/97/97
f 100/100/100 95/95/95 92/92/92
f 95/95/95 100/100/100 101/101/101
f 100/100/100 92/92/92 102/102/102
f 103/103/103 101/101/101 100/100/100
f 103/103/103 100/100/100 102/102/102
f 104/104/104 98/98/98 99/99/99
f 105/105/105 98/98/98 104/104/104
f 106/106/106 105/105/105 104/104/104
f 107/107/107 104/104/104 99/99/99
f 99/99/99 108/108/108 107/107/107
f 108/108/108 109/109/109 107/107/107
f 109/109/109 108/108/108 110/110/110
f 110/110/110 111/111/111 109/109/109
f 110/110/110 112/112/112 111/111/111
f 113/113/113 109/109/109 111/111/111
f 109/109/109 113/113/113 114/114/114
f 109/109/109 114/114/114 107/107/107
f 114/114/114 115/115/115 107/107/107
f 107/107/107 115/115/115 104/104/104
f 114/114/114 116/116/116 115/115/115
f 115/115/115 116/116/116 117/117/117
f 106/106/106 104/104/104 118/118/118
f 115/115/115 118/118/118 104/104/104
f 119/119/119 106/106/106 118/118/118
f 119/119/119 120/120/120 106/106/106
f 115/115/115 121/121/121 118/118/118
f 121/121/121 115/115/115 117/117/117
f 121/121/121 117/117/117 122/122/122
f 123/123/123 121/121/121 122/122/122
f 121/121/121 123/123/123 124/124/124
f 125/125/125 126/126/126 127/127/127
f 127/127/127 126/126/126 128/128/128
f 128/128/128 126/126/126 129/129/129
f 128/128/128 129/129/129 130/130/130
f 131/131/131 132/132/132 133/133/133
f 133/133/133 132/132/132 134/134/134
f 133/133/133 134/134/134 135/135/135
f 135/135/135 134/134/134 136/136/136
f 137/137/137 138/138/138 139/139/139
f 138/138/138 137/137/137 140/140/140
f 138/138/138 140/140/140 141/141/141
f 142/142/142 143/143/143 144/144/144
f 145/145/145 143/143/143 142/142/142
f 145/145/145 142/142/142 146/146/146
f 145/145/145 146/146/146 147/147/147
f 148/148/148 145/145/145 147/147/147
f 149/149/149 147/147/147 146/146/146
f 149/149/149 148/148/148 147/147/147
f 150/150/150 151/151/151 152/152/152
f 150/150/150 152/152/152 153/153/153
f 150/150/150 153/153/153 154/154/154
f 152/152/152 155/155/155 153/153/153
f 156/156/156 157/157/157 158/158/158
f 157/157/157 159/159/159 158/158/158
f 159/159/159 160/160/160 158/158/158
f 158/158/158 160/160/160 161/161/161
f 158/158/158 161/161/161 162/162/162
f 163/163/163 164/164/164 165/165/165
f 164/164/164 163/163/163 166/166/166
f 163/163/163 167/167/167 166/166/166
f 168/168/168 169/169/169 170/170/170
f 168/168/168 171/171/171 169/169/169
f 168/168/168 172/172/172 171/171/171
f 173/173/173 174/174/174 175/175/175
f 173/173/173 176/176/176 174/174/174
f 173/173/173 177/177/177 176/176/176
f 176/176/176 177/177/177 178/178/178
f 176/176/176 178/178/178 179/179/179
f 179/179/179 178/178/178 180/180/180
f 180/180/180 178/178/178 181/181/181
f 182/182/182 183/183/183 184/184/184
f 182/182/182 184/184/184 185/185/185
f 186/186/186 187/187/187 188/188/188
f 186/186/186 189/189/189 187/187/187
f 190/190/190 187/187/187 189/189/189
f 190/190/190 189/189/189 191/191/191
f 192/192/192 193/193/193 194/194/194
f 192/192/192 194/194/194 195/195/195
f 196/196/196 197/197/197 198/198/198
f 196/196/196 199/199/199 197/197/197
f 200/200/200 197/197/197 199/199/199
f 200/200/200 199/199/199 201/201/201
f 202/202/202 201/201/201 199/199/199
f 202/202/202 199/199/199 203/203/203
f 203/203/203 199/199/199 196/196/196
f 203/203/203 196/196/196 204/204/204
f 205/205/205 206/206/206 207/207/207
f 205/205/205 207/207/207 208/208/208
f 209/209/209 205/205/205 208/208/208
f 209/209/209 208/208/208 210/210/210
f 211/211/211 210/210/210 208/208/208
f 211/211/211 208/208/208 212/212/212
f 212/212/212 208/208/208 207/207/207
f 212/212/212 207/207/207 213/213/213
f 214/214/214 215/215/215 216/216/216
f 214/214/214 217/217/217 215/215/215
f 218/218/218 215/215/215 217/217/217
f 218/218/218 217/217/217 219/219/219
f 220/220/220 221/221/221 222/222/222
f 220/220/220 223/223/223 221/221/221
f 224/224/224 221/221/221 223/223/223
f 224/224/224 223/223/223 225/225/225
f 226/226/226 227/227/227 228/228/228
f 226/226/226 228/228/228 229/229/229
f 230/230/230 231/231/231 232/232/232
f 230/230/230 233/233/233 231/231/231
f 231/231/231 233/233/233 234/234/234
f 231/231/231 234/234/234 235/235/235
f 236/236/236 237/237/237 238/238/238
f 239/239/239 237/237/237 236/236/236
f 239/239/239 236/236/236 240/240/240
f 237/237/237 239/239/239 241/241/241
f 242/242/242 243/243/243 244/244/244
f 242/242/242 244/244/244 245/245/245
f 246/246/246 245/245/245 244/244/244
f 246/246/246 247/247/247 245/245/245
f 247/247/247 242/242/242 245/245/245
f 247/247/247 248/248/248 242/242/242
f 249/249/249 250/250/250 251/251/251
f 251/251/251 250/250/250 252/252/252
f 250/250/250 253/253/253 252/252/252
f 251/251/251 252/252/252 254/254/254
f 251/251/251 254/254/254 255/255/255
f 256/256/256 257/257/257 258/258/258
f 256/256/256 259/259/259 257/257/257
f 260/260/260 261/261/261 262/262/262
f 260/260/260 263/263/263 261/261/261
f 264/264/264 261/261/261 263/263/263
f 264/264/264 265/265/265 261/261/261
f 266/266/266 264/264/264 263/263/263
f 266/266/266 263/263/263 267/267/267
f 264/264/264 266/266/266 268/268/268
f 269/269/269 264/264/264 268/268/268
f 265/265/265 264/264/264 269/269/269
f 265/265/265 269/269/269 270/270/270
f 271/271/271 272/272/272 273/273/273
f 271/271/271 274/274/274 272/272/272
f 271/271/271 275/275/275 274/274/274
f 276/276/276 277/277/277 278/278/278
f 277/277/277 279/279/279 278/278/278
f 280/280/280 278/278/278 279/279/279
f 281/281/281 282/282/282 283/283/283
f 283/283/283 282/282/282 284/284/284
f 283/283/283 284/284/284 285/285/285
f 286/286/286 287/287/287 288/288/288
f 289/289/289 287/287/287 286/286/286
f 290/290/290 289/289/289 286/286/286
f 291/291/291 292/292/292 293/293/293
f 292/292/292 294/294/294 293/293/293
f 292/292/292 295/295/295 294/294/294
