# ladder_LOD0
v 0.217164665 -1.33087206 -0.0169208664
v 0.133765012 -1.32346451 -0.00635729777
v 0.217324317 -1.32643843 -0.00621807063
v 0.133660212 -1.32977974 -0.0216272976
v -0.139550552 -1.31851983 -0.00686665997
v 0.216736317 -1.34154892 -0.0213302318
v -0.139708653 -1.32483447 -0.0221371986
v 0.133348554 -1.34501779 -0.0279437061
v 0.216289461 -1.35219383 -0.0168905929
v -0.140146509 -1.34007001 -0.0284537692
v 0.133011445 -1.36024225 -0.0216148701
v 0.216086939 -1.35659575 -0.00622045994
v -0.140606195 -1.35529232 -0.0221253112
v 0.132847562 -1.36654413 -0.00635867566
v 0.216247797 -1.35219371 0.0044502113
v -0.140819818 -1.36159325 -0.00686921598
v 0.132953644 -1.36024213 0.00889791921
v 0.216677368 -1.34154868 0.00889134873
v -0.140663981 -1.35529232 0.00838761777
v 0.133266717 -1.34501767 0.0152278086
v 0.217122853 -1.33087206 0.00448365696
v -0.140228391 -1.34007001 0.0147177456
v 0.133602336 -1.32977974 0.00891262479
v 0.217324317 -1.32643843 -0.00621807063
v -0.139766559 -1.32483423 0.00840267632
v 0.133765012 -1.32346451 -0.00635729777
v -0.139550552 -1.31851983 -0.00686665997
v -0.139708653 -1.32483447 -0.0221371986
v -0.22209163 -1.31706786 -0.00700386055
v -0.139550552 -1.31851983 -0.00686665997
v -0.222167671 -1.32149851 -0.0177011732
v -0.140146509 -1.34007001 -0.0284537692
v -0.222391814 -1.33217597 -0.0221150164
v -0.140606195 -1.35529232 -0.0221253112
v -0.222631812 -1.34283018 -0.0176787134
v -0.140819818 -1.36159325 -0.00686921598
v -0.22274816 -1.34723747 -0.00700500933
v -0.140663981 -1.35529232 0.00838761777
v -0.222673431 -1.34283006 0.00366912829
v -0.140228391 -1.34007001 0.0147177456
v -0.222450763 -1.33217585 0.0081063509
v -0.139766559 -1.32483423 0.00840267632
v -0.222209468 -1.32149827 0.003693223
v -0.139550552 -1.31851983 -0.00686665997
v -0.22209163 -1.31706786 -0.00700386055
v -0.209000334 -1.02771533 -0.00469155284
v -0.1274748 -1.01767957 -0.0138627952
v -0.208974704 -1.02386713 -0.0139999771
v -0.127511993 -1.02338576 -5.9885977E-05
v 0.13883844 -1.0181905 -0.0133648729
v -0.209025785 -1.03700578 -0.000835828774
v 0.138801247 -1.02389681 0.000437955838
v -0.127549365 -1.03716218 0.00565746753
v -0.209036171 -1.04629648 -0.00469154818
v 0.13876386 -1.03767312 0.00615525711
v -0.127565101 -1.05093849 -5.9885977E-05
v -0.209025443 -1.05014467 -0.0139999725
v 0.138748139 -1.05144942 0.000437955838
v -0.127549946 -1.05664492 -0.0138627812
v -0.208999842 -1.04629648 -0.0233083051
v 0.138763353 -1.05715585 -0.0133649968
v -0.127512768 -1.05093873 -0.0276655089
v -0.208974376 -1.0370059 -0.0271639302
v 0.138800442 -1.05144954 -0.0271678641
v -0.127475396 -1.03716242 -0.0333828926
v -0.208963975 -1.02771544 -0.0233083107
v 0.138837904 -1.03767335 -0.0328851156
v -0.12745963 -1.023386 -0.0276656058
v -0.208974704 -1.02386713 -0.0139999771
v 0.138853654 -1.02389681 -0.0271677915
v -0.1274748 -1.01767957 -0.0138627952
v 0.13883844 -1.0181905 -0.0133648729
v 0.138801247 -1.02389681 0.000437955838
v 0.218630388 -1.02468753 -0.013230891
v 0.13883844 -1.0181905 -0.0133648729
v 0.218604788 -1.02853572 -0.00392256258
v 0.13876386 -1.03767312 0.00615525711
v 0.218579382 -1.03782618 -6.69527071E-05
v 0.138748139 -1.05144942 0.000437955838
v 0.21856901 -1.04711664 -0.0039225528
v 0.138763353 -1.05715585 -0.0133649968
v 0.218579769 -1.05096507 -0.013230891
v 0.138800442 -1.05144954 -0.0271678641
v 0.218605354 -1.04711688 -0.0225393195
v 0.138837904 -1.03767335 -0.0328851156
v 0.218630806 -1.03782642 -0.0263950154
v 0.138853654 -1.02389681 -0.0271677915
v 0.218641296 -1.02853572 -0.0225393195
v 0.13883844 -1.0181905 -0.0133648729
v 0.218630388 -1.02468753 -0.013230891
v 0.212946713 -0.732983232 -0.00925940927
v 0.131385744 -0.719417989 -0.0031984949
v 0.212394997 -0.728556514 0.00142130849
v 0.132014945 -0.725744009 -0.0184462927
v -0.134568617 -0.713463902 -0.013355894
v 0.212828338 -0.743655443 -0.0136830565
v -0.133938998 -0.719789863 -0.0286038052
v 0.131876931 -0.74097997 -0.0247628018
v 0.2121097 -0.754313171 -0.00925568584
v -0.134077147 -0.73502624 -0.0349204279
v 0.131052211 -0.756201327 -0.0184479617
v 0.211212397 -0.758708954 0.00142072199
v -0.134902239 -0.7502473 -0.028605599
v 0.130023882 -0.762491286 -0.00320089818
v 0.210662201 -0.754277945 0.0120866532
v -0.135930493 -0.756537318 -0.0133585595
v 0.129394233 -0.756165326 0.0120470189
v 0.210780159 -0.743620574 0.0165060945
v -0.136559695 -0.750211179 0.00188948156
v 0.129532441 -0.740929067 0.0183635093
v 0.211497396 -0.732967079 0.0120935291
v -0.136421606 -0.734975278 0.00820595212
v 0.130357414 -0.725707769 0.0120485732
v 0.212394997 -0.728556514 0.00142130849
v -0.13559702 -0.71975404 0.00189115992
v 0.131385744 -0.719417989 -0.0031984949
v -0.134568617 -0.713463902 -0.013355894
v -0.133938998 -0.719789863 -0.0286038052
v -0.214613274 -0.717248797 -0.0179754011
v -0.134568617 -0.713463902 -0.013355894
v -0.214063048 -0.721679807 -0.0286413226
v -0.134077147 -0.73502624 -0.0349204279
v -0.214180946 -0.732337177 -0.0330607407
v -0.134902239 -0.7502473 -0.028605599
v -0.214898169 -0.742990732 -0.0286481809
v -0.135930493 -0.756537318 -0.0133585595
v -0.215795755 -0.747401237 -0.0179760065
v -0.136559695 -0.750211179 0.00188948156
v -0.216347367 -0.742974401 -0.00729531283
v -0.136421606 -0.734975278 0.00820595212
v -0.216229185 -0.732302308 -0.00287166587
v -0.13559702 -0.71975404 0.00189115992
v -0.215510517 -0.72164458 -0.00729902741
v -0.134568617 -0.713463902 -0.013355894
v -0.214613274 -0.717248797 -0.0179754011
v -0.207431763 -0.43259266 0.0261692479
v -0.126787499 -0.425112754 0.0111194849
v -0.208308116 -0.428161263 0.0154810473
v -0.125861451 -0.431417763 0.026381297
v 0.139148533 -0.414655298 0.00195645797
v -0.206681132 -0.443261594 0.030563416
v 0.140100375 -0.420945734 0.0172031634
v -0.125169575 -0.446653515 0.0326898247
v -0.206493855 -0.453904986 0.0261263028
v 0.140856609 -0.436166286 0.0235235635
v -0.125115946 -0.461880088 0.0263643302
v -0.206980526 -0.458320409 0.0154669238
v 0.140974984 -0.451405853 0.0172099825
v -0.125731662 -0.468192726 0.0111252163
v -0.207857773 -0.453931689 0.00480305171
v 0.1403853 -0.45773223 0.00195592875
v -0.126657248 -0.461908698 -0.00411544321
v -0.208611235 -0.443287075 0.000366301538
v 0.139432535 -0.451434702 -0.0132979723
v -0.127350762 -0.446694016 -0.0104448982
v -0.208797678 -0.432600886 0.00477921963
v 0.138675675 -0.436206967 -0.0196112487
v -0.127404854 -0.431446522 -0.00414052932
v -0.208308116 -0.428161263 0.0154810473
v 0.138558254 -0.420974493 -0.0132904574
v -0.126787499 -0.425112754 0.0111194849
v 0.139148533 -0.414655298 0.00195645797
v 0.140100375 -0.420945734 0.0172031634
v 0.218963981 -0.418827474 -0.00240050792
v 0.139148533 -0.414655298 0.00195645797
v 0.219797075 -0.423227251 0.0082790805
v 0.140856609 -0.436166286 0.0235235635
v 0.220444351 -0.43388775 0.0127088688
v 0.140974984 -0.451405853 0.0172099825
v 0.220525563 -0.444560051 0.00828573667
v 0.1403853 -0.45773223 0.00195592875
v 0.219993189 -0.448984563 -0.00239688857
v 0.139432535 -0.451434702 -0.0132979723
v 0.219159782 -0.444570333 -0.0130724143
v 0.138675675 -0.436206967 -0.0196112487
v 0.218513727 -0.433913827 -0.0174876917
v 0.138558254 -0.420974493 -0.0132904574
v 0.218432933 -0.423256099 -0.0130686136
v 0.139148533 -0.414655298 0.00195645797
v 0.218963981 -0.418827474 -0.00240050792
v 0.213855371 -0.128894985 0.00553447241
v 0.131856129 -0.12354669 0.0116000026
v 0.213181734 -0.124465205 0.0162320174
v 0.132688805 -0.129868791 -0.00365726463
v -0.134088024 -0.117331982 0.00144568435
v 0.21403043 -0.139580488 0.00111864088
v -0.133283004 -0.123640038 -0.0137985228
v 0.133037463 -0.145114154 -0.00996112358
v 0.213603303 -0.150235385 0.00555101875
v -0.132997513 -0.138871059 -0.0201189611
v 0.132697999 -0.160337001 -0.00363362301
v 0.212826058 -0.154636249 0.016213173
v -0.133399755 -0.154108018 -0.013807931
v 0.131871119 -0.166635066 0.0116037698
v 0.212154821 -0.150225252 0.0268731248
v -0.134253711 -0.160420135 0.00144250866
v 0.131041124 -0.160333872 0.0268400814
v 0.211981669 -0.139577284 0.0313077196
v -0.135058358 -0.154104903 0.0166939404
v 0.130692303 -0.145109728 0.0331649743
v 0.212406322 -0.128903836 0.0269131027
v -0.135342732 -0.138866633 0.0230072439
v 0.131029069 -0.12986581 0.0268584769
v 0.213181734 -0.124465205 0.0162320174
v -0.134940922 -0.123636834 0.0166890007
v 0.131856129 -0.12354669 0.0116000026
v -0.134088024 -0.117331982 0.00144568435
v -0.133283004 -0.123640038 -0.0137985228
v -0.214125812 -0.123640105 -0.00317439064
v -0.134088024 -0.117331982 0.00144568435
v -0.213410333 -0.128064007 -0.0138435364
v -0.132997513 -0.138871059 -0.0201189611
v -0.213131174 -0.138723806 -0.0182593912
v -0.133399755 -0.154108018 -0.013807931
v -0.213451222 -0.149382517 -0.0138436407
v -0.134253711 -0.160420135 0.00144250866
v -0.214183673 -0.153803751 -0.00317437155
v -0.135058358 -0.154104903 0.0166939404
v -0.214900032 -0.149389237 0.00750432489
v -0.135342732 -0.138866633 0.0230072439
v -0.21518001 -0.138719901 0.011929593
v -0.134940922 -0.123636834 0.0166890007
v -0.214859173 -0.128051728 0.00750421965
v -0.134088024 -0.117331982 0.00144568435
v -0.214125812 -0.123640105 -0.00317439064
v -0.207247496 0.162049577 0.0168444868
v -0.126219064 0.177236497 0.00628909562
v -0.20750989 0.166467458 0.00615462754
v -0.125928774 0.170931563 0.0215532444
v 0.139862627 0.186369449 0.00678500626
v -0.206572697 0.151388735 0.0212675892
v 0.140153155 0.180064365 0.0220492128
v -0.125169963 0.155710623 0.0278772116
v -0.205881476 0.140737176 0.016837744
v 0.140912145 0.164843425 0.0283729974
v -0.124386899 0.140489057 0.0215564203
v -0.205578133 0.136328608 0.00615842314
v 0.141695008 0.149622023 0.0220522545
v -0.124038562 0.134184286 0.00629342534
v -0.205839783 0.140737325 -0.00452187518
v 0.142043129 0.143317387 0.00678922143
v -0.124329068 0.140489057 -0.00897064712
v -0.206513748 0.151388884 -0.0089543201
v 0.141752794 0.149622023 -0.00847488828
v -0.125088096 0.155710161 -0.0152945658
v -0.207205743 0.162049577 -0.00453401543
v 0.140994012 0.164843112 -0.0147987884
v -0.125870898 0.170931414 -0.00897383224
v -0.20750989 0.166467458 0.00615462754
v 0.140211016 0.180064365 -0.00847797375
v -0.126219064 0.177236497 0.00628909562
v 0.139862627 0.186369449 0.00678500626
v 0.140153155 0.180064365 0.0220492128
v 0.219718635 0.184228167 0.00691678515
v 0.139862627 0.186369449 0.00678500626
v 0.219980299 0.179819599 0.0175971165
v 0.140912145 0.164843425 0.0283729974
v 0.220654383 0.169168204 0.0220295284
v 0.141695008 0.149622023 0.0220522545
v 0.221346304 0.158507347 0.0176092293
v 0.142043129 0.143317387 0.00678922143
v 0.221650437 0.154089317 0.00692059007
v 0.141752794 0.149622023 -0.00847488828
v 0.221388176 0.158507347 -0.00376926898
v 0.140994012 0.164843112 -0.0147987884
v 0.220713288 0.169168353 -0.00819237716
v 0.140211016 0.180064365 -0.00847797375
v 0.220022097 0.179819748 -0.00376254553
v 0.139862627 0.186369449 0.00678500626
v 0.219718635 0.184228167 0.00691678515
v 0.215016112 0.46063745 -0.00944685936
v 0.134108648 0.470458508 0.00112483499
v 0.215338767 0.465069532 0.0012593508
v 0.133821085 0.464147627 -0.0141459079
v -0.13175419 0.480605453 0.00062933442
v 0.214195192 0.449968964 -0.0138541413
v -0.132096797 0.474296242 -0.0146415709
v 0.133068025 0.44892028 -0.0204629991
v 0.213356599 0.439338177 -0.00941238832
v -0.132979527 0.45907408 -0.0209587943
v 0.132289901 0.433707565 -0.01413495
v 0.212991849 0.434943348 0.0012549829
v -0.133883104 0.443865955 -0.0146308895
v 0.131943375 0.427410126 0.00112094404
v 0.213314906 0.439338177 0.0119235562
v -0.134280443 0.437570632 0.00062476634
v 0.132232144 0.433707565 0.0163778439
v 0.214136258 0.449968964 0.0163682699
v -0.13394092 0.443865955 0.0158817042
v 0.132986158 0.448920429 0.0227087438
v 0.214974374 0.460637301 0.0119641544
v -0.133061424 0.459074229 0.0222129095
v 0.133763134 0.464147627 0.016394401
v 0.215338767 0.465069532 0.0012593508
v -0.132154688 0.474296242 0.0158989187
v 0.134108648 0.470458508 0.00112483499
v -0.13175419 0.480605453 0.00062933442
v -0.132096797 0.474296242 -0.0146415709
v -0.212117419 0.484482765 0.000496568682
v -0.13175419 0.480605453 0.00062933442
v -0.212353528 0.480057716 -0.0101980967
v -0.132979527 0.45907408 -0.0209587943
v -0.21296446 0.469388008 -0.0146159073
v -0.133883104 0.443865955 -0.0146308895
v -0.213591784 0.4587363 -0.0101817986
v -0.134280443 0.437570632 0.00062476634
v -0.213868588 0.454330027 0.000493335712
v -0.13394092 0.443865955 0.0158817042
v -0.213633463 0.4587363 0.0111695053
v -0.133061424 0.459074229 0.0222129095
v -0.213023469 0.469387859 0.0156060262
v -0.132154688 0.474296242 0.0158989187
v -0.212395296 0.480057865 0.0111903902
v -0.13175419 0.480605453 0.00062933442
v -0.212117419 0.484482765 0.000496568682
v -0.20469135 0.770193458 0.0286680739
v -0.123939477 0.780923605 0.013644414
v -0.205365151 0.774617136 0.0179959722
v -0.123180188 0.774612129 0.0288947821
v 0.142141819 0.780413508 0.0044782781
v -0.204429492 0.759533346 0.0330851302
v 0.142901033 0.774101555 0.0197288562
v -0.122889914 0.759377122 0.0352119207
v -0.204732433 0.748874664 0.0286680739
v 0.14319098 0.758867025 0.026045775
v -0.123238876 0.744143367 0.0288948771
v -0.205423295 0.74445343 0.0179960001
v 0.142842278 0.74363327 0.0197289418
v -0.124022521 0.737834454 0.013644442
v -0.206097886 0.748867929 0.00731462939
v 0.142058849 0.737324357 0.00447816821
v -0.124781586 0.744146407 -0.00160612108
v -0.206360489 0.759537041 0.0028882788
v 0.141299456 0.74363631 -0.0107722897
v -0.125071615 0.759381235 -0.00792308338
v -0.206056744 0.770205379 0.00731462939
v 0.141009286 0.75887084 -0.0170892086
v -0.124722853 0.774614692 -0.00160624506
v -0.205365151 0.774617136 0.0179959722
v 0.141358331 0.774104595 -0.0107722282
v -0.123939477 0.780923605 0.013644414
v 0.142141819 0.780413508 0.0044782781
v 0.142901033 0.774101555 0.0197288562
v 0.221859336 0.77379775 0.000123472215
v 0.142141819 0.780413508 0.0044782781
v 0.222533882 0.769383252 0.0108048199
v 0.14319098 0.758867025 0.026045775
v 0.2227965 0.758713841 0.0152311847
v 0.142842278 0.74363327 0.0197289418
v 0.222492844 0.748045802 0.0108048292
v 0.142058849 0.737324357 0.00447816821
v 0.221801281 0.743634045 0.000123481746
v 0.141299456 0.74363631 -0.0107722897
v 0.221127406 0.748057663 -0.0105486149
v 0.141009286 0.75887084 -0.0170892086
v 0.220865488 0.758717477 -0.014965672
v 0.141358331 0.774104595 -0.0107722282
v 0.221168533 0.769376516 -0.0105486196
v 0.142141819 0.780413508 0.0044782781
v 0.221859336 0.77379775 0.000123472215
v 0.214790225 1.07808757 -0.0037904738
v 0.133049265 1.07894921 0.00676850788
v 0.21452938 1.08251357 0.00690342393
v 0.133413225 1.07263482 -0.00850485265
v -0.132931083 1.07552397 0.00627282588
v 0.215377286 1.06741512 -0.00820601452
v -0.132595032 1.06922221 -0.00898646377
v 0.134232044 1.05740416 -0.0148150725
v 0.215946481 1.05676162 -0.00376944523
v -0.131841376 1.0540036 -0.0153109403
v 0.135023937 1.04219508 -0.00848062523
v 0.216164604 1.05235445 0.00690668589
v -0.131111681 1.03877795 -0.00899068825
v 0.135327056 1.03590119 0.00677303784
v 0.215904668 1.05676162 0.0175817441
v -0.130833283 1.03246915 0.00627697445
v 0.134966075 1.04219508 0.022025371
v 0.215318382 1.06741512 0.0220158901
v -0.131169513 1.03877807 0.0215434693
v 0.134150296 1.05740464 0.0283565652
v 0.214748383 1.07808745 0.0175981373
v -0.131923243 1.05400372 0.0278608166
v 0.133355364 1.0726347 0.0220431853
v 0.21452938 1.08251357 0.00690342393
v -0.132652923 1.06922233 0.0215333216
v 0.133049265 1.07894921 0.00676850788
v -0.132931083 1.07552397 0.00627282588
v -0.132595032 1.06922221 -0.00898646377
v -0.212849632 1.06475151 0.00614093291
v -0.132931083 1.07552397 0.00627282588
v -0.212545425 1.06033373 -0.00454765325
v -0.131841376 1.0540036 -0.0153109403
v -0.21185334 1.04967308 -0.00896800496
v -0.131111681 1.03877795 -0.00899068825
v -0.211179227 1.03902137 -0.00453567039
v -0.130833283 1.03246915 0.00627697445
v -0.210917562 1.03461289 0.00614472851
v -0.131169513 1.03877807 0.0215434693
v -0.21122095 1.03902125 0.0168241262
v -0.131923243 1.05400372 0.0278608166
v -0.211912304 1.04967296 0.0212539043
v -0.132652923 1.06922233 0.0215333216
v -0.212587237 1.06033373 0.0168307256
v -0.132931083 1.07552397 0.00627282588
v -0.212849632 1.06475151 0.00614093291
v -0.217838034 1.37869167 0.0261144005
v -0.134909585 1.38478243 0.0110988375
v -0.218253672 1.38312829 0.0154510541
v -0.134458408 1.37844813 0.0263487957
v 0.141503021 1.37423396 0.00195256702
v -0.218264401 1.36804163 0.0305340718
v 0.141953796 1.36789918 0.0172022674
v -0.134959072 1.36321652 0.0326646939
v -0.21928449 1.35739779 0.0261211433
v 0.141453579 1.35266781 0.0235177279
v -0.136117965 1.34801149 0.0263459813
v -0.220301703 1.35299766 0.0154442741
v 0.140295088 1.33746243 0.0171994157
v -0.137255967 1.34173942 0.0110946698
v -0.22071901 1.35743225 0.00475987885
v 0.139156669 1.33119011 0.00194824219
v -0.137706712 1.34807432 -0.00415521627
v -0.220291004 1.36810362 0.000338187208
v 0.138705477 1.33752525 -0.0133019201
v -0.13720648 1.36330569 -0.0104706241
v -0.219269291 1.37874901 0.00477207638
v 0.139206111 1.35275698 -0.0196175762
v -0.136047974 1.37851107 -0.00415233104
v -0.218253672 1.38312829 0.0154510541
v 0.140365168 1.367962 -0.01329864
v -0.134909585 1.38478243 0.0110988375
v 0.141503021 1.37423396 0.00195256702
v 0.141953796 1.36789918 0.0172022674
v 0.225563467 1.36297393 -0.00239525316
v 0.141503021 1.37423396 0.00195256702
v 0.225980848 1.3585391 0.00828917976
v 0.141453579 1.35266781 0.0235177279
v 0.225552842 1.34786773 0.0127108712
v 0.140295088 1.33746243 0.0171994157
v 0.224531114 1.33722198 0.00827702973
v 0.139156669 1.33119011 0.00194824219
v 0.223515481 1.3328433 -0.00240190979
v 0.138705477 1.33752525 -0.0133019201
v 0.223099917 1.33727968 -0.0130653521
v 0.139206111 1.35275698 -0.0196175762
v 0.223526359 1.34792972 -0.0174850132
v 0.140365168 1.367962 -0.01329864
v 0.224546373 1.35857356 -0.01307208
v 0.141503021 1.37423396 0.00195256702
v 0.225563467 1.36297393 -0.00239525316
v -0.207750633 -1.49952722 0.0145483343
v -0.233658552 -1.5846374 0.0324058011
v -0.209243223 -1.60283935 0.0165287629
v -0.221340746 -1.47753251 0.0470981821
v -0.191006407 -0.789079428 -0.00235625263
v -0.258927554 -1.57183206 0.0274671111
v -0.203572899 -0.76278913 0.0336238407
v -0.185730353 0.000351892406 0.0206039958
v -0.212460205 0.000403165468 0.0470688939
v -0.259416819 -1.4403758 0.0463879891
v -0.243075237 -0.743564606 0.0431841128
v -0.250477105 0.000476107554 0.0463771746
v -0.275838256 0.000524786476 0.0192706343
v -0.284887314 -1.48134792 0.0191853475
v -0.273352802 -1.58662462 0.00614949688
v -0.276697487 -0.764682233 0.0219790787
v -0.283770502 -1.44452345 -0.0187311638
v -0.268396109 -1.57513499 -0.0191081613
v -0.285846561 -0.745648324 -0.0174108073
v -0.274802387 0.0005228027 -0.0185115151
v -0.247262895 0.000470003637 -0.0448660888
v -0.256169826 -1.46701813 -0.0451703928
v -0.245091259 -1.59811807 -0.0294917282
v -0.2645154 -0.757277727 -0.0521375984
v -0.219885558 -1.44987452 -0.0450688861
v -0.221727461 -1.57506633 -0.0285519827
v -0.193049967 -1.41208589 -0.0175947659
v -0.207303822 -1.56104887 -0.00723354798
v -0.209243223 -1.60283935 0.0165287629
v -0.207750633 -1.49952722 0.0145483343
v -0.191006407 -0.789079428 -0.00235625263
v -0.22706683 -0.748461008 -0.0618133657
v -0.211111918 0.000400723919 -0.0447726101
v -0.191982701 -0.728988469 -0.040697027
v -0.185730353 0.000351892406 0.0206039958
v -0.184427455 0.000349450798 -0.0174048319
v -0.227541074 1.58551359 0.0324708223
v -0.201898322 1.50582397 0.0145772314
v -0.203006342 1.60362113 0.0165616181
v -0.215611339 1.47836173 0.0471929871
v -0.198389143 0.921868086 0.0276297797
v -0.252910435 1.57280517 0.0275221393
v -0.218571201 0.891247094 0.0597976819
v -0.185730353 0.000351892406 0.0206039958
v -0.212460205 0.000403165468 0.0470688939
v -0.253907382 1.44135153 0.0464813635
v -0.259289831 0.868973076 0.0590472445
v -0.250477105 0.000476107554 0.0463771746
v -0.275838256 0.000524786476 0.0192706343
v -0.279271424 1.48242128 0.0192236081
v -0.267307729 1.58765316 0.00616135122
v -0.286340684 0.893750131 0.0300430339
v -0.278294265 1.44559288 -0.0187696647
v -0.262385339 1.5761441 -0.0191474576
v -0.28527087 0.871551037 -0.0103843827
v -0.274802387 0.0005228027 -0.0185115151
v -0.247262895 0.000470003637 -0.0448660888
v -0.250551164 1.46798122 -0.0452624373
v -0.238944933 1.59903777 -0.0295520537
v -0.255773008 0.885020912 -0.0385783389
v -0.214259729 1.45069849 -0.0451607071
v -0.215622783 1.57589686 -0.0286104102
v -0.187515691 1.41280723 -0.017630944
v -0.201224029 1.56182396 -0.00724879745
v -0.203006342 1.60362113 0.0165616181
v -0.201898322 1.50582397 0.0145772314
v -0.198389143 0.921868086 0.0276297797
v -0.217129156 0.8745718 -0.0384733491
v -0.211111918 0.000400723919 -0.0447726101
v -0.188630998 0.851709247 -0.00918364991
v -0.185730353 0.000351892406 0.0206039958
v -0.184427455 0.000349450798 -0.0174048319
v 0.198577687 -1.49080563 0.0076996563
v 0.210267276 -1.58548892 -0.0212606099
v 0.19836694 -1.60362113 0.00533555495
v 0.192303881 -1.47832572 -0.0270151664
v 0.196236372 -0.789822459 0.0302321278
v 0.234208316 -1.57277787 -0.0308468565
v 0.187267736 -0.763539016 -0.00681009749
v 0.182092503 -0.000353570387 0.0130035542
v 0.190101281 -0.000368830253 -0.0237149764
v 0.22477363 -1.44130433 -0.0471274778
v 0.215274066 -0.744443774 -0.0362964533
v 0.222380027 -0.000430785236 -0.04377193
v 0.258433461 -0.000500675291 -0.0347924605
v 0.260825813 -1.48239458 -0.0380838923
v 0.257877588 -1.58764338 -0.0207731966
v 0.254968762 -0.76570183 -0.0367317237
v 0.280681074 -1.44560671 -0.00569815142
v 0.267522752 -1.57616282 0.00310068135
v 0.284178585 -0.746741474 -0.00866376422
v 0.278152913 -0.0005385197 -0.00252492889
v 0.269404799 -0.000521733833 0.0345405601
v 0.271848202 -1.46803081 0.0314950421
v 0.253543586 -1.59907436 0.0244891401
v 0.285161406 -0.758331835 0.0320692398
v 0.24140583 -1.45075941 0.0510887168
v 0.233507589 -1.57593942 0.0363594182
v 0.204049036 -1.41284728 0.0425616764
v 0.209836289 -1.561849 0.0262850523
v 0.19836694 -1.60362113 0.00533555495
v 0.198577687 -1.49080563 0.0076996563
v 0.196236372 -0.789822459 0.0302321278
v 0.259040475 -0.749393165 0.0605083704
v 0.239017859 -0.00046267829 0.0540865846
v 0.218161717 -0.729775369 0.0618133657
v 0.182092503 -0.000353570387 0.0130035542
v 0.201711684 -0.000391109614 0.0456062928
v 0.216324434 1.58466244 -0.0213086735
v 0.204271883 1.50334501 0.00771027058
v 0.204469919 1.60283959 0.00534133427
v 0.197911561 1.47756863 -0.0270748697
v 0.192149773 0.921119213 -0.000727415085
v 0.240264863 1.57185936 -0.0309143346
v 0.191447482 0.890460789 -0.0386451446
v 0.182092503 -0.000353570387 0.0130035542
v 0.190101281 -0.000368830253 -0.0237149764
v 0.230304256 1.44042265 -0.047227893
v 0.225946352 0.86804229 -0.0600961149
v 0.222380027 -0.000430785236 -0.04377193
v 0.258433461 -0.000500675291 -0.0347924605
v 0.266587555 1.4813745 -0.0381660014
v 0.264039129 1.58663416 -0.0208202787
v 0.264539093 0.89269346 -0.0504672602
v 0.286341041 1.4445101 -0.00571466424
v 0.273659527 1.57511628 0.00310193538
v 0.285593212 0.870455921 -0.0159383155
v 0.278152913 -0.0005385197 -0.00252492889
v 0.269404799 -0.000521733833 0.0345405601
v 0.277576894 1.4669683 0.0315538272
v 0.259740412 1.59808099 0.0245337244
v 0.276251942 0.884000361 0.0237196293
v 0.247006521 1.44981408 0.0511871763
v 0.239574865 1.57502341 0.0364280269
v 0.209428176 1.4120456 0.0426428914
v 0.215801552 1.56102383 0.0263332799
v 0.204469919 1.60283959 0.00534133427
v 0.204271883 1.50334501 0.00771027058
v 0.192149773 0.921119213 -0.000727415085
v 0.243730009 0.873687863 0.0446201079
v 0.239017859 -0.00046267829 0.0540865846
v 0.203773916 0.850956559 0.0355354249
v 0.182092503 -0.000353570387 0.0130035542
v 0.201711684 -0.000391109614 0.0456062928
v 0.273659527 1.57511628 0.00310193538
v 0.264039129 1.58663416 -0.0208202787
v 0.236828059 1.58827972 0.000907196954
v 0.259740412 1.59808099 0.0245337244
v 0.240264863 1.57185936 -0.0309143346
v 0.239574865 1.57502341 0.0364280269
v 0.216324434 1.58466244 -0.0213086735
v 0.215801552 1.56102383 0.0263332799
v 0.204469919 1.60283959 0.00534133427
v 0.267522752 -1.57616282 0.00310068135
v 0.230715424 -1.58918464 0.00091036316
v 0.257877588 -1.58764338 -0.0207731966
v 0.253543586 -1.59907436 0.0244891401
v 0.234208316 -1.57277787 -0.0308468565
v 0.233507589 -1.57593942 0.0363594182
v 0.210267276 -1.58548892 -0.0212606099
v 0.209836289 -1.561849 0.0262850523
v 0.19836694 -1.60362113 0.00533555495
v -0.262385339 1.5761441 -0.0191474576
v -0.267307729 1.58765316 0.00616135122
v -0.232627615 1.58917964 0.00270185946
v -0.238944933 1.59903777 -0.0295520537
v -0.252910435 1.57280517 0.0275221393
v -0.215622783 1.57589686 -0.0286104102
v -0.227541074 1.58551359 0.0324708223
v -0.201224029 1.56182396 -0.00724879745
v -0.203006342 1.60362113 0.0165616181
v -0.268396109 -1.57513499 -0.0191081613
v -0.238748848 -1.58828425 0.00269701006
v -0.273352802 -1.58662462 0.00614949688
v -0.245091259 -1.59811807 -0.0294917282
v -0.258927554 -1.57183206 0.0274671111
v -0.221727461 -1.57506633 -0.0285519827
v -0.233658552 -1.5846374 0.0324058011
v -0.207303822 -1.56104887 -0.00723354798
v -0.209243223 -1.60283935 0.0165287629
vn 0.048576612 0.715089798 -0.697342753
vn 0.0268450677 0.99963963 5.19969835E-05
vn 0.0356479511 0.999364436 -4.68860126E-05
vn 0.0317687057 0.703143537 -0.710337877
vn 0.0178222433 0.999841213 2.17243214E-05
vn 0.0781686753 0.0157851782 -0.996815145
vn 0.00205083424 0.70274061 -0.711443186
vn 0.0405791216 -0.00837759115 -0.999141216
vn 0.107278436 -0.696206689 -0.709779978
vn -0.0377851427 -0.00853653159 -0.999249399
vn 0.0475949347 -0.711051702 -0.701527178
vn 0.118551187 -0.992947936 8.23874216E-05
vn -0.0773726329 -0.709084213 -0.700865984
vn 0.0492030121 -0.998788774 9.52935152E-05
vn 0.105307668 -0.696294188 0.709989369
vn -0.0943972692 -0.995534539 -0.000190774692
vn 0.0449819155 -0.711041451 0.701709867
vn 0.0753338784 0.0157829691 0.997033477
vn -0.0799114928 -0.709104717 0.700560212
vn 0.0368785411 -0.00836191885 0.999284804
vn 0.0465468131 0.715188563 0.697379947
vn -0.0413989909 -0.00854008365 0.999106109
vn 0.0291538443 0.703144729 0.710448861
vn 0.0356479511 0.999364436 -4.68860126E-05
vn -0.000516535423 0.702753186 0.71143353
vn 0.0268450677 0.99963963 5.19969835E-05
vn 0.0178222433 0.999841213 2.17243214E-05
vn 0.00205083424 0.70274061 -0.711443186
vn 0.0175388921 0.99984622 0.000123970196
vn 0.0178222433 0.999841213 2.17243214E-05
vn -0.00869667437 0.716078281 -0.697965682
vn -0.0377851427 -0.00853653159 -0.999249399
vn -0.075148657 0.0188631993 -0.996993899
vn -0.0773726329 -0.709084213 -0.700865984
vn -0.143328041 -0.68985796 -0.709614754
vn -0.0943972692 -0.995534539 -0.000190774692
vn -0.172543362 -0.985001862 -0.000222373812
vn -0.0799114928 -0.709104717 0.700560212
vn -0.145500243 -0.689811945 0.70921731
vn -0.0413989909 -0.00854008365 0.999106109
vn -0.0782114416 0.0188466422 0.99675864
vn -0.000516535423 0.702753186 0.71143353
vn -0.0108534461 0.715983808 0.698032439
vn 0.0178222433 0.999841213 2.17243214E-05
vn 0.0175388921 0.99984622 0.000123970196
vn -0.0775233433 0.705599844 0.704357088
vn -0.0365580134 0.999331594 -9.96409508E-05
vn -0.0757031515 0.997130454 -8.97070713E-05
vn -0.038410753 0.707142234 0.70602715
vn 0.0411929153 0.99915123 0.000100835154
vn -0.079443939 0.000151590531 0.996839285
vn 0.0394146405 0.706940413 0.706173897
vn -0.0403246433 7.52107226E-05 0.999186575
vn -0.0802298263 -0.705300927 0.704353511
vn 0.0375743955 -7.2045179E-05 0.999293804
vn -0.0411243699 -0.706988215 0.70602864
vn -0.0795286 -0.99683255 -8.90026204E-05
vn 0.03670194 -0.707086682 0.706173658
vn -0.0403934643 -0.999183834 -9.48509187E-05
vn -0.0778572634 -0.705345333 -0.704575121
vn 0.0373593234 -0.99930191 9.67077649E-05
vn -0.0386128128 -0.706967592 -0.706191063
vn -0.0760846883 0.000145605329 -0.997101247
vn 0.0392107628 -0.707118034 -0.706007421
vn -0.0367706679 6.51813025E-05 -0.999323726
vn -0.0751499608 0.705635488 -0.704578638
vn 0.041124478 -7.95650558E-05 -0.999154091
vn -0.0358988121 0.707106352 -0.706195414
vn -0.0757031515 0.997130454 -8.97070713E-05
vn 0.0419234969 0.706964612 -0.706005216
vn -0.0365580134 0.999331594 -9.96409508E-05
vn 0.0411929153 0.99915123 0.000100835154
vn 0.0394146405 0.706940413 0.706173897
vn 0.0811558887 0.996701419 8.99727529E-05
vn 0.0411929153 0.99915123 0.000100835154
vn 0.0794897452 0.705250144 0.704488099
vn 0.0375743955 -7.2045179E-05 0.999293804
vn 0.0777209178 -0.000148227162 0.996975183
vn 0.03670194 -0.707086682 0.706173658
vn 0.0767822415 -0.705548644 0.704489589
vn 0.0373593234 -0.99930191 9.67077649E-05
vn 0.0773304477 -0.997005522 9.19658924E-05
vn 0.0392107628 -0.707118034 -0.706007421
vn 0.0791485757 -0.705512702 -0.704263628
vn 0.041124478 -7.95650558E-05 -0.999154091
vn 0.0810691342 -0.000155456306 -0.996708393
vn 0.0419234969 0.706964612 -0.706005216
vn 0.0818555579 0.705203414 -0.704263985
vn 0.0411929153 0.99915123 0.000100835154
vn 0.0811558887 0.996701419 8.99727529E-05
vn 0.142177746 0.70117116 -0.698673248
vn 0.0668271407 0.997764587 0.000138951611
vn 0.112056635 0.993694127 0.00389003335
vn 0.0921648815 0.704451799 -0.703742266
vn -0.0119941765 0.999927998 0.000458425609
vn 0.135450929 -0.00376267754 -0.990776896
vn 0.0135879433 0.707502067 -0.706580579
vn 0.0866186768 -0.00135503174 -0.996240616
vn 0.0956851617 -0.707755089 -0.699947834
vn 0.00779327611 -0.00149345247 -0.999968529
vn 0.0532871932 -0.707217336 -0.704985261
vn 0.0462435856 -0.998927534 0.00230701501
vn -0.0259622876 -0.708204508 -0.705529809
vn 0.0117329434 -0.999931097 -0.000399171928
vn 0.0160102583 -0.707046688 0.706985652
vn -0.0677116513 -0.997704923 -0.000109203545
vn -0.0137013094 -0.707492888 0.706587613
vn 0.0228667371 2.43215363E-05 0.999738514
vn -0.0931714326 -0.704404593 0.703656912
vn -0.0080069704 0.00143149938 0.999966979
vn 0.0627451763 0.704644024 0.706781328
vn -0.0874732286 0.0012977157 0.99616611
vn 0.0254202634 0.708157837 0.705596507
vn 0.112056635 0.993694127 0.00389003335
vn -0.0538398139 0.707147956 0.705012798
vn 0.0668271407 0.997764587 0.000138951611
vn -0.0119941765 0.999927998 0.000458425609
vn 0.0135879433 0.707502067 -0.706580579
vn -0.0471467376 0.998884499 -0.00262888661
vn -0.0119941765 0.999927998 0.000458425609
vn -0.0163340624 0.706958354 -0.707066476
vn 0.00779327611 -0.00149345247 -0.999968529
vn -0.0231112465 3.71405404E-05 -0.999732912
vn -0.0259622876 -0.708204508 -0.705529809
vn -0.063342087 -0.704475939 -0.70689553
vn -0.0677116513 -0.997704923 -0.000109203545
vn -0.113261566 -0.99355644 -0.00418091193
vn -0.0931714326 -0.704404593 0.703656912
vn -0.144013673 -0.701135814 0.698332846
vn -0.0874732286 0.0012977157 0.99616611
vn -0.137535989 0.00384984328 0.990489244
vn -0.0538398139 0.707147956 0.705012798
vn -0.097364895 0.707885921 0.699583828
vn -0.0119941765 0.999927998 0.000458425609
vn -0.0471467376 0.998884499 -0.00262888661
vn -0.0119885346 0.717264354 0.69669801
vn -0.0384392664 0.999260008 -0.00135131809
vn -0.0373626016 0.999301553 -0.000668894383
vn -0.00773072941 0.703224003 0.710926414
vn 0.0061112335 0.999980688 0.00110811391
vn -0.0251203068 0.0179390498 0.999523401
vn 0.0472798161 0.708347082 0.704279065
vn 0.00419615908 -0.0102726677 0.999938488
vn -0.0700947493 -0.695700169 0.71490413
vn 0.0841337293 0.00395021355 0.996446669
vn -0.00893690623 -0.713017523 0.701089203
vn -0.120310083 -0.992714345 0.00660640979
vn 0.09510196 -0.702830195 0.70497191
vn -0.0393671505 -0.999224544 0.000744096702
vn -0.145887345 -0.696698248 -0.702373445
vn 0.0738177299 -0.997271717 -0.000295495527
vn -0.0700920895 -0.712529421 -0.698132515
vn -0.131618276 0.0144812735 -0.991194725
vn 0.0326910689 -0.706414521 -0.707043111
vn -0.0831203312 -0.0125058983 -0.996460974
vn -0.0864500776 0.713844895 -0.694947362
vn -0.00432719756 0.00157057168 -0.99998939
vn -0.0699658096 0.69967097 -0.711031199
vn -0.0373626016 0.999301553 -0.000668894383
vn -0.0153361857 0.709122956 -0.704918027
vn -0.0384392664 0.999260008 -0.00135131809
vn 0.0061112335 0.999980688 0.00110811391
vn 0.0472798161 0.708347082 0.704279065
vn 0.0519142449 0.998648226 -0.00258120568
vn 0.0061112335 0.999980688 0.00110811391
vn 0.0984769985 0.70753336 0.699784935
vn 0.0841337293 0.00395021355 0.996446669
vn 0.134565607 0.00338503439 0.990898848
vn 0.09510196 -0.702830195 0.70497191
vn 0.138947219 -0.701708198 0.698784053
vn 0.0738177299 -0.997271717 -0.000295495527
vn 0.109176442 -0.994014561 -0.00395196769
vn 0.0326910689 -0.706414521 -0.707043111
vn 0.0627222061 -0.704613328 -0.706813872
vn -0.00432719756 0.00157057168 -0.99998939
vn 0.0265613738 3.20758045E-05 -0.99964726
vn -0.0153361857 0.709122956 -0.704918027
vn 0.0220713671 0.706848323 -0.707020819
vn 0.0061112335 0.999980688 0.00110811391
vn 0.0519142449 0.998648226 -0.00258120568
vn 0.0702188089 0.715179026 -0.695405066
vn 0.0174002405 0.999847531 -0.00144513405
vn 0.0114709437 0.999933243 -0.00140605413
vn 0.0578626506 0.700408697 -0.711392701
vn -0.0271923505 0.999629974 0.000734552566
vn 0.134283632 0.0171973128 -0.990793645
vn 0.00284348894 0.709846437 -0.704350829
vn 0.0871219188 -0.011740542 -0.99612844
vn 0.165897906 -0.69317919 -0.701413274
vn 0.00793259963 0.00297185732 -0.999964118
vn 0.0877883211 -0.71144712 -0.69723469
vn 0.14588961 -0.989272356 0.00751630869
vn -0.015092236 -0.706387818 -0.707664132
vn 0.0605434589 -0.998164952 0.00113649317
vn 0.0860875845 -0.693934202 0.714873612
vn -0.0525909215 -0.998616099 -0.000383884646
vn 0.0215138644 -0.713203788 0.700626493
vn 0.0217406861 0.0176859926 0.999607265
vn -0.0825605989 -0.704208553 0.705176592
vn -0.00755359279 -0.0116326818 0.999903798
vn -0.00879850518 0.717211425 0.696800053
vn -0.0875036791 0.00313557056 0.996159196
vn -0.0096618291 0.702655315 0.711464822
vn 0.0114709437 0.999933243 -0.00140605413
vn -0.0645460412 0.707855046 0.703402519
vn 0.0174002405 0.999847531 -0.00144513405
vn -0.0271923505 0.999629974 0.000734552566
vn 0.00284348894 0.709846437 -0.704350829
vn -0.0785084069 0.996907651 -0.00339718116
vn -0.0271923505 0.999629974 0.000734552566
vn -0.0386690348 0.706246853 -0.706908822
vn 0.00793259963 0.00297185732 -0.999964118
vn -0.0232000612 3.02441495E-05 -0.999730766
vn -0.015092236 -0.706387818 -0.707664132
vn -0.0412651859 -0.706127286 -0.706881583
vn -0.0525909215 -0.998616099 -0.000383884646
vn -0.0821198523 -0.996616781 -0.00335470703
vn -0.0825605989 -0.704208553 0.705176592
vn -0.121941268 -0.704735518 0.698912144
vn -0.0875036791 0.00313557056 0.996159196
vn -0.137473717 0.000222270974 0.990505397
vn -0.0645460412 0.707855046 0.703402519
vn -0.119427338 0.705161214 0.698916733
vn -0.0271923505 0.999629974 0.000734552566
vn -0.0785084069 0.996907651 -0.00339718116
vn -0.117205277 0.700678647 0.703784347
vn -0.0825652629 0.996585608 -0.000167438528
vn -0.131405443 0.991328657 -0.000131431909
vn -0.071216248 0.705550492 0.705072224
vn -0.00410923036 0.999991536 2.50867561E-05
vn -0.080625385 -0.00273321546 0.996740758
vn 0.00763989147 0.706890881 0.707281351
vn -0.041074045 0.00029827666 0.999155998
vn -0.0428774804 -0.707579136 0.705332041
vn 0.0383761488 -0.000355134078 0.999263346
vn -0.0097070951 -0.70697093 0.707176089
vn -0.0262552202 -0.999655247 3.79698176E-05
vn 0.0699417442 -0.705484092 0.705266178
vn 0.00436075032 -0.999990463 -1.01580927E-05
vn -0.0406853557 -0.707686782 -0.705353856
vn 0.0839300454 -0.996471643 0.000200999551
vn -0.00716278143 -0.706969202 -0.707208157
vn -0.0775948837 -0.00281770318 -0.996980965
vn 0.0723369941 -0.705549061 -0.704959452
vn -0.037453454 0.000256207859 -0.999298334
vn -0.115112305 0.700713694 -0.704094827
vn 0.0417912006 -0.000378963188 -0.999126256
vn -0.0686450228 0.705519974 -0.705357611
vn -0.131405443 0.991328657 -0.000131431909
vn 0.0100701395 0.706920505 -0.707221329
vn -0.0825652629 0.996585608 -0.000167438528
vn -0.00410923036 0.999991536 2.50867561E-05
vn 0.00763989147 0.706890881 0.707281351
vn 0.0267686583 0.999641657 8.15105159E-06
vn -0.00410923036 0.999991536 2.50867561E-05
vn 0.0413815081 0.707797527 0.705202401
vn 0.0383761488 -0.000355134078 0.999263346
vn 0.0789629966 0.00316358404 0.996872604
vn 0.0699417442 -0.705484092 0.705266178
vn 0.117310755 -0.700273395 0.704169989
vn 0.0839300454 -0.996471643 0.000200999551
vn 0.134172827 -0.990957856 0.000244780065
vn 0.0723369941 -0.705549061 -0.704959452
vn 0.119881175 -0.700261414 -0.703748882
vn 0.0417912006 -0.000378963188 -0.999126256
vn 0.0825342834 0.00317621976 -0.996583164
vn 0.0100701395 0.706920505 -0.707221329
vn 0.0438644886 0.707769275 -0.705080628
vn -0.00410923036 0.999991536 2.50867561E-05
vn 0.0267686583 0.999641657 8.15105159E-06
vn 0.0710568726 0.71374917 -0.696787715
vn 0.0522084497 0.998636186 9.60932666E-05
vn 0.0663180426 0.997798502 -1.53870333E-05
vn 0.0499486513 0.702527821 -0.709901214
vn 0.0431280248 0.999069631 6.66215346E-05
vn 0.0806691945 0.0145658096 -0.996634543
vn 0.0194626004 0.701667428 -0.712238789
vn 0.0414749235 -0.00851560663 -0.999103308
vn 0.0895118043 -0.698243558 -0.710241973
vn -0.0390832387 -0.00883577857 -0.999196947
vn 0.03140736 -0.711507201 -0.701976538
vn 0.0923962295 -0.995722294 -1.33776109E-06
vn -0.0968699604 -0.707233965 -0.700311601
vn 0.0260055494 -0.999661803 4.1517007E-05
vn 0.0876672938 -0.698384225 0.710333586
vn -0.121262744 -0.992620349 -0.000252821657
vn 0.0287572015 -0.711509347 0.702087879
vn 0.0780270621 0.0145091591 0.996845543
vn -0.0993480161 -0.707268 0.699929893
vn 0.0377187468 -0.00849881116 0.99925226
vn 0.069174625 0.713836789 0.696887314
vn -0.0426355265 -0.00882860273 0.99905163
vn 0.0472910479 0.702537119 0.710073948
vn 0.0663180426 0.997798502 -1.53870333E-05
vn 0.0169145558 0.701685905 0.712285578
vn 0.0522084497 0.998636186 9.60932666E-05
vn 0.0431280248 0.999069631 6.66215346E-05
vn 0.0194626004 0.701667428 -0.712238789
vn 0.0481415503 0.998840511 0.000191607673
vn 0.0431280248 0.999069631 6.66215346E-05
vn 0.0126344217 0.715662718 -0.698331833
vn -0.0390832387 -0.00883577857 -0.999196947
vn -0.0763594955 0.0210409444 -0.996858358
vn -0.0968699604 -0.707233965 -0.700311601
vn -0.167296663 -0.68449086 -0.709566057
vn -0.121262744 -0.992620349 -0.000252821657
vn -0.206060588 -0.978539169 -0.000331096788
vn -0.0993480161 -0.707268 0.699929893
vn -0.169619516 -0.684469581 0.70903492
vn -0.0426355265 -0.00882860273 0.99905163
vn -0.0795465261 0.0210396033 0.996609092
vn 0.0169145558 0.701685905 0.712285578
vn 0.0104436222 0.715563774 0.698469281
vn 0.0431280248 0.999069631 6.66215346E-05
vn 0.0481415503 0.998840511 0.000191607673
vn -0.0401454233 0.706407428 0.706666112
vn -0.0373251513 0.999303102 -0.000310685456
vn -0.0769059286 0.997034311 0.00285999104
vn -0.00697433343 0.708176911 0.706000626
vn 0.0419794023 0.999118388 0.000398996053
vn -0.0260386858 6.67249551E-05 0.999660969
vn 0.0726694465 0.705899119 0.704574704
vn 0.00452974066 1.65543952E-06 0.999989748
vn -0.0430006683 -0.7062006 0.706704795
vn 0.0842461959 -0.00013567842 0.996445
vn -0.00963714439 -0.70812583 0.706020415
vn -0.0810023397 -0.996709704 0.00291275629
vn 0.0698724911 -0.706159711 0.704596519
vn -0.0410611406 -0.999156594 -0.000299240608
vn -0.117831007 -0.704738677 -0.699613571
vn 0.0380441993 -0.999275982 0.000384949992
vn -0.0713732839 -0.705986559 -0.704619586
vn -0.131916344 0.000299941865 -0.991260827
vn 0.00733745424 -0.708212078 -0.705961525
vn -0.0828768834 0.000175643392 -0.99655968
vn -0.114887103 0.705235124 -0.699603021
vn -0.00428045588 1.27839949E-05 -0.999990821
vn -0.0687483475 0.706267774 -0.704598844
vn -0.0769059286 0.997034311 0.00285999104
vn 0.0101102646 0.708189905 -0.705949605
vn -0.0373251513 0.999303102 -0.000310685456
vn 0.0419794023 0.999118388 0.000398996053
vn 0.0726694465 0.705899119 0.704574704
vn 0.0823632553 0.996597111 -0.00325292954
vn 0.0419794023 0.999118388 0.000398996053
vn 0.120031744 0.704799294 0.699178338
vn 0.0842461959 -0.00013567842 0.996445
vn 0.134697482 -0.000207246572 0.990886688
vn 0.0698724911 -0.706159711 0.704596519
vn 0.117570415 -0.705207825 0.699184597
vn 0.0380441993 -0.999275982 0.000384949992
vn 0.0788122565 -0.996883929 -0.00330231618
vn 0.00733745424 -0.708212078 -0.705961525
vn 0.041127611 -0.706170619 -0.706846178
vn -0.00428045588 1.27839949E-05 -0.999990821
vn 0.0265472233 -3.04571313E-05 -0.999647617
vn 0.0101102646 0.708189905 -0.705949605
vn 0.0436911806 0.706047893 -0.706815004
vn 0.0419794023 0.999118388 0.000398996053
vn 0.0823632553 0.996597111 -0.00325292954
vn -0.00749962172 0.715396583 -0.698678374
vn -0.0281787086 0.999602973 -3.7971462E-05
vn -0.043663051 0.999046266 -0.000177095877
vn -0.00655628601 0.70061779 -0.71350652
vn -0.0730378032 0.997329235 -0.000149464482
vn 0.078637667 0.0202195812 -0.99669826
vn -0.0620796941 0.707522392 -0.703958988
vn 0.0420097709 -0.0118195573 -0.99904722
vn 0.164724931 -0.685691833 -0.709008098
vn -0.0381217264 0.00332901883 -0.999267519
vn 0.0879245996 -0.709816396 -0.698877633
vn 0.199468493 -0.979904175 0.000334090844
vn -0.015129488 -0.705525637 -0.708522916
vn 0.105453216 -0.994424284 0.000224836316
vn 0.162335172 -0.685708344 0.709543109
vn -0.00665786536 -0.999977827 -2.65927156E-05
vn 0.0854944512 -0.709770918 0.699225187
vn 0.0753678977 0.0202191789 0.996950746
vn -0.0177222081 -0.705532312 0.708456159
vn 0.0385168269 -0.0117947962 0.999188364
vn -0.00973806344 0.71548301 0.698562324
vn -0.0418035798 0.00335455104 0.999120176
vn -0.00907049514 0.700609744 0.713487029
vn -0.043663051 0.999046266 -0.000177095877
vn -0.0646899119 0.707546592 0.703699589
vn -0.0281787086 0.999602973 -3.7971462E-05
vn -0.0730378032 0.997329235 -0.000149464482
vn -0.0620796941 0.707522392 -0.703958988
vn -0.13368237 0.991024256 -0.000119811768
vn -0.0730378032 0.997329235 -0.000149464482
vn -0.117160775 0.700373113 -0.704095721
vn -0.0381217264 0.00332901883 -0.999267519
vn -0.0790121779 -0.00312861614 -0.99686867
vn -0.015129488 -0.705525637 -0.708522916
vn -0.0414396934 -0.707812309 -0.705183983
vn -0.00665786536 -0.999977827 -2.65927156E-05
vn -0.0267064665 -0.999643326 5.13766063E-05
vn -0.0177222081 -0.705532312 0.708456159
vn -0.0435667038 -0.707693934 0.705174685
vn -0.0418035798 0.00335455104 0.999120176
vn -0.0819494128 -0.00303522008 0.996631801
vn -0.0646899119 0.707546592 0.703699589
vn -0.119182244 0.700335264 0.703794122
vn -0.0730378032 0.997329235 -0.000149464482
vn -0.13368237 0.991024256 -0.000119811768
vn 0.000134689268 0.707440317 0.706773043
vn 0.0094542997 0.999955058 -0.000669816334
vn -0.0196444448 0.999806821 0.000747185084
vn 0.0255191084 0.706624508 0.707128406
vn 0.0852375478 0.9963606 -6.51416121E-05
vn -0.0255917497 6.06082867E-05 0.999672413
vn 0.101016164 0.703185976 0.703793466
vn 0.00405933987 -0.00258587277 0.999988437
vn -0.0814276263 -0.703202784 0.706311047
vn 0.0798586085 -0.00204828358 0.996804118
vn -0.0421249308 -0.70787555 0.705079913
vn -0.134420097 -0.990919113 0.00325360289
vn 0.0340076014 -0.707544506 0.705850065
vn -0.0858739391 -0.996306062 -2.07924558E-07
vn -0.153938562 -0.6977759 -0.699579716
vn -0.00965949055 -0.999953151 0.000581939297
vn -0.101900607 -0.703082025 -0.703769863
vn -0.128531009 0.00639196951 -0.991684914
vn -0.0255263392 -0.70659256 -0.707159996
vn -0.080748342 0.00204935367 -0.996732473
vn -0.0729562044 0.708896756 -0.701528847
vn -0.00413499447 0.0025520944 -0.999988198
vn -0.0346029475 0.707489252 -0.70587647
vn -0.0196444448 0.999806821 0.000747185084
vn 0.0418047085 0.707845867 -0.705128729
vn 0.0094542997 0.999955058 -0.000669816334
vn 0.0852375478 0.9963606 -6.51416121E-05
vn 0.101016164 0.703185976 0.703793466
vn 0.132469565 0.991182327 -0.00304131326
vn 0.0852375478 0.9963606 -6.51416121E-05
vn 0.152089596 0.69809413 0.699666619
vn 0.0798586085 -0.00204828358 0.996804118
vn 0.127343968 -0.00605402701 0.991840124
vn 0.0340076014 -0.707544506 0.705850065
vn 0.072464332 -0.70877564 0.701702237
vn -0.00965949055 -0.999953151 0.000581939297
vn 0.0196053926 -0.999807656 -0.000667698856
vn -0.0255263392 -0.70659256 -0.707159996
vn -0.000106573054 -0.707406104 -0.706807435
vn -0.00413499447 0.0025520944 -0.999988198
vn 0.0251417886 0.000225080264 -0.999683857
vn 0.0418047085 0.707845867 -0.705128729
vn 0.0801106021 0.70356822 -0.706097841
vn 0.0852375478 0.9963606 -6.51416121E-05
vn 0.132469565 0.991182327 -0.00304131326
vn 0.892433763 -0.0525978133 0.448102057
vn 0.32914719 -0.0586984754 0.942452431
vn 0.763290942 -0.0195822082 0.645758092
vn 0.485519052 -0.0958146974 0.868959546
vn 0.987304389 -0.0100301551 0.158522785
vn -0.521571994 -0.140269458 0.841598034
vn 0.667790651 -0.0124411695 0.744245112
vn 0.917264521 -0.0042787767 0.398255646
vn 0.373310506 -0.00791320764 0.927672684
vn -0.398891181 -0.0225316565 0.916721463
vn -0.166337654 -0.000983138685 0.986068368
vn -0.406748235 -0.0127289817 0.913451612
vn -0.933952451 -0.00662488677 0.357335687
vn -0.92601186 -0.08683227 0.367372096
vn -0.973967552 -0.145882785 0.173508897
vn -0.818649709 0.00582591537 0.574263692
vn -0.917347312 -0.0283764843 -0.397075266
vn -0.786487103 -0.134946793 -0.602683425
vn -0.986139774 0.0073934379 -0.16575183
vn -0.913119137 0.00288364245 -0.407682657
vn -0.371987462 0.010265098 -0.928181052
vn -0.36520046 -0.0764999911 -0.92778039
vn -0.188192502 -0.143510833 -0.971590579
vn -0.590624094 0.000514080515 -0.806946695
vn 0.428338796 -0.065589264 -0.901234627
vn 0.424545765 -0.13512665 -0.895266235
vn 0.982378066 -0.0279121269 -0.184808835
vn 0.953684509 -0.110709794 -0.279694587
vn 0.763290942 -0.0195822082 0.645758092
vn 0.892433763 -0.0525978133 0.448102057
vn 0.987304389 -0.0100301551 0.158522785
vn 0.147544056 -0.00960702077 -0.989008844
vn 0.391286165 0.0148465773 -0.920149267
vn 0.859448373 -0.0057960432 -0.51118964
vn 0.917264521 -0.0042787767 0.398255646
vn 0.933776796 0.00484019984 -0.357823402
vn 0.329213977 0.0586851016 0.9424299
vn 0.887561381 0.0528947711 0.457642704
vn 0.763371885 0.0163313188 0.645752788
vn 0.48267746 0.0998582989 0.87008673
vn 0.916698694 0.00566477701 0.399539113
vn -0.520977557 0.14255558 0.84158206
vn 0.465769351 0.00975297857 0.884852409
vn 0.917264521 -0.0042787767 0.398255646
vn 0.373310506 -0.00791320764 0.927672684
vn -0.404719144 0.050099574 0.913067639
vn -0.408220232 -0.00343340472 0.912877083
vn -0.406748235 -0.0127289817 0.913451612
vn -0.933952451 -0.00662488677 0.357335687
vn -0.925166845 0.0964776129 0.367094368
vn -0.973353326 0.149920225 0.173514321
vn -0.933584094 0.00719728786 0.358286023
vn -0.910302818 0.0322801732 -0.412682414
vn -0.785951555 0.138233006 -0.60263741
vn -0.916023135 -0.00290513318 -0.40111503
vn -0.913119137 0.00288364245 -0.407682657
vn -0.371987462 0.010265098 -0.928181052
vn -0.364809901 0.0702302605 -0.928429544
vn -0.187604949 0.144515738 -0.971555233
vn -0.37381953 -0.00307305949 -0.927496314
vn 0.423392355 0.0540414304 -0.904333174
vn 0.425268769 0.133752555 -0.895129442
vn 0.979307711 0.0183684286 -0.201541677
vn 0.9540869 0.107253179 -0.279669195
vn 0.763371885 0.0163313188 0.645752788
vn 0.887561381 0.0528947711 0.457642704
vn 0.916698694 0.00566477701 0.399539113
vn 0.388520718 -0.00283282646 -0.921435595
vn 0.391286165 0.0148465773 -0.920149267
vn 0.965624273 0.0071534859 -0.259843439
vn 0.917264521 -0.0042787767 0.398255646
vn 0.933776796 0.00484019984 -0.357823402
vn -0.990887403 -0.0437320843 0.127396047
vn -0.788929701 -0.0550148003 -0.612015784
vn -0.99189502 -0.0167402383 -0.125952214
vn -0.882418752 -0.0997225121 -0.459774375
vn -0.91437012 -0.00637149438 0.404829115
vn -0.0198527593 -0.141144633 -0.989789903
vn -0.965276062 -0.00930452906 -0.261066407
vn -0.986222208 -0.000615067547 0.165425122
vn -0.817748845 -0.00562682003 -0.575547755
vn -0.163266599 -0.0229806788 -0.986314297
vn -0.396085083 -0.00054794387 -0.918213665
vn -0.154845685 -0.0132085234 -0.987850368
vn 0.589192271 -0.00954776723 -0.80793649
vn 0.576838613 -0.0896259397 -0.811926425
vn 0.722075224 -0.14901939 -0.675574183
vn 0.374811888 0.00352444663 -0.927094221
vn 0.985534906 -0.0320569091 -0.166413292
vn 0.987322032 -0.138467804 0.0776005462
vn 0.917410612 0.00373262074 -0.397924513
vn 0.98787564 -0.00077522191 -0.155245319
vn 0.816920042 0.00798472296 0.576695681
vn 0.810701966 -0.0788440183 0.580125868
vn 0.68543458 -0.145314842 0.713486373
vn 0.934585929 -0.00242684688 0.355729073
vn 0.129876181 -0.0649731085 0.989399195
vn 0.129370227 -0.134515479 0.98243022
vn -0.724715054 -0.0245890822 0.688609779
vn -0.648272276 -0.107520156 0.753778756
vn -0.99189502 -0.0167402383 -0.125952214
vn -0.990887403 -0.0437320843 0.127396047
vn -0.91437012 -0.00637149438 0.404829115
vn 0.41344133 -0.0101137189 0.910474539
vn 0.171463042 0.0152667873 0.985072196
vn -0.443232 -0.00328473374 0.896400928
vn -0.986222208 -0.000615067547 0.165425122
vn -0.588793337 0.00776369218 0.808246315
vn -0.788549304 0.0605042577 -0.611987948
vn -0.993104041 0.0558475628 0.103079192
vn -0.99181962 0.0198269878 -0.126097724
vn -0.878215313 0.103472985 -0.466938198
vn -0.986373186 0.00933251251 0.164258048
vn -0.0193408784 0.141498506 -0.989749491
vn -0.872074187 0.0123414164 -0.489218116
vn -0.986222208 -0.000615067547 0.165425122
vn -0.817748845 -0.00562682003 -0.575547755
vn -0.156085715 0.0496136695 -0.986496627
vn -0.153280437 -0.00392055698 -0.988174915
vn -0.154845685 -0.0132085234 -0.987850368
vn 0.589192271 -0.00954776723 -0.80793649
vn 0.576929152 0.0934811085 -0.811427176
vn 0.722606063 0.146524534 -0.675552487
vn 0.588419676 0.00425704289 -0.808544517
vn 0.988339424 0.028628163 -0.149551287
vn 0.987815142 0.13492398 0.0775677636
vn 0.986715853 -0.00656800158 -0.162322715
vn 0.98787564 -0.00077522191 -0.155245319
vn 0.816920042 0.00798472296 0.576695681
vn 0.811247945 0.0680404827 0.580729961
vn 0.685944796 0.142957464 0.713472426
vn 0.818038464 -0.00537211029 0.575138509
vn 0.136141092 0.0545503013 0.989186466
vn 0.129640713 0.134279937 0.982426763
vn -0.71214956 0.0216338225 0.70169425
vn -0.647847891 0.110233419 0.753751695
vn -0.99181962 0.0198269878 -0.126097724
vn -0.993104041 0.0558475628 0.103079192
vn -0.986373186 0.00933251251 0.164258048
vn 0.174415454 -0.00241700839 0.984669268
vn 0.171463042 0.0152667873 0.985072196
vn -0.668762207 0.0102924323 0.743405044
vn -0.986222208 -0.000615067547 0.165425122
vn -0.588793337 0.00776369218 0.808246315
vn 0.340631902 0.929367721 -0.142286703
vn 0.0133113666 0.998173714 -0.0589249246
vn 0.0485960282 0.998814344 0.00288697053
vn -0.212944537 0.958213449 -0.191001356
vn -0.0354913585 0.886536062 -0.46129629
vn -0.599957108 0.733232439 0.320033759
vn 0.306945384 0.85296917 -0.422170699
vn -0.217136547 0.750163913 0.624584615
vn 0.425352097 0.854500294 0.298169225
vn 0.337648213 -0.930438161 -0.142402872
vn 0.0449092127 -0.998987019 0.0028208571
vn 0.00952281337 -0.998211026 -0.0590248741
vn -0.217003778 -0.957223952 -0.19139412
vn -0.0389211513 -0.886012435 -0.462024957
vn -0.603406668 -0.730245531 0.320377737
vn 0.304122031 -0.853671372 -0.422794282
vn -0.220520377 -0.748720527 0.625130713
vn 0.422717869 -0.855799377 0.298189461
vn -0.359591782 0.930802166 -0.0655814856
vn -0.0395799987 0.9982602 0.0437028594
vn -0.0361072123 0.998963952 -0.0277000088
vn 0.0788158402 0.957564533 0.277233213
vn -0.217296496 0.886945307 0.40756622
vn 0.679876506 0.730936706 0.0591561906
vn -0.483859003 0.854728222 0.187936202
vn 0.524232984 0.749116004 -0.404975146
vn -0.191690445 0.855247438 -0.481463075
vn -0.363715827 -0.929182649 -0.0658052787
vn -0.0400940478 -0.998811126 -0.0277261995
vn -0.0435047969 -0.998094141 0.043766316
vn 0.0752470344 -0.957700074 0.277755976
vn -0.221072614 -0.885721207 0.408197045
vn 0.677795053 -0.732863486 0.0592045076
vn -0.487849146 -0.852394104 0.188222036
vn 0.522088468 -0.750513375 -0.405158371
vn -0.195488572 -0.854178429 -0.481833369
vt 0.989234626 0.465835929
vt 0.955275476 0.46886301
vt 0.988945067 0.47280702
vt 0.954966605 0.463601172
vt 0.863987088 0.468863934
vt 0.989227474 0.458955169
vt 0.86429745 0.463602006
vt 0.954940617 0.458171844
vt 0.989138901 0.452541113
vt 0.864324272 0.458171636
vt 0.954899013 0.452469617
vt 0.989122331 0.44655481
vt 0.864365995 0.452468216
vt 0.954890311 0.446552187
vt 0.98913759 0.440568477
vt 0.86437422 0.446550697
vt 0.954898417 0.440634638
vt 0.989226162 0.434154212
vt 0.864365458 0.440633208
vt 0.95494014 0.434931219
vt 0.989234746 0.427273154
vt 0.864323795 0.43493101
vt 0.954967082 0.429500878
vt 0.988948047 0.420301735
vt 0.864297807 0.429501712
vt 0.955277383 0.42423895
vt 0.863988936 0.424239874
vt 0.954690516 0.429495066
vt 0.988671482 0.420295864
vt 0.955000818 0.424233228
vt 0.988958299 0.427267343
vt 0.954663575 0.434925467
vt 0.988949597 0.434148401
vt 0.954621851 0.440628856
vt 0.988861144 0.440562665
vt 0.954613745 0.446546376
vt 0.988845766 0.446549058
vt 0.954622328 0.452463865
vt 0.988862336 0.452535331
vt 0.954664052 0.458166093
vt 0.988951027 0.458949417
vt 0.954690039 0.46359542
vt 0.98895818 0.465830237
vt 0.95499903 0.468857259
vt 0.988668621 0.472801268
vt 0.989234626 0.49023205
vt 0.955275476 0.493259162
vt 0.988945067 0.497203112
vt 0.954966605 0.487997293
vt 0.863987088 0.493260056
vt 0.989227474 0.48335129
vt 0.86429745 0.487998128
vt 0.954940617 0.482567996
vt 0.989138901 0.476937234
vt 0.864324272 0.482567817
vt 0.954899013 0.476865768
vt 0.989122331 0.470950931
vt 0.864365995 0.476864338
vt 0.954890311 0.470948309
vt 0.98913759 0.464964598
vt 0.86437422 0.470946819
vt 0.954898417 0.465030789
vt 0.989226162 0.458550364
vt 0.864365458 0.465029329
vt 0.95494014 0.45932737
vt 0.989234746 0.451669306
vt 0.864323795 0.459327132
vt 0.954967082 0.453896999
vt 0.988948047 0.444697857
vt 0.864297807 0.453897834
vt 0.955277383 0.448635072
vt 0.863988936 0.448636025
vt 0.954690516 0.453891218
vt 0.988671482 0.444692016
vt 0.955000818 0.448629349
vt 0.988958299 0.451663464
vt 0.954663575 0.459321588
vt 0.988949597 0.458544552
vt 0.954621851 0.465025038
vt 0.988861144 0.464958847
vt 0.954613745 0.470942527
vt 0.988845766 0.470945179
vt 0.954622328 0.476859987
vt 0.988862336 0.476931423
vt 0.954664052 0.482562184
vt 0.988951027 0.483345538
vt 0.954690039 0.487991512
vt 0.98895818 0.490226328
vt 0.95499903 0.49325335
vt 0.988668621 0.497197449
vt 0.989234626 0.442634016
vt 0.955275476 0.445661098
vt 0.988945067 0.449605107
vt 0.954966605 0.440399259
vt 0.863987088 0.445661992
vt 0.989227474 0.435753256
vt 0.86429745 0.440400124
vt 0.954940617 0.434969932
vt 0.989138901 0.42933917
vt 0.864324272 0.434969723
vt 0.954899013 0.429267704
vt 0.989122331 0.423352897
vt 0.864365995 0.429266304
vt 0.954890311 0.423350245
vt 0.98913759 0.417366564
vt 0.86437422 0.423348784
vt 0.954898417 0.417432755
vt 0.989226162 0.41095233
vt 0.864365458 0.417431325
vt 0.95494014 0.411729306
vt 0.989234746 0.404071271
vt 0.864323795 0.411729097
vt 0.954967082 0.406298935
vt 0.988948047 0.397099823
vt 0.864297807 0.4062998
vt 0.955277383 0.401037037
vt 0.863988936 0.401037931
vt 0.954690516 0.406293184
vt 0.988671482 0.397093952
vt 0.955000818 0.401031286
vt 0.988958299 0.4040654
vt 0.954663575 0.411723524
vt 0.988949597 0.410946488
vt 0.954621851 0.417426944
vt 0.988861144 0.417360783
vt 0.954613745 0.423344493
vt 0.988845766 0.423347145
vt 0.954622328 0.429261923
vt 0.988862336 0.429333419
vt 0.954664052 0.43496415
vt 0.988951027 0.435747504
vt 0.954690039 0.440393507
vt 0.98895818 0.442628264
vt 0.95499903 0.445655316
vt 0.988668621 0.449599355
vt 0.989234626 0.465835929
vt 0.955275476 0.46886301
vt 0.988945067 0.47280702
vt 0.954966605 0.463601172
vt 0.863987088 0.468863934
vt 0.989227474 0.458955169
vt 0.86429745 0.463602006
vt 0.954940617 0.458171844
vt 0.989138901 0.452541113
vt 0.864324272 0.458171636
vt 0.954899013 0.452469617
vt 0.989122331 0.44655481
vt 0.864365995 0.452468216
vt 0.954890311 0.446552187
vt 0.98913759 0.440568477
vt 0.86437422 0.446550697
vt 0.954898417 0.440634638
vt 0.989226162 0.434154212
vt 0.864365458 0.440633208
vt 0.95494014 0.434931219
vt 0.989234746 0.427273154
vt 0.864323795 0.43493101
vt 0.954967082 0.429500878
vt 0.988948047 0.420301735
vt 0.864297807 0.429501712
vt 0.955277383 0.42423895
vt 0.863988936 0.424239874
vt 0.954690516 0.429495066
vt 0.988671482 0.420295864
vt 0.955000818 0.424233228
vt 0.988958299 0.427267343
vt 0.954663575 0.434925467
vt 0.988949597 0.434148401
vt 0.954621851 0.440628856
vt 0.988861144 0.440562665
vt 0.954613745 0.446546376
vt 0.988845766 0.446549058
vt 0.954622328 0.452463865
vt 0.988862336 0.452535331
vt 0.954664052 0.458166093
vt 0.988951027 0.458949417
vt 0.954690039 0.46359542
vt 0.98895818 0.465830237
vt 0.95499903 0.468857259
vt 0.988668621 0.472801268
vt 0.989234626 0.49023205
vt 0.955275476 0.493259162
vt 0.988945067 0.497203112
vt 0.954966605 0.487997293
vt 0.863987088 0.493260056
vt 0.989227474 0.48335129
vt 0.86429745 0.487998128
vt 0.954940617 0.482567996
vt 0.989138901 0.476937234
vt 0.864324272 0.482567817
vt 0.954899013 0.476865768
vt 0.989122331 0.470950931
vt 0.864365995 0.476864338
vt 0.954890311 0.470948309
vt 0.98913759 0.464964598
vt 0.86437422 0.470946819
vt 0.954898417 0.465030789
vt 0.989226162 0.458550364
vt 0.864365458 0.465029329
vt 0.95494014 0.45932737
vt 0.989234746 0.451669306
vt 0.864323795 0.459327132
vt 0.954967082 0.453896999
vt 0.988948047 0.444697857
vt 0.864297807 0.453897834
vt 0.955277383 0.448635072
vt 0.863988936 0.448636025
vt 0.954690516 0.453891218
vt 0.988671482 0.444692016
vt 0.955000818 0.448629349
vt 0.988958299 0.451663464
vt 0.954663575 0.459321588
vt 0.988949597 0.458544552
vt 0.954621851 0.465025038
vt 0.988861144 0.464958847
vt 0.954613745 0.470942527
vt 0.988845766 0.470945179
vt 0.954622328 0.476859987
vt 0.988862336 0.476931423
vt 0.954664052 0.482562184
vt 0.988951027 0.483345538
vt 0.954690039 0.487991512
vt 0.98895818 0.490226328
vt 0.95499903 0.49325335
vt 0.988668621 0.497197449
vt 0.989234626 0.442634016
vt 0.955275476 0.445661098
vt 0.988945067 0.449605107
vt 0.954966605 0.440399259
vt 0.863987088 0.445661992
vt 0.989227474 0.435753256
vt 0.86429745 0.440400124
vt 0.954940617 0.434969932
vt 0.989138901 0.42933917
vt 0.864324272 0.434969723
vt 0.954899013 0.429267704
vt 0.989122331 0.423352897
vt 0.864365995 0.429266304
vt 0.954890311 0.423350245
vt 0.98913759 0.417366564
vt 0.86437422 0.423348784
vt 0.954898417 0.417432755
vt 0.989226162 0.41095233
vt 0.864365458 0.417431325
vt 0.95494014 0.411729306
vt 0.989234746 0.404071271
vt 0.864323795 0.411729097
vt 0.954967082 0.406298935
vt 0.988948047 0.397099823
vt 0.864297807 0.4062998
vt 0.955277383 0.401037037
vt 0.863988936 0.401037931
vt 0.954690516 0.406293184
vt 0.988671482 0.397093952
vt 0.955000818 0.401031286
vt 0.988958299 0.4040654
vt 0.954663575 0.411723524
vt 0.988949597 0.410946488
vt 0.954621851 0.417426944
vt 0.988861144 0.417360783
vt 0.954613745 0.423344493
vt 0.988845766 0.423347145
vt 0.954622328 0.429261923
vt 0.988862336 0.429333419
vt 0.954664052 0.43496415
vt 0.988951027 0.435747504
vt 0.954690039 0.440393507
vt 0.98895818 0.442628264
vt 0.95499903 0.445655316
vt 0.988668621 0.449599355
vt 0.989234626 0.465835929
vt 0.955275476 0.46886301
vt 0.988945067 0.47280702
vt 0.954966605 0.463601172
vt 0.863987088 0.468863934
vt 0.989227474 0.458955169
vt 0.86429745 0.463602006
vt 0.954940617 0.458171844
vt 0.989138901 0.452541113
vt 0.864324272 0.458171636
vt 0.954899013 0.452469617
vt 0.989122331 0.44655481
vt 0.864365995 0.452468216
vt 0.954890311 0.446552187
vt 0.98913759 0.440568477
vt 0.86437422 0.446550697
vt 0.954898417 0.440634638
vt 0.989226162 0.434154212
vt 0.864365458 0.440633208
vt 0.95494014 0.434931219
vt 0.989234746 0.427273154
vt 0.864323795 0.43493101
vt 0.954967082 0.429500878
vt 0.988948047 0.420301735
vt 0.864297807 0.429501712
vt 0.955277383 0.42423895
vt 0.863988936 0.424239874
vt 0.954690516 0.429495066
vt 0.988671482 0.420295864
vt 0.955000818 0.424233228
vt 0.988958299 0.427267343
vt 0.954663575 0.434925467
vt 0.988949597 0.434148401
vt 0.954621851 0.440628856
vt 0.988861144 0.440562665
vt 0.954613745 0.446546376
vt 0.988845766 0.446549058
vt 0.954622328 0.452463865
vt 0.988862336 0.452535331
vt 0.954664052 0.458166093
vt 0.988951027 0.458949417
vt 0.954690039 0.46359542
vt 0.98895818 0.465830237
vt 0.95499903 0.468857259
vt 0.988668621 0.472801268
vt 0.989234626 0.49023205
vt 0.955275476 0.493259162
vt 0.988945067 0.497203112
vt 0.954966605 0.487997293
vt 0.863987088 0.493260056
vt 0.989227474 0.48335129
vt 0.86429745 0.487998128
vt 0.954940617 0.482567996
vt 0.989138901 0.476937234
vt 0.864324272 0.482567817
vt 0.954899013 0.476865768
vt 0.989122331 0.470950931
vt 0.864365995 0.476864338
vt 0.954890311 0.470948309
vt 0.98913759 0.464964598
vt 0.86437422 0.470946819
vt 0.954898417 0.465030789
vt 0.989226162 0.458550364
vt 0.864365458 0.465029329
vt 0.95494014 0.45932737
vt 0.989234746 0.451669306
vt 0.864323795 0.459327132
vt 0.954967082 0.453896999
vt 0.988948047 0.444697857
vt 0.864297807 0.453897834
vt 0.955277383 0.448635072
vt 0.863988936 0.448636025
vt 0.954690516 0.453891218
vt 0.988671482 0.444692016
vt 0.955000818 0.448629349
vt 0.988958299 0.451663464
vt 0.954663575 0.459321588
vt 0.988949597 0.458544552
vt 0.954621851 0.465025038
vt 0.988861144 0.464958847
vt 0.954613745 0.470942527
vt 0.988845766 0.470945179
vt 0.954622328 0.476859987
vt 0.988862336 0.476931423
vt 0.954664052 0.482562184
vt 0.988951027 0.483345538
vt 0.954690039 0.487991512
vt 0.98895818 0.490226328
vt 0.95499903 0.49325335
vt 0.988668621 0.497197449
vt 0.989234626 0.442634016
vt 0.955275476 0.445661098
vt 0.988945067 0.449605107
vt 0.954966605 0.440399259
vt 0.863987088 0.445661992
vt 0.989227474 0.435753256
vt 0.86429745 0.440400124
vt 0.954940617 0.434969932
vt 0.989138901 0.42933917
vt 0.864324272 0.434969723
vt 0.954899013 0.429267704
vt 0.989122331 0.423352897
vt 0.864365995 0.429266304
vt 0.954890311 0.423350245
vt 0.98913759 0.417366564
vt 0.86437422 0.423348784
vt 0.954898417 0.417432755
vt 0.989226162 0.41095233
vt 0.864365458 0.417431325
vt 0.95494014 0.411729306
vt 0.989234746 0.404071271
vt 0.864323795 0.411729097
vt 0.954967082 0.406298935
vt 0.988948047 0.397099823
vt 0.864297807 0.4062998
vt 0.955277383 0.401037037
vt 0.863988936 0.401037931
vt 0.954690516 0.406293184
vt 0.988671482 0.397093952
vt 0.955000818 0.401031286
vt 0.988958299 0.4040654
vt 0.954663575 0.411723524
vt 0.988949597 0.410946488
vt 0.954621851 0.417426944
vt 0.988861144 0.417360783
vt 0.954613745 0.423344493
vt 0.988845766 0.423347145
vt 0.954622328 0.429261923
vt 0.988862336 0.429333419
vt 0.954664052 0.43496415
vt 0.988951027 0.435747504
vt 0.954690039 0.440393507
vt 0.98895818 0.442628264
vt 0.95499903 0.445655316
vt 0.988668621 0.449599355
vt 0.989234626 0.465835929
vt 0.955275476 0.46886301
vt 0.988945067 0.47280702
vt 0.954966605 0.463601172
vt 0.863987088 0.468863934
vt 0.989227474 0.458955169
vt 0.86429745 0.463602006
vt 0.954940617 0.458171844
vt 0.989138901 0.452541113
vt 0.864324272 0.458171636
vt 0.954899013 0.452469617
vt 0.989122331 0.44655481
vt 0.864365995 0.452468216
vt 0.954890311 0.446552187
vt 0.98913759 0.440568477
vt 0.86437422 0.446550697
vt 0.954898417 0.440634638
vt 0.989226162 0.434154212
vt 0.864365458 0.440633208
vt 0.95494014 0.434931219
vt 0.989234746 0.427273154
vt 0.864323795 0.43493101
vt 0.954967082 0.429500878
vt 0.988948047 0.420301735
vt 0.864297807 0.429501712
vt 0.955277383 0.42423895
vt 0.863988936 0.424239874
vt 0.954690516 0.429495066
vt 0.988671482 0.420295864
vt 0.955000818 0.424233228
vt 0.988958299 0.427267343
vt 0.954663575 0.434925467
vt 0.988949597 0.434148401
vt 0.954621851 0.440628856
vt 0.988861144 0.440562665
vt 0.954613745 0.446546376
vt 0.988845766 0.446549058
vt 0.954622328 0.452463865
vt 0.988862336 0.452535331
vt 0.954664052 0.458166093
vt 0.988951027 0.458949417
vt 0.954690039 0.46359542
vt 0.98895818 0.465830237
vt 0.95499903 0.468857259
vt 0.988668621 0.472801268
vt 0.574888527 0.497735858
vt 0.556823254 0.479762346
vt 0.552456856 0.497735858
vt 0.580928624 0.480156928
vt 0.756667793 0.497735858
vt 0.560877144 0.464013964
vt 0.759498298 0.480937272
vt 0.950755417 0.497735858
vt 0.950159132 0.481770515
vt 0.588956356 0.464325219
vt 0.763413489 0.465556026
vt 0.949683249 0.466870159
vt 0.949260175 0.453339219
vt 0.577639222 0.451532841
vt 0.554872394 0.448425621
vt 0.757365048 0.452406436
vt 0.585842609 0.435961992
vt 0.557648122 0.433668524
vt 0.761142492 0.436976075
vt 0.948312104 0.438058794
vt 0.947486937 0.422497302
vt 0.579612195 0.421411961
vt 0.548644602 0.418994546
vt 0.757526219 0.42193687
vt 0.58331567 0.407593787
vt 0.555931687 0.40516606
vt 0.591826141 0.391992956
vt 0.561339557 0.392031282
vt 0.546509385 0.378540635
vt 0.568043768 0.3770625
vt 0.751182675 0.3770625
vt 0.759174168 0.408391923
vt 0.946940124 0.40924409
vt 0.763309658 0.392758489
vt 0.945722163 0.3770625
vt 0.946404278 0.393575847
vt 0.556823254 0.479762346
vt 0.574888527 0.497735858
vt 0.552456856 0.497735858
vt 0.580928624 0.480156928
vt 0.724202693 0.497735858
vt 0.560877144 0.464013964
vt 0.727606356 0.480797946
vt 0.950755417 0.497735858
vt 0.950159132 0.481770515
vt 0.588956356 0.464325219
vt 0.732256055 0.465336233
vt 0.949683249 0.466870159
vt 0.949260175 0.453339219
vt 0.577639222 0.451532841
vt 0.554872394 0.448425621
vt 0.725266576 0.452250421
vt 0.585842609 0.435961992
vt 0.557648122 0.433668524
vt 0.729834497 0.436794966
vt 0.948312104 0.438058794
vt 0.947486937 0.422497302
vt 0.579612195 0.421411961
vt 0.548644602 0.418994546
vt 0.72575134 0.421843141
vt 0.58331567 0.407593787
vt 0.555931687 0.40516606
vt 0.591826141 0.391992956
vt 0.561339557 0.392031282
vt 0.546509385 0.378540635
vt 0.568043768 0.3770625
vt 0.718474686 0.3770625
vt 0.727766454 0.408249378
vt 0.946940124 0.40924409
vt 0.732683241 0.392621756
vt 0.945722163 0.3770625
vt 0.946404278 0.393575847
vt 0.574888527 0.497735858
vt 0.556823254 0.479762346
vt 0.552456856 0.497735858
vt 0.580928624 0.480156928
vt 0.756667793 0.497735858
vt 0.560877144 0.464013964
vt 0.759498298 0.480937272
vt 0.950755417 0.497735858
vt 0.950159132 0.481770515
vt 0.588956356 0.464325219
vt 0.763413489 0.465556026
vt 0.949683249 0.466870159
vt 0.949260175 0.453339219
vt 0.577639222 0.451532841
vt 0.554872394 0.448425621
vt 0.757365048 0.452406436
vt 0.585842609 0.435961992
vt 0.557648122 0.433668524
vt 0.761142492 0.436976075
vt 0.948312104 0.438058794
vt 0.947486937 0.422497302
vt 0.579612195 0.421411961
vt 0.548644602 0.418994546
vt 0.757526219 0.42193687
vt 0.58331567 0.407593787
vt 0.555931687 0.40516606
vt 0.591826141 0.391992956
vt 0.561339557 0.392031282
vt 0.546509385 0.378540635
vt 0.568043768 0.3770625
vt 0.751182675 0.3770625
vt 0.759174168 0.408391923
vt 0.946940124 0.40924409
vt 0.763309658 0.392758489
vt 0.945722163 0.3770625
vt 0.946404278 0.393575847
vt 0.556823254 0.479762346
vt 0.574888527 0.497735858
vt 0.552456856 0.497735858
vt 0.580928624 0.480156928
vt 0.724202693 0.497735858
vt 0.560877144 0.464013964
vt 0.727606356 0.480797946
vt 0.950755417 0.497735858
vt 0.950159132 0.481770515
vt 0.588956356 0.464325219
vt 0.732256055 0.465336233
vt 0.949683249 0.466870159
vt 0.949260175 0.453339219
vt 0.577639222 0.451532841
vt 0.554872394 0.448425621
vt 0.725266576 0.452250421
vt 0.585842609 0.435961992
vt 0.557648122 0.433668524
vt 0.729834497 0.436794966
vt 0.948312104 0.438058794
vt 0.947486937 0.422497302
vt 0.579612195 0.421411961
vt 0.548644602 0.418994546
vt 0.72575134 0.421843141
vt 0.58331567 0.407593787
vt 0.555931687 0.40516606
vt 0.591826141 0.391992956
vt 0.561339557 0.392031282
vt 0.546509385 0.378540635
vt 0.568043768 0.3770625
vt 0.718474686 0.3770625
vt 0.727766454 0.408249378
vt 0.946940124 0.40924409
vt 0.732683241 0.392621756
vt 0.945722163 0.3770625
vt 0.946404278 0.393575847
vt 0.549687386 0.463601083
vt 0.552295744 0.473848611
vt 0.532132745 0.477642953
vt 0.538743317 0.458139867
vt 0.547285795 0.486424804
vt 0.524690151 0.458083183
vt 0.540431559 0.495833814
vt 0.511475265 0.475022376
vt 0.521146536 0.492219359
vt 0.549687386 0.463601083
vt 0.532132745 0.477642953
vt 0.552295744 0.473848611
vt 0.538743317 0.458139867
vt 0.547285795 0.486424804
vt 0.524690151 0.458083183
vt 0.540431559 0.495833814
vt 0.511475265 0.475022376
vt 0.521146536 0.492219359
vt 0.549687386 0.463601083
vt 0.552295744 0.473848611
vt 0.532132745 0.477642953
vt 0.538743317 0.458139867
vt 0.547285795 0.486424804
vt 0.524690151 0.458083183
vt 0.540431559 0.495833814
vt 0.511475265 0.475022376
vt 0.521146536 0.492219359
vt 0.549687386 0.463601083
vt 0.532132745 0.477642953
vt 0.552295744 0.473848611
vt 0.538743317 0.458139867
vt 0.547285795 0.486424804
vt 0.524690151 0.458083183
vt 0.540431559 0.495833814
vt 0.511475265 0.475022376
vt 0.521146536 0.492219359
g submesh0
f 1/1/1 2/2/2 3/3/3
f 2/2/2 1/1/1 4/4/4
f 4/4/4 5/5/5 2/2/2
f 6/6/6 4/4/4 1/1/1
f 5/5/5 4/4/4 7/7/7
f 4/4/4 6/6/6 8/8/8
f 8/8/8 7/7/7 4/4/4
f 9/9/9 8/8/8 6/6/6
f 7/7/7 8/8/8 10/10/10
f 8/8/8 9/9/9 11/11/11
f 11/11/11 10/10/10 8/8/8
f 12/12/12 11/11/11 9/9/9
f 10/10/10 11/11/11 13/13/13
f 11/11/11 12/12/12 14/14/14
f 14/14/14 13/13/13 11/11/11
f 15/15/15 14/14/14 12/12/12
f 13/13/13 14/14/14 16/16/16
f 14/14/14 15/15/15 17/17/17
f 17/17/17 16/16/16 14/14/14
f 18/18/18 17/17/17 15/15/15
f 16/16/16 17/17/17 19/19/19
f 17/17/17 18/18/18 20/20/20
f 20/20/20 19/19/19 17/17/17
f 21/21/21 20/20/20 18/18/18
f 19/19/19 20/20/20 22/22/22
f 20/20/20 21/21/21 23/23/23
f 23/23/23 22/22/22 20/20/20
f 24/24/24 23/23/23 21/21/21
f 22/22/22 23/23/23 25/25/25
f 23/23/23 24/24/24 26/26/26
f 26/26/26 25/25/25 23/23/23
f 25/25/25 26/26/26 27/27/27
f 28/28/28 29/29/29 30/30/30
f 29/29/29 28/28/28 31/31/31
f 32/32/32 31/31/31 28/28/28
f 31/31/31 32/32/32 33/33/33
f 34/34/34 33/33/33 32/32/32
f 33/33/33 34/34/34 35/35/35
f 36/36/36 35/35/35 34/34/34
f 35/35/35 36/36/36 37/37/37
f 38/38/38 37/37/37 36/36/36
f 37/37/37 38/38/38 39/39/39
f 40/40/40 39/39/39 38/38/38
f 39/39/39 40/40/40 41/41/41
f 42/42/42 41/41/41 40/40/40
f 41/41/41 42/42/42 43/43/43
f 44/44/44 43/43/43 42/42/42
f 43/43/43 44/44/44 45/45/45
f 46/46/46 47/47/47 48/48/48
f 47/47/47 46/46/46 49/49/49
f 49/49/49 50/50/50 47/47/47
f 51/51/51 49/49/49 46/46/46
f 50/50/50 49/49/49 52/52/52
f 49/49/49 51/51/51 53/53/53
f 53/53/53 52/52/52 49/49/49
f 54/54/54 53/53/53 51/51/51
f 52/52/52 53/53/53 55/55/55
f 53/53/53 54/54/54 56/56/56
f 56/56/56 55/55/55 53/53/53
f 57/57/57 56/56/56 54/54/54
f 55/55/55 56/56/56 58/58/58
f 56/56/56 57/57/57 59/59/59
f 59/59/59 58/58/58 56/56/56
f 60/60/60 59/59/59 57/57/57
f 58/58/58 59/59/59 61/61/61
f 59/59/59 60/60/60 62/62/62
f 62/62/62 61/61/61 59/59/59
f 63/63/63 62/62/62 60/60/60
f 61/61/61 62/62/62 64/64/64
f 62/62/62 63/63/63 65/65/65
f 65/65/65 64/64/64 62/62/62
f 66/66/66 65/65/65 63/63/63
f 64/64/64 65/65/65 67/67/67
f 65/65/65 66/66/66 68/68/68
f 68/68/68 67/67/67 65/65/65
f 69/69/69 68/68/68 66/66/66
f 67/67/67 68/68/68 70/70/70
f 68/68/68 69/69/69 71/71/71
f 71/71/71 70/70/70 68/68/68
f 70/70/70 71/71/71 72/72/72
f 73/73/73 74/74/74 75/75/75
f 74/74/74 73/73/73 76/76/76
f 77/77/77 76/76/76 73/73/73
f 76/76/76 77/77/77 78/78/78
f 79/79/79 78/78/78 77/77/77
f 78/78/78 79/79/79 80/80/80
f 81/81/81 80/80/80 79/79/79
f 80/80/80 81/81/81 82/82/82
f 83/83/83 82/82/82 81/81/81
f 82/82/82 83/83/83 84/84/84
f 85/85/85 84/84/84 83/83/83
f 84/84/84 85/85/85 86/86/86
f 87/87/87 86/86/86 85/85/85
f 86/86/86 87/87/87 88/88/88
f 89/89/89 88/88/88 87/87/87
f 88/88/88 89/89/89 90/90/90
f 91/91/91 92/92/92 93/93/93
f 92/92/92 91/91/91 94/94/94
f 94/94/94 95/95/95 92/92/92
f 96/96/96 94/94/94 91/91/91
f 95/95/95 94/94/94 97/97/97
f 94/94/94 96/96/96 98/98/98
f 98/98/98 97/97/97 94/94/94
f 99/99/99 98/98/98 96/96/96
f 97/97/97 98/98/98 100/100/100
f 98/98/98 99/99/99 101/101/101
f 101/101/101 100/100/100 98/98/98
f 102/102/102 101/101/101 99/99/99
f 100/100/100 101/101/101 103/103/103
f 101/101/101 102/102/102 104/104/104
f 104/104/104 103/103/103 101/101/101
f 105/105/105 104/104/104 102/102/102
f 103/103/103 104/104/104 106/106/106
f 104/104/104 105/105/105 107/107/107
f 107/107/107 106/106/106 104/104/104
f 108/108/108 107/107/107 105/105/105
f 106/106/106 107/107/107 109/109/109
f 107/107/107 108/108/108 110/110/110
f 110/110/110 109/109/109 107/107/107
f 111/111/111 110/110/110 108/108/108
f 109/109/109 110/110/110 112/112/112
f 110/110/110 111/111/111 113/113/113
f 113/113/113 112/112/112 110/110/110
f 114/114/114 113/113/113 111/111/111
f 112/112/112 113/113/113 115/115/115
f 113/113/113 114/114/114 116/116/116
f 116/116/116 115/115/115 113/113/113
f 115/115/115 116/116/116 117/117/117
f 118/118/118 119/119/119 120/120/120
f 119/119/119 118/118/118 121/121/121
f 122/122/122 121/121/121 118/118/118
f 121/121/121 122/122/122 123/123/123
f 124/124/124 123/123/123 122/122/122
f 123/123/123 124/124/124 125/125/125
f 126/126/126 125/125/125 124/124/124
f 125/125/125 126/126/126 127/127/127
f 128/128/128 127/127/127 126/126/126
f 127/127/127 128/128/128 129/129/129
f 130/130/130 129/129/129 128/128/128
f 129/129/129 130/130/130 131/131/131
f 132/132/132 131/131/131 130/130/130
f 131/131/131 132/132/132 133/133/133
f 134/134/134 133/133/133 132/132/132
f 133/133/133 134/134/134 135/135/135
f 136/136/136 137/137/137 138/138/138
f 137/137/137 136/136/136 139/139/139
f 139/139/139 140/140/140 137/137/137
f 141/141/141 139/139/139 136/136/136
f 140/140/140 139/139/139 142/142/142
f 139/139/139 141/141/141 143/143/143
f 143/143/143 142/142/142 139/139/139
f 144/144/144 143/143/143 141/141/141
f 142/142/142 143/143/143 145/145/145
f 143/143/143 144/144/144 146/146/146
f 146/146/146 145/145/145 143/143/143
f 147/147/147 146/146/146 144/144/144
f 145/145/145 146/146/146 148/148/148
f 146/146/146 147/147/147 149/149/149
f 149/149/149 148/148/148 146/146/146
f 150/150/150 149/149/149 147/147/147
f 148/148/148 149/149/149 151/151/151
f 149/149/149 150/150/150 152/152/152
f 152/152/152 151/151/151 149/149/149
f 153/153/153 152/152/152 150/150/150
f 151/151/151 152/152/152 154/154/154
f 152/152/152 153/153/153 155/155/155
f 155/155/155 154/154/154 152/152/152
f 156/156/156 155/155/155 153/153/153
f 154/154/154 155/155/155 157/157/157
f 155/155/155 156/156/156 158/158/158
f 158/158/158 157/157/157 155/155/155
f 159/159/159 158/158/158 156/156/156
f 157/157/157 158/158/158 160/160/160
f 158/158/158 159/159/159 161/161/161
f 161/161/161 160/160/160 158/158/158
f 160/160/160 161/161/161 162/162/162
f 163/163/163 164/164/164 165/165/165
f 164/164/164 163/163/163 166/166/166
f 167/167/167 166/166/166 163/163/163
f 166/166/166 167/167/167 168/168/168
f 169/169/169 168/168/168 167/167/167
f 168/168/168 169/169/169 170/170/170
f 171/171/171 170/170/170 169/169/169
f 170/170/170 171/171/171 172/172/172
f 173/173/173 172/172/172 171/171/171
f 172/172/172 173/173/173 174/174/174
f 175/175/175 174/174/174 173/173/173
f 174/174/174 175/175/175 176/176/176
f 177/177/177 176/176/176 175/175/175
f 176/176/176 177/177/177 178/178/178
f 179/179/179 178/178/178 177/177/177
f 178/178/178 179/179/179 180/180/180
f 181/181/181 182/182/182 183/183/183
f 182/182/182 181/181/181 184/184/184
f 184/184/184 185/185/185 182/182/182
f 186/186/186 184/184/184 181/181/181
f 185/185/185 184/184/184 187/187/187
f 184/184/184 186/186/186 188/188/188
f 188/188/188 187/187/187 184/184/184
f 189/189/189 188/188/188 186/186/186
f 187/187/187 188/188/188 190/190/190
f 188/188/188 189/189/189 191/191/191
f 191/191/191 190/190/190 188/188/188
f 192/192/192 191/191/191 189/189/189
f 190/190/190 191/191/191 193/193/193
f 191/191/191 192/192/192 194/194/194
f 194/194/194 193/193/193 191/191/191
f 195/195/195 194/194/194 192/192/192
f 193/193/193 194/194/194 196/196/196
f 194/194/194 195/195/195 197/197/197
f 197/197/197 196/196/196 194/194/194
f 198/198/198 197/197/197 195/195/195
f 196/196/196 197/197/197 199/199/199
f 197/197/197 198/198/198 200/200/200
f 200/200/200 199/199/199 197/197/197
f 201/201/201 200/200/200 198/198/198
f 199/199/199 200/200/200 202/202/202
f 200/200/200 201/201/201 203/203/203
f 203/203/203 202/202/202 200/200/200
f 204/204/204 203/203/203 201/201/201
f 202/202/202 203/203/203 205/205/205
f 203/203/203 204/204/204 206/206/206
f 206/206/206 205/205/205 203/203/203
f 205/205/205 206/206/206 207/207/207
f 208/208/208 209/209/209 210/210/210
f 209/209/209 208/208/208 211/211/211
f 212/212/212 211/211/211 208/208/208
f 211/211/211 212/212/212 213/213/213
f 214/214/214 213/213/213 212/212/212
f 213/213/213 214/214/214 215/215/215
f 216/216/216 215/215/215 214/214/214
f 215/215/215 216/216/216 217/217/217
f 218/218/218 217/217/217 216/216/216
f 217/217/217 218/218/218 219/219/219
f 220/220/220 219/219/219 218/218/218
f 219/219/219 220/220/220 221/221/221
f 222/222/222 221/221/221 220/220/220
f 221/221/221 222/222/222 223/223/223
f 224/224/224 223/223/223 222/222/222
f 223/223/223 224/224/224 225/225/225
f 226/226/226 227/227/227 228/228/228
f 227/227/227 226/226/226 229/229/229
f 229/229/229 230/230/230 227/227/227
f 231/231/231 229/229/229 226/226/226
f 230/230/230 229/229/229 232/232/232
f 229/229/229 231/231/231 233/233/233
f 233/233/233 232/232/232 229/229/229
f 234/234/234 233/233/233 231/231/231
f 232/232/232 233/233/233 235/235/235
f 233/233/233 234/234/234 236/236/236
f 236/236/236 235/235/235 233/233/233
f 237/237/237 236/236/236 234/234/234
f 235/235/235 236/236/236 238/238/238
f 236/236/236 237/237/237 239/239/239
f 239/239/239 238/238/238 236/236/236
f 240/240/240 239/239/239 237/237/237
f 238/238/238 239/239/239 241/241/241
f 239/239/239 240/240/240 242/242/242
f 242/242/242 241/241/241 239/239/239
f 243/243/243 242/242/242 240/240/240
f 241/241/241 242/242/242 244/244/244
f 242/242/242 243/243/243 245/245/245
f 245/245/245 244/244/244 242/242/242
f 246/246/246 245/245/245 243/243/243
f 244/244/244 245/245/245 247/247/247
f 245/245/245 246/246/246 248/248/248
f 248/248/248 247/247/247 245/245/245
f 249/249/249 248/248/248 246/246/246
f 247/247/247 248/248/248 250/250/250
f 248/248/248 249/249/249 251/251/251
f 251/251/251 250/250/250 248/248/248
f 250/250/250 251/251/251 252/252/252
f 253/253/253 254/254/254 255/255/255
f 254/254/254 253/253/253 256/256/256
f 257/257/257 256/256/256 253/253/253
f 256/256/256 257/257/257 258/258/258
f 259/259/259 258/258/258 257/257/257
f 258/258/258 259/259/259 260/260/260
f 261/261/261 260/260/260 259/259/259
f 260/260/260 261/261/261 262/262/262
f 263/263/263 262/262/262 261/261/261
f 262/262/262 263/263/263 264/264/264
f 265/265/265 264/264/264 263/263/263
f 264/264/264 265/265/265 266/266/266
f 267/267/267 266/266/266 265/265/265
f 266/266/266 267/267/267 268/268/268
f 269/269/269 268/268/268 267/267/267
f 268/268/268 269/269/269 270/270/270
f 271/271/271 272/272/272 273/273/273
f 272/272/272 271/271/271 274/274/274
f 274/274/274 275/275/275 272/272/272
f 276/276/276 274/274/274 271/271/271
f 275/275/275 274/274/274 277/277/277
f 274/274/274 276/276/276 278/278/278
f 278/278/278 277/277/277 274/274/274
f 279/279/279 278/278/278 276/276/276
f 277/277/277 278/278/278 280/280/280
f 278/278/278 279/279/279 281/281/281
f 281/281/281 280/280/280 278/278/278
f 282/282/282 281/281/281 279/279/279
f 280/280/280 281/281/281 283/283/283
f 281/281/281 282/282/282 284/284/284
f 284/284/284 283/283/283 281/281/281
f 285/285/285 284/284/284 282/282/282
f 283/283/283 284/284/284 286/286/286
f 284/284/284 285/285/285 287/287/287
f 287/287/287 286/286/286 284/284/284
f 288/288/288 287/287/287 285/285/285
f 286/286/286 287/287/287 289/289/289
f 287/287/287 288/288/288 290/290/290
f 290/290/290 289/289/289 287/287/287
f 291/291/291 290/290/290 288/288/288
f 289/289/289 290/290/290 292/292/292
f 290/290/290 291/291/291 293/293/293
f 293/293/293 292/292/292 290/290/290
f 294/294/294 293/293/293 291/291/291
f 292/292/292 293/293/293 295/295/295
f 293/293/293 294/294/294 296/296/296
f 296/296/296 295/295/295 293/293/293
f 295/295/295 296/296/296 297/297/297
f 298/298/298 299/299/299 300/300/300
f 299/299/299 298/298/298 301/301/301
f 302/302/302 301/301/301 298/298/298
f 301/301/301 302/302/302 303/303/303
f 304/304/304 303/303/303 302/302/302
f 303/303/303 304/304/304 305/305/305
f 306/306/306 305/305/305 304/304/304
f 305/305/305 306/306/306 307/307/307
f 308/308/308 307/307/307 306/306/306
f 307/307/307 308/308/308 309/309/309
f 310/310/310 309/309/309 308/308/308
f 309/309/309 310/310/310 311/311/311
f 312/312/312 311/311/311 310/310/310
f 311/311/311 312/312/312 313/313/313
f 314/314/314 313/313/313 312/312/312
f 313/313/313 314/314/314 315/315/315
f 316/316/316 317/317/317 318/318/318
f 317/317/317 316/316/316 319/319/319
f 319/319/319 320/320/320 317/317/317
f 321/321/321 319/319/319 316/316/316
f 320/320/320 319/319/319 322/322/322
f 319/319/319 321/321/321 323/323/323
f 323/323/323 322/322/322 319/319/319
f 324/324/324 323/323/323 321/321/321
f 322/322/322 323/323/323 325/325/325
f 323/323/323 324/324/324 326/326/326
f 326/326/326 325/325/325 323/323/323
f 327/327/327 326/326/326 324/324/324
f 325/325/325 326/326/326 328/328/328
f 326/326/326 327/327/327 329/329/329
f 329/329/329 328/328/328 326/326/326
f 330/330/330 329/329/329 327/327/327
f 328/328/328 329/329/329 331/331/331
f 329/329/329 330/330/330 332/332/332
f 332/332/332 331/331/331 329/329/329
f 333/333/333 332/332/332 330/330/330
f 331/331/331 332/332/332 334/334/334
f 332/332/332 333/333/333 335/335/335
f 335/335/335 334/334/334 332/332/332
f 336/336/336 335/335/335 333/333/333
f 334/334/334 335/335/335 337/337/337
f 335/335/335 336/336/336 338/338/338
f 338/338/338 337/337/337 335/335/335
f 339/339/339 338/338/338 336/336/336
f 337/337/337 338/338/338 340/340/340
f 338/338/338 339/339/339 341/341/341
f 341/341/341 340/340/340 338/338/338
f 340/340/340 341/341/341 342/342/342
f 343/343/343 344/344/344 345/345/345
f 344/344/344 343/343/343 346/346/346
f 347/347/347 346/346/346 343/343/343
f 346/346/346 347/347/347 348/348/348
f 349/349/349 348/348/348 347/347/347
f 348/348/348 349/349/349 350/350/350
f 351/351/351 350/350/350 349/349/349
f 350/350/350 351/351/351 352/352/352
f 353/353/353 352/352/352 351/351/351
f 352/352/352 353/353/353 354/354/354
f 355/355/355 354/354/354 353/353/353
f 354/354/354 355/355/355 356/356/356
f 357/357/357 356/356/356 355/355/355
f 356/356/356 357/357/357 358/358/358
f 359/359/359 358/358/358 357/357/357
f 358/358/358 359/359/359 360/360/360
f 361/361/361 362/362/362 363/363/363
f 362/362/362 361/361/361 364/364/364
f 364/364/364 365/365/365 362/362/362
f 366/366/366 364/364/364 361/361/361
f 365/365/365 364/364/364 367/367/367
f 364/364/364 366/366/366 368/368/368
f 368/368/368 367/367/367 364/364/364
f 369/369/369 368/368/368 366/366/366
f 367/367/367 368/368/368 370/370/370
f 368/368/368 369/369/369 371/371/371
f 371/371/371 370/370/370 368/368/368
f 372/372/372 371/371/371 369/369/369
f 370/370/370 371/371/371 373/373/373
f 371/371/371 372/372/372 374/374/374
f 374/374/374 373/373/373 371/371/371
f 375/375/375 374/374/374 372/372/372
f 373/373/373 374/374/374 376/376/376
f 374/374/374 375/375/375 377/377/377
f 377/377/377 376/376/376 374/374/374
f 378/378/378 377/377/377 375/375/375
f 376/376/376 377/377/377 379/379/379
f 377/377/377 378/378/378 380/380/380
f 380/380/380 379/379/379 377/377/377
f 381/381/381 380/380/380 378/378/378
f 379/379/379 380/380/380 382/382/382
f 380/380/380 381/381/381 383/383/383
f 383/383/383 382/382/382 380/380/380
f 384/384/384 383/383/383 381/381/381
f 382/382/382 383/383/383 385/385/385
f 383/383/383 384/384/384 386/386/386
f 386/386/386 385/385/385 383/383/383
f 385/385/385 386/386/386 387/387/387
f 388/388/388 389/389/389 390/390/390
f 389/389/389 388/388/388 391/391/391
f 392/392/392 391/391/391 388/388/388
f 391/391/391 392/392/392 393/393/393
f 394/394/394 393/393/393 392/392/392
f 393/393/393 394/394/394 395/395/395
f 396/396/396 395/395/395 394/394/394
f 395/395/395 396/396/396 397/397/397
f 398/398/398 397/397/397 396/396/396
f 397/397/397 398/398/398 399/399/399
f 400/400/400 399/399/399 398/398/398
f 399/399/399 400/400/400 401/401/401
f 402/402/402 401/401/401 400/400/400
f 401/401/401 402/402/402 403/403/403
f 404/404/404 403/403/403 402/402/402
f 403/403/403 404/404/404 405/405/405
f 406/406/406 407/407/407 408/408/408
f 407/407/407 406/406/406 409/409/409
f 409/409/409 410/410/410 407/407/407
f 411/411/411 409/409/409 406/406/406
f 410/410/410 409/409/409 412/412/412
f 409/409/409 411/411/411 413/413/413
f 413/413/413 412/412/412 409/409/409
f 414/414/414 413/413/413 411/411/411
f 412/412/412 413/413/413 415/415/415
f 413/413/413 414/414/414 416/416/416
f 416/416/416 415/415/415 413/413/413
f 417/417/417 416/416/416 414/414/414
f 415/415/415 416/416/416 418/418/418
f 416/416/416 417/417/417 419/419/419
f 419/419/419 418/418/418 416/416/416
f 420/420/420 419/419/419 417/417/417
f 418/418/418 419/419/419 421/421/421
f 419/419/419 420/420/420 422/422/422
f 422/422/422 421/421/421 419/419/419
f 423/423/423 422/422/422 420/420/420
f 421/421/421 422/422/422 424/424/424
f 422/422/422 423/423/423 425/425/425
f 425/425/425 424/424/424 422/422/422
f 426/426/426 425/425/425 423/423/423
f 424/424/424 425/425/425 427/427/427
f 425/425/425 426/426/426 428/428/428
f 428/428/428 427/427/427 425/425/425
f 429/429/429 428/428/428 426/426/426
f 427/427/427 428/428/428 430/430/430
f 428/428/428 429/429/429 431/431/431
f 431/431/431 430/430/430 428/428/428
f 430/430/430 431/431/431 432/432/432
f 433/433/433 434/434/434 435/435/435
f 434/434/434 433/433/433 436/436/436
f 437/437/437 436/436/436 433/433/433
f 436/436/436 437/437/437 438/438/438
f 439/439/439 438/438/438 437/437/437
f 438/438/438 439/439/439 440/440/440
f 441/441/441 440/440/440 439/439/439
f 440/440/440 441/441/441 442/442/442
f 443/443/443 442/442/442 441/441/441
f 442/442/442 443/443/443 444/444/444
f 445/445/445 444/444/444 443/443/443
f 444/444/444 445/445/445 446/446/446
f 447/447/447 446/446/446 445/445/445
f 446/446/446 447/447/447 448/448/448
f 449/449/449 448/448/448 447/447/447
f 448/448/448 449/449/449 450/450/450
f 451/451/451 452/452/452 453/453/453
f 452/452/452 451/451/451 454/454/454
f 455/455/455 454/454/454 451/451/451
f 454/454/454 456/456/456 452/452/452
f 454/454/454 455/455/455 457/457/457
f 458/458/458 457/457/457 455/455/455
f 457/457/457 458/458/458 459/459/459
f 456/456/456 454/454/454 460/460/460
f 457/457/457 460/460/460 454/454/454
f 459/459/459 461/461/461 457/457/457
f 460/460/460 457/457/457 461/461/461
f 461/461/461 459/459/459 462/462/462
f 463/463/463 461/461/461 462/462/462
f 464/464/464 456/456/456 460/460/460
f 456/456/456 464/464/464 465/465/465
f 466/466/466 460/460/460 461/461/461
f 461/461/461 463/463/463 466/466/466
f 460/460/460 466/466/466 464/464/464
f 467/467/467 465/465/465 464/464/464
f 466/466/466 467/467/467 464/464/464
f 465/465/465 467/467/467 468/468/468
f 463/463/463 469/469/469 466/466/466
f 467/467/467 466/466/466 469/469/469
f 469/469/469 463/463/463 470/470/470
f 471/471/471 469/469/469 470/470/470
f 472/472/472 468/468/468 467/467/467
f 468/468/468 472/472/472 473/473/473
f 474/474/474 467/467/467 469/469/469
f 469/469/469 471/471/471 474/474/474
f 467/467/467 474/474/474 472/472/472
f 475/475/475 473/473/473 472/472/472
f 474/474/474 475/475/475 472/472/472
f 473/473/473 475/475/475 476/476/476
f 477/477/477 476/476/476 475/475/475
f 476/476/476 477/477/477 478/478/478
f 477/477/477 479/479/479 478/478/478
f 479/479/479 477/477/477 480/480/480
f 477/477/477 481/481/481 480/480/480
f 471/471/471 482/482/482 474/474/474
f 475/475/475 474/474/474 482/482/482
f 482/482/482 477/477/477 475/475/475
f 482/482/482 471/471/471 483/483/483
f 481/481/481 477/477/477 484/484/484
f 477/477/477 482/482/482 484/484/484
f 483/483/483 484/484/484 482/482/482
f 484/484/484 485/485/485 481/481/481
f 484/484/484 483/483/483 486/486/486
f 485/485/485 484/484/484 486/486/486
f 487/487/487 488/488/488 489/489/489
f 488/488/488 487/487/487 490/490/490
f 490/490/490 491/491/491 488/488/488
f 492/492/492 490/490/490 487/487/487
f 491/491/491 490/490/490 493/493/493
f 493/493/493 494/494/494 491/491/491
f 494/494/494 493/493/493 495/495/495
f 490/490/490 492/492/492 496/496/496
f 496/496/496 493/493/493 490/490/490
f 497/497/497 495/495/495 493/493/493
f 493/493/493 496/496/496 497/497/497
f 495/495/495 497/497/497 498/498/498
f 497/497/497 499/499/499 498/498/498
f 492/492/492 500/500/500 496/496/496
f 500/500/500 492/492/492 501/501/501
f 496/496/496 502/502/502 497/497/497
f 499/499/499 497/497/497 502/502/502
f 502/502/502 496/496/496 500/500/500
f 501/501/501 503/503/503 500/500/500
f 503/503/503 502/502/502 500/500/500
f 503/503/503 501/501/501 504/504/504
f 505/505/505 499/499/499 502/502/502
f 502/502/502 503/503/503 505/505/505
f 499/499/499 505/505/505 506/506/506
f 505/505/505 507/507/507 506/506/506
f 504/504/504 508/508/508 503/503/503
f 508/508/508 504/504/504 509/509/509
f 503/503/503 510/510/510 505/505/505
f 507/507/507 505/505/505 510/510/510
f 510/510/510 503/503/503 508/508/508
f 509/509/509 511/511/511 508/508/508
f 511/511/511 510/510/510 508/508/508
f 511/511/511 509/509/509 512/512/512
f 512/512/512 513/513/513 511/511/511
f 513/513/513 512/512/512 514/514/514
f 515/515/515 513/513/513 514/514/514
f 513/513/513 515/515/515 516/516/516
f 517/517/517 513/513/513 516/516/516
f 518/518/518 507/507/507 510/510/510
f 510/510/510 511/511/511 518/518/518
f 513/513/513 518/518/518 511/511/511
f 507/507/507 518/518/518 519/519/519
f 513/513/513 517/517/517 520/520/520
f 518/518/518 513/513/513 520/520/520
f 520/520/520 519/519/519 518/518/518
f 521/521/521 520/520/520 517/517/517
f 519/519/519 520/520/520 522/522/522
f 520/520/520 521/521/521 522/522/522
f 523/523/523 524/524/524 525/525/525
f 524/524/524 523/523/523 526/526/526
f 527/527/527 526/526/526 523/523/523
f 526/526/526 528/528/528 524/524/524
f 526/526/526 527/527/527 529/529/529
f 530/530/530 529/529/529 527/527/527
f 529/529/529 530/530/530 531/531/531
f 528/528/528 526/526/526 532/532/532
f 529/529/529 532/532/532 526/526/526
f 531/531/531 533/533/533 529/529/529
f 532/532/532 529/529/529 533/533/533
f 533/533/533 531/531/531 534/534/534
f 535/535/535 533/533/533 534/534/534
f 536/536/536 528/528/528 532/532/532
f 528/528/528 536/536/536 537/537/537
f 538/538/538 532/532/532 533/533/533
f 533/533/533 535/535/535 538/538/538
f 532/532/532 538/538/538 536/536/536
f 539/539/539 537/537/537 536/536/536
f 538/538/538 539/539/539 536/536/536
f 537/537/537 539/539/539 540/540/540
f 535/535/535 541/541/541 538/538/538
f 539/539/539 538/538/538 541/541/541
f 541/541/541 535/535/535 542/542/542
f 543/543/543 541/541/541 542/542/542
f 544/544/544 540/540/540 539/539/539
f 540/540/540 544/544/544 545/545/545
f 546/546/546 539/539/539 541/541/541
f 541/541/541 543/543/543 546/546/546
f 539/539/539 546/546/546 544/544/544
f 547/547/547 545/545/545 544/544/544
f 546/546/546 547/547/547 544/544/544
f 545/545/545 547/547/547 548/548/548
f 549/549/549 548/548/548 547/547/547
f 548/548/548 549/549/549 550/550/550
f 549/549/549 551/551/551 550/550/550
f 551/551/551 549/549/549 552/552/552
f 549/549/549 553/553/553 552/552/552
f 543/543/543 554/554/554 546/546/546
f 547/547/547 546/546/546 554/554/554
f 554/554/554 549/549/549 547/547/547
f 554/554/554 543/543/543 555/555/555
f 553/553/553 549/549/549 556/556/556
f 549/549/549 554/554/554 556/556/556
f 555/555/555 556/556/556 554/554/554
f 556/556/556 557/557/557 553/553/553
f 556/556/556 555/555/555 558/558/558
f 557/557/557 556/556/556 558/558/558
f 559/559/559 560/560/560 561/561/561
f 560/560/560 559/559/559 562/562/562
f 562/562/562 563/563/563 560/560/560
f 564/564/564 562/562/562 559/559/559
f 563/563/563 562/562/562 565/565/565
f 565/565/565 566/566/566 563/563/563
f 566/566/566 565/565/565 567/567/567
f 562/562/562 564/564/564 568/568/568
f 568/568/568 565/565/565 562/562/562
f 569/569/569 567/567/567 565/565/565
f 565/565/565 568/568/568 569/569/569
f 567/567/567 569/569/569 570/570/570
f 569/569/569 571/571/571 570/570/570
f 564/564/564 572/572/572 568/568/568
f 572/572/572 564/564/564 573/573/573
f 568/568/568 574/574/574 569/569/569
f 571/571/571 569/569/569 574/574/574
f 574/574/574 568/568/568 572/572/572
f 573/573/573 575/575/575 572/572/572
f 575/575/575 574/574/574 572/572/572
f 575/575/575 573/573/573 576/576/576
f 577/577/577 571/571/571 574/574/574
f 574/574/574 575/575/575 577/577/577
f 571/571/571 577/577/577 578/578/578
f 577/577/577 579/579/579 578/578/578
f 576/576/576 580/580/580 575/575/575
f 580/580/580 576/576/576 581/581/581
f 575/575/575 582/582/582 577/577/577
f 579/579/579 577/577/577 582/582/582
f 582/582/582 575/575/575 580/580/580
f 581/581/581 583/583/583 580/580/580
f 583/583/583 582/582/582 580/580/580
f 583/583/583 581/581/581 584/584/584
f 584/584/584 585/585/585 583/583/583
f 585/585/585 584/584/584 586/586/586
f 587/587/587 585/585/585 586/586/586
f 585/585/585 587/587/587 588/588/588
f 589/589/589 585/585/585 588/588/588
f 590/590/590 579/579/579 582/582/582
f 582/582/582 583/583/583 590/590/590
f 585/585/585 590/590/590 583/583/583
f 579/579/579 590/590/590 591/591/591
f 585/585/585 589/589/589 592/592/592
f 590/590/590 585/585/585 592/592/592
f 592/592/592 591/591/591 590/590/590
f 593/593/593 592/592/592 589/589/589
f 591/591/591 592/592/592 594/594/594
f 592/592/592 593/593/593 594/594/594
f 595/595/595 596/596/596 597/597/597
f 598/598/598 595/595/595 597/597/597
f 596/596/596 599/599/599 597/597/597
f 600/600/600 598/598/598 597/597/597
f 599/599/599 601/601/601 597/597/597
f 602/602/602 600/600/600 597/597/597
f 601/601/601 603/603/603 597/597/597
f 603/603/603 602/602/602 597/597/597
f 604/604/604 605/605/605 606/606/606
f 607/607/607 605/605/605 604/604/604
f 606/606/606 605/605/605 608/608/608
f 609/609/609 605/605/605 607/607/607
f 608/608/608 605/605/605 610/610/610
f 611/611/611 605/605/605 609/609/609
f 610/610/610 605/605/605 612/612/612
f 612/612/612 605/605/605 611/611/611
f 613/613/613 614/614/614 615/615/615
f 616/616/616 613/613/613 615/615/615
f 614/614/614 617/617/617 615/615/615
f 618/618/618 616/616/616 615/615/615
f 617/617/617 619/619/619 615/615/615
f 620/620/620 618/618/618 615/615/615
f 619/619/619 621/621/621 615/615/615
f 621/621/621 620/620/620 615/615/615
f 622/622/622 623/623/623 624/624/624
f 625/625/625 623/623/623 622/622/622
f 624/624/624 623/623/623 626/626/626
f 627/627/627 623/623/623 625/625/625
f 626/626/626 623/623/623 628/628/628
f 629/629/629 623/623/623 627/627/627
f 628/628/628 623/623/623 630/630/630
f 630/630/630 623/623/623 629/629/629
