# powerline_pole_c_LOD3
v 0.160472676 10.2170515 -6.91645084E-07
v 0.160472795 12.6898174 -6.72912392E-07
v -0.160712302 12.6898174 -6.72912392E-07
v -0.160712391 10.2169561 -6.91645141E-07
v -0.000121508776 0.000244555646 -0.145711705
v -0.000118432603 12.6898174 -0.145713732
v -0.000118432603 12.6898174 0.142946616
v -0.000121508776 -0.000247631804 0.142948627
v 0.457197517 0.000244555646 -7.69042856E-07
v 0.457198769 10.2170525 -6.91645084E-07
v -0.457439303 10.2169561 -6.91645084E-07
v -0.457440555 -0.000247631804 -7.69042856E-07
v -0.160712302 12.6898174 -6.72912392E-07
v 0.160472795 12.6898174 -6.72912392E-07
v 0.160472676 10.2170515 -6.91645084E-07
v -0.160712391 10.2169561 -6.91645141E-07
v -0.000118432603 12.6898174 0.142946616
v -0.000118432603 12.6898174 -0.145713732
v -0.000121508776 0.000244555646 -0.145711705
v -0.000121508776 -0.000247631804 0.142948627
v -0.457439303 10.2169561 -6.91645084E-07
v 0.457198769 10.2170525 -6.91645084E-07
v 0.457197517 0.000244555646 -7.69042856E-07
v -0.457440555 -0.000247631804 -7.69042856E-07
vn 0 0.732522011 0.680743217
vn 0 0.732521951 0.680743337
vn 0 0.732521951 0.680743337
vn 0 0.732521951 0.680743337
vn 0.680743396 0.732521951 0
vn 0.680743396 0.732521951 0
vn 0.680743396 0.732521951 0
vn 0.680743396 0.732521951 0
vn 0 0.732521951 0.680743337
vn 0 0.732521951 0.680743337
vn 0 0.732521951 0.680743337
vn 0 0.732521951 0.680743337
vn 0 0.732521951 -0.680743337
vn 0 0.732521951 -0.680743337
vn 0 0.732522011 -0.680743217
vn 0 0.732521951 -0.680743337
vn -0.680743277 0.73252213 0
vn -0.680743277 0.73252213 0
vn -0.680743277 0.73252213 0
vn -0.680743277 0.73252213 0
vn 0 0.732521951 -0.680743337
vn 0 0.732521951 -0.680743337
vn 0 0.732521951 -0.680743337
vn 0 0.732521951 -0.680743337
vt 0.199331284 0.0258234125
vt 0.00616045156 0.0258234125
vt 0.00616045063 0.0510694496
vt 0.199338719 0.0510694496
vt 0.997460902 0.0835266784
vt 0.00616036076 0.0835266337
vt 0.00616036076 0.106216751
vt 0.997499466 0.106216788
vt 0.997461617 0.00249998434
vt 0.199331239 0.00249992125
vt 0.199338719 0.0743930042
vt 0.997500002 0.0743930712
vt 0.00616045063 0.0510694496
vt 0.00616045156 0.0258234125
vt 0.199331284 0.0258234125
vt 0.199338719 0.0510694496
vt 0.00616036076 0.106216751
vt 0.00616036076 0.0835266337
vt 0.997460902 0.0835266784
vt 0.997499466 0.106216788
vt 0.199338719 0.0743930042
vt 0.199331239 0.00249992125
vt 0.997461617 0.00249998434
vt 0.997500002 0.0743930712
g submesh0
f 1/1/1 2/2/2 3/3/3
f 1/1/1 3/3/3 4/4/4
f 5/5/5 6/6/6 7/7/7
f 5/5/5 7/7/7 8/8/8
f 9/9/9 10/10/10 11/11/11
f 9/9/9 11/11/11 12/12/12
f 13/13/13 14/14/14 15/15/15
f 13/13/13 15/15/15 16/16/16
f 17/17/17 18/18/18 19/19/19
f 17/17/17 19/19/19 20/20/20
f 21/21/21 22/22/22 23/23/23
f 21/21/21 23/23/23 24/24/24
