# wall.doorway.door_LOD1
v -1.19339395 -0.808949232 0.0533413403
v -1.18672478 -1.00895953 0.0600100644
v -1.19339395 -0.130741909 0.0533412918
v -1.19339418 1.05854261 0.0466721132
v -1.19339395 -0.130741909 0.0533412918
v -1.17180204 1.03755867 0.0600100979
v -0.00550962985 0.838390648 0.00958247017
v 0.00788677577 0.0816137418 0.0196739826
v -0.0053334469 0.095240064 0.00858975295
v -0.00550950645 -0.131574422 0.00334074884
v -0.00121387281 -0.122519098 -0.0310986582
v 0.00788680371 -0.118130669 0.0222154167
v 0.00788677577 0.0816137418 0.0196739826
v -0.0012145103 0.0846557319 -0.0310985241
v -0.0053334469 0.095240064 0.00858975295
v 0.00788689218 -0.822345853 0.0166781861
v -0.00121439225 -0.818613291 -0.0310986862
v -0.0055094175 -0.809129775 0.00334081543
v -1.19899833 0.307197511 0.0166766662
v -1.19533503 0.845985115 0.0131308604
v -0.965550125 0.315796107 0.00849826541
v -0.00550962985 0.838390648 0.00958247017
v -0.0053334469 0.095240064 0.00858975295
v -0.957341492 0.100640334 0.00516368123
v -1.19339395 -0.130741909 0.0533412918
v -0.00526151527 1.00943017 0.0600095838
v -1.17180204 1.03755867 0.0600100979
v 0.00137833937 -0.13074176 0.0533408262
v -0.599858403 -1.04190278 0.0533408113
v -1.18672478 -1.00895953 0.0600100644
v -0.000854514248 -1.03968 0.0511175729
v -0.0055094175 -0.809129775 0.00334081543
v -1.18672502 -0.132045016 0.00334127387
v -0.00550950645 -0.131574422 0.00334074884
v -1.1867249 -0.809129953 0.00334134069
v -1.18672502 -0.132045016 0.00334127387
v -0.00121387281 -0.122519098 -0.0310986582
v -0.00550950645 -0.131574422 0.00334074884
v -1.19239509 -0.122159146 -0.0310982671
v 0.00788680371 -0.118130669 0.0222154167
v -0.0012145103 0.0846557319 -0.0310985241
v 0.00788677577 0.0816137418 0.0196739826
v -0.00121387281 -0.122519098 -0.0310986582
v -0.00121399981 0.849105358 -0.0310987439
v -1.19339418 1.05862057 -0.0266519412
v -0.0012146373 1.05640244 -0.0310985055
v -1.19117093 0.849105299 -0.0310981907
v -1.19533503 0.845985115 0.0131308604
v -0.00121399981 0.849105358 -0.0310987439
v -0.00550962985 0.838390648 0.00958247017
v -1.19117093 0.849105299 -0.0310981907
v -0.0012146373 1.05640244 -0.0310985055
v -0.00550962985 0.838390648 0.00958247017
v -0.00121399981 0.849105358 -0.0310987439
v 0.00118864514 1.05858171 0.0100095551
v -0.00526151527 1.00943017 0.0600095838
v 0.00788677577 0.0816137418 0.0196739826
v 0.00137833937 -0.13074176 0.0533408262
v 0.00788680371 -0.118130669 0.0222154167
v 0.00788689218 -0.822345853 0.0166781861
v -0.000854514248 -1.03968 0.0511175729
v -0.00121436338 -1.03967988 -0.0310984962
v -0.00121439225 -0.818613291 -0.0310986862
v -1.19117093 0.849105299 -0.0310981907
v -1.19533503 0.845985115 0.0131308604
v -1.19339418 1.05862057 -0.0266519412
v -1.19339418 1.05854261 0.0466721132
v -1.19339395 -0.130741909 0.0533412918
v -1.19899833 0.307197511 0.0166766662
v -1.18672502 -0.132045016 0.00334127387
v -1.19339395 -0.808949232 0.0533413403
v -1.19239509 -0.122159146 -0.0310982671
v -1.18890703 0.310566068 -0.0310988799
v -1.1867249 -0.809129953 0.00334134069
v -1.19339359 -1.03604496 -0.00232820166
v -1.18672478 -1.00895953 0.0600100644
v -1.19117105 -0.81861341 -0.0310981236
v -0.970517159 0.310566247 -0.0310996436
v -0.957341492 0.100640334 0.00516368123
v -0.973027229 0.0709735081 -0.0399900414
v -0.965550125 0.315796107 0.00849826541
v -0.965550125 0.315796107 0.00849826541
v -1.18890703 0.310566068 -0.0310988799
v -1.19899833 0.307197511 0.0166766662
v -0.970517159 0.310566247 -0.0310996436
v 0.00788680371 -0.118130669 0.0222154167
v -0.0055094175 -0.809129775 0.00334081543
v -0.00550950645 -0.131574422 0.00334074884
v 0.00788689218 -0.822345853 0.0166781861
v -0.0012145103 0.0846557319 -0.0310985241
v -0.957341492 0.100640334 0.00516368123
v -0.0053334469 0.095240064 0.00858975295
v -0.973027229 0.0709735081 -0.0399900414
v -1.17180204 1.03755867 0.0600100979
v 0.00118864514 1.05858171 0.0100095551
v -1.19339418 1.05854261 0.0466721132
v -0.00526151527 1.00943017 0.0600095838
v -1.19339418 1.05854261 0.0466721132
v 0.00118864514 1.05858171 0.0100095551
v -1.19339418 1.05862057 -0.0266519412
v -0.0012146373 1.05640244 -0.0310985055
v -0.599858403 -1.04190278 0.0533408113
v -1.18672478 -1.00895953 0.0600100644
v -1.19339359 -1.03604496 -0.00232820166
v -0.599953353 -1.04857183 0.0100097926
v -0.000854514248 -1.03968 0.0511175729
v -0.00121436338 -1.03967988 -0.0310984962
v -0.00121387281 -0.122519098 -0.0310986582
v -0.973027229 0.0709735081 -0.0399900414
v -0.0012145103 0.0846557319 -0.0310985241
v -1.19239509 -0.122159146 -0.0310982671
v -0.970517159 0.310566247 -0.0310996436
v -1.18890703 0.310566068 -0.0310988799
v -1.19339359 -1.03604496 -0.00232820166
v -0.00121439225 -0.818613291 -0.0310986862
v -0.00121436338 -1.03967988 -0.0310984962
v -1.19117105 -0.81861341 -0.0310981236
v -1.1867249 -0.809129953 0.00334134069
v -0.00121439225 -0.818613291 -0.0310986862
v -1.19117105 -0.81861341 -0.0310981236
v -0.0055094175 -0.809129775 0.00334081543
v -0.94502902 -0.809802532 0.0100099463
v -0.55703634 -0.132330269 -0.0273850895
v -0.557036281 -0.132330269 0.010009788
v -0.951543927 -0.813382566 -0.0336874686
v -0.262246996 0.840197504 -0.0273851883
v -0.685664296 0.0952341035 0.0100098606
v -0.262246996 0.840197504 0.0100096911
v -0.685664296 0.0952341035 -0.0273850244
v -0.55703634 -0.132330269 -0.0273850895
v -1.19034219 -0.810782611 -0.0315865092
v -0.815090477 -0.132479534 -0.0273849797
v -0.951543927 -0.813382566 -0.0336874686
v -0.00813019741 0.836905956 -0.0315870047
v -0.685664296 0.0952341035 -0.0273850244
v -0.262246996 0.840197504 -0.0273851883
v -0.426794052 0.0950849801 -0.0273851436
v -0.426794052 0.0950849801 -0.0273851436
v -0.00429930212 0.839844465 0.0100095877
v -0.426793993 0.0950849801 0.0100097479
v -0.00813019741 0.836905956 -0.0315870047
v -1.19034219 -0.810782611 -0.0315865092
v -0.815090477 -0.132479534 0.0100099063
v -0.815090477 -0.132479534 -0.0273849797
v -1.18889654 -0.801470339 0.0100100571
v -1.05453265 -0.0104934806 0.103224352
v -1.02175522 -2.96090984E-05 0.0600101762
v -1.05072427 -2.96128856E-05 0.103224345
v -1.03234112 -0.0291144643 0.0600101836
v -1.06417644 -0.0160611849 0.103224352
v -1.05914593 -0.0445902385 0.0600101836
v -1.07514262 -0.0141275162 0.103224345
v -1.08962715 -0.039215561 0.0600101985
v -1.08230019 -0.00559731992 0.103224352
v -1.10952258 -0.0155053139 0.0600102022
v -1.08230019 0.00553816231 0.103224345
v -1.10952258 0.0154461479 0.0600101948
v -1.07514262 0.0140684359 0.103224352
v -1.08962715 0.0391563997 0.0600101948
v -1.06417644 0.016002031 0.103224359
v -1.05914593 0.0445310809 0.0600101799
v -1.05453289 0.0104343295 0.103224352
v -1.03234112 0.0290553179 0.0600101762
v -1.05072427 -2.96128856E-05 0.103224345
v -1.02175522 -2.96090984E-05 0.0600101762
v -1.06700325 0.0161259323 0.103423558
v -0.998932004 0.00873374473 0.120078288
v -0.998955846 0.00873702578 0.103996873
v -1.06700325 0.0161259323 0.129406556
v -1.13505018 0.00873700809 0.10399694
v -1.13507426 0.00873365067 0.12007834
v -0.998932004 -0.00939499307 0.120078288
v -1.06700325 -0.0167872738 0.103423543
v -0.998955846 -0.00939834956 0.103996888
v -1.06700325 -0.0167872738 0.129406556
v -1.13505018 -0.00939836819 0.10399694
v -1.13507402 -0.00939501077 0.120078363
v -0.998955846 -0.00939834956 0.103996888
v -0.998932004 0.00873374473 0.120078288
v -0.998932004 -0.00939499307 0.120078288
v -0.998955846 0.00873702578 0.103996873
v -1.13507402 -0.00939501077 0.120078363
v -1.13505018 0.00873700809 0.10399694
v -1.13505018 -0.00939836819 0.10399694
v -1.13507426 0.00873365067 0.12007834
v -1.06700325 -0.0167872738 0.129406556
v -1.13507426 0.00873365067 0.12007834
v -1.13507402 -0.00939501077 0.120078363
v -1.06700325 0.0161259323 0.129406556
v -0.998932004 -0.00939499307 0.120078288
v -0.998932004 0.00873374473 0.120078288
v -1.07947409 -0.0104932543 -0.0758228749
v -1.11225152 -2.93920457E-05 -0.0326086953
v -1.08328235 -2.93882586E-05 -0.07582286
v -1.1016655 -0.0291142426 -0.0326086991
v -1.06983018 -0.0160609558 -0.0758228675
v -1.07486069 -0.0445900112 -0.0326086953
v -1.058864 -0.0141272852 -0.07582286
v -1.04437947 -0.0392153263 -0.032608714
v -1.05170643 -0.00559708709 -0.0758228749
v -1.02448416 -0.0155050727 -0.0326087438
v -1.05170643 0.00553839561 -0.07582286
v -1.02448416 0.0154463882 -0.0326087251
v -1.058864 0.0140686678 -0.0758228749
v -1.04437947 0.0391566381 -0.032608714
v -1.06983018 0.0160022601 -0.0758228749
v -1.07486069 0.0445313118 -0.0326086953
v -1.07947373 0.0104345558 -0.07582286
v -1.1016655 0.0290555395 -0.0326086991
v -1.08328235 -2.93882586E-05 -0.07582286
v -1.11225152 -2.93920457E-05 -0.0326086953
v -1.06700337 0.0161261614 -0.0760220513
v -1.13507462 0.00873395614 -0.092676796
v -1.13505089 0.00873723626 -0.0765954033
v -1.06700337 0.0161261614 -0.102005079
v -0.998956501 0.00873725489 -0.0765954703
v -0.998932421 0.00873389747 -0.0926768556
v -1.13507462 -0.00939478166 -0.092676796
v -1.06700337 -0.0167870466 -0.0760220736
v -1.13505089 -0.00939813908 -0.0765953884
v -1.06700337 -0.0167870466 -0.102005079
v -0.998956501 -0.00939812139 -0.0765954703
v -0.998932719 -0.00939476397 -0.092676878
v -1.13505089 -0.00939813908 -0.0765953884
v -1.13507462 0.00873395614 -0.092676796
v -1.13507462 -0.00939478166 -0.092676796
v -1.13505089 0.00873723626 -0.0765954033
v -0.998932719 -0.00939476397 -0.092676878
v -0.998956501 0.00873725489 -0.0765954703
v -0.998956501 -0.00939812139 -0.0765954703
v -0.998932421 0.00873389747 -0.0926768556
v -1.06700337 -0.0167870466 -0.102005079
v -0.998932421 0.00873389747 -0.0926768556
v -0.998932719 -0.00939476397 -0.092676878
v -1.06700337 0.0161261614 -0.102005079
v -1.13507462 -0.00939478166 -0.092676796
v -1.13507462 0.00873395614 -0.092676796
vn -0.707090676 0 0.707122803
vn -0.707090676 0 0.707122803
vn -0.707090676 0 0.707122803
vn -0.522166729 0.00478236331 0.852829993
vn -0.522166729 0.00478236284 0.852830052
vn -0.522166729 0.00478236284 0.852830052
vn 0.643197 0.00117532606 -0.765699863
vn 0.64319706 0.00117532618 -0.765699863
vn 0.64319706 0.0011753263 -0.765699863
vn 0.757601857 -0.648281872 -0.0759602413
vn 0.757601917 -0.648281872 -0.0759602338
vn 0.757601917 -0.648281872 -0.0759602338
vn 0.752232373 0.651898563 -0.0957843512
vn 0.752232373 0.651898563 -0.0957843512
vn 0.752232432 0.651898623 -0.0957843587
vn 0.743351161 0.662843525 -0.0898199975
vn 0.743351161 0.662843525 -0.0898199975
vn 0.743351161 0.662843525 -0.0898199975
vn -0.0347776152 -0.0063405144 -0.999375045
vn -0.0113657909 0.00381104462 -0.999928117
vn -0.00868756324 0.00527833914 -0.999948382
vn -0.000665842672 0.0032978435 -0.999994397
vn 0.000864219386 0.00334768044 -0.99999404
vn 0.00368702062 0.0156371277 -0.999870896
vn 0.00212269858 -0.00147299538 0.999996662
vn -6.73873874E-05 -0.00577817624 0.999983311
vn -0.000137132287 -0.00570550049 0.999983788
vn 0.000690013228 -0.00337645807 0.99999404
vn 0.00477543334 0.00155292067 0.999987364
vn 0.0117942961 0.00768234488 0.999900937
vn 0.00372063043 -0.00245510391 0.999990106
vn -4.44596651E-07 0 -1
vn -4.44609896E-07 0 -1
vn -4.44583662E-07 0 -1
vn -4.44622941E-07 0 -1
vn -0.000278804742 -0.961304128 -0.275489032
vn 0.000371115893 -0.967020512 -0.254698247
vn 0.000385184278 -0.967139244 -0.254246801
vn -0.000290545839 -0.96119684 -0.275863558
vn 0.985525966 -0.000337360572 -0.169524029
vn 0.984541416 -0.00185867527 -0.175142452
vn 0.984284878 -0.00224648812 -0.176573753
vn 0.985741735 3.14134468E-06 -0.16826573
vn -0.00331672793 0.00235128659 -0.999991775
vn -0.000412351917 0.0188741125 -0.999821842
vn -0.00372975064 1.13865474E-06 -0.999993086
vn -4.66886178E-07 0.0212168172 -0.999774873
vn -0.000165500256 -0.99719727 -0.0748167932
vn -0.00676051248 -0.968012333 -0.250811547
vn -0.00693265582 -0.9668172 -0.255374819
vn 0 -0.997520864 -0.0703705102
vn 0.998904347 -0.026833646 -0.0383413732
vn 0.999930501 0.00755859213 -0.00904611778
vn 0.994471312 2.93726112E-06 0.105009444
vn 0.999532461 -0.0303997155 -0.00327407895
vn 0.996173441 -0.0249889381 0.0837502033
vn 0.97743541 0.00456186524 0.211185113
vn 0.978622794 7.92057908E-05 0.205663309
vn 0.978746593 0.00101375894 0.205071107
vn 0.996167481 -0.0051135812 0.087316528
vn 0.99911648 -0.0370383747 0.0198604297
vn 0.998928845 -0.0352391712 -0.0299903303
vn 0.982335031 0 -0.187130526
vn -0.99550432 -0.00856178068 -0.0943292156
vn -0.999943018 -0.00149925472 0.01057541
vn -0.999901414 0.00683125714 -0.0122693349
vn -0.999949694 0.00822312385 0.00575188221
vn -0.992135763 -0.0113343056 -0.124652013
vn -0.995616913 0.0068075275 0.0932770148
vn -0.998723209 -0.0178581644 -0.0472533219
vn -0.993786216 0.0110559454 -0.110755607
vn -0.990814626 -0.029912008 0.131877795
vn -0.978494406 0.00788713526 -0.20612289
vn -0.998019934 0.0192959309 -0.0598668307
vn -0.996922433 -0.0121825607 0.0774413422
vn -0.992487192 -0.029130958 0.118830018
vn -0.992319167 0.0261417367 0.120909527
vn 0.987263024 0.0351608805 -0.155162513
vn 0.949917018 0.00564631959 -0.312451124
vn 0.944146574 0.00233602081 -0.329517663
vn 0.990775049 0.0398077779 -0.12953794
vn -0.0049284678 0.994609952 -0.103569523
vn -0.0311549045 0.998552382 0.0438460968
vn -0.0345295183 0.997413993 0.0630317405
vn -1.27995645E-06 0.991390586 -0.130937278
vn 0.812935174 0.000146804596 -0.582354188
vn 0.710073829 0.0054665939 -0.704105973
vn 0.815478921 0 -0.57878691
vn 0.708279967 0.00555064436 -0.705909848
vn 0.00591909792 0.963250995 -0.268537819
vn -0.00647505978 0.840774596 -0.54134661
vn 0.00640684832 0.966375589 -0.257054538
vn -0.00677271187 0.836812198 -0.547448158
vn 0.0253007002 0.559186459 0.82865572
vn 0.0172947459 0.709817708 0.704173088
vn 0.0255036 0.554819703 0.831579566
vn 0.0171666462 0.711919188 0.702051461
vn 0 0.999999523 0.00106339436
vn 0.00159424171 0.998703122 -0.0508871116
vn 3.62651008E-05 1 -0.000120434343
vn 0.00166016701 0.998591244 -0.0530353449
vn -0.0108318254 -0.986831188 0.161389887
vn -0.0467536673 -0.914327145 0.402268529
vn -0.0450110175 -0.928241968 0.369243801
vn -0.0108801322 -0.993867576 -0.110040605
vn 0.0143588465 -0.999872327 0.0070139938
vn 0.0140538337 -0.99983418 -0.011577554
vn 0.00800401159 -0.00574980211 -0.999951482
vn -0.0354390182 -0.00324300025 -0.999366581
vn 0.00914901868 6.72576959E-07 -0.999958158
vn -0.0177336913 -0.0121698128 -0.999768674
vn -0.0219272655 0.0112399254 -0.999696374
vn -3.49554807E-06 -1.38689904E-06 -1
vn -0.00283539225 -0.115881249 -0.993259072
vn -0.0213535763 -0.0151924472 -0.999656558
vn -0.0241255071 -8.65695938E-07 -0.999708951
vn -4.52355295E-07 -0.131173879 -0.991359413
vn -2.51609521E-07 0.964114964 -0.265485346
vn -2.4421476E-07 0.964114964 -0.265485078
vn -2.51746201E-07 0.964114964 -0.265485346
vn -2.44055144E-07 0.964114964 -0.265485108
vn 0.862567604 -0.498704761 -0.0852688923
vn 0.867686629 -0.497101694 -0.00311620417
vn 0.867765009 -0.496974677 -4.94421954E-07
vn 0.862325251 -0.498700589 -0.0877081901
vn -0.869385064 0.494135171 4.95344977E-07
vn -0.869385064 0.494135231 4.95344977E-07
vn -0.869385064 0.494135171 4.95344977E-07
vn -0.869385064 0.494135171 4.95344977E-07
vn -0.00187155209 0.00793946441 -0.999966741
vn -0.0066703232 0.0124185011 -0.999900699
vn -4.00600584E-06 0.00619627815 -0.999980807
vn -0.00864158291 0.01425834 -0.999861002
vn -0.0129396534 0.00615569716 -0.999897361
vn -0.00348013709 -0.00248631556 -0.99999094
vn -0.0164112058 0.00932746846 -0.999821842
vn -3.72083832E-06 -0.00566206127 -0.999984026
vn 0.869818866 -0.493369192 -0.00140185014
vn 0.869892657 -0.491269261 -0.0440604314
vn 0.869789541 -0.493422955 -4.95575421E-07
vn 0.869868994 -0.4911879 -0.045412425
vn -0.870526373 0.486244082 -0.0758324042
vn -0.874949932 0.484205872 -0.0026909064
vn -0.875023067 0.484081328 4.98557313E-07
vn -0.870264709 0.48627004 -0.0786169767
vn 0.636300325 -0.533918619 0.556823909
vn 0.83063215 8.87391195E-07 0.556821525
vn 0.83063072 1.03282691E-05 0.556823611
vn 0.636300921 -0.533919752 0.55682224
vn 0.144231901 -0.818013966 0.556821704
vn 0.144237682 -0.818011224 0.556824088
vn -0.415318668 -0.71934545 0.556823552
vn -0.415314704 -0.719347 0.556824505
vn -0.78053695 -0.284091055 0.556825101
vn -0.780535877 -0.284092128 0.556826234
vn -0.780537605 0.28408739 0.556826115
vn -0.780536592 0.28409183 0.55682534
vn -0.415316164 0.719345868 0.556824863
vn -0.415314913 0.719347894 0.556823254
vn 0.144238189 0.818011701 0.556823254
vn 0.144237652 0.818011582 0.55682373
vn 0.636298656 0.53392005 0.556824267
vn 0.636300683 0.533918262 0.556823909
vn 0.83063072 1.03282691E-05 0.556823611
vn 0.83063215 8.87391195E-07 0.556821525
vn 3.66824338E-06 1 3.1883676E-06
vn 0.107951969 0.994156122 3.35220611E-05
vn 0.107949689 0.994156361 4.29610081E-05
vn 3.17949434E-06 1 3.52086204E-06
vn -0.107964218 0.994154751 3.52137577E-05
vn -0.107968114 0.994154394 4.57243514E-05
vn 0.107952431 -0.994156003 3.72038448E-05
vn 4.39972428E-06 -1 3.53791552E-06
vn 0.107949883 -0.994156241 4.76775967E-05
vn 3.9525753E-06 -1 3.67874509E-06
vn -0.107964568 -0.994154751 3.67900175E-05
vn -0.107968614 -0.994154394 4.7772086E-05
vn 0.999998927 1.30345001E-07 -0.00148076913
vn 0.999998927 1.30285656E-07 -0.00148076913
vn 0.999998927 1.30704578E-07 -0.0014807696
vn 0.999998927 1.29926178E-07 -0.00148076867
vn -0.999998927 -7.90560443E-06 -0.00148839457
vn -0.999998927 -9.18878322E-06 -0.00148984161
vn -0.999998927 -1.30704578E-07 -0.00147962826
vn -0.999998927 -1.69657542E-05 -0.00149861013
vn 1.68993068E-07 -1.2883342E-07 1
vn -0.135767981 -1.10670589E-06 0.990740657
vn -0.135768145 -1.52147845E-06 0.990740657
vn 2.35788519E-07 0 1
vn 0.135767922 0 0.990740657
vn 0.135767907 0 0.990740657
vn -0.636300206 -0.533918619 -0.556823909
vn -0.83063215 4.67084618E-07 -0.556821585
vn -0.83063072 1.01906307E-05 -0.55682373
vn -0.636300683 -0.53391993 -0.556822121
vn -0.144231707 -0.818013966 -0.556821644
vn -0.144237459 -0.818011403 -0.556824028
vn 0.415318787 -0.719345391 -0.556823552
vn 0.415314555 -0.71934706 -0.556824565
vn 0.780537069 -0.284090757 -0.556825221
vn 0.780535758 -0.284092039 -0.556826472
vn 0.780537546 0.284087509 -0.556826293
vn 0.780536413 0.284092009 -0.556825519
vn 0.415315896 0.719345927 -0.556825042
vn 0.415314645 0.719348013 -0.556823313
vn -0.144238532 0.818011701 -0.556823194
vn -0.144237891 0.818011403 -0.55682379
vn -0.636298835 0.53391999 -0.556824267
vn -0.636300743 0.533917964 -0.556823969
vn -0.83063072 1.01906307E-05 -0.55682373
vn -0.83063215 4.67084618E-07 -0.556821585
vn -3.9296533E-06 1 -3.18837033E-06
vn -0.107952207 0.994156003 -3.35220648E-05
vn -0.107949905 0.994156241 -4.29610227E-05
vn -3.43046145E-06 1 -3.52086113E-06
vn 0.107963972 0.994154751 -3.52137795E-05
vn 0.107967868 0.994154394 -4.57243914E-05
vn -0.10795217 -0.994156003 -3.72038194E-05
vn -4.14311171E-06 -1 -3.53790915E-06
vn -0.107949637 -0.994156361 -4.76775713E-05
vn -3.69116606E-06 -1 -3.67874668E-06
vn 0.107964821 -0.994154751 -3.67900357E-05
vn 0.107968867 -0.994154274 -4.77720969E-05
vn -0.999998927 -1.30345001E-07 0.00148076902
vn -0.999998927 -1.30285656E-07 0.00148076925
vn -0.999998927 -1.30704578E-07 0.00148076867
vn -0.999998927 -1.29926178E-07 0.00148076948
vn 0.999998927 -7.64437209E-06 0.00148839573
vn 0.999998927 -8.92758817E-06 0.00148984266
vn 0.999998927 1.30704578E-07 0.00147962919
vn 0.999998927 -1.67047365E-05 0.00149861141
vn -1.48440606E-07 -1.06507038E-07 -1
vn 0.13576813 -8.82501695E-07 -0.990740657
vn 0.135768265 -1.22539541E-06 -0.990740657
vn -1.94683764E-07 0 -1
vn -0.135768056 0 -0.990740657
vn -0.135768056 0 -0.990740657
vt 0.0228710026 0.420173526
vt 0.0250132047 0.462235242
vt 0.0228826031 0.268936515
vt 0.0210250057 0.00523013016
vt 0.0228826031 0.268936515
vt 0.0285587758 0.00804747641
vt 0.333565235 0.636824369
vt 0.329324216 0.803915858
vt 0.333227783 0.800914943
vt 0.325214505 0.9260602
vt 0.324314356 0.917873323
vt 0.319824755 0.929310322
vt 0.319008797 0.859931529
vt 0.323774815 0.870721281
vt 0.324186772 0.861090243
vt 0.00925861672 0.862374485
vt 0.0137063749 0.872999132
vt 0.0147549324 0.863070488
vt 0.6015203 0.754822671
vt 0.600983083 0.635854483
vt 0.548440456 0.752546668
vt 0.333565235 0.636824369
vt 0.333227783 0.800914943
vt 0.546546698 0.799853861
vt 0.0228826031 0.268936515
vt 0.292948216 0.0152340606
vt 0.0285587758 0.00804747641
vt 0.294986397 0.268961638
vt 0.158906326 0.467601359
vt 0.0250132047 0.462235242
vt 0.293893039 0.469186097
vt 0.0149152614 0.856483877
vt 0.280078381 0.70695281
vt 0.0149165355 0.706846058
vt 0.28007713 0.856486678
vt 0.596155345 0.92609936
vt 0.324314356 0.917873323
vt 0.325214505 0.9260602
vt 0.597285211 0.917910993
vt 0.302687764 0.266143322
vt 0.313834041 0.221904665
vt 0.303257436 0.221600369
vt 0.313834041 0.266123027
vt 0.332679003 0.616551816
vt 0.60838604 0.570395172
vt 0.329843372 0.56903702
vt 0.604625225 0.61594224
vt 0.606768966 0.625853479
vt 0.332679003 0.616551816
vt 0.333648473 0.626167893
vt 0.604625225 0.61594224
vt 0.313680857 0.00519197155
vt 0.305018365 0.052664753
vt 0.313680828 0.0494489297
vt 0.305227935 0.00519728474
vt 0.292948216 0.0152340606
vt 0.303257436 0.221600369
vt 0.294986397 0.268961638
vt 0.302687764 0.266143322
vt 0.303952336 0.423191309
vt 0.293893039 0.469186097
vt 0.313838094 0.467595547
vt 0.313836724 0.423338115
vt 0.00594131649 0.0498599671
vt 0.0158511996 0.0496078357
vt 0.0042221453 0.00565227168
vt 0.0210250057 0.00523013016
vt 0.0228826031 0.268936515
vt 0.0134688281 0.171220884
vt 0.0109043606 0.269112825
vt 0.0228710026 0.420173526
vt 0.0037452206 0.266074747
vt 0.00373882428 0.171487987
vt 0.0110110231 0.420396149
vt 0.0105431937 0.466389507
vt 0.0250132047 0.462235242
vt 0.00406489335 0.423548222
vt 0.549379587 0.817448616
vt 0.540067136 0.861454904
vt 0.547650278 0.872599661
vt 0.539838314 0.81624788
vt 0.549059868 0.807995319
vt 0.600564122 0.820299268
vt 0.60525918 0.810347557
vt 0.549379587 0.817448616
vt 0.00970112905 0.703876078
vt 0.0149152614 0.856483877
vt 0.0149165355 0.706846058
vt 0.0106630288 0.859402597
vt 0.323774815 0.870721281
vt 0.540067136 0.861454904
vt 0.324186772 0.861090243
vt 0.547650278 0.872599661
vt 0.601141572 0.54309833
vt 0.33136341 0.557833791
vt 0.606061161 0.550461709
vt 0.331517339 0.54709667
vt 0.606061161 0.550461709
vt 0.33136341 0.557833791
vt 0.60633117 0.566397846
vt 0.329843372 0.56903702
vt 0.150264397 0.94222194
vt 0.284567684 0.943803787
vt 0.285645962 0.928453982
vt 0.14977783 0.932354629
vt 0.0118121207 0.94337678
vt 0.0135537535 0.921071768
vt 0.324314356 0.917873323
vt 0.547650278 0.872599661
vt 0.323774815 0.870721281
vt 0.597285211 0.917910993
vt 0.549379587 0.817448616
vt 0.600564122 0.820299268
vt 0.285645962 0.928453982
vt 0.0137063749 0.872999132
vt 0.0135537535 0.921071768
vt 0.28408283 0.87801075
vt 0.283115745 0.870845854
vt 0.0137063749 0.872999132
vt 0.28408283 0.87801075
vt 0.0147549324 0.863070488
vt 0.609696507 0.903806388
vt 0.619795203 0.727545619
vt 0.611154258 0.727477491
vt 0.61983943 0.905089259
vt 0.674871981 0.559250891
vt 0.6824404 0.75178498
vt 0.683572471 0.559222877
vt 0.674022019 0.751997113
vt 0.619795203 0.727545619
vt 0.667687833 0.931636453
vt 0.672571659 0.756657541
vt 0.61983943 0.905089259
vt 0.623460531 0.533027768
vt 0.674022019 0.751997113
vt 0.674871981 0.559250891
vt 0.621939361 0.723147333
vt 0.621939361 0.723147333
vt 0.613447666 0.530888081
vt 0.613335073 0.723170578
vt 0.623460531 0.533027768
vt 0.667687833 0.931636453
vt 0.681305587 0.756742537
vt 0.672571659 0.756657541
vt 0.677604556 0.931078136
vt 0.732090414 0.666754127
vt 0.747769177 0.686484754
vt 0.736022413 0.666096747
vt 0.736719966 0.690917253
vt 0.72810334 0.666337848
vt 0.724843502 0.690654039
vt 0.723780632 0.664484978
vt 0.714113891 0.686770201
vt 0.719307959 0.661408782
vt 0.704879642 0.680767
vt 0.715134978 0.657495499
vt 0.696952105 0.673333108
vt 0.711771548 0.653224349
vt 0.69035089 0.664487898
vt 0.709631085 0.649018347
vt 0.685746968 0.653994203
vt 0.708938301 0.645046115
vt 0.684653163 0.642094493
vt 0.709314764 0.641053617
vt 0.688274801 0.630696654
vt 0.801898718 0.660390973
vt 0.795535028 0.682819605
vt 0.8018381 0.682786763
vt 0.792660177 0.660391927
vt 0.801832318 0.63799566
vt 0.795529187 0.637964725
vt 0.778214335 0.682821512
vt 0.771831751 0.66039288
vt 0.771911681 0.682796419
vt 0.781067312 0.660391927
vt 0.771910012 0.637989819
vt 0.778212845 0.637963772
vt 0.783663332 0.689323246
vt 0.79000473 0.68380785
vt 0.783703983 0.683795333
vt 0.790007651 0.689338744
vt 0.783704937 0.636990964
vt 0.79000777 0.6314466
vt 0.78366375 0.631463051
vt 0.790005386 0.636978447
vt 0.781067312 0.660391927
vt 0.790005386 0.636978447
vt 0.783704937 0.636990964
vt 0.792660177 0.660391927
vt 0.783703983 0.683795333
vt 0.79000473 0.68380785
vt 0.732090414 0.666754127
vt 0.747769177 0.686484754
vt 0.736022413 0.666096747
vt 0.736719966 0.690917253
vt 0.72810334 0.666337848
vt 0.724843502 0.690654039
vt 0.723780632 0.664484978
vt 0.714113891 0.686770201
vt 0.719307959 0.661408782
vt 0.704879642 0.680767
vt 0.715134978 0.657495499
vt 0.696952105 0.673333108
vt 0.711771548 0.653224349
vt 0.69035089 0.664487898
vt 0.709631085 0.649018347
vt 0.685746968 0.653994203
vt 0.708938301 0.645046115
vt 0.684653163 0.642094493
vt 0.709314764 0.641053617
vt 0.688274801 0.630696654
vt 0.801898718 0.660390973
vt 0.795535028 0.682819605
vt 0.8018381 0.682786763
vt 0.792660177 0.660391927
vt 0.801832318 0.63799566
vt 0.795529187 0.637964725
vt 0.778214335 0.682821512
vt 0.771831751 0.66039288
vt 0.771911681 0.682796419
vt 0.781067312 0.660391927
vt 0.771910012 0.637989819
vt 0.778212845 0.637963772
vt 0.783663332 0.689323246
vt 0.79000473 0.68380785
vt 0.783703983 0.683795333
vt 0.790007651 0.689338744
vt 0.783704937 0.636990964
vt 0.79000777 0.6314466
vt 0.78366375 0.631463051
vt 0.790005386 0.636978447
vt 0.781067312 0.660391927
vt 0.790005386 0.636978447
vt 0.783704937 0.636990964
vt 0.792660177 0.660391927
vt 0.783703983 0.683795333
vt 0.79000473 0.68380785
g submesh0
f 1/1/1 2/2/2 3/3/3
f 4/4/4 5/5/5 6/6/6
f 7/7/7 8/8/8 9/9/9
f 10/10/10 11/11/11 12/12/12
f 13/13/13 14/14/14 15/15/15
f 16/16/16 17/17/17 18/18/18
f 19/19/19 20/20/20 21/21/21
f 21/21/21 20/20/20 22/22/22
f 21/21/21 22/22/22 23/23/23
f 23/23/23 24/24/24 21/21/21
f 25/25/25 26/26/26 27/27/27
f 26/26/26 25/25/25 28/28/28
f 25/25/25 29/29/29 28/28/28
f 25/25/25 30/30/30 29/29/29
f 29/29/29 31/31/31 28/28/28
f 32/32/32 33/33/33 34/34/34
f 33/33/33 32/32/32 35/35/35
f 36/36/36 37/37/37 38/38/38
f 37/37/37 36/36/36 39/39/39
f 40/40/40 41/41/41 42/42/42
f 41/41/41 40/40/40 43/43/43
f 44/44/44 45/45/45 46/46/46
f 45/45/45 44/44/44 47/47/47
f 48/48/48 49/49/49 50/50/50
f 49/49/49 48/48/48 51/51/51
f 52/52/52 53/53/53 54/54/54
f 53/53/53 52/52/52 55/55/55
f 56/56/56 53/53/53 55/55/55
f 56/56/56 57/57/57 53/53/53
f 57/57/57 56/56/56 58/58/58
f 58/58/58 59/59/59 57/57/57
f 58/58/58 60/60/60 59/59/59
f 60/60/60 58/58/58 61/61/61
f 61/61/61 62/62/62 60/60/60
f 63/63/63 60/60/60 62/62/62
f 64/64/64 65/65/65 66/66/66
f 67/67/67 66/66/66 65/65/65
f 67/67/67 65/65/65 68/68/68
f 68/68/68 65/65/65 69/69/69
f 68/68/68 69/69/69 70/70/70
f 70/70/70 71/71/71 68/68/68
f 69/69/69 72/72/72 70/70/70
f 72/72/72 69/69/69 73/73/73
f 71/71/71 70/70/70 74/74/74
f 71/71/71 74/74/74 75/75/75
f 71/71/71 75/75/75 76/76/76
f 75/75/75 74/74/74 77/77/77
f 78/78/78 79/79/79 80/80/80
f 79/79/79 78/78/78 81/81/81
f 82/82/82 83/83/83 84/84/84
f 83/83/83 82/82/82 85/85/85
f 86/86/86 87/87/87 88/88/88
f 87/87/87 86/86/86 89/89/89
f 90/90/90 91/91/91 92/92/92
f 91/91/91 90/90/90 93/93/93
f 94/94/94 95/95/95 96/96/96
f 95/95/95 94/94/94 97/97/97
f 98/98/98 99/99/99 100/100/100
f 99/99/99 101/101/101 100/100/100
f 102/102/102 103/103/103 104/104/104
f 102/102/102 104/104/104 105/105/105
f 102/102/102 105/105/105 106/106/106
f 107/107/107 105/105/105 104/104/104
f 105/105/105 107/107/107 106/106/106
f 108/108/108 109/109/109 110/110/110
f 108/108/108 111/111/111 109/109/109
f 109/109/109 111/111/111 112/112/112
f 112/112/112 111/111/111 113/113/113
f 114/114/114 115/115/115 116/116/116
f 115/115/115 114/114/114 117/117/117
f 118/118/118 119/119/119 120/120/120
f 119/119/119 118/118/118 121/121/121
f 122/122/122 123/123/123 124/124/124
f 123/123/123 122/122/122 125/125/125
f 126/126/126 127/127/127 128/128/128
f 127/127/127 126/126/126 129/129/129
f 130/130/130 131/131/131 132/132/132
f 131/131/131 130/130/130 133/133/133
f 134/134/134 135/135/135 136/136/136
f 135/135/135 134/134/134 137/137/137
f 138/138/138 139/139/139 140/140/140
f 139/139/139 138/138/138 141/141/141
f 142/142/142 143/143/143 144/144/144
f 143/143/143 142/142/142 145/145/145
f 146/146/146 147/147/147 148/148/148
f 147/147/147 146/146/146 149/149/149
f 150/150/150 149/149/149 146/146/146
f 149/149/149 150/150/150 151/151/151
f 152/152/152 151/151/151 150/150/150
f 151/151/151 152/152/152 153/153/153
f 154/154/154 153/153/153 152/152/152
f 153/153/153 154/154/154 155/155/155
f 156/156/156 155/155/155 154/154/154
f 155/155/155 156/156/156 157/157/157
f 158/158/158 157/157/157 156/156/156
f 157/157/157 158/158/158 159/159/159
f 160/160/160 159/159/159 158/158/158
f 159/159/159 160/160/160 161/161/161
f 162/162/162 161/161/161 160/160/160
f 161/161/161 162/162/162 163/163/163
f 164/164/164 163/163/163 162/162/162
f 163/163/163 164/164/164 165/165/165
f 166/166/166 167/167/167 168/168/168
f 167/167/167 166/166/166 169/169/169
f 170/170/170 169/169/169 166/166/166
f 169/169/169 170/170/170 171/171/171
f 172/172/172 173/173/173 174/174/174
f 173/173/173 172/172/172 175/175/175
f 175/175/175 176/176/176 173/173/173
f 176/176/176 175/175/175 177/177/177
f 178/178/178 179/179/179 180/180/180
f 179/179/179 178/178/178 181/181/181
f 182/182/182 183/183/183 184/184/184
f 183/183/183 182/182/182 185/185/185
f 186/186/186 187/187/187 188/188/188
f 187/187/187 186/186/186 189/189/189
f 190/190/190 189/189/189 186/186/186
f 189/189/189 190/190/190 191/191/191
f 192/192/192 193/193/193 194/194/194
f 193/193/193 192/192/192 195/195/195
f 196/196/196 195/195/195 192/192/192
f 195/195/195 196/196/196 197/197/197
f 198/198/198 197/197/197 196/196/196
f 197/197/197 198/198/198 199/199/199
f 200/200/200 199/199/199 198/198/198
f 199/199/199 200/200/200 201/201/201
f 202/202/202 201/201/201 200/200/200
f 201/201/201 202/202/202 203/203/203
f 204/204/204 203/203/203 202/202/202
f 203/203/203 204/204/204 205/205/205
f 206/206/206 205/205/205 204/204/204
f 205/205/205 206/206/206 207/207/207
f 208/208/208 207/207/207 206/206/206
f 207/207/207 208/208/208 209/209/209
f 210/210/210 209/209/209 208/208/208
f 209/209/209 210/210/210 211/211/211
f 212/212/212 213/213/213 214/214/214
f 213/213/213 212/212/212 215/215/215
f 216/216/216 215/215/215 212/212/212
f 215/215/215 216/216/216 217/217/217
f 218/218/218 219/219/219 220/220/220
f 219/219/219 218/218/218 221/221/221
f 221/221/221 222/222/222 219/219/219
f 222/222/222 221/221/221 223/223/223
f 224/224/224 225/225/225 226/226/226
f 225/225/225 224/224/224 227/227/227
f 228/228/228 229/229/229 230/230/230
f 229/229/229 228/228/228 231/231/231
f 232/232/232 233/233/233 234/234/234
f 233/233/233 232/232/232 235/235/235
f 236/236/236 235/235/235 232/232/232
f 235/235/235 236/236/236 237/237/237
