# wooden_walkway_large_edge_300_a_LOD2
v 1.14049923 7.60247644E-07 1.52635491
v 1.14049923 7.60247644E-07 -1.51567626
v -1.51431274 7.60247644E-07 -1.51567626
v -1.51431274 7.60247644E-07 1.52635491
v 1.14049923 7.60247644E-07 1.52635491
v 1.14049923 -1.15482891 1.52635491
v 1.14049923 -1.1548295 -1.51567626
v 1.14049923 7.60247644E-07 -1.51567626
v 1.26092649 -18.8366852 1.32621825
v 1.26293945 0.157943264 1.32487547
v 1.30012321 0.157944486 1.13793695
v 1.29877925 -18.8366852 1.13592529
v 1.29877925 -18.8366852 1.13592529
v 1.30012321 0.157944486 1.13793695
v 1.48706174 0.157944486 1.17511964
v 1.4890734 -18.8366852 1.17377687
v 1.4890734 -18.8366852 1.17377687
v 1.48706174 0.157944486 1.17511964
v 1.44987786 0.157945096 1.36205804
v 1.45122194 -18.8366852 1.36406982
v 1.45122194 -18.8366852 1.36406982
v 1.44987786 0.157945096 1.36205804
v 1.26293945 0.157943264 1.32487547
v 1.26092649 -18.8366852 1.32621825
v 1.30012321 0.157944486 1.13793695
v 1.26293945 0.157943264 1.32487547
v 1.44987786 0.157945096 1.36205804
v 1.48706174 0.157944486 1.17511964
v 1.11249995 -18.8986855 -0.19350341
v 1.11249995 -0.373999476 -0.19350341
v 0.9375 -0.373999476 -0.19350341
v 0.9375 -18.8986855 -0.19350341
v 0.9375 -18.8986855 -0.19350341
v 0.9375 -0.373999476 -0.19350341
v 0.9375 -0.373999476 -0.368503422
v 0.9375 -18.8986855 -0.368503422
v 0.9375 -18.8986855 -0.368503422
v 0.9375 -0.373999476 -0.368503422
v 1.11249995 -0.373999476 -0.368503422
v 1.11249995 -18.8986855 -0.368503422
v 1.11249995 -18.8986855 -0.368503422
v 1.11249995 -0.373999476 -0.368503422
v 1.11249995 -0.373999476 -0.19350341
v 1.11249995 -18.8986855 -0.19350341
v -1.51431274 -0.345153034 -1.51567626
v 1.14049923 -0.345153034 -1.51567626
v 1.14049923 -0.345153034 1.52635491
v -1.51431274 -0.345153034 1.52635491
v -1.51431274 7.60247644E-07 -1.51567626
v 1.14049923 7.60247644E-07 -1.51567626
v 1.14049923 7.60247644E-07 1.52635491
v -1.51431274 7.60247644E-07 1.52635491
v 1.14049923 7.60247644E-07 1.52635491
v 1.14049923 7.60247644E-07 -1.51567626
v 1.14049923 -1.1548295 -1.51567626
v 1.14049923 -1.15482891 1.52635491
v 1.14049923 -0.345153034 1.52635491
v 1.14049923 -0.345153034 -1.51567626
v -1.51431274 -0.345153034 -1.51567626
v -1.51431274 -0.345153034 1.52635491
v 1.11249995 -18.8986855 1.30650139
v 1.11249995 -0.373999476 1.306499
v 0.9375 -0.373999476 1.306499
v 0.9375 -18.8986855 1.30650139
v 0.9375 -18.8986855 1.30650139
v 0.9375 -0.373999476 1.306499
v 0.9375 -0.373999476 1.13149905
v 0.9375 -18.8986855 1.13150144
v 0.9375 -18.8986855 1.13150144
v 0.9375 -0.373999476 1.13149905
v 1.11249995 -0.373999476 1.13149905
v 1.11249995 -18.8986855 1.13150144
v 1.11249995 -18.8986855 1.13150144
v 1.11249995 -0.373999476 1.13149905
v 1.11249995 -0.373999476 1.306499
v 1.11249995 -18.8986855 1.30650139
vn 0 1 0
vn 0 1 0
vn 0 1 0
vn 0 1 0
vn 1 0 0
vn 1 0 0
vn 1 0 0
vn 1 0 0
vn -0.980785012 9.01027233E-05 -0.195091903
vn -0.980785012 9.01027161E-05 -0.195091903
vn -0.980785012 9.01027233E-05 -0.195091903
vn -0.980785012 9.01027233E-05 -0.195091903
vn 0.195085138 9.00334271E-05 -0.980786264
vn 0.195085138 9.00334198E-05 -0.980786264
vn 0.195085138 9.00334198E-05 -0.980786264
vn 0.195085138 9.00334271E-05 -0.980786264
vn 0.980785549 9.00711893E-05 0.195088819
vn 0.980785549 9.00711821E-05 0.195088819
vn 0.980785549 9.00711821E-05 0.195088819
vn 0.980785549 9.00711821E-05 0.195088819
vn -0.195084542 9.00396844E-05 0.980786502
vn -0.195084572 9.0039699E-05 0.980786502
vn -0.195084542 9.0039699E-05 0.980786502
vn -0.195084542 9.0039699E-05 0.980786502
vn -5.02344164E-06 1 6.3328298E-07
vn -5.02344164E-06 1 6.3328298E-07
vn -5.02344164E-06 1 6.3328298E-07
vn -5.02344164E-06 1 6.3328298E-07
vn 0 0 1
vn 0 0 1
vn 0 0 1
vn 0 0 1
vn -1 0 0
vn -1 0 0
vn -1 0 0
vn -1 0 0
vn 0 0 -1
vn 0 0 -1
vn 0 0 -1
vn 0 0 -1
vn 1 0 0
vn 1 0 0
vn 1 0 0
vn 1 0 0
vn 0 -1 0
vn 0 -1 0
vn 0 -1 0
vn 0 -1 0
vn 0 -1 0
vn 0 -1 0
vn 0 -1 0
vn 0 -1 0
vn -1 0 0
vn -1 0 0
vn -1 0 0
vn -1 0 0
vn 0 1 0
vn 0 1 0
vn 0 1 0
vn 0 1 0
vn 0 1.31792035E-07 1
vn 0 1.31792035E-07 1
vn 0 1.31792035E-07 1
vn 0 1.31792035E-07 1
vn -1 0 0
vn -1 0 0
vn -1 0 0
vn -1 0 0
vn 0 -1.31792035E-07 -1
vn 0 -1.31792035E-07 -1
vn 0 -1.31792035E-07 -1
vn 0 -1.31792035E-07 -1
vn 1 0 0
vn 1 0 0
vn 1 0 0
vn 1 0 0
vt 0.890367746 0.0857115984
vt 0.890370727 0.0124818087
vt 0.824105918 0.01248312
vt 0.824106097 0.0857129097
vt 0.890367746 0.0857115984
vt 0.919190049 0.0857145786
vt 0.919195652 0.0124846697
vt 0.890370727 0.0124818087
vt 0.0182836652 0.557196617
vt 0.0183348879 0.341269016
vt 0.0135774119 0.34126687
vt 0.0134409256 0.557194471
vt 0.0327141508 0.557198048
vt 0.0326801091 0.341270447
vt 0.0278983694 0.341270208
vt 0.0278960131 0.557197571
vt 0.0278960131 0.557197571
vt 0.0278983694 0.341270208
vt 0.0231166296 0.341269493
vt 0.0231018011 0.557197094
vt 0.0231018011 0.557197094
vt 0.0231166296 0.341269493
vt 0.0183348879 0.341269016
vt 0.0182836652 0.557196617
vt 0.0278872494 0.33668232
vt 0.0231301077 0.336681128
vt 0.0231166296 0.341269493
vt 0.0278983694 0.341270208
vt 0.0467517748 0.55815053
vt 0.0467517748 0.355804205
vt 0.0424323976 0.355804205
vt 0.0424323976 0.55815053
vt 0.0597102307 0.55815053
vt 0.0597100593 0.355804205
vt 0.0553906858 0.355804205
vt 0.0553906858 0.55815053
vt 0.0553906858 0.55815053
vt 0.0553906858 0.355804205
vt 0.051071316 0.355804205
vt 0.051071316 0.55815053
vt 0.051071316 0.55815053
vt 0.051071316 0.355804205
vt 0.0467517748 0.355804205
vt 0.0467517748 0.55815053
vt 0.824105918 0.01248312
vt 0.890370727 0.0124818087
vt 0.890367746 0.0857115984
vt 0.824106097 0.0857129097
vt 0.824105918 0.01248312
vt 0.890370727 0.0124818087
vt 0.890367746 0.0857115984
vt 0.824106097 0.0857129097
vt 0.890367746 0.0857115984
vt 0.890370727 0.0124818087
vt 0.919195652 0.0124846697
vt 0.919190049 0.0857145786
vt 0.890367746 0.0857115984
vt 0.890370727 0.0124818087
vt 0.824105918 0.01248312
vt 0.824106097 0.0857129097
vt 0.0467517748 0.55815053
vt 0.0467517748 0.355804205
vt 0.0424323976 0.355804205
vt 0.0424323976 0.55815053
vt 0.0597102307 0.55815053
vt 0.0597100593 0.355804205
vt 0.0553906858 0.355804205
vt 0.0553906858 0.55815053
vt 0.0553906858 0.55815053
vt 0.0553906858 0.355804205
vt 0.051071316 0.355804205
vt 0.051071316 0.55815053
vt 0.051071316 0.55815053
vt 0.051071316 0.355804205
vt 0.0467517748 0.355804205
vt 0.0467517748 0.55815053
g submesh0
f 1/1/1 2/2/2 3/3/3
f 1/1/1 3/3/3 4/4/4
f 5/5/5 6/6/6 7/7/7
f 5/5/5 7/7/7 8/8/8
f 9/9/9 10/10/10 11/11/11
f 9/9/9 11/11/11 12/12/12
f 13/13/13 14/14/14 15/15/15
f 13/13/13 15/15/15 16/16/16
f 17/17/17 18/18/18 19/19/19
f 17/17/17 19/19/19 20/20/20
f 21/21/21 22/22/22 23/23/23
f 21/21/21 23/23/23 24/24/24
f 25/25/25 26/26/26 27/27/27
f 25/25/25 27/27/27 28/28/28
f 29/29/29 30/30/30 31/31/31
f 29/29/29 31/31/31 32/32/32
f 33/33/33 34/34/34 35/35/35
f 33/33/33 35/35/35 36/36/36
f 37/37/37 38/38/38 39/39/39
f 37/37/37 39/39/39 40/40/40
f 41/41/41 42/42/42 43/43/43
f 41/41/41 43/43/43 44/44/44
f 45/45/45 46/46/46 47/47/47
f 45/45/45 47/47/47 48/48/48
f 49/49/49 50/50/50 51/51/51
f 49/49/49 51/51/51 52/52/52
f 53/53/53 54/54/54 55/55/55
f 53/53/53 55/55/55 56/56/56
f 57/57/57 58/58/58 59/59/59
f 57/57/57 59/59/59 60/60/60
f 61/61/61 62/62/62 63/63/63
f 61/61/61 63/63/63 64/64/64
f 65/65/65 66/66/66 67/67/67
f 65/65/65 67/67/67 68/68/68
f 69/69/69 70/70/70 71/71/71
f 69/69/69 71/71/71 72/72/72
f 73/73/73 74/74/74 75/75/75
f 73/73/73 75/75/75 76/76/76
