# bar_doors_frame_COL
v -0.106242061 2.64098501 1.37702823
v -0.106242061 2.64099073 -1.37377524
v 0.106243476 2.64099073 -1.37377524
v 0.106243491 2.64098501 1.37702823
v 0.106243528 2.851053 -1.37377465
v 0.106243528 2.85104728 1.37702882
v -0.106242023 2.85104728 1.37702882
v -0.106242061 2.64099073 -1.37377524
v -0.106242023 2.851053 -1.37377465
v 0.106243528 2.851053 -1.37377465
v -0.106242023 2.85104728 1.37702882
v 0.106243528 2.85104728 1.37702882
v 0.106243528 2.85104728 1.37702882
v -0.106242023 2.85104728 1.37702882
v -0.106242061 2.64098501 1.37702823
v 0.106243491 2.64098501 1.37702823
v -0.106242023 2.851053 -1.37377465
v 0.106243528 2.851053 -1.37377465
v 0.106243476 2.64099073 -1.37377524
v -0.106242061 2.64099073 -1.37377524
v -0.0437916256 2.64928889 -0.811194956
v -0.0437916033 2.73767757 -0.899582803
v -0.0437917076 2.33525229 -1.30200982
v -0.0437923223 2.24686432 -1.21362257
v 0.043792963 2.64928889 -0.811194897
v 0.0437928662 2.24686384 -1.21362209
v 0.0437929891 2.73767757 -0.899582744
v 0.0437928848 2.33525229 -1.30200982
v -0.0437916033 2.73767757 -0.899582803
v -0.0437917076 2.33525229 -1.30200982
v 0.0437917002 2.64928532 0.811205983
v 0.0437916778 2.73767328 0.899594247
v 0.0437918194 2.33524632 1.30201948
v 0.0437924266 2.24685884 1.21363175
v -0.0437928922 2.64928532 0.811205864
v -0.0437927619 2.24685836 1.21363127
v -0.0437929146 2.73767328 0.899594188
v -0.0437927768 2.33524632 1.30201948
v 0.0437916778 2.73767328 0.899594247
v 0.0437918194 2.33524632 1.30201948
v -0.0855657384 0.001925032 1.35717952
v -0.0855657384 0.00192533305 1.22414851
v 0.0855652019 0.00192533305 1.22414863
v 0.0855652019 0.001925032 1.35717952
v 0.0882984176 1.69571257 1.35991585
v -0.0855657384 0.001925032 1.35717952
v 0.0855652019 0.001925032 1.35717952
v -0.0882981271 1.69571269 1.35991573
v -0.0855657384 0.00192533305 1.22414851
v -0.088465862 1.6606009 1.22161448
v -0.0878447667 1.73006272 1.19605911
v -0.0882978961 2.65136528 1.359918
v 0.0882986411 2.65136528 1.359918
v -0.0882978961 2.65136552 1.19625711
v 0.0882986411 2.65136552 1.19625723
v 0.0878450945 1.73006272 1.19605923
v 0.0882986411 2.65136528 1.359918
v 0.0882984176 1.69571257 1.35991585
v 0.0884661674 1.66060066 1.2216146
v 0.0855652019 0.001925032 1.35717952
v 0.0855652019 0.00192533305 1.22414863
v 0.0884661674 1.66060066 1.2216146
v -0.088465862 1.6606009 1.22161448
v -0.0855657384 0.00192533305 1.22414851
v 0.0855652019 0.00192533305 1.22414863
v -0.0855657384 0.0019311764 -1.35718036
v 0.0855652019 0.0019311764 -1.3571806
v 0.0855652019 0.00193087524 -1.22414958
v -0.0855657384 0.00193087524 -1.22414935
v 0.0882984176 1.69571877 -1.35990906
v 0.0855652019 0.0019311764 -1.3571806
v -0.0855657384 0.0019311764 -1.35718036
v -0.0882981271 1.69571877 -1.35990906
v -0.0855657384 0.00193087524 -1.22414935
v -0.0884658769 1.66060638 -1.22160804
v -0.0878447667 1.73006821 -1.19605243
v -0.0882978961 2.65137148 -1.35990679
v 0.0882986411 2.65137148 -1.35990679
v -0.0882978961 2.651371 -1.19624627
v 0.0882986411 2.651371 -1.19624627
v 0.0878450945 1.73006821 -1.19605243
v 0.0882986411 2.65137148 -1.35990679
v 0.0882984176 1.69571877 -1.35990906
v 0.0884661451 1.66060638 -1.22160804
v 0.0855652019 0.0019311764 -1.3571806
v 0.0855652019 0.00193087524 -1.22414958
v 0.0884661451 1.66060638 -1.22160804
v -0.0884658769 1.66060638 -1.22160804
v -0.0855657384 0.00193087524 -1.22414935
v 0.0855652019 0.00193087524 -1.22414958
vn -0.577350378 -0.577351451 0.577348888
vn -0.577350378 -0.577348948 -0.577351451
vn 0.577350199 -0.577349126 -0.57735157
vn 0.577350199 -0.577351689 0.577348948
vn 0.577350378 0.577351451 -0.577348888
vn 0.577350378 0.577348888 0.577351451
vn -0.577350199 0.577349126 0.57735157
vn -0.577350378 -0.577348948 -0.577351451
vn -0.577350199 0.57735163 -0.577349007
vn 0.577350378 0.577351451 -0.577348888
vn -0.577350199 0.577349126 0.57735157
vn 0.577350378 0.577348888 0.577351451
vn 0.577350378 0.577348888 0.577351451
vn -0.577350199 0.577349126 0.57735157
vn -0.577350378 -0.577351451 0.577348888
vn 0.577350199 -0.577351689 0.577348948
vn -0.577350199 0.57735163 -0.577349007
vn 0.577350378 0.577351451 -0.577348888
vn 0.577350199 -0.577349126 -0.57735157
vn -0.577350378 -0.577348948 -0.577351451
vn -0.707108736 -0.499999821 0.499997318
vn -0.707105219 0.500002503 -0.499999702
vn -0.707106054 0.500001967 -0.499999017
vn -0.707109392 -0.499999404 0.499996901
vn 0.707105696 -0.500002384 0.499999046
vn 0.707105041 -0.500002921 0.499999553
vn 0.707106769 0.500001073 -0.499998957
vn 0.707107067 0.500000775 -0.499998629
vn -0.707105219 0.500002503 -0.499999702
vn -0.707106054 0.500001967 -0.499999017
vn 0.707108676 -0.499997497 -0.499999732
vn 0.70710516 0.500000358 0.500001848
vn 0.707106054 0.499999732 0.500001252
vn 0.707109392 -0.499997079 -0.499999225
vn -0.707105696 -0.500000179 -0.500001252
vn -0.707105041 -0.500000656 -0.500001788
vn -0.707106769 0.499998689 0.500001252
vn -0.707107127 0.49999851 0.500001013
vn 0.70710516 0.500000358 0.500001848
vn 0.707106054 0.499999732 0.500001252
vn -0.576753199 -0.578063071 0.577233851
vn -0.577052832 -0.578343809 -0.576652884
vn 0.57705307 -0.578343868 -0.576652408
vn 0.576752663 -0.57806325 0.57723403
vn 0.707248509 -0.000265497976 0.706965029
vn -0.576753199 -0.578063071 0.577233851
vn 0.576752663 -0.57806325 0.57723403
vn -0.707248807 -0.000265174429 0.706964672
vn -0.577052832 -0.578343809 -0.576652884
vn -0.749854207 -0.113908343 -0.651723564
vn -0.668377221 -0.128620043 -0.732617736
vn -0.707605004 -0.00017218398 0.706608176
vn 0.707604825 -0.000172511296 0.706608295
vn -0.706766486 -1.86047491E-05 -0.707446873
vn 0.706767023 -1.89316179E-05 -0.707446396
vn 0.668377578 -0.128620252 -0.732617438
vn 0.707604825 -0.000172511296 0.706608295
vn 0.707248509 -0.000265497976 0.706965029
vn 0.749854684 -0.113908507 -0.651722908
vn 0.576752663 -0.57806325 0.57723403
vn 0.57705307 -0.578343868 -0.576652408
vn 0.749854684 -0.113908507 -0.651722908
vn -0.749854207 -0.113908343 -0.651723564
vn -0.577052832 -0.578343809 -0.576652884
vn 0.57705307 -0.578343868 -0.576652408
vn -0.576753199 -0.578060746 -0.577236176
vn 0.576752722 -0.578060329 -0.57723701
vn 0.57705301 -0.578346729 0.576649725
vn -0.577052891 -0.578346133 0.5766505
vn 0.707248509 -0.000262321526 -0.70696491
vn 0.576752722 -0.578060329 -0.57723701
vn -0.576753199 -0.578060746 -0.577236176
vn -0.707248867 -0.000261969253 -0.706964672
vn -0.577052891 -0.578346133 0.5766505
vn -0.749854088 -0.113910727 0.651723146
vn -0.668377459 -0.128622741 0.732617021
vn -0.707604885 -0.000169041406 -0.706608236
vn 0.707605004 -0.000169368635 -0.706608176
vn -0.706766725 -2.1807622E-05 0.707446694
vn 0.706766784 -2.21344453E-05 0.707446575
vn 0.668377519 -0.128623024 0.732616961
vn 0.707605004 -0.000169368635 -0.706608176
vn 0.707248509 -0.000262321526 -0.70696491
vn 0.749854386 -0.113911115 0.651722848
vn 0.576752722 -0.578060329 -0.57723701
vn 0.57705301 -0.578346729 0.576649725
vn 0.749854386 -0.113911115 0.651722848
vn -0.749854088 -0.113910727 0.651723146
vn -0.577052891 -0.578346133 0.5766505
vn 0.57705301 -0.578346729 0.576649725
vt 0.840996683 0.875071824
vt 0.00557837309 0.879227996
vt 0.00580111751 0.937336862
vt 0.840996981 0.935674965
vt 0.00698337238 0.99636817
vt 0.840110958 0.995261073
vt 0.840774059 0.81770277
vt 0.00602365006 0.874240637
vt 0.00580101693 0.816871405
vt 0.00557832466 0.758762002
vt 0.841219485 0.812715769
vt 0.841219604 0.758763075
vt 0.56628114 0.405692875
vt 0.620111883 0.405694425
vt 0.620113313 0.352481812
vt 0.566282451 0.352480024
vt 0.849420726 0.432207882
vt 0.90325141 0.432207882
vt 0.90325129 0.378995001
vt 0.849420488 0.378995001
vt 0.646754742 0.443544209
vt 0.647454441 0.481600314
vt 0.821583152 0.481600225
vt 0.822266996 0.443579912
vt 0.646745145 0.418373257
vt 0.821963489 0.41729793
vt 0.646754682 0.381053656
vt 0.822250962 0.381077647
vt 0.646754622 0.355874836
vt 0.822250962 0.355875015
vt 0.646754742 0.443544209
vt 0.647454441 0.481600314
vt 0.821583152 0.481600225
vt 0.822266996 0.443579912
vt 0.646745145 0.418373257
vt 0.821963489 0.41729793
vt 0.646754682 0.381053656
vt 0.822250962 0.381077647
vt 0.646754622 0.355874836
vt 0.822250962 0.355875015
vt 0.991660476 0.435708463
vt 0.991633534 0.400009423
vt 0.944406867 0.400045425
vt 0.944433808 0.435744196
vt 0.521789491 0.750038266
vt 0.00489204703 0.700521052
vt 0.00489869248 0.750018179
vt 0.521845222 0.700529158
vt 0.00559026375 0.661216378
vt 0.511217117 0.660489619
vt 0.532837451 0.652933836
vt 0.813687086 0.700615287
vt 0.813681066 0.750073612
vt 0.813655138 0.65297997
vt 0.813380718 0.601384401
vt 0.532528162 0.601451874
vt 0.813228846 0.553725958
vt 0.521378934 0.553743243
vt 0.510903835 0.591595411
vt 0.00442878762 0.555896938
vt 0.00442855665 0.591596007
vt 0.509453177 0.600810647
vt 0.509464979 0.650319576
vt 0.00317107979 0.650315702
vt 0.0038425331 0.601542175
vt 0.991660476 0.435708463
vt 0.944433808 0.435744196
vt 0.944406867 0.400045425
vt 0.991633534 0.400009423
vt 0.521789491 0.750038266
vt 0.00489869248 0.750018179
vt 0.00489204703 0.700521052
vt 0.521845222 0.700529158
vt 0.00559026375 0.661216378
vt 0.511217117 0.660489619
vt 0.532837451 0.652933836
vt 0.813687086 0.700615287
vt 0.813681066 0.750073612
vt 0.813655138 0.65297997
vt 0.813380718 0.601384401
vt 0.532528162 0.601451874
vt 0.813228846 0.553725958
vt 0.521378934 0.553743243
vt 0.510903835 0.591595411
vt 0.00442878762 0.555896938
vt 0.00442855665 0.591596007
vt 0.509453177 0.600810647
vt 0.509464979 0.650319576
vt 0.00317107979 0.650315702
vt 0.0038425331 0.601542175
g submesh0
f 1/1/1 2/2/2 3/3/3
f 1/1/1 3/3/3 4/4/4
f 5/5/5 4/4/4 3/3/3
f 5/5/5 6/6/6 4/4/4
f 7/7/7 8/8/8 1/1/1
f 7/7/7 9/9/9 8/8/8
f 10/10/10 9/9/9 11/11/11
f 10/10/10 11/11/11 12/12/12
f 13/13/13 14/14/14 15/15/15
f 13/13/13 15/15/15 16/16/16
f 17/17/17 18/18/18 19/19/19
f 17/17/17 19/19/19 20/20/20
f 21/21/21 22/22/22 23/23/23
f 21/21/21 23/23/23 24/24/24
f 25/25/25 21/21/21 24/24/24
f 25/25/25 24/24/24 26/26/26
f 27/27/27 25/25/25 26/26/26
f 27/27/27 26/26/26 28/28/28
f 29/29/29 27/27/27 28/28/28
f 29/29/29 28/28/28 30/30/30
f 31/31/31 32/32/32 33/33/33
f 31/31/31 33/33/33 34/34/34
f 35/35/35 31/31/31 34/34/34
f 35/35/35 34/34/34 36/36/36
f 37/37/37 35/35/35 36/36/36
f 37/37/37 36/36/36 38/38/38
f 39/39/39 37/37/37 38/38/38
f 39/39/39 38/38/38 40/40/40
f 41/41/41 42/42/42 43/43/43
f 41/41/41 43/43/43 44/44/44
f 45/45/45 46/46/46 47/47/47
f 45/45/45 48/48/48 46/46/46
f 48/48/48 49/49/49 46/46/46
f 48/48/48 50/50/50 49/49/49
f 51/51/51 50/50/50 48/48/48
f 45/45/45 52/52/52 48/48/48
f 45/45/45 53/53/53 52/52/52
f 48/48/48 52/52/52 54/54/54
f 48/48/48 54/54/54 51/51/51
f 51/51/51 54/54/54 55/55/55
f 51/51/51 55/55/55 56/56/56
f 56/56/56 55/55/55 57/57/57
f 56/56/56 57/57/57 58/58/58
f 58/58/58 59/59/59 56/56/56
f 59/59/59 58/58/58 60/60/60
f 59/59/59 60/60/60 61/61/61
f 51/51/51 56/56/56 62/62/62
f 51/51/51 62/62/62 63/63/63
f 64/64/64 63/63/63 62/62/62
f 64/64/64 62/62/62 65/65/65
f 66/66/66 67/67/67 68/68/68
f 66/66/66 68/68/68 69/69/69
f 70/70/70 71/71/71 72/72/72
f 70/70/70 72/72/72 73/73/73
f 73/73/73 72/72/72 74/74/74
f 73/73/73 74/74/74 75/75/75
f 76/76/76 73/73/73 75/75/75
f 70/70/70 73/73/73 77/77/77
f 70/70/70 77/77/77 78/78/78
f 73/73/73 79/79/79 77/77/77
f 73/73/73 76/76/76 79/79/79
f 76/76/76 80/80/80 79/79/79
f 76/76/76 81/81/81 80/80/80
f 81/81/81 82/82/82 80/80/80
f 81/81/81 83/83/83 82/82/82
f 83/83/83 81/81/81 84/84/84
f 84/84/84 85/85/85 83/83/83
f 84/84/84 86/86/86 85/85/85
f 76/76/76 87/87/87 81/81/81
f 76/76/76 88/88/88 87/87/87
f 89/89/89 87/87/87 88/88/88
f 89/89/89 90/90/90 87/87/87
