# bar_doors_door_R_COL
v -0.0220129155 0.191200078 0.737516165
v -0.0251697842 0.188404784 0.784165621
v -0.0251697823 0.180907607 0.807104409
v -0.0220129136 0.149262637 0.844587326
v 0.0025290465 0.0153253525 1.01957786
v -0.0267482232 0.120600134 0.954126716
v -0.0285108127 0.137908295 0.987648726
v 0.000984773622 0.146067753 1.0155735
v 0.00122189044 0.236861363 1.10474968
v 0.00183345552 0.114554763 1.16229784
v -0.00627689715 0.215168759 1.15316248
v 0.00252891053 0.0153250908 0.193044528
v -0.00353195891 -0.8191728 1.16196632
v -0.00127481692 -0.819517016 0.0475696996
v -0.0172775984 0.236555099 0.623034835
v -0.0252774358 0.250246137 0.695284665
v -0.0267482232 0.251593858 0.626431704
v -0.0253986884 0.301565319 0.575604439
v -0.0235913564 0.286286831 0.489262342
v -0.0261879135 0.297944754 0.543151259
v -0.0250994731 0.391186297 0.262549788
v -0.0236885566 0.370950907 0.224477038
v 0.00125643727 0.364269465 0.19617404
v 0.0014247346 0.40193817 0.145294294
v 0.00133548968 0.330069453 0.0469782688
v -0.00715009216 0.3614344 0.0470013432
v -0.0437087715 -0.819531977 0.0475143865
v -0.0485041998 0.326980025 0.0483002514
v -0.00715009216 0.3614344 0.0470013432
v -0.0389932804 0.359600753 0.0470590591
v -0.00127481692 -0.819517016 0.0475696996
v -0.00353195891 -0.8191728 1.16196632
v -0.0470400862 -0.819259703 1.15511656
v -0.0497025102 0.0153251095 0.193044528
v -0.0497117974 0.0153253721 1.01957786
v -0.0485041998 0.326980025 0.0483002514
v -0.0477561466 0.405853033 0.146571234
v -0.0389932804 0.359600753 0.0470590591
v -0.0483492501 0.360954911 0.196257055
v -0.0236885566 0.370950907 0.224477038
v -0.0250994731 0.391186297 0.262549788
v -0.0235913564 0.286286831 0.489262342
v -0.0486037321 0.140825644 1.16389084
v -0.0405512974 0.215353116 1.16860771
v -0.00627689715 0.215168759 1.15316248
v -0.0488554575 0.215720415 1.10618651
v -0.0487068743 0.184977159 1.01741648
v -0.0285108127 0.137908295 0.987648726
v -0.0235913079 0.186468825 1.01607776
v -0.0267482232 0.120600134 0.954126716
v -0.0220129136 0.149262637 0.844587326
v -0.0220129155 0.191200078 0.737516165
v -0.0251697823 0.180907607 0.807104409
v -0.0251697842 0.188404784 0.784165621
v -0.0267482232 0.251593858 0.626431704
v -0.0252774358 0.250246137 0.695284665
v -0.0253986884 0.301565319 0.575604439
v -0.0261879135 0.297944754 0.543151259
v 0.000984773622 0.146067753 1.0155735
v -0.0285108127 0.137908295 0.987648726
v -0.0235913079 0.186468825 1.01607776
v 0.00122189044 0.236861363 1.10474968
v -0.0487068743 0.184977159 1.01741648
v -0.0488554575 0.215720415 1.10618651
v -0.0488554575 0.215720415 1.10618651
v -0.0405512974 0.215353116 1.16860771
v -0.00627689715 0.215168759 1.15316248
v 0.00125643727 0.364269465 0.19617404
v -0.0483492501 0.360954911 0.196257055
v -0.0236885566 0.370950907 0.224477038
v 0.0014247346 0.40193817 0.145294294
v -0.0477561466 0.405853033 0.146571234
v -0.0389932804 0.359600753 0.0470590591
v -0.00715009216 0.3614344 0.0470013432
vn -0.00231790543 0.976672947 0.214719489
vn -0.271465927 0.891907334 0.361673206
vn -0.271466106 0.891907334 0.361673206
vn -0.00476847915 0.935483217 0.353339106
vn 0.998574734 0.0456056967 -0.0277248695
vn -0.0703927502 0.997050762 0.030572392
vn -0.0890692845 0.278817087 -0.956204832
vn 0.836148679 0.253339559 -0.486492127
vn 0.60674119 0.790385604 -0.0845918655
vn 0.710909665 0.0130070122 0.703163087
vn 0.506823123 0.591711581 0.626903176
vn 0.999806106 0.0172670558 0.00947384443
vn 0.570832014 -0.551777184 0.608023703
vn 0.571237326 -0.581330419 -0.579433262
vn 0.975467384 0.20313929 0.0848396271
vn -0.0813952312 0.780571818 0.619743884
vn -0.361420423 0.827657878 0.429369003
vn -0.0602175221 0.992314041 0.108105257
vn -0.00149351812 0.997074842 0.076416336
vn 0.365161121 -0.915361524 0.169619456
vn -0.0103072831 0.999841332 0.0145273656
vn -0.00825063791 0.842108071 0.539245725
vn 0.772746742 0.463937044 0.433156818
vn 0.619300663 0.77887255 0.0991168395
vn 0.706901193 0.0518212654 -0.705411315
vn 0.468080223 0.51076448 -0.72112453
vn -0.579713523 -0.576334357 -0.575995505
vn -0.721749485 0.0544593148 -0.69000864
vn 0.468080223 0.51076448 -0.72112453
vn -0.454620659 0.492770374 -0.741955101
vn 0.571237326 -0.581330419 -0.579433262
vn 0.570832014 -0.551777184 0.608023703
vn -0.580395758 -0.605110824 0.544960141
vn -0.999841928 0.0162173025 0.0072797602
vn -0.998951793 0.0381400846 -0.0253129657
vn -0.721749485 0.0544593148 -0.69000864
vn -0.594121337 0.797128856 0.107728161
vn -0.454620659 0.492770374 -0.741955101
vn -0.802124381 0.431743145 0.412546247
vn -0.00825063791 0.842108071 0.539245725
vn -0.0103072831 0.999841332 0.0145273656
vn -0.00149351812 0.997074842 0.076416336
vn -0.67792207 0.0281601697 0.734594345
vn -0.490334272 0.496103883 0.716556489
vn 0.506823123 0.591711581 0.626903176
vn -0.69160223 0.715637863 -0.0977180675
vn -0.610891581 0.533769608 -0.584723353
vn -0.0890692845 0.278817087 -0.956204832
vn 0.159632847 0.695448339 -0.700620532
vn -0.0703927502 0.997050762 0.030572392
vn -0.00476847915 0.935483217 0.353339106
vn -0.00231790543 0.976672947 0.214719489
vn -0.271466106 0.891907334 0.361673206
vn -0.271465927 0.891907334 0.361673206
vn -0.361420423 0.827657878 0.429369003
vn -0.0813952312 0.780571818 0.619743884
vn -0.0602175221 0.992314041 0.108105257
vn 0.365161121 -0.915361524 0.169619456
vn 0.836148679 0.253339559 -0.486492127
vn -0.0890692845 0.278817087 -0.956204832
vn 0.159632847 0.695448339 -0.700620532
vn 0.60674119 0.790385604 -0.0845918655
vn -0.610891581 0.533769608 -0.584723353
vn -0.69160223 0.715637863 -0.0977180675
vn -0.69160223 0.715637863 -0.0977180675
vn -0.490334272 0.496103883 0.716556489
vn 0.506823123 0.591711581 0.626903176
vn 0.772746742 0.463937044 0.433156818
vn -0.802124381 0.431743145 0.412546247
vn -0.00825063791 0.842108071 0.539245725
vn 0.619300663 0.77887255 0.0991168395
vn -0.594121337 0.797128856 0.107728161
vn -0.454620659 0.492770374 -0.741955101
vn 0.468080223 0.51076448 -0.72112453
vt 0.504665434 0.329610854
vt 0.518915057 0.331324488
vt 0.524308562 0.329634607
vt 0.537293077 0.31715709
vt 0.590659261 0.274184525
vt 0.570265472 0.308130383
vt 0.578942835 0.312111199
vt 0.590297699 0.314014345
vt 0.617458582 0.341568351
vt 0.634763956 0.304050148
vt 0.632677972 0.335519493
vt 0.338520885 0.2730124
vt 0.636015832 0.0183938444
vt 0.293819368 0.0165861938
vt 0.469302714 0.341683328
vt 0.491365343 0.346140295
vt 0.470431864 0.347065091
vt 0.454065204 0.36211133
vt 0.428586185 0.356683075
vt 0.444954216 0.360409945
vt 0.360286713 0.388311267
vt 0.3490569 0.382460058
vt 0.338103831 0.37952584
vt 0.322704613 0.390946984
vt 0.293308735 0.368602455
vt 0.292668462 0.37849921
vt 0.995186925 0.0174587928
vt 0.27465564 0.367304653
vt 0.288541436 0.379023671
vt 0.278068364 0.378341615
vt 0.994697452 0.00486579631
vt 0.649053931 0.00183438091
vt 0.656826854 0.0186611824
vt 0.951718926 0.27396825
vt 0.699589074 0.27513814
vt 0.997384548 0.368201941
vt 0.968089581 0.392977476
vt 0.998376787 0.378534585
vt 0.952976704 0.379446864
vt 0.942177832 0.383804858
vt 0.931049883 0.389963448
vt 0.866536796 0.362555802
vt 0.654410243 0.312227607
vt 0.651021719 0.335104913
vt 0.637340546 0.335691392
vt 0.670954287 0.335918307
vt 0.698478222 0.327289343
vt 0.710093498 0.313511252
vt 0.704637766 0.32923305
vt 0.720070601 0.30811584
vt 0.753781199 0.319157988
vt 0.78557694 0.331156105
vt 0.7646873 0.326585561
vt 0.77173537 0.328819692
vt 0.819880247 0.348066181
vt 0.798620224 0.347715288
vt 0.834725976 0.363177896
vt 0.845411897 0.362519443
vt 0.0707453564 0.490322739
vt 0.0775897726 0.480494559
vt 0.0629018024 0.479646832
vt 0.0329080373 0.491979688
vt 0.0558370426 0.479469121
vt 0.0222843811 0.49044162
vt 0.0150424112 0.493689477
vt 0.0198092479 0.511277139
vt 0.0292328466 0.50788331
vt 0.0165926814 0.415831357
vt 0.0389177576 0.414895505
vt 0.0274422225 0.410371304
vt 0.0184877217 0.43604666
vt 0.0358559899 0.436281055
vt 0.0324220657 0.470227331
vt 0.0232397709 0.470234185
g submesh0
f 1/1/1 2/2/2 3/3/3
f 1/1/1 3/3/3 4/4/4
f 4/4/4 5/5/5 1/1/1
f 5/5/5 4/4/4 6/6/6
f 7/7/7 5/5/5 6/6/6
f 5/5/5 7/7/7 8/8/8
f 5/5/5 8/8/8 9/9/9
f 5/5/5 9/9/9 10/10/10
f 10/10/10 9/9/9 11/11/11
f 12/12/12 1/1/1 5/5/5
f 13/13/13 12/12/12 5/5/5
f 13/13/13 5/5/5 10/10/10
f 13/13/13 14/14/14 12/12/12
f 12/12/12 15/15/15 1/1/1
f 1/1/1 15/15/15 16/16/16
f 15/15/15 17/17/17 16/16/16
f 18/18/18 17/17/17 15/15/15
f 19/19/19 18/18/18 15/15/15
f 12/12/12 19/19/19 15/15/15
f 19/19/19 20/20/20 18/18/18
f 12/12/12 21/21/21 19/19/19
f 12/12/12 22/22/22 21/21/21
f 23/23/23 22/22/22 12/12/12
f 12/12/12 24/24/24 23/23/23
f 12/12/12 14/14/14 25/25/25
f 24/24/24 12/12/12 25/25/25
f 26/26/26 24/24/24 25/25/25
f 25/25/25 14/14/14 27/27/27
f 25/25/25 27/27/27 28/28/28
f 28/28/28 29/29/29 25/25/25
f 28/28/28 30/30/30 29/29/29
f 27/27/27 31/31/31 32/32/32
f 27/27/27 32/32/32 33/33/33
f 10/10/10 33/33/33 32/32/32
f 34/34/34 27/27/27 33/33/33
f 34/34/34 33/33/33 35/35/35
f 34/34/34 36/36/36 27/27/27
f 37/37/37 36/36/36 34/34/34
f 36/36/36 37/37/37 38/38/38
f 34/34/34 39/39/39 37/37/37
f 34/34/34 40/40/40 39/39/39
f 40/40/40 34/34/34 41/41/41
f 34/34/34 42/42/42 41/41/41
f 10/10/10 43/43/43 33/33/33
f 35/35/35 33/33/33 43/43/43
f 10/10/10 44/44/44 43/43/43
f 10/10/10 45/45/45 44/44/44
f 43/43/43 44/44/44 46/46/46
f 47/47/47 43/43/43 46/46/46
f 47/47/47 35/35/35 43/43/43
f 48/48/48 35/35/35 47/47/47
f 48/48/48 47/47/47 49/49/49
f 35/35/35 48/48/48 50/50/50
f 35/35/35 50/50/50 51/51/51
f 35/35/35 51/51/51 52/52/52
f 34/34/34 35/35/35 52/52/52
f 53/53/53 52/52/52 51/51/51
f 53/53/53 54/54/54 52/52/52
f 34/34/34 52/52/52 55/55/55
f 56/56/56 55/55/55 52/52/52
f 34/34/34 55/55/55 42/42/42
f 55/55/55 57/57/57 42/42/42
f 42/42/42 57/57/57 58/58/58
f 59/59/59 60/60/60 61/61/61
f 62/62/62 59/59/59 61/61/61
f 62/62/62 61/61/61 63/63/63
f 63/63/63 64/64/64 62/62/62
f 62/62/62 65/65/65 66/66/66
f 62/62/62 66/66/66 67/67/67
f 68/68/68 69/69/69 70/70/70
f 71/71/71 69/69/69 68/68/68
f 71/71/71 72/72/72 69/69/69
f 71/71/71 73/73/73 72/72/72
f 71/71/71 74/74/74 73/73/73
