# barge_container_park_COL
v -13.9375 2.15824983E-07 -4.9375
v -13.9375 -2.15824983E-07 4.9375
v 13.9375 -2.15824983E-07 4.9375
v 13.9375 2.15824983E-07 -4.9375
v 14.1214647 -0.100476451 4.87146425
v 14.1214647 -0.100475997 -4.87146425
v 14.1214647 1.24500024 -4.87146425
v 14.1214647 1.24499977 4.87146425
v 13.8785353 1.24499977 4.62853527
v 14.1214647 1.24499977 4.87146425
v 14.1214647 1.24500024 -4.87146425
v 13.8785353 1.24500024 -4.62853527
v 13.8785353 1.24499977 4.62853527
v 13.625 -0.0519900508 4.875
v 13.6285353 1.24499977 4.87853527
v 13.875 -0.0519900508 4.625
v 13.8785353 1.24500024 -4.62853527
v 13.875 -0.0519894399 -4.625
v 13.625 -0.0519894399 -4.875
v 13.6285353 1.24500024 -4.87853527
v 14.1214647 -0.100476451 4.87146425
v 14.1214647 1.24499977 4.87146425
v 13.8714647 1.24499977 5.12146473
v 13.8714647 -0.100476466 5.12146473
v -13.8714647 -0.100476466 5.12146473
v -13.8714647 1.24499977 5.12146473
v -14.1214647 1.24499977 4.87146425
v -14.1214647 -0.100476451 4.87146425
v 13.8714647 1.24499977 5.12146473
v 14.1214647 1.24499977 4.87146425
v 13.8785353 1.24499977 4.62853527
v 13.6285353 1.24499977 4.87853527
v 13.625 -0.0519900508 4.875
v -13.625 -0.0519900508 4.875
v -13.6285353 1.24499977 4.87853527
v 13.6285353 1.24499977 4.87853527
v -13.8714647 1.24499977 5.12146473
v 13.8714647 1.24499977 5.12146473
v 13.6285353 1.24499977 4.87853527
v -13.6285353 1.24499977 4.87853527
v -14.1214647 -0.100476451 4.87146425
v -14.1214647 1.24499977 4.87146425
v -14.1214647 1.24500024 -4.87146425
v -14.1214647 -0.100475997 -4.87146425
v -13.8785353 1.24499977 4.62853527
v -13.8785353 1.24500024 -4.62853527
v -14.1214647 1.24500024 -4.87146425
v -14.1214647 1.24499977 4.87146425
v -13.8785353 1.24499977 4.62853527
v -13.6285353 1.24499977 4.87853527
v -13.625 -0.0519900508 4.875
v -13.875 -0.0519900508 4.625
v -13.8785353 1.24500024 -4.62853527
v -13.875 -0.0519894399 -4.625
v -13.6285353 1.24500024 -4.87853527
v -13.625 -0.0519894399 -4.875
v -13.8785353 1.24499977 4.62853527
v -14.1214647 1.24499977 4.87146425
v -13.8714647 1.24499977 5.12146473
v -13.6285353 1.24499977 4.87853527
v 13.8714647 -0.100475989 -5.12146473
v 14.1214647 1.24500024 -4.87146425
v 14.1214647 -0.100475997 -4.87146425
v 13.8714647 1.24500024 -5.12146473
v -13.8714647 1.24500024 -5.12146473
v -13.8714647 -0.100475989 -5.12146473
v -14.1214647 1.24500024 -4.87146425
v -14.1214647 -0.100475997 -4.87146425
v 13.8785353 1.24500024 -4.62853527
v 14.1214647 1.24500024 -4.87146425
v 13.8714647 1.24500024 -5.12146473
v 13.6285353 1.24500024 -4.87853527
v 13.625 -0.0519894399 -4.875
v 13.6285353 1.24500024 -4.87853527
v -13.6285353 1.24500024 -4.87853527
v -13.625 -0.0519894399 -4.875
v 13.6285353 1.24500024 -4.87853527
v 13.8714647 1.24500024 -5.12146473
v -13.8714647 1.24500024 -5.12146473
v -13.6285353 1.24500024 -4.87853527
v -13.6285353 1.24500024 -4.87853527
v -13.8714647 1.24500024 -5.12146473
v -14.1214647 1.24500024 -4.87146425
v -13.8785353 1.24500024 -4.62853527
vt 2.82291698 1.50446963
vt 2.82291651 -0.00739580393
vt -1.82291698 -0.00739473104
vt -1.82291651 1.50447071
vt -0.057800483 2.45619059
vt -0.057800483 0.54356885
vt -0.0675152093 0.54356885
vt -0.0675152093 2.45619059
vt -0.120040707 2.42549181
vt -0.0683913082 2.47266126
vt -0.0683911219 0.525297701
vt -0.120040528 0.572466671
vt -0.120020501 2.45619059
vt -1.00003839 2.52590871
vt -0.120138168 2.52590895
vt -1.00003839 2.45619059
vt -0.120020501 0.54356885
vt -1.00003839 0.54356885
vt -1.00003839 0.473851264
vt -0.120138161 0.473851025
vt -0.0577217788 2.47468328
vt -0.067439273 2.47468328
vt -0.067439273 2.5429287
vt -0.0577217788 2.5429287
vt -0.0577217788 7.95788288
vt -0.067439273 7.95788288
vt -0.067439273 8.02612209
vt -0.0577217788 8.02612209
vt -0.0945319235 2.5433383
vt -0.0675152093 2.45619059
vt -0.120020501 2.45619059
vt -0.147037223 2.5433383
vt -0.999993801 2.5429287
vt -0.999993801 7.95788288
vt -0.119847804 7.95788288
vt -0.119847804 2.5429287
vt -0.068516843 7.98328304
vt -0.0685167313 2.52139068
vt -0.119231023 2.56782913
vt -0.119231172 7.93684626
vt -0.0580116063 0.543049037
vt -0.0677260607 0.543049037
vt -0.0677260607 2.45567179
vt -0.0580116063 2.45567179
vt -0.117756672 0.573957205
vt -0.117756672 2.42476392
vt -0.0706389472 2.47188044
vt -0.0706389472 0.526840508
vt -0.120231509 0.543049037
vt -0.120349161 0.473331273
vt -1.00024974 0.473331481
vt -1.00024974 0.543049037
vt -0.120231509 2.45567179
vt -1.00024974 2.45567179
vt -0.120349176 2.52538872
vt -1.00024974 2.52538848
vt -0.120231509 0.543049037
vt -0.0677260607 0.543049037
vt -0.0947428569 0.4559021
vt -0.147248313 0.455902129
vt -0.0577249415 7.95714378
vt -0.0674421713 8.02537823
vt -0.0577249415 8.02537823
vt -0.0674421713 7.95714378
vt -0.0674421713 2.54218793
vt -0.0577249415 2.54218793
vt -0.0674421713 2.47394252
vt -0.0577249415 2.47394252
vt -0.120020501 0.54356885
vt -0.0675152093 0.54356885
vt -0.0945319235 0.456421852
vt -0.147037238 0.456421912
vt -0.999995589 7.95714378
vt -0.119849563 7.95714378
vt -0.119849563 2.54218793
vt -0.999995589 2.54218793
vt -0.119233511 7.93610382
vt -0.0685192198 7.98254108
vt -0.0685193464 2.52064872
vt -0.119233645 2.56708717
vt -0.147248298 2.54281759
vt -0.094742842 2.54281759
vt -0.0677260607 2.45567179
vt -0.120231509 2.45567179
g submesh0
f 1/1 2/2 3/3
f 1/1 3/3 4/4
f 5/5 6/6 7/7
f 5/5 7/7 8/8
f 9/9 10/10 11/11
f 9/9 11/11 12/12
f 13/13 14/14 15/15
f 13/13 16/16 14/14
f 16/16 13/13 17/17
f 16/16 17/17 18/18
f 17/17 19/19 18/18
f 17/17 20/20 19/19
f 21/21 22/22 23/23
f 21/21 23/23 24/24
f 25/25 24/24 23/23
f 25/25 23/23 26/26
f 25/25 26/26 27/27
f 25/25 27/27 28/28
f 29/29 30/30 31/31
f 29/29 31/31 32/32
f 33/33 34/34 35/35
f 33/33 35/35 36/36
f 37/37 38/38 39/39
f 37/37 39/39 40/40
f 41/41 42/42 43/43
f 41/41 43/43 44/44
f 45/45 46/46 47/47
f 45/45 47/47 48/48
f 49/49 50/50 51/51
f 49/49 51/51 52/52
f 53/53 49/49 52/52
f 53/53 52/52 54/54
f 55/55 53/53 54/54
f 55/55 54/54 56/56
f 57/57 58/58 59/59
f 57/57 59/59 60/60
f 61/61 62/62 63/63
f 61/61 64/64 62/62
f 61/61 65/65 64/64
f 61/61 66/66 65/65
f 67/67 65/65 66/66
f 67/67 66/66 68/68
f 69/69 70/70 71/71
f 69/69 71/71 72/72
f 73/73 74/74 75/75
f 73/73 75/75 76/76
f 77/77 78/78 79/79
f 77/77 79/79 80/80
f 81/81 82/82 83/83
f 81/81 83/83 84/84
