# barricade_metal_LOD2
v 1.04552102 1.70655453 0.899689078
v 1.06736541 -0.43310383 -1.20567322
v 1.24452484 -0.431022972 -1.21785128
v 1.23214054 1.69985199 0.893616557
v 1.23922241 1.70648253 0.886105001
v 1.25173676 -0.425159305 -1.22459817
v 1.23812866 1.83419001 0.7568295
v 1.2549088 -0.299130023 -1.36271119
v 1.04554355 1.71195924 0.894196749
v 1.24371004 -0.423991263 -1.22538865
v 1.06693268 -0.427710027 -1.21115923
v 1.23065126 1.70697486 0.885987818
v 1.2286042 1.83474672 0.756194293
v 1.24540496 -0.298412591 -1.36350799
v -0.154397249 -0.243833676 -1.30309355
v -0.193678245 1.8939085 0.803960562
v -0.0165859275 1.89594221 0.817091644
v 0.0319788195 -0.232793957 -1.29601014
v 0.0391724259 -0.239264846 -1.28846586
v -0.00927574467 1.89024186 0.823872983
v 0.0403574407 -0.36707592 -1.15929389
v -0.00391104119 1.7641995 0.961906314
v -0.154278547 -0.249241039 -1.2976054
v -0.017277455 1.88888669 0.82461971
v -0.194014549 1.88850164 0.809440315
v 0.0306146853 -0.239956617 -1.28839517
v 0.0308451094 -0.367854655 -1.15871084
v -0.0134004839 1.76326096 0.96265167
v -1.47672844 1.70655453 0.89968884
v -1.45488465 -0.433103502 -1.20567369
v -1.27772284 -0.431022793 -1.21785128
v -1.2901094 1.69985175 0.893616319
v -1.28302813 1.70648253 0.886104822
v -1.27051091 -0.425159305 -1.22459853
v -1.28412247 1.83418953 0.756829381
v -1.26733947 -0.299129754 -1.36271095
v -1.4767065 1.71195924 0.894196391
v -1.27853823 -0.423990875 -1.22538888
v -1.45531678 -0.427709907 -1.21115947
v -1.29159868 1.70697474 0.885987759
v -1.29364753 1.83474636 0.756193757
v -1.27684271 -0.298412979 -1.36350799
v -1.06083262 -0.242656127 1.25546241
v -1.08267725 1.89700234 -0.849901557
v -1.25983679 1.89492226 -0.862079382
v -1.24745119 -0.23595342 1.24938965
v -1.25453317 -0.242583841 1.24187815
v -1.26704931 1.88905835 -0.868826032
v -1.253438 -0.37029165 1.11260295
v -1.27022064 1.7630285 -1.00693929
v -1.06085515 -0.248060644 1.24996984
v -1.259022 1.88789022 -0.869617283
v -1.08224452 1.89160883 -0.85538739
v -1.2459619 -0.243076488 1.24176109
v -1.24391341 -0.37084803 1.11196744
v -1.26071692 1.76231217 -1.00773609
v -1.51212692 1.03863513 0.298303723
v 1.48955989 1.04033649 0.265710056
v 1.49670005 0.907936513 0.147568539
v -1.50309312 0.906990767 0.166029453
v -1.50247049 0.894912064 0.168092996
v 1.49732447 0.896531343 0.148774147
v -1.50136209 0.767195046 0.297358423
v 1.50586879 0.762217343 0.27860254
v -1.51206458 1.0331707 0.303736329
v 1.4970578 0.901227772 0.155429572
v 1.48962522 1.03520262 0.271455884
v -1.50273597 0.900668085 0.174458265
v -1.50130594 0.773333848 0.304689527
v 1.5059253 0.768180609 0.286079586
v 0.195115805 1.72152829 -0.937782168
v 0.173272505 -0.418129444 1.16758227
v -0.0038866417 -0.416048676 1.17975998
v 0.00849833153 1.71482539 -0.93170929
v 0.0014164194 1.72145653 -0.924198329
v -0.011099169 -0.410185158 1.18650675
v 0.0025116785 1.84916389 -0.794923246
v -0.0142710302 -0.284155846 1.32461977
v 0.195093229 1.726933 -0.932289779
v -0.00307182339 -0.409016937 1.18729758
v 0.17370525 -0.412735969 1.17306817
v 0.00998758804 1.7219485 -0.924080968
v 0.0120362164 1.84972 -0.794287086
v -0.0047666342 -0.28343901 1.32541668
v 1.46141517 -0.242656201 1.25546229
v 1.43957162 1.89700258 -0.849901736
v 1.26241302 1.89492226 -0.862079501
v 1.27479827 -0.23595351 1.24938965
v 1.26771641 -0.242584094 1.24187815
v 1.25520086 1.88905835 -0.868826151
v 1.26881135 -0.370291829 1.11260331
v 1.25202882 1.76302898 -1.00693917
v 1.46139324 -0.248060927 1.24997008
v 1.26322794 1.8878901 -0.869617283
v 1.44000435 1.8916086 -0.855387151
v 1.27628732 -0.243076637 1.24176133
v 1.27833593 -0.370848328 1.1119678
v 1.26153266 1.76231182 -1.00773621
vn 0.0267693885 -0.70225811 0.711418986
vn 0.0267693885 -0.70225811 0.711418986
vn 0.470881969 -0.618825793 0.628748536
vn 0.44375962 -0.628682613 0.638620198
vn 0.945580959 -0.225912511 0.234180138
vn 0.950421989 -0.215733737 0.223957434
vn 0.99997282 -0.000432899222 0.00736125326
vn 0.99997282 -0.000432898552 0.00736125279
vn -0.0416391753 0.70182234 -0.711133957
vn -0.740571797 0.469489068 -0.480763286
vn -0.0416391753 0.70182234 -0.711133957
vn -0.709898651 0.492310584 -0.503660858
vn -0.999987125 -0.00428559585 -0.00273804204
vn -0.999987125 -0.00428559585 -0.00273804204
vn 0.014231029 0.703313589 -0.710737288
vn 0.014231029 0.703313589 -0.710737288
vn 0.459722519 0.630166829 -0.625735581
vn 0.432437748 0.63939625 -0.635743558
vn 0.941312909 0.248057917 -0.228904277
vn 0.946332574 0.237989873 -0.218667611
vn 0.999716818 0.0237158649 -0.00197417592
vn 0.999716818 0.023715863 -0.00197417452
vn -0.029107213 -0.703223884 0.710372388
vn -0.732012987 -0.487019539 0.476412714
vn -0.0291072149 -0.703223765 0.710372388
vn -0.70093888 -0.509141803 0.499458998
vn -0.99981612 -0.018993564 -0.00264713354
vn -0.99981612 -0.018993564 -0.00264713285
vn 0.026768107 -0.70225817 0.711418927
vn 0.0267681126 -0.702258229 0.711418927
vn 0.470896512 -0.618820071 0.628743351
vn 0.443770468 -0.628678441 0.638616502
vn 0.945585728 -0.225901902 0.23417066
vn 0.950427294 -0.215721905 0.223946735
vn 0.99997282 -0.000429874839 0.00735957455
vn 0.99997282 -0.000429875159 0.00735957548
vn -0.0416383073 0.701822519 -0.711133957
vn -0.740572989 0.469487667 -0.480762839
vn -0.0416383073 0.701822519 -0.711133957
vn -0.709899068 0.492309839 -0.503660977
vn -0.999987125 -0.00428864127 -0.00273634517
vn -0.999987125 -0.00428864127 -0.0027363447
vn -0.0267677438 0.702258289 0.711418867
vn -0.0267677419 0.702258289 0.711418867
vn -0.470867515 0.618831217 0.62875402
vn -0.443749309 0.62868613 0.638623714
vn -0.945578516 0.225917041 0.234185487
vn -0.950418651 0.215740636 0.223965213
vn -0.99997282 0.000428576837 0.00735793915
vn -0.99997282 0.000428577157 0.00735793822
vn 0.0416396372 -0.701822519 -0.711133838
vn 0.740574062 -0.46948719 -0.480761856
vn 0.0416396372 -0.701822519 -0.711133838
vn 0.709899783 -0.4923096 -0.503660262
vn 0.999987125 0.00428868923 -0.00273582619
vn 0.999987125 0.0042886883 -0.00273582572
vn -0.00647752965 0.68791008 -0.725767076
vn -0.00647752965 0.68791002 -0.725767076
vn -0.0070164525 0.290823728 -0.95675087
vn -0.00702692661 0.319860876 -0.947438478
vn -0.00584644964 -0.438585967 -0.898670197
vn -0.00581540074 -0.452205479 -0.891894817
vn -0.00489961263 -0.70319283 -0.710982323
vn -0.00489961309 -0.70319283 -0.710982323
vn 0.00658405665 -0.677034438 0.7359218
vn 0.00797228981 0.0485400446 0.998789489
vn 0.00658405619 -0.677034378 0.73592186
vn 0.00802606065 0.00398989255 0.999959826
vn 0.00496695517 0.707873881 0.706321299
vn 0.00496695563 0.707873881 0.706321359
vn -0.0267690048 -0.702258587 -0.711418569
vn -0.0267690029 -0.702258587 -0.711418569
vn -0.47087127 -0.618830144 -0.628752291
vn -0.443758667 -0.628683209 -0.638620198
vn -0.945580125 -0.225913927 -0.234182
vn -0.950419307 -0.21573931 -0.223963514
vn -0.99997282 -0.00042935813 -0.00735859899
vn -0.99997282 -0.00042935813 -0.00735859852
vn 0.0416389555 0.701822817 0.71113354
vn 0.740573704 0.469487667 0.480761826
vn 0.0416389555 0.701822758 0.711133599
vn 0.709899068 0.492310345 0.5036605
vn 0.999987125 -0.00428901101 0.00273523526
vn 0.999987125 -0.00428901147 0.00273523503
vn -0.026768038 0.702258289 0.711418867
vn -0.026768038 0.702258229 0.711418867
vn -0.470872104 0.618829548 0.628752291
vn -0.443755418 0.628684044 0.638621569
vn -0.945580125 0.225913644 0.234181881
vn -0.950419724 0.215738267 0.22396259
vn -0.99997282 0.00043013494 0.00735932775
vn -0.99997282 0.000430134271 0.00735932682
vn 0.0416395478 -0.701822519 -0.711133838
vn 0.740574062 -0.46948728 -0.480761707
vn 0.0416395441 -0.701822579 -0.711133778
vn 0.709899783 -0.49230966 -0.503660142
vn 0.999987125 0.00428829947 -0.00273603713
vn 0.999987125 0.00428829947 -0.00273603643
vt 0.252119899 0.749365151
vt 0.499298453 0.749365151
vt 0.499298453 0.693001747
vt 0.252119899 0.690824509
vt 0.252119899 0.687541962
vt 0.499298453 0.688755572
vt 0.252119899 0.62830472
vt 0.499298453 0.62830472
vt 0.252119899 0.749365151
vt 0.499298453 0.69087863
vt 0.499298453 0.749365151
vt 0.252119899 0.689183474
vt 0.252119899 0.62830472
vt 0.499298453 0.62830472
vt 0.252119899 0.749365151
vt 0.499298453 0.749365151
vt 0.499298453 0.693001747
vt 0.252119899 0.690824509
vt 0.252119899 0.687541962
vt 0.499298453 0.688755572
vt 0.252119899 0.62830472
vt 0.499298453 0.62830472
vt 0.252119899 0.749365151
vt 0.499298453 0.69087863
vt 0.499298453 0.749365151
vt 0.252119899 0.689183474
vt 0.252119899 0.62830472
vt 0.499298453 0.62830472
vt 0.252119899 0.749365151
vt 0.499298453 0.749365151
vt 0.499298453 0.693001747
vt 0.252119899 0.690824509
vt 0.252119899 0.687541962
vt 0.499298453 0.688755572
vt 0.252119899 0.62830472
vt 0.499298453 0.62830472
vt 0.252119899 0.749365151
vt 0.499298453 0.69087863
vt 0.499298453 0.749365151
vt 0.252119899 0.689183474
vt 0.252119899 0.62830472
vt 0.499298453 0.62830472
vt 0.252119899 0.749365151
vt 0.499298453 0.749365151
vt 0.499298453 0.693001747
vt 0.252119899 0.690824509
vt 0.252119899 0.687541962
vt 0.499298453 0.688755572
vt 0.252119899 0.62830472
vt 0.499298453 0.62830472
vt 0.252119899 0.749365151
vt 0.499298453 0.69087863
vt 0.499298453 0.749365151
vt 0.252119899 0.689183474
vt 0.252119899 0.62830472
vt 0.499298453 0.62830472
vt 0.252119899 0.749365151
vt 0.499298453 0.749365151
vt 0.499298453 0.693001747
vt 0.252119899 0.690824509
vt 0.252119899 0.687541962
vt 0.499298453 0.688755572
vt 0.252119899 0.62830472
vt 0.499298453 0.62830472
vt 0.252119899 0.749365151
vt 0.499298453 0.69087863
vt 0.499298453 0.749365151
vt 0.252119899 0.689183474
vt 0.252119899 0.62830472
vt 0.499298453 0.62830472
vt 0.252119899 0.749365151
vt 0.499298453 0.749365151
vt 0.499298453 0.693001747
vt 0.252119899 0.690824509
vt 0.252119899 0.687541962
vt 0.499298453 0.688755572
vt 0.252119899 0.62830472
vt 0.499298453 0.62830472
vt 0.252119899 0.749365151
vt 0.499298453 0.69087863
vt 0.499298453 0.749365151
vt 0.252119899 0.689183474
vt 0.252119899 0.62830472
vt 0.499298453 0.62830472
vt 0.252119899 0.749365151
vt 0.499298453 0.749365151
vt 0.499298453 0.693001747
vt 0.252119899 0.690824509
vt 0.252119899 0.687541962
vt 0.499298453 0.688755572
vt 0.252119899 0.62830472
vt 0.499298453 0.62830472
vt 0.252119899 0.749365151
vt 0.499298453 0.69087863
vt 0.499298453 0.749365151
vt 0.252119899 0.689183474
vt 0.252119899 0.62830472
vt 0.499298453 0.62830472
g submesh0
f 1/1/1 2/2/2 3/3/3
f 1/1/1 3/3/3 4/4/4
f 3/3/3 5/5/5 4/4/4
f 3/3/3 6/6/6 5/5/5
f 7/7/7 5/5/5 6/6/6
f 7/7/7 6/6/6 8/8/8
f 9/9/9 10/10/10 11/11/11
f 9/9/9 12/12/12 10/10/10
f 13/13/13 10/10/10 12/12/12
f 13/13/13 14/14/14 10/10/10
f 15/15/15 16/16/16 17/17/17
f 15/15/15 17/17/17 18/18/18
f 17/17/17 19/19/19 18/18/18
f 17/17/17 20/20/20 19/19/19
f 21/21/21 19/19/19 20/20/20
f 21/21/21 20/20/20 22/22/22
f 23/23/23 24/24/24 25/25/25
f 23/23/23 26/26/26 24/24/24
f 27/27/27 24/24/24 26/26/26
f 27/27/27 28/28/28 24/24/24
f 29/29/29 30/30/30 31/31/31
f 29/29/29 31/31/31 32/32/32
f 31/31/31 33/33/33 32/32/32
f 31/31/31 34/34/34 33/33/33
f 35/35/35 33/33/33 34/34/34
f 35/35/35 34/34/34 36/36/36
f 37/37/37 38/38/38 39/39/39
f 37/37/37 40/40/40 38/38/38
f 41/41/41 38/38/38 40/40/40
f 41/41/41 42/42/42 38/38/38
f 43/43/43 44/44/44 45/45/45
f 43/43/43 45/45/45 46/46/46
f 45/45/45 47/47/47 46/46/46
f 45/45/45 48/48/48 47/47/47
f 49/49/49 47/47/47 48/48/48
f 49/49/49 48/48/48 50/50/50
f 51/51/51 52/52/52 53/53/53
f 51/51/51 54/54/54 52/52/52
f 55/55/55 52/52/52 54/54/54
f 55/55/55 56/56/56 52/52/52
f 57/57/57 58/58/58 59/59/59
f 57/57/57 59/59/59 60/60/60
f 59/59/59 61/61/61 60/60/60
f 59/59/59 62/62/62 61/61/61
f 63/63/63 61/61/61 62/62/62
f 63/63/63 62/62/62 64/64/64
f 65/65/65 66/66/66 67/67/67
f 65/65/65 68/68/68 66/66/66
f 69/69/69 66/66/66 68/68/68
f 69/69/69 70/70/70 66/66/66
f 71/71/71 72/72/72 73/73/73
f 71/71/71 73/73/73 74/74/74
f 73/73/73 75/75/75 74/74/74
f 73/73/73 76/76/76 75/75/75
f 77/77/77 75/75/75 76/76/76
f 77/77/77 76/76/76 78/78/78
f 79/79/79 80/80/80 81/81/81
f 79/79/79 82/82/82 80/80/80
f 83/83/83 80/80/80 82/82/82
f 83/83/83 84/84/84 80/80/80
f 85/85/85 86/86/86 87/87/87
f 85/85/85 87/87/87 88/88/88
f 87/87/87 89/89/89 88/88/88
f 87/87/87 90/90/90 89/89/89
f 91/91/91 89/89/89 90/90/90
f 91/91/91 90/90/90 92/92/92
f 93/93/93 94/94/94 95/95/95
f 93/93/93 96/96/96 94/94/94
f 97/97/97 94/94/94 96/96/96
f 97/97/97 98/98/98 94/94/94
