# barricade_medieval_wood_COL
v -1.13885796 1.09211397 -0.393957675
v 1.15190101 1.09211397 -0.393957675
v 1.15190101 1.19192171 -0.391648144
v -1.13885796 1.19192171 -0.391648144
v -1.13885796 0.329297215 -0.933332443
v -1.13885796 1.09211397 -0.393957675
v -1.13885796 1.19192171 -0.391648144
v -1.13885796 0.415650815 0.0753432512
v -1.13885808 0.329297215 0.787266135
v -1.13885808 0.415650815 0.787266135
v 1.15190101 0.329297215 -0.933332443
v -1.13885796 0.329297215 -0.933332443
v -1.13885796 1.19192171 -0.391648144
v 1.15190101 1.19192171 -0.391648144
v 1.15190101 0.329297215 -0.933332443
v 1.15190101 1.19192171 -0.391648144
v 1.15190101 1.09211397 -0.393957675
v 1.15190101 0.329297215 0.787266135
v 1.15190101 0.415650815 0.0753432512
v 1.15190101 0.415650815 0.787266135
v -1.13885796 0.415650815 0.0753432512
v 1.15190101 0.415650815 0.0753432512
v 1.15190101 1.09211397 -0.393957675
v -1.13885796 1.09211397 -0.393957675
v -1.13885808 0.329297215 0.787266135
v 1.15190101 0.329297215 0.787266135
v 1.15190101 0.415650815 0.787266135
v -1.13885808 0.415650815 0.787266135
v -1.13885796 0.415650815 0.0753432512
v -1.13885808 0.415650815 0.787266135
v 1.15190101 0.415650815 0.787266135
v 1.15190101 0.415650815 0.0753432512
v -0.144520506 2.56610489 -0.543849349
v -0.144520506 0.174894765 0.451431721
v -0.102191426 0.216326058 0.544847667
v -0.102191426 2.60753632 -0.450433344
v -0.102191426 2.60753632 -0.450433344
v -0.102191426 0.216326058 0.544847667
v 0 0.233487487 0.583541811
v 0 2.62469745 -0.4117392
v 0 2.62469745 -0.4117392
v 0 0.233487487 0.583541811
v 0.102191426 0.216326058 0.544847667
v 0.102191426 2.60753632 -0.450433344
v 0.102191426 2.60753632 -0.450433344
v 0.102191426 0.216326058 0.544847667
v 0.144520506 0.174894765 0.451431721
v 0.144520506 2.56610489 -0.543849349
v 0.144520506 2.56610489 -0.543849349
v 0.144520506 0.174894765 0.451431721
v 0.102191426 0.133463457 0.358015805
v 0.102191426 2.5246737 -0.637265205
v 0.102191426 2.5246737 -0.637265205
v 0.102191426 0.133463457 0.358015805
v 0 0.116302036 0.319321662
v 0 2.50751233 -0.675959289
v -1.03387678 2.27329302 -0.63168627
v -0.853815675 0.151160717 0.331186056
v -0.883646965 0.18334493 0.403752387
v -1.06174076 2.30335474 -0.563905537
v 0.102191426 2.5246737 -0.637265205
v 0 2.50751233 -0.675959289
v -0.102191426 2.5246737 -0.637265205
v 0.144520506 2.56610489 -0.543849349
v -0.144520506 2.56610489 -0.543849349
v 0.102191426 2.60753632 -0.450433344
v -0.102191426 2.60753632 -0.450433344
v 0 2.62469745 -0.4117392
v 0 2.50751233 -0.675959289
v 0 0.116302036 0.319321662
v -0.102191426 0.133463457 0.358015805
v -0.102191426 2.5246737 -0.637265205
v 0.695374429 2.00604415 -0.424172938
v 0.678556442 0.18334493 0.440116525
v 0.708387733 0.215529174 0.512682915
v 0.723238349 2.03610611 -0.356392205
v 0.723238349 2.03610611 -0.356392205
v 0.708387733 0.215529174 0.512682915
v 0.780406833 0.228860304 0.542740822
v 0.790508032 2.04855824 -0.32831648
v 0.790508032 2.04855824 -0.32831648
v 0.780406833 0.228860304 0.542740822
v 0.852426052 0.215529174 0.512682915
v 0.857777596 2.03610611 -0.356392205
v 0.857777596 2.03610611 -0.356392205
v 0.852426052 0.215529174 0.512682915
v 0.882257283 0.18334493 0.440116525
v 0.885641634 2.00604415 -0.424172938
v 0.885641634 2.00604415 -0.424172938
v 0.882257283 0.18334493 0.440116525
v 0.852426052 0.151160732 0.367550194
v 0.857777596 1.97598267 -0.491953641
v 0.857777596 1.97598267 -0.491953641
v 0.852426052 0.151160732 0.367550194
v 0.780406833 0.137829587 0.337492198
v 0.790508032 1.96353066 -0.520029366
v -0.102191426 2.5246737 -0.637265205
v -0.102191426 0.133463457 0.358015805
v -0.144520506 0.174894765 0.451431721
v -0.144520506 2.56610489 -0.543849349
v 0.857777596 1.97598267 -0.491953641
v 0.790508032 1.96353066 -0.520029366
v 0.723238349 1.97598267 -0.491953641
v 0.885641634 2.00604415 -0.424172938
v 0.695374429 2.00604415 -0.424172938
v 0.857777596 2.03610611 -0.356392205
v 0.723238349 2.03610611 -0.356392205
v 0.790508032 2.04855824 -0.32831648
v 0.790508032 1.96353066 -0.520029366
v 0.780406833 0.137829587 0.337492198
v 0.708387733 0.151160732 0.367550194
v 0.723238349 1.97598267 -0.491953641
v -1.06174076 2.30335474 -0.563905537
v -0.883646965 0.18334493 0.403752387
v -0.853815675 0.215529144 0.476318717
v -1.03387678 2.33341646 -0.496124804
v -1.03387678 2.33341646 -0.496124804
v -0.853815675 0.215529144 0.476318717
v -0.781796455 0.228860274 0.506376684
v -0.966607094 2.34586835 -0.468049109
v -0.966607094 2.34586835 -0.468049109
v -0.781796455 0.228860274 0.506376684
v -0.709777355 0.215529144 0.476318717
v -0.89933753 2.33341646 -0.496124804
v -0.89933753 2.33341646 -0.496124804
v -0.709777355 0.215529144 0.476318717
v -0.679946065 0.18334493 0.403752387
v -0.871473551 2.30335474 -0.563905537
v -0.871473551 2.30335474 -0.563905537
v -0.679946065 0.18334493 0.403752387
v -0.709777355 0.151160717 0.331186056
v -0.89933753 2.27329302 -0.63168627
v -0.89933753 2.27329302 -0.63168627
v -0.709777355 0.151160717 0.331186056
v -0.781796455 0.137829587 0.301128089
v -0.966607094 2.26084089 -0.659761965
v -0.89933753 2.27329302 -0.63168627
v -0.966607094 2.26084089 -0.659761965
v -1.03387678 2.27329302 -0.63168627
v -0.871473551 2.30335474 -0.563905537
v -1.06174076 2.30335474 -0.563905537
v -0.89933753 2.33341646 -0.496124804
v -1.03387678 2.33341646 -0.496124804
v -0.966607094 2.34586835 -0.468049109
v -0.966607094 2.26084089 -0.659761965
v -0.781796455 0.137829587 0.301128089
v -0.853815675 0.151160717 0.331186056
v -1.03387678 2.27329302 -0.63168627
v 0.544045448 1.93173349 -0.396746069
v 0.544045448 1.93173349 -0.427138805
v 0.544045448 2.09092402 -0.505043626
v 0.544045448 2.09092402 -0.461133301
v 0.544045448 1.93173349 -0.427138805
v -0.605423987 1.93173349 -0.427138805
v -0.605423987 2.09092402 -0.505043626
v 0.544045448 2.09092402 -0.505043626
v -0.605423987 1.93173349 -0.427138805
v -0.605423987 1.93173349 -0.396746069
v -0.605423987 2.09092402 -0.461133301
v -0.605423987 2.09092402 -0.505043626
v -0.605423987 1.93173349 -0.396746069
v 0.544045448 1.93173349 -0.396746069
v 0.544045448 2.09092402 -0.461133301
v -0.605423987 2.09092402 -0.461133301
v 0.544045448 1.93173349 -0.427138805
v 0.544045448 1.93173349 -0.396746069
v -0.605423987 1.93173349 -0.396746069
v -0.605423987 1.93173349 -0.427138805
v -0.605423987 2.09092402 -0.505043626
v -0.605423987 2.09092402 -0.461133301
v 0.544045448 2.09092402 -0.461133301
v 0.544045448 2.09092402 -0.505043626
v 0.448146731 1.19230735 -1.25882959
v 0.480766326 1.1048007 -1.17668366
v 0.431318462 1.12376559 -1.17098236
v 0.462213248 1.01195157 -1.08976722
v 0.420495898 1.07608151 -1.07651162
v 0.482047349 0.798680961 -0.741998255
v 0.505055666 0.77951467 -0.72941184
v 0.557538509 0.691333055 -0.594962478
v 0.510550439 0.700141728 -0.596975923
v 0.490712315 0.728145897 -0.538093984
v 0.433866799 1.15971994 -1.16678965
v 0.448146731 1.19230735 -1.25882959
v 0.469219357 1.15774179 -1.13332152
v 0.465423763 1.13598096 -1.06443489
v 0.45560953 1.01252627 -0.910062969
v 0.483489454 1.05126774 -0.93524307
v 0.492784709 0.901838124 -0.717002153
v 0.439284742 0.993454099 -0.967466176
v 0.472465038 0.838798523 -0.67291528
v 0.517854452 0.766467392 -0.508978009
v 0.462243229 0.937627375 -0.824521482
v 0.460787237 0.899758637 -0.819397807
v 0.549146712 0.823422611 -0.594015539
v 0.492784709 0.901838124 -0.717002153
v 0.517854452 0.766467392 -0.508978009
v 0.540491104 0.928537548 -0.745206177
v 0.573524594 0.821639359 -0.616652906
v 0.483489454 1.05126774 -0.93524307
v 0.595054865 0.779621482 -0.621174634
v 0.56182313 0.974376798 -0.875291824
v 0.518276632 1.08062243 -0.991771996
v 0.535102785 1.09505606 -1.08873022
v 0.491108686 1.12604713 -1.05049276
v 0.465423763 1.13598096 -1.06443489
v 0.469219357 1.15774179 -1.13332152
v 0.497976929 1.1458329 -1.15385962
v 0.448146731 1.19230735 -1.25882959
v 0.480766326 1.1048007 -1.17668366
v 0.537310481 0.993072569 -1.00009274
v 0.462213248 1.01195157 -1.08976722
v 0.560049951 0.951960146 -0.89499402
v 0.523064315 0.933388114 -0.947673917
v 0.505055666 0.77951467 -0.72941184
v 0.557538509 0.691333055 -0.594962478
v 0.583939373 0.817780972 -0.701705098
v 0.57535851 0.781592667 -0.688915014
v 0.59736383 0.735166848 -0.592119873
v -0.459859371 0.983353078 -0.958668113
v -0.450121731 1.00861132 -1.00744462
v -0.464775681 1.02573085 -1.03465128
v -0.410892695 0.954071403 -0.976217628
v -0.440434605 0.993014038 -1.0097965
v -0.464775681 1.02573085 -1.03465128
v -0.4666619 1.01826644 -1.03791857
v -0.429246545 0.915569425 -0.984416425
v -0.463099897 0.923902571 -1.00576198
v -0.439464569 0.827643692 -0.923953176
v -0.459472865 0.749154031 -0.856271446
v -0.423917145 0.806380391 -0.900878727
v -0.435426086 0.585049868 -0.703569114
v -0.410304785 0.904755771 -0.956165075
v -0.41462931 0.704213917 -0.805727363
v -0.404919922 0.540513992 -0.659379363
v -0.407455504 0.785212457 -0.862922668
v -0.401717365 0.662647843 -0.752119958
v -0.39494887 0.659966707 -0.715360463
v -0.402520478 0.835104346 -0.868624151
v -0.415026516 0.921033144 -0.921291053
v -0.401639998 0.674414277 -0.700968862
v -0.416443408 0.659267783 -0.663243771
v -0.43200624 0.777826607 -0.770128667
v -0.440802604 0.696439505 -0.690626502
v -0.442782342 0.753184617 -0.74635452
v -0.45360297 0.87548238 -0.856006205
v -0.433487803 0.924776971 -0.901343763
v -0.459355116 0.903908968 -0.876587272
v -0.442782342 0.753184617 -0.74635452
v -0.467201948 0.665104866 -0.67643714
v -0.440802604 0.696439505 -0.690626502
v -0.478094637 0.679348767 -0.708665609
v -0.45360297 0.87548238 -0.856006205
v -0.482744664 0.791966617 -0.815742075
v -0.459355116 0.903908968 -0.876587272
v -0.48691687 0.735043228 -0.799746215
v -0.460133135 0.561368942 -0.660799086
v -0.468341231 0.657477915 -0.761335492
v -0.451429427 0.555196285 -0.66536504
v -0.435426086 0.585049868 -0.703569114
v -0.459472865 0.749154031 -0.856271446
v -0.491955101 0.834939182 -0.884545326
v -0.488817513 0.848327994 -0.871980488
v -0.491463333 0.915424407 -0.924024165
v -0.459859371 0.983353078 -0.958668113
v -0.489313155 0.892141163 -0.957258582
v -0.463099897 0.923902571 -1.00576198
v -0.49860096 0.910134017 -0.942033291
v -0.500636399 0.934897304 -0.955369234
v -0.485463887 0.970858514 -0.999703288
v -0.4666619 1.01826644 -1.03791857
v -0.483124375 0.984069824 -0.995051384
v -0.473116249 1.01406622 -1.02665281
v -0.464775681 1.02573085 -1.03465128
v -0.871361136 0.495885313 -0.821870685
v -0.84808737 0.681235135 -1.01037598
v -0.874721229 0.532473803 -0.795020342
v -0.856612206 0.630437672 -0.925462008
v -0.849170804 0.750041962 -1.0600208
v -0.852295578 0.778071046 -1.14219248
v -0.880529702 0.843221784 -1.10359168
v -0.873929501 0.766180873 -1.02174652
v -0.863641858 0.676807761 -0.949671745
v -0.867694676 0.83049947 -1.1677897
v -0.888973475 0.847562075 -1.21036434
v -0.897183359 0.930212021 -1.25864387
v -0.906733453 0.928735197 -1.26681423
v -0.962115467 0.796135604 -1.09414649
v -0.900411904 0.781359792 -1.02743208
v -0.965602994 0.714017153 -0.991503417
v -0.884998977 0.688885629 -0.938330412
v -0.908468127 0.693365872 -0.934839785
v -0.904625297 0.611647904 -0.849568307
v -0.929284036 0.632394314 -0.877304733
v -0.954923213 0.536540091 -0.763925374
v -0.943309605 0.703892589 -0.954701722
v -0.954471648 0.632714331 -0.921533465
v -0.952191591 0.601260602 -0.860054374
v -0.969174623 0.51818651 -0.828102708
v -0.942288935 0.656485736 -0.913455784
v 0.985801697 0.414586008 -0.892909169
v 0.957702994 0.421528965 -0.874653697
v 0.982148707 0.468517572 -0.967423916
v 0.989594936 0.574998677 -1.1272006
v 0.960824728 0.622813106 -1.15423405
v 0.99076587 0.742459178 -1.37452447
v 0.9445979 0.538954496 -0.990374982
v 0.94252944 0.445571363 -0.855313182
v 0.952095032 0.470733106 -0.843910456
v 0.954138339 0.577493668 -0.977783799
v 0.95511657 0.609880328 -1.04805923
v 0.971187115 0.51470226 -0.869472325
v 0.962338388 0.473244429 -0.819374204
v 0.989218116 0.481633455 -0.816500306
v 0.986764371 0.501517951 -0.846002996
v 1.00938749 0.499743879 -0.850329936
v 0.994430602 0.6049757 -0.991850555
v 0.977208138 0.668111861 -1.09722757
v 1.00712669 0.712853849 -1.15600228
v 0.983274817 0.744941831 -1.1956768
v 1.01687145 0.774035156 -1.24114823
v 1.02031779 0.81155026 -1.31709516
v 0.964763105 0.729238868 -1.19959211
v 0.968592346 0.797894418 -1.33344913
v 0.984571517 0.812769294 -1.38169122
v 1.02022982 0.849378943 -1.43123102
v 1.01800501 0.863312364 -1.48783731
v 1.01616549 0.861667931 -1.49685419
v 1.01009142 0.838165879 -1.47538149
v 1.00131834 0.776848376 -1.41340601
v 0.961251974 0.726635575 -1.29051149
v 0.95652777 0.709527314 -1.20565486
v 0.994430602 0.6049757 -0.991850555
v 1.00938749 0.499743879 -0.850329936
v 1.02741432 0.485822141 -0.853453338
v 1.02829933 0.640494287 -1.07173908
v 1.04240549 0.473942548 -0.920533478
v 1.035869 0.470407248 -0.860168576
v 1.03704691 0.440337807 -0.864586771
v 1.00712669 0.712853849 -1.15600228
v 1.0326066 0.424727172 -0.873482168
v 1.04137444 0.724563062 -1.2081784
v 1.01687145 0.774035156 -1.24114823
v 1.04278731 0.818580449 -1.34457743
v 1.02031779 0.81155026 -1.31709516
v 1.02022982 0.849378943 -1.43123102
v 1.01978242 0.473592937 -0.967510819
v 0.985801697 0.414586008 -0.892909169
v 0.982148707 0.468517572 -0.967423916
v 1.04689574 0.630851865 -1.11998725
v 1.04423118 0.599690914 -1.11329901
v 1.0166018 0.551961482 -1.09146702
v 0.989594936 0.574998677 -1.1272006
v 1.03871298 0.695896268 -1.29212201
v 1.03748858 0.57230109 -1.09423602
v 1.05125713 0.697370887 -1.2499516
v 1.05636024 0.74880445 -1.29200268
v 1.01860845 0.702358663 -1.32133019
v 0.99076587 0.742459178 -1.37452447
v 1.05424881 0.747953653 -1.35503995
v 1.02410972 0.793042123 -1.43236661
v 1.00131834 0.776848376 -1.41340601
v 1.01009142 0.838165879 -1.47538149
v 1.03377604 0.806330919 -1.43427253
v 1.01941228 0.840281963 -1.48235774
v 1.01616549 0.861667931 -1.49685419
v 1.02258992 0.859516263 -1.49343765
v 1.01800501 0.863312364 -1.48783731
v 1.03292489 0.831698537 -1.38570404
v -0.0191546883 0.5177297 -0.767674029
v -0.0411689281 0.555998743 -0.789557159
v -0.0251407549 0.57213062 -0.82421273
v -0.0333763622 0.666051388 -0.922919214
v -0.0553910136 0.726855814 -0.957612276
v -0.0281392336 0.718192041 -0.98138988
v -0.0450705886 0.857227087 -1.12756908
v -0.0581929795 0.635940015 -0.832031369
v -0.050530389 0.576770544 -0.784810185
v -0.0516077876 0.660648346 -0.821042597
v -0.0433876179 0.597235084 -0.757046938
v -0.0284038577 0.608528793 -0.749527812
v -0.0306225941 0.669781625 -0.807671189
v -0.0335016437 0.757589698 -0.903267741
v -0.0129449405 0.794240773 -0.942457914
v -0.0381697789 0.834929585 -0.97730726
v -0.0127955014 0.865566075 -1.01383746
v -0.0150948633 0.907372177 -1.07242548
v -0.0542879254 0.822270572 -0.981329262
v -0.0619117394 0.806558192 -0.988455951
v -0.0640032217 0.832470655 -1.05735266
v -0.0564455464 0.893543839 -1.07189417
v -0.0597292185 0.899114609 -1.08778214
v -0.0501002967 0.917143524 -1.1235404
v -0.0386518501 0.891372502 -1.15615654
v -0.0232028738 0.954639316 -1.16260087
v -0.0351612568 0.95123893 -1.20024037
v -0.0291204825 0.974030733 -1.2078172
v -0.0313604027 0.973877847 -1.21543372
v -0.0284038577 0.608528793 -0.749527812
v 0.00361117534 0.600213885 -0.740865827
v -0.0306225941 0.669781625 -0.807671189
v -0.0129449405 0.794240773 -0.942457914
v 0.0189718548 0.594475985 -0.753068209
v 0.00304996036 0.755469024 -0.913063705
v 0.00985154696 0.819631457 -0.99485141
v -0.0127955014 0.865566075 -1.01383746
v 0.0188344922 0.726912498 -0.918096006
v 0.028997425 0.574830651 -0.769440293
v 0.0159031656 0.679382682 -0.918607175
v 0.0260622259 0.555742264 -0.77824986
v 0.0134093985 0.540406227 -0.785064161
v -0.00244125258 0.635508001 -0.893090248
v 0.00106255524 0.515957594 -0.767738163
v -0.0251407549 0.57213062 -0.82421273
v -0.0191546883 0.5177297 -0.767674029
v -0.0333763622 0.666051388 -0.922919214
v -0.0281392336 0.718192041 -0.98138988
v -0.0152653512 0.815383077 -1.08862436
v -0.0450705886 0.857227087 -1.12756908
v 0.00518304622 0.806428254 -1.06148648
v 0.0203398485 0.720322847 -0.945139229
v 0.0148941632 0.783752739 -1.0161339
v 0.0101416381 0.859271288 -1.11528659
v 0.0165941361 0.851398766 -1.06268263
v 0.00425210595 0.911041677 -1.09469128
v -0.020597605 0.90756613 -1.17149222
v -0.0386518501 0.891372502 -1.15615654
v -0.0351612568 0.95123893 -1.20024037
v -0.0124193989 0.918981373 -1.17200005
v -0.0277676415 0.953977168 -1.20647442
v -0.0313604027 0.973877847 -1.21543372
v -0.0256947987 0.971617699 -1.21335196
v -0.00303636654 0.916011393 -1.08937538
v -0.0150948633 0.907372177 -1.07242548
v -0.0232028738 0.954639316 -1.16260087
v -0.00928403437 0.933631182 -1.12792802
v -0.0291204825 0.974030733 -1.2078172
v -0.0313604027 0.973877847 -1.21543372
v 0.723238349 1.97598267 -0.491953641
v 0.708387733 0.151160732 0.367550194
v 0.678556442 0.18334493 0.440116525
v 0.695374429 2.00604415 -0.424172938
v -0.871361136 0.495885313 -0.821870685
v -0.870764971 0.604880333 -0.982408881
v -0.84808737 0.681235135 -1.01037598
v -0.916991889 0.468237966 -0.840543568
v -0.852295578 0.778071046 -1.14219248
v -0.884689331 0.640030563 -1.03761566
v -0.896552086 0.777432024 -1.16816568
v -0.888973475 0.847562075 -1.21036434
v -0.915183485 0.831248403 -1.20246041
v -0.906733453 0.928735197 -1.26681423
v -0.91456151 0.880136609 -1.233109
v -0.962115467 0.796135604 -1.09414649
v -0.91660881 0.772423446 -1.16451085
v -0.902812183 0.691613376 -1.08819056
v -0.926109076 0.687830269 -1.07190299
v -0.920278907 0.619660497 -1.01262081
v -0.949404955 0.66194886 -1.011567
v -0.965602994 0.714017153 -0.991503417
v -0.954471648 0.632714331 -0.921533465
v -0.969174623 0.51818651 -0.828102708
v -0.903487682 0.60057652 -0.996286154
v -0.928467155 0.501332998 -0.873498082
v -0.967148423 0.461476654 -0.796127677
vn 0 -0.0231335573 0.999732316
vn 0 -0.0231335573 0.999732316
vn 0 -0.0231335573 0.999732316
vn 0 -0.0231335573 0.999732316
vn -1 1.37982937E-07 1.53895655E-07
vn -1 1.37982937E-07 1.53895655E-07
vn -1 0 -2.86164862E-07
vn -1 1.37982937E-07 1.53895655E-07
vn -1 1.37982937E-07 1.53895655E-07
vn -1 0 0
vn 0 0.531793773 -0.84687382
vn 0 0.531793773 -0.84687382
vn 0 0.531793773 -0.84687382
vn 0 0.531793773 -0.84687382
vn 1 0 8.58494559E-07
vn 1 0 8.58494559E-07
vn 1 0 8.58494559E-07
vn 1 0 0
vn 1 0 0
vn 1 0 0
vn 0 0.570014656 0.821634591
vn 0 0.570014656 0.821634591
vn 0 0.570014656 0.821634591
vn 0 0.570014656 0.821634591
vn 0 0 1
vn 0 0 1
vn 0 0 1
vn 0 0 1
vn 0 1 0
vn 0 1 0
vn 0 1 0
vn 0 1 0
vn -0.923843622 0.147086293 0.353381813
vn -0.923843622 0.147086293 0.353381813
vn -0.923843622 0.147086293 0.353381813
vn -0.923843622 0.147086293 0.353381813
vn -0.382597029 0.355030864 0.852978706
vn -0.382597029 0.355030864 0.852978706
vn -0.382597029 0.355030864 0.852978706
vn -0.382597029 0.355030864 0.852978706
vn 0.382597029 0.355030864 0.852978706
vn 0.382597029 0.355030864 0.852978706
vn 0.382597029 0.355030864 0.852978706
vn 0.382597029 0.355030864 0.852978706
vn 0.923843622 0.147086293 0.353381813
vn 0.923843622 0.147086293 0.353381813
vn 0.923843622 0.147086293 0.353381813
vn 0.923843622 0.147086293 0.353381813
vn 0.923843682 -0.147086114 -0.353381455
vn 0.923843682 -0.147086114 -0.353381455
vn 0.923843682 -0.147086114 -0.353381455
vn 0.923843682 -0.147086114 -0.353381455
vn 0.382596582 -0.355030924 -0.852978885
vn 0.382596582 -0.355030924 -0.852978885
vn 0.382596582 -0.355030924 -0.852978885
vn 0.382596582 -0.355030924 -0.852978885
vn -0.933441877 -0.210875049 -0.290203243
vn -0.933441877 -0.210875049 -0.290203243
vn -0.933441877 -0.210875049 -0.290203243
vn -0.933441877 -0.210875049 -0.290203243
vn -2.52241307E-07 0.914126873 -0.405428261
vn -2.52241307E-07 0.914126873 -0.405428261
vn -2.52241307E-07 0.914126873 -0.405428261
vn -2.52241307E-07 0.914126873 -0.405428261
vn -2.52241307E-07 0.914126873 -0.405428261
vn -2.52241307E-07 0.914126873 -0.405428261
vn -2.52241307E-07 0.914126873 -0.405428261
vn -2.52241307E-07 0.914126873 -0.405428261
vn -0.382596582 -0.355030924 -0.852978885
vn -0.382596582 -0.355030924 -0.852978885
vn -0.382596582 -0.355030924 -0.852978885
vn -0.382596582 -0.355030924 -0.852978885
vn -0.935955822 0.15787968 0.314739287
vn -0.935955822 0.15787968 0.314739287
vn -0.935955822 0.15787968 0.314739287
vn -0.935955822 0.15787968 0.314739287
vn -0.415158361 0.394671351 0.819681644
vn -0.415158361 0.394671351 0.819681644
vn -0.415158361 0.394671351 0.819681644
vn -0.415158361 0.394671351 0.819681644
vn 0.415204108 0.39091289 0.821457624
vn 0.415204108 0.39091289 0.821457624
vn 0.415204108 0.39091289 0.821457624
vn 0.415204108 0.39091289 0.821457624
vn 0.936061203 0.149325207 0.318577141
vn 0.936061203 0.149325207 0.318577141
vn 0.936061203 0.149325207 0.318577141
vn 0.936061203 0.149325207 0.318577141
vn 0.936034799 -0.152193174 -0.317295134
vn 0.936034799 -0.152193174 -0.317295134
vn 0.936034799 -0.152193174 -0.317295134
vn 0.936034799 -0.152193174 -0.317295134
vn 0.415228248 -0.388633668 -0.822526157
vn 0.415228248 -0.388633668 -0.822526157
vn 0.415228248 -0.388633668 -0.822526157
vn 0.415228248 -0.388633668 -0.822526157
vn -0.923843682 -0.147086114 -0.353381425
vn -0.923843682 -0.147086114 -0.353381425
vn -0.923843682 -0.147086114 -0.353381425
vn -0.923843682 -0.147086114 -0.353381425
vn 0 0.914126694 -0.405428559
vn 0 0.914126694 -0.405428559
vn 0 0.914126694 -0.405428559
vn 0 0.914126694 -0.405428559
vn 0 0.914126694 -0.405428559
vn 0 0.914126694 -0.405428559
vn 0 0.914126694 -0.405428559
vn 0 0.914126694 -0.405428559
vn -0.415261775 -0.384862244 -0.824280679
vn -0.415261775 -0.384862244 -0.824280679
vn -0.415261775 -0.384862244 -0.824280679
vn -0.415261775 -0.384862244 -0.824280679
vn -0.933944583 0.0804917589 0.348236442
vn -0.933944583 0.0804917589 0.348236442
vn -0.933944583 0.0804917589 0.348236442
vn -0.933944583 0.0804917589 0.348236442
vn -0.41524139 0.350205719 0.839601398
vn -0.41524139 0.350205719 0.839601398
vn -0.41524139 0.350205719 0.839601398
vn -0.41524139 0.350205719 0.839601398
vn 0.414895445 0.410072237 0.812220693
vn 0.414895445 0.410072237 0.812220693
vn 0.414895445 0.410072237 0.812220693
vn 0.414895445 0.410072237 0.812220693
vn 0.933051825 0.215703607 0.287899941
vn 0.933051825 0.215703607 0.287899941
vn 0.933051825 0.215703607 0.287899941
vn 0.933051825 0.215703607 0.287899941
vn 0.933591485 -0.0755416155 -0.350286216
vn 0.933591485 -0.0755416155 -0.350286216
vn 0.933591485 -0.0755416155 -0.350286216
vn 0.933591485 -0.0755416155 -0.350286216
vn 0.415186286 -0.3448762 -0.841831684
vn 0.415186286 -0.3448762 -0.841831684
vn 0.415186286 -0.3448762 -0.841831684
vn 0.415186286 -0.3448762 -0.841831684
vn 0 0.914126694 -0.405428529
vn 0 0.914126694 -0.405428529
vn 0 0.914126694 -0.405428529
vn 0 0.914126694 -0.405428529
vn 0 0.914126694 -0.405428529
vn 0 0.914126694 -0.405428529
vn 0 0.914126694 -0.405428529
vn 0 0.914126694 -0.405428529
vn -0.414998412 -0.404893279 -0.814762414
vn -0.414998412 -0.404893279 -0.814762414
vn -0.414998412 -0.404893279 -0.814762414
vn -0.414998412 -0.404893279 -0.814762414
vn 1 0 0
vn 1 0 0
vn 1 0 0
vn 1 0 0
vn 0 -0.439567089 -0.898209751
vn 0 -0.439567089 -0.898209751
vn 0 -0.439567089 -0.898209751
vn 0 -0.439567089 -0.898209751
vn -1 0 0
vn -1 0 0
vn -1 0 0
vn -1 0 0
vn 0 0.37495774 0.927041829
vn 0 0.37495774 0.927041829
vn 0 0.37495774 0.927041829
vn 0 0.37495774 0.927041829
vn 0 -1 0
vn 0 -1 0
vn 0 -1 0
vn 0 -1 0
vn 0 1 0
vn 0 1 0
vn 0 1 0
vn 0 1 0
vn -0.113874294 0.496637374 -0.860455751
vn 0.383952677 -0.530553102 -0.755707443
vn -0.82886517 -0.353699654 -0.433450103
vn -0.227262929 -0.769941211 -0.596273541
vn -0.999409795 0.0126171941 0.0319507271
vn -0.776570141 -0.572362185 -0.263325542
vn -0.214847594 -0.848453343 -0.483701795
vn 0.279946238 -0.789574385 -0.54607904
vn -0.609743297 -0.706142902 -0.359965533
vn -0.978867054 0.0376285762 0.201005861
vn -0.772097051 0.618324816 0.146767259
vn -0.113874294 0.496637374 -0.860455751
vn 0.180849254 0.946680486 0.266626358
vn -0.332773477 0.84253341 0.423555434
vn -0.795479357 0.461222827 0.393047303
vn -0.108413696 0.808870077 0.577906191
vn -0.47188434 0.713268101 0.518240988
vn -0.989827037 -0.0293811783 0.139208943
vn -0.952498317 0.193800554 0.234922186
vn -0.73256129 0.499246478 0.462716818
vn -0.941501379 0.209481239 0.263993651
vn -0.994691312 -0.0762914643 0.0690553188
vn 0.108398438 0.829805732 0.547423244
vn -0.47188434 0.713268101 0.518240988
vn -0.73256129 0.499246478 0.462716818
vn 0.369119108 0.785958529 0.496004283
vn 0.737042487 0.600557029 0.309999317
vn -0.108413696 0.808870077 0.577906191
vn 0.987593353 0.0164831132 -0.156165168
vn 0.874738276 0.456330895 0.163079903
vn 0.527978003 0.74343127 0.410547405
vn 0.954518557 0.213014051 -0.208612666
vn 0.379882485 0.849830747 0.365345061
vn -0.332773477 0.84253341 0.423555434
vn 0.180849254 0.946680486 0.266626358
vn 0.85349232 0.500947773 -0.143534854
vn -0.113874294 0.496637374 -0.860455751
vn 0.383952677 -0.530553102 -0.755707443
vn 0.766280472 -0.458738625 -0.449859023
vn -0.227262929 -0.769941211 -0.596273541
vn 0.937336206 -0.231146976 -0.260714084
vn 0.533909023 -0.681999624 -0.49981755
vn -0.214847594 -0.848453343 -0.483701795
vn 0.279946238 -0.789574385 -0.54607904
vn 0.952610791 -0.184269011 -0.242028013
vn 0.683416903 -0.546008766 -0.484578013
vn 0.768996537 -0.490417719 -0.410042435
vn -0.0728562847 0.805166602 0.588556468
vn 0.570953548 0.783910334 0.243919268
vn 0.0275180619 0.904726982 -0.425101995
vn 0.932407975 0.317613304 -0.172444299
vn 0.844972074 0.220919505 -0.487049043
vn 0.0275180619 0.904726982 -0.425101995
vn -0.159479752 0.150694177 -0.975631893
vn 0.565073252 -0.372756958 -0.736032963
vn -0.188209325 -0.434182703 -0.880944133
vn 0.171051592 -0.620508552 -0.765317202
vn -0.348263681 -0.633269548 -0.69114542
vn 0.473531038 -0.564147711 -0.676391721
vn -0.097625576 -0.684120834 -0.72280556
vn 0.88326019 -0.236169904 -0.40506199
vn 0.499767363 -0.57012409 -0.652066886
vn 0.539032221 -0.55456847 -0.633954406
vn 0.873130381 -0.29699263 -0.386572927
vn 0.898828685 -0.269673556 -0.345518559
vn 0.99980253 -0.0144185545 0.0136797456
vn 0.9928509 0.103435688 0.0595660247
vn 0.785867572 0.484702796 0.384025365
vn 0.863780081 0.306017011 0.400296837
vn 0.665837646 0.485157788 0.566817582
vn 0.340259463 0.640385211 0.688571155
vn -0.0797414109 0.687281311 0.722001195
vn -0.2500723 0.656526148 0.711644113
vn -0.152835995 0.604024231 0.782173753
vn 0.41829291 0.660872996 0.623119414
vn -0.26281175 0.612206578 0.745743275
vn -0.2500723 0.656526148 0.711644113
vn -0.567647457 0.602624714 0.560909927
vn -0.0797414109 0.687281311 0.722001195
vn -0.924598336 0.241829559 0.294340461
vn -0.152835995 0.604024231 0.782173753
vn -0.855276823 0.326370209 0.402472436
vn -0.26281175 0.612206578 0.745743275
vn -0.970284581 -0.178010225 -0.163890526
vn -0.747020304 -0.514226973 -0.421344519
vn -0.656642079 -0.552019238 -0.513902664
vn -0.583274484 -0.604999363 -0.54200238
vn -0.097625576 -0.684120834 -0.72280556
vn -0.348263681 -0.633269548 -0.69114542
vn -0.976054668 -0.18674463 -0.111551955
vn -0.898843408 0.256725281 0.355208039
vn -0.800147653 0.37541163 0.46779263
vn -0.0728562847 0.805166602 0.588556468
vn -0.770023763 -0.394211441 -0.501657963
vn -0.188209325 -0.434182703 -0.880944133
vn -0.997160316 -0.0734860599 0.0164716095
vn -0.979266465 0.20013918 0.031327948
vn -0.905410051 -0.0496449359 -0.421625376
vn -0.159479752 0.150694177 -0.975631893
vn -0.866922736 0.466138452 0.176521704
vn -0.911262691 0.406714231 -0.064682126
vn 0.0275180619 0.904726982 -0.425101995
vn 0.894616783 -0.396680802 -0.205682054
vn 0.99102062 -0.119968235 -0.0590402931
vn 0.746819615 0.433802783 0.504059196
vn 0.985297859 0.0459818058 0.164541155
vn 0.959392011 0.231257245 0.161515117
vn 0.896374226 -0.177610099 -0.406162351
vn 0.385056704 0.801551402 0.457434952
vn 0.589241982 0.587811172 0.55432111
vn 0.840658605 0.397149324 0.368192285
vn 0.966115177 0.210501626 -0.149366945
vn 0.517608821 -0.413556248 -0.749034286
vn 0.484470457 0.825859606 -0.288520932
vn -0.258833915 0.551701307 -0.792862356
vn -0.943868637 0.322349221 0.0721323192
vn -0.0877685994 0.758723438 0.645472944
vn -0.908039927 0.312627345 0.278796881
vn 0.431382895 0.638918757 0.636939228
vn 0.00969042163 0.739614606 0.672960937
vn -0.0895737335 0.569839597 0.816859484
vn -0.306233019 0.687396049 0.658565104
vn -0.386034429 0.707933128 0.591445863
vn -0.304314166 0.830311835 0.466878235
vn -0.968555152 0.208629817 0.135552555
vn -0.812003076 0.484537393 0.325383782
vn -0.953626394 -0.13857761 -0.26719451
vn -0.777270377 0.429698378 0.459575981
vn -0.106100649 -0.833764732 -0.541829288
vn -0.759632111 -0.53039664 -0.376348943
vn -0.225117177 -0.800979435 -0.554755986
vn -0.294099122 -0.78116715 -0.55071193
vn -0.882382452 -0.38161239 -0.275269419
vn -0.490997702 -0.609463692 -0.622475147
vn -0.993068814 -0.0817026868 -0.0844934359
vn -0.997080386 -0.0548093207 -0.0531650111
vn -0.870935261 0.418315262 0.257845223
vn -0.757998765 0.552582502 0.34654057
vn -0.944731891 0.309592545 0.107861347
vn -0.381871462 0.754134953 0.534279585
vn -0.536535442 0.694244921 0.479743272
vn -0.280156732 0.768574655 0.575156689
vn -0.0283064786 0.863360405 0.50379324
vn 0.371586978 0.78580904 0.494395852
vn 0.0596408918 0.822679341 0.565368652
vn -0.432908297 0.746976435 0.504595518
vn 0.273659706 0.774645329 0.570118368
vn -0.310931712 0.800627172 0.51216948
vn 0.263762444 0.827622533 0.495449692
vn -0.058683455 0.923591435 0.378860354
vn -0.815151572 0.513444543 0.268146902
vn -0.843857884 0.536566556 -0.000536025269
vn -0.886350214 0.459051073 -0.0604595169
vn 0.0245237797 0.971617818 0.235281333
vn -0.0323314182 0.997177243 0.0677655637
vn -0.295971155 0.414404869 -0.860621631
vn -0.743697941 -0.393684208 -0.5403018
vn -0.571371317 -0.544890344 -0.613701344
vn -0.96178931 -0.178150907 -0.207902938
vn -0.986741722 0.158891201 0.0330798887
vn 0.0596408918 0.822679341 0.565368652
vn 0.371586978 0.78580904 0.494395852
vn 0.808581531 0.512436628 0.289144695
vn 0.712486207 0.562229335 0.419835269
vn 0.981411397 -0.161051229 -0.104375534
vn 0.957486808 0.262758642 0.119066961
vn 0.990992188 -0.133079842 0.0149812018
vn 0.273659706 0.774645329 0.570118368
vn 0.761806786 -0.572635591 -0.302884191
vn 0.829243064 0.433396131 0.352879196
vn 0.263762444 0.827622533 0.495449692
vn 0.696772158 0.693911791 0.181645274
vn -0.058683455 0.923591435 0.378860354
vn 0.0245237797 0.971617818 0.235281333
vn 0.468020916 -0.738431752 -0.485463709
vn -0.106100649 -0.833764732 -0.541829288
vn -0.225117177 -0.800979435 -0.554755986
vn 0.982827067 0.125230849 0.135529146
vn 0.958414674 -0.247936741 -0.141309932
vn 0.322647005 -0.790258765 -0.520950913
vn -0.294099122 -0.78116715 -0.55071193
vn 0.702861845 -0.610220492 -0.365535438
vn 0.812637806 -0.510743201 -0.280644357
vn 0.982996702 -0.170746997 -0.0675483271
vn 0.994035244 0.0671693683 0.0859192237
vn 0.189906433 -0.803679049 -0.563946426
vn -0.490997702 -0.609463692 -0.622475147
vn 0.837590992 -0.386208177 -0.38637358
vn 0.290956408 -0.68843925 -0.664376259
vn -0.571371317 -0.544890344 -0.613701344
vn -0.743697941 -0.393684208 -0.5403018
vn 0.902632713 -0.216851935 -0.371792167
vn 0.193765566 -0.631183982 -0.751040399
vn -0.295971155 0.414404869 -0.860621631
vn 0.772058606 0.222819448 -0.595211804
vn -0.0323314182 0.997177243 0.0677655637
vn 0.916758001 0.391756326 -0.0779859349
vn -0.17487371 -0.718679547 -0.672992527
vn -0.6735425 -0.559796453 -0.482668072
vn -0.32307452 -0.6979388 -0.639143467
vn -0.421660453 -0.669615984 -0.611405671
vn -0.892699003 -0.347393364 -0.28706485
vn -0.35091722 -0.694079161 -0.628578842
vn -0.547731698 -0.506257892 -0.666102827
vn -0.997237444 -0.0740852058 0.00535864336
vn -0.982323766 -0.171556592 -0.0748888031
vn -0.840610802 0.371022969 0.394607872
vn -0.857307076 0.30637908 0.413710564
vn -0.330596268 0.637502551 0.695914149
vn -0.264386654 0.68633467 0.677528262
vn -0.242453322 0.695157886 0.676736236
vn 0.344516754 0.679691255 0.64755547
vn -0.254297048 0.706202209 0.660765886
vn 0.320937067 0.739124656 0.592194319
vn -0.0575666614 0.850407779 0.522965193
vn -0.781311214 0.465081334 0.416235685
vn -0.978865147 0.150921106 0.13800697
vn -0.981546462 -0.129101977 -0.14106515
vn -0.677026927 0.612411439 0.408150613
vn -0.85037446 0.514375389 0.110821098
vn -0.881707668 0.46274358 0.0919788033
vn -0.62930125 -0.44036296 -0.640359461
vn 0.0568813011 0.921509087 0.384168565
vn -0.792693973 -0.303189009 -0.528878748
vn -0.0139351981 0.973339438 0.228945911
vn -0.364523023 0.546583295 -0.753902972
vn -0.330596268 0.637502551 0.695914149
vn 0.369977415 0.673303366 0.640140116
vn -0.264386654 0.68633467 0.677528262
vn 0.344516754 0.679691255 0.64755547
vn 0.797385991 0.459440321 0.391267449
vn 0.666209817 0.549370885 0.504337311
vn 0.870116234 0.358989894 0.337674469
vn 0.320937067 0.739124656 0.592194319
vn 0.963063896 0.203819603 0.175970495
vn 0.996728301 0.0790221319 0.0169753768
vn 0.860398829 -0.356450886 -0.364220709
vn 0.894163549 -0.301891714 -0.330655426
vn 0.540708959 -0.600308716 -0.589290559
vn 0.267282397 -0.691130459 -0.671489954
vn 0.0444163233 -0.722001195 -0.690464675
vn -0.32307452 -0.6979388 -0.639143467
vn -0.17487371 -0.718679547 -0.672992527
vn -0.421660453 -0.669615984 -0.611405671
vn -0.35091722 -0.694079161 -0.628578842
vn 0.18844609 -0.700411558 -0.688412488
vn -0.547731698 -0.506257892 -0.666102827
vn 0.754171431 -0.463915408 -0.464766532
vn 0.981173635 -0.125683337 -0.146635801
vn 0.979471028 -0.123699285 -0.159169972
vn 0.790581405 -0.322879463 -0.520317078
vn 0.997708917 0.0650868118 0.0184575114
vn 0.88263464 0.45319593 0.12477766
vn 0.223504618 -0.572458923 -0.78888309
vn -0.62930125 -0.44036296 -0.640359461
vn -0.792693973 -0.303189009 -0.528878748
vn 0.863536954 -0.152407065 -0.480703592
vn 0.11987374 -0.502200902 -0.856402159
vn -0.364523023 0.546583295 -0.753902972
vn 0.720068872 0.316728264 -0.617401063
vn 0.418293476 0.794356823 0.440485954
vn -0.0575666614 0.850407779 0.522965193
vn 0.0568813011 0.921509087 0.384168565
vn 0.789301574 0.608273327 0.0837055072
vn -0.0139351981 0.973339438 0.228945911
vn -0.364523023 0.546583295 -0.753902972
vn -0.93608588 -0.143628955 -0.321113557
vn -0.93608588 -0.143628955 -0.321113557
vn -0.93608588 -0.143628955 -0.321113557
vn -0.93608588 -0.143628955 -0.321113557
vn 0.894616783 -0.396680802 -0.205682054
vn 0.699552476 -0.569915652 -0.431071341
vn 0.99102062 -0.119968235 -0.0590402931
vn -0.0157755055 -0.79321456 -0.608737886
vn 0.896374226 -0.177610099 -0.406162351
vn 0.316252738 -0.684700787 -0.656634748
vn 0.215433329 -0.586414039 -0.780837417
vn 0.517608821 -0.413556248 -0.749034286
vn -0.455955416 -0.46937266 -0.756170571
vn -0.258833915 0.551701307 -0.792862356
vn -0.692603171 -0.338885248 -0.636755586
vn -0.943868637 0.322349221 0.0721323192
vn -0.462289661 -0.543689847 -0.700492382
vn -0.131176636 -0.690241158 -0.711589634
vn -0.617942154 -0.527264059 -0.583215356
vn -0.446498245 -0.640587449 -0.624729574
vn -0.870055497 -0.355533391 -0.341466546
vn -0.908039927 0.312627345 0.278796881
vn -0.968555152 0.208629817 0.135552555
vn -0.953626394 -0.13857761 -0.26719451
vn -0.00148620235 -0.754891753 -0.655847669
vn -0.502116442 -0.631921113 -0.590385258
vn -0.637764573 -0.506862044 -0.579954505
vt 0.648028553 0.732642651
vt 0.648028553 1.01898789
vt 0.672987103 1.01898754
vt 0.672980487 0.73264271
vt 0.457324266 0.508333385
vt 0.648028493 0.575755179
vt 0.672980487 0.576043963
vt 0.478912771 0.634417951
vt 0.457324445 0.723408282
vt 0.47891286 0.723408461
vt 0.457324296 0.231012374
vt 0.457324296 0.51735723
vt 0.676331758 0.51735729
vt 0.676331878 0.231012449
vt 0.457324266 0.24166657
vt 0.672980547 0.173956126
vt 0.648028553 0.174244806
vt 0.457324058 0.0265917461
vt 0.478912592 0.115582131
vt 0.478912532 0.0265918057
vt 0.475074619 0.732642651
vt 0.475074619 1.01898754
vt 0.652193487 1.01898789
vt 0.652193487 0.732642651
vt 0.371645063 0.732642472
vt 0.371645093 1.01898718
vt 0.386908859 1.01898742
vt 0.38690877 0.73264271
vt 0.475074619 0.732642651
vt 0.387773842 0.732642531
vt 0.387773871 1.0189873
vt 0.475074619 1.01898754
vt 0.684519291 3.84117818
vt 0.75 0.5
vt 0.625 0.5
vt 0.574137628 3.841115
vt 0.583258331 3.84108496
vt 0.625 0.5
vt 0.5 0.5
vt 0.493550658 3.84102273
vt 0.506449342 3.84102273
vt 0.5 0.5
vt 0.375 0.5
vt 0.416741312 3.84108472
vt 0.425861955 3.84111667
vt 0.375 0.5
vt 0.25 0.5
vt 0.315480798 3.84117842
vt 0.315480679 3.84117937
vt 0.25 0.5
vt 0.125 0.5
vt 0.175862104 3.84111667
vt 0.166741446 3.84108472
vt 0.125 0.5
vt 0 0.5
vt 0.00644929335 3.84102273
vt 0.714657187 3.67175794
vt 0.882781446 0.531993985
vt 0.79418385 0.529382586
vt 0.802833319 3.67099261
vt 0.080294393 0.320644677
vt 0.24999994 0.390939027
vt 0.4197056 0.320644617
vt 0.0100000054 0.150939032
vt 0.48999989 0.150939003
vt 0.0802943856 -0.0187666081
vt 0.419705689 -0.0187666081
vt 0.24999994 -0.0890609771
vt 0.993550897 3.84102297
vt 1 0.5
vt 0.875 0.5
vt 0.833258331 3.84108543
vt 0.827303171 3.23238349
vt 0.752762258 0.499638051
vt 0.634634554 0.498793274
vt 0.685044944 3.22982931
vt 0.67427814 3.22856545
vt 0.639187157 0.498709559
vt 0.515741289 0.499092519
vt 0.507613778 3.22601604
vt 0.492386371 3.22601604
vt 0.517947793 0.499355614
vt 0.386980772 0.50008291
vt 0.325722307 3.22856379
vt 0.314954817 3.22983217
vt 0.38684091 0.500214934
vt 0.250555813 0.500208497
vt 0.17269741 3.23237967
vt 0.172697276 3.23237848
vt 0.249444142 0.50013113
vt 0.113159083 0.50004822
vt 0.0649550781 3.22983193
vt 0.0757223815 3.22856522
vt 0.113019221 0.50013274
vt -0.0179476831 0.500677705
vt -0.0076136631 3.22601557
vt 0.82413733 3.84111547
vt 0.875 0.5
vt 0.75 0.5
vt 0.684519053 3.84117818
vt 0.0802943558 0.536651015
vt 0.25000003 0.606945992
vt 0.41970554 0.536651373
vt 0.0100000305 0.366945833
vt 0.49000001 0.366945744
vt 0.0802943781 0.197240159
vt 0.4197056 0.197240159
vt 0.24999997 0.126945749
vt 1.0076139 3.22601581
vt 0.984258771 0.500874281
vt 0.860812843 0.501074731
vt 0.924277425 3.22856355
vt 0.87354672 3.66740251
vt 0.806397319 0.527100384
vt 0.695345044 0.520386159
vt 0.922339678 3.65382743
vt 0.960067928 3.6506846
vt 0.697622836 0.519314945
vt 0.554653049 0.521768451
vt 0.867678106 3.65198898
vt 0.850305796 3.65609813
vt 0.546953261 0.524086654
vt 0.381299824 0.531057239
vt 0.597628236 3.67239237
vt 0.535343587 3.67650723
vt 0.369424969 0.532233775
vt 0.203609854 0.530204535
vt 0.197168395 3.67723656
vt 0.126454949 3.6736939
vt 0.195808977 0.528066039
vt 0.052448526 0.521541774
vt -0.172342837 3.6588347
vt -0.210062608 3.65485477
vt 0.0545834973 0.520442128
vt -0.0568594337 0.52255857
vt -0.367676109 3.65285492
vt 0.623385191 0.553119361
vt 0.793090522 0.623413861
vt 0.96279645 0.553119481
vt 0.553090632 0.383413821
vt 1.03309083 0.383413821
vt 0.623385072 0.213708222
vt 0.96279639 0.213708133
vt 0.793090701 0.143413797
vt 0.64969331 3.65573025
vt 0.955253363 0.524698555
vt 0.866493821 0.531036794
vt 0.652373195 3.66857386
vt 0.741466761 0.17459327
vt 0.741466761 0.178392351
vt 0.761365473 0.188130453
vt 0.761365473 0.182641655
vt 0.741466761 0.306994319
vt 0.741466701 0.450677991
vt 0.761365473 0.450677991
vt 0.761365473 0.306994319
vt 0.741466761 0.571607649
vt 0.741466761 0.57540673
vt 0.761365533 0.567358255
vt 0.761365533 0.561869502
vt 0.741686463 0.799322069
vt 0.741686344 0.943005681
vt 0.761365473 0.943005681
vt 0.761365533 0.799322009
vt 0.181994319 0.571607649
vt 0.181994334 0.57540673
vt 0.325677991 0.57540673
vt 0.325677991 0.571607649
vt 0.674322009 0.561869502
vt 0.674322009 0.567358255
vt 0.818005681 0.567358255
vt 0.818005681 0.561869502
vt 0 0
vt 0 0
vt 0 0
vt 0 0
vt 0 0
vt 0 0
vt 0 0
vt 0 0
vt 0 0
vt 0 0
vt 0 0
vt 0 0
vt 0 0
vt 0 0
vt 0 0
vt 0 0
vt 0 0
vt 0 0
vt 0 0
vt 0 0
vt 0 0
vt 0 0
vt 0 0
vt 0 0
vt 0 0
vt 0 0
vt 0 0
vt 0 0
vt 0 0
vt 0 0
vt 0 0
vt 0 0
vt 0 0
vt 0 0
vt 0 0
vt 0 0
vt 0 0
vt 0 0
vt 0 0
vt 0 0
vt 0 0
vt 0 0
vt 0 0
vt 0 0
vt 0 0
vt 0 0
vt 0 0
vt 0 0
vt 0 0
vt 0 0
vt 0 0
vt 0 0
vt 0 0
vt 0 0
vt 0 0
vt 0 0
vt 0 0
vt 0 0
vt 0 0
vt 0 0
vt 0 0
vt 0 0
vt 0 0
vt 0 0
vt 0 0
vt 0 0
vt 0 0
vt 0 0
vt 0 0
vt 0 0
vt 0 0
vt 0 0
vt 0 0
vt 0 0
vt 0 0
vt 0 0
vt 0 0
vt 0 0
vt 0 0
vt 0 0
vt 0 0
vt 0 0
vt 0 0
vt 0 0
vt 0 0
vt 0 0
vt 0 0
vt 0 0
vt 0 0
vt 0 0
vt 0 0
vt 0 0
vt 0 0
vt 0 0
vt 0 0
vt 0 0
vt 0 0
vt 0 0
vt 0 0
vt 0 0
vt 0 0
vt 0 0
vt 0 0
vt 0 0
vt 0 0
vt 0 0
vt 0 0
vt 0 0
vt 0 0
vt 0 0
vt 0 0
vt 0 0
vt 0 0
vt 0 0
vt 0 0
vt 0 0
vt 0 0
vt 0 0
vt 0 0
vt 0 0
vt 0 0
vt 0 0
vt 0 0
vt 0 0
vt 0 0
vt 0 0
vt 0 0
vt 0 0
vt 0 0
vt 0 0
vt 0 0
vt 0 0
vt 0 0
vt 0 0
vt 0 0
vt 0 0
vt 0 0
vt 0 0
vt 0 0
vt 0 0
vt 0 0
vt 0 0
vt 0 0
vt 0 0
vt 0 0
vt 0 0
vt 0 0
vt 0 0
vt 0 0
vt 0 0
vt 0 0
vt 0 0
vt 0 0
vt 0 0
vt 0 0
vt 0 0
vt 0 0
vt 0 0
vt 0 0
vt 0 0
vt 0 0
vt 0 0
vt 0 0
vt 0 0
vt 0 0
vt 0 0
vt 0 0
vt 0 0
vt 0 0
vt 0 0
vt 0 0
vt 0 0
vt 0 0
vt 0 0
vt 0 0
vt 0 0
vt 0 0
vt 0 0
vt 0 0
vt 0 0
vt 0 0
vt 0 0
vt 0 0
vt 0 0
vt 0 0
vt 0 0
vt 0 0
vt 0 0
vt 0 0
vt 0 0
vt 0 0
vt 0 0
vt 0 0
vt 0 0
vt 0 0
vt 0 0
vt 0 0
vt 0 0
vt 0 0
vt 0 0
vt 0 0
vt 0 0
vt 0 0
vt 0 0
vt 0 0
vt 0 0
vt 0 0
vt 0 0
vt 0 0
vt 0 0
vt 0 0
vt 0 0
vt 0 0
vt 0 0
vt 0 0
vt 0 0
vt 0 0
vt 0 0
vt 0 0
vt 0 0
vt 0 0
vt 0 0
vt 0 0
vt 0 0
vt 0 0
vt 0 0
vt 0 0
vt 0 0
vt 0 0
vt 0 0
vt 0 0
vt 0 0
vt 0 0
vt 0 0
vt 0 0
vt 0 0
vt 0 0
vt 0 0
vt 0 0
vt 0 0
vt 0 0
vt 0 0
vt 0 0
vt 0 0
vt 0 0
vt 0 0
vt 0 0
vt 0 0
vt 0 0
vt 0 0
vt 0 0
vt 0 0
vt 0 0
vt 0 0
vt 0 0
vt 0 0
vt 0 0
vt 0 0
vt 0 0
vt 0 0
vt 0 0
vt 0 0
vt 0 0
vt 0 0
vt 0 0
vt 0 0
vt 0.935044765 3.22983027
vt 0.865365446 0.500943601
vt 0.747237742 0.500022411
vt 0.827303171 3.23238373
vt 0 0
vt 0 0
vt 0 0
vt 0 0
vt 0 0
vt 0 0
vt 0 0
vt 0 0
vt 0 0
vt 0 0
vt 0 0
vt 0 0
vt 0 0
vt 0 0
vt 0 0
vt 0 0
vt 0 0
vt 0 0
vt 0 0
vt 0 0
vt 0 0
vt 0 0
vt 0 0
g submesh0
f 1/1/1 2/2/2 3/3/3
f 1/1/1 3/3/3 4/4/4
f 5/5/5 6/6/6 7/7/7
f 5/5/5 8/8/8 6/6/6
f 5/5/5 9/9/9 8/8/8
f 9/9/9 10/10/10 8/8/8
f 11/11/11 12/12/12 13/13/13
f 11/11/11 13/13/13 14/14/14
f 15/15/15 16/16/16 17/17/17
f 17/17/17 18/18/18 15/15/15
f 17/17/17 19/19/19 18/18/18
f 19/19/19 20/20/20 18/18/18
f 21/21/21 22/22/22 23/23/23
f 21/21/21 23/23/23 24/24/24
f 25/25/25 26/26/26 27/27/27
f 25/25/25 27/27/27 28/28/28
f 29/29/29 30/30/30 31/31/31
f 29/29/29 31/31/31 32/32/32
f 33/33/33 34/34/34 35/35/35
f 33/33/33 35/35/35 36/36/36
f 37/37/37 38/38/38 39/39/39
f 37/37/37 39/39/39 40/40/40
f 41/41/41 42/42/42 43/43/43
f 41/41/41 43/43/43 44/44/44
f 45/45/45 46/46/46 47/47/47
f 45/45/45 47/47/47 48/48/48
f 49/49/49 50/50/50 51/51/51
f 49/49/49 51/51/51 52/52/52
f 53/53/53 54/54/54 55/55/55
f 53/53/53 55/55/55 56/56/56
f 57/57/57 58/58/58 59/59/59
f 57/57/57 59/59/59 60/60/60
f 61/61/61 62/62/62 63/63/63
f 63/63/63 64/64/64 61/61/61
f 63/63/63 65/65/65 64/64/64
f 65/65/65 66/66/66 64/64/64
f 65/65/65 67/67/67 66/66/66
f 67/67/67 68/68/68 66/66/66
f 69/69/69 70/70/70 71/71/71
f 69/69/69 71/71/71 72/72/72
f 73/73/73 74/74/74 75/75/75
f 73/73/73 75/75/75 76/76/76
f 77/77/77 78/78/78 79/79/79
f 77/77/77 79/79/79 80/80/80
f 81/81/81 82/82/82 83/83/83
f 81/81/81 83/83/83 84/84/84
f 85/85/85 86/86/86 87/87/87
f 85/85/85 87/87/87 88/88/88
f 89/89/89 90/90/90 91/91/91
f 89/89/89 91/91/91 92/92/92
f 93/93/93 94/94/94 95/95/95
f 93/93/93 95/95/95 96/96/96
f 97/97/97 98/98/98 99/99/99
f 97/97/97 99/99/99 100/100/100
f 101/101/101 102/102/102 103/103/103
f 103/103/103 104/104/104 101/101/101
f 103/103/103 105/105/105 104/104/104
f 105/105/105 106/106/106 104/104/104
f 105/105/105 107/107/107 106/106/106
f 107/107/107 108/108/108 106/106/106
f 109/109/109 110/110/110 111/111/111
f 109/109/109 111/111/111 112/112/112
f 113/113/113 114/114/114 115/115/115
f 113/113/113 115/115/115 116/116/116
f 117/117/117 118/118/118 119/119/119
f 117/117/117 119/119/119 120/120/120
f 121/121/121 122/122/122 123/123/123
f 121/121/121 123/123/123 124/124/124
f 125/125/125 126/126/126 127/127/127
f 125/125/125 127/127/127 128/128/128
f 129/129/129 130/130/130 131/131/131
f 129/129/129 131/131/131 132/132/132
f 133/133/133 134/134/134 135/135/135
f 133/133/133 135/135/135 136/136/136
f 137/137/137 138/138/138 139/139/139
f 139/139/139 140/140/140 137/137/137
f 139/139/139 141/141/141 140/140/140
f 141/141/141 142/142/142 140/140/140
f 141/141/141 143/143/143 142/142/142
f 143/143/143 144/144/144 142/142/142
f 145/145/145 146/146/146 147/147/147
f 145/145/145 147/147/147 148/148/148
f 149/149/149 150/150/150 151/151/151
f 149/149/149 151/151/151 152/152/152
f 153/153/153 154/154/154 155/155/155
f 153/153/153 155/155/155 156/156/156
f 157/157/157 158/158/158 159/159/159
f 157/157/157 159/159/159 160/160/160
f 161/161/161 162/162/162 163/163/163
f 161/161/161 163/163/163 164/164/164
f 165/165/165 166/166/166 167/167/167
f 165/165/165 167/167/167 168/168/168
f 169/169/169 170/170/170 171/171/171
f 169/169/169 171/171/171 172/172/172
f 173/173/173 174/174/174 175/175/175
f 175/175/175 174/174/174 176/176/176
f 175/175/175 176/176/176 177/177/177
f 177/177/177 176/176/176 178/178/178
f 178/178/178 176/176/176 179/179/179
f 178/178/178 179/179/179 180/180/180
f 181/181/181 178/178/178 180/180/180
f 182/182/182 178/178/178 181/181/181
f 177/177/177 183/183/183 175/175/175
f 175/175/175 183/183/183 184/184/184
f 185/185/185 184/184/184 183/183/183
f 185/185/185 183/183/183 186/186/186
f 177/177/177 186/186/186 183/183/183
f 177/177/177 187/187/187 186/186/186
f 188/188/188 186/186/186 187/187/187
f 188/188/188 187/187/187 189/189/189
f 190/190/190 187/187/187 177/177/177
f 178/178/178 190/190/190 177/177/177
f 191/191/191 178/178/178 182/182/182
f 192/192/192 191/191/191 182/182/182
f 192/192/192 189/189/189 191/191/191
f 189/189/189 187/187/187 193/193/193
f 190/190/190 193/193/193 187/187/187
f 191/191/191 189/189/189 193/193/193
f 191/191/191 194/194/194 178/178/178
f 178/178/178 194/194/194 190/190/190
f 193/193/193 194/194/194 191/191/191
f 190/190/190 194/194/194 193/193/193
f 195/195/195 196/196/196 197/197/197
f 198/198/198 196/196/196 195/195/195
f 199/199/199 198/198/198 195/195/195
f 200/200/200 196/196/196 198/198/198
f 201/201/201 198/198/198 199/199/199
f 200/200/200 198/198/198 202/202/202
f 198/198/198 201/201/201 202/202/202
f 202/202/202 203/203/203 200/200/200
f 202/202/202 204/204/204 203/203/203
f 200/200/200 203/203/203 205/205/205
f 203/203/203 204/204/204 205/205/205
f 206/206/206 200/200/200 205/205/205
f 207/207/207 206/206/206 205/205/205
f 204/204/204 207/207/207 205/205/205
f 208/208/208 207/207/207 204/204/204
f 209/209/209 207/207/207 208/208/208
f 209/209/209 208/208/208 210/210/210
f 210/210/210 208/208/208 204/204/204
f 211/211/211 210/210/210 204/204/204
f 211/211/211 212/212/212 210/210/210
f 202/202/202 213/213/213 204/204/204
f 213/213/213 211/211/211 204/204/204
f 214/214/214 212/212/212 211/211/211
f 213/213/213 214/214/214 211/211/211
f 212/212/212 214/214/214 215/215/215
f 215/215/215 214/214/214 216/216/216
f 216/216/216 214/214/214 213/213/213
f 202/202/202 217/217/217 213/213/213
f 202/202/202 201/201/201 217/217/217
f 216/216/216 213/213/213 218/218/218
f 213/213/213 217/217/217 218/218/218
f 218/218/218 217/217/217 201/201/201
f 219/219/219 216/216/216 218/218/218
f 218/218/218 201/201/201 219/219/219
f 220/220/220 221/221/221 222/222/222
f 221/221/221 220/220/220 223/223/223
f 224/224/224 221/221/221 223/223/223
f 225/225/225 221/221/221 224/224/224
f 226/226/226 225/225/225 224/224/224
f 224/224/224 227/227/227 226/226/226
f 224/224/224 223/223/223 227/227/227
f 228/228/228 226/226/226 227/227/227
f 227/227/227 229/229/229 228/228/228
f 229/229/229 230/230/230 228/228/228
f 229/229/229 231/231/231 230/230/230
f 231/231/231 229/229/229 227/227/227
f 231/231/231 232/232/232 230/230/230
f 227/227/227 223/223/223 233/233/233
f 233/233/233 231/231/231 227/227/227
f 232/232/232 231/231/231 234/234/234
f 234/234/234 235/235/235 232/232/232
f 236/236/236 231/231/231 233/233/233
f 236/236/236 234/234/234 231/231/231
f 235/235/235 234/234/234 237/237/237
f 237/237/237 234/234/234 236/236/236
f 237/237/237 238/238/238 235/235/235
f 237/237/237 236/236/236 238/238/238
f 239/239/239 236/236/236 233/233/233
f 239/239/239 233/233/233 223/223/223
f 238/238/238 236/236/236 239/239/239
f 240/240/240 239/239/239 223/223/223
f 223/223/223 220/220/220 240/240/240
f 239/239/239 241/241/241 238/238/238
f 240/240/240 241/241/241 239/239/239
f 238/238/238 241/241/241 242/242/242
f 242/242/242 241/241/241 243/243/243
f 243/243/243 241/241/241 240/240/240
f 242/242/242 243/243/243 244/244/244
f 243/243/243 245/245/245 244/244/244
f 245/245/245 243/243/243 246/246/246
f 240/240/240 220/220/220 247/247/247
f 247/247/247 243/243/243 240/240/240
f 247/247/247 246/246/246 243/243/243
f 247/247/247 220/220/220 248/248/248
f 246/246/246 247/247/247 248/248/248
f 249/249/249 250/250/250 251/251/251
f 249/249/249 252/252/252 250/250/250
f 249/249/249 253/253/253 252/252/252
f 252/252/252 253/253/253 254/254/254
f 253/253/253 255/255/255 254/254/254
f 254/254/254 256/256/256 252/252/252
f 257/257/257 252/252/252 256/256/256
f 256/256/256 258/258/258 257/257/257
f 258/258/258 259/259/259 257/257/257
f 259/259/259 258/258/258 260/260/260
f 260/260/260 258/258/258 261/261/261
f 261/261/261 258/258/258 256/256/256
f 254/254/254 262/262/262 256/256/256
f 261/261/261 256/256/256 262/262/262
f 254/254/254 255/255/255 263/263/263
f 254/254/254 263/263/263 262/262/262
f 263/263/263 255/255/255 264/264/264
f 262/262/262 263/263/263 264/264/264
f 255/255/255 265/265/265 264/264/264
f 261/261/261 262/262/262 266/266/266
f 266/266/266 267/267/267 261/261/261
f 268/268/268 262/262/262 264/264/264
f 268/268/268 266/266/266 262/262/262
f 268/268/268 264/264/264 269/269/269
f 268/268/268 269/269/269 266/266/266
f 269/269/269 267/267/267 266/266/266
f 264/264/264 265/265/265 269/269/269
f 270/270/270 267/267/267 269/269/269
f 270/270/270 271/271/271 267/267/267
f 269/269/269 265/265/265 272/272/272
f 272/272/272 270/270/270 269/269/269
f 270/270/270 273/273/273 271/271/271
f 273/273/273 270/270/270 272/272/272
f 272/272/272 265/265/265 273/273/273
f 274/274/274 271/271/271 273/273/273
f 273/273/273 265/265/265 274/274/274
f 275/275/275 276/276/276 277/277/277
f 277/277/277 276/276/276 278/278/278
f 278/278/278 276/276/276 279/279/279
f 279/279/279 276/276/276 280/280/280
f 280/280/280 281/281/281 279/279/279
f 279/279/279 282/282/282 278/278/278
f 281/281/281 282/282/282 279/279/279
f 277/277/277 278/278/278 283/283/283
f 282/282/282 283/283/283 278/278/278
f 284/284/284 281/281/281 280/280/280
f 285/285/285 284/284/284 280/280/280
f 284/284/284 285/285/285 286/286/286
f 286/286/286 281/281/281 284/284/284
f 286/286/286 285/285/285 287/287/287
f 287/287/287 281/281/281 286/286/286
f 288/288/288 281/281/281 287/287/287
f 288/288/288 289/289/289 281/281/281
f 281/281/281 289/289/289 282/282/282
f 290/290/290 289/289/289 288/288/288
f 291/291/291 283/283/283 282/282/282
f 277/277/277 283/283/283 291/291/291
f 289/289/289 292/292/292 282/282/282
f 292/292/292 289/289/289 290/290/290
f 282/282/282 292/292/292 291/291/291
f 291/291/291 293/293/293 277/277/277
f 292/292/292 293/293/293 291/291/291
f 277/277/277 293/293/293 294/294/294
f 293/293/293 292/292/292 294/294/294
f 277/277/277 294/294/294 295/295/295
f 296/296/296 292/292/292 290/290/290
f 294/294/294 292/292/292 296/296/296
f 290/290/290 297/297/297 296/296/296
f 294/294/294 298/298/298 295/295/295
f 295/295/295 298/298/298 299/299/299
f 299/299/299 298/298/298 297/297/297
f 294/294/294 296/296/296 300/300/300
f 300/300/300 298/298/298 294/294/294
f 297/297/297 298/298/298 300/300/300
f 297/297/297 300/300/300 296/296/296
f 301/301/301 302/302/302 303/303/303
f 302/302/302 304/304/304 303/303/303
f 305/305/305 304/304/304 302/302/302
f 305/305/305 306/306/306 304/304/304
f 305/305/305 302/302/302 307/307/307
f 302/302/302 308/308/308 307/307/307
f 308/308/308 309/309/309 307/307/307
f 310/310/310 307/307/307 309/309/309
f 307/307/307 311/311/311 305/305/305
f 307/307/307 310/310/310 311/311/311
f 312/312/312 310/310/310 309/309/309
f 309/309/309 313/313/313 312/312/312
f 314/314/314 312/312/312 313/313/313
f 314/314/314 315/315/315 312/312/312
f 316/316/316 312/312/312 315/315/315
f 312/312/312 316/316/316 317/317/317
f 317/317/317 310/310/310 312/312/312
f 318/318/318 310/310/310 317/317/317
f 318/318/318 311/311/311 310/310/310
f 317/317/317 319/319/319 318/318/318
f 318/318/318 319/319/319 320/320/320
f 319/319/319 321/321/321 320/320/320
f 322/322/322 320/320/320 321/321/321
f 323/323/323 311/311/311 318/318/318
f 320/320/320 323/323/323 318/318/318
f 324/324/324 320/320/320 322/322/322
f 324/324/324 323/323/323 320/320/320
f 324/324/324 322/322/322 325/325/325
f 322/322/322 326/326/326 325/325/325
f 325/325/325 326/326/326 327/327/327
f 325/325/325 327/327/327 328/328/328
f 325/325/325 328/328/328 329/329/329
f 325/325/325 329/329/329 330/330/330
f 325/325/325 330/330/330 306/306/306
f 324/324/324 325/325/325 306/306/306
f 324/324/324 306/306/306 331/331/331
f 331/331/331 323/323/323 324/324/324
f 331/331/331 306/306/306 305/305/305
f 311/311/311 323/323/323 332/332/332
f 331/331/331 332/332/332 323/323/323
f 305/305/305 332/332/332 331/331/331
f 305/305/305 311/311/311 332/332/332
f 333/333/333 334/334/334 335/335/335
f 335/335/335 336/336/336 333/333/333
f 337/337/337 336/336/336 335/335/335
f 335/335/335 338/338/338 337/337/337
f 337/337/337 338/338/338 339/339/339
f 333/333/333 336/336/336 340/340/340
f 341/341/341 337/337/337 339/339/339
f 342/342/342 340/340/340 336/336/336
f 342/342/342 343/343/343 340/340/340
f 344/344/344 343/343/343 342/342/342
f 344/344/344 345/345/345 343/343/343
f 346/346/346 345/345/345 344/344/344
f 337/337/337 341/341/341 347/347/347
f 348/348/348 347/347/347 341/341/341
f 349/349/349 347/347/347 348/348/348
f 337/337/337 350/350/350 336/336/336
f 342/342/342 336/336/336 350/350/350
f 337/337/337 351/351/351 350/350/350
f 351/351/351 337/337/337 347/347/347
f 349/349/349 352/352/352 347/347/347
f 353/353/353 352/352/352 349/349/349
f 354/354/354 352/352/352 353/353/353
f 352/352/352 355/355/355 347/347/347
f 351/351/351 347/347/347 355/355/355
f 352/352/352 354/354/354 355/355/355
f 354/354/354 351/351/351 355/355/355
f 350/350/350 351/351/351 356/356/356
f 356/356/356 342/342/342 350/350/350
f 356/356/356 351/351/351 354/354/354
f 357/357/357 342/342/342 356/356/356
f 342/342/342 357/357/357 344/344/344
f 354/354/354 357/357/357 356/356/356
f 358/358/358 354/354/354 353/353/353
f 358/358/358 353/353/353 359/359/359
f 360/360/360 357/357/357 354/354/354
f 354/354/354 358/358/358 360/360/360
f 359/359/359 360/360/360 358/358/358
f 360/360/360 344/344/344 357/357/357
f 361/361/361 360/360/360 359/359/359
f 359/359/359 362/362/362 361/361/361
f 362/362/362 363/363/363 361/361/361
f 360/360/360 364/364/364 344/344/344
f 364/364/364 360/360/360 361/361/361
f 361/361/361 363/363/363 365/365/365
f 365/365/365 364/364/364 361/361/361
f 363/363/363 366/366/366 365/365/365
f 367/367/367 365/365/365 366/366/366
f 364/364/364 365/365/365 367/367/367
f 366/366/366 368/368/368 367/367/367
f 346/346/346 367/367/367 368/368/368
f 369/369/369 344/344/344 364/364/364
f 346/346/346 344/344/344 369/369/369
f 364/364/364 367/367/367 369/369/369
f 369/369/369 367/367/367 346/346/346
f 370/370/370 371/371/371 372/372/372
f 371/371/371 373/373/373 372/372/372
f 374/374/374 373/373/373 371/371/371
f 374/374/374 375/375/375 373/373/373
f 374/374/374 376/376/376 375/375/375
f 374/374/374 371/371/371 377/377/377
f 377/377/377 371/371/371 378/378/378
f 378/378/378 379/379/379 377/377/377
f 377/377/377 379/379/379 374/374/374
f 378/378/378 380/380/380 379/379/379
f 381/381/381 379/379/379 380/380/380
f 381/381/381 382/382/382 379/379/379
f 383/383/383 379/379/379 382/382/382
f 383/383/383 382/382/382 384/384/384
f 383/383/383 384/384/384 385/385/385
f 384/384/384 386/386/386 385/385/385
f 387/387/387 385/385/385 386/386/386
f 388/388/388 379/379/379 383/383/383
f 385/385/385 388/388/388 383/383/383
f 374/374/374 379/379/379 389/389/389
f 379/379/379 388/388/388 389/389/389
f 374/374/374 389/389/389 390/390/390
f 390/390/390 389/389/389 388/388/388
f 390/390/390 376/376/376 374/374/374
f 391/391/391 388/388/388 385/385/385
f 390/390/390 388/388/388 391/391/391
f 391/391/391 385/385/385 387/387/387
f 392/392/392 390/390/390 391/391/391
f 392/392/392 376/376/376 390/390/390
f 391/391/391 387/387/387 392/392/392
f 392/392/392 393/393/393 376/376/376
f 392/392/392 387/387/387 393/393/393
f 393/393/393 394/394/394 376/376/376
f 387/387/387 395/395/395 393/393/393
f 393/393/393 396/396/396 394/394/394
f 393/393/393 395/395/395 397/397/397
f 393/393/393 398/398/398 396/396/396
f 393/393/393 397/397/397 398/398/398
f 399/399/399 400/400/400 401/401/401
f 400/400/400 402/402/402 401/401/401
f 403/403/403 402/402/402 400/400/400
f 403/403/403 404/404/404 402/402/402
f 405/405/405 402/402/402 404/404/404
f 405/405/405 406/406/406 402/402/402
f 407/407/407 404/404/404 403/403/403
f 405/405/405 404/404/404 407/407/407
f 408/408/408 407/407/407 403/403/403
f 408/408/408 409/409/409 407/407/407
f 408/408/408 410/410/410 409/409/409
f 409/409/409 410/410/410 411/411/411
f 411/411/411 412/412/412 409/409/409
f 413/413/413 412/412/412 411/411/411
f 414/414/414 412/412/412 413/413/413
f 413/413/413 415/415/415 414/414/414
f 416/416/416 412/412/412 414/414/414
f 417/417/417 412/412/412 416/416/416
f 418/418/418 412/412/412 417/417/417
f 418/418/418 417/417/417 419/419/419
f 412/412/412 418/418/418 420/420/420
f 409/409/409 412/412/412 420/420/420
f 421/421/421 407/407/407 409/409/409
f 405/405/405 407/407/407 421/421/421
f 409/409/409 422/422/422 421/421/421
f 409/409/409 420/420/420 422/422/422
f 422/422/422 405/405/405 421/421/421
f 419/419/419 423/423/423 418/418/418
f 420/420/420 418/418/418 423/423/423
f 420/420/420 424/424/424 422/422/422
f 424/424/424 405/405/405 422/422/422
f 423/423/423 424/424/424 420/420/420
f 405/405/405 424/424/424 425/425/425
f 423/423/423 425/425/425 424/424/424
f 425/425/425 406/406/406 405/405/405
f 426/426/426 423/423/423 419/419/419
f 419/419/419 427/427/427 426/426/426
f 427/427/427 428/428/428 426/426/426
f 429/429/429 423/423/423 426/426/426
f 423/423/423 429/429/429 425/425/425
f 426/426/426 428/428/428 430/430/430
f 430/430/430 429/429/429 426/426/426
f 428/428/428 431/431/431 430/430/430
f 432/432/432 430/430/430 431/431/431
f 429/429/429 430/430/430 432/432/432
f 433/433/433 406/406/406 425/425/425
f 433/433/433 434/434/434 406/406/406
f 435/435/435 434/434/434 433/433/433
f 436/436/436 425/425/425 429/429/429
f 436/436/436 433/433/433 425/425/425
f 435/435/435 433/433/433 436/436/436
f 429/429/429 432/432/432 436/436/436
f 436/436/436 432/432/432 435/435/435
f 435/435/435 432/432/432 437/437/437
f 438/438/438 437/437/437 432/432/432
f 439/439/439 440/440/440 441/441/441
f 439/439/439 441/441/441 442/442/442
f 443/443/443 444/444/444 445/445/445
f 444/444/444 443/443/443 446/446/446
f 445/445/445 444/444/444 447/447/447
f 444/444/444 448/448/448 447/447/447
f 444/444/444 446/446/446 448/448/448
f 449/449/449 447/447/447 448/448/448
f 450/450/450 447/447/447 449/449/449
f 449/449/449 451/451/451 450/450/450
f 452/452/452 450/450/450 451/451/451
f 452/452/452 451/451/451 453/453/453
f 453/453/453 454/454/454 452/452/452
f 451/451/451 454/454/454 453/453/453
f 451/451/451 449/449/449 455/455/455
f 455/455/455 454/454/454 451/451/451
f 449/449/449 456/456/456 455/455/455
f 449/449/449 448/448/448 456/456/456
f 457/457/457 454/454/454 455/455/455
f 456/456/456 457/457/457 455/455/455
f 456/456/456 448/448/448 458/458/458
f 458/458/458 457/457/457 456/456/456
f 459/459/459 454/454/454 457/457/457
f 459/459/459 457/457/457 458/458/458
f 454/454/454 459/459/459 460/460/460
f 460/460/460 459/459/459 461/461/461
f 462/462/462 461/461/461 459/459/459
f 459/459/459 458/458/458 462/462/462
f 448/448/448 463/463/463 458/458/458
f 463/463/463 448/448/448 446/446/446
f 462/462/462 458/458/458 464/464/464
f 458/458/458 463/463/463 464/464/464
f 464/464/464 463/463/463 446/446/446
f 462/462/462 464/464/464 465/465/465
f 464/464/464 446/446/446 465/465/465
