# battering_ram_rear_door_LOD3
v 1.211465 -0.0898837075 -0.0425039195
v 1.30790687 -0.0898837 -0.0600893684
v 1.3079071 -0.0898837224 0.0447934382
v -1.31101799 -0.0898836181 -0.0600893684
v -1.21457613 -0.0898837075 -0.0425039195
v -1.31101799 -0.0898837224 0.0433054008
v 1.30790663 1.9257617 -0.127605915
v 1.21146476 1.9257617 -0.042503383
v 1.30790651 1.9257617 0.0447939709
v -1.21457613 1.92576182 -0.042503383
v -1.31101835 1.92576194 -0.127605915
v -1.31101835 1.92576182 0.0433059335
v 1.21146512 0.0648623779 -0.0425038822
v -1.31101799 0.0648624822 -0.127606407
v 1.30790687 0.0648624003 -0.127606407
v -1.21457613 0.0648623779 -0.0425038822
v 1.30790663 1.85117483 -0.12760593
v -1.21457613 1.85117507 -0.0425034054
v 1.21146476 1.85117483 -0.0425034054
v -1.31101835 1.85117519 -0.12760593
v 1.30790687 0.0648624003 -0.127606407
v -1.31101835 1.85117519 -0.12760593
v 1.30790663 1.85117483 -0.12760593
v -1.31101799 0.0648624822 -0.127606407
v 1.30790663 1.85117483 -0.12760593
v 1.30790663 1.9257617 -0.127605915
v 1.30790651 1.9257617 0.0447939709
v 1.30790687 0.0648624003 -0.127606407
v 1.3079071 -0.0898837224 0.0447934382
v 1.30790687 -0.0898837 -0.0600893684
v 1.30790651 1.9257617 0.0447939709
v 1.21146476 1.9257617 -0.042503383
v 1.21146476 1.85117483 -0.0425034054
v 1.21146512 0.0648623779 -0.0425038822
v 1.3079071 -0.0898837224 0.0447934382
v 1.211465 -0.0898837075 -0.0425039195
v -1.21457613 0.0648623779 -0.0425038822
v -1.21457613 1.85117507 -0.0425034054
v -1.31101799 -0.0898837224 0.0433054008
v -1.21457613 -0.0898837075 -0.0425039195
v -1.31101835 1.92576182 0.0433059335
v -1.21457613 1.92576182 -0.042503383
v 1.21146476 1.85117483 -0.0425034054
v 1.30790663 1.9257617 -0.127605915
v 1.30790663 1.85117483 -0.12760593
v 1.21146476 1.9257617 -0.042503383
v -1.31101835 1.92576182 0.0433059335
v -1.31101835 1.92576194 -0.127605915
v -1.31101835 1.85117519 -0.12760593
v -1.31101799 0.0648624822 -0.127606407
v -1.31101799 -0.0898837224 0.0433054008
v -1.31101799 -0.0898836181 -0.0600893684
v -1.31101835 1.85117519 -0.12760593
v -1.21457613 1.92576182 -0.042503383
v -1.21457613 1.85117507 -0.0425034054
v -1.31101835 1.92576194 -0.127605915
v 1.30790687 0.0648624003 -0.127606407
v 1.211465 -0.0898837075 -0.0425039195
v 1.21146512 0.0648623779 -0.0425038822
v 1.30790687 -0.0898837 -0.0600893684
v -1.21457613 0.0648623779 -0.0425038822
v -1.31101799 -0.0898836181 -0.0600893684
v -1.31101799 0.0648624822 -0.127606407
v -1.21457613 -0.0898837075 -0.0425039195
v 1.21577966 1.17437112 -0.31388846
v 1.20614922 1.17437112 -0.0246782675
v 1.21096444 1.13560295 -0.16928336
v 1.22059488 1.42497325 -0.458493501
v 1.21930468 1.28028786 -0.419746578
v 1.20614922 1.6755749 -0.0246787444
v 1.201334 1.42497313 0.119926281
v 1.2026242 1.2802881 0.081179291
v 1.2026242 1.56965816 0.0811793655
v 1.21577966 1.6755749 -0.313888311
v 1.21096444 1.71434319 -0.169283211
v 1.21930468 1.56965828 -0.419746518
v 1.20614922 1.17437112 -0.0246782675
v 1.02587366 1.13560295 -0.175446704
v 1.21096444 1.13560295 -0.16928336
v 1.02105844 1.17437112 -0.0308422055
v 1.2026242 1.2802881 0.081179291
v 1.01753342 1.2802881 0.0750159696
v 1.201334 1.42497313 0.119926281
v 1.01624322 1.42497313 0.113762945
v 1.2026242 1.56965816 0.0811793655
v 1.01753342 1.56965816 0.0750160441
v 1.20614922 1.6755749 -0.0246787444
v 1.02105856 1.6755749 -0.0308420751
v 1.21096444 1.71434319 -0.169283211
v 1.02587366 1.71434319 -0.17544654
v 1.21577966 1.6755749 -0.313888311
v 1.030689 1.6755749 -0.32005164
v 1.21930468 1.56965828 -0.419746518
v 1.03421402 1.56965828 -0.425909847
v 1.22059488 1.42497325 -0.458493501
v 1.03550422 1.42497325 -0.46465683
v 1.21930468 1.28028786 -0.419746578
v 1.0342139 1.28028786 -0.425909907
v 1.21577966 1.17437112 -0.31388846
v 1.030689 1.17437112 -0.320051789
v 1.21096444 1.13560295 -0.16928336
v 1.02587366 1.13560295 -0.175446704
v 1.03550422 1.42497325 -0.46465683
v 1.030689 1.6755749 -0.32005164
v 1.03421402 1.56965828 -0.425909847
v 1.030689 1.17437112 -0.320051789
v 1.0342139 1.28028786 -0.425909907
v 1.01624322 1.42497313 0.113762945
v 1.02105856 1.6755749 -0.0308420751
v 1.02587366 1.71434319 -0.17544654
v 1.01753342 1.56965816 0.0750160441
v 1.02105844 1.17437112 -0.0308422055
v 1.01753342 1.2802881 0.0750159696
v 1.02587366 1.13560295 -0.175446704
v -1.19845545 1.42497325 -0.458493501
v -1.19364047 1.6755749 -0.313888311
v -1.19716585 1.56965828 -0.419746518
v -1.18401027 1.6755749 -0.0246787444
v -1.18882537 1.71434319 -0.169283211
v -1.18401027 1.17437112 -0.0246782675
v -1.19364047 1.17437112 -0.31388846
v -1.19716549 1.28028786 -0.419746578
v -1.18882537 1.13560295 -0.16928336
v -1.17919457 1.42497313 0.119926281
v -1.18048489 1.56965816 0.0811793655
v -1.18048489 1.2802881 0.081179291
v -1.00373447 1.13560295 -0.175446704
v -1.18401027 1.17437112 -0.0246782675
v -1.18882537 1.13560295 -0.16928336
v -0.998919368 1.17437112 -0.0308422055
v -1.18048489 1.2802881 0.081179291
v -0.995394588 1.2802881 0.0750159696
v -1.17919457 1.42497313 0.119926281
v -0.994104266 1.42497313 0.113762945
v -1.18048489 1.56965816 0.0811793655
v -0.995394588 1.56965816 0.0750160441
v -1.18401027 1.6755749 -0.0246787444
v -0.998919368 1.6755749 -0.0308420751
v -1.18882537 1.71434319 -0.169283211
v -1.00373447 1.71434319 -0.17544654
v -1.19364047 1.6755749 -0.313888311
v -1.00855005 1.6755749 -0.32005164
v -1.19716585 1.56965828 -0.419746518
v -1.01207483 1.56965828 -0.425909847
v -1.19845545 1.42497325 -0.458493501
v -1.01336515 1.42497325 -0.46465683
v -1.19716549 1.28028786 -0.419746578
v -1.01207483 1.28028786 -0.425909907
v -1.19364047 1.17437112 -0.31388846
v -1.00855005 1.17437112 -0.320051789
v -1.18882537 1.13560295 -0.16928336
v -1.00373447 1.13560295 -0.175446704
v -1.00855005 1.17437112 -0.320051789
v -0.998919368 1.17437112 -0.0308422055
v -1.00373447 1.13560295 -0.175446704
v -0.994104266 1.42497313 0.113762945
v -0.995394588 1.2802881 0.0750159696
v -1.00855005 1.6755749 -0.32005164
v -1.01336515 1.42497325 -0.46465683
v -1.01207483 1.28028786 -0.425909907
v -1.01207483 1.56965828 -0.425909847
v -0.998919368 1.6755749 -0.0308420751
v -0.995394588 1.56965816 0.0750160441
v -1.00373447 1.71434319 -0.17544654
vn 0 -1 -2.66316107E-07
vn 0 -1 -2.66316107E-07
vn 0 -1 -2.66316107E-07
vn -6.56538077E-07 -1 -1.00420584E-06
vn -6.56538077E-07 -1 -1.00420596E-06
vn -6.56538077E-07 -1 -1.00420596E-06
vn 0 1 2.66316107E-07
vn 0 1 2.66316107E-07
vn 0 1 2.66316107E-07
vn 7.94355628E-07 1 1.15910314E-06
vn 7.94355572E-07 1 1.15910314E-06
vn 7.94355628E-07 1 1.15910314E-06
vn 0 -1 -2.66316107E-07
vn 0 -1 -1.12979706E-06
vn 0 -1 -2.99329486E-07
vn 0 -1 -1.16281046E-06
vn 1.16527104E-07 1 3.98369679E-07
vn 0 1 1.98802832E-06
vn 0 1 3.37592439E-07
vn 1.16527104E-07 1 1.92725065E-06
vn 0 2.66316107E-07 -1
vn 0 2.66316107E-07 -1
vn 0 2.66316107E-07 -1
vn 0 2.66316107E-07 -1
vn 1 0 8.48124841E-07
vn 1 0 8.85081079E-07
vn 1 1.5140327E-07 8.19578247E-07
vn 1 -2.31959291E-07 -1.09328801E-06
vn 1 -1.65976417E-07 -1.03406171E-06
vn 1 -6.34759829E-07 -1.45484182E-06
vn -0.671084762 -3.29003655E-07 0.741380632
vn -0.671084762 -1.97441608E-07 0.741380632
vn -0.0743147805 -2.73514729E-07 0.997234881
vn -0.0743146837 -2.55195147E-07 0.997234881
vn -0.671083808 -1.43312349E-07 0.741381466
vn -0.671083629 1.33420201E-07 0.741381705
vn 0.0730548874 -2.65604484E-07 0.997327924
vn 0.0730547383 -2.65604484E-07 0.997327924
vn 0.664723516 -1.48641234E-07 0.747089446
vn 0.664723575 -1.98961942E-07 0.747089386
vn 0.664722383 0 0.747090459
vn 0.664722383 -1.98962226E-07 0.747090459
vn -0.661651194 1.99686937E-07 -0.749811709
vn -0.661651194 1.99686937E-07 -0.749811709
vn -0.661651194 1.99686937E-07 -0.749811709
vn -0.661651194 1.99686937E-07 -0.749811709
vn -1 0 0
vn -1 0 0
vn -1 0 0
vn -1 0 0
vn -1 0 0
vn -1 0 0
vn 0.661649704 1.99687307E-07 -0.74981308
vn 0.661649704 1.99687307E-07 -0.74981308
vn 0.661649704 1.99687307E-07 -0.74981308
vn 0.661649704 1.99687307E-07 -0.74981308
vn -0.628854573 -0.310933024 -0.712644756
vn -0.179384679 3.50437631E-07 -0.983779013
vn -0.661651433 5.25898599E-07 -0.74981153
vn -0.164841101 -0.394431442 -0.904019475
vn 0.661650896 1.99687008E-07 -0.749812007
vn 0.164840668 -0.394431412 -0.904019535
vn 0.628853917 -0.310933292 -0.712645292
vn 0.17938453 2.61996206E-07 -0.983779013
vn 0.999445975 1.29871228E-06 0.0332815014
vn 0.999446094 6.46784429E-07 0.0332804546
vn 0.999445975 -9.96066433E-07 0.0332808904
vn 0.999446094 -2.72426178E-07 0.0332788527
vn 0.999446094 1.22453457E-07 0.0332803242
vn 0.999445975 -2.10029384E-07 0.0332807191
vn 0.999446094 0 0.0332798362
vn 0.999445975 -4.73596941E-07 0.0332815759
vn 0.999445975 3.86017888E-07 0.0332813114
vn 0.999446094 1.36949552E-06 0.0332802571
vn 0.999445975 -2.73358211E-07 0.0332806967
vn 0.999445975 -1.38722294E-06 0.0332830064
vn -0.0166419689 -0.866024554 0.499724537
vn 0 -1 6.03770275E-07
vn 0 -1 0
vn -0.0166419148 -0.866025448 0.499723017
vn -0.0288217999 -0.499999225 0.865546107
vn -0.0288217757 -0.500000417 0.865545392
vn -0.0332805291 -2.6616857E-07 0.999446094
vn -0.0332805291 -2.6616857E-07 0.999446094
vn -0.028821772 0.500000358 0.865545452
vn -0.0288217682 0.500000298 0.865545452
vn -0.0166402869 0.866024971 0.499723792
vn -0.0166402888 0.866024911 0.499723852
vn 0 1 2.39125882E-07
vn 0 1 2.84442933E-07
vn 0.016640259 0.866025686 -0.499722481
vn 0.0166402552 0.866025805 -0.499722421
vn 0.0288217738 0.500000834 -0.865545213
vn 0.0288217682 0.500000834 -0.865545094
vn 0.0332805365 2.84295368E-07 -0.999446094
vn 0.0332805365 2.20851618E-07 -0.999446094
vn 0.0288217776 -0.49999997 -0.86554563
vn 0.0288217776 -0.49999997 -0.86554563
vn 0.0166402385 -0.866025686 -0.4997226
vn 0.0166402347 -0.866025686 -0.499722481
vn 0 -1 0
vn 0 -1 6.03770275E-07
vn -0.999445975 2.72426689E-07 -0.0332808197
vn -0.999445975 3.40414431E-07 -0.0332812443
vn -0.999445975 4.03744593E-07 -0.0332813114
vn -0.999445975 -1.29871216E-06 -0.0332815014
vn -0.999446094 5.97459064E-07 -0.0332796052
vn -0.999446094 0 -0.0332798325
vn -0.999446094 1.91249137E-06 -0.0332797319
vn -0.999445975 -1.70476676E-06 -0.0332806967
vn -0.999445975 -6.49582262E-07 -0.0332822911
vn -0.999445975 -1.96028054E-07 -0.0332807191
vn -0.999445975 4.04676427E-07 -0.0332813114
vn -0.999445975 7.27843883E-07 -0.0332809612
vn -0.999446332 -1.06264872E-06 0.0332700089
vn -0.999446094 6.74136891E-06 0.0332777612
vn -0.999445736 -6.76096261E-06 0.0332912654
vn -0.999446094 -6.56911561E-06 0.0332779549
vn -0.999446094 -2.69632636E-07 0.0332796425
vn -0.999446094 7.00582177E-06 0.0332776941
vn -0.999446094 -2.82517999E-06 0.0332788192
vn -0.999445856 2.80931818E-06 0.0332844481
vn -0.999446094 0 0.0332795717
vn -0.999445975 0 0.0332818069
vn -0.999445856 9.83926611E-07 0.0332855061
vn -0.999445856 -1.07244307E-06 0.0332857743
vn 0 -1 9.48180457E-07
vn 0.0166419353 -0.866024733 0.499724209
vn 0 -1 3.68121533E-07
vn 0.0166418869 -0.866025627 0.499722719
vn 0.0288218483 -0.499999613 0.865545809
vn 0.0288218297 -0.500000715 0.865545273
vn 0.0332805924 -2.66168541E-07 0.999445975
vn 0.0332805924 -2.66168541E-07 0.999445975
vn 0.0288218148 0.500000834 0.865545094
vn 0.0288218167 0.500000536 0.865545273
vn 0.0166402496 0.86602515 0.499723524
vn 0.0166402515 0.86602509 0.499723583
vn 0 1 6.10725522E-07
vn 0 1 6.9229668E-07
vn -0.0166402906 0.866025686 -0.4997226
vn -0.0166402813 0.866025805 -0.499722362
vn -0.0288217273 0.500000834 -0.865545094
vn -0.0288217366 0.500000715 -0.865545273
vn -0.0332805924 5.29006627E-07 -0.999445975
vn -0.0332805924 3.83992727E-07 -0.999445975
vn -0.0288217831 -0.49999994 -0.86554563
vn -0.0288217906 -0.499999851 -0.86554575
vn -0.0166402683 -0.866025805 -0.499722451
vn -0.0166402645 -0.866025805 -0.499722242
vn 0 -1 3.68121533E-07
vn 0 -1 9.48180457E-07
vn 0.999445856 -6.86801559E-06 -0.0332856327
vn 0.999446094 1.31644128E-06 -0.0332800634
vn 0.999445975 7.61590263E-06 -0.0332817547
vn 0.999445975 0 -0.0332818069
vn 0.999446094 -1.10779638E-06 -0.0332776345
vn 0.999445856 6.8820309E-06 -0.033285629
vn 0.999445975 0 -0.0332817994
vn 0.999446094 1.12458736E-06 -0.0332776383
vn 0.999446094 -1.10593237E-06 -0.033277642
vn 0.999446094 -1.29871705E-06 -0.0332800634
vn 0.999446094 1.12365694E-06 -0.033277642
vn 0.999445975 -7.59071236E-06 -0.033281751
vt 0.951125383 0.704541445
vt 0.955950797 0.708094537
vt 0.958897293 0.702254474
vt 0.782425106 0.708094537
vt 0.787250698 0.704541445
vt 0.779519856 0.702338159
vt 0.954117954 0.844159901
vt 0.948090076 0.849490821
vt 0.954118013 0.854959071
vt 0.790285885 0.84948951
vt 0.784258068 0.84415853
vt 0.784258008 0.854864657
vt 0.945071399 0.71192354
vt 0.787364602 0.717216849
vt 0.951011002 0.717216849
vt 0.793304265 0.711923778
vt 0.951033294 0.840656936
vt 0.793370426 0.845986128
vt 0.945005417 0.845987618
vt 0.787342787 0.84065485
vt 0.951011002 0.722899735
vt 0.787345231 0.834800363
vt 0.951030374 0.834800363
vt 0.787364602 0.722899735
vt 0.951030374 0.834800363
vt 0.951027095 0.839472592
vt 0.9617998 0.839472473
vt 0.951011002 0.722899735
vt 0.961793363 0.713205874
vt 0.955234349 0.713205874
vt 0.953138471 0.86108464
vt 0.945007622 0.8610906
vt 0.94500643 0.865754902
vt 0.945008099 0.977647603
vt 0.953139246 0.987341285
vt 0.945008397 0.987341642
vt 0.793367565 0.977647603
vt 0.793369293 0.865754247
vt 0.785298586 0.987341285
vt 0.793367386 0.987341642
vt 0.785300493 0.861082494
vt 0.793370128 0.861089528
vt 0.945005417 0.845987618
vt 0.954117954 0.844159901
vt 0.951033294 0.840656936
vt 0.948090076 0.849490821
vt 0.776668847 0.839472473
vt 0.787348509 0.839472592
vt 0.787345231 0.834800363
vt 0.787364602 0.722899735
vt 0.776675224 0.713205874
vt 0.783141136 0.713205874
vt 0.787342787 0.84065485
vt 0.790285885 0.84948951
vt 0.793370426 0.845986128
vt 0.784258068 0.84415853
vt 0.951011002 0.717216849
vt 0.951125383 0.704541445
vt 0.945071399 0.71192354
vt 0.955950797 0.708094537
vt 0.793304265 0.711923778
vt 0.782425106 0.708094537
vt 0.787364602 0.717216849
vt 0.787250698 0.704541445
vt 0.55991447 0.348866105
vt 0.57938695 0.348866105
vt 0.569650769 0.346251518
vt 0.550178289 0.365766853
vt 0.552787125 0.356009185
vt 0.57938689 0.38266775
vt 0.589123011 0.365766853
vt 0.586514235 0.356009185
vt 0.586514175 0.375524521
vt 0.559914529 0.382667631
vt 0.569650769 0.385282189
vt 0.552787185 0.375524521
vt 0.514828503 0.333687425
vt 0.499647319 0.315094084
vt 0.499819934 0.333687425
vt 0.514653802 0.315094084
vt 0.529840589 0.333687425
vt 0.529657245 0.315094084
vt 0.544857264 0.333687425
vt 0.544656277 0.315094084
vt 0.559878349 0.333687425
vt 0.559649825 0.315094084
vt 0.574902236 0.333687425
vt 0.57463938 0.315094084
vt 0.589928627 0.333687425
vt 0.589625061 0.315094084
vt 0.604954123 0.333687425
vt 0.604611397 0.315094084
vt 0.61997658 0.333687425
vt 0.619597912 0.315094084
vt 0.634993732 0.333687425
vt 0.634588063 0.315094084
vt 0.650006235 0.333687425
vt 0.64958322 0.315094084
vt 0.665013909 0.333687425
vt 0.664582551 0.315094084
vt 0.680018961 0.333687425
vt 0.679585457 0.315094084
vt 0.542867362 0.366573602
vt 0.533131242 0.383474469
vt 0.540258527 0.37633127
vt 0.533131242 0.349672973
vt 0.540258586 0.356815934
vt 0.503922641 0.366573602
vt 0.513658822 0.38347435
vt 0.523394942 0.386088908
vt 0.506531417 0.37633127
vt 0.513658881 0.349672854
vt 0.506531537 0.356815934
vt 0.523394942 0.347058266
vt 0.550178289 0.365766853
vt 0.559914529 0.382667631
vt 0.552787185 0.375524521
vt 0.57938689 0.38266775
vt 0.569650769 0.385282189
vt 0.57938695 0.348866105
vt 0.55991447 0.348866105
vt 0.552787125 0.356009185
vt 0.569650769 0.346251518
vt 0.589123011 0.365766853
vt 0.586514175 0.375524521
vt 0.586514235 0.356009185
vt 0.499647319 0.315094084
vt 0.514828503 0.333687425
vt 0.499819934 0.333687425
vt 0.514653802 0.315094084
vt 0.529840589 0.333687425
vt 0.529657245 0.315094084
vt 0.544857264 0.333687425
vt 0.544656277 0.315094084
vt 0.559878349 0.333687425
vt 0.559649825 0.315094084
vt 0.574902236 0.333687425
vt 0.57463938 0.315094084
vt 0.589928627 0.333687425
vt 0.589625061 0.315094084
vt 0.604954123 0.333687425
vt 0.604611397 0.315094084
vt 0.61997658 0.333687425
vt 0.619597912 0.315094084
vt 0.634993732 0.333687425
vt 0.634588063 0.315094084
vt 0.650006235 0.333687425
vt 0.64958322 0.315094084
vt 0.665013909 0.333687425
vt 0.664582551 0.315094084
vt 0.680018961 0.333687425
vt 0.679585457 0.315094084
vt 0.533131242 0.349672973
vt 0.513658881 0.349672854
vt 0.523394942 0.347058266
vt 0.503922641 0.366573602
vt 0.506531537 0.356815934
vt 0.533131242 0.383474469
vt 0.542867362 0.366573602
vt 0.540258586 0.356815934
vt 0.540258527 0.37633127
vt 0.513658822 0.38347435
vt 0.506531417 0.37633127
vt 0.523394942 0.386088908
g submesh0
f 1/1/1 2/2/2 3/3/3
f 4/4/4 5/5/5 6/6/6
f 7/7/7 8/8/8 9/9/9
f 10/10/10 11/11/11 12/12/12
f 13/13/13 14/14/14 15/15/15
f 14/14/14 13/13/13 16/16/16
f 17/17/17 18/18/18 19/19/19
f 18/18/18 17/17/17 20/20/20
f 21/21/21 22/22/22 23/23/23
f 22/22/22 21/21/21 24/24/24
f 25/25/25 26/26/26 27/27/27
f 27/27/27 28/28/28 25/25/25
f 28/28/28 27/27/27 29/29/29
f 29/29/29 30/30/30 28/28/28
f 31/31/31 32/32/32 33/33/33
f 34/34/34 31/31/31 33/33/33
f 31/31/31 34/34/34 35/35/35
f 34/34/34 36/36/36 35/35/35
f 33/33/33 37/37/37 34/34/34
f 37/37/37 33/33/33 38/38/38
f 38/38/38 39/39/39 37/37/37
f 39/39/39 40/40/40 37/37/37
f 39/39/39 38/38/38 41/41/41
f 38/38/38 42/42/42 41/41/41
f 43/43/43 44/44/44 45/45/45
f 44/44/44 43/43/43 46/46/46
f 47/47/47 48/48/48 49/49/49
f 50/50/50 47/47/47 49/49/49
f 47/47/47 50/50/50 51/51/51
f 50/50/50 52/52/52 51/51/51
f 53/53/53 54/54/54 55/55/55
f 54/54/54 53/53/53 56/56/56
f 57/57/57 58/58/58 59/59/59
f 58/58/58 57/57/57 60/60/60
f 61/61/61 62/62/62 63/63/63
f 62/62/62 61/61/61 64/64/64
f 65/65/65 66/66/66 67/67/67
f 65/65/65 68/68/68 66/66/66
f 69/69/69 68/68/68 65/65/65
f 66/66/66 68/68/68 70/70/70
f 66/66/66 70/70/70 71/71/71
f 66/66/66 71/71/71 72/72/72
f 71/71/71 70/70/70 73/73/73
f 70/70/70 68/68/68 74/74/74
f 70/70/70 74/74/74 75/75/75
f 74/74/74 68/68/68 76/76/76
f 77/77/77 78/78/78 79/79/79
f 78/78/78 77/77/77 80/80/80
f 81/81/81 80/80/80 77/77/77
f 80/80/80 81/81/81 82/82/82
f 83/83/83 82/82/82 81/81/81
f 82/82/82 83/83/83 84/84/84
f 85/85/85 84/84/84 83/83/83
f 84/84/84 85/85/85 86/86/86
f 87/87/87 86/86/86 85/85/85
f 86/86/86 87/87/87 88/88/88
f 89/89/89 88/88/88 87/87/87
f 88/88/88 89/89/89 90/90/90
f 91/91/91 90/90/90 89/89/89
f 90/90/90 91/91/91 92/92/92
f 93/93/93 92/92/92 91/91/91
f 92/92/92 93/93/93 94/94/94
f 95/95/95 94/94/94 93/93/93
f 94/94/94 95/95/95 96/96/96
f 97/97/97 96/96/96 95/95/95
f 96/96/96 97/97/97 98/98/98
f 99/99/99 98/98/98 97/97/97
f 98/98/98 99/99/99 100/100/100
f 101/101/101 100/100/100 99/99/99
f 100/100/100 101/101/101 102/102/102
f 103/103/103 104/104/104 105/105/105
f 103/103/103 106/106/106 104/104/104
f 107/107/107 106/106/106 103/103/103
f 104/104/104 106/106/106 108/108/108
f 104/104/104 108/108/108 109/109/109
f 104/104/104 109/109/109 110/110/110
f 109/109/109 108/108/108 111/111/111
f 108/108/108 106/106/106 112/112/112
f 108/108/108 112/112/112 113/113/113
f 112/112/112 106/106/106 114/114/114
f 115/115/115 116/116/116 117/117/117
f 115/115/115 118/118/118 116/116/116
f 116/116/116 118/118/118 119/119/119
f 115/115/115 120/120/120 118/118/118
f 115/115/115 121/121/121 120/120/120
f 122/122/122 121/121/121 115/115/115
f 120/120/120 121/121/121 123/123/123
f 118/118/118 120/120/120 124/124/124
f 118/118/118 124/124/124 125/125/125
f 124/124/124 120/120/120 126/126/126
f 127/127/127 128/128/128 129/129/129
f 128/128/128 127/127/127 130/130/130
f 130/130/130 131/131/131 128/128/128
f 131/131/131 130/130/130 132/132/132
f 132/132/132 133/133/133 131/131/131
f 133/133/133 132/132/132 134/134/134
f 134/134/134 135/135/135 133/133/133
f 135/135/135 134/134/134 136/136/136
f 136/136/136 137/137/137 135/135/135
f 137/137/137 136/136/136 138/138/138
f 138/138/138 139/139/139 137/137/137
f 139/139/139 138/138/138 140/140/140
f 140/140/140 141/141/141 139/139/139
f 141/141/141 140/140/140 142/142/142
f 142/142/142 143/143/143 141/141/141
f 143/143/143 142/142/142 144/144/144
f 144/144/144 145/145/145 143/143/143
f 145/145/145 144/144/144 146/146/146
f 146/146/146 147/147/147 145/145/145
f 147/147/147 146/146/146 148/148/148
f 148/148/148 149/149/149 147/147/147
f 149/149/149 148/148/148 150/150/150
f 150/150/150 151/151/151 149/149/149
f 151/151/151 150/150/150 152/152/152
f 153/153/153 154/154/154 155/155/155
f 153/153/153 156/156/156 154/154/154
f 154/154/154 156/156/156 157/157/157
f 153/153/153 158/158/158 156/156/156
f 153/153/153 159/159/159 158/158/158
f 160/160/160 159/159/159 153/153/153
f 158/158/158 159/159/159 161/161/161
f 156/156/156 158/158/158 162/162/162
f 156/156/156 162/162/162 163/163/163
f 162/162/162 158/158/158 164/164/164
