# bin_a_LOD1
v -0.193238422 0.481424868 0.000170191284
v -0.130665168 2.3886253E-09 -0.0544752069
v -0.14153479 -2.60406542E-16 0.000170173327
v -0.17843309 0.481424868 -0.0742612928
v -0.0997110605 4.41360326E-09 -0.100801304
v -0.13627106 0.481424868 -0.137361243
v -0.0533849746 5.76664982E-09 -0.131755412
v -0.0731710717 0.481424868 -0.179523304
v 0.00126039551 6.24177732E-09 -0.142625049
v 0.00126039842 0.481424868 -0.194328651
v 0.0559057519 5.76665116E-09 -0.131755427
v 0.0756918862 0.481424868 -0.179523304
v 0.102231875 4.41360326E-09 -0.100801304
v 0.138791859 0.481424868 -0.137361243
v 0.133185998 2.38862397E-09 -0.0544751771
v 0.180953935 0.481424868 -0.074261263
v 0.144055635 -2.14435263E-15 0.00017021643
v 0.195759237 0.481424868 0.000170256637
v 0.133185968 -2.38862774E-09 0.0548156016
v 0.180953875 0.481424868 0.0746017769
v 0.102231815 -4.41360593E-09 0.101141699
v 0.1387918 0.481424868 0.137701765
v 0.0559056588 -5.76665204E-09 0.132095799
v 0.075691767 0.481424868 0.179863796
v 0.00126026652 -6.24177687E-09 0.142965361
v 0.00126022589 0.481424868 0.194669068
v -0.0533851124 -5.7666476E-09 0.13209568
v -0.0731712729 0.481424868 0.179863617
v -0.0997111872 -4.41359704E-09 0.10114149
v -0.136271238 0.481424868 0.137701496
v -0.130665258 -2.38861664E-09 0.0548153482
v -0.17843321 0.481424868 0.0746014267
v -0.14153479 -2.60406542E-16 0.000170173327
v -0.193238422 0.481424868 0.000170191284
v -0.0533849746 5.76664982E-09 -0.131755412
v 0.00126039551 6.24177732E-09 -0.142625049
v 0.0559057519 5.76665116E-09 -0.131755427
v 0.102231875 4.41360326E-09 -0.100801304
v -0.0997110605 4.41360326E-09 -0.100801304
v -0.130665168 2.3886253E-09 -0.0544752069
v 0.133185998 2.38862397E-09 -0.0544751771
v -0.14153479 -2.60406542E-16 0.000170173327
v 0.144055635 -2.14435263E-15 0.00017021643
v -0.130665258 -2.38861664E-09 0.0548153482
v 0.133185968 -2.38862774E-09 0.0548156016
v -0.0997111872 -4.41359704E-09 0.10114149
v 0.102231815 -4.41360593E-09 0.101141699
v -0.0533851124 -5.7666476E-09 0.13209568
v 0.0559056588 -5.76665204E-09 0.132095799
v 0.00126026652 -6.24177687E-09 0.142965361
v -0.1411006 0.00344076147 0.000170174215
v -0.130263999 0.00344076264 -0.0543090329
v -0.168266803 0.484576821 -0.0700502843
v -0.182234555 0.484576821 0.000170195155
v -0.168266803 0.484576821 -0.0700502843
v -0.130263999 0.00344076264 -0.0543090329
v -0.0994040146 0.00344076473 -0.100494266
v -0.128490105 0.484576821 -0.129580319
v -0.0994040146 0.00344076473 -0.100494266
v -0.053218808 0.00344076683 -0.131354257
v -0.0689600706 0.484576821 -0.169356987
v -0.0689600706 0.484576821 -0.169356987
v -0.053218808 0.00344076683 -0.131354257
v 0.00126039621 0.00344076776 -0.142190844
v 0.00126040145 0.484576821 -0.183324739
v 0.00126040145 0.484576821 -0.183324739
v 0.00126039621 0.00344076776 -0.142190844
v 0.0557395816 0.00344076683 -0.131354257
v 0.0714808702 0.484576821 -0.169357017
v 0.0557395816 0.00344076683 -0.131354257
v 0.101924837 0.00344076566 -0.100494258
v 0.13101092 0.484576821 -0.129580319
v 0.101924837 0.00344076566 -0.100494258
v 0.132784858 0.00344076264 -0.0543090105
v 0.170787632 0.484576821 -0.0700502545
v 0.170787632 0.484576821 -0.0700502545
v 0.132784858 0.00344076264 -0.0543090105
v 0.143621415 0.00344076124 0.000170216736
v 0.184755325 0.484576821 0.00017025409
v 0.184755325 0.484576821 0.00017025409
v 0.143621415 0.00344076124 0.000170216736
v 0.132784799 0.00344075891 0.0546494387
v 0.170787573 0.484576821 0.0703907534
v 0.132784799 0.00344075891 0.0546494387
v 0.101924792 0.00344075589 0.10083466
v 0.13101086 0.484576821 0.12992081
v 0.13101086 0.484576821 0.12992081
v 0.101924792 0.00344075589 0.10083466
v 0.0557394959 0.00344075542 0.13169463
v 0.0714807585 0.484576821 0.169697493
v 0.0714807585 0.484576821 0.169697493
v 0.0557394959 0.00344075542 0.13169463
v 0.00126026745 0.00344075495 0.142531157
v 0.00126023812 0.484576821 0.183665156
v 0.00126026745 0.00344075495 0.142531157
v -0.0532189459 0.00344075542 0.131694511
v -0.0689602494 0.484576821 0.169697344
v -0.0689602494 0.484576821 0.169697344
v -0.0532189459 0.00344075542 0.131694511
v -0.0994041637 0.00344075589 0.100834474
v -0.128490299 0.484576821 0.129920542
v -0.128490299 0.484576821 0.129920542
v -0.0994041637 0.00344075589 0.100834474
v -0.130264103 0.00344075891 0.0546491854
v -0.168266922 0.484576821 0.0703904331
v -0.130264103 0.00344075891 0.0546491854
v -0.1411006 0.00344076147 0.000170174215
v -0.182234555 0.484576821 0.000170195155
v 0.0557395816 0.00344076683 -0.131354257
v 0.00126039621 0.00344076776 -0.142190844
v -0.053218808 0.00344076683 -0.131354257
v 0.101924837 0.00344076566 -0.100494258
v -0.0994040146 0.00344076473 -0.100494266
v -0.130263999 0.00344076264 -0.0543090329
v 0.132784858 0.00344076264 -0.0543090105
v -0.1411006 0.00344076147 0.000170174215
v 0.143621415 0.00344076124 0.000170216736
v -0.130264103 0.00344075891 0.0546491854
v 0.132784799 0.00344075891 0.0546494387
v -0.0994041637 0.00344075589 0.100834474
v 0.101924792 0.00344075589 0.10083466
v -0.0532189459 0.00344075542 0.131694511
v 0.0557394959 0.00344075542 0.13169463
v 0.00126026745 0.00344075495 0.142531157
v -0.182234555 0.484576821 0.000170195155
v -0.17843309 0.481424868 -0.0742612928
v -0.193238422 0.481424868 0.000170191284
v -0.168266803 0.484576821 -0.0700502843
v -0.13627106 0.481424868 -0.137361243
v -0.128490105 0.484576821 -0.129580319
v -0.0731710717 0.481424868 -0.179523304
v -0.0689600706 0.484576821 -0.169356987
v 0.00126039842 0.481424868 -0.194328651
v 0.00126040145 0.484576821 -0.183324739
v 0.0756918862 0.481424868 -0.179523304
v 0.0714808702 0.484576821 -0.169357017
v 0.138791859 0.481424868 -0.137361243
v 0.13101092 0.484576821 -0.129580319
v 0.180953935 0.481424868 -0.074261263
v 0.170787632 0.484576821 -0.0700502545
v 0.195759237 0.481424868 0.000170256637
v 0.184755325 0.484576821 0.00017025409
v 0.180953875 0.481424868 0.0746017769
v 0.170787573 0.484576821 0.0703907534
v 0.1387918 0.481424868 0.137701765
v 0.13101086 0.484576821 0.12992081
v 0.075691767 0.481424868 0.179863796
v 0.0714807585 0.484576821 0.169697493
v 0.00126022589 0.481424868 0.194669068
v 0.00126023812 0.484576821 0.183665156
v -0.0731712729 0.481424868 0.179863617
v -0.0689602494 0.484576821 0.169697344
v -0.136271238 0.481424868 0.137701496
v -0.128490299 0.484576821 0.129920542
v -0.17843321 0.481424868 0.0746014267
v -0.168266922 0.484576821 0.0703904331
v -0.193238422 0.481424868 0.000170191284
v -0.182234555 0.484576821 0.000170195155
vn -0.994282365 -0.106783025 -4.01804243E-07
vn -0.918597162 -0.106783003 -0.38049522
vn -0.994282365 -0.106783032 -4.10372394E-07
vn -0.918597162 -0.106783003 -0.38049522
vn -0.703063786 -0.10678298 -0.703063786
vn -0.703063846 -0.106782988 -0.703063786
vn -0.380495399 -0.10678295 -0.918597043
vn -0.380495399 -0.106782965 -0.918597162
vn 0 -0.106782973 -0.994282365
vn 0 -0.106782965 -0.994282365
vn 0.38049534 -0.106782965 -0.918597162
vn 0.380495369 -0.106782973 -0.918597162
vn 0.703063786 -0.10678298 -0.703063786
vn 0.703063726 -0.10678298 -0.703063726
vn 0.918597162 -0.106783003 -0.38049522
vn 0.918597162 -0.106783003 -0.380495191
vn 0.994282365 -0.10678301 3.53111147E-07
vn 0.994282365 -0.10678301 3.62603856E-07
vn 0.918597043 -0.106783077 0.380495697
vn 0.918597043 -0.10678307 0.380495697
vn 0.703063309 -0.106783129 0.703064144
vn 0.703063369 -0.106783129 0.703064144
vn 0.380494505 -0.106783174 0.91859746
vn 0.380494505 -0.106783174 0.91859746
vn -1.09750772E-06 -0.106783167 0.994282365
vn -1.08781171E-06 -0.106783174 0.994282365
vn -0.380496353 -0.106783122 0.918596625
vn -0.380496353 -0.106783129 0.918596625
vn -0.70306468 -0.106783114 0.703062892
vn -0.70306462 -0.106783107 0.703062952
vn -0.918597519 -0.10678307 0.380494297
vn -0.918597519 -0.10678307 0.380494297
vn -0.994282365 -0.106783032 -4.10372394E-07
vn -0.994282365 -0.106783025 -4.01804243E-07
vn 0 -1 0
vn 0 -1 0
vn 0 -1 0
vn 0 -1 0
vn 0 -1 0
vn 0 -1 0
vn 0 -1 0
vn 0 -1 0
vn 0 -1 0
vn 0 -1 0
vn 0 -1 0
vn 0 -1 0
vn 0 -1 0
vn 0 -1 0
vn 0 -1 0
vn 0 -1 0
vn 0.996365309 0.0851826444 4.88051569E-07
vn 0.920521438 0.0851826072 0.381292641
vn 0.920521557 0.0851825997 0.381292582
vn 0.996365309 0.0851826444 4.59392027E-07
vn 0.920521557 0.0851825997 0.381292582
vn 0.920521438 0.0851826072 0.381292641
vn 0.704536617 0.0851825625 0.704536796
vn 0.704536736 0.0851825699 0.704536796
vn 0.704536617 0.0851825625 0.704536796
vn 0.381292582 0.0851825252 0.920521557
vn 0.381292641 0.0851825178 0.920521557
vn 0.381292641 0.0851825178 0.920521557
vn 0.381292582 0.0851825252 0.920521557
vn 0 0.0851825029 0.996365309
vn 0 0.0851825103 0.996365309
vn 0 0.0851825103 0.996365309
vn 0 0.0851825029 0.996365309
vn -0.381292522 0.0851825252 0.920521557
vn -0.381292492 0.0851825252 0.920521557
vn -0.381292522 0.0851825252 0.920521557
vn -0.704536617 0.0851825476 0.704536796
vn -0.704536736 0.0851825625 0.704536796
vn -0.704536617 0.0851825476 0.704536796
vn -0.920521677 0.0851825699 0.381292313
vn -0.920521677 0.085182555 0.381292313
vn -0.920521677 0.085182555 0.381292313
vn -0.920521677 0.0851825699 0.381292313
vn -0.996365309 0.085182555 -4.49773069E-07
vn -0.996365309 0.0851825699 -4.3984349E-07
vn -0.996365309 0.0851825699 -4.3984349E-07
vn -0.996365309 0.085182555 -4.49773069E-07
vn -0.920521438 0.0851826146 -0.38129279
vn -0.920521438 0.0851826072 -0.38129279
vn -0.920521438 0.0851826146 -0.38129279
vn -0.704536259 0.0851826817 -0.704537094
vn -0.704536319 0.0851826817 -0.704537094
vn -0.704536319 0.0851826817 -0.704537094
vn -0.704536259 0.0851826817 -0.704537094
vn -0.381291717 0.0851827189 -0.920521855
vn -0.381291687 0.0851827264 -0.920521975
vn -0.381291687 0.0851827264 -0.920521975
vn -0.381291717 0.0851827189 -0.920521855
vn 1.09093901E-06 0.0851827115 -0.996365309
vn 1.0751728E-06 0.0851827189 -0.996365309
vn 1.09093901E-06 0.0851827115 -0.996365309
vn 0.381293595 0.0851826817 -0.92052114
vn 0.381293505 0.0851826891 -0.92052114
vn 0.381293505 0.0851826891 -0.92052114
vn 0.381293595 0.0851826817 -0.92052114
vn 0.70453757 0.0851826519 -0.704535902
vn 0.70453757 0.0851826519 -0.704535902
vn 0.70453757 0.0851826519 -0.704535902
vn 0.70453757 0.0851826519 -0.704535902
vn 0.920521975 0.0851826444 -0.381291568
vn 0.920521975 0.0851826444 -0.381291568
vn 0.920521975 0.0851826444 -0.381291568
vn 0.996365309 0.0851826444 4.88051569E-07
vn 0.996365309 0.0851826444 4.59392027E-07
vn 0 1 0
vn 0 1 0
vn 0 1 0
vn 0 1 0
vn 0 1 0
vn 0 1 0
vn 0 1 0
vn 0 1 0
vn 0 1 0
vn 0 1 0
vn 0 1 0
vn 0 1 0
vn 0 1 0
vn 0 1 0
vn 0 1 0
vn 0 1 0
vn -0.275367349 0.961339056 -1.14505049E-07
vn -0.254406095 0.961339176 -0.105378412
vn -0.275367349 0.961339056 -1.10673859E-07
vn -0.254406124 0.961339176 -0.105378456
vn -0.194713742 0.961339176 -0.194713712
vn -0.194713727 0.961339176 -0.194713742
vn -0.105378166 0.961339295 -0.254405588
vn -0.1053783 0.961339295 -0.254405469
vn 0 0.961339295 -0.275366575
vn 0 0.961339295 -0.275366575
vn 0.10537827 0.961339295 -0.254405707
vn 0.105378315 0.961339295 -0.254405677
vn 0.194713742 0.961339295 -0.194713756
vn 0.194713712 0.961339295 -0.194713786
vn 0.254405707 0.961339295 -0.105378203
vn 0.254405677 0.961339295 -0.105378248
vn 0.275366664 0.961339295 0
vn 0.275366664 0.961339295 1.08143659E-07
vn 0.254405469 0.961339295 0.105378233
vn 0.254405469 0.961339295 0.105378218
vn 0.194713414 0.961339295 0.194713578
vn 0.194713414 0.961339295 0.194713622
vn 0.105378024 0.961339295 0.254405707
vn 0.105378032 0.961339295 0.254405648
vn -3.15825588E-07 0.961339295 0.275366783
vn -3.18069539E-07 0.961339295 0.275366753
vn -0.105378598 0.961339295 0.254405618
vn -0.105378598 0.961339295 0.254405648
vn -0.194713935 0.961339295 0.194713533
vn -0.194714025 0.961339295 0.194713429
vn -0.254406244 0.961339176 0.105378129
vn -0.254406214 0.961339176 0.105378136
vn -0.275367349 0.961339056 -1.10673859E-07
vn -0.275367349 0.961339056 -1.14505049E-07
vt 0.00044328635 0.973201752
vt 0.0700021535 0.525460899
vt 0.0169561226 0.521673203
vt 0.0660803467 0.977724433
vt 0.129669592 0.526363254
vt 0.12835671 0.978691161
vt 0.190705284 0.526640058
vt 0.189872086 0.978839219
vt 0.251871288 0.526855946
vt 0.251295865 0.978942871
vt 0.313057959 0.526793718
vt 0.312708467 0.97896117
vt 0.37425825 0.526835024
vt 0.374110967 0.978993177
vt 0.435512811 0.526860416
vt 0.435477614 0.979022563
vt 0.496814936 0.526866794
vt 0.496815026 0.979027987
vt 0.558117092 0.526859939
vt 0.558152556 0.979022205
vt 0.619371414 0.52683419
vt 0.619519055 0.978992522
vt 0.680571318 0.526792109
vt 0.680921555 0.97895956
vt 0.741758108 0.526853502
vt 0.742334187 0.978940368
vt 0.802923739 0.526636839
vt 0.803757787 0.978835881
vt 0.863959551 0.526359499
vt 0.865272939 0.978687286
vt 0.92362684 0.525456727
vt 0.927548766 0.977720261
vt 0.976672471 0.521668851
vt 0.99318552 0.97319746
vt 0.922091007 0.03128016
vt 0.876121998 0.0221363902
vt 0.830152988 0.03128016
vt 0.79118228 0.0573195219
vt 0.961061776 0.0573195219
vt 0.987101078 0.0962902308
vt 0.765142918 0.0962902308
vt 0.996244967 0.14225924
vt 0.755999148 0.142259359
vt 0.987101197 0.18822813
vt 0.765142977 0.188228369
vt 0.961061835 0.227198839
vt 0.791182399 0.227199078
vt 0.922091246 0.25323832
vt 0.830153048 0.25323844
vt 0.876122177 0.262382269
vt 0.740061343 0.163136616
vt 0.701529443 0.16280216
vt 0.695278406 0.512606263
vt 0.743868768 0.513037324
vt 0.695848703 0.512606144
vt 0.689790785 0.162802219
vt 0.65102613 0.16313687
vt 0.650195122 0.513037443
vt 0.649204791 0.16313687
vt 0.607159853 0.162802547
vt 0.600313246 0.512606561
vt 0.604102433 0.513037562
vt 0.603112221 0.163136944
vt 0.561069429 0.162802458
vt 0.554223239 0.512606442
vt 0.557570934 0.512606561
vt 0.55151391 0.162802488
vt 0.512754917 0.163136899
vt 0.51192385 0.513037562
vt 0.50542593 0.162802398
vt 0.466668069 0.163136765
vt 0.465837061 0.513037384
vt 0.464847058 0.163136765
vt 0.422808677 0.16280216
vt 0.415963143 0.512606144
vt 0.419751406 0.513037324
vt 0.418761373 0.163136646
vt 0.376723647 0.162802041
vt 0.369878232 0.512606144
vt 0.373225659 0.512606204
vt 0.367168993 0.162802175
vt 0.328412205 0.163136616
vt 0.327581227 0.513037205
vt 0.326591223 0.163136616
vt 0.28455326 0.1628021
vt 0.277707785 0.512606084
vt 0.281495512 0.513037205
vt 0.280505478 0.163136601
vt 0.238466576 0.162801981
vt 0.231621012 0.512605965
vt 0.234968439 0.512606084
vt 0.228911266 0.162802041
vt 0.190151453 0.163136482
vt 0.189320415 0.513037145
vt 0.188330308 0.163136482
vt 0.14628835 0.1628021
vt 0.139442295 0.512606084
vt 0.143230051 0.513037145
vt 0.142239898 0.163136542
vt 0.100195922 0.1628021
vt 0.0933494344 0.512606084
vt 0.0966971889 0.512606084
vt 0.0906390771 0.162802085
vt 0.0518731959 0.163136631
vt 0.0510420799 0.513037324
vt 0.0500517525 0.163136631
vt 0.0080030635 0.16280213
vt 0.00115593337 0.512606204
vt 0.830823183 0.495491356
vt 0.872618914 0.503805041
vt 0.914414644 0.495491356
vt 0.795390129 0.471815586
vt 0.949847698 0.471815586
vt 0.973530889 0.436382771
vt 0.771706939 0.436382771
vt 0.981779277 0.394587487
vt 0.76345861 0.394587487
vt 0.973530889 0.352792412
vt 0.771706939 0.352792293
vt 0.949847817 0.317359567
vt 0.795390189 0.317359358
vt 0.914414823 0.293683708
vt 0.830823183 0.293683589
vt 0.872618973 0.285369873
vt -6.30739305E-05 0.983641446
vt 0.0660803467 0.977724433
vt 0.00044328635 0.973201752
vt 0.065254353 0.988183141
vt 0.12835671 0.978691161
vt 0.128164902 0.989169419
vt 0.189872086 0.978839219
vt 0.189838931 0.989299476
vt 0.251295865 0.978942871
vt 0.251283884 0.989398658
vt 0.312708467 0.97896117
vt 0.312703431 0.98941648
vt 0.374110967 0.978993177
vt 0.374100477 0.989448071
vt 0.435477614 0.979022563
vt 0.435470909 0.98947829
vt 0.496815026 0.979027987
vt 0.496815026 0.989483535
vt 0.558152556 0.979022205
vt 0.558159351 0.989477932
vt 0.619519055 0.978992522
vt 0.619529545 0.989447474
vt 0.680921555 0.97895956
vt 0.680926681 0.989414692
vt 0.742334187 0.978940368
vt 0.742346227 0.989396214
vt 0.803757787 0.978835881
vt 0.803791106 0.989296019
vt 0.865272939 0.978687286
vt 0.865464866 0.989165545
vt 0.927548766 0.977720261
vt 0.928374827 0.988178909
vt 0.99318552 0.97319746
vt 0.993691802 0.983637154
g submesh0
f 1/1/1 2/2/2 3/3/3
f 1/1/1 4/4/4 2/2/2
f 4/4/4 5/5/5 2/2/2
f 4/4/4 6/6/6 5/5/5
f 6/6/6 7/7/7 5/5/5
f 6/6/6 8/8/8 7/7/7
f 8/8/8 9/9/9 7/7/7
f 8/8/8 10/10/10 9/9/9
f 10/10/10 11/11/11 9/9/9
f 10/10/10 12/12/12 11/11/11
f 12/12/12 13/13/13 11/11/11
f 12/12/12 14/14/14 13/13/13
f 14/14/14 15/15/15 13/13/13
f 14/14/14 16/16/16 15/15/15
f 16/16/16 17/17/17 15/15/15
f 16/16/16 18/18/18 17/17/17
f 18/18/18 19/19/19 17/17/17
f 18/18/18 20/20/20 19/19/19
f 20/20/20 21/21/21 19/19/19
f 20/20/20 22/22/22 21/21/21
f 22/22/22 23/23/23 21/21/21
f 22/22/22 24/24/24 23/23/23
f 24/24/24 25/25/25 23/23/23
f 24/24/24 26/26/26 25/25/25
f 26/26/26 27/27/27 25/25/25
f 26/26/26 28/28/28 27/27/27
f 28/28/28 29/29/29 27/27/27
f 28/28/28 30/30/30 29/29/29
f 30/30/30 31/31/31 29/29/29
f 30/30/30 32/32/32 31/31/31
f 32/32/32 33/33/33 31/31/31
f 32/32/32 34/34/34 33/33/33
f 35/35/35 36/36/36 37/37/37
f 37/37/37 38/38/38 35/35/35
f 38/38/38 39/39/39 35/35/35
f 38/38/38 40/40/40 39/39/39
f 38/38/38 41/41/41 40/40/40
f 41/41/41 42/42/42 40/40/40
f 41/41/41 43/43/43 42/42/42
f 43/43/43 44/44/44 42/42/42
f 43/43/43 45/45/45 44/44/44
f 45/45/45 46/46/46 44/44/44
f 45/45/45 47/47/47 46/46/46
f 47/47/47 48/48/48 46/46/46
f 47/47/47 49/49/49 48/48/48
f 49/49/49 50/50/50 48/48/48
f 51/51/51 52/52/52 53/53/53
f 51/51/51 53/53/53 54/54/54
f 55/55/55 56/56/56 57/57/57
f 55/55/55 57/57/57 58/58/58
f 58/58/58 59/59/59 60/60/60
f 58/58/58 60/60/60 61/61/61
f 62/62/62 63/63/63 64/64/64
f 62/62/62 64/64/64 65/65/65
f 66/66/66 67/67/67 68/68/68
f 66/66/66 68/68/68 69/69/69
f 69/69/69 70/70/70 71/71/71
f 69/69/69 71/71/71 72/72/72
f 72/72/72 73/73/73 74/74/74
f 72/72/72 74/74/74 75/75/75
f 76/76/76 77/77/77 78/78/78
f 76/76/76 78/78/78 79/79/79
f 80/80/80 81/81/81 82/82/82
f 80/80/80 82/82/82 83/83/83
f 83/83/83 84/84/84 85/85/85
f 83/83/83 85/85/85 86/86/86
f 87/87/87 88/88/88 89/89/89
f 87/87/87 89/89/89 90/90/90
f 91/91/91 92/92/92 93/93/93
f 91/91/91 93/93/93 94/94/94
f 94/94/94 95/95/95 96/96/96
f 94/94/94 96/96/96 97/97/97
f 98/98/98 99/99/99 100/100/100
f 98/98/98 100/100/100 101/101/101
f 102/102/102 103/103/103 104/104/104
f 102/102/102 104/104/104 105/105/105
f 105/105/105 106/106/106 107/107/107
f 105/105/105 107/107/107 108/108/108
f 109/109/109 110/110/110 111/111/111
f 111/111/111 112/112/112 109/109/109
f 111/111/111 113/113/113 112/112/112
f 113/113/113 114/114/114 112/112/112
f 114/114/114 115/115/115 112/112/112
f 114/114/114 116/116/116 115/115/115
f 116/116/116 117/117/117 115/115/115
f 116/116/116 118/118/118 117/117/117
f 118/118/118 119/119/119 117/117/117
f 118/118/118 120/120/120 119/119/119
f 120/120/120 121/121/121 119/119/119
f 120/120/120 122/122/122 121/121/121
f 122/122/122 123/123/123 121/121/121
f 122/122/122 124/124/124 123/123/123
f 125/125/125 126/126/126 127/127/127
f 125/125/125 128/128/128 126/126/126
f 128/128/128 129/129/129 126/126/126
f 128/128/128 130/130/130 129/129/129
f 130/130/130 131/131/131 129/129/129
f 130/130/130 132/132/132 131/131/131
f 132/132/132 133/133/133 131/131/131
f 132/132/132 134/134/134 133/133/133
f 134/134/134 135/135/135 133/133/133
f 134/134/134 136/136/136 135/135/135
f 136/136/136 137/137/137 135/135/135
f 136/136/136 138/138/138 137/137/137
f 138/138/138 139/139/139 137/137/137
f 138/138/138 140/140/140 139/139/139
f 140/140/140 141/141/141 139/139/139
f 140/140/140 142/142/142 141/141/141
f 142/142/142 143/143/143 141/141/141
f 142/142/142 144/144/144 143/143/143
f 144/144/144 145/145/145 143/143/143
f 144/144/144 146/146/146 145/145/145
f 146/146/146 147/147/147 145/145/145
f 146/146/146 148/148/148 147/147/147
f 148/148/148 149/149/149 147/147/147
f 148/148/148 150/150/150 149/149/149
f 150/150/150 151/151/151 149/149/149
f 150/150/150 152/152/152 151/151/151
f 152/152/152 153/153/153 151/151/151
f 152/152/152 154/154/154 153/153/153
f 154/154/154 155/155/155 153/153/153
f 154/154/154 156/156/156 155/155/155
f 156/156/156 157/157/157 155/155/155
f 156/156/156 158/158/158 157/157/157
