# Binbag1_col
v 0.44318229 0.273168683 0.293381572
v 0.200513735 0.628377914 0.239448473
v -0.160426632 0.619374216 0.18816866
v 0.143146798 0.758378148 0.0018933072
v -0.247130811 -0.00171814696 0.197291434
v 0.363335103 -0.00353014935 0.215624988
v 0.489508718 0.239372775 0.101286732
v -0.478100091 -0.000127684325 0.0665204152
v 0.140886933 0.73288244 -0.295691937
v 0.485408723 0.278859019 -0.134347394
v 0.443852037 -0.00461462326 0.105823092
v -0.190137058 0.627141953 -0.163658768
v -0.0600395575 -0.00343467202 -0.246160269
v -0.115299314 0.167637065 -0.241626665
v -0.430474013 -0.0012175903 -0.0684487596
v 0.30534941 -0.00575148733 -0.157579035
g submesh0
f 1 2 3
f 4 2 1
f 3 2 4
f 3 5 1
f 5 6 1
f 7 4 1
f 6 7 1
f 5 3 8
f 8 6 5
f 9 3 4
f 10 4 7
f 9 4 10
f 7 6 11
f 11 10 7
f 3 9 12
f 3 12 8
f 13 6 8
f 13 11 6
f 10 14 9
f 14 12 9
f 12 15 8
f 13 8 15
f 14 15 12
f 14 13 15
f 10 11 16
f 10 16 14
f 14 16 13
f 16 11 13
