# Binbag4_col
v 0.280790299 0.00014063358 -0.194109231
v -0.273558915 0.000189146987 -0.214988545
v 0.0367378891 0.315119267 -0.276413172
v -0.360781848 0.00264994148 -0.0267247036
v -0.253899306 0.357461601 -0.114725128
v 0.251807451 0.410406709 0.0569577031
v 0.106853761 0.488059849 -0.0845913291
v 0.000102944374 0.46760422 -0.0132911699
v 0.119486786 0.423939735 0.184259683
v -0.226356238 0.424308151 0.185131758
v 0.106875055 0.247276038 0.271437794
v 0.360781848 0.000152330394 -0.025874611
v 0.210193381 0.00072237011 0.186344683
v -0.218455195 0.000313072203 0.192553446
g submesh0
f 1 2 3
f 1 4 2
f 2 5 3
f 4 5 2
f 1 3 6
f 3 5 7
f 6 3 7
f 7 5 8
f 8 9 7
f 6 7 9
f 8 5 10
f 10 9 8
f 4 10 5
f 9 11 6
f 11 9 10
f 1 6 12
f 6 11 12
f 12 13 1
f 1 13 4
f 12 11 13
f 14 11 10
f 14 10 4
f 14 13 11
f 4 13 14
