# blocker_barrels_100x450_stage_2_wood_col
v 0.742675006 1.18071997 0.277171105
v 0.742675006 1.13778245 0.277171105
v 0.742632747 1.16665494 0.139894679
v 0.0143440543 1.19852734 0.381472439
v 0.742675006 1.13778245 0.277171105
v 0.742675006 1.18071997 0.277171105
v 0.0143180806 1.21372581 0.252181619
v 0.742675006 1.13778245 0.277171105
v 0.742632747 1.16665494 0.139894679
v 0.742675006 1.18071997 0.277171105
v 0.742632747 1.16665494 0.139894679
v -0.525607169 1.22291267 0.072305657
v 2.33554697 1.17405963 -0.4844293
v 2.33554697 1.21699715 -0.4844293
v -0.598829985 1.19817269 -0.152114302
v 2.33554697 1.17405963 -0.4844293
v 2.33554697 1.19405115 -0.739339352
v -0.598829985 1.25753975 -0.152114302
v 2.33554697 1.21699715 -0.4844293
v 2.33554697 1.23698866 -0.739339352
v 2.33554697 1.23698866 -0.739339352
v 2.33554697 1.19405115 -0.739339352
v 2.33554697 1.21699715 -0.4844293
v 2.33554697 1.17405963 -0.4844293
v 0.468817621 1.14271426 0.294287533
v 0.467679858 1.09482217 0.294350177
v 0.466867447 1.1188643 -0.0830847025
v -0.647595942 1.23207295 0.101208091
v -0.637401938 1.27896512 0.103761025
v -0.592095673 1.22476625 0.361289293
v 0.467679858 1.09482217 0.294350177
v 0.466867447 1.1188643 -0.0830847025
v -0.581901133 1.27165818 0.363841951
v 0.468817621 1.14271426 0.294287533
v 0.466867447 1.1188643 -0.0830847025
v 0.468817621 1.14271426 0.294287533
v 0.467679858 1.09482217 0.294350177
v 1.50456738 1.23342359 -0.184071645
v 2.20581198 1.21255767 0.314327657
v 1.50194216 1.25339448 -0.183019862
v 1.52090204 1.21171141 -0.181116268
v 0.634963036 1.09701741 0.286496371
v 0.648970246 1.10057306 -0.093732357
v 2.27005386 1.31054425 0.106216744
v 2.39541864 1.35116577 0.146720424
v 2.15724969 1.29569316 -0.0515726544
v 1.52090204 1.21171141 -0.181116268
v 2.34613395 1.32056022 -0.122363299
v 2.32697034 1.31803739 -0.208216965
v 2.26464343 1.35806608 0.104024731
v 0.634941518 1.14287448 0.283395767
v 2.15662074 1.34384453 -0.0619882196
v 1.52978516 1.26150596 -0.179478467
v 2.34072375 1.36808228 -0.124555349
v 2.32155967 1.36555934 -0.21040912
v 1.52978516 1.26150596 -0.179478467
v 0.649077415 1.1446234 -0.0956851169
v 0.634941518 1.14287448 0.283395767
v 0.634963036 1.09701741 0.286496371
v 2.39541864 1.35116577 0.146720424
v 2.27005386 1.31054425 0.106216744
v 2.26464343 1.35806608 0.104024731
v 2.15724969 1.29569316 -0.0515726544
v 2.15662074 1.34384453 -0.0619882196
v 2.34613395 1.32056022 -0.122363299
v 2.34072375 1.36808228 -0.124555349
v 2.32697034 1.31803739 -0.208216965
v 2.32155967 1.36555934 -0.21040912
v 1.52978516 1.26150596 -0.179478467
v 1.52090204 1.21171141 -0.181116268
v 1.60758615 1.17320991 -0.639037013
v -1.31727934 1.16887355 -0.547975242
v -1.303442 1.1817534 -0.173667312
v 1.61803818 1.16521335 -0.264650106
v -1.303442 1.1817534 -0.173667312
v -1.30798852 1.13735509 -0.171693429
v 1.61743712 1.12223518 -0.266862392
v 1.61803818 1.16521335 -0.264650106
v -1.32182717 1.12453783 -0.546001494
v 1.60698664 1.13017678 -0.641249239
v 1.61743712 1.12223518 -0.266862392
v -1.30798852 1.13735509 -0.171693429
v 1.60698664 1.13017678 -0.641249239
v -1.32182717 1.12453783 -0.546001494
v -1.31727934 1.16887355 -0.547975242
v 1.60758615 1.17320991 -0.639037013
v -0.987403691 1.21674252 -0.169812635
v -1.00171685 1.21693993 -0.412249327
v -1.46698499 1.22314429 -0.397174031
v -2.13375187 1.24119318 0.110561684
v -2.12501144 1.23987317 -0.286240786
v -2.20088577 1.23995852 -0.21281749
v -2.31517577 1.22743011 -0.219594792
v -2.13266468 1.20815361 0.107486315
v -2.20101643 1.20462668 -0.212817416
v -2.11595869 1.20504642 -0.290800959
v -1.46586585 1.16088891 -0.397233963
v -0.987488151 1.14754987 -0.171196908
v -1.00171614 1.14887321 -0.412249476
v -1.46586585 1.16088891 -0.397233963
v -1.00171685 1.21693993 -0.412249327
v -1.00171614 1.14887321 -0.412249476
v -1.46698499 1.22314429 -0.397174031
v -2.11595869 1.20504642 -0.290800959
v -2.12501144 1.23987317 -0.286240786
v -2.20101643 1.20462668 -0.212817416
v -2.20088577 1.23995852 -0.21281749
v -2.31517577 1.22743011 -0.219594792
v -2.13266468 1.20815361 0.107486315
v -0.987488151 1.14754987 -0.171196908
v -0.987403691 1.21674252 -0.169812635
v -2.13375187 1.24119318 0.110561684
v -0.620564282 1.13115394 -0.0255580135
v -0.523905396 1.15798628 0.393116593
v -0.82385993 1.14697528 0.396917015
v -1.35784996 1.16518891 0.333793908
v -1.40444517 1.16198695 0.0256344676
v -1.63742197 1.21044648 0.407694429
v -1.65875113 1.2084986 -0.0163138807
v -2.18764877 1.29464936 0.0767001212
v -2.19158554 1.2953428 0.375865579
v -2.18011022 1.36041594 0.375865698
v -1.63742197 1.21044648 0.407694429
v -1.62881553 1.27284789 0.407694578
v -1.35211229 1.22491884 0.333793968
v -1.35784996 1.16518891 0.333793908
v -0.82385993 1.14697528 0.396917015
v -0.821797073 1.19594991 0.396917015
v -0.523905396 1.15798628 0.393116593
v -2.17617488 1.3597219 0.076700002
v -1.62881553 1.27284789 0.407694578
v -1.64961529 1.27199507 -0.016462177
v -1.64961529 1.27199507 -0.016462177
v -1.65875113 1.2084986 -0.0163138807
v -1.39764702 1.22390723 0.0254221559
v -1.35211229 1.22491884 0.333793968
v -0.619285941 1.17857301 -0.0258281268
v -0.821797073 1.19594991 0.396917015
v -0.523905396 1.15798628 0.393116593
v -1.39764702 1.22390723 0.0254221559
v -1.40444517 1.16198695 0.0256344676
v -0.620564282 1.13115394 -0.0255580135
v -0.619285941 1.17857301 -0.0258281268
v -0.523905396 1.15798628 0.393116593
v 2.2976954 1.19764948 0.184169382
v 1.50456738 1.23342359 -0.184071645
v 1.59572136 1.24501038 -0.315841973
v 2.20581198 1.21255767 0.314327657
v 1.50194216 1.25339448 -0.183019862
v 2.29671502 1.23013043 0.182568952
v 1.59317696 1.26568091 -0.314924657
v 1.59572136 1.24501038 -0.315841973
v 2.29671502 1.23013043 0.182568952
v 2.2976954 1.19764948 0.184169382
v 1.59317696 1.26568091 -0.314924657
v 1.52090204 1.21171141 -0.181116268
v 0.648970246 1.10057306 -0.093732357
v 0.649077415 1.1446234 -0.0956851169
v 1.52978516 1.26150596 -0.179478467
vt 0.625 0
vt 0.375 0
vt 0.515006125 0.25
vt 0.521615982 0.75
vt 0.375 1
vt 0.625 1
vt 0.49111557 0.5
vt 0.125 0.75
vt 0.125 0.5
vt 0.875 0.75
vt 0.875 0.5
vt 0.493035197 0.75
vt 0.375 1
vt 0.625 1
vt 0.375 0.5
vt 0.125 0.75
vt 0.125 0.5
vt 0.625 0.5
vt 0.875 0.75
vt 0.875 0.5
vt 0.625 0.25
vt 0.375 0.25
vt 0.625 0
vt 0.375 0
vt 0.625 0
vt 0.375 0
vt 0.500758648 0.25
vt 0.375 0.5
vt 0.625 0.5
vt 0.375 0.75
vt 0.125 0.75
vt 0.125 0.5
vt 0.625 0.75
vt 0.875 0.75
vt 0.875 0.5
vt 0.625 1
vt 0.375 1
vt 0.813586235 -1.88375689E-05
vt 0.818951488 0.258029103
vt 0.829105139 1.09796256E-05
vt 0.309191883 0.286928296
vt 0.415127039 0.591381311
vt 0.304236382 0.579365134
vt 0.412256867 0.0419263616
vt 0.42923668 0
vt 0.358474046 0.0744249448
vt 0.309191883 0.286928296
vt 0.338104278 0.0107051078
vt 0.30908075 0.014993418
vt 0.412256896 0.0419263467
vt 0.415121526 0.591317117
vt 0.356313854 0.0721764714
vt 0.308492482 0.281975806
vt 0.338103324 0.0107050817
vt 0.309080511 0.0149933081
vt 0.308492482 0.281975806
vt 0.304236382 0.579365134
vt 0.813586354 0.588141143
vt 0.829105258 0.588206589
vt 0.82130897 -0.00252762646
vt 0.829105139 0.0235246513
vt 0.813586235 0.023524629
vt 0.82910502 0.0626003444
vt 0.813586116 0.0633107573
vt 0.829104543 0.0827421248
vt 0.813585758 0.0827420801
vt 0.829104781 0.078747876
vt 0.813585997 0.0787478238
vt 0.812997282 0.284455299
vt 0.828427553 0.289408445
vt 0.304236442 9.28458306E-08
vt 0.304236352 1
vt 0.429236561 1
vt 0.42923668 0
vt 0.813586473 1
vt 0.829105377 1
vt 0.829105139 0
vt 0.813586235 0
vt 0.304236352 1
vt 0.304236442 9.28458306E-08
vt 0.42923668 0
vt 0.429236561 1
vt 0.829105139 0
vt 0.829105377 1
vt 0.813586473 1
vt 0.813586235 0
vt 0.340225577 1.00016475
vt 0.429236561 1
vt 0.429236561 0.844476283
vt 0.304236382 0.579308867
vt 0.429236621 0.62295872
vt 0.415138334 0.591341376
vt 0.42923665 0.555555582
vt 0.304236382 0.580004096
vt 0.415138334 0.591341376
vt 0.429236591 0.626336753
vt 0.429236561 0.844848394
vt 0.34025982 1.00016153
vt 0.429236561 1
vt 0.829105318 0.844848394
vt 0.813586473 1
vt 0.829105377 1
vt 0.813586473 0.844476283
vt 0.829105318 0.626336753
vt 0.813586473 0.62295872
vt 0.829105258 0.588169217
vt 0.813586354 0.588169217
vt 0.82138741 0.555555582
vt 0.829105258 0.580004096
vt 0.829105437 1.00016296
vt 0.813586473 1.00015867
vt 0.813586354 0.579308867
vt 0.124891952 0.5
vt 0.125 0.75
vt 0.169940144 0.75
vt 0.25 0.75
vt 0.25 0.5
vt 0.3125 0.75
vt 0.3125 0.5
vt 0.375 0.5
vt 0.375 0.75
vt 0.625 0.75
vt 0.375 0.8125
vt 0.625 0.8125
vt 0.625 0.875
vt 0.375 0.875
vt 0.375 0.955059886
vt 0.625 0.955059886
vt 0.498638928 1
vt 0.625 0.5
vt 0.6875 0.75
vt 0.625 0.4375
vt 0.6875 0.5
vt 0.375 0.4375
vt 0.75 0.5
vt 0.75 0.75
vt 0.874971151 0.5
vt 0.830059886 0.75
vt 0.875 0.75
vt 0.625 0.375
vt 0.375 0.375
vt 0.375 0.249891952
vt 0.625 0.250028849
vt 0.498638928 0
vt 0.768716395 0.258028388
vt 0.810380816 -1.89269304E-05
vt 0.768716395 -1.02133927E-05
vt 0.810380816 0.258028388
vt 0.810380816 1.08901922E-05
vt 0.768716395 0.258028388
vt 0.768716395 6.96323923E-06
vt 0.813586235 -1.01240103E-05
vt 0.829105377 0.258029103
vt 0.813586473 0.258029103
vt 0.829105139 7.05266393E-06
vt 0.828427553 0.289408445
vt 0.829105258 0.579365134
vt 0.813586354 0.579365134
vt 0.812997282 0.284455299
g submesh0
f 1/1 2/2 3/3
f 4/4 5/5 6/6
f 7/7 8/8 4/4
f 7/7 9/9 8/8
f 7/7 4/4 10/10
f 7/7 10/10 11/11
f 12/12 13/13 14/14
f 15/15 16/16 12/12
f 15/15 17/17 16/16
f 18/18 15/15 12/12
f 18/18 12/12 19/19
f 18/18 19/19 20/20
f 21/21 15/15 18/18
f 21/21 22/22 15/15
f 23/23 22/22 21/21
f 23/23 24/24 22/22
f 25/25 26/26 27/27
f 27/27 28/28 29/29
f 29/29 28/28 30/30
f 28/28 31/31 30/30
f 28/28 32/32 31/31
f 29/29 30/30 33/33
f 29/29 33/33 34/34
f 29/29 34/34 35/35
f 30/30 36/36 33/33
f 30/30 37/37 36/36
f 38/38 39/39 40/40
f 41/41 42/42 43/43
f 42/42 44/44 45/45
f 42/42 46/46 44/44
f 42/42 47/47 46/46
f 46/46 47/47 48/48
f 48/48 47/47 49/49
f 50/50 51/51 45/45
f 52/52 51/51 50/50
f 52/52 53/53 51/51
f 52/52 54/54 53/53
f 53/53 54/54 55/55
f 56/56 57/57 51/51
f 58/58 59/59 60/60
f 60/60 61/61 62/62
f 62/62 61/61 63/63
f 62/62 63/63 64/64
f 65/65 64/64 63/63
f 65/65 66/66 64/64
f 66/66 65/65 67/67
f 66/66 67/67 68/68
f 69/69 68/68 67/67
f 69/69 67/67 70/70
f 71/71 72/72 73/73
f 71/71 73/73 74/74
f 75/75 76/76 77/77
f 75/75 77/77 78/78
f 79/79 80/80 81/81
f 79/79 81/81 82/82
f 83/83 84/84 85/85
f 83/83 85/85 86/86
f 87/87 88/88 89/89
f 89/89 90/90 87/87
f 89/89 91/91 90/90
f 90/90 91/91 92/92
f 90/90 92/92 93/93
f 90/90 93/93 94/94
f 95/95 94/94 93/93
f 95/95 96/96 94/94
f 97/97 94/94 96/96
f 97/97 98/98 94/94
f 98/98 97/97 99/99
f 100/100 101/101 102/102
f 100/100 103/103 101/101
f 104/104 103/103 100/100
f 104/104 105/105 103/103
f 106/106 105/105 104/104
f 106/106 107/107 105/105
f 107/107 106/106 108/108
f 109/109 110/110 111/111
f 109/109 111/111 112/112
f 113/113 114/114 115/115
f 113/113 115/115 116/116
f 113/113 116/116 117/117
f 117/117 116/116 118/118
f 117/117 118/118 119/119
f 120/120 119/119 118/118
f 120/120 118/118 121/121
f 120/120 121/121 122/122
f 122/122 121/121 123/123
f 122/122 123/123 124/124
f 123/123 125/125 124/124
f 123/123 126/126 125/125
f 125/125 126/126 127/127
f 125/125 127/127 128/128
f 127/127 129/129 128/128
f 120/120 122/122 130/130
f 130/130 122/122 131/131
f 132/132 120/120 130/130
f 130/130 131/131 133/133
f 132/132 134/134 120/120
f 135/135 133/133 131/131
f 135/135 131/131 136/136
f 137/137 135/135 136/136
f 137/137 136/136 138/138
f 137/137 138/138 139/139
f 140/140 134/134 132/132
f 140/140 141/141 134/134
f 142/142 141/141 140/140
f 142/142 140/140 143/143
f 144/144 142/142 143/143
f 145/145 146/146 147/147
f 145/145 148/148 146/146
f 149/149 148/148 150/150
f 149/149 150/150 151/151
f 152/152 153/153 154/154
f 152/152 155/155 153/153
f 156/156 157/157 158/158
f 156/156 158/158 159/159
