# block.stair.landing.150x300_collision
v 1.50000489 1.48776817 9.70691144E-06
v 1.50000489 1.48776817 -1.49998975
v -1.50523007 1.48776817 -1.49998975
v 4.88281239E-06 1.48776817 9.70691144E-06
v 4.19616708E-06 1.48776817 0.248967484
v -1.50523102 1.48776805 0.248966873
v -1.50523007 1.35461259 -1.49998975
v 1.50000489 1.35461259 -1.49998975
v 1.50000489 1.35461259 9.70691144E-06
v 4.88281239E-06 1.35461259 9.70691144E-06
v 4.19616708E-06 1.35461235 0.248967484
v -1.50523102 1.35461235 0.248966798
v 1.50000489 1.35461259 9.70691144E-06
v 1.50000489 1.35461259 -1.49998975
v 1.50000489 1.48776817 -1.49998975
v 1.50000489 1.48776817 9.70691144E-06
v 1.50000489 1.35461259 -1.49998975
v -1.50523007 1.35461259 -1.49998975
v -1.50523007 1.48776817 -1.49998975
v 1.50000489 1.48776817 -1.49998975
v 1.50000489 1.48776817 9.70691144E-06
v 4.88281239E-06 1.48776817 9.70691144E-06
v 4.88281239E-06 1.35461259 9.70691144E-06
v 1.50000489 1.35461259 9.70691144E-06
v 4.19616708E-06 1.35461235 0.248967484
v 4.19616708E-06 1.48776817 0.248967484
v -1.50523102 1.48776805 0.248966873
v -1.50523102 1.35461235 0.248966798
v -1.50523007 1.48776817 -1.49998975
v -1.50523007 1.35461259 -1.49998975
v 4.88281239E-06 1.35461259 9.70691144E-06
v 4.88281239E-06 1.48776817 9.70691144E-06
v 4.19616708E-06 1.48776817 0.248967484
v 4.19616708E-06 1.35461235 0.248967484
vt 0.250732332 0.500298262
vt 0.000603660941 0.500228524
vt 0.0004553115 1.00048375
vt 0.250678033 0.750442445
vt 0.292205691 0.750475049
vt 0.292093694 1.00060427
vt 0.500590146 -0.00162398722
vt -0.00376158208 -0.00230112672
vt -0.0038442798 0.267840147
vt 0.249137595 0.26745677
vt 0.249808282 0.311448663
vt 0.499634266 0.311846524
vt 0.935264051 0.250591904
vt 0.935263991 0.000456781418
vt 0.959344327 0.000455856381
vt 0.959349573 0.250530541
vt 0.935265839 0.498123825
vt 0.93526572 0.000458052411
vt 0.959345281 0.000455830537
vt 0.959352911 0.498119384
vt 0.9593454 0.000455829664
vt 0.95935297 0.249290928
vt 0.935269594 0.249288723
vt 0.935269594 0.000455832633
vt 0.935268581 0.25059098
vt 0.959344327 0.25059098
vt 0.959353387 0.000406884996
vt 0.935268521 0.000455826521
vt 0.959336221 0.285416752
vt 0.935269535 0.285638005
vt 0.935258567 0.0437997095
vt 0.9593454 0.0437897593
vt 0.959367216 3.87632026E-05
vt 0.935258567 0.000465780759
g submesh0
f 1/1 2/2 3/3
f 1/1 3/3 4/4
f 3/3 5/5 4/4
f 3/3 6/6 5/5
f 7/7 8/8 9/9
f 7/7 9/9 10/10
f 11/11 7/7 10/10
f 11/11 12/12 7/7
f 13/13 14/14 15/15
f 13/13 15/15 16/16
f 17/17 18/18 19/19
f 17/17 19/19 20/20
f 21/21 22/22 23/23
f 21/21 23/23 24/24
f 25/25 26/26 27/27
f 25/25 27/27 28/28
f 28/28 27/27 29/29
f 28/28 29/29 30/30
f 31/31 32/32 33/33
f 31/31 33/33 34/34
