# blocker_barrels_100x450_stage_1_wood_col
v -1.31727922 1.16887355 -0.547975183
v -1.32182705 1.12453783 -0.546001554
v -1.303442 1.18175352 -0.173667327
v -1.30798876 1.13735497 -0.171693474
v 1.60758615 1.17321002 -0.639037013
v -1.31727922 1.16887355 -0.547975183
v -1.303442 1.18175352 -0.173667327
v 1.61803794 1.16521335 -0.264650136
v 1.60698676 1.1301769 -0.641249061
v 1.61743689 1.12223518 -0.266862422
v -1.32182705 1.12453783 -0.546001554
v -1.30798876 1.13735497 -0.171693474
v -1.303442 1.18175352 -0.173667327
v -1.30798876 1.13735497 -0.171693474
v 1.61743689 1.12223518 -0.266862422
v 1.61803794 1.16521335 -0.264650136
v -1.31727922 1.16887355 -0.547975183
v 1.60758615 1.17321002 -0.639037013
v 1.60698676 1.1301769 -0.641249061
v -1.32182705 1.12453783 -0.546001554
v -0.851395845 -0.0237472057 0.76720196
v -0.827570081 1.41907573 0.427509159
v -0.836648822 1.40947521 0.387539238
v -0.855777323 -0.0340486765 0.726623118
v -0.623593032 -0.0151246786 0.738115966
v -0.598736227 1.40443504 0.377244323
v -0.827570081 1.41907573 0.427509159
v -0.851395845 -0.0237472057 0.76720196
v -0.598736227 1.40443504 0.377244323
v -0.623593032 -0.0151246786 0.738115966
v -0.627974391 -0.025426507 0.697537422
v -0.607815206 1.39483392 0.337274462
v -2.1322329 1.23993552 0.11470677
v -0.987100303 1.21694005 -0.164018795
v -1.00171685 1.21694005 -0.412249416
v -2.13490844 1.23965943 -0.278729022
v -2.31605744 1.24981332 -0.21986267
v -1.00171685 1.21694005 -0.412249416
v -1.00171626 1.14887321 -0.412249476
v -2.13503909 1.20404923 -0.278729171
v -2.13490844 1.23965943 -0.278729022
v -2.3161881 1.20529115 -0.219862625
v -2.31605744 1.24981332 -0.21986267
v -2.31605744 1.24981332 -0.21986267
v -2.3161881 1.20529115 -0.219862625
v -2.1322329 1.23993552 0.11470677
v -2.13236356 1.2045815 0.114706837
v -2.13503909 1.20404923 -0.278729171
v -2.13236356 1.2045815 0.114706837
v -2.3161881 1.20529115 -0.219862625
v -1.00171626 1.14887321 -0.412249476
v -0.987100065 1.14887381 -0.164018854
v -2.13236356 1.2045815 0.114706837
v -0.987100065 1.14887381 -0.164018854
v -0.987100303 1.21694005 -0.164018795
v -2.1322329 1.23993552 0.11470677
v 1.34359384 1.22969663 0.0222497191
v -0.0738691837 1.18443191 0.284386069
v -0.0732901841 1.21395731 0.28434822
v 1.34144938 1.26866555 0.0200601425
v -0.0732901841 1.21395731 0.28434822
v -0.0533357412 1.2168256 0.407554477
v 1.36254478 1.27662706 0.142994434
v 1.34144938 1.26866555 0.0200601425
v 1.36468828 1.2372905 0.14520219
v 1.36254478 1.27662706 0.142994434
v -0.0533357412 1.2168256 0.407554477
v -0.0538916141 1.18559587 0.407678664
v 2.36677504 1.1996882 -0.124555327
v 2.34744549 1.1996882 -0.21040906
v -0.649640083 1.1996882 0.103760973
v 2.19356918 1.1996882 -0.0639151409
v 2.29003811 1.1996882 0.104024731
v -0.593660653 1.1996882 0.363841951
v 2.41921282 1.1996882 0.145624548
v -0.593660653 1.1996882 0.363841951
v -0.59764725 1.15186656 0.361289203
v 2.41837478 1.15186656 0.147816509
v 2.41921282 1.1996882 0.145624548
v 2.41837478 1.15186656 0.147816509
v 2.29003811 1.1996882 0.104024731
v 2.41921282 1.1996882 0.145624548
v 2.28919935 1.15186656 0.106216751
v 2.1927309 1.15186656 -0.0617231205
v 2.19356918 1.1996882 -0.0639151409
v 2.36593628 1.15186656 -0.122363307
v 2.36677504 1.1996882 -0.124555327
v 2.34660721 1.15186656 -0.208217084
v 2.34744549 1.1996882 -0.21040906
v -0.649640083 1.1996882 0.103760973
v -0.653626263 1.15186656 0.101208054
v -0.653626263 1.15186656 0.101208054
v 2.34660721 1.15186656 -0.208217084
v 2.36593628 1.15186656 -0.122363307
v 2.1927309 1.15186656 -0.0617231205
v 2.28919935 1.15186656 0.106216751
v -0.59764725 1.15186656 0.361289203
v 2.41837478 1.15186656 0.147816509
v 1.50333941 1.23217356 -0.182263047
v 2.20484591 1.23383474 0.313999027
v 1.50116909 1.25384808 -0.181912929
v 2.20582628 1.2013545 0.31559965
v 2.29671526 1.23013043 0.182568923
v 2.29769564 1.19764948 0.184169501
v 1.59433472 1.24420333 -0.313815057
v 1.59216487 1.26587784 -0.313464791
v 1.50116909 1.25384808 -0.181912929
v 2.20484591 1.23383474 0.313999027
v 2.29671526 1.23013043 0.182568923
v 1.59216487 1.26587784 -0.313464791
v -2.19655323 1.21775699 0.375865668
v -2.19255662 1.21775699 0.0767001137
v -2.19255662 1.15168059 0.0767001137
v -2.19655395 1.15167999 0.375865549
v -0.602212012 1.22409451 -0.0237313882
v -2.19255662 1.21775699 0.0767001137
v -2.19655323 1.21775699 0.375865668
v -0.522251427 1.23117268 0.398255795
v -2.19655323 1.21775699 0.375865668
v -2.19655395 1.15167999 0.375865549
v -0.522002161 1.18691027 0.398797601
v -0.522251427 1.23117268 0.398255795
v -2.19255662 1.21775699 0.0767001137
v -0.602212012 1.22409451 -0.0237313882
v -0.601963103 1.17673016 -0.0231895223
v -2.19255662 1.15168059 0.0767001137
v -0.601963103 1.17673016 -0.0231895223
v -0.522002161 1.18691027 0.398797601
v -2.19655395 1.15167999 0.375865549
v -2.19255662 1.15168059 0.0767001137
v 0.785005271 -0.0128486156 0.798744559
v -2.13885832 -0.00975692272 0.797790825
v -2.1388588 -0.0268578529 0.763961375
v 0.785004318 -0.0299496651 0.764914513
v -2.13885832 -0.00975692272 0.797790825
v 0.785004795 0.335939854 0.691133559
v -2.13885832 0.339030743 0.690179527
v 0.785005271 -0.0128486156 0.798744559
v 0.78500402 0.318838716 0.657303631
v 0.785004318 -0.0299496651 0.764914513
v -2.1388588 -0.0268578529 0.763961375
v -2.1388588 0.321930051 0.656350553
v -2.13885832 0.339030743 0.690179527
v -2.1388588 0.321930051 0.656350553
v -2.13885832 -0.00975692272 0.797790825
v -2.1388588 -0.0268578529 0.763961375
v 0.785004795 0.335939854 0.691133559
v 0.78500402 0.318838716 0.657303631
v -2.1388588 0.321930051 0.656350553
v -2.13885832 0.339030743 0.690179527
v -0.410433441 -0.0276941061 0.736086428
v -0.362916529 1.39251947 0.304224819
v -0.361522257 1.40035522 0.331305236
v -0.409039915 -0.0198589563 0.763167202
v -0.361522257 1.40035522 0.331305236
v -0.491506636 1.40839446 0.335668296
v -0.539024889 -0.0118192434 0.767530262
v -0.409039915 -0.0198589563 0.763167202
v -0.540418684 -0.0196545124 0.740449369
v -0.539024889 -0.0118192434 0.767530262
v -0.491506636 1.40839446 0.335668296
v -0.492900431 1.40055919 0.3085877
v 0.693384528 -0.02219522 0.692273915
v 0.693762183 -0.0144803524 0.719422162
v 0.712017715 1.38771737 0.320682019
v 0.711639285 1.3800019 0.293533593
v 0.712017715 1.38771737 0.320682019
v 0.693762183 -0.0144803524 0.719422162
v 0.862923563 -0.0140944719 0.71695441
v 0.88117969 1.38810289 0.318214357
v 0.88117969 1.38810289 0.318214357
v 0.862923563 -0.0140944719 0.71695441
v 0.862544894 -0.0218098164 0.689806283
v 0.88080138 1.38038766 0.291065902
v 1.93618786 1.37844539 0.210760966
v 1.76596093 1.36551511 0.236106828
v 1.9482435 0.00226187706 0.52782768
v 2.11847258 0.0151920319 0.502481639
v 1.76596093 1.36551511 0.236106828
v 1.76237845 1.35919976 0.208830923
v 1.94466197 -0.00405395031 0.500551522
v 1.9482435 0.00226187706 0.52782768
v 2.11489058 0.00887620449 0.475205362
v 1.93260634 1.37212968 0.183484986
v 1.93618786 1.37844539 0.210760966
v 2.11847258 0.0151920319 0.502481639
v 1.94466197 -0.00405395031 0.500551522
v 1.76237845 1.35919976 0.208830923
v 1.93260634 1.37212968 0.183484986
v 2.11489058 0.00887620449 0.475205362
v -1.67322373 1.47098756 0.481108129
v -1.37674034 1.45689416 0.461487085
v -1.44060493 -0.0315202735 0.786046803
v -1.73353028 -0.0142810475 0.784023285
v -1.73225999 -0.00514268503 0.825386465
v -1.66591239 1.47942472 0.522479177
v -1.67322373 1.47098756 0.481108129
v -1.73353028 -0.0142810475 0.784023285
v -1.43933487 -0.0223815404 0.827409744
v -1.36942887 1.46533167 0.502858162
v -1.66591239 1.47942472 0.522479177
v -1.73225999 -0.00514268503 0.825386465
v -1.36942887 1.46533167 0.502858162
v -1.43933487 -0.0223815404 0.827409744
v -1.44060493 -0.0315202735 0.786046803
v -1.37674034 1.45689416 0.461487085
v 2.32250881 1.20920098 -0.728521466
v 2.3597033 1.20920098 -0.50633049
v -0.571616173 1.20920098 0.0762079954
v -0.615571976 1.20920098 -0.147385359
v 2.3597033 1.20920098 -0.50633049
v 2.3597033 1.2546699 -0.50633049
v -0.571616173 1.2546699 0.0762079954
v -0.615571976 1.2546699 -0.147385359
v 2.3597033 1.2546699 -0.50633049
v 2.32250881 1.2546699 -0.728521466
v 2.32250881 1.20920098 -0.728521466
v 2.32250881 1.2546699 -0.728521466
v 2.3597033 1.20920098 -0.50633049
v 2.3597033 1.2546699 -0.50633049
v 0.547326744 -0.0427328348 0.85711211
v 0.549768388 -0.0284053087 0.899487436
v 0.234418333 -0.0244140625 0.913670301
v 0.230004251 -0.0404809713 0.862442255
v 0.241848707 1.511096 0.380928665
v 0.237270653 1.511096 0.341927409
v 0.546916008 1.511096 0.344820559
v 0.549768388 -0.0284053087 0.899487436
v 0.546916008 1.511096 0.344820559
v 0.542338014 1.511096 0.305819333
v 0.549768388 -0.0284053087 0.899487436
v 0.547326744 -0.0427328348 0.85711211
v 0.542338014 1.511096 0.305819333
v 0.546916008 1.511096 0.344820559
vt 0 0
vt 0 0
vt 0 0
vt 0 0
vt 0.304236442 9.28458306E-08
vt 0.304236352 1
vt 0.429236561 1
vt 0.42923668 0
vt 0.304236442 9.28458306E-08
vt 0.42923668 0
vt 0.304236352 1
vt 0.429236561 1
vt 0.813586473 1
vt 0.829105377 1
vt 0.829105139 0
vt 0.813586235 0
vt 0.813586473 1
vt 0.813586235 0
vt 0.829105139 0
vt 0.829105377 1
vt 0.829316497 0.560309649
vt 0.829262555 0.00036659569
vt 0.813746452 0.000372577459
vt 0.813801527 0.56031549
vt 0.308148175 0.559638917
vt 0.307082206 -0.000232715887
vt 0.394024968 0.000246349227
vt 0.393261611 0.560267627
vt 0.828959584 -0.000162419339
vt 0.828889966 0.559634447
vt 0.813374996 0.559640408
vt 0.813443422 -0.000159234332
vt 0.304236382 0.579365134
vt 0.340217501 1
vt 0.429236561 1
vt 0.429236591 0.619047642
vt 0.429236621 0.555555582
vt 0.813586473 1
vt 0.829105377 1
vt 0.829105318 0.619047642
vt 0.813586414 0.619047642
vt 0.829105258 0.555555582
vt 0.813586354 0.555555582
vt 0 0
vt 0 0
vt 0 0
vt 0 0
vt 0.429236591 0.619047642
vt 0.304236382 0.579365134
vt 0.429236621 0.555555582
vt 0.429236561 1
vt 0.340217501 1
vt 0.829105258 0.579365134
vt 0.829105377 1
vt 0.813586473 1
vt 0.813586354 0.579365134
vt 0.813586235 0
vt 0.813586473 0.476913452
vt 0.829105377 0.476913452
vt 0.829105139 0
vt 0.810380816 0.476912737
vt 0.768716395 0.476912737
vt 0.768716395 -8.94069672E-08
vt 0.810380816 -8.94069672E-08
vt 0.813586235 0
vt 0.829105139 0
vt 0.829105377 0.476913452
vt 0.813586473 0.476913452
vt 0.338103324 0.0107050817
vt 0.309080511 0.0149933081
vt 0.340217501 1
vt 0.354053795 0.0698240548
vt 0.412256896 0.0419263467
vt 0.429236561 1
vt 0.42923668 0
vt 0.813586473 1
vt 0.829105377 1
vt 0.829105139 0
vt 0.813586235 0
vt 0.829068422 -0.00252762716
vt 0.813586235 0.023524629
vt 0.813549519 -0.00252762577
vt 0.829105139 0.0235246513
vt 0.82910502 0.0640540794
vt 0.813586116 0.0640540421
vt 0.829104543 0.0827421248
vt 0.813585758 0.0827420801
vt 0.829104781 0.078747876
vt 0.813585997 0.0787478238
vt 0.813586473 1
vt 0.829105377 1
vt 0.340217501 1
vt 0.30908075 0.014993418
vt 0.338104278 0.0107051078
vt 0.354053825 0.0698240399
vt 0.412256867 0.0419263616
vt 0.429236561 1
vt 0.42923668 0
vt 0.813586235 0
vt 0.829105377 0.258029103
vt 0.829105139 0
vt 0.813586473 0.258029103
vt 0.829105377 0.258029103
vt 0.813586473 0.258029103
vt 0.813586235 0
vt 0.829105139 0
vt 0.810380816 -8.94069672E-08
vt 0.810380816 0.258028388
vt 0.768716395 0.258028388
vt 0.768716395 -8.94069672E-08
vt 0 0
vt 0 0
vt 0 0
vt 0 0
vt 0.304236382 0.579365134
vt 0.340217501 1
vt 0.429236561 1
vt 0.429236621 0.555555582
vt 0.813586473 1
vt 0.829105377 1
vt 0.829105258 0.555555582
vt 0.813586354 0.555555582
vt 0.813586473 1
vt 0.813586354 0.579365134
vt 0.829105258 0.579365134
vt 0.829105377 1
vt 0.304236382 0.579365134
vt 0.429236621 0.555555582
vt 0.429236561 1
vt 0.340217501 1
vt 0.813586235 0
vt 0.813586473 1
vt 0.829105377 1
vt 0.829105139 0
vt 0.429236561 1
vt 0.304236442 9.28458306E-08
vt 0.304236352 1
vt 0.42923668 0
vt 0.304236442 9.28458306E-08
vt 0.42923668 0
vt 0.429236561 1
vt 0.304236352 1
vt 0 0
vt 0 0
vt 0 0
vt 0 0
vt 0.813586235 0
vt 0.829105139 0
vt 0.829105377 1
vt 0.813586473 1
vt 0.813586235 0
vt 0.813586473 0.476913452
vt 0.829105377 0.476913452
vt 0.829105139 0
vt 0.810380816 0.476912737
vt 0.768716395 0.476912737
vt 0.768716395 -8.94069672E-08
vt 0.810380816 -8.94069672E-08
vt 0.813586235 0
vt 0.829105139 0
vt 0.829105377 0.476913452
vt 0.813586473 0.476913452
vt 0.813586473 0.476913452
vt 0.829105377 0.476913452
vt 0.829105139 0
vt 0.813586235 0
vt 0.810380816 -8.94069672E-08
vt 0.810380816 0.476912737
vt 0.768716395 0.476912737
vt 0.768716395 -8.94069672E-08
vt 0.829105139 0
vt 0.829105377 0.476913452
vt 0.813586473 0.476913452
vt 0.813586235 0
vt 0.768716395 0.476912737
vt 0.810380816 0.476912737
vt 0.810380816 -8.94069672E-08
vt 0.768716395 -8.94069672E-08
vt 0.813586473 0.476913452
vt 0.829105377 0.476913452
vt 0.829105139 0
vt 0.813586235 0
vt 0.829105139 0
vt 0.829105377 0.476913452
vt 0.813586473 0.476913452
vt 0.813586235 0
vt 0.810380816 -8.94069672E-08
vt 0.810380816 0.476912737
vt 0.768716395 0.476912737
vt 0.768716395 -8.94069672E-08
vt 0.393969983 0.000250778423
vt 0.307027251 -0.000228223071
vt 0.308076262 0.559644938
vt 0.393189639 0.560273468
vt 0.829316497 0.560309649
vt 0.829262555 0.00036659569
vt 0.813746452 0.000372577459
vt 0.813801527 0.56031549
vt 0.308148175 0.559638917
vt 0.307082206 -0.000232715887
vt 0.394024968 0.000246349227
vt 0.393261611 0.560267627
vt 0.828959584 -0.000162419339
vt 0.828889966 0.559634447
vt 0.813374996 0.559640408
vt 0.813443422 -0.000159234332
vt 0.125 0.5
vt 0.125 0.75
vt 0.375 0.75
vt 0.375 0.5
vt 0.375 1
vt 0.625 1
vt 0.625 0.75
vt 0.625 0.5
vt 0.875 0.75
vt 0.875 0.5
vt 0.375 0.25
vt 0.625 0.25
vt 0.375 0
vt 0.625 0
vt 0.125 0.5
vt 0.125 0.75
vt 0.375 0.75
vt 0.375 0.5
vt 0.625 0.75
vt 0.625 0.5
vt 0.625 1
vt 0.375 1
vt 0.875 0.75
vt 0.875 0.5
vt 0.375 0
vt 0.375 0.25
vt 0.625 0.25
vt 0.625 0
g submesh0
f 1/1 2/2 3/3
f 3/3 2/2 4/4
f 5/5 6/6 7/7
f 5/5 7/7 8/8
f 9/9 5/5 8/8
f 9/9 8/8 10/10
f 11/11 9/9 10/10
f 11/11 10/10 12/12
f 13/13 14/14 15/15
f 13/13 15/15 16/16
f 17/17 18/18 19/19
f 17/17 19/19 20/20
f 21/21 22/22 23/23
f 21/21 23/23 24/24
f 25/25 26/26 27/27
f 25/25 27/27 28/28
f 29/29 30/30 31/31
f 29/29 31/31 32/32
f 33/33 34/34 35/35
f 33/33 35/35 36/36
f 37/37 33/33 36/36
f 38/38 39/39 40/40
f 38/38 40/40 41/41
f 41/41 40/40 42/42
f 41/41 42/42 43/43
f 44/44 45/45 46/46
f 45/45 47/47 46/46
f 48/48 49/49 50/50
f 49/49 48/48 51/51
f 49/49 51/51 52/52
f 53/53 54/54 55/55
f 53/53 55/55 56/56
f 57/57 58/58 59/59
f 57/57 59/59 60/60
f 61/61 62/62 63/63
f 61/61 63/63 64/64
f 65/65 66/66 67/67
f 65/65 67/67 68/68
f 69/69 70/70 71/71
f 71/71 72/72 69/69
f 71/71 73/73 72/72
f 71/71 74/74 73/73
f 74/74 75/75 73/73
f 76/76 77/77 78/78
f 76/76 78/78 79/79
f 80/80 81/81 82/82
f 80/80 83/83 81/81
f 84/84 81/81 83/83
f 84/84 85/85 81/81
f 86/86 85/85 84/84
f 86/86 87/87 85/85
f 88/88 87/87 86/86
f 88/88 89/89 87/87
f 88/88 90/90 89/89
f 88/88 91/91 90/90
f 92/92 93/93 94/94
f 94/94 95/95 92/92
f 95/95 96/96 92/92
f 96/96 97/97 92/92
f 96/96 98/98 97/97
f 99/99 100/100 101/101
f 99/99 102/102 100/100
f 103/103 100/100 102/102
f 103/103 102/102 104/104
f 105/105 103/103 104/104
f 105/105 106/106 103/103
f 107/107 108/108 109/109
f 107/107 109/109 110/110
f 111/111 112/112 113/113
f 111/111 113/113 114/114
f 115/115 116/116 117/117
f 115/115 117/117 118/118
f 119/119 120/120 121/121
f 119/119 121/121 122/122
f 123/123 124/124 125/125
f 123/123 125/125 126/126
f 127/127 128/128 129/129
f 127/127 129/129 130/130
f 131/131 132/132 133/133
f 131/131 133/133 134/134
f 135/135 136/136 137/137
f 135/135 138/138 136/136
f 139/139 136/136 138/138
f 139/139 138/138 140/140
f 141/141 139/139 140/140
f 141/141 142/142 139/139
f 143/143 144/144 145/145
f 145/145 144/144 146/146
f 147/147 148/148 149/149
f 147/147 149/149 150/150
f 151/151 152/152 153/153
f 151/151 153/153 154/154
f 155/155 156/156 157/157
f 155/155 157/157 158/158
f 159/159 160/160 161/161
f 159/159 161/161 162/162
f 163/163 164/164 165/165
f 163/163 165/165 166/166
f 167/167 168/168 169/169
f 167/167 169/169 170/170
f 171/171 172/172 173/173
f 171/171 173/173 174/174
f 175/175 176/176 177/177
f 175/175 177/177 178/178
f 179/179 180/180 181/181
f 179/179 181/181 182/182
f 183/183 184/184 185/185
f 183/183 185/185 186/186
f 187/187 188/188 189/189
f 187/187 189/189 190/190
f 191/191 192/192 193/193
f 191/191 193/193 194/194
f 195/195 196/196 197/197
f 195/195 197/197 198/198
f 199/199 200/200 201/201
f 199/199 201/201 202/202
f 203/203 204/204 205/205
f 203/203 205/205 206/206
f 207/207 208/208 209/209
f 207/207 209/209 210/210
f 209/209 211/211 212/212
f 209/209 212/212 213/213
f 214/214 213/213 215/215
f 214/214 215/215 216/216
f 217/217 210/210 214/214
f 217/217 214/214 218/218
f 219/219 217/217 218/218
f 219/219 218/218 220/220
f 221/221 222/222 223/223
f 221/221 223/223 224/224
f 224/224 223/223 225/225
f 224/224 225/225 226/226
f 223/223 227/227 225/225
f 223/223 228/228 227/227
f 226/226 225/225 229/229
f 226/226 229/229 230/230
f 231/231 232/232 233/233
f 231/231 233/233 234/234
