# block.stair.Ushape_DetailCollider
v 1.53845894 1.37537491 -1.54085338
v -1.53897989 1.37537563 0.0643527657
v -1.53898013 1.37537491 -1.54085338
v 1.53845918 1.37537563 0.017349612
v 1.53845918 1.55419326 0.104056433
v 1.53845894 1.37537491 -1.54085338
v 1.53845894 1.55419266 -1.54085338
v -1.53898013 1.37537491 -1.54085338
v -1.53898013 1.55419266 -1.5408535
v -1.53897989 1.55419326 0.0412358306
v -1.53898013 1.55419266 -1.5408535
v 1.53845894 1.55419266 -1.54085338
v -1.39840674 2.99426174 1.37503994
v -1.39872253 2.99426174 1.59473205
v -0.117608719 2.99404955 1.59473145
v -1.39824891 2.94086671 1.5089407
v -0.115249105 2.99426174 1.3750397
v -0.116196439 2.94081879 1.50921571
v 1.39840388 1.30648112 0.135210797
v 0.115246601 1.30648148 0.135211155
v 0.115246609 1.30648148 0.309612691
v 0.116351433 1.25299883 0.173288092
v 1.39840388 1.30648112 0.309612483
v 1.39840424 1.25311875 0.173405528
v 1.39840448 1.1201123 0.305378199
v 0.115247451 1.12011254 0.305378109
v 0.115247406 1.12011254 0.492522866
v 0.116194315 1.06664705 0.355993479
v 1.39840448 1.12011242 0.492523283
v 1.39840448 1.06674957 0.356343806
v 1.39840508 0.933739901 0.485167354
v 0.115247749 0.933740735 0.485167563
v 0.115247875 0.933740735 0.680289447
v 0.116194688 0.880275249 0.54384023
v 1.39840496 0.93373996 0.680289447
v 1.39840496 0.880377114 0.544110239
v 1.39840484 0.746584058 0.667114258
v 0.115247533 0.746584713 0.667114794
v 0.115247503 0.746584773 0.861929238
v 0.116194628 0.693222106 0.725750029
v 1.39840484 0.746584237 0.861928999
v 1.39840508 0.693221331 0.725749493
v 1.39840484 0.560212195 0.847341418
v 0.11524754 0.560212791 0.847342134
v 0.115247473 0.560212851 1.05038559
v 0.116194449 0.506850302 0.914206147
v 1.39840484 0.560212255 1.05038524
v 1.39840484 0.506849527 0.914206207
v 1.39840484 0.373705804 1.02567935
v 0.115878731 0.372965038 1.02600563
v 0.116509996 0.372223705 1.2333318
v 0.115247473 0.320343226 1.09650016
v 1.39840484 0.373705804 1.23267925
v 1.39840484 0.32034272 1.09650016
v 1.39840496 0.18757166 1.20096457
v 0.115247712 0.187571049 1.20096457
v 0.115247838 0.187570915 1.4215405
v 0.116194643 0.135060698 1.28516293
v 1.39840508 0.187571526 1.42154062
v 1.39840508 0.134208128 1.28536117
v -1.39840758 1.87034357 0.509086728
v -0.115250438 1.87034297 0.509086549
v -0.115250602 1.87034249 0.29612112
v -1.39840782 1.87034345 0.29612118
v -1.39840782 1.81698012 0.405150443
v -0.1161974 1.81783247 0.405348271
v -1.39840651 2.8064816 1.42322624
v -0.115249097 2.8064816 1.42322564
v -0.115249105 2.8064816 1.19038725
v -1.39840651 2.8064816 1.19038749
v -1.39840698 2.75311852 1.32659447
v -0.116353951 2.75299883 1.32671165
v -1.3984071 2.62011266 1.22269535
v -0.115249947 2.62011266 1.22269499
v -0.115249954 2.62011266 1.00747705
v -1.3984071 2.62011266 1.00747705
v -1.3984071 2.56674981 1.14365637
v -0.116196886 2.56664705 1.14400637
v -1.39840758 2.43374014 1.04216707
v -0.115250334 2.43374085 1.04216647
v -0.115250573 2.43374085 0.830899656
v -1.39840782 2.43374014 0.830900013
v -1.39840782 2.38037729 0.955889821
v -0.11619731 2.38027525 0.956159949
v -1.39840722 2.24658418 0.87240088
v -0.115250044 2.24658465 0.872400343
v -0.115250051 2.24658465 0.654663384
v -1.39840722 2.24658418 0.654663622
v -1.3984077 2.19322133 0.774250567
v -0.116197176 2.19322205 0.77425015
v -1.39840722 2.06021237 0.691256464
v -0.115250126 2.06021285 0.691255689
v -0.115250133 2.06021261 0.475599378
v -1.39840758 2.06021237 0.475599915
v -1.39840746 2.00684953 0.585793853
v -0.116197072 2.00685024 0.585793495
v -1.39840758 1.68757153 0.335379928
v -0.115250438 1.68757093 0.33537975
v -0.115250602 1.68757057 0.12018045
v -1.39840782 1.68757153 0.12018051
v -1.39840782 1.6342082 0.214638978
v -0.116197415 1.63506055 0.21483697
v -0.00999247748 1.49014843 -0.0851582736
v -0.187139586 3.00438571 1.38720548
v -0.00893072598 3.00438571 1.38720548
v -0.0110531719 1.47894621 0.175470084
v -0.18463856 1.49014843 -0.0851582587
v -0.00893085357 3.00568867 1.63655055
v -0.187139735 3.00568867 1.63655114
v -0.182136595 1.47894609 0.175470099
v -1.31160104 1.49014819 -0.0773670748
v -1.49871826 3.00438499 1.39499629
v -1.31053936 3.00438499 1.39499629
v -1.31266189 1.47894609 0.175470293
v -1.49621689 1.49014783 -0.0773670673
v -1.31053948 3.00568819 1.63655114
v -1.49871826 3.00568819 1.63655114
v -1.49371457 1.47894573 0.175470307
v 0.00998964813 -0.0098515423 1.61618829
v 0.190364659 1.5359658 0.113577373
v 0.00892827567 1.5359658 0.113577537
v 0.011050404 -0.0210536644 1.35975528
v 0.18786329 -0.00985169411 1.61618829
v 0.00892845262 1.50568891 -0.115361214
v 0.190364867 1.50568891 -0.115361527
v 0.185361385 -0.0210538115 1.35975528
v 1.49621379 -0.00985215232 1.61618865
v 1.49371183 -0.0210542753 1.35975587
v 1.49871552 1.50568831 -0.115361281
v 1.30630195 1.50568855 -0.115361266
v 1.49871552 1.53596556 0.113577619
v 1.30842435 -0.021054117 1.35975552
v 1.30736327 -0.00985199958 1.61618865
v 1.30630195 1.53596556 0.113577627
vn 0.577350318 -0.577350616 -0.577349961
vn -0.516935647 -0.654180586 0.552109897
vn -0.577350259 -0.577350557 -0.577349961
vn 0.641325474 -0.590981185 0.48932904
vn 0.487275094 0.557875991 0.671816528
vn 0.577350318 -0.577350616 -0.577349961
vn 0.577350318 0.57735002 -0.577350616
vn -0.577350259 -0.577350557 -0.577349961
vn -0.577350259 0.57735002 -0.577350616
vn -0.642935455 0.496992379 0.582779944
vn -0.577350259 0.57735002 -0.577350616
vn 0.577350318 0.57735002 -0.577350616
vn 0.000278971915 0.192852646 -0.981227696
vn -0.000108546294 0.27813521 0.960541964
vn -0.000109418106 0.270982683 0.962584257
vn -6.75394331E-05 -0.99601835 0.0891490206
vn 0.000278623396 0.181864068 -0.983323634
vn -6.68490175E-05 -0.996347725 0.0853886753
vn 7.04368431E-05 0.457706481 -0.889103413
vn 7.00563978E-05 0.466984212 -0.884265721
vn 7.24427809E-05 0.198228866 0.980155766
vn 5.77526916E-05 -0.957983017 -0.28682518
vn 7.2620438E-05 0.185727462 0.982601345
vn 5.76816419E-05 -0.958649933 -0.284587979
vn 0.000160544092 0.394280791 -0.918990016
vn 0.000159878109 0.403066784 -0.91517055
vn -3.38179561E-05 0.19630076 0.980543673
vn 6.87363208E-05 -0.975885034 -0.218285143
vn -3.38910941E-05 0.185596406 0.982626081
vn 6.85444975E-05 -0.976219714 -0.216783389
vn 0.000139413125 0.360391229 -0.932801247
vn 0.000138881645 0.369574785 -0.929200947
vn -2.89644504E-06 0.196353078 0.980533242
vn 5.78709951E-05 -0.983284652 -0.182074994
vn -2.90954335E-06 0.185646817 0.982616544
vn 5.77552128E-05 -0.983502924 -0.180892378
vn -3.0387821E-07 0.360845149 -0.932625651
vn -2.97984684E-07 0.37003082 -0.929019451
vn 2.14826954E-07 0.196380243 0.980527878
vn -6.08415746E-07 -0.983207464 -0.182491302
vn 2.1031137E-07 0.185646296 0.982616603
vn -6.08113055E-07 -0.983403146 -0.181433648
vn -1.40798633E-07 0.330451339 -0.943823099
vn -1.35204061E-07 0.339965969 -0.940437794
vn 0 0.196377769 0.980528295
vn -6.02114653E-07 -0.988637865 -0.150316745
vn 0 0.185649306 0.982616067
vn -6.02035357E-07 -0.98876369 -0.149486721
vn -0.00112839916 0.317341954 -0.948310554
vn -0.00112278317 0.307521909 -0.951540291
vn -0.000633276359 0.171984971 0.985099375
vn 0.000448506908 -0.990487993 -0.137598604
vn -0.000641687191 0.182815298 0.983147085
vn 0.000448633189 -0.990523279 -0.137343869
vn -0.000434788235 0.27670905 -0.960953593
vn -0.000433444657 0.286860317 -0.957972288
vn -0.000915735145 0.195022106 0.980798423
vn -0.000323222892 -0.995427489 -0.095519051
vn -0.000917682191 0.18419373 0.982889473
vn -0.000323289307 -0.995485723 -0.094910346
vn 0.000559615029 0.233552188 0.9723441
vn 0.000558134401 0.244059712 0.969759941
vn 0.000741413503 0.234469995 -0.972123146
vn 0.000743303855 0.223906338 -0.974610388
vn 0.000331196032 -0.999951363 0.00986169279
vn 0.000331184507 -0.999949932 0.0100054294
vn -0.000125586957 0.249959335 0.968256354
vn -0.000125175662 0.261936128 0.965085149
vn -7.19752134E-05 0.198229611 -0.980155647
vn -7.21548131E-05 0.185726538 -0.982601523
vn -4.94958003E-05 -0.997835696 0.0657562092
vn -4.95132881E-05 -0.997808516 0.0661687031
vn -0.000186877878 0.293286681 0.956024468
vn -0.000186273915 0.303175271 0.952934802
vn 3.34605793E-05 0.196301162 -0.980543673
vn 3.35316399E-05 0.185596138 -0.982626081
vn -5.48897406E-05 -0.993856132 0.110679306
vn -5.49864053E-05 -0.993774295 0.111412287
vn -0.000163364501 0.273973882 0.961737156
vn -0.000162873621 0.284037888 0.958813012
vn 1.10346755E-05 0.210980654 -0.977490246
vn 1.10657957E-05 0.20036535 -0.979721189
vn -4.73326254E-05 -0.997133851 0.0756580383
vn -4.73850741E-05 -0.99709475 0.0761714354
vn 4.69461412E-07 0.24642022 0.969163001
vn 4.64898079E-07 0.256724745 0.966484606
vn -1.52824427E-07 0.218901813 -0.97574687
vn -1.49884798E-07 0.208313197 -0.978062212
vn 4.25794894E-07 -0.999234319 0.0391250104
vn 4.25859582E-07 -0.999226689 0.0393196531
vn 6.06841979E-07 0.232077837 0.972697198
vn 6.0198056E-07 0.242487371 0.970154524
vn -2.82235135E-07 0.234054968 -0.972223401
vn -2.79660043E-07 0.223581761 -0.974685133
vn 4.19106669E-07 -0.999961972 0.0087243421
vn 4.19126792E-07 -0.999961615 0.00876812637
vn 0.000666537788 0.2052771 0.978703678
vn 0.000664972991 0.215985641 0.976396382
vn 0.000647648296 0.262761205 -0.964860678
vn 0.000649492315 0.252418756 -0.96761781
vn 0.000335321296 -0.99882561 -0.0484495386
vn 0.000335331861 -0.998817086 -0.0486233495
vn 0.549048245 -0.30791533 -0.777003348
vn -0.632252157 0.713349879 -0.302306265
vn 0.630690992 0.714260995 -0.303414106
vn 0.623291492 -0.725515723 0.291778326
vn -0.549914658 -0.306718618 -0.776863933
vn 0.547299027 0.329561591 0.769319832
vn -0.547222614 0.327939302 0.770067036
vn -0.620984674 -0.727151692 0.292623401
vn 0.549109817 -0.30736199 -0.777179003
vn -0.632324576 0.713289738 -0.302296907
vn 0.630729318 0.714214981 -0.303442568
vn 0.623146713 -0.725812078 0.291350216
vn -0.550009966 -0.306125283 -0.777030468
vn 0.547286034 0.32958883 0.769317329
vn -0.547197521 0.327916205 0.770094573
vn -0.62078613 -0.727483034 0.29222092
vn -0.549069226 -0.307612449 0.777108431
vn 0.621190667 0.7408095 0.255584627
vn -0.619731963 0.741630495 0.25674203
vn -0.623643756 -0.726062238 -0.289658576
vn 0.549933076 -0.306302279 0.77701515
vn -0.55095464 0.273540825 -0.788431585
vn 0.55080837 0.271851718 -0.789117754
vn 0.621372461 -0.727690756 -0.290452212
vn 0.549932957 -0.306302696 0.77701509
vn 0.621372283 -0.727690935 -0.290452093
vn 0.550809085 0.271850854 -0.789117575
vn -0.550953984 0.273540407 -0.7884323
vn 0.621191144 0.740809143 0.255584329
vn -0.623643339 -0.726062417 -0.289658934
vn -0.549069643 -0.307611942 0.777108371
vn -0.619731903 0.741630793 0.256741554
vt 0.034050703 0.977304697
vt 0.514788628 0.0446596146
vt -0.0114405155 0.0710745156
vt 0.487173468 0.954559445
vt 0.487173438 0.954911649
vt 0.034050703 0.977304697
vt 0.034050703 0.977656841
vt -0.0114405155 0.0710745156
vt -0.0114405155 0.0714267194
vt 0.514788628 0.0450118184
vt -0.0114405155 0.0714267194
vt 0.034050703 0.977656841
vt 0.858597338 0.0611546636
vt 0.939538121 0.0569961071
vt 0.958964407 0.443990409
vt 0.899048686 0.0590779781
vt 0.878054738 0.448766768
vt 0.918572485 0.446351886
vt 0.496869713 0.923320174
vt 0.477412343 0.535708249
vt 0.559703767 0.531577468
vt 0.518539369 0.533884227
vt 0.579161167 0.919189453
vt 0.538015544 0.921160936
vt 0.552140594 0.920217752
vt 0.532683074 0.532605886
vt 0.614957631 0.528476
vt 0.573728919 0.530738115
vt 0.634415209 0.916087866
vt 0.593277872 0.918058813
vt 0.608861327 0.917042494
vt 0.589403987 0.529430568
vt 0.671678543 0.525300741
vt 0.630473971 0.527561605
vt 0.691135943 0.912912607
vt 0.649998665 0.914883554
vt 0.663731337 0.913958549
vt 0.644273996 0.526346624
vt 0.726548612 0.522216737
vt 0.685425699 0.524473786
vt 0.746005952 0.909828663
vt 0.704868674 0.911799729
vt 0.720660627 0.910772681
vt 0.701203287 0.523160756
vt 0.783477843 0.519030869
vt 0.74235487 0.521287918
vt 0.802935243 0.906642795
vt 0.761798024 0.908613741
vt 0.775728285 0.907680035
vt 0.756378889 0.520252526
vt 0.838761687 0.516307056
vt 0.797408223 0.517909169
vt 0.858002901 0.903550148
vt 0.816865683 0.905521154
vt 0.832779884 0.904488504
vt 0.813322425 0.516876578
vt 0.895596981 0.512746692
vt 0.854414165 0.515008211
vt 0.9150545 0.900358677
vt 0.873917162 0.902329624
vt 0.606748521 0.0718171
vt 0.626205921 0.459429055
vt 0.543931425 0.463558912
vt 0.524473965 0.0759469271
vt 0.565611303 0.073788017
vt 0.585114181 0.461112469
vt 0.885108769 0.0594933033
vt 0.90456605 0.447105289
vt 0.822274566 0.451236039
vt 0.802817225 0.0636240542
vt 0.843962848 0.0614646077
vt 0.863438964 0.448740959
vt 0.829837799 0.0619393289
vt 0.849295259 0.449551225
vt 0.767020762 0.453681141
vt 0.747563243 0.0660692155
vt 0.788700521 0.0639103055
vt 0.808249354 0.451230675
vt 0.773117065 0.0644581616
vt 0.792574465 0.452070117
vt 0.71029985 0.456199944
vt 0.69084245 0.068587929
vt 0.731979668 0.0664290488
vt 0.751504421 0.45375073
vt 0.718247056 0.0668829679
vt 0.737704396 0.454494894
vt 0.65542984 0.45862478
vt 0.63597244 0.0710128844
vt 0.677109778 0.0688537955
vt 0.696552753 0.456179768
vt 0.661317766 0.0694124103
vt 0.680774987 0.457024336
vt 0.59850049 0.461154222
vt 0.57904315 0.0735422373
vt 0.620180428 0.0713833272
vt 0.639623404 0.45870924
vt 0.549198449 0.0743840337
vt 0.568655908 0.461995989
vt 0.486381441 0.466125846
vt 0.466923952 0.0785138905
vt 0.50806129 0.0763549805
vt 0.527564168 0.463679403
vt 0.42917791 0.500525773
vt 0.881435812 0.447468609
vt 0.883105397 0.480728298
vt 0.52713263 0.495267808
vt 0.427562356 0.468342304
vt 0.988559544 0.475437105
vt 0.986890137 0.442177415
vt 0.525571108 0.464160562
vt 0.408256769 0.0837554932
vt 0.860514641 0.0306981504
vt 0.862184227 0.0639578998
vt 0.50621146 0.0784974396
vt 0.406641215 0.0515720248
vt 0.967638552 0.0586667061
vt 0.965968966 0.0254070163
vt 0.504649937 0.047390312
vt 0.952800453 0.477651477
vt 0.500542521 0.536041975
vt 0.498872936 0.502782285
vt 0.854845703 0.482869983
vt 0.954415977 0.509834886
vt 0.3934187 0.508078098
vt 0.395088255 0.541337788
vt 0.856407225 0.51397723
vt 0.975337207 0.926605225
vt 0.877328515 0.930747449
vt 0.416009396 0.958108068
vt 0.4143399 0.924848318
vt 0.521463752 0.952812314
vt 0.875766873 0.899640322
vt 0.973721623 0.894421697
vt 0.519794166 0.919552624
g submesh0
f 1/1/1 2/2/2 3/3/3
f 1/1/1 4/4/4 2/2/2
f 5/5/5 2/2/2 4/4/4
f 5/5/5 4/4/4 6/6/6
f 5/5/5 6/6/6 7/7/7
f 8/8/8 7/7/7 6/6/6
f 8/8/8 9/9/9 7/7/7
f 9/9/9 8/8/8 2/2/2
f 9/9/9 2/2/2 10/10/10
f 5/5/5 10/10/10 2/2/2
f 5/5/5 11/11/11 10/10/10
f 5/5/5 12/12/12 11/11/11
f 13/13/13 14/14/14 15/15/15
f 15/15/15 14/14/14 16/16/16
f 13/13/13 15/15/15 17/17/17
f 15/15/15 16/16/16 18/18/18
f 13/13/13 17/17/17 18/18/18
f 13/13/13 18/18/18 16/16/16
f 19/19/19 20/20/20 21/21/21
f 19/19/19 22/22/22 20/20/20
f 19/19/19 21/21/21 23/23/23
f 19/19/19 24/24/24 22/22/22
f 24/24/24 23/23/23 21/21/21
f 24/24/24 21/21/21 22/22/22
f 25/25/25 26/26/26 27/27/27
f 25/25/25 28/28/28 26/26/26
f 25/25/25 27/27/27 29/29/29
f 25/25/25 30/30/30 28/28/28
f 30/30/30 29/29/29 27/27/27
f 30/30/30 27/27/27 28/28/28
f 31/31/31 32/32/32 33/33/33
f 31/31/31 34/34/34 32/32/32
f 31/31/31 33/33/33 35/35/35
f 31/31/31 36/36/36 34/34/34
f 36/36/36 35/35/35 33/33/33
f 36/36/36 33/33/33 34/34/34
f 37/37/37 38/38/38 39/39/39
f 37/37/37 40/40/40 38/38/38
f 37/37/37 39/39/39 41/41/41
f 37/37/37 42/42/42 40/40/40
f 42/42/42 41/41/41 39/39/39
f 42/42/42 39/39/39 40/40/40
f 43/43/43 44/44/44 45/45/45
f 43/43/43 46/46/46 44/44/44
f 43/43/43 45/45/45 47/47/47
f 43/43/43 48/48/48 46/46/46
f 48/48/48 47/47/47 45/45/45
f 48/48/48 45/45/45 46/46/46
f 49/49/49 50/50/50 51/51/51
f 49/49/49 52/52/52 50/50/50
f 49/49/49 51/51/51 53/53/53
f 49/49/49 54/54/54 52/52/52
f 54/54/54 53/53/53 51/51/51
f 54/54/54 51/51/51 52/52/52
f 55/55/55 56/56/56 57/57/57
f 55/55/55 58/58/58 56/56/56
f 55/55/55 57/57/57 59/59/59
f 55/55/55 60/60/60 58/58/58
f 60/60/60 59/59/59 57/57/57
f 60/60/60 57/57/57 58/58/58
f 61/61/61 62/62/62 63/63/63
f 61/61/61 63/63/63 64/64/64
f 65/65/65 62/62/62 61/61/61
f 64/64/64 63/63/63 66/66/66
f 64/64/64 66/66/66 65/65/65
f 65/65/65 66/66/66 62/62/62
f 67/67/67 68/68/68 69/69/69
f 67/67/67 69/69/69 70/70/70
f 71/71/71 68/68/68 67/67/67
f 70/70/70 69/69/69 72/72/72
f 70/70/70 72/72/72 71/71/71
f 71/71/71 72/72/72 68/68/68
f 73/73/73 74/74/74 75/75/75
f 73/73/73 75/75/75 76/76/76
f 77/77/77 74/74/74 73/73/73
f 76/76/76 75/75/75 78/78/78
f 76/76/76 78/78/78 77/77/77
f 77/77/77 78/78/78 74/74/74
f 79/79/79 80/80/80 81/81/81
f 79/79/79 81/81/81 82/82/82
f 83/83/83 80/80/80 79/79/79
f 82/82/82 81/81/81 84/84/84
f 82/82/82 84/84/84 83/83/83
f 83/83/83 84/84/84 80/80/80
f 85/85/85 86/86/86 87/87/87
f 85/85/85 87/87/87 88/88/88
f 89/89/89 86/86/86 85/85/85
f 88/88/88 87/87/87 90/90/90
f 88/88/88 90/90/90 89/89/89
f 89/89/89 90/90/90 86/86/86
f 91/91/91 92/92/92 93/93/93
f 91/91/91 93/93/93 94/94/94
f 95/95/95 92/92/92 91/91/91
f 94/94/94 93/93/93 96/96/96
f 94/94/94 96/96/96 95/95/95
f 95/95/95 96/96/96 92/92/92
f 97/97/97 98/98/98 99/99/99
f 97/97/97 99/99/99 100/100/100
f 101/101/101 98/98/98 97/97/97
f 100/100/100 99/99/99 102/102/102
f 100/100/100 102/102/102 101/101/101
f 101/101/101 102/102/102 98/98/98
f 103/103/103 104/104/104 105/105/105
f 106/106/106 103/103/103 105/105/105
f 103/103/103 107/107/107 104/104/104
f 106/106/106 107/107/107 103/103/103
f 106/106/106 105/105/105 108/108/108
f 104/104/104 108/108/108 105/105/105
f 107/107/107 109/109/109 104/104/104
f 104/104/104 109/109/109 108/108/108
f 110/110/110 106/106/106 108/108/108
f 106/106/106 110/110/110 107/107/107
f 107/107/107 110/110/110 109/109/109
f 110/110/110 108/108/108 109/109/109
f 111/111/111 112/112/112 113/113/113
f 114/114/114 111/111/111 113/113/113
f 111/111/111 115/115/115 112/112/112
f 114/114/114 115/115/115 111/111/111
f 114/114/114 113/113/113 116/116/116
f 112/112/112 116/116/116 113/113/113
f 115/115/115 117/117/117 112/112/112
f 112/112/112 117/117/117 116/116/116
f 118/118/118 114/114/114 116/116/116
f 114/114/114 118/118/118 115/115/115
f 115/115/115 118/118/118 117/117/117
f 118/118/118 116/116/116 117/117/117
f 119/119/119 120/120/120 121/121/121
f 122/122/122 119/119/119 121/121/121
f 119/119/119 123/123/123 120/120/120
f 122/122/122 123/123/123 119/119/119
f 122/122/122 121/121/121 124/124/124
f 120/120/120 124/124/124 121/121/121
f 123/123/123 125/125/125 120/120/120
f 120/120/120 125/125/125 124/124/124
f 126/126/126 122/122/122 124/124/124
f 122/122/122 126/126/126 123/123/123
f 123/123/123 126/126/126 125/125/125
f 126/126/126 124/124/124 125/125/125
f 127/127/127 128/128/128 129/129/129
f 128/128/128 130/130/130 129/129/129
f 127/127/127 129/129/129 131/131/131
f 131/131/131 129/129/129 130/130/130
f 128/128/128 132/132/132 130/130/130
f 132/132/132 128/128/128 127/127/127
f 133/133/133 127/127/127 131/131/131
f 132/132/132 127/127/127 133/133/133
f 132/132/132 134/134/134 130/130/130
f 131/131/131 130/130/130 134/134/134
f 133/133/133 131/131/131 134/134/134
f 132/132/132 133/133/133 134/134/134
