# block.stair.Ushape.collision
v -1.5 1.28872561 -6.10351549E-07
v -1.5 1.5 -0.127130896
v -1.5 1.5 -1.5
v 0 1.5 0.132948801
v -1.5 1.28872561 -1.5
v 0 1.28872561 -6.10351549E-07
v 1.5 1.28872561 -1.5
v 1.5 1.5 -1.5
v 1.5 1.28872561 -6.10351549E-07
v 1.5 1.5 0.132948801
v -1.5 3 1.73410034
v -1.5 1.5 -0.12841922
v 1.5 0 1.26735473
v 0 0 1.63294947
v 1.5 0 1.63294947
v 0 0 1.26735473
v 0 3 1.73410034
v 0 1.5 -0.121724389
v 0 2.99992418 1.36896563
v -1.5 3.00034428 1.36896563
vn -0.631527126 -0.717312396 0.294340551
vn -0.771431744 0.636312127 0
vn -0.577350259 0.577350259 -0.577350259
vn -0.303498775 0.919382215 0.250249505
vn -0.577350259 -0.577350259 -0.577350259
vn -0.0906838551 -0.995874941 -0.00308920001
vn 0.577350199 -0.577350318 -0.577350199
vn 0.577350259 0.577350259 -0.577350259
vn 0.805283487 -0.54680568 -0.229176909
vn 0.630262494 0.717283607 0.297108501
vn -0.546934664 0.31766668 0.774564564
vn -0.755613029 0.462223798 -0.464110047
vn 0.629573703 -0.716550589 -0.300320297
vn -0.546918154 -0.320377141 0.773459136
vn 0.546918154 -0.320377141 0.773459136
vn -0.629573703 -0.716550589 -0.300320297
vn 0.546585441 0.317753196 0.774775565
vn 0.759776294 0.458812833 -0.460685104
vn 0.630424678 0.716906071 -0.297674984
vn -0.629703403 0.717462182 -0.297861755
vt 0.518016696 0.0319649875
vt 0.518473566 0.0306306183
vt 0.523406684 0.0116710067
vt 0.496622175 0.0288843215
vt 0.523406684 0.0112496912
vt 0.497099876 0.0266269743
vt 0.481573015 0.000573635101
vt 0.481573015 0.000994950533
vt 0.476183057 0.0212889314
vt 0.475705326 0.0235463083
vt 0.511785567 0.0593257546
vt 0.518478155 0.0306128263
vt 0.471629083 0.0362215042
vt 0.491232216 0.0466084778
vt 0.470315367 0.0412704349
vt 0.492545903 0.0415595472
vt 0.490868747 0.0539877415
vt 0.497537285 0.0253672302
vt 0.492180765 0.0489450097
vt 0.513097644 0.0542838573
g submesh0
f 1/1/1 2/2/2 3/3/3
f 4/4/4 3/3/3 2/2/2
f 1/1/1 3/3/3 5/5/5
f 5/5/5 6/6/6 1/1/1
f 5/5/5 7/7/7 6/6/6
f 7/7/7 5/5/5 3/3/3
f 7/7/7 3/3/3 8/8/8
f 4/4/4 8/8/8 3/3/3
f 9/9/9 7/7/7 8/8/8
f 7/7/7 9/9/9 6/6/6
f 9/9/9 8/8/8 10/10/10
f 8/8/8 4/4/4 10/10/10
f 11/11/11 1/1/1 6/6/6
f 12/12/12 1/1/1 11/11/11
f 6/6/6 9/9/9 13/13/13
f 13/13/13 9/9/9 10/10/10
f 14/14/14 10/10/10 4/4/4
f 13/13/13 10/10/10 15/15/15
f 14/14/14 15/15/15 10/10/10
f 14/14/14 13/13/13 15/15/15
f 4/4/4 16/16/16 14/14/14
f 14/14/14 16/16/16 13/13/13
f 6/6/6 13/13/13 16/16/16
f 4/4/4 6/6/6 16/16/16
f 11/11/11 6/6/6 17/17/17
f 18/18/18 17/17/17 6/6/6
f 18/18/18 19/19/19 17/17/17
f 19/19/19 18/18/18 12/12/12
f 11/11/11 17/17/17 19/19/19
f 19/19/19 12/12/12 20/20/20
f 12/12/12 11/11/11 20/20/20
f 11/11/11 19/19/19 20/20/20
