# block.stair.Lshape_DetailCollider
v -1.19038749 2.8064816 -1.39840543
v -1.32671165 2.75299931 -0.116352811
v -1.32659471 2.75311923 -1.39840591
v -1.46280241 2.8064816 -1.39840543
v -1.19038713 2.8064816 -0.115248099
v -1.46280158 2.8064816 -0.115248084
v -1.00747705 2.6201129 -1.39840603
v -1.14400649 2.56664753 -0.11619579
v -1.14365649 2.56675005 -1.39840603
v -1.27983558 2.6201129 -1.39840603
v -1.00747716 2.6201129 -0.115248837
v -1.27983546 2.6201129 -0.115248829
v -0.819710851 2.43374014 -1.39840698
v -0.95615989 2.38027525 -0.116196238
v -0.955889821 2.38037729 -1.39840674
v -1.09206939 2.43374014 -1.39840651
v -0.819710493 2.43374085 -0.11524944
v -1.09206903 2.43374085 -0.115249276
v -0.63807112 2.24658418 -1.39840639
v -0.774250269 2.19322205 -0.116196066
v -0.774250686 2.19322133 -1.39840674
v -0.910430074 2.24658418 -1.39840639
v -0.638070941 2.24658465 -0.115248963
v -0.910429537 2.24658465 -0.115248956
v -0.449614674 2.06021237 -1.39840662
v -0.585793614 2.00685024 -0.116195902
v -0.585793912 2.00684953 -1.39840639
v -0.721973479 2.06021237 -1.39840615
v -0.449614197 2.06021261 -0.115248956
v -0.721972644 2.06021285 -0.115248941
v -0.267320901 1.87370586 -1.39840651
v -0.403499722 1.82034326 -0.115248926
v -0.403500348 1.82034278 -1.39840639
v -0.539679527 1.87370586 -1.39840615
v -0.266668081 1.87222362 -0.116511598
v -0.539353132 1.87296486 -0.115880184
v -0.0784595981 1.68757153 -1.39840674
v -0.21483703 1.63506067 -0.116196334
v -0.214639068 1.6342082 -1.39840662
v -0.350818068 1.68757188 -1.39840662
v -0.0784596205 1.68757081 -0.115249537
v -0.350818008 1.68757105 -0.115249224
v 0.115248628 1.12011278 0.492522866
v 1.39840567 1.12011254 0.220164582
v 0.11524865 1.12011266 0.220164478
v 0.11619553 1.06664729 0.355993479
v 1.39840567 1.12011254 0.492523283
v 1.39840567 1.06674981 0.356343806
v 0.115249097 0.933740914 0.680289447
v 1.39840615 0.933740079 0.407930702
v 0.115248986 0.933740914 0.40793094
v 0.116195902 0.880275428 0.54384023
v 1.39840615 0.933740139 0.680289447
v 1.39840615 0.880377233 0.544110239
v 0.115248725 0.746584892 0.861929238
v 1.39840603 0.746584237 0.589570284
v 0.115248717 0.746584833 0.589570642
v 0.11619585 0.693222284 0.725750029
v 1.39840603 0.746584356 0.861928999
v 1.39840639 0.693221509 0.725749493
v 0.115248695 0.560213029 1.05038559
v 1.39840603 0.560212374 0.778026581
v 0.115248747 0.56021297 0.778027117
v 0.116195664 0.506850481 0.914206147
v 1.39840603 0.560212374 1.05038524
v 1.39840603 0.506849647 0.914206207
v 0.116511218 0.372223854 1.2333318
v 1.39840603 0.373705983 0.960320592
v 0.115879945 0.372965187 0.960646749
v 0.115248695 0.320343405 1.09650016
v 1.39840603 0.373705983 1.23267925
v 1.39840603 0.320342869 1.09650016
v 1.39840508 1.30648124 0.309612483
v 0.116352648 1.25299907 0.173288092
v 1.39840543 1.25311899 0.173405528
v 1.39840508 1.30648124 0.0371979512
v 0.115247831 1.3064816 0.309612691
v 0.115247808 1.3064816 0.0371983126
v 0.115248941 0.187571198 1.14918208
v 0.11524906 0.187571064 1.4215405
v 1.39840639 0.187571675 1.42154062
v 0.116195865 0.135060847 1.28516293
v 1.39840615 0.187571809 1.14918208
v 1.39840639 0.134208292 1.28536117
v -1.37504029 2.99426174 -1.39840567
v -1.3750397 2.99426174 -0.115248106
v -1.50921571 2.94081879 -0.116195358
v -1.64299905 2.99426198 -1.39872146
v -1.50894082 2.94086695 -1.39824784
v -1.64299834 2.99404955 -0.117607713
v 1.39840496 1.49426138 0.124960385
v 0.115247816 1.49426174 0.124960594
v 0.116195209 1.44081879 -0.0092155803
v 1.3987211 1.49426174 -0.142998591
v 1.39824736 1.44086683 -0.00894036796
v 0.117607437 1.49404955 -0.142998233
v 0.107719287 1.50435281 0.122386739
v 0.107719496 1.50572181 -0.244323462
v 0.0177388769 1.50572181 -0.244323298
v 0.114029586 -0.0210536662 1.29186952
v 0.0110516259 -0.0210535135 1.29186952
v 0.0177386627 1.50435281 0.122386739
v 0.114029609 -0.0210543144 1.61618829
v 0.0110517545 -0.0210541617 1.61618829
v -1.3864224 3.00438571 -0.119033046
v -1.3864224 3.00438571 -0.00892975088
v 0.116188355 1.47894585 -0.0110521326
v -0.20813036 1.47894633 -0.0110519659
v -1.73551357 3.00568867 -0.00892973598
v 0.116188355 1.47894561 -0.114030033
v -1.73551416 3.00568867 -0.119033188
v -0.20813036 1.47894621 -0.114030026
v -1.73551416 3.00568843 -1.38861358
v -0.20813036 1.47894585 -1.4937135
v -0.208130464 1.47894609 -1.39073575
v 0.116188221 1.47894526 -1.4937135
v -1.73551428 3.00568843 -1.49871719
v 0.116188228 1.47894526 -1.39073563
v -1.38642251 3.00438523 -1.49871719
v -1.38642251 3.00438523 -1.38861358
v -0.227270424 1.29840314 1.49482048E-07
v 1.49999976 1.29840255 -1.5
v 1.5 1.29840279 7.39806936E-08
v 1.5 1.49840283 5.01388371E-08
v 1.49999976 1.49840248 -1.50000012
v -0.227270484 1.49840248 -1.50000048
v -0.227270484 1.29840255 -1.50000048
v -0.227270424 1.49840319 1.25640184E-07
v 1.38861322 1.50568855 -0.235514089
v 1.49371302 -0.0210541245 1.29187012
v 1.39073539 -0.0210539717 1.29186976
v 1.49371302 -0.0210547727 1.61618865
v 1.49871671 1.50568843 -0.235514238
v 1.39073527 -0.0210546199 1.61618865
v 1.49871671 1.50438535 0.113577619
v 1.38861322 1.50438535 0.113577627
vn 0.982601643 0.185725167 -7.24770944E-05
vn -0.000168672035 -1 -4.66197962E-05
vn -0.000124865022 -1 -4.66178062E-05
vn -0.982574522 0.185868844 -0.000161711941
vn 0.980156064 0.198227093 -7.22982659E-05
vn -0.980125368 0.19837907 -0.000161310396
vn 0.9826262 0.185595527 3.38337741E-05
vn -0.000504090218 -0.999999881 -3.99086603E-05
vn -0.000373843999 -1 -3.98908996E-05
vn -0.982544899 0.186025158 -0.000234070394
vn 0.980543673 0.196301013 3.37607416E-05
vn -0.980453253 0.196751893 -0.000233573403
vn 0.982617199 0.185643151 2.54769429E-06
vn -0.000388784596 -1 -3.9499595E-05
vn -0.000287740346 -1 -3.94889794E-05
vn -0.982554495 0.185975119 -0.000203758726
vn 0.980533361 0.196352556 2.5350264E-06
vn -0.980463564 0.196700439 -0.000203332398
vn 0.982616961 0.185644373 -2.97636973E-07
vn 0 -1 4.42969792E-07
vn -2.03774391E-07 -1 4.42969878E-07
vn -0.982616961 0.185644299 5.96019675E-07
vn 0.980527878 0.196379945 -3.00978229E-07
vn -0.980527878 0.196380198 5.9077837E-07
vn 0.982616067 0.185649574 0
vn -2.02937471E-07 -1 4.72725304E-07
vn 0 -1 4.72725219E-07
vn -0.982615948 0.185650051 8.30081945E-07
vn 0.980528176 0.196378246 0
vn -0.980528057 0.196378767 8.25007987E-07
vn 0.983107686 0.183026925 0.00064265891
vn -0.0023204803 -0.999997258 -0.000457272545
vn -0.00178835855 -0.999998331 -0.000457572984
vn -0.982608795 0.185679451 0.00174936047
vn 0.985277474 0.170961455 0.000633282121
vn -0.984756649 0.173929065 0.00174262549
vn 0.982889175 0.184195921 0.000917577068
vn -0.000284982292 -0.999999881 0.000332000956
vn -0.000211387 -1 0.000332006719
vn -0.982843459 0.18444033 0.000764634344
vn 0.980798423 0.195022345 0.000915631943
vn -0.98074764 0.195278212 0.000763010641
vn -3.38179416E-05 0.196300685 0.980543673
vn 0.000234367311 0.186025292 -0.982544899
vn 0.000233869796 0.196751237 -0.980453491
vn 3.99569944E-05 -0.999999881 -0.0005038901
vn -3.38910831E-05 0.185596138 0.982626081
vn 3.99391902E-05 -1 -0.000373561867
vn -2.89644504E-06 0.196352661 0.980533361
vn 0.000203557895 0.185975716 -0.982554376
vn 0.000203131713 0.196699366 -0.980463803
vn 3.94195522E-05 -1 -0.000388340617
vn -2.90954381E-06 0.18564558 0.982616723
vn 3.94089766E-05 -1 -0.000287743227
vn 2.14827239E-07 0.196380854 0.980527759
vn -4.76616066E-07 0.185645565 -0.982616723
vn -4.70639833E-07 0.196380422 -0.980527759
vn -5.32048432E-07 -1 2.0038425E-07
vn 2.10311583E-07 0.185646325 0.982616603
vn -5.32048489E-07 -1 0
vn 0 0.196378365 0.980528176
vn -2.58269637E-07 0.185649186 -0.982616067
vn -2.524298E-07 0.196378082 -0.980528295
vn -5.61530783E-07 -1 2.00384292E-07
vn 0 0.185649514 0.982616067
vn -5.6153084E-07 -1 2.00718901E-07
vn -0.000633497664 0.1709629 0.985277236
vn -0.00174896361 0.185679764 -0.982608676
vn -0.00174223003 0.173930928 -0.984756291
vn 0.000457181595 -0.999997258 -0.00232023839
vn -0.000642871833 0.183027342 0.983107567
vn 0.000457481743 -0.999998331 -0.00178828032
vn 7.2620438E-05 0.185727462 0.982601345
vn 4.6631274E-05 -1 -0.000168674538
vn 4.66292768E-05 -1 -0.000124786558
vn 0.000162263401 0.185870945 -0.982574165
vn 7.24427809E-05 0.198228866 0.980155766
vn 0.000161862044 0.198380753 -0.98012507
vn -0.000762762385 0.195276856 -0.980747819
vn -0.000915734156 0.195021987 0.980798423
vn -0.000917681202 0.184193999 0.982889473
vn -0.000332099706 -0.999999881 -0.000284356473
vn -0.000764387369 0.184436947 -0.982843995
vn -0.000332105497 -1 -0.000210820101
vn 0.981319308 0.192385972 0.000278837979
vn 0.982738912 0.184998021 0.000278606458
vn 0.00221703807 -0.999997616 -5.96788486E-05
vn -0.981466174 0.191635698 -0.000135464783
vn -3.61582534E-05 -1 -6.01544634E-05
vn -0.982477367 0.186381578 -0.000136055591
vn -0.000279058557 0.192385465 0.981319308
vn -0.000278827822 0.184999332 0.982738674
vn 5.9648788E-05 -0.999997616 0.00221717567
vn 0.000135854949 0.191634506 -0.981466413
vn 6.01251668E-05 -1 -3.63041509E-05
vn 0.00013644564 0.186382085 -0.982477367
vn 0.628171682 0.716988504 0.302204847
vn 0.545994699 0.321047872 -0.773833394
vn -0.545950711 0.32107085 -0.773854733
vn 0.63204962 -0.716129124 -0.296094954
vn -0.632142246 -0.716043353 -0.296105027
vn -0.628079891 0.717073023 0.302195102
vn 0.547945499 -0.323960304 0.77123636
vn -0.547991991 -0.323935688 0.77121371
vn 0.301377743 0.71470505 -0.631164134
vn 0.301301479 0.715354979 0.630463958
vn 0.772255659 -0.32337299 0.546855569
vn -0.296972603 -0.717776895 0.629764795
vn -0.772826254 0.321638674 0.547072351
vn 0.772426009 -0.323554218 -0.546507716
vn -0.772655904 0.321464837 -0.547414958
vn -0.296897769 -0.718424559 -0.629061043
vn -0.77282685 0.321637809 0.547071993
vn -0.29689765 -0.718424261 -0.62906158
vn -0.296973139 -0.717777312 0.62976402
vn 0.772426248 -0.323553324 -0.546507955
vn -0.772655368 0.321465462 -0.547415316
vn 0.772255182 -0.32337445 0.546855569
vn 0.301377773 0.71470505 -0.631164193
vn 0.301301271 0.715354681 0.630464315
vn -0.577350318 -0.57735008 0.577350438
vn 0.577350318 -0.577350438 -0.57735002
vn 0.577350259 -0.577350199 0.577350378
vn 0.577350378 0.577350378 0.57735014
vn 0.577350318 0.57735002 -0.577350438
vn -0.57735014 0.57735008 -0.577350616
vn -0.577350259 -0.577350378 -0.57735008
vn -0.577350199 0.577350438 0.57735014
vn -0.547071218 0.321638495 -0.772827029
vn 0.62906152 -0.718424439 -0.296897322
vn -0.629763842 -0.717777371 -0.296973377
vn 0.546507716 -0.32355383 0.772426188
vn 0.547415972 0.321464747 -0.772655249
vn -0.546855748 -0.323373646 0.772255301
vn 0.631164312 0.714704931 0.301377684
vn -0.630464077 0.71535486 0.30130133
vt 0.296014428 0.3923603
vt 0.432765692 0.515816689
vt 0.310513854 0.379351795
vt 0.325013459 0.366386592
vt 0.418359041 0.528953969
vt 0.447358012 0.502980292
vt 0.27654326 0.409724534
vt 0.413331389 0.533178091
vt 0.291039765 0.39671874
vt 0.30553627 0.38375622
vt 0.398887902 0.546318173
vt 0.427880883 0.520349801
vt 0.25655517 0.427551717
vt 0.393334776 0.551012993
vt 0.271051645 0.414545953
vt 0.28554821 0.401583433
vt 0.378899813 0.564145386
vt 0.407892823 0.538177073
vt 0.237219393 0.444794595
vt 0.373970211 0.568281651
vt 0.251715869 0.431788743
vt 0.266212434 0.418826222
vt 0.359564006 0.581388235
vt 0.388557017 0.555419922
vt 0.217157871 0.462687641
vt 0.353908718 0.586174726
vt 0.231654376 0.449681878
vt 0.246150911 0.436719328
vt 0.339502484 0.599281371
vt 0.368495494 0.573312998
vt 0.197752386 0.479993105
vt 0.334593534 0.603581011
vt 0.212248921 0.466987312
vt 0.226745427 0.454024792
vt 0.319907188 0.616513968
vt 0.348995149 0.590582013
vt 0.177647769 0.497924834
vt 0.314419746 0.621393323
vt 0.192144334 0.484919071
vt 0.20664078 0.471956521
vt 0.299992442 0.634518504
vt 0.328985453 0.608550191
vt 0.337320894 0.717455983
vt 0.174758315 0.810807228
vt 0.311352432 0.688463092
vt 0.324202478 0.70299089
vt 0.200726777 0.839800179
vt 0.187742531 0.825282097
vt 0.355223715 0.737368464
vt 0.192661136 0.830719709
vt 0.329255283 0.708375573
vt 0.342112958 0.722911894
vt 0.218629599 0.859712601
vt 0.205645382 0.845194519
vt 0.3725425 0.756628394
vt 0.209979862 0.849979579
vt 0.346574068 0.727635503
vt 0.359457463 0.742200613
vt 0.235948324 0.87897253
vt 0.222964048 0.864454448
vt 0.390511185 0.776614308
vt 0.227948517 0.869965434
vt 0.364542723 0.747621357
vt 0.377426118 0.762186468
vt 0.253916979 0.898958385
vt 0.240932763 0.884440303
vt 0.407820046 0.79613328
vt 0.245329618 0.88929534
vt 0.381887674 0.767045736
vt 0.394908041 0.781426013
vt 0.27129811 0.918288231
vt 0.258313864 0.903770149
vt 0.183286935 0.82040453
vt 0.306765437 0.683632135
vt 0.170300037 0.805883527
vt 0.157313168 0.791405678
vt 0.319881111 0.698060393
vt 0.293907344 0.669061542
vt 0.399931073 0.786980271
vt 0.425899476 0.815973163
vt 0.289305329 0.938317358
vt 0.412795544 0.801524639
vt 0.263336897 0.909324408
vt 0.276321113 0.923799276
vt 0.315670997 0.374830425
vt 0.43801564 0.511424124
vt 0.452208579 0.498508483
vt 0.344165564 0.349247992
vt 0.329939991 0.362058699
vt 0.466315269 0.485624045
vt 0.165681005 0.800824165
vt 0.302275181 0.678480029
vt 0.289381087 0.664265513
vt 0.140098393 0.772329807
vt 0.152930796 0.786533594
vt 0.276475012 0.650180399
vt 0.302831173 0.677492321
vt 0.267866611 0.638456166
vt 0.277445197 0.629876852
vt 0.413665622 0.801968694
vt 0.424627781 0.79215014
vt 0.312409759 0.668913007
vt 0.444588304 0.836492836
vt 0.455550462 0.826674342
vt 0.438866466 0.509940028
vt 0.449364424 0.521660686
vt 0.289206684 0.664084792
vt 0.323730946 0.63316226
vt 0.486525714 0.488376677
vt 0.27938813 0.653122663
vt 0.476027846 0.47665596
vt 0.313912362 0.622200131
vt 0.354977667 0.341507643
vt 0.182364285 0.475331187
vt 0.192182869 0.486293286
vt 0.147840053 0.506253719
vt 0.34447968 0.329786956
vt 0.157658637 0.517215848
vt 0.30731833 0.363071024
vt 0.317816317 0.374791682
vt 0.326822221 0.632440686
vt -6.83069229E-05 0.637452543
vt 0.142951518 0.797129333
vt 0.142951518 0.797210336
vt -6.83069229E-05 0.637533545
vt 0.183802336 0.472844899
vt 0.183802336 0.472763866
vt 0.326822221 0.632521749
vt 0.132353336 0.761522293
vt 0.266796172 0.933516324
vt 0.277758241 0.923697829
vt 0.297718823 0.968040407
vt 0.120632648 0.772020221
vt 0.308680952 0.958221912
vt 0.153917372 0.809180915
vt 0.16563803 0.798682988
g submesh0
f 1/1/1 2/2/2 3/3/3
f 2/2/2 4/4/4 3/3/3
f 1/1/1 5/5/5 2/2/2
f 2/2/2 6/6/6 4/4/4
f 6/6/6 5/5/5 1/1/1
f 6/6/6 1/1/1 4/4/4
f 7/7/7 8/8/8 9/9/9
f 8/8/8 10/10/10 9/9/9
f 7/7/7 11/11/11 8/8/8
f 11/11/11 7/7/7 10/10/10
f 8/8/8 12/12/12 10/10/10
f 11/11/11 10/10/10 12/12/12
f 13/13/13 14/14/14 15/15/15
f 14/14/14 16/16/16 15/15/15
f 13/13/13 17/17/17 14/14/14
f 17/17/17 13/13/13 16/16/16
f 14/14/14 18/18/18 16/16/16
f 17/17/17 16/16/16 18/18/18
f 19/19/19 20/20/20 21/21/21
f 20/20/20 22/22/22 21/21/21
f 19/19/19 23/23/23 20/20/20
f 23/23/23 19/19/19 22/22/22
f 20/20/20 24/24/24 22/22/22
f 23/23/23 22/22/22 24/24/24
f 25/25/25 26/26/26 27/27/27
f 26/26/26 28/28/28 27/27/27
f 25/25/25 29/29/29 26/26/26
f 29/29/29 25/25/25 28/28/28
f 26/26/26 30/30/30 28/28/28
f 29/29/29 28/28/28 30/30/30
f 31/31/31 32/32/32 33/33/33
f 32/32/32 34/34/34 33/33/33
f 31/31/31 35/35/35 32/32/32
f 35/35/35 31/31/31 34/34/34
f 32/32/32 36/36/36 34/34/34
f 35/35/35 34/34/34 36/36/36
f 37/37/37 38/38/38 39/39/39
f 38/38/38 40/40/40 39/39/39
f 37/37/37 41/41/41 38/38/38
f 38/38/38 42/42/42 40/40/40
f 42/42/42 41/41/41 37/37/37
f 42/42/42 37/37/37 40/40/40
f 43/43/43 44/44/44 45/45/45
f 46/46/46 45/45/45 44/44/44
f 43/43/43 47/47/47 44/44/44
f 47/47/47 43/43/43 46/46/46
f 46/46/46 44/44/44 48/48/48
f 47/47/47 46/46/46 48/48/48
f 49/49/49 50/50/50 51/51/51
f 52/52/52 51/51/51 50/50/50
f 49/49/49 53/53/53 50/50/50
f 53/53/53 49/49/49 52/52/52
f 52/52/52 50/50/50 54/54/54
f 53/53/53 52/52/52 54/54/54
f 55/55/55 56/56/56 57/57/57
f 58/58/58 57/57/57 56/56/56
f 55/55/55 59/59/59 56/56/56
f 59/59/59 55/55/55 58/58/58
f 58/58/58 56/56/56 60/60/60
f 59/59/59 58/58/58 60/60/60
f 61/61/61 62/62/62 63/63/63
f 64/64/64 63/63/63 62/62/62
f 61/61/61 65/65/65 62/62/62
f 65/65/65 61/61/61 64/64/64
f 64/64/64 62/62/62 66/66/66
f 65/65/65 64/64/64 66/66/66
f 67/67/67 68/68/68 69/69/69
f 70/70/70 69/69/69 68/68/68
f 67/67/67 71/71/71 68/68/68
f 71/71/71 67/67/67 70/70/70
f 70/70/70 68/68/68 72/72/72
f 71/71/71 70/70/70 72/72/72
f 73/73/73 74/74/74 75/75/75
f 74/74/74 76/76/76 75/75/75
f 73/73/73 77/77/77 74/74/74
f 74/74/74 78/78/78 76/76/76
f 78/78/78 77/77/77 73/73/73
f 78/78/78 73/73/73 76/76/76
f 79/79/79 80/80/80 81/81/81
f 81/81/81 80/80/80 82/82/82
f 79/79/79 81/81/81 83/83/83
f 82/82/82 79/79/79 83/83/83
f 81/81/81 82/82/82 84/84/84
f 82/82/82 83/83/83 84/84/84
f 85/85/85 86/86/86 87/87/87
f 86/86/86 85/85/85 88/88/88
f 85/85/85 87/87/87 89/89/89
f 86/86/86 88/88/88 90/90/90
f 90/90/90 89/89/89 87/87/87
f 90/90/90 88/88/88 89/89/89
f 91/91/91 92/92/92 93/93/93
f 92/92/92 91/91/91 94/94/94
f 91/91/91 93/93/93 95/95/95
f 92/92/92 94/94/94 96/96/96
f 96/96/96 95/95/95 93/93/93
f 96/96/96 94/94/94 95/95/95
f 97/97/97 98/98/98 99/99/99
f 97/97/97 100/100/100 98/98/98
f 99/99/99 98/98/98 100/100/100
f 99/99/99 100/100/100 101/101/101
f 97/97/97 99/99/99 102/102/102
f 102/102/102 99/99/99 101/101/101
f 97/97/97 103/103/103 100/100/100
f 101/101/101 100/100/100 103/103/103
f 97/97/97 102/102/102 104/104/104
f 102/102/102 101/101/101 104/104/104
f 97/97/97 104/104/104 103/103/103
f 101/101/101 103/103/103 104/104/104
f 105/105/105 106/106/106 107/107/107
f 106/106/106 108/108/108 107/107/107
f 105/105/105 109/109/109 106/106/106
f 106/106/106 109/109/109 108/108/108
f 105/105/105 107/107/107 110/110/110
f 108/108/108 110/110/110 107/107/107
f 105/105/105 111/111/111 109/109/109
f 111/111/111 105/105/105 110/110/110
f 109/109/109 112/112/112 108/108/108
f 109/109/109 111/111/111 112/112/112
f 111/111/111 110/110/110 112/112/112
f 108/108/108 112/112/112 110/110/110
f 113/113/113 114/114/114 115/115/115
f 115/115/115 114/114/114 116/116/116
f 113/113/113 117/117/117 114/114/114
f 117/117/117 116/116/116 114/114/114
f 113/113/113 115/115/115 118/118/118
f 115/115/115 116/116/116 118/118/118
f 119/119/119 117/117/117 113/113/113
f 117/117/117 119/119/119 116/116/116
f 120/120/120 118/118/118 116/116/116
f 113/113/113 118/118/118 120/120/120
f 119/119/119 113/113/113 120/120/120
f 120/120/120 116/116/116 119/119/119
f 121/121/121 122/122/122 123/123/123
f 124/124/124 121/121/121 123/123/123
f 125/125/125 123/123/123 122/122/122
f 125/125/125 124/124/124 123/123/123
f 126/126/126 125/125/125 122/122/122
f 124/124/124 125/125/125 126/126/126
f 121/121/121 127/127/127 122/122/122
f 126/126/126 122/122/122 127/127/127
f 124/124/124 126/126/126 128/128/128
f 124/124/124 128/128/128 121/121/121
f 128/128/128 126/126/126 127/127/127
f 128/128/128 127/127/127 121/121/121
f 129/129/129 130/130/130 131/131/131
f 131/131/131 130/130/130 132/132/132
f 129/129/129 133/133/133 130/130/130
f 133/133/133 132/132/132 130/130/130
f 129/129/129 131/131/131 134/134/134
f 131/131/131 132/132/132 134/134/134
f 135/135/135 133/133/133 129/129/129
f 133/133/133 135/135/135 132/132/132
f 136/136/136 134/134/134 132/132/132
f 129/129/129 134/134/134 136/136/136
f 135/135/135 129/129/129 136/136/136
f 136/136/136 132/132/132 135/135/135
