# block.stair.Lshape_DetailCollider_stone
v 0.125275269 0.186374187 1.16070437
v 1.38542247 0.186666071 1.40887141
v 1.38542235 0.186374977 1.16070497
v 0.12527512 0.186665356 1.40887117
v 0.126522824 0.133154184 1.40878963
v 1.3854301 0.131428346 1.40887141
v 0.125898123 0.1325185 1.16053224
v 1.38542557 0.131720066 1.16070437
v 1.3854301 0.131428346 1.40887141
v 0.126522824 0.133154184 1.40878963
v 0.125900269 0.370093197 0.971744239
v 1.38545299 0.371584654 1.21981931
v 1.38542771 0.371290892 0.971645772
v 0.126578212 0.376571298 1.22043025
v 0.12527512 0.315979868 1.21972227
v 1.38542223 0.31634438 1.21981323
v 0.12527512 0.316636711 0.971646428
v 1.38542223 0.316636294 0.971645474
v 1.38542223 0.31634438 1.21981323
v 0.12527512 0.315979868 1.21972227
v 0.125274956 0.559387565 1.03771758
v 1.38542223 0.559095681 0.789549708
v 0.12527512 0.559096158 0.789550483
v 1.38542223 0.559387028 1.03771663
v 0.126515046 0.504029751 1.03763413
v 1.38542223 0.504149795 1.03771663
v 0.125894919 0.504383922 0.78959316
v 1.38542223 0.50444144 0.789550006
v 1.38542223 0.504149795 1.03771663
v 0.126515046 0.504029751 1.03763413
v 0.125274956 0.745759666 0.849261284
v 1.38542223 0.745467961 0.601094007
v 0.12527512 0.74546814 0.601094007
v 1.38542223 0.745759249 0.849260211
v 0.126515195 0.690401912 0.849177778
v 1.38542247 0.690522075 0.849260151
v 0.125895232 0.690755665 0.601137042
v 1.38542247 0.690813482 0.601093531
v 1.38542247 0.690522075 0.849260151
v 0.126515195 0.690401912 0.849177778
v 0.125275418 0.932923794 0.667618394
v 1.38542235 0.932631373 0.419451445
v 0.125275269 0.932632208 0.419451445
v 1.38542247 0.932922482 0.667618096
v 0.126515657 0.877454758 0.667241216
v 1.38542247 0.877684891 0.667617798
v 0.125894472 0.877769291 0.419367969
v 1.3854214 0.877977073 0.419451296
v 1.38542247 0.877684891 0.667617798
v 0.126515657 0.877454758 0.667241216
v 0.125274956 1.11929512 0.479851365
v 1.38542175 1.11900353 0.231685176
v 0.125274956 1.11900365 0.231684715
v 1.38542187 1.11929476 0.479851663
v 0.126515344 1.06385505 0.479392678
v 1.38542223 1.06405723 0.479850769
v 0.125893861 1.06412768 0.231560037
v 1.3854208 1.06434953 0.231684387
v 1.38542223 1.06405723 0.479850769
v 0.126515344 1.06385505 0.479392678
v 0.125274047 1.30538952 0.0487322994
v 1.38542128 1.30566788 0.296942443
v 1.38542116 1.30539 0.0487326048
v 0.125274047 1.30566812 0.296942741
v 0.126513675 1.25013542 0.296734929
v 1.38542128 1.25043082 0.296942294
v 0.12620315 1.25043893 0.0487347394
v 1.38542056 1.25070894 0.0487324521
v 1.38542128 1.25043082 0.296942294
v 0.126513675 1.25013542 0.296734929
v 1.38542235 0.186374977 1.16070497
v 1.38542557 0.131720066 1.16070437
v 0.125898123 0.1325185 1.16053224
v 0.125275269 0.186374187 1.16070437
v 1.38542771 0.371290892 0.971645772
v 1.38542223 0.316636294 0.971645474
v 0.12527512 0.316636711 0.971646428
v 0.125900269 0.370093197 0.971744239
v 1.38542223 0.559095681 0.789549708
v 1.38542223 0.50444144 0.789550006
v 0.125894919 0.504383922 0.78959316
v 0.12527512 0.559096158 0.789550483
v 1.38542223 0.745467961 0.601094007
v 1.38542247 0.690813482 0.601093531
v 0.125895232 0.690755665 0.601137042
v 0.12527512 0.74546814 0.601094007
v 1.38542235 0.932631373 0.419451445
v 1.3854214 0.877977073 0.419451296
v 0.125894472 0.877769291 0.419367969
v 0.125275269 0.932632208 0.419451445
v 1.38542175 1.11900353 0.231685176
v 1.3854208 1.06434953 0.231684387
v 0.125893861 1.06412768 0.231560037
v 0.125274956 1.11900365 0.231684715
v 1.38542116 1.30539 0.0487326048
v 1.38542056 1.25070894 0.0487324521
v 0.12620315 1.25043893 0.0487347394
v 0.125274047 1.30538952 0.0487322994
v -0.318694919 1.68637407 -0.12411686
v -0.0710314959 1.68666649 -1.38337827
v -0.318694443 1.68637574 -1.38337815
v -0.0710314959 1.6866653 -0.124117009
v -0.0711123645 1.63315415 -0.125363648
v -0.0710313395 1.63142848 -1.3833859
v -0.318866432 1.63251877 -0.124739565
v -0.318695366 1.63172007 -1.38338113
v -0.0710313395 1.63142848 -1.3833859
v -0.0711123645 1.63315415 -0.125363648
v -0.442184746 2.05938816 -0.124116473
v -0.689848781 2.05909562 -1.38337767
v -0.689848006 2.0590961 -0.124116473
v -0.442185193 2.05938792 -1.38337791
v -0.442267895 2.00402999 -0.125355527
v -0.442185044 2.00415015 -1.38337791
v -0.689805269 2.00438428 -0.124736018
v -0.689848602 2.00444174 -1.38337767
v -0.442185044 2.00415015 -1.38337791
v -0.442267895 2.00402999 -0.125355527
v -0.63064146 2.24575973 -0.124116667
v -0.878305197 2.2454679 -1.38337767
v -0.878304899 2.24546814 -0.12411651
v -0.630641639 2.24575901 -1.38337767
v -0.63072449 2.19040179 -0.125355676
v -0.630641639 2.19052196 -1.38337827
v -0.878261983 2.19075537 -0.124736175
v -0.878305316 2.19081283 -1.38337791
v -0.630641639 2.19052196 -1.38337827
v -0.63072449 2.19040179 -0.125355676
v -0.812283635 2.43292403 -0.124117121
v -1.05994749 2.43263173 -1.38337791
v -1.05994713 2.43263197 -0.124116972
v -0.812284052 2.43292284 -1.38337827
v -0.812660217 2.37745523 -0.125355989
v -0.81228435 2.37768531 -1.38337862
v -1.06003046 2.37776947 -0.124735564
v -1.05994737 2.37797737 -1.38337708
v -0.81228435 2.37768531 -1.38337862
v -0.812660217 2.37745523 -0.125355989
v -1.00005126 2.61929464 -0.124116249
v -1.24771452 2.61900449 -1.38337731
v -1.24771452 2.61900425 -0.124116398
v -1.00005126 2.61929584 -1.38337731
v -1.00050902 2.56385517 -0.12535587
v -1.00005221 2.56405807 -1.38337779
v -1.24783874 2.56412745 -0.124734685
v -1.24771476 2.56434941 -1.38337624
v -1.00005221 2.56405807 -1.38337779
v -1.00050902 2.56385517 -0.12535587
v -1.43066704 2.80538893 -0.124115445
v -1.18296051 2.80566907 -1.38337672
v -1.43066764 2.8053906 -1.38337672
v -1.18295991 2.80566835 -0.124115445
v -1.1831671 2.75013566 -0.125354156
v -1.18296075 2.75043154 -1.38337672
v -1.4306649 2.75043821 -0.125043795
v -1.4306674 2.75070977 -1.38337612
v -1.18296075 2.75043154 -1.38337672
v -1.1831671 2.75013566 -0.125354156
v -1.36750185 2.99345279 -0.124115556
v -1.52234101 2.99346638 -1.38368821
v -1.52225983 2.99331331 -0.1264323
v -1.36749566 2.99344945 -1.38337708
v -1.36783504 2.93798208 -0.125354916
v -1.36749971 2.93820906 -1.38337708
v -1.52238214 2.9381094 -0.124734797
v -1.52217162 2.9380815 -1.38306665
v -1.36749971 2.93820906 -1.38337708
v -1.36783504 2.93798208 -0.125354916
v -0.318694443 1.68637574 -1.38337815
v -0.318695366 1.63172007 -1.38338113
v -0.318866432 1.63251877 -0.124739565
v -0.318694919 1.68637407 -0.12411686
v -0.689848781 2.05909562 -1.38337767
v -0.689848602 2.00444174 -1.38337767
v -0.689805269 2.00438428 -0.124736018
v -0.689848006 2.0590961 -0.124116473
v -0.878305197 2.2454679 -1.38337767
v -0.878305316 2.19081283 -1.38337791
v -0.878261983 2.19075537 -0.124736175
v -0.878304899 2.24546814 -0.12411651
v -1.05994749 2.43263173 -1.38337791
v -1.05994737 2.37797737 -1.38337708
v -1.06003046 2.37776947 -0.124735564
v -1.05994713 2.43263197 -0.124116972
v -1.24771452 2.61900449 -1.38337731
v -1.24771476 2.56434941 -1.38337624
v -1.24783874 2.56412745 -0.124734685
v -1.24771452 2.61900425 -0.124116398
v -1.43066764 2.8053906 -1.38337672
v -1.4306674 2.75070977 -1.38337612
v -1.4306649 2.75043821 -0.125043795
v -1.43066704 2.80538893 -0.124115445
v -1.52225983 2.99331331 -0.1264323
v -1.52234101 2.99346638 -1.38368821
v -1.52217162 2.9380815 -1.38306665
v -1.52238214 2.9381094 -0.124734797
v -0.260104656 1.87289059 -0.12411651
v -0.507768691 1.87259805 -1.38337767
v -0.507768095 1.87259853 -0.124116361
v -0.260105133 1.87289011 -1.38337791
v -0.260187835 1.81753242 -0.125355527
v -0.260104984 1.81765234 -1.38337791
v -0.507725179 1.81788647 -0.124735869
v -0.507768571 1.81794417 -1.38337767
v -0.260104984 1.81765234 -1.38337791
v -0.260187835 1.81753242 -0.125355527
v -0.507768691 1.87259805 -1.38337767
v -0.507768571 1.81794417 -1.38337767
v -0.507725179 1.81788647 -0.124735869
v -0.507768095 1.87259853 -0.124116361
v 0.125274047 1.49315071 -1.38751686
v 1.38542128 1.49342918 0.117484555
v 1.38542116 1.49315119 -1.38751662
v 0.125274047 1.49342954 0.11748486
v 0.126513675 1.43789673 0.117277041
v 1.38542128 1.43819213 0.117484406
v 0.12620315 1.4382 -1.38751447
v 1.38542056 1.43847013 -1.38751674
v 1.38542128 1.43819213 0.117484406
v 0.126513675 1.43789673 0.117277041
vt 1.24504149 0.326661438
vt 1.00425434 0.277976185
vt 1.00425363 0.326661259
vt 1.24504232 0.277976125
vt 1.24480534 0.269244313
vt 1.0042547 0.268931627
vt 1.24491012 0.326676011
vt 1.00436091 0.327150345
vt 1.0042541 0.27983281
vt 1.24456775 0.279345065
vt 1.49481058 0.496120065
vt 1.25405836 0.448534101
vt 1.25426364 0.497196645
vt 1.49460137 0.44785592
vt 1.49485743 0.439541429
vt 1.25407076 0.439613998
vt 1.4948566 0.496681303
vt 1.25406873 0.496663898
vt 1.25407243 0.449345022
vt 1.49485898 0.449362785
vt 1.37128592 0.364895135
vt 1.13049638 0.413579702
vt 1.37128401 0.413580537
vt 1.13049793 0.364894867
vt 1.37105227 0.355890006
vt 1.13050127 0.355913758
vt 1.37105381 0.413873732
vt 1.13050306 0.413887054
vt 1.1305021 0.366569102
vt 1.37081611 0.366592228
vt 1.49387908 0.115981683
vt 1.25308943 0.164666399
vt 1.49387753 0.164667204
vt 1.2530911 0.115981489
vt 1.49364567 0.106976241
vt 1.25309467 0.106999978
vt 1.49364734 0.164959744
vt 1.25309658 0.164973095
vt 1.25309563 0.117655173
vt 1.49340951 0.1176783
vt 1.37017131 0.0303116441
vt 1.12938225 0.0789962858
vt 1.37016976 0.0789970309
vt 1.12938356 0.0303112715
vt 1.3699379 0.0212666541
vt 1.12938702 0.0213194489
vt 1.36994708 0.0792984217
vt 1.1293968 0.0792921633
vt 1.12938797 0.0319742709
vt 1.36970174 0.0320834965
vt 1.49421358 0.278039575
vt 1.25342453 0.326724201
vt 1.49421215 0.326724797
vt 1.25342584 0.278039396
vt 1.49398017 0.268992186
vt 1.25342917 0.26904279
vt 1.49399471 0.327022612
vt 1.25344431 0.327025473
vt 1.25343013 0.27970764
vt 1.49374413 0.279824734
vt 1.24505877 0.496617019
vt 1.00427246 0.447913021
vt 1.00427103 0.496616304
vt 1.24506032 0.4479132
vt 1.24482691 0.438872546
vt 1.00427592 0.438931167
vt 1.24470603 0.496935129
vt 1.00427425 0.496904016
vt 1.00427675 0.449567795
vt 1.24459076 0.449662447
vt 1.00422812 0.26909852
vt 1.0042274 0.278249025
vt 1.24489689 0.278140426
vt 1.2450161 0.269098699
vt 1.25374782 0.439154446
vt 1.25374877 0.448303729
vt 1.49453664 0.44830367
vt 1.49441767 0.43926385
vt 1.13046014 0.355931371
vt 1.13046062 0.365081906
vt 1.37113023 0.365094185
vt 1.37124825 0.355931282
vt 1.25315166 0.107017189
vt 1.25315201 0.116167799
vt 1.49382162 0.116180107
vt 1.49393964 0.107017189
vt 1.12934625 0.0213353485
vt 1.12934673 0.0304735899
vt 1.37001634 0.0305093229
vt 1.37013447 0.0213352144
vt 1.25338972 0.269064128
vt 1.25338995 0.278199673
vt 1.49405956 0.278236568
vt 1.49417782 0.269064099
vt 1.00423765 0.438939899
vt 1.00423789 0.448071182
vt 1.24484837 0.448121458
vt 1.24502575 0.438939959
vt 1.37163699 0.0786413029
vt 1.12832534 0.03009855
vt 1.12832367 0.0786411837
vt 1.37163889 0.0300078914
vt 1.3713975 0.0211220589
vt 1.1283232 0.0212133434
vt 1.37139845 0.0789301172
vt 1.12832439 0.0788661912
vt 1.12832153 0.0316669419
vt 1.37115657 0.0316719487
vt 1.24766326 0.115701541
vt 1.00434792 0.164289534
vt 1.24766088 0.164289445
vt 1.00434959 0.115701243
vt 1.24742937 0.10669817
vt 1.00435495 0.106722385
vt 1.2474314 0.16458571
vt 1.00435758 0.16459778
vt 1.00435638 0.117376029
vt 1.24719119 0.11740005
vt 1.49646544 0.447963148
vt 1.25314999 0.496551156
vt 1.49646306 0.496551156
vt 1.25315177 0.44796285
vt 1.49623156 0.438959777
vt 1.25315702 0.438983977
vt 1.49623346 0.496848047
vt 1.25315976 0.496860147
vt 1.25315833 0.449638426
vt 1.49599338 0.449662387
vt 1.24766338 0.448003948
vt 1.00434804 0.49659279
vt 1.24766088 0.49659273
vt 1.00434971 0.448005319
vt 1.24742925 0.43894884
vt 1.00435495 0.439028382
vt 1.2474314 0.496917993
vt 1.00435758 0.496875167
vt 1.00435615 0.449653894
vt 1.24719095 0.449798256
vt 1.37213898 0.200005934
vt 1.12882352 0.248596519
vt 1.37213671 0.248596489
vt 1.12882543 0.200010777
vt 1.37190461 0.190939754
vt 1.12883043 0.191037014
vt 1.37190676 0.248927265
vt 1.12883306 0.248867035
vt 1.12883162 0.201646775
vt 1.37166619 0.201823682
vt 1.49703622 0.326639026
vt 1.25372469 0.278029323
vt 1.25372267 0.326639116
vt 1.49703836 0.278035492
vt 1.49680471 0.269001961
vt 1.25373042 0.269044459
vt 1.49668729 0.326953232
vt 1.25373316 0.326942623
vt 1.25373197 0.279701144
vt 1.49656641 0.279777676
vt 1.37177587 0.383117795
vt 1.12842238 0.413483977
vt 1.37096131 0.413461328
vt 1.12846184 0.383117467
vt 1.37153482 0.374067247
vt 1.12846017 0.374138892
vt 1.37161434 0.413746119
vt 1.12865937 0.413661778
vt 1.12845981 0.384727657
vt 1.37129509 0.384855717
vt 1.12828398 0.0211507883
vt 1.12828183 0.0302980468
vt 1.37147617 0.0302503929
vt 1.37159801 0.0212110933
vt 1.00431085 0.106745303
vt 1.00431132 0.115893021
vt 1.2475059 0.115897432
vt 1.24762511 0.106737569
vt 1.25311279 0.439007789
vt 1.25311339 0.448155701
vt 1.49630797 0.448159844
vt 1.49642694 0.438999832
vt 1.00431085 0.439037204
vt 1.0043118 0.448184669
vt 1.24750626 0.448188961
vt 1.24762511 0.43903023
vt 1.12878656 0.191038251
vt 1.12878752 0.200185791
vt 1.3719821 0.200188413
vt 1.37210059 0.191033691
vt 1.25368977 0.269074976
vt 1.25369084 0.278213203
vt 1.49682546 0.278224498
vt 1.49700391 0.269056499
vt 1.1286993 0.383230567
vt 1.3716259 0.383243114
vt 1.37150645 0.374226809
vt 1.12837183 0.374251217
vt 1.24766326 0.115701541
vt 1.00434792 0.164289534
vt 1.24766088 0.164289445
vt 1.00434959 0.115701243
vt 1.24742937 0.10669817
vt 1.00435495 0.106722385
vt 1.2474314 0.16458571
vt 1.00435758 0.16459778
vt 1.00435638 0.117376029
vt 1.24719119 0.11740005
vt 1.00431085 0.106745303
vt 1.00431132 0.115893021
vt 1.2475059 0.115897432
vt 1.24762511 0.106737569
vt 1.24505877 0.496617019
vt 1.00427246 0.447913021
vt 1.00427103 0.496616304
vt 1.24506032 0.4479132
vt 1.24482691 0.438872546
vt 1.00427592 0.438931167
vt 1.24470603 0.496935129
vt 1.00427425 0.496904016
vt 1.00427675 0.449567795
vt 1.24459076 0.449662447
g submesh0
f 1/1 2/2 3/3
f 1/1 4/4 2/2
f 2/2 4/4 5/5
f 2/2 5/5 6/6
f 7/7 8/8 9/9
f 7/7 9/9 10/10
f 11/11 12/12 13/13
f 11/11 14/14 12/12
f 12/12 14/14 15/15
f 12/12 15/15 16/16
f 17/17 18/18 19/19
f 17/17 19/19 20/20
f 21/21 22/22 23/23
f 21/21 24/24 22/22
f 24/24 21/21 25/25
f 24/24 25/25 26/26
f 27/27 28/28 29/29
f 27/27 29/29 30/30
f 31/31 32/32 33/33
f 31/31 34/34 32/32
f 34/34 31/31 35/35
f 34/34 35/35 36/36
f 37/37 38/38 39/39
f 37/37 39/39 40/40
f 41/41 42/42 43/43
f 41/41 44/44 42/42
f 44/44 41/41 45/45
f 44/44 45/45 46/46
f 47/47 48/48 49/49
f 47/47 49/49 50/50
f 51/51 52/52 53/53
f 51/51 54/54 52/52
f 54/54 51/51 55/55
f 54/54 55/55 56/56
f 57/57 58/58 59/59
f 57/57 59/59 60/60
f 61/61 62/62 63/63
f 61/61 64/64 62/62
f 62/62 64/64 65/65
f 62/62 65/65 66/66
f 67/67 68/68 69/69
f 67/67 69/69 70/70
f 71/71 72/72 73/73
f 71/71 73/73 74/74
f 75/75 76/76 77/77
f 75/75 77/77 78/78
f 79/79 80/80 81/81
f 79/79 81/81 82/82
f 83/83 84/84 85/85
f 83/83 85/85 86/86
f 87/87 88/88 89/89
f 87/87 89/89 90/90
f 91/91 92/92 93/93
f 91/91 93/93 94/94
f 95/95 96/96 97/97
f 95/95 97/97 98/98
f 99/99 100/100 101/101
f 99/99 102/102 100/100
f 100/100 102/102 103/103
f 100/100 103/103 104/104
f 105/105 106/106 107/107
f 105/105 107/107 108/108
f 109/109 110/110 111/111
f 109/109 112/112 110/110
f 112/112 109/109 113/113
f 112/112 113/113 114/114
f 115/115 116/116 117/117
f 115/115 117/117 118/118
f 119/119 120/120 121/121
f 119/119 122/122 120/120
f 122/122 119/119 123/123
f 122/122 123/123 124/124
f 125/125 126/126 127/127
f 125/125 127/127 128/128
f 129/129 130/130 131/131
f 129/129 132/132 130/130
f 132/132 129/129 133/133
f 132/132 133/133 134/134
f 135/135 136/136 137/137
f 135/135 137/137 138/138
f 139/139 140/140 141/141
f 139/139 142/142 140/140
f 142/142 139/139 143/143
f 142/142 143/143 144/144
f 145/145 146/146 147/147
f 145/145 147/147 148/148
f 149/149 150/150 151/151
f 149/149 152/152 150/150
f 150/150 152/152 153/153
f 150/150 153/153 154/154
f 155/155 156/156 157/157
f 155/155 157/157 158/158
f 159/159 160/160 161/161
f 159/159 162/162 160/160
f 162/162 159/159 163/163
f 162/162 163/163 164/164
f 165/165 166/166 167/167
f 165/165 167/167 168/168
f 169/169 170/170 171/171
f 169/169 171/171 172/172
f 173/173 174/174 175/175
f 173/173 175/175 176/176
f 177/177 178/178 179/179
f 177/177 179/179 180/180
f 181/181 182/182 183/183
f 181/181 183/183 184/184
f 185/185 186/186 187/187
f 185/185 187/187 188/188
f 189/189 190/190 191/191
f 189/189 191/191 192/192
f 193/193 194/194 195/195
f 193/193 195/195 196/196
f 197/197 198/198 199/199
f 197/197 200/200 198/198
f 200/200 197/197 201/201
f 200/200 201/201 202/202
f 203/203 204/204 205/205
f 203/203 205/205 206/206
f 207/207 208/208 209/209
f 207/207 209/209 210/210
f 211/211 212/212 213/213
f 211/211 214/214 212/212
f 212/212 214/214 215/215
f 212/212 215/215 216/216
f 217/217 218/218 219/219
f 217/217 219/219 220/220
