# bus_stop_a_COL_b
v 0.462029099 3.3306911 2.79239702
v 1.49998426 3.05957341 2.7923975
v 1.19968033 3.1839633 2.7923975
v 2.84258199 1.73011756 2.79239774
v -0.328106523 0.335927278 2.79239821
v -0.328106225 3.33069134 2.79239702
v 1.44200206 0.335927129 2.79239821
v -0.328106523 0.335927278 2.7854166
v 2.85226107 1.73011756 2.78541613
v 1.45168102 0.335927129 2.7854166
v 0.462029099 3.33069086 2.78541565
v -0.328106225 3.33069134 2.78541565
v 1.49998426 3.05957341 2.78541589
v 1.19968033 3.1839633 2.78541565
v -0.328106523 0.335927963 -2.79239869
v 2.8664484 1.73011827 -2.79239702
v 1.46586835 0.335927814 -2.79239869
v 0.462029099 3.33069181 -2.79239678
v -0.328106225 3.33069205 -2.79239678
v 1.49998426 3.05957389 -2.79239702
v 1.19968033 3.18396378 -2.79239702
v 0.462029099 3.33069134 -2.78541565
v 1.49998426 3.05957389 -2.78541589
v 1.19968033 3.18396378 -2.78541589
v 2.84642816 1.73011827 -2.78541589
v -0.328106523 0.335927904 -2.78541732
v -0.328106225 3.33069205 -2.78541565
v 1.44584811 0.335927755 -2.78541732
vt 0.250802457 1
vt 0.580267191 0.909469366
vt 0.484945565 0.951005161
vt 1 0.465542734
vt 0 0
vt 0 1
vt 0.559719145 0
vt 0 0
vt 1 0.465542734
vt 0.559719145 0
vt 0.250802457 1
vt 0 1
vt 0.580267191 0.909469366
vt 0.484945565 0.951005161
vt 0 0
vt 1 0.465542734
vt 0.559719145 0
vt 0.250802457 1
vt 0 1
vt 0.580267191 0.909469366
vt 0.484945565 0.951005161
vt 0.250802457 1
vt 0.580267191 0.909469366
vt 0.484945565 0.951005161
vt 1 0.465542734
vt 0 0
vt 0 1
vt 0.559719145 0
g submesh0
f 1/1 2/2 3/3
f 1/1 4/4 2/2
f 1/1 5/5 4/4
f 1/1 6/6 5/5
f 4/4 5/5 7/7
f 8/8 9/9 10/10
f 8/8 11/11 9/9
f 8/8 12/12 11/11
f 9/9 11/11 13/13
f 13/13 11/11 14/14
f 15/15 16/16 17/17
f 15/15 18/18 16/16
f 15/15 19/19 18/18
f 16/16 18/18 20/20
f 20/20 18/18 21/21
f 22/22 23/23 24/24
f 22/22 25/25 23/23
f 22/22 26/26 25/25
f 22/22 27/27 26/26
f 25/25 26/26 28/28
