# casino_wheel_room_curtains_COL
v -0.0476147458 -1.39711595 0.0957870483
v 0.000250244135 -0.0775582492 0.0636421219
v 0.000333251955 -0.0889873505 0.23397994
v -0.0161022954 -1.40556073 0.279281616
v -0.108687744 -2.66799617 0.159882963
v 0.000350341783 -0.0985272229 0.512139559
v -0.0536865219 -2.65364861 0.232162014
v -0.156650394 -2.89151692 0.241284475
v -0.0278466791 -1.41630673 0.578158736
v 0.000305175781 -0.107941166 1.09787154
v -0.0961291492 -2.90834355 0.233310848
v -0.214490965 -3.41781664 0.151226804
v -0.133066401 -2.64395452 0.338409871
v -0.0447558574 -1.42811215 0.938399315
v -0.141336665 -3.42121696 0.052132871
v -0.229562983 -4.0112586 0.0869624317
v -0.150421143 -4.02079964 0.0210658256
v -0.0738903806 -2.89821076 0.273940414
v -0.0273364261 -3.44563389 0.21704559
v -0.0301171876 -4.04069328 0.117053375
v -0.136660159 -2.6300323 0.434243768
v -0.0486608893 -1.45181084 1.538571
v 4.76074201E-05 -0.125229225 2.27450609
v -2.4414061E-05 -0.120784149 2.54664993
v -0.0314257815 -3.45855498 0.320745677
v -0.0405480936 -4.05769634 0.256476134
v -0.00886596646 -4.03697205 0.504808784
v -0.0775781199 -2.91699481 0.360191017
v -0.11197143 -2.62224674 0.629235506
v -0.0276965331 -1.47457373 1.69922984
v -4.76074201E-05 -0.0859886557 2.67787814
v -0.0546484366 -1.53815246 1.86504424
v -0.116298825 -2.63910294 0.695960224
v -0.0800353959 -2.67255974 0.74472028
v -0.0669824183 -2.90283585 0.450192392
v -0.0266296379 -3.4408977 0.471462995
v -0.101903073 -2.91366744 0.537712514
v -0.147617191 -2.90779567 0.54668808
v -0.0863891616 -3.44048238 0.651541591
v -0.0747802705 -4.03842354 0.656013906
v -0.192706302 -3.44513106 0.6124385
v -0.16511108 -4.0446105 0.634376526
v -0.0380126946 -1.41931045 10.04212
v -0.000145263664 -0.103557587 9.26567268
v 2.92968743E-05 -0.125725403 9.58771706
v -0.0577392578 -1.34470499 10.2985535
v -0.0769384727 -2.57595396 11.1420212
v 0.0143054193 -1.29993224 11.1394587
v 0.000332031253 -0.105216712 10.9989147
v 0.000334472657 -0.0970548615 11.5478668
v -0.123088375 -2.53124499 11.2377882
v -0.147617191 -2.90779567 11.4533091
v 0.0192749016 -1.29031765 11.5485735
v 0.000251464837 -0.0775598884 11.8505449
v -0.0331054665 -1.27560782 11.8842964
v -0.0863684043 -2.51888371 11.6731806
v -0.109794922 -2.55112576 11.8456049
v -0.0654504374 -2.53526783 11.51968
v -0.135467529 -2.91976333 11.7192574
v -0.156650394 -2.89151692 11.7587013
v -0.0828613266 -2.91787529 11.4821091
v -0.192701414 -3.44513416 11.3260937
v -0.102999263 -2.91562343 11.6574926
v -0.0868640095 -3.44954419 11.7874737
v -0.214486077 -3.41781974 11.7872972
v -0.0135693355 -3.43162155 11.3338442
v -0.1784143 -4.03909063 11.2482433
v 0.0051574707 -4.03166342 11.2573223
v -0.0934338346 -4.05058289 11.6848621
v -0.0952771008 -3.45856214 11.6534128
v -0.065397948 -4.02419615 11.8659706
v -0.229555652 -4.01126289 11.7919102
v -2.62324953 -3.46203876 12.0746326
v -2.73361206 -4.02934837 12.0347328
v -2.61103749 -4.06592131 12.0710621
v -2.30023313 -4.05421543 12.0697861
v -2.75142932 -3.4175818 12.0410986
v -2.42749882 -3.44677472 12.0674963
v -2.68355584 -2.92027783 12.0680771
v -2.74479985 -2.87643766 12.0606184
v -2.53896713 -2.90679121 12.066699
v -2.58877921 -2.58553767 12.0619526
v -2.82436275 -2.58827734 12.0687017
v -2.50087404 -1.94163072 12.057127
v -2.4232347 -2.61156225 12.0850391
v -2.844414 -1.91295493 12.0669088
v -2.19852543 -2.03027916 12.0812397
v -2.81404042 -0.705605447 12.0668879
v -2.11168218 -0.711850286 12.0686741
v -2.48292232 -0.706736147 12.0622435
v -0.127530515 -3.45847487 12.0937481
v -0.474731445 -4.05099487 12.0811205
v -0.158830568 -4.07085133 12.0915632
v -0.363156736 -3.44045639 12.077879
v 0.03312378 -4.03340101 12.0608959
v -0.211041257 -2.91637921 12.0731306
v 0.0701989755 -3.42004132 12.0633745
v -0.098953858 -2.91936278 12.07833
v -0.303773195 -2.56415105 12.0715818
v -0.00658081053 -2.8985815 12.0770226
v -0.127507314 -2.55152845 12.0641403
v -0.489305407 -1.95740652 12.0775061
v 0.0557958968 -2.58827734 12.0687017
v -0.219086915 -1.91945064 12.0678844
v -0.577131331 -0.708917916 12.0714426
v 0.0758471638 -1.91295493 12.0669088
v -0.254550785 -0.70671469 12.0710106
v 0.0454736315 -0.705605447 12.0668879
g submesh0
f 1 2 3
f 1 3 4
f 5 1 4
f 4 3 6
f 5 4 7
f 8 5 7
f 4 6 9
f 7 4 9
f 9 6 10
f 8 7 11
f 12 8 11
f 7 9 13
f 11 7 13
f 9 10 14
f 13 9 14
f 12 11 15
f 16 12 15
f 16 15 17
f 11 13 18
f 15 11 18
f 17 15 19
f 15 18 19
f 17 19 20
f 18 13 21
f 13 14 21
f 10 22 14
f 10 23 22
f 24 22 23
f 20 19 25
f 20 25 26
f 25 27 26
f 19 18 28
f 19 28 25
f 18 21 28
f 29 21 14
f 29 14 22
f 24 30 22
f 30 29 22
f 31 30 24
f 31 32 30
f 32 33 30
f 30 33 29
f 32 34 33
f 35 21 29
f 35 28 21
f 33 35 29
f 36 25 28
f 36 28 35
f 25 36 27
f 34 37 33
f 33 37 35
f 37 36 35
f 34 38 37
f 39 27 36
f 37 39 36
f 38 39 37
f 39 40 27
f 38 41 39
f 41 40 39
f 41 42 40
f 43 44 45
f 43 45 46
f 47 43 46
f 48 46 45
f 48 45 49
f 50 48 49
f 47 46 51
f 51 52 47
f 50 53 48
f 54 53 50
f 54 55 53
f 56 53 55
f 48 53 56
f 56 55 57
f 46 48 58
f 48 56 58
f 46 58 51
f 57 59 56
f 59 58 56
f 57 60 59
f 51 61 52
f 61 62 52
f 63 51 58
f 59 63 58
f 63 61 51
f 60 64 59
f 64 63 59
f 60 65 64
f 61 66 62
f 67 62 66
f 67 66 68
f 66 69 68
f 70 61 63
f 70 66 61
f 66 70 69
f 64 70 63
f 70 71 69
f 70 64 71
f 65 71 64
f 65 72 71
f 73 74 75
f 73 75 76
f 73 77 74
f 73 76 78
f 77 73 79
f 78 79 73
f 77 79 80
f 78 81 79
f 80 79 82
f 82 79 81
f 80 82 83
f 83 82 84
f 82 81 85
f 84 82 85
f 83 84 86
f 84 85 87
f 84 88 86
f 89 84 87
f 84 90 88
f 89 90 84
f 91 92 93
f 91 94 92
f 95 91 93
f 96 94 91
f 95 97 91
f 96 91 98
f 97 98 91
f 99 96 98
f 97 100 98
f 99 98 101
f 100 101 98
f 102 99 101
f 100 103 101
f 102 101 104
f 103 104 101
f 105 102 104
f 103 106 104
f 105 104 107
f 108 104 106
f 108 107 104
