# casino_dish_supports_a_COL
v 1.58701766 0.836851835 -3.07173252
v 1.58710814 2.07402754 -3.07165074
v 1.58711314 2.07402754 -2.92715716
v 1.44294822 2.07402754 -3.07164311
v 1.58702064 0.836854279 -2.92707944
v 1.44302142 0.714543581 -3.071733
v 1.44295061 2.07402778 -2.92715025
v 1.4430232 0.714545071 -2.92706323
v -0.330459118 2.07273698 1.63336563
v 1.86097252 3.6015439 2.73625207
v -0.310790747 1.97169304 1.58585513
v -0.350413203 1.97225523 1.6815635
v 1.81255507 3.60189605 2.82730246
v 1.78157616 3.68362927 2.75211239
v -3.00355768 0.410693079 0.14791584
v -5.3666997 -0.476502001 -1.12816048
v -5.41939545 -0.378482074 -1.09801602
v -5.41569853 -0.47650215 -1.03741992
v -3.0233779 0.51092279 0.195813134
v -3.04319906 0.410730153 0.243709505
v -3.46891165 0.511750221 1.54220855
v -1.1603744 1.97165823 3.36839986
v -3.44828486 0.409979284 1.49236298
v -3.48954511 0.410278857 1.59207273
v -1.18077862 2.07208776 3.41768885
v -1.20153975 1.97198319 3.46783042
v -0.402329713 1.97184157 1.53736687
v -2.91233563 0.410016209 0.197174415
v -2.93215489 0.51177907 0.245071441
v -2.95197463 0.410111845 0.292969227
v -0.421997368 2.07248521 1.58488107
v -0.441951096 1.97199607 1.63307583
v 0.533233762 3.60154343 4.74492025
v -1.07686758 1.9709574 3.43627119
v -1.09727049 2.07293105 3.48556018
v -1.11803329 1.97153795 3.53570366
v 0.467979103 3.60189605 4.82477474
v 0.452267319 3.68362975 4.74498606
v 3.21742201 3.60154557 -1.73529899
v 1.17398 2.07293296 -1.99773526
v 1.15355515 1.97095931 -1.94845557
v 1.19475484 1.97153974 -2.0478735
v 3.22774649 3.60189819 -1.83790624
v 3.16021729 3.6836319 -1.79259777
v -1.87718046 0.511751473 -2.3005774
v 1.04651356 1.97166002 -1.95951152
v 1.06693757 2.07208943 -2.00879169
v 1.08771348 1.97198498 -2.05892825
v -1.89784098 0.409980536 -2.25074601
v -1.85651135 0.410280079 -2.35042691
v 0.40650171 2.07273746 -0.14581728
v 0.386813641 1.97169352 -0.0983139947
v 2.73593688 3.60154438 0.623897851
v 0.426471889 1.97225583 -0.194008499
v 2.76608205 3.60189652 0.525278747
v 2.69101095 3.68363023 0.556541979
v -2.41484833 0.511779428 -1.00381768
v 0.287800372 1.97184217 -0.128755689
v 0.307489872 2.07248592 -0.176260397
v 0.327458948 1.97199667 -0.224449113
v -2.43470216 0.410016596 -0.955935061
v -2.39499497 0.410112232 -1.05170143
v -2.53403735 0.410693377 -0.985607684
v -2.51418352 0.510923147 -1.03349113
v -5.12330151 -0.378481805 -1.8128531
v -2.49433136 0.410730571 -1.08137476
v -5.10735464 -0.476501822 -1.75427592
v -5.07783937 -0.476501882 -1.85308683
v 0.457069546 3.55618167 4.78753519
v 0.429434091 3.56783795 4.84545135
v -1.59432626 0.829615474 4.48374271
v 0.403191596 3.59115171 4.79885721
v -1.56668973 0.817958891 4.42582703
v -1.62056756 0.852928698 4.43714905
v -1.04463899 0.494891763 2.44600224
v -1.5976969 0.907388687 4.41555738
v -1.49841273 0.907388747 4.44343662
v -1.6032083 0.806298375 4.43518162
v -0.945353508 0.494891733 2.47388148
v -1.05014932 0.393801302 2.46562672
v -1.5039233 0.806298375 4.46306133
v -0.950864375 0.393801302 2.49350643
v -2.73650503 -1.1636554 -0.445031494
v -1.02373552 0.486343324 2.44043612
v -0.956169128 0.393801332 2.45324731
v -1.04484856 0.393801272 2.50588536
v -2.66893721 -1.25619721 -0.432220131
v -2.75761676 -1.25619733 -0.379581571
v 0.500289619 0.488869011 -1.24813163
v -1.68305159 -1.16726625 -3.03382897
v -1.6753329 -1.25616574 -2.96081758
v -1.61001909 -1.25622427 -3.04062152
v 0.473535269 0.37382111 -1.20331597
v 0.591615319 0.413786918 -1.23996246
v -0.971711636 0.413788795 2.53425026
v -1.02930498 0.373813808 2.42488289
v -1.04206324 0.488863558 2.47543025
v -3.85136366 -1.16724885 2.19575882
v -3.79433346 -1.25619888 2.14961863
v -3.80454946 -1.256199 2.25223589
v 0.511193871 3.55160046 4.75515032
v 0.45061478 3.56454754 4.77555752
v -1.05260241 0.41969794 2.47525358
v 0.467579365 3.59044242 4.7261138
v -0.992024541 0.406750828 2.45484447
v -1.03563726 0.445592284 2.42580891
v 2.3233273 3.59192562 1.69183791
v 2.2708075 3.63059735 1.69220674
v -0.285094142 0.432477564 0.62200588
v 2.30955887 3.61770678 1.64135087
v -0.246345446 0.419586778 0.571149766
v -0.232575253 0.393805116 0.62163645
v 2.6965251 3.5905385 0.631546676
v 2.74312067 3.54991484 0.610750794
v 2.7118535 3.57699704 0.56961602
v -0.279171675 0.434428394 0.642431617
v -0.263840795 0.420887291 0.580500007
v -1.000507 0.393803656 2.47956753
v -1.02731133 0.420156747 2.43495536
v 1.78923476 3.57163715 2.75950098
v -1.05015683 0.433333158 2.49460721
v 1.81603754 3.54528475 2.80411148
v 1.76638842 3.58481407 2.81915212
v 1.82237792 3.56350756 2.74354243
v 1.76687598 3.57703209 2.77501607
v -0.283915967 0.420854032 0.627602756
v 1.77519929 3.60408068 2.72400331
v -0.228414059 0.407329589 0.596130311
v -0.275593728 0.447903097 0.576590717
v 2.76540327 3.55258656 0.564988256
v 2.71544909 3.59226775 0.551430762
v 0.482621402 0.433487117 -1.23519611
v 2.76646185 3.579041 0.513005435
v 0.532577574 0.393806666 -1.22163904
v 0.533635736 0.42026034 -1.27362108
v 3.22259974 3.56195569 -1.7650789
v 3.17932773 3.60062122 -1.73530543
v 0.489299983 0.432456911 -1.19185376
v 3.18286133 3.58771682 -1.79914236
v 0.532577574 0.393806458 -1.22163904
v 0.492833823 0.419573456 -1.25569296
v -1.55277765 2.07351732 4.44721985
v 1.53196001 2.07351708 -3.00000644
v 1.47615385 1.97039092 -3.00000429
v -1.5922389 1.97039258 4.40775919
v -1.51331675 1.97039223 4.48668098
v 1.58776414 1.97039223 -3.00000477
v -3.57263327 0.410205066 1.52381563
v -5.73176432 -0.418932408 -0.263555855
v -5.66600466 -0.418932378 -0.342993647
v -3.53133988 0.40997839 1.42412436
v -3.55198765 0.511219919 1.47396863
v -5.72356844 -0.320912212 -0.323708862
v -1.58786881 -1.18179882 -2.93501616
v -1.58365846 3.99999666 -3.06834412
v -1.58365929 3.9999969 -2.93080735
v -1.58786893 -1.18179858 -3.07255125
v -1.72540581 -1.18179786 -2.93501616
v -1.72119737 3.99999619 -3.06834531
v -1.72119689 3.9999969 -2.93080854
v -1.72540522 -1.18179858 -3.07255149
v 1.46092677 0.846901894 -2.99801636
v 3.23934555 3.61730862 -2.99970722
v 3.27521205 3.59701037 -3.04099536
v 1.49679303 0.826603651 -3.03930545
v 1.49688172 0.826603591 -2.95680547
v 3.31116819 3.57671237 -2.99978256
v 3.27530122 3.59701014 -2.95849633
v 1.53274763 0.806305528 -2.99809408
v -1.75884044 -1.30033994 -2.71030307
v -1.42339265 -1.13650024 -2.82308459
v -1.42648852 -1.13650024 -3.17784286
v -1.40531623 -1.17357802 -2.82324648
v -1.74233949 -1.33814526 -2.7104311
v -1.40841138 -1.17357802 -3.17799759
v -1.747352 -1.33814502 -3.28491354
v -1.76385307 -1.30033958 -3.28475428
v -1.95330727 -1.40986443 -2.99585295
v -1.966699 -1.37085116 -2.99573565
v -2.87455797 -1.30034065 -0.149198115
v -2.52148509 -1.13650107 -0.125025302
v -2.38858509 -1.13650119 -0.45396328
v -2.50472283 -1.1735791 -0.118257053
v -2.85926437 -1.33814633 -0.143001676
v -2.37182498 -1.17357898 -0.44718805
v -2.64405084 -1.33814585 -0.675672948
v -2.65935683 -1.30034053 -0.681839943
v -2.94494724 -1.40986538 -0.487431139
v -2.95736384 -1.37085199 -0.492447615
v -4.78160429 -2.51284647 -2.78318262
v -4.76701498 -2.55141044 -3.20944929
v -4.76697016 -2.5514133 -2.78318453
v -4.54683685 -2.46787763 -2.78174305
v -4.78165054 -2.51284409 -3.20944858
v -4.56147194 -2.42931128 -2.78174043
v -4.56151533 -2.42931032 -3.23043513
v -4.54688025 -2.46787715 -3.23043561
v -4.34137869 -2.34577703 -3.13106251
v -4.3267436 -2.38434362 -3.13106489
v -4.3267045 -2.38434148 -2.86826825
v -4.34134007 -2.34577513 -2.86826658
v -1.96352839 0.410206318 -2.36091399
v -2.00482202 0.409979582 -2.26122284
v -4.76379919 -0.418931693 -2.52111363
v -4.7541275 -0.418931603 -2.62378383
v -4.79086685 -0.320911527 -2.57545352
v -1.98417664 0.51122117 -2.31106782
v -1.64131415 0.512394011 -3.00212789
v -1.69031572 0.40926218 -3.02047086
v -3.84724569 0.409265101 2.18162084
v -3.79824424 0.512390077 2.19999957
v -3.75198483 0.409265041 2.22111821
v -1.59505486 0.4092758 -2.98097277
v 1.56764472 0.907396436 -2.95501423
v 1.4777832 0.907378972 -3.0056076
v 0.477612406 0.494880676 -1.22911394
v 0.567473948 0.494880676 -1.17852128
v 0.487645715 0.393804044 -1.24693573
v 1.57767832 0.806313634 -2.97280049
v 1.48781693 0.806296229 -3.02339411
v 0.577507317 0.393804014 -1.19634223
v 0.488350362 0.486298919 -1.21052432
v 0.520008445 0.393804044 -1.27164674
v -2.72584534 -1.25619733 -0.455908537
v -2.75750327 -1.16370225 -0.394786209
v -2.70070958 -1.25619733 -0.355893314
v 0.545143247 0.393803984 -1.17163193
v -0.302190363 0.481664389 0.648611724
v -0.262727261 0.481664449 0.553335965
v -2.74342656 -1.16833568 -0.47420001
v -2.78289127 -1.16833568 -0.378924936
v -2.6935451 -1.25619721 -0.453538656
v -0.252308577 0.393802643 0.669273257
v -0.212845668 0.393802673 0.573997676
v -2.73300934 -1.25619733 -0.358263224
v -1.59505439 -1.1530633 -2.98100948
v -1.69031525 -1.15307677 -3.02050734
v -3.84724498 -1.15307391 2.18161988
v -3.75198436 -1.15307403 2.22111726
v -3.84724498 -1.25619888 2.18161988
v -1.59505427 -1.25618827 -2.98097396
v -1.69031525 -1.25620174 -3.02047205
v -3.75198436 -1.256199 2.22111726
v 3.22734714 3.5541265 -1.79539394
v 3.17388415 3.58927631 -1.80804634
v 1.47928429 0.841454923 -3.010746
v 1.53274763 0.806305587 -2.99809408
v 1.52893782 0.829738617 -3.05138087
v 3.22353721 3.57755971 -1.84868133
v -1.93273771 0.46705696 -2.30467892
v -1.93524396 0.440276593 -2.24526191
v -1.6264503 -1.22586191 -2.9831934
v -1.62394452 -1.1990813 -3.04261041
v -1.67635202 -1.21693492 -3.02423048
v -1.98514533 0.449203402 -2.28629875
v -2.44444919 0.49198401 -1.07561898
v -2.44016051 0.443394721 -1.03232217
v -1.6287024 -1.21859217 -2.97784901
v -1.63299084 -1.17000282 -3.02114654
v -1.68089318 -1.20239556 -3.0134542
v -2.49235129 0.45959118 -1.06792629
v -2.47774887 0.427197456 -1.00671566
v -2.48043871 0.44932735 -0.945421755
v -2.72108912 -1.21676588 -0.354445755
v -2.71839929 -1.23889577 -0.415739655
v -2.77113104 -1.22414255 -0.395619243
v -2.53048038 0.441950738 -0.986595333
v -2.93396473 0.462628245 0.145525679
v -2.93526816 0.439368129 0.206445172
v -2.69229269 -1.2311424 -0.426186204
v -2.69098926 -1.2078824 -0.487105697
v -2.74320149 -1.22338903 -0.466212273
v -2.98617697 0.447121501 0.166419119
v -2.97986555 0.431613863 0.225172877
v -2.97544193 0.480421871 0.268209189
v -3.79945731 -1.1900903 2.2474668
v -3.8517077 -1.20635951 2.21198201
v -3.02769208 0.464152515 0.232724532
v -3.80388117 -1.23889828 2.20443034
v -3.49489403 0.415410191 1.48063624
v -3.78056908 -1.2211777 2.25488448
v -3.47158146 0.433130622 1.53109026
v -3.54745626 0.433130711 1.49869919
v -3.83313155 -1.20345724 2.27294755
v -3.85644412 -1.22117758 2.22249365
v -3.52414393 0.450851172 1.54915357
v 1.09521258 2.01440096 -1.95395243
v 1.08376741 1.99238694 -2.00674915
v 0.478601545 0.415792316 -1.21909523
v 0.490047723 0.437780499 -1.16628754
v 1.14918709 1.99241149 -1.95648539
v 0.544022381 0.415792257 -1.16883111
v 1.13774061 1.97039747 -2.00928211
v 0.532575846 0.393804044 -1.22163856
v 0.374440998 1.97039652 -0.198309973
v 0.497074813 0.416448891 -1.2620126
v 0.338940352 1.99302757 -0.238692105
v 0.420472294 1.99303198 -0.226092756
v 0.543106854 0.439093739 -1.28978682
v 0.578606784 0.416448891 -1.24941397
v 0.384972006 2.01566291 -0.2664738
v 0.318276316 2.01439929 -0.121219054
v 0.306830823 1.99238527 -0.174016193
v -0.298334658 0.415790588 0.613638043
v -0.286888987 0.437778771 0.666445017
v 0.372250199 1.99240983 -0.123752803
v -0.232914925 0.415790558 0.663901031
v 0.360804021 1.9703958 -0.176549226
v -0.244360745 0.393802315 0.611094356
v -0.35779804 1.97074354 1.60190964
v -0.281377316 0.41585049 0.571765244
v -0.394815117 1.99277794 1.5625726
v -0.312850714 1.99278128 1.57195663
v -0.236430526 0.437898576 0.541819811
v -0.199413091 0.41585049 0.581149399
v -0.349867463 2.01481581 1.53262055
v -0.418979764 2.0163579 1.66406989
v -0.429965168 1.99355018 1.61151195
v -1.07982898 0.416608304 2.431669
v -1.06884408 0.439415962 2.48422599
v -0.365304202 1.99355018 1.6627475
v -1.01516676 0.416608274 2.48290467
v -0.376289099 1.97074258 1.61019051
v -1.02615297 0.393800616 2.43034744
v -1.13292396 1.9703933 3.45819879
v -1.06361687 0.416413486 2.3917706
v -1.17038798 1.99300611 3.41962218
v -1.08833003 1.99300611 3.42814636
v -1.01902294 0.439026326 2.36171794
v -0.981558502 0.416413456 2.4002943
v -1.12579501 2.01561904 3.38956904
v 1.14086747 2.02562475 -2.02319336
v 1.16800034 1.99801672 -1.97955072
v 1.52920771 0.906143427 -2.89540243
v 1.50207472 0.933766484 -2.93903565
v 1.47959483 0.87852025 -2.8820374
v 1.09125376 1.99800622 -2.00981903
v 1.11838746 1.97039831 -1.96617579
v 1.45246124 0.906143308 -2.92567062
v -1.13376391 2.02796602 3.46340132
v -1.1601758 1.99917936 3.42007732
v -1.58664382 0.879902244 4.42380381
v -1.56023049 0.908689082 4.4671278
v -1.53712487 0.851115406 4.41274357
v -1.08424532 1.99917936 3.45233965
v -1.11065698 1.97039247 3.40901685
v -1.51071298 0.879902244 4.45606565
v -4.58849382 -2.31533074 -3.01036096
v -4.64780617 -2.40514231 -2.98007679
v -5.91920519 -0.566746354 0.0840442926
v -5.85989237 -0.476923734 0.0537913442
v -5.83938646 -0.566746175 0.117136344
v -4.56798887 -2.40513158 -2.94698381
v -5.89200687 -2.35346293 0.106015041
v -5.85184813 -2.45031857 0.153967261
v -2.70836186 -1.25619638 -0.354573041
v -2.74852157 -1.1593399 -0.402525127
v -2.7181921 -1.25619638 -0.457228273
v -5.86167765 -2.45031905 0.0513125546
v -2.7359941 -1.15936887 -0.433160931
v -2.673666 -1.25619638 -0.438909709
v -4.50626135 -2.42870474 -2.95523858
v -4.56858873 -2.33187819 -2.94949031
v -4.58548403 -2.42870498 -2.88922048
v -2.75288868 -1.25619638 -0.372891426
v 1.45406473 0.927352369 -2.92590427
v 1.45414591 0.927410245 -3.07027936
v -1.70852852 -1.12680233 -3.07289076
v -1.70855665 -1.12682533 -2.92851615
v 1.5327059 0.806275368 -2.92590809
v -1.64267194 -1.25618279 -3.07290649
v 1.53278816 0.806333303 -3.07028317
v -1.64269924 -1.25620592 -2.92853141
v -4.67264032 -2.47775817 -3.07298398
v -4.72426081 -2.34292746 -3.07297325
v -4.6726079 -2.47775817 -2.92860961
v -4.72422886 -2.34292817 -2.92859793
v -4.60169411 -2.37334657 -3.00286794
v -4.66742754 -2.30138206 -3.00287175
v -1.71489358 0.494961739 -3.00730181
v -1.64532518 0.418836772 -3.00731611
v -4.55064631 -2.4722724 -2.93501592
v -4.55064583 -2.47227216 -3.07255125
v -4.54643774 -0.579753578 -3.06834412
v -4.54643822 -0.579753339 -2.93080831
v -4.6839757 -0.579753458 -3.06834507
v -4.68818331 -2.47227144 -2.93501616
v -4.68818331 -2.47227216 -3.07255173
v -4.6839757 -0.57975322 -2.93080831
v 0.598977089 0.42902559 -1.29145384
v 0.756467819 0.759359419 -0.974674344
v 0.914966106 0.759591341 -1.3446151
v 0.625038981 0.398502618 -1.28193295
v 0.944326937 0.733484685 -1.33205092
v 0.786215246 0.733483315 -0.962546051
v 0.548686385 0.429478794 -1.14305806
v 0.574290752 0.398502499 -1.13375962
v 0.39832136 0.230094522 -1.44103599
v 0.37858656 0.265410572 -1.44908929
v 0.236741036 0.230094254 -1.07071853
v 0.217466623 0.265580624 -1.07912958
v -0.945058584 0.429376543 2.43721747
v -0.815327764 0.759334326 2.81993484
v -0.656778038 0.759636223 2.45001674
v -0.919352174 0.398500353 2.44656539
v -0.627451718 0.733482122 2.46256566
v -0.785563946 0.73348105 2.83207035
v -0.996580184 0.428647071 2.58517241
v -0.970099926 0.398500204 2.59473896
v -1.0981797 0.230092466 2.17184663
v -1.1179179 0.265400201 2.16376424
v -1.27891839 0.265653819 2.53380442
v -1.2597605 0.230092064 2.54216266
v -0.138731658 0.453331828 0.52266264
v -0.0232673287 0.760002911 0.91511029
v 0.12258102 0.759924591 0.563146114
v -0.113161802 0.423181057 0.533879101
v 0.151651993 0.733483315 0.575608432
v 0.00575254345 0.733482242 0.927693486
v -0.23515518 0.453477383 0.754533112
v -0.209385738 0.423180252 0.766039968
v -0.404745728 0.230093405 0.487931609
v -0.425332218 0.264403373 0.478109449
v -0.446273595 0.230093211 0.588042259
v -0.466709673 0.264506996 0.577863157
v 1.52602065 0.797021866 -3.11843872
v 1.71569085 1.12072277 -2.79932284
v 1.73744154 1.12138641 -3.18083405
v 1.55653739 0.769267917 -3.11830711
v 1.77209496 1.09909463 -3.178895
v 1.75080192 1.09909368 -2.79834461
v 1.53039384 0.796405852 -2.86644983
v 1.56145418 0.769266665 -2.86697173
v 1.2364018 0.550728381 -3.04883194
v 1.21347642 0.585020304 -3.04906368
v 1.23357117 0.550728619 -2.94022179
v 1.21078789 0.585110724 -2.94081569
g submesh0
f 1 2 3
f 4 2 1
f 1 3 5
f 4 1 6
f 5 3 7
f 8 4 6
f 5 7 8
f 8 7 4
f 9 10 11
f 12 11 10
f 9 12 13
f 12 10 13
f 9 14 10
f 10 14 13
f 9 13 14
f 15 16 17
f 15 18 16
f 15 17 19
f 15 20 18
f 20 19 17
f 20 17 18
f 21 22 23
f 24 23 22
f 21 25 22
f 24 22 26
f 21 24 26
f 21 26 25
f 27 28 29
f 30 28 27
f 27 29 31
f 30 27 32
f 29 30 32
f 29 32 31
f 33 34 35
f 33 36 34
f 37 35 36
f 33 37 36
f 33 35 38
f 37 38 35
f 33 38 37
f 39 40 41
f 42 39 41
f 40 43 42
f 42 43 39
f 39 44 40
f 40 44 43
f 39 43 44
f 45 46 47
f 48 45 47
f 45 49 46
f 48 50 45
f 46 49 50
f 46 50 48
f 51 52 53
f 53 52 54
f 55 54 51
f 53 54 55
f 51 53 56
f 53 55 56
f 55 51 56
f 57 58 59
f 57 59 60
f 57 61 58
f 57 60 62
f 62 58 61
f 62 60 58
f 63 64 65
f 65 64 66
f 63 65 67
f 65 66 68
f 68 66 63
f 68 63 67
f 69 70 71
f 71 70 72
f 69 71 73
f 71 72 74
f 74 72 69
f 74 69 73
f 75 76 77
f 78 76 75
f 75 77 79
f 78 75 80
f 79 77 81
f 82 78 80
f 79 81 82
f 82 81 78
f 83 84 85
f 86 84 83
f 83 85 87
f 87 85 86
f 86 83 88
f 87 86 88
f 89 90 91
f 92 90 89
f 93 91 92
f 89 91 93
f 93 92 94
f 92 89 94
f 93 94 95
f 89 93 96
f 93 95 96
f 94 89 97
f 94 97 95
f 89 96 97
f 98 97 96
f 95 97 98
f 98 96 99
f 99 96 95
f 95 98 100
f 99 95 100
f 101 102 103
f 103 102 104
f 101 103 105
f 103 104 106
f 106 104 101
f 106 101 105
f 107 108 109
f 109 108 110
f 109 110 111
f 111 110 107
f 107 109 112
f 111 107 112
f 113 112 114
f 112 115 114
f 113 116 112
f 115 116 113
f 112 117 115
f 115 117 116
f 118 119 120
f 120 119 121
f 118 120 122
f 120 121 123
f 123 121 118
f 123 118 122
f 124 125 126
f 126 125 127
f 124 126 128
f 126 127 129
f 129 127 124
f 129 124 128
f 130 131 132
f 132 131 133
f 130 132 134
f 132 133 135
f 135 133 130
f 135 130 134
f 136 137 138
f 138 137 139
f 136 138 140
f 138 139 141
f 141 139 136
f 141 136 140
f 142 143 144
f 142 144 145
f 146 143 142
f 145 144 147
f 145 147 146
f 146 147 143
f 148 149 150
f 148 150 151
f 152 149 148
f 151 150 153
f 151 153 152
f 152 153 149
f 154 155 156
f 154 157 155
f 158 154 156
f 157 159 155
f 158 156 160
f 157 161 159
f 161 158 160
f 161 160 159
f 162 163 164
f 162 164 165
f 166 163 162
f 165 164 167
f 166 168 163
f 165 167 169
f 169 168 166
f 169 167 168
f 170 171 172
f 170 173 171
f 172 171 173
f 170 174 173
f 172 173 175
f 174 175 173
f 172 175 176
f 174 176 175
f 170 172 177
f 172 176 177
f 178 176 174
f 177 176 178
f 179 170 177
f 179 174 170
f 177 178 179
f 179 178 174
f 180 181 182
f 180 183 181
f 182 181 183
f 180 184 183
f 182 183 185
f 184 185 183
f 182 185 186
f 184 186 185
f 180 182 187
f 182 186 187
f 188 186 184
f 187 186 188
f 189 180 187
f 189 184 180
f 187 188 189
f 189 188 184
f 190 191 192
f 193 190 192
f 193 192 191
f 190 194 191
f 194 190 195
f 193 195 190
f 191 194 196
f 194 195 196
f 191 196 197
f 193 191 197
f 197 196 198
f 195 198 196
f 199 193 197
f 197 198 199
f 199 200 193
f 200 195 193
f 198 200 199
f 200 201 195
f 198 201 200
f 195 201 198
f 202 203 204
f 202 204 205
f 203 206 204
f 207 202 205
f 203 207 206
f 207 205 206
f 208 209 210
f 208 210 211
f 209 212 210
f 213 208 211
f 209 213 212
f 213 211 212
f 214 215 216
f 214 216 217
f 215 218 216
f 219 214 217
f 215 220 218
f 219 217 221
f 220 219 221
f 220 221 218
f 222 223 224
f 222 224 225
f 223 226 224
f 227 222 225
f 223 227 226
f 227 225 226
f 228 229 230
f 228 230 231
f 229 232 230
f 233 228 231
f 229 234 232
f 233 231 235
f 234 233 235
f 234 235 232
f 236 237 238
f 236 238 239
f 237 240 238
f 241 236 239
f 237 242 240
f 241 239 243
f 242 241 243
f 242 243 240
f 244 245 246
f 244 246 247
f 245 248 246
f 249 244 247
f 245 249 248
f 249 247 248
f 250 251 252
f 250 252 253
f 251 254 252
f 255 250 253
f 251 255 254
f 255 253 254
f 256 257 258
f 256 258 259
f 257 260 258
f 261 256 259
f 257 261 260
f 261 259 260
f 262 263 264
f 262 264 265
f 263 266 264
f 267 262 265
f 263 267 266
f 267 265 266
f 268 269 270
f 268 270 271
f 269 272 270
f 273 268 271
f 269 273 272
f 273 271 272
f 274 275 276
f 275 277 276
f 275 278 277
f 274 276 279
f 278 274 279
f 278 279 277
f 280 281 279
f 280 282 281
f 283 280 279
f 282 284 281
f 283 279 285
f 282 286 284
f 286 283 285
f 286 285 284
f 287 288 289
f 287 289 290
f 291 287 290
f 291 290 292
f 293 291 292
f 288 294 289
f 293 292 294
f 288 293 294
f 295 296 294
f 295 297 296
f 298 295 294
f 297 299 296
f 298 294 300
f 297 301 299
f 301 298 300
f 301 300 299
f 302 303 304
f 302 304 305
f 306 302 305
f 306 305 307
f 308 306 307
f 303 309 304
f 308 307 309
f 303 308 309
f 310 311 309
f 310 312 311
f 313 310 309
f 312 314 311
f 313 309 315
f 312 316 314
f 316 313 315
f 316 315 314
f 317 318 319
f 317 319 320
f 321 317 320
f 321 320 322
f 323 321 322
f 318 324 319
f 323 322 324
f 318 323 324
f 325 326 324
f 325 327 326
f 328 325 324
f 327 329 326
f 328 324 330
f 327 331 329
f 331 328 330
f 331 330 329
f 332 333 334
f 332 334 335
f 333 336 334
f 337 332 335
f 333 338 336
f 337 335 339
f 338 337 339
f 338 339 336
f 340 341 342
f 340 342 343
f 341 344 342
f 345 340 343
f 341 346 344
f 345 343 347
f 346 345 347
f 346 347 344
f 348 349 350
f 348 350 351
f 349 352 350
f 353 348 351
f 349 353 352
f 353 351 352
f 354 355 356
f 354 356 357
f 355 358 356
f 359 354 357
f 355 359 358
f 359 357 358
f 360 361 362
f 360 362 363
f 361 364 362
f 365 360 363
f 361 365 364
f 365 363 364
f 366 367 368
f 366 368 369
f 370 366 369
f 367 371 368
f 367 372 371
f 372 370 373
f 370 369 373
f 372 373 371
f 368 371 374
f 368 374 375
f 369 368 375
f 371 376 374
f 371 373 376
f 369 375 377
f 373 369 377
f 373 377 376
f 378 379 380
f 378 380 381
f 379 378 381
f 379 381 380
f 382 383 384
f 382 384 385
f 383 386 384
f 387 382 385
f 383 388 386
f 387 385 389
f 388 387 389
f 388 389 386
f 390 391 392
f 393 390 392
f 394 392 391
f 393 392 394
f 394 391 395
f 395 393 394
f 395 391 396
f 390 396 391
f 395 397 393
f 395 396 397
f 398 390 393
f 398 393 397
f 396 390 399
f 398 399 390
f 398 397 400
f 400 399 398
f 396 399 401
f 397 396 401
f 400 401 399
f 397 401 400
f 402 403 404
f 405 402 404
f 406 404 403
f 405 404 406
f 406 403 407
f 407 405 406
f 407 403 408
f 402 408 403
f 407 409 405
f 407 408 409
f 410 402 405
f 410 405 409
f 408 402 411
f 410 411 402
f 412 409 408
f 408 411 412
f 410 409 413
f 413 411 410
f 412 413 409
f 413 412 411
f 414 415 416
f 417 414 416
f 418 416 415
f 417 416 418
f 418 415 419
f 417 418 419
f 419 415 420
f 414 420 415
f 417 419 421
f 419 420 421
f 422 414 417
f 421 422 417
f 423 420 414
f 422 423 414
f 421 424 422
f 424 423 422
f 423 425 420
f 421 420 425
f 424 425 423
f 421 425 424
f 426 427 428
f 429 426 428
f 430 428 427
f 429 428 430
f 430 427 431
f 431 429 430
f 431 427 432
f 426 432 427
f 431 433 429
f 431 432 433
f 434 426 429
f 434 429 433
f 432 426 435
f 434 435 426
f 434 433 436
f 436 435 434
f 432 435 437
f 433 432 437
f 436 437 435
f 433 437 436
