# casino_sheet_roof_a_COL
v -0.311977386 -3.21211791 -7.82029057
v 0.54293102 -3.090343 -6.16002417
v -0.139501423 -2.68539691 -5.91783476
v 0.560216784 -3.05430818 -6.17156839
v -0.122216195 -2.64936185 -5.92937851
v -0.294670969 -3.17607689 -7.83178329
v -0.973177016 -2.7696352 -7.57895994
v -0.990524471 -2.80567765 -7.56753349
v -0.436890393 -3.1737411 -7.8891201
v -0.419531733 -3.13768864 -7.90049887
v -0.94271934 -2.85490084 -7.6521287
v -0.92517513 -2.81884146 -7.66319609
v -1.57935834 -2.38549948 -7.15154219
v -0.217119291 -2.62138891 -5.84323025
v -0.883979678 -2.2183814 -5.58988953
v -1.56205928 -2.34950638 -7.16319513
v -0.866627395 -2.18238974 -5.60146761
v -0.199766994 -2.58539724 -5.85480881
v -0.990005314 -2.80736208 -7.57966042
v -0.972727478 -2.77136803 -7.5913434
v -1.52361512 -2.4667263 -7.46401548
v -1.54078639 -2.50272226 -7.45218372
v -1.0784657 -2.73470211 -7.63324404
v -1.09563708 -2.77069783 -7.6214118
v -1.66866434 -2.24137402 -6.69323492
v -1.71947861 -2.24186254 -6.76877785
v -2.02294755 -2.2418642 -7.22296047
v -1.70225883 -2.2058332 -6.78043604
v -2.00557637 -2.20578742 -7.23424196
v -1.65151238 -2.20534825 -6.70500374
v -2.10588264 -2.20407605 -7.38610268
v -2.12328577 -2.24016118 -7.37489653
v -0.293894559 -3.19626307 -7.61265326
v -0.276492119 -3.16029525 -7.62423086
v -0.869585335 -3.06300569 -8.21360397
v -0.886972785 -3.09898734 -8.20204735
v -0.575297058 -3.1994307 -8.19140148
v -0.592810512 -3.23530459 -8.1796999
v -0.271703124 -3.19943357 -7.73704386
v -0.289216995 -3.23530674 -7.7253418
v -1.04087627 -3.10221791 -8.42922974
v -1.94607735 -3.12430286 -9.85537052
v -0.983921587 -3.27121329 -8.8760891
v -1.02361155 -3.06616521 -8.44074821
v -0.966739237 -3.23510432 -8.88755512
v -1.92879355 -3.08826232 -9.86689949
v -1.97064865 -2.30539107 -7.48534203
v -1.98794973 -2.3414197 -7.47380304
v -3.06737351 -2.17273402 -8.71557522
v -3.08467484 -2.20876241 -8.70403576
v 0.948491573 -3.23539352 -5.87898684
v 0.101111859 -3.2167995 -7.08701706
v 0.273971677 -3.29529572 -7.07523346
v 0.965669215 -3.19929123 -5.890481
v 0.291149318 -3.25919342 -7.08672714
v 0.118356124 -3.18074131 -7.09854841
v 0.958391786 -3.12861776 -5.67937231
v 0.94113493 -3.16466832 -5.66783428
v -0.46660006 -2.20231223 -4.92319584
v -0.483888507 -2.23834181 -4.91163921
v -1.27574205 -2.27428603 -6.35804415
v -1.29302943 -2.31031561 -6.34648752
v 1.49354362 -2.85099721 -1.0744549
v 0.688724399 -2.56461453 -2.59849858
v 1.31355965 -2.9308238 -2.688344
v 1.5140413 -2.81502676 -1.07852006
v 1.33405733 -2.89485335 -2.69240904
v 0.709222019 -2.52864408 -2.60256362
v 0.864022911 -2.48725438 -1.03007817
v 0.884520471 -2.45128393 -1.03414333
v 0.809558332 -2.45749831 -1.01988053
v 0.217596129 -2.11291075 -0.974618196
v 0.0053508631 -2.22153521 -3.00599003
v 0.238190681 -2.07699656 -0.978690922
v 0.0259451736 -2.18562078 -3.01006246
v 0.830152869 -2.42158389 -1.0239532
v 0.592681408 -2.56861925 -3.09673047
v 0.613275766 -2.53270507 -3.1008029
v -0.612938583 -2.14642024 -5.43552351
v 1.27217352 -3.06517673 -4.12972641
v 0.752425075 -2.7130816 -3.60229778
v -0.592584729 -2.11036229 -5.43953657
v 0.772778928 -2.67702365 -3.60631084
v 1.29252732 -3.02911854 -4.13373995
v -0.0789914653 -2.50436568 -5.94353914
v -0.0586376116 -2.46830773 -5.9475522
v 2.09019995 -3.24470401 -1.13006508
v 0.235657439 -2.17016649 -0.952625871
v 0.137069598 -2.20503855 -1.77038801
v 0.256129235 -2.13417387 -0.956628263
v 0.157542452 -2.16904688 -1.77439404
v 2.11069846 -3.20872879 -1.13408816
v 1.8682456 -3.16062546 -1.93842101
v 1.84770858 -3.19657636 -1.93438077
v 2.02264166 -3.24077177 -1.86124337
v 2.00197864 -3.27664542 -1.85715997
v 1.92582273 -3.25577831 -2.10189795
v 0.0779211372 -2.21734452 -2.19270682
v 1.8300668 -3.23914933 -2.45582414
v 1.94625866 -3.21974754 -2.10573411
v 1.85050285 -3.2031188 -2.45966029
v 0.098357819 -2.18131399 -2.19654179
v 0.134435996 -2.21110749 -1.83302331
v 0.154872686 -2.17507696 -1.83685827
v 1.08027303 -3.14057493 -5.27533054
v 1.15725887 -3.1763525 -5.2070837
v 1.59412324 -3.28803134 -4.00232983
v 1.17759323 -3.14028525 -5.21111298
v 1.61474824 -3.25214529 -4.00649786
v 1.10072482 -3.10458422 -5.27945042
v 1.39318264 -3.07935572 -3.61587787
v 1.37266624 -3.11530471 -3.61171818
v -0.468498826 -2.18473411 -4.62365294
v -0.448031336 -2.14875674 -4.62781
v 0.0944314972 -2.32567811 -3.07563901
v 0.114904955 -2.28970551 -3.07980824
v 0.404518813 -2.17327857 -0.144679815
v 0.382927805 -2.2544992 -0.964805722
v 2.21417809 -3.29011416 -0.910396993
v 0.403398007 -2.2185173 -0.96890837
v 2.23467088 -3.25414371 -0.914485395
v 0.424990445 -2.13729692 -0.148779005
v 2.12536168 -3.14670801 -0.0932309031
v 2.14587665 -3.11074924 -0.0973119587
v 2.23061132 -3.22753477 -0.272181779
v 2.25127697 -3.1916585 -0.276231498
v -0.0516370945 -2.14442897 -2.18661547
v -0.210789755 -2.14321113 -2.99033713
v 1.76831651 -3.31601763 -3.38492703
v -0.190274879 -2.10724401 -2.99434495
v 1.78882957 -3.28005004 -3.38893795
v -0.0311229136 -2.10846162 -2.19062424
v 1.94853437 -3.32960892 -2.58515644
v 1.96904695 -3.29364109 -2.58916831
v -0.461596638 -2.19378662 4.63748455
v -0.142852306 -2.23622155 3.87078571
v 1.38857841 -3.15823245 4.38560724
v -0.123178363 -2.20009279 3.87696505
v 1.4071604 -3.12150025 4.39160919
v -0.441922486 -2.15765762 4.64366198
v 1.07857478 -3.12119961 5.15692329
v 1.09881198 -3.08542442 5.16333866
v 1.19993365 -3.18411374 5.1011138
v 1.22103333 -3.14891934 5.10794926
v 1.40917456 -3.17956972 4.49051619
v 1.42326522 -3.14076495 4.49563599
v 1.42922366 -3.16121602 3.76698518
v -0.354328841 -2.16879988 3.96600699
v -0.0563698709 -2.25359821 3.13940549
v 1.4497627 -3.12522817 3.77067471
v -0.0359092951 -2.21756506 3.14308429
v -0.333868235 -2.13276672 3.96968579
v 1.29730821 -3.17789841 4.66411686
v 1.31787872 -3.14192986 4.66781044
v 1.61569059 -3.25029135 4.05268049
v 1.59496319 -3.2861681 4.04896545
v 1.41746151 -3.1928668 4.60406828
v 1.39673233 -3.22874236 4.60035229
v 1.87141669 -3.21845365 2.70063925
v 1.76135826 -3.07158113 1.88428152
v 1.9736495 -3.21844983 2.12083697
v 1.89215982 -3.18258023 2.70429707
v 1.9943924 -3.18257618 2.12449479
v 1.78191018 -3.03559923 1.88795686
v 1.80439758 -3.14042211 2.78852749
v 1.78381419 -3.17638612 2.7848556
v 0.0493402146 -2.11156178 2.47982836
v 0.0288685262 -2.14758825 2.4761467
v 0.203371421 -2.11025119 1.6106292
v 0.182899743 -2.14627767 1.60694742
v 1.8056004 -3.27474809 2.81123447
v 1.71071076 -3.27474856 3.34938431
v 1.63443542 -3.22832918 3.428406
v 1.73541605 -3.24156356 3.35374045
v 1.6565336 -3.19338894 3.43303299
v 1.8303057 -3.24156356 2.81559014
v 1.62583542 -3.11248016 2.59468746
v 1.6473577 -3.07715964 2.59914279
v 0.0131048756 -2.23313022 3.14356947
v -0.00691243261 -2.26939058 3.13969302
v 0.155304879 -2.23305368 2.33634543
v 0.13536647 -2.2693944 2.33282995
v 1.97504723 -3.26190972 2.03454304
v 2.1697998 -3.2288332 0.668090343
v 2.19845414 -3.2619319 0.767714083
v 1.99972975 -3.22870302 2.03886461
v 2.22254491 -3.2282846 0.771962464
v 2.1917088 -3.19360948 0.671225786
v 1.63902414 -2.98874354 2.25474167
v 1.61753762 -3.02420735 2.25139284
v 0.50269568 -2.2582767 0.375967175
v 0.522694707 -2.22191978 0.378926873
v 0.21564661 -2.25829148 2.00403929
v 0.235057801 -2.22165728 2.00746226
v -2.12088966 -2.15855837 7.03958988
v 0.00318941916 -3.3212564 7.54703903
v -0.450729817 -3.32399416 8.22985935
v -2.10383415 -2.12239218 7.05106497
v -0.433676362 -3.28782892 8.24134064
v 0.0202432834 -3.28509116 7.55851841
v -1.64964855 -2.16818714 6.3694129
v -1.63259256 -2.13202071 6.38088608
v -2.20560336 -2.54216266 8.60241413
v -1.69703352 -2.25577974 6.9556613
v -1.19167972 -2.62198877 7.33395481
v -2.18823504 -2.50619221 8.6140337
v -1.1743114 -2.58601809 7.34557438
v -1.67966521 -2.21980929 6.96728086
v -2.68211842 -2.17842031 8.18865681
v -2.6647501 -2.14244962 8.20027733
v -0.977976978 -2.61233664 7.05837345
v -0.39101544 -3.02350855 7.45674372
v -1.75984573 -2.98093438 9.37260532
v -0.373671293 -2.9875176 7.46833563
v -1.74250114 -2.94494367 9.38419819
v -0.960632682 -2.57634568 7.06996489
v -2.33225632 -2.57031965 8.95421886
v -2.3149116 -2.53432894 8.96581173
v 0.752309501 -2.5541234 4.24106359
v -0.722547114 -2.32763124 5.74931765
v 0.473134518 -2.36951637 4.09042645
v 0.769760251 -2.51820946 4.25273466
v 0.490585387 -2.33360243 4.10209751
v -0.705096364 -2.29171753 5.76098871
v -0.47023052 -2.511235 5.93701458
v -0.452779263 -2.47532129 5.9486866
v -1.32252562 -3.41364241 9.79555607
v -1.08050096 -3.25137281 9.07569695
v -1.00909388 -3.41364217 9.34792805
v -1.30197597 -3.3804574 9.80994511
v -0.988544345 -3.38045764 9.36231709
v -1.06285799 -3.21607995 9.08887768
v -1.40696311 -3.33229232 9.84847641
v -1.42505109 -3.36722255 9.83493805
v -3.01596427 -2.20010662 8.72217178
v -3.03255677 -2.23632693 8.71019936
v -2.54593587 -2.20005226 8.05073643
v -2.56261277 -2.23632956 8.03905964
v -0.0378068127 -3.24698448 7.36457872
v 0.82561332 -3.20910001 6.04065609
v 0.8071298 -3.24700642 6.15793705
v -0.0172629859 -3.21377802 7.37892675
v 0.827168584 -3.21335888 6.17196846
v 0.843760431 -3.17371964 6.05288172
v -0.495761961 -2.93910027 7.42812061
v -0.513805091 -2.97477984 7.41663313
v -1.6884793 -2.15557003 6.59313202
v -1.70545208 -2.19188833 6.58202028
v -0.602565765 -2.15584111 5.04313993
v -0.619596958 -2.1918726 5.03121519
v 1.04663789 3.1159749 -2.94209528
v 0.38952437 3.37652397 -4.91008949
v 0.627257705 3.12433767 -5.02184916
v 0.418229282 3.40609574 -4.91575813
v 0.655962586 3.15390944 -5.02751827
v 1.07534266 3.14554691 -2.94776392
v 1.27007151 2.86940265 -3.09698272
v 1.29877627 2.89897466 -3.10265136
v -0.0775861964 4.24967813 -2.49539876
v 1.37944984 2.60293531 -3.62152338
v 1.55552757 2.58443761 -2.8209331
v -0.0487217605 4.27909327 -2.50106692
v 1.58439124 2.61385298 -2.82660246
v 1.40831351 2.63235068 -3.6271925
v -0.236448973 4.25067091 -3.29917908
v -0.207584649 4.28008604 -3.30484724
v 0.819825649 3.34096766 -2.92548394
v 0.408074558 3.78566885 -2.71603727
v -0.279298574 4.07594109 -4.68381834
v 0.436921984 3.81509066 -2.7217586
v -0.250485152 4.10539007 -4.68957186
v 0.848615706 3.37045074 -2.93118024
v 0.938116133 3.21456504 -2.98545384
v 0.96683073 3.2441268 -2.9911232
v 0.292321891 3.48715806 -4.8348155
v 0.32112819 3.516608 -4.84059906
v 0.132628426 3.63105488 -4.8933363
v 0.161378488 3.66051173 -4.8993597
v 1.63750136 2.99598694 -0.601039708
v 0.667921126 3.70185733 -1.87152517
v 1.12725711 3.19784164 -2.13150072
v 1.66642427 3.02532363 -0.606813133
v 1.15618014 3.22717881 -2.13727403
v 0.696844161 3.73119426 -1.87729871
v 1.16409194 3.50537038 -0.384287208
v 1.19301498 3.53470755 -0.390060753
v 0.329808891 3.81969523 -2.93871617
v 0.613664389 3.94473147 -0.870753407
v 0.357257634 4.20263195 -0.852109969
v 0.64267385 3.97398806 -0.876503885
v 0.386267036 4.23188877 -0.857860446
v 0.358818263 3.84895229 -2.94446659
v 0.0795221627 4.08042765 -2.87479186
v 0.108531557 4.10968447 -2.88054228
v 1.16526055 2.66764021 -4.31333923
v -0.200225413 4.15240431 -3.56744599
v -0.44980076 4.26455498 -4.24728346
v -0.171374813 4.18181992 -3.57318401
v -0.420859069 4.29392958 -4.25276518
v 1.19414067 2.69703293 -4.31904602
v -0.451122403 4.30876875 -4.33766794
v -0.480158567 4.2794404 -4.33244276
v 0.80832386 2.93913484 -5.02654362
v 0.779400826 2.90978622 -5.02082443
v 0.944606841 2.80906057 -4.99928713
v 0.915564001 2.7798562 -4.99344254
v 1.78334713 2.91111588 0.0322196223
v 0.46638456 4.22146797 0.128045261
v 0.245498523 4.11975098 -1.50276756
v 0.495234549 4.25088358 0.122302979
v 0.274348468 4.14916658 -1.50850999
v 1.81216681 2.94056177 0.0264813993
v 1.56293273 2.86692548 -1.60290468
v 1.53412461 2.83746815 -1.59716666
v 1.84886622 2.81084919 -0.155649692
v 1.87760997 2.8403697 -0.161381215
v 1.66479933 2.72613335 -1.51524985
v 1.69354331 2.75565386 -1.52098155
v 1.61620331 2.71761465 -1.82709897
v 0.18938829 4.17252588 -1.5425508
v 0.01821924 4.17359543 -2.40854192
v 0.218252182 4.20194149 -1.54822016
v 0.0470831878 4.20301104 -2.41421127
v 1.6451081 2.74698567 -1.83279121
v 1.3303616 2.89439774 -2.67048335
v 1.30144 2.86504531 -2.66478133
v 1.56845176 2.68763971 -2.51795888
v 1.53939104 2.65843987 -2.51217842
v -0.0990075767 4.17526102 2.9309299
v 0.0851743743 4.14968967 2.13298416
v 1.27080882 2.92597961 2.44493747
v 0.114030086 4.17910433 2.13870263
v 1.29959822 2.95545793 2.45065904
v -0.0701518506 4.20467567 2.93664813
v 1.21706176 2.81685805 3.27754569
v 1.24587131 2.84631729 3.28326702
v 1.41390657 2.7440486 2.67067814
v 1.44253731 2.77367973 2.6764102
v 1.21330225 2.72587371 3.76402283
v -0.197222069 4.19920492 3.30315852
v -0.103077054 4.17815542 2.95201969
v -0.168429062 4.2286334 3.30911398
v -0.0742840767 4.2075839 2.95797515
v 1.24209547 2.75530195 3.76997828
v 1.27660251 2.73706961 3.40266466
v 1.30539536 2.76649809 3.4086206
v 1.68536699 2.7020371 1.5093658
v 0.0742460638 4.1639533 2.12219596
v 0.20934774 4.18872547 1.30929971
v 1.71424484 2.73143315 1.51506507
v 0.238206223 4.21814251 1.3149929
v 0.103104539 4.19337034 2.12788916
v 1.46132183 2.76679468 2.31050539
v 1.49022245 2.79616666 2.31621313
v 1.57973349 2.68225956 2.14178562
v 1.60879707 2.71145868 2.14755297
v 1.27594268 2.65580368 3.79618955
v -0.354488969 4.16900301 4.25505352
v -0.149427205 4.14491272 3.32906127
v 1.30482125 2.68521261 3.80181909
v -0.120548628 4.17432165 3.33469105
v -0.325610548 4.19841194 4.26068354
v 1.03090322 2.72177577 4.70847607
v 1.05978179 2.7511847 4.71410561
v -0.520444989 4.17298651 5.06660461
v -0.286827356 4.09835815 4.28484011
v 0.850710869 2.89411926 4.73878431
v -0.257997602 4.12777996 4.29064608
v 0.879605949 2.92347717 4.74459457
v -0.491615236 4.20240831 5.07241058
v 0.744233012 2.83408141 5.57164049
v 0.7731089 2.86345816 5.5774498
v 0.975923598 2.72078586 4.98350906
v 1.0049746 2.74998736 4.98932838
v 1.03305054 3.10520983 2.98050809
v 1.09896481 3.44525194 0.908406019
v 1.61331987 2.87802148 1.22784114
v 1.0619117 3.13461471 2.98625207
v 1.64218092 2.90742636 1.23358536
v 1.12782609 3.47465682 0.914150238
v 0.5141536 3.67492342 2.67119145
v 0.543014765 3.7043283 2.67693567
v 1.55568421 3.00996494 0.601344645
v 0.221667439 4.18298626 1.28504038
v 0.344975799 4.22186899 0.475979656
v 1.58458924 3.03931522 0.607138872
v 0.373815387 4.25128126 0.481788248
v 0.250506967 4.21239805 1.29084909
v 1.56774354 2.83551383 1.42475796
v 1.59667552 2.86483932 1.43054736
v 1.74595749 2.83939362 0.806399643
v 1.71689343 2.81019306 0.800638318
v 1.66436613 2.81411958 1.34613049
v 1.63530195 2.78491926 1.34036922
v -1.62452376 2.6248312 9.31014252
v -2.89956141 4.22373819 8.34041214
v -2.33481479 4.19485998 7.5510397
v -2.87514043 4.25315619 8.35680676
v -2.31039429 4.22427797 7.56743526
v -1.60006332 2.65420771 9.32655144
v -1.16336298 2.78615117 8.43934155
v -1.18784034 2.75679135 8.4229269
v -1.11004198 2.56576133 8.75084114
v -1.13465512 2.53654099 8.73438072
v -0.355805546 2.71653461 7.23258781
v -2.13690901 4.18889475 7.24881887
v -1.60828257 4.16195965 6.5053587
v -0.331339955 2.74595094 7.24891853
v -1.58381701 4.19137573 6.52168846
v -2.11244345 4.21831083 7.26514864
v -0.877779305 2.7346704 7.98192978
v -0.853313744 2.76408648 7.99825954
v -3.35479856 4.20521021 9.04525757
v -2.85960078 4.15441799 8.39448833
v -1.9283793 2.93417311 9.19719791
v -2.83512998 4.18383217 8.41081333
v -1.90396845 2.96365142 9.21349907
v -3.33032727 4.23462439 9.06158257
v -2.3212738 2.850667 9.93659115
v -2.2968452 2.88012624 9.95289898
v -1.89384484 2.75838351 9.46634579
v -1.86958015 2.78801537 9.48258686
v -2.58574176 3.65005016 9.01052952
v -2.0045073 4.26262856 7.03492785
v -1.50920701 3.68067431 7.34425688
v -2.56132102 3.6795094 9.02684879
v -1.48478591 3.71013355 7.3605752
v -1.98008621 4.29208803 7.05124664
v -3.17169333 4.22968674 8.84103966
v -3.14727259 4.25914574 8.85735893
v -1.62723756 4.19418001 6.48049498
v 0.265619278 2.60155416 6.51786852
v -0.131109565 2.53261638 7.23211575
v -1.60281539 4.22359085 6.49689913
v -0.106687389 2.56202745 7.2485199
v 0.290041447 2.63096547 6.53427219
v -1.21493411 4.24566889 5.77434206
v -1.1905123 4.27507973 5.79074574
v -1.12748134 4.15248203 5.80826664
v 0.668245554 2.80603504 5.54194975
v 0.227179199 2.78082323 6.24979258
v -1.10300291 4.18190432 5.82456732
v 0.251657754 2.81024528 6.26609373
v 0.692723989 2.83545709 5.55825138
v -0.773367763 4.26555586 5.07240963
v -0.748889148 4.29497814 5.08871031
v -0.226681516 4.01371765 -4.80971813
v -0.23426351 2.81855679 -6.97588587
v 0.397835642 2.53444767 -6.53768158
v -0.202168673 4.04310989 -4.82602119
v 0.422348738 2.56383967 -6.55398417
v -0.209750667 2.84794927 -6.99218941
v -0.852047324 4.28222752 -5.26592016
v -0.827534437 4.31162024 -5.28222275
v 0.28392154 2.90892053 -5.93703651
v -0.446638674 4.26588392 -4.58407784
v -0.889077306 4.21255159 -5.3460784
v 0.308461189 2.93827629 -5.95336485
v -0.864583433 4.24197197 -5.36235952
v -0.422144771 4.29530382 -4.60035896
v 0.857738078 2.81646395 -5.24082518
v 0.882296205 2.84579396 -5.25717068
v 0.589743435 2.74438143 -5.87599897
v 0.565092623 2.71518064 -5.85956049
v 0.885421634 2.78066206 -5.36818123
v 0.860771418 2.75146103 -5.35174227
v -1.34072196 3.60257602 -7.22309065
v -1.709571 4.11207819 -6.85301447
v -2.69443321 4.21452999 -8.14256477
v -1.68517315 4.14157295 -6.86930466
v -2.67003536 4.24402475 -8.15885448
v -1.31632411 3.63207078 -7.23938084
v -2.29809737 3.70245361 -8.4761343
v -2.27369952 3.73194838 -8.49242496
v -1.0020802 2.73640323 -8.17217064
v -0.765995622 2.69144034 -7.89476728
v -1.94042099 4.16848612 -6.99380302
v -0.741406858 2.72084808 -7.91092634
v -1.91583216 4.1978941 -7.00996256
v -0.977491736 2.7658112 -8.1883297
v -2.1507194 4.18110847 -7.29082012
v -2.12613082 4.21051645 -7.30697918
v -1.66408002 2.90449095 -8.86019039
v -2.1595192 4.16830015 -7.3230176
v -2.68195105 4.21019411 -8.03333378
v -1.63954329 2.93384147 -8.87653255
v -2.65745091 4.23960638 -8.04961967
v -2.13501906 4.19771242 -7.33930302
v -1.02758729 2.71653891 -8.24206638
v -1.00303543 2.74586439 -8.25843048
v -1.36481488 2.71845722 -8.8476572
v -1.38943982 2.68925691 -8.83117962
v -1.01578319 2.69122529 -8.37430668
v -1.04040849 2.66202545 -8.35782909
v -0.931944966 4.09858227 -5.60496521
v -0.283136249 2.80945611 -6.95729256
v -0.0813054442 3.00807452 -6.29475594
v -0.90746212 4.12800169 -5.6212635
v -0.0568024144 3.03748679 -6.31103706
v -0.258656472 2.83887172 -6.97360229
v -1.74936533 4.22599745 -6.70847511
v -1.77380216 4.1965766 -6.69210863
v -0.690217376 2.8070302 -7.57152987
v -0.665786624 2.83644795 -7.58791018
v -1.87443519 4.18850708 -6.96129179
v -1.89882958 4.1590867 -6.94486332
v -0.851747572 2.87607741 -7.79304361
v -0.876141787 2.8466568 -7.77661467
g submesh0
f 1 2 3
f 4 2 1
f 5 2 4
f 5 3 2
f 5 4 6
f 4 1 6
f 7 3 5
f 5 6 7
f 1 3 8
f 7 8 3
f 6 1 9
f 9 1 8
f 7 6 10
f 6 9 10
f 9 8 11
f 10 9 11
f 7 10 12
f 12 8 7
f 12 11 8
f 10 11 12
f 13 14 15
f 16 13 15
f 17 15 14
f 16 15 17
f 17 14 18
f 18 16 17
f 18 14 19
f 13 19 14
f 18 20 16
f 18 19 20
f 21 13 16
f 20 21 16
f 22 19 13
f 21 22 13
f 20 23 21
f 23 22 21
f 22 24 19
f 20 19 24
f 23 24 22
f 20 24 23
f 25 26 27
f 28 26 25
f 29 26 28
f 29 27 26
f 29 28 30
f 28 25 30
f 31 27 29
f 31 29 30
f 25 27 32
f 31 32 27
f 30 25 33
f 33 25 32
f 31 30 34
f 30 33 34
f 35 32 31
f 34 35 31
f 35 36 32
f 32 36 33
f 37 36 35
f 34 37 35
f 38 33 36
f 37 38 36
f 34 39 37
f 39 38 37
f 38 40 33
f 34 33 40
f 39 40 38
f 34 40 39
f 41 42 43
f 44 41 43
f 45 43 42
f 44 43 45
f 46 44 45
f 45 42 46
f 47 41 44
f 46 47 44
f 48 42 41
f 47 48 41
f 46 49 47
f 49 48 47
f 48 50 42
f 46 42 50
f 49 50 48
f 46 50 49
f 51 52 53
f 54 51 53
f 55 53 52
f 54 53 55
f 56 54 55
f 55 52 56
f 57 51 54
f 56 57 54
f 57 58 51
f 51 58 52
f 59 58 57
f 56 59 57
f 60 52 58
f 59 60 58
f 56 61 59
f 61 60 59
f 60 62 52
f 56 52 62
f 61 62 60
f 56 62 61
f 63 64 65
f 66 63 65
f 67 65 64
f 66 65 67
f 67 64 68
f 68 66 67
f 63 69 64
f 68 64 69
f 68 70 66
f 70 63 66
f 70 69 63
f 68 69 70
f 71 72 73
f 74 72 71
f 75 72 74
f 75 73 72
f 74 71 76
f 75 74 76
f 71 73 77
f 76 71 77
f 75 76 78
f 78 73 75
f 78 77 73
f 76 77 78
f 79 80 81
f 82 79 81
f 83 81 80
f 82 81 83
f 83 80 84
f 84 82 83
f 79 85 80
f 84 80 85
f 84 86 82
f 86 79 82
f 86 85 79
f 84 85 86
f 87 88 89
f 90 88 87
f 91 88 90
f 91 89 88
f 91 90 92
f 90 87 92
f 93 89 91
f 91 92 93
f 87 89 94
f 93 94 89
f 93 92 95
f 95 94 93
f 87 94 96
f 92 87 96
f 95 96 94
f 92 96 95
f 97 98 99
f 100 97 99
f 101 99 98
f 100 99 101
f 101 98 102
f 100 101 102
f 97 103 98
f 103 102 98
f 100 102 104
f 97 100 104
f 97 104 103
f 103 104 102
f 105 106 107
f 108 106 105
f 109 106 108
f 109 107 106
f 109 108 110
f 108 105 110
f 111 107 109
f 109 110 111
f 105 107 112
f 111 112 107
f 110 105 113
f 113 105 112
f 111 110 114
f 110 113 114
f 113 112 115
f 114 113 115
f 111 114 116
f 116 112 111
f 116 115 112
f 114 115 116
f 117 118 119
f 120 118 117
f 121 118 120
f 121 119 118
f 120 117 122
f 121 120 122
f 122 117 123
f 117 119 123
f 121 122 124
f 122 123 124
f 123 119 125
f 124 123 125
f 121 124 126
f 126 119 121
f 126 125 119
f 124 125 126
f 127 128 129
f 130 128 127
f 131 128 130
f 131 129 128
f 130 127 132
f 131 130 132
f 127 129 133
f 132 127 133
f 131 132 134
f 134 129 131
f 134 133 129
f 132 133 134
f 135 136 137
f 138 136 135
f 139 136 138
f 139 137 136
f 138 135 140
f 139 138 140
f 140 135 141
f 135 137 141
f 140 141 142
f 139 140 142
f 142 141 143
f 143 141 137
f 139 142 144
f 142 143 144
f 143 137 145
f 144 143 145
f 139 144 146
f 146 137 139
f 146 145 137
f 144 145 146
f 147 148 149
f 150 147 149
f 151 149 148
f 150 149 151
f 151 148 152
f 152 150 151
f 152 148 153
f 147 153 148
f 152 154 150
f 152 153 154
f 155 147 150
f 154 155 150
f 156 153 147
f 155 156 147
f 154 157 155
f 157 156 155
f 156 158 153
f 154 153 158
f 157 158 156
f 154 158 157
f 159 160 161
f 162 159 161
f 163 161 160
f 162 161 163
f 164 162 163
f 163 160 164
f 165 159 162
f 164 165 162
f 165 166 159
f 159 166 160
f 167 166 165
f 164 167 165
f 168 160 166
f 167 168 166
f 164 169 167
f 169 168 167
f 168 170 160
f 164 160 170
f 169 170 168
f 164 170 169
f 171 172 173
f 174 172 171
f 175 172 174
f 175 173 172
f 174 171 176
f 175 174 176
f 176 171 177
f 171 173 177
f 175 176 178
f 176 177 178
f 179 173 175
f 179 175 178
f 177 173 180
f 179 180 173
f 179 178 181
f 181 180 179
f 177 180 182
f 178 177 182
f 181 182 180
f 178 182 181
f 183 184 185
f 186 183 185
f 187 185 184
f 186 185 187
f 188 186 187
f 187 184 188
f 189 183 186
f 188 189 186
f 183 190 184
f 189 190 183
f 188 184 191
f 190 191 184
f 192 189 188
f 188 191 192
f 190 193 191
f 192 191 193
f 192 194 189
f 194 190 189
f 194 193 190
f 192 193 194
f 195 196 197
f 198 195 197
f 199 197 196
f 198 197 199
f 199 196 200
f 200 198 199
f 195 201 196
f 200 196 201
f 200 202 198
f 202 195 198
f 202 201 195
f 200 201 202
f 203 204 205
f 206 203 205
f 207 205 204
f 206 205 207
f 207 204 208
f 208 206 207
f 203 209 204
f 208 204 209
f 208 210 206
f 210 203 206
f 210 209 203
f 208 209 210
f 211 212 213
f 214 212 211
f 215 212 214
f 215 213 212
f 214 211 216
f 215 214 216
f 211 213 217
f 216 211 217
f 215 216 218
f 218 213 215
f 218 217 213
f 216 217 218
f 219 220 221
f 222 219 221
f 223 221 220
f 222 221 223
f 223 220 224
f 222 223 224
f 219 225 220
f 225 224 220
f 222 224 226
f 219 222 226
f 219 226 225
f 225 226 224
f 227 228 229
f 230 227 229
f 231 229 228
f 230 229 231
f 232 230 231
f 231 228 232
f 233 227 230
f 232 233 230
f 233 234 227
f 227 234 228
f 235 234 233
f 232 235 233
f 236 228 234
f 235 236 234
f 232 237 235
f 237 236 235
f 236 238 228
f 232 228 238
f 237 238 236
f 232 238 237
f 239 240 241
f 242 239 241
f 243 241 240
f 242 241 243
f 244 242 243
f 243 240 244
f 245 239 242
f 244 245 242
f 245 246 239
f 239 246 240
f 247 246 245
f 244 247 245
f 248 240 246
f 247 248 246
f 244 249 247
f 249 248 247
f 248 250 240
f 244 240 250
f 249 250 248
f 244 250 249
f 251 252 253
f 251 254 252
f 252 254 255
f 252 255 253
f 251 256 254
f 256 255 254
f 251 253 257
f 256 251 257
f 256 258 255
f 258 253 255
f 256 257 258
f 258 257 253
f 259 260 261
f 262 259 261
f 263 261 260
f 262 261 263
f 263 260 264
f 264 262 263
f 259 265 260
f 264 260 265
f 264 266 262
f 266 259 262
f 266 265 259
f 264 265 266
f 267 268 269
f 270 268 267
f 271 268 270
f 271 269 268
f 270 267 272
f 271 270 272
f 272 267 273
f 273 267 269
f 272 273 274
f 271 272 274
f 274 273 275
f 269 275 273
f 274 276 271
f 274 275 276
f 269 277 275
f 276 275 277
f 278 271 276
f 278 269 271
f 276 277 278
f 278 277 269
f 279 280 281
f 282 279 281
f 283 281 280
f 282 281 283
f 283 280 284
f 284 282 283
f 279 285 280
f 284 280 285
f 284 286 282
f 286 279 282
f 286 285 279
f 284 285 286
f 287 288 289
f 287 290 288
f 288 290 291
f 288 291 289
f 287 292 290
f 292 291 290
f 287 289 293
f 292 287 293
f 292 294 291
f 294 289 291
f 292 293 294
f 294 293 289
f 295 296 297
f 298 296 295
f 299 296 298
f 299 297 296
f 299 298 300
f 298 295 300
f 301 297 299
f 301 299 300
f 301 302 297
f 295 297 302
f 303 302 301
f 300 303 301
f 302 304 295
f 303 304 302
f 303 300 305
f 305 304 303
f 295 304 306
f 300 295 306
f 305 306 304
f 300 306 305
f 307 308 309
f 310 308 307
f 311 308 310
f 311 309 308
f 311 310 312
f 310 307 312
f 313 309 311
f 311 312 313
f 307 309 314
f 313 314 309
f 312 307 315
f 315 307 314
f 313 312 316
f 312 315 316
f 315 314 317
f 316 315 317
f 313 316 318
f 318 314 313
f 318 317 314
f 316 317 318
f 319 320 321
f 322 320 319
f 323 320 322
f 323 321 320
f 323 322 324
f 322 319 324
f 325 321 323
f 323 324 325
f 319 321 326
f 325 326 321
f 325 324 327
f 327 326 325
f 319 326 328
f 324 319 328
f 327 328 326
f 324 328 327
f 329 330 331
f 332 330 329
f 333 330 332
f 333 331 330
f 332 329 334
f 333 332 334
f 334 329 335
f 329 331 335
f 333 334 336
f 334 335 336
f 335 331 337
f 336 335 337
f 333 336 338
f 338 331 333
f 338 337 331
f 336 337 338
f 339 340 341
f 339 342 340
f 340 342 343
f 340 343 341
f 339 344 342
f 344 343 342
f 339 341 345
f 344 339 345
f 344 346 343
f 346 341 343
f 344 345 346
f 346 345 341
f 347 348 349
f 350 347 349
f 351 349 348
f 350 349 351
f 351 348 352
f 352 350 351
f 352 348 353
f 347 353 348
f 352 354 350
f 352 353 354
f 347 355 353
f 354 353 355
f 356 350 354
f 356 347 350
f 354 355 356
f 356 355 347
f 357 358 359
f 360 357 359
f 361 359 358
f 360 359 361
f 361 358 362
f 362 360 361
f 357 363 358
f 362 358 363
f 362 364 360
f 364 357 360
f 364 363 357
f 362 363 364
f 365 366 367
f 368 366 365
f 369 366 368
f 369 367 366
f 368 365 370
f 369 368 370
f 370 365 371
f 365 367 371
f 369 370 372
f 370 371 372
f 371 367 373
f 372 371 373
f 369 372 374
f 374 367 369
f 374 373 367
f 372 373 374
f 375 376 377
f 378 375 377
f 379 377 376
f 378 377 379
f 379 376 380
f 380 378 379
f 375 381 376
f 380 376 381
f 380 382 378
f 382 375 378
f 382 381 375
f 380 381 382
f 383 384 385
f 386 383 385
f 387 385 384
f 386 385 387
f 387 384 388
f 388 386 387
f 388 384 389
f 383 389 384
f 388 390 386
f 388 389 390
f 391 383 386
f 390 391 386
f 392 389 383
f 391 392 383
f 390 393 391
f 393 392 391
f 392 394 389
f 390 389 394
f 393 394 392
f 390 394 393
f 395 396 397
f 398 396 395
f 399 396 398
f 399 397 396
f 399 398 400
f 398 395 400
f 401 397 399
f 399 400 401
f 395 397 402
f 401 402 397
f 401 400 403
f 403 402 401
f 395 402 404
f 400 395 404
f 403 404 402
f 400 404 403
f 405 406 407
f 408 405 407
f 409 407 406
f 408 407 409
f 409 406 410
f 410 408 409
f 405 411 406
f 410 406 411
f 410 412 408
f 412 405 408
f 412 411 405
f 410 411 412
f 413 414 415
f 416 414 413
f 417 414 416
f 417 415 414
f 416 413 418
f 417 416 418
f 418 413 419
f 413 415 419
f 417 418 420
f 418 419 420
f 419 415 421
f 420 419 421
f 417 420 422
f 422 415 417
f 422 421 415
f 420 421 422
f 423 424 425
f 426 423 425
f 427 425 424
f 426 425 427
f 427 424 428
f 428 426 427
f 423 429 424
f 428 424 429
f 428 430 426
f 430 423 426
f 430 429 423
f 428 429 430
f 431 432 433
f 434 431 433
f 435 433 432
f 434 433 435
f 435 432 436
f 436 434 435
f 431 437 432
f 436 432 437
f 436 438 434
f 438 431 434
f 438 437 431
f 436 437 438
f 439 440 441
f 442 439 441
f 443 441 440
f 442 441 443
f 443 440 444
f 444 442 443
f 439 445 440
f 444 440 445
f 444 446 442
f 446 439 442
f 446 445 439
f 444 445 446
f 447 448 449
f 450 447 449
f 451 449 448
f 450 449 451
f 451 448 452
f 452 450 451
f 447 453 448
f 452 448 453
f 452 454 450
f 454 447 450
f 454 453 447
f 452 453 454
f 455 456 457
f 458 455 457
f 459 457 456
f 458 457 459
f 459 456 460
f 460 458 459
f 460 456 461
f 455 461 456
f 460 462 458
f 460 461 462
f 463 455 458
f 462 463 458
f 464 461 455
f 463 464 455
f 462 465 463
f 465 464 463
f 464 466 461
f 462 461 466
f 465 466 464
f 462 466 465
f 467 468 469
f 470 468 467
f 471 468 470
f 471 469 468
f 470 467 472
f 471 470 472
f 467 469 473
f 472 467 473
f 471 472 474
f 474 469 471
f 474 473 469
f 472 473 474
f 475 476 477
f 478 476 475
f 476 478 479
f 476 479 477
f 478 475 480
f 479 478 480
f 475 477 481
f 481 480 475
f 479 480 482
f 477 479 482
f 481 482 480
f 477 482 481
f 483 484 485
f 486 483 485
f 487 485 484
f 486 485 487
f 487 484 488
f 488 486 487
f 488 484 489
f 483 489 484
f 488 490 486
f 488 489 490
f 491 483 486
f 490 491 486
f 492 489 483
f 491 492 483
f 490 493 491
f 493 492 491
f 492 494 489
f 490 489 494
f 493 494 492
f 490 494 493
f 495 496 497
f 498 495 497
f 499 497 496
f 498 497 499
f 500 498 499
f 499 496 500
f 501 495 498
f 501 498 500
f 496 495 502
f 501 502 495
f 500 496 503
f 496 502 503
f 501 500 504
f 500 503 504
f 505 502 501
f 505 501 504
f 503 502 506
f 505 506 502
f 505 504 507
f 507 506 505
f 503 506 508
f 504 503 508
f 507 508 506
f 504 508 507
