# casino_curtain_d_COL
v -0.196044743 -0.609569371 -0.554704607
v -0.213906869 -0.803681791 -1.26186979
v -0.176792011 -0.812902331 -0.654231787
v -0.331762731 -0.452312917 -0.113914013
v -0.596689463 -0.821321845 -0.749475062
v -0.229250059 -0.575681269 -1.17957366
v -0.314394891 -0.156364739 -0.174605936
v -0.478609025 -0.42350173 -0.443220764
v -0.716825604 -0.659251094 -0.147692651
v -0.603338122 0.0673770159 0.2397964
v -0.386611164 -0.685217261 -1.38119888
v -0.964424431 -0.718218803 -0.885643125
v -0.179490939 -0.89473033 -1.28479707
v -0.424248338 -0.769411445 -1.41986132
v -0.50200814 -0.349062502 -1.09034109
v -0.135802731 -0.540090799 -1.18053639
v -0.435668707 -0.274575353 -1.08321381
v -0.432548314 -0.343278348 -0.481202066
v -0.10193941 -0.576137364 -0.549537361
v -0.223577306 -0.154350281 -0.132794335
v -0.191156194 0.431574553 0.17845434
v -0.259665549 1.03856277 0.66322875
v -0.139698356 0.382707655 0.24891147
v -0.168011203 1.01172161 0.633579612
v -0.5138852 0.0304254144 0.264948964
v -0.267027944 -0.494058818 -0.0501428358
v -0.108988024 -0.882237077 -0.629830539
v -0.61270833 -0.919602513 -0.74029249
v -0.674441516 -0.739772022 -0.106220938
v -0.890316367 -0.784976006 -0.892808735
v -0.590547919 -0.377492517 0.270052403
v -0.681606412 -0.375751793 0.311350465
v -0.763200045 -0.413943321 -1.58156383
v -0.807855725 -0.332241654 -1.54508495
v -0.824877203 -1.02656412 -1.56956327
v -0.950888574 -0.934795082 -0.275013149
v -0.720246792 -1.26146126 -1.03730476
v -1.04536128 -0.923921645 -0.244083896
v -0.924755812 -1.02924418 -1.56544876
v -0.818953753 -1.27724135 -1.03445792
v -0.794770122 -1.44627762 -0.384094656
v -0.890699983 -1.46587777 -0.363769829
v -0.773078918 -2.21668863 -1.26805174
v -0.848478734 -2.09187675 -1.45501328
v -0.939238489 -2.08504438 -1.4135896
v -0.868621349 -2.21527576 -1.23855877
v -0.576205909 -2.38293982 -0.560355246
v -0.674351275 -2.39924169 -0.550267398
v -0.498035312 -2.3933866 0.183761016
v -0.595195055 -2.39271832 0.207413554
v -0.466248244 -1.39586341 0.176444054
v -0.374228269 -1.39395976 0.137345105
v -0.40128994 -2.31991768 0.754761577
v -0.275048018 -0.214908436 0.646133006
v -0.363394082 -0.211329639 0.692845821
v -0.496503145 -2.31151938 0.784157872
v -0.362447083 -1.29905045 0.693176627
v -0.179538548 -2.31147552 1.16111362
v -0.460092396 -1.29274666 0.71381253
v -0.169268817 -1.30027997 1.143314
v -0.274502993 -2.30828643 1.19228613
v -0.265237629 -1.29574203 1.1710515
v -0.198563382 -0.253130943 1.15417016
v -0.0596429855 -2.26517582 1.90242219
v -0.104862347 -0.266377419 1.12185192
v 0.024802193 0.683876395 1.1263144
v -0.159107015 -2.26371837 1.91266322
v -0.0481613427 -1.25772321 1.85075724
v 0.112778217 0.665164411 1.08260942
v -0.146694109 -1.24958539 1.86575508
v -0.0362764671 -2.16330385 2.49567962
v 0.10623382 -0.222598255 1.79059649
v 0.00841433648 -0.208381653 1.80573881
v -0.135981619 -2.15773439 2.50096679
v 0.0396826491 -1.15423536 2.44107413
v 0.11015287 0.772816002 1.7188822
v -0.0598408841 -1.14523506 2.44483399
v -0.0214921646 -2.13529491 2.85472369
v 0.209653392 0.763923168 1.71434355
v 0.0376207978 -0.0847828686 2.34766388
v -0.121243082 -2.12841749 2.85627675
v 0.13719064 -0.094040677 2.34809136
v 0.0230866577 -1.11254525 2.89199305
v -0.0765902326 -1.10579479 2.88766098
v 0.100142792 1.03493774 2.31073976
v 0.120919824 -0.0108990474 2.86949205
v 0.199900568 1.02922904 2.30675602
v 0.0215828028 -0.000451354979 2.86471653
v 0.259319991 1.14429164 2.85955524
v 0.159750596 1.15193355 2.86481166
g submesh0
f 1 2 3
f 3 4 1
f 2 5 3
f 5 4 3
f 2 1 6
f 1 4 7
f 8 6 1
f 1 7 8
f 4 5 9
f 10 7 4
f 9 10 4
f 11 5 2
f 12 9 5
f 11 12 5
f 6 13 2
f 2 14 11
f 14 2 13
f 6 8 15
f 15 16 6
f 13 6 16
f 8 17 15
f 16 15 17
f 17 8 18
f 18 16 17
f 7 18 8
f 16 18 19
f 19 13 16
f 18 7 20
f 20 19 18
f 21 20 7
f 7 10 21
f 10 22 21
f 20 21 23
f 22 23 21
f 23 22 24
f 25 20 23
f 24 25 23
f 26 19 20
f 20 25 26
f 13 19 27
f 26 27 19
f 28 13 27
f 26 28 27
f 28 14 13
f 25 29 26
f 28 26 29
f 30 14 28
f 29 30 28
f 31 29 25
f 24 31 25
f 32 22 10
f 9 32 10
f 14 30 33
f 33 11 14
f 11 33 34
f 12 11 34
f 35 34 33
f 30 35 33
f 36 30 29
f 31 36 29
f 36 37 30
f 35 30 37
f 12 38 9
f 38 32 9
f 39 12 34
f 34 35 39
f 40 38 12
f 12 39 40
f 31 41 36
f 37 36 41
f 42 32 38
f 38 40 42
f 43 35 37
f 44 39 35
f 35 43 44
f 39 44 45
f 43 45 44
f 46 39 45
f 39 46 40
f 45 43 46
f 37 47 43
f 47 46 43
f 47 37 41
f 48 40 46
f 46 47 48
f 40 48 42
f 41 49 47
f 49 48 47
f 50 42 48
f 48 49 50
f 32 42 51
f 42 50 51
f 49 41 52
f 41 31 52
f 53 50 49
f 52 53 49
f 54 52 31
f 31 24 54
f 51 55 32
f 22 32 55
f 56 51 50
f 50 53 56
f 53 52 57
f 52 54 57
f 57 58 53
f 58 56 53
f 51 56 59
f 55 51 59
f 54 60 57
f 58 57 60
f 61 59 56
f 56 58 61
f 62 55 59
f 59 61 62
f 63 22 55
f 55 62 63
f 64 61 58
f 60 64 58
f 60 54 65
f 24 65 54
f 66 24 22
f 22 63 66
f 67 62 61
f 61 64 67
f 64 60 68
f 65 68 60
f 65 24 69
f 24 66 69
f 70 63 62
f 62 67 70
f 71 67 64
f 68 71 64
f 68 65 72
f 69 72 65
f 73 66 63
f 63 70 73
f 74 70 67
f 67 71 74
f 71 68 75
f 72 75 68
f 76 69 66
f 66 73 76
f 77 73 70
f 70 74 77
f 78 74 71
f 75 78 71
f 72 69 79
f 69 76 79
f 80 76 73
f 73 77 80
f 81 77 74
f 74 78 81
f 75 72 82
f 79 82 72
f 78 75 83
f 83 81 78
f 82 83 75
f 77 81 84
f 81 83 84
f 84 80 77
f 85 79 76
f 76 80 85
f 86 84 83
f 83 82 86
f 82 79 87
f 79 85 87
f 80 84 88
f 84 86 88
f 82 89 86
f 89 82 87
f 89 88 86
f 80 90 85
f 90 87 85
f 87 90 89
f 90 80 88
f 88 89 90
