# casino_culling_volume_COL
v -8.61109638 18.5 8.61109543
v -3.33724308 21.1398258 8.05681705
v -6.16642141 21.1398258 6.16642094
v 5.72204577E-08 23.0318279 2.90243833E-07
v -8.05681896 21.1398258 3.33724308
v -4.66029119 18.5 11.2509384
v 3.96498564E-07 21.1398258 8.72063541
v 3.33724356 21.1398258 8.05681705
v 5.37185599E-07 18.5 12.177927
v -8.61109447 12.1845217 8.61109543
v -4.66029119 12.1845217 11.2509413
v 1.90734852E-07 12.1845217 1.48015761E-06
v -11.2509394 12.1845217 4.66029167
v 5.37490791E-07 12.1845217 12.1779299
v 4.66029215 18.5 11.2509384
v -11.2509394 18.5 4.66029119
v -12.177928 12.1845217 -5.78774916E-07
v -12.177928 18.5 -8.61515105E-07
v -8.72063732 21.1398239 -6.51213384E-07
v 6.16642141 21.1398258 6.16642094
v 4.66029215 12.1845217 11.2509413
v -11.2509422 12.1845217 -4.66028595
v -11.2509422 18.5 -4.66028595
v -8.05681992 21.1398258 -3.3372395
v 8.05681896 21.1398258 3.33724308
v -6.16642332 21.1398258 -6.16641998
v 8.61109638 18.5 8.61109543
v 8.61109734 12.1845217 8.61109543
v -8.61109829 12.1845217 -8.61109352
v 11.2509394 12.1845217 4.66029167
v -8.61109829 18.5 -8.61109352
v 11.2509394 18.5 4.66029119
v -4.66029406 12.1845217 -11.2509375
v -4.66029406 18.5 -11.2509394
v 8.72063732 21.1398239 6.65566006E-07
v 12.177928 18.5 9.77300829E-07
v 12.177928 12.1845217 1.26004102E-06
v 8.05681992 21.1398258 -3.33724141
v 11.2509413 18.5 -4.66028881
v -3.33724475 21.1398258 -8.05681801
v -1.40043767E-07 12.1845217 -12.177927
v -1.40348959E-07 18.5 -12.1779299
v 11.2509413 12.1845217 -4.66028833
v 6.1664238 21.1398258 -6.16642094
v -8.86851836E-08 21.1398239 -8.72063828
v 4.66029358 12.1845217 -11.2509384
v 8.61109924 18.5 -8.61109447
v 3.33724475 21.1398258 -8.05681896
v 4.66029358 18.5 -11.2509413
v 8.61109924 12.1845217 -8.61109447
g submesh0
f 1 2 3
f 3 2 4
f 1 3 5
f 5 3 4
f 1 6 2
f 2 7 4
f 6 7 2
f 7 8 4
f 6 9 7
f 9 8 7
f 6 1 10
f 9 6 11
f 6 10 11
f 10 12 11
f 1 13 10
f 13 12 10
f 9 11 14
f 11 12 14
f 9 15 8
f 15 9 14
f 1 16 13
f 1 5 16
f 16 17 13
f 17 12 13
f 18 16 5
f 16 18 17
f 19 5 4
f 18 5 19
f 8 20 4
f 15 20 8
f 15 14 21
f 14 12 21
f 18 22 17
f 22 12 17
f 23 18 19
f 18 23 22
f 24 19 4
f 23 19 24
f 20 25 4
f 26 24 4
f 15 27 20
f 27 15 21
f 27 25 20
f 21 12 28
f 27 21 28
f 29 12 22
f 23 29 22
f 28 12 30
f 31 23 24
f 23 31 29
f 31 24 26
f 32 27 28
f 27 32 25
f 32 28 30
f 31 33 29
f 33 12 29
f 34 31 26
f 31 34 33
f 32 35 25
f 25 35 4
f 36 32 30
f 32 36 35
f 30 12 37
f 36 30 37
f 36 38 35
f 35 38 4
f 39 36 37
f 36 39 38
f 34 26 40
f 40 26 4
f 34 41 33
f 41 12 33
f 42 34 40
f 34 42 41
f 39 37 43
f 37 12 43
f 39 44 38
f 38 44 4
f 45 40 4
f 42 40 45
f 42 46 41
f 46 12 41
f 47 39 43
f 39 47 44
f 44 48 4
f 48 45 4
f 47 48 44
f 49 42 45
f 49 45 48
f 42 49 46
f 47 49 48
f 43 12 50
f 50 12 46
f 47 43 50
f 49 47 50
f 49 50 46
