# chair_a_LOD2
v 0.00590507966 0.119413793 -0.0187503062
v -0.00995713193 0.45093596 -0.00809952524
v 0.00388493016 0.45093596 -0.0116053121
v -0.015134804 0.119413793 -0.0134215225
v -0.0210398808 0.119413793 0.00746394461
v -0.0138420602 0.45093596 0.00564094773
v -0.00388492877 0.45093596 0.0158756282
v -0.00590507779 0.119413793 0.0230206251
v 0.00995713007 0.45093596 0.0123698423
v 0.015134803 0.119413793 0.0176918413
v 0.0138420602 0.45093596 -0.00137062755
v 0.0210398845 0.119413793 -0.00319362432
v 0.00388493016 0.45093596 -0.0116053121
v 0.00590507966 0.119413793 -0.0187503062
v -0.0353297852 0.0661037937 -0.0332923569
v 0.0130162407 0.112291813 -0.0461750925
v 0.0130162407 0.0661037937 -0.0461750925
v -0.0353297852 0.112291813 -0.0332923569
v -0.0483460166 0.0661037937 0.0150178932
v -0.0483460166 0.112291813 0.0150178932
v -0.0130162369 0.0661037937 0.0504454114
v -0.0130162369 0.112291813 0.0504454114
v 0.0353297815 0.0661037937 0.0375626832
v 0.0353297815 0.112291813 0.0375626795
v 0.048346024 0.0661037937 -0.0107475724
v 0.048346024 0.112291813 -0.0107475705
v 0.0130162407 0.0661037937 -0.0461750925
v 0.0130162407 0.112291813 -0.0461750925
v -0.0230763126 0.10255494 0.0410230309
v -0.0646375939 0.0753783211 0.233204722
v -0.00418858789 0.10255494 0.047160022
v -0.0835253224 0.0753783435 0.227067813
v -0.0840307474 0.0501264557 0.228621513
v -0.0651430339 0.0501264483 0.234758511
v -0.0651430339 0.0501264483 0.234758511
v -0.00418858789 0.10255494 0.047160022
v -0.0646375939 0.0753783211 0.233204722
v -0.00149806228 0.0692825094 0.0388794169
v -0.00149806228 0.0692825094 0.0388794169
v -0.0840307474 0.0501264557 0.228621513
v -0.0203857832 0.0692824945 0.0327424295
v -0.0651430339 0.0501264483 0.234758511
v -0.0840307474 0.0501264557 0.228621513
v -0.0230763126 0.10255494 0.0410230309
v -0.0203857832 0.0692824945 0.0327424295
v -0.0835253224 0.0753783435 0.227067813
v -0.0610709973 0.000596823695 0.228224993
v -0.090276815 0.0225801133 0.241845295
v -0.0834835619 0.00059678551 0.220937937
v -0.0678642169 0.0225801468 0.249132335
v -0.0834835768 0.044563435 0.220937937
v -0.0610710047 0.0445634462 0.228224963
v -0.076690346 0.0225801077 0.200030565
v -0.0542777851 0.022580117 0.207317591
v -0.0834835619 0.00059678551 0.220937937
v -0.0610709973 0.000596823695 0.228224993
v -0.0610710047 0.0445634462 0.228224963
v -0.0610709973 0.000596823695 0.228224993
v -0.0542777851 0.022580117 0.207317591
v -0.0678642169 0.0225801468 0.249132335
v -0.076690346 0.0225801077 0.200030565
v -0.090276815 0.0225801133 0.241845295
v -0.0834835768 0.044563435 0.220937937
v -0.0834835619 0.00059678551 0.220937937
v -0.233869508 0.000596818922 0.0144372014
v -0.255900443 0.0225801561 -0.00909574423
v -0.233917162 0.000596818922 -0.00909573864
v -0.255852759 0.0225801468 0.014485918
v -0.233917177 0.044563435 -0.00916465186
v -0.233869478 0.0445634462 0.0144371903
v -0.211933881 0.0225800984 -0.00916464534
v -0.211886227 0.0225801077 0.0143884728
v -0.233917162 0.000596818922 -0.00909573864
v -0.233869508 0.000596818922 0.0144372014
v -0.233869478 0.0445634462 0.0144371903
v -0.233869508 0.000596818922 0.0144372014
v -0.211886227 0.0225801077 0.0143884728
v -0.255852759 0.0225801468 0.014485918
v -0.211933881 0.0225800984 -0.00916464534
v -0.255900443 0.0225801561 -0.00909574423
v -0.233917177 0.044563435 -0.00916465186
v -0.233917162 0.000596818922 -0.00909573864
v -0.0441374779 0.10255494 -0.00769671937
v -0.239711657 0.0754794553 0.012597898
v -0.0440933742 0.10255494 0.012162962
v -0.239755809 0.0754794776 -0.00726178568
v -0.241389692 0.0501264557 -0.0072587016
v -0.241345584 0.0501264483 0.012600976
v -0.241345584 0.0501264483 0.012600976
v -0.0440933742 0.10255494 0.012162962
v -0.239711657 0.0754794553 0.012597898
v -0.0353866518 0.0692825094 0.0121436212
v -0.0353866518 0.0692825094 0.0121436212
v -0.241389692 0.0501264557 -0.0072587016
v -0.0354307592 0.0692824945 -0.00771605363
v -0.241345584 0.0501264483 0.012600976
v -0.241389692 0.0501264557 -0.0072587016
v -0.0441374779 0.10255494 -0.00769671937
v -0.0354307592 0.0692824945 -0.00771605363
v -0.239755809 0.0754794776 -0.00726178568
v 0.197281048 0.000596809376 0.128335342
v 0.201493621 0.0225801077 0.16028446
v 0.183594674 0.000596790283 0.147521451
v 0.215179995 0.0225801468 0.14109832
v 0.183594674 0.0445634313 0.147521451
v 0.197281018 0.0445634499 0.128335327
v 0.165695697 0.0225801133 0.134758472
v 0.179382056 0.0225801077 0.115572356
v 0.183594674 0.000596790283 0.147521451
v 0.197281048 0.000596809376 0.128335342
v 0.197281018 0.0445634499 0.128335327
v 0.197281048 0.000596809376 0.128335342
v 0.179382056 0.0225801077 0.115572356
v 0.215179995 0.0225801468 0.14109832
v 0.165695697 0.0225801133 0.134758472
v 0.201493621 0.0225801077 0.16028446
v 0.183594674 0.0445634313 0.147521451
v 0.183594674 0.000596790283 0.147521451
v 0.030154122 0.102554947 0.0358325392
v 0.200958595 0.0750368387 0.133233711
v 0.0416841917 0.102554947 0.0196626186
v 0.189428538 0.0750368461 0.149403661
v 0.190758541 0.0501265526 0.150352687
v 0.202288628 0.0501265414 0.134182781
v 0.202288628 0.0501265414 0.134182781
v 0.0416841917 0.102554947 0.0196626186
v 0.200958595 0.0750368387 0.133233711
v 0.0345951207 0.0692825168 0.014607707
v 0.0345951207 0.0692825168 0.014607707
v 0.190758541 0.0501265526 0.150352687
v 0.0230650511 0.0692825019 0.0307776239
v 0.202288628 0.0501265414 0.134182781
v 0.190758541 0.0501265526 0.150352687
v 0.030154122 0.102554947 0.0358325392
v 0.0230650511 0.0692825019 0.0307776239
v 0.189428538 0.0750368461 0.149403661
v 0.0414066985 0.10255494 -0.0160381179
v 0.187115774 0.075310789 -0.148060843
v 0.0296266619 0.10255494 -0.0320268534
v 0.198895827 0.0753108039 -0.132072166
v 0.200211555 0.0501264557 -0.13304086
v 0.188431501 0.0501264483 -0.149029583
v 0.188431501 0.0501264483 -0.149029583
v 0.0296266619 0.10255494 -0.0320268534
v 0.187115774 0.075310789 -0.148060843
v 0.0226170123 0.0692825094 -0.02686234
v 0.0226170123 0.0692825094 -0.02686234
v 0.200211555 0.0501264557 -0.13304086
v 0.0343970433 0.0692824945 -0.0108736092
v 0.188431501 0.0501264483 -0.149029583
v 0.200211555 0.0501264557 -0.13304086
v 0.0414066985 0.10255494 -0.0160381179
v 0.0343970433 0.0692824945 -0.0108736092
v 0.198895827 0.0753108039 -0.132072166
v 0.181315511 0.000596818922 -0.14609091
v 0.212989613 0.022580117 -0.140154287
v 0.195291251 0.000596780737 -0.127114534
v 0.199013814 0.0225801375 -0.159130678
v 0.195291236 0.0445634387 -0.127114534
v 0.181315511 0.0445634462 -0.146090895
v 0.177592903 0.0225800984 -0.114074782
v 0.163617194 0.0225801263 -0.133051142
v 0.195291251 0.000596780737 -0.127114534
v 0.181315511 0.000596818922 -0.14609091
v 0.181315511 0.0445634462 -0.146090895
v 0.181315511 0.000596818922 -0.14609091
v 0.163617194 0.0225801263 -0.133051142
v 0.199013814 0.0225801375 -0.159130678
v 0.177592903 0.0225800984 -0.114074782
v 0.212989613 0.022580117 -0.140154287
v 0.195291236 0.0445634387 -0.127114534
v 0.195291251 0.000596780737 -0.127114534
v -0.00438850885 0.10255494 -0.0428706557
v -0.0845245048 0.0752792805 -0.222423866
v -0.0232487917 0.10255494 -0.0366498306
v -0.0656642243 0.0752792954 -0.228644684
v -0.0661755055 0.0501264557 -0.23019655
v -0.0850357786 0.0501264483 -0.223975733
v -0.0850357786 0.0501264483 -0.223975733
v -0.0232487917 0.10255494 -0.0366498306
v -0.0845245048 0.0752792805 -0.222423866
v -0.0205215048 0.0692825094 -0.0283812638
v -0.0205215048 0.0692825094 -0.0283812638
v -0.0661755055 0.0501264557 -0.23019655
v -0.0016612286 0.0692824945 -0.0346020833
v -0.0850357786 0.0501264483 -0.223975733
v -0.0661755055 0.0501264557 -0.23019655
v -0.00438850885 0.10255494 -0.0428706557
v -0.0016612286 0.0692824945 -0.0346020833
v -0.0656642243 0.0752792954 -0.228644684
v -0.0844539925 0.000596823695 -0.216299713
v -0.0689569414 0.0225801226 -0.24455452
v -0.0620711036 0.000596776023 -0.223677441
v -0.0913398266 0.0225801468 -0.237176791
v -0.0620710962 0.0445634387 -0.223677441
v -0.0844539702 0.0445634387 -0.216299698
v -0.0551852658 0.0225801077 -0.202800378
v -0.0775681585 0.022580117 -0.195422664
v -0.0620711036 0.000596776023 -0.223677441
v -0.0844539925 0.000596823695 -0.216299713
v -0.0844539702 0.0445634387 -0.216299698
v -0.0844539925 0.000596823695 -0.216299713
v -0.0775681585 0.022580117 -0.195422664
v -0.0913398266 0.0225801468 -0.237176791
v -0.0551852658 0.0225801077 -0.202800378
v -0.0689569414 0.0225801226 -0.24455452
v -0.0620710962 0.0445634387 -0.223677441
v -0.0620711036 0.000596776023 -0.223677441
v 0.0326075815 0.481819451 -0.0765867084
v 0.0787218213 0.481819451 0.0347429253
v 0.0787218288 0.481819451 -0.0304724537
v -0.0787220672 0.481819451 -0.030472463
v -0.0326078162 0.481819451 -0.0765867159
v -0.0326078348 0.481819451 0.0808571726
v 0.0326075703 0.481819451 0.0808571801
v -0.0787220672 0.481819451 0.034742929
v -0.0795042068 0.486022264 -0.0892978013
v -0.220395863 0.563420951 0.299437225
v -0.279671907 0.593072712 0.218471617
v -0.0765437186 0.515627861 0.306284338
v -0.280679345 0.570644438 -0.065374881
v 0.0765846446 0.515628874 0.306275815
v 0.0795165375 0.4860259 -0.089319028
v 0.220409706 0.563409567 0.299410701
v 0.279657781 0.593044817 0.218457013
v 0.280778974 0.570690274 -0.0653949976
v -0.266477287 0.672164321 -0.16905582
v 0.266325444 0.672106445 -0.16913116
v -0.0749314427 0.610921204 -0.224187061
v -0.231074736 0.920890093 -0.239497542
v -0.189078167 0.976603687 -0.28375265
v -0.0604624115 0.983945549 -0.330772102
v 0.0750418678 0.610924006 -0.224178582
v 0.231173053 0.920927465 -0.239477098
v 0.0604815185 0.98398155 -0.330788225
v 0.189178705 0.976686478 -0.283753395
v 0.0719366148 0.619890451 -0.205016449
v 0.189178705 0.976686478 -0.283753395
v 0.0604815185 0.98398155 -0.330788225
v -0.0719016939 0.619890451 -0.205016434
v 0.231173053 0.920927465 -0.239477098
v -0.0604624115 0.983945549 -0.330772102
v 0.266325444 0.672106445 -0.16913116
v -0.189078167 0.976603687 -0.28375265
v -0.231074736 0.920890093 -0.239497542
v 0.280778974 0.570690274 -0.0653949976
v -0.266477287 0.672164321 -0.16905582
v -0.0760760903 0.50619632 -0.0836442336
v -0.280679345 0.570644438 -0.065374881
v -0.279671907 0.593072712 0.218471617
v -0.220395863 0.563420951 0.299437225
v -0.0765437186 0.515627861 0.306284338
v 0.0765846446 0.515628874 0.306275815
v 0.0761110112 0.50619626 -0.0836442262
v 0.279657781 0.593044817 0.218457013
v 0.220409706 0.563409567 0.299410701
v -0.0130162369 0.0661037937 0.0504454114
v 1.14003551E-09 0.0615902022 0.00213516038
v 0.0353297815 0.0661037937 0.0375626832
v -0.0483460166 0.0661037937 0.0150178932
v 0.048346024 0.0661037937 -0.0107475724
v -0.0353297852 0.0661037937 -0.0332923569
v 0.0130162407 0.0661037937 -0.0461750925
v -0.015134804 0.119413793 -0.0134215225
v -0.0483460166 0.112291813 0.0150178932
v -0.0210398808 0.119413793 0.00746394461
v -0.00590507779 0.119413793 0.0230206251
v -0.0353297852 0.112291813 -0.0332923569
v -0.0130162369 0.112291813 0.0504454114
v 0.0130162407 0.112291813 -0.0461750925
v 0.015134803 0.119413793 0.0176918413
v 0.00590507966 0.119413793 -0.0187503062
v 0.0353297815 0.112291813 0.0375626795
v 0.048346024 0.112291813 -0.0107475705
v 0.0210398845 0.119413793 -0.00319362432
v 0.00388493016 0.45093596 -0.0116053121
v -0.0326078162 0.481819451 -0.0765867159
v 0.0326075815 0.481819451 -0.0765867084
v 0.0787218288 0.481819451 -0.0304724537
v -0.00995713193 0.45093596 -0.00809952524
v 0.0138420602 0.45093596 -0.00137062755
v -0.0787220672 0.481819451 -0.030472463
v 0.0787218213 0.481819451 0.0347429253
v -0.0138420602 0.45093596 0.00564094773
v 0.00995713007 0.45093596 0.0123698423
v -0.0787220672 0.481819451 0.034742929
v 0.0326075703 0.481819451 0.0808571801
v -0.00388492877 0.45093596 0.0158756282
v -0.0326078348 0.481819451 0.0808571726
vn 0.274634093 0.0223912578 -0.961288035
vn -0.697146475 0.0223913435 -0.71657896
vn 0.277904063 0.0223909263 -0.960347891
vn -0.697146416 0.0223913454 -0.71657902
vn -0.969148815 0.0223913472 0.245456949
vn -0.969148815 0.0223913416 0.245456934
vn -0.277903944 0.0223909263 0.960347891
vn -0.274634033 0.0223912634 0.961288035
vn 0.692733705 0.0223909281 0.720845819
vn 0.6951828 0.0223912653 0.718484163
vn 0.970637679 0.02239093 -0.239501938
vn 0.969816923 0.0223912653 -0.242803901
vn 0.277904063 0.0223909263 -0.960347891
vn 0.274634093 0.0223912578 -0.961288035
vn -0.706129491 0 -0.708082795
vn 0.260152966 0 -0.96556735
vn 0.260152966 0 -0.96556735
vn -0.706129491 0 -0.708082795
vn -0.966282308 0 0.257484585
vn -0.966282308 0 0.257484645
vn -0.260153025 0 0.96556735
vn -0.260153025 0 0.96556735
vn 0.706129491 0 0.708082795
vn 0.706129372 0 0.708082795
vn 0.966282308 0 -0.257484555
vn 0.966282427 0 -0.257484555
vn 0.260152966 0 -0.96556735
vn 0.260152966 0 -0.96556735
vn -0.859813392 0.464754552 -0.211480737
vn 0.719981253 0.57153821 0.393663824
vn 0.819909096 0.464754432 0.334293872
vn -0.813851714 0.571562231 -0.104699798
vn -0.721238792 -0.658907294 -0.213671997
vn 0.709074974 -0.658924937 0.251059085
vn 0.709074974 -0.658924937 0.251059085
vn 0.819909096 0.464754432 0.334293872
vn 0.719981253 0.57153821 0.393663824
vn 0.811937809 -0.54444176 0.210570797
vn 0.811937809 -0.54444176 0.210570797
vn -0.721238792 -0.658907294 -0.213671997
vn -0.780641794 -0.544441998 -0.306889713
vn 0.709074974 -0.658924937 0.251059085
vn -0.721238792 -0.658907294 -0.213671997
vn -0.859813392 0.464754552 -0.211480737
vn -0.780641794 -0.544441998 -0.306889713
vn -0.813851714 0.571562231 -0.104699798
vn 0.648699403 -0.731255472 0.210842684
vn -0.87471813 -3.29643882E-07 0.484631985
vn -0.648698866 -0.731256187 -0.210841626
vn 0.422693878 8.66273524E-07 0.906272531
vn -0.648699522 0.731255472 -0.210841939
vn 0.648699224 0.731256127 0.21084106
vn -0.422694027 -3.29737333E-07 -0.906272411
vn 0.87471801 -2.58518668E-07 -0.484632105
vn -0.648698866 -0.731256187 -0.210841626
vn 0.648699403 -0.731255472 0.210842684
vn 0.648699224 0.731256127 0.21084106
vn 0.648699403 -0.731255472 0.210842684
vn 0.87471801 -2.58518668E-07 -0.484632105
vn 0.422693878 8.66273524E-07 0.906272531
vn -0.422694027 -3.29737333E-07 -0.906272411
vn -0.87471813 -3.29643882E-07 0.484631985
vn -0.648699522 0.731255472 -0.210841939
vn -0.648698866 -0.731256187 -0.210841626
vn 0.00113585102 -0.730903327 0.682480097
vn -0.732480824 -0.00023972799 -0.680787563
vn -0.00108983729 -0.731555879 -0.681780636
vn -0.730049968 0.00013039734 0.683393657
vn -0.00108880608 0.730955243 -0.682424664
vn 0.00113524438 0.731607914 0.681724727
vn 0.73002857 -0.000242243463 -0.683416545
vn 0.732459545 0.000128518761 0.680810511
vn -0.00108983729 -0.731555879 -0.681780636
vn 0.00113585102 -0.730903327 0.682480097
vn 0.00113524438 0.731607914 0.681724727
vn 0.00113585102 -0.730903327 0.682480097
vn 0.732459545 0.000128518761 0.680810511
vn -0.730049968 0.00013039734 0.683393657
vn 0.73002857 -0.000242243463 -0.683416545
vn -0.732480824 -0.00023972799 -0.680787563
vn -0.00108880608 0.730955243 -0.682424664
vn -0.00108983729 -0.731555879 -0.681780636
vn -0.0662672594 0.464608073 -0.883033395
vn -0.149757713 0.570186973 0.807749569
vn -0.062344607 0.464607716 0.883319199
vn -0.153351799 0.570210874 -0.807058096
vn -0.0216186233 -0.657567263 -0.753085554
vn -0.0182682816 -0.657584429 0.753159404
vn -0.0182682816 -0.657584429 0.753159404
vn -0.062344607 0.464607716 0.883319199
vn -0.149757713 0.570186973 0.807749569
vn 0.0524969883 -0.54444164 0.837154329
vn 0.0524969883 -0.54444164 0.837154329
vn -0.0216186233 -0.657567263 -0.753085554
vn 0.0487785526 -0.544442058 -0.837378979
vn -0.0182682816 -0.657584429 0.753159404
vn -0.0216186233 -0.657567263 -0.753085554
vn -0.0662672594 0.464608073 -0.883033395
vn 0.0487785526 -0.544442058 -0.837378979
vn -0.153351799 0.570210874 -0.807058096
vn 0.396065027 -0.731255352 -0.555336177
vn 0.199321315 -2.39265205E-07 0.979934156
vn -0.396064103 -0.731255829 0.555335939
vn 0.991413474 8.26073119E-07 -0.130764365
vn -0.396063924 0.731255651 0.555336475
vn 0.396063417 0.731255591 -0.555336833
vn -0.991413474 -1.4359982E-07 0.130764768
vn -0.199321344 -5.14046064E-07 -0.979934156
vn -0.396064103 -0.731255829 0.555335939
vn 0.396065027 -0.731255352 -0.555336177
vn 0.396063417 0.731255591 -0.555336833
vn 0.396065027 -0.731255352 -0.555336177
vn -0.199321344 -5.14046064E-07 -0.979934156
vn 0.991413474 8.26073119E-07 -0.130764365
vn -0.991413474 -1.4359982E-07 0.130764768
vn 0.199321315 -2.39265205E-07 0.979934156
vn -0.396063924 0.731255651 0.555336475
vn -0.396064103 -0.731255829 0.555335939
vn -0.459220946 0.465245456 0.756744802
vn 0.590812266 0.576144338 -0.564799488
vn 0.565795779 0.465245068 -0.680751145
vn -0.341428936 0.576168418 0.742600977
vn -0.419041753 -0.663461268 0.619857371
vn 0.449460447 -0.663477361 -0.598149836
vn 0.449460447 -0.663477361 -0.598149836
vn 0.565795779 0.465245068 -0.680751145
vn 0.590812266 0.576144338 -0.564799488
vn 0.444868386 -0.544441879 -0.711108387
vn 0.444868386 -0.544441879 -0.711108387
vn -0.419041753 -0.663461268 0.619857371
vn -0.527327359 -0.544441998 0.652310371
vn 0.449460447 -0.663477361 -0.598149836
vn -0.419041753 -0.663461268 0.619857371
vn -0.459220946 0.465245456 0.756744802
vn -0.527327359 -0.544441998 0.652310371
vn -0.341428936 0.576168418 0.742600977
vn 0.575894296 0.464852303 0.672501326
vn -0.355418056 0.572444379 -0.738908291
vn -0.471651137 0.464851826 -0.74930501
vn 0.600402355 0.572467685 0.558388531
vn 0.461248308 -0.659805119 0.593217671
vn -0.429895312 -0.659821451 -0.616299927
vn -0.429895312 -0.659821451 -0.616299927
vn -0.471651137 0.464851826 -0.74930501
vn -0.355418056 0.572444379 -0.738908291
vn -0.537403345 -0.544441998 -0.644034624
vn -0.537403345 -0.544441998 -0.644034624
vn 0.461248308 -0.659805119 0.593217671
vn 0.455867946 -0.544441998 0.704107463
vn -0.429895312 -0.659821451 -0.616299927
vn 0.461248308 -0.659805119 0.593217671
vn 0.575894296 0.464852303 0.672501326
vn 0.455867946 -0.544441998 0.704107463
vn 0.600402355 0.572467685 0.558388531
vn -0.40454939 -0.73125577 -0.549185514
vn 0.993313134 5.69749886E-07 0.115451075
vn 0.404549867 -0.73125577 0.549185097
vn 0.18417722 6.18527167E-07 -0.98289305
vn 0.404549509 0.731255412 0.549185991
vn -0.404549778 0.731256008 -0.549184918
vn -0.184177652 -6.50687355E-07 0.982892931
vn -0.993313134 1.398206E-07 -0.115451716
vn 0.404549867 -0.73125577 0.549185097
vn -0.40454939 -0.73125577 -0.549185514
vn -0.404549778 0.731256008 -0.549184918
vn -0.40454939 -0.73125577 -0.549185514
vn -0.993313134 1.398206E-07 -0.115451716
vn 0.18417722 6.18527167E-07 -0.98289305
vn -0.184177652 -6.50687355E-07 0.982892931
vn 0.993313134 5.69749886E-07 0.115451075
vn 0.404549509 0.731255412 0.549185991
vn 0.404549867 -0.73125577 0.549185097
vn 0.818246841 0.464897722 -0.338145137
vn -0.812545121 0.572866797 0.10767509
vn -0.858856499 0.464897275 0.215025708
vn 0.717134893 0.572891772 -0.396878511
vn 0.706962705 -0.660224259 -0.253589451
vn -0.719088495 -0.66024071 0.216780812
vn -0.719088495 -0.66024071 0.216780812
vn -0.858856499 0.464897275 0.215025708
vn -0.812545121 0.572866797 0.10767509
vn -0.779271305 -0.5444417 0.310353667
vn -0.779271305 -0.5444417 0.310353667
vn 0.706962705 -0.660224259 -0.253589451
vn 0.810994565 -0.544441998 -0.214174658
vn -0.719088495 -0.66024071 0.216780812
vn 0.706962705 -0.660224259 -0.253589451
vn 0.818246841 0.464897722 -0.338145137
vn 0.810994565 -0.544441998 -0.214174658
vn 0.717134893 0.572891772 -0.396878511
vn -0.647798538 -0.731255412 0.213594481
vn 0.418781221 -3.78337774E-07 -0.908087194
vn 0.647797406 -0.731256127 -0.213595495
vn -0.876800597 6.27875409E-07 -0.480854273
vn 0.647798121 0.731255591 -0.213594884
vn -0.647797465 0.731255949 0.213595822
vn 0.876800835 -4.50245238E-07 0.480853766
vn -0.418780535 -1.4991457E-07 0.908087492
vn 0.647797406 -0.731256127 -0.213595495
vn -0.647798538 -0.731255412 0.213594481
vn -0.647797465 0.731255949 0.213595822
vn -0.647798538 -0.731255412 0.213594481
vn -0.418780535 -1.4991457E-07 0.908087492
vn -0.876800597 6.27875409E-07 -0.480854273
vn 0.876800835 -4.50245238E-07 0.480853766
vn 0.418781221 -3.78337774E-07 -0.908087194
vn 0.647798121 0.731255591 -0.213594884
vn 0.647797406 -0.731256127 -0.213595495
vn 0.113577686 0.956514239 -0.26866442
vn 0.243955225 0.96437943 0.102264889
vn 0.782834649 -0.53856194 -0.311642438
vn -0.243955687 0.96437943 -0.102264762
vn -0.331553936 -0.517681003 -0.788719475
vn -0.113578059 0.95651412 0.268664837
vn 0.331552774 -0.517681718 0.788719475
vn -0.782831311 -0.538567364 0.311641276
vn -0.199423954 -0.958946168 -0.201623872
vn -0.369721323 -0.927757323 0.0507197641
vn -0.431792259 -0.90138036 0.0326943845
vn -0.158261225 -0.984554708 0.0748691559
vn -0.399844229 -0.896135211 -0.192526087
vn 0.157503679 -0.984677196 0.0748556927
vn 0.199494749 -0.959611058 -0.198364615
vn 0.369680941 -0.927774429 0.0507011674
vn 0.431750178 -0.901401281 0.0326730423
vn 0.39985463 -0.896154344 -0.192415476
vn -0.359944344 -0.398039818 -0.843803465
vn 0.359943897 -0.398149967 -0.843751669
vn -0.189213187 -0.453623682 -0.870875299
vn -0.427956164 -0.258357108 -0.866086125
vn -0.364754558 -0.259513497 -0.894207418
vn -0.154783726 -0.26588589 -0.951497018
vn 0.192556977 -0.454251349 -0.869814634
vn 0.428151369 -0.258371562 -0.865985394
vn 0.159232125 -0.265516698 -0.950865984
vn 0.364770055 -0.259475052 -0.894212246
vn -0.14452453 0.46498549 0.873442113
vn -0.345625252 0.309092909 0.886004925
vn -0.151612014 0.318465024 0.935731769
vn 0.150908127 0.470794469 0.869240582
vn -0.363240212 0.29336825 0.884302795
vn 0.154823884 0.318213075 0.935291409
vn -0.26851362 0.396197438 0.878024995
vn 0.345602691 0.309093803 0.886013448
vn 0.363148689 0.293345094 0.884348154
vn -0.316583127 0.92869246 0.193145886
vn 0.264432818 0.413297445 0.871355593
vn 0.166045874 0.962388158 0.215029642
vn 0.310458094 0.930479944 0.19448106
vn 0.378020406 0.925726414 -0.0114539284
vn 0.35448873 0.935040236 -0.00612816494
vn 0.157557264 0.987225592 -0.0236900058
vn -0.157644451 0.987211764 -0.0236890223
vn -0.165516734 0.961702645 0.218476877
vn -0.378004938 0.925732851 -0.011442747
vn -0.35445255 0.935053885 -0.00613604952
vn -0.0233740564 -0.995955586 0.086753659
vn 0 -1 0
vn 0.063443847 -0.995955586 0.0636193454
vn -0.0868179053 -0.995955586 0.0231343117
vn 0.0868179053 -0.995955586 -0.0231343061
vn -0.063443847 -0.995955586 -0.0636193529
vn 0.0233740509 -0.995955586 -0.0867536664
vn -0.171021879 0.969824433 -0.173759148
vn -0.235576496 0.969824076 0.062808007
vn -0.236761376 0.969805181 0.0584983379
vn -0.10825602 0.968819737 0.222865298
vn -0.173000887 0.969826579 -0.17177628
vn -0.0813814625 0.969410539 0.23156026
vn 0.0813814551 0.969410539 -0.23156026
vn 0.138879016 0.968819737 0.20518513
vn 0.108256027 0.968819737 -0.222865283
vn 0.159846365 0.969410539 0.186258525
vn 0.24122785 0.969410539 -0.0453017168
vn 0.247135073 0.968819737 -0.0176801831
vn 0.133120373 -0.92157197 -0.3646698
vn -0.331553936 -0.517681003 -0.788719475
vn 0.113577686 0.956514239 -0.26866442
vn 0.782834649 -0.53856194 -0.311642438
vn -0.275509953 -0.919637859 -0.279929549
vn 0.390007436 -0.91907227 -0.0565715693
vn -0.243955687 0.96437943 -0.102264762
vn 0.243955225 0.96437943 0.102264889
vn -0.390006125 -0.919072866 0.0565714277
vn 0.275510341 -0.91963762 0.279929638
vn -0.782831311 -0.538567364 0.311641276
vn 0.331552774 -0.517681718 0.788719475
vn -0.133119792 -0.921572387 0.364668906
vn -0.113578059 0.95651412 0.268664837
vt 0.484538883 0.00978527591
vt 0.463815153 0.151170567
vt 0.47901994 0.151170567
vt 0.465121597 0.00978527591
vt 0.446925014 0.00978527591
vt 0.446729243 0.151170567
vt 0.429136455 0.151170567
vt 0.429075927 0.00978527591
vt 0.41158551 0.151170567
vt 0.411239117 0.00978527591
vt 0.394770443 0.151170567
vt 0.393064976 0.00978527591
vt 0.381494224 0.151170567
vt 0.378679693 0.00978527591
vt 0.241433859 0.213990435
vt 0.289660454 0.255011946
vt 0.289660215 0.213990316
vt 0.241433859 0.255011976
vt 0.192652896 0.213990524
vt 0.192652896 0.255012035
vt 0.143632725 0.213990524
vt 0.143632725 0.255012035
vt 0.0946914777 0.213990524
vt 0.0946914777 0.255012035
vt 0.0461482033 0.213990524
vt 0.0461482033 0.255012035
vt 0.0101611819 0.213990524
vt 0.0101611819 0.255012035
vt 0.62700963 0.244348004
vt 0.943360269 0.212057978
vt 0.62700963 0.212058634
vt 0.943360507 0.244346872
vt 0.98252219 0.244347125
vt 0.982521594 0.212058097
vt 0.654299378 0.0747681707
vt 0.981424093 0.0190360844
vt 0.660676122 0.034123905
vt 0.990603209 0.0741952062
vt 0.648137689 0.198177382
vt 0.984444916 0.165888369
vt 0.648137689 0.165888369
vt 0.984444916 0.198177442
vt 0.654601634 0.0902825221
vt 0.981895685 0.145011753
vt 0.990905821 0.0898248926
vt 0.661102474 0.130906835
vt 0.61205554 0.206117496
vt 0.53865397 0.255930305
vt 0.612064958 0.255930483
vt 0.538654208 0.206117496
vt 0.465243667 0.255930305
vt 0.465252906 0.206117496
vt 0.391844302 0.255930305
vt 0.391844302 0.206117347
vt 0.318444759 0.255930483
vt 0.318435341 0.206117734
vt 0.548807323 0.195409849
vt 0.548807204 0.100870527
vt 0.501537502 0.148140192
vt 0.596077025 0.148140356
vt 0.645552814 0.0568990484
vt 0.551013291 0.0568991229
vt 0.598282993 0.104168713
vt 0.598282993 0.00962923281
vt 0.61205554 0.206117496
vt 0.53865397 0.255930305
vt 0.612064958 0.255930483
vt 0.538654208 0.206117496
vt 0.465243667 0.255930305
vt 0.465252906 0.206117496
vt 0.391844302 0.255930305
vt 0.391844302 0.206117347
vt 0.318444759 0.255930483
vt 0.318435341 0.206117734
vt 0.548807323 0.195409849
vt 0.548807204 0.100870527
vt 0.501537502 0.148140192
vt 0.596077025 0.148140356
vt 0.645552814 0.0568990484
vt 0.551013291 0.0568991229
vt 0.598282993 0.104168713
vt 0.598282993 0.00962923281
vt 0.62700963 0.244348004
vt 0.943088472 0.212057978
vt 0.62700963 0.212058634
vt 0.94308871 0.244346887
vt 0.98252219 0.244347125
vt 0.982521594 0.212058097
vt 0.654299378 0.0747681707
vt 0.981424093 0.0190360844
vt 0.660691023 0.0339601338
vt 0.990603209 0.0741952062
vt 0.648137689 0.198177382
vt 0.984444916 0.165888369
vt 0.648137689 0.165888369
vt 0.984444916 0.198177442
vt 0.654601634 0.0902825221
vt 0.981895685 0.145011753
vt 0.990905821 0.0898248926
vt 0.661117911 0.131070539
vt 0.61205554 0.206117496
vt 0.53865397 0.255930305
vt 0.612064958 0.255930483
vt 0.538654208 0.206117496
vt 0.465243667 0.255930305
vt 0.465252906 0.206117496
vt 0.391844302 0.255930305
vt 0.391844302 0.206117347
vt 0.318444759 0.255930483
vt 0.318435341 0.206117734
vt 0.548807323 0.195409849
vt 0.548807204 0.100870527
vt 0.501537502 0.148140192
vt 0.596077025 0.148140356
vt 0.645552814 0.0568990484
vt 0.551013291 0.0568991229
vt 0.598282993 0.104168713
vt 0.598282993 0.00962923281
vt 0.62700963 0.244348004
vt 0.943691432 0.212057978
vt 0.62700963 0.212058634
vt 0.94369173 0.244346872
vt 0.98252219 0.244347125
vt 0.982521594 0.212058097
vt 0.654299378 0.0747681707
vt 0.981424093 0.0190360844
vt 0.660625637 0.0346769579
vt 0.990603209 0.0741952062
vt 0.648137689 0.198177382
vt 0.984444916 0.165888369
vt 0.648137689 0.165888369
vt 0.984444916 0.198177442
vt 0.654601634 0.0902825221
vt 0.981895685 0.145011753
vt 0.990905821 0.0898248926
vt 0.66105032 0.130353943
vt 0.62700963 0.244348004
vt 0.943116426 0.212058008
vt 0.62700963 0.212058634
vt 0.943116665 0.244346887
vt 0.98252219 0.244347125
vt 0.982521594 0.212058097
vt 0.654299378 0.0747681707
vt 0.981424093 0.0190360844
vt 0.660666049 0.0342332385
vt 0.990603209 0.0741952062
vt 0.648137689 0.198177382
vt 0.984444916 0.165888369
vt 0.648137689 0.165888369
vt 0.984444916 0.198177442
vt 0.654601634 0.0902825221
vt 0.981895685 0.145011753
vt 0.990905821 0.0898248926
vt 0.661092103 0.13079752
vt 0.61205554 0.206117496
vt 0.53865397 0.255930305
vt 0.612064958 0.255930483
vt 0.538654208 0.206117496
vt 0.465243667 0.255930305
vt 0.465252906 0.206117496
vt 0.391844302 0.255930305
vt 0.391844302 0.206117347
vt 0.318444759 0.255930483
vt 0.318435341 0.206117734
vt 0.548807323 0.195409849
vt 0.548807204 0.100870527
vt 0.501537502 0.148140192
vt 0.596077025 0.148140356
vt 0.645552814 0.0568990484
vt 0.551013291 0.0568991229
vt 0.598282993 0.104168713
vt 0.598282993 0.00962923281
vt 0.62700963 0.244348004
vt 0.943361104 0.212057963
vt 0.62700963 0.212058634
vt 0.943361342 0.244346887
vt 0.98252219 0.244347125
vt 0.982521594 0.212058097
vt 0.654299378 0.0747681707
vt 0.981424093 0.0190360844
vt 0.660661459 0.0342842601
vt 0.990603209 0.0741952062
vt 0.648137689 0.198177382
vt 0.984444916 0.165888369
vt 0.648137689 0.165888369
vt 0.984444916 0.198177442
vt 0.654601634 0.0902825221
vt 0.981895685 0.145011753
vt 0.990905821 0.0898248926
vt 0.661087334 0.130746514
vt 0.61205554 0.206117496
vt 0.53865397 0.255930305
vt 0.612064958 0.255930483
vt 0.538654208 0.206117496
vt 0.465243667 0.255930305
vt 0.465252906 0.206117496
vt 0.391844302 0.255930305
vt 0.391844302 0.206117347
vt 0.318444759 0.255930483
vt 0.318435341 0.206117734
vt 0.548807323 0.195409849
vt 0.548807204 0.100870527
vt 0.501537502 0.148140192
vt 0.596077025 0.148140356
vt 0.645552814 0.0568990484
vt 0.551013291 0.0568991229
vt 0.598282993 0.104168713
vt 0.598282993 0.00962923281
vt 0.141064137 0.171390325
vt 0.161316127 0.0558699071
vt 0.17540279 0.117869616
vt 0.0252629258 0.150043875
vt 0.0788345113 0.184421659
vt 0.0455148555 0.034523543
vt 0.107744552 0.0214920901
vt 0.0111764409 0.0880441964
vt 0.194273219 0.566187084
vt 0.0733533651 0.281250715
vt 0.0182711706 0.345916718
vt 0.192016333 0.273959517
vt 0.0272314884 0.575081468
vt 0.312409639 0.274038792
vt 0.30966413 0.566505671
vt 0.431034893 0.281451643
vt 0.486010522 0.346262276
vt 0.47682029 0.575712323
vt 0.036247585 0.712661922
vt 0.467041165 0.713307858
vt 0.196297079 0.697806776
vt 0.057206016 0.913568974
vt 0.096634686 0.967129469
vt 0.20328781 0.988550782
vt 0.307318836 0.697989047
vt 0.445758194 0.914223611
vt 0.299329042 0.988754094
vt 0.406160474 0.967724562
vt 0.699646592 0.681685984
vt 0.603220642 0.951230884
vt 0.706638038 0.972579658
vt 0.805972815 0.681685746
vt 0.566445231 0.897295356
vt 0.799007773 0.972562373
vt 0.544306934 0.696313202
vt 0.902370811 0.951192975
vt 0.93914932 0.897279501
vt 0.535568416 0.571691275
vt 0.961388707 0.696321249
vt 0.808049321 0.563216925
vt 0.970028996 0.571684122
vt 0.978857636 0.347131103
vt 0.926920772 0.28179729
vt 0.811143458 0.27382189
vt 0.694486141 0.27382496
vt 0.697579861 0.563217103
vt 0.526802719 0.347136676
vt 0.578727484 0.281806767
vt 0.270537347 0.163569331
vt 0.224716634 0.159732521
vt 0.244304091 0.201333016
vt 0.250950009 0.121968925
vt 0.198483199 0.197495908
vt 0.205129176 0.118131876
vt 0.178895861 0.155895442
vt 0.216070622 0.0709840581
vt 0.242232651 0.101388596
vt 0.234552652 0.0757812485
vt 0.247949094 0.0621731505
vt 0.19773379 0.0904385075
vt 0.273965508 0.0683266595
vt 0.184968561 0.0464258566
vt 0.242863685 0.0437684134
vt 0.210985214 0.0525793657
vt 0.261200547 0.0243139826
vt 0.216701597 0.0133639053
vt 0.224381596 0.0389712676
vt 0.0980618969 0.11160177
vt 0.0788345113 0.184421659
vt 0.141064137 0.171390325
vt 0.17540279 0.117869616
vt 0.0886146799 0.110587776
vt 0.103155352 0.103322387
vt 0.0252629258 0.150043875
vt 0.161316127 0.0558699071
vt 0.0834239498 0.102591455
vt 0.0979646221 0.0953260064
vt 0.0111764409 0.0880441964
vt 0.107744552 0.0214920901
vt 0.0885174051 0.0943119526
vt 0.0455148555 0.034523543
g submesh0
f 1/1/1 2/2/2 3/3/3
f 2/2/2 1/1/1 4/4/4
f 5/5/5 2/2/2 4/4/4
f 2/2/2 5/5/5 6/6/6
f 5/5/5 7/7/7 6/6/6
f 7/7/7 5/5/5 8/8/8
f 8/8/8 9/9/9 7/7/7
f 9/9/9 8/8/8 10/10/10
f 10/10/10 11/11/11 9/9/9
f 11/11/11 10/10/10 12/12/12
f 12/12/12 13/13/13 11/11/11
f 13/13/13 12/12/12 14/14/14
f 15/15/15 16/16/16 17/17/17
f 16/16/16 15/15/15 18/18/18
f 19/19/19 18/18/18 15/15/15
f 18/18/18 19/19/19 20/20/20
f 21/21/21 20/20/20 19/19/19
f 20/20/20 21/21/21 22/22/22
f 23/23/23 22/22/22 21/21/21
f 22/22/22 23/23/23 24/24/24
f 25/25/25 24/24/24 23/23/23
f 24/24/24 25/25/25 26/26/26
f 27/27/27 26/26/26 25/25/25
f 26/26/26 27/27/27 28/28/28
f 29/29/29 30/30/30 31/31/31
f 30/30/30 29/29/29 32/32/32
f 33/33/33 30/30/30 32/32/32
f 30/30/30 33/33/33 34/34/34
f 35/35/35 36/36/36 37/37/37
f 36/36/36 35/35/35 38/38/38
f 39/39/39 40/40/40 41/41/41
f 40/40/40 39/39/39 42/42/42
f 43/43/43 44/44/44 45/45/45
f 44/44/44 43/43/43 46/46/46
f 47/47/47 48/48/48 49/49/49
f 48/48/48 47/47/47 50/50/50
f 50/50/50 51/51/51 48/48/48
f 51/51/51 50/50/50 52/52/52
f 52/52/52 53/53/53 51/51/51
f 53/53/53 52/52/52 54/54/54
f 54/54/54 55/55/55 53/53/53
f 55/55/55 54/54/54 56/56/56
f 57/57/57 58/58/58 59/59/59
f 58/58/58 57/57/57 60/60/60
f 61/61/61 62/62/62 63/63/63
f 62/62/62 61/61/61 64/64/64
f 65/65/65 66/66/66 67/67/67
f 66/66/66 65/65/65 68/68/68
f 68/68/68 69/69/69 66/66/66
f 69/69/69 68/68/68 70/70/70
f 70/70/70 71/71/71 69/69/69
f 71/71/71 70/70/70 72/72/72
f 72/72/72 73/73/73 71/71/71
f 73/73/73 72/72/72 74/74/74
f 75/75/75 76/76/76 77/77/77
f 76/76/76 75/75/75 78/78/78
f 79/79/79 80/80/80 81/81/81
f 80/80/80 79/79/79 82/82/82
f 83/83/83 84/84/84 85/85/85
f 84/84/84 83/83/83 86/86/86
f 87/87/87 84/84/84 86/86/86
f 84/84/84 87/87/87 88/88/88
f 89/89/89 90/90/90 91/91/91
f 90/90/90 89/89/89 92/92/92
f 93/93/93 94/94/94 95/95/95
f 94/94/94 93/93/93 96/96/96
f 97/97/97 98/98/98 99/99/99
f 98/98/98 97/97/97 100/100/100
f 101/101/101 102/102/102 103/103/103
f 102/102/102 101/101/101 104/104/104
f 104/104/104 105/105/105 102/102/102
f 105/105/105 104/104/104 106/106/106
f 106/106/106 107/107/107 105/105/105
f 107/107/107 106/106/106 108/108/108
f 108/108/108 109/109/109 107/107/107
f 109/109/109 108/108/108 110/110/110
f 111/111/111 112/112/112 113/113/113
f 112/112/112 111/111/111 114/114/114
f 115/115/115 116/116/116 117/117/117
f 116/116/116 115/115/115 118/118/118
f 119/119/119 120/120/120 121/121/121
f 120/120/120 119/119/119 122/122/122
f 123/123/123 120/120/120 122/122/122
f 120/120/120 123/123/123 124/124/124
f 125/125/125 126/126/126 127/127/127
f 126/126/126 125/125/125 128/128/128
f 129/129/129 130/130/130 131/131/131
f 130/130/130 129/129/129 132/132/132
f 133/133/133 134/134/134 135/135/135
f 134/134/134 133/133/133 136/136/136
f 137/137/137 138/138/138 139/139/139
f 138/138/138 137/137/137 140/140/140
f 141/141/141 138/138/138 140/140/140
f 138/138/138 141/141/141 142/142/142
f 143/143/143 144/144/144 145/145/145
f 144/144/144 143/143/143 146/146/146
f 147/147/147 148/148/148 149/149/149
f 148/148/148 147/147/147 150/150/150
f 151/151/151 152/152/152 153/153/153
f 152/152/152 151/151/151 154/154/154
f 155/155/155 156/156/156 157/157/157
f 156/156/156 155/155/155 158/158/158
f 158/158/158 159/159/159 156/156/156
f 159/159/159 158/158/158 160/160/160
f 160/160/160 161/161/161 159/159/159
f 161/161/161 160/160/160 162/162/162
f 162/162/162 163/163/163 161/161/161
f 163/163/163 162/162/162 164/164/164
f 165/165/165 166/166/166 167/167/167
f 166/166/166 165/165/165 168/168/168
f 169/169/169 170/170/170 171/171/171
f 170/170/170 169/169/169 172/172/172
f 173/173/173 174/174/174 175/175/175
f 174/174/174 173/173/173 176/176/176
f 177/177/177 174/174/174 176/176/176
f 174/174/174 177/177/177 178/178/178
f 179/179/179 180/180/180 181/181/181
f 180/180/180 179/179/179 182/182/182
f 183/183/183 184/184/184 185/185/185
f 184/184/184 183/183/183 186/186/186
f 187/187/187 188/188/188 189/189/189
f 188/188/188 187/187/187 190/190/190
f 191/191/191 192/192/192 193/193/193
f 192/192/192 191/191/191 194/194/194
f 194/194/194 195/195/195 192/192/192
f 195/195/195 194/194/194 196/196/196
f 196/196/196 197/197/197 195/195/195
f 197/197/197 196/196/196 198/198/198
f 198/198/198 199/199/199 197/197/197
f 199/199/199 198/198/198 200/200/200
f 201/201/201 202/202/202 203/203/203
f 202/202/202 201/201/201 204/204/204
f 205/205/205 206/206/206 207/207/207
f 206/206/206 205/205/205 208/208/208
f 209/209/209 210/210/210 211/211/211
f 209/209/209 212/212/212 210/210/210
f 213/213/213 212/212/212 209/209/209
f 210/210/210 212/212/212 214/214/214
f 210/210/210 214/214/214 215/215/215
f 214/214/214 212/212/212 216/216/216
f 217/217/217 218/218/218 219/219/219
f 217/217/217 220/220/220 218/218/218
f 217/217/217 219/219/219 221/221/221
f 217/217/217 222/222/222 220/220/220
f 222/222/222 217/217/217 223/223/223
f 224/224/224 222/222/222 223/223/223
f 224/224/224 223/223/223 225/225/225
f 225/225/225 223/223/223 226/226/226
f 227/227/227 217/217/217 221/221/221
f 223/223/223 228/228/228 226/226/226
f 217/217/217 227/227/227 229/229/229
f 229/229/229 223/223/223 217/217/217
f 230/230/230 229/229/229 227/227/227
f 231/231/231 229/229/229 230/230/230
f 232/232/232 229/229/229 231/231/231
f 228/228/228 223/223/223 233/233/233
f 223/223/223 229/229/229 233/233/233
f 232/232/232 233/233/233 229/229/229
f 233/233/233 234/234/234 228/228/228
f 233/233/233 232/232/232 235/235/235
f 233/233/233 236/236/236 234/234/234
f 233/233/233 235/235/235 236/236/236
f 237/237/237 238/238/238 239/239/239
f 239/239/239 240/240/240 237/237/237
f 237/237/237 241/241/241 238/238/238
f 240/240/240 239/239/239 242/242/242
f 243/243/243 241/241/241 237/237/237
f 244/244/244 240/240/240 242/242/242
f 245/245/245 240/240/240 244/244/244
f 237/237/237 246/246/246 243/243/243
f 247/247/247 240/240/240 245/245/245
f 247/247/247 248/248/248 240/240/240
f 248/248/248 247/247/247 249/249/249
f 250/250/250 248/248/248 249/249/249
f 251/251/251 248/248/248 250/250/250
f 252/252/252 248/248/248 251/251/251
f 253/253/253 248/248/248 252/252/252
f 246/246/246 237/237/237 254/254/254
f 240/240/240 254/254/254 237/237/237
f 254/254/254 240/240/240 248/248/248
f 248/248/248 253/253/253 254/254/254
f 254/254/254 255/255/255 246/246/246
f 254/254/254 253/253/253 256/256/256
f 254/254/254 256/256/256 255/255/255
f 257/257/257 258/258/258 259/259/259
f 260/260/260 258/258/258 257/257/257
f 259/259/259 258/258/258 261/261/261
f 262/262/262 258/258/258 260/260/260
f 261/261/261 258/258/258 263/263/263
f 263/263/263 258/258/258 262/262/262
f 264/264/264 265/265/265 266/266/266
f 265/265/265 267/267/267 266/266/266
f 265/265/265 264/264/264 268/268/268
f 267/267/267 265/265/265 269/269/269
f 264/264/264 270/270/270 268/268/268
f 269/269/269 271/271/271 267/267/267
f 270/270/270 264/264/264 272/272/272
f 271/271/271 269/269/269 273/273/273
f 272/272/272 274/274/274 270/270/270
f 273/273/273 275/275/275 271/271/271
f 274/274/274 272/272/272 275/275/275
f 275/275/275 273/273/273 274/274/274
f 276/276/276 277/277/277 278/278/278
f 279/279/279 276/276/276 278/278/278
f 277/277/277 276/276/276 280/280/280
f 276/276/276 279/279/279 281/281/281
f 282/282/282 277/277/277 280/280/280
f 283/283/283 281/281/281 279/279/279
f 284/284/284 282/282/282 280/280/280
f 281/281/281 283/283/283 285/285/285
f 282/282/282 284/284/284 286/286/286
f 283/283/283 287/287/287 285/285/285
f 288/288/288 286/286/286 284/284/284
f 287/287/287 288/288/288 285/285/285
f 286/286/286 288/288/288 289/289/289
f 288/288/288 287/287/287 289/289/289
