# chair_b_LOD0
v -0.288259387 0.496492714 -0.200030357
v -0.21057342 0.49139896 -0.194711447
v -0.284789741 0.492959172 -0.196491778
v 0.198479369 1.75988528E-18 0.213823587
v 0.198479369 0.497313172 0.271305799
v 0.198479369 0.497313172 0.213823587
v 0.198479369 -1.75988528E-18 0.271305799
v 0.203238249 -2.05128343E-18 0.276064694
v 0.203238249 0.497313172 0.276064694
v 0.260720462 0.497313172 0.276064694
v 0.260720462 -2.05128343E-18 0.276064694
v 0.265479356 -1.75988528E-18 0.271305799
v 0.265479356 0.497313172 0.271305799
v 0.265479356 0.497313172 0.213823587
v 0.265479356 1.75988528E-18 0.213823587
v 0.260720462 2.05128343E-18 0.209064692
v 0.260720462 0.497313172 0.209064692
v 0.203238249 0.497313172 0.209064692
v 0.203238249 2.05128343E-18 0.209064692
v 0.198479369 1.75988528E-18 0.213823587
v 0.198479369 0.497313172 0.213823587
v 0.251680851 2.84760268E-17 -0.222484082
v 0.248997107 3.16007247E-17 -0.27351433
v 0.251680851 3.14363937E-17 -0.270830572
v 0.248997107 2.83116925E-17 -0.219800338
v 0.217036813 3.16007247E-17 -0.27351433
v 0.217036813 2.83116925E-17 -0.219800338
v 0.214353085 3.14363937E-17 -0.270830572
v 0.214353085 2.84760268E-17 -0.222484082
v 0.248997107 0.334429115 -0.206708372
v 0.217036813 2.83116925E-17 -0.219800338
v 0.248997107 2.83116925E-17 -0.219800338
v 0.217036813 0.334429115 -0.206708372
v 0.214353085 0.334426761 -0.209392086
v 0.214353085 2.84760268E-17 -0.222484082
v 0.214353085 3.14363937E-17 -0.270830572
v 0.217036813 0.41160506 -0.203687161
v 0.248997107 0.41160506 -0.203687161
v 0.248997107 0.511550963 -0.203939199
v 0.214353085 0.411602229 -0.20637089
v 0.217036813 0.511550963 -0.203939199
v 0.248997107 0.61112684 -0.212535009
v 0.214353085 0.511550307 -0.206622958
v 0.214353085 0.411539912 -0.265404701
v 0.214353085 0.334376246 -0.266422033
v 0.217036813 0.61112684 -0.212535009
v 0.248997107 1.02619112 -0.270882577
v 0.214353085 0.61112684 -0.215218768
v 0.217036813 0.334373891 -0.269105762
v 0.217036813 3.16007247E-17 -0.27351433
v 0.248997107 3.16007247E-17 -0.27351433
v 0.217036813 1.02619112 -0.270882577
v 0.248997107 1.03895307 -0.277425259
v 0.214353085 0.511534691 -0.267605782
v 0.217036813 0.411537081 -0.2680884
v 0.214353085 1.02619112 -0.273566306
v 0.217036813 1.03895307 -0.277425259
v 0.248997107 1.04320705 -0.290955752
v 0.217036813 0.511533976 -0.27028954
v 0.248997107 0.411537081 -0.2680884
v 0.214353085 0.61112684 -0.276851267
v 0.214353085 1.03895307 -0.280109018
v 0.217036828 1.04320705 -0.290955752
v 0.217036813 1.04320717 -0.323923588
v 0.248997107 1.04320717 -0.323923588
v 0.248997107 1.03895319 -0.335917234
v 0.217036813 1.03895319 -0.335917234
v 0.217036813 0.61112684 -0.279535025
v 0.214353085 1.02619112 -0.33519882
v 0.214353085 1.04052341 -0.29136771
v 0.217036828 1.04320705 -0.290955752
v 0.214353085 1.03895319 -0.333233476
v 0.214353085 1.04052341 -0.323461741
v 0.217036813 1.04320717 -0.323923588
v 0.217036813 1.03895319 -0.335917234
v 0.217036813 1.02619112 -0.337882578
v 0.248997107 0.511533976 -0.27028954
v 0.248997107 1.02619112 -0.337882578
v 0.248997107 1.03895319 -0.335917234
v 0.248997107 0.61112684 -0.279535025
v 0.251680851 1.03895319 -0.333233476
v 0.251680851 1.02619112 -0.33519882
v 0.251680851 0.61112684 -0.276851267
v 0.251680851 0.511534691 -0.267605782
v 0.251680851 1.02619112 -0.273566306
v 0.251680851 1.04052341 -0.323461741
v 0.248997107 1.04320717 -0.323923588
v 0.251680851 1.03895307 -0.280109018
v 0.251680851 1.04052341 -0.29136771
v 0.248997107 1.04320705 -0.290955752
v 0.248997107 1.03895307 -0.277425259
v 0.248997107 1.02619112 -0.270882577
v 0.251680851 0.61112684 -0.215218768
v 0.248997107 0.61112684 -0.212535009
v 0.251680851 0.511550307 -0.206622958
v 0.248997107 0.511550963 -0.203939199
v 0.251680851 0.411602229 -0.20637089
v 0.248997107 0.41160506 -0.203687161
v 0.251680851 0.411539912 -0.265404701
v 0.251680851 0.334426761 -0.209392086
v 0.248997107 0.334429115 -0.206708372
v 0.248997107 0.334373891 -0.269105762
v 0.251680851 0.334376246 -0.266422033
v 0.251680851 3.14363937E-17 -0.270830572
v 0.251680851 2.84760268E-17 -0.222484082
v 0.248997107 2.83116925E-17 -0.219800338
v -0.200176388 -1.75988548E-18 0.271305799
v -0.204935297 2.05128364E-18 0.209064692
v -0.200176388 1.75988548E-18 0.213823587
v -0.204935297 -2.05128364E-18 0.276064694
v -0.262417436 2.05128364E-18 0.209064692
v -0.262417436 -2.05128364E-18 0.276064694
v -0.26717636 1.75988548E-18 0.213823587
v -0.26717636 -1.75988548E-18 0.271305799
v -0.200176388 0.497313172 0.271305799
v -0.200176388 1.75988548E-18 0.213823587
v -0.200176388 0.497313172 0.213823587
v -0.200176388 -1.75988548E-18 0.271305799
v -0.204935297 0.497313172 0.276064694
v -0.204935297 -2.05128364E-18 0.276064694
v -0.262417436 0.497313172 0.276064694
v -0.262417436 -2.05128364E-18 0.276064694
v -0.26717636 0.497313172 0.271305799
v -0.26717636 -1.75988548E-18 0.271305799
v -0.26717636 0.497313172 0.213823587
v -0.26717636 1.75988548E-18 0.213823587
v -0.262417436 0.497313172 0.209064692
v -0.262417436 2.05128364E-18 0.209064692
v -0.204935297 0.497313172 0.209064692
v -0.204935297 2.05128364E-18 0.209064692
v -0.200176388 0.497313172 0.213823587
v -0.200176388 1.75988548E-18 0.213823587
v -0.218733862 1.03895307 -0.277425259
v -0.250694066 1.04320705 -0.290955752
v -0.250694066 1.03895307 -0.277425259
v -0.218733862 1.04320705 -0.290955752
v -0.218733862 1.04320717 -0.323923588
v -0.250694066 1.04320717 -0.323923588
v -0.250694066 1.03895319 -0.335917234
v -0.218733862 1.03895319 -0.335917234
v -0.250694066 1.02619112 -0.337882578
v -0.218733862 1.02619112 -0.337882578
v -0.250694066 0.61112684 -0.279535025
v -0.218733862 0.61112684 -0.279535025
v -0.250694066 0.511533976 -0.27028954
v -0.218733862 0.511533976 -0.27028954
v -0.250694066 0.411537081 -0.2680884
v -0.216050103 1.03895319 -0.333233476
v -0.216050103 1.02619112 -0.33519882
v -0.216050103 0.61112684 -0.276851267
v -0.216050103 1.04052341 -0.323461741
v -0.218733862 1.04320717 -0.323923588
v -0.216050103 1.04052341 -0.29136771
v -0.218733862 1.04320705 -0.290955752
v -0.216050103 1.03895307 -0.280109018
v -0.218733862 1.03895307 -0.277425259
v -0.216050103 1.02619112 -0.273566306
v -0.218733862 1.02619112 -0.270882577
v -0.250694066 1.03895307 -0.277425259
v -0.216050103 0.61112684 -0.215218768
v -0.216050103 0.511534691 -0.267605782
v -0.218733862 0.411537081 -0.2680884
v -0.218733862 0.334373891 -0.269105762
v -0.250694066 0.334373891 -0.269105762
v -0.250694066 3.16007247E-17 -0.27351433
v -0.218733862 3.16007247E-17 -0.27351433
v -0.216050103 0.411539912 -0.265404701
v -0.216050103 0.334376246 -0.266422033
v -0.216050103 3.14363937E-17 -0.270830572
v -0.216050103 0.334426761 -0.209392086
v -0.216050103 2.84760268E-17 -0.222484082
v -0.216050103 0.511550307 -0.206622958
v -0.216050103 0.411602229 -0.20637089
v -0.218733862 0.334429115 -0.206708372
v -0.218733862 2.83116925E-17 -0.219800338
v -0.218733862 0.61112684 -0.212535009
v -0.218733862 0.511550963 -0.203939199
v -0.218733862 0.41160506 -0.203687161
v -0.250694066 0.334429115 -0.206708372
v -0.250694066 2.83116925E-17 -0.219800338
v -0.250694066 1.02619112 -0.270882577
v -0.250694066 0.61112684 -0.212535009
v -0.250694066 0.511550963 -0.203939199
v -0.250694066 0.41160506 -0.203687161
v -0.253377825 0.334426761 -0.209392086
v -0.253377825 2.84760268E-17 -0.222484082
v -0.253377825 0.411602229 -0.20637089
v -0.253377825 0.511550307 -0.206622958
v -0.253377825 0.61112684 -0.215218768
v -0.253377825 1.02619112 -0.273566306
v -0.253377825 1.03895307 -0.280109018
v -0.253377825 0.334376246 -0.266422033
v -0.253377825 3.14363937E-17 -0.270830572
v -0.253377825 0.511534691 -0.267605782
v -0.253377825 0.411539912 -0.265404701
v -0.250694066 0.334373891 -0.269105762
v -0.250694066 3.16007247E-17 -0.27351433
v -0.250694066 0.411537081 -0.2680884
v -0.250694066 0.511533976 -0.27028954
v -0.250694066 0.61112684 -0.279535025
v -0.253377825 0.61112684 -0.276851267
v -0.250694066 1.02619112 -0.337882578
v -0.253377825 1.02619112 -0.33519882
v -0.250694066 1.03895319 -0.335917234
v -0.253377825 1.03895319 -0.333233476
v -0.250694066 1.04320717 -0.323923588
v -0.253377825 1.04052341 -0.323461741
v -0.250694066 1.04320705 -0.290955752
v -0.253377825 1.04052341 -0.29136771
v 0.265479356 -1.75988528E-18 0.271305799
v 0.260720462 2.05128343E-18 0.209064692
v 0.265479356 1.75988528E-18 0.213823587
v 0.260720462 -2.05128343E-18 0.276064694
v 0.203238249 -2.05128343E-18 0.276064694
v 0.203238249 2.05128343E-18 0.209064692
v 0.198479369 1.75988528E-18 0.213823587
v 0.198479369 -1.75988528E-18 0.271305799
v -0.216050103 2.84760268E-17 -0.222484082
v -0.218733862 3.16007247E-17 -0.27351433
v -0.216050103 3.14363937E-17 -0.270830572
v -0.218733862 2.83116925E-17 -0.219800338
v -0.250694066 2.83116925E-17 -0.219800338
v -0.250694066 3.16007247E-17 -0.27351433
v -0.253377825 3.14363937E-17 -0.270830572
v -0.253377825 2.84760268E-17 -0.222484082
v 0.241536692 0.495148689 0.209064692
v 0.241536692 0.378010541 -0.209349662
v 0.241536692 0.495148689 -0.209349662
v 0.241536692 0.378010541 0.209064692
v 0.222422048 0.378010541 0.209064692
v 0.222422048 0.378010541 -0.209349662
v 0.222422048 0.495148689 -0.209349662
v 0.222422048 0.495148689 0.209064692
v -0.202500761 0.378010541 0.250760019
v 0.200803757 0.495148689 0.250760019
v -0.202500761 0.495148689 0.250760019
v 0.200803757 0.378010541 0.250760019
v -0.202500761 0.378010541 0.231645331
v 0.200803757 0.378010541 0.231645331
v -0.202500761 0.495148689 0.231645331
v 0.200803757 0.495148689 0.231645331
v -0.216050103 0.840835631 -0.269113421
v 0.214353099 1.00651026 -0.298326194
v -0.216050103 1.00651026 -0.298326194
v 0.214353099 0.840835631 -0.269113421
v -0.216050103 0.837516546 -0.287937731
v 0.214353099 0.837516546 -0.287937731
v -0.216050103 1.00319111 -0.317150503
v 0.214353099 1.00319111 -0.317150503
v -0.216050103 1.00651026 -0.298326194
v 0.214353099 1.00651026 -0.298326194
v -0.216050103 0.495148689 -0.225312948
v 0.214353099 0.378010541 -0.225312948
v 0.214353099 0.495148689 -0.225312948
v -0.216050103 0.378010541 -0.225312948
v 0.214353099 0.378010541 -0.244427636
v -0.216050103 0.378010541 -0.244427636
v -0.216050103 0.495148689 -0.244427636
v 0.214353099 0.495148689 -0.244427636
v -0.243233711 0.378010541 -0.209349662
v -0.243233711 0.495148689 0.209064692
v -0.243233711 0.495148689 -0.209349662
v -0.243233711 0.378010541 0.209064692
v -0.224119022 0.378010541 0.209064692
v -0.224119022 0.378010541 -0.209349662
v -0.224119022 0.495148689 -0.209349662
v -0.224119022 0.495148689 0.209064692
v 0.28510341 0.492990583 0.289268732
v 0.205919206 0.491426051 -0.200437769
v 0.28502515 0.492992461 -0.192563161
v 0.215847373 0.490752012 0.283428192
v 0.099199757 0.492853224 -0.309904575
v 0.202038348 0.492753893 -0.298870146
v 0.0996081531 0.488760054 0.278211981
v 0.00851482339 0.493044078 -0.315485418
v 0.00629323954 0.48826018 0.28299126
v -0.105087966 0.492373258 -0.303190082
v -0.107058637 0.489141375 0.291469902
v -0.21057342 0.49139896 -0.194711447
v -0.206358179 0.492673457 -0.294225603
v -0.206426844 0.490820289 0.29147011
v -0.281535119 0.492833734 0.28674221
v -0.284789741 0.492959172 -0.196491778
v -0.288259417 0.510792136 -0.200030357
v -0.213332281 0.494822979 -0.198075399
v -0.288259387 0.496492714 -0.200030357
v -0.213332281 0.509122372 -0.198075324
v -0.284789741 0.514152229 -0.196491778
v -0.20969063 0.496178687 -0.297409385
v -0.206358179 0.492673457 -0.294225603
v -0.209690705 0.51047802 -0.297409385
v -0.21057342 0.512592018 -0.194711417
v -0.206358328 0.513866544 -0.294225603
v -0.206426889 0.512013376 0.29147011
v -0.281535298 0.514026821 0.28674224
v -0.288259417 0.510792136 -0.200030357
v -0.284959376 0.510662496 0.289980799
v -0.284959257 0.496363163 0.289980799
v -0.288259387 0.496492714 -0.200030357
v -0.284789741 0.492959172 -0.196491778
v -0.281535119 0.492833734 0.28674221
v -0.284959376 0.510662496 0.289980799
v -0.206378251 0.508562624 0.29491663
v -0.284959257 0.496363163 0.289980799
v -0.107058749 0.510334432 0.291469902
v -0.105088003 0.513566375 -0.303190082
v -0.206378251 0.494263262 0.2949166
v -0.281535119 0.492833734 0.28674221
v -0.206426844 0.490820289 0.29147011
v -0.107077174 0.492569447 0.29491666
v -0.107058637 0.489141375 0.291469902
v -0.107077256 0.506868839 0.29491663
v 0.00628046039 0.49167949 0.286437958
v 0.00629323954 0.48826018 0.28299126
v 0.00629323954 0.509453237 0.28299126
v -0.103852116 0.5101403 -0.306124002
v -0.209690705 0.51047802 -0.297409385
v -0.20969063 0.496178687 -0.297409385
v 0.0062804413 0.505978882 0.286437958
v 0.0996177271 0.492182821 0.281658739
v 0.0996081531 0.488760054 0.278211981
v 0.0996177271 0.506482244 0.281658709
v 0.215894654 0.494194329 0.286874682
v 0.215847373 0.490752012 0.283428192
v 0.288549691 0.496525645 0.293019235
v 0.28510341 0.492990583 0.289268732
v 0.288549691 0.510825038 0.293019235
v 0.215888441 0.508493721 0.286874622
v 0.28510341 0.51418364 0.289268762
v 0.0996081531 0.509953082 0.278211981
v 0.0992001295 0.514046311 -0.309905052
v 0.215838745 0.511945128 0.283428133
v 0.285025179 0.514185488 -0.1925634
v 0.288549691 0.510825038 0.293019235
v 0.288470209 0.510832787 -0.195684537
v 0.288470209 0.496533394 -0.195684537
v 0.288549691 0.496525645 0.293019235
v 0.28510341 0.492990583 0.289268732
v 0.28502515 0.492992461 -0.192563161
v 0.205989242 0.512619078 -0.200436935
v 0.288470209 0.510832787 -0.195684537
v 0.209015101 0.509139299 -0.203585804
v 0.288470209 0.496533394 -0.195684537
v 0.202040493 0.51394695 -0.298869997
v 0.20537363 0.510547221 -0.301997602
v 0.20537363 0.496247888 -0.301997572
v 0.20537363 0.510547221 -0.301997602
v 0.208967313 0.494839936 -0.203585804
v 0.28502515 0.492992461 -0.192563161
v 0.205919206 0.491426051 -0.200437769
v 0.202038348 0.492753893 -0.298870146
v 0.0979667827 0.510627985 -0.312836945
v 0.00851476658 0.514237165 -0.315485328
v 0.00852756482 0.510817885 -0.318932056
v 0.0979668051 0.496328562 -0.312836915
v 0.20537363 0.496247888 -0.301997572
v 0.202038348 0.492753893 -0.298870146
v 0.099199757 0.492853224 -0.309904575
v 0.008527603 0.496518463 -0.318932116
v 0.00851482339 0.493044078 -0.315485418
v -0.103852116 0.495840907 -0.306124002
v -0.105087966 0.492373258 -0.303190082
v -0.206358179 0.492673457 -0.294225603
v -0.21057342 0.49139896 -0.194711447
v -0.288259387 0.496492714 -0.200030357
v -0.213332281 0.494822979 -0.198075399
v -0.206358179 0.492673457 -0.294225603
vn -0.979167104 -0.142556265 -0.144600749
vn -0.00597725762 -0.999967933 -0.00533985998
vn -0.083077684 -0.996500611 -0.00919957459
vn -0.996972561 -0.0153336218 -0.0762275085
vn -0.997089803 0 0.0762364715
vn -0.997089803 0 -0.0762364715
vn -0.997002661 -0.0132165849 0.0762298107
vn -0.0756143481 -0.127488896 0.988953471
vn -0.0762364715 0 0.997089803
vn 0.0762364566 0 0.997089803
vn 0.0756080598 -0.128131494 0.988870919
vn 0.996972561 -0.0153336218 0.0762275085
vn 0.997089803 0 0.0762364715
vn 0.997089803 0 -0.0762364715
vn 0.997002661 -0.0132165849 -0.0762298107
vn 0.0756143481 -0.127488896 -0.988953471
vn 0.0762364715 0 -0.997089803
vn -0.0762364566 0 -0.997089803
vn -0.0756080598 -0.128131494 -0.988870919
vn -0.996972561 -0.0153336218 -0.0762275085
vn -0.997089803 0 -0.0762364715
vn 0.998671651 -0.0140693923 0.0495677665
vn 0.0760702193 -0.138947517 -0.987373769
vn 0.998524129 -0.0107750399 -0.0532317869
vn 0.077062428 -0.189250529 0.978900194
vn -0.0760634392 -0.139509559 -0.987295091
vn -0.0770700723 -0.188703835 0.979005098
vn -0.998563468 -0.0118026845 -0.052265618
vn -0.998640478 -0.0131113259 0.0504507795
vn 0.0763750151 -0.0390029624 0.996316016
vn -0.0770700723 -0.188703835 0.979005098
vn 0.077062428 -0.189250529 0.978900194
vn -0.0763753206 -0.0390029363 0.996316016
vn -0.998918295 -0.00181891641 0.0464635082
vn -0.998640478 -0.0131113259 0.0504507795
vn -0.998563468 -0.0118026845 -0.052265618
vn -0.0766394585 -0.0155725293 0.996937275
vn 0.0766384602 -0.0155725647 0.996937394
vn 0.0758315995 0.0441100858 0.996144414
vn -0.999018908 -0.000700095319 0.0442793742
vn -0.0758311301 0.0441101044 0.996144533
vn 0.0735537857 0.128576934 0.988968074
vn -0.9990201 0.00199674186 0.0442144573
vn -0.999091148 -0.000283686735 -0.0426240526
vn -0.999009609 0.000586593931 -0.0444917418
vn -0.0735534728 0.128576934 0.988968074
vn 0.0801798403 0.149258822 0.98554194
vn -0.998917222 0.00603838358 0.0461291783
vn -0.077507183 0.0131436829 -0.996905148
vn -0.0760634392 -0.139509559 -0.987295091
vn 0.0760702193 -0.138947517 -0.987373769
vn -0.0801799223 0.149258822 0.98554194
vn 0.0524947494 0.754515827 0.654179037
vn -0.99917537 -0.00228736061 -0.0405359529
vn -0.0778074935 -0.00666357344 -0.996946156
vn -0.999307156 0.00569245126 0.0367798246
vn -0.0549734198 0.755118132 0.653279901
vn 0.0676458627 0.99384588 0.0877170712
vn -0.0782262012 -0.0571509153 -0.99529618
vn 0.0778064355 -0.0066635632 -0.996946156
vn -0.999273002 -0.00493440777 -0.0378045999
vn -0.997916162 0.0561642759 0.0317646526
vn -0.0718868375 0.993254125 0.0909857303
vn -0.0671459734 0.993600905 -0.0908212364
vn 0.0713976771 0.993002117 -0.0940698087
vn 0.0596206337 0.623851478 -0.779265523
vn -0.0567873158 0.623497486 -0.779760301
vn -0.0795592517 -0.129863366 -0.988334894
vn -0.998804808 -0.00638395082 -0.0484584607
vn -0.911522567 0.409812123 0.034362305
vn -0.0718868375 0.993254125 0.0909857303
vn -0.996109903 0.0653524697 -0.0591109917
vn -0.87348932 0.486552387 -0.0168285128
vn -0.0671459734 0.993600905 -0.0908212364
vn -0.0567873158 0.623497486 -0.779760301
vn -0.0721323118 -0.130321294 -0.988844335
vn 0.0782266632 -0.0571509041 -0.99529618
vn 0.0721325502 -0.130321279 -0.988844335
vn 0.0596206337 0.623851478 -0.779265523
vn 0.0795592517 -0.129863381 -0.988334894
vn 0.997886598 0.0490936115 -0.0425687172
vn 0.998812556 -0.0063631786 -0.0483007878
vn 0.999273002 -0.00493442407 -0.0378047749
vn 0.999166846 -0.00229925662 -0.0407469384
vn 0.999304295 0.00570430467 0.0368564241
vn 0.913421452 0.405531943 -0.0347129479
vn 0.0713976771 0.993002117 -0.0940698087
vn 0.99631834 0.072470434 0.0458018295
vn 0.871661127 0.489831448 0.0164886303
vn 0.0676458627 0.99384588 0.0877170712
vn 0.0524947494 0.754515827 0.654179037
vn 0.0801798403 0.149258822 0.98554194
vn 0.998917222 0.00603837706 0.0461291857
vn 0.0735537857 0.128576934 0.988968074
vn 0.999030232 0.00198640605 0.0439857282
vn 0.0758315995 0.0441100858 0.996144414
vn 0.999031425 -0.000695627939 0.0439955927
vn 0.0766384602 -0.0155725647 0.996937394
vn 0.999080181 -0.000285396964 -0.0428818054
vn 0.998941839 -0.00179906643 0.0459561236
vn 0.0763750151 -0.0390029624 0.996316016
vn 0.0775067359 0.013143694 -0.996905148
vn 0.998988092 0.00059291441 -0.0449706279
vn 0.998524129 -0.0107750399 -0.0532317869
vn 0.998671651 -0.0140693923 0.0495677665
vn 0.077062428 -0.189250529 0.978900194
vn 0.996972561 -0.0153336832 0.0762277991
vn 0.0756144226 -0.127488911 -0.988953471
vn 0.997002661 -0.0132166408 -0.0762301311
vn 0.0756081194 -0.128131494 0.988870919
vn -0.0756081194 -0.128131494 -0.988870919
vn -0.0756144226 -0.127488911 0.988953471
vn -0.996972561 -0.0153336832 -0.0762277991
vn -0.997002661 -0.0132166408 0.0762301311
vn 0.997089803 0 0.0762367845
vn 0.997002661 -0.0132166408 -0.0762301311
vn 0.997089803 0 -0.0762367547
vn 0.996972561 -0.0153336832 0.0762277991
vn 0.0762365088 0 0.997089803
vn 0.0756081194 -0.128131494 0.988870919
vn -0.0762365237 0 0.997089803
vn -0.0756144226 -0.127488911 0.988953471
vn -0.997089803 0 0.0762367547
vn -0.997002661 -0.0132166408 0.0762301311
vn -0.997089803 0 -0.0762367845
vn -0.996972561 -0.0153336832 -0.0762277991
vn -0.0762365088 0 -0.997089803
vn -0.0756081194 -0.128131494 -0.988870919
vn 0.0762365237 0 -0.997089803
vn 0.0756144226 -0.127488911 -0.988953471
vn 0.997089803 0 -0.0762367547
vn 0.997002661 -0.0132166408 -0.0762301311
vn 0.0524948426 0.754515707 0.654179156
vn -0.0718869567 0.993254125 0.0909857303
vn -0.0549735092 0.755118132 0.653279901
vn 0.0676459596 0.99384588 0.0877170414
vn 0.0713977963 0.993002117 -0.0940697938
vn -0.0671460927 0.993600905 -0.0908211917
vn -0.0567874126 0.623497367 -0.779760361
vn 0.0596207529 0.623851359 -0.779265583
vn -0.072132431 -0.130321294 -0.988844335
vn 0.0721326768 -0.130321309 -0.988844335
vn -0.0795593709 -0.129863396 -0.988334894
vn 0.079559356 -0.129863381 -0.988334894
vn -0.0782262981 -0.0571509115 -0.99529618
vn 0.0782267749 -0.0571508966 -0.995296061
vn -0.0778076202 -0.00666357577 -0.996946156
vn 0.997275412 0.0557344928 -0.0483269803
vn 0.998804808 -0.00638397457 -0.0484587327
vn 0.999273002 -0.00493444735 -0.037805032
vn 0.86823374 0.494347572 -0.0423154272
vn 0.0713977963 0.993002117 -0.0940697938
vn 0.915741622 0.401540369 0.0135165909
vn 0.0676459596 0.99384588 0.0877170414
vn 0.997145712 0.063822493 0.0403362811
vn 0.0524948426 0.754515707 0.654179156
vn 0.999307156 0.00569251925 0.0367802083
vn 0.080179967 0.149258852 0.98554194
vn -0.0549735092 0.755118132 0.653279901
vn 0.998917222 0.00603842596 0.0461294949
vn 0.99917537 -0.00228738016 -0.0405364707
vn 0.0778065547 -0.00666356506 -0.996946156
vn 0.0775068477 0.0131436959 -0.996905148
vn -0.0775072724 0.0131436829 -0.996905148
vn -0.076063551 -0.139509529 -0.987294972
vn 0.0760703012 -0.138947442 -0.987373769
vn 0.999091148 -0.000283679547 -0.0426237471
vn 0.999009609 0.000586603361 -0.0444919467
vn 0.998577118 -0.0105797406 -0.0522669442
vn 0.998918295 -0.00181893585 0.046463687
vn 0.998623848 -0.0143199703 0.0504505783
vn 0.9990201 0.00199676165 0.044215031
vn 0.999019027 -0.000700109871 0.0442790613
vn 0.0763751045 -0.0390029624 0.996316016
vn 0.0770625174 -0.189250425 0.978900194
vn 0.0735538974 0.128576934 0.988968074
vn 0.0758316964 0.0441100784 0.996144414
vn 0.076638557 -0.0155725675 0.996937394
vn -0.0763754174 -0.0390029401 0.996316016
vn -0.0770701692 -0.188703761 0.979005098
vn -0.0801800638 0.149258807 0.98554194
vn -0.0735535771 0.128576934 0.988968074
vn -0.075831227 0.0441101044 0.996144533
vn -0.0766395628 -0.0155725321 0.996937275
vn -0.998941839 -0.00179907121 0.0459565707
vn -0.998687685 -0.0128820604 0.0495685861
vn -0.999031425 -0.000695622817 0.0439964943
vn -0.999030113 0.0019864128 0.0439857431
vn -0.998917222 0.00603843341 0.0461294912
vn -0.999304295 0.0057043354 0.0368565395
vn -0.997300446 0.0639150217 0.0361482464
vn -0.998988092 0.00059291278 -0.044971019
vn -0.998509824 -0.012020709 -0.053231094
vn -0.999166846 -0.0022992671 -0.0407469645
vn -0.999080062 -0.000285408081 -0.0428826995
vn -0.0775072724 0.0131436829 -0.996905148
vn -0.076063551 -0.139509529 -0.987294972
vn -0.0778076202 -0.00666357577 -0.996946156
vn -0.0782262981 -0.0571509115 -0.99529618
vn -0.0795593709 -0.129863396 -0.988334894
vn -0.999273002 -0.00493443105 -0.0378048643
vn -0.072132431 -0.130321294 -0.988844335
vn -0.998812556 -0.00636321632 -0.0483011641
vn -0.0567874126 0.623497367 -0.779760361
vn -0.996968091 0.0577080287 -0.0521966368
vn -0.0671460927 0.993600905 -0.0908211917
vn -0.917374074 0.397788167 -0.0137585104
vn -0.0718869567 0.993254125 0.0909857303
vn -0.866061389 0.49818939 0.0417728201
vn 0.996972561 -0.0153336218 0.0762275085
vn 0.0756143481 -0.127488896 -0.988953471
vn 0.997002661 -0.0132165849 -0.0762298107
vn 0.0756080598 -0.128131494 0.988870919
vn -0.0756143481 -0.127488896 0.988953471
vn -0.0756080598 -0.128131494 -0.988870919
vn -0.996972561 -0.0153336218 -0.0762275085
vn -0.997002661 -0.0132165849 0.0762298107
vn 0.998623848 -0.0143199703 0.0504505783
vn 0.0760703012 -0.138947442 -0.987373769
vn 0.998577118 -0.0105797406 -0.0522669442
vn 0.0770625174 -0.189250425 0.978900194
vn -0.0770701692 -0.188703761 0.979005098
vn -0.076063551 -0.139509529 -0.987294972
vn -0.998509824 -0.012020709 -0.053231094
vn -0.998687685 -0.0128820604 0.0495685861
vn 1 0 0
vn 0.986946166 -0.161050409 0
vn 1 0 0
vn 0.986946166 -0.161050409 0
vn -0.986946166 -0.161050409 0
vn -0.986946166 -0.161050409 0
vn -1 0 0
vn -1 0 0
vn 0 -0.161050558 0.986946166
vn 0 0 1
vn 0 0 1
vn 0 -0.161050618 0.986946166
vn 0 -0.161050618 -0.986946166
vn 0 -0.161050558 -0.986946166
vn 0 0 -1
vn 0 0 -1
vn 0 0.0613565519 0.998115897
vn 0 0.283717662 0.958907783
vn 0 0.283717662 0.958907783
vn 0 0.0613565408 0.998115897
vn 0 -0.283717692 -0.958907783
vn 0 -0.283717662 -0.958907783
vn 0 -0.0613565631 -0.998115897
vn 0 -0.0613565445 -0.998115897
vn 0 0.283717662 0.958907783
vn 0 0.283717662 0.958907783
vn 0 0 1
vn 0 -0.161050588 0.986946166
vn 0 0 1
vn 0 -0.161050603 0.986946166
vn 0 -0.161050618 -0.986946166
vn 0 -0.161050558 -0.986946166
vn 0 0 -1
vn 0 0 -1
vn -0.986946166 -0.161050618 0
vn -1 0 0
vn -1 0 0
vn -0.986946166 -0.161050558 0
vn 0.986946166 -0.161050618 0
vn 0.986946166 -0.161050558 0
vn 1 0 0
vn 1 0 0
vn 0.0976315886 -0.995190501 0.00799261965
vn 0.000173222579 -0.999995708 -0.00295183272
vn 0.0731578842 -0.997282267 -0.00871651899
vn 0.02081009 -0.999782145 0.00164643547
vn -0.00123892445 -0.999903679 -0.0138219604
vn 0.0429836959 -0.997477114 -0.056494955
vn 0.0115569243 -0.999931455 -0.00189390953
vn 0.00210744911 -0.999901414 -0.0138793336
vn -0.0012746735 -0.999998569 -0.00110474287
vn 0.00259885448 -0.999896526 -0.0141473757
vn -0.0102396412 -0.99994421 0.00261905743
vn -0.00597725762 -0.999967933 -0.00533985998
vn -0.0468709357 -0.997422218 -0.0543333888
vn -0.0212053116 -0.9997558 0.00621806877
vn -0.08237046 -0.996564209 0.00866056699
vn -0.083077684 -0.996500611 -0.00919957459
vn -0.97956872 0.141481593 -0.142927051
vn -0.74672997 -0.299064577 -0.594099939
vn -0.979167104 -0.142556265 -0.144600749
vn -0.747592628 0.289016306 -0.597975612
vn -0.0393967777 0.99919039 -0.00815913361
vn -0.694637477 -0.171741843 -0.698558152
vn -0.0468709357 -0.997422218 -0.0543333888
vn -0.690401316 0.177924722 -0.701205313
vn 0.00281428103 0.999991894 0.0029094927
vn -0.0383924022 0.998801708 -0.0303509533
vn 0.0205634516 0.9997558 0.00808899291
vn -0.0311263222 0.999473274 0.00918058585
vn -0.97956872 0.141481593 -0.142927051
vn -0.97621733 0.146934077 0.159405485
vn -0.975792468 -0.145871744 0.162942931
vn -0.979167104 -0.142556265 -0.144600749
vn -0.083077684 -0.996500611 -0.00919957459
vn -0.08237046 -0.996564209 0.00866056699
vn -0.97621733 0.146934077 0.159405485
vn -0.0234280061 0.18844752 0.981803775
vn -0.975792468 -0.145871744 0.162942931
vn 0.0107654389 0.999888539 0.0103443377
vn -0.00390630867 0.999992251 0.000561662077
vn -0.0306821223 -0.186422393 0.981990516
vn -0.08237046 -0.996564209 0.00866056699
vn -0.0212053116 -0.9997558 0.00621806877
vn 0.0368824974 -0.188645497 0.981352389
vn -0.0102396412 -0.99994421 0.00261905743
vn 0.0410784595 0.186985761 0.981503367
vn 0.0624811389 -0.192823008 0.979242206
vn -0.0012746735 -0.999998569 -0.00110474287
vn 0.00230490742 0.999925137 0.0120201102
vn -0.0984718055 0.154953435 -0.983001888
vn -0.690401316 0.177924722 -0.701205313
vn -0.694637477 -0.171741843 -0.698558152
vn 0.0633108988 0.190056697 0.979729652
vn 0.000528349134 -0.195255369 0.980752289
vn 0.0115569243 -0.999931455 -0.00189390953
vn -0.00454996154 0.19238314 0.981309354
vn -0.0544498488 -0.190648079 0.980147123
vn 0.02081009 -0.999782145 0.00164643547
vn 0.979120374 -0.13933751 0.148014888
vn 0.0976315886 -0.995190501 0.00799261965
vn 0.97947377 0.138955638 0.14602229
vn -0.0634829327 0.187240705 0.980260551
vn 0.036083255 0.999295592 0.0103140101
vn -0.0119079929 0.99985075 0.0125201652
vn 0.00219471427 0.999996901 -0.0012293742
vn -0.0210621301 0.999722421 0.0105574504
vn 0.0333246104 0.999419928 -0.00701760827
vn 0.97947377 0.138955638 0.14602229
vn 0.976579368 0.148892447 -0.155318156
vn 0.976456285 -0.147208363 -0.157679692
vn 0.979120374 -0.13933751 0.148014888
vn 0.0976315886 -0.995190501 0.00799261965
vn 0.0731578842 -0.997282267 -0.00871651899
vn 0.00399351493 0.999992013 0.000132612986
vn 0.976579368 0.148892447 -0.155318156
vn 0.754669487 0.288371384 -0.589335144
vn 0.976456285 -0.147208363 -0.157679692
vn 0.0419336706 0.998732626 -0.0278336592
vn 0.691637635 0.174069315 -0.700954378
vn 0.691297889 -0.175254896 -0.700994253
vn 0.691637635 0.174069315 -0.700954378
vn 0.754919171 -0.300474465 -0.582934201
vn 0.0731578842 -0.997282267 -0.00871651899
vn 0.000173222579 -0.999995708 -0.00295183272
vn 0.0429836959 -0.997477114 -0.056494955
vn 0.0835677236 0.15562132 -0.984275639
vn -0.00222555664 0.999996066 0.00173132226
vn -0.0323345214 0.185545161 -0.982103527
vn 0.0842868462 -0.151933596 -0.984790266
vn 0.691297889 -0.175254896 -0.700994253
vn 0.0429836959 -0.997477114 -0.056494955
vn -0.00123892445 -0.999903679 -0.0138219604
vn -0.0325364023 -0.183739766 -0.982436299
vn 0.00210744911 -0.999901414 -0.0138793336
vn -0.0964754075 -0.159115985 -0.982534826
vn 0.00259885448 -0.999896526 -0.0141473757
vn -0.0468709357 -0.997422218 -0.0543333888
vn -0.00597725762 -0.999967933 -0.00533985998
vn -0.979167104 -0.142556265 -0.144600749
vn -0.74672997 -0.299064577 -0.594099939
vn -0.0468709357 -0.997422218 -0.0543333888
vt 0.932394981 0.01755891
vt 0.930896878 0.0500878878
vt 0.934423149 0.0185692944
vt 0.479083985 0.170157447
vt 0.264419913 0.145345226
vt 0.264419883 0.170157447
vt 0.479083985 0.145345226
vt 0.479083985 0.141236901
vt 0.264419913 0.141236901
vt 0.264419913 0.116424866
vt 0.479083985 0.116424866
vt 0.479083985 0.112316541
vt 0.264419913 0.112316541
vt 0.264419973 0.0875045136
vt 0.479083985 0.0875045136
vt 0.479083985 0.0833961815
vt 0.264419973 0.0833961889
vt 0.264419973 0.0585841164
vt 0.479084045 0.0585840754
vt 0.479084045 0.0556790493
vt 0.264419973 0.0556790866
vt 0.222746566 0.486547112
vt 0.221249476 0.508576155
vt 0.222426608 0.507434368
vt 0.221605048 0.485369861
vt 0.207441702 0.508364677
vt 0.207797498 0.485158324
vt 0.206300095 0.507187426
vt 0.206620455 0.486300081
vt 0.537919998 0.431166321
vt 0.68194133 0.44891113
vt 0.682388067 0.435117066
vt 0.53742981 0.444998473
vt 0.5372563 0.446691781
vt 0.681737065 0.450526267
vt 0.68172574 0.471330345
vt 0.504325747 0.443700701
vt 0.504627526 0.429834694
vt 0.461529016 0.429752469
vt 0.504146218 0.445467472
vt 0.461510003 0.443442106
vt 0.418561727 0.429797947
vt 0.46140328 0.444848001
vt 0.503584206 0.471104532
vt 0.537151098 0.471292138
vt 0.418637753 0.443537265
vt 0.23738946 0.430021942
vt 0.418759584 0.445029855
vt 0.536983907 0.472841769
vt 0.681550384 0.472856373
vt 0.681510985 0.486579299
vt 0.237819523 0.443736792
vt 0.231020629 0.430685282
vt 0.459943891 0.471086532
vt 0.503415048 0.472825915
vt 0.23782824 0.445202142
vt 0.231224149 0.44493705
vt 0.224868685 0.430843949
vt 0.459851205 0.472825915
vt 0.503388941 0.486632615
vt 0.416187763 0.471366614
vt 0.231828213 0.447084337
vt 0.224868685 0.444653809
vt 0.210624486 0.444653869
vt 0.210624486 0.430843949
vt 0.205126137 0.430844009
vt 0.205126137 0.444653869
vt 0.416288972 0.472899377
vt 0.23487626 0.471430779
vt 0.230675131 0.451966822
vt 0.229093015 0.451605022
vt 0.229485512 0.470199823
vt 0.229274452 0.465822995
vt 0.227649197 0.465882659
vt 0.228942037 0.471895874
vt 0.235005036 0.472850442
vt 0.459847301 0.486784786
vt 0.235044703 0.486398876
vt 0.229003578 0.487190902
vt 0.416312844 0.486683518
vt 0.229578018 0.488836825
vt 0.234997526 0.487712115
vt 0.416282833 0.488368392
vt 0.459924161 0.488616258
vt 0.238135666 0.513966739
vt 0.229421422 0.493145883
vt 0.22779274 0.493118465
vt 0.232310414 0.511727035
vt 0.23106578 0.506940603
vt 0.229487091 0.507326663
vt 0.231916308 0.513245463
vt 0.238099158 0.515599012
vt 0.418957621 0.514857411
vt 0.418985426 0.516492724
vt 0.461474776 0.515015543
vt 0.461559951 0.51665926
vt 0.504032135 0.513829947
vt 0.504121542 0.515469074
vt 0.503495872 0.488291979
vt 0.537011623 0.512665808
vt 0.537078261 0.514303625
vt 0.536947966 0.486593723
vt 0.537040949 0.488114506
vt 0.681596339 0.488137037
vt 0.681461155 0.508985698
vt 0.681515336 0.510625064
vt 0.498965502 0.0601385236
vt 0.525831699 0.0621926859
vt 0.523777544 0.0601385236
vt 0.496911347 0.0621926859
vt 0.525831699 0.0870046839
vt 0.496911347 0.0870046839
vt 0.523777544 0.0890588462
vt 0.498965502 0.0890588462
vt 0.266673923 0.214558944
vt 0.481338114 0.189746946
vt 0.266673923 0.189746872
vt 0.481338114 0.214558989
vt 0.266673923 0.218667284
vt 0.481338114 0.218667313
vt 0.266673982 0.243479386
vt 0.481338054 0.243479386
vt 0.266673982 0.247587711
vt 0.481338054 0.247587711
vt 0.266673952 0.272399753
vt 0.481337994 0.272399753
vt 0.266673952 0.276508063
vt 0.481337994 0.276508063
vt 0.266673952 0.301320106
vt 0.481337994 0.301320106
vt 0.266673952 0.304225117
vt 0.481337994 0.304225117
vt 0.205004424 0.337452531
vt 0.211132735 0.323642671
vt 0.205004424 0.323642671
vt 0.211132735 0.337452531
vt 0.225376934 0.337452531
vt 0.225376934 0.323642671
vt 0.231102526 0.323462605
vt 0.230843589 0.337670326
vt 0.236961007 0.323203087
vt 0.236884683 0.336903214
vt 0.418245167 0.323147565
vt 0.418177366 0.336860806
vt 0.46174553 0.323265314
vt 0.461742789 0.337032229
vt 0.505256414 0.323464632
vt 0.231347635 0.339581043
vt 0.236730888 0.338316917
vt 0.418039083 0.338285267
vt 0.231123 0.343969375
vt 0.229498476 0.34390223
vt 0.232469514 0.357837498
vt 0.230886728 0.358193278
vt 0.233601257 0.362740308
vt 0.233208746 0.36468482
vt 0.239645496 0.364519149
vt 0.239658087 0.365913987
vt 0.233185828 0.380572766
vt 0.420586288 0.364512324
vt 0.461820632 0.338580847
vt 0.505307972 0.337294489
vt 0.538880348 0.33749795
vt 0.538808405 0.323643327
vt 0.683373988 0.323716521
vt 0.683449745 0.337628245
vt 0.505491316 0.33889994
vt 0.539085388 0.33901003
vt 0.683671415 0.340065181
vt 0.538951457 0.363389105
vt 0.683457017 0.362406254
vt 0.463176638 0.364598364
vt 0.505865574 0.364302069
vt 0.539124906 0.365141898
vt 0.683643103 0.365018994
vt 0.420487583 0.365912318
vt 0.46325317 0.365862966
vt 0.506028771 0.365729183
vt 0.539153576 0.379220068
vt 0.683683455 0.379156679
vt 0.239641622 0.37949118
vt 0.420465857 0.379547954
vt 0.463246435 0.379408687
vt 0.506037652 0.379335642
vt 0.53905797 0.381039113
vt 0.683604419 0.380959183
vt 0.505914986 0.380905092
vt 0.463164061 0.380775899
vt 0.420496613 0.381066948
vt 0.239568129 0.380899608
vt 0.233539522 0.3824929
vt 0.53969121 0.405778259
vt 0.684265018 0.401880383
vt 0.461929202 0.406943381
vt 0.505915523 0.40637815
vt 0.539667845 0.407418758
vt 0.684257448 0.403521061
vt 0.505852759 0.408018589
vt 0.461857826 0.408582211
vt 0.417825431 0.40900743
vt 0.417840987 0.407420129
vt 0.236138642 0.408897042
vt 0.23629795 0.407238394
vt 0.230267704 0.406864434
vt 0.230942339 0.405465573
vt 0.229139626 0.40117228
vt 0.23076719 0.401133209
vt 0.230747834 0.386939257
vt 0.232327521 0.387316316
vt 0.497305691 0.125911936
vt 0.499359846 0.0990456343
vt 0.497305691 0.101099804
vt 0.499359846 0.127966106
vt 0.524171948 0.127966106
vt 0.524171948 0.0990456343
vt 0.526226103 0.101099804
vt 0.526226103 0.125911936
vt 0.204361215 0.3677921
vt 0.205520675 0.345742702
vt 0.20436123 0.346902341
vt 0.205520675 0.368951738
vt 0.219329908 0.368951738
vt 0.219329908 0.345742702
vt 0.220489368 0.346902311
vt 0.220489353 0.3677921
vt 0.408545971 0.54319644
vt 0.589153528 0.593758762
vt 0.589153528 0.54319644
vt 0.408545971 0.593758762
vt 0.408545971 0.602009773
vt 0.589153409 0.602009773
vt 0.589153409 0.652572155
vt 0.408545911 0.652572155
vt 0.210583642 0.594750404
vt 0.384669006 0.544188023
vt 0.210583642 0.544188023
vt 0.384669006 0.594750404
vt 0.210583553 0.603001177
vt 0.384669006 0.603001177
vt 0.210583553 0.653563738
vt 0.384669006 0.653563738
vt 0.683147848 0.231858313
vt 0.49650538 0.303702384
vt 0.683147848 0.303702444
vt 0.49650538 0.231858313
vt 0.683147848 0.223695278
vt 0.49650538 0.223695219
vt 0.683147907 0.151851058
vt 0.49650538 0.151851058
vt 0.683147848 0.143687963
vt 0.49650538 0.143687963
vt 0.192397863 0.525517821
vt 0.00661537051 0.47495544
vt 0.00661537051 0.525517821
vt 0.192397863 0.47495544
vt 0.00661537051 0.466704607
vt 0.192397863 0.466704667
vt 0.192397863 0.416142166
vt 0.00661537051 0.416142166
vt 0.0120000038 0.595422745
vt 0.192607597 0.544860423
vt 0.0120000038 0.544860423
vt 0.192607597 0.595422745
vt 0.192607597 0.603673518
vt 0.0120000038 0.603673518
vt 0.0120000038 0.654235959
vt 0.192607597 0.654235959
vt 0.714088321 0.297883898
vt 0.929326415 0.331923157
vt 0.925726295 0.297157139
vt 0.716763437 0.328331977
vt 0.977562129 0.378698528
vt 0.972602189 0.333516836
vt 0.719232976 0.379438251
vt 0.980146408 0.418671221
vt 0.717268348 0.420502186
vt 0.974901378 0.468733817
vt 0.713702977 0.470373809
vt 0.927404642 0.515277386
vt 0.97114259 0.513255119
vt 0.713834703 0.514080167
vt 0.716007829 0.547099471
vt 0.928266406 0.547905922
vt 0.926694691 0.0189338252
vt 0.931054711 0.0499785505
vt 0.932394981 0.01755891
vt 0.928277671 0.0526175611
vt 0.925795496 0.0213659573
vt 0.974178076 0.0486600101
vt 0.973502159 0.046576079
vt 0.972636819 0.0548549891
vt 0.926107764 0.054112561
vt 0.97036171 0.0567501672
vt 0.711983144 0.0562227517
vt 0.713877976 0.0229748171
vt 0.927480996 0.0196568966
vt 0.712245345 0.0201638266
vt 0.712221205 0.0135071687
vt 0.927458286 0.0135752
vt 0.925886452 0.0113828536
vt 0.713626385 0.0113055073
vt 0.711782157 0.0217685178
vt 0.709833145 0.0563350096
vt 0.70534271 0.0217630845
vt 0.711739182 0.100007348
vt 0.973202288 0.101189077
vt 0.703555346 0.0563759618
vt 0.703086019 0.0231748838
vt 0.701389134 0.0563243851
vt 0.702907801 0.100171946
vt 0.700762033 0.100274742
vt 0.709299684 0.099991776
vt 0.706775725 0.150106952
vt 0.704616129 0.150234401
vt 0.715433776 0.150010362
vt 0.975379944 0.101860575
vt 0.972622573 0.0552627966
vt 0.978989661 0.0549394563
vt 0.713168025 0.149922445
vt 0.708419919 0.191162959
vt 0.706258118 0.191134855
vt 0.714810252 0.191247031
vt 0.707291842 0.242251843
vt 0.705138385 0.242029712
vt 0.704529941 0.274144262
vt 0.70252347 0.27236253
vt 0.710802019 0.274727285
vt 0.713670909 0.242670938
vt 0.71310854 0.273364365
vt 0.717422009 0.191309571
vt 0.976178229 0.191209957
vt 0.715847492 0.242679179
vt 0.924622715 0.274340957
vt 0.71136272 0.275948912
vt 0.926019907 0.276276618
vt 0.92600286 0.28248179
vt 0.711344957 0.282485396
vt 0.712986767 0.284684181
vt 0.924626231 0.284682155
vt 0.928872526 0.239362597
vt 0.925972939 0.276829571
vt 0.93084234 0.241285741
vt 0.931841195 0.278899074
vt 0.972701073 0.236084014
vt 0.974729598 0.237202585
vt 0.976538599 0.242809072
vt 0.975105882 0.237677559
vt 0.933764279 0.244368687
vt 0.933966696 0.27838853
vt 0.933855176 0.244531378
vt 0.976043284 0.244805187
vt 0.978386998 0.190417737
vt 0.978227556 0.15123412
vt 0.980224311 0.151232049
vt 0.984765887 0.190616518
vt 0.981509447 0.237978131
vt 0.98378998 0.236739293
vt 0.98672384 0.191289231
vt 0.986478865 0.151110485
vt 0.988609612 0.151043162
vt 0.981777906 0.101520918
vt 0.983717442 0.100788407
vt 0.981251299 0.0561672859
vt 0.930896878 0.0500878878
vt 0.932394981 0.01755891
vt 0.931054711 0.0499785505
vt 0.973502159 0.046576079
g submesh0
f 1/1/1 2/2/2 3/3/3
f 4/4/4 5/5/5 6/6/6
f 5/5/5 4/4/4 7/7/7
f 8/8/8 5/5/5 7/7/7
f 5/5/5 8/8/8 9/9/9
f 8/8/8 10/10/10 9/9/9
f 10/10/10 8/8/8 11/11/11
f 12/12/12 10/10/10 11/11/11
f 10/10/10 12/12/12 13/13/13
f 12/12/12 14/14/14 13/13/13
f 14/14/14 12/12/12 15/15/15
f 16/16/16 14/14/14 15/15/15
f 14/14/14 16/16/16 17/17/17
f 16/16/16 18/18/18 17/17/17
f 18/18/18 16/16/16 19/19/19
f 20/20/20 18/18/18 19/19/19
f 18/18/18 20/20/20 21/21/21
f 22/22/22 23/23/23 24/24/24
f 23/23/23 22/22/22 25/25/25
f 25/25/25 26/26/26 23/23/23
f 26/26/26 25/25/25 27/27/27
f 27/27/27 28/28/28 26/26/26
f 28/28/28 27/27/27 29/29/29
f 30/30/30 31/31/31 32/32/32
f 31/31/31 30/30/30 33/33/33
f 34/34/34 31/31/31 33/33/33
f 31/31/31 34/34/34 35/35/35
f 34/34/34 36/36/36 35/35/35
f 30/30/30 37/37/37 33/33/33
f 37/37/37 30/30/30 38/38/38
f 39/39/39 37/37/37 38/38/38
f 33/33/33 40/40/40 34/34/34
f 40/40/40 33/33/33 37/37/37
f 37/37/37 39/39/39 41/41/41
f 42/42/42 41/41/41 39/39/39
f 37/37/37 43/43/43 40/40/40
f 43/43/43 37/37/37 41/41/41
f 44/44/44 34/34/34 40/40/40
f 43/43/43 44/44/44 40/40/40
f 36/36/36 34/34/34 45/45/45
f 34/34/34 44/44/44 45/45/45
f 41/41/41 42/42/42 46/46/46
f 47/47/47 46/46/46 42/42/42
f 41/41/41 48/48/48 43/43/43
f 48/48/48 41/41/41 46/46/46
f 49/49/49 36/36/36 45/45/45
f 36/36/36 49/49/49 50/50/50
f 49/49/49 51/51/51 50/50/50
f 46/46/46 47/47/47 52/52/52
f 53/53/53 52/52/52 47/47/47
f 44/44/44 43/43/43 54/54/54
f 48/48/48 54/54/54 43/43/43
f 55/55/55 45/45/45 44/44/44
f 45/45/45 55/55/55 49/49/49
f 46/46/46 56/56/56 48/48/48
f 56/56/56 46/46/46 52/52/52
f 52/52/52 53/53/53 57/57/57
f 58/58/58 57/57/57 53/53/53
f 44/44/44 59/59/59 55/55/55
f 59/59/59 44/44/44 54/54/54
f 60/60/60 49/49/49 55/55/55
f 59/59/59 60/60/60 55/55/55
f 54/54/54 48/48/48 61/61/61
f 56/56/56 61/61/61 48/48/48
f 52/52/52 62/62/62 56/56/56
f 62/62/62 52/52/52 57/57/57
f 57/57/57 58/58/58 63/63/63
f 58/58/58 64/64/64 63/63/63
f 64/64/64 58/58/58 65/65/65
f 66/66/66 64/64/64 65/65/65
f 64/64/64 66/66/66 67/67/67
f 54/54/54 68/68/68 59/59/59
f 68/68/68 54/54/54 61/61/61
f 61/61/61 56/56/56 69/69/69
f 62/62/62 69/69/69 56/56/56
f 57/57/57 70/70/70 62/62/62
f 70/70/70 57/57/57 71/71/71
f 70/70/70 72/72/72 62/62/62
f 69/69/69 62/62/62 72/72/72
f 71/71/71 73/73/73 70/70/70
f 72/72/72 70/70/70 73/73/73
f 73/73/73 71/71/71 74/74/74
f 74/74/74 72/72/72 73/73/73
f 72/72/72 74/74/74 75/75/75
f 75/75/75 69/69/69 72/72/72
f 76/76/76 61/61/61 69/69/69
f 69/69/69 75/75/75 76/76/76
f 61/61/61 76/76/76 68/68/68
f 68/68/68 77/77/77 59/59/59
f 60/60/60 59/59/59 77/77/77
f 75/75/75 78/78/78 76/76/76
f 78/78/78 75/75/75 79/79/79
f 76/76/76 80/80/80 68/68/68
f 77/77/77 68/68/68 80/80/80
f 80/80/80 76/76/76 78/78/78
f 81/81/81 78/78/78 79/79/79
f 82/82/82 80/80/80 78/78/78
f 78/78/78 81/81/81 82/82/82
f 83/83/83 77/77/77 80/80/80
f 80/80/80 82/82/82 83/83/83
f 84/84/84 60/60/60 77/77/77
f 77/77/77 83/83/83 84/84/84
f 85/85/85 83/83/83 82/82/82
f 81/81/81 85/85/85 82/82/82
f 79/79/79 86/86/86 81/81/81
f 86/86/86 79/79/79 87/87/87
f 86/86/86 88/88/88 81/81/81
f 85/85/85 81/81/81 88/88/88
f 87/87/87 89/89/89 86/86/86
f 88/88/88 86/86/86 89/89/89
f 89/89/89 87/87/87 90/90/90
f 90/90/90 88/88/88 89/89/89
f 88/88/88 90/90/90 91/91/91
f 91/91/91 85/85/85 88/88/88
f 85/85/85 91/91/91 92/92/92
f 83/83/83 85/85/85 93/93/93
f 92/92/92 93/93/93 85/85/85
f 93/93/93 84/84/84 83/83/83
f 93/93/93 92/92/92 94/94/94
f 94/94/94 95/95/95 93/93/93
f 84/84/84 93/93/93 95/95/95
f 95/95/95 94/94/94 96/96/96
f 96/96/96 97/97/97 95/95/95
f 97/97/97 84/84/84 95/95/95
f 97/97/97 96/96/96 98/98/98
f 84/84/84 97/97/97 99/99/99
f 60/60/60 84/84/84 99/99/99
f 98/98/98 100/100/100 97/97/97
f 100/100/100 99/99/99 97/97/97
f 100/100/100 98/98/98 101/101/101
f 99/99/99 102/102/102 60/60/60
f 49/49/49 60/60/60 102/102/102
f 51/51/51 49/49/49 102/102/102
f 102/102/102 99/99/99 103/103/103
f 103/103/103 51/51/51 102/102/102
f 99/99/99 100/100/100 103/103/103
f 51/51/51 103/103/103 104/104/104
f 103/103/103 105/105/105 104/104/104
f 105/105/105 103/103/103 100/100/100
f 101/101/101 105/105/105 100/100/100
f 105/105/105 101/101/101 106/106/106
f 107/107/107 108/108/108 109/109/109
f 108/108/108 107/107/107 110/110/110
f 110/110/110 111/111/111 108/108/108
f 111/111/111 110/110/110 112/112/112
f 112/112/112 113/113/113 111/111/111
f 113/113/113 112/112/112 114/114/114
f 115/115/115 116/116/116 117/117/117
f 116/116/116 115/115/115 118/118/118
f 119/119/119 118/118/118 115/115/115
f 118/118/118 119/119/119 120/120/120
f 121/121/121 120/120/120 119/119/119
f 120/120/120 121/121/121 122/122/122
f 123/123/123 122/122/122 121/121/121
f 122/122/122 123/123/123 124/124/124
f 125/125/125 124/124/124 123/123/123
f 124/124/124 125/125/125 126/126/126
f 127/127/127 126/126/126 125/125/125
f 126/126/126 127/127/127 128/128/128
f 129/129/129 128/128/128 127/127/127
f 128/128/128 129/129/129 130/130/130
f 131/131/131 130/130/130 129/129/129
f 130/130/130 131/131/131 132/132/132
f 133/133/133 134/134/134 135/135/135
f 134/134/134 133/133/133 136/136/136
f 137/137/137 134/134/134 136/136/136
f 134/134/134 137/137/137 138/138/138
f 137/137/137 139/139/139 138/138/138
f 139/139/139 137/137/137 140/140/140
f 140/140/140 141/141/141 139/139/139
f 141/141/141 140/140/140 142/142/142
f 142/142/142 143/143/143 141/141/141
f 143/143/143 142/142/142 144/144/144
f 144/144/144 145/145/145 143/143/143
f 145/145/145 144/144/144 146/146/146
f 146/146/146 147/147/147 145/145/145
f 148/148/148 142/142/142 140/140/140
f 149/149/149 144/144/144 142/142/142
f 142/142/142 148/148/148 149/149/149
f 150/150/150 146/146/146 144/144/144
f 144/144/144 149/149/149 150/150/150
f 140/140/140 151/151/151 148/148/148
f 151/151/151 140/140/140 152/152/152
f 152/152/152 153/153/153 151/151/151
f 153/153/153 148/148/148 151/151/151
f 153/153/153 152/152/152 154/154/154
f 148/148/148 153/153/153 155/155/155
f 154/154/154 155/155/155 153/153/153
f 155/155/155 149/149/149 148/148/148
f 155/155/155 154/154/154 156/156/156
f 149/149/149 155/155/155 157/157/157
f 156/156/156 157/157/157 155/155/155
f 157/157/157 150/150/150 149/149/149
f 157/157/157 156/156/156 158/158/158
f 159/159/159 158/158/158 156/156/156
f 150/150/150 157/157/157 160/160/160
f 158/158/158 160/160/160 157/157/157
f 146/146/146 150/150/150 161/161/161
f 160/160/160 161/161/161 150/150/150
f 161/161/161 162/162/162 146/146/146
f 147/147/147 146/146/146 162/162/162
f 163/163/163 147/147/147 162/162/162
f 147/147/147 163/163/163 164/164/164
f 163/163/163 165/165/165 164/164/164
f 165/165/165 163/163/163 166/166/166
f 162/162/162 161/161/161 167/167/167
f 167/167/167 163/163/163 162/162/162
f 168/168/168 166/166/166 163/163/163
f 163/163/163 167/167/167 168/168/168
f 166/166/166 168/168/168 169/169/169
f 170/170/170 169/169/169 168/168/168
f 167/167/167 170/170/170 168/168/168
f 169/169/169 170/170/170 171/171/171
f 161/161/161 160/160/160 172/172/172
f 172/172/172 167/167/167 161/161/161
f 170/170/170 167/167/167 173/173/173
f 167/167/167 172/172/172 173/173/173
f 174/174/174 171/171/171 170/170/170
f 171/171/171 174/174/174 175/175/175
f 176/176/176 172/172/172 160/160/160
f 160/160/160 158/158/158 176/176/176
f 177/177/177 173/173/173 172/172/172
f 172/172/172 176/176/176 177/177/177
f 178/178/178 170/170/170 173/173/173
f 170/170/170 178/178/178 174/174/174
f 173/173/173 177/177/177 178/178/178
f 179/179/179 175/175/175 174/174/174
f 178/178/178 179/179/179 174/174/174
f 175/175/175 179/179/179 180/180/180
f 181/181/181 176/176/176 158/158/158
f 158/158/158 159/159/159 181/181/181
f 182/182/182 177/177/177 176/176/176
f 176/176/176 181/181/181 182/182/182
f 183/183/183 178/178/178 177/177/177
f 177/177/177 182/182/182 183/183/183
f 179/179/179 178/178/178 184/184/184
f 178/178/178 183/183/183 184/184/184
f 185/185/185 180/180/180 179/179/179
f 180/180/180 185/185/185 186/186/186
f 187/187/187 179/179/179 184/184/184
f 179/179/179 187/187/187 185/185/185
f 188/188/188 184/184/184 183/183/183
f 184/184/184 188/188/188 187/187/187
f 189/189/189 183/183/183 182/182/182
f 183/183/183 189/189/189 188/188/188
f 190/190/190 182/182/182 181/181/181
f 182/182/182 190/190/190 189/189/189
f 191/191/191 181/181/181 159/159/159
f 181/181/181 191/191/191 190/190/190
f 192/192/192 186/186/186 185/185/185
f 186/186/186 192/192/192 193/193/193
f 194/194/194 187/187/187 188/188/188
f 189/189/189 194/194/194 188/188/188
f 195/195/195 185/185/185 187/187/187
f 185/185/185 195/195/195 192/192/192
f 187/187/187 194/194/194 195/195/195
f 196/196/196 193/193/193 192/192/192
f 193/193/193 196/196/196 197/197/197
f 192/192/192 198/198/198 196/196/196
f 198/198/198 192/192/192 195/195/195
f 195/195/195 199/199/199 198/198/198
f 199/199/199 195/195/195 194/194/194
f 194/194/194 200/200/200 199/199/199
f 194/194/194 189/189/189 201/201/201
f 200/200/200 194/194/194 201/201/201
f 190/190/190 201/201/201 189/189/189
f 201/201/201 202/202/202 200/200/200
f 202/202/202 201/201/201 203/203/203
f 201/201/201 190/190/190 203/203/203
f 203/203/203 204/204/204 202/202/202
f 190/190/190 205/205/205 203/203/203
f 204/204/204 203/203/203 205/205/205
f 205/205/205 206/206/206 204/204/204
f 205/205/205 190/190/190 191/191/191
f 206/206/206 205/205/205 207/207/207
f 191/191/191 207/207/207 205/205/205
f 207/207/207 208/208/208 206/206/206
f 207/207/207 191/191/191 209/209/209
f 208/208/208 207/207/207 209/209/209
f 159/159/159 209/209/209 191/191/191
f 209/209/209 159/159/159 208/208/208
f 210/210/210 211/211/211 212/212/212
f 211/211/211 210/210/210 213/213/213
f 214/214/214 211/211/211 213/213/213
f 211/211/211 214/214/214 215/215/215
f 214/214/214 216/216/216 215/215/215
f 216/216/216 214/214/214 217/217/217
f 218/218/218 219/219/219 220/220/220
f 219/219/219 218/218/218 221/221/221
f 222/222/222 219/219/219 221/221/221
f 219/219/219 222/222/222 223/223/223
f 222/222/222 224/224/224 223/223/223
f 224/224/224 222/222/222 225/225/225
f 226/226/226 227/227/227 228/228/228
f 227/227/227 226/226/226 229/229/229
f 230/230/230 227/227/227 229/229/229
f 227/227/227 230/230/230 231/231/231
f 230/230/230 232/232/232 231/231/231
f 232/232/232 230/230/230 233/233/233
f 234/234/234 235/235/235 236/236/236
f 235/235/235 234/234/234 237/237/237
f 238/238/238 237/237/237 234/234/234
f 237/237/237 238/238/238 239/239/239
f 240/240/240 239/239/239 238/238/238
f 239/239/239 240/240/240 241/241/241
f 242/242/242 243/243/243 244/244/244
f 243/243/243 242/242/242 245/245/245
f 246/246/246 245/245/245 242/242/242
f 245/245/245 246/246/246 247/247/247
f 248/248/248 247/247/247 246/246/246
f 247/247/247 248/248/248 249/249/249
f 250/250/250 249/249/249 248/248/248
f 249/249/249 250/250/250 251/251/251
f 252/252/252 253/253/253 254/254/254
f 253/253/253 252/252/252 255/255/255
f 255/255/255 256/256/256 253/253/253
f 256/256/256 255/255/255 257/257/257
f 258/258/258 256/256/256 257/257/257
f 256/256/256 258/258/258 259/259/259
f 260/260/260 261/261/261 262/262/262
f 261/261/261 260/260/260 263/263/263
f 260/260/260 264/264/264 263/263/263
f 264/264/264 260/260/260 265/265/265
f 266/266/266 264/264/264 265/265/265
f 264/264/264 266/266/266 267/267/267
f 268/268/268 269/269/269 270/270/270
f 269/269/269 268/268/268 271/271/271
f 271/271/271 272/272/272 269/269/269
f 269/269/269 272/272/272 273/273/273
f 272/272/272 271/271/271 274/274/274
f 274/274/274 275/275/275 272/272/272
f 275/275/275 274/274/274 276/276/276
f 276/276/276 277/277/277 275/275/275
f 277/277/277 276/276/276 278/278/278
f 278/278/278 279/279/279 277/277/277
f 277/277/277 279/279/279 280/280/280
f 279/279/279 278/278/278 281/281/281
f 282/282/282 279/279/279 281/281/281
f 279/279/279 282/282/282 283/283/283
f 284/284/284 285/285/285 286/286/286
f 285/285/285 284/284/284 287/287/287
f 288/288/288 287/287/287 284/284/284
f 287/287/287 289/289/289 285/285/285
f 290/290/290 285/285/285 289/289/289
f 289/289/289 287/287/287 291/291/291
f 292/292/292 291/291/291 287/287/287
f 287/287/287 288/288/288 292/292/292
f 291/291/291 292/292/292 293/293/293
f 288/288/288 294/294/294 292/292/292
f 294/294/294 288/288/288 295/295/295
f 296/296/296 295/295/295 288/288/288
f 295/295/295 296/296/296 297/297/297
f 296/296/296 298/298/298 297/297/297
f 298/298/298 296/296/296 299/299/299
f 300/300/300 298/298/298 299/299/299
f 298/298/298 300/300/300 301/301/301
f 302/302/302 294/294/294 295/295/295
f 294/294/294 302/302/302 303/303/303
f 304/304/304 303/303/303 302/302/302
f 305/305/305 292/292/292 294/294/294
f 303/303/303 305/305/305 294/294/294
f 292/292/292 306/306/306 293/293/293
f 292/292/292 305/305/305 306/306/306
f 303/303/303 304/304/304 307/307/307
f 308/308/308 307/307/307 304/304/304
f 307/307/307 308/308/308 309/309/309
f 309/309/309 310/310/310 307/307/307
f 310/310/310 303/303/303 307/307/307
f 310/310/310 309/309/309 311/311/311
f 305/305/305 303/303/303 312/312/312
f 303/303/303 310/310/310 312/312/312
f 311/311/311 313/313/313 310/310/310
f 313/313/313 312/312/312 310/310/310
f 313/313/313 311/311/311 314/314/314
f 312/312/312 315/315/315 305/305/305
f 315/315/315 306/306/306 305/305/305
f 316/316/316 293/293/293 306/306/306
f 293/293/293 316/316/316 317/317/317
f 316/316/316 318/318/318 317/317/317
f 312/312/312 313/313/313 319/319/319
f 315/315/315 312/312/312 319/319/319
f 314/314/314 320/320/320 313/313/313
f 320/320/320 314/314/314 321/321/321
f 313/313/313 322/322/322 319/319/319
f 322/322/322 313/313/313 320/320/320
f 321/321/321 323/323/323 320/320/320
f 323/323/323 322/322/322 320/320/320
f 323/323/323 321/321/321 324/324/324
f 324/324/324 325/325/325 323/323/323
f 325/325/325 324/324/324 326/326/326
f 327/327/327 323/323/323 325/325/325
f 323/323/323 327/327/327 328/328/328
f 322/322/322 323/323/323 328/328/328
f 329/329/329 328/328/328 327/327/327
f 330/330/330 319/319/319 322/322/322
f 319/319/319 330/330/330 315/315/315
f 331/331/331 315/315/315 330/330/330
f 332/332/332 322/322/322 328/328/328
f 322/322/322 332/332/332 330/330/330
f 328/328/328 329/329/329 332/332/332
f 332/332/332 331/331/331 330/330/330
f 333/333/333 332/332/332 329/329/329
f 334/334/334 333/333/333 329/329/329
f 333/333/333 334/334/334 335/335/335
f 334/334/334 336/336/336 335/335/335
f 336/336/336 334/334/334 337/337/337
f 338/338/338 336/336/336 337/337/337
f 336/336/336 338/338/338 339/339/339
f 332/332/332 333/333/333 340/340/340
f 331/331/331 332/332/332 340/340/340
f 341/341/341 340/340/340 333/333/333
f 340/340/340 341/341/341 342/342/342
f 343/343/343 342/342/342 341/341/341
f 331/331/331 340/340/340 344/344/344
f 342/342/342 344/344/344 340/340/340
f 344/344/344 342/342/342 345/345/345
f 342/342/342 346/346/346 345/345/345
f 347/347/347 331/331/331 344/344/344
f 342/342/342 343/343/343 348/348/348
f 346/346/346 342/342/342 348/348/348
f 349/349/349 348/348/348 343/343/343
f 348/348/348 349/349/349 350/350/350
f 350/350/350 346/346/346 348/348/348
f 346/346/346 350/350/350 351/351/351
f 331/331/331 347/347/347 352/352/352
f 352/352/352 353/353/353 331/331/331
f 315/315/315 331/331/331 353/353/353
f 306/306/306 315/315/315 353/353/353
f 354/354/354 306/306/306 353/353/353
f 353/353/353 352/352/352 354/354/354
f 306/306/306 354/354/354 316/316/316
f 347/347/347 355/355/355 352/352/352
f 355/355/355 354/354/354 352/352/352
f 355/355/355 347/347/347 356/356/356
f 357/357/357 355/355/355 356/356/356
f 355/355/355 357/357/357 358/358/358
f 358/358/358 359/359/359 355/355/355
f 354/354/354 355/355/355 359/359/359
f 359/359/359 358/358/358 360/360/360
f 354/354/354 361/361/361 316/316/316
f 361/361/361 354/354/354 359/359/359
f 360/360/360 361/361/361 359/359/359
f 318/318/318 316/316/316 361/361/361
f 361/361/361 360/360/360 362/362/362
f 362/362/362 318/318/318 361/361/361
f 318/318/318 362/362/362 363/363/363
f 364/364/364 365/365/365 366/366/366
f 366/366/366 367/367/367 364/364/364
