# cliff_hills_large_c_height
v -4.44062996 7.1454339 2.6198616
v -4.62072468 7.40647221 2.92128801
v -4.77737856 7.25126839 2.92371535
v 15.3272247 5.75982857 -5.06937075
v 15.5476685 5.7000823 -5.02190876
v 14.9040279 5.62949753 -5.11620426
v 5.77641153 2.31668878 -20.3773136
v 5.3146348 2.59887528 -19.9719334
v 6.61005116 2.04756546 -19.1952801
v 4.7766757 3.27561522 -17.1248417
v 4.38545609 2.85351229 -20.2360916
v 3.65445852 3.12831545 -19.0215836
v 3.14602494 3.59791708 -16.670269
v 2.61599684 3.10020399 -19.0770206
v 1.71421492 3.31607389 -18.3956718
v 1.32394361 3.64226413 -17.2731323
v 0.87111783 3.50294876 -18.645113
v 0.579711199 3.66020632 -17.5838394
v 0.674359262 3.66228509 -16.8351555
v 0.780099332 3.85971427 -16.2563419
v 0.419785351 3.90038896 -16.1487045
v 0.516395152 4.18436861 -15.6605444
v 1.59875298 3.73610258 -16.7470016
v 1.96007872 3.81317091 -16.3245754
v 0.615891576 4.22289038 -15.3128614
v 2.42257452 4.29729128 -14.1334066
v 2.31401014 4.25110006 -13.9251938
v 0.241008759 4.51061392 -14.0003719
v 0.158831045 4.35178661 -14.8642664
v -0.145838767 4.45752907 -14.1740599
v 3.61892939 3.68684983 -15.7372484
v 2.42257452 4.29729128 -14.1334066
v 4.13707161 3.40818453 -16.380228
v 4.66576815 3.35900331 -16.6490898
v 5.27665377 3.28488803 -16.7921791
v -6.74689722 7.36961222 5.44478703
v -6.1082201 7.36212444 5.38741446
v -6.74494362 7.53416967 4.11626101
v -5.8288331 7.41729498 3.98885036
v -5.55273771 7.12565184 5.55289698
v -5.06773043 7.21174622 5.26897335
v -4.26203489 7.19673729 4.28681946
v -6.04697084 7.39248562 3.69341636
v -6.65281677 7.12270594 3.50637841
v -5.88231087 7.36698294 2.67957425
v -6.49447536 7.11896706 3.04463434
v -5.39875174 7.4782815 2.53166103
v -4.77737856 7.25126839 2.92371535
v -3.19362855 7.06562471 2.83381271
v -4.7482872 7.1889658 2.62001395
v -4.62072468 7.40647221 2.92128801
v -4.44062996 7.1454339 2.6198616
v -4.59529781 6.88048553 2.06317186
v -3.96052575 7.0545249 1.7627809
v -4.12984562 7.07712507 1.34792864
v -3.78407097 7.02300787 1.03481853
v -2.54093719 7.10398006 0.798434556
v -3.56279039 7.03034353 0.474013239
v -2.90162492 7.00464344 0.100455254
v -3.20502591 7.1363945 3.66521668
v -3.77317834 7.25304747 4.75863314
v -2.63504815 7.12274933 3.84448195
v -2.22166228 6.93376255 3.47424364
v -2.91849208 7.03343868 2.64024448
v -1.93277121 6.92954254 3.19792652
v -1.0942651 6.92348719 1.38648891
v -3.16040611 7.06374121 2.51892567
v -1.61467528 7.20778084 0.104514651
v 0.726173401 7.10003853 -2.31532264
v -1.12892747 7.26267052 -2.14565635
v -3.01110005 7.21147156 2.69960356
v -1.64834154 7.22447872 -1.65688443
v -2.15387106 7.2674551 -1.29709911
v -2.19109511 7.23860455 -0.281498551
v -2.77402997 7.08934927 -0.557739198
v -2.72857785 7.09000301 -0.168677971
v -2.39936972 7.28122091 -0.287237853
v -0.500773132 7.10359859 -2.46225047
v -1.0358597 7.17183638 -2.45916367
v -0.620727777 6.96067238 -2.69651365
v -0.404862255 7.09636879 -2.84877133
v 1.70925748 7.21440363 -3.44084454
v 2.35898852 6.87838173 -2.11049581
v 0.121934466 6.9808507 -3.39463711
v 1.82641625 7.29149199 -4.04863262
v 0.797383785 6.9723835 -4.68794775
v 1.42408454 7.16133213 -4.76646042
v 1.62133145 7.27852964 -5.11630535
v 2.2219789 7.64719296 -4.97892857
v 2.52967334 7.37659788 -3.88540125
v 3.5279367 7.69619226 -5.13192749
v 2.57574463 7.61232471 -5.33781004
v 3.30288577 7.68614435 -5.48674774
v 4.18281794 7.70159578 -5.71662235
v 2.89972425 7.08237648 -2.78985691
v 1.29794908 6.81357241 -1.26925635
v 0.740551293 6.87121201 -1.06302416
v 4.26114321 7.6705699 -5.08230925
v 5.09165239 7.02797508 -2.4319222
v 2.96318483 6.78859472 -2.11756611
v 3.95500255 7.01647329 -2.4195137
v 2.80640864 6.84020185 -2.05243993
v 4.45604658 6.77034426 -1.85734153
v 2.35904789 6.82259607 -1.53492296
v 2.49928069 6.5790019 -0.925255358
v 1.45608139 6.4487195 -0.620170176
v 1.95491314 6.04119539 -0.301537365
v 5.67203951 6.93145847 -1.87043619
v 5.65615177 6.95498276 -1.61054277
v 6.50936365 6.92776489 -1.79489839
v 7.21887684 6.9176383 -2.07636833
v 6.93456841 6.94663239 -1.80535102
v 7.27141953 6.73470688 -1.81003261
v 8.21116543 6.77471352 -1.6504817
v 5.12214851 7.46970081 -4.69096375
v 0.337960124 6.5976162 0.394867569
v -0.0839525387 6.64573288 1.4511658
v 1.46097457 5.8560009 0.574570835
v 1.08706939 6.20297003 1.80071771
v 1.90343726 5.7174449 0.627312362
v 2.30770111 5.40239668 0.987038732
v 2.30270934 5.56702852 1.65871239
v 1.90340149 6.08012199 2.52698231
v 1.5778172 6.43200302 2.91535425
v -1.13713014 6.93434811 2.76369143
v -1.08290422 7.04697323 3.20634842
v -0.405326098 7.11764717 3.37072659
v -0.3360385 6.98367167 2.98628879
v 0.983603418 6.60241127 2.91249681
v 1.65423369 6.79936981 3.23405719
v 1.02203 6.85459805 3.60861635
v 1.70180655 6.97948599 3.6656642
v 1.11421824 7.1372509 4.32369566
v -0.240110368 7.62973928 5.01844358
v 1.82697463 7.24271727 5.45736361
v 0.595175207 7.56803656 6.00228357
v 1.02304912 7.74263287 7.40753269
v 1.85865569 7.56924295 8.30255413
v 1.28971636 7.9176507 8.27424431
v 1.49109077 7.79270267 8.75081158
v 1.85783231 7.3916831 9.27703762
v 1.35253167 6.90631771 4.04178143
v 1.82470644 6.97345209 4.13870716
v 1.64613461 7.04305363 4.40526867
v 1.63589454 7.17897463 4.81568146
v 2.1750176 7.13311625 4.8227067
v 2.33843565 7.10502958 5.69040155
v 2.47325945 7.29482031 8.91794682
v 2.15731406 7.21567869 9.73755264
v 2.52676153 7.06826162 10.047081
v 2.34949374 7.3486166 7.62028551
v 3.37399864 7.09049845 9.31882191
v 3.19437432 6.82796001 10.3146286
v 3.56920362 7.00015974 6.77858925
v 2.54408407 6.95715809 5.66645861
v 3.21654963 6.83677673 5.93808031
v 4.53133726 6.857862 6.74801922
v 5.03825808 7.02211666 8.58253193
v 5.20424795 6.99589109 9.38896751
v 3.89996576 6.86759949 10.0789242
v 5.31230211 6.85743332 11.1225157
v 6.55464888 6.66780376 10.0606842
v 6.25220919 6.61544037 11.3417864
v 5.42861176 6.67892265 7.26167631
v 5.09955597 6.7203393 6.82772207
v 6.26940489 6.77565479 8.8874836
v 6.03936529 6.67402124 7.42265987
v 6.50245905 6.39569187 7.62230921
v 7.3583293 6.28192568 7.94716454
v 9.48449135 5.51933575 11.0751953
v 8.04774857 5.79409552 13.1894016
v 9.65603256 5.460567 12.11588
v 9.11295319 5.74705696 9.87937641
v 9.10778618 5.72417307 9.50872326
v 8.6140976 5.86391449 8.78079891
v 8.19673061 5.98010921 8.26931667
v 9.05524063 5.81082249 8.83471584
v 8.59084129 5.81248045 8.34833145
v 8.79788876 5.73666906 8.26481533
v -10.6377077 4.44012976 7.99630213
v -10.633193 4.16208935 7.24943447
v -11.2272253 4.24349785 7.01750612
v -10.7916651 4.65594053 8.21334648
v -10.4476728 4.79790974 8.61883354
v -11.4022932 4.97351074 8.94532394
v -11.8030396 4.73313713 8.37264538
v -12.1588497 4.98464918 9.01634693
v -12.2793407 4.78816843 8.2679739
v -13.4643126 4.87770367 8.63461208
v -12.7944994 4.63689756 7.45836353
v -11.9790497 4.34088469 6.16719675
v -12.480772 4.34975243 5.66007376
v -13.4437237 4.54653883 5.89420223
v -14.1417589 4.72281361 8.0071125
v -12.6110706 4.23630619 4.99450016
v -14.539361 4.67423773 7.56295681
v -15.5955257 4.73115873 4.60724401
v -14.7762632 4.71825218 8.57824039
v -15.4904985 4.4243598 7.56329393
v -15.5788937 4.49287367 7.27447128
v -16.3707237 4.69053411 5.25068426
v -16.4894428 4.44616842 6.78951645
v -17.0998173 4.50161743 6.84746981
v -13.0922823 4.43203068 3.83610773
v -12.6545362 4.23026657 3.88125181
v -12.8891134 4.41461563 2.90657759
v -13.1809759 4.45656872 2.46141791
v -13.4524975 4.49141598 3.36825061
v -13.5263643 4.4383173 2.57089496
v -14.1245127 4.39717674 2.71229506
v -15.3404217 4.40265417 2.74647284
v -16.4643898 4.45305014 3.20757079
v -17.5797901 4.53011847 3.98196006
v -17.500988 4.11386871 2.87326217
v -17.5525341 4.4856143 6.29326868
v -17.9608459 4.38788462 5.09084845
v -18.2384472 4.25138521 5.87095261
v -17.4540215 4.41519403 6.84981346
v -17.9529438 4.28603125 6.86831474
v -15.6828585 2.38237858 -11.9767284
v -16.8564053 2.41151547 -12.1365499
v -16.3655262 2.35476422 -10.6083241
v -18.474041 2.79759765 -11.5767498
v -18.7506924 3.01714921 -10.651659
v -18.9787025 2.97357774 -10.9642315
v -19.1597233 3.00801015 -10.5485573
v -19.3701401 3.08558273 -9.87880898
v -16.4960175 2.28582001 -9.57097721
v -16.8188896 2.19525814 -8.31926155
v -18.1575317 2.47954059 -7.90317249
v -16.6249638 1.90126073 -7.35959816
v -19.7238522 2.91133928 -8.4467535
v -17.9759293 2.11048007 -5.51931334
v -19.0574017 2.54662204 -7.44235754
v -19.1974449 2.54997563 -7.01809025
v -8.01557064 4.57418776 9.80443192
v -8.74389744 4.61987162 9.34965611
v -10.7486973 4.75714302 9.9403019
v -9.80438519 4.52037859 11.6208982
v -8.82030201 4.41801548 12.1869793
v -11.936903 4.66168261 11.0668201
v -11.748498 4.43044901 11.7321901
v -7.41798687 4.47315788 10.0601349
v -10.3684292 4.5151701 12.1910362
v -6.26796627 4.31807613 10.2123785
v -5.50887823 4.0562501 10.5915127
v -4.93322945 3.86618328 11.6590195
v -6.74594164 4.24173307 13.1099787
v -10.6560812 4.71487856 13.0631199
v -6.78710604 4.54286909 14.927557
v -11.6142988 5.28501749 14.1478691
v -4.90284586 4.09890556 12.7301111
v -11.3809862 5.26866007 14.6105652
v -4.68465948 4.2816205 14.0362415
v -11.7375307 5.48657274 15.4919415
v -4.28673887 4.21984291 15.1824961
v -4.03620958 4.38797998 13.7852287
v -9.99953938 5.18605566 15.9570541
v -11.2820225 5.4607687 16.5594635
v -9.51290417 4.98613501 16.9847775
v -10.9702759 5.28137112 17.229063
v -11.0331631 5.07647276 17.503643
v -10.1447439 4.58397245 18.4208164
v -9.14773941 4.52589369 18.6940117
v -9.43920326 4.50120401 19.3816719
v -9.14507103 4.39677382 19.627285
v -7.50573635 4.5624485 17.3186512
v -3.07388091 4.32966518 14.4879713
v -3.36059928 4.37874603 13.9635859
v -2.52803135 4.50371027 14.2534409
v -1.9487586 4.59122515 14.5239973
v -2.97123432 3.97773814 15.545311
v -2.19655919 4.18644285 15.2704821
v -3.9378345 4.07547331 15.6155262
v -7.32817364 4.42961264 17.7049599
v -4.02351999 3.89145231 16.4983482
v -4.88890743 3.42676067 18.6519775
v -3.78667736 3.5335927 17.4348812
v -3.90291667 3.26009035 18.4564896
v -4.08648443 3.03488612 19.2061787
v -4.74811888 2.79716182 19.7794704
v -5.40531969 2.97507477 19.9420033
v -6.42509651 3.17268801 20.0026894
v -7.57881594 3.63357878 19.9569721
v -7.84068584 3.9777348 19.7159538
v -8.16779232 4.16579294 20.2247524
v -8.17591763 4.15740156 19.6892319
v -8.88682079 4.18302441 20.0357933
v 24.0078259 -0.0155947106 -9.28600883
v 21.7781448 1.79883325 -8.85484505
v 22.6054192 0.987800717 -8.53648949
v 22.40522 1.29529846 -9.85140228
v 23.8494301 -0.0155939339 -10.3244858
v 20.7343502 3.11129594 -9.9264164
v 20.2590351 3.31047177 -10.4743938
v 20.909174 3.00101638 -9.43023682
v 18.9138985 4.44214535 -9.11896133
v 21.9871693 1.31740642 -10.7363253
v 23.6163006 -0.0155946882 -10.7623634
v 22.5537109 -0.0155941723 -11.8731365
v 21.7035789 1.24473929 -11.1287889
v 19.5709629 3.5263629 -11.0050287
v 17.3603172 4.87211895 -11.5200844
v 18.9126396 4.40387154 -9.75656986
v 16.9523048 5.31232166 -10.8280745
v 17.059309 5.06238604 -11.7516022
v 15.963912 5.73921204 -11.7372112
v 15.7255201 5.97858 -10.7995863
v 15.3119268 5.84125519 -12.3157368
v 14.8930454 5.97961283 -11.6341724
v 15.0529222 6.11445522 -10.7669525
v 15.3447723 6.13267708 -10.1666975
v 17.9765778 5.0033226 -9.55048275
v 16.2722111 5.72828484 -9.72565937
v 15.5124254 5.94424486 -9.87067986
v 17.7404881 5.03586864 -8.20046329
v 18.4703407 4.47968912 -7.89138889
v 17.6736546 5.28214216 -7.05142784
v 18.3195934 4.76018095 -7.0479908
v 17.0772781 5.38845062 -8.22287464
v 16.6926708 5.53033447 -7.63370943
v 17.7651138 5.8916502 -5.23788357
v 16.5996017 5.83563137 -5.67037296
v 16.0224686 5.71867037 -9.35055637
v 15.0834055 5.5800705 -9.23771572
v 18.3494186 5.009655 -6.17371368
v 19.3318596 3.57166004 -6.49958801
v 20.9635277 2.50091219 -4.89820766
v 15.4598265 5.48946333 -9.13554096
v 15.0503712 5.45336676 -8.89464664
v 15.8092308 5.61381149 -8.5539856
v 15.0904408 5.66178513 -6.48593426
v 14.4676733 5.43543673 -9.18706799
v 18.3480625 5.59665108 -5.03872299
v 19.3988514 4.94689226 -4.49883509
v 22.9510136 2.31948066 -2.80784702
v 20.7539539 4.70556688 -3.07284975
v 13.9501295 5.75637436 -6.32094955
v 14.7790556 5.65216541 -5.62800169
v 12.9172888 5.68838263 -8.78091717
v 12.9476118 5.57183743 -9.47131252
v 12.70193 5.74334049 -9.1086235
v 13.0239019 5.43533421 -9.68133163
v 12.44063 5.75179386 -10.6240768
v 13.0457935 5.91354895 -4.86150599
v 13.9008627 5.91225576 -4.703722
v 14.5115156 5.68878698 -5.31578255
v 14.9040279 5.62949753 -5.11620426
v 15.5476685 5.7000823 -5.02190876
v 16.2575016 5.87723398 -4.88368273
v 16.7532253 6.19381618 -4.13607025
v 17.5136471 6.33456945 -3.65738344
v 16.9122257 6.50191212 -3.175699
v 12.3395777 5.96903896 -6.10698032
v 12.7895794 5.98990297 -4.62377167
v 18.2176628 6.37859917 -3.19263577
v 11.9288654 6.14816999 -9.01408482
v 11.5111275 6.6788888 -3.57939577
v 12.6154022 6.46334267 -3.37889886
v 11.8715754 6.70862055 -2.54882145
v 12.5324802 6.60073423 -2.8031528
v 10.6462927 6.6413312 -6.84615517
v 11.8164387 5.90310144 -10.9330978
v 12.0479956 5.89894819 -11.2139177
v 9.67117691 6.54866505 -10.8848591
v 11.2508125 6.01367235 -11.292881
v 12.1679697 5.88998604 -12.098794
v 11.4672861 5.82259989 -12.4645433
v 10.8897457 6.04642057 -11.5939732
v 10.9019966 5.35049057 -13.2775669
v 10.291626 7.02766085 -4.16353512
v 9.08435535 7.21769285 -3.82777858
v 9.54367733 7.16404819 -4.39591503
v 9.41900349 6.8348031 -7.45592737
v 8.88854122 6.59856224 -11.4490194
v 8.72508717 5.82283354 -13.9942245
v 10.70998 5.87775993 -12.2077551
v 8.99396992 6.69950438 -10.6713047
v 7.85231352 6.91244698 -7.85983801
v 10.5375109 5.45978975 -12.9437141
v 10.7212238 5.48950624 -13.6283922
v 10.3298397 5.53521156 -14.1907396
v 9.90437317 5.77768564 -13.0760479
v 9.56865025 5.47674227 -14.6562529
v 9.28995895 5.57052612 -14.8430204
v 8.7651825 5.64036894 -14.7867842
v 7.73010349 5.86283112 -14.1531506
v 8.44554138 6.46365404 -12.1322832
v 7.2238059 6.53373289 -11.9685545
v 6.60347223 5.92203903 -13.450284
v 6.31141233 6.15967894 -12.7125158
v 6.40637255 6.39859056 -11.8989458
v 6.61421871 6.53436708 -11.5034962
v 6.21009636 6.74003506 -10.6210289
v 8.23887634 6.78808689 -10.4456758
v 6.61238813 6.77587128 -10.0396433
v 5.60598135 6.87660265 -9.69862747
v 5.45627928 6.74750519 -9.39325809
v 6.92766762 6.81610155 -8.45586205
v 5.37146091 6.61769962 -8.61103344
v 5.69394016 6.87386322 -6.58644581
v 6.09811926 7.13753653 -6.09173822
v 5.58324957 6.97875738 -6.22776127
v 7.46751499 7.22543144 -5.50163174
v 5.67573214 7.3084197 -5.64173985
v 5.07984924 7.36713791 -5.69582081
v 4.88857985 7.2155509 -6.01375723
v 4.44497967 7.63139153 -5.84757376
v 5.09810495 7.50292349 -5.23677588
v 9.13994122 7.1520071 -2.94624329
v 9.97775078 6.99522257 -2.24130201
v 8.24620724 6.92618275 -1.99015939
v 9.36466694 6.98726797 -1.83112776
v 9.43717575 7.02121305 -1.39208627
v 11.5296545 6.77994776 -0.888709068
v 14.4647007 6.74885654 -0.0441391319
v 15.131629 6.8041687 -1.41996872
v 13.5371332 6.70545959 -2.45403075
v 16.5358009 6.74004078 -2.31597328
v 15.2454891 6.70778656 -2.4991622
v 16.3686962 6.71195984 -0.764709711
v 17.2272987 6.76700115 -1.64152265
v 17.0658741 6.68497276 -2.29861712
v 16.8953953 6.78505421 -1.04156184
v 17.7123528 6.88380289 -1.56304669
v 16.8277721 6.54388762 -0.465065807
v 17.1027546 6.34840202 -0.502637327
v 18.1928139 6.23332405 0.464435607
v 16.1952248 6.65565968 1.3393265
v 17.8882408 6.86475468 -2.01582289
v 18.2783585 6.7860136 -1.37968826
v 17.6848297 6.80600739 -2.30961847
v 18.6940746 6.62038612 -1.57738018
v 20.0714989 5.51248789 -2.57496881
v 19.5675983 5.90486336 -0.470784724
v 19.1849003 6.06084967 -0.0998668373
v 18.2552013 6.51817656 -0.508084714
v 19.2063847 5.77224636 1.19356406
v 21.0632019 5.00481319 1.28509843
v 21.2429733 4.85174847 -1.69476187
v 21.1581631 4.73394728 -2.34242392
v 17.1472683 6.3735137 1.77546453
v 23.3364391 2.38780594 -2.12299037
v 24.2844639 1.03396368 -2.15891647
v 24.3528538 -0.0155938119 -3.06583452
v 24.7008915 0.864072502 -1.13438606
v 24.8435841 -0.0155932708 -1.92524457
v 24.9169426 -0.015593159 0.204352528
v 24.2570763 1.45247185 -1.54100502
v 23.3682556 2.67793632 -1.4206872
v 23.9343948 2.12342763 -0.289767772
v 22.2958946 4.02737856 -0.608710766
v 22.1440544 4.17469358 0.781615913
v 24.630724 1.00160241 0.224572867
v 24.6690197 -0.0155950189 1.65233195
v 24.5220985 1.28700924 -0.50355798
v 24.2868843 0.794883311 2.56687427
v 24.5388889 -0.0155952545 3.36832595
v 24.0244274 1.18422639 4.1775856
v 23.391428 2.5227766 1.6486702
v 23.0151711 3.11064577 2.06944513
v 23.509182 2.57131243 4.63980627
v 22.741396 4.07118082 4.54806805
v 22.9168262 3.63718224 5.06412268
v 22.0852509 4.30870104 1.68380105
v 21.7739353 4.62451172 1.87449992
v 21.9781361 4.69721365 3.03740072
v 20.119976 5.37362957 2.17216277
v 22.6851978 3.93803835 5.04684258
v 22.3181057 3.84081149 5.60354948
v 21.6552944 4.88929367 4.28027487
v 18.1614723 6.00731182 2.8258431
v 18.7537231 5.90962219 4.16327715
v 17.1694641 6.80206299 4.5658803
v 16.253191 6.90982723 2.39541507
v 21.5642338 4.81648159 4.91289854
v 20.8793449 5.12633514 4.85174274
v 15.5566492 7.1006403 1.90636468
v 20.8615055 4.57526302 6.20654058
v 21.0148773 4.02649641 6.78942251
v 20.6762047 3.87907791 7.2460537
v 18.9576168 5.78700304 5.00871849
v 19.4526711 5.35976362 5.77148771
v 19.7596474 4.83129454 6.56216049
v 20.0498123 4.06906271 7.35964537
v 18.3362064 5.38004065 7.12108564
v 17.0571899 6.62005949 6.36178064
v 16.8555088 6.45413685 6.93166447
v 15.3600006 7.78760242 5.54577255
v 19.4512653 4.55588484 7.12336063
v 19.6087685 4.22994995 7.42800951
v 19.0293236 4.35372496 7.40517092
v 18.3468399 4.90230322 7.517694
v 18.0724754 4.84215927 7.86945152
v 16.9880505 5.55139351 8.1447134
v 17.3757057 4.89039469 8.36584949
v 16.6639805 4.91590214 9.46155167
v 15.4069052 5.36819983 9.96195793
v 15.2645454 7.93848801 5.07512474
v 15.6578045 6.34341908 7.94987917
v 14.5107603 6.32804489 8.79782104
v 14.6571894 6.67466211 7.67317343
v 15.0821762 6.97399092 7.16978264
v 14.2718544 7.72419882 6.61891603
v 13.0016041 7.67976713 7.46022177
v 12.7848663 8.03038597 7.30313444
v 13.1736708 8.50615597 6.02256441
v 12.2962713 8.45499039 6.58928919
v 12.544836 8.76584816 5.78471661
v 12.0460005 8.65237522 6.68903112
v 11.9867315 8.95106888 5.80803204
v 11.579917 8.93890953 5.87942505
v 10.9317732 9.0629158 4.68878031
v 11.3775282 9.11478329 4.26858377
v 10.9049616 9.27175045 3.85363841
v 12.6013947 8.88847923 4.93014479
v 14.7816191 8.20253563 4.13758945
v 11.6186829 8.8289423 3.2451241
v 10.5085926 9.12956333 2.97417569
v 10.7464485 8.81879425 2.63167381
v 15.3564634 7.95367861 4.26593637
v 14.1648169 8.24289989 3.21828032
v 11.0407066 8.45620251 2.22947001
v 10.5426064 8.6854763 2.206424
v 10.2036104 7.8756938 1.1996634
v 15.6577902 7.56924868 3.13950801
v 14.9514666 8.01421165 3.42593217
v 14.2366209 7.91417027 2.46164846
v 13.7672558 7.12915611 0.794697881
v 12.0568161 7.54013634 1.18467331
v 12.8356085 6.91057062 0.0554283448
v 12.5154696 7.18928862 0.718417048
v 11.448102 7.48230457 0.915418684
v 9.89675331 7.85120106 0.741754413
v 11.9405003 6.84549427 0.0332429297
v 11.9616432 7.07638121 0.646741927
v 11.1880732 7.06482172 0.0814967975
v 9.63084888 7.49338245 0.020209495
v 11.5288715 6.90343428 -0.285790652
v -7.59508896 3.42343688 -14.2411041
v -8.30024624 3.63231182 -13.3200703
v -7.89498281 3.79604483 -12.747901
v -7.21291542 3.47463822 -13.8307371
v -5.65275192 3.3193996 -13.1575823
v -8.15068436 4.07588911 -12.2547779
v -6.54318237 4.04561186 -11.5201292
v -7.6582489 3.52164388 -14.5671415
v -7.87973166 4.11693668 -11.9516497
v -7.06980562 3.29004145 -14.8321753
v -8.21433544 4.42038393 -11.3629847
v -7.98719549 4.78538609 -10.6022339
v -3.90279126 2.25555634 -15.9674358
v -6.77258158 3.01568985 -15.4186497
v -7.15641785 3.15820217 -15.4794798
v -7.52228785 4.87339354 -10.4726868
v -6.94511986 2.63419867 -15.9508371
v -6.13928986 4.16589308 -11.0290308
v -7.24571085 5.05805969 -9.69172668
v -6.21736908 3.91850209 -11.6178865
v -4.66272974 3.24862957 -12.0290651
v -6.01066589 4.70525122 -9.65135193
v -6.52096605 5.53263521 -7.83057165
v -3.46534252 2.3768332 -14.44697
v -3.97923708 3.38225222 -10.7859259
v -3.99199581 3.64240265 -10.1819782
v -3.90623856 3.09134555 -11.0359545
v -4.11307192 4.140481 -8.43453407
v -3.58584476 2.75828791 -11.8293295
v -4.89221191 4.69504642 -7.72522497
v -4.2871623 4.30633545 -8.15073872
v -4.40461302 4.49724865 -6.82234621
v -6.81671715 5.8305645 -7.56997824
v -5.00775337 5.02752495 -6.16578293
v -6.24873209 5.97115469 -5.59490204
v -5.64581299 5.89480639 -5.29050779
v -5.9718771 6.08607769 -4.4089551
v -7.14550877 6.22199869 -6.54007435
v -7.15881872 6.36755133 -4.5526762
v -8.05105782 6.4634347 -5.28591967
v -7.78463221 6.27358198 -6.43686247
v -8.02560806 6.49113274 -4.39959431
v -8.41469097 6.44599485 -4.81761122
v -8.36216831 6.41851282 -4.3841176
v 18.9138985 4.44214535 -9.11896133
v 18.4703407 4.47968912 -7.89138889
v 19.255188 3.91369915 -7.83157015
v 20.909174 3.00101638 -9.43023682
v 19.9520988 3.24554372 -8.01227188
v 21.1794987 2.50085092 -8.40741158
v 21.7781448 1.79883325 -8.85484505
v 21.4478569 1.97083282 -8.38110638
v 21.7126579 1.6841439 -8.52197552
v 22.1320553 1.33430922 -8.46058273
v 22.6054192 0.987800717 -8.53648949
v -3.60567594 2.79598594 -12.2139072
v -3.3574481 2.71446943 -12.075222
v -3.14523554 2.46383047 -12.7465363
v -3.56865025 2.52476239 -13.2124958
v -2.8651402 2.04670382 -13.3717394
v -3.26085925 2.22727203 -13.879961
v -2.86403346 1.96778715 -14.055212
v -3.1253531 2.40076709 -14.9420929
v -3.29797792 2.28318906 -15.792531
v -3.37789083 2.07954192 -16.238802
v -4.61652374 2.15965962 -16.6728363
v -4.07725954 2.07601142 -16.9409428
v -4.15007639 1.91877222 -17.4141312
v -5.21977425 2.36195898 -16.4494877
v -5.18997812 1.97248185 -17.0026932
v -5.51667547 1.72962236 -17.5715599
v -6.05275059 2.56309605 -16.2069664
v -5.40641689 2.22522187 -16.8479691
v -5.54276419 1.80560541 -17.1172962
v -6.05970526 1.889979 -16.9534454
v -5.84261513 1.79844713 -17.2514591
v -5.79988718 1.79839373 -17.8710384
v -6.20049286 1.68763137 -17.5158405
v -6.15409851 2.3123281 -16.6348782
v -6.24227285 1.82801008 -17.1528301
v -7.08165026 1.96070123 -16.7829056
v -7.63672543 2.24022317 -16.4399719
v -7.51276541 1.69150245 -17.0035667
v -6.78014278 1.79228604 -16.9971027
v -7.03237772 1.45010483 -17.448597
vn 0.0860240161 0.954832911 -0.284418523
vn 0.257249445 0.774425209 0.578003645
vn 0.200402364 0.979582429 -0.0160398073
vn 0.161521479 -0.175504789 -0.971137941
vn 0.16152145 -0.175504789 -0.971137941
vn 0.161521465 -0.175504804 -0.971137941
vn 0.445035338 0.888536394 -0.111564778
vn 0.393047541 0.909189939 -0.137431234
vn 0.449469298 0.884998322 -0.121471785
vn 0.166207507 0.97622937 -0.139108717
vn 0.241321743 0.957131207 -0.160198525
vn 0.0806270391 0.982405365 -0.168460757
vn 0.14187704 0.970327318 -0.195795074
vn 0.0235286038 0.977968037 -0.207424253
vn 0.149773344 0.965665102 -0.212270886
vn 0.0722210109 0.98115772 -0.179202721
vn 0.196052104 0.966968656 -0.162896425
vn 0.0574176461 0.995134413 -0.0800662115
vn -0.0834174752 0.97395891 -0.210821137
vn -0.0149349244 0.926548421 -0.37587887
vn -0.0290130228 0.899060667 -0.436861783
vn 0.0974132419 0.948803484 -0.30047068
vn 0.0615671948 0.974781036 -0.21450232
vn 0.0852127448 0.961421013 -0.261549979
vn 0.126224265 0.974975824 -0.18300195
vn -0.00178622082 0.999230981 -0.0391701423
vn -0.0509122163 0.997818828 0.04201781
vn 0.052887965 0.982485414 -0.178676188
vn 0.064161256 0.980386555 -0.186347723
vn -0.0561423711 0.982901156 -0.175366208
vn 0.226925001 0.951930106 -0.205752581
vn -0.00178622082 0.999230981 -0.0391701423
vn 0.188711554 0.97747004 -0.0945531502
vn 0.030211946 0.985708594 -0.165727824
vn 0.0836031958 0.984668076 -0.153098896
vn 0.0226738788 0.992156744 0.122926742
vn 0.206869051 0.972510934 0.106900357
vn 0.0194732491 0.987731814 -0.154941052
vn 0.0921122879 0.995156944 0.0343222767
vn 0.142564461 0.977245271 0.157057479
vn 0.0195955262 0.988921523 0.147139773
vn 0.0909336284 0.99579066 -0.0114960168
vn -0.143262506 0.977345228 -0.155795574
vn -0.316554189 0.891525805 -0.323998809
vn -0.294996083 0.952256143 -0.0786481351
vn -0.452047318 0.87713778 -0.162118942
vn 0.0959711671 0.994746208 -0.035629712
vn 0.200402364 0.979582429 -0.0160398073
vn 0.00955668464 0.999746978 0.020364942
vn 0.122877419 0.908495605 -0.39942053
vn 0.257249445 0.774425209 0.578003645
vn 0.0860240161 0.954832911 -0.284418523
vn -0.264340073 0.930149794 -0.254844248
vn -0.081908375 0.99651742 -0.0156253055
vn 0.0311207119 0.998645246 0.0417023748
vn -0.0366586968 0.998558462 -0.0392056294
vn -0.111290008 0.993680716 -0.0146026453
vn -0.0556855835 0.997148335 -0.0509345233
vn -0.17942369 0.983489394 -0.0235748589
vn 0.0622000098 0.993035734 -0.100056008
vn 0.00592040271 0.994659483 -0.103040799
vn 0.103254594 0.961378932 -0.255125493
vn 0.124181516 0.991259158 -0.044544477
vn 0.268802226 0.963093519 -0.0140106278
vn 0.0363632701 0.99933809 0.000968812674
vn 0.18756786 0.97753644 0.0961287469
vn -0.0269307625 0.995904386 -0.0863089412
vn 0.0846955627 0.991662741 0.0971170515
vn 0.0768749639 0.991275549 0.107065126
vn 0.0684883222 0.995239377 -0.0693380162
vn 0.357285857 0.916952193 0.177610546
vn -0.0178055018 0.999793231 0.00981845055
vn 0.00166689733 0.999909878 0.0133198053
vn -0.0692358017 0.996123135 0.0542689525
vn -0.314813316 0.948209882 -0.0423153602
vn -0.312209427 0.933283925 0.177500486
vn 0.0286976565 0.988081455 0.151233271
vn -0.0318537764 0.951419234 -0.3062464
vn 0.118090793 0.940426886 -0.318828821
vn -0.292399824 0.875598192 -0.384487003
vn -0.183593005 0.978755057 -0.0912814364
vn -0.0623166338 0.98814255 0.140324399
vn 0.0677278787 0.979637563 0.189005584
vn -0.164791122 0.953834236 -0.25108555
vn -0.234534204 0.96723479 0.0972137153
vn -0.244099453 0.965648532 -0.0890971795
vn -0.355066091 0.934372962 0.029583795
vn -0.491331309 0.866926968 0.0838521793
vn -0.217191204 0.965840101 0.141353756
vn -0.054770682 0.968190968 0.244144246
vn -0.0152160339 0.993470073 0.113074228
vn -0.0612272844 0.990829229 -0.120451495
vn -0.065722324 0.997747481 0.013429719
vn 0.163445994 0.986540377 0.00485448865
vn -0.0116158174 0.953604043 0.300839275
vn 0.134707287 0.941863358 0.307810724
vn 0.269821733 0.934117734 0.233709633
vn 0.100073822 0.987990201 0.11773055
vn -0.0351500437 0.966743767 0.25331986
vn 0.0471516401 0.950833976 0.306090921
vn -0.0194972213 0.961556017 0.273915917
vn 0.142334387 0.967646718 -0.208328277
vn -0.0520205498 0.942551017 0.329987168
vn 0.139882788 0.962678611 0.23169522
vn 0.120016284 0.875787437 0.467538774
vn 0.261243314 0.854573846 0.448838025
vn 0.309892148 0.807078063 0.502585113
vn -0.0382340215 0.997610927 0.0575372353
vn -0.0630658343 0.99359268 -0.0937886834
vn 0.0010313919 0.999154687 -0.0410966501
vn 0.0618620738 0.952862859 0.297027767
vn 0.0989915803 0.995084822 -0.00261245784
vn 0.107957907 0.829288065 0.548293948
vn -0.0936904177 0.923811018 0.371207714
vn 0.0971897393 0.987153828 0.126813114
vn 0.669098675 0.682478309 0.294160187
vn 0.335362732 0.942052901 0.00825515017
vn 0.424211055 0.883534074 0.198525831
vn 0.3874861 0.896107852 -0.216437459
vn 0.282014042 0.870912552 0.402466536
vn 0.442582518 0.896709979 0.00565612735
vn 0.426385462 0.87019372 -0.246897474
vn 0.430221826 0.835316062 -0.342281163
vn 0.294553638 0.800937891 -0.521283627
vn -0.00363838905 0.990295172 -0.138932675
vn -0.0798144341 0.96832484 -0.236594036
vn 0.149734482 0.938453496 -0.311262757
vn 0.151927024 0.951967478 -0.26584971
vn 0.186570019 0.908452928 -0.374038815
vn -0.0360041372 0.869217813 -0.493116766
vn 0.0922067836 0.94281292 -0.320315033
vn -0.157665074 0.978653729 -0.131827414
vn 0.227855518 0.915170074 -0.332484156
vn 0.200940564 0.95084691 -0.23561208
vn 0.22382924 0.967758179 -0.115518443
vn 0.193001434 0.970689356 -0.143222526
vn 0.322536379 0.932439089 -0.162872925
vn 0.432166964 0.901385009 -0.0271459017
vn 0.518966913 0.831277728 -0.1991245
vn 0.587591171 0.805149198 0.0804445148
vn 0.340416133 0.92336911 0.177500233
vn 0.0833969787 0.965514064 -0.246632293
vn -0.112644255 0.984658003 -0.133266181
vn 0.114507876 0.932294011 -0.343097538
vn 0.0753463507 0.979425251 -0.187213778
vn 0.139050081 0.979239821 -0.147494137
vn 0.316884816 0.932896495 -0.17113784
vn 0.238191143 0.965113044 0.108728513
vn 0.240229219 0.952996731 0.184627354
vn 0.196809635 0.954200864 0.225314572
vn 0.234514713 0.968918562 -0.0787378401
vn 0.108064994 0.979824901 0.168122277
vn 0.138749838 0.951768875 0.273650289
vn 0.17477867 0.966795385 -0.186438262
vn 0.444806665 0.780000985 -0.440165341
vn 0.251010209 0.925037265 -0.285131276
vn 0.183742046 0.971203148 -0.151668429
vn 0.164277732 0.984317183 -0.0642848313
vn 0.112213701 0.992086589 0.0563232936
vn -0.00342379115 0.984286129 0.176547989
vn 0.131259039 0.98803246 0.0810113251
vn 0.291327357 0.955379546 0.0487684831
vn 0.285464287 0.952858925 0.10281007
vn 0.213239312 0.966974556 -0.139603183
vn 0.246743143 0.964407802 -0.0950544849
vn 0.292180985 0.954421937 -0.0609022081
vn 0.226390377 0.968601286 -0.102756932
vn 0.403697103 0.894056618 -0.194142789
vn 0.313167483 0.943322539 -0.109857909
vn 0.303340137 0.950105965 0.0726865381
vn 0.303493381 0.94922179 0.0828840509
vn 0.21555014 0.976296067 0.0196022894
vn 0.339165837 0.940687597 0.00857211836
vn 0.299519092 0.953739941 -0.0258547906
vn 0.27976495 0.957011759 -0.0765504092
vn 0.376682192 0.921131968 -0.0981143489
vn 0.118944392 0.992890716 0.00451140199
vn 0.350495309 0.927614212 -0.129170373
vn 0.220968693 0.962298512 -0.15860191
vn 0.399864376 0.800248623 -0.446889967
vn 0.2554093 0.906586826 -0.335955977
vn 0.192955136 0.947808325 -0.253826231
vn 0.184010118 0.881347001 -0.435163945
vn 0.119591869 0.90103811 -0.41692695
vn 0.00432587648 0.924913347 -0.380153328
vn 0.0836474374 0.942637861 -0.323166907
vn 0.0295551624 0.952312648 -0.303688973
vn 0.095991604 0.962473929 -0.253829926
vn -0.00937097892 0.976142347 -0.216929138
vn 0.092001617 0.982515693 -0.161860093
vn 0.179453731 0.977510512 -0.110768422
vn 0.155973032 0.975108624 -0.157593355
vn 0.134047627 0.98881197 -0.0654385313
vn -0.0244207997 0.9940148 -0.106481299
vn 0.309405982 0.949463546 -0.0527911745
vn -0.0911001787 0.995504558 -0.0259153675
vn 0.000223482188 0.997606158 -0.0691511258
vn -0.172619358 0.98149991 -0.0828277469
vn -0.250680655 0.954412341 0.162037894
vn -0.208335668 0.956508577 0.204175293
vn -0.088984862 0.995444417 0.034235727
vn -0.0195044614 0.987669051 0.155336648
vn -0.0746662319 0.988820374 0.129071221
vn 0.292163372 0.956340194 0.00734068733
vn 0.417039841 0.908719897 0.0174917653
vn 0.178471878 0.98372978 0.0205783974
vn 0.0279773343 0.999231815 -0.0274412185
vn 0.0802018121 0.995665848 -0.0470881239
vn -0.0763325468 0.995322764 -0.0592108034
vn -0.0171339065 0.990888 -0.133594185
vn -0.0111053623 0.984448969 -0.175319195
vn -0.0753373876 0.972747445 -0.219286963
vn -0.140148237 0.98007822 -0.140730307
vn -0.184524566 0.915729642 -0.356917173
vn -0.23963663 0.967852294 0.0763945952
vn -0.304963201 0.952004194 0.026181601
vn -0.350394368 0.93524605 0.0503851697
vn -0.23688896 0.957745671 0.163115934
vn -0.303581774 0.945617974 0.116811626
vn 0.0206609592 0.999322057 0.0304737333
vn 0.137541011 0.990468442 -0.0073979334
vn 0.199535593 0.9795838 0.0245173797
vn 0.228773803 0.965643823 -0.123266064
vn 0.149078473 0.987627268 -0.0486611873
vn 0.0421243832 0.984883606 -0.168017432
vn -0.0532335192 0.990934134 -0.12335252
vn 0.207215309 0.972444534 0.106833555
vn 0.254902512 0.960153341 0.114587799
vn 0.259205401 0.949386477 0.177420303
vn 0.233903185 0.959663093 0.155999899
vn 0.294514686 0.940392017 0.170070171
vn 0.201542944 0.962130725 0.183534577
vn 0.254971921 0.958313107 0.128938884
vn 0.12779814 0.986118257 0.106011212
vn 0.157552809 0.981697619 0.1069903
vn 0.0910071805 0.992564499 0.0808293372
vn 0.0664803088 0.997768164 -0.00623992924
vn 0.0526768453 0.99352771 0.100637585
vn 0.0419443063 0.995307624 0.0871968418
vn 0.0821091756 0.994834423 0.0596881472
vn 0.0046254904 0.973094285 0.230360895
vn -0.028970113 0.962052584 0.271321952
vn 0.120266102 0.987184823 0.104890928
vn 0.0354023837 0.997127235 -0.0669627339
vn 0.187460095 0.963011146 0.193567291
vn 0.174826667 0.974315286 0.141934454
vn 0.106870621 0.992947221 -0.0513269529
vn 0.0922230482 0.985919595 -0.139489561
vn 0.159226745 0.954825699 -0.25090757
vn 0.125638753 0.980516613 -0.151003748
vn 0.178597972 0.966164887 -0.186086208
vn 0.0414345451 0.981701255 -0.185864672
vn 0.162325904 0.980989039 -0.10635262
vn 0.0204432923 0.999583304 -0.0203770529
vn 0.17577751 0.978613675 -0.106852442
vn 0.0985438153 0.986461818 0.131080568
vn -0.063164331 0.992410302 0.105508856
vn 0.197733298 0.980194569 0.0109554939
vn 0.208088934 0.977573812 0.0323795751
vn 0.175908431 0.965894997 0.190007791
vn 0.245222643 0.887298405 0.390598804
vn 0.215454832 0.848375142 0.483568758
vn 0.0612181313 0.967114747 0.246863425
vn 0.132241502 0.975435317 0.176176518
vn 0.165104672 0.980650604 0.105189398
vn 0.224302188 0.9556548 0.190820098
vn 0.193538129 0.963789701 0.183446169
vn -0.113682851 0.967048049 0.227803156
vn -0.0633288249 0.989843965 0.127273247
vn -0.225110695 0.956443667 0.185850814
vn -0.187946364 0.926479757 0.326054335
vn -0.0149583267 0.940570235 0.339269787
vn -0.0774517506 0.886984587 0.455257744
vn 0.156540692 0.960032463 0.23201865
vn 0.226515263 0.94041729 0.253586441
vn 0.241428941 0.936352491 0.254864633
vn 0.237187803 0.90321964 0.357681781
vn 0.230197936 0.928925693 0.290009975
vn 0.216121018 0.93006742 0.297096431
vn 0.152780935 0.897602439 0.413482636
vn 0.246618956 0.858913839 0.448827505
vn 0.247441411 0.879306436 0.406931192
vn 0.278900623 0.835033774 0.474271119
vn 0.449293584 0.736668348 0.505425572
vn 0.454137415 0.85721004 0.242796361
vn 0.323929399 0.945300579 0.0384251475
vn 0.353864729 0.935115635 -0.0183973815
vn 0.154290572 0.956976593 0.245744005
vn 0.649081051 0.760067403 -0.0314861089
vn 0.705568671 0.703601778 0.0843645707
vn 0.641159356 0.737405241 0.212480739
vn 0.661979616 0.739254832 -0.123633757
vn 0.62796092 0.751690686 -0.201559544
vn 0.67208302 0.717182517 -0.184265167
vn 0.599911451 0.710810363 -0.367225796
vn 0.75993818 0.637659431 -0.126033366
vn 0.541426837 0.840673029 0.0112132784
vn 0.614319324 0.667538762 -0.420718163
vn 0.579951465 0.716365874 -0.387912542
vn 0.538272142 0.667521417 -0.514469028
vn 0.570648491 0.628616393 -0.528395474
vn 0.558535278 0.704693913 -0.437544137
vn 0.55850172 0.806784332 -0.192808107
vn 0.53940773 0.828583539 -0.149962232
vn 0.501340687 0.847791255 -0.172937691
vn 0.559900641 0.813859582 -0.155382931
vn 0.39226222 0.907909811 -0.14775078
vn 0.328207254 0.939431548 -0.0987345353
vn 0.198266104 0.969818294 -0.141926214
vn 0.140494704 0.980286062 -0.138925835
vn 0.188099131 0.969236135 -0.158745557
vn 0.289227992 0.95566833 0.0551842861
vn 0.474561781 0.878120422 -0.0607910305
vn 0.316138655 0.94600749 0.0715972185
vn 0.0995439589 0.898124158 0.428326905
vn 0.52595669 0.850386322 -0.0145862969
vn 0.597744405 0.801455021 0.0192700289
vn 0.513270319 0.827430129 -0.227844313
vn 0.674136937 0.714244068 -0.188135117
vn 0.389906615 0.920567751 -0.0229737628
vn 0.175307721 0.982177496 -0.0677844733
vn 0.296430022 0.913682342 -0.278053582
vn -0.0628863797 0.987152398 -0.146885559
vn 0.0198038407 0.982993245 0.182570294
vn 0.0346374363 0.885663211 0.463034421
vn 0.703368962 0.637064874 -0.31531015
vn 0.744595528 0.582560062 -0.325885475
vn 0.675775409 0.524334311 -0.518074512
vn -0.32247895 0.945637047 -0.0421651192
vn -0.0670287982 0.997745574 -0.00329521787
vn -0.0950717255 0.994833827 0.0355970897
vn 0.00247058738 0.998395026 -0.0565793775
vn 0.0867287517 0.991255283 -0.0994540006
vn 0.558032751 0.772945404 -0.301918715
vn 0.660180092 0.581967592 -0.474843085
vn 0.689401209 0.542875051 -0.479596198
vn 0.632864952 0.636767805 -0.440464169
vn 0.0977852121 0.993499517 -0.0582822077
vn 0.0285821147 0.999454558 0.016544925
vn 0.246107981 0.964430094 -0.096465148
vn -0.159340233 0.878231585 -0.45091024
vn 0.439549625 0.893813252 -0.088848114
vn 0.532132864 0.833435357 -0.149064124
vn 0.352090269 0.932580292 -0.0795396045
vn 0.135239303 0.98769474 -0.0785459653
vn 0.106005996 0.990081489 -0.0922024399
vn 0.192004904 0.980793595 -0.0343233682
vn -0.0384670421 0.997822046 0.0535866469
vn -0.129582405 0.991544843 0.00686591957
vn -0.26876989 0.948609293 -0.167042404
vn -0.0634749234 0.968777776 -0.239667669
vn 0.064839527 0.964848399 -0.254683137
vn 0.0152789364 0.955605388 -0.2942532
vn 0.303535253 0.950420678 -0.0675776824
vn 0.30979529 0.938859999 -0.150228769
vn 0.320277691 0.898687959 -0.299636513
vn 0.357226789 0.931827247 -0.0639297217
vn 0.310953021 0.938531518 -0.149889082
vn 0.199610204 0.951785684 -0.232937068
vn 0.168703541 0.984820127 -0.0408480279
vn 0.0538322181 0.991501331 -0.118436322
vn 0.283638 0.955885053 -0.0763759688
vn 0.223709971 0.9744519 -0.0199334286
vn 0.149993628 0.9861691 0.0705151632
vn 0.228732318 0.959897995 -0.162103027
vn 0.203096047 0.971777081 -0.120005704
vn 0.0467036217 0.99395144 -0.0993952528
vn -0.101549439 0.954999506 -0.278681874
vn 0.200150535 0.952782631 -0.228352889
vn 0.191345736 0.975460947 -0.10891623
vn 0.230532691 0.9719491 -0.0465804823
vn 0.0956092849 0.995194018 0.0211563222
vn 0.142718464 0.988461375 -0.0507513955
vn 0.135955915 0.987067044 -0.084939599
vn 0.127989247 0.96673733 -0.221444324
vn 0.152372077 0.955366194 -0.253097326
vn 0.323164254 0.870903432 -0.370259315
vn 0.127611265 0.987443745 -0.093114391
vn 0.00421028398 0.995159209 -0.0981854945
vn 0.228160515 0.921048462 -0.315614671
vn 0.134881407 0.987702668 0.0790599287
vn 0.132122561 0.983670115 -0.122215316
vn 0.365396261 0.872039557 -0.325626493
vn 0.222695187 0.963154435 -0.150798917
vn 0.266002089 0.95793432 -0.107725471
vn 0.0946998522 0.97116518 -0.218792632
vn 0.0114207407 0.956375539 -0.291916639
vn 0.082946673 0.961286962 -0.262768626
vn -0.0658967495 0.966855884 -0.246672615
vn -0.137707159 0.934535325 -0.328146875
vn -0.124761537 0.939401329 -0.31931141
vn -0.178550482 0.952066004 -0.248374715
vn -0.223739639 0.929078579 -0.29453963
vn -0.00263535371 0.992470741 -0.122453183
vn 0.0620807335 0.996920586 -0.0479112156
vn 0.00528167421 0.999546111 -0.0296591371
vn 0.212128222 0.909556448 0.357363611
vn -0.00954609644 0.985604167 0.168799341
vn -0.0575114638 0.997152686 -0.0487737693
vn -0.129482865 0.991085112 0.0313765407
vn -0.167642206 0.953812659 -0.249273822
vn -0.0754117593 0.9472363 -0.311538845
vn -0.0763222948 0.900315642 -0.428493619
vn 0.0720934421 0.989239693 -0.127308637
vn 0.0595868789 0.919897616 -0.387605101
vn 0.243208349 0.883554876 -0.400225461
vn 0.286539555 0.786355376 -0.547302783
vn 0.376632869 0.92565465 0.0362095684
vn 0.172718182 0.979289532 -0.105642334
vn 0.0492256843 0.991761565 0.118261576
vn 0.126174182 0.989678979 0.0679385439
vn -0.0575396381 0.953146517 0.296986431
vn -0.0728258267 0.996371269 0.0440544896
vn 0.0443708375 0.993702292 -0.102893598
vn 0.107215561 0.988269329 -0.108758956
vn 0.0714012012 0.988470316 -0.133522779
vn -0.00414030114 0.999978065 -0.00518346578
vn -0.125977978 0.987087488 0.0989331678
vn 0.0257584322 0.998700261 -0.0439812727
vn -0.00502116699 0.990281105 -0.138989523
vn 0.0756462663 0.992881417 0.0920010209
vn -0.119940199 0.991291404 -0.0543672964
vn -0.0833085105 0.986739755 -0.139299691
vn -0.0485774539 0.997471333 0.0518758893
vn -0.0301077254 0.998709559 -0.0409010835
vn 0.359002769 0.925125182 0.12353266
vn 0.550188005 0.811647773 -0.196267694
vn 0.260206938 0.952276886 0.159565136
vn 0.279057294 0.95096308 -0.13340272
vn 0.132986456 0.978504419 -0.157618776
vn 0.345499247 0.935933471 0.068255052
vn -0.0120029906 0.972718656 -0.231677175
vn 0.47986418 0.876649559 -0.0348697118
vn 0.557616711 0.796610892 -0.233398214
vn 0.512657583 0.85699147 0.0524191074
vn 0.408505172 0.897370815 0.166880667
vn 0.309977919 0.911578834 0.270069897
vn 0.336102664 0.932315946 0.133498773
vn 0.486865371 0.873301387 0.0175175462
vn 0.62912184 0.767677367 -0.121972263
vn 0.660664618 0.687838912 -0.300666034
vn 0.342600524 0.939219594 -0.0221668873
vn 0.72939533 0.576106966 -0.368894696
vn 0.809750199 0.445471346 -0.381916136
vn 0.80112052 0.434117794 -0.41200453
vn 0.920528531 0.369025648 -0.128246784
vn 0.883271992 0.384500206 -0.268309802
vn 0.964108288 0.253028035 0.0804479122
vn 0.809965134 0.541311502 -0.225695416
vn 0.755200922 0.628869295 -0.184918627
vn 0.801394463 0.598134398 0.00145672658
vn 0.703905702 0.706915081 -0.0691938549
vn 0.694595814 0.719047546 -0.0225224141
vn 0.908711135 0.404414624 0.1034059
vn 0.947408438 0.287103713 0.141381666
vn 0.862306118 0.506172836 -0.0147383362
vn 0.908255637 0.408978701 0.088363871
vn 0.931727171 0.356770337 0.0678194389
vn 0.91126591 0.411768436 -0.00642199302
vn 0.862403452 0.49275583 0.115982413
vn 0.837414086 0.546137452 -0.0217139516
vn 0.90675056 0.416256636 -0.0673327968
vn 0.74513948 0.661214471 0.0869632214
vn 0.82011497 0.521296799 0.235926449
vn 0.742215514 0.664349318 -0.0880685151
vn 0.549798131 0.827983081 -0.110299759
vn 0.57339704 0.815049052 -0.0831310824
vn 0.358925849 0.933358788 0.00368272839
vn 0.644348264 0.664856851 0.377863288
vn 0.548544407 0.692404687 0.468694896
vn 0.467278987 0.881753683 0.0645033047
vn 0.368866593 0.927820742 -0.0555527247
vn 0.397757173 0.91693598 -0.0318995453
vn 0.505027533 0.863006055 -0.0129464744
vn 0.464924186 0.854970872 -0.229935408
vn 0.486834675 0.825140059 0.286593676
vn 0.352937013 0.913995206 0.200120404
vn 0.360838711 0.867597103 -0.342155933
vn 0.433845222 0.77189827 0.464705855
vn 0.477750093 0.698885381 0.532272518
vn 0.366061807 0.735718489 0.569839478
vn 0.421101987 0.898862064 0.121326149
vn 0.410789788 0.852438033 0.323421031
vn 0.395581037 0.775259137 0.49243167
vn 0.344305456 0.735854268 0.583071351
vn 0.506876528 0.682466209 0.52660805
vn 0.474789023 0.831557155 0.288250148
vn 0.419858873 0.792766452 0.441859663
vn 0.414166898 0.865548968 0.281586111
vn 0.351169944 0.667282403 0.656821012
vn 0.27878347 0.724224508 0.630696833
vn 0.311314344 0.554062366 0.772073984
vn 0.594651282 0.521341383 0.612040043
vn 0.55344975 0.556613326 0.619576573
vn 0.513848782 0.681679666 0.520838082
vn 0.51658839 0.528370321 0.673766375
vn 0.466600776 0.739615083 0.485029072
vn 0.386606395 0.795021415 0.467414588
vn 0.422420144 0.896642804 0.132638648
vn 0.273938984 0.853801012 0.442697674
vn 0.284509808 0.870934784 0.400657892
vn 0.166773632 0.878221273 0.44823423
vn 0.265576035 0.78792721 0.555553854
vn 0.355700165 0.800659716 0.482101083
vn 0.414513767 0.627610922 0.65900147
vn 0.354492098 0.771776259 0.527917445
vn 0.308305293 0.898703992 0.311895847
vn 0.421283007 0.797150552 0.432517797
vn 0.319404602 0.914494753 0.248354837
vn 0.440714121 0.810100079 0.386663795
vn 0.152776316 0.967993557 0.199118108
vn 0.00469489535 0.981021523 0.193842322
vn 0.0276081823 0.988141298 0.151045442
vn 0.191806674 0.981423795 0.00419612369
vn 0.320860982 0.940346777 -0.113119856
vn 0.268795848 0.962962806 0.0212465357
vn 0.340036631 0.939387918 -0.0438799746
vn 0.262652367 0.907094121 -0.328928471
vn 0.329269797 0.855284989 -0.400086224
vn 0.34907952 0.806115627 -0.477829516
vn 0.474322736 0.87960726 -0.0361798592
vn 0.270542473 0.92557621 -0.264793336
vn 0.252498776 0.809601068 -0.529896617
vn 0.366370261 0.739136279 -0.565199316
vn 0.225771338 0.889019251 -0.398336619
vn 0.492980808 0.832243562 -0.253654599
vn 0.390359968 0.888297021 -0.241965875
vn 0.275387496 0.868367314 -0.412431687
vn 0.149180055 0.902886152 -0.403164804
vn 0.0823297426 0.78118813 -0.618843317
vn 0.0363498107 0.954028428 -0.29750371
vn -0.000697209442 0.871730804 -0.489984542
vn 0.22935839 0.820640624 -0.523396432
vn 0.251835227 0.875679255 -0.412025273
vn 0.115806296 0.961790502 -0.248088703
vn 0.094545424 0.863472283 -0.495456159
vn 0.232401013 0.901973486 -0.363914192
vn 0.256680936 0.873533189 -0.413587689
vn 0.229617432 0.94573617 -0.229910657
vn -0.302482635 0.942306876 0.143394783
vn -0.0389828607 0.967643619 -0.249291241
vn 0.0930471867 0.934601367 -0.343310922
vn 0.144038543 0.976435244 -0.160707951
vn 0.248749644 0.942697406 -0.222363099
vn 0.136822984 0.925260425 -0.353797466
vn 0.207168356 0.900905609 -0.381379515
vn 0.147539064 0.988711476 -0.0261122491
vn 0.146971762 0.942742884 -0.299391538
vn 0.248952076 0.945899785 -0.208077937
vn 0.158885911 0.888767123 -0.429939896
vn 0.0910798758 0.840495169 -0.534108937
vn 0.151594967 0.95307523 -0.262042969
vn 0.216492504 0.877958238 -0.426989853
vn 0.373699188 0.828415632 -0.417224586
vn 0.178158879 0.859116733 -0.479768544
vn -0.0385850817 0.807023346 -0.589257538
vn 0.298383951 0.87506634 -0.381085157
vn 0.285818428 0.895013392 -0.342430651
vn 0.275652915 0.903973877 -0.326874107
vn 0.371234983 0.899370849 -0.230904281
vn 0.340545088 0.882689297 -0.323865205
vn 0.414435834 0.83626312 -0.359036177
vn 0.259840637 0.965543509 -0.0144453552
vn 0.463879108 0.802560985 -0.37511608
vn 0.376877218 0.871898711 -0.312660068
vn 0.618307292 0.698446929 -0.360372066
vn 0.418493539 0.876633883 -0.237436622
vn 0.386856586 0.921802342 -0.0249475446
vn 0.492523164 0.856499791 -0.154366329
vn 0.395987093 0.88488853 -0.245288342
vn 0.551246047 0.826139092 -0.11671368
vn 0.467962205 0.849493384 -0.243664429
vn 0.542399049 0.819938242 -0.183042139
vn 0.360252708 0.912235081 -0.195051566
vn 0.28541711 0.895824373 -0.340640128
vn 0.22880286 0.962360203 -0.14666982
vn 0.313313454 0.938785613 -0.143234462
vn 0.215835407 0.972894549 -0.0830146447
vn 0.0973197371 0.993252814 -0.0630703643
vn 0.0554485247 0.987130582 -0.149995461
vn -0.0161482617 0.999868155 0.0016966149
vn -0.118060298 0.993002832 0.0026637963
vn -0.206305832 0.97463131 0.0867851004
vn 0.584277749 0.793382585 0.170773402
vn 0.566298306 0.804300129 0.180021182
vn 0.60656786 0.766900599 0.20961608
vn 0.651209176 0.732024372 0.200166866
vn 0.663760126 0.669986546 0.332476258
vn 0.714994729 0.669137716 0.202576324
vn 0.719903827 0.625515699 0.300779998
vn 0.799183965 0.455995679 0.391628414
vn 0.674256086 0.647222698 0.355642378
vn 0.586163104 0.735315502 0.340182275
vn 0.59099406 0.734095871 0.334408849
vn 0.368305355 0.923592865 -0.106430195
vn 0.347156942 0.935057759 -0.0717565715
vn 0.423161328 0.866287172 -0.265482485
vn 0.485399902 0.860186279 -0.156417698
vn 0.516321063 0.837710679 -0.177913994
vn 0.568028986 0.823001742 -0.00336237112
vn 0.567626536 0.820235074 0.0708140656
vn 0.0430509523 0.998957634 0.0151754608
vn 0.0256203674 0.969978392 -0.241837442
vn 0.113957211 0.93873632 -0.325250536
vn 0.071554251 0.93490696 -0.347604632
vn 0.0461256392 0.976223528 -0.211801827
vn -0.0619157478 0.938229978 -0.340427756
vn 0.173904255 0.902225137 -0.394648105
vn -0.0086101573 0.851318657 -0.524578273
vn 0.0211337265 0.989798307 -0.140899628
vn 0.0179477483 0.868642211 -0.495114714
vn 0.114628002 0.762997091 -0.636157215
vn -0.144656003 0.874673247 -0.46262446
vn 0.1481058 0.793562293 -0.590189397
vn 0.00946674496 0.982329667 -0.186919257
vn -0.0253152139 0.999677777 -0.00183185434
vn -0.195509911 0.941162527 -0.275660992
vn 0.284006447 0.743893206 -0.604948878
vn -0.0458738878 0.875949562 -0.480216652
vn -0.11289154 0.730771244 -0.673222721
vn -0.0260707308 0.753784895 -0.656603992
vn -0.0930030122 0.751182675 -0.653509796
vn -0.216476798 0.719339192 -0.66006726
vn -0.188601851 0.830524981 -0.524077952
vt 0.407609254 0.504638255
vt 0.403750569 0.510070264
vt 0.401135653 0.510647237
vt 0.783872485 0.372952998
vt 0.787985802 0.373614907
vt 0.776219726 0.370957971
vt 0.607852221 0.0689462423
vt 0.599596918 0.0771502256
vt 0.62595576 0.0857032537
vt 0.591020823 0.13066262
vt 0.582881451 0.0745518208
vt 0.569850802 0.097209096
vt 0.560658097 0.140166581
vt 0.550878763 0.096378088
vt 0.534658909 0.108724356
vt 0.52741456 0.129593372
vt 0.519416869 0.105894804
vt 0.513930202 0.123957992
vt 0.515019298 0.136929631
vt 0.517096162 0.147901475
vt 0.510591388 0.150132418
vt 0.512765288 0.159775615
vt 0.532128811 0.139278948
vt 0.538767338 0.146994591
vt 0.514498591 0.165978968
vt 0.545814157 0.187562346
vt 0.544029832 0.191474855
vt 0.506853819 0.189381123
vt 0.506529808 0.174043655
vt 0.501029968 0.186106205
vt 0.569014311 0.157089055
vt 0.552754402 0.181231976
vt 0.579126 0.14448458
vt 0.589370131 0.139584005
vt 0.601189256 0.136682987
vt 0.366463572 0.555209279
vt 0.377235562 0.554926634
vt 0.367880166 0.53320682
vt 0.382981062 0.530166388
vt 0.38691622 0.558909714
vt 0.395715773 0.553524554
vt 0.410827667 0.535761952
vt 0.378748804 0.52484113
vt 0.366302788 0.521069407
vt 0.381082177 0.507062614
vt 0.369069576 0.512744606
vt 0.389307082 0.504819095
vt 0.401135653 0.510647237
vt 0.430105835 0.508817792
vt 0.401762575 0.504681945
vt 0.403750569 0.510070264
vt 0.407609254 0.504638255
vt 0.404165953 0.493383288
vt 0.416265965 0.488603115
vt 0.413406461 0.480982304
vt 0.419615954 0.474949956
vt 0.442828834 0.471181631
vt 0.423968762 0.464582562
vt 0.436465234 0.458095551
vt 0.429863364 0.524364591
vt 0.419293791 0.54494375
vt 0.440281749 0.527900338
vt 0.447836131 0.520653963
vt 0.43540439 0.505088449
vt 0.453037113 0.515799463
vt 0.469000936 0.483032346
vt 0.43080014 0.502823174
vt 0.460402608 0.458732724
vt 0.507350445 0.41546464
vt 0.47242555 0.418560147
vt 0.43303284 0.506398857
vt 0.462268233 0.42678827
vt 0.452563077 0.433001041
vt 0.450420797 0.45131731
vt 0.439649969 0.44570899
vt 0.439999372 0.453126371
vt 0.446765929 0.45102334
vt 0.484861553 0.412453055
vt 0.474793047 0.413116038
vt 0.482687205 0.407963753
vt 0.487469673 0.405194104
vt 0.527854443 0.396067858
vt 0.537775517 0.420490265
vt 0.49816063 0.395366132
vt 0.531143308 0.385426462
vt 0.512664974 0.372414887
vt 0.52469945 0.371983171
vt 0.529485822 0.366119504
vt 0.541372061 0.369495034
vt 0.544143081 0.388970315
vt 0.564485371 0.367934823
vt 0.547778249 0.363510787
vt 0.560922265 0.361780047
vt 0.576613724 0.358540058
vt 0.549168229 0.408684492
vt 0.516306102 0.434788287
vt 0.50553602 0.438342273
vt 0.577622294 0.369093776
vt 0.590297461 0.415698171
vt 0.549297571 0.421196938
vt 0.568678379 0.415929914
vt 0.546115041 0.422129989
vt 0.577765942 0.426364005
vt 0.536615729 0.430434585
vt 0.538377881 0.441467226
vt 0.518580794 0.447525799
vt 0.527630806 0.455129445
vt 0.600700736 0.42557478
vt 0.600185633 0.430306375
vt 0.616493464 0.427207947
vt 0.630083799 0.422384381
vt 0.624481916 0.427143335
vt 0.631192267 0.427206278
vt 0.648405731 0.430093169
vt 0.593177676 0.375891149
vt 0.496375084 0.465354979
vt 0.487694114 0.485085934
vt 0.517977715 0.470290422
vt 0.508828163 0.491960764
vt 0.525309086 0.471469045
vt 0.532330394 0.47782743
vt 0.531134963 0.488328099
vt 0.523803234 0.504568338
vt 0.516774058 0.513011336
vt 0.46782127 0.508722961
vt 0.468783647 0.517268896
vt 0.481077373 0.521669507
vt 0.482346624 0.514152884
vt 0.506400168 0.51332438
vt 0.518188715 0.521541953
vt 0.5071311 0.527170539
vt 0.519598603 0.529587865
vt 0.508673906 0.541628778
vt 0.483723789 0.553372681
vt 0.521755278 0.564135909
vt 0.498424917 0.572786331
vt 0.505381107 0.598946691
vt 0.520313025 0.616293848
vt 0.509402037 0.614418328
vt 0.512516379 0.622848928
vt 0.518577814 0.634465754
vt 0.513577819 0.53573662
vt 0.522691011 0.538223803
vt 0.519326687 0.543401003
vt 0.518640637 0.551696539
vt 0.529026389 0.552609622
vt 0.531385064 0.569457293
vt 0.53037101 0.629472852
vt 0.522956848 0.643705368
vt 0.528942347 0.650429845
vt 0.529966593 0.605140209
vt 0.545637429 0.63925612
vt 0.540399551 0.658027411
vt 0.553195357 0.592753112
vt 0.535832047 0.569325209
vt 0.548048854 0.576147377
vt 0.570977092 0.594630599
vt 0.576837599 0.629436314
vt 0.578545213 0.644251466
vt 0.553811431 0.654764295
vt 0.579002261 0.675125003
vt 0.603040874 0.658752084
vt 0.596461415 0.680616856
vt 0.587047815 0.606650829
vt 0.581397891 0.598810494
vt 0.599075794 0.637643516
vt 0.598398566 0.610793352
vt 0.607243061 0.616297007
vt 0.622255921 0.623865902
vt 0.65894258 0.681912184
vt 0.629684567 0.716726542
vt 0.661057711 0.699816465
vt 0.653334498 0.660737276
vt 0.653574467 0.654467821
vt 0.644923449 0.641297281
vt 0.63793242 0.631412327
vt 0.652933598 0.643333197
vt 0.645454407 0.634145081
vt 0.649450302 0.633973718
vt 0.275582433 0.612373054
vt 0.27470839 0.597791135
vt 0.264077485 0.592917085
vt 0.27309826 0.61770314
vt 0.279920757 0.626002371
vt 0.261766076 0.630534053
vt 0.254559934 0.61879009
vt 0.248358473 0.630934119
vt 0.245694771 0.616563618
vt 0.224658921 0.622773767
vt 0.235819921 0.600711107
vt 0.249887317 0.57630223
vt 0.240952522 0.566055
vt 0.223309696 0.570730805
vt 0.211585 0.610562086
vt 0.238808066 0.553034782
vt 0.204008743 0.602225006
vt 0.183690026 0.547018707
vt 0.200550541 0.621315241
vt 0.186057225 0.602408111
vt 0.184394419 0.596761584
vt 0.170023561 0.558948338
vt 0.167456642 0.587216496
vt 0.156482905 0.587355494
vt 0.228693858 0.531323731
vt 0.237381607 0.532138705
vt 0.232092887 0.513759613
vt 0.226511553 0.505322635
vt 0.221608058 0.522543848
vt 0.219742194 0.507344842
vt 0.20837523 0.510507822
vt 0.1861175 0.511859775
vt 0.166560531 0.521235824
vt 0.147757068 0.536319017
vt 0.146577179 0.51546365
vt 0.148375675 0.577316403
vt 0.14046599 0.555813372
vt 0.135062069 0.56943351
vt 0.149907321 0.587549686
vt 0.140552849 0.58772701
vt 0.196838558 0.211845636
vt 0.175622642 0.204934359
vt 0.180273861 0.234701395
vt 0.143737584 0.211003661
vt 0.136063457 0.226009369
vt 0.132726163 0.21991992
vt 0.128466308 0.226396143
vt 0.123999119 0.237695336
vt 0.175077021 0.253297985
vt 0.165408969 0.275202274
vt 0.140063941 0.276759982
vt 0.164158314 0.294183671
vt 0.11463505 0.260622919
vt 0.132050306 0.320262849
vt 0.122961432 0.280584037
vt 0.119104683 0.287083447
vt 0.326623678 0.652106106
vt 0.312979996 0.642868698
vt 0.275076568 0.651221275
vt 0.292724788 0.683941901
vt 0.311177045 0.695607185
vt 0.252911985 0.671250045
vt 0.256315947 0.684488297
vt 0.33788842 0.657673955
vt 0.28230983 0.694076419
vt 0.3593871 0.662943125
vt 0.372731626 0.672315121
vt 0.381915063 0.69235903
vt 0.34918046 0.716033697
vt 0.277490258 0.710353851
vt 0.3483513 0.749999702
vt 0.261465102 0.731779754
vt 0.38211143 0.7119084
vt 0.265780956 0.7394557
vt 0.387266904 0.736191988
vt 0.260793835 0.754590571
vt 0.394675672 0.757969677
vt 0.399430096 0.732128739
vt 0.290204287 0.76422298
vt 0.268029094 0.773025632
vt 0.297638655 0.783899188
vt 0.271869928 0.785274625
vt 0.26986587 0.791312754
vt 0.283792317 0.810201049
vt 0.302171081 0.815745294
vt 0.295893222 0.826699317
vt 0.300522089 0.831518054
vt 0.334020972 0.793283463
vt 0.417700082 0.745047808
vt 0.412475824 0.735160351
vt 0.428275555 0.74025923
vt 0.43959567 0.744765639
vt 0.41915521 0.765949488
vt 0.434022546 0.759754241
vt 0.401207119 0.766630411
vt 0.336987704 0.801196337
vt 0.399528742 0.783952951
vt 0.383336902 0.82619524
vt 0.404372901 0.803154469
vt 0.402320832 0.823661208
vt 0.399056256 0.838487864
vt 0.386699438 0.851140201
vt 0.373153061 0.852475047
vt 0.353223741 0.851674974
vt 0.330576122 0.846054673
vt 0.325155944 0.838322878
vt 0.316160113 0.844009638
vt 0.318486929 0.835652113
vt 0.3047795 0.839983046
vt 0.979593515 0.269215465
vt 0.930182815 0.289417386
vt 0.952829242 0.289822102
vt 0.940963268 0.268033624
vt 0.973693728 0.25225234
vt 0.896889567 0.27574265
vt 0.886866212 0.26711458
vt 0.901706934 0.28394115
vt 0.858036995 0.296646297
vt 0.932320118 0.252328396
vt 0.969200969 0.245122194
vt 0.95217979 0.225472808
vt 0.928213596 0.244283676
vt 0.873703003 0.25824368
vt 0.826716661 0.254351974
vt 0.857346654 0.284657478
vt 0.817397833 0.268460572
vt 0.819573522 0.25104022
vt 0.796594143 0.254324019
vt 0.792591691 0.270581424
vt 0.78342545 0.244644046
vt 0.77665925 0.256495237
vt 0.780463576 0.271200061
vt 0.786059618 0.281069338
vt 0.837690353 0.290682554
vt 0.803906083 0.289302528
vt 0.789471626 0.286747217
vt 0.835124612 0.316329956
vt 0.853024602 0.320839286
vt 0.832505226 0.338440418
vt 0.84856832 0.337400496
vt 0.820877314 0.316629529
vt 0.813157558 0.327553868
vt 0.829132915 0.373761415
vt 0.808751941 0.36372447
vt 0.799481988 0.296300888
vt 0.781877637 0.299047232
vt 0.84704423 0.354462564
vt 0.87896347 0.346200168
vt 0.91559875 0.3770684
vt 0.78877604 0.301294029
vt 0.781373739 0.305372417
vt 0.796036363 0.311052561
vt 0.781674147 0.347332716
vt 0.77046895 0.300371766
vt 0.841192961 0.377351344
vt 0.86377883 0.387650609
vt 0.942057252 0.423572183
vt 0.884936929 0.417360604
vt 0.759817362 0.349514335
vt 0.774561286 0.362180531
vt 0.741375804 0.306322575
vt 0.742192745 0.294389367
vt 0.737113357 0.300514758
vt 0.74404335 0.29049623
vt 0.732426405 0.273101211
vt 0.741672277 0.374527931
vt 0.757075787 0.378302574
vt 0.76920855 0.367491484
vt 0.776219726 0.370957971
vt 0.787985802 0.373614907
vt 0.800803661 0.377422452
vt 0.808304429 0.392705917
vt 0.820866108 0.40301609
vt 0.809077978 0.411251187
vt 0.729650617 0.35264051
vt 0.736665487 0.37876147
vt 0.831954122 0.412702501
vt 0.721488714 0.301656127
vt 0.710678697 0.397843182
vt 0.731287599 0.402082384
vt 0.716664195 0.41645515
vt 0.729130268 0.412564397
vt 0.696550488 0.339428902
vt 0.72083354 0.266872406
vt 0.725171685 0.261745393
vt 0.680919886 0.266846418
vt 0.710615277 0.259765625
vt 0.727310896 0.245434284
vt 0.715032816 0.238316715
vt 0.704169989 0.254027724
vt 0.706407547 0.22089839
vt 0.687727451 0.387012362
vt 0.665282965 0.392268181
vt 0.674012899 0.38255167
vt 0.674282312 0.328034997
vt 0.667227626 0.256293654
vt 0.667086363 0.209023237
vt 0.701585412 0.242114305
vt 0.668534756 0.270348728
vt 0.646276355 0.319835901
vt 0.699896693 0.22655797
vt 0.703348994 0.213946223
vt 0.69618845 0.204042077
vt 0.687790394 0.225222051
vt 0.682704449 0.195801973
vt 0.677216411 0.193752825
vt 0.66815722 0.1947124
vt 0.649044275 0.205629945
vt 0.659955502 0.243465304
vt 0.63801825 0.245240927
vt 0.627650261 0.216274977
vt 0.622195959 0.229427636
vt 0.623245955 0.244686961
vt 0.626750469 0.252653003
vt 0.619130433 0.268566906
vt 0.654936671 0.273837388
vt 0.625838399 0.279536247
vt 0.607836962 0.284549952
vt 0.604662657 0.290206194
vt 0.634479523 0.30945015
vt 0.602063298 0.304148495
vt 0.606781483 0.340336025
vt 0.61310029 0.350575507
vt 0.604145169 0.346990228
vt 0.637114942 0.361958981
vt 0.60458076 0.358881235
vt 0.593627691 0.357962608
vt 0.590959966 0.351470292
vt 0.581280231 0.356132388
vt 0.593221903 0.366331756
vt 0.66595304 0.407813191
vt 0.681204319 0.420837641
vt 0.649152517 0.424208999
vt 0.669752359 0.427825689
vt 0.670886993 0.435775518
vt 0.709444642 0.445307136
vt 0.761625051 0.464967728
vt 0.774577618 0.441268027
vt 0.747185469 0.420557082
vt 0.800227046 0.426794112
vt 0.77782464 0.421864271
vt 0.795756578 0.454970241
vt 0.811321259 0.439560294
vt 0.809642196 0.42756319
vt 0.80521965 0.450010657
vt 0.819603443 0.441393256
vt 0.803595185 0.461743236
vt 0.809018016 0.46198082
vt 0.828006864 0.479778647
vt 0.791524649 0.493276298
vt 0.823118448 0.433933079
vt 0.828928351 0.445350766
vt 0.820273519 0.428551972
vt 0.836521268 0.442557693
vt 0.866986394 0.426237106
vt 0.853843212 0.463851452
vt 0.846131086 0.470117867
vt 0.82854414 0.461658239
vt 0.846899629 0.493966818
vt 0.882214069 0.497213244
vt 0.889198542 0.443793654
vt 0.889729261 0.431791544
vt 0.808879733 0.502639413
vt 0.945563316 0.437548757
vt 0.974767089 0.437240124
vt 0.990478516 0.418040395
vt 0.981658936 0.456672788
vt 0.996275663 0.440894961
vt 0.997794628 0.481984019
vt 0.96858716 0.449073195
vt 0.941988587 0.450745106
vt 0.955731153 0.471773386
vt 0.911683679 0.464507461
vt 0.907104015 0.489371777
vt 0.978986859 0.481662989
vt 0.994636655 0.50989759
vt 0.973728418 0.468200564
vt 0.977503896 0.526114345
vt 0.991253257 0.542832196
vt 0.96658504 0.555511117
vt 0.943617702 0.506700158
vt 0.930850625 0.513540983
vt 0.93973887 0.560864925
vt 0.911413789 0.55599457
vt 0.917918205 0.56573844
vt 0.904021502 0.505368114
vt 0.895893574 0.508451879
vt 0.896503329 0.529191136
vt 0.86329937 0.512418747
vt 0.911577702 0.564865828
vt 0.907456756 0.576012552
vt 0.888699889 0.550756812
vt 0.827066779 0.523038745
vt 0.836179256 0.548409045
vt 0.80490613 0.554835081
vt 0.790844321 0.513177156
vt 0.88752389 0.561965346
vt 0.874716043 0.561055124
vt 0.778402925 0.503275514
vt 0.878577709 0.586870492
vt 0.885903955 0.599130332
vt 0.882053971 0.608956039
vt 0.839709401 0.564442635
vt 0.850199819 0.579369247
vt 0.858988643 0.59533143
vt 0.870215416 0.61251688
vt 0.831472278 0.606346369
vt 0.802590489 0.588985562
vt 0.799855113 0.600511074
vt 0.769415617 0.571024656
vt 0.856397748 0.607939839
vt 0.861773729 0.614748895
vt 0.851277947 0.616522372
vt 0.835376143 0.616689563
vt 0.830994248 0.624510527
vt 0.807064295 0.627642035
vt 0.819178581 0.635232568
vt 0.805116057 0.656460881
vt 0.779015899 0.664890409
vt 0.767512798 0.562028408
vt 0.779766679 0.621973753
vt 0.758562803 0.638600886
vt 0.761065125 0.616521418
vt 0.76762414 0.604768276
vt 0.751442552 0.590530515
vt 0.729165435 0.604415476
vt 0.724874973 0.598676801
vt 0.73123765 0.575725913
vt 0.716921806 0.584821403
vt 0.720358253 0.570338726
vt 0.711619973 0.584311247
vt 0.710641503 0.569815516
vt 0.703885674 0.571102381
vt 0.693383336 0.551720262
vt 0.701003551 0.544110775
vt 0.693217874 0.537403584
vt 0.721311569 0.555814803
vt 0.759112239 0.544444382
vt 0.706184983 0.525902808
vt 0.687695503 0.522564054
vt 0.691922069 0.515173078
vt 0.76936245 0.547469497
vt 0.749499321 0.527352452
vt 0.697362423 0.506347775
vt 0.688590765 0.507487416
vt 0.682928324 0.484856844
vt 0.776852489 0.527117729
vt 0.763081074 0.531883717
vt 0.752391458 0.513276398
vt 0.747919679 0.479635835
vt 0.716686368 0.484983802
vt 0.732356071 0.464038134
vt 0.725835204 0.476006627
vt 0.706024528 0.479259372
vt 0.677303076 0.476881266
vt 0.716537714 0.461721361
vt 0.716211319 0.472839594
vt 0.702417612 0.462619424
vt 0.673261523 0.462514758
vt 0.709017158 0.456069171
vt 0.351459682 0.183353782
vt 0.337877959 0.200940013
vt 0.344752669 0.211673379
vt 0.358040869 0.19088304
vt 0.385941535 0.20196259
vt 0.339690208 0.221890807
vt 0.368696898 0.234276354
vt 0.350814253 0.177437305
vt 0.344434708 0.227370977
vt 0.36146909 0.172202289
vt 0.338079512 0.239218056
vt 0.342053711 0.254476786
vt 0.420971036 0.146941066
vt 0.367607594 0.160383224
vt 0.360495329 0.160682201
vt 0.349849761 0.257128119
vt 0.365080953 0.148338139
vt 0.376360863 0.243703306
vt 0.354703516 0.271904051
vt 0.375400782 0.232002139
vt 0.404546082 0.22148031
vt 0.377862424 0.270399392
vt 0.367876291 0.306244493
vt 0.426661491 0.174974442
vt 0.41840288 0.2439273
vt 0.41790989 0.255778015
vt 0.420377105 0.237540901
vt 0.415654987 0.288086891
vt 0.425605595 0.2226969
vt 0.399812371 0.303121984
vt 0.412067235 0.293900311
vt 0.409592479 0.317023337
vt 0.362114251 0.312597632
vt 0.399272978 0.33166492
vt 0.374392986 0.347456872
vt 0.384968996 0.352432907
vt 0.379711092 0.369122803
vt 0.357034385 0.332326353
vt 0.358498394 0.367627501
vt 0.341989577 0.355244637
vt 0.346138954 0.334743857
vt 0.343280613 0.370782197
vt 0.335754722 0.363561749
vt 0.337152153 0.37099427
vt 0.858036995 0.296646297
vt 0.853024602 0.320839286
vt 0.871430159 0.319354892
vt 0.901706934 0.28394115
vt 0.889005065 0.313518524
vt 0.913913846 0.30042845
vt 0.930182815 0.289417386
vt 0.925301671 0.299612403
vt 0.932177544 0.295723677
vt 0.942420959 0.293998301
vt 0.952829242 0.289822102
vt 0.424206376 0.215762794
vt 0.429770112 0.217779517
vt 0.432896942 0.205243289
vt 0.424396932 0.197553277
vt 0.437284559 0.192996383
vt 0.43016243 0.184911966
vt 0.438022017 0.182372928
vt 0.433259189 0.166264057
vt 0.431874007 0.150784969
vt 0.431161195 0.142064035
vt 0.408976883 0.133620262
vt 0.419692785 0.128362298
vt 0.418646067 0.118962288
vt 0.397387505 0.138744533
vt 0.398855299 0.126191139
vt 0.393473923 0.11465466
vt 0.381770968 0.14403224
vt 0.394311637 0.13127923
vt 0.392222404 0.122757912
vt 0.382589817 0.125737786
vt 0.386839867 0.120249033
vt 0.388572216 0.109244108
vt 0.380223393 0.114908576
vt 0.379819512 0.135112286
vt 0.379039973 0.122175932
vt 0.363180399 0.128872275
vt 0.352695584 0.136622548
vt 0.355395526 0.122646689
vt 0.368917942 0.124068379
vt 0.364572942 0.114124894
g submesh0
f 1/1/1 2/2/2 3/3/3
f 4/4/4 5/5/5 6/6/6
f 7/7/7 8/8/8 9/9/9
f 8/8/8 10/10/10 9/9/9
f 10/10/10 8/8/8 11/11/11
f 12/12/12 10/10/10 11/11/11
f 13/13/13 10/10/10 12/12/12
f 12/12/12 14/14/14 13/13/13
f 13/13/13 14/14/14 15/15/15
f 13/13/13 15/15/15 16/16/16
f 17/17/17 16/16/16 15/15/15
f 16/16/16 17/17/17 18/18/18
f 18/18/18 19/19/19 16/16/16
f 19/19/19 20/20/20 16/16/16
f 21/21/21 20/20/20 19/19/19
f 22/22/22 20/20/20 21/21/21
f 16/16/16 20/20/20 23/23/23
f 23/23/23 13/13/13 16/16/16
f 22/22/22 24/24/24 20/20/20
f 20/20/20 24/24/24 23/23/23
f 23/23/23 24/24/24 13/13/13
f 22/22/22 25/25/25 24/24/24
f 24/24/24 25/25/25 13/13/13
f 25/25/25 26/26/26 13/13/13
f 26/26/26 25/25/25 27/27/27
f 27/27/27 25/25/25 28/28/28
f 25/25/25 29/29/29 28/28/28
f 28/28/28 29/29/29 30/30/30
f 31/31/31 13/13/13 32/32/32
f 31/31/31 33/33/33 13/13/13
f 10/10/10 13/13/13 33/33/33
f 34/34/34 10/10/10 33/33/33
f 34/34/34 35/35/35 10/10/10
f 36/36/36 37/37/37 38/38/38
f 38/38/38 37/37/37 39/39/39
f 39/39/39 37/37/37 40/40/40
f 40/40/40 41/41/41 39/39/39
f 39/39/39 41/41/41 42/42/42
f 43/43/43 38/38/38 39/39/39
f 38/38/38 43/43/43 44/44/44
f 43/43/43 45/45/45 44/44/44
f 46/46/46 44/44/44 45/45/45
f 47/47/47 45/45/45 43/43/43
f 39/39/39 47/47/47 43/43/43
f 39/39/39 42/42/42 47/47/47
f 47/47/47 42/42/42 48/48/48
f 49/49/49 48/48/48 42/42/42
f 48/48/48 50/50/50 47/47/47
f 51/51/51 50/50/50 48/48/48
f 51/51/51 52/52/52 50/50/50
f 49/49/49 52/52/52 48/48/48
f 53/53/53 50/50/50 52/52/52
f 52/52/52 54/54/54 53/53/53
f 52/52/52 49/49/49 54/54/54
f 53/53/53 54/54/54 55/55/55
f 55/55/55 54/54/54 56/56/56
f 56/56/56 54/54/54 57/57/57
f 57/57/57 58/58/58 56/56/56
f 59/59/59 58/58/58 57/57/57
f 49/49/49 42/42/42 60/60/60
f 60/60/60 42/42/42 61/61/61
f 61/61/61 62/62/62 60/60/60
f 62/62/62 63/63/63 60/60/60
f 60/60/60 63/63/63 64/64/64
f 49/49/49 60/60/60 64/64/64
f 63/63/63 65/65/65 64/64/64
f 66/66/66 64/64/64 65/65/65
f 67/67/67 54/54/54 49/49/49
f 57/57/57 54/54/54 67/67/67
f 67/67/67 64/64/64 66/66/66
f 67/67/67 68/68/68 57/57/57
f 68/68/68 67/67/67 66/66/66
f 69/69/69 68/68/68 66/66/66
f 68/68/68 69/69/69 70/70/70
f 71/71/71 67/67/67 49/49/49
f 71/71/71 64/64/64 67/67/67
f 71/71/71 49/49/49 64/64/64
f 72/72/72 68/68/68 70/70/70
f 72/72/72 73/73/73 68/68/68
f 68/68/68 74/74/74 57/57/57
f 68/68/68 73/73/73 74/74/74
f 74/74/74 59/59/59 57/57/57
f 74/74/74 73/73/73 75/75/75
f 76/76/76 59/59/59 74/74/74
f 74/74/74 75/75/75 77/77/77
f 74/74/74 77/77/77 76/76/76
f 77/77/77 75/75/75 76/76/76
f 69/69/69 78/78/78 70/70/70
f 70/70/70 78/78/78 79/79/79
f 80/80/80 79/79/79 78/78/78
f 78/78/78 81/81/81 80/80/80
f 69/69/69 81/81/81 78/78/78
f 69/69/69 82/82/82 81/81/81
f 82/82/82 69/69/69 83/83/83
f 82/82/82 84/84/84 81/81/81
f 84/84/84 82/82/82 85/85/85
f 86/86/86 84/84/84 85/85/85
f 87/87/87 86/86/86 85/85/85
f 85/85/85 88/88/88 87/87/87
f 85/85/85 89/89/89 88/88/88
f 90/90/90 85/85/85 82/82/82
f 90/90/90 89/89/89 85/85/85
f 90/90/90 82/82/82 83/83/83
f 90/90/90 91/91/91 89/89/89
f 89/89/89 91/91/91 92/92/92
f 92/92/92 91/91/91 93/93/93
f 94/94/94 93/93/93 91/91/91
f 90/90/90 83/83/83 95/95/95
f 90/90/90 95/95/95 91/91/91
f 83/83/83 69/69/69 96/96/96
f 69/69/69 97/97/97 96/96/96
f 97/97/97 69/69/69 66/66/66
f 91/91/91 98/98/98 94/94/94
f 91/91/91 95/95/95 99/99/99
f 91/91/91 99/99/99 98/98/98
f 83/83/83 100/100/100 95/95/95
f 100/100/100 101/101/101 95/95/95
f 95/95/95 101/101/101 99/99/99
f 100/100/100 83/83/83 102/102/102
f 103/103/103 99/99/99 101/101/101
f 83/83/83 104/104/104 102/102/102
f 83/83/83 96/96/96 104/104/104
f 105/105/105 102/102/102 104/104/104
f 104/104/104 96/96/96 105/105/105
f 105/105/105 96/96/96 106/106/106
f 105/105/105 106/106/106 107/107/107
f 97/97/97 106/106/106 96/96/96
f 108/108/108 99/99/99 103/103/103
f 103/103/103 109/109/109 108/108/108
f 109/109/109 110/110/110 108/108/108
f 108/108/108 110/110/110 111/111/111
f 111/111/111 110/110/110 112/112/112
f 112/112/112 113/113/113 111/111/111
f 111/111/111 113/113/113 114/114/114
f 115/115/115 99/99/99 108/108/108
f 108/108/108 111/111/111 115/115/115
f 98/98/98 99/99/99 115/115/115
f 106/106/106 97/97/97 116/116/116
f 107/107/107 106/106/106 116/116/116
f 116/116/116 97/97/97 117/117/117
f 66/66/66 117/117/117 97/97/97
f 118/118/118 107/107/107 116/116/116
f 118/118/118 116/116/116 117/117/117
f 118/118/118 117/117/117 119/119/119
f 118/118/118 120/120/120 107/107/107
f 107/107/107 120/120/120 121/121/121
f 120/120/120 118/118/118 121/121/121
f 119/119/119 121/121/121 118/118/118
f 121/121/121 119/119/119 122/122/122
f 122/122/122 119/119/119 123/123/123
f 119/119/119 124/124/124 123/123/123
f 125/125/125 117/117/117 66/66/66
f 66/66/66 65/65/65 125/125/125
f 125/125/125 65/65/65 126/126/126
f 126/126/126 127/127/127 125/125/125
f 128/128/128 117/117/117 125/125/125
f 117/117/117 128/128/128 119/119/119
f 128/128/128 125/125/125 127/127/127
f 124/124/124 119/119/119 129/129/129
f 128/128/128 129/129/129 119/119/119
f 127/127/127 129/129/129 128/128/128
f 130/130/130 124/124/124 129/129/129
f 130/130/130 129/129/129 131/131/131
f 127/127/127 131/131/131 129/129/129
f 130/130/130 131/131/131 132/132/132
f 133/133/133 131/131/131 127/127/127
f 133/133/133 127/127/127 134/134/134
f 133/133/133 134/134/134 135/135/135
f 134/134/134 136/136/136 135/135/135
f 135/135/135 136/136/136 137/137/137
f 137/137/137 138/138/138 135/135/135
f 138/138/138 137/137/137 139/139/139
f 138/138/138 139/139/139 140/140/140
f 138/138/138 140/140/140 141/141/141
f 142/142/142 132/132/132 131/131/131
f 142/142/142 131/131/131 133/133/133
f 132/132/132 142/142/142 143/143/143
f 144/144/144 143/143/143 142/142/142
f 144/144/144 142/142/142 133/133/133
f 144/144/144 133/133/133 145/145/145
f 145/145/145 133/133/133 135/135/135
f 146/146/146 144/144/144 145/145/145
f 146/146/146 145/145/145 135/135/135
f 146/146/146 135/135/135 147/147/147
f 138/138/138 147/147/147 135/135/135
f 141/141/141 148/148/148 138/138/138
f 141/141/141 149/149/149 148/148/148
f 149/149/149 150/150/150 148/148/148
f 138/138/138 151/151/151 147/147/147
f 151/151/151 138/138/138 148/148/148
f 150/150/150 152/152/152 148/148/148
f 148/148/148 152/152/152 151/151/151
f 150/150/150 153/153/153 152/152/152
f 154/154/154 147/147/147 151/151/151
f 155/155/155 147/147/147 154/154/154
f 156/156/156 155/155/155 154/154/154
f 156/156/156 154/154/154 157/157/157
f 158/158/158 154/154/154 151/151/151
f 151/151/151 152/152/152 158/158/158
f 154/154/154 158/158/158 157/157/157
f 153/153/153 159/159/159 152/152/152
f 152/152/152 159/159/159 158/158/158
f 159/159/159 153/153/153 160/160/160
f 159/159/159 160/160/160 161/161/161
f 162/162/162 159/159/159 161/161/161
f 161/161/161 163/163/163 162/162/162
f 158/158/158 164/164/164 157/157/157
f 165/165/165 157/157/157 164/164/164
f 166/166/166 158/158/158 159/159/159
f 166/166/166 164/164/164 158/158/158
f 162/162/162 166/166/166 159/159/159
f 164/164/164 166/166/166 167/167/167
f 166/166/166 168/168/168 167/167/167
f 169/169/169 168/168/168 166/166/166
f 169/169/169 166/166/166 162/162/162
f 170/170/170 162/162/162 163/163/163
f 163/163/163 171/171/171 170/170/170
f 172/172/172 170/170/170 171/171/171
f 173/173/173 162/162/162 170/170/170
f 174/174/174 162/162/162 173/173/173
f 169/169/169 162/162/162 174/174/174
f 169/169/169 174/174/174 175/175/175
f 176/176/176 169/169/169 175/175/175
f 177/177/177 175/175/175 174/174/174
f 175/175/175 178/178/178 176/176/176
f 177/177/177 179/179/179 175/175/175
f 178/178/178 175/175/175 179/179/179
f 180/180/180 181/181/181 182/182/182
f 182/182/182 183/183/183 180/180/180
f 183/183/183 184/184/184 180/180/180
f 184/184/184 183/183/183 185/185/185
f 186/186/186 185/185/185 183/183/183
f 186/186/186 183/183/183 182/182/182
f 185/185/185 186/186/186 187/187/187
f 188/188/188 187/187/187 186/186/186
f 186/186/186 182/182/182 188/188/188
f 187/187/187 188/188/188 189/189/189
f 190/190/190 188/188/188 182/182/182
f 190/190/190 189/189/189 188/188/188
f 191/191/191 190/190/190 182/182/182
f 190/190/190 191/191/191 192/192/192
f 193/193/193 190/190/190 192/192/192
f 189/189/189 190/190/190 194/194/194
f 194/194/194 190/190/190 193/193/193
f 193/193/193 192/192/192 195/195/195
f 194/194/194 193/193/193 196/196/196
f 196/196/196 193/193/193 197/197/197
f 194/194/194 196/196/196 198/198/198
f 198/198/198 196/196/196 199/199/199
f 199/199/199 196/196/196 200/200/200
f 201/201/201 200/200/200 196/196/196
f 201/201/201 196/196/196 197/197/197
f 202/202/202 200/200/200 201/201/201
f 201/201/201 203/203/203 202/202/202
f 193/193/193 195/195/195 204/204/204
f 204/204/204 195/195/195 205/205/205
f 204/204/204 205/205/205 206/206/206
f 207/207/207 204/204/204 206/206/206
f 208/208/208 193/193/193 204/204/204
f 207/207/207 208/208/208 204/204/204
f 197/197/197 193/193/193 208/208/208
f 209/209/209 208/208/208 207/207/207
f 209/209/209 210/210/210 208/208/208
f 210/210/210 197/197/197 208/208/208
f 197/197/197 210/210/210 211/211/211
f 197/197/197 211/211/211 212/212/212
f 197/197/197 212/212/212 213/213/213
f 201/201/201 197/197/197 213/213/213
f 213/213/213 212/212/212 214/214/214
f 213/213/213 215/215/215 201/201/201
f 216/216/216 215/215/215 213/213/213
f 201/201/201 215/215/215 203/203/203
f 215/215/215 216/216/216 217/217/217
f 215/215/215 218/218/218 203/203/203
f 219/219/219 215/215/215 217/217/217
f 219/219/219 218/218/218 215/215/215
f 220/220/220 221/221/221 222/222/222
f 223/223/223 222/222/222 221/221/221
f 224/224/224 222/222/222 223/223/223
f 224/224/224 223/223/223 225/225/225
f 225/225/225 226/226/226 224/224/224
f 226/226/226 227/227/227 224/224/224
f 222/222/222 224/224/224 227/227/227
f 227/227/227 228/228/228 222/222/222
f 229/229/229 228/228/228 227/227/227
f 229/229/229 227/227/227 230/230/230
f 229/229/229 230/230/230 231/231/231
f 227/227/227 232/232/232 230/230/230
f 233/233/233 231/231/231 230/230/230
f 230/230/230 232/232/232 234/234/234
f 230/230/230 235/235/235 233/233/233
f 230/230/230 234/234/234 235/235/235
f 236/236/236 237/237/237 238/238/238
f 239/239/239 236/236/236 238/238/238
f 240/240/240 236/236/236 239/239/239
f 241/241/241 239/239/239 238/238/238
f 241/241/241 242/242/242 239/239/239
f 243/243/243 236/236/236 240/240/240
f 244/244/244 239/239/239 242/242/242
f 239/239/239 244/244/244 240/240/240
f 245/245/245 243/243/243 240/240/240
f 240/240/240 246/246/246 245/245/245
f 247/247/247 246/246/246 240/240/240
f 240/240/240 244/244/244 248/248/248
f 240/240/240 248/248/248 247/247/247
f 248/248/248 244/244/244 249/249/249
f 250/250/250 248/248/248 249/249/249
f 251/251/251 250/250/250 249/249/249
f 247/247/247 248/248/248 252/252/252
f 252/252/252 248/248/248 250/250/250
f 250/250/250 251/251/251 253/253/253
f 254/254/254 252/252/252 250/250/250
f 253/253/253 255/255/255 250/250/250
f 254/254/254 250/250/250 256/256/256
f 257/257/257 254/254/254 256/256/256
f 255/255/255 258/258/258 250/250/250
f 256/256/256 250/250/250 258/258/258
f 259/259/259 258/258/258 255/255/255
f 258/258/258 259/259/259 260/260/260
f 260/260/260 259/259/259 261/261/261
f 261/261/261 262/262/262 260/260/260
f 262/262/262 263/263/263 260/260/260
f 263/263/263 264/264/264 260/260/260
f 263/263/263 265/265/265 264/264/264
f 266/266/266 264/264/264 265/265/265
f 258/258/258 260/260/260 267/267/267
f 256/256/256 258/258/258 267/267/267
f 264/264/264 267/267/267 260/260/260
f 257/257/257 256/256/256 268/268/268
f 268/268/268 269/269/269 257/257/257
f 268/268/268 270/270/270 269/269/269
f 271/271/271 270/270/270 268/268/268
f 271/271/271 268/268/268 272/272/272
f 272/272/272 273/273/273 271/271/271
f 268/268/268 274/274/274 272/272/272
f 256/256/256 274/274/274 268/268/268
f 256/256/256 267/267/267 274/274/274
f 275/275/275 274/274/274 267/267/267
f 275/275/275 267/267/267 264/264/264
f 275/275/275 276/276/276 274/274/274
f 276/276/276 275/275/275 277/277/277
f 276/276/276 277/277/277 278/278/278
f 277/277/277 279/279/279 278/278/278
f 277/277/277 280/280/280 279/279/279
f 280/280/280 277/277/277 281/281/281
f 277/277/277 282/282/282 281/281/281
f 282/282/282 277/277/277 283/283/283
f 277/277/277 284/284/284 283/283/283
f 285/285/285 277/277/277 275/275/275
f 284/284/284 277/277/277 285/285/285
f 275/275/275 264/264/264 285/285/285
f 285/285/285 286/286/286 284/284/284
f 285/285/285 264/264/264 287/287/287
f 286/286/286 285/285/285 287/287/287
f 264/264/264 266/266/266 287/287/287
f 288/288/288 286/286/286 287/287/287
f 288/288/288 287/287/287 266/266/266
f 289/289/289 290/290/290 291/291/291
f 290/290/290 289/289/289 292/292/292
f 292/292/292 289/289/289 293/293/293
f 294/294/294 290/290/290 292/292/292
f 295/295/295 294/294/294 292/292/292
f 290/290/290 294/294/294 296/296/296
f 296/296/296 294/294/294 297/297/297
f 293/293/293 298/298/298 292/292/292
f 295/295/295 292/292/292 298/298/298
f 293/293/293 299/299/299 298/298/298
f 299/299/299 300/300/300 298/298/298
f 298/298/298 300/300/300 301/301/301
f 301/301/301 295/295/295 298/298/298
f 302/302/302 295/295/295 301/301/301
f 295/295/295 302/302/302 303/303/303
f 295/295/295 304/304/304 294/294/294
f 304/304/304 297/297/297 294/294/294
f 305/305/305 295/295/295 303/303/303
f 305/305/305 304/304/304 295/295/295
f 306/306/306 305/305/305 303/303/303
f 307/307/307 305/305/305 306/306/306
f 307/307/307 308/308/308 305/305/305
f 308/308/308 307/307/307 309/309/309
f 310/310/310 308/308/308 309/309/309
f 308/308/308 310/310/310 311/311/311
f 312/312/312 308/308/308 311/311/311
f 313/313/313 304/304/304 305/305/305
f 313/313/313 297/297/297 304/304/304
f 308/308/308 313/313/313 305/305/305
f 314/314/314 308/308/308 312/312/312
f 314/314/314 313/313/313 308/308/308
f 314/314/314 312/312/312 315/315/315
f 297/297/297 313/313/313 316/316/316
f 316/316/316 317/317/317 297/297/297
f 317/317/317 316/316/316 318/318/318
f 318/318/318 319/319/319 317/317/317
f 313/313/313 320/320/320 316/316/316
f 313/313/313 314/314/314 320/320/320
f 318/318/318 316/316/316 320/320/320
f 320/320/320 314/314/314 321/321/321
f 321/321/321 318/318/318 320/320/320
f 318/318/318 321/321/321 322/322/322
f 323/323/323 322/322/322 321/321/321
f 315/315/315 324/324/324 314/314/314
f 321/321/321 314/314/314 324/324/324
f 325/325/325 324/324/324 315/315/315
f 326/326/326 319/319/319 318/318/318
f 326/326/326 327/327/327 319/319/319
f 328/328/328 327/327/327 326/326/326
f 329/329/329 324/324/324 325/325/325
f 329/329/329 325/325/325 330/330/330
f 329/329/329 330/330/330 324/324/324
f 324/324/324 331/331/331 321/321/321
f 330/330/330 331/331/331 324/324/324
f 331/331/331 332/332/332 321/321/321
f 331/331/331 330/330/330 332/332/332
f 323/323/323 321/321/321 332/332/332
f 330/330/330 333/333/333 332/332/332
f 326/326/326 318/318/318 334/334/334
f 322/322/322 334/334/334 318/318/318
f 328/328/328 326/326/326 335/335/335
f 334/334/334 335/335/335 326/326/326
f 335/335/335 336/336/336 328/328/328
f 335/335/335 334/334/334 337/337/337
f 334/334/334 322/322/322 337/337/337
f 336/336/336 335/335/335 337/337/337
f 338/338/338 332/332/332 333/333/333
f 339/339/339 323/323/323 332/332/332
f 332/332/332 338/338/338 339/339/339
f 338/338/338 333/333/333 340/340/340
f 341/341/341 340/340/340 333/333/333
f 342/342/342 340/340/340 341/341/341
f 342/342/342 341/341/341 343/343/343
f 342/342/342 343/343/343 344/344/344
f 338/338/338 340/340/340 345/345/345
f 340/340/340 342/342/342 345/345/345
f 345/345/345 346/346/346 338/338/338
f 338/338/338 346/346/346 347/347/347
f 338/338/338 347/347/347 339/339/339
f 348/348/348 339/339/339 347/347/347
f 339/339/339 348/348/348 349/349/349
f 349/349/349 323/323/323 339/339/339
f 349/349/349 350/350/350 323/323/323
f 323/323/323 350/350/350 351/351/351
f 351/351/351 352/352/352 323/323/323
f 352/352/352 351/351/351 353/353/353
f 322/322/322 323/323/323 352/352/352
f 342/342/342 354/354/354 345/345/345
f 354/354/354 355/355/355 345/345/345
f 356/356/356 352/352/352 353/353/353
f 322/322/322 352/352/352 356/356/356
f 354/354/354 342/342/342 357/357/357
f 357/357/357 342/342/342 344/344/344
f 354/354/354 358/358/358 355/355/355
f 359/359/359 355/355/355 358/358/358
f 360/360/360 359/359/359 358/358/358
f 359/359/359 360/360/360 361/361/361
f 354/354/354 362/362/362 358/358/358
f 362/362/362 354/354/354 357/357/357
f 357/357/357 344/344/344 363/363/363
f 344/344/344 364/364/364 363/363/363
f 365/365/365 357/357/357 363/363/363
f 357/357/357 365/365/365 362/362/362
f 364/364/364 366/366/366 363/363/363
f 363/363/363 366/366/366 365/365/365
f 364/364/364 367/367/367 366/366/366
f 367/367/367 368/368/368 366/366/366
f 369/369/369 366/366/366 368/368/368
f 368/368/368 370/370/370 369/369/369
f 360/360/360 358/358/358 371/371/371
f 362/362/362 371/371/371 358/358/358
f 360/360/360 371/371/371 372/372/372
f 371/371/371 362/362/362 373/373/373
f 372/372/372 371/371/371 373/373/373
f 365/365/365 374/374/374 362/362/362
f 374/374/374 373/373/373 362/362/362
f 375/375/375 365/365/365 366/366/366
f 375/375/375 366/366/366 369/369/369
f 376/376/376 375/375/375 369/369/369
f 377/377/377 376/376/376 369/369/369
f 369/369/369 370/370/370 377/377/377
f 374/374/374 365/365/365 378/378/378
f 365/365/365 375/375/375 378/378/378
f 374/374/374 379/379/379 373/373/373
f 379/379/379 374/374/374 378/378/378
f 377/377/377 370/370/370 380/380/380
f 381/381/381 380/380/380 370/370/370
f 381/381/381 382/382/382 380/380/380
f 377/377/377 380/380/380 383/383/383
f 380/380/380 382/382/382 383/383/383
f 377/377/377 383/383/383 376/376/376
f 384/384/384 383/383/383 382/382/382
f 384/384/384 376/376/376 383/383/383
f 376/376/376 384/384/384 385/385/385
f 385/385/385 386/386/386 376/376/376
f 387/387/387 376/376/376 386/386/386
f 376/376/376 388/388/388 375/375/375
f 376/376/376 387/387/387 388/388/388
f 389/389/389 388/388/388 387/387/387
f 387/387/387 390/390/390 389/389/389
f 390/390/390 391/391/391 389/389/389
f 392/392/392 389/389/389 391/391/391
f 389/389/389 392/392/392 393/393/393
f 393/393/393 394/394/394 389/389/389
f 395/395/395 375/375/375 388/388/388
f 388/388/388 389/389/389 395/395/395
f 395/395/395 389/389/389 394/394/394
f 395/395/395 378/378/378 375/375/375
f 395/395/395 394/394/394 396/396/396
f 394/394/394 397/397/397 396/396/396
f 398/398/398 396/396/396 397/397/397
f 395/395/395 399/399/399 378/378/378
f 395/395/395 396/396/396 399/399/399
f 399/399/399 396/396/396 398/398/398
f 398/398/398 400/400/400 399/399/399
f 378/378/378 399/399/399 379/379/379
f 399/399/399 400/400/400 401/401/401
f 401/401/401 379/379/379 399/399/399
f 402/402/402 379/379/379 401/401/401
f 401/401/401 403/403/403 402/402/402
f 379/379/379 402/402/402 404/404/404
f 373/373/373 379/379/379 404/404/404
f 373/373/373 404/404/404 372/372/372
f 402/402/402 403/403/403 405/405/405
f 404/404/404 402/402/402 405/405/405
f 405/405/405 403/403/403 406/406/406
f 406/406/406 403/403/403 407/407/407
f 406/406/406 407/407/407 408/408/408
f 408/408/408 94/94/94 406/406/406
f 405/405/405 409/409/409 404/404/404
f 406/406/406 409/409/409 405/405/405
f 94/94/94 409/409/409 406/406/406
f 372/372/372 404/404/404 409/409/409
f 409/409/409 94/94/94 98/98/98
f 98/98/98 115/115/115 409/409/409
f 409/409/409 115/115/115 372/372/372
f 115/115/115 410/410/410 372/372/372
f 115/115/115 111/111/111 410/410/410
f 372/372/372 410/410/410 411/411/411
f 411/411/411 360/360/360 372/372/372
f 410/410/410 111/111/111 412/412/412
f 412/412/412 111/111/111 114/114/114
f 412/412/412 413/413/413 410/410/410
f 413/413/413 412/412/412 114/114/114
f 411/411/411 410/410/410 413/413/413
f 413/413/413 114/114/114 414/414/414
f 414/414/414 411/411/411 413/413/413
f 360/360/360 411/411/411 414/414/414
f 414/414/414 415/415/415 360/360/360
f 415/415/415 361/361/361 360/360/360
f 361/361/361 415/415/415 416/416/416
f 416/416/416 417/417/417 361/361/361
f 418/418/418 361/361/361 417/417/417
f 418/418/418 417/417/417 419/419/419
f 420/420/420 418/418/418 419/419/419
f 417/417/417 421/421/421 419/419/419
f 417/417/417 416/416/416 421/421/421
f 421/421/421 422/422/422 419/419/419
f 423/423/423 419/419/419 422/422/422
f 421/421/421 424/424/424 422/422/422
f 425/425/425 423/423/423 422/422/422
f 421/421/421 426/426/426 424/424/424
f 426/426/426 427/427/427 424/424/424
f 428/428/428 427/427/427 426/426/426
f 426/426/426 421/421/421 429/429/429
f 421/421/421 416/416/416 429/429/429
f 428/428/428 426/426/426 429/429/429
f 423/423/423 425/425/425 430/430/430
f 431/431/431 430/430/430 425/425/425
f 423/423/423 430/430/430 432/432/432
f 432/432/432 353/353/353 423/423/423
f 356/356/356 353/353/353 432/432/432
f 356/356/356 432/432/432 430/430/430
f 433/433/433 356/356/356 430/430/430
f 430/430/430 431/431/431 433/433/433
f 434/434/434 356/356/356 433/433/433
f 322/322/322 356/356/356 434/434/434
f 337/337/337 322/322/322 434/434/434
f 431/431/431 435/435/435 433/433/433
f 434/434/434 433/433/433 435/435/435
f 436/436/436 435/435/435 431/431/431
f 436/436/436 431/431/431 437/437/437
f 438/438/438 436/436/436 437/437/437
f 438/438/438 437/437/437 428/428/428
f 439/439/439 435/435/435 436/436/436
f 438/438/438 439/439/439 436/436/436
f 440/440/440 434/434/434 435/435/435
f 440/440/440 435/435/435 439/439/439
f 337/337/337 434/434/434 441/441/441
f 441/441/441 434/434/434 440/440/440
f 438/438/438 428/428/428 442/442/442
f 428/428/428 429/429/429 442/442/442
f 337/337/337 441/441/441 443/443/443
f 336/336/336 337/337/337 443/443/443
f 444/444/444 336/336/336 443/443/443
f 445/445/445 336/336/336 444/444/444
f 444/444/444 446/446/446 445/445/445
f 446/446/446 447/447/447 445/445/445
f 446/446/446 448/448/448 447/447/447
f 444/444/444 443/443/443 449/449/449
f 444/444/444 449/449/449 446/446/446
f 450/450/450 443/443/443 441/441/441
f 450/450/450 449/449/449 443/443/443
f 449/449/449 450/450/450 451/451/451
f 441/441/441 452/452/452 450/450/450
f 450/450/450 452/452/452 451/451/451
f 440/440/440 452/452/452 441/441/441
f 453/453/453 452/452/452 440/440/440
f 452/452/452 453/453/453 451/451/451
f 453/453/453 440/440/440 439/439/439
f 454/454/454 448/448/448 446/446/446
f 455/455/455 448/448/448 454/454/454
f 446/446/446 449/449/449 456/456/456
f 449/449/449 451/451/451 456/456/456
f 446/446/446 456/456/456 454/454/454
f 456/456/456 451/451/451 454/454/454
f 457/457/457 455/455/455 454/454/454
f 457/457/457 458/458/458 455/455/455
f 458/458/458 457/457/457 459/459/459
f 460/460/460 457/457/457 454/454/454
f 451/451/451 460/460/460 454/454/454
f 457/457/457 460/460/460 459/459/459
f 461/461/461 460/460/460 451/451/451
f 459/459/459 460/460/460 461/461/461
f 461/461/461 451/451/451 453/453/453
f 459/459/459 461/461/461 462/462/462
f 461/461/461 463/463/463 462/462/462
f 464/464/464 462/462/462 463/463/463
f 453/453/453 465/465/465 461/461/461
f 461/461/461 465/465/465 463/463/463
f 453/453/453 466/466/466 465/465/465
f 466/466/466 453/453/453 439/439/439
f 467/467/467 465/465/465 466/466/466
f 465/465/465 467/467/467 463/463/463
f 466/466/466 439/439/439 468/468/468
f 468/468/468 467/467/467 466/466/466
f 439/439/439 438/438/438 468/468/468
f 463/463/463 469/469/469 464/464/464
f 470/470/470 464/464/464 469/469/469
f 467/467/467 471/471/471 463/463/463
f 469/469/469 463/463/463 471/471/471
f 472/472/472 468/468/468 438/438/438
f 438/438/438 442/442/442 472/472/472
f 468/468/468 473/473/473 467/467/467
f 473/473/473 471/471/471 467/467/467
f 472/472/472 473/473/473 468/468/468
f 474/474/474 473/473/473 472/472/472
f 442/442/442 475/475/475 472/472/472
f 475/475/475 474/474/474 472/472/472
f 475/475/475 442/442/442 429/429/429
f 469/469/469 476/476/476 470/470/470
f 471/471/471 476/476/476 469/469/469
f 477/477/477 471/471/471 473/473/473
f 476/476/476 471/471/471 477/477/477
f 429/429/429 478/478/478 475/475/475
f 478/478/478 429/429/429 416/416/416
f 476/476/476 479/479/479 470/470/470
f 470/470/470 479/479/479 480/480/480
f 479/479/479 481/481/481 480/480/480
f 477/477/477 473/473/473 482/482/482
f 473/473/473 474/474/474 482/482/482
f 483/483/483 476/476/476 477/477/477
f 476/476/476 483/483/483 479/479/479
f 482/482/482 483/483/483 477/477/477
f 484/484/484 481/481/481 479/479/479
f 479/479/479 483/483/483 484/484/484
f 484/484/484 485/485/485 481/481/481
f 483/483/483 486/486/486 484/484/484
f 486/486/486 483/483/483 487/487/487
f 487/487/487 483/483/483 482/482/482
f 482/482/482 474/474/474 487/487/487
f 486/486/486 487/487/487 488/488/488
f 488/488/488 487/487/487 489/489/489
f 490/490/490 485/485/485 484/484/484
f 486/486/486 490/490/490 484/484/484
f 491/491/491 485/485/485 490/490/490
f 490/490/490 492/492/492 491/491/491
f 486/486/486 492/492/492 490/490/490
f 493/493/493 492/492/492 486/486/486
f 486/486/486 494/494/494 493/493/493
f 486/486/486 495/495/495 494/494/494
f 486/486/486 488/488/488 495/495/495
f 495/495/495 496/496/496 494/494/494
f 497/497/497 495/495/495 488/488/488
f 498/498/498 497/497/497 488/488/488
f 474/474/474 499/499/499 487/487/487
f 489/489/489 487/487/487 499/499/499
f 500/500/500 498/498/498 488/488/488
f 501/501/501 498/498/498 500/500/500
f 501/501/501 500/500/500 502/502/502
f 500/500/500 503/503/503 502/502/502
f 503/503/503 500/500/500 488/488/488
f 503/503/503 488/488/488 504/504/504
f 489/489/489 504/504/504 488/488/488
f 503/503/503 504/504/504 505/505/505
f 506/506/506 505/505/505 504/504/504
f 504/504/504 489/489/489 507/507/507
f 506/506/506 504/504/504 507/507/507
f 499/499/499 507/507/507 489/489/489
f 507/507/507 508/508/508 506/506/506
f 509/509/509 508/508/508 507/507/507
f 507/507/507 499/499/499 509/509/509
f 508/508/508 509/509/509 510/510/510
f 511/511/511 510/510/510 509/509/509
f 510/510/510 511/511/511 512/512/512
f 511/511/511 513/513/513 512/512/512
f 513/513/513 511/511/511 514/514/514
f 514/514/514 515/515/515 513/513/513
f 511/511/511 509/509/509 516/516/516
f 516/516/516 514/514/514 511/511/511
f 517/517/517 516/516/516 509/509/509
f 517/517/517 509/509/509 499/499/499
f 514/514/514 516/516/516 517/517/517
f 515/515/515 514/514/514 518/518/518
f 515/515/515 518/518/518 519/519/519
f 519/519/519 518/518/518 520/520/520
f 499/499/499 521/521/521 517/517/517
f 499/499/499 474/474/474 521/521/521
f 514/514/514 517/517/517 522/522/522
f 518/518/518 514/514/514 522/522/522
f 518/518/518 523/523/523 520/520/520
f 523/523/523 524/524/524 520/520/520
f 523/523/523 525/525/525 524/524/524
f 474/474/474 526/526/526 521/521/521
f 474/474/474 475/475/475 526/526/526
f 526/526/526 475/475/475 478/478/478
f 527/527/527 517/517/517 521/521/521
f 526/526/526 527/527/527 521/521/521
f 527/527/527 522/522/522 517/517/517
f 526/526/526 478/478/478 527/527/527
f 528/528/528 518/518/518 522/522/522
f 522/522/522 527/527/527 528/528/528
f 478/478/478 528/528/528 527/527/527
f 518/518/518 528/528/528 523/523/523
f 528/528/528 478/478/478 529/529/529
f 523/523/523 528/528/528 529/529/529
f 529/529/529 478/478/478 416/416/416
f 530/530/530 525/525/525 523/523/523
f 523/523/523 529/529/529 530/530/530
f 529/529/529 416/416/416 531/531/531
f 531/531/531 416/416/416 415/415/415
f 529/529/529 531/531/531 532/532/532
f 529/529/529 532/532/532 530/530/530
f 530/530/530 533/533/533 525/525/525
f 525/525/525 533/533/533 534/534/534
f 535/535/535 531/531/531 415/415/415
f 531/531/531 535/535/535 532/532/532
f 530/530/530 532/532/532 536/536/536
f 533/533/533 530/530/530 536/536/536
f 536/536/536 532/532/532 535/535/535
f 537/537/537 534/534/534 533/533/533
f 537/537/537 533/533/533 536/536/536
f 537/537/537 538/538/538 534/534/534
f 537/537/537 414/414/414 538/538/538
f 415/415/415 414/414/414 539/539/539
f 539/539/539 535/535/535 415/415/415
f 535/535/535 539/539/539 536/536/536
f 539/539/539 537/537/537 536/536/536
f 537/537/537 539/539/539 414/414/414
f 540/540/540 541/541/541 542/542/542
f 542/542/542 543/543/543 540/540/540
f 543/543/543 542/542/542 544/544/544
f 542/542/542 545/545/545 544/544/544
f 544/544/544 545/545/545 546/546/546
f 540/540/540 543/543/543 547/547/547
f 545/545/545 548/548/548 546/546/546
f 543/543/543 549/549/549 547/547/547
f 544/544/544 549/549/549 543/543/543
f 546/546/546 548/548/548 550/550/550
f 550/550/550 551/551/551 546/546/546
f 549/549/549 544/544/544 552/552/552
f 549/549/549 552/552/552 553/553/553
f 554/554/554 549/549/549 553/553/553
f 546/546/546 551/551/551 555/555/555
f 554/554/554 553/553/553 556/556/556
f 546/546/546 555/555/555 557/557/557
f 557/557/557 555/555/555 558/558/558
f 559/559/559 544/544/544 546/546/546
f 546/546/546 557/557/557 559/559/559
f 560/560/560 544/544/544 559/559/559
f 560/560/560 559/559/559 557/557/557
f 561/561/561 557/557/557 558/558/558
f 562/562/562 561/561/561 558/558/558
f 552/552/552 544/544/544 563/563/563
f 563/563/563 544/544/544 560/560/560
f 564/564/564 557/557/557 561/561/561
f 564/564/564 560/560/560 557/557/557
f 564/564/564 561/561/561 565/565/565
f 560/560/560 564/564/564 566/566/566
f 565/565/565 561/561/561 567/567/567
f 562/562/562 567/567/567 561/561/561
f 560/560/560 566/566/566 568/568/568
f 562/562/562 569/569/569 567/567/567
f 570/570/570 567/567/567 569/569/569
f 570/570/570 569/569/569 571/571/571
f 572/572/572 569/569/569 562/562/562
f 569/569/569 573/573/573 571/571/571
f 572/572/572 574/574/574 569/569/569
f 574/574/574 573/573/573 569/569/569
f 573/573/573 574/574/574 575/575/575
f 575/575/575 574/574/574 576/576/576
f 572/572/572 577/577/577 574/574/574
f 576/576/576 574/574/574 578/578/578
f 574/574/574 577/577/577 578/578/578
f 577/577/577 579/579/579 578/578/578
f 580/580/580 579/579/579 577/577/577
f 578/578/578 579/579/579 581/581/581
f 582/582/582 581/581/581 579/579/579
f 582/582/582 583/583/583 581/581/581
f 584/584/584 585/585/585 586/586/586
f 584/584/584 586/586/586 587/587/587
f 588/588/588 587/587/587 586/586/586
f 587/587/587 588/588/588 589/589/589
f 590/590/590 587/587/587 589/589/589
f 590/590/590 589/589/589 591/591/591
f 591/591/591 592/592/592 590/590/590
f 592/592/592 593/593/593 590/590/590
f 590/590/590 593/593/593 594/594/594
f 595/595/595 560/560/560 568/568/568
f 596/596/596 595/595/595 568/568/568
f 595/595/595 596/596/596 597/597/597
f 560/560/560 595/595/595 598/598/598
f 595/595/595 597/597/597 598/598/598
f 597/597/597 599/599/599 598/598/598
f 563/563/563 560/560/560 598/598/598
f 599/599/599 600/600/600 598/598/598
f 563/563/563 598/598/598 600/600/600
f 600/600/600 599/599/599 601/601/601
f 601/601/601 602/602/602 600/600/600
f 600/600/600 602/602/602 563/563/563
f 602/602/602 552/552/552 563/563/563
f 552/552/552 602/602/602 603/603/603
f 552/552/552 603/603/603 604/604/604
f 604/604/604 605/605/605 552/552/552
f 604/604/604 606/606/606 605/605/605
f 605/605/605 606/606/606 607/607/607
f 605/605/605 608/608/608 552/552/552
f 553/553/553 552/552/552 608/608/608
f 607/607/607 609/609/609 605/605/605
f 608/608/608 605/605/605 609/609/609
f 607/607/607 610/610/610 609/609/609
f 553/553/553 608/608/608 611/611/611
f 556/556/556 553/553/553 611/611/611
f 608/608/608 609/609/609 612/612/612
f 608/608/608 612/612/612 611/611/611
f 610/610/610 613/613/613 609/609/609
f 613/613/613 612/612/612 609/609/609
f 611/611/611 612/612/612 614/614/614
f 613/613/613 614/614/614 612/612/612
f 610/610/610 615/615/615 613/613/613
f 613/613/613 615/615/615 614/614/614
f 615/615/615 610/610/610 616/616/616
f 616/616/616 617/617/617 615/615/615
f 611/611/611 618/618/618 556/556/556
f 611/611/611 614/614/614 618/618/618
f 619/619/619 614/614/614 615/615/615
f 615/615/615 617/617/617 619/619/619
f 614/614/614 619/619/619 618/618/618
f 620/620/620 556/556/556 618/618/618
f 620/620/620 618/618/618 619/619/619
f 621/621/621 556/556/556 620/620/620
f 620/620/620 622/622/622 621/621/621
f 617/617/617 623/623/623 619/619/619
f 619/619/619 623/623/623 620/620/620
f 620/620/620 623/623/623 622/622/622
f 623/623/623 617/617/617 624/624/624
f 622/622/622 623/623/623 624/624/624
