# ClothingSign_COL
v 0.529940724 -0.19122763 0.0175477061
v 0.529940724 0.19122763 0.0175477061
v -0.529940724 0.19122763 0.0175477061
v -0.529940724 -0.19122763 0.0175477061
v -0.529940724 -0.19122763 0.0175477061
v -0.529940724 0.19122763 0.0175477061
v -0.529940724 0.19122763 -0.0175477061
v -0.529940724 -0.19122763 -0.0175477061
v 0.529940724 0.19122763 0.0175477061
v -0.529940724 0.19122763 0.0175477061
v 0.529940724 0.19122763 -0.0175477061
v 0.529940724 -0.19122763 -0.0175477061
v 0.529940724 0.19122763 0.0175477061
v 0.529940724 -0.19122763 0.0175477061
v -0.529940724 -0.19122763 -0.0175477061
v 0.529940724 -0.19122763 -0.0175477061
v -0.529940724 -0.19122763 -0.0175477061
v -0.529940724 0.19122763 -0.0175477061
v 0.529940724 0.19122763 -0.0175477061
v 0.529940724 -0.19122763 -0.0175477061
vt 0 0
vt 0 1
vt 1 1
vt 1 0
vt 0 0
vt 0 1
vt 1 1
vt 1 0
vt 0 0
vt 1 0
vt 0 1
vt 0 0
vt 1 1
vt 1 0
vt 0 1
vt 1 1
vt 0 0
vt 0 1
vt 1 1
vt 1 0
g submesh0
f 1/1 2/2 3/3
f 1/1 3/3 4/4
f 5/5 6/6 7/7
f 5/5 7/7 8/8
f 9/9 7/7 10/10
f 9/9 11/11 7/7
f 12/12 11/11 13/13
f 12/12 13/13 14/14
f 14/14 5/5 15/15
f 14/14 15/15 16/16
f 17/17 18/18 19/19
f 17/17 19/19 20/20
