# cola_can_cluster_a_COL
v 0.0562640242 -0.000409230473 -0.143885642
v 0.0749052688 -0.000409228116 -0.0743096024
v 0.00532825338 -0.000409226748 -0.0556670837
v -0.0133129992 -0.000409229076 -0.125243112
v 0.00535564544 0.140857473 -0.0557113402
v 0.074861452 0.140857473 -0.0743356422
v 0.0562366322 0.140857473 -0.143841386
v -0.0132691739 0.140857473 -0.125217065
v 0.00532825338 -0.000409226748 -0.0556670837
v 0.074861452 0.140857473 -0.0743356422
v 0.00535564544 0.140857473 -0.0557113402
v 0.0749052688 -0.000409228116 -0.0743096024
v 0.0562366322 0.140857473 -0.143841386
v 0.0562640242 -0.000409230473 -0.143885642
v -0.0132691739 0.140857473 -0.125217065
v -0.0133129992 -0.000409229076 -0.125243112
v 0.00535564544 0.140857473 -0.0557113402
v 0.00532825338 -0.000409226748 -0.0556670837
v -0.153493911 -0.00040908184 -0.0188844241
v -0.112179369 -0.000409097993 -0.0778879896
v -0.0531768352 -0.000409088796 -0.0365729742
v -0.0944899842 -0.000409072614 0.0224305633
v -0.153443217 0.140857518 -0.0188933574
v -0.112169795 0.140857503 -0.077837348
v -0.112179369 -0.000409097993 -0.0778879896
v -0.153493911 -0.00040908184 -0.0188844241
v -0.0944995657 0.140857503 0.022379715
v -0.0944899842 -0.000409072614 0.0224305633
v -0.0532274991 0.140857518 -0.0365642644
v -0.0531768352 -0.000409088796 -0.0365729742
v -0.112169795 0.140857503 -0.077837348
v -0.112179369 -0.000409097993 -0.0778879896
v -0.153443217 0.140857518 -0.0188933574
v -0.0944995657 0.140857503 0.022379715
v -0.0532274991 0.140857518 -0.0365642644
v -0.112169795 0.140857503 -0.077837348
v -0.168217614 0.0859336853 -0.0440456197
v -0.128903002 0.0278071929 -0.0335114226
v -0.185048997 -0.0128937103 -0.0485556796
v -0.224363595 0.0452327803 -0.0590898916
v -0.204787254 0.0858835876 0.0924050808
v -0.260875255 0.0452245288 0.0773761719
v -0.221601099 -0.0128433593 0.0878996998
v -0.165514484 0.0278156735 0.102928609
v -0.260875255 0.0452245288 0.0773761719
v -0.204787254 0.0858835876 0.0924050808
v -0.168217614 0.0859336853 -0.0440456197
v -0.224363595 0.0452327803 -0.0590898916
v -0.221601099 -0.0128433593 0.0878996998
v -0.185048997 -0.0128937103 -0.0485556796
v -0.165514484 0.0278156735 0.102928609
v -0.128903002 0.0278071929 -0.0335114226
v -0.204787254 0.0858835876 0.0924050808
v -0.168217614 0.0859336853 -0.0440456197
v -0.138459206 -0.000409217988 -0.0505785868
v -0.200839117 -0.00040923059 -0.0865939185
v -0.164824843 -0.000409242726 -0.148973808
v -0.102444902 -0.000409230182 -0.112958483
v -0.164809778 0.140857473 -0.148924261
v -0.200789794 0.140857473 -0.0866072997
v -0.1384729 0.140857488 -0.0506278686
v -0.102494225 0.140857473 -0.112944856
v -0.164824843 -0.000409242726 -0.148973808
v -0.200789794 0.140857473 -0.0866072997
v -0.164809778 0.140857473 -0.148924261
v -0.200839117 -0.00040923059 -0.0865939185
v -0.1384729 0.140857488 -0.0506278686
v -0.138459206 -0.000409217988 -0.0505785868
v -0.102494225 0.140857473 -0.112944856
v -0.102444902 -0.000409230182 -0.112958483
v -0.164809778 0.140857473 -0.148924261
v -0.164824843 -0.000409242726 -0.148973808
v -0.215363577 -0.00040923609 -0.145937264
v -0.190729097 -0.000409219705 -0.0782506242
v -0.258416116 -0.00040922116 -0.0536150485
v -0.283050597 -0.000409237575 -0.121301666
v -0.283050597 -0.000409237575 -0.121301666
v -0.258390695 0.140857518 -0.0536615252
v -0.28300187 0.140857473 -0.121279389
v -0.258416116 -0.00040922116 -0.0536150485
v -0.190774858 0.140857518 -0.0782725811
v -0.190729097 -0.000409219705 -0.0782506242
v -0.215386093 0.140857488 -0.14589043
v -0.215363577 -0.00040923609 -0.145937264
v -0.28300187 0.140857473 -0.121279389
v -0.283050597 -0.000409237575 -0.121301666
v -0.190774858 0.140857518 -0.0782725811
v -0.215386093 0.140857488 -0.14589043
v -0.28300187 0.140857473 -0.121279389
v -0.258390695 0.140857518 -0.0536615252
v -0.0334587432 0.0864765644 0.0238229483
v -0.00120454549 0.0363003947 0.0622598864
v -0.0334587432 -0.0138757974 0.0238229632
v -0.0657115802 0.0363003574 -0.0146139609
v -0.141674325 -0.0138245262 0.114627257
v -0.109455198 0.0363003574 0.15302524
v -0.141674325 0.0864253417 0.114627279
v -0.173894763 0.0363004468 0.0762292743
v -0.0334587432 -0.0138757974 0.0238229632
v -0.109455198 0.0363003574 0.15302524
v -0.141674325 -0.0138245262 0.114627257
v -0.00120454549 0.0363003947 0.0622598864
v -0.141674325 0.0864253417 0.114627279
v -0.0334587432 0.0864765644 0.0238229483
v -0.173894763 0.0363004468 0.0762292743
v -0.0657115802 0.0363003574 -0.0146139609
v -0.141674325 -0.0138245262 0.114627257
v -0.0334587432 -0.0138757974 0.0238229632
v -0.0417375043 -0.00965743605 -0.0271256436
v -0.0519928448 0.0546537302 0.00105454656
v -0.0299966875 0.0846423507 -0.0593779273
v -0.0197399966 0.0203311574 -0.087558113
v 0.0910168067 -0.00960974209 0.0211739987
v 0.112990022 0.0203486718 -0.0391971841
v 0.10274414 0.0845943913 -0.0110456571
v 0.0807695687 0.0546359532 0.0493254997
v 0.112990022 0.0203486718 -0.0391971841
v 0.0910168067 -0.00960974209 0.0211739987
v -0.0417375043 -0.00965743605 -0.0271256436
v -0.0197399966 0.0203311574 -0.087558113
v 0.10274414 0.0845943913 -0.0110456571
v -0.0299966875 0.0846423507 -0.0593779273
v 0.0807695687 0.0546359532 0.0493254997
v -0.0519928448 0.0546537302 0.00105454656
v 0.0910168067 -0.00960974209 0.0211739987
v -0.0417375043 -0.00965743605 -0.0271256436
v 0.0431679487 -0.000409196422 0.114141248
v -0.0158346072 -0.000409196567 0.0728262514
v 0.0254799202 -0.000409213302 0.0138226924
v 0.0844824687 -0.000409213157 0.0551377051
v 0.0844824687 -0.000409213157 0.0551377051
v 0.0254873596 0.140857533 0.01387328
v 0.084431015 0.140857533 0.0551462434
v 0.0254799202 -0.000409213302 0.0138226924
v -0.0157847106 0.140857548 0.0728172213
v -0.0158346072 -0.000409196567 0.0728262514
v 0.043157585 0.140857548 0.114090174
v 0.0431679487 -0.000409196422 0.114141248
v 0.084431015 0.140857533 0.0551462434
v 0.0844824687 -0.000409213157 0.0551377051
v -0.0157847106 0.140857548 0.0728172213
v 0.043157585 0.140857548 0.114090174
v 0.084431015 0.140857533 0.0551462434
v 0.0254873596 0.140857533 0.01387328
v 0.121979989 -0.000409198197 0.0958725214
v 0.0806640908 -0.000409201602 0.036868751
v 0.139668018 -0.000409213564 -0.00444599101
v 0.180983901 -0.000409210159 0.0545578226
v 0.180983901 -0.000409210159 0.0545578226
v 0.139660105 0.140857503 -0.00439566327
v 0.180932149 0.140857503 0.0545486659
v 0.139668018 -0.000409213564 -0.00444599101
v 0.0807150751 0.140857548 0.0368773267
v 0.0806640908 -0.000409201602 0.036868751
v 0.121987127 0.140857533 0.0958216488
v 0.121979989 -0.000409198197 0.0958725214
v 0.180932149 0.140857503 0.0545486659
v 0.180983901 -0.000409210159 0.0545578226
v 0.0807150751 0.140857548 0.0368773267
v 0.121987127 0.140857533 0.0958216488
v 0.180932149 0.140857503 0.0545486659
v 0.139660105 0.140857503 -0.00439566327
v 0.254874736 -0.000409222412 -0.078250885
v 0.187189102 -0.000409226981 -0.0536152907
v 0.162553236 -0.000409236032 -0.121301465
v 0.23024027 -0.000409231434 -0.145937055
v 0.254827112 0.140857518 -0.0782724246
v 0.187209949 0.140857488 -0.0536617115
v 0.187189102 -0.000409226981 -0.0536152907
v 0.254874736 -0.000409222412 -0.078250885
v 0.230217278 0.140857488 -0.145890251
v 0.23024027 -0.000409231434 -0.145937055
v 0.16260013 0.140857458 -0.121279567
v 0.162553236 -0.000409236032 -0.121301465
v 0.187209949 0.140857488 -0.0536617115
v 0.187189102 -0.000409226981 -0.0536152907
v 0.254827112 0.140857518 -0.0782724246
v 0.230217278 0.140857488 -0.145890251
v 0.16260013 0.140857458 -0.121279567
v 0.187209949 0.140857488 -0.0536617115
vt 0.470190257 0.734725714
vt 0.44458428 0.725858152
vt 0.439463735 0.752463222
vt 0.465069711 0.761330664
vt 0.430511743 0.711668491
vt 0.444732368 0.72375375
vt 0.462313831 0.717484772
vt 0.451447159 0.687041283
vt 0.42937851 0.678601921
vt 0.412056267 0.732272148
vt 0.42937851 0.732272148
vt 0.412056267 0.678601921
vt 0.385961473 0.732272148
vt 0.385961473 0.678601921
vt 0.359852403 0.732272148
vt 0.359852403 0.678601921
vt 0.333799958 0.732272148
vt 0.333799958 0.678601921
vt 0.465068549 0.725857675
vt 0.439463139 0.734726667
vt 0.444585472 0.76133126
vt 0.470190823 0.752462268
vt 0.394664407 0.732272148
vt 0.420717388 0.732272148
vt 0.420717388 0.678601921
vt 0.394664407 0.678601921
vt 0.368555456 0.732272148
vt 0.368555456 0.678601921
vt 0.342461079 0.732272148
vt 0.342461079 0.678601921
vt 0.325138807 0.732272148
vt 0.325138807 0.678601921
vt 0.462313831 0.717484772
vt 0.451455444 0.687031507
vt 0.433879077 0.693314016
vt 0.444732368 0.72375375
vt 0.439463139 0.734726667
vt 0.444585472 0.76133126
vt 0.470190823 0.752462268
vt 0.465068549 0.725857675
vt 0.430512309 0.711669803
vt 0.462313801 0.717484653
vt 0.465676963 0.699124932
vt 0.433869779 0.693308711
vt 0.394664407 0.732272148
vt 0.420717388 0.732272148
vt 0.420717388 0.678601921
vt 0.394664407 0.678601921
vt 0.368555456 0.732272148
vt 0.368555456 0.678601921
vt 0.342461079 0.732272148
vt 0.342461079 0.678601921
vt 0.325138807 0.732272148
vt 0.325138807 0.678601921
vt 0.470190257 0.734725714
vt 0.44458428 0.725858152
vt 0.439463735 0.752463222
vt 0.465069711 0.761330664
vt 0.430511743 0.711668491
vt 0.444732368 0.72375375
vt 0.462313831 0.717484772
vt 0.451447159 0.687041283
vt 0.42937851 0.678601921
vt 0.412056267 0.732272148
vt 0.42937851 0.732272148
vt 0.412056267 0.678601921
vt 0.385961473 0.732272148
vt 0.385961473 0.678601921
vt 0.359852403 0.732272148
vt 0.359852403 0.678601921
vt 0.333799958 0.732272148
vt 0.333799958 0.678601921
vt 0.454827607 0.761330962
vt 0.475311965 0.743593812
vt 0.454826415 0.725857913
vt 0.434341997 0.743595243
vt 0.42937851 0.678601921
vt 0.403360337 0.732272148
vt 0.42937851 0.732272148
vt 0.403360337 0.678601921
vt 0.377258509 0.732272148
vt 0.377258509 0.678601921
vt 0.351156741 0.732272148
vt 0.351156741 0.678601921
vt 0.325138807 0.732272148
vt 0.325138807 0.678601921
vt 0.465669274 0.699128211
vt 0.433870733 0.693307519
vt 0.430511743 0.711668491
vt 0.444733828 0.723754048
vt 0.470190257 0.734725714
vt 0.44458428 0.725858152
vt 0.439463735 0.752463222
vt 0.465069711 0.761330664
vt 0.433869898 0.693308651
vt 0.444733918 0.723753929
vt 0.462313741 0.717484653
vt 0.451453865 0.687031209
vt 0.42937851 0.678601921
vt 0.412056267 0.732272148
vt 0.42937851 0.732272148
vt 0.412056267 0.678601921
vt 0.385961473 0.732272148
vt 0.385961473 0.678601921
vt 0.359852403 0.732272148
vt 0.359852403 0.678601921
vt 0.333799958 0.732272148
vt 0.333799958 0.678601921
vt 0.439463139 0.734726667
vt 0.444585472 0.76133126
vt 0.470190823 0.752462268
vt 0.465068549 0.725857675
vt 0.430512309 0.711669803
vt 0.462313801 0.717484653
vt 0.465676963 0.699124873
vt 0.433869779 0.693308711
vt 0.394664407 0.732272148
vt 0.420717388 0.732272148
vt 0.420717388 0.678601921
vt 0.394664407 0.678601921
vt 0.368555456 0.732272148
vt 0.368555456 0.678601921
vt 0.342461079 0.732272148
vt 0.342461079 0.678601921
vt 0.325138807 0.732272148
vt 0.325138807 0.678601921
vt 0.454827607 0.761330962
vt 0.475311965 0.743593812
vt 0.454826415 0.725857913
vt 0.434341997 0.743595243
vt 0.42937851 0.678601921
vt 0.403360337 0.732272148
vt 0.42937851 0.732272148
vt 0.403360337 0.678601921
vt 0.377258509 0.732272148
vt 0.377258509 0.678601921
vt 0.351156741 0.732272148
vt 0.351156741 0.678601921
vt 0.325138807 0.732272148
vt 0.325138807 0.678601921
vt 0.465677083 0.699124932
vt 0.451453984 0.687031209
vt 0.43052569 0.711663961
vt 0.462312847 0.717485905
vt 0.454827607 0.761330962
vt 0.475311965 0.743593812
vt 0.454826415 0.725857913
vt 0.434341997 0.743595243
vt 0.42937851 0.678601921
vt 0.403360337 0.732272148
vt 0.42937851 0.732272148
vt 0.403360337 0.678601921
vt 0.377258509 0.732272148
vt 0.377258509 0.678601921
vt 0.351156741 0.732272148
vt 0.351156741 0.678601921
vt 0.325138807 0.732272148
vt 0.325138807 0.678601921
vt 0.465677112 0.699124932
vt 0.451453984 0.687031209
vt 0.43052569 0.711664021
vt 0.462312847 0.717485905
vt 0.465068549 0.725857675
vt 0.439463139 0.734726667
vt 0.444585472 0.76133126
vt 0.470190823 0.752462268
vt 0.394664407 0.732272148
vt 0.420717388 0.732272148
vt 0.420717388 0.678601921
vt 0.394664407 0.678601921
vt 0.368555456 0.732272148
vt 0.368555456 0.678601921
vt 0.342461079 0.732272148
vt 0.342461079 0.678601921
vt 0.325138807 0.732272148
vt 0.325138807 0.678601921
vt 0.462313831 0.717484772
vt 0.451455444 0.687031507
vt 0.433879077 0.693314075
vt 0.444732368 0.72375375
g submesh0
f 1/1 2/2 3/3
f 1/1 3/3 4/4
f 5/5 6/6 7/7
f 5/5 7/7 8/8
f 9/9 10/10 11/11
f 9/9 12/12 10/10
f 13/13 10/10 12/12
f 13/13 12/12 14/14
f 15/15 13/13 14/14
f 15/15 14/14 16/16
f 17/17 15/15 16/16
f 17/17 16/16 18/18
f 19/19 20/20 21/21
f 19/19 21/21 22/22
f 23/23 24/24 25/25
f 23/23 25/25 26/26
f 27/27 23/23 26/26
f 27/27 26/26 28/28
f 29/29 27/27 28/28
f 29/29 28/28 30/30
f 30/30 31/31 29/29
f 30/30 32/32 31/31
f 33/33 34/34 35/35
f 33/33 35/35 36/36
f 37/37 38/38 39/39
f 37/37 39/39 40/40
f 41/41 42/42 43/43
f 41/41 43/43 44/44
f 45/45 46/46 47/47
f 45/45 47/47 48/48
f 49/49 45/45 48/48
f 49/49 48/48 50/50
f 51/51 49/49 50/50
f 51/51 50/50 52/52
f 52/52 53/53 51/51
f 52/52 54/54 53/53
f 55/55 56/56 57/57
f 55/55 57/57 58/58
f 59/59 60/60 61/61
f 59/59 61/61 62/62
f 63/63 64/64 65/65
f 63/63 66/66 64/64
f 67/67 64/64 66/66
f 67/67 66/66 68/68
f 69/69 67/67 68/68
f 69/69 68/68 70/70
f 71/71 69/69 70/70
f 71/71 70/70 72/72
f 73/73 74/74 75/75
f 73/73 75/75 76/76
f 77/77 78/78 79/79
f 77/77 80/80 78/78
f 81/81 78/78 80/80
f 81/81 80/80 82/82
f 83/83 81/81 82/82
f 83/83 82/82 84/84
f 84/84 85/85 83/83
f 84/84 86/86 85/85
f 87/87 88/88 89/89
f 87/87 89/89 90/90
f 91/91 92/92 93/93
f 91/91 93/93 94/94
f 95/95 96/96 97/97
f 95/95 97/97 98/98
f 99/99 100/100 101/101
f 99/99 102/102 100/100
f 103/103 100/100 102/102
f 103/103 102/102 104/104
f 105/105 103/103 104/104
f 105/105 104/104 106/106
f 107/107 105/105 106/106
f 107/107 106/106 108/108
f 109/109 110/110 111/111
f 109/109 111/111 112/112
f 113/113 114/114 115/115
f 113/113 115/115 116/116
f 117/117 118/118 119/119
f 117/117 119/119 120/120
f 121/121 117/117 120/120
f 121/121 120/120 122/122
f 123/123 121/121 122/122
f 123/123 122/122 124/124
f 124/124 125/125 123/123
f 124/124 126/126 125/125
f 127/127 128/128 129/129
f 127/127 129/129 130/130
f 131/131 132/132 133/133
f 131/131 134/134 132/132
f 135/135 132/132 134/134
f 135/135 134/134 136/136
f 137/137 135/135 136/136
f 137/137 136/136 138/138
f 138/138 139/139 137/137
f 138/138 140/140 139/139
f 141/141 142/142 143/143
f 141/141 143/143 144/144
f 145/145 146/146 147/147
f 145/145 147/147 148/148
f 149/149 150/150 151/151
f 149/149 152/152 150/150
f 153/153 150/150 152/152
f 153/153 152/152 154/154
f 155/155 153/153 154/154
f 155/155 154/154 156/156
f 156/156 157/157 155/155
f 156/156 158/158 157/157
f 159/159 160/160 161/161
f 159/159 161/161 162/162
f 163/163 164/164 165/165
f 163/163 165/165 166/166
f 167/167 168/168 169/169
f 167/167 169/169 170/170
f 171/171 167/167 170/170
f 171/171 170/170 172/172
f 173/173 171/171 172/172
f 173/173 172/172 174/174
f 174/174 175/175 173/173
f 174/174 176/176 175/175
f 177/177 178/178 179/179
f 177/177 179/179 180/180
