# Computed Mesh 6
v -0.221017554 -0.335484773 0.0139712999
v -0.221026957 -0.355332702 0.0137507375
v -0.221030593 -0.334858477 -0.0238446593
v -0.405705839 -0.335661858 0.0299710669
v -0.364028215 -0.39700976 0.0269330703
v -0.221046716 -0.397011638 0.0132767707
v -0.221038997 -0.35249725 -0.0241638254
v -0.364045203 -0.438658774 -0.0381277241
v -0.364035249 -0.417822242 -0.0377150401
v -0.364025265 -0.397004694 -0.0371201634
v -0.405703902 -0.334528238 -0.0384774581
v -0.426559448 -0.335658193 0.0303500947
v -0.364025623 -0.499009013 0.0253519304
v -0.364032388 -0.459508002 0.025972344
v -0.36403811 -0.417832017 0.026622016
v -0.22109504 -0.498856962 0.0120632118
v -0.221086249 -0.480336785 0.0122888219
v -0.221056595 -0.417834967 0.013033296
v -0.221048921 -0.373318702 -0.0245221816
v -0.364029557 -0.459512681 -0.0384595878
v -0.221070096 -0.417824656 -0.0252592731
v -0.221078664 -0.435799867 -0.0255502146
v -0.364039481 -0.480350792 -0.0387776643
v -0.364047825 -0.497942537 -0.0390419737
v -0.42655772 -0.334514856 -0.0386863463
v -0.447413951 -0.335612476 0.0281882379
v -0.405707628 -0.498987854 0.0252720304
v -0.403535336 -0.498989314 0.0252982937
v -0.38487938 -0.498999089 0.0253525302
v -0.221108347 -0.498217911 -0.0265231244
v -0.221088558 -0.456621736 -0.02588154
v -0.384876043 -0.497932613 -0.0390413813
v -0.447385073 -0.33454603 -0.0362056829
v -0.405703992 -0.497935921 -0.0382433869
v -0.467757583 -0.335555792 0.0253504328
v -0.417361736 -0.498955846 0.02367457
v -0.469335288 -0.334654003 -0.0290550739
v -0.421494335 -0.498086542 -0.0286959745
v -0.469871879 -0.334658563 -0.0287643038
v -0.480208248 -0.335317492 0.0113191288
v -0.418690711 -0.498951733 0.0234655533
v -0.427033365 -0.498401672 -0.00950897206
v -0.482081026 -0.334971547 -0.00951413065
v -0.479528069 -0.334845394 -0.0172052681
v -0.426751316 -0.498446792 -0.00679248478
v -0.424215019 -0.498747915 0.0113171972
v -0.423728973 -0.49877131 0.012715864
g submesh0
f 1 2 6
f 1 6 18
f 1 18 17
f 1 17 16
f 1 16 30
f 1 30 31
f 1 31 22
f 1 22 21
f 1 21 19
f 1 19 7
f 1 7 3
f 1 3 11
f 1 11 25
f 1 25 33
f 1 33 37
f 1 37 39
f 1 39 44
f 1 44 43
f 1 43 40
f 1 40 35
f 1 35 26
f 1 26 12
f 1 12 4
f 1 4 5
f 1 5 2
f 2 5 6
f 3 7 8
f 3 8 9
f 3 9 10
f 3 10 11
f 4 12 13
f 4 13 14
f 4 14 15
f 4 15 5
f 5 15 16
f 5 16 17
f 5 17 18
f 5 18 6
f 7 19 8
f 8 20 11
f 8 11 9
f 8 19 21
f 8 21 22
f 8 22 20
f 9 11 10
f 11 20 23
f 11 23 24
f 11 24 25
f 12 26 27
f 12 27 28
f 12 28 29
f 12 29 13
f 13 16 14
f 13 29 28
f 13 28 27
f 13 27 36
f 13 36 41
f 13 41 47
f 13 47 46
f 13 46 45
f 13 45 42
f 13 42 38
f 13 38 34
f 13 34 32
f 13 32 24
f 13 24 30
f 13 30 16
f 14 16 15
f 20 22 31
f 20 31 30
f 20 30 23
f 23 30 24
f 24 32 25
f 25 32 34
f 25 34 33
f 26 35 36
f 26 36 27
f 33 34 37
f 34 38 39
f 34 39 37
f 35 40 41
f 35 41 36
f 38 42 43
f 38 43 44
f 38 44 39
f 40 43 42
f 40 42 45
f 40 45 46
f 40 46 47
f 40 47 41
