# Computed Mesh 17
v -0.819427907 0.164810494 0.39425528
v -0.878804505 0.165228471 0.394066095
v -0.79985714 0.164792225 0.393455088
v -0.841286838 0.441844165 0.423968613
v -0.901046395 0.441799492 0.423982263
v -0.960829318 0.441820353 0.423975289
v -0.990708947 0.441830635 0.423971802
v -1.01719213 0.441818893 0.423965812
v -0.908445418 0.165437132 0.393971503
v -0.795154214 0.165035874 0.39147231
v -0.822239637 0.441843092 0.421717107
v -0.823615909 0.423849851 0.420974344
v -0.841282964 0.471685112 0.423979253
v -0.84130156 0.680894315 0.42397958
v -1.01699781 0.471719921 0.423984766
v -1.01732028 0.422341049 0.421712369
v -0.960815609 0.165809616 0.393777043
v -0.788121939 0.166736171 0.378864139
v -0.79335469 0.44182691 0.393419236
v -0.807309628 0.441845477 0.408370674
v -0.807296753 0.710740447 0.408363104
v -0.822241962 0.770546615 0.421718597
v -0.841289163 0.770547688 0.423970163
v -0.84129709 0.798579991 0.42396754
v -0.843173385 0.79859215 0.423968941
v -0.871173024 0.740651786 0.42397669
v -0.932214737 0.79917866 0.423976153
v -1.01486719 0.799723625 0.423978716
v -1.01740873 0.410679936 0.404493153
v -1.00037622 0.172844872 0.344878525
v -0.991047084 0.168663263 0.374618322
v -0.979530931 0.166132793 0.392335534
v -0.786316216 0.167313159 0.374613315
v -0.784390509 0.441813648 0.374611348
v -0.784386277 0.471715808 0.374630451
v -0.793357074 0.770530462 0.393420845
v -0.807289541 0.591184735 0.408353388
v -0.807307363 0.800516486 0.408370703
v -0.822248697 0.798766732 0.421712339
v -1.0148536 0.811106682 0.341811687
v -1.01747549 0.404087335 0.371868014
v -1.00135648 0.187391683 0.239922002
v -1.01747584 0.40408659 0.371422946
v -0.778877556 0.171172127 0.346403867
v -0.778511703 0.172836691 0.34473598
v -0.778507888 0.202681676 0.344717503
v -0.778509855 0.531446457 0.344727516
v -0.778510988 0.80914396 0.344723195
v -0.784388602 0.800423384 0.374602944
v -0.793352783 0.800436676 0.393410832
v -0.793363214 0.80249846 0.393399805
v -0.999467671 0.82716012 0.225200623
v -1.01492298 0.800426722 0.341845006
v -1.00076032 0.189371705 0.225601271
v -1.01743829 0.412006766 0.352555722
v -0.778521061 0.171399653 0.344744533
v -0.776339948 0.188014641 0.224708661
v -0.778508902 0.710753381 0.3447088
v -0.778509319 0.810539126 0.334652454
v -0.783360183 0.805768192 0.369321555
v -0.784406066 0.805041134 0.374619663
v -0.792697966 0.802683651 0.392031342
v -1.01666939 0.531414747 0.343230307
v -1.01569927 0.680852652 0.342455596
v -0.987184703 0.830342472 0.201644614
v -0.961601377 0.573607683 0.147808313
v -0.996292889 0.191253975 0.211801633
v -1.01725078 0.441839933 0.34405145
v -1.01705718 0.471686959 0.343558639
v -1.01690507 0.495116711 0.343422711
v -1.01742685 0.41384694 0.351891041
v -1.01728737 0.436109364 0.344859451
v -0.784933388 0.191651151 0.198868588
v -0.778681278 0.825705707 0.225183859
v -0.778634727 0.824955404 0.230597585
v -0.778519928 0.821563482 0.255075902
v -0.96081996 0.831368744 0.192980677
v -0.959679306 0.753320873 0.172705337
v -0.963078737 0.713281393 0.167157874
v -0.962345958 0.608344793 0.152620524
v -0.95515579 0.535341918 0.142508209
v -0.989094317 0.19297336 0.199047789
v -0.800109208 0.192479566 0.193611532
v -0.820050657 0.532565296 0.142145813
v -0.815918148 0.561328888 0.146131277
v -0.813464582 0.591205955 0.15027073
v -0.787631452 0.829025984 0.201643467
v -0.931772947 0.831184089 0.192930207
v -0.871172607 0.783312798 0.176874876
v -0.901052177 0.783323109 0.176871374
v -0.930937827 0.782414615 0.176740602
v -0.941798687 0.781443834 0.176604316
v -0.951097608 0.772438347 0.175355196
v -0.954181314 0.53184396 0.142023772
v -0.960829616 0.193967178 0.190527961
v -0.939088464 0.511837661 0.139254674
v -0.811390281 0.193016574 0.190272614
v -0.841299295 0.508752167 0.138843343
v -0.812626123 0.621093512 0.154411361
v -0.811250687 0.710763752 0.166834116
v -0.813114882 0.741403937 0.171078563
v -0.811404824 0.830320776 0.192978784
v -0.811428249 0.830382168 0.192987293
v -0.930941582 0.831178725 0.192929596
v -0.871184826 0.830786467 0.192914784
v -0.841282785 0.830588222 0.192921922
v -0.841303527 0.781709909 0.176657736
v -0.841292441 0.193206787 0.190323666
v -0.930946529 0.507496774 0.138654649
v -0.921448708 0.507067561 0.138596758
v -0.901049256 0.506567538 0.13853085
v -0.892451048 0.506572962 0.138533011
v -0.871169329 0.5066185 0.138542831
v -0.822493196 0.770745337 0.175141856
g submesh0
f 1 2 9
f 1 9 17
f 1 17 32
f 1 32 31
f 1 31 30
f 1 30 42
f 1 42 54
f 1 54 67
f 1 67 82
f 1 82 95
f 1 95 108
f 1 108 97
f 1 97 83
f 1 83 73
f 1 73 57
f 1 57 56
f 1 56 44
f 1 44 33
f 1 33 18
f 1 18 10
f 1 10 3
f 1 3 4
f 1 4 5
f 1 5 6
f 1 6 7
f 1 7 8
f 1 8 2
f 2 8 9
f 3 10 11
f 3 11 12
f 3 12 4
f 4 12 11
f 4 11 13
f 4 13 5
f 5 13 14
f 5 14 15
f 5 15 6
f 6 15 7
f 7 15 8
f 8 15 28
f 8 28 40
f 8 40 53
f 8 53 64
f 8 64 63
f 8 63 70
f 8 70 69
f 8 69 68
f 8 68 72
f 8 72 71
f 8 71 55
f 8 55 43
f 8 43 41
f 8 41 29
f 8 29 16
f 8 16 17
f 8 17 9
f 10 18 19
f 10 19 20
f 10 20 11
f 11 20 21
f 11 21 22
f 11 22 13
f 13 22 14
f 14 22 23
f 14 23 24
f 14 24 25
f 14 25 26
f 14 26 27
f 14 27 28
f 14 28 15
f 16 29 30
f 16 30 31
f 16 31 32
f 16 32 17
f 18 33 34
f 18 34 19
f 19 34 35
f 19 35 36
f 19 36 21
f 19 21 37
f 19 37 20
f 20 37 21
f 21 36 38
f 21 38 22
f 22 38 39
f 22 39 24
f 22 24 23
f 24 39 38
f 24 38 51
f 24 51 62
f 24 62 61
f 24 61 60
f 24 60 48
f 24 48 59
f 24 59 76
f 24 76 75
f 24 75 74
f 24 74 87
f 24 87 103
f 24 103 106
f 24 106 105
f 24 105 104
f 24 104 88
f 24 88 77
f 24 77 65
f 24 65 52
f 24 52 40
f 24 40 28
f 24 28 27
f 24 27 25
f 25 27 26
f 29 41 30
f 30 41 43
f 30 43 42
f 33 44 34
f 34 44 45
f 34 45 35
f 35 45 46
f 35 46 47
f 35 47 48
f 35 48 49
f 35 49 50
f 35 50 36
f 36 50 38
f 38 50 51
f 40 52 53
f 42 43 55
f 42 55 54
f 44 56 45
f 45 56 57
f 45 57 46
f 46 57 58
f 46 58 47
f 47 58 48
f 48 58 57
f 48 57 59
f 48 60 49
f 49 60 61
f 49 61 62
f 49 62 50
f 50 62 51
f 52 63 64
f 52 64 53
f 52 65 66
f 52 66 67
f 52 67 54
f 52 54 68
f 52 68 69
f 52 69 70
f 52 70 63
f 54 55 71
f 54 71 72
f 54 72 68
f 57 73 74
f 57 74 75
f 57 75 76
f 57 76 59
f 65 77 78
f 65 78 79
f 65 79 80
f 65 80 66
f 66 80 79
f 66 79 78
f 66 78 93
f 66 93 92
f 66 92 91
f 66 91 90
f 66 90 89
f 66 89 107
f 66 107 114
f 66 114 101
f 66 101 100
f 66 100 99
f 66 99 86
f 66 86 85
f 66 85 84
f 66 84 98
f 66 98 113
f 66 113 112
f 66 112 111
f 66 111 110
f 66 110 109
f 66 109 96
f 66 96 94
f 66 94 81
f 66 81 82
f 66 82 67
f 73 83 84
f 73 84 85
f 73 85 86
f 73 86 87
f 73 87 74
f 77 88 89
f 77 89 90
f 77 90 91
f 77 91 92
f 77 92 93
f 77 93 78
f 81 94 82
f 82 94 96
f 82 96 95
f 83 97 98
f 83 98 84
f 86 99 87
f 87 99 100
f 87 100 101
f 87 101 102
f 87 102 103
f 88 104 89
f 89 104 105
f 89 105 106
f 89 106 103
f 89 103 107
f 95 96 109
f 95 109 110
f 95 110 111
f 95 111 108
f 97 111 112
f 97 112 113
f 97 113 98
f 97 108 111
f 101 114 102
f 102 114 103
f 103 114 107
