# Computed Mesh 15
v 1.09275949 0.766020417 0.423981816
v 0.922210515 0.800499022 0.423983425
v 0.862451613 0.770581543 0.423978627
v 0.862431824 0.767540991 0.423975378
v 1.09277046 0.775219858 0.357577026
v 1.09356594 0.890158713 0.423983604
v 1.04175699 0.860285819 0.423986316
v 0.862454116 0.860291481 0.423987389
v 0.843399346 0.83036983 0.421719819
v 0.84338814 0.77058059 0.421706438
v 0.84340018 0.767981172 0.42170459
v 1.0083127 0.797389567 0.201571852
v 1.0952642 1.15911078 0.35758993
v 1.09434271 1.0097363 0.423980474
v 1.01187527 0.949949324 0.423983663
v 0.843401551 0.920031726 0.421721935
v 0.892331064 0.979824424 0.423982888
v 0.862451255 1.15910172 0.423975646
v 0.843396902 1.12922823 0.421714723
v 0.843390644 0.860290647 0.42171523
v 0.828465641 0.770614564 0.408363938
v 0.82846123 0.769928634 0.408358485
v 0.842181921 0.768139184 0.420621693
v 0.828438818 0.860276639 0.408366024
v 0.82844758 0.830355823 0.408370644
v 0.98989141 0.798710406 0.192914993
v 1.00833464 1.27865219 0.201639459
v 1.00833273 0.80047816 0.201581746
v 1.00831819 1.29846847 0.201638162
v 1.09540772 1.18108642 0.358634174
v 1.09488153 1.09267581 0.423976779
v 1.04175413 1.159096 0.423974574
v 0.981966615 1.1292268 0.423976481
v 0.922237039 1.09935725 0.423978329
v 0.843392849 0.949952543 0.421717256
v 0.862431765 1.18761826 0.421716541
v 0.84476161 1.18308508 0.420936346
v 0.843387842 1.15910089 0.421703488
v 0.828445077 1.12921417 0.408365577
v 0.828171074 0.769971132 0.408065736
v 0.815175891 0.77198714 0.394132376
v 0.828441024 0.949938536 0.408368111
v 0.81451261 0.920071959 0.393421054
v 0.979360759 0.799440265 0.188148141
v 0.981976628 1.29983258 0.193045661
v 1.01301682 1.2971921 0.210627303
v 1.02061558 1.29512191 0.225209087
v 1.09550929 1.19603038 0.364764601
v 1.09492481 1.0993464 0.423975438
v 1.09531319 1.15913713 0.423959225
v 1.0954591 1.18179929 0.422172815
v 1.04176366 1.1876123 0.421715409
v 0.892323613 1.20253479 0.419190407
v 0.862439811 1.20254052 0.419156432
v 0.816777945 1.27363193 0.390038013
v 0.828465343 1.15913486 0.408360928
v 0.814507604 1.12922025 0.393407255
v 0.814514816 1.0097338 0.39342308
v 0.814519167 0.800489247 0.393423557
v 0.814508736 0.772092938 0.39340058
v 0.814503551 0.949944615 0.393409729
v 0.953627348 0.79991585 0.185940877
v 0.870453835 1.3005693 0.19303976
v 0.952089667 0.79993391 0.185883433
v 0.922236204 0.800152242 0.185729608
v 1.02148104 1.29097712 0.255086184
v 1.09560335 1.20617366 0.403069437
v 1.09558988 1.20621562 0.384356767
v 1.09558618 1.20617497 0.379693896
v 1.09549642 1.18760419 0.421693295
v 0.981975019 1.20253396 0.419175237
v 0.83256042 1.27345634 0.390553653
v 0.815356672 1.27397799 0.387607813
v 0.814750731 1.18902886 0.392915815
v 0.814527929 1.15914094 0.393402606
v 0.805548787 1.15910482 0.374617875
v 0.805537522 1.09931552 0.374604493
v 0.805535674 1.00970185 0.374609113
v 0.814510107 0.830361903 0.393412262
v 0.805547118 0.774756372 0.374601722
v 0.805531263 0.830377996 0.37460497
v 0.805540323 0.80050534 0.374616235
v 0.832563937 1.30081534 0.19306761
v 0.895544946 0.800317466 0.185807809
v 1.02146626 1.27855968 0.34471941
v 1.09560096 1.20546699 0.40604654
v 1.09557211 1.19958627 0.41875574
v 1.01185882 1.20255268 0.419033468
v 0.975764513 1.27250576 0.39059487
v 0.922237039 1.27285755 0.390604913
v 0.886726141 1.27309227 0.390601724
v 0.86244297 1.27325404 0.39059028
v 0.807786644 1.27582884 0.374607801
v 0.805772066 1.18902409 0.374613076
v 0.799668193 1.28002083 0.34473601
v 0.79965955 1.27869713 0.344731748
v 0.79966259 0.778933764 0.344728321
v 0.799657345 0.800466776 0.344725996
v 0.799654901 1.09932518 0.34472093
v 0.808801591 1.29978478 0.201638356
v 0.892324626 0.800334334 0.185839474
v 0.864211738 0.800476372 0.186153084
v 0.862441957 0.80047977 0.186212927
v 0.835199237 0.800368607 0.188312709
v 0.833226323 0.800284028 0.189017177
v 1.0214082 1.27853572 0.344895244
v 1.09559071 1.2025317 0.418029338
v 0.981973112 1.27246952 0.390561014
v 0.802219689 1.27870154 0.354136825
v 0.799682975 1.2924422 0.255073458
v 0.799660563 1.24878669 0.255086005
v 0.799655199 1.21887517 0.314859778
v 0.799657047 1.18898702 0.344723016
v 0.799677372 0.791351199 0.255095094
v 0.799655497 0.830358982 0.314833492
v 0.808780611 1.2786932 0.201642111
v 0.803083718 1.29774427 0.21664001
v 0.809869587 0.798812568 0.200751111
v 1.01049471 1.27449179 0.374605268
v 0.998190999 1.27243316 0.390051126
v 0.994796574 1.27243483 0.390200078
v 0.799743354 1.29440594 0.240896165
v 0.799812734 1.24880528 0.225204676
v 0.799810231 1.15909517 0.225195929
v 0.799656153 1.0694629 0.255081862
v 0.799707651 0.792462885 0.247069091
v 0.799660742 0.860266447 0.255088985
v 0.808778107 1.1889832 0.201633364
v 0.808778465 0.800471067 0.201577738
v 0.799833 1.29658043 0.225195631
v 0.808795989 0.798705935 0.201572061
v 0.799808085 1.06943333 0.225193858
v 0.799827337 0.795493424 0.225187913
v 0.799813092 0.860284984 0.225207627
v 0.801162422 0.795979857 0.221613362
v 0.799821794 0.830368221 0.225182995
g submesh0
f 1 2 3
f 1 3 4
f 1 4 11
f 1 11 23
f 1 23 22
f 1 22 40
f 1 40 41
f 1 41 60
f 1 60 80
f 1 80 97
f 1 97 114
f 1 114 126
f 1 126 133
f 1 133 135
f 1 135 131
f 1 131 118
f 1 118 105
f 1 105 104
f 1 104 103
f 1 103 102
f 1 102 101
f 1 101 84
f 1 84 65
f 1 65 64
f 1 64 62
f 1 62 44
f 1 44 26
f 1 26 12
f 1 12 5
f 1 5 13
f 1 13 30
f 1 30 48
f 1 48 69
f 1 69 68
f 1 68 67
f 1 67 86
f 1 86 107
f 1 107 87
f 1 87 70
f 1 70 51
f 1 51 50
f 1 50 49
f 1 49 31
f 1 31 14
f 1 14 6
f 1 6 7
f 1 7 8
f 1 8 2
f 2 8 3
f 3 9 10
f 3 10 4
f 3 8 9
f 4 10 11
f 5 12 13
f 6 14 7
f 7 15 8
f 7 14 15
f 8 16 9
f 8 15 17
f 8 17 18
f 8 18 19
f 8 19 16
f 9 16 35
f 9 35 20
f 9 20 10
f 10 21 22
f 10 22 23
f 10 23 11
f 10 20 24
f 10 24 25
f 10 25 21
f 12 26 27
f 12 27 28
f 12 28 13
f 13 27 29
f 13 29 30
f 13 28 27
f 14 31 32
f 14 32 33
f 14 33 34
f 14 34 15
f 15 34 17
f 16 19 35
f 17 34 18
f 18 34 33
f 18 33 32
f 18 32 36
f 18 36 37
f 18 37 38
f 18 38 19
f 19 38 39
f 19 39 42
f 19 42 35
f 20 35 42
f 20 42 24
f 21 40 22
f 21 25 40
f 24 41 40
f 24 40 25
f 24 42 58
f 24 58 43
f 24 43 41
f 26 44 29
f 26 29 27
f 29 45 63
f 29 63 83
f 29 83 100
f 29 100 117
f 29 117 130
f 29 130 122
f 29 122 110
f 29 110 95
f 29 95 109
f 29 109 93
f 29 93 73
f 29 73 55
f 29 55 72
f 29 72 92
f 29 92 91
f 29 91 90
f 29 90 89
f 29 89 108
f 29 108 121
f 29 121 120
f 29 120 119
f 29 119 106
f 29 106 85
f 29 85 66
f 29 66 47
f 29 47 46
f 29 46 30
f 29 44 45
f 30 46 47
f 30 47 48
f 31 49 32
f 32 50 51
f 32 51 52
f 32 52 36
f 32 49 50
f 36 52 53
f 36 53 54
f 36 54 37
f 37 54 55
f 37 55 38
f 38 56 39
f 38 55 56
f 39 56 75
f 39 75 57
f 39 57 58
f 39 58 42
f 41 59 60
f 41 43 59
f 43 58 61
f 43 61 79
f 43 79 59
f 44 62 45
f 45 62 64
f 45 64 65
f 45 65 63
f 47 66 67
f 47 67 68
f 47 68 69
f 47 69 48
f 51 70 52
f 52 70 71
f 52 71 53
f 53 71 72
f 53 72 54
f 54 72 55
f 55 73 74
f 55 74 56
f 56 74 75
f 57 75 76
f 57 76 77
f 57 77 78
f 57 78 61
f 57 61 58
f 59 79 60
f 60 79 81
f 60 81 82
f 60 82 80
f 61 78 81
f 61 81 79
f 63 65 83
f 65 84 83
f 66 85 67
f 67 85 86
f 70 87 88
f 70 88 71
f 71 88 89
f 71 89 90
f 71 90 91
f 71 91 92
f 71 92 72
f 73 93 74
f 74 93 94
f 74 94 75
f 75 94 76
f 76 94 95
f 76 95 96
f 76 96 77
f 77 96 78
f 78 96 81
f 80 82 97
f 81 98 97
f 81 97 82
f 81 96 99
f 81 99 98
f 83 84 101
f 83 101 102
f 83 102 103
f 83 103 104
f 83 104 105
f 83 105 100
f 85 106 107
f 85 107 86
f 87 107 88
f 88 107 108
f 88 108 89
f 93 109 94
f 94 109 95
f 95 110 96
f 96 110 111
f 96 111 112
f 96 112 113
f 96 113 99
f 97 98 115
f 97 115 114
f 98 99 115
f 99 113 112
f 99 112 115
f 100 116 117
f 100 105 118
f 100 118 116
f 106 119 107
f 107 119 120
f 107 120 121
f 107 121 108
f 110 122 111
f 111 122 123
f 111 123 124
f 111 124 132
f 111 132 125
f 111 125 112
f 112 125 115
f 114 115 127
f 114 127 126
f 115 125 127
f 116 128 124
f 116 124 123
f 116 123 117
f 116 118 129
f 116 129 128
f 117 123 130
f 118 131 129
f 122 130 123
f 124 128 129
f 124 129 132
f 125 132 127
f 126 127 134
f 126 134 133
f 127 132 134
f 129 131 135
f 129 135 132
f 132 135 136
f 132 136 134
f 133 134 136
f 133 136 135
