# Computed Mesh 13
v -0.720974267 0.158874929 0.136061221
v -0.721411586 0.0925864354 0.126877829
v -0.720974624 0.158881262 0.135485753
v -0.814944029 0.246112838 -0.193273365
v -0.814197302 0.241963029 -0.163354352
v -0.814202249 0.237825215 -0.133486196
v -0.816883087 0.23370479 -0.103616066
v -0.819440186 0.232567653 -0.0952860713
v -0.823350847 0.230962142 -0.0835107267
v -0.841301799 0.230309576 -0.0779454559
v -0.871188641 0.230382651 -0.077049531
v -0.901045203 0.230562359 -0.0769247711
v -0.722297192 0.158883512 0.13606219
v -0.780189693 0.0524160974 0.121303111
v -0.721471012 0.0925850645 0.0460847877
v -0.721018493 0.158888608 0.0757042542
v -0.721172273 0.158889219 -0.133455798
v -0.721188068 0.158375412 -0.15039812
v -0.820592046 0.249988243 -0.22097823
v -0.904743493 0.23058638 -0.0769220516
v -0.782072246 0.159012675 0.136070237
v -0.930931985 0.230763629 -0.0769541934
v -0.721515 0.0925851315 -0.0137500558
v -1.00070167 0.0538485646 0.121465214
v -0.751764297 0.0875633135 -0.133753777
v -0.721602261 0.0953078791 -0.156567931
v -0.721602917 0.0925994515 -0.133522674
v -0.721580982 0.092592217 -0.103606232
v -0.721299112 0.142904893 -0.164749354
v -0.811403394 0.125006109 -0.401186675
v -0.839381874 0.25191927 -0.234022096
v -0.811960042 0.159034058 0.13606827
v -0.932705879 0.23078227 -0.0770043135
v -1.01972055 0.0833677351 0.125551537
v -1.01271808 0.0880192816 -0.124616928
v -0.75491643 0.0917287543 -0.163671032
v -0.755577326 0.0922315791 -0.167269111
v -0.790638089 0.115605593 -0.334319919
v -0.721498728 0.112874292 -0.170900688
v -0.84128958 0.125570595 -0.403837949
v -0.851619065 0.252048612 -0.234372959
v -0.841306806 0.159037545 0.136063918
v -0.950173914 0.231672049 -0.0825949684
v -1.00683761 0.158371046 0.135944307
v -0.990716994 0.158971682 0.136030167
v -0.960828602 0.159022212 0.136042088
v -0.931481898 0.159033105 0.136048436
v -0.901052654 0.159036964 0.136053994
v -1.02842724 0.112719156 0.12961632
v -1.02287567 0.113014787 -0.133520991
v -1.01313746 0.0892540962 -0.133510232
v -0.902626932 0.125570223 -0.400913984
v -0.937129915 0.252582729 -0.234155864
v -0.925614238 0.252515048 -0.234215736
v -0.913527191 0.252443671 -0.234276026
v -0.901049376 0.252369732 -0.234336615
v -0.860819638 0.252129763 -0.234520406
v -0.950414419 0.231723458 -0.0829546377
v -1.01785457 0.142880991 0.133796558
v -0.958168626 0.234359086 -0.101610117
v -0.958619297 0.234639764 -0.103614695
v -0.961832464 0.238036439 -0.1279798
v -0.961823761 0.245314986 -0.180518985
v -1.01745999 0.142909423 0.0159121808
v -1.01706684 0.142906576 -0.103653118
v -1.01696849 0.142905906 -0.133518234
v -1.01805663 0.113005094 -0.163334206
v -1.01238155 0.0928315148 -0.159369096
v -0.930920362 0.125568852 -0.399556577
v -0.944707215 0.252261639 -0.231477067
v -0.960837483 0.125435576 -0.397169828
v -0.960799456 0.247074574 -0.19326897
v -0.957609653 0.249283016 -0.209362075
v -1.01193535 0.143264398 -0.161551356
v -1.01189983 0.0933839008 -0.163379297
v -0.986678004 0.114771001 -0.318958998
v -0.953308165 0.250885993 -0.221137702
g submesh0
f 1 2 15
f 1 15 23
f 1 23 28
f 1 28 27
f 1 27 26
f 1 26 39
f 1 39 29
f 1 29 18
f 1 18 17
f 1 17 16
f 1 16 3
f 1 3 4
f 1 4 5
f 1 5 6
f 1 6 7
f 1 7 8
f 1 8 9
f 1 9 10
f 1 10 11
f 1 11 12
f 1 12 20
f 1 20 13
f 1 13 21
f 1 21 32
f 1 32 42
f 1 42 48
f 1 48 47
f 1 47 46
f 1 46 45
f 1 45 44
f 1 44 59
f 1 59 49
f 1 49 34
f 1 34 24
f 1 24 14
f 1 14 2
f 2 14 15
f 3 16 4
f 4 17 18
f 4 18 19
f 4 19 31
f 4 31 41
f 4 41 57
f 4 57 56
f 4 56 55
f 4 55 54
f 4 54 53
f 4 53 70
f 4 70 77
f 4 77 73
f 4 73 72
f 4 72 63
f 4 63 62
f 4 62 61
f 4 61 60
f 4 60 58
f 4 58 43
f 4 43 33
f 4 33 22
f 4 22 20
f 4 20 12
f 4 12 11
f 4 11 10
f 4 10 9
f 4 9 8
f 4 8 7
f 4 7 6
f 4 6 5
f 4 16 17
f 13 20 22
f 13 22 21
f 14 23 15
f 14 24 35
f 14 35 51
f 14 51 68
f 14 68 75
f 14 75 76
f 14 76 71
f 14 71 69
f 14 69 52
f 14 52 40
f 14 40 30
f 14 30 38
f 14 38 37
f 14 37 36
f 14 36 25
f 14 25 26
f 14 26 27
f 14 27 28
f 14 28 23
f 18 29 30
f 18 30 19
f 19 30 31
f 21 22 33
f 21 33 32
f 24 34 35
f 25 36 26
f 26 36 37
f 26 37 38
f 26 38 30
f 26 30 39
f 29 39 30
f 30 40 31
f 31 40 41
f 32 33 42
f 33 43 44
f 33 44 45
f 33 45 46
f 33 46 47
f 33 47 48
f 33 48 42
f 34 49 50
f 34 50 51
f 34 51 35
f 40 52 53
f 40 53 54
f 40 54 55
f 40 55 56
f 40 56 57
f 40 57 41
f 43 58 44
f 44 58 60
f 44 60 61
f 44 61 62
f 44 62 63
f 44 63 59
f 49 59 64
f 49 64 65
f 49 65 66
f 49 66 50
f 50 66 67
f 50 67 68
f 50 68 51
f 52 69 53
f 53 69 71
f 53 71 70
f 59 63 64
f 63 72 66
f 63 66 65
f 63 65 64
f 66 72 73
f 66 73 74
f 66 74 67
f 67 75 68
f 67 74 76
f 67 76 75
f 70 71 77
f 71 76 73
f 71 73 77
f 73 76 74
