# Computed Mesh 2
v 1.09045196 0.4134323 0.374621779
v 1.28782392 0.411514372 0.374541312
v 1.09045875 0.411093444 0.404512972
v 1.09051323 0.424657732 0.35863477
v 1.2878803 0.42223385 0.356550157
v 1.28784347 0.411122769 0.404515684
v 1.2808677 0.411091238 0.40451017
v 1.22110164 0.411092728 0.404517502
v 1.2879287 0.42229417 0.421722353
v 1.19119787 0.422305226 0.421724856
v 1.13145113 0.422308892 0.421715498
v 1.09054446 0.422341675 0.42173031
v 1.090554 0.430980921 0.358238369
v 1.28800595 0.441805333 0.354409397
v 1.28805709 0.441806525 0.423967451
v 1.28086925 0.44185093 0.423989415
v 1.16133726 0.441856295 0.423987359
v 1.09062576 0.434681326 0.423151404
v 1.09062386 0.441806048 0.357583433
v 1.28820038 0.471749127 0.354316413
v 1.28810394 0.449013084 0.423981816
v 1.16133904 0.50164187 0.423990756
v 1.29019332 0.770651937 0.423989683
v 1.29271686 1.15912664 0.423993707
v 1.22110403 1.0993427 0.423995733
v 1.10155451 1.15913379 0.423997104
v 1.10155189 0.441860229 0.423978031
v 1.09099257 0.491057992 0.423988938
v 1.09067297 0.44185403 0.423975378
v 1.28858829 0.531478405 0.354142398
v 1.28834593 0.494167447 0.354249656
v 1.0941664 0.987141788 0.357602865
v 1.29266405 1.15909243 0.352412224
v 1.29258811 1.14741623 0.35242334
v 1.29162359 0.998880327 0.352831751
v 1.09157896 0.581320763 0.42399013
v 1.29289997 1.18756974 0.421724826
v 1.19122267 1.18761301 0.421731025
v 1.09551585 1.1876173 0.421732783
v 1.09533226 1.15909731 0.423991024
v 1.09513831 1.12924421 0.423994839
v 1.09513092 1.13562012 0.357610583
v 1.09528363 1.1591239 0.357626349
v 1.09542692 1.18107784 0.358648896
v 1.29275048 1.17232537 0.353040963
v 1.29293835 1.1936239 0.420442849
v 1.2509886 1.18761146 0.421723694
v 1.09561002 1.20254457 0.418049514
v 1.09552824 1.19597912 0.364767969
v 1.29288709 1.19286561 0.357481241
v 1.29282963 1.18441284 0.35401994
v 1.29299474 1.20254862 0.418235302
v 1.2930094 1.20550287 0.412180811
v 1.29301751 1.20775223 0.403297186
v 1.09562278 1.20618296 0.403098166
v 1.0955441 1.1980679 0.367788792
v 1.29301119 1.20974433 0.377039433
v 1.29292536 1.19806802 0.363478184
v 1.2930212 1.20982075 0.390062392
v 1.09560573 1.20620871 0.379723489
g submesh0
f 1 2 3
f 1 3 12
f 1 12 18
f 1 18 29
f 1 29 28
f 1 28 36
f 1 36 41
f 1 41 40
f 1 40 39
f 1 39 48
f 1 48 55
f 1 55 60
f 1 60 56
f 1 56 49
f 1 49 44
f 1 44 43
f 1 43 42
f 1 42 32
f 1 32 19
f 1 19 13
f 1 13 4
f 1 4 5
f 1 5 2
f 2 6 7
f 2 7 3
f 2 5 14
f 2 14 20
f 2 20 31
f 2 31 30
f 2 30 35
f 2 35 34
f 2 34 33
f 2 33 45
f 2 45 51
f 2 51 50
f 2 50 58
f 2 58 57
f 2 57 59
f 2 59 54
f 2 54 53
f 2 53 52
f 2 52 46
f 2 46 37
f 2 37 24
f 2 24 23
f 2 23 21
f 2 21 15
f 2 15 9
f 2 9 6
f 3 7 8
f 3 8 9
f 3 9 10
f 3 10 11
f 3 11 12
f 4 13 14
f 4 14 5
f 6 9 7
f 7 9 8
f 9 15 16
f 9 16 10
f 10 12 11
f 10 16 12
f 12 16 17
f 12 17 18
f 13 19 14
f 14 19 20
f 15 21 16
f 16 22 17
f 16 21 23
f 16 23 24
f 16 24 25
f 16 25 26
f 16 26 22
f 17 27 18
f 17 22 28
f 17 28 27
f 18 27 29
f 19 30 31
f 19 31 20
f 19 32 33
f 19 33 34
f 19 34 35
f 19 35 30
f 22 36 28
f 22 26 36
f 24 37 38
f 24 38 39
f 24 39 26
f 24 26 25
f 26 39 40
f 26 40 41
f 26 41 36
f 27 28 29
f 32 42 33
f 33 42 43
f 33 43 44
f 33 44 45
f 37 46 47
f 37 47 38
f 38 47 46
f 38 46 39
f 39 46 48
f 44 49 50
f 44 50 51
f 44 51 45
f 46 52 48
f 48 52 53
f 48 53 54
f 48 54 55
f 49 56 57
f 49 57 58
f 49 58 50
f 54 59 55
f 55 59 60
f 56 60 57
f 57 60 59
