# Computed Mesh 0
v -0.24271214 -0.0397634208 -0.00129902177
v -0.259249717 -0.0375976413 -0.0601274557
v -0.436831564 -0.0395944044 0.0124228336
v -0.283996612 -0.0421355218 0.0680816546
v -0.0213487521 -0.283469737 0.0555826724
v -0.0193282124 -0.267920345 -0.0222759005
v -0.312225938 -0.0731102377 -0.0810665116
v -0.0355052613 -0.335457176 -0.0767258704
v -0.430556417 -0.0928007066 -0.0178239364
v -0.396269172 -0.155890256 0.0372684561
v -0.407491684 -0.0855588242 0.0523986109
v -0.357955277 -0.0509083308 0.0761092678
v -0.39452976 -0.10288994 -0.0629869923
v -0.037221916 -0.358469993 0.0726949573
v -0.0460185818 -0.405950516 -0.0680816099
v -0.251546502 -0.208356708 -0.0787198246
v -0.355863243 -0.193432435 -0.0638191476
v -0.175018609 -0.288599491 -0.0769522414
v -0.371969372 -0.229688972 0.0248001702
v -0.342285097 -0.267896831 -0.033022102
v -0.302188694 -0.270407796 0.0585217215
v -0.231924087 -0.282576233 0.0715695247
v -0.234530866 -0.218685776 0.0761974901
v -0.238630831 -0.343677044 0.0571660139
v -0.0841225535 -0.42559579 0.0501497388
v -0.104450755 -0.440384954 -0.0210286938
v -0.19110781 -0.391098201 -0.0459713824
v -0.253492504 -0.29607141 -0.0690010041
v -0.255859464 -0.36928317 -0.00071155309
v -0.186375141 -0.387457967 0.0444219746
g submesh0
f 1 2 3
f 1 3 4
f 1 4 5
f 1 5 6
f 1 6 2
f 2 7 3
f 2 6 8
f 2 8 7
f 3 9 10
f 3 10 11
f 3 11 12
f 3 12 4
f 3 7 13
f 3 13 9
f 4 12 14
f 4 14 5
f 5 14 15
f 5 15 6
f 6 15 8
f 7 8 16
f 7 16 17
f 7 17 13
f 8 15 18
f 8 18 16
f 9 19 10
f 9 13 17
f 9 17 20
f 9 20 19
f 10 19 21
f 10 21 11
f 11 21 12
f 12 21 22
f 12 22 23
f 12 23 14
f 14 23 22
f 14 22 24
f 14 24 25
f 14 25 15
f 15 25 26
f 15 26 27
f 15 27 28
f 15 28 18
f 16 18 28
f 16 28 17
f 17 28 20
f 19 20 29
f 19 29 24
f 19 24 21
f 20 28 27
f 20 27 29
f 21 24 22
f 24 29 30
f 24 30 25
f 25 30 26
f 26 30 29
f 26 29 27
