# Computed Mesh 9
v -0.871170044 0.783334017 0.176877812
v -0.894397855 0.78331542 0.176871404
v -0.841292977 0.781727791 0.17666021
v -0.841282248 0.28142783 -0.21131438
v -0.851621032 0.252108723 -0.234391257
v -0.860798478 0.252186328 -0.234514296
v -0.925606906 0.252571374 -0.234207094
v -0.901057839 0.783302248 0.176868483
v -0.82250309 0.770760536 0.175143957
v -0.825294375 0.667254508 0.0896443725
v -0.831576526 0.516329229 -0.0286470558
v -0.839359641 0.251975149 -0.234010935
v -0.937123358 0.252637178 -0.234133735
v -0.923560143 0.782601118 0.176767647
v -0.82240063 0.770477414 0.175104752
v -0.822444975 0.770543218 0.175047711
v -0.823557079 0.699899733 0.117380105
v -0.824385941 0.549017906 -0.00106974307
v -0.824484766 0.279943675 -0.210128397
v -0.825408518 0.39812842 -0.119454533
v -0.821906328 0.262488008 -0.216811836
v -0.820589721 0.250041842 -0.220949739
v -0.944722116 0.252317995 -0.231467724
v -0.948368967 0.28028506 -0.210432202
v -0.947280943 0.398504227 -0.11968711
v -0.946029484 0.516670346 -0.0289824102
v -0.930936813 0.782366633 0.176733941
v -0.813116431 0.741440117 0.171083584
v -0.822961569 0.581656158 0.0267311167
v -0.82301569 0.312586159 -0.182360023
v -0.823626161 0.430829823 -0.0917110145
v -0.820795536 0.290862411 -0.192710012
v -0.814932883 0.246166602 -0.193246573
v -0.815825224 0.262467861 -0.193270028
v -0.953335047 0.250940114 -0.221111715
v -0.951722622 0.262494892 -0.21732828
v -0.950072825 0.313018024 -0.182751
v -0.94934243 0.431244075 -0.0920380875
v -0.948463798 0.549356043 -0.00134094735
v -0.947405577 0.667579889 0.0893717408
v -0.94181937 0.781420588 0.176601082
v -0.811247885 0.710756421 0.166833103
v -0.814730167 0.292342275 -0.163372114
v -0.814192832 0.242022172 -0.163366035
v -0.814200878 0.322276801 -0.133465961
v -0.814194262 0.262461007 -0.163378298
v -0.957627833 0.249336421 -0.209331319
v -0.953068614 0.291075289 -0.192933783
v -0.959690154 0.753293931 0.172701597
v -0.951086223 0.772443116 0.175355867
v -0.949437261 0.700314999 0.117053166
v -0.812628984 0.621123135 0.154415458
v -0.814194858 0.262468547 -0.103592388
v -0.814182878 0.23788248 -0.133484975
v -0.960803807 0.247127682 -0.193236679
v -0.95970577 0.262494296 -0.193257019
v -0.954749107 0.322708547 -0.16437988
v -0.963083088 0.713267803 0.167155996
v -0.960994422 0.292384088 -0.163357362
v -0.813467085 0.591191232 0.150268689
v -0.814261854 0.292350382 -0.0736936256
v -0.816869557 0.233755812 -0.103569478
v -0.961833954 0.245367959 -0.180485368
v -0.962345183 0.608313203 0.152616143
v -0.961791515 0.322270781 -0.133458048
v -0.961838245 0.241731763 -0.15423803
v -0.961827695 0.238095477 -0.127990708
v -0.961830258 0.262462795 -0.103584446
v -0.815913856 0.561326385 0.146130934
v -0.814267755 0.561350822 0.135487065
v -0.814558804 0.441826016 0.0458177552
v -0.814984381 0.322241098 -0.0438268147
v -0.819418609 0.232617229 -0.0952294469
v -0.816213489 0.352135062 -0.0139596108
v -0.819735587 0.292640656 -0.043530412
v -0.81911242 0.2611022 -0.0723028407
v -0.961605668 0.573626399 0.147810906
v -0.961829245 0.411936492 0.0159267373
v -0.958613694 0.23469457 -0.103595048
v -0.961629033 0.29234302 -0.0736858621
v -0.820036829 0.532602131 0.142150924
v -0.819133162 0.530098259 0.136910304
v -0.817047179 0.501548648 0.105609201
v -0.815564394 0.47171405 0.0757172629
v -0.822391748 0.270176351 -0.0532893948
v -0.823045015 0.232602283 -0.0828981772
v -0.823353708 0.231011212 -0.083449319
v -0.819344759 0.4114061 0.046628885
v -0.820444763 0.442947656 0.0754016861
v -0.822784603 0.421052635 0.0652586967
v -0.960011482 0.471687615 0.0757228434
v -0.958275735 0.501557827 0.105620295
v -0.955168545 0.535343945 0.142508492
v -0.960697472 0.322283834 -0.0438449085
v -0.959259689 0.352156013 -0.0139472391
v -0.958181918 0.234408602 -0.101551399
v -0.841291726 0.508677363 0.138832986
v -0.826103806 0.486382544 0.120767601
v -0.82312572 0.501555741 0.126209855
v -0.824131429 0.453708827 0.0930615813
v -0.823336661 0.302760065 -0.0253972933
v -0.841292441 0.230363637 -0.0779206306
v -0.824980974 0.33548364 0.00234875781
v -0.954380274 0.292388141 -0.0431907773
v -0.954942942 0.411146313 0.047066547
v -0.954193473 0.531835496 0.142022595
v -0.953480005 0.442750156 0.0756830648
v -0.950437725 0.231773823 -0.0829016864
v -0.950929582 0.269622356 -0.0527259968
v -0.871178508 0.506555617 0.138534114
v -0.841287494 0.334316045 0.00324244029
v -0.841290414 0.300180644 -0.0233767759
v -0.871178687 0.232563525 -0.0753391832
v -0.871178865 0.230436429 -0.0770226792
v -0.950304091 0.501544237 0.12694782
v -0.946460783 0.486050725 0.120999366
v -0.939084291 0.511741519 0.139241368
v -0.950353682 0.420566708 0.0656993985
v -0.950184584 0.231722742 -0.0825449824
v -0.949683607 0.302336127 -0.025046967
v -0.892424822 0.506524146 0.138526261
v -0.901051283 0.232583582 -0.0753082633
v -0.875186563 0.230457962 -0.0769872889
v -0.948779881 0.453282952 0.0933457464
v -0.930948257 0.507395744 0.138640657
v -0.947781622 0.335106701 0.00260696746
v -0.932724535 0.230836228 -0.0769774392
v -0.930943489 0.265669942 -0.0496659689
v -0.901051462 0.506523728 0.138524771
v -0.930936694 0.230815634 -0.076913856
v -0.904745162 0.230636492 -0.0768682137
v -0.901050329 0.230612487 -0.0768709257
v -0.921459734 0.507051706 0.138594553
g submesh0
f 1 2 8
f 1 8 14
f 1 14 27
f 1 27 41
f 1 41 50
f 1 50 49
f 1 49 58
f 1 58 64
f 1 64 77
f 1 77 93
f 1 93 106
f 1 106 117
f 1 117 125
f 1 125 133
f 1 133 129
f 1 129 121
f 1 121 110
f 1 110 97
f 1 97 81
f 1 81 69
f 1 69 60
f 1 60 52
f 1 52 42
f 1 42 28
f 1 28 15
f 1 15 9
f 1 9 3
f 1 3 4
f 1 4 5
f 1 5 6
f 1 6 7
f 1 7 2
f 2 7 8
f 3 9 10
f 3 10 11
f 3 11 4
f 4 12 5
f 4 11 12
f 5 12 22
f 5 22 33
f 5 33 44
f 5 44 54
f 5 54 62
f 5 62 73
f 5 73 87
f 5 87 102
f 5 102 114
f 5 114 123
f 5 123 132
f 5 132 131
f 5 131 130
f 5 130 127
f 5 127 119
f 5 119 108
f 5 108 96
f 5 96 79
f 5 79 67
f 5 67 66
f 5 66 63
f 5 63 55
f 5 55 47
f 5 47 35
f 5 35 23
f 5 23 13
f 5 13 7
f 5 7 6
f 7 13 8
f 8 13 14
f 9 15 16
f 9 16 17
f 9 17 10
f 10 17 18
f 10 18 19
f 10 19 20
f 10 20 11
f 11 20 12
f 12 20 19
f 12 19 21
f 12 21 22
f 13 23 24
f 13 24 25
f 13 25 26
f 13 26 27
f 13 27 14
f 15 28 16
f 16 28 17
f 17 28 29
f 17 29 30
f 17 30 31
f 17 31 18
f 18 31 19
f 19 30 21
f 19 31 30
f 21 30 32
f 21 32 22
f 22 32 34
f 22 34 33
f 23 35 36
f 23 36 24
f 24 36 37
f 24 37 38
f 24 38 51
f 24 51 39
f 24 39 40
f 24 40 25
f 25 40 26
f 26 40 41
f 26 41 27
f 28 42 43
f 28 43 34
f 28 34 32
f 28 32 30
f 28 30 29
f 33 34 43
f 33 43 45
f 33 45 46
f 33 46 44
f 35 47 48
f 35 48 36
f 36 48 37
f 37 48 49
f 37 49 38
f 38 49 50
f 38 50 51
f 39 51 40
f 40 51 50
f 40 50 41
f 42 52 53
f 42 53 54
f 42 54 44
f 42 44 46
f 42 46 45
f 42 45 43
f 47 55 56
f 47 56 48
f 48 56 57
f 48 57 49
f 49 57 56
f 49 56 59
f 49 59 58
f 52 60 61
f 52 61 53
f 53 61 62
f 53 62 54
f 55 63 59
f 55 59 56
f 58 59 65
f 58 65 63
f 58 63 66
f 58 66 67
f 58 67 68
f 58 68 64
f 59 63 65
f 60 69 70
f 60 70 71
f 60 71 61
f 61 71 72
f 61 72 62
f 62 72 74
f 62 74 75
f 62 75 76
f 62 76 73
f 64 68 78
f 64 78 77
f 67 79 68
f 68 79 80
f 68 80 78
f 69 81 82
f 69 82 83
f 69 83 84
f 69 84 70
f 70 84 71
f 71 84 72
f 72 84 74
f 73 76 75
f 73 75 85
f 73 85 86
f 73 86 87
f 74 84 75
f 75 84 88
f 75 88 89
f 75 89 90
f 75 90 85
f 77 91 92
f 77 92 93
f 77 78 80
f 77 80 94
f 77 94 95
f 77 95 91
f 79 96 94
f 79 94 80
f 81 97 98
f 81 98 99
f 81 99 100
f 81 100 90
f 81 90 89
f 81 89 82
f 82 89 88
f 82 88 83
f 83 88 84
f 85 90 101
f 85 101 87
f 85 87 86
f 87 101 103
f 87 103 102
f 90 100 101
f 91 95 92
f 92 95 96
f 92 96 104
f 92 104 105
f 92 105 93
f 93 105 104
f 93 104 107
f 93 107 106
f 94 96 95
f 96 108 109
f 96 109 104
f 97 110 111
f 97 111 98
f 98 100 99
f 98 111 112
f 98 112 102
f 98 102 103
f 98 103 100
f 100 103 101
f 102 112 113
f 102 113 114
f 104 109 107
f 106 115 116
f 106 116 117
f 106 107 118
f 106 118 115
f 107 109 118
f 108 119 109
f 109 120 118
f 109 119 120
f 110 121 113
f 110 113 112
f 110 112 111
f 113 122 123
f 113 123 114
f 113 121 122
f 115 124 116
f 115 118 124
f 116 125 117
f 116 124 126
f 116 126 127
f 116 127 128
f 116 128 125
f 118 120 124
f 119 127 126
f 119 126 120
f 120 126 124
f 121 129 122
f 122 128 130
f 122 130 131
f 122 131 132
f 122 132 123
f 122 129 128
f 125 128 133
f 127 130 128
f 128 129 133
