# Computed Mesh 11
v 0.922204256 0.781746864 0.175755784
v 0.901769876 0.781764746 0.17575489
v 0.932194531 0.781452179 0.175716594
v 0.957858503 0.247531369 -0.238062233
v 0.93793416 0.247550488 -0.238096491
v 0.892332792 0.78176856 0.175753862
v 0.952084661 0.780805826 0.175630331
v 0.967141628 0.516589284 -0.0289778225
v 0.968362868 0.398436457 -0.119694419
v 0.969404161 0.280284822 -0.210410878
v 0.962539852 0.240926489 -0.240490332
v 0.953583658 0.241300195 -0.242761329
v 0.922197998 0.241508663 -0.242771268
v 0.89232415 0.247559473 -0.238102764
v 0.872747838 0.780918956 0.175632924
v 0.877275705 0.247537673 -0.23807463
v 0.862437844 0.281537324 -0.21139881
v 0.970666289 0.770572126 0.174215659
v 0.968479455 0.667553902 0.0893967077
v 0.971077144 0.312982917 -0.182735175
v 0.972599149 0.262475878 -0.21728459
v 0.96950525 0.549344897 -0.00132768031
v 0.970366418 0.431189865 -0.0920110047
v 0.975709617 0.238705412 -0.225085154
v 0.883085966 0.241739869 -0.242577478
v 0.862436831 0.780353904 0.175552949
v 0.857349813 0.247281224 -0.237810671
v 0.850339711 0.516401231 -0.0288212784
v 0.971827745 0.769243002 0.17403172
v 0.970437944 0.700307608 0.117080189
v 0.973912954 0.291064799 -0.192903206
v 0.971133649 0.582100749 0.0263560042
v 0.971694827 0.463947684 -0.0643270835
v 0.980752826 0.741661668 0.170212194
v 0.982065618 0.23425588 -0.193269804
v 0.980178535 0.262494326 -0.193260536
v 0.861016989 0.241805494 -0.242000103
v 0.853533804 0.779434979 0.175424173
v 0.84713763 0.240368322 -0.230965137
v 0.842745602 0.262473881 -0.217003495
v 0.845475137 0.280023545 -0.210232005
v 0.846430004 0.398281753 -0.119534098
v 0.846321106 0.66734314 0.0895492584
v 0.971736312 0.733065546 0.14476411
v 0.975504816 0.322697788 -0.164298549
v 0.983399749 0.710788429 0.165935576
v 0.981429815 0.292367697 -0.163352162
v 0.982183576 0.232558578 -0.181023806
v 0.982170999 0.322248936 -0.133476451
v 0.844528615 0.700059175 0.117260501
v 0.844123065 0.769785285 0.174085796
v 0.840190351 0.239530891 -0.224589422
v 0.841568232 0.290982306 -0.192768246
v 0.843952596 0.312733263 -0.182487935
v 0.844607472 0.430998027 -0.0918228179
v 0.845396578 0.549142241 -0.0011407343
v 0.983140111 0.650974154 0.15764913
v 0.982188702 0.232590035 -0.133483559
v 0.982195616 0.230112016 -0.163364381
v 0.83509016 0.751456738 0.171545148
v 0.842878461 0.767609894 0.173784226
v 0.839244723 0.239107177 -0.221485943
v 0.836266756 0.262505263 -0.193249092
v 0.982928038 0.621096253 0.153509945
v 0.982179761 0.262471586 -0.103574291
v 0.981830657 0.225975946 -0.133491576
v 0.832307041 0.711655021 0.166030735
v 0.835132241 0.292341173 -0.163379952
v 0.834694266 0.235226944 -0.193260506
v 0.98225081 0.591221452 0.149371088
v 0.982001543 0.561343789 0.135509461
v 0.982188344 0.411940396 0.0159384906
v 0.982035816 0.292358577 -0.0736979172
v 0.97889477 0.232568353 -0.103579558
v 0.976289809 0.221942097 -0.104110122
v 0.833017349 0.641951263 0.156374395
v 0.834553599 0.322283953 -0.133462295
v 0.834543884 0.234903246 -0.190916806
v 0.834520161 0.227627963 -0.13840057
v 0.979967892 0.561299562 0.145225465
v 0.980475128 0.471719056 0.0757253319
v 0.981624305 0.441830128 0.0458151959
v 0.981141686 0.322255015 -0.0438539907
v 0.979752541 0.352145523 -0.0139436796
v 0.975171864 0.29239732 -0.0432141796
v 0.971881568 0.269671381 -0.0527550355
v 0.97131896 0.232600525 -0.0823147073
v 0.968335629 0.21963416 -0.0870719776
v 0.833388507 0.607243061 0.151566118
v 0.834774375 0.226944968 -0.133482531
v 0.834546983 0.262453824 -0.103601083
v 0.97514993 0.531451583 0.141089663
v 0.975976288 0.529747546 0.137287691
v 0.978800535 0.501558542 0.105594851
v 0.975679517 0.411138296 0.0469786189
v 0.974300742 0.442781419 0.0756514594
v 0.971328676 0.420586258 0.0656459704
v 0.970689118 0.302388102 -0.0250772145
v 0.952087402 0.219529361 -0.0855416581
v 0.968836963 0.335166574 0.00260902755
v 0.967563927 0.48609072 0.120977536
v 0.834180117 0.572589397 0.146765485
v 0.834628403 0.292392224 -0.0736838952
v 0.836961329 0.223976687 -0.112160757
v 0.952088714 0.506261528 0.137596145
v 0.971224248 0.50153321 0.126851723
v 0.969806492 0.453362584 0.0933319703
v 0.922202051 0.21969606 -0.0853216499
v 0.922195017 0.505191624 0.137442991
v 0.839797437 0.534859121 0.141539425
v 0.835384548 0.322277933 -0.0438411832
v 0.840472996 0.292552769 -0.0434167162
v 0.83946538 0.22284463 -0.104108565
v 0.892331719 0.219871819 -0.0851676464
v 0.892323554 0.505213261 0.137441069
v 0.84122175 0.442859739 0.0755058005
v 0.843727052 0.420877159 0.0653960779
v 0.840557933 0.531866312 0.141124934
v 0.843589187 0.221148744 -0.0920635611
v 0.843289852 0.269986987 -0.0531361997
v 0.868777573 0.220038548 -0.0852493718
v 0.870681107 0.506330729 0.137592316
v 0.862431467 0.220093489 -0.0853437334
v 0.844302773 0.302661955 -0.0252619758
v 0.845115066 0.453567982 0.0931380242
v 0.844010949 0.501552582 0.126429752
v 0.84716326 0.486259103 0.120846443
v 0.854287267 0.51160866 0.138320789
v 0.846363842 0.220435649 -0.0870483369
v 0.862433374 0.506958902 0.137677982
v 0.850174308 0.220232561 -0.0857638344
v 0.846005917 0.335355312 0.00244671735
g submesh0
f 1 2 6
f 1 6 15
f 1 15 26
f 1 26 38
f 1 38 51
f 1 51 61
f 1 61 60
f 1 60 67
f 1 67 76
f 1 76 89
f 1 89 102
f 1 102 110
f 1 110 118
f 1 118 128
f 1 128 130
f 1 130 122
f 1 122 115
f 1 115 109
f 1 109 105
f 1 105 92
f 1 92 80
f 1 80 70
f 1 70 64
f 1 64 57
f 1 57 46
f 1 46 34
f 1 34 29
f 1 29 18
f 1 18 7
f 1 7 3
f 1 3 4
f 1 4 5
f 1 5 2
f 2 5 6
f 3 7 4
f 4 7 8
f 4 8 9
f 4 9 10
f 4 10 11
f 4 11 12
f 4 12 13
f 4 13 5
f 5 13 14
f 5 14 6
f 6 14 16
f 6 16 17
f 6 17 15
f 7 18 19
f 7 19 8
f 8 19 9
f 9 19 10
f 10 20 21
f 10 21 11
f 10 19 22
f 10 22 23
f 10 23 20
f 11 24 35
f 11 35 48
f 11 48 59
f 11 59 66
f 11 66 75
f 11 75 88
f 11 88 99
f 11 99 108
f 11 108 114
f 11 114 121
f 11 121 123
f 11 123 131
f 11 131 129
f 11 129 119
f 11 119 113
f 11 113 104
f 11 104 90
f 11 90 79
f 11 79 78
f 11 78 69
f 11 69 62
f 11 62 52
f 11 52 39
f 11 39 37
f 11 37 25
f 11 25 13
f 11 13 12
f 11 21 24
f 13 25 14
f 14 25 16
f 15 17 27
f 15 27 28
f 15 28 26
f 16 25 27
f 16 27 17
f 18 29 30
f 18 30 19
f 19 30 22
f 20 31 21
f 20 23 30
f 20 30 32
f 20 32 33
f 20 33 34
f 20 34 31
f 21 31 24
f 22 30 23
f 24 31 36
f 24 36 35
f 25 37 27
f 26 28 38
f 27 37 39
f 27 39 40
f 27 40 41
f 27 41 42
f 27 42 28
f 28 43 38
f 28 42 43
f 29 34 44
f 29 44 30
f 30 44 32
f 31 45 36
f 31 34 45
f 32 44 33
f 33 44 34
f 34 46 47
f 34 47 36
f 34 36 45
f 35 36 47
f 35 47 49
f 35 49 46
f 35 46 48
f 38 43 50
f 38 50 51
f 39 52 40
f 40 53 54
f 40 54 41
f 40 52 53
f 41 54 55
f 41 55 56
f 41 56 42
f 42 56 43
f 43 56 50
f 46 57 58
f 46 58 59
f 46 59 48
f 46 49 47
f 50 60 61
f 50 61 51
f 50 56 55
f 50 55 60
f 52 62 53
f 53 62 63
f 53 63 60
f 53 60 54
f 54 60 55
f 57 64 65
f 57 65 58
f 58 65 66
f 58 66 59
f 60 63 68
f 60 68 67
f 62 69 63
f 63 69 68
f 64 70 71
f 64 71 72
f 64 72 73
f 64 73 65
f 65 73 66
f 66 73 74
f 66 74 75
f 67 68 77
f 67 77 78
f 67 78 79
f 67 79 76
f 68 69 78
f 68 78 77
f 70 80 71
f 71 80 81
f 71 81 82
f 71 82 73
f 71 73 72
f 73 82 83
f 73 83 74
f 74 83 84
f 74 84 85
f 74 85 75
f 75 85 86
f 75 86 87
f 75 87 88
f 76 79 89
f 79 90 91
f 79 91 89
f 80 92 93
f 80 93 94
f 80 94 81
f 81 94 84
f 81 84 83
f 81 83 82
f 84 94 85
f 85 94 95
f 85 95 96
f 85 96 86
f 86 88 87
f 86 96 97
f 86 97 98
f 86 98 88
f 88 98 100
f 88 100 101
f 88 101 99
f 89 91 103
f 89 103 102
f 90 104 103
f 90 103 91
f 92 105 101
f 92 101 106
f 92 106 97
f 92 97 96
f 92 96 93
f 93 96 95
f 93 95 94
f 97 106 107
f 97 107 98
f 98 107 100
f 99 101 105
f 99 105 109
f 99 109 108
f 100 107 101
f 101 107 106
f 102 103 111
f 102 111 104
f 102 104 112
f 102 112 110
f 103 104 111
f 104 113 112
f 108 109 114
f 109 115 114
f 110 116 117
f 110 117 118
f 110 112 116
f 112 113 119
f 112 119 120
f 112 120 117
f 112 117 116
f 114 115 121
f 115 122 123
f 115 123 121
f 117 120 124
f 117 124 125
f 117 125 118
f 118 125 126
f 118 126 127
f 118 127 128
f 119 129 120
f 120 129 124
f 122 130 127
f 122 127 131
f 122 131 123
f 124 129 132
f 124 132 125
f 125 127 126
f 125 132 127
f 127 130 128
f 127 132 129
f 127 129 131
