# Computed Mesh 4
v -0.221060112 -0.49824515 -0.0265213959
v -0.218538508 -1.00120568 -0.0677146614
v -0.21854414 -1.01544094 -0.0647214055
v -0.21854189 -1.0208236 -0.0511854924
v -0.218535483 -1.0225513 -0.0307209902
v -0.22104679 -0.498884022 0.0120538529
v -0.220877811 -0.105295345 -0.03349334
v -0.218528613 -0.98037827 -0.0674295202
v -0.218152121 -1.0012058 -0.0677147955
v -0.22086814 -0.0845584646 -0.0337307826
v -0.220866829 -0.0817814693 -0.033693336
v -0.218157768 -1.01544118 -0.0647215396
v -0.218155518 -1.02082372 -0.0511856265
v -0.113970958 -1.02260721 -0.0303479601
v -0.218528166 -1.02290237 -0.00952467136
v -0.176475242 -1.02084363 -0.0511832535
v -0.220854476 -0.105300009 0.0326756872
v -0.218519032 -1.01735604 0.00898450892
v -0.218508303 -1.00123537 0.0179390702
v -0.218518704 -0.959551394 -0.0671102181
v -0.197302073 -0.980388224 -0.067437008
v -0.134814262 -1.00124538 -0.0677185729
v -0.220858201 -0.0636324733 -0.0334098376
v -0.176477477 -1.01546097 -0.0647191703
v -0.0723425671 -1.02079391 -0.0511841886
v -0.0306557156 -1.02254772 -0.0303415526
v -0.0515114516 -1.02288258 -0.00952217449
v -0.155644059 -1.02293229 -0.00952123757
v -0.113977335 -1.01740599 0.00899032317
v -0.00982436445 -1.01544154 -0.0646909177
v -0.220809266 -0.0102906302 0.0341723189
v -0.21849829 -0.980717599 0.0189451836
v -0.218498155 -0.980420172 0.0189586505
v -0.155624181 -1.00126529 0.0179339666
v -0.0306741185 -1.00122559 0.0179342218
v -0.0931718573 -1.00119591 0.0179391876
v -0.030663969 -0.980410457 0.0189623423
v -0.218508795 -0.938724756 -0.0667823777
v -0.0723217204 -0.00893080141 -0.05220256
v -0.218155056 -0.959551573 -0.0671103448
v -0.113967098 -0.938774467 -0.0667851046
v -0.0723520145 -0.980348527 -0.0674367473
v -0.0306588653 -1.00119579 -0.0677195191
v -0.113974109 -1.00125539 -0.0677173883
v -0.220838383 -0.0219790768 -0.0327541605
v -0.0931793824 -1.00126529 -0.0677161887
v -0.030664498 -1.01543117 -0.0647177249
v -0.0306622069 -1.02071464 -0.0511801727
v -0.0306712147 -1.02279341 -0.00951934606
v -0.00982203707 -1.02062523 -0.0511858836
v -0.00983822905 -1.02235925 -0.0303456113
v -0.00983099826 -1.02260482 -0.00952341128
v -0.030662125 -1.01734626 0.00898819324
v -0.00981872156 -1.00120664 -0.0676670894
v 0.00306256348 -1.01407635 -0.0636391342
v -0.113954768 -0.499174416 0.0265084784
v -0.0306475703 -0.563677728 0.0254968647
v -0.03065967 -0.0636379942 0.0333342291
v -0.0931548029 -0.0103513561 0.0341699794
v -0.220832288 -0.00918557402 -0.0325508229
v -0.218468428 -0.91794014 0.0199421737
v -0.176473305 -0.542880774 0.0258232746
v -0.155643016 -0.563618243 0.0254982654
v -0.00982194301 -1.01715612 0.00888164528
v -0.00983418431 -1.00122631 0.0173803084
v -0.00982414465 -0.980405927 0.0180924516
v 0.000744590652 -0.787924409 0.0218233578
v -0.00982498378 -0.791789174 0.0218825862
v -0.00979578029 -0.730400026 0.0228480417
v -0.134790033 -0.584454834 0.0251716077
v -0.0306641366 -0.00895067025 -0.0522001721
v -0.0306616183 -0.147002026 -0.0543669648
v -0.0514868312 -0.497773558 -0.0598702095
v -0.0723141432 -0.709601104 -0.0631918758
v -0.0306775346 -0.897061408 -0.0661315396
v -0.0306717027 -0.980368376 -0.067434378
v 0.00497501995 -1.01606905 -0.0511838682
v 0.00568654062 -1.01691055 -0.0303461514
v 0.0057165958 -1.01695788 -0.00952067506
v 0.00401844317 -1.01523256 0.00614954345
v -0.00983155891 -0.980379164 -0.0673819482
v 0.000614742865 -0.614726901 -0.0616201311
v 0.000768411264 -0.626232743 -0.0617082305
v 0.00100852607 -0.647062242 -0.0618738942
v 0.00148882065 -0.688721418 -0.0621966906
v 0.00255314261 -0.792869031 -0.0630164444
v 0.00294251787 -0.834528089 -0.0633392036
v 0.00313723786 -0.855357707 -0.063496314
v 0.00410074415 -0.980433941 -0.0644747168
v 0.00422728388 -1.00126398 -0.0646061897
v 0.00932279974 -1.00119102 -0.0511866882
v -0.00979946274 -0.499223232 0.0264631864
v -0.0306570679 -0.0103810234 0.0341650136
v -0.0398840271 -0.0103766853 0.0341682658
v -0.00980739668 -0.563686907 0.0254553519
v 0.00573049579 -1.00119185 0.00886731688
v 0.000933873584 -0.772054493 0.0219494514
v -0.00981711224 -0.0103827594 0.0336708724
v -0.00982261822 -0.0219868887 0.0335299484
v -0.00981965661 -0.0636425614 0.0330109
v -0.00982954074 -0.0844703764 0.0327513777
v -0.00981670059 -0.105297945 0.0324747674
v -0.00982659683 -0.126125202 0.0321810916
v -0.00983653963 -0.147051632 0.0318857655
v -0.00982371159 -0.167878613 0.0315749981
v -0.00983361341 -0.188705578 0.0312642381
v -0.00982078817 -0.20953244 0.0309449341
v -0.00981494691 -0.292839795 0.0296677183
v -0.00982485153 -0.313666642 0.02934842
v -0.00981906429 -0.397072881 0.028052479
v -0.00982390996 -0.00896541867 -0.0519086234
v -0.00979941338 -0.626225412 -0.0618496835
v -0.00980932079 -0.64705205 -0.0621775165
v -0.0306536425 -0.751274407 -0.0638451874
v -0.00983739365 -0.897072077 -0.0660876557
v -0.0098216543 -0.959552288 -0.0670626462
v 0.0108300541 -1.0012393 -0.0303446539
v 0.0108601088 -1.00128663 -0.00951917656
v 0.00574566424 -0.00906750187 -0.046192307
v 0.00235849037 -0.772039652 -0.0628422499
v 0.00363036641 -0.917945564 -0.0639778003
v 0.00395155186 -0.959604621 -0.0643005371
v 0.00921894889 -0.980359077 -0.0511747897
v 0.0108853066 -0.980407119 -0.0303498898
v 0.0108646089 -0.00933241472 -0.0303438455
v 0.0108814137 -0.0219308194 -0.0303474851
v 0.0108841369 -0.209519237 -0.0303448718
v 0.0108847423 -0.498292118 -0.0303522963
v 0.00888513029 -0.480430722 0.011314854
v 0.0087400917 -0.498981178 0.0113151986
v 0.00507930666 -0.272050411 0.0258296784
v 0.0048550847 -0.313610047 0.0255087744
v 0.00448460272 -0.376197487 0.0250275955
v 0.00404597772 -0.438685745 0.024548078
v 0.00375358132 -0.480344504 0.0242255572
v 0.00324676395 -0.542832553 0.0237375256
v 0.00248008454 -0.626249254 0.0230909009
v 0.0016225297 -0.709566534 0.022437416
v 0.005280843 -0.230391428 0.0261436924
v 0.00545958476 -0.188732341 0.0264491737
v 0.00561569957 -0.146973759 0.0267392267
v 0.00567099918 -0.126143813 0.0268706325
v 0.00570356892 -0.10531389 0.0270020422
v 0.00573607069 -0.0844836533 0.027116375
v 0.00574840466 -0.0102871126 0.0274482537
v 0.010879742 -0.959523082 -0.00952797756
v 0.0108765261 -0.0635906756 0.0113155684
v 0.0108666858 -0.084522076 0.0113191465
v 0.0108016348 -0.126186192 0.0113125248
v 0.0107463794 -0.147018239 0.0113092205
v 0.0105904769 -0.188682601 0.0113197109
v 0.0105124917 -0.209514648 0.0113164149
v 0.0101096993 -0.292843014 0.0113203479
v 0.00961598381 -0.376171201 0.0113157714
v 0.0094698118 -0.397003382 0.0113210408
v 0.0108832549 -0.855362356 -0.00952844508
v 0.010878982 -0.0100223506 0.0113143511
v 0.0108820852 -0.084474504 -0.00952342618
v 0.00574589614 -0.0636530071 0.027205091
g submesh0
f 1 2 3
f 1 3 4
f 1 4 5
f 1 5 15
f 1 15 6
f 1 6 17
f 1 17 31
f 1 31 60
f 1 60 45
f 1 45 23
f 1 23 11
f 1 11 10
f 1 10 7
f 1 7 2
f 2 8 21
f 2 21 9
f 2 9 12
f 2 12 3
f 2 7 10
f 2 10 11
f 2 11 8
f 3 12 13
f 3 13 4
f 4 13 5
f 5 14 28
f 5 28 15
f 5 13 16
f 5 16 14
f 6 15 18
f 6 18 19
f 6 19 17
f 8 20 40
f 8 40 21
f 8 11 20
f 9 21 22
f 9 22 12
f 11 23 20
f 12 24 16
f 12 16 13
f 12 22 44
f 12 44 24
f 14 16 25
f 14 25 26
f 14 26 27
f 14 27 28
f 15 28 29
f 15 29 18
f 16 24 30
f 16 30 25
f 17 19 32
f 17 32 33
f 17 33 31
f 18 29 19
f 19 29 34
f 19 34 35
f 19 35 36
f 19 36 37
f 19 37 32
f 20 38 39
f 20 39 40
f 20 23 45
f 20 45 38
f 21 40 41
f 21 41 42
f 21 42 43
f 21 43 22
f 22 43 44
f 24 44 46
f 24 46 47
f 24 47 30
f 25 48 26
f 25 30 48
f 26 49 27
f 26 48 50
f 26 50 51
f 26 51 52
f 26 52 49
f 27 49 53
f 27 53 29
f 27 29 28
f 29 53 35
f 29 35 34
f 30 50 48
f 30 47 43
f 30 43 54
f 30 54 55
f 30 55 50
f 31 56 57
f 31 57 58
f 31 58 59
f 31 59 94
f 31 94 93
f 31 93 98
f 31 98 145
f 31 145 157
f 31 157 125
f 31 125 119
f 31 119 111
f 31 111 71
f 31 71 39
f 31 39 60
f 31 33 61
f 31 61 62
f 31 62 63
f 31 63 56
f 32 37 33
f 33 37 61
f 35 53 64
f 35 64 65
f 35 65 37
f 35 37 36
f 37 65 66
f 37 66 67
f 37 67 68
f 37 68 69
f 37 69 57
f 37 57 70
f 37 70 61
f 38 45 60
f 38 60 39
f 39 71 72
f 39 72 73
f 39 73 40
f 40 74 75
f 40 75 41
f 40 73 74
f 41 75 42
f 42 76 43
f 42 75 76
f 43 46 44
f 43 76 81
f 43 81 54
f 43 47 46
f 49 52 53
f 50 55 77
f 50 77 51
f 51 77 78
f 51 78 52
f 52 78 79
f 52 79 80
f 52 80 64
f 52 64 53
f 54 81 82
f 54 82 83
f 54 83 84
f 54 84 85
f 54 85 86
f 54 86 87
f 54 87 88
f 54 88 89
f 54 89 90
f 54 90 55
f 55 90 91
f 55 91 77
f 56 63 70
f 56 70 57
f 57 69 58
f 58 92 93
f 58 93 94
f 58 94 59
f 58 69 95
f 58 95 92
f 61 70 63
f 61 63 62
f 64 80 65
f 65 80 96
f 65 96 67
f 65 67 66
f 67 97 98
f 67 98 99
f 67 99 100
f 67 100 101
f 67 101 102
f 67 102 103
f 67 103 104
f 67 104 105
f 67 105 106
f 67 106 107
f 67 107 108
f 67 108 109
f 67 109 110
f 67 110 92
f 67 92 95
f 67 95 69
f 67 69 68
f 67 96 97
f 71 111 82
f 71 82 112
f 71 112 113
f 71 113 72
f 72 113 114
f 72 114 73
f 73 114 75
f 73 75 74
f 75 114 113
f 75 113 76
f 76 113 115
f 76 115 116
f 76 116 81
f 77 91 117
f 77 117 78
f 78 117 118
f 78 118 79
f 79 118 80
f 80 118 96
f 81 116 82
f 82 116 115
f 82 115 113
f 82 113 112
f 82 111 119
f 82 119 83
f 83 119 84
f 84 119 85
f 85 120 86
f 85 119 120
f 86 120 119
f 86 119 87
f 87 119 88
f 88 121 89
f 88 119 121
f 89 121 122
f 89 122 119
f 89 119 90
f 90 123 91
f 90 119 123
f 91 124 117
f 91 123 125
f 91 125 126
f 91 126 127
f 91 127 128
f 91 128 124
f 92 110 93
f 93 110 109
f 93 109 108
f 93 108 107
f 93 107 106
f 93 106 105
f 93 105 104
f 93 104 103
f 93 103 102
f 93 102 101
f 93 101 100
f 93 100 99
f 93 99 98
f 96 118 129
f 96 129 130
f 96 130 131
f 96 131 132
f 96 132 133
f 96 133 134
f 96 134 135
f 96 135 136
f 96 136 137
f 96 137 138
f 96 138 97
f 97 138 98
f 98 135 134
f 98 134 133
f 98 133 132
f 98 132 131
f 98 131 139
f 98 139 140
f 98 140 141
f 98 141 142
f 98 142 143
f 98 143 144
f 98 144 145
f 98 138 137
f 98 137 136
f 98 136 135
f 117 124 118
f 118 124 146
f 118 146 147
f 118 147 148
f 118 148 149
f 118 149 150
f 118 150 151
f 118 151 152
f 118 152 153
f 118 153 154
f 118 154 155
f 118 155 129
f 119 125 123
f 119 122 121
f 124 156 146
f 124 128 156
f 125 157 126
f 126 157 158
f 126 158 127
f 127 158 128
f 128 158 156
f 129 155 139
f 129 139 131
f 129 131 130
f 139 155 140
f 140 155 154
f 140 154 141
f 141 154 153
f 141 153 152
f 141 152 142
f 142 152 151
f 142 151 150
f 142 150 143
f 143 150 144
f 144 159 145
f 144 150 149
f 144 149 159
f 145 159 148
f 145 148 147
f 145 147 157
f 146 156 157
f 146 157 147
f 148 159 149
f 156 158 157
