# Computed Mesh 0
v -1.21284127 1.040833 0.0113155637
v -1.21251273 1.06164134 0.0321574993
v -1.21277952 1.06164205 0.0113194054
v -1.21278691 1.06164253 -0.00951026194
v -1.21279669 1.04083347 -0.0095141232
v -1.21283591 0.957459271 -0.00951481052
v -1.21283984 0.728283644 -0.00951076858
v -1.2128408 0.379420787 0.0113171926
v -1.21247053 1.04083228 0.0321536213
v -1.21012044 1.06163359 0.0450377204
v -1.20938826 1.07391131 0.0442440547
v -1.21022248 1.07500768 0.0321565792
v -1.21038544 1.07528389 0.0113230115
v -1.21039283 1.07535338 -0.009514031
v -1.20956743 1.07426417 -0.0228224546
v -1.2104044 1.06168008 -0.0243255179
v -1.21171319 0.380110294 -0.0303481743
v -1.21207452 0.380012453 -0.0244287588
v -1.212834 0.519917071 -0.00951138325
v -1.21283102 0.415733725 -0.00950743258
v -1.21279609 0.37976566 -0.00950678997
v -1.21039557 0.379150361 0.0275752079
v -1.21233451 0.999145091 0.0321532227
v -1.21007836 1.04082596 0.0449486747
v -1.19755757 1.06162727 0.0492162555
v -1.1975522 1.07573795 0.0459400043
v -1.19755495 1.08003151 0.0321587399
v -1.19756198 1.08072138 0.0113149304
v -1.19756925 1.08092856 -0.0095113162
v -1.197577 1.0765785 -0.025608154
v -1.19758618 1.06165898 -0.031742081
v -1.20804322 0.576314747 -0.0408245251
v -1.20831954 0.540764272 -0.0410639197
v -1.20887792 0.457399666 -0.0416265428
v -1.20899153 0.436592788 -0.0417581201
v -1.20921886 0.394910187 -0.0420224182
v -1.20927775 0.380303949 -0.0421109535
v -1.21000326 0.380247325 -0.038669847
v -1.20733237 0.379111409 0.0298396386
v -1.20782018 0.656792939 0.0424979702
v -1.20807314 0.670709193 0.0426518619
v -1.20889878 0.790727556 0.0434556864
v -1.20937848 0.874093175 0.0439846069
v -1.20947242 0.894969046 0.0441173986
v -1.20956647 0.915776134 0.0442405343
v -1.20975435 0.957459211 0.044487942
v -1.20984828 0.978335202 0.0446122214
v -1.21177042 0.874083459 0.0321604908
v -1.21195841 0.91577065 0.0321609043
v -1.21224046 0.978335917 0.0321578458
v -1.19756746 1.04082179 0.0489994772
v -1.17674255 1.06165791 0.0509304814
v -1.20860708 0.749113739 0.0431838296
v -1.17673695 1.07667851 0.0468003303
v -1.17673957 1.08208883 0.0321600698
v -1.17674649 1.08298516 0.0113196829
v -1.17670178 1.08333015 -0.00951281656
v -1.17671049 1.07776213 -0.0269503184
v -1.17672086 1.06163013 -0.0347655825
v -1.17673099 1.04083705 -0.0357318595
v -1.19754434 1.0407908 -0.032343287
v -1.20762134 0.590160966 -0.0406209081
v -1.18820512 0.707499743 -0.0408652052
v -1.19003177 0.686625242 -0.0410228707
v -1.19175446 0.665819705 -0.0411879495
v -1.19337344 0.644945204 -0.0413542017
v -1.19488859 0.624139607 -0.041519355
v -1.19942391 0.582939327 -0.0416634269
v -1.19758523 0.519909501 -0.0427761003
v -1.19755316 0.478232414 -0.0433811694
v -1.19757295 0.436555207 -0.0439776964
v -1.19758284 0.41575098 -0.0442711338
v -1.19754779 0.380342454 -0.0447723828
v -1.2010771 0.380331546 -0.0440131277
v -1.20910525 0.415717065 -0.041890841
v -1.19757152 0.37899074 0.0368456542
v -1.18748116 0.528619528 0.0426087417
v -1.18856549 0.540745676 0.0426991954
v -1.19032037 0.561621785 0.0428666435
v -1.19367468 0.603305042 0.0431918204
v -1.19517004 0.62411207 0.0433580354
v -1.19956303 0.664558589 0.0435012206
v -1.19758248 0.790756583 0.0455394909
v -1.19756269 0.83243382 0.0461360216
v -1.19758487 0.894984245 0.0470186286
v -1.19756508 0.93666172 0.0475981273
v -1.19755518 0.957466125 0.0478830487
v -1.19758725 0.999143898 0.0484455302
v -1.19757736 1.02001727 0.0487230718
v -1.17670047 1.04085314 0.0506710969
v -1.13506162 1.061638 0.0509328097
v -0.94757551 1.06168664 0.0509285629
v -1.09338081 1.06168723 0.0509277619
v -1.13505602 1.07672751 0.0468038023
v -1.0516969 1.08209825 0.0321596824
v -1.11419916 1.08302438 0.0113157909
v -1.0725255 1.08334959 -0.00951436348
v -1.13502955 1.07781124 -0.0269468483
v -1.15590632 1.06168914 -0.0347632729
v -1.07254457 1.06164956 -0.0347671323
v -1.05168831 1.04084647 -0.0357322544
v -0.801706851 1.0407964 -0.0357341394
v -1.17674851 0.894935727 -0.0380204581
v -1.18726563 0.718453586 -0.0407778248
v -1.19757533 0.540782452 -0.042473007
v -1.18296242 0.380350828 -0.0456973612
v -1.17670393 0.378923804 0.0402876586
v -1.17671847 0.457385391 0.0415189788
v -1.1767354 0.749050379 0.0460939035
v -1.1975801 0.686667264 0.0440285653
v -1.19661355 0.644988179 0.0435168557
v -1.13503945 0.999157012 0.0500172712
v -0.68256098 1.01995206 0.0503418669
v -0.801676393 1.04081249 0.050668817
v -0.682543933 1.05577374 0.0508584604
v -1.11419523 1.0616281 0.0509339646
v -1.17670107 0.603286803 0.0438075699
v -1.13024771 0.37890166 0.0402882993
v -0.864213765 1.06164694 0.0509332158
v -0.78085196 1.06167614 0.0509305
v -0.801666439 1.06168604 0.0509293266
v -0.697484612 1.07672596 0.0468061455
v -0.905891657 1.08209765 0.0321604796
v -0.682545066 1.08302557 0.011320224
v -0.926720262 1.08334911 -0.00951356161
v -0.843367279 1.07781017 -0.026945265
v -0.68256104 1.07780254 -0.0269497596
v -0.697468519 1.06167769 -0.0347682871
v -0.926697552 1.04085588 -0.0357326269
v -1.17671406 0.749103189 -0.0403079316
v -0.780840456 1.04085529 -0.0357318409
v -0.682581544 1.04080856 -0.0357324444
v -0.682591438 1.02000487 -0.0360599458
v -1.15589249 0.436555773 -0.0452103317
v -1.17674899 0.45743829 -0.0448828414
v -1.17673373 0.380354404 -0.0460913405
v -1.11418295 0.978274465 0.0496897846
v -0.682553887 1.03490043 0.050572399
v -0.69750011 1.0408318 0.0506672673
v -0.718354225 0.957489133 0.049362313
v -0.682593524 0.951479018 0.0492674746
v -0.682551026 1.04082477 0.0506619923
v -0.682541192 1.06162941 0.0509298779
v -0.739171088 1.06165624 0.0509328246
v -1.03084683 0.378854364 0.0402872972
v -1.11418343 0.540777028 0.0428273976
v -1.11421788 0.686609566 0.0451148748
v -0.682535529 1.07671893 0.0468008742
v -0.682538211 1.08206034 0.0321594737
v -0.759982586 1.08209717 0.032161247
v -0.682552338 1.08330166 -0.00951339956
v -0.780863106 1.08334839 -0.00951278117
v -0.697510123 1.07780957 -0.0269444846
v -0.682571411 1.06167054 -0.0347650275
v -0.682558537 1.07937396 -0.0219825394
v -0.682601333 0.999132037 -0.0363715589
v -1.1350528 0.380334526 -0.0460890122
v -1.13503599 0.415742189 -0.0455366783
v -1.15586734 0.38034445 -0.0460901856
v -0.697507679 0.915802956 0.0487073213
v -0.682603419 0.930675328 0.0489399694
v -0.68287164 0.378956944 0.0240930244
v -0.682620466 0.894923389 0.0483734198
v -0.682613373 0.909802794 0.0486113243
v -0.682883501 0.379526377 -0.0102899391
g submesh0
f 1 2 3
f 1 3 4
f 1 4 5
f 1 5 6
f 1 6 7
f 1 7 8
f 1 8 2
f 2 9 10
f 2 10 11
f 2 11 12
f 2 12 3
f 2 8 9
f 3 12 13
f 3 13 14
f 3 14 4
f 4 14 15
f 4 15 16
f 4 16 17
f 4 17 5
f 5 17 6
f 6 17 18
f 6 18 7
f 7 18 19
f 7 19 8
f 8 19 20
f 8 20 21
f 8 21 18
f 8 18 17
f 8 17 38
f 8 38 37
f 8 37 74
f 8 74 73
f 8 73 106
f 8 106 136
f 8 136 159
f 8 159 157
f 8 157 165
f 8 165 162
f 8 162 145
f 8 145 118
f 8 118 107
f 8 107 76
f 8 76 39
f 8 39 22
f 8 22 23
f 8 23 9
f 9 23 24
f 9 24 10
f 10 24 25
f 10 25 11
f 11 26 27
f 11 27 12
f 11 25 26
f 12 27 28
f 12 28 13
f 13 28 29
f 13 29 14
f 14 29 15
f 15 29 30
f 15 30 31
f 15 31 16
f 16 31 32
f 16 32 33
f 16 33 34
f 16 34 35
f 16 35 36
f 16 36 37
f 16 37 38
f 16 38 17
f 18 21 20
f 18 20 19
f 22 39 40
f 22 40 41
f 22 41 42
f 22 42 43
f 22 43 44
f 22 44 45
f 22 45 46
f 22 46 47
f 22 47 24
f 22 24 48
f 22 48 49
f 22 49 50
f 22 50 23
f 23 50 24
f 24 47 25
f 24 50 49
f 24 49 48
f 25 51 52
f 25 52 26
f 25 47 44
f 25 44 43
f 25 43 42
f 25 42 53
f 25 53 41
f 25 41 51
f 26 54 55
f 26 55 27
f 26 52 54
f 27 55 56
f 27 56 28
f 28 56 57
f 28 57 29
f 29 57 30
f 30 57 58
f 30 58 59
f 30 59 31
f 31 59 60
f 31 60 61
f 31 61 62
f 31 62 32
f 32 62 63
f 32 63 64
f 32 64 65
f 32 65 66
f 32 66 67
f 32 67 68
f 32 68 69
f 32 69 70
f 32 70 71
f 32 71 72
f 32 72 73
f 32 73 74
f 32 74 33
f 33 74 34
f 34 74 75
f 34 75 36
f 34 36 35
f 36 75 74
f 36 74 37
f 39 76 40
f 40 76 77
f 40 77 78
f 40 78 79
f 40 79 80
f 40 80 81
f 40 81 82
f 40 82 83
f 40 83 84
f 40 84 85
f 40 85 86
f 40 86 87
f 40 87 88
f 40 88 41
f 41 88 89
f 41 89 51
f 41 53 42
f 44 47 46
f 44 46 45
f 51 89 90
f 51 90 52
f 52 90 91
f 52 91 119
f 52 119 92
f 52 92 93
f 52 93 94
f 52 94 54
f 54 94 55
f 55 94 95
f 55 95 96
f 55 96 56
f 56 96 57
f 57 96 97
f 57 97 98
f 57 98 58
f 58 98 99
f 58 99 59
f 59 99 100
f 59 100 60
f 60 100 101
f 60 101 102
f 60 102 103
f 60 103 104
f 60 104 62
f 60 62 61
f 62 104 63
f 63 65 64
f 63 104 73
f 63 73 65
f 65 73 72
f 65 72 71
f 65 71 66
f 66 71 70
f 66 70 67
f 67 70 69
f 67 69 105
f 67 105 68
f 68 105 69
f 73 104 106
f 76 107 77
f 77 79 78
f 77 107 108
f 77 108 109
f 77 109 90
f 77 90 79
f 79 90 85
f 79 85 84
f 79 84 80
f 80 84 83
f 80 83 81
f 81 110 111
f 81 111 82
f 81 83 110
f 82 111 110
f 82 110 83
f 85 90 86
f 86 90 87
f 87 90 88
f 88 90 89
f 90 112 113
f 90 113 114
f 90 114 115
f 90 115 116
f 90 116 91
f 90 109 108
f 90 108 117
f 90 117 118
f 90 118 112
f 91 116 119
f 92 119 144
f 92 144 120
f 92 120 121
f 92 121 122
f 92 122 94
f 92 94 93
f 94 122 123
f 94 123 95
f 95 123 124
f 95 124 96
f 96 124 97
f 97 124 125
f 97 125 98
f 98 125 126
f 98 126 153
f 98 153 127
f 98 127 128
f 98 128 99
f 99 128 100
f 100 128 101
f 101 128 129
f 101 129 102
f 102 130 103
f 102 129 131
f 102 131 132
f 102 132 133
f 102 133 134
f 102 134 135
f 102 135 130
f 103 130 135
f 103 135 104
f 104 135 136
f 104 136 106
f 107 118 108
f 108 118 117
f 112 137 113
f 112 118 137
f 113 138 139
f 113 139 114
f 113 137 140
f 113 140 141
f 113 141 161
f 113 161 164
f 113 164 163
f 113 163 162
f 113 162 165
f 113 165 156
f 113 156 133
f 113 133 132
f 113 132 154
f 113 154 127
f 113 127 155
f 113 155 151
f 113 151 124
f 113 124 149
f 113 149 148
f 113 148 143
f 113 143 115
f 113 115 142
f 113 142 138
f 114 139 115
f 115 119 116
f 115 139 142
f 115 143 144
f 115 144 119
f 118 145 146
f 118 146 147
f 118 147 137
f 120 144 122
f 120 122 121
f 122 144 143
f 122 143 148
f 122 148 149
f 122 149 150
f 122 150 123
f 123 150 124
f 124 151 152
f 124 152 125
f 124 150 149
f 125 152 153
f 125 153 126
f 127 154 128
f 127 153 155
f 128 154 132
f 128 132 131
f 128 131 129
f 133 156 157
f 133 157 158
f 133 158 134
f 134 158 136
f 134 136 135
f 136 158 159
f 137 147 145
f 137 145 140
f 138 142 139
f 140 145 141
f 141 160 161
f 141 145 160
f 145 147 146
f 145 162 163
f 145 163 164
f 145 164 161
f 145 161 160
f 151 155 152
f 152 155 153
f 156 165 157
f 157 159 158
