# Computed Mesh 0
v 0.0827354118 0.811190307 0.0649329722
v 0.125623971 0.783440232 0.0894948095
v 0.357831717 0.789846301 0.0348079875
v 0.120379694 0.833700001 0.0295634791
v -0.0581358895 0.834406018 0.029866647
v 0.00085694337 0.805564702 0.0734846443
v 0.186473429 0.746265113 0.117257386
v 0.349338949 0.75456953 0.0768475011
v 0.3300668 0.796405673 -0.0207731687
v 0.0945067853 0.844301939 -0.0264882501
v 0.356161147 0.74753505 0.0805899873
v 0.551342905 0.313435555 0.304085582
v 0.56859678 0.343275875 0.2194065
v 0.555305183 0.381768346 0.172461063
v 0.371332347 0.75753051 -0.0160217509
v -0.144244492 0.841797769 -0.000134556496
v -0.11189992 0.796539366 0.0612483881
v -0.0528751612 0.800038636 0.0696591064
v -0.448929727 0.391337007 0.315191448
v 0.337662697 0.679259479 0.143746719
v 0.492155522 0.340585262 0.339099288
v 0.310649514 0.768776774 -0.0622702315
v 0.151806608 0.81180793 -0.08735805
v 0.0354116075 0.826986253 -0.0832545161
v 0.472390354 0.0456135273 0.0823591724
v 0.549841821 0.193100125 0.184603125
v 0.563458502 0.274776369 0.190743089
v 0.561182976 0.353455991 0.15385361
v 0.559790254 0.365578413 0.159737185
v 0.541954041 0.402611583 0.120218471
v 0.487680465 0.486855984 0.00469005946
v 0.373208374 0.711703777 -0.0442000069
v 0.321259439 0.722130001 -0.0836045817
v -0.271592528 0.821056366 -0.0432085991
v -0.315158337 0.785497963 -0.0500746667
v -0.490416825 0.365445286 0.28447625
v -0.421521604 0.109416872 0.0731486306
v 0.244824409 0.751072228 -0.113497816
v 0.0732117146 0.807677686 -0.109319352
v -0.00971822999 0.797299623 -0.121623188
v 0.332189649 -0.0811216757 -0.0439652316
v 0.440164536 0.00524198962 0.0389733352
v 0.454691827 0.0509099551 0.0492761284
v 0.506466389 0.119133972 0.117856987
v -0.289364904 -0.0445235968 -0.0505696163
v 0.523690581 0.20929186 0.118716344
v 0.53583467 0.27554366 0.12226858
v 0.542416155 0.347912133 0.11203526
v 0.514424503 0.368153095 0.048957061
v 0.502628744 0.449026197 0.0218947865
v 0.447832435 0.508174777 -0.0412411727
v 0.424972564 0.546721816 -0.0650779232
v 0.361586958 0.67297256 -0.0796085149
v 0.323182762 0.699070215 -0.0958574265
v 0.333085269 0.687579513 -0.0953474194
v -0.0455097184 0.732620895 -0.149511158
v -0.317378879 0.738506794 -0.071424298
v -0.346714199 0.690882981 -0.0535706393
v -0.484314322 0.421815395 0.126951665
v -0.480165601 0.443610936 0.151268855
v -0.484256536 0.411976367 0.223105848
v -0.491090119 0.400560051 0.194938511
v -0.496508092 0.307443291 0.222239256
v -0.39665547 0.141180366 0.0352062844
v -0.371171087 0.0426139347 0.017667992
v -0.457062125 0.185284868 0.114516601
v -0.445156783 0.321606308 0.0697675794
v 0.243304461 0.64017731 -0.150658265
v 0.20382601 0.73122859 -0.134917125
v 0.141047716 0.75995636 -0.130276769
v 0.323287696 0.677872658 -0.106548905
v 0.323263317 0.667190194 -0.111127198
v 0.290715128 0.677103698 -0.121075734
v 0.094364211 0.774495065 -0.128303871
v 0.062841244 0.801701009 -0.115079075
v 0.0838895515 0.775166273 -0.128719509
v 0.0160894096 0.754254639 -0.143253222
v 0.384192973 0.226197824 -0.0514181294
v 0.389334321 -0.0126129733 -0.0123501802
v -0.0556969419 -0.101767212 -0.0902783796
v 0.214598283 -0.116189033 -0.0866590515
v 0.273211956 -0.0930515826 -0.0787511989
v 0.242407858 0.017568443 -0.119518407
v 0.295463294 0.214971766 -0.113825552
v 0.324554026 0.0244333278 -0.0649834499
v 0.471813798 0.19692716 0.0313301831
v 0.513861477 0.287165999 0.0743857175
v 0.439475298 0.0564916432 0.0213691331
v 0.524131954 0.340135634 0.0750822574
v -0.315724969 -0.00331061566 -0.035315346
v -0.318254024 0.0899289995 -0.041585777
v -0.233670548 0.12025325 -0.103118882
v -0.225467741 0.0562412143 -0.103507318
v -0.205801532 -0.0205242895 -0.10976065
v -0.224793121 -0.0779933706 -0.0890553296
v 0.480296433 0.300409675 0.0229645502
v 0.450204134 0.391143382 -0.0212770049
v 0.449931383 0.455925554 -0.0316466875
v 0.429067433 0.262678832 -0.021357229
v 0.437837392 0.448987514 -0.0411001369
v 0.385177433 0.548322022 -0.0971561894
v 0.0773942024 0.7068398 -0.156928405
v 0.0401629545 0.671801567 -0.165947065
v 0.0203085169 0.646731734 -0.170157239
v -0.000948693196 0.645435333 -0.168544471
v -0.0641134977 0.641475737 -0.163159743
v -0.129685611 0.597678065 -0.153945759
v -0.199121714 0.597674847 -0.128117487
v -0.278058231 0.569759548 -0.0979879871
v -0.334640443 0.554777801 -0.0680954233
v -0.34400785 0.628102303 -0.0602940246
v -0.385021538 0.530957162 -0.0264054574
v -0.43070823 0.495938182 0.0281515084
v -0.49488768 0.334077537 0.174719557
v -0.460967571 0.444124013 0.0803940147
v -0.465095222 0.377588302 0.0960943326
v -0.484243512 0.297483265 0.148482054
v -0.479924053 0.248741746 0.152013838
v -0.436412781 0.321630627 0.0582615323
v -0.378091216 0.144950271 0.0104204779
v -0.359882355 0.0880763754 -0.00351840374
v -0.333986133 0.046365805 -0.025838796
v -0.435002565 0.380355984 0.0470377691
v -0.461806357 0.273815513 0.107794687
v -0.444206685 0.438462853 0.049891457
v 0.239435405 0.629999816 -0.154593587
v 0.310128927 0.617597044 -0.130684987
v 0.192600638 0.609926343 -0.168500781
v 0.112858146 0.640261352 -0.173031539
v 0.387527227 0.332419813 -0.0644662529
v 0.397038698 0.157557905 -0.0318069234
v 0.365174323 0.489561886 -0.103727303
v 0.403223097 0.0738269314 -0.0148688816
v 0.420816779 0.0548164621 0.00279373187
v -0.118170038 -0.0905286744 -0.104377009
v -0.0434818715 -0.0821203962 -0.138734713
v 0.0773418322 -0.0758322403 -0.149380416
v 0.198807374 -0.0837271661 -0.125961468
v 0.243796021 0.142201662 -0.128686652
v 0.301751673 0.267518997 -0.117002182
v 0.314591825 0.268651247 -0.107930996
v -0.339803129 0.411125392 -0.0525543913
v -0.311825067 0.49940905 -0.0799163878
v -0.239997208 0.214163095 -0.106264971
v -0.205460027 0.0615716651 -0.116774283
v -0.0807079449 -0.0661150664 -0.148739308
v -0.177645326 -0.0760508776 -0.107243523
v 0.418159574 0.126241326 -0.0105325095
v 0.432508409 0.374699414 -0.0347729772
v 0.388465554 0.491468966 -0.0865495652
v 0.386140764 0.392218173 -0.0741577372
v 0.353797019 0.52862072 -0.115665719
v 0.0626513213 0.612286747 -0.177596152
v -0.0903125033 0.533717632 -0.162992448
v 0.0147849079 0.576702118 -0.175536007
v -0.1284073 0.523364604 -0.153283238
v -0.275148094 0.427739382 -0.0968767703
v -0.170902133 0.162458584 -0.131545424
v -0.389850527 0.442473948 -0.0121203018
v -0.406038254 0.35331282 0.0167007707
v 0.34327355 0.484551698 -0.116647199
v 0.207183734 0.523325443 -0.159721434
v 0.211347729 0.194280773 -0.141179696
v 0.142626554 -0.0766580701 -0.138143167
v 0.0176788662 -0.0688351244 -0.160023645
v 0.0156883635 0.1435339 -0.170062333
v 0.0415168665 0.511366189 -0.178069562
v 0.314827681 0.331989944 -0.116775997
v 0.330783576 0.427014738 -0.117350839
v -0.154232308 0.181078091 -0.137898207
v -0.139024183 0.151840836 -0.140933737
v -0.0672109947 0.114653304 -0.15739806
v -0.0380595438 0.0562476218 -0.162776098
v -0.0134104155 -0.0283934418 -0.164376244
v -0.0144905364 0.50735265 -0.171652064
v -0.0327705592 0.157172382 -0.165776119
v -0.0540790074 0.242058322 -0.163964748
v -0.0433950052 0.13055414 -0.163656607
v -0.133895993 0.377914488 -0.148661196
v -0.149677619 0.311105371 -0.141847298
v -0.00355683174 0.0482877456 -0.167661831
v 0.00969997514 0.183683574 -0.170926034
v 0.0202191193 0.257992476 -0.172593936
v -0.139023885 0.247379884 -0.143743321
v -0.0327712819 0.0668941513 -0.164290428
g submesh0
f 1 2 3
f 1 3 4
f 1 4 5
f 1 5 6
f 1 6 2
f 2 7 8
f 2 8 3
f 2 6 7
f 3 9 10
f 3 10 4
f 3 8 11
f 3 11 12
f 3 12 13
f 3 13 14
f 3 14 15
f 3 15 9
f 4 10 16
f 4 16 5
f 5 16 17
f 5 17 18
f 5 18 6
f 6 18 19
f 6 19 7
f 7 20 8
f 7 19 21
f 7 21 20
f 8 20 11
f 9 22 23
f 9 23 10
f 9 15 22
f 10 23 24
f 10 24 16
f 11 20 21
f 11 21 12
f 12 21 25
f 12 25 26
f 12 26 27
f 12 27 13
f 13 27 28
f 13 28 29
f 13 29 14
f 14 29 30
f 14 30 15
f 15 30 31
f 15 31 32
f 15 32 33
f 15 33 22
f 16 24 34
f 16 34 19
f 16 19 17
f 17 19 18
f 19 34 35
f 19 35 36
f 19 36 37
f 19 37 45
f 19 45 25
f 19 25 21
f 22 33 38
f 22 38 23
f 23 38 39
f 23 39 24
f 24 40 34
f 24 39 40
f 25 41 42
f 25 42 43
f 25 43 44
f 25 44 26
f 25 45 41
f 26 28 27
f 26 44 46
f 26 46 47
f 26 47 28
f 28 47 48
f 28 48 49
f 28 49 50
f 28 50 30
f 28 30 29
f 30 50 31
f 31 50 51
f 31 51 52
f 31 52 32
f 32 53 33
f 32 52 53
f 33 54 38
f 33 53 55
f 33 55 54
f 34 40 56
f 34 56 35
f 35 56 57
f 35 57 58
f 35 58 59
f 35 59 60
f 35 60 61
f 35 61 36
f 36 61 62
f 36 62 63
f 36 63 37
f 37 64 65
f 37 65 45
f 37 63 66
f 37 66 67
f 37 67 64
f 38 68 69
f 38 69 70
f 38 70 39
f 38 54 71
f 38 71 72
f 38 72 73
f 38 73 68
f 39 70 74
f 39 74 75
f 39 75 40
f 40 75 76
f 40 76 77
f 40 77 56
f 41 78 79
f 41 79 42
f 41 45 80
f 41 80 81
f 41 81 82
f 41 82 83
f 41 83 84
f 41 84 85
f 41 85 78
f 42 86 49
f 42 49 87
f 42 87 43
f 42 79 88
f 42 88 86
f 43 87 44
f 44 87 89
f 44 89 46
f 45 65 90
f 45 90 91
f 45 91 92
f 45 92 93
f 45 93 94
f 45 94 95
f 45 95 80
f 46 89 47
f 47 89 48
f 48 89 49
f 49 89 87
f 49 86 50
f 50 86 96
f 50 96 97
f 50 97 98
f 50 98 51
f 51 98 99
f 51 99 100
f 51 100 52
f 52 100 101
f 52 101 53
f 53 101 72
f 53 72 55
f 54 55 71
f 55 72 71
f 56 77 102
f 56 102 103
f 56 103 104
f 56 104 105
f 56 105 106
f 56 106 107
f 56 107 57
f 57 108 109
f 57 109 110
f 57 110 111
f 57 111 58
f 57 107 108
f 58 111 112
f 58 112 113
f 58 113 59
f 59 114 62
f 59 62 60
f 59 113 115
f 59 115 116
f 59 116 117
f 59 117 114
f 60 62 61
f 62 114 63
f 63 114 118
f 63 118 66
f 64 67 119
f 64 119 65
f 65 120 121
f 65 121 122
f 65 122 90
f 65 119 123
f 65 123 120
f 66 118 117
f 66 117 124
f 66 124 67
f 67 123 119
f 67 124 116
f 67 116 125
f 67 125 123
f 68 126 69
f 68 73 72
f 68 72 127
f 68 127 126
f 69 126 128
f 69 128 129
f 69 129 102
f 69 102 70
f 70 102 77
f 70 77 74
f 72 101 127
f 74 76 75
f 74 77 76
f 78 130 131
f 78 131 79
f 78 85 132
f 78 132 130
f 79 133 134
f 79 134 88
f 79 131 133
f 80 95 135
f 80 135 136
f 80 136 81
f 81 137 138
f 81 138 82
f 81 136 137
f 82 138 83
f 83 138 139
f 83 139 140
f 83 140 84
f 84 140 85
f 85 140 141
f 85 141 132
f 86 88 96
f 88 134 96
f 90 122 91
f 91 122 142
f 91 142 110
f 91 110 143
f 91 143 92
f 92 144 93
f 92 143 144
f 93 144 145
f 93 145 94
f 94 145 146
f 94 146 95
f 95 147 135
f 95 146 147
f 96 134 97
f 97 134 98
f 98 134 99
f 99 134 148
f 99 148 149
f 99 149 100
f 100 149 150
f 100 150 101
f 101 150 151
f 101 151 132
f 101 132 152
f 101 152 127
f 102 129 103
f 103 129 153
f 103 153 104
f 104 153 105
f 105 153 106
f 106 154 107
f 106 153 155
f 106 155 154
f 107 154 156
f 107 156 108
f 108 157 109
f 108 156 158
f 108 158 157
f 109 157 143
f 109 143 110
f 110 142 112
f 110 112 111
f 112 159 113
f 112 142 122
f 112 122 159
f 113 159 125
f 113 125 115
f 114 117 118
f 115 125 116
f 116 124 117
f 120 123 125
f 120 125 121
f 121 125 160
f 121 160 159
f 121 159 122
f 125 159 160
f 126 127 152
f 126 152 128
f 128 153 129
f 128 152 161
f 128 161 162
f 128 162 163
f 128 163 164
f 128 164 165
f 128 165 166
f 128 166 167
f 128 167 153
f 130 151 131
f 130 132 151
f 131 151 148
f 131 148 133
f 132 141 140
f 132 140 168
f 132 168 152
f 133 148 134
f 135 147 136
f 136 165 137
f 136 147 146
f 136 146 165
f 137 164 138
f 137 165 164
f 138 164 163
f 138 163 139
f 139 161 169
f 139 169 168
f 139 168 140
f 139 163 162
f 139 162 161
f 143 157 144
f 144 157 145
f 145 158 170
f 145 170 146
f 145 157 158
f 146 170 171
f 146 171 172
f 146 172 173
f 146 173 174
f 146 174 165
f 148 151 149
f 149 151 150
f 152 168 161
f 153 167 155
f 154 155 175
f 154 175 176
f 154 176 177
f 154 177 178
f 154 178 179
f 154 179 156
f 155 167 175
f 156 179 170
f 156 170 180
f 156 180 158
f 158 180 170
f 161 168 169
f 165 174 181
f 165 181 166
f 166 181 182
f 166 182 183
f 166 183 167
f 167 183 182
f 167 182 175
f 170 179 184
f 170 184 171
f 171 184 172
f 172 184 178
f 172 178 173
f 173 178 185
f 173 185 174
f 174 185 181
f 175 182 176
f 176 182 181
f 176 181 185
f 176 185 177
f 177 185 178
f 178 184 179
