# Computed Mesh 4
v -0.882698715 3.38812971 0.423419237
v -0.869452298 2.97904134 0.458346456
v -0.869840562 3.0301981 0.458353549
v -0.870069802 3.0813601 0.458173215
v -0.870193243 3.13252497 0.457888931
v -0.870317101 3.18353081 0.457599819
v -0.870810986 3.38803172 0.456436932
v -0.881670296 3.43928123 0.423438549
v -0.872626245 3.49208617 0.389297843
v -0.872632563 3.49033904 0.389286369
v -0.881554961 3.28581429 0.423429221
v -0.863854825 2.31455874 0.455631405
v -0.866696656 2.67243409 0.457751244
v -0.86713928 2.72342801 0.457899779
v -0.868516386 2.87689066 0.458191752
v -0.808970273 2.11007333 0.50211221
v -0.66759181 2.82563639 0.563497841
v -0.667709291 2.87682152 0.562542498
v -0.832549512 3.38816428 0.473780692
v -0.868451416 3.43924642 0.454244614
v -0.880219638 3.49106741 0.423438996
v -0.832516074 3.49220228 0.381004393
v -0.866689444 3.03017116 0.391392976
v -0.866146624 2.97900367 0.391722828
v -0.865551054 2.92799377 0.392078936
v -0.879214346 3.08134246 0.423433661
v -0.879812479 3.13249993 0.423438877
v -0.862986743 2.26342654 0.454768598
v -0.865419984 2.51914406 0.457022756
v -0.878458798 3.03018451 0.423429757
v -0.86625421 2.62128305 0.45755589
v -0.807987213 2.07593846 0.501287222
v -0.785572588 2.05887556 0.511248648
v -0.628061116 2.8256681 0.573607206
v -0.667298555 2.92801714 0.561193228
v -0.730311215 3.33694053 0.516461551
v -0.86572355 3.49014926 0.451815128
v -0.781412601 3.49200654 0.381677747
v -0.346580744 3.31118107 0.385948092
v -0.418780982 2.26820755 0.388928145
v -0.465397865 2.26343513 0.389170915
v -0.832523346 3.49029517 0.381029993
v -0.861410618 2.62127042 0.395124018
v -0.8621611 2.67244649 0.394540697
v -0.862859726 2.72346306 0.393973947
v -0.863610566 2.7746377 0.393432587
v -0.864257574 2.82565165 0.392950177
v -0.864956558 2.87682366 0.392493129
v -0.863002658 2.26347589 0.432391852
v -0.860922396 2.23426056 0.452383608
v -0.877493322 2.9790256 0.423427731
v -0.807967722 2.07587576 0.492951393
v -0.764826775 1.97413349 0.485097378
v -0.764805019 1.97426128 0.506870806
v -0.774171412 2.00781512 0.51205492
v -0.730276942 2.05890679 0.524792194
v -0.615235627 2.21239519 0.557931244
v -0.583351314 2.82573175 0.561321974
v -0.34663555 3.48788524 0.467636764
v -0.600487232 3.12315345 0.55221051
v -0.6280604 2.87674236 0.571075082
v -0.665938079 2.9790709 0.559176147
v -0.611688316 2.16126466 0.556714177
v -0.585556388 2.16117501 0.556709826
v -0.572730541 2.21084285 0.557165146
v -0.550273836 2.226964 0.552187085
v -0.679159224 3.3369925 0.529801428
v -0.663630188 3.03013158 0.556831837
v -0.660481989 3.08134842 0.554478586
v -0.65695703 3.12206411 0.552605331
v -0.628056765 3.38804817 0.522154033
v -0.832546234 3.48990107 0.456213236
v -0.475115329 3.49080324 0.386679769
v -0.350603759 2.2662189 0.404748201
v -0.385217369 2.23344493 0.394583642
v -0.423568338 3.43914652 0.386896402
v -0.346491843 3.33689618 0.386651039
v -0.426543921 2.21466422 0.389952183
v -0.466804385 2.21240401 0.390453488
v -0.858456254 2.43244934 0.397585601
v -0.859003246 2.46789408 0.397089928
v -0.860607564 2.5702517 0.395754635
v -0.863830388 2.31459165 0.428594172
v -0.832544565 2.26353168 0.411584258
v -0.860916913 2.23433208 0.439664334
v -0.876422942 2.92786622 0.423426539
v -0.706842899 1.92900705 0.447699487
v -0.657278359 1.87661362 0.446259797
v -0.730287015 2.00782609 0.522348821
v -0.656892061 1.87701821 0.474531561
v -0.710382044 1.92634988 0.503784359
v -0.728585362 1.95703614 0.510209799
v -0.550282478 2.25301862 0.552185774
v -0.35093981 2.36572766 0.485984743
v -0.350743949 2.4169066 0.485199928
v -0.345992982 3.49012399 0.39440468
v -0.528554857 3.48834991 0.472835302
v -0.576945901 3.42595983 0.50793314
v -0.576975465 3.38811493 0.519434452
v -0.628037572 3.33699083 0.534511447
v -0.628008783 3.15601349 0.550937235
v -0.628016293 3.130373 0.552987337
v -0.628033102 3.03020954 0.560673296
v -0.628045917 2.97909307 0.56458956
v -0.628055811 2.92798686 0.568170249
v -0.606446624 2.12369394 0.553470373
v -0.595479548 2.12365675 0.553460479
v -0.559977174 2.16119909 0.547866166
v -0.552852869 2.19286299 0.550660074
v -0.351117253 2.31461263 0.484672487
v -0.576978981 3.48854756 0.471807629
v -0.423707962 3.4905684 0.388593167
v -0.350748509 2.24234796 0.411280632
v -0.350932539 2.21598816 0.421284318
v -0.496100157 1.97672021 0.443135113
v -0.526849806 1.95847726 0.435317039
v -0.592092216 1.86891079 0.44147405
v -0.34640494 3.3621335 0.387381345
v -0.445613593 2.17850637 0.395187199
v -0.628044486 1.90549433 0.433691025
v -0.871878326 2.723387 0.423429072
v -0.87305373 2.77454662 0.42342934
v -0.676238477 1.90947306 0.444054008
v -0.628034711 1.86919773 0.441314429
v -0.628020823 1.86563909 0.474541962
v -0.654327095 1.87939167 0.500510514
v -0.628010273 1.90558696 0.508532763
v -0.599253178 1.87598503 0.501834273
v -0.591462076 1.90555394 0.505514622
v -0.577819884 2.10801363 0.543522596
v -0.351263434 2.26344991 0.479727268
v -0.35130465 2.21531892 0.463959545
v -0.496094406 1.97668779 0.454575121
v -0.592274427 1.86869442 0.474529207
v -0.628058493 1.87656367 0.501725137
g submesh0
f 1 2 3
f 1 3 4
f 1 4 5
f 1 5 6
f 1 6 7
f 1 7 8
f 1 8 9
f 1 9 10
f 1 10 11
f 1 11 12
f 1 12 13
f 1 13 2
f 2 13 14
f 2 14 15
f 2 15 16
f 2 16 3
f 3 16 4
f 4 16 5
f 5 16 6
f 6 16 7
f 7 17 18
f 7 18 19
f 7 19 20
f 7 20 21
f 7 21 8
f 7 16 17
f 8 21 9
f 9 21 37
f 9 37 72
f 9 72 111
f 9 111 97
f 9 97 59
f 9 59 96
f 9 96 112
f 9 112 73
f 9 73 38
f 9 38 22
f 9 22 10
f 10 22 23
f 10 23 24
f 10 24 25
f 10 25 26
f 10 26 27
f 10 27 11
f 11 27 12
f 12 28 16
f 12 16 29
f 12 29 13
f 12 27 26
f 12 26 30
f 12 30 28
f 13 29 31
f 13 31 16
f 13 16 14
f 14 16 15
f 16 31 29
f 16 28 32
f 16 32 33
f 16 33 17
f 17 34 18
f 17 33 34
f 18 34 35
f 18 35 19
f 19 36 37
f 19 37 20
f 19 35 36
f 20 37 21
f 22 38 39
f 22 39 40
f 22 40 41
f 22 41 42
f 22 42 43
f 22 43 44
f 22 44 45
f 22 45 46
f 22 46 47
f 22 47 48
f 22 48 25
f 22 25 24
f 22 24 23
f 25 48 26
f 26 48 30
f 28 49 50
f 28 50 32
f 28 30 51
f 28 51 49
f 30 48 46
f 30 46 44
f 30 44 43
f 30 43 51
f 32 52 53
f 32 53 54
f 32 54 55
f 32 55 33
f 32 50 52
f 33 55 56
f 33 56 57
f 33 57 34
f 34 58 59
f 34 59 60
f 34 60 61
f 34 61 62
f 34 62 35
f 34 57 63
f 34 63 64
f 34 64 65
f 34 65 66
f 34 66 58
f 35 62 36
f 36 67 37
f 36 62 68
f 36 68 69
f 36 69 70
f 36 70 67
f 37 71 72
f 37 67 71
f 38 73 39
f 39 74 75
f 39 75 40
f 39 73 76
f 39 76 77
f 39 77 118
f 39 118 96
f 39 96 59
f 39 59 95
f 39 95 94
f 39 94 110
f 39 110 131
f 39 131 132
f 39 132 114
f 39 114 113
f 39 113 74
f 40 75 78
f 40 78 41
f 41 78 79
f 41 79 80
f 41 80 42
f 42 80 81
f 42 81 82
f 42 82 43
f 43 82 51
f 44 46 45
f 46 48 47
f 49 83 80
f 49 80 84
f 49 84 85
f 49 85 50
f 49 51 86
f 49 86 83
f 50 85 52
f 51 82 81
f 51 81 80
f 51 80 86
f 52 85 53
f 53 87 88
f 53 88 54
f 53 85 87
f 54 89 55
f 54 88 90
f 54 90 91
f 54 91 92
f 54 92 89
f 55 89 56
f 56 89 63
f 56 63 57
f 58 66 93
f 58 93 94
f 58 94 95
f 58 95 59
f 59 97 98
f 59 98 99
f 59 99 100
f 59 100 60
f 60 101 102
f 60 102 103
f 60 103 104
f 60 104 105
f 60 105 61
f 60 100 101
f 61 105 69
f 61 69 68
f 61 68 62
f 63 89 106
f 63 106 64
f 64 106 107
f 64 107 108
f 64 108 109
f 64 109 65
f 65 109 66
f 66 109 110
f 66 110 94
f 66 94 93
f 67 100 71
f 67 70 100
f 69 105 70
f 70 105 104
f 70 104 103
f 70 103 102
f 70 102 101
f 70 101 100
f 71 99 98
f 71 98 72
f 71 100 99
f 72 98 111
f 73 112 76
f 74 113 75
f 75 113 114
f 75 114 115
f 75 115 116
f 75 116 117
f 75 117 78
f 76 112 118
f 76 118 77
f 78 117 119
f 78 119 120
f 78 120 79
f 79 120 84
f 79 84 80
f 80 121 122
f 80 122 86
f 80 83 121
f 83 86 122
f 83 122 121
f 84 120 123
f 84 123 87
f 84 87 85
f 87 123 88
f 88 123 120
f 88 120 124
f 88 124 125
f 88 125 90
f 89 92 126
f 89 126 127
f 89 127 106
f 90 125 126
f 90 126 91
f 91 126 92
f 96 118 112
f 97 111 98
f 106 127 107
f 107 127 128
f 107 128 129
f 107 129 130
f 107 130 108
f 108 131 109
f 108 130 129
f 108 129 131
f 109 131 110
f 114 132 133
f 114 133 115
f 115 133 117
f 115 117 116
f 117 133 134
f 117 134 125
f 117 125 124
f 117 124 120
f 117 120 119
f 125 134 128
f 125 128 135
f 125 135 126
f 126 135 127
f 127 135 128
f 128 134 133
f 128 133 132
f 128 132 131
f 128 131 129
