# Computed Mesh 7
v -0.220831916 -0.010191449 0.0341755226
v -0.220854938 -0.0090863537 -0.0325499848
v -0.239020258 -0.0101828976 0.0341819376
v -0.634934425 -0.251112431 0.0315812379
v -0.4265773 -0.334480077 0.0304266233
v -0.220832631 -0.0116892448 0.0341574848
v -0.220861062 -0.0219282918 -0.0327559002
v -0.426601678 -0.33445102 -0.0386871099
v -0.63494879 -0.230278865 -0.0369644426
v -0.231034979 -0.00908145495 -0.0325531662
v -0.25987801 -0.010172979 0.0341825262
v -0.655768394 -0.00998460222 0.0341867879
v -0.683005631 -0.00997157209 0.0341828577
v -0.683011353 -0.0219213963 0.0339984931
v -0.683014393 -0.0283583496 0.0338986591
v -0.683044136 -0.0909113511 0.0329168551
v -0.68305099 -0.105282836 0.0326856151
v -0.683130682 -0.271954924 0.0289161373
v -0.6831339 -0.278516293 0.0286313817
v -0.426577866 -0.335658103 0.0303461626
v -0.405765474 -0.335661829 0.0299731959
v -0.405764908 -0.334451735 0.0300406478
v -0.220877156 -0.105279766 0.0326887444
v -0.220847413 -0.042758625 0.0336700194
v -0.22089079 -0.0844494328 -0.0337371714
v -0.405743867 -0.334528148 -0.0384788625
v -0.426601708 -0.334514886 -0.0386813954
v -0.683153391 -0.271939725 -0.0355111994
v -0.634913504 -0.251119435 -0.0372825228
v -0.68306464 -0.0844207481 -0.0337330028
v -0.68306154 -0.0779519305 -0.0336326398
v -0.683051646 -0.0571433716 -0.0333083309
v -0.683028698 -0.00886636414 -0.0325494222
v -0.680087805 -0.00886774715 -0.0325504616
v -0.439522177 -0.00898219831 -0.0325540863
v -0.301571369 -0.00904784258 -0.0325553603
v -0.683141649 -0.293298572 0.0262599718
v -0.447436392 -0.335612416 0.0281868838
v -0.68314445 -0.29834792 0.0251333676
v -0.683148086 -0.304723293 0.0232398193
v -0.220991999 -0.335484743 0.0139697157
v -0.220900506 -0.105267286 -0.0334995054
v -0.221005037 -0.334858447 -0.0238447916
v -0.447413355 -0.33454591 -0.0362095088
v -0.683161736 -0.293703049 -0.0301488023
v -0.683148205 -0.304849088 0.0231361464
v -0.467752188 -0.335555762 0.025350349
v -0.4693093 -0.334654033 -0.0290518943
v -0.683164775 -0.305356383 -0.0232170429
v -0.683153629 -0.307522088 0.0113211283
v -0.480199307 -0.335317463 0.0113190236
v -0.46985212 -0.334658593 -0.0287605617
v -0.683161259 -0.308101386 -0.00951415952
v -0.683154821 -0.307693034 0.00816904567
v -0.482061535 -0.334971547 -0.00951384753
v -0.479530483 -0.334845334 -0.017206287
g submesh0
f 1 2 10
f 1 10 36
f 1 36 35
f 1 35 34
f 1 34 33
f 1 33 13
f 1 13 12
f 1 12 11
f 1 11 3
f 1 3 4
f 1 4 5
f 1 5 6
f 1 6 24
f 1 24 23
f 1 23 41
f 1 41 43
f 1 43 42
f 1 42 25
f 1 25 7
f 1 7 2
f 2 7 8
f 2 8 9
f 2 9 10
f 3 11 4
f 4 12 13
f 4 13 14
f 4 14 15
f 4 15 16
f 4 16 17
f 4 17 18
f 4 18 19
f 4 19 20
f 4 20 5
f 4 11 12
f 5 20 21
f 5 21 22
f 5 22 23
f 5 23 24
f 5 24 6
f 7 25 8
f 8 25 26
f 8 26 27
f 8 27 28
f 8 28 29
f 8 29 9
f 9 29 30
f 9 30 31
f 9 31 32
f 9 32 33
f 9 33 34
f 9 34 35
f 9 35 36
f 9 36 10
f 13 33 32
f 13 32 31
f 13 31 30
f 13 30 28
f 13 28 45
f 13 45 49
f 13 49 53
f 13 53 54
f 13 54 50
f 13 50 46
f 13 46 40
f 13 40 39
f 13 39 37
f 13 37 19
f 13 19 18
f 13 18 17
f 13 17 16
f 13 16 15
f 13 15 14
f 19 37 20
f 20 38 47
f 20 47 51
f 20 51 55
f 20 55 56
f 20 56 52
f 20 52 48
f 20 48 44
f 20 44 27
f 20 27 26
f 20 26 43
f 20 43 41
f 20 41 21
f 20 37 39
f 20 39 40
f 20 40 38
f 21 41 23
f 21 23 22
f 25 42 26
f 26 42 43
f 27 44 45
f 27 45 28
f 28 30 29
f 38 40 46
f 38 46 47
f 44 48 49
f 44 49 45
f 46 50 47
f 47 50 51
f 48 52 49
f 49 52 53
f 50 54 51
f 51 54 53
f 51 53 55
f 52 56 53
f 53 56 55
