# Computed Mesh 6
v -0.437710285 0.0216553733 -0.00541040627
v -0.327228308 -0.0273086783 -0.0802390352
v -0.339867711 -0.0159577038 0.0775748715
v -0.420017987 0.0907009766 0.0367307551
v -0.404821545 0.156592667 -0.00982943457
v -0.395710886 0.0789689198 -0.0642884001
v -0.246353492 -0.0392853357 -0.0241324212
v -0.262112975 -0.0372386314 0.0582358539
v -0.340512305 0.0369921401 -0.0797963291
v -0.221762329 0.252849311 -0.0773526356
v -0.158848152 0.296909422 -0.0763175488
v -0.351885974 0.0423456952 0.0756063461
v -0.157867253 0.279485971 0.0752182156
v -0.286952078 0.17009525 0.0758338124
v -0.36080876 0.14045471 0.0688224286
v -0.360106349 0.202048138 0.0545700006
v -0.386773199 0.212119669 -0.00427687494
v -0.338215888 0.234597564 -0.0564238653
v -0.366582721 0.131416544 -0.0718547851
v -0.156613424 0.195780426 -0.0329003148
v -0.155000091 0.208063483 0.0553234033
v -0.274417013 0.294935673 -0.0598209277
v -0.221520111 0.359123796 -0.0381557234
v -0.161663666 0.401062906 -0.0251156092
v -0.148796663 0.371668428 0.0603974871
v -0.25307861 0.247462317 0.072797358
v -0.286882937 0.302425832 0.0496633612
v -0.345489085 0.266601205 0.0100491503
v -0.292816609 0.329099536 -0.00170523324
v -0.216382384 0.341430038 0.0558111332
g submesh0
f 1 2 3
f 1 3 4
f 1 4 5
f 1 5 6
f 1 6 2
f 2 7 8
f 2 8 3
f 2 6 9
f 2 9 10
f 2 10 11
f 2 11 7
f 3 12 4
f 3 8 13
f 3 13 14
f 3 14 12
f 4 15 16
f 4 16 17
f 4 17 5
f 4 12 15
f 5 17 6
f 6 17 18
f 6 18 19
f 6 19 9
f 7 11 20
f 7 20 21
f 7 21 8
f 8 21 13
f 9 19 10
f 10 22 11
f 10 19 22
f 11 22 23
f 11 23 24
f 11 24 25
f 11 25 20
f 12 14 15
f 13 26 14
f 13 21 25
f 13 25 26
f 14 26 15
f 15 26 16
f 16 26 27
f 16 27 28
f 16 28 17
f 17 28 29
f 17 29 18
f 18 29 22
f 18 22 19
f 20 25 21
f 22 29 23
f 23 29 24
f 24 29 25
f 25 29 30
f 25 30 26
f 26 30 27
f 27 30 29
f 27 29 28
