# Computed Mesh 12
v -0.75175941 0.0875672624 -0.133783132
v -0.754901469 0.0917369649 -0.163731664
v -0.780175686 0.0524159186 0.121303089
v -0.788983166 0.0321520045 0.118494362
v -0.78898555 0.0321418941 0.0458221324
v -0.788978577 0.0321465768 -0.223197058
v -0.78898263 0.0321457386 -0.611661077
v -0.788982928 0.0321542993 -0.820908487
v -0.789055645 0.0322218463 -0.850834012
v -0.780475676 0.0532180294 -0.850779533
v -0.779283583 0.0831097513 -0.85077399
v -0.787878335 0.111045077 -0.850844204
v -0.75559175 0.0922366902 -0.167305946
v -0.787496865 0.111240327 -0.820882201
v -1.00069642 0.0538484417 0.121465199
v -0.811411858 0.0260221828 0.117641471
v -0.788992703 0.0321458541 0.105593942
v -0.811391532 0.0260247402 0.0756936371
v -0.811392307 0.0260238368 -0.551855385
v -0.788986504 0.0321495533 -0.790974379
v -0.811410904 0.0260286964 -0.820874631
v -0.811406493 0.0261580385 -0.850791574
v -0.791563869 0.0342810936 -0.870046258
v -0.788679421 0.0532218516 -0.87264061
v -0.788255274 0.0831098035 -0.873029649
v -0.79099226 0.106590159 -0.870663464
v -0.81140852 0.124301203 -0.850784004
v -0.811407685 0.125008345 -0.820948124
v -0.790616214 0.115619957 -0.3344253
v -1.00030017 0.0518527664 0.12118879
v -1.01270652 0.0880309939 -0.12470267
v -0.859181881 0.0260211118 0.117633447
v -0.871190786 0.0260191187 0.105617873
v -0.841298878 0.0260165595 -0.163397416
v -0.811409831 0.026020946 0.0159218442
v -0.841296017 0.0260204151 -0.820880711
v -0.81140703 0.0260247942 -0.641561389
v -0.841291547 0.0261497572 -0.850797653
v -0.811407983 0.0322817266 -0.87219739
v -0.811405241 0.0532320514 -0.879535913
v -0.811390817 0.0831272081 -0.880416334
v -0.811410129 0.110830478 -0.873033464
v -0.841291726 0.124602154 -0.850845754
v -0.841289103 0.125545084 -0.820878685
v -0.841292799 0.125553712 -0.791041136
v -0.841281533 0.125561476 -0.671497583
v -0.841288805 0.125565439 -0.611725748
v -0.811396241 0.125007465 -0.492157161
v -0.811406076 0.125003919 -0.401171446
v -0.993971646 0.0415342189 0.119760349
v -1.01314008 0.0892652124 -0.133590981
v -0.998246014 0.0532265231 -0.8208794
v -0.985892713 0.0322101638 -0.850769579
v -0.985947907 0.0321570076 -0.820940554
v -0.918926418 0.0260199141 0.117623433
v -0.930935323 0.0260180105 0.105607875
v -0.960831463 0.0260175057 -0.0139396582
v -0.96082139 0.0260174777 -0.731194675
v -0.930925488 0.0260264687 -0.820894659
v -0.901036084 0.0261485614 -0.850807667
v -0.841293156 0.0322734453 -0.872203469
v -0.841290355 0.053223595 -0.879541993
v -0.960816145 0.083103478 -0.880345762
v -0.960835338 0.110835664 -0.873057365
v -0.841295063 0.110837728 -0.873037398
v -0.901034892 0.0532223992 -0.879552007
v -0.96083051 0.0532215349 -0.87956202
v -0.930946946 0.124579459 -0.850765169
v -0.930944204 0.125551298 -0.820892632
v -0.901033521 0.125559419 -0.820886552
v -0.871174157 0.125552341 -0.820882618
v -0.871177733 0.125560969 -0.79104501
v -0.841299951 0.125557676 -0.73126936
v -0.869356811 0.125567764 -0.402481467
v -0.841299534 0.12556465 -0.522019744
v -0.871192157 0.125568897 -0.671501458
v -0.840061367 0.125538081 -0.403662384
v -0.986511171 0.0321426652 0.118460514
v -1.0123682 0.0928339437 -0.159387931
v -1.00032902 0.0831083655 -0.820875764
v -0.997474849 0.0532262921 -0.850814164
v -0.960831702 0.026163226 -0.850815475
v -0.960836112 0.0260338839 -0.820898533
v -0.98246491 0.0342754722 -0.870078504
v -0.985951483 0.0321522616 -0.791006446
v -0.930926442 0.0260200426 0.117621474
v -0.960820317 0.0260252599 0.105603948
v -0.960813105 0.0260212999 0.0458321348
v -0.960837066 0.0260274578 0.11761757
v -0.960833311 0.0322713852 -0.872223437
v -0.901037574 0.0322722495 -0.872213483
v -0.9866786 0.0831219032 -0.873060644
v -0.983044684 0.106578633 -0.870598257
v -0.986258388 0.0532283746 -0.87267226
v -0.960832298 0.124524415 -0.850777745
v -0.960830092 0.125434056 -0.820913792
v -0.930947781 0.125559926 -0.791055024
v -0.930929422 0.125563726 -0.731283247
v -0.841289461 0.125559434 -0.403758079
v -0.9026438 0.12556985 -0.400911123
v -1.01190698 0.0933931097 -0.163446128
v -0.988041162 0.111668892 -0.820954382
v -0.987375081 0.111237653 -0.850751936
v -0.998969376 0.0831198469 -0.850808859
v -0.960815072 0.125437841 -0.522057056
v -0.986679792 0.114778802 -0.31901589
v -0.960825562 0.125439182 -0.397196978
v -0.930941463 0.125566274 -0.399537712
g submesh0
f 1 2 13
f 1 13 29
f 1 29 49
f 1 49 77
f 1 77 99
f 1 99 74
f 1 74 100
f 1 100 108
f 1 108 107
f 1 107 106
f 1 106 101
f 1 101 79
f 1 79 51
f 1 51 31
f 1 31 15
f 1 15 3
f 1 3 4
f 1 4 5
f 1 5 6
f 1 6 7
f 1 7 8
f 1 8 9
f 1 9 10
f 1 10 11
f 1 11 12
f 1 12 2
f 2 12 14
f 2 14 13
f 3 15 30
f 3 30 50
f 3 50 78
f 3 78 89
f 3 89 86
f 3 86 55
f 3 55 32
f 3 32 16
f 3 16 4
f 4 16 17
f 4 17 5
f 5 17 16
f 5 16 18
f 5 18 19
f 5 19 7
f 5 7 6
f 7 19 20
f 7 20 8
f 8 20 21
f 8 21 9
f 9 21 22
f 9 22 23
f 9 23 10
f 10 23 24
f 10 24 11
f 11 24 25
f 11 25 26
f 11 26 12
f 12 26 27
f 12 27 28
f 12 28 14
f 13 14 29
f 14 28 29
f 15 31 30
f 16 32 33
f 16 33 34
f 16 34 35
f 16 35 18
f 18 35 19
f 19 36 37
f 19 37 21
f 19 21 20
f 19 35 34
f 19 34 36
f 21 36 38
f 21 38 22
f 21 37 36
f 22 38 61
f 22 61 39
f 22 39 23
f 23 39 40
f 23 40 24
f 24 40 41
f 24 41 25
f 25 41 26
f 26 41 42
f 26 42 27
f 27 42 43
f 27 43 44
f 27 44 28
f 28 44 45
f 28 45 46
f 28 46 47
f 28 47 48
f 28 48 29
f 29 48 49
f 30 31 51
f 30 51 52
f 30 52 53
f 30 53 54
f 30 54 50
f 32 55 56
f 32 56 33
f 33 56 34
f 34 56 57
f 34 57 58
f 34 58 36
f 36 58 59
f 36 59 60
f 36 60 38
f 38 60 91
f 38 91 61
f 39 61 62
f 39 62 40
f 40 62 41
f 41 63 64
f 41 64 65
f 41 65 42
f 41 62 66
f 41 66 67
f 41 67 63
f 42 65 43
f 43 65 64
f 43 64 68
f 43 68 69
f 43 69 70
f 43 70 71
f 43 71 44
f 44 71 72
f 44 72 45
f 45 72 76
f 45 76 73
f 45 73 47
f 45 47 46
f 47 74 75
f 47 75 48
f 47 73 76
f 47 76 74
f 48 75 77
f 48 77 49
f 50 54 78
f 51 79 80
f 51 80 52
f 52 80 81
f 52 81 53
f 53 82 83
f 53 83 54
f 53 81 84
f 53 84 82
f 54 83 85
f 54 85 78
f 55 86 56
f 56 86 87
f 56 87 88
f 56 88 57
f 57 88 87
f 57 87 89
f 57 89 78
f 57 78 58
f 58 83 59
f 58 78 83
f 59 83 82
f 59 82 60
f 60 82 90
f 60 90 91
f 61 91 66
f 61 66 62
f 63 92 93
f 63 93 64
f 63 67 94
f 63 94 92
f 64 93 95
f 64 95 68
f 66 91 90
f 66 90 67
f 67 90 84
f 67 84 94
f 68 95 69
f 69 96 97
f 69 97 70
f 69 95 96
f 70 97 98
f 70 98 76
f 70 76 72
f 70 72 71
f 74 99 75
f 74 76 100
f 75 99 77
f 76 98 100
f 78 85 83
f 79 101 102
f 79 102 80
f 80 102 103
f 80 103 104
f 80 104 81
f 81 104 94
f 81 94 84
f 82 84 90
f 86 89 87
f 92 104 93
f 92 94 104
f 93 104 103
f 93 103 95
f 95 103 96
f 96 105 98
f 96 98 97
f 96 103 102
f 96 102 106
f 96 106 107
f 96 107 105
f 98 105 107
f 98 107 108
f 98 108 100
f 101 106 102
