# Computed Mesh 0
v -0.721498668 0.112883203 -0.170943588
v -0.721602201 0.0953157097 -0.156555682
v -0.721301854 0.142481923 -0.164801627
v 0.324434191 0.142901748 -0.156731874
v 0.473804206 0.142896041 -0.155483156
v 0.74175024 0.142336741 -0.153230041
v 0.741558254 0.113018788 -0.155291036
v 0.74145776 0.0970275179 -0.150687918
v 0.741452694 0.0962195545 -0.150432378
v 0.683021367 0.0960669145 -0.150708154
v 0.653089643 0.0959892049 -0.150846332
v 0.593369365 0.0958273038 -0.151082739
v 0.533506155 0.0957024172 -0.15131405
v 0.473786205 0.0955886915 -0.151543811
v -0.721602976 0.0925818011 -0.133457586
v 0.413923353 0.0955064297 -0.151728377
v 0.324415565 0.0954056755 -0.151961252
v 0.26455307 0.0953835845 -0.152137488
v 0.294480532 0.0927112103 -0.133476317
v 0.234761447 0.0927020833 -0.133487433
v -0.721299052 0.142897516 -0.16470322
v 0.647192061 0.157859892 -0.14844121
v 0.413941741 0.142906278 -0.15598157
v 0.667098284 0.157816648 -0.148280606
v 0.655417264 0.145881668 -0.152753174
v 0.593386352 0.142901421 -0.154401138
v 0.741754115 0.142898574 -0.152948067
v 0.741447747 0.0936229229 -0.134256244
v 0.5634377 0.0957561284 -0.151179194
v 0.741447508 0.093494378 -0.133416653
v 0.563433349 0.0930809528 -0.133462444
v 0.503570378 0.0929644033 -0.133488461
v -0.72136122 0.0926003307 0.195261449
v 0.741463602 0.0925917625 -0.103532165
v 0.74150753 0.0925886631 -0.0437585525
v 0.74166131 0.0925949514 0.165369853
v 0.384135127 0.0954648629 -0.151779875
v 0.443850756 0.092865549 -0.133471146
v 0.384131163 0.0927841589 -0.133492261
v 0.324411809 0.0927333981 -0.133468315
v -0.721188188 0.158348083 -0.150354788
v 0.264677703 0.158337966 -0.14925462
v 0.354184538 0.158305377 -0.149121895
v 0.414046466 0.15824239 -0.14903909
v 0.473765045 0.158174694 -0.14891614
v 0.503696024 0.158137605 -0.14883469
v 0.563414514 0.15804036 -0.14867501
v 0.623276114 0.157918096 -0.148518771
v 0.741871655 0.158344343 -0.129536211
v 0.741853535 0.157254592 -0.144508213
v 0.473782092 0.0929117352 -0.133459806
v -0.721329093 0.0953389332 0.214708135
v 0.74168247 0.0926039442 0.194074079
v 0.741683304 0.0926049873 0.195217445
v 0.741711259 0.0936478004 0.223983243
v 0.741712391 0.0936913863 0.225173324
v 0.354199886 0.0927565172 -0.133460194
v -0.721172571 0.158867866 -0.133746907
v -0.273351252 0.158879027 -0.133467406
v 0.0255303271 0.158880353 -0.133458793
v 0.145111561 0.158879146 -0.133480072
v 0.085234277 0.158359632 -0.149362862
v 0.234761685 0.158874363 -0.133465961
v 0.32441166 0.158845499 -0.133455187
v 0.384130448 0.158812091 -0.133490801
v 0.443834275 0.158218235 -0.148955867
v 0.443849087 0.158749044 -0.133489683
v 0.503567517 0.158661917 -0.133491918
v 0.623147368 0.158445075 -0.133461416
v 0.74187243 0.158366591 -0.12863487
v -0.721327484 0.0955749825 0.214863315
v 0.74174124 0.0963074937 0.241255045
v 0.741742313 0.0964103267 0.241840869
v 0.712814391 0.0965250731 0.241770342
v 0.653096676 0.09676487 0.241467103
v 0.623166203 0.0968852341 0.241315529
v 0.563448668 0.0971491188 0.241015628
v 0.50358808 0.0974380225 0.24071911
v 0.473800987 0.0975814536 0.240570769
v 0.413940638 0.0978999957 0.240237534
v 0.394178063 0.0980089381 0.240126893
v -0.720930457 0.158907726 0.195260867
v -0.512370586 0.15887399 -0.133466676
v 0.742114067 0.158912376 0.195216879
v 0.593384266 0.158877224 -0.103560254
v 0.712822318 0.158871397 -0.103541374
v 0.741894126 0.158863068 -0.103537738
v -0.691705406 0.112995528 0.224916652
v -0.72120744 0.112998366 0.224177241
v 0.741853416 0.11299289 0.246424615
v 0.324403644 0.115138635 0.241876051
v 0.294479907 0.116297461 0.241664201
v 0.264556557 0.117516458 0.241460696
v 0.234776959 0.118818797 0.241268709
v 0.145010725 0.123058848 0.240698099
v 0.115232803 0.124619342 0.240501091
v -0.720922172 0.158380672 0.211192936
v 0.742128253 0.158370256 0.219312698
v 0.0651265159 0.127367049 0.240138546
v 0.0651324093 0.128274158 0.240141734
v -0.721015811 0.142884031 0.220723242
v -0.721204162 0.113508329 0.2241254
v 0.742039382 0.141833812 0.24458155
v 0.44384557 0.137691423 0.242651999
v 0.354183346 0.135899693 0.24206239
v 0.294455379 0.134570643 0.241664276
v 0.145060197 0.130675197 0.240691677
v -0.691657066 0.14289242 0.22130087
v 0.563440263 0.139669135 0.243394807
v 0.593231082 0.140096739 0.243581444
v 0.653098583 0.140872195 0.24398452
v 0.742126703 0.156411231 0.234515578
v 0.742128968 0.156792507 0.234241784
v 0.742128253 0.158332303 0.21967493
v 0.115123227 0.129797831 0.240483537
v 0.712822258 0.141540393 0.244372785
v 0.413910568 0.137120396 0.242445484
v 0.503714859 0.138730675 0.243009984
v 0.234726548 0.133109227 0.241247848
g submesh0
f 1 2 15
f 1 15 33
f 1 33 52
f 1 52 71
f 1 71 89
f 1 89 102
f 1 102 101
f 1 101 97
f 1 97 82
f 1 82 58
f 1 58 41
f 1 41 21
f 1 21 3
f 1 3 4
f 1 4 5
f 1 5 6
f 1 6 7
f 1 7 8
f 1 8 9
f 1 9 10
f 1 10 11
f 1 11 12
f 1 12 13
f 1 13 14
f 1 14 2
f 2 14 16
f 2 16 17
f 2 17 18
f 2 18 19
f 2 19 20
f 2 20 15
f 3 21 4
f 4 22 23
f 4 23 5
f 4 21 22
f 5 23 22
f 5 22 24
f 5 24 25
f 5 25 26
f 5 26 6
f 6 26 25
f 6 25 24
f 6 24 27
f 6 27 50
f 6 50 49
f 6 49 70
f 6 70 87
f 6 87 84
f 6 84 98
f 6 98 114
f 6 114 113
f 6 113 112
f 6 112 103
f 6 103 90
f 6 90 73
f 6 73 72
f 6 72 56
f 6 56 55
f 6 55 54
f 6 54 53
f 6 53 36
f 6 36 35
f 6 35 34
f 6 34 30
f 6 30 28
f 6 28 9
f 6 9 8
f 6 8 7
f 9 28 10
f 10 28 12
f 10 12 11
f 12 28 29
f 12 29 13
f 13 29 14
f 14 29 30
f 14 30 31
f 14 31 32
f 14 32 16
f 15 20 34
f 15 34 35
f 15 35 36
f 15 36 33
f 16 32 37
f 16 37 17
f 17 37 38
f 17 38 39
f 17 39 18
f 18 39 40
f 18 40 19
f 19 40 34
f 19 34 20
f 21 41 42
f 21 42 43
f 21 43 44
f 21 44 45
f 21 45 46
f 21 46 47
f 21 47 48
f 21 48 22
f 22 48 24
f 24 48 49
f 24 49 50
f 24 50 27
f 28 30 29
f 30 34 31
f 31 34 32
f 32 51 37
f 32 34 51
f 33 36 53
f 33 53 54
f 33 54 55
f 33 55 56
f 33 56 52
f 34 40 57
f 34 57 39
f 34 39 38
f 34 38 51
f 37 51 38
f 39 57 40
f 41 58 59
f 41 59 60
f 41 60 61
f 41 61 62
f 41 62 42
f 42 63 64
f 42 64 43
f 42 62 63
f 43 64 65
f 43 65 66
f 43 66 44
f 44 66 45
f 45 66 46
f 46 66 67
f 46 67 68
f 46 68 47
f 47 68 69
f 47 69 49
f 47 49 48
f 49 69 68
f 49 68 70
f 52 56 72
f 52 72 73
f 52 73 74
f 52 74 75
f 52 75 76
f 52 76 77
f 52 77 78
f 52 78 79
f 52 79 80
f 52 80 81
f 52 81 71
f 58 82 83
f 58 83 59
f 59 83 82
f 59 82 60
f 60 82 84
f 60 84 61
f 61 84 85
f 61 85 86
f 61 86 63
f 61 63 62
f 63 86 87
f 63 87 64
f 64 87 65
f 65 67 66
f 65 87 67
f 67 87 68
f 68 87 70
f 71 88 89
f 71 81 88
f 73 90 74
f 74 90 76
f 74 76 75
f 76 90 77
f 77 90 78
f 78 90 79
f 79 90 80
f 80 90 81
f 81 90 91
f 81 91 92
f 81 92 93
f 81 93 94
f 81 94 95
f 81 95 96
f 81 96 88
f 82 97 98
f 82 98 84
f 84 87 86
f 84 86 85
f 88 96 99
f 88 99 100
f 88 100 101
f 88 101 102
f 88 102 89
f 90 103 104
f 90 104 105
f 90 105 106
f 90 106 107
f 90 107 100
f 90 100 99
f 90 99 96
f 90 96 95
f 90 95 94
f 90 94 91
f 91 94 93
f 91 93 92
f 97 101 108
f 97 108 109
f 97 109 110
f 97 110 111
f 97 111 112
f 97 112 113
f 97 113 114
f 97 114 98
f 100 107 115
f 100 115 108
f 100 108 101
f 103 112 116
f 103 116 111
f 103 111 104
f 104 117 105
f 104 111 109
f 104 109 118
f 104 118 108
f 104 108 117
f 105 117 108
f 105 108 106
f 106 108 119
f 106 119 107
f 107 119 108
f 107 108 115
f 108 118 109
f 109 111 110
f 111 116 112
