# concrete_debris_c_COL
v 0.161133662 -0.386902422 -0.0767506361
v 0.0205000732 -0.385180205 -0.0767506361
v 0.249646947 -0.159353584 -0.0767506585
v 0.107244335 -0.364294499 0.044844199
v 0.0220737047 -0.30215773 0.0945973918
v 0.198873594 -0.194327503 0.0486195348
v -0.218701586 0.0155033832 0.0946391821
v -0.0424520485 -0.323766619 -0.0767506436
v -0.249205515 -0.112785317 -0.0767506734
v 0.220155314 0.250917107 0.0703931302
v -0.0302750096 0.177019179 0.0676610693
v 0.241166219 0.27397278 -0.0767507255
v 0.0749988407 0.348839253 0.0716020167
v -0.127220899 0.25677526 0.057731241
v 0.0164334811 0.41260317 -0.076750733
v -0.0842534974 0.294480652 -0.0767507255
v -0.226146594 0.265338272 0.0893796831
v -0.185806349 0.216871679 -0.0951291472
v -0.177709952 -0.247039184 0.055340752
v -0.18708007 -0.229373395 -0.0734174997
v -0.161565453 -0.315569878 -0.0425307639
g submesh0
f 1 2 3
f 1 4 2
f 4 1 3
f 4 5 2
f 6 4 3
f 4 6 5
f 7 5 6
f 2 5 8
f 8 3 2
f 9 3 8
f 10 6 3
f 11 7 6
f 11 6 10
f 12 10 3
f 3 9 12
f 13 11 10
f 12 13 10
f 14 7 11
f 11 13 14
f 15 13 12
f 15 12 16
f 13 15 16
f 14 13 16
f 12 9 16
f 16 17 14
f 14 17 7
f 17 16 18
f 18 16 9
f 18 7 17
f 18 9 7
f 7 19 5
f 7 9 19
f 8 20 9
f 20 19 9
f 19 21 5
f 5 21 8
f 21 19 20
f 20 8 21
