# corrugated_sheet_smallDamaged007_LOD2
v -0.390693814 0.00564792426 -0.0817467272
v -0.209261715 -0.0132934814 0.0840589479
v -0.408353299 -0.00611724239 0.0785939321
v -0.136139348 0.00562531175 -0.0707760006
v -0.0622594729 -0.0133015551 0.0841040462
v -0.0398689099 0.00564400712 -0.0841039196
v 0.336330891 -0.0132997129 0.0840809718
v 0.242427185 0.000884076173 0.00814372487
v 0.210164994 0.00564594334 -0.0836244822
v 0.357534736 0.000701429206 0.00770963496
v 0.408354402 -0.00632777903 0.00930970162
v 0.408246934 -0.00610867189 0.0793357715
v 0.408354402 -0.000432246306 0.00930970255
v 0.173469752 -0.00740523683 0.0840690434
v 0.408246934 -0.000213147883 0.079335779
v 0.242427379 0.00677958457 0.0081437761
v -0.199872568 0.00686025061 0.0146583533
v 0.210164994 0.0115414644 -0.0836244076
v -0.209261715 -0.00739798928 0.084059
v -0.136139348 0.0115208291 -0.0707759038
v -0.408353299 -0.000221731156 0.0785939991
v -0.395881832 0.00368741062 -0.0801230147
v -0.407319933 -0.000299114647 0.0106471991
vn 0.0428557359 -0.673844159 -0.737629712
vn 0.000370100344 -0.982740521 -0.184989393
vn -0.14307192 -0.953792632 -0.264215827
vn -0.00655842014 -0.681145012 -0.732119143
vn -1.20505492E-05 -0.98568821 -0.168578386
vn -0.0266231522 -0.675516248 -0.736864269
vn 0.00500271795 -0.984855235 -0.17330645
vn 0.178853065 -0.320627689 -0.930166423
vn 0.150759235 -0.705329478 -0.692663074
vn -0.00100771768 -0.207078069 -0.978323877
vn 0.125074327 -0.955688477 0.266488105
vn 0.0797833651 -0.964362442 -0.252269179
vn 0.139992997 0.944390595 -0.297536939
vn 2.86164723E-05 0.552965999 0.833203793
vn 0.0463840067 0.831250846 0.553959012
vn 0.000444538338 0.97603637 -0.217606947
vn -0.0029556267 0.999662876 -0.0257936064
vn 0.000193267566 0.994492531 -0.104808047
vn -0.00177378953 0.544643521 0.838665783
vn -0.00788834132 0.99256587 -0.121452399
vn -0.0425453782 0.687138021 0.725280046
vn -0.157050237 0.982633114 -0.0988306999
vn -0.172180027 0.984737337 -0.02542766
vt 0.98672694 0.435721517
vt 0.940330625 0.391650319
vt 0.941973627 0.439572245
vt 0.984914839 0.37413618
vt 0.940140963 0.356165826
vt 0.988338947 0.350920171
vt 0.939716458 0.260226369
vt 0.963015199 0.282238901
vt 0.987295151 0.290502518
vt 0.963888168 0.254904628
vt 0.960720599 0.24283053
vt 0.940865874 0.242875323
vt 0.226136073 0.984358072
vt 0.160996556 1.00772297
vt 0.225996375 1.00191605
vt 0.179789379 0.985304832
vt 0.0572423227 0.986135483
vt 0.170509756 0.959821403
vt 0.0550953932 1.00793946
vt 0.0743500292 0.96222949
vt 6.6278255E-05 1.0023005
vt 0.00152602152 0.959534705
vt -0.000984935672 0.98325932
g submesh0
f 1/1/1 2/2/2 3/3/3
f 2/2/2 1/1/1 4/4/4
f 4/4/4 5/5/5 2/2/2
f 5/5/5 4/4/4 6/6/6
f 5/5/5 6/6/6 7/7/7
f 7/7/7 6/6/6 8/8/8
f 8/8/8 6/6/6 9/9/9
f 7/7/7 8/8/8 10/10/10
f 11/11/11 7/7/7 10/10/10
f 7/7/7 11/11/11 12/12/12
f 13/13/13 14/14/14 15/15/15
f 14/14/14 13/13/13 16/16/16
f 17/17/17 14/14/14 16/16/16
f 18/18/18 17/17/17 16/16/16
f 14/14/14 17/17/17 19/19/19
f 17/17/17 18/18/18 20/20/20
f 17/17/17 21/21/21 19/19/19
f 22/22/22 17/17/17 20/20/20
f 21/21/21 17/17/17 23/23/23
f 17/17/17 22/22/22 23/23/23
