# corrugated_sheet_smallDamaged000_LOD0
v 0.839725375 -0.00866653398 0.0417179428
v 0.839213073 -0.000121908859 0.013304376
v 0.767260194 0.00659029651 0.0108741224
v 0.766068399 -0.0010358619 0.0417179428
v 0.840316474 -0.00012192937 0.0745052174
v 0.325348228 -0.00091140304 0.0417179428
v 0.305531085 0.00659029186 0.00156223297
v 0.764801562 0.00848507881 0.0745052174
v 0.840942979 -0.0086665554 0.109258898
v 0.0919507295 -0.000523627154 0.0417179428
v 0.0582133792 0.00659029 -0.00925142411
v 0.341529071 0.0084847603 0.0745052174
v 0.113653079 0.00894131884 0.0745052174
v 0.763458788 0.000975342467 0.109258898
v 0.358680218 0.000842764042 0.109258898
v 0.761843979 0.0107644796 0.151052713
v 0.841899693 -0.000121953432 0.162322491
v 0.761843979 -0.00683416473 0.16132015
v 0.375669271 0.0102814622 0.143683836
v 0.375669241 -0.00683416054 0.152925774
v 0.167313859 0.011216905 0.155574292
v 0.167313814 -0.00683416473 0.164012164
v 0.136657 0.00137222733 0.109258853
v 0.0427088924 0.00659025041 0.146773398
v 0.0427089296 -0.00683416985 0.180561945
v 0.023077745 -0.00195435598 0.109258898
v -0.235092133 0.00659024483 0.146773398
v -0.235092118 -0.00683417311 0.180561945
v -0.645330489 -0.00683416985 0.180561945
v 0.0106771514 0.00659026671 0.0745052174
v -0.645330489 0.00659025041 0.146773398
v -0.770298958 -0.00683417311 0.180561885
v -0.234649956 -0.00195436226 0.109258898
v -0.00102180161 -0.00195434084 0.0417180434
v -0.770298958 0.00659024762 0.146773398
v -0.829959095 -0.000121967147 0.17241931
v -0.651331306 -0.00195435598 0.109258898
v -0.234370649 0.00659026019 0.0745052174
v -0.774888992 -0.00195435598 0.109258898
v -0.834047198 -0.00866656378 0.109258898
v -0.0151284849 0.00659028208 0.00218290673
v -0.0149720488 -0.00195432408 -0.0381715819
v -0.234107107 -0.0019543469 0.0417179428
v -0.655121922 0.00659026671 0.0745052174
v -0.77778846 0.00659026671 0.0745052174
v -0.836296737 -0.000121938647 0.0745052174
v -0.0295275319 -0.00195432408 -0.0381715819
v -0.0319167264 0.00659029186 -0.0448675007
v -0.658698022 -0.00195434084 0.0417179428
v -0.780523837 -0.00195434084 0.0417179428
v -0.838418841 -0.00866654236 0.0417179428
v -0.23381792 0.00659027882 0.00573449116
v -0.233465061 -0.0019543271 -0.0381715819
v -0.233058125 0.00659030071 -0.0888015702
v -0.661864638 0.00659028115 0.0126861772
v -0.782782018 0.00659028394 0.0146500124
v -0.840211928 -0.000121921315 0.0140157817
v -0.841898322 -0.000121914753 -0.0120387683
v -0.78635633 0.00659029232 -0.0281934068
v -0.667411625 -0.00195432408 -0.0381715819
v -0.752049685 -0.00195432082 -0.0381716825
v -0.670014083 0.00659029419 -0.0620318577
v -0.663875163 -0.00362365204 -0.0907095
v -0.670014083 -0.00683412887 -0.0620318577
v -0.662603378 -0.0133635746 -0.0927139074
v -0.657671809 0.00323405676 -0.119689025
v -0.65511483 -0.0027825858 -0.1237192
v -0.649773955 -0.00987485144 -0.152989417
v -0.237808973 -0.00362364901 -0.111198969
v -0.650543332 -0.00724898139 -0.152989417
v -0.645330489 -0.000121914389 -0.177341744
v -0.252160639 -0.000121908 -0.178859442
v -0.237656415 -0.0137629891 -0.110479742
v -0.233058125 -0.00683411583 -0.0888013691
v -0.242303103 -0.0035856273 -0.132386476
v -0.242609784 0.00323406188 -0.133832246
v -0.246673316 -0.00673838519 -0.152989417
v -0.246673316 -0.0105946613 -0.152989417
v -0.233058125 -0.00683411583 -0.0888013691
v -0.233058125 0.00659030071 -0.0888015702
v -0.0319167264 0.00659029186 -0.0448675007
v -0.0319167264 -0.00683412794 -0.0448675007
v -0.0149720488 -0.0153787434 -0.0381715819
v -0.0149720488 -0.00195432408 -0.0381715819
v 0.0582133792 -0.0068341326 -0.00925142597
v 0.0582133792 0.00659029 -0.00925142411
v 0.305531085 0.00659029186 0.00156223297
v -0.0297001172 -0.0153787434 -0.0381715819
v -0.233440444 -0.0153787434 -0.0381715819
v -0.0171064865 -0.00683413679 -0.000128716842
v -0.233756647 -0.00683413725 0.0037001078
v 0.305531055 -0.00683412794 0.00156233006
v 0.767260194 -0.00683412282 0.0108742183
v 0.767260194 0.00659029651 0.0108741224
v 0.839213073 -0.000121908859 0.013304376
v 0.766149759 -0.0153787453 0.0417179391
v 0.839725375 -0.00866653398 0.0417179428
v 0.840316474 -0.00012192937 0.0745052174
v 0.324138165 -0.0153787518 0.0417179391
v 0.09030772 -0.0153787602 0.0417179391
v -0.00325369951 -0.0153787602 0.0417179391
v 0.764969409 -0.00683414098 0.0745052099
v 0.840942979 -0.0086665554 0.109258898
v 0.339331001 -0.00683414377 0.0745052099
v 0.110953175 -0.00683414703 0.0745052099
v 0.763718247 -0.0153787695 0.109258898
v 0.841899693 -0.000121953432 0.162322491
v 0.761843979 -0.00683416473 0.16132015
v 0.375669241 -0.00683416054 0.152925774
v 0.355435014 -0.0153787695 0.109258853
v 0.167313814 -0.00683416473 0.164012164
v 0.132836819 -0.0153787695 0.109258853
v 0.0427089296 -0.00683416985 0.180561945
v 0.0191049073 -0.0153787732 0.109258853
v -0.235092118 -0.00683417311 0.180561945
v 0.007600151 -0.00683414983 0.0745052099
v -0.23455371 -0.0153787751 0.109258898
v -0.645330489 -0.00683416985 0.180561945
v -0.234291285 -0.00683415262 0.0745051652
v -0.652585506 -0.0153787751 0.109258898
v -0.770298958 -0.00683417311 0.180561885
v -0.234043702 -0.0153787602 0.0417179391
v -0.775783598 -0.0153787732 0.109258853
v -0.829959095 -0.000121967147 0.17241931
v -0.834047198 -0.00866656378 0.109258898
v -0.656121671 -0.00683415262 0.0745051652
v -0.778456867 -0.00683414703 0.0745052099
v -0.836296737 -0.000121938647 0.0745052174
v -0.659457743 -0.0153787667 0.0417179391
v -0.780978858 -0.0153787537 0.0417179391
v -0.838418841 -0.00866654236 0.0417179428
v -0.66255492 -0.00683414424 0.0112782056
v -0.783156335 -0.0068341326 0.0134094534
v -0.840211928 -0.000121921315 0.0140157817
v -0.841898322 -0.000121914753 -0.0120387683
v -0.78635633 -0.00683412421 -0.028193308
v -0.78635633 0.00659029232 -0.0281934068
v -0.667586446 -0.0153787462 -0.0381715819
v -0.752049446 -0.0153787369 -0.0381715819
v -0.752049685 -0.00195432082 -0.0381716825
v -0.670014083 -0.00683412887 -0.0620318577
v -0.670014083 0.00659029419 -0.0620318577
v -0.662603378 -0.0133635746 -0.0927139074
v -0.237656415 -0.0137629891 -0.110479742
v -0.65511483 -0.0027825858 -0.1237192
v -0.242303103 -0.0035856273 -0.132386476
v -0.246673316 -0.0105946613 -0.152989417
v -0.649773955 -0.00987485144 -0.152989417
v -0.252160639 -0.000121908 -0.178859442
v -0.645330489 -0.000121914389 -0.177341744
vn 0.103045009 0.99466753 -0.00428798562
vn 0.0794368014 0.955003202 0.285759538
vn 0.00566406408 0.970700562 0.24022533
vn 0.0117686139 0.998408377 -0.0551570505
vn 0.113243796 0.993562102 0.00320093171
vn 0.00097187038 0.999951482 -0.00980443973
vn -0.00596973998 0.982440472 0.186480865
vn 0.0116860131 0.999222994 -0.0376413576
vn 0.123484358 0.992344797 0.00188406953
vn -0.00321792322 0.999755681 -0.0218658391
vn 0.0103332428 0.992269516 0.123670474
vn 0.00100089458 0.99951458 -0.0311382096
vn -0.00149809779 0.995423257 -0.0955521688
vn 0.0181469396 0.999490976 0.0262394994
vn 0.00102790853 0.999358952 -0.0357846804
vn 0.0223557614 0.992466629 0.120458245
vn 0.151066944 0.98045969 -0.126006022
vn -0.021953091 0.50380671 0.863537431
vn 0.00267562224 0.994991004 0.0999286175
vn 0.00395785877 0.475125164 0.879909277
vn -0.011409157 0.9769454 0.213184446
vn 0.0819512829 0.422039241 0.902865887
vn -0.00399215659 0.994755745 0.102201611
vn -0.0059524742 0.994855762 0.10112676
vn 0.004837621 0.929326355 0.369227916
vn -0.00336273713 0.998938859 -0.0459328406
vn 0 0.997566819 0.0697161928
vn 0 0.929337263 0.369232059
vn 0 0.929337144 0.369232148
vn -0.00259325071 0.999002993 0.0445671752
vn 0 0.997566819 0.0697162598
vn 0.00171997608 0.929335594 0.369232088
vn 0 0.999998331 -0.00181431323
vn -0.00533681642 0.998274565 -0.0584756136
vn -0.0101575069 0.998786032 0.0482015572
vn -0.134733006 0.989382923 -0.0544816814
vn 0 0.999998331 -0.0018143201
vn 0 0.999998927 0.00148112618
vn -0.00963668711 0.999912977 0.00901396014
vn -0.112684816 0.993150949 0.0308737047
vn 0.0111406446 0.99574995 0.0914218351
vn 0 0.961353898 -0.275315583
vn 0 0.999600232 -0.0282740872
vn 0 0.999998927 0.00148109952
vn -0.00781985652 0.999927998 -0.00910680089
vn -0.113974661 0.993483007 -0.00114234979
vn 0 0.982738554 0.185000047
vn -0.173453018 0.576958477 0.798143446
vn 0 0.999265134 -0.0383285806
vn -0.0129618533 0.986372292 -0.164017677
vn -0.115151942 0.993225634 0.0155859012
vn -0.000115302428 0.999974847 -0.0070993863
vn 0 0.9993487 -0.036084298
vn 0.0043527158 0.999496818 -0.0314205661
vn 0.000216813292 0.999910951 0.0133490441
vn -0.0297457557 0.992521346 0.118391842
vn -0.116482019 0.983640492 0.137416676
vn -0.117787033 0.993009567 0.00762408739
vn 0.167744324 0.985731184 -0.0139943752
vn 0 0.999380112 0.035203483
vn 7.74157456E-07 0.769897759 -0.638167322
vn -0.0053671822 0.995836616 0.0909980983
vn -0.0379780792 0.992393255 -0.117103495
vn -0.972048104 0 -0.234781966
vn -0.968197107 -0.0774689615 -0.237892881
vn -0.0170720574 0.999849319 -0.00315975538
vn -0.942795515 -0.266593993 -0.200160667
vn -0.949790418 -0.27830869 -0.142976731
vn 0.0377918482 0.991912246 -0.121168606
vn -0.00984733924 0.997714996 -0.0668413788
vn 0.000910394476 0.95968914 0.281062126
vn 0.00529867318 0.969071209 0.246724337
vn 0.978235722 -9.45522913E-07 -0.207496896
vn 0.978235722 -3.03104639E-06 -0.207496479
vn 0.978235602 1.3991297E-06 -0.20749703
vn 0.0413004644 0.996974468 -0.0658496022
vn 0.0440125465 0.980747402 -0.190256104
vn 0.978235602 0 -0.207497016
vn 0.0261036605 -0.994824171 -0.0982016996
vn 0.213392749 -1.42712324E-05 -0.976966441
vn 0.253059179 1.28823871E-07 -0.967450798
vn 0.219032362 -0.384197772 -0.896892905
vn 0.241842955 -0.903572977 -0.353649169
vn 0.367509514 1.23839612E-07 -0.930019736
vn 0.0445463695 -0.886722624 -0.460150748
vn 0.1316102 1.31999798E-07 -0.991301596
vn 0.027976077 -7.28598525E-06 -0.999608576
vn 0 -0.981436789 -0.191785932
vn 0 -0.999298096 0.0374617167
vn -0.00194858795 -0.999198377 -0.039985761
vn 0.000142472767 -0.999967575 0.00806112494
vn 0.0112771271 -0.927293837 -0.374164462
vn 0.0261566285 -0.7068398 -0.706889927
vn 0.0269601382 -7.23463882E-06 -0.999636531
vn 0.0959251896 -0.828591466 -0.551574647
vn 0.00585137866 -0.992760181 0.119970597
vn 0.0908514038 -0.995863914 -0.00100296293
vn 0.0887300149 -0.996028185 -0.00740897283
vn 0 -0.995376706 0.0960470363
vn 0 -0.986929893 0.161150023
vn 0 -0.98652041 0.163638294
vn 0.00421067886 -0.999976635 0.00539982831
vn 0.086591199 -0.996241331 0.00226149638
vn 0 -1 0.000312104938
vn 0 -1 0.000312230317
vn 0.00644032983 -0.995500982 -0.094531998
vn 0.0805616081 -0.984300077 0.157045096
vn 0.00660190359 -0.986737967 0.162186995
vn 0.00106635783 -0.981480539 0.191558972
vn 0 -0.996096075 -0.0882757604
vn 0.0134367235 -0.989206433 0.145911157
vn 0 -0.99679774 -0.0799646005
vn 0.00241701561 -0.992987573 0.118194491
vn 0 -0.998976946 -0.0452219322
vn 0 -0.992896259 0.118983746
vn 0 -1 0.00031220293
vn 0 -0.998389244 -0.0567348488
vn 0 -0.992896259 0.118983798
vn 0 -1 0.000312692689
vn 0 -0.998389244 -0.0567348339
vn -0.00702212378 -0.992807746 0.119513243
vn 0 -0.994407773 0.105608545
vn -0.00591023918 -0.998094261 -0.0614244491
vn -0.129688099 -0.981454134 0.141169339
vn -0.114444852 -0.993410051 0.00623388775
vn 0 -1 0.000312778924
vn -0.00427770615 -0.999922037 0.011731863
vn -0.115258627 -0.993196011 0.0166485142
vn 0 -0.993085504 0.117392883
vn -0.00710029155 -0.978965878 0.203900352
vn -0.116065137 -0.993232489 -0.00425545312
vn -0.000259045657 -0.999892592 -0.0146558853
vn -0.0331966057 -0.992933154 -0.113936953
vn -0.117236681 -0.98536706 -0.123722583
vn -0.153404877 -0.980864465 -0.119882032
vn -0.305245519 -0.873171449 -0.379995644
vn -0.279281944 -6.9492944E-06 -0.960209131
vn 0 -0.999322891 -0.0367944241
vn -0.112371311 -0.920025945 0.375399709
vn -0.279280871 -1.10661367E-05 -0.960209489
vn -0.0309848711 -0.974292994 -0.223143652
vn -0.279278636 1.27859693E-07 -0.960210025
vn -0.00160665659 -0.999871492 -0.015950866
vn -0.00212180917 -0.999597847 -0.028279094
vn -0.00410098303 -0.99465549 -0.103167892
vn -0.00445319386 -0.992749333 -0.120119892
vn -0.00178547867 -0.999886274 0.0149780558
vn -0.00178424711 -0.999196827 -0.0400315598
vn -0.00144745316 -0.927033246 -0.374976456
vn -0.00143600488 -0.928227365 -0.372010738
vt 0.918239772 0.914660931
vt 0.918030918 0.908271909
vt 0.898712218 0.907864511
vt 0.898467004 0.914792359
vt 0.918480873 0.92203337
vt 0.780697644 0.915816605
vt 0.775319874 0.906833887
vt 0.898206353 0.922156692
vt 0.918736339 0.929847956
vt 0.71778661 0.916501999
vt 0.708668828 0.905131757
vt 0.785088658 0.923151016
vt 0.723651826 0.923816204
vt 0.897930086 0.929962695
vt 0.789742947 0.93092525
vt 0.89759779 0.939350069
vt 0.919126451 0.941779673
vt 0.897737086 0.943898082
vt 0.794353247 0.938625991
vt 0.794509351 0.943010569
vt 0.738154054 0.941901147
vt 0.738285303 0.946311533
vt 0.72986877 0.931569099
vt 0.704583824 0.940938294
vt 0.704604626 0.949037015
vt 0.699176669 0.93200171
vt 0.630187035 0.941586018
vt 0.630312085 0.949777424
vt 0.520226955 0.950880587
vt 0.6957798 0.924219549
vt 0.520154238 0.942664146
vt 0.486812264 0.951151788
vt 0.630315363 0.93282783
vt 0.692575097 0.916877627
vt 0.486764312 0.943009436
vt 0.470812082 0.948729932
vt 0.518456221 0.933805704
vt 0.630375206 0.925113142
vt 0.485406488 0.934147954
vt 0.469543397 0.934498072
vt 0.688710928 0.908024669
vt 0.688728869 0.898925781
vt 0.630431652 0.917834997
vt 0.517363429 0.926008523
vt 0.484544605 0.926359892
vt 0.468845308 0.926667094
vt 0.684766591 0.898988307
vt 0.684112132 0.897488952
vt 0.516332507 0.918652534
vt 0.483731508 0.919012547
vt 0.468186736 0.919279218
vt 0.630493641 0.90984726
vt 0.63056922 0.900100946
vt 0.630656421 0.888862014
vt 0.515419602 0.912139177
vt 0.483060241 0.91294682
vt 0.467630297 0.913037062
vt 0.467106968 0.907166243
vt 0.481997758 0.903345942
vt 0.513820469 0.900729001
vt 0.491160333 0.900995731
vt 0.513070226 0.895375848
vt 0.514622271 0.888906062
vt 0.509614587 0.894614398
vt 0.512267947 0.887886643
vt 0.516190648 0.882368207
vt 0.514949203 0.881088078
vt 0.51733011 0.874687076
vt 0.629110575 0.883673191
vt 0.517992914 0.874855518
vt 0.519310892 0.869361579
vt 0.624440908 0.867998362
vt 0.632447124 0.882131815
vt 0.634985387 0.886612535
vt 0.629882216 0.877603889
vt 0.627548516 0.87842977
vt 0.626226366 0.873991609
vt 0.627469897 0.873345494
vt 0.286121458 0.851009429
vt 0.283545464 0.844682693
vt 0.232639939 0.859022141
vt 0.233744249 0.861907661
vt 0.2292227 0.863409698
vt 0.22819221 0.860496402
vt 0.209693775 0.869897187
vt 0.20898208 0.866863668
vt 0.144414216 0.868741333
vt 0.233144492 0.863446832
vt 0.286126494 0.862929404
vt 0.229737014 0.872191548
vt 0.286130667 0.872787476
vt 0.144448519 0.871826172
vt 0.0239109304 0.872538209
vt 0.0237144046 0.869472444
vt 0.00507652434 0.872759461
vt 0.0240919292 0.879662514
vt 0.00484101195 0.879333794
vt 0.00456924736 0.886920094
vt 0.139482856 0.88104409
vt 0.201181516 0.881586909
vt 0.225988835 0.881810606
vt 0.024284333 0.887235761
vt 0.00428118417 0.894961476
vt 0.135428369 0.888570547
vt 0.195705816 0.889106572
vt 0.024488274 0.895263195
vt 0.00384135428 0.907239377
vt 0.0247937795 0.907288313
vt 0.125730842 0.906572521
vt 0.131130725 0.89654851
vt 0.180757523 0.90963465
vt 0.18990171 0.897077203
vt 0.213552669 0.913725913
vt 0.219939262 0.897335887
vt 0.28614822 0.914426863
vt 0.223052114 0.889347255
vt 0.286141157 0.897639632
vt 0.393635094 0.915532947
vt 0.2861377 0.889457464
vt 0.395760477 0.899080098
vt 0.426273286 0.915920556
vt 0.286134422 0.881738186
vt 0.427932262 0.899477482
vt 0.441963613 0.914213419
vt 0.443228483 0.899611592
vt 0.396796405 0.891060829
vt 0.428740829 0.891462982
vt 0.443924457 0.891577005
vt 0.397773683 0.883495271
vt 0.429503679 0.883901954
vt 0.444581032 0.883997023
vt 0.398681015 0.8764714
vt 0.430162311 0.877373815
vt 0.445135832 0.877592623
vt 0.445657611 0.871569157
vt 0.43113026 0.867779791
vt 0.432305306 0.864911437
vt 0.400154978 0.865061104
vt 0.422206014 0.865354538
vt 0.423395395 0.862467289
vt 0.400866181 0.859555364
vt 0.402089506 0.856622696
vt 0.399008036 0.85239625
vt 0.28755331 0.846235394
vt 0.397130311 0.845161796
vt 0.289000213 0.841411114
vt 0.290361047 0.836873889
vt 0.395820528 0.83836025
vt 0.292069703 0.831176758
vt 0.394730806 0.832701504
g submesh0
f 1/1/1 2/2/2 3/3/3
f 1/1/1 3/3/3 4/4/4
f 5/5/5 1/1/1 4/4/4
f 6/6/6 4/4/4 3/3/3
f 6/6/6 3/3/3 7/7/7
f 5/5/5 4/4/4 8/8/8
f 9/9/9 5/5/5 8/8/8
f 7/7/7 10/10/10 6/6/6
f 7/7/7 11/11/11 10/10/10
f 12/12/12 4/4/4 6/6/6
f 12/12/12 8/8/8 4/4/4
f 6/6/6 10/10/10 13/13/13
f 6/6/6 13/13/13 12/12/12
f 9/9/9 8/8/8 14/14/14
f 15/15/15 8/8/8 12/12/12
f 15/15/15 14/14/14 8/8/8
f 9/9/9 14/14/14 16/16/16
f 9/9/9 16/16/16 17/17/17
f 18/18/18 17/17/17 16/16/16
f 19/19/19 16/16/16 14/14/14
f 18/18/18 16/16/16 19/19/19
f 19/19/19 14/14/14 15/15/15
f 18/18/18 19/19/19 20/20/20
f 20/20/20 19/19/19 21/21/21
f 15/15/15 21/21/21 19/19/19
f 20/20/20 21/21/21 22/22/22
f 12/12/12 23/23/23 15/15/15
f 15/15/15 23/23/23 21/21/21
f 12/12/12 13/13/13 23/23/23
f 22/22/22 21/21/21 24/24/24
f 23/23/23 24/24/24 21/21/21
f 22/22/22 24/24/24 25/25/25
f 13/13/13 26/26/26 23/23/23
f 23/23/23 26/26/26 24/24/24
f 25/25/25 24/24/24 27/27/27
f 27/27/27 24/24/24 26/26/26
f 25/25/25 27/27/27 28/28/28
f 29/29/29 28/28/28 27/27/27
f 13/13/13 30/30/30 26/26/26
f 10/10/10 30/30/30 13/13/13
f 29/29/29 27/27/27 31/31/31
f 32/32/32 29/29/29 31/31/31
f 27/27/27 26/26/26 33/33/33
f 33/33/33 26/26/26 30/30/30
f 31/31/31 27/27/27 33/33/33
f 10/10/10 34/34/34 30/30/30
f 11/11/11 34/34/34 10/10/10
f 32/32/32 31/31/31 35/35/35
f 32/32/32 35/35/35 36/36/36
f 31/31/31 33/33/33 37/37/37
f 35/35/35 31/31/31 37/37/37
f 33/33/33 30/30/30 38/38/38
f 38/38/38 30/30/30 34/34/34
f 37/37/37 33/33/33 38/38/38
f 36/36/36 35/35/35 39/39/39
f 35/35/35 37/37/37 39/39/39
f 36/36/36 39/39/39 40/40/40
f 11/11/11 41/41/41 34/34/34
f 41/41/41 11/11/11 42/42/42
f 38/38/38 34/34/34 43/43/43
f 41/41/41 43/43/43 34/34/34
f 37/37/37 38/38/38 44/44/44
f 39/39/39 37/37/37 44/44/44
f 44/44/44 38/38/38 43/43/43
f 40/40/40 39/39/39 45/45/45
f 39/39/39 44/44/44 45/45/45
f 40/40/40 45/45/45 46/46/46
f 41/41/41 42/42/42 47/47/47
f 47/47/47 42/42/42 48/48/48
f 44/44/44 43/43/43 49/49/49
f 45/45/45 44/44/44 49/49/49
f 46/46/46 45/45/45 50/50/50
f 45/45/45 49/49/49 50/50/50
f 46/46/46 50/50/50 51/51/51
f 41/41/41 52/52/52 43/43/43
f 52/52/52 41/41/41 47/47/47
f 52/52/52 49/49/49 43/43/43
f 53/53/53 47/47/47 48/48/48
f 52/52/52 47/47/47 53/53/53
f 53/53/53 48/48/48 54/54/54
f 52/52/52 55/55/55 49/49/49
f 55/55/55 50/50/50 49/49/49
f 55/55/55 52/52/52 53/53/53
f 56/56/56 51/51/51 50/50/50
f 55/55/55 56/56/56 50/50/50
f 56/56/56 57/57/57 51/51/51
f 58/58/58 57/57/57 56/56/56
f 58/58/58 56/56/56 59/59/59
f 59/59/59 56/56/56 55/55/55
f 59/59/59 55/55/55 60/60/60
f 55/55/55 53/53/53 60/60/60
f 60/60/60 61/61/61 59/59/59
f 61/61/61 60/60/60 62/62/62
f 62/62/62 60/60/60 53/53/53
f 62/62/62 53/53/53 54/54/54
f 54/54/54 63/63/63 62/62/62
f 64/64/64 62/62/62 63/63/63
f 64/64/64 63/63/63 65/65/65
f 65/65/65 63/63/63 66/66/66
f 65/65/65 66/66/66 67/67/67
f 68/68/68 67/67/67 66/66/66
f 54/54/54 69/69/69 63/63/63
f 69/69/69 66/66/66 63/63/63
f 68/68/68 66/66/66 70/70/70
f 68/68/68 70/70/70 71/71/71
f 72/72/72 71/71/71 70/70/70
f 54/54/54 73/73/73 69/69/69
f 54/54/54 74/74/74 73/73/73
f 69/69/69 73/73/73 75/75/75
f 69/69/69 76/76/76 66/66/66
f 76/76/76 70/70/70 66/66/66
f 69/69/69 75/75/75 76/76/76
f 72/72/72 70/70/70 77/77/77
f 76/76/76 77/77/77 70/70/70
f 77/77/77 76/76/76 75/75/75
f 77/77/77 78/78/78 72/72/72
f 77/77/77 75/75/75 78/78/78
f 79/79/79 80/80/80 81/81/81
f 79/79/79 81/81/81 82/82/82
f 83/83/83 82/82/82 81/81/81
f 83/83/83 81/81/81 84/84/84
f 85/85/85 83/83/83 84/84/84
f 85/85/85 84/84/84 86/86/86
f 87/87/87 85/85/85 86/86/86
f 83/83/83 88/88/88 82/82/82
f 82/82/82 89/89/89 79/79/79
f 82/82/82 88/88/88 89/89/89
f 83/83/83 90/90/90 88/88/88
f 83/83/83 85/85/85 90/90/90
f 88/88/88 91/91/91 89/89/89
f 88/88/88 90/90/90 91/91/91
f 87/87/87 92/92/92 85/85/85
f 93/93/93 92/92/92 87/87/87
f 93/93/93 87/87/87 94/94/94
f 93/93/93 94/94/94 95/95/95
f 95/95/95 96/96/96 93/93/93
f 95/95/95 97/97/97 96/96/96
f 98/98/98 96/96/96 97/97/97
f 93/93/93 99/99/99 92/92/92
f 93/93/93 96/96/96 99/99/99
f 92/92/92 100/100/100 85/85/85
f 92/92/92 99/99/99 100/100/100
f 85/85/85 101/101/101 90/90/90
f 85/85/85 100/100/100 101/101/101
f 98/98/98 102/102/102 96/96/96
f 103/103/103 102/102/102 98/98/98
f 96/96/96 104/104/104 99/99/99
f 96/96/96 102/102/102 104/104/104
f 99/99/99 105/105/105 100/100/100
f 99/99/99 104/104/104 105/105/105
f 103/103/103 106/106/106 102/102/102
f 107/107/107 106/106/106 103/103/103
f 107/107/107 108/108/108 106/106/106
f 106/106/106 108/108/108 109/109/109
f 102/102/102 106/106/106 110/110/110
f 106/106/106 109/109/109 110/110/110
f 102/102/102 110/110/110 104/104/104
f 110/110/110 109/109/109 111/111/111
f 104/104/104 110/110/110 112/112/112
f 110/110/110 111/111/111 112/112/112
f 104/104/104 112/112/112 105/105/105
f 113/113/113 112/112/112 111/111/111
f 113/113/113 114/114/114 112/112/112
f 105/105/105 112/112/112 114/114/114
f 115/115/115 114/114/114 113/113/113
f 100/100/100 105/105/105 116/116/116
f 105/105/105 114/114/114 116/116/116
f 100/100/100 116/116/116 101/101/101
f 115/115/115 117/117/117 114/114/114
f 117/117/117 116/116/116 114/114/114
f 118/118/118 117/117/117 115/115/115
f 119/119/119 101/101/101 116/116/116
f 117/117/117 119/119/119 116/116/116
f 118/118/118 120/120/120 117/117/117
f 120/120/120 119/119/119 117/117/117
f 121/121/121 120/120/120 118/118/118
f 119/119/119 122/122/122 101/101/101
f 122/122/122 90/90/90 101/101/101
f 122/122/122 91/91/91 90/90/90
f 121/121/121 123/123/123 120/120/120
f 124/124/124 123/123/123 121/121/121
f 124/124/124 125/125/125 123/123/123
f 120/120/120 126/126/126 119/119/119
f 126/126/126 122/122/122 119/119/119
f 126/126/126 120/120/120 123/123/123
f 125/125/125 127/127/127 123/123/123
f 126/126/126 123/123/123 127/127/127
f 125/125/125 128/128/128 127/127/127
f 126/126/126 129/129/129 122/122/122
f 129/129/129 91/91/91 122/122/122
f 129/129/129 126/126/126 127/127/127
f 128/128/128 130/130/130 127/127/127
f 129/129/129 127/127/127 130/130/130
f 128/128/128 131/131/131 130/130/130
f 129/129/129 132/132/132 91/91/91
f 132/132/132 129/129/129 130/130/130
f 89/89/89 91/91/91 132/132/132
f 131/131/131 133/133/133 130/130/130
f 132/132/132 130/130/130 133/133/133
f 131/131/131 134/134/134 133/133/133
f 133/133/133 134/134/134 135/135/135
f 133/133/133 135/135/135 136/136/136
f 132/132/132 133/133/133 136/136/136
f 135/135/135 137/137/137 136/136/136
f 89/89/89 132/132/132 138/138/138
f 138/138/138 132/132/132 136/136/136
f 138/138/138 79/79/79 89/89/89
f 139/139/139 136/136/136 137/137/137
f 136/136/136 139/139/139 138/138/138
f 139/139/139 137/137/137 140/140/140
f 138/138/138 139/139/139 141/141/141
f 141/141/141 139/139/139 140/140/140
f 138/138/138 141/141/141 79/79/79
f 141/141/141 140/140/140 142/142/142
f 143/143/143 79/79/79 141/141/141
f 143/143/143 144/144/144 79/79/79
f 145/145/145 144/144/144 143/143/143
f 145/145/145 146/146/146 144/144/144
f 147/147/147 146/146/146 145/145/145
f 147/147/147 145/145/145 148/148/148
f 149/149/149 147/147/147 148/148/148
f 149/149/149 148/148/148 150/150/150
