# corrugated_sheet_smallDamaged001_LOD0
v 0.739491105 0.0184262004 0.0122803468
v 0.725591123 0.00738726603 0.055907201
v 0.813193619 -0.00211279839 0.054548949
v 0.829504251 0.00888140686 0.0124896867
v 0.828402936 -0.0020943773 -0.0539129972
v 0.738800287 0.00742469961 -0.0510122366
v 0.261011302 0.00738718873 -0.0323414356
v 0.259460628 0.0184264258 0.0108040581
v 0.258355647 0.00739860767 0.0581023395
v -0.411536008 0.00740434974 -0.0405516624
v -0.412909389 0.0184265655 0.00900800712
v -0.413888931 0.00740729552 0.0596942939
v -0.7444821 0.00740482844 0.0578003861
v -0.758384228 0.0184265357 0.0081972871
v -0.755885124 0.00742389029 -0.0549769625
v -0.810108244 -0.0021053839 0.0562767014
v -0.82659483 -0.00209462387 -0.0596943982
v -0.829504907 0.00888155121 0.00787517428
v 0.829504251 0.00888140686 0.0124896867
v 0.738838792 -0.0116190054 -0.0497070476
v 0.828402936 -0.0020943773 -0.0539129972
v 0.738800287 0.00742469961 -0.0510122366
v 0.261011302 0.00738718873 -0.0323414356
v 0.739513397 -0.000663360115 0.012179398
v 0.813193619 -0.00211279839 0.054548949
v 0.260999084 -0.0116111077 -0.0304725394
v 0.725594759 -0.0116111832 0.0540408827
v 0.725591123 0.00738726603 0.055907201
v -0.411578298 -0.0116147222 -0.0389081351
v -0.411536008 0.00740434974 -0.0405516624
v -0.755885124 0.00742389029 -0.0549769625
v 0.259452671 -0.000663406332 0.0108840019
v 0.25835368 -0.0116135711 0.0563803576
v 0.258355647 0.00739860767 0.0581023395
v -0.413888931 0.00740729552 0.0596942939
v -0.755903006 -0.0116188377 -0.0536483005
v -0.82659483 -0.00209462387 -0.0596943982
v -0.412927151 -0.000663430837 0.00901243277
v -0.758388937 -0.000663421466 0.00816502888
v -0.829504907 0.00888155121 0.00787517428
v -0.810108244 -0.0021053839 0.0562767014
v -0.74447757 -0.0116148787 0.0561638214
v -0.7444821 0.00740482844 0.0578003861
v -0.413885534 -0.0116153993 0.0580926798
vn 0.0204690471 0.999779642 0.00464834925
vn 0.0128760347 0.968383551 0.249133274
vn 0.107617907 0.950868309 0.290289253
vn 0.105460912 0.994395494 -0.00746063329
vn 0.0989663526 0.981504202 -0.163875356
vn 0.0134963235 0.985112727 -0.171379328
vn -0.00336277159 0.968757272 -0.247987777
vn -4.99835442E-05 0.999846578 0.0175136942
vn 0.000820433022 0.973875165 0.227082774
vn 0.00590692414 0.976167321 -0.216938794
vn 1.01758842E-05 0.999991894 -0.00403139787
vn -0.000354226737 0.977175713 0.212432504
vn -0.00791120343 0.975689769 0.219013542
vn -0.0167489797 0.996051252 0.0871856138
vn -0.0180016514 0.984889805 -0.172243953
vn -0.1441627 0.95096761 0.273638159
vn -0.120829217 0.978993058 -0.164234102
vn -0.132988423 0.991101503 -0.00565619674
vn 0.105287768 -0.993823171 0.0350701772
vn 0.00206964649 -0.915417016 -0.402501523
vn 0.111228205 -0.983779252 0.140736431
vn -0.0392450318 -0.0684023574 -0.996885598
vn -0.00907910429 -0.097889401 -0.995155931
vn 0.0213335175 -0.999771893 0.000992391957
vn 0.0893995315 -0.85207355 0.515730977
vn 0.00172325457 -0.99823159 0.0594212934
vn 0.00954809878 -0.557465732 0.830145001
vn 0.00475080078 -0.0977625847 0.995198429
vn -0.00174012769 -0.99958688 0.0286873616
vn 0.0221689697 -0.086121574 -0.99603796
vn 0.0446842015 -0.0695756972 -0.996575415
vn 4.84958364E-05 -0.999843836 -0.0176688749
vn 0.000672922819 -0.984185219 0.177141815
vn 0.00351702468 -0.0902031213 0.995917141
vn -0.0016746216 -0.0838983804 0.996472895
vn -0.0209516603 -0.992025375 -0.124285482
vn -0.143177137 -0.981367648 0.128131673
vn -1.1389895E-05 -0.999990582 0.00435200753
vn -0.0171655454 -0.996253967 -0.0847550631
vn -0.133079574 -0.990354061 0.0385810584
vn -0.0994971544 -0.695140123 0.711955369
vn -0.0100438241 -0.83332634 0.552690089
vn -0.00820739288 -0.0857281908 0.996284723
vn -0.00056852441 -0.938167393 0.346181422
vt 0.887483358 0.975804627
vt 0.883767545 0.986259878
vt 0.907988667 0.985946357
vt 0.912287116 0.975841045
vt 0.912118554 0.960003793
vt 0.887363672 0.960701525
vt 0.756781697 0.96513319
vt 0.756354809 0.975452185
vt 0.756048441 0.986756563
vt 0.573116124 0.963153064
vt 0.572733104 0.974997222
vt 0.572458029 0.987108648
vt 0.481920809 0.986677527
vt 0.478242934 0.974798262
vt 0.47885403 0.959720194
vt 0.46362707 0.986349165
vt 0.459204435 0.958602011
vt 0.458562404 0.974716842
vt 0.00512180571 0.939495504
vt 0.0292921998 0.925826967
vt 0.00558140874 0.924679279
vt 0.0292884558 0.921712101
vt 0.155057803 0.926021039
vt 0.0290501565 0.939425588
vt 0.00955025014 0.948870242
vt 0.155010939 0.930179536
vt 0.0327678882 0.948566496
vt 0.0325704329 0.952699602
vt 0.331994295 0.928386331
vt 0.331876576 0.924230695
vt 0.422667772 0.920990348
vt 0.155423924 0.939197958
vt 0.155700892 0.949129939
vt 0.155678019 0.953281105
vt 0.332580686 0.953735888
vt 0.422691315 0.925122023
vt 0.44147858 0.923576176
vt 0.332318187 0.93886745
vt 0.423390239 0.938718319
vt 0.442401081 0.938663781
vt 0.437117159 0.949461877
vt 0.419639021 0.949192822
vt 0.419902772 0.953293025
vt 0.332564324 0.949593067
g submesh0
f 1/1/1 2/2/2 3/3/3
f 1/1/1 3/3/3 4/4/4
f 1/1/1 4/4/4 5/5/5
f 1/1/1 5/5/5 6/6/6
f 1/1/1 6/6/6 7/7/7
f 8/8/8 2/2/2 1/1/1
f 1/1/1 7/7/7 8/8/8
f 8/8/8 9/9/9 2/2/2
f 8/8/8 7/7/7 10/10/10
f 11/11/11 9/9/9 8/8/8
f 8/8/8 10/10/10 11/11/11
f 11/11/11 12/12/12 9/9/9
f 11/11/11 13/13/13 12/12/12
f 14/14/14 11/11/11 10/10/10
f 11/11/11 14/14/14 13/13/13
f 14/14/14 10/10/10 15/15/15
f 16/16/16 13/13/13 14/14/14
f 14/14/14 15/15/15 17/17/17
f 16/16/16 14/14/14 18/18/18
f 14/14/14 17/17/17 18/18/18
f 19/19/19 20/20/20 21/21/21
f 20/20/20 22/22/22 21/21/21
f 20/20/20 23/23/23 22/22/22
f 19/19/19 24/24/24 20/20/20
f 25/25/25 24/24/24 19/19/19
f 20/20/20 26/26/26 23/23/23
f 26/26/26 20/20/20 24/24/24
f 25/25/25 27/27/27 24/24/24
f 25/25/25 28/28/28 27/27/27
f 29/29/29 23/23/23 26/26/26
f 29/29/29 30/30/30 23/23/23
f 29/29/29 31/31/31 30/30/30
f 26/26/26 24/24/24 32/32/32
f 32/32/32 24/24/24 27/27/27
f 29/29/29 26/26/26 32/32/32
f 33/33/33 27/27/27 28/28/28
f 32/32/32 27/27/27 33/33/33
f 33/33/33 28/28/28 34/34/34
f 33/33/33 34/34/34 35/35/35
f 29/29/29 36/36/36 31/31/31
f 37/37/37 31/31/31 36/36/36
f 29/29/29 32/32/32 38/38/38
f 33/33/33 38/38/38 32/32/32
f 38/38/38 36/36/36 29/29/29
f 37/37/37 36/36/36 39/39/39
f 38/38/38 39/39/39 36/36/36
f 37/37/37 39/39/39 40/40/40
f 41/41/41 40/40/40 39/39/39
f 41/41/41 39/39/39 42/42/42
f 42/42/42 39/39/39 38/38/38
f 42/42/42 43/43/43 41/41/41
f 42/42/42 35/35/35 43/43/43
f 33/33/33 44/44/44 38/38/38
f 42/42/42 38/38/38 44/44/44
f 42/42/42 44/44/44 35/35/35
f 33/33/33 35/35/35 44/44/44
