# cover_c_LOD1
v -1.16344237 1.33532774 0.11988052
v -1.30948424 1.39683044 0.11693795
v -1.3787396 1.26725292 0.114417501
v -1.34417176 1.21781695 0.115285635
v 0.00680358894 0.682929575 0.104893357
v 1.2415185 -0.164143831 0.0742451102
v 0.761552095 0.284418076 0.102489032
v 1.35669374 0.00836193096 0.0797306597
v 1.28475153 -0.168285668 0.0737583935
v -1.3787396 1.26725292 0.0867525116
v -1.30948424 1.39683044 0.0892729536
v -1.16344237 1.33532774 0.0922155231
v -1.34417176 1.21781695 0.0876206383
v 0.00680358894 0.682929695 0.0772283673
v 1.2415185 -0.164143831 0.0465801097
v 0.761552095 0.284418076 0.0748240575
v 1.35669374 0.00836193096 0.0520656854
v 1.28475153 -0.168285668 0.0460933968
v -1.39636838 1.15360808 0.0611177497
v -1.44487 0.780104637 0.0554026291
v -1.45255613 -0.288286656 0.0533101372
v -1.25902152 -0.280459881 0.0549533628
v -1.33335078 -0.304492325 0.0537406355
v -1.43732965 -0.303729177 0.0529203862
v -1.07789183 1.17077589 0.0778402612
v -1.09506404 1.20388651 0.0791982859
v -1.3959887 1.20634186 0.0631433651
v -1.08841002 -0.290954441 0.0559503026
v -1.20546448 -0.30543074 0.0547435358
v -1.1038574 -0.306177735 0.0556096956
v -1.45255613 -0.287787616 0.0256496519
v -1.44487 0.780603647 0.0277421419
v -1.39636838 1.15410709 0.033457268
v -1.25902152 -0.27996093 0.0272928849
v -1.33335078 -0.303993285 0.0260801446
v -1.43732965 -0.303230137 0.0252599046
v -1.07789183 1.1712749 0.0501797646
v -1.09506404 1.2043854 0.0515378118
v -1.3959887 1.20684099 0.0354828723
v -1.08841002 -0.290455461 0.0282898173
v -1.20546448 -0.30493179 0.0270830523
v -1.1038574 -0.305678785 0.0279492177
v 1.52048159 1.20099604 0.0674136728
v 1.5029583 1.1160624 0.0642908663
v 1.52048159 1.14096069 0.0649613515
v 1.44696343 1.19415677 0.0683584735
v 0.84536314 1.07990968 0.0868779048
v 1.52048159 1.26497018 0.0701293945
v 1.51459718 1.2321533 0.0688029826
v -0.0077770995 1.07561171 0.089140512
v -1.50521541 1.26497006 0.105446368
v -1.34728456 1.09133387 0.104182921
v -1.50521541 1.13307893 0.102408998
v 1.5029583 1.1160624 0.0366258845
v 1.52048159 1.20099604 0.0397486873
v 1.52048159 1.14096069 0.0372963659
v 1.44696343 1.19415677 0.0406934954
v 0.84536314 1.07990968 0.059212923
v 1.52048159 1.26497018 0.0424644016
v 1.51459718 1.2321533 0.0411380008
v -0.0077770995 1.07561171 0.0614755228
v -1.50521541 1.26497006 0.0777813792
v -1.34728456 1.09133387 0.0765179321
v -1.50521541 1.13307893 0.0747440159
v -1.4902178 0.312623501 0.0550314896
v 0.239786372 0.879944444 0.152254626
v 0.218209833 0.943483889 0.133283883
v -1.4691925 0.251754463 0.0740187839
v 0.262898564 0.816957235 0.133250788
v -1.44663143 0.191437677 0.0550314896
v 0.284475714 0.75341779 0.152221531
v -1.42560542 0.130568504 0.074018769
v 0.307587892 0.690430641 0.133217677
v -1.40304434 0.0702515766 0.0550314784
v 0.329164416 0.626891196 0.152188405
v -1.38201904 0.00938247703 0.0740187541
v 0.352276593 0.563904047 0.133184567
v -1.35945737 -0.0509345233 0.0550314598
v 0.373853147 0.500364602 0.152155295
v -1.33843195 -0.111803509 0.0740187466
v 0.396965325 0.437377453 0.133151457
v -1.315871 -0.172120437 0.0550314523
v 0.418541849 0.373838007 0.152122185
v -1.29484558 -0.232989728 0.0740187317
v 0.441654652 0.310850888 0.133118346
v -1.27228451 -0.293306649 0.0550314412
v 0.240113527 0.880042374 0.144366086
v -1.48914182 0.310637712 0.0474655777
v 0.219262078 0.941575348 0.125694707
v -1.46887505 0.251878113 0.066130206
v 0.263210446 0.817086875 0.125362083
v -1.44631159 0.191545486 0.0471427664
v 0.284801006 0.753519595 0.14433296
v -1.42528617 0.130688205 0.0661301911
v 0.307900995 0.690556467 0.125328973
v -1.40272641 0.0703633502 0.0471427478
v 0.329488516 0.626996756 0.14429985
v -1.38169861 0.00949829072 0.0661301911
v 0.352591544 0.564025998 0.125295863
v -1.35914123 -0.0508187078 0.0471427366
v 0.374176025 0.500473976 0.144266739
v -1.33810973 -0.111691661 0.0661301687
v 0.397281498 0.437495649 0.125262737
v -1.31555533 -0.172000647 0.0471427366
v 0.418863505 0.373951256 0.144233629
v -1.29452205 -0.232881993 0.0661301613
v 0.441242069 0.31299156 0.125529334
v -1.27272153 -0.291088641 0.0474660546
v 0.654403687 -0.0404721051 0.111634836
v 0.690533459 1.66719878 0.0993426815
v 0.634042323 1.66813338 0.0794186816
v 0.710106194 -0.0399582647 0.131535873
v 0.74583739 1.6654948 0.0788358524
v 0.765751958 -0.0403940566 0.111003131
v 0.801370859 1.66455591 0.0987653434
v 0.821626544 -0.0400646217 0.130906686
v 0.85667479 1.66285217 0.0782585144
v 0.877272308 -0.0405001044 0.110373944
v 0.912208259 1.66191375 0.0981879979
v 0.933146954 -0.0401706696 0.1302775
v 0.96751219 1.66020989 0.0776811764
v 0.988792717 -0.0406064615 0.109744757
v 1.02304566 1.65927136 0.0976106599
v 1.04466736 -0.0402770229 0.129648313
v 1.07834959 1.65756738 0.0771038383
v 1.10031307 -0.0407125093 0.109115563
v 1.133883 1.65662897 0.0970333293
v 1.15618777 -0.0403831489 0.129019126
v 1.18918693 1.65492487 0.0765265077
v 1.21183348 -0.0408187844 0.108486377
v 1.24472046 1.65398645 0.0964559913
v 1.26770806 -0.0404893495 0.12838994
v 1.30002499 1.65228271 0.0759491697
v 1.32335389 -0.0409251377 0.10785719
v 1.3555578 1.65134394 0.0958786532
v 1.37922847 -0.0405956246 0.127760753
v 1.4002887 1.64989197 0.0754269138
v 1.43393123 -0.0411956795 0.107236437
v 0.690526128 1.66702712 0.090210788
v 0.657476187 -0.0405991338 0.103034697
v 0.637078226 1.66800714 0.0708053783
v 0.710037827 -0.0401315317 0.122404285
v 0.74571532 1.66532159 0.0697048083
v 0.765725076 -0.0405661762 0.101871289
v 0.801389754 1.66438377 0.0896334797
v 0.821549654 -0.0402381122 0.121775165
v 0.856552124 1.66267908 0.0691274852
v 0.877246678 -0.0406723768 0.101242103
v 0.912228346 1.66174161 0.0890561491
v 0.933068812 -0.0403441601 0.121145979
v 0.967388868 1.66003656 0.068550162
v 0.988767684 -0.0407786556 0.100612916
v 1.0230664 1.6590991 0.0884788111
v 1.04458857 -0.0404505134 0.120516814
v 1.07822502 1.65739405 0.0679728389
v 1.10028863 -0.0408846289 0.099983722
v 1.13390434 1.65645659 0.087901473
v 1.15610838 -0.0405567922 0.119887628
v 1.18906188 1.65475154 0.0673955157
v 1.21181023 -0.0409909822 0.0993545353
v 1.24474299 1.65381408 0.0873241425
v 1.26762748 -0.0406629927 0.119258441
v 1.29989803 1.65210903 0.0668181852
v 1.32333183 -0.0410972573 0.0987253338
v 1.35525203 1.65116727 0.08675199
v 1.37911308 -0.0407791883 0.118629828
v 1.39649832 1.64968193 0.067119509
v 1.4307214 -0.0414202884 0.0986884385
v 1.38246584 -0.321934491 0.0510971062
v 1.46326411 -0.331653655 0.0478703268
v 1.36997008 -0.0489394367 0.0383849964
v 1.38826418 2.69523668 0.0522927716
v 1.50122011 2.66024947 0.0527019203
v 1.47868836 2.69408941 0.0525571331
v 1.29755855 2.67423344 0.051388517
v 1.17801881 -0.143023074 0.0471445695
v 1.19314933 -0.328227073 0.0579892248
v 1.36107969 -0.330357581 0.0524750613
v 1.05648983 -0.290439516 0.0581915565
v 1.17278135 -0.316234291 0.057742618
v 1.07080996 -0.326674879 0.0601569787
v 1.094414 2.69896412 0.047589913
v 1.17853999 2.6978972 0.0495734774
v 1.46326411 -0.331653655 0.0202053487
v 1.38246584 -0.321934491 0.0234321263
v 1.36997008 -0.0489394367 0.0107200332
v 1.38826418 2.69523668 0.0246277954
v 1.50122011 2.66024947 0.0250369497
v 1.47868836 2.69408941 0.0248921625
v 1.29755855 2.67423344 0.023723539
v 1.17801881 -0.143023074 0.0194795989
v 1.19314933 -0.328227073 0.0303242486
v 1.36107969 -0.330357581 0.0248100795
v 1.05648983 -0.290439516 0.0305265803
v 1.17278135 -0.316234291 0.0300776418
v 1.07080996 -0.326674879 0.0324920118
v 1.094414 2.69896412 0.019924935
v 1.17853999 2.6978972 0.0219085068
v -1.06709039 1.27796447 0.0597803779
v 1.08582461 1.11617184 0.0597803965
v 1.0897845 1.23389542 0.059780404
v -1.06933773 1.15665436 0.0597803593
v -1.06983757 1.12967587 0.0435905643
v 1.08491695 1.08920121 0.0435906127
v -1.07033694 1.10269761 0.0597803481
v 1.08400941 1.06223047 0.0597803928
v 1.08095706 0.971478224 0.0597803853
v -1.07208431 1.00836575 0.0597803183
v -1.07258415 0.981387436 0.0435905308
v 1.0800494 0.944506824 0.0435905978
v -1.07308412 0.954409063 0.0597803146
v 1.07914245 0.917535543 0.0597803779
v 1.0760895 0.82678479 0.0597803667
v -1.07483149 0.860077441 0.0597802922
v -1.07533145 0.833099067 0.043590501
v 1.07518244 0.799812675 0.0435905829
v -1.07583129 0.806120336 0.059780281
v 1.0742749 0.772840559 0.059780363
v 1.07122254 0.682091534 0.0597803518
v -1.07757866 0.711788952 0.0597802624
v -1.07807803 0.6848104 0.0435904749
v 1.07031488 0.655118525 0.043590568
v -1.07857788 0.657831967 0.0597802512
v 1.06940734 0.628145576 0.0597803481
v 1.06635499 0.537398338 0.0597803406
v -1.08032525 0.563500762 0.0597802326
v -1.08082521 0.536521852 0.0435904339
v 1.06544733 0.510424316 0.0435905494
v -1.08132505 0.509543061 0.0597802214
v 1.06454039 0.483450472 0.0597803406
v 1.06148744 0.392704904 0.0597803295
v -1.08307254 0.415212631 0.0597801991
v -1.08357239 0.388233393 0.0435904078
v 1.06057978 0.365730047 0.0435905382
v -1.08407164 0.361254275 0.0597801879
v 1.05967283 0.33875522 0.0597803183
v 1.05662048 0.248012081 0.0597803108
v -1.08581913 0.266924471 0.0597801656
v -1.08631897 0.239944875 0.043590378
v 1.05571282 0.221035883 0.0435905196
v -1.08681881 0.21296519 0.0597801581
v 1.05480528 0.194059864 0.0597803071
v 1.05175292 0.103318974 0.0597802997
v -1.0885663 0.118636392 0.0597801395
v -1.08906615 0.0916562602 0.0435903445
v 1.05084527 0.076341778 0.0435905121
v -1.08956599 0.0646761283 0.0597801246
v 1.04993773 0.0493646599 0.0597802959
v 1.04597771 -0.0683522746 0.059780281
v -1.09181333 -0.0566320792 0.0597801022
v 1.08586848 1.11853695 0.0511582159
v -1.06709039 1.27796447 0.0508395508
v 1.0897845 1.23389542 0.0508395843
v -1.06929255 1.15904009 0.0511638485
v -1.06983757 1.12967682 0.0346497335
v 1.08491755 1.08924472 0.0346498899
v -1.070382 1.10031104 0.0511640385
v 1.08396423 1.05982316 0.0511698201
v 1.08099735 0.97384125 0.0511575677
v -1.07204342 1.01075387 0.0511644594
v -1.07258415 0.981383324 0.0346497111
v 1.08005059 0.944555342 0.0346499011
v -1.073125 0.952024758 0.0511633605
v 1.07910097 0.915125966 0.0511704572
v 1.0761261 0.829145551 0.0511569157
v -1.07479429 0.862467945 0.0511650778
v -1.07533145 0.833089948 0.0346496776
v 1.07518303 0.799865723 0.034649916
v -1.07586789 0.803738296 0.0511626862
v 1.0742377 0.770428598 0.0511711016
v 1.07125485 0.684449911 0.0511562638
v -1.07754517 0.714182138 0.0511657
v -1.07807863 0.684796572 0.0346496515
v 1.07031548 0.655176461 0.0346499234
v -1.07861078 0.655452192 0.0511620082
v 1.06937432 0.625731289 0.0511717387
v 1.0663836 0.53975457 0.0511556044
v -1.08029604 0.565896094 0.0511663146
v -1.08082521 0.536503136 0.0346496254
v 1.06544793 0.510487258 0.0346499421
v -1.08135378 0.507165611 0.0511613265
v 1.06451046 0.481033772 0.0511723794
v 1.06151187 0.395058751 0.0511549525
v -1.08304751 0.417610526 0.0511669368
v -1.08357239 0.38820982 0.0346496105
v 1.06058037 0.365797907 0.0346499681
v -1.08409667 0.358879089 0.0511606485
v 1.0596472 0.336336136 0.0511730276
v 1.05664122 0.250363618 0.0511542931
v -1.08579826 0.269324601 0.0511675626
v -1.08631957 0.239916295 0.0346495919
v 1.05571353 0.221108541 0.0346499868
v -1.08684015 0.2105923 0.0511599779
v 1.05478394 0.19163841 0.0511736758
v 1.05176938 0.105668031 0.0511536412
v -1.08854914 0.12103878 0.0511681922
v -1.08906615 0.0916228816 0.0346495807
v 1.05084598 0.0764192939 0.034650024
v -1.08958316 0.0623056404 0.0511592962
v 1.04992068 0.0469406135 0.051174324
v 1.04597771 -0.0683522746 0.0508394577
v -1.09181333 -0.0566320792 0.0508392788
vn -0.0109755769 -0.0229433887 0.999676466
vn -0.023914367 -0.00459349388 0.999703467
vn -0.0239143688 -0.00459349388 0.999703467
vn -0.0172865093 -0.0173373334 0.999700308
vn -0.0270887129 -0.0750695094 0.996810257
vn 0.00952509046 -0.0442348644 0.998975754
vn -0.023486346 -0.0736580417 0.997006953
vn 0.0166435763 -0.0428778492 0.99894172
vn 0.00771237351 -0.0369258635 0.999288261
vn 0.0239143688 0.00459349388 -0.999703467
vn 0.023914367 0.00459349388 -0.999703467
vn 0.0109755788 0.0229433887 -0.999676466
vn 0.0172865074 0.0173373111 -0.999700308
vn 0.0270887446 0.0750695616 -0.996810257
vn -0.00952501874 0.0442349464 -0.998975754
vn 0.0234863795 0.0736580864 -0.997006953
vn -0.0166435204 0.042877946 -0.99894172
vn -0.00771226408 0.0369259268 -0.999288261
vn -0.0498218276 -0.0275004897 0.998379469
vn -0.0232947469 -0.00450555375 0.999718487
vn -0.0177405495 -0.0132472999 0.999754846
vn -0.0159055274 -0.0121336365 0.999799907
vn -0.00758261047 -0.0292234533 0.999544084
vn -0.00758261047 -0.0292234533 0.999544084
vn -0.0498184487 -0.0268761888 0.998396575
vn -0.0516090468 -0.0494108312 0.997444272
vn -0.0516090468 -0.0494108275 0.997444272
vn -0.00709876837 -0.017089732 0.999828696
vn -0.00770965777 -0.021000741 0.99974972
vn -0.00770965731 -0.021000741 0.99974972
vn 0.0177405849 0.0132474015 -0.999754846
vn 0.0232948083 0.00450555608 -0.999718487
vn 0.0498218127 0.02750054 -0.998379469
vn 0.0159055386 0.0121336561 -0.999799907
vn 0.00758261047 0.0292237476 -0.999544084
vn 0.00758261094 0.0292237457 -0.999544084
vn 0.0498184338 0.0268762205 -0.998396575
vn 0.0516090766 0.0494109429 -0.997444272
vn 0.0516090654 0.0494109355 -0.997444272
vn 0.00709875161 0.0170897283 -0.999828696
vn 0.00770965731 0.021000741 -0.99974972
vn 0.00770965731 0.021000741 -0.99974972
vn 0.0170410611 -0.0402483232 0.999044359
vn 0.0254346691 -0.0340395793 0.999096751
vn 0.0170410611 -0.0402483195 0.999044359
vn 0.035314247 -0.0489690155 0.998175859
vn 0.0116762547 0.0178946778 0.999771655
vn 0.0257500093 -0.040684741 0.998840153
vn 0.0179224648 -0.0435874425 0.99888891
vn 0.00971923955 0.0216901414 0.999717414
vn -0.00229327334 -0.00768927904 0.999967813
vn 0.00559367146 -0.00218854682 0.999981999
vn -0.0173122846 -0.0230197832 0.999585092
vn -0.0254347119 0.034039557 -0.999096751
vn -0.0170411523 0.0402482823 -0.999044359
vn -0.0170411505 0.040248286 -0.999044359
vn -0.0353142321 0.0489689037 -0.998175859
vn -0.0116762575 -0.0178946983 -0.999771655
vn -0.0257499125 0.0406845249 -0.998840272
vn -0.0179222822 0.0435871109 -0.99888891
vn -0.00971924048 -0.0216901582 -0.999717414
vn 0.00229325425 0.00768925995 -0.999967813
vn -0.00559368031 0.00218853611 -0.999981999
vn 0.0173122454 0.0230197515 -0.999585092
vn -0.134813979 0.246642202 0.959683716
vn -0.0413753428 -0.0124849826 0.999065697
vn -0.134813979 0.246642202 0.959683716
vn -0.0401722975 -0.0157582164 0.999068558
vn -0.0395105034 -0.0163281169 0.999085784
vn -0.0405285023 -0.0135460431 0.999086618
vn -0.0411893502 -0.0129767843 0.999067128
vn -0.040354725 -0.015268513 0.999068797
vn -0.0396946147 -0.0158371571 0.99908638
vn -0.0403479487 -0.0140351541 0.999087095
vn -0.0410071947 -0.0134671088 0.999068081
vn -0.0405347012 -0.0147765474 0.999068916
vn -0.0398761034 -0.0153443394 0.999086857
vn -0.0401695147 -0.0145275248 0.999087334
vn -0.0408272482 -0.0139604518 0.999068677
vn -0.0407113768 -0.0142845856 0.999068916
vn -0.0400545374 -0.0148507906 0.999087214
vn -0.0399941131 -0.0150205567 0.999087095
vn -0.040649794 -0.0144560011 0.999068916
vn -0.0408854112 -0.0137907099 0.999068677
vn 0.0537130795 -0.275800407 0.959713042
vn 0.0537130833 -0.275800377 0.959713042
vn 0.0421946719 0.0102577982 -0.999056756
vn 0.136307895 -0.25086543 -0.958377123
vn 0.136307895 -0.25086543 -0.958377123
vn 0.0409605987 0.0136164688 -0.999067962
vn 0.0394963734 0.0163676795 -0.999085665
vn 0.0405159444 0.0135813411 -0.999086618
vn 0.0411755629 0.0130156353 -0.999067128
vn 0.040341951 0.0153046027 -0.999068797
vn 0.0396808311 0.0158761032 -0.999086261
vn 0.0403351858 0.0140713314 -0.999087095
vn 0.040993277 0.0135066407 -0.999068201
vn 0.0405215211 0.0148140155 -0.999068916
vn 0.0398624092 0.0153834037 -0.999086738
vn 0.0401559882 0.0145661319 -0.999087334
vn 0.0408136286 0.0139995059 -0.999068677
vn 0.0406982116 0.0143223731 -0.999068916
vn 0.0400411151 0.0148895299 -0.999087095
vn 0.0399806127 0.0150595065 -0.999086976
vn 0.0398593917 0.0166929066 -0.999065936
vn 0.0401037186 0.016003238 -0.999067366
vn -0.0552728213 0.280043662 -0.958394647
vn -0.0552728213 0.280043691 -0.958394647
vn -0.334439069 0.0138588138 0.942315578
vn -0.000797134591 0.018822195 0.999822557
vn -0.334439039 0.0138588129 0.942315578
vn 0.00909933355 0.018936472 0.999779284
vn 0.0133632105 0.0189695377 0.999730766
vn 0.00293373736 0.0188494287 0.999818027
vn -0.00208907295 0.0188652612 0.999819934
vn 0.00843068771 0.0189895928 0.999784172
vn 0.0134530561 0.0189737175 0.999729455
vn 0.00284326659 0.0188470948 0.999818385
vn -0.00217938446 0.0188610181 0.999819815
vn 0.0085224621 0.0189919844 0.999783337
vn 0.0135445492 0.018977996 0.999728143
vn 0.00275124959 0.0188446585 0.999818623
vn -0.00227142731 0.018856667 0.999819696
vn 0.00861333776 0.0189944487 0.999782503
vn 0.0136361523 0.018982362 0.999726832
vn 0.00266013155 0.0188421495 0.999818981
vn -0.00236313092 0.0188522339 0.999819577
vn 0.00870554708 0.0189970043 0.999781668
vn 0.0137282675 0.018986823 0.999725401
vn 0.00256807287 0.0188395474 0.999819219
vn -0.00245533045 0.0188476741 0.999819338
vn 0.00879683997 0.0189995989 0.999780834
vn 0.013818589 0.0189913437 0.99972409
vn 0.00247407588 0.0188368373 0.999819577
vn 0.0154243968 0.0196546949 0.999687791
vn 0.0277241804 0.0198401101 0.999418736
vn 0.38132301 0.0238586441 0.924133837
vn 0.38132301 0.0238586441 0.924133837
vn 0.00578280352 -0.0187686626 -0.999807179
vn 0.343420804 -0.0136989746 -0.939081788
vn 0.343420863 -0.0136989756 -0.939081788
vn -0.00451249629 -0.0188884437 -0.999811471
vn -0.0136108641 -0.018974144 -0.999727309
vn -0.00315799145 -0.0188537631 -0.999817312
vn 0.00181502069 -0.0188684799 -0.999820411
vn -0.00868066773 -0.0189924799 -0.999781907
vn -0.0137260864 -0.0189769343 -0.99972564
vn -0.0030919211 -0.0188500769 -0.99981755
vn 0.00190675119 -0.018864302 -0.999820292
vn -0.00877082814 -0.0189949144 -0.999781072
vn -0.0138181457 -0.0189812668 -0.999724329
vn -0.00299978303 -0.0188476741 -0.999817908
vn 0.0019972038 -0.0188601203 -0.999820173
vn -0.00886242185 -0.0189975258 -0.999780238
vn -0.0139117399 -0.0189857744 -0.999722898
vn -0.00290987198 -0.0188452844 -0.999818265
vn 0.00208866387 -0.018855799 -0.999820054
vn -0.00895476341 -0.0190001875 -0.999779403
vn -0.0140021052 -0.01899039 -0.999721587
vn -0.00281615998 -0.0188428294 -0.999818504
vn 0.00218119728 -0.0188514199 -0.999819934
vn -0.00904547796 -0.0190029461 -0.999778569
vn -0.01359009 -0.0189721603 -0.999727666
vn -0.00215917081 -0.0188158974 -0.99982065
vn -0.0204928648 -0.0197370145 -0.999595225
vn -0.0335887074 -0.0199343115 -0.999236941
vn -0.392421067 -0.0239816252 -0.919473052
vn -0.392421067 -0.0239816234 -0.919473052
vn 0.0456877686 0.0485529974 0.997775137
vn 0.0235074461 0.0369479358 0.999040663
vn -0.00193363172 0.00911203865 0.999956608
vn -0.0273049977 -0.00328613399 0.999621749
vn -0.0389189757 -0.00138008397 0.999241471
vn -0.00289372564 0.00235182652 0.999993086
vn 0.00627059536 -0.00327136065 0.999974966
vn 0.0271875728 0.0230012573 0.999365747
vn 0.0258741137 0.0536876842 0.99822253
vn 0.0258741174 0.0536876842 0.99822253
vn 0.0184944328 0.045829244 0.998778045
vn 0.0172978491 0.0606149808 0.998011351
vn 0.0172978491 0.0606149733 0.998011351
vn 0.0189394206 -0.00262803189 0.999817193
vn -0.0241148025 -0.0446845405 0.998710036
vn -0.0235074069 -0.0369478837 -0.999040663
vn -0.0456877053 -0.0485529304 -0.997775137
vn 0.00193363172 -0.00911202934 -0.999956608
vn 0.0273049809 0.00328613445 -0.999621749
vn 0.0389189571 0.00138009258 -0.999241471
vn 0.00289377919 -0.00235179137 -0.999993086
vn -0.00627058558 0.00327136903 -0.999974966
vn -0.027187556 -0.0230012424 -0.999365747
vn -0.0258741174 -0.0536876246 -0.99822253
vn -0.0258741174 -0.0536876321 -0.99822253
vn -0.0184944365 -0.0458292626 -0.998778045
vn -0.0172978546 -0.0606150031 -0.998011351
vn -0.0172978546 -0.0606150031 -0.998011351
vn -0.0189394038 0.00262806751 -0.999817193
vn 0.0241148639 0.0446850732 -0.998710036
vn 0 -1.19228474E-07 1
vn -0.00496918894 -0.264543772 0.964360893
vn 0 -1.19228474E-07 1
vn -0.00501242839 -0.266845733 0.963726282
vn -1.65426161E-06 -8.69550495E-05 1
vn -9.14059056E-05 -0.0048650587 0.999988198
vn 0.00501394551 0.266928613 0.963703275
vn 0.00505717564 0.269230038 0.963062525
vn -0.00452808524 -0.26429224 0.964432061
vn -0.00457643997 -0.26711452 0.963653982
vn 7.80454411E-06 0.000457274786 0.999999881
vn -9.25778004E-05 -0.00540182414 0.999985456
vn 0.00456885016 0.266674846 0.963775754
vn 0.00461722026 0.26949805 0.962989926
vn -0.00408692844 -0.264040053 0.96450305
vn -0.00413867459 -0.267383188 0.963581383
vn 1.53854016E-05 0.000997277442 0.999999523
vn -9.20697203E-05 -0.00594501058 0.999982357
vn 0.00412368169 0.266419888 0.963848174
vn 0.00417548139 0.26976645 0.962916732
vn -0.00364566222 -0.26378414 0.964574814
vn -0.00369908707 -0.2676498 0.963509202
vn 2.12275299E-05 0.00153802335 0.999998808
vn -8.97215796E-05 -0.00648979843 0.999979019
vn 0.00367851695 0.266166508 0.963920057
vn 0.00373200094 0.270036429 0.962842822
vn -0.00320438435 -0.263526976 0.964646697
vn -0.00325778057 -0.267918289 0.963436186
vn 2.5329884E-05 0.00208666152 0.999997854
vn -8.55075195E-05 -0.00702869892 0.999975324
vn 0.00323327049 0.265910178 0.963992417
vn 0.00328669092 0.270303488 0.962769508
vn -0.00276313629 -0.263269752 0.964718223
vn -0.00281474134 -0.268186748 0.963362813
vn 2.7503198E-05 0.00262705353 0.999996543
vn -7.95628366E-05 -0.00757438969 0.99997139
vn 0.00278803706 0.265654117 0.9640643
vn 0.00283963792 0.270570785 0.962695956
vn -0.00232180324 -0.263010651 0.964790106
vn -0.00236984831 -0.2684533 0.963289797
vn 2.79871274E-05 0.00317689846 0.999994993
vn -7.17705188E-05 -0.00812380295 0.999966979
vn 0.00234270957 0.26539281 0.964137554
vn 0.00239078794 0.270839214 0.96262157
vn -0.00188047835 -0.262751251 0.96486181
vn -0.00192320195 -0.268721133 0.963216007
vn 2.65642993E-05 0.00372388447 0.999993086
vn -6.21408326E-05 -0.00867100898 0.999962449
vn 0.00189736602 0.265132993 0.964210033
vn 0.00194012071 0.271107137 0.962547243
vn 0 -1.57425802E-07 1
vn 0 -1.57425788E-07 1
vn 0.00469140196 0.249953717 -0.9682464
vn -5.50927725E-05 -0.00274279411 -0.999996305
vn -5.50927762E-05 -0.00274279411 -0.999996305
vn 0.00473186979 0.252108097 -0.967687488
vn 8.86032831E-06 0.000469111779 -0.999999881
vn 8.76277627E-05 0.00466410303 -0.999989152
vn -0.00475226389 -0.25308919 -0.967431247
vn -0.00479329284 -0.255274415 -0.966856778
vn 0.00429878524 0.251050234 -0.96796453
vn 0.00434443494 0.253716081 -0.967268944
vn 0 -5.65924529E-06 -1
vn 8.80426887E-05 0.00513781654 -0.999986768
vn -0.00432980107 -0.252849668 -0.967495859
vn -0.00437568733 -0.255529523 -0.966791391
vn 0.00387927261 0.250807583 -0.968029201
vn 0.00392817287 0.253968984 -0.967204392
vn -7.38322524E-06 -0.00048321372 -0.999999881
vn 8.68717616E-05 0.00561057171 -0.999984264
vn -0.00390733685 -0.252611011 -0.967559993
vn -0.00395640591 -0.255783647 -0.966725945
vn 0.00345973275 0.250565171 -0.968093514
vn 0.00351024396 0.254223108 -0.967139244
vn -1.31622455E-05 -0.00096079323 -0.999999523
vn 8.41338042E-05 0.00608560489 -0.999981523
vn -0.00348482165 -0.252371579 -0.967624187
vn -0.00353544392 -0.256037951 -0.966660261
vn 0.00304012606 0.250321478 -0.968158007
vn 0.00309058139 0.254475713 -0.967074275
vn -1.73514491E-05 -0.00143740012 -0.999999046
vn 7.98611363E-05 0.00656690309 -0.999978423
vn -0.00306218816 -0.252126932 -0.967689395
vn -0.00311276456 -0.256291538 -0.966594517
vn 0.00262058573 0.250078559 -0.968222022
vn 0.00266932137 0.254729092 -0.967008829
vn -1.9883415E-05 -0.00191187696 -0.999998212
vn 7.3952091E-05 0.00704262592 -0.999975204
vn -0.00263958471 -0.251883596 -0.967753887
vn -0.00268841209 -0.256543487 -0.966528952
vn 0.00220092363 0.249832198 -0.968286633
vn 0.00224629324 0.254981786 -0.966943264
vn -2.09638183E-05 -0.0023955123 -0.999997139
vn 6.64258259E-05 0.00752425753 -0.999971747
vn -0.00221692096 -0.251638383 -0.967818797
vn -0.00226237159 -0.256797969 -0.966462433
vn 0.00178130565 0.249587432 -0.968350589
vn 0.00182161469 0.255234897 -0.966877401
vn -2.03555519E-05 -0.00287408009 -0.999995947
vn 5.72770623E-05 0.0080033876 -0.999968052
vn -0.00178418332 -0.250095099 -0.968219578
vn -0.00182401866 -0.25567475 -0.966761172
vn 2.12559953E-05 0.00279532024 -0.999996066
vn 2.12559953E-05 0.00279532047 -0.999996066
vt 0.486962497 0.892131269
vt 0.5 0.890925169
vt 0.5 0.878785491
vt 0.495555639 0.876529336
vt 0.376277089 0.890167952
vt 0.253311753 0.876529336
vt 0.305757284 0.890523195
vt 0.251637429 0.893585682
vt 0.25 0.877911329
vt 0.5 0.878785491
vt 0.5 0.890925169
vt 0.486962497 0.892131269
vt 0.495555639 0.876529336
vt 0.376277089 0.890167952
vt 0.253311753 0.876529336
vt 0.305757284 0.890523195
vt 0.251637429 0.893585682
vt 0.25 0.877911329
vt 0.254359573 0.81115973
vt 0.285252064 0.814945042
vt 0.37351954 0.814945042
vt 0.372755468 0.798959136
vt 0.374786764 0.805086255
vt 0.374786764 0.813677788
vt 0.252727062 0.784856439
vt 0.25 0.786294997
vt 0.25 0.81115973
vt 0.37351954 0.784856439
vt 0.374786764 0.794519246
vt 0.374786764 0.786123693
vt 0.37351954 0.814945042
vt 0.285252064 0.814945042
vt 0.254359573 0.81115973
vt 0.372755468 0.798959136
vt 0.374786764 0.805086255
vt 0.374786764 0.813677788
vt 0.252727062 0.784856439
vt 0.25 0.786294997
vt 0.25 0.81115973
vt 0.37351954 0.784856439
vt 0.374786764 0.794519246
vt 0.374786764 0.786123693
vt 0.25 0.901332021
vt 0.251447856 0.894314229
vt 0.25 0.896371484
vt 0.256074429 0.90076685
vt 0.30578202 0.891327083
vt 0.25 0.90661788
vt 0.250486195 0.903906465
vt 0.376273274 0.890972018
vt 0.5 0.90661788
vt 0.486950845 0.892271042
vt 0.5 0.895720243
vt 0.251447856 0.894314229
vt 0.25 0.901332021
vt 0.25 0.896371484
vt 0.256074429 0.90076685
vt 0.30578202 0.891327083
vt 0.25 0.90661788
vt 0.250486195 0.903906465
vt 0.376273274 0.890972018
vt 0.5 0.90661788
vt 0.486950845 0.892271042
vt 0.5 0.895720243
vt 0.866471112 0.5
vt 0.869836509 0.381294399
vt 0.865466356 0.381269276
vt 0.870665431 0.5
vt 0.874206662 0.381319493
vt 0.87485981 0.5
vt 0.878576815 0.381344616
vt 0.879054129 0.5
vt 0.882946968 0.38136974
vt 0.883248448 0.5
vt 0.887317121 0.381394863
vt 0.887442827 0.5
vt 0.891687274 0.381419957
vt 0.891637146 0.5
vt 0.896057427 0.38144508
vt 0.895831466 0.5
vt 0.90042758 0.381470203
vt 0.900025785 0.5
vt 0.904797733 0.381495297
vt 0.904220164 0.5
vt 0.909167886 0.38152042
vt 0.908414483 0.5
vt 0.869836509 0.381294399
vt 0.866471112 0.5
vt 0.865466356 0.381269276
vt 0.870665431 0.5
vt 0.874206662 0.381319493
vt 0.87485981 0.5
vt 0.878576815 0.381344616
vt 0.879054129 0.5
vt 0.882946968 0.38136974
vt 0.883248448 0.5
vt 0.887317121 0.381394863
vt 0.887442827 0.5
vt 0.891687274 0.381419957
vt 0.891637146 0.5
vt 0.896057427 0.38144508
vt 0.895831466 0.5
vt 0.90042758 0.381470203
vt 0.900025785 0.5
vt 0.904797733 0.381495297
vt 0.904220164 0.5
vt 0.909167886 0.38152042
vt 0.908414483 0.5
vt 0.906552851 0.285326868
vt 0.90625447 0.381503671
vt 0.909429908 0.38152042
vt 0.90342319 0.285390884
vt 0.903132975 0.38148573
vt 0.900283694 0.285444707
vt 0.90001142 0.381467789
vt 0.897144258 0.28549853
vt 0.896889865 0.381449848
vt 0.894004762 0.285552323
vt 0.893768311 0.381431907
vt 0.890865266 0.285606146
vt 0.890646815 0.381413966
vt 0.88772583 0.285659969
vt 0.88752526 0.381396055
vt 0.884586334 0.285713792
vt 0.884403706 0.381378114
vt 0.881446838 0.285767615
vt 0.88128221 0.381360203
vt 0.878307402 0.285821438
vt 0.878160655 0.381342232
vt 0.875167906 0.285875261
vt 0.875039101 0.381324291
vt 0.87202841 0.285929054
vt 0.871917546 0.38130635
vt 0.868888915 0.285982877
vt 0.868796051 0.381288469
vt 0.865749478 0.2860367
vt 0.866270065 0.381273896
vt 0.862662911 0.286080331
vt 0.90625447 0.381503671
vt 0.906552851 0.285326868
vt 0.909429908 0.38152042
vt 0.90342319 0.285390884
vt 0.903132975 0.38148573
vt 0.900283694 0.285444707
vt 0.90001142 0.381467789
vt 0.897144258 0.28549853
vt 0.896889865 0.381449848
vt 0.894004762 0.285552323
vt 0.893768311 0.381431907
vt 0.890865266 0.285606146
vt 0.890646815 0.381413966
vt 0.88772583 0.285659969
vt 0.88752526 0.381396055
vt 0.884586334 0.285713792
vt 0.884403706 0.381378114
vt 0.881446838 0.285767615
vt 0.88128221 0.381360203
vt 0.878307402 0.285821438
vt 0.878160655 0.381342232
vt 0.875167906 0.285875261
vt 0.875039101 0.381324291
vt 0.87202841 0.285929054
vt 0.871917546 0.38130635
vt 0.868888915 0.285982877
vt 0.868796051 0.381288469
vt 0.865749478 0.2860367
vt 0.866270065 0.381273896
vt 0.862662911 0.286080331
vt 0.250718325 0.777366877
vt 0.25 0.784052491
vt 0.273259789 0.776048303
vt 0.5 0.774683475
vt 0.497227788 0.784052491
vt 0.5 0.782155454
vt 0.498169661 0.767211556
vt 0.265285492 0.76028806
vt 0.25 0.761732221
vt 0.25 0.775608778
vt 0.252978712 0.750401974
vt 0.25096947 0.760036886
vt 0.25 0.751623034
vt 0.5 0.750401974
vt 0.5 0.757353425
vt 0.25 0.784052491
vt 0.250718325 0.777366877
vt 0.273259789 0.776048303
vt 0.5 0.774683475
vt 0.497227788 0.784052491
vt 0.5 0.782155454
vt 0.498169661 0.767211556
vt 0.265285492 0.76028806
vt 0.25 0.761732221
vt 0.25 0.775608778
vt 0.252978712 0.750401974
vt 0.25096947 0.760036886
vt 0.25 0.751623034
vt 0.5 0.750401974
vt 0.5 0.757353425
vt 0.917456269 0.436021805
vt 0.915934086 0.311837435
vt 0.909168065 0.312200695
vt 0.924419224 0.435542375
vt 0.925967753 0.435435772
vt 0.917484224 0.311754197
vt 0.927516282 0.435329169
vt 0.919034302 0.311670959
vt 0.924250185 0.311390936
vt 0.932930708 0.434956372
vt 0.934479237 0.434849739
vt 0.925800323 0.311307698
vt 0.936027765 0.434743106
vt 0.927350461 0.311224461
vt 0.932566285 0.310944438
vt 0.941442192 0.434370339
vt 0.94299072 0.434263706
vt 0.934116483 0.3108612
vt 0.944539249 0.434157073
vt 0.93566668 0.310777962
vt 0.940882385 0.31049794
vt 0.949953675 0.433784306
vt 0.951502204 0.433677673
vt 0.942432642 0.310414702
vt 0.953050733 0.433571041
vt 0.943982899 0.310331464
vt 0.949198425 0.310051411
vt 0.958465099 0.433198273
vt 0.960013628 0.43309164
vt 0.950748742 0.309968174
vt 0.961562157 0.432985008
vt 0.952299058 0.309884936
vt 0.957514524 0.309604913
vt 0.966976583 0.43261224
vt 0.968525112 0.432505608
vt 0.959064901 0.309521675
vt 0.97007364 0.432398975
vt 0.960615277 0.309438437
vt 0.965830624 0.309158415
vt 0.975488007 0.432026207
vt 0.977036595 0.431919575
vt 0.96738106 0.309075177
vt 0.978585184 0.431812942
vt 0.968931496 0.308991939
vt 0.974146664 0.308711916
vt 0.983999491 0.431440175
vt 0.985548079 0.431333542
vt 0.97569716 0.308628678
vt 0.987096667 0.431226909
vt 0.977247655 0.30854544
vt 0.984013319 0.30818218
vt 0.994059563 0.430747509
vt 0.915934086 0.311837435
vt 0.917456269 0.436021805
vt 0.909168065 0.312200695
vt 0.924419224 0.435542375
vt 0.925967753 0.435435772
vt 0.917484224 0.311754197
vt 0.927516282 0.435329169
vt 0.919034302 0.311670959
vt 0.924250185 0.311390936
vt 0.932930708 0.434956372
vt 0.934479237 0.434849739
vt 0.925800323 0.311307698
vt 0.936027765 0.434743106
vt 0.927350461 0.311224461
vt 0.932566285 0.310944438
vt 0.941442192 0.434370339
vt 0.94299072 0.434263706
vt 0.934116483 0.3108612
vt 0.944539249 0.434157073
vt 0.93566668 0.310777962
vt 0.940882385 0.31049794
vt 0.949953675 0.433784306
vt 0.951502204 0.433677673
vt 0.942432642 0.310414702
vt 0.953050733 0.433571041
vt 0.943982899 0.310331464
vt 0.949198425 0.310051411
vt 0.958465099 0.433198273
vt 0.960013628 0.43309164
vt 0.950748742 0.309968174
vt 0.961562157 0.432985008
vt 0.952299058 0.309884936
vt 0.957514524 0.309604913
vt 0.966976583 0.43261224
vt 0.968525112 0.432505608
vt 0.959064901 0.309521675
vt 0.97007364 0.432398975
vt 0.960615277 0.309438437
vt 0.965830624 0.309158415
vt 0.975488007 0.432026207
vt 0.977036595 0.431919575
vt 0.96738106 0.309075177
vt 0.978585184 0.431812942
vt 0.968931496 0.308991939
vt 0.974146664 0.308711916
vt 0.983999491 0.431440175
vt 0.985548079 0.431333542
vt 0.97569716 0.308628678
vt 0.987096667 0.431226909
vt 0.977247655 0.30854544
vt 0.984013319 0.30818218
vt 0.994059563 0.430747509
g submesh0
f 1/1/1 2/2/2 3/3/3
f 1/1/1 3/3/3 4/4/4
f 1/1/1 4/4/4 5/5/5
f 5/5/5 4/4/4 6/6/6
f 5/5/5 6/6/6 7/7/7
f 7/7/7 6/6/6 8/8/8
f 8/8/8 6/6/6 9/9/9
f 10/10/10 11/11/11 12/12/12
f 10/10/10 12/12/12 13/13/13
f 13/13/13 12/12/12 14/14/14
f 15/15/15 13/13/13 14/14/14
f 15/15/15 14/14/14 16/16/16
f 15/15/15 16/16/16 17/17/17
f 15/15/15 17/17/17 18/18/18
f 19/19/19 20/20/20 21/21/21
f 19/19/19 21/21/21 22/22/22
f 23/23/23 22/22/22 21/21/21
f 23/23/23 21/21/21 24/24/24
f 19/19/19 22/22/22 25/25/25
f 19/19/19 25/25/25 26/26/26
f 19/19/19 26/26/26 27/27/27
f 25/25/25 22/22/22 28/28/28
f 28/28/28 22/22/22 29/29/29
f 28/28/28 29/29/29 30/30/30
f 31/31/31 32/32/32 33/33/33
f 31/31/31 33/33/33 34/34/34
f 31/31/31 34/34/34 35/35/35
f 31/31/31 35/35/35 36/36/36
f 34/34/34 33/33/33 37/37/37
f 38/38/38 37/37/37 33/33/33
f 38/38/38 33/33/33 39/39/39
f 34/34/34 37/37/37 40/40/40
f 41/41/41 34/34/34 40/40/40
f 41/41/41 40/40/40 42/42/42
f 43/43/43 44/44/44 45/45/45
f 43/43/43 46/46/46 44/44/44
f 44/44/44 46/46/46 47/47/47
f 47/47/47 46/46/46 48/48/48
f 48/48/48 46/46/46 49/49/49
f 50/50/50 47/47/47 48/48/48
f 50/50/50 48/48/48 51/51/51
f 50/50/50 51/51/51 52/52/52
f 52/52/52 51/51/51 53/53/53
f 54/54/54 55/55/55 56/56/56
f 54/54/54 57/57/57 55/55/55
f 57/57/57 54/54/54 58/58/58
f 57/57/57 58/58/58 59/59/59
f 57/57/57 59/59/59 60/60/60
f 59/59/59 58/58/58 61/61/61
f 59/59/59 61/61/61 62/62/62
f 62/62/62 61/61/61 63/63/63
f 62/62/62 63/63/63 64/64/64
f 65/65/65 66/66/66 67/67/67
f 65/65/65 68/68/68 66/66/66
f 68/68/68 69/69/69 66/66/66
f 68/68/68 70/70/70 69/69/69
f 70/70/70 71/71/71 69/69/69
f 70/70/70 72/72/72 71/71/71
f 72/72/72 73/73/73 71/71/71
f 72/72/72 74/74/74 73/73/73
f 74/74/74 75/75/75 73/73/73
f 74/74/74 76/76/76 75/75/75
f 76/76/76 77/77/77 75/75/75
f 76/76/76 78/78/78 77/77/77
f 79/79/79 77/77/77 78/78/78
f 79/79/79 78/78/78 80/80/80
f 81/81/81 79/79/79 80/80/80
f 81/81/81 80/80/80 82/82/82
f 83/83/83 81/81/81 82/82/82
f 83/83/83 82/82/82 84/84/84
f 85/85/85 83/83/83 84/84/84
f 85/85/85 84/84/84 86/86/86
f 87/87/87 88/88/88 89/89/89
f 87/87/87 90/90/90 88/88/88
f 91/91/91 90/90/90 87/87/87
f 91/91/91 92/92/92 90/90/90
f 93/93/93 92/92/92 91/91/91
f 93/93/93 94/94/94 92/92/92
f 95/95/95 94/94/94 93/93/93
f 95/95/95 96/96/96 94/94/94
f 97/97/97 96/96/96 95/95/95
f 97/97/97 98/98/98 96/96/96
f 99/99/99 98/98/98 97/97/97
f 99/99/99 100/100/100 98/98/98
f 100/100/100 99/99/99 101/101/101
f 100/100/100 101/101/101 102/102/102
f 102/102/102 101/101/101 103/103/103
f 102/102/102 103/103/103 104/104/104
f 104/104/104 103/103/103 105/105/105
f 104/104/104 105/105/105 106/106/106
f 106/106/106 105/105/105 107/107/107
f 106/106/106 107/107/107 108/108/108
f 109/109/109 110/110/110 111/111/111
f 109/109/109 112/112/112 110/110/110
f 112/112/112 113/113/113 110/110/110
f 112/112/112 114/114/114 113/113/113
f 114/114/114 115/115/115 113/113/113
f 114/114/114 116/116/116 115/115/115
f 116/116/116 117/117/117 115/115/115
f 116/116/116 118/118/118 117/117/117
f 118/118/118 119/119/119 117/117/117
f 118/118/118 120/120/120 119/119/119
f 120/120/120 121/121/121 119/119/119
f 120/120/120 122/122/122 121/121/121
f 122/122/122 123/123/123 121/121/121
f 122/122/122 124/124/124 123/123/123
f 124/124/124 125/125/125 123/123/123
f 124/124/124 126/126/126 125/125/125
f 127/127/127 125/125/125 126/126/126
f 127/127/127 126/126/126 128/128/128
f 129/129/129 127/127/127 128/128/128
f 129/129/129 128/128/128 130/130/130
f 131/131/131 129/129/129 130/130/130
f 131/131/131 130/130/130 132/132/132
f 133/133/133 131/131/131 132/132/132
f 133/133/133 132/132/132 134/134/134
f 135/135/135 133/133/133 134/134/134
f 135/135/135 134/134/134 136/136/136
f 137/137/137 135/135/135 136/136/136
f 137/137/137 136/136/136 138/138/138
f 139/139/139 140/140/140 141/141/141
f 139/139/139 142/142/142 140/140/140
f 143/143/143 142/142/142 139/139/139
f 143/143/143 144/144/144 142/142/142
f 145/145/145 144/144/144 143/143/143
f 145/145/145 146/146/146 144/144/144
f 147/147/147 146/146/146 145/145/145
f 147/147/147 148/148/148 146/146/146
f 149/149/149 148/148/148 147/147/147
f 149/149/149 150/150/150 148/148/148
f 151/151/151 150/150/150 149/149/149
f 151/151/151 152/152/152 150/150/150
f 153/153/153 152/152/152 151/151/151
f 153/153/153 154/154/154 152/152/152
f 155/155/155 154/154/154 153/153/153
f 155/155/155 156/156/156 154/154/154
f 156/156/156 155/155/155 157/157/157
f 156/156/156 157/157/157 158/158/158
f 158/158/158 157/157/157 159/159/159
f 158/158/158 159/159/159 160/160/160
f 160/160/160 159/159/159 161/161/161
f 160/160/160 161/161/161 162/162/162
f 162/162/162 161/161/161 163/163/163
f 162/162/162 163/163/163 164/164/164
f 164/164/164 163/163/163 165/165/165
f 164/164/164 165/165/165 166/166/166
f 166/166/166 165/165/165 167/167/167
f 166/166/166 167/167/167 168/168/168
f 169/169/169 170/170/170 171/171/171
f 172/172/172 171/171/171 170/170/170
f 172/172/172 170/170/170 173/173/173
f 172/172/172 173/173/173 174/174/174
f 171/171/171 172/172/172 175/175/175
f 171/171/171 175/175/175 176/176/176
f 171/171/171 176/176/176 177/177/177
f 171/171/171 177/177/177 178/178/178
f 179/179/179 176/176/176 175/175/175
f 180/180/180 176/176/176 179/179/179
f 180/180/180 179/179/179 181/181/181
f 179/179/179 175/175/175 182/182/182
f 182/182/182 175/175/175 183/183/183
f 184/184/184 185/185/185 186/186/186
f 184/184/184 186/186/186 187/187/187
f 184/184/184 187/187/187 188/188/188
f 188/188/188 187/187/187 189/189/189
f 187/187/187 186/186/186 190/190/190
f 190/190/190 186/186/186 191/191/191
f 192/192/192 191/191/191 186/186/186
f 192/192/192 186/186/186 193/193/193
f 190/190/190 191/191/191 194/194/194
f 194/194/194 191/191/191 195/195/195
f 194/194/194 195/195/195 196/196/196
f 190/190/190 194/194/194 197/197/197
f 190/190/190 197/197/197 198/198/198
f 199/199/199 200/200/200 201/201/201
f 199/199/199 202/202/202 200/200/200
f 203/203/203 200/200/200 202/202/202
f 203/203/203 204/204/204 200/200/200
f 204/204/204 203/203/203 205/205/205
f 204/204/204 205/205/205 206/206/206
f 205/205/205 207/207/207 206/206/206
f 205/205/205 208/208/208 207/207/207
f 207/207/207 208/208/208 209/209/209
f 207/207/207 209/209/209 210/210/210
f 210/210/210 209/209/209 211/211/211
f 210/210/210 211/211/211 212/212/212
f 211/211/211 213/213/213 212/212/212
f 211/211/211 214/214/214 213/213/213
f 213/213/213 214/214/214 215/215/215
f 213/213/213 215/215/215 216/216/216
f 216/216/216 215/215/215 217/217/217
f 216/216/216 217/217/217 218/218/218
f 217/217/217 219/219/219 218/218/218
f 217/217/217 220/220/220 219/219/219
f 219/219/219 220/220/220 221/221/221
f 219/219/219 221/221/221 222/222/222
f 222/222/222 221/221/221 223/223/223
f 222/222/222 223/223/223 224/224/224
f 223/223/223 225/225/225 224/224/224
f 223/223/223 226/226/226 225/225/225
f 225/225/225 226/226/226 227/227/227
f 225/225/225 227/227/227 228/228/228
f 229/229/229 228/228/228 227/227/227
f 229/229/229 230/230/230 228/228/228
f 231/231/231 230/230/230 229/229/229
f 231/231/231 229/229/229 232/232/232
f 233/233/233 231/231/231 232/232/232
f 233/233/233 234/234/234 231/231/231
f 235/235/235 234/234/234 233/233/233
f 235/235/235 236/236/236 234/234/234
f 237/237/237 236/236/236 235/235/235
f 237/237/237 235/235/235 238/238/238
f 239/239/239 237/237/237 238/238/238
f 239/239/239 240/240/240 237/237/237
f 241/241/241 240/240/240 239/239/239
f 241/241/241 242/242/242 240/240/240
f 243/243/243 242/242/242 241/241/241
f 243/243/243 241/241/241 244/244/244
f 245/245/245 243/243/243 244/244/244
f 245/245/245 246/246/246 243/243/243
f 246/246/246 245/245/245 247/247/247
f 246/246/246 247/247/247 248/248/248
f 249/249/249 248/248/248 247/247/247
f 249/249/249 247/247/247 250/250/250
f 251/251/251 252/252/252 253/253/253
f 251/251/251 254/254/254 252/252/252
f 251/251/251 255/255/255 254/254/254
f 251/251/251 256/256/256 255/255/255
f 257/257/257 255/255/255 256/256/256
f 257/257/257 256/256/256 258/258/258
f 259/259/259 257/257/257 258/258/258
f 259/259/259 260/260/260 257/257/257
f 261/261/261 260/260/260 259/259/259
f 261/261/261 259/259/259 262/262/262
f 263/263/263 261/261/261 262/262/262
f 263/263/263 262/262/262 264/264/264
f 265/265/265 263/263/263 264/264/264
f 265/265/265 266/266/266 263/263/263
f 267/267/267 266/266/266 265/265/265
f 267/267/267 265/265/265 268/268/268
f 269/269/269 267/267/267 268/268/268
f 269/269/269 268/268/268 270/270/270
f 271/271/271 269/269/269 270/270/270
f 271/271/271 272/272/272 269/269/269
f 273/273/273 272/272/272 271/271/271
f 273/273/273 271/271/271 274/274/274
f 275/275/275 273/273/273 274/274/274
f 275/275/275 274/274/274 276/276/276
f 277/277/277 275/275/275 276/276/276
f 277/277/277 278/278/278 275/275/275
f 279/279/279 278/278/278 277/277/277
f 279/279/279 277/277/277 280/280/280
f 280/280/280 281/281/281 279/279/279
f 280/280/280 282/282/282 281/281/281
f 281/281/281 282/282/282 283/283/283
f 281/281/281 283/283/283 284/284/284
f 283/283/283 285/285/285 284/284/284
f 283/283/283 286/286/286 285/285/285
f 286/286/286 287/287/287 285/285/285
f 286/286/286 288/288/288 287/287/287
f 287/287/287 288/288/288 289/289/289
f 287/287/287 289/289/289 290/290/290
f 289/289/289 291/291/291 290/290/290
f 289/289/289 292/292/292 291/291/291
f 292/292/292 293/293/293 291/291/291
f 292/292/292 294/294/294 293/293/293
f 293/293/293 294/294/294 295/295/295
f 293/293/293 295/295/295 296/296/296
f 295/295/295 297/297/297 296/296/296
f 295/295/295 298/298/298 297/297/297
f 299/299/299 297/297/297 298/298/298
f 299/299/299 298/298/298 300/300/300
f 299/299/299 300/300/300 301/301/301
f 299/299/299 301/301/301 302/302/302
