# crate_cover_300x600_COL
v -3.07872558 1.6002177 -0.037150532
v -3.02113271 3.07269216 -1.21234906
v -3.01481557 1.57657897 -0.854742169
v -3.21121264 1.58217692 -0.993852377
v -3.02220178 1.55031979 -1.06240761
v -3.00756431 3.01469541 0.125781238
v -3.00165272 1.57572627 0.910411358
v -2.91871214 3.12826872 1.42368603
v -2.86879826 3.08085227 -1.50431442
v -1.61417663 3.13547206 -1.43380034
v -2.26885796 3.04633665 -1.52083921
v -3.02321649 2.95338058 -1.36290026
v -3.11596775 1.38828492 -1.42642128
v -3.26051378 1.28573835 -1.27939034
v -3.0024693 3.04218006 1.03758681
v -3.00438428 3.06152081 -1.53009665
v -3.16914105 2.49631047 -1.42002571
v -3.34506345 1.22827876 -1.3449806
v -3.24794888 1.04700089 -1.52534866
v -3.01370358 0.652345717 -1.49950838
v -2.99207401 0.79432708 -1.6627655
v -2.74816895 1.11850226 -1.53807688
v -3.07106066 2.57457137 1.05619669
v -3.20307493 1.57732999 1.16047764
v -3.00513935 3.03695011 1.49812818
v -3.00937057 2.77559257 1.22112763
v -3.13371539 2.54948521 1.33546424
v -3.34290099 1.36386192 1.31329691
v -3.24207449 1.23379099 1.48389387
v -3.02866697 2.30455565 1.35535181
v -3.06983089 0.813893974 1.2377063
v -2.97555852 0.361196011 1.42089808
v -3.08423638 2.15130997 1.5556618
v -2.8655107 0.450682998 1.49964428
v -2.7262702 2.54817629 1.52604461
v -2.43888783 0.972549617 1.55118179
v -2.78422332 1.13901961 1.6401968
v -2.65583467 2.50795126 1.6495918
v -2.66457033 1.20908737 1.82920432
v -2.43176436 1.23542249 1.52869773
v -2.32823706 3.06011295 1.52727258
v -1.98535764 1.25670385 1.60444212
v -1.48788989 3.03915215 1.52996635
v -1.12846386 1.26050901 1.51616037
v 0.0230304878 3.06262445 1.52073884
v 2.96381474 3.12826896 1.42368603
v 1.5342927 3.03915215 1.52996635
v -0.246299133 2.9329946 1.53845179
v -0.298020095 1.23474145 1.57023513
v -0.197705835 1.22250652 1.77870202
v -0.173325494 1.14842975 1.55836725
v 0.247311547 1.14842975 1.55836725
v 0.270610809 1.2225064 1.77870202
v 0.29425171 2.9329946 1.53845179
v 0.370745987 1.23474145 1.57023513
v 1.2008146 1.26050889 1.51616061
v 2.05776405 1.25670373 1.60444212
v 2.37433386 3.06011295 1.52727282
v 2.50448132 1.23542237 1.52869797
v 2.70998836 2.50795102 1.64959192
v 2.7376709 1.20908713 1.82920432
v 2.85834646 1.13901949 1.64019692
v 2.92581654 3.07317686 1.51215196
v 3.04488635 2.9932003 1.46583354
v 2.7798357 2.54817605 1.52604461
v 2.51543975 0.972549558 1.55118191
v 2.9496758 0.450682849 1.49964464
v 3.14359188 2.15130973 1.55566192
v 3.06102967 0.361195832 1.4208982
v 3.08578658 2.30455565 1.35535181
v 3.1486969 0.813893795 1.23770666
v 3.31481552 1.23379087 1.48389399
v 3.18726254 2.54948545 1.33546448
v 3.41374373 1.3638618 1.31329703
v 3.27080321 1.57732987 1.16047788
v 3.05961847 2.77559257 1.22112763
v 3.12424135 2.57457137 1.05619669
v 3.06940603 1.57572627 0.910411537
v 3.0488286 3.04217982 1.03758693
v 3.04113936 3.07946467 -0.0788361728
v 3.13787341 1.60021734 -0.040183723
v 3.05267072 3.04420781 -1.0886184
v 3.27887082 1.5821768 -0.993852079
v 3.09032536 1.55031979 -1.06240726
v 2.89653492 3.13245177 -1.4299314
v 3.05608582 2.42304826 -1.329615
v 3.1864543 1.38828492 -1.42642105
v 3.2779088 2.02188134 -1.3427074
v 3.41788507 1.22827864 -1.34498024
v 3.07087159 2.95338058 -1.36289954
v 3.26664233 2.22450352 -1.45473385
v 3.32341433 1.04700077 -1.52534807
v 3.01248407 3.06152129 -1.4766475
v 2.3151567 3.04633665 -1.52083886
v 3.06318235 0.652345657 -1.51231194
v 3.07122612 0.794326901 -1.66276515
v 2.91498232 0.945395172 -1.65742075
v 0.710858583 3.04054856 -1.51890588
v 2.98682618 2.66369796 -1.5680021
v 2.82259202 1.11850214 -1.53807664
v 2.84682059 2.42355657 -1.6470834
v 2.92404056 1.32115781 -1.80970597
v 2.71765995 2.58001614 -1.52688277
v 2.7874577 1.3985008 -1.51801515
v 2.30745411 1.45267439 -1.65030468
v 2.1047895 1.4508723 -1.52024484
v 0.981509984 1.45988417 -1.51460266
v 0.521181464 1.44945633 -1.52615047
v 0.0232073963 3.0384047 -1.52047575
v -0.66447556 3.04054832 -1.51890564
v 0.151625976 2.18731976 -1.52175748
v 0.429223776 1.45002091 -1.65084946
v 0.0833207667 1.37885022 -1.5432049
v 0.0970805362 1.32150114 -1.76382041
v 0.0287657157 2.27635169 -1.65166414
v -0.161512449 2.84214497 -1.52721238
v -0.173401177 1.40759444 -1.52392828
v -0.27050361 1.44369674 -1.67804956
v -0.451587528 1.44945633 -1.52615106
v -2.03521609 1.45087242 -1.52024543
v -2.23790646 1.45267439 -1.65030479
v -2.71711993 1.39850092 -1.51801515
v -2.66455841 2.58001637 -1.52688301
v -2.85257435 1.32115793 -1.80970657
v -2.7914362 2.4235568 -1.647084
g submesh0
f 1 2 3
f 3 2 4
f 2 5 4
f 2 1 6
f 1 7 6
f 6 8 2
f 9 2 8
f 9 8 10
f 10 11 9
f 5 2 12
f 13 5 12
f 14 13 12
f 15 6 7
f 6 15 8
f 2 16 12
f 16 2 9
f 17 14 12
f 12 16 17
f 17 18 14
f 18 17 19
f 19 17 20
f 20 17 16
f 20 16 21
f 22 21 16
f 9 22 16
f 23 15 7
f 24 23 7
f 15 23 25
f 25 8 15
f 23 26 25
f 23 24 26
f 27 25 26
f 27 26 24
f 28 27 24
f 29 27 28
f 27 29 30
f 25 27 30
f 30 29 31
f 30 31 32
f 33 30 32
f 33 25 30
f 34 33 32
f 34 25 33
f 34 35 25
f 36 35 34
f 35 36 37
f 35 37 38
f 25 35 38
f 37 39 38
f 38 39 40
f 41 25 38
f 41 38 40
f 40 42 41
f 8 25 41
f 41 42 43
f 43 8 41
f 43 42 44
f 8 43 45
f 46 8 45
f 45 47 46
f 8 46 10
f 44 48 43
f 48 45 43
f 44 49 48
f 50 48 49
f 50 45 48
f 50 51 45
f 52 45 51
f 45 52 53
f 54 45 53
f 47 45 54
f 55 54 53
f 54 55 56
f 47 54 56
f 56 57 47
f 47 57 58
f 58 57 59
f 58 46 47
f 59 60 58
f 59 61 60
f 60 61 62
f 60 63 58
f 58 63 46
f 46 63 64
f 60 62 65
f 60 65 63
f 62 66 65
f 67 65 66
f 63 65 67
f 68 63 67
f 64 63 68
f 69 68 67
f 69 70 68
f 70 64 68
f 69 71 70
f 71 72 70
f 70 72 73
f 70 73 64
f 74 73 72
f 75 73 74
f 75 76 73
f 76 64 73
f 76 75 77
f 64 76 77
f 78 77 75
f 64 77 79
f 78 79 77
f 79 46 64
f 78 80 79
f 46 79 80
f 80 78 81
f 80 81 82
f 83 82 81
f 82 83 84
f 85 46 80
f 80 82 85
f 10 46 85
f 84 86 82
f 86 84 87
f 86 87 88
f 87 89 88
f 82 86 90
f 86 88 90
f 91 88 89
f 90 88 91
f 92 91 89
f 90 93 82
f 91 93 90
f 92 93 91
f 85 82 93
f 85 93 94
f 92 95 93
f 96 93 95
f 96 97 93
f 98 85 94
f 98 10 85
f 99 93 97
f 100 99 97
f 100 101 99
f 93 99 101
f 100 102 101
f 101 103 93
f 101 102 103
f 93 103 94
f 102 104 103
f 104 94 103
f 105 94 104
f 94 105 106
f 94 106 107
f 98 94 107
f 107 108 98
f 10 98 109
f 98 108 109
f 109 110 10
f 11 10 110
f 111 109 108
f 112 111 108
f 112 113 111
f 114 111 113
f 115 109 111
f 114 115 111
f 109 115 116
f 115 114 116
f 109 116 110
f 117 116 114
f 118 116 117
f 110 116 118
f 118 119 110
f 119 11 110
f 119 120 11
f 120 121 11
f 122 11 121
f 123 11 122
f 123 122 124
f 11 123 9
f 123 124 125
f 9 123 125
f 125 124 22
f 9 125 22
