# desk_b_COL
v -0.328082949 -0.601393044 0.677573919
v -0.328082889 0.601392806 0.67757386
v 0.328020424 0.601392627 0.67757374
v 0.328020394 -0.601392984 0.67757386
v -0.268118709 -0.41992873 0.705902517
v -0.268118709 -0.419928759 -1.59822875E-07
v -0.238261357 -0.419928759 -1.59822875E-07
v -0.238261357 -0.419928759 0.705902517
v -0.238261327 -0.390071392 -1.59123601E-07
v -0.238261327 -0.390071362 0.705902517
v -0.268118709 -0.390071392 -1.59123601E-07
v -0.268118769 -0.390071362 0.705902517
v -0.268118709 -0.419928759 -1.59822875E-07
v -0.268118709 -0.41992873 0.705902517
v -0.238261297 0.419928551 0.705902457
v -0.26811865 0.419928461 -2.10965652E-07
v -0.268118739 0.419928551 0.705902457
v -0.238261297 0.419928461 -2.10965652E-07
v -0.238261297 0.390071124 0.705902457
v -0.238261297 0.390071094 -2.1166494E-07
v -0.26811868 0.390071124 0.705902457
v -0.26811868 0.390071094 -2.1166494E-07
v -0.268118739 0.419928551 0.705902457
v -0.26811865 0.419928461 -2.10965652E-07
v 0.238160565 0.390071034 0.705902457
v 0.238160565 0.390070975 -2.10359829E-07
v 0.268017888 0.390070975 -2.10359829E-07
v 0.268017888 0.390071034 0.705902457
v 0.268017888 0.419928342 -2.12270763E-07
v 0.268017888 0.419928402 0.705902457
v 0.238160565 0.419928342 -2.12270763E-07
v 0.238160565 0.419928402 0.705902457
v 0.238160565 0.390070975 -2.10359829E-07
v 0.238160565 0.390071034 0.705902457
v -0.328082889 0.601392806 0.67757386
v -0.328082949 -0.601393044 0.677573919
v -0.328082949 -0.601393044 0.709973991
v -0.328082889 0.601392865 0.709973872
v 0.328020424 0.601392627 0.709973812
v -0.328082889 0.601392806 0.67757386
v 0.328020424 0.601392627 0.67757374
v 0.328020394 -0.601392984 0.709973872
v 0.328020394 -0.601392984 0.67757386
v -0.328082949 -0.601393044 0.677573919
v 0.328020394 -0.601392984 0.709973872
v 0.328020424 0.601392627 0.67757374
v 0.328020424 0.601392627 0.709973812
v 0.328020394 -0.601392984 0.67757386
v 0.238160536 -0.390071332 -1.60428712E-07
v 0.268017828 -0.390071303 0.705902517
v 0.268017828 -0.390071332 -1.60428712E-07
v 0.238160536 -0.390071303 0.705902517
v 0.238160536 -0.4199287 -1.58517778E-07
v 0.238160536 -0.41992867 0.705902517
v 0.268017828 -0.4199287 -1.58517778E-07
v 0.268017828 -0.41992867 0.705902517
v 0.268017828 -0.390071332 -1.60428712E-07
v 0.268017828 -0.390071303 0.705902517
v -0.251642376 0.405035138 0.144674122
v -0.25077787 -0.400849074 0.145538658
v -0.25077793 -0.400848985 0.674787223
v -0.251642615 0.405035317 0.675651968
v 0.251199722 -0.400848836 0.674787223
v 0.251199931 -0.400849015 0.145538658
v 0.252064526 0.405125201 0.144674063
v 0.252064377 0.405125231 0.675651968
v -0.25077787 -0.400849074 0.145538658
v 0.251199931 -0.400849015 0.145538658
v 0.251199722 -0.400848836 0.674787223
v -0.25077793 -0.400848985 0.674787223
v -0.251642376 0.405035138 0.144674122
v 0.252064526 0.405125201 0.144674063
v 0.251199931 -0.400849015 0.145538658
v -0.25077787 -0.400849074 0.145538658
v 0.252064377 0.405125231 0.675651968
v 0.252064526 0.405125201 0.144674063
v -0.251642376 0.405035138 0.144674122
v -0.251642615 0.405035317 0.675651968
vt -0.0164248347 0.0160580557
vt -0.458744884 0.0160276089
vt -0.458786726 0.25729534
vt -0.0164781492 0.257349819
vt -0.262814283 0.870965779
vt -0.00329107046 0.870965779
vt -0.00329107046 0.859614134
vt -0.262814283 0.859614134
vt -0.00329107046 0.848277271
vt -0.262814283 0.84827733
vt -0.00329071283 0.83693409
vt -0.262814045 0.83693409
vt -0.00329071283 0.826236129
vt -0.262813836 0.826236129
vt 0.958439112 0.80870378
vt 0.698915005 0.820055962
vt 0.958439112 0.820055962
vt 0.698915005 0.80870378
vt 0.958439112 0.797366738
vt 0.698915005 0.797366738
vt 0.958439052 0.786024213
vt 0.698915005 0.786024213
vt 0.958439112 0.775326371
vt 0.698915005 0.775326371
vt -0.262813717 0.820055842
vt -0.00329130888 0.820055842
vt -0.00329130888 0.808704257
vt -0.262813717 0.808704257
vt -0.00329130888 0.797367096
vt -0.262813717 0.797367096
vt -0.00329124928 0.786023796
vt -0.262813687 0.786023796
vt -0.00329118967 0.775325835
vt -0.262813598 0.775325835
vt 0.535653353 0.769640267
vt 0.987840593 0.769640446
vt 0.985740006 0.759513557
vt 0.538755894 0.759513557
vt 0.538755894 0.516137302
vt 0.529305279 0.763440847
vt 0.529198408 0.517835617
vt 0.985740066 0.516137302
vt 0.995182753 0.517501831
vt 0.995182693 0.76312238
vt 0.985740006 0.0128869638
vt 0.536656499 0.00275914604
vt 0.538755894 0.0128869638
vt 0.988843858 0.00275914604
vt 0.996709883 0.85962534
vt 0.737185776 0.870976806
vt 0.996709883 0.870977044
vt 0.737185776 0.859625161
vt 0.996709883 0.84828788
vt 0.737185776 0.84828788
vt 0.996709883 0.836945295
vt 0.737185776 0.836945057
vt 0.996709883 0.826247394
vt 0.737185776 0.826247394
vt -0.692852736 0.397170097
vt -0.988647461 0.397170097
vt -0.988647342 0.592732131
vt -0.692852855 0.592732131
vt 0.0113527114 0.592732012
vt 0.0113527114 0.397170037
vt 0.307180285 0.397170037
vt 0.307180285 0.592732191
vt 0.283598125 0.397457302
vt 0.100780904 0.397457272
vt 0.100780964 0.592421174
vt 0.283598125 0.592421055
vt 0.307163358 0.786749959
vt 0.30719617 0.602542758
vt 0.0113686668 0.602542758
vt 0.0113685234 0.786749959
vt 0.38240698 0.98640871
vt 0.596966624 0.98640883
vt 0.596967876 0.782851696
vt 0.382405758 0.782851458
g submesh0
f 1/1 2/2 3/3
f 1/1 3/3 4/4
f 5/5 6/6 7/7
f 5/5 7/7 8/8
f 8/8 7/7 9/9
f 8/8 9/9 10/10
f 10/10 9/9 11/11
f 10/10 11/11 12/12
f 12/12 11/11 13/13
f 12/12 13/13 14/14
f 15/15 16/16 17/17
f 15/15 18/18 16/16
f 19/19 18/18 15/15
f 19/19 20/20 18/18
f 21/21 20/20 19/19
f 21/21 22/22 20/20
f 23/23 22/22 21/21
f 23/23 24/24 22/22
f 25/25 26/26 27/27
f 25/25 27/27 28/28
f 28/28 27/27 29/29
f 28/28 29/29 30/30
f 30/30 29/29 31/31
f 30/30 31/31 32/32
f 32/32 31/31 33/33
f 32/32 33/33 34/34
f 35/35 36/36 37/37
f 35/35 37/37 38/38
f 37/37 39/39 38/38
f 40/40 38/38 39/39
f 40/40 39/39 41/41
f 37/37 42/42 39/39
f 43/43 37/37 44/44
f 43/43 45/45 37/37
f 46/46 47/47 45/45
f 46/46 45/45 48/48
f 49/49 50/50 51/51
f 49/49 52/52 50/50
f 53/53 52/52 49/49
f 53/53 54/54 52/52
f 55/55 54/54 53/53
f 55/55 56/56 54/54
f 57/57 56/56 55/55
f 57/57 58/58 56/56
f 59/59 60/60 61/61
f 59/59 61/61 62/62
f 63/63 64/64 65/65
f 63/63 65/65 66/66
f 67/67 68/68 69/69
f 67/67 69/69 70/70
f 71/71 72/72 73/73
f 71/71 73/73 74/74
f 75/75 76/76 77/77
f 75/75 77/77 78/78
