# doubledoor.frame.wood_COL
v -0.108154096 -0.0185841378 1.3596704
v 0.112202935 -0.0185841452 1.3596704
v 0.112203032 2.34811974 1.3596704
v -0.108153999 2.34811974 1.3596704
v -0.108153999 2.34811974 1.3596704
v 0.112203032 2.34811974 1.3596704
v 0.112203032 2.34811974 -1.35798943
v -0.108153999 2.34811974 -1.35798943
v -0.108154096 -0.0185841378 -1.35798943
v -0.108153999 2.34811974 -1.35798943
v 0.112203032 2.34811974 -1.35798943
v 0.112202935 -0.0185841452 -1.35798943
v -0.108154096 -0.0185841378 -1.35798943
v 0.112202935 -0.0185841452 -1.35798943
v 0.112202935 -0.0185841452 1.3596704
v -0.108154096 -0.0185841378 1.3596704
v 0.0416846015 0.119169377 1.31128657
v 0.0416846685 2.19555974 1.19935846
v 0.0416846499 2.19555974 1.31128657
v 0.0416846201 0.119169377 1.19935846
v -0.0662453696 2.19555974 1.1993587
v -0.0662454143 0.11916931 1.1993587
v -0.0662453696 2.19555974 1.31128657
v -0.0662454218 0.11916931 1.31128657
v 0.0416850336 2.19555974 -1.3107928
v 0.0416850597 0.119169377 -1.19886506
v 0.0416850597 0.119169377 -1.31079316
v 0.0416850336 2.19555974 -1.1988647
v -0.0662449822 0.119169384 -1.19886553
v -0.0662450418 2.19555974 -1.19886518
v -0.0662449524 0.119169384 -1.31079316
v -0.066245012 2.19555974 -1.3107928
v -0.0266800094 2.33168507 -1.35869992
v -0.0266799871 2.85989213 1.35519767
v -0.0266799871 2.85989213 -1.35869992
v -0.0266800094 2.33168507 1.35519767
v -0.0266799871 2.85989213 -1.35869992
v 0.0255673137 2.33168507 -1.35869992
v 0.0255673267 2.85989213 -1.35869992
v 0.025567295 2.33168507 1.35519767
v 0.0255673155 2.85989213 1.35519767
v -0.0266799871 2.85989213 1.35519767
v 0.0255673137 2.33168507 -1.35869992
v 0.025567295 2.33168507 1.35519767
v -0.0266799871 2.85989213 1.35519767
v 0.0255673155 2.85989213 1.35519767
v 0.0255673267 2.85989213 -1.35869992
v -0.0266799871 2.85989213 -1.35869992
v -0.108154096 -0.0185841378 1.3596704
v -0.108153999 2.34811974 1.3596704
v -0.108154006 2.19555974 1.24774241
v -0.108153999 2.34811974 -1.35798943
v -0.108154096 0.11916931 1.24774241
v -0.108154088 0.119169384 -1.24761462
v -0.108154096 -0.0185841378 -1.35798943
v -0.108153999 2.19555974 -1.24761462
v 0.112202935 0.119169377 1.24774241
v 0.112202935 0.119169302 -1.24761462
v 0.112203032 2.19555974 1.24774241
v 0.112203032 2.19555974 -1.24761462
v 0.112202935 -0.0185841452 -1.35798943
v 0.112202935 -0.0185841452 1.3596704
v 0.112203032 2.34811974 -1.35798943
v 0.112203032 2.34811974 1.3596704
vn -0.577350318 -0.577350259 0.577350199
vn 0.577350259 -0.577350318 0.577350259
vn 0.577350259 0.577350318 0.577350259
vn -0.577350259 0.577350318 0.577350259
vn -0.577350259 0.577350318 0.577350259
vn 0.577350259 0.577350318 0.577350259
vn 0.577350199 0.577350259 -0.577350259
vn -0.577350199 0.577350318 -0.577350318
vn -0.577350259 -0.577350259 -0.577350259
vn -0.577350199 0.577350318 -0.577350318
vn 0.577350199 0.577350259 -0.577350259
vn 0.577350199 -0.577350259 -0.577350259
vn -0.577350259 -0.577350259 -0.577350259
vn 0.577350199 -0.577350259 -0.577350259
vn 0.577350259 -0.577350318 0.577350259
vn -0.577350318 -0.577350259 0.577350199
vn 1 0 1.70408441E-07
vn 0.707106113 0 -0.707107365
vn 1 0 1.70408441E-07
vn 0.707106054 0 -0.707107484
vn -0.707107425 0 -0.707106113
vn -0.707107544 0 -0.707106054
vn -1 0 0
vn -1 0 0
vn 1 0 0
vn 0.707105458 -1.07747397E-07 0.70710808
vn 1 0 0
vn 0.70710516 -1.07747425E-07 0.707108378
vn -0.707108259 -1.36642129E-07 0.707105279
vn -0.707108378 -1.366421E-07 0.70710516
vn -1 0 -2.76914534E-07
vn -1 0 -2.76914562E-07
vn -0.707106769 0 -0.707106769
vn -0.577350259 0.577350259 0.577350259
vn -0.577350259 0.577350259 -0.577350259
vn -0.707106769 0 0.707106769
vn -0.577350259 0.577350259 -0.577350259
vn 0.707106829 0 -0.707106769
vn 0.577350259 0.577350259 -0.577350259
vn 0.707106769 0 0.707106769
vn 0.577350259 0.577350259 0.577350259
vn -0.577350259 0.577350259 0.577350259
vn 0.707106829 0 -0.707106769
vn 0.707106769 0 0.707106769
vn -0.577350259 0.577350259 0.577350259
vn 0.577350259 0.577350259 0.577350259
vn 0.577350259 0.577350259 -0.577350259
vn -0.577350259 0.577350259 -0.577350259
vn -0.577350318 -0.577350259 0.577350199
vn -0.577350259 0.577350318 0.577350259
vn -0.904534042 -0.301511228 -0.301511288
vn -0.577350199 0.577350318 -0.577350318
vn -0.904534042 0.301511377 -0.301511258
vn -0.904534042 0.301511467 0.301511467
vn -0.577350259 -0.577350259 -0.577350259
vn -0.904534042 -0.301511407 0.301511407
vn 0.904534042 0.301511317 -0.301511467
vn 0.904534042 0.301511228 0.301511258
vn 0.904534042 -0.301511467 -0.301511347
vn 0.904534042 -0.301511288 0.301511317
vn 0.577350199 -0.577350259 -0.577350259
vn 0.577350259 -0.577350318 0.577350259
vn 0.577350199 0.577350259 -0.577350259
vn 0.577350259 0.577350318 0.577350259
vt 0 0
vt 0 1
vt 1 1
vt 1 0
vt 0.0294339359 0
vt 0.0294339359 1
vt 0.970723987 1
vt 0.970723987 0
vt 1 0
vt 0 0
vt 0 1
vt 1 1
vt 0.0292760022 0
vt 0.0292760022 1
vt 0.970566034 1
vt 0.970566034 0
vt 1 0.0582047962
vt 0.941132128 0.935539007
vt 1 0.935539007
vt 0.941132128 0.0582047962
vt 0.0588678718 0.935539007
vt 0.0588678718 0.0582047701
vt 0 0.935539007
vt 0 0.0582047701
vt 1 0.0582047962
vt 0.941132128 0.935539007
vt 1 0.935539007
vt 0.941132128 0.0582047962
vt 0.0588678718 0.935539007
vt 0.0588678718 0.0582047701
vt 0 0.935539007
vt 0 0.0582047701
vt 1 0
vt 0 1
vt 1 1
vt 0 0
vt 0 0
vt 1 1
vt 0 1
vt 0 1
vt 1 1
vt 1 0
vt 0 0
vt 1 0
vt 0 0
vt 0 1
vt 1 1
vt 1 0
vt 0.0294339359 0
vt 0.0294339359 1
vt 0.0588678718 0.935539007
vt 0.970723987 1
vt 0.0588678718 0.0582047701
vt 0.941447973 0.0582047924
vt 0.970723987 0
vt 0.941447973 0.935539007
vt 0.941132128 0.0582047962
vt 0.0585520044 0.0582047738
vt 0.941132128 0.935539007
vt 0.0585520044 0.935539007
vt 0.0292760022 0
vt 0.970566034 0
vt 0.0292760022 1
vt 0.970566034 1
g submesh0
f 1/1/1 2/2/2 3/3/3
f 1/1/1 3/3/3 4/4/4
f 5/5/5 6/6/6 7/7/7
f 5/5/5 7/7/7 8/8/8
f 9/9/9 10/10/10 11/11/11
f 9/9/9 11/11/11 12/12/12
f 13/13/13 14/14/14 15/15/15
f 13/13/13 15/15/15 16/16/16
f 17/17/17 18/18/18 19/19/19
f 17/17/17 20/20/20 18/18/18
f 20/20/20 21/21/21 18/18/18
f 20/20/20 22/22/22 21/21/21
f 23/23/23 21/21/21 22/22/22
f 23/23/23 22/22/22 24/24/24
f 25/25/25 26/26/26 27/27/27
f 25/25/25 28/28/28 26/26/26
f 28/28/28 29/29/29 26/26/26
f 28/28/28 30/30/30 29/29/29
f 31/31/31 29/29/29 30/30/30
f 31/31/31 30/30/30 32/32/32
f 33/33/33 34/34/34 35/35/35
f 33/33/33 36/36/36 34/34/34
f 37/37/37 38/38/38 33/33/33
f 37/37/37 39/39/39 38/38/38
f 36/36/36 40/40/40 41/41/41
f 36/36/36 41/41/41 42/42/42
f 43/43/43 39/39/39 41/41/41
f 43/43/43 41/41/41 44/44/44
f 45/45/45 46/46/46 47/47/47
f 45/45/45 47/47/47 48/48/48
f 49/49/49 50/50/50 51/51/51
f 52/52/52 51/51/51 50/50/50
f 49/49/49 51/51/51 53/53/53
f 54/54/54 49/49/49 53/53/53
f 54/54/54 55/55/55 49/49/49
f 52/52/52 55/55/55 54/54/54
f 52/52/52 56/56/56 51/51/51
f 52/52/52 54/54/54 56/56/56
f 57/57/57 53/53/53 51/51/51
f 58/58/58 54/54/54 53/53/53
f 58/58/58 53/53/53 57/57/57
f 59/59/59 51/51/51 56/56/56
f 57/57/57 51/51/51 59/59/59
f 60/60/60 56/56/56 54/54/54
f 60/60/60 54/54/54 58/58/58
f 59/59/59 56/56/56 60/60/60
f 61/61/61 58/58/58 57/57/57
f 61/61/61 60/60/60 58/58/58
f 61/61/61 57/57/57 62/62/62
f 62/62/62 57/57/57 59/59/59
f 61/61/61 63/63/63 60/60/60
f 59/59/59 60/60/60 63/63/63
f 62/62/62 59/59/59 64/64/64
f 59/59/59 63/63/63 64/64/64
