# doubledoor.frame.toptier_COL
v -0.115469463 -0.0185841359 1.3596704
v 0.1162633 -0.0185841471 1.3596704
v 0.116263397 2.34811974 1.3596704
v -0.115469366 2.34811974 1.3596704
v -0.115469366 2.34811974 1.3596704
v 0.116263397 2.34811974 1.3596704
v 0.116263397 2.34811974 -1.35798943
v -0.115469366 2.34811974 -1.35798943
v -0.115469463 -0.0185841359 -1.35798943
v -0.115469366 2.34811974 -1.35798943
v 0.116263397 2.34811974 -1.35798943
v 0.1162633 -0.0185841471 -1.35798943
v -0.115469463 -0.0185841359 -1.35798943
v 0.1162633 -0.0185841471 -1.35798943
v 0.1162633 -0.0185841471 1.3596704
v -0.115469463 -0.0185841359 1.3596704
v 0.0868041664 2.33168507 -1.35869992
v 0.0486326776 2.49132204 1.35519767
v 0.0868041664 2.33168507 1.35519767
v 0.0486328863 2.49132204 -1.35869992
v 0.0868041888 2.85989213 -1.35869992
v 0.0868041888 2.85989213 1.35519767
v -0.0798194855 2.85989213 -1.35869992
v 0.0486328863 2.49132204 -1.35869992
v -0.0416480228 2.49132204 -1.35869992
v 0.0868041664 2.33168507 -1.35869992
v -0.0798195153 2.33168507 -1.35869992
v -0.0416482165 2.49132204 1.35519767
v -0.0798194855 2.85989213 1.35519767
v 0.0486326776 2.49132204 1.35519767
v -0.0798195153 2.33168507 1.35519767
v 0.0868041664 2.33168507 1.35519767
v -0.0416482165 2.49132204 1.35519767
v -0.0416480228 2.49132204 -1.35869992
v -0.0798194855 2.85989213 1.35519767
v -0.0798194855 2.85989213 -1.35869992
v -0.0798194855 2.85989213 1.35519767
v 0.0868041888 2.85989213 1.35519767
v 0.0868041888 2.85989213 -1.35869992
v -0.0798194855 2.85989213 -1.35869992
v -0.115469463 -0.0185841359 1.3596704
v -0.115469366 2.34811974 1.3596704
v -0.115469374 2.19555974 1.19207525
v -0.115469366 2.34811974 -1.35798943
v -0.115469463 0.11916931 1.19207525
v -0.115469456 0.119169384 -1.19771171
v -0.115469463 -0.0185841359 -1.35798943
v -0.115469366 2.19555974 -1.19771171
v 0.1162633 0.119169377 1.19207513
v 0.1162633 0.119169302 -1.19771194
v 0.116263397 2.19555974 1.19207501
v 0.116263397 2.19555974 -1.19771194
v 0.1162633 -0.0185841471 -1.35798943
v 0.1162633 -0.0185841471 1.3596704
v 0.116263397 2.34811974 -1.35798943
v 0.116263397 2.34811974 1.3596704
vn -0.577350259 -0.577350259 0.577350318
vn 0.577350199 -0.577350259 0.577350318
vn 0.577350259 0.577350199 0.577350259
vn -0.577350259 0.577350259 0.577350318
vn -0.577350259 0.577350259 0.577350318
vn 0.577350259 0.577350199 0.577350259
vn 0.577350259 0.577350199 -0.577350199
vn -0.577350199 0.577350259 -0.577350259
vn -0.577350318 -0.577350259 -0.577350259
vn -0.577350199 0.577350259 -0.577350259
vn 0.577350259 0.577350199 -0.577350199
vn 0.577350259 -0.577350259 -0.577350259
vn -0.577350318 -0.577350259 -0.577350259
vn 0.577350259 -0.577350259 -0.577350259
vn 0.577350199 -0.577350259 0.577350318
vn -0.577350259 -0.577350259 0.577350318
vn 0.740836382 0.177144125 -0.647905469
vn 0.663403451 0.0436845683 0.746985614
vn 0.74083662 0.17714417 0.647905111
vn 0.66340363 0.0436845869 -0.746985376
vn 0.609088957 0.549265862 -0.572116911
vn 0.609088957 0.549265862 0.572116733
vn -0.609089017 0.549265862 -0.572116733
vn 0.66340363 0.0436845869 -0.746985376
vn -0.663403451 0.0436846279 -0.746985555
vn 0.740836382 0.177144125 -0.647905469
vn -0.74083662 0.17714417 -0.647905111
vn -0.66340363 0.0436846316 0.746985376
vn -0.609088898 0.549265802 0.572116911
vn 0.663403451 0.0436845683 0.746985614
vn -0.740836382 0.177144125 0.647905469
vn 0.74083662 0.17714417 0.647905111
vn -0.66340363 0.0436846316 0.746985376
vn -0.663403451 0.0436846279 -0.746985555
vn -0.609088898 0.549265802 0.572116911
vn -0.609089017 0.549265862 -0.572116733
vn -0.609088898 0.549265802 0.572116911
vn 0.609088957 0.549265862 0.572116733
vn 0.609088957 0.549265862 -0.572116911
vn -0.609089017 0.549265862 -0.572116733
vn -0.577350259 -0.577350259 0.577350318
vn -0.577350259 0.577350259 0.577350318
vn -0.904534161 -0.301511139 -0.301511347
vn -0.577350199 0.577350259 -0.577350259
vn -0.904534161 0.301511228 -0.301511258
vn -0.904533923 0.301511645 0.301511437
vn -0.577350318 -0.577350259 -0.577350259
vn -0.904533923 -0.301511556 0.301511437
vn 0.904533923 0.301511496 -0.301511437
vn 0.904534161 0.301511079 0.301511258
vn 0.904533923 -0.301511616 -0.301511407
vn 0.904534161 -0.301511139 0.301511317
vn 0.577350259 -0.577350259 -0.577350259
vn 0.577350199 -0.577350259 0.577350318
vn 0.577350259 0.577350199 -0.577350199
vn 0.577350259 0.577350199 0.577350259
vt 0 0
vt 0 1
vt 1 1
vt 1 0
vt 0.0294339359 0
vt 0.0294339359 1
vt 0.970723987 1
vt 0.970723987 0
vt 1 0
vt 0 0
vt 0 1
vt 1 1
vt 0.0292760022 0
vt 0.0292760022 1
vt 0.970566034 1
vt 0.970566034 0
vt 0 0
vt 1 0.5
vt 1 0
vt 0 0.5
vt 0 1
vt 1 1
vt 0 0
vt 0.5 1
vt 0.5 0
vt 1 1
vt 1 0
vt 0.5 0
vt 1 0
vt 0.5 1
vt 0 0
vt 0 1
vt 0 0.5
vt 1 0.5
vt 0 1
vt 1 1
vt 0 0
vt 0 1
vt 1 1
vt 1 0
vt 0.0294339359 0
vt 0.0294339359 1
vt 0.0588678718 0.935539007
vt 0.970723987 1
vt 0.0588678718 0.0582047701
vt 0.941447973 0.0582047924
vt 0.970723987 0
vt 0.941447973 0.935539007
vt 0.941132128 0.0582047962
vt 0.0585520044 0.0582047738
vt 0.941132128 0.935539007
vt 0.0585520044 0.935539007
vt 0.0292760022 0
vt 0.970566034 0
vt 0.0292760022 1
vt 0.970566034 1
g submesh0
f 1/1/1 2/2/2 3/3/3
f 1/1/1 3/3/3 4/4/4
f 5/5/5 6/6/6 7/7/7
f 5/5/5 7/7/7 8/8/8
f 9/9/9 10/10/10 11/11/11
f 9/9/9 11/11/11 12/12/12
f 13/13/13 14/14/14 15/15/15
f 13/13/13 15/15/15 16/16/16
f 17/17/17 18/18/18 19/19/19
f 17/17/17 20/20/20 18/18/18
f 18/18/18 20/20/20 21/21/21
f 18/18/18 21/21/21 22/22/22
f 23/23/23 21/21/21 24/24/24
f 23/23/23 24/24/24 25/25/25
f 25/25/25 24/24/24 26/26/26
f 25/25/25 26/26/26 27/27/27
f 28/28/28 22/22/22 29/29/29
f 28/28/28 30/30/30 22/22/22
f 31/31/31 30/30/30 28/28/28
f 31/31/31 32/32/32 30/30/30
f 27/27/27 31/31/31 33/33/33
f 27/27/27 33/33/33 34/34/34
f 34/34/34 33/33/33 35/35/35
f 34/34/34 35/35/35 36/36/36
f 37/37/37 38/38/38 39/39/39
f 37/37/37 39/39/39 40/40/40
f 41/41/41 42/42/42 43/43/43
f 44/44/44 43/43/43 42/42/42
f 41/41/41 43/43/43 45/45/45
f 46/46/46 41/41/41 45/45/45
f 46/46/46 47/47/47 41/41/41
f 44/44/44 47/47/47 46/46/46
f 44/44/44 48/48/48 43/43/43
f 44/44/44 46/46/46 48/48/48
f 49/49/49 45/45/45 43/43/43
f 50/50/50 46/46/46 45/45/45
f 50/50/50 45/45/45 49/49/49
f 51/51/51 43/43/43 48/48/48
f 49/49/49 43/43/43 51/51/51
f 52/52/52 48/48/48 46/46/46
f 52/52/52 46/46/46 50/50/50
f 51/51/51 48/48/48 52/52/52
f 53/53/53 50/50/50 49/49/49
f 53/53/53 52/52/52 50/50/50
f 53/53/53 49/49/49 54/54/54
f 54/54/54 49/49/49 51/51/51
f 53/53/53 55/55/55 52/52/52
f 51/51/51 52/52/52 55/55/55
f 54/54/54 51/51/51 56/56/56
f 51/51/51 55/55/55 56/56/56
