# douglas_fir_c_COL
v 0.0489005595 44.5202179 0.095089592
v -0.0123777054 41.7818604 -0.0206955038
v -0.00755368033 44.520237 0.0779695809
v 0.0638861805 41.7817268 0.00245219632
v -0.112286538 39.0473785 -0.0478851013
v 0.0767250285 44.5201645 0.147117257
v -0.0170451999 39.047184 -0.0189968981
v -0.196730673 36.3129234 -0.0652956665
v 0.101456515 41.781601 0.0727363303
v 0.0596074052 44.5201073 0.203591645
v -0.0825279877 36.3128624 -0.0307012983
v -0.189283684 33.5783043 -0.0478576645
v 0.0783358961 41.7815514 0.149015293
v 0.00755962823 44.5200806 0.231418312
v 0.00803701486 41.7816086 0.186618119
v 0.0298708417 39.0470924 0.0687802136
v 0.000975587056 39.0471611 0.164027348
v -0.0868062302 39.0473442 0.210944667
v -0.0561765283 33.5785217 -0.0076715867
v -0.0547521152 30.8437595 0.0770225525
v -0.0262515545 36.3128738 0.0744818226
v -0.0608980209 36.3129501 0.18866916
v -0.166164815 36.3130531 0.244942352
v 0.097378999 30.8440838 0.122880228
v 0.0058497861 28.263422 0.196842507
v 0.00941946357 33.5787964 0.114930309
v -0.0309672523 33.5789642 0.248129666
v -0.153673649 33.5789185 0.313871026
v 0.172352985 30.844492 0.262895614
v 0.126264229 30.8447495 0.415036887
v -0.0138822133 30.8447132 0.49021408
v 0.175851226 28.2635231 0.248296097
v 0.259551793 28.2637978 0.404905319
v 0.207958251 28.2640934 0.574928582
v 0.0512943529 28.2642403 0.658790112
v 0.0506906882 27.9560661 0.67483443
v 0.176817641 27.9554806 0.25919053
v 0.00467943819 27.9554882 0.207071036
v -0.0561664812 25.3755245 0.237342864
v 0.261566877 27.9556484 0.417780489
v 0.209323421 27.9558907 0.589938641
v 0.133878812 25.3753624 0.294971555
v -0.139645189 22.6413441 0.142806232
v 0.169806197 25.3753147 0.660101056
v -0.0053000045 25.3754482 0.753713429
v 0.227467954 25.3752785 0.470094889
v 0.0693383515 22.6412754 0.206214219
v -0.0787391514 19.9068508 0.0303663388
v 0.108791336 22.6409416 0.60773313
v -0.0838691592 22.6408787 0.710576177
v 0.172265723 22.6411076 0.398804456
v 0.148999304 19.9070301 0.0996035561
v 0.0436548032 17.3263683 -0.00473204767
v 0.191718116 19.906868 0.537336767
v -0.018383868 19.9066162 0.649398685
v 0.261051565 19.9070396 0.309592247
v 0.289274186 17.3265648 0.0699405298
v 0.335398614 17.3265839 0.54205817
v 0.108872898 17.326395 0.662971497
v 0.11900226 17.0184326 0.669454694
v 0.410114408 17.3266544 0.296421438
v 0.30091849 17.0183296 0.07121896
v 0.0531346351 17.0182743 -0.00410037767
v 0.108534046 14.4381218 -0.0180895589
v 0.34748283 17.0184383 0.547465801
v 0.422830045 17.0183964 0.299680442
v 0.246661454 14.4379768 0.0239489004
v -0.103671566 11.703867 -0.164958
v 0.358257711 14.4378376 0.11557056
v 0.0443690196 11.7036695 -0.119820431
v 0.00940693263 10.4135227 -0.168780297
v -0.139014453 10.41362 -0.214079276
v -0.0222118776 8.82734013 -0.236257389
v -0.174605429 8.8273983 -0.282787025
v -0.171418563 8.12777424 -0.310726106
v 0.42628473 14.4377251 0.242833361
v 0.163948163 11.7034569 -0.0216659177
v 0.129293621 10.4134035 -0.0703515708
v 0.100887708 8.82723618 -0.135178626
v -0.0203770213 8.12784386 -0.262743324
v 0.44042486 14.4376583 0.386719495
v 0.236862257 11.7032623 0.114685535
v 0.202401429 10.4132757 0.0663545951
v 0.175961241 8.82714653 0.00519555621
v 0.252004325 11.7031164 0.269000947
v 0.398522794 14.4376411 0.524801373
v 0.306937397 14.4376783 0.636113703
v 0.207087338 11.703042 0.41694513
v 0.217593849 10.4131622 0.221128806
v 0.179659605 14.4377632 0.704093099
v 0.0359841138 14.4378881 0.718419313
v 0.108967759 11.7030506 0.535968363
v -0.027417399 11.7031384 0.60874635
v -0.181311443 11.7032957 0.624177217
v 0.172565997 10.4130793 0.369460642
v 0.191574305 8.82708263 0.164152771
v 0.0741845369 10.4130402 0.488732189
v -0.0625639185 10.4130507 0.561688423
v -0.216876239 10.4131079 0.577203155
v -0.254582584 8.82687664 0.529769063
v -0.0961135924 8.82688427 0.513825536
v -0.246796608 8.1275959 0.518771112
v 0.145343617 8.82699966 0.316474766
v 0.0443135835 8.82691574 0.438920736
v -0.0870082155 8.12768936 0.502504766
v -0.195639715 7.37189007 0.524061143
v 0.0564338155 8.1277113 0.423161507
v -0.0344533883 7.37228632 0.50743413
v -0.115708694 6.66734409 0.545349658
v 0.0467933901 6.6675272 0.528387725
v -0.105456807 6.39563417 0.545148194
v 0.112204805 7.37262535 0.423286051
v 0.160097569 8.12775898 0.298333466
v 0.203314945 8.12787151 0.145902276
v 0.0574188158 6.39569569 0.527555168
v -0.0884025842 6.0744853 0.567707598
v 0.196487024 6.66760969 0.439773768
v 0.218667656 7.37298489 0.295877665
v 0.180757836 8.12790966 -0.0144470762
v 0.0746636167 6.07459354 0.548726439
v -0.0742930248 5.80227947 0.578958869
v 0.207436159 6.39569998 0.437568188
v 0.305630833 6.6676755 0.309960812
v 0.258670032 7.37269497 0.143354475
v 0.101485647 8.12787628 -0.158573449
v 0.0885275379 5.80230618 0.557692468
v -0.053525541 4.97100019 0.568239033
v 0.224012107 6.07456732 0.457564145
v 0.316509098 6.3956852 0.306952655
v 0.228721708 7.37183332 -0.0184551813
v 0.144988 7.37119675 -0.166625634
v 0.107234716 4.97096777 0.536572635
v -0.0523681529 4.69977427 0.550334752
v 0.342548668 6.66770411 0.157357827
v 0.235902727 5.80226135 0.465419114
v 0.305526376 6.66765499 -0.00582955219
v 0.107740544 4.69977808 0.515283644
v 0.00719279097 3.73227072 0.510345817
v 0.331681252 6.07443142 0.326251984
v 0.352328628 6.39560938 0.154045075
v 0.217521757 6.66760254 -0.157776698
v 0.244235128 4.97101021 0.440545231
v 0.164892763 3.7322824 0.463196814
v 0.0498306826 2.82996464 0.470207959
v 0.340532184 5.80219126 0.333256841
v 0.366337419 6.07424259 0.172776356
v 0.31374535 6.39551497 -0.0096234018
v 0.241388485 4.69966888 0.418011039
v 0.203502133 2.82989311 0.388734609
v 0.0727949664 2.55953312 0.470181793
v 0.333903641 4.970994 0.305035919
v 0.373372942 5.80219793 0.178907424
v 0.327310592 6.07408571 0.0085748611
v 0.224921599 6.39546204 -0.162493676
v 0.28641814 3.73248243 0.361539572
v 0.225151598 2.55995703 0.379717976
v 0.107054576 2.2052269 0.480790138
v 0.326188684 4.69950056 0.281381547
v 0.358731806 4.97105455 0.146833181
v 0.0982726291 6.66752625 -0.268398911
v 0.333655626 2.82950687 0.268170476
v 0.257674336 2.20623469 0.380544454
v 0.12942566 1.93393981 0.479659677
v 0.355846614 2.55997753 0.254574955
v 0.415403694 2.82949543 0.102564335
v 0.353744507 3.73273921 0.221064433
v 0.274283856 1.93498576 0.368850648
v 0.0950297937 1.07412779 0.46637392
v 0.0244681872 7.37110281 -0.274143368
v -0.125120014 7.37098551 -0.323702812
v -0.049934838 6.66737461 -0.319436133
v 0.105661035 6.39541674 -0.273743808
v -0.0428538695 6.39537096 -0.324755728
v 0.118751027 6.07382441 -0.25607565
v -0.0310972724 6.07359743 -0.306411654
v 0.238522455 6.07398558 -0.144757912
v 0.124724738 5.80218983 -0.248851568
v -0.0271579884 5.8021512 -0.297359109
v -0.0549271703 4.97159433 -0.310523927
v 0.334444612 5.80222845 0.0143093131
v 0.245889738 5.80222559 -0.138573945
v 0.105976149 4.97158194 -0.271503657
v 0.321593136 4.97126436 -0.018831512
v 0.234371752 4.97147846 -0.167770728
v 0.0942585915 4.7000103 -0.293324679
v -0.0695735291 4.69990826 -0.329222888
v -0.0665313825 3.73291087 -0.371934056
v 0.348397464 4.69957161 0.121909864
v 0.225022405 4.7000308 -0.191749707
v 0.107786983 3.73289847 -0.347078949
v -0.0488946177 2.83098841 -0.40951556
v 0.311827123 4.69983625 -0.0441021249
v 0.366655737 3.73287344 0.0571635179
v 0.246943697 3.73270917 -0.253162712
v 0.106539473 2.83085132 -0.370609879
v 0.332179278 3.73290944 -0.110100105
v 0.406028807 2.82950854 -0.07086505
v 0.199654073 2.83050489 -0.269090772
v 0.335826337 2.83049393 -0.197269306
v 0.109678276 2.55900025 -0.3725968
v -0.0442966446 2.55891323 -0.409926355
v -0.0483910702 2.20830321 -0.40192005
v 0.438233972 2.56051993 0.083463572
v 0.199000865 2.55937743 -0.270790428
v 0.345036507 2.55975676 -0.211655825
v 0.422978878 2.56021547 -0.0921093076
v 0.10917981 2.20689559 -0.374569952
v 0.20660904 2.20802641 -0.274792522
v 0.358635217 2.20700455 -0.22117807
v 0.443046182 2.20676088 -0.103781968
v 0.46490702 2.20767713 0.0743409246
v 0.106248863 1.93540657 -0.383895189
v -0.0509898737 1.93663049 -0.405593187
v 0.208358169 1.93667793 -0.287894726
v 0.36451304 1.93560529 -0.240881175
v 0.442038208 1.93602872 -0.116849981
v 0.0981575251 1.07444608 -0.421460092
v -0.0882820189 1.07441294 -0.413021803
v 0.2529715 1.07470286 -0.349811494
v 0.0920021981 0.737420619 -0.444273829
v -0.0878158063 0.728806496 -0.440132409
v -0.0765269548 0.414354742 -0.462051928
v 0.379633278 1.07422245 -0.222375318
v 0.283902824 0.746090293 -0.360146374
v 0.131010532 0.435482711 -0.448217005
v 0.209544748 0.270809382 -0.444224089
v -0.0657887757 0.218146071 -0.494668156
v -0.155758426 -0.31659627 -0.877843142
v 0.310181856 0.460556388 -0.364232898
v 0.309356868 -0.227039382 -0.792526841
v -0.268118083 -0.845922828 -1.35739183
v 0.434697837 -0.710410595 -1.22838163
v 0.364941031 0.29728058 -0.34333393
v 0.571715534 -0.181949854 -0.622197151
v 0.830847859 -0.642178774 -0.971105099
v 0.403013408 0.745094001 -0.212974161
v 0.433231562 0.468021274 -0.205974713
v 0.488856256 0.435809851 0.0130242659
v 0.473176062 0.309724659 -0.200386271
v 0.754719615 -0.161177114 -0.380859286
v 1.10716617 -0.610711455 -0.60664475
v 0.45936802 0.745793045 -0.0202864651
v 0.537171185 0.293556333 -0.0105060646
v 0.863261104 -0.189333305 -0.0599904768
v 1.27110159 -0.653248906 -0.122027375
v 0.542857051 0.23360838 0.128172293
v 0.873375893 -0.291604578 0.173649475
v 1.28651404 -0.808021963 0.230816185
v 0.481981158 0.295576304 0.197613135
v 0.770145237 -0.184984922 0.289867818
v 1.13043034 -0.646502495 0.405830801
v 0.457706243 0.490782827 0.158888608
v 0.386653423 0.324419707 0.318899423
v 0.608379185 -0.135302886 0.495435089
v 0.88593024 -0.571356654 0.71662277
v 0.442155451 -0.135236412 0.665539384
v 0.634882629 -0.571316957 0.973608196
v 0.288332462 0.324508369 0.419482529
v 0.230630264 -0.145635754 0.779789805
v 0.315420091 -0.587064326 1.14615333
v 0.163106844 0.318354785 0.487167954
v 0.379317433 0.502508402 0.306861818
v 0.274336278 0.497826159 0.415912628
v 0.150868297 0.488578171 0.480628699
v 0.251283228 0.744923532 0.419658571
v 0.128814593 0.736805737 0.475820899
v 0.368737519 0.745585382 0.300684661
v 0.241533905 1.07429671 0.405589819
v 0.444961429 0.746380389 0.149605229
v 0.355458468 1.0741837 0.291610926
v 0.404213816 1.93465209 0.23599498
v 0.423936069 1.07417428 0.126471907
v 0.38658011 2.20601201 0.250238478
v 0.476396143 1.93610561 0.0594317392
v 0.433648467 1.07419395 -0.059113577
v -0.0489178784 44.5200958 0.214281648
v 0.00803701486 41.7816086 0.186618119
v 0.00755962823 44.5200806 0.231418312
v -0.0682724789 41.7817421 0.163484678
v -0.0868062302 39.0473442 0.210944667
v -0.0767256841 44.5201569 0.16223076
v -0.182045609 39.0475388 0.182044536
v -0.166164815 36.3130531 0.244942352
v -0.105857015 41.7818756 0.0931549445
v -0.0595848113 44.5202141 0.105773009
v -0.280358613 36.3131142 0.2102606
v -0.153673649 33.5789185 0.313871026
v -0.0826908201 41.7819176 0.0168618187
v -0.00755368033 44.520237 0.0779695809
v -0.0123777054 41.7818604 -0.0206955038
v -0.228951529 39.0476265 0.0942669585
v -0.200058267 39.0475578 -0.000967552362
v -0.112286538 39.0473785 -0.0478851013
v -0.286787778 33.5786896 0.273604661
v -0.0138822133 30.8447132 0.49021408
v -0.336594075 36.3130989 0.10503345
v -0.301956952 36.3130188 -0.00908002071
v -0.196730673 36.3129234 -0.0652956665
v -0.166030899 30.8443966 0.444385737
v 0.0512943529 28.2642403 0.658790112
v -0.352318972 33.5784187 0.150983676
v -0.311926365 33.5782623 0.0178556815
v -0.189283684 33.5783043 -0.0478576645
v -0.241029754 30.8439789 0.304357052
v -0.194923475 30.8437119 0.152186543
v -0.0547521152 30.8437595 0.0770225525
v -0.118704356 28.2641468 0.607655525
v -0.2024571 28.2638721 0.451826662
v -0.150852531 28.263567 0.280979753
v 0.0058497861 28.263422 0.196842507
v 0.00467943819 27.9554882 0.207071036
v -0.121432394 27.9560738 0.623041153
v 0.0506906882 27.9560661 0.67483443
v -0.0053000045 25.3754482 0.753713429
v -0.153988764 27.9556637 0.29226476
v -0.206231385 27.9559078 0.465272546
v -0.195301265 25.3756046 0.696308672
v -0.0838691592 22.6408787 0.710576177
v -0.23130849 25.3756638 0.331180513
v -0.0561664812 25.3755245 0.237342864
v -0.288927138 25.3756962 0.521743834
v -0.292800516 22.6409512 0.647146821
v -0.018383868 19.9066162 0.649398685
v -0.332236737 22.6412754 0.245712414
v -0.139645189 22.6413441 0.142806232
v -0.395659983 22.6411133 0.454664141
v -0.246122435 19.9064388 0.580122948
v 0.108872898 17.326395 0.662971497
v -0.288773179 19.9066067 0.142416283
v -0.0787391514 19.9068508 0.0303663388
v -0.358092606 19.906435 0.370123535
v -0.136773601 17.3261967 0.588307202
v -0.182877138 17.3261795 0.116154619
v 0.0436548032 17.3263683 -0.00473204767
v 0.0531346351 17.0182743 -0.00410037767
v -0.257618427 17.3261089 0.361800313
v -0.128801078 17.0183792 0.594175041
v 0.11900226 17.0184326 0.669454694
v 0.0359841138 14.4378881 0.718419313
v -0.175385103 17.0182629 0.117870376
v -0.250751019 17.0183105 0.365695536
v -0.102139488 14.4380302 0.676483154
v -0.181311443 11.7032957 0.624177217
v -0.21375306 14.4381723 0.58530426
v -0.329300791 11.7034922 0.579151392
v -0.216876239 10.4131079 0.577203155
v -0.281808466 14.4382896 0.458279282
v -0.448859066 11.703702 0.481751114
v -0.36526522 10.4132042 0.532055914
v -0.295966685 14.4383631 0.313987583
v -0.521792114 11.7038937 0.345850736
v -0.406954378 8.82688618 0.483403653
v -0.254582584 8.82687664 0.529769063
v -0.485145658 10.4133234 0.434498578
v -0.530040026 8.8269453 0.383271277
v -0.400642931 8.12747765 0.468222529
v -0.246796608 8.1275959 0.518771112
v -0.52652806 8.12741375 0.363575608
v -0.351041049 7.37129354 0.469013393
v -0.195639715 7.37189007 0.524061143
v -0.479904532 7.37066936 0.359489173
v -0.272651792 6.66714954 0.486118525
v -0.115708694 6.66734409 0.545349658
v -0.404417515 6.66703892 0.372041285
v -0.263112277 6.39556122 0.485644519
v -0.105456807 6.39563417 0.545148194
v -0.39615795 6.39553642 0.371118426
v -0.247050256 6.07430601 0.509543419
v -0.0884025842 6.0744853 0.567707598
v -0.381813496 6.07410669 0.396111697
v -0.233948126 5.80229378 0.523918569
v -0.0742930248 5.80227947 0.578958869
v -0.370594591 5.80234861 0.41320917
v -0.21670194 4.97110653 0.528910816
v -0.053525541 4.97100019 0.568239033
v -0.360396236 4.97117949 0.432114184
v -0.216686532 4.69982719 0.516123533
v -0.0523681529 4.69977427 0.550334752
v -0.362674445 4.69990873 0.423857719
v -0.161205575 3.73220563 0.494438589
v 0.00719279097 3.73227072 0.510345817
v -0.315409601 3.73225951 0.418390274
v -0.114215985 2.83010435 0.457618743
v 0.0498306826 2.82996464 0.470207959
v -0.263033539 2.82986069 0.409859866
v -0.428755015 3.73226237 0.288445801
v -0.465781689 4.69993496 0.2855241
v -0.460656792 4.97122574 0.291438013
v -0.0913622156 2.55969524 0.462102741
v 0.0727949664 2.55953312 0.470181793
v -0.240160435 2.55920243 0.420137048
v -0.0593907237 2.206393 0.482539743
v 0.107054576 2.2052269 0.480790138
v -0.209978521 2.20486164 0.44445464
v -0.341831386 2.56002688 0.309218615
v -0.0396344289 1.9352802 0.488509446
v 0.12942566 1.93393981 0.479659677
v -0.462087721 5.80233765 0.265322834
v -0.375010073 2.82929373 0.302609354
v -0.19580099 1.93419719 0.456195682
v -0.0472335108 1.07414567 0.476654887
v 0.0950297937 1.07412779 0.46637392
v -0.0356647559 0.716957986 0.493424147
v 0.128814593 0.736805737 0.475820899
v 0.150868297 0.488578171 0.480628699
v -0.190954164 1.07406127 0.425916284
v 0.00287481141 0.469881266 0.507566273
v -0.132615075 0.434128344 0.490106523
v 0.163106844 0.318354785 0.487167954
v 0.00925073214 0.304296494 0.532651603
v 0.230630264 -0.145635754 0.779789805
v -0.201819152 0.623241544 0.441439837
v -0.34354189 1.07443321 0.285929948
v -0.0294151735 -0.169964373 0.856752098
v 0.315420091 -0.587064326 1.14615333
v -0.0774100497 -0.623934507 1.26245224
v -0.119965799 0.260222375 0.536104381
v -0.2468189 -0.245389804 0.86291641
v -0.40522778 -0.738144875 1.2720089
v -0.263033211 0.190527722 0.452277362
v -0.487846673 -0.363328785 0.721660078
v -0.768974721 -0.91641289 1.05891669
v -0.341699809 0.582090139 0.320708573
v -0.278496265 0.372641623 0.401119232
v -0.372670591 0.173488989 0.29218474
v -0.672973514 -0.391616017 0.450921595
v -1.04880846 -0.959129333 0.649594307
v -0.811786532 -0.353715956 0.149717435
v -1.25861406 -0.901892841 0.194560274
v -0.361812919 0.358929574 0.288261831
v -0.454819083 0.195793569 0.113916539
v -0.443722755 0.357903481 0.110503115
v -0.786749661 -0.368155807 -0.272566646
v -1.22075033 -0.923777163 -0.443366468
v -0.42838493 0.581872106 0.124740787
v -0.430700928 0.361194223 -0.125628158
v -0.440016359 0.187383965 -0.136073411
v -0.667848647 -0.32235083 -0.536266983
v -1.04116023 -0.854553342 -0.84164691
v -0.369635791 0.214308962 -0.292345822
v -0.41546008 -0.301614046 -0.793913424
v -0.660072625 -0.823277771 -1.23074698
v -0.220020607 0.226744264 -0.444959223
v -0.155758426 -0.31659627 -0.877843142
v -0.268118083 -0.845922828 -1.35739183
v -0.0657887757 0.218146071 -0.494668156
v -0.0765269548 0.414354742 -0.462051928
v -0.357466698 0.373883516 -0.288648576
v -0.227038935 0.405553609 -0.414662421
v -0.412029147 0.611871243 -0.085154973
v -0.230802625 0.691666007 -0.371471047
v -0.0878158063 0.728806496 -0.440132409
v -0.0882820189 1.07441294 -0.413021803
v -0.342891634 0.651820719 -0.248911247
v -0.409485936 1.07440889 0.144457951
v -0.416894585 1.07417047 -0.0243166033
v -0.347334594 1.07432675 -0.215627968
v -0.224360764 1.07451606 -0.340332508
v -0.257519215 1.93324506 0.313802481
v -0.345334947 1.9360714 0.162296996
v -0.283014774 2.20149326 0.315070331
v -0.189447224 1.93501019 -0.317175061
v -0.0509898737 1.93663049 -0.405593187
v -0.394017845 1.93386149 -0.0102542602
v -0.319919616 1.93633544 -0.191257879
v -0.404181838 2.55945706 0.144293815
v -0.362081587 2.20583653 0.160659924
v -0.194436133 2.20578265 -0.325776666
v -0.0483910702 2.20830321 -0.40192005
v -0.0442966446 2.55891323 -0.409926355
v -0.396272868 2.20493555 -0.0159488395
v -0.320885092 2.20741463 -0.193256617
v -0.431002229 2.82993126 0.133661419
v -0.409182668 2.55809402 -0.0421238542
v -0.202536061 2.5582459 -0.340666533
v -0.333094805 2.55841947 -0.210294813
v -0.212827697 2.83031464 -0.345185935
v -0.0488946177 2.83098841 -0.40951556
v -0.0665313825 3.73291087 -0.371934056
v -0.423532903 2.82967043 -0.0544394925
v -0.346061826 2.83035588 -0.217975914
v -0.237140074 3.73271608 -0.32290104
v -0.0695735291 4.69990826 -0.329222888
v -0.377628118 3.73249936 -0.211174861
v -0.463012606 3.73234439 -0.0551258214
v -0.239876091 4.6998601 -0.293068796
v -0.480363429 3.73224854 0.11997807
v -0.506183565 4.69990015 0.116587341
v -0.478420973 4.69984913 -0.0516953282
v -0.497944832 4.97129107 0.122366615
v -0.385733455 4.69983101 -0.194703326
v -0.225167215 4.97158909 -0.277998507
v -0.0549271703 4.97159433 -0.310523927
v -0.0271579884 5.8021512 -0.297359109
v -0.467279196 4.97139406 -0.0440194532
v -0.372542053 4.97151804 -0.183382645
v -0.489756048 5.80225611 0.0958776176
v -0.197150022 5.80210876 -0.275915384
v -0.349125713 5.80208921 -0.192789927
v -0.200532228 6.07344246 -0.287298679
v -0.0310972724 6.07359743 -0.306411654
v -0.471134663 6.07386589 0.247005761
v -0.45013842 5.80215645 -0.0646443516
v -0.352984637 6.07338381 -0.20674257
v -0.211077556 6.39535522 -0.306902319
v -0.0428538695 6.39537096 -0.324755728
v -0.483732581 6.39550161 0.221888289
v -0.496676922 6.0736289 0.0779027715
v -0.455155253 6.07345057 -0.0811086223
v -0.362900347 6.39537382 -0.228003189
v -0.217120662 6.66723013 -0.302212387
v -0.049934838 6.66737461 -0.319436133
v -0.125120014 7.37098551 -0.323702812
v -0.507964551 6.39544296 0.0537269488
v -0.465397149 6.39540291 -0.103980578
v -0.368036032 6.66712618 -0.224191502
v -0.289421946 7.37049246 -0.306956708
v -0.490557671 6.66698885 0.223355785
v -0.513775289 6.66698217 0.0560654104
v -0.470585197 6.66703272 -0.100839354
v -0.562374771 7.37015676 0.213701651
v -0.583077133 7.36987162 0.0488316603
v -0.605180979 8.12742901 0.220884398
v -0.436872602 7.3700161 -0.229939938
v -0.538897932 7.36983442 -0.106678598
v -0.623255551 8.12747765 0.0586132035
v -0.605116248 8.82705593 0.243444338
v -0.578024268 8.12755394 -0.0954198837
v -0.476522028 8.12764835 -0.218592048
v -0.6207304 8.82718086 0.083604604
v -0.558275163 10.4134521 0.298297167
v -0.574517012 8.8272934 -0.0690542981
v -0.536983073 11.7040339 0.190823764
v -0.573498666 10.4135656 0.142699435
v -0.473504871 8.82736492 -0.192146882
v -0.332704663 8.1277113 -0.294517159
v -0.171418563 8.12777424 -0.310726106
v -0.174605429 8.8273983 -0.282787025
v -0.333077341 8.8273983 -0.267072529
v -0.254067481 14.4383821 0.175726652
v -0.528494477 10.4136486 -0.00595345767
v -0.492103249 11.7041073 0.042609401
v -0.162467077 14.438343 0.0641053393
v -0.293360502 10.4136782 -0.198786318
v -0.139014453 10.41362 -0.214079276
v -0.103671566 11.703867 -0.164958
v -0.430120319 10.4136877 -0.125822499
v -0.394000441 11.7041016 -0.0769310594
v -0.0351610519 14.4382515 -0.00388607266
v 0.108534046 14.4381218 -0.0180895589
v -0.257614881 11.7040167 -0.149711087
v -0.0767256841 44.5201569 0.16223076
v -0.00755368033 44.520237 0.0779695809
v -0.0595848113 44.5202141 0.105773009
v 0.0767250285 44.5201645 0.147117257
v 0.0489005595 44.5202179 0.095089592
v 0.00755962823 44.5200806 0.231418312
v -0.0489178784 44.5200958 0.214281648
v 0.0596074052 44.5201073 0.203591645
vt 0.805061936 11.1097488
vt 0.758912742 9.14352798
vt 0.758912742 11.1097488
vt 0.805061936 9.14352798
vt 0.758912742 7.69287491
vt 0.867228508 11.1097488
vt 0.805061936 7.69287491
vt 0.758912742 6.31824684
vt 0.867228508 9.14352798
vt 0.929395258 11.1097488
vt 0.805061936 6.31824684
vt 0.758912742 5.23333263
vt 0.929395258 9.14352798
vt 0.987676322 11.1097488
vt 0.987676322 9.14352703
vt 0.867228508 7.69287491
vt 0.929395258 7.69287491
vt 0.987676322 7.69287491
vt 0.805061936 5.23333263
vt 0.758912742 4.25946331
vt 0.867228508 6.31824684
vt 0.929395258 6.31824684
vt 0.987676322 6.31824684
vt 0.805061936 4.25946331
vt 0.758912742 3.41135716
vt 0.867228508 5.23333263
vt 0.929395258 5.23333263
vt 0.987676322 5.23333263
vt 0.867228508 4.25946331
vt 0.929395258 4.25946331
vt 0.987676322 4.25946331
vt 0.805061936 3.4113462
vt 0.867228508 3.41134048
vt 0.929395258 3.41134739
vt 0.987676322 3.41136265
vt 0.987676322 3.30190063
vt 0.805061936 3.30190063
vt 0.758912742 3.30190063
vt 0.758912742 2.50042462
vt 0.867228508 3.30190063
vt 0.929395258 3.30190063
vt 0.805061936 2.50042462
vt 0.758912742 1.8084898
vt 0.929395258 2.50042462
vt 0.987676322 2.50042462
vt 0.867228508 2.50042462
vt 0.805061936 1.8084898
vt 0.758912742 1.13606954
vt 0.929395258 1.8084898
vt 0.987676322 1.8084898
vt 0.867228508 1.8084898
vt 0.805061936 1.13606954
vt 0.758912742 0.576655149
vt 0.929395258 1.13606954
vt 0.987676322 1.13606954
vt 0.867228508 1.13606954
vt 0.805061936 0.576648176
vt 0.929395258 0.57663554
vt 0.987676322 0.576638401
vt 0.987676322 0.504377484
vt 0.867228508 0.576639354
vt 0.805061936 0.504377484
vt 0.758912742 0.504377484
vt 0.758912742 -0.0214889646
vt 0.929395258 0.504377484
vt 0.867228508 0.504377484
vt 0.789520264 -0.0214889646
vt 0.758912742 -0.508419156
vt 0.820603549 -0.0214889646
vt 0.789520264 -0.508419156
vt 0.789520264 -0.74424994
vt 0.758912742 -0.744252264
vt 0.789520264 -1.0383997
vt 0.758912742 -1.0383997
vt 0.758912742 -1.16356015
vt 0.851686835 -0.0214889646
vt 0.820603549 -0.508419156
vt 0.820603549 -0.744247556
vt 0.820603549 -1.0383997
vt 0.789520264 -1.16355848
vt 0.882770181 -0.0214889646
vt 0.851686835 -0.508419156
vt 0.851686835 -0.744245231
vt 0.851686835 -1.0383997
vt 0.882770181 -0.508419156
vt 0.913853645 -0.0214889646
vt 0.944936872 -0.0214889646
vt 0.913853645 -0.508419156
vt 0.882770181 -0.744243503
vt 0.976020038 -0.0214889646
vt 0.999332607 -0.0214889646
vt 0.944936872 -0.508419156
vt 0.976020038 -0.508419156
vt 0.999332607 -0.508419394
vt 0.913853645 -0.744242549
vt 0.882770181 -1.0383997
vt 0.944936872 -0.744242549
vt 0.976020038 -0.744243443
vt 0.999332607 -0.744244814
vt 0.999332607 -1.0383997
vt 0.976020038 -1.0383997
vt 0.999332607 -1.16353428
vt 0.913853645 -1.0383997
vt 0.944936872 -1.0383997
vt 0.976020038 -1.16354084
vt 0.999332607 -1.29875755
vt 0.944936872 -1.16355705
vt 0.976020038 -1.29874849
vt 0.999332607 -1.42482078
vt 0.976020038 -1.42482889
vt 0.999332607 -1.47307539
vt 0.944936872 -1.29872477
vt 0.913853645 -1.16357327
vt 0.882770181 -1.16356409
vt 0.976020038 -1.47308254
vt 0.999332607 -1.52963376
vt 0.944936872 -1.4248414
vt 0.913853645 -1.29869211
vt 0.851686835 -1.16354942
vt 0.976020038 -1.5296334
vt 0.999332607 -1.57729542
vt 0.944936872 -1.47308755
vt 0.913853645 -1.42485249
vt 0.882770181 -1.29874849
vt 0.820603549 -1.16355157
vt 0.976020038 -1.57729578
vt 0.999332607 -1.72232795
vt 0.944936872 -1.52963662
vt 0.913853645 -1.47308755
vt 0.851686835 -1.29887772
vt 0.820603549 -1.29896665
vt 0.976020038 -1.72232747
vt 0.999332607 -1.76965022
vt 0.882770181 -1.42485046
vt 0.944936872 -1.57730126
vt 0.851686835 -1.42484117
vt 0.976020038 -1.76965725
vt 0.999332607 -1.93855667
vt 0.913853645 -1.52964246
vt 0.882770181 -1.4730854
vt 0.820603549 -1.42483473
vt 0.944936872 -1.72232211
vt 0.976020038 -1.93855667
vt 0.999332607 -2.10108757
vt 0.913853645 -1.57729959
vt 0.882770181 -1.52964759
vt 0.851686835 -1.47308207
vt 0.944936872 -1.76969278
vt 0.976020038 -2.10115719
vt 0.999332607 -2.1498425
vt 0.913853645 -1.72232378
vt 0.882770181 -1.57729149
vt 0.851686835 -1.52965045
vt 0.820603549 -1.47307813
vt 0.944936872 -1.93855667
vt 0.976020038 -2.14984226
vt 0.999332607 -2.21350384
vt 0.913853645 -1.76973462
vt 0.882770181 -1.72233176
vt 0.789520264 -1.42483115
vt 0.944936872 -2.10124516
vt 0.976020038 -2.21350384
vt 0.999332607 -2.2570672
vt 0.944936872 -2.14983177
vt 0.913853645 -2.10138345
vt 0.913853645 -1.93855667
vt 0.976020038 -2.25706506
vt 0.999332607 -2.35883117
vt 0.789520264 -1.29895759
vt 0.758912742 -1.29893613
vt 0.758912742 -1.42482471
vt 0.789520264 -1.47306967
vt 0.758912742 -1.47305465
vt 0.789520264 -1.52965164
vt 0.758912742 -1.52965808
vt 0.820603549 -1.52965009
vt 0.789520264 -1.57729483
vt 0.758912742 -1.57728672
vt 0.758912742 -1.72233677
vt 0.851686835 -1.57729161
vt 0.820603549 -1.57729638
vt 0.789520264 -1.72232842
vt 0.851686835 -1.72233176
vt 0.820603549 -1.72232699
vt 0.789520264 -1.76976442
vt 0.758912742 -1.76978278
vt 0.758912742 -1.93855667
vt 0.882770181 -1.76974988
vt 0.820603549 -1.76974511
vt 0.789520264 -1.93855667
vt 0.758912742 -2.10103607
vt 0.851686835 -1.76974463
vt 0.882770181 -1.93855667
vt 0.820603549 -1.93855667
vt 0.789520264 -2.1010294
vt 0.851686835 -1.93855667
vt 0.882770181 -2.10139132
vt 0.820603549 -2.10110092
vt 0.851686835 -2.10118175
vt 0.789520264 -2.14997435
vt 0.758912742 -2.15004301
vt 0.758912742 -2.21330309
vt 0.913853645 -2.14988422
vt 0.820603549 -2.14999413
vt 0.851686835 -2.14991999
vt 0.882770181 -2.14988208
vt 0.789520264 -2.21337175
vt 0.820603549 -2.2133522
vt 0.851686835 -2.21342611
vt 0.882770181 -2.21346402
vt 0.913853645 -2.21346188
vt 0.789520264 -2.25704241
vt 0.758912742 -2.25701952
vt 0.820603549 -2.25702262
vt 0.851686835 -2.25702119
vt 0.882770181 -2.2569294
vt 0.789520264 -2.35883522
vt 0.758912742 -2.3588295
vt 0.820603549 -2.35885096
vt 0.790850997 -2.40569234
vt 0.758248925 -2.40531445
vt 0.758944571 -2.45442486
vt 0.851686835 -2.35885715
vt 0.824030459 -2.4040451
vt 0.793137372 -2.44805264
vt 0.803380787 -2.47114182
vt 0.758944571 -2.48146391
vt 0.758944571 -2.48146391
vt 0.825631678 -2.4435873
vt 0.803380787 -2.47114182
vt 0.758944571 -2.48146391
vt 0.803380787 -2.47114182
vt 0.833448887 -2.46640539
vt 0.833448887 -2.46640539
vt 0.833448887 -2.46640539
vt 0.85536015 -2.40345359
vt 0.858506799 -2.44180751
vt 0.895711184 -2.44523406
vt 0.862134576 -2.46472168
vt 0.862134576 -2.46472168
vt 0.862134576 -2.46472168
vt 0.889933527 -2.40336895
vt 0.89333111 -2.46690845
vt 0.89333111 -2.46690845
vt 0.89333111 -2.46690845
vt 0.913888693 -2.47268319
vt 0.913888693 -2.47268319
vt 0.913888693 -2.47268319
vt 0.926228642 -2.46445012
vt 0.926228642 -2.46445012
vt 0.926228642 -2.46445012
vt 0.920970619 -2.43774652
vt 0.951105535 -2.46162653
vt 0.951105535 -2.46162653
vt 0.951105535 -2.46162653
vt 0.974458933 -2.46328688
vt 0.974458933 -2.46328688
vt 0.974458933 -2.46328688
vt 0.999332607 -2.46653581
vt 0.999332607 -2.46653581
vt 0.999332607 -2.46653581
vt 0.949322164 -2.43712354
vt 0.975206733 -2.43921733
vt 0.999332607 -2.44300818
vt 0.976788342 -2.40483475
vt 0.999332607 -2.40726686
vt 0.948320866 -2.40370512
vt 0.976020038 -2.35885525
vt 0.91925925 -2.40336728
vt 0.944936872 -2.35886526
vt 0.944936872 -2.25707579
vt 0.913853645 -2.35885429
vt 0.944936872 -2.21351433
vt 0.913853645 -2.25703192
vt 0.882770181 -2.35885143
vt 1.80506217 11.1097507
vt 1.7589128 9.14352608
vt 1.7589128 11.1097498
vt 1.80506217 9.14352608
vt 1.7589128 7.69287491
vt 1.86722851 11.1097507
vt 1.80506217 7.69287491
vt 1.7589128 6.31824684
vt 1.86722851 9.14352608
vt 1.92939508 11.1097507
vt 1.80506217 6.31824684
vt 1.7589128 5.23333263
vt 1.92939508 9.14352608
vt 1.98767638 11.1097507
vt 1.98767638 9.14352608
vt 1.86722851 7.69287491
vt 1.92939508 7.69287491
vt 1.98767638 7.69287491
vt 1.80506217 5.23333263
vt 1.7589128 4.25946331
vt 1.86722851 6.31824684
vt 1.92939508 6.31824684
vt 1.98767638 6.31824684
vt 1.80506217 4.25946331
vt 1.7589128 3.41136813
vt 1.86722851 5.23333263
vt 1.92939508 5.23333263
vt 1.98767638 5.23333263
vt 1.86722851 4.25946331
vt 1.92939508 4.25946331
vt 1.98767638 4.25946331
vt 1.80506217 3.41137886
vt 1.86722851 3.41138482
vt 1.92939508 3.41137743
vt 1.98767638 3.41136265
vt 1.98767638 3.30190063
vt 1.80506217 3.30190063
vt 1.7589128 3.30190063
vt 1.7589128 2.50042462
vt 1.92939508 3.30190063
vt 1.86722851 3.30190063
vt 1.80506217 2.50042462
vt 1.7589128 1.80848968
vt 1.92939508 2.50042462
vt 1.98767638 2.50042462
vt 1.86722851 2.50042462
vt 1.80506217 1.80848956
vt 1.7589128 1.13606954
vt 1.92939508 1.80848956
vt 1.98767638 1.80848956
vt 1.86722851 1.80848956
vt 1.80506217 1.13606954
vt 1.7589128 0.576640487
vt 1.92939508 1.13606954
vt 1.98767638 1.13606954
vt 1.86722851 1.13606954
vt 1.80506217 0.57664752
vt 1.92939508 0.576660216
vt 1.98767638 0.576657176
vt 1.98767638 0.504377484
vt 1.86722851 0.576656401
vt 1.80506217 0.504377484
vt 1.7589128 0.504377484
vt 1.7589128 -0.0214889646
vt 1.92939508 0.504377484
vt 1.86722851 0.504377484
vt 1.7895205 -0.0214889646
vt 1.7589128 -0.508419514
vt 1.82060385 -0.0214889646
vt 1.7895205 -0.508419633
vt 1.7589128 -0.74424541
vt 1.85168707 -0.0214889646
vt 1.82060385 -0.508419633
vt 1.7895205 -0.744247794
vt 1.88277006 -0.0214889646
vt 1.85168707 -0.508419633
vt 1.7895205 -1.0383997
vt 1.7589128 -1.0383997
vt 1.82060385 -0.744250178
vt 1.82060385 -1.0383997
vt 1.7895205 -1.1635251
vt 1.7589128 -1.16353226
vt 1.82060385 -1.16352248
vt 1.7895205 -1.29881203
vt 1.7589128 -1.29876423
vt 1.82060385 -1.29888403
vt 1.7895205 -1.42480683
vt 1.7589128 -1.42481804
vt 1.82060385 -1.42479742
vt 1.7895205 -1.47305894
vt 1.7589128 -1.47307253
vt 1.82060385 -1.47304308
vt 1.7895205 -1.52963948
vt 1.7589128 -1.52963448
vt 1.82060385 -1.52964854
vt 1.7895205 -1.57729089
vt 1.7589128 -1.57729542
vt 1.82060385 -1.57727826
vt 1.7895205 -1.72233248
vt 1.7589128 -1.72232795
vt 1.82060385 -1.72234511
vt 1.7895205 -1.76965714
vt 1.7589128 -1.76965117
vt 1.82060385 -1.76966476
vt 1.7895205 -1.93855667
vt 1.7589128 -1.93855667
vt 1.82060385 -1.93855667
vt 1.7895205 -2.10107803
vt 1.7589128 -2.10108256
vt 1.82060385 -2.10106897
vt 1.85168707 -1.93855667
vt 1.85168707 -1.76967931
vt 1.85168707 -1.72235572
vt 1.7895205 -2.14985228
vt 1.7589128 -2.14981389
vt 1.82060385 -2.14981055
vt 1.7895205 -2.21349382
vt 1.7589128 -2.21353245
vt 1.82060385 -2.21353579
vt 1.85168707 -2.14945316
vt 1.7895205 -2.25703955
vt 1.7589128 -2.25708485
vt 1.85168707 -1.57726765
vt 1.85168707 -2.10107994
vt 1.82060385 -2.25702572
vt 1.7895205 -2.35884309
vt 1.7589128 -2.35883141
vt 1.78739822 -2.40188122
vt 1.7589128 -2.40349913
vt 1.7589128 -2.4337492
vt 1.82060385 -2.3588419
vt 1.78319883 -2.43203402
vt 1.80563068 -2.43489909
vt 1.7589128 -2.45261383
vt 1.78277779 -2.45203233
vt 1.7589128 -2.45261383
vt 1.81906748 -2.41160178
vt 1.85168707 -2.35876369
vt 1.78277779 -2.45203233
vt 1.7589128 -2.45261383
vt 1.78277779 -2.45203233
vt 1.80201352 -2.45587611
vt 1.80201352 -2.45587611
vt 1.80201352 -2.45587611
vt 1.82630873 -2.4637239
vt 1.82630873 -2.4637239
vt 1.82630873 -2.4637239
vt 1.84831488 -2.41674113
vt 1.83276522 -2.44161701
vt 1.85489702 -2.46575212
vt 1.85489702 -2.46575212
vt 1.85489702 -2.46575212
vt 1.88428569 -2.46344757
vt 1.88428569 -2.46344757
vt 1.8547802 -2.44328141
vt 1.88428569 -2.46344757
vt 1.88486564 -2.44340706
vt 1.92137277 -2.46452284
vt 1.92137277 -2.46452284
vt 1.88336623 -2.41644096
vt 1.9209764 -2.44334912
vt 1.92137277 -2.46452284
vt 1.94630897 -2.4618628
vt 1.94630897 -2.4618628
vt 1.94630897 -2.4618628
vt 1.97687232 -2.46097732
vt 1.97687232 -2.46097732
vt 1.97687232 -2.46097732
vt 1.9994489 -2.46609879
vt 1.9994489 -2.46609879
vt 1.9994489 -2.46609879
vt 1.9994489 -2.44482207
vt 1.94843757 -2.44252181
vt 1.97616947 -2.44052958
vt 1.91686463 -2.41326523
vt 1.97719657 -2.40611172
vt 1.99959064 -2.40548325
vt 1.99939394 -2.35883665
vt 1.95099187 -2.40919662
vt 1.88277006 -2.3588295
vt 1.91385341 -2.35882545
vt 1.94493675 -2.35884476
vt 1.9760201 -2.35883999
vt 1.85168707 -2.2571106
vt 1.88277006 -2.25703859
vt 1.85168707 -2.21389294
vt 1.9760201 -2.25698948
vt 1.99933267 -2.25706482
vt 1.91385341 -2.25707531
vt 1.94493675 -2.2570014
vt 1.88277006 -2.14976978
vt 1.88277006 -2.21357656
vt 1.9760201 -2.21337938
vt 1.99933267 -2.2133503
vt 1.99933267 -2.1499958
vt 1.91385341 -2.2134428
vt 1.94493675 -2.21333647
vt 1.88277006 -2.10105538
vt 1.91385341 -2.14990354
vt 1.9760201 -2.14996672
vt 1.94493675 -2.15000987
vt 1.9760201 -2.10103226
vt 1.99933267 -2.10105014
vt 1.99933267 -1.93855667
vt 1.91385341 -2.10104585
vt 1.94493675 -2.1010232
vt 1.9760201 -1.93855667
vt 1.99933267 -1.76978493
vt 1.94493675 -1.93855667
vt 1.91385341 -1.93855667
vt 1.9760201 -1.76978052
vt 1.88277006 -1.93855667
vt 1.88277006 -1.76970482
vt 1.91385341 -1.76973605
vt 1.88277006 -1.72235799
vt 1.94493675 -1.76976359
vt 1.9760201 -1.72233975
vt 1.99933267 -1.72233856
vt 1.99933267 -1.57728481
vt 1.91385341 -1.72235274
vt 1.94493675 -1.72234321
vt 1.88277006 -1.57726526
vt 1.9760201 -1.57728362
vt 1.94493675 -1.57728016
vt 1.9760201 -1.52966464
vt 1.99933267 -1.52965987
vt 1.85168707 -1.52965736
vt 1.91385341 -1.57727063
vt 1.94493675 -1.52966857
vt 1.9760201 -1.47303927
vt 1.99933267 -1.47305071
vt 1.85168707 -1.47303009
vt 1.88277006 -1.52966309
vt 1.91385341 -1.52966762
vt 1.94493675 -1.47302723
vt 1.9760201 -1.42481279
vt 1.99933267 -1.42482245
vt 1.99933267 -1.29893661
vt 1.88277006 -1.47302389
vt 1.91385341 -1.47302222
vt 1.94493675 -1.42480135
vt 1.9760201 -1.29897702
vt 1.85168707 -1.42479157
vt 1.88277006 -1.42479134
vt 1.91385341 -1.42479491
vt 1.85168707 -1.29895687
vt 1.88277006 -1.29900718
vt 1.85168707 -1.16352415
vt 1.94493675 -1.29902482
vt 1.91385341 -1.29902959
vt 1.88277006 -1.16353095
vt 1.85168707 -1.0383997
vt 1.91385341 -1.16353774
vt 1.94493675 -1.16354156
vt 1.88277006 -1.0383997
vt 1.85168707 -0.744252443
vt 1.91385341 -1.0383997
vt 1.88277006 -0.508419633
vt 1.88277006 -0.744254231
vt 1.94493675 -1.0383997
vt 1.9760201 -1.16355038
vt 1.99933267 -1.16355908
vt 1.99933267 -1.0383997
vt 1.9760201 -1.0383997
vt 1.91385341 -0.0214889646
vt 1.91385341 -0.744255185
vt 1.91385341 -0.508419633
vt 1.94493675 -0.0214889646
vt 1.9760201 -0.744254231
vt 1.99933267 -0.744253159
vt 1.99933267 -0.508419633
vt 1.94493675 -0.744255185
vt 1.94493675 -0.508419633
vt 1.9760201 -0.0214889646
vt 1.99933267 -0.0214889646
vt 1.9760201 -0.508419633
vt 0.528510451 4.15500021
vt 0.619892836 4.15500021
vt 0.58984375 4.15500021
vt 0.538898766 4.15500021
vt 0.611486495 4.15500021
vt 0.381232947 4.15500021
vt 0.388513505 4.15500021
vt 0.443524569 4.15500021
g submesh0
f 1/1 2/2 3/3
f 2/2 1/1 4/4
f 4/4 5/5 2/2
f 6/6 4/4 1/1
f 5/5 4/4 7/7
f 7/7 8/8 5/5
f 4/4 6/6 9/9
f 9/9 7/7 4/4
f 10/10 9/9 6/6
f 8/8 7/7 11/11
f 11/11 12/12 8/8
f 9/9 10/10 13/13
f 14/14 13/13 10/10
f 13/13 14/14 15/15
f 7/7 9/9 16/16
f 13/13 16/16 9/9
f 16/16 11/11 7/7
f 15/15 17/17 13/13
f 16/16 13/13 17/17
f 17/17 15/15 18/18
f 12/12 11/11 19/19
f 19/19 20/20 12/12
f 11/11 16/16 21/21
f 17/17 21/21 16/16
f 21/21 19/19 11/11
f 18/18 22/22 17/17
f 21/21 17/17 22/22
f 22/22 18/18 23/23
f 20/20 19/19 24/24
f 24/24 25/25 20/20
f 19/19 21/21 26/26
f 22/22 26/26 21/21
f 26/26 24/24 19/19
f 23/23 27/27 22/22
f 26/26 22/22 27/27
f 27/27 23/23 28/28
f 24/24 26/26 29/29
f 27/27 29/29 26/26
f 28/28 30/30 27/27
f 29/29 27/27 30/30
f 30/30 28/28 31/31
f 25/25 24/24 32/32
f 29/29 32/32 24/24
f 30/30 33/33 29/29
f 32/32 29/29 33/33
f 31/31 34/34 30/30
f 33/33 30/30 34/34
f 34/34 31/31 35/35
f 36/36 34/34 35/35
f 37/37 25/25 32/32
f 25/25 37/37 38/38
f 37/37 39/39 38/38
f 40/40 32/32 33/33
f 32/32 40/40 37/37
f 41/41 33/33 34/34
f 34/34 36/36 41/41
f 33/33 41/41 40/40
f 39/39 37/37 42/42
f 40/40 42/42 37/37
f 42/42 43/43 39/39
f 36/36 44/44 41/41
f 44/44 36/36 45/45
f 41/41 46/46 40/40
f 42/42 40/40 46/46
f 46/46 41/41 44/44
f 43/43 42/42 47/47
f 46/46 47/47 42/42
f 47/47 48/48 43/43
f 45/45 49/49 44/44
f 49/49 45/45 50/50
f 44/44 51/51 46/46
f 47/47 46/46 51/51
f 51/51 44/44 49/49
f 48/48 47/47 52/52
f 51/51 52/52 47/47
f 52/52 53/53 48/48
f 50/50 54/54 49/49
f 54/54 50/50 55/55
f 49/49 56/56 51/51
f 52/52 51/51 56/56
f 56/56 49/49 54/54
f 53/53 52/52 57/57
f 56/56 57/57 52/52
f 55/55 58/58 54/54
f 58/58 55/55 59/59
f 60/60 58/58 59/59
f 54/54 61/61 56/56
f 61/61 54/54 58/58
f 57/57 56/56 61/61
f 62/62 53/53 57/57
f 53/53 62/62 63/63
f 62/62 64/64 63/63
f 65/65 61/61 58/58
f 58/58 60/60 65/65
f 66/66 57/57 61/61
f 57/57 66/66 62/62
f 61/61 65/65 66/66
f 64/64 62/62 67/67
f 67/67 68/68 64/64
f 67/67 62/62 69/69
f 66/66 69/69 62/62
f 68/68 67/67 70/70
f 69/69 70/70 67/67
f 71/71 68/68 70/70
f 68/68 71/71 72/72
f 73/73 72/72 71/71
f 72/72 73/73 74/74
f 73/73 75/75 74/74
f 69/69 66/66 76/76
f 70/70 69/69 77/77
f 76/76 77/77 69/69
f 70/70 78/78 71/71
f 78/78 70/70 77/77
f 71/71 79/79 73/73
f 79/79 71/71 78/78
f 75/75 73/73 80/80
f 79/79 80/80 73/73
f 76/76 66/66 81/81
f 65/65 81/81 66/66
f 77/77 76/76 82/82
f 81/81 82/82 76/76
f 77/77 83/83 78/78
f 83/83 77/77 82/82
f 78/78 84/84 79/79
f 84/84 78/78 83/83
f 82/82 81/81 85/85
f 85/85 83/83 82/82
f 81/81 65/65 86/86
f 86/86 85/85 81/81
f 86/86 65/65 87/87
f 60/60 87/87 65/65
f 85/85 86/86 88/88
f 87/87 88/88 86/86
f 83/83 85/85 89/89
f 88/88 89/89 85/85
f 87/87 60/60 90/90
f 90/90 60/60 91/91
f 88/88 87/87 92/92
f 90/90 92/92 87/87
f 91/91 93/93 90/90
f 92/92 90/90 93/93
f 93/93 91/91 94/94
f 92/92 95/95 88/88
f 89/89 88/88 95/95
f 96/96 83/83 89/89
f 83/83 96/96 84/84
f 93/93 97/97 92/92
f 95/95 92/92 97/97
f 94/94 98/98 93/93
f 97/97 93/93 98/98
f 98/98 94/94 99/99
f 100/100 98/98 99/99
f 98/98 100/100 101/101
f 101/101 97/97 98/98
f 102/102 101/101 100/100
f 103/103 89/89 95/95
f 89/89 103/103 96/96
f 104/104 95/95 97/97
f 97/97 101/101 104/104
f 95/95 104/104 103/103
f 101/101 102/102 105/105
f 105/105 104/104 101/101
f 106/106 105/105 102/102
f 104/104 105/105 107/107
f 107/107 103/103 104/104
f 105/105 106/106 108/108
f 108/108 107/107 105/105
f 109/109 108/108 106/106
f 108/108 109/109 110/110
f 111/111 110/110 109/109
f 107/107 108/108 112/112
f 110/110 112/112 108/108
f 103/103 107/107 113/113
f 112/112 113/113 107/107
f 103/103 114/114 96/96
f 114/114 103/103 113/113
f 110/110 111/111 115/115
f 116/116 115/115 111/111
f 112/112 110/110 117/117
f 115/115 117/117 110/110
f 113/113 112/112 118/118
f 118/118 114/114 113/113
f 117/117 118/118 112/112
f 119/119 96/96 114/114
f 96/96 119/119 84/84
f 115/115 116/116 120/120
f 121/121 120/120 116/116
f 117/117 115/115 122/122
f 120/120 122/122 115/115
f 118/118 117/117 123/123
f 122/122 123/123 117/117
f 114/114 118/118 124/124
f 124/124 119/119 114/114
f 123/123 124/124 118/118
f 125/125 84/84 119/119
f 84/84 125/125 79/79
f 80/80 79/79 125/125
f 120/120 121/121 126/126
f 127/127 126/126 121/121
f 122/122 120/120 128/128
f 126/126 128/128 120/120
f 123/123 122/122 129/129
f 128/128 129/129 122/122
f 130/130 125/125 119/119
f 119/119 124/124 130/130
f 131/131 80/80 125/125
f 125/125 130/130 131/131
f 126/126 127/127 132/132
f 133/133 132/132 127/127
f 124/124 123/123 134/134
f 129/129 134/134 123/123
f 128/128 126/126 135/135
f 132/132 135/135 126/126
f 124/124 136/136 130/130
f 136/136 124/124 134/134
f 132/132 133/133 137/137
f 138/138 137/137 133/133
f 129/129 128/128 139/139
f 135/135 139/139 128/128
f 134/134 129/129 140/140
f 140/140 136/136 134/134
f 139/139 140/140 129/129
f 141/141 130/130 136/136
f 130/130 141/141 131/131
f 135/135 132/132 142/142
f 137/137 142/142 132/132
f 137/137 138/138 143/143
f 144/144 143/143 138/138
f 139/139 135/135 145/145
f 142/142 145/145 135/135
f 140/140 139/139 146/146
f 145/145 146/146 139/139
f 136/136 140/140 147/147
f 147/147 141/141 136/136
f 146/146 147/147 140/140
f 142/142 137/137 148/148
f 143/143 148/148 137/137
f 143/143 144/144 149/149
f 150/150 149/149 144/144
f 145/145 142/142 151/151
f 148/148 151/151 142/142
f 146/146 145/145 152/152
f 151/151 152/152 145/145
f 147/147 146/146 153/153
f 152/152 153/153 146/146
f 141/141 147/147 154/154
f 153/153 154/154 147/147
f 148/148 143/143 155/155
f 149/149 155/155 143/143
f 149/149 150/150 156/156
f 157/157 156/156 150/150
f 151/151 148/148 158/158
f 155/155 158/158 148/148
f 152/152 151/151 159/159
f 158/158 159/159 151/151
f 154/154 160/160 141/141
f 160/160 131/131 141/141
f 155/155 149/149 161/161
f 156/156 161/161 149/149
f 156/156 157/157 162/162
f 163/163 162/162 157/157
f 161/161 156/156 164/164
f 162/162 164/164 156/156
f 165/165 155/155 161/161
f 164/164 165/165 161/161
f 158/158 155/155 166/166
f 155/155 165/165 166/166
f 162/162 163/163 167/167
f 168/168 167/167 163/163
f 131/131 160/160 169/169
f 80/80 131/131 169/169
f 169/169 75/75 80/80
f 75/75 169/169 170/170
f 169/169 171/171 170/170
f 171/171 169/169 160/160
f 172/172 171/171 160/160
f 171/171 172/172 173/173
f 160/160 154/154 172/172
f 174/174 173/173 172/172
f 173/173 174/174 175/175
f 176/176 172/172 154/154
f 172/172 176/176 174/174
f 154/154 153/153 176/176
f 177/177 175/175 174/174
f 175/175 177/177 178/178
f 177/177 179/179 178/178
f 180/180 176/176 153/153
f 153/153 152/152 180/180
f 181/181 174/174 176/176
f 174/174 181/181 177/177
f 176/176 180/180 181/181
f 179/179 177/177 182/182
f 181/181 182/182 177/177
f 152/152 183/183 180/180
f 183/183 152/152 159/159
f 180/180 184/184 181/181
f 182/182 181/181 184/184
f 184/184 180/180 183/183
f 185/185 179/179 182/182
f 179/179 185/185 186/186
f 185/185 187/187 186/186
f 188/188 183/183 159/159
f 159/159 158/158 188/188
f 166/166 188/188 158/158
f 189/189 182/182 184/184
f 182/182 189/189 185/185
f 187/187 185/185 190/190
f 189/189 190/190 185/185
f 190/190 191/191 187/187
f 192/192 184/184 183/183
f 183/183 188/188 192/192
f 184/184 192/192 189/189
f 188/188 166/166 193/193
f 193/193 192/192 188/188
f 190/190 189/189 194/194
f 192/192 194/194 189/189
f 191/191 190/190 195/195
f 194/194 195/195 190/190
f 194/194 192/192 196/196
f 192/192 193/193 196/196
f 166/166 197/197 193/193
f 197/197 166/166 165/165
f 196/196 198/198 194/194
f 195/195 194/194 198/198
f 193/193 199/199 196/196
f 199/199 193/193 197/197
f 198/198 196/196 199/199
f 200/200 191/191 195/195
f 191/191 200/200 201/201
f 200/200 202/202 201/201
f 203/203 197/197 165/165
f 165/165 164/164 203/203
f 204/204 195/195 198/198
f 195/195 204/204 200/200
f 205/205 198/198 199/199
f 198/198 205/205 204/204
f 206/206 199/199 197/197
f 197/197 203/203 206/206
f 199/199 206/206 205/205
f 202/202 200/200 207/207
f 204/204 207/207 200/200
f 205/205 208/208 204/204
f 207/207 204/204 208/208
f 206/206 209/209 205/205
f 208/208 205/205 209/209
f 203/203 210/210 206/206
f 209/209 206/206 210/210
f 164/164 211/211 203/203
f 210/210 203/203 211/211
f 212/212 202/202 207/207
f 202/202 212/212 213/213
f 214/214 207/207 208/208
f 207/207 214/214 212/212
f 215/215 208/208 209/209
f 208/208 215/215 214/214
f 216/216 209/209 210/210
f 209/209 216/216 215/215
f 217/217 213/213 212/212
f 213/213 217/217 218/218
f 219/219 212/212 214/214
f 212/212 219/219 217/217
f 220/220 218/218 217/217
f 219/219 220/220 217/217
f 218/218 220/220 221/221
f 220/220 222/222 221/221
f 223/223 214/214 215/215
f 214/214 223/223 219/219
f 220/220 219/219 224/224
f 223/223 224/224 219/219
f 222/222 220/220 225/225
f 224/224 225/225 220/220
f 226/226 222/222 225/225
f 222/222 226/226 227/227
f 226/226 228/228 227/227
f 225/225 224/224 229/229
f 229/229 226/226 225/225
f 228/228 226/226 230/230
f 230/230 231/231 228/228
f 231/231 230/230 232/232
f 233/233 230/230 226/226
f 226/226 229/229 233/233
f 234/234 232/232 230/230
f 230/230 233/233 234/234
f 232/232 234/234 235/235
f 236/236 229/229 224/224
f 224/224 223/223 236/236
f 237/237 233/233 229/229
f 229/229 236/236 237/237
f 236/236 238/238 237/237
f 233/233 237/237 239/239
f 239/239 234/234 233/233
f 238/238 239/239 237/237
f 240/240 235/235 234/234
f 234/234 239/239 240/240
f 235/235 240/240 241/241
f 223/223 242/242 236/236
f 238/238 236/236 242/242
f 243/243 240/240 239/239
f 239/239 238/238 243/243
f 244/244 241/241 240/240
f 240/240 243/243 244/244
f 241/241 244/244 245/245
f 246/246 244/244 243/243
f 246/246 243/243 238/238
f 247/247 245/245 244/244
f 244/244 246/246 247/247
f 245/245 247/247 248/248
f 238/238 249/249 246/246
f 249/249 247/247 246/246
f 250/250 248/248 247/247
f 247/247 249/249 250/250
f 248/248 250/250 251/251
f 249/249 238/238 252/252
f 242/242 252/252 238/238
f 253/253 250/250 249/249
f 252/252 253/253 249/249
f 254/254 251/251 250/250
f 250/250 253/253 254/254
f 251/251 254/254 255/255
f 256/256 255/255 254/254
f 255/255 256/256 257/257
f 258/258 254/254 253/253
f 254/254 258/258 256/256
f 259/259 257/257 256/256
f 257/257 259/259 260/260
f 256/256 261/261 259/259
f 261/261 256/256 258/258
f 262/262 258/258 253/253
f 253/253 252/252 262/262
f 263/263 261/261 258/258
f 258/258 262/262 263/263
f 261/261 263/263 264/264
f 265/265 264/264 263/263
f 262/262 265/265 263/263
f 264/264 265/265 266/266
f 252/252 267/267 262/262
f 265/265 262/262 267/267
f 268/268 266/266 265/265
f 267/267 268/268 265/265
f 266/266 268/268 168/168
f 167/167 168/168 268/268
f 267/267 252/252 269/269
f 252/252 242/242 269/269
f 268/268 267/267 270/270
f 269/269 270/270 267/267
f 268/268 271/271 167/167
f 271/271 268/268 270/270
f 242/242 272/272 269/269
f 270/270 269/269 272/272
f 273/273 167/167 271/271
f 167/167 273/273 162/162
f 164/164 162/162 273/273
f 211/211 164/164 273/273
f 271/271 211/211 273/273
f 270/270 274/274 271/271
f 211/211 271/271 274/274
f 274/274 270/270 272/272
f 274/274 210/210 211/211
f 210/210 274/274 216/216
f 272/272 216/216 274/274
f 272/272 242/242 275/275
f 216/216 272/272 275/275
f 242/242 223/223 275/275
f 275/275 215/215 216/216
f 215/215 275/275 223/223
f 276/276 277/277 278/278
f 277/277 276/276 279/279
f 279/279 280/280 277/277
f 281/281 279/279 276/276
f 280/280 279/279 282/282
f 282/282 283/283 280/280
f 279/279 281/281 284/284
f 284/284 282/282 279/279
f 285/285 284/284 281/281
f 283/283 282/282 286/286
f 286/286 287/287 283/283
f 284/284 285/285 288/288
f 289/289 288/288 285/285
f 288/288 289/289 290/290
f 282/282 284/284 291/291
f 288/288 291/291 284/284
f 291/291 286/286 282/282
f 290/290 292/292 288/288
f 291/291 288/288 292/292
f 292/292 290/290 293/293
f 287/287 286/286 294/294
f 294/294 295/295 287/287
f 286/286 291/291 296/296
f 292/292 296/296 291/291
f 296/296 294/294 286/286
f 293/293 297/297 292/292
f 296/296 292/292 297/297
f 297/297 293/293 298/298
f 295/295 294/294 299/299
f 299/299 300/300 295/295
f 294/294 296/296 301/301
f 297/297 301/301 296/296
f 301/301 299/299 294/294
f 298/298 302/302 297/297
f 301/301 297/297 302/302
f 302/302 298/298 303/303
f 299/299 301/301 304/304
f 302/302 304/304 301/301
f 303/303 305/305 302/302
f 304/304 302/302 305/305
f 305/305 303/303 306/306
f 300/300 299/299 307/307
f 304/304 307/307 299/299
f 305/305 308/308 304/304
f 307/307 304/304 308/308
f 306/306 309/309 305/305
f 308/308 305/305 309/309
f 309/309 306/306 310/310
f 311/311 309/309 310/310
f 312/312 300/300 307/307
f 300/300 312/312 313/313
f 312/312 314/314 313/313
f 315/315 308/308 309/309
f 309/309 311/311 315/315
f 316/316 307/307 308/308
f 307/307 316/316 312/312
f 308/308 315/315 316/316
f 314/314 312/312 317/317
f 316/316 317/317 312/312
f 317/317 318/318 314/314
f 311/311 319/319 315/315
f 319/319 311/311 320/320
f 315/315 321/321 316/316
f 317/317 316/316 321/321
f 321/321 315/315 319/319
f 318/318 317/317 322/322
f 321/321 322/322 317/317
f 322/322 323/323 318/318
f 320/320 324/324 319/319
f 324/324 320/320 325/325
f 319/319 326/326 321/321
f 322/322 321/321 326/326
f 326/326 319/319 324/324
f 323/323 322/322 327/327
f 326/326 327/327 322/322
f 327/327 328/328 323/323
f 325/325 329/329 324/324
f 329/329 325/325 330/330
f 324/324 331/331 326/326
f 327/327 326/326 331/331
f 331/331 324/324 329/329
f 328/328 327/327 332/332
f 331/331 332/332 327/327
f 330/330 333/333 329/329
f 333/333 330/330 334/334
f 335/335 333/333 334/334
f 329/329 336/336 331/331
f 336/336 329/329 333/333
f 332/332 331/331 336/336
f 337/337 328/328 332/332
f 328/328 337/337 338/338
f 337/337 339/339 338/338
f 340/340 336/336 333/333
f 333/333 335/335 340/340
f 341/341 332/332 336/336
f 332/332 341/341 337/337
f 336/336 340/340 341/341
f 339/339 337/337 342/342
f 342/342 343/343 339/339
f 342/342 337/337 344/344
f 341/341 344/344 337/337
f 343/343 342/342 345/345
f 344/344 345/345 342/342
f 345/345 346/346 343/343
f 344/344 341/341 347/347
f 345/345 344/344 348/348
f 347/347 348/348 344/344
f 346/346 345/345 349/349
f 348/348 349/349 345/345
f 347/347 341/341 350/350
f 340/340 350/350 341/341
f 348/348 347/347 351/351
f 350/350 351/351 347/347
f 352/352 346/346 349/349
f 346/346 352/352 353/353
f 349/349 348/348 354/354
f 351/351 354/354 348/348
f 349/349 355/355 352/352
f 355/355 349/349 354/354
f 356/356 353/353 352/352
f 353/353 356/356 357/357
f 358/358 352/352 355/355
f 352/352 358/358 356/356
f 359/359 357/357 356/356
f 357/357 359/359 360/360
f 361/361 356/356 358/358
f 356/356 361/361 359/359
f 362/362 360/360 359/359
f 360/360 362/362 363/363
f 364/364 359/359 361/361
f 359/359 364/364 362/362
f 365/365 363/363 362/362
f 363/363 365/365 366/366
f 367/367 362/362 364/364
f 362/362 367/367 365/365
f 368/368 366/366 365/365
f 366/366 368/368 369/369
f 370/370 365/365 367/367
f 365/365 370/370 368/368
f 371/371 369/369 368/368
f 369/369 371/371 372/372
f 373/373 368/368 370/370
f 368/368 373/373 371/371
f 374/374 372/372 371/371
f 372/372 374/374 375/375
f 376/376 371/371 373/373
f 371/371 376/376 374/374
f 377/377 375/375 374/374
f 375/375 377/377 378/378
f 379/379 374/374 376/376
f 374/374 379/379 377/377
f 380/380 378/378 377/377
f 378/378 380/380 381/381
f 382/382 377/377 379/379
f 377/377 382/382 380/380
f 383/383 381/381 380/380
f 381/381 383/383 384/384
f 385/385 380/380 382/382
f 380/380 385/385 383/383
f 379/379 386/386 382/382
f 386/386 385/385 382/382
f 376/376 387/387 379/379
f 386/386 379/379 387/387
f 373/373 388/388 376/376
f 387/387 376/376 388/388
f 389/389 384/384 383/383
f 384/384 389/389 390/390
f 391/391 383/383 385/385
f 383/383 391/391 389/389
f 392/392 390/390 389/389
f 390/390 392/392 393/393
f 394/394 389/389 391/391
f 389/389 394/394 392/392
f 385/385 395/395 391/391
f 395/395 394/394 391/391
f 396/396 393/393 392/392
f 393/393 396/396 397/397
f 388/388 373/373 398/398
f 370/370 398/398 373/373
f 395/395 385/385 399/399
f 385/385 386/386 399/399
f 400/400 392/392 394/394
f 392/392 400/400 396/396
f 401/401 397/397 396/396
f 397/397 401/401 402/402
f 403/403 402/402 401/401
f 402/402 403/403 404/404
f 403/403 405/405 404/404
f 396/396 406/406 401/401
f 406/406 396/396 400/400
f 406/406 403/403 401/401
f 405/405 403/403 407/407
f 403/403 408/408 407/407
f 407/407 409/409 405/405
f 409/409 407/407 410/410
f 408/408 410/410 407/407
f 410/410 411/411 409/409
f 403/403 406/406 412/412
f 408/408 403/403 412/412
f 400/400 413/413 406/406
f 413/413 412/412 406/406
f 411/411 410/410 414/414
f 414/414 415/415 411/411
f 415/415 414/414 416/416
f 417/417 414/414 410/410
f 410/410 408/408 417/417
f 418/418 416/416 414/414
f 414/414 417/417 418/418
f 416/416 418/418 419/419
f 420/420 418/418 417/417
f 408/408 420/420 417/417
f 421/421 419/419 418/418
f 418/418 420/420 421/421
f 419/419 421/421 422/422
f 423/423 408/408 412/412
f 412/412 413/413 423/423
f 420/420 408/408 424/424
f 408/408 423/423 424/424
f 425/425 421/421 420/420
f 424/424 425/425 420/420
f 426/426 422/422 421/421
f 421/421 425/425 426/426
f 422/422 426/426 427/427
f 428/428 427/427 426/426
f 427/427 428/428 429/429
f 423/423 430/430 424/424
f 425/425 424/424 430/430
f 431/431 426/426 425/425
f 426/426 431/431 428/428
f 432/432 425/425 430/430
f 423/423 432/432 430/430
f 425/425 432/432 431/431
f 433/433 429/429 428/428
f 429/429 433/433 434/434
f 432/432 423/423 435/435
f 413/413 435/435 423/423
f 436/436 431/431 432/432
f 435/435 436/436 432/432
f 437/437 428/428 431/431
f 428/428 437/437 433/433
f 431/431 436/436 437/437
f 438/438 434/434 433/433
f 434/434 438/438 439/439
f 440/440 433/433 437/437
f 436/436 440/440 437/437
f 433/433 440/440 438/438
f 441/441 439/439 438/438
f 439/439 441/441 442/442
f 443/443 438/438 440/440
f 438/438 443/443 441/441
f 444/444 442/442 441/441
f 442/442 444/444 445/445
f 441/441 446/446 444/444
f 446/446 441/441 443/443
f 443/443 447/447 446/446
f 440/440 436/436 448/448
f 448/448 443/443 440/440
f 447/447 443/443 449/449
f 443/443 448/448 449/449
f 450/450 448/448 436/436
f 436/436 435/435 450/450
f 451/451 447/447 449/449
f 447/447 451/451 452/452
f 451/451 453/453 452/452
f 454/454 449/449 448/448
f 448/448 450/450 454/454
f 449/449 454/454 451/451
f 455/455 450/450 435/435
f 435/435 413/413 455/455
f 456/456 454/454 450/450
f 450/450 455/455 456/456
f 457/457 451/451 454/454
f 454/454 456/456 457/457
f 453/453 451/451 458/458
f 451/451 457/457 458/458
f 459/459 455/455 413/413
f 413/413 400/400 459/459
f 394/394 459/459 400/400
f 460/460 456/456 455/455
f 455/455 459/459 460/460
f 459/459 394/394 461/461
f 461/461 460/460 459/459
f 394/394 395/395 461/461
f 462/462 453/453 458/458
f 453/453 462/462 463/463
f 464/464 457/457 456/456
f 456/456 460/460 464/464
f 465/465 458/458 457/457
f 458/458 465/465 462/462
f 457/457 464/464 465/465
f 466/466 461/461 395/395
f 399/399 466/466 395/395
f 460/460 461/461 467/467
f 467/467 464/464 460/460
f 461/461 466/466 467/467
f 468/468 463/463 462/462
f 463/463 468/468 469/469
f 468/468 470/470 469/469
f 471/471 465/465 464/464
f 464/464 467/467 471/471
f 472/472 462/462 465/465
f 462/462 472/472 468/468
f 465/465 471/471 472/472
f 466/466 399/399 473/473
f 386/386 473/473 399/399
f 474/474 467/467 466/466
f 467/467 474/474 471/471
f 473/473 474/474 466/466
f 470/470 468/468 475/475
f 472/472 475/475 468/468
f 471/471 476/476 472/472
f 476/476 471/471 474/474
f 475/475 472/472 476/476
f 477/477 470/470 475/475
f 470/470 477/477 478/478
f 477/477 479/479 478/478
f 480/480 476/476 474/474
f 474/474 473/473 480/480
f 481/481 475/475 476/476
f 475/475 481/481 477/477
f 476/476 480/480 481/481
f 479/479 477/477 482/482
f 481/481 482/482 477/477
f 482/482 483/483 479/479
f 480/480 484/484 481/481
f 482/482 481/481 484/484
f 473/473 485/485 480/480
f 484/484 480/480 485/485
f 483/483 482/482 486/486
f 484/484 486/486 482/482
f 485/485 473/473 487/487
f 473/473 386/386 487/487
f 387/387 487/487 386/386
f 487/487 387/387 488/488
f 488/488 485/485 487/487
f 388/388 488/488 387/387
f 489/489 484/484 485/485
f 485/485 488/488 489/489
f 488/488 388/388 490/490
f 490/490 489/489 488/488
f 398/398 490/490 388/388
f 484/484 489/489 491/491
f 486/486 484/484 491/491
f 492/492 483/483 486/486
f 483/483 492/492 493/493
f 492/492 494/494 493/493
f 489/489 490/490 495/495
f 495/495 491/491 489/489
f 496/496 486/486 491/491
f 486/486 496/496 492/492
f 491/491 495/495 496/496
f 490/490 398/398 497/497
f 497/497 495/495 490/490
f 494/494 492/492 498/498
f 496/496 498/498 492/492
f 495/495 499/499 496/496
f 498/498 496/496 499/499
f 500/500 494/494 498/498
f 494/494 500/500 501/501
f 502/502 497/497 398/398
f 398/398 370/370 502/502
f 367/367 502/502 370/370
f 495/495 497/497 503/503
f 499/499 495/495 503/503
f 504/504 498/498 499/499
f 498/498 504/504 500/500
f 505/505 501/501 500/500
f 501/501 505/505 506/506
f 502/502 367/367 507/507
f 364/364 507/507 367/367
f 497/497 502/502 508/508
f 508/508 503/503 497/497
f 507/507 508/508 502/502
f 509/509 499/499 503/503
f 503/503 508/508 509/509
f 499/499 509/509 504/504
f 510/510 500/500 504/504
f 500/500 510/510 505/505
f 511/511 506/506 505/505
f 506/506 511/511 512/512
f 511/511 513/513 512/512
f 508/508 507/507 514/514
f 514/514 509/509 508/508
f 515/515 504/504 509/509
f 504/504 515/515 510/510
f 509/509 514/514 515/515
f 505/505 516/516 511/511
f 516/516 505/505 510/510
f 513/513 511/511 517/517
f 516/516 517/517 511/511
f 518/518 514/514 507/507
f 507/507 364/364 518/518
f 361/361 518/518 364/364
f 519/519 515/515 514/514
f 514/514 518/518 519/519
f 520/520 510/510 515/515
f 510/510 520/520 516/516
f 515/515 519/519 520/520
f 518/518 361/361 521/521
f 521/521 519/519 518/518
f 358/358 521/521 361/361
f 519/519 521/521 522/522
f 522/522 520/520 519/519
f 521/521 358/358 523/523
f 523/523 522/522 521/521
f 355/355 523/523 358/358
f 520/520 524/524 516/516
f 517/517 516/516 524/524
f 520/520 522/522 525/525
f 524/524 520/520 525/525
f 526/526 525/525 522/522
f 522/522 523/523 526/526
f 523/523 355/355 527/527
f 354/354 527/527 355/355
f 528/528 524/524 525/525
f 525/525 526/526 528/528
f 529/529 517/517 524/524
f 524/524 528/528 529/529
f 530/530 523/523 527/527
f 523/523 530/530 526/526
f 527/527 354/354 531/531
f 531/531 530/530 527/527
f 354/354 351/351 531/531
f 526/526 532/532 528/528
f 532/532 526/526 530/530
f 533/533 531/531 351/351
f 351/351 350/350 533/533
f 530/530 531/531 534/534
f 534/534 532/532 530/530
f 531/531 533/533 534/534
f 535/535 528/528 532/532
f 528/528 535/535 529/529
f 517/517 529/529 536/536
f 536/536 513/513 517/517
f 513/513 536/536 537/537
f 536/536 538/538 537/537
f 529/529 539/539 536/536
f 538/538 536/536 539/539
f 539/539 529/529 535/535
f 540/540 533/533 350/350
f 350/350 340/340 540/540
f 532/532 534/534 541/541
f 541/541 535/535 532/532
f 542/542 534/534 533/533
f 533/533 540/540 542/542
f 534/534 542/542 541/541
f 540/540 340/340 543/543
f 543/543 542/542 540/540
f 335/335 543/543 340/340
f 544/544 538/538 539/539
f 538/538 544/544 545/545
f 544/544 546/546 545/545
f 547/547 539/539 535/535
f 535/535 541/541 547/547
f 539/539 547/547 544/544
f 548/548 541/541 542/542
f 542/542 543/543 548/548
f 541/541 548/548 547/547
f 543/543 335/335 549/549
f 549/549 548/548 543/543
f 549/549 335/335 550/550
f 551/551 550/550 546/546
f 546/546 544/544 551/551
f 547/547 551/551 544/544
f 551/551 547/547 548/548
f 548/548 549/549 551/551
f 550/550 551/551 549/549
f 552/552 553/553 554/554
f 552/552 555/555 553/553
f 553/553 555/555 556/556
f 552/552 557/557 555/555
f 552/552 558/558 557/557
f 555/555 557/557 559/559
