# douglas_fir_b_COL
v 0.0489005595 44.6713905 0.0950895846
v -0.0123777054 41.933033 -0.0206955113
v -0.00755368033 44.6714134 0.0779695809
v 0.0638861805 41.9328995 0.0024521898
v -0.112286538 39.198555 -0.0478851087
v 0.0767250285 44.6713371 0.147117242
v -0.0170451999 39.1983566 -0.0189969055
v -0.196730673 36.4640961 -0.0652956739
v 0.101456515 41.9327774 0.0727363303
v 0.0596074052 44.6712799 0.203591645
v -0.0825279877 36.464035 -0.0307013057
v -0.189283684 33.7294769 -0.0478576683
v 0.0783358961 41.9327278 0.149015293
v 0.00755962823 44.6712532 0.231418312
v 0.00803701486 41.9327812 0.186618119
v 0.0298708417 39.1982689 0.0687802136
v 0.000975587056 39.1983376 0.164027348
v -0.0868062302 39.1985207 0.210944667
v -0.0561765283 33.7296982 -0.00767159322
v -0.0547521152 30.9949341 0.077022545
v -0.0262515545 36.4640465 0.0744818226
v -0.0608980209 36.4641266 0.18866916
v -0.166164815 36.4642296 0.244942352
v 0.097378999 30.9952583 0.12288022
v 0.0058497861 28.4145966 0.196842507
v 0.00941946357 33.729969 0.114930302
v -0.0309672523 33.7301369 0.248129666
v -0.153673649 33.7300911 0.313871026
v 0.172352985 30.9956665 0.262895614
v 0.126264229 30.995924 0.415036887
v -0.0138822133 30.9958878 0.49021408
v 0.175851226 28.4146957 0.248296097
v 0.259551793 28.4149723 0.404905319
v 0.207958251 28.4152679 0.574928582
v 0.0512943529 28.4154148 0.658790112
v 0.0506906882 28.1072407 0.67483443
v 0.176817641 28.1066551 0.25919053
v 0.00467943819 28.1066628 0.207071036
v -0.0561664812 25.5266991 0.237342864
v 0.261566877 28.106823 0.417780489
v 0.209323421 28.1070652 0.589938641
v 0.133878812 25.5265369 0.294971555
v -0.139645189 22.7925186 0.142806217
v 0.169806197 25.5264893 0.660101056
v -0.0053000045 25.5266228 0.753713429
v 0.227467954 25.526453 0.470094889
v 0.0693383515 22.79245 0.206214219
v -0.0787391514 20.0580254 0.0303663313
v 0.108791336 22.7921162 0.60773313
v -0.0838691592 22.7920532 0.710576177
v 0.172265723 22.7922821 0.398804456
v 0.148999304 20.0582047 0.0996035486
v 0.0436548032 17.4775429 -0.00473205419
v 0.191718116 20.0580425 0.537336767
v -0.018383868 20.0577908 0.649398685
v 0.261051565 20.0582142 0.309592247
v 0.289274186 17.4777393 0.0699405298
v 0.335398614 17.4777584 0.54205817
v 0.108872898 17.4775696 0.662971497
v 0.11900226 17.1696072 0.669454694
v 0.410114408 17.477829 0.296421438
v 0.30091849 17.1695042 0.0712189525
v 0.0531346351 17.1694489 -0.00410038419
v 0.108534046 14.5892963 -0.0180895664
v 0.34748283 17.1696129 0.547465801
v 0.422830045 17.169569 0.299680442
v 0.246661454 14.5891514 0.023948893
v -0.103671566 11.8550415 -0.164958
v 0.358257711 14.5890121 0.115570553
v 0.0443690196 11.8548431 -0.119820438
v 0.00940693263 10.5646973 -0.168780297
v -0.139014453 10.5647945 -0.214079276
v -0.0222118776 8.97851467 -0.236257389
v -0.174605429 8.97857189 -0.282787025
v -0.171418563 8.27894878 -0.310726106
v 0.42628473 14.5888996 0.242833361
v 0.163948163 11.8546314 -0.0216659252
v 0.129293621 10.5645771 -0.0703515783
v 0.100887708 8.97841072 -0.13517864
v -0.0203770213 8.27901936 -0.262743324
v 0.44042486 14.5888329 0.386719495
v 0.236862257 11.8544369 0.114685521
v 0.202401429 10.5644503 0.0663545877
v 0.175961241 8.97832108 0.00519554969
v 0.252004325 11.854291 0.269000947
v 0.398522794 14.5888157 0.524801373
v 0.306937397 14.5888519 0.636113703
v 0.207087338 11.8542156 0.41694513
v 0.217593849 10.5643368 0.221128806
v 0.179659605 14.5889378 0.704093099
v 0.0359841138 14.5890617 0.718419313
v 0.108967759 11.8542242 0.535968363
v -0.027417399 11.8543139 0.60874635
v -0.181311443 11.8544703 0.624177217
v 0.172565997 10.5642538 0.369460642
v 0.191574305 8.97825623 0.164152771
v 0.0741845369 10.5642147 0.488732189
v -0.0625639185 10.5642242 0.561688423
v -0.216876239 10.5642824 0.577203155
v -0.254582584 8.97805119 0.529769063
v -0.0961135924 8.97805882 0.513825536
v -0.246796608 8.27876949 0.518771112
v 0.145343617 8.97817421 0.316474766
v 0.0443135835 8.97809029 0.438920736
v -0.0870082155 8.27886391 0.502504766
v -0.195639715 7.52306509 0.524061143
v 0.0564338155 8.27888489 0.423161507
v -0.0344533883 7.52346039 0.50743413
v -0.115708694 6.81851864 0.545349658
v 0.0467933901 6.81870222 0.528387725
v -0.105456807 6.54680872 0.545148194
v 0.112204805 7.52380037 0.423286051
v 0.160097569 8.27893353 0.298333466
v 0.203314945 8.27904606 0.145902261
v 0.0574188158 6.54686975 0.527555168
v -0.0884025842 6.22565985 0.567707598
v 0.196487024 6.81878424 0.439773768
v 0.218667656 7.52415943 0.295877665
v 0.180757836 8.27908421 -0.0144470828
v 0.0746636167 6.22576761 0.548726439
v -0.0742930248 5.95345402 0.578958869
v 0.207436159 6.546875 0.437568188
v 0.305630833 6.81885004 0.309960812
v 0.258670032 7.52386951 0.143354461
v 0.101485647 8.27905083 -0.158573449
v 0.0885275379 5.95348072 0.557692468
v -0.053525541 5.12217522 0.568239033
v 0.224012107 6.22574139 0.457564145
v 0.316509098 6.54685974 0.306952655
v 0.228721708 7.52300787 -0.0184551887
v 0.144988 7.52237082 -0.166625634
v 0.107234716 5.12214231 0.536572635
v -0.0523681529 4.85094881 0.550334752
v 0.342548668 6.81887865 0.157357812
v 0.235902727 5.95343637 0.465419114
v 0.305526376 6.81882906 -0.00582955871
v 0.107740544 4.85095263 0.515283644
v 0.00718781771 3.88342714 0.510345578
v 0.331681252 6.22560596 0.326251984
v 0.352328628 6.5467844 0.15404506
v 0.217521757 6.81877708 -0.157776698
v 0.244235128 5.12218428 0.440545231
v 0.16488798 3.88345933 0.463199496
v 0.0610572286 2.9811728 0.465217501
v 0.340532184 5.95336533 0.333256841
v 0.366337419 6.22541666 0.172776356
v 0.31374535 6.54668951 -0.00962340832
v 0.241388485 4.85084343 0.418011039
v 0.214708477 2.98104548 0.383741587
v 0.072791405 2.71069646 0.470183104
v 0.333903641 5.12216854 0.305035919
v 0.373372942 5.953372 0.178907424
v 0.327310592 6.22525978 0.00857485458
v 0.224921599 6.5466361 -0.162493676
v 0.28641507 3.88368106 0.361543834
v 0.225152642 2.71095753 0.379723549
v 0.109512307 2.08538151 0.488036066
v 0.326188684 4.85067511 0.281381547
v 0.358731806 5.1222291 0.146833181
v 0.0982726291 6.81870079 -0.268398911
v 0.344861329 2.98062253 0.263171285
v 0.254443854 2.08637929 0.377207875
v 0.188841 1.23768675 0.475152582
v 0.355850071 2.71091294 0.25458473
v 0.426606208 2.98056793 0.0975637808
v 0.353742719 3.883955 0.221067324
v 0.0244681872 7.52227783 -0.274143368
v -0.125120014 7.52216005 -0.323702812
v -0.049934838 6.81854916 -0.319436133
v 0.105661035 6.54659081 -0.273743808
v -0.0428538695 6.54654503 -0.324755728
v 0.118751027 6.22499847 -0.25607565
v -0.0310972724 6.2247715 -0.306411654
v 0.238522455 6.2251606 -0.144757912
v 0.124724738 5.9533639 -0.248851568
v -0.0271579884 5.95332623 -0.297359109
v -0.0549271703 5.12276888 -0.310523927
v 0.334444612 5.95340252 0.0143093057
v 0.245889738 5.95340061 -0.138573959
v 0.105976149 5.122756 -0.271503657
v 0.321593136 5.12243891 -0.0188315175
v 0.234371752 5.12265301 -0.167770728
v 0.0942585915 4.85118484 -0.293324679
v -0.0695735291 4.8510828 -0.329222888
v -0.0665369257 3.88410354 -0.371932864
v 0.348397464 4.85074615 0.121909857
v 0.225022405 4.85120487 -0.191749707
v 0.107782178 3.88411212 -0.347079009
v -0.0376660936 2.98211884 -0.414502352
v 0.311827123 4.8510108 -0.0441021286
v 0.36665374 3.88409901 0.0571650192
v 0.246941641 3.88393569 -0.253163397
v 0.117751256 2.98192072 -0.375584513
v 0.332177103 3.88413906 -0.110098951
v 0.417231023 2.98055291 -0.0758554712
v 0.210839167 2.98156691 -0.274079621
v 0.347034335 2.98154569 -0.202249795
v 0.109679811 2.7099452 -0.372594267
v -0.0443050228 2.71004748 -0.409925103
v 0.43824926 2.71135736 0.0834734812
v 0.198996782 2.71031308 -0.270792753
v 0.345049888 2.71068835 -0.211657017
v 0.423000753 2.71097612 -0.0921084955
v 0.0864901245 2.08622837 -0.375522137
v -0.0707844421 2.08766246 -0.397253513
v 0.384356081 2.08594298 0.244395271
v 0.188487813 2.0876863 -0.279587358
v 0.456566155 2.0873754 0.0678788647
v 0.344754368 2.08672643 -0.232489198
v 0.422236502 2.08731771 -0.108456016
v -0.0317112692 1.23777878 -0.423557013
v -0.174566433 1.22808719 -0.384633094
v -0.0455454774 0.867031693 -0.420780599
v -0.203278497 0.886844635 -0.371866971
v -0.225830451 0.638818085 -0.372338444
v 0.124925926 1.23271167 -0.400583625
v 0.308326662 1.2200712 -0.288520485
v 0.403816551 1.21688509 -0.157561854
v 0.44510448 1.21984816 0.0128877209
v -0.0857915729 0.620121181 -0.427263975
v 0.0506092161 0.584106982 -0.436240107
v -0.23906596 0.468641847 -0.376401961
v 0.0702204332 0.836336434 -0.41905883
v -0.0968503281 0.454461664 -0.450689346
v -0.402643412 0.075415574 -0.581664205
v 0.288240999 0.732248724 -0.310308248
v 0.411102325 0.731977344 -0.134641543
v -0.186911002 0.0534783937 -0.694464684
v -0.717694998 -0.698257446 -1.28482592
v -0.250607133 -0.745792389 -1.52901781
v 0.0292634871 0.4101789 -0.47903803
v 0.00364005938 -0.0143278502 -0.737546921
v 0.160558298 -0.892864048 -1.62242615
v 0.185833469 0.340305537 -0.424368531
v 0.240474775 -0.120275818 -0.654792249
v 0.672561407 -1.12233019 -1.44356263
v 0.210809201 0.522881508 -0.376978368
v 0.324310035 0.323222965 -0.288295984
v 0.450373143 -0.145756274 -0.448348403
v 1.12745476 -1.17730558 -0.995875001
v 0.314294726 0.509169519 -0.282272518
v 0.428894669 0.508143425 -0.123608664
v 0.439297616 0.345457077 -0.129115105
v 0.624755323 -0.111776963 -0.20698221
v 1.50515306 -1.10366714 -0.47330302
v 0.461589605 0.511301398 0.110566959
v 0.472919047 0.336996257 0.119098984
v 0.675708175 -0.12472032 0.169450343
v 1.61536086 -1.13186324 0.341599584
v 0.433904678 0.363985002 0.286057472
v 0.61652106 -0.0835998878 0.422394544
v 1.4872731 -1.04278207 0.888959706
v 0.442053437 0.761967957 0.111976422
v 0.421112627 0.524136722 0.284644574
v 0.316468984 0.376526326 0.464618742
v 0.438563555 -0.064864099 0.69302398
v 1.10256541 -1.00256157 1.47458482
v 0.224187672 -0.0781959891 0.81178844
v 0.639159143 -1.03169477 1.73148954
v 0.174635604 0.368043274 0.543120921
v 0.16151306 0.564693987 0.516594827
v 0.38948229 0.768694699 0.279816329
v 0.317351192 0.555797696 0.433465749
v 0.313335121 0.841735661 0.389843166
v 0.175198555 0.87883085 0.479589611
v 0.412499219 1.22005081 0.221730456
v 0.312137812 1.22675371 0.373391628
v -0.0489178784 44.6712723 0.214281648
v 0.00803701486 41.9327812 0.186618119
v 0.00755962823 44.6712532 0.231418312
v -0.0682724789 41.9329185 0.163484678
v -0.0868062302 39.1985207 0.210944667
v -0.0767256841 44.6713257 0.16223076
v -0.182045609 39.1987114 0.182044536
v -0.166164815 36.4642296 0.244942352
v -0.105857015 41.9330521 0.093154937
v -0.0595848113 44.6713867 0.105773002
v -0.280358613 36.4642906 0.2102606
v -0.153673649 33.7300911 0.313871026
v -0.0826908201 41.933094 0.0168618113
v -0.00755368033 44.6714134 0.0779695809
v -0.0123777054 41.933033 -0.0206955113
v -0.228951529 39.1987991 0.0942669436
v -0.200058267 39.1987305 -0.000967558997
v -0.112286538 39.198555 -0.0478851087
v -0.286787778 33.729866 0.273604661
v -0.0138822133 30.9958878 0.49021408
v -0.336594075 36.4642715 0.105033442
v -0.301956952 36.4641953 -0.00908002723
v -0.196730673 36.4640961 -0.0652956739
v -0.166030899 30.9955711 0.444385737
v 0.0512943529 28.4154148 0.658790112
v -0.352318972 33.7295914 0.150983661
v -0.311926365 33.7294388 0.017855674
v -0.189283684 33.7294769 -0.0478576683
v -0.241029754 30.9951534 0.304357052
v -0.194923475 30.9948864 0.152186528
v -0.0547521152 30.9949341 0.077022545
v -0.118704356 28.4153214 0.607655525
v -0.2024571 28.4150467 0.451826662
v -0.150852531 28.4147415 0.280979753
v 0.0058497861 28.4145966 0.196842507
v 0.00467943819 28.1066628 0.207071036
v -0.121432394 28.1072483 0.623041153
v 0.0506906882 28.1072407 0.67483443
v -0.0053000045 25.5266228 0.753713429
v -0.153988764 28.1068382 0.29226476
v -0.206231385 28.1070824 0.465272546
v -0.195301265 25.5267792 0.696308672
v -0.0838691592 22.7920532 0.710576177
v -0.23130849 25.5268383 0.331180513
v -0.0561664812 25.5266991 0.237342864
v -0.288927138 25.5268688 0.521743834
v -0.292800516 22.7921257 0.647146821
v -0.018383868 20.0577908 0.649398685
v -0.332236737 22.79245 0.245712414
v -0.139645189 22.7925186 0.142806217
v -0.395659983 22.7922878 0.454664141
v -0.246122435 20.0576134 0.580122948
v 0.108872898 17.4775696 0.662971497
v -0.288773179 20.0577812 0.142416269
v -0.0787391514 20.0580254 0.0303663313
v -0.358092606 20.0576096 0.370123535
v -0.136773601 17.4773693 0.588307202
v -0.182877138 17.477354 0.116154611
v 0.0436548032 17.4775429 -0.00473205419
v 0.0531346351 17.1694489 -0.00410038419
v -0.257618427 17.4772816 0.361800313
v -0.128801078 17.1695538 0.594175041
v 0.11900226 17.1696072 0.669454694
v 0.0359841138 14.5890617 0.718419313
v -0.175385103 17.1694374 0.117870368
v -0.250751019 17.1694851 0.365695536
v -0.102139488 14.5892048 0.676483154
v -0.181311443 11.8544703 0.624177217
v -0.21375306 14.5893469 0.58530426
v -0.329300791 11.8546667 0.579151392
v -0.216876239 10.5642824 0.577203155
v -0.281808466 14.5894642 0.458279282
v -0.448859066 11.8548765 0.481751114
v -0.36526522 10.5643787 0.532055914
v -0.295966685 14.5895367 0.313987583
v -0.521792114 11.8550682 0.345850736
v -0.406954378 8.97806072 0.483403653
v -0.254582584 8.97805119 0.529769063
v -0.485145658 10.5644979 0.434498578
v -0.530040026 8.9781189 0.383271277
v -0.400642931 8.27865314 0.468222529
v -0.246796608 8.27876949 0.518771112
v -0.52652806 8.27858829 0.363575608
v -0.351041049 7.52246809 0.469013393
v -0.195639715 7.52306509 0.524061143
v -0.479904532 7.52184439 0.359489173
v -0.272651792 6.81832361 0.486118525
v -0.115708694 6.81851864 0.545349658
v -0.404417515 6.81821394 0.372041285
v -0.263112277 6.54673576 0.485644519
v -0.105456807 6.54680872 0.545148194
v -0.39615795 6.54671049 0.371118426
v -0.247050256 6.22548008 0.509543419
v -0.0884025842 6.22565985 0.567707598
v -0.381813496 6.22528124 0.396111697
v -0.233948126 5.95346785 0.523918569
v -0.0742930248 5.95345402 0.578958869
v -0.370594591 5.95352268 0.41320917
v -0.21670194 5.1222806 0.528910816
v -0.053525541 5.12217522 0.568239033
v -0.360396236 5.12235403 0.432114184
v -0.216686532 4.85100174 0.516123533
v -0.0523681529 4.85094881 0.550334752
v -0.362674445 4.8510828 0.423857719
v -0.161208704 3.88334489 0.494435936
v 0.00718781771 3.88342714 0.510345578
v -0.315410346 3.8833859 0.418387175
v -0.103011049 2.98135495 0.452638566
v 0.0610572286 2.9811728 0.465217501
v -0.251827508 2.98114371 0.404885441
v -0.428753227 3.8833828 0.28844437
v -0.465781689 4.8511095 0.2855241
v -0.460656792 5.12240028 0.291438013
v -0.0913614035 2.71098804 0.462099284
v 0.072791405 2.71069646 0.470183104
v -0.240152314 2.71063709 0.420136988
v -0.0594806485 2.08673859 0.496848375
v 0.109512307 2.08538151 0.488036066
v -0.462087721 5.95351171 0.265322834
v -0.215667605 2.08553791 0.464506477
v -0.000234914289 1.23650312 0.520538151
v 0.188841 1.23768675 0.475152582
v -0.172289267 1.22802019 0.478508264
v 0.0108023304 0.898544431 0.523561597
v 0.175198555 0.87883085 0.479589611
v 0.16151306 0.564693987 0.516594827
v -0.471134663 6.22503996 0.247005761
v -0.483732581 6.54667664 0.221888289
v -0.490557671 6.81816387 0.223355785
v -0.562374771 7.52133179 0.213701651
v -0.605180979 8.27860355 0.220884398
v -0.605116248 8.97823048 0.243444338
v -0.558275163 10.5646267 0.298297167
v -0.6207304 8.97835541 0.0836045891
v -0.536983073 11.8552084 0.190823764
v -0.573498666 10.5647402 0.142699435
v -0.254067481 14.5895567 0.175726652
v -0.492103249 11.8552818 0.0426093936
v -0.162467077 14.5895176 0.0641053319
v -0.0351610519 14.589426 -0.00388607918
v 0.108534046 14.5892963 -0.0180895664
v -0.394000441 11.8552752 -0.0769310668
v -0.257614881 11.8551922 -0.149711102
v -0.103671566 11.8550415 -0.164958
v -0.528494477 10.5648232 -0.00595346419
v -0.574517012 8.97846794 -0.0690542981
v -0.430120319 10.5648623 -0.125822499
v -0.293360502 10.5648518 -0.198786318
v -0.139014453 10.5647945 -0.214079276
v -0.174605429 8.97857189 -0.282787025
v -0.473504871 8.97853947 -0.192146882
v -0.333077341 8.97857189 -0.267072529
v -0.623255551 8.27865124 0.0586131997
v -0.332704663 8.27888489 -0.294517159
v -0.171418563 8.27894878 -0.310726106
v -0.125120014 7.52216005 -0.323702812
v -0.578024268 8.27872944 -0.0954198912
v -0.476522028 8.2788229 -0.218592048
v -0.583077133 7.52104616 0.0488316566
v -0.289421946 7.52166748 -0.306956708
v -0.538897932 7.52100897 -0.106678605
v -0.436872602 7.52119112 -0.229939938
v -0.513775289 6.81815672 0.0560654067
v -0.470585197 6.81820726 -0.100839362
v -0.217120662 6.81840515 -0.302212387
v -0.049934838 6.81854916 -0.319436133
v -0.0428538695 6.54654503 -0.324755728
v -0.368036032 6.81830072 -0.224191502
v -0.211077556 6.54652977 -0.306902319
v -0.0310972724 6.2247715 -0.306411654
v -0.507964551 6.54661751 0.0537269451
v -0.465397149 6.54657698 -0.103980586
v -0.362900347 6.54654837 -0.228003189
v -0.200532228 6.22461653 -0.287298679
v -0.0271579884 5.95332623 -0.297359109
v -0.496676922 6.22480345 0.0779027641
v -0.455155253 6.22462511 -0.0811086372
v -0.352984637 6.22455788 -0.20674257
v -0.197150022 5.95328379 -0.275915384
v -0.489756048 5.95343113 0.0958776101
v -0.45013842 5.95333052 -0.0646443516
v -0.349125713 5.95326328 -0.192789927
v -0.225167215 5.12276363 -0.277998507
v -0.0549271703 5.12276888 -0.310523927
v -0.0695735291 4.8510828 -0.329222888
v -0.497944832 5.12246561 0.122366607
v -0.467279196 5.12256813 -0.0440194607
v -0.372542053 5.12269211 -0.183382645
v -0.239876091 4.85103464 -0.293068796
v -0.506183565 4.8510747 0.116587333
v -0.478420973 4.85102367 -0.0516953319
v -0.385733455 4.85100555 -0.194703326
v -0.237144962 3.88388658 -0.322898597
v -0.0665369257 3.88410354 -0.371932864
v -0.377631098 3.88364911 -0.211170942
v -0.480361044 3.88337159 0.119979583
v -0.463012457 3.88347745 -0.0551220253
v -0.20161438 2.98150873 -0.350182295
v -0.0376660936 2.98211884 -0.414502352
v -0.0443050228 2.71004748 -0.409925103
v -0.419816703 2.9812243 0.128672391
v -0.412339628 2.98094296 -0.0594390035
v -0.334858477 2.98159289 -0.222976387
v -0.20254153 2.70949984 -0.340666294
v -0.0707844421 2.08766246 -0.397253513
v -0.333106726 2.70984983 -0.210295618
v -0.209259048 2.08624959 -0.30883497
v -0.174566433 1.22808719 -0.384633094
v -0.409196317 2.70960188 -0.0421156697
v -0.363820523 2.98059344 0.297632128
v -0.311676204 1.22851312 -0.29339999
v -0.203278497 0.886844635 -0.371866971
v -0.339732289 2.08748055 -0.182924464
v -0.404209435 2.7110281 0.144305289
v -0.341856688 2.71159887 0.309242994
v -0.413837612 2.0851047 -0.00191393041
v -0.277335852 2.08445144 0.322157651
v -0.365159094 2.08736229 0.170632944
v -0.404938102 1.22816169 -0.154498547
v -0.326764643 1.22823262 0.374006748
v -0.441675067 1.23116899 0.0274320021
v -0.414457351 1.23668647 0.218458459
v -0.432175368 0.895859957 0.178452581
v -0.194550946 0.896122694 0.478313446
v -0.4507038 0.896422148 0.00910973083
v -0.404987872 0.895624757 -0.153818458
v -0.36334911 0.895152509 0.332836807
v -0.46747154 0.586049736 0.15158844
v -0.464986295 0.641022801 0.00245582405
v -0.027600633 0.585760415 0.535302818
v -0.312637568 0.894957185 -0.293177664
v -0.225830451 0.638818085 -0.372338444
v -0.219509393 0.610796332 0.487389505
v -0.105330996 0.420901299 0.546573699
v 0.174635604 0.368043274 0.543120921
v 0.224187672 -0.0781959891 0.81178844
v -0.416552007 0.652748406 -0.157840759
v -0.3345294 0.648066103 -0.285062701
v -0.23906596 0.468641847 -0.376401961
v -0.370698184 0.618190646 0.355833739
v -0.277231008 0.447521538 0.477445066
v -0.200247452 0.00224510184 0.816962361
v 0.639159143 -1.03169477 1.73148954
v -0.280380934 -0.857196271 1.74262857
v -0.460771561 0.0428084955 0.712186813
v -0.844202459 -0.769330025 1.51588297
v -0.410938442 0.460083008 0.357979774
v -0.663645208 0.0615304559 0.531164527
v -1.28327227 -0.728789985 1.12419236
v -0.510270953 0.443972588 0.183933571
v -0.814668536 0.0363011919 0.267202765
v -1.61027098 -0.783531189 0.553039908
v -0.542485118 0.384104311 0.0490627289
v -0.863933623 -0.0554758459 0.0633809417
v -1.71717083 -0.982767284 0.111399218
v -0.496205658 0.446020067 -0.030791387
v -0.793122828 0.040233098 -0.0566849411
v -1.56334031 -0.774788678 -0.148173645
v -0.426012456 0.474860102 -0.168208227
v -0.686178327 0.0848042071 -0.265837461
v -1.33155608 -0.677994013 -0.601199865
v -0.348893762 0.474891871 -0.2858634
v -0.569182754 0.0848187059 -0.444429606
v -1.0782733 -0.677961111 -0.987846911
v -0.402643412 0.075415574 -0.581664205
v -0.717694998 -0.698257446 -1.28482592
v -0.0767256841 44.6713257 0.16223076
v -0.00755368033 44.6714134 0.0779695809
v -0.0595848113 44.6713867 0.105773002
v 0.0767250285 44.6713371 0.147117242
v 0.0489005595 44.6713905 0.0950895846
v 0.00755962823 44.6712532 0.231418312
v -0.0489178784 44.6712723 0.214281648
v 0.0596074052 44.6712799 0.203591645
vt 1.80506194 11.1097488
vt 1.7589128 9.14352798
vt 1.7589128 11.1097488
vt 1.80506194 9.14352798
vt 1.7589128 7.69287491
vt 1.86722851 11.1097488
vt 1.80506194 7.69287491
vt 1.7589128 6.31824684
vt 1.86722851 9.14352798
vt 1.9293952 11.1097488
vt 1.80506194 6.31824684
vt 1.7589128 5.23333263
vt 1.9293952 9.14352798
vt 1.98767638 11.1097488
vt 1.98767638 9.14352703
vt 1.86722851 7.69287491
vt 1.9293952 7.69287491
vt 1.98767638 7.69287491
vt 1.80506194 5.23333263
vt 1.7589128 4.25946331
vt 1.86722851 6.31824684
vt 1.9293952 6.31824684
vt 1.98767638 6.31824684
vt 1.80506194 4.25946331
vt 1.7589128 3.41135716
vt 1.86722851 5.23333263
vt 1.9293952 5.23333263
vt 1.98767638 5.23333263
vt 1.86722851 4.25946331
vt 1.9293952 4.25946331
vt 1.98767638 4.25946331
vt 1.80506194 3.4113462
vt 1.86722851 3.41134048
vt 1.9293952 3.41134739
vt 1.98767638 3.41136265
vt 1.98767638 3.30190063
vt 1.80506194 3.30190063
vt 1.7589128 3.30190063
vt 1.7589128 2.50042462
vt 1.86722851 3.30190063
vt 1.9293952 3.30190063
vt 1.80506194 2.50042462
vt 1.7589128 1.8084898
vt 1.9293952 2.50042462
vt 1.98767638 2.50042462
vt 1.86722851 2.50042462
vt 1.80506194 1.8084898
vt 1.7589128 1.13606954
vt 1.9293952 1.8084898
vt 1.98767638 1.8084898
vt 1.86722851 1.8084898
vt 1.80506194 1.13606954
vt 1.7589128 0.576655149
vt 1.9293952 1.13606954
vt 1.98767638 1.13606954
vt 1.86722851 1.13606954
vt 1.80506194 0.576648176
vt 1.9293952 0.57663554
vt 1.98767638 0.576638401
vt 1.98767638 0.504377484
vt 1.86722851 0.576639354
vt 1.80506194 0.504377484
vt 1.7589128 0.504377484
vt 1.7589128 -0.0214889646
vt 1.9293952 0.504377484
vt 1.86722851 0.504377484
vt 1.78952026 -0.0214889646
vt 1.7589128 -0.508419156
vt 1.82060361 -0.0214889646
vt 1.78952026 -0.508419156
vt 1.78952026 -0.74424994
vt 1.7589128 -0.744252264
vt 1.78952026 -1.0383997
vt 1.7589128 -1.0383997
vt 1.7589128 -1.16356015
vt 1.85168684 -0.0214889646
vt 1.82060361 -0.508419156
vt 1.82060361 -0.744247556
vt 1.82060361 -1.0383997
vt 1.78952026 -1.16355848
vt 1.88277018 -0.0214889646
vt 1.85168684 -0.508419156
vt 1.85168684 -0.744245231
vt 1.85168684 -1.0383997
vt 1.88277018 -0.508419156
vt 1.91385365 -0.0214889646
vt 1.94493687 -0.0214889646
vt 1.91385365 -0.508419156
vt 1.88277018 -0.744243503
vt 1.9760201 -0.0214889646
vt 1.99933267 -0.0214889646
vt 1.94493687 -0.508419156
vt 1.9760201 -0.508419156
vt 1.99933267 -0.508419394
vt 1.91385365 -0.744242549
vt 1.88277018 -1.0383997
vt 1.94493687 -0.744242549
vt 1.9760201 -0.744243443
vt 1.99933267 -0.744244814
vt 1.99933267 -1.0383997
vt 1.9760201 -1.0383997
vt 1.99933267 -1.16353428
vt 1.91385365 -1.0383997
vt 1.94493687 -1.0383997
vt 1.9760201 -1.16354084
vt 1.99933267 -1.29875755
vt 1.94493687 -1.16355705
vt 1.9760201 -1.29874849
vt 1.99933267 -1.42482078
vt 1.9760201 -1.42482889
vt 1.99933267 -1.47307539
vt 1.94493687 -1.29872477
vt 1.91385365 -1.16357327
vt 1.88277018 -1.16356409
vt 1.9760201 -1.47308254
vt 1.99933267 -1.52963376
vt 1.94493687 -1.4248414
vt 1.91385365 -1.29869211
vt 1.85168684 -1.16354942
vt 1.9760201 -1.5296334
vt 1.99933267 -1.57729542
vt 1.94493687 -1.47308755
vt 1.91385365 -1.42485249
vt 1.88277018 -1.29874849
vt 1.82060361 -1.16355157
vt 1.9760201 -1.57729578
vt 1.99933267 -1.72232795
vt 1.94493687 -1.52963662
vt 1.91385365 -1.47308755
vt 1.85168684 -1.29887772
vt 1.82060361 -1.29896665
vt 1.9760201 -1.72232747
vt 1.99933267 -1.76965022
vt 1.88277018 -1.42485046
vt 1.94493687 -1.57730126
vt 1.85168684 -1.42484117
vt 1.9760201 -1.76965725
vt 1.99933267 -1.93855667
vt 1.91385365 -1.52964246
vt 1.88277018 -1.4730854
vt 1.82060361 -1.42483473
vt 1.94493687 -1.72232211
vt 1.9760201 -1.93855667
vt 1.99933267 -2.10108757
vt 1.91385365 -1.57729959
vt 1.88277018 -1.52964759
vt 1.85168684 -1.47308207
vt 1.94493687 -1.76969278
vt 1.9760201 -2.10115719
vt 1.99933267 -2.1498425
vt 1.91385365 -1.72232378
vt 1.88277018 -1.57729149
vt 1.85168684 -1.52965045
vt 1.82060361 -1.47307813
vt 1.94493687 -1.93855667
vt 1.9760201 -2.14984226
vt 1.99933267 -2.2570672
vt 1.91385365 -1.76973462
vt 1.88277018 -1.72233176
vt 1.78952026 -1.42483115
vt 1.94493687 -2.10124516
vt 1.97626519 -2.25706506
vt 1.99925518 -2.37630773
vt 1.94493687 -2.14983177
vt 1.91385365 -2.10138345
vt 1.91385365 -1.93855667
vt 1.78952026 -1.29895759
vt 1.7589128 -1.29893613
vt 1.7589128 -1.42482471
vt 1.78952026 -1.47306967
vt 1.7589128 -1.47305465
vt 1.78952026 -1.52965164
vt 1.7589128 -1.52965808
vt 1.82060361 -1.52965009
vt 1.78952026 -1.57729483
vt 1.7589128 -1.57728672
vt 1.7589128 -1.72233677
vt 1.85168684 -1.57729161
vt 1.82060361 -1.57729638
vt 1.78952026 -1.72232842
vt 1.85168684 -1.72233176
vt 1.82060361 -1.72232699
vt 1.78952026 -1.76976442
vt 1.7589128 -1.76978278
vt 1.7589128 -1.93855667
vt 1.88277018 -1.76974988
vt 1.82060361 -1.76974511
vt 1.78952026 -1.93855667
vt 1.7589128 -2.10103607
vt 1.85168684 -1.76974463
vt 1.88277018 -1.93855667
vt 1.82060361 -1.93855667
vt 1.78952026 -2.1010294
vt 1.85168684 -1.93855667
vt 1.88277018 -2.10139132
vt 1.82060361 -2.10110092
vt 1.85168684 -2.10118175
vt 1.78952026 -2.14997435
vt 1.7589128 -2.15004301
vt 1.91385365 -2.14988422
vt 1.82060361 -2.14999413
vt 1.85168684 -2.14991999
vt 1.88277018 -2.14988208
vt 1.78999901 -2.25704241
vt 1.7589128 -2.25701952
vt 1.94525862 -2.25707579
vt 1.82105708 -2.25702262
vt 1.91397631 -2.25703192
vt 1.852054 -2.25702119
vt 1.88256395 -2.2569294
vt 1.78999901 -2.37630773
vt 1.75892377 -2.37630773
vt 1.78743172 -2.42097521
vt 1.75894427 -2.42224097
vt 1.75894427 -2.45345616
vt 1.82105708 -2.37630773
vt 1.852054 -2.37630773
vt 1.88256395 -2.37630773
vt 1.91397631 -2.37630773
vt 1.78313732 -2.45157504
vt 1.8055557 -2.45423365
vt 1.75894427 -2.47292256
vt 1.80859077 -2.42372251
vt 1.78281212 -2.47199821
vt 1.75894427 -2.47292256
vt 1.84831953 -2.4352653
vt 1.88323641 -2.43463945
vt 1.78281212 -2.47199821
vt 1.75894427 -2.47292256
vt 1.78281212 -2.47199821
vt 1.80199182 -2.47543573
vt 1.80199182 -2.47543573
vt 1.80199182 -2.47543573
vt 1.82618916 -2.48346138
vt 1.82618916 -2.48346138
vt 1.82618916 -2.48346138
vt 1.83271253 -2.46089411
vt 1.85478365 -2.48527074
vt 1.85478365 -2.48527074
vt 1.85478365 -2.48527074
vt 1.8546524 -2.46227026
vt 1.88477433 -2.46236491
vt 1.88416708 -2.48286819
vt 1.88416708 -2.48286819
vt 1.88416708 -2.48286819
vt 1.92096674 -2.46232295
vt 1.92137825 -2.48402429
vt 1.92137825 -2.48402429
vt 1.92137825 -2.48402429
vt 1.94620109 -2.48157048
vt 1.94620109 -2.48157048
vt 1.94620109 -2.48157048
vt 1.92314434 -2.43204045
vt 1.94837344 -2.46178126
vt 1.97687376 -2.48116875
vt 1.97687376 -2.48116875
vt 1.97687376 -2.48116875
vt 1.99925518 -2.48743963
vt 1.99925518 -2.48743963
vt 1.99925518 -2.48743963
vt 1.99925518 -2.46548414
vt 1.95256531 -2.43199277
vt 1.97614563 -2.46035004
vt 1.9771769 -2.42511797
vt 1.99925518 -2.42470646
vt 1.94525862 -2.37630773
vt 1.97626519 -2.37630773
vt 0.805062175 11.1097507
vt 0.758912742 9.14352608
vt 0.758912742 11.1097498
vt 0.805062175 9.14352608
vt 0.758912742 7.69287491
vt 0.867228568 11.1097507
vt 0.805062175 7.69287491
vt 0.758912742 6.31824684
vt 0.867228568 9.14352608
vt 0.92939508 11.1097507
vt 0.805062175 6.31824684
vt 0.758912742 5.23333263
vt 0.92939508 9.14352608
vt 0.987676382 11.1097507
vt 0.987676382 9.14352608
vt 0.867228568 7.69287491
vt 0.92939508 7.69287491
vt 0.987676382 7.69287491
vt 0.805062175 5.23333263
vt 0.758912742 4.25946331
vt 0.867228568 6.31824684
vt 0.92939508 6.31824684
vt 0.987676382 6.31824684
vt 0.805062175 4.25946331
vt 0.758912742 3.41136813
vt 0.867228568 5.23333263
vt 0.92939508 5.23333263
vt 0.987676382 5.23333263
vt 0.867228568 4.25946331
vt 0.92939508 4.25946331
vt 0.987676382 4.25946331
vt 0.805062175 3.41137886
vt 0.867228568 3.41138482
vt 0.92939508 3.41137743
vt 0.987676382 3.41136265
vt 0.987676382 3.30190063
vt 0.805062175 3.30190063
vt 0.758912742 3.30190063
vt 0.758912742 2.50042462
vt 0.92939508 3.30190063
vt 0.867228568 3.30190063
vt 0.805062175 2.50042462
vt 0.758912742 1.80848968
vt 0.92939508 2.50042462
vt 0.987676382 2.50042462
vt 0.867228568 2.50042462
vt 0.805062175 1.80848956
vt 0.758912742 1.13606954
vt 0.92939508 1.80848956
vt 0.987676382 1.80848956
vt 0.867228568 1.80848956
vt 0.805062175 1.13606954
vt 0.758912742 0.576640487
vt 0.92939508 1.13606954
vt 0.987676382 1.13606954
vt 0.867228568 1.13606954
vt 0.805062175 0.57664752
vt 0.92939508 0.576660216
vt 0.987676382 0.576657176
vt 0.987676382 0.504377484
vt 0.867228568 0.576656401
vt 0.805062175 0.504377484
vt 0.758912742 0.504377484
vt 0.758912742 -0.0214889646
vt 0.92939508 0.504377484
vt 0.867228568 0.504377484
vt 0.789520502 -0.0214889646
vt 0.758912742 -0.508419514
vt 0.820603788 -0.0214889646
vt 0.789520502 -0.508419633
vt 0.758912742 -0.74424541
vt 0.851687074 -0.0214889646
vt 0.820603788 -0.508419633
vt 0.789520502 -0.744247794
vt 0.882770061 -0.0214889646
vt 0.851687074 -0.508419633
vt 0.789520502 -1.0383997
vt 0.758912742 -1.0383997
vt 0.820603788 -0.744250178
vt 0.820603788 -1.0383997
vt 0.789520502 -1.1635251
vt 0.758912742 -1.16353226
vt 0.820603788 -1.16352248
vt 0.789520502 -1.29881203
vt 0.758912742 -1.29876423
vt 0.820603788 -1.29888403
vt 0.789520502 -1.42480683
vt 0.758912742 -1.42481804
vt 0.820603788 -1.42479742
vt 0.789520502 -1.47305894
vt 0.758912742 -1.47307253
vt 0.820603788 -1.47304308
vt 0.789520502 -1.52963948
vt 0.758912742 -1.52963448
vt 0.820603788 -1.52964854
vt 0.789520502 -1.57729089
vt 0.758912742 -1.57729542
vt 0.820603788 -1.57727826
vt 0.789520502 -1.72233248
vt 0.758912742 -1.72232795
vt 0.820603788 -1.72234511
vt 0.789520502 -1.76965714
vt 0.758912742 -1.76965117
vt 0.820603788 -1.76966476
vt 0.789520502 -1.93855667
vt 0.758912742 -1.93855667
vt 0.820603788 -1.93855667
vt 0.789520502 -2.10107803
vt 0.758912742 -2.10108256
vt 0.820603788 -2.10106897
vt 0.851687074 -1.93855667
vt 0.851687074 -1.76967931
vt 0.851687074 -1.72235572
vt 0.789520502 -2.14985228
vt 0.758912742 -2.14981389
vt 0.820603788 -2.14981055
vt 0.789999008 -2.25703955
vt 0.758912742 -2.25708485
vt 0.851687074 -1.57726765
vt 0.821057141 -2.25702572
vt 0.789999008 -2.37630773
vt 0.758904159 -2.37630773
vt 0.821057141 -2.37630773
vt 0.791092873 -2.42216396
vt 0.758922398 -2.4225533
vt 0.758954227 -2.47173667
vt 0.851687074 -1.52965736
vt 0.851687074 -1.47303009
vt 0.851687074 -1.42479157
vt 0.851687074 -1.29895687
vt 0.851687074 -1.16352415
vt 0.851687074 -1.0383997
vt 0.851687074 -0.744252443
vt 0.882770061 -1.0383997
vt 0.882770061 -0.508419633
vt 0.882770061 -0.744254231
vt 0.913853407 -0.0214889646
vt 0.913853407 -0.508419633
vt 0.944936752 -0.0214889646
vt 0.976020157 -0.0214889646
vt 0.999332607 -0.0214889646
vt 0.944936752 -0.508419633
vt 0.976020157 -0.508419633
vt 0.999332607 -0.508419633
vt 0.913853407 -0.744255185
vt 0.913853407 -1.0383997
vt 0.944936752 -0.744255185
vt 0.976020157 -0.744254231
vt 0.999332607 -0.744253159
vt 0.999332607 -1.0383997
vt 0.944936752 -1.0383997
vt 0.976020157 -1.0383997
vt 0.882770061 -1.16353095
vt 0.976020157 -1.16355038
vt 0.999332607 -1.16355908
vt 0.999332607 -1.29893661
vt 0.913853407 -1.16353774
vt 0.944936752 -1.16354156
vt 0.882770061 -1.29900718
vt 0.976020157 -1.29897702
vt 0.913853407 -1.29902959
vt 0.944936752 -1.29902482
vt 0.882770061 -1.42479134
vt 0.913853407 -1.42479491
vt 0.976020157 -1.42481279
vt 0.999332607 -1.42482245
vt 0.999332607 -1.47305071
vt 0.944936752 -1.42480135
vt 0.976020157 -1.47303927
vt 0.999332607 -1.52965987
vt 0.882770061 -1.47302389
vt 0.913853407 -1.47302222
vt 0.944936752 -1.47302723
vt 0.976020157 -1.52966464
vt 0.999332607 -1.57728481
vt 0.882770061 -1.52966309
vt 0.913853407 -1.52966762
vt 0.944936752 -1.52966857
vt 0.976020157 -1.57728362
vt 0.882770061 -1.57726526
vt 0.913853407 -1.57727063
vt 0.944936752 -1.57728016
vt 0.976020157 -1.72233975
vt 0.999332607 -1.72233856
vt 0.999332607 -1.76978493
vt 0.882770061 -1.72235799
vt 0.913853407 -1.72235274
vt 0.944936752 -1.72234321
vt 0.976020157 -1.76978052
vt 0.882770061 -1.76970482
vt 0.913853407 -1.76973605
vt 0.944936752 -1.76976359
vt 0.976020157 -1.93855667
vt 0.999332607 -1.93855667
vt 0.944936752 -1.93855667
vt 0.882770061 -1.93855667
vt 0.913853407 -1.93855667
vt 0.976020157 -2.10103226
vt 0.999332607 -2.10105014
vt 0.999332607 -2.1499958
vt 0.882770061 -2.10105538
vt 0.913853407 -2.10104585
vt 0.944936752 -2.1010232
vt 0.976020157 -2.14996672
vt 0.999332607 -2.25706482
vt 0.944936752 -2.15000987
vt 0.976265192 -2.25698948
vt 0.99925524 -2.37630773
vt 0.913853407 -2.14990354
vt 0.851687074 -2.10107994
vt 0.976265192 -2.37630773
vt 0.999255478 -2.42519164
vt 0.945258677 -2.2570014
vt 0.882770061 -2.14976978
vt 0.851687074 -2.14945316
vt 0.913976312 -2.25707531
vt 0.852054 -2.2571106
vt 0.882563949 -2.25703859
vt 0.945258677 -2.37630773
vt 0.852054 -2.37630773
vt 0.913976312 -2.37630773
vt 0.882563949 -2.37630773
vt 0.890126526 -2.4216969
vt 0.824501514 -2.42203212
vt 0.919447422 -2.42161274
vt 0.948460758 -2.42183304
vt 0.861271143 -2.42183995
vt 0.895853579 -2.46337843
vt 0.921091139 -2.45589423
vt 0.793239951 -2.46572876
vt 0.976826191 -2.42291713
vt 0.999255478 -2.46093297
vt 0.825801015 -2.46146226
vt 0.80339247 -2.48877788
vt 0.758954227 -2.49877572
vt 0.758954227 -2.49877572
vt 0.949393451 -2.45521235
vt 0.975210965 -2.45723987
vt 0.999255478 -2.48446059
vt 0.858676255 -2.4599328
vt 0.833468616 -2.48429942
vt 0.80339247 -2.48877788
vt 0.758954227 -2.49877572
vt 0.80339247 -2.48877788
vt 0.833468616 -2.48429942
vt 0.833468616 -2.48429942
vt 0.862161219 -2.48279071
vt 0.862161219 -2.48279071
vt 0.862161219 -2.48279071
vt 0.893372416 -2.48497462
vt 0.893372416 -2.48497462
vt 0.893372416 -2.48497462
vt 0.913936198 -2.49080968
vt 0.913936198 -2.49080968
vt 0.913936198 -2.49080968
vt 0.926297605 -2.48254395
vt 0.926297605 -2.48254395
vt 0.926297605 -2.48254395
vt 0.951136589 -2.47967553
vt 0.951136589 -2.47967553
vt 0.951136589 -2.47967553
vt 0.974442959 -2.4812789
vt 0.974442959 -2.4812789
vt 0.974442959 -2.4812789
vt 0.999255478 -2.48446059
vt 0.999255478 -2.48446059
vt 0.528510451 4.15500021
vt 0.619892836 4.15500021
vt 0.58984375 4.15500021
vt 0.538898766 4.15500021
vt 0.611486495 4.15500021
vt 0.381232947 4.15500021
vt 0.388513505 4.15500021
vt 0.443524569 4.15500021
g submesh0
f 1/1 2/2 3/3
f 2/2 1/1 4/4
f 4/4 5/5 2/2
f 6/6 4/4 1/1
f 5/5 4/4 7/7
f 7/7 8/8 5/5
f 4/4 6/6 9/9
f 9/9 7/7 4/4
f 10/10 9/9 6/6
f 8/8 7/7 11/11
f 11/11 12/12 8/8
f 9/9 10/10 13/13
f 14/14 13/13 10/10
f 13/13 14/14 15/15
f 7/7 9/9 16/16
f 13/13 16/16 9/9
f 16/16 11/11 7/7
f 15/15 17/17 13/13
f 16/16 13/13 17/17
f 17/17 15/15 18/18
f 12/12 11/11 19/19
f 19/19 20/20 12/12
f 11/11 16/16 21/21
f 17/17 21/21 16/16
f 21/21 19/19 11/11
f 18/18 22/22 17/17
f 21/21 17/17 22/22
f 22/22 18/18 23/23
f 20/20 19/19 24/24
f 24/24 25/25 20/20
f 19/19 21/21 26/26
f 22/22 26/26 21/21
f 26/26 24/24 19/19
f 23/23 27/27 22/22
f 26/26 22/22 27/27
f 27/27 23/23 28/28
f 24/24 26/26 29/29
f 27/27 29/29 26/26
f 28/28 30/30 27/27
f 29/29 27/27 30/30
f 30/30 28/28 31/31
f 25/25 24/24 32/32
f 29/29 32/32 24/24
f 30/30 33/33 29/29
f 32/32 29/29 33/33
f 31/31 34/34 30/30
f 33/33 30/30 34/34
f 34/34 31/31 35/35
f 36/36 34/34 35/35
f 37/37 25/25 32/32
f 25/25 37/37 38/38
f 37/37 39/39 38/38
f 40/40 32/32 33/33
f 32/32 40/40 37/37
f 41/41 33/33 34/34
f 34/34 36/36 41/41
f 33/33 41/41 40/40
f 39/39 37/37 42/42
f 40/40 42/42 37/37
f 42/42 43/43 39/39
f 36/36 44/44 41/41
f 44/44 36/36 45/45
f 41/41 46/46 40/40
f 42/42 40/40 46/46
f 46/46 41/41 44/44
f 43/43 42/42 47/47
f 46/46 47/47 42/42
f 47/47 48/48 43/43
f 45/45 49/49 44/44
f 49/49 45/45 50/50
f 44/44 51/51 46/46
f 47/47 46/46 51/51
f 51/51 44/44 49/49
f 48/48 47/47 52/52
f 51/51 52/52 47/47
f 52/52 53/53 48/48
f 50/50 54/54 49/49
f 54/54 50/50 55/55
f 49/49 56/56 51/51
f 52/52 51/51 56/56
f 56/56 49/49 54/54
f 53/53 52/52 57/57
f 56/56 57/57 52/52
f 55/55 58/58 54/54
f 58/58 55/55 59/59
f 60/60 58/58 59/59
f 54/54 61/61 56/56
f 61/61 54/54 58/58
f 57/57 56/56 61/61
f 62/62 53/53 57/57
f 53/53 62/62 63/63
f 62/62 64/64 63/63
f 65/65 61/61 58/58
f 58/58 60/60 65/65
f 66/66 57/57 61/61
f 57/57 66/66 62/62
f 61/61 65/65 66/66
f 64/64 62/62 67/67
f 67/67 68/68 64/64
f 67/67 62/62 69/69
f 66/66 69/69 62/62
f 68/68 67/67 70/70
f 69/69 70/70 67/67
f 71/71 68/68 70/70
f 68/68 71/71 72/72
f 73/73 72/72 71/71
f 72/72 73/73 74/74
f 73/73 75/75 74/74
f 69/69 66/66 76/76
f 70/70 69/69 77/77
f 76/76 77/77 69/69
f 70/70 78/78 71/71
f 78/78 70/70 77/77
f 71/71 79/79 73/73
f 79/79 71/71 78/78
f 75/75 73/73 80/80
f 79/79 80/80 73/73
f 76/76 66/66 81/81
f 65/65 81/81 66/66
f 77/77 76/76 82/82
f 81/81 82/82 76/76
f 77/77 83/83 78/78
f 83/83 77/77 82/82
f 78/78 84/84 79/79
f 84/84 78/78 83/83
f 82/82 81/81 85/85
f 85/85 83/83 82/82
f 81/81 65/65 86/86
f 86/86 85/85 81/81
f 86/86 65/65 87/87
f 60/60 87/87 65/65
f 85/85 86/86 88/88
f 87/87 88/88 86/86
f 83/83 85/85 89/89
f 88/88 89/89 85/85
f 87/87 60/60 90/90
f 90/90 60/60 91/91
f 88/88 87/87 92/92
f 90/90 92/92 87/87
f 91/91 93/93 90/90
f 92/92 90/90 93/93
f 93/93 91/91 94/94
f 92/92 95/95 88/88
f 89/89 88/88 95/95
f 96/96 83/83 89/89
f 83/83 96/96 84/84
f 93/93 97/97 92/92
f 95/95 92/92 97/97
f 94/94 98/98 93/93
f 97/97 93/93 98/98
f 98/98 94/94 99/99
f 100/100 98/98 99/99
f 98/98 100/100 101/101
f 101/101 97/97 98/98
f 102/102 101/101 100/100
f 103/103 89/89 95/95
f 89/89 103/103 96/96
f 104/104 95/95 97/97
f 97/97 101/101 104/104
f 95/95 104/104 103/103
f 101/101 102/102 105/105
f 105/105 104/104 101/101
f 106/106 105/105 102/102
f 104/104 105/105 107/107
f 107/107 103/103 104/104
f 105/105 106/106 108/108
f 108/108 107/107 105/105
f 109/109 108/108 106/106
f 108/108 109/109 110/110
f 111/111 110/110 109/109
f 107/107 108/108 112/112
f 110/110 112/112 108/108
f 103/103 107/107 113/113
f 112/112 113/113 107/107
f 103/103 114/114 96/96
f 114/114 103/103 113/113
f 110/110 111/111 115/115
f 116/116 115/115 111/111
f 112/112 110/110 117/117
f 115/115 117/117 110/110
f 113/113 112/112 118/118
f 118/118 114/114 113/113
f 117/117 118/118 112/112
f 119/119 96/96 114/114
f 96/96 119/119 84/84
f 115/115 116/116 120/120
f 121/121 120/120 116/116
f 117/117 115/115 122/122
f 120/120 122/122 115/115
f 118/118 117/117 123/123
f 122/122 123/123 117/117
f 114/114 118/118 124/124
f 124/124 119/119 114/114
f 123/123 124/124 118/118
f 125/125 84/84 119/119
f 84/84 125/125 79/79
f 80/80 79/79 125/125
f 120/120 121/121 126/126
f 127/127 126/126 121/121
f 122/122 120/120 128/128
f 126/126 128/128 120/120
f 123/123 122/122 129/129
f 128/128 129/129 122/122
f 130/130 125/125 119/119
f 119/119 124/124 130/130
f 131/131 80/80 125/125
f 125/125 130/130 131/131
f 126/126 127/127 132/132
f 133/133 132/132 127/127
f 124/124 123/123 134/134
f 129/129 134/134 123/123
f 128/128 126/126 135/135
f 132/132 135/135 126/126
f 124/124 136/136 130/130
f 136/136 124/124 134/134
f 132/132 133/133 137/137
f 138/138 137/137 133/133
f 129/129 128/128 139/139
f 135/135 139/139 128/128
f 134/134 129/129 140/140
f 140/140 136/136 134/134
f 139/139 140/140 129/129
f 141/141 130/130 136/136
f 130/130 141/141 131/131
f 135/135 132/132 142/142
f 137/137 142/142 132/132
f 137/137 138/138 143/143
f 144/144 143/143 138/138
f 139/139 135/135 145/145
f 142/142 145/145 135/135
f 140/140 139/139 146/146
f 145/145 146/146 139/139
f 136/136 140/140 147/147
f 147/147 141/141 136/136
f 146/146 147/147 140/140
f 142/142 137/137 148/148
f 143/143 148/148 137/137
f 143/143 144/144 149/149
f 150/150 149/149 144/144
f 145/145 142/142 151/151
f 148/148 151/151 142/142
f 146/146 145/145 152/152
f 151/151 152/152 145/145
f 147/147 146/146 153/153
f 152/152 153/153 146/146
f 141/141 147/147 154/154
f 153/153 154/154 147/147
f 148/148 143/143 155/155
f 149/149 155/155 143/143
f 149/149 150/150 156/156
f 157/157 156/156 150/150
f 151/151 148/148 158/158
f 155/155 158/158 148/148
f 152/152 151/151 159/159
f 158/158 159/159 151/151
f 154/154 160/160 141/141
f 160/160 131/131 141/141
f 155/155 149/149 161/161
f 156/156 161/161 149/149
f 156/156 157/157 162/162
f 163/163 162/162 157/157
f 161/161 156/156 164/164
f 162/162 164/164 156/156
f 165/165 155/155 161/161
f 164/164 165/165 161/161
f 158/158 155/155 166/166
f 155/155 165/165 166/166
f 131/131 160/160 167/167
f 80/80 131/131 167/167
f 167/167 75/75 80/80
f 75/75 167/167 168/168
f 167/167 169/169 168/168
f 169/169 167/167 160/160
f 170/170 169/169 160/160
f 169/169 170/170 171/171
f 160/160 154/154 170/170
f 172/172 171/171 170/170
f 171/171 172/172 173/173
f 174/174 170/170 154/154
f 170/170 174/174 172/172
f 154/154 153/153 174/174
f 175/175 173/173 172/172
f 173/173 175/175 176/176
f 175/175 177/177 176/176
f 178/178 174/174 153/153
f 153/153 152/152 178/178
f 179/179 172/172 174/174
f 172/172 179/179 175/175
f 174/174 178/178 179/179
f 177/177 175/175 180/180
f 179/179 180/180 175/175
f 152/152 181/181 178/178
f 181/181 152/152 159/159
f 178/178 182/182 179/179
f 180/180 179/179 182/182
f 182/182 178/178 181/181
f 183/183 177/177 180/180
f 177/177 183/183 184/184
f 183/183 185/185 184/184
f 186/186 181/181 159/159
f 159/159 158/158 186/186
f 166/166 186/186 158/158
f 187/187 180/180 182/182
f 180/180 187/187 183/183
f 185/185 183/183 188/188
f 187/187 188/188 183/183
f 188/188 189/189 185/185
f 190/190 182/182 181/181
f 181/181 186/186 190/190
f 182/182 190/190 187/187
f 186/186 166/166 191/191
f 191/191 190/190 186/186
f 188/188 187/187 192/192
f 190/190 192/192 187/187
f 189/189 188/188 193/193
f 192/192 193/193 188/188
f 192/192 190/190 194/194
f 190/190 191/191 194/194
f 166/166 195/195 191/191
f 195/195 166/166 165/165
f 194/194 196/196 192/192
f 193/193 192/192 196/196
f 191/191 197/197 194/194
f 197/197 191/191 195/195
f 196/196 194/194 197/197
f 198/198 189/189 193/193
f 189/189 198/198 199/199
f 200/200 195/195 165/165
f 165/165 164/164 200/200
f 201/201 193/193 196/196
f 193/193 201/201 198/198
f 202/202 196/196 197/197
f 196/196 202/202 201/201
f 203/203 197/197 195/195
f 195/195 200/200 203/203
f 197/197 203/203 202/202
f 204/204 199/199 198/198
f 199/199 204/204 205/205
f 206/206 200/200 164/164
f 164/164 162/162 206/206
f 207/207 198/198 201/201
f 198/198 207/207 204/204
f 208/208 203/203 200/200
f 200/200 206/206 208/208
f 209/209 201/201 202/202
f 201/201 209/209 207/207
f 210/210 202/202 203/203
f 203/203 208/208 210/210
f 202/202 210/210 209/209
f 211/211 205/205 204/204
f 205/205 211/211 212/212
f 213/213 212/212 211/211
f 212/212 213/213 214/214
f 213/213 215/215 214/214
f 204/204 216/216 211/211
f 216/216 204/204 207/207
f 216/216 213/213 211/211
f 217/217 207/207 209/209
f 207/207 217/217 216/216
f 218/218 209/209 210/210
f 209/209 218/218 217/217
f 219/219 210/210 208/208
f 210/210 219/219 218/218
f 215/215 213/213 220/220
f 213/213 221/221 220/220
f 220/220 222/222 215/215
f 213/213 216/216 223/223
f 217/217 223/223 216/216
f 221/221 213/213 223/223
f 222/222 220/220 224/224
f 221/221 224/224 220/220
f 224/224 225/225 222/222
f 223/223 217/217 226/226
f 226/226 221/221 223/223
f 227/227 217/217 218/218
f 217/217 227/227 226/226
f 225/225 224/224 228/228
f 228/228 229/229 225/225
f 229/229 228/228 230/230
f 231/231 228/228 224/224
f 224/224 221/221 231/231
f 232/232 230/230 228/228
f 228/228 231/231 232/232
f 230/230 232/232 233/233
f 221/221 234/234 231/231
f 234/234 232/232 231/231
f 235/235 233/233 232/232
f 232/232 234/234 235/235
f 233/233 235/235 236/236
f 234/234 221/221 237/237
f 221/221 226/226 237/237
f 238/238 235/235 234/234
f 237/237 238/238 234/234
f 239/239 236/236 235/235
f 235/235 238/238 239/239
f 236/236 239/239 240/240
f 226/226 241/241 237/237
f 238/238 237/237 241/241
f 226/226 242/242 241/241
f 242/242 238/238 241/241
f 242/242 226/226 227/227
f 243/243 239/239 238/238
f 238/238 242/242 243/243
f 244/244 240/240 239/239
f 239/239 243/243 244/244
f 240/240 244/244 245/245
f 227/227 246/246 242/242
f 246/246 243/243 242/242
f 247/247 244/244 243/243
f 243/243 246/246 247/247
f 248/248 245/245 244/244
f 244/244 247/247 248/248
f 245/245 248/248 249/249
f 250/250 248/248 247/247
f 246/246 250/250 247/247
f 251/251 249/249 248/248
f 248/248 250/250 251/251
f 249/249 251/251 252/252
f 246/246 227/227 253/253
f 218/218 253/253 227/227
f 253/253 218/218 219/219
f 250/250 246/246 254/254
f 253/253 254/254 246/246
f 255/255 251/251 250/250
f 254/254 255/255 250/250
f 256/256 252/252 251/251
f 251/251 255/255 256/256
f 252/252 256/256 257/257
f 258/258 257/257 256/256
f 257/257 258/258 259/259
f 256/256 260/260 258/258
f 260/260 256/256 255/255
f 255/255 261/261 260/260
f 219/219 262/262 253/253
f 254/254 253/253 262/262
f 255/255 254/254 263/263
f 261/261 255/255 263/263
f 262/262 263/263 254/254
f 264/264 261/261 263/263
f 263/263 262/262 264/264
f 261/261 264/264 265/265
f 264/264 163/163 265/265
f 262/262 219/219 266/266
f 266/266 264/264 262/262
f 208/208 266/266 219/219
f 266/266 208/208 206/206
f 163/163 264/264 267/267
f 264/264 266/266 267/267
f 206/206 267/267 266/266
f 162/162 163/163 267/267
f 267/267 206/206 162/162
f 268/268 269/269 270/270
f 269/269 268/268 271/271
f 271/271 272/272 269/269
f 273/273 271/271 268/268
f 272/272 271/271 274/274
f 274/274 275/275 272/272
f 271/271 273/273 276/276
f 276/276 274/274 271/271
f 277/277 276/276 273/273
f 275/275 274/274 278/278
f 278/278 279/279 275/275
f 276/276 277/277 280/280
f 281/281 280/280 277/277
f 280/280 281/281 282/282
f 274/274 276/276 283/283
f 280/280 283/283 276/276
f 283/283 278/278 274/274
f 282/282 284/284 280/280
f 283/283 280/280 284/284
f 284/284 282/282 285/285
f 279/279 278/278 286/286
f 286/286 287/287 279/279
f 278/278 283/283 288/288
f 284/284 288/288 283/283
f 288/288 286/286 278/278
f 285/285 289/289 284/284
f 288/288 284/284 289/289
f 289/289 285/285 290/290
f 287/287 286/286 291/291
f 291/291 292/292 287/287
f 286/286 288/288 293/293
f 289/289 293/293 288/288
f 293/293 291/291 286/286
f 290/290 294/294 289/289
f 293/293 289/289 294/294
f 294/294 290/290 295/295
f 291/291 293/293 296/296
f 294/294 296/296 293/293
f 295/295 297/297 294/294
f 296/296 294/294 297/297
f 297/297 295/295 298/298
f 292/292 291/291 299/299
f 296/296 299/299 291/291
f 297/297 300/300 296/296
f 299/299 296/296 300/300
f 298/298 301/301 297/297
f 300/300 297/297 301/301
f 301/301 298/298 302/302
f 303/303 301/301 302/302
f 304/304 292/292 299/299
f 292/292 304/304 305/305
f 304/304 306/306 305/305
f 307/307 300/300 301/301
f 301/301 303/303 307/307
f 308/308 299/299 300/300
f 299/299 308/308 304/304
f 300/300 307/307 308/308
f 306/306 304/304 309/309
f 308/308 309/309 304/304
f 309/309 310/310 306/306
f 303/303 311/311 307/307
f 311/311 303/303 312/312
f 307/307 313/313 308/308
f 309/309 308/308 313/313
f 313/313 307/307 311/311
f 310/310 309/309 314/314
f 313/313 314/314 309/309
f 314/314 315/315 310/310
f 312/312 316/316 311/311
f 316/316 312/312 317/317
f 311/311 318/318 313/313
f 314/314 313/313 318/318
f 318/318 311/311 316/316
f 315/315 314/314 319/319
f 318/318 319/319 314/314
f 319/319 320/320 315/315
f 317/317 321/321 316/316
f 321/321 317/317 322/322
f 316/316 323/323 318/318
f 319/319 318/318 323/323
f 323/323 316/316 321/321
f 320/320 319/319 324/324
f 323/323 324/324 319/319
f 322/322 325/325 321/321
f 325/325 322/322 326/326
f 327/327 325/325 326/326
f 321/321 328/328 323/323
f 328/328 321/321 325/325
f 324/324 323/323 328/328
f 329/329 320/320 324/324
f 320/320 329/329 330/330
f 329/329 331/331 330/330
f 332/332 328/328 325/325
f 325/325 327/327 332/332
f 333/333 324/324 328/328
f 324/324 333/333 329/329
f 328/328 332/332 333/333
f 331/331 329/329 334/334
f 334/334 335/335 331/331
f 334/334 329/329 336/336
f 333/333 336/336 329/329
f 335/335 334/334 337/337
f 336/336 337/337 334/334
f 337/337 338/338 335/335
f 336/336 333/333 339/339
f 337/337 336/336 340/340
f 339/339 340/340 336/336
f 338/338 337/337 341/341
f 340/340 341/341 337/337
f 339/339 333/333 342/342
f 332/332 342/342 333/333
f 340/340 339/339 343/343
f 342/342 343/343 339/339
f 344/344 338/338 341/341
f 338/338 344/344 345/345
f 341/341 340/340 346/346
f 343/343 346/346 340/340
f 341/341 347/347 344/344
f 347/347 341/341 346/346
f 348/348 345/345 344/344
f 345/345 348/348 349/349
f 350/350 344/344 347/347
f 344/344 350/350 348/348
f 351/351 349/349 348/348
f 349/349 351/351 352/352
f 353/353 348/348 350/350
f 348/348 353/353 351/351
f 354/354 352/352 351/351
f 352/352 354/354 355/355
f 356/356 351/351 353/353
f 351/351 356/356 354/354
f 357/357 355/355 354/354
f 355/355 357/357 358/358
f 359/359 354/354 356/356
f 354/354 359/359 357/357
f 360/360 358/358 357/357
f 358/358 360/360 361/361
f 362/362 357/357 359/359
f 357/357 362/362 360/360
f 363/363 361/361 360/360
f 361/361 363/363 364/364
f 365/365 360/360 362/362
f 360/360 365/365 363/363
f 366/366 364/364 363/363
f 364/364 366/366 367/367
f 368/368 363/363 365/365
f 363/363 368/368 366/366
f 369/369 367/367 366/366
f 367/367 369/369 370/370
f 371/371 366/366 368/368
f 366/366 371/371 369/369
f 372/372 370/370 369/369
f 370/370 372/372 373/373
f 374/374 369/369 371/371
f 369/369 374/374 372/372
f 375/375 373/373 372/372
f 373/373 375/375 376/376
f 377/377 372/372 374/374
f 372/372 377/377 375/375
f 371/371 378/378 374/374
f 378/378 377/377 374/374
f 368/368 379/379 371/371
f 378/378 371/371 379/379
f 365/365 380/380 368/368
f 379/379 368/368 380/380
f 381/381 376/376 375/375
f 376/376 381/381 382/382
f 383/383 375/375 377/377
f 375/375 383/383 381/381
f 384/384 382/382 381/381
f 382/382 384/384 385/385
f 380/380 365/365 386/386
f 362/362 386/386 365/365
f 387/387 381/381 383/383
f 381/381 387/387 384/384
f 388/388 385/385 384/384
f 385/385 388/388 389/389
f 384/384 390/390 388/388
f 390/390 384/384 387/387
f 391/391 389/389 388/388
f 390/390 391/391 388/388
f 389/389 391/391 392/392
f 391/391 393/393 392/392
f 386/386 362/362 394/394
f 359/359 394/394 362/362
f 394/394 359/359 395/395
f 356/356 395/395 359/359
f 395/395 356/356 396/396
f 353/353 396/396 356/356
f 396/396 353/353 397/397
f 350/350 397/397 353/353
f 397/397 350/350 398/398
f 347/347 398/398 350/350
f 398/398 347/347 399/399
f 346/346 399/399 347/347
f 399/399 346/346 400/400
f 346/346 343/343 400/400
f 401/401 398/398 399/399
f 400/400 401/401 399/399
f 402/402 400/400 343/343
f 343/343 342/342 402/402
f 401/401 400/400 403/403
f 400/400 402/402 403/403
f 404/404 402/402 342/342
f 342/342 332/332 404/404
f 402/402 404/404 405/405
f 405/405 403/403 402/402
f 404/404 332/332 406/406
f 406/406 405/405 404/404
f 327/327 406/406 332/332
f 406/406 327/327 407/407
f 407/407 327/327 408/408
f 405/405 406/406 409/409
f 407/407 409/409 406/406
f 408/408 410/410 407/407
f 409/409 407/407 410/410
f 410/410 408/408 411/411
f 403/403 405/405 412/412
f 409/409 412/412 405/405
f 403/403 413/413 401/401
f 413/413 403/403 412/412
f 410/410 414/414 409/409
f 412/412 409/409 414/414
f 411/411 415/415 410/410
f 414/414 410/410 415/415
f 415/415 411/411 416/416
f 417/417 415/415 416/416
f 418/418 412/412 414/414
f 412/412 418/418 413/413
f 419/419 414/414 415/415
f 415/415 417/417 419/419
f 414/414 419/419 418/418
f 413/413 420/420 401/401
f 398/398 401/401 420/420
f 417/417 421/421 419/419
f 421/421 417/417 422/422
f 423/423 421/421 422/422
f 418/418 424/424 413/413
f 420/420 413/413 424/424
f 419/419 425/425 418/418
f 425/425 419/419 421/421
f 424/424 418/418 425/425
f 426/426 398/398 420/420
f 398/398 426/426 397/397
f 421/421 423/423 427/427
f 427/427 425/425 421/421
f 428/428 420/420 424/424
f 420/420 428/428 426/426
f 429/429 424/424 425/425
f 424/424 429/429 428/428
f 425/425 427/427 429/429
f 430/430 397/397 426/426
f 397/397 430/430 396/396
f 431/431 426/426 428/428
f 429/429 431/431 428/428
f 426/426 431/431 430/430
f 423/423 432/432 427/427
f 432/432 423/423 433/433
f 434/434 432/432 433/433
f 427/427 435/435 429/429
f 435/435 427/427 432/432
f 431/431 429/429 435/435
f 432/432 434/434 436/436
f 436/436 435/435 432/432
f 437/437 436/436 434/434
f 438/438 396/396 430/430
f 396/396 438/438 395/395
f 439/439 430/430 431/431
f 430/430 439/439 438/438
f 440/440 431/431 435/435
f 435/435 436/436 440/440
f 431/431 440/440 439/439
f 436/436 437/437 441/441
f 441/441 440/440 436/436
f 442/442 441/441 437/437
f 443/443 395/395 438/438
f 395/395 443/443 394/394
f 444/444 438/438 439/439
f 438/438 444/444 443/443
f 445/445 439/439 440/440
f 440/440 441/441 445/445
f 439/439 445/445 444/444
f 441/441 442/442 446/446
f 446/446 445/445 441/441
f 447/447 394/394 443/443
f 394/394 447/447 386/386
f 448/448 443/443 444/444
f 443/443 448/448 447/447
f 449/449 444/444 445/445
f 444/444 449/449 448/448
f 445/445 446/446 449/449
f 442/442 450/450 446/446
f 450/450 442/442 451/451
f 452/452 450/450 451/451
f 453/453 386/386 447/447
f 386/386 453/453 380/380
f 454/454 447/447 448/448
f 449/449 454/454 448/448
f 447/447 454/454 453/453
f 446/446 455/455 449/449
f 455/455 446/446 450/450
f 454/454 449/449 455/455
f 450/450 452/452 456/456
f 456/456 455/455 450/450
f 457/457 380/380 453/453
f 380/380 457/457 379/379
f 458/458 453/453 454/454
f 453/453 458/458 457/457
f 459/459 454/454 455/455
f 455/455 456/456 459/459
f 454/454 459/459 458/458
f 452/452 460/460 456/456
f 460/460 452/452 461/461
f 456/456 462/462 459/459
f 462/462 458/458 459/459
f 462/462 456/456 460/460
f 463/463 379/379 457/457
f 379/379 463/463 378/378
f 464/464 457/457 458/458
f 457/457 464/464 463/463
f 458/458 462/462 464/464
f 461/461 465/465 460/460
f 465/465 461/461 466/466
f 467/467 465/465 466/466
f 468/468 378/378 463/463
f 464/464 468/468 463/463
f 462/462 469/469 464/464
f 468/468 464/464 469/469
f 460/460 470/470 462/462
f 470/470 460/460 465/465
f 469/469 462/462 470/470
f 465/465 467/467 471/471
f 471/471 470/470 465/465
f 472/472 471/471 467/467
f 473/473 469/469 470/470
f 470/470 471/471 473/473
f 471/471 472/472 474/474
f 474/474 473/473 471/471
f 475/475 474/474 472/472
f 469/469 473/473 476/476
f 476/476 468/468 469/469
f 378/378 468/468 477/477
f 377/377 378/378 477/477
f 474/474 475/475 478/478
f 479/479 478/478 475/475
f 473/473 474/474 480/480
f 480/480 476/476 473/473
f 478/478 480/480 474/474
f 468/468 476/476 481/481
f 481/481 477/477 468/468
f 482/482 377/377 477/477
f 477/477 481/481 482/482
f 377/377 482/482 383/383
f 476/476 480/480 483/483
f 483/483 481/481 476/476
f 484/484 383/383 482/482
f 383/383 484/484 387/387
f 485/485 482/482 481/481
f 481/481 483/483 485/485
f 482/482 485/485 484/484
f 486/486 483/483 480/480
f 480/480 478/478 486/486
f 487/487 387/387 484/484
f 387/387 487/487 390/390
f 488/488 485/485 483/483
f 483/483 486/486 488/488
f 489/489 484/484 485/485
f 484/484 489/489 487/487
f 485/485 488/488 489/489
f 488/488 490/490 489/489
f 490/490 487/487 489/489
f 487/487 491/491 390/390
f 391/391 390/390 491/491
f 486/486 492/492 488/488
f 490/490 488/488 492/492
f 478/478 493/493 486/486
f 492/492 486/486 493/493
f 491/491 487/487 494/494
f 487/487 490/490 494/494
f 495/495 494/494 490/490
f 496/496 490/490 492/492
f 493/493 496/496 492/492
f 490/490 496/496 495/495
f 491/491 497/497 391/391
f 393/393 391/391 497/497
f 493/493 478/478 498/498
f 478/478 479/479 498/498
f 499/499 498/498 479/479
f 494/494 500/500 491/491
f 497/497 491/491 500/500
f 501/501 393/393 497/497
f 500/500 501/501 497/497
f 393/393 501/501 502/502
f 501/501 503/503 502/502
f 498/498 504/504 493/493
f 496/496 493/493 504/504
f 498/498 499/499 505/505
f 504/504 498/498 505/505
f 506/506 505/505 499/499
f 500/500 494/494 507/507
f 494/494 495/495 507/507
f 501/501 500/500 508/508
f 507/507 508/508 500/500
f 503/503 501/501 509/509
f 508/508 509/509 501/501
f 509/509 510/510 503/503
f 510/510 509/509 511/511
f 512/512 511/511 509/509
f 509/509 508/508 512/512
f 511/511 512/512 513/513
f 508/508 507/507 514/514
f 514/514 512/512 508/508
f 495/495 514/514 507/507
f 515/515 513/513 512/512
f 512/512 514/514 515/515
f 513/513 515/515 516/516
f 517/517 515/515 514/514
f 514/514 495/495 517/517
f 518/518 516/516 515/515
f 515/515 517/517 518/518
f 516/516 518/518 519/519
f 520/520 517/517 495/495
f 520/520 518/518 517/517
f 521/521 519/519 518/518
f 518/518 520/520 521/521
f 519/519 521/521 522/522
f 495/495 523/523 520/520
f 523/523 521/521 520/520
f 523/523 495/495 496/496
f 524/524 522/522 521/521
f 521/521 523/523 524/524
f 522/522 524/524 525/525
f 496/496 526/526 523/523
f 526/526 524/524 523/523
f 526/526 496/496 504/504
f 527/527 525/525 524/524
f 524/524 526/526 527/527
f 525/525 527/527 528/528
f 504/504 529/529 526/526
f 529/529 527/527 526/526
f 529/529 504/504 505/505
f 505/505 506/506 529/529
f 530/530 528/528 527/527
f 527/527 529/529 530/530
f 506/506 530/530 529/529
f 528/528 530/530 531/531
f 530/530 506/506 532/532
f 532/532 531/531 530/530
f 531/531 532/532 533/533
f 534/534 535/535 536/536
f 534/534 537/537 535/535
f 535/535 537/537 538/538
f 534/534 539/539 537/537
f 534/534 540/540 539/539
f 537/537 539/539 541/541
