# driftwood_set_1_COL
v -1.36023211 0.154951781 0.989271998
v -1.43790901 0 0.371292561
v -1.59164274 0 0.891924262
v -1.25975931 0.411619663 0.320203692
v -1.53551292 0 0.179911345
v -1.22976112 0 1.20656812
v -1.4967196 0 -0.0854789689
v -1.09593093 0.354318887 0.792414665
v -0.826381564 0 1.18916702
v -1.17832482 0.27829212 0.597743392
v -0.332788467 0.184125438 0.883447409
v 0.0443872996 0 1.39682353
v -0.564221978 0.246029124 0.690386176
v -0.0730462819 0.366024315 0.79132551
v 0.187896267 0.236445993 1.11186874
v 0.385999888 0 1.38967204
v 0.46758604 0.19395332 1.05152047
v 0.704918206 0.173699185 1.38680613
v 0.753845215 0 1.44911218
v 0.778553247 0 1.32280159
v 0.718070865 0.0986743942 1.14656198
v 0.783922017 -7.62939436E-08 0.510652781
v 0.788473427 0.219690546 0.74183923
v 0.181286395 0.27321288 0.721552849
v -0.156176016 0.291728675 0.327260286
v 0.950362384 0.331592828 0.390727371
v 1.03750789 0 0.0551866144
v 0.990781665 0.298755437 -0.16343978
v 1.18933833 0 -0.251217186
v 0.833763123 0.560330987 0.566721916
v -0.855868995 0.547175586 -0.197826996
v 0.898900807 0.549142122 0.495854646
v -0.11161764 0.539579213 0.0504576117
v -0.657040834 0.743503273 -0.534721792
v -0.136737898 0.485907614 -0.126337424
v -1.28817058 0.349985838 0.0574983209
v -1.26514757 0.446065098 -0.394826651
v -1.45275939 0 -0.273782492
v -1.19180298 0.343976498 -0.42500931
v -0.915017605 0 -0.308475345
v -0.519460261 0 -0.321615815
v 0.497184366 0.295210272 -0.114011072
v -0.478545099 0.222908393 -0.406021565
v 0.700757325 0 -0.444503635
v -0.0887950659 0.289738417 -0.20177108
v 0.586703718 0.220734939 -0.360864699
v 1.07037151 0.197681963 -0.298989415
v 0.797509491 0 -0.444076061
v 1.0910697 0 -0.350807339
g submesh0
f 1 2 3
f 2 1 4
f 5 2 4
f 6 1 3
f 4 7 5
f 1 6 8
f 6 9 8
f 8 10 1
f 10 4 1
f 11 8 9
f 11 10 8
f 9 12 11
f 13 10 11
f 13 4 10
f 11 12 14
f 14 13 11
f 15 14 12
f 16 15 12
f 17 15 16
f 14 15 17
f 17 16 18
f 16 19 18
f 18 19 20
f 18 20 21
f 17 18 21
f 22 21 20
f 17 21 23
f 22 23 21
f 24 14 17
f 24 17 23
f 14 25 13
f 24 25 14
f 23 22 26
f 26 22 27
f 28 26 27
f 28 27 29
f 23 30 24
f 30 23 26
f 30 25 24
f 13 25 31
f 4 13 31
f 30 26 32
f 26 28 32
f 25 30 33
f 33 31 25
f 30 32 33
f 34 31 33
f 35 34 33
f 33 32 35
f 36 31 34
f 4 31 36
f 7 4 36
f 36 37 7
f 34 37 36
f 38 7 37
f 38 37 39
f 34 39 37
f 40 38 39
f 34 40 39
f 41 40 34
f 32 42 35
f 28 42 32
f 43 41 34
f 41 43 44
f 35 45 34
f 45 35 42
f 45 43 34
f 42 46 45
f 43 45 46
f 28 46 42
f 46 44 43
f 28 44 46
f 47 44 28
f 47 48 44
f 29 47 28
f 47 49 48
f 29 49 47
