# driftwood_clutter5_COL
v -0.38900584 0.115823083 -0.0814828873
v 0.479070812 -0.107411496 -0.259178966
v -0.408597201 0.154231846 -0.0498790406
v -0.423296332 0.147019312 -0.110293776
v -0.0882068053 0.110776775 -0.125718817
v 0.479713976 -0.0926803276 -0.161851987
v 0.472364724 -0.0491110273 -0.285358459
v 0.511526108 -0.0281279348 -0.203585088
v 0.218906403 -0.0344750397 0.187748641
v -0.402531087 0.0465362668 -0.0754433051
v 0.399226218 0.0325400941 0.237490177
v 0.388928056 -0.0135762794 0.249218687
v 0.383449227 0.0453647636 0.254174143
v 0.369053334 -0.0115993842 0.312170506
v -0.414582968 0.0769897327 -0.0329057723
v -0.426802278 0.0181807559 -0.043869365
v -0.324333459 -0.00851356145 0.0431983694
v 0.376602471 0.0397431478 0.309437811
v 0.000668225519 0.104932971 -0.0377151184
v 0.362934291 -0.00577851292 0.0887299553
v -0.357567668 0.0355717428 -0.306115448
v -0.467893481 0.0561480708 -0.267851621
v -0.446121365 -0.0443785116 -0.294831723
v -0.511526048 0.0213250853 -0.176546842
v 0.314649671 -0.0292450804 0.117333002
v -0.460113704 -0.0856721252 -0.166698202
v -0.380621284 -0.011398213 -0.0824156553
v 0.33595854 0.0343219638 0.159624711
v 0.246902004 0.0383864529 0.158012316
g submesh0
f 1 2 3
f 3 4 1
f 1 4 2
f 4 3 5
f 6 3 2
f 5 3 6
f 5 7 4
f 2 4 7
f 2 8 6
f 6 8 5
f 7 5 8
f 2 7 8
f 9 10 11
f 11 12 9
f 12 11 13
f 11 10 13
f 12 14 9
f 12 13 14
f 15 13 10
f 10 9 16
f 16 15 10
f 17 16 9
f 9 14 17
f 15 16 17
f 13 15 18
f 18 14 13
f 17 18 15
f 14 18 17
f 19 20 21
f 22 19 21
f 21 23 22
f 21 20 23
f 24 19 22
f 23 24 22
f 20 25 23
f 24 23 26
f 23 25 26
f 26 27 24
f 24 27 19
f 26 25 27
f 28 20 19
f 28 25 20
f 27 29 19
f 28 19 29
f 29 27 25
f 25 28 29
