# electrical_box_d_COL
v 8.36851655E-09 0.873577356 0.137991831
v -0.159346953 0.87359482 0.137992069
v -0.159346953 0.873594701 -0.137992173
v 1.25608981E-08 0.873577416 -0.137992471
v -2.37067699E-08 1.22373235 -0.137992442
v -2.37067699E-08 1.22373247 0.137991756
v 8.36851655E-09 0.873577356 0.137991831
v 1.25608981E-08 0.873577416 -0.137992471
v -2.37067699E-08 1.22373235 -0.137992442
v 1.25608981E-08 0.873577416 -0.137992471
v -0.159346953 0.873594701 -0.137992173
v -0.159346953 1.22371149 -0.137992144
v -0.159346953 1.22371149 0.137992084
v -0.159346953 0.87359482 0.137992069
v 8.36851655E-09 0.873577356 0.137991831
v -2.37067699E-08 1.22373247 0.137991756
v -2.37067699E-08 1.22373247 0.137991756
v -2.37067699E-08 1.22373235 -0.137992442
v -0.159346953 1.22371149 -0.137992144
v -0.159346953 1.22371149 0.137992084
v -0.024043126 3.34912727E-07 -2.98096694E-07
v -0.0230679903 0.879732788 -1.37134623E-06
v -0.0555375405 0.879732788 0.0324689895
v -0.0555387326 3.33536008E-07 0.031495288
v -0.0880079642 0.879732788 -8.34721504E-07
v -0.0870341957 3.32159289E-07 -2.98096694E-07
v -0.055538401 0.879732788 -0.0324711986
v -0.0555385724 3.33536008E-07 -0.0314961486
v -0.0230679903 0.879732788 -1.37134623E-06
v -0.024043126 3.34912727E-07 -2.98096694E-07
vt 0.0432501398 0.0185402688
vt 0.041517131 0.0944059938
vt 0.135809928 0.0875386819
vt 0.135464475 0.0153463501
vt 0.270799935 0.979293764
vt 0.346027613 0.979293764
vt 0.346027613 0.782459795
vt 0.270799935 0.782459795
vt 0.173501655 0.303046435
vt 0.17344144 0.106746078
vt 0.137496561 0.105772108
vt 0.137551755 0.303958297
vt 0.0444030911 0.304141402
vt 0.0443474799 0.105945677
vt 0.0083978558 0.106863745
vt 0.00845822971 0.303165585
vt 0.0440232009 0.393702775
vt 0.135362789 0.394137055
vt 0.135819331 0.322250783
vt 0.0423858315 0.318158805
vt 0.361992687 0.689320147
vt 0.361992687 0.993384242
vt 0.369696915 0.993384242
vt 0.369696915 0.689320147
vt 0.377472579 0.993384242
vt 0.377472579 0.689320147
vt 0.385248065 0.993384242
vt 0.385248065 0.689320147
vt 0.392952144 0.993384242
vt 0.392952144 0.689320147
g submesh0
f 1/1 2/2 3/3
f 1/1 3/3 4/4
f 5/5 6/6 7/7
f 5/5 7/7 8/8
f 9/9 10/10 11/11
f 9/9 11/11 12/12
f 13/13 12/12 11/11
f 13/13 11/11 14/14
f 15/15 13/13 14/14
f 15/15 16/16 13/13
f 17/17 18/18 19/19
f 17/17 19/19 20/20
f 21/21 22/22 23/23
f 21/21 23/23 24/24
f 25/25 24/24 23/23
f 25/25 26/26 24/24
f 27/27 26/26 25/25
f 27/27 28/28 26/26
f 29/29 28/28 27/27
f 29/29 30/30 28/28
