# fishing_net_square_LOD3
v -0.876790822 1.53396285 3.52467632
v -0.934594274 1.71344435 2.88359952
v -1.16393435 1.04737663 3.86598039
v -0.186133265 1.71843958 2.38618517
v -0.182540134 1.59999382 2.39489126
v 0.545525432 1.56486905 2.2468009
v -0.44970122 1.7872467 3.04315281
v -0.934594274 1.71344435 2.88359952
v -0.876790822 1.53396285 3.52467632
v 0.150695667 1.33783686 2.93452001
v 0.585788429 1.27959991 2.6546154
v -0.308514208 0.937635183 3.71919155
v -1.16393435 1.04737663 3.86598039
v -0.558357 0.5986166 4.7325201
v -1.12311614 0.563046038 4.46551275
v -1.44039881 0.811835408 4.65502644
v -0.990404308 0.597037554 5.65181065
v -1.60219264 0.813558459 5.07552671
v -1.79708338 0.634667993 5.6265521
v -1.68472183 0.146348044 6.03075361
v -1.53406119 0.0785238743 6.68512011
v -0.682336628 0.30546245 6.62342262
v 0.0011855443 0.515460789 5.97280645
v 0.192727581 1.03564036 3.76034689
v 0.85891968 0.971250534 3.57227969
v 0.127948239 0.593995333 4.94871426
v 0.913766026 0.676945508 5.5228858
v 1.00374019 1.00003397 4.78359985
v 3.99966645 0.175323173 4.59174347
v 3.43855643 0.254885525 4.99849129
v 3.87894273 0.18764846 4.99764776
v 3.35267043 0.302466452 4.30547428
v 2.5958643 0.378602594 5.19366741
v 4.00948668 0.336401701 3.99582553
v 2.67913842 0.682015359 3.42545891
v 4.41926908 0.208872885 4.11089277
v 4.24753904 0.178928614 2.9414742
v 4.40785503 0.30933094 2.3941462
v 2.38125563 0.600946367 4.35314131
v 1.79550362 0.4778485 5.21811104
v 1.00374019 1.00003397 4.78359985
v 0.913766026 0.676945508 5.5228858
v 1.71790433 0.982942939 3.58225632
v 0.85891968 0.971250534 3.57227969
v 1.47168052 1.03894222 2.09478045
v 0.585788429 1.27959991 2.6546154
v 2.23812556 0.832693756 2.03611636
v 3.2550211 0.608558416 1.86635673
v 3.98167443 0.677767575 1.70073116
v 5.08341551 0.330513895 1.44462717
v 2.35471439 1.09779561 1.95928609
v 1.54930902 1.30572486 2.08728027
v 0.545525432 1.56486905 2.2468009
v 0.382237047 1.4269377 2.12421918
v -0.182540134 1.59999382 2.39489126
v 1.19697297 0.855632901 7.9963932
v 1.4707191 0.840946436 7.66069555
v 1.34985328 0.885244668 7.34568691
v 0.899189115 0.848520815 7.26216555
v 0.953736246 0.505736589 8.40142155
v 1.0956769 0.797711551 6.45243883
v -0.0869650617 0.149636492 7.91132927
v 0.789821863 0.0951529294 8.83467484
v 0.124461003 0.341922134 6.68800688
v -0.477701634 0.133260339 8.96297741
v 0.346477658 0.0688282773 9.45117474
v 0.255241185 0.113478497 9.92719364
v -1.27038145 0.0785238743 9.7901659
v -1.29279757 0.0781886801 8.84937382
v -0.843977273 0.189044639 7.59547329
v -1.80921841 0.146453232 7.25515366
v -1.53406119 0.0785238743 6.68512011
v -0.682336628 0.30546245 6.62342262
v 0.0011855443 0.515460789 5.97280645
v 0.913766026 0.676945508 5.5228858
v 3.43855643 0.254885525 4.99849129
v 3.65039492 0.113732629 5.42640972
v 3.87894273 0.18764846 4.99764776
v 3.3950417 0.0998386443 5.65445185
v 2.5958643 0.378602594 5.19366741
v 2.94651961 0.491879404 6.05404902
v 2.46991515 0.567070901 6.45661545
v 1.49093747 0.877402723 6.44925022
v 1.79550362 0.4778485 5.21811104
v 0.913766026 0.676945508 5.5228858
v 1.0956769 0.797711551 6.45243883
v 1.98256707 0.909819722 7.06311607
v 1.34985328 0.885244668 7.34568691
v 1.4707191 0.840946436 7.66069555
vn -0.212354705 0.768399 0.603712201
vn -0.289106637 0.948413789 0.130110115
vn -0.023462683 0.777813077 0.628057599
vn 0.651330292 0.303337306 0.695525169
vn 0.633208036 0.492051989 0.597438276
vn -0.040712826 -0.547195196 0.83601433
vn 0.249846652 0.924806476 0.286896706
vn -0.289106637 0.948413789 0.130110115
vn -0.212354705 0.768399 0.603712201
vn 0.378422558 0.863831341 0.332553566
vn 0.323405206 0.924338937 0.202500522
vn 0.0806480125 0.865454555 0.494453549
vn -0.023462683 0.777813077 0.628057599
vn 0.0229308419 0.981188834 0.19168368
vn -0.054827936 0.998350501 -0.0170307811
vn 0.250646561 0.963762283 -0.0913163647
vn 0.000717609888 0.963476121 0.267793208
vn 0.17555216 0.968344092 0.177457646
vn 0.0204376504 0.821050704 0.570489168
vn -0.312840879 0.84561336 0.43251425
vn -0.21849896 0.96914947 0.114050254
vn -0.128116637 0.970010817 0.206555307
vn -0.118129216 0.982179582 0.146180525
vn 0.0116334232 0.945048511 0.32672298
vn 0.0608026385 0.987769663 0.143576741
vn -0.145069361 0.972662926 0.181333214
vn -0.0525787212 0.996103525 0.0708048046
vn -0.0341802314 0.972559333 0.230130494
vn 0.147762597 0.977003992 0.153718561
vn 0.166145578 0.976900339 0.134392723
vn 0.150342792 0.983439267 0.101213612
vn 0.173893824 0.965645492 0.193105593
vn 0.219491467 0.975535214 0.0124305552
vn 0.220111638 0.969172001 0.110709734
vn 0.276004225 0.955742478 0.101873152
vn 0.27163291 0.957783639 0.0941595733
vn 0.349045396 0.923483849 0.159200579
vn 0.274963647 0.926968098 0.255196095
vn 0.292567074 0.933277905 0.208319172
vn 0.221299812 0.973394752 0.0594046526
vn -0.0341802314 0.972559333 0.230130494
vn -0.0525787212 0.996103525 0.0708048046
vn 0.185829014 0.979922056 0.072251983
vn 0.0608026385 0.987769663 0.143576741
vn 0.24049063 0.652088583 0.718988776
vn 0.323405206 0.924338937 0.202500522
vn 0.281636357 0.738536716 0.612571955
vn 0.235111967 0.73737514 0.633245885
vn 0.161377594 0.867441416 0.470640719
vn 0.345464081 0.89998275 0.265867412
vn 0.201661348 0.189048752 0.961037636
vn 0.128838196 0.0156895798 0.991541564
vn -0.040712826 -0.547195196 0.83601433
vn 0.337627202 0.232405782 0.912137747
vn 0.633208036 0.492051989 0.597438276
vn -0.44034344 0.876674831 0.193749681
vn 0.107206166 0.989395201 0.0980002508
vn -0.0295032561 0.99942565 0.0166740529
vn -0.33909291 0.940510333 0.0213605147
vn -0.495892942 0.783483684 0.374490947
vn -0.242273539 0.969173551 -0.0447888114
vn -0.171636611 0.975666285 0.136440769
vn -0.188504562 0.949981987 0.248998359
vn -0.280086905 0.950241685 0.136352614
vn -0.00948193017 0.99946481 0.0313086919
vn 0.0811071023 0.996690869 -0.00538295507
vn 0.0469736047 0.998780191 -0.0152157154
vn -0.0457771607 0.998704553 0.0222185515
vn -0.0706581324 0.996813238 0.0370226428
vn -0.0598742291 0.996109307 0.0646625459
vn -0.0269307774 0.998456478 -0.0485748462
vn -0.21849896 0.96914947 0.114050254
vn -0.128116637 0.970010817 0.206555307
vn -0.118129216 0.982179582 0.146180525
vn -0.0525787212 0.996103525 0.0708048046
vn 0.166145578 0.976900339 0.134392723
vn 0.15530394 0.958451688 0.239271805
vn 0.150342792 0.983439267 0.101213612
vn 0.301854283 0.952721417 0.0347254127
vn 0.219491467 0.975535214 0.0124305552
vn 0.208026305 0.955194712 -0.210542649
vn 0.239380136 0.956979334 -0.163974956
vn 0.00481262291 0.995643973 -0.0931128263
vn 0.221299812 0.973394752 0.0594046526
vn -0.0525787212 0.996103525 0.0708048046
vn -0.242273539 0.969173551 -0.0447888114
vn 0.0898132846 0.988383472 -0.122603767
vn -0.0295032561 0.99942565 0.0166740529
vn 0.107206166 0.989395201 0.0980002508
vt 0.891996324 0.536136866
vt 0.97956866 0.406079888
vt 0.801117063 0.648950815
vt 0.941774249 0.168295681
vt 0.862153888 0.0989597142
vt 1.00782704 0.0658993348
vt 0.880651474 0.290151238
vt 0.97956866 0.406079888
vt 0.891996324 0.536136866
vt 0.688272238 0.160784766
vt 0.697183788 0.0343962163
vt 0.624288559 0.373538703
vt 0.801117063 0.648950815
vt 0.465126127 0.525887251
vt 0.761599004 0.826483488
vt 0.62288177 0.77514571
vt 0.34164983 0.706606984
vt 0.568838358 0.862346351
vt 0.495981783 0.978863776
vt 0.327818394 0.969788432
vt 0.187978387 0.949910581
vt 0.089038156 0.648659825
vt 0.128945053 0.388632298
vt 0.528654456 0.216422454
vt 0.49096787 0.0443986841
vt 0.295387655 0.293664873
vt 0.114251204 0.0656382218
vt 0.249389946 0.0392232016
vt 0.0886145234 0.867253959
vt 0.0372210257 0.679651022
vt 0.0369190574 0.807963729
vt 0.187815607 0.6796332
vt 0.0348764285 0.466019988
vt 0.239615083 0.854892075
vt 0.416013151 0.515764236
vt 0.229271352 0.98188889
vt 0.483411014 0.944717824
vt 0.604343176 0.976735115
vt 0.224521756 0.419461876
vt 0.0525850691 0.245504096
vt 0.225643873 0.0359316505
vt 0.0527411066 0.0766286179
vt 0.428079993 0.25038749
vt 0.471352637 0.0325757489
vt 0.763952374 0.276725858
vt 0.682607532 0.0350726731
vt 0.746673346 0.43352294
vt 0.753409028 0.645358324
vt 0.988221526 0.679022014
vt 0.963572145 0.870926261
vt 0.993875146 0.380847186
vt 0.910783291 0.2651878
vt 1.00016189 0.0492750667
vt 0.834880531 0.0934645459
vt 0.87775743 0.034293551
vt 0.114136875 0.650090754
vt 0.0234511495 0.605886042
vt 0.0270127114 0.508909464
vt 0.12610364 0.451178968
vt 0.238628924 0.726688862
vt 0.0254929233 0.273975462
vt 0.511673689 0.447976768
vt 0.357252657 0.83610779
vt 0.339313745 0.204838037
vt 0.713830948 0.608303547
vt 0.509618759 0.947400331
vt 0.627845883 0.98436749
vt 0.959730566 0.720321
vt 0.912192464 0.492444336
vt 0.722638965 0.237524867
vt 0.98965776 0.0510827787
vt 0.807798266 0.0242985785
vt 0.62886703 0.0182983875
vt 0.30215621 0.0414509997
vt 0.0552362725 0.0460362285
vt 0.691414475 0.0224996787
vt 0.746487141 0.152290136
vt 0.812280715 0.0221444629
vt 0.67735815 0.215828866
vt 0.470671713 0.0388464443
vt 0.503908753 0.286518306
vt 0.4032377 0.410652131
vt 0.120657921 0.305355698
vt 0.27900067 0.0262033883
vt 0.0857129395 0.0515009277
vt 0.0264186859 0.27230373
vt 0.197681785 0.492481261
vt 0.0248908401 0.507355273
vt 0.038967073 0.610956192
g submesh0
f 1/1/1 2/2/2 3/3/3
f 4/4/4 5/5/5 6/6/6
f 7/7/7 5/5/5 4/4/4
f 4/4/4 8/8/8 7/7/7
f 7/7/7 8/8/8 9/9/9
f 10/10/10 5/5/5 7/7/7
f 5/5/5 10/10/10 11/11/11
f 7/7/7 9/9/9 12/12/12
f 10/10/10 7/7/7 12/12/12
f 9/9/9 13/13/13 12/12/12
f 14/14/14 12/12/12 13/13/13
f 13/13/13 15/15/15 14/14/14
f 15/15/15 16/16/16 14/14/14
f 14/14/14 16/16/16 17/17/17
f 17/17/17 16/16/16 18/18/18
f 17/17/17 18/18/18 19/19/19
f 20/20/20 17/17/17 19/19/19
f 20/20/20 21/21/21 17/17/17
f 22/22/22 17/17/17 21/21/21
f 22/22/22 23/23/23 17/17/17
f 14/14/14 17/17/17 23/23/23
f 10/10/10 24/24/24 11/11/11
f 12/12/12 24/24/24 10/10/10
f 14/14/14 24/24/24 12/12/12
f 11/11/11 24/24/24 25/25/25
f 14/14/14 23/23/23 26/26/26
f 26/26/26 24/24/24 14/14/14
f 25/25/25 24/24/24 26/26/26
f 27/27/27 26/26/26 23/23/23
f 25/25/25 26/26/26 28/28/28
f 28/28/28 26/26/26 27/27/27
f 29/29/29 30/30/30 31/31/31
f 32/32/32 30/30/30 29/29/29
f 33/33/33 30/30/30 32/32/32
f 32/32/32 29/29/29 34/34/34
f 32/32/32 34/34/34 35/35/35
f 29/29/29 36/36/36 34/34/34
f 34/34/34 36/36/36 37/37/37
f 34/34/34 37/37/37 35/35/35
f 35/35/35 37/37/37 38/38/38
f 33/33/33 32/32/32 39/39/39
f 39/39/39 32/32/32 35/35/35
f 39/39/39 40/40/40 33/33/33
f 40/40/40 39/39/39 41/41/41
f 42/42/42 40/40/40 41/41/41
f 39/39/39 43/43/43 41/41/41
f 43/43/43 39/39/39 35/35/35
f 43/43/43 44/44/44 41/41/41
f 45/45/45 44/44/44 43/43/43
f 44/44/44 45/45/45 46/46/46
f 43/43/43 35/35/35 47/47/47
f 47/47/47 45/45/45 43/43/43
f 35/35/35 38/38/38 48/48/48
f 35/35/35 48/48/48 47/47/47
f 38/38/38 49/49/49 48/48/48
f 49/49/49 38/38/38 50/50/50
f 51/51/51 48/48/48 49/49/49
f 51/51/51 47/47/47 48/48/48
f 47/47/47 51/51/51 52/52/52
f 47/47/47 52/52/52 45/45/45
f 45/45/45 52/52/52 53/53/53
f 54/54/54 46/46/46 45/45/45
f 54/54/54 45/45/45 53/53/53
f 55/55/55 46/46/46 54/54/54
f 55/55/55 54/54/54 53/53/53
f 56/56/56 57/57/57 58/58/58
f 56/56/56 58/58/58 59/59/59
f 60/60/60 56/56/56 59/59/59
f 59/59/59 58/58/58 61/61/61
f 59/59/59 62/62/62 60/60/60
f 63/63/63 60/60/60 62/62/62
f 61/61/61 64/64/64 59/59/59
f 59/59/59 64/64/64 62/62/62
f 65/65/65 63/63/63 62/62/62
f 63/63/63 65/65/65 66/66/66
f 65/65/65 67/67/67 66/66/66
f 68/68/68 67/67/67 65/65/65
f 65/65/65 69/69/69 68/68/68
f 65/65/65 62/62/62 70/70/70
f 70/70/70 69/69/69 65/65/65
f 70/70/70 62/62/62 64/64/64
f 71/71/71 69/69/69 70/70/70
f 70/70/70 72/72/72 71/71/71
f 70/70/70 73/73/73 72/72/72
f 64/64/64 73/73/73 70/70/70
f 73/73/73 64/64/64 74/74/74
f 74/74/74 64/64/64 61/61/61
f 75/75/75 74/74/74 61/61/61
f 76/76/76 77/77/77 78/78/78
f 76/76/76 79/79/79 77/77/77
f 79/79/79 76/76/76 80/80/80
f 79/79/79 80/80/80 81/81/81
f 82/82/82 81/81/81 80/80/80
f 83/83/83 82/82/82 80/80/80
f 83/83/83 80/80/80 84/84/84
f 83/83/83 84/84/84 85/85/85
f 83/83/83 85/85/85 86/86/86
f 83/83/83 87/87/87 82/82/82
f 86/86/86 87/87/87 83/83/83
f 87/87/87 86/86/86 88/88/88
f 87/87/87 88/88/88 89/89/89
