# fishing_net_floor_b_COL
v -0.722731054 -0.0811260194 -1.52323115
v -1.06167543 -0.0635842904 -0.988204539
v -0.197080985 -0.0799101219 -1.34500301
v 0.429984272 -0.0718575269 -1.29567897
v -0.886743844 -0.0625411198 -0.88951081
v -1.06572425 -0.0873039961 -0.734829783
v 0.0559833199 -0.00474395743 -0.994686306
v -0.635295868 -0.0524988547 -0.727518499
v -0.708106995 0.0624411777 -0.315856874
v -1.17547619 -0.0682893321 -0.377147317
v -1.1174047 0.061567612 -0.210402623
v -0.727240741 0.00340858451 0.299214005
v -1.07329524 0.0760606378 -0.0443763323
v 0.799821377 -0.0439163968 -0.953782797
v 1.16521716 -0.0712595358 -1.21028459
v -0.476761311 0.0299706254 -0.511202276
v -0.0174266808 0.0920272842 -0.696766734
v -0.0248456765 0.0276308432 -0.186788574
v -0.889990807 0.0829808041 0.176628664
v -0.72857511 0.173460454 0.365077585
v -0.806598008 0.0542543791 0.374747336
v -0.661854386 -0.0205243677 0.789022565
v -0.701427162 0.0582735427 0.87643075
v -0.602698863 -0.00376083376 0.568279207
v -0.299989164 -0.0262318421 0.779272854
v -0.34191677 -0.0373310074 0.30123505
v -0.73537612 0.0384352878 0.896560431
v -0.182343289 0.157438889 1.50491965
v 0.0496673584 -0.034709394 0.988759816
v -0.513426125 0.102044754 1.474002
v -0.673230112 -0.00303886412 1.15933526
v -0.517621577 0.0640603602 1.53600466
v -0.414408892 -0.0343983434 1.76154876
v -0.361095637 0.0793345645 1.43386745
v -0.0786033198 0.0799651295 1.51665366
v -0.228326559 -0.0069026947 1.53778315
v -0.17509307 -0.0419284813 1.75543487
v -0.514201343 -0.0371870399 1.8338989
v -0.125909135 -0.0478772707 1.16086853
v -0.923245609 -0.0414072424 1.70484161
v -0.227788612 0.00465759262 1.29739833
v -0.113115653 -0.0129180141 0.929383159
v 0.0920667499 0.0284461211 0.161844015
v 0.14788717 0.00961730909 0.385140955
v 0.426778674 0.0683087111 -0.0920478255
v 0.192078426 -0.0119158169 0.295853257
v 0.0724978372 -0.0289980303 0.379827499
v -0.60363847 -0.0753572807 0.305627763
v -0.698020756 -0.0667664334 0.939230025
v 0.616547585 0.0652773306 -0.301595181
v 0.668221116 -0.0297557823 0.00394936558
v 0.349948078 0.0621292852 -0.802907765
v 0.90804261 -0.0241564177 -0.906839788
v 1.05489671 -0.001645813 -0.398360461
v 1.10542428 -0.0403737649 -0.26667887
v 1.37222469 -0.0119552612 -0.51260823
v 1.76908052 0.0628433973 -0.837513626
v 1.57288229 -0.0139268488 -0.675459981
v 1.88179123 0.142497331 -0.875066459
v 1.32262909 -0.0404842384 -1.27232873
v 1.83335507 -0.0443733223 -0.676739097
v 1.59919918 -0.0785939768 0.131985247
v 1.01208484 -0.0492433161 -0.550739825
v 0.625899613 -0.0727382675 0.0758865699
v 0.783489585 -0.0797977448 0.947448194
v 0.0974784046 -0.0800304413 -0.21207206
v -0.434195399 -0.0812119246 1.25934303
v -0.96207273 -0.0817191303 1.14378667
v 0.346631616 -0.021513138 -0.467182696
v 0.309362292 -0.0796723142 -0.531564236
v 0.406733781 -0.0711824819 -0.684854031
v 0.0575501621 -0.0794191733 -1.05881214
v 0.368056893 0.0253876485 -0.630857289
v 0.497538298 0.0364065543 -0.319891363
v 0.233460903 -0.00256004324 -0.728269279
v 0.225385964 0.0337702185 -0.607000172
v 0.0498473458 -0.0476522036 -0.110331826
v -0.290860295 -0.0509107187 -0.768842399
v -0.0124250026 -0.072252728 -0.524091125
v -0.07620731 -0.00924980175 -0.50793463
v -0.564900279 -0.0526768491 -0.506541312
v -0.792882919 -0.0262157433 -0.153242603
v -0.947600007 -0.0130290985 0.210415125
v -0.853506148 -0.00182807923 0.0539571792
v -0.21714133 -0.0656061545 -0.463416696
v -0.357647508 -0.0803775787 -0.525270581
v -0.584278882 -0.0393167883 -0.111864179
v -0.91489017 -0.0637567863 0.289402008
v -0.825238645 -0.0792543739 -0.479854047
v -0.834918797 -0.0549589545 0.633574665
v -1.04188037 0.0194579307 0.589228868
v -1.12060463 -0.00350753777 0.821206391
v -1.31435275 -0.0639350861 1.24079478
v -1.12091851 -0.0425475314 0.645392418
v -1.42237937 -0.0592420958 0.676376641
v -1.30728543 -0.0820008814 0.0342767611
v -1.20152247 -0.0518144965 -0.256390184
v -1.13215148 -0.0971177667 -0.508513987
g submesh0
f 1 2 3
f 3 2 4
f 5 4 2
f 5 2 6
f 7 4 5
f 8 5 6
f 5 8 7
f 6 9 8
f 6 10 9
f 11 9 10
f 11 12 9
f 12 11 13
f 14 4 7
f 4 14 15
f 7 8 16
f 8 9 16
f 7 16 17
f 16 9 17
f 14 7 17
f 12 18 9
f 9 18 17
f 19 12 13
f 20 19 13
f 21 19 20
f 21 12 19
f 22 12 21
f 23 21 20
f 23 20 24
f 23 24 25
f 12 26 18
f 26 12 22
f 21 27 22
f 27 21 23
f 25 28 23
f 29 28 25
f 23 30 27
f 30 23 28
f 30 31 27
f 31 22 27
f 28 32 30
f 31 30 32
f 32 28 33
f 34 31 32
f 34 32 33
f 22 31 34
f 34 33 35
f 35 36 34
f 36 35 37
f 38 36 37
f 38 39 36
f 38 40 39
f 34 36 41
f 34 41 22
f 39 41 36
f 22 41 42
f 39 42 41
f 26 22 42
f 26 42 43
f 26 43 18
f 42 39 44
f 42 44 43
f 45 18 43
f 46 43 44
f 46 45 43
f 39 47 44
f 47 46 44
f 48 47 39
f 48 46 47
f 40 49 39
f 48 39 49
f 45 50 18
f 17 18 50
f 51 46 48
f 51 45 46
f 50 52 17
f 14 17 52
f 53 14 52
f 50 53 52
f 53 15 14
f 54 50 45
f 50 54 53
f 55 54 45
f 55 45 51
f 56 53 54
f 55 56 54
f 53 57 15
f 53 56 57
f 56 55 58
f 56 58 57
f 57 59 15
f 58 59 57
f 59 60 15
f 61 59 58
f 58 62 61
f 63 58 55
f 62 58 63
f 55 51 63
f 64 62 63
f 65 62 64
f 64 66 65
f 65 66 67
f 66 68 67
f 66 64 69
f 66 69 70
f 70 69 71
f 72 71 69
f 73 64 63
f 69 64 73
f 74 63 51
f 73 63 74
f 69 73 75
f 72 69 75
f 76 75 73
f 76 73 74
f 76 72 75
f 77 74 51
f 76 74 77
f 77 51 48
f 72 76 78
f 72 78 79
f 76 77 80
f 80 77 48
f 78 76 80
f 81 79 78
f 80 82 78
f 78 82 81
f 83 81 82
f 82 80 84
f 84 80 48
f 82 84 83
f 81 85 79
f 85 86 79
f 85 81 87
f 85 87 86
f 81 83 87
f 86 87 88
f 87 83 88
f 88 89 86
f 90 84 48
f 48 49 90
f 84 90 91
f 90 49 91
f 84 91 83
f 40 91 49
f 92 91 40
f 83 91 92
f 40 93 92
f 94 83 92
f 94 92 93
f 83 94 88
f 94 93 95
f 95 88 94
f 88 95 96
f 88 96 97
f 88 97 89
f 98 89 97
