# floating_walkway_plastic_edging_300x200_a_plastic
v -0.352520823 -0.611817539 -2.5487566
v -0.924463391 -0.532118738 -2.32662892
v -0.838117063 -0.546781898 -2.46038151
v -0.661525249 -0.478435278 -1.70988739
v -0.819658279 -0.50249052 -1.80965328
v -0.094361715 -0.581899762 -1.94853067
v -0.177760571 -0.618246317 -2.44119549
v -0.203259259 -0.564773679 -1.8464123
v -0.133850634 -0.0863802284 -2.47629762
v -0.137971729 -0.0425190553 -1.83694029
v -0.0182482135 -0.0628368109 -1.99551582
v -0.763892472 0.00549694989 -1.86635542
v -0.57069844 -0.00184441567 -1.7461673
v -0.790772736 -0.0345709473 -2.49852538
v -0.313612819 -0.079405807 -2.58130407
v -0.866849244 -0.0188487358 -2.35302711
v -0.0182482135 -0.0628368109 -1.99551582
v -0.177760571 -0.618246317 -2.44119549
v -0.133850634 -0.0863802284 -2.47629762
v -0.094361715 -0.581899762 -1.94853067
v -0.203259259 -0.564773679 -1.8464123
v -0.137971729 -0.0425190553 -1.83694029
v -0.57069844 -0.00184441567 -1.7461673
v -0.203259259 -0.564773679 -1.8464123
v -0.137971729 -0.0425190553 -1.83694029
v -0.661525249 -0.478435278 -1.70988739
v -0.763892472 0.00549694989 -1.86635542
v -0.819658279 -0.50249052 -1.80965328
v -0.177760571 -0.618246317 -2.44119549
v -0.313612819 -0.079405807 -2.58130407
v -0.133850634 -0.0863802284 -2.47629762
v -0.352520823 -0.611817539 -2.5487566
v -0.838117063 -0.546781898 -2.46038151
v -0.313612819 -0.079405807 -2.58130407
v -0.790772736 -0.0345709473 -2.49852538
v -0.866849244 -0.0188487358 -2.35302711
v -0.924463391 -0.532118738 -2.32662892
v -1.56681943 -0.677491605 -2.22962618
v -1.16321087 -0.598644137 -2.7873714
v -1.18224192 -0.684297025 -2.58393145
v -1.62063599 -0.270189673 -3.05772328
v -1.44707048 -0.34496206 -3.06231046
v -2.00123048 -0.324352831 -2.54769707
v -1.72366965 -0.599731445 -2.24490047
v -1.98005366 -0.25517571 -2.71848226
v -1.53457153 -0.152619928 -2.043401
v -1.78394878 0.182412699 -2.54427886
v -1.80869591 0.0998945013 -2.33862066
v -1.23017466 0.0811741203 -2.85092878
v -1.43881941 0.173151776 -2.85411954
v -0.990851283 -0.236507729 -2.37875986
v -1.37719727 -0.228642166 -2.02640629
v -0.971210778 -0.152528316 -2.58271241
v -1.80869591 0.0998945013 -2.33862066
v -1.72366965 -0.599731445 -2.24490047
v -1.53457153 -0.152619928 -2.043401
v -2.00123048 -0.324352831 -2.54769707
v -1.98005366 -0.25517571 -2.71848226
v -1.78394878 0.182412699 -2.54427886
v -1.16321087 -0.598644137 -2.7873714
v -1.23017466 0.0811741203 -2.85092878
v -0.971210778 -0.152528316 -2.58271241
v -1.44707048 -0.34496206 -3.06231046
v -1.72366965 -0.599731445 -2.24490047
v -1.37719727 -0.228642166 -2.02640629
v -1.53457153 -0.152619928 -2.043401
v -1.56681943 -0.677491605 -2.22962618
v -0.990851283 -0.236507729 -2.37875986
v -1.18224192 -0.684297025 -2.58393145
v -0.971210778 -0.152528316 -2.58271241
v -1.16321087 -0.598644137 -2.7873714
v -1.44707048 -0.34496206 -3.06231046
v -1.43881941 0.173151776 -2.85411954
v -1.23017466 0.0811741203 -2.85092878
v -1.62063599 -0.270189673 -3.05772328
v -1.98005366 -0.25517571 -2.71848226
v -1.78394878 0.182412699 -2.54427886
v -0.590960145 -0.834957123 -2.97244215
v -1.14201462 -0.529283464 -3.03064632
v -1.02979219 -0.660202444 -3.07410431
v -0.962949216 -0.0925926194 -2.59591365
v -1.07936466 -0.153557271 -2.70301771
v -0.384834468 -0.397145867 -2.55643535
v -0.447863191 -0.790202558 -2.89650893
v -0.467401177 -0.271823674 -2.50054598
v -0.207837284 -0.110669516 -2.99269223
v -0.447863191 -0.790202558 -2.89650893
v -0.272875249 -0.44978714 -3.26845455
v -0.384834468 -0.397145867 -2.55643535
v -0.467401177 -0.271823674 -2.50054598
v -0.321333379 0.0524515919 -2.91842914
v -0.763237119 0.198085815 -2.98619556
v -0.467401177 -0.271823674 -2.50054598
v -0.321333379 0.0524515919 -2.91842914
v -0.962949216 -0.0925926194 -2.59591365
v -1.07936466 -0.153557271 -2.70301771
v -0.93110317 0.126619831 -3.10720301
v -1.07936466 -0.153557271 -2.70301771
v -0.976893663 -0.23121646 -3.39746642
v -1.14201462 -0.529283464 -3.03064632
v -0.93110317 0.126619831 -3.10720301
v -0.447863191 -0.790202558 -2.89650893
v -0.473024279 -0.525450051 -3.40319109
v -0.272875249 -0.44978714 -3.26845455
v -0.590960145 -0.834957123 -2.97244215
v -1.02979219 -0.660202444 -3.07410431
v -0.864011228 -0.381520212 -3.46178722
v -0.976893663 -0.23121646 -3.39746642
v -1.14201462 -0.529283464 -3.03064632
v -0.179279119 -0.516360819 -1.65146065
v -0.784164548 -0.513208628 -1.55957305
v -0.670376182 -0.51691258 -1.6702354
v -0.660115778 -0.515228748 -0.892382026
v -0.784653544 -0.530100882 -1.01303422
v -0.0508385934 -0.503998637 -1.03007209
v -0.0554657057 -0.507486463 -1.54318285
v -0.186368689 -0.514759958 -0.900577843
v -0.0325246453 0.01578792 -1.5269835
v -0.172905296 -0.00632495619 -0.893052042
v -0.0610860176 -0.00261915196 -1.01527345
v -0.664357007 -0.0287938472 -0.889062405
v -0.706869721 -0.0152291013 -1.64347863
v -0.179926276 0.0176871065 -1.64385331
v -0.831546903 -0.0557398126 -0.993699372
v -0.829642534 -0.0536393523 -1.54102242
v -0.0610860176 -0.00261915196 -1.01527345
v -0.0554657057 -0.507486463 -1.54318285
v -0.0325246453 0.01578792 -1.5269835
v -0.0508385934 -0.503998637 -1.03007209
v -0.186368689 -0.514759958 -0.900577843
v -0.172905296 -0.00632495619 -0.893052042
v -0.664357007 -0.0287938472 -0.889062405
v -0.186368689 -0.514759958 -0.900577843
v -0.172905296 -0.00632495619 -0.893052042
v -0.660115778 -0.515228748 -0.892382026
v -0.664357007 -0.0287938472 -0.889062405
v -0.784653544 -0.530100882 -1.01303422
v -0.831546903 -0.0557398126 -0.993699372
v -0.784653544 -0.530100882 -1.01303422
v -0.829642534 -0.0536393523 -1.54102242
v -0.784164548 -0.513208628 -1.55957305
v -0.831546903 -0.0557398126 -0.993699372
v -0.179926276 0.0176871065 -1.64385331
v -0.670376182 -0.51691258 -1.6702354
v -0.706869721 -0.0152291013 -1.64347863
v -0.179279119 -0.516360819 -1.65146065
v -0.0554657057 -0.507486463 -1.54318285
v -0.0325246453 0.01578792 -1.5269835
v -0.829642534 -0.0536393523 -1.54102242
v -0.706869721 -0.0152291013 -1.64347863
v -0.784164548 -0.513208628 -1.55957305
v -0.223235711 -0.504334152 -0.678625524
v -0.0867160112 -0.522194684 -0.189673305
v -0.389761269 -0.500653982 -0.795147896
v -0.813340366 -0.502637565 0.00635583466
v -0.959454834 -0.483082116 -0.47249949
v -0.889374435 -0.482786328 -0.63668859
v -0.679812968 -0.487529218 0.0841315612
v -0.177464932 -0.498794973 -0.0519178621
v -0.212917969 0.0203792378 -0.656271279
v -0.204630747 0.0149162263 -0.0229063798
v -0.0790505558 0.0166199543 -0.213390321
v -0.871455967 0.0167173985 -0.620141566
v -0.363358825 0.0211358164 -0.773327231
v -0.82404387 0.0112280166 -0.0184605215
v -0.628983974 0.0116566308 0.0884711072
v -0.941481829 0.0158525519 -0.482219189
v -0.0790505558 0.0166199543 -0.213390321
v -0.223235711 -0.504334152 -0.678625524
v -0.212917969 0.0203792378 -0.656271279
v -0.0867160112 -0.522194684 -0.189673305
v -0.177464932 -0.498794973 -0.0519178621
v -0.204630747 0.0149162263 -0.0229063798
v -0.628983974 0.0116566308 0.0884711072
v -0.177464932 -0.498794973 -0.0519178621
v -0.204630747 0.0149162263 -0.0229063798
v -0.679812968 -0.487529218 0.0841315612
v -0.813340366 -0.502637565 0.00635583466
v -0.82404387 0.0112280166 -0.0184605215
v -0.813340366 -0.502637565 0.00635583466
v -0.941481829 0.0158525519 -0.482219189
v -0.959454834 -0.483082116 -0.47249949
v -0.82404387 0.0112280166 -0.0184605215
v -0.363358825 0.0211358164 -0.773327231
v -0.889374435 -0.482786328 -0.63668859
v -0.871455967 0.0167173985 -0.620141566
v -0.389761269 -0.500653982 -0.795147896
v -0.223235711 -0.504334152 -0.678625524
v -0.212917969 0.0203792378 -0.656271279
v -0.941481829 0.0158525519 -0.482219189
v -0.959454834 -0.483082116 -0.47249949
v -0.871455967 0.0167173985 -0.620141566
v -1.65451884 0.0617411472 -0.655800998
v -1.82975721 0.10118074 -1.29605258
v -1.87939143 0.107741222 -1.13913059
v -1.22079599 -0.00369010447 -1.45394516
v -1.34552884 0.0191406738 -1.52178693
v -1.02261209 -0.0468544699 -0.833391011
v -1.52067792 0.0372559652 -0.607294858
v -0.974052548 -0.0530792214 -0.995195925
v -1.87939143 0.107741222 -1.13913059
v -1.74187648 -0.455723137 -0.656545043
v -1.65451884 0.0617411472 -0.655800998
v -1.96116233 -0.412114978 -1.13713932
v -1.90106905 -0.420110494 -1.30004835
v -1.82975721 0.10118074 -1.29605258
v -1.34552884 0.0191406738 -1.52178693
v -1.90106905 -0.420110494 -1.30004835
v -1.82975721 0.10118074 -1.29605258
v -1.41945124 -0.502947211 -1.51963532
v -1.28376949 -0.527519226 -1.46773851
v -1.22079599 -0.00369010447 -1.45394516
v -1.28376949 -0.527519226 -1.46773851
v -0.974052548 -0.0530792214 -0.995195925
v -1.05694711 -0.570519328 -0.97921896
v -1.22079599 -0.00369010447 -1.45394516
v -0.974052548 -0.0530792214 -0.995195925
v -1.11848831 -0.563348353 -0.827182233
v -1.05694711 -0.570519328 -0.97921896
v -1.02261209 -0.0468544699 -0.833391011
v -1.52067792 0.0372559652 -0.607294858
v -1.58071542 -0.487931788 -0.602541447
v -1.74187648 -0.455723137 -0.656545043
v -1.65451884 0.0617411472 -0.655800998
v -0.93110317 0.126619831 -3.10720301
v -0.864011228 -0.381520212 -3.46178722
v -0.976893663 -0.23121646 -3.39746642
v -0.763237119 0.198085815 -2.98619556
v -0.473024279 -0.525450051 -3.40319109
v -0.321333379 0.0524515919 -2.91842914
v -0.272875249 -0.44978714 -3.26845455
v -0.207837284 -0.110669516 -2.99269223
v -0.763892472 0.00549694989 -1.86635542
v -0.924463391 -0.532118738 -2.32662892
v -0.819658279 -0.50249052 -1.80965328
v -0.866849244 -0.0188487358 -2.35302711
v -1.41945124 -0.502947211 -1.51963532
v -1.96116233 -0.412114978 -1.13713932
v -1.90106905 -0.420110494 -1.30004835
v -1.28376949 -0.527519226 -1.46773851
v -1.74187648 -0.455723137 -0.656545043
v -1.05694711 -0.570519328 -0.97921896
v -1.58071542 -0.487931788 -0.602541447
v -1.11848831 -0.563348353 -0.827182233
vt 0.513167799 0.820746422
vt 0.508877337 0.838323116
vt 0.513201177 0.834051728
vt 0.491583198 0.833737552
vt 0.496053517 0.838134408
vt 0.495388031 0.816742003
vt 0.50882256 0.816492021
vt 0.49118939 0.821155548
vt 0.564317048 0.765381277
vt 0.581879735 0.770303845
vt 0.577746451 0.765828848
vt 0.576766133 0.787209272
vt 0.581300616 0.782878637
vt 0.559680521 0.782874703
vt 0.559909582 0.769571245
vt 0.563940883 0.787209272
vt 0.635038376 0.944062173
vt 0.621611476 0.928709865
vt 0.621601641 0.944053531
vt 0.63504827 0.928718388
vt 0.641140044 0.928722501
vt 0.64138633 0.943599582
vt 0.663083851 0.846666217
vt 0.650174975 0.831591427
vt 0.65049845 0.846931696
vt 0.662760317 0.831325948
vt 0.669352531 0.846534014
vt 0.669028997 0.831193745
vt 0.869703174 0.661208391
vt 0.877443016 0.645444095
vt 0.870540619 0.646012962
vt 0.875784397 0.661208391
vt 0.889089644 0.661208391
vt 0.875784576 0.645864785
vt 0.889089882 0.645864785
vt 0.895529628 0.646624506
vt 0.895167351 0.66120851
vt 0.672153413 0.713816226
vt 0.667862952 0.73139292
vt 0.672186792 0.727121711
vt 0.650568783 0.726807415
vt 0.655039072 0.731204152
vt 0.654373586 0.709811807
vt 0.667808115 0.709561706
vt 0.650174975 0.714225352
vt 0.534407794 0.796832621
vt 0.551941395 0.802388966
vt 0.547202468 0.797259152
vt 0.546203136 0.818660557
vt 0.551421523 0.813677192
vt 0.529771209 0.814325988
vt 0.530000389 0.801022589
vt 0.53403163 0.818660557
vt 0.691362858 0.797061682
vt 0.678570747 0.782175422
vt 0.678560793 0.797519028
vt 0.692007542 0.782184124
vt 0.698099315 0.782188118
vt 0.697846472 0.795714796
vt 0.832915604 0.961546361
vt 0.847793579 0.973717749
vt 0.84825927 0.961546361
vt 0.832915545 0.974371493
vt 0.706020653 0.736594439
vt 0.712101996 0.721250772
vt 0.706020772 0.722512364
vt 0.712101817 0.736594439
vt 0.725407243 0.721250772
vt 0.725407064 0.736594439
vt 0.731485009 0.721250772
vt 0.73148489 0.736594498
vt 0.724874735 0.80973196
vt 0.71793431 0.824470997
vt 0.724889278 0.823460817
vt 0.718605995 0.809864223
vt 0.706020653 0.810129702
vt 0.706968665 0.824990869
vt 0.276103139 0.939219296
vt 0.271812677 0.956795931
vt 0.276136488 0.952524483
vt 0.254518569 0.952210367
vt 0.258988887 0.956607044
vt 0.258323401 0.935214758
vt 0.271757871 0.934964716
vt 0.254124761 0.939628422
vt 0.839010656 0.757504344
vt 0.826647937 0.742968559
vt 0.827561021 0.757537961
vt 0.840084732 0.742977202
vt 0.846176505 0.742981136
vt 0.847020388 0.755869448
vt 0.633836627 0.921347499
vt 0.621601641 0.906995595
vt 0.622762978 0.921501935
vt 0.634186924 0.906730175
vt 0.640455663 0.906597912
vt 0.641684055 0.920109451
vt 0.855312884 0.95234555
vt 0.87065661 0.93952018
vt 0.855312884 0.93952018
vt 0.869933248 0.951636434
vt 0.559680521 0.887049913
vt 0.567183793 0.872963369
vt 0.558890939 0.873836637
vt 0.565761685 0.887049913
vt 0.579066873 0.887049913
vt 0.578475296 0.871624768
vt 0.585852683 0.872241735
vt 0.585144639 0.887049913
vt 0.551749587 0.829289138
vt 0.547459245 0.846865773
vt 0.551782966 0.842594445
vt 0.530165017 0.842280209
vt 0.534635365 0.846676946
vt 0.533969879 0.8252846
vt 0.547404349 0.825034559
vt 0.529771209 0.829698265
vt 0.626238286 0.709561706
vt 0.643800914 0.714484274
vt 0.63966769 0.710009336
vt 0.643221974 0.727059126
vt 0.621601641 0.727055192
vt 0.62183094 0.713751674
vt 0.638687372 0.731389642
vt 0.625862122 0.731389642
vt 0.774241209 0.82278496
vt 0.760814309 0.807432532
vt 0.760804355 0.822776198
vt 0.774251223 0.807441235
vt 0.780342877 0.807445228
vt 0.780204117 0.821994066
vt 0.745993197 0.843886614
vt 0.733084321 0.828811944
vt 0.733407795 0.844152093
vt 0.745669603 0.828546345
vt 0.746105075 0.847492039
vt 0.751938462 0.828414142
vt 0.752682567 0.846458912
vt 0.467923194 0.963583112
vt 0.483266801 0.950757861
vt 0.467923194 0.950757861
vt 0.483266711 0.963583112
vt 0.853148699 0.672866285
vt 0.866453826 0.688209891
vt 0.866454005 0.672866285
vt 0.85314852 0.688209891
vt 0.847067297 0.688209891
vt 0.847123861 0.673639417
vt 0.872531831 0.671610415
vt 0.866286874 0.670996249
vt 0.872531593 0.688210011
vt 0.609307408 0.766252697
vt 0.595872998 0.766502738
vt 0.613652706 0.770507038
vt 0.596538424 0.787895083
vt 0.609362304 0.788083851
vt 0.613686144 0.783812523
vt 0.592068195 0.783498287
vt 0.591674268 0.770916343
vt 0.495826006 0.788290083
vt 0.513336778 0.794339418
vt 0.508133888 0.788700283
vt 0.49118939 0.805783451
vt 0.4914186 0.792480052
vt 0.507200718 0.81011796
vt 0.512860298 0.804688871
vt 0.495449871 0.81011796
vt 0.718335867 0.846211314
vt 0.706030488 0.831843913
vt 0.706020653 0.847187579
vt 0.719467402 0.831852555
vt 0.725559115 0.831856549
vt 0.726875067 0.844546139
vt 0.541561365 0.961332917
vt 0.529771209 0.947144926
vt 0.531200647 0.961425304
vt 0.542356551 0.946879625
vt 0.548625231 0.946747303
vt 0.550216913 0.961464524
vt 0.921886742 0.86700362
vt 0.937230408 0.854178369
vt 0.921886861 0.854178369
vt 0.93636024 0.865929246
vt 0.497270644 0.893434346
vt 0.510575712 0.908778071
vt 0.510575891 0.893434346
vt 0.497270465 0.908778071
vt 0.49118939 0.908778071
vt 0.491491109 0.89447701
vt 0.516653657 0.892901063
vt 0.516653419 0.908778071
vt 0.510991395 0.89229548
vt 0.596310854 0.73805064
vt 0.613873482 0.742973268
vt 0.609740198 0.73849833
vt 0.608759999 0.759878695
vt 0.613294482 0.75554812
vt 0.591674268 0.755544126
vt 0.591903389 0.742240667
vt 0.595934749 0.759878695
vt 0.663184941 0.912211359
vt 0.650184572 0.897346675
vt 0.650174975 0.912203014
vt 0.663194537 0.897355199
vt 0.669092655 0.897358954
vt 0.668967724 0.91146493
vt 0.718513846 0.891412437
vt 0.706020653 0.876823068
vt 0.706333697 0.891669452
vt 0.718200743 0.876566112
vt 0.724267721 0.876438141
vt 0.724192917 0.890580535
vt 0.855312884 0.971181571
vt 0.870222151 0.958719611
vt 0.855312943 0.958719611
vt 0.870222032 0.971181571
vt 0.584292471 0.894620776
vt 0.578418076 0.908254266
vt 0.584292352 0.908254266
vt 0.578418314 0.893424034
vt 0.565558195 0.893424034
vt 0.565558076 0.908254266
vt 0.559680521 0.908254266
vt 0.559680641 0.894620717
vt 0.270501256 0.928590715
vt 0.254124761 0.924256265
vt 0.258385181 0.928590715
vt 0.275775194 0.923602462
vt 0.254333198 0.91215992
vt 0.276284635 0.91253984
vt 0.259683371 0.906793475
vt 0.271126628 0.907175004
vt 0.912007928 0.921794653
vt 0.896664381 0.908969522
vt 0.896664321 0.921794653
vt 0.912007987 0.908969522
vt 0.621995568 0.755009353
vt 0.625800312 0.738013685
vt 0.621601641 0.742427289
vt 0.626465797 0.759406149
vt 0.639234841 0.737763703
vt 0.639289677 0.759594858
vt 0.643580079 0.742018223
vt 0.643613458 0.755323529
g submesh0
f 1/1 2/2 3/3
f 1/1 4/4 2/2
f 2/2 4/4 5/5
f 1/1 6/6 4/4
f 7/7 6/6 1/1
f 4/4 6/6 8/8
f 9/9 10/10 11/11
f 9/9 12/12 10/10
f 10/10 12/12 13/13
f 9/9 14/14 12/12
f 15/15 14/14 9/9
f 12/12 14/14 16/16
f 17/17 18/18 19/19
f 18/18 17/17 20/20
f 17/17 21/21 20/20
f 21/21 17/17 22/22
f 23/23 24/24 25/25
f 24/24 23/23 26/26
f 27/27 26/26 23/23
f 26/26 27/27 28/28
f 29/29 30/30 31/31
f 30/30 29/29 32/32
f 33/33 34/34 32/32
f 34/34 33/33 35/35
f 33/33 36/36 35/35
f 36/36 33/33 37/37
f 38/38 39/39 40/40
f 38/38 41/41 39/39
f 39/39 41/41 42/42
f 38/38 43/43 41/41
f 44/44 43/43 38/38
f 41/41 43/43 45/45
f 46/46 47/47 48/48
f 46/46 49/49 47/47
f 47/47 49/49 50/50
f 46/46 51/51 49/49
f 52/52 51/51 46/46
f 49/49 51/51 53/53
f 54/54 55/55 56/56
f 55/55 54/54 57/57
f 54/54 58/58 57/57
f 58/58 54/54 59/59
f 60/60 61/61 62/62
f 61/61 60/60 63/63
f 64/64 65/65 66/66
f 65/65 64/64 67/67
f 67/67 68/68 65/65
f 68/68 67/67 69/69
f 69/69 70/70 68/68
f 70/70 69/69 71/71
f 72/72 73/73 74/74
f 73/73 72/72 75/75
f 76/76 73/73 75/75
f 73/73 76/76 77/77
f 78/78 79/79 80/80
f 78/78 81/81 79/79
f 79/79 81/81 82/82
f 78/78 83/83 81/81
f 84/84 83/83 78/78
f 81/81 83/83 85/85
f 86/86 87/87 88/88
f 87/87 86/86 89/89
f 86/86 90/90 89/89
f 90/90 86/86 91/91
f 92/92 93/93 94/94
f 93/93 92/92 95/95
f 92/92 96/96 95/95
f 96/96 92/92 97/97
f 98/98 99/99 100/100
f 99/99 98/98 101/101
f 102/102 103/103 104/104
f 103/103 102/102 105/105
f 106/106 103/103 105/105
f 103/103 106/106 107/107
f 106/106 108/108 107/107
f 108/108 106/106 109/109
f 110/110 111/111 112/112
f 110/110 113/113 111/111
f 111/111 113/113 114/114
f 110/110 115/115 113/113
f 116/116 115/115 110/110
f 113/113 115/115 117/117
f 118/118 119/119 120/120
f 118/118 121/121 119/119
f 118/118 122/122 121/121
f 123/123 122/122 118/118
f 122/122 124/124 121/121
f 124/124 122/122 125/125
f 126/126 127/127 128/128
f 127/127 126/126 129/129
f 126/126 130/130 129/129
f 130/130 126/126 131/131
f 132/132 133/133 134/134
f 133/133 132/132 135/135
f 136/136 137/137 135/135
f 137/137 136/136 138/138
f 139/139 140/140 141/141
f 140/140 139/139 142/142
f 143/143 144/144 145/145
f 144/144 143/143 146/146
f 143/143 147/147 146/146
f 147/147 143/143 148/148
f 144/144 149/149 150/150
f 149/149 144/144 151/151
f 152/152 153/153 154/154
f 154/154 153/153 155/155
f 154/154 155/155 156/156
f 154/154 156/156 157/157
f 153/153 158/158 155/155
f 158/158 153/153 159/159
f 160/160 161/161 162/162
f 160/160 163/163 161/161
f 164/164 163/163 160/160
f 161/161 163/163 165/165
f 161/161 165/165 166/166
f 165/165 163/163 167/167
f 168/168 169/169 170/170
f 169/169 168/168 171/171
f 168/168 172/172 171/171
f 172/172 168/168 173/173
f 174/174 175/175 176/176
f 175/175 174/174 177/177
f 174/174 178/178 177/177
f 178/178 174/174 179/179
f 180/180 181/181 182/182
f 181/181 180/180 183/183
f 184/184 185/185 186/186
f 185/185 184/184 187/187
f 184/184 188/188 187/187
f 188/188 184/184 189/189
f 190/190 185/185 191/191
f 185/185 190/190 192/192
f 193/193 194/194 195/195
f 193/193 196/196 194/194
f 194/194 196/196 197/197
f 193/193 198/198 196/196
f 199/199 198/198 193/193
f 196/196 198/198 200/200
f 201/201 202/202 203/203
f 202/202 201/201 204/204
f 201/201 205/205 204/204
f 205/205 201/201 206/206
f 207/207 208/208 209/209
f 208/208 207/207 210/210
f 207/207 211/211 210/210
f 211/211 207/207 212/212
f 213/213 214/214 215/215
f 214/214 213/213 216/216
f 217/217 218/218 219/219
f 218/218 217/217 220/220
f 221/221 218/218 220/220
f 218/218 221/221 222/222
f 221/221 223/223 222/222
f 223/223 221/221 224/224
f 225/225 226/226 227/227
f 226/226 225/225 228/228
f 228/228 229/229 226/226
f 229/229 228/228 230/230
f 230/230 231/231 229/229
f 231/231 230/230 232/232
f 233/233 234/234 235/235
f 234/234 233/233 236/236
f 237/237 238/238 239/239
f 238/238 237/237 240/240
f 240/240 241/241 238/238
f 241/241 240/240 242/242
f 242/242 243/243 241/241
f 243/243 242/242 244/244
