# floating_walkway_railing_600_a_wood
v 0.0390913747 -0.117747992 0.00773080392
v -0.140619382 -0.128913224 0.0077293911
v -0.16859296 1.1453892 -0.0176308732
v 0.0373995304 1.12787318 -0.0176314656
v -2.88633943 -0.0914850235 0.0128499186
v -3.09058475 -0.108202815 0.0128149902
v -3.08006644 1.13822925 -0.0154656684
v -2.87650752 1.14055181 -0.0154279312
v -4.57373285 -0.12887378 0.00772864744
v -4.58777905 1.1454047 -0.0176315978
v -4.38874769 1.15008271 -0.0176285803
v -4.36839485 -0.124278069 0.00773003092
v -6.0761261 -0.108177677 0.0128152855
v -6.04428339 1.13822532 -0.0154684931
v -5.88070107 1.10079432 -0.0154264737
v -5.92192411 -0.0928108171 0.0128527964
v 0.0388571732 -0.117082596 0.0430237614
v -0.140539855 -0.12824893 0.0430230498
v -0.140619382 -0.128913224 0.0077293911
v 0.0390913747 -0.117747992 0.00773080392
v -0.140619382 -0.128913224 0.0077293911
v -0.168796733 1.14612889 0.0176607892
v -0.16859296 1.1453892 -0.0176308732
v -0.140539855 -0.12824893 0.0430230498
v 0.0388571732 -0.117082596 0.0430237614
v 0.0375164747 1.12860358 0.0176607817
v 0.0390913747 -0.117747992 0.00773080392
v 0.0373995304 1.12787318 -0.0176314656
v -0.16859296 1.1453892 -0.0176308732
v -0.168796733 1.14612889 0.0176607892
v 0.0375164747 1.12860358 0.0176607817
v 0.0373995304 1.12787318 -0.0176314656
v -3.09058475 -0.108202815 0.0128149902
v -3.08052087 1.13908303 0.0198210739
v -3.08006644 1.13822925 -0.0154656684
v -3.09055257 -0.107426912 0.0481064506
v -2.88651991 -0.0906582624 0.048139777
v -2.87641478 1.14135575 0.0198627878
v -2.88633943 -0.0914850235 0.0128499186
v -2.87650752 1.14055181 -0.0154279312
v -2.88651991 -0.0906582624 0.048139777
v -3.09055257 -0.107426912 0.0481064506
v -3.09058475 -0.108202815 0.0128149902
v -2.88633943 -0.0914850235 0.0128499186
v -3.08006644 1.13822925 -0.0154656684
v -3.08052087 1.13908303 0.0198210739
v -2.87641478 1.14135575 0.0198627878
v -2.87650752 1.14055181 -0.0154279312
v -4.57373285 -0.12887378 0.00772864744
v -4.58789253 1.14612889 0.0176607892
v -4.58777905 1.1454047 -0.0176315978
v -4.57366323 -0.128248975 0.0430230498
v -4.38829899 1.15082407 0.0176607799
v -4.36845827 -0.123615488 0.0430237576
v -4.38874769 1.15008271 -0.0176285803
v -4.36839485 -0.124278069 0.00773003092
v -4.58777905 1.1454047 -0.0176315978
v -4.58789253 1.14612889 0.0176607892
v -4.38829899 1.15082407 0.0176607799
v -4.38874769 1.15008271 -0.0176285803
v -6.0761261 -0.108177677 0.0128152855
v -6.04430389 1.13908303 0.0198210739
v -6.04428339 1.13822532 -0.0154684931
v -6.07588005 -0.107426949 0.0481064506
v -5.92239571 -0.0919757411 0.048139777
v -5.88042402 1.10161948 0.0198627915
v -5.92192411 -0.0928108171 0.0128527964
v -5.88070107 1.10079432 -0.0154264737
v -5.92239571 -0.0919757411 0.048139777
v -6.07588005 -0.107426949 0.0481064506
v -6.0761261 -0.108177677 0.0128152855
v -5.92192411 -0.0928108171 0.0128527964
v -6.04428339 1.13822532 -0.0154684931
v -6.04430389 1.13908303 0.0198210739
v -5.88042402 1.10161948 0.0198627915
v -5.88070107 1.10079432 -0.0154264737
v -4.36845827 -0.123615488 0.0430237576
v -4.57366323 -0.128248975 0.0430230498
v -4.57373285 -0.12887378 0.00772864744
v -4.36839485 -0.124278069 0.00773003092
v -1.646667 1.14740908 -0.0130955847
v -1.44245195 1.12084007 -0.0130734891
v -1.44435835 -0.113988183 0.0147406179
v -1.61750686 -0.11782001 0.0147402091
v -1.44454539 -0.11324928 0.0500323959
v -1.61741889 -0.117073588 0.0500322133
v -1.61750686 -0.11782001 0.0147402091
v -1.44435835 -0.113988183 0.0147406179
v -1.646667 1.14740908 -0.0130955847
v -1.64672971 1.14815569 0.0221964587
v -1.44186783 1.12214136 0.0221976805
v -1.44245195 1.12084007 -0.0130734891
v -1.64672971 1.14815569 0.0221964587
v -1.646667 1.14740908 -0.0130955847
v -1.61750686 -0.11782001 0.0147402091
v -1.61741889 -0.117073588 0.0500322133
v -1.44454539 -0.11324928 0.0500323959
v -1.44186783 1.12214136 0.0221976805
v -1.44435835 -0.113988183 0.0147406179
v -1.44245195 1.12084007 -0.0130734891
vt 0.829227746 0.478179157
vt 0.923549056 0.472817391
vt 0.925012887 1.20893526
vt 0.826525807 1.21165705
vt 0.100453995 -0.04046572
vt 0.197954834 -0.0502245426
vt 0.199350759 0.670028806
vt 0.102009296 0.671079993
vt 0.104201391 0.0467879921
vt 0.100711875 0.78292805
vt 0.00543092377 0.785523713
vt 0.00625826046 0.0484701395
vt 0.532328367 0.266707242
vt 0.532871544 0.987034082
vt 0.448182076 0.965548158
vt 0.453989536 0.275675178
vt 0.137184754 0.0357812494
vt 0.230651543 0.0357643031
vt 0.230678633 0.0129361786
vt 0.137135789 0.0129531808
vt 0.944518507 0.454868644
vt 0.925012887 1.20893526
vt 0.946043432 1.22225785
vt 0.923549056 0.472817391
vt 0.829227746 0.478179157
vt 0.826525807 1.21165705
vt 0.808305144 0.463758856
vt 0.8054896 1.23067069
vt 0.244160295 0.0327107683
vt 0.244249552 0.00972295087
vt 0.136760458 0.00966971368
vt 0.136766151 0.032657776
vt 0.218962267 -0.0703859851
vt 0.199350759 0.670028806
vt 0.220411256 0.6817379
vt 0.197954834 -0.0502245426
vt 0.100453995 -0.04046572
vt 0.102009296 0.671079993
vt 0.0794691071 -0.056770578
vt 0.0811171159 0.6893695
vt 0.140327439 0.0354499333
vt 0.245393902 0.0354452208
vt 0.245418429 0.0124966614
vt 0.140305907 0.0125014316
vt 0.243617967 0.0328064151
vt 0.243758976 0.00982301775
vt 0.1367248 0.00973972864
vt 0.136752337 0.0327239707
vt 0.125370294 0.0295703225
vt 0.100711875 0.78292805
vt 0.121732101 0.800044239
vt 0.104201391 0.0467879921
vt 0.00543092377 0.785523713
vt 0.00625826046 0.0484701395
vt -0.0155466758 0.796189606
vt -0.0152026005 0.0295194425
vt 0.245122433 0.0327829681
vt 0.245140359 0.00984493271
vt 0.139009565 0.00992171559
vt 0.139147565 0.0328590907
vt 0.553328872 0.252156764
vt 0.532871544 0.987034082
vt 0.553909719 1.00767779
vt 0.532328367 0.266707242
vt 0.453989536 0.275675178
vt 0.448182076 0.965548158
vt 0.433130324 0.263961971
vt 0.427130759 0.979756057
vt 0.140495479 0.0356621407
vt 0.225597396 0.0356634557
vt 0.225682408 0.0129455607
vt 0.14041391 0.0129443053
vt 0.223688185 0.0355094373
vt 0.223754078 0.012770352
vt 0.137751117 0.012742945
vt 0.137771785 0.0354821533
vt 0.143911108 0.0346285887
vt 0.249227718 0.034648262
vt 0.24924475 0.0117128389
vt 0.14390175 0.0116931628
vt 0.691950262 0.782236397
vt 0.57380873 0.774655819
vt 0.577080548 0.0540245958
vt 0.693919063 0.0538187847
vt 0.140095189 0.0345418155
vt 0.228878319 0.0345245562
vt 0.22890377 0.0117514348
vt 0.140046462 0.0117688151
vt 0.244718522 0.0343383476
vt 0.244755 0.011366914
vt 0.136432394 0.0114060268
vt 0.13649027 0.0343764909
vt 0.691950262 0.782236397
vt 0.713331461 0.80053103
vt 0.715008914 0.035154216
vt 0.693919063 0.0538187847
vt 0.577080548 0.0540245958
vt 0.57380873 0.774655819
vt 0.55618155 0.0367357954
vt 0.548610389 0.787328303
g submesh0
f 1/1 2/2 3/3
f 1/1 3/3 4/4
f 5/5 6/6 7/7
f 5/5 7/7 8/8
f 9/9 10/10 11/11
f 9/9 11/11 12/12
f 13/13 14/14 15/15
f 13/13 15/15 16/16
f 17/17 18/18 19/19
f 17/17 19/19 20/20
f 21/21 22/22 23/23
f 21/21 24/24 22/22
f 25/25 22/22 24/24
f 25/25 26/26 22/22
f 26/26 25/25 27/27
f 26/26 27/27 28/28
f 29/29 30/30 31/31
f 29/29 31/31 32/32
f 33/33 34/34 35/35
f 33/33 36/36 34/34
f 34/34 36/36 37/37
f 34/34 37/37 38/38
f 38/38 37/37 39/39
f 38/38 39/39 40/40
f 41/41 42/42 43/43
f 41/41 43/43 44/44
f 45/45 46/46 47/47
f 45/45 47/47 48/48
f 49/49 50/50 51/51
f 49/49 52/52 50/50
f 52/52 53/53 50/50
f 52/52 54/54 53/53
f 54/54 55/55 53/53
f 54/54 56/56 55/55
f 57/57 58/58 59/59
f 57/57 59/59 60/60
f 61/61 62/62 63/63
f 61/61 64/64 62/62
f 62/62 64/64 65/65
f 62/62 65/65 66/66
f 66/66 65/65 67/67
f 66/66 67/67 68/68
f 69/69 70/70 71/71
f 69/69 71/71 72/72
f 73/73 74/74 75/75
f 73/73 75/75 76/76
f 77/77 78/78 79/79
f 77/77 79/79 80/80
f 81/81 82/82 83/83
f 81/81 83/83 84/84
f 85/85 86/86 87/87
f 85/85 87/87 88/88
f 89/89 90/90 91/91
f 89/89 91/91 92/92
f 93/93 94/94 95/95
f 93/93 95/95 96/96
f 97/97 93/93 96/96
f 97/97 98/98 93/93
f 98/98 97/97 99/99
f 98/98 99/99 100/100
