# floating_cities_medical_bay_shell_wood
v -4.39766359 2.32247686 8.74102688
v -4.39717245 2.32247663 6.46419716
v -4.39818287 0.982408047 6.46419477
v -4.39840364 1.0116756 8.74422932
v -4.33991528 1.03866959 5.78110743
v -4.3462491 2.32247686 5.77790833
v -4.34512758 2.32247686 3.50107718
v -4.33969402 1.00940216 3.5010736
v -4.36658001 1.0116756 2.53053641
v -4.36166239 2.32247686 2.52733707
v -4.36779022 2.32247663 0.250506878
v -4.36635923 0.982408226 0.250504464
v 4.3906312 2.31777263 -5.72229767
v 4.38900232 2.31777167 -3.71180725
v 4.38692236 1.10195351 -3.71180606
v 4.38724327 1.10195363 -5.72549725
v 1.00039768 2.31777263 8.78949356
v -1.01009297 2.31777191 8.78855991
v -1.0100944 1.10195339 8.78736591
v 1.0035969 1.10195351 8.78755093
vt 0.575284362 0.804042041
vt 0.584173977 0.145764872
vt 0.198947638 0.140734464
vt 0.198374778 0.799716413
vt 1.76422322 0.998354256
vt 1.76848114 0.621440887
vt 1.1101402 0.612546384
vt 1.10508847 0.997764766
vt 0.989350259 0.483710796
vt 0.993704557 0.106558807
vt 0.336501092 0.0987167284
vt 0.331422329 0.48291868
vt 1.73199141 0.664313793
vt 1.15073717 0.656509995
vt 1.14602363 1.00652409
vt 1.72814977 1.01449549
vt 1.73199141 0.664313793
vt 1.15073717 0.656509995
vt 1.14602363 1.00652409
vt 1.72814977 1.01449549
g submesh0
f 1/1 2/2 3/3
f 1/1 3/3 4/4
f 5/5 6/6 7/7
f 5/5 7/7 8/8
f 9/9 10/10 11/11
f 9/9 11/11 12/12
f 13/13 14/14 15/15
f 13/13 15/15 16/16
f 17/17 18/18 19/19
f 17/17 19/19 20/20
