# floating_city_farm_kiosk_wood_a
v -2.82314324 2.2425189 1.69147301
v -2.92008233 2.88490081 1.69324338
v -1.36812985 2.2425189 1.69147301
v -2.92008233 0.0467383787 1.71321356
v -2.92008233 2.88490081 1.69324338
v -2.82314324 1.14645469 1.69147301
v -1.36812985 1.14645469 1.69147301
v -2.92008233 0.0467383787 1.71321356
v -1.36812985 1.14645469 1.69147301
v -1.22714198 0.0448107906 1.69347107
v -1.2270751 2.17178869 1.69335091
v -1.36812985 2.2425189 1.69147301
v -0.0879075602 2.87582183 1.70848596
v -2.92008233 2.88490081 1.69324338
v -0.183793619 2.17178893 1.70724106
v -0.0886135846 2.17209244 1.70911896
v -0.0898728892 0.043634899 1.71024811
v -0.184918851 0.0437749475 1.70824993
v -1.2271421 2.17178893 1.74135208
v -0.183793619 2.17178893 1.70724106
v -0.184356377 2.17178893 1.74108851
v -0.184356377 0.0375552438 1.74122071
v -0.184356377 2.17178893 1.74108851
v -0.184918851 0.0437749475 1.70824993
v -1.2271421 0.0375557281 1.74247169
v -1.22714198 0.0448107906 1.69347107
v -1.2270751 2.17178869 1.69335091
v -1.2271421 0.0375446305 1.74245238
v -2.96551061 -5.13151861E-07 1.74462974
v -0.0433686823 2.87582183 1.7410531
v -0.184356377 0.0375552438 1.74122071
v -0.0433686823 -3.60137562E-07 1.74105287
v -1.36812985 2.2425189 1.74138772
v -1.2271421 2.17178893 1.74135208
v -2.82314324 2.2425189 1.74138772
v -2.96559954 2.87582183 1.7452085
v -1.36812985 1.14645469 1.74138761
v -1.2271421 0.0375446305 1.74245238
v -2.96551061 -5.13151861E-07 1.74462974
v -2.96559954 2.87582183 1.7452085
v -2.82314324 1.14645469 1.74138761
v -0.0962628052 0.763103485 1.30216014
v -0.0962628126 0.0449511744 0.00230331952
v -0.0898728892 0.043634899 1.71024811
v -0.0962628052 0.765521288 0.424539357
v -0.0903032646 2.37038517 -0.00142725348
v -0.0952183306 2.02481985 0.424539685
v -0.0879075602 2.87582183 1.70848596
v -0.0962628052 2.01692843 1.30216026
v -0.0898728892 0.043634899 1.71024811
v -0.0886135846 2.17209244 1.70911896
v -0.0962628052 2.01692843 1.30216026
v -0.0903032646 2.37038517 -0.00142725348
v -0.0879075602 2.87582183 1.70848596
v -0.0433686823 2.87582183 1.7410531
v -0.0433686823 2.37038517 -0.0513827167
v -2.95741081 2.39300251 -0.0309769046
v -2.92008233 2.39526176 0.0257005878
v -0.0962628052 0.763103485 1.30216014
v -0.0433686823 0.773834527 1.30216014
v -0.0433686823 0.773834646 0.424539357
v -0.0962628052 0.765521288 0.424539357
v -0.0962628052 2.01692843 1.30216026
v -0.0952183306 2.02481985 0.424539685
v -0.0417695604 2.00792336 0.424539626
v -0.0433686823 2.01692843 1.30216026
v -0.0962628052 0.765521288 0.424539357
v -0.0433686823 0.773834646 0.424539357
v -0.0417695604 2.00792336 0.424539626
v -0.0952183306 2.02481985 0.424539685
v -2.92008233 0.0467384346 0.014290777
v -0.0962628126 0.0449511744 0.00230331952
v -0.0903032646 2.37038517 -0.00142725348
v -2.92008233 2.39526176 0.0257005878
v -2.92008233 0.0467384346 0.014290777
v -2.92008233 2.39526176 0.0257005878
v -2.92008233 2.88490081 1.69324338
v -2.92008233 0.0467383787 1.71321356
v -0.0433686823 8.23565784E-08 -0.050857082
v -2.95217347 0.000893482415 -0.0337722041
v -2.95741081 2.39300251 -0.0309769046
v -0.0433686823 2.37038517 -0.0513827167
v -2.96551061 -5.13151861E-07 1.74462974
v -2.96559954 2.87582183 1.7452085
v -2.95741081 2.39300251 -0.0309769046
v -2.95217347 0.000893482415 -0.0337722041
v -2.96559954 2.87582183 1.7452085
v -2.92008233 2.88490081 1.69324338
v -2.92008233 2.39526176 0.0257005878
v -2.95741081 2.39300251 -0.0309769046
v -0.0433686823 2.87582183 1.7410531
v -2.92008233 2.88490081 1.69324338
v -2.96559954 2.87582183 1.7452085
v -0.0879075602 2.87582183 1.70848596
v -0.0433686823 8.23565784E-08 -0.050857082
v -2.96551061 -5.13151861E-07 1.74462974
v -2.95217347 0.000893482415 -0.0337722041
v -0.0433686823 -3.60137562E-07 1.74105287
v -1.2271421 0.0375557281 1.74247169
v -0.184356377 0.0375552438 1.74122071
v -0.0898728892 0.043634899 1.71024811
v -0.0962628126 0.0449511744 0.00230331952
v -2.92008233 0.0467384346 0.014290777
v -0.184918851 0.0437749475 1.70824993
v -1.22714198 0.0448107906 1.69347107
v -2.92008233 0.0467383787 1.71321356
v -0.0962628052 2.01692843 1.30216026
v -0.0433686823 2.01692843 1.30216026
v -0.0433686823 0.773834527 1.30216014
v -0.0962628052 0.763103485 1.30216014
v -0.0433686823 2.87582183 1.7410531
v -0.0433686823 2.01692843 1.30216026
v -0.0417695604 2.00792336 0.424539626
v -0.0433686823 2.37038517 -0.0513827167
v -0.0433686823 0.773834527 1.30216014
v -0.0433686823 -3.60137562E-07 1.74105287
v -0.0433686823 0.773834646 0.424539357
v -0.0433686823 8.23565784E-08 -0.050857082
v -0.0417695604 2.00792336 0.424539626
v -2.82314324 2.2425189 1.69147301
v -1.36812985 2.2425189 1.74138772
v -2.82314324 2.2425189 1.74138772
v -1.36812985 2.2425189 1.69147301
v -2.82314324 1.14645469 1.69147301
v -1.36812985 1.14645469 1.74138761
v -2.82314324 1.14645469 1.74138761
v -1.36812985 1.14645469 1.69147301
vt 0.394127399 0.408998758
vt 0.438244641 0.30189994
vt 0.394127399 0.307639182
vt 0.241164401 0.415751845
vt 0.438244641 0.30189994
vt 0.317773104 0.408998758
vt 0.317773104 0.307639182
vt 0.241164401 0.415751845
vt 0.317773104 0.307639182
vt 0.241030067 0.287905544
vt 0.366768658 0.298153102
vt 0.394127399 0.307639182
vt 0.438244641 0.218456194
vt 0.438244641 0.30189994
vt 0.367295533 0.227991417
vt 0.367366761 0.218505353
vt 0.24094823 0.218593061
vt 0.240957975 0.2268482
vt 0.457133323 0.223895788
vt 0.2409482 0.00974892452
vt 0.207710922 0.502142727
vt 0.454499096 0.219896197
vt 0.443577915 0.174809754
vt 0.2409482 0.174871951
vt 0.2409482 0.729013741
vt 0.865005612 0.0115933837
vt 0.443942845 0.0081734322
vt 0.667036057 0.0139201535
vt 0.670728624 0.0102263186
vt 0.217532143 0.428738952
vt 0.20791173 0.626874089
vt 0.217532143 0.629068911
vt 0.125249133 0.514200568
vt 0.135070354 0.512764454
vt 0.0238927454 0.472854793
vt 0.01396925 0.428738952
vt 0.125249133 0.549206674
vt 0.136756212 0.627058327
vt 0.136785865 0.629068971
vt 0.01396925 0.428738952
vt 0.0238927454 0.549206674
vt 0.508527219 0.521604598
vt 0.458500028 0.431055695
vt 0.458408475 0.550032198
vt 0.508695602 0.460468888
vt 0.620491564 0.430795938
vt 0.596419156 0.460469007
vt 0.655700505 0.549909472
vt 0.564492047 0.521604598
vt 0.458408475 0.550032198
vt 0.584824204 0.54995358
vt 0.564492047 0.521604598
vt 0.656822741 0.221981362
vt 0.65699172 0.342645109
vt 0.660134792 0.344943285
vt 0.660134792 0.218456194
vt 0.454499096 0.219896197
vt 0.457133323 0.223895788
vt 0.897524893 0.480956495
vt 0.897524893 0.484644592
vt 0.95871675 0.484644592
vt 0.95871675 0.480956495
vt 0.897493124 0.493460625
vt 0.95871675 0.493387729
vt 0.95871675 0.489659309
vt 0.897493124 0.48977077
vt 0.428844184 0.482266337
vt 0.428265005 0.478581756
vt 0.342298418 0.478470266
vt 0.341121495 0.482193589
vt 0.01396925 0.807719171
vt 0.210685879 0.807843447
vt 0.211101025 0.645846069
vt 0.01396925 0.644113064
vt 0.670728624 0.126520619
vt 0.831488907 0.125739425
vt 0.865005612 0.0115933837
vt 0.670728624 0.0102263186
vt 0.2409482 0.174871951
vt 0.443577915 0.174809754
vt 0.443942845 0.0081734322
vt 0.2409482 0.00974892452
vt 0.2409482 0.729013741
vt 0.441279799 0.729053855
vt 0.407646209 0.605323792
vt 0.241010427 0.605129182
vt 0.453921258 0.34523651
vt 0.57246387 0.341417491
vt 0.457133323 0.223895788
vt 0.454499096 0.219896197
vt 0.660134792 0.344943285
vt 0.57246387 0.341417491
vt 0.453921258 0.34523651
vt 0.65699172 0.342645109
vt 0.662543476 0.133247092
vt 0.581797302 0.00832375791
vt 0.459916115 0.132056922
vt 0.662543476 0.00842259452
vt 0.581797302 0.00832375791
vt 0.652926564 0.0084108226
vt 0.872331977 0.337515533
vt 0.87188679 0.218539804
vt 0.675179005 0.219374821
vt 0.864077091 0.337376356
vt 0.803021491 0.336346835
vt 0.675179005 0.337722093
vt 0.921729743 0.557834029
vt 0.953106582 0.554149449
vt 0.866512656 0.554149449
vt 0.865765214 0.557834029
vt 0.01396925 0.948064566
vt 0.0737998486 0.917491317
vt 0.0744271427 0.856356263
vt 0.0491779745 0.823203385
vt 0.160393819 0.917491317
vt 0.214299172 0.948064566
vt 0.160393804 0.856356263
vt 0.214299172 0.823240221
vt 0.0744271427 0.856356263
vt 0.953106582 0.554149449
vt 0.620491564 0.430795938
vt 0.95871675 0.489659309
vt 0.865765214 0.557834029
vt 0.342298418 0.478470266
vt 0.897493124 0.48977077
vt 0.897493124 0.493460625
vt 0.341121495 0.482193589
g submesh0
f 1/1 2/2 3/3
f 1/1 4/4 5/5
f 1/1 6/6 4/4
f 7/7 8/8 6/6
f 9/9 10/10 8/8
f 11/11 10/10 9/9
f 11/11 9/9 12/12
f 11/11 12/12 13/13
f 14/14 13/13 12/12
f 13/13 15/15 11/11
f 13/13 16/16 15/15
f 17/17 15/15 16/16
f 17/17 18/18 15/15
f 19/19 11/11 20/20
f 19/19 20/20 21/21
f 22/22 23/23 20/20
f 22/22 20/20 24/24
f 25/25 22/22 24/24
f 25/25 24/24 26/26
f 19/19 26/26 27/27
f 19/19 28/28 26/26
f 29/29 26/26 28/28
f 30/30 21/21 31/31
f 30/30 31/31 32/32
f 33/33 21/21 30/30
f 33/33 34/34 21/21
f 30/30 35/35 33/33
f 30/30 36/36 35/35
f 37/37 34/34 33/33
f 37/37 38/38 34/34
f 39/39 38/38 37/37
f 39/39 35/35 40/40
f 39/39 37/37 41/41
f 39/39 41/41 35/35
f 42/42 43/43 44/44
f 42/42 45/45 43/43
f 45/45 46/46 43/43
f 45/45 47/47 46/46
f 47/47 48/48 46/46
f 47/47 49/49 48/48
f 42/42 50/50 51/51
f 52/52 51/51 48/48
f 42/42 51/51 52/52
f 53/53 54/54 55/55
f 53/53 55/55 56/56
f 57/57 53/53 56/56
f 57/57 58/58 53/53
f 59/59 60/60 61/61
f 59/59 61/61 62/62
f 63/63 64/64 65/65
f 63/63 65/65 66/66
f 67/67 68/68 69/69
f 67/67 69/69 70/70
f 71/71 72/72 73/73
f 71/71 73/73 74/74
f 75/75 76/76 77/77
f 75/75 77/77 78/78
f 79/79 80/80 81/81
f 79/79 81/81 82/82
f 83/83 84/84 85/85
f 83/83 85/85 86/86
f 87/87 88/88 89/89
f 87/87 89/89 90/90
f 91/91 92/92 93/93
f 91/91 94/94 92/92
f 95/95 96/96 97/97
f 95/95 98/98 96/96
f 98/98 99/99 96/96
f 98/98 100/100 99/99
f 101/101 102/102 103/103
f 103/103 104/104 101/101
f 103/103 105/105 104/104
f 106/106 105/105 103/103
f 107/107 108/108 109/109
f 107/107 109/109 110/110
f 111/111 112/112 113/113
f 111/111 113/113 114/114
f 115/115 112/112 111/111
f 115/115 111/111 116/116
f 117/117 115/115 116/116
f 117/117 116/116 118/118
f 118/118 114/114 119/119
f 118/118 119/119 117/117
f 120/120 121/121 122/122
f 120/120 123/123 121/121
f 124/124 120/120 122/122
f 123/123 125/125 121/121
f 124/124 122/122 126/126
f 123/123 127/127 125/125
f 127/127 124/124 126/126
f 127/127 126/126 125/125
