# floating_walkway_plastic_broken_300x150_a_plastic
v -0.629413188 -0.480561703 -0.00355545036
v 0.018521728 -0.50822556 -0.109867707
v -0.0938425437 -0.480800003 -0.00216140738
v -0.732141554 -0.498396337 -0.102183074
v 0.0115230558 -0.50822562 -1.39621747
v -0.724882722 -0.493363261 -0.759366572
v -0.633505762 -0.480800033 -3.01802158
v 0.00686302176 -0.50822556 -2.88605833
v -0.128861994 -0.506999969 -3.01882386
v -1.52473998 -0.480800003 -2.15570402
v -1.40705454 -0.480772018 -0.740155101
v -1.53266227 -0.480800033 -0.843286514
v -0.128861994 -6.55330723E-08 -3.01882339
v -0.633505762 -0.480800033 -3.01802158
v -0.633505762 -6.55330723E-08 -3.01802158
v -0.128861994 -0.506999969 -3.01882386
v -0.629572451 -6.55330723E-08 -0.00305572501
v -0.0938425437 -0.480800003 -0.00216140738
v -0.0938425437 -6.55330723E-08 -0.00216125487
v -0.629413188 -0.480561703 -0.00355545036
v -0.629572451 -6.55330723E-08 -0.00305572501
v -0.732141554 -0.498396337 -0.102183074
v -0.739904642 -0.000559753214 -0.0974195823
v -0.73242867 -6.55330723E-08 -0.75201112
v -0.732141554 -0.498396337 -0.102183074
v -0.739904642 -0.000559753214 -0.0974195823
v -0.724882722 -0.493363261 -0.759366572
v -1.40707266 -6.55330723E-08 -0.740105629
v -0.724882722 -0.493363261 -0.759366572
v -0.73242867 -6.55330723E-08 -0.75201112
v -1.40705454 -0.480772018 -0.740155101
v -1.40707266 -6.55330723E-08 -0.740105629
v -1.53266227 -0.480800033 -0.843286514
v -1.40705454 -0.480772018 -0.740155101
v -1.53266227 -6.55330723E-08 -0.843286514
v -1.52473998 -6.55330723E-08 -2.15570402
v -1.52473998 -0.480800003 -2.15570402
v -1.40707266 -6.55330723E-08 -0.740105629
v -1.52473998 -6.55330723E-08 -2.15570402
v -1.53266227 -6.55330723E-08 -0.843286514
v -0.73242867 -6.55330723E-08 -0.75201112
v -0.633505762 -6.55330723E-08 -3.01802158
v 0.00686302176 -6.55330723E-08 -2.88605809
v -0.128861994 -6.55330723E-08 -3.01882339
v 0.018521728 -6.55330723E-08 -0.109867401
v -0.739904642 -0.000559753214 -0.0974195823
v -0.629572451 -6.55330723E-08 -0.00305572501
v -0.0938425437 -6.55330723E-08 -0.00216125487
v -0.885540247 -0.55352211 -3.06679964
v -1.52236247 -0.621613383 -2.99064565
v -1.40251291 -0.61909616 -3.09619164
v -1.52473998 -0.480800003 -2.15570402
v -0.633505762 -0.480800033 -3.01802158
v -1.56595612 -0.56585294 -2.48334765
v -0.633505762 -6.55330723E-08 -3.01802158
v -1.62465537 -0.0943770483 -2.54417348
v -1.52473998 -6.55330723E-08 -2.15570402
v -1.46121228 -0.147620454 -3.15701723
v -0.944239795 -0.0820466504 -3.12762499
v -1.58106184 -0.150137588 -3.05147147
v -1.56595612 -0.56585294 -2.48334765
v -1.58106184 -0.150137588 -3.05147147
v -1.52236247 -0.621613383 -2.99064565
v -1.62465537 -0.0943770483 -2.54417348
v -1.52473998 -0.480800003 -2.15570402
v -1.62465537 -0.0943770483 -2.54417348
v -1.52473998 -6.55330723E-08 -2.15570402
v -0.633505762 -6.55330723E-08 -3.01802158
v -0.885540247 -0.55352211 -3.06679964
v -0.944239795 -0.0820466504 -3.12762499
v -0.633505762 -0.480800033 -3.01802158
v -1.58106184 -0.150137588 -3.05147147
v -1.40251291 -0.61909616 -3.09619164
v -1.52236247 -0.621613383 -2.99064565
v -1.46121228 -0.147620454 -3.15701723
v -0.944239795 -0.0820466504 -3.12762499
v -0.885540247 -0.55352211 -3.06679964
v -2.40012455 -0.726589859 -2.64315057
v -3.02678561 -0.877318323 -2.5220809
v -2.8709631 -0.918070555 -2.63927674
v -3.04778314 -0.502641499 -2.09018683
v -3.12451077 -0.614474714 -2.17214894
v -2.40313363 -0.300404042 -2.17227745
v -2.3068943 -0.623374462 -2.57500911
v -2.57666707 -0.304496884 -2.06174088
v -2.99591923 -0.536364794 -2.95536757
v -2.4740026 -0.279397815 -2.87258196
v -2.56602955 -0.380352616 -2.96720552
v -3.15467024 -0.543125093 -2.83794737
v -3.25650406 -0.243981704 -2.45712638
v -2.54337788 0.0202445909 -2.48812222
v -3.15029192 -0.109486014 -2.34076667
v -2.68958974 0.0537184142 -2.35792279
v -2.3068943 -0.623374462 -2.57500911
v -2.54337788 0.0202445909 -2.48812222
v -2.40313363 -0.300404042 -2.17227745
v -2.4740026 -0.279397815 -2.87258196
v -2.56602955 -0.380352616 -2.96720552
v -2.4740026 -0.279397815 -2.87258196
v -2.40012455 -0.726589859 -2.64315057
v -2.57666707 -0.304496884 -2.06174088
v -3.15029192 -0.109486014 -2.34076667
v -3.04778314 -0.502641499 -2.09018683
v -2.68958974 0.0537184142 -2.35792279
v -2.54337788 0.0202445909 -2.48812222
v -2.40313363 -0.300404042 -2.17227745
v -3.15029192 -0.109486014 -2.34076667
v -3.12451077 -0.614474714 -2.17214894
v -3.04778314 -0.502641499 -2.09018683
v -3.25650406 -0.243981704 -2.45712638
v -3.15467024 -0.543125093 -2.83794737
v -3.02678561 -0.877318323 -2.5220809
v -3.15467024 -0.543125093 -2.83794737
v -2.8709631 -0.918070555 -2.63927674
v -3.02678561 -0.877318323 -2.5220809
v -2.99591923 -0.536364794 -2.95536757
v -2.56602955 -0.380352616 -2.96720552
v -2.40012455 -0.726589859 -2.64315057
v -1.81404126 -0.424135476 -1.52162492
v -2.37078428 -0.619624019 -1.4740895
v -2.24443054 -0.557157874 -1.59254646
v -2.36230135 -0.652579725 -0.871132255
v -2.45381331 -0.657267213 -1.02746725
v -1.756603 -0.465121001 -0.900980592
v -1.69400835 -0.401364446 -1.35275984
v -1.89811611 -0.507684767 -0.782527745
v -1.82427275 0.0750516132 -1.30955529
v -2.05003929 -0.0514644757 -0.743170917
v -1.89393735 0.0169844422 -0.856109977
v -2.59714437 -0.224229097 -0.995210648
v -2.48430753 -0.17935808 -0.826210856
v -2.3885479 -0.0644273758 -1.57164741
v -1.94027364 0.0485759266 -1.48579371
v -2.52735138 -0.139543638 -1.45790648
v -1.89393735 0.0169844422 -0.856109977
v -1.69400835 -0.401364446 -1.35275984
v -1.82427275 0.0750516132 -1.30955529
v -1.756603 -0.465121001 -0.900980592
v -1.89811611 -0.507684767 -0.782527745
v -2.05003929 -0.0514644757 -0.743170917
v -2.48430753 -0.17935808 -0.826210856
v -1.89811611 -0.507684767 -0.782527745
v -2.05003929 -0.0514644757 -0.743170917
v -2.36230135 -0.652579725 -0.871132255
v -2.48430753 -0.17935808 -0.826210856
v -2.45381331 -0.657267213 -1.02746725
v -2.59714437 -0.224229097 -0.995210648
v -2.45381331 -0.657267213 -1.02746725
v -2.52735138 -0.139543638 -1.45790648
v -2.37078428 -0.619624019 -1.4740895
v -2.59714437 -0.224229097 -0.995210648
v -1.69400835 -0.401364446 -1.35275984
v -1.94027364 0.0485759266 -1.48579371
v -1.82427275 0.0750516132 -1.30955529
v -1.81404126 -0.424135476 -1.52162492
v -2.24443054 -0.557157874 -1.59254646
v -1.94027364 0.0485759266 -1.48579371
v -2.3885479 -0.0644273758 -1.57164741
v -2.52735138 -0.139543638 -1.45790648
v -2.37078428 -0.619624019 -1.4740895
v -0.782132268 -0.472094893 -0.130971834
v -1.14867413 -0.567927897 -0.642145038
v -1.01271713 -0.532372653 -0.586514294
v -1.62299013 -0.669324458 -0.193057701
v -1.55254698 -0.652607918 -0.395769805
v -1.24026299 -0.554163575 0.264796585
v -0.821778536 -0.465957373 0.0453910828
v -1.38827837 -0.585485578 0.214764252
v -0.92375499 0.0309015866 0.00639709458
v -1.50489748 -0.103425272 0.211059108
v -1.36428905 -0.0543128662 0.255300283
v -1.67042494 -0.151372135 -0.415424496
v -1.73535204 -0.157905772 -0.208163604
v -1.11678445 -0.0383359417 -0.606330991
v -0.86646688 0.0253320429 -0.136815339
v -1.25859392 -0.0734035969 -0.655747056
v -1.36428905 -0.0543128662 0.255300283
v -0.821778536 -0.465957373 0.0453910828
v -0.92375499 0.0309015866 0.00639709458
v -1.24026299 -0.554163575 0.264796585
v -1.36428905 -0.0543128662 0.255300283
v -1.38827837 -0.585485578 0.214764252
v -1.50489748 -0.103425272 0.211059108
v -1.73535204 -0.157905772 -0.208163604
v -1.38827837 -0.585485578 0.214764252
v -1.50489748 -0.103425272 0.211059108
v -1.62299013 -0.669324458 -0.193057701
v -1.73535204 -0.157905772 -0.208163604
v -1.55254698 -0.652607918 -0.395769805
v -1.67042494 -0.151372135 -0.415424496
v -1.25859392 -0.0734035969 -0.655747056
v -1.55254698 -0.652607918 -0.395769805
v -1.67042494 -0.151372135 -0.415424496
v -1.14867413 -0.567927897 -0.642145038
v -1.25859392 -0.0734035969 -0.655747056
v -1.01271713 -0.532372653 -0.586514294
v -1.11678445 -0.0383359417 -0.606330991
v -0.86646688 0.0253320429 -0.136815339
v -1.01271713 -0.532372653 -0.586514294
v -1.11678445 -0.0383359417 -0.606330991
v -0.782132268 -0.472094893 -0.130971834
v -0.86646688 0.0253320429 -0.136815339
v -0.821778536 -0.465957373 0.0453910828
v -0.92375499 0.0309015866 0.00639709458
v 0.0115230558 -0.50822562 -1.39621747
v 0.018521728 -6.55330723E-08 -0.109867401
v 0.018521728 -0.50822556 -0.109867707
v 0.00686302176 -6.55330723E-08 -2.88605809
v 0.00686302176 -0.50822556 -2.88605833
v -0.128861994 -0.506999969 -3.01882386
v 0.00686302176 -6.55330723E-08 -2.88605809
v -0.128861994 -6.55330723E-08 -3.01882339
v -0.0938425437 -0.480800003 -0.00216140738
v 0.018521728 -6.55330723E-08 -0.109867401
v -0.0938425437 -6.55330723E-08 -0.00216125487
v 0.018521728 -0.50822556 -0.109867707
vt 0.754681349 0.226108328
vt 0.751252592 0.244807363
vt 0.754828453 0.242845997
vt 0.751944661 0.222887561
vt 0.711198151 0.24474062
vt 0.73290956 0.223118857
vt 0.689300835 0.222534865
vt 0.69178611 0.24470824
vt 0.666805089 0.241576999
vt 0.68897301 0.202849925
vt 0.733255744 0.203506783
vt 0.73025614 0.199855819
vt 0.960549474 0.764948428
vt 0.976134121 0.778925538
vt 0.976134121 0.764948428
vt 0.960549474 0.778925538
vt 0.638339698 0.964417279
vt 0.621601641 0.950440168
vt 0.621601641 0.964417279
vt 0.638339698 0.950440168
vt 0.638344526 0.967446983
vt 0.642566442 0.950440168
vt 0.642579556 0.96664536
vt 0.481900364 0.795077264
vt 0.467923254 0.814113975
vt 0.481900364 0.814113975
vt 0.467923254 0.795077264
vt 0.868713319 0.786449194
vt 0.888328671 0.800426245
vt 0.888328671 0.786449194
vt 0.868713319 0.800426245
vt 0.28455469 0.915667653
vt 0.289279342 0.90168649
vt 0.284554392 0.90168649
vt 0.289135933 0.916424394
vt 0.316022933 0.915663719
vt 0.316022933 0.90168649
vt 0.442339659 0.419209868
vt 0.398056924 0.419866711
vt 0.439340025 0.422860801
vt 0.441993564 0.399597764
vt 0.39838475 0.40018183
vt 0.379945427 0.378043294
vt 0.375889063 0.381139725
vt 0.460336357 0.377909303
vt 0.461028576 0.39982909
vt 0.463765204 0.396608353
vt 0.463912368 0.379870683
vt 0.966231346 0.0784418136
vt 0.971159935 0.0596554428
vt 0.966440439 0.064160198
vt 0.989637494 0.0648956522
vt 0.989828467 0.0784073174
vt 0.984920323 0.0600941814
vt 0.256422013 0.811091244
vt 0.259006351 0.790444434
vt 0.254296273 0.79525274
vt 0.277492195 0.794483721
vt 0.27772209 0.808764935
vt 0.272766262 0.789985716
vt 0.885122597 0.742968559
vt 0.898890138 0.756893158
vt 0.898890138 0.742968559
vt 0.885122597 0.756893158
vt 0.878391802 0.742968559
vt 0.884114206 0.755699098
vt 0.877383351 0.754980087
vt 0.960460603 0.304679692
vt 0.955714464 0.29262048
vt 0.953932643 0.304679692
vt 0.961831272 0.292011499
vt 0.650174975 0.889720976
vt 0.6566993 0.877048194
vt 0.650174975 0.877048194
vt 0.6566993 0.890439987
vt 0.67098242 0.890972674
vt 0.67098242 0.877048194
vt 0.361929387 0.737739265
vt 0.342867255 0.7324121
vt 0.346556634 0.737608016
vt 0.350424051 0.71514374
vt 0.345163822 0.719086528
vt 0.369344652 0.719420195
vt 0.367399752 0.733452916
vt 0.365110934 0.714782238
vt 0.346323967 0.815173924
vt 0.365315676 0.819452763
vt 0.36032635 0.814768016
vt 0.341492742 0.820354164
vt 0.342120349 0.833937764
vt 0.36550203 0.833697975
vt 0.347377807 0.838072836
vt 0.360631078 0.838072836
vt 0.750175655 0.778779447
vt 0.738501728 0.764948428
vt 0.736025095 0.778779566
vt 0.752652228 0.764948487
vt 0.759170473 0.767860889
vt 0.752955258 0.766422629
vt 0.757086277 0.779433906
vt 0.664789975 0.802542508
vt 0.651791334 0.787763596
vt 0.650174975 0.803830683
vt 0.664964199 0.78899461
vt 0.67155087 0.788866997
vt 0.671015441 0.801690698
vt 0.641633749 0.887024999
vt 0.635074556 0.899994671
vt 0.641653895 0.900093734
vt 0.634796143 0.886136889
vt 0.621947944 0.885896206
vt 0.621601641 0.900223911
vt 0.650696456 0.778454542
vt 0.657027483 0.765080869
vt 0.650619388 0.765091181
vt 0.657538116 0.780811191
vt 0.671094716 0.781243443
vt 0.67213577 0.767764747
vt 0.643499911 0.770207882
vt 0.639225125 0.787720442
vt 0.64353323 0.78346467
vt 0.621994078 0.783151567
vt 0.626448035 0.78753233
vt 0.625784993 0.766217887
vt 0.639170527 0.765968859
vt 0.621601641 0.770615458
vt 0.537953198 0.739430189
vt 0.553031504 0.7476753
vt 0.548318088 0.741084158
vt 0.544644475 0.762140989
vt 0.5513978 0.757139325
vt 0.529975772 0.754491329
vt 0.531444669 0.744227707
vt 0.534877658 0.760914624
vt 0.86449194 0.757234216
vt 0.852560401 0.742968559
vt 0.85399586 0.757227421
vt 0.86594826 0.742977142
vt 0.872017801 0.742981136
vt 0.872551501 0.756279767
vt 0.798066378 0.821850538
vt 0.786716938 0.807828784
vt 0.788464308 0.822053075
vt 0.799256384 0.807564318
vt 0.799546361 0.82078582
vt 0.805502295 0.807432532
vt 0.80546689 0.819679379
vt 0.950424314 0.88793838
vt 0.964682281 0.876603842
vt 0.950424314 0.875159919
vt 0.964682281 0.88644743
vt 0.878905773 0.688154101
vt 0.885326862 0.674342155
vt 0.878129542 0.675120115
vt 0.884964645 0.688154101
vt 0.898221433 0.688154101
vt 0.886409402 0.673896015
vt 0.896777749 0.673896015
vt 0.904778838 0.674907267
vt 0.904277027 0.688154161
vt 0.678560793 0.726365209
vt 0.682901502 0.709561706
vt 0.678699553 0.71360302
vt 0.699430287 0.7141819
vt 0.695199013 0.709907413
vt 0.69556272 0.730434418
vt 0.682673872 0.730501652
vt 0.699646592 0.72625494
vt 0.654288054 0.737766922
vt 0.671260834 0.742013633
vt 0.667176962 0.737834156
vt 0.666813076 0.75836122
vt 0.671044409 0.754086673
vt 0.650313735 0.754665554
vt 0.650174975 0.741903305
vt 0.654515743 0.758706868
vt 0.799605966 0.868896484
vt 0.786716938 0.854178369
vt 0.786716938 0.868896484
vt 0.799605966 0.854178369
vt 0.799653828 0.867689371
vt 0.805449367 0.854178369
vt 0.805053532 0.866567671
vt 0.720738888 0.926727235
vt 0.706020713 0.938802183
vt 0.720738888 0.938802123
vt 0.706020713 0.926727295
vt 0.719185114 0.926608503
vt 0.706020653 0.920712709
vt 0.718312442 0.920933485
vt 0.811823368 0.866480708
vt 0.826541543 0.854178369
vt 0.811823368 0.854178369
vt 0.826541543 0.866480708
vt 0.812922418 0.867048264
vt 0.826541543 0.872310638
vt 0.813760161 0.872875988
vt 0.913365245 0.822150648
vt 0.900602281 0.807432532
vt 0.900602281 0.822150648
vt 0.913365364 0.807432532
vt 0.913376987 0.820443034
vt 0.919198513 0.807432532
vt 0.918931425 0.81974411
vt 0.69214946 0.340509117
vt 0.705418229 0.354486346
vt 0.708910286 0.340509117
vt 0.6727373 0.354486346
vt 0.6727373 0.340509117
vt 0.646709621 0.340509117
vt 0.651812673 0.350640237
vt 0.646840632 0.355656654
vt 0.736282706 0.340509117
vt 0.732204616 0.357049435
vt 0.659828842 0.763410151
vt 0.732204318 0.340509117
g submesh0
f 1/1 2/2 3/3
f 2/2 1/1 4/4
f 2/2 4/4 5/5
f 5/5 4/4 6/6
f 5/5 6/6 7/7
f 5/5 7/7 8/8
f 8/8 7/7 9/9
f 7/7 6/6 10/10
f 10/10 6/6 11/11
f 10/10 11/11 12/12
f 13/13 14/14 15/15
f 14/14 13/13 16/16
f 17/17 18/18 19/19
f 18/18 17/17 20/20
f 21/21 22/22 20/20
f 22/22 21/21 23/23
f 24/24 25/25 26/26
f 25/25 24/24 27/27
f 28/28 29/29 30/30
f 29/29 28/28 31/31
f 32/32 33/33 34/34
f 33/33 32/32 35/35
f 36/36 33/33 35/35
f 33/33 36/36 37/37
f 38/38 39/39 40/40
f 41/41 39/39 38/38
f 41/41 42/42 39/39
f 41/41 43/43 42/42
f 42/42 43/43 44/44
f 45/45 43/43 41/41
f 45/45 41/41 46/46
f 47/47 45/45 46/46
f 45/45 47/47 48/48
f 49/49 50/50 51/51
f 49/49 52/52 50/50
f 49/49 53/53 52/52
f 50/50 52/52 54/54
f 55/55 56/56 57/57
f 55/55 58/58 56/56
f 59/59 58/58 55/55
f 56/56 58/58 60/60
f 61/61 62/62 63/63
f 62/62 61/61 64/64
f 65/65 66/66 61/61
f 66/66 65/65 67/67
f 68/68 69/69 70/70
f 69/69 68/68 71/71
f 72/72 73/73 74/74
f 73/73 72/72 75/75
f 76/76 73/73 75/75
f 73/73 76/76 77/77
f 78/78 79/79 80/80
f 78/78 81/81 79/79
f 79/79 81/81 82/82
f 78/78 83/83 81/81
f 84/84 83/83 78/78
f 81/81 83/83 85/85
f 86/86 87/87 88/88
f 87/87 86/86 89/89
f 87/87 89/89 90/90
f 87/87 90/90 91/91
f 92/92 91/91 90/90
f 91/91 92/92 93/93
f 94/94 95/95 96/96
f 95/95 94/94 97/97
f 94/94 98/98 99/99
f 98/98 94/94 100/100
f 101/101 102/102 103/103
f 102/102 101/101 104/104
f 101/101 105/105 104/104
f 105/105 101/101 106/106
f 107/107 108/108 109/109
f 108/108 107/107 110/110
f 111/111 108/108 110/110
f 108/108 111/111 112/112
f 113/113 114/114 115/115
f 114/114 113/113 116/116
f 117/117 114/114 116/116
f 114/114 117/117 118/118
f 119/119 120/120 121/121
f 119/119 122/122 120/120
f 120/120 122/122 123/123
f 119/119 124/124 122/122
f 125/125 124/124 119/119
f 122/122 124/124 126/126
f 127/127 128/128 129/129
f 127/127 130/130 128/128
f 128/128 130/130 131/131
f 127/127 132/132 130/130
f 133/133 132/132 127/127
f 130/130 132/132 134/134
f 135/135 136/136 137/137
f 136/136 135/135 138/138
f 135/135 139/139 138/138
f 139/139 135/135 140/140
f 141/141 142/142 143/143
f 142/142 141/141 144/144
f 145/145 146/146 144/144
f 146/146 145/145 147/147
f 148/148 149/149 150/150
f 149/149 148/148 151/151
f 152/152 153/153 154/154
f 153/153 152/152 155/155
f 156/156 157/157 155/155
f 157/157 156/156 158/158
f 156/156 159/159 158/158
f 159/159 156/156 160/160
f 161/161 162/162 163/163
f 161/161 164/164 162/162
f 162/162 164/164 165/165
f 161/161 166/166 164/164
f 167/167 166/166 161/161
f 164/164 166/166 168/168
f 169/169 170/170 171/171
f 169/169 172/172 170/170
f 170/170 172/172 173/173
f 169/169 174/174 172/172
f 175/175 174/174 169/169
f 172/172 174/174 176/176
f 177/177 178/178 179/179
f 178/178 177/177 180/180
f 181/181 182/182 180/180
f 182/182 181/181 183/183
f 184/184 185/185 186/186
f 185/185 184/184 187/187
f 188/188 189/189 187/187
f 189/189 188/188 190/190
f 191/191 192/192 193/193
f 192/192 191/191 194/194
f 195/195 196/196 194/194
f 196/196 195/195 197/197
f 198/198 199/199 200/200
f 199/199 198/198 201/201
f 202/202 203/203 201/201
f 203/203 202/202 204/204
f 205/205 206/206 207/207
f 208/208 206/206 205/205
f 208/208 205/205 209/209
f 210/210 211/211 209/209
f 211/211 210/210 212/212
f 213/213 214/214 215/215
f 214/214 213/213 216/216
