# floating_city_security_barge_wood_col
v -3.00689936 -0.000346679677 5.94003773
v -3.00689936 -0.000346679677 2.93278551
v 3.10773206 -0.000346679677 2.93278551
v 3.03083348 -0.000346679677 5.89554691
v -3.00690055 0.11669372 5.91573668
v 3.03083348 0.11669372 5.87124634
v 3.10773206 0.11669372 2.90848446
v -3.00690055 0.11669372 2.90848446
v -3.00689936 -0.000346679677 5.94003773
v -3.00690055 0.11669372 5.91573668
v -3.00690055 0.11669372 2.90848446
v -3.00689936 -0.000346679677 2.93278551
v -3.00689936 -0.000346679677 2.93278551
v -3.00690055 0.11669372 2.90848446
v 3.10773206 0.11669372 2.90848446
v 3.10773206 -0.000346679677 2.93278551
v 3.10773206 -0.000346679677 2.93278551
v 3.10773206 0.11669372 2.90848446
v 3.03083348 0.11669372 5.87124634
v 3.03083348 -0.000346679677 5.89554691
v 3.03083348 -0.000346679677 5.89554691
v 3.03083348 0.11669372 5.87124634
v -3.00690055 0.11669372 5.91573668
v -3.00689936 -0.000346679677 5.94003773
v -2.87523746 0.0976077244 5.88013649
v -5.94263029 0.0976077244 5.88013649
v -5.94263029 0.0976077244 0.0214624014
v -2.87523746 0.0976077244 0.0214624014
v -2.87523746 0.120664671 5.88013792
v -2.87523746 0.120664671 0.0214624014
v -5.94263029 0.120664671 0.0214624014
v -5.94263029 0.120664671 5.88013792
v -2.87523746 0.0976077244 5.88013649
v -2.87523746 0.120664671 5.88013792
v -5.94263029 0.120664671 5.88013792
v -5.94263029 0.0976077244 5.88013649
v -5.94263029 0.0976077244 5.88013649
v -5.94263029 0.120664671 5.88013792
v -5.94263029 0.120664671 0.0214624014
v -5.94263029 0.0976077244 0.0214624014
v -5.94263029 0.0976077244 0.0214624014
v -5.94263029 0.120664671 0.0214624014
v -2.87523746 0.120664671 0.0214624014
v -2.87523746 0.0976077244 0.0214624014
v -2.87523746 0.0976077244 0.0214624014
v -2.87523746 0.120664671 0.0214624014
v -2.87523746 0.120664671 5.88013792
v -2.87523746 0.0976077244 5.88013649
vn 0 -1 0
vn 0 -1 0
vn 0 -1 0
vn 0 -1 0
vn 0 1 0
vn 0 1 0
vn 0 1 0
vn 0 1 0
vn -1 -1.04297596E-05 0
vn -1 -1.04297587E-05 0
vn -1 -1.04297596E-05 0
vn -1 -1.04297587E-05 0
vn 0 -0.203294575 -0.979117632
vn 0 -0.20329459 -0.979117632
vn 0 -0.20329459 -0.979117632
vn 0 -0.20329459 -0.979117632
vn 0.999648809 0.00538716745 0.0259459913
vn 0.999648809 0.00538716745 0.0259459931
vn 0.999648809 0.00538716745 0.0259459913
vn 0.999648809 0.00538716745 0.0259459931
vn 0.00721470406 0.203289345 0.979092181
vn 0.00721470406 0.20328936 0.979092181
vn 0.00721470546 0.203289375 0.979092181
vn 0.00721470546 0.203289375 0.979092181
vn 0 -1 0
vn 0 -1 0
vn 0 -1 0
vn 0 -1 0
vn 0 1 0
vn 0 1 0
vn 0 1 0
vn 0 1 0
vn 0 -2.64714836E-05 1
vn 0 -2.64714836E-05 1
vn 0 -2.64714836E-05 1
vn 0 -2.64714836E-05 1
vn -1 0 0
vn -1 0 0
vn -1 0 0
vn -1 0 0
vn 0 0 -1
vn 0 0 -1
vn 0 0 -1
vn 0 0 -1
vn 1 0 0
vn 1 0 0
vn 1 0 0
vn 1 0 0
vt 1 0
vt 0 0
vt 0 1
vt 1 1
vt 0 0
vt 0 1
vt 1 1
vt 1 0
vt 0 0
vt 0 1
vt 1 1
vt 1 0
vt 0 0
vt 0 1
vt 1 1
vt 1 0
vt 0 0
vt 0 1
vt 1 1
vt 1 0
vt 0 0
vt 0 1
vt 1 1
vt 1 0
vt 1 0
vt 0 0
vt 0 1
vt 1 1
vt 0 0
vt 0 1
vt 1 1
vt 1 0
vt 0 0
vt 0 1
vt 1 1
vt 1 0
vt 0 0
vt 0 1
vt 1 1
vt 1 0
vt 0 0
vt 0 1
vt 1 1
vt 1 0
vt 0 0
vt 0 1
vt 1 1
vt 1 0
g submesh0
f 1/1/1 2/2/2 3/3/3
f 1/1/1 3/3/3 4/4/4
f 5/5/5 6/6/6 7/7/7
f 5/5/5 7/7/7 8/8/8
f 9/9/9 10/10/10 11/11/11
f 9/9/9 11/11/11 12/12/12
f 13/13/13 14/14/14 15/15/15
f 13/13/13 15/15/15 16/16/16
f 17/17/17 18/18/18 19/19/19
f 17/17/17 19/19/19 20/20/20
f 21/21/21 22/22/22 23/23/23
f 21/21/21 23/23/23 24/24/24
f 25/25/25 26/26/26 27/27/27
f 25/25/25 27/27/27 28/28/28
f 29/29/29 30/30/30 31/31/31
f 29/29/29 31/31/31 32/32/32
f 33/33/33 34/34/34 35/35/35
f 33/33/33 35/35/35 36/36/36
f 37/37/37 38/38/38 39/39/39
f 37/37/37 39/39/39 40/40/40
f 41/41/41 42/42/42 43/43/43
f 41/41/41 43/43/43 44/44/44
f 45/45/45 46/46/46 47/47/47
f 45/45/45 47/47/47 48/48/48
