# floating_city_farm_shell_B_wood
v 3.24708486 2.24598074 -0.0922412053
v 3.25269532 1.07517695 -0.0922412053
v 4.89752913 1.07156646 -0.0922412053
v 4.88630867 2.23875952 -0.0922412053
v 0.715117157 2.47266841 -8.87879848
v 2.36862302 2.46037412 -8.87879848
v 2.36026859 1.2290771 -8.87879848
v 0.713857412 1.23185575 -8.87879848
v 0.121147461 2.44322562 -5.20187998
v 0.121147461 1.39969051 -5.20187998
v 0.121147461 1.39969027 -4.14617157
v 0.121147461 2.44322538 -4.14617157
v 0.121147461 1.39969027 -6.84309578
v 0.121147461 2.44322538 -6.84309578
v 0.121147461 2.44322538 -7.89642096
v 0.121147461 1.39969027 -7.89642096
vt 0.0678819418 0.88586998
vt 0.0415100232 0.886042893
vt 0.0413986854 0.916826725
vt 0.0676592663 0.91648078
vt 0.806544662 0.601916969
vt 0.806923747 0.652904093
vt 0.844891667 0.652646422
vt 0.844806015 0.601878047
vt 0.356207192 0.645726979
vt 0.331091702 0.645726979
vt 0.331091702 0.703658819
vt 0.356207192 0.703658819
vt 0.331091702 0.626416326
vt 0.356207192 0.626416326
vt 0.356207192 0.607105732
vt 0.331091702 0.607105732
g submesh0
f 1/1 2/2 3/3
f 1/1 3/3 4/4
f 5/5 6/6 7/7
f 5/5 7/7 8/8
f 9/9 10/10 11/11
f 9/9 11/11 12/12
f 13/13 14/14 15/15
f 13/13 15/15 16/16
