# floor.frame.metal_COL
v -1.50808585 -0.100144468 1.50014448
v 1.3422029 -0.10014461 1.5001446
v 1.3422029 0.10014461 1.5001446
v -1.50808585 0.100144468 1.50014448
v -1.50808585 0.100144558 -1.5001446
v 1.3422029 0.100144438 -1.50014448
v 1.3422029 -0.100144438 -1.50014448
v -1.50808585 -0.100144558 -1.5001446
v -1.50808585 0.100144558 -1.5001446
v -1.50808585 -0.100144558 -1.5001446
v -1.50808585 -0.100144558 -1.34985542
v -1.50808585 0.100144558 -1.34985542
v -1.50808585 -0.100144468 1.50014448
v -1.50808585 0.100144468 1.50014448
v -1.50808585 0.100144468 1.34985566
v -1.50808585 -0.100144468 1.34985566
v -1.50808585 0.100144558 -1.5001446
v -1.50808585 0.100144558 -1.34985542
v 1.34220314 0.100144453 -1.34985566
v 1.3422029 0.100144438 -1.50014448
v 1.34220314 -0.100144453 -1.34985566
v 1.34220314 0.100144453 -1.34985566
v -1.50808585 0.100144558 -1.34985542
v -1.50808585 -0.100144558 -1.34985542
v 1.34220314 0.100144625 1.34985542
v 1.34220314 -0.100144625 1.34985542
v -1.50808585 -0.100144468 1.34985566
v -1.50808585 0.100144468 1.34985566
v 1.3422029 -0.100144438 -1.50014448
v 1.34220314 -0.100144453 -1.34985566
v -1.50808585 -0.100144558 -1.34985542
v -1.50808585 -0.100144558 -1.5001446
v 1.3422029 0.10014461 1.5001446
v 1.34220314 0.100144625 1.34985542
v -1.50808585 0.100144468 1.34985566
v -1.50808585 0.100144468 1.50014448
v 1.34220314 -0.100144625 1.34985542
v 1.3422029 -0.10014461 1.5001446
v -1.50808585 -0.100144468 1.50014448
v -1.50808585 -0.100144468 1.34985566
v 1.49220324 -0.100144625 1.5001446
v 1.49220324 -0.100144438 -1.50014448
v 1.49220324 0.100144438 -1.50014448
v 1.49220324 0.100144625 1.5001446
v 1.34191418 -0.100144438 -1.50014448
v 1.34191418 -0.100144625 1.5001446
v 1.34191418 0.100144625 1.5001446
v 1.34191418 0.100144438 -1.50014448
v 1.49220324 -0.100144438 -1.50014448
v 1.49220324 -0.100144625 1.5001446
v 1.34191418 -0.100144625 1.5001446
v 1.34191418 -0.100144438 -1.50014448
v 1.34191418 0.100144625 1.5001446
v 1.34191418 -0.100144625 1.5001446
v 1.49220324 -0.100144625 1.5001446
v 1.49220324 0.100144625 1.5001446
v 1.34191418 -0.100144438 -1.50014448
v 1.34191418 0.100144438 -1.50014448
v 1.49220324 0.100144438 -1.50014448
v 1.49220324 -0.100144438 -1.50014448
v 1.49220324 0.100144438 -1.50014448
v 1.34191418 0.100144438 -1.50014448
v 1.34191418 0.100144625 1.5001446
v 1.49220324 0.100144625 1.5001446
v 1.34220314 -0.100144625 1.34985542
v 1.34220314 0.100144625 1.34985542
v 1.3422029 0.10014461 1.5001446
v 1.3422029 -0.10014461 1.5001446
v 1.34220314 0.100144453 -1.34985566
v 1.34220314 -0.100144453 -1.34985566
v 1.3422029 -0.100144438 -1.50014448
v 1.3422029 0.100144438 -1.50014448
v -1.36000454 -0.100144766 1.50014472
v -1.36000454 -0.100144587 -1.50014436
v -1.36000454 0.100144297 -1.50014436
v -1.36000454 0.100144476 1.50014472
v -1.5102936 -0.100144565 -1.50014436
v -1.5102936 -0.100144744 1.50014472
v -1.5102936 0.100144498 1.50014472
v -1.5102936 0.100144319 -1.50014436
v -1.36000454 -0.100144587 -1.50014436
v -1.36000454 -0.100144766 1.50014472
v -1.5102936 -0.100144744 1.50014472
v -1.5102936 -0.100144565 -1.50014436
v -1.5102936 0.100144498 1.50014472
v -1.5102936 -0.100144744 1.50014472
v -1.36000454 -0.100144766 1.50014472
v -1.36000454 0.100144476 1.50014472
v -1.5102936 -0.100144565 -1.50014436
v -1.5102936 0.100144319 -1.50014436
v -1.36000454 0.100144297 -1.50014436
v -1.36000454 -0.100144587 -1.50014436
v -1.36000454 0.100144297 -1.50014436
v -1.5102936 0.100144319 -1.50014436
v -1.5102936 0.100144498 1.50014472
v -1.36000454 0.100144476 1.50014472
vn 0 0 1
vn 0 0 1
vn 0.707106054 0 0.707107484
vn 0 0.707106769 0.707106769
vn 0 0 -1
vn 0 0 -1
vn 0.707106054 0 -0.707107425
vn 0 -0.707106769 -0.707106769
vn -0.707106769 0.707106769 0
vn -1 0 0
vn -1 0 0
vn -0.707106769 0 0.707106769
vn -0.707106829 -0.707106769 0
vn -1 0 0
vn -1 0 0
vn -0.707106829 0 -0.707106769
vn -0.707106769 0.707106769 0
vn 0 1 0
vn 0 1 0
vn 0.707106292 0.707107246 -1.45828164E-06
vn 0 0 1
vn 0.707107484 0 0.707106054
vn -0.707106769 0 0.707106769
vn 0 -0.707106769 0.707106769
vn 0 0 -1
vn 0.707107425 0 -0.707106054
vn -0.707106829 0 -0.707106769
vn 0 0.707106769 -0.707106769
vn 0 -1 0
vn 0.707107246 -0.707106292 -1.45828346E-06
vn 0 -0.707106769 0.707106769
vn 0 -0.707106769 -0.707106769
vn 0 1 0
vn 0.707107186 0.707106352 1.45828039E-06
vn 0 0.707106769 -0.707106769
vn 0 0.707106769 0.707106769
vn 0 -1 0
vn 0.707106292 -0.707107246 1.4582788E-06
vn -0.707106829 -0.707106769 0
vn 0 -1 0
vn 1 0 0
vn 1 0 0
vn 0.707106769 0 -0.707106829
vn 0.70710665 0.707106829 0
vn -0.707106769 -0.707106829 0
vn -0.70710665 0 0.707106829
vn -0.70710665 0.707106829 0
vn -0.707106769 0 -0.707106829
vn 0 -0.707106769 -0.707106829
vn 0 -0.707106829 0.707106769
vn 0 -1 0
vn -0.707106769 -0.707106829 0
vn 0 0 1
vn -0.70710665 0 0.707106829
vn 0 -0.707106829 0.707106769
vn 0 0 1
vn 0 0 -1
vn -0.707106769 0 -0.707106829
vn 0.707106769 0 -0.707106829
vn 0 -0.707106769 -0.707106829
vn 0 1 0
vn 0 1 0
vn -0.70710665 0.707106829 0
vn 0.70710665 0.707106829 0
vn 0.707107425 0 -0.707106054
vn 0.707107186 0.707106352 1.45828039E-06
vn 0.707106054 0 0.707107484
vn 0.707106292 -0.707107246 1.4582788E-06
vn 0.707107484 0 0.707106054
vn 0.707107246 -0.707106292 -1.45828346E-06
vn 0.707106054 0 -0.707107425
vn 0.707106292 0.707107246 -1.45828164E-06
vn 0.577350199 -0.577350378 0.577350259
vn 0.577350199 -0.577350318 -0.577350318
vn 0.577350259 0.577350199 -0.577350259
vn 0.577350318 0.577350259 0.577350259
vn -0.577350259 -0.577350199 -0.577350318
vn -0.577350259 -0.577350259 0.577350259
vn -0.577350199 0.577350378 0.577350259
vn -0.57735014 0.577350318 -0.577350318
vn 0.577350199 -0.577350318 -0.577350318
vn 0.577350199 -0.577350378 0.577350259
vn -0.577350259 -0.577350259 0.577350259
vn -0.577350259 -0.577350199 -0.577350318
vn -0.577350199 0.577350378 0.577350259
vn -0.577350259 -0.577350259 0.577350259
vn 0.577350199 -0.577350378 0.577350259
vn 0.577350318 0.577350259 0.577350259
vn -0.577350259 -0.577350199 -0.577350318
vn -0.57735014 0.577350318 -0.577350318
vn 0.577350259 0.577350199 -0.577350259
vn 0.577350199 -0.577350318 -0.577350318
vn 0.577350259 0.577350199 -0.577350259
vn -0.57735014 0.577350318 -0.577350318
vn -0.577350199 0.577350378 0.577350259
vn 0.577350318 0.577350259 0.577350259
vt 0.572662175 0.513274372
vt 0.572592258 0.74897629
vt 0.590231657 0.74897629
vt 0.590162158 0.513274372
vt 0.572786331 0.512926161
vt 0.572853208 0.748627961
vt 0.590353131 0.748627961
vt 0.590420246 0.512926042
vt 0.573217273 0.61913079
vt 0.59036094 0.619130731
vt 0.590386629 0.606584311
vt 0.573191285 0.606584311
vt 0.573012948 0.618940592
vt 0.590207279 0.61894083
vt 0.590189815 0.606409192
vt 0.573030829 0.606409073
vt 0.591127515 0.749571323
vt 0.600970447 0.749646068
vt 0.600937247 0.500978172
vt 0.591121912 0.501055241
vt 0.591054857 0.501099646
vt 0.572151423 0.501099646
vt 0.572189689 0.749239326
vt 0.591016412 0.749239326
vt 0.590582967 0.500680089
vt 0.572241306 0.500680029
vt 0.572027922 0.749067068
vt 0.590796113 0.749067068
vt 0.572020471 0.501714706
vt 0.56273061 0.501637816
vt 0.56269908 0.749929011
vt 0.572015107 0.749854445
vt 0.571844578 0.501389384
vt 0.562540114 0.501213551
vt 0.562543154 0.749705255
vt 0.571845055 0.749529123
vt 0.600856662 0.50055325
vt 0.591026127 0.500729263
vt 0.591025472 0.749245405
vt 0.600853205 0.749421895
vt 0.590322971 0.748444438
vt 0.590254664 0.500249267
vt 0.572754622 0.500249684
vt 0.572699606 0.748444557
vt 0.59101063 0.749070764
vt 0.591010571 0.500943422
vt 0.572012067 0.500943422
vt 0.572011948 0.749070823
vt 0.572021365 0.749533057
vt 0.572021365 0.501405776
vt 0.562718451 0.501405776
vt 0.562718391 0.749533117
vt 0.572338521 0.674707592
vt 0.590970695 0.674707592
vt 0.590970695 0.660972476
vt 0.572338521 0.660972595
vt 0.590300739 0.606848359
vt 0.573167861 0.6068483
vt 0.573149383 0.619475543
vt 0.590319276 0.619475543
vt 0.590985537 0.749249578
vt 0.6008147 0.749249578
vt 0.6008147 0.500745893
vt 0.590985537 0.500745833
vt 0.572001636 0.675006568
vt 0.591105759 0.675006688
vt 0.59088552 0.661610842
vt 0.572221994 0.661610842
vt 0.572439075 0.674805105
vt 0.591056943 0.674805164
vt 0.591085434 0.661073804
vt 0.572410703 0.661073685
vt 0.590322971 0.748444438
vt 0.590254664 0.500249267
vt 0.572754622 0.500249684
vt 0.572699606 0.748444557
vt 0.59101063 0.749070764
vt 0.591010571 0.500943422
vt 0.572012067 0.500943422
vt 0.572011948 0.749070823
vt 0.572021365 0.749533057
vt 0.572021365 0.501405776
vt 0.562718451 0.501405776
vt 0.562718391 0.749533117
vt 0.572338521 0.674707592
vt 0.590970695 0.674707592
vt 0.590970695 0.660972476
vt 0.572338521 0.660972595
vt 0.590300739 0.606848359
vt 0.573167861 0.6068483
vt 0.573149383 0.619475543
vt 0.590319276 0.619475543
vt 0.590985537 0.749249578
vt 0.6008147 0.749249578
vt 0.6008147 0.500745893
vt 0.590985537 0.500745833
g submesh0
f 1/1/1 2/2/2 3/3/3
f 1/1/1 3/3/3 4/4/4
f 5/5/5 6/6/6 7/7/7
f 5/5/5 7/7/7 8/8/8
f 9/9/9 10/10/10 11/11/11
f 9/9/9 11/11/11 12/12/12
f 13/13/13 14/14/14 15/15/15
f 13/13/13 15/15/15 16/16/16
f 17/17/17 18/18/18 19/19/19
f 17/17/17 19/19/19 20/20/20
f 21/21/21 22/22/22 23/23/23
f 21/21/21 23/23/23 24/24/24
f 25/25/25 26/26/26 27/27/27
f 25/25/25 27/27/27 28/28/28
f 29/29/29 30/30/30 31/31/31
f 29/29/29 31/31/31 32/32/32
f 33/33/33 34/34/34 35/35/35
f 33/33/33 35/35/35 36/36/36
f 37/37/37 38/38/38 39/39/39
f 37/37/37 39/39/39 40/40/40
f 41/41/41 42/42/42 43/43/43
f 41/41/41 43/43/43 44/44/44
f 45/45/45 46/46/46 47/47/47
f 45/45/45 47/47/47 48/48/48
f 49/49/49 50/50/50 51/51/51
f 49/49/49 51/51/51 52/52/52
f 53/53/53 54/54/54 55/55/55
f 53/53/53 55/55/55 56/56/56
f 57/57/57 58/58/58 59/59/59
f 57/57/57 59/59/59 60/60/60
f 61/61/61 62/62/62 63/63/63
f 61/61/61 63/63/63 64/64/64
f 65/65/65 66/66/66 67/67/67
f 65/65/65 67/67/67 68/68/68
f 69/69/69 70/70/70 71/71/71
f 69/69/69 71/71/71 72/72/72
f 73/73/73 74/74/74 75/75/75
f 73/73/73 75/75/75 76/76/76
f 77/77/77 78/78/78 79/79/79
f 77/77/77 79/79/79 80/80/80
f 81/81/81 82/82/82 83/83/83
f 81/81/81 83/83/83 84/84/84
f 85/85/85 86/86/86 87/87/87
f 85/85/85 87/87/87 88/88/88
f 89/89/89 90/90/90 91/91/91
f 89/89/89 91/91/91 92/92/92
f 93/93/93 94/94/94 95/95/95
f 93/93/93 95/95/95 96/96/96
