# floor.collision
v -1.50000405 0.0999983326 -1.50000215
v -1.50000489 0.0999979302 1.49999595
v 1.49999571 0.0999978632 1.49999559
v -1.50000489 -0.038791135 1.49999583
v 1.49999595 -0.038791202 1.49999559
v 1.49999475 0.09999796 -1.5000025
v -1.50000405 -0.0387907326 -1.50000226
v 1.49999464 -0.0387907997 -1.5000025
vn -0.577350199 0.577350438 -0.577350199
vn -0.577350318 0.577350199 0.577350318
vn 0.57735008 0.57735014 0.577350616
vn -0.577350378 -0.577350318 0.577350199
vn 0.577350855 -0.577350438 0.577349603
vn 0.577350259 0.577350616 -0.57735002
vn -0.577350259 -0.57735014 -0.577350378
vn 0.57735002 -0.577349901 -0.577350855
g submesh0
f 1//1 2//2 3//3
f 1//1 4//4 2//2
f 3//3 2//2 4//4
f 4//4 5//5 3//3
f 1//1 3//3 6//6
f 6//6 3//3 5//5
f 4//4 7//7 5//5
f 1//1 7//7 4//4
f 1//1 6//6 8//8
f 5//5 8//8 6//6
f 5//5 7//7 8//8
f 8//8 7//7 1//1
