# floor.collision
v 1.50000024 0.0999981686 1.49999857
v 1.49999964 0.0999982655 -1.50000012
v -1.49999917 0.0999998525 -1.50000024
v 1.49999952 -0.0266069621 -1.50000131
v -1.49999917 -0.026606895 -1.50000167
v 1.50000072 -0.026607668 1.49999738
v -1.5 0.0999979302 1.49999845
v -1.5 -0.0266072955 1.49999702
vn 0.577349305 0.577347577 0.577353954
vn 0.577350736 0.577353358 -0.577346623
vn -0.577350557 0.57735312 -0.5773471
vn 0.577349722 -0.5773471 -0.577353954
vn -0.577349722 -0.577347636 -0.577353477
vn 0.577351451 -0.577352881 0.577346385
vn -0.577349842 0.577347636 0.577353358
vn -0.577350974 -0.577352822 0.577346981
vt 0.819030583 0.498760045
vt 0.819030643 0.498760015
vt 0.967774749 0.498760104
vt 0.819030643 0.492482752
vt 0.967774749 0.492482781
vt 0.819030583 0.492482752
vt 0.967774749 0.498760045
vt 0.967774749 0.492482781
g submesh0
f 1/1/1 2/2/2 3/3/3
f 4/4/4 2/2/2 1/1/1
f 5/5/5 2/2/2 4/4/4
f 5/5/5 3/3/3 2/2/2
f 4/4/4 1/1/1 6/6/6
f 6/6/6 5/5/5 4/4/4
f 1/1/1 3/3/3 7/7/7
f 6/6/6 1/1/1 7/7/7
f 6/6/6 8/8/8 5/5/5
f 8/8/8 3/3/3 5/5/5
f 6/6/6 7/7/7 8/8/8
f 8/8/8 7/7/7 3/3/3
