# floor.collision
v 1.5 -0.099999696 -1.50000012
v -1.5 0.100000151 -1.5
v 1.5 0.100000151 -1.5
v -1.5 -0.099999696 -1.50000012
v 1.5 -0.100000486 1.50000024
v -1.5 0.100000121 1.5
v -1.5 -0.100000486 1.49999964
v 1.5 0.100000121 1.5
v 1.5 -0.099999696 -1.50000012
v -1.5 -0.100000486 1.49999964
v -1.5 -0.099999696 -1.50000012
v 1.5 -0.100000486 1.50000024
v -1.5 -0.099999696 -1.50000012
v -1.5 0.100000121 1.5
v -1.5 0.100000151 -1.5
v -1.5 -0.100000486 1.49999964
v -1.5 0.100000151 -1.5
v 1.5 0.100000121 1.5
v 1.5 0.100000151 -1.5
v -1.5 0.100000121 1.5
v 1.5 0.100000151 -1.5
v 1.5 -0.100000486 1.50000024
v 1.5 -0.099999696 -1.50000012
v 1.5 0.100000121 1.5
vn 0 8.22544678E-07 -1
vn 0 8.22544678E-07 -1
vn 0 8.22544678E-07 -1
vn 0 8.22544678E-07 -1
vn 0 1.33694061E-06 1
vn -1.94828559E-07 -1.4561499E-06 1
vn -2.03450512E-07 -1.58547891E-06 1
vn 0 1.46626962E-06 1
vn 0 -1 -2.63055171E-07
vn 0 -1 -2.63055199E-07
vn 0 -1 -2.63055171E-07
vn 0 -1 -2.63055142E-07
vn -1 0 0
vn -1 0 0
vn -1 0 0
vn -1 0 0
vn 0 1 0
vn 0 1 0
vn 0 1 0
vn 0 1 0
vn 1 0 0
vn 1 0 0
vn 1 0 0
vn 1 0 0
vt 1 0
vt 0 1
vt 1 1
vt 0 0
vt 0 0
vt 1 1
vt 1 0
vt 0 1
vt 0 0
vt 1 1
vt 1 0
vt 0 1
vt 0 0
vt 1 1
vt 1 0
vt 0 1
vt 0 0
vt 1 1
vt 1 0
vt 0 1
vt 0 0
vt 1 1
vt 1 0
vt 0 1
g submesh0
f 1/1/1 2/2/2 3/3/3
f 2/2/2 1/1/1 4/4/4
f 5/5/5 6/6/6 7/7/7
f 6/6/6 5/5/5 8/8/8
f 9/9/9 10/10/10 11/11/11
f 10/10/10 9/9/9 12/12/12
f 13/13/13 14/14/14 15/15/15
f 14/14/14 13/13/13 16/16/16
f 17/17/17 18/18/18 19/19/19
f 18/18/18 17/17/17 20/20/20
f 21/21/21 22/22/22 23/23/23
f 22/22/22 21/21/21 24/24/24
