# foundation.triangle.collision
v -1.60072029 -2.99999952 -0.100001521
v -1.60072029 0.100000151 -0.100001216
v 1.60072124 0.100000151 -0.100001216
v 1.60072124 -2.99999952 -0.100001827
v -1.60072029 -2.99999952 0.0868078619
v 1.60072124 0.100000151 0.0868084729
v -1.60072029 0.100000151 0.0868084729
v 1.60072124 -2.99999952 0.0868078619
v -0.0999995396 0.100000151 2.71126461
v 0.100000456 0.100000151 2.71126461
v 0.100000456 -2.99999952 2.7112639
v -0.0999995396 -2.99999952 2.7112639
vn -0.577350318 -0.577350199 -0.577350318
vn -0.577350259 0.577350318 -0.577350199
vn 0.577350199 0.577350318 -0.577350199
vn 0.577350199 -0.577350199 -0.577350318
vn -0.731446028 -0.65361315 0.194362044
vn 0.731446028 0.65361315 0.194362074
vn -0.731446028 0.65361315 0.194362074
vn 0.731446028 -0.65361315 0.194362044
vn -0.397744119 0.609693885 0.685618579
vn 0.397744119 0.609693885 0.685618579
vn 0.397744119 -0.609694064 0.68561846
vn -0.397744119 -0.609694064 0.68561846
vt 0.972768366 0.345058501
vt 0.972768366 0.498760819
vt 0.814036429 0.498760819
vt 0.814036429 0.345058501
vt 0.972768366 0.345058501
vt 0.814036429 0.498760819
vt 0.972768366 0.498760819
vt 0.814036429 0.345058501
vt 0.898360491 0.498760849
vt 0.888444245 0.498760849
vt 0.888444245 0.34505856
vt 0.898360491 0.34505856
g submesh0
f 1/1/1 2/2/2 3/3/3
f 1/1/1 3/3/3 4/4/4
f 5/5/5 2/2/2 1/1/1
f 4/4/4 5/5/5 1/1/1
f 4/4/4 3/3/3 6/6/6
f 2/2/2 6/6/6 3/3/3
f 5/5/5 7/7/7 2/2/2
f 2/2/2 7/7/7 6/6/6
f 4/4/4 6/6/6 8/8/8
f 4/4/4 8/8/8 5/5/5
f 9/9/9 6/6/6 7/7/7
f 8/8/8 6/6/6 10/10/10
f 9/9/9 10/10/10 6/6/6
f 8/8/8 10/10/10 11/11/11
f 5/5/5 8/8/8 11/11/11
f 11/11/11 10/10/10 9/9/9
f 12/12/12 9/9/9 7/7/7
f 12/12/12 7/7/7 5/5/5
f 5/5/5 11/11/11 12/12/12
f 11/11/11 9/9/9 12/12/12
