# foundation.triangle.collision
v -1.07238889 -0.22489135 0.987551272
v -1.198645 -1.02222335 0.283933401
v -0.817275047 -0.22489135 0.862913668
v -0.489806056 -0.22489135 0.246669605
v -1.48531699 -1.02222335 0.283933401
v -1.48531699 -0.220832512 -0.0230670162
v -1.198645 -0.973595381 -0.0230670162
v -0.486104578 -0.22489135 0.0344781503
v -1.48531699 -3.00000024 0.283933401
v -1.15337813 -3.00000024 0.283933401
v -1.48531699 -3.00000024 -0.0230670162
v -1.15337813 -3.00000024 -0.0230670162
v 0.509628534 -0.22489135 0.0445156842
v 1.14581406 -1.01640594 0.236068115
v 0.501061141 -0.22489135 0.250625312
v 0.760786593 -0.22489135 0.94078809
v 0.959233046 -0.22489135 1.08862484
v 1.26949847 -0.973595381 -0.00253540045
v 1.53328884 -0.215709224 0.12291351
v 1.38995993 -1.05597675 0.383932501
v 1.23575425 -3.00000024 -0.0373538211
v 1.52846777 -3.00000024 0.123363949
v 1.0556109 -3.00000024 0.265345156
v 1.36373436 -3.00000024 0.443175942
v 0.564691246 -0.22489135 1.80594146
v 0.00380371092 -1.0196383 2.32351613
v 0.341377795 -0.22489135 1.65652955
v -0.342974991 -0.22489135 1.69159234
v 0.213988483 -1.01963615 2.54263639
v -0.00513534527 -0.215353996 2.74090147
v -0.203415677 -0.973504603 2.52963924
v -0.531472743 -0.22489135 1.81980276
v 0.233227611 -3.00000024 2.51977181
v 0.0295048524 -3.00000024 2.2924912
v 0.00619811984 -3.00000024 2.74819326
v -0.2152922 -3.00000024 2.52353692
v 0.118126221 0.099999696 2.8025763
v 1.73718107 0.099999696 -0.0579156466
v -1.71775568 0.099999696 -0.0579156466
v 1.73718107 -0.246181935 -0.0579156466
v -1.71775568 -0.246181935 -0.0579156466
v 0.118126221 -0.246181935 2.8025763
v -0.126181632 0.099999696 2.8025763
v -0.126181632 -0.246181935 2.8025763
vn -0.247027859 -0.532784641 0.809393466
vn 0.654822886 -0.481179893 0.582814693
vn 0.434384793 -0.675148368 0.596225202
vn 0.738528311 -0.661461055 0.130556911
vn -0.775564671 -0.137568623 0.61609602
vn -0.7850191 0.111971602 -0.60926789
vn 0.542065322 -0.21135743 -0.813322306
vn 0.660363019 -0.5738976 -0.484316379
vn -0.707106769 0 0.707106769
vn 0.711456537 0.0160858929 0.70254606
vn -0.707106769 0 -0.707106769
vn 0.712606609 0.0161118936 -0.701378822
vn -0.583108723 -0.493418753 -0.645385385
vn -0.862205327 -0.470928013 0.186624408
vn -0.757879436 -0.652230978 -0.0146118728
vn -0.569366574 -0.682229698 0.458676934
vn 0.0167387947 -0.64415586 0.764711142
vn -0.173365906 -0.13470459 -0.975601852
vn 0.902003765 0.103055283 -0.419248044
vn 0.414060682 -0.203557581 0.88719672
vn -0.295207471 0.0211691447 -0.955198646
vn 0.953597367 0.00202374696 -0.301078171
vn -0.963813066 0.0434178375 0.263019502
vn 0.263232976 0.0251991861 0.964403152
vn 0.773262262 -0.571276367 -0.275152475
vn -0.0171708167 -0.504229605 -0.863398969
vn 0.249166206 -0.691179693 -0.678370774
vn -0.310743928 -0.683102548 -0.660915315
vn 0.972868383 -0.157429829 0.16953741
vn -0.0152241094 0.134260327 0.99082911
vn -0.972426593 -0.177378252 0.151404738
vn -0.793709576 -0.552724421 -0.254009604
vn 0.999631643 0.0138359778 0.0233507659
vn 0.0329226255 0.0156523827 -0.999335349
vn -0.017553512 0.00165963965 0.999844551
vn -0.99980706 0.00319442502 -0.0193858128
vn 0.399372041 0.609377444 0.684953392
vn 0.718622625 0.554993391 -0.419003367
vn -0.716942012 0.555245817 -0.42154038
vn 0.718622625 -0.554993272 -0.419003427
vn -0.716942012 -0.555245817 -0.42154038
vn 0.399372041 -0.609377444 0.684953392
vn -0.402075827 0.608852625 0.683837414
vn -0.402075827 -0.608852625 0.683837414
vt 0.603790343 0.617651165
vt 0.608079255 0.606793344
vt 0.600680768 0.615022004
vt 0.59832871 0.605346203
vt 0.612076759 0.607813537
vt 0.613179922 0.605171859
vt 0.609182358 0.602650583
vt 0.599039555 0.602402627
vt 0.612076759 0.603869617
vt 0.607447982 0.602688372
vt 0.613179922 0.599629879
vt 0.608551145 0.598448634
vt 0.585118413 0.598997712
vt 0.575558782 0.597800732
vt 0.584497273 0.60187465
vt 0.578395545 0.61048162
vt 0.575097084 0.611817122
vt 0.574691474 0.594150782
vt 0.570562243 0.596455812
vt 0.571622968 0.598895073
vt 0.575287104 0.589749157
vt 0.570627809 0.590927005
vt 0.576711416 0.594570577
vt 0.571775794 0.595929921
vt 0.578021288 0.623127401
vt 0.583982766 0.630686402
vt 0.581672132 0.621858716
vt 0.591089129 0.62477833
vt 0.580264509 0.632964551
vt 0.582607627 0.638086259
vt 0.586131692 0.634362459
vt 0.59325695 0.627219737
vt 0.580078363 0.628631234
vt 0.583735883 0.626217425
vt 0.582423389 0.632593751
vt 0.586319268 0.630279422
vt 0.580667198 0.639128208
vt 0.568368793 0.593862534
vt 0.616546392 0.606157541
vt 0.568368793 0.593172193
vt 0.616546392 0.6054672
vt 0.580667198 0.638437867
vt 0.584073961 0.639997602
vt 0.584073961 0.639307261
g submesh0
f 1/1/1 2/2/2 3/3/3
f 4/4/4 3/3/3 2/2/2
f 1/1/1 5/5/5 2/2/2
f 6/6/6 5/5/5 1/1/1
f 4/4/4 2/2/2 7/7/7
f 4/4/4 7/7/7 8/8/8
f 7/7/7 6/6/6 8/8/8
f 9/9/9 2/2/2 5/5/5
f 9/9/9 10/10/10 2/2/2
f 10/10/10 7/7/7 2/2/2
f 11/11/11 9/9/9 5/5/5
f 11/11/11 5/5/5 6/6/6
f 10/10/10 12/12/12 7/7/7
f 12/12/12 11/11/11 6/6/6
f 12/12/12 6/6/6 7/7/7
f 13/13/13 14/14/14 15/15/15
f 16/16/16 15/15/15 14/14/14
f 14/14/14 17/17/17 16/16/16
f 13/13/13 18/18/18 14/14/14
f 18/18/18 13/13/13 19/19/19
f 14/14/14 20/20/20 17/17/17
f 19/19/19 17/17/17 20/20/20
f 19/19/19 21/21/21 18/18/18
f 19/19/19 22/22/22 21/21/21
f 20/20/20 22/22/22 19/19/19
f 18/18/18 21/21/21 23/23/23
f 18/18/18 23/23/23 14/14/14
f 20/20/20 24/24/24 22/22/22
f 14/14/14 23/23/23 24/24/24
f 14/14/14 24/24/24 20/20/20
f 25/25/25 26/26/26 27/27/27
f 28/28/28 27/27/27 26/26/26
f 25/25/25 29/29/29 26/26/26
f 30/30/30 29/29/29 25/25/25
f 28/28/28 26/26/26 31/31/31
f 28/28/28 31/31/31 32/32/32
f 31/31/31 30/30/30 32/32/32
f 33/33/33 26/26/26 29/29/29
f 33/33/33 34/34/34 26/26/26
f 34/34/34 31/31/31 26/26/26
f 35/35/35 33/33/33 29/29/29
f 35/35/35 29/29/29 30/30/30
f 34/34/34 36/36/36 31/31/31
f 36/36/36 35/35/35 30/30/30
f 36/36/36 30/30/30 31/31/31
f 37/37/37 38/38/38 39/39/39
f 40/40/40 38/38/38 37/37/37
f 41/41/41 38/38/38 40/40/40
f 41/41/41 39/39/39 38/38/38
f 40/40/40 37/37/37 42/42/42
f 42/42/42 41/41/41 40/40/40
f 37/37/37 39/39/39 43/43/43
f 42/42/42 37/37/37 43/43/43
f 42/42/42 44/44/44 41/41/41
f 44/44/44 39/39/39 41/41/41
f 42/42/42 43/43/43 44/44/44
f 44/44/44 43/43/43 39/39/39
