# foundation.steps.collision
v 0.038769722 -0.128406063 0.77561903
v 0.0388382152 -0.128406376 -0.775618732
v 2.99996853 1.36133385 0.775618732
v -0.0461948775 0.105649106 0.775618732
v -0.0461263061 0.105649106 -0.775618851
v 3.00003552 1.36133361 -0.775618136
v 2.910851 1.57984924 0.77561903
v 2.91085935 1.57984948 -0.775618434
v 3.00003171 1.59524405 -0.775618434
v 2.99996495 1.59524441 0.77561903
vn -0.305140018 -0.745919704 0.592024684
vn -0.305336595 -0.746028543 -0.591786325
vn 0.660700083 -0.412179857 0.627362013
vn -0.732809424 0.305054128 0.608220577
vn -0.73264122 0.304984093 -0.60845834
vn 0.658913374 -0.408770382 -0.63145864
vn -0.166640192 0.713723004 0.680316389
vn -0.16066201 0.711953163 -0.683601081
vn 0.566954136 0.566954136 -0.597600281
vn 0.558548868 0.570892453 0.601751566
g submesh0
f 1//1 2//2 3//3
f 2//2 1//1 4//4
f 4//4 1//1 3//3
f 4//4 5//5 2//2
f 2//2 6//6 3//3
f 2//2 5//5 6//6
f 5//5 4//4 7//7
f 3//3 7//7 4//4
f 5//5 8//8 6//6
f 7//7 8//8 5//5
f 3//3 6//6 9//9
f 6//6 8//8 9//9
f 3//3 10//10 7//7
f 8//8 7//7 10//10
f 9//9 10//10 3//3
f 10//10 9//9 8//8
