# foundation.steps.collision
v 0.0612355806 -0.23032476 0.784049988
v 3.07122159 1.27061236 0.784049809
v 2.91604066 1.58574569 0.784050047
v -0.108230472 0.104531139 0.784050047
v 2.91604066 1.58574569 0.784050047
v -0.108229481 0.104534067 -0.769331276
v -0.108230472 0.104531139 0.784050047
v 0.0612355806 -0.23032476 0.784049988
v 2.91604018 1.58574688 -0.769329607
v 3.07122254 1.27061355 -0.769329846
v 3.07122159 1.27061236 0.784049809
v 0.0612363033 -0.230321288 -0.769331634
vn -0.256665438 -0.774873674 0.577662289
vn 0.773491919 -0.260908037 0.577613413
vn 0.263699532 0.772657156 0.577463031
vn -0.77462095 0.259650975 0.576666117
vn 0.263699532 0.772657156 0.577463031
vn -0.774620414 0.259652644 -0.576666057
vn -0.77462095 0.259650975 0.576666117
vn -0.256665438 -0.774873674 0.577662289
vn 0.263699055 0.772657573 -0.577462554
vn 0.773492396 -0.260907054 -0.577613115
vn 0.773491919 -0.260908037 0.577613413
vn -0.25666523 -0.774872303 -0.577664196
vt 0.937723696 0.0280623473
vt 0.00521204341 0.0280623473
vt 0.00521204341 0.0730765685
vt 0.937723696 0.0730765685
vt 0.937723756 0.0730765685
vt 0.0052120029 0.0730765685
vt 0.00521210954 0.0730765685
vt 0.00521210534 0.0280623473
vt 0.937723637 0.0730765685
vt 0.937723637 0.0280623473
vt 0.937723756 0.0280623473
vt 0.0052120192 0.0280623473
g submesh0
f 1/1/1 2/2/2 3/3/3
f 1/1/1 3/3/3 4/4/4
f 5/5/5 6/6/6 7/7/7
f 8/8/8 7/7/7 6/6/6
f 5/5/5 9/9/9 6/6/6
f 5/5/5 10/10/10 9/9/9
f 10/10/10 6/6/6 9/9/9
f 5/5/5 11/11/11 10/10/10
f 8/8/8 10/10/10 11/11/11
f 8/8/8 6/6/6 12/12/12
f 8/8/8 12/12/12 10/10/10
f 10/10/10 12/12/12 6/6/6
