# foundation.steps_COL
v 7.17163084E-06 0.201892585 -0.583609521
v 0.00473815901 -0.122689433 -0.825926125
v 0.00473709079 -0.122678757 0.824187696
v 4.88281239E-06 0.201894313 0.582385004
v 3.00000596 1.5000006 -0.583606958
v 3.00000715 2.07883477 -0.826903522
v 3.00000715 2.07883477 -0.583609045
v 3.0000751 1.37837493 -0.826326132
v 2.16938496 0.834689319 -0.826903522
v 7.01904264E-06 0.579375923 -0.826903522
v 0.795332909 0.147663996 -0.826903522
v 7.32421859E-06 0.579375803 -0.583609164
v 3.00000715 2.07883477 -0.583609045
v 7.17163084E-06 0.201892585 -0.583609521
v 3.00000596 1.5000006 -0.583606958
v 0.795332909 0.147663996 -0.826903522
v 0.00473815901 -0.122689433 -0.825926125
v 7.32421859E-06 0.579375803 -0.583609164
v 7.17163084E-06 0.201892585 -0.583609521
v 3.0000751 1.37837493 -0.826326132
v 3.00000596 1.5000006 -0.583606958
v 3.00000811 1.50000298 0.58238256
v 3.0000751 1.37837493 0.824659169
v 2.16938496 0.834689319 -0.826903522
v 3.0000751 1.37837493 -0.826326132
v 3.0000751 1.37837493 0.824659169
v 2.16938496 0.834689319 0.825236559
v 0.795332909 0.147663996 -0.826903522
v 0.795332909 0.147663996 0.825236559
v 0.00473815901 -0.122689433 -0.825926125
v 0.00473709079 -0.122678757 0.824187696
v 3.00000715 2.07883453 0.825236559
v 3.00000811 1.50000298 0.58238256
v 3.00000715 2.07883453 0.582384646
v 3.0000751 1.37837493 0.824659169
v 2.16938496 0.834689319 0.825236559
v 0.795332909 0.147663996 0.825236559
v 7.01904264E-06 0.579375803 0.825236559
v 0.00473709079 -0.122678757 0.824187696
v 3.00000715 2.07883453 0.582384646
v 7.32421859E-06 0.579375803 0.582384884
v 3.00000811 1.50000298 0.58238256
v 4.88281239E-06 0.201894313 0.582385004
v 4.88281239E-06 0.201894313 0.582385004
v 0.00473709079 -0.122678757 0.824187696
v 2.62691593 1.4978224 -0.632441878
v 7.17163084E-06 0.201892585 -0.583609521
v 4.88281239E-06 0.201894313 0.582385004
v 2.6269145 1.49782228 0.6316697
v 3.00000596 1.5000006 -0.583606958
v 2.62691593 1.4978224 -0.632441878
v 2.6269145 1.49782228 0.6316697
v 3.00000811 1.50000298 0.58238256
vt 0.0148924254 0.841567814
vt 0.0619298741 0.877280235
vt 0.0619441569 0.633985639
vt 0.014857918 0.669849575
vt 0.104138374 0.999488533
vt 0.0440277532 0.940503478
vt 0.0340860412 0.962783933
vt 0.133814678 0.975701809
vt 0.247318238 0.88946259
vt 0.3872765 0.60806036
vt 0.406226993 0.733801246
vt 0.372561365 0.582433581
vt 0.0226975996 0.918367743
vt 0.357057929 0.529756784
vt -1.65918609E-05 0.838780701
vt 0.426605999 0.711491585
vt 0.478560537 0.633269489
vt 0.381725907 0.578545213
vt 0.43640998 0.589056432
vt 0.453131825 0.877442479
vt 0.470359564 0.841745138
vt 0.470441341 0.669739008
vt 0.453162104 0.634051681
vt 0.35448423 0.873449624
vt 0.496290594 0.873364389
vt 0.496290207 0.629896283
vt 0.35448426 0.629811168
vt 0.135918379 0.873449624
vt 0.135918498 0.629811168
vt 0.01723524 0.873328269
vt 0.0172344819 0.629932523
vt 0.45768863 0.941208184
vt 0.398909003 1.0005548
vt 0.474077463 0.965216398
vt 0.367683738 0.97698772
vt 0.254205972 0.89085418
vt 0.095408231 0.735259116
vt 0.113611661 0.609111249
vt 0.0216607004 0.638018847
vt 0.478928208 0.919662476
vt 0.126738042 0.582628071
vt 0.50051713 0.840077579
vt 0.143196121 0.53101033
vt 0.0676442385 0.590016484
vt 0.0229130965 0.632381082
vt 0.26097542 0.16520752
vt 0.542231143 0.158917502
vt 0.542231739 0.00804673508
vt 0.260975897 0.00166193966
vt 0.501908004 0.333403468
vt 0.542094588 0.340403259
vt 0.542094588 0.159221306
vt 0.501907468 0.1662855
g submesh0
f 1/1 2/2 3/3
f 1/1 3/3 4/4
f 5/5 6/6 7/7
f 5/5 8/8 6/6
f 8/8 9/9 6/6
f 9/9 10/10 6/6
f 9/9 11/11 10/10
f 6/6 10/10 12/12
f 6/6 12/12 13/13
f 14/14 13/13 12/12
f 14/14 15/15 13/13
f 10/10 16/16 17/17
f 17/17 18/18 10/10
f 17/17 19/19 18/18
f 20/20 21/21 22/22
f 20/20 22/22 23/23
f 24/24 25/25 26/26
f 24/24 26/26 27/27
f 28/28 24/24 27/27
f 28/28 27/27 29/29
f 30/30 28/28 29/29
f 30/30 29/29 31/31
f 32/32 33/33 34/34
f 32/32 35/35 33/33
f 32/32 36/36 35/35
f 32/32 37/37 36/36
f 32/32 38/38 37/37
f 38/38 39/39 37/37
f 40/40 38/38 32/32
f 40/40 41/41 38/38
f 42/42 41/41 40/40
f 42/42 43/43 41/41
f 44/44 38/38 41/41
f 44/44 45/45 38/38
f 46/46 47/47 48/48
f 46/46 48/48 49/49
f 50/50 51/51 52/52
f 50/50 52/52 53/53
