# foundation.steps.detailcollision
v 2.98880816 1.4527632 0.779495656
v 3.07763553 1.27232063 0.779495656
v 3.077636 1.27232099 0.578374267
v 2.98880792 1.45276332 0.578374267
v 3.07763553 1.27232063 0.779495656
v 2.98880816 1.4527632 0.779495656
v -0.0323878601 -0.0345053039 0.779495358
v 0.0564400852 -0.214947581 0.779495299
v 0.0564400516 -0.214947522 0.578373909
v 3.077636 1.27232099 0.578374267
v -0.0323875621 -0.0345050804 0.578373909
v 2.98880792 1.45276332 0.578374267
v 2.98880816 1.4527632 0.779495656
v -0.0323878601 -0.0345053039 0.779495358
v -0.0323875621 -0.0345050804 0.578373909
v 0.0564400516 -0.214947522 0.578373909
v -0.0323878601 -0.0345053039 0.779495358
v 0.0564400852 -0.214947581 0.779495299
v 0.290010065 0.119952932 -0.769917905
v 0.0399943478 0.119952895 -0.769917905
v 0.0400043763 0.169958532 -0.769868612
v 0.290000439 0.169958606 -0.769868433
v 0.040006347 0.169966891 0.772609293
v 0.290010035 0.119963594 0.772675395
v 0.289997041 0.169967055 0.772609472
v 0.0399930812 0.119963616 0.772675157
v 0.339996397 0.317532212 -0.752231956
v 0.339996189 0.26752007 -0.752232134
v 0.339995861 0.267519861 0.788132012
v 0.339995801 0.317531794 0.788132012
v 0.590007842 0.317531824 0.788132071
v 0.590008438 0.317532182 -0.752231956
v 0.590008557 0.267520279 -0.752231956
v 0.590007901 0.267519891 0.788132071
v 0.339995861 0.267519861 0.788132012
v 0.339996189 0.26752007 -0.752232134
v 0.590008557 0.267520279 -0.752231956
v 0.339996189 0.26752007 -0.752232134
v 0.339996397 0.317532212 -0.752231956
v 0.590008438 0.317532182 -0.752231956
v 0.590007842 0.317531824 0.788132071
v 0.339995801 0.317531794 0.788132012
v 0.339995861 0.267519861 0.788132012
v 0.590007901 0.267519891 0.788132071
v 0.639993072 0.415162712 -0.769926667
v 0.640005767 0.465166271 -0.769862831
v 0.889996827 0.46516639 -0.769862592
v 0.890009642 0.415162623 -0.769926667
v 0.889998436 0.465159059 0.779280663
v 0.640002489 0.46515891 0.779280663
v 0.639992714 0.415153533 0.779330671
v 0.89000845 0.415153533 0.779330671
v 1.19000769 0.612732053 -0.760166228
v 1.19000673 0.612732172 0.78813237
v 1.19000649 0.562720001 0.78813237
v 1.19000733 0.562720001 -0.760166228
v 0.939994514 0.562720001 0.788132131
v 0.939995706 0.56272012 -0.760166466
v 0.939995646 0.612732053 -0.760166466
v 0.939994395 0.612731993 0.788132131
v 1.19000769 0.612732053 -0.760166228
v 1.19000673 0.612732172 0.78813237
v 0.939995646 0.612732053 -0.760166466
v 1.19000769 0.612732053 -0.760166228
v 1.19000733 0.562720001 -0.760166228
v 0.939995706 0.56272012 -0.760166466
v 1.19000649 0.562720001 0.78813237
v 1.19000673 0.612732172 0.78813237
v 0.939994395 0.612731993 0.788132131
v 0.939994514 0.562720001 0.788132131
v 1.23999476 0.710356057 -0.769920051
v 1.49000001 0.760361075 -0.769866645
v 1.49001086 0.710356057 -0.769920051
v 1.24000537 0.760361075 -0.769866645
v 1.24000549 0.760363281 0.788110435
v 1.49001014 0.710358858 0.788168728
v 1.4899987 0.7603634 0.788110435
v 1.23999405 0.710359037 0.788168728
v 1.53999543 0.907933354 -0.769889653
v 1.79000723 0.907933354 -0.769889891
v 1.79000747 0.857921422 -0.769889891
v 1.53999507 0.857921183 -0.769889891
v 1.79000711 0.857921302 0.788132548
v 1.79000723 0.907933414 0.788132548
v 1.53999519 0.907933414 0.788132489
v 1.53999507 0.857921183 0.78813237
v 1.83999479 1.0055598 -0.769923389
v 2.0899992 1.05556405 -0.76986438
v 2.09001136 1.00555992 -0.769923031
v 1.84000635 1.05556405 -0.76986438
v 2.08999944 1.05556035 0.788109422
v 1.8400048 1.05556047 0.788109243
v 1.83999443 1.00555551 0.788162351
v 2.09001017 1.00555551 0.788162351
v 2.13999701 1.15312076 -0.769886374
v 2.39000916 1.20313275 -0.769886374
v 2.39000916 1.15312088 -0.769886374
v 2.13999701 1.20313263 -0.769886374
v 2.13999605 1.20313227 0.788136065
v 2.39000797 1.15312016 0.788136065
v 2.39000869 1.20313239 0.788136065
v 2.13999629 1.15312028 0.788135827
v 2.43999362 1.30075693 -0.769920409
v 2.44000459 1.35076165 -0.76986587
v 2.68999839 1.35076153 -0.76986587
v 2.69000936 1.30075681 -0.76992023
v 2.68999815 1.35076332 0.788114309
v 2.44000459 1.3507632 0.788114309
v 2.43999362 1.30075884 0.788171768
v 2.69000936 1.3007586 0.788171768
v 2.73999572 1.44832039 -0.769886255
v 2.73999572 1.4983325 -0.769886374
v 2.99000716 1.49833238 -0.769886255
v 2.99000812 1.44832075 -0.769886255
v 2.99000716 1.49833214 0.788132966
v 2.739995 1.49833214 0.788132906
v 2.73999572 1.44832039 0.788132846
v 2.99000764 1.44832027 0.788132966
v 0.0399930812 0.119963616 0.772675157
v 0.040006347 0.169966891 0.772609293
v 0.0399943478 0.119952895 -0.769917905
v 0.0400043763 0.169958532 -0.769868612
v 0.290000439 0.169958606 -0.769868433
v 0.289997041 0.169967055 0.772609472
v 0.290010065 0.119952932 -0.769917905
v 0.290010035 0.119963594 0.772675395
v 0.0399930812 0.119963616 0.772675157
v 0.0399943478 0.119952895 -0.769917905
v 0.889996827 0.46516639 -0.769862592
v 0.889998436 0.465159059 0.779280663
v 0.89000845 0.415153533 0.779330671
v 0.890009642 0.415162623 -0.769926667
v 0.639993072 0.415162712 -0.769926667
v 0.639992714 0.415153533 0.779330671
v 0.640005767 0.465166271 -0.769862831
v 0.640002489 0.46515891 0.779280663
v 0.889998436 0.465159059 0.779280663
v 0.889996827 0.46516639 -0.769862592
v 1.23999405 0.710359037 0.788168728
v 1.24000549 0.760363281 0.788110435
v 1.23999476 0.710356057 -0.769920051
v 1.24000537 0.760361075 -0.769866645
v 1.49000001 0.760361075 -0.769866645
v 1.4899987 0.7603634 0.788110435
v 1.49001086 0.710356057 -0.769920051
v 1.49001014 0.710358858 0.788168728
v 1.23999405 0.710359037 0.788168728
v 1.23999476 0.710356057 -0.769920051
v 1.79000723 0.907933354 -0.769889891
v 1.79000723 0.907933414 0.788132548
v 1.79000711 0.857921302 0.788132548
v 1.79000747 0.857921422 -0.769889891
v 1.53999507 0.857921183 0.78813237
v 1.53999507 0.857921183 -0.769889891
v 1.53999543 0.907933354 -0.769889653
v 1.53999519 0.907933414 0.788132489
v 1.79000723 0.907933414 0.788132548
v 1.79000723 0.907933354 -0.769889891
v 1.84000635 1.05556405 -0.76986438
v 1.83999479 1.0055598 -0.769923389
v 1.83999443 1.00555551 0.788162351
v 1.8400048 1.05556047 0.788109243
v 2.08999944 1.05556035 0.788109422
v 2.0899992 1.05556405 -0.76986438
v 2.09001017 1.00555551 0.788162351
v 2.09001136 1.00555992 -0.769923031
v 1.83999479 1.0055598 -0.769923389
v 1.83999443 1.00555551 0.788162351
v 2.13999701 1.20313263 -0.769886374
v 2.13999701 1.15312076 -0.769886374
v 2.13999629 1.15312028 0.788135827
v 2.13999605 1.20313227 0.788136065
v 2.39000869 1.20313239 0.788136065
v 2.39000916 1.20313275 -0.769886374
v 2.39000916 1.15312088 -0.769886374
v 2.39000797 1.15312016 0.788136065
v 2.13999701 1.15312076 -0.769886374
v 2.13999629 1.15312028 0.788135827
v 2.69000936 1.30075681 -0.76992023
v 2.68999839 1.35076153 -0.76986587
v 2.68999815 1.35076332 0.788114309
v 2.69000936 1.3007586 0.788171768
v 2.43999362 1.30075884 0.788171768
v 2.43999362 1.30075693 -0.769920409
v 2.44000459 1.3507632 0.788114309
v 2.44000459 1.35076165 -0.76986587
v 2.68999839 1.35076153 -0.76986587
v 2.68999815 1.35076332 0.788114309
v 2.99000812 1.44832075 -0.769886255
v 2.99000716 1.49833238 -0.769886255
v 2.99000716 1.49833214 0.788132966
v 2.99000764 1.44832027 0.788132966
v 2.73999572 1.44832039 0.788132846
v 2.73999572 1.44832039 -0.769886255
v 2.739995 1.49833214 0.788132906
v 2.73999572 1.4983325 -0.769886374
v 2.99000716 1.49833238 -0.769886255
v 2.99000716 1.49833214 0.788132966
v 2.98880339 1.45276475 -0.765410244
v 2.98880339 1.45276475 -0.564289033
v 3.07763219 1.27232254 -0.765410244
v 3.07763219 1.27232254 -0.564289033
v 0.0564354323 -0.214945629 -0.564289033
v 0.0564357303 -0.214945421 -0.765410364
v 3.07763219 1.27232254 -0.564289033
v 3.07763219 1.27232254 -0.765410244
v 2.98880339 1.45276475 -0.765410244
v -0.0323922373 -0.0345030911 -0.765410364
v -0.0323922485 -0.0345030725 -0.564289033
v 2.98880339 1.45276475 -0.564289033
v 0.0564354323 -0.214945629 -0.564289033
v 3.07763219 1.27232254 -0.564289033
v -0.0323922485 -0.0345030725 -0.564289033
v -0.0323922373 -0.0345030911 -0.765410364
v 0.0564357303 -0.214945421 -0.765410364
v 0.0564354323 -0.214945629 -0.564289033
vn 0.26299423 0.772981346 0.577350676
vn 0.772980869 -0.262995124 0.577350914
vn 0.772982419 -0.262993395 -0.577349663
vn 0.2629942 0.772982001 -0.577349782
vn 0.772980869 -0.262995124 0.577350914
vn 0.26299423 0.772981346 0.577350676
vn -0.772982061 0.262993366 0.57735014
vn -0.262993842 -0.772982061 0.577349842
vn -0.262993783 -0.772981644 -0.577350557
vn 0.772982419 -0.262993395 -0.577349663
vn -0.772981465 0.262994319 -0.577350497
vn 0.2629942 0.772982001 -0.577349782
vn 0.26299423 0.772981346 0.577350676
vn -0.772982061 0.262993366 0.57735014
vn -0.772981465 0.262994319 -0.577350497
vn -0.262993783 -0.772981644 -0.577350557
vn -0.772982061 0.262993366 0.57735014
vn -0.262993842 -0.772982061 0.577349842
vn 0.5773651 -0.577030301 -0.577655196
vn -0.577367663 -0.577028632 -0.577654362
vn -0.577332914 0.577672064 -0.577045619
vn 0.577336073 0.577670574 -0.57704401
vn -0.577342093 0.577754855 0.57695353
vn 0.577356458 -0.576946795 0.577747345
vn 0.577342987 0.577753365 0.576954186
vn -0.577358842 -0.576944888 0.577746749
vn -0.577349722 0.577350736 -0.577350259
vn -0.577350318 -0.577349961 -0.577350438
vn -0.577350438 -0.577349722 0.577350736
vn -0.577350318 0.577350914 0.577349544
vn 0.577349782 0.577350497 0.577350616
vn 0.577349842 0.577351332 -0.577349722
vn 0.577351332 -0.577348948 -0.577350497
vn 0.577350616 -0.577349901 0.577350259
vn -0.577350438 -0.577349722 0.577350736
vn -0.577350318 -0.577349961 -0.577350438
vn 0.577351332 -0.577348948 -0.577350497
vn -0.577350318 -0.577349961 -0.577350438
vn -0.577349722 0.577350736 -0.577350259
vn 0.577349842 0.577351332 -0.577349722
vn 0.577349782 0.577350497 0.577350616
vn -0.577350318 0.577350914 0.577349544
vn -0.577350438 -0.577349722 0.577350736
vn 0.577350616 -0.577349901 0.577350259
vn -0.577357709 -0.576956928 -0.577735901
vn -0.577342033 0.577742815 -0.57696569
vn 0.577342451 0.577743888 -0.576964259
vn 0.577358067 -0.576956391 -0.577736139
vn 0.577334821 0.577673972 0.577041805
vn -0.57733655 0.577672958 0.57704109
vn -0.577364802 -0.5770275 0.577658296
vn 0.577365458 -0.577027082 0.577658057
vn 0.577352166 0.577349067 -0.577349663
vn 0.577351332 0.577349067 0.577350378
vn 0.577348292 -0.577351689 0.577350855
vn 0.577348888 -0.57735163 -0.577350199
vn -0.577350259 -0.577350616 0.577349961
vn -0.577349365 -0.577350616 -0.577350736
vn -0.577350378 0.577349782 -0.577350616
vn -0.577351272 0.577349782 0.577349782
vn 0.577352166 0.577349067 -0.577349663
vn 0.577351332 0.577349067 0.577350378
vn -0.577350378 0.577349782 -0.577350616
vn 0.577352166 0.577349067 -0.577349663
vn 0.577348888 -0.57735163 -0.577350199
vn -0.577349365 -0.577350616 -0.577350736
vn 0.577348292 -0.577351689 0.577350855
vn 0.577351332 0.577349067 0.577350378
vn -0.577351272 0.577349782 0.577349782
vn -0.577350259 -0.577350616 0.577349961
vn -0.577363133 -0.577011049 -0.577676475
vn 0.577336967 0.577689528 -0.577024221
vn 0.577363908 -0.577010989 -0.57767576
vn -0.577337325 0.577689528 -0.577023745
vn -0.577340424 0.577714026 0.576996148
vn 0.577360153 -0.576985717 0.577704787
vn 0.577340126 0.577714682 0.57699573
vn -0.577360272 -0.576986074 0.577704251
vn -0.577349305 0.577351809 -0.577349544
vn 0.577349961 0.57735008 -0.577350736
vn 0.577350497 -0.577350199 -0.57735014
vn -0.577351332 -0.577348948 -0.577350616
vn 0.577349186 -0.577350497 0.577351034
vn 0.577351093 0.577349961 0.577349842
vn -0.577348769 0.577351332 0.577350616
vn -0.577351928 -0.577349305 0.577349484
vn -0.577358305 -0.576984942 -0.577707469
vn 0.577337384 0.577718437 -0.576994777
vn 0.57736367 -0.576981723 -0.577705085
vn -0.577341497 0.577715337 -0.576993763
vn 0.57733494 0.577689528 0.577026188
vn -0.577338755 0.577686787 0.577025175
vn -0.57736218 -0.577013671 0.577674747
vn 0.57736522 -0.577010989 0.577674329
vn -0.577349603 -0.577350974 -0.577350318
vn 0.577351272 0.577348292 -0.577351332
vn 0.577349544 -0.577352226 -0.577348948
vn -0.577350736 0.577349544 -0.577350497
vn -0.577350855 0.577349365 0.577350616
vn 0.577347159 -0.577351689 0.577351928
vn 0.577352762 0.577349067 0.577349067
vn -0.57735008 -0.577351213 0.577349544
vn -0.577361226 -0.577007115 -0.577682257
vn -0.577339292 0.577693224 -0.577018142
vn 0.577336609 0.577694297 -0.577019691
vn 0.577363968 -0.577006221 -0.577680528
vn 0.577340126 0.57771045 0.576999962
vn -0.577341259 0.577708662 0.577000618
vn -0.577359378 -0.57699132 0.5776999
vn 0.577360332 -0.576990068 0.577700317
vn -0.57734859 -0.577353835 -0.577348232
vn -0.57735157 0.577346861 -0.577352345
vn 0.577347338 0.577351034 -0.577352524
vn 0.577353537 -0.577349305 -0.577348053
vn 0.57734859 0.577352822 0.577349365
vn -0.577353954 0.577348471 0.577348471
vn -0.577346981 -0.577352047 0.577351749
vn 0.577351689 -0.577347755 0.577351332
vn -0.577358842 -0.576944888 0.577746749
vn -0.577342093 0.577754855 0.57695353
vn -0.577367663 -0.577028632 -0.577654362
vn -0.577332914 0.577672064 -0.577045619
vn 0.577336073 0.577670574 -0.57704401
vn 0.577342987 0.577753365 0.576954186
vn 0.5773651 -0.577030301 -0.577655196
vn 0.577356458 -0.576946795 0.577747345
vn -0.577358842 -0.576944888 0.577746749
vn -0.577367663 -0.577028632 -0.577654362
vn 0.577342451 0.577743888 -0.576964259
vn 0.577334821 0.577673972 0.577041805
vn 0.577365458 -0.577027082 0.577658057
vn 0.577358067 -0.576956391 -0.577736139
vn -0.577357709 -0.576956928 -0.577735901
vn -0.577364802 -0.5770275 0.577658296
vn -0.577342033 0.577742815 -0.57696569
vn -0.57733655 0.577672958 0.57704109
vn 0.577334821 0.577673972 0.577041805
vn 0.577342451 0.577743888 -0.576964259
vn -0.577360272 -0.576986074 0.577704251
vn -0.577340424 0.577714026 0.576996148
vn -0.577363133 -0.577011049 -0.577676475
vn -0.577337325 0.577689528 -0.577023745
vn 0.577336967 0.577689528 -0.577024221
vn 0.577340126 0.577714682 0.57699573
vn 0.577363908 -0.577010989 -0.57767576
vn 0.577360153 -0.576985717 0.577704787
vn -0.577360272 -0.576986074 0.577704251
vn -0.577363133 -0.577011049 -0.577676475
vn 0.577349961 0.57735008 -0.577350736
vn 0.577351093 0.577349961 0.577349842
vn 0.577349186 -0.577350497 0.577351034
vn 0.577350497 -0.577350199 -0.57735014
vn -0.577351928 -0.577349305 0.577349484
vn -0.577351332 -0.577348948 -0.577350616
vn -0.577349305 0.577351809 -0.577349544
vn -0.577348769 0.577351332 0.577350616
vn 0.577351093 0.577349961 0.577349842
vn 0.577349961 0.57735008 -0.577350736
vn -0.577341497 0.577715337 -0.576993763
vn -0.577358305 -0.576984942 -0.577707469
vn -0.57736218 -0.577013671 0.577674747
vn -0.577338755 0.577686787 0.577025175
vn 0.57733494 0.577689528 0.577026188
vn 0.577337384 0.577718437 -0.576994777
vn 0.57736522 -0.577010989 0.577674329
vn 0.57736367 -0.576981723 -0.577705085
vn -0.577358305 -0.576984942 -0.577707469
vn -0.57736218 -0.577013671 0.577674747
vn -0.577350736 0.577349544 -0.577350497
vn -0.577349603 -0.577350974 -0.577350318
vn -0.57735008 -0.577351213 0.577349544
vn -0.577350855 0.577349365 0.577350616
vn 0.577352762 0.577349067 0.577349067
vn 0.577351272 0.577348292 -0.577351332
vn 0.577349544 -0.577352226 -0.577348948
vn 0.577347159 -0.577351689 0.577351928
vn -0.577349603 -0.577350974 -0.577350318
vn -0.57735008 -0.577351213 0.577349544
vn 0.577363968 -0.577006221 -0.577680528
vn 0.577336609 0.577694297 -0.577019691
vn 0.577340126 0.57771045 0.576999962
vn 0.577360332 -0.576990068 0.577700317
vn -0.577359378 -0.57699132 0.5776999
vn -0.577361226 -0.577007115 -0.577682257
vn -0.577341259 0.577708662 0.577000618
vn -0.577339292 0.577693224 -0.577018142
vn 0.577336609 0.577694297 -0.577019691
vn 0.577340126 0.57771045 0.576999962
vn 0.577353537 -0.577349305 -0.577348053
vn 0.577347338 0.577351034 -0.577352524
vn 0.57734859 0.577352822 0.577349365
vn 0.577351689 -0.577347755 0.577351332
vn -0.577346981 -0.577352047 0.577351749
vn -0.57734859 -0.577353835 -0.577348232
vn -0.577353954 0.577348471 0.577348471
vn -0.57735157 0.577346861 -0.577352345
vn 0.577347338 0.577351034 -0.577352524
vn 0.57734859 0.577352822 0.577349365
vn 0.262991875 0.772982359 -0.577350438
vn 0.262992233 0.77298224 0.577350557
vn 0.772982597 -0.262992114 -0.577349961
vn 0.772982597 -0.262992263 0.577349961
vn -0.262994349 -0.772981942 0.577349842
vn -0.262993395 -0.772981644 -0.577350676
vn 0.772982597 -0.262992263 0.577349961
vn 0.772982597 -0.262992114 -0.577349961
vn 0.262991875 0.772982359 -0.577350438
vn -0.772981822 0.262993932 -0.577350318
vn -0.772981882 0.262993962 0.577350199
vn 0.262992233 0.77298224 0.577350557
vn -0.262994349 -0.772981942 0.577349842
vn 0.772982597 -0.262992263 0.577349961
vn -0.772981882 0.262993962 0.577350199
vn -0.772981822 0.262993932 -0.577350318
vn -0.262993395 -0.772981644 -0.577350676
vn -0.262994349 -0.772981942 0.577349842
vt 0.0572966635 0.989983737
vt 0.119970486 0.989983797
vt 0.119970441 0.958646894
vt 0.0572966263 0.958646774
vt 0.99921006 0.755283594
vt 0.99921006 0.724912882
vt 0.000928289373 0.724912882
vt 0.000928289373 0.755283535
vt 0.000928289373 0.787437379
vt 0.99921006 0.787437499
vt 0.000928289373 0.819591045
vt 0.99921006 0.819591045
vt 0.99921006 0.85174489
vt 0.000928289373 0.85174495
vt 0.13611412 0.989815831
vt 0.199150681 0.98981595
vt 0.136114135 0.95829767
vt 0.199150741 0.95829767
vt 0.0299773179 0.956574321
vt 0.0299773179 0.997908831
vt 0.0446536951 0.997908771
vt 0.0446536951 0.956574202
vt 0.0297979973 0.956806064
vt 0.0446336977 0.998070896
vt 0.0297979973 0.998070896
vt 0.0446336977 0.956806064
vt 0.99921006 0.631162047
vt 0.99921006 0.623865485
vt 0.488044143 0.623865485
vt 0.488044143 0.631162047
vt 0.488044143 0.672469974
vt 0.99921006 0.672469974
vt 0.99921006 0.680345893
vt 0.488044143 0.680345893
vt 0.488044143 0.721653998
vt 0.99921006 0.721654058
vt 0.0209343247 0.956574321
vt 0.0209343247 0.997908831
vt 0.0062579466 0.997908771
vt 0.0062579466 0.956574202
vt 0.0211136416 0.998070896
vt 0.0211136416 0.956806064
vt 0.00627793884 0.956806064
vt 0.00627793884 0.998070896
vt 0.0446536951 0.956574202
vt 0.0299773179 0.956574321
vt 0.0299773179 0.997908831
vt 0.0446536951 0.997908771
vt 0.0446336977 0.956806064
vt 0.0446336977 0.998070896
vt 0.0297979973 0.998070896
vt 0.0297979973 0.956806064
vt 0.99921006 0.623865485
vt 0.485387236 0.623865485
vt 0.485387206 0.631162047
vt 0.99921006 0.631162047
vt 0.485387206 0.672469974
vt 0.99921006 0.672469974
vt 0.99921006 0.680345893
vt 0.485387206 0.680345893
vt 0.99921006 0.721654058
vt 0.485387206 0.721653998
vt 0.0209343247 0.956574321
vt 0.0209343247 0.997908831
vt 0.0062579466 0.997908771
vt 0.0062579466 0.956574202
vt 0.0211136416 0.956806064
vt 0.00627793884 0.956806064
vt 0.00627793884 0.998070896
vt 0.0211136416 0.998070896
vt 0.0299773179 0.997908831
vt 0.0446536951 0.956574202
vt 0.0299773179 0.956574321
vt 0.0446536951 0.997908771
vt 0.0297979973 0.956806064
vt 0.0446336977 0.998070896
vt 0.0297979973 0.998070896
vt 0.0446336977 0.956806064
vt 0.0209343247 0.956574321
vt 0.0209343247 0.997908831
vt 0.0062579466 0.997908771
vt 0.0062579466 0.956574202
vt 0.0211136416 0.956806064
vt 0.00627793884 0.956806064
vt 0.00627793884 0.998070896
vt 0.0211136416 0.998070896
vt 0.0299773179 0.997908831
vt 0.0446536951 0.956574202
vt 0.0299773179 0.956574321
vt 0.0446536951 0.997908771
vt 0.0297979973 0.998070896
vt 0.0297979973 0.956806064
vt 0.0446336977 0.956806064
vt 0.0446336977 0.998070896
vt 0.0209343247 0.997908831
vt 0.0062579466 0.956574202
vt 0.0209343247 0.956574321
vt 0.0062579466 0.997908771
vt 0.0211136416 0.956806064
vt 0.00627793884 0.998070896
vt 0.0211136416 0.998070896
vt 0.00627793884 0.956806064
vt 0.0446536951 0.956574202
vt 0.0299773179 0.956574321
vt 0.0299773179 0.997908831
vt 0.0446536951 0.997908771
vt 0.0446336977 0.956806064
vt 0.0446336977 0.998070896
vt 0.0297979973 0.998070896
vt 0.0297979973 0.956806064
vt 0.0062579466 0.956574202
vt 0.0209343247 0.956574321
vt 0.0209343247 0.997908831
vt 0.0062579466 0.997908771
vt 0.00627793884 0.956806064
vt 0.00627793884 0.998070896
vt 0.0211136416 0.998070896
vt 0.0211136416 0.956806064
vt 0.000559860026 0.623865485
vt 0.000559860026 0.631162047
vt 0.512447655 0.623865485
vt 0.512447655 0.631162047
vt 0.512447655 0.672469974
vt 0.000559860026 0.672469974
vt 0.512447655 0.680345893
vt 0.000559860026 0.680345893
vt 0.000559860026 0.721653938
vt 0.512447655 0.721653998
vt 0.514679432 0.623865485
vt 0.000559860026 0.623865485
vt 0.000559860026 0.631162047
vt 0.514679432 0.631162047
vt 0.514679432 0.672469974
vt 0.000559860026 0.672469974
vt 0.514679432 0.680345893
vt 0.000559860026 0.680345893
vt 0.000559860026 0.721653938
vt 0.514679432 0.721653998
vt 0.231889859 0.623865485
vt 0.231889844 0.631162047
vt 0.748966753 0.623865485
vt 0.748966753 0.631162047
vt 0.748966753 0.672469974
vt 0.231889844 0.672469974
vt 0.748966753 0.680345893
vt 0.231889844 0.680345893
vt 0.231889844 0.721653998
vt 0.748966753 0.721654058
vt 0.748966753 0.623865485
vt 0.231889859 0.623865485
vt 0.231889844 0.631162047
vt 0.748966753 0.631162047
vt 0.231889844 0.672469974
vt 0.748966753 0.672469974
vt 0.748966753 0.680345893
vt 0.231889844 0.680345893
vt 0.231889844 0.721653998
vt 0.748966753 0.721654058
vt 0.60158968 0.631162047
vt 0.601589739 0.623865485
vt 0.0845127925 0.623865485
vt 0.0845127553 0.631162047
vt 0.0845127553 0.672469974
vt 0.60158968 0.672469974
vt 0.0845127553 0.680345893
vt 0.60158968 0.680345893
vt 0.60158968 0.721653998
vt 0.0845127553 0.721653938
vt 0.917584598 0.631162047
vt 0.917584598 0.623865485
vt 0.400507689 0.623865485
vt 0.400507689 0.631162047
vt 0.400507689 0.672469974
vt 0.917584598 0.672469974
vt 0.917584598 0.680345893
vt 0.400507689 0.680345893
vt 0.917584598 0.721654058
vt 0.400507689 0.721653998
vt 0.602637827 0.631162047
vt 0.602637827 0.623865485
vt 0.0855608508 0.623865485
vt 0.0855608359 0.631162047
vt 0.0855608359 0.672469974
vt 0.602637827 0.672470033
vt 0.0855608359 0.680345893
vt 0.602637827 0.680345893
vt 0.602637827 0.721653998
vt 0.0855608359 0.721653938
vt 0.859743595 0.631162047
vt 0.859743655 0.623865485
vt 0.342666715 0.623865485
vt 0.342666686 0.631162047
vt 0.342666686 0.672469974
vt 0.859743595 0.672469974
vt 0.342666686 0.680345893
vt 0.859743595 0.680345893
vt 0.859743595 0.721654058
vt 0.342666686 0.721653998
vt 0.119970441 0.958646894
vt 0.0572966263 0.958646774
vt 0.119970486 0.989983797
vt 0.0572966635 0.989983737
vt 0.000928289373 0.724912882
vt 0.000928289373 0.755283535
vt 0.99921006 0.724912882
vt 0.99921006 0.755283594
vt 0.99921006 0.787437499
vt 0.000928289373 0.787437379
vt 0.000928289373 0.819591045
vt 0.99921006 0.819591045
vt 0.000928289373 0.85174495
vt 0.99921006 0.85174489
vt 0.13611412 0.989815831
vt 0.199150681 0.98981595
vt 0.199150741 0.95829767
vt 0.136114135 0.95829767
g submesh0
f 1/1/1 2/2/2 3/3/3
f 3/3/3 4/4/4 1/1/1
f 5/5/5 6/6/6 7/7/7
f 7/7/7 8/8/8 5/5/5
f 5/5/5 8/8/8 9/9/9
f 9/9/9 10/10/10 5/5/5
f 9/9/9 11/11/11 10/10/10
f 12/12/12 10/10/10 11/11/11
f 13/13/13 12/12/12 11/11/11
f 11/11/11 14/14/14 13/13/13
f 15/15/15 16/16/16 17/17/17
f 17/17/17 16/16/16 18/18/18
f 19/19/19 20/20/20 21/21/21
f 21/21/21 22/22/22 19/19/19
f 23/23/23 24/24/24 25/25/25
f 24/24/24 23/23/23 26/26/26
f 27/27/27 28/28/28 29/29/29
f 29/29/29 30/30/30 27/27/27
f 27/27/27 30/30/30 31/31/31
f 31/31/31 32/32/32 27/27/27
f 31/31/31 33/33/33 32/32/32
f 31/31/31 34/34/34 33/33/33
f 33/33/33 34/34/34 35/35/35
f 35/35/35 36/36/36 33/33/33
f 37/37/37 38/38/38 39/39/39
f 39/39/39 40/40/40 37/37/37
f 41/41/41 42/42/42 43/43/43
f 43/43/43 44/44/44 41/41/41
f 45/45/45 46/46/46 47/47/47
f 47/47/47 48/48/48 45/45/45
f 49/49/49 50/50/50 51/51/51
f 51/51/51 52/52/52 49/49/49
f 53/53/53 54/54/54 55/55/55
f 55/55/55 56/56/56 53/53/53
f 56/56/56 55/55/55 57/57/57
f 57/57/57 58/58/58 56/56/56
f 59/59/59 58/58/58 57/57/57
f 59/59/59 57/57/57 60/60/60
f 61/61/61 59/59/59 60/60/60
f 60/60/60 62/62/62 61/61/61
f 63/63/63 64/64/64 65/65/65
f 65/65/65 66/66/66 63/63/63
f 67/67/67 68/68/68 69/69/69
f 69/69/69 70/70/70 67/67/67
f 71/71/71 72/72/72 73/73/73
f 72/72/72 71/71/71 74/74/74
f 75/75/75 76/76/76 77/77/77
f 76/76/76 75/75/75 78/78/78
f 79/79/79 80/80/80 81/81/81
f 81/81/81 82/82/82 79/79/79
f 83/83/83 84/84/84 85/85/85
f 85/85/85 86/86/86 83/83/83
f 87/87/87 88/88/88 89/89/89
f 88/88/88 87/87/87 90/90/90
f 91/91/91 92/92/92 93/93/93
f 93/93/93 94/94/94 91/91/91
f 95/95/95 96/96/96 97/97/97
f 96/96/96 95/95/95 98/98/98
f 99/99/99 100/100/100 101/101/101
f 100/100/100 99/99/99 102/102/102
f 103/103/103 104/104/104 105/105/105
f 105/105/105 106/106/106 103/103/103
f 107/107/107 108/108/108 109/109/109
f 109/109/109 110/110/110 107/107/107
f 111/111/111 112/112/112 113/113/113
f 113/113/113 114/114/114 111/111/111
f 115/115/115 116/116/116 117/117/117
f 117/117/117 118/118/118 115/115/115
f 119/119/119 120/120/120 121/121/121
f 122/122/122 121/121/121 120/120/120
f 123/123/123 122/122/122 120/120/120
f 120/120/120 124/124/124 123/123/123
f 125/125/125 123/123/123 124/124/124
f 124/124/124 126/126/126 125/125/125
f 126/126/126 127/127/127 125/125/125
f 128/128/128 125/125/125 127/127/127
f 129/129/129 130/130/130 131/131/131
f 131/131/131 132/132/132 129/129/129
f 133/133/133 132/132/132 131/131/131
f 131/131/131 134/134/134 133/133/133
f 135/135/135 133/133/133 134/134/134
f 134/134/134 136/136/136 135/135/135
f 136/136/136 137/137/137 135/135/135
f 138/138/138 135/135/135 137/137/137
f 139/139/139 140/140/140 141/141/141
f 142/142/142 141/141/141 140/140/140
f 143/143/143 142/142/142 140/140/140
f 140/140/140 144/144/144 143/143/143
f 145/145/145 143/143/143 144/144/144
f 144/144/144 146/146/146 145/145/145
f 146/146/146 147/147/147 145/145/145
f 148/148/148 145/145/145 147/147/147
f 149/149/149 150/150/150 151/151/151
f 151/151/151 152/152/152 149/149/149
f 151/151/151 153/153/153 152/152/152
f 154/154/154 152/152/152 153/153/153
f 155/155/155 154/154/154 153/153/153
f 153/153/153 156/156/156 155/155/155
f 156/156/156 157/157/157 155/155/155
f 158/158/158 155/155/155 157/157/157
f 159/159/159 160/160/160 161/161/161
f 161/161/161 162/162/162 159/159/159
f 162/162/162 163/163/163 159/159/159
f 164/164/164 159/159/159 163/163/163
f 164/164/164 163/163/163 165/165/165
f 165/165/165 166/166/166 164/164/164
f 167/167/167 166/166/166 165/165/165
f 165/165/165 168/168/168 167/167/167
f 169/169/169 170/170/170 171/171/171
f 171/171/171 172/172/172 169/169/169
f 172/172/172 173/173/173 169/169/169
f 174/174/174 169/169/169 173/173/173
f 175/175/175 174/174/174 173/173/173
f 173/173/173 176/176/176 175/175/175
f 177/177/177 175/175/175 176/176/176
f 176/176/176 178/178/178 177/177/177
f 179/179/179 180/180/180 181/181/181
f 181/181/181 182/182/182 179/179/179
f 182/182/182 183/183/183 179/179/179
f 184/184/184 179/179/179 183/183/183
f 183/183/183 185/185/185 184/184/184
f 186/186/186 184/184/184 185/185/185
f 187/187/187 186/186/186 185/185/185
f 185/185/185 188/188/188 187/187/187
f 189/189/189 190/190/190 191/191/191
f 191/191/191 192/192/192 189/189/189
f 192/192/192 193/193/193 189/189/189
f 194/194/194 189/189/189 193/193/193
f 193/193/193 195/195/195 194/194/194
f 196/196/196 194/194/194 195/195/195
f 197/197/197 196/196/196 195/195/195
f 195/195/195 198/198/198 197/197/197
f 199/199/199 200/200/200 201/201/201
f 200/200/200 202/202/202 201/201/201
f 203/203/203 204/204/204 205/205/205
f 204/204/204 206/206/206 205/205/205
f 207/207/207 206/206/206 204/204/204
f 204/204/204 208/208/208 207/207/207
f 207/207/207 208/208/208 209/209/209
f 210/210/210 207/207/207 209/209/209
f 210/210/210 209/209/209 211/211/211
f 211/211/211 212/212/212 210/210/210
f 213/213/213 214/214/214 215/215/215
f 215/215/215 216/216/216 213/213/213
