# foundation.collision
v -1.51436865 -0.224891052 -0.496358931
v -1.20479226 -0.944359541 -1.17125821
v -1.25895953 -0.224891052 -0.49635908
v -0.480446309 -0.224891052 -1.23875666
v -1.51436865 -0.906666517 -1.17125809
v -1.51436865 -0.224891052 -1.51504385
v -1.20479226 -0.944359541 -1.51504385
v -0.480446309 -0.224891052 -1.51504385
v -1.51436865 -3 -1.17125821
v -1.20479226 -3 -1.17125821
v -1.51436865 -3 -1.51504385
v -1.20479226 -3 -1.51504385
v 0.516562641 -0.224891052 -1.52401757
v 1.20479286 -0.927719533 -1.17125821
v 0.516562641 -0.224891052 -1.23875666
v 1.25896025 -0.224891052 -0.49635908
v 1.53191066 -0.224891052 -0.49635908
v 1.20479286 -0.927719533 -1.52401757
v 1.53191066 -0.224891052 -1.52401757
v 1.53191066 -0.906666517 -1.17125821
v 1.20479286 -3 -1.52401757
v 1.53191066 -3 -1.52401757
v 1.20479286 -3 -1.17125821
v 1.53191066 -3 -1.17125821
v -0.474794149 -0.224891052 1.51420116
v -1.20479226 -0.944869041 1.18487215
v -0.474794149 -0.224891052 1.25237048
v -1.25895953 -0.224891052 0.50997299
v -1.51751387 -0.224891052 0.50997299
v -1.20479226 -0.944869041 1.51420116
v -1.51751387 -0.224891052 1.51420116
v -1.51751387 -0.906666517 1.18487215
v -1.20479226 -3 1.51420116
v -1.51751387 -3 1.51420116
v -1.20479226 -3 1.18487215
v -1.51751387 -3 1.18487215
v 1.51456904 -0.224891052 0.50997299
v 1.20479286 -0.906666517 1.18487215
v 1.25896025 -0.224891052 0.50997299
v 0.516562641 -0.224891052 1.25237048
v 1.51456904 -0.906666517 1.18487215
v 1.51456904 -0.224891052 1.52653313
v 1.20479286 -0.906666517 1.52653313
v 0.516562641 -0.224891052 1.52653313
v 1.51456904 -3 1.18487215
v 1.20479286 -3 1.18487215
v 1.51456904 -3 1.52653313
v 1.20479286 -3 1.52653313
v 1.60000026 0.099999994 1.59999907
v 1.60000026 0.099999994 -1.60000062
v -1.59999955 0.099999994 -1.60000062
v 1.60000026 -0.246181637 -1.60000062
v -1.59999955 -0.246181637 -1.60000062
v 1.60000026 -0.246181637 1.59999907
v -1.59999955 0.099999994 1.59999907
v -1.59999955 -0.246181637 1.59999907
vn -0.481994718 -0.608670354 0.630239367
vn 0.597914577 -0.492774844 0.632195532
vn 0.210255653 -0.666079998 0.715632617
vn 0.695059121 -0.67709136 0.241743997
vn -0.811478436 -0.233325273 0.535781682
vn -0.70710665 0 -0.707106829
vn 0.548193872 -0.228154913 -0.804629624
vn 0.63085711 -0.635133803 -0.44567281
vn -0.70710665 0 0.707106829
vn 0.707106888 0 0.70710665
vn -0.707106769 0 -0.707106769
vn 0.707106769 0 -0.707106769
vn -0.637345254 -0.624107242 -0.451974779
vn -0.607363641 -0.494526327 0.621734023
vn -0.705220044 -0.667666078 0.238509223
vn -0.227185279 -0.668603182 0.70806545
vn 0.466833234 -0.617751539 0.63281101
vn -0.55203855 -0.225275695 -0.802810192
vn 0.707106829 0 -0.70710665
vn 0.80765456 -0.230138198 0.542890847
vn -0.707106769 0 -0.707106769
vn 0.707106769 0 -0.707106769
vn -0.707106769 0 0.707106769
vn 0.707106769 0 0.707106769
vn 0.62917316 -0.637929559 0.444057316
vn 0.596677482 -0.493737787 -0.632612705
vn 0.692603588 -0.679570556 -0.241835341
vn 0.209275156 -0.666086018 -0.715914309
vn -0.482064128 -0.608530879 -0.630320847
vn 0.547210157 -0.228880197 0.805093169
vn -0.707106769 0 0.707106829
vn -0.811491489 -0.233313888 -0.535767019
vn 0.707106829 0 0.707106769
vn -0.707106829 0 0.707106769
vn 0.707106769 0 -0.707106769
vn -0.707106769 0 -0.707106769
vn 0.449517995 -0.628428578 -0.634831548
vn -0.608133018 -0.505892038 -0.611757755
vn -0.238257736 -0.673627615 -0.699613571
vn -0.695641398 -0.67900008 -0.234610319
vn 0.803521574 -0.226407602 -0.550538421
vn 0.707106769 0 0.707106769
vn -0.547822773 -0.228429005 0.804804623
vn -0.630222976 -0.636189699 0.445063502
vn 0.707106829 0 -0.707106769
vn -0.707106769 0 -0.707106769
vn 0.707106769 0 0.707106829
vn -0.707106769 0 0.707106829
vn 0.577350259 0.577350259 0.577350259
vn 0.577350259 0.577350259 -0.577350259
vn -0.577350259 0.577350259 -0.577350259
vn 0.577350259 -0.577350259 -0.577350259
vn -0.577350259 -0.577350259 -0.577350259
vn 0.577350259 -0.577350259 0.577350259
vn -0.577350259 0.577350259 0.577350259
vn -0.577350259 -0.577350259 0.577350259
vt 0.669185281 0.39157784
vt 0.667293489 0.379720926
vt 0.665623724 0.390668899
vt 0.657435358 0.377645761
vt 0.671610415 0.38089779
vt 0.672845721 0.377509594
vt 0.668528795 0.374973178
vt 0.658428133 0.373830169
vt 0.671610415 0.376723439
vt 0.667293489 0.375621736
vt 0.672845721 0.37197569
vt 0.668528795 0.370873988
vt 0.644557536 0.370158195
vt 0.63369292 0.371179163
vt 0.643532515 0.374097705
vt 0.630512476 0.381708413
vt 0.626706243 0.380737066
vt 0.634960473 0.366307497
vt 0.630398989 0.366544902
vt 0.629131377 0.370057046
vt 0.634960473 0.362175107
vt 0.630398989 0.361011028
vt 0.63369292 0.367046803
vt 0.629131377 0.365882695
vt 0.647464335 0.415644556
vt 0.658827186 0.412258565
vt 0.648405135 0.412028611
vt 0.662007689 0.404566556
vt 0.665613055 0.405486673
vt 0.657643795 0.416806668
vt 0.66200459 0.419355273
vt 0.663187981 0.413447618
vt 0.657643795 0.412708491
vt 0.66200459 0.413821369
vt 0.658827186 0.408160388
vt 0.663187981 0.409273267
vt 0.623332024 0.394696444
vt 0.625226617 0.403759778
vt 0.626896381 0.395606071
vt 0.634581089 0.408500701
vt 0.620906889 0.40265739
vt 0.619679213 0.408735335
vt 0.62399888 0.4084782
vt 0.633595943 0.412286937
vt 0.620906889 0.398483038
vt 0.625226617 0.399585426
vt 0.619679213 0.403201461
vt 0.62399888 0.404303849
vt 0.618223906 0.410093784
vt 0.629722476 0.365901113
vt 0.674345076 0.377288908
vt 0.629722476 0.365210801
vt 0.674345076 0.376598597
vt 0.618223906 0.409403443
vt 0.662846506 0.42148155
vt 0.662846506 0.420791239
g submesh0
f 1/1/1 2/2/2 3/3/3
f 4/4/4 3/3/3 2/2/2
f 1/1/1 5/5/5 2/2/2
f 6/6/6 5/5/5 1/1/1
f 4/4/4 2/2/2 7/7/7
f 4/4/4 7/7/7 8/8/8
f 7/7/7 6/6/6 8/8/8
f 9/9/9 2/2/2 5/5/5
f 9/9/9 10/10/10 2/2/2
f 10/10/10 7/7/7 2/2/2
f 11/11/11 9/9/9 5/5/5
f 11/11/11 5/5/5 6/6/6
f 10/10/10 12/12/12 7/7/7
f 12/12/12 11/11/11 6/6/6
f 12/12/12 6/6/6 7/7/7
f 13/13/13 14/14/14 15/15/15
f 16/16/16 15/15/15 14/14/14
f 14/14/14 17/17/17 16/16/16
f 13/13/13 18/18/18 14/14/14
f 18/18/18 13/13/13 19/19/19
f 14/14/14 20/20/20 17/17/17
f 19/19/19 17/17/17 20/20/20
f 19/19/19 21/21/21 18/18/18
f 19/19/19 22/22/22 21/21/21
f 20/20/20 22/22/22 19/19/19
f 18/18/18 21/21/21 23/23/23
f 18/18/18 23/23/23 14/14/14
f 20/20/20 24/24/24 22/22/22
f 14/14/14 23/23/23 24/24/24
f 14/14/14 24/24/24 20/20/20
f 25/25/25 26/26/26 27/27/27
f 28/28/28 27/27/27 26/26/26
f 26/26/26 29/29/29 28/28/28
f 25/25/25 30/30/30 26/26/26
f 30/30/30 25/25/25 31/31/31
f 26/26/26 32/32/32 29/29/29
f 31/31/31 29/29/29 32/32/32
f 31/31/31 33/33/33 30/30/30
f 31/31/31 34/34/34 33/33/33
f 32/32/32 34/34/34 31/31/31
f 30/30/30 33/33/33 35/35/35
f 30/30/30 35/35/35 26/26/26
f 32/32/32 36/36/36 34/34/34
f 26/26/26 35/35/35 36/36/36
f 26/26/26 36/36/36 32/32/32
f 37/37/37 38/38/38 39/39/39
f 40/40/40 39/39/39 38/38/38
f 37/37/37 41/41/41 38/38/38
f 42/42/42 41/41/41 37/37/37
f 40/40/40 38/38/38 43/43/43
f 40/40/40 43/43/43 44/44/44
f 43/43/43 42/42/42 44/44/44
f 45/45/45 38/38/38 41/41/41
f 45/45/45 46/46/46 38/38/38
f 46/46/46 43/43/43 38/38/38
f 47/47/47 45/45/45 41/41/41
f 47/47/47 41/41/41 42/42/42
f 46/46/46 48/48/48 43/43/43
f 48/48/48 47/47/47 42/42/42
f 48/48/48 42/42/42 43/43/43
f 49/49/49 50/50/50 51/51/51
f 52/52/52 50/50/50 49/49/49
f 53/53/53 50/50/50 52/52/52
f 53/53/53 51/51/51 50/50/50
f 52/52/52 49/49/49 54/54/54
f 54/54/54 53/53/53 52/52/52
f 49/49/49 51/51/51 55/55/55
f 54/54/54 49/49/49 55/55/55
f 54/54/54 56/56/56 53/53/53
f 56/56/56 51/51/51 53/53/53
f 54/54/54 55/55/55 56/56/56
f 56/56/56 55/55/55 51/51/51
