# foundation.triangle.collision
v -0.0616739653 -0.966641188 2.68081164
v -0.464975953 -0.224888295 2.12088108
v -0.350329965 -0.230854794 2.05864
v 0.0369026922 -0.966641188 2.67756462
v 0.377978206 -0.253421634 2.05633307
v 0.139754251 -0.966641188 2.75648308
v 0.468782634 -0.253421634 2.10738277
v 0.134197608 -0.68283385 2.90814328
v 0.0534676351 -0.0680673197 2.9849205
v 0.0369039141 -2.99999738 2.67756343
v 0.139754251 -2.99999738 2.75648308
v -0.0616727434 -2.99999738 2.68081284
v 0.137445912 -2.99999738 2.90489125
v 0.0578633882 -2.99999738 2.98926258
v -0.081112437 -0.0655215457 2.98592639
v -0.155547246 -2.99999785 2.74654531
v -0.0811112225 -2.99999785 2.98592758
v -0.155548468 -0.966641366 2.74654412
v -0.172779918 -2.99999785 2.89425898
v -0.164603651 -0.883820295 2.9024353
v 1.46592379 -0.966641545 0.0870602429
v 1.20654511 -0.224888608 0.764917254
v 1.09532082 -0.230855092 0.696752012
v 1.41382289 -0.966641545 0.00331481919
v 0.705282986 -0.253421932 0.0185494982
v 1.4307431 -0.966641545 -0.125217289
v 0.704090357 -0.253421932 -0.0856127888
v 1.56486177 -0.682834327 -0.196234733
v 1.67171836 -0.094033353 -0.164709464
v 1.4138217 -2.99999809 0.00331359846
v 1.4307431 -2.99999809 -0.125217289
v 1.46592379 -2.99999809 0.08705841
v 1.56042075 -2.99999809 -0.197420955
v 1.67328095 -2.99999809 -0.170687556
v 1.73988008 -0.091487579 -0.0486630239
v 1.56978726 -2.99999809 0.135491028
v 1.73988008 -2.99999809 -0.0486639403
v 1.56978726 -0.966641545 0.135491937
v 1.7063266 -2.99999809 0.0765579194
v 1.70931971 -0.883820653 0.0653887913
v -1.43281734 -0.966641545 0.018559264
v -0.763665974 -0.220135793 -0.077489011
v -0.767085791 -0.226102293 0.0529186986
v -1.47929251 -0.966641545 0.105553895
v -1.16147935 -0.24866882 0.713670492
v -1.59906459 -0.966641545 0.155165702
v -1.25109172 -0.24866882 0.766783297
v -1.72762656 -0.682834148 0.0745236203
v -1.76354158 -0.0729788169 -0.0351910405
v -1.47929287 -2.99999809 0.10555511
v -1.59906435 -2.99999809 0.155165702
v -1.43281853 -2.99999809 0.018559264
v -1.72643399 -2.99999809 0.0789620951
v -1.76949978 -2.99999809 -0.0335552953
v -1.69712305 -0.0704330429 -0.152244255
v -1.44280636 -2.99999809 -0.0956033319
v -1.69712365 -2.99999809 -0.152244255
v -1.44280577 -0.966641545 -0.0956033319
v -1.56211388 -2.99999809 -0.184385061
v -1.57328308 -0.883820474 -0.18139191
v -0.0322106145 0.099999994 2.93343258
v -1.64805627 0.100000605 -0.0744581595
v -1.69214296 0.100000605 -0.0273408499
v -0.109174468 -0.0730908215 2.98656011
v -1.76910675 -0.073090516 0.0257867426
v 1.65772641 0.099999994 -0.0791720599
v 0.127570912 -0.0730908215 2.98532104
v 0.0145545192 0.099999994 2.92331648
v 1.77074277 -0.0730908215 -0.0171676632
v 1.64750123 0.099999994 -0.113022
v -1.64805627 -0.073090516 -0.185796663
v 1.64750123 -0.0730908215 -0.224360958
v -1.69214296 -0.246181637 -0.0273402408
v -0.0322106928 -0.246181637 2.93343258
v 0.0355009437 -0.246181637 2.92787218
v -1.64805603 -0.246181637 -0.111311033
v 1.64750123 -0.246181637 -0.14987579
v 1.67867279 -0.246181637 -0.0746165439
vn -0.283076763 -0.39057222 -0.875968516
vn -0.773327351 -0.545835495 -0.322534323
vn -0.222845748 -0.678875744 -0.699619472
vn 0.26486966 -0.406922847 -0.874218404
vn 0.189059392 -0.699837625 -0.688827813
vn 0.938878596 -0.20807296 -0.274249107
vn 0.742856503 -0.591629386 -0.313271523
vn 0.850708961 -0.0242131464 0.525079072
vn 0.486584812 0.0330636501 0.873007417
vn 0.305794418 3.26260988E-07 -0.952097595
vn 0.900475383 0.000740254472 -0.434906304
vn -0.316380113 -1.52785788E-07 -0.948632479
vn 0.926380694 0.00184249401 0.376583874
vn 0.38570556 0.00117766997 0.922621131
vn -0.502761185 0.0278675389 0.863976061
vn -0.85871917 -8.231641E-07 -0.512446404
vn -0.393738687 2.18594266E-07 0.919222414
vn -0.895489573 -0.261132449 -0.360427886
vn -0.944532454 0.000110295892 0.328417957
vn -0.896701336 -0.0528324693 0.439471781
vn -0.618322492 -0.397314847 0.678098977
vn 0.121156976 -0.57514447 0.809030175
vn -0.485066593 -0.689551115 0.53780067
vn -0.889360368 -0.407758087 0.206812561
vn -0.691385329 -0.700091898 0.178487122
vn -0.706945837 -0.208072484 -0.675968528
vn -0.645861447 -0.596107185 -0.476989776
vn 0.0291895568 -0.0235606618 -0.999296188
vn 0.508881867 0.0345636047 -0.860142291
vn -0.977438152 1.16783887E-07 0.211221755
vn -0.8268767 0.000740126066 -0.562382638
vn -0.663353324 -3.36007361E-07 0.748306394
vn -0.137059063 0.00185198686 -0.990561187
vn 0.606150687 0.00118832325 -0.795348942
vn 0.999617815 0.0249199923 -0.0119709205
vn -0.0144341784 -6.6583641E-07 0.999895811
vn 0.992939591 0 -0.118621059
vn 0.138280675 -0.28289175 0.949131548
vn 0.756684899 0.000110333407 0.653779805
vn 0.836333394 -0.0621839128 0.544683099
vn 0.904088557 -0.379750699 0.19599326
vn 0.66228056 -0.538200557 -0.521272123
vn 0.730318785 -0.663128018 0.163998902
vn 0.630035341 -0.393987268 0.669200718
vn 0.506658971 -0.681405842 0.528188229
vn -0.229571849 -0.213817492 0.949515104
vn -0.122510172 -0.58567512 0.801233947
vn -0.869419932 -0.0328123607 0.492982984
vn -0.999380469 0.0238801353 -0.0258539934
vn 0.671643972 1.19891041E-07 0.740874052
vn -0.0736029074 0.000740101212 0.997287393
vn 0.979729772 -2.44402685E-07 0.200323731
vn -0.76589483 0.00181517529 0.64296335
vn -0.995919943 0.00119497604 -0.0902321339
vn -0.504941761 0.0254487451 -0.862778127
vn 0.873154163 -4.20104215E-07 -0.487444162
vn -0.587859094 8.01363276E-05 -0.808963358
vn 0.761634886 -0.26406315 -0.591762483
vn 0.201576889 0.000194308901 -0.979472756
vn 0.0777498782 -0.0570680052 -0.995338202
vn -0.242091686 0.769658804 0.590776563
vn -0.341932625 0.780136883 -0.523897409
vn -0.672480583 0.716348648 -0.186049819
vn -0.549495816 0 0.835496426
vn -0.998063505 0.0117491251 0.0610831566
vn 0.59671241 0.801373124 -0.0416585021
vn 0.579355061 0.0271290913 0.814623713
vn 0.299047828 0.824786007 0.479894221
vn 0.997567713 0.038558457 0.0580667965
vn 0.476522833 0.746078491 -0.46507293
vn -0.450548857 0.0699101985 -0.890010238
vn 0.446162701 0.0676441863 -0.892391801
vn -0.651852429 -0.756308734 -0.0555484146
vn -0.263757229 -0.767518103 0.584250093
vn 0.287005216 -0.791421473 0.539703608
vn -0.391987324 -0.734668374 -0.553722322
vn 0.436295867 -0.718234003 -0.542020321
vn 0.633385479 -0.771534681 -0.059640754
vt 0.339237511 0.367557168
vt 0.332490683 0.361821651
vt 0.331458002 0.363231421
vt 0.339019477 0.36886254
vt 0.330136061 0.37289539
vt 0.339888811 0.37037015
vt 0.330655396 0.37419346
vt 0.34191972 0.370801598
vt 0.343086004 0.370377064
vt 0.339019448 0.367164612
vt 0.339888811 0.368672192
vt 0.339237511 0.36585921
vt 0.341870666 0.368904114
vt 0.343136072 0.367994905
vt 0.343338013 0.368590981
vt 0.340279937 0.364726961
vt 0.343338013 0.366140544
vt 0.340279907 0.366424888
vt 0.342278957 0.364759088
vt 0.342373401 0.366649449
vt 0.301964194 0.383285612
vt 0.311457336 0.381654561
vt 0.310746133 0.380049616
vt 0.300940543 0.382444471
vt 0.302399695 0.373643011
vt 0.299197674 0.382442087
vt 0.301013708 0.373442829
vt 0.298013508 0.384337276
vt 0.298244178 0.386305988
vt 0.300940514 0.380746484
vt 0.299197674 0.380744129
vt 0.301964164 0.381587654
vt 0.298005581 0.382341146
vt 0.298161745 0.383889556
vt 0.299669802 0.387420028
vt 0.302425444 0.383054793
vt 0.299669802 0.384991288
vt 0.302425474 0.38475275
vt 0.301398039 0.384766579
vt 0.301243901 0.386553735
vt 0.306190372 0.344609499
vt 0.30372411 0.353963017
vt 0.305468023 0.354143292
vt 0.307432085 0.344145298
vt 0.314972579 0.350047946
vt 0.308305562 0.342640042
vt 0.315839231 0.348950028
vt 0.307458818 0.341024399
vt 0.306060404 0.340861827
vt 0.307432085 0.34244734
vt 0.308305562 0.340942085
vt 0.306190372 0.342911541
vt 0.30751586 0.339113146
vt 0.306092769 0.338341266
vt 0.304382771 0.341540247
vt 0.304686725 0.342576683
vt 0.304382771 0.339093894
vt 0.304686725 0.34427464
vt 0.30371511 0.34083271
vt 0.303774774 0.342456579
vt 0.342551768 0.369286716
vt 0.305332363 0.342472821
vt 0.306038439 0.341969818
vt 0.343396217 0.368212521
vt 0.306882858 0.340895623
vt 0.299408883 0.386433244
vt 0.34296 0.371359199
vt 0.342334062 0.369890839
vt 0.300034821 0.387901604
vt 0.298975915 0.386237383
vt 0.303848624 0.342131257
vt 0.297492206 0.385895818
vt 0.306038439 0.341680735
vt 0.342551768 0.368997633
vt 0.342357635 0.369888425
vt 0.30484128 0.342118531
vt 0.298484802 0.385883093
vt 0.299432456 0.38643086
g submesh0
f 1/1/1 2/2/2 3/3/3
f 3/3/3 4/4/4 1/1/1
f 4/4/4 3/3/3 5/5/5
f 5/5/5 6/6/6 4/4/4
f 6/6/6 5/5/5 7/7/7
f 6/6/6 7/7/7 8/8/8
f 8/8/8 7/7/7 9/9/9
f 6/6/6 10/10/10 4/4/4
f 10/10/10 6/6/6 11/11/11
f 8/8/8 11/11/11 6/6/6
f 12/12/12 4/4/4 10/10/10
f 4/4/4 12/12/12 1/1/1
f 11/11/11 8/8/8 13/13/13
f 9/9/9 13/13/13 8/8/8
f 13/13/13 9/9/9 14/14/14
f 15/15/15 14/14/14 9/9/9
f 16/16/16 1/1/1 12/12/12
f 14/14/14 15/15/15 17/17/17
f 1/1/1 16/16/16 18/18/18
f 2/2/2 1/1/1 18/18/18
f 19/19/19 18/18/18 16/16/16
f 20/20/20 17/17/17 15/15/15
f 15/15/15 2/2/2 20/20/20
f 17/17/17 20/20/20 19/19/19
f 18/18/18 19/19/19 20/20/20
f 20/20/20 2/2/2 18/18/18
f 21/21/21 22/22/22 23/23/23
f 23/23/23 24/24/24 21/21/21
f 24/24/24 23/23/23 25/25/25
f 25/25/25 26/26/26 24/24/24
f 26/26/26 25/25/25 27/27/27
f 26/26/26 27/27/27 28/28/28
f 28/28/28 27/27/27 29/29/29
f 26/26/26 30/30/30 24/24/24
f 30/30/30 26/26/26 31/31/31
f 28/28/28 31/31/31 26/26/26
f 32/32/32 24/24/24 30/30/30
f 24/24/24 32/32/32 21/21/21
f 31/31/31 28/28/28 33/33/33
f 29/29/29 33/33/33 28/28/28
f 33/33/33 29/29/29 34/34/34
f 35/35/35 34/34/34 29/29/29
f 36/36/36 21/21/21 32/32/32
f 34/34/34 35/35/35 37/37/37
f 21/21/21 36/36/36 38/38/38
f 22/22/22 21/21/21 38/38/38
f 39/39/39 38/38/38 36/36/36
f 40/40/40 37/37/37 35/35/35
f 35/35/35 22/22/22 40/40/40
f 37/37/37 40/40/40 39/39/39
f 38/38/38 39/39/39 40/40/40
f 40/40/40 22/22/22 38/38/38
f 41/41/41 42/42/42 43/43/43
f 43/43/43 44/44/44 41/41/41
f 44/44/44 43/43/43 45/45/45
f 45/45/45 46/46/46 44/44/44
f 46/46/46 45/45/45 47/47/47
f 46/46/46 47/47/47 48/48/48
f 48/48/48 47/47/47 49/49/49
f 46/46/46 50/50/50 44/44/44
f 50/50/50 46/46/46 51/51/51
f 48/48/48 51/51/51 46/46/46
f 52/52/52 44/44/44 50/50/50
f 44/44/44 52/52/52 41/41/41
f 51/51/51 48/48/48 53/53/53
f 49/49/49 53/53/53 48/48/48
f 53/53/53 49/49/49 54/54/54
f 55/55/55 54/54/54 49/49/49
f 56/56/56 41/41/41 52/52/52
f 54/54/54 55/55/55 57/57/57
f 41/41/41 56/56/56 58/58/58
f 42/42/42 41/41/41 58/58/58
f 59/59/59 58/58/58 56/56/56
f 60/60/60 57/57/57 55/55/55
f 55/55/55 42/42/42 60/60/60
f 57/57/57 60/60/60 59/59/59
f 58/58/58 59/59/59 60/60/60
f 60/60/60 42/42/42 58/58/58
f 61/61/61 62/62/62 63/63/63
f 63/63/63 64/64/64 61/61/61
f 62/62/62 65/65/65 63/63/63
f 64/64/64 63/63/63 65/65/65
f 61/61/61 66/66/66 62/62/62
f 67/67/67 61/61/61 64/64/64
f 68/68/68 66/66/66 61/61/61
f 61/61/61 67/67/67 68/68/68
f 68/68/68 69/69/69 66/66/66
f 69/69/69 68/68/68 67/67/67
f 62/62/62 66/66/66 70/70/70
f 70/70/70 71/71/71 62/62/62
f 65/65/65 62/62/62 71/71/71
f 66/66/66 72/72/72 70/70/70
f 72/72/72 66/66/66 69/69/69
f 71/71/71 70/70/70 72/72/72
f 73/73/73 64/64/64 65/65/65
f 74/74/74 67/67/67 64/64/64
f 64/64/64 73/73/73 74/74/74
f 67/67/67 74/74/74 75/75/75
f 75/75/75 69/69/69 67/67/67
f 73/73/73 75/75/75 74/74/74
f 76/76/76 65/65/65 71/71/71
f 65/65/65 76/76/76 73/73/73
f 71/71/71 77/77/77 76/76/76
f 77/77/77 73/73/73 76/76/76
f 77/77/77 71/71/71 72/72/72
f 77/77/77 75/75/75 73/73/73
f 69/69/69 75/75/75 78/78/78
f 78/78/78 72/72/72 69/69/69
f 78/78/78 75/75/75 77/77/77
f 72/72/72 78/78/78 77/77/77
