# foundation.triangle.collision
v 1.36990297 6.10351549E-07 0.00847228989
v 1.36990428 -2.99999928 0.00847167987
v 1.11990428 -2.99999928 0.00847167987
v 1.11990297 6.10351549E-07 0.00847228989
v 1.11990297 6.10351549E-07 0.00847228989
v 1.11990428 -2.99999928 0.00847167987
v 1.1199044 -2.99999928 0.258471668
v 1.11990309 6.10351549E-07 0.258472294
v 1.1199044 -2.99999928 0.258471668
v 1.36990297 6.10351549E-07 0.258472294
v 1.11990309 6.10351549E-07 0.258472294
v 1.36990428 -2.99999928 0.258471668
v 1.36990428 -2.99999928 0.258471668
v 1.36990297 6.10351549E-07 0.00847228989
v 1.36990297 6.10351549E-07 0.258472294
v 1.36990428 -2.99999928 0.00847167987
v 1.1199044 -2.99999928 0.258471668
v 1.36990428 -2.99999928 0.00847167987
v 1.36990428 -2.99999928 0.258471668
v 1.11990428 -2.99999928 0.00847167987
v 1.36990297 6.10351549E-07 0.00847228989
v 1.11990297 6.10351549E-07 0.00847228989
v 1.11990309 6.10351549E-07 0.258472294
v 1.36990297 6.10351549E-07 0.258472294
v -1.36564207 -3.00000024 0.0084713744
v -1.36564302 -6.10351549E-07 0.258472592
v -1.36564302 -3.05175774E-07 0.00847289991
v -1.36564207 -3.00000024 0.25847137
v -1.36564302 -6.10351549E-07 0.258472592
v -1.36564207 -3.00000024 0.25847137
v -1.11564207 -3.00000024 0.25847137
v -1.11564314 -3.05175774E-07 0.25847289
v -1.11564314 -3.05175774E-07 0.25847289
v -1.11564207 -3.00000024 0.25847137
v -1.11564207 -3.00000024 0.0084713744
v -1.11564314 0 0.00847289991
v -1.11564207 -3.00000024 0.0084713744
v -1.36564302 -3.05175774E-07 0.00847289991
v -1.11564314 0 0.00847289991
v -1.36564207 -3.00000024 0.0084713744
v -1.11564207 -3.00000024 0.25847137
v -1.36564207 -3.00000024 0.25847137
v -1.36564207 -3.00000024 0.0084713744
v -1.11564207 -3.00000024 0.0084713744
v -1.11564314 0 0.00847289991
v -1.36564302 -3.05175774E-07 0.00847289991
v -1.36564302 -6.10351549E-07 0.258472592
v -1.11564314 -3.05175774E-07 0.25847289
v -0.1767575 -3.00000095 2.32072663
v 1.83105458E-05 -9.15527323E-07 2.49750376
v -0.176758423 -9.15527323E-07 2.32072687
v 1.93786618E-05 -3.00000048 2.49750352
v 1.83105458E-05 -9.15527323E-07 2.49750376
v 1.93786618E-05 -3.00000048 2.49750352
v 0.176796034 -3.00000048 2.32072687
v 0.176795036 -6.10351549E-07 2.32072711
v 0.176796034 -3.00000048 2.32072687
v 1.83105458E-05 -6.10351549E-07 2.14395022
v 0.176795036 -6.10351549E-07 2.32072711
v 1.92260741E-05 -3.00000048 2.14394999
v 1.92260741E-05 -3.00000048 2.14394999
v -0.176758423 -9.15527323E-07 2.32072687
v 1.83105458E-05 -6.10351549E-07 2.14395022
v -0.1767575 -3.00000095 2.32072663
v 1.92260741E-05 -3.00000048 2.14394999
v 0.176796034 -3.00000048 2.32072687
v 1.93786618E-05 -3.00000048 2.49750352
v -0.1767575 -3.00000095 2.32072663
v 1.83105458E-05 -9.15527323E-07 2.49750376
v 0.176795036 -6.10351549E-07 2.32072711
v 1.83105458E-05 -6.10351549E-07 2.14395022
v -0.176758423 -9.15527323E-07 2.32072687
v -1.3390286 -0.074873656 0.213626698
v -1.20912504 -0.0748733506 0.13862671
v -1.20912504 -0.224873349 0.138626397
v -1.33902824 -0.224873647 0.213626698
v -0.0890280157 -0.074874267 2.37869143
v 0.0408758521 -0.22487396 2.30369163
v 0.0408758521 -0.0748739615 2.30369163
v -0.0890278593 -0.224874258 2.37869143
v -1.33902824 -0.224873647 0.213626698
v -1.20912504 -0.224873349 0.138626397
v 0.0408758521 -0.22487396 2.30369163
v -0.0890278593 -0.224874258 2.37869143
v -0.0890280157 -0.074874267 2.37869143
v -1.3390286 -0.074873656 0.213626698
v -1.33902824 -0.224873647 0.213626698
v -0.0890278593 -0.224874258 2.37869143
v -1.20912504 -0.0748733506 0.13862671
v -1.3390286 -0.074873656 0.213626698
v -0.0890280157 -0.074874267 2.37869143
v 0.0408758521 -0.0748739615 2.30369163
v -1.20912504 -0.224873349 0.138626397
v -1.20912504 -0.0748733506 0.13862671
v 0.0408758521 -0.22487396 2.30369163
v 0.0408758521 -0.0748739615 2.30369163
v -1.31485808 -0.074873656 0.0584777817
v -1.31485808 -0.224873647 0.0584774762
v -1.31485772 -0.224873647 0.208477467
v -1.31485808 -0.074873656 0.20847778
v 1.18514323 -0.0748733506 0.20847778
v 1.18514323 -0.224873349 0.0584777817
v 1.18514323 -0.0748733506 0.0584777817
v 1.18514323 -0.224873349 0.20847778
v -1.31485772 -0.224873647 0.208477467
v -1.31485808 -0.224873647 0.0584774762
v 1.18514323 -0.224873349 0.0584777817
v 1.18514323 -0.224873349 0.20847778
v 1.18514323 -0.0748733506 0.20847778
v -1.31485808 -0.074873656 0.20847778
v -1.31485772 -0.224873647 0.208477467
v 1.18514323 -0.224873349 0.20847778
v 1.18514323 -0.0748733506 0.0584777817
v -1.31485808 -0.074873656 0.0584777817
v -1.31485808 -0.074873656 0.20847778
v 1.18514323 -0.0748733506 0.20847778
v -1.31485808 -0.224873647 0.0584774762
v -1.31485808 -0.074873656 0.0584777817
v 1.18514323 -0.224873349 0.0584777817
v 1.18514323 -0.0748733506 0.0584777817
v 1.2508738 -0.0748733506 0.0742346197
v 1.38077712 -0.0748733506 0.149234623
v 1.380777 -0.224873349 0.149234623
v 1.25087357 -0.224873349 0.0742346197
v 0.130776972 -0.074873656 2.31429982
v 0.000873107871 -0.074873656 2.23929977
v 0.000873107871 -0.224873647 2.23929977
v 0.130777046 -0.224873647 2.31429982
v 0.000873107871 -0.224873647 2.23929977
v 1.25087357 -0.224873349 0.0742346197
v 1.380777 -0.224873349 0.149234623
v 0.130777046 -0.224873647 2.31429982
v 0.000873107871 -0.074873656 2.23929977
v 1.2508738 -0.0748733506 0.0742346197
v 1.25087357 -0.224873349 0.0742346197
v 0.000873107871 -0.224873647 2.23929977
v 1.38077712 -0.0748733506 0.149234623
v 1.2508738 -0.0748733506 0.0742346197
v 0.000873107871 -0.074873656 2.23929977
v 0.130776972 -0.074873656 2.31429982
v 1.380777 -0.224873349 0.149234623
v 1.38077712 -0.0748733506 0.149234623
v 0.130776972 -0.074873656 2.31429982
v 0.130777046 -0.224873647 2.31429982
vn 0 2.38418522E-07 -1
vn 0 2.38418522E-07 -1
vn 0 2.38418522E-07 -1
vn 0 2.38418522E-07 -1
vn -1 -4.37113982E-07 0
vn -1 -4.37113982E-07 0
vn -1 -4.37113982E-07 0
vn -1 -4.37113982E-07 0
vn 0 -2.38418522E-07 1
vn 0 -2.38418522E-07 1
vn 0 -2.38418522E-07 1
vn 0 -2.38418522E-07 1
vn 1 4.37113982E-07 0
vn 1 4.37113982E-07 0
vn 1 4.37113982E-07 0
vn 1 4.37113982E-07 0
vn 4.37113954E-07 -1 -1.50995746E-07
vn 4.37113954E-07 -1 -1.50995746E-07
vn 4.37113954E-07 -1 -1.50995746E-07
vn 4.37113954E-07 -1 -1.50995746E-07
vn -4.37113954E-07 1 2.38418465E-07
vn -4.37113954E-07 1 2.38418465E-07
vn -4.37113954E-07 1 2.38418465E-07
vn -4.37113954E-07 1 2.38418465E-07
vn -1 -3.35388734E-07 0
vn -1 -3.35388734E-07 0
vn -1 -3.35388734E-07 0
vn -1 -3.35388734E-07 0
vn -2.17752969E-07 -4.67300481E-07 1
vn -2.1775287E-07 -4.67300481E-07 1
vn -2.1775287E-07 -4.67300481E-07 1
vn -2.17752969E-07 -4.67300481E-07 1
vn 1 3.60819854E-07 2.17752856E-07
vn 1 3.60819854E-07 2.17752827E-07
vn 1 3.60819854E-07 2.17752827E-07
vn 1 3.60819854E-07 2.17752856E-07
vn 0 4.92731715E-07 -1
vn 0 4.92731715E-07 -1
vn 0 4.92731715E-07 -1
vn 0 4.92731715E-07 -1
vn 4.37113982E-07 -1 -4.76836988E-07
vn 4.37113982E-07 -1 -4.76837045E-07
vn 4.37113925E-07 -1 -4.76837045E-07
vn 4.37113925E-07 -1 -4.76836988E-07
vn -4.3711384E-07 1 1.45912156E-06
vn -4.3711384E-07 1 1.45912202E-06
vn -4.3711421E-07 1 1.45912202E-06
vn -4.3711421E-07 1 1.45912156E-06
vn -0.707106888 -2.97847151E-07 0.70710665
vn -0.707106888 -2.97847151E-07 0.70710665
vn -0.707106888 -2.97847151E-07 0.70710665
vn -0.707106888 -2.97847151E-07 0.70710665
vn 0.70710665 1.76464155E-07 0.707106829
vn 0.70710665 1.76464155E-07 0.707106888
vn 0.70710665 1.76464155E-07 0.707106829
vn 0.70710665 1.76464155E-07 0.707106888
vn 0.707106888 2.97847151E-07 -0.70710665
vn 0.707106948 2.88855745E-07 -0.70710659
vn 0.707106888 2.97847123E-07 -0.70710659
vn 0.707106888 2.8885583E-07 -0.70710665
vn -0.70710665 -1.85455477E-07 -0.707106888
vn -0.707106829 -1.76464212E-07 -0.707106769
vn -0.707106829 -1.85455562E-07 -0.707106769
vn -0.70710665 -1.76464155E-07 -0.707106888
vn 4.91519529E-07 -1 -2.12401787E-07
vn 4.91519586E-07 -1 -2.12401844E-07
vn 4.91519529E-07 -1 -2.12401901E-07
vn 4.91519472E-07 -1 -2.12401858E-07
vn -4.37113954E-07 1 2.38418465E-07
vn -4.37113954E-07 1 2.38418465E-07
vn -4.37113954E-07 1 2.38418465E-07
vn -4.37113954E-07 1 2.38418465E-07
vn -0.500001609 0 -0.866024554
vn -0.500001609 0 -0.866024554
vn -0.500001609 0 -0.866024554
vn -0.500001609 0 -0.866024554
vn 0.499999166 0 0.866025865
vn 0.499999523 -4.28403354E-07 0.866025686
vn 0.499999166 -4.28403581E-07 0.866025865
vn 0.499999523 0 0.866025686
vn 3.15043337E-07 -1 -4.4985012E-07
vn 3.15043337E-07 -1 -4.49850063E-07
vn 3.15043849E-07 -1 -4.49850376E-07
vn 3.15043849E-07 -1 -4.49850404E-07
vn -0.866025448 -4.9776105E-07 0.499999911
vn -0.866025448 -4.9776105E-07 0.499999911
vn -0.866025448 -4.9776105E-07 0.499999911
vn -0.866025448 -4.9776105E-07 0.499999911
vn -3.15043337E-07 1 4.49850063E-07
vn -3.15043337E-07 1 4.4985012E-07
vn -3.15043906E-07 1 4.49850461E-07
vn -3.15043934E-07 1 4.49850404E-07
vn 0.866025448 4.9776105E-07 -0.499999911
vn 0.866025448 4.9776105E-07 -0.499999911
vn 0.866025448 7.52074129E-07 -0.499999911
vn 0.866025448 7.52074129E-07 -0.499999911
vn -1 -4.37113982E-07 0
vn -1 -4.37113982E-07 0
vn -1 -4.37113982E-07 0
vn -1 -4.37113982E-07 0
vn 1 4.37113982E-07 0
vn 1 4.37113982E-07 0
vn 1 4.37113982E-07 0
vn 1 4.37113982E-07 0
vn 0 -1 -2.38418437E-07
vn 0 -1 -2.38418437E-07
vn 0 -1 -2.38418437E-07
vn 0 -1 -2.38418437E-07
vn 0 -2.38418608E-07 1
vn 0 -2.38418608E-07 1
vn 0 -2.38418608E-07 1
vn 0 -2.38418608E-07 1
vn 0 1 2.38418437E-07
vn 0 1 2.38418437E-07
vn 0 1 2.38418437E-07
vn 0 1 2.38418437E-07
vn 1.5671759E-07 2.38418636E-07 -1
vn 1.5671759E-07 2.38418636E-07 -1
vn 1.5671759E-07 2.38418636E-07 -1
vn 1.5671759E-07 2.38418636E-07 -1
vn 0.500002205 -5.92223159E-07 -0.866024077
vn 0.500002205 0 -0.866024077
vn 0.500001848 0 -0.866024375
vn 0.500001848 -5.92222477E-07 -0.866024375
vn -0.500000536 -4.25033676E-07 0.86602515
vn -0.500000536 -4.25033676E-07 0.86602515
vn -0.500000536 -4.25033676E-07 0.86602515
vn -0.500000536 -4.25033676E-07 0.86602515
vn 3.15043593E-07 -1 0
vn 3.1504328E-07 -1 0
vn 3.15043252E-07 -1 0
vn 3.15043593E-07 -1 0
vn -0.866025448 -2.59342556E-07 -0.499999911
vn -0.866025448 1.50259075E-06 -0.499999911
vn -0.866025507 1.50259098E-06 -0.499999851
vn -0.866025507 -2.59342613E-07 -0.499999791
vn -3.15043138E-07 1 0
vn -3.15043167E-07 1 0
vn -3.15043593E-07 1 0
vn -3.15043593E-07 1 0
vn 0.866025627 -6.21624167E-07 0.499999762
vn 0.866025507 -6.21624167E-07 0.499999732
vn 0.866025627 2.5934267E-07 0.499999762
vn 0.866025627 2.5934267E-07 0.499999762
vt 1.00047982 0.916536033
vt 0.00147975981 0.916536033
vt 0.00147977471 1.0001781
vt 1.00047982 1.0001781
vt 1.99983954 0.75016731
vt 0.00147975865 0.75016731
vt 0.00147975865 0.916536033
vt 1.99983954 0.916536033
vt 0.00147977471 0.916536033
vt 1.00047982 1.0001781
vt 1.00047982 0.916536033
vt 0.00147977471 1.0001781
vt 0.000219028632 0.75016731
vt 2.00018787 0.916125655
vt 2.00018787 0.75016731
vt 0.000219028632 0.916125655
vt 0.51785773 0.710092247
vt 0.731596172 0.540357649
vt 0.51785773 0.540357649
vt 0.731596172 0.710092247
vt 0.51785773 0.54014343
vt 0.51785773 0.709878206
vt 0.731596172 0.709878206
vt 0.731596172 0.54014343
vt 0.00147975981 0.916536033
vt 1.00047982 1.0001781
vt 1.00047982 0.916536033
vt 0.00147977471 1.0001781
vt 1.99983954 0.75016731
vt 0.00147975865 0.75016731
vt 0.00147975865 0.916536033
vt 1.99983954 0.916536033
vt 1.00047982 0.916536033
vt 0.00147977471 0.916536033
vt 0.00147977471 1.0001781
vt 1.00047982 1.0001781
vt 0.000219028632 0.75016731
vt 2.00018787 0.916125655
vt 2.00018787 0.75016731
vt 0.000219028632 0.916125655
vt 0.51785773 0.710092247
vt 0.731596172 0.710092247
vt 0.731596172 0.540357649
vt 0.51785773 0.540357649
vt 0.731596172 0.54014343
vt 0.51785773 0.54014343
vt 0.51785773 0.709878206
vt 0.731596172 0.709878206
vt 0.00147975981 0.916536033
vt 1.00047982 1.0001781
vt 1.00047982 0.916536033
vt 0.00147977471 1.0001781
vt 1.99983954 0.75016731
vt 0.00147975865 0.75016731
vt 0.00147975865 0.916536033
vt 1.99983954 0.916536033
vt 0.00147977471 0.916536033
vt 1.00047982 1.0001781
vt 1.00047982 0.916536033
vt 0.00147977471 1.0001781
vt 0.000219028632 0.75016731
vt 2.00018787 0.916125655
vt 2.00018787 0.75016731
vt 0.000219028632 0.916125655
vt 0.51785773 0.540357649
vt 0.51785773 0.710092247
vt 0.731596172 0.710092247
vt 0.731596172 0.540357649
vt 0.51785773 0.709878206
vt 0.731596172 0.709878206
vt 0.731596172 0.54014343
vt 0.51785773 0.54014343
vt 0.229857981 0.00225068978
vt 0.00363278389 0.00225068978
vt 0.00363278389 0.166061938
vt 0.229857981 0.166061938
vt 0.228632271 0.166061938
vt 0.00240707397 0.00225068978
vt 0.00240707397 0.166061938
vt 0.228632271 0.00225068978
vt 0.000120431185 0.917233169
vt 0.000120431185 0.999177694
vt 0.999120474 0.999177694
vt 0.999120474 0.917233169
vt 0.999120474 0.917233169
vt 0.000120431185 0.917233169
vt 0.000120431185 0.999177694
vt 0.999120474 0.999177694
vt 0.000120431185 0.917233169
vt 0.000120431185 0.999177694
vt 0.999120474 0.999177694
vt 0.999120474 0.917233169
vt 0.000120431185 0.917233169
vt 0.000120431185 0.999177694
vt 0.999120474 0.917233169
vt 0.999120474 0.999177694
vt 0.00363278389 0.00225068978
vt 0.00363278389 0.166061938
vt 0.229857981 0.166061938
vt 0.229857981 0.00225068978
vt 0.228632271 0.166061938
vt 0.00240707397 0.00225068978
vt 0.00240707397 0.166061938
vt 0.228632271 0.00225068978
vt 0.000120431185 0.917233169
vt 0.000120431185 0.999177694
vt 0.999120474 0.999177694
vt 0.999120474 0.917233169
vt 0.999120474 0.917233169
vt 0.000120431185 0.917233169
vt 0.000120431185 0.999177694
vt 0.999120474 0.999177694
vt 0.999120474 0.917233169
vt 0.000120431185 0.917233169
vt 0.000120431185 0.999177694
vt 0.999120474 0.999177694
vt 0.000120431185 0.917233169
vt 0.000120431185 0.999177694
vt 0.999120474 0.917233169
vt 0.999120474 0.999177694
vt 0.229857981 0.00225068978
vt 0.00363278389 0.00225068978
vt 0.00363278389 0.166061938
vt 0.229857981 0.166061938
vt 0.00240707397 0.166061938
vt 0.228632271 0.166061938
vt 0.228632271 0.00225068978
vt 0.00240707397 0.00225068978
vt 0.999120474 0.917233169
vt 0.000120431185 0.917233169
vt 0.000120431185 0.999177694
vt 0.999120474 0.999177694
vt 0.999120474 0.917233169
vt 0.000120431185 0.917233169
vt 0.000120431185 0.999177694
vt 0.999120474 0.999177694
vt 0.000120431185 0.917233169
vt 0.000120431185 0.999177694
vt 0.999120474 0.999177694
vt 0.999120474 0.917233169
vt 0.000120431185 0.917233169
vt 0.000120431185 0.999177694
vt 0.999120474 0.999177694
vt 0.999120474 0.917233169
g submesh0
f 1/1/1 2/2/2 3/3/3
f 3/3/3 4/4/4 1/1/1
f 5/5/5 6/6/6 7/7/7
f 7/7/7 8/8/8 5/5/5
f 9/9/9 10/10/10 11/11/11
f 10/10/10 9/9/9 12/12/12
f 13/13/13 14/14/14 15/15/15
f 14/14/14 13/13/13 16/16/16
f 17/17/17 18/18/18 19/19/19
f 17/17/17 20/20/20 18/18/18
f 21/21/21 22/22/22 23/23/23
f 23/23/23 24/24/24 21/21/21
f 25/25/25 26/26/26 27/27/27
f 26/26/26 25/25/25 28/28/28
f 29/29/29 30/30/30 31/31/31
f 31/31/31 32/32/32 29/29/29
f 33/33/33 34/34/34 35/35/35
f 35/35/35 36/36/36 33/33/33
f 37/37/37 38/38/38 39/39/39
f 38/38/38 37/37/37 40/40/40
f 41/41/41 42/42/42 43/43/43
f 43/43/43 44/44/44 41/41/41
f 45/45/45 46/46/46 47/47/47
f 47/47/47 48/48/48 45/45/45
f 49/49/49 50/50/50 51/51/51
f 50/50/50 49/49/49 52/52/52
f 53/53/53 54/54/54 55/55/55
f 55/55/55 56/56/56 53/53/53
f 57/57/57 58/58/58 59/59/59
f 58/58/58 57/57/57 60/60/60
f 61/61/61 62/62/62 63/63/63
f 62/62/62 61/61/61 64/64/64
f 65/65/65 66/66/66 67/67/67
f 67/67/67 68/68/68 65/65/65
f 69/69/69 70/70/70 71/71/71
f 71/71/71 72/72/72 69/69/69
f 73/73/73 74/74/74 75/75/75
f 75/75/75 76/76/76 73/73/73
f 77/77/77 78/78/78 79/79/79
f 77/77/77 80/80/80 78/78/78
f 81/81/81 82/82/82 83/83/83
f 83/83/83 84/84/84 81/81/81
f 85/85/85 86/86/86 87/87/87
f 87/87/87 88/88/88 85/85/85
f 89/89/89 90/90/90 91/91/91
f 91/91/91 92/92/92 89/89/89
f 93/93/93 94/94/94 95/95/95
f 96/96/96 95/95/95 94/94/94
f 97/97/97 98/98/98 99/99/99
f 99/99/99 100/100/100 97/97/97
f 101/101/101 102/102/102 103/103/103
f 101/101/101 104/104/104 102/102/102
f 105/105/105 106/106/106 107/107/107
f 107/107/107 108/108/108 105/105/105
f 109/109/109 110/110/110 111/111/111
f 111/111/111 112/112/112 109/109/109
f 113/113/113 114/114/114 115/115/115
f 115/115/115 116/116/116 113/113/113
f 117/117/117 118/118/118 119/119/119
f 120/120/120 119/119/119 118/118/118
f 121/121/121 122/122/122 123/123/123
f 123/123/123 124/124/124 121/121/121
f 125/125/125 126/126/126 127/127/127
f 127/127/127 128/128/128 125/125/125
f 129/129/129 130/130/130 131/131/131
f 131/131/131 132/132/132 129/129/129
f 133/133/133 134/134/134 135/135/135
f 135/135/135 136/136/136 133/133/133
f 137/137/137 138/138/138 139/139/139
f 139/139/139 140/140/140 137/137/137
f 141/141/141 142/142/142 143/143/143
f 143/143/143 144/144/144 141/141/141
