# gate.wall.wood_COL
v 2.25405192 6.36815071 0.264493525
v 2.6648798 6.36815071 0.264493525
v 2.45946598 6.63443041 -0.00250644679
v 0.35773772 6.36815071 0.264493525
v 0.790992081 6.36815071 0.264493525
v 0.574364901 6.63443041 -0.00250644679
v 2.45946598 6.63443041 -0.00250644679
v 2.6648798 6.36815071 -0.269506484
v 2.25405192 6.36815071 -0.269506484
v 0.574364901 6.63443041 -0.00250644679
v 0.790992081 6.36815071 -0.269506484
v 0.35773772 6.36815071 -0.269506484
v 3.56898785 4.7104578 0.264493436
v 3.56898785 4.7104578 -0.269506574
v 3.44834709 6.63442993 -0.00250638952
v 2.25405192 6.36815071 0.264493525
v 2.45946598 6.63443041 -0.00250644679
v 2.25405192 6.36815071 -0.269506484
v 2.6648798 6.36815071 0.264493525
v 2.6648798 6.36815071 -0.269506484
v 2.45946598 6.63443041 -0.00250644679
v 0.35773772 6.36815071 0.264493525
v 0.574364901 6.63443041 -0.00250644679
v 0.35773772 6.36815071 -0.269506484
v 0.790992081 6.36815071 0.264493525
v 0.790992081 6.36815071 -0.269506484
v 0.574364901 6.63443041 -0.00250644679
v -2.21268725 6.36815071 0.264493525
v -2.41810107 6.63443041 -0.00250644679
v -2.62351489 6.36815071 0.264493525
v -0.316372991 6.36815071 0.264493525
v -0.533000171 6.63443041 -0.00250644679
v -0.749627352 6.36815071 0.264493525
v -2.62351489 6.36815071 -0.269506484
v -2.41810107 6.63443041 -0.00250644679
v -2.21268725 6.36815071 -0.269506484
v -0.749627352 6.36815071 -0.269506484
v -0.533000171 6.63443041 -0.00250644679
v -0.316372991 6.36815071 -0.269506484
v -3.52762318 4.7104578 0.264493436
v -3.40227604 6.63442993 -0.00250638952
v -3.52762318 4.7104578 -0.269506574
v -2.41810107 6.63443041 -0.00250644679
v -2.21268725 6.36815071 0.264493525
v -2.21268725 6.36815071 -0.269506484
v -2.62351489 6.36815071 0.264493525
v -2.41810107 6.63443041 -0.00250644679
v -2.62351489 6.36815071 -0.269506484
v -0.533000171 6.63443041 -0.00250644679
v -0.316372991 6.36815071 0.264493525
v -0.316372991 6.36815071 -0.269506484
v -0.749627352 6.36815071 0.264493525
v -0.533000171 6.63443041 -0.00250644679
v -0.749627352 6.36815071 -0.269506484
v 3.04995346 5.7889905 -0.419188529
v 4.01821852 5.7889905 0.482891172
v 4.03129196 5.7889905 -0.426542431
v 3.04505062 5.7889905 0.506587148
v 2.83844972 5.36785555 -0.399121493
v 3.04505062 5.7889905 0.506587148
v 3.04995346 5.7889905 -0.419188529
v 2.83844972 5.36785555 0.530456364
v 2.83844972 -0.57235074 0.530456066
v 2.83844972 -0.57235074 -0.399121851
v 3.04259992 -0.57235074 0.683073401
v 3.05449247 5.36785555 -0.63300246
v 3.04995346 5.7889905 -0.419188529
v 3.05449247 -0.57235074 -0.633002698
v 3.04259992 5.36785555 0.68307364
v 3.04505062 5.7889905 0.506587148
v 4.01974678 -0.57235074 0.683073401
v 4.01821852 5.7889905 0.482891172
v 4.0316391 5.36785555 -0.63300246
v 4.03129196 5.7889905 -0.426542431
v 4.0316391 -0.57235074 -0.633002698
v 4.24173594 5.36785555 -0.416959912
v 4.24173594 -0.57235074 -0.41696021
v 4.01974678 5.36785555 0.68307364
v 4.22191525 -0.57235074 0.472976834
v 4.22191525 5.36785555 0.472977161
v 4.24173594 -0.57235074 -0.41696021
v 4.24173594 5.36785555 -0.416959912
v 4.03129196 5.7889905 -0.426542431
v 4.01821852 5.7889905 0.482891172
v -3.04995346 5.7889905 -0.419188529
v -4.01821852 5.7889905 0.482891172
v -3.04505062 5.7889905 0.506587148
v -4.03129196 5.7889905 -0.426542431
v -3.04505062 5.7889905 0.506587148
v -2.83844972 5.36785555 -0.399121493
v -3.04995346 5.7889905 -0.419188529
v -2.83844972 5.36785555 0.530456364
v -2.83844972 -0.57235074 0.530456066
v -3.04259992 -0.57235074 0.683073401
v -2.83844972 -0.57235074 -0.399121851
v -3.04259992 5.36785555 0.68307364
v -3.04505062 5.7889905 0.506587148
v -4.01974678 -0.57235074 0.683073401
v -4.01821852 5.7889905 0.482891172
v -3.05449271 5.36785555 -0.63300246
v -3.05449271 -0.57235074 -0.633002698
v -3.04995346 5.7889905 -0.419188529
v -4.01974678 5.36785555 0.68307364
v -4.22191525 -0.57235074 0.472976834
v -4.22191525 5.36785555 0.472977161
v -4.24173594 -0.57235074 -0.41696021
v -4.24173594 5.36785555 -0.416959912
v -4.03129196 5.7889905 -0.426542431
v -4.01821852 5.7889905 0.482891172
v -4.0316391 5.36785555 -0.63300246
v -4.03129196 5.7889905 -0.426542431
v -4.0316391 -0.57235074 -0.633002698
v -4.24173594 5.36785555 -0.416959912
v -4.24173594 -0.57235074 -0.41696021
v 3.04259992 -0.57235074 0.683073401
v 4.22191525 -0.57235074 0.472976834
v 4.01974678 -0.57235074 0.683073401
v 2.83844972 -0.57235074 -0.399121851
v 2.83844972 -0.57235074 0.530456066
v 4.0316391 -0.57235074 -0.633002698
v 4.24173594 -0.57235074 -0.41696021
v 3.05449247 -0.57235074 -0.633002698
v -2.83844972 -0.57235074 -0.399121851
v -4.0316391 -0.57235074 -0.633002698
v -3.05449271 -0.57235074 -0.633002698
v -4.22191525 -0.57235074 0.472976834
v -4.24173594 -0.57235074 -0.41696021
v -3.04259992 -0.57235074 0.683073401
v -2.83844972 -0.57235074 0.530456066
v -4.01974678 -0.57235074 0.683073401
v 0.35773772 6.09413767 -0.269506425
v 0.790992081 5.28304195 -0.269506454
v 0.35773772 5.27919102 -0.269506454
v 0.790992081 6.09413767 -0.269506425
v 0.790992081 6.36815071 -0.269506484
v 2.25405192 6.09413767 -0.269506425
v 0.35773772 6.36815071 -0.269506484
v -0.316372991 6.09413767 -0.269506425
v -0.316372991 6.36815071 -0.269506484
v 2.25405192 6.36815071 -0.269506484
v -0.749627352 6.36815071 -0.269506484
v 2.6648798 6.09413767 -0.269506425
v 2.6648798 6.36815071 -0.269506484
v 2.6648798 5.30236149 -0.269506454
v 2.99308276 6.09413767 -0.269506425
v 2.99308276 6.36815071 -0.269506484
v 3.44834709 6.63442993 -0.00250638952
v 3.56898785 4.7104578 -0.269506574
v 2.99308276 5.29437876 -0.269506454
v 2.25405192 5.29827642 -0.269506454
v -3.52762318 4.7104578 -0.269506574
v -0.749627352 5.28304195 -0.269506454
v -2.21268725 5.29827642 -0.269506454
v -2.62351489 5.30236149 -0.269506454
v -2.21268725 6.09413767 -0.269506425
v -2.95171809 5.29437876 -0.269506454
v -2.95171809 6.09413767 -0.269506425
v -3.40227604 6.63442993 -0.00250638952
v -2.95171809 6.36815071 -0.269506484
v -2.62351489 6.36815071 -0.269506484
v -2.62351489 6.09413767 -0.269506425
v -2.21268725 6.36815071 -0.269506484
v -0.749627352 6.09413767 -0.269506425
v -0.316372991 5.27919102 -0.269506454
v 2.99308276 6.09413767 -0.269506425
v 2.6648798 6.09413767 0.264493585
v 2.6648798 6.09413767 -0.269506425
v 2.99308276 6.09413767 0.264493585
v 2.99308276 6.36815071 0.264493525
v 2.6648798 6.36815071 -0.269506484
v 2.6648798 6.36815071 0.264493525
v 2.99308276 6.36815071 -0.269506484
v 3.44834709 6.63442993 -0.00250638952
v 0.35773772 5.27919102 -0.269506454
v 0.35773772 6.09413767 0.264493585
v 0.35773772 6.09413767 -0.269506425
v 0.35773772 5.27919102 0.264493555
v 0.790992081 6.09413767 -0.269506425
v 0.790992081 5.28304195 0.264493555
v 0.790992081 5.28304195 -0.269506454
v 0.790992081 6.09413767 0.264493585
v 2.25405192 5.29827642 -0.269506454
v 2.25405192 6.09413767 0.264493585
v 2.25405192 6.09413767 -0.269506425
v 2.25405192 5.29827642 0.264493555
v 2.6648798 6.09413767 -0.269506425
v 2.6648798 5.30236149 0.264493555
v 2.6648798 5.30236149 -0.269506454
v 2.6648798 6.09413767 0.264493585
v 2.25405192 6.09413767 -0.269506425
v 0.790992081 6.09413767 0.264493585
v 0.790992081 6.09413767 -0.269506425
v 2.25405192 6.09413767 0.264493585
v 0.790992081 6.36815071 -0.269506484
v 2.25405192 6.36815071 0.264493525
v 2.25405192 6.36815071 -0.269506484
v 0.790992081 6.36815071 0.264493525
v -0.316372991 6.36815071 0.264493525
v 0.35773772 6.36815071 -0.269506484
v -0.316372991 6.36815071 -0.269506484
v 0.35773772 6.36815071 0.264493525
v 2.99308276 5.29437876 -0.269506454
v 2.99308276 6.09413767 0.264493585
v 2.99308276 6.09413767 -0.269506425
v 2.99308276 5.29437876 0.264493555
v 2.6648798 5.30236149 -0.269506454
v 2.99308276 5.29437876 0.264493555
v 2.99308276 5.29437876 -0.269506454
v 2.6648798 5.30236149 0.264493555
v 0.790992081 5.28304195 -0.269506454
v 2.25405192 5.29827642 0.264493555
v 2.25405192 5.29827642 -0.269506454
v 0.790992081 5.28304195 0.264493555
v -2.95171809 6.09413767 -0.269506425
v -2.62351489 6.09413767 0.264493585
v -2.95171809 6.09413767 0.264493585
v -2.62351489 6.09413767 -0.269506425
v -2.62351489 6.36815071 -0.269506484
v -2.95171809 6.36815071 0.264493525
v -2.62351489 6.36815071 0.264493525
v -2.95171809 6.36815071 -0.269506484
v -3.40227604 6.63442993 -0.00250638952
v -0.316372991 5.27919102 -0.269506454
v -0.316372991 6.09413767 0.264493585
v -0.316372991 5.27919102 0.264493555
v -0.316372991 6.09413767 -0.269506425
v -0.749627352 6.09413767 -0.269506425
v -0.749627352 5.28304195 0.264493555
v -0.749627352 6.09413767 0.264493585
v -0.749627352 5.28304195 -0.269506454
v -2.21268725 5.29827642 -0.269506454
v -2.21268725 6.09413767 0.264493585
v -2.21268725 5.29827642 0.264493555
v -2.21268725 6.09413767 -0.269506425
v -2.62351489 6.09413767 -0.269506425
v -2.62351489 5.30236149 0.264493555
v -2.62351489 6.09413767 0.264493585
v -2.62351489 5.30236149 -0.269506454
v -2.21268725 6.09413767 -0.269506425
v -0.749627352 6.09413767 0.264493585
v -2.21268725 6.09413767 0.264493585
v -0.749627352 6.09413767 -0.269506425
v -0.749627352 6.36815071 -0.269506484
v -2.21268725 6.36815071 0.264493525
v -0.749627352 6.36815071 0.264493525
v -2.21268725 6.36815071 -0.269506484
v -2.95171809 5.29437876 -0.269506454
v -2.95171809 6.09413767 0.264493585
v -2.95171809 5.29437876 0.264493555
v -2.95171809 6.09413767 -0.269506425
v -2.62351489 5.30236149 -0.269506454
v -2.95171809 5.29437876 0.264493555
v -2.62351489 5.30236149 0.264493555
v -2.95171809 5.29437876 -0.269506454
v -0.749627352 5.28304195 -0.269506454
v -2.21268725 5.29827642 0.264493555
v -0.749627352 5.28304195 0.264493555
v -2.21268725 5.29827642 -0.269506454
v 0.35773772 6.09413767 -0.269506425
v -0.316372991 6.09413767 0.264493585
v -0.316372991 6.09413767 -0.269506425
v 0.35773772 6.09413767 0.264493585
v 3.56898785 4.7104578 0.264493436
v -3.52762318 4.7104578 0.264493436
v -3.52762318 4.7104578 -0.269506574
v 3.56898785 4.7104578 -0.269506574
v -0.316372991 5.27919102 -0.269506454
v 0.790992081 5.28304195 -0.269506454
v -0.749627352 5.28304195 -0.269506454
v 0.35773772 5.27919102 -0.269506454
v -0.316372991 5.27919102 -0.269506454
v 0.35773772 5.27919102 0.264493555
v 0.35773772 5.27919102 -0.269506454
v -0.316372991 5.27919102 0.264493555
v -2.95171809 6.09413767 0.264493585
v -3.40227604 6.63442993 -0.00250638952
v -3.52762318 4.7104578 0.264493436
v -2.95171809 6.36815071 0.264493525
v -2.62351489 6.36815071 0.264493525
v -2.95171809 5.29437876 0.264493555
v -2.62351489 6.09413767 0.264493585
v -2.21268725 6.36815071 0.264493525
v -2.62351489 5.30236149 0.264493555
v -2.21268725 6.09413767 0.264493585
v -0.749627352 6.36815071 0.264493525
v -2.21268725 5.29827642 0.264493555
v -0.749627352 6.09413767 0.264493585
v -0.749627352 5.28304195 0.264493555
v -0.316372991 6.09413767 0.264493585
v -0.316372991 6.36815071 0.264493525
v -0.316372991 5.27919102 0.264493555
v 0.35773772 6.09413767 0.264493585
v 0.35773772 5.27919102 0.264493555
v 0.35773772 6.36815071 0.264493525
v 3.56898785 4.7104578 0.264493436
v 0.790992081 6.36815071 0.264493525
v 0.790992081 5.28304195 0.264493555
v 0.790992081 6.09413767 0.264493585
v 2.25405192 6.09413767 0.264493585
v 2.25405192 5.29827642 0.264493555
v 2.25405192 6.36815071 0.264493525
v 2.6648798 5.30236149 0.264493555
v 2.99308276 5.29437876 0.264493555
v 2.6648798 6.09413767 0.264493585
v 2.6648798 6.36815071 0.264493525
v 2.99308276 6.09413767 0.264493585
v 3.44834709 6.63442993 -0.00250638952
v 2.99308276 6.36815071 0.264493525
vn 0 0.70806098 0.706151366
vn 0 0.70806098 0.706151366
vn 0 0.70806098 0.706151366
vn 0 0.70806098 0.706151366
vn 0 0.70806098 0.706151366
vn 0 0.70806098 0.706151366
vn 0 0.708061039 -0.706151247
vn 0 0.708061039 -0.706151247
vn 0 0.708061039 -0.706151247
vn 0 0.70806098 -0.706151247
vn 0 0.708061039 -0.706151247
vn 0 0.708061039 -0.706151247
vn 0.998039901 0.0625811741 0
vn 0.998039901 0.0625811741 0
vn 0.998039901 0.0625811741 0
vn -0.791785061 0.610799849 0
vn -0.791785061 0.610799789 0
vn -0.791785061 0.610799789 0
vn 0.7917853 0.610799611 0
vn 0.7917853 0.610799611 0
vn 0.7917853 0.610799611 0
vn -0.775722086 0.631074667 0
vn -0.775722086 0.631074667 0
vn -0.775722086 0.631074667 0
vn 0.775722086 0.631074667 0
vn 0.775722086 0.631074667 0
vn 0.775722086 0.631074667 0
vn 0 0.70806098 0.706151366
vn 0 0.70806098 0.706151366
vn 0 0.70806098 0.706151366
vn 0 0.70806098 0.706151366
vn 0 0.70806098 0.706151366
vn 0 0.70806098 0.706151366
vn 0 0.708061039 -0.706151187
vn 0 0.708061039 -0.706151247
vn 0 0.708061039 -0.706151187
vn 0 0.708061039 -0.706151247
vn 0 0.70806098 -0.706151247
vn 0 0.708061039 -0.706151247
vn -0.997884452 0.0650124475 0
vn -0.997884452 0.0650124475 0
vn -0.997884452 0.0650124475 0
vn 0.7917853 0.610799611 0
vn 0.791785359 0.610799551 0
vn 0.791785359 0.610799551 0
vn -0.791785359 0.610799551 0
vn -0.7917853 0.610799611 0
vn -0.791785359 0.610799551 0
vn 0.775722086 0.631074667 0
vn 0.775722086 0.631074667 0
vn 0.775722086 0.631074667 0
vn -0.775722086 0.631074667 0
vn -0.775722086 0.631074667 0
vn -0.775722086 0.631074667 0
vn 0 1 0
vn 0 1 0
vn 0 1 0
vn 0 1 0
vn -0.918146431 0.203192741 -0.340176135
vn -0.583990753 0.508090734 0.633086562
vn -0.602972329 0.523911595 -0.60161525
vn -0.882062554 0.205782607 0.423814982
vn -0.894079149 0 0.447908968
vn -0.931279898 0 -0.364304632
vn -0.315489888 0 0.948928952
vn -0.375126958 0.206798941 -0.9036116
vn -0.602972329 0.523911595 -0.60161525
vn -0.400912076 0 -0.916116536
vn -0.297127455 0.187018305 0.93634361
vn -0.583990753 0.508090734 0.633086562
vn 0.391548187 0 0.920157671
vn 0.606423974 0.504261672 0.614792824
vn 0.364759326 0.204349682 -0.908400774
vn 0.602924049 0.526360512 -0.599522531
vn 0.389119238 0 -0.921187401
vn 0.917036712 0.205328435 -0.341882855
vn 0.930658102 0 -0.365889877
vn 0.368978083 0.198094293 0.908082485
vn 0.923296869 0 0.384087056
vn 0.911480844 0.200067133 0.359410375
vn 0.930658102 0 -0.365889877
vn 0.917036712 0.205328435 -0.341882855
vn 0.602924049 0.526360512 -0.599522531
vn 0.606423974 0.504261672 0.614792824
vn 0 1 0
vn 0 1 0
vn 0 1 0
vn 0 1 0
vn 0.583990932 0.508090794 0.633086503
vn 0.918146312 0.203192756 -0.340176433
vn 0.60297215 0.523911536 -0.601615429
vn 0.882062554 0.205782473 0.423815012
vn 0.894079208 0 0.447908938
vn 0.315489888 0 0.948928952
vn 0.931279719 0 -0.36430493
vn 0.297127426 0.18701829 0.93634361
vn 0.583990932 0.508090794 0.633086503
vn -0.391547829 0 0.920157731
vn -0.606423974 0.504261434 0.614792883
vn 0.37512663 0.206798926 -0.90361172
vn 0.400911808 0 -0.916116655
vn 0.60297215 0.523911536 -0.601615429
vn -0.368977726 0.198094219 0.908082664
vn -0.92329675 0 0.384087384
vn -0.911480725 0.200067088 0.359410703
vn -0.930658102 0 -0.365889877
vn -0.917036712 0.205328435 -0.341882855
vn -0.602924049 0.526360452 -0.599522531
vn -0.606423974 0.504261434 0.614792883
vn -0.364759296 0.204349682 -0.908400774
vn -0.602924049 0.526360452 -0.599522531
vn -0.389119238 0 -0.921187401
vn -0.917036712 0.205328435 -0.341882855
vn -0.930658102 0 -0.365889877
vn 0 -1 0
vn 0 -1 0
vn 0 -1 0
vn 0 -1 0
vn 0 -1 0
vn 0 -1 0
vn 0 -1 0
vn 0 -1 -1.63104275E-07
vn 0 -1 0
vn 0 -1 0
vn 0 -1 0
vn 0 -1 0
vn 0 -1 0
vn 0 -1 0
vn 0 -1 0
vn 0 -1 0
vn 0 -1.69967194E-07 -1
vn 0 1.48357671E-07 -1
vn 0 0 -1
vn 0 -1.69944045E-07 -1
vn 0 -2.78431827E-07 -1
vn 0 -1.69586642E-07 -1
vn 0 -2.7843177E-07 -1
vn 0 -1.69967194E-07 -1
vn 0 -2.78431799E-07 -1
vn 0 -2.78431799E-07 -1
vn 0 -2.78431827E-07 -1
vn 0 -1.69561517E-07 -1
vn 0 -2.7843177E-07 -1
vn 0 1.43647696E-07 -1
vn 0.241505653 0.0653579384 -0.968195915
vn 0.295862854 -2.65966491E-07 -0.955230415
vn 0.406666189 0.105765462 -0.907433867
vn 0.0855576396 0.0356103368 -0.995696664
vn 0 1.24420779E-07 -1
vn 0 1.43028331E-07 -1
vn -0.085658282 0.0356522314 -0.995686531
vn 0 1.48357671E-07 -1
vn 0 1.43028331E-07 -1
vn 0 1.43647668E-07 -1
vn 0 -1.69586642E-07 -1
vn 0 1.24420779E-07 -1
vn -0.243064553 0.0659031421 -0.967768788
vn -0.409547925 0.106236666 -0.906081855
vn -0.298530579 -2.65735338E-07 -0.954400122
vn 0 -2.7843177E-07 -1
vn 0 -1.69561517E-07 -1
vn 0 -2.78431799E-07 -1
vn 0 -1.69944045E-07 -1
vn 0 0 -1
vn 0 -1 0
vn 0 -1 0
vn 0 -1 0
vn 0 -1 0
vn -0.215443611 0.976516306 0
vn 0 1 0
vn 0 1 0
vn -0.215443566 0.976516306 0
vn -0.504872978 0.863193691 0
vn -1 0 0
vn -1 0 0
vn -1 0 0
vn -1 0 0
vn 1 0 0
vn 1 0 0
vn 1 0 0
vn 1 0 0
vn -1 0 0
vn -1 0 0
vn -1 0 0
vn -1 0 0
vn 1 0 0
vn 1 0 0
vn 1 0 0
vn 1 0 0
vn 0 -1 0
vn 0 -1 0
vn 0 -1 0
vn 0 -1 0
vn 0 1 0
vn 0 1 0
vn 0 1 0
vn 0 1 0
vn 0 1 0
vn 0 1 0
vn 0 1 0
vn 0 1 0
vn -1 0 0
vn -1 0 0
vn -1 0 0
vn -1 0 0
vn 0.0243155137 0.999704301 0
vn 0.0243155137 0.999704301 0
vn 0.0243155155 0.999704301 0
vn 0.0243155155 0.999704301 0
vn -0.0104121156 0.99994576 0
vn -0.0104121156 0.99994576 0
vn -0.0104121156 0.99994576 0
vn -0.0104121156 0.99994576 0
vn 0 -1 0
vn 0 -1 0
vn 0 -1 0
vn 0 -1 0
vn 0 1 0
vn 0.216877937 0.976198673 0
vn 0 1 0
vn 0.216877878 0.976198673 0
vn 0.508786798 0.860892594 0
vn 1 0 0
vn 1 0 0
vn 1 0 0
vn 1 0 0
vn -1 0 0
vn -1 0 0
vn -1 0 0
vn -1 0 0
vn 1 0 0
vn 1 0 0
vn 1 0 0
vn 1 0 0
vn -1 0 0
vn -1 0 0
vn -1 0 0
vn -1 0 0
vn 0 -1 0
vn 0 -1 0
vn 0 -1 0
vn 0 -1 0
vn 0 1 0
vn 0 1 0
vn 0 1 0
vn 0 1 0
vn 1 0 0
vn 1 0 0
vn 1 0 0
vn 1 0 0
vn -0.0243155137 0.999704301 0
vn -0.0243155137 0.999704301 0
vn -0.0243155155 0.999704301 0
vn -0.0243155155 0.999704301 0
vn 0.0104121156 0.99994576 0
vn 0.0104121156 0.99994576 0
vn 0.0104121156 0.99994576 0
vn 0.0104121156 0.99994576 0
vn 0 -1 0
vn 0 -1 0
vn 0 -1 0
vn 0 -1 0
vn 0 -1 0
vn 0 -1 0
vn 0 -1 0
vn 0 -1 0
vn 0 0 1
vn 0 0 1
vn 0 0 1
vn 0 0 1
vn 0 1 0
vn 0 1 0
vn 0 1 0
vn 0 1 0
vn -0.243064523 0.0659032464 0.967768788
vn -0.409547865 0.106236622 0.906081855
vn -0.0856581703 0.0356518812 0.995686531
vn -0.29853034 1.32867669E-07 0.954400182
vn 0 1.39215885E-07 1
vn 0 -1.12522677E-07 1
vn 0 0 1
vn 0 1.39215899E-07 1
vn 0 -1.3555416E-07 1
vn 0 0 1
vn 0 1.39215913E-07 1
vn 0 -1.35072696E-07 1
vn 0 0 1
vn 0 -1.35295949E-07 1
vn 0 0 1
vn 0 1.39215885E-07 1
vn 0 -1.41908259E-07 1
vn 0 0 1
vn 0 -1.41908245E-07 1
vn 0 1.39215899E-07 1
vn 0.0855576545 0.03561005 0.995696664
vn 0 1.39215913E-07 1
vn 0 -1.35295949E-07 1
vn 0 0 1
vn 0 0 1
vn 0 -1.3507271E-07 1
vn 0 1.39215899E-07 1
vn 0 -1.35554174E-07 1
vn 0 -1.12522677E-07 1
vn 0 0 1
vn 0 1.39215885E-07 1
vn 0.241505593 0.0653580502 0.968195915
vn 0.40666613 0.105765462 0.907433867
vn 0.295862645 1.32983274E-07 0.955230534
vt -223.33696 65.0211182
vt -264.419739 65.0211182
vt -243.878357 91.6490936
vt -33.7055359 65.0211182
vt -77.0309753 65.0211182
vt -55.3682556 91.6490936
vt -243.878357 91.6490936
vt -264.419739 65.0211029
vt -223.33696 65.0211029
vt -55.3682556 91.6490936
vt -77.0309753 65.0211029
vt -33.7055359 65.0211029
vt -354.830566 -100.748138
vt -354.830566 -100.748138
vt -342.766479 91.6490784
vt -223.33696 65.0211182
vt -243.878357 91.6490936
vt -223.33696 65.0211029
vt -264.419739 65.0211182
vt -264.419739 65.0211029
vt -243.878357 91.6490936
vt -33.7055359 65.0211182
vt -55.3682556 91.6490936
vt -33.7055359 65.0211029
vt -77.0309753 65.0211182
vt -77.0309753 65.0211029
vt -55.3682556 91.6490936
vt 223.33696 65.0211182
vt 243.878357 91.6490936
vt 264.419739 65.0211182
vt 33.7055359 65.0211182
vt 55.3682556 91.6490936
vt 77.0309753 65.0211182
vt 264.419739 65.0211029
vt 243.878357 91.6490936
vt 223.33696 65.0211029
vt 77.0309753 65.0211029
vt 55.3682556 91.6490936
vt 33.7055359 65.0211029
vt 354.830566 -100.748138
vt 342.295837 91.6490784
vt 354.830566 -100.748138
vt 243.878357 91.6490936
vt 223.33696 65.0211182
vt 223.33696 65.0211029
vt 264.419739 65.0211182
vt 243.878357 91.6490936
vt 264.419739 65.0211029
vt 55.3682556 91.6490936
vt 33.7055359 65.0211182
vt 33.7055359 65.0211029
vt 77.0309753 65.0211182
vt 55.3682556 91.6490936
vt 77.0309753 65.0211029
vt 0.986580372 0.777541339
vt 0.887878776 0.685586333
vt 0.886546075 0.778290987
vt 0.987080157 0.683170855
vt 0.344973981 0.61308527
vt 0.252269864 0.660254836
vt 0.346753061 0.661010265
vt 0.250103116 0.61255157
vt 0.253520846 0.00593334436
vt 0.348393619 0.00646875799
vt 0.227481961 0.00523997843
vt 0.376125276 0.609993815
vt 0.372363269 0.656843066
vt 0.380928457 0.00602099299
vt 0.224858403 0.610369802
vt 0.22554183 0.656336069
vt 0.127714574 0.00492095947
vt 0.123786807 0.656096101
vt 0.473849714 0.611044884
vt 0.475702703 0.657792091
vt 0.480638206 0.00698304176
vt 0.503292978 0.614688039
vt 0.51141566 0.00785109401
vt 0.126550138 0.609654069
vt 0.0979015231 0.00550511479
vt 0.0979012251 0.612430573
vt 0.00702178478 0.00573851168
vt 0.00702184439 0.612196922
vt 0.00652080774 0.660267591
vt 0.0993768573 0.65994513
vt 0.986580372 0.777541339
vt 0.887878776 0.685586333
vt 0.987080157 0.683170855
vt 0.886546075 0.778290987
vt 0.252269864 0.660254836
vt 0.344973981 0.61308527
vt 0.346753061 0.661010265
vt 0.250103116 0.61255157
vt 0.253520846 0.00593334436
vt 0.227481961 0.00523997843
vt 0.348393619 0.00646875799
vt 0.224858403 0.610369802
vt 0.22554183 0.656336069
vt 0.127714574 0.00492095947
vt 0.123786807 0.656096101
vt 0.376125276 0.609993815
vt 0.380928457 0.00602099299
vt 0.372363269 0.656843066
vt 0.126550138 0.609654069
vt 0.0979015231 0.00550511479
vt 0.0979012251 0.612430573
vt 0.00702178478 0.00573851168
vt 0.00702184439 0.612196922
vt 0.00652080774 0.660267591
vt 0.0993768573 0.65994513
vt 0.473849714 0.611044884
vt 0.475702703 0.657792091
vt 0.480638206 0.00698304176
vt 0.503292978 0.614688039
vt 0.51141566 0.00785109401
vt 0.227481961 0.00523997843
vt 0.0979015231 0.00550511479
vt 0.127714574 0.00492095947
vt 0.348393619 0.00646875799
vt 0.253520846 0.00593334436
vt 0.480638206 0.00698304176
vt 0.00702178478 0.00573851168
vt 0.380928457 0.00602099299
vt 0.348393619 0.00646875799
vt 0.480638206 0.00698304176
vt 0.380928457 0.00602099299
vt 0.0979015231 0.00550511479
vt 0.51141566 0.00785109401
vt 0.227481961 0.00523997843
vt 0.253520846 0.00593334436
vt 0.127714574 0.00492095947
vt -33.7055359 37.6198006
vt -77.0309753 -43.4897308
vt -33.7055359 -43.8748322
vt -77.0309753 37.6198006
vt -77.0309753 65.0211029
vt -223.33696 37.6198006
vt -33.7055359 65.0211029
vt 33.7055359 37.6198006
vt 33.7055359 65.0211029
vt -223.33696 65.0211029
vt 77.0309753 65.0211029
vt -264.419739 37.6198006
vt -264.419739 65.0211029
vt -264.419739 -41.557785
vt -297.240051 37.6198044
vt -297.240051 65.0211029
vt -342.766479 91.6490784
vt -354.830566 -100.748138
vt -297.240051 -42.3560638
vt -223.33696 -41.9662933
vt 354.830566 -100.748138
vt 77.0309753 -43.4897308
vt 223.33696 -41.9662933
vt 264.419739 -41.557785
vt 223.33696 37.6198006
vt 297.240051 -42.3560638
vt 297.240051 37.6198044
vt 342.295837 91.6490784
vt 297.240051 65.0211029
vt 264.419739 65.0211029
vt 264.419739 37.6198006
vt 223.33696 65.0211029
vt 77.0309753 37.6198006
vt 33.7055359 -43.8748322
vt -297.240051 37.6198044
vt -264.419739 37.619812
vt -264.419739 37.6198006
vt -297.240051 37.619812
vt -297.240051 65.0211182
vt -264.419739 65.0211029
vt -264.419739 65.0211182
vt -297.240051 65.0211029
vt -342.766479 91.6490784
vt -33.7055359 -43.8748322
vt -33.7055359 37.619812
vt -33.7055359 37.6198006
vt -33.7055359 -43.8748283
vt -77.0309753 37.6198006
vt -77.0309753 -43.489727
vt -77.0309753 -43.4897308
vt -77.0309753 37.619812
vt -223.33696 -41.9662933
vt -223.33696 37.619812
vt -223.33696 37.6198006
vt -223.33696 -41.9662933
vt -264.419739 37.6198006
vt -264.419739 -41.557785
vt -264.419739 -41.557785
vt -264.419739 37.619812
vt -223.33696 37.6198006
vt -77.0309753 37.619812
vt -77.0309753 37.6198006
vt -223.33696 37.619812
vt -77.0309753 65.0211029
vt -223.33696 65.0211182
vt -223.33696 65.0211029
vt -77.0309753 65.0211182
vt 33.7055359 65.0211182
vt -33.7055359 65.0211029
vt 33.7055359 65.0211029
vt -33.7055359 65.0211182
vt -297.240051 -42.3560638
vt -297.240051 37.619812
vt -297.240051 37.6198044
vt -297.240051 -42.3560638
vt -264.419739 -41.557785
vt -297.240051 -42.3560638
vt -297.240051 -42.3560638
vt -264.419739 -41.557785
vt -77.0309753 -43.4897308
vt -223.33696 -41.9662933
vt -223.33696 -41.9662933
vt -77.0309753 -43.489727
vt 297.240051 37.6198044
vt 264.419739 37.619812
vt 297.240051 37.619812
vt 264.419739 37.6198006
vt 264.419739 65.0211029
vt 297.240051 65.0211182
vt 264.419739 65.0211182
vt 297.240051 65.0211029
vt 342.295837 91.6490784
vt 33.7055359 -43.8748322
vt 33.7055359 37.619812
vt 33.7055359 -43.8748283
vt 33.7055359 37.6198006
vt 77.0309753 37.6198006
vt 77.0309753 -43.489727
vt 77.0309753 37.619812
vt 77.0309753 -43.4897308
vt 223.33696 -41.9662933
vt 223.33696 37.619812
vt 223.33696 -41.9662933
vt 223.33696 37.6198006
vt 264.419739 37.6198006
vt 264.419739 -41.557785
vt 264.419739 37.619812
vt 264.419739 -41.557785
vt 223.33696 37.6198006
vt 77.0309753 37.619812
vt 223.33696 37.619812
vt 77.0309753 37.6198006
vt 77.0309753 65.0211029
vt 223.33696 65.0211182
vt 77.0309753 65.0211182
vt 223.33696 65.0211029
vt 297.240051 -42.3560638
vt 297.240051 37.619812
vt 297.240051 -42.3560638
vt 297.240051 37.6198044
vt 264.419739 -41.557785
vt 297.240051 -42.3560638
vt 264.419739 -41.557785
vt 297.240051 -42.3560638
vt 77.0309753 -43.4897308
vt 223.33696 -41.9662933
vt 77.0309753 -43.489727
vt 223.33696 -41.9662933
vt -33.7055359 37.6198006
vt 33.7055359 37.619812
vt 33.7055359 37.6198006
vt -33.7055359 37.619812
vt -354.830566 -100.748138
vt 354.830566 -100.748138
vt 354.830566 -100.748138
vt -354.830566 -100.748138
vt 33.7055359 -43.8748322
vt -77.0309753 -43.4897308
vt 77.0309753 -43.4897308
vt -33.7055359 -43.8748322
vt 33.7055359 -43.8748322
vt -33.7055359 -43.8748283
vt -33.7055359 -43.8748322
vt 33.7055359 -43.8748283
vt 297.240051 37.619812
vt 342.295837 91.6490784
vt 354.830566 -100.748138
vt 297.240051 65.0211182
vt 264.419739 65.0211182
vt 297.240051 -42.3560638
vt 264.419739 37.619812
vt 223.33696 65.0211182
vt 264.419739 -41.557785
vt 223.33696 37.619812
vt 77.0309753 65.0211182
vt 223.33696 -41.9662933
vt 77.0309753 37.619812
vt 77.0309753 -43.489727
vt 33.7055359 37.619812
vt 33.7055359 65.0211182
vt 33.7055359 -43.8748283
vt -33.7055359 37.619812
vt -33.7055359 -43.8748283
vt -33.7055359 65.0211182
vt -354.830566 -100.748138
vt -77.0309753 65.0211182
vt -77.0309753 -43.489727
vt -77.0309753 37.619812
vt -223.33696 37.619812
vt -223.33696 -41.9662933
vt -223.33696 65.0211182
vt -264.419739 -41.557785
vt -297.240051 -42.3560638
vt -264.419739 37.619812
vt -264.419739 65.0211182
vt -297.240051 37.619812
vt -342.766479 91.6490784
vt -297.240051 65.0211182
g submesh0
f 1/1/1 2/2/2 3/3/3
f 4/4/4 5/5/5 6/6/6
f 7/7/7 8/8/8 9/9/9
f 10/10/10 11/11/11 12/12/12
f 13/13/13 14/14/14 15/15/15
f 16/16/16 17/17/17 18/18/18
f 19/19/19 20/20/20 21/21/21
f 22/22/22 23/23/23 24/24/24
f 25/25/25 26/26/26 27/27/27
f 28/28/28 29/29/29 30/30/30
f 31/31/31 32/32/32 33/33/33
f 34/34/34 35/35/35 36/36/36
f 37/37/37 38/38/38 39/39/39
f 40/40/40 41/41/41 42/42/42
f 43/43/43 44/44/44 45/45/45
f 46/46/46 47/47/47 48/48/48
f 49/49/49 50/50/50 51/51/51
f 52/52/52 53/53/53 54/54/54
f 55/55/55 56/56/56 57/57/57
f 56/56/56 55/55/55 58/58/58
f 59/59/59 60/60/60 61/61/61
f 60/60/60 59/59/59 62/62/62
f 59/59/59 63/63/63 62/62/62
f 63/63/63 59/59/59 64/64/64
f 65/65/65 62/62/62 63/63/63
f 66/66/66 64/64/64 59/59/59
f 67/67/67 66/66/66 59/59/59
f 64/64/64 66/66/66 68/68/68
f 62/62/62 65/65/65 69/69/69
f 70/70/70 62/62/62 69/69/69
f 71/71/71 69/69/69 65/65/65
f 69/69/69 72/72/72 70/70/70
f 67/67/67 73/73/73 66/66/66
f 73/73/73 68/68/68 66/66/66
f 73/73/73 67/67/67 74/74/74
f 68/68/68 73/73/73 75/75/75
f 74/74/74 76/76/76 73/73/73
f 76/76/76 75/75/75 73/73/73
f 75/75/75 76/76/76 77/77/77
f 69/69/69 71/71/71 78/78/78
f 72/72/72 69/69/69 78/78/78
f 79/79/79 78/78/78 71/71/71
f 72/72/72 78/78/78 80/80/80
f 78/78/78 79/79/79 80/80/80
f 81/81/81 80/80/80 79/79/79
f 80/80/80 81/81/81 82/82/82
f 83/83/83 80/80/80 82/82/82
f 80/80/80 83/83/83 84/84/84
f 85/85/85 86/86/86 87/87/87
f 86/86/86 85/85/85 88/88/88
f 89/89/89 90/90/90 91/91/91
f 90/90/90 89/89/89 92/92/92
f 93/93/93 90/90/90 92/92/92
f 92/92/92 94/94/94 93/93/93
f 90/90/90 93/93/93 95/95/95
f 94/94/94 92/92/92 96/96/96
f 97/97/97 96/96/96 92/92/92
f 96/96/96 98/98/98 94/94/94
f 99/99/99 96/96/96 97/97/97
f 95/95/95 100/100/100 90/90/90
f 100/100/100 95/95/95 101/101/101
f 102/102/102 90/90/90 100/100/100
f 98/98/98 96/96/96 103/103/103
f 96/96/96 99/99/99 103/103/103
f 103/103/103 104/104/104 98/98/98
f 99/99/99 105/105/105 103/103/103
f 104/104/104 103/103/103 105/105/105
f 105/105/105 106/106/106 104/104/104
f 106/106/106 105/105/105 107/107/107
f 105/105/105 108/108/108 107/107/107
f 108/108/108 105/105/105 109/109/109
f 101/101/101 110/110/110 100/100/100
f 110/110/110 102/102/102 100/100/100
f 102/102/102 110/110/110 111/111/111
f 110/110/110 101/101/101 112/112/112
f 111/111/111 110/110/110 113/113/113
f 112/112/112 113/113/113 110/110/110
f 113/113/113 112/112/112 114/114/114
f 115/115/115 116/116/116 117/117/117
f 115/115/115 118/118/118 116/116/116
f 119/119/119 118/118/118 115/115/115
f 116/116/116 118/118/118 120/120/120
f 116/116/116 120/120/120 121/121/121
f 120/120/120 118/118/118 122/122/122
f 123/123/123 124/124/124 125/125/125
f 123/123/123 126/126/126 124/124/124
f 124/124/124 126/126/126 127/127/127
f 123/123/123 128/128/128 126/126/126
f 129/129/129 128/128/128 123/123/123
f 126/126/126 128/128/128 130/130/130
f 131/131/131 132/132/132 133/133/133
f 132/132/132 131/131/131 134/134/134
f 131/131/131 135/135/135 134/134/134
f 135/135/135 136/136/136 134/134/134
f 135/135/135 131/131/131 137/137/137
f 138/138/138 137/137/137 131/131/131
f 137/137/137 138/138/138 139/139/139
f 136/136/136 135/135/135 140/140/140
f 138/138/138 141/141/141 139/139/139
f 140/140/140 142/142/142 136/136/136
f 142/142/142 140/140/140 143/143/143
f 144/144/144 136/136/136 142/142/142
f 143/143/143 145/145/145 142/142/142
f 145/145/145 143/143/143 146/146/146
f 147/147/147 145/145/145 146/146/146
f 145/145/145 147/147/147 148/148/148
f 148/148/148 149/149/149 145/145/145
f 148/148/148 144/144/144 149/149/149
f 136/136/136 144/144/144 150/150/150
f 150/150/150 144/144/144 148/148/148
f 148/148/148 132/132/132 150/150/150
f 151/151/151 132/132/132 148/148/148
f 132/132/132 151/151/151 152/152/152
f 151/151/151 153/153/153 152/152/152
f 153/153/153 151/151/151 154/154/154
f 154/154/154 155/155/155 153/153/153
f 151/151/151 156/156/156 154/154/154
f 151/151/151 157/157/157 156/156/156
f 158/158/158 157/157/157 151/151/151
f 157/157/157 158/158/158 159/159/159
f 160/160/160 157/157/157 159/159/159
f 157/157/157 160/160/160 161/161/161
f 155/155/155 154/154/154 161/161/161
f 162/162/162 161/161/161 160/160/160
f 161/161/161 162/162/162 155/155/155
f 141/141/141 155/155/155 162/162/162
f 155/155/155 141/141/141 163/163/163
f 141/141/141 138/138/138 163/163/163
f 138/138/138 152/152/152 163/163/163
f 152/152/152 138/138/138 164/164/164
f 165/165/165 166/166/166 167/167/167
f 166/166/166 165/165/165 168/168/168
f 169/169/169 170/170/170 171/171/171
f 170/170/170 169/169/169 172/172/172
f 169/169/169 173/173/173 172/172/172
f 174/174/174 175/175/175 176/176/176
f 175/175/175 174/174/174 177/177/177
f 178/178/178 179/179/179 180/180/180
f 179/179/179 178/178/178 181/181/181
f 182/182/182 183/183/183 184/184/184
f 183/183/183 182/182/182 185/185/185
f 186/186/186 187/187/187 188/188/188
f 187/187/187 186/186/186 189/189/189
f 190/190/190 191/191/191 192/192/192
f 191/191/191 190/190/190 193/193/193
f 194/194/194 195/195/195 196/196/196
f 195/195/195 194/194/194 197/197/197
f 198/198/198 199/199/199 200/200/200
f 199/199/199 198/198/198 201/201/201
f 202/202/202 203/203/203 204/204/204
f 203/203/203 202/202/202 205/205/205
f 206/206/206 207/207/207 208/208/208
f 207/207/207 206/206/206 209/209/209
f 210/210/210 211/211/211 212/212/212
f 211/211/211 210/210/210 213/213/213
f 214/214/214 215/215/215 216/216/216
f 215/215/215 214/214/214 217/217/217
f 218/218/218 219/219/219 220/220/220
f 219/219/219 218/218/218 221/221/221
f 222/222/222 219/219/219 221/221/221
f 223/223/223 224/224/224 225/225/225
f 224/224/224 223/223/223 226/226/226
f 227/227/227 228/228/228 229/229/229
f 228/228/228 227/227/227 230/230/230
f 231/231/231 232/232/232 233/233/233
f 232/232/232 231/231/231 234/234/234
f 235/235/235 236/236/236 237/237/237
f 236/236/236 235/235/235 238/238/238
f 239/239/239 240/240/240 241/241/241
f 240/240/240 239/239/239 242/242/242
f 243/243/243 244/244/244 245/245/245
f 244/244/244 243/243/243 246/246/246
f 247/247/247 248/248/248 249/249/249
f 248/248/248 247/247/247 250/250/250
f 251/251/251 252/252/252 253/253/253
f 252/252/252 251/251/251 254/254/254
f 255/255/255 256/256/256 257/257/257
f 256/256/256 255/255/255 258/258/258
f 259/259/259 260/260/260 261/261/261
f 260/260/260 259/259/259 262/262/262
f 263/263/263 264/264/264 265/265/265
f 265/265/265 266/266/266 263/263/263
f 267/267/267 268/268/268 269/269/269
f 268/268/268 267/267/267 270/270/270
f 271/271/271 272/272/272 273/273/273
f 272/272/272 271/271/271 274/274/274
f 275/275/275 276/276/276 277/277/277
f 276/276/276 275/275/275 278/278/278
f 275/275/275 279/279/279 278/278/278
f 280/280/280 275/275/275 277/277/277
f 279/279/279 275/275/275 281/281/281
f 281/281/281 282/282/282 279/279/279
f 283/283/283 280/280/280 277/277/277
f 282/282/282 281/281/281 284/284/284
f 283/283/283 284/284/284 281/281/281
f 284/284/284 285/285/285 282/282/282
f 284/284/284 283/283/283 286/286/286
f 283/283/283 277/277/277 286/286/286
f 285/285/285 284/284/284 287/287/287
f 288/288/288 286/286/286 277/277/277
f 289/289/289 285/285/285 287/287/287
f 288/288/288 289/289/289 287/287/287
f 285/285/285 289/289/289 290/290/290
f 289/289/289 288/288/288 291/291/291
f 277/277/277 291/291/291 288/288/288
f 292/292/292 290/290/290 289/289/289
f 277/277/277 293/293/293 291/291/291
f 290/290/290 292/292/292 294/294/294
f 293/293/293 277/277/277 295/295/295
f 292/292/292 296/296/296 294/294/294
f 297/297/297 292/292/292 293/293/293
f 297/297/297 293/293/293 295/295/295
f 292/292/292 297/297/297 298/298/298
f 296/296/296 292/292/292 298/298/298
f 299/299/299 296/296/296 298/298/298
f 297/297/297 295/295/295 300/300/300
f 296/296/296 299/299/299 301/301/301
f 302/302/302 299/299/299 300/300/300
f 302/302/302 300/300/300 295/295/295
f 302/302/302 295/295/295 303/303/303
f 299/299/299 302/302/302 304/304/304
f 304/304/304 301/301/301 299/299/299
f 301/301/301 304/304/304 305/305/305
f 303/303/303 295/295/295 306/306/306
f 306/306/306 305/305/305 304/304/304
f 307/307/307 306/306/306 295/295/295
f 305/305/305 306/306/306 308/308/308
f 306/306/306 307/307/307 308/308/308
