# hamste_wheel_col
v 0 1.22394216 0.970196664
v -0.238779247 1.20042455 0.970196664
v -0.238779247 1.20042455 -0.0237053633
v -0.238779247 1.20042455 0.970196664
v -0.468382418 1.13077509 0.970196843
v -0.468382418 1.13077509 -0.0237053633
v -0.468382418 1.13077509 0.970196843
v -0.679985821 1.01767051 0.970196843
v -0.679985821 1.01767051 -0.0237053633
v -0.679985821 1.01767051 0.970196843
v -0.865457773 0.865457892 0.970196843
v -0.865457773 0.865457892 -0.0237053037
v -0.865457773 0.865457892 0.970196843
v -1.01767051 0.679985881 0.970196843
v -1.01767051 0.679985881 -0.0237053037
v -1.01767051 0.679985881 0.970196843
v -1.13077509 0.468382478 0.970196843
v -1.13077509 0.468382329 -0.0237053037
v -1.13077509 0.468382478 0.970196843
v -1.20042443 0.238779292 0.970196843
v -1.20042443 0.238779172 -0.0237053037
v -1.20042443 0.238779292 0.970196843
v -1.22394216 0 0.970196843
v -1.22394216 0 -0.0237053037
v -1.22394216 0 0.970196843
v -1.20042443 -0.238779172 0.970196843
v -1.20042443 -0.238779292 -0.0237052441
v -1.20042443 -0.238779172 0.970196843
v -1.13077509 -0.468382329 0.970196962
v -1.13077509 -0.468382478 -0.0237052441
v -1.13077509 -0.468382329 0.970196962
v -1.01767051 -0.679985702 0.970196962
v -1.01767051 -0.679985821 -0.0237051845
v -1.01767051 -0.679985702 0.970196962
v -0.865457773 -0.865457654 0.970196962
v -0.865457773 -0.865457773 -0.0237051845
v -0.865457773 -0.865457654 0.970196962
v -0.679985821 -1.01767051 0.970196962
v -0.679985821 -1.01767051 -0.0237051845
v -0.679985821 -1.01767051 0.970196962
v -0.468382418 -1.13077509 0.970196962
v -0.468382418 -1.13077509 -0.0237051845
v -0.468382418 -1.13077509 0.970196962
v -0.238779247 -1.20042443 0.970196962
v -0.238779247 -1.20042443 -0.0237051845
v 0.238779247 -1.20042443 0.970196962
v 0.468382418 -1.13077509 0.970196962
v 0.468382418 -1.13077509 -0.0237051845
v 0.468382418 -1.13077509 0.970196962
v 0.679985821 -1.01767051 0.970196962
v 0.679985821 -1.01767051 -0.0237051845
v 0.679985821 -1.01767051 0.970196962
v 0.865457773 -0.865457654 0.970196962
v 0.865457773 -0.865457773 -0.0237051845
v 0.865457773 -0.865457654 0.970196962
v 1.01767051 -0.679985702 0.970196962
v 1.01767051 -0.679985821 -0.0237051845
v 1.13077509 -0.468382329 0.970196962
v 1.13077509 -0.468382478 -0.0237052441
v 1.01767051 -0.679985821 -0.0237051845
v 1.13077509 -0.468382329 0.970196962
v 1.20042443 -0.238779172 0.970196843
v 1.20042443 -0.238779292 -0.0237052441
v 1.20042443 -0.238779172 0.970196843
v 1.22394216 0 0.970196843
v 1.22394216 0 -0.0237053037
v 1.22394216 0 0.970196843
v 1.20042443 0.238779292 0.970196843
v 1.20042443 0.238779172 -0.0237053037
v 1.20042443 0.238779292 0.970196843
v 1.13077509 0.468382478 0.970196843
v 1.13077509 0.468382329 -0.0237053037
v 1.13077509 0.468382478 0.970196843
v 1.01767051 0.679985881 0.970196843
v 1.01767051 0.679985881 -0.0237053037
v 1.01767051 0.679985881 0.970196843
v 0.865457773 0.865457892 0.970196843
v 0.865457773 0.865457892 -0.0237053037
v 0.865457773 0.865457892 0.970196843
v 0.679985821 1.01767051 0.970196843
v 0.679985821 1.01767051 -0.0237053633
v 0.679985821 1.01767051 0.970196843
v 0.468382418 1.13077509 0.970196843
v 0.468382418 1.13077509 -0.0237053633
v 0.238779247 1.20042455 0.970196664
v 0.238779247 1.20042455 -0.0237053633
v 0.468382418 1.13077509 -0.0237053633
v 0.238779247 1.20042455 0.970196664
v 0 1.22394216 0.970196664
v 0 1.22394216 -0.0237053633
v 0 1.22394216 0.970196664
v -0.238779247 1.20042455 -0.0237053633
v 0 1.22394216 -0.0237053633
v -0.238779247 1.20042455 0.970196664
v -0.468382418 1.13077509 -0.0237053633
v -0.238779247 1.20042455 -0.0237053633
v -0.468382418 1.13077509 0.970196843
v -0.679985821 1.01767051 -0.0237053633
v -0.468382418 1.13077509 -0.0237053633
v -0.679985821 1.01767051 0.970196843
v -0.865457773 0.865457892 -0.0237053037
v -0.679985821 1.01767051 -0.0237053633
v -0.865457773 0.865457892 0.970196843
v -1.01767051 0.679985881 -0.0237053037
v -0.865457773 0.865457892 -0.0237053037
v -1.01767051 0.679985881 0.970196843
v -1.13077509 0.468382329 -0.0237053037
v -1.01767051 0.679985881 -0.0237053037
v -1.13077509 0.468382478 0.970196843
v -1.20042443 0.238779172 -0.0237053037
v -1.13077509 0.468382329 -0.0237053037
v -1.20042443 0.238779292 0.970196843
v -1.22394216 0 -0.0237053037
v -1.20042443 0.238779172 -0.0237053037
v -1.22394216 0 0.970196843
v -1.20042443 -0.238779292 -0.0237052441
v -1.22394216 0 -0.0237053037
v -1.20042443 -0.238779172 0.970196843
v -1.13077509 -0.468382478 -0.0237052441
v -1.20042443 -0.238779292 -0.0237052441
v -1.13077509 -0.468382329 0.970196962
v -1.01767051 -0.679985821 -0.0237051845
v -1.13077509 -0.468382478 -0.0237052441
v -1.01767051 -0.679985702 0.970196962
v -0.865457773 -0.865457773 -0.0237051845
v -1.01767051 -0.679985821 -0.0237051845
v -0.865457773 -0.865457654 0.970196962
v -0.679985821 -1.01767051 -0.0237051845
v -0.865457773 -0.865457773 -0.0237051845
v -0.679985821 -1.01767051 0.970196962
v -0.468382418 -1.13077509 -0.0237051845
v -0.679985821 -1.01767051 -0.0237051845
v -0.468382418 -1.13077509 0.970196962
v -0.238779247 -1.20042443 -0.0237051845
v -0.468382418 -1.13077509 -0.0237051845
v 0.238779247 -1.20042443 0.970196962
v 0.468382418 -1.13077509 -0.0237051845
v 0.238779247 -1.20042443 -0.0237051845
v 0.468382418 -1.13077509 0.970196962
v 0.679985821 -1.01767051 -0.0237051845
v 0.468382418 -1.13077509 -0.0237051845
v 0.679985821 -1.01767051 0.970196962
v 0.865457773 -0.865457773 -0.0237051845
v 0.679985821 -1.01767051 -0.0237051845
v 0.865457773 -0.865457654 0.970196962
v 1.01767051 -0.679985821 -0.0237051845
v 0.865457773 -0.865457773 -0.0237051845
v 1.13077509 -0.468382329 0.970196962
v 1.01767051 -0.679985821 -0.0237051845
v 1.01767051 -0.679985702 0.970196962
v 1.13077509 -0.468382329 0.970196962
v 1.20042443 -0.238779292 -0.0237052441
v 1.13077509 -0.468382478 -0.0237052441
v 1.20042443 -0.238779172 0.970196843
v 1.22394216 0 -0.0237053037
v 1.20042443 -0.238779292 -0.0237052441
v 1.22394216 0 0.970196843
v 1.20042443 0.238779172 -0.0237053037
v 1.22394216 0 -0.0237053037
v 1.20042443 0.238779292 0.970196843
v 1.13077509 0.468382329 -0.0237053037
v 1.20042443 0.238779172 -0.0237053037
v 1.13077509 0.468382478 0.970196843
v 1.01767051 0.679985881 -0.0237053037
v 1.13077509 0.468382329 -0.0237053037
v 1.01767051 0.679985881 0.970196843
v 0.865457773 0.865457892 -0.0237053037
v 1.01767051 0.679985881 -0.0237053037
v 0.865457773 0.865457892 0.970196843
v 0.679985821 1.01767051 -0.0237053633
v 0.865457773 0.865457892 -0.0237053037
v 0.679985821 1.01767051 0.970196843
v 0.468382418 1.13077509 -0.0237053633
v 0.679985821 1.01767051 -0.0237053633
v 0.238779247 1.20042455 0.970196664
v 0.468382418 1.13077509 -0.0237053633
v 0.468382418 1.13077509 0.970196843
v 0.238779247 1.20042455 0.970196664
v 0 1.22394216 -0.0237053633
v 0.238779247 1.20042455 -0.0237053633
v -0.238779247 -1.20042443 0.970196962
v 0 -1.22394216 0.970196962
v 0 -1.22394216 -0.0237051845
v -0.238779247 -1.20042443 -0.0237051845
v 0 -1.22394216 0.970196962
v 0.238779247 -1.20042443 0.970196962
v 0.238779247 -1.20042443 -0.0237051845
v 0 -1.22394216 -0.0237051845
v 0.238779247 1.20042455 0.970196664
v 0.238779247 1.20042455 0.00714558363
v 0 1.22394216 0.00714558363
v 0 1.22394216 0.970196664
v 0.468382418 1.13077509 0.00714558363
v 0.238779247 1.20042455 0.00714558363
v 0.238779247 1.20042455 0.970196664
v 0.468382418 1.13077509 0.970196843
v 0.679985821 1.01767051 0.970196843
v 0.679985821 1.01767051 0.00714558363
v 0.468382418 1.13077509 0.00714558363
v 0.468382418 1.13077509 0.970196843
v 0.865457773 0.865457892 0.970196843
v 0.865457773 0.865457892 0.00714561343
v 0.679985821 1.01767051 0.00714558363
v 0.679985821 1.01767051 0.970196843
v 1.01767051 0.679985881 0.970196843
v 1.01767051 0.679985881 0.00714561343
v 0.865457773 0.865457892 0.00714561343
v 0.865457773 0.865457892 0.970196843
v 1.13077509 0.468382478 0.970196843
v 1.13077509 0.468382329 0.00714564323
v 1.01767051 0.679985881 0.00714561343
v 1.01767051 0.679985881 0.970196843
v 1.20042443 0.238779292 0.970196843
v 1.20042443 0.238779172 0.00714564323
v 1.13077509 0.468382329 0.00714564323
v 1.13077509 0.468382478 0.970196843
v 1.22394216 0 0.970196843
v 1.22394216 0 0.00714567304
v 1.20042443 0.238779172 0.00714564323
v 1.20042443 0.238779292 0.970196843
v 1.20042443 -0.238779172 0.970196843
v 1.20042443 -0.238779292 0.00714570284
v 1.22394216 0 0.00714567304
v 1.22394216 0 0.970196843
v 1.13077509 -0.468382329 0.970196962
v 1.13077509 -0.468382478 0.00714570284
v 1.20042443 -0.238779292 0.00714570284
v 1.20042443 -0.238779172 0.970196843
v 1.01767051 -0.679985821 0.00714573264
v 1.13077509 -0.468382478 0.00714570284
v 1.13077509 -0.468382329 0.970196962
v 1.01767051 -0.679985702 0.970196962
v 0.865457773 -0.865457654 0.970196962
v 0.865457773 -0.865457773 0.00714573264
v 1.01767051 -0.679985821 0.00714573264
v 1.01767051 -0.679985702 0.970196962
v 0.679985821 -1.01767051 0.970196962
v 0.679985821 -1.01767051 0.00714576244
v 0.865457773 -0.865457773 0.00714573264
v 0.865457773 -0.865457654 0.970196962
v 0.468382418 -1.13077509 0.970196962
v 0.468382418 -1.13077509 0.00714576244
v 0.679985821 -1.01767051 0.00714576244
v 0.679985821 -1.01767051 0.970196962
v 0.238779247 -1.20042443 0.970196962
v 0.238779247 -1.20042443 0.00714576244
v 0.468382418 -1.13077509 0.00714576244
v 0.468382418 -1.13077509 0.970196962
v 0 -1.22394216 0.970196962
v 0 -1.22394216 0.00714576244
v 0.238779247 -1.20042443 0.00714576244
v 0.238779247 -1.20042443 0.970196962
v -0.238779247 -1.20042443 0.970196962
v -0.238779247 -1.20042443 0.00714576244
v 0 -1.22394216 0.00714576244
v 0 -1.22394216 0.970196962
v -0.468382418 -1.13077509 0.970196962
v -0.468382418 -1.13077509 0.00714576244
v -0.238779247 -1.20042443 0.00714576244
v -0.238779247 -1.20042443 0.970196962
v -0.679985821 -1.01767051 0.970196962
v -0.679985821 -1.01767051 0.00714576244
v -0.468382418 -1.13077509 0.00714576244
v -0.468382418 -1.13077509 0.970196962
v -0.865457773 -0.865457654 0.970196962
v -0.865457773 -0.865457773 0.00714573264
v -0.679985821 -1.01767051 0.00714576244
v -0.679985821 -1.01767051 0.970196962
v -1.01767051 -0.679985702 0.970196962
v -1.01767051 -0.679985821 0.00714573264
v -0.865457773 -0.865457773 0.00714573264
v -0.865457773 -0.865457654 0.970196962
v -1.13077509 -0.468382329 0.970196962
v -1.13077509 -0.468382478 0.00714570284
v -1.01767051 -0.679985821 0.00714573264
v -1.01767051 -0.679985702 0.970196962
v -1.20042443 -0.238779172 0.970196843
v -1.20042443 -0.238779292 0.00714570284
v -1.13077509 -0.468382478 0.00714570284
v -1.13077509 -0.468382329 0.970196962
v -1.22394216 0 0.970196843
v -1.22394216 0 0.00714567304
v -1.20042443 -0.238779292 0.00714570284
v -1.20042443 -0.238779172 0.970196843
v -1.20042443 0.238779292 0.970196843
v -1.20042443 0.238779172 0.00714564323
v -1.22394216 0 0.00714567304
v -1.22394216 0 0.970196843
v -1.13077509 0.468382478 0.970196843
v -1.13077509 0.468382329 0.00714564323
v -1.20042443 0.238779172 0.00714564323
v -1.20042443 0.238779292 0.970196843
v -1.01767051 0.679985881 0.970196843
v -1.01767051 0.679985881 0.00714561343
v -1.13077509 0.468382329 0.00714564323
v -1.13077509 0.468382478 0.970196843
v -0.865457773 0.865457892 0.970196843
v -0.865457773 0.865457892 0.00714561343
v -1.01767051 0.679985881 0.00714561343
v -1.01767051 0.679985881 0.970196843
v -0.679985821 1.01767051 0.00714558363
v -0.865457773 0.865457892 0.00714561343
v -0.865457773 0.865457892 0.970196843
v -0.679985821 1.01767051 0.970196843
v -0.468382418 1.13077509 0.970196843
v -0.468382418 1.13077509 0.00714558363
v -0.679985821 1.01767051 0.00714558363
v -0.679985821 1.01767051 0.970196843
v -0.238779247 1.20042455 0.970196664
v -0.238779247 1.20042455 0.00714558363
v -0.468382418 1.13077509 0.00714558363
v -0.468382418 1.13077509 0.970196843
v 0 1.22394216 0.970196664
v 0 1.22394216 0.00714558363
v -0.238779247 1.20042455 0.00714558363
v -0.238779247 1.20042455 0.970196664
v 0 1.41174924 1.01123166
v 0 1.41174924 0.970196664
v -0.275418609 1.38462293 0.970196664
v -0.275418609 1.38462293 1.01123166
v -0.275418609 1.38462293 1.01123166
v -0.275418609 1.38462293 0.970196664
v -0.540253103 1.30428636 0.970196664
v -0.540253103 1.30428636 1.01123166
v -0.540253103 1.30428636 1.01123166
v -0.540253103 1.30428636 0.970196664
v -0.784325838 1.17382658 0.970196843
v -0.784325838 1.17382658 1.01123166
v -0.784325838 1.17382658 1.01123166
v -0.784325838 1.17382658 0.970196843
v -0.998257399 0.998257518 0.970196843
v -0.998257399 0.998257518 1.01123166
v -0.998257399 0.998257518 1.01123166
v -0.998257399 0.998257518 0.970196843
v -1.17382658 0.784325898 0.970196843
v -1.17382658 0.784325898 1.01123166
v -1.17382658 0.784325898 1.01123166
v -1.17382658 0.784325898 0.970196843
v -1.30428612 0.540253043 0.970196843
v -1.30428612 0.540253043 1.01123166
v -1.30428612 0.540253043 1.01123166
v -1.30428612 0.540253043 0.970196843
v -1.38462281 0.275418639 0.970196843
v -1.38462281 0.275418639 1.0112319
v -1.38462281 0.275418639 1.0112319
v -1.38462281 0.275418639 0.970196843
v -1.41174924 0 0.970196843
v -1.41174924 0 1.0112319
v -1.41174924 0 1.0112319
v -1.41174924 0 0.970196843
v -1.38462281 -0.275418639 0.970196843
v -1.38462281 -0.275418639 1.0112319
v -1.38462281 -0.275418639 1.0112319
v -1.38462281 -0.275418639 0.970196843
v -1.30428612 -0.540253043 0.970196962
v -1.30428612 -0.540253043 1.0112319
v -1.30428612 -0.540253043 1.0112319
v -1.30428612 -0.540253043 0.970196962
v -1.17382658 -0.784325838 0.970196962
v -1.17382658 -0.784325838 1.0112319
v -1.17382658 -0.784325838 1.0112319
v -1.17382658 -0.784325838 0.970196962
v -0.998257399 -0.998257339 0.970196962
v -0.998257399 -0.998257339 1.0112319
v -0.998257399 -0.998257339 1.0112319
v -0.998257399 -0.998257339 0.970196962
v -0.784325838 -1.17382658 0.970196962
v -0.784325838 -1.17382658 1.0112319
v -0.784325838 -1.17382658 1.0112319
v -0.784325838 -1.17382658 0.970196962
v -0.540253103 -1.30428612 0.970196962
v -0.540253103 -1.30428612 1.0112319
v -0.540253103 -1.30428612 1.0112319
v -0.540253103 -1.30428612 0.970196962
v -0.275418609 -1.38462281 0.970196962
v -0.275418609 -1.38462281 1.0112319
v -0.275418609 -1.38462281 1.0112319
v -0.275418609 -1.38462281 0.970196962
v 0 -1.41174924 0.970196962
v 0 -1.41174924 1.0112319
v 0 -1.41174924 1.0112319
v 0 -1.41174924 0.970196962
v 0.275418609 -1.38462281 0.970196962
v 0.275418609 -1.38462281 1.0112319
v 0.275418609 -1.38462281 1.0112319
v 0.275418609 -1.38462281 0.970196962
v 0.540253103 -1.30428612 0.970196962
v 0.540253103 -1.30428612 1.0112319
v 0.540253103 -1.30428612 1.0112319
v 0.540253103 -1.30428612 0.970196962
v 0.784325838 -1.17382658 0.970196962
v 0.784325838 -1.17382658 1.0112319
v 0.784325838 -1.17382658 1.0112319
v 0.784325838 -1.17382658 0.970196962
v 0.998257399 -0.998257339 0.970196962
v 0.998257399 -0.998257339 1.0112319
v 0.998257399 -0.998257339 1.0112319
v 0.998257399 -0.998257339 0.970196962
v 1.17382658 -0.784325838 0.970196962
v 1.17382658 -0.784325838 1.0112319
v 1.17382658 -0.784325838 1.0112319
v 1.17382658 -0.784325838 0.970196962
v 1.30428612 -0.540253043 0.970196962
v 1.30428612 -0.540253043 1.0112319
v 1.30428612 -0.540253043 1.0112319
v 1.30428612 -0.540253043 0.970196962
v 1.38462281 -0.275418639 0.970196843
v 1.38462281 -0.275418639 1.0112319
v 1.38462281 -0.275418639 1.0112319
v 1.38462281 -0.275418639 0.970196843
v 1.41174924 0 0.970196843
v 1.41174924 0 1.0112319
v 1.41174924 0 1.0112319
v 1.41174924 0 0.970196843
v 1.38462281 0.275418639 0.970196843
v 1.38462281 0.275418639 1.0112319
v 1.38462281 0.275418639 0.970196843
v 1.30428612 0.540253043 0.970196843
v 1.30428612 0.540253043 1.01123166
v 1.38462281 0.275418639 1.0112319
v 1.30428612 0.540253043 1.01123166
v 1.30428612 0.540253043 0.970196843
v 1.17382658 0.784325898 0.970196843
v 1.17382658 0.784325898 1.01123166
v 1.17382658 0.784325898 1.01123166
v 1.17382658 0.784325898 0.970196843
v 0.998257399 0.998257518 0.970196843
v 0.998257399 0.998257518 1.01123166
v 0.998257399 0.998257518 1.01123166
v 0.998257399 0.998257518 0.970196843
v 0.784325838 1.17382658 0.970196843
v 0.784325838 1.17382658 1.01123166
v 0.784325838 1.17382658 1.01123166
v 0.784325838 1.17382658 0.970196843
v 0.540253103 1.30428636 0.970196664
v 0.540253103 1.30428636 1.01123166
v 0.540253103 1.30428636 1.01123166
v 0.540253103 1.30428636 0.970196664
v 0.275418609 1.38462293 0.970196664
v 0.275418609 1.38462293 1.01123166
v 0.275418609 1.38462293 1.01123166
v 0.275418609 1.38462293 0.970196664
v 0 1.41174924 0.970196664
v 0 1.41174924 1.01123166
v 0 1.41174924 0.00714555383
v 0 1.41174924 -0.0237054229
v -0.275418639 1.38462293 -0.0237054229
v -0.275418639 1.38462293 0.00714555383
v -0.275418639 1.38462293 0.00714555383
v -0.275418639 1.38462293 -0.0237054229
v -0.540253103 1.30428636 -0.0237053633
v -0.540253103 1.30428636 0.00714558363
v -0.540253103 1.30428636 0.00714558363
v -0.540253103 1.30428636 -0.0237053633
v -0.784325838 1.17382658 -0.0237053633
v -0.784325838 1.17382658 0.00714558363
v -0.784325838 1.17382658 0.00714558363
v -0.784325838 1.17382658 -0.0237053633
v -0.998257399 0.998257518 -0.0237053633
v -0.998257399 0.998257518 0.00714558363
v -0.998257399 0.998257518 0.00714558363
v -0.998257399 0.998257518 -0.0237053633
v -1.17382658 0.784325898 -0.0237053037
v -1.17382658 0.784325898 0.00714561343
v -1.17382658 0.784325898 0.00714561343
v -1.17382658 0.784325898 -0.0237053037
v -1.30428612 0.540253043 -0.0237053037
v -1.30428612 0.540253043 0.00714564323
v -1.30428612 0.540253043 0.00714564323
v -1.30428612 0.540253043 -0.0237053037
v -1.38462281 0.275418639 -0.0237053037
v -1.38462281 0.275418639 0.00714564323
v -1.38462281 0.275418639 0.00714564323
v -1.38462281 0.275418639 -0.0237053037
v -1.41174924 0 -0.0237053037
v -1.41174924 0 0.00714567304
v -1.41174924 0 0.00714567304
v -1.41174924 0 -0.0237053037
v -1.38462281 -0.275418639 -0.0237052441
v -1.38462281 -0.275418639 0.00714570284
v -1.38462281 -0.275418639 0.00714570284
v -1.38462281 -0.275418639 -0.0237052441
v -1.30428612 -0.540253103 -0.0237052441
v -1.30428612 -0.540253103 0.00714570284
v -1.30428612 -0.540253103 0.00714570284
v -1.30428612 -0.540253103 -0.0237052441
v -1.17382658 -0.784325838 -0.0237051845
v -1.17382658 -0.784325838 0.00714573264
v -1.17382658 -0.784325838 0.00714573264
v -1.17382658 -0.784325838 -0.0237051845
v -0.998257399 -0.998257399 -0.0237051845
v -0.998257399 -0.998257399 0.00714576244
v -0.998257399 -0.998257399 0.00714576244
v -0.998257399 -0.998257399 -0.0237051845
v -0.784325838 -1.17382658 -0.0237051845
v -0.784325838 -1.17382658 0.00714576244
v -0.784325838 -1.17382658 0.00714576244
v -0.784325838 -1.17382658 -0.0237051845
v -0.540253103 -1.30428612 -0.0237051845
v -0.540253103 -1.30428612 0.00714576244
v -0.540253103 -1.30428612 0.00714576244
v -0.540253103 -1.30428612 -0.0237051845
v -0.275418639 -1.38462281 -0.0237051845
v -0.275418639 -1.38462281 0.00714579225
v -0.275418639 -1.38462281 0.00714579225
v -0.275418639 -1.38462281 -0.0237051845
v 0 -1.41174924 -0.0237051845
v 0 -1.41174924 0.00714579225
v 0 -1.41174924 0.00714579225
v 0 -1.41174924 -0.0237051845
v 0.275418639 -1.38462281 -0.0237051845
v 0.275418639 -1.38462281 0.00714579225
v 0.275418639 -1.38462281 0.00714579225
v 0.275418639 -1.38462281 -0.0237051845
v 0.540253103 -1.30428612 -0.0237051845
v 0.540253103 -1.30428612 0.00714576244
v 0.540253103 -1.30428612 0.00714576244
v 0.540253103 -1.30428612 -0.0237051845
v 0.784325838 -1.17382658 -0.0237051845
v 0.784325838 -1.17382658 0.00714576244
v 0.784325838 -1.17382658 0.00714576244
v 0.784325838 -1.17382658 -0.0237051845
v 0.998257399 -0.998257399 -0.0237051845
v 0.998257399 -0.998257399 0.00714576244
v 0.998257399 -0.998257399 0.00714576244
v 0.998257399 -0.998257399 -0.0237051845
v 1.17382658 -0.784325838 -0.0237051845
v 1.17382658 -0.784325838 0.00714573264
v 1.17382658 -0.784325838 0.00714573264
v 1.17382658 -0.784325838 -0.0237051845
v 1.30428612 -0.540253103 -0.0237052441
v 1.30428612 -0.540253103 0.00714570284
v 1.30428612 -0.540253103 0.00714570284
v 1.30428612 -0.540253103 -0.0237052441
v 1.38462281 -0.275418639 -0.0237052441
v 1.38462281 -0.275418639 0.00714570284
v 1.38462281 -0.275418639 -0.0237052441
v 1.41174924 0 -0.0237053037
v 1.41174924 0 0.00714567304
v 1.38462281 -0.275418639 0.00714570284
v 1.41174924 0 0.00714567304
v 1.41174924 0 -0.0237053037
v 1.38462281 0.275418639 -0.0237053037
v 1.38462281 0.275418639 0.00714564323
v 1.38462281 0.275418639 0.00714564323
v 1.38462281 0.275418639 -0.0237053037
v 1.30428612 0.540253043 -0.0237053037
v 1.30428612 0.540253043 0.00714564323
v 1.30428612 0.540253043 0.00714564323
v 1.30428612 0.540253043 -0.0237053037
v 1.17382658 0.784325898 -0.0237053037
v 1.17382658 0.784325898 0.00714561343
v 1.17382658 0.784325898 -0.0237053037
v 0.998257399 0.998257518 -0.0237053633
v 0.998257399 0.998257518 0.00714558363
v 1.17382658 0.784325898 0.00714561343
v 0.998257399 0.998257518 0.00714558363
v 0.998257399 0.998257518 -0.0237053633
v 0.784325838 1.17382658 -0.0237053633
v 0.784325838 1.17382658 0.00714558363
v 0.784325838 1.17382658 0.00714558363
v 0.784325838 1.17382658 -0.0237053633
v 0.540253103 1.30428636 -0.0237053633
v 0.540253103 1.30428636 0.00714558363
v 0.540253103 1.30428636 -0.0237053633
v 0.275418639 1.38462293 -0.0237054229
v 0.275418639 1.38462293 0.00714555383
v 0.540253103 1.30428636 0.00714558363
v 0.275418639 1.38462293 0.00714555383
v 0.275418639 1.38462293 -0.0237054229
v 0 1.41174924 -0.0237054229
v 0 1.41174924 0.00714555383
v 0.238779247 1.20042455 0.970196664
v 0 1.22394216 0.970196664
v 0 1.41174924 0.970196664
v 0.275418609 1.38462293 0.970196664
v 0.468382418 1.13077509 0.970196843
v 0.540253103 1.30428636 0.970196664
v 0.784325838 1.17382658 0.970196843
v 0.679985821 1.01767051 0.970196843
v 0.865457773 0.865457892 0.970196843
v 0.998257399 0.998257518 0.970196843
v 1.17382658 0.784325898 0.970196843
v 1.01767051 0.679985881 0.970196843
v 1.13077509 0.468382478 0.970196843
v 1.30428612 0.540253043 0.970196843
v 1.20042443 0.238779292 0.970196843
v 1.38462281 0.275418639 0.970196843
v 1.22394216 0 0.970196843
v 1.41174924 0 0.970196843
v 1.20042443 -0.238779172 0.970196843
v 1.38462281 -0.275418639 0.970196843
v 1.13077509 -0.468382329 0.970196962
v 1.30428612 -0.540253043 0.970196962
v 1.01767051 -0.679985702 0.970196962
v 1.17382658 -0.784325838 0.970196962
v 0.998257399 -0.998257339 0.970196962
v 0.865457773 -0.865457654 0.970196962
v 0.679985821 -1.01767051 0.970196962
v 0.784325838 -1.17382658 0.970196962
v 0.468382418 -1.13077509 0.970196962
v 0.540253103 -1.30428612 0.970196962
v 0.275418609 -1.38462281 0.970196962
v 0.238779247 -1.20042443 0.970196962
v 0 -1.22394216 0.970196962
v 0 -1.41174924 0.970196962
v -0.238779247 -1.20042443 0.970196962
v -0.275418609 -1.38462281 0.970196962
v -0.468382418 -1.13077509 0.970196962
v -0.540253103 -1.30428612 0.970196962
v -0.679985821 -1.01767051 0.970196962
v -0.784325838 -1.17382658 0.970196962
v -0.865457773 -0.865457654 0.970196962
v -0.998257399 -0.998257339 0.970196962
v -1.01767051 -0.679985702 0.970196962
v -1.17382658 -0.784325838 0.970196962
v -1.13077509 -0.468382329 0.970196962
v -1.30428612 -0.540253043 0.970196962
v -1.38462281 -0.275418639 0.970196843
v -1.20042443 -0.238779172 0.970196843
v -1.22394216 0 0.970196843
v -1.41174924 0 0.970196843
v -1.38462281 0.275418639 0.970196843
v -1.20042443 0.238779292 0.970196843
v -1.13077509 0.468382478 0.970196843
v -1.30428612 0.540253043 0.970196843
v -1.01767051 0.679985881 0.970196843
v -1.17382658 0.784325898 0.970196843
v -0.865457773 0.865457892 0.970196843
v -0.998257399 0.998257518 0.970196843
v -0.784325838 1.17382658 0.970196843
v -0.679985821 1.01767051 0.970196843
v -0.468382418 1.13077509 0.970196843
v -0.540253103 1.30428636 0.970196664
v -0.238779247 1.20042455 0.970196664
v -0.275418609 1.38462293 0.970196664
v 0 1.41174924 0.970196664
v 0 1.22394216 0.970196664
v -0.238779247 1.20042455 0.00714558363
v 0 1.22394216 0.00714558363
v 0 1.41174924 0.00714555383
v -0.275418639 1.38462293 0.00714555383
v -0.468382418 1.13077509 0.00714558363
v -0.540253103 1.30428636 0.00714558363
v -0.784325838 1.17382658 0.00714558363
v -0.679985821 1.01767051 0.00714558363
v -0.865457773 0.865457892 0.00714561343
v -0.998257399 0.998257518 0.00714558363
v -1.17382658 0.784325898 0.00714561343
v -1.01767051 0.679985881 0.00714561343
v -1.30428612 0.540253043 0.00714564323
v -1.13077509 0.468382329 0.00714564323
v -1.38462281 0.275418639 0.00714564323
v -1.20042443 0.238779172 0.00714564323
v -1.22394216 0 0.00714567304
v -1.41174924 0 0.00714567304
v -1.38462281 -0.275418639 0.00714570284
v -1.20042443 -0.238779292 0.00714570284
v -1.13077509 -0.468382478 0.00714570284
v -1.30428612 -0.540253103 0.00714570284
v -1.17382658 -0.784325838 0.00714573264
v -1.01767051 -0.679985821 0.00714573264
v -0.998257399 -0.998257399 0.00714576244
v -0.865457773 -0.865457773 0.00714573264
v -0.784325838 -1.17382658 0.00714576244
v -0.679985821 -1.01767051 0.00714576244
v -0.468382418 -1.13077509 0.00714576244
v -0.540253103 -1.30428612 0.00714576244
v -0.275418639 -1.38462281 0.00714579225
v -0.238779247 -1.20042443 0.00714576244
v 0 -1.22394216 0.00714576244
v 0 -1.41174924 0.00714579225
v 0.238779247 -1.20042443 0.00714576244
v 0.275418639 -1.38462281 0.00714579225
v 0.468382418 -1.13077509 0.00714576244
v 0.540253103 -1.30428612 0.00714576244
v 0.679985821 -1.01767051 0.00714576244
v 0.784325838 -1.17382658 0.00714576244
v 0.865457773 -0.865457773 0.00714573264
v 0.998257399 -0.998257399 0.00714576244
v 1.01767051 -0.679985821 0.00714573264
v 1.17382658 -0.784325838 0.00714573264
v 1.13077509 -0.468382478 0.00714570284
v 1.30428612 -0.540253103 0.00714570284
v 1.20042443 -0.238779292 0.00714570284
v 1.38462281 -0.275418639 0.00714570284
v 1.22394216 0 0.00714567304
v 1.41174924 0 0.00714567304
v 1.20042443 0.238779172 0.00714564323
v 1.38462281 0.275418639 0.00714564323
v 1.13077509 0.468382329 0.00714564323
v 1.30428612 0.540253043 0.00714564323
v 1.01767051 0.679985881 0.00714561343
v 1.17382658 0.784325898 0.00714561343
v 0.865457773 0.865457892 0.00714561343
v 0.998257399 0.998257518 0.00714558363
v 0.784325838 1.17382658 0.00714558363
v 0.679985821 1.01767051 0.00714558363
v 0.468382418 1.13077509 0.00714558363
v 0.540253103 1.30428636 0.00714558363
v 0.238779247 1.20042455 0.00714558363
v 0.275418639 1.38462293 0.00714555383
v 0 1.22394216 0.00714558363
v 0 1.41174924 0.00714555383
v 0 -1.22394216 -0.0237051845
v 0.238779247 -1.20042443 -0.0237051845
v 0.275418639 -1.38462281 -0.0237051845
v 0.468382418 -1.13077509 -0.0237051845
v 0 -1.41174924 -0.0237051845
v 0.540253103 -1.30428612 -0.0237051845
v -0.238779247 -1.20042443 -0.0237051845
v -0.275418639 -1.38462281 -0.0237051845
v -0.468382418 -1.13077509 -0.0237051845
v -0.540253103 -1.30428612 -0.0237051845
v -0.679985821 -1.01767051 -0.0237051845
v -0.784325838 -1.17382658 -0.0237051845
v -0.865457773 -0.865457773 -0.0237051845
v -0.998257399 -0.998257399 -0.0237051845
v -1.01767051 -0.679985821 -0.0237051845
v -1.17382658 -0.784325838 -0.0237051845
v -1.13077509 -0.468382478 -0.0237052441
v -1.30428612 -0.540253103 -0.0237052441
v -1.20042443 -0.238779292 -0.0237052441
v -1.38462281 -0.275418639 -0.0237052441
v -1.22394216 0 -0.0237053037
v -1.41174924 0 -0.0237053037
v -1.20042443 0.238779172 -0.0237053037
v -1.38462281 0.275418639 -0.0237053037
v -1.13077509 0.468382329 -0.0237053037
v -1.30428612 0.540253043 -0.0237053037
v -1.01767051 0.679985881 -0.0237053037
v -1.17382658 0.784325898 -0.0237053037
v -0.865457773 0.865457892 -0.0237053037
v -0.998257399 0.998257518 -0.0237053633
v -0.784325838 1.17382658 -0.0237053633
v -0.679985821 1.01767051 -0.0237053633
v -0.468382418 1.13077509 -0.0237053633
v -0.540253103 1.30428636 -0.0237053633
v -0.238779247 1.20042455 -0.0237053633
v -0.275418639 1.38462293 -0.0237054229
v 0 1.22394216 -0.0237053633
v 0 1.41174924 -0.0237054229
v 0.238779247 1.20042455 -0.0237053633
v 0.275418639 1.38462293 -0.0237054229
v 0.468382418 1.13077509 -0.0237053633
v 0.540253103 1.30428636 -0.0237053633
v 0.784325838 1.17382658 -0.0237053633
v 0.679985821 1.01767051 -0.0237053633
v 0.865457773 0.865457892 -0.0237053037
v 0.998257399 0.998257518 -0.0237053633
v 1.17382658 0.784325898 -0.0237053037
v 1.01767051 0.679985881 -0.0237053037
v 1.30428612 0.540253043 -0.0237053037
v 1.13077509 0.468382329 -0.0237053037
v 1.38462281 0.275418639 -0.0237053037
v 1.20042443 0.238779172 -0.0237053037
v 1.22394216 0 -0.0237053037
v 1.41174924 0 -0.0237053037
v 1.38462281 -0.275418639 -0.0237052441
v 1.20042443 -0.238779292 -0.0237052441
v 1.13077509 -0.468382478 -0.0237052441
v 1.30428612 -0.540253103 -0.0237052441
v 1.17382658 -0.784325838 -0.0237051845
v 1.01767051 -0.679985821 -0.0237051845
v 0.998257399 -0.998257399 -0.0237051845
v 0.865457773 -0.865457773 -0.0237051845
v 0.784325838 -1.17382658 -0.0237051845
v 0.679985821 -1.01767051 -0.0237051845
v -0.468382418 -1.13077509 1.0112319
v -0.540253103 -1.30428612 1.0112319
v -0.275418609 -1.38462281 1.0112319
v -0.784325838 -1.17382658 1.0112319
v -0.238779247 -1.20042443 1.0112319
v -0.679985821 -1.01767051 1.0112319
v 0 -1.22394216 1.0112319
v 0 -1.41174924 1.0112319
v 0.238779247 -1.20042443 1.0112319
v 0.275418609 -1.38462281 1.0112319
v 0.468382418 -1.13077509 1.0112319
v 0.540253103 -1.30428612 1.0112319
v 0.679985821 -1.01767051 1.0112319
v 0.784325838 -1.17382658 1.0112319
v 0.865457773 -0.865457654 1.0112319
v 0.998257399 -0.998257339 1.0112319
v 1.01767051 -0.679985702 1.0112319
v 1.17382658 -0.784325838 1.0112319
v -0.998257399 -0.998257339 1.0112319
v -0.865457773 -0.865457654 1.0112319
v 1.13077509 -0.468382329 1.0112319
v 1.30428612 -0.540253043 1.0112319
v -1.01767051 -0.679985702 1.0112319
v -1.17382658 -0.784325838 1.0112319
v -1.30428612 -0.540253043 1.0112319
v -1.13077509 -0.468382329 1.0112319
v -1.38462281 -0.275418639 1.0112319
v -1.20042443 -0.238779172 1.0112319
v -1.41174924 0 1.0112319
v -1.22394216 0 1.0112319
v -1.38462281 0.275418639 1.0112319
v -1.20042443 0.238779292 1.0112319
v -1.30428612 0.540253043 1.01123166
v -1.13077509 0.468382478 1.01123166
v -1.17382658 0.784325898 1.01123166
v -1.01767051 0.679985881 1.01123166
v -0.865457773 0.865457892 1.01123166
v -0.998257399 0.998257518 1.01123166
v -0.784325838 1.17382658 1.01123166
v -0.679985821 1.01767051 1.01123166
v -0.468382418 1.13077509 1.01123166
v -0.540253103 1.30428636 1.01123166
v -0.275418609 1.38462293 1.01123166
v -0.238779247 1.20042455 1.01123166
v 0 1.41174924 1.01123166
v 0 1.22394216 1.01123166
v 0.238779247 1.20042455 1.01123166
v 0.275418609 1.38462293 1.01123166
v 0.540253103 1.30428636 1.01123166
v 0.468382418 1.13077509 1.01123166
v 0.784325838 1.17382658 1.01123166
v 0.679985821 1.01767051 1.01123166
v 0.865457773 0.865457892 1.01123166
v 0.998257399 0.998257518 1.01123166
v 1.17382658 0.784325898 1.01123166
v 1.01767051 0.679985881 1.01123166
v 1.30428612 0.540253043 1.01123166
v 1.13077509 0.468382478 1.01123166
v 1.38462281 0.275418639 1.0112319
v 1.20042443 0.238779292 1.0112319
v 1.22394216 0 1.0112319
v 1.41174924 0 1.0112319
v 1.38462281 -0.275418639 1.0112319
v 1.20042443 -0.238779172 1.0112319
vn 0.0980162546 -0.995184839 0
vn 0.0980162546 -0.995184839 0
vn 0.0980162546 -0.995184839 0
vn 0.290284455 -0.956940353 0
vn 0.290284455 -0.956940353 0
vn 0.290284455 -0.956940353 0
vn 0.471397221 -0.881921053 0
vn 0.471397221 -0.881921053 0
vn 0.471397221 -0.881921053 0
vn 0.63439256 -0.773011029 0
vn 0.63439256 -0.773011029 0
vn 0.63439256 -0.773011029 0
vn 0.773010671 -0.634393036 0
vn 0.773010671 -0.634393036 0
vn 0.773010671 -0.634393036 0
vn 0.881921113 -0.471397042 0
vn 0.881921113 -0.471397042 0
vn 0.881921113 -0.471397042 0
vn 0.956940353 -0.290284634 2.00379887E-07
vn 0.956940353 -0.290284634 2.00379887E-07
vn 0.956940353 -0.290284634 2.00379887E-07
vn 0.99518472 -0.0980172157 0
vn 0.99518472 -0.0980172157 0
vn 0.99518472 -0.0980172157 0
vn 0.99518472 0.0980172604 0
vn 0.99518472 0.0980172604 0
vn 0.99518472 0.0980172604 0
vn 0.956940353 0.290284514 1.30746017E-07
vn 0.956940353 0.290284514 1.30746017E-07
vn 0.956940353 0.290284514 1.30746017E-07
vn 0.881921113 0.471397042 -1.16138892E-07
vn 0.881921113 0.471397042 -1.16138892E-07
vn 0.881921113 0.471397042 -1.16138892E-07
vn 0.773010492 0.634393275 0
vn 0.773010492 0.634393275 0
vn 0.773010492 0.634393275 0
vn 0.634393454 0.773010314 0
vn 0.634393454 0.773010314 0
vn 0.634393454 0.773010314 0
vn 0.471397221 0.881921053 0
vn 0.471397221 0.881921053 0
vn 0.471397221 0.881921053 0
vn 0.290283591 0.956940651 0
vn 0.290283591 0.956940651 0
vn 0.290283591 0.956940651 0
vn -0.290285408 0.956940114 0
vn -0.290285408 0.956940114 0
vn -0.290285408 0.956940114 0
vn -0.471396446 0.881921411 0
vn -0.471396446 0.881921411 0
vn -0.471396446 0.881921411 0
vn -0.634393156 0.773010492 0
vn -0.634393156 0.773010492 0
vn -0.634393156 0.773010492 0
vn -0.773010731 0.634392977 0
vn -0.773010731 0.634392977 0
vn -0.773010731 0.634392977 0
vn -0.881921053 0.471397221 0
vn -0.881921053 0.471397221 0
vn -0.881921053 0.471397221 0
vn -0.956940353 0.290284514 0
vn -0.956940353 0.290284514 0
vn -0.956940353 0.290284514 0
vn -0.99518472 0.0980172679 0
vn -0.99518472 0.0980172679 0
vn -0.99518472 0.0980172679 0
vn -0.99518472 -0.0980172157 0
vn -0.99518472 -0.0980172157 0
vn -0.99518472 -0.0980172157 0
vn -0.956940353 -0.290284663 1.19198411E-07
vn -0.956940353 -0.290284663 1.19198411E-07
vn -0.956940353 -0.290284663 1.19198411E-07
vn -0.881921113 -0.471397042 0
vn -0.881921113 -0.471397042 0
vn -0.881921113 -0.471397042 0
vn -0.773010433 -0.634393275 0
vn -0.773010433 -0.634393275 0
vn -0.773010433 -0.634393275 0
vn -0.63439256 -0.773011029 0
vn -0.63439256 -0.773011029 0
vn -0.63439256 -0.773011029 0
vn -0.471397996 -0.881920576 0
vn -0.471397996 -0.881920576 0
vn -0.471397996 -0.881920576 0
vn -0.290285408 -0.956940114 0
vn -0.290285408 -0.956940114 0
vn -0.290285408 -0.956940114 0
vn -0.0980172455 -0.99518472 0
vn -0.0980172455 -0.99518472 0
vn -0.0980172455 -0.99518472 0
vn 0.0980172381 -0.99518472 0
vn 0.0980172381 -0.99518472 0
vn 0.0980172381 -0.99518472 0
vn 0.290285408 -0.956940114 0
vn 0.290285408 -0.956940114 0
vn 0.290285408 -0.956940114 0
vn 0.471397996 -0.881920576 0
vn 0.471397996 -0.881920576 0
vn 0.471397996 -0.881920576 0
vn 0.63439256 -0.773011029 0
vn 0.63439256 -0.773011029 0
vn 0.63439256 -0.773011029 0
vn 0.773010492 -0.634393275 0
vn 0.773010492 -0.634393275 0
vn 0.773010492 -0.634393275 0
vn 0.881921232 -0.471396774 0
vn 0.881921232 -0.471396774 0
vn 0.881921232 -0.471396774 0
vn 0.956940353 -0.290284634 -2.49944435E-07
vn 0.956940353 -0.290284634 -2.49944435E-07
vn 0.956940353 -0.290284634 -2.49944435E-07
vn 0.99518472 -0.0980172679 0
vn 0.99518472 -0.0980172679 0
vn 0.99518472 -0.0980172679 0
vn 0.99518472 0.0980172157 0
vn 0.99518472 0.0980172157 0
vn 0.99518472 0.0980172157 0
vn 0.956940353 0.290284634 -2.49944435E-07
vn 0.956940353 0.290284634 -2.49944435E-07
vn 0.956940353 0.290284634 -2.49944435E-07
vn 0.881921053 0.471397221 0
vn 0.881921053 0.471397221 0
vn 0.881921053 0.471397221 0
vn 0.773010671 0.634393036 -1.24972217E-07
vn 0.773010671 0.634393036 -1.24972217E-07
vn 0.773010671 0.634393036 -1.24972217E-07
vn 0.634393156 0.773010492 0
vn 0.634393156 0.773010492 0
vn 0.634393156 0.773010492 0
vn 0.471396506 0.881921411 0
vn 0.471396506 0.881921411 0
vn 0.471396506 0.881921411 0
vn 0.290285408 0.956940114 0
vn 0.290285408 0.956940114 0
vn 0.290285408 0.956940114 0
vn -0.290283591 0.956940651 0
vn -0.290283591 0.956940651 0
vn -0.290283591 0.956940651 0
vn -0.471397281 0.881921053 0
vn -0.471397281 0.881921053 0
vn -0.471397281 0.881921053 0
vn -0.634393454 0.773010314 0
vn -0.634393454 0.773010314 0
vn -0.634393454 0.773010314 0
vn -0.773010433 0.634393275 -1.24972274E-07
vn -0.773010433 0.634393275 -1.24972274E-07
vn -0.773010433 0.634393275 -1.24972274E-07
vn -0.881921113 0.471397042 -1.16138892E-07
vn -0.881921113 0.471397042 -1.16138892E-07
vn -0.881921113 0.471397042 -1.16138892E-07
vn -0.956940353 0.290284663 0
vn -0.956940353 0.290284663 0
vn -0.956940353 0.290284663 0
vn -0.99518472 0.0980172232 0
vn -0.99518472 0.0980172232 0
vn -0.99518472 0.0980172232 0
vn -0.99518472 -0.0980172679 0
vn -0.99518472 -0.0980172679 0
vn -0.99518472 -0.0980172679 0
vn -0.956940353 -0.290284574 0
vn -0.956940353 -0.290284574 0
vn -0.956940353 -0.290284574 0
vn -0.881921232 -0.471396774 0
vn -0.881921232 -0.471396774 0
vn -0.881921232 -0.471396774 0
vn -0.773010731 -0.634392977 0
vn -0.773010731 -0.634392977 0
vn -0.773010731 -0.634392977 0
vn -0.63439256 -0.773011029 0
vn -0.63439256 -0.773011029 0
vn -0.63439256 -0.773011029 0
vn -0.471397221 -0.881921053 0
vn -0.471397221 -0.881921053 0
vn -0.471397221 -0.881921053 0
vn -0.290284455 -0.956940353 0
vn -0.290284455 -0.956940353 0
vn -0.290284455 -0.956940353 0
vn -0.0980162546 -0.995184839 0
vn -0.0980162546 -0.995184839 0
vn -0.0980162546 -0.995184839 0
vn 0.0980172306 0.99518472 0
vn 0.0980172306 0.99518472 0
vn 0.0980172306 0.99518472 0
vn 0.0980172306 0.99518472 0
vn -0.0980172306 0.99518472 0
vn -0.0980172306 0.99518472 0
vn -0.0980172306 0.99518472 0
vn -0.0980172306 0.99518472 0
vn 0.0980163738 0.995184839 0
vn 0.0980163738 0.995184839 0
vn 0.0980163738 0.995184839 0
vn 0.0980173945 0.99518472 0
vn 0.290284961 0.956940234 0
vn 0.290284961 0.956940234 0
vn 0.290284961 0.956940234 0
vn 0.290285081 0.956940234 0
vn 0.471397221 0.881921053 0
vn 0.471397221 0.881921053 0
vn 0.471397221 0.881921053 0
vn 0.471397638 0.881920755 0
vn 0.634392798 0.77301085 0
vn 0.634392798 0.77301085 0
vn 0.634392798 0.77301085 0
vn 0.634392619 0.773011029 0
vn 0.773010552 0.634393096 0
vn 0.773010552 0.634393096 0
vn 0.773010552 0.634393096 0
vn 0.773010552 0.634393096 0
vn 0.881921113 0.471396863 0
vn 0.881921113 0.471396863 0
vn 0.881921113 0.471396863 0
vn 0.881921113 0.471396923 0
vn 0.956940353 0.290284574 0
vn 0.956940353 0.290284574 0
vn 0.956940353 0.290284574 0
vn 0.956940353 0.290284634 -1.23016903E-07
vn 0.99518472 0.0980172679 0
vn 0.99518472 0.0980172679 0
vn 0.99518472 0.0980172679 0
vn 0.99518472 0.0980172157 0
vn 0.99518472 -0.0980172232 0
vn 0.99518472 -0.0980172232 0
vn 0.99518472 -0.0980172232 0
vn 0.99518472 -0.0980172679 0
vn 0.956940353 -0.290284634 0
vn 0.956940353 -0.290284634 0
vn 0.956940353 -0.290284634 0
vn 0.956940353 -0.290284514 0
vn 0.881920934 -0.47139746 0
vn 0.881920934 -0.47139746 0
vn 0.881920934 -0.47139746 0
vn 0.881921113 -0.471396923 1.28975657E-07
vn 0.773010552 -0.634393096 1.28975685E-07
vn 0.773010552 -0.634393096 1.28975685E-07
vn 0.773010552 -0.634393096 1.28975685E-07
vn 0.773010671 -0.634393096 0
vn 0.634393454 -0.773010373 0
vn 0.634393454 -0.773010373 0
vn 0.634393454 -0.773010373 0
vn 0.634393275 -0.773010433 0
vn 0.471396893 -0.881921232 0
vn 0.471396893 -0.881921232 0
vn 0.471396893 -0.881921232 0
vn 0.471396893 -0.881921232 0
vn 0.290284038 -0.956940591 0
vn 0.290284038 -0.956940591 0
vn 0.290284038 -0.956940591 0
vn 0.290285885 -0.956939995 0
vn 0.0980173871 -0.99518472 0
vn 0.0980173871 -0.99518472 0
vn 0.0980173871 -0.99518472 0
vn 0.0980163589 -0.995184839 0
vn -0.0980163589 -0.995184839 0
vn -0.0980163589 -0.995184839 0
vn -0.0980163589 -0.995184839 0
vn -0.0980173871 -0.99518472 0
vn -0.290285945 -0.956939995 0
vn -0.290285945 -0.956939995 0
vn -0.290285945 -0.956939995 0
vn -0.290284038 -0.956940591 0
vn -0.471396893 -0.881921232 0
vn -0.471396893 -0.881921232 0
vn -0.471396893 -0.881921232 0
vn -0.471396893 -0.881921232 0
vn -0.634393454 -0.773010373 0
vn -0.634393454 -0.773010373 0
vn -0.634393454 -0.773010373 0
vn -0.634393275 -0.773010433 0
vn -0.773010552 -0.634393096 1.28975685E-07
vn -0.773010552 -0.634393096 1.28975685E-07
vn -0.773010552 -0.634393096 1.28975685E-07
vn -0.773010671 -0.634393096 0
vn -0.881920934 -0.47139731 0
vn -0.881920934 -0.47139731 0
vn -0.881920934 -0.47139731 0
vn -0.881921113 -0.471396923 1.19859337E-07
vn -0.956940353 -0.290284574 2.57951342E-07
vn -0.956940353 -0.290284574 2.57951342E-07
vn -0.956940353 -0.290284574 2.57951342E-07
vn -0.956940353 -0.290284514 -1.34934396E-07
vn -0.99518472 -0.0980172157 0
vn -0.99518472 -0.0980172157 0
vn -0.99518472 -0.0980172157 0
vn -0.99518472 -0.0980172753 0
vn -0.99518472 0.0980172679 0
vn -0.99518472 0.0980172679 0
vn -0.99518472 0.0980172679 0
vn -0.99518472 0.0980172157 0
vn -0.956940353 0.290284663 2.57951342E-07
vn -0.956940353 0.290284663 2.57951342E-07
vn -0.956940353 0.290284663 2.57951342E-07
vn -0.956940353 0.290284574 -2.06798944E-07
vn -0.881921232 0.471396834 0
vn -0.881921232 0.471396834 0
vn -0.881921232 0.471396834 0
vn -0.881921053 0.471397042 0
vn -0.773010552 0.634393096 0
vn -0.773010552 0.634393096 0
vn -0.773010552 0.634393096 0
vn -0.773010552 0.634393096 0
vn -0.634392977 0.773010731 0
vn -0.634392977 0.773010731 0
vn -0.634392977 0.773010731 0
vn -0.634392619 0.773011029 0
vn -0.471397638 0.881920755 0
vn -0.471397638 0.881920755 0
vn -0.471397638 0.881920755 0
vn -0.471397281 0.881921053 0
vn -0.290284961 0.956940234 0
vn -0.290284961 0.956940234 0
vn -0.290284961 0.956940234 0
vn -0.290284932 0.956940234 0
vn -0.098017402 0.99518472 0
vn -0.098017402 0.99518472 0
vn -0.098017402 0.99518472 0
vn -0.0980163738 0.995184839 0
vn -0.0980169922 0.99518472 0
vn -0.0980169922 0.99518472 0
vn -0.0980169922 0.99518472 0
vn -0.098016493 0.995184839 0
vn -0.290284127 0.956940472 0
vn -0.290284127 0.956940472 0
vn -0.290284127 0.956940472 0
vn -0.290284127 0.956940472 0
vn -0.471396983 0.881921113 0
vn -0.471396983 0.881921113 0
vn -0.471396983 0.881921113 0
vn -0.471398443 0.881920278 0
vn -0.634393573 0.773010135 0
vn -0.634393573 0.773010135 0
vn -0.634393573 0.773010135 0
vn -0.634392381 0.773011208 0
vn -0.773010433 0.634393275 0
vn -0.773010433 0.634393275 0
vn -0.773010433 0.634393275 0
vn -0.773010671 0.634392977 0
vn -0.881921113 0.471396923 0
vn -0.881921113 0.471396923 0
vn -0.881921113 0.471396923 0
vn -0.881921232 0.471396893 0
vn -0.956940353 0.290284634 0
vn -0.956940353 0.290284634 0
vn -0.956940353 0.290284634 0
vn -0.956940472 0.290284306 0
vn -0.99518472 0.0980174318 0
vn -0.99518472 0.0980174318 0
vn -0.99518472 0.0980174318 0
vn -0.99518472 0.0980174318 0
vn -0.99518472 -0.0980174318 0
vn -0.99518472 -0.0980174318 0
vn -0.99518472 -0.0980174318 0
vn -0.99518472 -0.0980174318 0
vn -0.956940472 -0.290284306 0
vn -0.956940472 -0.290284306 0
vn -0.956940472 -0.290284306 0
vn -0.956940114 -0.290285081 0
vn -0.881920636 -0.471397936 0
vn -0.881920636 -0.471397936 0
vn -0.881920636 -0.471397936 0
vn -0.881921709 -0.471396089 0
vn -0.773010194 -0.634393573 0
vn -0.773010194 -0.634393573 0
vn -0.773010194 -0.634393573 0
vn -0.773010194 -0.634393573 0
vn -0.634393454 -0.773010194 0
vn -0.634393454 -0.773010194 0
vn -0.634393454 -0.773010194 0
vn -0.634393871 -0.773009956 0
vn -0.471396238 -0.88192147 0
vn -0.471396238 -0.88192147 0
vn -0.471396238 -0.88192147 0
vn -0.471398383 -0.881920397 0
vn -0.290284127 -0.956940472 0
vn -0.290284127 -0.956940472 0
vn -0.290284127 -0.956940472 0
vn -0.290284127 -0.956940472 0
vn -0.0980169922 -0.99518472 0
vn -0.0980169922 -0.99518472 0
vn -0.0980169922 -0.99518472 0
vn -0.0980171338 -0.99518472 0
vn 0.0980176553 -0.99518472 0
vn 0.0980176553 -0.99518472 0
vn 0.0980176553 -0.99518472 0
vn 0.098016493 -0.995184839 0
vn 0.290284127 -0.956940472 0
vn 0.290284127 -0.956940472 0
vn 0.290284127 -0.956940472 0
vn 0.290284127 -0.956940472 0
vn 0.47139731 -0.881920934 0
vn 0.47139731 -0.881920934 0
vn 0.47139731 -0.881920934 0
vn 0.47139737 -0.881920934 0
vn 0.634393871 -0.773009956 0
vn 0.634393871 -0.773009956 0
vn 0.634393871 -0.773009956 0
vn 0.634393454 -0.773010194 0
vn 0.773010194 -0.634393573 0
vn 0.773010194 -0.634393573 0
vn 0.773010194 -0.634393573 0
vn 0.773010194 -0.634393573 0
vn 0.881920576 -0.471398056 0
vn 0.881920576 -0.471398056 0
vn 0.881920576 -0.471398056 0
vn 0.881921709 -0.47139588 0
vn 0.956940114 -0.290285081 0
vn 0.956940114 -0.290285081 0
vn 0.956940114 -0.290285081 0
vn 0.956940472 -0.290284306 0
vn 0.99518472 -0.0980174318 0
vn 0.99518472 -0.0980174318 0
vn 0.99518472 -0.0980174318 0
vn 0.99518472 -0.0980174318 0
vn 0.99518472 0.0980174318 0
vn 0.99518472 0.0980174318 0
vn 0.99518472 0.0980174318 0
vn 0.99518472 0.0980174318 0
vn 0.956940353 0.290284634 0
vn 0.956940353 0.290284634 0
vn 0.956940353 0.290284634 0
vn 0.956940472 0.290284276 0
vn 0.881921232 0.471396893 0
vn 0.881921232 0.471396893 0
vn 0.881921232 0.471396893 0
vn 0.881921113 0.471396923 0
vn 0.773010671 0.634392977 0
vn 0.773010671 0.634392977 0
vn 0.773010671 0.634392977 0
vn 0.773010433 0.634393275 0
vn 0.634393573 0.773010135 0
vn 0.634393573 0.773010135 0
vn 0.634393573 0.773010135 0
vn 0.634392381 0.773011208 0
vn 0.471397042 0.881921053 0
vn 0.471397042 0.881921053 0
vn 0.471397042 0.881921053 0
vn 0.471398383 0.881920397 0
vn 0.290284127 0.956940472 0
vn 0.290284127 0.956940472 0
vn 0.290284127 0.956940472 0
vn 0.290284127 0.956940472 0
vn 0.0980169922 0.99518472 0
vn 0.0980169922 0.99518472 0
vn 0.0980169922 0.99518472 0
vn 0.098016493 0.995184839 0
vn -0.0980176106 0.99518472 0
vn -0.0980176106 0.99518472 0
vn -0.0980176106 0.99518472 0
vn -0.0980167463 0.99518472 0
vn -0.290284425 0.956940472 0
vn -0.290284425 0.956940472 0
vn -0.290284425 0.956940472 0
vn -0.290284246 0.956940472 0
vn -0.471397549 0.881920874 0
vn -0.471397549 0.881920874 0
vn -0.471397549 0.881920874 0
vn -0.471396774 0.881921232 0
vn -0.634393513 0.773010314 0
vn -0.634393513 0.773010314 0
vn -0.634393513 0.773010314 0
vn -0.634393156 0.773010492 0
vn -0.773010433 0.634393394 0
vn -0.773010433 0.634393394 0
vn -0.773010433 0.634393394 0
vn -0.773010433 0.634393394 0
vn -0.881921232 0.471396893 0
vn -0.881921232 0.471396893 0
vn -0.881921232 0.471396893 0
vn -0.881921411 0.471396506 0
vn -0.956940353 0.290284455 0
vn -0.956940353 0.290284455 0
vn -0.956940353 0.290284455 0
vn -0.956940353 0.290284514 0
vn -0.99518472 0.0980173647 0
vn -0.99518472 0.0980173647 0
vn -0.99518472 0.0980173647 0
vn -0.99518472 0.0980173647 0
vn -0.99518472 -0.0980173573 0
vn -0.99518472 -0.0980173573 0
vn -0.99518472 -0.0980173573 0
vn -0.99518472 -0.0980173647 0
vn -0.956940353 -0.290284455 0
vn -0.956940353 -0.290284455 0
vn -0.956940353 -0.290284455 0
vn -0.956940472 -0.290284425 0
vn -0.881921232 -0.471396834 0
vn -0.881921232 -0.471396834 0
vn -0.881921232 -0.471396834 0
vn -0.881921053 -0.471397042 0
vn -0.773010433 -0.634393394 0
vn -0.773010433 -0.634393394 0
vn -0.773010433 -0.634393394 0
vn -0.773010433 -0.634393275 0
vn -0.634393454 -0.773010314 0
vn -0.634393454 -0.773010314 0
vn -0.634393454 -0.773010314 0
vn -0.634393454 -0.773010314 0
vn -0.471396089 -0.881921589 0
vn -0.471396089 -0.881921589 0
vn -0.471396089 -0.881921589 0
vn -0.471397549 -0.881920874 0
vn -0.290284246 -0.956940472 0
vn -0.290284246 -0.956940472 0
vn -0.290284246 -0.956940472 0
vn -0.290284008 -0.956940591 0
vn -0.0980176106 -0.99518472 0
vn -0.0980176106 -0.99518472 0
vn -0.0980176106 -0.99518472 0
vn -0.0980176106 -0.99518472 0
vn 0.0980176106 -0.99518472 0
vn 0.0980176106 -0.99518472 0
vn 0.0980176106 -0.99518472 0
vn 0.0980176106 -0.99518472 0
vn 0.290284008 -0.956940591 0
vn 0.290284008 -0.956940591 0
vn 0.290284008 -0.956940591 0
vn 0.290284246 -0.956940472 0
vn 0.471397489 -0.881920874 0
vn 0.471397489 -0.881920874 0
vn 0.471397489 -0.881920874 0
vn 0.471396148 -0.881921589 0
vn 0.634393454 -0.773010314 0
vn 0.634393454 -0.773010314 0
vn 0.634393454 -0.773010314 0
vn 0.634393454 -0.773010314 0
vn 0.773010314 -0.634393454 0
vn 0.773010314 -0.634393454 0
vn 0.773010314 -0.634393454 0
vn 0.773010552 -0.634393096 0
vn 0.881921113 -0.471397042 0
vn 0.881921113 -0.471397042 0
vn 0.881921113 -0.471397042 0
vn 0.881921232 -0.471396834 0
vn 0.956940472 -0.290284395 0
vn 0.956940472 -0.290284395 0
vn 0.956940472 -0.290284395 0
vn 0.956940353 -0.290284455 0
vn 0.99518472 -0.0980173573 0
vn 0.99518472 -0.0980173573 0
vn 0.99518472 -0.0980173573 0
vn 0.99518472 -0.0980173647 0
vn 0.99518472 0.0980173722 0
vn 0.99518472 0.0980173722 0
vn 0.99518472 0.0980173722 0
vn 0.99518472 0.0980173498 0
vn 0.956940353 0.290284514 0
vn 0.956940353 0.290284514 0
vn 0.956940353 0.290284514 0
vn 0.956940353 0.290284455 0
vn 0.881921291 0.471396595 0
vn 0.881921291 0.471396595 0
vn 0.881921291 0.471396595 0
vn 0.881921291 0.471396595 0
vn 0.773010314 0.634393454 0
vn 0.773010314 0.634393454 0
vn 0.773010314 0.634393454 0
vn 0.773010433 0.634393275 0
vn 0.634393275 0.773010492 0
vn 0.634393275 0.773010492 0
vn 0.634393275 0.773010492 0
vn 0.634393454 0.773010314 0
vn 0.471396834 0.881921232 0
vn 0.471396834 0.881921232 0
vn 0.471396834 0.881921232 0
vn 0.471397489 0.881920874 0
vn 0.290284008 0.956940591 0
vn 0.290284008 0.956940591 0
vn 0.290284008 0.956940591 0
vn 0.290284038 0.956940591 0
vn 0.0980167463 0.99518472 0
vn 0.0980167463 0.99518472 0
vn 0.0980167463 0.99518472 0
vn 0.0980176106 0.99518472 0
vn 0 0 -1
vn 0 0 -1
vn 0 0 -1
vn 4.89651768E-07 0 -1
vn 4.89651768E-07 0 -1
vn 0 -1.15232331E-06 -1
vn 0 -1.15232331E-06 -1
vn 0 -3.3228531E-07 -1
vn 0 -3.3228531E-07 -1
vn 0 -5.76162336E-07 -1
vn 0 -5.76162336E-07 -1
vn 0 0 -1
vn 0 0 -1
vn 0 0 -1
vn 0 0 -1
vn 0 0 -1
vn 0 0 -1
vn 0 -6.64571076E-07 -1
vn 0 -6.64571076E-07 -1
vn 0 -6.64571303E-07 -1
vn 0 -6.64571303E-07 -1
vn 0 -6.64570393E-07 -1
vn 0 -6.64570393E-07 -1
vn 0 5.76161653E-07 -1
vn 0 5.76161653E-07 -1
vn 0 -6.64571076E-07 -1
vn 0 -6.64571076E-07 -1
vn 0 0 -1
vn 0 0 -1
vn 0 0 -1
vn 0 -3.32285651E-07 -1
vn 0 -3.32285651E-07 -1
vn 0 0 -1
vn 0 0 -1
vn 0 3.32285765E-07 -1
vn 0 3.32285765E-07 -1
vn 0 0 -1
vn 0 0 -1
vn 0 -3.32285424E-07 -1
vn 0 -3.32285424E-07 -1
vn 0 0 -1
vn 0 0 -1
vn 0 -6.64571076E-07 -1
vn 0 -6.64571076E-07 -1
vn 1.6563672E-07 -2.88081168E-07 -1
vn 1.6563672E-07 -2.88081168E-07 -1
vn 0 0 -1
vn 0 0 -1
vn 0 3.60101467E-07 -1
vn 0 3.60101467E-07 -1
vn 0 -6.6457153E-07 -1
vn 0 -6.6457153E-07 -1
vn 0 0 -1
vn 0 0 -1
vn 0 6.64570621E-07 -1
vn 0 6.64570621E-07 -1
vn 0 5.76163018E-07 -1
vn 0 5.76163018E-07 -1
vn 0 6.64570393E-07 -1
vn 0 6.64570393E-07 -1
vn -2.76093942E-07 -9.96855533E-07 -1
vn -2.76093942E-07 -9.96855533E-07 -1
vn 0 0 -1
vn 0 0 -1
vn 0 0 -1
vn 0 0 -1
vn 0 1.51864924E-07 1
vn 0 1.60950833E-07 1
vn 0 1.60950833E-07 1
vn 0 1.51864924E-07 1
vn 0 0 1
vn 0 0 1
vn 1.03776735E-07 0 1
vn 1.03776735E-07 0 1
vn 0 1.80050733E-07 1
vn 0 1.80050733E-07 1
vn 0 0 1
vn 0 0 1
vn 0 0 1
vn 0 0 1
vn 0 1.19415148E-07 1
vn 0 1.19415148E-07 1
vn 0 1.09155756E-07 1
vn 0 1.09155756E-07 1
vn 0 0 1
vn 0 0 1
vn 0 0 1
vn 0 0 1
vn 0 0 1
vn 0 0 1
vn 1.01156282E-07 1.21534242E-07 1
vn 1.01156282E-07 1.21534242E-07 1
vn 0 0 1
vn 0 0 1
vn 0 0 1
vn 0 0 1
vn 0 1.53162958E-07 1
vn 0 1.53162958E-07 1
vn 0 1.55758897E-07 1
vn 0 1.55758897E-07 1
vn 0 1.53162915E-07 1
vn 0 1.53162915E-07 1
vn 0 0 1
vn 0 0 1
vn 1.03776685E-07 0 1
vn 1.03776685E-07 0 1
vn -1.23259369E-07 1.01243337E-07 1
vn -1.23259369E-07 1.01243337E-07 1
vn -1.23259369E-07 1.01243337E-07 1
vn 0 1.03839227E-07 1
vn 0 1.03839227E-07 1
vn 0 0 1
vn 0 0 1
vn 0 1.1941512E-07 1
vn 0 1.1941512E-07 1
vn 0 1.29799034E-07 1
vn 0 1.29799034E-07 1
vn 0 0 1
vn 0 0 1
vn 0 1.14223027E-07 1
vn 0 1.14223027E-07 1
vn 0 0 1
vn 0 0 1
vn 1.01156388E-07 1.2153437E-07 1
vn 1.01156388E-07 1.2153437E-07 1
vn 0 0 1
vn 0 0 1
vn 0 0 1
vn 0 0 1
vn 0 1.54460949E-07 1
vn 0 1.54460949E-07 1
vn 0 1.62045637E-07 1
vn 0 0 -1
vn 0 0 -1
vn 0 0 -1
vn 0 0 -1
vn 0 0 -1
vn 0 0 -1
vn 0 0 -1
vn 0 0 -1
vn 0 0 -1
vn 0 0 -1
vn 0 0 -1
vn 0 0 -1
vn 0 0 -1
vn 0 0 -1
vn 1.38682793E-07 -2.07678454E-07 -1
vn 1.38682793E-07 -2.07678454E-07 -1
vn 0 0 -1
vn 0 0 -1
vn 0 -2.49214168E-07 -1
vn 0 -2.49214168E-07 -1
vn 0 0 -1
vn 0 0 -1
vn 0 0 -1
vn 0 0 -1
vn 0 0 -1
vn 0 0 -1
vn 0 0 -1
vn 0 0 -1
vn 0 0 -1
vn 2.02312776E-07 -2.52071317E-07 -1
vn 2.02312776E-07 -2.52071317E-07 -1
vn 0 0 -1
vn 0 0 -1
vn 0 0 -1
vn 0 0 -1
vn 0 -3.16709844E-07 -1
vn 0 -3.16709844E-07 -1
vn 0 -3.32285623E-07 -1
vn 0 -3.0632583E-07 -1
vn 0 -3.0632583E-07 -1
vn 0 0 -1
vn 0 0 -1
vn 2.0755347E-07 -1.34990913E-07 -1
vn 2.0755347E-07 -1.34990913E-07 -1
vn 0 -3.60101467E-07 -1
vn 0 -3.60101467E-07 -1
vn 0 0 -1
vn 0 0 -1
vn 0 0 -1
vn 0 0 -1
vn 0 0 -1
vn 0 0 -1
vn 0 -2.20562143E-07 -1
vn 0 -2.20562143E-07 -1
vn 0 -2.20562143E-07 -1
vn 0 0 -1
vn 0 0 -1
vn 0 -1.98055801E-07 -1
vn 0 -1.98055801E-07 -1
vn 0 0 -1
vn 0 0 -1
vn 0 0 -1
vn 0 0 -1
vn 0 0 -1
vn 0 3.32285424E-07 1
vn 0 0 1
vn 0 0 1
vn 0 3.32285424E-07 1
vn 0 4.98428506E-07 1
vn 0 0 1
vn 0 4.98428506E-07 1
vn 0 0 1
vn 0 -4.98428676E-07 1
vn 0 -4.98428676E-07 1
vn 0 0 1
vn 0 0 1
vn 0 3.32285424E-07 1
vn 0 3.32285424E-07 1
vn 0 0 1
vn 0 0 1
vn 0 0 1
vn 0 0 1
vn 0 0 1
vn 0 0 1
vn 0 2.88081168E-07 1
vn 0 2.88081168E-07 1
vn 0 0 1
vn 0 0 1
vn 0 0 1
vn 0 0 1
vn 0 0 1
vn 0 0 1
vn 0 0 1
vn 0 6.64571076E-07 1
vn 0 6.64571076E-07 1
vn 3.8210527E-07 6.64571928E-07 1
vn 3.8210527E-07 6.64571928E-07 1
vn 0 0 1
vn 0 0 1
vn 0 0 1
vn 0 5.76162336E-07 1
vn 0 5.76162336E-07 1
vn 0 0 1
vn 0 0 1
vn 0 0 1
vn 0 0 1
vn 0 1.66142826E-07 1
vn 0 1.66142826E-07 1
vn 0 0 1
vn 0 0 1
vn 0 -6.64570393E-07 1
vn 0 -1.1523249E-06 1
vn 0 -6.64570393E-07 1
vn 0 3.32285197E-07 1
vn 0 0 1
vn 0 3.32285197E-07 1
vn 0 0 1
vn 0 0 1
vn 0 0 1
vn 0 6.64570621E-07 1
vn 0 6.64570621E-07 1
vn -1.9479566E-07 6.6457153E-07 1
vn 0 -5.04142065E-07 1
vn -1.9479566E-07 6.6457153E-07 1
vn 0 -6.64571303E-07 1
vn 0 -5.04142065E-07 1
vn 0 2.88081168E-07 1
vn 0 -6.64571303E-07 1
vt 1 0.980823159
vt 0.96875 0.980823159
vt 0.796821654 0.485388458
vt 0.96875 0.980823159
vt 0.9375 0.980823159
vt 0.841844022 0.471731067
vt 0.9375 0.980823159
vt 0.90625 0.980823159
vt 0.883336842 0.449552715
vt 0.90625 0.980823159
vt 0.875 0.980823159
vt 0.919705629 0.419705629
vt 0.875 0.980823159
vt 0.84375 0.980823159
vt 0.949552715 0.383336842
vt 0.84375 0.980823159
vt 0.8125 0.980823159
vt 0.971731067 0.341844022
vt 0.8125 0.980823159
vt 0.78125 0.980823159
vt 0.985388458 0.296821684
vt 0.78125 0.980823159
vt 0.75 0.980823159
vt 0.99000001 0.25
vt 0.75 0.980823159
vt 0.71875 0.980823159
vt 0.985388458 0.203178316
vt 0.71875 0.980823159
vt 0.6875 0.980823159
vt 0.971731067 0.158155978
vt 0.6875 0.980823159
vt 0.65625 0.980823159
vt 0.949552715 0.116663143
vt 0.65625 0.980823159
vt 0.625 0.980823159
vt 0.919705629 0.0802943856
vt 0.625 0.980823159
vt 0.59375 0.980823159
vt 0.883336842 0.0504473001
vt 0.59375 0.980823159
vt 0.5625 0.980823159
vt 0.841844022 0.0282689184
vt 0.5625 0.980823159
vt 0.53125 0.980823159
vt 0.796821654 0.0146115422
vt 0.46875 0.980823159
vt 0.4375 0.980823159
vt 0.658155978 0.0282689184
vt 0.4375 0.980823159
vt 0.40625 0.980823159
vt 0.616663158 0.0504473001
vt 0.40625 0.980823159
vt 0.375 0.980823159
vt 0.580294371 0.0802943856
vt 0.375 0.980823159
vt 0.34375 0.980823159
vt 0.550447285 0.116663143
vt 0.3125 0.980823159
vt 0.528268933 0.158155978
vt 0.550447285 0.116663143
vt 0.3125 0.980823159
vt 0.28125 0.980823219
vt 0.514611542 0.203178316
vt 0.28125 0.980823219
vt 0.25 0.980823219
vt 0.50999999 0.25
vt 0.25 0.980823219
vt 0.218750015 0.980823219
vt 0.514611542 0.296821684
vt 0.218750015 0.980823219
vt 0.1875 0.980823159
vt 0.528268933 0.341844022
vt 0.1875 0.980823159
vt 0.15625 0.980823159
vt 0.550447285 0.383336842
vt 0.15625 0.980823159
vt 0.125 0.980823159
vt 0.580294371 0.419705629
vt 0.125 0.980823159
vt 0.09375 0.980823159
vt 0.616663158 0.449552715
vt 0.09375 0.980823159
vt 0.0625 0.980823159
vt 0.658155978 0.471731067
vt 0.03125 0.980823159
vt 0.703178346 0.485388458
vt 0.658155978 0.471731067
vt 0.03125 0.980823159
vt 0 0.980823159
vt 0.75 0.49000001
vt 1 0.980823159
vt 0.796821654 0.485388458
vt 0.75 0.49000001
vt 0.96875 0.980823159
vt 0.841844022 0.471731067
vt 0.796821654 0.485388458
vt 0.9375 0.980823159
vt 0.883336842 0.449552715
vt 0.841844022 0.471731067
vt 0.90625 0.980823159
vt 0.919705629 0.419705629
vt 0.883336842 0.449552715
vt 0.875 0.980823159
vt 0.949552715 0.383336842
vt 0.919705629 0.419705629
vt 0.84375 0.980823159
vt 0.971731067 0.341844022
vt 0.949552715 0.383336842
vt 0.8125 0.980823159
vt 0.985388458 0.296821684
vt 0.971731067 0.341844022
vt 0.78125 0.980823159
vt 0.99000001 0.25
vt 0.985388458 0.296821684
vt 0.75 0.980823159
vt 0.985388458 0.203178316
vt 0.99000001 0.25
vt 0.71875 0.980823159
vt 0.971731067 0.158155978
vt 0.985388458 0.203178316
vt 0.6875 0.980823159
vt 0.949552715 0.116663143
vt 0.971731067 0.158155978
vt 0.65625 0.980823159
vt 0.919705629 0.0802943856
vt 0.949552715 0.116663143
vt 0.625 0.980823159
vt 0.883336842 0.0504473001
vt 0.919705629 0.0802943856
vt 0.59375 0.980823159
vt 0.841844022 0.0282689184
vt 0.883336842 0.0504473001
vt 0.5625 0.980823159
vt 0.796821654 0.0146115422
vt 0.841844022 0.0282689184
vt 0.46875 0.980823159
vt 0.658155978 0.0282689184
vt 0.703178346 0.0146115422
vt 0.4375 0.980823159
vt 0.616663158 0.0504473001
vt 0.658155978 0.0282689184
vt 0.40625 0.980823159
vt 0.580294371 0.0802943856
vt 0.616663158 0.0504473001
vt 0.375 0.980823159
vt 0.550447285 0.116663143
vt 0.580294371 0.0802943856
vt 0.3125 0.980823159
vt 0.550447285 0.116663143
vt 0.34375 0.980823159
vt 0.3125 0.980823159
vt 0.514611542 0.203178316
vt 0.528268933 0.158155978
vt 0.28125 0.980823219
vt 0.50999999 0.25
vt 0.514611542 0.203178316
vt 0.25 0.980823219
vt 0.514611542 0.296821684
vt 0.50999999 0.25
vt 0.218750015 0.980823219
vt 0.528268933 0.341844022
vt 0.514611542 0.296821684
vt 0.1875 0.980823159
vt 0.550447285 0.383336842
vt 0.528268933 0.341844022
vt 0.15625 0.980823159
vt 0.580294371 0.419705629
vt 0.550447285 0.383336842
vt 0.125 0.980823159
vt 0.616663158 0.449552715
vt 0.580294371 0.419705629
vt 0.09375 0.980823159
vt 0.658155978 0.471731067
vt 0.616663158 0.449552715
vt 0.03125 0.980823159
vt 0.658155978 0.471731067
vt 0.0625 0.980823159
vt 0.03125 0.980823159
vt 0.75 0.49000001
vt 0.703178346 0.485388458
vt 0.53125 0.980823159
vt 0.5 0.980823159
vt 0.75 0.0100000054
vt 0.796821654 0.0146115422
vt 0.5 0.980823159
vt 0.46875 0.980823159
vt 0.703178346 0.0146115422
vt 0.75 0.0100000054
vt 0.03125 0.980823159
vt 0.03125 0.514417529
vt 0 0.514417529
vt 0 0.980823159
vt 0.0625 0.514417529
vt 0.03125 0.514417529
vt 0.03125 0.980823159
vt 0.0625 0.980823159
vt 0.09375 0.980823159
vt 0.09375 0.514417529
vt 0.0625 0.514417529
vt 0.0625 0.980823159
vt 0.125 0.980823159
vt 0.125 0.514417529
vt 0.09375 0.514417529
vt 0.09375 0.980823159
vt 0.15625 0.980823159
vt 0.15625 0.514417529
vt 0.125 0.514417529
vt 0.125 0.980823159
vt 0.1875 0.980823159
vt 0.1875 0.514417529
vt 0.15625 0.514417529
vt 0.15625 0.980823159
vt 0.218750015 0.980823219
vt 0.21875 0.514417529
vt 0.1875 0.514417529
vt 0.1875 0.980823159
vt 0.25 0.980823219
vt 0.25 0.514417529
vt 0.21875 0.514417529
vt 0.218750015 0.980823219
vt 0.28125 0.980823219
vt 0.28125 0.514417529
vt 0.25 0.514417529
vt 0.25 0.980823219
vt 0.3125 0.980823159
vt 0.3125 0.514417529
vt 0.28125 0.514417529
vt 0.28125 0.980823219
vt 0.34375 0.514417529
vt 0.3125 0.514417529
vt 0.3125 0.980823159
vt 0.34375 0.980823159
vt 0.375 0.980823159
vt 0.375 0.514417529
vt 0.34375 0.514417529
vt 0.34375 0.980823159
vt 0.40625 0.980823159
vt 0.40625 0.514417529
vt 0.375 0.514417529
vt 0.375 0.980823159
vt 0.4375 0.980823159
vt 0.4375 0.514417529
vt 0.40625 0.514417529
vt 0.40625 0.980823159
vt 0.46875 0.980823159
vt 0.46875 0.514417529
vt 0.4375 0.514417529
vt 0.4375 0.980823159
vt 0.5 0.980823159
vt 0.5 0.514417529
vt 0.46875 0.514417529
vt 0.46875 0.980823159
vt 0.53125 0.980823159
vt 0.53125 0.514417529
vt 0.5 0.514417529
vt 0.5 0.980823159
vt 0.5625 0.980823159
vt 0.5625 0.514417529
vt 0.53125 0.514417529
vt 0.53125 0.980823159
vt 0.59375 0.980823159
vt 0.59375 0.514417529
vt 0.5625 0.514417529
vt 0.5625 0.980823159
vt 0.625 0.980823159
vt 0.625 0.514417529
vt 0.59375 0.514417529
vt 0.59375 0.980823159
vt 0.65625 0.980823159
vt 0.65625 0.514417529
vt 0.625 0.514417529
vt 0.625 0.980823159
vt 0.6875 0.980823159
vt 0.6875 0.514417529
vt 0.65625 0.514417529
vt 0.65625 0.980823159
vt 0.71875 0.980823159
vt 0.71875 0.514417529
vt 0.6875 0.514417529
vt 0.6875 0.980823159
vt 0.75 0.980823159
vt 0.75000006 0.514417529
vt 0.71875 0.514417529
vt 0.71875 0.980823159
vt 0.78125 0.980823159
vt 0.78125 0.514417529
vt 0.75000006 0.514417529
vt 0.75 0.980823159
vt 0.8125 0.980823159
vt 0.8125 0.514417529
vt 0.78125 0.514417529
vt 0.78125 0.980823159
vt 0.84375 0.980823159
vt 0.84375 0.514417529
vt 0.8125 0.514417529
vt 0.8125 0.980823159
vt 0.875 0.980823159
vt 0.875 0.514417529
vt 0.84375 0.514417529
vt 0.84375 0.980823159
vt 0.90625 0.514417529
vt 0.875 0.514417529
vt 0.875 0.980823159
vt 0.90625 0.980823159
vt 0.9375 0.980823159
vt 0.93749994 0.514417529
vt 0.90625 0.514417529
vt 0.90625 0.980823159
vt 0.96875 0.980823159
vt 0.96875 0.514417529
vt 0.93749994 0.514417529
vt 0.9375 0.980823159
vt 1 0.980823159
vt 1 0.514417529
vt 0.96875 0.514417529
vt 0.96875 0.980823159
vt 1 1
vt 1 0.980823159
vt 0.96875 0.980823159
vt 0.96875 1
vt 0.96875 1
vt 0.96875 0.980823159
vt 0.9375 0.980823159
vt 0.9375 1
vt 0.9375 1
vt 0.9375 0.980823159
vt 0.90625 0.980823159
vt 0.90625 1
vt 0.90625 1
vt 0.90625 0.980823159
vt 0.875 0.980823159
vt 0.875 1
vt 0.875 1
vt 0.875 0.980823159
vt 0.84375 0.980823159
vt 0.84375 1
vt 0.84375 1
vt 0.84375 0.980823159
vt 0.8125 0.980823159
vt 0.8125 1
vt 0.8125 1
vt 0.8125 0.980823159
vt 0.78125 0.980823159
vt 0.78125 1
vt 0.78125 1
vt 0.78125 0.980823159
vt 0.75 0.980823159
vt 0.75 1
vt 0.75 1
vt 0.75 0.980823159
vt 0.71875 0.980823159
vt 0.71875 1
vt 0.71875 1
vt 0.71875 0.980823159
vt 0.6875 0.980823159
vt 0.6875 1
vt 0.6875 1
vt 0.6875 0.980823159
vt 0.65625 0.980823159
vt 0.65625 1
vt 0.65625 1
vt 0.65625 0.980823159
vt 0.625 0.980823159
vt 0.625 1
vt 0.625 1
vt 0.625 0.980823159
vt 0.59375 0.980823159
vt 0.59375 1
vt 0.59375 1
vt 0.59375 0.980823159
vt 0.5625 0.980823159
vt 0.5625 1
vt 0.5625 1
vt 0.5625 0.980823159
vt 0.53125 0.980823159
vt 0.53125 1
vt 0.53125 1
vt 0.53125 0.980823159
vt 0.5 0.980823159
vt 0.5 1
vt 0.5 1
vt 0.5 0.980823159
vt 0.46875 0.980823159
vt 0.46875 1
vt 0.46875 1
vt 0.46875 0.980823159
vt 0.4375 0.980823159
vt 0.4375 1
vt 0.4375 1
vt 0.4375 0.980823159
vt 0.40625 0.980823159
vt 0.40625 1
vt 0.40625 1
vt 0.40625 0.980823159
vt 0.375 0.980823159
vt 0.375 1
vt 0.375 1
vt 0.375 0.980823159
vt 0.34375 0.980823159
vt 0.34375 1
vt 0.34375 1
vt 0.34375 0.980823159
vt 0.3125 0.980823159
vt 0.3125 1
vt 0.3125 1
vt 0.3125 0.980823159
vt 0.28125 0.980823219
vt 0.28125 1
vt 0.28125 1
vt 0.28125 0.980823219
vt 0.25 0.980823219
vt 0.25 1
vt 0.25 1
vt 0.25 0.980823219
vt 0.218750015 0.980823219
vt 0.21875 1
vt 0.218750015 0.980823219
vt 0.1875 0.980823159
vt 0.1875 1
vt 0.21875 1
vt 0.1875 1
vt 0.1875 0.980823159
vt 0.15625 0.980823159
vt 0.15625 1
vt 0.15625 1
vt 0.15625 0.980823159
vt 0.125 0.980823159
vt 0.125 1
vt 0.125 1
vt 0.125 0.980823159
vt 0.09375 0.980823159
vt 0.09375 1
vt 0.09375 1
vt 0.09375 0.980823159
vt 0.0625 0.980823159
vt 0.0625 1
vt 0.0625 1
vt 0.0625 0.980823159
vt 0.03125 0.980823159
vt 0.03125 1
vt 0.03125 1
vt 0.03125 0.980823159
vt 0 0.980823159
vt 0 1
vt 1 0.514417529
vt 1 0.5
vt 0.96875 0.5
vt 0.96875 0.514417529
vt 0.96875 0.514417529
vt 0.96875 0.5
vt 0.9375 0.5
vt 0.93749994 0.514417529
vt 0.93749994 0.514417529
vt 0.9375 0.5
vt 0.90625 0.5
vt 0.90625 0.514417529
vt 0.90625 0.514417529
vt 0.90625 0.5
vt 0.875 0.5
vt 0.875 0.514417529
vt 0.875 0.514417529
vt 0.875 0.5
vt 0.84375 0.5
vt 0.84375 0.514417529
vt 0.84375 0.514417529
vt 0.84375 0.5
vt 0.8125 0.5
vt 0.8125 0.514417529
vt 0.8125 0.514417529
vt 0.8125 0.5
vt 0.78125 0.5
vt 0.78125 0.514417529
vt 0.78125 0.514417529
vt 0.78125 0.5
vt 0.75 0.5
vt 0.75000006 0.514417529
vt 0.75000006 0.514417529
vt 0.75 0.5
vt 0.71875 0.5
vt 0.71875 0.514417529
vt 0.71875 0.514417529
vt 0.71875 0.5
vt 0.6875 0.5
vt 0.6875 0.514417529
vt 0.6875 0.514417529
vt 0.6875 0.5
vt 0.65625 0.5
vt 0.65625 0.514417529
vt 0.65625 0.514417529
vt 0.65625 0.5
vt 0.625 0.5
vt 0.625 0.514417529
vt 0.625 0.514417529
vt 0.625 0.5
vt 0.59375 0.5
vt 0.59375 0.514417529
vt 0.59375 0.514417529
vt 0.59375 0.5
vt 0.5625 0.5
vt 0.5625 0.514417529
vt 0.5625 0.514417529
vt 0.5625 0.5
vt 0.53125 0.5
vt 0.53125 0.514417529
vt 0.53125 0.514417529
vt 0.53125 0.5
vt 0.5 0.5
vt 0.5 0.514417529
vt 0.5 0.514417529
vt 0.5 0.5
vt 0.46875 0.5
vt 0.46875 0.514417529
vt 0.46875 0.514417529
vt 0.46875 0.5
vt 0.4375 0.5
vt 0.4375 0.514417529
vt 0.4375 0.514417529
vt 0.4375 0.5
vt 0.40625 0.5
vt 0.40625 0.514417529
vt 0.40625 0.514417529
vt 0.40625 0.5
vt 0.375 0.5
vt 0.375 0.514417529
vt 0.375 0.514417529
vt 0.375 0.5
vt 0.34375 0.5
vt 0.34375 0.514417529
vt 0.34375 0.514417529
vt 0.34375 0.5
vt 0.3125 0.5
vt 0.3125 0.514417529
vt 0.3125 0.514417529
vt 0.3125 0.5
vt 0.28125 0.5
vt 0.28125 0.514417529
vt 0.28125 0.5
vt 0.25 0.5
vt 0.25 0.514417529
vt 0.28125 0.514417529
vt 0.25 0.514417529
vt 0.25 0.5
vt 0.21875 0.5
vt 0.21875 0.514417529
vt 0.21875 0.514417529
vt 0.21875 0.5
vt 0.1875 0.5
vt 0.1875 0.514417529
vt 0.1875 0.514417529
vt 0.1875 0.5
vt 0.15625 0.5
vt 0.15625 0.514417529
vt 0.15625 0.5
vt 0.125 0.5
vt 0.125 0.514417529
vt 0.15625 0.514417529
vt 0.125 0.514417529
vt 0.125 0.5
vt 0.09375 0.5
vt 0.09375 0.514417529
vt 0.09375 0.514417529
vt 0.09375 0.5
vt 0.0625 0.5
vt 0.0625 0.514417529
vt 0.0625 0.5
vt 0.03125 0.5
vt 0.03125 0.514417529
vt 0.0625 0.514417529
vt 0.03125 0.514417529
vt 0.03125 0.5
vt 0 0.5
vt 0 0.514417529
vt 0.03125 0.980823159
vt 0 0.980823159
vt 0 0.980823159
vt 0.03125 0.980823159
vt 0.0625 0.980823159
vt 0.0625 0.980823159
vt 0.09375 0.980823159
vt 0.09375 0.980823159
vt 0.125 0.980823159
vt 0.125 0.980823159
vt 0.15625 0.980823159
vt 0.15625 0.980823159
vt 0.1875 0.980823159
vt 0.1875 0.980823159
vt 0.218750015 0.980823219
vt 0.218750015 0.980823219
vt 0.25 0.980823219
vt 0.25 0.980823219
vt 0.28125 0.980823219
vt 0.28125 0.980823219
vt 0.3125 0.980823159
vt 0.3125 0.980823159
vt 0.34375 0.980823159
vt 0.34375 0.980823159
vt 0.375 0.980823159
vt 0.375 0.980823159
vt 0.40625 0.980823159
vt 0.40625 0.980823159
vt 0.4375 0.980823159
vt 0.4375 0.980823159
vt 0.46875 0.980823159
vt 0.46875 0.980823159
vt 0.5 0.980823159
vt 0.5 0.980823159
vt 0.53125 0.980823159
vt 0.53125 0.980823159
vt 0.5625 0.980823159
vt 0.5625 0.980823159
vt 0.59375 0.980823159
vt 0.59375 0.980823159
vt 0.625 0.980823159
vt 0.625 0.980823159
vt 0.65625 0.980823159
vt 0.65625 0.980823159
vt 0.6875 0.980823159
vt 0.6875 0.980823159
vt 0.71875 0.980823159
vt 0.71875 0.980823159
vt 0.75 0.980823159
vt 0.75 0.980823159
vt 0.78125 0.980823159
vt 0.78125 0.980823159
vt 0.8125 0.980823159
vt 0.8125 0.980823159
vt 0.84375 0.980823159
vt 0.84375 0.980823159
vt 0.875 0.980823159
vt 0.875 0.980823159
vt 0.90625 0.980823159
vt 0.90625 0.980823159
vt 0.9375 0.980823159
vt 0.9375 0.980823159
vt 0.96875 0.980823159
vt 0.96875 0.980823159
vt 1 0.980823159
vt 1 0.980823159
vt 0.96875 0.514417529
vt 1 0.514417529
vt 1 0.514417529
vt 0.96875 0.514417529
vt 0.93749994 0.514417529
vt 0.93749994 0.514417529
vt 0.90625 0.514417529
vt 0.90625 0.514417529
vt 0.875 0.514417529
vt 0.875 0.514417529
vt 0.84375 0.514417529
vt 0.84375 0.514417529
vt 0.8125 0.514417529
vt 0.8125 0.514417529
vt 0.78125 0.514417529
vt 0.78125 0.514417529
vt 0.75000006 0.514417529
vt 0.75000006 0.514417529
vt 0.71875 0.514417529
vt 0.71875 0.514417529
vt 0.6875 0.514417529
vt 0.6875 0.514417529
vt 0.65625 0.514417529
vt 0.65625 0.514417529
vt 0.625 0.514417529
vt 0.625 0.514417529
vt 0.59375 0.514417529
vt 0.59375 0.514417529
vt 0.5625 0.514417529
vt 0.5625 0.514417529
vt 0.53125 0.514417529
vt 0.53125 0.514417529
vt 0.5 0.514417529
vt 0.5 0.514417529
vt 0.46875 0.514417529
vt 0.46875 0.514417529
vt 0.4375 0.514417529
vt 0.4375 0.514417529
vt 0.40625 0.514417529
vt 0.40625 0.514417529
vt 0.375 0.514417529
vt 0.375 0.514417529
vt 0.34375 0.514417529
vt 0.34375 0.514417529
vt 0.3125 0.514417529
vt 0.3125 0.514417529
vt 0.28125 0.514417529
vt 0.28125 0.514417529
vt 0.25 0.514417529
vt 0.25 0.514417529
vt 0.21875 0.514417529
vt 0.21875 0.514417529
vt 0.1875 0.514417529
vt 0.1875 0.514417529
vt 0.15625 0.514417529
vt 0.15625 0.514417529
vt 0.125 0.514417529
vt 0.125 0.514417529
vt 0.09375 0.514417529
vt 0.09375 0.514417529
vt 0.0625 0.514417529
vt 0.0625 0.514417529
vt 0.03125 0.514417529
vt 0.03125 0.514417529
vt 0 0.514417529
vt 0 0.514417529
vt 0.75 0.0100000054
vt 0.703178346 0.0146115422
vt 0.703178346 0.0146115422
vt 0.658155978 0.0282689184
vt 0.75 0.0100000054
vt 0.658155978 0.0282689184
vt 0.796821654 0.0146115422
vt 0.796821654 0.0146115422
vt 0.841844022 0.0282689184
vt 0.841844022 0.0282689184
vt 0.883336842 0.0504473001
vt 0.883336842 0.0504473001
vt 0.919705629 0.0802943856
vt 0.919705629 0.0802943856
vt 0.949552715 0.116663143
vt 0.949552715 0.116663143
vt 0.971731067 0.158155978
vt 0.971731067 0.158155978
vt 0.985388458 0.203178316
vt 0.985388458 0.203178316
vt 0.99000001 0.25
vt 0.99000001 0.25
vt 0.985388458 0.296821684
vt 0.985388458 0.296821684
vt 0.971731067 0.341844022
vt 0.971731067 0.341844022
vt 0.949552715 0.383336842
vt 0.949552715 0.383336842
vt 0.919705629 0.419705629
vt 0.919705629 0.419705629
vt 0.883336842 0.449552715
vt 0.883336842 0.449552715
vt 0.841844022 0.471731067
vt 0.841844022 0.471731067
vt 0.796821654 0.485388458
vt 0.796821654 0.485388458
vt 0.75 0.49000001
vt 0.75 0.49000001
vt 0.703178346 0.485388458
vt 0.703178346 0.485388458
vt 0.658155978 0.471731067
vt 0.658155978 0.471731067
vt 0.616663158 0.449552715
vt 0.616663158 0.449552715
vt 0.580294371 0.419705629
vt 0.580294371 0.419705629
vt 0.550447285 0.383336842
vt 0.550447285 0.383336842
vt 0.528268933 0.341844022
vt 0.528268933 0.341844022
vt 0.514611542 0.296821684
vt 0.514611542 0.296821684
vt 0.50999999 0.25
vt 0.50999999 0.25
vt 0.514611542 0.203178316
vt 0.514611542 0.203178316
vt 0.528268933 0.158155978
vt 0.528268933 0.158155978
vt 0.550447285 0.116663143
vt 0.550447285 0.116663143
vt 0.580294371 0.0802943856
vt 0.580294371 0.0802943856
vt 0.616663158 0.0504473001
vt 0.616663158 0.0504473001
vt 0.341844022 0.0282689184
vt 0.341844022 0.0282689184
vt 0.296821684 0.0146115422
vt 0.383336842 0.0504473001
vt 0.296821684 0.0146115422
vt 0.383336842 0.0504473001
vt 0.25 0.0100000054
vt 0.25 0.0100000054
vt 0.203178316 0.0146115422
vt 0.203178316 0.0146115422
vt 0.158155978 0.0282689184
vt 0.158155978 0.0282689184
vt 0.116663143 0.0504473001
vt 0.116663143 0.0504473001
vt 0.0802943856 0.0802943856
vt 0.0802943856 0.0802943856
vt 0.0504473001 0.116663143
vt 0.0504473001 0.116663143
vt 0.419705629 0.0802943856
vt 0.419705629 0.0802943856
vt 0.0282689184 0.158155978
vt 0.0282689184 0.158155978
vt 0.449552715 0.116663143
vt 0.449552715 0.116663143
vt 0.471731067 0.158155978
vt 0.471731067 0.158155978
vt 0.485388458 0.203178316
vt 0.485388458 0.203178316
vt 0.49000001 0.25
vt 0.49000001 0.25
vt 0.485388458 0.296821684
vt 0.485388458 0.296821684
vt 0.471731067 0.341844022
vt 0.471731067 0.341844022
vt 0.449552715 0.383336842
vt 0.449552715 0.383336842
vt 0.419705629 0.419705629
vt 0.419705629 0.419705629
vt 0.383336842 0.449552715
vt 0.383336842 0.449552715
vt 0.341844022 0.471731067
vt 0.341844022 0.471731067
vt 0.296821684 0.485388458
vt 0.296821684 0.485388458
vt 0.25 0.49000001
vt 0.25 0.49000001
vt 0.203178316 0.485388458
vt 0.203178316 0.485388458
vt 0.158155978 0.471731067
vt 0.158155978 0.471731067
vt 0.116663143 0.449552715
vt 0.116663143 0.449552715
vt 0.0802943856 0.419705629
vt 0.0802943856 0.419705629
vt 0.0504473001 0.383336842
vt 0.0504473001 0.383336842
vt 0.0282689184 0.341844022
vt 0.0282689184 0.341844022
vt 0.0146115422 0.296821684
vt 0.0146115422 0.296821684
vt 0.0100000054 0.25
vt 0.0100000054 0.25
vt 0.0146115422 0.203178316
vt 0.0146115422 0.203178316
g submesh0
f 1/1/1 2/2/2 3/3/3
f 4/4/4 5/5/5 6/6/6
f 7/7/7 8/8/8 9/9/9
f 10/10/10 11/11/11 12/12/12
f 13/13/13 14/14/14 15/15/15
f 16/16/16 17/17/17 18/18/18
f 19/19/19 20/20/20 21/21/21
f 22/22/22 23/23/23 24/24/24
f 25/25/25 26/26/26 27/27/27
f 28/28/28 29/29/29 30/30/30
f 31/31/31 32/32/32 33/33/33
f 34/34/34 35/35/35 36/36/36
f 37/37/37 38/38/38 39/39/39
f 40/40/40 41/41/41 42/42/42
f 43/43/43 44/44/44 45/45/45
f 46/46/46 47/47/47 48/48/48
f 49/49/49 50/50/50 51/51/51
f 52/52/52 53/53/53 54/54/54
f 55/55/55 56/56/56 57/57/57
f 58/58/58 59/59/59 60/60/60
f 61/61/61 62/62/62 63/63/63
f 64/64/64 65/65/65 66/66/66
f 67/67/67 68/68/68 69/69/69
f 70/70/70 71/71/71 72/72/72
f 73/73/73 74/74/74 75/75/75
f 76/76/76 77/77/77 78/78/78
f 79/79/79 80/80/80 81/81/81
f 82/82/82 83/83/83 84/84/84
f 85/85/85 86/86/86 87/87/87
f 88/88/88 89/89/89 90/90/90
f 91/91/91 92/92/92 93/93/93
f 94/94/94 95/95/95 96/96/96
f 97/97/97 98/98/98 99/99/99
f 100/100/100 101/101/101 102/102/102
f 103/103/103 104/104/104 105/105/105
f 106/106/106 107/107/107 108/108/108
f 109/109/109 110/110/110 111/111/111
f 112/112/112 113/113/113 114/114/114
f 115/115/115 116/116/116 117/117/117
f 118/118/118 119/119/119 120/120/120
f 121/121/121 122/122/122 123/123/123
f 124/124/124 125/125/125 126/126/126
f 127/127/127 128/128/128 129/129/129
f 130/130/130 131/131/131 132/132/132
f 133/133/133 134/134/134 135/135/135
f 136/136/136 137/137/137 138/138/138
f 139/139/139 140/140/140 141/141/141
f 142/142/142 143/143/143 144/144/144
f 145/145/145 146/146/146 147/147/147
f 148/148/148 149/149/149 150/150/150
f 151/151/151 152/152/152 153/153/153
f 154/154/154 155/155/155 156/156/156
f 157/157/157 158/158/158 159/159/159
f 160/160/160 161/161/161 162/162/162
f 163/163/163 164/164/164 165/165/165
f 166/166/166 167/167/167 168/168/168
f 169/169/169 170/170/170 171/171/171
f 172/172/172 173/173/173 174/174/174
f 175/175/175 176/176/176 177/177/177
f 178/178/178 179/179/179 180/180/180
f 181/181/181 182/182/182 183/183/183
f 181/181/181 183/183/183 184/184/184
f 185/185/185 186/186/186 187/187/187
f 185/185/185 187/187/187 188/188/188
f 189/189/189 190/190/190 191/191/191
f 189/189/189 191/191/191 192/192/192
f 193/193/193 194/194/194 195/195/195
f 193/193/193 195/195/195 196/196/196
f 197/197/197 198/198/198 199/199/199
f 197/197/197 199/199/199 200/200/200
f 201/201/201 202/202/202 203/203/203
f 201/201/201 203/203/203 204/204/204
f 205/205/205 206/206/206 207/207/207
f 205/205/205 207/207/207 208/208/208
f 209/209/209 210/210/210 211/211/211
f 209/209/209 211/211/211 212/212/212
f 213/213/213 214/214/214 215/215/215
f 213/213/213 215/215/215 216/216/216
f 217/217/217 218/218/218 219/219/219
f 217/217/217 219/219/219 220/220/220
f 221/221/221 222/222/222 223/223/223
f 221/221/221 223/223/223 224/224/224
f 225/225/225 226/226/226 227/227/227
f 225/225/225 227/227/227 228/228/228
f 229/229/229 230/230/230 231/231/231
f 229/229/229 231/231/231 232/232/232
f 233/233/233 234/234/234 235/235/235
f 233/233/233 235/235/235 236/236/236
f 237/237/237 238/238/238 239/239/239
f 237/237/237 239/239/239 240/240/240
f 241/241/241 242/242/242 243/243/243
f 241/241/241 243/243/243 244/244/244
f 245/245/245 246/246/246 247/247/247
f 245/245/245 247/247/247 248/248/248
f 249/249/249 250/250/250 251/251/251
f 249/249/249 251/251/251 252/252/252
f 253/253/253 254/254/254 255/255/255
f 253/253/253 255/255/255 256/256/256
f 257/257/257 258/258/258 259/259/259
f 257/257/257 259/259/259 260/260/260
f 261/261/261 262/262/262 263/263/263
f 261/261/261 263/263/263 264/264/264
f 265/265/265 266/266/266 267/267/267
f 265/265/265 267/267/267 268/268/268
f 269/269/269 270/270/270 271/271/271
f 269/269/269 271/271/271 272/272/272
f 273/273/273 274/274/274 275/275/275
f 273/273/273 275/275/275 276/276/276
f 277/277/277 278/278/278 279/279/279
f 277/277/277 279/279/279 280/280/280
f 281/281/281 282/282/282 283/283/283
f 281/281/281 283/283/283 284/284/284
f 285/285/285 286/286/286 287/287/287
f 285/285/285 287/287/287 288/288/288
f 289/289/289 290/290/290 291/291/291
f 289/289/289 291/291/291 292/292/292
f 293/293/293 294/294/294 295/295/295
f 293/293/293 295/295/295 296/296/296
f 297/297/297 298/298/298 299/299/299
f 297/297/297 299/299/299 300/300/300
f 301/301/301 302/302/302 303/303/303
f 301/301/301 303/303/303 304/304/304
f 305/305/305 306/306/306 307/307/307
f 305/305/305 307/307/307 308/308/308
f 309/309/309 310/310/310 311/311/311
f 309/309/309 311/311/311 312/312/312
f 313/313/313 314/314/314 315/315/315
f 313/313/313 315/315/315 316/316/316
f 317/317/317 318/318/318 319/319/319
f 317/317/317 319/319/319 320/320/320
f 321/321/321 322/322/322 323/323/323
f 321/321/321 323/323/323 324/324/324
f 325/325/325 326/326/326 327/327/327
f 325/325/325 327/327/327 328/328/328
f 329/329/329 330/330/330 331/331/331
f 329/329/329 331/331/331 332/332/332
f 333/333/333 334/334/334 335/335/335
f 333/333/333 335/335/335 336/336/336
f 337/337/337 338/338/338 339/339/339
f 337/337/337 339/339/339 340/340/340
f 341/341/341 342/342/342 343/343/343
f 341/341/341 343/343/343 344/344/344
f 345/345/345 346/346/346 347/347/347
f 345/345/345 347/347/347 348/348/348
f 349/349/349 350/350/350 351/351/351
f 349/349/349 351/351/351 352/352/352
f 353/353/353 354/354/354 355/355/355
f 353/353/353 355/355/355 356/356/356
f 357/357/357 358/358/358 359/359/359
f 357/357/357 359/359/359 360/360/360
f 361/361/361 362/362/362 363/363/363
f 361/361/361 363/363/363 364/364/364
f 365/365/365 366/366/366 367/367/367
f 365/365/365 367/367/367 368/368/368
f 369/369/369 370/370/370 371/371/371
f 369/369/369 371/371/371 372/372/372
f 373/373/373 374/374/374 375/375/375
f 373/373/373 375/375/375 376/376/376
f 377/377/377 378/378/378 379/379/379
f 377/377/377 379/379/379 380/380/380
f 381/381/381 382/382/382 383/383/383
f 381/381/381 383/383/383 384/384/384
f 385/385/385 386/386/386 387/387/387
f 385/385/385 387/387/387 388/388/388
f 389/389/389 390/390/390 391/391/391
f 389/389/389 391/391/391 392/392/392
f 393/393/393 394/394/394 395/395/395
f 393/393/393 395/395/395 396/396/396
f 397/397/397 398/398/398 399/399/399
f 397/397/397 399/399/399 400/400/400
f 401/401/401 402/402/402 403/403/403
f 401/401/401 403/403/403 404/404/404
f 405/405/405 406/406/406 407/407/407
f 405/405/405 407/407/407 408/408/408
f 409/409/409 410/410/410 411/411/411
f 409/409/409 411/411/411 412/412/412
f 413/413/413 414/414/414 415/415/415
f 413/413/413 415/415/415 416/416/416
f 417/417/417 418/418/418 419/419/419
f 417/417/417 419/419/419 420/420/420
f 421/421/421 422/422/422 423/423/423
f 421/421/421 423/423/423 424/424/424
f 425/425/425 426/426/426 427/427/427
f 425/425/425 427/427/427 428/428/428
f 429/429/429 430/430/430 431/431/431
f 429/429/429 431/431/431 432/432/432
f 433/433/433 434/434/434 435/435/435
f 433/433/433 435/435/435 436/436/436
f 437/437/437 438/438/438 439/439/439
f 437/437/437 439/439/439 440/440/440
f 441/441/441 442/442/442 443/443/443
f 441/441/441 443/443/443 444/444/444
f 445/445/445 446/446/446 447/447/447
f 445/445/445 447/447/447 448/448/448
f 449/449/449 450/450/450 451/451/451
f 449/449/449 451/451/451 452/452/452
f 453/453/453 454/454/454 455/455/455
f 453/453/453 455/455/455 456/456/456
f 457/457/457 458/458/458 459/459/459
f 457/457/457 459/459/459 460/460/460
f 461/461/461 462/462/462 463/463/463
f 461/461/461 463/463/463 464/464/464
f 465/465/465 466/466/466 467/467/467
f 465/465/465 467/467/467 468/468/468
f 469/469/469 470/470/470 471/471/471
f 469/469/469 471/471/471 472/472/472
f 473/473/473 474/474/474 475/475/475
f 473/473/473 475/475/475 476/476/476
f 477/477/477 478/478/478 479/479/479
f 477/477/477 479/479/479 480/480/480
f 481/481/481 482/482/482 483/483/483
f 481/481/481 483/483/483 484/484/484
f 485/485/485 486/486/486 487/487/487
f 485/485/485 487/487/487 488/488/488
f 489/489/489 490/490/490 491/491/491
f 489/489/489 491/491/491 492/492/492
f 493/493/493 494/494/494 495/495/495
f 493/493/493 495/495/495 496/496/496
f 497/497/497 498/498/498 499/499/499
f 497/497/497 499/499/499 500/500/500
f 501/501/501 502/502/502 503/503/503
f 501/501/501 503/503/503 504/504/504
f 505/505/505 506/506/506 507/507/507
f 505/505/505 507/507/507 508/508/508
f 509/509/509 510/510/510 511/511/511
f 509/509/509 511/511/511 512/512/512
f 513/513/513 514/514/514 515/515/515
f 513/513/513 515/515/515 516/516/516
f 517/517/517 518/518/518 519/519/519
f 517/517/517 519/519/519 520/520/520
f 521/521/521 522/522/522 523/523/523
f 521/521/521 523/523/523 524/524/524
f 525/525/525 526/526/526 527/527/527
f 525/525/525 527/527/527 528/528/528
f 529/529/529 530/530/530 531/531/531
f 529/529/529 531/531/531 532/532/532
f 533/533/533 534/534/534 535/535/535
f 533/533/533 535/535/535 536/536/536
f 537/537/537 538/538/538 539/539/539
f 537/537/537 539/539/539 540/540/540
f 541/541/541 542/542/542 543/543/543
f 541/541/541 543/543/543 544/544/544
f 545/545/545 546/546/546 547/547/547
f 545/545/545 547/547/547 548/548/548
f 549/549/549 550/550/550 551/551/551
f 549/549/549 551/551/551 552/552/552
f 553/553/553 554/554/554 555/555/555
f 553/553/553 555/555/555 556/556/556
f 557/557/557 558/558/558 559/559/559
f 557/557/557 559/559/559 560/560/560
f 561/561/561 562/562/562 563/563/563
f 561/561/561 563/563/563 564/564/564
f 565/565/565 566/566/566 567/567/567
f 565/565/565 567/567/567 568/568/568
f 569/569/569 570/570/570 571/571/571
f 569/569/569 571/571/571 572/572/572
f 573/573/573 574/574/574 575/575/575
f 573/573/573 575/575/575 576/576/576
f 577/577/577 573/573/573 576/576/576
f 577/577/577 576/576/576 578/578/578
f 577/577/577 578/578/578 579/579/579
f 577/577/577 579/579/579 580/580/580
f 581/581/581 580/580/580 579/579/579
f 581/581/581 579/579/579 582/582/582
f 581/581/581 582/582/582 583/583/583
f 581/581/581 583/583/583 584/584/584
f 585/585/585 584/584/584 583/583/583
f 585/585/585 583/583/583 586/586/586
f 587/587/587 585/585/585 586/586/586
f 587/587/587 586/586/586 588/588/588
f 589/589/589 587/587/587 588/588/588
f 589/589/589 588/588/588 590/590/590
f 591/591/591 589/589/589 590/590/590
f 591/591/591 590/590/590 592/592/592
f 593/593/593 591/591/591 592/592/592
f 593/593/593 592/592/592 594/594/594
f 595/595/595 593/593/593 594/594/594
f 595/595/595 594/594/594 596/596/596
f 595/595/595 596/596/596 597/597/597
f 595/595/595 597/597/597 598/598/598
f 599/599/599 598/598/598 597/597/597
f 599/599/599 597/597/597 600/600/600
f 601/601/601 599/599/599 600/600/600
f 601/601/601 600/600/600 602/602/602
f 601/601/601 602/602/602 603/603/603
f 601/601/601 603/603/603 604/604/604
f 605/605/605 604/604/604 603/603/603
f 605/605/605 603/603/603 606/606/606
f 607/607/607 605/605/605 606/606/606
f 607/607/607 606/606/606 608/608/608
f 609/609/609 607/607/607 608/608/608
f 609/609/609 608/608/608 610/610/610
f 611/611/611 609/609/609 610/610/610
f 611/611/611 610/610/610 612/612/612
f 613/613/613 611/611/611 612/612/612
f 613/613/613 612/612/612 614/614/614
f 615/615/615 613/613/613 614/614/614
f 615/615/615 614/614/614 616/616/616
f 617/617/617 615/615/615 616/616/616
f 617/617/617 616/616/616 618/618/618
f 617/617/617 618/618/618 619/619/619
f 617/617/617 619/619/619 620/620/620
f 621/621/621 620/620/620 619/619/619
f 621/621/621 619/619/619 622/622/622
f 621/621/621 622/622/622 623/623/623
f 621/621/621 623/623/623 624/624/624
f 625/625/625 624/624/624 623/623/623
f 625/625/625 623/623/623 626/626/626
f 627/627/627 625/625/625 626/626/626
f 627/627/627 626/626/626 628/628/628
f 629/629/629 627/627/627 628/628/628
f 629/629/629 628/628/628 630/630/630
f 629/629/629 630/630/630 631/631/631
f 629/629/629 631/631/631 632/632/632
f 633/633/633 632/632/632 631/631/631
f 633/633/633 631/631/631 634/634/634
f 635/635/635 633/633/633 634/634/634
f 635/635/635 634/634/634 636/636/636
f 635/635/635 636/636/636 637/637/637
f 635/635/635 637/637/637 638/638/638
f 639/639/639 640/640/640 641/641/641
f 639/639/639 641/641/641 642/642/642
f 643/643/643 639/639/639 642/642/642
f 643/643/643 642/642/642 644/644/644
f 643/643/643 644/644/644 645/645/645
f 643/643/643 645/645/645 646/646/646
f 647/647/647 646/646/646 645/645/645
f 647/647/647 645/645/645 648/648/648
f 647/647/647 648/648/648 649/649/649
f 647/647/647 649/649/649 650/650/650
f 650/650/650 649/649/649 651/651/651
f 650/650/650 651/651/651 652/652/652
f 652/652/652 651/651/651 653/653/653
f 652/652/652 653/653/653 654/654/654
f 655/655/655 654/654/654 653/653/653
f 655/655/655 653/653/653 656/656/656
f 655/655/655 656/656/656 657/657/657
f 655/655/655 657/657/657 658/658/658
f 659/659/659 658/658/658 657/657/657
f 659/659/659 657/657/657 660/660/660
f 659/659/659 660/660/660 661/661/661
f 659/659/659 661/661/661 662/662/662
f 662/662/662 661/661/661 663/663/663
f 662/662/662 663/663/663 664/664/664
f 664/664/664 663/663/663 665/665/665
f 664/664/664 665/665/665 666/666/666
f 667/667/667 666/666/666 665/665/665
f 667/667/667 665/665/665 668/668/668
f 667/667/667 668/668/668 669/669/669
f 667/667/667 669/669/669 670/670/670
f 671/671/671 670/670/670 669/669/669
f 671/671/671 669/669/669 672/672/672
f 673/673/673 671/671/671 672/672/672
f 673/673/673 672/672/672 674/674/674
f 675/675/675 673/673/673 674/674/674
f 675/675/675 674/674/674 676/676/676
f 677/677/677 675/675/675 676/676/676
f 677/677/677 676/676/676 678/678/678
f 679/679/679 677/677/677 678/678/678
f 679/679/679 678/678/678 680/680/680
f 681/681/681 679/679/679 680/680/680
f 681/681/681 680/680/680 682/682/682
f 683/683/683 681/681/681 682/682/682
f 683/683/683 682/682/682 684/684/684
f 685/685/685 683/683/683 684/684/684
f 685/685/685 684/684/684 686/686/686
f 687/687/687 685/685/685 686/686/686
f 687/687/687 686/686/686 688/688/688
f 689/689/689 687/687/687 688/688/688
f 689/689/689 688/688/688 690/690/690
f 691/691/691 689/689/689 690/690/690
f 691/691/691 690/690/690 692/692/692
f 693/693/693 691/691/691 692/692/692
f 693/693/693 692/692/692 694/694/694
f 695/695/695 693/693/693 694/694/694
f 695/695/695 694/694/694 696/696/696
f 695/695/695 696/696/696 697/697/697
f 695/695/695 697/697/697 698/698/698
f 699/699/699 698/698/698 697/697/697
f 699/699/699 697/697/697 700/700/700
f 701/701/701 699/699/699 700/700/700
f 701/701/701 700/700/700 702/702/702
f 703/703/703 701/701/701 702/702/702
f 703/703/703 702/702/702 704/704/704
f 705/705/705 706/706/706 707/707/707
f 708/708/708 707/707/707 706/706/706
f 705/705/705 707/707/707 709/709/709
f 708/708/708 710/710/710 707/707/707
f 711/711/711 705/705/705 709/709/709
f 711/711/711 709/709/709 712/712/712
f 713/713/713 711/711/711 712/712/712
f 713/713/713 712/712/712 714/714/714
f 715/715/715 713/713/713 714/714/714
f 715/715/715 714/714/714 716/716/716
f 717/717/717 715/715/715 716/716/716
f 717/717/717 716/716/716 718/718/718
f 719/719/719 717/717/717 718/718/718
f 719/719/719 718/718/718 720/720/720
f 721/721/721 719/719/719 720/720/720
f 721/721/721 720/720/720 722/722/722
f 723/723/723 721/721/721 722/722/722
f 723/723/723 722/722/722 724/724/724
f 725/725/725 723/723/723 724/724/724
f 725/725/725 724/724/724 726/726/726
f 727/727/727 725/725/725 726/726/726
f 727/727/727 726/726/726 728/728/728
f 729/729/729 727/727/727 728/728/728
f 729/729/729 728/728/728 730/730/730
f 731/731/731 729/729/729 730/730/730
f 731/731/731 730/730/730 732/732/732
f 733/733/733 731/731/731 732/732/732
f 733/733/733 732/732/732 734/734/734
f 733/733/733 734/734/734 735/735/735
f 733/733/733 735/735/735 736/736/736
f 737/737/737 736/736/736 735/735/735
f 737/737/737 735/735/735 738/738/738
f 739/739/739 737/737/737 738/738/738
f 739/739/739 738/738/738 740/740/740
f 741/741/741 739/739/739 740/740/740
f 741/741/741 740/740/740 742/742/742
f 743/743/743 741/741/741 742/742/742
f 743/743/743 742/742/742 744/744/744
f 745/745/745 743/743/743 744/744/744
f 745/745/745 744/744/744 746/746/746
f 745/745/745 746/746/746 747/747/747
f 745/745/745 747/747/747 748/748/748
f 749/749/749 748/748/748 747/747/747
f 749/749/749 747/747/747 750/750/750
f 749/749/749 750/750/750 751/751/751
f 749/749/749 751/751/751 752/752/752
f 752/752/752 751/751/751 753/753/753
f 752/752/752 753/753/753 754/754/754
f 754/754/754 753/753/753 755/755/755
f 754/754/754 755/755/755 756/756/756
f 757/757/757 756/756/756 755/755/755
f 757/757/757 755/755/755 758/758/758
f 757/757/757 758/758/758 759/759/759
f 757/757/757 759/759/759 760/760/760
f 761/761/761 760/760/760 759/759/759
f 761/761/761 759/759/759 762/762/762
f 761/761/761 762/762/762 763/763/763
f 761/761/761 763/763/763 764/764/764
f 764/764/764 763/763/763 765/765/765
f 764/764/764 765/765/765 766/766/766
f 766/766/766 765/765/765 767/767/767
f 766/766/766 767/767/767 768/768/768
f 708/708/708 768/768/768 767/767/767
f 708/708/708 767/767/767 710/710/710
f 769/769/769 770/770/770 771/771/771
f 769/769/769 772/772/772 770/770/770
f 769/769/769 771/771/771 773/773/773
f 769/769/769 774/774/774 772/772/772
f 775/775/775 773/773/773 771/771/771
f 775/775/775 771/771/771 776/776/776
f 777/777/777 775/775/775 776/776/776
f 777/777/777 776/776/776 778/778/778
f 779/779/779 777/777/777 778/778/778
f 779/779/779 778/778/778 780/780/780
f 781/781/781 779/779/779 780/780/780
f 781/781/781 780/780/780 782/782/782
f 783/783/783 781/781/781 782/782/782
f 783/783/783 782/782/782 784/784/784
f 785/785/785 783/783/783 784/784/784
f 785/785/785 784/784/784 786/786/786
f 774/774/774 787/787/787 772/772/772
f 774/774/774 788/788/788 787/787/787
f 789/789/789 785/785/785 786/786/786
f 789/789/789 786/786/786 790/790/790
f 791/791/791 787/787/787 788/788/788
f 791/791/791 792/792/792 787/787/787
f 791/791/791 793/793/793 792/792/792
f 791/791/791 794/794/794 793/793/793
f 794/794/794 795/795/795 793/793/793
f 794/794/794 796/796/796 795/795/795
f 796/796/796 797/797/797 795/795/795
f 796/796/796 798/798/798 797/797/797
f 798/798/798 799/799/799 797/797/797
f 798/798/798 800/800/800 799/799/799
f 800/800/800 801/801/801 799/799/799
f 800/800/800 802/802/802 801/801/801
f 802/802/802 803/803/803 801/801/801
f 802/802/802 804/804/804 803/803/803
f 805/805/805 803/803/803 804/804/804
f 805/805/805 806/806/806 803/803/803
f 805/805/805 807/807/807 806/806/806
f 805/805/805 808/808/808 807/807/807
f 809/809/809 807/807/807 808/808/808
f 809/809/809 810/810/810 807/807/807
f 809/809/809 811/811/811 810/810/810
f 809/809/809 812/812/812 811/811/811
f 812/812/812 813/813/813 811/811/811
f 812/812/812 814/814/814 813/813/813
f 815/815/815 813/813/813 814/814/814
f 815/815/815 816/816/816 813/813/813
f 815/815/815 817/817/817 816/816/816
f 815/815/815 818/818/818 817/817/817
f 818/818/818 819/819/819 817/817/817
f 818/818/818 820/820/820 819/819/819
f 821/821/821 819/819/819 820/820/820
f 821/821/821 822/822/822 819/819/819
f 821/821/821 823/823/823 822/822/822
f 821/821/821 824/824/824 823/823/823
f 824/824/824 825/825/825 823/823/823
f 824/824/824 826/826/826 825/825/825
f 826/826/826 827/827/827 825/825/825
f 826/826/826 828/828/828 827/827/827
f 829/829/829 827/827/827 828/828/828
f 829/829/829 830/830/830 827/827/827
f 829/829/829 831/831/831 830/830/830
f 829/829/829 832/832/832 831/831/831
f 789/789/789 831/831/831 832/832/832
f 789/789/789 790/790/790 831/831/831
