# hura_crepitans_a_COL
v -0.976844966 -0.25999999 -1.04023397
v -0.867003977 -0.25999999 -0.717247963
v -0.585314989 0.240783989 -0.62450999
v -0.684131026 -0.25999999 -0.941624939
v -0.696852028 0.241275996 -0.577615976
v -0.793727994 -0.25999999 -0.37349999
v -0.406495005 0.241312996 -0.560805023
v -0.354957014 -0.25999999 -0.896519005
v -0.267268002 0.240326002 -0.676667988
v -0.121056996 -0.25999999 -0.95826298
v -0.754674971 0.24336499 -0.356097966
v -0.427952975 0.766969979 -0.37103197
v -0.391211003 0.76602298 -0.433918983
v -0.875346959 0.245361984 -0.167803004
v -1.19800401 -0.25999999 -0.228530988
v -1.009987 -0.25999999 0.0635429993
v -0.334504992 0.765504956 -0.478020996
v -0.554836988 0.76858598 -0.277271986
v -0.0599940009 0.242476985 -0.478087991
v -0.212706998 0.764831007 -0.555561006
v -0.314221978 1.32825899 -0.435492992
v -0.291069984 1.32285988 -0.315058976
v -0.316399992 1.31754386 -0.267903984
v 0.0969270021 0.239556 -0.765689969
v 0.187045991 -0.25999999 -1.48062301
v 0.688558996 -0.25999999 -1.25248492
v -0.535457969 0.772414029 -0.117453001
v -0.34146598 1.30886304 -0.167155981
v -0.557797968 0.247108981 0.0343779996
v -0.683593988 0.249332994 0.221460983
v -0.817321002 -0.25999999 0.265563995
v -0.838154972 0.252885997 0.531302989
v -1.19383097 -0.25999999 0.757628024
v -0.620069981 0.254337013 0.659787953
v -1.15572298 -0.25999999 1.23071992
v -0.496755958 -0.25999999 0.903596997
v -0.669737995 0.790412962 0.410214007
v -0.580134988 0.782502949 0.17379801
v -0.544780016 0.777024984 0.0194589999
v -0.468988985 1.29977703 -0.0948899984
v -0.398695976 2.12564492 -0.187469006
v -0.388796985 2.128088 -0.314260989
v -0.361600995 2.13108206 -0.371246964
v -0.438827991 0.792545974 0.452443987
v -0.433492988 1.30327106 0.266564012
v -0.500796974 1.29842186 0.156498998
v -0.457517982 1.30029297 0.0235980004
v -0.540180981 2.127666 -0.106913991
v -0.571405947 2.14233184 0.0260080006
v -0.489366978 2.80371785 -0.121199995
v -0.403418988 2.1601119 0.111691996
v -0.309388012 0.253091991 0.562488973
v -0.480805993 2.8046279 -0.251738995
v -0.420446008 2.82238889 -0.365565985
v -0.482816994 2.818084 -0.00274499995
v -0.514392018 3.47752976 -0.233026996
v -0.209367007 0.255104989 0.815865993
v -0.291300982 -0.25999999 1.13454294
v 0 -0.25999999 1.11001003
v -0.499047995 3.48024487 -0.095893003
v -0.371753007 2.83431697 -0.405315012
v -0.453381985 3.49778986 -0.348230004
v -0.422134995 4.59049082 -0.217856005
v -0.308784992 2.13614106 -0.401545972
v -0.223920986 1.34226584 -0.559474945
v -0.0534229986 0.768945992 -0.444821
v 0.0595069975 0.767998934 -0.480411977
v -0.0732499957 1.354581 -0.532005966
v -0.146502003 2.15523696 -0.306544989
v -0.30103001 2.84787893 -0.410461992
v -0.368951976 3.51414776 -0.349756986
v -0.330178976 4.62044191 -0.290096998
v -0.0772840008 2.16694307 -0.35302797
v -0.174207985 2.87468982 -0.378133982
v -0.304527998 3.5319469 -0.350788981
v 0.0594509952 1.36254191 -0.534319997
v -0.274178982 4.64250994 -0.300648004
v -0.0890260041 2.89929509 -0.352767974
v -0.20568198 3.56922293 -0.341469973
v 0.0139339995 2.16815305 -0.401048005
v -0.218641996 4.66656065 -0.292187989
v 0.267724007 1.36645997 -0.504190981
v 0.218731001 2.1534369 -0.467909992
v 0.294981986 0.763041973 -0.549991012
v 0.405120999 0.763778985 -0.445326984
v 0.357923001 0.239857987 -0.651232958
v 0.633849978 0.239025995 -0.675363958
v 1.24388492 -0.25999999 -1.32460403
v 1.10428095 -0.25999999 -0.913541019
v 0.714680016 0.239633992 -0.591689944
v 0.866539001 -0.25999999 -0.549922943
v 0.629909992 0.241513997 -0.400275975
v 1.25550103 -0.25999999 -0.239500001
v 0.41970098 1.36884987 -0.458754003
v 0.413626999 0.765250981 -0.356296003
v 0.752331972 0.243607 -0.144198999
v 1.106444 -0.25999999 -0.0696120039
v 0.462165982 1.36673403 -0.392547995
v 0.419928014 1.35843301 -0.275426984
v 0.456586987 0.765674949 -0.304053009
v 0.299496979 2.14905906 -0.283457994
v 0.532655001 0.76799798 -0.116459996
v 0.709334016 0.244555995 -0.0453649983
v 0.244557992 2.15223002 -0.30419299
v 0.788544953 0.246740997 0.201296002
v 1.22341204 -0.25999999 0.315144986
v 0.726602018 0.248209 0.340930998
v 1.06990898 -0.25999999 0.503461003
v 0.595013022 0.251421988 0.632381976
v 0.434994012 0.782177925 0.445937991
v 0.957967937 -0.25999999 1.02013195
v 0.716920972 -0.25999999 0.98675698
v 0.609467983 0.775598943 0.270660996
v 0.616071999 0.772301972 0.144154996
v 0.469832987 0.251785994 0.645304024
v 0.612200975 0.768616021 -0.0535690002
v 0.485084981 1.33355391 0.221893996
v 0.306548983 0.253421992 0.772451997
v 0.521645963 -0.25999999 1.31752694
v 0.353163987 -0.25999999 1.37548292
v 0.170494005 0.252608001 0.661742985
v 0.255410999 0.789281964 0.625505984
v 0.00035300001 0.252745986 0.630540013
v 0.550749004 1.339396 0.134434998
v 0.36393699 0.784016013 0.483107984
v 0.157552987 0.78955394 0.59216702
v -0.168140993 0.794921994 0.643331945
v 0.231128007 1.31947601 0.581220984
v 0.274634987 1.32454491 0.373237997
v 0.274634004 1.32542801 0.287111998
v 0.423982978 2.14456296 0.201483995
v 0.332928985 2.16244793 0.372066975
v 0.00130400003 0.790478945 0.547874987
v -0.316958994 0.795121014 0.562299013
v -0.425234973 1.30318403 0.441013962
v -0.307404995 1.30679703 0.543775976
v -0.167196006 1.30717802 0.63051796
v -0.00277699996 1.31366801 0.576860964
v -0.372359008 2.17723203 0.203208998
v -0.273307979 2.19335604 0.238129005
v -0.438557982 2.83954191 0.0980739966
v 0.158707991 1.31655192 0.618874013
v -0.212607995 2.19988298 0.306600988
v -0.412289977 2.86146092 0.198099002
v -0.448693991 3.50440788 0.0140190003
v -0.258062989 2.88941002 0.180785
v -0.392792016 3.53855896 0.090594992
v -0.459385961 4.58814764 -0.103058003
v -0.427704006 4.61430693 0.0104480004
v -0.38240099 3.57571793 0.169064
v -0.43026197 5.73180151 -0.0979399979
v -0.339188993 4.65897703 0.0793069974
v -0.395431995 5.73399258 -0.205275983
v -0.400638998 5.75626087 0.00818899926
v -0.0113249999 5.99849272 -0.0243129991
v -0.309453994 5.76199675 -0.272821009
v -0.317877978 5.79802656 0.0725719929
v -0.257092983 5.78263092 -0.282685995
v -0.227652997 4.70509624 0.0772159994
v -0.205166996 5.80511761 -0.274775982
v -0.130127996 4.71123075 -0.223328993
v -0.35670501 3.61243582 0.247483
v -0.213590994 5.8411479 0.0706169978
v -0.191436991 4.71689081 0.048765
v -0.249342993 3.6195097 0.245731995
v -0.179729998 5.85217714 0.0440150015
v -0.122405991 5.84688473 -0.210393012
v -0.136775002 3.60514569 -0.34393698
v -0.11627499 4.72628975 0.0737029985
v -0.109453 5.86096478 0.0673319995
v -0.105255 5.85285807 0.117728993
v -0.0852390006 5.86367273 -0.146559998
v -0.0903769955 4.72918606 -0.155058995
v -0.00940299965 2.90639997 -0.365830004
v -0.111785002 4.7176199 0.127602994
v -0.0614270009 3.61218691 -0.320217013
v -0.0500930026 4.73364401 -0.154392987
v 0.158191994 2.89001894 -0.403263003
v 0.0766410008 3.57560611 -0.316029996
v 0.210120991 2.8764348 -0.302316993
v -0.0537340008 5.82253408 0.212917
v -0.0475729965 5.86784124 -0.145937994
v 0.0978460014 4.69490814 -0.246806994
v 0.0907489955 5.83162165 -0.232343987
v 0.246695995 3.54825807 -0.368344992
v 0.268959999 2.87021899 -0.290345997
v 0.197106987 5.7953558 -0.235097006
v 0.211596996 4.65612078 -0.249750987
v 0.291186005 3.53470206 -0.325661987
v 0.247665003 5.77582884 -0.21909
v 0.265668988 4.63523579 -0.232630998
v 0.293491006 5.75650024 -0.192259997
v 0.38410598 5.7078886 -0.0605889969
v 0.394281983 5.69717503 -0.00604399946
v 0.314682007 4.61456299 -0.203934982
v 0.327240974 3.52119684 -0.276254982
v 0.41159597 4.56257391 -0.0631109998
v 0.336012989 2.86424708 -0.272897989
v 0.413880974 3.48483396 -0.112677999
v 0.422478974 4.55111504 -0.00477299979
v 0.342155993 2.14647198 -0.246497989
v 0.441959977 2.84301686 -0.127131999
v 0.483534992 2.14088488 -0.107889004
v 0.465004981 3.4759109 -0.0534539968
v 0.381260991 5.68696594 0.105136991
v 0.493377984 1.35000896 -0.101232
v 0.498723984 2.83820701 -0.0698419958
v 0.408553004 4.54019499 0.114135996
v 0.513391972 1.34702897 -0.0391139984
v 0.449855 2.13958597 -0.0402799994
v 0.478279978 2.14012504 0.118129991
v 0.399081975 3.46054411 0.100220002
v 0.454643995 2.82303977 0.0868439972
v 0.400251985 2.82186007 0.166359007
v 0.35256198 3.46320391 0.179941997
v 0.351646006 2.83688593 0.372503012
v 0.384350985 4.54121065 0.169509992
v 0.258875012 2.16650796 0.382499993
v 0.261763006 3.49058199 0.335460991
v 0.358631998 5.68791628 0.156911999
v 0.140424997 2.17623591 0.414294988
v 0.295405 2.84215498 0.415767998
v 0.256672978 4.56907797 0.291362971
v 0.0777399987 2.17983699 0.403536975
v 0.206527993 3.50268173 0.363878995
v 0.125537008 2.85202694 0.369179994
v 0.239252999 5.71397209 0.270843983
v -0.030785 2.18722582 0.384740978
v 0.0690969974 2.85839796 0.374424994
v 0.201965004 4.58528471 0.311298013
v 0.0618489981 3.52792501 0.322995991
v -0.128562003 2.194031 0.357957006
v 0.188101009 5.72912455 0.289483994
v -0.0400179997 2.87067795 0.423676968
v 0.0151800001 3.54233289 0.332605004
v 0.0882129967 4.62407255 0.314242989
v -0.121485993 2.8837769 0.260241002
v 0.0817430019 5.76539183 0.292236
v -0.0801150054 3.57121086 0.364404976
v 0.0341410004 4.64495802 0.297122985
v 0.0311859977 5.78491879 0.276229978
v -0.0566830002 4.68518686 0.229409009
v -0.160200998 3.59594679 0.258290976
v -0.194362998 2.89557314 0.220605999
g submesh0
f 1 2 3
f 4 1 3
f 5 3 2
f 6 5 2
f 3 7 4
f 8 4 7
f 7 9 8
f 10 8 9
f 11 5 6
f 3 5 12
f 5 11 12
f 7 3 13
f 12 13 3
f 14 11 6
f 6 15 14
f 15 16 14
f 9 7 17
f 13 17 7
f 18 12 11
f 14 18 11
f 9 19 10
f 17 20 9
f 19 9 20
f 13 21 17
f 20 17 21
f 13 12 22
f 22 21 13
f 12 18 23
f 23 22 12
f 10 19 24
f 24 25 10
f 26 25 24
f 27 18 14
f 28 23 18
f 27 28 18
f 29 27 14
f 29 14 16
f 30 29 16
f 16 31 30
f 32 30 31
f 31 33 32
f 34 32 33
f 33 35 34
f 36 34 35
f 30 32 37
f 34 37 32
f 29 30 38
f 37 38 30
f 39 27 29
f 38 39 29
f 40 28 27
f 40 27 39
f 40 41 28
f 23 28 41
f 41 42 23
f 22 23 42
f 42 43 22
f 21 22 43
f 44 37 34
f 38 37 45
f 37 44 45
f 39 38 46
f 45 46 38
f 47 40 39
f 46 47 39
f 48 40 47
f 48 41 40
f 49 47 46
f 49 48 47
f 41 48 50
f 50 48 49
f 51 49 46
f 51 46 45
f 52 44 34
f 52 34 36
f 50 53 41
f 42 41 53
f 53 54 42
f 43 42 54
f 51 55 49
f 55 50 49
f 56 53 50
f 54 53 56
f 57 52 36
f 36 58 57
f 59 57 58
f 60 50 55
f 60 56 50
f 54 61 43
f 56 62 54
f 61 54 62
f 63 56 60
f 62 56 63
f 64 43 61
f 43 64 21
f 65 21 64
f 21 65 20
f 66 20 65
f 20 66 19
f 19 66 67
f 67 24 19
f 65 68 66
f 67 66 68
f 64 69 65
f 68 65 69
f 61 70 64
f 69 64 70
f 62 71 61
f 70 61 71
f 63 72 62
f 71 62 72
f 69 73 68
f 70 74 69
f 73 69 74
f 71 75 70
f 74 70 75
f 68 76 67
f 76 68 73
f 72 77 71
f 75 71 77
f 74 78 73
f 75 79 74
f 78 74 79
f 73 80 76
f 80 73 78
f 77 81 75
f 79 75 81
f 76 82 67
f 80 83 76
f 76 83 82
f 82 84 67
f 85 84 82
f 67 84 24
f 24 84 86
f 84 85 86
f 24 86 26
f 26 86 87
f 86 85 87
f 88 26 87
f 89 88 87
f 87 90 89
f 90 87 85
f 91 89 90
f 90 92 91
f 93 91 92
f 94 82 83
f 82 94 85
f 85 95 90
f 92 90 95
f 92 96 93
f 97 93 96
f 94 98 85
f 85 98 95
f 98 99 95
f 95 100 92
f 96 92 100
f 99 100 95
f 98 94 101
f 99 98 101
f 100 102 96
f 102 100 99
f 96 103 97
f 103 96 102
f 83 104 94
f 104 101 94
f 103 105 97
f 97 105 106
f 105 107 106
f 106 107 108
f 107 109 108
f 107 110 109
f 108 109 111
f 112 111 109
f 105 113 107
f 113 110 107
f 103 114 105
f 114 113 105
f 109 115 112
f 115 109 110
f 116 114 103
f 102 116 103
f 114 117 113
f 110 113 117
f 112 115 118
f 119 112 118
f 120 119 118
f 118 121 120
f 59 120 121
f 118 115 122
f 121 118 122
f 121 123 59
f 123 57 59
f 124 114 116
f 124 117 114
f 110 125 115
f 125 122 115
f 122 126 121
f 123 121 126
f 123 127 57
f 52 57 127
f 128 122 125
f 126 122 128
f 125 110 129
f 129 128 125
f 117 130 110
f 130 129 110
f 130 117 131
f 131 117 124
f 129 130 132
f 131 132 130
f 126 133 123
f 133 127 123
f 127 134 52
f 134 44 52
f 135 44 134
f 135 45 44
f 136 134 127
f 136 135 134
f 137 127 133
f 137 136 127
f 138 133 126
f 138 137 133
f 139 45 135
f 139 51 45
f 135 136 140
f 140 139 135
f 141 51 139
f 141 55 51
f 142 138 126
f 128 142 126
f 137 143 136
f 143 140 136
f 144 139 140
f 144 141 139
f 145 55 141
f 145 60 55
f 146 140 143
f 146 144 140
f 147 141 144
f 147 145 141
f 148 60 145
f 148 63 60
f 149 148 145
f 149 145 147
f 150 147 144
f 146 150 144
f 63 148 151
f 151 148 149
f 152 149 147
f 147 150 152
f 151 153 63
f 72 63 153
f 154 151 149
f 152 154 149
f 153 151 155
f 151 154 155
f 156 153 155
f 153 156 72
f 154 157 155
f 157 154 152
f 77 72 156
f 156 158 77
f 158 156 155
f 81 77 158
f 159 152 150
f 157 152 159
f 158 160 81
f 160 158 155
f 161 81 160
f 81 161 79
f 162 159 150
f 162 150 146
f 163 157 159
f 157 163 155
f 159 162 164
f 164 163 159
f 165 162 146
f 162 165 164
f 166 163 164
f 163 166 155
f 167 160 155
f 160 167 161
f 168 79 161
f 79 168 78
f 166 164 169
f 169 164 165
f 166 170 155
f 170 166 169
f 170 171 155
f 171 170 169
f 172 167 155
f 173 161 167
f 161 173 168
f 167 172 173
f 174 78 168
f 78 174 80
f 169 175 171
f 175 169 165
f 173 176 168
f 168 176 174
f 177 173 172
f 176 173 177
f 174 178 80
f 80 178 83
f 176 179 174
f 174 179 178
f 178 180 83
f 180 104 83
f 181 171 175
f 171 181 155
f 172 182 177
f 182 172 155
f 177 183 176
f 183 179 176
f 182 184 177
f 184 182 155
f 184 183 177
f 179 185 178
f 185 180 178
f 180 186 104
f 104 186 101
f 184 187 183
f 187 184 155
f 183 188 179
f 187 188 183
f 179 188 185
f 185 189 180
f 189 186 180
f 190 187 155
f 187 190 188
f 188 191 185
f 188 190 191
f 185 191 189
f 192 190 155
f 190 192 191
f 193 192 155
f 194 193 155
f 191 192 195
f 191 195 189
f 192 193 195
f 189 196 186
f 189 195 196
f 193 197 195
f 193 194 197
f 195 197 196
f 196 198 186
f 186 198 101
f 197 199 196
f 196 199 198
f 194 200 197
f 197 200 199
f 198 201 101
f 101 201 99
f 199 202 198
f 198 202 201
f 201 203 99
f 202 203 201
f 199 204 202
f 200 204 199
f 194 205 200
f 205 194 155
f 203 206 99
f 99 206 102
f 116 102 206
f 202 207 203
f 204 207 202
f 200 208 204
f 205 208 200
f 206 209 116
f 209 124 116
f 203 210 206
f 210 209 206
f 203 207 210
f 211 124 209
f 210 211 209
f 211 131 124
f 204 212 207
f 208 212 204
f 207 213 210
f 213 211 210
f 212 213 207
f 211 214 131
f 213 214 211
f 214 213 212
f 132 131 214
f 215 212 208
f 212 215 214
f 214 216 132
f 216 214 215
f 208 217 215
f 217 208 205
f 218 132 216
f 132 218 129
f 128 129 218
f 215 219 216
f 219 215 217
f 205 220 217
f 220 205 155
f 218 221 128
f 142 128 221
f 216 222 218
f 222 216 219
f 221 218 222
f 217 223 219
f 223 217 220
f 221 224 142
f 138 142 224
f 219 225 222
f 225 219 223
f 222 226 221
f 224 221 226
f 226 222 225
f 220 227 223
f 227 220 155
f 224 228 138
f 137 138 228
f 226 229 224
f 228 224 229
f 223 230 225
f 230 223 227
f 225 231 226
f 229 226 231
f 231 225 230
f 228 232 137
f 232 143 137
f 227 233 230
f 233 227 155
f 229 234 228
f 232 228 234
f 231 235 229
f 234 229 235
f 230 236 231
f 236 230 233
f 235 231 236
f 143 232 237
f 234 237 232
f 238 233 155
f 233 238 236
f 235 239 234
f 237 234 239
f 236 240 235
f 240 236 238
f 239 235 240
f 241 238 155
f 238 241 240
f 181 241 155
f 242 240 241
f 241 181 242
f 240 242 239
f 175 242 181
f 243 239 242
f 242 175 243
f 239 243 237
f 165 243 175
f 244 237 243
f 243 165 244
f 237 244 143
f 146 244 165
f 244 146 143
