# ice_sculpture_pedestal_COL
v -0.667218387 2.35878443E-17 -0.38521874
v -0.38521868 0.0501469783 -0.667218447
v -0.38521868 4.08553471E-17 -0.667218447
v -0.667218387 0.0501469783 -0.38521874
v -0.770437479 0 0
v -0.770437479 0.0501469783 3.07061686E-18
v -0.667218149 -2.35878724E-17 0.385219187
v -0.667218149 0.0501469783 0.385219187
v -0.385218352 -4.0855357E-17 0.667218626
v -0.385218352 0.0501469783 0.667218626
v 3.58185844E-07 -4.71756886E-17 0.770437479
v 3.58185844E-07 0.0501469783 0.770437479
v 0.385218948 -4.08553339E-17 0.667218208
v 0.385218948 0.0501469783 0.667218208
v 0.667218447 -2.35878344E-17 0.385218561
v 0.667218447 0.0501469783 0.385218561
v 0.770437479 7.12333035E-24 -1.16332821E-07
v 0.770437479 0.0501469783 -1.16332821E-07
v 0.667218387 2.35878476E-17 -0.385218769
v 0.667218387 0.0501469783 -0.385218769
v 0.385218769 4.08553405E-17 -0.667218387
v 0.385218769 0.0501469783 -0.667218387
v 3.36768906E-08 4.71756886E-17 -0.770437479
v 3.36768906E-08 0.0501469783 -0.770437479
v -0.38521868 4.08553471E-17 -0.667218447
v -0.38521868 0.0501469783 -0.667218447
v -0.667218387 0.724841118 -0.38521874
v -0.38521868 0.774988055 -0.667218447
v -0.38521868 0.724841118 -0.667218447
v -0.667218387 0.774988055 -0.38521874
v -0.770437479 0.724841118 4.43837224E-17
v -0.770437479 0.774988055 4.74543327E-17
v -0.667218149 0.724841118 0.385219187
v -0.667218149 0.774988055 0.385219187
v -0.385218352 0.724841118 0.667218626
v -0.385218352 0.774988055 0.667218626
v 3.58185844E-07 0.724841118 0.770437479
v 3.58185844E-07 0.774988055 0.770437479
v 0.385218948 0.724841118 0.667218208
v 0.385218948 0.774988055 0.667218208
v 0.667218447 0.724841118 0.385218561
v 0.667218447 0.774988055 0.385218561
v 0.770437479 0.724841118 -1.16332821E-07
v 0.770437479 0.774988055 -1.16332821E-07
v 0.667218387 0.724841118 -0.385218769
v 0.667218387 0.774988055 -0.385218769
v 0.385218769 0.724841118 -0.667218387
v 0.385218769 0.774988055 -0.667218387
v 3.36768871E-08 0.724841118 -0.770437479
v 3.36768871E-08 0.774988055 -0.770437479
v -0.38521868 0.724841118 -0.667218447
v -0.38521868 0.774988055 -0.667218447
v -0.37851432 0.0391209386 -0.218535393
v -0.218535304 0.729498863 -0.378514439
v -0.218535319 0.0391209386 -0.378514439
v -0.37851432 0.729498863 -0.218535393
v -0.437070727 0.0391209386 1.2895407E-09
v -0.437070727 0.729498863 1.2895407E-09
v -0.3785142 0.0391209386 0.218535647
v -0.3785142 0.729498863 0.218535647
v -0.21853511 0.0391209386 0.378514498
v -0.21853511 0.729498863 0.378514498
v 2.63679027E-07 0.0391209386 0.437070787
v 2.63679027E-07 0.729498863 0.437070787
v 0.218535587 0.0391209386 0.37851432
v 0.218535602 0.729498863 0.37851432
v 0.378514498 0.0391209386 0.218535304
v 0.378514498 0.729498863 0.218535304
v 0.437070876 0.0391209386 -6.47063061E-08
v 0.437070876 0.729498863 -6.47063061E-08
v 0.378514469 0.0391209386 -0.218535423
v 0.378514469 0.729498863 -0.218535423
v 0.218535483 0.0391209386 -0.378514409
v 0.218535498 0.729498863 -0.378514409
v 7.95844031E-08 0.0391209386 -0.437070787
v 7.95844031E-08 0.729498863 -0.437070787
v -0.218535319 0.0391209386 -0.378514439
v -0.218535304 0.729498863 -0.378514439
v -0.385218352 0.774988055 0.667218626
v 7.62939436E-08 0.774988055 9.53674295E-09
v -0.667218149 0.774988055 0.385219187
v 3.58185844E-07 0.774988055 0.770437479
v -0.770437479 0.774988055 4.74543327E-17
v 0.385218948 0.774988055 0.667218208
v -0.667218387 0.774988055 -0.38521874
v 0.667218447 0.774988055 0.385218561
v -0.38521868 0.774988055 -0.667218447
v 0.770437479 0.774988055 -1.16332821E-07
v 3.36768871E-08 0.774988055 -0.770437479
v 0.667218387 0.774988055 -0.385218769
v 0.385218769 0.774988055 -0.667218387
v 3.36768871E-08 0.724841118 -0.770437479
v 6.03993726E-08 0.724841118 -6.35782937E-09
v -0.38521868 0.724841118 -0.667218447
v 0.385218769 0.724841118 -0.667218387
v -0.667218387 0.724841118 -0.38521874
v 0.667218387 0.724841118 -0.385218769
v -0.770437479 0.724841118 4.43837224E-17
v 0.770437479 0.724841118 -1.16332821E-07
v -0.667218149 0.724841118 0.385219187
v 0.667218447 0.724841118 0.385218561
v -0.385218352 0.724841118 0.667218626
v 0.385218948 0.724841118 0.667218208
v 3.58185844E-07 0.724841118 0.770437479
v -0.385218352 0.0501469783 0.667218626
v 7.62939436E-08 0.0501469783 9.53674295E-09
v -0.667218149 0.0501469783 0.385219187
v 3.58185844E-07 0.0501469783 0.770437479
v -0.770437479 0.0501469783 3.07061686E-18
v 0.385218948 0.0501469783 0.667218208
v -0.667218387 0.0501469783 -0.38521874
v 0.667218447 0.0501469783 0.385218561
v -0.38521868 0.0501469783 -0.667218447
v 0.770437479 0.0501469783 -1.16332821E-07
v 3.36768906E-08 0.0501469783 -0.770437479
v 0.667218387 0.0501469783 -0.385218769
v 0.385218769 0.0501469783 -0.667218387
v 3.36768906E-08 4.71756886E-17 -0.770437479
v 6.03993726E-08 3.8930473E-25 -6.35782893E-09
v -0.38521868 4.08553471E-17 -0.667218447
v 0.385218769 4.08553405E-17 -0.667218387
v -0.667218387 2.35878443E-17 -0.38521874
v 0.667218387 2.35878476E-17 -0.385218769
v -0.770437479 0 0
v 0.770437479 7.12333035E-24 -1.16332821E-07
v -0.667218149 -2.35878724E-17 0.385219187
v 0.667218447 -2.35878344E-17 0.385218561
v -0.385218352 -4.0855357E-17 0.667218626
v 0.385218948 -4.08553339E-17 0.667218208
v 3.58185844E-07 -4.71756886E-17 0.770437479
vn -0.866025448 0 -0.49999997
vn -0.49999997 0 -0.866025448
vn -0.49999997 0 -0.866025448
vn -0.866025448 0 -0.49999997
vn -1 0 1.27673218E-07
vn -1 0 1.27673218E-07
vn -0.866025269 0 0.500000417
vn -0.866025269 0 0.500000417
vn -0.499999493 0 0.866025686
vn -0.499999493 0 0.866025686
vn 4.61587803E-07 0 1
vn 4.61587803E-07 0 1
vn 0.500000238 0 0.866025269
vn 0.500000238 0 0.866025269
vn 0.866025507 0 0.499999911
vn 0.866025507 0 0.499999911
vn 1 0 -1.08031188E-07
vn 1 0 -1.08031188E-07
vn 0.866025448 0 -0.5
vn 0.866025448 0 -0.5
vn 0.5 0 -0.866025448
vn 0.5 0 -0.866025448
vn 1.0803118E-07 0 -1
vn 1.0803118E-07 0 -1
vn -0.49999997 0 -0.866025448
vn -0.49999997 0 -0.866025448
vn -0.866025448 0 -0.5
vn -0.499999911 0 -0.866025448
vn -0.499999911 0 -0.866025448
vn -0.866025448 0 -0.5
vn -1 0 1.27673218E-07
vn -1 0 1.27673218E-07
vn -0.866025269 0 0.500000417
vn -0.866025269 0 0.500000417
vn -0.499999523 0 0.866025686
vn -0.499999523 0 0.866025686
vn 5.10692871E-07 0 1
vn 5.10692871E-07 0 1
vn 0.500000358 0 0.866025269
vn 0.500000358 0 0.866025269
vn 0.866025507 0 0.499999851
vn 0.866025507 0 0.499999851
vn 1 0 -1.08031188E-07
vn 1 0 -1.08031188E-07
vn 0.866025448 0 -0.5
vn 0.866025448 0 -0.5
vn 0.5 0 -0.866025448
vn 0.5 0 -0.866025448
vn 0 0 -1
vn 0 0 -1
vn -0.499999911 0 -0.866025448
vn -0.499999911 0 -0.866025448
vn -0.866025448 0 -0.5
vn -0.5 0 -0.866025448
vn -0.5 0 -0.866025448
vn -0.866025448 0 -0.5
vn -1 0 0
vn -1 0 0
vn -0.86602515 0 0.500000417
vn -0.86602515 0 0.500000417
vn -0.499999523 0 0.866025686
vn -0.499999523 0 0.866025686
vn 4.51766766E-07 0 1
vn 4.51766766E-07 0 1
vn 0.500000358 0 0.866025269
vn 0.500000417 0 0.866025269
vn 0.866025507 0 0.499999851
vn 0.866025507 0 0.499999851
vn 1 0 0
vn 1 0 0
vn 0.866025448 0 -0.5
vn 0.866025448 0 -0.5
vn 0.50000006 0 -0.866025329
vn 0.50000006 0 -0.866025329
vn 0 0 -1
vn 0 0 -1
vn -0.5 0 -0.866025448
vn -0.5 0 -0.866025448
vn 0 1 0
vn 0 1 0
vn 0 1 0
vn 0 1 0
vn 0 1 0
vn 0 1 0
vn 0 1 0
vn 0 1 0
vn 0 1 0
vn 0 1 0
vn 0 1 0
vn 0 1 0
vn 0 1 0
vn 0 -1 0
vn 0 -1 0
vn 0 -1 0
vn 0 -1 0
vn 0 -1 0
vn 0 -1 0
vn 0 -1 0
vn 0 -1 0
vn 0 -1 0
vn 0 -1 0
vn 0 -1 0
vn 0 -1 0
vn 0 -1 0
vn 0 1 0
vn 0 1 0
vn 0 1 0
vn 0 1 0
vn 0 1 0
vn 0 1 0
vn 0 1 0
vn 0 1 0
vn 0 1 0
vn 0 1 0
vn 0 1 0
vn 0 1 0
vn 0 1 0
vn 0 -1 0
vn 0 -1 0
vn 0 -1 0
vn 0 -1 0
vn 0 -1 0
vn 0 -1 0
vn 0 -1 0
vn 0 -1 0
vn 0 -1 0
vn 0 -1 0
vn 0 -1 0
vn 0 -1 0
vn 0 -1 0
vt 0.833333313 0
vt 0.916666687 1
vt 0.916666687 0
vt 0.833333313 1
vt 0.75 0
vt 0.75 1
vt 0.666666567 0
vt 0.666666567 1
vt 0.583333254 0
vt 0.583333254 1
vt 0.499999911 0
vt 0.499999911 1
vt 0.416666597 0
vt 0.416666597 1
vt 0.333333343 0
vt 0.333333343 1
vt 0.249999985 0
vt 0.249999985 1
vt 0.166666672 0
vt 0.166666672 1
vt 0.0833333507 0
vt 0.0833333507 1
vt 3.79454939E-08 0
vt 3.79454939E-08 1
vt -0.0833333135 0
vt -0.0833333135 1
vt 0.833333313 0
vt 0.916666687 1
vt 0.916666687 0
vt 0.833333313 1
vt 0.75 0
vt 0.75 1
vt 0.666666567 0
vt 0.666666567 1
vt 0.583333254 0
vt 0.583333254 1
vt 0.499999911 0
vt 0.499999911 1
vt 0.416666597 0
vt 0.416666597 1
vt 0.333333343 0
vt 0.333333343 1
vt 0.249999985 0
vt 0.249999985 1
vt 0.166666672 0
vt 0.166666672 1
vt 0.0833333507 0
vt 0.0833333507 1
vt 3.79454939E-08 0
vt 3.79454939E-08 1
vt -0.0833333135 0
vt -0.0833333135 1
vt 0.833333313 0
vt 0.916666687 1
vt 0.916666687 0
vt 0.833333313 1
vt 0.75 0
vt 0.75 1
vt 0.666666567 0
vt 0.666666567 1
vt 0.583333254 0
vt 0.583333254 1
vt 0.499999911 0
vt 0.499999911 1
vt 0.416666597 0
vt 0.416666597 1
vt 0.333333343 0
vt 0.333333343 1
vt 0.249999985 0
vt 0.249999985 1
vt 0.166666672 0
vt 0.166666672 1
vt 0.0833333507 0
vt 0.0833333507 1
vt 3.79454939E-08 0
vt 3.79454939E-08 1
vt -0.0833333135 0
vt -0.0833333135 1
vt 0.244016692 1
vt 0.525917053 1
vt 0.666666567 1
vt 0.111645415 1
vt 0.75 1
vt 0.0833334327 1
vt 0.833333313 1
vt 0.166666836 1
vt 0.916666687 1
vt 0.339316577 1
vt 0.88835454 1
vt 0.555021286 1
vt 0.755983114 1
vt 0.888354421 0
vt 0.507442951 0
vt 0.916666687 0
vt 0.755982935 0
vt 0.833333313 0
vt 0.555021048 0
vt 0.75 0
vt 0.339316279 0
vt 0.444978595 0
vt 0.166666567 0
vt 0.244016767 0
vt 0.0833332986 0
vt 0.111645393 0
vt 0.244016692 1
vt 0.525917053 1
vt 0.666666567 1
vt 0.111645415 1
vt 0.75 1
vt 0.0833334327 1
vt 0.833333313 1
vt 0.166666836 1
vt 0.916666687 1
vt 0.339316577 1
vt 0.88835454 1
vt 0.555021286 1
vt 0.755983114 1
vt 0.888354421 0
vt 0.507442951 0
vt 0.916666687 0
vt 0.755982935 0
vt 0.833333313 0
vt 0.555021048 0
vt 0.75 0
vt 0.339316279 0
vt 0.444978595 0
vt 0.166666567 0
vt 0.244016767 0
vt 0.0833332986 0
vt 0.111645393 0
g submesh0
f 1/1/1 2/2/2 3/3/3
f 1/1/1 4/4/4 2/2/2
f 5/5/5 4/4/4 1/1/1
f 5/5/5 6/6/6 4/4/4
f 7/7/7 6/6/6 5/5/5
f 7/7/7 8/8/8 6/6/6
f 9/9/9 8/8/8 7/7/7
f 9/9/9 10/10/10 8/8/8
f 11/11/11 10/10/10 9/9/9
f 11/11/11 12/12/12 10/10/10
f 13/13/13 12/12/12 11/11/11
f 13/13/13 14/14/14 12/12/12
f 15/15/15 14/14/14 13/13/13
f 15/15/15 16/16/16 14/14/14
f 17/17/17 16/16/16 15/15/15
f 17/17/17 18/18/18 16/16/16
f 19/19/19 18/18/18 17/17/17
f 19/19/19 20/20/20 18/18/18
f 21/21/21 20/20/20 19/19/19
f 21/21/21 22/22/22 20/20/20
f 23/23/23 22/22/22 21/21/21
f 23/23/23 24/24/24 22/22/22
f 25/25/25 24/24/24 23/23/23
f 25/25/25 26/26/26 24/24/24
f 27/27/27 28/28/28 29/29/29
f 27/27/27 30/30/30 28/28/28
f 31/31/31 30/30/30 27/27/27
f 31/31/31 32/32/32 30/30/30
f 33/33/33 32/32/32 31/31/31
f 33/33/33 34/34/34 32/32/32
f 35/35/35 34/34/34 33/33/33
f 35/35/35 36/36/36 34/34/34
f 37/37/37 36/36/36 35/35/35
f 37/37/37 38/38/38 36/36/36
f 39/39/39 38/38/38 37/37/37
f 39/39/39 40/40/40 38/38/38
f 41/41/41 40/40/40 39/39/39
f 41/41/41 42/42/42 40/40/40
f 43/43/43 42/42/42 41/41/41
f 43/43/43 44/44/44 42/42/42
f 45/45/45 44/44/44 43/43/43
f 45/45/45 46/46/46 44/44/44
f 47/47/47 46/46/46 45/45/45
f 47/47/47 48/48/48 46/46/46
f 49/49/49 48/48/48 47/47/47
f 49/49/49 50/50/50 48/48/48
f 51/51/51 50/50/50 49/49/49
f 51/51/51 52/52/52 50/50/50
f 53/53/53 54/54/54 55/55/55
f 53/53/53 56/56/56 54/54/54
f 57/57/57 56/56/56 53/53/53
f 57/57/57 58/58/58 56/56/56
f 59/59/59 58/58/58 57/57/57
f 59/59/59 60/60/60 58/58/58
f 61/61/61 60/60/60 59/59/59
f 61/61/61 62/62/62 60/60/60
f 63/63/63 62/62/62 61/61/61
f 63/63/63 64/64/64 62/62/62
f 65/65/65 64/64/64 63/63/63
f 65/65/65 66/66/66 64/64/64
f 67/67/67 66/66/66 65/65/65
f 67/67/67 68/68/68 66/66/66
f 69/69/69 68/68/68 67/67/67
f 69/69/69 70/70/70 68/68/68
f 71/71/71 70/70/70 69/69/69
f 71/71/71 72/72/72 70/70/70
f 73/73/73 72/72/72 71/71/71
f 73/73/73 74/74/74 72/72/72
f 75/75/75 74/74/74 73/73/73
f 75/75/75 76/76/76 74/74/74
f 77/77/77 76/76/76 75/75/75
f 77/77/77 78/78/78 76/76/76
f 79/79/79 80/80/80 81/81/81
f 82/82/82 80/80/80 79/79/79
f 81/81/81 80/80/80 83/83/83
f 84/84/84 80/80/80 82/82/82
f 83/83/83 80/80/80 85/85/85
f 86/86/86 80/80/80 84/84/84
f 85/85/85 80/80/80 87/87/87
f 88/88/88 80/80/80 86/86/86
f 87/87/87 80/80/80 89/89/89
f 90/90/90 80/80/80 88/88/88
f 89/89/89 80/80/80 91/91/91
f 91/91/91 80/80/80 90/90/90
f 92/92/92 93/93/93 94/94/94
f 95/95/95 93/93/93 92/92/92
f 94/94/94 93/93/93 96/96/96
f 97/97/97 93/93/93 95/95/95
f 96/96/96 93/93/93 98/98/98
f 99/99/99 93/93/93 97/97/97
f 98/98/98 93/93/93 100/100/100
f 101/101/101 93/93/93 99/99/99
f 100/100/100 93/93/93 102/102/102
f 103/103/103 93/93/93 101/101/101
f 102/102/102 93/93/93 104/104/104
f 104/104/104 93/93/93 103/103/103
f 105/105/105 106/106/106 107/107/107
f 108/108/108 106/106/106 105/105/105
f 107/107/107 106/106/106 109/109/109
f 110/110/110 106/106/106 108/108/108
f 109/109/109 106/106/106 111/111/111
f 112/112/112 106/106/106 110/110/110
f 111/111/111 106/106/106 113/113/113
f 114/114/114 106/106/106 112/112/112
f 113/113/113 106/106/106 115/115/115
f 116/116/116 106/106/106 114/114/114
f 115/115/115 106/106/106 117/117/117
f 117/117/117 106/106/106 116/116/116
f 118/118/118 119/119/119 120/120/120
f 121/121/121 119/119/119 118/118/118
f 120/120/120 119/119/119 122/122/122
f 123/123/123 119/119/119 121/121/121
f 122/122/122 119/119/119 124/124/124
f 125/125/125 119/119/119 123/123/123
f 124/124/124 119/119/119 126/126/126
f 127/127/127 119/119/119 125/125/125
f 126/126/126 119/119/119 128/128/128
f 129/129/129 119/119/119 127/127/127
f 128/128/128 119/119/119 130/130/130
f 130/130/130 119/119/119 129/129/129
