# icewall_high_b_COL
v -1.92062521 -0.750000298 0.929333568
v -1.84704292 -0.184806362 0.67673111
v -2.33717346 -0.750000298 0.853326619
v -1.65360594 -0.750000119 0.754809856
v -1.24439406 -0.750000119 0.741298914
v -2.37051034 0.547508299 0.56384486
v -2.56428957 -0.310909122 0.784312785
v -2.838938 -0.194198295 0.660165012
v -2.57888174 -0.750000298 0.984265029
v -3.07829952 -0.750000298 0.763297319
v -3.13183069 -0.515924811 0.767769516
v -3.34404564 -0.268010408 0.610072136
v -3.48785782 -0.750000298 0.374421537
v -3.30999207 0.704451025 0.571756303
v -3.44427967 0.449182272 0.0666106716
v -3.41031694 0.0205159001 -0.206479356
v -3.41726851 -0.750000298 -0.109266609
v -3.23100829 -0.750000298 -0.437294483
v -3.41854143 1.36977541 0.0772369951
v -3.16209769 1.24435103 0.589857757
v -3.40131116 0.510113716 -0.337273896
v -3.10206819 0.559832335 -0.549599767
v -3.24240899 1.55682933 -0.392147124
v -2.71694183 1.9552896 -0.552986145
v -2.631037 1.36959648 -0.630272329
v -3.40147567 -0.213807598 -0.39535448
v -2.8870244 -0.259956568 -0.706341982
v -2.70003843 -0.750000298 -0.816587865
v -2.08084798 1.05570781 -0.696267605
v -1.68240535 1.67070961 -0.589873433
v -2.43820739 -0.46381864 -0.760475576
v -1.71652567 -0.750000119 -0.716480374
v -2.22252083 0.429460466 -0.599889219
v -1.72566235 -0.262673557 -0.669495285
v -1.76865005 0.970720172 -0.533306956
v -0.855463445 1.1656543 -0.70788604
v -1.51340044 0.381069124 -0.591937482
v -0.632477045 0.0208127592 -0.588814676
v -0.894412458 -0.445704043 -0.736391425
v -0.535901487 -0.750000119 -0.717467189
v -0.158561274 -0.370029896 -0.783803165
v 0.249798298 -0.750000119 -0.896247208
v 0.281573564 0.124608077 -0.885385931
v 1.23043597 -0.120808177 -0.729722798
v 1.63005257 -0.750000119 -0.753804862
v 1.7127465 0.0821556076 -0.670862079
v 1.89932585 -0.75 -0.930389285
v 1.12512052 0.550067902 -0.598900437
v 2.11076808 0.791642368 -0.549062729
v 1.87098253 -0.300896674 -0.728114069
v 2.33115005 -0.75 -0.855053782
v 2.45678878 0.176490247 -0.614404559
v 2.56391025 -0.48694396 -0.858610809
v 2.52742386 -0.75 -0.99800688
v 3.0020318 -0.75 -0.751123548
v 3.10383868 0.175421208 -0.596227646
v 3.44026852 -0.286033392 -0.54761976
v 3.43224168 -0.75 -0.48951754
v 3.34801316 -0.75 0.429020733
v 0.531018674 0.546070933 -0.839795291
v 1.20812762 0.837003231 -0.672157526
v 2.13011646 1.85411286 -0.597036302
v 2.34034061 1.49859512 -0.664107323
v 2.94679403 1.12466049 -0.511021733
v 3.36303306 0.125543892 -0.518521547
v 3.38999224 -0.505051076 0.314230859
v 3.42472172 0.113093257 0.199801713
v 3.2678709 -0.48067078 0.63646239
v 2.84708762 -0.75 0.698206723
v 0.0755609721 0.521760523 -0.88662529
v 3.21680498 0.107284009 0.505622149
v 2.53556657 1.64449251 -0.576758385
v 3.28693438 1.21013534 -0.519103587
v 3.11626434 2.02631664 -0.565184593
v 0.272550702 1.3164593 -0.842186034
v 2.820122 -0.492359012 0.794394135
v 2.95952296 0.578496099 0.577710807
v 3.28726101 0.557546973 0.413377434
v 2.1624372 -0.75 0.708820462
v 2.20456743 -0.108839951 0.675343692
v 1.71066678 -0.346743315 0.69540745
v 1.52800882 -0.750000119 0.738106012
v 1.80355954 0.680709064 0.552381396
v 0.978820682 0.0188494101 0.610199451
v 0.725419044 -0.360991061 0.729591966
v 0.680080771 -0.750000119 0.838278115
v -0.185675159 -0.750000119 0.961492658
v 3.39393711 1.60188925 0.232926726
v 3.18405366 1.63251543 0.458497614
v 3.49156094 1.59769344 -0.0672629327
v 3.45625901 1.99475515 0.362836599
v 3.20520258 2.27389884 0.602885604
v 3.35677385 2.16716361 -0.460686892
v 3.31529021 2.95144343 -0.470518172
v 3.48707485 2.18878484 -0.192746714
v 3.44057727 3.0379827 0.180514887
v 3.34552431 4.03140688 -0.17605117
v 3.44882298 2.5365715 0.1788771
v 2.80242515 1.80627561 0.546183944
v 2.64590788 2.68669844 -0.631465375
v 2.39543033 3.57104778 -0.556819081
v 2.89011717 3.3117075 -0.592034996
v 3.14989805 3.8039546 -0.446945071
v 2.22529006 1.5195967 0.665591419
v 2.29945731 2.15836406 0.507657051
v 2.09781337 0.864388704 0.673911273
v 1.71333504 1.58950889 0.593243301
v 1.1034373 1.11160493 0.654628038
v 0.607902467 0.291160971 0.652277827
v 0.139913142 -0.441496879 0.819592237
v -0.0372381955 0.3426781 0.839075625
v -0.341681391 0.33472079 0.958064377
v -0.62708962 -0.246120602 0.912262619
v -1.18728137 -0.0549597926 0.772456467
v -0.900756419 0.210618585 0.740404189
v -1.10023904 0.610357821 0.647563696
v 0.582279086 1.20124662 0.759257436
v 0.290544659 0.934644401 0.97281158
v -0.101158112 1.31551266 0.800351918
v 1.19341159 1.91550672 0.544997573
v 1.35568464 2.3263433 0.587682962
v -1.01068795 0.890436709 0.739623308
v -2.0263443 1.16439354 0.553504109
v -0.227190837 1.46904147 0.879589736
v -0.83527118 1.62384355 0.817377985
v -0.303424656 1.90487182 0.90197295
v 0.685360551 2.43043065 0.608011365
v 0.996269107 2.57728243 0.56365639
v 2.0318172 4.08621311 0.491042495
v 0.98781693 2.87277222 0.686588824
v 2.59758878 2.98424006 0.591272771
v 3.06137848 2.7539978 0.562287331
v 3.20055652 3.09872365 0.523016512
v 3.03872585 4.27549171 0.46678257
v 3.31022787 4.17376041 0.239576861
v 3.38785338 4.38422728 0.23586227
v 2.24718833 4.64119053 0.570733845
v 1.23356354 3.93667841 0.568301618
v 3.15430045 4.7436986 0.443569869
v 3.34015679 5.17248297 0.286824882
v 3.36583304 4.86220741 -0.047374811
v 3.21189284 5.18719912 -0.285001278
v 2.86442566 5.11366034 0.493424326
v 2.9518292 5.48173332 0.0829174221
v 2.26436329 5.18828726 0.433428973
v 1.38975227 5.21923351 0.483486921
v 3.20945668 4.36288977 -0.406967342
v 2.48203564 4.87194347 -0.507665575
v 1.53914428 4.86772919 -0.474742413
v 2.52533269 5.40730953 -0.308775544
v 2.30561447 5.47654533 -0.015210323
v 2.16218567 5.24283123 -0.42914173
v 1.88775659 5.55518293 -0.0689904392
v 1.45402193 5.42793083 0.0747938603
v 1.44753265 5.2227397 -0.369988382
v 1.1045121 5.29645395 0.473188192
v 0.739753425 5.56731367 -0.069628641
v 1.0714525 4.60655212 0.57173425
v 0.59807229 5.27645111 0.498431534
v -0.0193080585 4.58068275 0.530590713
v 0.586177886 4.4069972 0.507222116
v 0.69820869 3.61647844 0.569270611
v 0.82005173 2.99909163 0.617853701
v 0.038908612 3.43340898 0.572626233
v 0.17671895 2.56670189 0.687746286
v -0.204229653 2.69899416 0.770122886
v 0.395190716 5.52916241 -0.0889181867
v 0.0376433544 5.2586875 0.384916514
v -0.577628911 5.15028572 0.538086593
v -0.656724155 3.90284872 0.5878613
v 0.549008489 5.32372141 -0.37053597
v 0.0851642117 5.40080309 -0.149012461
v 0.622624755 4.95014286 -0.559110343
v -0.00644244161 5.15169287 -0.451034158
v -0.660948992 3.14446044 0.715638161
v -0.266545951 5.46815062 0.19467929
v -0.532550395 5.56749296 0.075195156
v -1.00446069 5.30552292 -0.488482147
v 0.0855626464 4.45881653 -0.497881383
v -1.17238891 5.50861311 -0.0504156239
v -1.43614793 5.27462149 -0.392126918
v -0.938518047 4.93823624 -0.667511582
v -0.614465535 4.53081512 -0.617611349
v -1.30890918 4.17751217 -0.506982207
v -1.22699714 4.98866892 -0.555918813
v -2.02979255 4.6892457 -0.58675319
v -0.720553398 3.61270523 -0.624967039
v 1.32136834 3.4584744 -0.581980467
v 0.110400826 3.56970978 -0.590812504
v 1.83672225 3.58633637 -0.602992892
v 1.92581892 2.85897517 -0.618248761
v 0.206642419 2.9965198 -0.704734564
v 1.30004728 2.6154747 -0.655066133
v 0.46115756 2.14317632 -0.860777736
v 1.31543136 2.36289167 -0.566919684
v 1.44711101 1.84583986 -0.695697665
v 0.78842926 1.7281158 -0.847144663
v -0.185781449 2.82450128 -0.783706129
v 0.238956526 1.72426116 -0.852148652
v 0.106942795 1.58020997 -0.723494709
v 0.080778189 2.50632191 -0.649774551
v -0.311349601 0.974980354 -0.923140466
v -0.101891153 1.70693386 -0.871806443
v -0.539454043 1.32618248 -0.776591599
v -0.614294469 2.43816018 -0.635250449
v -0.504992127 1.93523467 -0.678422332
v -0.996754348 2.51202869 -0.560923994
v -0.92660743 2.87425113 -0.676044762
v -1.32200396 2.28982425 -0.599341929
v -1.31042814 3.2053473 -0.605226636
v -2.01466489 2.95800567 -0.527111471
v -2.84563494 3.08201838 -0.583675981
v -2.74229383 2.41712451 -0.582379341
v -3.0849297 2.50204945 -0.532512903
v -3.32327485 1.9944123 -0.341950148
v -3.29744935 3.01307011 -0.407690316
v -3.38801265 2.01956487 0.0363292582
v -3.14664602 4.1155653 -0.417476267
v -3.31285429 2.06017137 0.397669166
v -3.35580373 3.12180591 0.319277912
v -3.33801413 4.01122665 -0.0591795184
v -3.28234434 2.95247245 0.384016871
v -2.80569696 2.24650025 0.63171804
v -3.17558885 2.41468191 0.548668742
v -2.9295609 3.25992465 0.553419888
v -3.07534933 3.7922368 0.464205265
v -2.58472991 1.53842247 0.549658775
v -2.31494665 1.44510877 0.664712369
v -2.17514968 1.94293451 0.582330167
v -2.21385169 2.60833788 0.589860499
v -1.44903541 1.84828889 0.70491749
v -1.3132683 2.36730242 0.558494449
v -0.585618496 2.18743801 0.885886848
v -0.410931528 2.27289581 0.834808767
v -2.33146334 3.57566333 0.558545589
v -1.89297736 4.71168041 0.497905076
v -1.76994443 3.42450237 0.596048832
v -1.92213511 2.70608091 0.617735624
v -1.35945559 2.61551571 0.655452132
v -0.127885699 2.10791135 0.716013551
v -3.14491057 4.05596781 0.399117947
v 0.185949549 1.63396859 0.8947258
v -3.27999377 4.35472631 0.254336268
v 0.509359896 1.2394259 0.890707076
v 0.479404807 1.89292145 0.70505017
v 0.131580591 2.1684444 0.804045856
v -1.36281824 3.32685232 0.569609761
v -1.30540645 4.33373785 0.494350314
v -1.3902601 5.22015142 0.372954518
v -1.50690019 5.39127111 0.00184152625
v -2.05829453 5.43460798 0.333214283
v -2.22145462 5.29787827 -0.299425811
v -2.66054773 4.90357208 0.508182108
v -3.07863069 5.11053562 0.326859206
v -2.16306233 5.0880003 -0.501846731
v -2.29080915 5.43776846 0.2260077
v -2.57455158 5.15892696 -0.489028275
v -2.96512747 5.42937613 -0.11276032
v -3.41371059 5.03265476 -0.0844113603
v -3.17155886 5.10342407 -0.430021226
v -3.41569948 4.385499 -0.157869503
v -3.17295623 4.45125055 -0.488859326
v -3.30869007 4.69476843 -0.365725547
g submesh0
f 1 2 3
f 1 4 2
f 5 2 4
f 3 2 6
f 7 3 6
f 6 8 7
f 9 3 7
f 8 9 7
f 9 8 10
f 11 10 8
f 12 10 11
f 8 12 11
f 13 10 12
f 8 14 12
f 6 14 8
f 12 15 13
f 15 12 14
f 13 15 16
f 17 13 16
f 18 17 16
f 15 14 19
f 6 20 14
f 14 20 19
f 16 15 21
f 15 19 21
f 21 22 16
f 21 23 22
f 19 23 21
f 22 23 24
f 25 22 24
f 16 26 18
f 22 26 16
f 27 18 26
f 27 26 22
f 28 18 27
f 29 22 25
f 24 29 25
f 24 30 29
f 31 28 27
f 32 28 31
f 22 33 27
f 22 29 33
f 31 27 33
f 31 34 32
f 34 31 33
f 29 35 33
f 35 29 30
f 35 30 36
f 33 35 37
f 37 34 33
f 36 37 35
f 37 38 34
f 38 37 36
f 34 38 39
f 34 39 32
f 40 32 39
f 40 39 38
f 40 38 41
f 42 40 41
f 41 43 42
f 43 41 38
f 43 44 42
f 42 44 45
f 45 44 46
f 46 47 45
f 43 48 44
f 48 46 44
f 48 49 46
f 46 49 50
f 47 46 50
f 51 47 50
f 50 52 51
f 50 49 52
f 53 51 52
f 53 54 51
f 55 54 53
f 53 52 56
f 56 55 53
f 52 49 56
f 57 55 56
f 58 55 57
f 59 58 57
f 48 43 60
f 61 49 48
f 48 60 61
f 62 49 61
f 62 63 49
f 49 64 56
f 64 49 63
f 56 65 57
f 65 56 64
f 57 66 59
f 57 65 66
f 65 67 66
f 68 59 66
f 67 68 66
f 69 59 68
f 70 60 43
f 38 70 43
f 68 71 69
f 71 68 67
f 64 63 72
f 72 63 62
f 64 73 65
f 73 67 65
f 72 74 64
f 74 73 64
f 70 75 60
f 61 60 75
f 76 69 71
f 76 71 77
f 77 71 78
f 71 67 78
f 79 69 76
f 76 80 79
f 80 76 77
f 80 81 79
f 79 81 82
f 83 81 80
f 80 77 83
f 81 84 82
f 84 81 83
f 82 84 85
f 86 82 85
f 87 86 85
f 78 67 88
f 77 78 89
f 89 78 88
f 88 67 90
f 67 73 90
f 88 91 89
f 90 91 88
f 89 91 92
f 90 73 93
f 74 93 73
f 94 93 74
f 90 93 95
f 95 91 90
f 95 93 94
f 95 94 96
f 97 96 94
f 95 98 91
f 98 92 91
f 95 96 98
f 96 92 98
f 77 89 99
f 99 89 92
f 100 94 74
f 74 72 100
f 72 62 100
f 101 100 62
f 94 100 102
f 100 101 102
f 103 94 102
f 103 102 101
f 103 97 94
f 99 104 77
f 92 105 99
f 99 105 104
f 104 106 77
f 77 106 83
f 107 106 104
f 83 106 107
f 107 104 105
f 107 108 83
f 83 108 84
f 84 108 109
f 84 109 85
f 110 85 109
f 85 110 87
f 109 111 110
f 111 87 110
f 111 112 87
f 113 87 112
f 113 5 87
f 113 114 5
f 2 5 114
f 114 113 115
f 2 114 115
f 112 115 113
f 2 115 116
f 115 112 116
f 6 2 116
f 109 108 117
f 109 118 111
f 118 109 117
f 111 119 112
f 118 119 111
f 117 108 120
f 108 107 120
f 120 107 121
f 121 107 105
f 116 112 122
f 6 116 123
f 123 116 122
f 122 112 124
f 119 124 112
f 124 125 122
f 123 122 125
f 119 126 124
f 126 125 124
f 117 120 127
f 128 120 121
f 120 128 127
f 129 121 105
f 121 130 128
f 129 130 121
f 105 131 129
f 92 131 105
f 132 131 92
f 96 132 92
f 132 133 131
f 96 133 132
f 133 134 131
f 129 131 134
f 96 135 133
f 135 134 133
f 96 97 135
f 134 135 136
f 135 97 136
f 129 134 137
f 129 138 130
f 138 129 137
f 134 136 139
f 137 134 139
f 139 136 140
f 97 141 136
f 140 136 141
f 142 141 97
f 140 141 142
f 139 140 143
f 143 137 139
f 144 143 140
f 142 144 140
f 145 137 143
f 143 144 145
f 138 137 146
f 145 146 137
f 147 142 97
f 103 147 97
f 103 148 147
f 142 147 148
f 103 101 148
f 149 148 101
f 144 142 150
f 148 150 142
f 144 150 151
f 145 144 151
f 150 148 152
f 152 151 150
f 152 148 149
f 145 151 153
f 152 153 151
f 153 154 145
f 154 146 145
f 152 155 153
f 149 155 152
f 155 154 153
f 146 154 156
f 154 155 157
f 154 157 156
f 146 156 158
f 138 146 158
f 157 159 156
f 159 158 156
f 158 159 160
f 138 158 161
f 158 160 161
f 162 138 161
f 161 160 162
f 138 162 130
f 130 162 163
f 163 128 130
f 162 160 164
f 162 164 163
f 165 128 163
f 128 165 127
f 164 166 163
f 163 166 165
f 157 167 159
f 160 159 168
f 159 167 168
f 160 168 169
f 170 164 160
f 170 160 169
f 171 167 157
f 155 171 157
f 172 168 167
f 167 171 172
f 173 171 155
f 173 155 149
f 174 171 173
f 172 171 174
f 175 166 164
f 164 170 175
f 169 168 176
f 168 172 176
f 176 172 177
f 177 169 176
f 178 177 172
f 172 174 178
f 173 149 179
f 174 173 179
f 169 177 180
f 178 180 177
f 180 178 181
f 182 178 174
f 182 181 178
f 179 183 174
f 182 174 183
f 183 184 182
f 185 181 182
f 185 182 184
f 181 185 186
f 184 186 185
f 179 187 183
f 187 184 183
f 188 179 149
f 187 179 189
f 179 188 189
f 188 149 190
f 149 101 190
f 191 190 101
f 190 191 188
f 191 101 62
f 188 192 189
f 191 193 188
f 188 193 192
f 194 192 193
f 193 191 195
f 195 191 62
f 194 193 195
f 196 195 62
f 196 194 195
f 196 62 61
f 61 197 196
f 196 197 194
f 75 197 61
f 198 189 192
f 189 198 187
f 199 197 75
f 194 197 199
f 199 75 200
f 200 194 199
f 70 200 75
f 201 192 194
f 198 192 201
f 194 200 201
f 70 202 200
f 202 70 38
f 201 200 203
f 200 202 203
f 204 202 38
f 204 203 202
f 204 38 36
f 205 201 203
f 201 205 198
f 206 203 204
f 36 206 204
f 203 206 205
f 206 36 205
f 36 207 205
f 207 198 205
f 30 207 36
f 198 207 208
f 208 187 198
f 209 208 207
f 209 207 30
f 187 208 210
f 208 209 210
f 209 30 210
f 187 210 184
f 210 30 211
f 184 210 211
f 30 24 211
f 184 211 212
f 184 212 186
f 24 213 211
f 211 213 212
f 24 214 213
f 214 212 213
f 24 215 214
f 23 215 24
f 216 212 214
f 214 215 216
f 215 23 217
f 216 215 217
f 217 23 19
f 186 212 218
f 216 218 212
f 219 217 19
f 19 20 219
f 216 217 220
f 218 216 221
f 221 216 220
f 222 217 219
f 220 217 222
f 223 219 20
f 224 222 219
f 223 224 219
f 222 224 225
f 225 224 223
f 220 222 226
f 225 226 222
f 223 20 227
f 20 6 227
f 228 227 6
f 123 228 6
f 229 227 228
f 223 227 229
f 228 123 229
f 230 225 223
f 223 229 230
f 231 229 123
f 125 231 123
f 229 231 232
f 230 229 232
f 231 125 233
f 231 233 232
f 125 126 233
f 233 126 234
f 234 232 233
f 230 235 225
f 235 226 225
f 235 236 226
f 237 235 230
f 235 237 236
f 230 232 238
f 230 238 237
f 238 232 239
f 232 234 239
f 237 238 239
f 240 234 126
f 126 119 240
f 226 236 241
f 241 220 226
f 242 240 119
f 242 119 118
f 243 220 241
f 221 220 243
f 118 244 242
f 118 117 244
f 245 244 117
f 245 242 244
f 127 245 117
f 245 246 242
f 246 245 127
f 246 240 242
f 246 127 165
f 240 246 165
f 165 166 240
f 240 166 234
f 166 175 234
f 239 234 175
f 175 247 239
f 247 175 170
f 237 239 247
f 170 248 247
f 237 247 248
f 248 170 169
f 248 236 237
f 169 249 248
f 236 248 249
f 180 249 169
f 250 249 180
f 181 250 180
f 236 249 251
f 251 249 250
f 250 181 252
f 252 251 250
f 253 236 251
f 241 236 253
f 254 241 253
f 251 254 253
f 241 254 243
f 181 255 252
f 255 181 186
f 251 256 254
f 256 251 252
f 252 255 257
f 186 257 255
f 252 258 256
f 254 256 258
f 257 258 252
f 254 259 243
f 254 258 259
f 257 260 258
f 186 260 257
f 260 259 258
f 261 243 259
f 221 243 261
f 218 221 261
f 262 186 218
f 186 262 260
f 261 262 218
f 261 259 263
f 263 259 260
f 262 263 260
f 262 261 263
