# improvised_walkway_roof_support_300x300_b_end_COL
v 2.4168678E-06 0.97115016 4.60624778E-06
v -0.0288645215 1.00000751 -2.99999261
v -7.29182239E-06 0.971149981 -2.99999285
v 0.0288504306 1.00000751 -2.99999261
v -0.0288571976 1.00000918 4.60624778E-06
v 0.0288622845 1.00000918 4.60624778E-06
v -7.27692486E-06 1.02886581 -2.99999261
v 2.43176623E-06 1.02886772 4.60624778E-06
v -7.29662952E-06 0.0288597085 -2.99999285
v -0.0288671628 3.08873098E-07 -2.99999285
v -0.0288550705 -2.552144E-06 4.36782921E-06
v -7.31152795E-06 -0.0288585816 -2.99999332
v 2.65047879E-06 0.0288554169 4.36782921E-06
v 0.0288523212 5.78034985E-07 -2.99999285
v 0.0288601201 -2.2829845E-06 4.36782921E-06
v 2.63558104E-06 -0.0288604889 4.36782921E-06
v 5.71591727E-07 1.00000024 -2.97113585
v 3.47645766E-07 -3.91007035E-07 -2.97113943
v 0.0288590137 -3.75635977E-07 -2.99999881
v -0.0288583469 -4.06378092E-07 -2.99999881
v 4.22321136E-07 -3.91006978E-07 -3.02885771
v 5.40952669E-07 1.00000024 -3.02885556
v 0.0288595017 1.00000024 -2.99999571
v -0.0288585424 1.00000024 -2.99999571
v 1.0288004E-05 1.00000024 -2.99999666
v 1.82328961E-06 0.999999344 0.0288649425
v 1.59934382E-06 -1.34468087E-06 0.0288611278
v 0.0288602654 -1.32930984E-06 1.98364296E-06
v 1.67401913E-06 -1.34468087E-06 -0.0288569238
v 0.0288607534 0.999999344 5.08308494E-06
v -0.0288570952 -1.3600519E-06 1.98364296E-06
v 1.79265055E-06 0.999999344 -0.028854778
v 1.15397024E-05 0.999999344 4.12941063E-06
v -0.0288572907 0.999999285 5.08308494E-06
g submesh0
f 1 2 3
f 1 3 4
f 4 3 2
f 1 5 2
f 1 4 6
f 6 5 1
f 5 7 2
f 4 2 7
f 8 6 4
f 6 8 5
f 8 4 7
f 5 8 7
f 9 10 11
f 9 12 10
f 12 11 10
f 9 11 13
f 14 9 13
f 9 14 12
f 14 13 15
f 11 15 13
f 12 14 15
f 12 16 11
f 12 15 16
f 11 16 15
f 17 18 19
f 20 18 17
f 18 21 19
f 18 20 21
f 22 19 21
f 22 21 20
f 17 19 23
f 22 23 19
f 22 20 24
f 20 17 24
f 22 25 23
f 23 25 17
f 24 25 22
f 17 25 24
f 26 27 28
f 27 29 28
f 26 28 30
f 30 28 29
f 27 31 29
f 31 27 26
f 30 29 32
f 32 29 31
f 30 33 26
f 32 33 30
f 32 31 34
f 31 26 34
f 34 33 32
f 26 33 34
