# improvised_walkway_railing_wood_450_a_COL
v -4.5472312 0.349060804 -0.0844624341
v -2.72307277 0.224067226 -0.19956024
v -4.5472312 0.224067077 -0.0844615176
v -4.54723215 0.224065855 -0.0379038975
v -2.72307277 0.349060506 -0.199561074
v -2.72307348 0.224065855 -0.15300262
v -2.72307348 0.349058837 -0.153003231
v -4.54723215 0.349058986 -0.0379045084
v -2.78053594 0.183889002 -0.310856074
v -2.81257963 1.00771987 -0.309375823
v -4.49633837 1.00774777 -0.241761237
v -2.81301355 1.00773287 -0.347824633
v -2.78096986 0.183901981 -0.349305332
v -4.50659513 0.183887929 -0.24128662
v -4.49677229 1.00776064 -0.280210108
v -4.50702953 0.183900908 -0.279735714
v -0.25478524 0.948030353 -0.104940489
v -2.7436974 0.948029459 -0.217596054
v -2.74368954 0.0753347725 -0.212260887
v -2.74308062 0.948018789 -0.252291024
v -0.254793763 0.0753364563 -0.105199046
v -0.254168391 0.948019683 -0.139635459
v -0.254176944 0.0753256232 -0.139635995
v -2.74307275 0.0753240958 -0.246697843
v 0.190843508 0.489156485 -0.084463343
v -2.91460919 0.489157408 -0.208621591
v -2.91460991 0.48915571 -0.162063822
v -2.91460991 0.364163965 -0.208620757
v 0.190843195 0.489155263 -0.0379057303
v -2.91461015 0.364162743 -0.162063062
v 0.190842897 0.364162743 -0.0379048139
v 0.190843195 0.364163965 -0.0844627395
v -2.93239188 1.03284299 -0.169253916
v -4.63792706 1.05821037 -0.0844341293
v -4.63792753 1.05821037 -0.0378768146
v -4.64292431 0.955777705 -0.0378763564
v -2.93239164 1.03284299 -0.215810925
v -4.64292383 0.955777705 -0.0844336674
v -2.9303875 0.90875107 -0.215529472
v -2.93038821 0.90875107 -0.16897209
v -0.100148469 0.868967116 -0.0921833813
v 0.0916947946 0.967973769 -0.0916679353
v -0.100148469 0.868967116 -0.0741608441
v 0.0916947946 0.967974246 -0.0809519961
v -4.35242558 -9.15527323E-07 -0.244265363
v -4.45229435 3.05175774E-07 -0.244264752
v -4.45229483 1.14825928 -0.244265363
v -4.45229292 3.05175774E-07 -0.0844612867
v -4.45229483 1.14825928 -0.0844618976
v -4.35242558 1.14825988 -0.0844612867
v -4.35242558 1.14825988 -0.244265363
v -4.35242414 -3.05175774E-07 -0.0844612867
v -2.74807024 1.14825988 -0.209128112
v -2.90787435 -3.05175774E-07 -0.21668601
v -2.74807 -7.62939408E-07 -0.209127799
v -2.74807072 1.14825928 -0.308997482
v -2.90787458 1.14825988 -0.216687918
v -2.74807096 4.57763662E-07 -0.308996588
v -2.90787435 4.57763662E-07 -0.316554725
v -2.90787411 1.14825928 -0.31655699
v -0.252785653 1.00119746 -0.0928472877
v -0.252785325 1.00119627 -0.192716748
v -0.252785653 0 -0.192717284
v -0.0929818675 1.00119627 -0.192716822
v -0.092982173 0 -0.192718506
v -0.092981562 -1.52587887E-07 -0.0928491205
v -0.252785653 -1.52587887E-07 -0.0928472877
v -0.092981562 1.00119686 -0.0928477421
g submesh0
f 1 2 3
f 4 1 3
f 2 4 3
f 1 5 2
f 5 6 2
f 2 6 4
f 5 7 6
f 7 5 1
f 4 6 7
f 7 1 8
f 4 7 8
f 4 8 1
f 9 10 11
f 12 10 9
f 12 11 10
f 12 9 13
f 9 11 14
f 13 9 14
f 12 15 11
f 13 15 12
f 13 14 16
f 16 14 11
f 16 11 15
f 13 16 15
f 17 18 19
f 20 18 17
f 20 19 18
f 17 19 21
f 22 17 21
f 20 17 22
f 22 21 23
f 23 21 19
f 20 22 23
f 23 19 24
f 20 24 19
f 20 23 24
f 25 26 27
f 28 26 25
f 28 27 26
f 25 27 29
f 30 29 27
f 28 30 27
f 30 31 29
f 25 29 31
f 31 30 28
f 28 25 32
f 31 28 32
f 25 31 32
f 33 34 35
f 33 35 36
f 36 35 34
f 33 37 34
f 36 34 38
f 37 38 34
f 39 36 38
f 37 39 38
f 39 40 36
f 33 36 40
f 37 41 39
f 41 40 39
f 42 37 33
f 37 42 41
f 41 43 40
f 33 40 43
f 42 33 44
f 44 41 42
f 33 43 44
f 44 43 41
f 45 46 47
f 45 48 46
f 46 49 47
f 46 48 49
f 47 49 50
f 50 49 48
f 45 47 51
f 47 50 51
f 50 48 52
f 45 52 48
f 51 50 52
f 51 52 45
f 53 54 55
f 55 56 53
f 53 57 54
f 56 57 53
f 55 58 56
f 54 58 55
f 57 59 54
f 54 59 58
f 58 60 56
f 56 60 57
f 57 60 59
f 58 59 60
f 61 62 63
f 61 64 62
f 62 65 63
f 62 64 65
f 63 65 66
f 66 65 64
f 61 63 67
f 63 66 67
f 66 64 68
f 61 68 64
f 67 66 68
f 67 68 61
