# improvised_walkway_roof_flat_tarp_300x300_a_COL
v -0.0488429256 0.919174552 -1.56767011
v -2.88368487 1.067505 0.0139510781
v -0.0479456708 1.07543385 0.0441883542
v -2.91118979 0.939361632 -1.59093118
v -2.87368894 1.06354904 -3.0087924
v -0.049621962 1.06306612 -3.00802088
v -0.049533844 1.05342698 0.023836175
v -2.88321304 1.04895198 -0.00961940922
v -2.90899897 0.909513354 -1.59130204
v -0.0508088283 0.889512599 -1.56742167
v -2.87324095 1.03870225 -2.99198627
v -0.0513490289 1.03916061 -2.9899075
g submesh0
f 1 2 3
f 1 4 2
f 5 4 1
f 5 1 6
f 7 8 9
f 7 9 10
f 10 9 11
f 10 11 12
