# improvised_walkway_railing_wood_150_a_COL
v 0.0337887555 0.810098231 -0.0926488489
v 0.0321806334 0.610096276 -0.0926480815
v -1.49907219 0.610095978 -0.092648387
v 0.0321806334 0.610096276 -0.0460916907
v -1.49907196 0.810098112 -0.0926481634
v -1.49907219 0.810098112 -0.0460911542
v -1.49907219 0.610095978 -0.0460913852
v 0.0337884501 0.810098231 -0.0460918434
v -1.50065279 0.352930278 -0.0927227736
v 0.0928454548 0.477923125 -0.0927215591
v 0.0928454548 0.352929235 -0.0927223191
v 0.0928463712 0.352931052 -0.0461643972
v -1.50065243 0.477923274 -0.0927221626
v -1.50065207 0.477924496 -0.0461643972
v -1.50065207 0.352931827 -0.0461650081
v 0.0928466767 0.477924496 -0.0461639389
v -1.1469202 -9.15527323E-07 -0.0928469822
v -1.1469208 3.05175774E-07 -0.192715749
v -1.14692056 0.932373047 -0.192716748
v -1.30672431 3.05175774E-07 -0.192714527
v -1.30672407 0.932373047 -0.192716748
v -1.30672455 0.932373643 -0.0928476676
v -1.14692032 0.932373643 -0.0928473622
v -1.30672431 -3.05175774E-07 -0.0928457603
v -0.354130536 1.00120723 -0.0928472877
v -0.354130328 1.00120604 -0.192716748
v -0.354130626 9.76562478E-06 -0.192717284
v -0.194326848 1.00120604 -0.192716822
v -0.194327161 9.76562478E-06 -0.192718506
v -0.194326475 9.61303704E-06 -0.0928491205
v -0.354130536 9.61303704E-06 -0.0928472877
v -0.194326475 1.00120664 -0.0928477421
g submesh0
f 1 2 3
f 4 2 1
f 4 3 2
f 1 3 5
f 6 1 5
f 6 5 3
f 4 7 3
f 6 3 7
f 4 6 7
f 4 1 8
f 4 8 6
f 6 8 1
f 9 10 11
f 12 9 11
f 12 11 10
f 9 13 10
f 14 13 9
f 14 10 13
f 12 15 9
f 14 9 15
f 14 15 12
f 12 10 16
f 14 12 16
f 14 16 10
f 17 18 19
f 17 20 18
f 18 21 19
f 18 20 21
f 19 21 22
f 22 21 20
f 17 19 23
f 19 22 23
f 22 20 24
f 17 24 20
f 23 22 24
f 23 24 17
f 25 26 27
f 25 28 26
f 26 29 27
f 26 28 29
f 27 29 30
f 30 29 28
f 25 27 31
f 27 30 31
f 30 28 32
f 25 32 28
f 31 30 32
f 31 32 25
