# improvised_walkway_bridge_600_c_COL
v -4.59623909 -0.56481421 -2.53858304
v -4.60728121 -0.538152099 -2.50972557
v -4.6183238 -0.511492193 -2.53858352
v -4.60728121 -0.53815347 -2.56744099
v -4.60728359 -1.05870426 -0.490278304
v -4.59624004 -1.08536565 -0.461420238
v -4.60728312 -1.05870354 -0.432562858
v -4.61832523 -1.0320431 -0.461420864
v -4.60728407 -0.53815496 -0.490279943
v -4.59624147 -0.564815938 -0.461421907
v -4.60728455 -0.538153768 -0.432564497
v -4.61832714 -0.511494994 -0.461422563
v -4.69543409 -1.72984314 -0.252428472
v -4.70647621 -1.70318127 -0.22356914
v -4.71751928 -1.67651916 -0.252428472
v -4.70647526 -1.70318186 -0.28128776
v 0.30113095 0.339797199 -0.252438456
v 0.279043585 0.393121719 -0.252438873
v 0.290086478 0.366458476 -0.223579213
v 0.290087044 0.366460323 -0.281298131
v -0.0441422276 0.83139962 -0.432545513
v -0.0330975056 0.804738343 -0.461404741
v -0.0441411212 0.831401646 -0.490264416
v -0.05518483 0.858063579 -0.461405128
v -0.0441281348 1.35195315 -0.432546228
v -0.0330832973 1.32529151 -0.461405486
v -0.0441265143 1.35195482 -0.490265161
v -0.0551706217 1.37861681 -0.461405903
v -0.0330833457 1.32529092 -2.53858876
v -0.0551702231 1.37861657 -2.53858876
v -0.0441277884 1.3519522 -2.50972962
v -0.0441260003 1.35195434 -2.56744814
v -4.69543457 -1.72984362 -2.7475493
v -4.70647764 -1.70318222 -2.71869016
v -4.71752071 -1.67651892 -2.7475493
v -4.70647621 -1.70318139 -2.77640867
v 0.301131159 0.339796633 -2.74755812
v 0.290087283 0.366459787 -2.77641773
v 0.290084362 0.36648035 -2.74756002
v 0.290086061 0.366457969 -2.71869898
v 0.279043794 0.393121153 -2.74755859
v -0.044131387 1.35195935 -2.56744933
v -4.59623528 -0.564813673 -2.5385778
v -4.60727692 -0.538152695 -2.56743574
v -4.61832094 -0.511491597 -2.5385778
v -0.0330881923 1.32529783 -2.53858948
v -0.055175446 1.37862206 -2.53858948
v -0.044131387 1.35195935 -2.50972962
v -4.6072793 -0.538153648 -2.50972033
v -0.0105683571 2.75185943 -0.147922114
v 0.018285308 2.72299862 -2.85207939
v 0.0182901118 2.72299981 -0.147922948
v 0.0471486188 2.75185823 -0.147922456
v -0.0105730928 2.75185728 -2.85208011
v 0.0471421331 2.75185537 -2.85208011
v 0.0182853732 2.78071404 -2.85208011
v 0.0182902627 2.78071737 -0.147922665
v -4.5962348 -0.564813972 -0.461417735
v -0.0441312678 1.35195899 -0.432545185
v -4.60727692 -0.538152993 -0.432559967
v -4.61832094 -0.511491835 -0.461417675
v -0.0330880769 1.32529747 -0.461405069
v -0.0551753305 1.37862182 -0.461405069
v -0.0441312678 1.35195899 -0.490264624
v -4.6072793 -0.538153887 -0.490275115
v 0.290081292 0.366467893 -0.281297863
v -4.69544554 -1.72983599 -0.252427846
v -4.70648861 -1.70317435 -0.281285286
v -4.71753263 -1.67651272 -0.252427846
v 0.30112496 0.339805305 -0.252437979
v 0.279036939 0.393130511 -0.252437711
v -4.70648861 -1.70317435 -0.223570436
v 0.290080607 0.366467923 -0.22357814
v -0.0571763776 2.28095031 -2.71691036
v -0.0571793206 0.541460991 -4.45638943
v -0.0860374123 0.561867356 -4.47679472
v -0.0860368833 0.521054268 -4.43598461
v -0.0860358328 2.30135703 -2.73731589
v -0.0860359743 2.26054382 -2.69650269
v -0.114895366 0.541460812 -4.45639038
v -0.114894405 2.28094935 -2.71691036
v -0.0860368833 0.521054268 1.43598878
v -0.114894405 2.28094935 -0.283085525
v -0.0860359743 2.26054382 -0.303492934
v -0.0571763776 2.28095031 -0.283085287
v -0.114895366 0.541460812 1.45639467
v -0.0571793206 0.541460991 1.4563936
v -0.0860358328 2.30135703 -0.262679696
v -0.0860374123 0.561867356 1.47679913
v 0.290080726 0.366467625 -2.77641773
v -4.69544649 -1.7298367 -2.74754882
v -4.70648909 -1.70317459 -2.77640629
v 0.301124364 0.339805037 -2.74755788
v 0.279036522 0.39313069 -2.74755764
v -4.70648909 -1.70317459 -2.71869135
v -4.71753359 -1.67651367 -2.74754882
v 0.290080458 0.366467506 -2.71869802
v -0.0330878645 0.804746985 -2.53858948
v -4.60728025 -1.05870342 -2.56743884
v -0.0441313386 0.831408381 -2.56744933
v -4.59623718 -1.08536422 -2.53858089
v -0.0441313386 0.831408381 -2.50972962
v -4.61832285 -1.03204191 -2.53858137
v -0.0551752858 0.85807091 -2.53858948
v -4.60728073 -1.05870259 -2.50972342
v -4.60727644 -1.05870342 -0.432560116
v -0.0330874622 0.804746866 -0.461405158
v -0.04413094 0.831408203 -0.432545304
v -4.59623432 -1.0853647 -0.461417824
v -4.61831999 -1.03204262 -0.461417794
v -0.04413094 0.831408203 -0.490264744
v -0.0551748835 0.858070672 -0.461405128
v -4.60727739 -1.05870426 -0.490275264
v -4.48170948 -1.70636344 -0.328067839
v -4.45285034 -1.70636284 -0.356925577
v -4.45284891 -0.415782422 -0.356921196
v -4.4817071 -0.41578117 -0.328061849
v -4.51056528 -1.70636261 -0.356925577
v -4.48170662 -0.415780902 -0.385780483
v -4.48170805 -1.70636415 -0.385782987
v -4.51056623 -0.415780634 -0.356921196
v -2.378093 -0.807448089 -0.328065634
v -2.34923434 -0.807447493 -0.356923103
v -2.34922194 0.475834876 -0.356919825
v -2.37808037 0.475835651 -0.328060448
v -2.40695119 -0.807446241 -0.356923103
v -2.37808037 0.475835651 -0.385779232
v -2.37809205 -0.807448089 -0.385780483
v -2.40693927 0.475836158 -0.356919914
v 0.0471498109 2.78341889 -2.85207963
v 0.0182901416 2.78341889 -2.82322049
v 0.0182806291 -2.71263531E-07 -2.8232224
v 0.0471380688 1.22280812E-06 -2.8520813
v -0.0105772996 1.00574732E-06 -2.85208035
v 0.0182899665 2.78341913 -2.88093901
v -0.0105695855 2.78341889 -2.85208035
v 0.0182806291 -2.71263531E-07 -2.88093877
v -0.0105728973 2.54254413 -2.85207939
v 0.0182908215 2.51368618 -0.147922337
v -0.0105682695 2.5425458 -0.147921577
v 0.0182852801 2.51368499 -2.85207868
v 0.0182856265 2.57140064 -2.85207868
v 0.0471486449 2.5425446 -0.14792189
v 0.0182903521 2.57140374 -0.147922114
v 0.0471424423 2.54254198 -2.85207868
v 0.0182908401 2.78244567 -0.176774696
v 0.0471502244 2.78244567 -0.147915468
v 0.04713865 -1.8692046E-07 -0.147915855
v 0.0182811432 -7.18369392E-07 -0.176774651
v 0.0182811432 -7.18369392E-07 -0.119058356
v -0.0105692269 2.78244591 -0.14791505
v 0.0182903837 2.78244591 -0.119056337
v -0.0105770659 4.41855946E-07 -0.147916645
v -4.71909237 -1.6767329 -0.356925994
v -0.0510867573 0.256784409 -2.64309144
v -0.0510875545 0.256784737 -0.356925339
v -0.0689027607 0.299797714 -0.356925488
v -4.71909189 -1.67673326 -2.64308834
v -4.73690939 -1.63371933 -2.64308834
v -4.73690987 -1.63371897 -0.356925994
v -0.0689032078 0.299797177 -2.64309144
v -0.0104034217 0.378067881 -4.34985113
v 0.0184532832 0.406929761 -2.85591888
v 0.0184550136 0.406927228 -4.34985113
v -0.0104056001 0.378069937 -2.85591793
v 0.0473136641 0.378071129 -2.85591984
v 0.0184548534 0.349210352 -4.34985065
v 0.0473136902 0.37806949 -4.34985113
v 0.0184536353 0.349212497 -2.85591888
v 0.0184509642 0.752231598 -4.37906504
v 0.0184575599 1.57952478E-08 -4.37906313
v -0.0104001816 4.82377338E-08 -4.35020494
v -0.0104094129 0.752229214 -4.35020733
v 0.0473098569 0.752230346 -4.35020733
v 0.0184573475 -1.06361301E-06 -4.32134724
v 0.0473149046 1.4851291E-07 -4.35020494
v 0.0184504688 0.752230465 -4.32134771
v -0.0104034217 0.378067881 1.3498553
v 0.0184550136 0.406927228 1.34985566
v 0.0184532832 0.406929761 -0.144076884
v -0.0104056001 0.378069937 -0.144077569
v 0.0473136641 0.378071129 -0.144075945
v 0.0184548534 0.349210352 1.34985507
v 0.0473136902 0.37806949 1.34985578
v 0.0184536353 0.349212497 -0.144076779
v -0.0104001816 4.82377338E-08 1.35020936
v 0.0184509642 0.752231598 1.37906969
v -0.0104094129 0.752229214 1.35021126
v 0.0184575599 1.57952478E-08 1.37906766
v 0.0184573475 -1.06361301E-06 1.32135141
v 0.0473098569 0.752230346 1.3502115
v 0.0184504688 0.752230465 1.32135201
v 0.0473149046 1.4851291E-07 1.35020936
v -4.48171091 -1.70636535 -2.67193294
v -4.45285225 -1.70636499 -2.64307499
v -4.48173809 -1.70636475 -2.64308929
v -4.51056767 -1.7063638 -2.64307547
v -4.48170996 -1.70636559 -2.61421752
v -4.45284796 -0.415781379 -2.64307618
v -4.48170662 -0.415780067 -2.6142168
v -4.48170567 -0.415780962 -2.67193532
v -4.5105648 -0.415780127 -2.64307618
v -2.34924245 0.475840718 -2.64307833
v -2.34923887 -0.807449102 -2.64307642
v -2.37809682 -0.8074494 -2.67193484
v -2.37810087 0.475840658 -2.61421871
v -2.37810016 0.47584033 -2.67193747
v -2.37809706 -0.807449162 -2.61421871
v -2.40695572 -0.807447553 -2.64307666
v -2.40696001 0.475841194 -2.64307785
v -0.161106527 1.37162793 -2.64308095
v -0.161107838 0.100646935 -2.64307857
v -0.189966142 0.100646734 -2.67193723
v -0.189964935 1.37162793 -2.67194057
v -0.218824759 0.10064806 -2.64307857
v -0.218824446 1.37162828 -2.64308095
v -0.189964652 1.37162805 -2.61422181
v -0.189965874 0.100646853 -2.6142199
v -0.189966291 0.100648656 -0.385775298
v -0.161107466 0.100648411 -0.356916696
v -0.189986587 0.100653797 -0.356916219
v -0.218824491 0.100649819 -0.356916994
v -0.189965382 0.100648046 -0.328058243
v -0.218824178 1.3716284 -0.356913507
v -0.189965308 1.37162888 -0.385772735
v -0.189964309 1.37162733 -0.328053802
v -0.161105961 1.37162805 -0.35691306
g submesh0
f 1 2 3
f 3 4 1
f 5 6 7
f 5 7 8
f 9 10 11
f 9 11 12
f 13 14 15
f 15 16 13
f 17 18 19
f 18 17 20
f 21 22 23
f 21 23 24
f 25 26 27
f 25 27 28
f 29 30 31
f 30 29 32
f 33 34 35
f 35 36 33
f 37 38 39
f 37 39 40
f 41 39 38
f 40 39 41
f 42 43 44
f 42 44 45
f 42 46 43
f 42 45 47
f 43 46 48
f 48 47 45
f 43 48 49
f 48 45 49
f 50 51 52
f 51 53 52
f 50 54 51
f 51 55 53
f 50 56 54
f 53 55 56
f 50 57 56
f 53 56 57
f 58 59 60
f 59 61 60
f 58 62 59
f 59 63 61
f 64 62 58
f 61 63 64
f 64 58 65
f 61 64 65
f 66 67 68
f 66 68 69
f 66 70 67
f 66 69 71
f 72 67 70
f 73 71 69
f 72 70 73
f 73 69 72
f 74 75 76
f 74 77 75
f 74 76 78
f 74 79 77
f 80 78 76
f 81 77 79
f 81 80 77
f 80 81 78
f 82 83 84
f 82 84 85
f 82 86 83
f 82 85 87
f 86 88 83
f 89 87 85
f 86 89 88
f 89 85 88
f 90 91 92
f 90 93 91
f 94 90 92
f 95 91 93
f 94 92 96
f 95 93 97
f 97 94 96
f 97 96 95
f 98 99 100
f 98 101 99
f 102 101 98
f 100 99 103
f 103 99 101
f 100 103 104
f 104 105 102
f 102 105 101
f 104 103 105
f 101 105 103
f 106 107 108
f 106 109 107
f 108 110 106
f 109 111 107
f 108 112 110
f 109 113 111
f 113 110 112
f 113 112 111
f 114 115 116
f 114 116 117
f 118 114 117
f 119 116 115
f 117 116 119
f 119 115 120
f 120 118 121
f 118 117 121
f 120 121 119
f 117 119 121
f 122 123 124
f 122 124 125
f 126 122 125
f 127 124 123
f 125 124 127
f 127 123 128
f 128 126 129
f 126 125 129
f 128 129 127
f 125 127 129
f 130 131 132
f 130 132 133
f 134 132 131
f 135 130 133
f 134 131 136
f 135 133 137
f 136 137 134
f 136 135 137
f 138 139 140
f 138 141 139
f 140 142 138
f 141 143 139
f 140 144 142
f 141 145 143
f 145 142 144
f 145 144 143
f 146 147 148
f 146 148 149
f 147 150 148
f 149 151 146
f 147 152 150
f 149 153 151
f 152 151 153
f 152 153 150
f 154 155 156
f 157 154 156
f 157 156 155
f 154 158 155
f 159 158 154
f 159 155 158
f 157 160 154
f 159 154 160
f 157 159 160
f 157 155 161
f 157 161 159
f 159 161 155
f 162 163 164
f 162 165 163
f 164 163 166
f 167 165 162
f 164 166 168
f 167 169 165
f 168 166 169
f 168 169 167
f 170 171 172
f 170 172 173
f 171 170 174
f 175 173 172
f 171 174 176
f 175 177 173
f 177 176 174
f 177 175 176
f 178 179 180
f 178 180 181
f 179 182 180
f 183 178 181
f 179 184 182
f 183 181 185
f 184 183 185
f 184 185 182
f 186 187 188
f 186 189 187
f 190 186 188
f 191 187 189
f 190 188 192
f 191 189 193
f 193 190 192
f 193 192 191
f 194 195 196
f 197 194 196
f 195 198 196
f 198 197 196
f 199 195 194
f 195 200 198
f 195 199 200
f 199 194 201
f 201 194 197
f 200 199 201
f 202 197 198
f 202 198 200
f 201 197 202
f 200 201 202
f 203 204 205
f 204 203 206
f 203 205 207
f 206 203 207
f 204 206 208
f 208 205 204
f 207 205 209
f 208 209 205
f 210 208 206
f 206 207 210
f 210 209 208
f 207 209 210
f 211 212 213
f 211 213 214
f 214 213 215
f 215 213 212
f 216 211 214
f 214 215 216
f 212 211 217
f 211 216 217
f 216 215 218
f 212 218 215
f 216 218 217
f 212 217 218
f 219 220 221
f 222 219 221
f 220 223 221
f 223 222 221
f 219 222 224
f 225 220 219
f 219 224 225
f 222 226 224
f 222 223 226
f 226 225 224
f 223 220 227
f 223 227 226
f 225 227 220
f 226 227 225
