# improvised_walkway_support_300x300_d_b_COL
v -2.51770007E-06 0.971140742 -1.77251343E-06
v -1.00000238 0.999999225 0.0288582705
v -1.00000238 0.97114104 9.98718264E-08
v -1.00000238 1.02885771 1.189999E-07
v -2.46047966E-06 0.99999851 0.0288558509
v -2.51770007E-06 1.02885687 -1.75219463E-06
v -1.0288614 3.00000048 3.05517165E-06
v -1.00000274 5.72204556E-07 -0.0288621727
v -1.02886093 8.7738033E-07 -4.75346178E-06
v -1.00000298 7.24792471E-07 0.0288526695
v -1.00000226 3.00000048 -0.0288568065
v -1.00000226 3.00000048 0.0288629197
v -0.971144855 8.7738033E-07 -4.75690149E-06
v -0.971143305 3.00000048 3.05173148E-06
v -3.07478213 2.71894455 0.104496352
v 0.0319104008 0.298715204 0.133351475
v 0.0494781472 0.321610332 0.104492739
v 0.0143426508 0.275820315 0.104492754
v -3.10991764 2.67315435 0.104496345
v -3.09234977 2.69604969 0.133355573
v -1.90734859E-08 2.72113943 5.64550874E-06
v -3 2.75000095 0.0288557317
v -3 2.72114253 -1.86616523E-06
v -3 2.7788589 -1.89152968E-06
v -1.90734859E-08 2.77885771 5.62477499E-06
v 0 2.74999833 0.0288653765
v -3 2.52885604 2.98855298E-06
v -1.90734859E-08 2.47114587 5.08006849E-07
v -3 2.47113657 2.97290376E-06
v -3 2.49999619 0.0288618896
v -7.62939436E-08 2.50000358 0.0288588759
v -7.62939436E-08 2.52886128 7.97533573E-07
v -0.0288589206 3.00000048 3.05517165E-06
v -3.32295883E-07 5.53131088E-07 -0.0288621727
v -0.0288585126 8.58306862E-07 -4.75346178E-06
v -6.30915167E-07 7.05719003E-07 0.0288526695
v 1.73151491E-07 3.00000048 -0.0288568065
v 1.79707996E-07 3.00000048 0.0288629197
v 0.0288575459 8.58306862E-07 -4.75690103E-06
v 0.0288591217 3.00000048 3.05173148E-06
v -3.00000238 3.00000048 0.0288629197
v -3.00000262 2.39999771 0.0288607981
v -2.97114372 2.39999771 1.43398324E-06
v -3.02886128 2.39999771 1.43742307E-06
v -3.00000238 2.39999771 -0.0288579166
v -3.00000238 3.00000048 -0.0288568065
v -2.97114301 3.00000048 3.05173148E-06
v -3.02886128 3.00000048 3.05517165E-06
g submesh0
f 1 2 3
f 4 3 2
f 4 1 3
f 5 4 2
f 1 5 2
f 5 6 4
f 4 6 1
f 1 6 5
f 7 8 9
f 7 9 10
f 10 9 8
f 7 11 8
f 7 10 12
f 12 11 7
f 11 13 8
f 10 8 13
f 14 12 10
f 12 14 11
f 14 10 13
f 11 14 13
f 15 16 17
f 15 17 18
f 18 17 16
f 15 18 19
f 19 18 16
f 15 20 16
f 19 16 20
f 15 19 20
f 21 22 23
f 21 23 24
f 24 23 22
f 21 24 25
f 25 24 22
f 21 26 22
f 25 22 26
f 21 25 26
f 27 28 29
f 30 27 29
f 30 29 28
f 27 30 31
f 30 28 31
f 27 32 28
f 27 31 32
f 28 32 31
f 33 34 35
f 33 35 36
f 36 35 34
f 33 37 34
f 33 36 38
f 38 37 33
f 37 39 34
f 36 34 39
f 40 38 36
f 38 40 37
f 40 36 39
f 37 40 39
f 41 42 43
f 44 42 41
f 42 45 43
f 42 44 45
f 43 45 46
f 46 45 44
f 41 43 47
f 43 46 47
f 46 44 48
f 44 41 48
f 47 46 48
f 47 48 41
