# improvised_walkway_wood_450x150_a_COL
v -4.5117588 3.29687119 -1.54236126
v -0.0142372129 2.24006248 -1.95922661
v -0.0142375184 2.24006248 -1.91266847
v 0.0181130972 2.36079621 -1.95922756
v -4.5117588 3.2968719 -1.49580336
v -4.47940779 3.41760612 -1.54236221
v 0.0181129444 2.36079621 -1.91266966
v -4.47940779 3.41760612 -1.49580395
v -4.5117588 3.74371767 -1.54236126
v -0.0142372129 2.53861356 -1.95922661
v -0.0142375184 2.53861356 -1.91266847
v 0.0181130972 2.65934753 -1.95922756
v -4.5117588 3.74371815 -1.49580336
v -4.47940779 3.86445236 -1.54236221
v 0.0181129444 2.65934753 -1.91266966
v -4.47940779 3.86445236 -1.49580395
v -0.0978990123 0.675723732 -1.85118377
v -0.852828324 1.97179246 -1.75632262
v -1.03345573 2.01183677 -1.73362458
v -1.03345573 2.01183653 -1.83039176
v 0.00448959321 0.747416794 -1.86405027
v -0.0979002342 0.675723314 -1.9479506
v 0.0044892882 0.747416317 -1.96081781
v -0.852828324 1.97179258 -1.85308981
v -0.0255818162 1.95291078 -1.80225503
v -0.175581813 1.98664498 -0.150142431
v -0.0255824272 1.95291424 -0.150142431
v -0.0255848691 1.78116465 -0.15013878
v -0.175581813 1.98664176 -1.78730714
v -0.02558548 1.78116393 -1.80225122
v -0.175584257 1.81511486 -0.15013878
v -0.175586089 1.81511343 -1.78730178
v -4.32250786 2.9139123 -1.38839769
v -4.47250795 2.94764638 -0.150148079
v -4.32250834 2.91391587 -0.150148079
v -4.32251072 2.74216604 -0.150144428
v -4.47250795 2.94764328 -1.37344968
v -4.32251167 2.74216557 -1.38839364
v -4.47251034 2.77611637 -0.150144428
v -4.47251225 2.77611494 -1.3734442
v -4.32477665 2.69895267 -0.123885803
v -4.32477665 1.69767606 -1.41028178
v -4.3247757 1.80160332 -1.47972465
v -4.42163897 1.80160332 -1.47972465
v -4.3247776 2.55572844 -0.12611191
v -4.42163944 2.69895267 -0.123886414
v -4.42163992 1.6976757 -1.4102819
v -4.42163992 2.55572844 -0.126113132
v -3.83377862 2.73981094 -1.56399977
v -4.32270527 1.87922263 -1.56399918
v -4.42186928 1.95531297 -1.56400001
v -4.42186928 1.95531297 -1.46713698
v -3.69509768 2.71521974 -1.56399882
v -3.8337822 2.73980737 -1.46713662
v -3.69509149 2.7152276 -1.46713603
v -4.32270527 1.87922239 -1.46713603
v -0.0255816653 1.95441341 -1.80198181
v -4.47250557 2.94827008 -1.52344692
v -4.47250557 2.94826961 -1.37344754
v -4.47250938 2.77505851 -1.37345004
v -0.0255822744 1.95441401 -1.95198178
v -0.0255856309 1.78120506 -1.80198538
v -4.47250938 2.77505851 -1.52344942
v -0.0255877674 1.78120446 -1.95198607
v -4.4701128 -1.52587887E-07 -1.40194654
v -4.47011328 2.77940917 -1.40194666
v -4.4701128 2.77940917 -1.60194802
v -4.31011152 2.77940917 -1.40194666
v -4.4701128 -1.52587887E-07 -1.60194755
v -4.31011152 0 -1.40194643
v -4.31011105 2.77940917 -1.60194802
v -4.31011152 -1.52587887E-07 -1.60194755
v -3.50680232 2.61756659 -0.0269104
v -4.2894578 1.39226806 -0.0269097891
v -3.34925175 2.61756659 -0.0269097891
v -3.34925032 2.61756682 -0.123772196
v -4.38862133 1.46835864 -0.0269107055
v -4.2894578 1.3922683 -0.123772882
v -4.38862133 1.46835876 -0.123773798
v -3.50680161 2.61756682 -0.123773418
v -1.04732895 2.05609012 -0.107333064
v -1.04732895 2.05609012 -0.010126953
v -0.0211862177 0.826042891 -0.010126953
v -1.25266397 2.05609012 -0.010126953
v -0.0211862177 0.826042771 -0.107333064
v -0.168270558 0.702624798 -0.0101272585
v -1.25266421 2.05609012 -0.107332759
v -0.168270558 0.702624619 -0.10733337
v -0.0255816653 1.95441341 -0.000142211909
v -4.47250557 2.94827008 -0.150142208
v -4.47250557 2.94826961 -0.00014282226
v -4.47250938 2.77505851 -0.000145263664
v -0.0255822744 1.95441401 -0.150142208
v -0.0255856309 1.78120506 -0.000145874015
v -4.47250938 2.77505851 -0.150144652
v -0.0255877674 1.78120446 -0.150146484
v -4.47862387 2.77221847 -0.138526917
v -4.47862339 3.05175774E-07 -0.13852638
v -4.47862339 3.05175774E-07 0.0614741519
v -4.2786231 4.57763662E-07 -0.138527289
v -4.47862434 2.77221847 0.0614739992
v -4.27862215 2.72763848 -0.138527066
v -4.27862263 3.05175774E-07 0.0614732355
v -4.27862215 2.72763848 0.0614739992
v 1.52587887E-07 9.15527323E-07 -1.81173027
v 7.62939408E-07 1.77873778 -2.01173139
v 7.62939408E-07 1.77873778 -1.81173027
v -0.200000912 1.77873743 -1.81173027
v 3.05175774E-07 6.10351549E-07 -2.01173091
v -0.200000763 6.10351549E-07 -1.81173122
v -0.200001061 1.77873778 -2.01173139
v -0.20000045 6.10351549E-07 -2.01173186
v -0.200000912 1.81304169 -0.13852714
v -0.200000763 4.57763662E-07 -0.138526678
v -0.20000045 4.57763662E-07 0.0614739992
v 1.52587887E-07 6.10351549E-07 -0.138527602
v -0.200001061 1.81304145 0.0614738464
v 7.62939408E-07 1.7746042 -0.138527289
v 3.05175774E-07 4.57763662E-07 0.0614730828
v 7.62939408E-07 1.77460396 0.0614738464
v -0.179652631 3.00551701 -1.81296539
v -0.179652318 3.00551558 -1.90509093
v -0.179652631 2.00431967 -1.905092
v -0.179652631 2.00431919 -1.81296539
v -0.0198491663 2.00431967 -1.91283274
v -0.0198485553 3.00551629 -1.81298196
v -0.0198488608 3.00551558 -1.91283047
v -0.0198485553 2.00431919 -1.81298339
v -4.3102417 2.91260648 -1.40947199
v -4.31024218 2.91260743 -1.50929368
v -4.3102417 3.96360445 -1.50929415
v -4.3102417 3.96300411 -1.40947151
v -4.47004557 3.94085503 -1.49651957
v -4.47004557 2.91260695 -1.40940368
v -4.47004557 2.91260743 -1.49651802
v -4.47004557 3.94025493 -1.40940452
v -2.32017636 3.46274781 0.054615479
v -2.32017612 3.46274662 -0.0452534482
v -2.32017636 2.47979236 -0.0452545173
v -2.32017636 2.47979188 0.054615479
v -2.16037297 2.47979236 -0.0452557355
v -2.16037226 3.48098922 0.0546150208
v -2.1603725 3.48098874 -0.0452534482
v -2.16037226 2.47979188 0.0546136461
v -4.55853701 3.33315158 0.0983154252
v -0.0132690426 2.3372345 0.0983142033
v -0.0147810364 2.45385432 0.0983132944
v -0.0132684326 2.3372345 0.0517568961
v -0.0147808837 2.45385432 0.0517559797
v -3.5262537 3.23232841 0.0983145088
v -4.55853701 3.33315086 0.0517584234
v -3.5262537 3.23232841 0.0517568961
v 0.0125280758 2.78567743 0.100905761
v -4.53327799 3.79345608 0.100907288
v -4.53327799 3.79345584 0.0543493629
v 0.0395814516 2.90770745 0.100904539
v 0.0125283049 2.78567743 0.0543475337
v -4.50622463 3.91548657 0.100906678
v -4.50622463 3.91548657 0.0543484502
v 0.0395816788 2.90770745 0.0543466173
v -4.31024218 2.95412135 0.054615479
v -4.31024265 2.95412254 -0.0452530645
v -4.31024265 4.00511932 -0.0452534482
v -4.31024218 3.96386337 0.0546159334
v -4.47004604 4.00511932 -0.0452534482
v -4.47004652 2.95412183 0.0546166971
v -4.47004652 2.95412254 -0.0452518463
v -4.47004652 3.96386337 0.0546156317
v -0.179652706 3.00551701 0.054615479
v -0.179652408 3.00551558 -0.0452534482
v -0.179652706 2.00431967 -0.0452545173
v -0.179652706 2.00431919 0.054615479
v -0.0198492426 2.00431967 -0.0452557355
v -0.0198486317 3.00551629 0.0546150208
v -0.0198489372 3.00551558 -0.0452534482
v -0.0198486317 2.00431919 0.0546136461
v -2.14350033 2.4715054 -1.88222408
v -0.0649029538 2.01259232 -1.73101819
v -0.0810025781 2.01374531 -1.98055601
v -0.0910703987 1.96829188 -1.9801172
v -1.83577514 2.40518975 -1.69187868
v -0.0749708563 1.96713865 -1.73057842
v -2.15356803 2.42605138 -1.88178444
v -1.84584284 2.3597362 -1.69143867
v 0.0116087338 1.99747682 0.0830474868
v 0.0116084283 1.9974761 -1.61019111
v -4.42867851 2.9818666 -1.61018991
v 0.00153213495 1.95202267 -1.61019182
v -4.43875551 2.93641329 -1.61018991
v 0.00153228757 1.95202327 0.0830474868
v -4.42867851 2.9818666 0.0830487013
v -4.43875456 2.93641329 0.0830499232
v -0.0701074228 1.36389816 0.197499231
v -0.0701086447 1.1662246 0.227924183
v -0.0701019242 0.801128507 -2.14414382
v -0.144719541 1.16622436 0.227924496
v -0.144713134 0.801128805 -2.14414406
v -0.144718632 1.36389816 0.197499692
v -0.0701016188 0.998802781 -2.17456913
v -0.144713134 0.998803258 -2.17456865
v 9.79614269E-05 0.357121259 -2.12082577
v 9.85717779E-05 0.457173765 0.170747221
v 9.88769534E-05 0.656985462 0.162023008
v 0.0466552712 0.457173765 0.170746759
v 0.0466552712 0.656985462 0.162022695
v 0.0466549657 0.357121259 -2.12082601
v 9.82666024E-05 0.556932986 -2.12954974
v 0.0466552712 0.556932986 -2.12954974
g submesh0
f 1 2 3
f 4 2 1
f 1 3 5
f 4 1 6
f 7 5 3
f 8 4 6
f 7 8 5
f 8 7 4
f 9 10 11
f 12 10 9
f 9 11 13
f 12 9 14
f 15 13 11
f 16 12 14
f 15 16 13
f 16 15 12
f 17 18 19
f 20 17 19
f 17 21 18
f 20 22 17
f 18 21 23
f 23 22 20
f 18 23 24
f 23 20 24
f 25 26 27
f 25 27 28
f 25 29 26
f 25 28 30
f 31 26 29
f 31 30 28
f 31 29 32
f 31 32 30
f 33 34 35
f 33 35 36
f 33 37 34
f 33 36 38
f 39 34 37
f 39 38 36
f 39 37 40
f 39 40 38
f 41 42 43
f 44 41 43
f 41 45 42
f 44 46 41
f 47 42 45
f 46 44 47
f 47 45 48
f 46 47 48
f 49 50 51
f 52 49 51
f 49 53 50
f 52 54 49
f 50 53 55
f 54 52 56
f 50 55 56
f 54 56 55
f 57 58 59
f 57 59 60
f 57 61 58
f 57 60 62
f 63 58 61
f 63 62 60
f 63 61 64
f 63 64 62
f 65 66 67
f 68 66 65
f 65 67 69
f 68 65 70
f 71 69 67
f 70 71 68
f 71 72 69
f 70 72 71
f 73 74 75
f 74 76 75
f 73 77 74
f 74 78 76
f 79 77 73
f 76 78 79
f 79 73 80
f 76 79 80
f 81 82 83
f 83 82 84
f 81 83 85
f 83 84 86
f 85 87 81
f 87 86 84
f 85 88 87
f 87 88 86
f 89 90 91
f 89 91 92
f 89 93 90
f 89 92 94
f 95 90 93
f 95 94 92
f 95 93 96
f 95 96 94
f 97 98 99
f 100 98 97
f 97 99 101
f 100 97 102
f 101 99 103
f 104 100 102
f 101 103 104
f 104 103 100
f 105 106 107
f 105 107 108
f 105 109 106
f 105 108 110
f 109 111 106
f 112 110 108
f 109 112 111
f 112 108 111
f 113 114 115
f 116 114 113
f 113 115 117
f 116 113 118
f 117 115 119
f 120 116 118
f 117 119 120
f 120 119 116
f 121 122 123
f 121 123 124
f 122 125 123
f 124 126 121
f 122 127 125
f 124 128 126
f 128 125 127
f 128 127 126
f 129 130 131
f 129 131 132
f 130 133 131
f 132 134 129
f 130 135 133
f 132 136 134
f 136 133 135
f 136 135 134
f 137 138 139
f 137 139 140
f 138 141 139
f 140 142 137
f 138 143 141
f 140 144 142
f 144 141 143
f 144 143 142
f 145 146 147
f 145 148 146
f 148 147 146
f 148 149 147
f 145 147 150
f 149 150 147
f 145 151 148
f 151 149 148
f 149 152 150
f 145 150 152
f 145 152 151
f 151 152 149
f 153 154 155
f 154 153 156
f 153 155 157
f 154 156 158
f 159 157 155
f 160 158 156
f 160 159 158
f 159 160 157
f 161 162 163
f 161 163 164
f 162 165 163
f 164 166 161
f 162 167 165
f 164 168 166
f 168 165 167
f 168 167 166
f 169 170 171
f 169 171 172
f 170 173 171
f 172 174 169
f 170 175 173
f 172 176 174
f 176 173 175
f 176 175 174
f 177 178 179
f 177 179 180
f 178 180 179
f 177 181 178
f 178 182 180
f 181 182 178
f 177 180 183
f 181 177 183
f 184 180 182
f 181 184 182
f 184 183 180
f 181 183 184
f 185 186 187
f 185 188 186
f 186 188 189
f 186 189 187
f 185 190 188
f 189 188 190
f 185 187 191
f 191 190 185
f 189 190 192
f 187 189 192
f 187 192 191
f 191 192 190
f 193 194 195
f 193 196 194
f 194 196 197
f 194 197 195
f 193 198 196
f 197 196 198
f 193 195 199
f 199 198 193
f 197 198 200
f 195 197 200
f 195 200 199
f 199 200 198
f 201 202 203
f 204 202 201
f 205 202 204
f 205 203 202
f 204 201 206
f 205 204 206
f 201 203 207
f 206 201 207
f 205 206 208
f 208 203 205
f 206 207 208
f 208 207 203
