# improvised_walkway_roof_tarp_300x300_corner_a_COL
v 0.0507820584 0.56405282 -1.17369378
v -2.92451715 0.30737859 0.0716784298
v 0.0581580475 0.339839816 0.0432192124
v -2.90324211 0.562850118 -1.01166916
v 0.0810740739 1.01498604 -2.74502993
v -2.9063406 1.01527345 -2.73495317
v 0.0406081602 0.322357088 0.0262969863
v -2.92605829 0.287771046 0.0490250811
v -2.90998888 0.53435874 -1.01791894
v 0.0310993213 0.542025566 -1.17874599
v 0.0620019287 0.991842091 -2.74581242
v -2.90796757 0.98533231 -2.73401093
g submesh0
f 1 2 3
f 1 4 2
f 4 1 5
f 4 5 6
f 7 8 9
f 7 9 10
f 11 10 9
f 11 9 12
