# improvised_walkway_support_wood_300x300_a_COL
v -2.87419486 1.67804933 -0.0288677979
v -2.87419438 2.77999997 -1.23143482
v -2.87419343 2.77999997 -1.04642212
v -2.97096157 2.77999997 -1.23143506
v -2.87419367 1.77020395 0.0555773899
v -2.97096062 2.77999997 -1.04642177
v -2.97096133 1.77020454 0.0555776954
v -2.97096181 1.67804992 -0.0288667288
v -0.142159879 1.84588814 -0.0464732349
v -0.142160788 2.77999997 -0.732897341
v -0.142159566 2.77999997 -0.902432024
v -0.0455558784 2.77999997 -0.902430534
v -0.142160788 1.93033183 0.0456817634
v -0.0455567911 1.93033195 0.0456817634
v -0.0455558784 1.84588802 -0.0464730822
v -0.0455564857 2.78000021 -0.732896566
v -1.25329161 2.78000021 -0.10682869
v -0.168898001 1.42653501 -0.106829219
v -0.168898001 1.42653525 -0.0096231075
v -0.021813659 1.54995322 -0.106828913
v -0.021813659 1.54995322 -0.00962280296
v -1.25329149 2.78000021 -0.00962280296
v -1.04795635 2.78000021 -0.106828913
v -1.04795635 2.78000021 -0.00962280296
v -3.00000167 1.52587887E-07 -0.138527378
v -3.00000143 0 0.0614738464
v -3.00000215 2.77940917 0.0614736937
v -2.83999991 0 0.0614738464
v -2.83999991 0 -0.138527215
v -3.00000119 2.77940917 -0.138527676
v -2.84000015 2.77940917 0.0614736937
v -2.83999944 2.77940917 -0.138527676
v -2.06761098 2.78000021 -0.0115200803
v -2.85026646 1.55470169 -0.0115194703
v -1.91006041 2.78000021 -0.0115194703
v -2.06761026 2.78000021 -0.108383253
v -1.91005898 2.78000021 -0.108382031
v -2.94943023 1.63079214 -0.108383559
v -2.94943023 1.63079214 -0.0115203857
v -2.85026646 1.55470192 -0.108382642
v -0.200000301 2.77873707 -0.138527378
v -0.200000152 3.05175774E-07 -0.138526529
v -0.199999839 3.05175774E-07 0.0614739992
v 9.15527323E-07 3.05175774E-07 0.0614730828
v -0.20000045 2.77873707 0.0614736937
v 7.62939408E-07 4.57763662E-07 -0.138527453
v 1.37329096E-06 2.77873707 0.0614736937
v 1.37329096E-06 2.77873707 -0.138527527
g submesh0
f 1 2 3
f 4 2 1
f 4 3 2
f 1 3 5
f 6 5 3
f 4 6 3
f 6 7 5
f 1 5 7
f 7 6 4
f 4 1 8
f 7 4 8
f 1 7 8
f 9 10 11
f 9 11 12
f 10 12 11
f 9 13 10
f 9 14 13
f 14 10 13
f 9 12 15
f 9 15 14
f 14 16 10
f 10 16 12
f 15 12 16
f 15 16 14
f 17 18 19
f 20 18 17
f 20 19 18
f 20 21 19
f 17 19 22
f 21 22 19
f 23 21 20
f 20 17 23
f 21 24 22
f 17 22 24
f 23 24 21
f 17 24 23
f 25 26 27
f 25 28 26
f 27 26 28
f 25 29 28
f 25 27 30
f 30 29 25
f 29 31 28
f 27 28 31
f 30 32 29
f 27 32 30
f 29 32 31
f 27 31 32
f 33 34 35
f 36 33 35
f 36 35 37
f 34 37 35
f 38 33 36
f 37 38 36
f 33 39 34
f 38 39 33
f 37 40 38
f 34 40 37
f 40 34 39
f 40 39 38
f 41 42 43
f 44 43 42
f 41 43 45
f 45 43 44
f 46 42 41
f 44 42 46
f 45 44 47
f 47 44 46
f 46 41 48
f 48 41 45
f 47 46 48
f 48 45 47
