# improvised_walkway_support_150x300_a_a_COL
v 0.0625892654 2.7233696 0.133355543
v -1.60372794 0.161475524 0.104493156
v -1.57938898 0.145969853 0.133351952
v -1.55505037 0.130464137 0.104493178
v 0.0382504277 2.73887563 0.10449633
v 0.0869284049 2.70786333 0.104496315
v 0 2.74999833 0.0288653746
v -1.50218356 2.74999952 0.0288611073
v -1.50218356 2.72114062 2.31888453E-06
v -1.50218356 2.77885795 2.29609986E-06
v -1.90734859E-08 2.72113943 5.64550874E-06
v -1.90734859E-08 2.77885771 5.62477499E-06
v -1.50218356 2.47114158 1.59961257E-06
v -7.62939436E-08 2.50000358 0.0288588759
v -1.50218356 2.50000024 0.0288602114
v -1.50218356 2.5288589 1.76784954E-06
v -1.90734859E-08 2.47114587 5.08006906E-07
v -7.62939436E-08 2.52886128 7.97533573E-07
v -1.50103188 0.999999583 0.0288600158
v 4.80651852E-06 1.02885687 -1.75219463E-06
v -1.50103188 1.0288583 1.47019307E-06
v -1.50103188 0.971141338 1.45192485E-06
v 4.86373892E-06 0.99999851 0.0288558472
v 4.80651852E-06 0.971140742 -1.77251343E-06
v -1.50103188 0.471150607 1.51600102E-06
v -1.50103188 0.528867722 1.49826224E-06
v 4.86373892E-06 0.528869092 -1.61988885E-06
v -1.50103188 0.500009298 0.0288602579
v 4.86373892E-06 0.471151233 -1.60420086E-06
v 4.86373892E-06 0.500010192 0.0288581252
v 0.0288591217 3.00000048 3.05173148E-06
v 1.79707996E-07 3.00000048 0.0288629197
v -6.30915167E-07 0.0131759066 0.0288526695
v -0.0288589206 3.00000048 3.05517165E-06
v 0.0288575459 0.0131760594 -4.7574772E-06
v -0.0288585126 0.0131760594 -4.75403749E-06
v 1.73151491E-07 3.00000048 -0.0288568065
v -3.32295883E-07 0.0131757539 -0.0288621727
g submesh0
f 1 2 3
f 1 3 4
f 1 5 2
f 5 4 2
f 1 4 6
f 5 6 4
f 7 8 9
f 10 8 7
f 7 9 11
f 10 7 12
f 12 11 9
f 12 9 10
f 13 14 15
f 14 16 15
f 13 17 14
f 14 18 16
f 18 17 13
f 18 13 16
f 19 20 21
f 20 22 21
f 19 23 20
f 20 24 22
f 24 23 19
f 24 19 22
f 25 26 27
f 27 26 28
f 25 27 29
f 28 25 29
f 27 28 30
f 28 29 30
f 31 32 33
f 34 33 32
f 31 33 35
f 34 36 33
f 37 31 35
f 34 38 36
f 34 37 38
f 37 35 38
