# industrial_large_furnace_COL_main
v 0.658526957 0.944652915 1.0607841
v 0.658526957 0.944612086 0.935784101
v 0.658523083 2.60225224 0.935260952
v 0.658523321 2.49939823 1.06029332
v 0.533527017 0.944652915 1.0607841
v 0.533523321 2.49939847 1.06029332
v 0.533527017 0.944612086 0.935784101
v 0.533523083 2.60225248 0.935260952
v 1.0607841 0.944652855 -0.658527136
v 0.935784101 0.944612086 -0.658527076
v 0.935260952 2.60225177 -0.658523083
v 1.06029332 2.49939799 -0.658523381
v 1.0607841 0.944652855 -0.533527136
v 1.06029332 2.49939823 -0.53352344
v 0.935784101 0.944612086 -0.533527076
v 0.935260952 2.60225224 -0.533523083
v -0.658527136 0.944652736 -1.0607841
v -0.658527076 0.944612026 -0.935784101
v -0.658523083 2.60225177 -0.935260952
v -0.658523381 2.49939775 -1.06029332
v -0.533527136 0.944652736 -1.0607841
v -0.53352344 2.49939799 -1.06029332
v -0.533527076 0.944612026 -0.935784101
v -0.533523083 2.60225177 -0.935260952
v -1.0607841 0.944652677 0.658527136
v -0.935784101 0.944611967 0.658527076
v -0.935260952 2.60225153 0.658523083
v -1.06029332 2.49939752 0.658523381
v -1.0607841 0.944652677 0.533527136
v -1.06029332 2.49939775 0.53352344
v -0.935784101 0.944611967 0.533527076
v -0.935260952 2.60225177 0.533523083
v -0.519308507 0.745000124 1.29779458
v -0.526219249 1.24351859 0.945642233
v -0.735930741 1.24351859 0.735930681
v -0.989660621 0.745000124 0.989660561
v -0.945642292 1.24351859 0.526219249
v -1.29779482 0.745000124 0.519308448
v -0.989660621 -2.00000024 0.989660561
v -1.29779482 -2.00000024 0.519308448
v -2.1320262 -2.00000024 0.518434942
v -0.519308507 -2.00000024 1.29779458
v -2.1320262 0.745000124 0.518434942
v -2.1320262 -2.00000024 -0.518434942
v -2.1320262 0.745000124 -0.518434942
v -1.29779458 -2.00000024 -0.519308448
v 4.96705388E-09 0.745000064 0
v 0.519308507 0.745000124 1.29779458
v 0.989660621 0.745000124 0.989660561
v 1.29779482 0.745000124 0.519308448
v 1.29779458 0.745000124 -0.519308448
v 0.989660561 0.745000124 -0.989660561
v 0.519308448 0.745000124 -1.29779458
v -0.519308448 0.745000124 -1.29779458
v -0.989660561 0.745000124 -0.989660561
v -1.29779458 0.745000124 -0.519308448
v -0.989660561 -2.00000024 -0.989660561
v -0.519308448 -2.00000024 -1.29779458
v -0.518585622 -2.00000024 -2.13202596
v -0.735930681 1.24351859 -0.735930681
v -0.945642233 1.24351859 -0.526219189
v -0.526219249 1.24351859 -0.945642233
v 0.526219249 1.24351859 -0.945642233
v 0.735930681 1.24351859 -0.735930681
v 0.945642233 1.24351859 -0.526219189
v -0.518585622 0.745000124 -2.13202596
v 0.518585622 0.745000124 -2.13202596
v 0.518585622 -2.00000024 -2.13202596
v 0.519308448 -2.00000024 -1.29779458
v 0.989660561 -2.00000024 -0.989660561
v 1.29779458 -2.00000024 -0.519308448
v 2.1320262 0.745000124 -0.518434942
v 2.1320262 -2.00000024 -0.518434942
v 2.1320262 0.745000124 0.518434942
v 2.1320262 -2.00000024 0.518434942
v 1.29779482 -2.00000024 0.519308448
v 0.989660621 -2.00000024 0.989660561
v 0.945642292 1.24351859 0.526219249
v 0.735930741 1.24351859 0.735930681
v 0.519308507 -2.00000024 1.29779458
v 0.526219249 1.24351859 0.945642233
v 0.518585622 0.745000124 2.13202596
v 0.518585622 -2.00000024 2.13202596
v -0.518585622 -2.00000024 2.13202596
v -0.518585622 0.745000124 2.13202596
v -0.533523321 2.49939847 1.06029332
v -0.533527017 0.944612086 0.935784101
v -0.533523083 2.60225248 0.935260952
v -0.533527017 0.944652915 1.0607841
v -0.658523321 2.49939823 1.06029332
v -0.658526957 0.944652915 1.0607841
v -0.658523083 2.60225224 0.935260952
v -0.658526957 0.944612086 0.935784101
v 1.06029332 2.49939823 0.533523262
v 0.935784221 0.944612086 0.533526957
v 0.935260952 2.60225224 0.533523023
v 1.0607841 0.944652855 0.533526957
v 1.06029332 2.49939799 0.658523262
v 1.0607841 0.944652855 0.658526957
v 0.935260952 2.60225177 0.658523023
v 0.935784221 0.944612086 0.658526957
v 0.533523202 2.49939799 -1.0602932
v 0.533526897 0.944612026 -0.93578428
v 0.533522964 2.60225177 -0.935261071
v 0.533526897 0.944652736 -1.0607841
v 0.658523142 2.49939775 -1.0602932
v 0.658526897 0.944652736 -1.0607841
v 0.658522964 2.60225177 -0.935261071
v 0.658526897 0.944612026 -0.93578428
v -1.0602932 2.49939775 -0.533523142
v -0.93578428 0.944611967 -0.533526838
v -0.93526113 2.60225177 -0.533522904
v -1.0607841 0.944652677 -0.533526838
v -1.0602932 2.49939752 -0.658523142
v -1.0607841 0.944652677 -0.658526838
v -0.93526113 2.60225153 -0.658522844
v -0.93578428 0.944611967 -0.658526838
v -0.25386411 1.57491839 0.985172927
v -0.508345962 0.745000124 0.985172927
v -0.25386411 0.745000124 0.985172927
v -0.985172987 0.745000184 0.25386411
v -0.508345962 1.57491863 0.985172927
v -0.985173106 1.57491875 0.508346021
v -0.985173106 2.70782685 0.508346021
v -0.985173106 0.745000124 0.508346021
v -0.985172987 1.57491863 0.25386411
v 0.985173106 1.57491875 0.254173011
v 0.253831685 1.57491839 0.985172927
v -0.985172987 1.57491863 -0.253831685
v 0.985172987 1.57491839 -0.253831685
v -0.25386411 1.57491863 -0.985173106
v 0.985173106 2.70782685 0.508346021
v -0.508345962 2.70782685 0.985172927
v -0.25386411 0.745000184 -0.985173106
v -0.985172987 0.745000184 -0.253831685
v -0.508345902 0.745000124 -0.985173106
v -0.985172927 1.57491875 -0.508346021
v -0.985172927 0.745000124 -0.508346021
v -0.508345902 1.57491875 -0.985173106
v -0.985172927 2.70782685 -0.508346021
v -0.508345902 2.70782685 -0.985173106
v 0.508345902 2.70782685 -0.985173106
v -0.53912282 2.70782685 -1.30155802
v -1.3015579 2.70782685 -0.539122939
v -1.30155802 2.70782685 0.539122939
v 0.253831685 1.57491863 -0.985173106
v -0.53912282 3.5764184 -1.30155802
v -1.3015579 3.5764184 -0.539122939
v -0.539122939 2.70782685 1.3015579
v -1.30155802 3.5764184 0.539122939
v 0.508345962 2.70782685 0.985172927
v 0.53912282 3.5764184 -1.30155802
v -0.262086332 3.57891035 -0.632732511
v 0.53912282 2.70782685 -1.30155802
v -0.632732391 3.57891035 -0.262086362
v -0.539122939 3.5764184 1.3015579
v 0.539122939 2.70782685 1.3015579
v -0.632732451 3.57891035 0.262086362
v -0.262086332 5.57591534 -0.632732511
v 0.262086332 3.57891035 -0.632732511
v 0.262086332 5.57591534 -0.632732511
v -0.632732391 5.57591534 -0.262086362
v -0.632732451 5.57591534 0.262086362
v -0.262086362 3.57891035 0.632732391
v 0.539122939 3.5764184 1.3015579
v -0.262086362 5.57591534 0.632732391
v 0.262086362 3.57891035 0.632732391
v 0.262086362 5.57591534 0.632732391
v 0.632732451 5.57591534 0.262086362
v 0.632732451 3.57891035 0.262086362
v 1.30155802 3.5764184 0.539122939
v 0.632732391 5.57591534 -0.262086362
v 0.632732391 3.57891035 -0.262086362
v 1.3015579 3.5764184 -0.539122939
v 1.30155802 2.70782685 0.539122939
v 1.3015579 2.70782685 -0.539122939
v 0.985172927 2.70782685 -0.508346021
v 0.508345962 1.57491875 0.985172927
v 0.985172927 1.57491875 -0.508346021
v 0.985173106 1.57491875 0.508346021
v 0.985173106 0.745000124 0.508346021
v 0.508345962 0.745000124 0.985172927
v 0.985172987 0.745000124 0.25386411
v 0.253831685 0.745000124 0.985172927
v 0.508345902 1.57491875 -0.985173106
v 0.985172987 0.745000124 -0.253831685
v 0.253831685 0.745000184 -0.985173106
v 0.985172927 0.745000124 -0.508346021
v 0.508345902 0.745000124 -0.985173106
v -0.52118516 4.42008734 0.362745285
v -0.52118516 4.59693527 0.362745404
v -1.23641455 3.52638483 0.775683522
v -0.574739099 4.59693527 0.269987315
v -1.11826229 3.52638459 0.707468033
v -0.574739039 4.42008734 0.269987136
v -1.28996873 3.52638483 0.682925463
v -1.17181611 3.52638459 0.614710212
v -0.574739218 4.42008734 -0.269986987
v -0.574739277 4.59693527 -0.269986928
v -1.28996885 3.52638483 -0.682924688
v -0.521185458 4.59693527 -0.362745047
v -1.17181647 3.52638459 -0.614709616
v -0.521185219 4.42008734 -0.362745076
v -1.23641515 3.52638483 -0.775682867
v -1.11826265 3.52638459 -0.707467556
v -0.0535539985 4.42008734 -0.632732272
v -0.0535540581 4.59693527 -0.632732272
v -0.0535541773 3.52638483 -1.45860803
v 0.0535537601 4.59693527 -0.632732272
v -0.0535540581 3.52638459 -1.32217753
v 0.0535538755 4.42008734 -0.632732153
v 0.0535535812 3.52638483 -1.45860839
v 0.0535535812 3.52638459 -1.32217753
v 0.521185219 4.42008734 -0.362745225
v 0.521185219 4.59693527 -0.362745285
v 1.23641467 3.52638483 -0.775683284
v 0.574739158 4.59693527 -0.269987166
v 1.11826241 3.52638459 -0.707467854
v 0.574739099 4.42008734 -0.269987017
v 1.28996873 3.52638483 -0.682925344
v 1.17181635 3.52638459 -0.614709973
v 0.574739218 4.42008734 0.269987017
v 0.574739218 4.59693527 0.269987047
v 1.28996873 3.52638483 0.682924926
v 0.521185279 4.59693527 0.362745166
v 1.17181635 3.52638459 0.614709735
v 0.52118516 4.42008734 0.362745136
v 1.23641491 3.52638483 0.775683045
v 1.11826253 3.52638459 0.707467794
v 0.0535539091 4.42008734 0.632732213
v 0.0535539091 4.59693527 0.632732272
v 0.0535539091 3.52638483 1.45860803
v -0.0535539091 4.59693527 0.632732272
v 0.0535539091 3.52638459 1.32217753
v -0.0535539091 4.42008734 0.632732213
v -0.0535539091 3.52638483 1.45860803
v -0.0535539091 3.52638459 1.32217753
v 0.658215225 2.7833643 -0.935202837
v -0.658216 1.87731409 -2.04992485
v -0.658215761 2.7833643 -0.935202599
v -0.658215761 2.60226703 -0.935240984
v 0.658214927 1.87731409 -2.04992485
v 0.658215344 2.60226703 -0.935241282
v -0.658216 1.76614404 -1.96274638
v -0.533217847 1.87731409 -2.04992485
v -0.533218145 1.76614404 -1.96274638
v -0.533217907 2.60226703 -0.935240984
v -0.533217907 2.7833643 -0.935202599
v 0.658214986 1.76614404 -1.96274638
v 0.533217847 2.60226703 -0.935241222
v 0.533217549 1.76614404 -1.96274638
v 0.533217669 1.87731409 -2.04992485
v 0.533217728 2.7833643 -0.935202599
v -0.935202599 2.78336477 -0.533217907
v -2.04992485 1.87731445 -0.533217728
v -1.96274602 1.76614451 -0.533217847
v -0.935241163 2.60226774 -0.533218026
v -2.04992485 1.87731457 -0.658215225
v -1.96274602 1.76614451 -0.658215404
v -0.935241163 2.60226774 -0.658215463
v -0.935202718 2.78336477 -0.658215404
v -2.04992485 1.87731457 0.658216
v -0.935202599 2.78336477 0.658215761
v -0.935240984 2.60226774 0.658215761
v -1.96274638 1.76614451 0.658216
v -2.04992485 1.87731445 0.533217967
v -1.96274638 1.76614451 0.533217967
v -0.935240984 2.60226774 0.533217728
v -0.935202599 2.78336477 0.533217728
v 0.935202777 2.78336453 0.658215225
v 2.04992485 1.87731421 -0.658216
v 0.935202599 2.78336453 -0.658215761
v 0.935240984 2.60226703 -0.658215761
v 2.04992485 1.87731421 0.658214986
v 0.935241282 2.60226703 0.658215404
v 1.96274638 1.76614428 -0.658216
v 2.04992485 1.87731421 -0.533217847
v 1.96274638 1.76614428 -0.533218145
v 0.935240984 2.60226703 -0.533217907
v 0.935202599 2.78336453 -0.533217907
v 1.96274638 1.76614428 0.658215165
v 0.935241163 2.60226703 0.533217907
v 1.96274626 1.76614428 0.533217669
v 2.04992485 1.87731421 0.533217669
v 0.935202599 2.78336453 0.533217788
v -1.06053376 1.71381211 -0.576505899
v -1.06053376 1.71381211 -0.617444038
v -1.70436227 1.9764024 -0.617443919
v -1.06057191 1.59716666 -0.617444038
v -1.70436215 1.9764024 -0.57650578
v -1.79986095 1.89869106 -0.617443919
v -1.7998606 1.89869106 -0.57650578
v -1.06057191 1.59716666 -0.576505899
v 0.576505959 1.71381223 -1.06053376
v 0.617444098 1.71381223 -1.06053376
v 0.617444038 1.97640252 -1.70436227
v 0.617444098 1.5971669 -1.06057191
v 0.576505899 1.97640252 -1.70436203
v 0.617444038 1.89869118 -1.79986084
v 0.576505899 1.89869118 -1.79986048
v 0.576505959 1.5971669 -1.06057191
v -0.658215344 2.78336477 0.935202718
v 0.658216 1.87731445 2.04992485
v 0.658215761 2.78336477 0.935202599
v 0.658215761 2.6022675 0.935240984
v -0.658215165 1.87731445 2.04992485
v -0.658215463 2.6022675 0.935241222
v 0.658216 1.76614439 1.96274638
v 0.533217847 1.87731421 2.04992485
v 0.533218145 1.76614439 1.96274638
v 0.533217788 2.6022675 0.935240984
v 0.533217788 2.78336453 0.935202599
v -0.658215225 1.76614439 1.96274626
v -0.533217967 2.6022675 0.935241044
v -0.533217788 1.76614439 1.96274602
v -0.533217669 1.87731421 2.04992485
v -0.533217847 2.78336453 0.935202718
v 1.06053376 1.71381235 0.576506019
v 1.06053376 1.71381235 0.617444158
v 1.70436215 1.97640252 0.617444158
v 1.06057191 1.59716702 0.617444158
v 1.70436215 1.97640252 0.576506019
v 1.7998606 1.89869142 0.617444158
v 1.7998606 1.89869142 0.576506019
v 1.06057191 1.59716702 0.576506019
v 0.492610812 1.48649979 1.34859109
v 0.492610842 1.48649979 0.875202298
v 0.492610842 0.75000006 0.875202298
v 0.492610812 0.75000006 1.64054823
v 0.523610771 1.48649979 1.34859109
v 0.523610771 1.48649979 0.875202298
v 0.523610771 0.75000006 0.875202298
v 0.523610771 0.75000006 1.64054823
v 0.492610812 1.19454265 1.64054823
v 0.523610771 1.19454265 1.64054823
v -0.492610812 1.48649979 1.34859109
v -0.492610812 0.75000006 1.64054823
v -0.492610842 0.75000006 0.875202298
v -0.492610842 1.48649979 0.875202298
v -0.523610771 1.48649979 1.34859109
v -0.523610771 1.48649979 0.875202298
v -0.523610771 0.75000006 0.875202298
v -0.523610771 0.75000006 1.64054823
v -0.523610771 1.19454265 1.64054823
v -0.492610812 1.19454265 1.64054823
v -1.34859109 1.48649979 -0.492610782
v -1.64054835 0.75000006 -0.492610723
v -0.875202417 0.75000006 -0.492610812
v -0.875202417 1.48649979 -0.492610812
v -1.34859109 1.48649979 -0.523610771
v -0.875202417 1.48649979 -0.52361083
v -0.875202417 0.75000006 -0.52361083
v -1.64054835 0.75000006 -0.523610771
v -1.64054835 1.19454265 -0.523610771
v -1.64054835 1.19454265 -0.492610723
v 1.34859109 1.48649979 -0.492610782
v 0.875202417 1.48649979 -0.492610812
v 0.875202417 0.75000006 -0.492610812
v 1.64054835 0.75000006 -0.492610723
v 1.34859109 1.48649979 -0.523610771
v 0.875202417 1.48649979 -0.52361083
v 0.875202417 0.75000006 -0.52361083
v 1.64054835 0.75000006 -0.523610771
v 1.64054835 1.19454265 -0.492610723
v 1.64054835 1.19454265 -0.523610771
v 0.492610931 1.48649979 -1.34859109
v 0.492610931 0.75000006 -1.64054823
v 0.492610872 0.75000006 -0.875202298
v 0.492610872 1.48649979 -0.875202298
v 0.52361089 1.48649979 -1.34859109
v 0.52361089 1.48649979 -0.875202298
v 0.52361089 0.75000006 -0.875202298
v 0.52361089 0.75000006 -1.64054823
v 0.492610931 1.19454265 -1.64054823
v 0.52361089 1.19454265 -1.64054823
v 1.34859109 1.48649979 0.492610872
v 1.64054835 0.75000006 0.492610872
v 0.875202298 0.75000006 0.492610872
v 0.875202298 1.48649979 0.492610872
v 1.34859109 1.48649979 0.52361089
v 0.875202298 1.48649979 0.52361089
v 0.875202298 0.75000006 0.52361089
v 1.64054835 0.75000006 0.52361089
v 1.64054835 1.19454265 0.492610872
v 1.64054835 1.19454265 0.52361089
v -0.492610931 1.48649979 -1.34859109
v -0.492610872 1.48649979 -0.875202298
v -0.492610872 0.75000006 -0.875202298
v -0.492610931 0.75000006 -1.64054823
v -0.52361089 1.48649979 -1.34859109
v -0.52361089 1.48649979 -0.875202298
v -0.52361089 0.75000006 -0.875202298
v -0.52361089 0.75000006 -1.64054823
v -0.52361089 1.19454265 -1.64054823
v -0.492610931 1.19454265 -1.64054823
v -1.34859109 1.48649979 0.492610872
v -0.875202298 1.48649979 0.492610872
v -0.875202298 0.75000006 0.492610872
v -1.64054835 0.75000006 0.492610872
v -1.34859109 1.48649979 0.52361089
v -0.875202298 1.48649979 0.52361089
v -0.875202298 0.75000006 0.52361089
v -1.64054835 0.75000006 0.52361089
v -1.64054835 1.19454265 0.52361089
v -1.64054835 1.19454265 0.492610872
v -1.79986095 1.89869106 0.617444277
v -1.79986095 1.89869106 0.576506376
v -1.06057191 1.59716666 0.576506078
v -1.06057191 1.59716666 0.617444277
v -1.06053376 1.71381211 0.576506078
v -1.70436215 1.9764024 0.617444277
v -1.70436215 1.9764024 0.576506078
v -1.06053376 1.71381211 0.617444277
v -0.617444277 1.89869118 -1.79986095
v -0.576506376 1.89869118 -1.79986095
v -0.576506078 1.5971669 -1.06057191
v -0.617444277 1.5971669 -1.06057191
v -0.576506078 1.71381223 -1.06053376
v -0.617444277 1.97640252 -1.70436215
v -0.576506078 1.97640252 -1.70436215
v -0.617444277 1.71381223 -1.06053376
v 1.79986095 1.89869142 -0.617444158
v 1.79986095 1.89869142 -0.576506257
v 1.06057191 1.59716702 -0.576506078
v 1.06057191 1.59716702 -0.617444277
v 1.06053376 1.71381235 -0.576506078
v 1.70436215 1.97640252 -0.617444277
v 1.70436215 1.97640252 -0.576506078
v 1.06053376 1.71381235 -0.617444277
v 0.617444217 1.89869153 1.79986084
v 0.576506078 1.89869153 1.79986084
v 0.576506078 1.59716713 1.06057191
v 0.617444217 1.59716713 1.06057191
v 0.576506078 1.71381235 1.06053376
v 0.617444217 1.97640264 1.70436215
v 0.576506078 1.97640264 1.70436215
v 0.617444217 1.71381235 1.06053376
v -0.576506078 1.97640264 1.70436215
v -0.576506078 1.71381235 1.06053376
v -0.617444217 1.71381235 1.06053376
v -0.576506078 1.89869153 1.79986084
v -0.617444217 1.97640264 1.70436215
v -0.576506078 1.59716713 1.06057191
v -0.617444217 1.59716713 1.06057191
v -0.617444217 1.89869153 1.79986084
g submesh0
f 1 2 3
f 1 3 4
f 5 1 4
f 5 4 6
f 6 7 5
f 6 8 7
f 9 10 11
f 9 11 12
f 13 9 12
f 13 12 14
f 14 15 13
f 14 16 15
f 17 18 19
f 17 19 20
f 21 17 20
f 21 20 22
f 22 23 21
f 22 24 23
f 25 26 27
f 25 27 28
f 29 25 28
f 29 28 30
f 30 31 29
f 30 32 31
f 33 34 35
f 33 35 36
f 36 35 37
f 36 37 38
f 39 36 38
f 39 38 40
f 41 40 38
f 42 36 39
f 42 33 36
f 41 38 43
f 44 41 43
f 44 43 45
f 38 45 43
f 46 44 45
f 36 47 38
f 33 47 36
f 48 47 33
f 49 47 48
f 50 47 49
f 51 47 50
f 52 47 51
f 53 47 52
f 54 47 53
f 55 47 54
f 38 56 45
f 38 47 56
f 46 45 56
f 56 47 55
f 46 56 55
f 46 55 57
f 57 55 54
f 57 54 58
f 59 58 54
f 56 60 55
f 56 61 60
f 55 60 62
f 55 62 54
f 52 53 63
f 52 63 64
f 51 52 64
f 51 64 65
f 59 54 66
f 59 66 67
f 54 67 66
f 54 53 67
f 59 67 68
f 68 67 53
f 68 53 69
f 70 69 53
f 70 53 52
f 71 70 52
f 71 52 51
f 71 51 72
f 71 72 73
f 51 74 72
f 73 72 74
f 73 74 75
f 51 50 74
f 75 74 50
f 75 50 76
f 77 76 50
f 77 50 49
f 49 50 78
f 49 78 79
f 80 77 49
f 48 49 79
f 80 49 48
f 48 79 81
f 80 48 82
f 80 82 83
f 84 83 82
f 85 82 48
f 84 82 85
f 85 48 33
f 42 84 85
f 42 85 33
f 86 87 88
f 86 89 87
f 89 86 90
f 89 90 91
f 91 90 92
f 91 92 93
f 94 95 96
f 94 97 95
f 97 94 98
f 97 98 99
f 99 98 100
f 99 100 101
f 102 103 104
f 102 105 103
f 105 102 106
f 105 106 107
f 107 106 108
f 107 108 109
f 110 111 112
f 110 113 111
f 113 110 114
f 113 114 115
f 115 114 116
f 115 116 117
f 118 119 120
f 121 118 120
f 118 122 119
f 123 119 122
f 124 123 122
f 123 125 119
f 123 121 125
f 123 126 121
f 121 126 118
f 126 123 124
f 118 126 127
f 118 127 128
f 129 126 124
f 129 127 126
f 129 130 127
f 130 129 131
f 130 132 127
f 122 118 133
f 133 118 128
f 124 122 133
f 129 134 131
f 129 135 134
f 131 134 136
f 135 129 137
f 135 137 138
f 139 136 138
f 131 136 139
f 139 138 137
f 129 140 137
f 129 124 140
f 141 139 137
f 131 139 141
f 141 137 140
f 142 131 141
f 143 141 140
f 143 142 141
f 144 140 124
f 143 140 144
f 145 124 133
f 144 124 145
f 142 146 131
f 130 131 146
f 147 143 144
f 148 144 145
f 147 144 148
f 145 133 149
f 148 145 150
f 150 145 149
f 149 133 151
f 133 128 151
f 143 147 152
f 153 147 148
f 153 152 147
f 143 154 142
f 143 152 154
f 155 148 150
f 153 148 155
f 150 149 156
f 149 151 157
f 156 149 157
f 155 150 158
f 158 150 156
f 159 153 155
f 153 160 152
f 159 160 153
f 159 161 160
f 162 161 159
f 159 155 162
f 162 155 158
f 162 158 163
f 163 161 162
f 158 156 164
f 163 158 164
f 156 157 165
f 164 156 165
f 163 164 166
f 166 161 163
f 166 164 167
f 164 165 167
f 161 166 168
f 166 167 168
f 169 168 167
f 168 169 161
f 170 167 165
f 169 167 170
f 171 165 157
f 170 165 171
f 169 172 161
f 172 169 170
f 161 172 173
f 172 170 173
f 173 170 171
f 161 173 160
f 160 173 174
f 173 171 174
f 160 174 152
f 171 157 175
f 174 171 175
f 175 157 151
f 152 174 176
f 174 175 176
f 152 176 154
f 175 151 132
f 176 175 132
f 154 176 177
f 176 132 177
f 154 177 142
f 132 151 178
f 128 178 151
f 142 177 179
f 130 177 132
f 179 177 130
f 132 178 180
f 127 132 180
f 178 181 180
f 181 127 180
f 178 182 181
f 128 182 178
f 181 183 127
f 128 127 183
f 128 184 182
f 128 183 184
f 142 179 185
f 185 146 142
f 186 130 146
f 179 130 186
f 186 146 187
f 179 186 188
f 146 189 187
f 146 185 189
f 179 188 189
f 179 189 185
f 190 191 192
f 193 192 191
f 190 192 194
f 194 195 190
f 193 196 192
f 195 196 193
f 197 194 192
f 194 197 195
f 195 197 196
f 197 192 196
f 198 199 200
f 201 200 199
f 198 200 202
f 202 203 198
f 201 204 200
f 203 204 201
f 205 202 200
f 202 205 203
f 203 205 204
f 205 200 204
f 206 207 208
f 209 208 207
f 206 208 210
f 210 211 206
f 209 212 208
f 211 212 209
f 213 210 208
f 210 213 211
f 211 213 212
f 213 208 212
f 214 215 216
f 217 216 215
f 214 216 218
f 218 219 214
f 217 220 216
f 219 220 217
f 221 218 216
f 218 221 219
f 219 221 220
f 221 216 220
f 222 223 224
f 225 224 223
f 222 224 226
f 226 227 222
f 225 228 224
f 227 228 225
f 229 226 224
f 226 229 227
f 227 229 228
f 229 224 228
f 230 231 232
f 233 232 231
f 230 232 234
f 234 235 230
f 233 236 232
f 236 234 232
f 235 236 233
f 236 237 234
f 235 237 236
f 234 237 235
f 238 239 240
f 239 241 240
f 238 242 239
f 242 238 243
f 239 244 241
f 245 244 239
f 246 241 244
f 245 246 244
f 246 247 241
f 248 246 245
f 248 247 246
f 242 243 249
f 249 243 250
f 242 249 251
f 249 250 251
f 242 251 252
f 253 251 250
f 253 252 251
f 254 255 256
f 254 256 257
f 258 256 255
f 259 257 256
f 258 259 256
f 259 260 257
f 258 260 259
f 258 261 260
f 261 258 262
f 261 262 263
f 262 264 263
f 262 265 264
f 266 265 262
f 267 264 265
f 266 267 265
f 267 268 264
f 269 267 266
f 269 268 267
f 270 271 272
f 271 273 272
f 270 274 271
f 274 270 275
f 271 276 273
f 277 276 271
f 278 273 276
f 277 278 276
f 278 279 273
f 280 278 277
f 280 279 278
f 274 275 281
f 281 275 282
f 274 281 283
f 281 282 283
f 274 283 284
f 285 283 282
f 285 284 283
f 286 287 288
f 289 288 287
f 286 288 290
f 289 291 288
f 292 286 290
f 292 291 289
f 292 293 286
f 292 289 293
f 294 295 296
f 297 296 295
f 294 296 298
f 297 299 296
f 300 294 298
f 300 299 297
f 300 301 294
f 300 297 301
f 302 303 304
f 303 305 304
f 302 306 303
f 306 302 307
f 303 308 305
f 309 308 303
f 310 305 308
f 309 310 308
f 310 311 305
f 312 310 309
f 312 311 310
f 306 307 313
f 313 307 314
f 306 313 315
f 313 314 315
f 306 315 316
f 317 315 314
f 317 316 315
f 318 319 320
f 321 320 319
f 318 320 322
f 321 323 320
f 324 318 322
f 324 323 321
f 324 325 318
f 324 321 325
f 326 327 328
f 326 328 329
f 330 327 326
f 330 331 327
f 330 332 331
f 330 333 332
f 329 334 326
f 334 330 326
f 333 330 335
f 335 329 333
f 334 335 330
f 335 334 329
f 336 337 338
f 336 338 339
f 340 336 339
f 340 339 341
f 340 341 342
f 340 342 343
f 343 344 340
f 344 343 337
f 344 336 340
f 337 336 345
f 344 345 336
f 344 337 345
f 346 347 348
f 346 348 349
f 350 346 349
f 350 349 351
f 350 351 352
f 350 352 353
f 353 354 350
f 354 353 347
f 354 346 350
f 347 346 355
f 354 355 346
f 354 347 355
f 356 357 358
f 356 358 359
f 360 357 356
f 360 361 357
f 360 362 361
f 360 363 362
f 359 364 356
f 364 360 356
f 363 360 365
f 365 359 363
f 364 365 360
f 365 364 359
f 366 367 368
f 366 368 369
f 370 366 369
f 370 369 371
f 370 371 372
f 370 372 373
f 367 366 374
f 374 366 370
f 373 375 370
f 375 373 367
f 374 370 375
f 375 367 374
f 376 377 378
f 376 378 379
f 380 376 379
f 380 379 381
f 380 381 382
f 380 382 383
f 377 376 384
f 384 376 380
f 383 385 380
f 385 383 377
f 384 380 385
f 385 377 384
f 386 387 388
f 386 388 389
f 390 387 386
f 390 391 387
f 390 392 391
f 390 393 392
f 393 390 394
f 394 389 393
f 394 390 386
f 389 395 386
f 394 395 389
f 394 386 395
f 396 397 398
f 396 398 399
f 400 397 396
f 400 401 397
f 400 402 401
f 400 403 402
f 403 400 404
f 404 399 403
f 404 400 396
f 399 405 396
f 404 405 399
f 404 396 405
f 406 407 408
f 406 408 409
f 407 410 408
f 409 411 406
f 407 412 410
f 409 413 411
f 412 411 413
f 412 413 410
f 414 415 416
f 414 416 417
f 415 418 416
f 417 419 414
f 415 420 418
f 417 421 419
f 420 419 421
f 420 421 418
f 422 423 424
f 422 424 425
f 423 426 424
f 425 427 422
f 423 428 426
f 425 429 427
f 428 427 429
f 428 429 426
f 430 431 432
f 430 432 433
f 431 434 432
f 433 435 430
f 431 436 434
f 433 437 435
f 436 435 437
f 436 437 434
f 438 439 440
f 441 439 438
f 438 440 442
f 441 443 439
f 444 442 440
f 443 441 445
f 444 445 442
f 443 445 444
