# jungle_ruins_stone_pile_b_LOD1
v -1.1401931 -0.0285444353 -1.07345486
v -0.873907447 0.0831879973 -0.992397308
v -0.992249131 -0.0296391714 -1.17622781
v -0.820257425 -0.0299068596 -1.24466491
v -0.652094543 -0.0302323811 -1.25400269
v -1.04148281 0.0416855663 -0.977505028
v -1.25098503 -0.0255791657 -0.913511932
v -0.918145418 0.131042704 -0.912911832
v -0.398978561 0.0433427803 -1.09461808
v -0.233186796 -0.0261969604 -1.16605234
v -0.950953484 0.174792007 -0.775193453
v -1.27103662 -0.0236500967 -0.746426702
v -1.16033256 0.0958795175 -0.538442194
v -1.30689025 0.028193254 -0.383985579
v -1.44789183 -0.030264914 -0.589889348
v -1.44904017 -0.0309524462 -0.355234534
v -1.40737271 -0.0304775331 -0.246972501
v -0.211906433 0.0833514184 -0.978262007
v -0.522315979 0.0738272294 -1.03129697
v 0.205817103 0.0710507557 -1.02074051
v 0.0937580839 0.190608561 -0.8946504
v 0.196672887 -0.0281160306 -1.20734096
v 0.471281946 0.0100145768 -1.12964416
v 0.545904219 -0.0310003087 -1.32737052
v 0.734149158 -0.0312495939 -1.31808436
v -0.324748844 0.181142941 -0.874896526
v -0.523098886 0.176559314 -0.900268078
v -0.42854172 0.194248155 -0.81185329
v -0.132652134 0.249256879 -0.816815019
v -0.836485445 0.172641084 -0.883189678
v -0.836472929 0.202626809 -0.815672755
v -0.124789119 0.203389913 -0.87945205
v 0.903597534 -3.11017029E-05 -1.02168548
v 0.878766894 -0.0311866011 -1.23439872
v 1.12332702 -0.0312394593 -1.01228595
v -0.826409459 0.20781152 -0.744431913
v -0.541338801 0.189390391 -0.754195988
v -0.642084181 0.155823335 -0.614916205
v -0.998598158 0.147367328 -0.635833561
v -1.05027354 0.135217607 -0.527149618
v -0.36772415 0.246987164 -0.627700031
v -0.48354277 0.192465395 -0.613360763
v -0.733075976 0.164922461 -0.481371611
v -1.03376114 0.144862801 -0.317463368
v -0.5896222 0.189567015 -0.439584047
v -0.43918395 0.193552375 -0.222878113
v -0.582539499 0.189133003 -0.144650117
v -0.904262066 0.219390526 -0.26339218
v -0.690923929 0.203726783 -0.287606508
v -0.879674971 0.246424943 -0.147101134
v -0.964175522 0.218769148 -0.0660198927
v -0.340464473 0.234636322 -0.520195305
v -0.815824568 0.244757175 -0.131603852
v -0.835642517 0.236745566 -0.046979215
v -0.823380709 0.16393961 0.178335413
v -0.902969658 0.234324664 -0.0508657843
v -1.14868808 0.123260021 -0.177899465
v -0.981219172 0.188959017 0.0258387756
v -0.984837651 0.0747459084 0.396086574
v -1.31268191 0.019099474 -0.120828852
v -1.12883174 0.0559143573 0.178657979
v -1.29230618 0.00598919624 0.127207711
v -1.46538484 -0.0312695913 0.312931806
v -1.39411068 -0.0303734075 0.539376497
v -1.19729364 0.0131329913 0.398208827
v -1.26368713 -0.0272939578 0.65595144
v -1.04785287 0.0443039536 0.603063881
v -0.985729516 -0.0299831796 0.935854912
v -0.872846067 0.0233795736 0.788830578
v -0.854857743 -0.0311214495 1.15196872
v -0.780029595 0.0776216984 0.669708252
v -0.586892068 0.00691457745 0.920882344
v -0.425143272 0.0249283873 0.971133888
v -0.567198455 -0.0311769769 1.29107559
v -0.777680933 0.14367184 0.498559564
v -0.597719848 0.136073515 0.649779737
v -0.744591177 0.174369439 0.333945215
v -0.314618975 0.118058771 0.750951529
v -0.523421764 0.157979146 0.545318007
v -0.0759287998 0.0256351698 1.03175259
v -0.00431167614 0.118348941 0.816430271
v 0.0884002671 0.0409797616 1.05047166
v -0.123517908 -0.030597806 1.3581816
v -0.0415972881 0.149978086 0.586574793
v -0.455838293 0.15507099 0.445363611
v 0.0248731989 0.146064311 0.729922771
v 0.121986233 0.156683445 0.563645005
v 0.140417472 0.174542829 0.752316415
v 0.248574063 0.16839616 0.859699547
v 0.242486343 0.0523611978 1.05507278
v 0.584789872 0.000240759851 1.11170292
v 0.630663872 -0.0312474836 1.27594888
v 0.835886657 -0.0312889442 1.19067371
v 1.03511322 -0.0313091949 1.03159761
v 0.254846334 0.184555471 0.754093766
v 0.393019468 0.053759627 1.03433132
v 0.368782043 0.174598023 0.841745913
v 1.03838098 -0.00115412474 0.769631922
v 1.3854214 -0.0313010663 0.469888687
v 1.15656149 0.0309626572 0.415018827
v 1.46879172 -0.0312925503 0.0297396835
v 0.538335919 0.0445200056 0.984244823
v 0.521340191 0.155971453 0.652717412
v 0.814794958 0.0330802575 0.811032534
v 0.576892257 0.139143839 0.731632471
v 1.31310344 -0.00102732412 0.0310685728
v 1.45779538 -0.0313018672 -0.230646208
v 1.07267582 0.0367233567 0.568309724
v 1.22551584 0.00746250618 -0.410783827
v 1.09947002 0.0164308306 -0.778320432
v 0.895552814 0.12983495 -0.711244941
v 0.992676318 0.106660366 -0.194909811
v 1.13862038 0.0667752549 -0.143318936
v 0.91451925 0.0553128086 -0.863044083
v 1.20021439 0.0413330942 0.0632960498
v 1.02048564 0.16427967 0.277686983
v 0.985563636 0.168163717 0.398211956
v 0.936179161 0.155166522 0.509274602
v 0.909081221 0.188969269 0.37450096
v 0.674597681 0.138137281 0.65821141
v 0.964110374 0.178245768 0.114168167
v 0.854088545 0.194270954 0.0768556222
v 0.849126816 0.182913855 0.48226577
v 0.596782684 0.16028139 0.5819484
v 0.865398824 0.178091824 0.229989693
v 0.680546463 0.18752113 0.510905683
v 0.497311085 0.155324489 0.501552641
v 0.796857297 0.166131973 0.217495501
v 0.58615613 0.188169628 0.429631412
v 0.768030167 0.212658077 0.136203229
v 0.679567754 0.228507698 0.189539403
v 0.531473398 0.274696082 0.0925079361
v 0.618460357 0.335592806 -0.157486409
v 0.722516537 0.265066475 0.031877134
v 0.35908407 0.137622088 0.57728827
v 0.489235371 0.217814863 0.360321939
v 0.372630149 0.138329521 0.494355768
v 0.656790018 0.321840614 -0.2206662
v 0.123212889 0.189918593 0.441054672
v 0.372881234 0.23364605 0.330633759
v -0.0488616936 0.188755989 0.475340784
v 0.382061452 0.255344838 0.216488644
v 0.0471008308 0.200805083 0.311900854
v -0.177961424 0.207739085 0.401982188
v -0.137253106 0.210645616 0.120628968
v -0.314312875 0.21580705 0.281812578
v -0.243048549 0.204404727 0.346296459
v -0.602091491 0.173048466 0.318671644
v -0.385460049 0.236544028 0.219965667
v -0.633860946 0.169093624 0.12074203
v -0.527476311 0.207447961 0.23677665
v -0.458321512 0.245107919 0.154504314
v -0.692900538 0.173735991 0.075208433
v -0.528613269 0.199091703 -0.0358760059
v -0.380176693 0.250855297 0.0612954684
v -0.458196253 0.234724015 0.00251327502
v -0.394421846 0.228048116 -0.0824806169
v -0.309093624 0.237840444 -0.0233441163
v -0.247525483 0.240979806 -0.107293397
v -0.153151855 0.277835995 -0.253519267
v -0.23614502 0.268375397 -0.33174485
v -0.205345452 0.247655809 -0.45397231
v 0.168581545 0.265207201 -0.106850892
v -0.107396848 0.276787996 -0.314303279
v 0.0791632086 0.269558549 -0.238977045
v 0.410218865 0.284539729 -0.0443072505
v 0.309646457 0.279704899 -0.183269799
v 0.0953860432 0.226111248 -0.49261719
v 0.414388955 0.234402224 -0.62905544
v 0.473196089 0.277865171 -0.38078323
v 0.202986896 0.223138303 -0.606036186
v 0.686116099 0.253825217 -0.568742216
v -0.128302917 0.245381966 -0.553829491
v -0.24982895 0.270044774 -0.633288085
v 0.67856586 0.277263373 -0.404315174
v 0.764485836 0.253999203 -0.33555451
v 0.198512957 0.24628824 -0.688246608
v -0.136675566 0.269940466 -0.730598271
v 0.0872901902 0.252438515 -0.75203675
v 0.313024282 0.261167467 -0.777756929
v 0.0915360972 0.231199577 -0.827135623
v 0.582575798 0.236408159 -0.733811021
v 0.330855697 0.243518919 -0.861670077
v 0.34106642 0.200182095 -0.938131213
v 0.486112058 0.194051266 -0.900846064
v 0.459356993 0.0532511361 -1.01389956
v 0.677013159 0.0429150425 -0.9611848
v 0.821753979 0.035431955 -0.950596929
v 0.888498843 0.149633572 -0.372218162
v 0.878593504 0.142666668 -0.222053677
vn -0.31357801 0.89122951 -0.327686995
vn -0.14308928 0.844017088 -0.516875982
vn -0.21639061 0.88801229 -0.40572086
vn -0.0758551732 0.903746426 -0.421293527
vn 0.00353964255 0.90279144 -0.430063963
vn -0.324083656 0.858297706 -0.397862613
vn -0.457129151 0.864753306 -0.207929522
vn -0.296887189 0.826199293 -0.478803337
vn 0.0676443428 0.881398201 -0.467505574
vn 0.0545196831 0.856963038 -0.512486041
vn -0.365371615 0.920238912 -0.140228584
vn -0.469593138 0.871707141 -0.140031576
vn -0.451440543 0.885481298 -0.110110529
vn -0.433176011 0.900697649 -0.0332015231
vn -0.234238461 0.965506017 -0.113711946
vn -0.371480703 0.925936639 0.0681437626
vn -0.429316789 0.901427448 0.0558178835
vn 0.011318163 0.79780221 -0.602813005
vn -0.00397921819 0.844070256 -0.536217809
vn -0.034884043 0.776858211 -0.628708601
vn -0.065365985 0.771550238 -0.632801473
vn -0.027928412 0.904115736 -0.426374048
vn 0.0306867752 0.958031952 -0.285014212
vn -0.015138383 0.977892458 -0.208559901
vn 0.051815398 0.986344457 -0.156332225
vn -0.0472938307 0.832572877 -0.551892757
vn -0.00361080002 0.906443715 -0.422311217
vn -0.111180454 0.979905903 -0.165599704
vn -0.0605714656 0.912957728 -0.403533608
vn -0.133895084 0.864411712 -0.48462823
vn -0.135420233 0.962045431 -0.236917734
vn -0.0503049791 0.579232752 -0.813608587
vn 0.141308233 0.962425232 -0.231882825
vn 0.103065446 0.982378423 -0.155917242
vn 0.188921213 0.96794486 -0.165503725
vn -0.0747350901 0.98610568 0.148358658
vn 0.0715145171 0.972824812 0.220221758
vn -0.0845135152 0.994559348 0.0609033629
vn -0.170517251 0.97765106 0.122972056
vn -0.224380448 0.974256337 -0.0218675267
vn -0.300106436 0.953904986 -0.00121629122
vn -0.276733607 0.960463107 -0.0304798018
vn -0.104745686 0.974615812 -0.197869688
vn -0.0463447124 0.965325058 -0.256904215
vn -0.0529148988 0.995139003 -0.0830570906
vn -0.210210606 0.976050913 -0.0560007505
vn 0.0421305299 0.999081135 0.00786583405
vn -0.245034054 0.937094331 -0.248621047
vn 0.121140957 0.990728498 -0.0614978485
vn -0.159295455 0.983445108 -0.0863747895
vn -0.393798798 0.91553545 0.0819601938
vn -0.203234136 0.973075569 0.108718835
vn 0.125853151 0.992027819 -0.00645615021
vn 0.100447237 0.969889045 0.221868709
vn -0.0968973041 0.980013728 0.173734948
vn -0.166825414 0.965333819 0.200748473
vn -0.482651472 0.875247002 0.031468112
vn -0.368604094 0.893346906 0.257026076
vn -0.300985932 0.941996098 0.148495257
vn -0.514580846 0.853281677 0.0843622461
vn -0.40702945 0.898690283 0.163348511
vn -0.274677992 0.960704982 0.039973937
vn -0.179275334 0.983335257 0.0302015059
vn -0.153141513 0.984685183 0.0833235607
vn -0.242634431 0.967381835 0.072808072
vn -0.225512847 0.962643683 0.149870455
vn -0.223097786 0.962275982 0.155731544
vn -0.223006368 0.955078781 0.195173427
vn -0.133684054 0.959404528 0.248337299
vn -0.0911874175 0.986777902 0.133993134
vn -0.220131949 0.921078563 0.32117942
vn -0.118612744 0.968672395 0.218184948
vn -0.10014914 0.969163716 0.225148663
vn -0.0544863567 0.986731708 0.152943745
vn -0.280257344 0.932915032 0.226109102
vn -0.128429934 0.943384945 0.305827886
vn -0.155076429 0.985404432 0.0702095032
vn -0.0626007766 0.957598865 0.281221479
vn -0.00810144935 0.994092524 0.108232848
vn -0.0892787501 0.972994089 0.212865993
vn -0.145689175 0.935015738 0.323295653
vn -0.111315347 0.951159358 0.28793174
vn -0.0173489116 0.975179136 0.220736861
vn -0.0394178219 0.981172144 0.189069554
vn -0.029860558 0.992033422 0.122384384
vn -0.153122842 0.981147289 0.117913231
vn 0.0152506167 0.995325565 0.0953643024
vn -0.180338204 0.979471564 0.0900746658
vn -0.0788060874 0.93394351 0.348624498
vn 0.0176714901 0.908012688 0.418569803
vn 0.0993772 0.969732404 0.223032162
vn 0.0459341444 0.983372152 0.175696716
vn 0.0845709071 0.988451481 0.125743866
vn 0.108368821 0.987505913 0.114403673
vn -0.0110732364 0.999915242 -0.00685436884
vn 0.105890796 0.877593279 0.467565089
vn 0.137967318 0.949027836 0.283391982
vn 0.184601218 0.969257534 0.162672028
vn 0.234653294 0.967512608 0.0941124111
vn 0.42414543 0.892900646 0.151093021
vn 0.201453269 0.979493976 0.00284396438
vn 0.225914538 0.913279295 0.338944793
vn 0.0545120761 0.998221219 0.0241399184
vn 0.233148575 0.916240692 0.325798601
vn 0.231730968 0.939683497 0.251586616
vn 0.265610486 0.964079618 0.00126556319
vn 0.191739231 0.980961502 -0.0308292136
vn 0.478518724 0.82284832 0.306496978
vn 0.308599979 0.948025465 -0.0775488541
vn 0.395429134 0.899325907 -0.186678022
vn 0.391239941 0.8874259 -0.243734702
vn 0.329246134 0.940216541 -0.0871203393
vn 0.36625576 0.926421821 -0.0871733204
vn 0.291999012 0.875443876 -0.385142326
vn 0.448999316 0.893303812 0.0201931428
vn 0.450273693 0.891963959 0.0406681485
vn 0.416446358 0.890058458 0.185386971
vn 0.348285615 0.867698848 0.354677081
vn 0.0614684261 0.996964514 0.0477836542
vn 0.156864002 0.932905197 0.32416299
vn 0.337980032 0.936974466 -0.0885900408
vn 0.320205867 0.947043598 0.0240144115
vn 0.107320599 0.976683557 0.185934156
vn -0.0444593132 0.98561877 0.163030922
vn -0.0606011935 0.996481299 0.057899598
vn -0.0148882996 0.985535383 0.168814957
vn -0.118993402 0.97190094 0.203099042
vn 0.0198371913 0.959028423 0.28261447
vn 0.0139046488 0.978208125 0.207160994
vn 0.301628232 0.90891546 0.287911534
vn 0.266317695 0.921911776 0.281342387
vn 0.0202766117 0.978910804 0.203279197
vn 0.109068312 0.99333936 0.0371622629
vn 0.324265122 0.924262166 0.201473713
vn 0.0268646646 0.982182443 -0.1859999
vn 0.0400070697 0.945563495 0.322969258
vn -0.0192329641 0.968605042 0.247859359
vn 0.260366201 0.959145427 -0.110677503
vn 0.0213081259 0.974072576 0.225229964
vn -0.00197728747 0.950624943 0.310335994
vn 0.0098955594 0.971266448 0.23778896
vn -0.0399860442 0.989370942 0.139808387
vn -0.0428134687 0.992531717 0.114226907
vn -0.0484021716 0.979144931 0.197312817
vn 0.0141865024 0.995418191 0.0945590138
vn -0.00522418041 0.977007866 0.213139176
vn -0.460176259 0.701329887 0.544402719
vn -0.0765434504 0.99019134 0.116885692
vn 0.00260233181 0.971336961 0.237692386
vn -0.165970773 0.985217035 0.0424380824
vn -0.280983388 0.945879042 0.162361175
vn -0.204566389 0.975061715 0.0860651881
vn -0.0353609584 0.9959777 0.0823284909
vn -0.238242388 0.967843235 -0.0807475448
vn 0.0126056196 0.999138117 -0.0395497605
vn -0.258600324 0.95404321 -0.151418611
vn -0.189216986 0.977248609 -0.0958230942
vn 0.0276833959 0.999374449 -0.0220089499
vn -0.051344838 0.98694557 0.152650565
vn -0.0623600632 0.996122658 0.0620548874
vn -0.251968652 0.957695365 -0.139036939
vn -0.0796794593 0.992873907 -0.0886147842
vn -0.0646999106 0.99298054 0.0990129188
vn 0.0228195917 0.993344069 -0.112901948
vn 0.00777742965 0.998488665 -0.0544042476
vn -0.139572844 0.979619801 0.144444734
vn -0.093243815 0.995632708 -0.00459928112
vn 0.0106088705 0.996221423 -0.0861990228
vn -0.0176021215 0.99981159 -0.00819224678
vn -0.0822325349 0.983872354 -0.15884918
vn 0.000873317011 0.994442046 0.105282478
vn 0.218924046 0.958110511 -0.184652165
vn 0.0550769679 0.993105471 0.10347978
vn -0.0883160233 0.995403647 0.0370374955
vn 0.383782268 0.914830208 -0.125685155
vn 0.531918168 0.844069779 -0.0678913668
vn 0.0153200766 0.982257426 0.186910495
vn -0.0269220211 0.994486988 -0.101344682
vn 0.0224649739 0.99300307 -0.11593198
vn 0.0136822816 0.998939574 -0.0439598933
vn -0.019967502 0.919212461 -0.393255144
vn 0.18262808 0.955357373 -0.232248396
vn 0.0275757518 0.932147741 -0.361026436
vn 0.0413230583 0.727721155 -0.684627056
vn 0.238887027 0.779706836 -0.578783274
vn 0.14101164 0.795553446 -0.589245677
vn 0.169200405 0.834419131 -0.524515092
vn 0.0925083309 0.944157302 -0.316242129
vn 0.535801351 0.844334543 -0.00401473604
vn 0.5127334 0.858271003 -0.0217996445
vt 0.598245859 -0.0130141713
vt 0.615435958 0.092304334
vt 0.657019734 0.013978757
vt 0.708950162 0.0515676215
vt 0.745563984 0.0973386467
vt 0.581636429 0.0410735086
vt 0.526610732 -0.0203117616
vt 0.579274774 0.10170792
vt 0.742715597 0.204311728
vt 0.809796095 0.23115471
vt 0.533030629 0.121135354
vt 0.461725563 -0.000311285257
vt 0.425418884 0.0927298218
vt 0.348738551 0.0692739338
vt 0.379054427 -0.0146223493
vt 0.311103731 0.0276611224
vt 0.285618603 0.0587624311
vt 0.747250676 0.282410741
vt 0.696842074 0.184212118
vt 0.834993839 0.400360823
vt 0.75627768 0.398728758
vt 0.901437044 0.362177312
vt 0.919165015 0.46322456
vt 0.99149406 0.455188066
vt 1.01826179 0.514682889
vt 0.677060246 0.28030169
vt 0.644227862 0.219673246
vt 0.636400342 0.262730837
vt 0.685034275 0.353351712
vt 0.583039165 0.134798467
vt 0.563415647 0.149054244
vt 0.710735559 0.340152651
vt 0.956017971 0.612805367
vt 1.01688278 0.57243228
vt 0.99158597 0.686773896
vt 0.547493339 0.161511391
vt 0.598590493 0.240072906
vt 0.539629459 0.234229445
vt 0.48343876 0.127367705
vt 0.443818003 0.130426407
vt 0.595721483 0.318675846
vt 0.567701936 0.281699151
vt 0.486630768 0.23092252
vt 0.386977941 0.170076743
vt 0.499579757 0.282389402
vt 0.462878972 0.36352244
vt 0.415996701 0.337531328
vt 0.393586665 0.225906134
vt 0.439410239 0.280994385
vt 0.36688292 0.254137427
vt 0.332624793 0.246800542
vt 0.567831755 0.343328595
vt 0.371721476 0.272059649
vt 0.345916212 0.28124097
vt 0.278604776 0.327738792
vt 0.338526756 0.265459359
vt 0.325148314 0.163755134
vt 0.301078051 0.256120175
vt 0.178780451 0.315645516
vt 0.268350273 0.116873324
vt 0.214117825 0.228613138
vt 0.197790712 0.168044329
vt 0.113384724 0.149577349
vt 0.0606661737 0.212903529
vt 0.136641771 0.248509794
vt 0.0483983755 0.274810433
vt 0.107697174 0.336102664
vt 0.0154209435 0.415273696
vt 0.0821454823 0.423722297
vt -0.0198672898 0.49887237
vt 0.138834611 0.429700047
vt 0.0933372676 0.534217238
vt 0.110837698 0.590426087
vt -0.00865232199 0.609898925
vt 0.19625026 0.400199533
vt 0.185731679 0.478464574
vt 0.249474555 0.37891674
vt 0.2038109 0.578736186
vt 0.22866416 0.480827779
vt 0.154623389 0.703465104
vt 0.238912284 0.680242896
vt 0.1822384 0.754188657
vt 0.0509648174 0.753243446
vt 0.299619794 0.628453255
vt 0.268071592 0.483748823
vt 0.271656871 0.673231006
vt 0.337089211 0.672326088
vt 0.288963705 0.710559726
vt 0.281555802 0.758602142
vt 0.211300224 0.800060391
vt 0.25936541 0.917380333
vt 0.216665983 0.957725048
vt 0.277566016 1.00454938
vt 0.360894382 1.03629482
vt 0.310136765 0.742377877
vt 0.245361686 0.842110991
vt 0.307659149 0.788017273
vt 0.439723045 0.991717458
vt 0.594752192 1.04131234
vt 0.574007869 0.962207079
vt 0.742874384 0.987509251
vt 0.286848187 0.87881577
vt 0.384216458 0.80417788
vt 0.387279034 0.932080507
vt 0.372259647 0.834984303
vt 0.718762994 0.940143943
vt 0.822310686 0.933673739
vt 0.511547089 0.963781238
vt 0.834372282 0.83138895
vt 0.91600132 0.720046639
vt 0.845882654 0.669104457
vt 0.725185752 0.801874399
vt 0.735522389 0.853675365
vt 0.905840635 0.646299005
vt 0.685156226 0.911751509
vt 0.58276093 0.876692533
vt 0.542610407 0.886864781
vt 0.502567053 0.892963648
vt 0.535498977 0.8627069
vt 0.410244197 0.850872517
vt 0.621239901 0.835637212
vt 0.614973187 0.799579024
vt 0.494652063 0.864033461
vt 0.418316394 0.813408732
vt 0.570981622 0.828774095
vt 0.455887467 0.822818756
vt 0.421693802 0.770783424
vt 0.55998075 0.808753371
vt 0.461400956 0.781970143
vt 0.580253124 0.7842803
vt 0.547114015 0.764796734
vt 0.55116713 0.700893998
vt 0.635475516 0.676393747
vt 0.59871316 0.745819926
vt 0.376169086 0.744045258
vt 0.466061443 0.73985219
vt 0.39908877 0.735082984
vt 0.651788235 0.673152447
vt 0.374728352 0.649833322
vt 0.455626041 0.699699879
vt 0.334091783 0.606237292
vt 0.489590436 0.681509018
vt 0.397564054 0.604702353
vt 0.333734751 0.555303812
vt 0.419308901 0.518274665
vt 0.342719793 0.494733602
vt 0.336706996 0.52647388
vt 0.278814673 0.418082029
vt 0.350248545 0.462597936
vt 0.328628212 0.370099336
vt 0.31765765 0.424582988
vt 0.356287956 0.431351364
vt 0.331958026 0.346258342
vt 0.39457345 0.373052329
vt 0.395058393 0.436916322
vt 0.397261202 0.404397547
vt 0.432394654 0.406002104
vt 0.431152761 0.442046136
vt 0.465481609 0.444542438
vt 0.52612257 0.446422428
vt 0.533416748 0.410198182
vt 0.573022485 0.394519269
vt 0.540173531 0.563203692
vt 0.549672961 0.448977441
vt 0.561709046 0.514565229
vt 0.566169977 0.642307758
vt 0.586446881 0.588795066
vt 0.637439966 0.47325322
vt 0.728672266 0.540334463
vt 0.670172453 0.599785686
vt 0.687115788 0.484956592
vt 0.758164644 0.627723455
vt 0.613848448 0.400079459
vt 0.617883086 0.351506323
vt 0.711422801 0.653249502
vt 0.708302259 0.69140625
vt 0.710185051 0.468055755
vt 0.660622716 0.367560893
vt 0.708100557 0.425877154
vt 0.752711058 0.486094922
vt 0.730834961 0.412581474
vt 0.786141753 0.570842624
vt 0.775118113 0.479326457
vt 0.802443624 0.468438059
vt 0.818604469 0.514635205
vt 0.879938364 0.477856487
vt 0.89819479 0.553035378
vt 0.91784668 0.60105598
vt 0.752927661 0.735309124
vt 0.712548733 0.765422583
g submesh0
f 1/1/1 2/2/2 3/3/3
f 3/3/3 2/2/2 4/4/4
f 4/4/4 2/2/2 5/5/5
f 2/2/2 1/1/1 6/6/6
f 7/7/7 6/6/6 1/1/1
f 7/7/7 8/8/8 6/6/6
f 2/2/2 6/6/6 8/8/8
f 9/9/9 5/5/5 2/2/2
f 5/5/5 9/9/9 10/10/10
f 7/7/7 11/11/11 8/8/8
f 11/11/11 7/7/7 12/12/12
f 12/12/12 13/13/13 11/11/11
f 13/13/13 12/12/12 14/14/14
f 12/12/12 15/15/15 14/14/14
f 14/14/14 15/15/15 16/16/16
f 14/14/14 16/16/16 17/17/17
f 9/9/9 18/18/18 10/10/10
f 2/2/2 19/19/19 9/9/9
f 18/18/18 9/9/9 19/19/19
f 10/10/10 18/18/18 20/20/20
f 21/21/21 20/20/20 18/18/18
f 10/10/10 20/20/20 22/22/22
f 22/22/22 20/20/20 23/23/23
f 23/23/23 24/24/24 22/22/22
f 24/24/24 23/23/23 25/25/25
f 19/19/19 26/26/26 18/18/18
f 21/21/21 18/18/18 26/26/26
f 27/27/27 19/19/19 2/2/2
f 27/27/27 26/26/26 19/19/19
f 27/27/27 28/28/28 26/26/26
f 29/29/29 26/26/26 28/28/28
f 27/27/27 2/2/2 30/30/30
f 30/30/30 28/28/28 27/27/27
f 30/30/30 2/2/2 8/8/8
f 8/8/8 31/31/31 30/30/30
f 28/28/28 30/30/30 31/31/31
f 31/31/31 8/8/8 11/11/11
f 32/32/32 21/21/21 26/26/26
f 29/29/29 32/32/32 26/26/26
f 32/32/32 29/29/29 21/21/21
f 33/33/33 25/25/25 23/23/23
f 25/25/25 33/33/33 34/34/34
f 34/34/34 33/33/33 35/35/35
f 11/11/11 36/36/36 31/31/31
f 31/31/31 37/37/37 28/28/28
f 37/37/37 31/31/31 36/36/36
f 38/38/38 37/37/37 36/36/36
f 38/38/38 28/28/28 37/37/37
f 11/11/11 39/39/39 36/36/36
f 36/36/36 39/39/39 38/38/38
f 13/13/13 39/39/39 11/11/11
f 40/40/40 38/38/38 39/39/39
f 39/39/39 13/13/13 40/40/40
f 41/41/41 29/29/29 28/28/28
f 28/28/28 38/38/38 42/42/42
f 42/42/42 41/41/41 28/28/28
f 40/40/40 43/43/43 38/38/38
f 13/13/13 44/44/44 40/40/40
f 43/43/43 40/40/40 44/44/44
f 43/43/43 45/45/45 38/38/38
f 45/45/45 42/42/42 38/38/38
f 45/45/45 46/46/46 42/42/42
f 47/47/47 46/46/46 45/45/45
f 45/45/45 43/43/43 48/48/48
f 43/43/43 44/44/44 48/48/48
f 49/49/49 45/45/45 48/48/48
f 47/47/47 45/45/45 49/49/49
f 44/44/44 50/50/50 48/48/48
f 50/50/50 49/49/49 48/48/48
f 44/44/44 13/13/13 51/51/51
f 44/44/44 51/51/51 50/50/50
f 42/42/42 52/52/52 41/41/41
f 46/46/46 52/52/52 42/42/42
f 47/47/47 49/49/49 53/53/53
f 50/50/50 53/53/53 49/49/49
f 50/50/50 54/54/54 53/53/53
f 54/54/54 47/47/47 53/53/53
f 47/47/47 54/54/54 55/55/55
f 54/54/54 50/50/50 56/56/56
f 56/56/56 50/50/50 51/51/51
f 56/56/56 55/55/55 54/54/54
f 13/13/13 57/57/57 51/51/51
f 57/57/57 13/13/13 14/14/14
f 58/58/58 56/56/56 51/51/51
f 51/51/51 57/57/57 58/58/58
f 58/58/58 55/55/55 56/56/56
f 55/55/55 58/58/58 59/59/59
f 57/57/57 14/14/14 60/60/60
f 60/60/60 58/58/58 57/57/57
f 14/14/14 17/17/17 60/60/60
f 58/58/58 60/60/60 61/61/61
f 58/58/58 61/61/61 59/59/59
f 17/17/17 62/62/62 60/60/60
f 62/62/62 61/61/61 60/60/60
f 62/62/62 17/17/17 63/63/63
f 64/64/64 62/62/62 63/63/63
f 65/65/65 61/61/61 62/62/62
f 62/62/62 64/64/64 65/65/65
f 61/61/61 65/65/65 59/59/59
f 66/66/66 65/65/65 64/64/64
f 65/65/65 66/66/66 67/67/67
f 59/59/59 65/65/65 67/67/67
f 68/68/68 67/67/67 66/66/66
f 67/67/67 68/68/68 69/69/69
f 70/70/70 69/69/69 68/68/68
f 69/69/69 71/71/71 67/67/67
f 59/59/59 67/67/67 71/71/71
f 70/70/70 72/72/72 69/69/69
f 69/69/69 72/72/72 71/71/71
f 72/72/72 70/70/70 73/73/73
f 70/70/70 74/74/74 73/73/73
f 75/75/75 59/59/59 71/71/71
f 72/72/72 76/76/76 71/71/71
f 71/71/71 76/76/76 75/75/75
f 59/59/59 75/75/75 77/77/77
f 55/55/55 59/59/59 77/77/77
f 72/72/72 78/78/78 76/76/76
f 72/72/72 73/73/73 78/78/78
f 79/79/79 75/75/75 76/76/76
f 75/75/75 79/79/79 77/77/77
f 78/78/78 79/79/79 76/76/76
f 73/73/73 74/74/74 80/80/80
f 80/80/80 81/81/81 73/73/73
f 81/81/81 78/78/78 73/73/73
f 82/82/82 80/80/80 74/74/74
f 80/80/80 82/82/82 81/81/81
f 83/83/83 82/82/82 74/74/74
f 79/79/79 78/78/78 84/84/84
f 85/85/85 77/77/77 79/79/79
f 79/79/79 84/84/84 85/85/85
f 86/86/86 78/78/78 81/81/81
f 78/78/78 86/86/86 84/84/84
f 86/86/86 87/87/87 84/84/84
f 88/88/88 87/87/87 86/86/86
f 81/81/81 88/88/88 86/86/86
f 89/89/89 81/81/81 82/82/82
f 88/88/88 81/81/81 89/89/89
f 83/83/83 90/90/90 82/82/82
f 90/90/90 89/89/89 82/82/82
f 83/83/83 91/91/91 90/90/90
f 91/91/91 83/83/83 92/92/92
f 93/93/93 91/91/91 92/92/92
f 94/94/94 91/91/91 93/93/93
f 87/87/87 88/88/88 95/95/95
f 88/88/88 89/89/89 95/95/95
f 96/96/96 89/89/89 90/90/90
f 90/90/90 91/91/91 96/96/96
f 97/97/97 95/95/95 89/89/89
f 89/89/89 96/96/96 97/97/97
f 91/91/91 94/94/94 98/98/98
f 99/99/99 98/98/98 94/94/94
f 98/98/98 99/99/99 100/100/100
f 101/101/101 100/100/100 99/99/99
f 91/91/91 102/102/102 96/96/96
f 102/102/102 97/97/97 96/96/96
f 95/95/95 97/97/97 103/103/103
f 95/95/95 103/103/103 87/87/87
f 98/98/98 104/104/104 91/91/91
f 91/91/91 104/104/104 102/102/102
f 97/97/97 102/102/102 105/105/105
f 105/105/105 103/103/103 97/97/97
f 102/102/102 104/104/104 105/105/105
f 100/100/100 101/101/101 106/106/106
f 107/107/107 106/106/106 101/101/101
f 100/100/100 108/108/108 98/98/98
f 104/104/104 98/98/98 108/108/108
f 107/107/107 109/109/109 106/106/106
f 109/109/109 107/107/107 35/35/35
f 109/109/109 35/35/35 110/110/110
f 111/111/111 109/109/109 110/110/110
f 112/112/112 109/109/109 111/111/111
f 110/110/110 35/35/35 33/33/33
f 109/109/109 113/113/113 106/106/106
f 113/113/113 109/109/109 112/112/112
f 114/114/114 110/110/110 33/33/33
f 114/114/114 111/111/111 110/110/110
f 106/106/106 113/113/113 115/115/115
f 115/115/115 100/100/100 106/106/106
f 116/116/116 115/115/115 113/113/113
f 115/115/115 116/116/116 100/100/100
f 112/112/112 116/116/116 113/113/113
f 117/117/117 108/108/108 100/100/100
f 116/116/116 117/117/117 100/100/100
f 108/108/108 117/117/117 118/118/118
f 118/118/118 104/104/104 108/108/108
f 116/116/116 119/119/119 117/117/117
f 119/119/119 118/118/118 117/117/117
f 120/120/120 104/104/104 118/118/118
f 105/105/105 104/104/104 120/120/120
f 116/116/116 112/112/112 121/121/121
f 116/116/116 121/121/121 119/119/119
f 112/112/112 122/122/122 121/121/121
f 120/120/120 118/118/118 123/123/123
f 118/118/118 119/119/119 123/123/123
f 124/124/124 105/105/105 120/120/120
f 105/105/105 124/124/124 103/103/103
f 121/121/121 125/125/125 119/119/119
f 125/125/125 121/121/121 122/122/122
f 120/120/120 126/126/126 124/124/124
f 123/123/123 126/126/126 120/120/120
f 103/103/103 124/124/124 127/127/127
f 126/126/126 127/127/127 124/124/124
f 125/125/125 128/128/128 119/119/119
f 128/128/128 123/123/123 119/119/119
f 129/129/129 126/126/126 123/123/123
f 127/127/127 126/126/126 129/129/129
f 123/123/123 128/128/128 129/129/129
f 125/125/125 130/130/130 128/128/128
f 130/130/130 125/125/125 122/122/122
f 128/128/128 130/130/130 131/131/131
f 131/131/131 129/129/129 128/128/128
f 129/129/129 131/131/131 132/132/132
f 132/132/132 131/131/131 133/133/133
f 131/131/131 134/134/134 133/133/133
f 134/134/134 131/131/131 130/130/130
f 130/130/130 122/122/122 134/134/134
f 127/127/127 135/135/135 103/103/103
f 103/103/103 135/135/135 87/87/87
f 136/136/136 127/127/127 129/129/129
f 136/136/136 129/129/129 132/132/132
f 135/135/135 127/127/127 137/137/137
f 137/137/137 87/87/87 135/135/135
f 127/127/127 136/136/136 137/137/137
f 134/134/134 138/138/138 133/133/133
f 134/134/134 122/122/122 138/138/138
f 87/87/87 137/137/137 139/139/139
f 137/137/137 136/136/136 140/140/140
f 137/137/137 140/140/140 139/139/139
f 141/141/141 87/87/87 139/139/139
f 87/87/87 141/141/141 84/84/84
f 136/136/136 142/142/142 140/140/140
f 142/142/142 136/136/136 132/132/132
f 140/140/140 143/143/143 139/139/139
f 143/143/143 141/141/141 139/139/139
f 143/143/143 140/140/140 142/142/142
f 84/84/84 141/141/141 144/144/144
f 141/141/141 143/143/143 144/144/144
f 144/144/144 85/85/85 84/84/84
f 142/142/142 145/145/145 143/143/143
f 132/132/132 145/145/145 142/142/142
f 146/146/146 143/143/143 145/145/145
f 143/143/143 146/146/146 144/144/144
f 85/85/85 144/144/144 147/147/147
f 147/147/147 144/144/144 146/146/146
f 147/147/147 148/148/148 85/85/85
f 146/146/146 148/148/148 147/147/147
f 77/77/77 85/85/85 148/148/148
f 145/145/145 149/149/149 146/146/146
f 148/148/148 146/146/146 149/149/149
f 77/77/77 148/148/148 150/150/150
f 150/150/150 55/55/55 77/77/77
f 149/149/149 151/151/151 148/148/148
f 151/151/151 150/150/150 148/148/148
f 151/151/151 149/149/149 152/152/152
f 152/152/152 150/150/150 151/151/151
f 55/55/55 150/150/150 153/153/153
f 153/153/153 47/47/47 55/55/55
f 154/154/154 153/153/153 150/150/150
f 154/154/154 47/47/47 153/153/153
f 150/150/150 152/152/152 154/154/154
f 47/47/47 154/154/154 46/46/46
f 152/152/152 149/149/149 155/155/155
f 145/145/145 155/155/155 149/149/149
f 156/156/156 154/154/154 152/152/152
f 152/152/152 155/155/155 156/156/156
f 157/157/157 154/154/154 156/156/156
f 154/154/154 157/157/157 46/46/46
f 158/158/158 156/156/156 155/155/155
f 155/155/155 145/145/145 158/158/158
f 156/156/156 158/158/158 157/157/157
f 159/159/159 158/158/158 145/145/145
f 159/159/159 157/157/157 158/158/158
f 159/159/159 145/145/145 160/160/160
f 160/160/160 157/157/157 159/159/159
f 161/161/161 46/46/46 157/157/157
f 157/157/157 160/160/160 161/161/161
f 161/161/161 162/162/162 46/46/46
f 52/52/52 46/46/46 162/162/162
f 160/160/160 145/145/145 163/163/163
f 145/145/145 132/132/132 163/163/163
f 160/160/160 164/164/164 161/161/161
f 162/162/162 161/161/161 164/164/164
f 160/160/160 165/165/165 164/164/164
f 163/163/163 165/165/165 160/160/160
f 163/163/163 132/132/132 166/166/166
f 166/166/166 132/132/132 133/133/133
f 166/166/166 167/167/167 163/163/163
f 165/165/165 163/163/163 167/167/167
f 133/133/133 167/167/167 166/166/166
f 168/168/168 162/162/162 164/164/164
f 168/168/168 164/164/164 165/165/165
f 165/165/165 169/169/169 168/168/168
f 167/167/167 170/170/170 165/165/165
f 167/167/167 133/133/133 170/170/170
f 169/169/169 165/165/165 170/170/170
f 171/171/171 162/162/162 168/168/168
f 169/169/169 171/171/171 168/168/168
f 172/172/172 170/170/170 133/133/133
f 169/169/169 170/170/170 172/172/172
f 162/162/162 171/171/171 173/173/173
f 52/52/52 162/162/162 173/173/173
f 174/174/174 52/52/52 173/173/173
f 171/171/171 174/174/174 173/173/173
f 52/52/52 174/174/174 41/41/41
f 175/175/175 172/172/172 133/133/133
f 175/175/175 133/133/133 138/138/138
f 138/138/138 176/176/176 175/175/175
f 176/176/176 172/172/172 175/175/175
f 176/176/176 138/138/138 122/122/122
f 171/171/171 169/169/169 177/177/177
f 174/174/174 171/171/171 177/177/177
f 41/41/41 174/174/174 178/178/178
f 29/29/29 41/41/41 178/178/178
f 174/174/174 179/179/179 178/178/178
f 179/179/179 174/174/174 177/177/177
f 179/179/179 29/29/29 178/178/178
f 180/180/180 177/177/177 169/169/169
f 179/179/179 177/177/177 180/180/180
f 29/29/29 179/179/179 181/181/181
f 181/181/181 179/179/179 180/180/180
f 181/181/181 21/21/21 29/29/29
f 172/172/172 182/182/182 169/169/169
f 182/182/182 180/180/180 169/169/169
f 180/180/180 183/183/183 181/181/181
f 183/183/183 21/21/21 181/181/181
f 180/180/180 182/182/182 183/183/183
f 111/111/111 182/182/182 172/172/172
f 176/176/176 111/111/111 172/172/172
f 21/21/21 183/183/183 184/184/184
f 21/21/21 184/184/184 20/20/20
f 182/182/182 185/185/185 183/183/183
f 183/183/183 185/185/185 184/184/184
f 182/182/182 111/111/111 185/185/185
f 20/20/20 184/184/184 186/186/186
f 185/185/185 186/186/186 184/184/184
f 186/186/186 23/23/23 20/20/20
f 187/187/187 186/186/186 185/185/185
f 187/187/187 23/23/23 186/186/186
f 111/111/111 114/114/114 185/185/185
f 114/114/114 187/187/187 185/185/185
f 187/187/187 188/188/188 23/23/23
f 187/187/187 114/114/114 188/188/188
f 33/33/33 23/23/23 188/188/188
f 33/33/33 188/188/188 114/114/114
f 189/189/189 111/111/111 176/176/176
f 111/111/111 189/189/189 112/112/112
f 189/189/189 176/176/176 190/190/190
f 112/112/112 189/189/189 190/190/190
f 190/190/190 176/176/176 122/122/122
f 122/122/122 112/112/112 190/190/190
