# jungle_scaffolding_scatter_b_col
v 0.324109793 0.211783066 0.469286233
v 0.324109882 0.211783066 -0.628676593
v -0.351156026 0.211783066 -0.628676534
v 0.61483717 -0.0214830544 -1.10139072
v -0.641883254 -0.0214830544 -1.10139072
v 0.61483717 -0.0214830451 0.942000329
v -0.351156026 0.211783066 0.469286233
v -0.641883314 -0.0214830451 0.942000329
v -0.00232376088 0.0507752262 0.991072416
v -0.00232376088 0.108451918 0.991072416
v -0.124329828 0.108451933 1.04533005
v -0.438118339 0.0963675678 0.0121158976
v -0.560124218 0.0963675305 0.0663743988
v -0.438118339 0.038690839 0.0121160122
v -0.124329984 0.0507752076 1.04533088
v -0.560124338 0.0386908241 0.066374965
v -0.106887661 0.00221381662 1.11904299
v -0.106887661 0.0598905012 1.11904275
v -0.313516259 0.0598905124 1.14178276
v -0.28977561 0.0478061587 0.063190341
v -0.496404111 0.0478061251 0.0859311298
v -0.28977561 -0.00987058133 0.0631903857
v -0.313516647 0.00221378799 1.14178348
v -0.49640429 -0.00987057202 0.0859316215
v 0.556185722 0.13128525 1.00175142
v 0.556185722 0.188961938 1.00175142
v 0.448248804 0.188961938 1.08035803
v -0.0749693289 0.176877588 0.135774881
v -0.182905987 0.176877528 0.214382201
v -0.0749693289 0.119200855 0.13577491
v 0.448248804 0.13128522 1.08035874
v -0.182905987 0.119200841 0.214382708
v 0.739645243 0.147908181 1.03145778
v 0.739645243 0.205584884 1.03145754
v 0.630266428 0.205584899 1.10804462
v 0.124692611 0.193500519 0.153901249
v 0.0153138731 0.193500519 0.230488926
v 0.124692611 0.135823801 0.153901294
v 0.630266428 0.147908166 1.1080451
v 0.0153138731 0.135823786 0.230489269
v -0.413349897 0.0592386089 0.105304033
v -0.413349897 0.1169153 0.105303988
v -0.534366012 0.116915315 0.161734343
v -0.86657387 0.104830928 -0.865705609
v -0.987590253 0.104830921 -0.809274793
v -0.86657387 0.0471542366 -0.86570549
v -0.534365952 0.0592386201 0.161734685
v -0.987590253 0.0471542217 -0.809274673
v 0.992380679 0.0592386089 0.848837197
v 0.992380679 0.116915315 0.848837197
v 0.863404036 0.116915315 0.883396208
v 0.296296984 0.104830943 -1.10007012
v 0.167320102 0.104830943 -1.06551099
v 0.296296984 0.0471542366 -1.10007012
v 0.863404036 0.0592386238 0.883396208
v 0.167320102 0.0471542217 -1.06551087
v 0.81713897 0.00781130278 1.21001577
v 0.81713897 0.0654879957 1.21001577
v 0.683612645 0.0654879957 1.21001577
v 0.821039855 0.0534036085 -0.852111578
v 0.687513411 0.0534036085 -0.852111578
v 0.821039855 -0.0042730663 -0.852111578
v 0.683612645 0.00781130278 1.21001577
v 0.687513411 -0.0042730663 -0.852111578
v -0.554637313 0.00781131256 0.881759226
v -0.554637313 0.0654879957 0.881759226
v -0.688163757 0.0654879957 0.881759226
v -0.720308721 0.0534036085 -1.20541811
v -0.853835225 0.0534036085 -1.20541811
v -0.720308721 -0.0042730663 -1.20541811
v -0.688163757 0.00781131256 0.881759226
v -0.853835225 -0.0042730663 -1.20541811
g submesh0
f 1 2 3
f 4 2 1
f 5 2 4
f 5 3 2
f 4 1 6
f 6 5 4
f 1 3 7
f 6 1 7
f 6 8 5
f 8 3 5
f 6 7 8
f 8 7 3
f 9 10 11
f 12 10 9
f 13 10 12
f 13 11 10
f 12 9 14
f 14 13 12
f 9 11 15
f 14 9 15
f 14 16 13
f 16 11 13
f 14 15 16
f 16 15 11
f 17 18 19
f 20 18 17
f 21 18 20
f 21 19 18
f 20 17 22
f 22 21 20
f 17 19 23
f 22 17 23
f 22 24 21
f 24 19 21
f 22 23 24
f 24 23 19
f 25 26 27
f 28 26 25
f 29 26 28
f 29 27 26
f 28 25 30
f 30 29 28
f 25 27 31
f 30 25 31
f 30 32 29
f 32 27 29
f 30 31 32
f 32 31 27
f 33 34 35
f 36 34 33
f 37 34 36
f 37 35 34
f 36 33 38
f 38 37 36
f 33 35 39
f 38 33 39
f 38 40 37
f 40 35 37
f 38 39 40
f 40 39 35
f 41 42 43
f 44 42 41
f 45 42 44
f 45 43 42
f 44 41 46
f 46 45 44
f 41 43 47
f 46 41 47
f 46 48 45
f 48 43 45
f 46 47 48
f 48 47 43
f 49 50 51
f 52 50 49
f 53 50 52
f 53 51 50
f 52 49 54
f 54 53 52
f 49 51 55
f 54 49 55
f 54 56 53
f 56 51 53
f 54 55 56
f 56 55 51
f 57 58 59
f 60 58 57
f 61 58 60
f 61 59 58
f 60 57 62
f 62 61 60
f 57 59 63
f 62 57 63
f 62 64 61
f 64 59 61
f 62 63 64
f 64 63 59
f 65 66 67
f 68 66 65
f 69 66 68
f 69 67 66
f 68 65 70
f 70 69 68
f 65 67 71
f 70 65 71
f 70 72 69
f 72 67 69
f 70 71 72
f 72 71 67
