# jungle_ruins_walls_3m_A_LOD2
v -3.00000024 3.33780008E-08 0.500002503
v 0 3.3377983E-08 0.500002563
v 0 0.500037372 0.500002801
v -3.00000024 0.499600619 0.500002682
v -3.00000024 1.41284811 0.500002861
v 0 1.41372192 0.50000304
v -0.593921483 2.32161212 0.500003397
v 0 2.32161212 0.500003397
v 0 2.85702252 0.500003755
v -0.161524355 2.94961905 0.500003755
v -0.733630657 2.88283849 0.500003755
v -0.910530806 2.82290697 0.500003755
v -1.50000012 2.32161212 0.500003338
v -1.08743095 2.81576228 0.500003755
v -1.55197632 2.85305715 0.500003636
v -2.0431695 2.85501575 0.500003636
v -2.43000007 2.32161212 0.500003278
v -3.00000024 2.32161212 0.500003219
v -2.4392066 2.76854753 0.500003636
v -3.00000024 2.79129696 0.500003517
v 0 1.52587845E-07 1.71661412E-07
v -3.00000024 1.52587887E-07 3.63797873E-14
v -3.00000024 0.499807507 2.24067563E-07
v 0 0.500326574 4.05389414E-07
v 0 1.4143002 6.48498542E-07
v -3.00000024 1.41326201 4.38690165E-07
v -2.4177494 2.32161212 8.96453855E-07
v -3.00000024 2.32161212 8.01086401E-07
v -2.48000717 2.81737733 1.18669925E-06
v -3.00000024 2.81770825 1.09141081E-06
v -2.0431695 2.86460972 1.21703374E-06
v -1.5 2.32161212 9.34600791E-07
v -1.55197632 2.81100154 1.20425261E-06
v -1.08743095 2.81507659 1.2624447E-06
v -0.910530806 2.87454128 1.27662202E-06
v -0.585947633 2.32161212 9.91821253E-07
v -0.733630657 2.87471914 1.31481147E-06
v 0 2.32161212 9.91821253E-07
v -0.161524355 2.87011051 1.30703381E-06
v 0 2.90640974 1.30329363E-06
v -3.00000024 2.81770825 1.09141081E-06
v -3.00000024 2.79129696 0.500003517
v -2.4392066 2.76854753 0.500003636
v -2.48000717 2.81737733 1.18669925E-06
v -2.0431695 2.85501575 0.500003636
v -2.0431695 2.86460972 1.21703374E-06
v -1.55197632 2.85305715 0.500003636
v -1.55197632 2.81100154 1.20425261E-06
v -1.08743095 2.81576228 0.500003755
v -1.08743095 2.81507659 1.2624447E-06
v -0.910530806 2.87454128 1.27662202E-06
v -0.910530806 2.82290697 0.500003755
v -0.733630657 2.88283849 0.500003755
v -0.733630657 2.87471914 1.31481147E-06
v -0.161524355 2.94961905 0.500003755
v -0.161524355 2.87011051 1.30703381E-06
v 0 2.85702252 0.500003755
v 0 2.90640974 1.30329363E-06
v 0 2.85702252 0.500003755
v 0 2.32161212 9.91821253E-07
v 0 2.90640974 1.30329363E-06
v 0 2.32161212 0.500003397
v 0 1.4143002 6.48498542E-07
v 0 1.41372192 0.50000304
v 0 0.500326574 4.05389414E-07
v 0 0.500037372 0.500002801
v 0 1.52587845E-07 1.71661412E-07
v 0 3.3377983E-08 0.500002563
v -3.00000024 1.52587887E-07 3.63797873E-14
v -3.00000024 3.33780008E-08 0.500002503
v -3.00000024 0.499600619 0.500002682
v -3.00000024 0.499807507 2.24067563E-07
v -3.00000024 1.41326201 4.38690165E-07
v -3.00000024 1.41284811 0.500002861
v -3.00000024 2.32161212 0.500003219
v -3.00000024 2.32161212 8.01086401E-07
v -3.00000024 2.79129696 0.500003517
v -3.00000024 2.81770825 1.09141081E-06
v 0 1.52587845E-07 1.71661412E-07
v 0 3.3377983E-08 0.500002563
v -3.00000024 3.33780008E-08 0.500002503
v -3.00000024 1.52587887E-07 3.63797873E-14
v -0.00427856436 3.03854299 0.0733799189
v -0.000545043906 3.04502487 0.345969349
v -0.0218211357 3.03697848 0.140063941
v -0.921209514 2.81910825 0.0128187602
v -0.803629041 2.86730409 -0.0106497211
v -0.797728121 2.82557678 0.0171891097
v -0.887335896 2.9430151 -0.044735048
v -0.811422229 2.91317749 -0.0214778222
v -0.803644538 2.97539544 0.015088181
v -0.813609362 3.01926565 0.0278851259
v -0.960766673 2.9220953 -0.0295174122
v -1.009951 2.8124454 0.0218126532
v -1.01393259 2.98703861 0.0099382652
v -1.07102656 2.96976209 -0.0223733522
v -1.10296357 3.02205801 0.0482997485
v -0.906926394 3.1433444 0.0603261255
v -0.75068891 3.12911105 0.0511832982
v -1.34184825 2.86237884 -0.0268273205
v -1.30798006 2.7899642 0.0168424584
v -1.30588269 2.95716572 -0.0342004001
v -1.35608125 2.82211137 0.00995123386
v -1.48528349 2.7812674 0.0134467836
v -1.35101914 2.9294064 -0.0159946699
v -1.57549822 2.82830501 -0.0238482226
v -1.58495343 2.79816031 0.0206825063
v -1.53272915 2.93962026 -0.0185451172
v -1.44127846 2.98265648 0.00699114427
v -1.31174302 2.9943645 0.0131116174
v -1.4100492 3.07981324 0.0600440502
v -1.46792138 3.07914281 0.0263110828
v -1.46579695 3.10180044 0.0832302049
v -1.36468732 3.08383894 0.149962977
v -1.44919276 3.07882524 0.15064086
v -1.28158307 3.12253284 0.0475835204
v -1.11821008 3.11801791 0.109782055
v -1.16410494 3.07926989 0.0229868591
v -1.42291045 3.04426289 0.20254162
v -1.45970535 3.05792117 0.253684491
v -1.22509933 3.04103541 0.201115534
v -1.30457854 3.02801442 0.278535575
v -1.40581262 3.05699587 0.357682824
v -1.51163232 3.05910707 0.323526233
v -1.50794113 3.05086517 0.381529659
v -1.54400194 3.01995111 0.453925014
v -1.39495897 3.02265549 0.47674644
v -1.36408246 3.04251742 0.426188767
v -1.51866007 2.98750353 0.539095521
v -1.60483682 3.02280521 0.46858573
v -1.61818874 3.0358007 0.514496624
v -1.61746168 2.97968554 0.527825594
v -1.65572226 2.8823688 0.53337872
v -1.43312848 2.88538694 0.540976524
v -1.41260862 2.80170321 0.494225144
v -1.64906704 2.83645773 0.515007675
v -1.6399647 2.81737876 0.474551916
v -1.6087805 2.78912401 0.469188541
v -1.60658514 2.77120233 0.422405988
v -1.3273474 2.81062865 0.405644864
v -1.31794631 2.82284451 0.491241723
v -1.34638476 2.94996762 0.539179146
v -1.26756835 2.97137809 0.526748955
v -1.25438857 2.83849454 0.519049168
v -1.25671899 2.79086208 0.489466548
v -1.21108007 3.00986314 0.40276733
v -1.21604192 2.94172239 0.502611935
v -1.12683094 2.79123688 0.537110746
v -1.10927486 2.76703882 0.490022659
v -0.85152638 2.82929826 0.47423026
v -0.856787682 2.94372773 0.515820801
v -1.21127546 3.04342437 0.350302547
v -1.14509058 3.09039855 0.445369363
v -1.16400993 2.96053314 0.497919083
v -1.04048622 2.8976872 0.515013933
v -1.08741581 2.97996545 0.467441231
v -0.939239502 2.97008228 0.490255207
v -1.04227328 2.99371123 0.43859908
v -0.797295034 2.80366993 0.492594898
v -0.699064136 2.74726152 0.40562892
v -0.611997724 2.82121754 0.52160877
v -0.502307713 2.76483607 0.437237233
v -0.772258341 2.85221553 0.506463051
v -0.50941962 2.87595677 0.530029535
v -0.570807338 2.9666729 0.511700034
v -0.442600995 2.85130572 0.485057831
v -0.429203033 2.81388426 0.429673821
v -0.48072356 2.97382784 0.517474115
v -0.563679636 3.03137541 0.506137252
v -0.588056028 3.05570388 0.486502439
v -0.649160922 3.04391646 0.463374078
v -0.602051556 3.07390809 0.422687024
v -0.763783753 3.07452536 0.374856859
v -0.632604063 3.08850741 0.364994764
v -0.671409667 2.99246049 0.449362338
v -0.759293199 2.92513275 0.503985226
v -0.825301588 2.9345026 0.502863586
v -0.804041982 3.06255126 0.41119352
v -0.873946428 3.01708794 0.463844299
v -0.95880872 3.05814409 0.424236894
v -0.751630902 3.10507345 0.30941993
v -0.72081542 3.12710261 0.29359293
v -0.787106395 3.12889576 0.23286438
v -0.712920904 3.14503145 0.216758564
v -0.686975896 3.13066816 0.164462313
v -0.704301536 3.13370013 0.116942763
v -0.859389007 3.09332943 0.246494502
v -1.03455615 3.12809348 0.169992581
v -0.737681806 3.15210748 0.10154447
v -0.946901739 3.07370138 0.263488084
v -1.05898619 3.13075614 0.0758861899
v -1.047737 3.060184 0.406636089
v -1.03894687 3.07164979 0.263313472
v -1.08930516 3.12746215 0.425499707
v -1.11974287 3.06507206 0.27440387
v -1.1089679 3.05012417 0.18216759
v -1.01695275 3.06283402 0.0143169826
v -1.60658514 2.77120233 0.422405988
v -1.6087805 2.78912401 0.469188541
v -1.65513694 2.75381851 0.49372378
v -1.6399647 2.81737876 0.474551916
v -1.64906704 2.83645773 0.515007675
v -1.71061778 2.86395216 0.503002584
v -1.92615926 2.852144 0.514856935
v -1.75734329 3.02206373 0.504237771
v -1.65572226 2.8823688 0.53337872
v -1.73406649 2.73436403 0.49370262
v -1.71225333 2.99064517 0.496092677
v -1.61746168 2.97968554 0.527825594
v -1.61818874 3.0358007 0.514496624
v -1.63298881 3.07510114 0.415608048
v -1.60483682 3.02280521 0.46858573
v -1.55424166 3.08557916 0.337410867
v -1.54400194 3.01995111 0.453925014
v -1.50794113 3.05086517 0.381529659
v -1.51163232 3.05910707 0.323526233
v -1.69924462 3.04166126 0.352589041
v -1.53658247 3.03068089 0.227980137
v -1.45970535 3.05792117 0.253684491
v -1.50190461 3.09586787 0.120853737
v -1.44919276 3.07882524 0.15064086
v -1.46579695 3.10180044 0.0832302049
v -1.66158688 3.10012317 0.0112343738
v -1.46792138 3.07914281 0.0263110828
v -1.59026456 3.07136083 0.207922265
v -1.72425222 3.07887745 0.136878103
v -1.69534707 3.07282829 0.276013911
v -1.52466536 2.96954036 0.0122260684
v -1.44127846 2.98265648 0.00699114427
v -1.53272915 2.93962026 -0.0185451172
v -1.63397121 2.96262145 -0.00353609025
v -1.57549822 2.82830501 -0.0238482226
v -1.76167679 3.10908222 0.277407438
v -1.68676543 2.9321506 -0.00243996317
v -1.69130766 2.86046219 -0.00834467355
v -1.73521936 3.05770683 0.0111154029
v -1.66802227 2.79483533 0.0185554288
v -1.58495343 2.79816031 0.0206825063
v -1.91588914 3.00242114 -0.0175136272
v -1.89485693 2.82425165 -0.00721852621
v -1.94787729 2.83595824 0.0171146672
v -1.99455619 2.91064453 -0.0216067787
v -2.11252642 2.81856441 0.00414614147
v -1.85477185 3.06990838 0.130876467
v -1.93780923 3.05252862 0.0303086136
v -2.00296235 3.01257753 0.0257094894
v -2.13212061 2.92762589 0.0179892462
v -2.13611007 3.04824424 -0.0103369113
v -2.02790785 3.08286428 0.0497099385
v -1.77160323 3.09897423 0.180797786
v -2.0520606 3.1521883 0.281855285
v -2.03236079 3.10568714 0.15448378
v -2.10615325 3.04427552 0.0553239062
v -2.09883022 3.10441947 0.109806694
v -1.83021307 3.08135557 0.319214225
v -1.87576616 3.09729052 0.469743878
v -2.11099768 3.13861585 0.170933172
v -2.04972076 3.10443068 0.364614815
v -2.33471847 3.13001943 0.142146438
v -2.1333344 3.13756514 0.244864017
v -2.13048339 3.11052966 0.310160488
v -2.24350762 3.09905839 0.0610078499
v -2.42941499 3.09308863 0.0142988889
v -2.38441062 3.12349272 0.216702685
v -2.43109608 3.12395644 0.124833696
v -2.4924953 3.08176661 0.099821575
v -2.46417642 3.0846355 0.185022667
v -2.43161941 3.10689855 0.23299019
v -2.50473022 3.01228595 0.0497253872
v -2.37140346 3.08955216 0.289758652
v -2.42799902 3.08124018 0.289194435
v -2.43350506 3.09153247 0.327506483
v -2.49355531 3.01852441 -0.0014337399
v -2.49918199 2.99629784 0.0305823423
v -2.45076203 2.99670744 -0.0103242779
v -2.30844808 3.0611968 0.00692419522
v -2.36347103 2.9613595 -0.00705661764
v -2.21501708 2.99211669 -0.011476242
v -2.29536819 2.9079113 -0.00757125113
v -2.26649594 2.91092086 -0.00981036387
v -2.2818296 2.86563587 0.0209610313
v -2.25852871 2.83829403 -0.0210019778
v -2.25408363 2.81677341 0.0163607839
v -2.25403643 2.80642438 0.0628396422
v -2.10969877 2.81831837 0.0557505786
v -2.90319753 2.77217221 -0.0281915702
v -2.90140128 2.75713158 0.0123039531
v -2.98071384 2.77291894 0.14771764
v -2.9735477 2.77838445 -0.0373723656
v -3.0174861 2.76687717 0.130415395
v -2.99202013 2.83393455 -0.0333857052
v -2.97936177 2.76787496 0.33286652
v -3.02092671 2.84247708 0.1133283
v -3.05073667 2.82261562 0.38010031
v -3.00084496 2.88599777 -0.00964435469
v -2.93082309 2.9078691 -0.0190148279
v -3.03554082 2.80010104 0.500961304
v -2.93354535 2.77237701 0.456195086
v -2.98991442 2.77471757 0.512658417
v -2.99332809 2.7847383 0.561931074
v -2.99803972 2.89194036 0.561718941
v -3.03724384 2.86788893 0.461515963
v -2.97782469 2.92931747 0.530733526
v -2.97733021 2.94738054 0.50002563
v -3.01925564 2.90732193 0.318301111
v -2.99554181 2.94595003 0.441132128
v -2.99602103 2.99343014 0.452695072
v -3.01882482 3.03008819 0.414103717
v -2.97536206 3.02304506 0.431434929
v -2.98121905 3.08556509 0.421773225
v -3.02195096 2.89053893 0.143396765
v -3.00889397 3.08567834 0.317250013
v -2.97500873 3.09738493 0.381716341
v -3.00555921 3.06117821 0.291513145
v -2.93941426 3.06134391 0.264266133
v -3.01484609 3.0601337 0.184298471
v -2.94211268 3.06012654 0.177802697
v -2.96384907 3.0322299 0.129618675
v -2.97550416 2.96925092 0.119591139
v -2.96604204 3.03343678 0.10666883
v -2.92046952 2.9234457 0.0546895675
v -2.88503695 2.92898822 0.0134731792
v -2.92573237 3.04920292 -0.0041577504
v -2.9143033 2.97485399 -0.00888202246
v -2.25408363 2.81677341 0.0163607839
v -2.25403643 2.80642438 0.0628396422
v -2.29182839 2.80352354 0.026254233
v -2.2818296 2.86563587 0.0209610313
v -2.29536819 2.9079113 -0.00757125113
v -2.328408 2.90111971 -0.0430964157
v -2.31245136 2.82420373 -0.0236783549
v -2.4813745 2.93581843 0.00914895441
v -2.36347103 2.9613595 -0.00705661764
v -2.45076203 2.99670744 -0.0103242779
v -2.49918199 2.99629784 0.0305823423
v -2.50473022 3.01228595 0.0497253872
v -2.49292517 2.90999985 -0.0554558635
v -2.43371725 2.83260036 -0.0330182165
v -2.50869632 2.81027579 -0.0352185778
v -2.65308475 2.79960418 -0.0306114946
v -2.53548479 2.75784326 -0.0103366943
v -2.55655909 2.74259543 0.0118341874
v -2.77918291 2.74774837 0.0087960884
v -2.86333966 2.85047269 -0.023681473
v -2.64388537 2.90494537 0.00283724419
v -2.70110416 3.06140804 0.00779249659
v -2.59676194 3.05162644 0.0172615256
v -2.4924953 3.08176661 0.099821575
v -2.90319753 2.77217221 -0.0281915702
v -2.90140128 2.75713158 0.0123039531
v -2.9735477 2.77838445 -0.0373723656
v -2.99202013 2.83393455 -0.0333857052
v -2.93082309 2.9078691 -0.0190148279
v -2.81737256 2.92230654 -0.00831547752
v -2.88503695 2.92898822 0.0134731792
v -2.84476399 2.96893191 -0.0265370551
v -2.9143033 2.97485399 -0.00888202246
v -2.83743334 3.04240131 -0.0167894736
v -2.92573237 3.04920292 -0.0041577504
v -2.89019394 3.09247398 0.133354977
v -2.96604204 3.03343678 0.10666883
v -2.96384907 3.0322299 0.129618675
v -2.94211268 3.06012654 0.177802697
v -2.75817561 3.15316272 0.00353060546
v -2.88612056 3.080369 0.219844043
v -2.93941426 3.06134391 0.264266133
v -3.00889397 3.08567834 0.317250013
v -2.97500873 3.09738493 0.381716341
v -2.86914635 3.10910416 0.375183046
v -2.98121905 3.08556509 0.421773225
v -2.73998642 3.10742569 0.457412779
v -2.78485036 3.10451174 0.27018103
v -2.66826344 3.110461 0.26161629
v -2.74452162 3.17444825 0.137315929
v -2.69761324 3.17610812 0.23801212
v -2.62852287 3.06720567 0.108650647
v -2.61015749 3.08789158 0.2019988
v -2.46417642 3.0846355 0.185022667
v -2.56713438 3.11424732 0.322301924
v -2.58091116 3.05908155 0.437348008
v -2.47702098 3.11731839 0.32797116
v -2.43161941 3.10689855 0.23299019
v -2.42799902 3.08124018 0.289194435
v -2.43350506 3.09153247 0.327506483
v -2.47634983 3.10397935 0.406803966
v -2.44334126 3.04859161 0.444083631
v -2.48331761 3.06063962 0.454107583
v -2.46363044 3.03619051 0.478510261
v -2.50696635 3.02712202 0.480149835
v -2.4844923 3.01067305 0.492600709
v -2.48927665 2.95063567 0.500916779
v -2.55873203 2.99394917 0.508613408
v -2.48990846 2.87063336 0.502221048
v -2.49262118 2.83534741 0.516426682
v -2.47320199 2.81842351 0.507440805
v -2.49662566 2.71497774 0.483228475
v -2.66207504 3.00977588 0.526916206
v -2.58683777 2.70918632 0.491817206
v -2.54452085 2.73734379 0.418471634
v -2.60181737 2.76386976 0.412049353
v -2.69499636 2.75514531 0.497670472
v -2.87976837 2.76288009 0.455773711
v -2.81178308 2.78214216 0.543922782
v -2.65675163 2.7954793 0.515386105
v -2.64049029 2.89804196 0.524601579
v -2.68832445 3.0151732 0.44132182
v -2.98991442 2.77471757 0.512658417
v -2.93354535 2.77237701 0.456195086
v -2.99332809 2.7847383 0.561931074
v -2.7260921 2.98556209 0.532856047
v -2.92572165 3.02675629 0.462419569
v -2.97536206 3.02304506 0.431434929
v -2.95613647 3.00512075 0.495681822
v -2.99602103 2.99343014 0.452695072
v -2.97733021 2.94738054 0.50002563
v -2.88890886 2.94228053 0.521221399
v -2.97782469 2.92931747 0.530733526
v -2.82007861 2.92737055 0.542357862
v -2.94784117 2.92238879 0.554287374
v -2.99803972 2.89194036 0.561718941
v -0.121313781 2.84802175 0.0148104401
v -0.0145320129 2.87665367 -0.0211831853
v -0.0250393674 2.84662724 0.0162198376
v -0.182076558 2.96833253 -0.0106049897
v -0.0288764946 2.98053789 -0.00311246398
v -0.0166090392 3.0044713 -0.0182875916
v -0.253003985 2.9347775 -0.0225638058
v -0.22791335 2.81104994 0.0275657307
v -0.304481655 2.79232478 0.0271418951
v -0.484627813 2.96099424 -0.0188983921
v -0.50396806 2.81569004 0.0163965262
v -0.129219815 3.09409285 -0.0233762786
v -0.047338713 3.14865994 -0.0260749385
v -0.0520870946 3.16806269 0.0665550902
v -0.292042702 3.06311727 -0.0323013999
v -0.300866991 3.0011251 0.0058968449
v -0.203988343 3.12320876 -0.0252472106
v -0.325936586 3.10376072 0.075078696
v -0.196492001 3.18208861 0.107817046
v -0.367261648 3.10605526 0.116546221
v -0.552416503 3.12904286 0.0496491417
v -0.46019575 3.03872776 0.033158455
v -0.497874439 2.84714079 -0.0313938595
v -0.627061903 2.80251908 0.00770418253
v -0.67558682 2.89622402 -0.0265986957
v -0.588810742 3.00419068 0.0413640477
v -0.741983294 2.8315475 -0.0208151899
v -0.797728121 2.82557678 0.0171891097
v -0.803629041 2.86730409 -0.0106497211
v -0.811422229 2.91317749 -0.0214778222
v -0.728552938 3.00887537 0.0374795236
v -0.803644538 2.97539544 0.015088181
v -0.813609362 3.01926565 0.0278851259
v -0.75068891 3.12911105 0.0511832982
v -0.637831867 2.98455834 -0.00178679824
v -0.718568385 3.08671474 0.0592710376
v -0.704301536 3.13370013 0.116942763
v -0.625568986 3.15021229 0.0845540017
v -0.686975896 3.13066816 0.164462313
v -0.591897488 3.12164187 0.184811965
v -0.517354906 3.1274786 0.125387013
v -0.550071239 3.19111633 0.39225933
v -0.675240695 3.13517356 0.256361991
v -0.712920904 3.14503145 0.216758564
v -0.72081542 3.12710261 0.29359293
v -0.632604063 3.08850741 0.364994764
v -0.559634864 3.0956955 0.340066403
v -0.602051556 3.07390809 0.422687024
v -0.555077493 3.1088562 0.403499633
v -0.57724607 3.09188557 0.45460242
v -0.588056028 3.05570388 0.486502439
v -0.563679636 3.03137541 0.506137252
v -0.364109784 3.07820845 0.517864108
v -0.48072356 2.97382784 0.517474115
v -0.411898196 3.11801386 0.421641558
v -0.215100095 3.09678817 0.509077847
v -0.352586359 3.14582157 0.409160554
v -0.320557714 2.95680189 0.518756986
v -0.431841731 3.19353104 0.397471905
v -0.430277407 3.21498704 0.241703123
v -0.375392437 2.90791035 0.52921927
v -0.442600995 2.85130572 0.485057831
v -0.359265745 2.79975677 0.501865804
v -0.429203033 2.81388426 0.429673821
v -0.273795784 2.78002834 0.437283725
v -0.108465269 2.82770634 0.513146043
v -0.0995910615 2.80349994 0.443879485
v -0.0615718067 2.96597552 0.536825895
v -0.0258616637 2.80649948 0.477181077
v 0.00268676761 2.80173993 0.452503204
v 0.0102464296 2.84018397 0.517792523
v -0.00127746584 2.92206383 0.526410162
v -0.0368266292 2.9897368 0.516822278
v -0.220048666 3.00210834 0.508652627
v -0.0253848266 3.01017714 0.454615474
v -0.0557974242 3.05214429 0.484989911
v 0.00730972271 3.059973 0.47719574
v -0.00960479677 3.1458807 0.478000998
v -0.180090785 3.15742421 0.463223636
v -0.209823146 3.15362787 0.40981108
v -0.028825989 3.16300225 0.462127477
v -0.00304016098 3.14512539 0.424463689
v -0.0367762744 3.15455794 0.364622951
v -0.138706818 3.17628908 0.296479642
v -0.0339768976 3.15516448 0.283292204
v -0.0530953966 3.18530083 0.142694429
v -0.175178528 3.17459488 0.360690415
v -0.204376832 3.18166947 0.230282187
v -0.147880703 3.19045353 0.116694823
v -0.0323849469 3.17730856 0.106084809
v -0.2468431 3.20309114 0.362445265
v -0.297053814 3.19225454 0.404376835
v -0.343815446 3.21059656 0.219661802
v -0.273158729 3.17072868 0.106010415
v -0.346623212 3.2077508 0.124227591
v -0.350364685 3.15594411 0.189130113
v -0.418584287 3.20573211 0.16223219
v -0.485417634 3.18427658 0.13779074
v -2.25403643 2.80642438 0.0628396422
v -2.38681364 2.72818565 0.0113671701
v -2.29182839 2.80352354 0.026254233
v -2.31245136 2.82420373 -0.0236783549
v -2.43371725 2.83260036 -0.0330182165
v -2.50869632 2.81027579 -0.0352185778
v -2.53548479 2.75784326 -0.0103366943
v -2.55655909 2.74259543 0.0118341874
v -0.0145320129 2.87665367 -0.0211831853
v -0.0156349186 2.85928702 0.0942551196
v -0.0250393674 2.84662724 0.0162198376
v 0.00505783083 2.94055128 0.0921891183
v 0.0212403871 2.89820123 0.184505463
v 0.0421209708 2.93731189 0.367794871
v -0.0579853803 2.87006879 0.307681352
v -0.0189630128 2.80261588 0.35800451
v 0.0126306154 2.96248627 0.0153003884
v -0.00427856436 3.03854299 0.0733799189
v -0.0288764946 2.98053789 -0.00311246398
v -0.0218211357 3.03697848 0.140063941
v -0.000545043906 3.04502487 0.345969349
v 0.0151422117 2.98703432 0.419855148
v 0.0453521721 2.84875274 0.435365051
v 0.00128570548 3.0074513 0.00371249369
v -0.0166090392 3.0044713 -0.0182875916
v -0.047338713 3.14865994 -0.0260749385
v -0.0283517446 3.14615583 0.0496803001
v -0.0520870946 3.16806269 0.0665550902
v -0.0323849469 3.17730856 0.106084809
v -0.0151658626 3.15149856 0.126830637
v -0.0530953966 3.18530083 0.142694429
v -0.0113536073 3.11216402 0.209727108
v -0.0339768976 3.15516448 0.283292204
v -0.0195652768 3.12654924 0.371189266
v -0.0367762744 3.15455794 0.364622951
v -0.00304016098 3.14512539 0.424463689
v 0.0123422239 3.09256697 0.466971427
v -0.00960479677 3.1458807 0.478000998
v 0.00730972271 3.059973 0.47719574
v -0.0253848266 3.01017714 0.454615474
v 0.0125645446 2.95871425 0.505263567
v -0.0368266292 2.9897368 0.516822278
v -0.00127746584 2.92206383 0.526410162
v 0.0102464296 2.84018397 0.517792523
v 0.00268676761 2.80173993 0.452503204
v -0.0258616637 2.80649948 0.477181077
v -0.0995910615 2.80349994 0.443879485
v -2.46363044 3.03619051 0.478510261
v -2.4844923 3.01067305 0.492600709
v -2.48927665 2.95063567 0.500916779
v -2.3524394 3.02152419 0.466042548
v -2.44334126 3.04859161 0.444083631
v -2.39189696 2.85490251 0.508173108
v -2.48990846 2.87063336 0.502221048
v -2.47320199 2.81842351 0.507440805
v -2.38888931 3.04402518 0.410173178
v -2.37323332 2.81868196 0.53584367
v -2.49662566 2.71497774 0.483228475
v -2.35804701 3.13269734 0.387235641
v -2.21856451 3.09687614 0.329852104
v -2.29110503 3.1072371 0.44820556
v -2.2559123 3.03377104 0.432706445
v -2.10683179 3.02715254 0.445960462
v -2.1106267 3.06824398 0.338095605
v -2.15837693 2.92009735 0.514797986
v -2.16688037 2.86750793 0.497736543
v -2.11605811 2.98393798 0.493878096
v -2.06931949 2.85088372 0.516261339
v -2.21864533 2.77705121 0.534323275
v -2.01640916 3.09723663 0.482841015
v -1.95698822 3.02025843 0.486929029
v -2.00683522 2.96056461 0.539680481
v -1.86179638 3.02224827 0.536524236
v -2.01786137 2.80446577 0.53505975
v -2.35830522 2.6778872 0.526117444
v -1.8996774 2.79735732 0.543687642
v -2.00337458 2.74346948 0.526282549
v -1.86079109 2.7253685 0.538884699
v -1.90422523 2.69607782 0.44139275
v -1.98565996 2.71999407 0.492320389
v -2.32785559 2.66139317 0.48631686
v -2.54452085 2.73734379 0.418471634
vn 0 -3.81774697E-07 1
vn 0 -4.5772947E-07 1
vn 0 -3.54116878E-07 1
vn 0 -2.95314067E-07 1
vn 0 -3.59756001E-07 1
vn 0 -3.60672374E-07 1
vn 0 -4.88322428E-07 1
vn 0 -5.09693564E-07 1
vn -3.67596925E-07 -6.41232646E-07 1
vn 0 -4.3841564E-07 1
vn 1.15786321E-07 -5.14942656E-07 1
vn 0 -6.54113364E-07 1
vn 0 -5.72473596E-07 1
vn 0 -6.96941299E-07 1
vn -1.07145048E-07 -5.84716474E-07 1
vn 0 -7.03260184E-07 1
vn 0 -5.84553334E-07 1
vn -2.00773485E-07 -5.33389084E-07 1
vn 0 -7.6887568E-07 1
vn -2.3372202E-07 -7.30964018E-07 1
vn 0 4.6715104E-07 -1
vn 0 4.48307787E-07 -1
vn 0 3.41632415E-07 -1
vn 0 3.66571214E-07 -1
vn 0 3.81296388E-07 -1
vn 1.01140984E-07 3.64380611E-07 -1
vn 0 4.9936267E-07 -1
vn 1.63790972E-07 4.92089384E-07 -1
vn 0 5.97360156E-07 -1
vn 1.83622063E-07 5.85217776E-07 -1
vn 0 5.75977651E-07 -1
vn 0 5.50793459E-07 -1
vn 0 5.59218449E-07 -1
vn 0 6.97326982E-07 -1
vn 0 6.74709668E-07 -1
vn 0 5.24454833E-07 -1
vn 1.03163259E-07 6.11501264E-07 -1
vn 0 4.95231234E-07 -1
vn 0 5.62958405E-07 -1
vn -1.42850141E-07 5.32615502E-07 -1
vn 0.000635873352 0.998607576 0.0527490675
vn 0.0404766053 0.997789383 0.0527058467
vn -0.0335496068 0.994436383 0.0998531729
vn -0.0394356325 0.995423377 0.0870461687
vn -0.0462223478 0.998353481 0.0339690745
vn 0.0421594642 0.998927057 0.0191669408
vn 0.0407203101 0.995654821 -0.0837454349
vn 0.0512907803 0.995169699 -0.083704643
vn 0.0462484248 0.998928964 -0.00136998435
vn -0.0968413204 0.995298922 -0.00136500597
vn -0.265880048 0.960805357 0.0784917623
vn -0.134744883 0.985638678 0.101784855
vn -0.135567337 0.990761578 -0.00358876656
vn 0.00352445943 0.999861956 -0.0162360836
vn 0.0245610457 0.98729378 -0.156996071
vn -0.0441001914 0.986630857 -0.156890601
vn 0.495524168 0.86438781 0.0853789747
vn -0.218250707 0.97116673 0.095925957
vn 1 0 0
vn 1 0 0
vn 1 0 0
vn 1 0 0
vn 1 0 0
vn 1 0 0
vn 1 0 0
vn 1 0 0
vn 1 0 0
vn 1 0 0
vn -1 0 0
vn -1 0 0
vn -1 0 0
vn -1 0 0
vn -1 0 0
vn -1 0 0
vn -1 0 0
vn -1 0 0
vn -1 0 0
vn -1 0 0
vn 0 -1 -2.38418608E-07
vn 0 -1 -2.38418608E-07
vn 0 -1 -2.38418579E-07
vn 0 -1 -2.38418579E-07
vn 0.99082458 0.134385958 0.0143923536
vn 0.959647179 0.277622521 -0.0447543189
vn 0.993783057 0.0848765597 -0.0720501691
vn -0.0481350534 -0.413325489 -0.909310222
vn 0.028689228 -0.440987468 -0.897054613
vn 0.058249671 -0.548329234 -0.834231377
vn -0.0220761392 0.184994355 -0.982491553
vn 0.346603274 0.161630169 -0.923981488
vn 0.439304709 0.373772025 -0.816887915
vn 0.0265188925 0.366828352 -0.9299106
vn -0.134275049 -0.241390288 -0.961093664
vn 0.0242039021 -0.30534634 -0.951933682
vn 0.0170869939 0.445378333 -0.895179391
vn 0.0631793886 0.0718598217 -0.995411813
vn -0.005361869 0.564710021 -0.825271964
vn -0.0137905385 0.629944921 -0.776517391
vn 0.0214109309 0.568250537 -0.822577
vn -0.0319387726 -0.291383356 -0.956073046
vn 0.037981648 -0.480499327 -0.876172245
vn -0.0279585775 0.274453491 -0.96119386
vn -0.00389880245 -0.222737879 -0.974870563
vn 0.0898439735 -0.486100376 -0.869272411
vn -0.0984386951 0.0423202105 -0.994242847
vn 0.104670748 -0.200631723 -0.974059045
vn -0.177016348 -0.797169626 -0.577222466
vn 0.10900069 -0.0112453038 -0.993978024
vn 0.0596281514 0.445728481 -0.893180072
vn -0.0643882453 0.462119699 -0.8844769
vn -0.011831969 0.755334198 -0.655233026
vn 0.432270914 0.498374522 -0.751508176
vn 0.17129831 0.981804252 -0.0819601864
vn -0.0621768609 0.899455667 0.432566196
vn 0.0360548645 0.911554337 0.409595788
vn -0.136505276 0.909701049 -0.392186642
vn -0.0904580355 0.983577251 0.156183109
vn 0.247085586 0.356645137 -0.90097338
vn 0.170325026 0.949899912 0.262067825
vn 0.185339704 0.981301963 -0.0519199371
vn -0.0339585952 0.925598145 0.376981407
vn 0.0652296096 0.996678591 0.0487540513
vn 0.115606435 0.989856839 0.0825749636
vn 0.00233544968 0.99851197 0.0544822067
vn 0.0178261548 0.947290838 0.319878757
vn -0.0157260969 0.941753685 0.335935533
vn 0.0343421139 0.808176041 0.587938845
vn 0.185581043 0.959258795 0.213031113
vn 0.0707966387 0.373249799 0.925025642
vn 0.322427243 0.943355858 0.0782324374
vn 0.276978701 0.823205471 0.495596141
vn -0.123348489 0.143306613 0.981961429
vn -0.0246990267 -0.208323523 0.977748036
vn 0.0677616745 -0.170998335 0.982938468
vn 0.109850906 -0.882044017 0.458182454
vn -0.0205428526 -0.612357676 0.7903139
vn -0.10445483 -0.832882941 0.543502748
vn -0.0447285548 -0.707077563 0.705719829
vn 0.0717315152 -0.972978055 0.219473034
vn 0.165618435 -0.984349072 0.0602283739
vn 0.0399155542 -0.614873469 0.787614942
vn -0.0414790623 0.187668145 0.981356263
vn 0.294281125 0.585796595 0.755142927
vn -0.107965611 -0.105711401 0.988518298
vn -0.2648848 -0.579486489 0.77073437
vn -0.241699174 0.916345537 0.31920594
vn 0.128734097 0.420529842 0.898099244
vn 0.0347530767 -0.281996161 0.958785951
vn 0.135440633 -0.85980159 0.49233824
vn 0.0898766741 -0.410904825 0.907237291
vn 0.151133612 -0.0540730432 0.987033248
vn -0.419906706 0.907053709 0.0305272397
vn -0.357757568 0.659017444 0.661593199
vn 0.036011558 0.308819354 0.950438797
vn -0.0507669523 0.315532118 0.9475559
vn 0.17817685 0.487582445 0.854702473
vn -0.133415997 0.526383519 0.839714646
vn 0.0368614309 0.599273205 0.799695492
vn -0.159295559 -0.710899413 0.685016096
vn -0.0175361149 -0.844617367 0.535083115
vn 0.00356519502 -0.68859309 0.725139141
vn 0.0996757895 -0.779876888 0.617945552
vn -0.0991390124 -0.0854042619 0.991401732
vn 0.151599497 -0.175239414 0.972784102
vn -0.141912401 0.204263762 0.968574882
vn 0.409165233 -0.48681885 0.771745563
vn 0.499287605 -0.657084346 0.56475842
vn 0.11046169 0.0834997222 0.990366578
vn -0.279145479 0.112737782 0.953607857
vn -0.405652553 0.40976429 0.817030728
vn -0.420626968 0.491273284 0.762708008
vn -0.150631323 0.907598913 0.391885757
vn -0.0743665323 0.900329471 0.428808272
vn -0.0854963437 0.936574042 0.33988139
vn -0.16723749 0.551535845 0.817214668
vn 0.0114896158 0.44455263 0.895679116
vn 0.137435496 0.524162292 0.840455472
vn 0.0466350801 0.834046543 0.549719453
vn 0.0796906278 0.622896492 0.778234839
vn -0.0663527101 0.925566673 0.372724533
vn -0.239432156 0.871790349 0.427380204
vn -0.236437619 0.848759174 0.472974598
vn -0.104273856 0.964537978 0.242473632
vn -0.235152394 0.964963675 -0.116397113
vn -0.0301327631 0.999379992 -0.0182135645
vn 0.268135428 0.954051018 0.133753255
vn -0.188873813 0.851922631 0.488420308
vn -0.178633839 0.953917921 0.241102993
vn 0.0571939573 0.997634649 0.0381297171
vn -0.0620068535 0.956196547 0.286082745
vn -0.222068831 0.912976921 -0.342284441
vn 0.464980125 0.812924147 0.350639313
vn -0.0869388133 0.990631282 0.105315149
vn 0.0938883573 0.965759933 0.241852596
vn -0.286949813 0.921212375 -0.262730777
vn -0.245673776 0.896828771 0.367889434
vn -0.0961878523 0.335516125 -0.937110901
vn 0.672499716 -0.680029929 0.292067468
vn 0.648641765 -0.402981907 0.645654321
vn 0.1209464 -0.120127864 0.985363483
vn 0.815529108 -0.0202191379 0.578362882
vn -0.101067968 -0.286391944 0.952766955
vn -0.0136603564 -0.0320536047 0.999392867
vn 0.110963479 0.0172470566 0.993674815
vn 0.291377246 0.436443001 0.851244271
vn -0.401782304 0.0193680301 0.915530324
vn 0.122091293 -0.276111305 0.953339517
vn -0.10704264 0.590569496 0.799856007
vn -0.292301327 0.187232107 0.937818766
vn -0.32489261 0.736764967 0.592977405
vn -0.192425132 0.936756968 0.292333603
vn 0.481150329 0.783767879 0.39268586
vn 0.142165497 0.988210797 0.0568183698
vn 0.162918821 0.865704238 0.473300785
vn 0.264674962 0.873176634 0.409279585
vn 0.236134663 0.943571985 -0.232189953
vn -0.0159511101 0.961637676 0.273858339
vn 0.115457483 0.979664922 0.164092332
vn -0.313646644 0.939506233 0.137672976
vn -0.054673478 0.973820686 0.220644742
vn 0.181398362 0.956966341 0.226517513
vn 0.0622156784 0.991779506 -0.111815199
vn -0.0903720111 0.822130144 -0.56208092
vn 0.0934970751 0.465837777 -0.879916728
vn 0.128834814 0.98937422 0.0673823804
vn -0.0305262413 0.999072313 -0.0303764734
vn 0.0414645299 0.994818032 0.0928323865
vn 0.0471083894 0.239091828 -0.969853461
vn -0.0979194716 0.236728385 -0.966628969
vn -0.0893011615 0.339285582 -0.936435103
vn -0.0153972227 0.121764891 -0.992439508
vn -0.122687869 -0.115912512 -0.985653162
vn 0.213519081 0.964201808 0.157240093
vn 0.0251901336 0.100062922 -0.994662225
vn -0.0098904334 -0.108234994 -0.994076133
vn -0.06492313 0.606694758 -0.792279303
vn -0.0567832179 -0.458156586 -0.887055993
vn 0.0474547558 -0.831818461 -0.553015471
vn -0.0401653834 0.220382929 -0.974586129
vn -0.0325066037 -0.33642295 -0.941149771
vn -0.118222348 -0.596295655 -0.794011891
vn -0.081324935 0.0167436711 -0.996547043
vn 0.0208671279 -0.250192434 -0.967971206
vn 0.0364100374 0.943471372 -0.329448044
vn 0.00102089974 0.866258562 -0.499594927
vn -0.128786311 0.311883628 -0.941351593
vn 0.040352799 0.0337133333 -0.998616576
vn 0.202991903 0.476275563 -0.85554415
vn 0.0325508527 0.845993221 -0.532199144
vn 0.117666095 0.959952712 -0.254254788
vn 0.0736661106 0.995276451 0.0632303208
vn 0.12611112 0.943895638 -0.305216491
vn 0.319045484 0.781778514 -0.535753906
vn 0.0797638819 0.893314481 -0.442297459
vn 0.175436884 0.945362508 0.274793863
vn 0.153530091 0.91501981 0.373051286
vn 0.0697556213 0.962466776 -0.262282431
vn -0.10367687 0.952799499 0.285349399
vn -0.0252596363 0.995077312 -0.0958283469
vn -0.10649243 0.978456497 0.176867977
vn -0.157144278 0.845280945 0.510691404
vn 0.0806329697 0.915525019 -0.394096732
vn -0.151300222 0.74958235 -0.644387007
vn -0.117280096 0.977453113 0.175586939
vn -0.220396489 0.974231899 -0.047933124
vn -0.64432013 0.716284454 -0.267933011
vn -0.531767488 0.825596571 0.188715398
vn -0.263973832 0.947687984 0.17945832
vn -0.776548386 0.529272735 -0.341823041
vn -0.087378405 0.991272271 0.0987126827
vn -0.145165056 0.978424788 0.147010133
vn -0.378573418 0.915484786 0.136271164
vn -0.649022877 0.389356911 -0.653582752
vn -0.805756748 -0.410688698 -0.426720917
vn -0.0102487244 0.164619207 -0.986303985
vn -0.04888485 0.0888700411 -0.994842947
vn 0.0106242737 0.0935296789 -0.995559812
vn 0.0440938883 -0.0082851015 -0.99899298
vn -0.0276696514 -0.0772809237 -0.996625423
vn 0.0711291954 0.0116871102 -0.997398734
vn -0.849976122 -0.217454344 -0.479848087
vn -0.0285057034 -0.157991469 -0.987028956
vn -0.116921395 -0.930000663 -0.348465294
vn 0.0153008709 -0.985835552 -0.16701521
vn 0.0816714838 -0.996616662 -0.00922545325
vn -0.154742554 -0.985879362 -0.0640036389
vn -0.591690183 -0.763937831 -0.257491201
vn 0.137851179 -0.990015149 -0.0294463709
vn -0.484981567 -0.861557961 -0.15003632
vn -0.717391789 -0.686843991 -0.116594955
vn -0.952959061 -0.112761125 -0.281342983
vn -0.489550561 -0.86823684 0.080654487
vn -0.989897966 -0.0206907801 -0.140263423
vn -0.960053563 -0.278817952 -0.0236185435
vn -0.871918023 0.306995511 -0.381461293
vn -0.239319414 0.838922381 -0.48881039
vn -0.82417208 -0.511627376 0.242853373
vn -0.225654989 -0.970332623 0.0868011639
vn -0.44293642 -0.878550649 -0.178762466
vn -0.829285204 -0.182637066 0.528137982
vn -0.89198947 0.284656703 0.351177096
vn -0.942886472 0.30381614 0.136604488
vn -0.811738491 0.543049872 0.214889482
vn -0.869107485 0.413072497 0.272072107
vn -0.983453333 0.179616734 -0.0236070361
vn -0.964690924 0.185513169 0.186965764
vn -0.871043205 0.0409509502 0.489496469
vn -0.978772044 0.114771709 0.169801742
vn -0.294662058 0.359946162 0.885219216
vn -0.776303172 0.518000185 0.359206349
vn -0.983282506 0.155315116 -0.0950405523
vn -0.94154197 0.324989796 -0.0887710229
vn -0.567046285 0.809723914 0.151015326
vn -0.93539077 0.348726243 -0.0586004555
vn -0.0130039658 0.999338925 -0.0339476913
vn -0.818524241 0.565308273 -0.102198973
vn -0.0100008547 0.993538558 -0.113053456
vn -0.610808611 0.471183032 -0.636317074
vn -0.765877426 0.353458136 -0.537121117
vn -0.909973621 -0.139480844 -0.390503764
vn -0.667890728 0.440756053 -0.599713385
vn -0.755833685 0.203138962 -0.622454762
vn -0.920520842 -0.196530446 -0.337664127
vn -0.933167994 -0.229823187 -0.276367337
vn -0.0239287578 -0.55346936 -0.83252579
vn 0.274607211 -0.938513458 -0.209244609
vn 0.559588015 -0.325274289 -0.762271523
vn 0.587893963 -0.162176326 -0.792514801
vn 0.492805749 0.291650832 -0.819806278
vn 0.19473736 0.15799956 -0.968046188
vn 0.290362537 -0.178759307 -0.940071642
vn -0.0125721069 0.547797978 -0.836516201
vn -0.101678208 -0.154202774 -0.98279345
vn -0.23740457 -0.185592115 -0.95351702
vn -0.817264974 -0.0368293785 -0.575083971
vn 0.462211102 0.495054066 -0.735719025
vn -0.0598987341 0.394084662 -0.917120218
vn 0.0633024946 -0.232899755 -0.970438361
vn 0.0082118893 -0.247036263 -0.968971372
vn -0.0695498586 -0.124230087 -0.989812911
vn -0.0406959988 -0.526796758 -0.849016488
vn -0.0652075112 -0.664606452 -0.744342804
vn -0.0482874513 -0.40913108 -0.911197066
vn 0.0722098351 0.0641878173 -0.995321929
vn -0.0386261865 0.190867037 -0.980855644
vn 0.271783352 0.241406754 -0.931588173
vn 0.0821085945 0.776581407 -0.624643564
vn -0.00388219999 0.968553722 -0.248774037
vn 0.168848157 -0.251915365 -0.952905476
vn -0.0816887915 -0.935474157 -0.343824297
vn 0.0816881433 0.0640088916 -0.994600415
vn 0.0602871254 0.112871557 -0.99177891
vn 0.0582308769 0.205401301 -0.97694391
vn 0.0899728537 0.0847570673 -0.992331147
vn -0.246768326 0.26917541 -0.93094039
vn 0.0650619045 -0.113763653 -0.991375148
vn -0.205124274 -0.0936324075 -0.974246919
vn -0.261608839 0.513426781 -0.817284405
vn -0.185833454 0.843343019 -0.504220605
vn -0.514647782 0.855490327 -0.0572189242
vn -0.596462846 0.799312413 -0.0730184913
vn -0.631313562 0.774420083 -0.041433461
vn -0.488641173 0.872407317 -0.0116353687
vn -0.0328007601 0.843744993 -0.535740972
vn -0.242496043 0.969415128 -0.0378136337
vn -0.669923246 0.358177125 -0.650316894
vn -0.0947945714 0.980363548 -0.172920048
vn -0.0991303697 0.992872953 -0.0661541298
vn -0.0808267072 0.996717513 0.00460930727
vn -0.195826575 0.704915643 0.681722879
vn 0.0591353551 0.643106937 0.763489723
vn -0.173536956 0.981433332 0.0816917121
vn 0.11426758 0.993433475 0.00572903454
vn -0.0476199128 0.998855948 0.0043754559
vn 0.125955582 0.933923364 0.334547937
vn 0.236997589 0.954697251 -0.179959014
vn -0.000533797371 0.979121089 -0.20327726
vn -0.0178047866 0.986781776 -0.161073923
vn 0.00341591588 0.997665167 0.0682095662
vn 0.0905226469 0.717972815 0.690159857
vn 0.0856264234 0.994368374 -0.0624473989
vn -0.0899211019 0.98443836 -0.150980964
vn 0.677835822 0.7079916 0.198208094
vn 0.597509742 0.794439614 0.108847708
vn 0.136272758 0.898002803 0.418354779
vn 0.581430197 0.681764722 0.443999767
vn -0.00328907045 0.724502563 0.689264238
vn 0.0715569258 0.709982455 0.700574517
vn -0.0217871927 0.592538893 0.805247128
vn -0.297077119 0.284131944 0.911599815
vn 0.151907802 0.0980041102 0.983523905
vn 0.190956041 0.366173863 0.910742939
vn 0.466395319 0.214935601 0.858066499
vn 0.12166515 -0.0943908989 0.988072813
vn 0.250610232 -0.213765368 0.944192231
vn 0.116266958 -0.595185459 0.795132935
vn 0.0605795942 0.160283253 0.985210359
vn -0.107931599 -0.761758029 0.638807893
vn -0.150428653 -0.890802324 -0.428768665
vn -0.224387884 -0.909209251 -0.350697309
vn -0.0417119078 -0.984456956 0.170600727
vn -0.0220576152 -0.984278142 0.175242543
vn 0.0855117589 -0.176827908 0.98052007
vn 0.0873359591 -0.194825426 0.976942003
vn 0.0894876048 -0.0118591208 0.995917261
vn 0.0293337647 0.271595687 0.961964309
vn 0.00128813216 -0.980028749 0.198851496
vn -0.173375309 -0.975884318 -0.132630259
vn 0.0935398266 -0.228921369 0.968940258
vn 0.0867054686 0.145799354 0.985507369
vn -0.086182408 0.561091244 0.82325536
vn -0.557036161 0.439266443 0.70480895
vn -0.240563482 0.564526916 0.789581299
vn -0.689810932 0.526633441 0.496807933
vn -0.326889038 0.443947077 0.83429879
vn -0.11842306 0.422699243 0.898499489
vn -0.155780315 0.838550985 0.522077441
vn 0.0824838057 0.0415752307 0.995724797
vn 0.0882178098 0.0602594614 0.994276822
vn 0.0942181647 0.0867281631 0.991766751
vn -0.0976309031 -0.331068188 -0.938542545
vn -0.0785308555 -0.155267805 -0.984745979
vn -0.00212244666 -0.779515743 -0.626379073
vn 0.0585838966 -0.095848158 -0.993670464
vn 0.0493780971 -0.00667803828 -0.998757839
vn -0.00253648986 -0.14537029 -0.989374101
vn 0.014058752 -0.175102279 -0.984449923
vn 0.0513358675 -0.366055548 -0.929175973
vn -0.00813891087 -0.300134838 -0.953862011
vn -0.01384761 0.18936567 -0.98180896
vn 0.122848086 -0.382413834 -0.915788174
vn 0.0313683748 0.156908229 -0.987114906
vn -0.346889108 0.480699033 -0.805354893
vn -0.0734896064 0.914167762 -0.39861846
vn -0.448279947 0.243590385 -0.860063255
vn -0.189890072 0.42417261 -0.885448694
vn -0.178645357 0.757759154 -0.627604127
vn -0.217600718 0.730705619 -0.64708519
vn -0.193887159 0.935539663 -0.29525128
vn -0.0590717271 0.856465638 -0.512812972
vn -0.0122797927 0.404776692 -0.914333165
vn -0.0103288684 0.419095606 -0.907883346
vn 0.261017472 -0.191660374 -0.946116328
vn -0.0540614426 -0.449532032 -0.891626716
vn -0.103598095 0.0219346378 -0.994377315
vn -0.0646854267 0.297299147 -0.952590704
vn -0.0308673009 -0.26300174 -0.964301467
vn -0.31066215 -0.75715524 -0.574634552
vn -0.359110862 -0.376313895 -0.85406512
vn 0.273871273 0.270506918 -0.922941208
vn -0.0128882956 0.308383375 -0.951174855
vn 0.0681912005 0.444434553 -0.89321214
vn 0.132588491 0.186486423 -0.973469675
vn 0.397348613 0.262498975 -0.879322767
vn -0.122228406 0.505678296 -0.854019761
vn 0.0446575806 0.278792918 -0.95931232
vn -0.173817873 0.920999169 -0.348637253
vn -0.00594690815 0.959364772 -0.282105982
vn 0.055027876 0.994274318 0.0915992707
vn -0.138296083 0.989543319 -0.0409658998
vn -0.258183956 0.916936874 -0.304249585
vn -0.524597168 0.758204043 0.387200832
vn 0.164806902 0.973771393 0.156869292
vn 0.240850151 0.970482945 0.0124113215
vn 0.100541331 0.939733684 0.326790422
vn 0.036365442 0.93926996 0.341247022
vn -0.763060391 0.584452987 0.275959313
vn -0.435842901 0.890692055 0.129261881
vn -0.392222732 0.730757236 0.558708489
vn -0.209289297 0.822829366 0.52834636
vn -0.241557732 0.681352794 0.690947354
vn -0.154704601 0.460254222 0.87420398
vn -0.0479222126 0.492588699 0.868941844
vn -0.0903556049 0.0032354088 0.995904267
vn -0.105998531 0.744026124 0.65968889
vn 0.0645642653 0.430576235 0.900241971
vn -0.0750070959 0.86960727 0.488013446
vn -0.0168745797 -0.027879253 0.999468863
vn 0.177049696 0.886704266 0.427093565
vn 0.134105161 0.990881085 -0.0130535197
vn -0.0436049774 -0.133397594 0.990102887
vn -0.401503593 -0.440731853 0.802838862
vn -0.119877644 -0.522359192 0.844257295
vn -0.387033314 -0.900392056 0.198744714
vn 0.0435466729 -0.941163778 0.335133225
vn -0.0100055654 -0.31238851 0.94990176
vn 0.0517460704 -0.94267875 0.329664946
vn -0.0139133185 -0.0384796299 0.999162555
vn -0.00455007423 -0.905705512 0.42388308
vn -0.0301093832 -0.98736167 0.15559651
vn -0.012136871 -0.214076132 0.976741552
vn 0.143946543 -0.0369130597 0.988896847
vn 0.0880049169 0.858778715 0.504731894
vn 0.049276758 0.196626946 0.979239345
vn 0.209839255 0.412329584 0.886539221
vn 0.121163361 -0.0696232542 0.990187824
vn 0.137828454 -0.134013623 0.981347919
vn -0.00466973428 0.208276659 0.978058815
vn -0.066480048 0.758216977 0.648604155
vn -0.0581090413 0.892670453 0.44694823
vn 0.116581246 0.964071274 0.238694876
vn 0.473567426 0.875985324 -0.0915618315
vn 0.262661964 0.962136209 -0.0728184134
vn 0.0814827532 0.994557738 0.0649281368
vn 0.210941702 0.969911873 0.121549904
vn 0.0924061909 0.99397248 0.0589896552
vn 0.0759898052 0.989345133 0.124184512
vn 0.123932756 0.99193126 -0.0267030057
vn -0.0179572999 0.997298062 -0.0712333173
vn 0.0896980315 0.970112443 -0.225468874
vn 0.167886183 0.978999257 0.115648814
vn -0.306739271 0.799314022 0.516728282
vn -0.402202159 0.915471077 -0.0120930821
vn 0.144059926 0.718299985 -0.680655539
vn -0.211529925 0.857401073 -0.469167858
vn -0.120882258 0.985083461 -0.122467078
vn 0.203448877 0.766952336 -0.608598888
vn -0.583681047 0.734478295 -0.346205235
vn 0.572521746 -0.614597499 -0.542668223
vn 0.146648183 -0.448557943 -0.881640553
vn 0.577939272 -0.62495923 -0.524797261
vn 0.274551809 -0.510132015 -0.81509912
vn 0.0894459933 -0.355342001 -0.930446923
vn 0.0765555352 -0.403708309 -0.911679149
vn -0.00469082128 -0.605767131 -0.79562813
vn -0.0687628165 -0.790283024 -0.608871341
vn 0.961003125 -0.2321392 -0.150280818
vn 0.893351316 -0.446409762 -0.0513988622
vn 0.922193706 -0.383623809 -0.0489019901
vn 0.993979931 0.0819319859 -0.072738938
vn 0.845106721 -0.534539759 0.00785850547
vn 0.992987096 -0.0396873131 -0.111362636
vn 0.627415597 -0.755704522 -0.187777653
vn 0.618839324 -0.594173312 -0.51380533
vn 0.949178398 0.0802573487 -0.304333925
vn 0.99082458 0.134385958 0.0143923536
vn 0.676911175 0.228086591 -0.699834108
vn 0.993783057 0.0848765597 -0.0720501691
vn 0.959647179 0.277622521 -0.0447543189
vn 0.957502663 0.267430931 0.108024783
vn 0.973724246 -0.223718032 -0.0425589867
vn 0.987182975 -0.037690565 -0.155078456
vn 0.775281489 0.00713159982 -0.631575584
vn 0.921139956 0.304048091 -0.243014142
vn 0.924160838 0.333985835 -0.185419008
vn 0.534101844 0.796657324 -0.282970518
vn 0.806370676 0.586335421 -0.0773116946
vn 0.958900273 0.283479631 0.0122271497
vn 0.8017084 0.582867026 0.132399783
vn 0.972535849 0.23275286 5.69084004E-05
vn 0.881897211 0.471440673 -0.00100789277
vn 0.962932646 0.248009786 -0.106074415
vn 0.85795939 0.504532278 -0.0967102721
vn 0.964772463 0.154788524 -0.212731078
vn 0.98476553 0.148063585 -0.091181539
vn 0.923854053 0.346820146 0.16189298
vn 0.861654937 -0.21840319 0.458094746
vn 0.688869059 0.297224462 0.66114819
vn 0.885597587 0.313870341 0.342348039
vn 0.543973744 0.686044037 0.4831523
vn 0.709994078 0.131066576 0.691903114
vn 0.900073469 -0.159132421 0.405641019
vn 0.440259755 -0.896628499 0.0472083539
vn 0.262731791 -0.844433546 0.466801703
vn -0.0167470034 -0.999845028 -0.0054302332
vn 0.145332471 0.265045643 0.953220487
vn 0.487397701 0.0815784559 0.869360924
vn 0.121008821 0.194895431 0.973330736
vn 0.039035514 0.410193205 0.911162853
vn 0.228537247 0.906194568 0.355783761
vn -0.0170683321 0.284822613 0.958428264
vn -0.0548266061 0.0359564647 0.997848272
vn -0.21807909 -0.0534701459 0.974465251
vn -0.190999076 0.714387119 0.673179328
vn -0.110375218 0.140450343 0.983916104
vn -0.404178262 -0.738141298 0.540173471
vn -0.202682927 0.9687801 0.142775118
vn 0.130836546 0.953726888 0.270715088
vn 0.230310321 0.587201655 0.775984108
vn 0.162820175 0.636375248 0.754000127
vn -0.208913311 0.772882462 0.599172711
vn -0.129844964 0.849048078 0.512110949
vn -0.0418433659 0.200829551 0.978732228
vn -0.0192123428 0.0809427723 0.996533513
vn -0.166728273 0.467725188 0.86800617
vn -0.0932616964 0.13439706 0.986529112
vn 0.0267293733 0.0450915843 0.998625159
vn -0.252200305 0.738844097 0.624903619
vn -0.152546942 0.483589858 0.861899197
vn -0.0574244335 0.13575229 0.98907721
vn 0.136134773 0.525238872 0.839994848
vn -0.0179142393 0.105088823 0.994301438
vn -0.131078139 -0.434370279 0.891145825
vn 0.191716641 0.285302997 0.939067066
vn 0.0307796542 -0.489302635 0.871570766
vn 0.165253118 -0.648176074 0.743343234
vn 0.0248917863 -0.960414648 0.277460068
vn 0.0138419513 -0.85786438 0.513689816
vn 0.0441586189 -0.918034494 0.394033879
vn -0.299132615 -0.948274732 -0.106276371
vt 1.00000143 0
vt 0 0
vt 0 0.166679144
vt 1.00000143 0.166552991
vt 0.999948919 0.470955849
vt 3.09082679E-08 0.47123909
vt 0.19937107 0.774046838
vt -5.24781026E-05 0.773860693
vt 0 0.952340782
vt 0.0538414717 0.983206391
vt 0.244624391 0.960972846
vt 0.303510278 0.940968871
vt 0.499912918 0.773744643
vt 0.362477005 0.938587427
vt 0.517325461 0.951018929
vt 0.681056499 0.951671958
vt 0.816776752 0.774144828
vt 1.00005877 0.773650527
vt 0.825842857 0.923446894
vt 0.999999225 0.930546582
vt 1 0
vt 0 0
vt 0 0.166748583
vt 1 0.166775629
vt 1.00220203 0.471496165
vt -0.00129647611 0.471385896
vt 0.195023537 0.776068747
vt -5.3806456E-05 0.773975849
vt 0.173234358 0.939671874
vt 0 0.9400599
vt 0.31875962 0.97567755
vt 0.498121858 0.777348101
vt 0.482460171 0.957382858
vt 0.637167752 0.958807409
vt 0.696101606 0.979090095
vt 0.804507196 0.777463973
vt 0.755245864 0.979009092
vt 1.00300848 0.774536848
vt 0.96990639 0.966728508
vt 1 0.968754292
vt 1.02160335 1.2141794
vt 0.993498743 1.04707742
vt 0.821958065 1.05636394
vt 0.824501514 1.20994544
vt 0.680361927 1.04274201
vt 0.676463366 1.20864952
vt 0.515940189 1.04226613
vt 0.516724765 1.20164442
vt 0.361479849 1.04274225
vt 0.371282071 1.20305347
vt 0.312429547 1.20188653
vt 0.312500566 1.05019617
vt 0.25388816 1.04839373
vt 0.26368171 1.20213282
vt 0.0552353002 1.04274237
vt 0.0484408662 1.21371198
vt 0 1.04274249
vt 0.0030722206 1.20752299
vt -0.0779920593 0.995224953
vt -0.224535763 0.863525569
vt -0.226792812 1.00802946
vt -0.0758176446 0.857133746
vt -0.226738155 0.62228632
vt -0.0776487887 0.621137202
vt -0.226763308 0.384209603
vt -0.0779797286 0.384135574
vt -0.226792932 0.254492342
vt -0.0779920593 0.254492342
vt 1.22093749 0.268535137
vt 1.09794927 0.268134147
vt 1.09568179 0.394885838
vt 1.22028673 0.391129285
vt 1.22433662 0.614190817
vt 1.09570706 0.624956548
vt 1.1009717 0.847568274
vt 1.22916138 0.833033144
vt 1.09789085 0.975290179
vt 1.22842097 0.95865047
vt 1.00000012 0.583333731
vt 1.00000012 0.41666621
vt -1.1920929E-07 0.416666269
vt -1.1920929E-07 0.58333379
vt 0.762849748 0.0767107457
vt 0.811400771 0.0792638808
vt 0.774883568 0.0784399062
vt 0.618196011 0.474259317
vt 0.595424175 0.466497183
vt 0.595062792 0.473279655
vt 0.609946132 0.452935398
vt 0.596502006 0.457568765
vt 0.59362036 0.442931354
vt 0.596907079 0.434210598
vt 0.624732316 0.454507828
vt 0.633912146 0.476865888
vt 0.63267988 0.437660873
vt 0.643644392 0.443461597
vt 0.648308456 0.427520812
vt 0.611866176 0.410254776
vt 0.584661126 0.414908707
vt 0.693246663 0.458634317
vt 0.68752718 0.473147333
vt 0.684891999 0.443204939
vt 0.696827233 0.468818843
vt 0.720732152 0.473193407
vt 0.694205165 0.446235836
vt 0.735989392 0.4606691
vt 0.738508165 0.47081989
vt 0.726826966 0.441112339
vt 0.709691346 0.433569551
vt 0.68646872 0.432965636
vt 0.702691615 0.409833968
vt 0.713608265 0.414494812
vt 0.712292075 0.403341174
vt 0.693835318 0.391403437
vt 0.708858371 0.390314281
vt 0.679162979 0.409632504
vt 0.649489343 0.400451243
vt 0.659473956 0.419199049
vt 0.703406155 0.379463613
vt 0.710936725 0.370791614
vt 0.66925782 0.37911135
vt 0.683010757 0.364913642
vt 0.701977551 0.351828277
vt 0.720598042 0.358589828
vt 0.720310092 0.348006546
vt 0.72658962 0.333203614
vt 0.700126827 0.330447495
vt 0.69462496 0.339520812
vt 0.721309423 0.317241848
vt 0.737432301 0.329962194
vt 0.73853451 0.324262381
vt 0.738739371 0.31632489
vt 0.74507463 0.298140705
vt 0.705504298 0.299760103
vt 0.701213062 0.280770957
vt 0.743492126 0.289302826
vt 0.742476881 0.281466305
vt 0.736649811 0.276883721
vt 0.736420035 0.267960012
vt 0.68517673 0.266887009
vt 0.683024466 0.282896936
vt 0.690769196 0.310578525
vt 0.677785099 0.315693676
vt 0.671539545 0.291795313
vt 0.670420885 0.281132758
vt 0.666605771 0.337882936
vt 0.665762484 0.313487709
vt 0.646466672 0.28723073
vt 0.642740428 0.280168116
vt 0.594968975 0.289973974
vt 0.597633898 0.316284359
vt 0.666407049 0.351152241
vt 0.650010467 0.339054465
vt 0.655595779 0.316889346
vt 0.631804407 0.306532681
vt 0.640762866 0.322895408
vt 0.613306522 0.320593774
vt 0.631809533 0.329003751
vt 0.583699048 0.292460263
vt 0.564305246 0.274501503
vt 0.550807238 0.300496459
vt 0.528753817 0.284944236
vt 0.580071867 0.302676439
vt 0.533482492 0.310966074
vt 0.544210196 0.326893687
vt 0.519752681 0.30461663
vt 0.514827192 0.293227017
vt 0.527760804 0.327875555
vt 0.5405671 0.338672101
vt 0.54406774 0.344561875
vt 0.558988571 0.342988551
vt 0.552896559 0.352127373
vt 0.583444536 0.353493512
vt 0.560860574 0.359866619
vt 0.564943731 0.335142672
vt 0.578613222 0.316988289
vt 0.591127753 0.316591084
vt 0.590318322 0.346131861
vt 0.601194203 0.331722677
vt 0.617129087 0.341792762
vt 0.582292914 0.366585433
vt 0.576805592 0.371541679
vt 0.589154541 0.380561769
vt 0.576010585 0.385217845
vt 0.571901977 0.39515394
vt 0.575630367 0.403185904
vt 0.602655768 0.374799013
vt 0.633352935 0.390209258
vt 0.582497895 0.404771507
vt 0.617860615 0.370965838
vt 0.638514578 0.407037199
vt 0.632653892 0.342554748
vt 0.634447634 0.370703399
vt 0.642555773 0.34535265
vt 0.649383426 0.367290676
vt 0.649502158 0.382625759
vt 0.632067084 0.424305916
vt 0.76802212 0.264538705
vt 0.771304786 0.273510993
vt 0.782478869 0.271897614
vt 0.774241149 0.281592965
vt 0.781400859 0.288048804
vt 0.792203486 0.295084834
vt 0.830634773 0.289168417
vt 0.803712189 0.324309707
vt 0.781507492 0.298222959
vt 0.795889199 0.266262054
vt 0.793792605 0.321306169
vt 0.774501324 0.316147208
vt 0.778047323 0.325413823
vt 0.779642463 0.345100105
vt 0.77367115 0.331984699
vt 0.767627537 0.359969676
vt 0.762583792 0.335607827
vt 0.757270038 0.351405203
vt 0.758990645 0.362941563
vt 0.794049025 0.353036284
vt 0.764435709 0.380271077
vt 0.749803543 0.3770293
vt 0.760031581 0.401665032
vt 0.749891162 0.396596849
vt 0.75445646 0.409681201
vt 0.789485753 0.419140756
vt 0.756045878 0.421296656
vt 0.775617421 0.383019388
vt 0.800832391 0.396740735
vt 0.794003725 0.369385183
vt 0.76696378 0.441442609
vt 0.751879513 0.439468801
vt 0.768722951 0.449026763
vt 0.787023902 0.442712486
vt 0.778316975 0.468702614
vt 0.808043242 0.371030271
vt 0.797425449 0.447432041
vt 0.799639821 0.461270511
vt 0.803508937 0.422798157
vt 0.796780288 0.474827468
vt 0.781913102 0.477746487
vt 0.837859154 0.431182563
vt 0.837269247 0.463847339
vt 0.847851932 0.465704978
vt 0.854400277 0.445850194
vt 0.877779722 0.463593423
vt 0.82523948 0.399838626
vt 0.840951443 0.418245435
vt 0.854129374 0.423990428
vt 0.877413154 0.437817395
vt 0.883062601 0.420741796
vt 0.856257915 0.411284626
vt 0.809970498 0.389002502
vt 0.859480858 0.367693722
vt 0.857851386 0.39212805
vt 0.873162687 0.413256705
vt 0.870714605 0.397283733
vt 0.818388462 0.360405743
vt 0.82649076 0.336294115
vt 0.872545898 0.38494581
vt 0.857758939 0.350014508
vt 0.913660347 0.385610759
vt 0.875240922 0.371305883
vt 0.873981357 0.35804671
vt 0.89922595 0.403969467
vt 0.931582451 0.407818675
vt 0.922618389 0.371900916
vt 0.931265295 0.387720048
vt 0.944475234 0.39377588
vt 0.939614594 0.376401782
vt 0.931336582 0.367599785
vt 0.953228056 0.410031736
vt 0.919613957 0.358240128
vt 0.929753721 0.355255187
vt 0.929389477 0.346491158
vt 0.944952846 0.415606558
vt 0.951776564 0.415573061
vt 0.940280139 0.423618197
vt 0.911972702 0.415670514
vt 0.92437309 0.432636917
vt 0.896930337 0.429495275
vt 0.911891103 0.443882287
vt 0.906435549 0.443760633
vt 0.911502481 0.454525292
vt 0.902198613 0.45652467
vt 0.903277874 0.464057505
vt 0.903998435 0.472403705
vt 0.877866745 0.472658098
vt 0.975133002 0.0510317273
vt 0.967764914 0.0478933342
vt 0.94031924 0.0562065095
vt 0.972622335 0.0641335398
vt 0.943215907 0.0626793429
vt 0.970998943 0.0748606473
vt 0.907412052 0.0500064604
vt 0.943898499 0.0760424584
vt 0.897582531 0.0648354217
vt 0.965159178 0.0833320469
vt 0.972827613 0.0935526341
vt 0.877819896 0.0583231337
vt 0.884652734 0.0413280316
vt 0.874787092 0.0513494723
vt 0.866423488 0.0522813238
vt 0.862747371 0.0699243546
vt 0.88216728 0.0695165768
vt 0.865303755 0.0785373226
vt 0.869859397 0.0833434612
vt 0.905198991 0.0813128203
vt 0.880936384 0.0852227062
vt 0.877571642 0.0933759063
vt 0.885892749 0.101718172
vt 0.878222942 0.1007085
vt 0.879992604 0.111845836
vt 0.93712455 0.083513543
vt 0.898670554 0.115930215
vt 0.885585546 0.116711572
vt 0.904791415 0.113604769
vt 0.911971092 0.125496164
vt 0.92412132 0.112939104
vt 0.928481817 0.123685166
vt 0.938281953 0.11548011
vt 0.944572151 0.103651032
vt 0.942408562 0.116500005
vt 0.961434066 0.10145928
vt 0.971203446 0.104160354
vt 0.961136222 0.128162727
vt 0.968761742 0.115253881
vt 0.715055048 0.0750633925
vt 0.707304001 0.0715396851
vt 0.709989607 0.080499962
vt 0.721612632 0.0830674917
vt 0.728227675 0.0903158933
vt 0.723308623 0.0972748846
vt 0.710799098 0.0908850878
vt 0.733855069 0.123807117
vt 0.738806665 0.102042034
vt 0.745402873 0.118096098
vt 0.745003939 0.128864244
vt 0.749293327 0.130908027
vt 0.721659124 0.125433698
vt 0.709181547 0.112936541
vt 0.703759193 0.126049265
vt 0.697875321 0.151805326
vt 0.693132818 0.12934278
vt 0.688031793 0.132365093
vt 0.683425248 0.172820374
vt 0.701947868 0.19160901
vt 0.71929723 0.153035894
vt 0.74605912 0.16644682
vt 0.74840349 0.148501918
vt 0.76555562 0.128810421
vt 0.686836302 0.195864603
vt 0.678886294 0.194161043
vt 0.685032427 0.208323434
vt 0.693861306 0.213581607
vt 0.709041119 0.2059149
vt 0.716798544 0.186354205
vt 0.717470825 0.199998245
vt 0.726191938 0.192093387
vt 0.727417886 0.205446407
vt 0.739149749 0.192390069
vt 0.741840482 0.209080353
vt 0.770612776 0.207984969
vt 0.761754811 0.222728059
vt 0.766258419 0.223585948
vt 0.777526259 0.219442025
vt 0.754363239 0.179405555
vt 0.787731707 0.209642336
vt 0.795786142 0.219589636
vt 0.809235334 0.229755446
vt 0.820679724 0.222079501
vt 0.81671828 0.203068212
vt 0.828890026 0.222332552
vt 0.827591538 0.178747758
vt 0.796936691 0.188395724
vt 0.795105636 0.163814828
vt 0.773295045 0.178252295
vt 0.787689507 0.171939865
vt 0.765208304 0.15248026
vt 0.783726394 0.150907919
vt 0.782370031 0.124766275
vt 0.806782365 0.146097615
vt 0.834151804 0.1495689
vt 0.809168518 0.130005404
vt 0.792084873 0.11933051
vt 0.80332166 0.118819371
vt 0.81041795 0.12096329
vt 0.823105335 0.131146267
vt 0.83454895 0.12360172
vt 0.835088611 0.131660327
vt 0.841470361 0.127775058
vt 0.844087839 0.135483071
vt 0.847800016 0.131208912
vt 0.860364854 0.131303594
vt 0.854064822 0.144743308
vt 0.87531805 0.130594775
vt 0.882220268 0.131101593
vt 0.884702563 0.126828983
vt 0.904632688 0.128219292
vt 0.855230868 0.164107308
vt 0.906104922 0.143754408
vt 0.918103158 0.136179104
vt 0.919558048 0.14818804
vt 0.904963017 0.166330799
vt 0.915601552 0.199351668
vt 0.898305357 0.188363418
vt 0.895284235 0.159816429
vt 0.87546277 0.158584699
vt 0.841109276 0.170567498
vt 0.906151533 0.220072374
vt 0.915826321 0.209327549
vt 0.898044825 0.221117452
vt 0.859541535 0.175254747
vt 0.841973424 0.211178616
vt 0.841203511 0.222163722
vt 0.851211429 0.214718148
vt 0.849307239 0.225025639
vt 0.862844169 0.219882652
vt 0.86775583 0.203485772
vt 0.870022714 0.219789594
vt 0.873302042 0.191385254
vt 0.874019206 0.213879287
vt 0.879617214 0.222504437
vt 0.640990257 0.038158644
vt 0.662046969 0.0443513878
vt 0.658660114 0.0354171582
vt 0.633741915 0.0651385635
vt 0.661848664 0.0640987605
vt 0.664770603 0.0688274354
vt 0.619690657 0.0621724017
vt 0.621784031 0.0339041241
vt 0.608866036 0.0327747948
vt 0.576396048 0.0664123148
vt 0.573956847 0.0362520702
vt 0.646274865 0.0874333829
vt 0.66172713 0.0956118554
vt 0.65886265 0.112030074
vt 0.617999911 0.0830877274
vt 0.609589994 0.0759016722
vt 0.63337189 0.092133984
vt 0.606066883 0.101675496
vt 0.632335126 0.118658647
vt 0.597691417 0.108942345
vt 0.561145067 0.0990014523
vt 0.580690801 0.0850523561
vt 0.571819842 0.0463410802
vt 0.551584899 0.03487565
vt 0.542390406 0.0534891374
vt 0.556836128 0.0785733908
vt 0.531561553 0.0415773317
vt 0.520725548 0.0370042808
vt 0.519429266 0.0450903662
vt 0.518024147 0.0546040721
vt 0.531024992 0.0774927586
vt 0.518181086 0.0683733076
vt 0.515498102 0.0763639659
vt 0.523605764 0.098085925
vt 0.54826194 0.0702538341
vt 0.531328738 0.0923388749
vt 0.533843696 0.106335029
vt 0.548100173 0.104188368
vt 0.535041988 0.115556553
vt 0.551170349 0.122075155
vt 0.56766516 0.110669598
vt 0.561829388 0.157937452
vt 0.533696771 0.13208513
vt 0.528224587 0.12385051
vt 0.52458787 0.137531474
vt 0.536685526 0.155993804
vt 0.548656881 0.153642461
vt 0.542647362 0.168722495
vt 0.553139031 0.164836451
vt 0.549224913 0.174275026
vt 0.544880092 0.182105526
vt 0.547468305 0.189523503
vt 0.585006475 0.194725022
vt 0.558917463 0.204744086
vt 0.582190871 0.172805265
vt 0.610912502 0.197959647
vt 0.594590545 0.170816347
vt 0.586757541 0.21727173
vt 0.579533279 0.161191389
vt 0.58229363 0.137055919
vt 0.575044513 0.222787842
vt 0.557818949 0.229702219
vt 0.571122706 0.240914002
vt 0.553578794 0.242677853
vt 0.579605639 0.257436752
vt 0.613910317 0.253228158
vt 0.610396862 0.266921222
vt 0.630588233 0.232961282
vt 0.62506628 0.265422642
vt 0.628515422 0.271257937
vt 0.634648502 0.258763492
vt 0.637912095 0.24396871
vt 0.637097418 0.229626521
vt 0.607708275 0.214043364
vt 0.64458406 0.219682559
vt 0.641231954 0.209204182
vt 0.652516961 0.210751161
vt 0.653704166 0.194709018
vt 0.625214696 0.186061427
vt 0.62073189 0.176928803
vt 0.651052237 0.189930186
vt 0.6580351 0.184863463
vt 0.654516757 0.172162905
vt 0.639275134 0.155851498
vt 0.65811038 0.156711236
vt 0.658075094 0.127977982
vt 0.630514681 0.166704103
vt 0.630315125 0.141845986
vt 0.641204894 0.1213658
vt 0.662229657 0.120467559
vt 0.617881954 0.163003907
vt 0.607384086 0.167911097
vt 0.606755197 0.136012718
vt 0.618115008 0.116291717
vt 0.608709097 0.122394904
vt 0.599115014 0.127620742
vt 0.584332108 0.124999568
vt 0.574293792 0.120031998
vt 0.682647467 0.256560862
vt 0.707439482 0.242424294
vt 0.686172426 0.247688577
vt 0.685995877 0.236345276
vt 0.702570975 0.220795736
vt 0.716473758 0.216900572
vt 0.72627753 0.223691031
vt 0.732045233 0.226054117
vt 0.745402873 0.0448394902
vt 0.766038001 0.0400044806
vt 0.751779318 0.0386820622
vt 0.766218424 0.0576946624
vt 0.782494605 0.0501872189
vt 0.816200852 0.0560530312
vt 0.803055882 0.032033015
vt 0.817569733 0.0283052754
vt 0.753413916 0.0601855405
vt 0.762849748 0.0767107457
vt 0.747105777 0.0653638095
vt 0.774883568 0.0784399062
vt 0.811400771 0.0792638808
vt 0.825756133 0.066738531
vt 0.829780519 0.0417285748
vt 0.750340343 0.0718504936
vt 0.745494843 0.0711062998
vt 0.743700087 0.0974268168
vt 0.757805109 0.0970603675
vt 0.759770215 0.103292748
vt 0.767840803 0.103161439
vt 0.771721244 0.0979748219
vt 0.774702966 0.10700421
vt 0.786649048 0.0909637362
vt 0.799131274 0.0997835845
vt 0.814901888 0.0943269879
vt 0.813161969 0.10011135
vt 0.824488401 0.0976413935
vt 0.831807494 0.0885915607
vt 0.833876193 0.0985556096
vt 0.834702253 0.0835285038
vt 0.834760845 0.0727135092
vt 0.840794146 0.0606662221
vt 0.84642297 0.0689429492
vt 0.846084833 0.0551324673
vt 0.845375776 0.0402963646
vt 0.834461689 0.0312554687
vt 0.840911925 0.0292953383
vt 0.831746697 0.0132714072
vt 0.932941616 0.31508261
vt 0.936147273 0.309563935
vt 0.934935689 0.298839748
vt 0.911925673 0.31651926
vt 0.929705501 0.321798503
vt 0.915443778 0.284768045
vt 0.93325907 0.284238517
vt 0.92909193 0.275325894
vt 0.919586897 0.328272879
vt 0.910632491 0.277812183
vt 0.931236923 0.254173666
vt 0.91346699 0.343614578
vt 0.889889956 0.352666199
vt 0.902649164 0.335367262
vt 0.894677579 0.32703048
vt 0.867151201 0.326906025
vt 0.870489001 0.348566592
vt 0.874861896 0.300530732
vt 0.875123501 0.290467918
vt 0.867496967 0.31356746
vt 0.857315421 0.28720504
vt 0.882819772 0.272219598
vt 0.848616779 0.331919432
vt 0.838516474 0.321277082
vt 0.845877409 0.307397902
vt 0.821315825 0.318612874
vt 0.846987724 0.278470337
vt 0.905362308 0.254513234
vt 0.825721502 0.27952522
vt 0.843632758 0.266753256
vt 0.818586707 0.267457545
vt 0.824167311 0.249107152
vt 0.839982152 0.258130789
vt 0.900534213 0.2471499
vt 0.943142712 0.244964644
g submesh0
f 1/1/1 2/2/2 3/3/3
f 1/1/1 3/3/3 4/4/4
f 5/5/5 4/4/4 3/3/3
f 5/5/5 3/3/3 6/6/6
f 5/5/5 6/6/6 7/7/7
f 7/7/7 6/6/6 8/8/8
f 7/7/7 8/8/8 9/9/9
f 7/7/7 9/9/9 10/10/10
f 7/7/7 10/10/10 11/11/11
f 7/7/7 11/11/11 12/12/12
f 13/13/13 7/7/7 12/12/12
f 5/5/5 7/7/7 13/13/13
f 13/13/13 12/12/12 14/14/14
f 13/13/13 14/14/14 15/15/15
f 16/16/16 13/13/13 15/15/15
f 5/5/5 13/13/13 17/17/17
f 16/16/16 17/17/17 13/13/13
f 5/5/5 17/17/17 18/18/18
f 17/17/17 16/16/16 19/19/19
f 18/18/18 17/17/17 19/19/19
f 18/18/18 19/19/19 20/20/20
f 21/21/21 22/22/22 23/23/23
f 21/21/21 23/23/23 24/24/24
f 25/25/25 24/24/24 23/23/23
f 25/25/25 23/23/23 26/26/26
f 25/25/25 26/26/26 27/27/27
f 27/27/27 26/26/26 28/28/28
f 29/29/29 27/27/27 28/28/28
f 29/29/29 28/28/28 30/30/30
f 31/31/31 27/27/27 29/29/29
f 31/31/31 32/32/32 27/27/27
f 25/25/25 27/27/27 32/32/32
f 31/31/31 33/33/33 32/32/32
f 34/34/34 32/32/32 33/33/33
f 35/35/35 32/32/32 34/34/34
f 25/25/25 32/32/32 36/36/36
f 35/35/35 36/36/36 32/32/32
f 37/37/37 36/36/36 35/35/35
f 25/25/25 36/36/36 38/38/38
f 39/39/39 36/36/36 37/37/37
f 38/38/38 36/36/36 39/39/39
f 38/38/38 39/39/39 40/40/40
f 41/41/41 42/42/42 43/43/43
f 41/41/41 43/43/43 44/44/44
f 45/45/45 44/44/44 43/43/43
f 45/45/45 46/46/46 44/44/44
f 46/46/46 45/45/45 47/47/47
f 46/46/46 47/47/47 48/48/48
f 49/49/49 48/48/48 47/47/47
f 49/49/49 50/50/50 48/48/48
f 49/49/49 51/51/51 50/50/50
f 49/49/49 52/52/52 51/51/51
f 51/51/51 52/52/52 53/53/53
f 51/51/51 53/53/53 54/54/54
f 55/55/55 54/54/54 53/53/53
f 55/55/55 56/56/56 54/54/54
f 56/56/56 55/55/55 57/57/57
f 56/56/56 57/57/57 58/58/58
f 59/59/59 60/60/60 61/61/61
f 59/59/59 62/62/62 60/60/60
f 60/60/60 62/62/62 63/63/63
f 63/63/63 62/62/62 64/64/64
f 65/65/65 63/63/63 64/64/64
f 65/65/65 64/64/64 66/66/66
f 67/67/67 65/65/65 66/66/66
f 67/67/67 66/66/66 68/68/68
f 69/69/69 70/70/70 71/71/71
f 69/69/69 71/71/71 72/72/72
f 73/73/73 72/72/72 71/71/71
f 73/73/73 71/71/71 74/74/74
f 73/73/73 74/74/74 75/75/75
f 73/73/73 75/75/75 76/76/76
f 76/76/76 75/75/75 77/77/77
f 76/76/76 77/77/77 78/78/78
f 79/79/79 80/80/80 81/81/81
f 79/79/79 81/81/81 82/82/82
g submesh1
f 83/83/83 84/84/84 85/85/85
f 86/86/86 87/87/87 88/88/88
f 89/89/89 87/87/87 86/86/86
f 90/90/90 87/87/87 89/89/89
f 91/91/91 90/90/90 89/89/89
f 92/92/92 91/91/91 89/89/89
f 93/93/93 89/89/89 86/86/86
f 93/93/93 86/86/86 94/94/94
f 92/92/92 89/89/89 95/95/95
f 93/93/93 95/95/95 89/89/89
f 96/96/96 93/93/93 94/94/94
f 96/96/96 95/95/95 93/93/93
f 95/95/95 96/96/96 97/97/97
f 98/98/98 92/92/92 95/95/95
f 98/98/98 99/99/99 92/92/92
f 100/100/100 96/96/96 94/94/94
f 101/101/101 100/100/100 94/94/94
f 97/97/97 96/96/96 102/102/102
f 102/102/102 96/96/96 100/100/100
f 100/100/100 101/101/101 103/103/103
f 103/103/103 101/101/101 104/104/104
f 105/105/105 102/102/102 100/100/100
f 103/103/103 105/105/105 100/100/100
f 106/106/106 103/103/103 104/104/104
f 106/106/106 104/104/104 107/107/107
f 108/108/108 103/103/103 106/106/106
f 105/105/105 103/103/103 108/108/108
f 109/109/109 105/105/105 108/108/108
f 110/110/110 102/102/102 105/105/105
f 105/105/105 109/109/109 110/110/110
f 97/97/97 102/102/102 110/110/110
f 110/110/110 109/109/109 111/111/111
f 111/111/111 109/109/109 112/112/112
f 111/111/111 112/112/112 113/113/113
f 111/111/111 113/113/113 114/114/114
f 114/114/114 113/113/113 115/115/115
f 116/116/116 110/110/110 111/111/111
f 111/111/111 114/114/114 116/116/116
f 114/114/114 117/117/117 116/116/116
f 110/110/110 116/116/116 118/118/118
f 97/97/97 110/110/110 118/118/118
f 118/118/118 116/116/116 117/117/117
f 118/118/118 117/117/117 97/97/97
f 115/115/115 119/119/119 114/114/114
f 115/115/115 120/120/120 119/119/119
f 114/114/114 119/119/119 121/121/121
f 121/121/121 117/117/117 114/114/114
f 119/119/119 120/120/120 122/122/122
f 119/119/119 122/122/122 121/121/121
f 120/120/120 123/123/123 122/122/122
f 120/120/120 124/124/124 123/123/123
f 124/124/124 125/125/125 123/123/123
f 125/125/125 126/126/126 123/123/123
f 123/123/123 126/126/126 127/127/127
f 123/123/123 128/128/128 122/122/122
f 128/128/128 123/123/123 127/127/127
f 127/127/127 126/126/126 129/129/129
f 130/130/130 129/129/129 126/126/126
f 129/129/129 130/130/130 131/131/131
f 129/129/129 131/131/131 132/132/132
f 132/132/132 133/133/133 129/129/129
f 129/129/129 133/133/133 134/134/134
f 129/129/129 134/134/134 127/127/127
f 134/134/134 133/133/133 135/135/135
f 133/133/133 136/136/136 135/135/135
f 136/136/136 137/137/137 135/135/135
f 137/137/137 138/138/138 135/135/135
f 135/135/135 138/138/138 139/139/139
f 139/139/139 140/140/140 135/135/135
f 141/141/141 135/135/135 140/140/140
f 134/134/134 135/135/135 141/141/141
f 127/127/127 134/134/134 142/142/142
f 134/134/134 141/141/141 142/142/142
f 127/127/127 142/142/142 143/143/143
f 128/128/128 127/127/127 143/143/143
f 142/142/142 141/141/141 144/144/144
f 142/142/142 144/144/144 143/143/143
f 144/144/144 141/141/141 145/145/145
f 128/128/128 143/143/143 146/146/146
f 128/128/128 146/146/146 122/122/122
f 147/147/147 143/143/143 144/144/144
f 146/146/146 143/143/143 147/147/147
f 148/148/148 144/144/144 145/145/145
f 149/149/149 148/148/148 145/145/145
f 148/148/148 149/149/149 150/150/150
f 151/151/151 148/148/148 150/150/150
f 122/122/122 146/146/146 152/152/152
f 121/121/121 122/122/122 152/152/152
f 146/146/146 147/147/147 153/153/153
f 152/152/152 146/146/146 153/153/153
f 147/147/147 144/144/144 154/154/154
f 154/154/154 144/144/144 148/148/148
f 153/153/153 147/147/147 154/154/154
f 154/154/154 148/148/148 155/155/155
f 151/151/151 155/155/155 148/148/148
f 156/156/156 154/154/154 155/155/155
f 153/153/153 154/154/154 156/156/156
f 156/156/156 155/155/155 157/157/157
f 157/157/157 155/155/155 151/151/151
f 153/153/153 156/156/156 158/158/158
f 158/158/158 156/156/156 157/157/157
f 151/151/151 150/150/150 159/159/159
f 150/150/150 160/160/160 159/159/159
f 159/159/159 160/160/160 161/161/161
f 162/162/162 161/161/161 160/160/160
f 163/163/163 159/159/159 161/161/161
f 163/163/163 151/151/151 159/159/159
f 164/164/164 161/161/161 162/162/162
f 163/163/163 161/161/161 164/164/164
f 165/165/165 163/163/163 164/164/164
f 164/164/164 162/162/162 166/166/166
f 166/166/166 162/162/162 167/167/167
f 168/168/168 164/164/164 166/166/166
f 165/165/165 164/164/164 168/168/168
f 169/169/169 165/165/165 168/168/168
f 170/170/170 165/165/165 169/169/169
f 171/171/171 165/165/165 170/170/170
f 172/172/172 171/171/171 170/170/170
f 172/172/172 173/173/173 171/171/171
f 174/174/174 173/173/173 172/172/172
f 171/171/171 175/175/175 165/165/165
f 175/175/175 171/171/171 173/173/173
f 176/176/176 163/163/163 165/165/165
f 175/175/175 176/176/176 165/165/165
f 176/176/176 177/177/177 163/163/163
f 177/177/177 176/176/176 175/175/175
f 177/177/177 151/151/151 163/163/163
f 177/177/177 175/175/175 178/178/178
f 173/173/173 178/178/178 175/175/175
f 177/177/177 179/179/179 151/151/151
f 178/178/178 179/179/179 177/177/177
f 151/151/151 179/179/179 157/157/157
f 179/179/179 180/180/180 157/157/157
f 180/180/180 179/179/179 178/178/178
f 180/180/180 158/158/158 157/157/157
f 181/181/181 173/173/173 174/174/174
f 182/182/182 181/181/181 174/174/174
f 183/183/183 181/181/181 182/182/182
f 184/184/184 183/183/183 182/182/182
f 185/185/185 183/183/183 184/184/184
f 186/186/186 183/183/183 185/185/185
f 187/187/187 173/173/173 181/181/181
f 187/187/187 178/178/178 173/173/173
f 181/181/181 183/183/183 187/187/187
f 183/183/183 188/188/188 187/187/187
f 189/189/189 183/183/183 186/186/186
f 188/188/188 183/183/183 189/189/189
f 99/99/99 189/189/189 186/186/186
f 98/98/98 189/189/189 99/99/99
f 190/190/190 178/178/178 187/187/187
f 187/187/187 188/188/188 190/190/190
f 190/190/190 180/180/180 178/178/178
f 98/98/98 191/191/191 189/189/189
f 191/191/191 188/188/188 189/189/189
f 180/180/180 190/190/190 192/192/192
f 192/192/192 158/158/158 180/180/180
f 193/193/193 192/192/192 190/190/190
f 188/188/188 193/193/193 190/190/190
f 194/194/194 158/158/158 192/192/192
f 193/193/193 194/194/194 192/192/192
f 194/194/194 153/153/153 158/158/158
f 152/152/152 153/153/153 194/194/194
f 195/195/195 194/194/194 193/193/193
f 195/195/195 152/152/152 194/194/194
f 196/196/196 195/195/195 193/193/193
f 196/196/196 152/152/152 195/195/195
f 196/196/196 193/193/193 188/188/188
f 121/121/121 152/152/152 196/196/196
f 117/117/117 121/121/121 196/196/196
f 188/188/188 117/117/117 196/196/196
f 191/191/191 117/117/117 188/188/188
f 191/191/191 97/97/97 117/117/117
f 191/191/191 197/197/197 97/97/97
f 98/98/98 197/197/197 191/191/191
f 197/197/197 95/95/95 97/97/97
f 98/98/98 95/95/95 197/197/197
f 198/198/198 199/199/199 200/200/200
f 199/199/199 201/201/201 200/200/200
f 200/200/200 201/201/201 202/202/202
f 203/203/203 200/200/200 202/202/202
f 200/200/200 203/203/203 204/204/204
f 205/205/205 204/204/204 203/203/203
f 202/202/202 206/206/206 203/203/203
f 204/204/204 207/207/207 200/200/200
f 208/208/208 203/203/203 206/206/206
f 205/205/205 203/203/203 208/208/208
f 208/208/208 206/206/206 209/209/209
f 210/210/210 208/208/208 209/209/209
f 211/211/211 208/208/208 210/210/210
f 212/212/212 211/211/211 210/210/210
f 213/213/213 211/211/211 212/212/212
f 213/213/213 212/212/212 214/214/214
f 213/213/213 214/214/214 215/215/215
f 216/216/216 213/213/213 215/215/215
f 217/217/217 208/208/208 211/211/211
f 217/217/217 205/205/205 208/208/208
f 218/218/218 213/213/213 216/216/216
f 219/219/219 218/218/218 216/216/216
f 220/220/220 218/218/218 219/219/219
f 220/220/220 219/219/219 221/221/221
f 220/220/220 221/221/221 222/222/222
f 223/223/223 220/220/220 222/222/222
f 224/224/224 223/223/223 222/222/222
f 220/220/220 225/225/225 218/218/218
f 218/218/218 225/225/225 213/213/213
f 223/223/223 225/225/225 220/220/220
f 226/226/226 213/213/213 225/225/225
f 223/223/223 226/226/226 225/225/225
f 227/227/227 211/211/211 213/213/213
f 227/227/227 217/217/217 211/211/211
f 226/226/226 227/227/227 213/213/213
f 224/224/224 228/228/228 223/223/223
f 224/224/224 229/229/229 228/228/228
f 228/228/228 229/229/229 230/230/230
f 228/228/228 230/230/230 231/231/231
f 228/228/228 231/231/231 223/223/223
f 230/230/230 232/232/232 231/231/231
f 233/233/233 217/217/217 227/227/227
f 233/233/233 227/227/227 226/226/226
f 234/234/234 223/223/223 231/231/231
f 231/231/231 232/232/232 235/235/235
f 231/231/231 235/235/235 234/234/234
f 223/223/223 234/234/234 236/236/236
f 236/236/236 226/226/226 223/223/223
f 235/235/235 232/232/232 237/237/237
f 232/232/232 238/238/238 237/237/237
f 234/234/234 235/235/235 239/239/239
f 236/236/236 234/234/234 239/239/239
f 235/235/235 237/237/237 240/240/240
f 239/239/239 235/235/235 240/240/240
f 241/241/241 240/240/240 237/237/237
f 240/240/240 241/241/241 242/242/242
f 239/239/239 240/240/240 242/242/242
f 242/242/242 241/241/241 243/243/243
f 226/226/226 236/236/236 244/244/244
f 236/236/236 239/239/239 245/245/245
f 245/245/245 244/244/244 236/236/236
f 239/239/239 242/242/242 246/246/246
f 245/245/245 239/239/239 246/246/246
f 247/247/247 242/242/242 243/243/243
f 247/247/247 246/246/246 242/242/242
f 247/247/247 248/248/248 246/246/246
f 249/249/249 245/245/245 246/246/246
f 249/249/249 244/244/244 245/245/245
f 244/244/244 250/250/250 226/226/226
f 250/250/250 233/233/233 226/226/226
f 251/251/251 233/233/233 250/250/250
f 244/244/244 252/252/252 250/250/250
f 249/249/249 252/252/252 244/244/244
f 252/252/252 251/251/251 250/250/250
f 249/249/249 246/246/246 253/253/253
f 253/253/253 246/246/246 248/248/248
f 249/249/249 253/253/253 254/254/254
f 249/249/249 254/254/254 252/252/252
f 253/253/253 248/248/248 254/254/254
f 251/251/251 255/255/255 233/233/233
f 233/233/233 255/255/255 217/217/217
f 255/255/255 256/256/256 217/217/217
f 217/217/217 256/256/256 205/205/205
f 252/252/252 257/257/257 251/251/251
f 254/254/254 257/257/257 252/252/252
f 258/258/258 256/256/256 255/255/255
f 251/251/251 258/258/258 255/255/255
f 254/254/254 259/259/259 257/257/257
f 257/257/257 260/260/260 251/251/251
f 259/259/259 260/260/260 257/257/257
f 260/260/260 261/261/261 251/251/251
f 251/251/251 261/261/261 258/258/258
f 262/262/262 254/254/254 248/248/248
f 262/262/262 259/259/259 254/254/254
f 248/248/248 263/263/263 262/262/262
f 263/263/263 259/259/259 262/262/262
f 259/259/259 264/264/264 260/260/260
f 264/264/264 261/261/261 260/260/260
f 263/263/263 265/265/265 259/259/259
f 259/259/259 265/265/265 264/264/264
f 263/263/263 266/266/266 265/265/265
f 266/266/266 267/267/267 265/265/265
f 265/265/265 267/267/267 264/264/264
f 267/267/267 268/268/268 264/264/264
f 266/266/266 263/263/263 269/269/269
f 268/268/268 270/270/270 264/264/264
f 264/264/264 270/270/270 261/261/261
f 270/270/270 268/268/268 271/271/271
f 270/270/270 271/271/271 272/272/272
f 269/269/269 263/263/263 273/273/273
f 273/273/273 274/274/274 269/269/269
f 273/273/273 275/275/275 274/274/274
f 263/263/263 275/275/275 273/273/273
f 276/276/276 275/275/275 263/263/263
f 276/276/276 277/277/277 275/275/275
f 248/248/248 276/276/276 263/263/263
f 278/278/278 277/277/277 276/276/276
f 276/276/276 248/248/248 278/278/278
f 278/278/278 279/279/279 277/277/277
f 248/248/248 247/247/247 278/278/278
f 278/278/278 280/280/280 279/279/279
f 278/278/278 247/247/247 280/280/280
f 280/280/280 281/281/281 279/279/279
f 280/280/280 247/247/247 282/282/282
f 280/280/280 282/282/282 281/281/281
f 282/282/282 283/283/283 281/281/281
f 247/247/247 243/243/243 282/282/282
f 282/282/282 243/243/243 283/283/283
f 243/243/243 284/284/284 283/283/283
f 243/243/243 285/285/285 284/284/284
f 286/286/286 287/287/287 288/288/288
f 286/286/286 288/288/288 289/289/289
f 289/289/289 288/288/288 290/290/290
f 291/291/291 289/289/289 290/290/290
f 288/288/288 292/292/292 290/290/290
f 291/291/291 290/290/290 293/293/293
f 294/294/294 290/290/290 292/292/292
f 293/293/293 290/290/290 294/294/294
f 295/295/295 291/291/291 293/293/293
f 296/296/296 291/291/291 295/295/295
f 294/294/294 292/292/292 297/297/297
f 297/297/297 292/292/292 298/298/298
f 297/297/297 298/298/298 299/299/299
f 297/297/297 299/299/299 300/300/300
f 297/297/297 300/300/300 301/301/301
f 302/302/302 297/297/297 301/301/301
f 294/294/294 297/297/297 302/302/302
f 302/302/302 301/301/301 303/303/303
f 304/304/304 302/302/302 303/303/303
f 305/305/305 293/293/293 294/294/294
f 305/305/305 294/294/294 302/302/302
f 306/306/306 302/302/302 304/304/304
f 305/305/305 302/302/302 306/306/306
f 307/307/307 306/306/306 304/304/304
f 307/307/307 308/308/308 306/306/306
f 305/305/305 306/306/306 308/308/308
f 309/309/309 308/308/308 307/307/307
f 308/308/308 309/309/309 310/310/310
f 305/305/305 311/311/311 293/293/293
f 295/295/295 293/293/293 311/311/311
f 310/310/310 312/312/312 308/308/308
f 313/313/313 312/312/312 310/310/310
f 314/314/314 305/305/305 308/308/308
f 312/312/312 314/314/314 308/308/308
f 314/314/314 311/311/311 305/305/305
f 315/315/315 314/314/314 312/312/312
f 315/315/315 316/316/316 314/314/314
f 316/316/316 311/311/311 314/314/314
f 317/317/317 316/316/316 315/315/315
f 317/317/317 318/318/318 316/316/316
f 319/319/319 295/295/295 311/311/311
f 319/319/319 311/311/311 316/316/316
f 318/318/318 319/319/319 316/316/316
f 296/296/296 295/295/295 319/319/319
f 320/320/320 319/319/319 318/318/318
f 321/321/321 296/296/296 319/319/319
f 321/321/321 319/319/319 320/320/320
f 322/322/322 296/296/296 321/321/321
f 323/323/323 321/321/321 320/320/320
f 324/324/324 322/322/322 321/321/321
f 324/324/324 321/321/321 323/323/323
f 325/325/325 326/326/326 327/327/327
f 325/325/325 327/327/327 328/328/328
f 328/328/328 327/327/327 329/329/329
f 327/327/327 330/330/330 329/329/329
f 330/330/330 327/327/327 331/331/331
f 329/329/329 330/330/330 332/332/332
f 333/333/333 329/329/329 332/332/332
f 333/333/333 332/332/332 334/334/334
f 335/335/335 334/334/334 332/332/332
f 335/335/335 332/332/332 336/336/336
f 337/337/337 330/330/330 331/331/331
f 332/332/332 330/330/330 337/337/337
f 337/337/337 331/331/331 338/338/338
f 338/338/338 339/339/339 337/337/337
f 337/337/337 339/339/339 340/340/340
f 339/339/339 341/341/341 340/340/340
f 342/342/342 340/340/340 341/341/341
f 340/340/340 342/342/342 343/343/343
f 344/344/344 340/340/340 343/343/343
f 345/345/345 337/337/337 340/340/340
f 332/332/332 337/337/337 345/345/345
f 345/345/345 340/340/340 344/344/344
f 346/346/346 332/332/332 345/345/345
f 336/336/336 332/332/332 347/347/347
f 347/347/347 332/332/332 346/346/346
f 336/336/336 347/347/347 348/348/348
f 344/344/344 343/343/343 349/349/349
f 343/343/343 350/350/350 349/349/349
f 344/344/344 349/349/349 351/351/351
f 344/344/344 351/351/351 352/352/352
f 353/353/353 344/344/344 352/352/352
f 354/354/354 345/345/345 344/344/344
f 354/354/354 344/344/344 353/353/353
f 345/345/345 354/354/354 346/346/346
f 355/355/355 354/354/354 353/353/353
f 356/356/356 354/354/354 355/355/355
f 346/346/346 354/354/354 356/356/356
f 356/356/356 355/355/355 357/357/357
f 358/358/358 356/356/356 357/357/357
f 358/358/358 346/346/346 356/356/356
f 358/358/358 357/357/357 359/359/359
f 359/359/359 360/360/360 358/358/358
f 359/359/359 361/361/361 360/360/360
f 360/360/360 361/361/361 362/362/362
f 360/360/360 362/362/362 363/363/363
f 346/346/346 358/358/358 364/364/364
f 358/358/358 360/360/360 364/364/364
f 360/360/360 363/363/363 365/365/365
f 363/363/363 366/366/366 365/365/365
f 365/365/365 366/366/366 367/367/367
f 365/365/365 367/367/367 368/368/368
f 365/365/365 368/368/368 369/369/369
f 368/368/368 370/370/370 369/369/369
f 370/370/370 371/371/371 369/369/369
f 365/365/365 369/369/369 372/372/372
f 360/360/360 365/365/365 372/372/372
f 372/372/372 369/369/369 371/371/371
f 372/372/372 371/371/371 373/373/373
f 360/360/360 372/372/372 374/374/374
f 364/364/364 360/360/360 374/374/374
f 364/364/364 374/374/374 373/373/373
f 374/374/374 372/372/372 375/375/375
f 375/375/375 372/372/372 373/373/373
f 374/374/374 375/375/375 373/373/373
f 376/376/376 346/346/346 364/364/364
f 373/373/373 376/376/376 364/364/364
f 376/376/376 347/347/347 346/346/346
f 376/376/376 348/348/348 347/347/347
f 376/376/376 377/377/377 348/348/348
f 373/373/373 377/377/377 376/376/376
f 348/348/348 377/377/377 378/378/378
f 379/379/379 377/377/377 373/373/373
f 373/373/373 371/371/371 379/379/379
f 371/371/371 380/380/380 379/379/379
f 377/377/377 381/381/381 378/378/378
f 377/377/377 379/379/379 381/381/381
f 378/378/378 381/381/381 382/382/382
f 383/383/383 382/382/382 381/381/381
f 383/383/383 381/381/381 384/384/384
f 379/379/379 385/385/385 381/381/381
f 381/381/381 385/385/385 384/384/384
f 379/379/379 380/380/380 385/385/385
f 384/384/384 385/385/385 386/386/386
f 385/385/385 387/387/387 386/386/386
f 385/385/385 380/380/380 387/387/387
f 387/387/387 388/388/388 386/386/386
f 387/387/387 389/389/389 388/388/388
f 387/387/387 380/380/380 389/389/389
f 389/389/389 390/390/390 388/388/388
f 390/390/390 389/389/389 391/391/391
f 391/391/391 389/389/389 392/392/392
f 380/380/380 392/392/392 389/389/389
f 392/392/392 393/393/393 391/391/391
f 392/392/392 394/394/394 393/393/393
f 393/393/393 394/394/394 395/395/395
f 395/395/395 394/394/394 396/396/396
f 380/380/380 397/397/397 392/392/392
f 394/394/394 392/392/392 397/397/397
f 394/394/394 398/398/398 396/396/396
f 398/398/398 399/399/399 396/396/396
f 398/398/398 400/400/400 399/399/399
f 401/401/401 400/400/400 398/398/398
f 402/402/402 400/400/400 401/401/401
f 403/403/403 402/402/402 401/401/401
f 404/404/404 401/401/401 398/398/398
f 404/404/404 398/398/398 394/394/394
f 404/404/404 403/403/403 401/401/401
f 405/405/405 404/404/404 394/394/394
f 394/394/394 397/397/397 405/405/405
f 405/405/405 403/403/403 404/404/404
f 406/406/406 397/397/397 380/380/380
f 371/371/371 406/406/406 380/380/380
f 403/403/403 407/407/407 402/402/402
f 407/407/407 408/408/408 402/402/402
f 409/409/409 407/407/407 403/403/403
f 397/397/397 410/410/410 405/405/405
f 406/406/406 410/410/410 397/397/397
f 371/371/371 411/411/411 406/406/406
f 411/411/411 410/410/410 406/406/406
f 370/370/370 411/411/411 371/371/371
f 370/370/370 412/412/412 411/411/411
f 412/412/412 413/413/413 411/411/411
f 411/411/411 413/413/413 410/410/410
f 412/412/412 414/414/414 413/413/413
f 414/414/414 415/415/415 413/413/413
f 415/415/415 416/416/416 413/413/413
f 413/413/413 416/416/416 410/410/410
f 415/415/415 417/417/417 416/416/416
f 405/405/405 410/410/410 418/418/418
f 418/418/418 403/403/403 405/405/405
f 416/416/416 418/418/418 410/410/410
f 416/416/416 417/417/417 419/419/419
f 418/418/418 416/416/416 419/419/419
f 418/418/418 419/419/419 403/403/403
f 417/417/417 420/420/420 419/419/419
f 419/419/419 409/409/409 403/403/403
f 420/420/420 409/409/409 419/419/419
f 421/421/421 422/422/422 423/423/423
f 424/424/424 422/422/422 421/421/421
f 425/425/425 422/422/422 424/424/424
f 426/426/426 425/425/425 424/424/424
f 427/427/427 424/424/424 421/421/421
f 427/427/427 421/421/421 428/428/428
f 428/428/428 429/429/429 427/427/427
f 427/427/427 429/429/429 430/430/430
f 430/430/430 429/429/429 431/431/431
f 432/432/432 426/426/426 424/424/424
f 433/433/433 426/426/426 432/432/432
f 432/432/432 434/434/434 433/433/433
f 435/435/435 424/424/424 427/427/427
f 432/432/432 424/424/424 435/435/435
f 436/436/436 427/427/427 430/430/430
f 435/435/435 427/427/427 436/436/436
f 437/437/437 432/432/432 435/435/435
f 437/437/437 434/434/434 432/432/432
f 438/438/438 435/435/435 436/436/436
f 437/437/437 435/435/435 438/438/438
f 437/437/437 439/439/439 434/434/434
f 438/438/438 439/439/439 437/437/437
f 438/438/438 440/440/440 439/439/439
f 438/438/438 441/441/441 440/440/440
f 442/442/442 438/438/438 436/436/436
f 436/436/436 430/430/430 442/442/442
f 438/438/438 442/442/442 441/441/441
f 430/430/430 431/431/431 443/443/443
f 443/443/443 431/431/431 444/444/444
f 445/445/445 443/443/443 444/444/444
f 430/430/430 443/443/443 445/445/445
f 446/446/446 442/442/442 430/430/430
f 441/441/441 442/442/442 446/446/446
f 445/445/445 444/444/444 447/447/447
f 447/447/447 444/444/444 448/448/448
f 447/447/447 448/448/448 449/449/449
f 447/447/447 449/449/449 450/450/450
f 451/451/451 447/447/447 450/450/450
f 451/451/451 450/450/450 452/452/452
f 451/451/451 452/452/452 453/453/453
f 451/451/451 453/453/453 454/454/454
f 430/430/430 445/445/445 455/455/455
f 455/455/455 445/445/445 447/447/447
f 446/446/446 430/430/430 455/455/455
f 451/451/451 455/455/455 447/447/447
f 446/446/446 455/455/455 451/451/451
f 456/456/456 451/451/451 454/454/454
f 451/451/451 456/456/456 446/446/446
f 441/441/441 446/446/446 456/456/456
f 456/456/456 454/454/454 457/457/457
f 456/456/456 457/457/457 458/458/458
f 441/441/441 456/456/456 458/458/458
f 457/457/457 459/459/459 458/458/458
f 458/458/458 460/460/460 441/441/441
f 458/458/458 459/459/459 460/460/460
f 441/441/441 460/460/460 461/461/461
f 460/460/460 462/462/462 461/461/461
f 441/441/441 461/461/461 440/440/440
f 459/459/459 463/463/463 460/460/460
f 464/464/464 463/463/463 459/459/459
f 464/464/464 465/465/465 463/463/463
f 465/465/465 466/466/466 463/463/463
f 460/460/460 463/463/463 467/467/467
f 463/463/463 466/466/466 467/467/467
f 460/460/460 467/467/467 462/462/462
f 467/467/467 466/466/466 468/468/468
f 467/467/467 468/468/468 469/469/469
f 467/467/467 469/469/469 462/462/462
f 469/469/469 468/468/468 470/470/470
f 468/468/468 471/471/471 470/470/470
f 471/471/471 472/472/472 470/470/470
f 472/472/472 473/473/473 470/470/470
f 469/469/469 470/470/470 473/473/473
f 473/473/473 472/472/472 474/474/474
f 462/462/462 469/469/469 475/475/475
f 475/475/475 469/469/469 473/473/473
f 475/475/475 473/473/473 476/476/476
f 476/476/476 477/477/477 475/475/475
f 473/473/473 474/474/474 478/478/478
f 473/473/473 478/478/478 476/476/476
f 462/462/462 475/475/475 479/479/479
f 477/477/477 479/479/479 475/475/475
f 480/480/480 462/462/462 479/479/479
f 480/480/480 479/479/479 477/477/477
f 474/474/474 481/481/481 478/478/478
f 474/474/474 482/482/482 481/481/481
f 481/481/481 482/482/482 483/483/483
f 481/481/481 483/483/483 478/478/478
f 482/482/482 484/484/484 483/483/483
f 484/484/484 485/485/485 483/483/483
f 486/486/486 483/483/483 485/485/485
f 486/486/486 485/485/485 487/487/487
f 478/478/478 483/483/483 488/488/488
f 483/483/483 486/486/486 488/488/488
f 489/489/489 486/486/486 487/487/487
f 489/489/489 487/487/487 490/490/490
f 491/491/491 486/486/486 489/489/489
f 488/488/488 486/486/486 491/491/491
f 488/488/488 491/491/491 492/492/492
f 488/488/488 492/492/492 493/493/493
f 478/478/478 488/488/488 494/494/494
f 494/494/494 488/488/488 493/493/493
f 494/494/494 493/493/493 495/495/495
f 476/476/476 478/478/478 494/494/494
f 495/495/495 496/496/496 494/494/494
f 476/476/476 494/494/494 496/496/496
f 496/496/496 495/495/495 497/497/497
f 496/496/496 497/497/497 498/498/498
f 499/499/499 476/476/476 496/496/496
f 499/499/499 496/496/496 498/498/498
f 500/500/500 476/476/476 499/499/499
f 500/500/500 477/477/477 476/476/476
f 499/499/499 498/498/498 501/501/501
f 500/500/500 499/499/499 501/501/501
f 501/501/501 498/498/498 502/502/502
f 501/501/501 502/502/502 503/503/503
f 501/501/501 503/503/503 504/504/504
f 504/504/504 503/503/503 505/505/505
f 504/504/504 505/505/505 506/506/506
f 500/500/500 501/501/501 507/507/507
f 507/507/507 501/501/501 504/504/504
f 504/504/504 508/508/508 507/507/507
f 509/509/509 504/504/504 506/506/506
f 509/509/509 508/508/508 504/504/504
f 509/509/509 506/506/506 510/510/510
f 510/510/510 434/434/434 509/509/509
f 439/439/439 509/509/509 434/434/434
f 439/439/439 508/508/508 509/509/509
f 507/507/507 511/511/511 500/500/500
f 508/508/508 511/511/511 507/507/507
f 511/511/511 512/512/512 500/500/500
f 477/477/477 500/500/500 512/512/512
f 513/513/513 512/512/512 511/511/511
f 513/513/513 477/477/477 512/512/512
f 508/508/508 513/513/513 511/511/511
f 514/514/514 508/508/508 439/439/439
f 440/440/440 514/514/514 439/439/439
f 515/515/515 508/508/508 514/514/514
f 508/508/508 515/515/515 513/513/513
f 440/440/440 515/515/515 514/514/514
f 513/513/513 516/516/516 477/477/477
f 513/513/513 515/515/515 516/516/516
f 515/515/515 440/440/440 516/516/516
f 516/516/516 480/480/480 477/477/477
f 517/517/517 516/516/516 440/440/440
f 516/516/516 517/517/517 480/480/480
f 440/440/440 461/461/461 517/517/517
f 518/518/518 480/480/480 517/517/517
f 517/517/517 461/461/461 518/518/518
f 518/518/518 462/462/462 480/480/480
f 461/461/461 462/462/462 518/518/518
f 519/519/519 520/520/520 521/521/521
f 522/522/522 521/521/521 520/520/520
f 523/523/523 522/522/522 520/520/520
f 524/524/524 523/523/523 520/520/520
f 524/524/524 520/520/520 525/525/525
f 525/525/525 520/520/520 526/526/526
f 527/527/527 528/528/528 529/529/529
f 530/530/530 528/528/528 527/527/527
f 530/530/530 531/531/531 528/528/528
f 532/532/532 531/531/531 530/530/530
f 531/531/531 533/533/533 528/528/528
f 531/531/531 532/532/532 533/533/533
f 532/532/532 534/534/534 533/533/533
f 535/535/535 530/530/530 527/527/527
f 536/536/536 530/530/530 535/535/535
f 537/537/537 535/535/535 527/527/527
f 536/536/536 535/535/535 537/537/537
f 538/538/538 532/532/532 530/530/530
f 538/538/538 530/530/530 536/536/536
f 538/538/538 539/539/539 532/532/532
f 539/539/539 540/540/540 532/532/532
f 541/541/541 534/534/534 532/532/532
f 540/540/540 541/541/541 532/532/532
f 536/536/536 537/537/537 542/542/542
f 543/543/543 542/542/542 537/537/537
f 542/542/542 543/543/543 544/544/544
f 545/545/545 542/542/542 544/544/544
f 545/545/545 536/536/536 542/542/542
f 546/546/546 545/545/545 544/544/544
f 547/547/547 545/545/545 546/546/546
f 547/547/547 548/548/548 545/545/545
f 548/548/548 536/536/536 545/545/545
f 549/549/549 548/548/548 547/547/547
f 550/550/550 536/536/536 548/548/548
f 549/549/549 550/550/550 548/548/548
f 550/550/550 539/539/539 536/536/536
f 549/549/549 551/551/551 550/550/550
f 552/552/552 539/539/539 550/550/550
f 551/551/551 552/552/552 550/550/550
f 553/553/553 552/552/552 551/551/551
f 553/553/553 554/554/554 552/552/552
f 552/552/552 540/540/540 539/539/539
f 554/554/554 555/555/555 552/552/552
f 552/552/552 555/555/555 540/540/540
f 556/556/556 555/555/555 554/554/554
f 556/556/556 557/557/557 555/555/555
f 555/555/555 557/557/557 540/540/540
f 557/557/557 558/558/558 540/540/540
f 558/558/558 559/559/559 540/540/540
f 558/558/558 560/560/560 559/559/559
f 560/560/560 561/561/561 559/559/559
f 540/540/540 559/559/559 541/541/541
f 561/561/561 562/562/562 559/559/559
f 559/559/559 562/562/562 541/541/541
f 563/563/563 541/541/541 562/562/562
f 563/563/563 562/562/562 564/564/564
f 563/563/563 534/534/534 541/541/541
f 563/563/563 565/565/565 534/534/534
f 566/566/566 567/567/567 568/568/568
f 566/566/566 568/568/568 569/569/569
f 570/570/570 566/566/566 569/569/569
f 569/569/569 568/568/568 571/571/571
f 568/568/568 572/572/572 571/571/571
f 571/571/571 572/572/572 573/573/573
f 574/574/574 570/570/570 569/569/569
f 272/272/272 570/570/570 574/574/574
f 573/573/573 575/575/575 571/571/571
f 573/573/573 576/576/576 575/575/575
f 272/272/272 574/574/574 577/577/577
f 270/270/270 272/272/272 577/577/577
f 578/578/578 270/270/270 577/577/577
f 270/270/270 578/578/578 261/261/261
f 577/577/577 574/574/574 579/579/579
f 577/577/577 579/579/579 578/578/578
f 574/574/574 580/580/580 579/579/579
f 580/580/580 574/574/574 569/569/569
f 578/578/578 579/579/579 580/580/580
f 580/580/580 581/581/581 578/578/578
f 578/578/578 582/582/582 261/261/261
f 582/582/582 578/578/578 581/581/581
f 261/261/261 582/582/582 258/258/258
f 582/582/582 581/581/581 258/258/258
f 569/569/569 571/571/571 583/583/583
f 569/569/569 583/583/583 580/580/580
f 571/571/571 575/575/575 584/584/584
f 583/583/583 571/571/571 584/584/584
f 580/580/580 583/583/583 585/585/585
f 580/580/580 585/585/585 581/581/581
f 584/584/584 586/586/586 583/583/583
f 583/583/583 586/586/586 585/585/585
f 584/584/584 575/575/575 587/587/587
f 586/586/586 584/584/584 587/587/587
f 258/258/258 581/581/581 588/588/588
f 258/258/258 588/588/588 256/256/256
f 256/256/256 588/588/588 589/589/589
f 588/588/588 581/581/581 589/589/589
f 205/205/205 256/256/256 589/589/589
f 585/585/585 590/590/590 581/581/581
f 589/589/589 581/581/581 590/590/590
f 585/585/585 586/586/586 590/590/590
f 589/589/589 591/591/591 205/205/205
f 589/589/589 590/590/590 591/591/591
f 590/590/590 205/205/205 591/591/591
f 590/590/590 204/204/204 205/205/205
f 590/590/590 586/586/586 204/204/204
f 586/586/586 592/592/592 204/204/204
f 587/587/587 592/592/592 586/586/586
f 575/575/575 593/593/593 587/587/587
f 576/576/576 593/593/593 575/575/575
f 204/204/204 592/592/592 594/594/594
f 204/204/204 594/594/594 207/207/207
f 587/587/587 595/595/595 592/592/592
f 592/592/592 595/595/595 594/594/594
f 595/595/595 587/587/587 593/593/593
f 594/594/594 596/596/596 207/207/207
f 594/594/594 595/595/595 596/596/596
f 596/596/596 597/597/597 207/207/207
f 597/597/597 596/596/596 598/598/598
f 596/596/596 595/595/595 598/598/598
f 595/595/595 593/593/593 598/598/598
f 599/599/599 598/598/598 593/593/593
f 599/599/599 593/593/593 576/576/576
f 600/600/600 599/599/599 576/576/576
