# jungle_ruins_stone_pile_c_LOD3
v 0.0210733023 -0.0583424047 1.09021211
v -0.219085693 0.0556377247 1.08007073
v -0.44104597 0.185022086 1.17434776
v 0.0210733023 -0.0583424047 1.09021211
v -0.44104597 0.185022086 1.17434776
v -0.707567096 -0.0552497804 1.35973799
v -0.707181394 0.220384479 1.02705562
v -0.423039228 0.248280898 0.797911644
v -0.975922346 0.179129332 0.924937427
v -0.103171691 0.334380269 0.898972631
v -0.219085693 0.0556377247 1.08007073
v -0.0705099478 0.0964756981 0.769689977
v 0.0210733023 -0.0583424047 1.09021211
v 0.00418395968 -0.0569399185 0.410411835
v -0.229158014 0.187276855 0.628735125
v -0.47001341 -0.0548640937 0.118301235
v -0.945334136 0.159486875 0.593565524
v -1.28514159 0.0784920901 1.13794613
v -1.60985529 -0.0531581342 1.39879227
v -1.17710006 0.0403248258 0.226236105
v -1.44864523 -0.049071677 0.217597499
v -1.22626901 0.297564954 0.874181449
v -1.80687773 0.220694542 1.12699234
v -2.51350212 -0.054909084 1.44490623
v -1.53237653 0.274923295 0.735121012
v -1.9417094 0.228502065 0.376466751
v -2.40806842 -0.0529683493 0.162413791
v -2.23997712 0.199450314 0.52587235
v -2.89942193 -0.0520991609 0.214161068
v -1.84023857 0.3446154 0.614624441
v -2.88448262 0.0455962233 1.29163265
v -3.39763141 -0.0570764951 1.56097257
v -2.11263251 0.104767837 1.05461729
v -3.34591055 0.0431985408 1.28080142
v -3.79340434 -0.0559740961 1.40100229
v -4.06234694 0.102123372 1.07034039
v -3.32562613 0.212175995 0.89290607
v -3.19405675 0.229208305 1.08382404
v -4.77662802 -0.0552097224 1.39971006
v -2.5875113 0.139819011 1.02184641
v -2.70321822 0.229513511 0.656503737
v -2.98974657 0.209009945 0.522809386
v -3.28387332 0.280919611 0.469836712
v -3.42670536 -0.0565174036 0.0814662129
v -3.6174376 0.352557629 0.606396914
v -3.75971675 0.265073389 0.562290728
v -4.31699657 0.156133667 0.392399371
v -4.88926792 0.192888096 0.547687829
v -4.62763834 -0.0547139645 0.1045755
v -4.61485147 0.288089484 0.664953887
v -4.46995306 0.180698276 0.934722364
v -4.90009069 0.195385858 0.797949731
v -5.05075741 0.133052707 1.04928768
v -5.50090218 -0.0566304661 1.47262812
v -5.17250347 0.266959339 0.994813442
v -5.61174536 0.0494660698 1.17182994
v -5.95448828 -0.056849502 1.13373864
v -5.71033812 0.212847129 0.993299603
v -5.9598875 -0.0564611889 0.422556221
v -5.74495459 0.200331166 0.5576756
v -5.79288578 -0.0566032976 0.167093351
v -5.31676388 0.229570225 0.547479033
v -5.40940046 0.0941522941 0.326828003
vn 0.552906334 0.75223738 0.358376384
vn 0.612062156 0.740500569 0.277558625
vn 0.125410542 0.738298893 0.662711859
vn 0.552906334 0.75223738 0.358376384
vn 0.125410542 0.738298893 0.662711859
vn -0.0377186537 0.747021377 0.663729072
vn -0.190681234 0.928430557 0.318837553
vn -0.112679794 0.979304314 -0.168125957
vn 0.0593406893 0.957637429 0.281796366
vn 0.609682322 0.780501664 0.138218895
vn 0.612062156 0.740500569 0.277558625
vn 0.850969672 0.521542132 -0.0620023496
vn 0.552906334 0.75223738 0.358376384
vn 0.531185269 0.7619645 -0.370475739
vn 0.266213089 0.85235852 -0.450128317
vn 0.0957435071 0.880536854 -0.464206785
vn 0.0657827854 0.958764136 -0.276485056
vn 0.0676095039 0.85800761 0.509167969
vn 0.0998181403 0.776624382 0.622005522
vn 0.00361390668 0.706063032 -0.708139777
vn -0.0659448057 0.404956639 -0.911954701
vn 0.0651729256 0.972066939 0.225473598
vn -0.0128414603 0.908030748 0.418706506
vn -0.0087486105 0.802997351 0.595918357
vn 0.129529104 0.991319001 -0.022559179
vn -0.0434777886 0.8102597 -0.584456027
vn -0.0873634592 0.796144307 -0.598766923
vn -0.168764889 0.967517197 -0.188225567
vn 0.0899986625 0.770507336 -0.631045759
vn 0.0116890259 0.989027381 -0.147269085
vn 0.0570500121 0.879106998 0.473197818
vn -0.0606563464 0.937776208 0.341901392
vn -0.211719215 0.974889219 -0.069036305
vn -0.0938321799 0.901384532 0.422730803
vn -0.0603412874 0.899376631 0.432990432
vn -0.0150430724 0.941954315 0.33540386
vn -0.0340828486 0.973236322 0.227265179
vn -0.117079653 0.952945232 0.279621005
vn 0.0211295616 0.905096173 0.424681574
vn 0.0794687793 0.956689119 0.280054629
vn 0.0427960157 0.998721778 0.0268929321
vn 0.110258311 0.943919718 -0.311221153
vn 0.159945801 0.934990644 -0.316559464
vn 0.0355859771 0.755502939 -0.654178023
vn -0.315026224 0.947644293 0.0522372946
vn -0.189897895 0.981189728 -0.0347216614
vn -0.0946021825 0.795606375 -0.598381817
vn -0.0279046688 0.945304096 -0.324994475
vn -0.000462772092 0.86528784 -0.501275182
vn -0.0119800149 0.998785555 -0.0477905013
vn -0.00224048179 0.918157578 0.396209151
vn 0.0777944848 0.975015938 0.208067417
vn 0.218253613 0.828180075 0.516219974
vn -0.0985955074 0.91102618 0.400387585
vn 0.161811739 0.879039705 0.448448777
vn -0.178575411 0.80305624 0.56851697
vn -0.550957263 0.765010178 0.333474934
vn -0.380269319 0.866164207 0.324275851
vn -0.683332086 0.697505713 -0.21573858
vn -0.426345319 0.879613101 -0.210975245
vn -0.278946728 0.802532554 -0.527380586
vn 0.00450712722 0.9502334 -0.31150651
vn -0.0335662216 0.826023579 -0.562635183
vt -0.563976109 0.367817342
vt -0.474358827 0.317041576
vt -0.366247624 0.322003365
vt -0.563976109 0.367817342
vt -0.366247624 0.322003365
vt -0.279339314 0.234134853
vt -0.274139732 0.370421708
vt -0.372456074 0.433780193
vt -0.181484252 0.404969573
vt -0.448558003 0.403900385
vt -0.474358827 0.317041576
vt -0.507118285 0.441226602
vt -0.563976109 0.367817342
vt -0.544618487 0.566643238
vt -0.437800407 0.481883168
vt -0.365956426 0.686589718
vt -0.20003134 0.515420079
vt -0.0729604065 0.323473871
vt 0.0484338999 0.25822109
vt -0.129828006 0.670903325
vt -0.0354579687 0.675906658
vt -0.0884308219 0.439848542
vt 0.112131894 0.361265421
vt 0.37411809 0.244392633
vt 0.00925862789 0.477393985
vt 0.145393252 0.597738385
vt 0.310990274 0.709844232
vt 0.255744755 0.561075091
vt 0.480225086 0.704431176
vt 0.113785148 0.516833186
vt 0.498526573 0.306622028
vt 0.683879018 0.22152698
vt 0.228001356 0.366127074
vt 0.660725594 0.318198144
vt 0.822357893 0.28379941
vt 0.910371065 0.410941601
vt 0.642968655 0.459728241
vt 0.597988248 0.405590177
vt 1.16758633 0.303644776
vt 0.388316512 0.399563193
vt 0.423411906 0.526695013
vt 0.521769524 0.57612586
vt 0.627661109 0.589117169
vt 0.663372159 0.773263097
vt 0.737043858 0.562093735
vt 0.788009167 0.575081944
vt 0.985093355 0.648593545
vt 1.18980336 0.608572006
vt 1.09046757 0.778373241
vt 1.09526086 0.563875914
vt 1.05208075 0.472270131
vt 1.19876468 0.523426771
vt 1.25622785 0.436144114
vt 1.42363453 0.286909342
vt 1.30123127 0.480513096
vt 1.45973265 0.394911408
vt 1.57119548 0.423336029
vt 1.46658552 0.48355329
vt 1.55549467 0.682656288
vt 1.46926391 0.610514164
vt 1.50916517 0.755313873
vt 1.33499205 0.61402905
vt 1.36873293 0.706109285
g submesh0
f 1/1/1 2/2/2 3/3/3
f 4/4/4 5/5/5 6/6/6
f 7/7/7 6/6/6 5/5/5
f 7/7/7 5/5/5 8/8/8
f 9/9/9 6/6/6 7/7/7
f 9/9/9 7/7/7 8/8/8
f 10/10/10 8/8/8 5/5/5
f 11/11/11 10/10/10 5/5/5
f 11/11/11 12/12/12 10/10/10
f 13/13/13 12/12/12 11/11/11
f 14/14/14 12/12/12 13/13/13
f 10/10/10 12/12/12 15/15/15
f 12/12/12 14/14/14 15/15/15
f 15/15/15 8/8/8 10/10/10
f 14/14/14 16/16/16 15/15/15
f 15/15/15 16/16/16 8/8/8
f 17/17/17 8/8/8 16/16/16
f 17/17/17 9/9/9 8/8/8
f 6/6/6 9/9/9 18/18/18
f 19/19/19 6/6/6 18/18/18
f 16/16/16 20/20/20 17/17/17
f 20/20/20 16/16/16 21/21/21
f 22/22/22 9/9/9 17/17/17
f 22/22/22 18/18/18 9/9/9
f 17/17/17 20/20/20 22/22/22
f 18/18/18 23/23/23 19/19/19
f 24/24/24 19/19/19 23/23/23
f 22/22/22 25/25/25 18/18/18
f 25/25/25 22/22/22 20/20/20
f 25/25/25 23/23/23 18/18/18
f 20/20/20 21/21/21 26/26/26
f 20/20/20 26/26/26 25/25/25
f 26/26/26 21/21/21 27/27/27
f 28/28/28 26/26/26 27/27/27
f 29/29/29 28/28/28 27/27/27
f 25/25/25 26/26/26 30/30/30
f 23/23/23 25/25/25 30/30/30
f 28/28/28 30/30/30 26/26/26
f 31/31/31 24/24/24 23/23/23
f 31/31/31 32/32/32 24/24/24
f 33/33/33 23/23/23 30/30/30
f 30/30/30 28/28/28 33/33/33
f 33/33/33 31/31/31 23/23/23
f 32/32/32 31/31/31 34/34/34
f 34/34/34 35/35/35 32/32/32
f 34/34/34 36/36/36 35/35/35
f 36/36/36 34/34/34 37/37/37
f 38/38/38 37/37/37 34/34/34
f 38/38/38 34/34/34 31/31/31
f 36/36/36 39/39/39 35/35/35
f 40/40/40 31/31/31 33/33/33
f 31/31/31 40/40/40 38/38/38
f 33/33/33 28/28/28 40/40/40
f 37/37/37 38/38/38 40/40/40
f 28/28/28 41/41/41 40/40/40
f 41/41/41 37/37/37 40/40/40
f 42/42/42 41/41/41 28/28/28
f 42/42/42 37/37/37 41/41/41
f 42/42/42 28/28/28 29/29/29
f 42/42/42 29/29/29 43/43/43
f 43/43/43 37/37/37 42/42/42
f 44/44/44 43/43/43 29/29/29
f 43/43/43 45/45/45 37/37/37
f 46/46/46 37/37/37 45/45/45
f 45/45/45 43/43/43 46/46/46
f 46/46/46 36/36/36 37/37/37
f 47/47/47 46/46/46 43/43/43
f 47/47/47 43/43/43 44/44/44
f 36/36/36 46/46/46 47/47/47
f 48/48/48 47/47/47 44/44/44
f 49/49/49 48/48/48 44/44/44
f 47/47/47 50/50/50 36/36/36
f 48/48/48 50/50/50 47/47/47
f 51/51/51 36/36/36 50/50/50
f 39/39/39 36/36/36 51/51/51
f 51/51/51 50/50/50 52/52/52
f 52/52/52 39/39/39 51/51/51
f 52/52/52 50/50/50 48/48/48
f 39/39/39 52/52/52 53/53/53
f 53/53/53 54/54/54 39/39/39
f 52/52/52 55/55/55 53/53/53
f 48/48/48 55/55/55 52/52/52
f 54/54/54 53/53/53 56/56/56
f 55/55/55 56/56/56 53/53/53
f 54/54/54 56/56/56 57/57/57
f 57/57/57 56/56/56 58/58/58
f 56/56/56 55/55/55 58/58/58
f 58/58/58 59/59/59 57/57/57
f 58/58/58 60/60/60 59/59/59
f 58/58/58 55/55/55 60/60/60
f 59/59/59 60/60/60 61/61/61
f 55/55/55 48/48/48 62/62/62
f 60/60/60 55/55/55 62/62/62
f 60/60/60 63/63/63 61/61/61
f 63/63/63 60/60/60 62/62/62
f 62/62/62 48/48/48 63/63/63
f 61/61/61 63/63/63 49/49/49
f 63/63/63 48/48/48 49/49/49
