# jungle_ruin_walls_foundation_b_LOD3
v -0.357330471 0.905725062 3.87816897E-07
v -2.07609173E-06 0.844033778 0.500000238
v -1.93890105E-06 0.844033778 3.80673214E-07
v -0.357330769 0.90572536 0.500000358
v -0.443489343 0.787805438 4.74620066E-07
v -0.410221279 0.743835747 0.500000536
v -0.682946622 0.700653374 1.90958716E-07
v -0.97217536 0.528401792 0.499999881
v -0.845476568 0.522004664 -8.68075816E-08
v -1.16741419 0.37528196 0.442653418
v -1.15736258 0.357245177 0.499999672
v -0.921439171 0.504995108 -5.95222843E-07
v -1.24817979 0.372732997 0.386523843
v -1.31245089 0.0540409833 0.499999672
v -1.10222995 0.302215278 -1.12713302E-07
v -1.49309945 0 0.267209798
v -1.37974083 0 0.499999762
v -1.29151392 0.120097041 0.0662496686
v -1.36835837 0 0.133372173
v -1.32307315 0 0.0691193119
v -1.27390528 0 0.0519828685
v -1.14615119 0 -5.2697203E-08
v -1.93890105E-06 0.844033778 3.80673214E-07
v -0.443489343 0.787805438 4.74620066E-07
v -0.357330471 0.905725062 3.87816897E-07
v -1.94939457E-06 -3.05175774E-07 1.73447674E-07
v -0.682946622 0.700653374 1.90958716E-07
v -0.845476568 0.522004664 -8.68075816E-08
v -0.921439171 0.504995108 -5.95222843E-07
v -1.10222995 0.302215278 -1.12713302E-07
v -1.14615119 0 -5.2697203E-08
v -1.15736258 0.357245177 0.499999672
v -0.410221279 0.743835747 0.500000536
v -0.97217536 0.528401792 0.499999881
v -2.01818102E-06 3.05175774E-07 0.500000298
v -1.31245089 0.0540409833 0.499999672
v -2.07609173E-06 0.844033778 0.500000238
v -0.357330769 0.90572536 0.500000358
v -1.18633461 0 0.499999762
v -1.30967879 0 0.499999672
v -1.37974083 0 0.499999762
v -2.07609173E-06 0.844033778 0.500000238
v -1.94939457E-06 -3.05175774E-07 1.73447674E-07
v -1.93890105E-06 0.844033778 3.80673214E-07
v -2.01818102E-06 3.05175774E-07 0.500000298
v -1.27390528 0 0.0519828685
v -1.36835837 0 0.133372173
v -1.32307315 0 0.0691193119
v -1.14615119 0 -5.2697203E-08
v -1.30967879 0 0.499999672
v -1.49309945 0 0.267209798
v -1.37974083 0 0.499999762
v -1.94939457E-06 -3.05175774E-07 1.73447674E-07
v -1.18633461 0 0.499999762
v -2.01818102E-06 3.05175774E-07 0.500000298
v -1.11902666 0.0248690788 0.449141979
v -1.12153554 0.103492737 0.443893462
v -1.20176423 0.14215973 0.504009366
v -1.29336786 0.14359802 0.589770615
v -1.29480004 0 0.550559402
v -1.50997376 0.174204096 0.477391601
v -1.3739599 0.214598686 0.476653159
v -1.42049098 0.23933959 0.426653922
v -1.41996551 0.257742912 0.29965803
v -1.41562343 0.273188472 0.176989004
v -1.44636929 0.153515011 0.169271395
v -1.39424562 0.227374256 0.114861608
v -1.44337368 0.211618349 0.0636008531
v -1.41804254 0.0198745728 0.0741832927
v -1.32655764 0.251680285 0.043945618
v -1.23814034 0.212507322 0.00867438223
v -1.2021755 0.183154896 -0.00801822729
v -1.16579401 0 0.47102949
v -1.12882876 0 0.45063594
v -1.35631895 0 0.51631695
v -1.17135096 0 -0.0357462019
v -1.06456101 0.17216064 -0.0587551929
v -1.61727381 0.151656792 0.513180017
v -1.39607751 0 0.525929451
v -1.60824704 0 0.505038619
v -1.65615034 0 0.447326422
v -1.63761437 0 0.361915529
v -1.57387114 0.155314639 0.319094121
v -1.5119015 0 0.228031591
v -1.48502183 0 0.196491033
v -1.44317985 0 0.116295539
v -1.42113113 0 0.0757013932
v -1.41570878 0 0.0636022165
v -1.28074372 0 0.0123183522
v -1.18819118 0 -0.0309514739
v -1.16861939 -0.0162304677 -0.0382033437
v -1.1596545 0 -0.0399739482
v -1.10506248 0 -0.0128214704
v -0.981630623 0.0315206908 0.0364718772
v -1.0216428 0.164353937 0.027022846
v -0.99140799 0 0.0272416864
v -0.985799968 0 0.0362223685
v -1.0216428 0.164353937 0.027022846
v -0.962247968 0.319603264 0.0062059788
v -0.95437026 0.223287955 0.0494165085
v -1.06456101 0.17216064 -0.0587551929
v -1.12253463 0.349049062 0.00975614879
v -1.2021755 0.183154896 -0.00801822729
v -1.12927771 0.337126464 0.187687799
v -1.27592993 0.332782269 0.107323967
v -1.23814034 0.212507322 0.00867438223
v -1.32655764 0.251680285 0.043945618
v -1.39424562 0.227374256 0.114861608
v -1.41562343 0.273188472 0.176989004
v -1.27942502 0.334499508 0.303985775
v -1.41996551 0.257742912 0.29965803
v -1.32156491 0.35408631 0.41488719
v -1.42049098 0.23933959 0.426653922
v -1.3739599 0.214598686 0.476653159
v -1.29336786 0.14359802 0.589770615
v -0.965764344 0.271811217 0.458474159
v -1.20176423 0.14215973 0.504009366
v -1.12153554 0.103492737 0.443893462
v -0.0502385795 0.752048314 0.308673203
v -0.232534409 0.788905621 0.505787194
v -0.236741766 0.773023963 0.469471514
v 0.0195498206 0.801654637 0.524956107
v -0.282561421 0.835809946 0.528465271
v -0.222659886 0.90587461 0.525867999
v -0.159322113 0.996079981 0.50486201
v -0.286100239 0.970831275 0.515514374
v -0.334170252 0.991658628 0.446847379
v -0.196796566 0.986477613 0.318149358
v -0.383502811 0.971553326 0.3539204
v -0.39491877 0.926886857 0.302808315
v -0.456467569 0.939091146 0.215185225
v -0.0194845237 0.983313859 0.343550414
v -0.0166485924 0.914627671 0.276453823
v -0.460758269 1.00121391 0.038329903
v -0.488957047 0.950233161 0.0719943717
v -0.480902761 0.924933732 0.00420922227
v -0.400918543 0.872865558 -0.0478290915
v -0.0348543748 0.985353649 0.0138100982
v -0.340916336 0.819013357 -0.0384586006
v 0.0200497974 0.885838926 0.152640074
v 0.0045643663 0.771929026 0.113340057
v -0.0638399199 0.801042795 -0.00346909161
v -0.35436064 0.727073014 0.0212418344
v -0.621271372 0.641399801 0.0129688773
v -0.340916336 0.819013357 -0.0384586006
v -0.35436064 0.727073014 0.0212418344
v -0.45957008 0.810272515 -0.0237985961
v -0.400918543 0.872865558 -0.0478290915
v -0.480902761 0.924933732 0.00420922227
v -0.739540219 0.872064471 0.00340732839
v -0.488957047 0.950233161 0.0719943717
v -0.776477873 0.686783433 -0.0247536302
v -0.537481844 0.923905313 0.181150913
v -0.456467569 0.939091146 0.215185225
v -0.621245325 0.891541421 0.403144419
v -0.39491877 0.926886857 0.302808315
v -0.383502811 0.971553326 0.3539204
v -0.449752927 0.935960352 0.526023269
v -0.334170252 0.991658628 0.446847379
v -0.286100239 0.970831275 0.515514374
v -0.222659886 0.90587461 0.525867999
v -0.282561421 0.835809946 0.528465271
v -0.716930389 0.847409368 0.168850586
v -0.613130152 0.724046946 0.527668715
v -0.429313272 0.790140033 0.533380926
v -0.382120401 0.815860271 0.533174098
v -0.314479858 0.695745826 0.424205691
v -0.232534409 0.788905621 0.505787194
v -0.236741766 0.773023963 0.469471514
v -0.543160975 0.607548177 0.432731509
v -0.867081404 0.716109276 0.149314672
v -0.781384349 0.501740992 0.506248951
v -0.934998155 0.444586486 0.456974924
v -0.906686664 0.717093468 0.324965894
v -0.991760612 0.695378125 0.503705263
v -1.02199233 0.490040869 0.506908596
v -1.11086869 0.486909926 0.331931382
v -1.02292037 0.64714992 0.380000591
v -1.08879304 0.518608391 0.17274715
v -1.0680896 0.671945453 0.039306391
v -0.987886429 0.359818727 0.527618766
v -1.11573207 0.26898101 0.49083522
v -1.0934993 0.390247792 0.551861942
v -1.33067369 0.438961178 0.470251262
v -1.37183988 0.303008109 0.416666061
v -1.28769004 0.293369442 0.215878919
v -1.2034843 0.45647642 0.186603278
v -1.26141524 0.42560944 0.0357224122
v -1.12510622 0.315798789 0.00129525492
v -1.00320435 0.482586354 -0.00444603525
v -0.896072447 0.458513469 -0.040782135
v -0.979035914 0.333220512 -0.00917276833
v -0.914138615 0.398432314 0.137580246
v -0.668810964 0.585859954 -0.0514163151
vn -0.145505369 0.989357531 -6.9266531E-07
vn 0.170129716 0.985421658 0
vn 0.170128986 0.985421777 0
vn -0.213835761 0.976869643 -7.26748738E-07
vn -0.480648756 0.870174527 0.108503155
vn -0.553356528 0.825724661 0.109431952
vn -0.391555309 0.915839195 0.0890114829
vn -0.46062085 0.887507319 0.0126211382
vn -0.611295581 0.783497453 -0.111576751
vn -0.415321082 0.908483624 0.0465392843
vn -0.693332076 0.467097014 0.548735857
vn -0.515545607 0.844167888 -0.146945998
vn -0.833894432 0.17179203 -0.524506986
vn -0.802767575 0.596132278 -0.0138068013
vn -0.728501916 0.684232593 -0.0333286598
vn -0.537614286 0.829435587 0.151682317
vn -0.598945379 0.745787263 0.291660398
vn -0.71340555 0.693519533 -0.100414969
vn -0.733523369 0.0930590406 -0.673263192
vn -0.674108922 0.15991202 -0.721113861
vn -0.373158902 0.0553045459 -0.926117539
vn -0.37632823 0.0546920113 -0.924870729
vn -1.86784987E-07 -1.9758798E-07 -1
vn -5.44475824E-07 2.62361186E-06 -1
vn -1.30605017E-07 -6.40693997E-07 -1
vn 1.18265336E-06 1.26516011E-06 -1
vn 8.39740437E-07 8.43508531E-07 -1
vn 2.9026769E-06 4.20280367E-06 -1
vn 2.33896048E-06 2.74563786E-06 -1
vn 0 -1.16266267E-06 -1
vn 1.97308339E-07 -2.27262305E-07 -1
vn -5.5432497E-07 0 1
vn 0 0 1
vn -1.24193184E-06 2.29351741E-07 1
vn -1.86764737E-07 -1.4202304E-07 1
vn 0 0 1
vn 5.48554169E-07 4.19183095E-07 1
vn 4.57206056E-07 7.93170102E-07 1
vn -5.34360368E-07 1.6473517E-07 1
vn 2.35200957E-07 0 1
vn 1.08894744E-06 0 1
vn 1 0 2.74381506E-07
vn 1 0 1.37572698E-07
vn 1 0 2.74381506E-07
vn 1 0 1.37572599E-07
vn 0 -1 5.10272457E-07
vn 0 -1 0
vn 0 -1 0
vn -2.66261708E-07 -1 -6.54369387E-07
vn 0 -1 5.10272457E-07
vn 0 -1 0
vn 0 -1 0
vn -2.66262049E-07 -1 1.22070287E-06
vn 0 -1 5.10272457E-07
vn 2.57242448E-07 -1 1.22070287E-06
vn 0.552287459 -0.146601468 0.82066226
vn 0.620063961 0.0719381422 0.781246185
vn 0.672045827 0.133323297 0.728408754
vn -0.165586174 -0.14168413 0.975964606
vn -0.080228731 -0.261824548 0.961775064
vn -0.261117578 0.660580099 0.703883231
vn -0.220319599 0.753175378 0.619827628
vn -0.453125 0.844613314 0.285142213
vn -0.579877615 0.810037196 0.0870729089
vn -0.925854683 0.297223806 -0.233347505
vn -0.905659139 0.230743691 -0.355723053
vn -0.688259184 0.72387594 -0.0479883738
vn -0.622320235 0.10053134 -0.776280284
vn -0.617765069 -0.0443164222 -0.785112977
vn -0.293529242 0.439359903 -0.849001467
vn -0.252294004 0.234081909 -0.938910782
vn -0.290666044 0.0984435454 -0.951746821
vn 0.51040107 -0.230748236 0.828399599
vn 0.478535563 -0.136505768 0.867392659
vn -0.356480688 -0.107037343 0.92815119
vn -0.297142297 0.0938447118 -0.950210214
vn 0.199653253 -0.103971459 -0.974334836
vn -0.670422733 0.537493706 0.51150161
vn 0.157605946 0.308728963 0.938001454
vn -0.284073502 -0.0682492927 0.956370413
vn -0.952312529 0.287947476 -0.100930259
vn -0.899234235 0.275329053 -0.339958549
vn -0.689492166 0.616135597 -0.380759031
vn -0.750356555 0.0849677026 -0.655549884
vn -0.799238384 0.096038729 -0.593291283
vn -0.877857864 0.139585748 -0.458128005
vn -0.881134927 0.101654634 -0.461809129
vn -0.35585615 0.406278521 -0.841608047
vn -0.421053052 -0.10395667 -0.901059031
vn -0.351854712 -0.00606206758 -0.936034977
vn -0.133074954 -0.079332605 -0.987925887
vn 0.0903219953 -0.157173514 -0.983431995
vn 0.420840085 -0.32134515 -0.848310649
vn 0.49748522 -0.227887198 -0.837004066
vn 0.877711356 0.234665483 -0.417797685
vn 0.357939035 0.158434629 -0.920205474
vn 0.84330374 -0.107379243 -0.526600897
vn 0.77770102 -0.366057038 -0.511061013
vn 0.301044673 0.611983597 -0.731333196
vn 0.533269703 -0.309578449 -0.787264049
vn 0.108840726 0.172880471 -0.978910625
vn -0.092211239 0.84365803 -0.528902888
vn -0.301018327 0.243301839 -0.922058582
vn 0.0124299023 0.999233007 0.0371326692
vn -0.315008759 0.913598657 -0.257112712
vn -0.37188971 0.430910856 -0.822200656
vn -0.352940381 0.702907085 -0.617539167
vn -0.581720352 0.614877701 -0.532472432
vn -0.436130702 0.893063307 -0.110580519
vn -0.364255935 0.926528156 -0.0941453502
vn -0.537484944 0.842862785 -0.0263098907
vn -0.151579186 0.746069133 0.64838618
vn -0.693184137 0.632964313 0.344749093
vn -0.517842352 0.501429796 0.69311434
vn 0.0477334037 0.570094645 0.820191205
vn 0.133974761 0.501443088 0.854754686
vn 0.465764761 -0.629323661 0.622105241
vn 0.395526022 -0.436064124 0.808336079
vn 0.742048204 -0.668146789 0.0542606525
vn 0.0225055218 -0.861399472 0.507429302
vn 0.217294648 -0.903317392 0.369865954
vn 0.703460276 -0.452634156 0.547965467
vn -0.00317674596 -0.129969001 0.991512954
vn 0.044786606 0.11062552 0.992852509
vn 0.284311831 0.79973644 0.528761208
vn -0.0957603455 0.754672825 0.649075449
vn -0.0634927526 0.996950328 -0.0453732871
vn 0.0981939211 0.988881886 -0.111671463
vn -0.146983489 0.91008842 -0.387472481
vn -0.296565264 0.920454085 0.254584879
vn -0.302618891 0.895300329 0.32689324
vn 0.650697112 0.757931888 0.0461805165
vn 0.627959013 0.778017402 0.0188764501
vn -0.0974868611 0.975155115 -0.198919311
vn -0.838295043 0.534549952 0.10732121
vn -0.413837671 0.46054253 -0.785263598
vn 0.00415728148 0.449098319 -0.893472612
vn 0.222782373 0.958063304 -0.180229574
vn 0.1259792 -0.195166528 -0.972645462
vn 0.989653766 0.140374824 0.0296692103
vn 0.980073154 -0.132063672 -0.148377255
vn 0.376407504 -0.0287920479 -0.926006615
vn 0.069369562 -0.550402224 -0.832012773
vn 0.380264819 -0.438016325 -0.814579904
vn 0.0909490436 -0.427283555 -0.899531603
vn 0.202840567 -0.553969145 -0.807448924
vn -0.0834264159 0.0221832003 -0.996267021
vn -0.309651494 -0.0737932995 -0.947982371
vn -0.146339968 0.510382771 -0.847404301
vn -0.46089536 0.584206045 -0.668040991
vn -0.273317367 0.960002899 -0.0607627332
vn -0.258502096 0.305098385 -0.916565061
vn -0.324227363 0.94364208 0.066455394
vn -0.146191478 0.980243385 0.133232519
vn -0.682276309 0.619728565 0.387860239
vn -0.211494938 0.967854083 -0.136119217
vn -0.36243099 0.922555625 -0.132419512
vn -0.457749128 0.623121977 0.634180367
vn -0.319443047 0.928939581 0.187155783
vn -0.0462255441 0.480816215 0.875602007
vn 0.0115741882 0.0822227448 0.996546805
vn 0.0335555822 -0.253898948 0.966648519
vn -0.488921762 0.844201565 0.219725072
vn -0.134796888 0.332171828 0.933537245
vn -0.083384797 -0.212437421 0.973610401
vn 0.12452852 -0.279943198 0.951905668
vn 0.190709189 -0.585970283 0.78757149
vn -0.0865720734 -0.612150967 0.785987556
vn 0.599727273 -0.756344855 0.261284739
vn 0.332858086 -0.502770722 0.797763824
vn -0.575452447 0.811345637 -0.102823772
vn 0.148232877 -0.411364347 0.899336576
vn 0.374857455 -0.669915438 0.640855014
vn -0.323144376 0.935197532 0.144856095
vn -0.314579487 0.585250139 0.747343302
vn -0.338635147 0.402461678 0.850500345
vn -0.661236346 0.750063121 0.0131069506
vn -0.732869744 0.667847574 -0.129929274
vn -0.674455881 0.732955933 -0.0887968764
vn -0.685838878 0.643374085 -0.340139061
vn 0.699286103 -0.53079313 0.478808612
vn -0.238449425 -0.421424001 0.874953508
vn -0.182665288 0.0440527424 0.982187748
vn -0.762833178 0.583243608 0.279127985
vn -0.836767375 0.545236766 0.050371334
vn -0.825324416 0.524906814 -0.208116576
vn -0.714684248 0.660672128 0.229648948
vn -0.742268443 0.244733572 -0.623813331
vn -0.328330606 -0.32188043 -0.888027012
vn -0.453023612 0.276524365 -0.84752816
vn 0.190918043 -0.420117825 -0.88715905
vn 0.340234101 -0.823204994 -0.45450449
vn 0.562400877 -0.82374227 -0.0717905164
vn 0.58230716 -0.522912323 -0.622479737
vt 1.53647733 0.345281124
vt 1.36618412 0.446784407
vt 1.55598867 0.427485943
vt 1.34663165 0.36458379
vt 1.53178048 0.290178418
vt 1.34374833 0.306518018
vt 1.51872659 0.20218879
vt 1.31257296 0.0984115303
vt 1.50986636 0.110103846
vt 1.31842577 0.0109906858
vt 1.30301845 0.000923663378
vt 1.50871933 0.080645293
vt 1.33858812 -0.0255913381
vt 1.29456389 -0.122893691
vt 1.49586964 -0.018458426
vt 1.37310421 -0.195089996
vt 1.29089558 -0.155622795
vt 1.46039629 -0.116119266
vt 1.43072128 -0.166716024
vt 1.45758629 -0.157019988
vt 1.46801519 -0.145214871
vt 1.49583125 -0.113546647
vt 1 0.285224259
vt 0.852054417 0.266499817
vt 0.880746007 0.305767894
vt 1 0
vt 0.772313237 0.237477481
vt 0.718189478 0.177986026
vt 0.692893326 0.172321737
vt 0.632688642 0.104794383
vt 0.618062496 0
vt 0.385155559 0.121436775
vt 0.136351719 0.250174582
vt 0.323486805 0.178433239
vt 0 0
vt 0.436801195 0.0204674602
vt 0 0.283541262
vt 0.118738793 0.304085016
vt 0.394803524 0
vt 0.435878068 0
vt 0.459209353 0
vt 1.19411945 0.991827488
vt 1.02761555 0.710757494
vt 1.02761555 0.991827488
vt 1.19411945 0.710757852
vt 0.549057961 0.155427128
vt 0.516088367 0.126579762
vt 0.531828463 0.149275452
vt 0.593806148 0.174031183
vt 0.537680745 -0.00207877555
vt 0.472616583 0.0792240426
vt 0.513064384 -0.00226518954
vt 1 0.177079946
vt 0.581017673 -0.00175070623
vt 1 0.00140481838
vt 0.861360788 0.507404208
vt 0.848430634 0.514289379
vt 0.851165652 0.532869458
vt 0.859141171 0.54701829
vt 0.884537578 0.533954978
vt 0.870065749 0.580909908
vt 0.850978851 0.568296552
vt 0.847576737 0.583466649
vt 0.841527939 0.613818884
vt 0.844778359 0.638967276
vt 0.869634509 0.645115137
vt 0.851899624 0.654412746
vt 0.862353206 0.661183834
vt 0.896266103 0.667127848
vt 0.847407818 0.675678611
vt 0.852522254 0.695797205
vt 0.857557654 0.704175711
vt 0.870735943 0.512778163
vt 0.86732471 0.50808692
vt 0.889171124 0.542777419
vt 0.892937422 0.714826107
vt 0.858496726 0.726262808
vt 0.883618474 0.584666252
vt 0.89263469 0.545494497
vt 0.906474471 0.581097007
vt 0.906071007 0.592137814
vt 0.903429151 0.604852796
vt 0.877024531 0.613615751
vt 0.902284622 0.636345088
vt 0.900655746 0.642967463
vt 0.900403559 0.659091353
vt 0.900072992 0.666669965
vt 0.899926722 0.668735325
vt 0.896159589 0.693903565
vt 0.893670678 0.711881518
vt 0.896072626 0.715769887
vt 0.892835319 0.716673851
vt 0.891128898 0.727572203
vt 0.881527781 0.75049305
vt 0.858137131 0.738768101
vt 0.887866974 0.748991489
vt 0.887517989 0.750555813
vt 0.791112423 0.740038037
vt 0.818375349 0.747471571
vt 0.800981104 0.733475029
vt 0.789438188 0.751890659
vt 0.813551068 0.769889116
vt 0.784386575 0.778199315
vt 0.842543542 0.778149009
vt 0.821678996 0.797850609
vt 0.789707243 0.786947608
vt 0.80270946 0.805296421
vt 0.810963273 0.822260618
vt 0.825723052 0.825921893
vt 0.854187489 0.808679819
vt 0.847385645 0.8343786
vt 0.871095836 0.815728545
vt 0.873898268 0.842428565
vt 0.889361501 0.837449908
vt 0.917010844 0.833728552
vt 0.900286078 0.762830973
vt 0.918455005 0.814803243
vt 0.936163723 0.801664591
vt 0.404212266 0.0987642333
vt 0.466356188 0.143149704
vt 0.469304174 0.135729641
vt 0.432968944 0.125985384
vt 0.469685346 0.160182476
vt 0.452107459 0.169829845
vt 0.42896542 0.172198862
vt 0.438999087 0.190787971
vt 0.420308918 0.205241174
vt 0.392311305 0.179875731
vt 0.392999619 0.214810908
vt 0.375647396 0.215180993
vt 0.350925535 0.221189082
vt 0.400753826 0.149452761
vt 0.388778359 0.140877485
vt 0.315845937 0.202863961
vt 0.316211432 0.212426186
vt 0.298526138 0.201856077
vt 0.286163419 0.177243888
vt 0.342950553 0.144602016
vt 0.286237329 0.156100988
vt 0.368378609 0.128960311
vt 0.355796814 0.102054544
vt 0.328453034 0.112409554
vt 0.284223169 0.142426208
vt 0.217106953 0.379585654
vt 0.213767588 0.43625012
vt 0.222528473 0.426637709
vt 0.204326853 0.420808822
vt 0.199701726 0.433885366
vt 0.183936834 0.429772645
vt 0.171045184 0.391535908
vt 0.171171844 0.435295969
vt 0.184052289 0.363445669
vt 0.147488952 0.430783361
vt 0.143713415 0.447002679
vt 0.103337206 0.419477135
vt 0.12954402 0.46228376
vt 0.117364518 0.466692537
vt 0.084145464 0.455430776
vt 0.0982440338 0.477352053
vt 0.0804944113 0.483079821
vt 0.0639296845 0.489778668
vt 0.0552723967 0.473716706
vt 0.142879903 0.395169884
vt 0.0651309267 0.407310396
vt 0.0615096353 0.444430381
vt 0.0573056042 0.454788595
vt 0.0201770384 0.45522514
vt 0.0410600863 0.476611644
vt 0.0332508944 0.475379258
vt 0.0266899485 0.410119325
vt 0.14421916 0.357957929
vt 0.0346324705 0.361742347
vt 0.0356944464 0.330686361
vt 0.112208374 0.354662627
vt 0.0828051046 0.345193416
vt 0.0574027859 0.317404538
vt 0.0990213826 0.295971662
vt 0.0974161103 0.332335502
vt 0.132357538 0.296373516
vt 0.155674875 0.318806082
vt 0.0321772359 0.310560077
vt 0.0225814003 0.281208277
vt 0.0415155441 0.297537863
vt 0.0705997124 0.260730535
vt 0.072290726 0.235722721
vt 0.115998983 0.237911552
vt 0.125857502 0.266697437
vt 0.152798712 0.247012377
vt 0.184593469 0.251572251
vt 0.184473574 0.299461573
vt 0.203576922 0.31141144
vt 0.204622149 0.280026883
vt 0.225842476 0.301732808
vt 0.210310906 0.363151819
g submesh0
f 1/1/1 2/2/2 3/3/3
f 2/2/2 1/1/1 4/4/4
f 5/5/5 4/4/4 1/1/1
f 4/4/4 5/5/5 6/6/6
f 7/7/7 6/6/6 5/5/5
f 6/6/6 7/7/7 8/8/8
f 8/8/8 7/7/7 9/9/9
f 8/8/8 9/9/9 10/10/10
f 8/8/8 10/10/10 11/11/11
f 12/12/12 10/10/10 9/9/9
f 10/10/10 13/13/13 11/11/11
f 10/10/10 12/12/12 13/13/13
f 13/13/13 14/14/14 11/11/11
f 15/15/15 13/13/13 12/12/12
f 13/13/13 15/15/15 14/14/14
f 16/16/16 14/14/14 15/15/15
f 14/14/14 16/16/16 17/17/17
f 18/18/18 16/16/16 15/15/15
f 16/16/16 18/18/18 19/19/19
f 20/20/20 19/19/19 18/18/18
f 18/18/18 21/21/21 20/20/20
f 15/15/15 21/21/21 18/18/18
f 21/21/21 15/15/15 22/22/22
f 23/23/23 24/24/24 25/25/25
f 26/26/26 24/24/24 23/23/23
f 24/24/24 26/26/26 27/27/27
f 27/27/27 26/26/26 28/28/28
f 26/26/26 29/29/29 28/28/28
f 29/29/29 26/26/26 30/30/30
f 26/26/26 31/31/31 30/30/30
f 32/32/32 33/33/33 34/34/34
f 33/33/33 32/32/32 35/35/35
f 36/36/36 35/35/35 32/32/32
f 33/33/33 35/35/35 37/37/37
f 33/33/33 37/37/37 38/38/38
f 35/35/35 36/36/36 39/39/39
f 40/40/40 39/39/39 36/36/36
f 41/41/41 40/40/40 36/36/36
f 42/42/42 43/43/43 44/44/44
f 43/43/43 42/42/42 45/45/45
f 46/46/46 47/47/47 48/48/48
f 49/49/49 47/47/47 46/46/46
f 49/49/49 50/50/50 47/47/47
f 47/47/47 50/50/50 51/51/51
f 51/51/51 50/50/50 52/52/52
f 53/53/53 50/50/50 49/49/49
f 53/53/53 54/54/54 50/50/50
f 53/53/53 55/55/55 54/54/54
g submesh1
f 56/56/56 57/57/57 58/58/58
f 59/59/59 56/56/56 58/58/58
f 60/60/60 56/56/56 59/59/59
f 61/61/61 60/60/60 59/59/59
f 62/62/62 61/61/61 59/59/59
f 62/62/62 63/63/63 61/61/61
f 61/61/61 63/63/63 64/64/64
f 61/61/61 64/64/64 65/65/65
f 61/61/61 65/65/65 66/66/66
f 65/65/65 67/67/67 66/66/66
f 66/66/66 67/67/67 68/68/68
f 66/66/66 68/68/68 69/69/69
f 67/67/67 70/70/70 68/68/68
f 68/68/68 70/70/70 71/71/71
f 71/71/71 72/72/72 68/68/68
f 56/56/56 60/60/60 73/73/73
f 56/56/56 73/73/73 74/74/74
f 60/60/60 61/61/61 75/75/75
f 76/76/76 68/68/68 72/72/72
f 77/77/77 76/76/76 72/72/72
f 78/78/78 75/75/75 61/61/61
f 75/75/75 78/78/78 79/79/79
f 78/78/78 80/80/80 79/79/79
f 81/81/81 80/80/80 78/78/78
f 78/78/78 82/82/82 81/81/81
f 83/83/83 78/78/78 61/61/61
f 82/82/82 78/78/78 83/83/83
f 84/84/84 82/82/82 83/83/83
f 83/83/83 61/61/61 66/66/66
f 66/66/66 84/84/84 83/83/83
f 84/84/84 66/66/66 85/85/85
f 69/69/69 85/85/85 66/66/66
f 85/85/85 69/69/69 86/86/86
f 69/69/69 87/87/87 86/86/86
f 88/88/88 87/87/87 69/69/69
f 69/69/69 89/89/89 88/88/88
f 69/69/69 90/90/90 89/89/89
f 90/90/90 69/69/69 68/68/68
f 89/89/89 90/90/90 91/91/91
f 68/68/68 76/76/76 90/90/90
f 90/90/90 76/76/76 91/91/91
f 76/76/76 92/92/92 91/91/91
f 76/76/76 77/77/77 92/92/92
f 92/92/92 93/93/93 91/91/91
f 94/94/94 92/92/92 77/77/77
f 92/92/92 94/94/94 93/93/93
f 95/95/95 94/94/94 77/77/77
f 94/94/94 96/96/96 93/93/93
f 97/97/97 96/96/96 94/94/94
f 98/98/98 99/99/99 100/100/100
f 99/99/99 98/98/98 101/101/101
f 102/102/102 99/99/99 101/101/101
f 102/102/102 101/101/101 103/103/103
f 99/99/99 102/102/102 104/104/104
f 102/102/102 105/105/105 104/104/104
f 103/103/103 106/106/106 102/102/102
f 106/106/106 105/105/105 102/102/102
f 106/106/106 107/107/107 105/105/105
f 107/107/107 108/108/108 105/105/105
f 108/108/108 109/109/109 105/105/105
f 105/105/105 110/110/110 104/104/104
f 111/111/111 105/105/105 109/109/109
f 105/105/105 111/111/111 110/110/110
f 111/111/111 112/112/112 110/110/110
f 113/113/113 112/112/112 111/111/111
f 112/112/112 113/113/113 114/114/114
f 112/112/112 114/114/114 115/115/115
f 112/112/112 115/115/115 116/116/116
f 117/117/117 116/116/116 115/115/115
f 118/118/118 116/116/116 117/117/117
f 119/119/119 120/120/120 121/121/121
f 120/120/120 119/119/119 122/122/122
f 120/120/120 122/122/122 123/123/123
f 124/124/124 123/123/123 122/122/122
f 124/124/124 122/122/122 125/125/125
f 126/126/126 124/124/124 125/125/125
f 127/127/127 126/126/126 125/125/125
f 128/128/128 127/127/127 125/125/125
f 129/129/129 127/127/127 128/128/128
f 128/128/128 130/130/130 129/129/129
f 131/131/131 130/130/130 128/128/128
f 125/125/125 122/122/122 132/132/132
f 128/128/128 125/125/125 132/132/132
f 132/132/132 122/122/122 133/133/133
f 122/122/122 119/119/119 133/133/133
f 128/128/128 132/132/132 133/133/133
f 134/134/134 131/131/131 128/128/128
f 134/134/134 128/128/128 133/133/133
f 134/134/134 135/135/135 131/131/131
f 134/134/134 136/136/136 135/135/135
f 136/136/136 134/134/134 137/137/137
f 137/137/137 134/134/134 138/138/138
f 134/134/134 133/133/133 138/138/138
f 138/138/138 139/139/139 137/137/137
f 133/133/133 119/119/119 140/140/140
f 133/133/133 140/140/140 138/138/138
f 140/140/140 119/119/119 141/141/141
f 138/138/138 140/140/140 141/141/141
f 138/138/138 141/141/141 142/142/142
f 142/142/142 139/139/139 138/138/138
f 143/143/143 139/139/139 142/142/142
f 144/144/144 145/145/145 146/146/146
f 145/145/145 144/144/144 147/147/147
f 147/147/147 148/148/148 145/145/145
f 147/147/147 149/149/149 148/148/148
f 147/147/147 150/150/150 149/149/149
f 149/149/149 150/150/150 151/151/151
f 147/147/147 144/144/144 152/152/152
f 150/150/150 147/147/147 152/152/152
f 150/150/150 153/153/153 151/151/151
f 151/151/151 153/153/153 154/154/154
f 153/153/153 155/155/155 154/154/154
f 154/154/154 155/155/155 156/156/156
f 156/156/156 155/155/155 157/157/157
f 155/155/155 158/158/158 157/157/157
f 157/157/157 158/158/158 159/159/159
f 159/159/159 158/158/158 160/160/160
f 160/160/160 158/158/158 161/161/161
f 158/158/158 162/162/162 161/161/161
f 150/150/150 163/163/163 153/153/153
f 163/163/163 155/155/155 153/153/153
f 164/164/164 155/155/155 163/163/163
f 155/155/155 165/165/165 158/158/158
f 165/165/165 155/155/155 164/164/164
f 158/158/158 166/166/166 162/162/162
f 158/158/158 165/165/165 166/166/166
f 162/162/162 166/166/166 167/167/167
f 166/166/166 165/165/165 167/167/167
f 165/165/165 164/164/164 167/167/167
f 162/162/162 167/167/167 168/168/168
f 167/167/167 169/169/169 168/168/168
f 170/170/170 167/167/167 164/164/164
f 171/171/171 163/163/163 150/150/150
f 171/171/171 150/150/150 152/152/152
f 170/170/170 164/164/164 172/172/172
f 170/170/170 172/172/172 173/173/173
f 174/174/174 164/164/164 163/163/163
f 174/174/174 163/163/163 171/171/171
f 175/175/175 172/172/172 164/164/164
f 174/174/174 175/175/175 164/164/164
f 176/176/176 173/173/173 172/172/172
f 175/175/175 176/176/176 172/172/172
f 177/177/177 176/176/176 175/175/175
f 175/175/175 174/174/174 178/178/178
f 171/171/171 178/178/178 174/174/174
f 175/175/175 178/178/178 177/177/177
f 178/178/178 171/171/171 179/179/179
f 177/177/177 178/178/178 179/179/179
f 171/171/171 152/152/152 180/180/180
f 179/179/179 171/171/171 180/180/180
f 181/181/181 173/173/173 176/176/176
f 173/173/173 181/181/181 182/182/182
f 176/176/176 183/183/183 181/181/181
f 181/181/181 183/183/183 182/182/182
f 184/184/184 183/183/183 176/176/176
f 183/183/183 184/184/184 182/182/182
f 184/184/184 176/176/176 177/177/177
f 184/184/184 185/185/185 182/182/182
f 177/177/177 185/185/185 184/184/184
f 186/186/186 185/185/185 177/177/177
f 186/186/186 177/177/177 187/187/187
f 187/187/187 177/177/177 179/179/179
f 186/186/186 187/187/187 188/188/188
f 179/179/179 188/188/188 187/187/187
f 189/189/189 186/186/186 188/188/188
f 190/190/190 188/188/188 179/179/179
f 179/179/179 180/180/180 190/190/190
f 190/190/190 189/189/189 188/188/188
f 180/180/180 191/191/191 190/190/190
f 180/180/180 152/152/152 191/191/191
f 190/190/190 192/192/192 189/189/189
f 191/191/191 192/192/192 190/190/190
f 192/192/192 193/193/193 189/189/189
f 193/193/193 192/192/192 191/191/191
f 152/152/152 194/194/194 191/191/191
f 194/194/194 193/193/193 191/191/191
f 144/144/144 194/194/194 152/152/152
f 193/193/193 194/194/194 144/144/144
