# jungle_ruins_beam_300_b_LOD0
v -2.96053243 -0.149999991 0.0659588575
v -2.95225644 -0.149999991 0.0304077193
v -2.93205261 -0.149999991 0.00646497728
v -2.95554996 -0.149999991 0.0983538628
v -2.19600344 -0.149999991 0.018106861
v -2.91736746 -0.149999991 -0.0268725976
v -2.23409605 -0.149999991 0.136120304
v -2.96211386 -0.149999991 0.149999991
v -1.50186563 -0.149999991 0.158666983
v -1.47706306 -0.149999991 0.0493565947
v -0.746381998 -0.16069515 0.162726358
v -0.731002927 -0.176646098 -0.0195936076
v -0.00960647594 -0.150191367 0.149559081
v -0.00966629013 -0.150356635 -0.149827719
v -0.729320824 -0.176908314 -0.137001142
v -1.47314012 -0.120444067 -0.141332999
v -2.19622731 -0.149999991 -0.163879693
v -2.93514943 -0.149999991 -0.149999991
v -2.93514943 -0.149999991 -0.0329389535
v -2.94410586 -0.149999991 -0.0827606246
v -2.95567894 -0.149999991 -0.106355585
v -2.93514943 -0.149999991 -0.149999991
v -2.93514943 -0.149999991 -0.0329389535
v -2.95739675 0.0488818362 -0.149999991
v -2.94196105 0.0042334008 -0.149999991
v -2.95558071 0.0135473618 -0.149999991
v -2.93514943 0.105060488 -0.149999991
v -2.20101047 0.0784852058 -0.163879693
v -2.93514943 -0.0301035251 -0.149999991
v -2.23249316 0.149999991 -0.163879693
v -2.96097255 0.149999991 -0.149999991
v -1.50079703 0.149999991 -0.141332999
v -2.18291259 -0.0651113391 -0.163879693
v -2.91926384 -0.0680248961 -0.149999991
v -2.9225924 -0.112316929 -0.149999991
v -1.47821438 0.0258810986 -0.141332999
v -0.745847583 0.112016514 -0.162278786
v -2.19622731 -0.149999991 -0.163879693
v -2.93514943 -0.149999991 -0.149999991
v -1.47314012 -0.120444067 -0.141332999
v -0.734821916 -0.0161990803 -0.151061371
v -0.00966049172 0.149508014 -0.150159046
v -0.729320824 -0.176908314 -0.137001142
v -0.00966629013 -0.150356635 -0.149827719
v -2.89581227 0.149999991 -0.0101318425
v -2.91828275 0.149999991 -0.0693505853
v -2.91567016 0.149999991 -0.0331054665
v -2.15748739 0.149999991 -0.0250881929
v -2.93514943 0.149999991 -0.0863118172
v -2.90903354 0.149999991 0.0022119293
v -2.95402837 0.149999991 -0.115339331
v -2.96097255 0.149999991 -0.149999991
v -2.23249316 0.149999991 -0.163879693
v -1.50079703 0.149999991 -0.141332999
v -2.91939807 0.149999991 0.0374755897
v -1.45404935 0.149999991 -0.00408030022
v -0.745847583 0.112016514 -0.162278786
v -0.720845759 0.124602325 -0.0184223652
v -0.00966049172 0.149508014 -0.150159046
v -0.00960647594 0.149795756 0.149307311
v -0.710600138 0.138163254 0.136579618
v -1.43030214 0.149999991 0.158666983
v -2.12675047 0.149999991 0.136120304
v -2.84240055 0.149999991 0.149999991
v -2.94362664 0.149999902 0.0819939151
v -2.93514943 0.149999991 0.0492125116
v -2.96322513 0.149999991 0.149999991
v -2.95515251 0.113056637 0.150000006
v -2.84240055 0.149999991 0.149999991
v -2.96322513 0.149999991 0.149999991
v -2.93514943 0.100077592 0.149999991
v -2.9256413 0.0443410389 0.149999991
v -2.90939069 0.0152075263 0.149999991
v -2.12675047 0.149999991 0.136120304
v -2.18178129 -0.0508151278 0.136120304
v -2.91606498 -0.00574950455 0.149999991
v -1.46130824 0.0592438765 0.158666983
v -1.43030214 0.149999991 0.158666983
v -0.726103187 -0.0202711094 0.150440827
v -0.710600138 0.138163254 0.136579618
v -0.00960647594 0.149795756 0.149307311
v -0.00960647594 -0.150191367 0.149559081
v -0.746381998 -0.16069515 0.162726358
v -1.47266996 -0.0583594777 0.158666983
v -1.50186563 -0.149999991 0.158666983
v -2.23409605 -0.149999991 0.136120304
v -2.93093038 -0.103994757 0.149999991
v -2.93514943 -0.0278497636 0.149999991
v -2.96211386 -0.149999991 0.149999991
v -0.00966049172 0.149508014 -0.150159046
v 0 -0.140325651 -0.140325651
v -0.00966629013 -0.150356635 -0.149827719
v 0 0.140325651 -0.140325651
v -0.00960647594 0.149795756 0.149307311
v 0 0.140325651 0.140325651
v -0.00960647594 -0.150191367 0.149559081
v 0 -0.140325651 0.140325651
v -2.94362664 0.149999902 0.0819939151
v -2.95515251 0.113056637 0.150000006
v -2.96322513 0.149999991 0.149999991
v -2.94245529 0.0871459618 0.0972611755
v -2.93514943 0.100077592 0.149999991
v -2.9256413 0.0443410389 0.149999991
v -2.94791865 0.0412757322 0.0720281079
v -2.96813583 0.0919194743 0.0228285212
v -2.93514943 0.149999991 0.0492125116
v -2.91605043 0.00555046648 0.114429884
v -2.90939069 0.0152075263 0.149999991
v -2.91606498 -0.00574950455 0.149999991
v -2.93514943 -0.0278497636 0.149999991
v -2.95124626 -0.0417165831 0.0973768234
v -2.93831658 0.0201346911 0.0350751393
v -2.92989826 -0.118047386 0.110663526
v -2.93093038 -0.103994757 0.149999991
v -2.96211386 -0.149999991 0.149999991
v -2.95554996 -0.149999991 0.0983538628
v -2.96360517 -0.126673579 0.0439990126
v -2.96053243 -0.149999991 0.0659588575
v -2.95225644 -0.149999991 0.0304077193
v -2.98616695 -0.0665750131 0.0242469758
v -2.93205261 -0.149999991 0.00646497728
v -2.93372083 -0.0556949973 0.0131422849
v -2.91736746 -0.149999991 -0.0268725976
v -2.90392303 -0.0120811285 0.0109529616
v -2.89185786 -0.0765789747 -0.0488650985
v -2.93222833 0.0617972352 0.00534512522
v -2.93230057 -0.106129102 -0.032963302
v -2.93514943 -0.149999991 -0.0329389535
v -2.9363296 -0.069135882 -0.0683144331
v -2.94410586 -0.149999991 -0.0827606246
v -2.94422483 -0.0780333728 -0.108511463
v -2.95567894 -0.149999991 -0.106355585
v -2.93514943 -0.149999991 -0.149999991
v -2.9225924 -0.112316929 -0.149999991
v -2.91926384 -0.0680248961 -0.149999991
v -2.93514943 -0.0301035251 -0.149999991
v -2.91085982 -0.0303876586 -0.0790280998
v -2.94196105 0.0042334008 -0.149999991
v -2.92259336 0.0433768444 -0.0330462866
v -2.93042207 0.008689031 -0.111109339
v -2.95558071 0.0135473618 -0.149999991
v -2.95739675 0.0488818362 -0.149999991
v -2.92935538 0.0651107952 -0.108109623
v -2.93514943 0.105060488 -0.149999991
v -2.96097255 0.149999991 -0.149999991
v -2.95402837 0.149999991 -0.115339331
v -2.93514943 0.149999991 -0.0863118172
v -2.93222213 0.091943197 -0.0686408803
v -2.91828275 0.149999991 -0.0693505853
v -2.91567016 0.149999991 -0.0331054665
v -2.92013383 0.0812518299 -0.0330673084
v -2.93301535 0.103531495 0.0181346741
v -2.90959525 0.114997029 -0.0112797758
v -2.89581227 0.149999991 -0.0101318425
v -2.90903354 0.149999991 0.0022119293
v -2.91939807 0.149999991 0.0374755897
v -2.94586229 0.154063284 -0.153596848
v -3.01789522 0.158049181 -0.15745014
v -2.99843192 0.155268997 -0.0768824369
v -2.93658447 0.152969554 -0.077281937
v -2.88976979 0.150420338 -0.151323974
v -2.98781824 0.156607449 -0.0213657655
v -2.87809157 0.150867924 -0.0770869777
v -2.92774749 0.153688565 -0.0210088398
v -2.97453427 0.162393942 0.0334145054
v -2.86733341 0.15102081 -0.0253594592
v -2.91668749 0.158699811 0.0347181708
v -2.85624528 0.15532352 0.0248717498
v -2.99209166 -0.0761302188 0.157702342
v -3.02425432 -0.156956121 0.147741333
v -2.94009137 -0.155160397 0.150976881
v -2.93439031 -0.0732079521 0.152478874
v -2.85471058 -0.150549605 0.149978429
v -2.86369634 -0.0704036504 0.149306923
v -2.85785055 0.0298258234 0.153065011
v -2.93462586 0.0286651421 0.155335918
v -3.00810504 0.0309300981 0.157702357
v -2.99394488 -0.0933272466 -0.158191979
v -2.97823906 -0.00297974912 -0.170601636
v -2.92506886 -0.00155528821 -0.156652451
v -2.91917634 -0.0898119211 -0.155036405
v -2.98291135 -0.150390923 -0.15187192
v -2.87425184 -0.0065317587 -0.155983821
v -2.90387082 -0.150205299 -0.15305008
v -2.86812329 -0.0897535756 -0.15393874
v -2.85280776 -0.150142968 -0.15344578
v -2.97881317 -0.157611713 0.0849768892
v -2.94826722 -0.15353848 0.14699313
v -2.98220873 -0.157447159 0.148165226
v -2.95004392 -0.153944746 0.0852473751
v -2.9109776 -0.148965314 0.0856146514
v -2.90675378 -0.14911598 0.143358469
v -2.90891957 -0.149180502 0.023786217
v -2.94584775 -0.154036 0.0232280139
v -2.97304273 -0.157611698 0.0228169393
v -2.95159745 -0.157611698 -0.0203923266
v -2.92590332 -0.154122993 -0.0198472496
v -2.89101243 -0.149385616 -0.0191070829
v -2.98699403 0.154023215 0.153902605
v -2.99278045 0.164531186 0.0825017989
v -3.0450139 0.163827047 0.157515734
v -2.93352556 0.157947436 0.0785172284
v -2.90083957 0.15044862 0.151050866
v -2.96812177 0.158282608 0.0173641685
v -2.85468888 0.151930109 0.0699173808
v -2.91027522 0.154588476 0.0186678302
v -2.83800554 0.151212186 0.0104518877
v -2.99621177 0.0574480705 -0.157427207
v -3.00720596 0.155832663 -0.157143831
v -2.94987583 0.154179052 -0.156915322
v -2.94106984 0.0572334751 -0.156856641
v -2.96534681 -0.0353191569 -0.157341331
v -2.88887334 0.152419508 -0.156672165
v -2.91173601 -0.035203442 -0.156706706
v -2.88239622 0.057005126 -0.156249553
v -2.85469151 -0.0350803174 -0.156031445
v -2.92675447 -0.155797511 -0.155348942
v -2.88169789 -0.154246464 -0.1535853
v -2.89242244 -0.15444006 -0.0928670168
v -2.93557477 -0.155925378 -0.0955606475
v -2.87247562 -0.154245079 -0.0182577409
v -2.91813898 -0.155860826 -0.0175937675
v -2.97824812 -0.157534927 -0.0984795615
v -2.97149158 -0.157478303 -0.157260105
v -2.96353388 -0.157611728 -0.0168742575
v -3.01305413 0.100229986 0.157702371
v -2.97890186 0.154456109 0.153919429
v -3.04005694 0.171494246 0.164873466
v -2.95771694 0.0997543111 0.156875327
v -2.90984488 0.150448531 0.151536152
v -2.96842027 0.053473033 0.157702371
v -2.89796782 0.0992407128 0.155982345
v -2.9179697 0.052128274 0.15756917
v -2.95440483 0.00770988455 0.157702371
v -2.86349654 0.050676316 0.157425344
v -2.90873671 -0.000464654731 0.150236398
v -2.85942793 -0.0115030129 0.144404739
v -2.92632627 0.0605055094 0.120332323
v -2.88895297 0.107055821 0.0103955138
v -3.00937891 0.13943857 -0.0213676374
v -3.05194259 0.0892452896 0.0971726701
v -3.06202602 0.0609796084 0.131775096
v -2.90603447 0.0489336438 0.116688661
v -2.9137938 -0.079225108 -0.026535796
v -3.00970626 -0.0715156272 -0.0168804005
v -2.89590907 -0.0685876459 0.122013941
v -3.01074147 -0.0456077345 -0.0158530623
v -3.01119065 -0.0659929439 0.128049716
v -2.89680719 -0.0455421731 -0.0157005358
v -2.89755154 0.0101169851 -0.129837021
v -3.01036954 0.00784662366 -0.135118335
v -2.88659668 -4.09517415E-05 0.0690694824
v -2.88442445 0.0248389877 -0.107271805
v -3.01572418 0.0504552871 -0.108446874
v -3.01977634 0.0226935688 0.0756172612
v -2.92037439 -0.117895961 0.0674544349
v -3.01083207 -0.126172781 -0.0275043957
v -3.06549549 -0.0928274766 0.0677110553
v -2.89337277 -0.151652843 -0.0427210927
v -3.06357813 -0.11394681 -0.114266574
v -2.87060666 -0.139773905 -0.116057031
v -3.06357813 -0.00296078832 -0.146745145
v -2.87060666 -0.0287878811 -0.148535594
v -2.89835262 0.0988954157 -0.0456429198
v -3.00594759 -0.0197731126 -0.0251472108
v -3.00764894 0.0916832015 -0.0651912764
v -2.89744067 -0.00923139974 -0.00654446706
v -3.00408006 -0.109824166 0.0685677007
v -2.89643979 -0.0956284329 0.0861326754
v -2.90635371 0.128236771 0.093445912
v -2.99952865 0.0671415105 0.134022951
v -2.99988699 0.133893728 0.0946616903
v -2.90706968 0.0667344853 0.133935481
v -2.9078002 -0.039545238 0.132281259
v -2.99916387 -0.0444950722 0.131217405
v -2.91981411 -0.117478855 -0.0689850524
v -3.01144338 -0.0590929911 -0.0841932595
v -3.00946355 -0.112432748 -0.0337700397
v -2.92229724 -0.0675335154 -0.116213523
v -2.92567444 0.0283636488 -0.134473413
v -3.01413608 0.0414199047 -0.106797375
v -2.99164605 0.138391241 -0.0100526446
v -2.99164605 0.138391241 0.0979945809
v -2.89746737 0.135840759 0.0920616612
v -2.89746737 0.135840744 -0.0159855671
v -2.99111438 0.125423238 -0.107297257
v -2.89853048 0.1260221 -0.105904169
v -2.89908171 0.0483760573 -0.129450515
v -2.99083924 0.0461444035 -0.134641811
vn 0 -1 0
vn 0 -1 0
vn 0 -1 0
vn 0 -1 0
vn 0 -1 0
vn 0 -1 0
vn 0 -1 0
vn 0 -1 0
vn -0.00304642948 -0.999995112 -0.000691235415
vn -0.0144128995 -0.998123467 -0.0595135242
vn -0.00379928993 -0.996215284 0.0868371651
vn 0.000368789915 -0.999513268 0.0311932899
vn 0.0349361636 -0.999362886 0.00730140368
vn 0.0367192216 -0.999324203 0.00165261049
vn -0.0113826329 -0.999933124 0.00207020529
vn -0.00976380985 -0.98812288 -0.153354958
vn 0.0124727394 -0.999922276 -1.53381607E-05
vn 0 -1 0
vn 0 -1 0
vn 0 -1 0
vn 0 -1 0
vn 0 -1 0
vn 0 -1 0
vn 0 0 -1
vn -0.0185751356 -0.00118230283 -0.999826849
vn 0 0 -1
vn -0.0190679878 -0.00490595168 -0.999806225
vn 0.00547731342 0.00270599197 -0.999981403
vn -0.0187170431 -0.00578760961 -0.999808133
vn -0.00162402005 -0.000714936701 -0.99999845
vn -0.0190483779 -0.010945607 -0.999758661
vn 0.0154763674 0.00281584333 -0.999876261
vn 0.00537390634 -0.000734341331 -0.999985337
vn -0.0188330617 -0.00323235849 -0.999817431
vn -0.0190099552 0.00390205486 -0.999811709
vn 0.00902091805 0.00106417411 -0.999958754
vn -0.0155892828 -0.0884754881 -0.995956361
vn 0.00246018195 -0.000385880558 -0.999996901
vn -0.0187800322 0.00625792518 -0.99980408
vn 0.0219851024 -0.00112011982 -0.999757707
vn 0.0017081796 -0.0870555863 -0.996201932
vn 0.00218310324 -0.00410835491 -0.999989152
vn -0.00766811473 -0.0874136165 -0.996142566
vn -0.0177796651 -0.00110439793 -0.999841332
vn 0 1 0
vn 0 1 0
vn 0 1 0
vn 0 1 0
vn 0 1 0
vn 0 1 0
vn 0 1 0
vn 0 1 0
vn 0 1 0
vn 0.00675884355 0.999974489 -0.0023020322
vn 0 1 0
vn 0.0114988629 0.999930024 -0.00279501406
vn 0.0194968991 0.995705545 -0.0905014798
vn 0.0176265705 0.996233761 -0.0848978162
vn -0.0361353159 0.999328017 -0.00614827964
vn -0.0336570553 0.999406099 -0.0073943371
vn 0.00405485788 0.996163249 -0.0874211341
vn 0.00394102093 0.999992132 -0.000575057347
vn 0 1 0
vn -5.81249651E-07 1 0
vn -1.23392397E-06 1 4.34339228E-07
vn 2.68521808E-06 1 3.6035824E-06
vn 0 1 -1.40233681E-06
vn 7.50679476E-07 4.22170075E-07 1
vn 0.0190019347 -0.00944375899 0.999774873
vn 0 2.58145008E-07 1
vn 1.08085644E-07 -2.00807918E-07 1
vn 0 0 1
vn 0.018172089 -0.0073966207 0.999807537
vn -0.0104102772 0.0028527996 0.999941826
vn -0.00612776959 0.00163409789 0.999979973
vn 0.0186184719 -0.004365406 0.999817193
vn -0.0120160924 0.00268180529 0.999924183
vn -0.00739732478 0.00252725533 0.999969482
vn -0.00102706673 0.0872811377 0.996183217
vn 0.0110089602 0.0860813856 0.996227264
vn 0.000257657666 0.00557950884 0.999984384
vn 0.0178566743 0.000839135319 0.99984014
vn 0.0114913536 0.0850126222 0.996313632
vn -0.0216808598 0.00449482771 0.999754846
vn -0.0282240696 0.00899186917 0.999561131
vn 0.00226725987 -0.00119585881 0.999996781
vn 0.0190869011 -0.00800927822 0.999785721
vn 0 0 1
vn 0.0190599989 -0.0129192993 0.999734819
vn 0.812258601 0.40447107 -0.420284539
vn 0.997966826 -0.0443251953 -0.0457961857
vn 0.819361866 -0.410634696 -0.400031596
vn 0.997978866 0.0457294211 -0.0441243164
vn 0.805347085 0.424654752 0.413623482
vn 0.997995377 0.0440680422 0.0454234034
vn 0.815023005 -0.421714604 0.397359282
vn 0.997997105 -0.0445050709 0.0449552462
vn -0.998343468 0.0550744459 0.0166471228
vn -0.629662812 -0.632889867 -0.450527668
vn -0.940390408 -0.205477431 -0.271006882
vn -0.990052402 0.0345035493 0.136402383
vn -0.826424122 -0.50959897 0.239441201
vn -0.914834201 -0.297506601 0.273071617
vn -0.970246077 -0.103779197 0.218751758
vn -0.997637033 0.0415345393 -0.0547290482
vn -0.649543405 0.527656674 -0.547422886
vn -0.911761105 0.0269689541 0.409834445
vn -0.877999306 -0.394270688 0.271418035
vn -0.774784148 0.602644742 0.191125125
vn -0.928160012 0.33547169 0.161175922
vn -0.968099892 0.144905239 0.204414159
vn -0.847717822 -0.311458111 -0.429381371
vn -0.883144021 0.17165181 0.436568767
vn -0.98442632 0.155774638 -0.0814803392
vn -0.785281956 0.599019885 -0.156548396
vn -0.960120022 0.169077814 0.222670436
vn -0.977836609 -0.169264957 0.123227522
vn -0.990803957 -0.00317599927 0.135268331
vn -0.788369238 -0.0254099574 -0.614677489
vn -0.905713618 0.276374012 -0.321403682
vn -0.752593577 -0.104312278 -0.650170684
vn -0.65093118 0.449823648 -0.611512303
vn -0.956480145 0.116346374 -0.267599016
vn -0.961018324 -0.0681626722 -0.267950803
vn -0.982417345 0.175584733 -0.0634533837
vn -0.904861569 -0.11553932 -0.409727007
vn -0.886091769 0.164127722 0.433478296
vn -0.966421485 0.0628891364 0.249147266
vn -0.918133974 0.23992762 0.315380216
vn -0.974657059 0.074463129 0.210947543
vn -0.94436115 0.318882555 -0.080597885
vn -0.980603039 0.152380154 -0.123280182
vn -0.864592612 0.164650261 -0.474731296
vn -0.796619713 0.191276327 -0.573420048
vn -0.806095839 -0.237153813 -0.54218787
vn -0.906954885 -0.286000997 0.309250951
vn -0.952280581 -0.0296880137 0.30377692
vn -0.911141455 -0.279941887 0.302413255
vn -0.98699224 -0.155845597 0.0394770801
vn -0.947531819 -0.135969147 0.289302289
vn -0.833152235 -0.206024915 0.513235986
vn -0.674953401 0.226499572 0.702236354
vn -0.998281956 -0.051112853 0.0286480282
vn -0.994773328 -0.0850856751 0.0564482026
vn -0.945222199 -0.319830358 0.065294534
vn -0.887924016 -0.223849043 0.401848912
vn -0.814193368 0.13110207 0.56559819
vn -0.991708577 -0.0170117468 0.127375856
vn -0.950307846 0.230723798 0.209000871
vn -0.980847359 0.0910213962 0.172202244
vn -0.935617507 0.0609430037 0.347715259
vn -0.69276613 0.297709793 -0.65684396
vn -0.878537655 0.350612164 -0.324411124
vn -0.919147789 0.356424332 0.167716622
vn -0.935589194 0.139962807 -0.324165374
vn 0 1 0
vn 0.0596945956 0.998191774 0.00704855332
vn 0.0540969595 0.998306751 0.0213802792
vn 0.0371371657 0.999306917 -0.00254263729
vn 0.03652687 0.999331117 -0.00177338498
vn 0.0654585138 0.99772197 -0.0163128022
vn 0.0487891473 0.997237682 -0.0560049079
vn 0.0359410979 0.999292731 -0.0110536395
vn 0.0443381704 0.997287154 -0.0587577075
vn 0.0659727231 0.99050343 -0.120625988
vn 0.04103918 0.998264253 -0.0422424898
vn 0.0515939929 0.993689299 -0.0995969921
vn 0.0402385853 0.994750082 -0.0940906182
vn 0.0935965031 -0.073307015 0.992907763
vn -0.035885822 -0.108157583 0.993485868
vn -0.0132283363 -0.0174028911 0.999761045
vn 0.0676296204 -0.0253961589 0.99738723
vn 0.011172845 0.00963021535 0.999891162
vn 0.0454425029 -0.0157708805 0.998842537
vn 0.0301352609 -0.0392065272 0.998776615
vn 0.0306460205 -0.0279501397 0.999139428
vn 0.0323373079 0.00483679213 0.999465287
vn 0.0476935133 -0.124794744 -0.991035581
vn 0.254233122 -0.174847797 -0.951206446
vn 0.127111822 -0.00967428833 -0.991841197
vn 0.0340543091 -0.0201192759 -0.99921751
vn -0.0145438844 -0.112847239 -0.993505836
vn 0.0108254915 -0.0237681307 -0.999658823
vn -0.0112549961 -0.0357190035 -0.999298453
vn 0.0215073526 -0.0118651418 -0.999698281
vn -0.00773622096 -0.0101246005 -0.999918818
vn 0.126333743 -0.991931617 0.0105495723
vn 0.110374086 -0.993884385 0.00336325914
vn 0.114696346 -0.993362069 0.00875049736
vn 0.126376152 -0.99196142 0.00644827075
vn 0.126459122 -0.991969168 -0.00226751063
vn 0.105037354 -0.994415164 -0.0102780322
vn 0.129996687 -0.991261482 0.022392327
vn 0.129989579 -0.991253436 0.0227921754
vn 0.130013153 -0.991280019 0.0214614831
vn 0.132876202 -0.988936245 0.0659476817
vn 0.132947102 -0.98908335 0.0635541826
vn 0.133043036 -0.989275813 0.0602726378
vn 0.126092017 0.982011199 0.140551731
vn 0.113401338 0.992458522 0.0465431474
vn 0.173049763 0.97634083 0.129662752
vn 0.0949995965 0.993444324 0.0635888875
vn 0.0428244583 0.998174548 0.0425860807
vn 0.0651602447 0.995358765 -0.0708166212
vn 0.0795836374 0.996299922 0.0324482732
vn 0.0495313928 0.998095334 -0.0367744341
vn 0.046788089 0.998904228 0.00106700312
vn 0.0103591895 0.00327895698 -0.999940991
vn 0.00408218987 0.00333630852 -0.999986172
vn 0.00397888198 -0.000243776522 -0.999992132
vn 0.010350354 0.000999093871 -0.999945998
vn 0.0118300235 0.00301034143 -0.999925494
vn 0.00386562594 -0.00416683964 -0.999983907
vn 0.0118320016 0.00213284348 -0.999927759
vn 0.0103406385 -0.00149119471 -0.999945402
vn 0.0118341064 0.00119205925 -0.999929309
vn 0.0358446874 -0.999352396 0.00315088616
vn 0.0342919752 -0.999407768 0.00287043559
vn 0.0345197432 -0.999402165 -0.0019193698
vn 0.036182601 -0.999342978 -0.00209539477
vn 0.0352618136 -0.999354899 -0.00681572361
vn 0.0368380435 -0.999293804 -0.00741071953
vn 0.0378441848 -0.999281108 -0.00224461476
vn 0.0374011882 -0.999294758 0.00333656045
vn 0.0384160914 -0.999230862 -0.00786723848
vn 0.0144626237 -0.0535021909 0.998463035
vn 0.153310552 0.112426132 0.981761813
vn 0.166448176 -0.0360876881 0.98538959
vn 0.0153224533 0.0458858311 0.998829186
vn 0.0398745313 0.0956081077 0.994620085
vn 0.00268569565 0.00170068524 0.999994993
vn 0.015391347 0.0546681918 0.998385906
vn 0.000987788546 -0.0618085191 0.998087466
vn 0.170203239 0.0521265492 0.984029353
vn 0.000253823149 -0.0891378969 0.996019185
vn 0.106077075 -0.119019836 0.987209201
vn 0.0708025023 -0.200003907 0.977233529
vn 0.127238989 0.897098958 0.423111975
vn 0.129358441 0.896562755 0.423605412
vn 0.128649294 0.895772755 0.42548871
vn 0.126702666 0.896279871 0.425004363
vn -0.00692671444 0.745288432 -0.666706264
vn -0.00690932572 0.745382249 -0.666601539
vn -0.00719042774 0.745388269 -0.666591763
vn -0.00721988967 0.745235503 -0.666762292
vn 0.0308160577 0.985849917 0.164773524
vn -0.000915071636 0.962963045 0.269632101
vn 0.029620016 0.989667535 0.140288353
vn -0.000946491549 0.955028355 0.296512753
vn -0.0385854803 0.898053169 0.438191235
vn -0.0374801978 0.911938667 0.408611357
vn 0.173291177 0.974914491 0.139684916
vn 0.188413382 0.972134709 0.139478996
vn 0.188008115 0.970564246 0.150525525
vn 0.173542798 0.973241627 0.150610894
vn 0.164297387 0.953694582 -0.251938432
vn 0.194926456 0.97289294 -0.124430805
vn 0.164816812 0.956583381 -0.240382284
vn 0.217025906 0.975253046 0.0422055051
vn 0.0796230808 0.536683321 0.84001857
vn 0.0864388198 0.590201139 0.802615047
vn 0.0464443639 0.280554742 0.95871371
vn 0.0464443602 0.280554652 0.95871371
vn 0.187262729 -0.332636803 -0.924275577
vn 0.192965418 -0.536811292 -0.821339071
vn 0.187257037 -0.329605877 -0.925361991
vn 0.19273676 -0.550804436 -0.812075675
vn 0.203862756 -0.70388633 -0.68042928
vn 0.203439593 -0.715061843 -0.668804109
vn -0.0440523364 -0.548985839 -0.834670007
vn -0.001822741 -0.203653753 -0.979041278
vn -0.0418888442 -0.507653832 -0.860542238
vn -0.00192574388 -0.228219539 -0.973607838
vn 0.0108030085 0.0154876886 -0.999821723
vn 0.010277018 0.0251553431 -0.99963069
vn 0.305987388 0.662101507 0.68410027
vn 0.341776699 0.419549286 0.840932369
vn 0.306602627 0.659860194 0.68598783
vn 0.343632162 0.392089009 0.853336573
vn 0.318438768 0.188122272 0.929089189
vn 0.320434183 0.216001064 0.9223153
vn 0.0233374629 0.998010337 -0.0585738383
vn 0.0270713437 0.999633551 0
vn 0.0270713437 0.999633551 0
vn 0.0237262622 0.998336792 -0.0525423661
vn 0.00386326341 0.799621761 -0.600491464
vn 0.0037194388 0.80501014 -0.593249381
vn 0.0470441952 0.289574772 -0.95599854
vn 0.0455006957 0.325869203 -0.944319248
vt 0.811283886 0.796943188
vt 0.803159118 0.816358864
vt 0.783324361 0.829434812
vt 0.806392372 0.779251337
vt 0.401648939 0.815379024
vt 0.769870281 0.847252488
vt 0.421435207 0.750978947
vt 0.812836409 0.751045704
vt 0.0300340056 0.750912249
vt 0.0170781575 0.810662389
vt -0.361367226 0.750845492
vt -0.369592607 0.850944519
vt -0.747731566 0.751113772
vt -0.7483356 0.915172338
vt -0.36848712 0.91510129
vt 0.0249922089 0.915171444
vt 0.401413828 0.914957225
vt 0.786364317 0.914885163
vt 0.786364317 0.850954533
vt 0.175218999 0.0189478546
vt 0.185410976 0.0189478546
vt 0.204263419 0.0189478546
vt 0.153698266 0.0189478546
vt 0.808205485 0.8596614
vt 0.79305166 0.835277498
vt 0.806422472 0.840364158
vt 0.786364317 0.890342355
vt 0.404034138 0.875844777
vt 0.786364317 0.816525042
vt 0.420540124 0.914901197
vt 0.811715961 0.914885163
vt 0.0293642879 0.914917231
vt 0.39461717 0.797381401
vt 0.770768881 0.795814991
vt 0.774036884 0.771625757
vt 0.0174828414 0.847213924
vt -0.361811519 0.914933264
vt 0.40163359 0.751000643
vt 0.786364317 0.751045823
vt 0.015126951 0.767016888
vt -0.367601871 0.844718874
vt -0.747920752 0.914949059
vt -0.370154798 0.75635618
vt -0.747490942 0.750940025
vt 0.747745752 0.827432156
vt 0.769805849 0.795090914
vt 0.767240882 0.814885497
vt 0.381221652 0.826835155
vt 0.786364317 0.785827875
vt 0.760725379 0.834173441
vt 0.804898322 0.769975066
vt 0.811715901 0.751045823
vt 0.420579016 0.75101006
vt 0.0294421315 0.750974298
vt 0.770900965 0.853432059
vt 0.00487074535 0.825964868
vt -0.361694753 0.750938594
vt -0.374928206 0.829846203
vt -0.747764051 0.750906467
vt -0.748055696 0.914674282
vt -0.380371809 0.914937973
vt -0.00764894485 0.91492033
vt 0.365073919 0.914902747
vt 0.737796843 0.914885163
vt 0.794686735 0.877744913
vt 0.786364317 0.859841943
vt 0.813927233 0.914885104
vt 0.806002319 0.771221757
vt 0.737796783 0.751045823
vt 0.813927114 0.751045823
vt 0.786364317 0.778310001
vt 0.777030289 0.808749437
vt 0.76107645 0.824660182
vt 0.363728821 0.748754084
vt 0.39811939 0.854074955
vt 0.767628729 0.836105466
vt 0.00785364769 0.793834567
vt -0.0103390217 0.746462286
vt -0.375240982 0.831829429
vt -0.384406835 0.744170547
vt -0.753401041 0.741868734
vt -0.755566835 0.923491299
vt -0.367269635 0.92137146
vt 0.0217459984 0.856532276
vt 0.0260990262 0.919209361
vt 0.419467717 0.917047262
vt 0.793840766 0.876605332
vt 0.786364317 0.848175168
vt 0.812836409 0.914885223
vt 0.024847012 0.148265302
vt 0.0290299132 0.0244081821
vt 0.0249885805 0.0201517846
vt 0.0290299132 0.144313067
vt 0.152792171 0.148384064
vt 0.148936555 0.144309297
vt 0.152899727 0.0202182047
vt 0.148936555 0.0244044289
vt 0.0772369355 0.962232769
vt 0.0421701781 0.945606947
vt 0.0418839045 0.964123785
vt 0.069158107 0.931007624
vt 0.0427980572 0.936878026
vt 0.0413353294 0.909572124
vt 0.081765756 0.907028794
vt 0.103302494 0.932096541
vt 0.0965848267 0.963920414
vt 0.0563745424 0.889571309
vt 0.0387123413 0.893763959
vt 0.0395215563 0.883138359
vt 0.0418134518 0.86941576
vt 0.0701515675 0.863504887
vt 0.102380291 0.896594405
vt 0.0601755381 0.825313032
vt 0.0409388766 0.830668807
vt 0.0435098894 0.801934123
vt 0.0706495643 0.808517337
vt 0.0956857353 0.818117201
vt 0.0858873129 0.807114065
vt 0.104975432 0.805920482
vt 0.100456417 0.845285237
vt 0.12222527 0.807043374
vt 0.113471985 0.856351852
vt 0.13709344 0.810960889
vt 0.11990124 0.880319238
vt 0.146400526 0.84952867
vt 0.120603994 0.918715298
vt 0.151177347 0.82729423
vt 0.145862848 0.807243943
vt 0.166285574 0.845841706
vt 0.171150655 0.806116462
vt 0.183076203 0.842890143
vt 0.182964772 0.806680083
vt 0.206757784 0.809149504
vt 0.207905114 0.829484642
vt 0.203712195 0.852163434
vt 0.201581836 0.86970526
vt 0.164449185 0.87021488
vt 0.203028634 0.887044609
vt 0.142189741 0.910022259
vt 0.18246524 0.891554773
vt 0.206002712 0.894116521
vt 0.20662117 0.910872877
vt 0.181029737 0.920313418
vt 0.202842951 0.939300478
vt 0.203498974 0.964392006
vt 0.18642351 0.96367836
vt 0.17068775 0.962537229
vt 0.161012694 0.934170544
vt 0.160035536 0.963635981
vt 0.143725127 0.964079499
vt 0.14141871 0.929898381
vt 0.114923462 0.941035986
vt 0.131147936 0.948509216
vt 0.130013093 0.967231691
vt 0.122643173 0.965521693
vt 0.105449229 0.965239704
vt 0.658958495 0.0773736984
vt 0.648600876 0.130432338
vt 0.710217655 0.12430387
vt 0.716398478 0.0784085318
vt 0.666469812 0.0359582603
vt 0.75247395 0.122287005
vt 0.722670138 0.0350654125
vt 0.759008825 0.0777590945
vt 0.794596076 0.11840383
vt 0.762102664 0.032497447
vt 0.801574111 0.0755874962
vt 0.80058223 0.029703306
vt 0.429567903 0.122911029
vt 0.485284984 0.145760149
vt 0.483732551 0.0886914134
vt 0.427213013 0.0760775432
vt 0.482241273 0.0331428051
vt 0.424951702 0.0303511769
vt 0.352935195 0.0344071425
vt 0.353880405 0.0850608423
vt 0.352075696 0.144679204
vt 0.596216559 0.0173019134
vt 0.547211051 0.0289626606
vt 0.546393394 0.0678814575
vt 0.594106555 0.0721043497
vt 0.6381706 0.036517486
vt 0.550251842 0.105065487
vt 0.638709784 0.0941254944
vt 0.594622612 0.109514304
vt 0.639701247 0.131282598
vt 0.412836909 0.650090039
vt 0.302759141 0.616086543
vt 0.306258053 0.66131109
vt 0.415866971 0.606408298
vt 0.422864348 0.547023475
vt 0.290314108 0.555031002
vt 0.515911579 0.564428151
vt 0.512483537 0.622014225
vt 0.509785831 0.664350092
vt 0.579660416 0.64985323
vt 0.581583381 0.609578431
vt 0.583972812 0.554875493
vt 0.571328223 0.627923429
vt 0.502453446 0.672046006
vt 0.581386209 0.682190299
vt 0.497792125 0.619309187
vt 0.56172061 0.551352084
vt 0.444361567 0.662683129
vt 0.48881036 0.54941839
vt 0.444543004 0.611319602
vt 0.436123163 0.54742384
vt 0.585599601 0.653405249
vt 0.671747327 0.65624845
vt 0.670300007 0.60604924
vt 0.585411787 0.605118871
vt 0.504370213 0.645591021
vt 0.668760002 0.552634597
vt 0.504471421 0.598644555
vt 0.585211933 0.553739607
vt 0.504579186 0.548691094
vt 0.710624039 0.613719881
vt 0.709479511 0.558406711
vt 0.639542043 0.535640776
vt 0.63162142 0.597847462
vt 0.554470003 0.548965812
vt 0.555245936 0.604881763
vt 0.6296947 0.667301178
vt 0.711899102 0.668653309
vt 0.555742264 0.660483301
vt 0.398718208 0.566845119
vt 0.447149515 0.606617093
vt 0.470958292 0.549204946
vt 0.391428947 0.619928718
vt 0.435218126 0.672529221
vt 0.350619823 0.57640177
vt 0.383766532 0.677384138
vt 0.343181461 0.624809146
vt 0.303954095 0.586597562
vt 0.335444272 0.677124858
vt 0.290650249 0.629776955
vt 0.274294853 0.676184595
vt 0.812241018 0.0621551052
vt 0.758020043 0.0544650927
vt 0.738563895 0.123222567
vt 0.812444508 0.127754241
vt 0.560814202 0.118032217
vt 0.542837024 0.0498972572
vt 0.464314938 0.0654534698
vt 0.469195455 0.106807292
vt 0.350364745 0.0742154792
vt 0.273008108 0.138940871
vt 0.354891062 0.139260486
vt 0.273331583 0.0746960118
vt 0.200406268 0.0751251057
vt 0.199378535 0.138681903
vt 0.28394118 0.660340786
vt 0.40666151 0.665174842
vt 0.412460595 0.573105454
vt 0.284208447 0.567065358
vt 0.498482019 0.0579528548
vt 0.459832937 0.126282096
vt 0.501518667 0.121498071
vt 0.44623524 0.0600730442
vt 0.420048684 0.123333342
vt 0.412763596 0.0361216329
vt 0.369818866 0.131003007
vt 0.368269444 0.0452867858
vt 0.419267684 0.0662202314
vt 0.363380134 0.125075296
vt 0.422911018 0.12192145
vt 0.36131078 0.0679353625
vt 0.297960907 0.124936536
vt 0.300332785 0.06973546
vt 0.560331702 0.603498816
vt 0.51323843 0.662775099
vt 0.562833786 0.663018823
vt 0.512847543 0.603568256
vt 0.444860846 0.604033589
vt 0.441741973 0.662543654
vt 0.875707209 0.0670188665
vt 0.835219443 0.1219576
vt 0.882103384 0.125802934
vt 0.835047185 0.0615764856
vt 0.771750152 0.0640605688
vt 0.769227207 0.123521149
vt 0.629250824 0.125027582
vt 0.698408306 0.124324724
vt 0.694015443 0.0640210956
vt 0.624928653 0.0649669617
vt 0.566453755 0.125109956
vt 0.567062676 0.0658181757
vt 0.515778244 0.0661654919
vt 0.512752295 0.124961302
g submesh0
f 1/1/1 2/2/2 3/3/3
f 1/1/1 3/3/3 4/4/4
f 5/5/5 4/4/4 3/3/3
f 5/5/5 3/3/3 6/6/6
f 4/4/4 5/5/5 7/7/7
f 4/4/4 7/7/7 8/8/8
f 9/9/9 7/7/7 5/5/5
f 9/9/9 5/5/5 10/10/10
f 11/11/11 9/9/9 10/10/10
f 11/11/11 10/10/10 12/12/12
f 11/11/11 12/12/12 13/13/13
f 12/12/12 14/14/14 13/13/13
f 12/12/12 15/15/15 14/14/14
f 15/15/15 12/12/12 10/10/10
f 15/15/15 10/10/10 16/16/16
f 16/16/16 10/10/10 5/5/5
f 16/16/16 5/5/5 17/17/17
f 17/17/17 5/5/5 6/6/6
f 17/17/17 6/6/6 18/18/18
f 18/18/18 6/6/6 19/19/19
f 20/20/20 21/21/21 22/22/22
f 20/20/20 22/22/22 23/23/23
f 24/24/24 25/25/25 26/26/26
f 24/24/24 27/27/27 25/25/25
f 28/28/28 25/25/25 27/27/27
f 28/28/28 29/29/29 25/25/25
f 30/30/30 28/28/28 27/27/27
f 30/30/30 27/27/27 31/31/31
f 28/28/28 30/30/30 32/32/32
f 28/28/28 33/33/33 29/29/29
f 33/33/33 34/34/34 29/29/29
f 33/33/33 35/35/35 34/34/34
f 28/28/28 32/32/32 36/36/36
f 33/33/33 28/28/28 36/36/36
f 36/36/36 32/32/32 37/37/37
f 35/35/35 33/33/33 38/38/38
f 35/35/35 38/38/38 39/39/39
f 38/38/38 33/33/33 40/40/40
f 40/40/40 33/33/33 36/36/36
f 36/36/36 37/37/37 41/41/41
f 40/40/40 36/36/36 41/41/41
f 41/41/41 37/37/37 42/42/42
f 40/40/40 41/41/41 43/43/43
f 44/44/44 41/41/41 42/42/42
f 44/44/44 43/43/43 41/41/41
f 45/45/45 46/46/46 47/47/47
f 48/48/48 46/46/46 45/45/45
f 49/49/49 46/46/46 48/48/48
f 48/48/48 45/45/45 50/50/50
f 51/51/51 49/49/49 48/48/48
f 52/52/52 51/51/51 48/48/48
f 48/48/48 53/53/53 52/52/52
f 54/54/54 53/53/53 48/48/48
f 48/48/48 50/50/50 55/55/55
f 54/54/54 48/48/48 56/56/56
f 57/57/57 54/54/54 56/56/56
f 57/57/57 56/56/56 58/58/58
f 57/57/57 58/58/58 59/59/59
f 58/58/58 60/60/60 59/59/59
f 58/58/58 61/61/61 60/60/60
f 58/58/58 62/62/62 61/61/61
f 58/58/58 56/56/56 62/62/62
f 56/56/56 63/63/63 62/62/62
f 56/56/56 48/48/48 63/63/63
f 64/64/64 63/63/63 48/48/48
f 64/64/64 48/48/48 55/55/55
f 65/65/65 64/64/64 55/55/55
f 65/65/65 55/55/55 66/66/66
f 64/64/64 65/65/65 67/67/67
f 68/68/68 69/69/69 70/70/70
f 68/68/68 71/71/71 69/69/69
f 72/72/72 69/69/69 71/71/71
f 73/73/73 69/69/69 72/72/72
f 73/73/73 74/74/74 69/69/69
f 73/73/73 75/75/75 74/74/74
f 75/75/75 73/73/73 76/76/76
f 74/74/74 75/75/75 77/77/77
f 74/74/74 77/77/77 78/78/78
f 78/78/78 77/77/77 79/79/79
f 78/78/78 79/79/79 80/80/80
f 80/80/80 79/79/79 81/81/81
f 79/79/79 82/82/82 81/81/81
f 79/79/79 83/83/83 82/82/82
f 84/84/84 79/79/79 77/77/77
f 84/84/84 83/83/83 79/79/79
f 77/77/77 75/75/75 84/84/84
f 84/84/84 85/85/85 83/83/83
f 75/75/75 85/85/85 84/84/84
f 75/75/75 86/86/86 85/85/85
f 75/75/75 76/76/76 87/87/87
f 86/86/86 75/75/75 87/87/87
f 87/87/87 76/76/76 88/88/88
f 86/86/86 87/87/87 89/89/89
f 90/90/90 91/91/91 92/92/92
f 90/90/90 93/93/93 91/91/91
f 94/94/94 93/93/93 90/90/90
f 94/94/94 95/95/95 93/93/93
f 91/91/91 93/93/93 95/95/95
f 96/96/96 95/95/95 94/94/94
f 92/92/92 91/91/91 97/97/97
f 92/92/92 97/97/97 96/96/96
f 91/91/91 95/95/95 97/97/97
f 96/96/96 97/97/97 95/95/95
g submesh1
f 98/98/98 99/99/99 100/100/100
f 99/99/99 98/98/98 101/101/101
f 99/99/99 101/101/101 102/102/102
f 101/101/101 103/103/103 102/102/102
f 104/104/104 101/101/101 98/98/98
f 101/101/101 104/104/104 103/103/103
f 98/98/98 105/105/105 104/104/104
f 105/105/105 98/98/98 106/106/106
f 103/103/103 104/104/104 107/107/107
f 103/103/103 107/107/107 108/108/108
f 107/107/107 109/109/109 108/108/108
f 107/107/107 110/110/110 109/109/109
f 107/107/107 104/104/104 111/111/111
f 107/107/107 111/111/111 110/110/110
f 112/112/112 111/111/111 104/104/104
f 105/105/105 112/112/112 104/104/104
f 110/110/110 111/111/111 113/113/113
f 110/110/110 113/113/113 114/114/114
f 114/114/114 113/113/113 115/115/115
f 115/115/115 113/113/113 116/116/116
f 116/116/116 113/113/113 111/111/111
f 117/117/117 116/116/116 111/111/111
f 117/117/117 118/118/118 116/116/116
f 118/118/118 117/117/117 119/119/119
f 119/119/119 117/117/117 120/120/120
f 117/117/117 111/111/111 120/120/120
f 119/119/119 120/120/120 121/121/121
f 121/121/121 120/120/120 122/122/122
f 120/120/120 111/111/111 122/122/122
f 122/122/122 123/123/123 121/121/121
f 112/112/112 124/124/124 111/111/111
f 111/111/111 124/124/124 122/122/122
f 122/122/122 125/125/125 123/123/123
f 124/124/124 125/125/125 122/122/122
f 126/126/126 124/124/124 112/112/112
f 105/105/105 126/126/126 112/112/112
f 123/123/123 125/125/125 127/127/127
f 123/123/123 127/127/127 128/128/128
f 129/129/129 128/128/128 127/127/127
f 125/125/125 129/129/129 127/127/127
f 129/129/129 130/130/130 128/128/128
f 129/129/129 131/131/131 130/130/130
f 130/130/130 131/131/131 132/132/132
f 131/131/131 133/133/133 132/132/132
f 131/131/131 134/134/134 133/133/133
f 134/134/134 131/131/131 135/135/135
f 131/131/131 136/136/136 135/135/135
f 129/129/129 137/137/137 131/131/131
f 131/131/131 137/137/137 136/136/136
f 125/125/125 137/137/137 129/129/129
f 138/138/138 136/136/136 137/137/137
f 137/137/137 125/125/125 139/139/139
f 125/125/125 124/124/124 139/139/139
f 139/139/139 124/124/124 126/126/126
f 138/138/138 137/137/137 140/140/140
f 137/137/137 139/139/139 140/140/140
f 138/138/138 140/140/140 141/141/141
f 140/140/140 142/142/142 141/141/141
f 143/143/143 142/142/142 140/140/140
f 143/143/143 144/144/144 142/142/142
f 143/143/143 145/145/145 144/144/144
f 145/145/145 143/143/143 146/146/146
f 143/143/143 147/147/147 146/146/146
f 148/148/148 143/143/143 140/140/140
f 143/143/143 148/148/148 147/147/147
f 148/148/148 140/140/140 139/139/139
f 148/148/148 149/149/149 147/147/147
f 150/150/150 149/149/149 148/148/148
f 151/151/151 148/148/148 139/139/139
f 151/151/151 139/139/139 126/126/126
f 150/150/150 148/148/148 151/151/151
f 126/126/126 152/152/152 151/151/151
f 105/105/105 152/152/152 126/126/126
f 105/105/105 106/106/106 152/152/152
f 153/153/153 150/150/150 151/151/151
f 152/152/152 153/153/153 151/151/151
f 153/153/153 152/152/152 106/106/106
f 153/153/153 154/154/154 150/150/150
f 154/154/154 153/153/153 155/155/155
f 106/106/106 155/155/155 153/153/153
f 106/106/106 156/156/156 155/155/155
f 157/157/157 158/158/158 159/159/159
f 157/157/157 159/159/159 160/160/160
f 161/161/161 157/157/157 160/160/160
f 162/162/162 160/160/160 159/159/159
f 161/161/161 160/160/160 163/163/163
f 162/162/162 164/164/164 160/160/160
f 164/164/164 163/163/163 160/160/160
f 165/165/165 164/164/164 162/162/162
f 164/164/164 166/166/166 163/163/163
f 165/165/165 167/167/167 164/164/164
f 167/167/167 166/166/166 164/164/164
f 167/167/167 168/168/168 166/166/166
f 169/169/169 170/170/170 171/171/171
f 169/169/169 171/171/171 172/172/172
f 172/172/172 171/171/171 173/173/173
f 172/172/172 173/173/173 174/174/174
f 175/175/175 172/172/172 174/174/174
f 175/175/175 176/176/176 172/172/172
f 169/169/169 172/172/172 176/176/176
f 169/169/169 176/176/176 177/177/177
f 178/178/178 179/179/179 180/180/180
f 178/178/178 180/180/180 181/181/181
f 182/182/182 178/178/178 181/181/181
f 181/181/181 180/180/180 183/183/183
f 182/182/182 181/181/181 184/184/184
f 181/181/181 183/183/183 185/185/185
f 184/184/184 181/181/181 185/185/185
f 184/184/184 185/185/185 186/186/186
f 187/187/187 188/188/188 189/189/189
f 187/187/187 190/190/190 188/188/188
f 188/188/188 190/190/190 191/191/191
f 188/188/188 191/191/191 192/192/192
f 190/190/190 193/193/193 191/191/191
f 187/187/187 194/194/194 190/190/190
f 190/190/190 194/194/194 193/193/193
f 187/187/187 195/195/195 194/194/194
f 196/196/196 194/194/194 195/195/195
f 196/196/196 197/197/197 194/194/194
f 193/193/193 194/194/194 197/197/197
f 193/193/193 197/197/197 198/198/198
f 199/199/199 200/200/200 201/201/201
f 199/199/199 202/202/202 200/200/200
f 203/203/203 202/202/202 199/199/199
f 204/204/204 200/200/200 202/202/202
f 203/203/203 205/205/205 202/202/202
f 204/204/204 202/202/202 206/206/206
f 206/206/206 202/202/202 205/205/205
f 206/206/206 205/205/205 207/207/207
f 208/208/208 209/209/209 210/210/210
f 208/208/208 210/210/210 211/211/211
f 212/212/212 208/208/208 211/211/211
f 211/211/211 210/210/210 213/213/213
f 212/212/212 211/211/211 214/214/214
f 211/211/211 213/213/213 215/215/215
f 214/214/214 211/211/211 215/215/215
f 214/214/214 215/215/215 216/216/216
f 217/217/217 218/218/218 219/219/219
f 217/217/217 219/219/219 220/220/220
f 220/220/220 219/219/219 221/221/221
f 220/220/220 221/221/221 222/222/222
f 217/217/217 220/220/220 223/223/223
f 223/223/223 220/220/220 222/222/222
f 217/217/217 223/223/223 224/224/224
f 223/223/223 222/222/222 225/225/225
f 226/226/226 227/227/227 228/228/228
f 226/226/226 229/229/229 227/227/227
f 230/230/230 227/227/227 229/229/229
f 229/229/229 226/226/226 231/231/231
f 230/230/230 229/229/229 232/232/232
f 229/229/229 231/231/231 233/233/233
f 232/232/232 229/229/229 233/233/233
f 234/234/234 233/233/233 231/231/231
f 232/232/232 233/233/233 235/235/235
f 234/234/234 236/236/236 233/233/233
f 236/236/236 235/235/235 233/233/233
f 236/236/236 237/237/237 235/235/235
f 238/238/238 239/239/239 240/240/240
f 238/238/238 240/240/240 241/241/241
f 242/242/242 243/243/243 244/244/244
f 242/242/242 244/244/244 245/245/245
f 246/246/246 247/247/247 248/248/248
f 246/246/246 249/249/249 247/247/247
f 247/247/247 249/249/249 250/250/250
f 247/247/247 250/250/250 251/251/251
f 252/252/252 253/253/253 254/254/254
f 252/252/252 254/254/254 255/255/255
f 256/256/256 257/257/257 258/258/258
f 256/256/256 259/259/259 257/257/257
f 260/260/260 257/257/257 259/259/259
f 260/260/260 259/259/259 261/261/261
f 261/261/261 262/262/262 260/260/260
f 261/261/261 263/263/263 262/262/262
f 264/264/264 265/265/265 266/266/266
f 264/264/264 267/267/267 265/265/265
f 268/268/268 265/265/265 267/267/267
f 268/268/268 267/267/267 269/269/269
f 270/270/270 271/271/271 272/272/272
f 270/270/270 273/273/273 271/271/271
f 271/271/271 273/273/273 274/274/274
f 271/271/271 274/274/274 275/275/275
f 276/276/276 277/277/277 278/278/278
f 276/276/276 279/279/279 277/277/277
f 277/277/277 279/279/279 280/280/280
f 277/277/277 280/280/280 281/281/281
f 282/282/282 283/283/283 284/284/284
f 282/282/282 284/284/284 285/285/285
f 285/285/285 286/286/286 282/282/282
f 285/285/285 287/287/287 286/286/286
f 286/286/286 287/287/287 288/288/288
f 286/286/286 288/288/288 289/289/289
