# jungle_powerbox_d_col
v 0.0305451006 -0.00224480615 -0.00395992072
v -0.229775652 -0.00224480615 -0.00395992072
v -0.229775652 0.211532816 -0.00395988626
v 0.0305451006 0.211532816 -0.00395988626
v 0.0305451006 -0.00224483479 0.143132135
v 0.0305451006 0.211532772 0.143132165
v -0.229775652 0.211532772 0.143132165
v -0.229775652 -0.00224483479 0.143132135
v 0.0305451006 -0.00224480615 -0.00395992072
v 0.0305451006 -0.00224483479 0.143132135
v -0.229775652 -0.00224483479 0.143132135
v -0.229775652 -0.00224480615 -0.00395992072
v -0.229775652 -0.00224480615 -0.00395992072
v -0.229775652 -0.00224483479 0.143132135
v -0.229775652 0.211532772 0.143132165
v -0.229775652 0.211532816 -0.00395988626
v -0.229775652 0.211532816 -0.00395988626
v -0.229775652 0.211532772 0.143132165
v 0.0305451006 0.211532772 0.143132165
v 0.0305451006 0.211532816 -0.00395988626
v 0.0305451006 0.211532816 -0.00395988626
v 0.0305451006 0.211532772 0.143132165
v 0.0305451006 -0.00224483479 0.143132135
v 0.0305451006 -0.00224480615 -0.00395992072
vn 0 1.62920685E-07 -1
vn 0 1.62920685E-07 -1
vn 0 1.62920685E-07 -1
vn 0 1.62920685E-07 -1
vn 0 -1.78442292E-07 1
vn 0 -1.78442292E-07 1
vn 0 -1.78442292E-07 1
vn 0 -1.78442292E-07 1
vn 0 -1 -1.94505617E-07
vn 0 -1 -1.94505617E-07
vn 0 -1 -1.94505617E-07
vn 0 -1 -1.94505617E-07
vn -1 0 0
vn -1 0 0
vn -1 0 0
vn -1 0 0
vn 0 1 1.94505617E-07
vn 0 1 1.94505617E-07
vn 0 1 1.94505617E-07
vn 0 1 1.94505617E-07
vn 1 0 0
vn 1 0 0
vn 1 0 0
vn 1 0 0
g submesh0
f 1//1 2//2 3//3
f 1//1 3//3 4//4
f 5//5 6//6 7//7
f 5//5 7//7 8//8
f 9//9 10//10 11//11
f 9//9 11//11 12//12
f 13//13 14//14 15//15
f 13//13 15//15 16//16
f 17//17 18//18 19//19
f 17//17 19//19 20//20
f 21//21 22//22 23//23
f 21//21 23//23 24//24
