# jungle_ruins_beam_300_a_LOD0
v -0.637397945 0.131479487 0.133100584
v -0.012644195 0.149632603 0.14966476
v -0.012644195 0.149632603 -0.150335237
v -0.637397945 0.131479487 -0.166899413
v -1.17899084 0.149999991 0.149429187
v -1.20513749 0.149999991 -0.149429187
v -1.96184814 0.149999991 0.135237724
v -1.96184814 0.149999991 -0.164762259
v -2.49964237 0.162502557 0.136355832
v -2.49964237 0.136355832 -0.162502557
v -2.98735523 0.149655178 -0.15031597
v -2.98735523 0.15031597 0.149655178
v -0.637397945 0.131479487 -0.166899413
v -0.012644195 0.149632603 -0.150335237
v -0.012644195 -0.150367394 -0.150335237
v -0.637397945 -0.16852051 -0.166899413
v -1.20513749 0.149999991 -0.149429187
v -1.20513749 -0.149999991 -0.149429187
v -1.96184814 0.149999991 -0.164762259
v -1.96184814 -0.149999991 -0.164762259
v -2.49964237 0.136355832 -0.162502557
v -2.49964237 -0.162502557 -0.136355832
v -2.98735523 -0.15031597 -0.149655178
v -2.98735523 0.149655178 -0.15031597
v -0.012644195 -0.150367394 -0.150335237
v -0.012644195 -0.150367394 0.14966476
v -0.637397945 -0.16852051 0.133100584
v -0.637397945 -0.16852051 -0.166899413
v -1.20513749 -0.149999991 -0.149429187
v -1.17899084 -0.149999991 0.149429217
v -1.96184814 -0.149999991 -0.164762259
v -1.96184814 -0.149999991 0.135237724
v -2.49964237 -0.162502557 -0.136355832
v -2.49964237 -0.136355832 0.162502557
v -2.98735523 -0.149655178 0.15031597
v -2.98735523 -0.15031597 -0.149655178
v -0.012644195 -0.150367394 0.14966476
v -0.012644195 0.149632603 0.14966476
v -0.637397945 0.131479487 0.133100584
v -0.637397945 -0.16852051 0.133100584
v -1.17899084 -0.149999991 0.149429217
v -1.17899084 0.149999991 0.149429187
v -1.96184814 -0.149999991 0.135237724
v -1.96184814 0.149999991 0.135237724
v -2.49964237 -0.136355832 0.162502557
v -2.49964237 0.162502557 0.136355832
v -2.98735523 0.15031597 0.149655178
v -2.98735523 -0.149655178 0.15031597
v -2.98735523 -0.149655178 0.15031597
v -3.00000048 -0.137346029 0.137346029
v -3.00000048 -0.137346029 -0.137346029
v -2.98735523 -0.15031597 -0.149655178
v -2.98735523 0.15031597 0.149655178
v -3.00000048 0.137346029 -0.137346029
v -2.98735523 0.149655178 -0.15031597
v -3.00000048 0.137346029 0.137346029
v -0.012644195 -0.150367394 -0.150335237
v 0 -0.137346029 0.137346029
v -0.012644195 -0.150367394 0.14966476
v 0 -0.137346029 -0.137346029
v -0.012644195 0.149632603 -0.150335237
v 0 0.137346029 0.137346029
v -0.012644195 0.149632603 0.14966476
v 0 0.137346029 -0.137346029
vn 0.000716818322 0.999999762 0
vn -0.0290441755 0.999578178 0
vn -0.0290441755 0.999578178 0
vn -0.00010086086 1 0
vn 0.0151793193 0.99988389 -0.00132801686
vn 0.0128340013 0.99991703 -0.00112282846
vn 0.0132363569 0.999912381 0
vn -0.0145714181 0.999893904 0
vn -0.0023748579 0.996191859 -0.0871554688
vn -0.000563721405 0.996194601 -0.0871557221
vn 0.0272036027 0.999627471 -0.00220202934
vn -0.0250393581 0.999684095 -0.0022021539
vn -0.000791511324 0 -0.999999762
vn 0.0265038181 0 -0.99964869
vn 0.0265038181 0 -0.99964869
vn -0.000726785744 0 -0.999999762
vn -0.00135192322 0 -0.999999166
vn -0.00187067199 0 -0.999998331
vn 0.0101914164 0 -0.999948144
vn -0.0103458939 0 -0.999946475
vn -0.0139953624 -0.0871471912 -0.996097147
vn -0.0146300662 -0.0871464014 -0.996088147
vn 0.0272036027 -0.00220202911 -0.999627471
vn -0.0250393581 -0.00220215414 -0.999684095
vn 0.0290441755 -0.999578178 0
vn 0.0290441755 -0.999578178 0
vn -0.000716818322 -0.999999762 0
vn 0.00010086086 -1 0
vn -0.0128340023 -0.99991703 0.00112282846
vn -0.0151793193 -0.99988389 0.00132801686
vn 0.0131732859 -0.999913216 0
vn -0.0146328891 -0.99989295 0
vn 0.000465517602 -0.996194601 0.0871557146
vn 0.00225496339 -0.996192098 0.087155506
vn 0.0272036027 -0.999627471 0.00220202911
vn -0.0250393618 -0.999684095 0.00220215414
vn -0.0265038181 0 0.99964869
vn -0.0265038181 0 0.99964869
vn -0.00015685102 0 1
vn -0.000248918484 0 1
vn 0.00186518626 0 0.999998331
vn 0.00135751534 0 0.999999166
vn 0.00961845275 0 0.999953747
vn -0.00982380565 0 0.99995172
vn 0.0146103781 0.0871464312 0.996088386
vn 0.0140128378 0.0871471614 0.996096909
vn 0.0272036027 0.00220202911 0.999627471
vn -0.0250393581 0.00220215414 0.999684095
vn -0.816421211 -0.405064464 0.411557019
vn -0.996521831 -0.0601787083 0.0576442443
vn -0.996521831 -0.0576442443 -0.0601787083
vn -0.816421211 -0.411557019 -0.405064464
vn -0.816421211 0.411557019 0.405064464
vn -0.996521831 0.0601787083 -0.0576442443
vn -0.816421211 0.405064464 -0.411557019
vn -0.996521831 0.0576442443 0.0601787083
vn 0.824051857 -0.400960207 -0.400211662
vn 0.996525705 -0.0583607182 0.0594176017
vn 0.817149162 -0.415882885 0.399134845
vn 0.996530831 -0.0588243902 -0.0588719696
vn 0.816458702 0.399806231 -0.416593492
vn 0.99652195 0.0589482524 0.0588989817
vn 0.808942139 0.415305763 0.416093528
vn 0.996525347 0.0594219044 -0.0583633333
vt 0.465185791 0.914885163
vt 0.137639031 0.914885163
vt 0.137639031 0.751045823
vt 0.465185791 0.751045823
vt 0.755989432 0.914885163
vt 0.755989432 0.751045823
vt 1.1595763 0.914885163
vt 1.15957618 0.751045823
vt 1.44153404 0.914885163
vt 1.44153404 0.751045823
vt 1.69722652 0.751045823
vt 1.69722652 0.914885163
vt 0.465185791 0.914885163
vt 0.137639031 0.914885163
vt 0.137639001 0.751045823
vt 0.465185761 0.751045823
vt 0.755989432 0.914885163
vt 0.755989432 0.751045823
vt 1.15957618 0.914885163
vt 1.15957618 0.751045823
vt 1.44153404 0.914885163
vt 1.44153404 0.751045823
vt 1.69722652 0.751045823
vt 1.69722652 0.914885163
vt 0.137639001 0.914885163
vt 0.137639001 0.751045823
vt 0.465185761 0.751045823
vt 0.465185761 0.914885163
vt 0.755989432 0.914885163
vt 0.755989432 0.751045823
vt 1.15957618 0.914885163
vt 1.15957618 0.751045823
vt 1.44153404 0.914885163
vt 1.44153404 0.751045823
vt 1.69722652 0.751045823
vt 1.69722652 0.914885163
vt 0.137639001 0.914885163
vt 0.137638986 0.751045823
vt 0.465185761 0.751045823
vt 0.465185761 0.914885163
vt 0.755989432 0.914885163
vt 0.755989432 0.751045823
vt 1.15957618 0.914885163
vt 1.1595763 0.751045823
vt 1.44153404 0.914885163
vt 1.44153416 0.751045823
vt 1.69722664 0.751045823
vt 1.69722652 0.914885163
vt 0.0210193973 0.0215298031
vt 0.0263788793 0.0266162269
vt 0.139888123 0.0266162325
vt 0.14497453 0.0212567504
vt 0.0212924443 0.145484939
vt 0.139888123 0.140125483
vt 0.145247579 0.145211905
vt 0.02637887 0.140125468
vt 0.0526904687 0.020284716
vt 0.171789214 0.0256454293
vt 0.176915824 0.0202814508
vt 0.0580434613 0.0256484225
vt 0.0526904687 0.144509807
vt 0.171789214 0.139390931
vt 0.176915839 0.144506529
vt 0.0580434687 0.139393911
g submesh0
f 1/1/1 2/2/2 3/3/3
f 1/1/1 3/3/3 4/4/4
f 5/5/5 1/1/1 4/4/4
f 5/5/5 4/4/4 6/6/6
f 7/7/7 5/5/5 6/6/6
f 7/7/7 6/6/6 8/8/8
f 9/9/9 7/7/7 8/8/8
f 9/9/9 8/8/8 10/10/10
f 9/9/9 10/10/10 11/11/11
f 9/9/9 11/11/11 12/12/12
f 13/13/13 14/14/14 15/15/15
f 13/13/13 15/15/15 16/16/16
f 17/17/17 13/13/13 16/16/16
f 17/17/17 16/16/16 18/18/18
f 19/19/19 17/17/17 18/18/18
f 19/19/19 18/18/18 20/20/20
f 21/21/21 19/19/19 20/20/20
f 21/21/21 20/20/20 22/22/22
f 21/21/21 22/22/22 23/23/23
f 21/21/21 23/23/23 24/24/24
f 25/25/25 26/26/26 27/27/27
f 25/25/25 27/27/27 28/28/28
f 29/29/29 28/28/28 27/27/27
f 29/29/29 27/27/27 30/30/30
f 31/31/31 29/29/29 30/30/30
f 31/31/31 30/30/30 32/32/32
f 33/33/33 31/31/31 32/32/32
f 33/33/33 32/32/32 34/34/34
f 33/33/33 34/34/34 35/35/35
f 33/33/33 35/35/35 36/36/36
f 37/37/37 38/38/38 39/39/39
f 37/37/37 39/39/39 40/40/40
f 41/41/41 40/40/40 39/39/39
f 41/41/41 39/39/39 42/42/42
f 43/43/43 41/41/41 42/42/42
f 43/43/43 42/42/42 44/44/44
f 45/45/45 43/43/43 44/44/44
f 45/45/45 44/44/44 46/46/46
f 45/45/45 46/46/46 47/47/47
f 45/45/45 47/47/47 48/48/48
f 49/49/49 50/50/50 51/51/51
f 49/49/49 51/51/51 52/52/52
f 53/53/53 50/50/50 49/49/49
f 52/52/52 51/51/51 54/54/54
f 54/54/54 51/51/51 50/50/50
f 52/52/52 54/54/54 55/55/55
f 55/55/55 56/56/56 53/53/53
f 53/53/53 56/56/56 50/50/50
f 54/54/54 50/50/50 56/56/56
f 55/55/55 54/54/54 56/56/56
f 57/57/57 58/58/58 59/59/59
f 57/57/57 60/60/60 58/58/58
f 61/61/61 60/60/60 57/57/57
f 59/59/59 58/58/58 62/62/62
f 60/60/60 62/62/62 58/58/58
f 59/59/59 62/62/62 63/63/63
f 63/63/63 64/64/64 61/61/61
f 61/61/61 64/64/64 60/60/60
f 60/60/60 64/64/64 62/62/62
f 63/63/63 62/62/62 64/64/64
