# jungle_ruins_beam_300_a_LOD2
v -1.57041943 0.149999991 0.142333463
v -0.0063220975 0.143489316 0.143505394
v -0.0063220975 0.143489316 -0.143840641
v -1.58349288 0.149999991 -0.15709573
v -2.99367785 0.143831 0.143500611
v -2.99367785 0.143500611 -0.143831
v -1.58349288 0.149999991 -0.15709573
v -0.0063220975 0.143489316 -0.143840641
v -0.0063220975 -0.143856719 -0.143840641
v -1.58349288 -0.149999991 -0.15709573
v -2.99367785 0.143500611 -0.143831
v -2.99367785 -0.143831 -0.143500611
v -0.0063220975 -0.143856719 -0.143840641
v -0.0063220975 -0.143856719 0.143505394
v -1.57041943 -0.149999991 0.142333463
v -1.58349288 -0.149999991 -0.15709573
v -2.99367785 -0.143831 -0.143500611
v -2.99367785 -0.143500611 0.143831
v -0.0063220975 -0.143856719 0.143505394
v -0.0063220975 0.143489316 0.143505394
v -1.57041943 0.149999991 0.142333463
v -1.57041943 -0.149999991 0.142333463
v -2.99367785 -0.143500611 0.143831
v -2.99367785 0.143831 0.143500611
v -0.0063220975 -0.143856719 -0.143840641
v -0.0063220975 0.143489316 -0.143840641
v -0.0063220975 0.143489316 0.143505394
v -0.0063220975 -0.143856719 0.143505394
v -2.99367785 0.143500611 -0.143831
v -2.99367785 -0.143831 -0.143500611
v -2.99367785 -0.143500611 0.143831
v -2.99367785 0.143831 0.143500611
vn 0.0151793193 0.99988389 -0.00132801686
vn -0.0290441755 0.999578178 0
vn -0.0290441755 0.999578178 0
vn 0.0128340013 0.99991703 -0.00112282846
vn -0.0250393581 0.999684095 -0.0022021539
vn 0.0272036027 0.999627471 -0.00220202934
vn -0.00135192322 0 -0.999999166
vn 0.0265038181 0 -0.99964869
vn 0.0265038181 0 -0.99964869
vn -0.00187067199 0 -0.999998331
vn -0.0250393581 -0.00220215414 -0.999684095
vn 0.0272036027 -0.00220202911 -0.999627471
vn 0.0290441755 -0.999578178 0
vn 0.0290441755 -0.999578178 0
vn -0.0151793193 -0.99988389 0.00132801686
vn -0.0128340023 -0.99991703 0.00112282846
vn -0.0250393618 -0.999684095 0.00220215414
vn 0.0272036027 -0.999627471 0.00220202911
vn -0.0265038181 0 0.99964869
vn -0.0265038181 0 0.99964869
vn 0.00135751534 0 0.999999166
vn 0.00186518626 0 0.999998331
vn -0.0250393581 0.00220215414 0.999684095
vn 0.0272036027 0.00220202911 0.999627471
vn 0.996530831 -0.0588243902 -0.0588719696
vn 0.996525347 0.0594219044 -0.0583633333
vn 0.99652195 0.0589482524 0.0588989817
vn 0.996525705 -0.0583607182 0.0594176017
vn -0.996521831 0.0601787083 -0.0576442443
vn -0.996521831 -0.0576442443 -0.0601787083
vn -0.996521831 -0.0601787083 0.0576442443
vn -0.996521831 0.0576442443 0.0601787083
vt 0.957782865 0.914885163
vt 0.137639031 0.914885163
vt 0.137639031 0.751045823
vt 0.957782805 0.751045823
vt 1.69722652 0.914885163
vt 1.69722652 0.751045823
vt 0.957782805 0.914885163
vt 0.137639031 0.914885163
vt 0.137639001 0.751045823
vt 0.957782805 0.751045823
vt 1.69722652 0.914885163
vt 1.69722652 0.751045823
vt 0.137639001 0.914885163
vt 0.137639001 0.751045823
vt 0.957782805 0.751045823
vt 0.957782805 0.914885163
vt 1.69722652 0.914885163
vt 1.69722652 0.751045823
vt 0.137639001 0.914885163
vt 0.137638986 0.751045823
vt 0.957782865 0.751045823
vt 0.957782805 0.914885163
vt 1.69722652 0.914885163
vt 1.69722664 0.751045823
vt 0.0553669631 0.0229665693
vt 0.0553669706 0.141951859
vt 0.174352527 0.14194873
vt 0.174352527 0.02296344
vt 0.142567843 0.142668694
vt 0.142431319 0.0239364915
vt 0.0236991383 0.0240730159
vt 0.0238356572 0.142805204
g submesh0
f 1/1/1 2/2/2 3/3/3
f 1/1/1 3/3/3 4/4/4
f 5/5/5 1/1/1 4/4/4
f 5/5/5 4/4/4 6/6/6
f 7/7/7 8/8/8 9/9/9
f 7/7/7 9/9/9 10/10/10
f 11/11/11 7/7/7 10/10/10
f 11/11/11 10/10/10 12/12/12
f 13/13/13 14/14/14 15/15/15
f 13/13/13 15/15/15 16/16/16
f 17/17/17 16/16/16 15/15/15
f 17/17/17 15/15/15 18/18/18
f 19/19/19 20/20/20 21/21/21
f 19/19/19 21/21/21 22/22/22
f 23/23/23 22/22/22 21/21/21
f 23/23/23 21/21/21 24/24/24
f 25/25/25 26/26/26 27/27/27
f 25/25/25 27/27/27 28/28/28
f 29/29/29 30/30/30 31/31/31
f 29/29/29 31/31/31 32/32/32
