# jungle_ziggurat_security_entrance_b_gateR_col
v 1.29190385 0.174526632 -0.197300196
v 1.49713588 0.216033459 -0.211121976
v 1.50807631 0.174526632 -0.233064741
v 1.28348458 0.216033742 -0.180987909
v 1.07054508 0.174526289 -0.185183197
v 1.0667305 0.216033697 -0.179102853
v 0.877328992 0.174526244 -0.246375829
v 0.876448572 0.216033816 -0.246432811
v 0.692909241 0.17452623 -0.263510764
v 0.69239217 0.21603395 -0.263680816
v 0.480479389 0.174526528 -0.18200013
v 0.480255067 0.216033638 -0.182205677
v 0.226597786 0.174526528 -0.0616738163
v 0.226557091 0.216033638 -0.0617807508
v 0.0490529798 0.174526513 -0.0581703112
v 0.0490515754 0.216033772 -0.0581723712
v 1.29172862 0.174526781 -0.165190101
v 1.50807631 0.174526632 -0.233064741
v 1.50836885 0.174526647 -0.201879159
v 1.29190385 0.174526632 -0.197300196
v 1.07024324 0.174526617 -0.153638974
v 1.07054508 0.174526289 -0.185183197
v 0.8773067 0.174527481 -0.216619104
v 0.877328992 0.174526244 -0.246375829
v 0.692641497 0.174526379 -0.232808664
v 0.692909241 0.17452623 -0.263510764
v 0.479577065 0.174526528 -0.148288801
v 0.480479389 0.174526528 -0.18200013
v 0.225778863 0.174526691 -0.0284360424
v 0.226597786 0.174526528 -0.0616738163
v 0.048662398 0.174526513 -0.0270483792
v 0.0490529798 0.174526513 -0.0581703112
v 1.28333831 0.216033891 -0.148859844
v 1.50836885 0.174526647 -0.201879159
v 1.49754465 0.216034517 -0.180091947
v 1.29172862 0.174526781 -0.165190101
v 1.0664382 0.216034174 -0.147531092
v 1.07024324 0.174526617 -0.153638974
v 0.876434982 0.216033682 -0.216666698
v 0.8773067 0.174527481 -0.216619104
v 0.692128301 0.216033801 -0.232973859
v 0.692641497 0.174526379 -0.232808664
v 0.479351461 0.216033638 -0.148482695
v 0.479577065 0.174526528 -0.148288801
v 0.225734293 0.216033638 -0.0285278726
v 0.225778863 0.174526691 -0.0284360424
v 0.0486603491 0.216033623 -0.0270506572
v 0.048662398 0.174526513 -0.0270483792
v 1.28348458 0.216033742 -0.180987909
v 1.49754465 0.216034517 -0.180091947
v 1.49713588 0.216033459 -0.211121976
v 1.28333831 0.216033891 -0.148859844
v 1.0667305 0.216033697 -0.179102853
v 1.0664382 0.216034174 -0.147531092
v 0.876448572 0.216033816 -0.246432811
v 0.876434982 0.216033682 -0.216666698
v 0.69239217 0.21603395 -0.263680816
v 0.692128301 0.216033801 -0.232973859
v 0.480255067 0.216033638 -0.182205677
v 0.479351461 0.216033638 -0.148482695
v 0.226557091 0.216033638 -0.0617807508
v 0.225734293 0.216033638 -0.0285278726
v 0.0490515754 0.216033772 -0.0581723712
v 0.0486603491 0.216033623 -0.0270506572
v 1.27583206 -0.302863717 -0.0761656985
v 1.49941981 -0.302864462 -0.183222532
v 1.49860489 -0.302864254 -0.14658086
v 1.27716625 -0.302863717 -0.114340357
v 1.04903781 -0.302864015 -0.0251999609
v 1.0502311 -0.302864015 -0.0629531816
v 0.856153548 -0.302864045 -0.0289668124
v 0.85711509 -0.302864283 -0.0659224615
v 0.454190165 -0.302864313 -0.00168885931
v 0.455024332 -0.302864194 -0.03818563
v 0.0486587882 -0.302864134 -0.0250722542
v 0.0490969494 -0.302864134 -0.0601061694
v 1.28100359 -0.265999019 -0.0908018947
v 1.49860489 -0.302864254 -0.14658086
v 1.50532317 -0.265999019 -0.164222062
v 1.27583206 -0.302863717 -0.0761656985
v 1.05112493 -0.265998632 -0.036894165
v 1.04903781 -0.302864015 -0.0251999609
v 0.858339369 -0.265999049 -0.0427735075
v 0.856153548 -0.302864045 -0.0289668124
v 0.455464542 -0.26599884 -0.00923931785
v 0.454190165 -0.302864313 -0.00168885931
v 0.0486566313 -0.265998989 -0.0250726957
v 0.0486587882 -0.302864134 -0.0250722542
v 1.28238654 -0.26599887 -0.129144877
v 1.50532317 -0.265999019 -0.164222062
v 1.50616395 -0.265999019 -0.200985357
v 1.28100359 -0.265999019 -0.0908018947
v 1.05236244 -0.265999019 -0.0747221559
v 1.05112493 -0.265998632 -0.036894165
v 0.859259605 -0.26599884 -0.0796653926
v 0.858339369 -0.265999049 -0.0427735075
v 0.456389725 -0.26599896 -0.0462595969
v 0.455464542 -0.26599884 -0.00923931785
v 0.049095653 -0.265998989 -0.0601074733
v 0.0486566313 -0.265998989 -0.0250726957
v 1.27716625 -0.302863717 -0.114340357
v 1.50616395 -0.265999019 -0.200985357
v 1.49941981 -0.302864462 -0.183222532
v 1.28238654 -0.26599887 -0.129144877
v 1.0502311 -0.302864015 -0.0629531816
v 1.05236244 -0.265999019 -0.0747221559
v 0.85711509 -0.302864283 -0.0659224615
v 0.859259605 -0.26599884 -0.0796653926
v 0.455024332 -0.302864194 -0.03818563
v 0.456389725 -0.26599896 -0.0462595969
v 0.0490969494 -0.302864134 -0.0601061694
v 0.049095653 -0.265998989 -0.0601074733
v 1.22227967 -1.38621545 0.0308213774
v 1.29551876 -0.274722308 -0.137605205
v 1.26273167 -1.38621545 0.0329784304
v 1.25127184 -0.274721801 -0.133736372
v 1.24263644 0.195505783 -0.163190156
v 1.28822267 0.195505023 -0.168473274
v 1.23841012 0.736233532 -0.048490651
v 1.19817245 0.73623383 -0.045817636
v 1.18963015 1.40355313 -0.0750874877
v 1.22909057 1.40355313 -0.0792029649
v 1.22178257 -1.38621545 0.0705935434
v 1.25127184 -0.274721801 -0.133736372
v 1.22227967 -1.38621545 0.0308213774
v 1.25074005 -0.274721682 -0.0926175639
v 1.24210584 0.195505783 -0.12147823
v 1.24263644 0.195505783 -0.163190156
v 1.19817245 0.73623383 -0.045817636
v 1.19753563 0.736233532 -0.00184637541
v 1.19144821 1.40355313 -0.0348019525
v 1.18963015 1.40355313 -0.0750874877
v 1.26223469 -1.38621545 0.0727495179
v 1.25074005 -0.274721682 -0.0926175639
v 1.22178257 -1.38621545 0.0705935434
v 1.29509377 -0.274722159 -0.096616514
v 1.24210584 0.195505783 -0.12147823
v 1.28784919 0.195505172 -0.126948878
v 1.19753563 0.736233532 -0.00184637541
v 1.23800051 0.736234128 -0.00489929318
v 1.19144821 1.40355313 -0.0348019525
v 1.23117054 1.40355313 -0.0389501229
v 1.26273167 -1.38621545 0.0329784304
v 1.29509377 -0.274722159 -0.096616514
v 1.26223469 -1.38621545 0.0727495179
v 1.29551876 -0.274722308 -0.137605205
v 1.28784919 0.195505172 -0.126948878
v 1.28822267 0.195505023 -0.168473274
v 1.23800051 0.736234128 -0.00489929318
v 1.23841012 0.736233532 -0.048490651
v 1.23117054 1.40355313 -0.0389501229
v 1.22909057 1.40355313 -0.0792029649
v 1.06311285 -1.38621545 0.0213831924
v 1.08433366 0.241588831 -0.134613156
v 1.06261468 -1.38621545 0.0611580536
v 1.08484912 0.241588995 -0.175486088
v 1.05060112 0.745890915 -0.0277299546
v 1.05137038 0.745891154 -0.0709360167
v 1.03506207 1.40355313 -0.0610744953
v 1.03601694 1.40355277 -0.0207289699
v 1.02281654 -1.38621545 0.0187688768
v 1.08484912 0.241588995 -0.175486088
v 1.06311285 -1.38621545 0.0213831924
v 1.04414833 0.241588965 -0.183833435
v 1.05137038 0.745891154 -0.0709360167
v 1.01245928 0.745890439 -0.0725643784
v 1.03506207 1.40355313 -0.0610744953
v 0.996070564 1.40355349 -0.0580912754
v 1.02231872 -1.38621545 0.0585446022
v 1.04414833 0.241588965 -0.183833435
v 1.02281654 -1.38621545 0.0187688768
v 1.04387879 0.241588995 -0.14381592
v 1.01245928 0.745890439 -0.0725643784
v 1.01163769 0.745890439 -0.0294675082
v 0.996070564 1.40355349 -0.0580912754
v 0.996846735 1.40355313 -0.0177453198
v 1.06261468 -1.38621545 0.0611580536
v 1.04387879 0.241588995 -0.14381592
v 1.02231872 -1.38621545 0.0585446022
v 1.08433366 0.241588831 -0.134613156
v 1.01163769 0.745890439 -0.0294675082
v 1.05060112 0.745890915 -0.0277299546
v 0.996846735 1.40355313 -0.0177453198
v 1.03601694 1.40355277 -0.0207289699
v 0.865969896 -1.38621545 0.0476275943
v 0.81856662 -0.880815506 0.0103858961
v 0.825800657 -1.38621545 0.0446388796
v 0.859760821 -0.880815506 0.00971618295
v 0.831959844 -0.338751942 -0.0143818604
v 0.872746587 -0.338751793 -0.0148556335
v 0.834500253 -0.258520573 -0.0145339053
v 0.874867439 -0.25861454 -0.0133339986
v 0.882926166 -0.114343777 -0.034463726
v 0.843482852 -0.114172876 -0.0394895151
v 0.897995532 0.0714060143 -0.14630416
v 0.859855175 0.071234189 -0.156842142
v 0.899303555 0.197961777 -0.199542955
v 0.861742675 0.197961167 -0.212285802
v 0.891235232 0.30704686 -0.18894048
v 0.853753865 0.306953788 -0.20123966
v 0.851635933 0.641100526 -0.0381281711
v 0.813386738 0.641099751 -0.0436950587
v 0.844599605 0.825440705 -0.0023134558
v 0.806025803 0.825245738 -0.0045135594
v 0.840568662 1.40355277 -0.0224811863
v 0.801724672 1.40355313 -0.0206852555
v 0.866468191 -1.38621545 0.00785348658
v 0.859760821 -0.880815506 0.00971618295
v 0.865969896 -1.38621545 0.0476275943
v 0.860533416 -0.880815506 -0.0310034174
v 0.872746587 -0.338751793 -0.0148556335
v 0.87391454 -0.338751972 -0.0570598841
v 0.874867439 -0.25861454 -0.0133339986
v 0.875904441 -0.258644313 -0.055079259
v 0.882926166 -0.114343777 -0.034463726
v 0.883629441 -0.11439658 -0.0750310868
v 0.897995532 0.0714060143 -0.14630416
v 0.898238301 0.0714490339 -0.185207337
v 0.899303555 0.197961777 -0.199542955
v 0.899353623 0.197961777 -0.23780717
v 0.891289055 0.307040155 -0.227398261
v 0.891235232 0.30704686 -0.18894048
v 0.852228582 0.641100228 -0.0792482793
v 0.851635933 0.641100526 -0.0381281711
v 0.845560431 0.825504839 -0.0450917073
v 0.844599605 0.825440705 -0.0023134558
v 0.840347886 1.40355349 -0.0627835467
v 0.840568662 1.40355277 -0.0224811863
v 0.826299191 -1.38621545 0.00486541959
v 0.860533416 -0.880815506 -0.0310034174
v 0.866468191 -1.38621545 0.00785348658
v 0.81932956 -0.880815566 -0.0302998256
v 0.87391454 -0.338751972 -0.0570598841
v 0.833100975 -0.338751972 -0.0564733595
v 0.835508406 -0.258553058 -0.0561411642
v 0.875904441 -0.258644313 -0.055079259
v 0.844156921 -0.114226446 -0.0798675194
v 0.883629441 -0.11439658 -0.0750310868
v 0.860064149 0.0712825507 -0.195481941
v 0.898238301 0.0714490339 -0.185207337
v 0.899353623 0.197961777 -0.23780717
v 0.861760139 0.197961763 -0.25025934
v 0.891289055 0.307040155 -0.227398261
v 0.853783607 0.306946605 -0.239417106
v 0.852228582 0.641100228 -0.0792482793
v 0.813984871 0.641100526 -0.0846143737
v 0.845560431 0.825504839 -0.0450917073
v 0.807005286 0.825317144 -0.0471244641
v 0.840347886 1.40355349 -0.0627835467
v 0.801615179 1.40355349 -0.0609667972
v 0.825800657 -1.38621545 0.0446388796
v 0.81932956 -0.880815566 -0.0302998256
v 0.826299191 -1.38621545 0.00486541959
v 0.81856662 -0.880815506 0.0103858961
v 0.833100975 -0.338751972 -0.0564733595
v 0.831959844 -0.338751942 -0.0143818604
v 0.834500253 -0.258520573 -0.0145339053
v 0.835508406 -0.258553058 -0.0561411642
v 0.844156921 -0.114226446 -0.0798675194
v 0.843482852 -0.114172876 -0.0394895151
v 0.860064149 0.0712825507 -0.195481941
v 0.859855175 0.071234189 -0.156842142
v 0.861742675 0.197961167 -0.212285802
v 0.861760139 0.197961763 -0.25025934
v 0.853783607 0.306946605 -0.239417106
v 0.853753865 0.306953788 -0.20123966
v 0.813984871 0.641100526 -0.0846143737
v 0.813386738 0.641099751 -0.0436950587
v 0.807005286 0.825317144 -0.0471244641
v 0.806025803 0.825245738 -0.0045135594
v 0.801615179 1.40355349 -0.0609667972
v 0.801724672 1.40355313 -0.0206852555
v 0.636780739 -1.38621521 0.0297105219
v 0.639342487 -1.02418125 -0.0196522828
v 0.637277424 -1.38621533 -0.0100602433
v 0.63871181 -1.02418113 0.020572722
v 0.673622012 0.267576009 -0.221236631
v 0.674054623 0.267575711 -0.260982156
v 0.665635109 0.360407144 -0.231686145
v 0.66499114 0.360501736 -0.191049859
v 0.62480092 0.629473805 -0.0274285432
v 0.626266837 0.629473805 -0.071561642
v 0.618067622 0.896520138 0.0120903235
v 0.619405448 0.896746874 -0.0315444097
v 0.622053146 1.40355241 -0.0163480416
v 0.622316837 1.40355241 -0.0564969815
v 0.676852643 -1.38621521 0.0329851583
v 0.63871181 -1.02418113 0.020572722
v 0.636780739 -1.38621521 0.0297105219
v 0.679286659 -1.02418125 0.0220082756
v 0.714566469 0.267575413 -0.227668211
v 0.673622012 0.267576009 -0.221236631
v 0.705830038 0.360556215 -0.197552845
v 0.66499114 0.360501736 -0.191049859
v 0.664902687 0.629474223 -0.0321447849
v 0.62480092 0.629473805 -0.0274285432
v 0.657337189 0.896420777 0.0101312548
v 0.618067622 0.896520138 0.0120903235
v 0.622053146 1.40355241 -0.0163480416
v 0.660791159 1.40355301 -0.0169625115
v 0.677349329 -1.38621521 -0.00678646797
v 0.679286659 -1.02418125 0.0220082756
v 0.676852643 -1.38621521 0.0329851583
v 0.679927349 -1.02418125 -0.018253522
v 0.714829862 0.267576009 -0.266617
v 0.714566469 0.267575413 -0.227668211
v 0.706323504 0.360445887 -0.237486199
v 0.705830038 0.360556215 -0.197552845
v 0.666325986 0.62947315 -0.0761619061
v 0.664902687 0.629474223 -0.0321447849
v 0.658669114 0.896681905 -0.0336055458
v 0.657337189 0.896420777 0.0101312548
v 0.660994649 1.40355301 -0.057142742
v 0.660791159 1.40355301 -0.0169625115
v 0.637277424 -1.38621533 -0.0100602433
v 0.679927349 -1.02418125 -0.018253522
v 0.677349329 -1.38621521 -0.00678646797
v 0.639342487 -1.02418125 -0.0196522828
v 0.674054623 0.267575711 -0.260982156
v 0.714829862 0.267576009 -0.266617
v 0.706323504 0.360445887 -0.237486199
v 0.665635109 0.360407144 -0.231686145
v 0.666325986 0.62947315 -0.0761619061
v 0.626266837 0.629473805 -0.071561642
v 0.658669114 0.896681905 -0.0336055458
v 0.619405448 0.896746874 -0.0315444097
v 0.660994649 1.40355301 -0.057142742
v 0.622316837 1.40355241 -0.0564969815
v 0.439365059 -1.38621533 -0.0269428156
v 0.490058094 -0.841769516 -0.0137530016
v 0.479362339 -1.38621533 -0.023445908
v 0.44983694 -0.841769516 -0.0159669146
v 0.479022563 -0.332597524 -0.0374273285
v 0.438471466 -0.332597524 -0.0362237506
v 0.50641942 0.20113802 -0.200194091
v 0.462138712 0.201138318 -0.176523224
v 0.42890209 1.40355301 -0.0482177921
v 0.467724562 1.40355241 -0.0475891903
v 0.438869506 -1.38621533 0.0128234178
v 0.44983694 -0.841769516 -0.0159669146
v 0.439365059 -1.38621533 -0.0269428156
v 0.449163169 -0.841769516 0.0244048275
v 0.438471466 -0.332597524 -0.0362237506
v 0.437595665 -0.332597524 0.00484716101
v 0.462138712 0.201138318 -0.176523224
v 0.46091783 0.201138467 -0.133096948
v 0.42890209 1.40355301 -0.0482177921
v 0.428453237 1.40355325 -0.00823760033
v 0.47886622 -1.38621533 0.0163208619
v 0.449163169 -0.841769516 0.0244048275
v 0.438869506 -1.38621533 0.0128234178
v 0.489359349 -0.841769636 0.0267075412
v 0.437595665 -0.332597524 0.00484716101
v 0.478103161 -0.332597494 0.00379592832
v 0.46091783 0.201138467 -0.133096948
v 0.505372405 0.20113802 -0.157625258
v 0.428453237 1.40355325 -0.00823760033
v 0.467299521 1.40355301 -0.00757501414
v 0.479362339 -1.38621533 -0.023445908
v 0.489359349 -0.841769636 0.0267075412
v 0.47886622 -1.38621533 0.0163208619
v 0.490058094 -0.841769516 -0.0137530016
v 0.478103161 -0.332597494 0.00379592832
v 0.479022563 -0.332597524 -0.0374273285
v 0.505372405 0.20113802 -0.157625258
v 0.50641942 0.20113802 -0.200194091
v 0.467299521 1.40355301 -0.00757501414
v 0.467724562 1.40355241 -0.0475891903
v 0.286685854 -1.38621533 -0.0405942276
v 0.283065915 0.715766132 -0.00418074569
v 0.286190957 -1.38621533 -0.00083209679
v 0.283840179 0.715765953 -0.0449282937
v 0.283598959 1.40355301 -0.0471136793
v 0.283103824 1.40355301 -0.00725034298
v 0.246734917 -1.38621533 -0.0442306399
v 0.283840179 0.715765953 -0.0449282937
v 0.286685854 -1.38621533 -0.0405942276
v 0.244602427 0.715765953 -0.0474117287
v 0.283598959 1.40355301 -0.0471136793
v 0.244433373 1.40355265 -0.0490322821
v 0.246241063 -1.38621533 -0.00446872646
v 0.244602427 0.715765953 -0.0474117287
v 0.246734917 -1.38621533 -0.0442306399
v 0.243895397 0.715765953 -0.00690489914
v 0.244433373 1.40355265 -0.0490322821
v 0.2439349 1.40355301 -0.00919408537
v 0.286190957 -1.38621533 -0.00083209679
v 0.243895397 0.715765953 -0.00690489914
v 0.246241063 -1.38621533 -0.00446872646
v 0.283065915 0.715766132 -0.00418074569
v 0.2439349 1.40355301 -0.00919408537
v 0.283103824 1.40355301 -0.00725034298
v 0.0747159943 1.38066876 -0.0728223473
v 1.45639169 1.44722903 -0.127552569
v 1.39022779 1.38086641 -0.107254401
v 0.010673061 1.44774854 -0.0784171969
v 0.0739175677 1.38066876 -0.00879862905
v 1.39022779 1.38086641 -0.107254401
v 1.39545143 1.38086641 -0.0426856987
v 0.0747159943 1.38066876 -0.0728223473
v 0.00988013856 1.44774854 -0.0144084748
v 1.39545143 1.38086641 -0.0426856987
v 1.46310258 1.44722903 -0.0632860735
v 0.0739175677 1.38066876 -0.00879862905
v 0.010673061 1.44774854 -0.0784171969
v 1.46310258 1.44722903 -0.0632860735
v 1.45639169 1.44722903 -0.127552569
v 0.00988013856 1.44774854 -0.0144084748
v 1.46508837 -0.913353562 -0.0938305482
v 1.48485291 -1.44739759 0.0582035296
v 1.42910779 -1.38126254 0.0264578369
v 1.53441811 -0.957043588 -0.100237243
v 1.5415808 -0.67515105 -0.138246462
v 1.46915686 -0.644364834 -0.122546576
v 1.54213011 0.104063071 -0.276244789
v 1.47191203 0.099120751 -0.262293518
v 1.42919815 0.469718456 -0.138339683
v 1.4957782 0.492349088 -0.145928293
v 1.40314162 0.760479093 -0.0739305839
v 1.46755004 0.79708159 -0.0788141862
v 1.39022779 1.38086641 -0.107254401
v 1.45639169 1.44722903 -0.127552569
v 1.46420407 -0.913353682 -0.029380478
v 1.42910779 -1.38126254 0.0264578369
v 1.42831147 -1.38126254 0.0904743299
v 1.46508837 -0.913353562 -0.0938305482
v 1.46824098 -0.644364834 -0.0576505214
v 1.46915686 -0.644364834 -0.122546576
v 1.47157145 0.0991253331 -0.196208984
v 1.47191203 0.099120751 -0.262293518
v 1.42919815 0.469718456 -0.138339683
v 1.42975748 0.469720155 -0.0720300376
v 1.40314162 0.760479093 -0.0739305839
v 1.4046092 0.760477901 -0.00763134332
v 1.39545143 1.38086641 -0.0426856987
v 1.39022779 1.38086641 -0.107254401
v 1.53366053 -0.957043409 -0.0362271145
v 1.42831147 -1.38126254 0.0904743299
v 1.48405898 -1.44739783 0.122211933
v 1.46420407 -0.913353682 -0.029380478
v 1.54092872 -0.675151646 -0.0742320195
v 1.46824098 -0.644364834 -0.0576505214
v 1.54256511 0.104056984 -0.212190434
v 1.47157145 0.0991253331 -0.196208984
v 1.49738181 0.492358685 -0.0818355754
v 1.42975748 0.469720155 -0.0720300376
v 1.4046092 0.760477901 -0.00763134332
v 1.47025454 0.797081769 -0.0146845132
v 1.46310258 1.44722903 -0.0632860735
v 1.39545143 1.38086641 -0.0426856987
v 1.48485291 -1.44739759 0.0582035296
v 1.53366053 -0.957043409 -0.0362271145
v 1.48405898 -1.44739783 0.122211933
v 1.53441811 -0.957043588 -0.100237243
v 1.5415808 -0.67515105 -0.138246462
v 1.54092872 -0.675151646 -0.0742320195
v 1.54213011 0.104063071 -0.276244789
v 1.54256511 0.104056984 -0.212190434
v 1.49738181 0.492358685 -0.0818355754
v 1.4957782 0.492349088 -0.145928293
v 1.46755004 0.79708159 -0.0788141862
v 1.47025454 0.797081769 -0.0146845132
v 1.45639169 1.44722903 -0.127552569
v 1.46310258 1.44722903 -0.0632860735
v 0.010673061 1.44774854 -0.0784171969
v 0.0749681517 -1.38064682 -0.0724528655
v 0.0107169934 -1.44774866 -0.0784117132
v 0.0747159943 1.38066876 -0.0728223473
v 0.00988013856 1.44774854 -0.0144084748
v 0.0107169934 -1.44774866 -0.0784117132
v 0.00992299151 -1.44774866 -0.014403644
v 0.010673061 1.44774854 -0.0784171969
v 0.0739175677 1.38066876 -0.00879862905
v 0.00992299151 -1.44774866 -0.014403644
v 0.0741741508 -1.38064682 -0.00844392646
v 0.00988013856 1.44774854 -0.0144084748
v 0.0747159943 1.38066876 -0.0728223473
v 0.0741741508 -1.38064682 -0.00844392646
v 0.0749681517 -1.38064682 -0.0724528655
v 0.0739175677 1.38066876 -0.00879862905
v 0.0107169934 -1.44774866 -0.0784117132
v 1.42910779 -1.38126254 0.0264578369
v 1.48485291 -1.44739759 0.0582035296
v 0.0749681517 -1.38064682 -0.0724528655
v 0.0749681517 -1.38064682 -0.0724528655
v 1.42831147 -1.38126254 0.0904743299
v 1.42910779 -1.38126254 0.0264578369
v 0.0741741508 -1.38064682 -0.00844392646
v 0.0741741508 -1.38064682 -0.00844392646
v 1.48405898 -1.44739783 0.122211933
v 1.42831147 -1.38126254 0.0904743299
v 0.00992299151 -1.44774866 -0.014403644
v 0.00992299151 -1.44774866 -0.014403644
v 1.48485291 -1.44739759 0.0582035296
v 1.48405898 -1.44739783 0.122211933
v 0.0107169934 -1.44774866 -0.0784117132
v 1.28189647 -0.208702713 -0.0544486456
v 1.53866255 -0.109908752 -0.11384216
v 1.29015434 -0.0967938304 -0.0459425934
v 1.53040588 -0.221817464 -0.122347251
v 1.27518547 -0.206710219 -0.0741126835
v 1.53040588 -0.221817464 -0.122347251
v 1.28189647 -0.208702713 -0.0544486456
v 1.52369475 -0.21982497 -0.142011493
v 1.28344285 -0.0948016495 -0.0656073764
v 1.52369475 -0.21982497 -0.142011493
v 1.27518547 -0.206710219 -0.0741126835
v 1.53195202 -0.107916407 -0.133506089
v 1.29015434 -0.0967938304 -0.0459425934
v 1.53195202 -0.107916407 -0.133506089
v 1.28344285 -0.0948016495 -0.0656073764
v 1.53866255 -0.109908752 -0.11384216
v 1.52369475 -0.21982497 -0.142011493
v 1.53866255 -0.109908752 -0.11384216
v 1.53040588 -0.221817464 -0.122347251
v 1.53195202 -0.107916407 -0.133506089
v 1.28344285 -0.0948016495 -0.0656073764
v 1.28189647 -0.208702713 -0.0544486456
v 1.29015434 -0.0967938304 -0.0459425934
v 1.27518547 -0.206710219 -0.0741126835
v 1.4541086 -0.169241935 -0.0774451196
v 1.47711396 -0.149174348 -0.0816921219
v 1.46170092 -0.153740227 -0.0779956579
v 1.45936263 -0.185421601 -0.0804038867
v 1.49218118 -0.175700381 -0.088273935
v 1.49014997 -0.158566132 -0.0860877484
v 1.48186493 -0.189238578 -0.0868038461
v 1.47398591 -0.191572726 -0.0849142596
v 1.4562391 -0.169286802 -0.0789126679
v 1.47107279 -0.157576129 -0.0575028248
v 1.46355188 -0.155343622 -0.0795385689
v 1.4637593 -0.171519473 -0.0568771362
v 1.46355188 -0.155343622 -0.0795385689
v 1.48539793 -0.154793233 -0.061078012
v 1.47787726 -0.152560577 -0.0831137076
v 1.47107279 -0.157576129 -0.0575028248
v 1.47787726 -0.152560577 -0.0831137076
v 1.49594879 -0.165266097 -0.064910531
v 1.48842859 -0.16303359 -0.0869460106
v 1.48539793 -0.154793233 -0.061078012
v 1.49808347 -0.165899634 -0.0586564466
v 1.48753202 -0.155426621 -0.0548243113
v 1.48842859 -0.16303359 -0.0869460106
v 1.49477983 -0.181108534 -0.0661148056
v 1.48725915 -0.178876027 -0.0881507695
v 1.49594879 -0.165266097 -0.064910531
v 1.49691463 -0.181742221 -0.0598605089
v 1.49808347 -0.165899634 -0.0586564466
v 1.48725915 -0.178876027 -0.0881507695
v 1.48277152 -0.19039093 -0.0637834966
v 1.47525096 -0.188158572 -0.0858190805
v 1.49477983 -0.181108534 -0.0661148056
v 1.48490548 -0.191024601 -0.0575296879
v 1.49691463 -0.181742221 -0.0598605089
v 1.47525096 -0.188158572 -0.0858190805
v 1.46896636 -0.186123505 -0.0596724972
v 1.46144617 -0.183890983 -0.0817080289
v 1.48277152 -0.19039093 -0.0637834966
v 1.46144617 -0.183890983 -0.0817080289
v 1.4637593 -0.171519473 -0.0568771362
v 1.4562391 -0.169286802 -0.0789126679
v 1.46896636 -0.186123505 -0.0596724972
v 1.35206521 -0.164277494 -0.044041235
v 1.35157907 -0.149927512 -0.0398460291
v 1.35313296 -0.149806216 -0.0429414548
v 1.35051143 -0.164399102 -0.0409458093
v 1.35099769 -0.178748772 -0.0451406911
v 1.34944344 -0.178870395 -0.042046126
v 1.47107279 -0.157576129 -0.0575028248
v 1.37335587 -0.152245179 -0.0304641556
v 1.48539793 -0.154793233 -0.061078012
v 1.4637593 -0.171519473 -0.0568771362
v 1.37228739 -0.166716456 -0.0315644741
v 1.46896636 -0.186123505 -0.0596724972
v 1.37121987 -0.181187734 -0.0326643623
v 1.48277152 -0.19039093 -0.0637834966
v 1.48539793 -0.154793233 -0.061078012
v 1.37270629 -0.152682945 -0.0240913909
v 1.48753202 -0.155426621 -0.0548243113
v 1.37335587 -0.152245179 -0.0304641556
v 1.35157907 -0.149927512 -0.0398460291
v 1.35313296 -0.149806216 -0.0429414548
v 1.48490548 -0.191024601 -0.0575296879
v 1.37121987 -0.181187734 -0.0326643623
v 1.48277152 -0.19039093 -0.0637834966
v 1.37057161 -0.181625977 -0.0262901951
v 1.35099769 -0.178748772 -0.0451406911
v 1.34944344 -0.178870395 -0.042046126
v 1.35206521 -0.164277494 -0.044041235
v 1.37121987 -0.181187734 -0.0326643623
v 1.35099769 -0.178748772 -0.0451406911
v 1.37228739 -0.166716456 -0.0315644741
v 1.35313296 -0.149806216 -0.0429414548
v 1.37335587 -0.152245179 -0.0304641556
v 1.35051143 -0.164399102 -0.0409458093
v 1.37270629 -0.152682945 -0.0240913909
v 1.35157907 -0.149927512 -0.0398460291
v 1.37163901 -0.167154387 -0.025190739
v 1.34944344 -0.178870395 -0.042046126
v 1.37057161 -0.181625977 -0.0262901951
v 1.45502484 -0.966645777 -0.0642599314
v 1.25999486 -0.206920087 -0.177005962
v 1.48403323 -0.213884026 -0.15519622
v 1.23098648 -0.959681809 -0.0860697255
v 1.44744933 -0.954866409 0.0173189957
v 1.25241959 -0.19514063 -0.0954269767
v 1.22341108 -0.947902441 -0.00449069683
v 1.47645783 -0.202104568 -0.0736172348
v 1.45502484 -0.966645777 -0.0642599314
v 1.22341108 -0.947902441 -0.00449069683
v 1.23098648 -0.959681809 -0.0860697255
v 1.44744933 -0.954866409 0.0173189957
v 1.23098648 -0.959681809 -0.0860697255
v 1.25241959 -0.19514063 -0.0954269767
v 1.25999486 -0.206920087 -0.177005962
v 1.22341108 -0.947902441 -0.00449069683
v 1.25999486 -0.206920087 -0.177005962
v 1.47645783 -0.202104568 -0.0736172348
v 1.48403323 -0.213884026 -0.15519622
v 1.25241959 -0.19514063 -0.0954269767
v 1.48403323 -0.213884026 -0.15519622
v 1.44744933 -0.954866409 0.0173189957
v 1.45502484 -0.966645777 -0.0642599314
v 1.47645783 -0.202104568 -0.0736172348
v 1.42694962 -0.449608415 0.00970778242
v 1.35397911 -0.392359346 -0.0533493608
v 1.42747557 -0.38323611 -0.0155558512
v 1.35381484 -0.45498541 -0.0277241673
v 1.42359281 -0.44339931 0.0303611662
v 1.34731853 -0.385132015 -0.0293922033
v 1.35045791 -0.448776275 -0.00707073137
v 1.42081499 -0.376008749 0.00840130635
v 1.42694962 -0.449608415 0.00970778242
v 1.35045791 -0.448776275 -0.00707073137
v 1.35381484 -0.45498541 -0.0277241673
v 1.42359281 -0.44339931 0.0303611662
v 1.35381484 -0.45498541 -0.0277241673
v 1.34731853 -0.385132015 -0.0293922033
v 1.35397911 -0.392359346 -0.0533493608
v 1.35045791 -0.448776275 -0.00707073137
v 1.35397911 -0.392359346 -0.0533493608
v 1.42081499 -0.376008749 0.00840130635
v 1.42747557 -0.38323611 -0.0155558512
v 1.34731853 -0.385132015 -0.0293922033
v 1.42747557 -0.38323611 -0.0155558512
v 1.42359281 -0.44339931 0.0303611662
v 1.42694962 -0.449608415 0.00970778242
v 1.42081499 -0.376008749 0.00840130635
v 1.46589363 -0.172152996 -0.0506232157
v 1.49691463 -0.181742221 -0.0598605089
v 1.49808347 -0.165899634 -0.0586564466
v 1.48753202 -0.155426621 -0.0548243113
v 1.48490548 -0.191024601 -0.0575296879
v 1.47110033 -0.186757177 -0.0534186885
v 1.37057161 -0.181625977 -0.0262901951
v 1.37163901 -0.167154387 -0.025190739
v 1.47320676 -0.15820998 -0.0512489639
v 1.37270629 -0.152682945 -0.0240913909
v 1.47125983 -0.207398221 -0.095675312
v 1.45936263 -0.185421601 -0.0804038867
v 1.44514596 -0.196413577 -0.0876197517
v 1.43576288 -0.167519063 -0.0823358223
v 1.47398591 -0.191572726 -0.0849142596
v 1.4541086 -0.169241935 -0.0774451196
v 1.48532999 -0.203230128 -0.0990494862
v 1.46170092 -0.153740227 -0.0779956579
v 1.48186493 -0.189238578 -0.0868038461
v 1.44932044 -0.139835209 -0.0833197832
v 1.50375426 -0.179052725 -0.101674393
v 1.47711396 -0.149174348 -0.0816921219
v 1.49218118 -0.175700381 -0.088273935
v 1.47684693 -0.131681815 -0.0899202675
v 1.50012648 -0.148453519 -0.0977699161
v 1.49014997 -0.158566132 -0.0860877484
v 1.46833718 -0.206530601 -0.104238421
v 1.44514596 -0.196413577 -0.0876197517
v 1.44222367 -0.195545956 -0.0961830765
v 1.47125983 -0.207398221 -0.095675312
v 1.43576288 -0.167519063 -0.0823358223
v 1.48240793 -0.202362508 -0.107612386
v 1.43284035 -0.166651458 -0.0908990353
v 1.48532999 -0.203230128 -0.0990494862
v 1.44932044 -0.139835209 -0.0833197832
v 1.50083184 -0.17818512 -0.110237665
v 1.44639838 -0.138967589 -0.0918829516
v 1.50375426 -0.179052725 -0.101674393
v 1.47684693 -0.131681815 -0.0899202675
v 1.49720383 -0.147586063 -0.10633307
v 1.47392428 -0.130814061 -0.0984834805
v 1.50012648 -0.148453519 -0.0977699161
vn -0.0981379449 0.353473872 -0.930282354
vn -0.145509258 0.421400219 -0.895125031
vn -0.147235274 0.431661785 -0.889938176
vn -0.0831684396 0.336486548 -0.938008368
vn 0.136746824 0.170167789 -0.975880802
vn 0.155539542 0.146513075 -0.976903975
vn 0.214160427 0.0138052246 -0.976700962
vn 0.213126853 0.00292886537 -0.977020144
vn -0.13440612 -0.00547910249 -0.990911186
vn -0.137755767 -0.00567144621 -0.990449965
vn -0.393597692 -0.00677899737 -0.91925782
vn -0.393774837 -0.00649108039 -0.919184089
vn -0.229416162 -0.00292560575 -0.97332406
vn -0.229391322 -0.00254217791 -0.973330975
vn -0.0202370882 -0.000422389334 -0.999795139
vn -0.0203240402 -5.03208576E-05 -0.99979347
vn 9.18712374E-07 -1 4.79530172E-06
vn -4.37754693E-07 -1 7.28680448E-07
vn -5.85108239E-07 -1 2.58997318E-07
vn 1.01658793E-06 -1 5.22134769E-06
vn -2.48554056E-06 -1 9.64916671E-06
vn -3.40415318E-06 -1 1.11995723E-05
vn -5.95281927E-06 -1 3.98323646E-05
vn -4.40159965E-06 -1 3.92275724E-05
vn 7.08750861E-07 -1 6.83384769E-06
vn 2.93653613E-07 -1 4.98393365E-06
vn -6.97977896E-07 -1 4.12031739E-07
vn -9.38971482E-07 -1 3.73684003E-07
vn 1.4425442E-06 -1 4.70394571E-06
vn 1.7178254E-06 -1 4.6604946E-06
vn 2.24853224E-07 -1 8.00924397E-07
vn 1.18113569E-07 -1 2.52403851E-07
vn 0.0696154013 -0.359107673 0.93069613
vn 0.13415657 -0.419476748 0.897798002
vn 0.129981279 -0.434031665 0.891471446
vn 0.0951591283 -0.335717499 0.937143743
vn -0.156499565 -0.172204971 0.972549975
vn -0.135526896 -0.146189317 0.979929149
vn -0.201120317 -0.0136283552 0.979471684
vn -0.201932266 -0.00286610494 0.97939533
vn 0.14639698 0.00548961246 0.989210606
vn 0.143045992 0.00559592992 0.989700198
vn 0.398421705 0.00655943388 0.917178869
vn 0.398261428 0.00625866139 0.917250574
vn 0.22283183 0.00259156269 0.974853456
vn 0.222915709 0.00223355438 0.974835217
vn 0.00790888071 0.000372651237 0.999968648
vn 0.00783453323 5.5227174E-05 0.999969363
vn -1.98990961E-06 1 -6.31586045E-06
vn -3.54921235E-06 1 -3.20382205E-05
vn -3.53836822E-06 1 -3.46293673E-05
vn -1.75195123E-06 1 -5.47920718E-06
vn 3.64600396E-06 1 -1.43049083E-05
vn 2.75122147E-06 1 -1.38006653E-05
vn -1.2431351E-06 1 3.92763104E-06
vn -2.37520885E-06 1 4.86547196E-06
vn 3.04775227E-07 1 4.72940383E-06
vn 2.67794661E-07 1 4.52285394E-06
vn -5.31298269E-07 1 0
vn -3.81785327E-07 1 -2.59469061E-07
vn 2.50025664E-07 1 -2.43294551E-07
vn 3.3844313E-07 1 0
vn 0 1 4.08309552E-06
vn 0 1 4.65104995E-06
vn -3.27644841E-07 -1 5.24021402E-07
vn -6.63977119E-07 -1 5.74549904E-06
vn -3.07778123E-07 -1 6.48941977E-06
vn -1.3835928E-06 -1 1.99707188E-07
vn 7.33641912E-07 -1 2.72096457E-07
vn 9.10396238E-07 -1 6.22973459E-07
vn 1.09200221E-06 -1 6.1011815E-06
vn 1.11185284E-06 -1 6.16901161E-06
vn -3.24878442E-07 -1 -3.62779997E-06
vn -3.77454626E-07 -1 -3.82932149E-06
vn 0 -1 0
vn 0 -1 2.50054768E-07
vn 0.255806416 0.328413278 0.909234762
vn 0.288732916 0.365194023 0.885023475
vn 0.289004177 0.369871885 0.882990003
vn 0.245315686 0.325122386 0.913299382
vn 0.0977379531 0.298560619 0.949372947
vn 0.085381411 0.300122499 0.950071812
vn 0.027116416 0.346096903 0.937806845
vn 0.0314402655 0.344662011 0.938200176
vn 0.0157971848 0.204743564 0.978688121
vn 0.0123987617 0.19445309 0.98083353
vn -0.0564860329 0.0118780695 0.998332798
vn -0.0575655662 8.56323459E-06 0.99834168
vn 7.50007359E-07 1 3.56697797E-06
vn 6.21759E-07 1 0
vn 5.68803898E-07 1 -2.36693026E-07
vn 5.24213704E-07 1 3.01341629E-06
vn 2.08680461E-07 1 -9.65533127E-06
vn 1.10148378E-07 1 -9.26035955E-06
vn -8.51858658E-07 1 4.89373997E-06
vn -9.9715453E-07 1 5.69691338E-06
vn 1.18544001E-07 1 -2.07550352E-06
vn 1.03191582E-07 1 -2.24923542E-06
vn -2.90519012E-07 1 -3.74950588E-07
vn -3.05565067E-07 1 -2.5475282E-07
vn -0.24221164 -0.33453235 -0.910725892
vn -0.276209205 -0.36951822 -0.887223184
vn -0.274283737 -0.376238137 -0.884993374
vn -0.255339384 -0.326409101 -0.910087347
vn -0.0964660197 -0.300431341 -0.94891268
vn -0.109474808 -0.299387246 -0.947830379
vn -0.0226846766 -0.345284402 -0.938223839
vn -0.0189951435 -0.344384819 -0.938636422
vn -0.0120003838 -0.217722014 -0.975937009
vn -0.0163380988 -0.207334131 -0.978133738
vn 0.035123013 -0.012706751 -0.999302268
vn 0.0339801125 -3.4155808E-05 -0.99942255
vn 0.0491106436 -0.152803332 -0.987035692
vn -0.0859104171 -0.103670642 -0.990894437
vn 0.0526212268 -0.15300256 -0.986823797
vn -0.0866319612 -0.104192808 -0.990776777
vn -0.112899296 0.0749092773 -0.990778685
vn -0.114882804 0.0643814281 -0.991290569
vn -0.0679616928 0.086072199 -0.993968129
vn -0.0660854802 0.0773523226 -0.994811177
vn -0.102176242 -0.0470721312 -0.993651986
vn -0.103615604 -0.0471712053 -0.993498206
vn -0.999628305 0.0242221821 -0.0125070577
vn -0.999916077 0.00101392297 -0.0129214851
vn -0.999628425 0.0242241975 -0.0124960588
vn -0.999908805 0.00388748758 -0.0129325259
vn -0.99863869 -0.0505794473 -0.0127496794
vn -0.998784959 -0.0476150997 -0.0127058057
vn -0.998843431 -0.0461859591 -0.0133686913
vn -0.998996198 -0.0423944183 -0.0144678811
vn -0.999031425 -0.0107710222 0.0426631719
vn -0.998924792 -0.0108098518 0.04508055
vn -0.0491415672 0.14648436 0.987991631
vn 0.0877073482 0.105510175 0.990542829
vn -0.0526478142 0.14642258 0.987820148
vn 0.0902151614 0.104803711 0.990392566
vn 0.117561333 -0.0755011588 0.99019134
vn 0.117481753 -0.0651402697 0.990936339
vn 0.0761564821 -0.0777207762 0.994062245
vn 0.0754809156 -0.0869101137 0.993352532
vn 0.102620482 0.0516722016 0.993377626
vn 0.10372524 0.051743973 0.993259192
vn 0.99954021 -0.0276514795 0.0124452738
vn 0.999918818 -0.00737873092 0.0103909466
vn 0.999539733 -0.0276462622 0.0124898637
vn 0.999937296 -0.00434312504 0.0103282323
vn 0.998463392 0.0546782948 0.00901133753
vn 0.998657823 0.05100796 0.00898866355
vn 0.998809218 0.0478772558 0.00937620364
vn 0.998599708 0.0522469133 0.00830251258
vn 0.998724878 0.0115375603 -0.0491481833
vn 0.9986009 0.0115712518 -0.0515988618
vn 0.999851584 -0.0118343262 0.012523747
vn 0.999552548 0.0271234382 0.0126067232
vn 0.999851584 -0.0118344501 0.0125223966
vn 0.999606907 0.0249653552 0.0127560915
vn 0.998971581 0.0421185195 0.0167899206
vn 0.998837292 0.0448080599 0.0177849233
vn 0.999505997 0.0225036666 -0.021939151
vn 0.999468863 0.0224157963 -0.0236549061
vn 0.0664629564 -0.120729633 -0.990458012
vn 0.199661687 0.0427633189 -0.978931308
vn 0.0642681494 -0.120664224 -0.990610778
vn 0.196981594 0.0463688672 -0.979310036
vn 0.0454826914 0.119955257 -0.991736948
vn 0.0392713808 0.115075 -0.992580235
vn -0.071912542 0.0198936127 -0.997212589
vn -0.0762709454 0.0200376902 -0.996885717
vn -0.999856114 0.0115598943 -0.0124149648
vn -0.99970752 -0.0232112426 -0.00678257784
vn -0.999855042 0.0115455361 -0.0125113139
vn -0.99965179 -0.0254376531 -0.00702378433
vn -0.998886049 -0.043298386 -0.0187582206
vn -0.999012113 -0.0405203849 -0.0182436928
vn -0.999581993 -0.0228921343 0.017656019
vn -0.999554574 -0.022822978 0.0192299951
vn -0.0667364001 0.123899229 0.990048051
vn -0.220234334 -0.0571145341 0.97377342
vn -0.0642215386 0.123948343 0.990208268
vn -0.217376933 -0.0535310917 0.974618733
vn -0.0487286747 -0.113195963 0.992377043
vn -0.0419787765 -0.117065981 0.992236555
vn 0.0713642985 -0.00930964015 0.9974069
vn 0.0759482235 -0.00892988313 0.997071743
vn -0.0693409741 0.066841267 0.995351195
vn 0.0139236925 0.0599671602 0.998103261
vn -0.0740343705 0.066378437 0.995044112
vn 0.0161164235 0.0600514933 0.998065174
vn 0.0117239263 0.0236709006 0.999651074
vn 0.00540767284 0.0199633036 0.999786079
vn -0.03116134 0.0677599981 0.997214913
vn -0.0294923689 0.0662563145 0.997366726
vn -0.108479999 0.353277117 0.929207981
vn -0.123884693 0.353007287 0.927382529
vn -0.231107339 0.461486012 0.856516242
vn -0.243529201 0.455131292 0.856474698
vn -0.313047349 0.151950136 0.937503278
vn -0.317534655 0.127012432 0.939701796
vn -0.300405979 -0.272955388 0.913921058
vn -0.294175267 -0.274639457 0.91544199
vn -0.14163363 -0.319297194 0.937010825
vn -0.130972981 -0.316287875 0.939578652
vn -0.0618880242 -0.0884110108 0.994159698
vn -0.0540548638 -0.0875036716 0.994696498
vn 0.0418069921 0.0285323597 0.998718262
vn 0.0461669602 0.0282662045 0.998533726
vn 0.999830127 0.0132219084 0.0128398407
vn 0.999813974 -0.00425523473 0.0188113376
vn 0.999834061 0.0132231191 0.0125251729
vn 0.999799788 -0.00567928609 0.0191881303
vn 0.999307156 -0.0251339581 0.0274514928
vn 0.99931848 -0.0249330681 0.0272200629
vn 0.998939693 -0.0384656377 0.0252960194
vn 0.998939812 -0.0391542278 0.0242119972
vn 0.998124897 -0.0584549457 0.0181593392
vn 0.997883737 -0.0628039166 0.0168452878
vn 0.99869436 -0.0506340154 0.00677593751
vn 0.999505758 -0.030906627 0.00574156363
vn 0.999567926 0.0293446574 0.00170160516
vn 0.999302745 0.0373149924 0.00130736141
vn 0.995867372 0.0908088312 0.00136622717
vn 0.995223224 0.0976100564 0.00177028764
vn 0.996736467 0.0795042515 0.013982933
vn 0.997821569 0.0642378777 0.0150198331
vn 0.999511361 0.02225703 0.0219501778
vn 0.999540806 0.0210283808 0.0218163189
vn 0.999967456 0.00692106877 -0.00414120685
vn 0.999962091 0.00678127771 -0.00547722029
vn 0.0693349168 -0.075294964 -0.994747818
vn -0.0147718973 -0.0587178543 -0.998165309
vn 0.0739702731 -0.0755836964 -0.994391978
vn -0.0169787481 -0.0586693324 -0.998133123
vn -0.00832120236 -0.0183029156 -0.999797881
vn -0.0143658174 -0.0221191011 -0.999652147
vn 0.0198125876 -0.0706481487 -0.997304559
vn 0.0340722129 -0.0704387948 -0.996934056
vn 0.104536265 -0.344237685 -0.933044791
vn 0.119915389 -0.345855236 -0.93059361
vn 0.232555047 -0.44248274 -0.866098821
vn 0.234352842 -0.446643919 -0.863474369
vn 0.306355089 -0.150822967 -0.939893007
vn 0.31080097 -0.126409009 -0.942031503
vn 0.294395506 0.268614143 -0.917157412
vn 0.288175344 0.270741224 -0.918506503
vn 0.137153 0.311818451 -0.940190613
vn 0.126556754 0.308573157 -0.942743838
vn 0.0576068237 0.0860499367 -0.994624019
vn 0.0499028452 0.0851425976 -0.99511826
vn -0.042640619 -0.0245891754 -0.99878782
vn -0.0468395017 -0.0243421309 -0.998605788
vn -0.999809206 -0.0147082713 -0.0128594395
vn -0.999813497 0.00523491716 -0.018593438
vn -0.999814093 -0.0146595677 -0.012530569
vn -0.999813497 0.00371103687 -0.0189518556
vn -0.999275386 0.0273744203 -0.0264479313
vn -0.999255836 0.0274569374 -0.0270899087
vn -0.998796225 0.0427469201 -0.0240601897
vn -0.998755813 0.0435848832 -0.0242346786
vn -0.997501194 0.0684994534 -0.0172968488
vn -0.997721374 0.0654991418 -0.0161796194
vn -0.999316216 0.0365720056 -0.0054459474
vn -0.99822396 0.059333533 -0.00532486523
vn -0.999654055 -0.0262893159 -0.000868067553
vn -0.999388337 -0.0349670947 -0.000460547511
vn -0.995827973 -0.0912470073 -0.000722518365
vn -0.99510324 -0.0988347158 -0.00117007399
vn -0.996565759 -0.0815835074 -0.0141712846
vn -0.997745335 -0.0653588399 -0.0152467089
vn -0.999480784 -0.0230979584 -0.0224647876
vn -0.999515295 -0.0216191262 -0.0223972257
vn -0.999970913 -0.00748029863 0.00149868405
vn -0.999969244 -0.00736118574 0.00271870918
vn -0.999904871 0.00534171145 -0.0127141206
vn -0.99976474 0.0151446322 -0.0155255729
vn -0.999907613 0.00537276501 -0.0124864448
vn -0.99978143 0.0138333207 -0.0156747289
vn -0.99938488 -0.0331409909 -0.0114700226
vn -0.999533176 -0.0285513885 -0.0108777331
vn -0.994344473 -0.105064355 -0.0155082215
vn -0.99270016 -0.11961434 -0.0154544357
vn -0.997660875 -0.0601473674 -0.0324831679
vn -0.995983005 -0.083250612 -0.0329737961
vn -0.999500394 -0.00704045454 -0.0308108795
vn -0.999515653 -0.00783750881 -0.0301146116
vn -0.999954343 0.00545912981 -0.00783945899
vn -0.99996376 0.00542104524 -0.00656767841
vn -0.0781590715 0.0259346459 0.996603489
vn -0.0348960236 0.110011965 0.993317485
vn -0.0814209133 0.0255823638 0.99635148
vn -0.0351371802 0.111562401 0.993136048
vn 0.152985826 -0.0520269349 0.986857891
vn 0.155157045 -0.0646738932 0.985770583
vn 0.14505519 -0.388915062 0.90978241
vn 0.142388269 -0.412312746 0.899846435
vn 0.110946119 -0.34787339 0.930953801
vn 0.107350394 -0.320954859 0.940990865
vn 0.051974047 -0.0463601239 0.997571766
vn 0.0496661328 -0.0440964848 0.997792006
vn 0.0175040681 0.0533493385 0.998422503
vn 0.0158368647 0.0532351248 0.998456478
vn 0.999898791 -0.00636269012 0.0127235204
vn 0.999769509 -0.0146487439 0.0156944972
vn 0.999901891 -0.00634383271 0.0124861915
vn 0.999747574 -0.015866736 0.0159089398
vn 0.999550879 0.0291688461 0.00686278194
vn 0.999408245 0.0335971266 0.00736845843
vn 0.994141877 0.107496828 0.0112421578
vn 0.992565036 0.121052206 0.0126866102
vn 0.995587587 0.0883815959 0.0315281972
vn 0.997463822 0.063502349 0.0321475938
vn 0.999476492 0.0105530256 0.0305861533
vn 0.999508858 0.0096435044 0.0298175607
vn 0.999958873 -0.00635130424 0.0064869253
vn 0.999965787 -0.00654007681 0.00506425835
vn 0.0780469328 -0.0317452028 -0.996444166
vn 0.0342286266 -0.106738411 -0.993697822
vn 0.0813842118 -0.0321320333 -0.996164799
vn 0.0342533626 -0.105247222 -0.993856013
vn -0.135622814 0.0581662767 -0.98905164
vn -0.136745051 0.0464189388 -0.989518106
vn -0.130122855 0.383129328 -0.914483488
vn -0.128440559 0.405159771 -0.905178726
vn -0.108105682 0.343508214 -0.932906866
vn -0.105168566 0.317751586 -0.942323387
vn -0.0551417582 0.0518016592 -0.997133851
vn -0.0513957888 0.0495332517 -0.997449219
vn -0.0184394773 -0.0489268564 -0.998632133
vn -0.016672682 -0.0490730517 -0.998656034
vn 0.0855592489 0.0161677469 -0.996201932
vn 0.0557188727 -0.0131013002 -0.998360574
vn 0.0870852396 0.0160225183 -0.996072054
vn 0.0528485887 -0.0129924892 -0.99851805
vn -0.027156774 -0.168246299 -0.985370874
vn -0.0418773666 -0.163834795 -0.985598564
vn -0.45619449 -0.0607412942 -0.887804687
vn -0.470372289 -0.0670496225 -0.879917204
vn 0.00314335804 0.125593781 -0.992076874
vn 0.0160615779 0.126397848 -0.991849661
vn -0.999730289 0.0194695983 -0.0126553299
vn -0.999860406 -0.00198467565 -0.0165913347
vn -0.999732554 0.0194800459 -0.0124586299
vn -0.999857187 -0.00175828999 -0.0168080963
vn -0.999721467 0.0103546111 -0.0212092884
vn -0.999759257 0.00443128683 -0.0214916244
vn -0.999600708 0.00428572996 -0.0279294699
vn -0.999583781 0.00718024932 -0.0279421173
vn -0.999600112 -0.0257979762 -0.0115824286
vn -0.99960357 -0.025823513 -0.011222031
vn -0.0857076123 -0.0194665138 0.996130109
vn -0.0578828901 0.00954862218 0.998277664
vn -0.0870942846 -0.0195403639 0.996008396
vn -0.0550712831 0.0097268438 0.99843508
vn 0.0235241875 0.146987617 0.988858581
vn 0.0383179821 0.149524629 0.988015234
vn 0.472775906 0.083754316 0.877193332
vn 0.476926327 0.0729805604 0.875908136
vn -0.00352735771 -0.123513199 0.99233669
vn -0.0169227663 -0.124340132 0.992095411
vn 0.99972862 -0.0195268262 0.0127004692
vn 0.999852061 0.00129540358 0.0171535742
vn 0.999731958 -0.0195058379 0.0124719506
vn 0.999847293 0.00165150838 0.0173938945
vn 0.999730885 -0.00687032798 0.0221581347
vn 0.999649882 -0.0141761741 0.0223448891
vn 0.999655128 -0.0093403738 0.0245410316
vn 0.999687672 -0.00531580485 0.0244206637
vn 0.999466717 0.0307629406 0.0109499302
vn 0.999468744 0.0308166444 0.0106150731
vn 0.999920368 0.00150501321 0.0125267785
vn 0.999822199 0.000895936217 0.0188370906
vn 0.999921441 0.00150641392 0.0124459397
vn 0.9998191 0.000901071937 0.0189979598
vn 0.999919772 1.58353159E-05 0.0126681393
vn 0.999922872 3.3253238E-07 0.0124198515
vn 0.0903204307 -0.001924927 -0.995910883
vn 0.0633325353 -0.00229998352 -0.997989893
vn 0.0906470641 -0.00193068257 -0.9958812
vn 0.0629074797 -0.00228335848 -0.998016715
vn 0.0494458154 -0.00237068953 -0.998773992
vn 0.0489281677 -0.00234133354 -0.998799562
vn -0.99992156 -0.00103449076 -0.0124806687
vn -0.999848008 -0.000710294174 -0.0174218379
vn -0.999922395 -0.00103322894 -0.0124188801
vn -0.999849081 -0.00070645893 -0.0173611045
vn -0.999919415 4.45449223E-06 -0.0126969237
vn -0.999921799 1.58073744E-05 -0.0125115626
vn -0.0904018953 0.00105820852 0.995904863
vn -0.069507584 0.00240296335 0.997578561
vn -0.0906549841 0.00105305039 0.995881796
vn -0.0690193176 0.00242525549 0.997612357
vn -0.0502829403 0.00441899616 0.998725235
vn -0.0495631583 0.00446020765 0.998761058
vn 0.0273690969 -0.0588525645 -0.997891486
vn -0.124861255 -0.169756323 -0.977544129
vn -0.120024018 -0.174335584 -0.977343976
vn 0.0248426851 -0.0595882088 -0.997913897
vn 0.000150226493 -1 1.67912037E-06
vn 0.000149248677 -1 -1.1393945E-05
vn 0.00014921758 -1 -1.18096514E-05
vn 0.000150259832 -1 2.12479563E-06
vn -0.029005276 0.0606255457 0.997739077
vn 0.13608627 0.162783176 0.97723186
vn 0.127533481 0.163519874 0.978261948
vn -0.0316066183 0.053320501 0.998077154
vn 0.000357671845 1 3.03111665E-06
vn 0.000358082878 1 -3.64301486E-05
vn 0.000358095713 1 -3.76582539E-05
vn 0.000357659883 1 4.17965975E-06
vn -0.193084344 -0.176690638 -0.965141892
vn 0.112945519 -0.3234469 -0.939481437
vn 0.159400553 -0.310951293 -0.936963618
vn -0.228409991 -0.223504066 -0.947562516
vn -0.253715694 -0.128392845 -0.95871973
vn -0.263745815 -0.141361728 -0.954177678
vn -0.201585874 0.0556011163 -0.977891445
vn -0.198313162 0.0551698059 -0.978584826
vn -0.192988664 0.249337852 -0.948992074
vn -0.190144554 0.238348588 -0.952383816
vn -0.135600731 0.108382061 -0.984817684
vn -0.102353252 0.0351938978 -0.994125247
vn -0.120024018 -0.174335584 -0.977343976
vn -0.124861255 -0.169756323 -0.977544129
vn -0.998819411 0.0466178954 -0.0136526152
vn -0.997231066 0.0733073428 -0.0124985166
vn -0.997231424 0.0733184442 -0.0124057513
vn -0.999112308 0.0398206078 -0.0137393512
vn -0.999866486 0.00828434154 -0.0140811969
vn -0.999877691 0.00722272042 -0.0138698313
vn -0.998338103 -0.057432916 -0.00472989026
vn -0.998626113 -0.0521473996 -0.00514208898
vn -0.994457126 -0.104860574 0.00769935269
vn -0.994853079 -0.100891516 0.00940115657
vn -0.998264492 -0.0542163253 0.0229940098
vn -0.998497248 -0.0501484089 0.0221018046
vn -0.996914744 -0.0162252448 0.0767973587
vn -0.99660933 -0.0164142381 0.0806251541
vn 0.19730334 0.195856109 0.960578918
vn -0.0993546844 0.348433167 0.93205303
vn -0.108758911 0.344279051 0.932546794
vn 0.204700172 0.158473268 0.965911031
vn 0.262851566 0.127101675 0.956427872
vn 0.273596138 0.139917344 0.951613486
vn 0.225733757 -0.0550628528 0.972631693
vn 0.222981706 -0.0549948104 0.973270178
vn 0.21663633 -0.235399798 0.947446942
vn 0.21917358 -0.245718569 0.944237947
vn 0.165946722 -0.0994562283 0.98110652
vn 0.119188398 -0.0224859808 0.992616951
vn 0.127533481 0.163519874 0.978261948
vn 0.13608627 0.162783176 0.97723186
vn 0.995238304 -0.0966916904 0.0123070069
vn 0.997797847 -0.0652841106 0.0117248241
vn 0.995238543 -0.0966847017 0.0123434635
vn 0.998425364 -0.0548364855 0.011817839
vn 0.999893188 -0.0103727188 0.0102931224
vn 0.999867439 -0.013037066 0.0097527178
vn 0.998480618 0.0546287373 -0.00723197404
vn 0.998188078 0.0597876385 -0.00677379593
vn 0.993695796 0.10923925 -0.0252060574
vn 0.993103385 0.114574112 -0.024868127
vn 0.997496665 0.0575833358 -0.0410418771
vn 0.997587323 0.0535391755 -0.044193875
vn 0.994993985 0.00387997809 -0.0998593122
vn 0.994587064 0.00317710824 -0.103858002
vn 0.0248426851 -0.0595882088 -0.997913897
vn 0.0826595128 0.00932159461 -0.996534228
vn 0.082942225 -0.00276172929 -0.99655056
vn 0.0273690969 -0.0588525645 -0.997891486
vn -0.999923348 -1.51894983E-05 -0.0123870606
vn -0.99992311 -1.48247118E-05 -0.0124034993
vn -0.99992311 -1.48194322E-05 -0.0124037508
vn -0.999923348 -1.51947779E-05 -0.0123868082
vn -0.0316066183 0.053320501 0.998077154
vn -0.0923036784 1.65923993E-05 0.995730937
vn -0.0921876207 0.0041550952 0.995733082
vn -0.029005276 0.0606255457 0.997739077
vn 0.999922276 9.44909334E-05 0.0124687832
vn 0.99992311 9.29925227E-05 0.0124045527
vn 0.99992311 9.29697344E-05 0.0124035003
vn 0.999922276 9.45136999E-05 0.0124697937
vn 0.082942225 -0.00276172929 -0.99655056
vn 0.159400553 -0.310951293 -0.936963618
vn 0.112945519 -0.3234469 -0.939481437
vn 0.0826595128 0.00932159461 -0.996534228
vn 0.000454257563 0.999999881 5.38448103E-06
vn 0.0004542557 0.999999881 5.39956545E-06
vn 0.000454255642 0.999999881 5.40007932E-06
vn 0.000454257621 0.999999881 5.38394534E-06
vn -0.0921876207 0.0041550952 0.995733082
vn -0.108758911 0.344279051 0.932546794
vn -0.0993546844 0.348433167 0.93205303
vn -0.0923036784 1.65923993E-05 0.995730937
vn 0.000237924003 -1 3.077472E-06
vn 0.000238146342 -1 -1.43826037E-06
vn 0.000238152468 -1 -1.56302372E-06
vn 0.000237917862 -1 3.20224558E-06
vn 0.257917881 -0.0921317488 0.961764038
vn 0.257916093 -0.0921264663 0.961765051
vn 0.257918864 -0.0921346396 0.961763501
vn 0.257915139 -0.0921235532 0.961765587
vn -0.0731863827 -0.994434655 -0.0757855177
vn -0.0731861368 -0.994434774 -0.0757841468
vn -0.0731863976 -0.994434655 -0.0757855996
vn -0.0731861293 -0.994434774 -0.0757840723
vn -0.257915765 0.0921272114 -0.961765051
vn -0.257915616 0.0921275243 -0.961765051
vn -0.257915854 0.09212704 -0.961765051
vn -0.257915497 0.0921276957 -0.961765051
vn 0.0731817856 0.994436383 0.0757677034
vn 0.0731858388 0.994435191 0.0757790506
vn 0.0731815696 0.994436383 0.0757670775
vn 0.0731860623 0.994435072 0.075779669
vn 0.944053888 -0.0448219106 -0.326731294
vn 0.944058478 -0.0448261239 -0.326717287
vn 0.944053173 -0.0448212661 -0.32673341
vn 0.944059193 -0.0448267572 -0.326715142
vn -0.944051325 0.044827655 0.326737851
vn -0.944054425 0.0448268391 0.326729089
vn -0.944050789 0.0448277704 0.326739132
vn -0.944054842 0.0448267162 0.326727748
vn 0.257921815 -0.0921370536 0.961762488
vn 0.257928908 -0.0921423957 0.961760104
vn 0.257960469 -0.0921845809 0.961747646
vn 0.25791958 -0.0921168551 0.961765051
vn 0.257922053 -0.092124261 0.96176362
vn 0.257919639 -0.0921365842 0.961763144
vn 0.25791806 -0.0920911059 0.961767912
vn 0.257924587 -0.0920556113 0.961769581
vn -0.830150425 0.450170487 0.328932852
vn -0.830148876 0.450176477 0.32892853
vn -0.83015275 0.450161248 0.328939497
vn -0.830146492 0.450185657 0.328921854
vn -0.152105972 0.976780355 0.150877371
vn -0.152104616 0.976780772 0.150875747
vn -0.152107835 0.97677964 0.150879592
vn -0.152102724 0.976781368 0.150873482
vn 0.667352796 0.728660405 -0.153929606
vn 0.667352796 0.728660345 -0.153929621
vn 0.667352796 0.728660345 -0.153929621
vn 0.667352796 0.728660405 -0.153929651
vn 0.667343497 0.728663802 -0.153953835
vn 0.667343378 0.728667796 -0.153935254
vn 0.944052815 -0.0448315218 -0.326732785
vn 0.944053769 -0.0448287725 -0.326730639
vn 0.944051445 -0.0448359139 -0.326736182
vn 0.94405508 -0.0448243693 -0.326727241
vn 0.944039881 -0.044817619 -0.326772153
vn 0.944045484 -0.044812575 -0.326756775
vn 0.55570662 -0.78654027 -0.269340813
vn 0.555705905 -0.786540747 -0.269341171
vn 0.555707753 -0.786539614 -0.269340277
vn 0.555704832 -0.786541343 -0.269341618
vn 0.555701315 -0.786544919 -0.269338161
vn 0.5556795 -0.786549866 -0.269369066
vn -0.29434967 -0.955690861 0.00363369822
vn -0.294344604 -0.95569247 0.00363505795
vn -0.294356287 -0.955688894 0.00363195967
vn -0.294337958 -0.955694437 0.00363679579
vn -0.89056164 -0.368554056 0.266585559
vn -0.890561163 -0.36855495 0.266585916
vn -0.890562415 -0.368552804 0.266584963
vn -0.890560508 -0.368556201 0.266586602
vn -0.890855789 0.0994022638 -0.443277746
vn -0.890852094 0.0994112641 -0.443283141
vn -0.890851498 0.0994116068 -0.443284303
vn -0.890848398 0.0994065553 -0.443291605
vn -0.890768826 0.0994461179 -0.443442583
vn -0.890753508 0.0994550437 -0.443471372
vn -0.260154933 0.101542845 -0.960212648
vn -0.261007756 0.0926958695 -0.960875869
vn -0.259910613 0.104659937 -0.959944129
vn -0.260976046 0.0921923593 -0.96093291
vn -0.26097241 0.0922426954 -0.960929036
vn -0.261561871 0.0830324367 -0.961608469
vn -0.260877311 0.0920419693 -0.960974097
vn -0.261728317 0.0798755437 -0.961830676
vn 0.046391651 0.995338082 0.0845575929
vn 0.0567273982 0.995608509 0.0744695365
vn 0.0465142056 0.995300412 0.0849331394
vn 0.0582244359 0.995533228 0.0743200406
vn 0.0732104108 0.994437218 0.075728558
vn 0.073213324 0.994437575 0.0757218897
vn -0.100495279 -0.992695689 -0.0667535588
vn -0.087715812 -0.99316287 -0.077029191
vn -0.100406088 -0.992733002 -0.0663310736
vn -0.0893098488 -0.99299556 -0.0773543194
vn -0.0731556043 -0.994434297 -0.0758198127
vn -0.073154062 -0.994434297 -0.0758213997
vn 0.527146697 0.0256574489 -0.849386811
vn 0.527146757 0.0256619994 -0.849386752
vn 0.527136981 0.025646694 -0.849393189
vn 0.5271523 0.0256663524 -0.849383116
vn 0.527152002 0.0256613661 -0.849383473
vn 0.527153552 0.0256638695 -0.849382341
vn -0.599106371 -0.0166432671 0.800496459
vn -0.599105597 -0.0166319553 0.800497234
vn -0.599104166 -0.0166360997 0.800498188
vn -0.599110842 -0.0166304391 0.800493419
vn -0.599111438 -0.0166422706 0.800492704
vn -0.599118829 -0.0166207645 0.800487578
vn 0.0923697799 -0.122926392 -0.988107741
vn 0.0923697427 -0.122926421 -0.988107741
vn 0.092369698 -0.122926444 -0.988107741
vn 0.0923698097 -0.122926377 -0.988107741
vn -0.0923694372 0.122926444 0.988107741
vn -0.0923696533 0.122926384 0.988107741
vn -0.0923693925 0.122926444 0.988107741
vn -0.0923697352 0.122926377 0.988107741
vn -0.0442586951 -0.989338815 0.138743654
vn -0.0442587174 -0.989338815 0.138743594
vn -0.0442587212 -0.989338815 0.13874355
vn -0.0442586802 -0.989338815 0.138743669
vn -0.994998336 0.0267157033 -0.0962523594
vn -0.994998455 0.0267157052 -0.0962517858
vn -0.994998455 0.0267157033 -0.0962517932
vn -0.994998336 0.0267157033 -0.0962523893
vn 0.0442587771 0.989338815 -0.138744131
vn 0.0442587771 0.989338815 -0.138744131
vn 0.0442587733 0.989338815 -0.138744116
vn 0.0442587733 0.989338815 -0.138744116
vn 0.994998336 -0.0267156698 0.0962519869
vn 0.994998217 -0.026715273 0.0962535962
vn 0.994998217 -0.0267152451 0.0962537304
vn 0.994998455 -0.026715707 0.096251756
vn 0.457429051 -0.327549666 -0.826722443
vn 0.455659002 -0.329867452 -0.826778352
vn 0.4644728 -0.318247557 -0.826428175
vn 0.448206872 -0.339539796 -0.826936126
vn -0.461373001 0.264503032 0.846860647
vn -0.459954351 0.266507149 0.847004056
vn -0.453999639 0.274859369 0.847547412
vn -0.466995686 0.256505072 0.846238792
vn -0.0710903257 -0.958362877 0.276562303
vn -0.0710904375 -0.958362818 0.276562929
vn -0.0710904449 -0.958362699 0.276562989
vn -0.0710902959 -0.958362877 0.276562214
vn -0.983108222 -0.0951608643 -0.15634127
vn -0.971103668 -0.0955336094 -0.21870324
vn -0.96611464 -0.0955726132 -0.239767417
vn -0.986716866 -0.0949113891 -0.131839976
vn 0.026009215 0.959035873 -0.28208825
vn 0.026009215 0.959035873 -0.28208825
vn 0.0260091927 0.959035873 -0.28208822
vn 0.0260091927 0.959035873 -0.28208822
vn 0.970801473 0.102775589 0.216752425
vn 0.984110594 0.0631435066 0.165949434
vn 0.988095641 0.0478266291 0.146217301
vn 0.965438902 0.115870215 0.233456269
vn 0.256036162 -0.0919659659 0.962282598
vn 0.257908195 -0.0921379551 0.961766064
vn 0.257910013 -0.0921052694 0.961768687
vn 0.25774318 -0.0910157785 0.961917102
vn 0.257580727 -0.0931934193 0.961752117
vn 0.255650252 -0.0978614688 0.961803555
vn 0.254856437 -0.0922873616 0.962564945
vn 0.254950076 -0.0918698162 0.962580085
vn 0.256481826 -0.0861564428 0.96270144
vn 0.255064607 -0.0917015299 0.962565839
vn 0.19161661 -0.574231684 0.795952916
vn -0.13159208 -0.419447571 0.898191094
vn -0.127857536 -0.423401713 0.896874309
vn -0.261944443 -0.0539337955 0.963574708
vn 0.180236608 -0.574130177 0.798679709
vn -0.261938155 -0.0539099053 0.963577807
vn 0.480336279 -0.507270992 0.715509117
vn -0.0790615976 0.294284314 0.95244211
vn 0.511263072 -0.49082157 0.705481529
vn -0.0747668892 0.297819704 0.951689839
vn 0.712518871 -0.212838203 0.668593049
vn 0.320351869 0.40721789 0.85530591
vn 0.71461612 -0.205630988 0.668610334
vn 0.308028698 0.408794463 0.859072447
vn 0.651522934 0.201983467 0.731245816
vn 0.661463857 0.186579108 0.726397872
vn -0.0863229409 -0.993718147 -0.0712219402
vn -0.691883743 -0.702925384 0.164902642
vn -0.708037257 -0.684846044 0.172247604
vn -0.0600806288 -0.994958341 -0.080300577
vn -0.944057822 0.0447550192 0.326728821
vn 0.507087588 -0.822869003 -0.256415129
vn -0.944053769 0.044818528 0.326731801
vn 0.523876667 -0.810845673 -0.260926217
vn -0.583847404 0.763300657 0.276576102
vn 0.909646988 -0.245206535 -0.335285097
vn -0.602463186 0.746943712 0.281270742
vn 0.911334872 -0.238933757 -0.335230261
vn 0.192461431 0.980725825 0.0336955823
vn 0.812180758 0.539285064 -0.222562447
vn 0.158815473 0.986248314 0.0457374975
vn 0.821490169 0.522919774 -0.227395877
vt 0.187202632 0.44966954
vt 0.080715239 0.501344442
vt 0.080715239 0.44966954
vt 0.187202632 0.501344442
vt 0.297026038 0.44966954
vt 0.297026038 0.501344442
vt 0.408069342 0.44966957
vt 0.408069342 0.501344442
vt 0.512772679 0.44966957
vt 0.512772679 0.501344442
vt 0.622934759 0.44966957
vt 0.622934759 0.501344442
vt 0.751830339 0.44966957
vt 0.751830339 0.501344442
vt 0.849639237 0.44966957
vt 0.849639237 0.501344442
vt 0.187202632 0.609954953
vt 0.080715239 0.662110686
vt 0.080715239 0.609954953
vt 0.187202632 0.662110686
vt 0.297026038 0.609954953
vt 0.297026038 0.662110686
vt 0.408069342 0.609954953
vt 0.408069342 0.662110686
vt 0.512772679 0.609954953
vt 0.512772679 0.662110686
vt 0.622934759 0.609955013
vt 0.622934759 0.662110686
vt 0.751830339 0.609955072
vt 0.751830339 0.662110686
vt 0.849639237 0.609955072
vt 0.849639237 0.662110746
vt 0.187202632 0.556624889
vt 0.080715239 0.60858947
vt 0.080715239 0.556624889
vt 0.187202632 0.60858947
vt 0.297026038 0.556624949
vt 0.297026038 0.60858947
vt 0.408069342 0.556624949
vt 0.408069342 0.60858947
vt 0.512772679 0.556624949
vt 0.512772679 0.60858947
vt 0.622934759 0.556624949
vt 0.622934759 0.60858947
vt 0.751830339 0.556624949
vt 0.751830339 0.60858953
vt 0.849639237 0.556624949
vt 0.849639237 0.60858953
vt 0.187202632 0.502842188
vt 0.080715239 0.555224419
vt 0.080715239 0.502842188
vt 0.187202632 0.555224419
vt 0.297026038 0.502842188
vt 0.297026038 0.555224478
vt 0.408069342 0.502842247
vt 0.408069342 0.555224478
vt 0.512772679 0.502842247
vt 0.512772679 0.555224478
vt 0.622934759 0.502842247
vt 0.622934759 0.555224478
vt 0.751830339 0.502842247
vt 0.751830339 0.555224478
vt 0.849639237 0.502842247
vt 0.849639237 0.555224478
vt 0.187887043 0.44966954
vt 0.080715239 0.501344442
vt 0.080715239 0.44966954
vt 0.187887073 0.501344442
vt 0.299261123 0.44966954
vt 0.299261183 0.501344442
vt 0.404817611 0.44966957
vt 0.404817641 0.501344442
vt 0.623314619 0.449669629
vt 0.623314619 0.501344442
vt 0.849639237 0.44966957
vt 0.849639237 0.501344442
vt 0.187887043 0.609954953
vt 0.080715239 0.662110686
vt 0.080715239 0.609954953
vt 0.187887043 0.662110627
vt 0.299261123 0.609955013
vt 0.299261123 0.662110627
vt 0.404817611 0.609955013
vt 0.404817611 0.662110627
vt 0.623314619 0.609955072
vt 0.623314619 0.662110686
vt 0.849639237 0.609955072
vt 0.849639237 0.662110746
vt 0.187887043 0.55662483
vt 0.080715239 0.60858947
vt 0.080715239 0.556624889
vt 0.187887043 0.60858947
vt 0.299261123 0.55662483
vt 0.299261123 0.60858947
vt 0.404817611 0.55662483
vt 0.404817611 0.60858947
vt 0.623314619 0.556624889
vt 0.623314619 0.60858953
vt 0.849639237 0.556624949
vt 0.849639237 0.60858953
vt 0.187887073 0.502842188
vt 0.080715239 0.555224419
vt 0.080715239 0.502842188
vt 0.187887043 0.555224359
vt 0.299261183 0.502842188
vt 0.299261123 0.555224359
vt 0.404817641 0.502842188
vt 0.404817611 0.555224359
vt 0.623314619 0.502842188
vt 0.623314619 0.555224419
vt 0.849639237 0.502842247
vt 0.849639237 0.555224478
vt -0.394036412 0.44966948
vt 0.20238927 0.501344383
vt -0.394036412 0.501344323
vt 0.20238927 0.44966954
vt 0.45471257 0.44966957
vt 0.45471257 0.501344383
vt 0.74486649 0.501344383
vt 0.74486649 0.44966957
vt 1.10294914 0.449669629
vt 1.10294914 0.501344442
vt -0.394036412 0.609954894
vt 0.20238927 0.662110627
vt -0.394036412 0.662110627
vt 0.20238927 0.609954953
vt 0.45471257 0.609955013
vt 0.45471257 0.662110686
vt 0.74486649 0.662110686
vt 0.74486649 0.609955072
vt 1.10294914 0.609955132
vt 1.10294914 0.662110746
vt -0.394036412 0.55662483
vt 0.20238927 0.60858947
vt -0.394036412 0.608589411
vt 0.20238927 0.556624889
vt 0.45471257 0.60858947
vt 0.45471257 0.556624889
vt 0.74486649 0.60858953
vt 0.74486649 0.556624889
vt 1.10294914 0.60858959
vt 1.10294914 0.556624949
vt -0.394036412 0.502842128
vt 0.20238927 0.555224419
vt -0.394036412 0.555224359
vt 0.20238927 0.502842128
vt 0.45471257 0.555224419
vt 0.45471257 0.502842188
vt 0.74486649 0.555224419
vt 0.74486649 0.502842247
vt 1.10294914 0.555224478
vt 1.10294914 0.502842247
vt -0.394036412 0.44966948
vt 0.479441166 0.501344442
vt -0.394036412 0.501344323
vt 0.479441166 0.44966957
vt 0.752850592 0.501344442
vt 0.752850592 0.44966957
vt 1.10294914 0.449669629
vt 1.10294914 0.501344442
vt -0.394036412 0.609954894
vt 0.479441166 0.662110686
vt -0.394036412 0.662110627
vt 0.479441166 0.609955013
vt 0.752850592 0.662110686
vt 0.752850592 0.609955072
vt 1.10294914 0.662110746
vt 1.10294914 0.609955132
vt -0.394036412 0.55662483
vt 0.479441166 0.60858947
vt -0.394036412 0.608589411
vt 0.479441166 0.556624889
vt 0.752850592 0.60858953
vt 0.752850592 0.556624949
vt 1.10294914 0.60858959
vt 1.10294914 0.556624949
vt -0.394036412 0.502842128
vt 0.479441166 0.555224419
vt -0.394036412 0.555224359
vt 0.479441166 0.502842188
vt 0.752850592 0.555224478
vt 0.752850592 0.502842188
vt 1.10294914 0.555224478
vt 1.10294914 0.502842247
vt -0.394036412 0.44966948
vt -0.114343494 0.501344442
vt -0.394036412 0.501344323
vt -0.114343494 0.44966948
vt 0.168031067 0.501344442
vt 0.168031037 0.44966954
vt 0.228851393 0.501344442
vt 0.228851348 0.44966957
vt 0.284858644 0.44966954
vt 0.284858704 0.501344442
vt 0.380706787 0.44966957
vt 0.380706847 0.501344442
vt 0.456030846 0.44966957
vt 0.456030875 0.501344442
vt 0.508808851 0.44966957
vt 0.508808851 0.501344442
vt 0.693818331 0.44966957
vt 0.693818331 0.501344442
vt 0.793045163 0.44966957
vt 0.793045163 0.501344442
vt 1.10294914 0.449669629
vt 1.10294914 0.501344442
vt -0.394036412 0.609954894
vt -0.114343494 0.662110627
vt -0.394036412 0.662110627
vt -0.114343494 0.609954953
vt 0.168031037 0.662110627
vt 0.168031037 0.609955013
vt 0.228851348 0.662110627
vt 0.228851348 0.609955013
vt 0.284858644 0.662110627
vt 0.284858644 0.609955013
vt 0.380706787 0.662110627
vt 0.380706787 0.609955072
vt 0.456030846 0.662110627
vt 0.456030846 0.609955072
vt 0.508808851 0.609955072
vt 0.508808851 0.662110627
vt 0.693818331 0.609955072
vt 0.693818331 0.662110627
vt 0.793045163 0.609955072
vt 0.793045163 0.662110627
vt 1.10294914 0.609955132
vt 1.10294914 0.662110746
vt -0.394036412 0.55662483
vt -0.114343494 0.60858947
vt -0.394036412 0.608589411
vt -0.114343494 0.55662483
vt 0.168031037 0.60858947
vt 0.168031037 0.55662483
vt 0.228851348 0.55662483
vt 0.228851348 0.60858947
vt 0.284858644 0.55662483
vt 0.284858644 0.60858947
vt 0.380706787 0.55662483
vt 0.380706787 0.60858947
vt 0.456030846 0.60858953
vt 0.456030846 0.55662483
vt 0.508808851 0.60858959
vt 0.508808851 0.55662483
vt 0.693818331 0.60858959
vt 0.693818331 0.55662483
vt 0.793045163 0.60858959
vt 0.793045163 0.55662483
vt 1.10294914 0.60858959
vt 1.10294914 0.556624949
vt -0.394036412 0.502842128
vt -0.114343494 0.555224359
vt -0.394036412 0.555224359
vt -0.114343494 0.502842188
vt 0.168031037 0.555224359
vt 0.168031067 0.502842247
vt 0.228851393 0.502842247
vt 0.228851348 0.555224419
vt 0.284858644 0.555224419
vt 0.284858704 0.502842247
vt 0.380706787 0.555224419
vt 0.380706847 0.502842247
vt 0.456030875 0.502842247
vt 0.456030846 0.555224419
vt 0.508808851 0.555224419
vt 0.508808851 0.502842247
vt 0.693818331 0.555224419
vt 0.693818331 0.502842247
vt 0.793045163 0.555224419
vt 0.793045163 0.502842247
vt 1.10294914 0.555224478
vt 1.10294914 0.502842247
vt -0.394036412 0.44966948
vt -0.199769318 0.501344323
vt -0.394036412 0.501344323
vt -0.199769318 0.44966948
vt 0.493385762 0.44966957
vt 0.493385762 0.501344442
vt 0.553830147 0.501344442
vt 0.553830147 0.44966957
vt 0.687579632 0.44966957
vt 0.687579632 0.501344442
vt 0.80369091 0.4496696
vt 0.80369091 0.501344442
vt 1.10294914 0.449669629
vt 1.10294914 0.501344442
vt -0.394036412 0.609954894
vt -0.199769318 0.662110627
vt -0.394036412 0.662110627
vt -0.199769318 0.609954953
vt 0.493385762 0.609955013
vt 0.493385762 0.662110686
vt 0.553830147 0.609955072
vt 0.553830147 0.662110686
vt 0.687579632 0.609955072
vt 0.687579632 0.662110686
vt 0.80369091 0.609955072
vt 0.80369091 0.662110686
vt 1.10294914 0.662110746
vt 1.10294914 0.609955132
vt -0.394036412 0.55662483
vt -0.199769318 0.60858947
vt -0.394036412 0.608589411
vt -0.199769318 0.55662483
vt 0.493385762 0.556624949
vt 0.493385762 0.60858947
vt 0.553830147 0.556624949
vt 0.553830147 0.60858947
vt 0.687579632 0.556624949
vt 0.687579632 0.60858953
vt 0.80369091 0.556624949
vt 0.80369091 0.60858953
vt 1.10294914 0.556624949
vt 1.10294914 0.60858959
vt -0.394036412 0.502842128
vt -0.199769318 0.555224359
vt -0.394036412 0.555224359
vt -0.199769318 0.502842128
vt 0.493385762 0.502842188
vt 0.493385762 0.555224478
vt 0.553830147 0.555224478
vt 0.553830147 0.502842188
vt 0.687579632 0.555224478
vt 0.687579632 0.502842188
vt 0.80369091 0.555224478
vt 0.80369091 0.502842247
vt 1.10294914 0.555224478
vt 1.10294914 0.502842247
vt -0.394036412 0.44966948
vt -0.101887599 0.501344442
vt -0.394036412 0.501344323
vt -0.101887599 0.44966948
vt 0.171333432 0.501344442
vt 0.171333432 0.44966954
vt 0.45773533 0.501344442
vt 0.45773533 0.44966957
vt 1.10294914 0.449669629
vt 1.10294914 0.501344442
vt -0.394036412 0.609954894
vt -0.101887599 0.662110686
vt -0.394036412 0.662110627
vt -0.101887599 0.609954894
vt 0.171333432 0.662110686
vt 0.171333432 0.609954953
vt 0.45773533 0.662110746
vt 0.45773533 0.609955013
vt 1.10294914 0.662110746
vt 1.10294914 0.609955132
vt -0.394036412 0.55662483
vt -0.101887599 0.608589411
vt -0.394036412 0.608589411
vt -0.101887599 0.55662483
vt 0.171333432 0.60858947
vt 0.171333432 0.55662483
vt 0.45773533 0.60858953
vt 0.45773533 0.556624889
vt 1.10294914 0.60858959
vt 1.10294914 0.556624949
vt -0.394036412 0.502842128
vt -0.101887599 0.555224359
vt -0.394036412 0.555224359
vt -0.101887599 0.502842188
vt 0.171333432 0.555224359
vt 0.171333432 0.502842188
vt 0.45773533 0.555224419
vt 0.45773533 0.502842188
vt 1.10294914 0.555224478
vt 1.10294914 0.502842247
vt -0.394036412 0.44966948
vt 0.733883798 0.501344442
vt -0.394036412 0.501344323
vt 0.733883798 0.44966957
vt 1.10294914 0.449669629
vt 1.10294914 0.501344442
vt -0.394036412 0.609954894
vt 0.733883798 0.662110746
vt -0.394036412 0.662110627
vt 0.733883798 0.609955072
vt 1.10294914 0.662110746
vt 1.10294914 0.609955132
vt -0.394036412 0.55662483
vt 0.733883798 0.60858953
vt -0.394036412 0.608589411
vt 0.733883798 0.556624889
vt 1.10294914 0.60858959
vt 1.10294914 0.556624949
vt -0.394036412 0.502842128
vt 0.733883798 0.555224419
vt -0.394036412 0.555224359
vt 0.733883798 0.502842247
vt 1.10294914 0.555224478
vt 1.10294914 0.502842247
vt 0.803154171 0.449664235
vt 0.314317256 0.501384139
vt 0.336830795 0.449651152
vt 0.825411618 0.501347899
vt 0.803177714 0.610238552
vt 0.336774081 0.662315905
vt 0.336677283 0.610203445
vt 0.80317831 0.662384868
vt 0.825410247 0.556621075
vt 0.336816847 0.608597636
vt 0.314303666 0.556584418
vt 0.803152919 0.608594835
vt 0.825340331 0.502842188
vt 0.314404905 0.555224359
vt 0.314404905 0.502842128
vt 0.825340271 0.555224419
vt 0.200673997 0.44966954
vt 0.0226056296 0.501063585
vt 0.0447991043 0.449791849
vt 0.18614611 0.501344323
vt 0.280082047 0.501344323
vt 0.290331036 0.44966954
vt 0.530353904 0.501344442
vt 0.529202759 0.44966957
vt 0.63219595 0.44966957
vt 0.638262391 0.501344442
vt 0.75858146 0.44966957
vt 0.770679593 0.501344442
vt 0.965347886 0.449638873
vt 0.987361014 0.501589537
vt 0.200673997 0.609955013
vt 0.0447028205 0.661364496
vt 0.0447028615 0.609213352
vt 0.200673997 0.662110746
vt 0.290331036 0.609955072
vt 0.290331036 0.662110746
vt 0.529202759 0.609955072
vt 0.529202759 0.662110746
vt 0.63219595 0.662110746
vt 0.63219595 0.609955072
vt 0.75858146 0.662110806
vt 0.75858146 0.609955072
vt 0.965365589 0.610413969
vt 0.965364814 0.662505209
vt 0.18614608 0.55662483
vt 0.0447997488 0.608465552
vt 0.0226054918 0.556906819
vt 0.200673997 0.60858947
vt 0.280081987 0.55662483
vt 0.290331036 0.60858953
vt 0.530353785 0.55662483
vt 0.529202759 0.60858953
vt 0.638262391 0.55662483
vt 0.63219595 0.60858953
vt 0.75858146 0.60858953
vt 0.770679533 0.556624889
vt 0.987360775 0.556375206
vt 0.965352833 0.608602107
vt 0.0227435604 0.502842128
vt 0.18614608 0.555224359
vt 0.0227435213 0.555224299
vt 0.18614611 0.502842128
vt 0.280082047 0.502842128
vt 0.280081987 0.555224359
vt 0.530353904 0.502842188
vt 0.530353785 0.555224359
vt 0.638262391 0.555224419
vt 0.638262391 0.502842188
vt 0.770679593 0.502842247
vt 0.770679533 0.555224419
vt 0.987330437 0.502842247
vt 0.987330437 0.555224419
vt 0.987720013 0.449668854
vt 0.0450556763 0.501344323
vt 0.0226879101 0.449669421
vt 0.965238035 0.501344442
vt 0.987720132 0.609955192
vt 0.022687925 0.662110746
vt 0.022687925 0.609955013
vt 0.987720132 0.662110806
vt 0.965237975 0.556624353
vt 0.0226879157 0.608589172
vt 0.0450556949 0.556624055
vt 0.987720132 0.60858959
vt 0.965237141 0.502845228
vt 0.0450566337 0.555225015
vt 0.0450566113 0.502842069
vt 0.965237021 0.555223763
vt 0.825340271 0.501344562
vt 0.336765468 0.449402094
vt 0.314404368 0.501343787
vt 0.803125978 0.449659497
vt 0.80312264 0.662128687
vt 0.336821228 0.610108495
vt 0.336821467 0.662262917
vt 0.803122759 0.60997349
vt 0.803126097 0.608599663
vt 0.314404786 0.556625605
vt 0.336765319 0.608858883
vt 0.825340211 0.556624711
vt 0.825340271 0.555224419
vt 0.314404905 0.502842128
vt 0.314404905 0.555224359
vt 0.825340331 0.502842188
vt 0.851210475 0.768809378
vt 0.958603919 0.662917972
vt 0.851210475 0.662917972
vt 0.958603919 0.768809378
vt 0.638447046 0.892821908
vt 0.745840073 0.872852445
vt 0.638447046 0.872852445
vt 0.745840073 0.892821908
vt 0.851154149 0.662918031
vt 0.743760705 0.768809438
vt 0.851154149 0.768809497
vt 0.743760705 0.662918031
vt 0.530997097 0.892821729
vt 0.63839066 0.872852325
vt 0.530997097 0.872852325
vt 0.63839066 0.892821729
vt 0.673582017 0.912931323
vt 0.717623711 0.892962039
vt 0.673582017 0.892962039
vt 0.717623711 0.912931323
vt 0.933399737 0.894224584
vt 0.889358044 0.914194047
vt 0.933399737 0.914194047
vt 0.889358044 0.894224584
vt 0.902439296 0.826730072
vt 0.903615832 0.797940433
vt 0.900362015 0.811705589
vt 0.908473134 0.833071589
vt 0.91540122 0.803762794
vt 0.910047531 0.794543803
vt 0.916133881 0.819497526
vt 0.914470673 0.826533675
vt 0.983301103 0.662917972
vt 0.989535928 0.685295165
vt 0.989535987 0.662917972
vt 0.983301103 0.685295165
vt 0.989535987 0.662917972
vt 0.995770812 0.685295165
vt 0.995770812 0.662917972
vt 0.989535928 0.685295165
vt 0.795865953 0.813938975
vt 0.80517298 0.798948467
vt 0.795865953 0.798948467
vt 0.80517298 0.813938975
vt 0.807814419 0.798948467
vt 0.807814419 0.813938975
vt 0.795865953 0.798948467
vt 0.80517298 0.783957899
vt 0.795865953 0.783957958
vt 0.80517298 0.798948467
vt 0.807814419 0.783957779
vt 0.807814419 0.798948467
vt 0.795865953 0.783957958
vt 0.80517298 0.76896739
vt 0.795865953 0.76896739
vt 0.80517298 0.783957899
vt 0.807814419 0.768967271
vt 0.807814419 0.783957779
vt 0.970831394 0.662917972
vt 0.977066278 0.685295165
vt 0.977066219 0.662917972
vt 0.970831394 0.685295165
vt 0.977066219 0.662917972
vt 0.983301103 0.685295165
vt 0.983301103 0.662917972
vt 0.977066278 0.685295165
vt 0.728701115 0.676611006
vt 0.730160117 0.662917972
vt 0.728701174 0.662917972
vt 0.730160117 0.676611006
vt 0.728701115 0.690304279
vt 0.730160117 0.690304279
vt 0.634135723 0.792643845
vt 0.591857433 0.792831123
vt 0.640214324 0.795979738
vt 0.631430387 0.779137731
vt 0.591857433 0.779137731
vt 0.634135723 0.765631497
vt 0.591857433 0.765444398
vt 0.640214324 0.762295783
vt 0.398606032 0.925737679
vt 0.447391301 0.904959381
vt 0.398278028 0.919434905
vt 0.446580648 0.911004961
vt 0.454602718 0.922946036
vt 0.45370701 0.925715804
vt 0.771548748 0.915557146
vt 0.723245978 0.907127142
vt 0.771220744 0.92185986
vt 0.722435296 0.901081741
vt 0.716119528 0.921838045
vt 0.715223789 0.919068217
vt 0.714831591 0.850432932
vt 0.709136367 0.827853501
vt 0.709136367 0.850432932
vt 0.714831591 0.827853501
vt 0.720526814 0.850432932
vt 0.720526814 0.827853501
vt 0.637864172 0.777430177
vt 0.648253262 0.763736963
vt 0.637864172 0.763736963
vt 0.648253262 0.777430177
vt 0.637864172 0.79112345
vt 0.648253262 0.79112345
vt -11.5828562 -43.092514
vt 11.2602539 32.7712021
vt -11.2602539 32.7712021
vt 10.9376516 -43.092514
vt -11.5828562 -43.092514
vt 11.2602539 32.7712021
vt 10.9376526 -43.092514
vt -11.2602539 32.7712021
vt -11.5828562 -43.092514
vt 10.9376526 -43.092514
vt 10.9376516 -43.092514
vt -11.5828562 -43.092514
vt 10.9376516 -43.092514
vt 11.2602539 32.7712021
vt 11.2602539 32.7712021
vt 10.9376526 -43.092514
vt 11.2602539 32.7712021
vt -11.2602539 32.7712021
vt -11.2602539 32.7712021
vt 11.2602539 32.7712021
vt -11.2602539 32.7712021
vt -11.5828562 -43.092514
vt -11.5828562 -43.092514
vt -11.2602539 32.7712021
vt -7.90739298 6.90948439
vt 0.139557362 13.1252775
vt -7.5097971 13.8288002
vt -0.285914898 6.5731802
vt -7.75427246 7.22236443
vt 0.592497349 13.4784365
vt -0.132794857 6.88606119
vt -7.05685854 14.1819592
vt -7.90739298 6.90948439
vt -0.132794857 6.88606119
vt -0.285914898 6.5731802
vt -7.75427246 7.22236443
vt -0.285914898 6.5731802
vt 0.592497349 13.4784365
vt 0.139557362 13.1252775
vt -0.132794857 6.88606119
vt 0.139557362 13.1252775
vt -7.05685854 14.1819592
vt -7.5097971 13.8288002
vt 0.592497349 13.4784365
vt -7.5097971 13.8288002
vt -7.75427246 7.22236443
vt -7.90739298 6.90948439
vt -7.05685854 14.1819592
vt 0.687955499 0.679760575
vt 0.674297154 0.672265291
vt 0.674297154 0.687255919
vt 0.679171681 0.696602523
vt 0.679171681 0.662918568
vt 0.685250282 0.666254342
vt 0.728644848 0.666067421
vt 0.728644848 0.679760575
vt 0.685250282 0.693266749
vt 0.728644848 0.693453968
vt 0.919929862 0.838404119
vt 0.908473134 0.833071589
vt 0.90845716 0.850768626
vt 0.896958709 0.838543117
vt 0.914470673 0.826533675
vt 0.902439296 0.826730072
vt 0.923129201 0.825002909
vt 0.900362015 0.811705589
vt 0.916133881 0.819497526
vt 0.893043518 0.809817374
vt 0.921783566 0.794947743
vt 0.903615832 0.797940433
vt 0.91540122 0.803762794
vt 0.899302363 0.783600569
vt 0.911593616 0.777241349
vt 0.910047531 0.794543803
vt 0.922524452 0.844146907
vt 0.90845716 0.850768626
vt 0.908418238 0.859247267
vt 0.919929862 0.838404119
vt 0.896958709 0.838543117
vt 0.926470995 0.827711821
vt 0.894312024 0.844146848
vt 0.923129201 0.825002909
vt 0.893043518 0.809817374
vt 0.924856961 0.790789366
vt 0.889540493 0.80883795
vt 0.921783566 0.794947743
vt 0.899302363 0.783600569
vt 0.912364841 0.76896739
vt 0.897261083 0.776686311
vt 0.911593616 0.777241349
g submesh0
f 1/1/1 2/2/2 3/3/3
f 2/2/2 1/1/1 4/4/4
f 5/5/5 4/4/4 1/1/1
f 4/4/4 5/5/5 6/6/6
f 7/7/7 6/6/6 5/5/5
f 6/6/6 7/7/7 8/8/8
f 9/9/9 8/8/8 7/7/7
f 8/8/8 9/9/9 10/10/10
f 11/11/11 10/10/10 9/9/9
f 10/10/10 11/11/11 12/12/12
f 13/13/13 12/12/12 11/11/11
f 12/12/12 13/13/13 14/14/14
f 15/15/15 14/14/14 13/13/13
f 14/14/14 15/15/15 16/16/16
f 17/17/17 18/18/18 19/19/19
f 18/18/18 17/17/17 20/20/20
f 21/21/21 20/20/20 17/17/17
f 20/20/20 21/21/21 22/22/22
f 23/23/23 22/22/22 21/21/21
f 22/22/22 23/23/23 24/24/24
f 25/25/25 24/24/24 23/23/23
f 24/24/24 25/25/25 26/26/26
f 27/27/27 26/26/26 25/25/25
f 26/26/26 27/27/27 28/28/28
f 29/29/29 28/28/28 27/27/27
f 28/28/28 29/29/29 30/30/30
f 31/31/31 30/30/30 29/29/29
f 30/30/30 31/31/31 32/32/32
f 33/33/33 34/34/34 35/35/35
f 34/34/34 33/33/33 36/36/36
f 37/37/37 36/36/36 33/33/33
f 36/36/36 37/37/37 38/38/38
f 39/39/39 38/38/38 37/37/37
f 38/38/38 39/39/39 40/40/40
f 41/41/41 40/40/40 39/39/39
f 40/40/40 41/41/41 42/42/42
f 43/43/43 42/42/42 41/41/41
f 42/42/42 43/43/43 44/44/44
f 45/45/45 44/44/44 43/43/43
f 44/44/44 45/45/45 46/46/46
f 47/47/47 46/46/46 45/45/45
f 46/46/46 47/47/47 48/48/48
f 49/49/49 50/50/50 51/51/51
f 50/50/50 49/49/49 52/52/52
f 53/53/53 52/52/52 49/49/49
f 52/52/52 53/53/53 54/54/54
f 55/55/55 54/54/54 53/53/53
f 54/54/54 55/55/55 56/56/56
f 57/57/57 56/56/56 55/55/55
f 56/56/56 57/57/57 58/58/58
f 59/59/59 58/58/58 57/57/57
f 58/58/58 59/59/59 60/60/60
f 61/61/61 60/60/60 59/59/59
f 60/60/60 61/61/61 62/62/62
f 63/63/63 62/62/62 61/61/61
f 62/62/62 63/63/63 64/64/64
f 65/65/65 66/66/66 67/67/67
f 66/66/66 65/65/65 68/68/68
f 69/69/69 68/68/68 65/65/65
f 68/68/68 69/69/69 70/70/70
f 71/71/71 70/70/70 69/69/69
f 70/70/70 71/71/71 72/72/72
f 73/73/73 72/72/72 71/71/71
f 72/72/72 73/73/73 74/74/74
f 75/75/75 74/74/74 73/73/73
f 74/74/74 75/75/75 76/76/76
f 77/77/77 78/78/78 79/79/79
f 78/78/78 77/77/77 80/80/80
f 81/81/81 80/80/80 77/77/77
f 80/80/80 81/81/81 82/82/82
f 83/83/83 82/82/82 81/81/81
f 82/82/82 83/83/83 84/84/84
f 85/85/85 84/84/84 83/83/83
f 84/84/84 85/85/85 86/86/86
f 87/87/87 86/86/86 85/85/85
f 86/86/86 87/87/87 88/88/88
f 89/89/89 90/90/90 91/91/91
f 90/90/90 89/89/89 92/92/92
f 93/93/93 92/92/92 89/89/89
f 92/92/92 93/93/93 94/94/94
f 95/95/95 94/94/94 93/93/93
f 94/94/94 95/95/95 96/96/96
f 97/97/97 96/96/96 95/95/95
f 96/96/96 97/97/97 98/98/98
f 99/99/99 98/98/98 97/97/97
f 98/98/98 99/99/99 100/100/100
f 101/101/101 102/102/102 103/103/103
f 102/102/102 101/101/101 104/104/104
f 105/105/105 104/104/104 101/101/101
f 104/104/104 105/105/105 106/106/106
f 107/107/107 106/106/106 105/105/105
f 106/106/106 107/107/107 108/108/108
f 109/109/109 108/108/108 107/107/107
f 108/108/108 109/109/109 110/110/110
f 111/111/111 110/110/110 109/109/109
f 110/110/110 111/111/111 112/112/112
f 113/113/113 114/114/114 115/115/115
f 114/114/114 113/113/113 116/116/116
f 117/117/117 114/114/114 116/116/116
f 114/114/114 117/117/117 118/118/118
f 117/117/117 119/119/119 118/118/118
f 119/119/119 117/117/117 120/120/120
f 121/121/121 119/119/119 120/120/120
f 119/119/119 121/121/121 122/122/122
f 123/123/123 124/124/124 125/125/125
f 124/124/124 123/123/123 126/126/126
f 127/127/127 124/124/124 126/126/126
f 124/124/124 127/127/127 128/128/128
f 127/127/127 129/129/129 128/128/128
f 129/129/129 127/127/127 130/130/130
f 131/131/131 129/129/129 130/130/130
f 129/129/129 131/131/131 132/132/132
f 133/133/133 134/134/134 135/135/135
f 134/134/134 133/133/133 136/136/136
f 136/136/136 137/137/137 134/134/134
f 137/137/137 136/136/136 138/138/138
f 138/138/138 139/139/139 137/137/137
f 139/139/139 138/138/138 140/140/140
f 140/140/140 141/141/141 139/139/139
f 141/141/141 140/140/140 142/142/142
f 143/143/143 144/144/144 145/145/145
f 144/144/144 143/143/143 146/146/146
f 146/146/146 147/147/147 144/144/144
f 147/147/147 146/146/146 148/148/148
f 148/148/148 149/149/149 147/147/147
f 149/149/149 148/148/148 150/150/150
f 150/150/150 151/151/151 149/149/149
f 151/151/151 150/150/150 152/152/152
f 153/153/153 154/154/154 155/155/155
f 154/154/154 153/153/153 156/156/156
f 156/156/156 157/157/157 154/154/154
f 157/157/157 156/156/156 158/158/158
f 159/159/159 157/157/157 158/158/158
f 157/157/157 159/159/159 160/160/160
f 161/161/161 162/162/162 163/163/163
f 162/162/162 161/161/161 164/164/164
f 164/164/164 165/165/165 162/162/162
f 165/165/165 164/164/164 166/166/166
f 166/166/166 167/167/167 165/165/165
f 167/167/167 166/166/166 168/168/168
f 169/169/169 170/170/170 171/171/171
f 170/170/170 169/169/169 172/172/172
f 172/172/172 173/173/173 170/170/170
f 173/173/173 172/172/172 174/174/174
f 174/174/174 175/175/175 173/173/173
f 175/175/175 174/174/174 176/176/176
f 177/177/177 178/178/178 179/179/179
f 178/178/178 177/177/177 180/180/180
f 180/180/180 181/181/181 178/178/178
f 181/181/181 180/180/180 182/182/182
f 182/182/182 183/183/183 181/181/181
f 183/183/183 182/182/182 184/184/184
f 185/185/185 186/186/186 187/187/187
f 186/186/186 185/185/185 188/188/188
f 188/188/188 189/189/189 186/186/186
f 189/189/189 188/188/188 190/190/190
f 190/190/190 191/191/191 189/189/189
f 191/191/191 190/190/190 192/192/192
f 193/193/193 191/191/191 192/192/192
f 191/191/191 193/193/193 194/194/194
f 195/195/195 194/194/194 193/193/193
f 194/194/194 195/195/195 196/196/196
f 197/197/197 196/196/196 195/195/195
f 196/196/196 197/197/197 198/198/198
f 199/199/199 198/198/198 197/197/197
f 198/198/198 199/199/199 200/200/200
f 201/201/201 200/200/200 199/199/199
f 200/200/200 201/201/201 202/202/202
f 203/203/203 202/202/202 201/201/201
f 202/202/202 203/203/203 204/204/204
f 205/205/205 204/204/204 203/203/203
f 204/204/204 205/205/205 206/206/206
f 207/207/207 208/208/208 209/209/209
f 208/208/208 207/207/207 210/210/210
f 210/210/210 211/211/211 208/208/208
f 211/211/211 210/210/210 212/212/212
f 212/212/212 213/213/213 211/211/211
f 213/213/213 212/212/212 214/214/214
f 214/214/214 215/215/215 213/213/213
f 215/215/215 214/214/214 216/216/216
f 216/216/216 217/217/217 215/215/215
f 217/217/217 216/216/216 218/218/218
f 218/218/218 219/219/219 217/217/217
f 219/219/219 218/218/218 220/220/220
f 221/221/221 219/219/219 220/220/220
f 219/219/219 221/221/221 222/222/222
f 223/223/223 222/222/222 221/221/221
f 222/222/222 223/223/223 224/224/224
f 225/225/225 224/224/224 223/223/223
f 224/224/224 225/225/225 226/226/226
f 227/227/227 226/226/226 225/225/225
f 226/226/226 227/227/227 228/228/228
f 229/229/229 230/230/230 231/231/231
f 230/230/230 229/229/229 232/232/232
f 232/232/232 233/233/233 230/230/230
f 233/233/233 232/232/232 234/234/234
f 235/235/235 233/233/233 234/234/234
f 233/233/233 235/235/235 236/236/236
f 237/237/237 236/236/236 235/235/235
f 236/236/236 237/237/237 238/238/238
f 239/239/239 238/238/238 237/237/237
f 238/238/238 239/239/239 240/240/240
f 239/239/239 241/241/241 240/240/240
f 241/241/241 239/239/239 242/242/242
f 242/242/242 243/243/243 241/241/241
f 243/243/243 242/242/242 244/244/244
f 244/244/244 245/245/245 243/243/243
f 245/245/245 244/244/244 246/246/246
f 246/246/246 247/247/247 245/245/245
f 247/247/247 246/246/246 248/248/248
f 248/248/248 249/249/249 247/247/247
f 249/249/249 248/248/248 250/250/250
f 251/251/251 252/252/252 253/253/253
f 252/252/252 251/251/251 254/254/254
f 254/254/254 255/255/255 252/252/252
f 255/255/255 254/254/254 256/256/256
f 257/257/257 255/255/255 256/256/256
f 255/255/255 257/257/257 258/258/258
f 257/257/257 259/259/259 258/258/258
f 259/259/259 257/257/257 260/260/260
f 260/260/260 261/261/261 259/259/259
f 261/261/261 260/260/260 262/262/262
f 263/263/263 261/261/261 262/262/262
f 261/261/261 263/263/263 264/264/264
f 263/263/263 265/265/265 264/264/264
f 265/265/265 263/263/263 266/266/266
f 266/266/266 267/267/267 265/265/265
f 267/267/267 266/266/266 268/268/268
f 268/268/268 269/269/269 267/267/267
f 269/269/269 268/268/268 270/270/270
f 270/270/270 271/271/271 269/269/269
f 271/271/271 270/270/270 272/272/272
f 273/273/273 274/274/274 275/275/275
f 274/274/274 273/273/273 276/276/276
f 277/277/277 274/274/274 276/276/276
f 274/274/274 277/277/277 278/278/278
f 277/277/277 279/279/279 278/278/278
f 279/279/279 277/277/277 280/280/280
f 281/281/281 279/279/279 280/280/280
f 279/279/279 281/281/281 282/282/282
f 283/283/283 282/282/282 281/281/281
f 282/282/282 283/283/283 284/284/284
f 285/285/285 284/284/284 283/283/283
f 284/284/284 285/285/285 286/286/286
f 287/287/287 288/288/288 289/289/289
f 288/288/288 287/287/287 290/290/290
f 291/291/291 288/288/288 290/290/290
f 288/288/288 291/291/291 292/292/292
f 293/293/293 292/292/292 291/291/291
f 292/292/292 293/293/293 294/294/294
f 295/295/295 294/294/294 293/293/293
f 294/294/294 295/295/295 296/296/296
f 297/297/297 296/296/296 295/295/295
f 296/296/296 297/297/297 298/298/298
f 297/297/297 299/299/299 298/298/298
f 299/299/299 297/297/297 300/300/300
f 301/301/301 302/302/302 303/303/303
f 302/302/302 301/301/301 304/304/304
f 305/305/305 302/302/302 304/304/304
f 302/302/302 305/305/305 306/306/306
f 307/307/307 306/306/306 305/305/305
f 306/306/306 307/307/307 308/308/308
f 309/309/309 308/308/308 307/307/307
f 308/308/308 309/309/309 310/310/310
f 311/311/311 310/310/310 309/309/309
f 310/310/310 311/311/311 312/312/312
f 313/313/313 312/312/312 311/311/311
f 312/312/312 313/313/313 314/314/314
f 315/315/315 316/316/316 317/317/317
f 316/316/316 315/315/315 318/318/318
f 319/319/319 316/316/316 318/318/318
f 316/316/316 319/319/319 320/320/320
f 319/319/319 321/321/321 320/320/320
f 321/321/321 319/319/319 322/322/322
f 322/322/322 323/323/323 321/321/321
f 323/323/323 322/322/322 324/324/324
f 324/324/324 325/325/325 323/323/323
f 325/325/325 324/324/324 326/326/326
f 326/326/326 327/327/327 325/325/325
f 327/327/327 326/326/326 328/328/328
f 329/329/329 330/330/330 331/331/331
f 330/330/330 329/329/329 332/332/332
f 332/332/332 333/333/333 330/330/330
f 333/333/333 332/332/332 334/334/334
f 334/334/334 335/335/335 333/333/333
f 335/335/335 334/334/334 336/336/336
f 337/337/337 335/335/335 336/336/336
f 335/335/335 337/337/337 338/338/338
f 339/339/339 340/340/340 341/341/341
f 340/340/340 339/339/339 342/342/342
f 342/342/342 343/343/343 340/340/340
f 343/343/343 342/342/342 344/344/344
f 344/344/344 345/345/345 343/343/343
f 345/345/345 344/344/344 346/346/346
f 346/346/346 347/347/347 345/345/345
f 347/347/347 346/346/346 348/348/348
f 349/349/349 350/350/350 351/351/351
f 350/350/350 349/349/349 352/352/352
f 352/352/352 353/353/353 350/350/350
f 353/353/353 352/352/352 354/354/354
f 354/354/354 355/355/355 353/353/353
f 355/355/355 354/354/354 356/356/356
f 356/356/356 357/357/357 355/355/355
f 357/357/357 356/356/356 358/358/358
f 359/359/359 360/360/360 361/361/361
f 360/360/360 359/359/359 362/362/362
f 362/362/362 363/363/363 360/360/360
f 363/363/363 362/362/362 364/364/364
f 364/364/364 365/365/365 363/363/363
f 365/365/365 364/364/364 366/366/366
f 366/366/366 367/367/367 365/365/365
f 367/367/367 366/366/366 368/368/368
f 369/369/369 370/370/370 371/371/371
f 370/370/370 369/369/369 372/372/372
f 373/373/373 370/370/370 372/372/372
f 370/370/370 373/373/373 374/374/374
f 375/375/375 376/376/376 377/377/377
f 376/376/376 375/375/375 378/378/378
f 378/378/378 379/379/379 376/376/376
f 379/379/379 378/378/378 380/380/380
f 381/381/381 382/382/382 383/383/383
f 382/382/382 381/381/381 384/384/384
f 384/384/384 385/385/385 382/382/382
f 385/385/385 384/384/384 386/386/386
f 387/387/387 388/388/388 389/389/389
f 388/388/388 387/387/387 390/390/390
f 390/390/390 391/391/391 388/388/388
f 391/391/391 390/390/390 392/392/392
f 393/393/393 394/394/394 395/395/395
f 394/394/394 393/393/393 396/396/396
f 397/397/397 398/398/398 399/399/399
f 398/398/398 397/397/397 400/400/400
f 401/401/401 402/402/402 403/403/403
f 402/402/402 401/401/401 404/404/404
f 405/405/405 406/406/406 407/407/407
f 406/406/406 405/405/405 408/408/408
f 409/409/409 410/410/410 411/411/411
f 410/410/410 409/409/409 412/412/412
f 409/409/409 413/413/413 412/412/412
f 413/413/413 409/409/409 414/414/414
f 414/414/414 415/415/415 413/413/413
f 415/415/415 414/414/414 416/416/416
f 417/417/417 415/415/415 416/416/416
f 415/415/415 417/417/417 418/418/418
f 419/419/419 418/418/418 417/417/417
f 418/418/418 419/419/419 420/420/420
f 421/421/421 420/420/420 419/419/419
f 420/420/420 421/421/421 422/422/422
f 423/423/423 424/424/424 425/425/425
f 424/424/424 423/423/423 426/426/426
f 427/427/427 426/426/426 423/423/423
f 426/426/426 427/427/427 428/428/428
f 429/429/429 428/428/428 427/427/427
f 428/428/428 429/429/429 430/430/430
f 429/429/429 431/431/431 430/430/430
f 431/431/431 429/429/429 432/432/432
f 432/432/432 433/433/433 431/431/431
f 433/433/433 432/432/432 434/434/434
f 435/435/435 433/433/433 434/434/434
f 433/433/433 435/435/435 436/436/436
f 437/437/437 438/438/438 439/439/439
f 438/438/438 437/437/437 440/440/440
f 441/441/441 440/440/440 437/437/437
f 440/440/440 441/441/441 442/442/442
f 443/443/443 442/442/442 441/441/441
f 442/442/442 443/443/443 444/444/444
f 445/445/445 444/444/444 443/443/443
f 444/444/444 445/445/445 446/446/446
f 445/445/445 447/447/447 446/446/446
f 447/447/447 445/445/445 448/448/448
f 449/449/449 447/447/447 448/448/448
f 447/447/447 449/449/449 450/450/450
f 451/451/451 452/452/452 453/453/453
f 452/452/452 451/451/451 454/454/454
f 455/455/455 452/452/452 454/454/454
f 452/452/452 455/455/455 456/456/456
f 457/457/457 456/456/456 455/455/455
f 456/456/456 457/457/457 458/458/458
f 457/457/457 459/459/459 458/458/458
f 459/459/459 457/457/457 460/460/460
f 461/461/461 459/459/459 460/460/460
f 459/459/459 461/461/461 462/462/462
f 463/463/463 462/462/462 461/461/461
f 462/462/462 463/463/463 464/464/464
f 465/465/465 466/466/466 467/467/467
f 466/466/466 465/465/465 468/468/468
f 469/469/469 470/470/470 471/471/471
f 470/470/470 469/469/469 472/472/472
f 473/473/473 474/474/474 475/475/475
f 474/474/474 473/473/473 476/476/476
f 477/477/477 478/478/478 479/479/479
f 478/478/478 477/477/477 480/480/480
f 481/481/481 482/482/482 483/483/483
f 482/482/482 481/481/481 484/484/484
f 485/485/485 486/486/486 487/487/487
f 486/486/486 485/485/485 488/488/488
f 489/489/489 490/490/490 491/491/491
f 490/490/490 489/489/489 492/492/492
f 493/493/493 494/494/494 495/495/495
f 494/494/494 493/493/493 496/496/496
f 497/497/497 498/498/498 499/499/499
f 498/498/498 497/497/497 500/500/500
f 501/501/501 502/502/502 503/503/503
f 502/502/502 501/501/501 504/504/504
f 505/505/505 506/506/506 507/507/507
f 506/506/506 505/505/505 508/508/508
f 509/509/509 510/510/510 511/511/511
f 510/510/510 509/509/509 512/512/512
f 513/513/513 514/514/514 515/515/515
f 514/514/514 513/513/513 516/516/516
f 517/517/517 518/518/518 519/519/519
f 518/518/518 517/517/517 520/520/520
f 521/521/521 522/522/522 523/523/523
f 521/521/521 524/524/524 522/522/522
f 522/522/522 524/524/524 525/525/525
f 522/522/522 525/525/525 526/526/526
f 525/525/525 524/524/524 527/527/527
f 527/527/527 524/524/524 528/528/528
f 529/529/529 530/530/530 531/531/531
f 530/530/530 529/529/529 532/532/532
f 533/533/533 534/534/534 535/535/535
f 534/534/534 533/533/533 536/536/536
f 537/537/537 538/538/538 539/539/539
f 538/538/538 537/537/537 540/540/540
f 540/540/540 541/541/541 538/538/538
f 541/541/541 540/540/540 542/542/542
f 543/543/543 544/544/544 545/545/545
f 544/544/544 543/543/543 546/546/546
f 546/546/546 547/547/547 544/544/544
f 547/547/547 546/546/546 548/548/548
f 549/549/549 550/550/550 551/551/551
f 550/550/550 549/549/549 552/552/552
f 552/552/552 553/553/553 550/550/550
f 553/553/553 552/552/552 554/554/554
f 555/555/555 556/556/556 557/557/557
f 556/556/556 555/555/555 558/558/558
f 559/559/559 560/560/560 561/561/561
f 560/560/560 559/559/559 562/562/562
f 563/563/563 564/564/564 565/565/565
f 564/564/564 563/563/563 566/566/566
f 567/567/567 566/566/566 563/563/563
f 566/566/566 567/567/567 568/568/568
f 569/569/569 570/570/570 571/571/571
f 572/572/572 570/570/570 569/569/569
f 570/570/570 572/572/572 573/573/573
f 574/574/574 573/573/573 572/572/572
f 573/573/573 574/574/574 575/575/575
f 576/576/576 575/575/575 574/574/574
f 577/577/577 578/578/578 579/579/579
f 578/578/578 577/577/577 580/580/580
f 580/580/580 581/581/581 578/578/578
f 581/581/581 580/580/580 582/582/582
f 583/583/583 584/584/584 585/585/585
f 584/584/584 583/583/583 586/586/586
f 586/586/586 587/587/587 584/584/584
f 587/587/587 586/586/586 588/588/588
f 589/589/589 590/590/590 591/591/591
f 590/590/590 589/589/589 592/592/592
f 593/593/593 592/592/592 589/589/589
f 592/592/592 593/593/593 594/594/594
f 595/595/595 596/596/596 597/597/597
f 596/596/596 595/595/595 598/598/598
f 599/599/599 598/598/598 595/595/595
f 598/598/598 599/599/599 600/600/600
f 601/601/601 602/602/602 603/603/603
f 602/602/602 601/601/601 604/604/604
f 605/605/605 606/606/606 607/607/607
f 606/606/606 605/605/605 608/608/608
f 609/609/609 610/610/610 611/611/611
f 610/610/610 609/609/609 612/612/612
f 613/613/613 614/614/614 615/615/615
f 614/614/614 613/613/613 616/616/616
f 617/617/617 618/618/618 619/619/619
f 618/618/618 617/617/617 620/620/620
f 621/621/621 622/622/622 623/623/623
f 622/622/622 621/621/621 624/624/624
f 625/625/625 626/626/626 627/627/627
f 626/626/626 625/625/625 628/628/628
f 629/629/629 630/630/630 631/631/631
f 630/630/630 629/629/629 632/632/632
f 633/633/633 634/634/634 635/635/635
f 634/634/634 633/633/633 636/636/636
f 637/637/637 638/638/638 639/639/639
f 638/638/638 637/637/637 640/640/640
f 641/641/641 642/642/642 643/643/643
f 642/642/642 641/641/641 644/644/644
f 645/645/645 646/646/646 647/647/647
f 646/646/646 645/645/645 648/648/648
f 649/649/649 650/650/650 651/651/651
f 649/649/649 651/651/651 652/652/652
f 649/649/649 653/653/653 650/650/650
f 654/654/654 653/653/653 649/649/649
f 654/654/654 655/655/655 653/653/653
f 649/649/649 655/655/655 654/654/654
f 655/655/655 649/649/649 656/656/656
f 649/649/649 652/652/652 657/657/657
f 657/657/657 656/656/656 649/649/649
f 652/652/652 658/658/658 657/657/657
f 656/656/656 657/657/657 658/658/658
f 659/659/659 660/660/660 661/661/661
f 660/660/660 662/662/662 661/661/661
f 660/660/660 659/659/659 663/663/663
f 662/662/662 660/660/660 664/664/664
f 665/665/665 663/663/663 659/659/659
f 666/666/666 662/662/662 664/664/664
f 663/663/663 665/665/665 667/667/667
f 662/662/662 666/666/666 668/668/668
f 669/669/669 667/667/667 665/665/665
f 670/670/670 668/668/668 666/666/666
f 667/667/667 669/669/669 671/671/671
f 668/668/668 670/670/670 672/672/672
f 673/673/673 671/671/671 669/669/669
f 674/674/674 672/672/672 670/670/670
f 672/672/672 674/674/674 673/673/673
f 671/671/671 673/673/673 674/674/674
f 675/675/675 676/676/676 677/677/677
f 676/676/676 675/675/675 678/678/678
f 679/679/679 677/677/677 676/676/676
f 680/680/680 678/678/678 675/675/675
f 677/677/677 679/679/679 681/681/681
f 678/678/678 680/680/680 682/682/682
f 683/683/683 681/681/681 679/679/679
f 684/684/684 682/682/682 680/680/680
f 681/681/681 683/683/683 685/685/685
f 682/682/682 684/684/684 686/686/686
f 687/687/687 685/685/685 683/683/683
f 688/688/688 686/686/686 684/684/684
f 685/685/685 687/687/687 689/689/689
f 686/686/686 688/688/688 690/690/690
f 690/690/690 689/689/689 687/687/687
f 689/689/689 690/690/690 688/688/688
