# jungle_scaffolding_scatter_a_col
v -0.373857826 0.112070084 0.792957842
v 0.0764064565 0.116970271 -0.192306593
v -0.0248055831 0.116970271 -0.239502355
v 0.0764064565 0.0592942908 -0.192306593
v -0.0248055831 0.0592942908 -0.239502355
v -0.373857826 0.0543940999 0.792957842
v -0.475069791 0.112070084 0.745762229
v -0.475069791 0.0543940999 0.745762229
v 0.585326672 0.116425246 0.762648404
v -0.118221655 0.121325441 -1.16097164
v -0.223161846 0.121325441 -1.12277639
v -0.118221655 0.0636494532 -1.16097164
v -0.223161846 0.0636494532 -1.12277639
v 0.585326672 0.058749266 0.762648404
v 0.480386585 0.116425246 0.800843537
v 0.480386585 0.058749266 0.800843537
v 0.292045087 0.0438105054 0.843343616
v 0.116201416 0.0487106927 -1.21282876
v 0.00622302992 0.0487106927 -1.1934365
v 0.116201416 -0.00896529201 -1.21282876
v 0.00622302992 -0.00896529201 -1.1934365
v 0.292045087 -0.0138654802 0.843343616
v 0.180370048 0.0438105054 0.843343496
v 0.180370048 -0.0138654802 0.843343496
v -0.00147481915 0.0818604231 0.886423945
v 0.00147558213 0.0867606252 -1.24127269
v -0.110199451 0.0867606252 -1.24127269
v 0.00147558213 0.029084634 -1.24127269
v -0.110199451 0.029084634 -1.24127269
v -0.00147481915 0.0241844449 0.886423945
v -0.113149844 0.0818604231 0.886423945
v -0.113149844 0.0241844449 0.886423945
v 0.415687323 0.0756017342 1.1302228
v 0.416304529 0.0580034293 -0.946200848
v 0.305054575 0.0580034293 -0.955933869
v 0.416304529 0.000327444082 -0.946200848
v 0.305054575 0.000327444082 -0.955933869
v 0.415687323 0.0179257486 1.1302228
v 0.30401215 0.0756017342 1.1302228
v 0.30401215 0.0179257486 1.1302228
v -0.297945201 0.0756017342 0.936690271
v -0.11930462 0.0867606252 -1.10948563
v -0.230554655 0.0867606252 -1.11921883
v -0.11930462 0.029084634 -1.10948563
v -0.230554655 0.029084634 -1.11921883
v -0.297945201 0.0179257486 0.936690271
v -0.409195244 0.0756017342 0.92695713
v -0.409195244 0.0179257486 0.92695713
g submesh0
f 1 2 3
f 4 2 1
f 5 2 4
f 5 3 2
f 4 1 6
f 6 5 4
f 1 3 7
f 6 1 7
f 6 8 5
f 8 3 5
f 6 7 8
f 8 7 3
f 9 10 11
f 12 10 9
f 13 10 12
f 13 11 10
f 12 9 14
f 14 13 12
f 9 11 15
f 14 9 15
f 14 16 13
f 16 11 13
f 14 15 16
f 16 15 11
f 17 18 19
f 20 18 17
f 21 18 20
f 21 19 18
f 20 17 22
f 22 21 20
f 17 19 23
f 22 17 23
f 22 24 21
f 24 19 21
f 22 23 24
f 24 23 19
f 25 26 27
f 28 26 25
f 29 26 28
f 29 27 26
f 28 25 30
f 30 29 28
f 25 27 31
f 30 25 31
f 30 32 29
f 32 27 29
f 30 31 32
f 32 31 27
f 33 34 35
f 36 34 33
f 37 34 36
f 37 35 34
f 36 33 38
f 38 37 36
f 33 35 39
f 38 33 39
f 38 40 37
f 40 35 37
f 38 39 40
f 40 39 35
f 41 42 43
f 44 42 41
f 45 42 44
f 45 43 42
f 44 41 46
f 46 45 44
f 41 43 47
f 46 41 47
f 46 48 45
f 48 43 45
f 46 47 48
f 48 47 43
