# jungle_ruins_beam_175_b_LOD3
v -1.71404696 -0.150000021 0.149999976
v -1.68350768 -0.150000021 0.0850880593
v -0.0117117306 -0.149995431 0.149999976
v -1.65351009 -0.149999991 0.00395993423
v -0.0117117101 -0.149999976 -0.150000021
v -1.68358696 -0.149999946 -0.0597347729
v -1.59460294 -0.149999976 -0.150000021
v -1.71637571 -0.149022505 -0.150000021
v -1.68734741 -0.10506051 0.149999976
v -1.71404696 -0.150000021 0.149999976
v -0.0117117306 -0.149995431 0.149999976
v -1.69439018 -0.00423342315 0.149999991
v -1.67264342 0.0901708975 0.150000021
v -0.0117117101 0.149999976 0.150000021
v -1.68734741 0.149999976 0.150000021
v -1.71522701 0.150000021 -0.149999976
v -1.68196547 0.151316017 0.045310583
v -0.0117117101 0.150000021 -0.149999976
v -0.0117117101 0.149999976 0.150000021
v -1.68734741 0.149999976 0.150000021
v -1.71637571 -0.149022505 -0.150000021
v -1.66909802 0.000796076027 -0.149999991
v -1.59460294 -0.149999976 -0.150000021
v -0.0117117101 -0.149999976 -0.150000021
v -0.0117117101 0.150000021 -0.149999976
v -1.71522701 0.150000021 -0.149999976
v -0.0117117101 -0.149999976 -0.150000021
v -0.0117117101 0.149999976 0.150000021
v -0.0117117306 -0.149995431 0.149999976
v -0.0117117101 0.150000021 -0.149999976
v -1.67264342 0.0901708975 0.150000021
v -1.67436504 -0.0423993692 0.0330462717
v -1.69439018 -0.00423342315 0.149999991
v -1.68196547 0.151316017 0.045310583
v -1.68734741 0.149999976 0.150000021
v -1.70399058 0.0426940769 -0.0973768234
v -1.71522701 0.150000021 -0.149999976
v -1.68358696 -0.149999946 -0.0597347729
v -1.66909802 0.000796076027 -0.149999991
v -1.71637571 -0.149022505 -0.150000021
v -1.65351009 -0.149999991 0.00395993423
v -1.67436504 -0.0423993692 0.0330462717
v -1.68358696 -0.149999946 -0.0597347729
v -1.68350768 -0.150000021 0.0850880593
v -1.71404696 -0.150000021 0.149999976
v -1.68734741 -0.10506051 0.149999976
v -1.69439018 -0.00423342315 0.149999991
vn 2.68903364E-06 -1 1.26511509E-06
vn 2.6987168E-06 -1 1.01572869E-06
vn 2.27600754E-06 -1 5.72102954E-06
vn 1.35648088E-06 -1 5.01081968E-06
vn 4.53680912E-07 -1 4.89624199E-06
vn -0.00267557963 -0.999992967 -0.00263758795
vn -0.00401334232 -0.999984145 -0.00395595608
vn -0.00802655518 -0.999936461 -0.00791220926
vn 0 0 1
vn 0 0 1
vn 0 -1.29332861E-07 1
vn 0 -1.95086471E-07 1
vn 0 -1.09268733E-07 1
vn 0 0 1
vn 0 0 1
vn 0 0.99997735 -0.00673785387
vn 0.000262648799 0.999998093 0.00194412703
vn 0.000393962837 0.999994278 -0.00336888293
vn 0.000393968425 0.999980211 0.00628515054
vn 0 0.999920964 0.0125699202
vn 0 1.2698888E-07 -1
vn 0 1.27116095E-07 -1
vn 0 1.26737092E-07 -1
vn 0 1.2682095E-07 -1
vn 0 1.27156582E-07 -1
vn 0 1.27835008E-07 -1
vn 1 0 0
vn 1 0 0
vn 1 0 0
vn 1 0 0
vn -0.999686599 -0.0217177588 -0.0124512892
vn -0.990820587 -0.0353419259 0.130482227
vn -0.947547555 0.218275562 -0.233472675
vn -0.990632176 -0.0517655015 0.126365259
vn -0.96974504 -0.238330767 -0.0528491735
vn -0.997018933 -0.056925606 0.0520841666
vn -0.994321108 -0.0615407825 0.0868232995
vn -0.962114811 -0.0494995378 0.268113315
vn -0.789932013 0.101651743 -0.604710162
vn -0.976306498 0.00368275749 0.216361031
vn -0.976277173 -0.206673652 0.0645664707
vn -0.987969995 -0.078934662 -0.132983834
vn -0.86831373 -0.279130846 0.410021126
vn -0.913202822 -0.111920588 -0.391834795
vn -0.969667852 0.188580126 -0.155504882
vn -0.974001467 0.226165026 0.0130560426
vn -0.986810565 -0.0689294264 -0.146470711
vt 0.811715901 0.751045823
vt 0.782718539 0.786496162
vt -0.0922071934 0.751032829
vt 0.754235566 0.830802798
vt -0.0922885463 0.914910316
vt 0.78279388 0.865588486
vt 0.737796843 0.914885163
vt 0.813927233 0.914885104
vt 0.786364317 0.890342355
vt 0.811715961 0.914885163
vt -0.0922560692 0.914904952
vt 0.79305166 0.835277498
vt 0.772402883 0.783720374
vt -0.0921255201 0.751043677
vt 0.786364317 0.751045823
vt 0.812836409 0.751045704
vt 0.778117299 0.84910351
vt -0.0921844169 0.751035213
vt -0.0923631787 0.914965212
vt 0.786364317 0.914885163
vt 0.813927114 0.751579642
vt 0.769036472 0.833400249
vt 0.737796783 0.751045823
vt -0.093502894 0.74873209
vt -0.0942158848 0.917190433
vt 0.812836409 0.914885223
vt 0.0210055579 0.0210055448
vt 0.145393342 0.145393297
vt 0.145393327 0.0210074279
vt 0.0210055728 0.145393312
vt 0.040680334 0.926837146
vt 0.1054039 0.859294176
vt 0.0463085845 0.881325126
vt 0.0958247036 0.963258624
vt 0.0367676653 0.958968997
vt 0.177122638 0.906530261
vt 0.202999115 0.96987164
vt 0.155510902 0.803032398
vt 0.207895488 0.884493709
vt 0.204191983 0.802312016
vt 0.119849809 0.800370038
vt 0.1054039 0.859294176
vt 0.140586212 0.80141747
vt 0.0780792236 0.804311097
vt 0.0458435379 0.803027987
vt 0.0466795042 0.828602016
vt 0.0506252535 0.877098083
g submesh0
f 1/1/1 2/2/2 3/3/3
f 3/3/3 2/2/2 4/4/4
f 3/3/3 4/4/4 5/5/5
f 5/5/5 4/4/4 6/6/6
f 6/6/6 7/7/7 5/5/5
f 7/7/7 6/6/6 8/8/8
f 9/9/9 10/10/10 11/11/11
f 9/9/9 11/11/11 12/12/12
f 11/11/11 13/13/13 12/12/12
f 13/13/13 11/11/11 14/14/14
f 13/13/13 14/14/14 15/15/15
f 16/16/16 17/17/17 18/18/18
f 18/18/18 17/17/17 19/19/19
f 19/19/19 17/17/17 20/20/20
f 21/21/21 22/22/22 23/23/23
f 23/23/23 22/22/22 24/24/24
f 25/25/25 24/24/24 22/22/22
f 25/25/25 22/22/22 26/26/26
f 27/27/27 28/28/28 29/29/29
f 28/28/28 27/27/27 30/30/30
g submesh1
f 31/31/31 32/32/32 33/33/33
f 34/34/34 32/32/32 31/31/31
f 34/34/34 31/31/31 35/35/35
f 34/34/34 36/36/36 32/32/32
f 37/37/37 36/36/36 34/34/34
f 38/38/38 32/32/32 36/36/36
f 37/37/37 39/39/39 36/36/36
f 38/38/38 36/36/36 40/40/40
f 40/40/40 36/36/36 39/39/39
f 41/41/41 42/42/42 43/43/43
f 42/42/42 41/41/41 44/44/44
f 45/45/45 42/42/42 44/44/44
f 45/45/45 46/46/46 42/42/42
f 42/42/42 46/46/46 47/47/47
