# jungle_ruin_walls_foundation_a_LOD3
v -1.44355941 0.164097205 -0.00100090029
v -1.53809571 0.191755295 0.0827254504
v -1.37881303 0.128831714 0.222061083
v -1.2884326 0.134190589 0.0238501728
v -1.449651 0.207976609 -0.171455204
v -1.26543713 0.228709027 -0.207101896
v -1.45177543 0.185318828 -0.228374317
v -1.42513251 0.0888326243 -0.247694224
v -1.3348732 0.0355825052 -0.27068001
v -1.5165832 0.0457964316 -0.273230463
v -1.55935228 -0.0655188709 -0.278533518
v -1.448596 -0.124668956 -0.175784886
v -1.56880748 -0.0956635252 -0.234002769
v -1.63995326 -0.111915357 -0.186302215
v -1.00072432 -0.076310195 -0.192531541
v -0.997786701 0.093214646 -0.244747117
v -0.784532607 -0.0386603549 -0.25141564
v -0.752719581 -0.0530860126 -0.174550191
v -0.795276344 0.0193535611 -0.276163191
v -0.792481065 0.103506699 -0.233198747
v -1.04284024 0.236932293 -0.178799242
v -0.734542966 0.235287085 -0.203502148
v -0.679492772 0.23836036 -0.113982923
v -0.77096045 0.235071942 -0.0218210984
v -0.69677496 0.251207501 -0.0379269011
v -0.660563827 0.213981092 0.0746083781
v -0.655263722 0.0986367017 0.194676936
v -0.563220799 0.154266804 0.225680575
v -0.464577615 0.0800038874 0.262788773
v -0.486161798 -0.128987804 0.182551876
v -0.419756085 -0.0612288639 0.202680469
v -0.400643617 -0.102970041 0.158184499
v -0.840641737 0.0499037914 0.261135429
v -1.09312892 -0.12678504 0.246008709
v -1.02612734 0.0998873115 0.183913723
v -1.23824263 -0.0553293601 0.264363855
v -1.59043932 -0.122621536 0.167720675
v -1.63957644 -0.011455154 0.278693467
v -1.56161141 0.130803138 0.218047783
v -1.53809571 0.191755295 0.0827254504
v -2.41460586 0.192562476 0.0536650829
v -2.56476521 0.165257797 0.182662651
v -2.43734002 0.148567125 0.206611589
v -2.59401155 0.194067612 -0.0526865385
v -2.44803047 0.190811694 -0.0696626678
v -2.47634935 0.187942728 -0.15486379
v -2.68495822 0.167584151 -0.246892855
v -2.48858428 0.118462138 -0.204959944
v -2.49511862 0.0694857016 -0.238676563
v -2.4588263 0.102678753 -0.244556308
v -2.34732509 0.0675356314 -0.261741936
v -2.27245307 -0.00705024693 -0.247990415
v -2.76870441 0.210687786 0.0154956812
v -2.70994616 0.0917382017 0.278170764
v -2.87276292 0.0484566502 0.266536087
v -2.4731307 0.0568117499 0.246231496
v -2.43734002 0.148567125 0.206611589
v -2.47026396 -0.0450643897 0.252392143
v -2.86088777 -0.130943671 0.198883548
v -2.55702329 -0.143217087 0.160575256
v -2.48047972 -0.178846195 0.228543311
v -2.28599381 -0.0799602494 -0.253397316
v -2.23793769 -0.0770505518 -0.238324478
v -2.23789048 -0.0873993635 -0.191845611
v -2.41757131 -0.0612235256 -0.287703484
v -2.49255037 -0.0835480466 -0.28990382
v -2.80122685 0.0284825899 -0.263000757
v -2.51933885 -0.135980606 -0.26502192
v -2.54041314 -0.151228398 -0.242851019
v -2.64851975 -0.141941905 -0.161360204
v -2.88615346 -0.129171982 -0.262629032
v -2.86706328 -0.140143201 -0.14430438
v -2.95740175 -0.115439527 -0.292057574
v -2.97587419 -0.0598892979 -0.288070947
v -2.91467714 0.0140453335 -0.273700088
v -2.88352418 0.0580973029 -0.252389699
v -2.90958643 0.155378953 -0.258843064
v -2.93738341 0.152656093 -0.106712088
v -2.92326832 0.167520061 0.0095808031
v -2.99274802 0.191854477 0.0625646934
v -2.95886278 0.203561008 0.127030984
v -2.96507311 0.191741258 0.167087853
v -2.96954584 0.114413679 0.187379718
v -2.95924973 0.044525221 0.2589131
v -2.97368121 -0.00188362121 0.300291598
v -2.96189117 -0.109085463 0.294679344
v -2.95469356 -0.119106211 0.242286026
v -2.9072423 -0.121446915 0.193187058
v -2.09358096 -0.0701432005 -0.170893088
v -2.23789048 -0.0873993635 -0.191845611
v -2.23793769 -0.0770505518 -0.238324478
v -2.27245307 -0.00705024693 -0.247990415
v -2.11996412 0.154420391 -0.265022278
v -2.34732509 0.0675356314 -0.261741936
v -2.41326904 0.19926475 -0.240386486
v -2.4588263 0.102678753 -0.244556308
v -2.48858428 0.118462138 -0.204959944
v -2.47634935 0.187942728 -0.15486379
v -2.44803047 0.190811694 -0.0696626678
v -2.35525751 0.195728377 0.0350732803
v -2.41460586 0.192562476 0.0536650829
v -2.23976636 0.139947131 0.178021163
v -2.43734002 0.148567125 0.206611589
v -2.4731307 0.0568117499 0.246231496
v -2.03591466 0.258364469 0.0271698758
v -1.7081064 0.185053632 -0.117807269
v -1.98681641 0.118753582 -0.228975862
v -1.67516172 -0.0333615877 -0.263029963
v -1.63995326 -0.111915357 -0.186302215
v -1.56880748 -0.0956635252 -0.234002769
v -1.55935228 -0.0655188709 -0.278533518
v -1.5165832 0.0457964316 -0.273230463
v -1.8787111 -0.0695722178 -0.261903793
v -1.45177543 0.185318828 -0.228374317
v -1.42513251 0.0888326243 -0.247694224
v -1.449651 0.207976609 -0.171455204
v -1.53809571 0.191755295 0.0827254504
v -1.44355941 0.164097205 -0.00100090029
v -1.67920113 0.179004431 0.0213285442
v -1.94084227 0.12643455 0.232243717
v -1.69610739 0.0968212113 0.24140735
v -1.56161141 0.130803138 0.218047783
v -1.63957644 -0.011455154 0.278693467
v -1.98722863 -0.150354385 0.271597296
v -1.65184736 -0.124560013 0.285138249
v -1.59043932 -0.122621536 0.167720675
v -1.62671173 -0.190363228 0.117042005
v -2.30190754 -0.232430801 0.191210553
v -2.37575102 -0.038921278 0.253487855
v -2.47026396 -0.0450643897 0.252392143
v -2.48047972 -0.178846195 0.228543311
v -2.55702329 -0.143217087 0.160575256
v -0.169806212 -0.0825519562 -0.175776854
v 0.00161392207 -0.0171701815 -0.275868565
v -0.0443313606 -0.0430179574 -0.192262873
v -0.275896758 0.169293433 -0.286986828
v -0.536270559 0.235219032 -0.205036312
v -0.00659683207 0.0986808017 -0.265385419
v -0.0311927795 0.254836053 -0.280760407
v -0.481178969 -0.0661008433 -0.178054944
v -0.0315197743 0.285169363 -0.140178308
v -0.180346072 0.288264692 -0.146868452
v -0.0178309623 0.261340559 0.0286066812
v -0.020630341 0.260734171 0.109937437
v -0.198954165 0.202964395 0.254392326
v 0.00982345548 0.251679152 0.196546853
v 0.00710845925 0.141251296 0.21122016
v -0.00290618883 0.0620764904 0.266930848
v 0.026392363 -0.0536399074 0.263107151
v -0.33421874 0.262120277 -0.0655553788
v -0.329097122 0.298743814 0.157135725
v -0.610915959 -0.0913046971 -0.246981144
v -0.752719581 -0.0530860126 -0.174550191
v -0.784532607 -0.0386603549 -0.25141564
v -0.795276344 0.0193535611 -0.276163191
v -0.712406993 0.115051493 -0.217205882
v -0.792481065 0.103506699 -0.233198747
v -0.734542966 0.235287085 -0.203502148
v -0.679492772 0.23836036 -0.113982923
v -0.538931549 0.215032265 0.148814157
v -0.69677496 0.251207501 -0.0379269011
v -0.660563827 0.213981092 0.0746083781
v -0.563220799 0.154266804 0.225680575
v -0.464577615 0.0800038874 0.262788773
v -0.359246522 0.0140865324 0.274533927
v -0.419756085 -0.0612288639 0.202680469
v -0.257649839 -0.113795541 0.182598382
v -0.400643617 -0.102970041 0.158184499
v -0.0834451243 -0.0903238654 0.189194143
v 0.0045584105 -0.0897040516 0.210156739
v -2.54041314 -0.151228398 -0.242851019
v -2.30933428 -0.131944656 -0.187823132
v -2.64851975 -0.141941905 -0.161360204
v -2.51933885 -0.135980606 -0.26502192
v -2.49255037 -0.0835480466 -0.28990382
v -2.41757131 -0.0612235256 -0.287703484
v -2.28599381 -0.0799602494 -0.253397316
v -2.23789048 -0.0873993635 -0.191845611
v 0.00161392207 -0.0171701815 -0.275868565
v -0.0418394469 -0.0237549581 0.0529959872
v -0.0443313606 -0.0430179574 -0.192262873
v 0.0118673705 0.144719154 -0.181305543
v -0.00659683207 0.0986808017 -0.265385419
v -0.0311927795 0.254836053 -0.280760407
v -0.0315197743 0.285169363 -0.140178308
v 0.031288147 0.0932103693 0.165169746
v -0.0178309623 0.261340559 0.0286066812
v -0.020630341 0.260734171 0.109937437
v 0.00982345548 0.251679152 0.196546853
v 0.00710845925 0.141251296 0.21122016
v -0.00290618883 0.0620764904 0.266930848
v 0.026392363 -0.0536399074 0.263107151
v 0.0045584105 -0.0897040516 0.210156739
v -0.0834451243 -0.0903238654 0.189194143
v -2.95886278 0.203561008 0.127030984
v -2.99274802 0.191854477 0.0625646934
v -2.96507311 0.191741258 0.167087853
v -3.00310969 0.0134981535 0.0636158735
v -2.96954584 0.114413679 0.187379718
v -2.95924973 0.044525221 0.2589131
v -2.97368121 -0.00188362121 0.300291598
v -2.96189117 -0.109085463 0.294679344
v -2.95469356 -0.119106211 0.242286026
v -2.9072423 -0.121446915 0.193187058
v -2.95663619 -0.128373489 0.135910943
v -3.00478077 -0.0513468161 -0.141356945
v -2.86706328 -0.140143201 -0.14430438
v -2.88615346 -0.129171982 -0.262629032
v -2.95740175 -0.115439527 -0.292057574
v -2.97587419 -0.0598892979 -0.288070947
v -2.91467714 0.0140453335 -0.273700088
v -2.88352418 0.0580973029 -0.252389699
v -2.90958643 0.155378953 -0.258843064
v -2.93738341 0.152656093 -0.106712088
v -2.99870014 0.166309729 -0.0703868493
v -2.92326832 0.167520061 0.0095808031
vn 0.204871193 0.967472672 0.148406699
vn 0.324901968 0.944149315 0.0549608022
vn 0.308931023 0.620070696 0.721161544
vn -0.00752471527 0.916832626 0.399200737
vn -0.0246054064 0.976821184 0.212638482
vn -0.0289311353 0.927405596 -0.372936845
vn -0.0195025355 0.506395996 -0.862080395
vn 0.0102331657 0.3293778 -0.944142699
vn 0.0546817482 -0.223730519 -0.973115861
vn 0.0191067364 0.0913043544 -0.995639682
vn 0.22100088 -0.513677657 -0.829031885
vn 0.135684162 -0.598851562 -0.789282441
vn -0.000400745514 -0.895392835 -0.445276886
vn -0.0409927331 -0.925521135 -0.376470953
vn 0.000696760078 -0.381468803 -0.924381435
vn 0.0271111373 0.06732402 -0.997362792
vn -0.094824031 -0.698300302 -0.709496319
vn 0.107055582 -0.968222499 -0.226018474
vn -0.152414739 0.00248244684 -0.988313437
vn -0.0305010602 0.336760342 -0.941096306
vn -0.0984824151 0.990396619 -0.097034812
vn -0.0417721011 0.816587389 -0.575708389
vn -0.0169814415 0.999818027 -0.00869292673
vn -0.0923764557 0.937218308 0.336286455
vn -0.187017068 0.975498617 0.11587514
vn -0.434053808 0.664208353 0.608625174
vn -0.0311216079 0.431484073 0.901583493
vn -0.456216693 0.285022229 0.842988014
vn -0.320043355 -0.282559335 0.90428561
vn 0.0226444975 -0.198804617 0.979777515
vn 0.149187922 -0.41308555 0.89838922
vn 0.381947398 -0.586493433 0.714241922
vn 0.0722112358 0.241979808 0.967590511
vn 0.0472330488 -0.224565953 0.97331357
vn -0.147945911 0.808181286 0.570048392
vn -0.0347622372 0.156576321 0.987053931
vn -0.06116293 -0.700723469 0.71080631
vn -0.0117211016 -0.294370562 0.955619454
vn -0.00971390493 0.648604631 0.761063457
vn 0.000813666964 0.911724269 0.410802007
vn -0.0260071307 0.990804553 0.132777721
vn -0.000142274861 0.900851905 0.434126377
vn 0.0715154409 0.95569545 0.28553769
vn 0.0275544208 0.999463379 -0.0177144222
vn 0.0191860683 0.999459207 -0.0267056711
vn 0.113900505 0.903053463 -0.414151192
vn 0.0396741778 0.771401942 -0.63511014
vn 0.282841325 0.522491455 -0.804365277
vn 0.0974416062 0.320351958 -0.942273736
vn -0.26236406 0.117195994 -0.95782572
vn -0.150684655 -0.307553142 -0.939523935
vn -0.0153655997 0.0137834316 -0.999786913
vn -0.00812057965 0.989625633 0.143440515
vn -0.124041878 0.321389496 0.938787699
vn 0.10899011 0.417639643 0.902052283
vn 0.122442111 0.313477635 0.94166857
vn -0.111957163 0.430416346 0.895660281
vn -0.0471199118 -0.335970074 0.940693319
vn 0.129101828 -0.387200803 0.912911952
vn -0.0470191501 -0.659908056 0.749873757
vn -0.68192637 -0.0775796324 0.727294862
vn 0.128350377 0.157284752 -0.979177058
vn 0.269836187 -0.61394757 -0.741792977
vn 0.126284987 -0.96825546 -0.215716273
vn 0.185398608 0.439630479 -0.878835797
vn -0.0509966575 0.140065879 -0.988828063
vn 0.102412298 -0.0490966029 -0.993529618
vn -0.247543812 -0.413519233 -0.87619853
vn -0.415564269 -0.671851575 -0.613124669
vn -0.184853986 -0.706210971 -0.683443546
vn 0.312547386 -0.479680479 -0.819890738
vn -0.0152107775 -0.995836377 -0.0898812264
vn 0.219127506 -0.040970698 -0.974835634
vn 0.0890357941 0.105027936 -0.990475595
vn 0.068986021 0.184474006 -0.980413377
vn 0.0214193035 0.0866799951 -0.996005952
vn -0.0804448128 0.88368845 -0.461110979
vn -0.293386251 0.954766393 -0.0484313741
vn -0.242434174 0.913003027 -0.328102231
vn -0.131362498 0.961728096 -0.240463987
vn -0.00982192904 0.998842955 0.0470774695
vn 0.339196265 0.698783994 0.629798949
vn -0.432290584 0.358606935 0.827360809
vn -0.0944195688 0.694951475 0.712830544
vn 0.26899755 0.102870986 0.957631409
vn 0.566598892 -0.264490366 0.780391157
vn -0.0526137985 -0.986460567 0.155330032
vn -0.183511779 -0.974262178 -0.13090691
vn -0.00925453752 -0.339842916 -0.940436721
vn 0.146687046 -0.96550715 -0.215125039
vn 0.420825154 -0.230994433 -0.87723875
vn 0.19943966 -0.234698549 -0.951388657
vn 0.133654565 0.747075438 -0.651164114
vn -0.0405870713 0.0501323193 -0.997917593
vn -0.0983715206 0.901669204 -0.421088696
vn -0.31427142 0.188403323 -0.930450201
vn -0.716967165 0.426530063 -0.551389456
vn -0.430235654 0.880095005 -0.200823173
vn -0.0909825414 0.995458484 0.0280126855
vn -0.157359034 0.973372281 0.166686699
vn 0.0477883257 0.971027315 0.234141752
vn -0.0423346497 0.592457831 0.804488361
vn 0.128680974 0.732619941 0.668363154
vn 0.151571199 0.258866847 0.95394665
vn 0.0379356556 0.997350574 0.062069647
vn 0.00945483893 0.873740733 -0.486300051
vn 0.0731417984 0.1554894 -0.985126019
vn -0.0981001705 0.0688198581 -0.992794096
vn -0.119248331 -0.720595181 -0.683024406
vn -0.270876765 -0.745906174 -0.608481467
vn -0.177092597 -0.170445889 -0.969322741
vn -0.190208107 0.336927563 -0.922117472
vn -0.104679681 -0.36194548 -0.926303267
vn -0.278849393 0.57434684 -0.76965487
vn 0.157037139 0.235413015 -0.959124684
vn -0.0621363223 0.996091783 -0.0627722442
vn -0.0943357944 0.980384171 0.173054188
vn 0.440536261 0.873065948 0.20900631
vn 0.0701095983 0.966221869 0.247991845
vn -0.00444427412 0.56135875 0.827560723
vn -0.0110712862 0.583443522 0.812078238
vn -0.106817424 0.814632416 0.5700562
vn 0.110014945 0.166208968 0.979934275
vn 0.0132169137 -0.438792795 0.898491025
vn 0.121623561 -0.432183683 0.893546283
vn 0.790509403 -0.458668023 0.405855358
vn 0.129928738 -0.903500378 0.408418268
vn -0.0638913959 -0.486425728 0.871382833
vn 0.0320034735 0.062906988 0.997506201
vn -0.00629541138 -0.0809171274 0.996700943
vn -0.103053004 -0.743898273 0.66029954
vn -0.311566561 -0.939604342 -0.141668379
vn -0.214261249 -0.389704108 -0.895668864
vn -0.161926061 -0.376054317 -0.91233933
vn 0.280900687 -0.949587107 -0.139208883
vn -0.309535146 0.0120214643 -0.950812101
vn -0.0773447976 0.67493391 -0.733813286
vn 0.0836883038 0.0143581377 -0.996388555
vn -0.187907115 0.594439805 -0.781877339
vn 0.144166633 -0.1087626 -0.983558118
vn -0.114131913 0.983393371 -0.141108036
vn -0.0672221035 0.971642911 -0.226696253
vn 0.104643971 0.992963254 0.0554406196
vn -0.141458273 0.972697139 0.183983326
vn 0.0111818723 0.568787754 0.822408378
vn 0.0347396322 0.699125588 0.714154363
vn 0.288108766 0.334239334 0.897372544
vn 0.0451251529 0.150681093 0.987551928
vn -0.00904686842 -0.212825567 0.977048337
vn -0.176329643 0.970321417 -0.165481865
vn 0.0140189845 0.937802553 0.346885771
vn 0.277004004 -0.40674597 -0.870532215
vn -0.213221088 -0.972314596 0.09560927
vn -0.208622932 -0.741715968 -0.637443185
vn 0.240168527 0.194054142 -0.951137245
vn 0.0616107546 0.269108295 -0.961137235
vn 0.140207767 0.323740184 -0.935699761
vn 0.723026395 0.208187997 -0.658703744
vn 0.0214848928 0.976590216 -0.214032993
vn -0.251862556 0.942759573 0.218562305
vn 0.256796598 0.966002047 -0.029925378
vn -0.272137523 0.858878493 0.433899611
vn -0.195910648 0.66424787 0.721383274
vn 0.0178597867 0.32420975 0.945816576
vn -0.0758759826 -0.0933293626 0.992739856
vn -0.19504185 -0.619471371 0.760403693
vn -0.0872354358 -0.642825246 0.761029363
vn -0.165640146 -0.753753185 0.635939777
vn 0.100285515 -0.942516804 0.31875509
vn -0.136259899 -0.791755974 0.595445812
vn 0.0594173409 -0.993352175 0.0985948667
vn 0.180410713 -0.865664184 -0.46698764
vn 0.0421465561 -0.984860897 0.168144494
vn 0.255830646 -0.707336068 -0.658958614
vn 0.280988425 -0.567971051 -0.773598254
vn 0.181734562 -0.698866904 -0.691778541
vn 0.15209344 -0.800153375 -0.580191553
vn 0.454624921 -0.769631267 -0.448312312
vn 0.976897955 -0.188958809 0.0998244658
vn 0.914242685 -0.382585377 -0.133374497
vn 0.568441808 -0.820628345 0.0586778224
vn 0.999926686 0.00670046965 -0.0100922482
vn 0.957451701 0.106128864 -0.268370718
vn 0.957687199 0.256388932 -0.130766913
vn 0.950768232 0.306706369 -0.0443952829
vn 0.992352188 -0.0895357281 -0.0849739015
vn 0.960242987 0.278926671 -0.0115464227
vn 0.959273398 0.26542455 -0.0966660827
vn 0.952878654 0.177741826 -0.245825246
vn 0.912746012 0.0743348971 0.40170753
vn 0.908020377 0.202102765 0.366951615
vn 0.995653033 -0.072329469 -0.0586813949
vn 0.799264133 -0.452541739 -0.395452589
vn 0.104242757 -0.905726731 -0.41084367
vn -0.567046225 0.809723914 0.151015341
vn -0.971070826 0.209489182 0.11461135
vn -0.967639804 0.100112699 0.231626123
vn -0.991881788 -0.0975804031 0.0815383047
vn -0.977006257 0.0853044018 0.195401952
vn -0.945757806 0.277912587 0.16824609
vn -0.992359579 -0.0157931671 0.122364193
vn -0.981562972 -0.171684027 0.0840157568
vn -0.772608042 -0.591810167 -0.229864374
vn -0.714539289 -0.676991999 -0.176395431
vn -0.886276424 -0.413765401 0.208115876
vn -0.913865387 -0.382424086 -0.136388764
vn -0.541026294 -0.836080968 -0.0908797234
vn -0.44422099 -0.885847032 0.133950472
vn -0.552224755 -0.815502226 0.173216298
vn -0.934148192 0.294753969 -0.201214164
vn -0.745980144 0.637407303 -0.192939207
vn -0.659238398 -0.0317755491 -0.751262248
vn -0.90074861 0.193901569 -0.388656765
vn -0.78206265 0.45525381 -0.425584286
vn -0.914414704 0.325727969 -0.240306318
vn 0.175628126 0.967802346 -0.180314213
vt 0.711553097 0.370310009
vt 0.729683459 0.356180876
vt 0.700743258 0.329965889
vt 0.683627129 0.364432037
vt 0.712908506 0.402859569
vt 0.67977941 0.409150898
vt 0.714224696 0.414013207
vt 0.710307717 0.433087945
vt 0.694821596 0.44575423
vt 0.727443397 0.440630734
vt 0.736605823 0.460187495
vt 0.718375742 0.484475315
vt 0.739124537 0.470338285
vt 0.752592802 0.478028476
vt 0.635428965 0.483732522
vt 0.633296311 0.437179267
vt 0.595859885 0.469406813
vt 0.589806974 0.483696222
vt 0.597118437 0.457087159
vt 0.595880091 0.438089371
vt 0.63913101 0.406555593
vt 0.585277557 0.414427102
vt 0.574382544 0.398688316
vt 0.589770913 0.380080163
vt 0.576627016 0.38473624
vt 0.569449484 0.365222543
vt 0.565560162 0.334661067
vt 0.545140982 0.343026757
vt 0.528377295 0.327393949
vt 0.529370308 0.284462631
vt 0.517906308 0.298440218
vt 0.512891412 0.287854016
vt 0.598250329 0.315802753
vt 0.64335686 0.279686511
vt 0.632425964 0.328522146
vt 0.672155976 0.291313708
vt 0.737036467 0.267478406
vt 0.745691061 0.297659099
vt 0.732903004 0.32967633
vt 0.728935242 0.356624633
vt 0.807486236 0.119409755
vt 0.834768236 0.14908734
vt 0.838626087 0.125206828
vt 0.784342825 0.150426358
vt 0.782986462 0.1242847
vt 0.766172051 0.12832886
vt 0.746675551 0.165965259
vt 0.749909759 0.130426466
vt 0.738196254 0.129374862
vt 0.745819867 0.122998603
vt 0.739423037 0.101560459
vt 0.725536585 0.0862101167
vt 0.797553122 0.187914163
vt 0.860157967 0.174773186
vt 0.868372262 0.203004211
vt 0.860981286 0.130822033
vt 0.842888892 0.12864475
vt 0.880006194 0.129298478
vt 0.916572928 0.198351383
vt 0.919447064 0.141702011
vt 0.905249119 0.127737731
vt 0.711010814 0.0852109492
vt 0.71567148 0.0745818168
vt 0.707920432 0.0710581094
vt 0.709797978 0.112454966
vt 0.704375625 0.125567704
vt 0.717414975 0.185872644
vt 0.693749249 0.128861219
vt 0.688648224 0.131883532
vt 0.673582077 0.149987876
vt 0.683477759 0.194531262
vt 0.663037777 0.187366933
vt 0.685648918 0.207841873
vt 0.694477677 0.213100046
vt 0.70965755 0.205433339
vt 0.723060846 0.202240765
vt 0.742456913 0.208598793
vt 0.771382868 0.220817953
vt 0.796402574 0.219108075
vt 0.809851766 0.229273885
vt 0.821296155 0.22159794
vt 0.829506457 0.221850991
vt 0.845871806 0.22311312
vt 0.86692363 0.21911782
vt 0.879861772 0.221038371
vt 0.899793208 0.218176126
vt 0.909346938 0.216012865
vt 0.917886615 0.206944913
vt 0.878817737 0.477216065
vt 0.904614866 0.4719221
vt 0.903894305 0.4635759
vt 0.912313223 0.448722184
vt 0.883679032 0.420260191
vt 0.924989581 0.432155311
vt 0.932198882 0.40733707
vt 0.946644783 0.419114023
vt 0.953844428 0.40955013
vt 0.945091605 0.393294275
vt 0.940230966 0.375920177
vt 0.920230389 0.357758522
vt 0.93018806 0.350391567
vt 0.895294011 0.326548874
vt 0.931940019 0.317958951
vt 0.93555212 0.298358142
vt 0.860097289 0.367212117
vt 0.801448822 0.396259129
vt 0.854745805 0.423508823
vt 0.800256252 0.460788906
vt 0.796747923 0.484663546
vt 0.782529533 0.477264881
vt 0.778933406 0.468221009
vt 0.769339383 0.448545158
vt 0.837885678 0.463365734
vt 0.756662309 0.420815051
vt 0.752495944 0.438987195
vt 0.755072892 0.409199595
vt 0.768243968 0.35948807
vt 0.750419974 0.376547694
vt 0.794620156 0.368903577
vt 0.839132905 0.320795476
vt 0.794409037 0.320824564
vt 0.769837976 0.331671953
vt 0.782123923 0.297741354
vt 0.844249189 0.266271651
vt 0.787630737 0.276999533
vt 0.768638551 0.2640571
vt 0.774735034 0.247606933
vt 0.899913609 0.239699453
vt 0.916060209 0.284286439
vt 0.931791902 0.2793006
vt 0.931853414 0.253692091
vt 0.943759084 0.244483083
vt 0.629805446 0.0234098863
vt 0.6626634 0.0438698083
vt 0.651880085 0.0275846552
vt 0.618616343 0.0826061517
vt 0.561761498 0.0985198766
vt 0.663926065 0.0659815222
vt 0.662343621 0.0951302797
vt 0.575716138 0.0246511828
vt 0.65992707 0.121631831
vt 0.632951558 0.118177071
vt 0.658726811 0.156229675
vt 0.655133247 0.171681345
vt 0.611528873 0.197478086
vt 0.656486094 0.18930468
vt 0.649166942 0.214735299
vt 0.638121188 0.236316055
vt 0.635264874 0.258281887
vt 0.599731445 0.127139181
vt 0.60077697 0.16613695
vt 0.552201271 0.0343940705
vt 0.525297463 0.0244019162
vt 0.520693839 0.040565744
vt 0.518640518 0.0541224927
vt 0.531641424 0.0770111829
vt 0.517455995 0.071887061
vt 0.524222136 0.0976043493
vt 0.535059214 0.110464215
vt 0.553755462 0.164354891
vt 0.528841019 0.123368934
vt 0.531253099 0.146281078
vt 0.546232462 0.181987196
vt 0.559533954 0.204262525
vt 0.575660944 0.222306281
vt 0.556315303 0.235708475
vt 0.58022207 0.256955147
vt 0.554432094 0.247747809
vt 0.611013293 0.266439617
vt 0.627407312 0.267858684
vt 0.732661664 0.225572556
vt 0.698964775 0.254837334
vt 0.756895006 0.227015525
vt 0.726894021 0.223209471
vt 0.717090249 0.216419011
vt 0.703187406 0.220314175
vt 0.686700583 0.241535366
vt 0.683263898 0.256079257
vt 0.746019304 0.0443579108
vt 0.803672314 0.0315514356
vt 0.760564327 0.0312648565
vt 0.763466179 0.07622917
vt 0.746916771 0.0677534789
vt 0.744316518 0.0969452411
vt 0.769870639 0.104634076
vt 0.826372564 0.0662569553
vt 0.799747705 0.0993020087
vt 0.8137784 0.0996297747
vt 0.829798698 0.0976169258
vt 0.83534801 0.0776394308
vt 0.846870303 0.0615561306
vt 0.845992208 0.0398147851
vt 0.838303208 0.0297938269
vt 0.832363129 0.0127898287
vt 0.886201978 0.116229996
vt 0.899286985 0.115448639
vt 0.880609035 0.11136426
vt 0.905815423 0.0808312446
vt 0.878513694 0.0965606272
vt 0.868333101 0.080696702
vt 0.863830566 0.0698406547
vt 0.868416667 0.050584361
vt 0.87785852 0.0478575081
vt 0.886704028 0.0390414149
vt 0.897449195 0.0477477163
vt 0.944514871 0.0755608827
vt 0.95133841 0.0395594984
vt 0.97206533 0.0489809513
vt 0.973238826 0.0636519641
vt 0.971615434 0.0743790716
vt 0.973444104 0.0930710584
vt 0.970598996 0.109225541
vt 0.961752653 0.127681166
vt 0.935029984 0.119356036
vt 0.924737811 0.112457529
vt 0.912587523 0.125014603
g submesh0
f 1/1/1 2/2/2 3/3/3
f 1/1/1 3/3/3 4/4/4
f 5/5/5 1/1/1 4/4/4
f 6/6/6 5/5/5 4/4/4
f 6/6/6 7/7/7 5/5/5
f 6/6/6 8/8/8 7/7/7
f 9/9/9 8/8/8 6/6/6
f 8/8/8 9/9/9 10/10/10
f 10/10/10 9/9/9 11/11/11
f 11/11/11 9/9/9 12/12/12
f 11/11/11 12/12/12 13/13/13
f 12/12/12 14/14/14 13/13/13
f 15/15/15 12/12/12 9/9/9
f 16/16/16 9/9/9 6/6/6
f 9/9/9 16/16/16 15/15/15
f 16/16/16 17/17/17 15/15/15
f 17/17/17 18/18/18 15/15/15
f 19/19/19 17/17/17 16/16/16
f 20/20/20 19/19/19 16/16/16
f 6/6/6 21/21/21 16/16/16
f 21/21/21 20/20/20 16/16/16
f 21/21/21 22/22/22 20/20/20
f 22/22/22 21/21/21 23/23/23
f 21/21/21 24/24/24 23/23/23
f 4/4/4 21/21/21 6/6/6
f 4/4/4 24/24/24 21/21/21
f 23/23/23 24/24/24 25/25/25
f 25/25/25 24/24/24 26/26/26
f 24/24/24 27/27/27 26/26/26
f 26/26/26 27/27/27 28/28/28
f 28/28/28 27/27/27 29/29/29
f 27/27/27 30/30/30 29/29/29
f 29/29/29 30/30/30 31/31/31
f 32/32/32 31/31/31 30/30/30
f 27/27/27 33/33/33 30/30/30
f 33/33/33 27/27/27 24/24/24
f 34/34/34 30/30/30 33/33/33
f 4/4/4 35/35/35 24/24/24
f 35/35/35 33/33/33 24/24/24
f 33/33/33 36/36/36 34/34/34
f 35/35/35 36/36/36 33/33/33
f 4/4/4 36/36/36 35/35/35
f 37/37/37 34/34/34 36/36/36
f 38/38/38 37/37/37 36/36/36
f 3/3/3 36/36/36 4/4/4
f 3/3/3 38/38/38 36/36/36
f 39/39/39 38/38/38 3/3/3
f 40/40/40 39/39/39 3/3/3
f 41/41/41 42/42/42 43/43/43
f 44/44/44 42/42/42 41/41/41
f 41/41/41 45/45/45 44/44/44
f 46/46/46 44/44/44 45/45/45
f 44/44/44 46/46/46 47/47/47
f 48/48/48 47/47/47 46/46/46
f 48/48/48 49/49/49 47/47/47
f 50/50/50 49/49/49 48/48/48
f 51/51/51 49/49/49 50/50/50
f 51/51/51 52/52/52 49/49/49
f 53/53/53 42/42/42 44/44/44
f 47/47/47 53/53/53 44/44/44
f 53/53/53 54/54/54 42/42/42
f 53/53/53 55/55/55 54/54/54
f 56/56/56 42/42/42 54/54/54
f 42/42/42 56/56/56 57/57/57
f 54/54/54 58/58/58 56/56/56
f 54/54/54 59/59/59 58/58/58
f 55/55/55 59/59/59 54/54/54
f 59/59/59 60/60/60 58/58/58
f 58/58/58 60/60/60 61/61/61
f 62/62/62 49/49/49 52/52/52
f 63/63/63 62/62/62 52/52/52
f 63/63/63 64/64/64 62/62/62
f 49/49/49 62/62/62 65/65/65
f 65/65/65 66/66/66 49/49/49
f 49/49/49 66/66/66 67/67/67
f 66/66/66 68/68/68 67/67/67
f 69/69/69 67/67/67 68/68/68
f 69/69/69 70/70/70 67/67/67
f 47/47/47 49/49/49 67/67/67
f 71/71/71 67/67/67 70/70/70
f 71/71/71 70/70/70 72/72/72
f 67/67/67 71/71/71 73/73/73
f 67/67/67 73/73/73 74/74/74
f 75/75/75 67/67/67 74/74/74
f 76/76/76 67/67/67 75/75/75
f 47/47/47 67/67/67 76/76/76
f 47/47/47 76/76/76 77/77/77
f 77/77/77 53/53/53 47/47/47
f 77/77/77 78/78/78 53/53/53
f 78/78/78 79/79/79 53/53/53
f 53/53/53 79/79/79 80/80/80
f 53/53/53 80/80/80 81/81/81
f 81/81/81 82/82/82 53/53/53
f 82/82/82 55/55/55 53/53/53
f 82/82/82 83/83/83 55/55/55
f 83/83/83 84/84/84 55/55/55
f 84/84/84 85/85/85 55/55/55
f 85/85/85 86/86/86 55/55/55
f 55/55/55 86/86/86 59/59/59
f 86/86/86 87/87/87 59/59/59
f 87/87/87 88/88/88 59/59/59
f 89/89/89 90/90/90 91/91/91
f 89/89/89 91/91/91 92/92/92
f 93/93/93 89/89/89 92/92/92
f 93/93/93 92/92/92 94/94/94
f 93/93/93 94/94/94 95/95/95
f 95/95/95 94/94/94 96/96/96
f 95/95/95 96/96/96 97/97/97
f 98/98/98 95/95/95 97/97/97
f 98/98/98 99/99/99 95/95/95
f 95/95/95 99/99/99 100/100/100
f 99/99/99 101/101/101 100/100/100
f 100/100/100 101/101/101 102/102/102
f 101/101/101 103/103/103 102/102/102
f 103/103/103 104/104/104 102/102/102
f 95/95/95 100/100/100 105/105/105
f 95/95/95 105/105/105 93/93/93
f 100/100/100 102/102/102 105/105/105
f 93/93/93 105/105/105 106/106/106
f 89/89/89 93/93/93 107/107/107
f 93/93/93 106/106/106 107/107/107
f 107/107/107 106/106/106 108/108/108
f 108/108/108 109/109/109 89/89/89
f 110/110/110 109/109/109 108/108/108
f 111/111/111 110/110/110 108/108/108
f 112/112/112 111/111/111 108/108/108
f 89/89/89 107/107/107 113/113/113
f 107/107/107 108/108/108 113/113/113
f 108/108/108 89/89/89 113/113/113
f 114/114/114 112/112/112 108/108/108
f 114/114/114 108/108/108 106/106/106
f 114/114/114 115/115/115 112/112/112
f 114/114/114 106/106/106 116/116/116
f 106/106/106 117/117/117 116/116/116
f 117/117/117 118/118/118 116/116/116
f 105/105/105 119/119/119 106/106/106
f 106/106/106 119/119/119 117/117/117
f 105/105/105 120/120/120 119/119/119
f 105/105/105 102/102/102 120/120/120
f 119/119/119 121/121/121 117/117/117
f 119/119/119 120/120/120 121/121/121
f 117/117/117 121/121/121 122/122/122
f 121/121/121 123/123/123 122/122/122
f 102/102/102 124/124/124 120/120/120
f 120/120/120 124/124/124 121/121/121
f 121/121/121 125/125/125 123/123/123
f 121/121/121 124/124/124 125/125/125
f 126/126/126 123/123/123 125/125/125
f 125/125/125 127/127/127 126/126/126
f 125/125/125 124/124/124 127/127/127
f 124/124/124 128/128/128 127/127/127
f 102/102/102 129/129/129 124/124/124
f 129/129/129 128/128/128 124/124/124
f 102/102/102 104/104/104 129/129/129
f 104/104/104 130/130/130 129/129/129
f 130/130/130 131/131/131 129/129/129
f 131/131/131 128/128/128 129/129/129
f 132/132/132 128/128/128 131/131/131
f 133/133/133 134/134/134 135/135/135
f 136/136/136 134/134/134 133/133/133
f 136/136/136 133/133/133 137/137/137
f 138/138/138 134/134/134 136/136/136
f 139/139/139 138/138/138 136/136/136
f 137/137/137 133/133/133 140/140/140
f 136/136/136 141/141/141 139/139/139
f 136/136/136 142/142/142 141/141/141
f 142/142/142 143/143/143 141/141/141
f 142/142/142 144/144/144 143/143/143
f 145/145/145 144/144/144 142/142/142
f 145/145/145 146/146/146 144/144/144
f 145/145/145 147/147/147 146/146/146
f 145/145/145 148/148/148 147/147/147
f 145/145/145 149/149/149 148/148/148
f 150/150/150 142/142/142 136/136/136
f 137/137/137 150/150/150 136/136/136
f 142/142/142 151/151/151 145/145/145
f 142/142/142 150/150/150 151/151/151
f 137/137/137 140/140/140 152/152/152
f 153/153/153 152/152/152 140/140/140
f 152/152/152 153/153/153 154/154/154
f 152/152/152 154/154/154 155/155/155
f 156/156/156 152/152/152 155/155/155
f 137/137/137 152/152/152 156/156/156
f 156/156/156 155/155/155 157/157/157
f 156/156/156 157/157/157 158/158/158
f 156/156/156 158/158/158 159/159/159
f 156/156/156 159/159/159 137/137/137
f 137/137/137 160/160/160 150/150/150
f 159/159/159 160/160/160 137/137/137
f 150/150/150 160/160/160 151/151/151
f 161/161/161 160/160/160 159/159/159
f 161/161/161 162/162/162 160/160/160
f 160/160/160 162/162/162 163/163/163
f 163/163/163 151/151/151 160/160/160
f 151/151/151 163/163/163 164/164/164
f 151/151/151 164/164/164 165/165/165
f 151/151/151 165/165/165 145/145/145
f 164/164/164 166/166/166 165/165/165
f 165/165/165 149/149/149 145/145/145
f 166/166/166 167/167/167 165/165/165
f 165/165/165 167/167/167 149/149/149
f 167/167/167 166/166/166 168/168/168
f 149/149/149 167/167/167 169/169/169
f 149/149/149 169/169/169 170/170/170
f 171/171/171 172/172/172 173/173/173
f 174/174/174 172/172/172 171/171/171
f 175/175/175 172/172/172 174/174/174
f 175/175/175 176/176/176 172/172/172
f 176/176/176 177/177/177 172/172/172
f 178/178/178 172/172/172 177/177/177
f 179/179/179 180/180/180 181/181/181
f 182/182/182 180/180/180 179/179/179
f 183/183/183 182/182/182 179/179/179
f 182/182/182 183/183/183 184/184/184
f 185/185/185 182/182/182 184/184/184
f 186/186/186 180/180/180 182/182/182
f 187/187/187 186/186/186 182/182/182
f 185/185/185 187/187/187 182/182/182
f 188/188/188 186/186/186 187/187/187
f 188/188/188 189/189/189 186/186/186
f 189/189/189 190/190/190 186/186/186
f 190/190/190 191/191/191 186/186/186
f 191/191/191 192/192/192 186/186/186
f 193/193/193 186/186/186 192/192/192
f 193/193/193 180/180/180 186/186/186
f 193/193/193 194/194/194 180/180/180
f 195/195/195 196/196/196 197/197/197
f 197/197/197 196/196/196 198/198/198
f 198/198/198 199/199/199 197/197/197
f 199/199/199 198/198/198 200/200/200
f 198/198/198 201/201/201 200/200/200
f 198/198/198 202/202/202 201/201/201
f 198/198/198 203/203/203 202/202/202
f 198/198/198 204/204/204 203/203/203
f 198/198/198 205/205/205 204/204/204
f 198/198/198 206/206/206 205/205/205
f 206/206/206 207/207/207 205/205/205
f 208/208/208 207/207/207 206/206/206
f 208/208/208 206/206/206 209/209/209
f 210/210/210 209/209/209 206/206/206
f 211/211/211 210/210/210 206/206/206
f 212/212/212 211/211/211 206/206/206
f 212/212/212 206/206/206 213/213/213
f 213/213/213 206/206/206 214/214/214
f 215/215/215 206/206/206 198/198/198
f 214/214/214 206/206/206 215/215/215
f 196/196/196 215/215/215 198/198/198
f 214/214/214 215/215/215 216/216/216
f 216/216/216 215/215/215 196/196/196
