# jungle_ruins_stone_pile_c_stone
v -5.11162901 0.230801865 1.0220505
v -5.99349833 -0.0568494722 1.13373876
v -5.50377941 -0.0558718033 1.48625565
v -4.77662849 -0.0552096739 1.44410729
v -5.71033907 0.284982115 0.993299544
v -5.99890137 -0.0564611852 0.422556132
v -5.74495459 0.271214396 0.55767554
v -5.79288578 -0.0566033013 0.126421809
v -5.31676245 0.3145895 0.547478914
v -4.62763834 -0.0547139719 0.0639041141
v -3.42670536 -0.0565174222 0.00148956291
v -4.61485052 0.288089454 0.664954185
v -4.31699657 0.282025605 0.392399579
v -4.06234694 0.102123395 1.07034039
v -3.79340506 -0.0559740514 1.44477582
v -3.44935894 0.3525576 0.436697066
v -2.40806842 -0.0529683568 0.098053433
v -3.27211642 0.308014244 0.953731358
v -3.31467557 0.0774337202 1.34275067
v -2.58751059 0.198305845 1.02184653
v -3.23023605 -0.0553627275 1.60223222
v -2.51350236 -0.0549090356 1.51547027
v -2.70321822 0.229513437 0.656503677
v -2.09084368 0.256174237 0.451169491
v -1.44864523 -0.0490716919 0.132209167
v -1.80687773 0.220694497 1.12699211
v -1.60985541 -0.0531580821 1.45911074
v -1.84023881 0.387852848 0.614624381
v -1.53237617 0.31963402 0.735121012
v -1.17710006 0.0822314471 0.226236105
v -0.47001341 -0.0548640937 0.118301235
v -1.22626901 0.341362834 0.874181449
v -0.968215764 0.179129317 1.05124855
v -0.707567275 -0.055249732 1.42005646
v -0.945334136 0.15948686 0.593565524
v -0.44104597 0.185022086 1.17434776
v 0.0210733023 -0.0583423749 1.09021211
v -0.423039228 0.328986645 0.797911584
v -0.103171691 0.334380269 0.898972511
v 0.00418395968 -0.0569399111 0.410411835
g submesh0
f 1 2 3
f 1 3 4
f 2 1 5
f 5 6 2
f 5 7 6
f 5 1 7
f 6 7 8
f 7 9 8
f 7 1 9
f 8 9 10
f 10 9 11
f 1 4 12
f 1 12 9
f 9 13 11
f 9 12 13
f 4 14 12
f 13 12 14
f 14 4 15
f 13 16 11
f 11 16 17
f 13 14 18
f 13 18 16
f 19 14 15
f 14 19 18
f 18 19 20
f 21 19 15
f 20 19 21
f 20 21 22
f 16 18 23
f 23 17 16
f 23 18 20
f 23 24 17
f 24 23 20
f 24 25 17
f 20 22 26
f 22 27 26
f 20 26 28
f 28 24 20
f 26 29 28
f 29 24 28
f 29 26 27
f 30 25 24
f 30 24 29
f 30 31 25
f 32 29 27
f 29 32 30
f 32 27 33
f 34 33 27
f 35 30 32
f 31 30 35
f 32 33 35
f 33 34 36
f 37 36 34
f 35 33 38
f 35 38 31
f 33 36 38
f 37 39 36
f 39 38 36
f 39 31 38
f 37 40 39
f 40 31 39
