# jungle_ruins_walls_3m_D_stone
v 0 -1.5308084E-17 0.5
v -3 1.5308084E-17 3.81469718E-08
v 0 1.5308084E-17 3.81469718E-08
v -3 -1.5308084E-17 0.5
v 0 1.5308084E-17 3.81469718E-08
v 0 3 0.5
v 0 3 3.81469718E-08
v -3 3 3.81469718E-08
v -3 1.5308084E-17 3.81469718E-08
v -3 3 0.5
v 0 3 0.5
v -3 3 0.5
v 0 -1.5308084E-17 0.5
v -3 3 0.5
v -3 -1.5308084E-17 0.5
v 0 3 0.5
v -3 1.5308084E-17 3.81469718E-08
v 0 3 3.81469718E-08
v 0 1.5308084E-17 3.81469718E-08
v -3 3 3.81469718E-08
vt 1 0
vt 0 1
vt 1 1
vt 0 0
vt 0 0
vt 1 1
vt 0 1
vt 1 1
vt 1 0
vt 0 1
vt 0 0
vt 1 0
vt 0 0
vt 1 1
vt 1 0
vt 0 1
vt 0 0
vt 1 1
vt 1 0
vt 0 1
g submesh0
f 1/1 2/2 3/3
f 2/2 1/1 4/4
f 5/5 6/6 1/1
f 6/6 5/5 7/7
f 4/4 8/8 9/9
f 8/8 4/4 10/10
f 8/8 11/11 7/7
f 11/11 8/8 12/12
f 13/13 14/14 15/15
f 14/14 13/13 16/16
f 17/17 18/18 19/19
f 18/18 17/17 20/20
