# jungle_ruins_walls_3m_A_LOD4
v -3.00000024 3.10868073 1.08718871E-06
v -3.00000024 3.08226919 0.500003517
v -2.51438689 3.10388398 0.500003636
v -2.48000717 3.09809446 1.18255616E-06
v -2.0431695 3.13566971 0.500003636
v -2.0431695 3.14526367 1.2207031E-06
v -1.55197632 3.0889535 0.500003636
v -1.55197632 3.04689789 1.20162963E-06
v -1.27621794 3.08609867 0.500003755
v -1.27621794 3.08541274 1.25885003E-06
v -0.992824733 3.0927968 1.2779235E-06
v -0.992824733 3.13437247 0.500003755
v -0.733630657 3.1494894 0.500003755
v -0.733630657 3.14137006 1.31607055E-06
v -0.319629967 3.17859817 0.500003755
v -0.319629967 3.18109465 1.31248601E-06
v 0 3.14420342 0.500003755
v 0 3.19359064 1.29699708E-06
v 0 3.14420342 0.500003755
v 0 4.724264E-05 0.500002921
v 0 0.00019187927 5.24520885E-07
v 0 3.19359064 1.29699708E-06
v -3.00000024 -6.76727286E-05 3.43322739E-07
v -3.00000024 -0.000171186926 0.500002801
v -3.00000024 3.08226919 0.500003517
v -3.00000024 3.10868073 1.08718871E-06
v 0 0.00019187927 5.24520885E-07
v -0.319629967 3.18109465 1.31248601E-06
v 0 3.19359064 1.29699708E-06
v -0.733630657 3.14137006 1.31607055E-06
v -0.992824733 3.0927968 1.2779235E-06
v -1.27621794 3.08541274 1.25885003E-06
v -3.00000024 -6.76727286E-05 3.43322739E-07
v -1.55197632 3.04689789 1.20162963E-06
v -2.0431695 3.14526367 1.2207031E-06
v -2.48000717 3.09809446 1.18255616E-06
v -3.00000024 3.10868073 1.08718871E-06
v -3.00000024 -0.000171186926 0.500002801
v -2.51438689 3.10388398 0.500003636
v -3.00000024 3.08226919 0.500003517
v -2.0431695 3.13566971 0.500003636
v -1.55197632 3.0889535 0.500003636
v 0 4.724264E-05 0.500002921
v -1.27621794 3.08609867 0.500003755
v -0.992824733 3.13437247 0.500003755
v -0.733630657 3.1494894 0.500003755
v -0.319629967 3.17859817 0.500003755
v 0 3.14420342 0.500003755
v -3.00000024 -6.76727286E-05 3.43322739E-07
v 0 0.00019187927 5.24520885E-07
v 0 4.724264E-05 0.500002921
v -3.00000024 -0.000171186926 0.500002801
vn 0.0203258786 0.998401463 0.0527381748
vn -0.044404272 0.997622788 0.0526970439
vn -0.0513324142 0.998567581 -0.0150918942
vn -0.0152528193 0.999863625 -0.0063295681
vn 0.0382888168 0.999182999 0.0129375048
vn 0.104329951 0.994359672 0.0190793034
vn 0.0644368157 0.994410455 -0.0836407691
vn 0.0770820901 0.993516564 -0.0835655853
vn -0.0804383233 0.99675864 -0.00136700808
vn -0.0814860314 0.996673584 -0.00136689132
vn -0.0636721626 0.995623767 -0.0684048608
vn -0.133035824 0.987702668 -0.0821283087
vn -0.0766743049 0.996685326 -0.0271919575
vn -0.116996519 0.993001461 -0.0161246825
vn 0.00715767825 0.999961972 0.0049924613
vn -0.0709123313 0.99747014 0.00498002069
vn 0.106478378 0.989499748 0.0977367684
vn -0.0388765596 0.994404912 0.0982212797
vn 1 0 0
vn 1 0 0
vn 1 0 0
vn 1 0 0
vn -1 0 0
vn -1 0 0
vn -1 0 0
vn -1 0 0
vn 0 2.57351104E-07 -1
vn 0 2.43193966E-07 -1
vn 0 2.41897823E-07 -1
vn 0 2.59423274E-07 -1
vn 0 2.68688694E-07 -1
vn 1.00313606E-07 2.40702406E-07 -1
vn 1.00792683E-07 2.46677018E-07 -1
vn 0 2.35079838E-07 -1
vn 0 2.67508625E-07 -1
vn 1.23710294E-07 2.5011758E-07 -1
vn 1.88272764E-07 2.39281491E-07 -1
vn 0 -2.55566476E-07 1
vn -1.0338232E-07 -2.54193168E-07 1
vn -2.25196672E-07 -2.35135929E-07 1
vn 0 -2.66664586E-07 1
vn -1.51433966E-07 -2.00689016E-07 1
vn 0 -2.54768906E-07 1
vn -1.19625057E-07 -3.09053235E-07 1
vn 0 -2.46724568E-07 1
vn 0 -2.50604131E-07 1
vn 0 -2.52522625E-07 1
vn 0 -2.54785817E-07 1
vn 8.65173424E-05 -1 -0.000207027362
vn 8.65173424E-05 -1 -0.000289271906
vn 7.28098603E-05 -1 -0.000289271877
vn 7.2809853E-05 -1 -0.000207027362
vt 0.970246434 1.22129965
vt 0.953731716 1.06243551
vt 0.815434515 1.06664836
vt 0.788080633 1.21339679
vt 0.657503009 1.04470289
vt 0.653085828 1.2071619
vt 0.498244792 1.0390563
vt 0.501048923 1.19950378
vt 0.422695577 1.04099751
vt 0.434733301 1.2033571
vt 0.293207318 1.19784546
vt 0.296709687 1.05590677
vt 0.24300395 1.04786909
vt 0.260706544 1.19802439
vt 0.0829067975 1.03795218
vt 0.0824837983 1.2071594
vt 0.0155862505 1.04014361
vt 0.017658582 1.20475352
vt -0.0800339282 1.06936896
vt -0.0843993872 0.253339767
vt -0.23208423 0.257487863
vt -0.22790125 1.07899201
vt 1.20806313 0.268107831
vt 1.0905757 0.265403211
vt 1.09598231 1.05441451
vt 1.24165738 1.03058529
vt 0.996299386 -0.00109217316
vt 0.924866796 1.07841647
vt 1.00504804 1.06456923
vt 0.756727695 1.07595491
vt 0.666009307 1.05768478
vt 0.571450293 1.0550698
vt -0.000266690331 -0.000145122409
vt 0.483304948 1.04404867
vt 0.311042547 1.07082772
vt 0.172861055 1.03232872
vt 3.1558764E-05 1.03747213
vt 0.997929573 0.000666834414
vt 0.851411223 1.03890598
vt 1.00530779 1.02498865
vt 0.680858374 1.04602945
vt 0.517376363 1.02970028
vt 5.40074143E-05 1.18762255E-05
vt 0.425594747 1.02877867
vt 0.330525815 1.04466653
vt 0.244312823 1.04968166
vt 0.104343005 1.0580399
vt 2.81479297E-05 1.04807305
vt 5.96046448E-08 0.395749211
vt 1.01317 0.395749211
vt 1.01317 0.226886749
vt 5.96046448E-08 0.226886749
g submesh0
f 1/1/1 2/2/2 3/3/3
f 1/1/1 3/3/3 4/4/4
f 5/5/5 4/4/4 3/3/3
f 5/5/5 6/6/6 4/4/4
f 6/6/6 5/5/5 7/7/7
f 6/6/6 7/7/7 8/8/8
f 9/9/9 8/8/8 7/7/7
f 9/9/9 10/10/10 8/8/8
f 9/9/9 11/11/11 10/10/10
f 9/9/9 12/12/12 11/11/11
f 11/11/11 12/12/12 13/13/13
f 11/11/11 13/13/13 14/14/14
f 15/15/15 14/14/14 13/13/13
f 15/15/15 16/16/16 14/14/14
f 16/16/16 15/15/15 17/17/17
f 16/16/16 17/17/17 18/18/18
f 19/19/19 20/20/20 21/21/21
f 19/19/19 21/21/21 22/22/22
f 23/23/23 24/24/24 25/25/25
f 23/23/23 25/25/25 26/26/26
f 27/27/27 28/28/28 29/29/29
f 27/27/27 30/30/30 28/28/28
f 27/27/27 31/31/31 30/30/30
f 27/27/27 32/32/32 31/31/31
f 27/27/27 33/33/33 32/32/32
f 32/32/32 33/33/33 34/34/34
f 34/34/34 33/33/33 35/35/35
f 35/35/35 33/33/33 36/36/36
f 36/36/36 33/33/33 37/37/37
f 38/38/38 39/39/39 40/40/40
f 38/38/38 41/41/41 39/39/39
f 38/38/38 42/42/42 41/41/41
f 42/42/42 38/38/38 43/43/43
f 42/42/42 43/43/43 44/44/44
f 44/44/44 43/43/43 45/45/45
f 45/45/45 43/43/43 46/46/46
f 46/46/46 43/43/43 47/47/47
f 47/47/47 43/43/43 48/48/48
f 49/49/49 50/50/50 51/51/51
f 49/49/49 51/51/51 52/52/52
