# junk_pile_straight_a_COL
v 2.64068079 0.00750708021 0.614422441
v 2.64298892 0.0074016205 -0.710777342
v 2.35572696 0.0813814551 -0.0211892091
v 2.2230258 0.00731848599 0.665653229
v 2.05049014 0.111979894 -0.322957873
v 2.03763461 0.127298757 0.0308788363
v 1.56940305 0.131643996 -0.425306201
v 0.955016673 0.00429996848 -0.73442471
v 1.71119308 0.147354379 -0.192632273
v 1.65694594 0.162142426 0.161540598
v 1.12510288 0.201373667 -0.0544679612
v 0.912762403 0.18682687 -0.382627964
v 1.48307776 0.116371408 0.414067209
v 0.949928999 0.00658705644 0.677586973
v 0.450239658 0.215952471 -0.412528366
v 0.242772311 0.00250066607 -0.711924791
v 1.23094952 0.15990071 0.234069496
v 0.676921308 0.113503471 0.430418462
v -0.875576854 0.0050368458 0.681150019
v 0.535757482 0.245348349 -0.0740977675
v 0.643588185 0.189885035 0.192886367
v -0.00407009013 0.234205946 0.112234578
v 0.0501766913 0.127370104 0.421473682
v 0.194615036 0.290962934 -0.15097563
v 0.0435199291 0.250186712 -0.278261453
v -0.402485579 0.217840642 -0.198744044
v -0.373654395 0.140049621 0.410842061
v -0.404686451 0.204818204 0.205485955
v -0.642415762 0.191665232 0.261497319
v -0.665409684 0.146418363 -0.563192368
v -1.1578269 0.00409394177 -0.735133588
v -0.874564707 0.18210271 0.307077944
v -1.21538806 0.240391865 0.105719984
v -1.77563238 0.0035746193 0.652215719
v -0.810000539 0.23395513 0.0188474543
v -0.835595846 0.221444845 -0.274487525
v -1.0395999 0.148158848 -0.490193963
v -1.41261244 0.192273289 -0.371949106
v -1.82677972 0.00334396958 -0.669086218
v -1.13206959 0.190765455 -0.275928885
v -1.87935126 0.192049474 -0.420371324
v -1.62564206 0.277171433 -0.176643878
v -2.24858022 0.12780714 -0.29065761
v -2.64398289 0.0072254315 -0.719702065
v -1.94602168 0.255443782 -0.0776803493
v -1.64156735 0.29949826 0.117267966
v -2.45229888 0.0966439247 -0.0603545457
v -2.6202507 0.00715928525 0.548535645
v -2.20504045 0.128927067 0.197057694
v -1.86967123 0.219232365 0.28489542
v -1.59761155 0.221180066 0.364224374
g submesh0
f 1 2 3
f 4 1 3
f 5 3 2
f 6 4 3
f 5 6 3
f 2 7 5
f 2 8 7
f 5 9 6
f 9 5 7
f 4 6 10
f 6 9 10
f 9 7 11
f 10 9 11
f 7 8 12
f 7 12 11
f 13 4 10
f 4 13 14
f 15 12 8
f 8 16 15
f 13 10 17
f 17 10 11
f 14 13 18
f 18 13 17
f 14 18 19
f 12 20 11
f 20 12 15
f 17 11 21
f 21 18 17
f 11 20 21
f 20 22 21
f 21 23 18
f 18 23 19
f 21 22 23
f 24 20 15
f 22 20 24
f 15 25 24
f 16 25 15
f 22 24 25
f 25 16 26
f 25 26 22
f 22 27 23
f 19 23 27
f 27 22 28
f 28 22 26
f 29 27 28
f 27 29 19
f 26 29 28
f 16 30 26
f 16 31 30
f 32 19 29
f 19 32 33
f 19 33 34
f 35 33 32
f 29 35 32
f 29 26 35
f 35 26 36
f 36 26 30
f 33 35 36
f 30 31 37
f 30 37 36
f 38 37 31
f 31 39 38
f 36 37 40
f 40 33 36
f 38 40 37
f 38 33 40
f 38 39 41
f 33 38 42
f 38 41 42
f 41 39 43
f 39 44 43
f 41 45 42
f 45 41 43
f 46 33 42
f 45 46 42
f 43 44 47
f 48 47 44
f 47 49 43
f 49 47 48
f 49 45 43
f 34 49 48
f 45 49 50
f 46 45 50
f 34 50 49
f 33 46 51
f 33 51 34
f 46 50 51
f 51 50 34
