# junk_pile_Lshape_a_COL
v -0.107336894 -0.000481510448 -1.39324677
v -1.23242545 0.000730258587 -1.31654334
v -0.674202383 0.20613803 -0.899414897
v -1.36894381 7.93816216E-05 -0.20598796
v 0.0311225113 0.219487488 -0.859178543
v 0.83697021 0.00102254073 -1.24870181
v 0.741985321 0.000134570742 -0.289664954
v -0.671763837 0.249080524 -0.389459819
v -1.3532728 0.000211663879 0.246836588
v -0.0576851889 0.30558449 -0.320177674
v -0.482803792 0.253842473 0.126873866
v -0.766898632 0.169394851 0.603942096
v -0.983653247 -0.00136903964 0.855333388
v -0.591702461 0.145830393 0.824526191
v -0.385223567 -0.00166487531 1.02286494
v -0.351926744 0.170508742 0.686998606
v 0.164623052 0.000492724997 0.979635239
v 0.0203297269 0.182669297 0.240387648
v 0.169181556 0.207840666 -0.18665193
v -0.112198159 0.254092753 -0.0546275228
g submesh0
f 1 2 3
f 4 3 2
f 3 5 1
f 1 5 6
f 5 7 6
f 8 3 4
f 8 5 3
f 9 8 4
f 10 5 8
f 5 10 7
f 11 8 9
f 10 8 11
f 9 12 11
f 9 13 12
f 14 12 13
f 13 15 14
f 16 12 14
f 15 16 14
f 12 16 11
f 17 16 15
f 17 18 16
f 18 17 7
f 11 16 18
f 19 7 10
f 7 19 18
f 18 20 11
f 20 10 11
f 18 19 20
f 20 19 10
