# kapok_b_COL
v 7.17114687 33.5310745 -0.00335799996
v 7.21903801 33.3154526 0.159219995
v 4.15081978 32.6722183 0.904731989
v 7.2428112 33.4831886 0.372717023
v 4.06110907 32.9894485 0.663299024
v 7.19535685 33.6987152 0.212530002
v 4.08460188 32.9097404 1.25937593
v 3.98049498 33.2779579 0.992447972
v 1.03165495 31.6478977 -0.370633006
v 0.720052004 32.0475807 0.0355949998
v 1.12805498 31.197094 -0.0660249963
v 0.843132973 31.4606686 0.439426988
v 0.273041993 31.7648621 -0.026628999
v -0.0792850032 31.1031551 -0.424308002
v 0.0751940012 31.0657196 0.434213966
v 0.105601996 28.9955521 -0.023554001
v 3.3394351 34.3818626 -4.27009583
v 3.48991084 34.1613388 -4.22124386
v 1.20674491 33.4374657 -1.64675987
v 3.65273786 34.308033 -4.06082296
v 0.891354978 33.8198738 -1.70148301
v 0.306946993 32.5690117 -0.804669023
v 3.50196791 34.5266113 -4.1104331
v 1.45062101 33.7274857 -1.29920304
v 1.12002993 34.0906487 -1.37619996
v -0.173152 32.9963264 -0.800392985
v 0.519051969 32.8810272 -0.250719994
v 0.0267479979 33.2657433 -0.30567199
v 0.293168992 32.5923042 0.0247909985
v -0.155864 30.4716473 -0.457111984
v -0.0982820019 33.3070297 -0.102910005
v -0.404026985 32.6313057 -0.312712997
v -2.98596001 34.9614334 -6.59796047
v -2.81362796 35.1155663 -6.52233696
v -2.69633079 34.4011421 -4.55977821
v -2.98235488 35.2787514 -6.46472216
v -2.93102813 34.1671829 -4.5767746
v -3.15904498 35.1267891 -6.53971481
v -2.92892003 34.6188202 -4.470191
v -1.67105496 34.0612679 -2.77229786
v -3.16229391 34.3861618 -4.48709583
v -1.96029794 33.7330818 -2.71382284
v -1.93415689 34.3031921 -2.51038504
v -2.22045994 33.9730721 -2.45453906
v -1.28403592 33.1724129 -1.70068097
v -0.900569975 33.5139694 -1.69804895
v -1.54354 33.4029236 -1.32391202
v -1.16103792 33.7465286 -1.318905
v -0.174754009 32.4744797 -0.913609982
v -0.654548049 32.1522903 -0.990083992
v -0.476720989 32.7406425 -0.493459016
v -0.0759669989 32.1274681 -0.332307994
v -0.671671987 30.0072422 -0.537012994
v -0.43373999 32.8315926 -0.316276997
v -0.869208992 32.1474648 -0.179634988
v -0.950298011 32.4200897 -0.571476996
v -7.64443398 32.7875214 -1.75426996
v -7.61023664 32.6395721 -1.93540692
v -5.42424297 32.128685 -1.01181602
v -7.52952814 32.8206558 -2.07211494
v -5.4919219 32.3461914 -0.755101025
v -7.56538868 32.9713402 -1.88460684
v -5.24745941 32.3810387 -1.19308496
v -3.84800673 31.6555481 -0.679280996
v -5.32558441 32.5935097 -0.919768989
v -3.81165981 31.8894615 -0.346441001
v -1.59445798 30.2192917 -0.408799022
v -3.68876481 31.9720154 -0.937542021
v -3.66399884 32.1910362 -0.566236973
v -1.4521029 30.4916325 0.0409019999
v -1.24611795 30.5661316 -0.757658958
v -1.134709 30.8170376 -0.234444007
v -0.946119964 30.2231045 0.258985996
v -0.981599987 30.9307156 -0.213908002
v -1.05167198 28.0732346 -0.219144002
v -0.688282967 30.231102 -0.54666096
v -6.53437901 32.9780121 3.87333298
v -6.5566411 33.1716347 3.71369886
v -4.23260307 32.7790337 2.86768293
v -6.46846771 33.3263397 3.88721704
v -4.18834972 32.4812012 3.09432387
v -6.44388914 33.136837 4.05138493
v -4.03938675 32.9811935 3.09199476
v -3.99112082 32.7091599 3.31229496
v -3.72968197 32.2996712 2.662817
v -3.82234001 32.632618 2.44479084
v -1.46608591 30.3882561 0.601128995
v -3.4266777 32.5203133 2.81822205
v -3.52891994 32.8198357 2.60653996
v -0.970035017 30.7177315 0.788436949
v -1.45280397 30.8049774 0.117715992
v -1.00823593 31.0410385 0.356492996
v -1.03221393 30.4804688 -0.180779994
v -0.799966931 31.1476231 0.248209
v -0.994439006 28.3030071 0.319934011
v -0.565316021 30.4437447 0.567587972
v -0.554812014 33.4791794 7.50920439
v -0.759163976 33.3233795 7.45876503
v -0.281554997 33.4702415 5.23165417
v -0.918581963 33.5276947 7.47023582
v 0.0304609984 33.6968613 5.25173807
v -0.717661977 33.6840248 7.52031898
v -0.497844011 33.7723274 5.121665
v -0.185042992 33.9932671 5.14310741
v -0.749003947 33.2295341 3.40943503
v -0.463281989 32.8530846 3.49785995
v -0.0756279975 33.1041527 3.34941888
v -0.367724985 33.4789429 3.26256585
v -0.901047945 31.9522457 0.92574203
v -0.495343 31.5332546 1.19124496
v -0.393973976 32.2663918 0.690297961
v 0.0169859994 31.8462296 0.956358016
v 0.0773570016 31.5937538 0.492421001
v -0.361314982 32.2896957 0.589711964
v -0.600690961 29.5054588 0.618774951
v -0.71171695 31.6405125 0.267818987
v 4.73552895 33.977932 5.6509366
v 4.62855196 33.7901573 5.76262522
v 2.60155606 33.581749 4.02494478
v 4.49260807 33.9443398 5.8913312
v 2.75459886 33.8611298 3.81958389
v 4.5991621 34.1283569 5.78018618
v 2.47144389 34.0708008 3.96823907
v 2.3248589 33.7874222 4.16995907
v 2.12209105 33.083065 2.83546901
v 1.72685492 33.2868652 2.88246393
v 0.956280947 32.1432724 1.2910049
v 2.33891892 33.4060593 2.59979081
v 1.92983198 33.6215363 2.6462419
v 1.11177695 32.4598618 0.825713992
v 0.62903595 32.5253067 1.59579802
v 0.780465007 32.8704147 1.11899996
v -0.35809198 31.966013 0.579649985
v 0.151982993 32.6381874 0.573044002
v -0.0619789958 29.8525047 0.47587198
v 0.288562983 31.9716454 0.023089001
v -1.82366192 0.0541680008 -1.45432293
v -2.42802 -0.779999018 -1.93628204
v -2.64376712 -0.779999018 -1.60266793
v -2.02688909 -0.779999018 -2.09292889
v -1.98620689 0.0541680008 -1.2040509
v -2.31644297 -0.779999971 -1.02542102
v -1.527964 0.0541680008 -1.57774794
v -1.61056793 -0.779999018 -2.15801501
v -1.33597195 0.888336003 -1.06540191
v -1.22000802 0.0541680008 -1.63469887
v -1.09467006 -0.779999018 -1.9436959
v -1.12470293 0.888336003 -1.16134799
v -0.840148985 0.0541680008 -1.49176896
v -0.827149928 -0.779999018 -2.04307914
v -0.903641939 0.888336003 -1.21079803
v -0.635410964 0.0541680008 -1.56947899
v -0.281233013 -0.779999018 -2.18118882
v -0.632674992 0.888336003 -1.12337792
v -1.76174295 0.0541680008 -0.779871941
v -1.45552599 0.888336003 -0.882349014
v -0.995661974 1.72250307 -0.794013977
v -0.843650937 1.72250307 -0.87113899
v -0.683515966 1.72250307 -0.915847957
v -2.0747478 0.0541680008 -0.615773976
v -2.74964499 -0.779999971 -0.816079974
v -2.85281396 -0.779999971 -0.461221009
v -2.15162587 0.0541680008 -0.347858012
v -1.94395483 -0.779999971 -0.0623390004
v -1.52902997 0.888336003 -0.45380798
v -1.3115809 0.888336003 -0.580597997
v -1.08524799 1.72250307 -0.657884002
v -0.787012994 2.55666995 -0.627622008
v -0.67307198 2.55666995 -0.695000947
v -1.50859892 0.0541680008 -0.0483779982
v -1.58476305 0.888336003 -0.256211996
v -1.14881098 1.72250199 -0.340960979
v -0.99879998 1.72250199 -0.442139
v -0.858380973 2.55666995 -0.520354986
v -0.652229965 3.39083695 -0.520134985
v -1.69631302 0.0541680008 0.163640991
v -2.20936584 -0.779999971 0.213134989
v -2.23103499 0.0541680008 0.509218991
v -2.96701598 -0.779999971 0.677200973
v -2.760396 -0.779999971 1.01584995
v -2.07975006 0.0541680008 0.765366971
v -2.10514402 -0.779999971 1.09825206
v -1.6082629 0.0541680008 0.839029968
v -1.61980498 -0.779999971 1.47106504
v -1.52974892 0.88833499 0.562961996
v -1.63683498 0.88833499 0.373596996
v -1.2780149 0.88833499 0.123289004
v -1.1516459 0.88833499 -0.0369310006
v -1.18975198 1.72250199 -0.19235
v -0.918654025 2.55666995 -0.272650987
v -0.813836932 2.55666995 -0.360260993
v -0.712096989 3.39083695 -0.431677014
v -1.14635491 1.72250199 0.42186901
v -1.22235799 1.72250199 0.278995007
v -0.988386989 1.72250199 0.0953489915
v -0.905538023 1.72250199 -0.0290389992
v -0.950334966 2.55666995 -0.153641999
v -0.77511704 3.39083695 -0.230049983
v -0.706176996 3.39083695 -0.312602997
v -0.660740972 4.21999884 -0.150809005
v -0.529873013 4.21999884 -0.422558993
v -0.800486982 3.39083695 -0.129415989
v -0.769737005 2.55666995 -0.0246839989
v -0.822283983 2.55666995 0.079324998
v -0.708217978 3.39083695 -0.0227109995
v -0.734906971 3.39083695 0.0708959997
v -0.660740972 4.21999884 0.150810003
v -0.969026029 2.55666995 0.221173987
v -0.806747973 3.39083695 0.18413499
v -0.913293958 2.55666995 0.336100996
v -0.766220987 3.39083695 0.281976998
v -0.923824012 1.72250199 0.481958985
v -0.760383964 2.55666995 0.396692008
v -0.669449985 3.39083695 0.349252015
v -1.20415092 0.88833499 0.628205001
v -1.24502397 0.0541680008 1.13069797
v -0.939289987 0.88833499 0.853039026
v -1.27378702 0.0541680008 1.49626291
v -1.67721403 -0.779999971 1.97015107
v -0.727689981 1.72250199 0.660869002
v -0.94660598 0.88833499 1.11193705
v -1.180709 0.0541680008 1.81388497
v -1.56478691 -0.779999971 2.403934
v -1.24373293 -0.779999971 2.58263779
v -0.87014395 0.88833499 1.3367759
v -0.938492954 0.0541680008 1.94880092
v -0.80786103 -0.779999971 2.43315005
v -0.719159961 1.72250199 0.844766974
v -0.653765023 1.72250199 1.00435793
v -0.61391598 0.0541680008 1.84901989
v -0.400373995 -0.779999971 2.05583596
v -0.691673934 0.88833499 1.43627596
v -0.584079981 2.55666995 0.686093986
v -0.522782981 2.55666995 0.803134978
v -0.519710004 1.72250199 1.07918894
v -0.45658198 0.88833499 1.37515306
v -0.308799982 0.0541680008 1.58562493
v -0.606790006 2.55666995 0.551072001
v -0.544034958 3.39083695 0.494078994
v -0.504408002 3.39083695 0.592507005
v -0.529873013 4.21999884 0.422560006
v -0.441094011 3.39083695 0.677639008
v -0.294057012 4.21999884 0.610616982
v -0.516493976 6.09907436 0.398496002
v -0.415624976 2.55666995 0.863054931
v -0.350731015 3.39083695 0.728302002
v -0.347230971 1.72250199 1.045807
v -0.282407999 2.55666995 0.85056901
v -0.233963996 0.88833499 1.20135903
v -0.641453028 6.09830379 0.139020994
v -0.244389981 3.39083695 0.736065984
v -0.182240009 1.72250199 0.935763001
v -0.15304099 2.55666995 0.785833955
v -0.13854599 3.39083695 0.711404026
v 0 4.21999884 0.677733958
v -0.0563889965 2.55666995 0.878307998
v -0.0689979941 1.72250199 1.07469702
v -0.0491429977 3.39083695 0.765440941
v 0.0500029996 3.39083695 0.778843999
v 0.0580089986 2.55666995 0.903532982
v -0.0904059932 0.88833499 1.40815794
v 0.144224003 3.39083695 0.740559995
v 0.071514003 1.72250199 1.11389506
v -0.121232994 0.0541680008 1.888309
v -0.159195006 -0.779999971 2.47959089
v 0.0942179933 0.88833499 1.46751904
v 0.126871005 0.0541680008 1.97611094
v 0.167143002 -0.779999971 2.60338283
v 0.163727999 2.55666995 0.840709984
v 0.198847011 1.72250199 1.02103698
v 0.345998973 0.0541680008 1.77663493
v 0.452820987 -0.779999971 2.32514191
v 0.259113997 0.88833499 1.33049798
v 0.826793969 0.0541680008 1.71685386
v 1.08624697 -0.779999971 2.255615
v 1.15943098 -0.779999971 1.78119791
v 0.616155982 0.88833499 1.27946091
v 0.893201947 0.0541680008 1.37219799
v 1.45826995 -0.779999971 1.32436204
v 0.46984297 1.72250199 0.975639045
v 0.383534014 2.55666995 0.796418011
v 1.13045192 0.0541680008 1.0266459
v 1.43185997 -0.779999971 0.99880302
v 0.675766945 0.88833499 1.03815901
v 0.52541101 1.72250199 0.807173014
v 0.333680987 3.39083695 0.692897022
v 0.861829996 0.88833499 0.782690942
v 1.12209702 0.0541680008 0.78272599
v 0.440182984 2.55666995 0.676239967
v 0.294057012 4.21999884 0.610616982
v 0.676540971 1.72250199 0.614416003
v 0.397209018 3.39083695 0.610219955
v 0.529873013 4.21999884 0.422560006
v 0.573873997 2.55666995 0.521178007
v 0.866709948 0.88833499 0.604578972
v 1.46966791 0.0541680008 0.76672399
v 1.90973687 -0.779999971 0.996307969
v 0.526547015 3.39083695 0.478195995
v 0.691358984 1.72250199 0.482261986
v 1.11044896 0.88833499 0.579320967
v 1.79182005 0.0541680008 0.659405947
v 2.35444307 -0.779999971 0.866455972
v 0.598357975 2.55666995 0.417388976
v 0.861948967 1.72250199 0.449678987
v 1.33508599 0.88833499 0.491324008
v 2.05313206 0.0541680008 0.468613982
v 2.71619201 -0.779999971 0.619952977
v 2.45031404 -0.779999971 0.236377999
v 1.516559 0.88833499 0.346144974
v 1.86720991 0.0541680008 0.18012698
v 2.31480694 -0.779999971 -0.0742319971
v 1.01781189 1.72250199 0.374564022
v 0.720566034 2.55666995 0.375918984
v 1.14293599 1.72250199 0.260867983
v 1.39355493 0.88833499 0.134434
v 1.77163184 0.0541680008 -0.0568130016
v 0.830572963 2.55666995 0.305658996
v 0.917914927 2.55666995 0.209508985
v 1.06468093 1.72250199 0.102708995
v 0.722270966 3.39083695 0.265802979
v 0.648293972 3.39083695 0.338214993
v 0.563475966 3.39083695 0.393056989
v 0.660740972 4.21999884 0.150810003
v 0.779592931 3.39083695 0.177936986
v 0.871381998 2.55666995 0.0840610042
v 1.32947803 0.88833499 -0.0426339991
v 0.495391995 6.09793282 0.398504972
v 0.760992944 3.39083695 0.0734119937
v 1.02296603 1.72250199 -0.0328040011
v 0.845305026 2.55666995 -0.0271070004
v 0.270226985 6.09886217 0.578063965
v 0.748367965 3.39083695 -0.0239979997
v 0.660740972 4.21999884 -0.150809005
v 0.799887002 3.39083695 -0.129318997
v 0.62034899 6.09679842 0.139034003
v 0.949205995 2.55666995 -0.153459996
v 1.18799794 1.72250199 -0.192065999
v 0.80991894 3.39083695 -0.240379006
v 0.984157026 2.55666995 -0.292091995
v 1.58210599 0.888336003 -0.255782992
v 0.746271968 3.39083695 -0.330351979
v 1.25059795 1.72250199 -0.371170998
v 2.14769602 0.0541680008 -0.347223014
v 2.84727287 -0.779999971 -0.460325986
v 1.68317497 0.888336003 -0.499557972
v 2.30274701 0.0541680008 -0.68344295
v 3.07109976 -0.779999971 -0.911486924
v 2.68678975 -0.779999018 -1.189363
v 2.02441883 0.0541680008 -0.896150947
v 2.10942984 -0.779999018 -1.27874899
v 1.48917091 0.888336003 -0.659211993
v 1.60721803 0.0541680008 -0.974304914
v 1.428334 -0.779999971 -1.13905895
v 1.11606789 1.72250307 -0.494049966
v 1.19929898 0.888336003 -0.727021992
v 1.11461604 0.0541680008 -0.888877034
v 0.889302969 2.55666995 -0.393667966
v 0.916053951 1.72250307 -0.555316985
v 0.749498963 2.55666995 -0.454349995
v 0.856600046 0.888336003 -0.683115959
v 1.36166 0.0541680008 -1.82450104
v 1.8102839 -0.779999018 -2.42561603
v 0.999409974 0.888336003 -1.33911896
v 1.13251495 0.0541680008 -2.01089597
v 1.50687695 -0.779999018 -2.67561388
v 1.10226893 -0.779999018 -2.72262788
v 0.679117978 1.72250307 -0.541579008
v 0.65424794 3.39083695 -0.396608979
v 0.746753991 1.72250307 -1.00058293
v 0.830543935 0.0541680008 -2.05146194
v 0.295262992 -0.779999018 -2.29000497
v 0.830337942 0.888336003 -1.47434902
v 0.583307981 2.55666995 -0.465171993
v 0.226028994 0.0541680008 -1.75304198
v -9.99999997E-07 -0.779999018 -2.52643394
v 0.59246099 2.55666995 -0.793842971
v 0.619522989 1.72250307 -1.10002601
v 0.61096698 0.888336003 -1.50910199
v 0 0.0541680008 -1.92179894
v 0.169666007 0.888336003 -1.31589484
v 0.457908988 1.72250307 -1.13104403
v 0.490490973 2.55666995 -0.870915949
v 0.493856013 3.39083695 -0.661720932
v -0.216077983 0.0541680008 -1.67586195
v 0 0.888336003 -1.43106997
v 0.130595997 1.72250307 -1.01287901
v 0.364887983 2.55666995 -0.901278973
v -0.479041994 0.888336003 -1.18324304
v 0.54400003 3.39083695 -0.433824986
v 0.529873013 4.21999884 -0.422558993
v 0.294057012 4.21999884 -0.610615969
v 0.495388985 6.09484291 -0.40843299
v 0.40752399 3.39083695 -0.72359997
v 0.306223989 3.39083695 -0.756379008
v 0.107966989 2.55666995 -0.837373972
v 0.620346963 6.09569073 -0.148958996
v 0.633289993 7.9674058 -0.156530991
v 0.0956509933 3.39083695 -0.741849959
v 0 1.72250307 -1.09012496
v 0.633287966 7.96970987 0.131405994
v 0.508356988 7.9728632 0.390819013
v 0 2.55666995 -0.888619959
v 0.657074928 9.8473568 0.109562993
v 0 4.21999884 -0.677731991
v 0 3.39083695 -0.771535039
v -0.0941319987 3.39083695 -0.730068982
v -0.105108 2.55666995 -0.815201044
v -0.294057995 4.21999884 -0.610615969
v -0.276438981 3.39083695 -0.682808995
v -0.010555 6.0945878 -0.652083933
v 0.270221978 6.09444094 -0.587995946
v -0.126154006 1.72250307 -0.978422999
v -0.308826983 2.55666995 -0.762807965
v -0.162937999 0.888336003 -1.26371491
v -0.370793968 1.72250307 -0.915868938
v -0.362896979 3.39083695 -0.644359946
v -0.488999993 1.72250307 -0.868267953
v -0.406495988 2.55666995 -0.721773982
v -0.551764965 2.55666995 -0.73931396
v -0.472233981 3.39083695 -0.632748961
v -0.565898001 3.39083695 -0.584335983
v -0.51649797 6.09581757 -0.408441991
v -0.29133299 6.09492111 -0.588000953
v -0.278182 7.97142267 -0.595539987
v -0.641454995 6.09698296 -0.148971006
v -0.503300011 7.97464418 -0.41602999
v 0.00253899978 7.96937799 -0.659599006
v -0.628229976 7.97791862 -0.156617999
v -0.254459977 9.84712505 -0.617304981
v 0.283250004 7.96712589 -0.595503986
v -0.479565978 9.85036564 -0.43778196
v 0.0262659993 9.84618282 -0.681392968
v 0.508363008 7.96645784 -0.415961981
v -0.249164 11.7209444 -0.634902954
v 0.306979984 9.84370804 -0.617312968
v 0.657053947 9.84457207 -0.178367987
v 0.532105982 9.84321308 -0.437785983
v 0.312271982 11.7249689 -0.634957016
v 0.662341952 11.729248 -0.196026996
v 0.0315409973 11.7248373 -0.699024975
v 0.537401021 11.7266827 -0.455439985
v 0.0206179991 13.6089954 -0.727744937
v -0.259934992 13.5965328 -0.663684964
v 0.301331997 13.6138363 -0.663627982
v 0.662349999 11.7318678 0.0919060037
v 0.532163024 9.85089302 0.368977994
v 0.28323999 7.97620487 0.570327997
v 0.65121001 13.6214294 -0.224584997
v 0.526381969 13.6184931 -0.484052986
v 0.429086983 15.4965582 -0.45994398
v 0.203954995 15.4923849 -0.639424026
v 0.651104927 13.6216125 0.0633850023
v -0.0767839998 15.4884367 -0.703447044
v 0.554053962 15.4992476 -0.200547993
v 0.526099026 13.6186714 0.322822005
v 0.554123998 15.4992771 0.087391004
v 0.537422955 11.7338057 0.351332009
v 0.30705899 9.85440922 0.548497975
v 0.392987996 17.3523521 -0.471459001
v 0.517963946 17.3522453 -0.212074995
v 0.518041968 17.3545284 0.075830996
v 0.16787 17.3557014 -0.650972962
v 0.300951988 13.6129932 0.502344012
v 0.312304974 11.7345552 0.53087002
v 0.0263479985 9.85727978 0.612566948
v 0.429295987 15.4961443 0.346846014
v 0.393198013 17.3580856 0.335245013
v 0.204291984 15.4901972 0.526432991
v 0.0202549994 13.6059017 0.566391945
v 0.0025249999 7.97910881 0.634379983
v 0.0315839984 11.7340918 0.594958007
v -0.0105499988 6.0994091 0.642144978
v -0.291327983 6.09947824 0.578058004
v -0.27818799 7.98105192 0.570288002
v -0.503301024 7.98172092 0.390745014
v -0.254372001 9.85905838 0.548493981
v -0.249141008 11.7327242 0.530901968
v -0.260407001 13.5991354 0.50228101
v -0.485457987 13.5944862 0.322708994
v -0.628224969 7.98108196 0.131310999
v -0.479497969 9.85955334 0.368966997
v -0.474270999 11.7310095 0.351384997
v -0.0763249993 15.4828863 0.59057796
v -0.604475975 9.85417461 -0.178369001
v -0.604440987 9.85888863 0.109540991
v -0.47428 11.7212057 -0.455360979
v -0.599217951 11.729681 0.091959998
v -0.599208951 11.7236338 -0.195939004
v -0.48506698 13.5900917 -0.484160006
v -0.610091031 13.5879269 -0.224719003
v -0.357174993 15.4734125 -0.639283955
v -0.582180977 15.4663486 -0.459692001
v -0.610341966 13.593482 0.0632390007
v -0.393569976 17.3558941 -0.650847971
v -0.707025945 15.4643221 -0.200214997
v -0.70719099 15.4720631 0.0876979977
v -0.743565977 17.3632164 -0.211769
v -0.112813994 17.3628407 -0.71509099
v -0.618794978 17.3581009 -0.471258998
v 0.244232997 19.2364616 -0.707745969
v -0.666678965 19.2561817 -0.268134981
v -0.542303026 19.2515125 -0.527925968
v -0.316899985 19.2474747 -0.707624972
v -0.74346298 17.37603 0.0759749934
v -0.0361009985 19.2522945 -0.771812975
v -0.477190018 21.1187153 -0.449579984
v -0.251049995 21.1225891 -0.62915796
v 0.469112992 19.2246647 -0.52828896
v 0.594013989 19.2176704 -0.268936008
v 0.534875989 21.1184464 -0.449616015
v 0.309801012 21.1272888 -0.628872991
v 0.594177008 19.2157001 0.018987
v 0.0292499997 21.1385174 -0.693011999
v 0.660050929 21.111742 -0.190620005
v 0.46953097 19.2182732 0.278457999
v 0.660550952 21.107048 0.0969299972
v 0.465709001 23.9543934 -0.491063982
v 0.590954006 23.964426 -0.23334299
v 0.241195992 23.9436512 -0.669629931
v 0.592254996 23.9697838 0.0529429987
v -0.315465987 23.898119 -0.671244979
v -0.0387730002 23.9370232 -0.734283984
v -0.544478953 23.8833618 -0.491629958
v -0.508174002 25.7881927 -0.739754021
v 0.264779001 25.86269 -0.554916978
v 0.390558988 25.8658657 -0.299423993
v 0.0413229987 25.8534126 -0.731811941
v 0.393792987 25.8599682 -0.0152639998
v -0.0230139997 28.6523037 -0.341379017
v -0.236611992 25.8431263 -0.796141922
v 0.106629997 28.6410465 -0.0975129977
v -0.244480982 28.6634121 -0.506081998
v 0.273584992 25.8444614 0.240949988
v 0.117201991 28.6289616 0.178001985
v 0.469285995 23.9679394 0.311073989
v 0.536235988 21.1042213 0.356073976
v 0.311455995 21.103281 0.53558296
v 0.245500997 23.9586639 0.490206987
v 0.24465099 19.2244205 0.458124012
v 0.0308609996 21.1049576 0.599745989
v 0.168125004 17.3618469 0.514804006
v -0.0358629972 19.2333832 0.52234596
v -0.112582996 17.3654308 0.578924
v -0.35699001 15.4761486 0.526575029
v -0.582132995 15.4719696 0.34709999
v -0.393316001 17.3687973 0.514898956
v -0.61847198 17.3721504 0.335404992
v -0.316403002 19.2442513 0.458410978
v -0.541388988 19.2560387 0.279001981
v -0.249887004 21.1100063 0.53587395
v -0.666269958 19.2679882 0.0196449999
v -0.0342869982 23.9443455 0.554203987
v -0.475223005 21.1188622 0.356684983
v -0.600887001 21.1188374 -0.189475
v -0.600654006 21.1317692 0.0976659954
v -0.665223956 23.8868961 -0.229669988
v -0.314377993 23.9293041 0.490369976
v 0.0519629978 25.8218842 0.418802977
v -0.539505959 23.9185047 0.31151697
v -0.66573602 23.9168053 0.0529909991
v -0.85690999 25.7493076 -0.295507997
v -0.226014987 25.7971916 0.481628001
v 0.00512700016 28.6165104 0.428516001
v -0.504476964 25.7770462 0.417014003
v -0.728472948 25.7677383 0.238334998
v -0.211186007 28.6062851 0.603702009
v -0.485150963 28.6003323 0.664680004
v -0.758898973 28.601881 0.59928596
v -0.40100497 30.4762478 0.608528972
v -0.136474997 30.459734 0.553040981
v 0.0705650002 30.4519596 0.383562982
v -0.854820013 25.7743435 -0.0187999997
v 0.171443999 30.4553051 0.141763002
v 0.150815994 30.4681168 -0.120418996
v 0.0162879992 30.4895916 -0.345245004
v -0.0143429991 31.3814354 0.53678298
v 0.184550002 31.3755932 0.370701998
v 0.275712997 31.3838406 0.134941995
v 0.245407999 31.4032154 -0.116217002
v -0.270778 31.3993187 0.589194953
v -0.200275004 30.5183144 -0.487737983
v 0.104819 31.4312515 -0.323634982
v 0.292970002 32.3511276 -0.0152620003
v 0.335996002 32.3256378 0.220501006
v -0.514294982 28.6764374 -0.561549008
v -0.776059985 28.6282787 -0.534475982
v -0.521557987 31.4271355 0.516689956
v -0.176970005 32.3228645 0.652963042
v 0.0683569983 32.3091621 0.607067943
v 0.256790012 32.3100853 0.447462976
v -0.662238002 30.4998894 0.538568974
v -0.976987958 28.6134491 0.422508985
v -0.863729 30.5287418 0.361437976
v -1.09772098 28.6368446 0.171203002
v 0.342449993 33.2751236 0.313964993
v -1.12598503 28.6039257 -0.0755459964
v -0.708977938 31.461813 0.340115011
v -0.966020942 30.5617542 0.117660999
v -1.04884195 30.5182953 -0.0770109966
v -0.412456989 32.3499413 0.574582994
v -0.123937994 33.2550087 0.717160046
v 0.105396003 33.2469826 0.680719972
v 0.279237986 33.2546539 0.529877007
v -0.794965982 31.5010204 0.103510998
v -0.578294992 32.3870163 0.396860987
v -0.33702898 33.2790375 0.62954098
v -0.0936729982 34.1629333 0.745334983
v 0.112726003 34.1617966 0.722984016
v 0.266718 34.1741333 0.584292948
v -0.927612007 31.4543972 -0.0477569997
v 0.115481995 35.0852547 0.779889941
v -0.638162971 32.4307137 0.169597
v -0.470615983 33.3159218 0.448694974
v -0.273640007 34.1771126 0.642807961
v -0.844290972 32.3730125 0.0802839994
v -0.0774130002 35.1289139 0.761998951
v 0.309484005 34.1952286 0.382235974
v 0.335615993 35.0740814 0.699410975
v 0.297448993 35.8763924 1.2233429
v 0.281553984 33.3024635 0.0987040028
v 0.143732995 32.3822441 -0.198311001
v -0.109637 31.4649754 -0.443982005
v -0.452951998 30.5533237 -0.523657978
v -0.697641969 30.5134048 -0.557177961
v 0.224689007 34.2170296 0.193992004
v 0.119424999 33.3312035 -0.050356999
v -0.0684809983 32.415062 -0.28696999
v -0.348811984 31.5024967 -0.457957
v -0.577564001 31.4579678 -0.547643006
v 0.427184969 35.1413651 0.478175014
v -0.991542935 30.4997063 -0.387517989
v -0.898855925 31.4380798 -0.382552981
v -1.033831 28.6009369 -0.358510017
v -0.742045939 25.7564793 -0.561388969
v -0.852568924 32.3606377 -0.287993997
v -0.493750989 32.3957787 -0.444118977
v -0.86332494 33.2667122 -0.18364799
v -0.288932979 32.4479904 -0.268525004
v -0.805015028 33.2798576 0.231890991
v -0.454704016 33.3227348 -0.327108979
v -0.0904159993 33.3574905 -0.0930049941
v -0.490310997 33.3612823 0.233288988
v -0.315669 34.2200089 0.252507001
v -0.358434975 34.1989136 0.454564005
v -0.689625025 34.1606674 0.418282986
v -0.686340034 35.3295517 0.185074002
v -0.961470008 34.1212654 0.109421998
v -0.277940005 35.1913261 0.698964953
v 0.0447209962 34.2312088 0.0914649963
v -0.369513005 35.2865143 0.496124983
v 0.134214997 35.9629745 1.24275696
v 0.036688 36.1038208 1.14540803
v -1.02983499 35.1581535 0.338303
v 0.332724005 35.23666 0.276481003
v 0.529760003 36.2963905 1.59550703
v -1.33149004 35.0395546 0.0389840007
v -1.31406903 35.7112083 0.431345999
v -0.755522966 34.1562614 -0.247240007
v 0.141935989 35.3057442 0.191191003
v 0.598640978 35.9818039 0.863368988
v -0.161676988 34.2323456 0.113816001
v 0.583545983 35.8635445 1.01952004
v 0.452672005 35.8357201 1.15395498
v -0.283966005 33.3811493 -0.0255029984
v -0.35639599 34.217289 -0.158809006
v 0.863160968 36.2212639 1.32291305
v 0.652817965 36.210125 1.53913689
v 1.79278088 36.911541 2.42981243
v 0.769212008 36.1794128 1.44735992
v 0.872712016 36.3495827 1.21649003
v 0.494691998 36.1164742 0.778503001
v 0.452219993 36.4443283 1.56029487
v 0.462074012 36.5779457 1.44956601
v 0.0536659993 36.2232819 0.986348987
v 0.563422978 36.6140556 1.32214999
v 0.795337975 36.4896469 1.18706489
v 0.680431962 36.5809479 1.23157692
v 0.342777997 36.2047272 0.787187994
v 0.191626996 36.2431068 0.856248975
v -0.0623159967 35.3476257 0.183595002
v -0.291403979 35.3595772 0.266502976
v -0.722039998 35.3444595 -0.243696988
v -1.12347996 35.1661873 -0.364161968
v -1.17634904 36.0234566 -0.0666739941
v -1.57082593 35.5712738 0.175448
v -1.09044099 35.9664268 0.297095984
v -1.47864389 35.7831764 -0.165667981
v -1.55730999 35.9399452 0.515582979
v -1.52803206 36.2608795 0.0567729995
v -1.73784304 35.7512093 0.270209014
v -1.43488491 36.2358017 0.393684
v -1.720209 35.9643631 -0.040231999
v -2.30726194 36.4020844 0.257165998
v -2.2634151 36.1330414 0.658281982
v -2.33242893 36.1082726 0.171336994
v -2.26481795 36.4160004 0.557071984
v -3.06550694 36.3226814 0.532737017
v -2.30435991 35.9305649 0.429877996
v -3.04661179 36.0922966 0.616697013
v -3.04368401 36.3220177 0.283822
v -3.01131988 35.9302483 0.42394501
v -3.77133131 36.0864258 0.326383621
v -3.00906301 36.0774994 0.206217989
vt 0 0
vt 0 0
vt 0 0
vt 0 0
vt 0 0
vt 0 0
vt 0 0
vt 0 0
vt 0 0
vt 0 0
vt 0 0
vt 0 0
vt 0 0
vt 0 0
vt 0 0
vt 0 0
vt 0 0
vt 0 0
vt 0 0
vt 0 0
vt 0 0
vt 0 0
vt 0 0
vt 0 0
vt 0 0
vt 0 0
vt 0 0
vt 0 0
vt 0 0
vt 0 0
vt 0 0
vt 0 0
vt 0 0
vt 0 0
vt 0 0
vt 0 0
vt 0 0
vt 0 0
vt 0 0
vt 0 0
vt 0 0
vt 0 0
vt 0 0
vt 0 0
vt 0 0
vt 0 0
vt 0 0
vt 0 0
vt 0 0
vt 0 0
vt 0 0
vt 0 0
vt 0 0
vt 0 0
vt 0 0
vt 0 0
vt 0 0
vt 0 0
vt 0 0
vt 0 0
vt 0 0
vt 0 0
vt 0 0
vt 0 0
vt 0 0
vt 0 0
vt 0 0
vt 0 0
vt 0 0
vt 0 0
vt 0 0
vt 0 0
vt 0 0
vt 0 0
vt 0 0
vt 0 0
vt 0 0
vt 0 0
vt 0 0
vt 0 0
vt 0 0
vt 0 0
vt 0 0
vt 0 0
vt 0 0
vt 0 0
vt 0 0
vt 0 0
vt 0 0
vt 0 0
vt 0 0
vt 0 0
vt 0 0
vt 0 0
vt 0 0
vt 0 0
vt 0 0
vt 0 0
vt 0 0
vt 0 0
vt 0 0
vt 0 0
vt 0 0
vt 0 0
vt 0 0
vt 0 0
vt 0 0
vt 0 0
vt 0 0
vt 0 0
vt 0 0
vt 0 0
vt 0 0
vt 0 0
vt 0 0
vt 0 0
vt 0 0
vt 0 0
vt 0 0
vt 0 0
vt 0 0
vt 0 0
vt 0 0
vt 0 0
vt 0 0
vt 0 0
vt 0 0
vt 0 0
vt 0 0
vt 0 0
vt 0 0
vt 0 0
vt 0 0
vt 0 0
vt 0 0
vt 0 0
vt 0 0
vt 0 0
vt 0 0
vt 0 0
vt 0 0
vt 0 0
vt 0 0
vt 0 0
vt 0 0
vt 0 0
vt 0 0
vt 0 0
vt 0 0
vt 0 0
vt 0 0
vt 0 0
vt 0 0
vt 0 0
vt 0 0
vt 0 0
vt 0 0
vt 0 0
vt 0 0
vt 0 0
vt 0 0
vt 0 0
vt 0 0
vt 0 0
vt 0 0
vt 0 0
vt 0 0
vt 0 0
vt 0 0
vt 0 0
vt 0 0
vt 0 0
vt 0 0
vt 0 0
vt 0 0
vt 0 0
vt 0 0
vt 0 0
vt 0 0
vt 0 0
vt 0 0
vt 0 0
vt 0 0
vt 0 0
vt 0 0
vt 0 0
vt 0 0
vt 0 0
vt 0 0
vt 0 0
vt 0 0
vt 0 0
vt 0 0
vt 0 0
vt 0 0
vt 0 0
vt 0 0
vt 0 0
vt 0 0
vt 0 0
vt 0 0
vt 0 0
vt 0 0
vt 0 0
vt 0 0
vt 0 0
vt 0 0
vt 0 0
vt 0 0
vt 0 0
vt 0 0
vt 0 0
vt 0 0
vt 0 0
vt 0 0
vt 0 0
vt 0 0
vt 0 0
vt 0 0
vt 0 0
vt 0 0
vt 0 0
vt 0 0
vt 0 0
vt 0 0
vt 0 0
vt 0 0
vt 0 0
vt 0 0
vt 0 0
vt 0 0
vt 0 0
vt 0 0
vt 0 0
vt 0 0
vt 0 0
vt 0 0
vt 0 0
vt 0 0
vt 0 0
vt 0 0
vt 0 0
vt 0 0
vt 0 0
vt 0 0
vt 0 0
vt 0 0
vt 0 0
vt 0 0
vt 0 0
vt 0 0
vt 0 0
vt 0 0
vt 0 0
vt 0 0
vt 0 0
vt 0 0
vt 0 0
vt 0 0
vt 0 0
vt 0 0
vt 0 0
vt 0 0
vt 0 0
vt 0 0
vt 0 0
vt 0 0
vt 0 0
vt 0 0
vt 0 0
vt 0 0
vt 0 0
vt 0 0
vt 0 0
vt 0 0
vt 0 0
vt 0 0
vt 0 0
vt 0 0
vt 0 0
vt 0 0
vt 0 0
vt 0 0
vt 0 0
vt 0 0
vt 0 0
vt 0 0
vt 0 0
vt 0 0
vt 0 0
vt 0 0
vt 0 0
vt 0 0
vt 0 0
vt 0 0
vt 0 0
vt 0 0
vt 0 0
vt 0 0
vt 0 0
vt 0 0
vt 0 0
vt 0 0
vt 0 0
vt 0 0
vt 0 0
vt 0 0
vt 0 0
vt 0 0
vt 0 0
vt 0 0
vt 0 0
vt 0 0
vt 0 0
vt 0 0
vt 0 0
vt 0 0
vt 0 0
vt 0 0
vt 0 0
vt 0 0
vt 0 0
vt 0 0
vt 0 0
vt 0 0
vt 0 0
vt 0 0
vt 0 0
vt 0 0
vt 0 0
vt 0 0
vt 0 0
vt 0 0
vt 0 0
vt 0 0
vt 0 0
vt 0 0
vt 0 0
vt 0 0
vt 0 0
vt 0 0
vt 0 0
vt 0 0
vt 0 0
vt 0 0
vt 0 0
vt 0 0
vt 0 0
vt 0 0
vt 0 0
vt 0 0
vt 0 0
vt 0 0
vt 0 0
vt 0 0
vt 0 0
vt 0 0
vt 0 0
vt 0 0
vt 0 0
vt 0 0
vt 0 0
vt 0 0
vt 0 0
vt 0 0
vt 0 0
vt 0 0
vt 0 0
vt 0 0
vt 0 0
vt 0 0
vt 0 0
vt 0 0
vt 0 0
vt 0 0
vt 0 0
vt 0 0
vt 0 0
vt 0 0
vt 0 0
vt 0 0
vt 0 0
vt 0 0
vt 0 0
vt 0 0
vt 0 0
vt 0 0
vt 0 0
vt 0 0
vt 0 0
vt 0 0
vt 0 0
vt 0 0
vt 0 0
vt 0 0
vt 0 0
vt 0 0
vt 0 0
vt 0 0
vt 0 0
vt 0 0
vt 0 0
vt 0 0
vt 0 0
vt 0 0
vt 0 0
vt 0 0
vt 0 0
vt 0 0
vt 0 0
vt 0 0
vt 0 0
vt 0 0
vt 0 0
vt 0 0
vt 0 0
vt 0 0
vt 0 0
vt 0 0
vt 0 0
vt 0 0
vt 0 0
vt 0 0
vt 0 0
vt 0 0
vt 0 0
vt 0 0
vt 0 0
vt 0 0
vt 0 0
vt 0 0
vt 0 0
vt 0 0
vt 0 0
vt 0 0
vt 0 0
vt 0 0
vt 0 0
vt 0 0
vt 0 0
vt 0 0
vt 0 0
vt 0 0
vt 0 0
vt 0 0
vt 0 0
vt 0 0
vt 0 0
vt 0 0
vt 0 0
vt 0 0
vt 0 0
vt 0 0
vt 0 0
vt 0 0
vt 0 0
vt 0 0
vt 0 0
vt 0 0
vt 0 0
vt 0 0
vt 0 0
vt 0 0
vt 0 0
vt 0 0
vt 0 0
vt 0 0
vt 0 0
vt 0 0
vt 0 0
vt 0 0
vt 0 0
vt 0 0
vt 0 0
vt 0 0
vt 0 0
vt 0 0
vt 0 0
vt 0 0
vt 0 0
vt 0 0
vt 0 0
vt 0 0
vt 0 0
vt 0 0
vt 0 0
vt 0 0
vt 0 0
vt 0 0
vt 0 0
vt 0 0
vt 0 0
vt 0 0
vt 0 0
vt 0 0
vt 0 0
vt 0 0
vt 0 0
vt 0 0
vt 0 0
vt 0 0
vt 0 0
vt 0 0
vt 0 0
vt 0 0
vt 0 0
vt 0 0
vt 0 0
vt 0 0
vt 0 0
vt 0 0
vt 0 0
vt 0 0
vt 0 0
vt 0 0
vt 0 0
vt 0 0
vt 0 0
vt 0 0
vt 0 0
vt 0 0
vt 0 0
vt 0 0
vt 0 0
vt 0 0
vt 0 0
vt 0 0
vt 0 0
vt 0 0
vt 0 0
vt 0 0
vt 0 0
vt 0 0
vt 0 0
vt 0 0
vt 0 0
vt 0 0
vt 0 0
vt 0 0
vt 0 0
vt 0 0
vt 0 0
vt 0 0
vt 0 0
vt 0 0
vt 0 0
vt 0 0
vt 0 0
vt 0 0
vt 0 0
vt 0 0
vt 0 0
vt 0 0
vt 0 0
vt 0 0
vt 0 0
vt 0 0
vt 0 0
vt 0 0
vt 0 0
vt 0 0
vt 0 0
vt 0 0
vt 0 0
vt 0 0
vt 0 0
vt 0 0
vt 0 0
vt 0 0
vt 0 0
vt 0 0
vt 0 0
vt 0 0
vt 0 0
vt 0 0
vt 0 0
vt 0 0
vt 0 0
vt 0 0
vt 0 0
vt 0 0
vt 0 0
vt 0 0
vt 0 0
vt 0 0
vt 0 0
vt 0 0
vt 0 0
vt 0 0
vt 0 0
vt 0 0
vt 0 0
vt 0 0
vt 0 0
vt 0 0
vt 0 0
vt 0 0
vt 0 0
vt 0 0
vt 0 0
vt 0 0
vt 0 0
vt 0 0
vt 0 0
vt 0 0
vt 0 0
vt 0 0
vt 0 0
vt 0 0
vt 0 0
vt 0 0
vt 0 0
vt 0 0
vt 0 0
vt 0 0
vt 0 0
vt 0 0
vt 0 0
vt 0 0
vt 0 0
vt 0 0
vt 0 0
vt 0 0
vt 0 0
vt 0 0
vt 0 0
vt 0 0
vt 0 0
vt 0 0
vt 0 0
vt 0 0
vt 0 0
vt 0 0
vt 0 0
vt 0 0
vt 0 0
vt 0 0
vt 0 0
vt 0 0
vt 0 0
vt 0 0
vt 0 0
vt 0 0
vt 0 0
vt 0 0
vt 0 0
vt 0 0
vt 0 0
vt 0 0
vt 0 0
vt 0 0
vt 0 0
vt 0 0
vt 0 0
vt 0 0
vt 0 0
vt 0 0
vt 0 0
vt 0 0
vt 0 0
vt 0 0
vt 0 0
vt 0 0
vt 0 0
vt 0 0
vt 0 0
vt 0 0
vt 0 0
vt 0 0
vt 0 0
vt 0 0
vt 0 0
vt 0 0
vt 0 0
vt 0 0
vt 0 0
vt 0 0
vt 0 0
vt 0 0
vt 0 0
vt 0 0
vt 0 0
vt 0 0
vt 0 0
vt 0 0
vt 0 0
vt 0 0
vt 0 0
vt 0 0
vt 0 0
vt 0 0
vt 0 0
vt 0 0
vt 0 0
vt 0 0
vt 0 0
vt 0 0
vt 0 0
vt 0 0
vt 0 0
vt 0 0
vt 0 0
vt 0 0
g submesh0
f 1/1 2/2 3/3
f 2/2 4/4 3/3
f 3/3 5/5 1/1
f 6/6 1/1 5/5
f 7/7 4/4 6/6
f 4/4 7/7 3/3
f 5/5 8/8 6/6
f 6/6 8/8 7/7
f 5/5 3/3 9/9
f 8/8 5/5 9/9
f 7/7 8/8 10/10
f 9/9 10/10 8/8
f 11/11 3/3 7/7
f 3/3 11/11 9/9
f 10/10 12/12 7/7
f 12/12 11/11 7/7
f 9/9 13/13 10/10
f 12/12 10/10 13/13
f 14/14 13/13 9/9
f 9/9 11/11 14/14
f 13/13 15/15 12/12
f 11/11 12/12 15/15
f 14/14 11/11 16/16
f 15/15 16/16 11/11
f 17/17 18/18 19/19
f 18/18 20/20 19/19
f 19/19 21/21 17/17
f 21/21 19/19 22/22
f 23/23 17/17 21/21
f 24/24 19/19 20/20
f 20/20 23/23 24/24
f 19/19 24/24 22/22
f 21/21 25/25 23/23
f 23/23 25/25 24/24
f 22/22 26/26 21/21
f 25/25 21/21 26/26
f 27/27 24/24 25/25
f 22/22 24/24 27/27
f 26/26 28/28 25/25
f 28/28 27/27 25/25
f 22/22 27/27 29/29
f 29/29 27/27 28/28
f 29/29 30/30 22/22
f 29/29 28/28 31/31
f 32/32 22/22 30/30
f 22/22 32/32 26/26
f 32/32 31/31 28/28
f 28/28 26/26 32/32
f 33/33 34/34 35/35
f 34/34 36/36 35/35
f 35/35 37/37 33/33
f 38/38 33/33 37/37
f 39/39 35/35 36/36
f 39/39 36/36 38/38
f 37/37 35/35 40/40
f 35/35 39/39 40/40
f 37/37 41/41 38/38
f 41/41 39/39 38/38
f 40/40 42/42 37/37
f 41/41 37/37 42/42
f 43/43 39/39 41/41
f 43/43 40/40 39/39
f 42/42 44/44 41/41
f 44/44 43/43 41/41
f 45/45 42/42 40/40
f 44/44 42/42 45/45
f 40/40 43/43 46/46
f 40/40 46/46 45/45
f 43/43 44/44 47/47
f 45/45 47/47 44/44
f 48/48 46/46 43/43
f 47/47 48/48 43/43
f 45/45 46/46 49/49
f 46/46 48/48 49/49
f 47/47 45/45 50/50
f 49/49 50/50 45/45
f 49/49 48/48 51/51
f 51/51 48/48 47/47
f 50/50 49/49 52/52
f 49/49 51/51 52/52
f 52/52 53/53 50/50
f 52/52 51/51 54/54
f 55/55 50/50 53/53
f 50/50 56/56 47/47
f 47/47 56/56 51/51
f 54/54 51/51 56/56
f 55/55 56/56 50/50
f 55/55 54/54 56/56
f 57/57 58/58 59/59
f 58/58 60/60 59/59
f 59/59 61/61 57/57
f 62/62 57/57 61/61
f 63/63 59/59 60/60
f 60/60 62/62 63/63
f 61/61 59/59 64/64
f 59/59 63/63 64/64
f 62/62 65/65 63/63
f 61/61 65/65 62/62
f 64/64 66/66 61/61
f 65/65 61/61 66/66
f 66/66 64/64 67/67
f 68/68 64/64 63/63
f 68/68 63/63 65/65
f 64/64 68/68 67/67
f 66/66 69/69 65/65
f 65/65 69/69 68/68
f 67/67 70/70 66/66
f 69/69 66/66 70/70
f 71/71 68/68 69/69
f 68/68 71/71 67/67
f 70/70 72/72 69/69
f 69/69 72/72 71/71
f 72/72 70/70 73/73
f 67/67 73/73 70/70
f 73/73 74/74 72/72
f 71/71 72/72 74/74
f 73/73 67/67 75/75
f 74/74 76/76 71/71
f 67/67 71/71 76/76
f 76/76 75/75 67/67
f 77/77 78/78 79/79
f 79/79 78/78 80/80
f 79/79 81/81 77/77
f 82/82 77/77 81/81
f 80/80 82/82 83/83
f 83/83 79/79 80/80
f 81/81 84/84 82/82
f 84/84 83/83 82/82
f 85/85 81/81 79/79
f 84/84 81/81 85/85
f 86/86 79/79 83/83
f 79/79 86/86 85/85
f 87/87 85/85 86/86
f 85/85 88/88 84/84
f 83/83 84/84 88/88
f 88/88 85/85 87/87
f 89/89 86/86 83/83
f 88/88 89/89 83/83
f 87/87 90/90 88/88
f 89/89 88/88 90/90
f 86/86 89/89 91/91
f 86/86 91/91 87/87
f 92/92 91/91 89/89
f 90/90 92/92 89/89
f 93/93 91/91 92/92
f 87/87 91/91 93/93
f 93/93 92/92 94/94
f 90/90 94/94 92/92
f 93/93 95/95 87/87
f 94/94 90/90 96/96
f 95/95 96/96 87/87
f 96/96 90/90 87/87
f 97/97 98/98 99/99
f 98/98 100/100 99/99
f 99/99 101/101 97/97
f 102/102 97/97 101/101
f 100/100 102/102 103/103
f 99/99 100/100 103/103
f 104/104 103/103 102/102
f 101/101 104/104 102/102
f 99/99 103/103 105/105
f 103/103 104/104 105/105
f 101/101 99/99 106/106
f 105/105 106/106 99/99
f 104/104 101/101 107/107
f 106/106 107/107 101/101
f 104/104 108/108 105/105
f 107/107 108/108 104/104
f 106/106 105/105 109/109
f 105/105 108/108 109/109
f 107/107 106/106 110/110
f 109/109 110/110 106/106
f 108/108 107/107 111/111
f 108/108 111/111 109/109
f 110/110 112/112 107/107
f 112/112 111/111 107/107
f 111/111 112/112 113/113
f 112/112 110/110 113/113
f 113/113 114/114 111/111
f 109/109 111/111 114/114
f 115/115 113/113 110/110
f 114/114 116/116 109/109
f 116/116 115/115 110/110
f 110/110 109/109 116/116
f 117/117 118/118 119/119
f 119/119 118/118 120/120
f 119/119 121/121 117/117
f 122/122 117/117 121/121
f 120/120 122/122 123/123
f 121/121 123/123 122/122
f 124/124 119/119 120/120
f 123/123 124/124 120/120
f 121/121 119/119 125/125
f 119/119 124/124 125/125
f 126/126 124/124 123/123
f 126/126 125/125 124/124
f 125/125 126/126 127/127
f 125/125 128/128 121/121
f 123/123 121/121 128/128
f 128/128 125/125 127/127
f 123/123 129/129 126/126
f 128/128 129/129 123/123
f 127/127 130/130 128/128
f 129/129 128/128 130/130
f 131/131 126/126 129/129
f 131/131 127/127 126/126
f 129/129 132/132 131/131
f 130/130 132/132 129/129
f 133/133 131/131 132/132
f 127/127 131/131 133/133
f 132/132 134/134 133/133
f 134/134 132/132 130/130
f 133/133 135/135 127/127
f 130/130 136/136 134/134
f 135/135 136/136 127/127
f 136/136 130/130 127/127
f 137/137 138/138 139/139
f 140/140 138/138 137/137
f 139/139 141/141 137/137
f 139/139 142/142 141/141
f 137/137 143/143 140/140
f 144/144 140/140 143/143
f 137/137 141/141 145/145
f 143/143 137/137 145/145
f 143/143 146/146 144/144
f 147/147 144/144 146/146
f 145/145 148/148 143/143
f 146/146 143/143 148/148
f 146/146 149/149 147/147
f 150/150 147/147 149/149
f 148/148 151/151 146/146
f 149/149 146/146 151/151
f 149/149 152/152 150/150
f 153/153 150/150 152/152
f 151/151 154/154 149/149
f 152/152 149/149 154/154
f 155/155 141/141 142/142
f 156/156 145/145 141/141
f 141/141 155/155 156/156
f 148/148 145/145 157/157
f 145/145 156/156 157/157
f 151/151 148/148 158/158
f 157/157 158/158 148/148
f 154/154 151/151 159/159
f 158/158 159/159 151/151
f 160/160 155/155 142/142
f 142/142 161/161 160/160
f 161/161 162/162 160/160
f 163/163 160/160 162/162
f 164/164 163/163 162/162
f 155/155 160/160 165/165
f 160/160 163/163 165/165
f 166/166 156/156 155/155
f 165/165 166/166 155/155
f 167/167 157/157 156/156
f 156/156 166/166 167/167
f 158/158 157/157 168/168
f 157/157 167/167 168/168
f 159/159 158/158 169/169
f 168/168 169/169 158/158
f 170/170 163/163 164/164
f 171/171 165/165 163/163
f 170/170 171/171 163/163
f 166/166 165/165 172/172
f 165/165 171/171 172/172
f 173/173 167/167 166/166
f 172/172 173/173 166/166
f 174/174 168/168 167/167
f 167/167 173/173 174/174
f 169/169 168/168 175/175
f 168/168 174/174 175/175
f 176/176 170/170 164/164
f 164/164 177/177 176/176
f 178/178 176/176 177/177
f 177/177 179/179 178/178
f 180/180 178/178 179/179
f 181/181 178/178 180/180
f 180/180 182/182 181/181
f 183/183 181/181 182/182
f 182/182 184/184 183/183
f 178/178 181/181 185/185
f 181/181 183/183 185/185
f 176/176 178/178 186/186
f 185/185 186/186 178/178
f 170/170 176/176 187/187
f 186/186 187/187 176/176
f 187/187 188/188 170/170
f 188/188 171/171 170/170
f 188/188 189/189 171/171
f 189/189 172/172 171/171
f 172/172 189/189 190/190
f 173/173 172/172 190/190
f 190/190 191/191 173/173
f 191/191 174/174 173/173
f 174/174 191/191 192/192
f 192/192 175/175 174/174
f 186/186 185/185 193/193
f 187/187 186/186 194/194
f 193/193 194/194 186/186
f 188/188 187/187 195/195
f 194/194 195/195 187/187
f 196/196 189/189 188/188
f 195/195 196/196 188/188
f 197/197 190/190 189/189
f 196/196 197/197 189/189
f 191/191 190/190 198/198
f 190/190 197/197 198/198
f 199/199 192/192 191/191
f 198/198 199/199 191/191
f 199/199 198/198 200/200
f 200/200 201/201 199/199
f 192/192 199/199 201/201
f 198/198 202/202 200/200
f 202/202 198/198 197/197
f 175/175 192/192 201/201
f 203/203 197/197 196/196
f 203/203 202/202 197/197
f 196/196 195/195 204/204
f 204/204 203/203 196/196
f 205/205 202/202 203/203
f 202/202 205/205 200/200
f 206/206 205/205 203/203
f 203/203 204/204 206/206
f 205/205 206/206 200/200
f 207/207 200/200 206/206
f 208/208 204/204 195/195
f 195/195 194/194 208/208
f 209/209 206/206 204/204
f 206/206 209/209 207/207
f 204/204 208/208 209/209
f 210/210 208/208 194/194
f 194/194 193/193 210/210
f 211/211 209/209 208/208
f 209/209 211/211 207/207
f 208/208 210/210 211/211
f 193/193 212/212 210/210
f 210/210 213/213 211/211
f 213/213 210/210 212/212
f 211/211 214/214 207/207
f 214/214 211/211 213/213
f 212/212 193/193 215/215
f 185/185 215/215 193/193
f 215/215 185/185 183/183
f 183/183 216/216 215/215
f 216/216 183/183 184/184
f 215/215 217/217 212/212
f 217/217 215/215 216/216
f 218/218 216/216 184/184
f 184/184 219/219 218/218
f 220/220 213/213 212/212
f 220/220 212/212 217/217
f 221/221 217/217 216/216
f 216/216 218/218 221/221
f 222/222 218/218 219/219
f 219/219 223/223 222/222
f 223/223 224/224 222/222
f 218/218 222/222 225/225
f 225/225 221/221 218/218
f 226/226 222/222 224/224
f 222/222 226/226 225/225
f 227/227 226/226 224/224
f 217/217 221/221 228/228
f 228/228 220/220 217/217
f 221/221 225/225 229/229
f 229/229 228/228 221/221
f 230/230 226/226 227/227
f 231/231 230/230 227/227
f 232/232 225/225 226/226
f 225/225 232/232 229/229
f 230/230 232/232 226/226
f 220/220 228/228 233/233
f 228/228 229/229 234/234
f 234/234 233/233 228/228
f 235/235 229/229 232/232
f 229/229 235/235 234/234
f 236/236 232/232 230/230
f 236/236 235/235 232/232
f 237/237 230/230 231/231
f 237/237 236/236 230/230
f 233/233 238/238 220/220
f 238/238 213/213 220/220
f 213/213 238/238 239/239
f 239/239 214/214 213/213
f 238/238 233/233 240/240
f 240/240 239/239 238/238
f 214/214 239/239 241/241
f 239/239 240/240 241/241
f 241/241 207/207 214/214
f 242/242 240/240 233/233
f 240/240 242/242 241/241
f 233/233 234/234 242/242
f 243/243 241/241 242/242
f 244/244 241/241 243/243
f 207/207 241/241 244/244
f 245/245 242/242 234/234
f 245/245 234/234 235/235
f 242/242 246/246 243/243
f 246/246 242/242 245/245
f 247/247 245/245 235/235
f 247/247 235/235 236/236
f 248/248 246/246 245/245
f 248/248 245/245 247/247
f 249/249 247/247 236/236
f 249/249 236/236 237/237
f 244/244 250/250 207/207
f 200/200 207/207 250/250
f 246/246 251/251 243/243
f 251/251 246/246 248/248
f 252/252 248/248 247/247
f 252/252 247/247 249/249
f 253/253 251/251 248/248
f 253/253 248/248 252/252
f 254/254 251/251 253/253
f 251/251 254/254 243/243
f 255/255 243/243 254/254
f 256/256 253/253 252/252
f 254/254 253/253 256/256
f 257/257 252/252 249/249
f 252/252 257/257 256/256
f 254/254 258/258 255/255
f 258/258 254/254 256/256
f 259/259 258/258 256/256
f 258/258 259/259 255/255
f 256/256 260/260 259/259
f 260/260 256/256 257/257
f 249/249 261/261 257/257
f 261/261 249/249 237/237
f 259/259 262/262 255/255
f 262/262 259/259 260/260
f 257/257 263/263 260/260
f 263/263 257/257 261/261
f 237/237 264/264 261/261
f 264/264 237/237 231/231
f 231/231 265/265 264/264
f 266/266 261/261 264/264
f 261/261 266/266 263/263
f 267/267 264/264 265/265
f 264/264 267/267 266/266
f 265/265 268/268 267/267
f 269/269 260/260 263/263
f 260/260 269/269 262/262
f 270/270 263/263 266/266
f 263/263 270/270 269/269
f 271/271 267/267 268/268
f 268/268 272/272 271/271
f 273/273 266/266 267/267
f 266/266 273/273 270/270
f 267/267 271/271 273/273
f 274/274 271/271 272/272
f 272/272 275/275 274/274
f 274/274 275/275 276/276
f 277/277 273/273 271/271
f 271/271 274/274 277/277
f 278/278 274/274 276/276
f 277/277 274/274 278/278
f 278/278 276/276 279/279
f 280/280 270/270 273/273
f 273/273 277/277 280/280
f 281/281 269/269 270/270
f 270/270 280/280 281/281
f 279/279 282/282 278/278
f 282/282 279/279 283/283
f 284/284 277/277 278/278
f 280/280 277/277 284/284
f 284/284 278/278 282/282
f 285/285 280/280 284/284
f 281/281 280/280 285/285
f 269/269 281/281 286/286
f 286/286 262/262 269/269
f 282/282 287/287 284/284
f 285/285 284/284 287/287
f 283/283 288/288 282/282
f 287/287 282/282 288/288
f 289/289 281/281 285/285
f 286/286 281/281 289/289
f 262/262 286/286 290/290
f 290/290 255/255 262/262
f 287/287 291/291 285/285
f 289/289 285/285 291/291
f 289/289 292/292 286/286
f 286/286 292/292 290/290
f 293/293 290/290 292/292
f 292/292 289/289 294/294
f 291/291 294/294 289/289
f 291/291 287/287 295/295
f 295/295 287/287 288/288
f 296/296 288/288 283/283
f 283/283 297/297 296/296
f 292/292 298/298 293/293
f 294/294 298/298 292/292
f 294/294 291/291 299/299
f 295/295 299/299 291/291
f 300/300 295/295 288/288
f 288/288 296/296 300/300
f 301/301 296/296 297/297
f 297/297 302/302 301/301
f 298/298 294/294 303/303
f 299/299 303/303 294/294
f 304/304 299/299 295/295
f 295/295 300/300 304/304
f 305/305 300/300 296/296
f 296/296 301/301 305/305
f 306/306 301/301 302/302
f 302/302 307/307 306/306
f 306/306 307/307 308/308
f 301/301 306/306 309/309
f 309/309 305/305 301/301
f 308/308 310/310 306/306
f 309/309 306/306 310/310
f 310/310 308/308 311/311
f 300/300 305/305 312/312
f 312/312 304/304 300/300
f 299/299 304/304 313/313
f 313/313 303/303 299/299
f 305/305 309/309 314/314
f 314/314 312/312 305/305
f 310/310 315/315 309/309
f 314/314 309/309 315/315
f 311/311 316/316 310/310
f 315/315 310/310 316/316
f 304/304 312/312 317/317
f 317/317 313/313 304/304
f 312/312 314/314 318/318
f 318/318 317/317 312/312
f 315/315 319/319 314/314
f 318/318 314/314 319/319
f 313/313 317/317 320/320
f 320/320 317/317 318/318
f 303/303 313/313 321/321
f 320/320 321/321 313/313
f 321/321 322/322 303/303
f 303/303 322/322 298/298
f 298/298 322/322 293/293
f 322/322 321/321 293/293
f 321/321 320/320 293/293
f 323/323 293/293 320/320
f 318/318 324/324 320/320
f 320/320 324/324 323/323
f 324/324 318/318 325/325
f 319/319 325/325 318/318
f 319/319 315/315 326/326
f 316/316 326/326 315/315
f 327/327 293/293 323/323
f 290/290 293/293 327/327
f 325/325 328/328 324/324
f 324/324 328/328 323/323
f 325/325 319/319 329/329
f 326/326 329/329 319/319
f 328/328 325/325 330/330
f 329/329 330/330 325/325
f 327/327 331/331 290/290
f 255/255 290/290 331/331
f 328/328 332/332 323/323
f 330/330 332/332 328/328
f 333/333 323/323 332/332
f 332/332 334/334 333/333
f 334/334 332/332 330/330
f 335/335 323/323 333/333
f 323/323 335/335 327/327
f 336/336 330/330 329/329
f 330/330 336/336 334/334
f 337/337 329/329 326/326
f 329/329 337/337 336/336
f 338/338 334/334 336/336
f 334/334 338/338 333/333
f 336/336 339/339 338/338
f 339/339 336/336 337/337
f 326/326 340/340 337/337
f 340/340 326/326 316/316
f 338/338 341/341 333/333
f 341/341 338/338 339/339
f 342/342 337/337 340/340
f 337/337 342/342 339/339
f 316/316 343/343 340/340
f 343/343 316/316 311/311
f 311/311 344/344 343/343
f 345/345 340/340 343/343
f 340/340 345/345 342/342
f 346/346 343/343 344/344
f 343/343 346/346 345/345
f 344/344 347/347 346/346
f 347/347 348/348 346/346
f 348/348 349/349 346/346
f 346/346 349/349 345/345
f 348/348 350/350 349/349
f 345/345 351/351 342/342
f 349/349 351/351 345/345
f 350/350 352/352 349/349
f 349/349 352/352 351/351
f 350/350 353/353 352/352
f 342/342 354/354 339/339
f 351/351 354/354 342/342
f 352/352 355/355 351/351
f 351/351 355/355 354/354
f 353/353 356/356 352/352
f 352/352 356/356 355/355
f 354/354 357/357 339/339
f 339/339 357/357 341/341
f 355/355 358/358 354/354
f 354/354 358/358 357/357
f 357/357 359/359 341/341
f 358/358 359/359 357/357
f 355/355 360/360 358/358
f 356/356 360/360 355/355
f 361/361 356/356 353/353
f 353/353 362/362 361/361
f 356/356 361/361 363/363
f 363/363 360/360 356/356
f 364/364 361/361 362/362
f 361/361 364/364 363/363
f 362/362 365/365 364/364
f 365/365 366/366 364/364
f 360/360 367/367 358/358
f 358/358 367/367 359/359
f 359/359 368/368 341/341
f 341/341 368/368 333/333
f 360/360 363/363 369/369
f 369/369 367/367 360/360
f 366/366 370/370 364/364
f 366/366 371/371 370/370
f 364/364 372/372 363/363
f 363/363 372/372 369/369
f 364/364 370/370 372/372
f 367/367 373/373 359/359
f 359/359 373/373 368/368
f 371/371 374/374 370/370
f 371/371 375/375 374/374
f 367/367 369/369 376/376
f 376/376 373/373 367/367
f 372/372 377/377 369/369
f 369/369 377/377 376/376
f 370/370 378/378 372/372
f 370/370 374/374 378/378
f 372/372 378/378 377/377
f 375/375 379/379 374/374
f 375/375 153/153 379/379
f 374/374 380/380 378/378
f 380/380 374/374 379/379
f 378/378 381/381 377/377
f 378/378 380/380 381/381
f 377/377 382/382 376/376
f 377/377 381/381 382/382
f 373/373 376/376 383/383
f 376/376 382/382 383/383
f 384/384 379/379 153/153
f 152/152 384/384 153/153
f 379/379 385/385 380/380
f 379/379 384/384 385/385
f 380/380 386/386 381/381
f 380/380 385/385 386/386
f 381/381 387/387 382/382
f 381/381 386/386 387/387
f 384/384 152/152 388/388
f 154/154 388/388 152/152
f 383/383 389/389 373/373
f 373/373 389/389 368/368
f 368/368 389/389 390/390
f 389/389 383/383 390/390
f 391/391 390/390 383/383
f 390/390 391/391 392/392
f 390/390 333/333 368/368
f 333/333 390/390 392/392
f 382/382 393/393 383/383
f 382/382 387/387 393/393
f 383/383 393/393 391/391
f 387/387 394/394 393/393
f 393/393 394/394 391/391
f 387/387 395/395 394/394
f 386/386 395/395 387/387
f 392/392 396/396 333/333
f 333/333 396/396 335/335
f 335/335 396/396 397/397
f 397/397 396/396 392/392
f 394/394 398/398 391/391
f 395/395 398/398 394/394
f 395/395 386/386 399/399
f 385/385 399/399 386/386
f 397/397 400/400 335/335
f 327/327 335/335 400/400
f 400/400 401/401 327/327
f 331/331 327/327 401/401
f 395/395 402/402 398/398
f 399/399 402/402 395/395
f 403/403 400/400 397/397
f 401/401 400/400 403/403
f 404/404 391/391 398/398
f 402/402 405/405 398/398
f 398/398 405/405 404/404
f 406/406 405/405 402/402
f 405/405 406/406 404/404
f 407/407 402/402 399/399
f 402/402 407/407 406/406
f 406/406 408/408 404/404
f 408/408 406/406 409/409
f 409/409 406/406 407/407
f 404/404 408/408 410/410
f 391/391 404/404 411/411
f 404/404 410/410 411/411
f 391/391 411/411 392/392
f 399/399 412/412 407/407
f 412/412 399/399 385/385
f 407/407 413/413 409/409
f 413/413 407/407 412/412
f 385/385 414/414 412/412
f 414/414 385/385 384/384
f 388/388 414/414 384/384
f 415/415 412/412 414/414
f 414/414 388/388 415/415
f 412/412 415/415 413/413
f 416/416 409/409 413/413
f 409/409 416/416 408/408
f 417/417 415/415 388/388
f 388/388 154/154 417/417
f 159/159 417/417 154/154
f 418/418 413/413 415/415
f 413/413 418/418 416/416
f 415/415 417/417 418/418
f 417/417 159/159 419/419
f 419/419 418/418 417/417
f 169/169 419/419 159/159
f 420/420 416/416 418/418
f 418/418 419/419 420/420
f 416/416 420/420 408/408
f 419/419 169/169 421/421
f 421/421 420/420 419/419
f 420/420 421/421 408/408
f 175/175 421/421 169/169
f 421/421 175/175 201/201
f 201/201 408/408 421/421
f 408/408 201/201 422/422
f 201/201 200/200 422/422
f 422/422 423/423 408/408
f 408/408 423/423 410/410
f 410/410 423/423 424/424
f 423/423 422/422 424/424
f 425/425 422/422 200/200
f 250/250 425/425 200/200
f 422/422 425/425 426/426
f 422/422 426/426 424/424
f 424/424 427/427 410/410
f 411/411 410/410 427/427
f 425/425 250/250 428/428
f 428/428 426/426 425/425
f 424/424 426/426 429/429
f 427/427 424/424 429/429
f 427/427 430/430 411/411
f 392/392 411/411 430/430
f 426/426 428/428 431/431
f 426/426 431/431 429/429
f 429/429 432/432 427/427
f 430/430 427/427 432/432
f 430/430 433/433 392/392
f 392/392 433/433 397/397
f 429/429 431/431 434/434
f 432/432 429/429 434/434
f 432/432 435/435 430/430
f 433/433 430/430 435/435
f 436/436 397/397 433/433
f 397/397 436/436 403/403
f 435/435 437/437 433/433
f 433/433 437/437 436/436
f 435/435 432/432 438/438
f 437/437 435/435 438/438
f 439/439 436/436 437/437
f 403/403 436/436 439/439
f 434/434 440/440 432/432
f 432/432 440/440 438/438
f 438/438 441/441 437/437
f 437/437 441/441 439/439
f 438/438 440/440 442/442
f 440/440 434/434 443/443
f 443/443 442/442 440/440
f 441/441 438/438 444/444
f 442/442 444/444 438/438
f 439/439 445/445 403/403
f 446/446 403/403 445/445
f 403/403 446/446 401/401
f 447/447 401/401 446/446
f 401/401 447/447 331/331
f 448/448 439/439 441/441
f 444/444 449/449 441/441
f 441/441 449/449 448/448
f 450/450 449/449 444/444
f 448/448 449/449 450/450
f 451/451 444/444 442/442
f 444/444 451/451 450/450
f 439/439 448/448 452/452
f 452/452 445/445 439/439
f 442/442 453/453 451/451
f 453/453 442/442 443/443
f 450/450 454/454 448/448
f 452/452 448/448 454/454
f 445/445 452/452 455/455
f 454/454 456/456 452/452
f 455/455 452/452 456/456
f 455/455 457/457 445/445
f 445/445 457/457 446/446
f 458/458 446/446 457/457
f 446/446 458/458 447/447
f 459/459 450/450 451/451
f 460/460 454/454 450/450
f 450/450 459/459 460/460
f 461/461 456/456 454/454
f 454/454 460/460 461/461
f 451/451 462/462 459/459
f 462/462 451/451 453/453
f 455/455 463/463 457/457
f 457/457 464/464 458/458
f 463/463 464/464 457/457
f 458/458 465/465 447/447
f 465/465 458/458 464/464
f 456/456 466/466 455/455
f 463/463 455/455 466/466
f 467/467 466/466 456/456
f 456/456 461/461 467/467
f 466/466 468/468 463/463
f 468/468 466/466 467/467
f 463/463 469/469 464/464
f 469/469 463/463 468/468
f 465/465 470/470 447/447
f 447/447 470/470 331/331
f 464/464 471/471 465/465
f 469/469 471/471 464/464
f 470/470 472/472 331/331
f 331/331 472/472 255/255
f 243/243 255/255 472/472
f 472/472 473/473 243/243
f 473/473 244/244 243/243
f 470/470 474/474 472/472
f 474/474 473/473 472/472
f 475/475 244/244 473/473
f 474/474 475/475 473/473
f 250/250 244/244 475/475
f 465/465 476/476 470/470
f 476/476 474/474 470/470
f 471/471 477/477 465/465
f 477/477 476/476 465/465
f 469/469 478/478 471/471
f 478/478 477/477 471/471
f 478/478 479/479 477/477
f 475/475 480/480 250/250
f 480/480 428/428 250/250
f 481/481 475/475 474/474
f 476/476 481/481 474/474
f 480/480 475/475 481/481
f 477/477 482/482 476/476
f 482/482 481/481 476/476
f 479/479 482/482 477/477
f 478/478 469/469 483/483
f 468/468 483/483 469/469
f 428/428 480/480 484/484
f 484/484 431/431 428/428
f 481/481 485/485 480/480
f 485/485 481/481 482/482
f 485/485 484/484 480/480
f 431/431 484/484 486/486
f 431/431 486/486 434/434
f 482/482 487/487 485/485
f 487/487 482/482 479/479
f 484/484 485/485 488/488
f 488/488 486/486 484/484
f 487/487 488/488 485/485
f 434/434 486/486 489/489
f 489/489 443/443 434/434
f 486/486 488/488 490/490
f 488/488 487/487 490/490
f 490/490 489/489 486/486
f 491/491 443/443 489/489
f 443/443 491/491 453/453
f 489/489 492/492 491/491
f 489/489 490/490 492/492
f 493/493 490/490 487/487
f 479/479 493/493 487/487
f 453/453 491/491 494/494
f 494/494 491/491 492/492
f 490/490 493/493 495/495
f 495/495 492/492 490/490
f 496/496 495/495 493/493
f 493/493 479/479 496/496
f 492/492 495/495 497/497
f 495/495 496/496 497/497
f 494/494 498/498 453/453
f 453/453 498/498 462/462
f 497/497 499/499 492/492
f 492/492 499/499 494/494
f 462/462 498/498 500/500
f 459/459 462/462 500/500
f 499/499 497/497 501/501
f 494/494 499/499 502/502
f 501/501 502/502 499/499
f 498/498 494/494 503/503
f 502/502 503/503 494/494
f 504/504 497/497 496/496
f 497/497 504/504 501/501
f 498/498 505/505 500/500
f 503/503 505/505 498/498
f 503/503 502/502 506/506
f 502/502 501/501 506/506
f 505/505 503/503 507/507
f 506/506 507/507 503/503
f 500/500 508/508 459/459
f 459/459 508/508 509/509
f 509/509 460/460 459/459
f 508/508 500/500 510/510
f 509/509 508/508 510/510
f 500/500 505/505 511/511
f 500/500 511/511 510/510
f 460/460 509/509 512/512
f 512/512 461/461 460/460
f 507/507 513/513 505/505
f 505/505 513/513 511/511
f 510/510 514/514 509/509
f 512/512 509/509 514/514
f 461/461 512/512 515/515
f 515/515 467/467 461/461
f 514/514 516/516 512/512
f 515/515 512/512 516/516
f 510/510 511/511 517/517
f 518/518 514/514 510/510
f 510/510 517/517 518/518
f 511/511 513/513 519/519
f 511/511 519/519 517/517
f 520/520 516/516 514/514
f 514/514 518/518 520/520
f 513/513 507/507 521/521
f 513/513 522/522 519/519
f 521/521 522/522 513/513
f 523/523 521/521 507/507
f 507/507 506/506 523/523
f 522/522 521/521 524/524
f 524/524 521/521 523/523
f 525/525 517/517 519/519
f 526/526 518/518 517/517
f 517/517 525/525 526/526
f 519/519 522/522 527/527
f 519/519 527/527 525/525
f 528/528 520/520 518/518
f 518/518 526/526 528/528
f 526/526 525/525 529/529
f 529/529 525/525 527/527
f 522/522 530/530 527/527
f 524/524 530/530 522/522
f 528/528 526/526 531/531
f 529/529 531/531 526/526
f 532/532 527/527 530/530
f 527/527 532/532 529/529
f 520/520 528/528 533/533
f 531/531 534/534 528/528
f 533/533 528/528 534/534
f 533/533 535/535 520/520
f 516/516 520/520 535/535
f 535/535 536/536 516/516
f 516/516 536/536 515/515
f 537/537 536/536 535/535
f 536/536 537/537 515/515
f 538/538 535/535 533/533
f 535/535 538/538 537/537
f 515/515 537/537 539/539
f 515/515 539/539 467/467
f 540/540 537/537 538/538
f 537/537 540/540 539/539
f 467/467 539/539 541/541
f 467/467 541/541 468/468
f 483/483 468/468 541/541
f 539/539 542/542 541/541
f 540/540 542/542 539/539
f 541/541 543/543 483/483
f 541/541 542/542 543/543
f 544/544 483/483 543/543
f 483/483 544/544 478/478
f 479/479 478/478 544/544
f 544/544 545/545 479/479
f 545/545 496/496 479/479
f 543/543 546/546 544/544
f 545/545 544/544 546/546
f 496/496 545/545 547/547
f 546/546 547/547 545/545
f 547/547 504/504 496/496
f 542/542 548/548 543/543
f 543/543 548/548 546/546
f 546/546 549/549 547/547
f 504/504 547/547 549/549
f 548/548 549/549 546/546
f 550/550 548/548 542/542
f 549/549 548/548 550/550
f 540/540 550/550 542/542
f 549/549 551/551 504/504
f 551/551 501/501 504/504
f 550/550 540/540 552/552
f 538/538 552/552 540/540
f 550/550 553/553 549/549
f 551/551 549/549 553/553
f 501/501 551/551 554/554
f 554/554 506/506 501/501
f 555/555 554/554 551/551
f 553/553 555/555 551/551
f 506/506 554/554 556/556
f 554/554 555/555 556/556
f 556/556 523/523 506/506
f 553/553 550/550 557/557
f 552/552 557/557 550/550
f 552/552 538/538 558/558
f 533/533 558/558 538/538
f 555/555 553/553 559/559
f 557/557 559/559 553/553
f 560/560 556/556 555/555
f 559/559 560/560 555/555
f 523/523 556/556 561/561
f 556/556 560/560 561/561
f 557/557 552/552 562/562
f 558/558 562/562 552/552
f 558/558 533/533 563/563
f 534/534 563/563 533/533
f 559/559 557/557 564/564
f 562/562 564/564 557/557
f 560/560 559/559 565/565
f 564/564 565/565 559/559
f 562/562 558/558 566/566
f 563/563 566/566 558/558
f 564/564 562/562 567/567
f 566/566 567/567 562/562
f 567/567 568/568 564/564
f 565/565 564/564 568/568
f 566/566 569/569 567/567
f 568/568 567/567 569/569
f 563/563 570/570 566/566
f 570/570 569/569 566/566
f 571/571 563/563 534/534
f 571/571 570/570 563/563
f 565/565 572/572 560/560
f 572/572 561/561 560/560
f 534/534 573/573 571/571
f 573/573 534/534 531/531
f 531/531 574/574 573/573
f 574/574 531/531 529/529
f 529/529 575/575 574/574
f 529/529 532/532 575/575
f 571/571 576/576 570/570
f 577/577 571/571 573/573
f 577/577 576/576 571/571
f 578/578 573/573 574/574
f 573/573 578/578 577/577
f 579/579 574/574 575/575
f 574/574 579/579 578/578
f 576/576 580/580 570/570
f 570/570 580/580 569/569
f 532/532 581/581 575/575
f 575/575 582/582 579/579
f 575/575 581/581 582/582
f 578/578 579/579 583/583
f 583/583 579/579 582/582
f 577/577 578/578 584/584
f 583/583 584/584 578/578
f 532/532 585/585 581/581
f 530/530 585/585 532/532
f 586/586 585/585 530/530
f 530/530 524/524 586/586
f 580/580 587/587 569/569
f 587/587 580/580 588/588
f 576/576 588/588 580/580
f 577/577 589/589 576/576
f 589/589 588/588 576/576
f 584/584 590/590 577/577
f 590/590 589/589 577/577
f 569/569 587/587 591/591
f 569/569 591/591 568/568
f 592/592 568/568 591/591
f 568/568 592/592 565/565
f 591/591 593/593 592/592
f 593/593 591/591 587/587
f 592/592 594/594 565/565
f 594/594 592/592 593/593
f 572/572 565/565 594/594
f 590/590 584/584 595/595
f 595/595 584/584 583/583
f 594/594 596/596 572/572
f 561/561 572/572 596/596
f 587/587 597/597 593/593
f 593/593 598/598 594/594
f 598/598 593/593 597/597
f 596/596 594/594 599/599
f 598/598 599/599 594/594
f 597/597 587/587 600/600
f 588/588 600/600 587/587
f 600/600 588/588 601/601
f 601/601 588/588 589/589
f 602/602 601/601 589/589
f 602/602 589/589 590/590
f 603/603 602/602 590/590
f 595/595 603/603 590/590
f 597/597 604/604 598/598
f 600/600 605/605 597/597
f 604/604 597/597 605/605
f 601/601 606/606 600/600
f 605/605 600/600 606/606
f 607/607 601/601 602/602
f 606/606 601/601 607/607
f 608/608 602/602 603/603
f 608/608 607/607 602/602
f 609/609 608/608 603/603
f 609/609 603/603 595/595
f 604/604 610/610 598/598
f 599/599 598/598 610/610
f 607/607 608/608 611/611
f 611/611 608/608 609/609
f 605/605 612/612 604/604
f 606/606 613/613 605/605
f 612/612 605/605 613/613
f 607/607 614/614 606/606
f 613/613 606/606 614/614
f 604/604 615/615 610/610
f 612/612 615/615 604/604
f 611/611 616/616 607/607
f 614/614 607/607 616/616
f 595/595 617/617 609/609
f 609/609 618/618 611/611
f 618/618 609/609 617/617
f 616/616 611/611 619/619
f 618/618 619/619 611/611
f 617/617 595/595 620/620
f 583/583 620/620 595/595
f 620/620 583/583 621/621
f 582/582 621/621 583/583
f 582/582 622/622 621/621
f 581/581 622/622 582/582
f 581/581 623/623 622/622
f 585/585 623/623 581/581
f 624/624 623/623 585/585
f 585/585 586/586 624/624
f 620/620 625/625 617/617
f 621/621 626/626 620/620
f 620/620 626/626 625/625
f 622/622 627/627 621/621
f 621/621 627/627 626/626
f 623/623 628/628 622/622
f 622/622 628/628 627/627
f 623/623 624/624 629/629
f 629/629 628/628 623/623
f 630/630 617/617 625/625
f 617/617 630/630 618/618
f 631/631 624/624 586/586
f 632/632 629/629 624/624
f 624/624 631/631 632/632
f 586/586 633/633 631/631
f 633/633 586/586 524/524
f 524/524 634/634 633/633
f 523/523 634/634 524/524
f 561/561 634/634 523/523
f 634/634 561/561 633/633
f 596/596 633/633 561/561
f 633/633 596/596 631/631
f 599/599 631/631 596/596
f 631/631 599/599 632/632
f 610/610 632/632 599/599
f 632/632 610/610 635/635
f 629/629 632/632 635/635
f 615/615 635/635 610/610
f 635/635 636/636 629/629
f 628/628 629/629 636/636
f 635/635 615/615 637/637
f 636/636 635/635 637/637
f 636/636 638/638 628/628
f 628/628 638/638 627/627
f 639/639 637/637 615/615
f 639/639 615/615 612/612
f 637/637 640/640 636/636
f 638/638 636/636 640/640
f 627/627 638/638 641/641
f 627/627 641/641 626/626
f 642/642 639/639 612/612
f 613/613 642/642 612/612
f 643/643 642/642 613/613
f 644/644 643/643 613/613
f 643/643 645/645 642/642
f 639/639 642/642 645/645
f 645/645 643/643 646/646
f 614/614 644/644 613/613
f 637/637 639/639 647/647
f 645/645 647/647 639/639
f 648/648 644/644 614/614
f 616/616 648/648 614/614
f 626/626 641/641 649/649
f 626/626 649/649 625/625
f 643/643 644/644 650/650
f 644/644 648/648 650/650
f 648/648 616/616 651/651
f 619/619 651/651 616/616
f 651/651 652/652 648/648
f 650/650 648/648 652/652
f 647/647 645/645 653/653
f 646/646 653/653 645/645
f 654/654 625/625 649/649
f 625/625 654/654 630/630
f 651/651 619/619 655/655
f 652/652 651/651 655/655
f 653/653 656/656 647/647
f 657/657 653/653 646/646
f 656/656 653/653 657/657
f 658/658 647/647 656/656
f 647/647 658/658 637/637
f 640/640 637/637 658/658
f 649/649 659/659 654/654
f 630/630 654/654 660/660
f 654/654 659/659 660/660
f 659/659 649/649 661/661
f 641/641 661/661 649/649
f 660/660 662/662 630/630
f 618/618 630/630 662/662
f 662/662 663/663 618/618
f 663/663 619/619 618/618
f 641/641 664/664 661/661
f 638/638 664/664 641/641
f 640/640 664/664 638/638
f 664/664 640/640 665/665
f 658/658 665/665 640/640
f 662/662 660/660 666/666
f 663/663 662/662 666/666
f 619/619 663/663 667/667
f 667/667 655/655 619/619
f 667/667 668/668 655/655
f 669/669 668/668 667/667
f 666/666 668/668 669/669
f 669/669 667/667 663/663
f 666/666 669/669 663/663
f 670/670 666/666 660/660
f 670/670 668/668 666/666
f 660/660 671/671 670/670
f 671/671 660/660 659/659
f 665/665 643/643 664/664
f 664/664 643/643 661/661
f 655/655 668/668 672/672
f 655/655 672/672 652/652
f 652/652 672/672 673/673
f 673/673 672/672 668/668
f 673/673 674/674 652/652
f 652/652 674/674 650/650
f 674/674 673/673 675/675
f 675/675 673/673 668/668
f 676/676 668/668 670/670
f 676/676 670/670 671/671
f 676/676 677/677 668/668
f 677/677 676/676 671/671
f 677/677 675/675 668/668
f 671/671 678/678 677/677
f 675/675 677/677 678/678
f 678/678 671/671 659/659
f 675/675 679/679 674/674
f 674/674 679/679 650/650
f 678/678 679/679 675/675
f 659/659 680/680 678/678
f 679/679 678/678 680/680
f 661/661 680/680 659/659
f 681/681 650/650 679/679
f 680/680 681/681 679/679
f 661/661 681/681 680/680
f 650/650 681/681 643/643
f 681/681 661/661 643/643
f 646/646 643/643 665/665
f 665/665 682/682 646/646
f 682/682 665/665 658/658
f 658/658 683/683 682/682
f 656/656 683/683 658/658
f 646/646 682/682 684/684
f 684/684 682/682 683/683
f 683/683 656/656 685/685
f 657/657 685/685 656/656
f 646/646 686/686 657/657
f 684/684 686/686 646/646
f 683/683 687/687 684/684
f 685/685 687/687 683/683
f 685/685 657/657 688/688
f 688/688 657/657 686/686
f 686/686 684/684 689/689
f 689/689 684/684 687/687
f 687/687 685/685 690/690
f 688/688 690/690 685/685
f 686/686 691/691 688/688
f 689/689 691/691 686/686
f 689/689 687/687 692/692
f 690/690 692/692 687/687
f 692/692 693/693 689/689
f 691/691 689/689 693/693
f 688/688 691/691 694/694
f 690/690 688/688 694/694
f 692/692 690/690 695/695
f 695/695 693/693 692/692
f 696/696 694/694 691/691
f 693/693 696/696 691/691
f 697/697 696/696 693/693
f 694/694 696/696 697/697
f 694/694 698/698 690/690
f 698/698 695/695 690/690
f 698/698 694/694 699/699
f 697/697 699/699 694/694
f 693/693 700/700 697/697
f 693/693 695/695 700/700
f 699/699 701/701 698/698
f 695/695 698/698 701/701
f 697/697 702/702 699/699
f 702/702 697/697 700/700
f 699/699 702/702 701/701
f 701/701 703/703 695/695
f 703/703 700/700 695/695
f 701/701 702/702 703/703
f 703/703 702/702 700/700
