# ladder_LOD1
v 0.217013314 -1.34068263 -0.0244067758
v 0.133925289 -1.32061112 -0.00712685334
v 0.217509493 -1.32343078 -0.0071480223
v 0.133538738 -1.34442425 -0.030853888
v -0.139419407 -1.31618178 -0.00711283786
v 0.216520742 -1.35800874 -0.00714816572
v -0.140137658 -1.33999717 -0.0308398716
v 0.133146271 -1.3681494 -0.00712662982
v 0.217013359 -1.34068263 0.010110721
v -0.14084135 -1.3637085 -0.0071131424
v 0.133540258 -1.34442425 0.0166002773
v 0.217509493 -1.32343078 -0.0071480223
v -0.140136197 -1.33999741 0.0166139547
v 0.133925289 -1.32061112 -0.00712685334
v -0.139419407 -1.31618178 -0.00711283786
v -0.139419407 -1.31618178 -0.00711283786
v -0.222463131 -1.33213377 -0.0243504401
v -0.221963808 -1.3148855 -0.00709158741
v -0.140137658 -1.33999717 -0.0308398716
v -0.222970963 -1.34945953 -0.00709159253
v -0.14084135 -1.3637085 -0.0071131424
v -0.222463086 -1.33213377 0.0101669654
v -0.140136197 -1.33999741 0.0166139547
v -0.221963808 -1.3148855 -0.00709158741
v -0.139419407 -1.31618178 -0.00711283786
v -0.209629476 -1.03644884 0.00121837377
v -0.128054962 -1.01474154 -0.014117484
v -0.209629416 -1.02110255 -0.0140982466
v -0.128054336 -1.03644884 0.0075484151
v 0.13842839 -1.0147419 -0.0141294776
v -0.209629551 -1.05179501 -0.0140982466
v 0.138429031 -1.03644907 0.0075360029
v -0.128055096 -1.05815625 -0.014117226
v -0.209629506 -1.03644884 -0.0294151343
v 0.138428345 -1.05815637 -0.0141296098
v -0.128055736 -1.03644919 -0.0357830077
v -0.209629416 -1.02110255 -0.0140982466
v 0.13842766 -1.03644907 -0.0357953012
v -0.128054962 -1.01474154 -0.014117484
v 0.13842839 -1.0147419 -0.0141294776
v 0.13842839 -1.0147419 -0.0141294776
v 0.218321115 -1.03644919 0.00116788328
v 0.21832107 -1.02110314 -0.0141486954
v 0.138429031 -1.03644907 0.0075360029
v 0.21832107 -1.05179501 -0.0141487001
v 0.138428345 -1.05815637 -0.0141296098
v 0.21832107 -1.03644919 -0.0294650253
v 0.13842766 -1.03644907 -0.0357953012
v 0.21832107 -1.02110314 -0.0141486954
v 0.13842839 -1.0147419 -0.0141294776
v 0.212095886 -0.741727829 -0.0167525206
v 0.13047643 -0.715412498 -0.00397196319
v 0.21161145 -0.72442168 0.000490184815
v 0.131010562 -0.739198923 -0.0276680104
v -0.135679945 -0.709953606 -0.0135914665
v 0.210351601 -0.75899595 0.000490594131
v -0.135144666 -0.733750463 -0.03730537
v 0.12908493 -0.762943923 -0.00397225795
v 0.209867269 -0.741691053 0.0177313909
v -0.13707234 -0.757484972 -0.0135920756
v 0.128550082 -0.739147425 0.019741198
v 0.21161145 -0.72442168 0.000490184815
v -0.137606725 -0.733698845 0.0101037342
v 0.13047643 -0.715412498 -0.00397196319
v -0.135679945 -0.709953606 -0.0135914665
v -0.135679945 -0.709953606 -0.0135914665
v -0.215318277 -0.731206357 -0.0352954604
v -0.215803429 -0.713902056 -0.0180556271
v -0.135144666 -0.733750463 -0.03730537
v -0.217065021 -0.74847585 -0.0180553365
v -0.13707234 -0.757484972 -0.0135920756
v -0.217550337 -0.731169522 -0.00081219431
v -0.137606725 -0.733698845 0.0101037342
v -0.215803429 -0.713902056 -0.0180556271
v -0.135679945 -0.709953606 -0.0135914665
v -0.208247751 -0.441477716 0.0325595923
v -0.128465563 -0.421035111 0.0108102979
v -0.209969684 -0.424246132 0.0153192664
v -0.126662523 -0.444839954 0.034527719
v 0.137528986 -0.410044789 0.00117063406
v -0.208757266 -0.458820879 0.0153205702
v 0.139498577 -0.433771849 0.0248628613
v -0.127318561 -0.468570054 0.0108189024
v -0.210475713 -0.441513747 -0.00192236761
v 0.139005721 -0.457573354 0.00116507045
v -0.129125804 -0.444889188 -0.0128803635
v -0.209969684 -0.424246132 0.0153192664
v 0.137033299 -0.43382147 -0.0225459263
v -0.128465563 -0.421035111 0.0108102979
v 0.137528986 -0.410044789 0.00117063406
v 0.137528986 -0.410044789 0.00117063406
v 0.219172269 -0.431342423 0.013904389
v 0.217445344 -0.414074272 -0.00333926314
v 0.139498577 -0.433771849 0.0248628613
v 0.218665972 -0.448648483 -0.00333901541
v 0.139005721 -0.457573354 0.00116507045
v 0.216939136 -0.431378216 -0.0205784794
v 0.137033299 -0.43382147 -0.0225459263
v 0.217445344 -0.414074272 -0.00333926314
v 0.137528986 -0.410044789 0.00117063406
v 0.212157682 -0.13640812 -0.00197859295
v 0.129720151 -0.118391052 0.0107965339
v 0.211042941 -0.11915493 0.0152630601
v 0.131053984 -0.142229706 -0.0128941368
v -0.136352062 -0.112676181 0.00118391227
v 0.211049318 -0.153737828 0.0152639747
v -0.135184154 -0.136430979 -0.0225321148
v 0.129918814 -0.165935308 0.0108055193
v 0.209928408 -0.136407733 0.0325032882
v -0.136481926 -0.160221189 0.00117875799
v 0.128592938 -0.142230168 0.0345138572
v 0.211042941 -0.11915493 0.0152630601
v -0.137646973 -0.136431217 0.0248768032
v 0.129720151 -0.118391052 0.0107965339
v -0.136352062 -0.112676181 0.00118391227
v -0.136352062 -0.112676181 0.00118391227
v -0.215383008 -0.13644889 -0.0205222871
v -0.216499195 -0.119156405 -0.00328233326
v -0.135184154 -0.136430979 -0.0225321148
v -0.216499195 -0.15374136 -0.00328235235
v -0.136481926 -0.160221189 0.00117875799
v -0.217615709 -0.13644889 0.0139608812
v -0.137646973 -0.136431217 0.0248768032
v -0.216499195 -0.119156405 -0.00328233326
v -0.136352062 -0.112676181 0.00118391227
v -0.209425375 0.154232785 0.0232789256
v -0.129162058 0.182466403 0.00599784264
v -0.210539758 0.171508938 0.00601940183
v -0.12793079 0.158725262 0.0297254007
v 0.137072682 0.192136124 0.00598431705
v -0.20831126 0.136958465 0.00601938274
v 0.138306424 0.168376818 0.0297114551
v -0.126699805 0.134966105 0.00599784264
v -0.209425449 0.154232785 -0.0112404125
v 0.139537349 0.144635975 0.0059841834
v -0.12793228 0.158725113 -0.0177293699
v -0.210539758 0.171508938 0.00601940183
v 0.138304904 0.168376669 -0.0177431796
v -0.129162058 0.182466403 0.00599784264
v 0.137072682 0.192136124 0.00598431705
v 0.137072682 0.192136124 0.00598431705
v 0.218117893 0.17287083 0.0232222918
v 0.217001185 0.190143615 0.00596276671
v 0.138306424 0.168376818 0.0297114551
v 0.21923469 0.155594215 0.00596276671
v 0.139537349 0.144635975 0.0059841834
v 0.218117744 0.172870979 -0.0112964706
v 0.138304904 0.168376669 -0.0177431796
v 0.217001185 0.190143615 0.00596276671
v 0.137072682 0.192136124 0.00598431705
v 0.211043999 0.454274029 -0.0169327799
v 0.130884916 0.476757258 0.000347103691
v 0.212156132 0.471512169 0.000325672911
v 0.129820138 0.452961951 -0.0233801398
v -0.135017231 0.486413717 0.000360691251
v 0.20993343 0.436960489 0.000325653877
v -0.136423767 0.462614119 -0.0233659428
v 0.128751561 0.429247975 0.00034718457
v 0.211044118 0.45427385 0.0175843965
v -0.137810454 0.438931257 0.000360819715
v 0.129821673 0.452961951 0.0240742005
v 0.212156132 0.471512169 0.000325672911
v -0.136422291 0.46261397 0.0240876973
v 0.130884916 0.476757258 0.000347103691
v -0.135017231 0.486413717 0.000360691251
v -0.135017231 0.486413717 0.000360691251
v -0.216491982 0.47291258 -0.0168766454
v -0.21537675 0.490143567 0.000382236234
v -0.136423767 0.462614119 -0.0233659428
v -0.217619091 0.45560059 0.000382236234
v -0.137810454 0.438931257 0.000360819715
v -0.216491938 0.472912282 0.0176408421
v -0.136422291 0.46261397 0.0240876973
v -0.21537675 0.490143567 0.000382236234
v -0.135017231 0.486413717 0.000360691251
v -0.208310366 0.763550997 0.0350781679
v -0.127931669 0.78732419 0.0133321593
v -0.209424585 0.780843794 0.0178372171
v -0.126699165 0.763551176 0.0370455645
v 0.13830477 0.78732425 0.00368517661
v -0.209424645 0.746258199 0.0178372357
v 0.13953726 0.763551235 0.0273803156
v -0.127931744 0.739777982 0.0133321974
v -0.210539043 0.763550997 0.000594164245
v 0.138304755 0.739778042 0.00368506252
v -0.129163012 0.763550997 -0.0103636645
v -0.209424585 0.780843794 0.0178372171
v 0.137071013 0.763551056 -0.0200286433
v -0.127931669 0.78732419 0.0133321593
v 0.13830477 0.78732425 0.00368517661
v 0.13830477 0.78732425 0.00368517661
v 0.219233111 0.763550878 0.0164218917
v 0.218116164 0.780843318 -0.000821765105
v 0.13953726 0.763551235 0.0273803156
v 0.218116209 0.746258378 -0.000821755559
v 0.138304755 0.739778042 0.00368506252
v 0.216999412 0.763550878 -0.0180612486
v 0.137071013 0.763551056 -0.0200286433
v 0.218116164 0.780843318 -0.000821765105
v 0.13830477 0.78732425 0.00368517661
v 0.211039409 1.07290983 -0.0112960339
v 0.128488734 1.08641696 0.00598428817
v 0.209927782 1.0901432 0.00596280489
v 0.129826531 1.06259668 -0.017742496
v -0.137582764 1.08246875 0.00599787105
v 0.212162569 1.05559909 0.00596280489
v -0.136416659 1.05874312 -0.0177292544
v 0.131148577 1.03892624 0.00598427886
v 0.211039558 1.07290995 0.0232218895
v -0.135248333 1.03496397 0.00599782355
v 0.12982814 1.0625968 0.0297107715
v 0.209927782 1.0901432 0.00596280489
v -0.136415139 1.058743 0.0297252666
v 0.128488734 1.08641696 0.00598428817
v -0.137582764 1.08246875 0.00599787105
v -0.137582764 1.08246875 0.00599787105
v -0.216497526 1.05423152 -0.0112401983
v -0.217613965 1.07150781 0.00601937342
v -0.136416659 1.05874312 -0.0177292544
v -0.215381235 1.03695846 0.00601935433
v -0.135248333 1.03496397 0.00599782355
v -0.216497436 1.05423141 0.0232786499
v -0.136415139 1.058743 0.0297252666
v -0.217613965 1.07150781 0.00601937342
v -0.137582764 1.08246875 0.00599787105
v -0.223320797 1.37319899 0.0325608104
v -0.139966786 1.39232373 0.0108142104
v -0.223363981 1.39050579 0.0153188854
v -0.139937013 1.36851788 0.0345285945
v 0.136612654 1.38227844 0.00116699329
v -0.225596592 1.3559556 0.0153182959
v 0.13664265 1.35849059 0.0248634685
v -0.142431065 1.34482372 0.0108150942
v -0.225639522 1.3732667 -0.00192294351
v 0.134149805 1.33477783 0.00116763101
v -0.142461002 1.36861157 -0.0128811775
v -0.223363981 1.39050579 0.0153188854
v 0.134119943 1.35858393 -0.0225464366
v -0.139966786 1.39232373 0.0108142104
v 0.136612654 1.38227844 0.00116699329
v 0.136612654 1.38227844 0.00116699329
v 0.220834255 1.3538363 0.0139055597
v 0.220791206 1.3711468 -0.00333527476
v 0.13664265 1.35849059 0.0248634685
v 0.218561485 1.33659661 -0.00333591714
v 0.134149805 1.33477783 0.00116763101
v 0.218518347 1.35390413 -0.020578647
v 0.134119943 1.35858393 -0.0225464366
v 0.220791206 1.3711468 -0.00333527476
v 0.136612654 1.38227844 0.00116699329
v -0.220264807 -1.57658219 -0.0303076543
v -0.205245152 -1.49986947 0.015233038
v -0.207411081 -1.60510468 0.0170567334
v -0.218606576 -1.45026612 -0.0470256805
v -0.269365907 -1.57687461 -0.0201362669
v -0.227788463 -0.747388542 -0.0639349595
v -0.289036661 -0.74467063 -0.017684428
v -0.189752743 -0.788043797 -0.00221192325
v -0.285468906 -1.44501519 -0.019523412
v -0.259527326 -1.57333553 0.0289125368
v -0.212754816 0.00297195814 -0.0468072966
v -0.18611455 0.00294143287 0.0212720968
v -0.279272139 0.00294924132 -0.019348802
v -0.253701538 0.00291719032 0.0482443385
v -0.259714037 -1.44077468 0.0483258627
v -0.2442296 -0.742503583 0.0452133752
v -0.18611455 0.00294143287 0.0212720968
v -0.189752743 -0.788043797 -0.00221192325
v -0.205245152 -1.49986947 0.015233038
v -0.207411081 -1.60510468 0.0170567334
v -0.205175892 1.51129591 0.0152542358
v -0.220227063 1.58247697 -0.030365115
v -0.207347408 1.61099768 0.017090952
v -0.218577266 1.4561317 -0.0471247248
v -0.269422203 1.58276868 -0.0201748796
v -0.220367357 0.878789485 -0.0404708982
v -0.291411728 0.875623286 -0.0111915441
v -0.200540036 0.926242173 0.0283250399
v -0.285554588 1.45090806 -0.0195676796
v -0.25956443 1.57923019 0.0289675333
v -0.212754816 0.00297195814 -0.0468072966
v -0.18611455 0.00294143287 0.0212720968
v -0.279272139 0.00294924132 -0.019348802
v -0.253701538 0.00291719032 0.0482443385
v -0.259749591 1.44670761 0.0484186597
v -0.264063865 0.873092651 0.0609508865
v -0.18611455 0.00294143287 0.0212720968
v -0.200540036 0.926242173 0.0283250399
v -0.205175892 1.51129591 0.0152542358
v -0.207347408 1.61099768 0.017090952
v 0.234344244 -1.57658243 0.0372446701
v 0.196877569 -1.49035013 0.00716217561
v 0.197700113 -1.60510468 0.00446377043
v 0.242081031 -1.45026863 0.0521721393
v 0.269995123 -1.57687461 0.00210368843
v 0.259017855 -0.747388422 0.0613863021
v 0.285164177 -0.74467057 -0.0106123006
v 0.193402737 -0.788044512 0.0302016474
v 0.283173621 -1.44501603 -0.00713586248
v 0.234962001 -1.57333529 -0.0337251648
v 0.2370511 0.00297198375 0.0551593974
v 0.177528188 0.00294148293 0.0124652581
v 0.277878463 0.00294847367 -0.00392510369
v 0.219518811 0.00291736214 -0.0467906781
v 0.224516094 -1.44078004 -0.0501153842
v 0.213225052 -0.742503703 -0.0391144343
v 0.177528188 0.00294148293 0.0124652581
v 0.193402737 -0.788044512 0.0302016474
v 0.196877569 -1.49035013 0.00716217561
v 0.197700113 -1.60510468 0.00446377043
v 0.1968095 1.50959253 0.00718707591
v 0.234344691 1.58247709 0.037313126
v 0.197628602 1.61099732 0.00446849642
v 0.242111146 1.45613217 0.0522710346
v 0.270064175 1.5827688 0.0021053683
v 0.239980012 0.878789365 0.0457176194
v 0.283611983 0.875623167 -0.0173476506
v 0.185782909 0.926242411 -0.00126881269
v 0.283270329 1.45090818 -0.00714532891
v 0.234963894 1.57922971 -0.0337916166
v 0.2370511 0.00297198375 0.0551593974
v 0.177528188 0.00294148293 0.0124652581
v 0.277878463 0.00294847367 -0.00392510369
v 0.219518811 0.00291736214 -0.0467906781
v 0.224498272 1.44670868 -0.0502134562
v 0.221276775 0.873092473 -0.0630677417
v 0.177528188 0.00294148293 0.0124652581
v 0.185782909 0.926242411 -0.00126881269
v 0.1968095 1.50959253 0.00718707591
v 0.197628602 1.61099732 0.00446849642
v 0.234344691 1.58247709 0.037313126
v 0.270064175 1.5827688 0.0021053683
v 0.232154742 1.59676206 -0.000233054554
v 0.197628602 1.61099732 0.00446849642
v 0.234963894 1.57922971 -0.0337916166
v 0.269995123 -1.57687461 0.00210368843
v 0.234344244 -1.57658243 0.0372446701
v 0.232161358 -1.59086776 -0.000230570251
v 0.234962001 -1.57333529 -0.0337251648
v 0.197700113 -1.60510468 0.00446377043
v -0.220227063 1.58247697 -0.030365115
v -0.269422203 1.58276868 -0.0201748796
v -0.238886714 1.59676158 0.00232740003
v -0.207347408 1.61099768 0.017090952
v -0.25956443 1.57923019 0.0289675333
v -0.269365907 -1.57687461 -0.0201362669
v -0.220264807 -1.57658219 -0.0303076543
v -0.238891497 -1.59086776 0.00232157484
v -0.259527326 -1.57333553 0.0289125368
v -0.207411081 -1.60510468 0.0170567334
vn 0.076028958 0.0332915634 -0.996549606
vn 0.0247668587 0.999693274 0.000126746178
vn 0.0333281383 0.999444425 0.000106365675
vn 0.0384165384 -0.0142528722 -0.999160171
vn 0.0161319375 0.999869823 6.04370325E-05
vn 0.121008664 -0.992651403 3.87162509E-05
vn -0.039830368 -0.0165998954 -0.999068558
vn 0.0504616387 -0.998725951 9.59387398E-05
vn 0.0758690238 0.0333685987 0.996559203
vn -0.091896154 -0.995768666 4.90516904E-05
vn 0.0389448442 -0.014224207 0.999140143
vn 0.0333281383 0.999444425 0.000106365675
vn -0.0398771837 -0.0166102946 0.999066532
vn 0.0247668587 0.999693274 0.000126746178
vn 0.0161319375 0.999869823 6.04370325E-05
vn 0.0161319375 0.999869823 6.04370325E-05
vn -0.0759222433 0.0342799313 -0.996524274
vn 0.0161748789 0.999869108 0.000391992013
vn -0.039830368 -0.0165998954 -0.999068558
vn -0.1714136 -0.985199153 0.000429390871
vn -0.091896154 -0.995768666 4.90516904E-05
vn -0.07445582 0.0342170596 0.996637106
vn -0.0398771837 -0.0166102946 0.999066532
vn 0.0161748789 0.999869108 0.000391992013
vn 0.0161319375 0.999869823 6.04370325E-05
vn -0.0775113329 4.87840452E-07 0.996991515
vn -0.0382375605 0.999268711 -4.57614187E-05
vn -0.0777396411 0.996973634 0.000113620314
vn -0.0381020308 3.80668848E-06 0.999273837
vn 0.0390266329 0.999238133 4.22096564E-05
vn -0.0777447745 -0.996973276 0.000113465401
vn 0.0391647182 1.52878769E-07 0.999232769
vn -0.0382386968 -0.999268591 -3.25397559E-05
vn -0.0779733434 4.61991334E-07 -0.996955514
vn 0.0390264504 -0.999238133 4.0406645E-05
vn -0.0383743756 -9.75291096E-06 -0.999263465
vn -0.0777396411 0.996973634 0.000113620314
vn 0.0388885029 1.21838968E-06 -0.999243617
vn -0.0382375605 0.999268711 -4.57614187E-05
vn 0.0390266329 0.999238133 4.22096564E-05
vn 0.0390266329 0.999238133 4.22096564E-05
vn 0.0796093941 -2.143129E-06 0.996826172
vn 0.0793741941 0.996844888 -0.000116507028
vn 0.0391647182 1.52878769E-07 0.999232769
vn 0.0793716088 -0.996845126 -0.000116054289
vn 0.0390264504 -0.999238133 4.0406645E-05
vn 0.0791366994 -1.66490599E-06 -0.996863842
vn 0.0388885029 1.21838968E-06 -0.999243617
vn 0.0793741941 0.996844888 -0.000116507028
vn 0.0390266329 0.999238133 4.22096564E-05
vn 0.133722723 -0.00185425195 -0.991017103
vn 0.064778164 0.997897029 -0.00229083863
vn 0.110511899 0.993874371 0.000853216159
vn 0.084445715 0.000180725387 -0.996428072
vn -0.0137768015 0.999901652 0.00262648007
vn 0.0482168943 -0.998836935 0.00022974961
vn 0.00620418601 -0.00257647061 -0.999977469
vn 0.0134620909 -0.999906421 -0.00245860848
vn 0.0247631706 0.000862372865 0.999693036
vn -0.0655670166 -0.997845173 0.00242877868
vn -0.00639017625 0.00250174408 0.999976516
vn 0.110511899 0.993874371 0.000853216159
vn -0.0853475705 -0.000236379259 0.996351242
vn 0.064778164 0.997897029 -0.00229083863
vn -0.0137768015 0.999901652 0.00262648007
vn -0.0137768015 0.999901652 0.00262648007
vn -0.0251073558 -0.0006405561 -0.999684572
vn -0.0488734692 0.998804808 -0.000622142688
vn 0.00620418601 -0.00257647061 -0.999977469
vn -0.11205665 -0.993700981 -0.00129565946
vn -0.0655670166 -0.997845173 0.00242877868
vn -0.13559702 0.00212574587 0.990761817
vn -0.0853475705 -0.000236379259 0.996351242
vn -0.0488734692 0.998804808 -0.000622142688
vn -0.0137768015 0.999901652 0.00262648007
vn -0.0231986549 0.0357093625 0.999092937
vn -0.0403617546 0.999178112 -0.0037479389
vn -0.0389588028 0.999234438 -0.00356035819
vn 0.00657131709 -0.0187343061 0.999802887
vn 0.00381028955 0.999987483 0.00324038486
vn -0.119174577 -0.992862403 0.00465095416
vn 0.085614197 0.00499096885 0.996315897
vn -0.0367048755 -0.999325275 -0.00129859045
vn -0.132297352 0.0327704437 -0.990668237
vn 0.0757929683 -0.997121274 0.00209922879
vn -0.0851114243 -0.0207452886 -0.996155441
vn -0.0389588028 0.999234438 -0.00356035819
vn -0.00655266177 0.0028679152 -0.999974489
vn -0.0403617546 0.999178112 -0.0037479389
vn 0.00381028955 0.999987483 0.00324038486
vn 0.00381028955 0.999987483 0.00324038486
vn 0.136664063 0.00184770033 0.990615666
vn 0.0504231974 0.998727262 -0.00111625146
vn 0.085614197 0.00499096885 0.996315897
vn 0.11100895 -0.993818104 -0.00161980151
vn 0.0757929683 -0.997121274 0.00209922879
vn 0.024574386 -0.000776081753 -0.999697685
vn -0.00655266177 0.0028679152 -0.999974489
vn 0.0504231974 0.998727262 -0.00111625146
vn 0.00381028955 0.999987483 0.00324038486
vn 0.131842673 0.0340871885 -0.99068439
vn 0.0154161183 0.99987483 -0.00357149704
vn 0.00901102927 0.999953747 -0.00336383702
vn 0.0850366428 -0.0210379194 -0.996155679
vn -0.0289564263 0.999576271 0.00294894353
vn 0.148551583 -0.988891482 0.00510937674
vn 0.00635889312 0.00547938375 -0.999964833
vn 0.0618507825 -0.998084784 -0.00107345101
vn 0.0216003656 0.0347128101 0.999163866
vn -0.0504792295 -0.998723209 0.00194493285
vn -0.00518399617 -0.0211530626 0.999762833
vn 0.00901102927 0.999953747 -0.00336383702
vn -0.0852426216 0.00539089134 0.99634558
vn 0.0154161183 0.99987483 -0.00357149704
vn -0.0289564263 0.999576271 0.00294894353
vn -0.0289564263 0.999576271 0.00294894353
vn -0.0249016061 1.4223664E-05 -0.999689937
vn -0.0804082528 0.996761501 -0.00102588162
vn 0.00635889312 0.00547938375 -0.999964833
vn -0.0806478634 -0.99674207 -0.00113276311
vn -0.0504792295 -0.998723209 0.00194493285
vn -0.135847136 0.000103408951 0.990729749
vn -0.0852426216 0.00539089134 0.99634558
vn -0.0804082528 0.996761501 -0.00102588162
vn -0.0289564263 0.999576271 0.00294894353
vn -0.07874915 -0.000555887644 0.99689424
vn -0.0843362436 0.99643743 -1.03001485E-05
vn -0.133667752 0.991026103 0.00026096587
vn -0.0389365815 0.00239774003 0.999238849
vn -0.00633568922 0.999979973 1.91274776E-05
vn -0.0243199524 -0.999704182 0.000180370655
vn 0.0399323367 -0.00256868615 0.999199092
vn 0.00658025034 -0.999978423 -3.60365157E-05
vn -0.0795763358 -0.00068985211 -0.996828496
vn 0.085686177 -0.996322155 -1.0490523E-05
vn -0.0390901603 0.0023604806 -0.999232888
vn -0.133667752 0.991026103 0.00026096587
vn 0.039721854 -0.00260717655 -0.999207437
vn -0.0843362436 0.99643743 -1.03001485E-05
vn -0.00633568922 0.999979973 1.91274776E-05
vn -0.00633568922 0.999979973 1.91274776E-05
vn 0.0812199265 0.00131485856 0.996695399
vn 0.0248226337 0.999691844 -0.000188421895
vn 0.0399323367 -0.00256868615 0.999199092
vn 0.136454612 -0.990646243 -0.000274626655
vn 0.085686177 -0.996322155 -1.0490523E-05
vn 0.0803548992 0.0011808381 -0.996765614
vn 0.039721854 -0.00260717655 -0.999207437
vn 0.0248226337 0.999691844 -0.000188421895
vn -0.00633568922 0.999979973 1.91274776E-05
vn 0.0790085793 0.0338355079 -0.996299565
vn 0.0501838028 0.998740017 0.000118454591
vn 0.0640993267 0.997943461 5.49049073E-05
vn 0.0391616374 -0.0133407395 -0.999143839
vn 0.041465614 0.999139905 5.88627699E-05
vn 0.0947870463 -0.995497584 -4.62318576E-06
vn -0.041347716 -0.0182660371 -0.9989779
vn 0.0271960441 -0.999630094 8.98600993E-05
vn 0.079012692 0.0338972844 0.996297061
vn -0.118801206 -0.992917955 9.5147625E-05
vn 0.0396273583 -0.013331268 0.999125659
vn 0.0640993267 0.997943461 5.49049073E-05
vn -0.041459702 -0.0182983931 0.998972654
vn 0.0501838028 0.998740017 0.000118454591
vn 0.041465614 0.999139905 5.88627699E-05
vn 0.041465614 0.999139905 5.88627699E-05
vn -0.0768227279 0.0357539877 -0.996403575
vn 0.0468489528 0.998901963 0.000409242581
vn -0.041347716 -0.0182660371 -0.9989779
vn -0.205127299 -0.978735149 0.000557630672
vn -0.118801206 -0.992917955 9.5147625E-05
vn -0.0751501843 0.0355020463 0.99654007
vn -0.041459702 -0.0182983931 0.998972654
vn 0.0468489528 0.998901963 0.000409242581
vn 0.041465614 0.999139905 5.88627699E-05
vn -0.0240591988 5.10761565E-05 0.9997105
vn -0.0390926562 0.99923265 -0.00242987135
vn -0.079004772 0.996873975 0.000697195239
vn 0.00673138537 1.11788422E-05 0.99997735
vn 0.0397826247 0.999204934 0.00261821109
vn -0.0793108195 -0.996849597 0.000801074144
vn 0.0858404264 -5.43330752E-05 0.996308863
vn -0.0389413796 -0.99923861 -0.00240587513
vn -0.133928299 0.000133325753 -0.990990996
vn 0.0398788415 -0.999201 0.0026424597
vn -0.0844881237 3.509417E-05 -0.996424496
vn -0.079004772 0.996873975 0.000697195239
vn -0.00649069669 -2.69875181E-05 -0.999979019
vn -0.0390926562 0.99923265 -0.00242987135
vn 0.0397826247 0.999204934 0.00261821109
vn 0.0397826247 0.999204934 0.00261821109
vn 0.136719912 -0.000147869927 0.990609705
vn 0.0809529424 0.996716917 -0.00143099495
vn 0.0858404264 -5.43330752E-05 0.996308863
vn 0.080611214 -0.996744752 -0.00132028142
vn 0.0398788415 -0.999201 0.0026424597
vn 0.0245561581 -6.08987539E-05 -0.99969852
vn -0.00649069669 -2.69875181E-05 -0.999979019
vn 0.0809529424 0.996716917 -0.00143099495
vn 0.0397826247 0.999204934 0.00261821109
vn 0.0753996 0.0348735489 -0.996543348
vn -0.0302243177 0.99954319 0.000119841163
vn -0.0462619253 0.998929322 0.000195016779
vn 0.0403495096 -0.0233405363 -0.99891293
vn -0.0747612715 0.997201443 -0.000153937712
vn 0.20234412 -0.979314387 0.000358249614
vn -0.0398960076 0.00795307942 -0.999172211
vn 0.106795534 -0.994281054 0.000144564168
vn 0.0746088848 0.0346913449 0.99660933
vn -0.00454674894 -0.999989629 -0.000134370435
vn 0.0413376838 -0.0233149827 0.998873174
vn -0.0462619253 0.998929322 0.000195016779
vn -0.0395561159 0.00793858897 0.99918586
vn -0.0302243177 0.99954319 0.000119841163
vn -0.0747612715 0.997201443 -0.000153937712
vn -0.0747612715 0.997201443 -0.000153937712
vn -0.0805086493 -0.00113440026 -0.996753275
vn -0.136036441 0.990703762 -7.68842729E-05
vn -0.0398960076 0.00795307942 -0.999172211
vn -0.0246830694 -0.999695301 8.5900474E-06
vn -0.00454674894 -0.999989629 -0.000134370435
vn -0.0805184618 -0.00123259088 0.996752381
vn -0.0395561159 0.00793858897 0.99918586
vn -0.136036441 0.990703762 -7.68842729E-05
vn -0.0747612715 0.997201443 -0.000153937712
vn -0.0237209201 -0.00122485252 0.999717891
vn 0.00773272151 0.999966502 -0.00268342742
vn -0.0215728842 0.999765813 -0.00169684587
vn 0.00624475628 -0.00457351655 0.999970078
vn 0.0831679925 0.996532917 0.00226410269
vn -0.13301459 -0.991113961 -0.000555894163
vn 0.081699796 0.000499500195 0.996656895
vn -0.0839066282 -0.996470928 -0.00235376484
vn -0.130685091 0.00328341848 -0.991418481
vn -0.00789175183 -0.999965549 0.00256404304
vn -0.0824929252 -0.000608880073 -0.996591568
vn -0.0215728842 0.999765813 -0.00169684587
vn -0.00635276036 0.00442644209 -0.999970078
vn 0.00773272151 0.999966502 -0.00268342742
vn 0.0831679925 0.996532917 0.00226410269
vn 0.0831679925 0.996532917 0.00226410269
vn 0.129157111 -0.00288702454 0.991619945
vn 0.131444976 0.991322994 0.000938676007
vn 0.081699796 0.000499500195 0.996656895
vn 0.0213484559 -0.999770105 0.00200466975
vn -0.00789175183 -0.999965549 0.00256404304
vn 0.0234584231 0.00155871478 -0.999723613
vn -0.00635276036 0.00442644209 -0.999970078
vn 0.131444976 0.991322994 0.000938676007
vn 0.0831679925 0.996532917 0.00226410269
vn 0.64041549 -0.096134156 -0.761988282
vn 0.898955345 -0.0610522516 0.433764786
vn 0.856236517 -0.00865473226 0.516511619
vn 0.463348895 -0.029844977 -0.885673225
vn -0.815946817 -0.149357975 -0.558500767
vn 0.176151767 -0.00874460302 -0.984324098
vn -0.986088812 0.00452520372 -0.166158184
vn 0.989462554 -0.0246872548 0.142669231
vn -0.917868435 -0.0397622809 -0.394888014
vn -0.401717722 -0.0925380141 0.911076188
vn 0.393795311 0.0110747041 -0.919131398
vn 0.918790102 0.00511248549 0.394713342
vn -0.91569531 0.00106261508 -0.401871771
vn -0.400098175 -0.00474997796 0.916460037
vn -0.322344095 -0.0408224277 0.945741951
vn -0.121166728 -0.0122887138 0.992556155
vn 0.918790102 0.00511248549 0.394713342
vn 0.989462554 -0.0246872548 0.142669231
vn 0.898955345 -0.0610522516 0.433764786
vn 0.856236517 -0.00865473226 0.516511619
vn 0.897731781 0.067677401 0.435312897
vn 0.639499784 0.0974160805 -0.762594402
vn 0.856000245 0.0091031706 0.516895235
vn 0.461085647 0.0266592521 -0.886955023
vn -0.815945923 0.14963536 -0.558427572
vn 0.432914883 0.00307876687 -0.901429594
vn -0.920339465 -0.00229069311 -0.391113907
vn 0.915246964 0.0105350651 0.402755499
vn -0.916702926 0.0394921564 -0.397613168
vn -0.40215224 0.0945143923 0.910681427
vn 0.393795311 0.0110747041 -0.919131398
vn 0.918790102 0.00511248549 0.394713342
vn -0.91569531 0.00106261508 -0.401871771
vn -0.400098175 -0.00474997796 0.916460037
vn -0.33741504 0.0613998733 0.939351499
vn -0.362739265 0.00271173893 0.931886792
vn 0.918790102 0.00511248549 0.394713342
vn 0.915246964 0.0105350651 0.402755499
vn 0.897731781 0.067677401 0.435312897
vn 0.856000245 0.0091031706 0.516895235
vn -0.124344215 -0.0945044905 0.987728357
vn -0.989734411 -0.0579737239 0.130632773
vn -0.99941659 -0.00794610102 0.0332147628
vn 0.093094103 -0.0309931673 0.995174825
vn 0.988457739 -0.149449781 0.0248193536
vn 0.387623429 -0.00882609747 0.92177552
vn 0.917841434 0.004521647 -0.396921515
vn -0.907781005 -0.0248640571 0.418706864
vn 0.985004663 -0.0397575311 -0.167884171
vn -0.158977926 -0.0897671431 -0.983192682
vn 0.16947794 0.01106619 0.985471904
vn -0.985687315 0.00510245143 0.168506354
vn 0.986979127 0.00106652582 -0.160844743
vn -0.162725091 -0.00475055957 -0.986660004
vn -0.244524553 -0.0435312353 -0.968665481
vn -0.438238949 -0.0123119298 -0.898774147
vn -0.985687315 0.00510245143 0.168506354
vn -0.907781005 -0.0248640571 0.418706864
vn -0.989734411 -0.0579737239 0.130632773
vn -0.99941659 -0.00794610102 0.0332147628
vn -0.98996824 0.0674055442 0.124174565
vn -0.122090787 0.097090289 0.987758696
vn -0.999438822 0.00894033443 0.0322826467
vn 0.095669657 0.0268293023 0.995051563
vn 0.988417566 0.149725571 0.0247589834
vn 0.127101243 0.00306936563 0.991885066
vn 0.985025823 -0.00229303306 -0.172391474
vn -0.987059474 0.0105485497 0.160006717
vn 0.985511065 0.0394828841 -0.164952114
vn -0.157964185 0.0938221514 -0.982977509
vn 0.16947794 0.01106619 0.985471904
vn -0.985687315 0.00510245143 0.168506354
vn 0.986979127 0.00106652582 -0.160844743
vn -0.162725091 -0.00475055957 -0.986660004
vn -0.228304952 0.061771743 -0.97162801
vn -0.202573821 0.00271494361 -0.979263246
vn -0.985687315 0.00510245143 0.168506354
vn -0.987059474 0.0105485497 0.160006717
vn -0.98996824 0.0674055442 0.124174565
vn -0.999438822 0.00894033443 0.0322826467
vn 0.349730104 0.882405877 0.314719975
vn 0.347990751 0.936831117 -0.0353533365
vn 0.359967709 0.929676712 -0.0782585442
vn 0.379550219 0.925070703 -0.0136289569
vn 0.321117789 0.850468397 -0.41663751
vn 0.348599613 -0.936602354 -0.0354148634
vn 0.35026747 -0.88201803 0.31520921
vn 0.360588729 -0.929426432 -0.0783729777
vn 0.321581483 -0.849999905 -0.417235762
vn 0.380198956 -0.924804032 -0.0136443814
vn -0.122640826 0.882212758 -0.454598576
vn -0.311427563 0.936769426 -0.159611762
vn -0.344571263 0.929661989 -0.130381256
vn -0.325750232 0.924986959 -0.195667639
vn -0.495793551 0.850694656 0.174663454
vn -0.311976969 -0.936538398 -0.159894362
vn -0.122812316 -0.881823599 -0.455306739
vn -0.345148355 -0.929414093 -0.130622104
vn -0.496512026 -0.85022223 0.174922854
vn -0.326290041 -0.924727201 -0.195995927
vt 0.244828001 0.9796381
vt 0.227685362 0.984649897
vt 0.244685411 0.986644924
vt 0.227516279 0.979241908
vt 0.181593075 0.984650314
vt 0.244774908 0.973365545
vt 0.181763366 0.979241788
vt 0.227490842 0.973364234
vt 0.244827345 0.967092872
vt 0.181788549 0.973363459
vt 0.22751604 0.967485905
vt 0.244686946 0.96008575
vt 0.181763083 0.967485785
vt 0.227686286 0.962077379
vt 0.181593999 0.962077796
vt 0.227546707 0.962074399
vt 0.244687706 0.967089951
vt 0.244547263 0.960082769
vt 0.227376431 0.967482984
vt 0.244635299 0.973362625
vt 0.227351204 0.973361254
vt 0.244688392 0.979635239
vt 0.22737667 0.979238987
vt 0.244545832 0.986642003
vt 0.227545753 0.984646976
vt 0.244828001 0.991978645
vt 0.227685362 0.996990383
vt 0.244685411 0.99898541
vt 0.227516279 0.991582394
vt 0.181593075 0.9969908
vt 0.244774908 0.985706091
vt 0.181763366 0.991582334
vt 0.227490842 0.98570472
vt 0.244827345 0.979433417
vt 0.181788549 0.985703945
vt 0.22751604 0.979826391
vt 0.244686946 0.972426236
vt 0.181763083 0.979826272
vt 0.227686286 0.974417806
vt 0.181593999 0.974418283
vt 0.227546707 0.974414945
vt 0.244687706 0.979430437
vt 0.244547263 0.972423255
vt 0.227376431 0.97982347
vt 0.244635299 0.985703111
vt 0.227351204 0.985701799
vt 0.244688392 0.991975725
vt 0.22737667 0.991579473
vt 0.244545832 0.998982489
vt 0.227545753 0.996987462
vt 0.244828001 0.967901707
vt 0.227685362 0.972913444
vt 0.244685411 0.974908531
vt 0.227516279 0.967505455
vt 0.181593075 0.972913921
vt 0.244774908 0.961629152
vt 0.181763366 0.967505395
vt 0.227490842 0.961627841
vt 0.244827345 0.955356479
vt 0.181788549 0.961627066
vt 0.22751604 0.955749512
vt 0.244686946 0.948349297
vt 0.181763083 0.955749393
vt 0.227686286 0.950340927
vt 0.181593999 0.950341403
vt 0.227546707 0.950338006
vt 0.244687706 0.955353558
vt 0.244547263 0.948346376
vt 0.227376431 0.955746531
vt 0.244635299 0.961626232
vt 0.227351204 0.961624861
vt 0.244688392 0.967898846
vt 0.22737667 0.967502594
vt 0.244545832 0.97490561
vt 0.227545753 0.972910583
vt 0.244828001 0.9796381
vt 0.227685362 0.984649897
vt 0.244685411 0.986644924
vt 0.227516279 0.979241908
vt 0.181593075 0.984650314
vt 0.244774908 0.973365545
vt 0.181763366 0.979241788
vt 0.227490842 0.973364234
vt 0.244827345 0.967092872
vt 0.181788549 0.973363459
vt 0.22751604 0.967485905
vt 0.244686946 0.96008575
vt 0.181763083 0.967485785
vt 0.227686286 0.962077379
vt 0.181593999 0.962077796
vt 0.227546707 0.962074399
vt 0.244687706 0.967089951
vt 0.244547263 0.960082769
vt 0.227376431 0.967482984
vt 0.244635299 0.973362625
vt 0.227351204 0.973361254
vt 0.244688392 0.979635239
vt 0.22737667 0.979238987
vt 0.244545832 0.986642003
vt 0.227545753 0.984646976
vt 0.244828001 0.991978645
vt 0.227685362 0.996990383
vt 0.244685411 0.99898541
vt 0.227516279 0.991582394
vt 0.181593075 0.9969908
vt 0.244774908 0.985706091
vt 0.181763366 0.991582334
vt 0.227490842 0.98570472
vt 0.244827345 0.979433417
vt 0.181788549 0.985703945
vt 0.22751604 0.979826391
vt 0.244686946 0.972426236
vt 0.181763083 0.979826272
vt 0.227686286 0.974417806
vt 0.181593999 0.974418283
vt 0.227546707 0.974414945
vt 0.244687706 0.979430437
vt 0.244547263 0.972423255
vt 0.227376431 0.97982347
vt 0.244635299 0.985703111
vt 0.227351204 0.985701799
vt 0.244688392 0.991975725
vt 0.22737667 0.991579473
vt 0.244545832 0.998982489
vt 0.227545753 0.996987462
vt 0.244828001 0.967901707
vt 0.227685362 0.972913444
vt 0.244685411 0.974908531
vt 0.227516279 0.967505455
vt 0.181593075 0.972913921
vt 0.244774908 0.961629152
vt 0.181763366 0.967505395
vt 0.227490842 0.961627841
vt 0.244827345 0.955356479
vt 0.181788549 0.961627066
vt 0.22751604 0.955749512
vt 0.244686946 0.948349297
vt 0.181763083 0.955749393
vt 0.227686286 0.950340927
vt 0.181593999 0.950341403
vt 0.227546707 0.950338006
vt 0.244687706 0.955353558
vt 0.244547263 0.948346376
vt 0.227376431 0.955746531
vt 0.244635299 0.961626232
vt 0.227351204 0.961624861
vt 0.244688392 0.967898846
vt 0.22737667 0.967502594
vt 0.244545832 0.97490561
vt 0.227545753 0.972910583
vt 0.244828001 0.9796381
vt 0.227685362 0.984649897
vt 0.244685411 0.986644924
vt 0.227516279 0.979241908
vt 0.181593075 0.984650314
vt 0.244774908 0.973365545
vt 0.181763366 0.979241788
vt 0.227490842 0.973364234
vt 0.244827345 0.967092872
vt 0.181788549 0.973363459
vt 0.22751604 0.967485905
vt 0.244686946 0.96008575
vt 0.181763083 0.967485785
vt 0.227686286 0.962077379
vt 0.181593999 0.962077796
vt 0.227546707 0.962074399
vt 0.244687706 0.967089951
vt 0.244547263 0.960082769
vt 0.227376431 0.967482984
vt 0.244635299 0.973362625
vt 0.227351204 0.973361254
vt 0.244688392 0.979635239
vt 0.22737667 0.979238987
vt 0.244545832 0.986642003
vt 0.227545753 0.984646976
vt 0.244828001 0.991978645
vt 0.227685362 0.996990383
vt 0.244685411 0.99898541
vt 0.227516279 0.991582394
vt 0.181593075 0.9969908
vt 0.244774908 0.985706091
vt 0.181763366 0.991582334
vt 0.227490842 0.98570472
vt 0.244827345 0.979433417
vt 0.181788549 0.985703945
vt 0.22751604 0.979826391
vt 0.244686946 0.972426236
vt 0.181763083 0.979826272
vt 0.227686286 0.974417806
vt 0.181593999 0.974418283
vt 0.227546707 0.974414945
vt 0.244687706 0.979430437
vt 0.244547263 0.972423255
vt 0.227376431 0.97982347
vt 0.244635299 0.985703111
vt 0.227351204 0.985701799
vt 0.244688392 0.991975725
vt 0.22737667 0.991579473
vt 0.244545832 0.998982489
vt 0.227545753 0.996987462
vt 0.244828001 0.967901707
vt 0.227685362 0.972913444
vt 0.244685411 0.974908531
vt 0.227516279 0.967505455
vt 0.181593075 0.972913921
vt 0.244774908 0.961629152
vt 0.181763366 0.967505395
vt 0.227490842 0.961627841
vt 0.244827345 0.955356479
vt 0.181788549 0.961627066
vt 0.22751604 0.955749512
vt 0.244686946 0.948349297
vt 0.181763083 0.955749393
vt 0.227686286 0.950340927
vt 0.181593999 0.950341403
vt 0.227546707 0.950338006
vt 0.244687706 0.955353558
vt 0.244547263 0.948346376
vt 0.227376431 0.955746531
vt 0.244635299 0.961626232
vt 0.227351204 0.961624861
vt 0.244688392 0.967898846
vt 0.22737667 0.967502594
vt 0.244545832 0.97490561
vt 0.227545753 0.972910583
vt 0.244828001 0.9796381
vt 0.227685362 0.984649897
vt 0.244685411 0.986644924
vt 0.227516279 0.979241908
vt 0.181593075 0.984650314
vt 0.244774908 0.973365545
vt 0.181763366 0.979241788
vt 0.227490842 0.973364234
vt 0.244827345 0.967092872
vt 0.181788549 0.973363459
vt 0.22751604 0.967485905
vt 0.244686946 0.96008575
vt 0.181763083 0.967485785
vt 0.227686286 0.962077379
vt 0.181593999 0.962077796
vt 0.227546707 0.962074399
vt 0.244687706 0.967089951
vt 0.244547263 0.960082769
vt 0.227376431 0.967482984
vt 0.244635299 0.973362625
vt 0.227351204 0.973361254
vt 0.244688392 0.979635239
vt 0.22737667 0.979238987
vt 0.244545832 0.986642003
vt 0.227545753 0.984646976
vt 0.0260533486 0.952429533
vt 0.0321688429 0.937944889
vt 0.0212959703 0.938961446
vt 0.0398797616 0.953657627
vt 0.0269200187 0.966847181
vt 0.128672153 0.954061329
vt 0.129665971 0.968520224
vt 0.124637179 0.937944889
vt 0.0411556512 0.968007326
vt 0.0285503697 0.982197046
vt 0.223476738 0.954492331
vt 0.223366603 0.937944889
vt 0.224169448 0.969067931
vt 0.224861771 0.983641863
vt 0.0427277908 0.982354522
vt 0.130812645 0.982977092
vt 0.225403175 0.998979211
vt 0.127406687 0.998979211
vt 0.0356248319 0.998979211
vt 0.024298897 0.999254882
vt 0.0321688429 0.937944889
vt 0.0260533486 0.952429533
vt 0.0212959703 0.938961446
vt 0.0398797616 0.953657627
vt 0.0269200187 0.966847181
vt 0.112814121 0.953989208
vt 0.113858335 0.968428612
vt 0.108122639 0.937944889
vt 0.0411556512 0.968007326
vt 0.0285503697 0.982197046
vt 0.223476738 0.954492331
vt 0.223366603 0.937944889
vt 0.224169448 0.969067931
vt 0.224861771 0.983641863
vt 0.0427277908 0.982354522
vt 0.115080975 0.98286593
vt 0.225403175 0.998979211
vt 0.111014754 0.998979211
vt 0.0356248319 0.998979211
vt 0.024298897 0.999254882
vt 0.0260533486 0.952429533
vt 0.0321688429 0.937944889
vt 0.0212959703 0.938961446
vt 0.0398797616 0.953657627
vt 0.0269200187 0.966847181
vt 0.128672153 0.954061329
vt 0.129665971 0.968520224
vt 0.124637179 0.937944889
vt 0.0411556512 0.968007326
vt 0.0285503697 0.982197046
vt 0.223476738 0.954492331
vt 0.223366603 0.937944889
vt 0.224169448 0.969067931
vt 0.224861771 0.983641863
vt 0.0427277908 0.982354522
vt 0.130812645 0.982977092
vt 0.225403175 0.998979211
vt 0.127406687 0.998979211
vt 0.0356248319 0.998979211
vt 0.024298897 0.999254882
vt 0.0321688429 0.937944889
vt 0.0260533486 0.952429533
vt 0.0212959703 0.938961446
vt 0.0398797616 0.953657627
vt 0.0269200187 0.966847181
vt 0.112814121 0.953989208
vt 0.113858335 0.968428612
vt 0.108122639 0.937944889
vt 0.0411556512 0.968007326
vt 0.0285503697 0.982197046
vt 0.223476738 0.954492331
vt 0.223366603 0.937944889
vt 0.224169448 0.969067931
vt 0.224861771 0.983641863
vt 0.0427277908 0.982354522
vt 0.115080975 0.98286593
vt 0.225403175 0.998979211
vt 0.111014754 0.998979211
vt 0.0356248319 0.998979211
vt 0.024298897 0.999254882
vt 0.0102792615 0.979197025
vt 0.022900559 0.981988192
vt 0.014037081 0.989091158
vt 0.00849005859 0.996464431
vt 0.0216879789 0.993533313
vt 0.022900559 0.981988192
vt 0.0102792615 0.979197025
vt 0.014037081 0.989091158
vt 0.0216879789 0.993533313
vt 0.00849005859 0.996464431
vt 0.0102792615 0.979197025
vt 0.022900559 0.981988192
vt 0.014037081 0.989091158
vt 0.00849005859 0.996464431
vt 0.0216879789 0.993533313
vt 0.022900559 0.981988192
vt 0.0102792615 0.979197025
vt 0.014037081 0.989091158
vt 0.0216879789 0.993533313
vt 0.00849005859 0.996464431
g submesh0
f 1/1/1 2/2/2 3/3/3
f 2/2/2 1/1/1 4/4/4
f 4/4/4 5/5/5 2/2/2
f 6/6/6 4/4/4 1/1/1
f 5/5/5 4/4/4 7/7/7
f 4/4/4 6/6/6 8/8/8
f 8/8/8 7/7/7 4/4/4
f 9/9/9 8/8/8 6/6/6
f 7/7/7 8/8/8 10/10/10
f 8/8/8 9/9/9 11/11/11
f 11/11/11 10/10/10 8/8/8
f 12/12/12 11/11/11 9/9/9
f 10/10/10 11/11/11 13/13/13
f 11/11/11 12/12/12 14/14/14
f 14/14/14 13/13/13 11/11/11
f 13/13/13 14/14/14 15/15/15
f 16/16/16 17/17/17 18/18/18
f 17/17/17 16/16/16 19/19/19
f 19/19/19 20/20/20 17/17/17
f 20/20/20 19/19/19 21/21/21
f 21/21/21 22/22/22 20/20/20
f 22/22/22 21/21/21 23/23/23
f 23/23/23 24/24/24 22/22/22
f 24/24/24 23/23/23 25/25/25
f 26/26/26 27/27/27 28/28/28
f 27/27/27 26/26/26 29/29/29
f 29/29/29 30/30/30 27/27/27
f 31/31/31 29/29/29 26/26/26
f 30/30/30 29/29/29 32/32/32
f 29/29/29 31/31/31 33/33/33
f 33/33/33 32/32/32 29/29/29
f 34/34/34 33/33/33 31/31/31
f 32/32/32 33/33/33 35/35/35
f 33/33/33 34/34/34 36/36/36
f 36/36/36 35/35/35 33/33/33
f 37/37/37 36/36/36 34/34/34
f 35/35/35 36/36/36 38/38/38
f 36/36/36 37/37/37 39/39/39
f 39/39/39 38/38/38 36/36/36
f 38/38/38 39/39/39 40/40/40
f 41/41/41 42/42/42 43/43/43
f 42/42/42 41/41/41 44/44/44
f 44/44/44 45/45/45 42/42/42
f 45/45/45 44/44/44 46/46/46
f 46/46/46 47/47/47 45/45/45
f 47/47/47 46/46/46 48/48/48
f 48/48/48 49/49/49 47/47/47
f 49/49/49 48/48/48 50/50/50
f 51/51/51 52/52/52 53/53/53
f 52/52/52 51/51/51 54/54/54
f 54/54/54 55/55/55 52/52/52
f 56/56/56 54/54/54 51/51/51
f 55/55/55 54/54/54 57/57/57
f 54/54/54 56/56/56 58/58/58
f 58/58/58 57/57/57 54/54/54
f 59/59/59 58/58/58 56/56/56
f 57/57/57 58/58/58 60/60/60
f 58/58/58 59/59/59 61/61/61
f 61/61/61 60/60/60 58/58/58
f 62/62/62 61/61/61 59/59/59
f 60/60/60 61/61/61 63/63/63
f 61/61/61 62/62/62 64/64/64
f 64/64/64 63/63/63 61/61/61
f 63/63/63 64/64/64 65/65/65
f 66/66/66 67/67/67 68/68/68
f 67/67/67 66/66/66 69/69/69
f 69/69/69 70/70/70 67/67/67
f 70/70/70 69/69/69 71/71/71
f 71/71/71 72/72/72 70/70/70
f 72/72/72 71/71/71 73/73/73
f 73/73/73 74/74/74 72/72/72
f 74/74/74 73/73/73 75/75/75
f 76/76/76 77/77/77 78/78/78
f 77/77/77 76/76/76 79/79/79
f 79/79/79 80/80/80 77/77/77
f 81/81/81 79/79/79 76/76/76
f 80/80/80 79/79/79 82/82/82
f 79/79/79 81/81/81 83/83/83
f 83/83/83 82/82/82 79/79/79
f 84/84/84 83/83/83 81/81/81
f 82/82/82 83/83/83 85/85/85
f 83/83/83 84/84/84 86/86/86
f 86/86/86 85/85/85 83/83/83
f 87/87/87 86/86/86 84/84/84
f 85/85/85 86/86/86 88/88/88
f 86/86/86 87/87/87 89/89/89
f 89/89/89 88/88/88 86/86/86
f 88/88/88 89/89/89 90/90/90
f 91/91/91 92/92/92 93/93/93
f 92/92/92 91/91/91 94/94/94
f 94/94/94 95/95/95 92/92/92
f 95/95/95 94/94/94 96/96/96
f 96/96/96 97/97/97 95/95/95
f 97/97/97 96/96/96 98/98/98
f 98/98/98 99/99/99 97/97/97
f 99/99/99 98/98/98 100/100/100
f 101/101/101 102/102/102 103/103/103
f 102/102/102 101/101/101 104/104/104
f 104/104/104 105/105/105 102/102/102
f 106/106/106 104/104/104 101/101/101
f 105/105/105 104/104/104 107/107/107
f 104/104/104 106/106/106 108/108/108
f 108/108/108 107/107/107 104/104/104
f 109/109/109 108/108/108 106/106/106
f 107/107/107 108/108/108 110/110/110
f 108/108/108 109/109/109 111/111/111
f 111/111/111 110/110/110 108/108/108
f 112/112/112 111/111/111 109/109/109
f 110/110/110 111/111/111 113/113/113
f 111/111/111 112/112/112 114/114/114
f 114/114/114 113/113/113 111/111/111
f 113/113/113 114/114/114 115/115/115
f 116/116/116 117/117/117 118/118/118
f 117/117/117 116/116/116 119/119/119
f 119/119/119 120/120/120 117/117/117
f 120/120/120 119/119/119 121/121/121
f 121/121/121 122/122/122 120/120/120
f 122/122/122 121/121/121 123/123/123
f 123/123/123 124/124/124 122/122/122
f 124/124/124 123/123/123 125/125/125
f 126/126/126 127/127/127 128/128/128
f 127/127/127 126/126/126 129/129/129
f 129/129/129 130/130/130 127/127/127
f 131/131/131 129/129/129 126/126/126
f 130/130/130 129/129/129 132/132/132
f 129/129/129 131/131/131 133/133/133
f 133/133/133 132/132/132 129/129/129
f 134/134/134 133/133/133 131/131/131
f 132/132/132 133/133/133 135/135/135
f 133/133/133 134/134/134 136/136/136
f 136/136/136 135/135/135 133/133/133
f 137/137/137 136/136/136 134/134/134
f 135/135/135 136/136/136 138/138/138
f 136/136/136 137/137/137 139/139/139
f 139/139/139 138/138/138 136/136/136
f 138/138/138 139/139/139 140/140/140
f 141/141/141 142/142/142 143/143/143
f 142/142/142 141/141/141 144/144/144
f 144/144/144 145/145/145 142/142/142
f 145/145/145 144/144/144 146/146/146
f 146/146/146 147/147/147 145/145/145
f 147/147/147 146/146/146 148/148/148
f 148/148/148 149/149/149 147/147/147
f 149/149/149 148/148/148 150/150/150
f 151/151/151 152/152/152 153/153/153
f 152/152/152 151/151/151 154/154/154
f 154/154/154 155/155/155 152/152/152
f 156/156/156 154/154/154 151/151/151
f 155/155/155 154/154/154 157/157/157
f 154/154/154 156/156/156 158/158/158
f 158/158/158 157/157/157 154/154/154
f 159/159/159 158/158/158 156/156/156
f 157/157/157 158/158/158 160/160/160
f 158/158/158 159/159/159 161/161/161
f 161/161/161 160/160/160 158/158/158
f 162/162/162 161/161/161 159/159/159
f 160/160/160 161/161/161 163/163/163
f 161/161/161 162/162/162 164/164/164
f 164/164/164 163/163/163 161/161/161
f 163/163/163 164/164/164 165/165/165
f 166/166/166 167/167/167 168/168/168
f 167/167/167 166/166/166 169/169/169
f 169/169/169 170/170/170 167/167/167
f 170/170/170 169/169/169 171/171/171
f 171/171/171 172/172/172 170/170/170
f 172/172/172 171/171/171 173/173/173
f 173/173/173 174/174/174 172/172/172
f 174/174/174 173/173/173 175/175/175
f 176/176/176 177/177/177 178/178/178
f 177/177/177 176/176/176 179/179/179
f 179/179/179 180/180/180 177/177/177
f 181/181/181 179/179/179 176/176/176
f 180/180/180 179/179/179 182/182/182
f 179/179/179 181/181/181 183/183/183
f 183/183/183 182/182/182 179/179/179
f 184/184/184 183/183/183 181/181/181
f 182/182/182 183/183/183 185/185/185
f 183/183/183 184/184/184 186/186/186
f 186/186/186 185/185/185 183/183/183
f 187/187/187 186/186/186 184/184/184
f 185/185/185 186/186/186 188/188/188
f 186/186/186 187/187/187 189/189/189
f 189/189/189 188/188/188 186/186/186
f 188/188/188 189/189/189 190/190/190
f 191/191/191 192/192/192 193/193/193
f 192/192/192 191/191/191 194/194/194
f 194/194/194 195/195/195 192/192/192
f 195/195/195 194/194/194 196/196/196
f 196/196/196 197/197/197 195/195/195
f 197/197/197 196/196/196 198/198/198
f 198/198/198 199/199/199 197/197/197
f 199/199/199 198/198/198 200/200/200
f 201/201/201 202/202/202 203/203/203
f 202/202/202 201/201/201 204/204/204
f 204/204/204 205/205/205 202/202/202
f 206/206/206 204/204/204 201/201/201
f 205/205/205 204/204/204 207/207/207
f 204/204/204 206/206/206 208/208/208
f 208/208/208 207/207/207 204/204/204
f 209/209/209 208/208/208 206/206/206
f 207/207/207 208/208/208 210/210/210
f 208/208/208 209/209/209 211/211/211
f 211/211/211 210/210/210 208/208/208
f 212/212/212 211/211/211 209/209/209
f 210/210/210 211/211/211 213/213/213
f 211/211/211 212/212/212 214/214/214
f 214/214/214 213/213/213 211/211/211
f 213/213/213 214/214/214 215/215/215
f 216/216/216 217/217/217 218/218/218
f 217/217/217 216/216/216 219/219/219
f 219/219/219 220/220/220 217/217/217
f 220/220/220 219/219/219 221/221/221
f 221/221/221 222/222/222 220/220/220
f 222/222/222 221/221/221 223/223/223
f 223/223/223 224/224/224 222/222/222
f 224/224/224 223/223/223 225/225/225
f 226/226/226 227/227/227 228/228/228
f 227/227/227 226/226/226 229/229/229
f 229/229/229 230/230/230 227/227/227
f 231/231/231 229/229/229 226/226/226
f 230/230/230 229/229/229 232/232/232
f 229/229/229 231/231/231 233/233/233
f 233/233/233 232/232/232 229/229/229
f 234/234/234 233/233/233 231/231/231
f 232/232/232 233/233/233 235/235/235
f 233/233/233 234/234/234 236/236/236
f 236/236/236 235/235/235 233/233/233
f 237/237/237 236/236/236 234/234/234
f 235/235/235 236/236/236 238/238/238
f 236/236/236 237/237/237 239/239/239
f 239/239/239 238/238/238 236/236/236
f 238/238/238 239/239/239 240/240/240
f 241/241/241 242/242/242 243/243/243
f 242/242/242 241/241/241 244/244/244
f 244/244/244 245/245/245 242/242/242
f 245/245/245 244/244/244 246/246/246
f 246/246/246 247/247/247 245/245/245
f 247/247/247 246/246/246 248/248/248
f 248/248/248 249/249/249 247/247/247
f 249/249/249 248/248/248 250/250/250
f 251/251/251 252/252/252 253/253/253
f 252/252/252 251/251/251 254/254/254
f 255/255/255 254/254/254 251/251/251
f 256/256/256 252/252/252 254/254/254
f 254/254/254 257/257/257 256/256/256
f 252/252/252 256/256/256 258/258/258
f 254/254/254 255/255/255 259/259/259
f 257/257/257 254/254/254 259/259/259
f 260/260/260 259/259/259 255/255/255
f 261/261/261 258/258/258 256/256/256
f 257/257/257 261/261/261 256/256/256
f 258/258/258 261/261/261 262/262/262
f 261/261/261 257/257/257 263/263/263
f 257/257/257 264/264/264 263/263/263
f 259/259/259 260/260/260 265/265/265
f 265/265/265 257/257/257 259/259/259
f 264/264/264 257/257/257 266/266/266
f 257/257/257 265/265/265 266/266/266
f 266/266/266 267/267/267 264/264/264
f 267/267/267 266/266/266 268/268/268
f 265/265/265 268/268/268 266/266/266
f 268/268/268 265/265/265 269/269/269
f 260/260/260 269/269/269 265/265/265
f 269/269/269 260/260/260 270/270/270
f 271/271/271 272/272/272 273/273/273
f 272/272/272 271/271/271 274/274/274
f 274/274/274 275/275/275 272/272/272
f 271/271/271 276/276/276 274/274/274
f 277/277/277 274/274/274 276/276/276
f 276/276/276 271/271/271 278/278/278
f 275/275/275 274/274/274 279/279/279
f 274/274/274 277/277/277 279/279/279
f 279/279/279 280/280/280 275/275/275
f 278/278/278 281/281/281 276/276/276
f 281/281/281 277/277/277 276/276/276
f 281/281/281 278/278/278 282/282/282
f 277/277/277 281/281/281 283/283/283
f 284/284/284 277/277/277 283/283/283
f 277/277/277 285/285/285 279/279/279
f 280/280/280 279/279/279 285/285/285
f 277/277/277 284/284/284 286/286/286
f 285/285/285 277/277/277 286/286/286
f 287/287/287 286/286/286 284/284/284
f 286/286/286 287/287/287 288/288/288
f 288/288/288 285/285/285 286/286/286
f 285/285/285 288/288/288 289/289/289
f 289/289/289 280/280/280 285/285/285
f 280/280/280 289/289/289 290/290/290
f 291/291/291 292/292/292 293/293/293
f 292/292/292 291/291/291 294/294/294
f 295/295/295 294/294/294 291/291/291
f 296/296/296 292/292/292 294/294/294
f 294/294/294 297/297/297 296/296/296
f 292/292/292 296/296/296 298/298/298
f 294/294/294 295/295/295 299/299/299
f 297/297/297 294/294/294 299/299/299
f 300/300/300 299/299/299 295/295/295
f 301/301/301 298/298/298 296/296/296
f 297/297/297 301/301/301 296/296/296
f 298/298/298 301/301/301 302/302/302
f 301/301/301 297/297/297 303/303/303
f 297/297/297 304/304/304 303/303/303
f 299/299/299 300/300/300 305/305/305
f 305/305/305 297/297/297 299/299/299
f 304/304/304 297/297/297 306/306/306
f 297/297/297 305/305/305 306/306/306
f 306/306/306 307/307/307 304/304/304
f 307/307/307 306/306/306 308/308/308
f 305/305/305 308/308/308 306/306/306
f 308/308/308 305/305/305 309/309/309
f 300/300/300 309/309/309 305/305/305
f 309/309/309 300/300/300 310/310/310
f 311/311/311 312/312/312 313/313/313
f 312/312/312 311/311/311 314/314/314
f 314/314/314 315/315/315 312/312/312
f 311/311/311 316/316/316 314/314/314
f 317/317/317 314/314/314 316/316/316
f 316/316/316 311/311/311 318/318/318
f 315/315/315 314/314/314 319/319/319
f 314/314/314 317/317/317 319/319/319
f 319/319/319 320/320/320 315/315/315
f 318/318/318 321/321/321 316/316/316
f 321/321/321 317/317/317 316/316/316
f 321/321/321 318/318/318 322/322/322
f 317/317/317 321/321/321 323/323/323
f 324/324/324 317/317/317 323/323/323
f 317/317/317 325/325/325 319/319/319
f 320/320/320 319/319/319 325/325/325
f 317/317/317 324/324/324 326/326/326
f 325/325/325 317/317/317 326/326/326
f 327/327/327 326/326/326 324/324/324
f 326/326/326 327/327/327 328/328/328
f 328/328/328 325/325/325 326/326/326
f 325/325/325 328/328/328 329/329/329
f 329/329/329 320/320/320 325/325/325
f 320/320/320 329/329/329 330/330/330
f 331/331/331 332/332/332 333/333/333
f 334/334/334 331/331/331 333/333/333
f 332/332/332 335/335/335 333/333/333
f 335/335/335 334/334/334 333/333/333
f 336/336/336 337/337/337 338/338/338
f 339/339/339 336/336/336 338/338/338
f 340/340/340 338/338/338 337/337/337
f 339/339/339 338/338/338 340/340/340
f 341/341/341 342/342/342 343/343/343
f 344/344/344 341/341/341 343/343/343
f 342/342/342 345/345/345 343/343/343
f 345/345/345 344/344/344 343/343/343
f 346/346/346 347/347/347 348/348/348
f 349/349/349 346/346/346 348/348/348
f 350/350/350 348/348/348 347/347/347
f 349/349/349 348/348/348 350/350/350
