# legacy_wood_log_pile_b_COL
v 0.528523564 0.266160488 0.24769327
v -0.537069917 0.262236625 0.15197739
v -0.544035256 0.191918939 0.234649003
v 0.503964603 0.1664038 0.297243059
v -0.549505949 0.0904726759 0.241748616
v 0.545353234 0.0514791235 0.276353359
v -0.551735342 0.0401442982 0.18966651
v 0.549788773 -0.00460692169 0.164977297
v -0.549933672 0.0306962058 0.103033796
v -0.537069917 0.262236625 0.15197739
v -0.522049963 -0.00470544398 -0.0228310134
v 0.527044833 0.073887974 0.0180532522
v -0.521459997 0.387084752 0.0942899957
v -0.525748432 0.317682385 -0.105825171
v -0.519585788 0.445346743 0.0449278057
v -0.509248793 0.412914485 -0.0856914595
v -0.552681863 -0.00470544398 -0.184785247
v -0.528382123 0.266137898 -0.247700185
v -0.543103516 0.0683264434 -0.280786335
v -0.501645029 0.170717731 -0.29011333
v 0.527044833 0.073887974 0.0180532522
v -0.522049963 -0.00470544398 -0.0228310134
v -0.552681863 -0.00470544398 -0.184785247
v -0.543103516 0.0683264434 -0.280786335
v 0.549322963 0.0311126672 -0.0900127739
v -0.501645029 0.170717731 -0.29011333
v 0.547103107 0.0928952992 -0.239085212
v -0.528382123 0.266137898 -0.247700185
v 0.540600002 0.23233974 -0.208706453
v 0.527044833 0.073887974 0.0180532522
v 0.543453634 0.309996337 -0.103401572
v -0.525748432 0.317682385 -0.105825171
v 0.537395656 0.352258682 0.100119367
v 0.528523564 0.266160488 0.24769327
v 0.549788773 -0.00460692169 0.164977297
v 0.503964603 0.1664038 0.297243059
v 0.545353234 0.0514791235 0.276353359
v -0.537069917 0.262236625 0.15197739
v -0.521459997 0.387084752 0.0942899957
v 0.537395656 0.401404023 0.0516841672
v -0.519585788 0.445346743 0.0449278057
v 0.534369886 0.393709123 -0.0613335259
v -0.509248793 0.412914485 -0.0856914595
v 0.543453634 0.309996337 -0.103401572
v -0.525748432 0.317682385 -0.105825171
v 0.97369045 0.195110276 0.223321706
v 0.897827744 0.150415152 0.0995561928
v 0.917818725 0.214253128 0.143182606
v 0.968460202 0.0160378069 0.209257469
v 0.9880265 0.0956728309 0.255007386
v -0.0641050339 0.119487062 0.980532348
v 0.912972152 0.0265743323 0.127058655
v -0.152520388 0.0391906016 0.844820261
v -0.0755680799 0.0245125126 0.957903862
v -0.152520388 0.0391906016 0.844820261
v -0.152498573 0.179524362 0.855597973
v -0.0850889087 0.18489179 0.945694327
v 0.9880265 0.0956728309 0.255007386
v -0.0850889087 0.18489179 0.945694327
v -0.0641050339 0.119487062 0.980532348
v 0.97369045 0.195110276 0.223321706
v -0.152498573 0.179524362 0.855597973
v 0.917818725 0.214253128 0.143182606
v 0.897827744 0.150415152 0.0995561928
v -0.152520388 0.0391906016 0.844820261
v 0.912972152 0.0265743323 0.127058655
v 0.968460202 0.0160378069 0.209257469
v -0.0755680799 0.0245125126 0.957903862
v -0.152520388 0.0391906016 0.844820261
v 0.421013743 0.0416401029 -0.889661312
v 0.352571011 0.0883785412 -0.855747223
v 0.51554662 0.0829647407 -0.907561541
v 0.347657353 0.207887962 -0.838901103
v 0.720129609 0.0759289786 0.144402131
v 0.473998278 0.249361068 -0.874618292
v 0.535805643 0.148004502 -0.906332076
v 0.866457105 0.19670172 0.0998534262
v 0.720728219 0.185365885 0.135827675
v 0.899154484 0.0911801979 0.0908705518
v 0.809647024 0.0203937311 0.122408815
v 0.866457105 0.19670172 0.0998534262
v 0.535805643 0.148004502 -0.906332076
v 0.473998278 0.249361068 -0.874618292
v 0.899154484 0.0911801979 0.0908705518
v 0.51554662 0.0829647407 -0.907561541
v 0.809647024 0.0203937311 0.122408815
v 0.421013743 0.0416401029 -0.889661312
v 0.352571011 0.0883785412 -0.855747223
v 0.720129609 0.0759289786 0.144402131
v 0.392128795 0.808161438 0.254594713
v 0.248066559 0.823320985 0.232270718
v 0.2957021 0.788598061 0.267596662
v 0.261476308 0.91439116 0.150406018
v 0.199807316 0.0554931909 -0.471981943
v 0.345882475 0.931471705 0.13030526
v 0.426381975 0.878291368 0.195456773
v 0.410977483 0.0708443522 -0.519724071
v 0.354025334 0.128608719 -0.57306695
v 0.374923557 0.00419997517 -0.43653366
v 0.249987572 0.0087166084 -0.428101212
v 0.236032516 0.136207908 -0.552351415
v 0.199807316 0.0554931909 -0.471981943
v 0.2957021 0.788598061 0.267596662
v 0.248066559 0.823320985 0.232270718
v 0.249987572 0.0087166084 -0.428101212
v 0.374923557 0.00419997517 -0.43653366
v 0.392128795 0.808161438 0.254594713
v 0.426381975 0.878291368 0.195456773
v 0.410977483 0.0708443522 -0.519724071
v -0.487429947 0.83119148 -0.0572166704
v -0.377829343 0.881977737 0.0184536576
v 0.16941458 0.171421617 -0.524418712
v 0.0579623729 0.126555815 -0.596269846
v -0.535374463 0.756962061 0.00108796358
v 0.0222303644 0.0588950142 -0.554994643
v 0.0589541793 -0.000960871577 -0.463913023
v -0.480342507 0.743766367 0.110120296
v 0.150009841 0.0519217327 -0.411535263
v 0.0222303644 0.0588950142 -0.554994643
v 0.0579623729 0.126555815 -0.596269846
v 0.0589541793 -0.000960871577 -0.463913023
v 0.16941458 0.171421617 -0.524418712
v -0.480342507 0.743766367 0.110120296
v 0.182383835 0.129067957 -0.456844628
v -0.377829343 0.881977737 0.0184536576
v -0.381541729 0.804518342 0.116510391
v -0.535374463 0.756962061 0.00108796358
v -0.487429947 0.83119148 -0.0572166704
vn 0.626874387 0.502478719 0.595435679
vn -0.775338173 0.453260124 0.439779431
vn -0.64887327 0.258713394 0.715563297
vn 0.527228713 0.293287247 0.797503829
vn -0.67378974 -0.404860318 0.61813879
vn 0.741761923 -0.291202903 0.604144156
vn -0.741853714 -0.6081177 0.282570273
vn 0.638154387 -0.75591886 0.146101549
vn -0.790731788 -0.61163342 -0.0254507009
vn -0.775338173 0.453260124 0.439779431
vn -0.62267822 -0.777577519 -0.0874359533
vn 0.776467144 -0.628404617 -0.0469715372
vn -0.662302613 0.547099888 0.511895597
vn -0.812731087 0.416685641 -0.407236159
vn -0.560938239 0.794113696 0.233948052
vn -0.521891832 0.654694676 -0.546812415
vn -0.656467915 -0.750849128 -0.0726327598
vn -0.632399797 0.541303456 -0.554130912
vn -0.608308017 -0.612836719 -0.504373491
vn -0.476349056 -0.110332996 -0.872306347
vn 0.776467144 -0.628404617 -0.0469715372
vn -0.62267822 -0.777577519 -0.0874359533
vn -0.656467915 -0.750849128 -0.0726327598
vn -0.608308017 -0.612836719 -0.504373491
vn 0.685694396 -0.665492713 -0.294860721
vn -0.476349056 -0.110332996 -0.872306347
vn 0.583629608 -0.195058629 -0.788244009
vn -0.632399797 0.541303456 -0.554130912
vn 0.654014111 0.511371851 -0.557462513
vn 0.776467144 -0.628404617 -0.0469715372
vn 0.803350985 0.414164037 -0.42789638
vn -0.812731087 0.416685641 -0.407236159
vn 0.736879587 0.448735744 0.505613089
vn 0.626874387 0.502478719 0.595435679
vn 0.638154387 -0.75591886 0.146101549
vn 0.527228713 0.293287247 0.797503829
vn 0.741761923 -0.291202903 0.604144156
vn -0.775338173 0.453260124 0.439779431
vn -0.662302613 0.547099888 0.511895597
vn 0.629629612 0.735665679 0.249725074
vn -0.560938239 0.794113696 0.233948052
vn 0.594337642 0.626146317 -0.504681706
vn -0.521891832 0.654694676 -0.546812415
vn 0.803350985 0.414164037 -0.42789638
vn -0.812731087 0.416685641 -0.407236159
vn 0.756288052 0.652550936 0.0469646566
vn 0.0679112002 0.0350035653 -0.997077227
vn 0.236405447 0.680457115 -0.693606973
vn 0.74253571 -0.669506311 -0.0200503673
vn 0.921918571 0.00427795062 0.387360096
vn -0.0841452628 0.00693541206 0.996429384
vn 0.192462265 -0.615213275 -0.764506996
vn -0.868622601 -0.45901069 -0.186558291
vn -0.219275445 -0.716292799 0.662452221
vn -0.868622601 -0.45901069 -0.186558291
vn -0.758675635 0.649034739 -0.0562598705
vn -0.221825704 0.66891408 0.709469736
vn 0.921918571 0.00427795062 0.387360096
vn -0.221825704 0.66891408 0.709469736
vn -0.0841452628 0.00693541206 0.996429384
vn 0.756288052 0.652550936 0.0469646566
vn -0.758675635 0.649034739 -0.0562598705
vn 0.236405447 0.680457115 -0.693606973
vn 0.0679112002 0.0350035653 -0.997077227
vn -0.868622601 -0.45901069 -0.186558291
vn 0.192462265 -0.615213275 -0.764506996
vn 0.74253571 -0.669506311 -0.0200503673
vn -0.219275445 -0.716292799 0.662452221
vn -0.868622601 -0.45901069 -0.186558291
vn -0.237561733 -0.679235101 -0.694409132
vn -0.85663265 -0.337332487 -0.390368164
vn 0.394735396 -0.429500222 -0.812227547
vn -0.778744221 0.539084136 -0.320851296
vn -0.465656012 -0.376741648 0.800768554
vn 0.151444629 0.767523766 -0.622873843
vn 0.545937836 0.12863192 -0.827892303
vn 0.530451715 0.707357943 0.467189163
vn -0.431054145 0.524445355 0.73426795
vn 0.900322676 -0.213744417 0.379120678
vn 0.186616838 -0.789299726 0.584961593
vn 0.530451715 0.707357943 0.467189163
vn 0.545937836 0.12863192 -0.827892303
vn 0.151444629 0.767523766 -0.622873843
vn 0.900322676 -0.213744417 0.379120678
vn 0.394735396 -0.429500222 -0.812227547
vn 0.186616838 -0.789299726 0.584961593
vn -0.237561733 -0.679235101 -0.694409132
vn -0.85663265 -0.337332487 -0.390368164
vn -0.465656012 -0.376741648 0.800768554
vn 0.475755304 0.0302987341 0.879055619
vn -0.756148577 0.296745718 0.583250642
vn -0.288285285 -0.0831119418 0.953930795
vn -0.545042574 0.838111639 0.0223021191
vn -0.807024956 -0.538736224 -0.241813928
vn 0.269982547 0.951084793 -0.150157183
vn 0.748517692 0.561813891 0.35225898
vn 0.715139985 -0.418369025 -0.559948206
vn 0.225434303 0.0307165813 -0.973773956
vn 0.474864513 -0.876853466 0.0750454664
vn -0.32549727 -0.935615838 0.136655405
vn -0.610211909 0.0288842469 -0.791711509
vn -0.807024956 -0.538736224 -0.241813928
vn -0.288285285 -0.0831119418 0.953930795
vn -0.756148577 0.296745718 0.583250642
vn -0.32549727 -0.935615838 0.136655405
vn 0.474864513 -0.876853466 0.0750454664
vn 0.475755304 0.0302987341 0.879055619
vn 0.748517692 0.561813891 0.35225898
vn 0.715139985 -0.418369025 -0.559948206
vn -0.580231607 0.694836199 -0.424892902
vn 0.183891296 0.96064347 0.208202079
vn 0.802766442 0.217206851 -0.555326283
vn 0.0539761856 -0.0700603873 -0.996081412
vn -0.997919142 0.0639401078 -0.00830718223
vn -0.299132794 -0.730430186 -0.613996208
vn 0.0840698183 -0.994269133 0.0660382956
vn -0.67186898 -0.0792236924 0.73642081
vn 0.779735327 -0.537156522 0.321676403
vn -0.299132794 -0.730430186 -0.613996208
vn 0.0539761856 -0.0700603873 -0.996081412
vn 0.0840698183 -0.994269133 0.0660382956
vn 0.802766442 0.217206851 -0.555326283
vn -0.67186898 -0.0792236924 0.73642081
vn 0.999387503 -0.0318047553 -0.014601429
vn 0.183891296 0.96064347 0.208202079
vn 0.122827843 0.283293158 0.951135278
vn -0.997919142 0.0639401078 -0.00830718223
vn -0.580231607 0.694836199 -0.424892902
vt 0.710968375 0.891950846
vt 0.710968375 0.891950846
vt 0.727795422 0.915123403
vt 0.727795422 0.915123403
vt 0.758905232 0.91535449
vt 0.758905232 0.91535449
vt 0.770005941 0.901284814
vt 0.78110671 0.887215137
vt 0.78110671 0.887215137
vt 0.35172677 0.980090022
vt 0.776425123 0.853010893
vt 0.776425123 0.853010893
vt 0.32191962 0.98533386
vt 0.237826481 0.415662736
vt 0.310595483 0.971467376
vt 0.31300202 0.94826901
vt 0.297681391 0.408009231
vt 0.237826481 0.415662736
vt 0.28611818 0.384108901
vt 0.247686878 0.380573094
vt 0.297681391 0.408009231
vt 0.285964012 0.426127851
vt 0.297681391 0.408009231
vt 0.28611818 0.384108901
vt 0.28611818 0.384108901
vt 0.247686878 0.380573094
vt 0.247686878 0.380573094
vt 0.237826481 0.415662736
vt 0.237826481 0.415662736
vt 0.776425123 0.853010893
vt 0.237826481 0.415662736
vt 0.237826481 0.415662736
vt 0.32191962 0.98533386
vt 0.35172677 0.980090022
vt 0.78110671 0.887215137
vt 0.727795422 0.915123403
vt 0.758905232 0.91535449
vt 0.35172677 0.980090022
vt 0.32191962 0.98533386
vt 0.310595483 0.971467376
vt 0.310595483 0.971467376
vt 0.31300202 0.94826901
vt 0.31300202 0.94826901
vt 0.342733026 0.933972478
vt 0.342733026 0.933972478
vt 0.243238449 0.320855349
vt 0.283230722 0.326450974
vt 0.261966228 0.314495087
vt 0.252322435 0.37151581
vt 0.238151133 0.353649348
vt 0.65465939 0.938970327
vt 0.276162326 0.366975486
vt 0.677747011 0.983217955
vt 0.682006955 0.94725883
vt 0.677747011 0.983217955
vt 0.639824808 0.981868565
vt 0.638172805 0.951921999
vt 0.238151133 0.353649348
vt 0.638172805 0.951921999
vt 0.65465939 0.938970327
vt 0.243238449 0.320855349
vt 0.639824808 0.981868565
vt 0.261966228 0.314495087
vt 0.283230722 0.326450974
vt 0.677747011 0.983217955
vt 0.276162326 0.366975486
vt 0.252322435 0.37151581
vt 0.682006955 0.94725883
vt 0.677747011 0.983217955
vt 0.123852819 0.996311605
vt 0.145044237 0.982785344
vt 0.0932449251 0.984178364
vt 0.141369507 0.947974086
vt 0.408651412 0.985080779
vt 0.107614011 0.94124192
vt 0.0882206336 0.960461915
vt 0.37772432 0.942656934
vt 0.375515759 0.983241975
vt 0.407200813 0.938227773
vt 0.422368586 0.959133148
vt 0.37772432 0.942656934
vt 0.0882206336 0.960461915
vt 0.107614011 0.94124192
vt 0.407200813 0.938227773
vt 0.0932449251 0.984178364
vt 0.422368586 0.959133148
vt 0.123852819 0.996311605
vt 0.145044237 0.982785344
vt 0.408651412 0.985080779
vt 0.965435565 0.943949699
vt 0.952477276 0.983370423
vt 0.968637824 0.971579015
vt 0.918968081 0.970951796
vt 0.871523023 0.983907104
vt 0.914083242 0.94748348
vt 0.94271934 0.929471254
vt 0.886942387 0.927670836
vt 0.910923481 0.942379534
vt 0.855542958 0.940415204
vt 0.857798219 0.972613156
vt 0.90571177 0.973115027
vt 0.871523023 0.983907104
vt 0.968637824 0.971579015
vt 0.952477276 0.983370423
vt 0.857798219 0.972613156
vt 0.855542958 0.940415204
vt 0.965435565 0.943949699
vt 0.94271934 0.929471254
vt 0.886942387 0.927670836
vt 0.154784843 0.947825253
vt 0.194760859 0.946741879
vt 0.809286356 0.932032883
vt 0.848316252 0.940300822
vt 0.150018305 0.973735571
vt 0.850466549 0.966692328
vt 0.833071291 0.985840797
vt 0.17718783 0.994259119
vt 0.799564779 0.97670269
vt 0.850466549 0.966692328
vt 0.848316252 0.940300822
vt 0.833071291 0.985840797
vt 0.809286356 0.932032883
vt 0.17718783 0.994259119
vt 0.793977976 0.955994606
vt 0.194760859 0.946741879
vt 0.204503596 0.978518367
vt 0.150018305 0.973735571
vt 0.154784843 0.947825253
g submesh0
f 1/1/1 2/2/2 3/3/3
f 1/1/1 3/3/3 4/4/4
f 4/4/4 3/3/3 5/5/5
f 4/4/4 5/5/5 6/6/6
f 6/6/6 5/5/5 7/7/7
f 7/7/7 5/5/5 3/3/3
f 8/8/8 6/6/6 7/7/7
f 9/9/9 7/7/7 3/3/3
f 7/7/7 9/9/9 8/8/8
f 9/9/9 3/3/3 10/10/10
f 8/8/8 9/9/9 11/11/11
f 10/10/10 11/11/11 9/9/9
f 8/8/8 11/11/11 12/12/12
f 13/13/13 11/11/11 10/10/10
f 13/13/13 14/14/14 11/11/11
f 15/15/15 14/14/14 13/13/13
f 15/15/15 16/16/16 14/14/14
f 14/14/14 17/17/17 11/11/11
f 14/14/14 18/18/18 17/17/17
f 18/18/18 19/19/19 17/17/17
f 18/18/18 20/20/20 19/19/19
f 21/21/21 22/22/22 23/23/23
f 21/21/21 23/23/23 24/24/24
f 21/21/21 24/24/24 25/25/25
f 25/25/25 24/24/24 26/26/26
f 25/25/25 26/26/26 27/27/27
f 27/27/27 26/26/26 28/28/28
f 25/25/25 27/27/27 29/29/29
f 27/27/27 28/28/28 29/29/29
f 30/30/30 25/25/25 29/29/29
f 28/28/28 31/31/31 29/29/29
f 30/30/30 29/29/29 31/31/31
f 28/28/28 32/32/32 31/31/31
f 33/33/33 30/30/30 31/31/31
f 33/33/33 34/34/34 30/30/30
f 34/34/34 35/35/35 30/30/30
f 34/34/34 36/36/36 35/35/35
f 36/36/36 37/37/37 35/35/35
f 33/33/33 38/38/38 34/34/34
f 33/33/33 39/39/39 38/38/38
f 40/40/40 33/33/33 31/31/31
f 40/40/40 39/39/39 33/33/33
f 40/40/40 41/41/41 39/39/39
f 40/40/40 31/31/31 42/42/42
f 42/42/42 41/41/41 40/40/40
f 42/42/42 43/43/43 41/41/41
f 44/44/44 43/43/43 42/42/42
f 44/44/44 45/45/45 43/43/43
f 46/46/46 47/47/47 48/48/48
f 49/49/49 47/47/47 46/46/46
f 49/49/49 46/46/46 50/50/50
f 51/51/51 49/49/49 50/50/50
f 47/47/47 49/49/49 52/52/52
f 47/47/47 52/52/52 53/53/53
f 51/51/51 54/54/54 49/49/49
f 54/54/54 51/51/51 55/55/55
f 55/55/55 51/51/51 56/56/56
f 56/56/56 51/51/51 57/57/57
f 58/58/58 59/59/59 60/60/60
f 58/58/58 61/61/61 59/59/59
f 61/61/61 62/62/62 59/59/59
f 61/61/61 63/63/63 62/62/62
f 64/64/64 62/62/62 63/63/63
f 64/64/64 65/65/65 62/62/62
f 66/66/66 67/67/67 68/68/68
f 66/66/66 68/68/68 69/69/69
f 70/70/70 71/71/71 72/72/72
f 72/72/72 71/71/71 73/73/73
f 73/73/73 71/71/71 74/74/74
f 72/72/72 73/73/73 75/75/75
f 75/75/75 76/76/76 72/72/72
f 77/77/77 75/75/75 73/73/73
f 77/77/77 73/73/73 78/78/78
f 73/73/73 74/74/74 78/78/78
f 78/78/78 79/79/79 77/77/77
f 74/74/74 79/79/79 78/78/78
f 74/74/74 80/80/80 79/79/79
f 81/81/81 82/82/82 83/83/83
f 81/81/81 84/84/84 82/82/82
f 82/82/82 84/84/84 85/85/85
f 86/86/86 85/85/85 84/84/84
f 86/86/86 87/87/87 85/85/85
f 86/86/86 88/88/88 87/87/87
f 86/86/86 89/89/89 88/88/88
f 90/90/90 91/91/91 92/92/92
f 90/90/90 93/93/93 91/91/91
f 93/93/93 94/94/94 91/91/91
f 90/90/90 95/95/95 93/93/93
f 96/96/96 95/95/95 90/90/90
f 97/97/97 95/95/95 96/96/96
f 97/97/97 98/98/98 95/95/95
f 98/98/98 93/93/93 95/95/95
f 97/97/97 99/99/99 98/98/98
f 98/98/98 99/99/99 100/100/100
f 98/98/98 100/100/100 94/94/94
f 98/98/98 101/101/101 93/93/93
f 94/94/94 101/101/101 98/98/98
f 93/93/93 101/101/101 94/94/94
f 102/102/102 103/103/103 104/104/104
f 102/102/102 105/105/105 103/103/103
f 103/103/103 105/105/105 106/106/106
f 103/103/103 106/106/106 107/107/107
f 106/106/106 108/108/108 107/107/107
f 106/106/106 109/109/109 108/108/108
f 110/110/110 111/111/111 112/112/112
f 110/110/110 112/112/112 113/113/113
f 114/114/114 110/110/110 113/113/113
f 114/114/114 113/113/113 115/115/115
f 114/114/114 115/115/115 116/116/116
f 114/114/114 116/116/116 117/117/117
f 118/118/118 119/119/119 120/120/120
f 121/121/121 119/119/119 118/118/118
f 118/118/118 120/120/120 122/122/122
f 118/118/118 123/123/123 121/121/121
f 122/122/122 124/124/124 118/118/118
f 124/124/124 122/122/122 125/125/125
f 118/118/118 126/126/126 123/123/123
f 126/126/126 118/118/118 124/124/124
f 126/126/126 124/124/124 125/125/125
f 127/127/127 123/123/123 126/126/126
f 128/128/128 126/126/126 125/125/125
f 127/127/127 126/126/126 128/128/128
