# lift_motor_wheel_COL
v -0.162238896 -0.0936692879 -0.0709019154
v -1.62978111E-08 -0.187337503 -0.0709019899
v -0.0936684757 -0.162239417 -0.0709019527
v -0.0936684757 -0.162239417 0.070902437
v -0.187337533 1.56740825E-08 -0.0709019154
v -0.162238896 -0.0936692879 0.0709023997
v -1.62978111E-08 -0.187337503 0.0709024742
v -0.162238896 0.0936692581 -0.0709018707
v 0.0936684608 -0.162239432 -0.0709019527
v -0.187337533 1.56740825E-08 0.0709023997
v -0.162238896 0.0936692581 0.0709023625
v -0.0936684683 0.162239417 0.0709023625
v -0.0936684683 0.162239417 -0.0709018707
v 1.53687607E-09 0.187337503 -0.0709019154
v 1.53687607E-09 0.187337503 0.0709023997
v 0.0936684683 0.162239373 -0.0709019527
v 0.0936684683 0.162239373 0.070902437
v 0.162238896 0.0936692581 -0.0709019527
v 0.162238896 0.0936692581 0.070902437
v 0.187337488 -2.56111932E-09 0.0709024742
v 0.187337488 -2.56111932E-09 -0.0709019899
v 0.162238896 -0.0936692879 0.0709024742
v 0.162238896 -0.0936692879 -0.0709019899
v 0.0936684608 -0.162239432 0.070902437
g submesh0
f 1 2 3
f 4 1 3
f 2 4 3
f 5 2 1
f 1 4 6
f 6 5 1
f 4 2 7
f 6 4 7
f 8 2 5
f 9 7 2
f 5 6 10
f 10 6 7
f 10 8 5
f 11 10 7
f 8 10 11
f 12 11 7
f 12 8 11
f 13 2 8
f 8 12 13
f 12 14 13
f 14 2 13
f 14 12 15
f 15 12 7
f 15 16 14
f 16 2 14
f 16 15 17
f 17 15 7
f 17 18 16
f 18 2 16
f 19 17 7
f 18 17 19
f 20 18 19
f 20 19 7
f 21 2 18
f 18 20 21
f 22 20 7
f 22 21 20
f 23 2 21
f 21 22 23
f 9 2 23
f 24 22 7
f 7 9 24
f 23 24 9
f 24 23 22
