# lift_shaft_section_fence_COL
v 1.45277679 1.83710384 -1.12752259
v 1.45277655 1.721627 -0.716691494
v 1.45277655 1.74383414 -1.09865332
v 1.45277679 1.88373888 -0.663394451
v 1.45277703 2.80755353 -0.467972279
v 1.45277691 2.80755353 -1.40733182
v 1.45277655 1.6439023 -1.26076496
v 1.45277691 2.17243099 -0.21925275
v 1.45277596 0.431395322 -1.4228766
v 1.45277655 1.53286684 -0.909893036
v 1.45277655 1.65722656 -0.63896668
v 1.45277631 0.570189893 -0.222583652
v 1.45277584 0.151586145 -1.18970203
v 1.45277631 0.391422868 -0.0882307813
v 1.45277631 0.406967759 0.160488576
v 1.45277619 0.151586458 0.495815635
v 1.45277643 0.795591772 0.00725964038
v 1.45277631 0.577962399 0.293731064
v 1.45277631 0.235973358 0.999916494
v 1.45277655 1.44848025 0.73787266
v 1.45277727 2.81643677 -0.054920502
v 1.45277739 2.81643677 1.40630579
v 1.45277655 1.21530581 0.813376844
v 1.45277679 1.55063272 1.00213695
v 1.45277655 1.30191338 1.06431687
v 1.45277631 0.158248752 1.40630615
v 1.4270767 1.83710384 -1.12752259
v 1.42707658 1.74383414 -1.09865332
v 1.42707658 1.72162712 -0.716691494
v 1.4270767 1.88373899 -0.663394451
v 1.42707694 2.80755353 -0.467972249
v 1.42707682 2.80755401 -1.40733182
v 1.42707658 1.6439023 -1.26076496
v 1.42707682 2.17243099 -0.219252735
v 1.42707598 0.431395322 -1.4228766
v 1.42707634 1.53286684 -0.909893036
v 1.42707658 1.65722656 -0.63896668
v 1.42707622 0.570189953 -0.222583652
v 1.42707574 0.15158622 -1.18970203
v 1.42707622 0.391422868 -0.0882307813
v 1.42707622 0.406967849 0.160488561
v 1.4270761 0.151586533 0.495815635
v 1.42707634 0.795591891 0.00725963572
v 1.42707622 0.577962458 0.293731064
v 1.4270761 0.235973433 0.999916494
v 1.42707658 1.44848025 0.73787266
v 1.42707717 2.81643677 -0.054920502
v 1.42707729 2.81643677 1.40630567
v 1.42707658 1.21530592 0.813376844
v 1.42707658 1.55063272 1.00213695
v 1.42707658 1.30191338 1.06431687
v 1.42707622 0.158248827 1.40630591
v -1.45277536 1.83710515 1.12752211
v -1.45277536 1.72162843 0.716691017
v -1.45277524 1.74383557 1.09865284
v -1.45277536 1.88374007 0.663393974
v -1.45277512 2.80755448 0.467971474
v -1.45277476 2.8075552 1.40733111
v -1.45277524 1.64390373 1.2607646
v -1.45277536 2.17243195 0.219252184
v -1.4527756 0.431396812 1.4228766
v -1.45277536 1.53286815 0.909892619
v -1.45277536 1.65722775 0.638966262
v -1.45277584 0.570190966 0.222583592
v -1.4527756 0.151587561 1.18970215
v -1.45277596 0.391423941 0.0882307813
v -1.45277596 0.406968743 -0.160488576
v -1.45277596 0.151587307 -0.495815575
v -1.45277584 0.795592785 -0.00725977262
v -1.45277584 0.577963293 -0.293731123
v -1.45277631 0.235974044 -0.999916434
v -1.4527756 1.44848096 -0.737873077
v -1.45277524 2.81643772 0.0549197085
v -1.4527756 2.81643701 -1.40630662
v -1.45277572 1.21530664 -0.813377142
v -1.45277584 1.55063355 -1.0021373
v -1.45277584 1.30191422 -1.06431711
v -1.45277631 0.158249304 -1.40630615
v -1.42707527 1.83710515 1.12752211
v -1.42707515 1.74383557 1.09865284
v -1.42707527 1.72162855 0.716691017
v -1.42707527 1.88374019 0.663393974
v -1.42707503 2.80755448 0.467971444
v -1.42707467 2.80755544 1.40733111
v -1.42707515 1.64390373 1.2607646
v -1.42707527 2.17243195 0.219252139
v -1.42707551 0.431396782 1.4228766
v -1.42707515 1.53286815 0.909892619
v -1.42707527 1.65722775 0.638966262
v -1.42707574 0.570191026 0.222583592
v -1.42707551 0.15158762 1.18970215
v -1.42707598 0.391423911 0.0882307813
v -1.42707598 0.406968802 -0.160488561
v -1.42707598 0.151587367 -0.495815575
v -1.42707574 0.795592844 -0.0072597703
v -1.42707574 0.577963352 -0.293731123
v -1.4270761 0.235974103 -0.999916434
v -1.42707551 1.44848096 -0.737873077
v -1.42707515 2.81643772 0.0549197085
v -1.42707551 2.81643701 -1.40630639
v -1.42707562 1.21530664 -0.813377142
v -1.42707562 1.55063355 -1.0021373
v -1.42707574 1.30191422 -1.06431711
v -1.42707622 0.158249363 -1.40630591
g submesh0
f 1 2 3
f 1 4 2
f 5 4 1
f 1 6 5
f 7 6 1
f 4 5 8
f 7 9 6
f 10 9 7
f 8 11 4
f 12 9 10
f 12 10 11
f 12 13 9
f 14 13 12
f 15 13 14
f 15 16 13
f 12 11 17
f 17 11 8
f 18 16 15
f 19 16 18
f 17 8 20
f 21 20 8
f 20 21 22
f 17 20 23
f 23 18 17
f 20 22 24
f 18 23 25
f 18 25 19
f 22 25 24
f 25 26 19
f 22 26 25
f 27 28 29
f 27 29 30
f 31 27 30
f 27 31 32
f 33 27 32
f 30 34 31
f 33 32 35
f 36 33 35
f 34 30 37
f 38 36 35
f 38 37 36
f 38 35 39
f 40 38 39
f 41 40 39
f 41 39 42
f 38 43 37
f 43 34 37
f 44 41 42
f 44 42 45
f 43 46 34
f 47 34 46
f 46 48 47
f 43 49 46
f 49 43 44
f 46 50 48
f 51 49 44
f 45 51 44
f 48 50 51
f 51 45 52
f 48 51 52
f 53 54 55
f 53 56 54
f 57 56 53
f 53 58 57
f 59 58 53
f 56 57 60
f 59 61 58
f 62 61 59
f 60 63 56
f 64 61 62
f 64 62 63
f 64 65 61
f 66 65 64
f 67 65 66
f 67 68 65
f 64 63 69
f 69 63 60
f 70 68 67
f 71 68 70
f 69 60 72
f 73 72 60
f 72 73 74
f 69 72 75
f 75 70 69
f 72 74 76
f 70 75 77
f 70 77 71
f 74 77 76
f 77 78 71
f 74 78 77
f 79 80 81
f 79 81 82
f 83 79 82
f 79 83 84
f 85 79 84
f 82 86 83
f 85 84 87
f 88 85 87
f 86 82 89
f 90 88 87
f 90 89 88
f 90 87 91
f 92 90 91
f 93 92 91
f 93 91 94
f 90 95 89
f 95 86 89
f 96 93 94
f 96 94 97
f 95 98 86
f 99 86 98
f 98 100 99
f 95 101 98
f 101 95 96
f 98 102 100
f 103 101 96
f 97 103 96
f 100 102 103
f 103 97 104
f 100 103 104
