# lootbarrel_COL
v 0.0664826408 1.15069366 -0.377041489
v 0.0664826408 2.30871337E-17 -0.377041489
v -0.0664825663 2.30871353E-17 -0.377041548
v -0.0664825663 1.15069366 -0.377041548
v -0.191428974 2.0302488E-17 -0.331564784
v -0.191428974 1.15069366 -0.331564784
v -0.293286234 1.50690586E-17 -0.246096402
v -0.293286234 1.15069366 -0.246096402
v -0.359768808 8.0180784E-18 -0.130945161
v -0.359768808 1.15069366 -0.130945161
v -0.382858008 0 0
v -0.382858008 1.15069366 7.04596615E-17
v -0.359768748 -8.01809329E-18 0.130945399
v -0.359768748 1.15069366 0.130945399
v -0.293286085 -1.50690685E-17 0.246096566
v -0.293286085 1.15069366 0.246096566
v -0.19142881 -2.03024914E-17 0.331564844
v -0.19142881 1.15069366 0.331564844
v -0.0664824024 -2.30871386E-17 0.377041578
v -0.0664824024 1.15069366 0.377041578
v 0.0664827526 -2.30871337E-17 0.377041489
v 0.0664827526 1.15069366 0.377041489
v 0.191429108 -2.03024814E-17 0.331564665
v 0.191429108 1.15069366 0.331564665
v 0.293286324 -1.5069052E-17 0.246096298
v 0.293286324 1.15069366 0.246096298
v 0.359768867 -8.01807261E-18 0.130945072
v 0.359768867 1.15069366 0.130945072
v 0.382858008 3.53983858E-24 -5.78099524E-08
v 0.382858008 1.15069366 -5.78099524E-08
v 0.359768808 8.01807923E-18 -0.130945176
v 0.359768808 1.15069366 -0.130945176
v 0.293286234 1.50690586E-17 -0.246096402
v 0.293286234 1.15069366 -0.246096402
v 0.191429019 2.03024864E-17 -0.331564754
v 0.191429019 1.15069366 -0.331564754
v 0.0664826408 2.30871337E-17 -0.377041489
v 0.0664826408 1.15069366 -0.377041489
v 0.359768867 -8.01807261E-18 0.130945072
v 0.293286324 -1.5069052E-17 0.246096298
v 0.191429108 -2.03024814E-17 0.331564665
v 0.359768808 8.01807923E-18 -0.130945176
v 0.382858008 3.53983858E-24 -5.78099524E-08
v 0.0664826408 2.30871337E-17 -0.377041489
v 0.191429019 2.03024864E-17 -0.331564754
v 0.293286234 1.50690586E-17 -0.246096402
v -0.359768808 8.0180784E-18 -0.130945161
v -0.191428974 2.0302488E-17 -0.331564784
v -0.0664825663 2.30871353E-17 -0.377041548
v -0.293286234 1.50690586E-17 -0.246096402
v -0.19142881 -2.03024914E-17 0.331564844
v 0.0664827526 -2.30871337E-17 0.377041489
v -0.0664824024 -2.30871386E-17 0.377041578
v -0.359768748 -8.01809329E-18 0.130945399
v -0.293286085 -1.50690685E-17 0.246096566
v -0.382858008 0 0
v 0.359768808 1.15069366 -0.130945176
v 0.293286234 1.15069366 -0.246096402
v 0.191429019 1.15069366 -0.331564754
v 0.0664826408 1.15069366 -0.377041489
v 0.191429108 1.15069366 0.331564665
v 0.359768867 1.15069366 0.130945072
v 0.382858008 1.15069366 -5.78099524E-08
v 0.293286324 1.15069366 0.246096298
v -0.359768808 1.15069366 -0.130945161
v -0.191428974 1.15069366 -0.331564784
v -0.0664825663 1.15069366 -0.377041548
v -0.293286234 1.15069366 -0.246096402
v -0.19142881 1.15069366 0.331564844
v 0.0664827526 1.15069366 0.377041489
v -0.0664824024 1.15069366 0.377041578
v -0.359768748 1.15069366 0.130945399
v -0.293286085 1.15069366 0.246096566
v -0.382858008 1.15069366 7.04596615E-17
vn 0.173648313 0 -0.98480773
vn 0.173648313 0 -0.98480773
vn -0.173648 0 -0.984807849
vn -0.173648 0 -0.984807849
vn -0.49999997 0 -0.866025448
vn -0.49999997 0 -0.866025448
vn -0.766044497 0 -0.642787576
vn -0.766044497 0 -0.642787576
vn -0.939692616 0 -0.342020094
vn -0.939692616 0 -0.342020094
vn -1 0 1.15592591E-07
vn -1 0 1.15592591E-07
vn -0.939692438 0 0.342020631
vn -0.939692438 0 0.342020631
vn -0.766043961 0 0.642788112
vn -0.766043961 0 0.642788112
vn -0.499999523 0 0.866025686
vn -0.499999523 0 0.866025686
vn -0.173647717 0 0.984807849
vn -0.173647717 0 0.984807849
vn 0.1736487 0 0.984807611
vn 0.1736487 0 0.984807611
vn 0.500000298 0 0.866025269
vn 0.500000298 0 0.866025269
vn 0.766044557 0 0.642787457
vn 0.766044557 0 0.642787457
vn 0.939692616 0 0.342019886
vn 0.939692616 0 0.342019886
vn 1 0 -1.44490741E-07
vn 1 0 -1.44490741E-07
vn 0.939692557 0 -0.342020184
vn 0.939692557 0 -0.342020184
vn 0.766044497 0 -0.642787576
vn 0.766044497 0 -0.642787576
vn 0.49999997 0 -0.866025448
vn 0.49999997 0 -0.866025448
vn 0.173648313 0 -0.98480773
vn 0.173648313 0 -0.98480773
vn 0 -1 0
vn 0 -1 0
vn 0 -1 0
vn 0 -1 0
vn 0 -1 0
vn 0 -1 0
vn 0 -1 0
vn 0 -1 0
vn 0 -1 0
vn 0 -1 0
vn 0 -1 0
vn 0 -1 0
vn 0 -1 0
vn 0 -1 0
vn 0 -1 0
vn 0 -1 0
vn 0 -1 0
vn 0 -1 0
vn 0 1 0
vn 0 1 0
vn 0 1 0
vn 0 1 0
vn 0 1 0
vn 0 1 0
vn 0 1 0
vn 0 1 0
vn 0 1 0
vn 0 1 0
vn 0 1 0
vn 0 1 0
vn 0 1 0
vn 0 1 0
vn 0 1 0
vn 0 1 0
vn 0 1 0
vn 0 1 0
vt 1.02777779 1
vt 1.02777779 0
vt 0.972222209 0
vt 0.972222209 1
vt 0.916666687 0
vt 0.916666687 1
vt 0.861111045 0
vt 0.861111045 1
vt 0.805555522 0
vt 0.805555522 1
vt 0.75 0
vt 0.75 1
vt 0.694444299 0
vt 0.694444299 1
vt 0.638888836 0
vt 0.638888836 1
vt 0.583333254 0
vt 0.583333254 1
vt 0.527777672 0
vt 0.527777672 1
vt 0.472222149 0
vt 0.472222149 1
vt 0.416666597 0
vt 0.416666597 1
vt 0.361111075 0
vt 0.361111075 1
vt 0.305555522 0
vt 0.305555522 1
vt 0.249999985 0
vt 0.249999985 1
vt 0.194444433 0
vt 0.194444433 1
vt 0.138888896 0
vt 0.138888896 1
vt 0.0833333507 0
vt 0.0833333507 1
vt 0.0277778096 0
vt 0.0277778096 1
vt 0.671010017 0.030153662
vt 0.821393728 0.116977692
vt 0.933012605 0.249999881
vt 0.328989923 0.0301537216
vt 0.49999994 0
vt 0.00759616494 0.413175821
vt 0.0669873059 0.24999994
vt 0.178606212 0.116977781
vt 0.328989923 0.969846249
vt 0.0669872761 0.74999994
vt 0.00759610534 0.586824059
vt 0.178606153 0.883022189
vt 0.933012843 0.749999762
vt 0.992403865 0.413175732
vt 0.992403984 0.586823881
vt 0.671010375 0.969846189
vt 0.821394026 0.88302201
vt 0.49999997 1
vt 0.328989923 0.0301537216
vt 0.178606212 0.116977781
vt 0.0669873059 0.24999994
vt 0.00759616494 0.413175821
vt 0.933012605 0.249999881
vt 0.671010017 0.030153662
vt 0.49999994 0
vt 0.821393728 0.116977692
vt 0.328989923 0.969846249
vt 0.0669872761 0.74999994
vt 0.00759610534 0.586824059
vt 0.178606153 0.883022189
vt 0.933012843 0.749999762
vt 0.992403865 0.413175732
vt 0.992403984 0.586823881
vt 0.671010375 0.969846189
vt 0.821394026 0.88302201
vt 0.49999997 1
g submesh0
f 1/1/1 2/2/2 3/3/3
f 4/4/4 1/1/1 3/3/3
f 4/4/4 3/3/3 5/5/5
f 6/6/6 4/4/4 5/5/5
f 6/6/6 5/5/5 7/7/7
f 8/8/8 6/6/6 7/7/7
f 8/8/8 7/7/7 9/9/9
f 10/10/10 8/8/8 9/9/9
f 10/10/10 9/9/9 11/11/11
f 12/12/12 10/10/10 11/11/11
f 12/12/12 11/11/11 13/13/13
f 14/14/14 12/12/12 13/13/13
f 14/14/14 13/13/13 15/15/15
f 16/16/16 14/14/14 15/15/15
f 16/16/16 15/15/15 17/17/17
f 18/18/18 16/16/16 17/17/17
f 18/18/18 17/17/17 19/19/19
f 20/20/20 18/18/18 19/19/19
f 20/20/20 19/19/19 21/21/21
f 22/22/22 20/20/20 21/21/21
f 22/22/22 21/21/21 23/23/23
f 24/24/24 22/22/22 23/23/23
f 24/24/24 23/23/23 25/25/25
f 26/26/26 24/24/24 25/25/25
f 26/26/26 25/25/25 27/27/27
f 28/28/28 26/26/26 27/27/27
f 28/28/28 27/27/27 29/29/29
f 30/30/30 28/28/28 29/29/29
f 30/30/30 29/29/29 31/31/31
f 32/32/32 30/30/30 31/31/31
f 32/32/32 31/31/31 33/33/33
f 34/34/34 32/32/32 33/33/33
f 34/34/34 33/33/33 35/35/35
f 36/36/36 34/34/34 35/35/35
f 36/36/36 35/35/35 37/37/37
f 38/38/38 36/36/36 37/37/37
f 39/39/39 40/40/40 41/41/41
f 42/42/42 39/39/39 41/41/41
f 42/42/42 43/43/43 39/39/39
f 42/42/42 41/41/41 44/44/44
f 44/44/44 45/45/45 42/42/42
f 45/45/45 46/46/46 42/42/42
f 47/47/47 44/44/44 41/41/41
f 48/48/48 44/44/44 47/47/47
f 48/48/48 49/49/49 44/44/44
f 47/47/47 50/50/50 48/48/48
f 41/41/41 51/51/51 47/47/47
f 51/51/51 41/41/41 52/52/52
f 52/52/52 53/53/53 51/51/51
f 51/51/51 54/54/54 47/47/47
f 51/51/51 55/55/55 54/54/54
f 54/54/54 56/56/56 47/47/47
f 57/57/57 58/58/58 59/59/59
f 59/59/59 60/60/60 57/57/57
f 57/57/57 60/60/60 61/61/61
f 61/61/61 62/62/62 57/57/57
f 62/62/62 63/63/63 57/57/57
f 61/61/61 64/64/64 62/62/62
f 61/61/61 60/60/60 65/65/65
f 65/65/65 60/60/60 66/66/66
f 60/60/60 67/67/67 66/66/66
f 66/66/66 68/68/68 65/65/65
f 65/65/65 69/69/69 61/61/61
f 69/69/69 70/70/70 61/61/61
f 69/69/69 71/71/71 70/70/70
f 69/69/69 65/65/65 72/72/72
f 72/72/72 73/73/73 69/69/69
f 65/65/65 74/74/74 72/72/72
