# main_piston_top_COL
v -2.67174482 -0.028442733 0.564404488
v -2.67174411 -0.0284436885 -0.564408541
v -2.8019793 0.251229495 -0.564408123
v -2.77728486 -0.318419844 -0.564409494
v -2.80198026 0.251230448 0.564403594
v -2.77728581 -0.31841889 0.564405799
v -3.05712509 -0.44849959 -0.564408302
v -3.05712605 -0.448498636 0.564404845
v -3.34697509 -0.342833549 -0.564408898
v -3.34697556 -0.342832595 0.564405024
v -3.09183383 0.356901318 -0.56440872
v -3.09183455 0.356902272 0.564403951
v -3.47720838 -0.063152723 -0.5644086
v -3.47720933 -0.0631517693 0.564404309
v -3.37167478 0.226824239 0.564405203
v -3.37167406 0.22682327 -0.564409971
v -0.0538167767 0.0844189748 -0.56440866
v -0.184627831 -0.274386734 -0.564408004
v -0.184629366 -0.274384826 -1.09229708
v -0.55233556 0.0629479662 -0.564409077
v -0.530826509 -0.435830563 -0.564409256
v -0.0538177304 0.0844182074 -1.09229732
v -0.215031222 0.430633068 -0.564408958
v -0.552337229 0.063008979 -1.09229791
v -0.215032175 0.430632323 -1.09229779
v -0.5738675 0.562224329 -0.564409196
v -0.530826509 -0.435830563 -1.09229875
v -0.573866785 0.562223375 -1.09229875
v -1.8866539 0.505289316 -0.564409614
v -1.86513698 0.00633999379 -0.564409196
v -0.887587547 0.548497736 -0.667791963
v -1.84362316 -0.492544651 -1.09229875
v -1.86513853 0.0063753631 -1.09229815
v -1.88665473 0.505288541 -1.09229946
v -1.84362316 -0.492544651 -0.564409196
v -0.887588739 0.548495293 -0.997936666
v -3.07448363 -0.0458047576 -1.09229851
v -3.0529623 -0.54482621 -1.09229875
v -3.09598207 0.452713221 -1.09230042
v -3.07448268 -0.0458039977 -0.564409196
v -3.0529623 -0.54482621 -0.564408898
v -3.41178727 -0.413515985 -1.09229755
v -3.41178632 -0.41351524 -0.56440872
v -3.57300282 -0.0673026443 -1.09229732
v -3.44219089 0.291501641 -1.09229779
v -3.57300186 -0.0673018843 -0.564408839
v -3.09598088 0.45271349 -0.56441015
v -3.44219089 0.291503817 -0.564408779
v -2.87457299 0.46239379 -0.646845996
v -2.87457418 0.462393016 -1.01888454
v -1.88665473 0.505288541 -1.01888382
v -2.81954908 0.158797845 -0.997937441
v -1.8866539 0.505289316 -0.64684552
v -1.76662779 0.254429787 -0.667792022
v -1.76662827 0.254428536 -0.997936666
v -2.81954837 0.158798605 -0.667792559
v -2.81954885 0.158799559 0.667788506
v -2.81954885 0.158799559 0.997933388
v -1.76662803 0.254430264 0.997933149
v -2.87457299 0.462395519 1.01888001
v -1.88665354 0.505290985 1.01887977
v -0.887587547 0.548497736 0.997932971
v -1.7666285 0.254430741 0.667788446
v -1.88665354 0.505290985 1.09229624
v -1.88665462 0.50529027 0.646841466
v -2.87457395 0.462394744 0.646841466
v -0.887588322 0.54849869 0.667788208
v -3.09598207 0.45271495 1.09229672
v -1.88665462 0.50529027 0.56440568
v -0.573867261 0.562226057 1.09229589
v -3.09598136 0.452714443 0.564405799
v -0.573868275 0.562225282 0.56440568
v -0.55233705 0.0630106926 1.09229493
v -1.86513925 0.00637631956 1.09229493
v -0.215031222 0.430633068 1.09229541
v -0.552336276 0.0629489198 0.564406216
v -1.8651377 0.0063409498 0.564405859
v -0.215031222 0.430633068 0.564405799
v -0.053817533 0.0844199285 0.564406097
v -0.0538165793 0.0844206885 1.09229541
v -0.184627458 -0.274383307 1.09229553
v -0.184628591 -0.27438578 0.564405978
v -0.530827224 -0.43582961 0.564407289
v -0.530826271 -0.435828835 1.09229743
v -1.84362388 -0.492543697 1.09229696
v -1.84362471 -0.492542744 0.564406753
v -3.07448316 -0.045803044 1.09229481
v -3.07448316 -0.045803044 0.564405441
v -3.0529623 -0.544824541 1.09229648
v -3.44219041 0.29150334 1.09229434
v -3.05296326 -0.544825256 0.564406097
v -3.4421916 0.291504771 0.564404547
v -3.57300162 -0.0673001707 1.09229434
v -3.41178632 -0.413513511 1.09229505
v -3.41178727 -0.413514286 0.564405501
v -3.57300258 -0.0673009306 0.564405024
g submesh0
f 1 2 3
f 1 4 2
f 3 5 1
f 1 6 4
f 7 4 6
f 6 8 7
f 9 7 8
f 8 10 9
f 5 3 11
f 11 12 5
f 13 9 10
f 10 14 13
f 11 15 12
f 13 14 15
f 11 16 15
f 15 16 13
f 17 18 19
f 17 20 18
f 19 18 21
f 20 21 18
f 17 19 22
f 20 17 23
f 22 23 17
f 24 22 19
f 25 23 22
f 24 25 22
f 25 26 23
f 26 20 23
f 21 27 19
f 24 19 27
f 28 26 25
f 24 28 25
f 20 26 29
f 21 20 30
f 20 29 30
f 31 26 28
f 26 31 29
f 32 27 21
f 33 24 27
f 27 32 33
f 34 28 24
f 24 33 34
f 30 35 21
f 21 35 32
f 28 36 31
f 34 36 28
f 33 32 37
f 38 32 35
f 38 37 32
f 39 34 33
f 33 37 39
f 35 30 40
f 35 41 38
f 40 41 35
f 42 38 41
f 37 38 42
f 41 43 42
f 41 40 43
f 37 42 44
f 44 42 43
f 37 44 45
f 37 45 39
f 43 46 44
f 40 46 43
f 45 44 46
f 47 40 30
f 47 39 45
f 30 29 47
f 48 45 46
f 46 40 48
f 45 48 47
f 40 47 48
f 39 47 49
f 29 49 47
f 49 50 39
f 39 50 34
f 51 34 50
f 36 34 51
f 50 52 51
f 50 49 52
f 29 53 49
f 31 53 29
f 54 31 36
f 54 53 31
f 55 36 51
f 55 51 52
f 36 55 54
f 56 49 53
f 52 49 56
f 55 52 56
f 54 55 56
f 53 54 56
f 57 58 59
f 60 58 57
f 58 61 59
f 58 60 61
f 62 59 61
f 59 63 57
f 62 63 59
f 60 64 61
f 62 61 64
f 57 63 65
f 57 66 60
f 65 66 57
f 63 62 67
f 65 63 67
f 64 60 68
f 68 60 66
f 66 65 69
f 69 65 67
f 67 62 70
f 70 62 64
f 66 71 68
f 71 66 69
f 70 72 67
f 69 67 72
f 73 70 64
f 74 64 68
f 64 74 73
f 72 70 75
f 73 75 70
f 72 76 69
f 69 77 71
f 77 69 76
f 75 78 72
f 76 72 78
f 79 78 75
f 76 78 79
f 73 80 75
f 75 80 79
f 73 81 80
f 79 80 81
f 76 79 82
f 81 82 79
f 76 82 83
f 83 82 81
f 77 76 83
f 73 84 81
f 84 73 74
f 81 84 83
f 74 85 84
f 83 84 85
f 83 86 77
f 85 86 83
f 85 74 87
f 68 87 74
f 88 77 86
f 88 71 77
f 86 85 89
f 87 89 85
f 71 90 68
f 87 68 90
f 89 91 86
f 86 91 88
f 71 92 90
f 88 92 71
f 87 90 93
f 92 93 90
f 87 94 89
f 91 89 94
f 87 93 94
f 94 95 91
f 88 91 95
f 95 94 93
f 92 96 93
f 88 96 92
f 93 96 95
f 88 95 96
