# mauritia_flexuosa_L_collision
v -0.0412408262 -0.0949999988 -0.349477351
v 0.415102839 1.25474358 0.184895918
v 0.209095657 -0.163273916 -0.247051656
v 0.168506816 1.30331659 0.0797190145
v -0.30059132 -0.086820066 -0.247051671
v 0.510758936 1.19074214 0.432216585
v 0.303879559 -0.251595467 2.75337993E-06
v -0.084677197 1.30796993 0.178518027
v -0.417117327 -0.143446043 2.7228275E-06
v 0.39921248 1.14880741 0.676893055
v 0.187353536 -0.30822143 0.24705714
v -0.196223676 1.26603508 0.423194498
v -0.322333485 -0.23176758 0.24705714
v 0.146028474 1.15346062 0.775692105
v -0.071996972 -0.300041497 0.349482834
v -0.100567549 1.20203364 0.67051518
v 0.512333333 3.03600812 0.443179607
v 0.607910633 3.02072859 0.689073324
v 0.271502197 3.04876828 0.336757451
v 0.502024651 3.01188278 0.930483699
v 0.0263971891 3.05152512 0.432365566
v 0.256919652 3.01463985 1.02609169
v 0.0160885043 3.02739978 0.919669628
v -0.0794887319 3.04267931 0.673775911
v 0.506225288 6.41100216 0.325048655
v 0.59577781 6.42162323 0.5549649
v 0.496202767 6.42844343 0.780872941
v 0.266034037 6.42747498 0.870528698
v 0.280211806 6.40280199 0.225725278
v 0.0400205776 6.41927481 0.771205246
v -0.0495319366 6.40865326 0.541289032
v 0.0500431061 6.40183353 0.315380961
v 0.348688513 9.66819096 0.64320451
v 0.442148805 9.65836334 0.431585908
v 0.132733837 9.67269039 0.72704643
v -0.0792875662 9.6692152 0.633803606
v 0.358175606 9.64896011 0.216069832
v -0.163260758 9.65981197 0.418287486
v -0.0698004514 9.64998436 0.206668928
v 0.14615421 9.64548588 0.122827023
v 0.534898579 13.9277048 0.402667314
v 0.338243544 13.9368124 0.478941411
v 0.14520815 13.9406996 0.393626481
v 0.0687930882 13.9370966 0.196872994
v 0.620044351 13.9187164 0.209662095
v 0.153938845 13.9281073 0.00386780454
v 0.350593865 13.9190016 -0.0724063218
v 0.543629229 13.9151144 0.0129086562
v 0.401039809 17.0245457 0.425097108
v 0.221365139 17.0231056 0.345842212
v 0.150247723 17.0200539 0.162845194
v 0.229512453 17.0171757 -0.0167608373
v 0.584092259 17.0235252 0.354021341
v 0.412564903 17.0161572 -0.0878366157
v 0.592239559 17.0175953 -0.00858168863
v 0.663357019 17.020647 0.174415305
v 0.122516572 22.756979 0.197582141
v 0.0613508224 22.7534046 0.0401048921
v 0.129530087 22.7534809 -0.114514194
v 0.286976367 22.7571602 -0.175762862
v 0.277055115 22.7621098 0.265724748
v 0.441514909 22.762289 -0.107620269
v 0.43450141 22.7657852 0.204476058
v 0.502680719 22.7658634 0.0498569682
v -0.137406841 29.8662052 0.0259591769
v -0.0829661563 29.8678074 -0.097625494
v 0.0428319536 29.8720016 -0.146581978
v 0.166340783 29.876339 -0.0921185985
v 0.215259701 29.8782806 0.0337491594
v -0.0884879306 29.8681469 0.151826963
v 0.160819009 29.8766785 0.157333836
v 0.0350209028 29.8724842 0.20629032
vn 0.042967476 0.287244081 -0.956893206
vn 0.741183937 0.0754444003 -0.66704905
vn 0.729840755 0.0999661461 -0.676268578
vn 0.045892071 0.215190947 -0.975493133
vn -0.668499649 0.309761614 -0.676133215
vn 0.994275749 -0.10304413 0.028243985
vn 0.989803433 -0.14243117 0.00157051324
vn -0.683311641 0.229134575 -0.693240702
vn -0.988014758 0.154350936 0.00159983593
vn 0.677267134 -0.217771441 0.702769518
vn 0.670351148 -0.297942251 0.679602623
vn -0.99415046 0.107597493 0.00936571509
vn -0.728364587 -0.0880255252 0.679511964
vn -0.0230417419 -0.205381751 0.978410602
vn -0.0414265767 -0.275397688 0.960437357
vn -0.712453187 -0.0724057406 0.697974205
vn 0.738009453 0.0174216498 -0.674565494
vn 0.998754025 -0.0267626438 0.0421219096
vn 0.0316635743 0.0555701628 -0.99795258
vn 0.68428129 -0.0515772514 0.727391779
vn -0.698646843 0.0637577623 -0.712620199
vn -0.0164874848 -0.0436070077 0.998912692
vn -0.709332228 -0.00738278683 0.704835653
vn -0.999312758 0.0370212868 0.00184533105
vn 0.724505484 -0.00647528283 -0.689238548
vn 0.999444425 0.0262542404 0.0205327868
vn 0.694115162 0.0473539941 0.718304694
vn -0.0163748022 0.0445323624 0.998873651
vn 0.0269942321 -0.0318697654 -0.999127448
vn -0.719612896 0.019219758 0.69410938
vn -0.999676108 -0.0138229905 -0.0213702284
vn -0.688632071 -0.0350113884 -0.724265158
vn 0.684588134 0.0366834067 0.728006542
vn 0.999706566 0.00400432805 0.0238901563
vn -0.0325480886 0.0511940159 0.998158157
vn -0.726424396 0.0394635908 0.686112344
vn 0.717815757 -0.0273992158 -0.695693791
vn -0.999752104 0.00861682743 -0.0205287412
vn -0.697576225 -0.0236378517 -0.716120601
vn 0.0109952278 -0.0386975631 -0.999190509
vn 0.695172727 0.00522969663 0.718823791
vn -0.0187717751 0.0384267606 0.999085069
vn -0.722990811 0.05264052 0.688849211
vn -0.998811603 0.0393869691 -0.0287049785
vn 0.999461234 -0.0272687785 0.0182664376
vn -0.686376929 0.00667272415 -0.727215409
vn 0.0255605299 -0.0261956565 -0.999330044
vn 0.721616685 -0.0401991382 -0.691124737
vn -0.0174985677 0.022577364 0.999592006
vn -0.71976155 0.0170549862 0.694011807
vn -0.999755442 0.00513734994 -0.0215116795
vn -0.688815713 -0.00614894927 -0.724910438
vn 0.69291091 0.0185376126 0.720784843
vn 0.0277831424 -0.0101131769 -0.9995628
vn 0.725878179 -0.00449463492 -0.687808633
vn 0.999695182 0.00735407369 0.0235664211
vn -0.723104954 -0.00579260383 0.690713942
vn -0.999456108 -0.0219914429 -0.0245747641
vn -0.688994765 -0.021611901 -0.724444151
vn 0.0236972403 -0.00495565543 -0.999706805
vn -0.0210603587 0.0174893476 0.999625206
vn 0.721877635 0.0182039551 -0.691781282
vn 0.692613244 0.0341239385 0.720501423
vn 0.999215603 0.0343876667 0.0196392853
vn -0.795487761 0.605688334 -0.0184603836
vn -0.556630969 0.612804294 -0.560921431
vn -0.00445538992 0.631112635 -0.775678456
vn 0.537659466 0.650256753 -0.536738575
vn 0.752273381 0.658663392 0.0157277994
vn -0.580889463 0.614304066 0.534039199
vn 0.513443112 0.651758075 0.558200419
vn -0.038736172 0.633240044 0.772985518
g submesh0
f 1//1 2//2 3//3
f 1//1 4//4 2//2
f 5//5 4//4 1//1
f 3//3 2//2 6//6
f 3//3 6//6 7//7
f 5//5 8//8 4//4
f 9//9 8//8 5//5
f 7//7 6//6 10//10
f 7//7 10//10 11//11
f 9//9 12//12 8//8
f 13//13 12//12 9//9
f 11//11 10//10 14//14
f 11//11 14//14 15//15
f 15//15 16//16 13//13
f 13//13 16//16 12//12
f 15//15 14//14 16//16
f 4//4 17//17 2//2
f 2//2 18//18 6//6
f 2//2 17//17 18//18
f 8//8 19//19 4//4
f 4//4 19//19 17//17
f 6//6 20//20 10//10
f 6//6 18//18 20//20
f 12//12 21//21 8//8
f 8//8 21//21 19//19
f 10//10 22//22 14//14
f 10//10 20//20 22//22
f 14//14 23//23 16//16
f 14//14 22//22 23//23
f 16//16 24//24 12//12
f 12//12 24//24 21//21
f 16//16 23//23 24//24
f 19//19 25//25 17//17
f 17//17 26//26 18//18
f 17//17 25//25 26//26
f 18//18 27//27 20//20
f 18//18 26//26 27//27
f 20//20 28//28 22//22
f 20//20 27//27 28//28
f 21//21 29//29 19//19
f 19//19 29//29 25//25
f 22//22 30//30 23//23
f 22//22 28//28 30//30
f 23//23 31//31 24//24
f 23//23 30//30 31//31
f 24//24 32//32 21//21
f 21//21 32//32 29//29
f 24//24 31//31 32//32
f 26//26 33//33 27//27
f 25//25 34//34 26//26
f 26//26 34//34 33//33
f 27//27 35//35 28//28
f 27//27 33//33 35//35
f 28//28 36//36 30//30
f 28//28 35//35 36//36
f 29//29 37//37 25//25
f 25//25 37//37 34//34
f 30//30 38//38 31//31
f 30//30 36//36 38//38
f 31//31 39//39 32//32
f 31//31 38//38 39//39
f 32//32 40//40 29//29
f 29//29 40//40 37//37
f 32//32 39//39 40//40
f 34//34 41//41 33//33
f 33//33 42//42 35//35
f 33//33 41//41 42//42
f 35//35 43//43 36//36
f 35//35 42//42 43//43
f 36//36 44//44 38//38
f 36//36 43//43 44//44
f 37//37 45//45 34//34
f 34//34 45//45 41//41
f 38//38 46//46 39//39
f 38//38 44//44 46//46
f 39//39 47//47 40//40
f 39//39 46//46 47//47
f 40//40 48//48 37//37
f 37//37 48//48 45//45
f 40//40 47//47 48//48
f 41//41 49//49 42//42
f 42//42 50//50 43//43
f 42//42 49//49 50//50
f 43//43 51//51 44//44
f 43//43 50//50 51//51
f 44//44 52//52 46//46
f 44//44 51//51 52//52
f 45//45 53//53 41//41
f 41//41 53//53 49//49
f 46//46 54//54 47//47
f 46//46 52//52 54//54
f 47//47 55//55 48//48
f 47//47 54//54 55//55
f 48//48 56//56 45//45
f 45//45 56//56 53//53
f 48//48 55//55 56//56
f 49//49 57//57 50//50
f 50//50 58//58 51//51
f 50//50 57//57 58//58
f 51//51 59//59 52//52
f 51//51 58//58 59//59
f 52//52 60//60 54//54
f 52//52 59//59 60//60
f 53//53 61//61 49//49
f 49//49 61//61 57//57
f 54//54 62//62 55//55
f 54//54 60//60 62//62
f 56//56 63//63 53//53
f 53//53 63//63 61//61
f 55//55 64//64 56//56
f 55//55 62//62 64//64
f 56//56 64//64 63//63
f 57//57 65//65 58//58
f 58//58 66//66 59//59
f 58//58 65//65 66//66
f 59//59 67//67 60//60
f 59//59 66//66 67//67
f 60//60 67//67 68//68
f 68//68 67//67 66//66
f 60//60 68//68 62//62
f 66//66 65//65 68//68
f 62//62 68//68 69//69
f 62//62 69//69 64//64
f 65//65 69//69 68//68
f 57//57 70//70 65//65
f 61//61 70//70 57//57
f 65//65 70//70 69//69
f 64//64 69//69 71//71
f 64//64 71//71 63//63
f 70//70 71//71 69//69
f 63//63 72//72 61//61
f 61//61 72//72 70//70
f 63//63 71//71 72//72
f 70//70 72//72 71//71
