# mauritia_flexuosa_S_collision
v -0.00663698837 -0.157955021 -0.248472869
v 0.235585898 0.792218328 -0.120913252
v 0.168490499 -0.174710691 -0.17565006
v 0.064313665 0.799867213 -0.192316458
v -0.182321906 -0.148724362 -0.17565006
v 0.306238949 0.784264207 0.050545305
v 0.240539506 -0.18917267 1.17743809E-06
v -0.107313305 0.802727044 -0.121682659
v -0.25571537 -0.152412415 1.15571584E-06
v 0.234730214 0.780667126 0.221684888
v 0.167146057 -0.192860708 0.175652385
v -0.178822041 0.799129903 0.0494569242
v -0.183666363 -0.166874379 0.175652385
v 0.0631032437 0.783526897 0.292318672
v -0.00853886828 -0.183630064 0.248475209
v -0.108168982 0.791175842 0.220915496
v 0.198947161 2.88794923 -0.0782915577
v 0.265510142 2.88962007 0.0834880248
v 0.0375622809 2.88513947 -0.145708546
v 0.198113501 2.88917041 0.244921997
v -0.124168225 2.88283563 -0.0791252032
v 0.0363829955 2.88686705 0.311505377
v -0.125001892 2.88405704 0.244088382
v -0.191564858 2.88238645 0.0823087767
v 0.13224186 5.71859741 -0.131185144
v 0.1933036 5.7227664 0.0172598306
v 0.131387338 5.72531414 0.165386707
v -0.0171034299 5.724751 0.226480618
v -0.0158946011 5.71524906 -0.193046287
v -0.165239885 5.72140312 0.164619505
v -0.22630161 5.71723366 0.0161745194
v -0.164385349 5.71468544 -0.131952375
v 0.0442956723 12.9509602 -0.0276395045
v 0.0921066552 12.9487953 -0.142013431
v -0.0703682154 12.9511528 0.0195211973
v -0.184758961 12.9492579 -0.0282609202
v -0.231911197 12.9463854 -0.142892495
v 0.0449544117 12.9459229 -0.256645024
v -0.184100226 12.9442196 -0.257266432
v -0.069436349 12.9440269 -0.304427117
vn 0.00419071037 0.0582145303 -0.998295367
vn 0.716076255 0.008262977 -0.697973073
vn 0.708263278 -0.00918245129 -0.705888629
vn 0.013897799 0.0400050059 -0.999102831
vn -0.701999962 0.0953636244 -0.70576328
vn 0.999687672 -0.0242616273 0.00599393621
vn 0.997729838 -0.0673435107 0.000289425341
vn -0.701209843 0.0522011295 -0.711041331
vn -0.996752918 0.0805205181 0.000294895261
vn 0.707847178 -0.0389728956 0.705289543
vn 0.702905238 -0.0821937025 0.706518531
vn -0.999303579 0.0371792428 0.00316134049
vn -0.707457125 0.0223714858 0.706402063
vn 0.00762015209 -0.0274446364 0.999594271
vn -0.00345604378 -0.0450255685 0.998979867
vn -0.700828135 0.00398214487 0.713319063
vn 0.711646438 0.0152010052 -0.702373207
vn 0.999721229 0.022430744 0.00736704376
vn 0.00344175752 0.00289487583 -0.999989867
vn 0.703065515 0.020398058 0.710832477
vn -0.707238793 -0.00722610019 -0.70693779
vn -0.00199683127 0.0103537245 0.999944448
vn -0.706266284 -0.00187419006 0.707943797
vn -0.999955654 -0.00917348079 0.00215547113
vn 0.708223879 -9.73056449E-05 -0.70598793
vn 0.999801219 0.0198024996 0.00231692824
vn 0.704253197 0.0319535062 0.70922941
vn -0.00438037841 0.0292312521 0.999563038
vn 0.00141525536 -0.0160482191 -0.999870181
vn -0.709915817 0.0132592488 0.704161644
vn -0.999974132 -0.00658850186 -0.00287561561
vn -0.705694973 -0.0187253375 -0.708268285
vn 0.541258276 0.648742676 0.534950793
vn 0.769709229 0.638284981 -0.011829474
vn -0.00690934341 0.649552822 0.760285079
vn -0.553761005 0.640592158 0.531968594
vn -0.779051483 0.626755059 -0.0160309467
vn 0.544406414 0.624656856 -0.559844077
vn -0.550610602 0.616506875 -0.56280303
vn -0.00245514605 0.615487099 -0.788143098
g submesh0
f 1//1 2//2 3//3
f 1//1 4//4 2//2
f 5//5 4//4 1//1
f 3//3 2//2 6//6
f 3//3 6//6 7//7
f 5//5 8//8 4//4
f 9//9 8//8 5//5
f 7//7 6//6 10//10
f 7//7 10//10 11//11
f 9//9 12//12 8//8
f 13//13 12//12 9//9
f 11//11 10//10 14//14
f 11//11 14//14 15//15
f 15//15 16//16 13//13
f 13//13 16//16 12//12
f 15//15 14//14 16//16
f 4//4 17//17 2//2
f 2//2 18//18 6//6
f 2//2 17//17 18//18
f 8//8 19//19 4//4
f 4//4 19//19 17//17
f 6//6 20//20 10//10
f 6//6 18//18 20//20
f 12//12 21//21 8//8
f 8//8 21//21 19//19
f 10//10 22//22 14//14
f 10//10 20//20 22//22
f 14//14 23//23 16//16
f 14//14 22//22 23//23
f 16//16 24//24 12//12
f 12//12 24//24 21//21
f 16//16 23//23 24//24
f 19//19 25//25 17//17
f 17//17 26//26 18//18
f 17//17 25//25 26//26
f 18//18 27//27 20//20
f 18//18 26//26 27//27
f 20//20 28//28 22//22
f 20//20 27//27 28//28
f 21//21 29//29 19//19
f 19//19 29//29 25//25
f 22//22 30//30 23//23
f 22//22 28//28 30//30
f 23//23 31//31 24//24
f 23//23 30//30 31//31
f 24//24 32//32 21//21
f 21//21 32//32 29//29
f 24//24 31//31 32//32
f 26//26 33//33 27//27
f 25//25 34//34 26//26
f 26//26 34//34 33//33
f 27//27 35//35 28//28
f 27//27 33//33 35//35
f 28//28 35//35 36//36
f 36//36 35//35 33//33
f 28//28 36//36 30//30
f 36//36 33//33 34//34
f 30//30 36//36 37//37
f 30//30 37//37 31//31
f 37//37 36//36 34//34
f 25//25 38//38 34//34
f 29//29 38//38 25//25
f 37//37 34//34 38//38
f 31//31 37//37 39//39
f 31//31 39//39 32//32
f 39//39 37//37 38//38
f 32//32 40//40 29//29
f 32//32 39//39 40//40
f 29//29 40//40 38//38
f 38//38 40//40 39//39
