# Medical_Table_COL
v 0.447594285 0.925031483 0.218852073
v 0.660707474 0.92501539 0.218840972
v 0.437531471 0.925031483 0
v 0.433146536 0.84909445 -0.280502886
v 0.437561095 0.849094272 -0.269472212
v 0.437561095 0.849094272 0.269472212
v 0.422115862 0.849094272 0.284917414
v 0.433146536 0.84909445 0.280502886
v -0.422115862 0.849094272 0.284917414
v -0.433146536 0.84909445 0.280502886
v -0.437561095 0.849094272 0.269472212
v -0.437561095 0.849094272 -0.269472212
v 0.660707474 0.92501539 0.218840972
v 0.447594285 0.925031483 0.218852073
v 0.447562844 0.861317575 0.218852073
v 0.660676003 0.880819917 0.218840972
v 0.671723068 0.883779407 0.218840972
v 0.682781577 0.902909815 0.218840972
v 0.671750307 0.92205596 0.218840972
v -0.368803471 0.209502876 0.284887493
v -0.368803471 0.209502876 0.294920862
v 0.368803471 0.209502876 0.294920862
v 0.368803471 0.209502876 0.284887493
v -0.422609091 0.143168762 0.294918835
v 0.368803471 0.209502876 0.294920862
v -0.368803471 0.209502876 0.294920862
v 0.422609091 0.143168762 0.294918835
v 0.433146536 0.84909445 0.280502886
v 0.437561095 0.849094272 0.269472212
v 0.437387109 0.179454267 0.269465208
v 0.432937652 0.179320291 0.280293673
v 0.422109187 0.179454267 0.28474316
v 0.422115862 0.849094272 0.284917414
v 0.368803471 0.209502876 0.284887493
v 0.371352255 0.829466581 0.284918875
v -0.368803471 0.209502876 0.284887493
v -0.422115862 0.849094272 0.284917414
v -0.371352077 0.829466581 0.284887493
v -0.422109187 0.179454267 0.28474316
v -0.432937652 0.179320291 0.280293673
v -0.433146536 0.84909445 0.280502886
v -0.437561095 0.849094272 0.269472212
v -0.437387109 0.179454267 0.269465208
v -0.432937652 0.179320291 0.280293673
v -0.422109187 0.179454267 0.28474316
v -0.437387109 0.179454267 0.269465208
v 0.422109187 0.179454267 0.28474316
v 0.432937652 0.179320291 0.280293673
v 0.437387109 0.179454267 0.269465208
v 0.437387109 0.179454267 -0.269465208
v -0.447562814 0.143168762 0.269965112
v -0.422609091 0.143168762 0.294918835
v -0.440253526 0.143169731 0.287609547
v 0.422609091 0.143168762 0.294918835
v 0.440253526 0.143169731 0.287609547
v 0.447562814 0.143168762 0.269965112
v 0.447562814 0.143168762 -0.269965112
v 0.447594136 0.925031483 0.269966632
v 0.44756484 0.209502876 0.216303527
v 0.447562844 0.829466581 0.218852073
v 0.447562814 0.143168762 0.269965112
v 0.440275609 0.925031483 0.287631631
v 0.440253526 0.143169731 0.287609547
v 0.422610611 0.925031483 0.294950187
v 0.422609091 0.143168762 0.294918835
v 0.371352077 0.829469264 0.294918895
v 0.368803471 0.209502876 0.294920862
v 0.437531471 0.829466581 0.218852073
v 0.437387109 0.179454267 0.269465208
v 0.437561095 0.849094272 0.269472212
v 0.437531471 0.209502876 0.216303527
v 0.437531471 0.209502876 -0.216303527
v 0.437387109 0.179454267 -0.269465208
v 0.437531471 0.829466581 0.218852073
v 0.447562844 0.829466581 0.218852073
v 0.44756484 0.209502876 0.216303527
v 0.437531471 0.209502876 0.216303527
v 0.371352077 0.829469264 0.294918895
v 0.371352255 0.829466581 0.284918875
v 0.368803471 0.209502876 0.284887493
v 0.368803471 0.209502876 0.294920862
v -0.447594136 0.925031483 0.269966632
v -0.447562903 0.829469264 0.218852073
v -0.44756484 0.209502876 0.216303527
v -0.447562814 0.143168762 0.269965112
v -0.440275609 0.925031483 0.287631631
v -0.440253526 0.143169731 0.287609547
v -0.422609091 0.143168762 0.294918835
v -0.422610611 0.925031483 0.294950187
v -0.371352077 0.829466581 0.294918895
v -0.368803471 0.209502876 0.294920862
v -0.437562853 0.829466581 0.218852416
v -0.437531471 0.209502876 0.216303527
v -0.44756484 0.209502876 0.216303527
v -0.447562903 0.829469264 0.218852073
v -0.371352077 0.829466581 0.294918895
v -0.368803471 0.209502876 0.294920862
v -0.368803471 0.209502876 0.284887493
v -0.371352077 0.829466581 0.284887493
v 0.437531471 0.860089242 0
v 0.437387139 0.859940231 0.269465208
v 0.437531471 0.925031483 0
v 0.437531412 0.925031483 0.269472301
v 0.447594285 0.925031483 0.218852073
v 0.437531471 0.925031483 0
v 0.437531412 0.925031483 0.269472301
v 0.447594136 0.925031483 0.269966632
v 0.433126092 0.925031483 0.280482143
v 0.440275609 0.925031483 0.287631631
v 0.422610611 0.925031483 0.294950187
v 0.42211628 0.925031483 0.284887493
v -0.422610611 0.925031483 0.294950187
v -0.42211628 0.925031483 0.284887493
v -0.440275609 0.925031483 0.287631631
v -0.433126092 0.925031483 0.280482143
v -0.447594136 0.925031483 0.269966632
v -0.437531412 0.925031483 0.269472301
v -0.447594136 0.925031483 -0.269966632
v -0.437531412 0.925031483 -0.269472301
v 0.447594136 0.925031483 0.269966632
v 0.447562844 0.861317575 0.218852073
v 0.447594285 0.925031483 0.218852073
v 0.447562844 0.829466581 0.218852073
v 0.447562844 0.829466581 -0.218852073
v 0.447562844 0.861317575 -0.218852073
v 0.371352255 0.829466581 0.284918875
v 0.371352077 0.829469264 0.294918895
v -0.371352077 0.829466581 0.284887493
v -0.371352077 0.829466581 0.294918895
v 0.433126092 0.925031483 0.280482143
v 0.437531412 0.925031483 0.269472301
v 0.437387139 0.859940231 0.269465208
v 0.432937652 0.859806299 0.280293673
v 0.422109187 0.859940231 0.28474319
v 0.42211628 0.925031483 0.284887493
v -0.42211628 0.925031483 0.284887493
v -0.422109187 0.859940231 0.28474319
v -0.433126092 0.925031483 0.280482143
v -0.432937652 0.859806299 0.280293673
v -0.437387139 0.859940231 0.269465208
v -0.437531412 0.925031483 0.269472301
v -0.447562903 0.829469264 0.218852073
v -0.447562903 0.829469264 -0.218852073
v -0.437562853 0.829466581 -0.218852416
v -0.437562853 0.829466581 0.218852416
v -0.437562853 0.829466581 0.218852416
v -0.437562853 0.829466581 -0.218852416
v -0.437561095 0.849094272 -0.269472212
v -0.437561095 0.849094272 0.269472212
v -0.437387109 0.179454267 0.269465208
v -0.437531471 0.209502876 0.216303527
v -0.437531471 0.209502876 -0.216303527
v -0.437387109 0.179454267 -0.269465208
v 0.371352077 0.829469264 0.294918895
v 0.422610611 0.925031483 0.294950187
v -0.422610611 0.925031483 0.294950187
v -0.371352077 0.829466581 0.294918895
v -0.437387139 0.859940231 -0.269465208
v -0.437531412 0.925031483 -0.269472301
v -0.437531412 0.925031483 0.269472301
v -0.437387139 0.859940231 0.269465208
v -0.437387139 0.859940231 -0.269465208
v -0.437387139 0.859940231 0.269465208
v -0.432937652 0.859806299 0.280293673
v -0.422109187 0.859940231 0.28474319
v 0.422109187 0.859940231 0.28474319
v 0.432937652 0.859806299 0.280293673
v 0.437387139 0.859940231 0.269465208
v 0.437531471 0.860089242 0
v -0.447594136 0.925031483 -0.269966632
v -0.447562903 0.829469264 -0.218852073
v -0.447562903 0.829469264 0.218852073
v -0.447594136 0.925031483 0.269966632
v 0.671723068 0.883779407 0.218840972
v 0.660676003 0.880819917 0.218840972
v 0.660676003 0.880819917 -0.218840972
v 0.671723068 0.883779407 -0.218840972
v 0.682781577 0.902909815 -0.218840972
v 0.682781577 0.902909815 0.218840972
v 0.671750307 0.92205596 -0.218840972
v 0.671750307 0.92205596 0.218840972
v 0.660707474 0.92501539 -0.218840972
v 0.660707474 0.92501539 0.218840972
v 0.660707474 0.92501539 -0.218840972
v 0.447562844 0.861317575 -0.218852073
v 0.447594285 0.925031483 -0.218852073
v 0.660676003 0.880819917 -0.218840972
v 0.671723068 0.883779407 -0.218840972
v 0.682781577 0.902909815 -0.218840972
v 0.671750307 0.92205596 -0.218840972
v 0.660676003 0.880819917 -0.218840972
v 0.660676003 0.880819917 0.218840972
v 0.447562844 0.861317575 0.218852073
v 0.447562844 0.861317575 -0.218852073
v 0.447594285 0.925031483 -0.218852073
v 0.437531471 0.925031483 0
v 0.660707474 0.92501539 0.218840972
v 0.660707474 0.92501539 -0.218840972
v 0.447562814 0.143168762 0.269965112
v 0.44756484 0.209502876 -0.216303527
v 0.44756484 0.209502876 0.216303527
v 0.447562814 0.143168762 -0.269965112
v -0.368803471 0.209502876 -0.284887493
v 0.368803471 0.209502876 -0.284887493
v 0.368803471 0.209502876 -0.294920862
v -0.368803471 0.209502876 -0.294920862
v 0.440253526 0.143169731 -0.287609547
v 0.447562814 0.143168762 -0.269965112
v -0.447562814 0.143168762 0.269965112
v 0.422609091 0.143168762 -0.294918835
v -0.422609091 0.143168762 -0.294918835
v -0.440253526 0.143169731 -0.287609547
v -0.447562814 0.143168762 -0.269965112
v -0.422609091 0.143168762 -0.294918835
v -0.368803471 0.209502876 -0.294920862
v 0.368803471 0.209502876 -0.294920862
v 0.422609091 0.143168762 -0.294918835
v 0.44756484 0.209502876 0.216303527
v 0.44756484 0.209502876 -0.216303527
v 0.437531471 0.209502876 -0.216303527
v 0.437531471 0.209502876 0.216303527
v 0.433146536 0.84909445 -0.280502886
v 0.437387109 0.179454267 -0.269465208
v 0.437561095 0.849094272 -0.269472212
v 0.432937652 0.179320291 -0.280293673
v 0.422109187 0.179454267 -0.28474316
v 0.422115862 0.849094272 -0.284917414
v 0.368803471 0.209502876 -0.284887493
v 0.371352255 0.829466581 -0.284918875
v -0.368803471 0.209502876 -0.284887493
v -0.422115862 0.849094272 -0.284917414
v -0.371352077 0.829466581 -0.284887493
v -0.422109187 0.179454267 -0.28474316
v -0.432937652 0.179320291 -0.280293673
v -0.433146536 0.84909445 -0.280502886
v -0.437561095 0.849094272 -0.269472212
v -0.437387109 0.179454267 -0.269465208
v -0.447562814 0.143168762 0.269965112
v -0.44756484 0.209502876 0.216303527
v -0.44756484 0.209502876 -0.216303527
v -0.447562814 0.143168762 -0.269965112
v -0.44756484 0.209502876 0.216303527
v -0.437531471 0.209502876 0.216303527
v -0.437531471 0.209502876 -0.216303527
v -0.44756484 0.209502876 -0.216303527
v -0.433146536 0.84909445 -0.280502886
v 0.437561095 0.849094272 0.269472212
v -0.437561095 0.849094272 -0.269472212
v -0.422115862 0.849094272 -0.284917414
v 0.422115862 0.849094272 -0.284917414
v 0.433146536 0.84909445 -0.280502886
v 0.447594136 0.925031483 -0.269966632
v 0.447562844 0.829466581 -0.218852073
v 0.44756484 0.209502876 -0.216303527
v 0.447562814 0.143168762 -0.269965112
v 0.440275609 0.925031483 -0.287631631
v 0.440253526 0.143169731 -0.287609547
v 0.422610611 0.925031483 -0.294950187
v 0.422609091 0.143168762 -0.294918835
v 0.371352077 0.829469264 -0.294918895
v 0.368803471 0.209502876 -0.294920862
v 0.437531471 0.829466581 -0.218852073
v 0.437561095 0.849094272 -0.269472212
v 0.437387109 0.179454267 -0.269465208
v 0.437531471 0.209502876 -0.216303527
v 0.437531471 0.829466581 -0.218852073
v 0.437531471 0.209502876 -0.216303527
v 0.44756484 0.209502876 -0.216303527
v 0.447562844 0.829466581 -0.218852073
v 0.371352077 0.829469264 -0.294918895
v 0.368803471 0.209502876 -0.294920862
v 0.368803471 0.209502876 -0.284887493
v 0.371352255 0.829466581 -0.284918875
v -0.447594136 0.925031483 -0.269966632
v -0.44756484 0.209502876 -0.216303527
v -0.447562903 0.829469264 -0.218852073
v -0.447562814 0.143168762 -0.269965112
v -0.440275609 0.925031483 -0.287631631
v -0.440253526 0.143169731 -0.287609547
v -0.422609091 0.143168762 -0.294918835
v -0.422610611 0.925031483 -0.294950187
v -0.371352077 0.829466581 -0.294918895
v -0.368803471 0.209502876 -0.294920862
v -0.437562853 0.829466581 -0.218852416
v -0.437531471 0.209502876 -0.216303527
v -0.437387109 0.179454267 -0.269465208
v -0.437561095 0.849094272 -0.269472212
v 0.437387109 0.179454267 -0.269465208
v 0.432937652 0.179320291 -0.280293673
v -0.437387109 0.179454267 0.269465208
v 0.422109187 0.179454267 -0.28474316
v -0.422109187 0.179454267 -0.28474316
v -0.432937652 0.179320291 -0.280293673
v -0.437387109 0.179454267 -0.269465208
v -0.437562853 0.829466581 -0.218852416
v -0.447562903 0.829469264 -0.218852073
v -0.44756484 0.209502876 -0.216303527
v -0.437531471 0.209502876 -0.216303527
v -0.371352077 0.829466581 -0.294918895
v -0.371352077 0.829466581 -0.284887493
v -0.368803471 0.209502876 -0.284887493
v -0.368803471 0.209502876 -0.294920862
v 0.437531471 0.860089242 0
v 0.437531471 0.925031483 0
v 0.437387139 0.859940231 -0.269465208
v 0.437531412 0.925031483 -0.269472301
v 0.447594285 0.925031483 -0.218852073
v 0.437531412 0.925031483 -0.269472301
v 0.437531471 0.925031483 0
v 0.447594136 0.925031483 -0.269966632
v 0.433126092 0.925031483 -0.280482143
v 0.440275609 0.925031483 -0.287631631
v 0.422610611 0.925031483 -0.294950187
v 0.42211628 0.925031483 -0.284887493
v -0.422610611 0.925031483 -0.294950187
v -0.42211628 0.925031483 -0.284887493
v -0.440275609 0.925031483 -0.287631631
v -0.433126092 0.925031483 -0.280482143
v -0.447594136 0.925031483 -0.269966632
v -0.437531412 0.925031483 -0.269472301
v 0.447594136 0.925031483 -0.269966632
v 0.447594285 0.925031483 -0.218852073
v 0.447562844 0.861317575 -0.218852073
v 0.447562844 0.829466581 -0.218852073
v 0.371352255 0.829466581 -0.284918875
v -0.371352077 0.829466581 -0.284887493
v 0.371352077 0.829469264 -0.294918895
v -0.371352077 0.829466581 -0.294918895
v 0.433126092 0.925031483 -0.280482143
v 0.437387139 0.859940231 -0.269465208
v 0.437531412 0.925031483 -0.269472301
v 0.432937652 0.859806299 -0.280293673
v 0.422109187 0.859940231 -0.28474319
v 0.42211628 0.925031483 -0.284887493
v -0.42211628 0.925031483 -0.284887493
v -0.422109187 0.859940231 -0.28474319
v -0.433126092 0.925031483 -0.280482143
v -0.432937652 0.859806299 -0.280293673
v -0.437387139 0.859940231 -0.269465208
v -0.437531412 0.925031483 -0.269472301
v -0.432937652 0.859806299 -0.280293673
v -0.437387139 0.859940231 -0.269465208
v -0.422109187 0.859940231 -0.28474319
v 0.422109187 0.859940231 -0.28474319
v 0.432937652 0.859806299 -0.280293673
v 0.437387139 0.859940231 -0.269465208
v 0.437531471 0.860089242 0
v 0.371352077 0.829469264 -0.294918895
v -0.422610611 0.925031483 -0.294950187
v 0.422610611 0.925031483 -0.294950187
v -0.371352077 0.829466581 -0.294918895
v 0.437531471 0.829466581 -0.218852073
v 0.437531471 0.829466581 0.218852073
v 0.437561095 0.849094272 0.269472212
v 0.437561095 0.849094272 -0.269472212
v 0.447562844 0.829466581 -0.218852073
v 0.447562844 0.829466581 0.218852073
v 0.437531471 0.829466581 0.218852073
v 0.437531471 0.829466581 -0.218852073
vn 2.58678974E-05 1 -1.19122979E-06
vn 0.0958987027 0.727968931 0.678870142
vn 7.1812894E-05 1 0
vn 1.65634137E-05 -1 -2.55825768E-07
vn -0.494603902 -0.869118392 0.00041250154
vn -0.731325507 -0.666879714 -0.142949119
vn 2.67195787E-06 -1 2.6412165E-06
vn -0.550600231 -0.627437592 -0.550600886
vn -3.49998118E-07 -1 -2.56755466E-05
vn 0 -1 4.62543721E-06
vn 0 -1 4.65847734E-06
vn 0 -1 -5.47077798E-06
vn 0.0958987027 0.727968931 0.678870142
vn 0.707030296 -0.000348637957 0.707183123
vn 0.914236784 -0.294579327 0.278197914
vn 0.127377436 -0.714032948 0.688427269
vn 0.472435147 -0.616054833 0.630302608
vn 0.792385697 -0.000563890557 0.610020101
vn 0.472952217 0.61577034 0.630192876
vn 0.705651879 0.708558679 0
vn 0.705651104 0.708559453 0
vn -0.705651104 0.708559453 -8.46619878E-06
vn -0.705640376 0.708570063 -8.46606963E-06
vn -0.145555571 -0.66573292 0.731856048
vn -0.000142332327 -2.51626498E-05 1
vn 0.000142331977 -2.52436075E-05 1
vn 0.14555873 -0.665777624 0.731814742
vn -0.550600231 -0.627437592 -0.550600886
vn -0.731325507 -0.666879714 -0.142949119
vn -0.926707506 0.000325529341 -0.375783384
vn -0.707106531 0.000353592099 -0.707106888
vn -0.192586988 0.00101870613 -0.981279373
vn -0.191947535 0.000220339454 -0.981405199
vn -0.000611715717 0.00275354809 -0.999996066
vn -0.000570458185 3.24566172E-05 -0.999999881
vn 0.000479601964 0.00274096709 -0.999996185
vn 0.191839978 0.00040119866 -0.98142612
vn 0.000472267537 0.00101683754 -0.999999404
vn 0.192488581 0.00100977626 -0.981298625
vn 0.541831493 0.642520428 -0.541835845
vn 0.707106531 0.000353592157 -0.707106888
vn 0.926707506 0.000325529312 -0.375783384
vn 0.732269764 0.666023254 -0.142105475
vn 0.541831493 0.642520428 -0.541835845
vn -0.0030196819 0.99999094 0.00301874871
vn 0.732269764 0.666023254 -0.142105475
vn 0.00050966593 0.999589026 -0.0286636259
vn 8.78390638E-05 0.999985933 0.00531461136
vn 0 0.999985933 0.00530955428
vn -0.00383035676 0.999973416 -0.00621798169
vn -0.73185724 -0.66573149 0.145555571
vn -0.145555571 -0.66573292 0.731856048
vn -0.54900527 -0.630227566 0.549004972
vn 0.14555873 -0.665777624 0.731814742
vn 0.548977673 -0.63026315 0.548991561
vn 0.731851339 -0.665736616 0.145562604
vn 0.731845856 -0.665741682 -0.145566568
vn 0.731932223 0.665650368 0.145549983
vn 1 -2.52865284E-05 -0.00014308859
vn 1 -1.151777E-05 -0.000218044981
vn 0.731851339 -0.665736616 0.145562604
vn 0.5489856 0.630262017 0.548984945
vn 0.548977673 -0.63026315 0.548991561
vn 0.145574734 0.665659308 0.731919229
vn 0.14555873 -0.665777624 0.731814742
vn -0.000153502784 -0.000154670837 1
vn -0.000142332327 -2.51626498E-05 1
vn -0.999999523 0.000943448627 -0.000449704792
vn -0.999998331 0.00166530977 -0.000733422872
vn -0.731325507 -0.666879714 -0.142949119
vn -0.999996185 0.00274070841 -0.000482073694
vn -0.999996185 0.00274071051 0.000482196774
vn -0.999998331 0.00166531326 0.000733609369
vn 0 -0.705651939 -0.708558559
vn 0 -0.705651164 -0.708559275
vn 0 0.708559394 -0.705651164
vn 0 0.708558619 -0.705651879
vn -0.708494306 -0.705716431 0.000179934083
vn -0.708625853 -0.705584466 0.000181531461
vn -0.705640376 0.708570063 -8.46606963E-06
vn -0.705651104 0.708559453 -8.46619878E-06
vn -0.731918693 0.665659785 0.145574719
vn -1 -0.000154551046 -0.000154018358
vn -1 -2.52978789E-05 -0.00014282341
vn -0.73185724 -0.66573149 0.145555571
vn -0.548984706 0.630262315 0.548985541
vn -0.54900527 -0.630227566 0.549004972
vn -0.145555571 -0.66573292 0.731856048
vn -0.14557378 0.665659249 0.731919467
vn 0.000153503919 -0.000154787165 1
vn 0.000142331977 -2.52436075E-05 1
vn -0.000179687137 -0.705571592 -0.708638668
vn 1.29901291E-05 0.708570063 -0.705640376
vn 1.29903265E-05 0.708559453 -0.705651045
vn -0.000179730065 -0.705720007 -0.708490908
vn 0.708560646 -0.705649853 0
vn 0.705651104 0.708559453 0
vn 0.705651879 0.708558679 0
vn 0.70856905 -0.705641508 1.62921583E-06
vn -1 0 0
vn -0.999998212 0.00188271445 -8.08312179E-05
vn -1 0.000334442477 0
vn -0.999997616 0.00221646973 -2.12384336E-07
vn 2.58678974E-05 1 -1.19122979E-06
vn 7.1812894E-05 1 0
vn 0 1 0
vn 0.731932223 0.665650368 0.145549983
vn 0 1 0
vn 0.5489856 0.630262017 0.548984945
vn 0.145574734 0.665659308 0.731919229
vn 0 1 0
vn -0.14557378 0.665659249 0.731919467
vn 1.72505531E-06 1 0
vn -0.548984706 0.630262315 0.548985541
vn 1.59699164E-06 1 0
vn -0.731918693 0.665659785 0.145574719
vn 1.26989539E-06 1 0
vn -0.731918812 0.665659785 -0.145574525
vn 1.26989539E-06 1 0
vn 0.731932223 0.665650368 0.145549983
vn 0.914236784 -0.294579327 0.278197914
vn 0.707030296 -0.000348637957 0.707183123
vn 1 -1.151777E-05 -0.000218044981
vn 1 -1.151777E-05 0.000218216403
vn 0.914236784 -0.294579268 -0.278197885
vn -0.708625853 -0.705584466 0.000181531461
vn -0.708494306 -0.705716431 0.000179934083
vn 0.70856905 -0.705641508 1.62921583E-06
vn 0.708560646 -0.705649853 0
vn -0.707104206 0.00318127591 -0.70710206
vn -0.926720798 0.00292993966 -0.375739455
vn -0.926720798 0.00292993966 -0.375739455
vn -0.707104266 0.00318127661 -0.70710206
vn -0.138908356 0.662811279 -0.73578912
vn -0.191372886 0.00262179854 -0.981513917
vn 0.191372856 0.00262173777 -0.981513917
vn 0.140022814 0.665837884 -0.732839406
vn 0.707104146 0.00318117603 -0.707102239
vn 0.707104146 0.00318117626 -0.707102239
vn 0.741728604 0.655631602 -0.141371101
vn 0.981514156 0.00262157363 -0.191371441
vn -0.000179730065 -0.705720007 -0.708490908
vn -0.000179730065 -0.705720007 0.708490908
vn -0.000179687137 -0.705571592 0.708638668
vn -0.000179687137 -0.705571592 -0.708638668
vn 0.999999881 1.32647592E-05 -0.000573935336
vn 0.999999881 1.32647592E-05 0.000573820667
vn 0.999999404 0.000102402948 0.00106390892
vn 0.999999404 0.000102402948 -0.00106412161
vn 0.732269764 0.666023254 -0.142105475
vn 0.999996066 0.00275173853 -0.000615245372
vn 0.999996066 0.00275174109 0.000615122553
vn 0.514916062 0.857240438 0.000457750517
vn -0.000153502784 -0.000154670837 1
vn 0.145574734 0.665659308 0.731919229
vn -0.14557378 0.665659249 0.731919467
vn 0.000153503919 -0.000154787165 1
vn 0.731788695 0.666645944 0.141663328
vn 0.981514156 0.00262159761 0.191371441
vn 0.981514156 0.00262157363 -0.191371441
vn 0.741728604 0.655631602 -0.141371101
vn 0.731788695 0.666645944 0.141663328
vn 0.741728604 0.655631602 -0.141371101
vn -0.00558649981 0.999984384 0.000288977491
vn 0.140022814 0.665837884 -0.732839406
vn -0.138908356 0.662811279 -0.73578912
vn -0.000551653036 0.999999285 0.00111634831
vn -0.00395489344 0.999971628 0.00642206846
vn -0.000202637704 1 0.000105065454
vn -0.731918812 0.665659785 -0.145574525
vn -1 -0.000154551046 0.000153846995
vn -1 -0.000154551046 -0.000154018358
vn -0.731918693 0.665659785 0.145574719
vn 0.472435147 -0.616054833 0.630302608
vn 0.127377436 -0.714032948 0.688427269
vn 0.175592229 -0.984462976 0
vn 0.608534098 -0.793527663 0
vn 0.999999762 -0.000712106761 0
vn 0.792385697 -0.000563890557 0.610020101
vn 0.609130204 0.793070257 0
vn 0.472952217 0.61577034 0.630192876
vn 0.130579948 0.991437852 5.65908579E-07
vn 0.0958987027 0.727968931 0.678870142
vn 2.840247E-05 -4.74174669E-07 -1
vn 0.914236784 -0.294579268 -0.278197885
vn 0.707030296 -0.000348555302 -0.707183123
vn 2.91536289E-05 0 -1
vn 0 0 -1
vn 0 -3.25750818E-07 -1
vn 0 -2.60466845E-06 -1
vn 0.175592229 -0.984462976 0
vn 0.127377436 -0.714032948 0.688427269
vn 0.914236784 -0.294579327 0.278197914
vn 0.914236784 -0.294579268 -0.278197885
vn 2.51854908E-05 1 3.84972395E-07
vn 7.1812894E-05 1 0
vn 0.0958987027 0.727968931 0.678870142
vn 0.130579948 0.991437852 5.65908579E-07
vn 0.731851339 -0.665736616 0.145562604
vn 1 -2.5286532E-05 0.000143247569
vn 1 -2.52865284E-05 -0.00014308859
vn 0.731845856 -0.665741682 -0.145566568
vn 0.705651879 0.708558679 0
vn -0.705640376 0.708570063 8.46606963E-06
vn -0.705651104 0.708559453 8.46619878E-06
vn 0.705651104 0.708559453 0
vn 0.548979819 -0.630267739 -0.548984289
vn 0.731845856 -0.665741682 -0.145566568
vn -0.73185724 -0.66573149 0.145555571
vn 0.145568013 -0.66574955 -0.731838405
vn -0.145562917 -0.665736318 -0.731851459
vn -0.548993051 -0.630262315 -0.548977315
vn -0.731812119 -0.665780962 -0.145556763
vn -0.145562917 -0.665736318 -0.731851459
vn 0.000142331934 -2.52348E-05 -1
vn -0.000142332356 -2.51714537E-05 -1
vn 0.145568013 -0.66574955 -0.731838405
vn 0 0.708559394 -0.705651164
vn 0 0.708559394 0.705651164
vn 0 0.708558619 0.705651879
vn 0 0.708558619 -0.705651879
vn -0.707106233 0.000353590673 0.707107246
vn -0.926707149 0.000325522764 0.375784308
vn -0.926707149 0.000325522764 0.375784308
vn -0.707106292 0.000353590585 0.707107067
vn -0.192587182 0.00101870601 0.981279373
vn -0.191947699 0.00022033877 0.981405079
vn -0.000611715892 0.0027535453 0.999996066
vn -0.00057045836 3.24537796E-05 0.999999881
vn 0.000479601818 0.00274096662 0.999996185
vn 0.191840023 0.000401199883 0.98142612
vn 0.00047226742 0.00101683685 0.999999404
vn 0.192488581 0.00100977754 0.981298625
vn 0.707106948 0.000353590876 0.707106471
vn 0.707106888 0.000353590905 0.70710659
vn 0.926707804 0.000325522968 0.37578252
vn 0.926707804 0.000325522968 0.37578252
vn -0.73185724 -0.66573149 0.145555571
vn -1 -2.52978789E-05 -0.00014282341
vn -1 -2.52978807E-05 0.000142664503
vn -0.731812119 -0.665780962 -0.145556763
vn 1.29903265E-05 0.708559453 -0.705651045
vn 1.29901291E-05 0.708570063 -0.705640376
vn 1.29901291E-05 0.708570063 0.705640376
vn 1.29903265E-05 0.708559453 0.705651045
vn -4.39365294E-06 -1 -9.74635441E-07
vn -0.731325507 -0.666879714 -0.142949119
vn 0 -1 -5.47077798E-06
vn -8.60232558E-06 -1 8.19557044E-06
vn 8.29877081E-06 -1 -1.28176438E-07
vn 1.65634137E-05 -1 -2.55825768E-07
vn 0.731932104 0.665650427 -0.145550206
vn 1 -1.151777E-05 0.000218216403
vn 1 -2.5286532E-05 0.000143247569
vn 0.731845856 -0.665741682 -0.145566568
vn 0.548985422 0.630261958 -0.548985183
vn 0.548979819 -0.630267739 -0.548984289
vn 0.145574734 0.665659308 -0.731919229
vn 0.145568013 -0.66574955 -0.731838405
vn -0.000153502813 -0.000154680325 -1
vn -0.000142332356 -2.51714537E-05 -1
vn -0.999999523 0.000943448627 0.00044981949
vn -0.494603902 -0.869118392 0.00041250154
vn -0.999998331 0.00166531326 0.000733609369
vn -0.999996185 0.00274071051 0.000482196774
vn 0 -0.705651939 0.708558559
vn 0 0.708558619 0.705651879
vn 0 0.708559394 0.705651164
vn 0 -0.705651164 0.708559275
vn -0.708494306 -0.705716431 -0.000179934083
vn -0.705651104 0.708559453 8.46619878E-06
vn -0.705640376 0.708570063 8.46606963E-06
vn -0.708625853 -0.705584466 -0.000181531461
vn -0.731918812 0.665659785 -0.145574525
vn -1 -2.52978807E-05 0.000142664503
vn -1 -0.000154551046 0.000153846995
vn -0.731812119 -0.665780962 -0.145556763
vn -0.548984945 0.630262434 -0.548985362
vn -0.548993051 -0.630262315 -0.548977315
vn -0.145562917 -0.665736318 -0.731851459
vn -0.145573765 0.665659308 -0.731919408
vn 0.000153503905 -0.000154777677 -1
vn 0.000142331934 -2.52348E-05 -1
vn 0.999999881 1.32647592E-05 0.000573820667
vn 0.999996066 0.00275174109 0.000615122553
vn 0.514916062 0.857240438 0.000457750517
vn 0.999999404 0.000102402948 0.00106390892
vn -0.00383035676 0.999973416 -0.00621798169
vn -0.000550688768 0.999999285 -0.00111622456
vn 0.732269764 0.666023254 -0.142105475
vn 0.00598371914 0.999939084 0.00927966554
vn -0.00524518872 0.999986291 -0.00014459138
vn -0.00559155177 0.999984384 -0.000288944924
vn 0.514916062 0.857240438 0.000457750517
vn -0.000179687137 -0.705571592 0.708638668
vn -0.000179730065 -0.705720007 0.708490908
vn 1.29903265E-05 0.708559453 0.705651045
vn 1.29901291E-05 0.708570063 0.705640376
vn 0.708560646 -0.705649853 0
vn 0.70856905 -0.705641508 -1.62921583E-06
vn 0.705651879 0.708558679 0
vn 0.705651104 0.708559453 0
vn -1 0 0
vn -1 0.000334442477 0
vn -0.999998212 0.00188271445 8.08312179E-05
vn -0.999997616 0.00221646973 2.12384336E-07
vn 2.51854908E-05 1 3.84972395E-07
vn 0 1 0
vn 7.1812894E-05 1 0
vn 0.731932104 0.665650427 -0.145550206
vn 0 1 0
vn 0.548985422 0.630261958 -0.548985183
vn 0.145574734 0.665659308 -0.731919229
vn 0 1 0
vn -0.145573765 0.665659308 -0.731919408
vn 1.72505258E-06 1 0
vn -0.548984945 0.630262434 -0.548985362
vn 1.59698902E-06 1 0
vn -0.731918812 0.665659785 -0.145574525
vn 1.26989539E-06 1 0
vn 0.731932104 0.665650427 -0.145550206
vn 0.707030296 -0.000348555302 -0.707183123
vn 0.914236784 -0.294579268 -0.278197885
vn 1 -1.151777E-05 0.000218216403
vn -0.708625853 -0.705584466 -0.000181531461
vn 0.70856905 -0.705641508 -1.62921583E-06
vn -0.708494306 -0.705716431 -0.000179934083
vn 0.708560646 -0.705649853 0
vn -0.707104325 0.00318117603 0.70710206
vn -0.926720798 0.00292987376 0.375739157
vn -0.926720798 0.00292987376 0.375739157
vn -0.707104325 0.00318117649 0.70710206
vn -0.141140118 0.656130075 0.741331875
vn -0.191372856 0.0026216791 0.981513917
vn 0.191372886 0.00262173917 0.981513917
vn 0.141666234 0.666636825 0.731796443
vn 0.707104146 0.00318126613 0.70710218
vn 0.541262388 0.643484473 0.541260302
vn 0.731788695 0.666645944 0.141663328
vn 0.981514156 0.00262159761 0.191371441
vn 0.541262388 0.643484473 0.541260302
vn 0.731788695 0.666645944 0.141663328
vn 0.141666234 0.666636825 0.731796443
vn -0.141140118 0.656130075 0.741331875
vn 8.78000064E-05 0.999985933 -0.00531511148
vn 0 0.999984264 -0.00562467286
vn -0.000202637704 1 0.000105065454
vn -0.000153502813 -0.000154680325 -1
vn -0.145573765 0.665659308 -0.731919408
vn 0.145574734 0.665659308 -0.731919229
vn 0.000153503905 -0.000154777677 -1
vn -0.999999523 0.000943448627 0.00044981949
vn -0.999999523 0.000943448627 -0.000449704792
vn -0.731325507 -0.666879714 -0.142949119
vn -0.494603902 -0.869118392 0.00041250154
vn 0 -0.705651164 0.708559275
vn 0 -0.705651164 -0.708559275
vn 0 -0.705651939 -0.708558559
vn 0 -0.705651939 0.708558559
vt 0.0588679872 0.201618403
vt 0.0588637404 0.324473381
vt 0.185032174 0.19582808
vt 0.532640278 0.0105161248
vt 0.538980126 0.00796374492
vt 0.538980067 0.00796374399
vt 0.530114949 0.016864147
vt 0.532640278 0.0105161248
vt 0.530331194 0.503521085
vt 0.532873988 0.509875059
vt 0.539228797 0.512418032
vt 0.539228797 0.512418032
vt 0.821350396 0.65881604
vt 0.698495328 0.658816099
vt 0.698479295 0.695545435
vt 0.821334362 0.684293449
vt 0.827702284 0.682586908
vt 0.834076822 0.671558321
vt 0.82771641 0.66052109
vt 0.472424716 0.844598532
vt 0.472427309 0.838993132
vt 0.0472140275 0.83881402
vt 0.0472115278 0.844414949
vt 0.894281685 0.030262854
vt 0.932522178 0.486496061
vt 0.93252176 0.0612799712
vt 0.894281805 0.517513454
vt 0.515466809 0.393925577
vt 0.522454917 0.393922299
vt 0.522212923 0.00788746774
vt 0.515339553 0.00781362131
vt 0.508466303 0.00789188407
vt 0.508478105 0.39392668
vt 0.477736473 0.0252152663
vt 0.479213268 0.382612348
vt 0.0525211878 0.0252239108
vt 0.0217939727 0.393935949
vt 0.051058609 0.382620454
vt 0.0217907168 0.00790204667
vt 0.0149175311 0.00782384351
vt 0.0148054818 0.393935323
vt 0.00781686325 0.393932045
vt 0.00804447383 0.00789792091
vt 0.0104639884 0.736395419
vt 0.016707167 0.738960803
vt 0.0078982478 0.730151892
vt 0.503382325 0.738960803
vt 0.509625375 0.736395419
vt 0.512190521 0.730151653
vt 0.512190521 0.730151653
vt 0.0144512914 0.410603285
vt 0.0167848673 0.39607349
vt 0.013039967 0.400353789
vt 0.506193578 0.403680116
vt 0.515193582 0.404417336
vt 0.51794374 0.410065353
vt 0.51794374 0.410065353
vt 0.783400893 0.438166738
vt 0.753043175 0.0297454055
vt 0.754485369 0.383724719
vt 0.783471286 -0.00812288094
vt 0.793491066 0.438166916
vt 0.793488979 -0.00811786205
vt 0.803581715 0.438164592
vt 0.803510904 -0.00812556688
vt 0.832579434 0.383724689
vt 0.834021866 0.0297456589
vt 0.434045792 0.157968998
vt 0.0593267046 0.187150568
vt 0.445361078 0.187150806
vt 0.0766487643 0.156503558
vt 0.0766487643 0.156503558
vt 0.0593267046 0.187150568
vt 0.067446582 0.812815249
vt 0.0674467012 0.818597615
vt 0.425209403 0.818598807
vt 0.425209403 0.812815368
vt 0.0426134281 0.852613747
vt 0.0426147394 0.85837847
vt 0.400381178 0.858378708
vt 0.400380582 0.852594554
vt 0.0285509173 0.0809911937
vt 0.0829911679 0.109906562
vt 0.436970711 0.111349031
vt 0.474841207 0.080920428
vt 0.0285485871 0.0709008127
vt 0.474833786 0.0709003359
vt 0.474841416 0.0608806312
vt 0.0285487939 0.0608103573
vt 0.0829910487 0.0318123735
vt 0.436970979 0.030369686
vt 0.0078299772 0.872386098
vt 0.365595341 0.872385859
vt 0.365594983 0.866601884
vt 0.00782830641 0.866621673
vt 0.438602716 0.823614478
vt 0.0808379352 0.823613405
vt 0.0808379352 0.829397261
vt 0.438602835 0.829397678
vt 0.693902016 0.650258064
vt 0.849243879 0.650337815
vt 0.693901062 0.612820387
vt 0.849246621 0.612814069
vt 0.842517614 0.0428204276
vt 0.716355681 0.0486441627
vt 0.871700108 0.0486160405
vt 0.871983945 0.0428152308
vt 0.878047705 0.0511542633
vt 0.882167995 0.0470323488
vt 0.886389256 0.0572150573
vt 0.880588531 0.0575010739
vt 0.886474907 0.544467092
vt 0.880674362 0.544183433
vt 0.88225764 0.554651618
vt 0.878135324 0.550531387
vt 0.872074068 0.558872879
vt 0.871788621 0.553071976
vt 0.872074068 0.558872879
vt 0.871788621 0.553071976
vt 0.444808304 0.195814922
vt 0.408076078 0.225279063
vt 0.444806188 0.225281209
vt 0.389714837 0.225277975
vt 0.389714837 0.225277975
vt 0.408076078 0.225279063
vt 0.948159158 0.737576365
vt 0.948158741 0.731812358
vt 0.520005345 0.737595141
vt 0.520005465 0.731812656
vt 0.953538895 0.515441954
vt 0.953570068 0.522416949
vt 0.991093338 0.522209227
vt 0.991140544 0.51533556
vt 0.991054893 0.508462727
vt 0.953531086 0.508466363
vt 0.953531146 0.0217828155
vt 0.99105531 0.0217867251
vt 0.953539193 0.0148075223
vt 0.991140842 0.0149136828
vt 0.991093576 0.00804024655
vt 0.953570306 0.00783257838
vt 0.98952198 0.708812833
vt 0.98952198 0.708812833
vt 0.989521682 0.714577377
vt 0.989521742 0.714577436
vt 0.746672809 0.0341312662
vt 0.746672809 0.0341312662
vt 0.717491508 0.0228158403
vt 0.717491508 0.0228158403
vt 0.71749115 0.408850253
vt 0.748138607 0.391528398
vt 0.748138607 0.391528398
vt 0.71749115 0.408850253
vt 0.487997651 0.973902464
vt 0.517546833 0.918813467
vt 0.0302937087 0.918806314
vt 0.0598422177 0.973898709
vt 0.688385665 0.604334295
vt 0.688290417 0.566810489
vt 0.688290417 0.566810489
vt 0.688290298 0.604334235
vt 0.981090486 0.754761815
vt 0.981090546 0.754707694
vt 0.978525162 0.74846375
vt 0.972282171 0.745899379
vt 0.485607773 0.745899498
vt 0.479364902 0.748463869
vt 0.476799726 0.754707813
vt 0.476717621 0.910049021
vt 0.381907731 0.351438612
vt 0.326818287 0.321971953
vt 0.326818287 0.321971953
vt 0.381907731 0.351438612
vt 0.258589447 0.309492409
vt 0.26523903 0.309491605
vt 0.26523903 0.309491605
vt 0.258589417 0.309492379
vt 0.245288864 0.309492797
vt 0.245288864 0.309492797
vt 0.231985971 0.309492081
vt 0.231985971 0.309492081
vt 0.22533834 0.309491605
vt 0.22533834 0.309491605
vt 0.821350396 0.65881604
vt 0.698479295 0.695545435
vt 0.698495328 0.658816099
vt 0.821334362 0.684293449
vt 0.827702284 0.682586908
vt 0.834076822 0.671558321
vt 0.82771641 0.66052109
vt 0.192845851 0.19581686
vt 0.192845851 0.19581686
vt 0.192845553 0.32006675
vt 0.192845553 0.32006675
vt 0.0588679872 0.201618403
vt 0.185032174 0.19582808
vt 0.0588637404 0.324473381
vt 0.0588637404 0.324473381
vt 0.71601373 0.468248218
vt 0.746948779 0.430008143
vt 0.746948779 0.430008143
vt 0.71601373 0.468248218
vt 0.472424716 0.844598532
vt 0.0472115278 0.844414949
vt 0.0472140275 0.83881402
vt 0.472427309 0.838993132
vt 0.515193582 0.404417336
vt 0.51794374 0.410065353
vt 0.0144512914 0.410603285
vt 0.506193578 0.403680116
vt 0.0167848673 0.39607349
vt 0.013039967 0.400353789
vt 0.0144512914 0.410603285
vt 0.894281685 0.030262854
vt 0.93252176 0.0612799712
vt 0.932522178 0.486496061
vt 0.894281805 0.517513454
vt 0.424332082 0.791981518
vt 0.424332082 0.791981518
vt 0.424323767 0.797591984
vt 0.424323767 0.797591984
vt 0.515466809 0.393925577
vt 0.522212923 0.00788746774
vt 0.522454917 0.393922299
vt 0.515339553 0.00781362131
vt 0.508466303 0.00789188407
vt 0.508478105 0.39392668
vt 0.477736473 0.0252152663
vt 0.479213268 0.382612348
vt 0.0525211878 0.0252239108
vt 0.0217939727 0.393935949
vt 0.051058609 0.382620454
vt 0.0217907168 0.00790204667
vt 0.0149175311 0.00782384351
vt 0.0148054818 0.393935323
vt 0.00781686325 0.393932045
vt 0.00804447383 0.00789792091
vt 0.254812866 0.369244874
vt 0.223877579 0.331004351
vt 0.223877579 0.331004351
vt 0.254812866 0.369244874
vt 0.944645405 0.354263514
vt 0.939035356 0.354255259
vt 0.939035356 0.354255259
vt 0.944645405 0.354263514
vt 0.532873988 0.509875059
vt 0.538980067 0.00796374399
vt 0.539228797 0.512418032
vt 0.530331194 0.503521085
vt 0.530114949 0.016864147
vt 0.532640278 0.0105161248
vt 0.783400893 0.438166738
vt 0.754485369 0.383724719
vt 0.753043175 0.0297454055
vt 0.783471286 -0.00812288094
vt 0.793491066 0.438166916
vt 0.793488979 -0.00811786205
vt 0.803581715 0.438164592
vt 0.803510904 -0.00812556688
vt 0.832579434 0.383724689
vt 0.834021866 0.0297456589
vt 0.434045792 0.157968998
vt 0.445361078 0.187150806
vt 0.0593267046 0.187150568
vt 0.0766487643 0.156503558
vt 0.067446582 0.812815249
vt 0.425209403 0.812815368
vt 0.425209403 0.818598807
vt 0.0674467012 0.818597615
vt 0.0426134281 0.852613747
vt 0.400380582 0.852594554
vt 0.400381178 0.858378708
vt 0.0426147394 0.85837847
vt 0.0285509173 0.0809911937
vt 0.436970711 0.111349031
vt 0.0829911679 0.109906562
vt 0.474841207 0.080920428
vt 0.0285485871 0.0709008127
vt 0.474833786 0.0709003359
vt 0.474841416 0.0608806312
vt 0.0285487939 0.0608103573
vt 0.0829910487 0.0318123735
vt 0.436970979 0.030369686
vt 0.746672809 0.0341312662
vt 0.748138607 0.391528398
vt 0.71749115 0.408850253
vt 0.717491508 0.0228158403
vt 0.512190521 0.730151653
vt 0.509625375 0.736395419
vt 0.0078982478 0.730151892
vt 0.503382325 0.738960803
vt 0.016707167 0.738960803
vt 0.0104639884 0.736395419
vt 0.0078982478 0.730151892
vt 0.0078299772 0.872386098
vt 0.00782830641 0.866621673
vt 0.365594983 0.866601884
vt 0.365595341 0.872385859
vt 0.438602716 0.823614478
vt 0.438602835 0.829397678
vt 0.0808379352 0.829397261
vt 0.0808379352 0.823613405
vt 0.693902016 0.650258064
vt 0.693901062 0.612820387
vt 0.849243879 0.650337815
vt 0.849246621 0.612814069
vt 0.842517614 0.0428204276
vt 0.871700108 0.0486160405
vt 0.716355681 0.0486441627
vt 0.871983945 0.0428152308
vt 0.878047705 0.0511542633
vt 0.882167995 0.0470323488
vt 0.886389256 0.0572150573
vt 0.880588531 0.0575010739
vt 0.886474907 0.544467092
vt 0.880674362 0.544183433
vt 0.88225764 0.554651618
vt 0.878135324 0.550531387
vt 0.872074068 0.558872879
vt 0.871788621 0.553071976
vt 0.444808304 0.195814922
vt 0.444806188 0.225281209
vt 0.408076078 0.225279063
vt 0.389714837 0.225277975
vt 0.948159158 0.737576365
vt 0.520005345 0.737595141
vt 0.948158741 0.731812358
vt 0.520005465 0.731812656
vt 0.953538895 0.515441954
vt 0.991093338 0.522209227
vt 0.953570068 0.522416949
vt 0.991140544 0.51533556
vt 0.991054893 0.508462727
vt 0.953531086 0.508466363
vt 0.953531146 0.0217828155
vt 0.99105531 0.0217867251
vt 0.953539193 0.0148075223
vt 0.991140842 0.0149136828
vt 0.991093576 0.00804024655
vt 0.953570306 0.00783257838
vt 0.978525162 0.74846375
vt 0.981090486 0.754761815
vt 0.972282171 0.745899379
vt 0.485607773 0.745899498
vt 0.479364902 0.748463869
vt 0.476799726 0.754707813
vt 0.476717621 0.910049021
vt 0.487997651 0.973902464
vt 0.0302937087 0.918806314
vt 0.517546833 0.918813467
vt 0.0598422177 0.973898709
vt 0.452438682 0.371131569
vt 0.452438682 0.371131569
vt 0.481619388 0.359814852
vt 0.481619418 0.359814823
vt 0.938858867 0.349973202
vt 0.938858807 0.349973172
vt 0.944641471 0.349973202
vt 0.944641471 0.349973202
g submesh0
f 1/1/1 2/2/2 3/3/3
f 4/4/4 5/5/5 6/6/6
f 7/7/7 6/6/6 8/8/8
f 6/6/6 7/7/7 9/9/9
f 6/6/6 9/9/9 10/10/10
f 10/10/10 11/11/11 6/6/6
f 12/12/12 6/6/6 11/11/11
f 13/13/13 14/14/14 15/15/15
f 13/13/13 15/15/15 16/16/16
f 17/17/17 13/13/13 16/16/16
f 18/18/18 13/13/13 17/17/17
f 19/19/19 13/13/13 18/18/18
f 20/20/20 21/21/21 22/22/22
f 20/20/20 22/22/22 23/23/23
f 24/24/24 25/25/25 26/26/26
f 27/27/27 25/25/25 24/24/24
f 28/28/28 29/29/29 30/30/30
f 28/28/28 30/30/30 31/31/31
f 32/32/32 28/28/28 31/31/31
f 32/32/32 33/33/33 28/28/28
f 33/33/33 32/32/32 34/34/34
f 33/33/33 34/34/34 35/35/35
f 34/34/34 32/32/32 36/36/36
f 35/35/35 37/37/37 33/33/33
f 38/38/38 37/37/37 35/35/35
f 37/37/37 38/38/38 36/36/36
f 39/39/39 36/36/36 32/32/32
f 37/37/37 36/36/36 39/39/39
f 37/37/37 39/39/39 40/40/40
f 37/37/37 40/40/40 41/41/41
f 40/40/40 42/42/42 41/41/41
f 40/40/40 43/43/43 42/42/42
f 44/44/44 45/45/45 46/46/46
f 45/45/45 47/47/47 46/46/46
f 48/48/48 46/46/46 47/47/47
f 49/49/49 46/46/46 48/48/48
f 49/49/49 50/50/50 46/46/46
f 51/51/51 52/52/52 53/53/53
f 51/51/51 54/54/54 52/52/52
f 54/54/54 51/51/51 55/55/55
f 55/55/55 51/51/51 56/56/56
f 51/51/51 57/57/57 56/56/56
f 58/58/58 59/59/59 60/60/60
f 58/58/58 61/61/61 59/59/59
f 62/62/62 61/61/61 58/58/58
f 62/62/62 63/63/63 61/61/61
f 64/64/64 63/63/63 62/62/62
f 64/64/64 65/65/65 63/63/63
f 66/66/66 65/65/65 64/64/64
f 66/66/66 67/67/67 65/65/65
f 68/68/68 69/69/69 70/70/70
f 68/68/68 71/71/71 69/69/69
f 69/69/69 71/71/71 72/72/72
f 73/73/73 69/69/69 72/72/72
f 74/74/74 75/75/75 76/76/76
f 74/74/74 76/76/76 77/77/77
f 78/78/78 79/79/79 80/80/80
f 78/78/78 80/80/80 81/81/81
f 82/82/82 83/83/83 84/84/84
f 82/82/82 84/84/84 85/85/85
f 86/86/86 82/82/82 85/85/85
f 86/86/86 85/85/85 87/87/87
f 88/88/88 86/86/86 87/87/87
f 88/88/88 89/89/89 86/86/86
f 90/90/90 89/89/89 88/88/88
f 90/90/90 88/88/88 91/91/91
f 92/92/92 93/93/93 94/94/94
f 92/92/92 94/94/94 95/95/95
f 96/96/96 97/97/97 98/98/98
f 96/96/96 98/98/98 99/99/99
f 100/100/100 101/101/101 102/102/102
f 102/102/102 101/101/101 103/103/103
f 104/104/104 105/105/105 106/106/106
f 104/104/104 106/106/106 107/107/107
f 107/107/107 106/106/106 108/108/108
f 107/107/107 108/108/108 109/109/109
f 110/110/110 109/109/109 108/108/108
f 110/110/110 108/108/108 111/111/111
f 112/112/112 110/110/110 111/111/111
f 112/112/112 111/111/111 113/113/113
f 113/113/113 114/114/114 112/112/112
f 113/113/113 115/115/115 114/114/114
f 116/116/116 114/114/114 115/115/115
f 116/116/116 115/115/115 117/117/117
f 118/118/118 116/116/116 117/117/117
f 118/118/118 117/117/117 119/119/119
f 120/120/120 121/121/121 122/122/122
f 120/120/120 123/123/123 121/121/121
f 121/121/121 123/123/123 124/124/124
f 121/121/121 124/124/124 125/125/125
f 126/126/126 127/127/127 128/128/128
f 128/128/128 127/127/127 129/129/129
f 130/130/130 131/131/131 132/132/132
f 130/130/130 132/132/132 133/133/133
f 130/130/130 133/133/133 134/134/134
f 130/130/130 134/134/134 135/135/135
f 136/136/136 135/135/135 134/134/134
f 136/136/136 134/134/134 137/137/137
f 138/138/138 136/136/136 137/137/137
f 138/138/138 137/137/137 139/139/139
f 140/140/140 138/138/138 139/139/139
f 140/140/140 141/141/141 138/138/138
f 142/142/142 143/143/143 144/144/144
f 142/142/142 144/144/144 145/145/145
f 146/146/146 147/147/147 148/148/148
f 146/146/146 148/148/148 149/149/149
f 146/146/146 149/149/149 150/150/150
f 146/146/146 150/150/150 151/151/151
f 150/150/150 152/152/152 151/151/151
f 153/153/153 152/152/152 150/150/150
f 154/154/154 155/155/155 156/156/156
f 154/154/154 156/156/156 157/157/157
f 158/158/158 159/159/159 160/160/160
f 158/158/158 160/160/160 161/161/161
f 162/162/162 163/163/163 164/164/164
f 164/164/164 165/165/165 162/162/162
f 165/165/165 166/166/166 162/162/162
f 162/162/162 166/166/166 167/167/167
f 168/168/168 162/162/162 167/167/167
f 169/169/169 162/162/162 168/168/168
f 170/170/170 171/171/171 172/172/172
f 170/170/170 172/172/172 173/173/173
f 174/174/174 175/175/175 176/176/176
f 174/174/174 176/176/176 177/177/177
f 178/178/178 174/174/174 177/177/177
f 178/178/178 179/179/179 174/174/174
f 179/179/179 178/178/178 180/180/180
f 179/179/179 180/180/180 181/181/181
f 182/182/182 181/181/181 180/180/180
f 182/182/182 183/183/183 181/181/181
f 184/184/184 185/185/185 186/186/186
f 184/184/184 187/187/187 185/185/185
f 184/184/184 188/188/188 187/187/187
f 188/188/188 184/184/184 189/189/189
f 189/189/189 184/184/184 190/190/190
f 191/191/191 192/192/192 193/193/193
f 191/191/191 193/193/193 194/194/194
f 195/195/195 196/196/196 197/197/197
f 195/195/195 197/197/197 198/198/198
f 199/199/199 200/200/200 201/201/201
f 202/202/202 200/200/200 199/199/199
f 203/203/203 204/204/204 205/205/205
f 203/203/203 205/205/205 206/206/206
f 207/207/207 208/208/208 209/209/209
f 210/210/210 207/207/207 209/209/209
f 209/209/209 211/211/211 210/210/210
f 209/209/209 212/212/212 211/211/211
f 212/212/212 209/209/209 213/213/213
f 214/214/214 215/215/215 216/216/216
f 217/217/217 214/214/214 216/216/216
f 218/218/218 219/219/219 220/220/220
f 218/218/218 220/220/220 221/221/221
f 222/222/222 223/223/223 224/224/224
f 222/222/222 225/225/225 223/223/223
f 226/226/226 225/225/225 222/222/222
f 226/226/226 222/222/222 227/227/227
f 227/227/227 228/228/228 226/226/226
f 227/227/227 229/229/229 228/228/228
f 228/228/228 230/230/230 226/226/226
f 229/229/229 227/227/227 231/231/231
f 232/232/232 229/229/229 231/231/231
f 231/231/231 230/230/230 232/232/232
f 233/233/233 226/226/226 230/230/230
f 231/231/231 233/233/233 230/230/230
f 231/231/231 234/234/234 233/233/233
f 231/231/231 235/235/235 234/234/234
f 234/234/234 235/235/235 236/236/236
f 234/234/234 236/236/236 237/237/237
f 238/238/238 239/239/239 240/240/240
f 241/241/241 238/238/238 240/240/240
f 242/242/242 243/243/243 244/244/244
f 242/242/242 244/244/244 245/245/245
f 246/246/246 247/247/247 248/248/248
f 247/247/247 246/246/246 249/249/249
f 247/247/247 249/249/249 250/250/250
f 250/250/250 251/251/251 247/247/247
f 252/252/252 253/253/253 254/254/254
f 252/252/252 254/254/254 255/255/255
f 256/256/256 252/252/252 255/255/255
f 256/256/256 255/255/255 257/257/257
f 258/258/258 256/256/256 257/257/257
f 258/258/258 257/257/257 259/259/259
f 260/260/260 258/258/258 259/259/259
f 260/260/260 259/259/259 261/261/261
f 262/262/262 263/263/263 264/264/264
f 262/262/262 264/264/264 265/265/265
f 266/266/266 267/267/267 268/268/268
f 266/266/266 268/268/268 269/269/269
f 270/270/270 271/271/271 272/272/272
f 270/270/270 272/272/272 273/273/273
f 274/274/274 275/275/275 276/276/276
f 274/274/274 277/277/277 275/275/275
f 278/278/278 277/277/277 274/274/274
f 278/278/278 279/279/279 277/277/277
f 280/280/280 279/279/279 278/278/278
f 280/280/280 278/278/278 281/281/281
f 282/282/282 280/280/280 281/281/281
f 282/282/282 283/283/283 280/280/280
f 284/284/284 285/285/285 286/286/286
f 284/284/284 286/286/286 287/287/287
f 288/288/288 289/289/289 290/290/290
f 289/289/289 291/291/291 290/290/290
f 292/292/292 290/290/290 291/291/291
f 293/293/293 290/290/290 292/292/292
f 294/294/294 290/290/290 293/293/293
f 295/295/295 296/296/296 297/297/297
f 295/295/295 297/297/297 298/298/298
f 299/299/299 300/300/300 301/301/301
f 299/299/299 301/301/301 302/302/302
f 303/303/303 304/304/304 305/305/305
f 304/304/304 306/306/306 305/305/305
f 307/307/307 308/308/308 309/309/309
f 307/307/307 310/310/310 308/308/308
f 310/310/310 311/311/311 308/308/308
f 310/310/310 312/312/312 311/311/311
f 313/313/313 311/311/311 312/312/312
f 313/313/313 314/314/314 311/311/311
f 315/315/315 314/314/314 313/313/313
f 315/315/315 316/316/316 314/314/314
f 316/316/316 315/315/315 317/317/317
f 316/316/316 317/317/317 318/318/318
f 319/319/319 318/318/318 317/317/317
f 319/319/319 320/320/320 318/318/318
f 321/321/321 322/322/322 323/323/323
f 321/321/321 323/323/323 324/324/324
f 325/325/325 326/326/326 327/327/327
f 326/326/326 328/328/328 327/327/327
f 329/329/329 330/330/330 331/331/331
f 329/329/329 332/332/332 330/330/330
f 329/329/329 333/333/333 332/332/332
f 329/329/329 334/334/334 333/333/333
f 335/335/335 333/333/333 334/334/334
f 335/335/335 336/336/336 333/333/333
f 337/337/337 336/336/336 335/335/335
f 337/337/337 338/338/338 336/336/336
f 339/339/339 338/338/338 337/337/337
f 339/339/339 337/337/337 340/340/340
f 341/341/341 342/342/342 343/343/343
f 343/343/343 342/342/342 344/344/344
f 342/342/342 345/345/345 344/344/344
f 346/346/346 345/345/345 342/342/342
f 347/347/347 346/346/346 342/342/342
f 348/348/348 349/349/349 350/350/350
f 348/348/348 351/351/351 349/349/349
f 352/352/352 353/353/353 354/354/354
f 352/352/352 354/354/354 355/355/355
f 356/356/356 357/357/357 358/358/358
f 356/356/356 358/358/358 359/359/359
