# mess_hall_table_a_wood
v 0.500073075 0.749926805 -0.875073135
v -0.500073075 0.749927044 0.875073016
v -0.500072896 0.749926805 -0.875073135
v -0.500072896 0.780072927 -0.875073135
v -0.500073075 0.780073166 0.875073016
v 0.500073075 0.780072927 -0.875073135
v 0.500073075 0.749927044 0.875073016
v 0.500073075 0.780073166 0.875073016
v 0.699927032 0.401531249 0.875073075
v 1.00007319 0.401530981 -0.875073075
v 1.00007308 0.401531249 0.875073075
v 1.00007308 0.431677312 0.875073075
v 1.00007319 0.431677073 -0.875073075
v 0.699927032 0.431677312 0.875073075
v 0.699927211 0.401530981 -0.875073075
v 0.699927211 0.431677073 -0.875073075
v -0.699926972 0.401530981 -0.875073075
v -1.00007296 0.401531249 0.875073075
v -1.00007296 0.401530981 -0.875073075
v -1.00007296 0.431677073 -0.875073075
v -1.00007296 0.431677312 0.875073075
v -0.699926972 0.431677073 -0.875073075
v -0.699926972 0.401531249 0.875073075
v -0.699926972 0.431677312 0.875073075
g submesh0
f 1 2 3
f 4 1 3
f 3 5 4
f 5 3 2
f 1 4 6
f 5 6 4
f 2 1 7
f 6 7 1
f 6 5 8
f 2 8 5
f 8 2 7
f 7 6 8
f 9 10 11
f 12 9 11
f 11 13 12
f 13 11 10
f 9 12 14
f 13 14 12
f 10 9 15
f 14 15 9
f 14 13 16
f 10 16 13
f 16 10 15
f 15 14 16
f 17 18 19
f 20 17 19
f 19 21 20
f 21 19 18
f 17 20 22
f 21 22 20
f 18 17 23
f 22 23 17
f 22 21 24
f 18 24 21
f 24 18 23
f 23 22 24
