# mess_hall_table_a_metal
v 0.366312861 0.416118234 -0.598360121
v 0.366312921 0.398066938 -0.601640403
v -0.366312563 0.398067594 -0.601640224
v -0.366312623 0.41611883 -0.598360062
v -0.366312414 0.398067772 0.601640046
v 0.3663131 0.398067117 0.601640046
v 0.36631301 0.416118413 0.598359704
v -0.366312474 0.416119039 0.598359704
v 0.850000381 0.386110574 0.613813758
v 0.834000289 0.386110604 0.600000024
v 0.833999991 0.0371384919 0.599999845
v 0.850000381 0.386110574 0.58618623
v 0.850000083 0.0205913559 0.613813519
v 0.866000414 0.386110514 0.600000024
v 0.850000083 0.0205913112 0.586185992
v 0.866000116 0.00431021256 0.599999785
v 0.407267779 0.00431054225 0.599999845
v 0.418581545 0.0203105994 0.613813519
v 0.418581545 0.02031059 0.586185992
v 0.356574178 0.40709278 0.599999726
v 0.429895252 0.0363106467 0.599999845
v 0.37082389 0.41437462 0.613813519
v 0.37082389 0.41437456 0.586185992
v 0.1767167 0.719847977 0.599999785
v 0.385073602 0.4216564 0.599999726
v 0.182777494 0.734668851 0.61381346
v 0.182777494 0.734668851 0.586185992
v 0.188838303 0.749489725 0.599999785
v -0.182776317 0.734669149 0.613813519
v -0.176715523 0.719848335 0.599999785
v -0.188837081 0.749490023 0.599999785
v -0.182776317 0.734669149 0.586185992
v -0.385072857 0.421657026 0.599999845
v -0.370823115 0.414375186 0.613813579
v -0.370823205 0.414375186 0.586186111
v -0.356573492 0.407093346 0.599999845
v -0.429895163 0.0363113359 0.599999905
v -0.418581456 0.0203112699 0.613813639
v -0.833999991 0.0371398292 0.599999964
v -0.418581456 0.0203112625 0.586186051
v -0.407267779 0.00431119604 0.599999845
v -0.849999905 0.020592723 0.613813698
v -0.849999905 0.0205926746 0.586186111
v -0.865999937 0.00431160256 0.599999964
v -0.865999639 0.386111885 0.600000203
v -0.849999607 0.386111885 0.613813877
v -0.849999607 0.386111945 0.586186409
v -0.833999693 0.386111945 0.600000203
v 0.850000143 0.154165402 0.597690821
v 0.849999845 0.154165387 -0.600000203
v 0.849999845 0.122165382 -0.600000143
v 0.850000083 0.122165389 0.59769088
v -0.849999964 0.122166745 -0.599999964
v -0.849999964 0.154166758 -0.600000024
v -0.849999845 0.154166758 0.597691
v -0.849999845 0.122166753 0.597691
v -0.849999726 0.386111706 -0.613814056
v -0.833999693 0.386111706 -0.600000262
v -0.833999991 0.0371396281 -0.599999964
v -0.849999726 0.386111706 -0.586186528
v -0.850000083 0.0205925126 -0.613813758
v -0.865999818 0.386111706 -0.600000262
v -0.850000083 0.0205924846 -0.58618623
v -0.866000116 0.00431140233 -0.599999964
v -0.407267869 0.00431099581 -0.599999905
v -0.418581545 0.0203110613 -0.613813698
v -0.418581545 0.0203110687 -0.586186171
v -0.356573552 0.407093108 -0.600000024
v -0.429895252 0.0363111347 -0.599999964
v -0.370823294 0.414374977 -0.613813758
v -0.370823294 0.414374977 -0.58618623
v -0.176715598 0.719848096 -0.600000083
v -0.385073006 0.421656817 -0.600000024
v -0.182776392 0.73466897 -0.613813818
v -0.182776392 0.73466897 -0.58618629
v -0.188837156 0.749489784 -0.600000083
v 0.18277742 0.734668612 -0.613813818
v 0.176716626 0.719847798 -0.600000083
v 0.188838229 0.749489486 -0.600000083
v 0.18277742 0.734668612 -0.58618629
v 0.385073513 0.421656221 -0.600000024
v 0.370823801 0.414374381 -0.613813758
v 0.370823801 0.414374381 -0.58618623
v 0.356574118 0.407092541 -0.600000024
v 0.429895163 0.0363104455 -0.599999964
v 0.418581456 0.0203103889 -0.613813698
v 0.833999991 0.0371382907 -0.599999964
v 0.418581456 0.0203103982 -0.586186171
v 0.40726772 0.00431034202 -0.599999905
v 0.849999964 0.0205911491 -0.613813758
v 0.849999964 0.0205911174 -0.58618623
v 0.865999937 0.00431001186 -0.599999964
v 0.866000295 0.386110306 -0.600000262
v 0.850000262 0.386110336 -0.613814056
v 0.850000262 0.386110365 -0.586186528
v 0.83400023 0.386110365 -0.600000262
g submesh0
f 1 2 3
f 3 2 1
f 3 4 1
f 1 4 3
f 5 6 7
f 7 6 5
f 7 8 5
f 7 5 8
f 9 10 11
f 10 12 11
f 11 13 9
f 14 9 13
f 12 14 15
f 15 11 12
f 13 16 14
f 16 15 14
f 17 16 13
f 15 16 17
f 13 11 18
f 13 18 17
f 11 15 19
f 17 19 15
f 20 17 18
f 19 17 20
f 11 21 18
f 19 21 11
f 18 22 20
f 18 21 22
f 21 19 23
f 20 23 19
f 24 20 22
f 23 20 24
f 25 22 21
f 23 25 21
f 22 26 24
f 22 25 26
f 25 23 27
f 24 27 23
f 28 26 25
f 27 28 25
f 29 24 26
f 27 24 30
f 29 30 24
f 31 26 28
f 31 29 26
f 28 27 32
f 28 32 31
f 27 30 32
f 29 31 33
f 33 31 32
f 30 29 34
f 33 34 29
f 32 35 33
f 35 32 30
f 34 36 30
f 30 36 35
f 37 34 33
f 37 33 35
f 36 34 38
f 34 37 38
f 38 37 39
f 35 40 37
f 40 35 36
f 39 37 40
f 38 41 36
f 36 41 40
f 38 39 42
f 41 38 42
f 43 40 41
f 40 43 39
f 42 44 41
f 41 44 43
f 45 44 42
f 45 43 44
f 42 46 45
f 46 42 39
f 43 45 47
f 47 39 43
f 39 48 46
f 39 47 48
f 49 50 51
f 49 51 50
f 51 52 49
f 51 49 52
f 53 54 55
f 54 53 55
f 55 56 53
f 53 56 55
f 57 58 59
f 59 58 60
f 59 61 57
f 62 57 61
f 63 60 62
f 63 59 60
f 61 64 62
f 64 63 62
f 65 64 61
f 63 64 65
f 61 59 66
f 61 66 65
f 59 63 67
f 65 67 63
f 68 65 66
f 67 65 68
f 59 69 66
f 67 69 59
f 66 70 68
f 66 69 70
f 69 67 71
f 68 71 67
f 72 68 70
f 71 68 72
f 73 70 69
f 71 73 69
f 70 74 72
f 74 70 73
f 73 71 75
f 72 75 71
f 73 76 74
f 75 76 73
f 77 72 74
f 78 75 72
f 77 78 72
f 79 74 76
f 79 77 74
f 80 76 75
f 80 79 76
f 78 80 75
f 81 77 79
f 81 79 80
f 78 77 82
f 77 81 82
f 80 83 81
f 83 80 78
f 82 84 78
f 78 84 83
f 82 81 85
f 85 81 83
f 84 82 86
f 82 85 86
f 87 86 85
f 83 88 85
f 88 83 84
f 87 85 88
f 86 89 84
f 84 89 88
f 87 90 86
f 89 86 90
f 91 88 89
f 88 91 87
f 90 92 89
f 89 92 91
f 93 92 90
f 93 91 92
f 90 94 93
f 94 90 87
f 93 95 91
f 95 87 91
f 87 96 94
f 95 96 87
