# metal_crate_a_COL
v 0.404613853 -8.36763159E-11 -0.227589533
v 0.404613853 -8.36763506E-11 0.223760948
v -0.405256271 -8.36763159E-11 -0.227589533
v -0.405256271 -8.36763506E-11 0.223760948
v 0.404613853 0.62755996 0.223760948
v 0.404613853 -8.36763159E-11 -0.227589533
v 0.404613853 0.62755996 -0.227589533
v -0.405256271 0.62755996 -0.227589533
v -0.405256271 0.62755996 0.223760948
v -0.405256271 -8.36763159E-11 -0.227589533
v 0.404613853 0.62755996 0.223760948
v -0.405256271 0.62755996 0.223760948
v -0.405256271 0.62755996 0.223760948
v 0.404613853 -8.36763506E-11 0.223760948
v 0.404613853 0.62755996 0.223760948
v -0.405256271 -8.36763506E-11 0.223760948
v 0.404613853 0.62755996 -0.227589533
v -0.405256271 -8.36763159E-11 -0.227589533
v -0.405256271 0.62755996 -0.227589533
v 0.404613853 -8.36763159E-11 -0.227589533
vt 1 1
vt 1 0
vt 0 1
vt 0 0
vt 1 1
vt 0 0
vt 0 1
vt 1 1
vt 0 1
vt 1 0
vt 0 0
vt 1 0
vt 1 1
vt 0 0
vt 0 1
vt 1 0
vt 1 1
vt 0 0
vt 0 1
vt 1 0
g submesh0
f 1/1 2/2 3/3
f 4/4 3/3 2/2
f 5/5 2/2 6/6
f 5/5 6/6 7/7
f 8/8 4/4 9/9
f 8/8 10/10 4/4
f 8/8 11/11 7/7
f 8/8 12/12 11/11
f 13/13 14/14 15/15
f 13/13 16/16 14/14
f 17/17 18/18 19/19
f 17/17 20/20 18/18
