# metal_crate_d_COL
v 0.505151749 1.25579505E-10 0.504640162
v -0.509586573 1.25579547E-10 -0.498894334
v 0.505151749 1.25579547E-10 -0.498894334
v -0.509586573 1.25579505E-10 0.504640162
v 0.505151749 1.00223994 0.504640162
v 0.505151749 1.25579547E-10 -0.498894334
v 0.505151749 1.00223994 -0.498894334
v -0.509586573 1.00223994 -0.498894334
v -0.509586573 1.00223994 0.504640162
v -0.509586573 1.25579547E-10 -0.498894334
v 0.505151749 1.00223994 0.504640162
v -0.509586573 1.00223994 0.504640162
v -0.509586573 1.00223994 0.504640162
v 0.505151749 1.25579505E-10 0.504640162
v 0.505151749 1.00223994 0.504640162
v -0.509586573 1.25579505E-10 0.504640162
v 0.505151749 1.00223994 -0.498894334
v -0.509586573 1.25579547E-10 -0.498894334
v -0.509586573 1.00223994 -0.498894334
v 0.505151749 1.25579547E-10 -0.498894334
vt 1 0
vt 0 1
vt 1 1
vt 0 0
vt 1 1
vt 0 0
vt 0 1
vt 1 1
vt 0 1
vt 1 0
vt 0 0
vt 1 0
vt 1 1
vt 0 0
vt 0 1
vt 1 0
vt 1 1
vt 0 0
vt 0 1
vt 1 0
g submesh0
f 1/1 2/2 3/3
f 4/4 2/2 1/1
f 5/5 1/1 6/6
f 5/5 6/6 7/7
f 8/8 4/4 9/9
f 8/8 10/10 4/4
f 8/8 11/11 7/7
f 8/8 12/12 11/11
f 13/13 14/14 15/15
f 13/13 16/16 14/14
f 17/17 18/18 19/19
f 17/17 20/20 18/18
