# Microwave_e_glass_COL
v -0.277638257 -0.065238215 0.0234843027
v -0.0572487637 -0.065238215 0.0234843139
v -0.0572487637 0.0654566363 0.0234843139
v -0.277638257 0.0654566363 0.0234843027
v -0.277638227 -0.065238215 0.012126416
v -0.277638227 0.0654566363 0.012126416
v -0.0572487488 0.0654566363 0.0121264458
v -0.0572487488 -0.065238215 0.0121264458
vt 0.428858131 0.782056332
vt 0.428858131 0.967943788
vt 0.571141899 0.967943668
vt 0.571141899 0.782056272
vt 0.428858131 0.782056332
vt 0.571141899 0.782056272
vt 0.571141899 0.967943668
vt 0.428858131 0.967943788
g submesh0
f 1/1 2/2 3/3
f 1/1 3/3 4/4
f 5/5 6/6 7/7
f 5/5 7/7 8/8
