# Microwave_c_glass_COL
v 0.0387026072 0.0727511644 0.343837321
v 0.194541514 0.0727511644 0.187998399
v 0.194541514 0.203446001 0.187998399
v 0.0387026072 0.203446001 0.343837321
v 0.0306713842 0.0727511644 0.335806072
v 0.0306713842 0.203446001 0.335806072
v 0.186510295 0.203446001 0.179967165
v 0.186510295 0.0727511644 0.179967165
vt 0.428858131 0.782056332
vt 0.428858131 0.967943788
vt 0.571141899 0.967943668
vt 0.571141899 0.782056272
vt 0.428858131 0.782056332
vt 0.571141899 0.782056272
vt 0.571141899 0.967943668
vt 0.428858131 0.967943788
g submesh0
f 1/1 2/2 3/3
f 1/1 3/3 4/4
f 5/5 6/6 7/7
f 5/5 7/7 8/8
