# new_campfire_COL
v 0.148721263 -0.0492329523 0.4090572
v 0.352935165 -0.0492329523 0.242142648
v 0.309354335 0.106415652 0.238440201
v 0.440449893 -0.0492329523 0.0877404362
v 0.41474396 0.107405506 0.0606738664
v 0.0821887478 0.19423902 -0.084728919
v 0.372243673 -0.0492329523 -0.249411717
v 0.115095697 0.132174388 0.364616692
v 0.328790158 0.0933987722 -0.213914216
v 0.207103685 0.0938937441 -0.331543416
v -0.0671833381 -0.0492329523 -0.407489121
v -0.19777219 0.101893038 -0.377852499
v -0.260980695 -0.0492329523 -0.349651128
v -0.378349185 -0.0492329523 -0.192206338
v -0.130335853 0.12182834 -0.317744792
v -0.3361862 0.124904357 -0.184134856
v -0.407330155 0.0649250224 0.022646049
v -0.408856601 -0.0492329523 0.00734325452
v -0.320125878 -0.0492329523 0.275978029
v -0.127799824 0.206136599 -0.0886755958
v -0.0311609805 0.290773511 0.00551877264
v -0.290139705 0.077160798 0.279515475
v -0.144302279 -0.0492329523 0.373812258
v -0.194896713 0.130637988 0.227012679
v -0.143684015 0.0361270681 0.361904413
g submesh0
f 1 2 3
f 4 3 2
f 4 5 3
f 5 6 3
f 7 5 4
f 1 3 8
f 3 6 8
f 7 9 5
f 6 5 9
f 7 10 9
f 10 6 9
f 7 11 10
f 10 11 12
f 12 11 13
f 12 13 14
f 10 12 15
f 15 6 10
f 12 14 16
f 15 12 16
f 16 14 17
f 18 17 14
f 17 18 19
f 15 16 20
f 15 20 6
f 16 17 20
f 20 21 6
f 20 17 21
f 6 21 8
f 17 19 22
f 19 23 22
f 17 24 21
f 21 24 8
f 24 17 22
f 23 25 22
f 22 25 24
f 24 25 8
f 23 1 25
f 25 1 8
