# OilRigFoot_b_concrete_col
v -10.9237795 33.1945839 2.95913719E-06
v -6.81086493 33.1945839 -8.54055214
v -9.84198475 33.1945839 -4.73964691
v -6.81086731 33.1945839 8.540555
v -9.84198666 33.1945839 4.73964834
v 9.84198475 33.1945839 -4.73964787
v 2.43076968 33.1945839 -10.6498947
v -2.43076873 33.1945839 -10.6498947
v 6.81086493 33.1945839 -8.54055214
v 2.43077016 33.1945839 10.6498995
v -2.4307704 33.1945839 10.6498995
v 9.8419857 33.1945839 4.7396512
v 10.9237795 33.1945839 1.30969238E-06
v 6.81086731 33.1945839 8.540555
v 12.325202 28.7036533 5.68837214
v 11.1453314 27.6185379 3.83587241
v 11.1453314 28.7036514 3.83587241
v 12.325202 28.1640701 5.68837166
v 9.96352673 28.1640663 9.11785126
v 9.96352863 28.7036514 9.11785221
v 7.8120532 27.6185379 8.67625618
v 7.8120532 28.7036514 8.67625618
v 11.1453314 28.7036514 3.83587241
v 9.96352863 28.7036514 9.11785221
v 12.325202 28.7036533 5.68837214
v 7.8120532 28.7036514 8.67625618
v 11.1453314 27.6185379 3.83587241
v 9.96352673 28.1640663 9.11785126
v 7.8120532 27.6185379 8.67625618
v 12.325202 28.1640701 5.68837166
v -11.4615355 30.1065025 3.53543186
v -9.9102478 -13.0718431 6.75670099
v -9.91024685 30.1065006 6.75670767
v -11.4615364 -13.0718431 3.53542542
v -11.9944201 30.1065025 2.49283266E-06
v -7.47839165 -13.0718431 9.37761593
v -7.47839022 30.1065025 9.3776226
v -12.0159883 -17.5116329 3.7064507
v -10.389657 -17.5116329 7.0835557
v -7.84015894 -17.5116329 9.83125687
v -0.939701259 -17.5116348 12.539485
v -4.38204765 -13.0718431 11.1652889
v -4.38204765 30.1065025 11.1652956
v -11.9944201 -13.0718441 -3.87469072E-06
v -11.4615393 30.1065025 -3.53541446
v -4.59402895 -17.5116329 11.70541
v -0.896340787 -13.0718451 11.9608774
v -0.896340787 30.1065025 11.9608831
v 2.66901016 -13.0718451 11.6936884
v 2.66901016 30.1065025 11.693696
v 5.9972086 -13.0718431 10.3874683
v 5.9972086 30.1065025 10.3874741
v -12.5746508 -17.5116329 -4.71084468E-06
v -12.0159922 -17.5116329 -3.7064476
v -11.4615402 -13.0718431 -3.53542066
v -9.91025352 30.1065063 -6.75669527
v -10.3896627 -17.5116329 -7.08355761
v -4.59403419 -17.5116329 -11.7054148
v 11.3293648 -17.5116329 5.45593357
v 9.21787071 -17.5116329 -8.55293751
v -9.91025352 -13.0718431 -6.75670147
v -7.47839689 30.1065025 -9.37761211
v -7.84016514 -17.5116329 -9.83126163
v -7.47839785 -13.0718431 -9.37761879
v -4.38205242 30.1065025 -11.165288
v -4.3820529 -13.0718431 -11.1652956
v -0.896342933 30.1065025 -11.9608784
v -0.896342993 -13.0718403 -11.9608831
v 2.66901088 30.1065025 -11.6936913
v -0.939703584 -17.511631 -12.5394917
v 2.79812431 -17.511631 -12.2593784
v 2.66901088 -13.0718403 -11.693697
v 5.9972105 30.1065025 -10.3874693
v 6.28732586 -17.5116329 -10.8899689
v 5.9972105 -13.0718431 -10.387475
v 8.79253292 30.1065025 -8.15827274
v 8.79253197 -13.0718431 -8.15827942
v 10.8065987 30.1065025 -5.20417881
v 10.8065987 -13.0718431 -5.20418549
v 11.8604517 30.1065025 -1.78767085
v 11.3293676 -17.5116329 -5.45593882
v 12.4342003 -17.5116329 -1.87415636
v 11.8604517 -13.0718431 -1.78767693
v 11.8604517 30.1065025 1.78768063
v 12.4342003 -17.5116329 1.87415278
v 11.8604517 -13.0718431 1.78767455
v 10.8065968 30.1065025 5.20418882
v 10.8065948 -13.0718431 5.20418215
v 8.79252911 30.1065025 8.15828323
v 8.79252911 -13.0718431 8.15827751
v 9.2178669 -17.5116329 8.55293274
v 6.28732347 -17.5116329 10.8899622
v 2.7981236 -17.5116348 12.2593727
g submesh0
f 1 2 3
f 1 4 2
f 5 4 1
f 2 4 6
f 2 6 7
f 2 7 8
f 7 6 9
f 6 4 10
f 10 4 11
f 6 10 12
f 6 12 13
f 12 10 14
f 15 16 17
f 16 15 18
f 15 19 18
f 19 15 20
f 20 21 19
f 21 20 22
f 23 24 25
f 24 23 26
f 27 28 29
f 28 27 30
f 31 32 33
f 32 31 34
f 35 34 31
f 36 33 32
f 33 36 37
f 38 32 34
f 32 38 39
f 39 36 32
f 38 40 39
f 36 39 40
f 38 41 40
f 42 37 36
f 40 42 36
f 37 42 43
f 34 35 44
f 45 44 35
f 42 40 46
f 40 41 46
f 47 43 42
f 46 47 42
f 47 46 41
f 43 47 48
f 49 48 47
f 41 49 47
f 48 49 50
f 51 50 49
f 50 51 52
f 53 34 44
f 34 53 38
f 44 54 53
f 53 54 38
f 54 44 55
f 44 45 55
f 56 55 45
f 55 57 54
f 38 54 57
f 38 57 58
f 38 58 59
f 59 58 60
f 38 59 41
f 55 56 61
f 57 55 61
f 62 61 56
f 61 63 57
f 58 57 63
f 61 62 64
f 63 61 64
f 64 58 63
f 65 64 62
f 64 65 66
f 58 64 66
f 67 66 65
f 66 67 68
f 69 68 67
f 66 70 58
f 70 66 68
f 71 58 70
f 68 71 70
f 60 58 71
f 68 69 72
f 71 68 72
f 73 72 69
f 72 74 71
f 60 71 74
f 72 73 75
f 74 72 75
f 75 60 74
f 76 75 73
f 75 76 77
f 60 75 77
f 78 77 76
f 77 78 79
f 80 79 78
f 77 81 60
f 81 77 79
f 82 60 81
f 79 82 81
f 59 60 82
f 79 80 83
f 82 79 83
f 84 83 80
f 83 85 82
f 59 82 85
f 83 84 86
f 85 83 86
f 86 59 85
f 87 86 84
f 86 87 88
f 59 86 88
f 89 88 87
f 88 89 90
f 52 90 89
f 90 52 51
f 88 91 59
f 91 88 90
f 92 59 91
f 90 92 91
f 92 90 51
f 41 59 92
f 51 93 92
f 41 92 93
f 93 51 49
f 49 41 93
