# ore_node_stage_4_LOD0
v 1.00066531 0.756340623 0.946494758
v 1.05958641 0.732329369 1.01382136
v 1.11973262 0.686979175 1.13251519
v 1.58134127 0.189874545 -0.56485045
v 1.59026241 0.155485734 -0.398806751
v 1.5957998 0.159358948 -0.607697129
v 1.58150327 0.19057782 -0.397696525
v 1.46817839 0.259432852 -0.393050522
v 1.59179747 0.161580831 -0.0283966064
v 1.57885802 0.195428133 -0.0223632809
v 1.54067409 0.152694106 0.233923331
v 1.53690636 0.112296291 0.218811646
v 1.45386469 0.0829744861 0.441390991
v 1.39727318 0.197330073 0.524435401
v 1.25314236 0.152667463 0.5564996
v 1.48040342 0.236042291 0.269271851
v 1.46099973 0.276547998 -0.00162536616
v 1.54612398 0.378959835 0.0281347651
v 1.5267489 0.37552157 -0.332185656
v 1.53783631 0.399474621 0.480076879
v 1.54183495 0.43459183 0.0187152103
v 1.52902126 0.433830202 -0.33700195
v 1.32438684 0.586751759 -0.163282469
v 1.51415098 0.479042321 0.471702874
v 1.26874352 0.643385768 0.502869844
v 1.04091918 0.726596653 -0.144529417
v 1.42666352 0.532247126 0.644057631
v 1.00066531 0.756340623 0.946494758
v 0.900565445 0.812405229 0.48186034
v 0.766706824 0.803702652 -0.0221130364
v 0.366646707 0.851098478 0.625787973
v 0.264192194 0.844005585 0.213756099
v 1.48377717 0.334165782 0.62097472
v 1.22509515 0.63279587 0.963698685
v -0.2006668 0.934991896 0.78551513
v -0.166267693 0.955619037 0.337811261
v 1.35653865 0.177140549 0.657903433
v 1.20965457 0.194317296 0.802055061
v 1.10213864 0.104903065 1.0347693
v 1.12445068 0.145850852 1.066239
v 1.14861667 0.243345693 1.05887759
v 1.32725799 0.206636637 0.846262813
v 1.23010492 0.462217361 1.02392459
v 1.16180229 0.279923201 1.15968502
v 1.11973262 0.686979175 1.13251519
v 1.09442651 0.530252397 1.23792541
v 1.04960418 0.35173282 1.32998776
v 0.958318174 0.322062254 1.17098391
v 1.05742037 0.235850409 1.05636597
v 1.00970852 0.172706738 1.06084716
v 1.12445068 0.145850852 1.066239
v 1.04545343 0.695643902 1.15000367
v 1.04225099 0.545410037 1.26172853
v 0.969297469 0.736223459 1.02710509
v 1.05958641 0.732329369 1.01382136
v 0.996282637 0.366746157 1.33729434
v 0.659693003 0.723796666 1.14879882
v 0.681401074 0.794567883 1.0660162
v 0.64872402 0.584528327 1.26039004
v 0.664160728 0.731634021 1.10910881
v 0.183113098 0.856575906 0.967723966
v -0.271939695 0.853552997 0.871088266
v 0.173749074 0.778356135 1.01500058
v 0.183034971 0.750791013 1.13708067
v 0.633834243 0.470705062 1.30249751
v -0.396272272 0.961651266 0.727281451
v -0.648280621 0.842823625 0.49914366
v -0.0519039892 0.780186117 1.06957459
v -0.655276477 0.810677171 1.12003481
v 0.168328851 0.621634841 1.23867059
v -1.02105522 0.753110945 0.65461117
v -0.842738807 0.789707601 0.452590317
v -1.10613215 0.755079806 0.106781617
v -0.404849231 0.825633526 1.07650816
v -0.503738701 0.84325546 0.967010498
v -0.454449445 0.878691077 0.791840196
v -0.808191657 0.774088562 0.74859798
v -1.05846846 0.710528672 0.889069796
v -0.930513263 0.698026121 0.924566627
v -1.11870873 0.634249747 0.927841783
v -1.24962521 0.720880389 0.347190529
v -1.00711524 0.677725375 1.03948426
v -1.321697 0.715278447 0.117050782
v -1.32129228 0.656251371 0.360717148
v -1.49025011 0.606709182 -0.0105145257
v -1.28813899 0.693781734 -0.161304921
v -1.48611021 0.575007439 -0.344641715
v -1.32986367 0.602710426 0.38100341
v -1.53948438 0.535105824 -0.0940106213
v -1.51907504 0.589409888 -0.0924951136
v -1.39189482 0.536087871 0.437504262
v -1.49398708 0.547370374 -0.33906737
v -1.48927975 0.542420447 -0.575003624
v -1.47732317 0.504661202 -0.34193787
v -1.59580016 0.498960167 0.00199340819
v -1.54688883 0.394852489 0.261061996
v -1.4326849 0.442947745 0.488511354
v -1.49869728 0.5149616 -0.57368654
v -1.45811021 0.501374602 -0.784756482
v -1.48274946 0.442592204 -0.572443843
v -1.54827201 0.463563979 -0.286137074
v -1.46627855 0.476634562 -0.788840294
v -1.36692429 0.496604234 -0.904309034
v -1.57667506 0.412151366 0.152282715
v -1.49157119 0.310843587 -0.255671978
v -1.40734291 0.400388658 -0.743684053
v -1.37655866 0.450474739 -0.905483961
v -1.28862929 0.498993069 -0.951757789
v -1.43432868 0.253914773 -0.494473875
v -1.30103278 0.35526672 -0.832419395
v -1.29757321 0.423136026 -0.958341062
v -1.10466957 0.345923871 -1.03989983
v -1.41261482 0.254997373 -0.218445435
v -1.25606334 0.369195551 -0.933373988
v -1.38179684 0.323169231 -0.821665645
v -1.41254103 0.255293489 -0.650766611
v -1.36468303 0.290803671 -0.889700294
v -1.29705179 0.315760523 -0.992319286
v -1.34904397 0.193608731 -0.619089961
v -1.38975692 0.271777213 -0.789275467
v -1.24569714 0.152338356 -0.843054175
v -1.21322191 0.297094643 -1.04602051
v -0.959230959 0.210817426 -1.14842772
v -1.2764492 0.277970046 -1.03874755
v -1.1241591 0.167620763 -1.01072991
v -0.922121584 0.170491219 -1.13581967
v -1.07865143 0.103282623 -1.07668209
v -1.01806366 0.105549507 -1.14884949
v -0.884033799 0.129380047 -1.16480768
v -0.734955132 0.0212946311 -1.11907041
v -0.980942667 -0.0246577449 -1.09938598
v -1.04347003 -0.033688888 -1.054721
v -0.968929291 -0.0885484293 -1.10396731
v -0.668134153 -0.104216076 -1.09527278
v -1.03767836 -0.111195564 -1.05310786
v -1.18276298 -0.0567623116 -0.854231536
v -1.17659783 -0.0976659358 -0.874045372
v -1.41905534 -0.0722816065 -0.531065047
v -1.37214112 0.134009421 -0.689451277
v -1.39904141 -0.000993156456 -0.514143646
v -1.49831474 0.165584847 -0.506673574
v -1.52417016 0.0281513408 -0.327432841
v -1.55168498 -0.00324119558 -0.332778931
v -1.47122598 0.230132416 -0.178894654
v -1.47049904 0.0974043608 0.339978009
v -1.49755561 0.400381505 0.459476322
v -1.57495844 0.0926330537 -0.345137924
v -1.48778832 0.0584157743 0.0179187004
v -1.5201782 0.119228914 -0.00968872011
v -1.56427944 0.0292952918 0.0331768803
v -1.53525591 -0.0265399553 0.0364495851
v -1.45978069 0.0394628532 0.355140358
v -1.44321001 0.05276962 0.538793921
v -1.40455186 -0.0619944371 0.560993612
v -1.4053582 -0.0652419627 0.474830925
v -1.36723828 -0.0158116519 0.752423108
v -1.37228417 0.0871059597 0.744680762
v -1.47739947 0.43099159 0.577221692
v -1.43656218 0.458726078 0.643695056
v -0.886457026 0.38977176 1.12484801
v -0.812211871 0.13485533 1.11013484
v -1.35325623 0.285075724 0.755607307
v -1.40110397 0.501466811 0.793667614
v -1.25693107 -0.0207703784 0.791745603
v -1.16209602 -0.211562261 0.886871338
v -0.756460726 -0.150448829 1.12129581
v -0.495870352 0.238196656 1.28557372
v -0.366824329 -0.0933646336 1.20608699
v -0.328641951 0.219931662 1.31928468
v -0.0232464597 -0.0722556263 1.24947929
v -1.42502272 0.421857357 0.760350943
v -1.43397224 0.461379379 0.689453721
v -1.44252622 0.470434457 0.753279388
v -1.14507174 0.615779161 0.960115969
v -0.474588007 0.446255744 1.28533936
v -0.719651043 0.712222397 1.19059074
v -0.568720102 0.630850077 1.2130096
v 0.168935537 0.536426187 1.26453853
v 0.748212278 0.40980503 1.21962154
v 0.129912406 0.260916829 1.29821527
v 0.431059569 0.313397944 1.31973076
v 0.941864312 0.270890176 1.23364437
v 0.730303347 0.342914701 1.30273795
v 0.707350135 0.234763443 1.24083793
v 0.941487074 0.196328878 1.20019162
v 0.752292752 0.172099948 1.20871818
v 0.780816615 0.11835739 1.09783387
v 0.830042422 0.044561252 1.08407533
v 1.10213864 0.104903065 1.0347693
v 0.444057316 0.231550381 1.25101626
v 0.759346306 0.149313644 1.31146908
v 0.752292752 0.172099948 1.20871818
v 0.823037088 0.0519471541 1.23278201
v 0.780816615 0.11835739 1.09783387
v 0.830042422 0.044561252 1.08407533
v 0.719112515 -0.00647026068 1.20954406
v 0.704794884 0.110583037 1.33297241
v 0.206996754 0.051736258 1.34030032
v 0.159121707 -0.0864371508 1.25857842
v 0.162766412 0.159499392 1.27263606
v 0.080657348 0.148588583 1.27815795
v 0.000563049281 0.114671513 1.306054
v -1.18269312 -0.232193977 0.65285033
v -1.26901269 -0.0763669163 0.535906971
v -1.26440823 -0.228112489 0.569292605
v -1.22035003 -0.0559794605 0.603620589
v -1.36723828 -0.0158116519 0.752423108
v -1.40455186 -0.0619944371 0.560993612
v -1.4053582 -0.0652419627 0.474830925
v -1.23055494 -0.0388547517 0.679711878
v -1.25693107 -0.0207703784 0.791745603
v -1.24041057 -0.21078831 0.74226743
v -1.16209602 -0.211562261 0.886871338
v -1.03205132 -0.268779874 0.383630961
v -1.26440823 -0.228112489 0.569292605
v -0.574919105 -0.338153422 0.448700547
v -0.601486206 -0.284025043 0.337048948
v -0.756460726 -0.150448829 1.12129581
v -0.366824329 -0.0933646336 1.20608699
v -1.08733165 -0.118431166 0.362801492
v -1.109653 -0.128482893 0.32026428
v -1.26901269 -0.0763669163 0.535906971
v -1.4053582 -0.0652419627 0.474830925
v -1.45978069 0.0394628532 0.355140358
v -1.53525591 -0.0265399553 0.0364495851
v -0.123183288 -0.264383644 0.523847044
v -0.0232464597 -0.0722556263 1.24947929
v 0.159121707 -0.0864371508 1.25857842
v -0.0276229847 -0.238040045 0.540464461
v 0.719112515 -0.00647026068 1.20954406
v -1.35644853 -0.191232562 -0.236878663
v -1.55168498 -0.00324119558 -0.332778931
v -0.680746317 -0.355626553 -0.152999267
v -0.83128202 -0.186293632 -0.905936897
v -1.39264095 -0.157945246 -0.527565897
v -1.41905534 -0.0722816065 -0.531065047
v -1.17659783 -0.0976659358 -0.874045372
v -1.15073574 -0.140417814 -0.871185303
v -1.03767836 -0.111195564 -1.05310786
v -0.968929291 -0.0885484293 -1.10396731
v -0.668134153 -0.104216076 -1.09527278
v -0.326357722 -0.375709474 -0.118660279
v -0.31487 -0.189014509 -1.02270627
v -0.486570418 -0.102967374 -1.21988523
v 0.229559317 -0.141775593 -1.22558892
v -0.443426192 -0.283200651 -0.731115103
v 0.0594061278 -0.242086172 -0.932678223
v 0.695367098 -0.109884791 -1.21084225
v -0.059787903 -0.324657619 -0.548591912
v 0.597915947 -0.276548684 -0.592844248
v 1.18632472 -0.071075134 -1.18145013
v 0.536049783 -0.328472316 0.312926024
v 1.05453765 -0.241062924 -0.335491925
v 1.40995872 0.0307529252 -0.840559065
v 1.28689754 -0.0924210325 -0.212073967
v 0.54359585 -0.345842838 -0.184490353
v 0.498934925 -0.0799020007 0.548515022
v 0.830042422 0.044561252 1.08407533
v 0.757447481 -0.283104122 0.442725211
v 1.59026241 0.155485734 -0.398806751
v 1.5957998 0.159358948 -0.607697129
v 1.59179747 0.161580831 -0.0283966064
v 1.53690636 0.112296291 0.218811646
v 1.45386469 0.0829744861 0.441390991
v 0.666020513 -0.0307638925 0.604810774
v 0.951046109 -0.210895643 0.454614252
v 1.25314236 0.152667463 0.5564996
v 1.10213864 0.104903065 1.0347693
v 1.06333339 -0.119195245 0.387417585
v 0.971731842 -0.0901268721 0.498427719
v 1.04091918 0.726596653 -0.144529417
v 0.81308502 0.881804943 -0.128862917
v 0.766706824 0.803702652 -0.0221130364
v 0.264192194 0.844005585 0.213756099
v 0.300092757 0.919041753 0.0909350589
v -0.166267693 0.955619037 0.337811261
v 0.933408499 0.839851797 -0.174309075
v 1.03045261 0.721218884 -0.278124988
v 1.32438684 0.586751759 -0.163282469
v 0.363972157 0.930751622 -0.240690917
v -0.280761421 0.987003624 0.324811399
v 0.340932012 0.887201667 -0.412424296
v -0.643147588 0.878104687 0.474758297
v -0.648280621 0.842823625 0.49914366
v -0.83625865 0.850834191 0.418477774
v -0.842738807 0.789707601 0.452590317
v -0.530215144 0.967221677 -0.0295684803
v -0.311987907 1.02175903 -0.305782467
v -0.980845749 0.827425063 0.254310906
v -1.10613215 0.755079806 0.106781617
v -0.792834163 0.94102186 -0.0863879398
v -0.282594889 0.977497399 -0.544218719
v -0.864956796 0.896959186 -0.237158805
v -0.60627228 0.997018993 -0.386904299
v -1.13838005 0.776804805 -0.468583375
v -1.28813899 0.693781734 -0.161304921
v -0.900683582 0.816659391 -0.676791966
v -1.19267917 0.646621406 -0.517390728
v -1.48611021 0.575007439 -0.344641715
v -1.48927975 0.542420447 -0.575003624
v -1.10461855 0.644553065 -0.639032602
v -1.45811021 0.501374602 -0.784756482
v -0.887967646 0.657104492 -0.788270235
v -1.36692429 0.496604234 -0.904309034
v -1.28862929 0.498993069 -0.951757789
v -0.931209266 0.71654129 -0.676328719
v -0.853699028 0.795653522 -0.791141927
v -0.675320566 0.897779703 -0.78229183
v -0.460270971 0.88777709 -0.861412942
v -0.457619935 0.797576249 -0.903591871
v -0.183037713 0.896037579 -0.697382808
v 0.0668310523 0.666152775 -0.933361769
v -0.2544339 0.804517508 -0.9141168
v -0.411272585 0.653326988 -0.911702275
v -0.742289722 0.617519617 -0.959961534
v 0.291564316 0.717641711 -0.753567517
v -0.161435232 0.625421882 -1.06412661
v -0.594677746 0.443161845 -1.11958802
v -1.10466957 0.345923871 -1.03989983
v 0.191380918 0.484732151 -1.24675226
v -0.496091604 0.316007942 -1.178388
v -0.959230959 0.210817426 -1.14842772
v -0.922121584 0.170491219 -1.13581967
v 0.429648429 0.394121468 -1.24584413
v -0.347181082 0.306096822 -1.34030092
v 0.45763731 0.668047011 -0.919900477
v -0.780364335 0.167032689 -1.21818841
v -0.884033799 0.129380047 -1.16480768
v -0.509887695 0.0263112448 -1.23361504
v -0.734955132 0.0212946311 -1.11907041
v -0.668134153 -0.104216076 -1.09527278
v -0.486570418 -0.102967374 -1.21988523
v 0.21021606 0.0132571217 -1.27648377
v 0.229559317 -0.141775593 -1.22558892
v 0.22483246 0.263926685 -1.3156122
v 0.454520255 0.0646679699 -1.29389036
v 0.695367098 -0.109884791 -1.21084225
v 0.804144561 0.223324805 -1.2933892
v 1.11443138 0.208158106 -1.31585383
v 1.18632472 -0.071075134 -1.18145013
v 1.21768069 0.28565684 -1.16692138
v 1.40995872 0.0307529252 -0.840559065
v 0.843042612 0.174982786 -1.23543215
v 0.988299549 0.271743834 -1.24572992
v 1.01200342 0.227676198 -1.18499637
v 1.04711699 0.278482735 -1.14938843
v 1.00241268 0.325776964 -1.21153617
v 1.40846252 0.299482495 -0.871923208
v 1.5957998 0.159358948 -0.607697129
v 1.49853599 0.247678161 -0.717277229
v 1.58134127 0.189874545 -0.56485045
v 1.46817839 0.259432852 -0.393050522
v 1.43610561 0.294552922 -0.718813479
v 1.5267489 0.37552157 -0.332185656
v 1.39606631 0.323871046 -0.849746048
v 1.47067833 0.428929478 -0.638052344
v 1.52902126 0.433830202 -0.33700195
v 1.45904076 0.467765599 -0.625615239
v 1.40840936 0.462596387 -0.765382648
v 1.27412009 0.3282336 -0.998431981
v 1.39399874 0.488602638 -0.752185047
v 1.15115929 0.570961535 -0.832465827
v 1.33328736 0.489565223 -0.862348616
v 1.14433932 0.30040881 -1.03848386
v 1.12978423 0.352356493 -1.05409908
v 1.13373935 0.536305666 -0.881420851
v 0.690568209 0.399115413 -1.15067375
v 0.699718595 0.630957365 -0.915361285
v 0.975132704 0.641871929 -0.612206995
v 0.69420898 0.690025032 -0.828775644
v 0.904443979 0.684289694 -0.561795652
vn 0.264291406 0.962077439 0.067505829
vn 0.150356665 0.951379418 0.268831313
vn 0.695379138 0.594117522 0.404317111
vn 0.638856649 0.769325197 -0.000949724868
vn 0.6628685 -0.748542011 -0.0170352012
vn 0.816293299 -0.514181674 -0.263215572
vn 0.649205446 0.76058495 -0.00653838739
vn 0.96547848 0.252576649 -0.063688837
vn 0.711121023 -0.703032494 0.007231839
vn 0.669123113 0.742255449 0.0364860594
vn 0.911928236 0.294669569 0.28558147
vn 0.619510055 -0.781222105 0.0768075585
vn 0.537471235 -0.784266472 0.30992052
vn 0.780769289 -0.520611882 0.345488697
vn 0.298724025 -0.868571758 0.395407438
vn 0.995534658 -0.0169474743 0.0928629711
vn 0.998748779 0.0365762971 0.0341043696
vn 0.896434844 -0.442191452 0.0295179784
vn 0.951273859 -0.294751257 -0.0905527398
vn 0.972968757 -0.17314589 0.152814612
vn 0.668474674 0.743410051 -0.0219791941
vn 0.709805429 0.702275455 -0.054639373
vn 0.49586916 0.866256058 -0.0609446503
vn 0.675728619 0.737145364 0.00274222065
vn 0.474870175 0.880052328 0.00250647846
vn 0.411053747 0.911159396 -0.0286957957
vn 0.726011932 0.638759255 0.254741609
vn 0.264291406 0.962077439 0.067505829
vn 0.22153081 0.975120306 0.00803338829
vn 0.203893602 0.97311312 0.10713657
vn 0.109218195 0.994002998 0.00543209584
vn 0.168438122 0.980618954 0.100075133
vn 0.907844245 -0.123753533 0.400629491
vn 0.731436908 0.630221069 0.260425299
vn 0.113342658 0.980410039 0.161088556
vn 0.158084169 0.983493328 0.088036418
vn 0.513345301 -0.840869904 0.171506345
vn 0.522990644 -0.813998461 0.252759337
vn 0.299396604 -0.952300966 0.0590287894
vn 0.675020337 -0.323390454 0.663148701
vn 0.452941626 -0.748893499 0.483737946
vn 0.749360323 -0.42748341 0.505684614
vn 0.864668369 0.0960457548 0.493075937
vn 0.802601993 -0.227714583 0.551340401
vn 0.695379138 0.594117522 0.404317111
vn 0.794380188 0.17974411 0.580217361
vn 0.515048563 -0.447526038 0.731057703
vn -0.0298679508 -0.854093909 0.519260526
vn 0.228726447 -0.514979482 0.826123714
vn 0.369564325 -0.211071089 0.904915094
vn 0.675020337 -0.323390454 0.663148701
vn 0.0912480056 0.750472248 0.654572487
vn 0.101671375 0.488036394 0.86688143
vn 0.127016351 0.94201225 0.310611963
vn 0.150356665 0.951379418 0.268831313
vn -0.137830302 -0.301257402 0.943528891
vn 0.0400247015 0.73273021 0.679341316
vn 0.117580086 0.975073934 0.188163891
vn 0.0216861125 0.514698863 0.857096732
vn 0.0197609942 0.774996221 0.631656766
vn 0.0830771849 0.964396477 0.251072913
vn -0.000204315569 0.912956715 0.408056319
vn -0.0402170643 0.824646115 0.564217448
vn 0.0160583816 0.757930577 0.652137518
vn -0.126487598 -0.329124033 0.93577677
vn -0.189736277 0.981703341 0.0160857309
vn -0.281867623 0.955076098 -0.0915442407
vn 0.0788421705 0.969457269 0.232242256
vn -0.164028496 0.824024141 0.54229039
vn -0.0128562897 0.514178276 0.85758698
vn -0.241625249 0.967703998 0.0718761757
vn -0.25216797 0.9634341 0.090587154
vn -0.371298164 0.928058147 0.0290806498
vn 0.0754521862 0.923631728 0.375781
vn -0.189895973 0.976574481 0.101201423
vn -0.224418432 0.891806066 0.392833561
vn -0.299203247 0.894904196 0.331095189
vn -0.426119059 0.8513726 0.305920392
vn -0.276265562 0.95445919 0.112627715
vn -0.606918633 0.767902732 0.204878226
vn -0.345710009 0.932765186 0.102145776
vn -0.542509377 0.421293318 0.72677058
vn -0.407068938 0.910930812 -0.0670810267
vn -0.766672969 0.570622981 0.294282168
vn -0.612243772 0.78534621 0.0915907621
vn -0.41188252 0.910573065 -0.0347775929
vn -0.418577552 0.894599378 -0.156476021
vn -0.737274349 0.619647205 0.269191086
vn -0.724957645 0.686996818 -0.0497163124
vn -0.712764442 0.692698002 -0.110165678
vn -0.721521139 0.638776779 0.267154723
vn -0.99224782 -0.123110861 -0.0169725977
vn -0.360660553 0.914630949 -0.18268612
vn -0.884418428 0.443645597 -0.14485386
vn -0.874480665 0.481211752 0.0609812178
vn -0.990631044 -0.0264073405 0.133988202
vn -0.717808545 0.665271461 0.205340639
vn -0.987578452 -0.135269925 -0.0799422339
vn -0.3221789 0.912252307 -0.252975315
vn -0.935121536 -0.278173447 -0.219470337
vn -0.977345109 -0.103213981 -0.184779242
vn -0.824997246 -0.514955103 -0.23281081
vn -0.303612113 0.901953995 -0.307080686
vn -0.851931036 -0.521433055 0.0481782518
vn -0.831568718 -0.552148283 -0.0602144822
vn -0.880398512 -0.391467988 -0.267677546
vn -0.676319242 -0.534097254 -0.507279396
vn -0.238940954 0.680503786 -0.692691743
vn -0.826700687 -0.553521395 -0.100896053
vn -0.828674912 -0.103533357 -0.550071597
vn -0.52431798 -0.286699921 -0.801806688
vn -0.202815726 0.361597627 -0.910007179
vn -0.981877565 -0.149333775 -0.11668665
vn -0.728545487 0.194800615 -0.656714737
vn -0.834215641 0.302823991 -0.460849106
vn -0.916458249 -0.364489704 -0.165080309
vn -0.836335719 -0.379651964 -0.395482987
vn -0.547735333 0.666334629 -0.505948842
vn -0.896001577 0.206148952 -0.393298626
vn -0.766859949 -0.604481697 -0.215702668
vn -0.748347878 -0.425319165 -0.508998096
vn -0.228433579 0.526908934 -0.818648279
vn -0.21050626 0.283582717 -0.935557485
vn -0.559243619 -0.605122864 -0.566632926
vn -0.55200696 -0.523472786 -0.649048924
vn -0.273641646 0.140653864 -0.951491833
vn -0.757195771 -0.0684362352 -0.649592936
vn -0.347044438 -0.117023833 -0.930518985
vn -0.218405753 -0.376245141 -0.900410116
vn -0.212840423 -0.465476543 -0.85908699
vn -0.183310747 -0.249746621 -0.95080173
vn -0.762953818 -0.202729568 -0.61384207
vn -0.0798497275 -0.707359612 -0.702329218
vn -0.160602897 -0.791650474 -0.589488029
vn -0.325041443 -0.835690677 -0.442683965
vn -0.805497646 -0.156075045 -0.571676552
vn -0.786970615 -0.205295458 -0.581834197
vn -0.832521141 -0.00496141752 -0.553970933
vn -0.833560467 -0.159100592 -0.5290218
vn -0.834130347 -0.192655817 -0.516827166
vn -0.774166644 0.496038646 -0.393207043
vn -0.94024837 -0.235142037 -0.246254697
vn -0.819483042 -0.569109857 -0.0675390288
vn -0.896528184 0.433629692 -0.0905679092
vn -0.984161377 -0.167305321 0.0586110801
vn -0.975389838 -0.000103529659 0.220487386
vn -0.971162021 0.220536962 -0.0905967951
vn -0.895578504 0.444718331 0.0128356777
vn -0.946051776 0.282313466 0.159013227
vn -0.895082653 0.443780035 0.0434319749
vn -0.511889338 -0.828600645 0.226694033
vn -0.570399284 -0.810635686 0.132342085
vn -0.962365031 -0.134752408 0.235998362
vn -0.622867167 -0.749407291 0.22455579
vn -0.440882146 -0.859886825 -0.257327586
vn -0.624711871 -0.298968852 0.721354783
vn -0.761025608 -0.00669298554 0.648687243
vn -0.956741512 0.0159022138 0.290504575
vn -0.702233255 0.703632474 0.108488478
vn -0.477101147 -0.084818542 0.874745846
vn -0.485804766 -0.119659483 0.865837991
vn -0.638927519 -0.104350299 0.762156606
vn -0.641998827 0.0258668456 0.766269147
vn -0.638965905 -0.229901597 0.734076202
vn -0.304934531 -0.805914819 0.507460415
vn -0.1226919 -0.816430449 0.564258754
vn -0.302248985 -0.137409657 0.943273127
vn 0.00126260007 -0.845785856 0.533521056
vn -0.0547179207 -0.0428005755 0.997584105
vn -0.0403962545 -0.86714685 0.496411681
vn -0.823064446 -0.421679586 0.380461991
vn -0.544945836 0.834810793 -0.0782623813
vn -0.92961669 0.310786456 0.198052093
vn -0.580059588 0.133848175 0.803502023
vn -0.13856484 0.208694547 0.968114913
vn -0.317916811 0.245781034 0.915707707
vn -0.0916950926 0.342283964 0.935111523
vn 0.00225122925 0.205874279 0.978575885
vn 0.0707745776 0.146544993 0.986668944
vn 0.0174080785 0.0306241382 0.999379396
vn 0.0940541402 0.135625362 0.986285746
vn 0.457202554 0.0806113258 0.885701835
vn 0.155708224 0.171186253 0.97285676
vn 0.131792948 -0.113184482 0.984794319
vn 0.446347415 -0.705547154 0.550433636
vn 0.706993937 -0.299797475 0.640531898
vn 0.588598192 -0.380364835 0.713354468
vn 0.348414063 -0.932735503 0.0928015336
vn 0.299396604 -0.952300966 0.0590287894
vn -0.011946423 0.157333255 0.987473249
vn 0.427018344 0.496567875 0.755695462
vn 0.706993937 -0.299797475 0.640531898
vn 0.840643525 -0.389114112 0.376707494
vn 0.588598192 -0.380364835 0.713354468
vn 0.348414063 -0.932735503 0.0928015336
vn 0.2317577 -0.949556291 0.21126087
vn 0.0880937129 -0.3163234 0.944552362
vn 0.0165454056 -0.22675544 0.97381115
vn 0.103401601 -0.945426762 0.308992624
vn 0.0285680369 0.201703966 0.979029775
vn 0.0681750029 0.041434709 0.996812522
vn -0.0287585631 -0.11462976 0.992991924
vn -0.316042393 -0.945550144 0.0777959079
vn -0.495429397 -0.868385911 -0.0213461313
vn -0.745172024 -0.631106973 -0.215459004
vn -0.716315627 -0.633280337 0.292998224
vn -0.624711871 -0.298968852 0.721354783
vn -0.622867167 -0.749407291 0.22455579
vn -0.440882146 -0.859886825 -0.257327586
vn -0.852450073 -0.519847333 -0.0555662103
vn -0.638965905 -0.229901597 0.734076202
vn -0.858887911 -0.500936389 0.106649794
vn -0.304934531 -0.805914819 0.507460415
vn -0.230805621 -0.934510767 -0.270958096
vn -0.745172024 -0.631106973 -0.215459004
vn 0.0372879729 -0.990005434 0.136010543
vn -0.106191687 -0.990460396 0.0878164321
vn -0.1226919 -0.816430449 0.564258754
vn 0.00126260007 -0.845785856 0.533521056
vn -0.476204216 -0.625364244 -0.618182123
vn -0.297955543 -0.931274831 0.209641665
vn -0.495429397 -0.868385911 -0.0213461313
vn -0.440882146 -0.859886825 -0.257327586
vn -0.570399284 -0.810635686 0.132342085
vn -0.511889338 -0.828600645 0.226694033
vn 0.117518708 -0.972736597 0.199932247
vn -0.0403962545 -0.86714685 0.496411681
vn 0.103401601 -0.945426762 0.308992624
vn 0.0723655447 -0.97427249 0.213439092
vn 0.2317577 -0.949556291 0.21126087
vn -0.312705755 -0.949573815 0.0229069646
vn -0.819483042 -0.569109857 -0.0675390288
vn -0.187293172 -0.982227623 -0.0122508835
vn -0.160477698 -0.960246086 -0.228416994
vn -0.322465837 -0.932421684 -0.163112074
vn -0.832521141 -0.00496141752 -0.553970933
vn -0.786970615 -0.205295458 -0.581834197
vn -0.244564295 -0.940756917 -0.234871656
vn -0.325041443 -0.835690677 -0.442683965
vn -0.0798497275 -0.707359612 -0.702329218
vn -0.160602897 -0.791650474 -0.589488029
vn 0.00688529899 -0.99955374 0.0290672518
vn -0.0669400692 -0.934836149 -0.348712593
vn -0.151862711 -0.663620114 -0.732492983
vn 0.0220979564 -0.795610547 -0.605405271
vn -0.08763697 -0.972231388 -0.216993079
vn 0.034825258 -0.965968192 -0.256305635
vn 0.0884709731 -0.855572879 -0.510066569
vn 0.0327418521 -0.991723955 -0.124143846
vn 0.114389926 -0.974919021 -0.190912828
vn 0.387609422 -0.811204553 -0.437842518
vn 0.0323483199 -0.970606804 0.238486677
vn 0.323355705 -0.944486082 -0.0581990033
vn 0.69792372 -0.676154852 -0.23604469
vn 0.549171269 -0.834952414 0.0355734155
vn 0.0807361975 -0.996391833 -0.0261700731
vn 0.233500555 -0.930005431 0.283843726
vn 0.348414063 -0.932735503 0.0928015336
vn 0.176848352 -0.940006018 0.291741729
vn 0.6628685 -0.748542011 -0.0170352012
vn 0.816293299 -0.514181674 -0.263215572
vn 0.711121023 -0.703032494 0.007231839
vn 0.619510055 -0.781222105 0.0768075585
vn 0.537471235 -0.784266472 0.30992052
vn 0.256325513 -0.92632401 0.276081294
vn 0.418465286 -0.853653491 0.310100824
vn 0.298724025 -0.868571758 0.395407438
vn 0.299396604 -0.952300966 0.0590287894
vn 0.508613288 -0.828857541 0.233039886
vn 0.28842777 -0.444747955 0.847943783
vn 0.411053747 0.911159396 -0.0286957957
vn 0.275865972 0.941677034 0.192723364
vn 0.203893602 0.97311312 0.10713657
vn 0.168438122 0.980618954 0.100075133
vn 0.187026665 0.95982331 0.209189609
vn 0.158084169 0.983493328 0.088036418
vn 0.352086097 0.837175727 -0.418535739
vn 0.366777867 0.890874982 -0.267984629
vn 0.49586916 0.866256058 -0.0609446503
vn 0.141310245 0.988718867 -0.0496646464
vn 0.000736288086 0.989943981 0.141457692
vn 0.255429506 0.875989616 -0.409143001
vn -0.179802731 0.954380989 0.238386154
vn -0.281867623 0.955076098 -0.0915442407
vn -0.266514748 0.934360683 0.236516386
vn -0.25216797 0.9634341 0.090587154
vn -0.164244339 0.980843723 0.104734473
vn 0.0693518892 0.997534752 -0.0107170753
vn -0.517316878 0.831362665 0.203025609
vn -0.371298164 0.928058147 0.0290806498
vn -0.266529292 0.959945679 0.086408399
vn 0.0883360133 0.964609087 -0.248447031
vn -0.422958791 0.905348897 -0.0380694382
vn -0.213369548 0.972769558 -0.0905146375
vn -0.5103302 0.84239924 -0.172993168
vn -0.41188252 0.910573065 -0.0347775929
vn -0.442121327 0.863221407 -0.243675172
vn -0.491923809 0.815032244 -0.3061589
vn -0.418577552 0.894599378 -0.156476021
vn -0.360660553 0.914630949 -0.18268612
vn -0.292953402 0.911249042 -0.289488405
vn -0.3221789 0.912252307 -0.252975315
vn -0.287203312 0.795761704 -0.533176839
vn -0.303612113 0.901953995 -0.307080686
vn -0.238940954 0.680503786 -0.692691743
vn -0.608018637 0.421471059 -0.672811627
vn -0.444645315 0.33412984 -0.831052125
vn -0.243512824 0.911657095 -0.331032991
vn -0.0308899898 0.881062448 -0.471990228
vn -0.20447126 0.145021155 -0.968070388
vn 0.253933311 0.864287376 -0.434195042
vn 0.150191382 0.855175257 -0.49610275
vn 0.164242625 0.571561515 -0.803953826
vn -0.124329351 0.673183262 -0.72894901
vn -0.141253784 0.75667733 -0.63834691
vn 0.168758988 0.91280812 -0.371889591
vn -0.0691829398 0.810974061 -0.58097744
vn -0.169976383 0.487447321 -0.856447935
vn -0.202815726 0.361597627 -0.910007179
vn 0.0233174451 0.47057575 -0.882051408
vn -0.227632582 0.650936842 -0.724199355
vn -0.21050626 0.283582717 -0.935557485
vn -0.273641646 0.140653864 -0.951491833
vn 0.135476366 0.574492037 -0.807220578
vn -0.130793765 0.366080225 -0.92134583
vn 0.0819886327 0.863087118 -0.498355776
vn -0.326366544 0.00201655622 -0.945241153
vn -0.218405753 -0.376245141 -0.900410116
vn -0.145663187 -0.270053297 -0.951763332
vn -0.212840423 -0.465476543 -0.85908699
vn -0.160602897 -0.791650474 -0.589488029
vn -0.151862711 -0.663620114 -0.732492983
vn -0.0163768772 -0.247280017 -0.968805611
vn 0.0220979564 -0.795610547 -0.605405271
vn 0.0427519716 0.0980840027 -0.994259357
vn 0.0347027332 -0.232174098 -0.972054958
vn 0.0884709731 -0.855572879 -0.510066569
vn 0.152496174 0.108255871 -0.982357144
vn 0.266668528 -0.145349383 -0.952765107
vn 0.387609422 -0.811204553 -0.437842518
vn 0.786045194 0.186747119 -0.589286506
vn 0.69792372 -0.676154852 -0.23604469
vn -0.0782883912 0.710063815 -0.699771702
vn 0.261313796 0.260061979 -0.929560542
vn -0.0936850309 0.780229211 -0.618437946
vn 0.23601009 0.758027554 -0.60802424
vn 0.225863531 0.824550092 -0.518751204
vn 0.832391202 0.0291912612 -0.553418994
vn 0.816293299 -0.514181674 -0.263215572
vn 0.660323024 0.746856809 -0.0786034837
vn 0.638856649 0.769325197 -0.000949724868
vn 0.96547848 0.252576649 -0.063688837
vn 0.951565981 0.252466559 -0.175449997
vn 0.951273859 -0.294751257 -0.0905527398
vn 0.804846287 0.331009388 -0.492600411
vn 0.970673621 -0.00910969917 -0.240228638
vn 0.709805429 0.702275455 -0.054639373
vn 0.574469984 0.812084496 -0.102484211
vn 0.845286727 0.257252693 -0.468306959
vn 0.438687235 0.655488372 -0.614726305
vn 0.382752419 0.915316164 -0.125287279
vn 0.301058829 0.931530297 -0.203997388
vn 0.507396102 0.633666098 -0.583966136
vn 0.118139952 0.862463236 -0.492138416
vn 0.272705406 0.665194869 -0.695088148
vn 0.219248012 0.690449715 -0.68935442
vn 0.200763881 0.764939189 -0.612014592
vn 0.203234032 0.776318073 -0.59667933
vn 0.170785591 0.958319902 -0.229031131
vn 0.151142344 0.972027361 -0.179774225
vn 0.151617914 0.972975433 -0.174157083
vt 0.910240591 0.120214991
vt 0.91497463 0.117188744
vt 0.923252881 0.11370378
vt 0.833028138 0.0164840743
vt 0.845336378 0.019670777
vt 0.831299245 0.0127907321
vt 0.844162405 0.0221247002
vt 0.839893401 0.0312655494
vt 0.870933652 0.0309923217
vt 0.869995773 0.0335394666
vt 0.888369501 0.0413227603
vt 0.889156103 0.038172178
vt 0.905752242 0.045653753
vt 0.909023345 0.0569279715
vt 0.921889603 0.0557250306
vt 0.887523711 0.0493867919
vt 0.866571307 0.0436614081
vt 0.863575518 0.0534743592
vt 0.839107573 0.042431049
vt 0.893731296 0.0675285384
vt 0.860135972 0.0574268624
vt 0.835959911 0.0472978875
vt 0.839119017 0.0719794556
vt 0.889701903 0.0722082183
vt 0.883634388 0.0933497474
vt 0.832812548 0.0995938107
vt 0.89804405 0.0824525878
vt 0.910240591 0.120214991
vt 0.876083791 0.123332076
vt 0.837755322 0.127154291
vt 0.883763134 0.164687335
vt 0.852509081 0.17108053
vt 0.905167162 0.0695417449
vt 0.915682852 0.103413753
vt 0.896707952 0.207651794
vt 0.863376558 0.208528817
vt 0.918983161 0.0644958541
vt 0.934876144 0.0713120028
vt 0.954822958 0.0755953118
vt 0.954459727 0.080636315
vt 0.950618684 0.0898436829
vt 0.927820742 0.0763366744
vt 0.927244365 0.096384339
vt 0.946263015 0.0961590335
vt 0.923252881 0.11370378
vt 0.934859216 0.111630969
vt 0.94738847 0.111167125
vt 0.958147585 0.109983735
vt 0.957634509 0.0963194892
vt 0.96435672 0.0973985717
vt 0.959981263 0.0890898034
vt 0.923351109 0.116657548
vt 0.935261071 0.113984399
vt 0.915266931 0.122828297
vt 0.91497463 0.117188744
vt 0.947856605 0.112897448
vt 0.927641928 0.142799675
vt 0.918585956 0.142605007
vt 0.940903246 0.141182363
vt 0.924619496 0.143053234
vt 0.909472883 0.178450048
vt 0.906120002 0.211820185
vt 0.916239202 0.178402603
vt 0.926303566 0.176164687
vt 0.950212419 0.139611423
vt 0.894134104 0.223112285
vt 0.882594764 0.247321546
vt 0.921243727 0.193788469
vt 0.927210987 0.236215293
vt 0.939893901 0.175689995
vt 0.905729949 0.272072434
vt 0.885769188 0.267173171
vt 0.876382172 0.303217411
vt 0.922443926 0.219530046
vt 0.914745629 0.227311909
vt 0.901820004 0.22657752
vt 0.907292783 0.254019201
vt 0.923834741 0.266999066
vt 0.923874557 0.258663595
vt 0.930953205 0.27053827
vt 0.897486508 0.300155818
vt 0.933781564 0.261183918
vt 0.888178051 0.315595746
vt 0.903191626 0.305390894
vt 0.891940773 0.333447576
vt 0.872494519 0.33034879
vt 0.876935542 0.354215264
vt 0.907372773 0.306826591
vt 0.893401682 0.343218863
vt 0.890034139 0.340231478
vt 0.915026367 0.308964014
vt 0.879416049 0.355974197
vt 0.872588933 0.371726155
vt 0.882216394 0.358715594
vt 0.902031362 0.341086745
vt 0.919589937 0.32916677
vt 0.923138082 0.311308801
vt 0.874459922 0.373026907
vt 0.864840448 0.385889709
vt 0.878950059 0.37658006
vt 0.889654815 0.35792625
vt 0.866526425 0.386867404
vt 0.858679473 0.395867527
vt 0.91368705 0.335062385
vt 0.900383651 0.363850653
vt 0.87438482 0.390502632
vt 0.861853778 0.396959245
vt 0.856011093 0.402723014
vt 0.894290864 0.381313801
vt 0.871165931 0.400768995
vt 0.861502349 0.404447019
vt 0.86151129 0.421316326
vt 0.907680452 0.365663052
vt 0.866254389 0.407598734
vt 0.877122343 0.398837566
vt 0.887984931 0.390843928
vt 0.877263963 0.404283226
vt 0.871577442 0.411127388
vt 0.895185411 0.393951118
vt 0.8817783 0.398803055
vt 0.888509214 0.41242367
vt 0.869267046 0.417724848
vt 0.866109908 0.438655853
vt 0.872433484 0.414707184
vt 0.879214942 0.426151872
vt 0.86918205 0.441610932
vt 0.880616128 0.433403492
vt 0.877303183 0.439078093
vt 0.871057093 0.44671309
vt 0.875445783 0.460435331
vt 0.885999382 0.444598496
vt 0.889381468 0.439422846
vt 0.889930904 0.447391629
vt 0.882386267 0.46859628
vt 0.894312084 0.442470491
vt 0.900028288 0.424481153
vt 0.901761234 0.427367747
vt 0.921173632 0.40231353
vt 0.898547828 0.400920928
vt 0.916798651 0.398939788
vt 0.908426464 0.388042748
vt 0.925051153 0.383123934
vt 0.927885473 0.384449184
vt 0.913855135 0.363750219
vt 0.943162143 0.33524555
vt 0.927238286 0.316434026
vt 0.919784725 0.380742967
vt 0.933605373 0.357720435
vt 0.928213298 0.357319534
vt 0.93931669 0.359452307
vt 0.943620622 0.36084199
vt 0.948298275 0.33564806
vt 0.953952134 0.322679162
vt 0.96325618 0.324429035
vt 0.960417449 0.330730081
vt 0.96924144 0.308052719
vt 0.960433543 0.306922734
vt 0.929992497 0.308347344
vt 0.930133879 0.303649962
vt 0.956129014 0.255718648
vt 0.97391361 0.255296648
vt 0.947567761 0.300571501
vt 0.933690727 0.294416249
vt 0.975731313 0.298055828
vt 0.993750632 0.289878964
vt 0.995763242 0.252461374
vt 0.969270527 0.226058424
vt 0.995557249 0.219366848
vt 0.971348941 0.212474406
vt 0.995183051 0.191522896
vt 0.936991513 0.299045861
vt 0.931307495 0.301951885
vt 0.93383199 0.298338711
vt 0.933996618 0.271686614
vt 0.954754651 0.222730875
vt 0.935379207 0.239022434
vt 0.941265047 0.229474485
vt 0.947438419 0.174210727
vt 0.95701772 0.12969774
vt 0.968491256 0.17718643
vt 0.965054333 0.153695762
vt 0.963527977 0.113690905
vt 0.964640081 0.130874813
vt 0.975055993 0.129501045
vt 0.96677953 0.109793834
vt 0.977636278 0.118617348
vt 0.97999078 0.10728424
vt 0.98074764 0.100239806
vt 0.963863432 0.0872781798
vt 0.972397506 0.152208865
vt 0.984253228 0.131401241
vt 0.982193649 0.124088936
vt 0.992454708 0.127383173
vt 0.990632117 0.116552405
vt 0.998642027 0.119178228
vt 0.998604476 0.133781374
vt 0.986233532 0.13527137
vt 0.985706151 0.172295153
vt 0.997208178 0.177311838
vt 0.976174295 0.174632013
vt 0.977138698 0.18138963
vt 0.980531514 0.188198745
vt 0.707284033 0.171826303
vt 0.712922871 0.184289515
vt 0.714205682 0.174368322
vt 0.708604038 0.182889998
vt 0.699588358 0.191393793
vt 0.711764038 0.192541659
vt 0.71694237 0.192305267
vt 0.704364121 0.183642447
vt 0.697350323 0.184405267
vt 0.701710284 0.173746288
vt 0.693005979 0.170504034
vt 0.723193705 0.163375795
vt 0.71209532 0.176824987
vt 0.721847951 0.136362255
vt 0.729599655 0.138539135
vt 0.679681838 0.145500004
vt 0.675010264 0.121921591
vt 0.729024351 0.170019567
vt 0.731375277 0.171244919
vt 0.719111383 0.182181656
vt 0.722382724 0.189590991
vt 0.729789078 0.19477433
vt 0.749050438 0.197662652
vt 0.718050659 0.109285764
vt 0.673221767 0.101590089
vt 0.673214734 0.0911692902
vt 0.71738261 0.103082351
vt 0.674544513 0.0570976064
vt 0.765518665 0.183874309
vt 0.771389663 0.199975789
vt 0.759861052 0.142871678
vt 0.805894196 0.153644025
vt 0.782620907 0.18647939
vt 0.784274638 0.191414535
vt 0.804623783 0.175775468
vt 0.803581178 0.172951043
vt 0.814884245 0.1666767
vt 0.818527162 0.162708461
vt 0.818805635 0.144584477
vt 0.758110583 0.122259788
vt 0.813754618 0.122974806
vt 0.826314628 0.133583486
vt 0.827106595 0.0903870389
vt 0.795154393 0.130129993
vt 0.808418512 0.100393467
vt 0.826949656 0.0616294667
vt 0.784682691 0.107197337
vt 0.788777649 0.067870073
vt 0.824885547 0.0309948251
vt 0.734230578 0.0703028962
vt 0.774058998 0.0404265448
vt 0.8042714 0.015009217
vt 0.766120851 0.0243381783
vt 0.764165699 0.071059756
vt 0.714074075 0.0699130818
vt 0.681866705 0.0487484261
vt 0.727967441 0.0569824502
vt 0.777563989 0.00116711156
vt 0.790286481 0.00106959837
vt 0.754950345 0.000821762253
vt 0.739738166 0.00573425787
vt 0.725608528 0.0117071196
vt 0.710289419 0.0591465756
vt 0.727298558 0.0461099669
vt 0.713705719 0.0222478434
vt 0.684945405 0.0319140479
vt 0.729805291 0.0376658961
vt 0.721833766 0.0424140021
vt 0.0151248975 0.338347614
vt 0.019062845 0.312832892
vt 0.00762081705 0.308136404
vt 0.00121468748 0.255597711
vt 0.013289568 0.261469543
vt 0.00498901401 0.211555839
vt 0.0207012296 0.325275898
vt 0.028743742 0.3401739
vt 0.0142748738 0.369174987
vt 0.0399614833 0.277082324
vt 0.0110792872 0.202766046
vt 0.0564801395 0.280758679
vt 0.0126121454 0.164492965
vt 0.0100619374 0.162211075
vt 0.0245923251 0.149273932
vt 0.021421371 0.144076124
vt 0.049667865 0.193084449
vt 0.064746514 0.220806673
vt 0.0440387055 0.142480597
vt 0.0625845119 0.134054422
vt 0.0636306256 0.172639728
vt 0.0831097588 0.230520323
vt 0.0787756369 0.17096886
vt 0.0800662562 0.198930785
vt 0.10992337 0.158068895
vt 0.0953559577 0.130669042
vt 0.116337195 0.184643269
vt 0.122293025 0.152107388
vt 0.121068493 0.120765127
vt 0.140774682 0.129862875
vt 0.129076824 0.16436024
vt 0.158378705 0.141393334
vt 0.132670298 0.188316911
vt 0.165506974 0.154540226
vt 0.167243317 0.163370088
vt 0.123781309 0.180222288
vt 0.123457491 0.192216128
vt 0.114794068 0.206725359
vt 0.114694245 0.225538388
vt 0.121074311 0.228186727
vt 0.0942478999 0.243997619
vt 0.115186118 0.27536723
vt 0.115375519 0.244770721
vt 0.131156668 0.234404787
vt 0.140637055 0.206793562
vt 0.0908898264 0.288576394
vt 0.135004193 0.260370255
vt 0.155321375 0.226107672
vt 0.178769365 0.184940264
vt 0.14207536 0.29735592
vt 0.163469702 0.238235503
vt 0.189924166 0.204619244
vt 0.195253998 0.210459173
vt 0.139385879 0.319577515
vt 0.168053046 0.257825881
vt 0.101555169 0.30757013
vt 0.19254671 0.225149482
vt 0.199139684 0.216653258
vt 0.197467402 0.253333658
vt 0.207536638 0.232680336
vt 0.216824934 0.242078409
vt 0.207597166 0.259981424
vt 0.176510811 0.315980047
vt 0.188763842 0.324098468
vt 0.156615272 0.308348715
vt 0.161711276 0.335177422
vt 0.167261124 0.363496423
vt 0.132772401 0.354860485
vt 0.12581645 0.383681029
vt 0.138758585 0.405569971
vt 0.111211009 0.386545509
vt 0.0977460966 0.424062163
vt 0.134751692 0.360940814
vt 0.120356604 0.3663387
vt 0.121399291 0.371773243
vt 0.114677019 0.372749865
vt 0.11693842 0.366255701
vt 0.0841077343 0.401592433
vt 0.0652026385 0.4270311
vt 0.0709813312 0.41255495
vt 0.0596399866 0.424691677
vt 0.040637482 0.415726781
vt 0.0689761117 0.405263841
vt 0.0304110311 0.404555947
vt 0.0805874616 0.398805827
vt 0.0572133884 0.395511925
vt 0.0286359414 0.396945924
vt 0.0551116168 0.391801804
vt 0.0681421831 0.38959074
vt 0.0950214416 0.387947083
vt 0.0664575249 0.38680312
vt 0.0763577223 0.364981353
vt 0.0762177408 0.382959872
vt 0.102491632 0.378115624
vt 0.101144187 0.37425974
vt 0.0813832358 0.365558267
vt 0.121923774 0.338601142
vt 0.0944607928 0.327891022
vt 0.0605183467 0.344401568
vt 0.0861602351 0.324717462
vt 0.0574869514 0.336409092
g submesh0
f 1/1/1 2/2/2 3/3/3
f 4/4/4 5/5/5 6/6/6
f 4/4/4 7/7/7 5/5/5
f 7/7/7 4/4/4 8/8/8
f 7/7/7 9/9/9 5/5/5
f 9/9/9 7/7/7 10/10/10
f 8/8/8 10/10/10 7/7/7
f 10/10/10 11/11/11 9/9/9
f 11/11/11 12/12/12 9/9/9
f 12/12/12 11/11/11 13/13/13
f 11/11/11 14/14/14 13/13/13
f 15/15/15 13/13/13 14/14/14
f 11/11/11 10/10/10 16/16/16
f 14/14/14 11/11/11 16/16/16
f 10/10/10 8/8/8 17/17/17
f 16/16/16 10/10/10 17/17/17
f 8/8/8 18/18/18 17/17/17
f 18/18/18 8/8/8 19/19/19
f 17/17/17 20/20/20 16/16/16
f 16/16/16 20/20/20 14/14/14
f 20/20/20 17/17/17 18/18/18
f 19/19/19 21/21/21 18/18/18
f 21/21/21 19/19/19 22/22/22
f 23/23/23 21/21/21 22/22/22
f 24/24/24 18/18/18 21/21/21
f 18/18/18 24/24/24 20/20/20
f 25/25/25 21/21/21 23/23/23
f 21/21/21 25/25/25 24/24/24
f 26/26/26 25/25/25 23/23/23
f 27/27/27 20/20/20 24/24/24
f 25/25/25 27/27/27 24/24/24
f 28/28/28 27/27/27 25/25/25
f 26/26/26 29/29/29 25/25/25
f 25/25/25 29/29/29 28/28/28
f 29/29/29 26/26/26 30/30/30
f 30/30/30 31/31/31 29/29/29
f 31/31/31 28/28/28 29/29/29
f 31/31/31 30/30/30 32/32/32
f 20/20/20 27/27/27 33/33/33
f 33/33/33 14/14/14 20/20/20
f 28/28/28 34/34/34 27/27/27
f 34/34/34 33/33/33 27/27/27
f 32/32/32 35/35/35 31/31/31
f 35/35/35 32/32/32 36/36/36
f 14/14/14 33/33/33 37/37/37
f 37/37/37 15/15/15 14/14/14
f 15/15/15 37/37/37 38/38/38
f 38/38/38 39/39/39 15/15/15
f 39/39/39 38/38/38 40/40/40
f 40/40/40 38/38/38 41/41/41
f 37/37/37 33/33/33 42/42/42
f 38/38/38 37/37/37 42/42/42
f 33/33/33 34/34/34 43/43/43
f 43/43/43 42/42/42 33/33/33
f 44/44/44 38/38/38 42/42/42
f 38/38/38 44/44/44 41/41/41
f 42/42/42 43/43/43 44/44/44
f 45/45/45 43/43/43 34/34/34
f 28/28/28 45/45/45 34/34/34
f 46/46/46 44/44/44 43/43/43
f 43/43/43 45/45/45 46/46/46
f 47/47/47 41/41/41 44/44/44
f 44/44/44 46/46/46 47/47/47
f 41/41/41 47/47/47 48/48/48
f 41/41/41 48/48/48 49/49/49
f 50/50/50 41/41/41 49/49/49
f 48/48/48 50/50/50 49/49/49
f 41/41/41 50/50/50 51/51/51
f 52/52/52 46/46/46 45/45/45
f 53/53/53 47/47/47 46/46/46
f 46/46/46 52/52/52 53/53/53
f 45/45/45 54/54/54 52/52/52
f 54/54/54 45/45/45 55/55/55
f 28/28/28 54/54/54 55/55/55
f 56/56/56 48/48/48 47/47/47
f 47/47/47 53/53/53 56/56/56
f 57/57/57 53/53/53 52/52/52
f 54/54/54 57/57/57 52/52/52
f 58/58/58 54/54/54 28/28/28
f 28/28/28 31/31/31 58/58/58
f 59/59/59 56/56/56 53/53/53
f 53/53/53 57/57/57 59/59/59
f 54/54/54 58/58/58 60/60/60
f 57/57/57 54/54/54 60/60/60
f 58/58/58 31/31/31 61/61/61
f 61/61/61 60/60/60 58/58/58
f 61/61/61 31/31/31 35/35/35
f 62/62/62 61/61/61 35/35/35
f 60/60/60 61/61/61 63/63/63
f 63/63/63 57/57/57 60/60/60
f 61/61/61 62/62/62 63/63/63
f 57/57/57 63/63/63 64/64/64
f 64/64/64 59/59/59 57/57/57
f 56/56/56 59/59/59 65/65/65
f 65/65/65 48/48/48 56/56/56
f 66/66/66 62/62/62 35/35/35
f 36/36/36 66/66/66 35/35/35
f 66/66/66 36/36/36 67/67/67
f 68/68/68 64/64/64 63/63/63
f 62/62/62 68/68/68 63/63/63
f 68/68/68 69/69/69 64/64/64
f 59/59/59 64/64/64 70/70/70
f 70/70/70 65/65/65 59/59/59
f 67/67/67 71/71/71 66/66/66
f 71/71/71 67/67/67 72/72/72
f 73/73/73 71/71/71 72/72/72
f 62/62/62 74/74/74 68/68/68
f 69/69/69 68/68/68 74/74/74
f 74/74/74 62/62/62 75/75/75
f 75/75/75 69/69/69 74/74/74
f 62/62/62 66/66/66 76/76/76
f 75/75/75 62/62/62 76/76/76
f 66/66/66 77/77/77 76/76/76
f 77/77/77 75/75/75 76/76/76
f 77/77/77 66/66/66 71/71/71
f 77/77/77 71/71/71 78/78/78
f 79/79/79 75/75/75 77/77/77
f 79/79/79 69/69/69 75/75/75
f 77/77/77 78/78/78 79/79/79
f 80/80/80 79/79/79 78/78/78
f 71/71/71 73/73/73 81/81/81
f 81/81/81 78/78/78 71/71/71
f 69/69/69 79/79/79 82/82/82
f 79/79/79 80/80/80 82/82/82
f 81/81/81 73/73/73 83/83/83
f 83/83/83 84/84/84 81/81/81
f 81/81/81 84/84/84 78/78/78
f 73/73/73 85/85/85 83/83/83
f 84/84/84 83/83/83 85/85/85
f 85/85/85 73/73/73 86/86/86
f 87/87/87 85/85/85 86/86/86
f 88/88/88 78/78/78 84/84/84
f 89/89/89 84/84/84 85/85/85
f 89/89/89 88/88/88 84/84/84
f 85/85/85 87/87/87 90/90/90
f 89/89/89 85/85/85 90/90/90
f 91/91/91 78/78/78 88/88/88
f 78/78/78 91/91/91 80/80/80
f 92/92/92 90/90/90 87/87/87
f 93/93/93 92/92/92 87/87/87
f 90/90/90 94/94/94 89/89/89
f 94/94/94 90/90/90 92/92/92
f 95/95/95 88/88/88 89/89/89
f 88/88/88 95/95/95 91/91/91
f 96/96/96 91/91/91 95/95/95
f 91/91/91 96/96/96 97/97/97
f 80/80/80 91/91/91 97/97/97
f 92/92/92 93/93/93 98/98/98
f 99/99/99 98/98/98 93/93/93
f 92/92/92 100/100/100 94/94/94
f 100/100/100 92/92/92 98/98/98
f 101/101/101 89/89/89 94/94/94
f 89/89/89 101/101/101 95/95/95
f 100/100/100 101/101/101 94/94/94
f 98/98/98 99/99/99 102/102/102
f 103/103/103 102/102/102 99/99/99
f 101/101/101 104/104/104 95/95/95
f 96/96/96 95/95/95 104/104/104
f 104/104/104 101/101/101 105/105/105
f 100/100/100 105/105/105 101/101/101
f 105/105/105 96/96/96 104/104/104
f 98/98/98 106/106/106 100/100/100
f 106/106/106 98/98/98 102/102/102
f 102/102/102 103/103/103 107/107/107
f 108/108/108 107/107/107 103/103/103
f 105/105/105 100/100/100 109/109/109
f 106/106/106 109/109/109 100/100/100
f 107/107/107 110/110/110 102/102/102
f 102/102/102 110/110/110 106/106/106
f 107/107/107 108/108/108 111/111/111
f 110/110/110 107/107/107 111/111/111
f 111/111/111 108/108/108 112/112/112
f 96/96/96 105/105/105 113/113/113
f 109/109/109 113/113/113 105/105/105
f 110/110/110 111/111/111 114/114/114
f 112/112/112 114/114/114 111/111/111
f 106/106/106 110/110/110 115/115/115
f 109/109/109 106/106/106 116/116/116
f 115/115/115 116/116/116 106/106/106
f 114/114/114 117/117/117 110/110/110
f 110/110/110 117/117/117 115/115/115
f 112/112/112 118/118/118 114/114/114
f 117/117/117 114/114/114 118/118/118
f 119/119/119 109/109/109 116/116/116
f 113/113/113 109/109/109 119/119/119
f 116/116/116 115/115/115 120/120/120
f 120/120/120 115/115/115 117/117/117
f 120/120/120 119/119/119 116/116/116
f 121/121/121 120/120/120 117/117/117
f 119/119/119 120/120/120 121/121/121
f 118/118/118 112/112/112 122/122/122
f 122/122/122 112/112/112 123/123/123
f 118/118/118 124/124/124 117/117/117
f 122/122/122 124/124/124 118/118/118
f 124/124/124 122/122/122 123/123/123
f 124/124/124 121/121/121 117/117/117
f 123/123/123 125/125/125 124/124/124
f 121/121/121 124/124/124 125/125/125
f 125/125/125 123/123/123 126/126/126
f 126/126/126 127/127/127 125/125/125
f 127/127/127 121/121/121 125/125/125
f 127/127/127 126/126/126 128/128/128
f 126/126/126 129/129/129 128/128/128
f 130/130/130 128/128/128 129/129/129
f 131/131/131 127/127/127 128/128/128
f 128/128/128 130/130/130 131/131/131
f 127/127/127 131/131/131 132/132/132
f 132/132/132 121/121/121 127/127/127
f 130/130/130 133/133/133 131/131/131
f 133/133/133 132/132/132 131/131/131
f 133/133/133 130/130/130 134/134/134
f 132/132/132 133/133/133 135/135/135
f 135/135/135 136/136/136 132/132/132
f 121/121/121 132/132/132 136/136/136
f 136/136/136 135/135/135 137/137/137
f 138/138/138 136/136/136 137/137/137
f 136/136/136 139/139/139 121/121/121
f 139/139/139 119/119/119 121/121/121
f 136/136/136 138/138/138 140/140/140
f 140/140/140 139/139/139 136/136/136
f 141/141/141 119/119/119 139/139/139
f 139/139/139 140/140/140 141/141/141
f 119/119/119 141/141/141 113/113/113
f 138/138/138 142/142/142 140/140/140
f 142/142/142 141/141/141 140/140/140
f 142/142/142 138/138/138 143/143/143
f 141/141/141 144/144/144 113/113/113
f 144/144/144 96/96/96 113/113/113
f 96/96/96 144/144/144 145/145/145
f 145/145/145 146/146/146 96/96/96
f 146/146/146 97/97/97 96/96/96
f 141/141/141 142/142/142 147/147/147
f 147/147/147 144/144/144 141/141/141
f 143/143/143 148/148/148 142/142/142
f 148/148/148 147/147/147 142/142/142
f 144/144/144 147/147/147 149/149/149
f 145/145/145 144/144/144 149/149/149
f 147/147/147 148/148/148 149/149/149
f 149/149/149 148/148/148 145/145/145
f 148/148/148 143/143/143 150/150/150
f 145/145/145 148/148/148 150/150/150
f 143/143/143 151/151/151 150/150/150
f 151/151/151 145/145/145 150/150/150
f 145/145/145 151/151/151 152/152/152
f 153/153/153 145/145/145 152/152/152
f 146/146/146 145/145/145 153/153/153
f 152/152/152 154/154/154 153/153/153
f 154/154/154 152/152/152 155/155/155
f 156/156/156 153/153/153 154/154/154
f 157/157/157 146/146/146 153/153/153
f 153/153/153 156/156/156 157/157/157
f 146/146/146 157/157/157 158/158/158
f 97/97/97 146/146/146 158/158/158
f 159/159/159 97/97/97 158/158/158
f 157/157/157 159/159/159 158/158/158
f 97/97/97 159/159/159 80/80/80
f 156/156/156 160/160/160 157/157/157
f 160/160/160 156/156/156 161/161/161
f 157/157/157 160/160/160 162/162/162
f 159/159/159 157/157/157 162/162/162
f 163/163/163 162/162/162 160/160/160
f 156/156/156 164/164/164 161/161/161
f 164/164/164 165/165/165 161/161/161
f 161/161/161 165/165/165 166/166/166
f 166/166/166 167/167/167 161/161/161
f 167/167/167 160/160/160 161/161/161
f 167/167/167 166/166/166 168/168/168
f 168/168/168 169/169/169 167/167/167
f 170/170/170 169/169/169 168/168/168
f 171/171/171 159/159/159 162/162/162
f 163/163/163 171/171/171 162/162/162
f 172/172/172 80/80/80 159/159/159
f 159/159/159 171/171/171 172/172/172
f 171/171/171 163/163/163 173/173/173
f 172/172/172 171/171/171 173/173/173
f 163/163/163 172/172/172 173/173/173
f 172/172/172 174/174/174 80/80/80
f 172/172/172 163/163/163 174/174/174
f 163/163/163 160/160/160 174/174/174
f 80/80/80 174/174/174 82/82/82
f 174/174/174 160/160/160 82/82/82
f 160/160/160 167/167/167 175/175/175
f 175/175/175 167/167/167 169/169/169
f 160/160/160 176/176/176 82/82/82
f 176/176/176 69/69/69 82/82/82
f 160/160/160 177/177/177 176/176/176
f 69/69/69 176/176/176 177/177/177
f 177/177/177 160/160/160 175/175/175
f 177/177/177 64/64/64 69/69/69
f 64/64/64 177/177/177 70/70/70
f 175/175/175 70/70/70 177/177/177
f 70/70/70 175/175/175 178/178/178
f 169/169/169 178/178/178 175/175/175
f 65/65/65 70/70/70 178/178/178
f 179/179/179 65/65/65 178/178/178
f 48/48/48 65/65/65 179/179/179
f 178/178/178 169/169/169 180/180/180
f 181/181/181 179/179/179 178/178/178
f 180/180/180 181/181/181 178/178/178
f 179/179/179 182/182/182 48/48/48
f 179/179/179 181/181/181 183/183/183
f 182/182/182 179/179/179 183/183/183
f 181/181/181 184/184/184 183/183/183
f 184/184/184 182/182/182 183/183/183
f 185/185/185 48/48/48 182/182/182
f 50/50/50 48/48/48 185/185/185
f 182/182/182 186/186/186 185/185/185
f 186/186/186 50/50/50 185/185/185
f 186/186/186 182/182/182 184/184/184
f 50/50/50 186/186/186 187/187/187
f 187/187/187 51/51/51 50/50/50
f 51/51/51 187/187/187 188/188/188
f 51/51/51 188/188/188 189/189/189
f 184/184/184 181/181/181 190/190/190
f 180/180/180 190/190/190 181/181/181
f 190/190/190 191/191/191 184/184/184
f 191/191/191 192/192/192 184/184/184
f 192/192/192 191/191/191 193/193/193
f 192/192/192 193/193/193 194/194/194
f 194/194/194 193/193/193 195/195/195
f 195/195/195 193/193/193 196/196/196
f 197/197/197 193/193/193 191/191/191
f 193/193/193 197/197/197 196/196/196
f 191/191/191 190/190/190 197/197/197
f 198/198/198 196/196/196 197/197/197
f 190/190/190 198/198/198 197/197/197
f 196/196/196 198/198/198 199/199/199
f 190/190/190 180/180/180 200/200/200
f 200/200/200 198/198/198 190/190/190
f 180/180/180 201/201/201 200/200/200
f 198/198/198 200/200/200 201/201/201
f 201/201/201 180/180/180 169/169/169
f 202/202/202 199/199/199 198/198/198
f 201/201/201 202/202/202 198/198/198
f 202/202/202 201/201/201 169/169/169
f 199/199/199 202/202/202 170/170/170
f 169/169/169 170/170/170 202/202/202
f 203/203/203 204/204/204 205/205/205
f 204/204/204 203/203/203 206/206/206
f 207/207/207 204/204/204 206/206/206
f 208/208/208 204/204/204 207/207/207
f 204/204/204 208/208/208 209/209/209
f 210/210/210 207/207/207 206/206/206
f 207/207/207 210/210/210 211/211/211
f 206/206/206 212/212/212 210/210/210
f 210/210/210 212/212/212 211/211/211
f 212/212/212 206/206/206 203/203/203
f 213/213/213 211/211/211 212/212/212
f 213/213/213 212/212/212 203/203/203
f 214/214/214 213/213/213 203/203/203
f 203/203/203 215/215/215 214/214/214
f 213/213/213 214/214/214 216/216/216
f 214/214/214 217/217/217 216/216/216
f 218/218/218 213/213/213 216/216/216
f 218/218/218 216/216/216 219/219/219
f 215/215/215 220/220/220 214/214/214
f 220/220/220 217/217/217 214/214/214
f 217/217/217 220/220/220 221/221/221
f 220/220/220 215/215/215 222/222/222
f 222/222/222 221/221/221 220/220/220
f 221/221/221 222/222/222 223/223/223
f 223/223/223 224/224/224 221/221/221
f 225/225/225 221/221/221 224/224/224
f 226/226/226 219/219/219 216/216/216
f 217/217/217 226/226/226 216/216/216
f 219/219/219 226/226/226 227/227/227
f 226/226/226 228/228/228 227/227/227
f 228/228/228 226/226/226 229/229/229
f 226/226/226 217/217/217 229/229/229
f 229/229/229 230/230/230 228/228/228
f 221/221/221 225/225/225 231/231/231
f 232/232/232 231/231/231 225/225/225
f 221/221/221 233/233/233 217/217/217
f 233/233/233 221/221/221 231/231/231
f 233/233/233 231/231/231 234/234/234
f 235/235/235 234/234/234 231/231/231
f 231/231/231 232/232/232 235/235/235
f 232/232/232 236/236/236 235/235/235
f 237/237/237 235/235/235 236/236/236
f 235/235/235 237/237/237 238/238/238
f 234/234/234 235/235/235 238/238/238
f 237/237/237 239/239/239 238/238/238
f 234/234/234 238/238/238 239/239/239
f 239/239/239 240/240/240 234/234/234
f 234/234/234 240/240/240 241/241/241
f 217/217/217 233/233/233 242/242/242
f 242/242/242 229/229/229 217/217/217
f 243/243/243 234/234/234 241/241/241
f 244/244/244 243/243/243 241/241/241
f 245/245/245 243/243/243 244/244/244
f 246/246/246 233/233/233 234/234/234
f 234/234/234 243/243/243 246/246/246
f 233/233/233 246/246/246 242/242/242
f 243/243/243 245/245/245 247/247/247
f 247/247/247 246/246/246 243/243/243
f 248/248/248 247/247/247 245/245/245
f 242/242/242 246/246/246 249/249/249
f 246/246/246 247/247/247 249/249/249
f 247/247/247 248/248/248 250/250/250
f 250/250/250 249/249/249 247/247/247
f 251/251/251 250/250/250 248/248/248
f 229/229/229 242/242/242 252/252/252
f 249/249/249 252/252/252 242/242/242
f 250/250/250 251/251/251 253/253/253
f 254/254/254 253/253/253 251/251/251
f 253/253/253 254/254/254 255/255/255
f 249/249/249 250/250/250 256/256/256
f 252/252/252 249/249/249 256/256/256
f 253/253/253 256/256/256 250/250/250
f 252/252/252 257/257/257 229/229/229
f 230/230/230 229/229/229 257/257/257
f 257/257/257 258/258/258 230/230/230
f 256/256/256 259/259/259 252/252/252
f 253/253/253 259/259/259 256/256/256
f 259/259/259 257/257/257 252/252/252
f 254/254/254 260/260/260 255/255/255
f 260/260/260 254/254/254 261/261/261
f 255/255/255 260/260/260 262/262/262
f 263/263/263 255/255/255 262/262/262
f 255/255/255 263/263/263 264/264/264
f 258/258/258 257/257/257 265/265/265
f 257/257/257 259/259/259 265/265/265
f 259/259/259 253/253/253 266/266/266
f 253/253/253 255/255/255 266/266/266
f 266/266/266 265/265/265 259/259/259
f 258/258/258 265/265/265 267/267/267
f 265/265/265 264/264/264 267/267/267
f 258/258/258 267/267/267 268/268/268
f 269/269/269 266/266/266 255/255/255
f 269/269/269 255/255/255 264/264/264
f 270/270/270 265/265/265 266/266/266
f 266/266/266 269/269/269 270/270/270
f 264/264/264 265/265/265 270/270/270
f 269/269/269 264/264/264 270/270/270
f 271/271/271 272/272/272 273/273/273
f 272/272/272 274/274/274 273/273/273
f 274/274/274 272/272/272 275/275/275
f 275/275/275 276/276/276 274/274/274
f 272/272/272 271/271/271 277/277/277
f 271/271/271 278/278/278 277/277/277
f 279/279/279 278/278/278 271/271/271
f 275/275/275 272/272/272 280/280/280
f 277/277/277 280/280/280 272/272/272
f 276/276/276 275/275/275 281/281/281
f 280/280/280 281/281/281 275/275/275
f 278/278/278 282/282/282 277/277/277
f 280/280/280 277/277/277 282/282/282
f 283/283/283 276/276/276 281/281/281
f 276/276/276 283/283/283 284/284/284
f 285/285/285 284/284/284 283/283/283
f 284/284/284 285/285/285 286/286/286
f 287/287/287 283/283/283 281/281/281
f 287/287/287 285/285/285 283/283/283
f 281/281/281 280/280/280 288/288/288
f 287/287/287 281/281/281 288/288/288
f 289/289/289 286/286/286 285/285/285
f 286/286/286 289/289/289 290/290/290
f 285/285/285 287/287/287 291/291/291
f 291/291/291 289/289/289 285/285/285
f 291/291/291 287/287/287 288/288/288
f 288/288/288 280/280/280 292/292/292
f 282/282/282 292/292/292 280/280/280
f 289/289/289 293/293/293 290/290/290
f 293/293/293 289/289/289 291/291/291
f 288/288/288 294/294/294 291/291/291
f 292/292/292 294/294/294 288/288/288
f 294/294/294 293/293/293 291/291/291
f 293/293/293 295/295/295 290/290/290
f 295/295/295 296/296/296 290/290/290
f 295/295/295 293/293/293 297/297/297
f 294/294/294 297/297/297 293/293/293
f 296/296/296 295/295/295 298/298/298
f 298/298/298 295/295/295 297/297/297
f 298/298/298 299/299/299 296/296/296
f 299/299/299 298/298/298 300/300/300
f 301/301/301 300/300/300 298/298/298
f 300/300/300 301/301/301 302/302/302
f 303/303/303 302/302/302 301/301/301
f 303/303/303 304/304/304 302/302/302
f 303/303/303 305/305/305 304/304/304
f 298/298/298 306/306/306 301/301/301
f 298/298/298 297/297/297 306/306/306
f 306/306/306 303/303/303 301/301/301
f 307/307/307 306/306/306 297/297/297
f 306/306/306 307/307/307 303/303/303
f 297/297/297 294/294/294 308/308/308
f 308/308/308 307/307/307 297/297/297
f 294/294/294 309/309/309 308/308/308
f 309/309/309 307/307/307 308/308/308
f 309/309/309 294/294/294 292/292/292
f 310/310/310 303/303/303 307/307/307
f 307/307/307 309/309/309 310/310/310
f 309/309/309 292/292/292 311/311/311
f 292/292/292 282/282/282 311/311/311
f 282/282/282 312/312/312 311/311/311
f 309/309/309 311/311/311 313/313/313
f 310/310/310 309/309/309 313/313/313
f 311/311/311 312/312/312 313/313/313
f 313/313/313 314/314/314 310/310/310
f 303/303/303 310/310/310 314/314/314
f 314/314/314 313/313/313 312/312/312
f 314/314/314 315/315/315 303/303/303
f 305/305/305 303/303/303 315/315/315
f 312/312/312 282/282/282 316/316/316
f 282/282/282 278/278/278 316/316/316
f 317/317/317 314/314/314 312/312/312
f 315/315/315 314/314/314 317/317/317
f 318/318/318 305/305/305 315/315/315
f 305/305/305 318/318/318 319/319/319
f 320/320/320 315/315/315 317/317/317
f 312/312/312 320/320/320 317/317/317
f 315/315/315 320/320/320 318/318/318
f 321/321/321 319/319/319 318/318/318
f 318/318/318 320/320/320 321/321/321
f 319/319/319 321/321/321 322/322/322
f 321/321/321 323/323/323 322/322/322
f 321/321/321 320/320/320 324/324/324
f 325/325/325 321/321/321 324/324/324
f 325/325/325 323/323/323 321/321/321
f 320/320/320 326/326/326 324/324/324
f 326/326/326 320/320/320 312/312/312
f 316/316/316 326/326/326 312/312/312
f 323/323/323 325/325/325 327/327/327
f 328/328/328 323/323/323 327/327/327
f 329/329/329 328/328/328 327/327/327
f 325/325/325 329/329/329 327/327/327
f 328/328/328 329/329/329 330/330/330
f 329/329/329 331/331/331 330/330/330
f 331/331/331 329/329/329 332/332/332
f 333/333/333 332/332/332 329/329/329
f 329/329/329 325/325/325 333/333/333
f 332/332/332 333/333/333 334/334/334
f 333/333/333 325/325/325 335/335/335
f 324/324/324 335/335/335 325/325/325
f 334/334/334 333/333/333 336/336/336
f 335/335/335 336/336/336 333/333/333
f 336/336/336 337/337/337 334/334/334
f 335/335/335 324/324/324 338/338/338
f 336/336/336 335/335/335 338/338/338
f 339/339/339 337/337/337 336/336/336
f 337/337/337 339/339/339 340/340/340
f 341/341/341 340/340/340 339/339/339
f 340/340/340 341/341/341 342/342/342
f 336/336/336 338/338/338 343/343/343
f 343/343/343 339/339/339 336/336/336
f 344/344/344 343/343/343 338/338/338
f 324/324/324 344/344/344 338/338/338
f 339/339/339 343/343/343 345/345/345
f 343/343/343 344/344/344 345/345/345
f 346/346/346 339/339/339 345/345/345
f 339/339/339 346/346/346 341/341/341
f 347/347/347 345/345/345 344/344/344
f 344/344/344 324/324/324 347/347/347
f 345/345/345 347/347/347 346/346/346
f 348/348/348 342/342/342 341/341/341
f 342/342/342 348/348/348 349/349/349
f 350/350/350 349/349/349 348/348/348
f 349/349/349 350/350/350 351/351/351
f 350/350/350 352/352/352 351/351/351
f 352/352/352 350/350/350 353/353/353
f 348/348/348 353/353/353 350/350/350
f 353/353/353 354/354/354 352/352/352
f 353/353/353 348/348/348 355/355/355
f 341/341/341 355/355/355 348/348/348
f 354/354/354 353/353/353 356/356/356
f 355/355/355 356/356/356 353/353/353
f 356/356/356 357/357/357 354/354/354
f 357/357/357 356/356/356 358/358/358
f 279/279/279 357/357/357 358/358/358
f 356/356/356 355/355/355 359/359/359
f 359/359/359 358/358/358 356/356/356
f 355/355/355 341/341/341 360/360/360
f 360/360/360 359/359/359 355/355/355
f 279/279/279 358/358/358 361/361/361
f 358/358/358 359/359/359 361/361/361
f 279/279/279 361/361/361 362/362/362
f 362/362/362 278/278/278 279/279/279
f 361/361/361 359/359/359 363/363/363
f 359/359/359 360/360/360 363/363/363
f 362/362/362 361/361/361 363/363/363
f 341/341/341 364/364/364 360/360/360
f 341/341/341 346/346/346 364/364/364
f 364/364/364 365/365/365 360/360/360
f 346/346/346 365/365/365 364/364/364
f 365/365/365 363/363/363 360/360/360
f 365/365/365 346/346/346 347/347/347
f 363/363/363 365/365/365 366/366/366
f 366/366/366 362/362/362 363/363/363
f 347/347/347 367/367/367 365/365/365
f 367/367/367 366/366/366 365/365/365
f 367/367/367 347/347/347 324/324/324
f 366/366/366 367/367/367 368/368/368
f 324/324/324 368/368/368 367/367/367
f 362/362/362 366/366/366 368/368/368
f 368/368/368 324/324/324 326/326/326
f 369/369/369 362/362/362 368/368/368
f 278/278/278 362/362/362 369/369/369
f 326/326/326 370/370/370 368/368/368
f 370/370/370 369/369/369 368/368/368
f 370/370/370 326/326/326 316/316/316
f 371/371/371 278/278/278 369/369/369
f 369/369/369 370/370/370 371/371/371
f 371/371/371 370/370/370 316/316/316
f 316/316/316 278/278/278 371/371/371
