# ore_node_stage_2_LOD1
v -1.32211757 1.55466902 1.02327263
v -0.379432052 1.99120939 0.829209864
v -1.04526401 1.80265474 0.976052821
v -1.44927156 0.915419161 -0.0090164179
v -1.04650021 0.156599805 -0.978762209
v -1.26589751 0.383720696 -0.213813171
v -1.20329249 0.167299569 -0.102671199
v -0.961870372 -0.169403076 -0.665071368
v -0.857152998 0.0666247532 -1.57070673
v -1.16479158 -0.0850146487 0.205145255
v -0.527771294 -0.144787297 -1.66001415
v -0.724743664 0.33536002 -1.8274163
v -0.251404107 0.340633839 -2.19795704
v 0.0414141826 -0.0102215577 -2.11515522
v 0.128797606 0.46541205 -2.50420094
v 0.787387669 0.507216096 -1.90358353
v 0.280463874 -0.126446992 -1.61332786
v 1.09503603 0.205932304 -1.15783656
v -0.186859131 -0.411681592 -0.730660081
v -0.323643178 -0.460259765 0.0398504622
v 0.777891219 -0.186637565 -0.351512432
v 1.33562434 0.0147662349 -0.570468426
v 1.67112732 0.196984559 0.620573997
v 0.295547485 -0.374719083 -0.554911792
v 1.10028744 -0.150168449 0.374419838
v 1.38135612 0.0559538268 1.19321036
v 0.291090697 -0.363440841 0.18464385
v 0.487104475 -0.0489050299 1.56454706
v -0.331713855 -0.306477815 1.16740596
v -1.16780603 0.0473367311 1.00007141
v 0.830863655 -0.158366695 0.941245735
v 1.21883667 0.27224806 1.70958495
v 0.208085939 0.20453018 1.83519709
v -0.595896602 -0.0307571404 1.73122621
v -1.01205873 0.145371169 1.26255429
v 1.78983092 1.71324646 0.617793262
v 2.08179569 1.55679619 0.568525076
v 1.77246392 1.66755641 0.222139895
v 1.15009642 1.84529293 0.672851264
v 1.29443359 1.69374382 0.778070331
v -0.379432052 1.99120939 0.829209864
v 0.143723145 1.64302766 1.0461663
v -0.665052474 1.56713068 1.0834527
v -1.32211757 1.55466902 1.02327263
v -1.25727022 1.24353135 0.866911292
v -1.21898127 1.63699305 0.702597618
v -1.56791747 1.07285583 0.542061746
v -1.04526401 1.80265474 0.976052821
v -0.54831177 1.85449791 0.545895994
v -1.4310962 1.23792243 0.082611084
v 0.166296378 1.88467681 0.600468099
v -0.969231546 1.5445745 0.420881957
v -0.671639085 1.82929468 0.419709146
v -0.439358205 1.80903411 0.136821598
v -1.29713595 1.3739599 -0.120216981
v -1.44927156 0.915419161 -0.0090164179
v -0.176412046 1.89791226 0.393198848
v 0.58069396 1.88794947 -0.238961175
v 0.829711914 1.76841033 0.258345932
v 1.11588192 1.83114076 -0.0870721415
v 0.961497784 1.77752626 -0.454983205
v 1.23285091 1.68212903 -0.263022453
v -1.32700777 0.836364806 -0.697583616
v -1.04355311 1.23408198 -0.497957438
v -1.6360662 0.578091025 -0.634438455
v -1.04650021 0.156599805 -0.978762209
v -1.27247643 0.596274078 -1.17380464
v -0.86373353 0.973298192 -1.72654188
v -1.01850188 1.21602583 -0.897691607
v -0.449359119 1.41203213 -0.778305054
v -1.10510218 0.224755466 -1.65477133
v -0.857152998 0.0666247532 -1.57070673
v -0.724743664 0.33536002 -1.8274163
v -0.899786353 0.527572393 -2.01262975
v -0.251404107 0.340633839 -2.19795704
v -0.450668335 0.553638518 -2.34599948
v 0.128797606 0.46541205 -2.50420094
v -0.530837417 1.06181574 -2.0278132
v 0.120507203 1.07600832 -2.28288054
v -0.0519543439 1.65656292 -0.461690366
v 0.0518151857 1.38944638 -1.96577299
v 0.14904663 1.56393969 -1.22754359
v 0.321433723 1.73800993 -0.853519559
v -0.698783219 1.24909043 -1.08541715
v -0.0654592887 1.39963591 -1.56703269
v 0.47628355 1.54723382 -1.47795653
v 0.863690138 1.70763314 -1.22181118
v 0.70521301 1.43800986 -1.75498426
v 0.930288076 1.82231081 -0.698041379
v 0.972227752 1.28282595 -1.61026275
v 0.787743509 1.20159996 -1.98776114
v 0.539354861 0.91662848 -2.24943304
v 0.501151085 0.549884379 -2.40738177
v 0.787387669 0.507216096 -1.90358353
v 0.750789165 0.690489113 -2.26471543
v 1.04677737 0.753251731 -2.05423498
v 1.10364068 0.955694377 -1.51776886
v 0.787387669 0.507216096 -1.90358353
v 0.974259615 0.840825915 -1.2316668
v 0.982291222 0.588499427 -1.50172091
v 1.09503603 0.205932304 -1.15783656
v 1.25637627 1.25242257 -0.820307016
v 1.05036807 0.737476766 -1.00958407
v 1.20182192 0.621669829 -1.19704735
v 1.38959837 0.458018869 -0.85373503
v 1.28787899 1.31816947 -0.407453001
v 1.6237042 0.854055285 -0.786662579
v 1.75871217 1.08051896 -0.373099357
v 1.86858392 1.4703145 0.232938528
v 1.6314379 0.968782961 -0.247675776
v 2.08179569 1.55679619 0.568525076
v 1.9217571 1.69725084 1.48445559
v 2.18759894 1.49052548 1.21624446
v 1.91289854 1.92086899 0.80650419
v 1.78983092 1.71324646 0.617793262
v 1.64328551 1.98320341 0.998531461
v 1.29443359 1.69374382 0.778070331
v 1.14020562 1.81237459 1.00125551
v 0.143723145 1.64302766 1.0461663
v 1.18762815 1.50585735 1.45325494
v 1.37576842 1.33373058 1.71661675
v 0.0986608863 1.34570396 1.57189691
v -0.665052474 1.56713068 1.0834527
v 1.93199885 1.30844021 1.43366456
v 2.18759894 1.49052548 1.21624446
v -0.797198176 1.13092351 1.70243156
v 0.0127282711 1.06634736 1.95485651
v -1.20086789 1.15935051 1.44335806
v -1.25727022 1.24353135 0.866911292
v -1.56791747 1.07285583 0.542061746
v 1.94455743 1.21771276 1.08749938
v 2.17511964 1.22354019 0.990991175
v 2.08179569 1.55679619 0.568525076
v 2.04091859 1.23224664 0.779199183
v 1.86858392 1.4703145 0.232938528
v 1.77246392 1.66755641 0.222139895
v 1.6314379 0.968782961 -0.247675776
v 2.08970261 1.01062226 0.859284341
v 1.81716549 0.576315343 -0.0275189206
v 1.50329399 0.398679048 -0.512830794
v 1.38959837 0.458018869 -0.85373503
v 1.09503603 0.205932304 -1.15783656
v 1.33562434 0.0147662349 -0.570468426
v 1.67112732 0.196984559 0.620573997
v 1.9893316 0.968060136 1.08833373
v 2.00589538 0.686504066 1.40376031
v 1.83170044 0.597312212 1.2437005
v 1.65515316 0.428665161 1.33196163
v 1.38135612 0.0559538268 1.19321036
v 1.21883667 0.27224806 1.70958495
v 1.98101008 1.06001127 1.54429805
v 1.70578611 1.10286415 1.66645384
v 1.22164369 0.714393079 1.72652888
v 0.671279907 0.730858088 2.00606084
v 0.208085939 0.20453018 1.83519709
v 0.860656083 1.09234703 1.96414602
v -0.0490032956 0.93585211 1.8904345
v -0.213390797 0.591828585 1.96614563
v -0.779608727 0.647793889 2.00286746
v -0.412725806 0.297422856 1.91376281
v -0.478981018 0.190478206 1.67931449
v -0.595896602 -0.0307571404 1.73122621
v -0.83364594 0.477299094 1.57726073
v -1.01205873 0.145371169 1.26255429
v -1.09683406 0.757971346 1.71897459
v -1.26897883 0.299410462 1.22005367
v -1.16780603 0.0473367311 1.00007141
v -1.4164331 0.438308716 1.15042174
v -1.50800323 0.683027029 0.706784368
v -1.58205771 0.292968065 0.922851563
v -1.16479158 -0.0850146487 0.205145255
v -1.48877895 0.599324584 1.03888857
v -1.61585665 0.440866143 0.638295591
v -1.20329249 0.167299569 -0.102671199
v -1.71950066 0.507737279 0.284490347
v -1.4310962 1.23792243 0.082611084
v -1.26589751 0.383720696 -0.213813171
v -1.44927156 0.915419161 -0.0090164179
vn -0.527856469 0.0348220095 0.848619521
vn -0.0364774466 0.889711261 0.455063909
vn -0.309182346 0.901426196 0.303046584
vn -0.951986909 0.00938860048 -0.305994779
vn -0.827678859 -0.551934361 -0.101568788
vn -0.903658152 -0.271284074 -0.331371218
vn -0.862980962 -0.446222544 -0.236958623
vn -0.531336665 -0.837283134 -0.128990084
vn -0.561863661 -0.74073267 -0.368271887
vn -0.537338912 -0.843280494 0.0120323272
vn -0.256216437 -0.892200589 -0.371929199
vn -0.401964843 -0.627202511 -0.667114079
vn -0.420295268 -0.599197924 -0.681405723
vn 0.198715776 -0.782537282 -0.590040207
vn 0.178964213 -0.266072989 -0.947194219
vn 0.626584351 -0.650552392 -0.429154664
vn 0.349255145 -0.873505354 -0.339130193
vn 0.559411943 -0.741034806 -0.371383458
vn -0.0995098352 -0.980222881 -0.171058148
vn -0.165335447 -0.983821154 0.0689932778
vn 0.375885159 -0.919110358 -0.118095383
vn 0.558959365 -0.805159569 -0.198198408
vn 0.730696261 -0.682519257 -0.0158246346
vn 0.280693144 -0.950936258 -0.130120948
vn 0.406924248 -0.912523925 -0.041383937
vn 0.467816502 -0.83985889 0.275290519
vn 0.168228731 -0.979579926 0.110101596
vn 0.160462141 -0.887823164 0.431302637
vn -0.0628878847 -0.973302364 0.220743299
vn -0.461520374 -0.86222142 0.208742112
vn 0.185181066 -0.963211834 0.194758698
vn 0.396186471 -0.548889756 0.73604095
vn 0.0795094743 -0.501882195 0.861273706
vn -0.281707823 -0.765736401 0.578176737
vn -0.667145371 -0.365502328 0.649095595
vn 0.128825232 0.922119915 -0.364827275
vn 0.921785057 0.284255207 -0.263649851
vn 0.435143203 0.841099739 -0.321250111
vn 0.148017809 0.958303034 0.24443002
vn -0.0438126586 0.995947301 0.0785458833
vn -0.0364774466 0.889711261 0.455063909
vn 0.012859528 0.783514202 0.621240675
vn -0.15760304 0.724998593 0.670476139
vn -0.527856469 0.0348220095 0.848619521
vn -0.699595928 0.571168184 0.429339528
vn -0.634022713 0.738901198 -0.228123233
vn -0.939529836 0.310764074 0.14390789
vn -0.309182346 0.901426196 0.303046584
vn -0.238835171 0.932766199 -0.270009309
vn -0.817641139 0.549531698 -0.171691298
vn 0.0680976957 0.971932232 -0.225189567
vn -0.46091789 0.843786716 -0.274915755
vn -0.418783695 0.897820473 -0.136156604
vn -0.271118015 0.904845178 -0.328253061
vn -0.596638203 0.73610425 -0.319645613
vn -0.951986909 0.00938860048 -0.305994779
vn -0.0443388186 0.997999489 -0.0450661778
vn 0.0164963398 0.998640239 -0.0494519696
vn 0.0416019224 0.998843789 -0.0240911711
vn 0.123624928 0.98463273 -0.123350456
vn 0.566605806 0.785586655 -0.248619154
vn 0.603390515 0.593065917 -0.533097386
vn -0.76111567 0.575060189 -0.300014526
vn -0.438030362 0.813331783 -0.382910907
vn -0.768257737 -0.58150357 0.267644554
vn -0.827678859 -0.551934361 -0.101568788
vn -0.930349946 0.040745832 -0.364401966
vn -0.674780488 0.633372843 -0.378827244
vn -0.639612794 0.730702341 -0.238683134
vn -0.367823392 0.888854027 -0.27321136
vn -0.85408175 -0.362531841 -0.37298128
vn -0.561863661 -0.74073267 -0.368271887
vn -0.401964843 -0.627202511 -0.667114079
vn -0.756833673 0.0373141766 -0.652541578
vn -0.420295268 -0.599197924 -0.681405723
vn -0.428251386 0.0746214315 -0.900573432
vn 0.178964213 -0.266072989 -0.947194219
vn -0.472019255 0.617753088 -0.628950715
vn -0.0646908358 0.531007051 -0.844894469
vn -0.277415335 0.914016366 -0.295998186
vn -0.180954427 0.863424182 -0.470907867
vn -0.319221407 0.913737774 -0.251358241
vn -0.225676358 0.951681256 -0.208261743
vn -0.349262834 0.899301052 -0.263198167
vn -0.371205091 0.907788336 -0.195261434
vn -0.120662384 0.937096953 -0.327551275
vn 0.320862263 0.8890028 -0.326682717
vn 0.252893895 0.810000002 -0.529097974
vn 0.725149691 0.674359202 -0.139275223
vn 0.851932406 0.435513794 -0.29075554
vn 0.448610216 0.603148341 -0.659515679
vn 0.268014491 0.421530694 -0.86630249
vn 0.390956193 -0.489411443 -0.779506087
vn 0.626584351 -0.650552392 -0.429154664
vn 0.587008417 -0.118789442 -0.800818384
vn 0.8925156 -0.166267142 -0.419250637
vn 0.99960357 0.0020460207 0.0280823056
vn 0.626584351 -0.650552392 -0.429154664
vn 0.999623537 -0.01365274 0.0238010194
vn 0.918991208 -0.15222308 -0.363707721
vn 0.559411943 -0.741034806 -0.371383458
vn 0.68053776 0.375683516 -0.629070938
vn 0.537435353 0.553473234 -0.636262894
vn 0.703270078 0.241357148 -0.668698609
vn 0.837734044 -0.361564606 -0.409234434
vn 0.598312914 0.538322687 -0.593489945
vn 0.621785998 0.395175666 -0.67617923
vn 0.797091901 0.359057963 -0.485511899
vn 0.923691213 0.00232592924 -0.383130819
vn 0.955563605 -0.122415908 -0.268165112
vn 0.921785057 0.284255207 -0.263649851
vn 0.344906986 0.65041554 0.676756144
vn 0.904130161 0.390888125 0.172496706
vn 0.714352846 0.697568655 -0.0556596741
vn 0.128825232 0.922119915 -0.364827275
vn -0.107544795 0.975594938 0.191438407
vn -0.0438126586 0.995947301 0.0785458833
vn -0.205797121 0.949688911 0.236089945
vn 0.012859528 0.783514202 0.621240675
vn -0.133558169 0.812818587 0.566999257
vn 0.104983874 0.496481538 0.861675382
vn -0.0789671093 0.838721335 0.538805008
vn -0.15760304 0.724998593 0.670476139
vn 0.706784427 -0.0408068523 0.706251025
vn 0.904130161 0.390888125 0.172496706
vn -0.214901149 0.699761868 0.681286156
vn -0.122590765 0.633278072 0.764153361
vn -0.746710241 0.483380467 0.456910282
vn -0.699595928 0.571168184 0.429339528
vn -0.939529836 0.310764074 0.14390789
vn 0.891219199 -0.30844903 0.33254692
vn 0.957914531 -0.268719345 0.100943461
vn 0.921785057 0.284255207 -0.263649851
vn 0.91163528 -0.0650337934 -0.405822337
vn 0.923691213 0.00232592924 -0.383130819
vn 0.435143203 0.841099739 -0.321250111
vn 0.955563605 -0.122415908 -0.268165112
vn 0.951416433 -0.306612819 -0.0282003954
vn 0.912073016 -0.278950602 -0.300515234
vn 0.90007633 -0.298674971 -0.317263097
vn 0.837734044 -0.361564606 -0.409234434
vn 0.559411943 -0.741034806 -0.371383458
vn 0.558959365 -0.805159569 -0.198198408
vn 0.730696261 -0.682519257 -0.0158246346
vn 0.946648657 -0.291992903 0.136368647
vn 0.759383023 -0.419041544 0.497736454
vn 0.850186408 -0.525932789 -0.0240408089
vn 0.637667179 -0.541674733 0.547694325
vn 0.467816502 -0.83985889 0.275290519
vn 0.396186471 -0.548889756 0.73604095
vn 0.781950593 -0.10593126 0.614273429
vn 0.363618761 -0.121155709 0.923635602
vn 0.467103183 -0.160374686 0.869536996
vn 0.135744333 -0.190044224 0.972346008
vn 0.0795094743 -0.501882195 0.861273706
vn 0.183372617 0.339546949 0.92254132
vn -0.125749588 0.153696299 0.980083942
vn 0.0295258146 -0.0573085509 0.997919858
vn -0.367214531 0.0348037258 0.929484904
vn -0.193925902 -0.606489658 0.771079242
vn -0.317849845 -0.184389696 0.93003875
vn -0.281707823 -0.765736401 0.578176737
vn -0.572955966 -0.533331931 0.622317076
vn -0.667145371 -0.365502328 0.649095595
vn -0.76502502 -0.125192255 0.631714761
vn -0.556289971 -0.554122031 0.619265735
vn -0.461520374 -0.86222142 0.208742112
vn -0.74315542 -0.291553646 0.602259636
vn -0.925361156 0.116388895 0.360777527
vn -0.767440081 -0.609278142 0.199539259
vn -0.537338912 -0.843280494 0.0120323272
vn -0.831585586 0.448453814 0.3276501
vn -0.914862752 -0.402267724 -0.0347384699
vn -0.862980962 -0.446222544 -0.236958623
vn -0.929393053 -0.304091513 -0.20918116
vn -0.817641139 0.549531698 -0.171691298
vn -0.903658152 -0.271284074 -0.331371218
vn -0.951986909 0.00938860048 -0.305994779
vt 0.839099944 0.362344205
vt 0.790658057 0.318359613
vt 0.824613392 0.348951399
vt 0.229939252 0.223321229
vt 0.204940945 0.323941559
vt 0.245875329 0.262331754
vt 0.261086822 0.275078982
vt 0.242788702 0.32551825
vt 0.180123359 0.363734037
vt 0.291219085 0.279392123
vt 0.196524084 0.390651315
vt 0.155777335 0.386630684
vt 0.156828254 0.433270484
vt 0.1888161 0.441955239
vt 0.163699806 0.463758618
vt 0.214692503 0.503308058
vt 0.227086306 0.439274162
vt 0.281989604 0.487685829
vt 0.268825352 0.378722399
vt 0.312573969 0.344320655
vt 0.326537997 0.431385309
vt 0.333093464 0.479079276
vt 0.427759618 0.460223109
vt 0.29615733 0.403569371
vt 0.386249691 0.425269455
vt 0.453621954 0.415856332
vt 0.343504518 0.378381968
vt 0.443606764 0.341031879
vt 0.384389371 0.302333564
vt 0.343434662 0.246144086
vt 0.413663507 0.386874199
vt 0.482910603 0.384764701
vt 0.457680047 0.311248749
vt 0.415318251 0.260850936
vt 0.369900316 0.249352902
vt 0.659556091 0.166672185
vt 0.638227761 0.139612094
vt 0.625290453 0.201046124
vt 0.699091613 0.222668245
vt 0.701507509 0.200673059
vt 0.790658057 0.318359613
vt 0.793827593 0.27115953
vt 0.834130406 0.317157686
vt 0.839099944 0.362344205
vt 0.860336006 0.370502114
vt 0.821352363 0.369553983
vt 0.848786652 0.411301553
vt 0.824613392 0.348951399
vt 0.780804753 0.342909813
vt 0.801033795 0.426521361
vt 0.747095108 0.295063972
vt 0.796089351 0.37905848
vt 0.778755128 0.35518831
vt 0.752374291 0.355839431
vt 0.780615866 0.422813356
vt 0.811594069 0.456934154
vt 0.753138721 0.327222526
vt 0.675072372 0.319814146
vt 0.686077654 0.269961655
vt 0.648500144 0.281705141
vt 0.638480365 0.313120067
vt 0.628361404 0.284032047
vt 0.750482619 0.469317138
vt 0.747245073 0.43224746
vt 0.765273869 0.490089834
vt 0.748788655 0.541197717
vt 0.725249767 0.494071484
vt 0.676027596 0.476620853
vt 0.72314626 0.446203649
vt 0.703998387 0.408983469
vt 0.696542203 0.526004195
vt 0.692395508 0.550774932
vt 0.662037492 0.528537691
vt 0.66343987 0.506110311
vt 0.614903331 0.519171417
vt 0.628320158 0.499890864
vt 0.592035472 0.489914954
vt 0.649199903 0.47051698
vt 0.610957801 0.457312644
vt 0.699705541 0.369287014
vt 0.62776804 0.437769711
vt 0.65330255 0.39838928
vt 0.661159277 0.369251907
vt 0.699776351 0.437542856
vt 0.648936749 0.426045239
vt 0.625706375 0.397825837
vt 0.6173895 0.366064489
vt 0.601719618 0.406232595
vt 0.635061979 0.33464402
vt 0.583661735 0.388333976
vt 0.585793912 0.420849681
vt 0.585459173 0.449688792
vt 0.575693727 0.472219944
vt 0.530881941 0.459557712
vt 0.565101624 0.453440845
vt 0.542749882 0.425679445
vt 0.557130039 0.378305435
vt 0.510623634 0.412769496
vt 0.547342122 0.350897193
vt 0.51678288 0.369542837
vt 0.474163562 0.339265406
vt 0.584367037 0.314175904
vt 0.539948165 0.329394519
vt 0.516196191 0.331896961
vt 0.49433884 0.294199347
vt 0.592798054 0.280238807
vt 0.531463683 0.275928557
vt 0.551310182 0.236812666
vt 0.605810821 0.188148871
vt 0.533830345 0.221857682
vt 0.307613134 0.231470436
vt 0.305482507 0.169352025
vt 0.290127277 0.186768383
vt 0.319644451 0.207576364
vt 0.3276757 0.223397881
vt 0.332174897 0.195336789
vt 0.359720826 0.207732767
vt 0.363909841 0.188175291
vt 0.434342146 0.169623584
vt 0.355670214 0.150877565
vt 0.339415431 0.130636066
vt 0.429309249 0.127497524
vt 0.489673615 0.150697321
vt 0.292732 0.13844654
vt 0.270313025 0.165043324
vt 0.48234427 0.0971512422
vt 0.43038702 0.0953200683
vt 0.510631919 0.10409262
vt 0.538444936 0.132307738
vt 0.574433625 0.127106696
vt 0.263787746 0.136786789
vt 0.250950575 0.147807211
vt 0.214590624 0.173258871
vt 0.232078567 0.141936153
vt 0.180535838 0.156381696
vt 0.179770932 0.170717627
vt 0.133020326 0.111434363
vt 0.240725771 0.121998928
vt 0.164612517 0.0763117895
vt 0.111533418 0.0509608649
vt 0.0735487193 0.0515725277
vt 0.0396530777 0.0138464216
vt 0.108921215 0.00853272714
vt 0.224375978 0.0399318002
vt 0.260805488 0.117381774
vt 0.28292954 0.0993859395
vt 0.273937225 0.0856944546
vt 0.28762579 0.0685004219
vt 0.283156633 0.0238574389
vt 0.330671906 0.042859938
vt 0.293233514 0.119309507
vt 0.312773347 0.117765032
vt 0.338456154 0.080476068
vt 0.383369446 0.0761999711
vt 0.41242826 0.0302444343
vt 0.372797847 0.103050672
vt 0.435067296 0.0859653577
vt 0.444615841 0.0600442551
vt 0.477102757 0.0658390149
vt 0.45985198 0.0402609967
vt 0.469836354 0.0231934432
vt 0.476695538 0.00219258154
vt 0.497372866 0.0468879603
vt 0.528518796 0.0235467795
vt 0.500035167 0.073033534
vt 0.539480388 0.0452670716
vt 0.558499277 0.0229653958
vt 0.545634925 0.0616295002
vt 0.570005953 0.0903257951
vt 0.565242946 0.0589143895
vt 0.607130349 0.0300892238
vt 0.551163733 0.0753666982
vt 0.582978308 0.0732467994
vt 0.658066452 0.0493878983
vt 0.607394278 0.0890243873
vt 0.602450192 0.136364371
vt 0.668093264 0.074013792
vt 0.630071223 0.133137494
g submesh0
f 1/1/1 2/2/2 3/3/3
f 4/4/4 5/5/5 6/6/6
f 5/5/5 7/7/7 6/6/6
f 7/7/7 5/5/5 8/8/8
f 9/9/9 8/8/8 5/5/5
f 10/10/10 7/7/7 8/8/8
f 8/8/8 9/9/9 11/11/11
f 9/9/9 12/12/12 11/11/11
f 13/13/13 11/11/11 12/12/12
f 11/11/11 13/13/13 14/14/14
f 14/14/14 13/13/13 15/15/15
f 15/15/15 16/16/16 14/14/14
f 17/17/17 14/14/14 16/16/16
f 14/14/14 17/17/17 11/11/11
f 18/18/18 17/17/17 16/16/16
f 19/19/19 8/8/8 11/11/11
f 19/19/19 11/11/11 17/17/17
f 8/8/8 20/20/20 10/10/10
f 20/20/20 8/8/8 19/19/19
f 18/18/18 21/21/21 17/17/17
f 21/21/21 18/18/18 22/22/22
f 23/23/23 21/21/21 22/22/22
f 17/17/17 24/24/24 19/19/19
f 24/24/24 20/20/20 19/19/19
f 24/24/24 17/17/17 21/21/21
f 21/21/21 23/23/23 25/25/25
f 25/25/25 23/23/23 26/26/26
f 21/21/21 27/27/27 24/24/24
f 27/27/27 21/21/21 25/25/25
f 20/20/20 24/24/24 27/27/27
f 20/20/20 27/27/27 28/28/28
f 29/29/29 10/10/10 20/20/20
f 29/29/29 20/20/20 28/28/28
f 10/10/10 29/29/29 30/30/30
f 31/31/31 27/27/27 25/25/25
f 26/26/26 31/31/31 25/25/25
f 27/27/27 31/31/31 28/28/28
f 31/31/31 26/26/26 28/28/28
f 32/32/32 28/28/28 26/26/26
f 28/28/28 32/32/32 33/33/33
f 34/34/34 28/28/28 33/33/33
f 29/29/29 28/28/28 34/34/34
f 30/30/30 29/29/29 34/34/34
f 30/30/30 34/34/34 35/35/35
f 36/36/36 37/37/37 38/38/38
f 39/39/39 36/36/36 38/38/38
f 36/36/36 39/39/39 40/40/40
f 41/41/41 40/40/40 39/39/39
f 40/40/40 41/41/41 42/42/42
f 42/42/42 41/41/41 43/43/43
f 41/41/41 44/44/44 43/43/43
f 43/43/43 44/44/44 45/45/45
f 46/46/46 45/45/45 44/44/44
f 46/46/46 47/47/47 45/45/45
f 44/44/44 48/48/48 46/46/46
f 49/49/49 48/48/48 41/41/41
f 48/48/48 49/49/49 46/46/46
f 47/47/47 46/46/46 50/50/50
f 51/51/51 41/41/41 39/39/39
f 51/51/51 49/49/49 41/41/41
f 46/46/46 49/49/49 52/52/52
f 50/50/50 46/46/46 52/52/52
f 50/50/50 52/52/52 53/53/53
f 53/53/53 52/52/52 49/49/49
f 54/54/54 53/53/53 49/49/49
f 55/55/55 50/50/50 53/53/53
f 54/54/54 55/55/55 53/53/53
f 50/50/50 55/55/55 56/56/56
f 51/51/51 57/57/57 49/49/49
f 57/57/57 54/54/54 49/49/49
f 58/58/58 54/54/54 57/57/57
f 59/59/59 57/57/57 51/51/51
f 51/51/51 39/39/39 59/59/59
f 57/57/57 59/59/59 58/58/58
f 39/39/39 60/60/60 59/59/59
f 60/60/60 39/39/39 38/38/38
f 60/60/60 61/61/61 59/59/59
f 59/59/59 61/61/61 58/58/58
f 38/38/38 62/62/62 60/60/60
f 62/62/62 61/61/61 60/60/60
f 63/63/63 56/56/56 55/55/55
f 55/55/55 54/54/54 64/64/64
f 55/55/55 64/64/64 63/63/63
f 63/63/63 65/65/65 56/56/56
f 56/56/56 65/65/65 66/66/66
f 67/67/67 66/66/66 65/65/65
f 67/67/67 65/65/65 63/63/63
f 68/68/68 67/67/67 63/63/63
f 69/69/69 63/63/63 64/64/64
f 63/63/63 69/69/69 68/68/68
f 64/64/64 54/54/54 70/70/70
f 70/70/70 69/69/69 64/64/64
f 71/71/71 66/66/66 67/67/67
f 66/66/66 71/71/71 72/72/72
f 72/72/72 71/71/71 73/73/73
f 71/71/71 67/67/67 74/74/74
f 74/74/74 73/73/73 71/71/71
f 67/67/67 68/68/68 74/74/74
f 74/74/74 75/75/75 73/73/73
f 75/75/75 74/74/74 76/76/76
f 76/76/76 77/77/77 75/75/75
f 76/76/76 74/74/74 78/78/78
f 78/78/78 74/74/74 68/68/68
f 79/79/79 76/76/76 78/78/78
f 76/76/76 79/79/79 77/77/77
f 54/54/54 80/80/80 70/70/70
f 80/80/80 54/54/54 58/58/58
f 68/68/68 81/81/81 78/78/78
f 78/78/78 81/81/81 79/79/79
f 80/80/80 82/82/82 70/70/70
f 83/83/83 80/80/80 58/58/58
f 82/82/82 80/80/80 83/83/83
f 82/82/82 84/84/84 70/70/70
f 84/84/84 69/69/69 70/70/70
f 68/68/68 69/69/69 84/84/84
f 68/68/68 84/84/84 85/85/85
f 84/84/84 82/82/82 85/85/85
f 81/81/81 68/68/68 85/85/85
f 85/85/85 82/82/82 86/86/86
f 83/83/83 86/86/86 82/82/82
f 86/86/86 81/81/81 85/85/85
f 58/58/58 87/87/87 83/83/83
f 86/86/86 83/83/83 87/87/87
f 88/88/88 81/81/81 86/86/86
f 81/81/81 88/88/88 79/79/79
f 86/86/86 87/87/87 88/88/88
f 87/87/87 58/58/58 89/89/89
f 61/61/61 89/89/89 58/58/58
f 90/90/90 88/88/88 87/87/87
f 89/89/89 90/90/90 87/87/87
f 79/79/79 88/88/88 91/91/91
f 88/88/88 90/90/90 91/91/91
f 79/79/79 91/91/91 92/92/92
f 92/92/92 77/77/77 79/79/79
f 77/77/77 92/92/92 93/93/93
f 77/77/77 93/93/93 94/94/94
f 93/93/93 92/92/92 95/95/95
f 94/94/94 93/93/93 95/95/95
f 91/91/91 95/95/95 92/92/92
f 94/94/94 95/95/95 96/96/96
f 91/91/91 96/96/96 95/95/95
f 96/96/96 91/91/91 90/90/90
f 90/90/90 97/97/97 96/96/96
f 90/90/90 89/89/89 97/97/97
f 97/97/97 98/98/98 96/96/96
f 99/99/99 89/89/89 61/61/61
f 89/89/89 99/99/99 97/97/97
f 98/98/98 97/97/97 100/100/100
f 100/100/100 97/97/97 99/99/99
f 98/98/98 100/100/100 101/101/101
f 102/102/102 99/99/99 61/61/61
f 61/61/61 62/62/62 102/102/102
f 103/103/103 100/100/100 99/99/99
f 102/102/102 103/103/103 99/99/99
f 104/104/104 101/101/101 100/100/100
f 100/100/100 103/103/103 104/104/104
f 101/101/101 104/104/104 105/105/105
f 62/62/62 106/106/106 102/102/102
f 102/102/102 106/106/106 103/103/103
f 62/62/62 38/38/38 106/106/106
f 103/103/103 107/107/107 104/104/104
f 107/107/107 105/105/105 104/104/104
f 106/106/106 107/107/107 103/103/103
f 38/38/38 108/108/108 106/106/106
f 107/107/107 106/106/106 108/108/108
f 108/108/108 105/105/105 107/107/107
f 108/108/108 38/38/38 109/109/109
f 105/105/105 108/108/108 110/110/110
f 110/110/110 108/108/108 109/109/109
f 111/111/111 112/112/112 113/113/113
f 112/112/112 111/111/111 114/114/114
f 114/114/114 111/111/111 115/115/115
f 115/115/115 116/116/116 114/114/114
f 116/116/116 112/112/112 114/114/114
f 117/117/117 116/116/116 115/115/115
f 116/116/116 117/117/117 118/118/118
f 118/118/118 112/112/112 116/116/116
f 117/117/117 119/119/119 118/118/118
f 119/119/119 120/120/120 118/118/118
f 112/112/112 118/118/118 120/120/120
f 112/112/112 120/120/120 121/121/121
f 120/120/120 119/119/119 122/122/122
f 122/122/122 121/121/121 120/120/120
f 123/123/123 122/122/122 119/119/119
f 121/121/121 124/124/124 112/112/112
f 125/125/125 112/112/112 124/124/124
f 122/122/122 123/123/123 126/126/126
f 121/121/121 122/122/122 127/127/127
f 126/126/126 127/127/127 122/122/122
f 123/123/123 128/128/128 126/126/126
f 128/128/128 123/123/123 129/129/129
f 130/130/130 128/128/128 129/129/129
f 124/124/124 131/131/131 125/125/125
f 125/125/125 131/131/131 132/132/132
f 133/133/133 125/125/125 132/132/132
f 132/132/132 134/134/134 133/133/133
f 135/135/135 133/133/133 134/134/134
f 136/136/136 133/133/133 135/135/135
f 134/134/134 137/137/137 135/135/135
f 134/134/134 132/132/132 138/138/138
f 132/132/132 131/131/131 138/138/138
f 134/134/134 139/139/139 137/137/137
f 139/139/139 134/134/134 138/138/138
f 140/140/140 137/137/137 139/139/139
f 141/141/141 137/137/137 140/140/140
f 140/140/140 142/142/142 141/141/141
f 142/142/142 140/140/140 143/143/143
f 140/140/140 144/144/144 143/143/143
f 139/139/139 144/144/144 140/140/140
f 138/138/138 144/144/144 139/139/139
f 138/138/138 131/131/131 145/145/145
f 144/144/144 138/138/138 145/145/145
f 146/146/146 145/145/145 131/131/131
f 147/147/147 144/144/144 145/145/145
f 145/145/145 146/146/146 147/147/147
f 144/144/144 147/147/147 148/148/148
f 147/147/147 146/146/146 148/148/148
f 144/144/144 148/148/148 149/149/149
f 149/149/149 148/148/148 150/150/150
f 131/131/131 151/151/151 146/146/146
f 151/151/151 148/148/148 146/146/146
f 124/124/124 151/151/151 131/131/131
f 124/124/124 152/152/152 151/151/151
f 148/148/148 151/151/151 152/152/152
f 124/124/124 121/121/121 152/152/152
f 152/152/152 153/153/153 148/148/148
f 148/148/148 153/153/153 150/150/150
f 121/121/121 153/153/153 152/152/152
f 154/154/154 150/150/150 153/153/153
f 155/155/155 150/150/150 154/154/154
f 153/153/153 121/121/121 156/156/156
f 153/153/153 156/156/156 154/154/154
f 121/121/121 127/127/127 156/156/156
f 127/127/127 154/154/154 156/156/156
f 154/154/154 127/127/127 157/157/157
f 157/157/157 127/127/127 126/126/126
f 154/154/154 157/157/157 158/158/158
f 158/158/158 155/155/155 154/154/154
f 157/157/157 126/126/126 159/159/159
f 159/159/159 158/158/158 157/157/157
f 128/128/128 159/159/159 126/126/126
f 155/155/155 158/158/158 160/160/160
f 160/160/160 158/158/158 159/159/159
f 160/160/160 161/161/161 155/155/155
f 155/155/155 161/161/161 162/162/162
f 161/161/161 160/160/160 163/163/163
f 162/162/162 161/161/161 163/163/163
f 159/159/159 163/163/163 160/160/160
f 164/164/164 162/162/162 163/163/163
f 159/159/159 128/128/128 165/165/165
f 163/163/163 159/159/159 165/165/165
f 164/164/164 163/163/163 166/166/166
f 165/165/165 166/166/166 163/163/163
f 166/166/166 167/167/167 164/164/164
f 167/167/167 166/166/166 168/168/168
f 168/168/168 166/166/166 165/165/165
f 169/169/169 165/165/165 128/128/128
f 128/128/128 130/130/130 169/169/169
f 170/170/170 167/167/167 168/168/168
f 170/170/170 171/171/171 167/167/167
f 165/165/165 172/172/172 168/168/168
f 170/170/170 168/168/168 172/172/172
f 165/165/165 169/169/169 172/172/172
f 171/171/171 170/170/170 173/173/173
f 170/170/170 172/172/172 173/173/173
f 172/172/172 169/169/169 173/173/173
f 173/173/173 174/174/174 171/171/171
f 169/169/169 130/130/130 175/175/175
f 169/169/169 175/175/175 173/173/173
f 173/173/173 175/175/175 174/174/174
f 176/176/176 175/175/175 130/130/130
f 175/175/175 177/177/177 174/174/174
f 178/178/178 175/175/175 176/176/176
f 175/175/175 178/178/178 177/177/177
