# ore_node_stage_2_LOD0
v 2.17138171 1.70752835 0.710159898
v 1.9217571 1.69725084 1.48445559
v 2.19358873 1.54667294 1.20416617
v 1.91289854 1.92086899 0.80650419
v 2.08179569 1.55679619 0.568525076
v 1.78983092 1.71324646 0.617793262
v 1.64328551 1.98320341 0.998531461
v 1.55307925 1.72186065 0.721947312
v 1.29443359 1.69374382 0.778070331
v 1.14020562 1.81237459 1.00125551
v 1.12827635 1.68712258 0.864152193
v 1.62498963 1.82550132 1.22975647
v 0.143723145 1.64302766 1.0461663
v 0.0313330069 1.62779295 0.997496307
v -0.665052474 1.56713068 1.0834527
v 1.14661014 1.69956446 1.21805108
v 0.135129392 1.56682968 1.27773309
v 1.18762815 1.50585735 1.45325494
v -0.748830259 1.49068415 1.35339105
v 0.0986608863 1.34570396 1.57189691
v -1.25727022 1.24353135 0.866911292
v -0.872772217 1.48509371 1.08156192
v -1.20086789 1.15935051 1.44335806
v -1.56791747 1.07285583 0.542061746
v 1.37576842 1.33373058 1.71661675
v 0.0326416008 1.15486574 1.76749873
v 1.63820004 1.5050447 1.57221556
v -0.784202576 1.28536189 1.72195065
v 1.8823992 1.65528166 1.52550352
v 2.18759894 1.49052548 1.21624446
v 2.19358873 1.54667294 1.20416617
v 2.17138171 1.70752835 0.710159898
v 2.02552056 1.48227978 1.31566405
v 1.75665832 1.37241817 1.44660819
v 2.18391776 1.38057935 0.832068741
v 2.08179569 1.55679619 0.568525076
v 1.94455743 1.21771276 1.08749938
v 2.17511964 1.22354019 0.990991175
v 2.04091859 1.23224664 0.779199183
v 1.98904109 1.38648546 1.40141535
v 2.01338625 1.11319351 0.927517056
v 1.99212646 1.10567474 1.27851319
v 1.9893316 0.968060136 1.08833373
v 1.93199885 1.30844021 1.43366456
v 1.68978572 1.23776424 1.60313845
v 2.16983819 1.12232816 0.720622838
v 1.96228635 1.21460843 0.602712691
v 2.08970261 1.01062226 0.859284341
v 1.81716549 0.576315343 -0.0275189206
v 2.02051139 1.07292795 1.48705804
v 1.91492307 1.23981106 1.56840873
v 2.0574224 0.863337278 1.41723323
v 1.83910513 1.41826844 0.26900816
v 1.83182859 1.57460976 0.287474066
v 1.9989599 1.72136652 0.390413821
v 1.6314379 0.968782961 -0.247675776
v 1.59903133 0.864265263 -0.22368072
v 1.38959837 0.458018869 -0.85373503
v 1.50329399 0.398679048 -0.512830794
v 1.19489741 0.275742024 -1.09697175
v 1.17817748 0.119102322 -0.807510078
v 1.09503603 0.205932304 -1.15783656
v 1.33562434 0.0147662349 -0.570468426
v 1.5918268 0.289589226 -0.372764587
v 1.67112732 0.196984559 0.620573997
v 1.71102476 0.32663238 0.663030088
v 1.45531976 0.254825056 1.13919795
v 1.38135612 0.0559538268 1.19321036
v 2.01175594 0.810156584 1.04568362
v 1.36166811 0.209007263 1.55404472
v 1.19058037 0.207660511 1.68070555
v 1.21883667 0.27224806 1.70958495
v 0.216643065 0.144786522 1.82338011
v 1.51496339 0.343499511 1.46528685
v 1.65515316 0.428665161 1.33196163
v 1.84519041 0.571745574 1.21164727
v 1.83170044 0.597312212 1.2437005
v 1.84867668 0.507564962 1.35415828
v 2.00589538 0.686504066 1.40376031
v 2.02260566 0.845582247 1.4895215
v 1.6810919 0.670025826 1.47124326
v 1.22164369 0.714393079 1.72652888
v 1.1154089 0.409190059 1.67596185
v 1.98101008 1.06001127 1.54429805
v 1.70578611 1.10286415 1.66645384
v 1.51799679 1.05217874 1.79667234
v 0.208085939 0.20453018 1.83519709
v 1.26367736 1.20148027 1.87746394
v 0.860656083 1.09234703 1.96414602
v 0.0127282711 1.06634736 1.95485651
v 0.731890857 0.770939767 1.96873713
v 0.671279907 0.730858088 2.00606084
v -0.382242411 1.1743381 1.83784175
v -0.0490032956 0.93585211 1.8904345
v 0.596004605 0.486090302 1.92572021
v -0.797198176 1.13092351 1.70243156
v -0.0840478465 0.864150822 1.95864069
v -0.213390797 0.591828585 1.96614563
v -0.769394219 0.829854488 2.03678274
v -1.07545865 1.02778494 1.55472529
v -0.892217398 0.824643612 1.98756766
v -1.09683406 0.757971346 1.71897459
v -1.60855865 0.917574286 0.759345353
v -1.71950066 0.507737279 0.284490347
v -1.50800323 0.683027029 0.706784368
v -0.779608727 0.647793889 2.00286746
v -0.647679448 0.643101156 2.0165441
v -0.412725806 0.297422856 1.91376281
v -1.60915709 0.66294378 0.131335452
v -1.54257929 1.06189477 0.213466793
v -1.45081389 0.912900686 -0.00582580548
v -1.44927156 0.915419161 -0.0090164179
v -1.49591982 0.75601989 -0.154554442
v -1.26589751 0.383720696 -0.213813171
v -0.83364594 0.477299094 1.57726073
v -1.0987134 0.506427467 1.3600384
v -0.478981018 0.190478206 1.67931449
v -0.595896602 -0.0307571404 1.73122621
v -0.692705989 0.330639482 1.52315247
v -0.635545313 0.0922923237 1.70380676
v -0.978438079 0.00967086758 1.28390312
v -0.862120926 0.301836163 1.43958676
v -1.01205873 0.145371169 1.26255429
v -0.983228743 0.357678354 1.46916139
v -1.09791172 0.155849829 1.1172601
v -1.16780603 0.0473367311 1.00007141
v -1.20129085 0.264815658 1.34083188
v -1.26897883 0.299410462 1.22005367
v -1.46650171 0.300449073 1.12739992
v -1.58205771 0.292968065 0.922851563
v -1.15476012 -0.0190574639 0.755589306
v -1.18604636 0.078521423 0.457290024
v -1.4164331 0.438308716 1.15042174
v -1.37102449 0.248657152 0.637607992
v -1.20329249 0.167299569 -0.102671199
v -1.47686946 0.51688844 1.17350459
v -1.48877895 0.599324584 1.03888857
v -1.44455683 0.522976816 1.03463864
v -1.52301657 0.45838064 0.911396444
v -1.580549 0.529412508 0.887213409
v -1.61585665 0.440866143 0.638295591
v -1.44227624 0.265918732 0.0843676776
v -1.47475028 0.347560108 0.562881172
v -1.49591982 0.75601989 -0.154554442
v -1.04650021 0.156599805 -0.978762209
v -1.26589751 0.383720696 -0.213813171
v -1.20329249 0.167299569 -0.102671199
v -0.961870372 -0.169403076 -0.665071368
v -1.16479158 -0.0850146487 0.205145255
v -1.18604636 0.078521423 0.457290024
v -1.15476012 -0.0190574639 0.755589306
v -0.866720557 -0.173197165 -1.0841006
v -0.857152998 0.0666247532 -1.57070673
v -0.789812922 -0.087469019 -1.57678854
v -0.724743664 0.33536002 -1.8274163
v -0.527771294 -0.144787297 -1.66001415
v -0.251404107 0.340633839 -2.19795704
v -0.186859131 -0.411681592 -0.730660081
v 0.280463874 -0.126446992 -1.61332786
v 0.0414141826 -0.0102215577 -2.11515522
v 0.104955442 0.395537555 -2.3311255
v -0.323643178 -0.460259765 0.0398504622
v -0.331713855 -0.306477815 1.16740596
v 0.487104475 -0.0489050299 1.56454706
v -0.582389832 -0.13486068 1.53893554
v -1.16780603 0.0473367311 1.00007141
v -0.978438079 0.00967086758 1.28390312
v -0.595896602 -0.0307571404 1.73122621
v 0.216643065 0.144786522 1.82338011
v 1.19058037 0.207660511 1.68070555
v 1.38135612 0.0559538268 1.19321036
v 0.295547485 -0.374719083 -0.554911792
v 0.777891219 -0.186637565 -0.351512432
v 0.291090697 -0.363440841 0.18464385
v 0.830863655 -0.158366695 0.941245735
v 1.10028744 -0.150168449 0.374419838
v 1.67112732 0.196984559 0.620573997
v 1.33562434 0.0147662349 -0.570468426
v 1.17817748 0.119102322 -0.807510078
v 1.09503603 0.205932304 -1.15783656
v 0.902782559 0.348284662 -1.70300186
v 0.239072874 0.0873060599 -2.10100532
v 0.787387669 0.507216096 -1.90358353
v 0.598840296 0.561414123 -2.05538869
v 0.787387669 0.507216096 -1.90358353
v 0.820828199 0.686071813 -2.10318685
v 1.04677737 0.753251731 -2.05423498
v 0.598840296 0.561414123 -2.05538869
v 0.499387801 0.506475031 -2.33733916
v 0.104955442 0.395537555 -2.3311255
v 0.779607534 0.858044624 -2.10084391
v 0.750789165 0.690489113 -2.26471543
v 0.128797606 0.46541205 -2.50420094
v 0.501151085 0.549884379 -2.40738177
v -0.388547659 0.433071494 -2.31671786
v -0.251404107 0.340633839 -2.19795704
v -0.899786353 0.527572393 -2.01262975
v -0.724743664 0.33536002 -1.8274163
v -0.450668335 0.553638518 -2.34599948
v 0.151000977 0.564652622 -2.4953928
v 0.539354861 0.91662848 -2.24943304
v 0.787743509 1.20159996 -1.98776114
v -0.000871887198 0.878409028 -2.40491629
v -0.47082153 0.820004225 -2.26278234
v 0.120507203 1.07600832 -2.28288054
v 0.81394285 1.20504916 -1.75427353
v 0.70521301 1.43800986 -1.75498426
v 0.0518151857 1.38944638 -1.96577299
v -0.530837417 1.06181574 -2.0278132
v -0.86373353 0.973298192 -1.72654188
v -0.858244002 0.754777968 -1.95736802
v -0.916383326 0.579887629 -1.88601172
v 0.972227752 1.28282595 -1.61026275
v 0.723466158 1.49607325 -1.53911614
v 0.46925962 1.56072319 -1.61663949
v 0.47628355 1.54723382 -1.47795653
v 1.10364068 0.955694377 -1.51776886
v 0.787387669 0.507216096 -1.90358353
v 0.863690138 1.70763314 -1.22181118
v -0.0654592887 1.39963591 -1.56703269
v 0.177492678 1.45163321 -1.56275201
v 0.14904663 1.56393969 -1.22754359
v 0.321433723 1.73800993 -0.853519559
v -0.698783219 1.24909043 -1.08541715
v -0.0519543439 1.65656292 -0.461690366
v 0.521210909 1.82220268 -0.44520843
v -0.449359119 1.41203213 -0.778305054
v -0.439358205 1.80903411 0.136821598
v 0.58069396 1.88794947 -0.238961175
v -1.04355311 1.23408198 -0.497957438
v 0.930288076 1.82231081 -0.698041379
v -1.01850188 1.21602583 -0.897691607
v -1.32700777 0.836364806 -0.697583616
v -1.03434229 1.12945867 -1.13274348
v -1.29713595 1.3739599 -0.120216981
v 0.949284673 1.75069237 -0.899065256
v 1.04113948 1.67928207 -0.787571371
v 0.961497784 1.77752626 -0.454983205
v -1.27247643 0.596274078 -1.17380464
v 0.983883023 1.07131958 -1.08998132
v -0.170631707 1.90105283 0.224416807
v 0.702403545 1.8400408 0.0828945935
v 1.11588192 1.83114076 -0.0870721415
v -0.176412046 1.89791226 0.393198848
v 1.0683533 1.79526579 -0.460699767
v 0.783133507 1.83875406 0.183720082
v 0.974259615 0.840825915 -1.2316668
v 1.25637627 1.25242257 -0.820307016
v 1.23285091 1.68212903 -0.263022453
v 0.908416092 0.676681519 -1.5444845
v 0.982291222 0.588499427 -1.50172091
v 0.902782559 0.348284662 -1.70300186
v 1.09503603 0.205932304 -1.15783656
v 1.13229251 0.597588003 -1.38023186
v 1.19489741 0.275742024 -1.09697175
v 1.05036807 0.737476766 -1.00958407
v 1.02640259 0.912946045 -0.832669675
v 1.28787899 1.31816947 -0.407453001
v 1.20182192 0.621669829 -1.19704735
v 1.39644647 0.942247748 -0.85037291
v 1.30332947 0.463567644 -1.08705103
v 1.38959837 0.458018869 -0.85373503
v 1.32099175 0.527862787 -1.00444639
v 1.6237042 0.854055285 -0.786662579
v 1.22864747 1.49663174 -0.167459413
v 1.77246392 1.66755641 0.222139895
v 1.17189872 1.62610805 0.0365060419
v 1.15009642 1.84529293 0.672851264
v 1.54610527 1.23909569 -0.45640409
v 0.829711914 1.76841033 0.258345932
v 0.166296378 1.88467681 0.600468099
v -0.54831177 1.85449791 0.545895994
v 1.74843264 1.13832545 -0.408200979
v -0.379432052 1.99120939 0.829209864
v -0.409285873 1.8134706 0.340041816
v -0.671639085 1.82929468 0.419709146
v 1.63963807 0.793715179 -0.775285959
v 1.75871217 1.08051896 -0.373099357
v 1.6314379 0.968782961 -0.247675776
v 1.88255 1.43483365 -0.0272207633
v 1.90215206 1.35733736 -0.00262817368
v 1.86858392 1.4703145 0.232938528
v 1.83910513 1.41826844 0.26900816
v 1.83182859 1.57460976 0.287474066
v 1.2995739 1.77117491 0.580420494
v 1.76274896 1.77304149 0.489302665
v 1.9989599 1.72136652 0.390413821
v 2.08179569 1.55679619 0.568525076
v 1.78983092 1.71324646 0.617793262
v 1.56044126 1.8020488 0.572533846
v 1.55307925 1.72186065 0.721947312
v 1.29443359 1.69374382 0.778070331
v 1.12827635 1.68712258 0.864152193
v 0.0313330069 1.62779295 0.997496307
v -0.588222027 1.93549621 0.939786971
v -0.665052474 1.56713068 1.0834527
v -0.601103187 1.92202699 0.686179161
v -1.09384882 1.58104861 1.08554447
v -0.872772217 1.48509371 1.08156192
v -1.04526401 1.80265474 0.976052821
v -1.32211757 1.55466902 1.02327263
v -1.21898127 1.63699305 0.702597618
v -1.25727022 1.24353135 0.866911292
v -1.0552026 1.72209382 0.659178734
v -1.46002042 1.31997836 0.831157804
v -1.56791747 1.07285583 0.542061746
v -1.54257929 1.06189477 0.213466793
v -0.969231546 1.5445745 0.420881957
v -1.4310962 1.23792243 0.082611084
v -1.32490718 1.20737934 0.225058898
v -1.45081389 0.912900686 -0.00582580548
v -1.44927156 0.915419161 -0.0090164179
v -0.704343855 1.84350622 0.273829639
v -1.51376307 1.08675551 -0.162265018
v -1.49591982 0.75601989 -0.154554442
v -1.6360662 0.578091025 -0.634438455
v -1.5047369 0.318216085 -0.638549805
v -1.04650021 0.156599805 -0.978762209
v -1.38974082 0.343809128 -1.09298921
v -1.20169556 0.178776622 -1.02215481
v -1.07625854 0.127483979 -1.48261595
v -0.857152998 0.0666247532 -1.57070673
v -1.19042754 0.191248164 -1.51295042
v -1.22038054 0.261577129 -1.5211581
v -1.14104521 0.30484879 -1.65485132
v -1.10510218 0.224755466 -1.65477133
v -0.962313235 0.18569167 -1.60800982
vn 0.801913917 0.584939539 -0.121572413
vn 0.338148266 0.803099871 0.490597904
vn 0.733681977 0.637064636 0.236345932
vn 0.440923184 0.89553231 -0.0600718074
vn 0.80394429 0.0570849478 -0.591958523
vn 0.112921685 0.875703216 -0.469459921
vn 0.0142664146 0.996292233 0.0848435983
vn -0.177334577 0.910174549 -0.374345958
vn -0.121416673 0.943623245 -0.30794996
vn -0.224935621 0.974129021 -0.0218324549
vn 0.045326788 0.936507404 0.347705603
vn -0.204976305 0.792378128 0.574562073
vn -0.0960662067 0.975984037 0.195516065
vn 0.0710408166 0.565948427 0.821374238
vn -0.121123962 0.763632596 0.634187818
vn -0.141056702 0.813473344 0.564237595
vn -0.0597975254 0.868581474 0.491925299
vn -0.100512214 0.783611774 0.613065839
vn -0.256030381 0.902523339 0.346265674
vn -0.0287068374 0.776437461 0.629540086
vn -0.667332649 0.572180688 0.476735234
vn 0.0737082809 -0.58414346 0.80829668
vn -0.73666513 0.532860994 0.416393578
vn -0.887475908 0.460481077 0.0185410157
vn 0.0471845046 0.737730145 0.673444748
vn -0.0268076379 0.809217632 0.586897075
vn 0.145466253 0.304271936 0.941412866
vn -0.218566611 0.712008536 0.667287469
vn 0.291394681 0.0280150399 0.956192613
vn 0.844989836 -0.331127852 0.419936329
vn 0.733681977 0.637064636 0.236345932
vn 0.801913917 0.584939539 -0.121572413
vn 0.582483351 -0.48453635 0.652638972
vn 0.49804014 0.127821535 0.857681513
vn 0.958767653 -0.166072994 -0.230617508
vn 0.80394429 0.0570849478 -0.591958523
vn 0.862671494 -0.277312905 0.422960341
vn 0.787400842 -0.552659154 0.273071051
vn 0.918604612 -0.153434351 -0.3641752
vn 0.884950221 0.117038287 0.45073843
vn 0.934274733 -0.159729987 0.318774492
vn 0.980722249 0.172136679 -0.0924810097
vn 0.994175136 -0.0761058033 0.0763139129
vn 0.691474557 0.397950739 0.602907896
vn 0.361896336 0.542473078 0.758125305
vn 0.956208646 -0.0229108594 -0.291787714
vn 0.818148315 0.181889698 -0.545480847
vn 0.896855712 -0.441884756 0.0196908042
vn 0.930821478 -0.205017403 -0.302554637
vn 0.962417841 0.249674052 0.106839962
vn 0.468560278 0.486234218 0.737582207
vn 0.992555797 -0.070233725 -0.0994995087
vn 0.924762845 -0.107502066 -0.3650437
vn 0.541106701 0.616221011 -0.572254479
vn 0.669284403 0.63659209 -0.383156449
vn 0.880456924 -0.474125326 0.000869784795
vn 0.897688568 0.0695403144 -0.435108513
vn 0.880791128 -0.367263764 -0.298871785
vn 0.89680779 -0.107497998 -0.429162145
vn 0.758129239 -0.503511786 -0.414386392
vn 0.49039188 -0.780677021 -0.387374669
vn 0.523611188 -0.798923433 -0.295892984
vn 0.470832348 -0.870594323 -0.142767161
vn 0.848821819 -0.461348683 -0.258184016
vn 0.629001379 -0.777237535 0.0161005817
vn 0.86854291 -0.494637609 0.0310961418
vn 0.769089878 -0.587390959 0.251937836
vn 0.438596249 -0.867349684 0.235240072
vn 0.902874112 -0.422934324 0.0771028623
vn 0.597355843 -0.682274103 0.421506822
vn 0.248410553 -0.825695932 0.506476581
vn 0.318497628 0.208392337 0.9247334
vn 0.0811394155 -0.644615233 0.760189116
vn 0.735657692 -0.600456655 0.313463867
vn 0.57073015 -0.668906569 0.476267934
vn 0.769422829 -0.625204206 0.13079837
vn 0.803299904 -0.54870218 -0.231592834
vn 0.654708683 -0.741134763 -0.148579255
vn 0.763420761 -0.633675337 0.125076577
vn 0.27555871 -0.293407351 0.915412247
vn 0.342847973 -0.441684395 0.829077899
vn 0.407299638 -0.323285103 0.854162633
vn 0.376996219 -0.0906891227 0.921764255
vn 0.366143614 -0.241956368 0.898552179
vn 0.409794122 -0.276278108 0.869332552
vn 0.426693082 -0.198360756 0.88237524
vn 0.0447254628 -0.359245241 0.932170808
vn 0.218650728 0.0752019584 0.972901106
vn 0.0969932601 0.360616505 0.927657247
vn -0.124739118 0.511753261 0.850028634
vn 0.16546911 0.00261276239 0.986211419
vn 0.137965739 -0.157051638 0.977906048
vn -0.103703924 0.51613766 0.850204289
vn -0.129596561 0.184561104 0.97423923
vn 0.153298691 -0.427064925 0.891131341
vn -0.295723736 0.464343041 0.834825099
vn 0.0500640795 0.284795612 0.957280099
vn 0.0743008256 -0.136499077 0.987849891
vn -0.00343983853 0.588732779 0.808320343
vn -0.82715106 0.237390488 0.50937891
vn -0.648849487 0.288083255 0.704274356
vn -0.851610422 -0.12388324 0.509325624
vn -0.916469872 0.0628511459 0.395136535
vn -0.957249701 -0.247627109 -0.149511904
vn -0.869448364 -0.115677111 0.480289787
vn -0.564962804 -0.648144841 0.510612667
vn 0.0376534723 -0.179418117 0.983052015
vn -0.186050132 -0.638806045 0.746533513
vn -0.891866863 0.0711854622 -0.446661174
vn -0.824885607 0.476499498 -0.304157913
vn -0.826516926 0.342583954 -0.446660966
vn -0.977784514 0.128762081 0.16540198
vn -0.927556038 -0.361716479 0.0938134566
vn -0.866452098 -0.450008571 -0.216224641
vn -0.559571922 -0.693978667 0.453070581
vn -0.443894118 -0.617027402 0.649796247
vn -0.332743585 -0.187048122 0.924280584
vn -0.176074088 -0.624909818 0.760582447
vn -0.630134642 -0.33021602 0.702771485
vn -0.577861547 0.146633968 0.802854002
vn -0.673510015 -0.595090687 0.43846488
vn -0.589834273 -0.182708904 0.786583126
vn -0.663992286 -0.37855199 0.644835293
vn -0.412134349 -0.292071968 0.863040686
vn -0.592760742 -0.547916412 0.590273082
vn -0.493937612 -0.822544813 0.281861097
vn -0.609191835 -0.414954036 0.67579478
vn -0.475373626 -0.515216172 0.713142455
vn -0.611705244 -0.535380483 0.582395434
vn -0.797850847 -0.596087515 0.0900758505
vn -0.457573682 -0.884843647 0.0876245126
vn -0.826909542 -0.556171417 -0.0830299258
vn -0.6822142 -0.0901143029 0.725577831
vn -0.711856544 -0.66010958 -0.239824057
vn -0.876675129 -0.44442907 -0.184183583
vn -0.822795808 -0.0865432993 0.561709285
vn -0.735726476 0.627652347 0.254478306
vn -0.932763994 -0.153732613 0.326063722
vn -0.904374421 0.126605928 0.407526433
vn -0.942388475 0.247125313 0.225461602
vn -0.966640413 -0.24431558 0.0769165456
vn -0.622922659 -0.747571528 -0.230443433
vn -0.63920331 -0.768248618 0.0348305665
vn -0.927556038 -0.361716479 0.0938134566
vn -0.749634624 -0.661466837 -0.0225695707
vn -0.866452098 -0.450008571 -0.216224641
vn -0.876675129 -0.44442907 -0.184183583
vn -0.564797759 -0.819665134 -0.0956688747
vn -0.520329952 -0.852525353 0.04957119
vn -0.826909542 -0.556171417 -0.0830299258
vn -0.457573682 -0.884843647 0.0876245126
vn -0.470960081 -0.86432451 -0.176464662
vn -0.727483988 -0.567259312 -0.385984361
vn -0.524399519 -0.695685089 -0.490945339
vn -0.450196266 -0.576795757 -0.681637764
vn -0.176445425 -0.895679176 -0.408198267
vn -0.391266823 -0.6143381 -0.685199857
vn -0.0636251494 -0.983359218 -0.170166075
vn 0.298368365 -0.908729851 -0.291867197
vn -0.102333762 -0.807977319 -0.580258965
vn 0.213962182 -0.672560573 -0.708436608
vn -0.165335417 -0.983821154 0.0689932853
vn -0.027882399 -0.980054855 0.196761265
vn 0.162937418 -0.909970224 0.381320745
vn -0.18684794 -0.916715026 0.353159219
vn -0.493937612 -0.822544813 0.281861097
vn -0.673510015 -0.595090687 0.43846488
vn -0.176074088 -0.624909818 0.760582447
vn 0.0811394155 -0.644615233 0.760189116
vn 0.248410553 -0.825695932 0.506476581
vn 0.438596249 -0.867349684 0.235240072
vn 0.280693173 -0.950936258 -0.130120963
vn 0.385798901 -0.916364431 -0.106937021
vn 0.168228731 -0.979579926 0.110101603
vn 0.185181066 -0.963211834 0.194758713
vn 0.406924248 -0.912523925 -0.0413839519
vn 0.629001379 -0.777237535 0.0161005817
vn 0.470832348 -0.870594323 -0.142767161
vn 0.49039188 -0.780677021 -0.387374669
vn 0.523611188 -0.798923433 -0.295892984
vn 0.665050149 -0.591179013 -0.456306607
vn 0.518346906 -0.60487175 -0.604521871
vn 0.695334196 -0.519491494 -0.49662748
vn 0.510609567 -0.736895621 -0.443015516
vn 0.695334196 -0.519491494 -0.49662748
vn 0.50895673 -0.596584976 -0.620523572
vn 0.925097466 -0.220552862 -0.309113622
vn 0.510609567 -0.736895621 -0.443015516
vn 0.360274374 -0.929176152 -0.0826687217
vn 0.213962182 -0.672560573 -0.708436608
vn 0.663823903 0.426180273 -0.614579678
vn 0.580138743 0.0822310224 -0.8103562
vn 0.000407940854 -0.627081454 -0.778953612
vn 0.341941893 0.134694099 -0.930017889
vn -0.338389039 -0.731063128 -0.592485845
vn -0.391266823 -0.6143381 -0.685199857
vn -0.671390653 -0.403390527 -0.62169975
vn -0.450196266 -0.576795757 -0.681637764
vn -0.444965482 0.0220954958 -0.895275056
vn 0.0345052592 0.256257206 -0.96599257
vn 0.2905536 0.440190226 -0.849594772
vn 0.463651448 0.593245268 -0.658093691
vn -0.0873260051 0.386466563 -0.918159962
vn -0.435796112 0.437463611 -0.78657943
vn -0.0161874816 0.639769256 -0.768396556
vn 0.58629632 0.578017771 -0.567584515
vn 0.325268388 0.75939846 -0.563484132
vn -0.181139633 0.840091527 -0.511306822
vn -0.450881034 0.725956738 -0.519319832
vn -0.645175815 0.676691175 -0.354735553
vn -0.715828001 0.397084653 -0.574381471
vn -0.85400641 0.127623886 -0.5043661
vn 0.81267792 0.441635042 -0.380148858
vn 0.323307425 0.774142861 -0.544219792
vn -0.0123376828 0.946977615 -0.321062624
vn -0.161021441 0.941701293 -0.295416266
vn 0.998474658 -0.0229503363 -0.0502155721
vn 0.695334196 -0.519491494 -0.49662748
vn 0.227969691 0.906088114 -0.356418669
vn -0.387077808 0.899782002 -0.201403052
vn -0.236537322 0.954658926 -0.18076624
vn -0.328126729 0.91198355 -0.246208966
vn -0.229074612 0.952553809 -0.200414553
vn -0.354881614 0.898505688 -0.258353442
vn -0.271325409 0.912075281 -0.307410419
vn -0.183023736 0.966960311 -0.177454144
vn -0.367823422 0.888854027 -0.27321136
vn -0.271171361 0.879269838 -0.391600251
vn -0.000537568587 0.994160056 -0.107914701
vn -0.438030422 0.813331723 -0.382910907
vn 0.0866118819 0.985472739 -0.146088421
vn -0.546778023 0.824800849 -0.144004852
vn -0.705567896 0.58579433 -0.398771703
vn -0.697789729 0.631284177 -0.338481724
vn -0.492310375 0.792953253 -0.358964562
vn 0.75482285 0.587487161 -0.291721314
vn 0.993949056 0.050331939 0.0976312906
vn 0.29621613 0.944604039 -0.141348079
vn -0.83251369 0.395641834 -0.387799352
vn 0.996701896 0.0332355052 -0.074031651
vn -0.102146842 0.982152998 -0.157928959
vn 0.0873043239 0.995796323 0.0277061798
vn 0.378534406 0.919715762 0.104089037
vn -0.0291188117 0.998907685 0.0365471467
vn 0.45533663 0.720463812 -0.523068309
vn 0.197189018 0.96126467 0.192579389
vn 0.989258945 -0.143701017 -0.0267730467
vn 0.820353866 0.186619863 -0.540548444
vn 0.886851132 0.447061479 -0.116751656
vn 0.941018403 -0.313701302 -0.12679036
vn 0.882224143 0.133162647 -0.451606452
vn 0.665050149 -0.591179013 -0.456306607
vn 0.523611188 -0.798923433 -0.295892984
vn 0.704143584 0.26018858 -0.660669208
vn 0.758129239 -0.503511786 -0.414386392
vn 0.350940406 0.746987164 -0.564669073
vn 0.78331089 0.140742898 -0.605487764
vn 0.559322596 0.649701774 -0.514826059
vn 0.672052979 0.434768289 -0.599434018
vn 0.174492925 0.641809225 -0.746748328
vn 0.783090591 -0.24934724 -0.569732487
vn 0.880791128 -0.367263764 -0.298871785
vn 0.81163305 -0.00546903303 -0.584142089
vn 0.531843722 0.405891627 -0.743232369
vn 0.422347784 0.796569109 -0.43255049
vn 0.246795088 0.925353527 -0.287772775
vn 0.242854401 0.936360657 -0.25347653
vn 0.129181102 0.986386895 0.101750404
vn 0.284362942 0.745115399 -0.603275061
vn 0.175228372 0.977288902 -0.119170405
vn 0.0527417101 0.980130315 -0.191213965
vn -0.167324692 0.918326437 -0.358718395
vn 0.582561076 0.569750369 -0.579661191
vn 0.0894869864 0.937930346 0.335080355
vn -0.172522068 0.975035965 -0.139788732
vn -0.49479109 0.83508569 0.240444615
vn 0.828081965 -0.558934987 0.0432639308
vn 0.840503454 -0.530546367 0.109883152
vn 0.880456924 -0.474125326 0.000869784795
vn 0.456340283 0.684129536 -0.568964303
vn 0.81375581 -0.531443775 0.235306442
vn 0.978549182 -0.116721056 0.16975823
vn 0.924762845 -0.107502066 -0.3650437
vn 0.541106701 0.616221011 -0.572254479
vn 0.327775538 0.889771581 0.317599922
vn 0.0221559405 0.888570726 -0.458204329
vn 0.669284403 0.63659209 -0.383156449
vn 0.80394429 0.0570849478 -0.591958523
vn 0.112921685 0.875703216 -0.469459921
vn 0.0248809811 0.990249217 0.137067094
vn -0.177334577 0.910174549 -0.374345958
vn -0.121416673 0.943623245 -0.30794996
vn 0.045326788 0.936507404 0.347705603
vn 0.0710408166 0.565948427 0.821374238
vn -0.0202358235 0.670227885 0.741879344
vn -0.121123962 0.763632596 0.634187818
vn -0.275659919 0.922211647 -0.271177441
vn -0.129490525 0.242403701 0.961494982
vn 0.0737082809 -0.58414346 0.80829668
vn -0.385054886 0.857335091 0.341627389
vn -0.731556237 0.192124978 0.654151082
vn -0.640772879 0.706169546 -0.301221788
vn -0.667332649 0.572180688 0.476735234
vn -0.405692697 0.803157568 -0.436292827
vn -0.944405138 0.195861265 0.26407823
vn -0.887475908 0.460481077 0.0185410157
vn -0.824885607 0.476499498 -0.304157913
vn -0.557212472 0.79264462 -0.247444361
vn -0.813712776 0.530607402 0.237333789
vn -0.657171786 0.713922262 -0.24174419
vn -0.826516926 0.342583954 -0.446660966
vn -0.977784514 0.128762081 0.16540198
vn -0.38961941 0.878219068 -0.277358651
vn -0.855004847 0.45251587 -0.253369391
vn -0.927556038 -0.361716479 0.0938134566
vn -0.96158874 0.182158485 -0.205341995
vn -0.225445926 -0.832632482 0.505862892
vn -0.749634624 -0.661466837 -0.0225695707
vn -0.889984369 -0.259219885 -0.375143766
vn -0.434265167 -0.900755703 0.00728206802
vn -0.31137228 -0.948906183 -0.0512278825
vn -0.727483988 -0.567259312 -0.385984361
vn -0.631544352 -0.755729198 -0.17327711
vn -0.904808879 0.108222201 -0.411835998
vn -0.835430622 0.241621032 -0.493634492
vn -0.315100014 -0.581311643 -0.750192463
vn -0.221775636 -0.713570058 -0.664555073
vt 0.30177784 0.217384785
vt 0.305482507 0.169352025
vt 0.290127277 0.186768383
vt 0.319644451 0.207576364
vt 0.307613134 0.231470436
vt 0.3276757 0.223397881
vt 0.332174897 0.195336789
vt 0.343151927 0.2155011
vt 0.359720826 0.207732767
vt 0.363909841 0.188175291
vt 0.36924088 0.200018853
vt 0.329984069 0.179311842
vt 0.434342146 0.169623584
vt 0.443118691 0.170850128
vt 0.489673615 0.150697321
vt 0.361416578 0.171250254
vt 0.431408167 0.152609676
vt 0.355670214 0.150877565
vt 0.486906528 0.131108731
vt 0.429309249 0.127497524
vt 0.538444936 0.132307738
vt 0.506088614 0.15012446
vt 0.510631919 0.10409262
vt 0.574433625 0.127106696
vt 0.339415431 0.130636066
vt 0.430798531 0.108848177
vt 0.322760105 0.149500281
vt 0.480627179 0.105725668
vt 0.307806253 0.164857239
vt 0.270313025 0.165043324
vt 0.270169258 0.169730991
vt 0.229988828 0.186379164
vt 0.284045577 0.156780452
vt 0.306999803 0.142922133
vt 0.239064828 0.158893555
vt 0.214590624 0.173258871
vt 0.263787746 0.136786789
vt 0.250950575 0.147807211
vt 0.232078567 0.141936153
vt 0.288792849 0.146275789
vt 0.247995749 0.132219523
vt 0.276463389 0.126509398
vt 0.260805488 0.117381774
vt 0.292732 0.13844654
vt 0.314151645 0.128776699
vt 0.229529992 0.129712015
vt 0.21369566 0.140161842
vt 0.240725771 0.121998928
vt 0.164612517 0.0763117895
vt 0.289439201 0.120703302
vt 0.29886508 0.129397601
vt 0.283221841 0.109511696
vt 0.180535838 0.156381696
vt 0.179770932 0.170717627
vt 0.19534637 0.186715096
vt 0.133020326 0.111434363
vt 0.135497823 0.100886308
vt 0.0735487193 0.0515725277
vt 0.111533418 0.0509608649
vt 0.0474216193 0.0256189946
vt 0.0778282732 0.0101214293
vt 0.0396530777 0.0138464216
vt 0.108921215 0.00853272714
vt 0.129979208 0.0440354012
vt 0.224375978 0.0399318002
vt 0.227499321 0.0533840321
vt 0.275948644 0.0420486592
vt 0.283156633 0.0238574389
vt 0.25592041 0.105435334
vt 0.31280005 0.0420854948
vt 0.330576539 0.0364290141
vt 0.330671906 0.042859938
vt 0.411175013 0.0253195409
vt 0.301630378 0.0571272038
vt 0.28762579 0.0685004219
vt 0.271687984 0.0842121467
vt 0.273937225 0.0856944546
vt 0.28267622 0.0834418163
vt 0.28292954 0.0993859395
vt 0.287077904 0.107984923
vt 0.299794316 0.0869197473
vt 0.338456154 0.080476068
vt 0.339535356 0.054316964
vt 0.293233514 0.119309507
vt 0.312773347 0.117765032
vt 0.327284455 0.110960625
vt 0.41242826 0.0302444343
vt 0.346911192 0.11596211
vt 0.372797847 0.103050672
vt 0.43038702 0.0953200683
vt 0.378841519 0.0797474012
vt 0.383369446 0.0761999711
vt 0.455573201 0.100643955
vt 0.435067296 0.0859653577
vt 0.385663629 0.057147827
vt 0.48234427 0.0971512422
vt 0.437159896 0.0791113004
vt 0.444615841 0.0600442551
vt 0.47668004 0.0732241496
vt 0.502652764 0.0931330547
vt 0.481739402 0.073652111
vt 0.500035167 0.073033534
vt 0.565104425 0.108685516
vt 0.607394278 0.0890243873
vt 0.570005953 0.0903257951
vt 0.477102757 0.0658390149
vt 0.470934391 0.0644901618
vt 0.45985198 0.0402609967
vt 0.619190514 0.104013048
vt 0.602450192 0.136364371
vt 0.628360569 0.132280082
vt 0.630071223 0.133137494
vt 0.646973431 0.11847242
vt 0.668093264 0.074013792
vt 0.497372866 0.0468879603
vt 0.520019293 0.05388638
vt 0.469836354 0.0231934432
vt 0.476695538 0.00219258154
vt 0.491653562 0.0327776931
vt 0.480576515 0.0120917205
vt 0.527668953 0.0106458906
vt 0.506609559 0.0323484801
vt 0.528518796 0.0235467795
vt 0.512411237 0.040883448
vt 0.543043435 0.0268517379
vt 0.558499277 0.0229653958
vt 0.531153619 0.0408491753
vt 0.539480388 0.0452670716
vt 0.551677048 0.0540356301
vt 0.565242946 0.0589143895
vt 0.581321061 0.0195090417
vt 0.607130349 0.0300892238
vt 0.545634925 0.0616295002
vt 0.589323103 0.0492862724
vt 0.658066452 0.0493878983
vt 0.543917239 0.0677761659
vt 0.551163733 0.0753666982
vt 0.552055418 0.0694531426
vt 0.561859906 0.068898879
vt 0.563324034 0.074266158
vt 0.582978308 0.0732467994
vt 0.634026349 0.0660975203
vt 0.592595279 0.0618758462
vt 0.229939252 0.223321229
vt 0.204940945 0.323941559
vt 0.245875329 0.262331754
vt 0.261086822 0.275078982
vt 0.242788702 0.32551825
vt 0.291219085 0.279392123
vt 0.302967995 0.261156082
vt 0.327241033 0.257535726
vt 0.21983552 0.348062813
vt 0.180123359 0.363734037
vt 0.190559506 0.371145546
vt 0.155777335 0.386630684
vt 0.196524084 0.390651315
vt 0.156828254 0.433270484
vt 0.268825352 0.378722399
vt 0.227086306 0.439274162
vt 0.1888161 0.441955239
vt 0.163699806 0.463758618
vt 0.312573969 0.344320655
vt 0.384389371 0.302333564
vt 0.443606764 0.341031879
vt 0.401367038 0.270624489
vt 0.343434662 0.246144086
vt 0.369900316 0.249352902
vt 0.415318251 0.260850936
vt 0.457680047 0.311248749
vt 0.482910603 0.384764701
vt 0.453621954 0.415856332
vt 0.29615733 0.403569371
vt 0.326537997 0.431385309
vt 0.343504518 0.378381968
vt 0.413663507 0.386874199
vt 0.386249691 0.425269455
vt 0.427759618 0.460223109
vt 0.333093464 0.479079276
vt 0.309330314 0.479915172
vt 0.281989604 0.487685829
vt 0.236658424 0.496592611
vt 0.192860335 0.454866797
vt 0.214692503 0.503308058
vt 0.195785224 0.497812897
vt 0.530881941 0.459557712
vt 0.552733243 0.446852982
vt 0.542749882 0.425679445
vt 0.550399184 0.470617592
vt 0.572148621 0.474666536
vt 0.586337566 0.501060426
vt 0.565369725 0.437062204
vt 0.565101624 0.453440845
vt 0.592035472 0.489914954
vt 0.575693727 0.472219944
vt 0.623254359 0.507225513
vt 0.614903331 0.519171417
vt 0.66343987 0.506110311
vt 0.662037492 0.528537691
vt 0.628320158 0.499890864
vt 0.593764424 0.484146416
vt 0.585459173 0.449688792
vt 0.585793912 0.420849681
vt 0.610701561 0.471812606
vt 0.635904372 0.485009074
vt 0.610957801 0.457312644
vt 0.584484637 0.405066371
vt 0.601719618 0.406232595
vt 0.62776804 0.437769711
vt 0.649199903 0.47051698
vt 0.676027596 0.476620853
vt 0.665122092 0.492774606
vt 0.671573102 0.504870951
vt 0.583661735 0.388333976
vt 0.607854307 0.392146945
vt 0.620593667 0.40510416
vt 0.625706375 0.397825837
vt 0.557130039 0.378305435
vt 0.510623634 0.412769496
vt 0.6173895 0.366064489
vt 0.648936749 0.426045239
vt 0.637681484 0.415089548
vt 0.65330255 0.39838928
vt 0.661159277 0.369251907
vt 0.699776351 0.437542856
vt 0.699705541 0.369287014
vt 0.669131696 0.336966455
vt 0.703998387 0.408983469
vt 0.752374291 0.355839431
vt 0.675072372 0.319814146
vt 0.747245073 0.43224746
vt 0.635061979 0.33464402
vt 0.72314626 0.446203649
vt 0.750482619 0.469317138
vt 0.711938262 0.457649529
vt 0.780615866 0.422813356
vt 0.624376178 0.344080448
vt 0.620648265 0.333025336
vt 0.638480365 0.313120067
vt 0.725249767 0.494071484
vt 0.56978935 0.343676805
vt 0.743063629 0.335289538
vt 0.684654891 0.29263705
vt 0.648500144 0.281705141
vt 0.753138721 0.327222526
vt 0.6336146 0.305757046
vt 0.685191035 0.28072232
vt 0.547342122 0.350897193
vt 0.584367037 0.314175904
vt 0.628361404 0.284032047
vt 0.526784062 0.377702594
vt 0.51678288 0.369542837
vt 0.495183617 0.39246434
vt 0.474163562 0.339265406
vt 0.514591038 0.351015568
vt 0.480848044 0.327948391
vt 0.539948165 0.329394519
vt 0.554748714 0.318973124
vt 0.592798054 0.280238807
vt 0.516196191 0.331896961
vt 0.54164958 0.293368578
vt 0.49965176 0.318621933
vt 0.49433884 0.294199347
vt 0.504776597 0.310007036
vt 0.531463683 0.275928557
vt 0.620954037 0.267940819
vt 0.625290453 0.201046124
vt 0.645193636 0.260031283
vt 0.699091613 0.222668245
vt 0.572680712 0.261281788
vt 0.686077654 0.269961655
vt 0.747095108 0.295063972
vt 0.780804753 0.342909813
vt 0.558152914 0.24301888
vt 0.790658057 0.318359613
vt 0.76205951 0.344598949
vt 0.778755128 0.35518831
vt 0.527810633 0.275967538
vt 0.551310182 0.236812666
vt 0.533830345 0.221857682
vt 0.59302187 0.210723594
vt 0.587866724 0.207509831
vt 0.605810821 0.188148871
vt 0.601729691 0.181398287
vt 0.621772408 0.188469484
vt 0.683297336 0.212433651
vt 0.649709642 0.177862719
vt 0.627022088 0.163554862
vt 0.638227761 0.139612094
vt 0.659556091 0.166672185
vt 0.667680502 0.190742269
vt 0.682045221 0.181760505
vt 0.701507509 0.200673059
vt 0.717492402 0.208833233
vt 0.793827593 0.27115953
vt 0.804884374 0.326487243
vt 0.834130406 0.317157686
vt 0.791675866 0.337495029
vt 0.840759933 0.348302782
vt 0.848257959 0.333898067
vt 0.824613392 0.348951399
vt 0.839099944 0.362344205
vt 0.821352363 0.369553983
vt 0.860336006 0.370502114
vt 0.811414301 0.36368686
vt 0.846197128 0.380095303
vt 0.848786652 0.411301553
vt 0.829181731 0.431224287
vt 0.796089351 0.37905848
vt 0.801033795 0.426521361
vt 0.811762094 0.416836798
vt 0.812525213 0.453351796
vt 0.811594069 0.456934154
vt 0.772307456 0.362448156
vt 0.791238546 0.449569285
vt 0.80148989 0.479190052
vt 0.765273869 0.490089834
vt 0.764032185 0.504751444
vt 0.748788655 0.541197717
vt 0.737007976 0.510187507
vt 0.743138134 0.52823025
vt 0.705920935 0.534982324
vt 0.692395508 0.550774932
vt 0.706685722 0.526165724
vt 0.706668973 0.52131176
vt 0.696515143 0.520353794
vt 0.696542203 0.526004195
vt 0.692062974 0.536084056
g submesh0
f 1/1/1 2/2/2 3/3/3
f 2/2/2 1/1/1 4/4/4
f 5/5/5 4/4/4 1/1/1
f 4/4/4 5/5/5 6/6/6
f 6/6/6 7/7/7 4/4/4
f 7/7/7 2/2/2 4/4/4
f 7/7/7 6/6/6 8/8/8
f 9/9/9 7/7/7 8/8/8
f 7/7/7 9/9/9 10/10/10
f 9/9/9 11/11/11 10/10/10
f 12/12/12 2/2/2 7/7/7
f 10/10/10 12/12/12 7/7/7
f 11/11/11 13/13/13 10/10/10
f 13/13/13 11/11/11 14/14/14
f 14/14/14 15/15/15 13/13/13
f 12/12/12 10/10/10 16/16/16
f 13/13/13 16/16/16 10/10/10
f 16/16/16 2/2/2 12/12/12
f 16/16/16 13/13/13 17/17/17
f 15/15/15 17/17/17 13/13/13
f 2/2/2 16/16/16 18/18/18
f 17/17/17 18/18/18 16/16/16
f 17/17/17 15/15/15 19/19/19
f 18/18/18 17/17/17 20/20/20
f 19/19/19 20/20/20 17/17/17
f 15/15/15 21/21/21 19/19/19
f 21/21/21 15/15/15 22/22/22
f 23/23/23 19/19/19 21/21/21
f 24/24/24 23/23/23 21/21/21
f 20/20/20 25/25/25 18/18/18
f 25/25/25 20/20/20 26/26/26
f 27/27/27 18/18/18 25/25/25
f 20/20/20 19/19/19 28/28/28
f 19/19/19 23/23/23 28/28/28
f 28/28/28 26/26/26 20/20/20
f 18/18/18 29/29/29 2/2/2
f 18/18/18 27/27/27 29/29/29
f 30/30/30 2/2/2 29/29/29
f 2/2/2 30/30/30 31/31/31
f 30/30/30 32/32/32 31/31/31
f 27/27/27 33/33/33 29/29/29
f 33/33/33 30/30/30 29/29/29
f 25/25/25 34/34/34 27/27/27
f 33/33/33 27/27/27 34/34/34
f 32/32/32 30/30/30 35/35/35
f 35/35/35 36/36/36 32/32/32
f 37/37/37 30/30/30 33/33/33
f 35/35/35 30/30/30 38/38/38
f 30/30/30 37/37/37 38/38/38
f 39/39/39 35/35/35 38/38/38
f 35/35/35 39/39/39 36/36/36
f 34/34/34 40/40/40 33/33/33
f 40/40/40 37/37/37 33/33/33
f 38/38/38 37/37/37 41/41/41
f 39/39/39 38/38/38 41/41/41
f 37/37/37 40/40/40 42/42/42
f 42/42/42 41/41/41 37/37/37
f 41/41/41 42/42/42 43/43/43
f 34/34/34 44/44/44 40/40/40
f 42/42/42 40/40/40 44/44/44
f 34/34/34 25/25/25 45/45/45
f 45/45/45 44/44/44 34/34/34
f 41/41/41 46/46/46 39/39/39
f 47/47/47 36/36/36 39/39/39
f 39/39/39 46/46/46 47/47/47
f 46/46/46 41/41/41 48/48/48
f 43/43/43 48/48/48 41/41/41
f 49/49/49 47/47/47 46/46/46
f 48/48/48 49/49/49 46/46/46
f 44/44/44 50/50/50 42/42/42
f 44/44/44 45/45/45 51/51/51
f 50/50/50 44/44/44 51/51/51
f 52/52/52 43/43/43 42/42/42
f 42/42/42 50/50/50 52/52/52
f 53/53/53 36/36/36 47/47/47
f 54/54/54 36/36/36 53/53/53
f 36/36/36 54/54/54 55/55/55
f 47/47/47 56/56/56 53/53/53
f 56/56/56 47/47/47 57/57/57
f 47/47/47 49/49/49 57/57/57
f 57/57/57 58/58/58 56/56/56
f 58/58/58 57/57/57 59/59/59
f 59/59/59 60/60/60 58/58/58
f 60/60/60 59/59/59 61/61/61
f 62/62/62 60/60/60 61/61/61
f 59/59/59 63/63/63 61/61/61
f 57/57/57 64/64/64 59/59/59
f 63/63/63 59/59/59 64/64/64
f 64/64/64 57/57/57 49/49/49
f 64/64/64 65/65/65 63/63/63
f 49/49/49 65/65/65 64/64/64
f 65/65/65 49/49/49 66/66/66
f 48/48/48 66/66/66 49/49/49
f 67/67/67 65/65/65 66/66/66
f 65/65/65 67/67/67 68/68/68
f 66/66/66 48/48/48 69/69/69
f 48/48/48 43/43/43 69/69/69
f 67/67/67 70/70/70 68/68/68
f 68/68/68 70/70/70 71/71/71
f 70/70/70 72/72/72 71/71/71
f 71/71/71 72/72/72 73/73/73
f 67/67/67 74/74/74 70/70/70
f 72/72/72 70/70/70 74/74/74
f 74/74/74 67/67/67 75/75/75
f 66/66/66 75/75/75 67/67/67
f 75/75/75 72/72/72 74/74/74
f 66/66/66 76/76/76 75/75/75
f 76/76/76 66/66/66 69/69/69
f 69/69/69 77/77/77 76/76/76
f 77/77/77 69/69/69 43/43/43
f 76/76/76 77/77/77 75/75/75
f 43/43/43 78/78/78 77/77/77
f 77/77/77 78/78/78 75/75/75
f 78/78/78 43/43/43 79/79/79
f 79/79/79 75/75/75 78/78/78
f 43/43/43 52/52/52 79/79/79
f 52/52/52 80/80/80 79/79/79
f 50/50/50 80/80/80 52/52/52
f 80/80/80 81/81/81 79/79/79
f 75/75/75 79/79/79 81/81/81
f 82/82/82 75/75/75 81/81/81
f 75/75/75 82/82/82 83/83/83
f 72/72/72 75/75/75 83/83/83
f 80/80/80 50/50/50 84/84/84
f 84/84/84 81/81/81 80/80/80
f 84/84/84 50/50/50 51/51/51
f 81/81/81 84/84/84 85/85/85
f 85/85/85 84/84/84 51/51/51
f 85/85/85 82/82/82 81/81/81
f 85/85/85 51/51/51 45/45/45
f 45/45/45 86/86/86 85/85/85
f 82/82/82 85/85/85 86/86/86
f 25/25/25 86/86/86 45/45/45
f 87/87/87 72/72/72 83/83/83
f 72/72/72 87/87/87 73/73/73
f 88/88/88 82/82/82 86/86/86
f 86/86/86 25/25/25 88/88/88
f 88/88/88 25/25/25 89/89/89
f 82/82/82 88/88/88 89/89/89
f 25/25/25 90/90/90 89/89/89
f 26/26/26 90/90/90 25/25/25
f 82/82/82 89/89/89 91/91/91
f 90/90/90 91/91/91 89/89/89
f 92/92/92 83/83/83 82/82/82
f 91/91/91 92/92/92 82/82/82
f 90/90/90 26/26/26 93/93/93
f 26/26/26 28/28/28 93/93/93
f 91/91/91 90/90/90 94/94/94
f 94/94/94 90/90/90 93/93/93
f 94/94/94 93/93/93 28/28/28
f 94/94/94 92/92/92 91/91/91
f 83/83/83 92/92/92 95/95/95
f 87/87/87 83/83/83 95/95/95
f 94/94/94 28/28/28 96/96/96
f 23/23/23 96/96/96 28/28/28
f 92/92/92 94/94/94 97/97/97
f 97/97/97 95/95/95 92/92/92
f 96/96/96 97/97/97 94/94/94
f 95/95/95 97/97/97 98/98/98
f 98/98/98 87/87/87 95/95/95
f 97/97/97 96/96/96 99/99/99
f 99/99/99 98/98/98 97/97/97
f 96/96/96 23/23/23 100/100/100
f 96/96/96 101/101/101 99/99/99
f 100/100/100 101/101/101 96/96/96
f 101/101/101 100/100/100 102/102/102
f 103/103/103 100/100/100 23/23/23
f 23/23/23 24/24/24 103/103/103
f 103/103/103 24/24/24 104/104/104
f 100/100/100 103/103/103 105/105/105
f 105/105/105 102/102/102 100/100/100
f 104/104/104 105/105/105 103/103/103
f 106/106/106 99/99/99 101/101/101
f 102/102/102 106/106/106 101/101/101
f 98/98/98 99/99/99 107/107/107
f 99/99/99 106/106/106 107/107/107
f 108/108/108 98/98/98 107/107/107
f 107/107/107 106/106/106 108/108/108
f 87/87/87 98/98/98 108/108/108
f 104/104/104 24/24/24 109/109/109
f 110/110/110 109/109/109 24/24/24
f 111/111/111 109/109/109 110/110/110
f 109/109/109 111/111/111 112/112/112
f 113/113/113 109/109/109 112/112/112
f 109/109/109 113/113/113 114/114/114
f 114/114/114 104/104/104 109/109/109
f 115/115/115 106/106/106 102/102/102
f 106/106/106 115/115/115 108/108/108
f 102/102/102 116/116/116 115/115/115
f 108/108/108 117/117/117 87/87/87
f 117/117/117 73/73/73 87/87/87
f 73/73/73 117/117/117 118/118/118
f 108/108/108 119/119/119 117/117/117
f 119/119/119 108/108/108 115/115/115
f 118/118/118 117/117/117 120/120/120
f 119/119/119 120/120/120 117/117/117
f 120/120/120 121/121/121 118/118/118
f 115/115/115 122/122/122 119/119/119
f 120/120/120 119/119/119 122/122/122
f 121/121/121 120/120/120 123/123/123
f 123/123/123 120/120/120 122/122/122
f 122/122/122 115/115/115 124/124/124
f 124/124/124 115/115/115 116/116/116
f 124/124/124 123/123/123 122/122/122
f 125/125/125 121/121/121 123/123/123
f 121/121/121 125/125/125 126/126/126
f 123/123/123 124/124/124 127/127/127
f 127/127/127 124/124/124 116/116/116
f 123/123/123 128/128/128 125/125/125
f 128/128/128 123/123/123 127/127/127
f 128/128/128 126/126/126 125/125/125
f 127/127/127 116/116/116 128/128/128
f 126/126/126 128/128/128 129/129/129
f 116/116/116 129/129/129 128/128/128
f 130/130/130 126/126/126 129/129/129
f 126/126/126 130/130/130 131/131/131
f 130/130/130 132/132/132 131/131/131
f 129/129/129 116/116/116 133/133/133
f 133/133/133 130/130/130 129/129/129
f 132/132/132 130/130/130 134/134/134
f 134/134/134 135/135/135 132/132/132
f 116/116/116 136/136/136 133/133/133
f 136/136/136 116/116/116 102/102/102
f 102/102/102 137/137/137 136/136/136
f 102/102/102 105/105/105 137/137/137
f 136/136/136 138/138/138 133/133/133
f 138/138/138 136/136/136 137/137/137
f 139/139/139 133/133/133 138/138/138
f 130/130/130 133/133/133 139/139/139
f 137/137/137 139/139/139 138/138/138
f 137/137/137 105/105/105 140/140/140
f 139/139/139 137/137/137 140/140/140
f 130/130/130 139/139/139 141/141/141
f 141/141/141 139/139/139 140/140/140
f 140/140/140 105/105/105 141/141/141
f 141/141/141 134/134/134 130/130/130
f 105/105/105 104/104/104 141/141/141
f 135/135/135 134/134/134 142/142/142
f 142/142/142 114/114/114 135/135/135
f 104/104/104 114/114/114 142/142/142
f 134/134/134 141/141/141 143/143/143
f 141/141/141 104/104/104 143/143/143
f 143/143/143 142/142/142 134/134/134
f 143/143/143 104/104/104 142/142/142
f 144/144/144 145/145/145 146/146/146
f 145/145/145 147/147/147 146/146/146
f 147/147/147 145/145/145 148/148/148
f 149/149/149 147/147/147 148/148/148
f 147/147/147 149/149/149 150/150/150
f 150/150/150 149/149/149 151/151/151
f 145/145/145 152/152/152 148/148/148
f 153/153/153 152/152/152 145/145/145
f 152/152/152 153/153/153 154/154/154
f 155/155/155 154/154/154 153/153/153
f 154/154/154 155/155/155 156/156/156
f 152/152/152 154/154/154 156/156/156
f 157/157/157 156/156/156 155/155/155
f 152/152/152 158/158/158 148/148/148
f 158/158/158 152/152/152 156/156/156
f 158/158/158 156/156/156 159/159/159
f 156/156/156 157/157/157 160/160/160
f 160/160/160 159/159/159 156/156/156
f 160/160/160 157/157/157 161/161/161
f 148/148/148 162/162/162 149/149/149
f 162/162/162 148/148/148 158/158/158
f 149/149/149 163/163/163 151/151/151
f 163/163/163 149/149/149 162/162/162
f 163/163/163 162/162/162 164/164/164
f 163/163/163 164/164/164 165/165/165
f 151/151/151 163/163/163 165/165/165
f 165/165/165 166/166/166 151/151/151
f 166/166/166 165/165/165 167/167/167
f 167/167/167 165/165/165 168/168/168
f 164/164/164 168/168/168 165/165/165
f 168/168/168 164/164/164 169/169/169
f 164/164/164 170/170/170 169/169/169
f 170/170/170 164/164/164 171/171/171
f 172/172/172 162/162/162 158/158/158
f 159/159/159 172/172/172 158/158/158
f 172/172/172 159/159/159 173/173/173
f 162/162/162 172/172/172 174/174/174
f 162/162/162 174/174/174 164/164/164
f 173/173/173 174/174/174 172/172/172
f 175/175/175 171/171/171 164/164/164
f 174/174/174 175/175/175 164/164/164
f 171/171/171 175/175/175 176/176/176
f 175/175/175 174/174/174 176/176/176
f 174/174/174 173/173/173 176/176/176
f 176/176/176 177/177/177 171/171/171
f 173/173/173 177/177/177 176/176/176
f 177/177/177 173/173/173 178/178/178
f 179/179/179 178/178/178 173/173/173
f 173/173/173 180/180/180 179/179/179
f 180/180/180 173/173/173 159/159/159
f 180/180/180 159/159/159 181/181/181
f 159/159/159 182/182/182 181/181/181
f 159/159/159 160/160/160 182/182/182
f 182/182/182 183/183/183 181/181/181
f 160/160/160 161/161/161 182/182/182
f 161/161/161 183/183/183 182/182/182
f 183/183/183 161/161/161 184/184/184
f 185/185/185 186/186/186 187/187/187
f 186/186/186 185/185/185 188/188/188
f 188/188/188 189/189/189 186/186/186
f 190/190/190 189/189/189 188/188/188
f 187/187/187 186/186/186 191/191/191
f 189/189/189 192/192/192 186/186/186
f 192/192/192 191/191/191 186/186/186
f 189/189/189 190/190/190 193/193/193
f 192/192/192 189/189/189 194/194/194
f 194/194/194 189/189/189 193/193/193
f 190/190/190 195/195/195 193/193/193
f 195/195/195 190/190/190 196/196/196
f 196/196/196 197/197/197 195/195/195
f 197/197/197 196/196/196 198/198/198
f 193/193/193 195/195/195 199/199/199
f 195/195/195 197/197/197 199/199/199
f 193/193/193 200/200/200 194/194/194
f 200/200/200 193/193/193 199/199/199
f 194/194/194 201/201/201 192/192/192
f 200/200/200 201/201/201 194/194/194
f 192/192/192 202/202/202 191/191/191
f 202/202/202 192/192/192 201/201/201
f 199/199/199 203/203/203 200/200/200
f 201/201/201 200/200/200 203/203/203
f 203/203/203 199/199/199 204/204/204
f 199/199/199 197/197/197 204/204/204
f 201/201/201 203/203/203 205/205/205
f 205/205/205 202/202/202 201/201/201
f 204/204/204 205/205/205 203/203/203
f 202/202/202 206/206/206 191/191/191
f 206/206/206 187/187/187 191/191/191
f 205/205/205 207/207/207 202/202/202
f 207/207/207 206/206/206 202/202/202
f 208/208/208 207/207/207 205/205/205
f 205/205/205 204/204/204 209/209/209
f 209/209/209 208/208/208 205/205/205
f 210/210/210 208/208/208 209/209/209
f 209/209/209 211/211/211 210/210/210
f 204/204/204 211/211/211 209/209/209
f 204/204/204 197/197/197 211/211/211
f 212/212/212 211/211/211 197/197/197
f 211/211/211 212/212/212 210/210/210
f 198/198/198 212/212/212 197/197/197
f 187/187/187 206/206/206 213/213/213
f 206/206/206 207/207/207 214/214/214
f 214/214/214 213/213/213 206/206/206
f 207/207/207 208/208/208 215/215/215
f 215/215/215 214/214/214 207/207/207
f 214/214/214 215/215/215 216/216/216
f 208/208/208 216/216/216 215/215/215
f 213/213/213 217/217/217 187/187/187
f 217/217/217 218/218/218 187/187/187
f 213/213/213 214/214/214 219/219/219
f 216/216/216 219/219/219 214/214/214
f 208/208/208 210/210/210 220/220/220
f 216/216/216 208/208/208 221/221/221
f 221/221/221 208/208/208 220/220/220
f 221/221/221 222/222/222 216/216/216
f 222/222/222 221/221/221 220/220/220
f 216/216/216 223/223/223 219/219/219
f 223/223/223 216/216/216 222/222/222
f 210/210/210 224/224/224 220/220/220
f 224/224/224 222/222/222 220/220/220
f 222/222/222 225/225/225 223/223/223
f 226/226/226 219/219/219 223/223/223
f 223/223/223 225/225/225 226/226/226
f 222/222/222 224/224/224 227/227/227
f 225/225/225 222/222/222 227/227/227
f 228/228/228 225/225/225 227/227/227
f 225/225/225 228/228/228 229/229/229
f 229/229/229 226/226/226 225/225/225
f 230/230/230 228/228/228 227/227/227
f 219/219/219 226/226/226 231/231/231
f 226/226/226 229/229/229 231/231/231
f 224/224/224 232/232/232 227/227/227
f 227/227/227 232/232/232 230/230/230
f 232/232/232 233/233/233 230/230/230
f 232/232/232 224/224/224 234/234/234
f 210/210/210 234/234/234 224/224/224
f 234/234/234 233/233/233 232/232/232
f 233/233/233 234/234/234 210/210/210
f 235/235/235 228/228/228 230/230/230
f 235/235/235 230/230/230 233/233/233
f 219/219/219 231/231/231 236/236/236
f 236/236/236 213/213/213 219/219/219
f 237/237/237 213/213/213 236/236/236
f 231/231/231 237/237/237 236/236/236
f 213/213/213 237/237/237 217/217/217
f 237/237/237 231/231/231 238/238/238
f 238/238/238 231/231/231 229/229/229
f 210/210/210 239/239/239 233/233/233
f 239/239/239 210/210/210 212/212/212
f 237/237/237 240/240/240 217/217/217
f 240/240/240 237/237/237 238/238/238
f 229/229/229 228/228/228 241/241/241
f 241/241/241 242/242/242 229/229/229
f 242/242/242 238/238/238 229/229/229
f 243/243/243 238/238/238 242/242/242
f 242/242/242 241/241/241 244/244/244
f 228/228/228 244/244/244 241/241/241
f 245/245/245 240/240/240 238/238/238
f 238/238/238 243/243/243 245/245/245
f 244/244/244 246/246/246 242/242/242
f 246/246/246 243/243/243 242/242/242
f 217/217/217 240/240/240 247/247/247
f 248/248/248 240/240/240 245/245/245
f 240/240/240 248/248/248 247/247/247
f 249/249/249 245/245/245 243/243/243
f 245/245/245 249/249/249 248/248/248
f 250/250/250 217/217/217 247/247/247
f 218/218/218 217/217/217 250/250/250
f 250/250/250 251/251/251 218/218/218
f 251/251/251 250/250/250 247/247/247
f 251/251/251 252/252/252 218/218/218
f 252/252/252 251/251/251 253/253/253
f 254/254/254 253/253/253 251/251/251
f 253/253/253 254/254/254 255/255/255
f 256/256/256 251/251/251 247/247/247
f 251/251/251 256/256/256 254/254/254
f 248/248/248 257/257/257 247/247/247
f 256/256/256 247/247/247 257/257/257
f 249/249/249 258/258/258 248/248/248
f 248/248/248 258/258/258 257/257/257
f 259/259/259 255/255/255 254/254/254
f 254/254/254 256/256/256 259/259/259
f 260/260/260 256/256/256 257/257/257
f 258/258/258 260/260/260 257/257/257
f 256/256/256 260/260/260 259/259/259
f 255/255/255 259/259/259 261/261/261
f 255/255/255 261/261/261 262/262/262
f 259/259/259 263/263/263 261/261/261
f 260/260/260 263/263/263 259/259/259
f 263/263/263 262/262/262 261/261/261
f 263/263/263 260/260/260 264/264/264
f 264/264/264 262/262/262 263/263/263
f 249/249/249 265/265/265 258/258/258
f 243/243/243 265/265/265 249/249/249
f 265/265/265 266/266/266 258/258/258
f 266/266/266 265/265/265 267/267/267
f 265/265/265 243/243/243 267/267/267
f 267/267/267 268/268/268 266/266/266
f 260/260/260 258/258/258 269/269/269
f 269/269/269 264/264/264 260/260/260
f 269/269/269 258/258/258 266/266/266
f 243/243/243 270/270/270 267/267/267
f 268/268/268 267/267/267 270/270/270
f 270/270/270 243/243/243 246/246/246
f 246/246/246 271/271/271 270/270/270
f 271/271/271 268/268/268 270/270/270
f 246/246/246 244/244/244 271/271/271
f 271/271/271 244/244/244 272/272/272
f 264/264/264 269/269/269 273/273/273
f 266/266/266 273/273/273 269/269/269
f 271/271/271 274/274/274 268/268/268
f 271/271/271 272/272/272 274/274/274
f 244/244/244 275/275/275 272/272/272
f 244/244/244 228/228/228 275/275/275
f 228/228/228 276/276/276 275/275/275
f 275/275/275 276/276/276 272/272/272
f 273/273/273 277/277/277 264/264/264
f 262/262/262 264/264/264 277/277/277
f 278/278/278 262/262/262 277/277/277
f 277/277/277 273/273/273 278/278/278
f 262/262/262 278/278/278 279/279/279
f 280/280/280 278/278/278 273/273/273
f 273/273/273 266/266/266 280/280/280
f 279/279/279 278/278/278 281/281/281
f 278/278/278 280/280/280 281/281/281
f 279/279/279 281/281/281 282/282/282
f 280/280/280 282/282/282 281/281/281
f 282/282/282 280/280/280 266/266/266
f 279/279/279 282/282/282 283/283/283
f 283/283/283 282/282/282 284/284/284
f 282/282/282 266/266/266 284/284/284
f 266/266/266 285/285/285 284/284/284
f 266/266/266 268/268/268 285/285/285
f 285/285/285 286/286/286 284/284/284
f 284/284/284 286/286/286 287/287/287
f 286/286/286 288/288/288 287/287/287
f 288/288/288 286/286/286 289/289/289
f 290/290/290 289/289/289 286/286/286
f 286/286/286 285/285/285 290/290/290
f 289/289/289 290/290/290 291/291/291
f 285/285/285 291/291/291 290/290/290
f 291/291/291 285/285/285 292/292/292
f 268/268/268 292/292/292 285/285/285
f 292/292/292 268/268/268 293/293/293
f 274/274/274 293/293/293 268/268/268
f 293/293/293 274/274/274 294/294/294
f 295/295/295 294/294/294 274/274/274
f 294/294/294 295/295/295 296/296/296
f 274/274/274 297/297/297 295/295/295
f 297/297/297 274/274/274 272/272/272
f 295/295/295 298/298/298 296/296/296
f 296/296/296 298/298/298 299/299/299
f 297/297/297 300/300/300 295/295/295
f 298/298/298 295/295/295 300/300/300
f 301/301/301 299/299/299 298/298/298
f 300/300/300 301/301/301 298/298/298
f 301/301/301 300/300/300 302/302/302
f 299/299/299 301/301/301 303/303/303
f 300/300/300 297/297/297 304/304/304
f 272/272/272 304/304/304 297/297/297
f 304/304/304 302/302/302 300/300/300
f 305/305/305 303/303/303 301/301/301
f 302/302/302 305/305/305 301/301/301
f 303/303/303 305/305/305 306/306/306
f 302/302/302 306/306/306 305/305/305
f 306/306/306 302/302/302 307/307/307
f 304/304/304 272/272/272 308/308/308
f 302/302/302 304/304/304 308/308/308
f 276/276/276 308/308/308 272/272/272
f 309/309/309 308/308/308 276/276/276
f 310/310/310 307/307/307 302/302/302
f 310/310/310 302/302/302 308/308/308
f 308/308/308 309/309/309 310/310/310
f 307/307/307 310/310/310 311/311/311
f 309/309/309 311/311/311 310/310/310
f 311/311/311 309/309/309 312/312/312
f 313/313/313 309/309/309 276/276/276
f 276/276/276 228/228/228 313/313/313
f 228/228/228 235/235/235 313/313/313
f 235/235/235 309/309/309 313/313/313
f 314/314/314 312/312/312 309/309/309
f 309/309/309 235/235/235 314/314/314
f 233/233/233 314/314/314 235/235/235
f 312/312/312 314/314/314 315/315/315
f 233/233/233 316/316/316 314/314/314
f 315/315/315 314/314/314 316/316/316
f 239/239/239 316/316/316 233/233/233
f 315/315/315 316/316/316 317/317/317
f 315/315/315 317/317/317 318/318/318
f 319/319/319 317/317/317 316/316/316
f 316/316/316 239/239/239 319/319/319
f 320/320/320 318/318/318 317/317/317
f 319/319/319 320/320/320 317/317/317
f 321/321/321 318/318/318 320/320/320
f 318/318/318 321/321/321 322/322/322
f 323/323/323 320/320/320 319/319/319
f 320/320/320 323/323/323 321/321/321
f 239/239/239 324/324/324 319/319/319
f 324/324/324 323/323/323 319/319/319
f 324/324/324 239/239/239 325/325/325
f 325/325/325 323/323/323 324/324/324
f 325/325/325 239/239/239 212/212/212
f 323/323/323 325/325/325 326/326/326
f 326/326/326 325/325/325 212/212/212
f 326/326/326 321/321/321 323/323/323
f 212/212/212 198/198/198 326/326/326
f 327/327/327 322/322/322 321/321/321
f 322/322/322 327/327/327 198/198/198
f 321/321/321 326/326/326 327/327/327
f 326/326/326 198/198/198 327/327/327
