# pallet_boxes_c_COL
v 0.692174673 1.05563509 0.133974269
v 0.443172902 1.05563509 0.133974269
v 0.692174673 1.05563509 0.637078524
v 0.443172902 0.591120958 0.133974299
v 0.443172902 0.591121018 -0.329973757
v 0.692174673 0.591120958 0.133974299
v 0.692174673 0.591120958 0.637078464
v 0.231229782 1.05563509 0.637078524
v -0.557768822 1.05563509 -0.329973757
v 0.443172902 1.05563509 -0.329973757
v 0.231229782 0.591121018 -0.329973757
v 0.750518024 0.591120958 0.133974299
v 0.231229782 0.591120958 -0.749213994
v 0.750517964 0.591120958 -0.749213994
v 0.750517964 -2.57492047E-07 -0.749213994
v 0.750517964 0.591120958 0.75095737
v 0.231229782 0.126606897 -0.749213994
v 0.231229782 0.591120958 0.733147621
v 0.231229782 0.591120958 0.637078464
v 0.231229782 1.05563509 0.73314774
v -0.343406677 1.05563509 0.210729018
v 0.750517964 -4.36326445E-07 0.75095731
v -0.343406677 0.591120958 0.733147621
v -0.343406677 1.05563509 0.73314774
v -0.750514269 -4.36326445E-07 0.75095731
v -0.750514269 -2.57492047E-07 -0.749213994
v -0.750514269 0.591120958 0.75095737
v -0.343406677 0.591121018 0.210729122
v -0.557768822 0.591121018 0.210729122
v -0.557768822 1.05563509 0.210729092
v -0.750514269 0.591120958 -0.749213994
v -0.238547817 0.126606897 -0.749213994
v -0.557768822 0.591121018 -0.329973757
v -0.238547817 0.591121018 -0.329973757
v -0.238547817 0.591120958 -0.749213994
v 0.231229782 0.126606897 -0.243122935
v -0.238547817 0.126606897 -0.243122935
g submesh0
f 1 2 3
f 4 2 1
f 5 2 4
f 4 1 6
f 6 1 3
f 6 5 4
f 6 3 7
f 8 3 2
f 7 3 8
f 8 2 9
f 10 9 2
f 5 10 2
f 11 9 10
f 11 10 5
f 12 6 7
f 12 5 6
f 13 11 5
f 5 12 14
f 5 14 13
f 15 14 12
f 15 13 14
f 7 16 12
f 12 16 15
f 17 11 13
f 17 13 15
f 18 16 7
f 7 8 19
f 18 7 19
f 19 8 20
f 19 20 18
f 20 8 21
f 8 9 21
f 16 22 15
f 16 18 22
f 22 18 23
f 18 20 24
f 20 21 24
f 18 24 23
f 23 24 21
f 25 15 22
f 22 23 25
f 25 26 15
f 17 15 26
f 25 23 27
f 27 26 25
f 23 21 28
f 29 27 23
f 29 23 28
f 28 21 30
f 21 9 30
f 28 30 29
f 9 29 30
f 31 26 27
f 29 31 27
f 26 32 17
f 32 26 31
f 9 33 29
f 29 33 31
f 33 9 34
f 34 9 11
f 35 31 33
f 32 31 35
f 35 33 34
f 32 35 34
f 36 11 17
f 36 17 32
f 37 34 11
f 37 11 36
f 36 32 37
f 32 34 37
