# pine_sapling_e_COL
v -0.12461476 -0.0484423712 -0.0333718508
v -0.0228418838 2.29938555 -0.086126402
v -0.0333774909 -0.0456446484 -0.124546818
v 0.0912372693 -0.0472022779 -0.0911749825
v -0.0841237754 2.30064011 -0.02491148
v -0.0617455356 2.30125427 0.0587733835
v -0.0912372693 -0.0527977198 0.0911749601
v 0.0219144579 2.30061436 0.0812432393
v 0.0333774909 -0.0543553494 0.124546818
v 0.124614805 -0.0515576266 0.0333718136
v 0.083196342 2.29935956 0.0200282671
v 0.0608181097 2.29874563 -0.0636565313
v 0.0464385152 3.94800043 0.0596216284
v 0.0148709128 3.94692802 -0.0579227246
v -0.0123460721 3.94876885 0.0438937806
v 0.0894393027 3.94669557 0.0165773164
v 0.073655501 3.94615889 -0.0421948805
v -0.0281298719 3.94823289 -0.0148783876
g submesh0
f 1 2 3
f 2 4 3
f 2 1 5
f 1 6 5
f 6 1 7
f 7 8 6
f 8 7 9
f 10 8 9
f 4 11 10
f 8 10 11
f 4 2 12
f 11 4 12
f 13 6 8
f 11 13 8
f 14 12 2
f 5 14 2
f 6 13 15
f 15 5 6
f 13 11 16
f 13 16 15
f 17 11 12
f 11 17 16
f 12 14 17
f 15 16 17
f 14 5 18
f 5 15 18
f 18 17 14
f 15 17 18
