# pine_c_COL
v 0.0169844907 52.3865891 0.148907602
v -0.0130489739 45.824028 -0.0170215797
v -0.00262417574 52.3865891 0.142959386
v 0.0664420798 45.824028 0.00709188543
v -0.12258736 42.8251076 -0.0468432307
v 0.0266438816 52.3865891 0.16697906
v -0.0223072451 42.8251076 -0.0164229032
v -0.215178028 39.8261795 -0.0659400672
v 0.105598934 45.824028 0.0803516656
v 0.0206956472 52.3865891 0.186587706
v -0.0941063836 39.8261795 -0.0292434748
v -0.206997365 36.8272514 -0.0468199477
v 0.0814840272 45.824028 0.159843162
v 0.00262418413 52.3865891 0.196247116
v 0.00822352339 45.824028 0.199001253
v 0.0270879436 42.8251076 0.0759969056
v -0.00333694951 42.8251076 0.176278666
v -0.0957593545 42.8251076 0.225677833
v -0.0651859194 36.8272514 -0.00396968517
v -0.0595064275 33.8283272 0.0901409537
v -0.0344654992 39.8261795 0.0822614059
v -0.0711922422 39.8261795 0.203297615
v -0.182772577 39.8261795 0.262963682
v 0.103174895 33.8283272 0.139170825
v 0.00695894705 30.9982662 0.221556872
v 0.00466391444 36.8272514 0.12664859
v -0.0383651182 36.8272514 0.268529773
v -0.169067144 36.8272514 0.338569283
v 0.183360413 33.8283272 0.288894445
v 0.134076342 33.8283272 0.451605529
v -0.0158106368 33.8283272 0.53199029
v 0.189229175 30.9982052 0.276710182
v 0.278987646 30.9981785 0.444626302
v 0.223671705 30.998209 0.626949072
v 0.055670049 30.9982738 0.716871023
v 0.0550132804 30.6604576 0.734458387
v 0.1902899 30.6603775 0.288658798
v 0.00568327401 30.6603661 0.232779637
v -0.0610410683 27.8304787 0.265980542
v 0.281196028 30.6604099 0.458739221
v 0.225169122 30.6604404 0.643397272
v 0.143190846 27.8304787 0.327899694
v -0.152552962 24.8315525 0.162287459
v 0.181844026 27.8304787 0.720327497
v -0.00637736125 27.8304787 0.820960283
v 0.243797228 27.8304787 0.5160954
v 0.0724548548 24.8315525 0.230590209
v -0.0857822895 21.8326263 0.0389759466
v 0.114931487 24.8315525 0.662886262
v -0.0924950615 24.8315525 0.773645937
v 0.183256865 24.8315525 0.437944889
v 0.159825176 21.8326263 0.113659829
v 0.0484184735 19.002676 0.000487660087
v 0.205861941 21.8326263 0.585706294
v -0.0206977334 21.8326263 0.7065503
v 0.280644417 21.8326263 0.340123117
v 0.313642561 19.0026226 0.0811093003
v 0.363437265 19.0025482 0.590900481
v 0.118836306 19.0025673 0.721440792
v 0.129928693 18.6647358 0.728554606
v 0.444128662 19.0025711 0.325666279
v 0.326391786 18.6647034 0.0824978128
v 0.0588000044 18.6647472 0.00118181005
v 0.11842905 15.834775 -0.0141718686
v 0.376687914 18.6646938 0.596828401
v 0.45806548 18.6646805 0.329222828
v 0.267810673 15.834775 0.0312809311
v 0.0502658561 12.8358507 -0.175247535
v 0.388480216 15.834775 0.130332187
v 0.210495204 12.8358507 -0.126376793
v 0.172133461 11.4208126 -0.180084258
v 0.011482982 11.4207964 -0.229122296
v 0.122046933 9.92662621 -0.24364385
v -0.0423443541 9.92656231 -0.29384464
v 0.114771098 9.43515396 -0.260499328
v -0.049744118 9.43516064 -0.311387092
v -0.041815456 8.08400345 -0.349350244
v 0.120014019 8.08386898 -0.295724869
v -0.0554561839 7.31230688 -0.344681352
v 0.247646064 9.43512535 -0.149952039
v 0.254841685 9.92669201 -0.134598568
v 0.301902413 11.4208298 -0.0735391229
v 0.339919776 12.8358507 -0.020131208
v 0.462066948 15.834775 0.267964005
v 0.477367699 15.834775 0.423545718
v 0.418835908 12.8358507 0.12744461
v 0.381033957 11.420846 0.074430503
v 0.335823745 9.92674923 0.0168300774
v 0.330415845 9.43510437 0.00340939057
v 0.435229063 12.8358507 0.294468731
v 0.432053179 15.834775 0.572892308
v 0.333022058 15.834775 0.69324851
v 0.386621892 12.8358507 0.454591006
v 0.397480458 11.4208574 0.241963312
v 0.352663517 9.92679024 0.188300952
v 0.195351094 15.834775 0.766768873
v 0.039999336 15.834775 0.782248378
v 0.280428112 12.8358507 0.583411932
v 0.132801875 12.8358507 0.66219002
v -0.0337670967 12.8358507 0.678896725
v 0.348748088 11.4208641 0.402513176
v 0.242263943 11.4208641 0.531607568
v 0.0942350179 11.4208574 0.610581219
v -0.0727943629 11.420846 0.62737596
v -0.128605351 9.92671776 0.582697451
v 0.0423360951 9.92677021 0.565494239
v -0.134709805 9.4350214 0.574388862
v 0.302799702 9.92681026 0.352601945
v 0.193826005 9.92680359 0.484683454
v 0.0373001285 9.43505096 0.557004869
v -0.117859282 8.08505821 0.569104314
v 0.190418169 9.43511486 0.474332988
v 0.0564915314 8.08515167 0.551103711
v -0.12621212 7.31235504 0.592451334
v 0.300724238 9.43517113 0.340927809
v 0.0495052412 7.31227779 0.574109316
v -0.0809210837 6.36355639 0.629298091
v 0.215426594 8.08529568 0.459879875
v 0.0951622203 6.36353731 0.606283963
v -0.0585944839 5.4522953 0.617521107
v 0.211808965 7.31219053 0.477991045
v 0.115376435 5.45228863 0.583247244
v 0.00732399151 4.09369898 0.554052889
v 0.349725902 9.43514252 0.176017627
v 0.330799013 8.085495 0.321904868
v 0.254927039 6.36347437 0.506196916
v 0.178145722 4.0936985 0.502994359
v 0.124567986 2.80705523 0.498442501
v 0.374046236 8.08514786 0.157029539
v 0.330131948 7.31211519 0.337388873
v 0.341530859 8.08435822 -0.0182852652
v 0.263790011 5.45230627 0.479187876
v 0.368326575 6.3634696 0.363054723
v 0.370013446 7.3121233 0.172527507
v 0.329787731 7.31218195 -0.00433266908
v 0.250607938 8.08381176 -0.179164544
v 0.403793901 6.36352301 0.19625248
v 0.360905141 5.45228434 0.33247
v 0.309636861 4.09369946 0.393005848
v 0.234105691 7.31222534 -0.169508457
v 0.10482122 7.31225729 -0.289499283
v 0.361495018 6.36351871 0.0177809764
v 0.133911535 6.36354971 -0.26800555
v -0.0303330962 6.36359549 -0.320452183
v -0.0603916124 5.45222902 -0.334873468
v 0.265224785 6.36351013 -0.148420528
v 0.113686636 5.45228434 -0.292672157
v -0.0725667477 4.09369612 -0.402237415
v 0.2527107 5.45227671 -0.180301562
v 0.116165653 4.09369755 -0.375344425
v -0.0923912898 2.80606389 -0.440974504
v 0.347393751 5.45223427 -0.0185816661
v 0.266684949 4.09369898 -0.27374661
v 0.075190641 2.806777 -0.391927302
v -0.0903288499 2.42011571 -0.433489949
v 0.387741417 5.45223665 0.161203533
v 0.38247177 4.09369898 0.240942031
v 0.396442324 4.09369946 0.0630264431
v 0.359003544 4.09369898 -0.118703179
v 0.21325399 2.80666614 -0.36226669
v 0.0782187283 2.42190266 -0.390627623
v 0.339387536 2.80658817 -0.24611789
v 0.442883968 2.80746603 -0.139401838
v 0.223756 2.42081189 -0.370163351
v 0.0707250163 2.12383413 -0.399391383
v -0.0966836438 2.12197542 -0.431720078
v 0.481870055 2.80774426 0.0385706462
v 0.357815206 2.41891694 -0.257153332
v 0.217829332 2.12294197 -0.380862176
v -0.0342711732 1.15879977 -0.450652838
v -0.184881821 1.14856458 -0.409577042
v -0.0486914292 0.764150977 -0.447721779
v -0.215371534 0.785295308 -0.39602682
v -0.239160433 0.520203054 -0.396697372
v 0.130681932 1.1532203 -0.426456332
v 0.359594107 2.12144446 -0.276661456
v 0.468029112 2.4212358 -0.154147446
v 0.324651033 1.14006305 -0.307922065
v 0.465658545 2.12405562 -0.169374406
v -0.0912611634 0.4998025 -0.454759449
v 0.0522013791 0.461109728 -0.464352876
v -0.253309131 0.336332589 -0.401497006
v 0.0728522092 0.731313527 -0.445997447
v -0.102838494 0.320940673 -0.480297118
v -0.264403045 0.20529668 -0.446034849
v -0.0744046941 0.210281476 -0.555311978
v -0.417108893 -0.276701421 -0.708354831
v 0.425350487 1.13677216 -0.169802412
v 0.30325079 0.6201846 -0.331147611
v 0.0294188056 0.273472756 -0.510555744
v -0.140713453 -0.26944977 -0.86732316
v -0.585744083 -0.833153725 -1.05336106
v -0.154249325 -0.821832657 -1.3015343
v 0.0217946563 0.209271878 -0.544334948
v -0.000769824022 -0.270918369 -0.85135442
v 0.0642236993 -0.824125648 -1.27660477
v 0.115208872 0.164507657 -0.548606992
v 0.135122225 -0.336038023 -0.857569098
v 0.276371568 -0.925787151 -1.28630686
v 0.194543853 0.199416131 -0.452898741
v 0.250532836 -0.285255849 -0.71833998
v 0.456544876 -0.846508563 -1.0689491
v 0.221328259 0.395905226 -0.401823729
v 0.341457844 0.181668788 -0.308298618
v 0.464252204 -0.311073482 -0.507986605
v 0.790192902 -0.886813819 -0.740556002
v 0.641565323 -0.276552975 -0.262847602
v 1.06700528 -0.832921982 -0.357857376
v 0.33061415 0.381937355 -0.301677078
v 0.463345408 0.205398619 -0.139786378
v 0.45199585 0.380585849 -0.133898377
v 0.693240881 -0.289816976 0.119534731
v 1.14767861 -0.853629231 0.239098862
v 0.432980001 0.619900405 -0.145685062
v 0.486529022 0.383890092 0.113899946
v 0.498868048 0.196280971 0.123069011
v 0.633180678 -0.248025849 0.376339853
v 1.05391574 -0.788387001 0.640010297
v 0.457581788 0.225008622 0.29960078
v 0.46568355 0.651750803 0.115032233
v 0.452839732 -0.229191989 0.650968373
v 0.772376239 -0.758984387 1.06874681
v 0.443775982 0.397350609 0.297800809
v 0.33361271 0.237955272 0.488384336
v 0.235517368 -0.242853865 0.771386385
v 0.433103442 -0.780312657 1.25673711
v 0.184222028 0.228564024 0.571161628
v 0.188359082 0.440452039 0.534238935
v 0.468912601 1.14006722 0.0101593733
v 0.410058737 0.658698261 0.292474091
v 0.334340692 0.430966049 0.454831451
v 0.329788089 0.736709833 0.408451945
v 0.235758528 0.776580811 0.480020523
v 0.198295191 1.15886819 0.498450309
v 0.517861247 2.12393069 0.0118627632
v 0.434434235 1.14007187 0.230871499
v 0.328335106 1.14696336 0.391051829
v 0.514430046 2.42119789 0.024997035
v 0.470316648 2.12089539 0.214754179
v 0.328852117 2.12071085 0.360583901
v 0.185686857 2.12201333 0.503765523
v 0.417702466 2.80708098 0.236148372
v 0.455809265 2.41818237 0.228152275
v 0.318613321 2.41786885 0.374541998
v 0.166799411 2.4192481 0.504813731
v 0.27876541 2.80685806 0.377859056
v -0.0169844814 52.3865891 0.19029884
v 0.00822352339 45.824028 0.199001253
v 0.00262418413 52.3865891 0.196247116
v -0.0712675229 45.824028 0.174887717
v -0.0957593545 42.8251076 0.225677833
v -0.0266438499 52.3865891 0.172227398
v -0.196039468 42.8251076 0.195255354
v -0.182772577 39.8261795 0.262963682
v -0.110424332 45.824028 0.101627946
v -0.020695623 52.3865891 0.152618751
v -0.303844184 39.8261795 0.226215869
v -0.169067144 36.8272514 0.338569283
v -0.0863094106 45.824028 0.0221365709
v -0.00262417574 52.3865891 0.142959386
v -0.0130489739 45.824028 -0.0170215797
v -0.245434463 42.8251076 0.102832824
v -0.21500963 42.8251076 0.00255404436
v -0.12258736 42.8251076 -0.0468432307
v -0.310878545 36.8272514 0.295700938
v -0.0158106368 33.8283272 0.53199029
v -0.363484949 39.8261795 0.114651136
v -0.326758236 39.8261795 -0.0063472162
v -0.215178028 39.8261795 -0.0659400672
v -0.17849575 33.8283272 0.482960641
v 0.055670049 30.9982738 0.716871023
v -0.380727679 36.8272514 0.165068448
v -0.337698966 36.8272514 0.0231962372
v -0.206997365 36.8272514 -0.0468199477
v -0.258676529 33.8283272 0.333238602
v -0.209389269 33.8283272 0.170526534
v -0.0595064275 33.8283272 0.0901409537
v -0.126603737 30.9983349 0.662020683
v -0.216371611 30.9983578 0.494958609
v -0.161039501 30.9983349 0.311776847
v 0.00695894705 30.9982662 0.221556872
v 0.00568327401 30.6603661 0.232779637
v -0.129596621 30.6604462 0.678894639
v 0.0550132804 30.6604576 0.734458387
v -0.00637736125 27.8304787 0.820960283
v -0.164470702 30.6603775 0.324149728
v -0.220514461 30.6604118 0.509699881
v -0.210609317 27.8304787 0.759246349
v -0.0924950615 24.8315525 0.773645937
v -0.249262303 27.8304787 0.366812915
v -0.0610410683 27.8304787 0.265980542
v -0.31121546 27.8304787 0.571617544
v -0.317486435 24.8315525 0.705370605
v -0.0206977334 21.8326263 0.7065503
v -0.359954506 24.8315525 0.273075432
v -0.152552962 24.8315525 0.162287459
v -0.428264916 24.8315525 0.498093337
v -0.266290903 21.8326263 0.631866992
v 0.118836306 19.0025673 0.721440792
v -0.312309921 21.8326263 0.159820706
v -0.0857822895 21.8326263 0.0389759466
v -0.387062788 21.8326263 0.405406058
v -0.146388248 19.0026207 0.640818536
v -0.196179494 19.002697 0.131028026
v 0.0484184735 19.002676 0.000487660087
v 0.0588000044 18.6647472 0.00118181005
v -0.276869833 19.002676 0.396262318
v -0.137664005 18.6647816 0.647238195
v 0.129928693 18.6647358 0.728554606
v 0.039999336 15.834775 0.782248378
v -0.1879583 18.6647873 0.132908478
v -0.269335926 18.6648026 0.400514185
v -0.109382339 15.834775 0.736878335
v -0.0337670967 12.8358507 0.678896725
v -0.230051786 15.834775 0.638289452
v -0.193953753 12.8358507 0.630160868
v -0.0727943629 11.420846 0.62737596
v -0.30363819 15.834775 0.500923157
v -0.32337153 12.8358507 0.524744272
v -0.23341617 11.4208307 0.57850033
v -0.318938851 15.834775 0.344915569
v -0.402317762 12.8358507 0.377663374
v -0.292982429 9.92665482 0.532679081
v -0.128605351 9.92671776 0.582697451
v -0.363177866 11.4208136 0.472906172
v -0.425770432 9.92658901 0.424658448
v -0.300208896 9.43500996 0.522729814
v -0.134709805 9.4350214 0.574388862
v -0.434496552 9.43501663 0.412712932
v -0.286135346 8.08476639 0.509462476
v -0.117859282 8.08505821 0.569104314
v -0.425933301 8.08432674 0.390659869
v -0.296139866 7.31243658 0.528238297
v -0.12621212 7.31235504 0.592451334
v -0.439174533 7.31250238 0.404388338
v -0.253831148 6.36358213 0.569612682
v -0.0809210837 6.36355639 0.629298091
v -0.402181953 6.36364841 0.449404508
v -0.23538509 5.45226479 0.574859202
v -0.0585944839 5.4522953 0.617521107
v -0.391300589 5.45217752 0.469821125
v -0.175254107 4.0936985 0.536796033
v 0.00732399151 4.09369898 0.554052889
v -0.342450708 4.0936985 0.454355597
v -0.0580812395 2.80745649 0.513599932
v 0.124567986 2.80705523 0.498442501
v 0.166799411 2.4192481 0.504813731
v -0.224196747 2.80640244 0.474158973
v -0.465253204 4.09369898 0.313593984
v -0.500024498 5.45210361 0.317295521
v -0.0173061397 2.42033291 0.531867862
v -0.501460195 6.36370182 0.288975954
v 0.00062959973 2.12322998 0.538973331
v 0.185686857 2.12201333 0.503765523
v -0.532647491 7.31254244 0.243095919
v -0.00105196168 1.15754998 0.546295822
v 0.198295191 1.15886819 0.498450309
v 0.0105300769 0.797802627 0.549528241
v 0.235758528 0.776580811 0.480020523
v 0.188359082 0.440452039 0.534238935
v -0.182542294 1.14856315 0.501877904
v -0.175028056 2.11997747 0.514285505
v -0.515381396 8.08387947 0.232604608
v -0.186106414 2.41670132 0.498981953
v -0.517040193 9.43502998 0.260300994
v -0.506756604 9.92653084 0.273832232
v -0.352294803 2.80745816 0.377703965
v -0.534800649 9.43505764 0.0863613784
v -0.442325741 11.4207983 0.325499475
v -0.523606718 9.92648888 0.101396255
v -0.418770105 12.8358507 0.209843084
v -0.458806515 11.4207869 0.157064125
v -0.27362442 15.834775 0.195395097
v -0.370192438 12.8358507 0.0494014397
v -0.174593538 15.834775 0.0747208968
v -0.036922615 15.834775 0.00119191385
v 0.11842905 15.834775 -0.0141718686
v -0.263998806 12.8358507 -0.0799903944
v -0.116363131 12.8358507 -0.158758596
v 0.0502658561 12.8358507 -0.175247535
v -0.410095662 11.4207821 -0.0038472265
v -0.473756135 9.92647076 -0.0632912591
v -0.303616554 11.4207802 -0.133594677
v -0.155582324 11.4207859 -0.212570727
v 0.011482982 11.4207964 -0.229122296
v -0.0423443541 9.92656231 -0.29384464
v -0.213298544 9.9265089 -0.276898652
v -0.049744118 9.43516064 -0.311387092
v -0.364790797 9.92647839 -0.196075246
v -0.485102564 9.43508434 -0.0794125795
v -0.222314358 9.43512535 -0.294198453
v -0.375562668 9.43509769 -0.212715104
v -0.53782028 8.08357334 0.0539952368
v -0.219762504 8.08375454 -0.331197888
v -0.041815456 8.08400345 -0.349350244
v -0.489996552 8.08343506 -0.114352986
v -0.511073112 7.31252003 -0.107953414
v -0.557807744 7.31254625 0.0618547611
v -0.379543751 8.08346081 -0.247764736
v -0.531441212 6.36370897 0.105366923
v -0.236524895 7.31239319 -0.325978577
v -0.0554561839 7.31230688 -0.344681352
v -0.0303330962 6.36359549 -0.320452183
v -0.400090516 7.31247282 -0.241427436
v -0.214480236 6.36360073 -0.297181338
v -0.379224896 6.36361456 -0.207086459
v -0.24484086 5.4522047 -0.299605846
v -0.0603916124 5.45222902 -0.334873468
v -0.540421069 5.45208263 0.134082541
v -0.488563836 6.36367226 -0.0684008524
v -0.507209122 5.45211458 -0.0461310707
v -0.40460363 5.45217514 -0.19705078
v -0.257463753 4.09369755 -0.349077284
v -0.0725667477 4.09369612 -0.402237415
v -0.409798533 4.09369564 -0.227936149
v -0.521169841 4.09369469 0.131027967
v -0.502363086 4.09369755 -0.0587779135
v -0.426641613 2.80829883 0.206353843
v -0.258489341 2.8065896 -0.337901235
v -0.0923912898 2.80606389 -0.440974504
v -0.451296329 2.80651593 0.00525987614
v -0.390613556 2.80600691 -0.186726868
v -0.299816966 2.418154 0.391546547
v -0.23923935 2.42102289 -0.321049124
v -0.0903288499 2.42011571 -0.433489949
v -0.0966836438 2.12197542 -0.431720078
v -0.362599671 2.41759801 0.2140719
v -0.42822361 2.41979003 0.0327642038
v -0.372852653 2.41954064 -0.168658257
v -0.239429146 2.1233232 -0.311936826
v -0.184881821 1.14856458 -0.409577042
v -0.283179969 2.12163329 0.39805761
v -0.34341681 2.12171698 0.214572325
v -0.428474993 2.12223983 0.0419315696
v -0.377490908 2.12181306 -0.163985878
v -0.329639733 1.14886034 -0.313312739
v -0.215371534 0.785295308 -0.39602682
v -0.345674366 1.14856005 0.391566545
v -0.438093543 1.15754688 0.227464154
v -0.46683678 1.15175712 0.0254759099
v -0.42802912 1.14856112 -0.166790813
v -0.330631942 0.793976068 -0.31310463
v -0.239160433 0.520203054 -0.396697372
v -0.456892282 0.794653356 0.185149163
v -0.206043944 0.794978261 0.501805484
v -0.476500034 0.795330942 0.00624984968
v -0.428166538 0.794653356 -0.165869266
v -0.353868932 0.530067146 -0.304603219
v -0.253309131 0.336332589 -0.401497006
v -0.491820872 0.522033274 -0.000638974248
v -0.494728923 0.4623833 0.156731457
v -0.38424477 0.793975651 0.348207086
v -0.440527409 0.535007894 -0.170167744
v -0.369546831 0.342901677 -0.305734187
v -0.451169223 0.342906177 -0.181098208
v -0.405034423 0.218026638 -0.321774542
v -0.264403045 0.20529668 -0.446034849
v -0.525953829 0.31163758 -0.0351740792
v -0.472629219 0.207337528 -0.209507287
v -0.621688843 -0.258182466 -0.527590334
v -0.417108893 -0.276701421 -0.708354831
v -0.905124128 -0.80424279 -0.771160245
v -0.585744083 -0.833153725 -1.05336106
v -1.05863488 -0.82851851 -0.516196668
v -0.720020711 -0.273732394 -0.364272445
v -1.19662845 -0.834166825 -0.248852357
v -0.808412969 -0.277350396 -0.193024099
v -1.29256892 -0.744206011 0.0702739954
v -0.533391416 0.204850331 -0.0917886272
v -0.86986798 -0.219725683 0.0113933906
v -1.21426058 -0.59814477 0.394006044
v -0.575636506 0.244462565 0.0487310588
v -0.819707334 -0.126165628 0.218760997
v -0.97494179 -0.558091521 0.811874628
v -0.541155338 0.308777452 0.191278771
v -0.666410744 -0.100509413 0.486428142
v -0.653619051 -0.587855577 1.09865415
v -0.435776919 0.326413691 0.375277013
v -0.460586458 -0.119574733 0.670125782
v -0.240874708 -0.652300656 1.26480508
v -0.392267555 0.497467577 0.372644752
v -0.196201622 -0.160855353 0.776554346
v 0.433103442 -0.780312657 1.25673711
v 0.235517368 -0.242853865 0.771386385
v -0.294290185 0.313307971 0.501553476
v -0.232764348 0.490057677 0.511480272
v -0.112548098 0.284930885 0.574714124
v 0.184222028 0.228564024 0.571161628
v -0.0300184824 0.463475853 0.562081277
v -0.0266438499 52.3865891 0.172227398
v -0.00262417574 52.3865891 0.142959386
v -0.020695623 52.3865891 0.152618751
v 0.0266438816 52.3865891 0.16697906
v 0.0169844907 52.3865891 0.148907602
v 0.00262418413 52.3865891 0.196247116
v -0.0169844814 52.3865891 0.19029884
v 0.0206956472 52.3865891 0.186587706
vt 0.806487262 13.9483452
vt 0.751078427 8.42590809
vt 0.751078427 13.9483452
vt 0.806487262 8.42590809
vt 0.751078427 6.4784956
vt 0.873960674 13.9483452
vt 0.806487262 6.4784956
vt 0.751078427 4.77122068
vt 0.873960674 8.42590809
vt 0.941434801 13.9483452
vt 0.806487262 4.77122068
vt 0.751078427 3.37223291
vt 0.941434801 8.42590809
vt 0.999280989 13.9483452
vt 0.999280989 8.42590714
vt 0.873960674 6.4784956
vt 0.941434801 6.4784956
vt 0.999280989 6.4784956
vt 0.806487262 3.37223291
vt 0.751078427 2.11263132
vt 0.873960674 4.77122068
vt 0.941434801 4.77122068
vt 0.999280989 4.77122068
vt 0.806487262 2.11263132
vt 0.751078427 1.1339711
vt 0.873960674 3.37223291
vt 0.941434801 3.37223291
vt 0.999280989 3.37223291
vt 0.873960674 2.11263132
vt 0.941434801 2.11263132
vt 0.999280989 2.11263132
vt 0.806487262 1.13396013
vt 0.873960674 1.13395441
vt 0.941434801 1.13396108
vt 0.999280989 1.13397634
vt 0.999280989 1.01033294
vt 0.806487262 1.01033294
vt 0.751078427 1.01033294
vt 0.751078427 0.0961418748
vt 0.873960674 1.01033294
vt 0.941434801 1.01033294
vt 0.806487262 0.0961418748
vt 0.751078427 -0.79281503
vt 0.941434801 0.0961418748
vt 0.999280989 0.0961418748
vt 0.873960674 0.0961418748
vt 0.806487262 -0.79281503
vt 0.751078427 -1.59609914
vt 0.941434801 -0.79281503
vt 0.999280989 -0.79281503
vt 0.873960674 -0.79281503
vt 0.806487262 -1.59609914
vt 0.751078427 -2.2780385
vt 0.941434801 -1.59609914
vt 0.999280989 -1.59609914
vt 0.873960674 -1.59609914
vt 0.806487262 -2.27804518
vt 0.941434801 -2.27805805
vt 0.999280989 -2.27805519
vt 0.999280989 -2.34770918
vt 0.873960674 -2.27805424
vt 0.806487262 -2.34770918
vt 0.751078427 -2.34770918
vt 0.751088083 -2.94404078
vt 0.941434801 -2.34770918
vt 0.873960674 -2.34770918
vt 0.782248437 -2.94404078
vt 0.751088083 -3.46194458
vt 0.813873649 -2.94404078
vt 0.782248437 -3.46194458
vt 0.782248437 -3.7393961
vt 0.751088083 -3.73939848
vt 0.782248437 -4.03176451
vt 0.751088083 -4.03177404
vt 0.782248437 -4.1261692
vt 0.751088083 -4.12616587
vt 0.751088083 -4.38087416
vt 0.782248437 -4.38089561
vt 0.751088083 -4.5240469
vt 0.813873649 -4.12617683
vt 0.813873649 -4.03175402
vt 0.813873649 -3.73939371
vt 0.813873649 -3.46194458
vt 0.8454988 -2.94404078
vt 0.877124071 -2.94404078
vt 0.8454988 -3.46194458
vt 0.8454988 -3.73939133
vt 0.8454988 -4.031744
vt 0.8454988 -4.12618399
vt 0.877124071 -3.46194458
vt 0.90874964 -2.94404078
vt 0.940374732 -2.94404078
vt 0.90874964 -3.46194458
vt 0.877124071 -3.7393899
vt 0.877124071 -4.03173637
vt 0.971999586 -2.94404078
vt 0.999304414 -2.94404078
vt 0.940374732 -3.46194458
vt 0.971999586 -3.46194458
vt 0.999304414 -3.46194458
vt 0.90874964 -3.73938894
vt 0.940374732 -3.73938894
vt 0.971999586 -3.7393899
vt 0.999304414 -3.73939133
vt 0.999304414 -4.03174162
vt 0.971999586 -4.03173447
vt 0.999304414 -4.12619305
vt 0.90874964 -4.03173161
vt 0.940374732 -4.03173113
vt 0.971999586 -4.12619162
vt 0.999304414 -4.38069582
vt 0.940374732 -4.12618303
vt 0.971999586 -4.38068676
vt 0.999304414 -4.52404308
vt 0.90874964 -4.12617493
vt 0.971999586 -4.52405119
vt 0.999304414 -4.69398403
vt 0.940374732 -4.38066292
vt 0.971999586 -4.69398451
vt 0.999304414 -4.85674334
vt 0.940374732 -4.52406359
vt 0.971999586 -4.85674286
vt 0.999304414 -5.10975599
vt 0.877124071 -4.1261797
vt 0.90874964 -4.38063049
vt 0.940374732 -4.69398975
vt 0.971999586 -5.10975599
vt 0.999304414 -5.36103153
vt 0.877124071 -4.38068676
vt 0.90874964 -4.52407455
vt 0.8454988 -4.38081598
vt 0.940374732 -4.85673761
vt 0.90874964 -4.69398832
vt 0.877124071 -4.52407265
vt 0.8454988 -4.52406359
vt 0.813873649 -4.38090467
vt 0.877124071 -4.69398022
vt 0.90874964 -4.85673952
vt 0.940374732 -5.10975599
vt 0.813873649 -4.52405691
vt 0.782248437 -4.52405357
vt 0.8454988 -4.69398022
vt 0.782248437 -4.69398355
vt 0.751088083 -4.69397545
vt 0.751088083 -4.8567524
vt 0.813873649 -4.69398499
vt 0.782248437 -4.85674381
vt 0.751088083 -5.10975599
vt 0.813873649 -4.85674238
vt 0.782248437 -5.10975599
vt 0.751088083 -5.36118507
vt 0.8454988 -4.85674715
vt 0.813873649 -5.10975599
vt 0.782248437 -5.36122084
vt 0.751088083 -5.43640089
vt 0.877124071 -4.85674715
vt 0.90874964 -5.10975599
vt 0.877124071 -5.10975599
vt 0.8454988 -5.10975599
vt 0.813873649 -5.36117172
vt 0.782248437 -5.43636513
vt 0.8454988 -5.36109018
vt 0.877124071 -5.36111641
vt 0.813873649 -5.43641472
vt 0.782248437 -5.49294376
vt 0.751088083 -5.49299335
vt 0.90874964 -5.36108541
vt 0.8454988 -5.43649578
vt 0.813873649 -5.49296093
vt 0.782248437 -5.63035202
vt 0.751088083 -5.63035202
vt 0.780260265 -5.67577839
vt 0.751088083 -5.67644501
vt 0.751088083 -5.7076602
vt 0.813873649 -5.63035202
vt 0.8454988 -5.4929738
vt 0.877124071 -5.43646955
vt 0.8454988 -5.63035202
vt 0.877124071 -5.49290895
vt 0.775918424 -5.70675611
vt 0.798792541 -5.71016264
vt 0.751088083 -5.7271266
vt 0.801718712 -5.67898846
vt 0.775501788 -5.72737074
vt 0.751107872 -5.74215603
vt 0.782022476 -5.74162674
vt 0.751107872 -5.74215603
vt 0.877124071 -5.63035202
vt 0.842480242 -5.69118118
vt 0.795069575 -5.73174906
vt 0.782022476 -5.74162674
vt 0.751107872 -5.74215603
vt 0.782022476 -5.74162674
vt 0.793111503 -5.7402854
vt 0.793111503 -5.7402854
vt 0.793111503 -5.7402854
vt 0.802725613 -5.74712086
vt 0.802725613 -5.74712086
vt 0.802725613 -5.74712086
vt 0.819567978 -5.7410202
vt 0.819567978 -5.7410202
vt 0.819567978 -5.7410202
vt 0.826566219 -5.71761942
vt 0.849202275 -5.74299479
vt 0.849202275 -5.74299479
vt 0.849202275 -5.74299479
vt 0.879719377 -5.74052334
vt 0.879719377 -5.74052334
vt 0.849093795 -5.71918011
vt 0.879719377 -5.74052334
vt 0.880252838 -5.71932411
vt 0.918426752 -5.74160004
vt 0.918426752 -5.74160004
vt 0.87836504 -5.69074488
vt 0.917768419 -5.71913004
vt 0.918426752 -5.74160004
vt 0.944295824 -5.7383399
vt 0.944295824 -5.7383399
vt 0.944295824 -5.7383399
vt 0.919631183 -5.68777895
vt 0.97605449 -5.73656225
vt 0.97605449 -5.73656225
vt 0.946160078 -5.71794271
vt 0.97605449 -5.73656225
vt 0.999298275 -5.74104166
vt 0.999298275 -5.74104166
vt 0.999298275 -5.74104166
vt 0.999298275 -5.71908617
vt 0.90874964 -5.63035202
vt 0.950044215 -5.68732262
vt 0.974961758 -5.71529055
vt 0.97559607 -5.6795249
vt 0.999298275 -5.67830849
vt 0.999304414 -5.63035202
vt 0.90874964 -5.49294329
vt 0.940374732 -5.63035202
vt 0.971999586 -5.63035202
vt 0.90874964 -5.43650055
vt 0.940374732 -5.49302578
vt 0.971999586 -5.49301529
vt 0.999304414 -5.49299622
vt 0.940374732 -5.36099529
vt 0.940374732 -5.43659067
vt 0.971999586 -5.43659306
vt 0.999304414 -5.43655443
vt 0.971999586 -5.36099291
vt 1.80648744 13.9483471
vt 1.75107837 8.42590618
vt 1.75107837 13.9483471
vt 1.80648744 8.42590618
vt 1.75107837 6.4784956
vt 1.87396097 13.9483471
vt 1.80648744 6.4784956
vt 1.75107837 4.77122068
vt 1.87396097 8.42590618
vt 1.94143414 13.9483471
vt 1.80648744 4.77122068
vt 1.75107837 3.37223291
vt 1.94143414 8.42590618
vt 1.99928093 13.9483471
vt 1.99928093 8.42590618
vt 1.87396097 6.4784956
vt 1.94143414 6.4784956
vt 1.99928093 6.4784956
vt 1.80648744 3.37223291
vt 1.75107837 2.11263132
vt 1.87396097 4.77122068
vt 1.94143414 4.77122068
vt 1.99928093 4.77122068
vt 1.80648744 2.11263132
vt 1.75107837 1.13398206
vt 1.87396097 3.37223291
vt 1.94143414 3.37223291
vt 1.99928093 3.37223291
vt 1.87396097 2.11263132
vt 1.94143414 2.11263132
vt 1.99928093 2.11263132
vt 1.80648744 1.13399255
vt 1.87396097 1.13399875
vt 1.94143414 1.13399112
vt 1.99928093 1.13397634
vt 1.99928093 1.01033294
vt 1.80648744 1.01033294
vt 1.75107837 1.01033294
vt 1.75107837 0.0961418748
vt 1.94143414 1.01033294
vt 1.87396097 1.01033294
vt 1.80648744 0.0961418748
vt 1.75107837 -0.792815149
vt 1.94143414 0.0961418748
vt 1.99928093 0.0961418748
vt 1.87396097 0.0961418748
vt 1.80648744 -0.792815268
vt 1.75107837 -1.59609914
vt 1.94143414 -0.792815268
vt 1.99928093 -0.792815268
vt 1.87396097 -0.792815268
vt 1.80648744 -1.59609914
vt 1.75107837 -2.27805281
vt 1.94143414 -1.59609914
vt 1.99928093 -1.59609914
vt 1.87396097 -1.59609914
vt 1.80648744 -2.27804613
vt 1.94143414 -2.27803326
vt 1.99928093 -2.27803612
vt 1.99928093 -2.34770918
vt 1.87396097 -2.27803707
vt 1.80648744 -2.34770918
vt 1.75107837 -2.34770918
vt 1.75108814 -2.94404078
vt 1.94143414 -2.34770918
vt 1.87396097 -2.34770918
vt 1.78224874 -2.94404078
vt 1.75108814 -3.46194458
vt 1.81387377 -2.94404078
vt 1.78224874 -3.46194506
vt 1.75108814 -3.7393918
vt 1.84549928 -2.94404078
vt 1.81387377 -3.46194506
vt 1.78224874 -3.73939419
vt 1.87712407 -2.94404078
vt 1.84549928 -3.46194506
vt 1.78224874 -4.03175116
vt 1.75108814 -4.03174162
vt 1.81387377 -3.73939657
vt 1.81387377 -4.03176117
vt 1.78224874 -4.12619209
vt 1.75108814 -4.126194
vt 1.81387377 -4.12618685
vt 1.78224874 -4.38075018
vt 1.75108814 -4.3807025
vt 1.81387377 -4.38082218
vt 1.78224874 -4.52402925
vt 1.75108814 -4.52404022
vt 1.81387377 -4.52401972
vt 1.78224874 -4.69397926
vt 1.75108814 -4.69398403
vt 1.81387377 -4.69396687
vt 1.78224874 -4.8567481
vt 1.75108814 -4.85674334
vt 1.81387377 -4.8567605
vt 1.78224874 -5.10975599
vt 1.75108814 -5.10975599
vt 1.81387377 -5.10975599
vt 1.78224874 -5.36105537
vt 1.75108814 -5.36103153
vt 1.75108814 -5.43655443
vt 1.81387377 -5.36096478
vt 1.84549928 -5.10975599
vt 1.84549928 -4.85677147
vt 1.78224874 -5.43653059
vt 1.84549928 -4.69395638
vt 1.78224874 -5.4929533
vt 1.75108814 -5.49299622
vt 1.84549928 -4.524014
vt 1.78224862 -5.63035202
vt 1.75108814 -5.63035202
vt 1.78399134 -5.67670059
vt 1.75108814 -5.67676401
vt 1.75111997 -5.72594738
vt 1.81387377 -5.63035202
vt 1.81387377 -5.49299145
vt 1.84549928 -4.38089514
vt 1.81387377 -5.43662167
vt 1.84549928 -4.1261816
vt 1.84549928 -4.03177118
vt 1.84549928 -5.360919
vt 1.87712407 -4.12617445
vt 1.84549928 -3.73939896
vt 1.87712407 -4.03177881
vt 1.87712407 -3.46194506
vt 1.87712407 -3.73940039
vt 1.90874958 -2.94404078
vt 1.90874958 -3.46194506
vt 1.94037461 -2.94404078
vt 1.97200012 -2.94404078
vt 1.99930441 -2.94404078
vt 1.94037461 -3.46194506
vt 1.97200012 -3.46194506
vt 1.99930441 -3.46194506
vt 1.90874958 -3.73940134
vt 1.90874958 -4.03178358
vt 1.94037461 -3.73940134
vt 1.97200012 -3.73940039
vt 1.99930441 -3.73939943
vt 1.99930441 -4.03177404
vt 1.97200012 -4.03178072
vt 1.99930441 -4.12616587
vt 1.94037461 -4.03178406
vt 1.90874958 -4.12617016
vt 1.97200012 -4.12616777
vt 1.94037461 -4.12616968
vt 1.87712407 -4.38094521
vt 1.97200012 -4.38091516
vt 1.99930441 -4.38087463
vt 1.90874958 -4.38096762
vt 1.90874958 -4.52401733
vt 1.87712407 -4.52401352
vt 1.94037461 -4.38096285
vt 1.87712407 -4.69395399
vt 1.97200012 -4.52403498
vt 1.99930441 -4.52404451
vt 1.99930441 -4.69397354
vt 1.94037461 -4.52402353
vt 1.97200012 -4.69397211
vt 1.94037461 -4.69396877
vt 1.97200012 -4.85675526
vt 1.99930441 -4.8567543
vt 1.87712407 -4.85677338
vt 1.90874958 -4.69395924
vt 1.90874958 -4.85676813
vt 1.94037461 -4.85675859
vt 1.97200012 -5.10975599
vt 1.99930441 -5.10975599
vt 1.94037461 -5.10975599
vt 1.87712407 -5.10975599
vt 1.90874958 -5.10975599
vt 1.87712407 -5.36079407
vt 1.97200012 -5.36118317
vt 1.99930441 -5.36118507
vt 1.90874958 -5.36111212
vt 1.94037461 -5.36115217
vt 1.84549928 -5.43666697
vt 1.97200012 -5.4364028
vt 1.99930441 -5.43640089
vt 1.99930441 -5.49299383
vt 1.87712407 -5.43679237
vt 1.90874958 -5.43647432
vt 1.94037461 -5.43643427
vt 1.97200012 -5.49293232
vt 1.99930441 -5.63035202
vt 1.84549928 -5.49299717
vt 1.87712407 -5.49301338
vt 1.90874958 -5.49297667
vt 1.94037461 -5.49297047
vt 1.97200012 -5.63035202
vt 1.99930441 -5.67878771
vt 1.84549928 -5.63035202
vt 1.87712407 -5.63035202
vt 1.90874958 -5.63035202
vt 1.94037461 -5.63035202
vt 1.97499323 -5.67672253
vt 1.99930441 -5.71452904
vt 1.88525927 -5.67668581
vt 1.81812453 -5.67672729
vt 1.91527021 -5.67638111
vt 1.94517553 -5.67617321
vt 1.97421801 -5.7113986
vt 1.99930441 -5.73805666
vt 1.91804409 -5.71133184
vt 1.89193606 -5.71925163
vt 1.85572875 -5.67654705
vt 1.94738567 -5.70988226
vt 1.97349024 -5.73571539
vt 1.94931054 -5.73464632
vt 1.97146964 -5.75324965
vt 1.99930441 -5.75378466
vt 1.92368436 -5.73846245
vt 1.95153761 -5.75299358
vt 1.97146964 -5.75324965
vt 1.99930441 -5.75378466
vt 1.97146964 -5.75324965
vt 1.99930441 -5.75378466
vt 1.95153761 -5.75299358
vt 1.95153761 -5.75299358
vt 1.93194568 -5.75267553
vt 1.93194568 -5.75267553
vt 1.91073847 -5.74740028
vt 1.93194568 -5.75267553
vt 1.91073847 -5.74740028
vt 1.88920677 -5.74113798
vt 1.91073847 -5.74740028
vt 1.88920677 -5.74113798
vt 1.85701871 -5.73869705
vt 1.88920677 -5.74113798
vt 1.85701871 -5.73869705
vt 1.82758975 -5.73999929
vt 1.85701871 -5.73869705
vt 1.82758975 -5.73999929
vt 1.79671454 -5.74385548
vt 1.85352957 -5.71533823
vt 1.79671454 -5.74385548
vt 1.75111997 -5.75298643
vt 1.75111997 -5.75298643
vt 1.82758975 -5.73999929
vt 1.81976604 -5.71673727
vt 1.79671454 -5.74385548
vt 1.75111997 -5.75298643
vt 1.78636765 -5.72062302
vt 0.785841942 0.338029891
vt 0.794184804 0.335488945
vt 0.789487123 0.335031569
vt 0.79672575 0.343831748
vt 0.797183096 0.339134097
vt 0.788382888 0.346372694
vt 0.785384595 0.342727542
vt 0.793080568 0.34683007
g submesh0
f 1/1 2/2 3/3
f 2/2 1/1 4/4
f 4/4 5/5 2/2
f 6/6 4/4 1/1
f 5/5 4/4 7/7
f 7/7 8/8 5/5
f 4/4 6/6 9/9
f 9/9 7/7 4/4
f 10/10 9/9 6/6
f 8/8 7/7 11/11
f 11/11 12/12 8/8
f 9/9 10/10 13/13
f 14/14 13/13 10/10
f 13/13 14/14 15/15
f 7/7 9/9 16/16
f 13/13 16/16 9/9
f 16/16 11/11 7/7
f 15/15 17/17 13/13
f 16/16 13/13 17/17
f 17/17 15/15 18/18
f 12/12 11/11 19/19
f 19/19 20/20 12/12
f 11/11 16/16 21/21
f 17/17 21/21 16/16
f 21/21 19/19 11/11
f 18/18 22/22 17/17
f 21/21 17/17 22/22
f 22/22 18/18 23/23
f 20/20 19/19 24/24
f 24/24 25/25 20/20
f 19/19 21/21 26/26
f 22/22 26/26 21/21
f 26/26 24/24 19/19
f 23/23 27/27 22/22
f 26/26 22/22 27/27
f 27/27 23/23 28/28
f 24/24 26/26 29/29
f 27/27 29/29 26/26
f 28/28 30/30 27/27
f 29/29 27/27 30/30
f 30/30 28/28 31/31
f 25/25 24/24 32/32
f 29/29 32/32 24/24
f 30/30 33/33 29/29
f 32/32 29/29 33/33
f 31/31 34/34 30/30
f 33/33 30/30 34/34
f 34/34 31/31 35/35
f 36/36 34/34 35/35
f 37/37 25/25 32/32
f 25/25 37/37 38/38
f 37/37 39/39 38/38
f 40/40 32/32 33/33
f 32/32 40/40 37/37
f 41/41 33/33 34/34
f 34/34 36/36 41/41
f 33/33 41/41 40/40
f 39/39 37/37 42/42
f 40/40 42/42 37/37
f 42/42 43/43 39/39
f 36/36 44/44 41/41
f 44/44 36/36 45/45
f 41/41 46/46 40/40
f 42/42 40/40 46/46
f 46/46 41/41 44/44
f 43/43 42/42 47/47
f 46/46 47/47 42/42
f 47/47 48/48 43/43
f 45/45 49/49 44/44
f 49/49 45/45 50/50
f 44/44 51/51 46/46
f 47/47 46/46 51/51
f 51/51 44/44 49/49
f 48/48 47/47 52/52
f 51/51 52/52 47/47
f 52/52 53/53 48/48
f 50/50 54/54 49/49
f 54/54 50/50 55/55
f 49/49 56/56 51/51
f 52/52 51/51 56/56
f 56/56 49/49 54/54
f 53/53 52/52 57/57
f 56/56 57/57 52/52
f 55/55 58/58 54/54
f 58/58 55/55 59/59
f 60/60 58/58 59/59
f 54/54 61/61 56/56
f 61/61 54/54 58/58
f 57/57 56/56 61/61
f 62/62 53/53 57/57
f 53/53 62/62 63/63
f 62/62 64/64 63/63
f 65/65 61/61 58/58
f 58/58 60/60 65/65
f 66/66 57/57 61/61
f 57/57 66/66 62/62
f 61/61 65/65 66/66
f 64/64 62/62 67/67
f 67/67 68/68 64/64
f 67/67 62/62 69/69
f 66/66 69/69 62/62
f 68/68 67/67 70/70
f 69/69 70/70 67/67
f 71/71 68/68 70/70
f 68/68 71/71 72/72
f 73/73 72/72 71/71
f 72/72 73/73 74/74
f 75/75 74/74 73/73
f 74/74 75/75 76/76
f 75/75 77/77 76/76
f 77/77 75/75 78/78
f 78/78 79/79 77/77
f 73/73 80/80 75/75
f 80/80 78/78 75/75
f 71/71 81/81 73/73
f 80/80 73/73 81/81
f 70/70 82/82 71/71
f 81/81 71/71 82/82
f 70/70 69/69 83/83
f 82/82 70/70 83/83
f 84/84 83/83 69/69
f 69/69 66/66 84/84
f 84/84 66/66 85/85
f 65/65 85/85 66/66
f 83/83 84/84 86/86
f 85/85 86/86 84/84
f 83/83 87/87 82/82
f 87/87 83/83 86/86
f 82/82 88/88 81/81
f 88/88 82/82 87/87
f 81/81 89/89 80/80
f 89/89 81/81 88/88
f 86/86 85/85 90/90
f 90/90 87/87 86/86
f 85/85 65/65 91/91
f 91/91 90/90 85/85
f 91/91 65/65 92/92
f 60/60 92/92 65/65
f 90/90 91/91 93/93
f 92/92 93/93 91/91
f 87/87 90/90 94/94
f 93/93 94/94 90/90
f 87/87 95/95 88/88
f 95/95 87/87 94/94
f 92/92 60/60 96/96
f 96/96 60/60 97/97
f 93/93 92/92 98/98
f 96/96 98/98 92/92
f 97/97 99/99 96/96
f 98/98 96/96 99/99
f 99/99 97/97 100/100
f 94/94 93/93 101/101
f 98/98 101/101 93/93
f 99/99 102/102 98/98
f 101/101 98/98 102/102
f 100/100 103/103 99/99
f 102/102 99/99 103/103
f 103/103 100/100 104/104
f 105/105 103/103 104/104
f 103/103 105/105 106/106
f 106/106 102/102 103/103
f 107/107 106/106 105/105
f 108/108 94/94 101/101
f 94/94 108/108 95/95
f 109/109 101/101 102/102
f 102/102 106/106 109/109
f 101/101 109/109 108/108
f 106/106 107/107 110/110
f 110/110 109/109 106/106
f 111/111 110/110 107/107
f 112/112 108/108 109/109
f 109/109 110/110 112/112
f 110/110 111/111 113/113
f 113/113 112/112 110/110
f 114/114 113/113 111/111
f 115/115 95/95 108/108
f 108/108 112/112 115/115
f 113/113 114/114 116/116
f 117/117 116/116 114/114
f 112/112 113/113 118/118
f 118/118 115/115 112/112
f 116/116 118/118 113/113
f 116/116 117/117 119/119
f 120/120 119/119 117/117
f 118/118 116/116 121/121
f 119/119 121/121 116/116
f 119/119 120/120 122/122
f 123/123 122/122 120/120
f 95/95 115/115 124/124
f 124/124 88/88 95/95
f 88/88 124/124 89/89
f 115/115 118/118 125/125
f 121/121 125/125 118/118
f 121/121 119/119 126/126
f 122/122 126/126 119/119
f 122/122 123/123 127/127
f 128/128 127/127 123/123
f 115/115 129/129 124/124
f 129/129 115/115 125/125
f 125/125 121/121 130/130
f 126/126 130/130 121/121
f 130/130 129/129 125/125
f 124/124 131/131 89/89
f 131/131 124/124 129/129
f 126/126 122/122 132/132
f 127/127 132/132 122/122
f 130/130 126/126 133/133
f 132/132 133/133 126/126
f 129/129 130/130 134/134
f 133/133 134/134 130/130
f 135/135 129/129 134/134
f 129/129 135/135 131/131
f 136/136 89/89 131/131
f 89/89 136/136 80/80
f 78/78 80/80 136/136
f 134/134 133/133 137/137
f 137/137 135/135 134/134
f 133/133 132/132 138/138
f 138/138 137/137 133/133
f 132/132 127/127 139/139
f 139/139 138/138 132/132
f 140/140 131/131 135/135
f 131/131 140/140 136/136
f 136/136 141/141 78/78
f 141/141 136/136 140/140
f 79/79 78/78 141/141
f 142/142 140/140 135/135
f 135/135 137/137 142/142
f 143/143 79/79 141/141
f 79/79 143/143 144/144
f 143/143 145/145 144/144
f 146/146 141/141 140/140
f 141/141 146/146 143/143
f 140/140 142/142 146/146
f 145/145 143/143 147/147
f 146/146 147/147 143/143
f 147/147 148/148 145/145
f 142/142 149/149 146/146
f 147/147 146/146 149/149
f 148/148 147/147 150/150
f 149/149 150/150 147/147
f 150/150 151/151 148/148
f 137/137 152/152 142/142
f 149/149 142/142 152/152
f 150/150 149/149 153/153
f 152/152 153/153 149/149
f 151/151 150/150 154/154
f 153/153 154/154 150/150
f 154/154 155/155 151/151
f 152/152 137/137 156/156
f 137/137 138/138 156/156
f 157/157 156/156 138/138
f 138/138 139/139 157/157
f 158/158 152/152 156/156
f 156/156 157/157 158/158
f 153/153 152/152 159/159
f 152/152 158/158 159/159
f 154/154 153/153 160/160
f 159/159 160/160 153/153
f 155/155 154/154 161/161
f 160/160 161/161 154/154
f 158/158 162/162 159/159
f 160/160 159/159 162/162
f 157/157 163/163 158/158
f 162/162 158/158 163/163
f 162/162 164/164 160/160
f 161/161 160/160 164/164
f 165/165 155/155 161/161
f 155/155 165/165 166/166
f 139/139 167/167 157/157
f 163/163 157/157 167/167
f 163/163 168/168 162/162
f 164/164 162/162 168/168
f 169/169 161/161 164/164
f 161/161 169/169 165/165
f 170/170 166/166 165/165
f 166/166 170/170 171/171
f 172/172 171/171 170/170
f 171/171 172/172 173/173
f 172/172 174/174 173/173
f 165/165 175/175 170/170
f 175/175 165/165 169/169
f 175/175 172/172 170/170
f 164/164 176/176 169/169
f 176/176 164/164 168/168
f 168/168 163/163 177/177
f 167/167 177/177 163/163
f 169/169 178/178 175/175
f 178/178 169/169 176/176
f 168/168 179/179 176/176
f 179/179 168/168 177/177
f 174/174 172/172 180/180
f 172/172 181/181 180/180
f 180/180 182/182 174/174
f 172/172 175/175 183/183
f 178/178 183/183 175/175
f 181/181 172/172 183/183
f 182/182 180/180 184/184
f 181/181 184/184 180/180
f 184/184 185/185 182/182
f 185/185 184/184 186/186
f 186/186 187/187 185/185
f 176/176 188/188 178/178
f 188/188 176/176 179/179
f 183/183 178/178 189/189
f 189/189 181/181 183/183
f 184/184 190/190 186/186
f 184/184 181/181 190/190
f 187/187 186/186 191/191
f 191/191 192/192 187/187
f 192/192 191/191 193/193
f 194/194 191/191 186/186
f 190/190 194/194 186/186
f 195/195 193/193 191/191
f 191/191 194/194 195/195
f 193/193 195/195 196/196
f 197/197 194/194 190/190
f 197/197 195/195 194/194
f 198/198 196/196 195/195
f 195/195 197/197 198/198
f 196/196 198/198 199/199
f 197/197 190/190 200/200
f 181/181 200/200 190/190
f 200/200 198/198 197/197
f 201/201 199/199 198/198
f 198/198 200/200 201/201
f 199/199 201/201 202/202
f 200/200 181/181 203/203
f 181/181 189/189 203/203
f 204/204 201/201 200/200
f 203/203 204/204 200/200
f 205/205 202/202 201/201
f 201/201 204/204 205/205
f 202/202 205/205 206/206
f 207/207 206/206 205/205
f 206/206 207/207 208/208
f 189/189 209/209 203/203
f 204/204 203/203 209/209
f 210/210 205/205 204/204
f 205/205 210/210 207/207
f 211/211 204/204 209/209
f 189/189 211/211 209/209
f 204/204 211/211 210/210
f 212/212 208/208 207/207
f 208/208 212/212 213/213
f 211/211 189/189 214/214
f 178/178 214/214 189/189
f 214/214 178/178 188/188
f 215/215 210/210 211/211
f 214/214 215/215 211/211
f 216/216 207/207 210/210
f 207/207 216/216 212/212
f 210/210 215/215 216/216
f 217/217 213/213 212/212
f 213/213 217/217 218/218
f 219/219 212/212 216/216
f 215/215 219/219 216/216
f 212/212 219/219 217/217
f 188/188 220/220 214/214
f 215/215 214/214 220/220
f 221/221 218/218 217/217
f 218/218 221/221 222/222
f 219/219 215/215 223/223
f 220/220 223/223 215/215
f 224/224 217/217 219/219
f 217/217 224/224 221/221
f 223/223 224/224 219/219
f 225/225 222/222 221/221
f 222/222 225/225 226/226
f 221/221 227/227 225/225
f 227/227 221/221 224/224
f 224/224 228/228 227/227
f 220/220 188/188 229/229
f 179/179 229/229 188/188
f 223/223 220/220 230/230
f 229/229 230/230 220/220
f 224/224 223/223 231/231
f 228/228 224/224 231/231
f 230/230 231/231 223/223
f 232/232 228/228 231/231
f 231/231 230/230 232/232
f 228/228 232/232 233/233
f 232/232 234/234 233/233
f 229/229 179/179 235/235
f 177/177 235/235 179/179
f 230/230 229/229 236/236
f 236/236 232/232 230/230
f 235/235 236/236 229/229
f 234/234 232/232 237/237
f 232/232 236/236 237/237
f 235/235 177/177 238/238
f 177/177 167/167 238/238
f 236/236 235/235 239/239
f 239/239 237/237 236/236
f 238/238 239/239 235/235
f 240/240 234/234 237/237
f 237/237 239/239 240/240
f 234/234 240/240 241/241
f 242/242 238/238 167/167
f 167/167 139/139 242/242
f 239/239 238/238 243/243
f 243/243 240/240 239/239
f 238/238 242/242 243/243
f 244/244 241/241 240/240
f 240/240 243/243 244/244
f 241/241 244/244 245/245
f 244/244 128/128 245/245
f 139/139 246/246 242/242
f 246/246 243/243 242/242
f 243/243 246/246 244/244
f 128/128 244/244 246/246
f 246/246 139/139 127/127
f 127/127 128/128 246/246
f 247/247 248/248 249/249
f 248/248 247/247 250/250
f 250/250 251/251 248/248
f 252/252 250/250 247/247
f 251/251 250/250 253/253
f 253/253 254/254 251/251
f 250/250 252/252 255/255
f 255/255 253/253 250/250
f 256/256 255/255 252/252
f 254/254 253/253 257/257
f 257/257 258/258 254/254
f 255/255 256/256 259/259
f 260/260 259/259 256/256
f 259/259 260/260 261/261
f 253/253 255/255 262/262
f 259/259 262/262 255/255
f 262/262 257/257 253/253
f 261/261 263/263 259/259
f 262/262 259/259 263/263
f 263/263 261/261 264/264
f 258/258 257/257 265/265
f 265/265 266/266 258/258
f 257/257 262/262 267/267
f 263/263 267/267 262/262
f 267/267 265/265 257/257
f 264/264 268/268 263/263
f 267/267 263/263 268/268
f 268/268 264/264 269/269
f 266/266 265/265 270/270
f 270/270 271/271 266/266
f 265/265 267/267 272/272
f 268/268 272/272 267/267
f 272/272 270/270 265/265
f 269/269 273/273 268/268
f 272/272 268/268 273/273
f 273/273 269/269 274/274
f 270/270 272/272 275/275
f 273/273 275/275 272/272
f 274/274 276/276 273/273
f 275/275 273/273 276/276
f 276/276 274/274 277/277
f 271/271 270/270 278/278
f 275/275 278/278 270/270
f 276/276 279/279 275/275
f 278/278 275/275 279/279
f 277/277 280/280 276/276
f 279/279 276/276 280/280
f 280/280 277/277 281/281
f 282/282 280/280 281/281
f 283/283 271/271 278/278
f 271/271 283/283 284/284
f 283/283 285/285 284/284
f 286/286 279/279 280/280
f 280/280 282/282 286/286
f 287/287 278/278 279/279
f 278/278 287/287 283/283
f 279/279 286/286 287/287
f 285/285 283/283 288/288
f 287/287 288/288 283/283
f 288/288 289/289 285/285
f 282/282 290/290 286/286
f 290/290 282/282 291/291
f 286/286 292/292 287/287
f 288/288 287/287 292/292
f 292/292 286/286 290/290
f 289/289 288/288 293/293
f 292/292 293/293 288/288
f 293/293 294/294 289/289
f 291/291 295/295 290/290
f 295/295 291/291 296/296
f 290/290 297/297 292/292
f 293/293 292/292 297/297
f 297/297 290/290 295/295
f 294/294 293/293 298/298
f 297/297 298/298 293/293
f 298/298 299/299 294/294
f 296/296 300/300 295/295
f 300/300 296/296 301/301
f 295/295 302/302 297/297
f 298/298 297/297 302/302
f 302/302 295/295 300/300
f 299/299 298/298 303/303
f 302/302 303/303 298/298
f 301/301 304/304 300/300
f 304/304 301/301 305/305
f 306/306 304/304 305/305
f 300/300 307/307 302/302
f 307/307 300/300 304/304
f 303/303 302/302 307/307
f 308/308 299/299 303/303
f 299/299 308/308 309/309
f 308/308 310/310 309/309
f 311/311 307/307 304/304
f 304/304 306/306 311/311
f 312/312 303/303 307/307
f 303/303 312/312 308/308
f 307/307 311/311 312/312
f 310/310 308/308 313/313
f 313/313 314/314 310/310
f 313/313 308/308 315/315
f 312/312 315/315 308/308
f 314/314 313/313 316/316
f 315/315 316/316 313/313
f 316/316 317/317 314/314
f 315/315 312/312 318/318
f 316/316 315/315 319/319
f 318/318 319/319 315/315
f 317/317 316/316 320/320
f 319/319 320/320 316/316
f 318/318 312/312 321/321
f 311/311 321/321 312/312
f 319/319 318/318 322/322
f 321/321 322/322 318/318
f 323/323 317/317 320/320
f 317/317 323/323 324/324
f 320/320 319/319 325/325
f 322/322 325/325 319/319
f 320/320 326/326 323/323
f 326/326 320/320 325/325
f 327/327 324/324 323/323
f 324/324 327/327 328/328
f 329/329 323/323 326/326
f 323/323 329/329 327/327
f 330/330 328/328 327/327
f 328/328 330/330 331/331
f 332/332 327/327 329/329
f 327/327 332/332 330/330
f 333/333 331/331 330/330
f 331/331 333/333 334/334
f 335/335 330/330 332/332
f 330/330 335/335 333/333
f 336/336 334/334 333/333
f 334/334 336/336 337/337
f 338/338 333/333 335/335
f 333/333 338/338 336/336
f 339/339 337/337 336/336
f 337/337 339/339 340/340
f 341/341 336/336 338/338
f 336/336 341/341 339/339
f 342/342 340/340 339/339
f 340/340 342/342 343/343
f 344/344 339/339 341/341
f 339/339 344/344 342/342
f 345/345 343/343 342/342
f 343/343 345/345 346/346
f 345/345 347/347 346/346
f 348/348 342/342 344/344
f 342/342 348/348 345/345
f 341/341 349/349 344/344
f 349/349 348/348 344/344
f 338/338 350/350 341/341
f 349/349 341/341 350/350
f 347/347 345/345 351/351
f 348/348 351/351 345/345
f 350/350 338/338 352/352
f 335/335 352/352 338/338
f 353/353 347/347 351/351
f 347/347 353/353 354/354
f 352/352 335/335 355/355
f 332/332 355/355 335/335
f 356/356 354/354 353/353
f 354/354 356/356 357/357
f 358/358 357/357 356/356
f 357/357 358/358 359/359
f 358/358 360/360 359/359
f 353/353 361/361 356/356
f 361/361 358/358 356/356
f 351/351 362/362 353/353
f 361/361 353/353 362/362
f 355/355 332/332 363/363
f 329/329 363/363 332/332
f 362/362 351/351 364/364
f 351/351 348/348 364/364
f 363/363 329/329 365/365
f 326/326 365/365 329/329
f 365/365 326/326 366/366
f 325/325 366/366 326/326
f 367/367 364/364 348/348
f 348/348 349/349 367/367
f 368/368 363/363 365/365
f 366/366 368/368 365/365
f 366/366 325/325 369/369
f 325/325 322/322 369/369
f 368/368 366/366 370/370
f 369/369 370/370 366/366
f 371/371 369/369 322/322
f 322/322 321/321 371/371
f 370/370 369/369 372/372
f 369/369 371/371 372/372
f 373/373 371/371 321/321
f 321/321 311/311 373/373
f 371/371 373/373 374/374
f 374/374 372/372 371/371
f 373/373 311/311 375/375
f 375/375 374/374 373/373
f 306/306 375/375 311/311
f 375/375 306/306 376/376
f 376/376 306/306 377/377
f 374/374 375/375 378/378
f 376/376 378/378 375/375
f 377/377 379/379 376/376
f 378/378 376/376 379/379
f 379/379 377/377 380/380
f 372/372 374/374 381/381
f 378/378 381/381 374/374
f 372/372 382/382 370/370
f 382/382 372/372 381/381
f 379/379 383/383 378/378
f 381/381 378/378 383/383
f 380/380 384/384 379/379
f 383/383 379/379 384/384
f 384/384 380/380 385/385
f 386/386 384/384 385/385
f 384/384 386/386 387/387
f 387/387 383/383 384/384
f 388/388 387/387 386/386
f 389/389 381/381 383/383
f 383/383 387/387 389/389
f 381/381 389/389 382/382
f 390/390 370/370 382/382
f 370/370 390/390 368/368
f 387/387 388/388 391/391
f 391/391 389/389 387/387
f 392/392 382/382 389/389
f 382/382 392/392 390/390
f 389/389 391/391 392/392
f 390/390 393/393 368/368
f 363/363 368/368 393/393
f 388/388 394/394 391/391
f 394/394 388/388 395/395
f 392/392 396/396 390/390
f 393/393 390/390 396/396
f 397/397 393/393 396/396
f 398/398 363/363 393/393
f 393/393 397/397 398/398
f 363/363 398/398 355/355
f 391/391 399/399 392/392
f 396/396 392/392 399/399
f 399/399 391/391 394/394
f 399/399 397/397 396/396
f 400/400 355/355 398/398
f 397/397 400/400 398/398
f 355/355 400/400 352/352
f 395/395 401/401 394/394
f 401/401 395/395 402/402
f 403/403 401/401 402/402
f 394/394 404/404 399/399
f 404/404 394/394 401/401
f 397/397 399/399 404/404
f 401/401 403/403 405/405
f 405/405 404/404 401/401
f 406/406 397/397 404/404
f 404/404 405/405 406/406
f 403/403 407/407 405/405
f 407/407 403/403 408/408
f 409/409 352/352 400/400
f 352/352 409/409 350/350
f 400/400 397/397 410/410
f 397/397 406/406 410/410
f 411/411 400/400 410/410
f 406/406 411/411 410/410
f 400/400 411/411 409/409
f 405/405 412/412 406/406
f 412/412 405/405 407/407
f 411/411 406/406 412/412
f 408/408 413/413 407/407
f 413/413 408/408 414/414
f 407/407 415/415 412/412
f 415/415 411/411 412/412
f 415/415 407/407 413/413
f 416/416 350/350 409/409
f 350/350 416/416 349/349
f 417/417 409/409 411/411
f 409/409 417/417 416/416
f 411/411 415/415 417/417
f 418/418 349/349 416/416
f 417/417 418/418 416/416
f 349/349 418/418 367/367
f 414/414 419/419 413/413
f 419/419 414/414 420/420
f 415/415 421/421 417/417
f 418/418 417/417 421/421
f 413/413 422/422 415/415
f 422/422 413/413 419/419
f 421/421 415/415 422/422
f 418/418 423/423 367/367
f 364/364 367/367 423/423
f 420/420 424/424 419/419
f 424/424 420/420 425/425
f 426/426 424/424 425/425
f 421/421 427/427 418/418
f 423/423 418/418 427/427
f 422/422 428/428 421/421
f 427/427 421/421 428/428
f 419/419 429/429 422/422
f 429/429 419/419 424/424
f 428/428 422/422 429/429
f 424/424 426/426 430/430
f 430/430 429/429 424/424
f 431/431 430/430 426/426
f 432/432 364/364 423/423
f 364/364 432/432 362/362
f 433/433 423/423 427/427
f 423/423 433/433 432/432
f 434/434 427/427 428/428
f 427/427 434/434 433/433
f 435/435 428/428 429/429
f 429/429 430/430 435/435
f 428/428 435/435 434/434
f 430/430 431/431 436/436
f 436/436 435/435 430/430
f 437/437 436/436 431/431
f 438/438 362/362 432/432
f 362/362 438/438 361/361
f 439/439 432/432 433/433
f 432/432 439/439 438/438
f 440/440 433/433 434/434
f 433/433 440/440 439/439
f 441/441 434/434 435/435
f 435/435 436/436 441/441
f 434/434 441/441 440/440
f 436/436 437/437 442/442
f 443/443 442/442 437/437
f 440/440 444/444 439/439
f 444/444 438/438 439/439
f 438/438 445/445 361/361
f 358/358 361/361 445/445
f 441/441 446/446 440/440
f 444/444 440/440 446/446
f 436/436 447/447 441/441
f 446/446 441/441 447/447
f 447/447 436/436 442/442
f 442/442 443/443 448/448
f 449/449 448/448 443/443
f 447/447 450/450 446/446
f 450/450 444/444 446/446
f 444/444 450/450 451/451
f 438/438 444/444 452/452
f 445/445 438/438 452/452
f 451/451 452/452 444/444
f 442/442 453/453 447/447
f 453/453 442/442 448/448
f 450/450 447/447 453/453
f 448/448 449/449 454/454
f 454/454 453/453 448/448
f 455/455 450/450 453/453
f 453/453 454/454 455/455
f 449/449 456/456 454/454
f 456/456 449/449 457/457
f 450/450 455/455 458/458
f 458/458 451/451 450/450
f 454/454 459/459 455/455
f 459/459 454/454 456/456
f 459/459 458/458 455/455
f 457/457 460/460 456/456
f 460/460 457/457 461/461
f 461/461 462/462 460/460
f 462/462 461/461 463/463
f 464/464 460/460 462/462
f 465/465 456/456 460/460
f 460/460 464/464 465/465
f 456/456 465/465 459/459
f 466/466 465/465 464/464
f 465/465 466/466 467/467
f 467/467 459/459 465/465
f 468/468 467/467 466/466
f 458/458 459/459 469/469
f 459/459 467/467 469/469
f 467/467 468/468 470/470
f 470/470 469/469 467/467
f 471/471 470/470 468/468
f 472/472 458/458 469/469
f 469/469 470/470 472/472
f 451/451 458/458 472/472
f 470/470 471/471 473/473
f 473/473 472/472 470/470
f 474/474 473/473 471/471
f 472/472 473/473 475/475
f 472/472 475/475 451/451
f 473/473 474/474 476/476
f 476/476 475/475 473/473
f 477/477 476/476 474/474
f 478/478 451/451 475/475
f 475/475 476/476 478/478
f 476/476 477/477 479/479
f 479/479 478/478 476/476
f 480/480 479/479 477/477
f 451/451 478/478 481/481
f 452/452 451/451 481/481
f 479/479 480/480 482/482
f 483/483 482/482 480/480
f 482/482 483/483 484/484
f 478/478 479/479 485/485
f 485/485 481/481 478/478
f 482/482 485/485 479/479
f 486/486 452/452 481/481
f 481/481 485/485 486/486
f 452/452 486/486 445/445
f 484/484 487/487 482/482
f 485/485 482/482 487/487
f 487/487 486/486 485/485
f 487/487 484/484 488/488
f 360/360 487/487 488/488
f 489/489 445/445 486/486
f 486/486 487/487 489/489
f 487/487 360/360 489/489
f 445/445 489/489 358/358
f 360/360 358/358 489/489
f 490/490 491/491 492/492
f 490/490 493/493 491/491
f 491/491 493/493 494/494
f 490/490 495/495 493/493
f 490/490 496/496 495/495
f 493/493 495/495 497/497
