# pine_dead_b_COL
v -0.156476825 -0.531494319 -0.271709859
v 0.0821795166 -0.0131912529 -0.222254634
v 0.157176211 -0.531494319 -0.272229433
v -0.149630576 -0.0277931206 -0.221926525
v -0.313653111 -0.531494319 0.000519544585
v 0.197908759 0.00105788454 -0.0213974826
v 0.313653111 -0.531494319 -0.000519629684
v -0.26565358 -0.0281414762 -0.0207048226
v -0.157176256 -0.531494319 0.272229433
v 0.0818893388 0.000707952888 0.179754406
v 0.15647687 -0.531494319 0.271709859
v -0.1498622 -0.0138894534 0.180120468
v 0.0403415486 1.02712023 -0.212350518
v 0.152197331 1.02376997 -0.0193172656
v -0.182786539 1.02777851 -0.212053001
v -0.294058919 1.02508616 -0.0187222604
v 0.0409249812 1.02107763 0.174013495
v -0.182203129 1.02173579 0.174310997
v 0.0935207754 1.80273199 -0.235872641
v 0.199149877 1.79113638 -0.0487542711
v -0.120998055 1.82433021 -0.237591669
v -0.229887858 1.83433235 -0.0521923006
v 0.0902600735 1.80113876 0.136645094
v -0.124258794 1.82273662 0.134926096
v 0.162629083 2.55040789 -0.247306362
v 0.264507353 2.54504871 -0.0674881935
v -0.0438982248 2.56054783 -0.248981953
v -0.148547336 2.56532764 -0.0708393604
v 0.159858257 2.54982877 0.110654391
v -0.046669092 2.55996847 0.1089788
v 0.191977769 3.29270506 -0.275858402
v 0.288596272 3.2901144 -0.103211552
v -0.00554062612 3.30571103 -0.278604656
v -0.106440544 3.3161273 -0.10870409
v 0.187696397 3.30052996 0.0666890442
v -0.0098220408 3.31353664 0.0639427677
v 0.236761853 4.11854935 -0.317465156
v 0.328882813 4.12056494 -0.153484762
v 0.0485221148 4.11913157 -0.319948167
v -0.0475967117 4.12172985 -0.158450767
v 0.232764035 4.12316227 0.0080126673
v 0.044524245 4.12374544 0.00552965328
v 0.211705148 5.09440136 -0.341939777
v 0.297509879 5.09923458 -0.187849417
v 0.0356013849 5.08884859 -0.344965845
v -0.05469767 5.08812761 -0.193901569
v 0.207210854 5.09851408 -0.0367851369
v 0.0311070587 5.09296083 -0.0398111902
v 0.184295014 5.96095943 -0.380615383
v 0.262156218 5.97820473 -0.235876352
v 0.0204035081 5.93827629 -0.384475887
v -0.0656793416 5.93283987 -0.243495837
v 0.176189914 5.97277641 -0.094910793
v 0.0122525664 5.95009375 -0.0986632779
v 0.0922516957 6.59461164 -0.13159591
v -0.0646468699 6.58785486 -0.135817513
v -0.139857873 6.58920288 -0.27423805
v -0.0581703 6.59730577 -0.408436984
v 0.173939258 6.60271597 -0.265794873
v 0.0987282544 6.60406256 -0.404215425
v -0.0634571165 7.21318483 -0.122698806
v -0.134801492 7.22006226 -0.253532737
v -0.0569507107 7.22852039 -0.380503416
v 0.0857380778 7.21476555 -0.118835554
v 0.0922444537 7.23010159 -0.376640171
v 0.163588881 7.22322416 -0.245806232
v -0.135188386 8.11129475 -0.201295599
v -0.063032873 8.12145329 -0.318107724
v -0.070212163 8.11643505 -0.0791884959
v 0.0669195652 8.13173389 -0.0738935322
v 0.0740988255 8.13675117 -0.312812805
v 0.139075071 8.14189148 -0.190705672
v -0.215935364 8.90805626 -0.218507528
v -0.148173496 8.91326904 -0.326357096
v -0.157219917 8.91725826 -0.105750442
v -0.030742662 8.931674 -0.100842923
v -0.0216962881 8.92768383 -0.321449608
v 0.0370191634 8.93688679 -0.208692506
v -0.220439643 9.23293018 -0.239627942
v -0.153885305 9.22314072 -0.343275875
v -0.164098486 9.22934914 -0.129415035
v -0.0412029438 9.21598053 -0.122850016
v -0.0309897996 9.20977116 -0.336710811
v 0.0253514014 9.20619106 -0.226497933
v -0.168249398 9.67502594 -0.235937566
v -0.104269944 9.6690979 -0.334680855
v -0.11490684 9.67229271 -0.130955264
v 0.0024151816 9.66363049 -0.124716215
v 0.013052051 9.66043568 -0.328441799
v 0.0663946345 9.65770245 -0.223459512
v -0.109458074 10.3104553 -0.180381387
v -0.0486968793 10.3255091 -0.270799488
v -0.0610656589 10.2888069 -0.0843293965
v 0.0480879582 10.2822132 -0.0786955357
v 0.0604567192 10.3189144 -0.265165657
v 0.108849138 10.297267 -0.169113666
v -0.037919648 11.1009216 -0.060321454
v 0.0173367243 11.1107626 -0.142154619
v 0.00572974142 11.0855694 0.027262127
v 0.104635507 11.0800581 0.0330125466
v 0.116242453 11.1052513 -0.136404201
v 0.159891859 11.0899 -0.0488206223
v -0.049305737 11.8625813 -0.0852649659
v -0.000634493306 11.8596115 -0.159695089
v -0.00903545041 11.8698626 -0.00598864909
v 0.0799060836 11.8741798 -0.00114244118
v 0.0883070156 11.8639278 -0.154848874
v 0.128577322 11.871212 -0.0755725577
v -0.0494184867 12.4702072 -0.0772918463
v -0.00550150545 12.4672251 -0.145589396
v -0.0130211972 12.461277 -0.00519005535
v 0.0672930703 12.4493628 -0.00138581812
v 0.074812755 12.4553108 -0.141785175
v 0.111210048 12.4463787 -0.0696833655
v 0.0592847988 13.2362499 0.00264442526
v 0.0990641639 13.2365379 -0.0566849783
v 0.0900281817 13.2266283 0.0659792945
v 0.160550937 13.2172937 0.0699847564
v 0.169586897 13.2272034 -0.0526795276
v 0.200330317 13.2175817 0.010655337
v 0.0225774944 14.0860529 0.0668893978
v 0.0575235896 14.0889254 0.0185275041
v 0.046981588 14.0823603 0.121259727
v 0.106331766 14.0815382 0.127268165
v 0.116873756 14.0881052 0.0245359447
v 0.14127785 14.0844116 0.0789062828
v 0.0365460105 14.7167377 0.0722239539
v 0.00928360131 14.7109184 0.109732538
v 0.0280020144 14.7114515 0.152457193
v 0.0739828199 14.717802 0.15767327
v 0.101245217 14.7236223 0.120164685
v 0.0825268254 14.7230892 0.0774400383
v 0.0427257083 15.0562553 0.124457642
v 0.0202409141 15.0555334 0.157476634
v 0.0374698117 15.0510864 0.193259463
v 0.077183485 15.0473633 0.196023256
v 0.0824394003 15.0525312 0.127221435
v 0.0996682942 15.0480852 0.16300422
v 0.0562566891 15.436903 0.148752242
v 0.0379529521 15.4353876 0.175270692
v 0.0517112724 15.4328032 0.2041623
v 0.0837766156 15.431735 0.206530795
v 0.0883163884 15.4358358 0.151120231
v 0.102077939 15.4332514 0.180007175
v 0.0511633754 15.870059 0.239490479
v 0.0642655939 15.8739738 0.221105933
v 0.0871122405 15.8734083 0.222879961
v 0.0968642905 15.8689251 0.243038014
v 0.0837662518 15.8650074 0.261428893
v 0.0609119274 15.8655758 0.259655386
v 0.0733206421 16.3373394 0.315335125
v 0.0859165266 16.3362179 0.316248804
v 0.0661020726 16.3363953 0.325715542
v 0.0912938416 16.3341465 0.32754299
v 0.0840752795 16.3332024 0.337923378
v 0.0714793876 16.3343239 0.337009728
g submesh0
f 1 2 3
f 2 1 4
f 5 4 1
f 6 3 2
f 3 6 7
f 4 5 8
f 9 8 5
f 10 7 6
f 7 10 11
f 11 12 9
f 8 9 12
f 12 11 10
f 4 13 2
f 2 14 6
f 14 2 13
f 8 15 4
f 13 4 15
f 12 16 8
f 15 8 16
f 6 17 10
f 17 6 14
f 10 18 12
f 16 12 18
f 18 10 17
f 15 19 13
f 13 20 14
f 20 13 19
f 16 21 15
f 19 15 21
f 18 22 16
f 21 16 22
f 14 23 17
f 23 14 20
f 17 24 18
f 22 18 24
f 24 17 23
f 21 25 19
f 19 26 20
f 26 19 25
f 22 27 21
f 25 21 27
f 24 28 22
f 27 22 28
f 20 29 23
f 29 20 26
f 23 30 24
f 28 24 30
f 30 23 29
f 27 31 25
f 25 32 26
f 32 25 31
f 28 33 27
f 31 27 33
f 30 34 28
f 33 28 34
f 26 35 29
f 35 26 32
f 29 36 30
f 34 30 36
f 36 29 35
f 33 37 31
f 31 38 32
f 38 31 37
f 34 39 33
f 37 33 39
f 36 40 34
f 39 34 40
f 32 41 35
f 41 32 38
f 35 42 36
f 40 36 42
f 42 35 41
f 39 43 37
f 37 44 38
f 44 37 43
f 40 45 39
f 43 39 45
f 42 46 40
f 45 40 46
f 38 47 41
f 47 38 44
f 41 48 42
f 46 42 48
f 48 41 47
f 45 49 43
f 43 50 44
f 50 43 49
f 46 51 45
f 49 45 51
f 48 52 46
f 51 46 52
f 44 53 47
f 53 44 50
f 47 54 48
f 54 47 53
f 52 48 54
f 50 55 53
f 55 54 53
f 56 52 54
f 54 55 56
f 57 51 52
f 52 56 57
f 58 49 51
f 51 57 58
f 49 59 50
f 55 50 59
f 49 58 60
f 59 49 60
f 55 61 56
f 56 62 57
f 62 56 61
f 57 63 58
f 63 57 62
f 59 64 55
f 61 55 64
f 58 65 60
f 65 58 63
f 60 66 59
f 64 59 66
f 66 60 65
f 61 67 62
f 62 68 63
f 68 62 67
f 64 69 61
f 67 61 69
f 66 70 64
f 69 64 70
f 63 71 65
f 71 63 68
f 65 72 66
f 70 66 72
f 72 65 71
f 69 73 67
f 67 74 68
f 74 67 73
f 70 75 69
f 73 69 75
f 72 76 70
f 75 70 76
f 68 77 71
f 77 68 74
f 71 78 72
f 76 72 78
f 78 71 77
f 75 79 73
f 73 80 74
f 80 73 79
f 76 81 75
f 79 75 81
f 78 82 76
f 81 76 82
f 74 83 77
f 83 74 80
f 77 84 78
f 82 78 84
f 84 77 83
f 81 85 79
f 79 86 80
f 86 79 85
f 82 87 81
f 85 81 87
f 84 88 82
f 87 82 88
f 80 89 83
f 89 80 86
f 83 90 84
f 88 84 90
f 90 83 89
f 87 91 85
f 85 92 86
f 92 85 91
f 88 93 87
f 91 87 93
f 90 94 88
f 93 88 94
f 86 95 89
f 95 86 92
f 89 96 90
f 94 90 96
f 96 89 95
f 93 97 91
f 91 98 92
f 98 91 97
f 94 99 93
f 97 93 99
f 96 100 94
f 99 94 100
f 92 101 95
f 101 92 98
f 95 102 96
f 100 96 102
f 102 95 101
f 99 103 97
f 97 104 98
f 104 97 103
f 100 105 99
f 103 99 105
f 102 106 100
f 105 100 106
f 98 107 101
f 107 98 104
f 101 108 102
f 106 102 108
f 108 101 107
f 105 109 103
f 103 110 104
f 110 103 109
f 106 111 105
f 109 105 111
f 108 112 106
f 111 106 112
f 104 113 107
f 113 104 110
f 107 114 108
f 112 108 114
f 114 107 113
f 111 115 109
f 109 116 110
f 116 109 115
f 112 117 111
f 115 111 117
f 114 118 112
f 117 112 118
f 110 119 113
f 119 110 116
f 113 120 114
f 118 114 120
f 120 113 119
f 117 121 115
f 115 122 116
f 122 115 121
f 118 123 117
f 121 117 123
f 120 124 118
f 123 118 124
f 116 125 119
f 125 116 122
f 119 126 120
f 124 120 126
f 126 119 125
f 121 127 122
f 123 128 121
f 127 121 128
f 124 129 123
f 128 123 129
f 126 130 124
f 129 124 130
f 125 131 126
f 130 126 131
f 122 132 125
f 132 122 127
f 131 125 132
f 128 133 127
f 129 134 128
f 133 128 134
f 130 135 129
f 134 129 135
f 131 136 130
f 135 130 136
f 127 137 132
f 137 127 133
f 132 138 131
f 136 131 138
f 138 132 137
f 134 139 133
f 135 140 134
f 139 134 140
f 136 141 135
f 140 135 141
f 138 142 136
f 141 136 142
f 133 143 137
f 143 133 139
f 137 144 138
f 142 138 144
f 144 137 143
f 145 139 140
f 141 145 140
f 146 143 139
f 139 145 146
f 147 144 143
f 143 146 147
f 148 142 144
f 144 147 148
f 149 141 142
f 142 148 149
f 145 141 150
f 141 149 150
f 145 151 146
f 146 152 147
f 152 146 151
f 151 145 153
f 150 153 145
f 151 153 152
f 147 154 148
f 154 147 152
f 155 148 154
f 152 155 154
f 148 155 149
f 152 153 155
f 149 156 150
f 153 150 156
f 155 153 156
f 156 149 155
