# pipe_pile_a_COL
v -1.71456218 0.0993259996 -0.0806815401
v -1.72758114 0.147005096 0.0306144021
v 1.27488267 0.147005096 0.381856859
v 1.28790355 0.0993259996 0.270561129
v -1.72010255 -0.0127320951 -0.0333223492
v 1.2823633 -0.0127320951 0.317920327
v -1.7331214 0.034948945 0.0779728368
v 1.26934242 0.0349489413 0.429215312
v -1.72758114 0.147005096 0.0306144021
v 1.27488267 0.147005096 0.381856859
v -1.7331214 0.034948945 0.0779728368
v -1.72758114 0.147005096 0.0306144021
v -1.71456218 0.0993259996 -0.0806815401
v -1.72010255 -0.0127320951 -0.0333223492
v 1.2823633 -0.0127320951 0.317920327
v 1.28790355 0.0993259996 0.270561129
v 1.27488267 0.147005096 0.381856859
v 1.26934242 0.0349489413 0.429215312
v -1.27448261 0.153206825 0.179209039
v -1.29299498 0.064619571 0.26052931
v 1.65189695 0.0646129847 0.943278968
v 1.67045736 0.153213352 0.86174345
v -1.25480342 0.0696600974 0.0927615985
v 1.69008863 0.0696535036 0.775511205
v -1.27336431 -0.0189401582 0.17429702
v 1.67157578 -0.0189336762 0.856831491
v -1.29299498 0.064619571 0.26052931
v 1.65189695 0.0646129847 0.943278968
v -1.29299498 0.064619571 0.26052931
v -1.27448261 0.153206825 0.179209039
v -1.25480342 0.0696600974 0.0927615985
v -1.27336431 -0.0189401582 0.17429702
v 1.69008863 0.0696535036 0.775511205
v 1.67045736 0.153213352 0.86174345
v 1.65189695 0.0646129847 0.943278968
v 1.67157578 -0.0189336762 0.856831491
v -1.24297297 0.332726628 0.1466766
v 1.76193786 0.0612028837 -0.0881371275
v -1.25193751 0.240474716 0.0652025193
v 1.77091265 0.153376698 -0.00632720161
v 1.77035987 0.0714318156 0.0859656408
v -1.24351561 0.250703782 0.239305392
v -1.25249016 0.158530027 0.157495558
v 1.76139522 -0.0208200216 0.00449171988
v 1.76193786 0.0612028837 -0.0881371275
v -1.25193751 0.240474716 0.0652025193
v 1.76193786 0.0612028837 -0.0881371275
v 1.77091265 0.153376698 -0.00632720161
v 1.77035987 0.0714318156 0.0859656408
v 1.76139522 -0.0208200216 0.00449171988
v -1.24351561 0.250703782 0.239305392
v -1.24297297 0.332726628 0.1466766
v -1.25193751 0.240474716 0.0652025193
v -1.25249016 0.158530027 0.157495558
v 1.30544329 0.0671363994 -0.0534869991
v 1.30578184 0.15454115 -0.140727594
v -1.71722317 0.154541105 -0.140262395
v -1.71756339 0.0671363771 -0.0527907014
v 1.30578184 -0.0202683937 -0.140727654
v -1.71722329 -0.0202683471 -0.140262321
v -1.71688461 0.0671362951 -0.227502823
v 1.30612206 0.0671364367 -0.228199214
v -1.71722317 0.154541105 -0.140262395
v 1.30578184 0.15454115 -0.140727594
v 1.30578184 0.15454115 -0.140727594
v 1.30544329 0.0671363994 -0.0534869991
v 1.30578184 -0.0202683937 -0.140727654
v 1.30612206 0.0671364367 -0.228199214
v -1.71722329 -0.0202683471 -0.140262321
v -1.71756339 0.0671363771 -0.0527907014
v -1.71722317 0.154541105 -0.140262395
v -1.71688461 0.0671362951 -0.227502823
v 1.14856327 0.147718459 -0.714752018
v 1.11241782 0.0963003263 -0.820311129
v -1.7593646 0.326399058 0.0979982764
v -1.7233187 0.37840569 0.203116253
v 1.1556766 0.0361329913 -0.663011968
v -1.71610582 0.266231716 0.255297422
v -1.75225139 0.214813784 0.149738178
v 1.11963069 -0.0158735197 -0.768130004
v -1.7593646 0.326399058 0.0979982764
v 1.11241782 0.0963003263 -0.820311129
v 1.14856327 0.147718459 -0.714752018
v 1.1556766 0.0361329913 -0.663011968
v 1.11963069 -0.0158735197 -0.768130004
v 1.11241782 0.0963003263 -0.820311129
v -1.7233187 0.37840569 0.203116253
v -1.7593646 0.326399058 0.0979982764
v -1.75225139 0.214813784 0.149738178
v -1.71610582 0.266231716 0.255297422
vt 1.00000095 0.338867933
vt 1.00000095 0.321408212
vt -3.67514758E-06 0.321408212
vt -3.67514758E-06 0.338867933
vt 1.00000095 0.356306404
vt -3.67514758E-06 0.356306404
vt 1.00000095 0.373755574
vt -3.67514758E-06 0.373755574
vt 1.00000095 0.38866201
vt -3.69548798E-06 0.38866201
vt 0.791621923 0.129005402
vt 0.745570898 0.133585468
vt 0.736410499 0.110559955
vt 0.782461524 0.105979897
vt 0.782461524 0.105979897
vt 0.736410499 0.110559955
vt 0.745570898 0.133585468
vt 0.791621923 0.129005402
vt 1.00000095 0.334507555
vt 1.00000095 0.317046344
vt -3.67514758E-06 0.317046344
vt -3.67514758E-06 0.334507555
vt 1.00000095 0.351946771
vt -3.67514758E-06 0.351946771
vt 1.00000095 0.369389057
vt -3.67514758E-06 0.369389057
vt 1.00000095 0.384663612
vt -3.67514758E-06 0.384663612
vt 0.757539034 0.136064202
vt 0.731453061 0.116544142
vt 0.770493269 0.103501186
vt 0.796579242 0.123021275
vt 0.770493269 0.103501186
vt 0.731453061 0.116544142
vt 0.757539034 0.136064202
vt 0.796579242 0.123021275
vt -3.67514758E-06 0.341047734
vt 1.00000095 0.323594123
vt -3.67514758E-06 0.323594123
vt 1.00000095 0.341047734
vt 1.00000095 0.358486146
vt -3.67514758E-06 0.358486146
vt -3.67514758E-06 0.375939995
vt 1.00000095 0.375939995
vt 1.00042534 0.390801936
vt 0.000420625729 0.390801966
vt 0.740079761 0.131750971
vt 0.740079761 0.107814364
vt 0.787952781 0.107814364
vt 0.787952781 0.131750971
vt 0.787952781 0.107814364
vt 0.740079761 0.107814364
vt 0.740079761 0.131750971
vt 0.787952781 0.131750971
vt 1.00000095 0.332326978
vt 1.00000095 0.314870358
vt -3.67514758E-06 0.314870358
vt -3.67514758E-06 0.332326978
vt 1.00000095 0.34976691
vt -3.67514758E-06 0.34976691
vt -3.67514758E-06 0.367207021
vt 1.00000095 0.367207021
vt -3.67514758E-06 0.384663612
vt 1.00000095 0.384663612
vt 0.764016151 0.136708438
vt 0.730164826 0.119782723
vt 0.764016151 0.102856949
vt 0.797867477 0.119782723
vt 0.764016151 0.102856949
vt 0.730164826 0.119782723
vt 0.764016151 0.136708438
vt 0.797867477 0.119782723
vt 1.00000095 0.332326978
vt 1.00000095 0.314870358
vt -3.67514758E-06 0.314870358
vt -3.67514758E-06 0.332326978
vt 1.00000095 0.34976691
vt -3.67514758E-06 0.34976691
vt -3.67514758E-06 0.367207021
vt 1.00000095 0.367207021
vt -3.67514758E-06 0.384663612
vt 1.00000095 0.384663612
vt 0.730164826 0.119782723
vt 0.764016151 0.102856949
vt 0.797867477 0.119782723
vt 0.764016151 0.136708438
vt 0.730164826 0.119782723
vt 0.764016151 0.136708438
vt 0.797867477 0.119782723
vt 0.764016151 0.102856949
g submesh0
f 1/1 2/2 3/3
f 1/1 3/3 4/4
f 5/5 1/1 4/4
f 5/5 4/4 6/6
f 7/7 5/5 6/6
f 7/7 6/6 8/8
f 9/9 7/7 8/8
f 9/9 8/8 10/10
f 11/11 12/12 13/13
f 11/11 13/13 14/14
f 15/15 16/16 17/17
f 15/15 17/17 18/18
f 19/19 20/20 21/21
f 19/19 21/21 22/22
f 23/23 19/19 22/22
f 23/23 22/22 24/24
f 25/25 23/23 24/24
f 25/25 24/24 26/26
f 26/26 27/27 25/25
f 26/26 28/28 27/27
f 29/29 30/30 31/31
f 29/29 31/31 32/32
f 33/33 34/34 35/35
f 33/33 35/35 36/36
f 37/37 38/38 39/39
f 37/37 40/40 38/38
f 41/41 40/40 37/37
f 41/41 37/37 42/42
f 43/43 41/41 42/42
f 43/43 44/44 41/41
f 45/45 44/44 43/43
f 45/45 43/43 46/46
f 47/47 48/48 49/49
f 47/47 49/49 50/50
f 51/51 52/52 53/53
f 51/51 53/53 54/54
f 55/55 56/56 57/57
f 55/55 57/57 58/58
f 59/59 55/55 58/58
f 59/59 58/58 60/60
f 61/61 59/59 60/60
f 61/61 62/62 59/59
f 63/63 62/62 61/61
f 63/63 64/64 62/62
f 65/65 66/66 67/67
f 65/65 67/67 68/68
f 69/69 70/70 71/71
f 69/69 71/71 72/72
f 73/73 74/74 75/75
f 73/73 75/75 76/76
f 77/77 73/73 76/76
f 77/77 76/76 78/78
f 79/79 77/77 78/78
f 79/79 80/80 77/77
f 81/81 80/80 79/79
f 81/81 82/82 80/80
f 83/83 84/84 85/85
f 83/83 85/85 86/86
f 87/87 88/88 89/89
f 87/87 89/89 90/90
