# portacabin_building_300_600_a_glass_COL
v -2.93972373 2.30484176 -0.319019079
v -2.93972397 1.14172447 -0.319020331
v -2.93972349 1.14198816 -1.19805849
v -2.93972373 2.30484223 -1.19805872
v -2.98472166 1.14198804 -1.19805849
v -2.98472166 1.14172435 -0.319020301
v -2.98472166 2.30484152 -0.319019079
v -2.98472166 2.30484176 -1.19805884
v -2.93972373 2.30249476 1.18241775
v -2.93972349 1.1480546 1.18241501
v -2.93972349 1.1480546 0.29674986
v -2.93972373 2.302495 0.296749413
v -2.98472095 1.1480546 1.18241525
v -2.98472166 2.30249405 1.18241799
v -2.98472166 2.30249476 0.296749413
v -2.98472095 1.1480546 0.296750009
v 2.93974352 2.30484104 0.319019347
v 2.939744 1.14172363 0.31902054
v 2.939744 1.1419872 1.19805872
v 2.939744 2.30484128 1.19805908
v 2.98474145 1.14198709 1.19805872
v 2.98474145 1.14172351 0.31902051
v 2.98474145 2.30484056 0.319019347
v 2.98474169 2.30484104 1.1980592
v 2.93974304 2.30249405 -1.18241751
v 2.93974257 1.14805377 -1.18241477
v 2.93974257 1.14805377 -0.296749651
v 2.93974328 2.30249405 -0.296749145
v 2.98474026 1.14805377 -1.18241501
v 2.98474073 2.30249333 -1.18241763
v 2.98474121 2.30249381 -0.296749145
v 2.98474073 1.14805377 -0.2967498
v 1.81901968 2.3048408 -1.43973351
v 1.81902039 1.14172339 -1.43973339
v 2.69805837 1.14198661 -1.43973327
v 2.69805932 2.30484056 -1.43973374
v 2.69805837 1.14198649 -1.48473108
v 1.81902039 1.14172316 -1.48473096
v 1.81901968 2.30484033 -1.48473144
v 2.69805956 2.30484033 -1.48473155
v -2.68241692 2.302495 -1.43973374
v -2.68241477 1.1480546 -1.43973291
v -1.79674959 1.14805412 -1.43973315
v -1.79674864 2.30249476 -1.43973386
v -2.68241501 1.1480546 -1.48473084
v -2.68241692 2.30249405 -1.48473155
v -1.79674864 2.30249453 -1.48473167
v -1.79674971 1.14805412 -1.48473096
vt 0.5 1
vt 0.5 0
vt 2.52231548E-05 0
vt 2.52231548E-05 1
vt 2.52231548E-05 0
vt 0.5 0
vt 0.5 1
vt 2.52231548E-05 1
vt 1.00000012 1
vt 1.00000012 0
vt 0.5 0
vt 0.5 1
vt 1.00000012 0
vt 1.00000012 1
vt 0.5 1
vt 0.5 0
vt 0.5 1
vt 0.5 0
vt 2.52231548E-05 0
vt 2.52231548E-05 1
vt 2.52231548E-05 0
vt 0.5 0
vt 0.5 1
vt 2.52231548E-05 1
vt 1.00000012 1
vt 1.00000012 0
vt 0.5 0
vt 0.5 1
vt 1.00000012 0
vt 1.00000012 1
vt 0.5 1
vt 0.5 0
vt 0.5 1.00000048
vt 0.5 -5.59985638E-05
vt 0.000221305338 2.47061253E-05
vt -0.000170826912 0.999999523
vt -0.000169849518 5.59985638E-05
vt 0.5 -1.97589397E-05
vt 0.5 1.00000048
vt -0.000170826912 0.999999523
vt 1 1
vt 1 0
vt 0.499830484 0
vt 0.500415623 1
vt 1 0
vt 1 1
vt 0.500415623 1
vt 0.499830484 0
g submesh0
f 1/1 2/2 3/3
f 1/1 3/3 4/4
f 5/5 6/6 7/7
f 5/5 7/7 8/8
f 9/9 10/10 11/11
f 9/9 11/11 12/12
f 13/13 14/14 15/15
f 13/13 15/15 16/16
f 17/17 18/18 19/19
f 17/17 19/19 20/20
f 21/21 22/22 23/23
f 21/21 23/23 24/24
f 25/25 26/26 27/27
f 25/25 27/27 28/28
f 29/29 30/30 31/31
f 29/29 31/31 32/32
f 33/33 34/34 35/35
f 33/33 35/35 36/36
f 37/37 38/38 39/39
f 37/37 39/39 40/40
f 41/41 42/42 43/43
f 41/41 43/43 44/44
f 45/45 46/46 47/47
f 45/45 47/47 48/48
