# power_generator_a_COL
v 0.497538596 0.799732447 1.19361603
v 0.497538596 0.603003204 0.995208442
v 0.497538596 0.599999905 0.798232257
v -0.497538596 0.799732447 1.19361603
v -0.497538596 0.599999905 0.798232317
v -0.497538656 0.603003204 0.995208442
v 0.492469251 0.0260695647 0.793160975
v 0.492469251 0.0260696411 -1.19316113
v 0.497538596 0.599999905 0.798232257
v 0.509913087 1.59823227 -1.21060669
v 0.497538596 1.59734833 1.19291866
v 0.497538596 0.799732447 1.19361603
v 0.497538596 0.603003204 0.995208442
v -0.497538596 0.799732447 1.19361603
v -0.497538656 0.603003204 0.995208442
v 0.497538596 0.799732447 1.19361603
v 0.497538596 1.59734833 1.19291866
v -0.497538596 1.59734833 1.19291878
v 0.509913087 1.59823227 -1.21060669
v 0.492469251 0.0260696411 -1.19316113
v -0.492469251 0.0260695647 -1.19316113
v -0.509913087 1.59823227 -1.21060669
v 0.497538596 0.599999905 0.798232257
v 0.497538596 0.603003204 0.995208442
v -0.497538656 0.603003204 0.995208442
v -0.497538596 0.599999905 0.798232317
v -0.497538596 1.59734833 1.19291878
v 0.497538596 1.59734833 1.19291866
v 0.509913087 1.59823227 -1.21060669
v -0.509913087 1.59823227 -1.21060669
v 0.624179006 -1.58867053E-08 0.887065947
v 0.624180019 8.57608473E-09 -1.28707409
v 0.62293005 0.0260697082 -1.28582406
v 0.622929096 0.0260696765 0.885816038
v -0.622929156 0.0260696765 0.885816097
v -0.624179125 -1.58867053E-08 0.887065947
v 0.624179006 -1.58867053E-08 0.887065947
v -0.62293011 0.0260697082 -1.28582406
v 0.624180019 8.57608473E-09 -1.28707409
v -0.624180138 8.57608473E-09 -1.28707409
v -0.624179125 -1.58867053E-08 0.887065947
v -0.624180138 8.57608473E-09 -1.28707409
v 0.497538596 0.599999905 0.798232257
v -0.497538596 0.599999905 0.798232317
v -0.492469192 0.0260694884 0.793160975
v 0.492469251 0.0260695647 0.793160975
v -0.492469192 0.0260694884 0.793160975
v -0.497538596 0.599999905 0.798232317
v -0.492469251 0.0260695647 -1.19316113
v -0.509913087 1.59823227 -1.21060669
v -0.497538596 1.59734833 1.19291878
v -0.497538596 0.799732447 1.19361603
vt 0.81535387 0.418815672
vt 0.869705975 0.363541186
vt 0.870054483 0.308123469
vt 1.81535387 0.418815672
vt 1.87005448 0.308123469
vt 1.86970592 0.363541186
vt 0.572194397 -0.0374057516
vt 0.0169132277 -0.0374057293
vt 0.573613167 0.0157912895
vt 0.0120312274 0.299035609
vt 0.68395716 0.29874143
vt 0.684147239 0.0724559054
vt 0.594908476 0.00513970712
vt 0.883053422 0.0861609876
vt 0.882930458 0.0054111369
vt 0.595072985 0.0861974955
vt 0.594864249 0.305427849
vt 0.883366704 0.305375993
vt 0.596338153 0.592696667
vt 0.591338992 0.251989484
vt 0.31183219 0.251989484
vt 0.306859136 0.592696667
vt 1.58638895 0.647751272
vt 1.6416477 0.647746444
vt 1.64166379 0.92905587
vt 1.58640993 0.929066777
vt -0.0946820676 0.6486274
vt -0.0946820006 0.926213503
vt 0.576959491 0.929665327
vt 0.576961279 0.645175338
vt 0.627652287 0.597827435
vt 0.0180953275 0.597827435
vt 0.0184354447 0.605098248
vt 0.627310753 0.605101824
vt 0.627310753 0.605101824
vt 0.634610116 0.604680538
vt 0.634610116 0.604680538
vt 0.0184354447 0.605098248
vt 0.0111368904 0.604675651
vt 0.0111368904 0.604675651
vt 0.627652287 0.597827435
vt 0.0180953275 0.597827435
vt 0.558970094 0.673280358
vt 0.273547441 0.673280358
vt 0.275028735 0.756577253
vt 0.557459712 0.756577253
vt 1.01691556 -0.0374057516
vt 1.01549673 0.0157912895
vt 1.57219672 -0.0374057516
vt 1.57707858 0.299035609
vt 0.905152738 0.29874137
vt 0.904962718 0.0724558681
g submesh0
f 1/1 2/2 3/3
f 4/4 5/5 6/6
f 7/7 8/8 9/9
f 10/10 9/9 8/8
f 10/10 11/11 9/9
f 12/12 9/9 11/11
f 13/13 14/14 15/15
f 13/13 16/16 14/14
f 17/17 14/14 16/16
f 17/17 18/18 14/14
f 19/19 20/20 21/21
f 19/19 21/21 22/22
f 23/23 24/24 25/25
f 23/23 25/25 26/26
f 27/27 28/28 29/29
f 27/27 29/29 30/30
f 31/31 32/32 33/33
f 31/31 33/33 34/34
f 33/33 35/35 34/34
f 34/34 35/35 36/36
f 34/34 36/36 37/37
f 33/33 38/38 35/35
f 38/38 33/33 39/39
f 38/38 39/39 40/40
f 41/41 35/35 38/38
f 41/41 38/38 42/42
f 43/43 44/44 45/45
f 43/43 45/45 46/46
f 47/47 48/48 49/49
f 48/48 50/50 49/49
f 48/48 51/51 50/50
f 52/52 51/51 48/48
