# quarry_main_rock_COL
v -4.3935771 6.42536592 -1.14426732
v -4.63591337 6.62480021 0.40548411
v -3.95413685 6.42536592 -1.05685723
v -4.83301735 6.42536592 -1.05685723
v -3.58159733 6.42536592 -0.807934225
v -5.20555639 6.42536592 -0.807934403
v -3.33267474 6.42536592 -0.435395122
v -5.45447874 6.42536592 -0.435394913
v -3.24526453 6.42536592 0.00404516375
v -5.54189014 6.42536592 0.00404522754
v -3.3326745 6.42536592 0.443485469
v -5.45447874 6.42536592 0.44348532
v -3.58159781 6.42536592 0.816024661
v -5.20555639 6.42536592 0.816024661
v -3.95413685 6.42536592 1.06494749
v -4.83301735 6.42536592 1.06494749
v -4.3935771 6.42536592 1.15235758
g submesh0
f 1 2 3
f 4 2 1
f 3 2 5
f 6 2 4
f 5 2 7
f 8 2 6
f 7 2 9
f 10 2 8
f 9 2 11
f 12 2 10
f 11 2 13
f 14 2 12
f 13 2 15
f 16 2 14
f 15 2 17
f 17 2 16
