# ramp.75.collision
v 2.22524071 0.37877062 1.37462771
v 2.18519545 0.528222084 1.37462771
v 2.03574395 0.488176644 1.37462771
v 2.07578921 0.338725239 1.37462771
v 2.03574419 0.488176376 -1.37577999
v 2.07578969 0.338724941 -1.37577999
v 2.22524118 0.378770351 -1.37577999
v 2.18519592 0.528221786 -1.37577999
v 2.18519545 0.528222084 1.37462771
v 2.18519592 0.528221786 -1.37577999
v 2.22524071 0.37877062 1.37462771
v 2.22524118 0.378770351 -1.37577999
v 2.07578969 0.338724941 -1.37577999
v 2.07578921 0.338725239 1.37462771
v 1.0739969 0.0938922465 -1.37462521
v 1.04295647 0.232189998 -1.37462521
v 1.19392455 0.266073704 -1.37462521
v 1.22496462 0.127775952 -1.37462521
v 1.22496247 0.127774581 1.37578249
v 1.07399476 0.0938909128 1.37578249
v 1.1939224 0.266072333 1.37578249
v 1.04295433 0.232188627 1.37578249
v 1.04295433 0.232188627 1.37578249
v 1.04295647 0.232189998 -1.37462521
v 1.1939224 0.266072333 1.37578249
v 1.19392455 0.266073704 -1.37462521
v 1.22496462 0.127775952 -1.37462521
v 1.22496247 0.127774581 1.37578249
v 2.78984118 0.702986956 -1.37462401
v 2.93929291 0.743032455 -1.37462401
v 2.97933841 0.593581021 -1.37462401
v 2.82988667 0.553535581 -1.37462401
v 2.9793365 0.59358108 1.37578368
v 2.82988453 0.553535581 1.37578368
v 2.78983951 0.702987015 1.37578368
v 2.93929076 0.743032515 1.37578368
v 2.93929291 0.743032455 -1.37462401
v 2.93929076 0.743032515 1.37578368
v 2.78984118 0.702986956 -1.37462401
v 2.78983951 0.702987015 1.37578368
v 2.82988453 0.553535581 1.37578368
v 2.82988667 0.553535581 -1.37462401
v 1.96075881 0.000865631097 0.957689166
v 1.96075857 0.000865707407 0.859423816
v 2.0590241 0.000865707407 0.859423816
v 2.0590241 0.000865707407 0.957689166
v 2.05854964 0.227235675 0.95760864
v 2.05854964 0.227235675 0.859504402
v 1.96035886 0.204761669 0.957784414
v 1.96075881 0.000865631097 0.957689166
v 1.96075857 0.000865707407 0.859423816
v 1.96035886 0.204761669 0.859328568
v 2.0590241 0.000865707407 0.859423816
v 2.05854964 0.227235675 0.859504402
v 2.85216856 0.000865821843 0.957695305
v 2.95043397 0.000865974405 0.859429896
v 2.95043397 0.000865898095 0.957695305
v 2.85216856 0.000865898095 0.859429896
v 2.85171986 0.456766725 0.859320045
v 2.94988704 0.482522458 0.859520257
v 2.94988704 0.482522428 0.957603753
v 2.95043397 0.000865898095 0.957695305
v 2.85171986 0.456766695 0.957805157
v 2.85216856 0.000865821843 0.957695305
v 2.85216856 0.000865898095 0.859429896
v 2.85171986 0.456766725 0.859320045
v 1.05417717 -0.015988959 0.961967766
v 0.571578979 -0.0151340477 0.959575176
v 0.571579278 -0.0151340477 0.857537806
v 1.05417752 -0.0159888845 0.85514766
v 2.00870562 0.21319434 0.962087393
v 1.98322141 0.317212254 0.96212399
v 0.571578979 -0.0151340477 0.959575176
v 0.571579278 -0.0151340477 0.857537806
v 1.98322153 0.317212284 0.854990244
v 2.97585225 0.594325185 0.959851027
v 2.97585225 0.594325185 0.8572644
v 3.00016665 0.494634509 0.959877908
v 3.00016665 0.494634539 0.857236326
v 3.00016665 0.494634509 0.959877908
v 2.00870585 0.21319434 0.855026841
v 3.00016665 0.494634539 0.857236326
v 1.98322153 0.317212284 0.854990244
v 0.571579278 -0.0151340477 0.857537806
v 2.97585225 0.594325185 0.8572644
v 2.0590241 0.000865707407 -0.858261704
v 1.96075857 0.000865707407 -0.858261704
v 1.96075881 0.000865631097 -0.956527054
v 2.0590241 0.000865707407 -0.956527054
v 2.05854964 0.227235675 -0.956446528
v 2.05854964 0.227235675 -0.85834229
v 1.96035886 0.204761669 -0.956622303
v 1.96075881 0.000865631097 -0.956527054
v 1.96075857 0.000865707407 -0.858261704
v 1.96035886 0.204761669 -0.858166456
v 2.0590241 0.000865707407 -0.858261704
v 2.05854964 0.227235675 -0.85834229
v 2.95043397 0.000865974405 -0.858267784
v 2.85216856 0.000865821843 -0.956533194
v 2.95043397 0.000865898095 -0.956533194
v 2.85216856 0.000865898095 -0.858267784
v 2.85171986 0.456766725 -0.858157933
v 2.94988704 0.482522458 -0.858358145
v 2.94988704 0.482522428 -0.956441641
v 2.95043397 0.000865898095 -0.956533194
v 2.85171986 0.456766695 -0.956643045
v 2.85216856 0.000865821843 -0.956533194
v 2.85216856 0.000865898095 -0.858267784
v 2.85171986 0.456766725 -0.858157933
v 0.571579278 -0.0151340477 -0.856375694
v 0.571578979 -0.0151340477 -0.958413064
v 1.05417717 -0.015988959 -0.960805655
v 1.05417752 -0.0159888845 -0.853985548
v 2.00870562 0.21319434 -0.960925281
v 1.98322141 0.317212254 -0.960961878
v 0.571578979 -0.0151340477 -0.958413064
v 0.571579278 -0.0151340477 -0.856375694
v 1.98322153 0.317212284 -0.853828132
v 2.97585225 0.594325185 -0.958688915
v 2.97585225 0.594325185 -0.856102288
v 3.00016665 0.494634509 -0.958715796
v 3.00016665 0.494634539 -0.856074214
v 3.00016665 0.494634509 -0.958715796
v 2.00870585 0.21319434 -0.853864729
v 3.00016665 0.494634539 -0.856074214
v 1.98322153 0.317212284 -0.853828132
v 0.571579278 -0.0151340477 -0.856375694
v 2.97585225 0.594325185 -0.856102288
v 2.97120166 0.808981657 1.24035621
v 2.9836998 0.706719637 0.603132188
v 2.97464108 0.810078382 0.603129745
v 2.98025322 0.705621064 1.24035871
v -0.0057510375 0.0750904828 1.24035394
v -0.00221954333 0.0757822394 0.603132248
v 0.00385711668 -0.023595199 0.603132308
v 0.000326232897 -0.0242851246 1.24035144
v -0.00221954333 0.0757822394 0.603132248
v -0.0057510375 0.0750904828 1.24035394
v 1.49136984 0.396743268 1.24035883
v 1.49485445 0.397635847 0.603129804
v 2.97120166 0.808981657 1.24035621
v 2.97464108 0.810078382 0.603129745
v 2.9836998 0.706719637 0.603132188
v 2.98025322 0.705621064 1.24035871
v 1.50176299 0.299315512 0.603132248
v 1.49827421 0.298422337 1.24035144
v 0.00385711668 -0.023595199 0.603132308
v 0.000326232897 -0.0242851246 1.24035144
v 1.49485445 0.397635847 0.603129804
v 2.97464108 0.810078382 0.603129745
v 2.9836998 0.706719637 0.603132188
v 1.50176299 0.299315512 0.603132248
v -0.00221954333 0.0757822394 0.603132248
v 0.00385711668 -0.023595199 0.603132308
v 1.49136984 0.396743268 1.24035883
v 2.98025322 0.705621064 1.24035871
v 2.97120166 0.808981657 1.24035621
v 1.49827421 0.298422337 1.24035144
v -0.0057510375 0.0750904828 1.24035394
v 0.000326232897 -0.0242851246 1.24035144
v 2.97120166 0.808981359 -1.24149895
v 2.97464108 0.810078263 -0.604272485
v 2.9836998 0.706719518 -0.604274929
v 2.98025322 0.705620766 -1.24150145
v 0.00385711668 -0.0235953517 -0.604274809
v -0.00221954333 0.0757820904 -0.604274869
v -0.0057510375 0.0750901774 -1.24149644
v 0.000326232897 -0.0242854301 -1.24149406
v 1.49136984 0.39674297 -1.24150133
v -0.0057510375 0.0750901774 -1.24149644
v -0.00221954333 0.0757820904 -0.604274869
v 1.49485445 0.397635669 -0.604272425
v 2.97120166 0.808981359 -1.24149895
v 2.97464108 0.810078263 -0.604272485
v 1.50176299 0.299315393 -0.604274869
v 2.98025322 0.705620766 -1.24150145
v 2.9836998 0.706719518 -0.604274929
v 1.49827421 0.298422068 -1.24149406
v 0.00385711668 -0.0235953517 -0.604274809
v 0.000326232897 -0.0242854301 -1.24149406
v 2.9836998 0.706719518 -0.604274929
v 2.97464108 0.810078263 -0.604272485
v 1.49485445 0.397635669 -0.604272425
v 1.50176299 0.299315393 -0.604274869
v -0.00221954333 0.0757820904 -0.604274869
v 0.00385711668 -0.0235953517 -0.604274809
v 2.97120166 0.808981359 -1.24149895
v 2.98025322 0.705620766 -1.24150145
v 1.49136984 0.39674297 -1.24150133
v 1.49827421 0.298422068 -1.24149406
v -0.0057510375 0.0750901774 -1.24149644
v 0.000326232897 -0.0242854301 -1.24149406
vn 0.70710665 -0.408248365 0.577350318
vn 0.408248395 0.707106769 0.577350199
vn -0.707106769 0.408248395 0.577350199
vn -0.408248574 -0.70710665 0.577350199
vn -0.707106709 0.408248276 -0.577350259
vn -0.408248454 -0.707106709 -0.577350199
vn 0.707106769 -0.408248395 -0.577350199
vn 0.408248544 0.70710659 -0.577350259
vn 0.408248395 0.707106769 0.577350199
vn 0.408248544 0.70710659 -0.577350259
vn 0.70710665 -0.408248365 0.577350318
vn 0.707106769 -0.408248395 -0.577350199
vn -0.408248454 -0.707106709 -0.577350199
vn -0.408248574 -0.70710665 0.577350199
vn -0.436897695 -0.689772904 -0.577350676
vn -0.689772844 0.436898261 -0.577350259
vn 0.436898947 0.689772606 -0.57735002
vn 0.689772844 -0.43689844 -0.57735014
vn 0.689772367 -0.436898917 0.577350318
vn -0.436898142 -0.689773023 0.57735008
vn 0.4368985 0.689772367 0.577350676
vn -0.689773321 0.436897874 0.577349961
vn -0.689773321 0.436897874 0.577349961
vn -0.689772844 0.436898261 -0.577350259
vn 0.4368985 0.689772367 0.577350676
vn 0.436898947 0.689772606 -0.57735002
vn 0.689772844 -0.43689844 -0.57735014
vn 0.689772367 -0.436898917 0.577350318
vn -0.70710659 0.408248246 -0.577350497
vn 0.408248127 0.707106888 -0.57735014
vn 0.707107127 -0.408248007 -0.577349961
vn -0.408248156 -0.707106769 -0.577350378
vn 0.707106769 -0.408248037 0.577350378
vn -0.408248574 -0.70710665 0.57735008
vn -0.707107008 0.408248246 0.57735002
vn 0.408247739 0.707107008 0.577350318
vn 0.408248127 0.707106888 -0.57735014
vn 0.408247739 0.707107008 0.577350318
vn -0.70710659 0.408248246 -0.577350497
vn -0.707107008 0.408248246 0.57735002
vn -0.408248574 -0.70710665 0.57735008
vn -0.408248156 -0.707106769 -0.577350378
vn -0.576493621 -0.577993512 0.57756269
vn -0.576494515 -0.577992618 -0.577562571
vn 0.578261912 -0.576683283 -0.577104449
vn 0.578261971 -0.576683342 0.57710433
vn 0.759220123 0.00156887679 0.650831997
vn 0.759220123 0.00156887656 -0.650831997
vn -0.65829128 -0.00131654227 0.752762198
vn -0.576493621 -0.577993512 0.57756269
vn -0.576494515 -0.577992618 -0.577562571
vn -0.658291578 -0.00131654309 -0.752761841
vn 0.578261912 -0.576683283 -0.577104449
vn 0.759220123 0.00156887656 -0.650831997
vn -0.576699376 -0.577784538 0.577566266
vn 0.578051448 -0.5768857 -0.577113032
vn 0.578053296 -0.576884806 0.577112019
vn -0.576701581 -0.577783406 -0.577565193
vn -0.651559114 -0.000657316006 -0.758597553
vn 0.767001688 0.000857928011 -0.641644418
vn 0.767003953 0.000858765794 0.641641796
vn 0.578053296 -0.576884806 0.577112019
vn -0.651556611 -0.000656325428 0.758599639
vn -0.576699376 -0.577784538 0.577566266
vn -0.576701581 -0.577783406 -0.577565193
vn -0.651559114 -0.000657316006 -0.758597553
vn 0.0837653875 -0.723960161 0.684737265
vn -0.837957621 -0.0994970426 0.53658855
vn -0.837955952 -0.0994933993 -0.536591828
vn 0.0837669671 -0.723964095 -0.684732914
vn 0.18025963 -0.686678588 0.704257786
vn -0.174787089 0.681418717 0.710716486
vn -0.837957621 -0.0994970426 0.53658855
vn -0.837955952 -0.0994933993 -0.536591828
vn -0.174786717 0.681417644 -0.710717618
vn 0.413734317 0.705889225 0.574929953
vn 0.413736016 0.705890477 -0.574927151
vn 0.704831421 -0.410306394 0.578672111
vn 0.704829872 -0.410305679 -0.578674495
vn 0.704831421 -0.410306394 0.578672111
vn 0.180259943 -0.686679423 -0.704256952
vn 0.704829872 -0.410305679 -0.578674495
vn -0.174786717 0.681417644 -0.710717618
vn -0.837955952 -0.0994933993 -0.536591828
vn 0.413736016 0.705890477 -0.574927151
vn 0.578261912 -0.576683283 0.577104449
vn -0.576494515 -0.577992678 0.57756263
vn -0.576493621 -0.577993512 -0.57756269
vn 0.578261971 -0.576683342 -0.57710433
vn 0.759220123 0.00156887679 -0.650831997
vn 0.759220123 0.00156887656 0.650831997
vn -0.65829128 -0.00131654227 -0.752762198
vn -0.576493621 -0.577993512 -0.57756269
vn -0.576494515 -0.577992678 0.57756263
vn -0.658291578 -0.00131654309 0.752761841
vn 0.578261912 -0.576683283 0.577104449
vn 0.759220123 0.00156887656 0.650831997
vn 0.578051448 -0.5768857 0.577113032
vn -0.576699436 -0.577784538 -0.577566266
vn 0.578053296 -0.576884806 -0.577112019
vn -0.576701581 -0.577783346 0.577565134
vn -0.651559174 -0.000657316006 0.758597493
vn 0.767001688 0.000857928011 0.641644418
vn 0.767003953 0.000858765794 -0.641641796
vn 0.578053296 -0.576884806 -0.577112019
vn -0.651556611 -0.000656325545 -0.758599639
vn -0.576699436 -0.577784538 -0.577566266
vn -0.576701581 -0.577783346 0.577565134
vn -0.651559174 -0.000657316006 0.758597493
vn -0.837955952 -0.0994933993 0.536591828
vn -0.837957621 -0.0994970426 -0.53658855
vn 0.0837653875 -0.723960161 -0.684737265
vn 0.0837669671 -0.723964095 0.684732914
vn 0.18025963 -0.686678588 -0.704257786
vn -0.174787089 0.681418717 -0.710716486
vn -0.837957621 -0.0994970426 -0.53658855
vn -0.837955952 -0.0994933993 0.536591828
vn -0.174786717 0.681417644 0.710717618
vn 0.413734347 0.705889106 -0.574929893
vn 0.413736016 0.705890477 0.574927151
vn 0.704831421 -0.410306394 -0.578672111
vn 0.704829872 -0.410305679 0.578674495
vn 0.704831421 -0.410306394 -0.578672111
vn 0.180259943 -0.686679423 0.704256952
vn 0.704829872 -0.410305679 0.578674495
vn -0.174786717 0.681417644 0.710717618
vn -0.837955952 -0.0994933993 0.536591828
vn 0.413736016 0.705890477 0.574927151
vn 0.996169031 0.0872729197 0.0055329618
vn 0.996169031 0.0872729197 0.0055329618
vn 0.996169031 0.0872729123 0.00553296134
vn 0.99616915 0.0872729123 0.0055329618
vn -0.998119891 -0.0610358715 -0.00559730362
vn -0.998119891 -0.0610358752 -0.00559730316
vn -0.998119891 -0.0610358715 -0.00559730316
vn -0.998119891 -0.0610358715 -0.00559730316
vn -0.210120097 0.977675557 5.86537317E-05
vn -0.210120097 0.977675557 5.8653739E-05
vn -0.239272609 0.970952392 5.20356662E-05
vn -0.239482105 0.970900774 5.19877685E-05
vn -0.268418759 0.963302314 4.53228167E-05
vn -0.268418789 0.963302314 4.53228204E-05
vn 0.265013188 -0.964244843 -6.47399065E-05
vn 0.265013129 -0.964244843 -6.47399065E-05
vn 0.238031194 -0.971257448 -5.93883778E-05
vn 0.23783572 -0.97130537 -5.93495715E-05
vn 0.210667506 -0.977557778 -5.3951575E-05
vn 0.210667521 -0.977557778 -5.3951575E-05
vn 4.47485127E-06 -1.88498871E-05 -1
vn 6.57158853E-06 -2.38796692E-05 -1
vn 6.57158853E-06 -2.38796692E-05 -1
vn 3.96401992E-06 -1.76244757E-05 -1
vn 1.87448825E-06 -1.26119785E-05 -1
vn 1.87448791E-06 -1.26119785E-05 -1
vn 6.72392389E-06 -3.49755574E-05 1
vn 4.99192993E-06 -2.38155844E-05 1
vn 4.99192993E-06 -2.38155844E-05 1
vn 7.1456393E-06 -3.76928474E-05 1
vn 8.87168699E-06 -4.88145051E-05 1
vn 8.87168699E-06 -4.88145051E-05 1
vn 0.996169031 0.0872729197 -0.0055329809
vn 0.996169031 0.0872729197 -0.0055329809
vn 0.996169031 0.0872729197 -0.0055329809
vn 0.996169031 0.0872729197 -0.0055329809
vn -0.998119891 -0.0610358715 0.00559731713
vn -0.998119891 -0.0610358752 0.00559731759
vn -0.998119891 -0.0610358715 0.00559731806
vn -0.998119891 -0.0610358678 0.00559731759
vn -0.239272609 0.970952392 -5.22699811E-05
vn -0.210120097 0.977675557 -5.88914336E-05
vn -0.210120097 0.977675557 -5.88914299E-05
vn -0.239482105 0.970900774 -5.2222058E-05
vn -0.268418789 0.963302314 -4.55535264E-05
vn -0.268418789 0.963302314 -4.55535264E-05
vn 0.238031194 -0.971257448 5.96162754E-05
vn 0.265013129 -0.964244843 6.49642679E-05
vn 0.265013129 -0.964244843 6.49642679E-05
vn 0.23783572 -0.97130537 5.95775018E-05
vn 0.210667565 -0.977557778 5.41828558E-05
vn 0.210667565 -0.977557778 5.41828558E-05
vn 6.54473843E-06 -2.35034986E-05 1
vn 6.54473843E-06 -2.35034986E-05 1
vn 4.40927488E-06 -1.83004322E-05 1
vn 3.88900844E-06 -1.7032804E-05 1
vn 1.76088258E-06 -1.18476173E-05 1
vn 1.76088247E-06 -1.18476164E-05 1
vn 4.89110016E-06 -2.38235625E-05 -1
vn 4.89110016E-06 -2.38235643E-05 -1
vn 6.66810593E-06 -3.49799702E-05 -1
vn 7.10078029E-06 -3.76963872E-05 -1
vn 8.87168517E-06 -4.88144942E-05 -1
vn 8.87168517E-06 -4.88144942E-05 -1
vt 0.489852458 0.9018839
vt 0.489852637 0.907603741
vt 0.495572507 0.907603562
vt 0.495572299 0.901883543
vt 0.5972507 0.907603562
vt 0.5972507 0.901883543
vt 0.6029706 0.901883721
vt 0.6029706 0.907603562
vt 0.495572507 0.913323402
vt 0.597250819 0.913323402
vt 0.495572686 0.919043243
vt 0.597250879 0.919043243
vt 0.597250819 0.924763143
vt 0.495572686 0.924763143
vt 0.956749558 0.11074774
vt 0.95674926 0.115987673
vt 0.962469161 0.115987957
vt 0.962469399 0.110747926
vt 0.962469518 0.00906948
vt 0.956749618 0.00906948
vt 0.962469518 0.003829733
vt 0.956749618 0.003829733
vt 0.951509833 0.00906948
vt 0.951509833 0.11074774
vt 0.945789874 0.00906948
vt 0.945789874 0.11074774
vt 0.940550148 0.11074774
vt 0.940550089 0.00906948
vt 0.79986304 0.978485763
vt 0.799862862 0.972765982
vt 0.794143021 0.972766161
vt 0.7941432 0.978486001
vt 0.692464769 0.972766161
vt 0.692464769 0.978486001
vt 0.686744869 0.978486001
vt 0.686744869 0.972766161
vt 0.794143021 0.96704632
vt 0.69246465 0.96704632
vt 0.794142962 0.96132648
vt 0.69246465 0.96132648
vt 0.69246465 0.955606461
vt 0.794142962 0.955606461
vt 0.911055624 0.969440281
vt 0.911056161 0.973072946
vt 0.914688647 0.97307241
vt 0.914688468 0.969439626
vt 0.923056901 0.969442487
vt 0.923057258 0.973069131
vt 0.922234595 0.965810716
vt 0.914696693 0.965807378
vt 0.914696515 0.962174773
vt 0.922234416 0.962171257
vt 0.914687514 0.958542347
vt 0.923056126 0.958539009
vt 0.469841927 0.210510448
vt 0.473473281 0.206877932
vt 0.469841927 0.206877738
vt 0.473475814 0.210510358
vt 0.490331054 0.210505724
vt 0.491278857 0.206875309
vt 0.491278946 0.203249037
vt 0.473472923 0.203246132
vt 0.490331233 0.199618518
vt 0.473477304 0.199614123
vt 0.473477125 0.195981681
vt 0.490331054 0.195977658
vt 0.971401453 0.763259172
vt 0.971318424 0.745417655
vt 0.967546284 0.745417655
vt 0.967463136 0.76325804
vt 0.971428037 0.799524009
vt 0.975358963 0.799579978
vt 0.975515544 0.745944321
vt 0.979243815 0.745959342
vt 0.979312181 0.799579978
vt 0.975365937 0.837701678
vt 0.979187787 0.837686658
vt 0.975394428 0.841495156
vt 0.979189038 0.841480076
vt 0.971451879 0.837598741
vt 0.96749413 0.799524009
vt 0.967588305 0.837600648
vt 0.963540852 0.799593329
vt 0.963243783 0.745933414
vt 0.963792861 0.83773905
vt 0.914688647 0.97307241
vt 0.911056161 0.973072946
vt 0.911055624 0.969440281
vt 0.914688468 0.969439626
vt 0.923056901 0.969442487
vt 0.923057258 0.973069131
vt 0.922234595 0.965810716
vt 0.914696693 0.965807378
vt 0.914696515 0.962174773
vt 0.922234416 0.962171257
vt 0.914687514 0.958542347
vt 0.923056126 0.958539009
vt 0.473473281 0.206877932
vt 0.469841927 0.210510448
vt 0.469841927 0.206877738
vt 0.473475814 0.210510358
vt 0.490331054 0.210505724
vt 0.491278857 0.206875309
vt 0.491278946 0.203249037
vt 0.473472923 0.203246132
vt 0.490331233 0.199618518
vt 0.473477304 0.199614123
vt 0.473477125 0.195981681
vt 0.490331054 0.195977658
vt 0.967546284 0.745417655
vt 0.971318424 0.745417655
vt 0.971401453 0.763259172
vt 0.967463136 0.76325804
vt 0.971428037 0.799524009
vt 0.975358963 0.799579978
vt 0.975515544 0.745944321
vt 0.979243815 0.745959342
vt 0.979312181 0.799579978
vt 0.975365937 0.837701678
vt 0.979187787 0.837686658
vt 0.975394428 0.841495156
vt 0.979189038 0.841480076
vt 0.971451879 0.837598741
vt 0.96749413 0.799524009
vt 0.967588305 0.837600648
vt 0.963540852 0.799593329
vt 0.963243783 0.745933414
vt 0.963792861 0.83773905
vt 0.0414142199 0.671644807
vt 0.011684495 0.666633487
vt 0.0116577921 0.671479821
vt 0.0414483137 0.666798711
vt 0.0414126702 0.814983249
vt 0.0116533814 0.814869761
vt 0.0116563616 0.819619536
vt 0.041418273 0.819535494
vt 0.0116533814 0.814869761
vt 0.0414126702 0.814983249
vt 0.0414264984 0.743413866
vt 0.0116453944 0.743295372
vt 0.0414142199 0.671644807
vt 0.0116577921 0.671479821
vt 0.0116567193 0.963001847
vt 0.0414214917 0.962833881
vt 0.0116565404 0.891211271
vt 0.0414207764 0.891048908
vt 0.0116563616 0.819619536
vt 0.041418273 0.819535494
vt 0.0116453944 0.743295372
vt 0.0116577921 0.671479821
vt 0.00689538196 0.672337413
vt 0.00710077956 0.744099081
vt 0.0116533814 0.814869761
vt 0.00707383826 0.815571427
vt 0.0414264984 0.743413866
vt 0.0461580344 0.672501087
vt 0.0414142199 0.671644807
vt 0.0459721871 0.744173348
vt 0.0414126702 0.814983249
vt 0.0460072346 0.815714598
vt 0.0414142199 0.671644807
vt 0.0116577921 0.671479821
vt 0.011684495 0.666633487
vt 0.0414483137 0.666798711
vt 0.0116563616 0.819619536
vt 0.0116533814 0.814869761
vt 0.0414126702 0.814983249
vt 0.041418273 0.819535494
vt 0.0414264984 0.743413866
vt 0.0414126702 0.814983249
vt 0.0116533814 0.814869761
vt 0.0116453944 0.743295372
vt 0.0414142199 0.671644807
vt 0.0116577921 0.671479821
vt 0.0116565404 0.891211271
vt 0.0414214917 0.962833881
vt 0.0116567193 0.963001847
vt 0.0414207764 0.891048908
vt 0.0116563616 0.819619536
vt 0.041418273 0.819535494
vt 0.00689538196 0.672337413
vt 0.0116577921 0.671479821
vt 0.0116453944 0.743295372
vt 0.00710077956 0.744099081
vt 0.0116533814 0.814869761
vt 0.00707383826 0.815571427
vt 0.0414142199 0.671644807
vt 0.0461580344 0.672501087
vt 0.0414264984 0.743413866
vt 0.0459721871 0.744173348
vt 0.0414126702 0.814983249
vt 0.0460072346 0.815714598
g submesh0
f 1/1/1 2/2/2 3/3/3
f 3/3/3 4/4/4 1/1/1
f 4/4/4 3/3/3 5/5/5
f 5/5/5 6/6/6 4/4/4
f 6/6/6 5/5/5 7/7/7
f 5/5/5 8/8/8 7/7/7
f 5/5/5 3/3/3 9/9/9
f 10/10/10 5/5/5 9/9/9
f 9/9/9 11/11/11 10/10/10
f 12/12/12 10/10/10 11/11/11
f 13/13/13 12/12/12 11/11/11
f 11/11/11 14/14/14 13/13/13
f 15/15/15 16/16/16 17/17/17
f 17/17/17 18/18/18 15/15/15
f 15/15/15 18/18/18 19/19/19
f 19/19/19 20/20/20 15/15/15
f 21/21/21 20/20/20 19/19/19
f 22/22/22 20/20/20 21/21/21
f 20/20/20 23/23/23 15/15/15
f 24/24/24 15/15/15 23/23/23
f 24/24/24 23/23/23 25/25/25
f 26/26/26 24/24/24 25/25/25
f 27/27/27 26/26/26 25/25/25
f 25/25/25 28/28/28 27/27/27
f 29/29/29 30/30/30 31/31/31
f 31/31/31 32/32/32 29/29/29
f 32/32/32 31/31/31 33/33/33
f 33/33/33 34/34/34 32/32/32
f 35/35/35 34/34/34 33/33/33
f 33/33/33 36/36/36 35/35/35
f 33/33/33 31/31/31 37/37/37
f 37/37/37 38/38/38 33/33/33
f 37/37/37 39/39/39 38/38/38
f 39/39/39 40/40/40 38/38/38
f 41/41/41 40/40/40 39/39/39
f 39/39/39 42/42/42 41/41/41
f 43/43/43 44/44/44 45/45/45
f 46/46/46 43/43/43 45/45/45
f 47/47/47 46/46/46 45/45/45
f 45/45/45 48/48/48 47/47/47
f 47/47/47 49/49/49 46/46/46
f 49/49/49 50/50/50 46/46/46
f 51/51/51 50/50/50 49/49/49
f 49/49/49 52/52/52 51/51/51
f 53/53/53 51/51/51 52/52/52
f 52/52/52 54/54/54 53/53/53
f 55/55/55 56/56/56 57/57/57
f 55/55/55 58/58/58 56/56/56
f 59/59/59 56/56/56 58/58/58
f 56/56/56 59/59/59 60/60/60
f 60/60/60 61/61/61 56/56/56
f 61/61/61 62/62/62 56/56/56
f 61/61/61 63/63/63 62/62/62
f 63/63/63 64/64/64 62/62/62
f 65/65/65 64/64/64 63/63/63
f 63/63/63 66/66/66 65/65/65
f 67/67/67 68/68/68 69/69/69
f 69/69/69 70/70/70 67/67/67
f 67/67/67 70/70/70 71/71/71
f 67/67/67 71/71/71 72/72/72
f 73/73/73 67/67/67 72/72/72
f 74/74/74 73/73/73 72/72/72
f 72/72/72 75/75/75 74/74/74
f 75/75/75 72/72/72 76/76/76
f 76/76/76 77/77/77 75/75/75
f 76/76/76 78/78/78 77/77/77
f 77/77/77 78/78/78 79/79/79
f 80/80/80 76/76/76 72/72/72
f 72/72/72 71/71/71 80/80/80
f 71/71/71 81/81/81 80/80/80
f 81/81/81 71/71/71 70/70/70
f 82/82/82 80/80/80 81/81/81
f 83/83/83 81/81/81 70/70/70
f 81/81/81 83/83/83 82/82/82
f 83/83/83 70/70/70 84/84/84
f 83/83/83 85/85/85 82/82/82
f 86/86/86 87/87/87 88/88/88
f 88/88/88 89/89/89 86/86/86
f 90/90/90 86/86/86 89/89/89
f 86/86/86 90/90/90 91/91/91
f 89/89/89 92/92/92 90/90/90
f 92/92/92 89/89/89 93/93/93
f 92/92/92 93/93/93 94/94/94
f 94/94/94 95/95/95 92/92/92
f 95/95/95 94/94/94 96/96/96
f 97/97/97 95/95/95 96/96/96
f 98/98/98 99/99/99 100/100/100
f 101/101/101 99/99/99 98/98/98
f 102/102/102 101/101/101 98/98/98
f 103/103/103 102/102/102 98/98/98
f 104/104/104 103/103/103 98/98/98
f 98/98/98 105/105/105 104/104/104
f 106/106/106 104/104/104 105/105/105
f 105/105/105 107/107/107 106/106/106
f 106/106/106 107/107/107 108/108/108
f 108/108/108 109/109/109 106/106/106
f 110/110/110 111/111/111 112/112/112
f 112/112/112 113/113/113 110/110/110
f 113/113/113 112/112/112 114/114/114
f 115/115/115 114/114/114 112/112/112
f 115/115/115 112/112/112 116/116/116
f 115/115/115 116/116/116 117/117/117
f 117/117/117 118/118/118 115/115/115
f 119/119/119 115/115/115 118/118/118
f 118/118/118 120/120/120 119/119/119
f 119/119/119 120/120/120 121/121/121
f 120/120/120 122/122/122 121/121/121
f 115/115/115 119/119/119 123/123/123
f 123/123/123 114/114/114 115/115/115
f 124/124/124 114/114/114 123/123/123
f 113/113/113 114/114/114 124/124/124
f 124/124/124 123/123/123 125/125/125
f 113/113/113 124/124/124 126/126/126
f 126/126/126 124/124/124 125/125/125
f 127/127/127 113/113/113 126/126/126
f 126/126/126 125/125/125 128/128/128
f 129/129/129 130/130/130 131/131/131
f 129/129/129 132/132/132 130/130/130
f 133/133/133 134/134/134 135/135/135
f 135/135/135 136/136/136 133/133/133
f 137/137/137 138/138/138 139/139/139
f 139/139/139 140/140/140 137/137/137
f 140/140/140 139/139/139 141/141/141
f 141/141/141 142/142/142 140/140/140
f 143/143/143 144/144/144 145/145/145
f 146/146/146 145/145/145 144/144/144
f 147/147/147 145/145/145 146/146/146
f 146/146/146 148/148/148 147/147/147
f 149/149/149 150/150/150 151/151/151
f 151/151/151 152/152/152 149/149/149
f 153/153/153 149/149/149 152/152/152
f 152/152/152 154/154/154 153/153/153
f 155/155/155 156/156/156 157/157/157
f 156/156/156 155/155/155 158/158/158
f 159/159/159 158/158/158 155/155/155
f 159/159/159 160/160/160 158/158/158
f 161/161/161 162/162/162 163/163/163
f 163/163/163 164/164/164 161/161/161
f 165/165/165 166/166/166 167/167/167
f 167/167/167 168/168/168 165/165/165
f 169/169/169 170/170/170 171/171/171
f 171/171/171 172/172/172 169/169/169
f 173/173/173 169/169/169 172/172/172
f 172/172/172 174/174/174 173/173/173
f 175/175/175 176/176/176 177/177/177
f 175/175/175 178/178/178 176/176/176
f 179/179/179 178/178/178 175/175/175
f 179/179/179 180/180/180 178/178/178
f 181/181/181 182/182/182 183/183/183
f 183/183/183 184/184/184 181/181/181
f 184/184/184 183/183/183 185/185/185
f 185/185/185 186/186/186 184/184/184
f 187/187/187 188/188/188 189/189/189
f 190/190/190 189/189/189 188/188/188
f 191/191/191 189/189/189 190/190/190
f 192/192/192 191/191/191 190/190/190
