# ramp.75.softcollision
v 0.342954397 0.0354679897 -0.506343007
v 0.342954159 0.0354679972 0.502927899
v 2.8718648 0.694846392 0.502930999
v 2.87186527 0.694846332 -0.506340027
v 0.342954397 0.0354679897 -0.506343007
v 2.87186527 0.694846332 -0.506340027
v 2.8718648 0.694846392 0.502930999
v 0.342954159 0.0354679972 0.502927899
vn -0.252301008 0.967648864 -1.10831998E-07
vn -0.252301008 0.967648864 -1.10831998E-07
vn -0.252301008 0.967648864 -1.10831998E-07
vn -0.252301008 0.967648864 -1.10831991E-07
vn 0.252301008 -0.967648864 1.10831998E-07
vn 0.252301008 -0.967648864 1.10831991E-07
vn 0.252301008 -0.967648864 1.10831998E-07
vn 0.252301008 -0.967648864 1.10831998E-07
vt 24.0893688 9.33749866
vt 24.0887222 -0.33755219
vt -14.8212042 -0.337500751
vt -14.820694 9.33752632
vt 24.0893688 9.33749866
vt -14.820694 9.33752632
vt -14.8212042 -0.337500751
vt 24.0887222 -0.33755219
g submesh0
f 1/1/1 2/2/2 3/3/3
f 1/1/1 3/3/3 4/4/4
f 5/5/5 6/6/6 7/7/7
f 5/5/5 7/7/7 8/8/8
