# ramp.150.collision
v 0.184373334 0.0169890001 0.610712886
v 0.184373677 0.0169891529 -0.613676965
v 0.0543479249 -0.0164510757 -0.613676846
v 0.0543475598 -0.0164510757 0.610712886
v 0.129820421 -0.0404024981 0.610713184
v 0.129820779 -0.0404023454 -0.613676906
v -0.00528971851 0.0347471237 -1.29499829
v 2.9902153 0.795090675 -0.504999697
v 2.9902153 0.795090675 -1.29499948
v 2.97439241 -0.750000656 -1.17721152
v 2.97439241 -0.750000656 -0.622788846
v -0.00528919697 0.0347470455 -0.504999638
v 0.000908011687 -0.750000298 -1.182423
v 0.000908362621 -0.750000298 -0.61757493
v 1.56528211 0.344839036 0.610713243
v 1.56528258 0.344838947 -0.613676786
v 1.4352566 0.311398685 -0.613676727
v 1.43525636 0.311398685 0.610713243
v 1.51072919 0.287447512 0.610713243
v 1.51072943 0.287447542 -0.613676727
v 2.9335351 0.717133999 0.610714018
v 2.93353534 0.717133999 -0.61367619
v 2.80350971 0.683693767 -0.61367619
v 2.80350947 0.683693767 0.610714078
v 2.87898207 0.659742594 0.610714018
v 2.87898254 0.659742594 -0.61367619
v -0.00528926728 0.0347472765 0.505000591
v 2.9902153 0.795090795 1.29499924
v 2.9902153 0.795090795 0.504999459
v 2.97439241 -0.750000656 0.622787535
v 2.97439265 -0.750000656 1.17721021
v -0.00528874574 0.0347471237 1.29499936
v 0.000908462622 -0.750000298 0.617576003
v 0.000908813556 -0.750000298 1.18242419
g submesh0
f 1 2 3
f 1 3 4
f 5 2 1
f 4 3 6
f 4 6 5
f 5 6 2
f 7 8 9
f 7 9 10
f 8 10 9
f 8 11 10
f 7 12 8
f 11 8 12
f 13 10 11
f 7 10 13
f 11 12 14
f 7 14 12
f 13 11 14
f 7 13 14
f 15 16 17
f 15 17 18
f 19 16 15
f 18 17 20
f 18 20 19
f 19 20 16
f 21 22 23
f 21 23 24
f 25 22 21
f 24 23 26
f 24 26 25
f 25 26 22
f 27 28 29
f 27 29 30
f 28 30 29
f 28 31 30
f 27 32 28
f 31 28 32
f 33 30 31
f 30 33 27
f 27 34 32
f 32 34 31
f 33 31 34
f 27 33 34
