# ramp.75.collision
v 0.538032949 0.0889275819 0.610713124
v 0.538033307 0.0889275819 -0.613676906
v 0.408007383 0.0554874279 -0.613676906
v 0.408006996 0.0554873496 0.610713184
v 0.483479857 0.0315361582 0.610713124
v 0.483480215 0.0315362364 -0.613676906
v -0.0655495673 -4.10469937E-07 -1.29499829
v 2.99022031 0.782566309 -0.504999697
v 2.99022031 0.782566309 -1.29499948
v 2.97499537 -5.41032875E-07 -1.1772114
v 2.97499537 -3.88444988E-07 -0.622788787
v -0.0655490458 -4.10470022E-07 -0.504999697
v 1.69143915 0.386739075 0.610713243
v 1.69143951 0.386739045 -0.613676846
v 1.56141365 0.353298724 -0.613676846
v 1.56141329 0.353298813 0.610713243
v 1.63688612 0.329347551 0.610713243
v 1.6368866 0.329347551 -0.613676846
v 2.83530879 0.67773664 0.610714018
v 2.83530903 0.67773658 -0.61367619
v 2.7052834 0.644296408 -0.61367619
v 2.70528316 0.644296408 0.610714078
v 2.78075576 0.620345175 0.610714078
v 2.78075624 0.620345116 -0.61367619
v -0.0655491129 -2.57882135E-07 0.505000293
v -0.0655485913 -3.3417615E-07 1.294999
v 2.99022031 0.782566309 1.29499924
v 2.97499537 -3.88444988E-07 1.17721021
v 2.97499514 -4.64738946E-07 0.622787535
v 2.99022031 0.782566309 0.504999459
g submesh0
f 1 2 3
f 1 3 4
f 5 2 1
f 4 3 6
f 4 6 5
f 5 6 2
f 7 8 9
f 7 9 10
f 8 10 9
f 7 10 11
f 8 11 10
f 7 12 8
f 7 11 12
f 11 8 12
f 13 14 15
f 13 15 16
f 17 14 13
f 16 15 18
f 16 18 17
f 17 18 14
f 19 20 21
f 19 21 22
f 23 20 19
f 22 21 24
f 22 24 23
f 23 24 20
f 25 26 27
f 25 28 26
f 28 27 26
f 25 29 28
f 27 28 29
f 25 27 30
f 25 30 29
f 27 29 30
