# ramp.150.softcollision
v 2.81705904 0.671635985 0.523313046
v 2.81705928 0.671636045 -0.526394904
v 1.55083191 0.33177796 -0.526395559
v 1.55083156 0.331777871 0.523312569
v 2.81705928 0.671636045 -0.526394904
v 2.81705904 0.671635985 0.523313046
v 1.55083156 0.331777871 0.523312569
v 1.55083191 0.33177796 -0.526395559
v 1.44529641 0.304383069 0.523312986
v 1.44529665 0.304383159 -0.526394844
v 0.172446057 0.0019600105 -0.5263955
v 0.17244567 0.00195993413 0.523312688
v 1.44529665 0.304383159 -0.526394844
v 1.44529641 0.304383069 0.523312986
v 0.17244567 0.00195993413 0.523312688
v 0.172446057 0.0019600105 -0.5263955
vn -0.259227097 0.965816379 0
vn -0.259227097 0.965816379 0
vn -0.259227097 0.965816379 0
vn -0.259227127 0.965816379 0
vn 0.259227097 -0.965816379 0
vn 0.259227097 -0.965816379 0
vn 0.259227127 -0.965816379 0
vn 0.259227097 -0.965816379 0
vn -0.23116006 0.972915769 0
vn -0.231160015 0.972915769 0
vn -0.23116006 0.972915769 0
vn -0.23116006 0.972915769 0
vn 0.231160015 -0.972915769 0
vn 0.23116006 -0.972915769 0
vn 0.23116006 -0.972915769 0
vn 0.23116006 -0.972915769 0
vt 12 0
vt 0 0
vt 0 12.25741
vt 12 12.25741
vt 0 0
vt 12 0
vt 12 12.25741
vt 0 12.25741
vt 12 0
vt 0 0
vt 0 12.25741
vt 12 12.25741
vt 0 0
vt 12 0
vt 12 12.25741
vt 0 12.25741
g submesh0
f 1/1/1 2/2/2 3/3/3
f 1/1/1 3/3/3 4/4/4
f 5/5/5 6/6/6 7/7/7
f 5/5/5 7/7/7 8/8/8
f 9/9/9 10/10/10 11/11/11
f 9/9/9 11/11/11 12/12/12
f 13/13/13 14/14/14 15/15/15
f 13/13/13 15/15/15 16/16/16
