# ramp.75.softcollision
v 2.71596622 0.650287926 0.523313046
v 2.71596646 0.650287986 -0.526394963
v 1.6750778 0.380095482 -0.526395619
v 1.67507744 0.380095392 0.523312569
v 2.71596646 0.650287986 -0.526394963
v 2.71596622 0.650287926 0.523313046
v 1.67507744 0.380095392 0.523312569
v 1.6750778 0.380095482 -0.526395619
v 1.56954241 0.352700651 0.523313165
v 1.56954253 0.35270071 -0.526394844
v 0.52865386 0.0825082064 -0.5263955
v 0.528653502 0.0825081319 0.523312628
v 1.56954253 0.35270071 -0.526394844
v 1.56954241 0.352700651 0.523313165
v 0.528653502 0.0825081319 0.523312628
v 0.52865386 0.0825082064 -0.5263955
vn -0.251251787 0.967921734 0
vn -0.251251787 0.967921734 0
vn -0.251251787 0.967921734 0
vn -0.251251787 0.967921734 0
vn 0.251251787 -0.967921734 0
vn 0.251251787 -0.967921734 0
vn 0.251251787 -0.967921734 0
vn 0.251251787 -0.967921734 0
vn -0.251251787 0.967921734 0
vn -0.251251787 0.967921734 0
vn -0.251251787 0.967921734 0
vn -0.251251787 0.967921734 0
vn 0.251251787 -0.967921734 0
vn 0.251251787 -0.967921734 0
vn 0.251251787 -0.967921734 0
vn 0.251251787 -0.967921734 0
vt 12 0
vt 0 0
vt 0 11
vt 12 11
vt 0 0
vt 12 0
vt 12 11
vt 0 11
vt 12 0
vt 0 0
vt 0 11
vt 12 11
vt 0 0
vt 12 0
vt 12 11
vt 0 11
g submesh0
f 1/1/1 2/2/2 3/3/3
f 1/1/1 3/3/3 4/4/4
f 5/5/5 6/6/6 7/7/7
f 5/5/5 7/7/7 8/8/8
f 9/9/9 10/10/10 11/11/11
f 9/9/9 11/11/11 12/12/12
f 13/13/13 14/14/14 15/15/15
f 13/13/13 15/15/15 16/16/16
