# ramp.75_COL
v 2.99154782 -7.01402371E-07 -0.528485119
v -0.0084515335 1.18789067E-07 -0.475984871
v -0.00845258776 4.24954933E-08 -1.27598381
v 1.53710878 0.375109196 -0.475985289
v 2.99154782 -7.01402314E-07 -1.22348487
v 1.53710842 0.375109196 -1.27598441
v 3.02087116 0.787339032 -1.27598488
v 3.02087116 0.787338912 -0.475985706
v 2.99154782 -6.63255378E-07 1.22151482
v -0.00845214259 1.18789281E-07 1.27401519
v -0.00845228229 4.24953832E-08 0.47401619
v 1.53710854 0.375109196 1.27401495
v 2.99154782 -6.63255321E-07 0.526514947
v 1.53710842 0.375109196 0.474015772
v 3.02087116 0.787339032 0.474015653
v 3.0208714 0.787339032 1.27401471
v 2.75641847 0.611621022 -1.34574795
v 2.75641942 0.611621022 1.34377265
v 2.87108564 0.653355241 1.34377265
v 2.80603027 0.475311846 -1.34574831
v 2.80603123 0.475311548 1.34377253
v 2.92069793 0.517046452 1.34377265
v 2.87108517 0.653355598 -1.34574795
v 2.92069721 0.51704669 -1.34574795
v 2.04769158 0.412915945 -1.34574592
v 2.04769182 0.412915707 1.3437742
v 2.16368985 0.443996698 1.3437736
v 2.0844841 0.275604308 -1.34574664
v 2.08448458 0.275603861 1.3437736
v 2.20048285 0.306685269 1.34377337
v 2.16368985 0.443997294 -1.34574616
v 2.20048213 0.306685567 -1.34574676
v 1.19796741 0.051526241 -1.34574914
v 1.16720593 0.190284595 -1.34574866
v 1.16720688 0.190283716 1.34377229
v 1.08072388 0.0255341008 -1.34574795
v 1.0499624 0.164292261 -1.34574854
v 1.08072472 0.0255331844 1.3437717
v 1.19796801 0.0515252873 1.34377193
v 1.049963 0.164291352 1.34377134
g submesh0
f 1 2 3
f 1 4 2
f 4 3 2
f 1 3 5
f 6 5 3
f 4 6 3
f 5 6 7
f 7 1 5
f 4 7 6
f 7 8 1
f 4 8 7
f 4 1 8
f 9 10 11
f 9 12 10
f 12 11 10
f 9 11 13
f 14 13 11
f 12 14 11
f 13 14 15
f 15 9 13
f 12 15 14
f 15 16 9
f 12 16 15
f 12 9 16
f 17 18 19
f 20 18 17
f 21 19 18
f 20 21 18
f 21 22 19
f 20 22 21
f 17 19 23
f 23 19 22
f 20 24 22
f 17 24 20
f 23 22 24
f 17 23 24
f 25 26 27
f 28 26 25
f 29 27 26
f 28 29 26
f 29 30 27
f 28 30 29
f 25 27 31
f 31 27 30
f 28 32 30
f 25 32 28
f 31 30 32
f 25 31 32
f 33 34 35
f 34 33 36
f 34 36 37
f 37 35 34
f 33 38 36
f 37 36 38
f 33 35 39
f 33 39 38
f 37 38 40
f 37 40 35
f 40 38 39
f 40 39 35
