# ramp.collision.soft
v -0.000707744621 4.97392477E-07 -0.436363786
v -0.000707062543 4.21098434E-07 0.449718773
v 1.55517209 0.356981874 0.449718356
v 1.55517197 0.356981903 -0.436363965
v 3.00005889 0.763189077 0.449718684
v 3.00005889 0.763189077 -0.436363906
vn -0.223629534 0.974674225 1.60503859E-07
vn -0.223629549 0.974674225 1.60503873E-07
vn -0.247208685 0.968962312 0
vn -0.247208685 0.968962312 0
vn -0.27064231 0.962679923 0
vn -0.270642281 0.962679923 0
vt 1 0.291666657
vt 1 0.0333333313
vt 0.49999997 0.0333333313
vt 0.5 0.291666657
vt 0 0.0333333313
vt 0 0.291666657
g submesh0
f 1/1/1 2/2/2 3/3/3
f 1/1/1 3/3/3 4/4/4
f 5/5/5 4/4/4 3/3/3
f 5/5/5 6/6/6 4/4/4
