# ramp.150.collision
v 2.82509613 0.67509228 0.718428731
v 2.93090987 0.741638005 -0.718430459
v 2.82509613 0.675092399 -0.718430459
v 2.93090987 0.741637945 0.718428552
v 2.9974556 0.635823965 -0.718430519
v 2.9974556 0.635823786 0.718428731
v 2.89164138 0.569278061 -0.7184304
v 2.89164138 0.569277883 0.718428731
v 2.82509613 0.675092399 -0.718430459
v 2.82509613 0.67509228 0.718428731
v 2.05023789 0.455065995 0.718428493
v 2.16158557 0.511870027 -0.718430459
v 2.05023789 0.455066144 -0.7184304
v 2.16158557 0.511869848 0.718428493
v 2.21838927 0.400522232 -0.718430459
v 2.21838951 0.400522083 0.718428493
v 2.10704184 0.34371841 -0.718430459
v 2.10704184 0.343718261 0.718428493
v 2.05023789 0.455066144 -0.7184304
v 2.05023789 0.455065995 0.718428493
v 1.06023943 0.190415174 0.71842885
v 1.17352796 0.243242681 -0.718430161
v 1.06023943 0.190415323 -0.718430102
v 1.17352784 0.243242487 0.71842885
v 1.2263552 0.129954338 -0.718430161
v 1.22635531 0.1299541 0.71842885
v 1.11306679 0.0771269053 -0.718430102
v 1.11306679 0.0771267489 0.71842885
v 1.06023943 0.190415323 -0.718430102
v 1.06023943 0.190415174 0.71842885
v 1.93015838 -0.756177425 0.966554344
v 2.05515838 -0.756177425 0.966554463
v 2.05487323 0.3183963 0.966554463
v 1.91932952 0.284526557 0.966554463
v 1.93015838 -0.756177425 0.858959556
v 1.91932952 0.284526557 0.858959854
v 2.05515838 -0.756177425 0.966554463
v 2.05515838 -0.756177425 0.858959615
v 2.05487323 0.31839636 0.858959794
v 2.05487323 0.3183963 0.966554463
v 2.8384335 -0.763282001 0.966554403
v 2.9634335 -0.763282001 0.966554403
v 2.96343398 0.54933095 0.966554701
v 2.83843398 0.509645164 0.966554701
v 2.8384335 -0.763282001 0.858959615
v 2.83843398 0.509645164 0.858959794
v 2.9634335 -0.763282001 0.966554403
v 2.9634335 -0.763282001 0.858959556
v 2.96343398 0.54933095 0.858959734
v 2.96343398 0.54933095 0.966554701
v 2.13095689 0.342650861 0.966554344
v 1.98835945 0.296899915 0.966555059
v 2.83903623 -0.760798752 0.966554403
v 2.83942866 -0.519346774 0.966554403
v 2.13095689 0.34265095 0.858959496
v 2.83942866 -0.519346654 0.858959615
v 1.98835945 0.296900004 0.85896045
v 2.83903599 -0.760798752 0.858959615
v 1.98835945 0.296899915 0.966555059
v 2.83903623 -0.760798752 0.966554403
v 1.93015838 -0.756177127 -0.858958781
v 1.91932929 0.284526825 -0.966553628
v 1.93015814 -0.756177127 -0.966553688
v 1.91932929 0.284526825 -0.858958721
v 2.05515838 -0.756177127 -0.858958781
v 2.05487299 0.318396568 -0.858958781
v 2.05515814 -0.756177127 -0.966553688
v 2.05487299 0.318396568 -0.966553688
v 2.05487299 0.318396568 -0.966553688
v 1.93015814 -0.756177127 -0.966553688
v 2.8384335 -0.763281703 -0.8589589
v 2.83843374 0.509645343 -0.966553688
v 2.8384335 -0.763281703 -0.966553807
v 2.83843374 0.509645343 -0.858958781
v 2.96343327 -0.763281703 -0.8589589
v 2.96343374 0.549331009 -0.858958721
v 2.96343327 -0.763281703 -0.966553807
v 2.96343374 0.549331069 -0.966553628
v 2.13095665 0.342651218 -0.966553688
v 2.83903599 -0.760798454 -0.966553807
v 1.98835945 0.296900302 -0.966553807
v 2.83942866 -0.519346476 -0.966553807
v 2.13095689 0.342651129 -0.858958781
v 2.83942842 -0.519346654 -0.8589589
v 1.98835945 0.296900302 -0.8589589
v 2.83903599 -0.760798454 -0.8589589
v 1.98835945 0.296900302 -0.966553807
v 2.83903599 -0.760798454 -0.966553807
v 0.018859297 -0.0350632071 0.718428791
v 0.132147744 0.0177643038 -0.71843034
v 0.0188591797 -0.0350630544 -0.718430221
v 0.1321477 0.0177640747 0.718428791
v 0.184974864 -0.0955240428 -0.71843034
v 0.184974968 -0.0955242738 0.718428791
v 0.0716866106 -0.148351476 -0.718430221
v 0.0716867223 -0.148351625 0.718428791
v 0.0188591797 -0.0350630544 -0.718430221
v 0.018859297 -0.0350632071 0.718428791
v 0.948523998 -0.756177247 0.966554105
v 1.07352412 -0.756177366 0.966554224
v 1.07330585 0.0659517497 0.966554224
v 0.940321803 0.0320820622 0.966554224
v 0.948523939 -0.756177247 0.858959317
v 0.940321803 0.0320820622 0.858959615
v 1.07352412 -0.756177366 0.966554224
v 1.07352412 -0.756177366 0.858959436
v 1.07330585 0.0659518242 0.858959556
v 1.07330585 0.0659517497 0.966554224
v 1.83516037 0.307025164 -0.966553688
v 2.01896858 0.261274159 -0.966554344
v 1.03746891 -0.760798573 -0.966553807
v 1.03707635 -0.560420156 -0.966553628
v 1.83516049 0.307025164 -0.858959079
v 1.03707635 -0.560420036 -0.858959019
v 2.01896882 0.261274308 -0.858959734
v 1.03746891 -0.760798573 -0.858959079
v 2.01896858 0.261274159 -0.966554344
v 1.03746891 -0.760798573 -0.966553807
v 0.94852376 -0.756176949 -0.8589589
v 0.940321684 0.0320823677 -0.966553807
v 0.9485237 -0.756176949 -0.966553867
v 0.940321684 0.0320823677 -0.8589589
v 1.07352388 -0.756177068 -0.85895896
v 1.07330561 0.0659520552 -0.85895896
v 1.07352388 -0.756177068 -0.966553867
v 1.07330561 0.0659519807 -0.966553867
v 1.83516097 0.307025492 0.966554165
v 1.03746939 -0.760798275 0.966554224
v 2.01896906 0.261274576 0.966554642
v 1.03707683 -0.560419858 0.966554523
v 1.83516097 0.307025492 0.858959556
v 1.03707683 -0.560420036 0.858959615
v 2.01896906 0.261274576 0.858959615
v 1.03746939 -0.760798275 0.858959317
v 2.01896906 0.261274576 0.966554642
v 1.03746939 -0.760798275 0.966554224
v 0.0310059879 -0.756177187 0.966553986
v 0.156006113 -0.756177187 0.966554165
v 0.155787677 -0.145865366 0.966554165
v 0.022803694 -0.179735065 0.966553986
v 0.0310059786 -0.756177187 0.858959079
v 0.0228036884 -0.179735065 0.858959436
v 0.156006098 -0.756177187 0.858959317
v 0.155787826 -0.145865291 0.858959496
v 0.156006113 -0.756177187 0.966554165
v 0.156006098 -0.756177187 0.858959317
v 0.155787826 -0.145865291 0.858959496
v 0.155787677 -0.145865366 0.966554165
v 0.271801442 -0.129337206 0.966554224
v 0.0879935026 -0.175088227 0.96655494
v 0.953728259 -0.760798395 0.966553926
v 0.954120696 -0.57793653 0.966553926
v 0.271801442 -0.129337206 0.858959615
v 0.954120696 -0.577936351 0.858959317
v 0.0879931897 -0.175088078 0.85896033
v 0.953728139 -0.760798395 0.858959317
v 0.0879935026 -0.175088227 0.96655494
v 0.953728259 -0.760798395 0.966553926
v 0.0310056861 -0.756176889 -0.858959019
v 0.0228035394 -0.179734766 -0.966553926
v 0.0310056806 -0.756176889 -0.966553926
v 0.0228035469 -0.179734766 -0.858959019
v 0.156005964 -0.756177068 -0.858959019
v 0.155787528 -0.145865068 -0.858959019
v 0.156005964 -0.756177068 -0.966553926
v 0.155787677 -0.145865142 -0.966553926
v 0.271801144 -0.129336908 -0.966553926
v 0.953727782 -0.760798395 -0.966554105
v 0.0879931897 -0.175087765 -0.966554105
v 0.954120457 -0.57793653 -0.966554105
v 0.271801174 -0.129336908 -0.858959019
v 0.954120338 -0.577936649 -0.858959198
v 0.0879931971 -0.175087765 -0.858959198
v 0.953727841 -0.760798395 -0.858959019
v 0.0879931897 -0.175087765 -0.966554105
v 0.953727782 -0.760798395 -0.966554105
v 2.83843374 0.509645343 -0.966553688
v 2.96343374 0.549331069 -0.966553628
v 2.96343327 -0.763281703 -0.966553807
v 2.8384335 -0.763281703 -0.966553807
v 1.07352388 -0.756177068 -0.966553867
v 0.9485237 -0.756176949 -0.966553867
v 0.940321684 0.0320823677 -0.966553807
v 1.07330561 0.0659519807 -0.966553867
v 0.156005964 -0.756177068 -0.966553926
v 0.0310056806 -0.756176889 -0.966553926
v 0.0228035394 -0.179734766 -0.966553926
v 0.155787677 -0.145865142 -0.966553926
v 2.9634335 -0.763282001 0.858959556
v 2.8384335 -0.763282001 0.858959615
v 2.83843398 0.509645164 0.858959794
v 2.96343398 0.54933095 0.858959734
v 2.05515838 -0.756177425 0.858959615
v 1.93015838 -0.756177425 0.858959556
v 1.91932952 0.284526557 0.858959854
v 2.05487323 0.31839636 0.858959794
v 1.07352412 -0.756177366 0.858959436
v 0.948523939 -0.756177247 0.858959317
v 0.940321803 0.0320820622 0.858959615
v 1.07330585 0.0659518242 0.858959556
v -0.000707288506 4.97392421E-07 -0.456957281
v 3.00005889 0.792672813 -0.456957698
v 3.00005889 0.792672634 -1.34304321
v 3.00000048 0.458345205 -0.850256503
v 3.00000048 0.458345205 -0.975256503
v 0.000378908619 -0.286410242 -0.975256503
v -0.000707665458 5.73686407E-07 -1.34304273
v 0.000378918747 -0.286410153 -0.850256503
v 3.00005889 0.792672634 1.34304094
v 3.00005913 0.792672694 0.456958383
v -0.000707672269 4.97392477E-07 0.456958771
v 3.00000048 0.458345294 0.850257039
v 0.000379056408 -0.286410242 0.850257456
v 3.00000048 0.458345324 0.975257099
v -0.000706990191 4.97392364E-07 1.3430413
v 0.000379066536 -0.286410242 0.975257456
vn -0.975015461 0.222137272 0
vn 0.222136214 0.9750157 0
vn -0.975015223 0.222137898 0
vn 0.222136095 0.9750157 0
vn 0.975015819 -0.222135693 0
vn 0.975015581 -0.222136378 0
vn -0.222137347 -0.975015342 0
vn -0.222137555 -0.975015342 0
vn -0.975015223 0.222137898 0
vn -0.975015461 0.222137272 0
vn -0.951209188 0.308546782 0
vn 0.308547467 0.951208949 0
vn -0.951209188 0.308546931 0
vn 0.308547229 0.951209068 0
vn 0.951208949 -0.308547288 -1.11556112E-07
vn 0.951208949 -0.308547437 -1.11556126E-07
vn -0.308546752 -0.951209188 0
vn -0.308546931 -0.951209188 0
vn -0.951209188 0.308546931 0
vn -0.951209188 0.308546782 0
vn -0.939692736 0.342019647 0
vn 0.342019886 0.939692736 1.20614416E-07
vn -0.939692616 0.342019945 0
vn 0.342019677 0.939692736 1.2061443E-07
vn 0.939692974 -0.342019141 0
vn 0.939692855 -0.342019558 0
vn -0.342019051 -0.939693034 -1.29437694E-07
vn -0.342019349 -0.939692855 -1.29437723E-07
vn -0.939692616 0.342019945 0
vn -0.939692736 0.342019647 0
vn -0.70473069 -0.00733307423 0.709437072
vn 0.707166255 0.000187686252 0.707047164
vn 0.764090955 0.00020280332 0.645108521
vn -0.656382918 -0.00682999846 0.754396975
vn -0.704730392 -0.00733286981 -0.70943737
vn -0.65638274 -0.00682978146 -0.754397213
vn 0.707166255 0.000187686252 0.707047164
vn 0.707166672 0.000187894402 -0.707046866
vn 0.764091134 0.000202993178 -0.645108342
vn 0.764090955 0.00020280332 0.645108521
vn -0.707106829 1.70956355E-07 0.70710665
vn 0.707106829 -4.97112296E-07 0.707106769
vn 0.779235661 -5.11819849E-07 0.626731098
vn -0.641536653 1.25464439E-07 0.767092347
vn -0.707106888 4.2133945E-07 -0.70710665
vn -0.641536891 3.97088229E-07 -0.767092168
vn 0.707106829 -4.97112296E-07 0.707106769
vn 0.70710665 -2.46729172E-07 -0.707106888
vn 0.779235542 -2.89897343E-07 -0.626731098
vn 0.779235661 -5.11819849E-07 0.626731098
vn 0.484896481 0.39853397 0.778489649
vn -0.618479073 -0.497425109 0.608318925
vn -0.7152825 -0.575281203 0.396764964
vn 0.416730016 0.342508256 0.84203577
vn 0.48489368 0.398532212 -0.778492212
vn 0.416727513 0.342506826 -0.842037559
vn -0.618480265 -0.497425616 -0.608317375
vn -0.715282738 -0.575281143 -0.396764576
vn -0.618479073 -0.497425109 0.608318925
vn -0.7152825 -0.575281203 0.396764964
vn -0.704730451 -0.00733300345 0.709437311
vn -0.656382978 -0.0068298718 -0.754396856
vn -0.704730749 -0.0073329499 -0.709437013
vn -0.65638262 -0.00682992814 0.754397273
vn 0.707166672 0.000187678117 0.707046866
vn 0.764091074 0.00020278951 0.645108342
vn 0.707166374 0.000187729471 -0.707047045
vn 0.764090836 0.000202836367 -0.645108581
vn 0.764090836 0.000202836367 -0.645108581
vn -0.704730749 -0.0073329499 -0.709437013
vn -0.707106888 1.48139591E-07 0.70710665
vn -0.641536891 2.59099806E-07 -0.767092168
vn -0.707106769 2.73331068E-07 -0.707106829
vn -0.64153713 1.23288018E-07 0.76709199
vn 0.70710665 -3.10586643E-07 0.707106829
vn 0.779235423 -3.28767925E-07 0.626731277
vn 0.707106769 -1.85395123E-07 -0.707106829
vn 0.779235423 -2.17806644E-07 -0.626731277
vn 0.484895438 0.398533225 -0.778490722
vn -0.715282679 -0.575281143 -0.396764785
vn -0.618479609 -0.497425199 -0.60831821
vn 0.416729301 0.342507869 -0.842036188
vn 0.48489511 0.398532957 0.77849102
vn 0.416728586 0.342507154 0.842036903
vn -0.618479729 -0.497425377 0.608317971
vn -0.715282738 -0.575281203 0.396764576
vn -0.618479609 -0.497425199 -0.60831821
vn -0.715282679 -0.575281143 -0.396764785
vn -0.939692855 0.342019409 1.13251886E-07
vn 0.342020363 0.939692557 1.22867178E-07
vn -0.939692855 0.342019588 1.132519E-07
vn 0.342020065 0.939692616 1.22867164E-07
vn 0.939692974 -0.34201923 0
vn 0.939692855 -0.342019528 0
vn -0.342018694 -0.939693153 0
vn -0.342018843 -0.939693034 0
vn -0.939692855 0.342019588 1.132519E-07
vn -0.939692855 0.342019409 1.13251886E-07
vn -0.704730749 -0.00733310543 0.709437013
vn 0.707166255 0.000187699887 0.707047284
vn 0.765175402 0.000203108822 0.643821776
vn -0.655448139 -0.00682030153 0.755209327
vn -0.704730332 -0.00733283348 -0.70943743
vn -0.6554479 -0.00682001561 -0.755209625
vn 0.707166255 0.000187699887 0.707047284
vn 0.707166672 0.000187971978 -0.707046747
vn 0.76517576 0.000203356583 -0.643821478
vn 0.765175402 0.000203108822 0.643821776
vn -0.444775045 0.409210563 -0.796694338
vn 0.599716663 -0.575909972 -0.555578649
vn 0.648120582 -0.622392476 -0.438824981
vn -0.403499722 0.371235609 -0.836284637
vn -0.44477278 0.409208864 0.796696484
vn -0.403497785 0.371234268 0.836286187
vn 0.599717319 -0.575910211 0.555577695
vn 0.648121059 -0.622392476 0.438824236
vn 0.599716663 -0.575909972 -0.555578649
vn 0.648120582 -0.622392476 -0.438824981
vn -0.704730451 -0.00733292615 0.709437251
vn -0.655448198 -0.00682006916 -0.755209327
vn -0.70473069 -0.00733286748 -0.709437072
vn -0.655447781 -0.00682012923 0.755209744
vn 0.707166493 0.000187679048 0.707046986
vn 0.765175402 0.00020307854 0.643821895
vn 0.707166553 0.000187736383 -0.707046986
vn 0.765175641 0.00020313081 -0.643821597
vn -0.44477427 0.409209996 0.796694994
vn 0.648120821 -0.622392595 0.438824505
vn 0.599716902 -0.575910091 0.555578232
vn -0.403499156 0.371235311 0.836285055
vn -0.444773912 0.409209788 -0.796695352
vn -0.40349862 0.371234924 -0.836285532
vn 0.599716961 -0.575910032 -0.555578232
vn 0.648120821 -0.622392476 -0.438824803
vn 0.599716902 -0.575910091 0.555578232
vn 0.648120821 -0.622392595 0.438824505
vn -0.703840673 -0.0100150649 0.710287273
vn 0.707186759 0.000253011647 0.707026839
vn 0.765152991 0.000273751299 0.643848479
vn -0.6562078 -0.00933728833 0.754522383
vn -0.70383966 -0.0100147882 -0.710288286
vn -0.656206846 -0.00933699682 -0.754523337
vn 0.70718807 0.00025329864 -0.707025468
vn 0.765154064 0.000274012651 -0.643847227
vn 0.707186759 0.000253011647 0.707026839
vn 0.70718807 0.00025329864 -0.707025468
vn 0.765154064 0.000274012651 -0.643847227
vn 0.765152991 0.000273751299 0.643848479
vn 0.308361948 0.469017446 0.827608287
vn -0.494297504 -0.730618775 0.471026778
vn -0.475669205 -0.703084588 0.528593183
vn 0.32406202 0.492897183 0.807487667
vn 0.308359832 0.469016314 -0.827609718
vn 0.324060112 0.492896527 -0.807488739
vn -0.494298279 -0.730618715 -0.471026033
vn -0.475670129 -0.703084588 -0.528592348
vn -0.494297504 -0.730618775 0.471026778
vn -0.475669205 -0.703084588 0.528593183
vn -0.703840017 -0.0100148246 0.710287929
vn -0.656207561 -0.00933715142 -0.754522681
vn -0.703840137 -0.0100149103 -0.710287809
vn -0.656207263 -0.00933706015 0.75452292
vn 0.707187414 0.00025306709 0.707026184
vn 0.765152991 0.000273801619 0.643848479
vn 0.707187772 0.000252983911 -0.707025766
vn 0.765153587 0.000273725978 -0.643847823
vn 0.308361471 0.469017386 -0.827608526
vn -0.47566998 -0.70308423 -0.528593063
vn -0.49429813 -0.730618358 -0.471026599
vn 0.324061573 0.492897153 -0.807487726
vn 0.308361024 0.469016641 0.827609122
vn 0.324061155 0.492896497 0.807488263
vn -0.49429813 -0.730618477 0.47102645
vn -0.47566998 -0.703084528 0.528592587
vn -0.49429813 -0.730618358 -0.471026599
vn -0.47566998 -0.70308423 -0.528593063
vn -0.641536891 2.59099806E-07 -0.767092168
vn 0.779235423 -2.17806644E-07 -0.626731277
vn 0.707106769 -1.85395123E-07 -0.707106829
vn -0.707106769 2.73331068E-07 -0.707106829
vn 0.707166553 0.000187736383 -0.707046986
vn -0.70473069 -0.00733286748 -0.709437072
vn -0.655448198 -0.00682006916 -0.755209327
vn 0.765175641 0.00020313081 -0.643821597
vn 0.707187772 0.000252983911 -0.707025766
vn -0.703840137 -0.0100149103 -0.710287809
vn -0.656207561 -0.00933715142 -0.754522681
vn 0.765153587 0.000273725978 -0.643847823
vn 0.70710665 -2.46729172E-07 -0.707106888
vn -0.707106888 4.2133945E-07 -0.70710665
vn -0.641536891 3.97088229E-07 -0.767092168
vn 0.779235542 -2.89897343E-07 -0.626731098
vn 0.707166672 0.000187894402 -0.707046866
vn -0.704730392 -0.00733286981 -0.70943737
vn -0.65638274 -0.00682978146 -0.754397213
vn 0.764091134 0.000202993178 -0.645108342
vn 0.707166672 0.000187971978 -0.707046747
vn -0.704730332 -0.00733283348 -0.70943743
vn -0.6554479 -0.00682001561 -0.755209625
vn 0.76517576 0.000203356583 -0.643821478
vn -0.545588791 0.152399793 0.824079633
vn 0.517679811 0.390624046 0.761196733
vn 0.516931176 0.40163967 -0.755954862
vn 0.720110714 -0.651231945 0.239452407
vn 0.716784835 -0.649962544 -0.252523631
vn -0.552975774 -0.78725934 -0.272837937
vn -0.548364282 0.166383967 -0.819519937
vn -0.555093646 -0.789926529 0.260551661
vn 0.516931176 0.401640952 0.755954266
vn 0.517679513 0.390624315 -0.761196733
vn -0.545589626 0.152400106 -0.824079037
vn 0.720110714 -0.651231945 -0.239452466
vn -0.555093586 -0.789926827 -0.260551035
vn 0.716784537 -0.649962366 0.252525181
vn -0.548363984 0.166385472 0.819519818
vn -0.552975714 -0.787258685 0.272839993
vt 0 0
vt 0.25 1
vt 0 1
vt 0.25 0
vt 0.5 1
vt 0.5 0
vt 0.75 1
vt 0.75 0
vt 1 1
vt 1 0
vt 0 0
vt 0.25 1
vt 0 1
vt 0.25 0
vt 0.5 1
vt 0.5 0
vt 0.75 1
vt 0.75 0
vt 1 1
vt 1 0
vt 0 0
vt 0.25 1
vt 0 1
vt 0.25 0
vt 0.5 1
vt 0.5 0
vt 0.75 1
vt 0.75 0
vt 1 1
vt 1 0
vt 0.25 1
vt 0 1
vt 0 0
vt 0.25 0
vt 0.5 1
vt 0.5 0
vt 1 1
vt 0.75 1
vt 0.75 0
vt 1 0
vt 0.25 1
vt 0 1
vt 0 0
vt 0.25 0
vt 0.5 1
vt 0.5 0
vt 1 1
vt 0.75 1
vt 0.75 0
vt 1 0
vt 0.25 1
vt 0 1
vt 0 0
vt 0.25 0
vt 0.5 1
vt 0.5 0
vt 0.75 1
vt 0.75 0
vt 1 1
vt 1 0
vt 0.5 1
vt 0.25 0
vt 0.25 1
vt 0.5 0
vt 0.75 1
vt 0.75 0
vt 1 1
vt 1 0
vt 0.75 1
vt 0 0
vt 0.5 1
vt 0.25 0
vt 0.25 1
vt 0.5 0
vt 0.75 1
vt 0.75 0
vt 1 1
vt 1 0
vt 0.25 1
vt 0 0
vt 0 1
vt 0.25 0
vt 0.5 1
vt 0.5 0
vt 0.75 1
vt 0.75 0
vt 1 1
vt 1 0
vt 0 0
vt 0.25 1
vt 0 1
vt 0.25 0
vt 0.5 1
vt 0.5 0
vt 0.75 1
vt 0.75 0
vt 1 1
vt 1 0
vt 0.25 1
vt 0 1
vt 0 0
vt 0.25 0
vt 0.5 1
vt 0.5 0
vt 1 1
vt 0.75 1
vt 0.75 0
vt 1 0
vt 0.25 1
vt 0 1
vt 0 0
vt 0.25 0
vt 0.5 1
vt 0.5 0
vt 0.75 1
vt 0.75 0
vt 1 1
vt 1 0
vt 0.5 1
vt 0.25 0
vt 0.25 1
vt 0.5 0
vt 0.75 1
vt 0.75 0
vt 1 1
vt 1 0
vt 0.25 1
vt 0 0
vt 0 1
vt 0.25 0
vt 0.5 1
vt 0.5 0
vt 0.75 1
vt 0.75 0
vt 1 1
vt 1 0
vt 0.25 1
vt 0 1
vt 0 0
vt 0.25 0
vt 0.5 1
vt 0.5 0
vt 0.75 0
vt 0.75 1
vt 1 1
vt 0.75 1
vt 0.75 0
vt 1 0
vt 0.25 1
vt 0 1
vt 0 0
vt 0.25 0
vt 0.5 1
vt 0.5 0
vt 0.75 1
vt 0.75 0
vt 1 1
vt 1 0
vt 0.5 1
vt 0.25 0
vt 0.25 1
vt 0.5 0
vt 0.75 1
vt 0.75 0
vt 1 1
vt 1 0
vt 0.25 1
vt 0 0
vt 0 1
vt 0.25 0
vt 0.5 1
vt 0.5 0
vt 0.75 1
vt 0.75 0
vt 1 1
vt 1 0
vt 1 1
vt 0.25 1
vt 0.5 1
vt 0.75 1
vt 0.25 1
vt 0.5 0
vt 0.75 1
vt 0.25 0
vt 0.5 1
vt 1 0
vt 0.25 1
vt 0.5 0
vt 1 1
vt 0.75 1
vt 1 0
vt 0 1
vt 0.25 0
vt 0 0
vt 0.25 1
vt 0.5 1
vt 0.5 0.291666657
vt 1 0.291666657
vt 0.5 0.291666657
vt 1 0.291666657
vt 1 0.708333373
vt 0 0.708333373
vt 0 0.966666698
vt 0.75 0
vt 0.5 0
vt 0.5 1
vt 1 0.966666698
vt 0.75 1
vt 0 0.0333333313
vt 0 0.291666657
vt 1 0.291666657
vt 0.75 0
vt 0.75 1
vt 0.5 0
vt 1 0.0333333313
vt 0.5 1
g submesh0
f 1/1/1 2/2/2 3/3/3
f 1/1/1 4/4/4 2/2/2
f 4/4/4 5/5/5 2/2/2
f 4/4/4 6/6/6 5/5/5
f 6/6/6 7/7/7 5/5/5
f 6/6/6 8/8/8 7/7/7
f 8/8/8 9/9/9 7/7/7
f 8/8/8 10/10/10 9/9/9
f 11/11/11 12/12/12 13/13/13
f 11/11/11 14/14/14 12/12/12
f 14/14/14 15/15/15 12/12/12
f 14/14/14 16/16/16 15/15/15
f 16/16/16 17/17/17 15/15/15
f 16/16/16 18/18/18 17/17/17
f 18/18/18 19/19/19 17/17/17
f 18/18/18 20/20/20 19/19/19
f 21/21/21 22/22/22 23/23/23
f 21/21/21 24/24/24 22/22/22
f 24/24/24 25/25/25 22/22/22
f 24/24/24 26/26/26 25/25/25
f 26/26/26 27/27/27 25/25/25
f 26/26/26 28/28/28 27/27/27
f 28/28/28 29/29/29 27/27/27
f 28/28/28 30/30/30 29/29/29
f 31/31/31 32/32/32 33/33/33
f 31/31/31 33/33/33 34/34/34
f 35/35/35 31/31/31 34/34/34
f 35/35/35 34/34/34 36/36/36
f 37/37/37 38/38/38 39/39/39
f 37/37/37 39/39/39 40/40/40
f 41/41/41 42/42/42 43/43/43
f 41/41/41 43/43/43 44/44/44
f 45/45/45 41/41/41 44/44/44
f 45/45/45 44/44/44 46/46/46
f 47/47/47 48/48/48 49/49/49
f 47/47/47 49/49/49 50/50/50
f 51/51/51 52/52/52 53/53/53
f 51/51/51 53/53/53 54/54/54
f 55/55/55 51/51/51 54/54/54
f 55/55/55 54/54/54 56/56/56
f 57/57/57 55/55/55 56/56/56
f 57/57/57 56/56/56 58/58/58
f 59/59/59 57/57/57 58/58/58
f 59/59/59 58/58/58 60/60/60
f 61/61/61 62/62/62 63/63/63
f 61/61/61 64/64/64 62/62/62
f 65/65/65 64/64/64 61/61/61
f 65/65/65 66/66/66 64/64/64
f 67/67/67 66/66/66 65/65/65
f 67/67/67 68/68/68 66/66/66
f 62/62/62 69/69/69 67/67/67
f 62/62/62 67/67/67 70/70/70
f 71/71/71 72/72/72 73/73/73
f 71/71/71 74/74/74 72/72/72
f 75/75/75 74/74/74 71/71/71
f 75/75/75 76/76/76 74/74/74
f 77/77/77 76/76/76 75/75/75
f 77/77/77 78/78/78 76/76/76
f 79/79/79 80/80/80 81/81/81
f 79/79/79 82/82/82 80/80/80
f 83/83/83 82/82/82 79/79/79
f 83/83/83 84/84/84 82/82/82
f 85/85/85 84/84/84 83/83/83
f 85/85/85 86/86/86 84/84/84
f 87/87/87 86/86/86 85/85/85
f 87/87/87 88/88/88 86/86/86
f 89/89/89 90/90/90 91/91/91
f 89/89/89 92/92/92 90/90/90
f 92/92/92 93/93/93 90/90/90
f 92/92/92 94/94/94 93/93/93
f 94/94/94 95/95/95 93/93/93
f 94/94/94 96/96/96 95/95/95
f 96/96/96 97/97/97 95/95/95
f 96/96/96 98/98/98 97/97/97
f 99/99/99 100/100/100 101/101/101
f 99/99/99 101/101/101 102/102/102
f 103/103/103 99/99/99 102/102/102
f 103/103/103 102/102/102 104/104/104
f 105/105/105 106/106/106 107/107/107
f 105/105/105 107/107/107 108/108/108
f 109/109/109 110/110/110 111/111/111
f 109/109/109 111/111/111 112/112/112
f 113/113/113 109/109/109 112/112/112
f 113/113/113 112/112/112 114/114/114
f 115/115/115 113/113/113 114/114/114
f 115/115/115 114/114/114 116/116/116
f 117/117/117 115/115/115 116/116/116
f 117/117/117 116/116/116 118/118/118
f 119/119/119 120/120/120 121/121/121
f 119/119/119 122/122/122 120/120/120
f 123/123/123 122/122/122 119/119/119
f 123/123/123 124/124/124 122/122/122
f 125/125/125 124/124/124 123/123/123
f 125/125/125 126/126/126 124/124/124
f 127/127/127 128/128/128 129/129/129
f 127/127/127 130/130/130 128/128/128
f 131/131/131 130/130/130 127/127/127
f 131/131/131 132/132/132 130/130/130
f 133/133/133 132/132/132 131/131/131
f 133/133/133 134/134/134 132/132/132
f 135/135/135 134/134/134 133/133/133
f 135/135/135 136/136/136 134/134/134
f 137/137/137 138/138/138 139/139/139
f 137/137/137 139/139/139 140/140/140
f 141/141/141 137/137/137 140/140/140
f 141/141/141 140/140/140 142/142/142
f 143/143/143 141/141/141 142/142/142
f 143/143/143 142/142/142 144/144/144
f 145/145/145 146/146/146 147/147/147
f 145/145/145 147/147/147 148/148/148
f 149/149/149 150/150/150 151/151/151
f 149/149/149 151/151/151 152/152/152
f 153/153/153 149/149/149 152/152/152
f 153/153/153 152/152/152 154/154/154
f 155/155/155 153/153/153 154/154/154
f 155/155/155 154/154/154 156/156/156
f 157/157/157 155/155/155 156/156/156
f 157/157/157 156/156/156 158/158/158
f 159/159/159 160/160/160 161/161/161
f 159/159/159 162/162/162 160/160/160
f 163/163/163 162/162/162 159/159/159
f 163/163/163 164/164/164 162/162/162
f 165/165/165 164/164/164 163/163/163
f 165/165/165 166/166/166 164/164/164
f 167/167/167 168/168/168 169/169/169
f 167/167/167 170/170/170 168/168/168
f 171/171/171 170/170/170 167/167/167
f 171/171/171 172/172/172 170/170/170
f 173/173/173 172/172/172 171/171/171
f 173/173/173 174/174/174 172/172/172
f 175/175/175 174/174/174 173/173/173
f 175/175/175 176/176/176 174/174/174
f 177/177/177 178/178/178 179/179/179
f 177/177/177 179/179/179 180/180/180
f 181/181/181 182/182/182 183/183/183
f 181/181/181 183/183/183 184/184/184
f 185/185/185 186/186/186 187/187/187
f 185/185/185 187/187/187 188/188/188
f 189/189/189 190/190/190 191/191/191
f 189/189/189 191/191/191 192/192/192
f 193/193/193 194/194/194 195/195/195
f 193/193/193 195/195/195 196/196/196
f 197/197/197 198/198/198 199/199/199
f 197/197/197 199/199/199 200/200/200
f 201/201/201 202/202/202 203/203/203
f 204/204/204 202/202/202 201/201/201
f 205/205/205 203/203/203 202/202/202
f 205/205/205 202/202/202 204/204/204
f 206/206/206 203/203/203 205/205/205
f 204/204/204 206/206/206 205/205/205
f 201/201/201 203/203/203 207/207/207
f 206/206/206 207/207/207 203/203/203
f 204/204/204 208/208/208 206/206/206
f 204/204/204 201/201/201 208/208/208
f 208/208/208 201/201/201 207/207/207
f 208/208/208 207/207/207 206/206/206
f 209/209/209 210/210/210 211/211/211
f 212/212/212 210/210/210 209/209/209
f 213/213/213 210/210/210 212/212/212
f 213/213/213 211/211/211 210/210/210
f 212/212/212 209/209/209 214/214/214
f 213/213/213 212/212/212 214/214/214
f 209/209/209 211/211/211 215/215/215
f 214/214/214 209/209/209 215/215/215
f 213/213/213 214/214/214 216/216/216
f 216/216/216 211/211/211 213/213/213
f 214/214/214 215/215/215 216/216/216
f 216/216/216 215/215/215 211/211/211
