# rentable_shop_E_COL_metal
v 1.70853114 1.15993989 0.916313469
v 1.70853114 1.15993989 -0.947889388
v 1.60914278 1.15993989 -0.947889388
v 1.60914278 1.15993989 0.916313469
v 1.70853114 1.15993989 -0.947889388
v 1.70853114 0.0987203941 0.91631335
v 1.70853114 0.0987203941 -0.947889447
v 1.60914278 1.15993989 -0.947889388
v 1.60914278 0.0987203941 -0.947889447
v 1.60914278 0.0987203941 0.91631335
v 1.70853114 0.0987203941 0.91631335
v 1.60914278 0.0987203941 0.91631335
v 1.70853114 1.15993989 0.916313469
v 1.60914278 1.15993989 0.916313469
v 1.60914278 0.0987203941 0.91631335
v 1.70853114 0.0987203941 0.91631335
v 1.60914278 1.15993989 -0.947889388
v 1.70853114 1.15993989 -0.947889388
v 1.70853114 0.0987203941 -0.947889447
v 1.60914278 0.0987203941 -0.947889447
v 1.61625814 1.15595305 0.796628833
v -1.61711609 1.15595329 0.796628833
v -1.61711609 1.15595329 0.930378258
v 1.61625814 1.15595305 0.930378258
v -1.61711609 1.15595329 0.796628833
v 1.61625791 0.0987204313 0.796629012
v -1.61711609 0.0987208188 0.796629012
v -1.61711609 1.15595329 0.930378258
v -1.61711609 0.0987206995 0.930378377
v 1.61625791 0.0987203941 0.930378377
v 1.61625791 0.0987204313 0.796629012
v 1.61625791 0.0987203941 0.930378377
v 1.61625814 1.15595305 0.796628833
v 1.61625814 1.15595305 0.930378258
v 1.61625791 0.0987203941 0.930378377
v 1.61625791 0.0987204313 0.796629012
v -1.61711609 1.15595329 0.930378258
v -1.61711609 1.15595329 0.796628833
v -1.61711609 0.0987208188 0.796629012
v -1.61711609 0.0987206995 0.930378377
v -1.61336696 1.15897059 0.916313469
v -1.61336696 1.15897059 -0.947889388
v -1.70355129 1.15897059 -0.947889388
v -1.70355129 1.15897059 0.916313469
v -1.61336696 1.15897059 -0.947889388
v -1.61336696 0.0987203941 0.916313291
v -1.61336696 0.0987203941 -0.947889507
v -1.70355129 1.15897059 -0.947889388
v -1.70355129 0.0987203941 -0.947889507
v -1.70355129 0.0987203941 0.916313291
v -1.61336696 0.0987203941 0.916313291
v -1.70355129 0.0987203941 0.916313291
v -1.61336696 1.15897059 0.916313469
v -1.70355129 1.15897059 0.916313469
v -1.70355129 0.0987203941 0.916313291
v -1.61336696 0.0987203941 0.916313291
v -1.70355129 1.15897059 -0.947889388
v -1.61336696 1.15897059 -0.947889388
v -1.61336696 0.0987203941 -0.947889507
v -1.70355129 0.0987203941 -0.947889507
v 1.61625814 1.15595269 -0.953032494
v -1.61711609 1.15595305 -0.953032494
v -1.61711609 1.15595305 -0.819283128
v 1.61625814 1.15595269 -0.819283128
v -1.61711609 1.15595305 -0.953032494
v 1.61625791 0.0987201259 -0.953032196
v -1.61711609 0.0987205133 -0.953032196
v -1.61711609 1.15595305 -0.819283128
v -1.61711609 0.0987203941 -0.81928283
v 1.61625791 0.0987200886 -0.81928283
v 1.61625791 0.0987201259 -0.953032196
v 1.61625791 0.0987200886 -0.81928283
v 1.61625814 1.15595269 -0.953032494
v 1.61625814 1.15595269 -0.819283128
v 1.61625791 0.0987200886 -0.81928283
v 1.61625791 0.0987201259 -0.953032196
v -1.61711609 1.15595305 -0.819283128
v -1.61711609 1.15595305 -0.953032494
v -1.61711609 0.0987205133 -0.953032196
v -1.61711609 0.0987203941 -0.81928283
v 1.71608293 2.56755757 0.81366688
v 1.58324111 2.56755781 0.81366688
v 1.58324111 2.56755781 0.969666958
v 1.71608293 2.56755757 0.969666958
v 1.58324111 2.56755781 0.81366688
v 1.71608293 0.0987204313 0.813667655
v 1.58324111 0.0987208188 0.813667655
v 1.58324111 2.56755781 0.969666958
v 1.58324111 0.0987207368 0.969667792
v 1.71608293 0.0987204313 0.969667792
v 1.71608293 0.0987204313 0.813667655
v 1.71608293 0.0987204313 0.969667792
v 1.71608293 2.56755757 0.81366688
v 1.71608293 2.56755757 0.969666958
v 1.71608293 0.0987204313 0.969667792
v 1.71608293 0.0987204313 0.813667655
v 1.58324111 2.56755781 0.969666958
v 1.58324111 2.56755781 0.81366688
v 1.58324111 0.0987208188 0.813667655
v 1.58324111 0.0987207368 0.969667792
v -1.57229245 2.56755781 0.804916143
v -1.72003746 2.56755781 0.804916143
v -1.72003746 2.56755781 0.978417397
v -1.57229245 2.56755733 0.978417397
v -1.72003746 2.56755781 0.804916143
v -1.57229245 0.0987204686 0.804917037
v -1.72003746 0.098720856 0.804917037
v -1.72003746 2.56755781 0.978417397
v -1.72003746 0.0987206995 0.97841841
v -1.57229245 0.0987203941 0.97841841
v -1.57229245 0.0987204686 0.804917037
v -1.57229245 0.0987203941 0.97841841
v -1.57229245 2.56755781 0.804916143
v -1.57229245 2.56755733 0.978417397
v -1.57229245 0.0987203941 0.97841841
v -1.57229245 0.0987204686 0.804917037
v -1.72003746 2.56755781 0.978417397
v -1.72003746 2.56755781 0.804916143
v -1.72003746 0.098720856 0.804917037
v -1.72003746 0.0987206995 0.97841841
v -1.57229245 2.56755781 -0.970391273
v -1.72003746 2.56755781 -0.970391273
v -1.72003746 2.56755733 -0.79689002
v -1.57229245 2.56755662 -0.79689002
v -1.72003746 2.56755781 -0.970391273
v -1.57229245 0.0987201706 -0.970390499
v -1.72003746 0.0987205505 -0.970390499
v -1.72003746 2.56755733 -0.79689002
v -1.72003746 0.0987203941 -0.796889186
v -1.57229245 0.0987200886 -0.796889186
v -1.57229245 0.0987201706 -0.970390499
v -1.57229245 0.0987200886 -0.796889186
v -1.57229245 2.56755781 -0.970391273
v -1.57229245 2.56755662 -0.79689002
v -1.57229245 0.0987200886 -0.796889186
v -1.57229245 0.0987201706 -0.970390499
v -1.72003746 2.56755733 -0.79689002
v -1.72003746 2.56755781 -0.970391273
v -1.72003746 0.0987205505 -0.970390499
v -1.72003746 0.0987203941 -0.796889186
v 1.7279321 2.56755781 -0.970391393
v 1.58018708 2.56755781 -0.970391393
v 1.58018708 2.56755733 -0.79689008
v 1.7279321 2.56755662 -0.79689008
v 1.58018708 2.56755781 -0.970391393
v 1.7279321 0.0987201706 -0.970390499
v 1.58018708 0.0987205505 -0.970390499
v 1.58018708 2.56755733 -0.79689008
v 1.58018708 0.0987203941 -0.796889186
v 1.7279321 0.0987200886 -0.796889186
v 1.7279321 0.0987201706 -0.970390499
v 1.7279321 0.0987200886 -0.796889186
v 1.7279321 2.56755781 -0.970391393
v 1.7279321 2.56755662 -0.79689008
v 1.7279321 0.0987200886 -0.796889186
v 1.7279321 0.0987201706 -0.970390499
v 1.58018708 2.56755733 -0.79689008
v 1.58018708 2.56755781 -0.970391393
v 1.58018708 0.0987205505 -0.970390499
v 1.58018708 0.0987203941 -0.796889186
v 0.465437829 1.03082049 0.806018651
v -0.4643071 1.03082061 0.806018651
v -0.4643071 1.03082049 1.18862593
v 0.465437829 1.03082049 1.18862593
v -0.4643071 1.03082061 0.806018651
v 0.46543768 0.957693756 0.806018174
v -0.4643071 0.957693815 0.806018174
v -0.4643071 1.03082049 1.18862593
v -0.4643071 0.957693696 1.18862545
v 0.46543768 0.957693636 1.18862545
v 0.46543768 0.957693756 0.806018174
v 0.46543768 0.957693636 1.18862545
v 0.465437829 1.03082049 0.806018651
v 0.465437829 1.03082049 1.18862593
v 0.46543768 0.957693636 1.18862545
v 0.46543768 0.957693756 0.806018174
v -0.4643071 1.03082049 1.18862593
v -0.4643071 1.03082061 0.806018651
v -0.4643071 0.957693815 0.806018174
v -0.4643071 0.957693696 1.18862545
v -0.459369183 2.56755781 0.812933683
v -0.526624382 2.56755781 0.812933624
v -0.526624382 2.56755781 0.950790107
v -0.459369183 2.56755733 0.950790167
v -0.526624382 2.56755781 0.812933624
v -0.459369183 0.0987204686 0.812934697
v -0.526624382 0.098720856 0.812934697
v -0.526624382 2.56755781 0.950790107
v -0.526624382 0.0987206995 0.950791359
v -0.459369183 0.0987203941 0.950791359
v -0.459369183 0.0987204686 0.812934697
v -0.459369183 0.0987203941 0.950791359
v -0.459369183 2.56755781 0.812933683
v -0.459369183 2.56755733 0.950790167
v -0.459369183 0.0987203941 0.950791359
v -0.459369183 0.0987204686 0.812934697
v -0.526624382 2.56755781 0.950790107
v -0.526624382 2.56755781 0.812933624
v -0.526624382 0.098720856 0.812934697
v -0.526624382 0.0987206995 0.950791359
v 0.528317928 2.56755781 0.812933564
v 0.45841682 2.56755781 0.812933505
v 0.45841682 2.56755781 0.950789928
v 0.528317928 2.56755733 0.950789988
v 0.45841682 2.56755781 0.812933505
v 0.528317928 0.0987204686 0.812934697
v 0.45841682 0.098720856 0.812934697
v 0.45841682 2.56755781 0.950789928
v 0.45841682 0.0987206995 0.950791359
v 0.528317928 0.0987203941 0.950791359
v 0.528317928 0.0987204686 0.812934697
v 0.528317928 0.0987203941 0.950791359
v 0.528317928 2.56755781 0.812933564
v 0.528317928 2.56755733 0.950789988
v 0.528317928 0.0987203941 0.950791359
v 0.528317928 0.0987204686 0.812934697
v 0.45841682 2.56755781 0.950789928
v 0.45841682 2.56755781 0.812933505
v 0.45841682 0.098720856 0.812934697
v 0.45841682 0.0987206995 0.950791359
v 1.61625814 2.52240682 0.774211407
v -1.61711609 2.52240682 0.774211407
v -1.61711609 2.52240682 0.944472492
v 1.61625814 2.52240682 0.944472492
v -1.61711609 2.52240682 0.774211407
v 1.61625791 2.32859874 0.774211347
v -1.61711609 2.32859874 0.774211347
v -1.61711609 2.52240682 0.944472492
v -1.61711609 2.32859898 0.944472432
v 1.61625791 2.32859874 0.944472432
v 1.61625791 2.32859874 0.774211347
v 1.61625791 2.32859874 0.944472432
v 1.61625814 2.52240682 0.774211407
v 1.61625814 2.52240682 0.944472492
v 1.61625791 2.32859874 0.944472432
v 1.61625791 2.32859874 0.774211347
v -1.61711609 2.52240682 0.944472492
v -1.61711609 2.52240682 0.774211407
v -1.61711609 2.32859874 0.774211347
v -1.61711609 2.32859898 0.944472432
v 1.61625814 1.22083235 0.813065827
v -1.61711609 1.22083235 0.813065827
v -1.61711609 1.22083235 0.896131217
v 1.61625814 1.22083235 0.896131217
v -1.61711609 1.22083235 0.813065827
v 1.61625791 1.10513794 0.813065767
v -1.61711609 1.10513794 0.813065767
v -1.61711609 1.22083235 0.896131217
v -1.61711609 1.10513806 0.896131039
v 1.61625791 1.10513794 0.896131039
v 1.61625791 1.10513794 0.813065767
v 1.61625791 1.10513794 0.896131039
v 1.61625814 1.22083235 0.813065827
v 1.61625814 1.22083235 0.896131217
v 1.61625791 1.10513794 0.896131039
v 1.61625791 1.10513794 0.813065767
v -1.61711609 1.22083235 0.896131217
v -1.61711609 1.22083235 0.813065827
v -1.61711609 1.10513794 0.813065767
v -1.61711609 1.10513806 0.896131039
v 1.58493102 2.56755781 0.812933505
v 1.51502991 2.56755781 0.812933385
v 1.51502991 2.56755781 0.893245935
v 1.58493102 2.56755733 0.893245995
v 1.51502991 2.56755781 0.812933385
v 1.58493102 1.2196548 0.812934577
v 1.51502991 1.21965516 0.812934577
v 1.51502991 2.56755781 0.893245935
v 1.51502991 1.21965504 0.893247187
v 1.58493102 1.2196548 0.893247187
v 1.58493102 1.2196548 0.812934577
v 1.58493102 1.2196548 0.893247187
v 1.58493102 2.56755781 0.812933505
v 1.58493102 2.56755733 0.893245995
v 1.58493102 1.2196548 0.893247187
v 1.58493102 1.2196548 0.812934577
v 1.51502991 2.56755781 0.893245935
v 1.51502991 2.56755781 0.812933385
v 1.51502991 1.21965516 0.812934577
v 1.51502991 1.21965504 0.893247187
v 0.593228459 2.56755781 0.812933505
v 0.523327291 2.56755781 0.812933385
v 0.523327291 2.56755781 0.893245935
v 0.593228459 2.56755733 0.893245995
v 0.523327291 2.56755781 0.812933385
v 0.593228459 1.2196548 0.812934577
v 0.523327291 1.21965516 0.812934577
v 0.523327291 2.56755781 0.893245935
v 0.523327291 1.21965504 0.893247187
v 0.593228459 1.2196548 0.893247187
v 0.593228459 1.2196548 0.812934577
v 0.593228459 1.2196548 0.893247187
v 0.593228459 2.56755781 0.812933505
v 0.593228459 2.56755733 0.893245995
v 0.593228459 1.2196548 0.893247187
v 0.593228459 1.2196548 0.812934577
v 0.523327291 2.56755781 0.893245935
v 0.523327291 2.56755781 0.812933385
v 0.523327291 1.21965516 0.812934577
v 0.523327291 1.21965504 0.893247187
v -0.513802767 2.56755781 0.812933505
v -0.583703935 2.56755781 0.812933385
v -0.583703935 2.56755781 0.893245935
v -0.513802767 2.56755733 0.893245995
v -0.583703935 2.56755781 0.812933385
v -0.513802767 1.2196548 0.812934577
v -0.583703935 1.21965516 0.812934577
v -0.583703935 2.56755781 0.893245935
v -0.583703935 1.21965504 0.893247187
v -0.513802767 1.2196548 0.893247187
v -0.513802767 1.2196548 0.812934577
v -0.513802767 1.2196548 0.893247187
v -0.513802767 2.56755781 0.812933505
v -0.513802767 2.56755733 0.893245995
v -0.513802767 1.2196548 0.893247187
v -0.513802767 1.2196548 0.812934577
v -0.583703935 2.56755781 0.893245935
v -0.583703935 2.56755781 0.812933385
v -0.583703935 1.21965516 0.812934577
v -0.583703935 1.21965504 0.893247187
v -1.51445127 2.56755781 0.812933505
v -1.58435237 2.56755781 0.812933385
v -1.58435237 2.56755781 0.893245935
v -1.51445127 2.56755733 0.893245995
v -1.58435237 2.56755781 0.812933385
v -1.51445127 1.2196548 0.812934577
v -1.58435237 1.21965516 0.812934577
v -1.58435237 2.56755781 0.893245935
v -1.58435237 1.21965504 0.893247187
v -1.51445127 1.2196548 0.893247187
v -1.51445127 1.2196548 0.812934577
v -1.51445127 1.2196548 0.893247187
v -1.51445127 2.56755781 0.812933505
v -1.51445127 2.56755733 0.893245995
v -1.51445127 1.2196548 0.893247187
v -1.51445127 1.2196548 0.812934577
v -1.58435237 2.56755781 0.893245935
v -1.58435237 2.56755781 0.812933385
v -1.58435237 1.21965516 0.812934577
v -1.58435237 1.21965504 0.893247187
v 1.46248436 0.142289922 -1.22604692
v 0.345749646 0.142290071 -1.22604692
v 0.345749646 0.142289907 -0.843439639
v 1.46248436 0.142289907 -0.843439639
v 0.345749646 0.142290071 -1.22604692
v 1.46248412 0.0691632479 -1.22604728
v 0.345749646 0.0691633224 -1.22604728
v 0.345749646 0.142289907 -0.843439639
v 0.345749646 0.0691631585 -0.843440056
v 1.46248412 0.069163084 -0.843440056
v 1.46248412 0.0691632479 -1.22604728
v 1.46248412 0.069163084 -0.843440056
v 1.46248436 0.142289922 -1.22604692
v 1.46248436 0.142289907 -0.843439639
v 1.46248412 0.069163084 -0.843440056
v 1.46248412 0.0691632479 -1.22604728
v 0.345749646 0.142289907 -0.843439639
v 0.345749646 0.142290071 -1.22604692
v 0.345749646 0.0691633224 -1.22604728
v 0.345749646 0.0691631585 -0.843440056
v 0.82515651 2.05849004 -1.1600188
v 1.49895144 2.08585286 -1.1600188
v 1.49895144 2.08585238 -0.846216321
v 0.82515651 2.05849004 -0.846216321
v 0.296316057 2.08585286 -1.1600188
v 0.296316057 2.08585262 -0.846216321
v 0.296316057 2.15897965 -1.1572423
v 0.825156629 2.1431098 -1.1572423
v 0.82515651 2.05849004 -1.1600188
v 1.49895144 2.08585286 -1.1600188
v 1.49895167 2.15897942 -1.1572423
v 0.825156629 2.14310956 -0.843439937
v 0.296316057 2.15897918 -0.843439937
v 0.82515651 2.05849004 -0.846216321
v 1.49895144 2.08585238 -0.846216321
v 1.49895167 2.15897918 -0.843439937
v 0.825156629 2.1431098 -1.1572423
v 0.825156629 2.14310956 -0.843439937
v 0.296316057 2.15897918 -0.843439937
v 0.296316057 2.15897965 -1.1572423
v 1.49895167 2.15897942 -1.1572423
v 1.49895167 2.15897918 -0.843439937
v 1.49895144 2.08585238 -0.846216321
v 1.49895144 2.08585286 -1.1600188
v 0.296316057 2.15897918 -0.843439937
v 0.296316057 2.15897965 -1.1572423
v 0.296316057 2.08585286 -1.1600188
v 0.296316057 2.08585262 -0.846216321
v 0.464369804 2.33164263 0.812933922
v 0.464369833 2.33164239 0.893246531
v 0.464369833 1.72472024 0.893247128
v 0.464369774 1.72472048 0.812934458
v -0.390362084 1.79462123 0.893246591
v -0.460263342 1.72472024 0.893246591
v 0.394468784 1.79462159 0.893247128
v -0.460263342 1.72472024 0.812933505
v 0.394468755 1.79462159 0.812934458
v -0.390362382 1.79462123 0.812934041
v 0.394468725 2.26174164 0.893246531
v 0.394468635 2.26174164 0.812933922
v 0.464369833 2.33164239 0.893246531
v 0.394468725 2.26174164 0.893246531
v 0.394468784 1.79462159 0.893247128
v 0.464369833 1.72472024 0.893247128
v -0.390362382 1.79462123 0.812934041
v -0.390362084 1.79462123 0.893246591
v 0.394468755 1.79462159 0.812934458
v -0.460263342 1.72472024 0.893246591
v 0.464369774 1.72472048 0.812934458
v -0.460263342 1.72472024 0.812933505
v 0.394468635 2.26174164 0.812933922
v 0.464369804 2.33164263 0.812933922
v -0.46026352 2.33164263 0.812933505
v 0.464369833 2.33164239 0.893246531
v 0.464369804 2.33164263 0.812933922
v -0.460263193 2.33164263 0.893245995
v -0.390362382 1.79462123 0.812934041
v -0.460263342 1.79462159 0.812934458
v -0.390362203 2.26174188 0.812933505
v -0.390362203 2.26174164 0.893245995
v -0.460263342 1.72472024 0.893246591
v -0.390362084 1.79462123 0.893246591
v 0.394468635 2.26174164 0.812933922
v 0.394468725 2.26174164 0.893246531
v -0.460263193 2.33164263 0.893245995
v 0.394468725 2.26174164 0.893246531
v 0.464369833 2.33164239 0.893246531
v -0.390362203 2.26174164 0.893245995
v -0.460263342 1.79462159 0.812934458
v -0.460263342 1.72472024 0.893246591
v -0.46026352 2.33164263 0.812933505
v -0.390362203 2.26174188 0.812933505
v -0.390362084 1.79462123 0.893246591
v -0.390362382 1.79462123 0.812934041
v 0.464369804 2.33164263 0.812933922
v 0.394468635 2.26174164 0.812933922
v 0.464369804 2.12869048 0.752853453
v 0.464369833 2.12869024 0.833166003
v 0.464369833 1.52176797 0.833166659
v 0.464369774 1.52176821 0.75285399
v -0.390362084 1.59166896 0.833166003
v -0.460263342 1.52176797 0.833166122
v 0.394468784 1.59166932 0.833166659
v -0.460263342 1.52176797 0.752852976
v 0.394468755 1.59166932 0.75285399
v -0.390362382 1.59166896 0.752853513
v 0.394468725 2.05878949 0.833166003
v 0.394468635 2.05878949 0.752853394
v 0.464369833 2.12869024 0.833166003
v 0.394468725 2.05878949 0.833166003
v 0.394468784 1.59166932 0.833166659
v 0.464369833 1.52176797 0.833166659
v -0.390362382 1.59166896 0.752853513
v -0.390362084 1.59166896 0.833166003
v 0.394468755 1.59166932 0.75285399
v -0.460263342 1.52176797 0.833166122
v 0.464369774 1.52176821 0.75285399
v -0.460263342 1.52176797 0.752852976
v 0.394468635 2.05878949 0.752853394
v 0.464369804 2.12869048 0.752853453
v -0.46026352 2.12869048 0.752852976
v 0.464369833 2.12869024 0.833166003
v 0.464369804 2.12869048 0.752853453
v -0.460263193 2.12869048 0.833165467
v -0.390362382 1.59166896 0.752853513
v -0.460263342 1.59166932 0.75285399
v -0.390362203 2.05878973 0.752852917
v -0.390362203 2.05878925 0.833165407
v -0.460263342 1.52176797 0.833166122
v -0.390362084 1.59166896 0.833166003
v 0.394468635 2.05878949 0.752853394
v 0.394468725 2.05878949 0.833166003
v -0.460263193 2.12869048 0.833165467
v 0.394468725 2.05878949 0.833166003
v 0.464369833 2.12869024 0.833166003
v -0.390362203 2.05878925 0.833165407
v -0.460263342 1.59166932 0.75285399
v -0.460263342 1.52176797 0.833166122
v -0.46026352 2.12869048 0.752852976
v -0.390362203 2.05878973 0.752852917
v -0.390362084 1.59166896 0.833166003
v -0.390362382 1.59166896 0.752853513
v 0.464369804 2.12869048 0.752853453
v 0.394468635 2.05878949 0.752853394
vt 1 0
vt 1 1
vt 0 1
vt 0 0
vt 0 0
vt 1 1
vt 0 1
vt 1 0
vt 1 1
vt 0 1
vt 0 0
vt 1 0
vt 0 0
vt 1 0
vt 1 1
vt 0 1
vt 0 0
vt 1 0
vt 1 1
vt 0 1
vt 1 0
vt 1 1
vt 0 1
vt 0 0
vt 0 0
vt 1 1
vt 0 1
vt 1 0
vt 1 1
vt 0 1
vt 0 0
vt 1 0
vt 0 0
vt 1 0
vt 1 1
vt 0 1
vt 0 0
vt 1 0
vt 1 1
vt 0 1
vt 1 0
vt 1 1
vt 0 1
vt 0 0
vt 0 0
vt 1 1
vt 0 1
vt 1 0
vt 1 1
vt 0 1
vt 0 0
vt 1 0
vt 0 0
vt 1 0
vt 1 1
vt 0 1
vt 0 0
vt 1 0
vt 1 1
vt 0 1
vt 1 0
vt 1 1
vt 0 1
vt 0 0
vt 0 0
vt 1 1
vt 0 1
vt 1 0
vt 1 1
vt 0 1
vt 0 0
vt 1 0
vt 0 0
vt 1 0
vt 1 1
vt 0 1
vt 0 0
vt 1 0
vt 1 1
vt 0 1
vt 1 0
vt 1 1
vt 0 1
vt 0 0
vt 0 0
vt 1 1
vt 0 1
vt 1 0
vt 1 1
vt 0 1
vt 0 0
vt 1 0
vt 0 0
vt 1 0
vt 1 1
vt 0 1
vt 0 0
vt 1 0
vt 1 1
vt 0 1
vt 1 0
vt 1 1
vt 0 1
vt 0 0
vt 0 0
vt 1 1
vt 0 1
vt 1 0
vt 1 1
vt 0 1
vt 0 0
vt 1 0
vt 0 0
vt 1 0
vt 1 1
vt 0 1
vt 0 0
vt 1 0
vt 1 1
vt 0 1
vt 1 0
vt 1 1
vt 0 1
vt 0 0
vt 0 0
vt 1 1
vt 0 1
vt 1 0
vt 1 1
vt 0 1
vt 0 0
vt 1 0
vt 0 0
vt 1 0
vt 1 1
vt 0 1
vt 0 0
vt 1 0
vt 1 1
vt 0 1
vt 1 0
vt 1 1
vt 0 1
vt 0 0
vt 0 0
vt 1 1
vt 0 1
vt 1 0
vt 1 1
vt 0 1
vt 0 0
vt 1 0
vt 0 0
vt 1 0
vt 1 1
vt 0 1
vt 0 0
vt 1 0
vt 1 1
vt 0 1
vt 1 0
vt 1 1
vt 0 1
vt 0 0
vt 0 0
vt 1 1
vt 0 1
vt 1 0
vt 1 1
vt 0 1
vt 0 0
vt 1 0
vt 0 0
vt 1 0
vt 1 1
vt 0 1
vt 0 0
vt 1 0
vt 1 1
vt 0 1
vt 1 0
vt 1 1
vt 0 1
vt 0 0
vt 0 0
vt 1 1
vt 0 1
vt 1 0
vt 1 1
vt 0 1
vt 0 0
vt 1 0
vt 0 0
vt 1 0
vt 1 1
vt 0 1
vt 0 0
vt 1 0
vt 1 1
vt 0 1
vt 1 0
vt 1 1
vt 0 1
vt 0 0
vt 0 0
vt 1 1
vt 0 1
vt 1 0
vt 1 1
vt 0 1
vt 0 0
vt 1 0
vt 0 0
vt 1 0
vt 1 1
vt 0 1
vt 0 0
vt 1 0
vt 1 1
vt 0 1
vt 1 0
vt 1 1
vt 0 1
vt 0 0
vt 0 0
vt 1 1
vt 0 1
vt 1 0
vt 1 1
vt 0 1
vt 0 0
vt 1 0
vt 0 0
vt 1 0
vt 1 1
vt 0 1
vt 0 0
vt 1 0
vt 1 1
vt 0 1
vt 1 0
vt 1 1
vt 0 1
vt 0 0
vt 0 0
vt 1 1
vt 0 1
vt 1 0
vt 1 1
vt 0 1
vt 0 0
vt 1 0
vt 0 0
vt 1 0
vt 1 1
vt 0 1
vt 0 0
vt 1 0
vt 1 1
vt 0 1
vt 1 0
vt 1 1
vt 0 1
vt 0 0
vt 0 0
vt 1 1
vt 0 1
vt 1 0
vt 1 1
vt 0 1
vt 0 0
vt 1 0
vt 0 0
vt 1 0
vt 1 1
vt 0 1
vt 0 0
vt 1 0
vt 1 1
vt 0 1
vt 1 0
vt 1 1
vt 0 1
vt 0 0
vt 0 0
vt 1 1
vt 0 1
vt 1 0
vt 1 1
vt 0 1
vt 0 0
vt 1 0
vt 0 0
vt 1 0
vt 1 1
vt 0 1
vt 0 0
vt 1 0
vt 1 1
vt 0 1
vt 1 0
vt 1 1
vt 0 1
vt 0 0
vt 0 0
vt 1 1
vt 0 1
vt 1 0
vt 1 1
vt 0 1
vt 0 0
vt 1 0
vt 0 0
vt 1 0
vt 1 1
vt 0 1
vt 0 0
vt 1 0
vt 1 1
vt 0 1
vt 1 0
vt 1 1
vt 0 1
vt 0 0
vt 0 0
vt 1 1
vt 0 1
vt 1 0
vt 1 1
vt 0 1
vt 0 0
vt 1 0
vt 0 0
vt 1 0
vt 1 1
vt 0 1
vt 0 0
vt 1 0
vt 1 1
vt 0 1
vt 1 0
vt 1 1
vt 0 1
vt 0 0
vt 0 0
vt 1 1
vt 0 1
vt 1 0
vt 1 1
vt 0 1
vt 0 0
vt 1 0
vt 0 0
vt 1 0
vt 1 1
vt 0 1
vt 0 0
vt 1 0
vt 1 1
vt 0 1
vt 0 0.5991202
vt 0 0
vt 1 0
vt 1 0.5991202
vt 0 1
vt 1 1
vt 0 0
vt 0.4008798 0
vt 0.4008798 1
vt 1 1
vt 1 0
vt 0.5991202 0
vt 1 0
vt 0.5991202 1
vt 0 1
vt 0 0
vt 1 0.5991202
vt 0 0.5991202
vt 0 1
vt 1 1
vt 0 0
vt 1 0
vt 1 1
vt 0 1
vt 0 0
vt 1 0
vt 1 1
vt 0 1
vt 0 0
vt 1 0
vt 1 1
vt 0 1
vt 0 0
vt 1 0
vt 0 1
vt 0 0
vt 1 1
vt 1 0
vt 0 0
vt 1 0
vt 0 0
vt 1 0
vt 1 1
vt 0 1
vt 0 0
vt 1 0
vt 0 1
vt 0 0
vt 1 1
vt 1 0
vt 0 0
vt 1 0
vt 0 0
vt 1 1
vt 0 1
vt 1 0
vt 1 1
vt 0 1
vt 1 0
vt 0 0
vt 1 1
vt 0 1
vt 1 1
vt 0 1
vt 0 0
vt 1 1
vt 0 1
vt 1 0
vt 1 1
vt 0 1
vt 1 0
vt 0 0
vt 1 1
vt 0 1
vt 1 1
vt 0 1
vt 0 0
vt 1 0
vt 1 1
vt 0 1
vt 0 0
vt 1 0
vt 0 1
vt 0 0
vt 1 1
vt 1 0
vt 0 0
vt 1 0
vt 0 0
vt 1 0
vt 1 1
vt 0 1
vt 0 0
vt 1 0
vt 0 1
vt 0 0
vt 1 1
vt 1 0
vt 0 0
vt 1 0
vt 0 0
vt 1 1
vt 0 1
vt 1 0
vt 1 1
vt 0 1
vt 1 0
vt 0 0
vt 1 1
vt 0 1
vt 1 1
vt 0 1
vt 0 0
vt 1 1
vt 0 1
vt 1 0
vt 1 1
vt 0 1
vt 1 0
vt 0 0
vt 1 1
vt 0 1
vt 1 1
vt 0 1
g submesh0
f 1/1 2/2 3/3
f 1/1 3/3 4/4
f 5/5 1/1 6/6
f 5/5 6/6 7/7
f 4/4 8/8 9/9
f 4/4 9/9 10/10
f 11/11 9/9 7/7
f 11/11 12/12 9/9
f 13/13 14/14 15/15
f 13/13 15/15 16/16
f 17/17 18/18 19/19
f 17/17 19/19 20/20
f 21/21 22/22 23/23
f 21/21 23/23 24/24
f 25/25 21/21 26/26
f 25/25 26/26 27/27
f 24/24 28/28 29/29
f 24/24 29/29 30/30
f 31/31 29/29 27/27
f 31/31 32/32 29/29
f 33/33 34/34 35/35
f 33/33 35/35 36/36
f 37/37 38/38 39/39
f 37/37 39/39 40/40
f 41/41 42/42 43/43
f 41/41 43/43 44/44
f 45/45 41/41 46/46
f 45/45 46/46 47/47
f 44/44 48/48 49/49
f 44/44 49/49 50/50
f 51/51 49/49 47/47
f 51/51 52/52 49/49
f 53/53 54/54 55/55
f 53/53 55/55 56/56
f 57/57 58/58 59/59
f 57/57 59/59 60/60
f 61/61 62/62 63/63
f 61/61 63/63 64/64
f 65/65 61/61 66/66
f 65/65 66/66 67/67
f 64/64 68/68 69/69
f 64/64 69/69 70/70
f 71/71 69/69 67/67
f 71/71 72/72 69/69
f 73/73 74/74 75/75
f 73/73 75/75 76/76
f 77/77 78/78 79/79
f 77/77 79/79 80/80
f 81/81 82/82 83/83
f 81/81 83/83 84/84
f 85/85 81/81 86/86
f 85/85 86/86 87/87
f 84/84 88/88 89/89
f 84/84 89/89 90/90
f 91/91 89/89 87/87
f 91/91 92/92 89/89
f 93/93 94/94 95/95
f 93/93 95/95 96/96
f 97/97 98/98 99/99
f 97/97 99/99 100/100
f 101/101 102/102 103/103
f 101/101 103/103 104/104
f 105/105 101/101 106/106
f 105/105 106/106 107/107
f 104/104 108/108 109/109
f 104/104 109/109 110/110
f 111/111 109/109 107/107
f 111/111 112/112 109/109
f 113/113 114/114 115/115
f 113/113 115/115 116/116
f 117/117 118/118 119/119
f 117/117 119/119 120/120
f 121/121 122/122 123/123
f 121/121 123/123 124/124
f 125/125 121/121 126/126
f 125/125 126/126 127/127
f 124/124 128/128 129/129
f 124/124 129/129 130/130
f 131/131 129/129 127/127
f 131/131 132/132 129/129
f 133/133 134/134 135/135
f 133/133 135/135 136/136
f 137/137 138/138 139/139
f 137/137 139/139 140/140
f 141/141 142/142 143/143
f 141/141 143/143 144/144
f 145/145 141/141 146/146
f 145/145 146/146 147/147
f 144/144 148/148 149/149
f 144/144 149/149 150/150
f 151/151 149/149 147/147
f 151/151 152/152 149/149
f 153/153 154/154 155/155
f 153/153 155/155 156/156
f 157/157 158/158 159/159
f 157/157 159/159 160/160
f 161/161 162/162 163/163
f 161/161 163/163 164/164
f 165/165 161/161 166/166
f 165/165 166/166 167/167
f 164/164 168/168 169/169
f 164/164 169/169 170/170
f 171/171 169/169 167/167
f 171/171 172/172 169/169
f 173/173 174/174 175/175
f 173/173 175/175 176/176
f 177/177 178/178 179/179
f 177/177 179/179 180/180
f 181/181 182/182 183/183
f 181/181 183/183 184/184
f 185/185 181/181 186/186
f 185/185 186/186 187/187
f 184/184 188/188 189/189
f 184/184 189/189 190/190
f 191/191 189/189 187/187
f 191/191 192/192 189/189
f 193/193 194/194 195/195
f 193/193 195/195 196/196
f 197/197 198/198 199/199
f 197/197 199/199 200/200
f 201/201 202/202 203/203
f 201/201 203/203 204/204
f 205/205 201/201 206/206
f 205/205 206/206 207/207
f 204/204 208/208 209/209
f 204/204 209/209 210/210
f 211/211 209/209 207/207
f 211/211 212/212 209/209
f 213/213 214/214 215/215
f 213/213 215/215 216/216
f 217/217 218/218 219/219
f 217/217 219/219 220/220
f 221/221 222/222 223/223
f 221/221 223/223 224/224
f 225/225 221/221 226/226
f 225/225 226/226 227/227
f 224/224 228/228 229/229
f 224/224 229/229 230/230
f 231/231 229/229 227/227
f 231/231 232/232 229/229
f 233/233 234/234 235/235
f 233/233 235/235 236/236
f 237/237 238/238 239/239
f 237/237 239/239 240/240
f 241/241 242/242 243/243
f 241/241 243/243 244/244
f 245/245 241/241 246/246
f 245/245 246/246 247/247
f 244/244 248/248 249/249
f 244/244 249/249 250/250
f 251/251 249/249 247/247
f 251/251 252/252 249/249
f 253/253 254/254 255/255
f 253/253 255/255 256/256
f 257/257 258/258 259/259
f 257/257 259/259 260/260
f 261/261 262/262 263/263
f 261/261 263/263 264/264
f 265/265 261/261 266/266
f 265/265 266/266 267/267
f 264/264 268/268 269/269
f 264/264 269/269 270/270
f 271/271 269/269 267/267
f 271/271 272/272 269/269
f 273/273 274/274 275/275
f 273/273 275/275 276/276
f 277/277 278/278 279/279
f 277/277 279/279 280/280
f 281/281 282/282 283/283
f 281/281 283/283 284/284
f 285/285 281/281 286/286
f 285/285 286/286 287/287
f 284/284 288/288 289/289
f 284/284 289/289 290/290
f 291/291 289/289 287/287
f 291/291 292/292 289/289
f 293/293 294/294 295/295
f 293/293 295/295 296/296
f 297/297 298/298 299/299
f 297/297 299/299 300/300
f 301/301 302/302 303/303
f 301/301 303/303 304/304
f 305/305 301/301 306/306
f 305/305 306/306 307/307
f 304/304 308/308 309/309
f 304/304 309/309 310/310
f 311/311 309/309 307/307
f 311/311 312/312 309/309
f 313/313 314/314 315/315
f 313/313 315/315 316/316
f 317/317 318/318 319/319
f 317/317 319/319 320/320
f 321/321 322/322 323/323
f 321/321 323/323 324/324
f 325/325 321/321 326/326
f 325/325 326/326 327/327
f 324/324 328/328 329/329
f 324/324 329/329 330/330
f 331/331 329/329 327/327
f 331/331 332/332 329/329
f 333/333 334/334 335/335
f 333/333 335/335 336/336
f 337/337 338/338 339/339
f 337/337 339/339 340/340
f 341/341 342/342 343/343
f 341/341 343/343 344/344
f 345/345 341/341 346/346
f 345/345 346/346 347/347
f 344/344 348/348 349/349
f 344/344 349/349 350/350
f 351/351 349/349 347/347
f 351/351 352/352 349/349
f 353/353 354/354 355/355
f 353/353 355/355 356/356
f 357/357 358/358 359/359
f 357/357 359/359 360/360
f 361/361 362/362 363/363
f 361/361 363/363 364/364
f 365/365 361/361 364/364
f 365/365 364/364 366/366
f 365/365 367/367 368/368
f 365/365 368/368 369/369
f 370/370 369/369 368/368
f 370/370 368/368 371/371
f 366/366 372/372 373/373
f 366/366 374/374 372/372
f 375/375 372/372 374/374
f 375/375 376/376 372/372
f 376/376 371/371 377/377
f 376/376 377/377 378/378
f 379/379 378/378 377/377
f 379/379 377/377 380/380
f 381/381 382/382 383/383
f 381/381 383/383 384/384
f 385/385 386/386 387/387
f 385/385 387/387 388/388
f 389/389 390/390 391/391
f 389/389 391/391 392/392
f 393/393 394/394 391/391
f 393/393 391/391 395/395
f 396/396 397/397 392/392
f 396/396 398/398 397/397
f 399/399 397/397 395/395
f 399/399 400/400 397/397
f 401/401 402/402 403/403
f 401/401 403/403 404/404
f 405/405 406/406 403/403
f 405/405 403/403 407/407
f 408/408 409/409 404/404
f 408/408 410/410 409/409
f 411/411 409/409 407/407
f 411/411 412/412 409/409
f 413/413 414/414 415/415
f 413/413 416/416 414/414
f 413/413 417/417 418/418
f 413/413 419/419 417/417
f 420/420 416/416 421/421
f 420/420 421/421 422/422
f 420/420 419/419 423/423
f 420/420 423/423 424/424
f 425/425 426/426 427/427
f 425/425 428/428 426/426
f 425/425 429/429 430/430
f 425/425 431/431 429/429
f 432/432 428/428 433/433
f 432/432 433/433 434/434
f 432/432 431/431 435/435
f 432/432 435/435 436/436
f 437/437 438/438 439/439
f 437/437 439/439 440/440
f 441/441 442/442 439/439
f 441/441 439/439 443/443
f 444/444 445/445 440/440
f 444/444 446/446 445/445
f 447/447 445/445 443/443
f 447/447 448/448 445/445
f 449/449 450/450 451/451
f 449/449 451/451 452/452
f 453/453 454/454 451/451
f 453/453 451/451 455/455
f 456/456 457/457 452/452
f 456/456 458/458 457/457
f 459/459 457/457 455/455
f 459/459 460/460 457/457
f 461/461 462/462 463/463
f 461/461 464/464 462/462
f 461/461 465/465 466/466
f 461/461 467/467 465/465
f 468/468 464/464 469/469
f 468/468 469/469 470/470
f 468/468 467/467 471/471
f 468/468 471/471 472/472
f 473/473 474/474 475/475
f 473/473 476/476 474/474
f 473/473 477/477 478/478
f 473/473 479/479 477/477
f 480/480 476/476 481/481
f 480/480 481/481 482/482
f 480/480 479/479 483/483
f 480/480 483/483 484/484
