# RFReceiver_COL
v 0.101713568 -8.91527918E-09 0.203957826
v 0.101713561 0.542535305 0.203957856
v -0.101713561 0.542535305 0.203957856
v -0.101713568 -8.91527918E-09 0.203957826
v -0.101713568 -8.91527918E-09 0.203957826
v -0.101713561 0.542535305 0.203957856
v -0.101713561 0.542535305 -0.203957796
v -0.101713568 8.91527918E-09 -0.203957826
v 0.101713561 0.542535305 0.203957856
v -0.101713561 0.542535305 0.203957856
v 0.101713561 0.542535305 -0.203957796
v 0.101713568 8.91527918E-09 -0.203957826
v 0.101713561 0.542535305 0.203957856
v 0.101713568 -8.91527918E-09 0.203957826
v -0.101713568 8.91527918E-09 -0.203957826
v 0.101713568 8.91527918E-09 -0.203957826
v -0.101713568 8.91527918E-09 -0.203957826
v -0.101713561 0.542535305 -0.203957796
v 0.101713561 0.542535305 -0.203957796
v 0.101713568 8.91527918E-09 -0.203957826
v -0.031250421 0.465336472 0.156104401
v -0.0373254679 0.867937446 0.150644347
v -0.0658669472 0.867937446 0.150644347
v -0.071942009 0.465336472 0.156104401
v -0.071942009 0.465336472 0.156104401
v -0.0658669472 0.867937446 0.150644347
v -0.0658669472 0.867937446 0.124992251
v -0.071942009 0.465336472 0.119532213
v -0.0373254679 0.867937446 0.150644347
v -0.0658669472 0.867937446 0.150644347
v -0.0373254679 0.867937446 0.124992251
v -0.031250421 0.465336472 0.119532213
v -0.0373254679 0.867937446 0.150644347
v -0.031250421 0.465336472 0.156104401
v -0.071942009 0.465336472 0.119532213
v -0.031250421 0.465336472 0.119532213
v -0.071942009 0.465336472 0.119532213
v -0.0658669472 0.867937446 0.124992251
v -0.0373254679 0.867937446 0.124992251
v -0.031250421 0.465336472 0.119532213
v 0.0672510415 0.465336472 0.156104386
v 0.0611759722 0.867937326 0.150644332
v 0.0326345116 0.867937326 0.150644332
v 0.026559446 0.465336472 0.156104386
v 0.026559446 0.465336472 0.156104386
v 0.0326345116 0.867937326 0.150644332
v 0.0326345116 0.867937326 0.124992236
v 0.026559446 0.465336472 0.119532198
v 0.0611759722 0.867937326 0.150644332
v 0.0326345116 0.867937326 0.150644332
v 0.0611759722 0.867937326 0.124992236
v 0.0672510415 0.465336472 0.119532198
v 0.0611759722 0.867937326 0.150644332
v 0.0672510415 0.465336472 0.156104386
v 0.026559446 0.465336472 0.119532198
v 0.0672510415 0.465336472 0.119532198
v 0.026559446 0.465336472 0.119532198
v 0.0326345116 0.867937326 0.124992236
v 0.0611759722 0.867937326 0.124992236
v 0.0672510415 0.465336472 0.119532198
v -0.0312504135 0.465336472 -0.12304686
v -0.0373254642 0.867937326 -0.128506958
v -0.0658669397 0.867937326 -0.128506958
v -0.0719420016 0.465336472 -0.12304686
v -0.0719420016 0.465336472 -0.12304686
v -0.0658669397 0.867937326 -0.128506958
v -0.0658669397 0.867937326 -0.154159009
v -0.0719420016 0.465336472 -0.159619063
v -0.0373254642 0.867937326 -0.128506958
v -0.0658669397 0.867937326 -0.128506958
v -0.0373254642 0.867937326 -0.154159009
v -0.0312504135 0.465336472 -0.159619063
v -0.0373254642 0.867937326 -0.128506958
v -0.0312504135 0.465336472 -0.12304686
v -0.0719420016 0.465336472 -0.159619063
v -0.0312504135 0.465336472 -0.159619063
v -0.0719420016 0.465336472 -0.159619063
v -0.0658669397 0.867937326 -0.154159009
v -0.0373254642 0.867937326 -0.154159009
v -0.0312504135 0.465336472 -0.159619063
v 0.0672510266 0.465336472 -0.123046897
v 0.0611759648 0.867937326 -0.128506973
v 0.0326345041 0.867937326 -0.128506973
v 0.026559446 0.465336472 -0.123046897
v 0.026559446 0.465336472 -0.123046897
v 0.0326345041 0.867937326 -0.128506973
v 0.0326345041 0.867937326 -0.154159054
v 0.026559446 0.465336472 -0.159619093
v 0.0611759648 0.867937326 -0.128506973
v 0.0326345041 0.867937326 -0.128506973
v 0.0611759648 0.867937326 -0.154159054
v 0.0672510266 0.465336472 -0.159619093
v 0.0611759648 0.867937326 -0.128506973
v 0.0672510266 0.465336472 -0.123046897
v 0.026559446 0.465336472 -0.159619093
v 0.0672510266 0.465336472 -0.159619093
v 0.026559446 0.465336472 -0.159619093
v 0.0326345041 0.867937326 -0.154159054
v 0.0611759648 0.867937326 -0.154159054
v 0.0672510266 0.465336472 -0.159619093
vt 0 0
vt 0 1
vt 1 1
vt 1 0
vt 0 0
vt 0 1
vt 1 1
vt 1 0
vt 0 0
vt 1 0
vt 0 1
vt 0 0
vt 1 1
vt 1 0
vt 0 1
vt 1 1
vt 0 0
vt 0 1
vt 1 1
vt 1 0
vt 0 0
vt 0 1
vt 1 1
vt 1 0
vt 0 0
vt 0 1
vt 1 1
vt 1 0
vt 0 0
vt 1 0
vt 0 1
vt 0 0
vt 1 1
vt 1 0
vt 0 1
vt 1 1
vt 0 0
vt 0 1
vt 1 1
vt 1 0
vt 0 0
vt 0 1
vt 1 1
vt 1 0
vt 0 0
vt 0 1
vt 1 1
vt 1 0
vt 0 0
vt 1 0
vt 0 1
vt 0 0
vt 1 1
vt 1 0
vt 0 1
vt 1 1
vt 0 0
vt 0 1
vt 1 1
vt 1 0
vt 0 0
vt 0 1
vt 1 1
vt 1 0
vt 0 0
vt 0 1
vt 1 1
vt 1 0
vt 0 0
vt 1 0
vt 0 1
vt 0 0
vt 1 1
vt 1 0
vt 0 1
vt 1 1
vt 0 0
vt 0 1
vt 1 1
vt 1 0
vt 0 0
vt 0 1
vt 1 1
vt 1 0
vt 0 0
vt 0 1
vt 1 1
vt 1 0
vt 0 0
vt 1 0
vt 0 1
vt 0 0
vt 1 1
vt 1 0
vt 0 1
vt 1 1
vt 0 0
vt 0 1
vt 1 1
vt 1 0
g submesh0
f 1/1 2/2 3/3
f 1/1 3/3 4/4
f 5/5 6/6 7/7
f 5/5 7/7 8/8
f 9/9 7/7 10/10
f 9/9 11/11 7/7
f 12/12 11/11 13/13
f 12/12 13/13 14/14
f 14/14 5/5 15/15
f 14/14 15/15 16/16
f 17/17 18/18 19/19
f 17/17 19/19 20/20
f 21/21 22/22 23/23
f 21/21 23/23 24/24
f 25/25 26/26 27/27
f 25/25 27/27 28/28
f 29/29 27/27 30/30
f 29/29 31/31 27/27
f 32/32 31/31 33/33
f 32/32 33/33 34/34
f 34/34 25/25 35/35
f 34/34 35/35 36/36
f 37/37 38/38 39/39
f 37/37 39/39 40/40
f 41/41 42/42 43/43
f 41/41 43/43 44/44
f 45/45 46/46 47/47
f 45/45 47/47 48/48
f 49/49 47/47 50/50
f 49/49 51/51 47/47
f 52/52 51/51 53/53
f 52/52 53/53 54/54
f 54/54 45/45 55/55
f 54/54 55/55 56/56
f 57/57 58/58 59/59
f 57/57 59/59 60/60
f 61/61 62/62 63/63
f 61/61 63/63 64/64
f 65/65 66/66 67/67
f 65/65 67/67 68/68
f 69/69 67/67 70/70
f 69/69 71/71 67/67
f 72/72 71/71 73/73
f 72/72 73/73 74/74
f 74/74 65/65 75/75
f 74/74 75/75 76/76
f 77/77 78/78 79/79
f 77/77 79/79 80/80
f 81/81 82/82 83/83
f 81/81 83/83 84/84
f 85/85 86/86 87/87
f 85/85 87/87 88/88
f 89/89 87/87 90/90
f 89/89 91/91 87/87
f 92/92 91/91 93/93
f 92/92 93/93 94/94
f 94/94 85/85 95/95
f 94/94 95/95 96/96
f 97/97 98/98 99/99
f 97/97 99/99 100/100
