# rock_formation_mid_d_COL
v 0.417353511 1.0699271 -0.132025063
v 0.206093743 1.23869753 -0.0872490704
v -0.0587890595 1.21187985 -0.138905182
v -0.0587890595 1.21187985 -0.138905182
v -0.155166015 1.07928383 -0.0119940946
v 0.417353511 1.0699271 -0.132025063
v 1.64402342 1.03688288 -0.208827734
v 1.54077148 1.22380459 -0.11946106
v 1.76386714 1.11871946 0.131595984
v 1.54077148 1.22380459 -0.11946106
v 1.64402342 1.03688288 -0.208827734
v 1.76386714 1.11871946 0.131595984
v 0.417353511 1.0699271 -0.132025063
v -0.0587890595 1.21187985 -0.138905182
v 0.206093743 1.23869753 -0.0872490704
v 0.256806642 1.23731852 -0.306037068
v -0.348837882 1.31149125 -0.683910489
v 0.548574209 1.16599679 -0.389207602
v -0.183974609 1.29238844 -0.193253547
v -0.155166015 1.07928383 -0.0119940946
v -0.491513669 1.01363993 -0.03045143
v 0.288574219 0.859934807 0.326708585
v -0.543779314 1.25485909 -0.414185643
v -1.0233984 1.07150865 -0.260657191
v -0.40843749 0.900759101 0.117100902
v 0.362470686 1.25317657 -0.452718586
v -0.0905078128 1.4670707 -0.642506063
v -0.423974603 1.52115059 -1.00330591
v -0.627949178 1.31991458 -0.7956689
v -0.84395504 1.3821888 -1.11534882
v -0.944931626 1.38449264 -0.795312345
v -0.908476532 1.22397256 -0.532732606
v -0.932236314 1.43487799 -0.946356535
v -1.1487304 1.24235451 -1.23659432
v -1.17334962 1.46947289 -0.903076231
v -1.06029296 1.47382545 -1.35598874
v -0.870654285 1.3725816 -1.67974281
v -0.280576169 1.97300243 -1.48966599
v 0.0770507827 1.93520308 -0.940999269
v -0.583847642 1.70490134 -1.27114534
v -1.33115232 1.3592025 -1.06458032
v -1.25662112 1.16537714 -0.900800526
v -1.26973629 1.26531196 -0.704958498
v 0.0512109362 1.68613887 -0.916839063
v 0.185927734 1.47237229 -0.665641308
v -1.26774406 1.15993607 -1.10911942
v -1.58213866 1.3032068 -1.31498468
v -1.11609375 1.23974741 -0.58951211
v 0.400048822 1.84084976 -0.651604831
v 0.709374964 1.66991699 -1.0260402
v 0.347998053 1.70959389 -1.65413475
v -0.0110839838 1.9759028 -1.53282237
v -0.213066399 1.55770731 -1.55737257
v 0.687568367 1.70300031 -0.819022298
v -0.392578125 1.66050613 -1.60934877
v -0.0578222647 1.82076263 -1.90012264
v 0.116562501 1.83544052 -1.80998957
v -0.492871076 1.31133401 -1.65380061
v 0.227734372 1.6922406 -2.20491028
v -0.0669140592 1.76617289 -2.11186147
v 0.0519238263 1.35489225 -2.23793054
v 0.683505833 1.34909987 -2.4671011
v 0.979492188 1.54239988 -1.22669947
v 1.14174807 1.21727657 -1.84222627
v 0.859970689 1.57111645 -0.810361028
v 0.953769505 1.52122879 -0.481891632
v 0.867568314 1.56138778 -0.317778021
v 0.211845696 0.458468646 -2.28599024
v 0.520205081 0.907655299 -2.43907762
v 0.823613286 1.18199599 -2.47955775
v 1.75100577 0.887867868 -2.40823817
v -0.42600584 0.760612607 -2.11549377
v 0.74758786 0.325681716 -2.76147985
v 0.325332016 0.334341109 -2.38752007
v 1.21226561 0.757490993 -2.79601598
v -0.0491601564 0.408200622 -2.39266682
v -0.886679649 0.458232611 -2.14133501
v -1.42307615 0.883450627 -1.93872833
v -1.26431632 1.18085253 -1.76425385
v -1.50955069 1.17038989 -1.56380248
v 0.339443356 0.336536437 -2.71004939
v 0.677001953 0.22194916 -3.07800603
v -0.0884179696 -0.0286426917 -3.62851214
v 1.34886718 0.263057411 -2.85000181
v -0.297832012 0.39666903 -2.559726
v 0.0600195304 0.321030259 -2.84079862
v 0.900546849 0.469179034 -2.86430311
v -0.509453118 0.379682183 -2.65807104
v -0.814980447 0.424667835 -2.37925172
v -1.33459961 0.278214753 -2.91299462
v -1.28203118 0.464390278 -2.27746487
v 3.86165023 -0.0286426917 -4.35241365
v 3.12482405 0.0479439162 -3.66243267
v 4.45294905 -0.0286426917 -4.10057211
v -2.6043067 -0.0286426917 -2.99078941
v 5.28507805 -0.0286426917 -2.78799486
v 2.03385735 0.294814378 -3.06570458
v 1.41022456 0.650355339 -2.71818209
v 1.8639648 0.72219193 -2.49085951
v 1.77721679 0.681633592 -2.82604218
v 2.98523426 0.337622434 -3.06789017
v 3.52049804 0.382966429 -2.92882037
v 2.40591788 0.632260382 -2.21202469
v 3.28657222 0.191393346 -3.13776708
v 3.33005857 0.160179332 -3.36231828
v 3.95774412 0.293293744 -2.85006166
v 4.40587902 0.191925958 -2.27725744
v 4.44302702 0.282652736 -0.688278854
v 3.79124999 0.451783925 -1.31922638
v 4.41507816 0.100052446 -2.82972074
v 4.13993168 0.169319034 -2.71515155
v 2.38239241 0.87021178 -1.77080071
v 3.25139642 0.832416356 -0.47560972
v 2.13519526 1.15254962 -0.578722239
v 4.68153334 0.184744075 -2.40458822
v 4.97036123 0.134965479 -2.11553288
v 4.86325169 0.247629851 -1.59645104
v 5.90585947 0.0978725776 -1.00380707
v 6.77951145 -0.0286426917 0.579727411
v 1.36486328 1.18149638 -1.6010685
v 4.97036123 0.240762666 -1.34697449
v 1.21293938 1.28980362 -1.62716734
v 1.2414844 1.44105935 -0.890684009
v 5.14669895 0.234248579 -0.932538331
v 5.35790014 0.259965926 -0.546723485
v 5.93839836 0.2134967 -0.058619231
v 5.42356443 0.234362602 -0.289809495
v 6.20338869 0.228715092 1.05386984
v 6.72723627 -0.0286426917 1.74859917
v 6.18245125 0.163450956 1.51498282
v 4.955791 -0.0286426153 3.00116515
v 4.63947248 0.283463955 -0.193802863
v 4.94187498 0.341596752 -0.343205035
v 4.46556616 0.398184925 -0.693182051
v 4.33893538 0.524793744 -0.320103228
v 4.59576178 0.353014857 0.0598894469
v 5.11605453 0.330036491 0.0450328812
v 5.55925751 0.236544371 0.220851049
v 5.70883799 0.216690853 0.602924407
v 5.65951157 0.421110868 0.0830860138
v 5.95460939 0.361710697 0.46402061
v 5.36867189 0.274565279 0.509477615
v 5.86165047 0.157770187 1.49708307
v 5.2423048 0.186620325 1.91402161
v 4.85441399 0.188461527 1.23010504
v 3.25561523 0.539893568 0.97566396
v 3.84903312 0.205638617 2.17124009
v 2.63520503 -0.0286426917 3.067554
v 5.35818338 0.208236963 0.923379719
v 5.49730444 0.358019888 0.926360071
v 4.44741201 0.400677741 -0.0406417064
v 4.05910158 0.39282465 0.200444102
v 3.55166984 0.708056629 -0.152027503
v 3.88243151 0.58988893 0.101342849
v 2.91801763 0.852136493 0.27530387
v 3.4538281 0.613815963 0.562549949
v 2.87251949 1.08578646 -0.241424397
v 2.21344733 1.1972667 -0.293111265
v 2.05795884 1.23475456 -0.393383175
v 1.45521486 1.33087897 -0.839855731
v 1.2961328 1.47356606 -0.425587773
v 1.54494143 1.34327924 -0.350444555
v 1.64402342 1.03688288 -0.208827734
v 2.18591785 1.02716672 -0.226519078
v 1.83765626 1.33375943 -0.0658040568
v 2.24005866 1.0258528 0.027194595
v 2.52726555 1.17093897 -0.189611584
v 2.68787098 0.978817284 0.0564177707
v 2.02959967 0.960128307 0.1656501
v 1.76386714 1.11871946 0.131595984
v 1.09458983 1.40480447 -0.676562786
v 0.895292938 1.2392906 -0.562165082
v 1.02336907 1.26206183 -0.365060031
v 0.867353499 1.17266369 -0.436766952
v 0.599277318 1.01792717 -0.0694124624
v 1.93116212 0.99929744 0.396265477
v 1.88299799 0.843865514 0.858997881
v 1.6667676 1.06757128 0.417406976
v 1.38856447 1.04282844 0.227342442
v 1.17452145 1.04236627 -0.119713664
v 0.842509747 0.869094372 0.0849327818
v 2.55777335 0.668348193 1.11096442
v 2.35540032 0.284141928 1.19669819
v 2.82194328 0.371930659 1.03849626
v 3.442168 0.312658489 1.90176749
v 3.21080065 0.175066441 1.8589853
v 3.55695295 0.0810169205 2.15803218
v 0.586464822 0.904535532 0.372937828
v 1.33256829 0.890133798 0.118538894
v 1.09694338 0.682427347 0.596209347
v 0.787724614 0.813964844 0.505748808
v 0.803291023 0.593501925 0.606637359
v 1.30396485 1.00777626 0.314283371
v 0.585009754 0.775093496 0.46717903
v 0.296962887 0.624967754 0.453727782
v 1.57994139 1.05927002 0.58377862
v 1.18614256 1.0100584 0.517487228
v 1.43074214 0.748391688 0.679263949
v 1.42867184 0.376092762 0.824668765
v 1.74941397 0.620793879 0.953277469
v 1.05513668 0.507808685 0.585819006
v 1.67124021 0.205962747 1.4791677
v 0.967304647 0.384651572 1.04252672
v 1.30176759 0.0423678197 2.29516315
v 1.05311525 0.0561813712 2.16197634
v -0.594472647 -0.00117710116 2.3057797
v -0.602607429 -0.0286426153 2.97416377
v -0.0642382801 0.032261923 2.21583247
v 0.48588866 0.153807223 1.56866813
v 0.375156254 0.357643515 1.24653769
v 0.425107419 0.38161993 0.60091424
v 0.234716788 0.206582859 1.27467489
v -0.0790234357 0.683035851 0.673450232
v 0.000419921853 0.780165553 0.398960948
v -0.217968747 0.668565512 0.750731885
v -0.35350585 0.785689652 0.636553228
v 0.0490039065 0.211698949 1.87980497
v -0.0726171881 0.132025912 1.46330595
v -0.449824214 0.0448609516 1.85663843
v -0.466718733 0.0914527103 1.26132989
v -1.18168938 0.00623020157 1.13291955
v -1.87717772 -0.0111116404 1.71453214
v -2.7940135 -0.0286426917 2.31394768
v -1.14287102 0.148069039 1.13163888
v -0.587871075 0.992584646 0.379505694
v -1.23045897 1.05090451 0.106138684
v -0.725615203 1.19641614 0.148178473
v -0.912138641 0.906924129 0.0793906376
v -1.21691406 1.14367044 -0.0482677445
v -1.1042676 1.22356486 -0.332682192
v -1.44464839 1.21015561 -0.4625099
v -1.55004883 1.3167212 -0.0898662582
v -1.37660158 1.12321174 -0.669628739
v -1.13867188 1.18809068 -0.64466393
v -1.4000293 1.08059883 -0.755219698
v -2.0012207 1.11737394 -0.445273519
v -2.39841795 1.02522337 -0.805115998
v -2.47130847 0.93931973 -1.11268222
v -2.35816407 1.04684341 -1.31083512
v -2.65521479 1.02929688 -0.977543712
v -2.51847649 0.758461595 -1.37469649
v -1.98563468 1.31152749 -0.206700057
v -2.07564449 0.595918477 0.554835856
v -2.33528304 1.23626113 -0.624075592
v -2.72764635 1.13595843 -0.60760051
v -2.16775393 1.16263187 -0.269451141
v -2.52938461 1.14593625 -0.205748662
v -1.8187207 0.61732614 -2.05489922
v -1.30640626 0.672206581 -2.09704256
v -2.84624028 0.728208423 -1.35988665
v -2.97780275 0.967472792 -1.30168116
v -3.7102344 1.07308745 -1.17690575
v -2.90373039 1.39819109 -0.55650574
v -2.51526356 0.653839231 -1.86548483
v -3.58295894 0.723806918 -1.47105384
v -3.21566391 0.553934753 -2.11540651
v -2.22069335 0.601362348 -2.18697262
v -2.04344726 0.529256403 -2.38086486
v -2.66790032 0.569194913 -2.19254613
v -2.22210932 0.357699037 -2.66908169
v -3.50694323 1.04323387 -0.334603578
v -3.48837876 1.40336895 -0.788796961
v -3.23512697 0.854425967 -0.0488977805
v -3.78333974 0.811870396 -0.172032624
v -2.79736328 0.740926325 0.158814162
v -4.02467775 0.653140545 -0.231626436
v -3.9503417 0.92327708 -0.456897497
v -4.8564353 0.757319748 -0.5430879
v -4.3449707 0.307961464 0.195119247
v -3.63838863 0.0200090408 0.732798398
v -4.37871075 1.01348519 -0.897373319
v -3.97134757 1.20409501 -1.04009545
v -4.04729462 0.807490051 -1.23372626
v -5.4491992 0.117885247 -0.0539675131
v -3.90155268 0.795425534 -1.52655089
v -4.52015638 1.03187895 -1.06400025
v -5.29545879 1.01276088 -0.975270689
v -5.06224585 0.471001774 -1.78406394
v -4.40921879 0.825208724 -1.37651491
v -3.98435545 0.623866677 -1.95760703
v -3.69590807 0.567503929 -1.96362698
v -3.49116206 0.70708096 -2.00046015
v -3.79802728 0.507249296 -2.12705922
v -5.14612293 0.533967435 -0.389255136
v -5.47605467 0.35119164 -0.255688995
v -5.82374001 0.0985773057 -0.256544709
v -6.31507778 0.0515932851 0.185835034
v -4.24630833 0.523450315 -2.25615907
v -1.66161132 0.430690169 -2.66654849
v -5.46620083 -0.0286426917 -2.55610466
v -4.83517551 0.475532413 -1.92866051
v -4.84377909 0.239750087 -2.33169985
v -1.46692383 0.488307297 -2.38343263
v -1.35782218 0.397334158 -2.68635702
v -1.35816407 0.616479039 -2.36307073
v -5.42218733 0.372417778 -1.97804201
v -5.57821274 0.481043577 -1.61944854
v -6.09923792 0.268076241 -2.01544428
v -7.21641588 -0.0293287262 -1.59249055
v -6.00404263 0.428023875 -1.67726457
v -6.39068365 0.2241164 -1.73514473
v -6.47030258 0.206323162 -1.06906879
v -6.91003895 -0.0286426917 -0.0267017353
v -6.13496065 0.339417338 -1.48161721
v -5.95650387 0.4855344 -1.4328959
v -5.83053684 0.742909849 -1.13225889
v -6.09621096 0.636973798 -1.25639451
v -5.96489239 0.456595331 -0.587932289
v -6.19861317 0.426344037 -0.74326086
v -6.44582033 0.105813898 -0.53381294
v -6.0535059 -0.0286426917 1.00823176
v -2.56050777 -0.0484384522 0.982833445
v -2.99865222 0.247292206 0.422808439
v -1.57956052 0.088323094 0.789726019
v -2.07465816 0.289681226 0.662975371
v -2.58753896 0.798763692 0.0635286719
v -2.27754879 0.336353064 0.287914962
v -1.60207033 0.209663272 0.99602288
v -1.91057611 0.427573115 0.614916265
v -2.3577733 0.686937988 0.0362017043
v -2.27304673 0.984546363 -0.0252689347
v -2.10233402 0.921178997 0.175683051
vn -0.134747535 -0.408213586 0.902886927
vn -0.134747535 -0.408213615 0.902886868
vn -0.134747535 -0.408213586 0.902886927
vn 0.171674028 0.613205016 0.771043241
vn 0.171674028 0.613205016 0.771043241
vn 0.171673998 0.613204956 0.771043241
vn 0.713716745 0.5811643 -0.390968502
vn 0.713716805 0.5811643 -0.390968502
vn 0.713716805 0.5811643 -0.390968502
vn -0.713716805 -0.5811643 0.390968502
vn -0.713716745 -0.5811643 0.390968502
vn -0.713716805 -0.5811643 0.390968502
vn 0.175258011 0.913541019 0.367052138
vn 0.189719692 0.92344451 0.333551407
vn 0.134747535 0.408213615 -0.902886868
vn 0.202729747 0.880902946 0.427680612
vn -0.250412643 0.884329855 0.394023269
vn 0.059781909 0.759992719 0.647176325
vn 0.142028034 0.931825161 0.333960801
vn -0.0971100107 0.72078532 0.686322093
vn -0.216139615 0.73816359 0.639060318
vn -0.084413074 0.732487261 0.675527215
vn -0.16624561 0.922950268 0.347167522
vn 0.284533203 0.884161711 0.370538801
vn 0.201827973 0.904898942 0.374731094
vn 0.167043582 0.784907222 0.5966717
vn -0.263673186 0.710657954 0.652258933
vn -0.416424751 0.689811707 0.592241704
vn 0.0724969506 0.981844127 0.175289139
vn -0.269775778 0.917967677 0.290786028
vn 0.106293596 0.911774695 0.396697104
vn -0.161006734 0.857547283 0.48855859
vn 0.140604898 0.987100244 -0.0765726939
vn -0.404542774 0.905993879 -0.124580398
vn -0.358892173 0.930359125 0.0750223547
vn -0.808592379 0.588352084 -0.00450522453
vn -0.26470229 0.655561268 -0.707228541
vn -0.313374907 0.867411673 -0.386514217
vn -0.167823628 0.875727177 0.452699929
vn -0.374325484 0.747437835 0.548832357
vn -0.836873412 0.492720008 -0.238474131
vn -0.719009399 0.63782984 0.276040763
vn -0.845941186 0.532215297 -0.0336216688
vn -0.494209111 0.384695947 0.779593766
vn -0.294810563 0.562828779 0.772211373
vn -0.45119524 0.889820099 -0.0681401268
vn -0.104157992 0.993202507 -0.0519615971
vn 0.0509059243 0.976414323 0.209817931
vn 0.211362571 0.708075047 0.673762381
vn 0.395447999 0.918486118 -0.00205419352
vn 0.386198163 0.906850338 -0.168740779
vn 0.127665579 0.802997768 -0.582147717
vn 0.0990324914 0.927093208 -0.361511678
vn -0.230970159 0.972426355 0.0322445147
vn -0.119613484 0.498084277 -0.858839095
vn -0.35769996 0.93371141 -0.0152902687
vn 0.113592707 0.973305643 0.19943127
vn -0.227874756 0.361832947 -0.903963506
vn 0.132583961 0.739865243 -0.659561038
vn -0.445839673 0.661433935 -0.603102028
vn -0.534675658 0.0574717559 -0.843100727
vn 0.214766115 0.552697778 -0.8052333
vn 0.440508068 0.884225249 -0.15523605
vn 0.413090259 0.873072743 -0.259037554
vn 0.567211926 0.817787111 0.0974415988
vn 0.832835019 0.518866241 0.192779049
vn 0.260210752 0.390386015 0.883113265
vn -0.243858367 0.425552696 -0.871457398
vn -0.424598813 0.127006054 -0.896429241
vn 0.177837297 0.571064055 -0.801411092
vn 0.355805397 0.799249887 -0.484357357
vn -0.0371884294 0.546648443 -0.83653599
vn -0.333866745 0.691066384 -0.641061842
vn -0.240716994 0.767086446 -0.59467119
vn 0.123084158 0.359606624 -0.92495048
vn 0.0771074221 0.896123469 -0.437055022
vn -0.0321482681 0.743215621 -0.668279052
vn -0.218595117 0.616389811 -0.756491721
vn -0.292455345 0.706514895 -0.644442797
vn -0.284874946 0.827978015 -0.483010054
vn 0.178758532 0.973913014 -0.139781296
vn 0.0506634153 0.904137254 -0.424227744
vn -0.0299659111 0.922902405 -0.383866042
vn -0.199206874 0.351093709 -0.914904237
vn 0.0240343884 0.976603746 -0.213699818
vn 0.0293819066 0.937956452 -0.345506072
vn -0.553048968 0.332784235 -0.763800561
vn -0.117729157 0.927142084 -0.355734974
vn -0.0311283208 0.978860199 -0.202147812
vn -0.0239769053 0.868687093 -0.49478054
vn 0.241706938 0.896209061 -0.372004092
vn 0.0293666013 0.995045185 -0.0949880257
vn 0.100224376 0.980503321 -0.169021234
vn 0.0432897918 0.99812597 -0.0432484038
vn -0.126327947 0.737290144 -0.66365993
vn 0.183672339 0.968563557 -0.167776555
vn -0.160155937 0.583127975 -0.796436906
vn 0.174720317 0.443924397 -0.878865182
vn 0.310041636 0.828427911 -0.466456145
vn -0.101160571 0.812360525 -0.574314356
vn 0.0831672177 0.824461579 -0.559773445
vn 0.17582579 0.92269057 -0.343114287
vn 0.29985851 0.916098833 -0.266172379
vn 0.0128755625 0.929492772 -0.368615597
vn 0.132582366 0.909159958 -0.39477855
vn 0.325629056 0.904499829 -0.275401473
vn 0.151710689 0.983830273 -0.0951942354
vn 0.612420857 0.678554416 -0.405591637
vn 0.320966125 0.930906534 -0.174338087
vn 0.178379759 0.951434553 -0.250904202
vn 0.51103431 0.850833476 -0.122173093
vn 0.318052143 0.904602706 -0.283789992
vn 0.340868533 0.936535954 -0.0819077119
vn 0.317101389 0.923416555 -0.216214076
vn 0.107631847 0.988989174 -0.101566188
vn 0.144625843 0.978184521 -0.149125695
vn 0.096995309 0.991043329 -0.0917884558
vn 0.38837108 0.903300762 -0.182251453
vn 0.381257832 0.921874881 -0.0692037866
vn 0.421736598 0.878156543 -0.22578612
vn 0.119555697 0.992448449 -0.0274321921
vn 0.474784046 0.813365757 -0.336178929
vn 0.386106908 0.921043873 -0.0509855598
vn 0.107514337 0.991526186 -0.0729135498
vn 0.175964549 0.982956409 -0.0532261506
vn 0.302075475 0.941179872 -0.151429057
vn 0.145017862 0.985678375 -0.0860695168
vn 0.180313095 0.98186022 0.0586323664
vn 0.292853117 0.940312624 0.173347309
vn 0.147834092 0.972994089 0.177278414
vn 0.06597884 0.975962996 0.207708791
vn 0.311744779 0.941917419 -0.124927297
vn -0.272005975 0.753009796 -0.599156976
vn 0.760006368 0.443596274 -0.47498709
vn 0.396044672 0.917942762 0.0230133124
vn 0.325447142 0.934649765 -0.143226966
vn 0.112796359 0.993571401 -0.00963463075
vn -0.0154253449 0.994431436 0.104250446
vn -0.0549187176 0.989480495 0.133836657
vn 0.0745411962 0.947979629 0.309480816
vn 0.211265087 0.977306306 -0.0154726179
vn 0.0501758642 0.99810493 0.0356233604
vn -0.0136969546 0.999874353 0.00797386188
vn -0.0360910669 0.991687238 0.123506971
vn 0.0851590112 0.992055714 0.0925916731
vn 0.119037472 0.937034547 0.328323543
vn -0.016254615 0.96323508 0.268167973
vn -0.0308622774 0.985240459 0.168371081
vn -0.0507487133 0.974487901 0.218627289
vn 0.219325706 0.611271739 0.760422945
vn 0.137542874 0.94642067 0.292181432
vn 0.314378619 0.881103575 0.353302479
vn 0.273968726 0.955148697 0.112392336
vn 0.39614895 0.880332112 0.260924101
vn 0.249247059 0.929125845 0.273131818
vn 0.386193544 0.864967167 0.320447206
vn 0.374432623 0.925478458 -0.0573572628
vn -0.148967355 0.946620286 0.285865217
vn 0.214864314 0.93624872 0.277977675
vn 0.390004456 0.904906571 -0.170412675
vn 0.069690682 0.903971434 0.421875417
vn 0.18188566 0.799067497 0.573069632
vn -0.16955857 0.912033916 0.373421907
vn -0.371945828 0.880852103 0.292841047
vn -0.148371488 0.98723352 -0.0579290241
vn 0.119323947 0.868701458 0.480748892
vn 0.137784496 0.975038946 0.174110591
vn 0.10889256 0.875973701 0.469906867
vn 0.28066209 0.899226487 0.335589677
vn -0.0730306059 0.949638963 0.304716736
vn -0.165963739 0.915491343 0.366512626
vn 0.472354531 0.86995095 -0.141656205
vn -0.301259488 0.130317345 0.944595218
vn -0.061255347 0.527435958 0.847383678
vn 0.00278573413 0.79808563 0.602537692
vn 0.265030265 0.941745222 0.207062483
vn -0.0780484006 0.741146684 0.666790843
vn 0.103066117 0.978513598 0.178573623
vn -0.439880818 0.897878051 -0.0178830866
vn -0.133396491 0.991044044 0.00610203575
vn 0.129350796 0.896220267 0.424332023
vn 0.125814274 0.599766791 0.79022187
vn -0.0627411455 0.790780485 0.608875751
vn 0.00624096859 0.582684875 0.812674344
vn -0.234218717 0.847385764 0.476528078
vn -0.254513621 0.916031599 0.310014486
vn -0.0930383056 -0.714597523 0.693321228
vn -0.0127967177 0.856588125 0.515841961
vn -0.717417896 0.606120944 0.343407869
vn -0.30371061 0.480133057 0.822941065
vn 0.0588642396 0.77453202 0.62978965
vn -0.109187499 0.684057653 0.721209586
vn -0.645727754 0.724527895 -0.24102892
vn -0.273723513 0.491332352 0.826842248
vn 0.0883614421 0.589832783 0.802676439
vn -0.0608800165 0.872516632 0.484776676
vn -0.712851405 0.653910637 0.253463656
vn -0.369694322 0.399776459 0.838751912
vn -0.17196621 0.743772924 0.645933032
vn -0.351783693 0.312646031 0.882326841
vn 0.0144139035 0.63754493 0.770278394
vn 0.00800204463 0.975435436 0.220140308
vn 0.0932313576 0.935315311 0.341311187
vn -0.0332586057 0.987439573 0.154456913
vn -0.0227632318 0.982809782 0.183212295
vn -0.0342508517 0.997766495 0.0573492274
vn -0.00907613058 0.999259174 0.0373992287
vn -0.0407510586 0.965132654 0.258569747
vn -0.0494637713 0.958137631 0.282003015
vn -0.38525781 0.86021769 0.334068835
vn -0.0703824833 0.850311339 0.521552324
vn -0.243392587 0.883676171 0.399845481
vn 0.269695997 0.857574642 0.437983871
vn 0.123568043 0.862665474 0.490448087
vn 0.0600449815 0.77744931 0.626072764
vn 0.106854886 0.820234716 0.561958075
vn 0.0662148297 0.964445949 0.255850852
vn -0.149878398 0.987957895 0.0384150445
vn -0.1609184 0.982889831 0.0896257535
vn -0.167023122 0.900494337 0.401513636
vn 0.333908021 0.649567783 0.683057308
vn -0.0351719409 0.998585463 0.0398737937
vn -5.00146925E-05 0.999964833 0.00838328712
vn 0.320312142 0.36776942 0.873009622
vn 0.177767769 0.86585784 0.467641801
vn 0.146772787 0.803290069 0.577219844
vn -0.0612252131 0.977999508 0.199419975
vn -0.159182683 0.977979243 0.1349722
vn 0.398375422 0.853989303 0.334663033
vn 0.473222256 0.861876965 0.182287365
vn -0.813490927 0.560992301 -0.153362542
vn 0.103068866 0.966594398 0.234674558
vn -0.329111546 0.778953612 -0.533776164
vn -0.843873382 0.000921209867 -0.536541462
vn -0.183147341 0.982713759 0.0270299539
vn 0.0346934013 0.935494781 -0.351633132
vn 0.0455437861 0.912816763 -0.405821741
vn 0.277178675 0.922730982 0.267842621
vn -0.42394343 0.819528043 -0.385545939
vn 0.121577226 0.930896103 -0.344458163
vn -0.263986796 0.817332208 -0.51213181
vn -0.249516591 0.967700124 -0.0360260196
vn -0.434755534 0.296351969 0.850389957
vn 0.149168983 0.902013183 -0.405118316
vn 0.266424119 0.863042116 -0.429157883
vn -0.258881092 0.956869841 0.131836042
vn 0.0227812175 0.848214209 0.529163122
vn -0.0922627673 0.882407308 -0.461351126
vn 0.089562498 0.649528742 -0.755043685
vn 0.0919348374 0.831830323 -0.547362864
vn 0.236323729 0.694992423 -0.679070413
vn -0.0249331333 0.721347213 -0.692124665
vn 0.283461332 0.956578255 -0.067879796
vn -0.0448815338 0.97796154 -0.203903839
vn 0.109429061 0.843026638 -0.526622653
vn 0.00947297178 0.928342402 -0.371605545
vn -0.023826737 0.954145014 -0.298395187
vn -0.0264986102 0.926808 -0.374599338
vn -0.0731812492 0.932242393 -0.354356527
vn -0.106475584 0.79066503 -0.60291934
vn -0.230986148 0.743564844 0.627500355
vn -0.0672201514 0.992807508 -0.099069111
vn -0.182777524 0.705467045 0.684768975
vn -0.346380562 0.420178026 0.838731706
vn 0.0833303481 0.560320556 0.824073374
vn -0.289039463 0.738323092 0.609372795
vn -0.356805146 0.743412614 0.565709889
vn -0.165499255 0.802993417 0.572548389
vn -0.235056937 0.728748858 0.643174291
vn -0.0571083091 0.931555331 0.359086901
vn -0.1930511 0.976132095 0.0994854644
vn -0.337545484 0.803269386 -0.49073559
vn -0.189554214 0.875795364 -0.443904966
vn -0.168018579 0.87707901 0.450002551
vn 0.0184648298 0.919327199 -0.393060505
vn 0.0290054213 0.986402094 -0.161770329
vn -0.225006863 0.97320348 0.0474006571
vn -0.146165878 0.863069475 -0.483473659
vn -0.0172020458 0.89255321 -0.450613976
vn 0.034163814 0.922889531 -0.383546203
vn -0.245992959 0.94535172 -0.214003652
vn -0.00394678814 0.940031826 -0.341064036
vn 0.0392945148 0.897752285 -0.438744485
vn -0.153344095 0.709381163 0.687941849
vn -0.29888168 0.680695593 0.668822348
vn -0.218066603 0.884275854 0.412920266
vn -0.106427334 0.987323105 0.11775516
vn -0.109403223 0.870184004 -0.480427593
vn -0.0247579906 0.886719346 -0.46164462
vn -0.165063649 0.78570199 -0.596176445
vn -0.253281504 0.897760332 -0.360381454
vn -0.369225442 0.912361741 -0.176829219
vn -0.208380491 0.977985859 -0.0110117383
vn 0.424244463 0.83122164 -0.359287053
vn 0.0796044692 0.973696887 0.213488996
vn -0.0304509085 0.879828632 -0.4743146
vn -0.145828664 0.888249695 -0.435598969
vn -0.321535885 0.762450814 -0.561501026
vn -0.351582289 0.930132151 -0.106037892
vn -0.305013388 0.928212166 -0.213047206
vn -0.356452823 0.927072823 -0.116092063
vn -0.508535326 0.860667706 0.025355503
vn -0.202854991 0.972213626 0.116835654
vn -0.55778265 0.803575397 -0.207713991
vn -0.277919888 0.821882129 -0.497262865
vn -0.391293317 0.910476208 -0.133875445
vn -0.477500349 0.823351264 -0.306734711
vn -0.312104076 0.733809829 0.603418708
vn -0.537970245 0.777862489 0.324835479
vn -0.257006109 0.927975059 0.269833446
vn -0.0363812074 0.994642973 0.0967557207
vn -0.055899471 0.959157109 0.27729553
vn 0.109737344 0.655135036 0.747499645
vn -0.640113354 0.408980966 0.65037626
vn 0.14846696 0.920476019 0.361499041
vn 0.228102386 0.416117042 0.880236328
vn -0.370591253 0.672351897 0.64078474
vn -0.527514875 -0.0789043456 0.845873594
vn -0.437466562 0.181116447 0.880806386
vn -0.246422097 0.40444234 0.880739808
vn -0.43514967 0.656469345 0.616192162
vn -0.49334839 0.618278086 0.611832917
g submesh0
f 1//1 2//2 3//3
f 4//4 5//5 6//6
f 7//7 8//8 9//9
f 10//10 11//11 12//12
f 13//13 14//14 15//15
f 14//14 13//13 16//16
f 17//17 14//14 16//16
f 13//13 18//18 16//16
f 14//14 17//17 19//19
f 14//14 19//19 20//20
f 21//21 20//20 19//19
f 13//13 20//20 22//22
f 20//20 21//21 22//22
f 23//23 19//19 17//17
f 23//23 21//21 19//19
f 21//21 23//23 24//24
f 25//25 21//21 24//24
f 25//25 22//22 21//21
f 18//18 26//26 16//16
f 27//27 17//17 16//16
f 27//27 16//16 26//26
f 27//27 28//28 17//17
f 17//17 29//29 23//23
f 28//28 30//30 17//17
f 29//29 17//17 30//30
f 23//23 29//29 31//31
f 24//24 23//23 32//32
f 32//32 23//23 31//31
f 33//33 31//31 29//29
f 29//29 30//30 33//33
f 30//30 34//34 33//33
f 35//35 31//31 33//33
f 31//31 35//35 32//32
f 36//36 30//30 28//28
f 34//34 30//30 36//36
f 37//37 34//34 36//36
f 36//36 38//38 37//37
f 39//39 38//38 28//28
f 36//36 40//40 38//38
f 40//40 36//36 28//28
f 28//28 38//38 40//40
f 41//41 33//33 34//34
f 35//35 33//33 41//41
f 35//35 41//41 42//42
f 35//35 42//42 43//43
f 32//32 35//35 43//43
f 44//44 39//39 28//28
f 28//28 27//27 44//44
f 44//44 27//27 45//45
f 44//44 45//45 39//39
f 26//26 45//45 27//27
f 34//34 46//46 41//41
f 41//41 46//46 42//42
f 47//47 46//46 34//34
f 42//42 46//46 47//47
f 43//43 48//48 32//32
f 32//32 48//48 24//24
f 39//39 45//45 49//49
f 49//49 45//45 26//26
f 50//50 49//49 26//26
f 39//39 49//49 50//50
f 51//51 39//39 50//50
f 51//51 52//52 39//39
f 38//38 39//39 52//52
f 53//53 38//38 52//52
f 51//51 53//53 52//52
f 50//50 26//26 54//54
f 54//54 26//26 18//18
f 55//55 38//38 53//53
f 55//55 37//37 38//38
f 53//53 56//56 55//55
f 51//51 57//57 53//53
f 56//56 53//53 57//57
f 58//58 37//37 55//55
f 56//56 58//58 55//55
f 57//57 59//59 56//56
f 59//59 57//57 51//51
f 60//60 58//58 56//56
f 59//59 60//60 56//56
f 59//59 61//61 60//60
f 58//58 60//60 61//61
f 62//62 59//59 51//51
f 61//61 59//59 62//62
f 51//51 50//50 63//63
f 51//51 64//64 62//62
f 51//51 63//63 64//64
f 50//50 65//65 63//63
f 54//54 65//65 50//50
f 65//65 54//54 66//66
f 67//67 66//66 54//54
f 54//54 18//18 67//67
f 67//67 18//18 66//66
f 61//61 68//68 58//58
f 62//62 69//69 61//61
f 61//61 69//69 68//68
f 70//70 62//62 64//64
f 62//62 70//70 69//69
f 64//64 71//71 70//70
f 68//68 72//72 58//58
f 58//58 72//72 37//37
f 70//70 73//73 69//69
f 74//74 68//68 69//69
f 73//73 74//74 69//69
f 71//71 75//75 70//70
f 70//70 75//75 73//73
f 72//72 68//68 76//76
f 74//74 76//76 68//68
f 77//77 72//72 76//76
f 72//72 77//77 78//78
f 72//72 79//79 37//37
f 79//79 72//72 78//78
f 37//37 79//79 80//80
f 78//78 80//80 79//79
f 80//80 34//34 37//37
f 34//34 80//80 47//47
f 74//74 81//81 76//76
f 73//73 82//82 74//74
f 82//82 81//81 74//74
f 81//81 82//82 83//83
f 83//83 82//82 84//84
f 73//73 84//84 82//82
f 76//76 81//81 85//85
f 76//76 85//85 77//77
f 83//83 86//86 81//81
f 81//81 86//86 85//85
f 86//86 83//83 85//85
f 73//73 87//87 84//84
f 73//73 75//75 87//87
f 85//85 88//88 77//77
f 85//85 83//83 88//88
f 88//88 89//89 77//77
f 89//89 88//88 83//83
f 89//89 83//83 90//90
f 89//89 90//90 77//77
f 77//77 90//90 91//91
f 84//84 92//92 83//83
f 92//92 84//84 93//93
f 92//92 93//93 94//94
f 95//95 90//90 83//83
f 94//94 93//93 96//96
f 84//84 87//87 97//97
f 93//93 84//84 97//97
f 98//98 87//87 75//75
f 97//97 87//87 98//98
f 75//75 99//99 98//98
f 75//75 71//71 99//99
f 97//97 98//98 100//100
f 98//98 99//99 100//100
f 93//93 97//97 101//101
f 101//101 97//97 100//100
f 100//100 102//102 101//101
f 103//103 102//102 100//100
f 100//100 99//99 103//103
f 99//99 71//71 103//103
f 102//102 104//104 101//101
f 104//104 105//105 101//101
f 101//101 105//105 93//93
f 104//104 102//102 105//105
f 93//93 105//105 106//106
f 105//105 102//102 106//106
f 106//106 102//102 107//107
f 108//108 107//107 102//102
f 109//109 108//108 102//102
f 103//103 109//109 102//102
f 93//93 106//106 110//110
f 93//93 110//110 96//96
f 106//106 107//107 111//111
f 106//106 111//111 110//110
f 110//110 111//111 107//107
f 112//112 103//103 71//71
f 112//112 109//109 103//103
f 113//113 109//109 112//112
f 71//71 114//114 112//112
f 113//113 112//112 114//114
f 96//96 110//110 115//115
f 107//107 115//115 110//110
f 107//107 116//116 115//115
f 116//116 96//96 115//115
f 107//107 117//117 116//116
f 96//96 116//116 117//117
f 118//118 96//96 117//117
f 107//107 108//108 117//117
f 96//96 118//118 119//119
f 71//71 120//120 114//114
f 64//64 120//120 71//71
f 121//121 117//117 108//108
f 118//118 117//117 121//121
f 64//64 122//122 120//120
f 63//63 122//122 64//64
f 63//63 123//123 122//122
f 120//120 122//122 123//123
f 63//63 65//65 123//123
f 121//121 108//108 124//124
f 121//121 124//124 118//118
f 124//124 108//108 125//125
f 118//118 124//124 125//125
f 118//118 126//126 119//119
f 127//127 118//118 125//125
f 127//127 126//126 118//118
f 126//126 128//128 119//119
f 119//119 128//128 129//129
f 130//130 129//129 128//128
f 130//130 131//131 129//129
f 132//132 125//125 108//108
f 125//125 133//133 127//127
f 132//132 133//133 125//125
f 134//134 132//132 108//108
f 108//108 109//109 134//134
f 109//109 135//135 134//134
f 135//135 109//109 113//113
f 132//132 134//134 136//136
f 136//136 134//134 135//135
f 133//133 132//132 137//137
f 137//137 132//132 136//136
f 133//133 138//138 127//127
f 133//133 137//137 138//138
f 139//139 138//138 137//137
f 140//140 127//127 138//138
f 127//127 140//140 126//126
f 140//140 138//138 126//126
f 126//126 138//138 141//141
f 138//138 139//139 141//141
f 128//128 126//126 141//141
f 139//139 128//128 141//141
f 136//136 142//142 137//137
f 137//137 142//142 139//139
f 128//128 139//139 143//143
f 130//130 128//128 143//143
f 143//143 144//144 130//130
f 131//131 130//130 144//144
f 145//145 144//144 143//143
f 131//131 144//144 145//145
f 146//146 131//131 145//145
f 131//131 146//146 147//147
f 148//148 131//131 147//147
f 149//149 143//143 139//139
f 149//149 145//145 143//143
f 136//136 149//149 142//142
f 139//139 142//142 150//150
f 150//150 149//149 139//139
f 149//149 150//150 142//142
f 136//136 151//151 149//149
f 151//151 145//145 149//149
f 151//151 136//136 135//135
f 146//146 145//145 152//152
f 152//152 145//145 151//151
f 151//151 135//135 153//153
f 153//153 135//135 113//113
f 151//151 154//154 152//152
f 153//153 154//154 151//151
f 154//154 153//153 155//155
f 113//113 155//155 153//153
f 155//155 156//156 154//154
f 156//156 155//155 146//146
f 152//152 154//154 156//156
f 156//156 146//146 152//152
f 155//155 113//113 157//157
f 113//113 158//158 157//157
f 113//113 114//114 158//158
f 158//158 114//114 159//159
f 159//159 114//114 120//120
f 120//120 160//160 159//159
f 120//120 123//123 160//160
f 160//160 123//123 161//161
f 160//160 162//162 159//159
f 161//161 162//162 160//160
f 163//163 159//159 162//162
f 163//163 162//162 161//161
f 163//163 164//164 159//159
f 159//159 164//164 158//158
f 164//164 163//163 165//165
f 166//166 158//158 164//164
f 164//164 165//165 166//166
f 158//158 167//167 157//157
f 158//158 166//166 167//167
f 157//157 167//167 168//168
f 167//167 166//166 168//168
f 155//155 157//157 168//168
f 168//168 166//166 169//169
f 169//169 166//166 165//165
f 168//168 169//169 155//155
f 165//165 170//170 169//169
f 170//170 165//165 163//163
f 123//123 171//171 161//161
f 171//171 123//123 65//65
f 172//172 171//171 65//65
f 171//171 172//172 161//161
f 172//172 65//65 66//66
f 66//66 161//161 172//172
f 173//173 161//161 66//66
f 161//161 173//173 163//163
f 66//66 174//174 173//173
f 173//173 174//174 163//163
f 66//66 18//18 174//174
f 18//18 175//175 174//174
f 163//163 174//174 175//175
f 13//13 175//175 18//18
f 169//169 176//176 155//155
f 155//155 176//176 177//177
f 176//176 169//169 170//170
f 170//170 178//178 176//176
f 178//178 177//177 176//176
f 163//163 179//179 170//170
f 170//170 179//179 178//178
f 180//180 163//163 175//175
f 179//179 163//163 180//180
f 175//175 13//13 181//181
f 175//175 181//181 180//180
f 155//155 177//177 182//182
f 183//183 182//182 177//177
f 182//182 146//146 155//155
f 146//146 182//182 184//184
f 183//183 184//184 182//182
f 184//184 185//185 146//146
f 185//185 147//147 146//146
f 185//185 184//184 186//186
f 186//186 184//184 183//183
f 147//147 185//185 187//187
f 186//186 187//187 185//185
f 187//187 186//186 147//147
f 148//148 147//147 186//186
f 183//183 148//148 186//186
f 13//13 188//188 181//181
f 188//188 13//13 22//22
f 180//180 181//181 189//189
f 189//189 179//179 180//180
f 190//190 189//189 181//181
f 191//191 190//190 181//181
f 188//188 191//191 181//181
f 192//192 190//190 191//191
f 193//193 179//179 189//189
f 193//193 189//189 190//190
f 188//188 194//194 191//191
f 191//191 194//194 192//192
f 195//195 188//188 22//22
f 194//194 188//188 195//195
f 179//179 193//193 196//196
f 196//196 178//178 179//179
f 178//178 196//196 177//177
f 193//193 190//190 197//197
f 197//197 196//196 193//193
f 197//197 190//190 196//196
f 196//196 198//198 177//177
f 196//196 190//190 198//198
f 190//190 199//199 198//198
f 177//177 198//198 200//200
f 200//200 198//198 199//199
f 183//183 177//177 200//200
f 199//199 183//183 200//200
f 190//190 192//192 201//201
f 199//199 190//190 201//201
f 199//199 201//201 192//192
f 183//183 199//199 202//202
f 202//202 148//148 183//183
f 203//203 199//199 192//192
f 199//199 203//203 202//202
f 202//202 204//204 148//148
f 202//202 203//203 205//205
f 202//202 205//205 204//204
f 148//148 204//204 206//206
f 207//207 148//148 206//206
f 208//208 204//204 205//205
f 208//208 206//206 204//204
f 205//205 203//203 209//209
f 209//209 208//208 205//205
f 192//192 210//210 203//203
f 203//203 210//210 209//209
f 210//210 192//192 211//211
f 211//211 192//192 194//194
f 194//194 195//195 211//211
f 211//211 212//212 210//210
f 212//212 209//209 210//210
f 213//213 211//211 195//195
f 213//213 212//212 211//211
f 214//214 213//213 195//195
f 22//22 214//214 195//195
f 214//214 22//22 25//25
f 213//213 214//214 215//215
f 212//212 213//213 215//215
f 25//25 216//216 214//214
f 214//214 216//216 215//215
f 208//208 209//209 217//217
f 212//212 218//218 209//209
f 209//209 218//218 217//217
f 219//219 208//208 217//217
f 218//218 219//219 217//217
f 208//208 219//219 206//206
f 212//212 220//220 218//218
f 220//220 212//212 215//215
f 219//219 218//218 220//220
f 221//221 220//220 215//215
f 221//221 219//219 220//220
f 206//206 219//219 221//221
f 215//215 216//216 221//221
f 206//206 221//221 222//222
f 207//207 206//206 222//222
f 222//222 223//223 207//207
f 216//216 224//224 221//221
f 222//222 221//221 224//224
f 224//224 216//216 225//225
f 226//226 224//224 225//225
f 216//216 25//25 225//225
f 25//25 227//227 225//225
f 24//24 227//227 25//25
f 227//227 228//228 225//225
f 228//228 226//226 225//225
f 228//228 227//227 24//24
f 229//229 228//228 24//24
f 228//228 229//229 226//226
f 229//229 24//24 230//230
f 24//24 48//48 230//230
f 48//48 231//231 230//230
f 230//230 231//231 229//229
f 48//48 43//43 231//231
f 232//232 229//229 231//231
f 232//232 226//226 229//229
f 231//231 43//43 233//233
f 233//233 232//232 231//231
f 233//233 43//43 234//234
f 42//42 234//234 43//43
f 233//233 234//234 235//235
f 42//42 235//235 234//234
f 236//236 233//233 235//235
f 232//232 233//233 236//236
f 235//235 42//42 237//237
f 236//236 235//235 237//237
f 42//42 238//238 237//237
f 42//42 47//47 238//238
f 239//239 238//238 47//47
f 47//47 80//80 239//239
f 238//238 239//239 240//240
f 240//240 237//237 238//238
f 80//80 241//241 239//239
f 239//239 241//241 240//240
f 241//241 80//80 78//78
f 242//242 232//232 236//236
f 232//232 242//242 243//243
f 243//243 226//226 232//232
f 244//244 236//236 237//237
f 237//237 240//240 245//245
f 245//245 244//244 237//237
f 244//244 246//246 236//236
f 236//236 246//246 242//242
f 247//247 244//244 245//245
f 246//246 244//244 247//247
f 241//241 78//78 248//248
f 248//248 78//78 249//249
f 77//77 249//249 78//78
f 91//91 249//249 77//77
f 249//249 91//91 248//248
f 241//241 250//250 240//240
f 251//251 245//245 240//240
f 240//240 250//250 251//251
f 245//245 251//251 252//252
f 247//247 245//245 253//253
f 253//253 245//245 252//252
f 254//254 241//241 248//248
f 241//241 254//254 250//250
f 251//251 250//250 255//255
f 252//252 251//251 255//255
f 250//250 254//254 256//256
f 256//256 255//255 250//250
f 248//248 257//257 254//254
f 248//248 91//91 258//258
f 258//258 257//257 248//248
f 254//254 257//257 259//259
f 259//259 256//256 254//254
f 260//260 259//259 257//257
f 257//257 258//258 260//260
f 256//256 259//259 260//260
f 247//247 253//253 261//261
f 262//262 253//253 252//252
f 262//262 261//261 253//253
f 261//261 263//263 247//247
f 262//262 264//264 261//261
f 261//261 264//264 263//263
f 247//247 263//263 265//265
f 265//265 246//246 247//247
f 266//266 263//263 264//264
f 264//264 262//262 267//267
f 266//266 264//264 267//267
f 268//268 266//266 267//267
f 269//269 263//263 266//266
f 269//269 265//265 263//263
f 266//266 268//268 269//269
f 265//265 269//269 270//270
f 271//271 267//267 262//262
f 267//267 271//271 268//268
f 262//262 252//252 272//272
f 271//271 262//262 272//272
f 252//252 273//273 272//272
f 272//272 273//273 271//271
f 270//270 269//269 274//274
f 274//274 269//269 268//268
f 275//275 273//273 252//252
f 275//275 252//252 255//255
f 273//273 276//276 271//271
f 271//271 276//276 268//268
f 268//268 276//276 277//277
f 278//278 277//277 276//276
f 279//279 278//278 276//276
f 279//279 276//276 273//273
f 275//275 279//279 273//273
f 275//275 280//280 279//279
f 278//278 279//279 280//280
f 275//275 255//255 281//281
f 281//281 280//280 275//275
f 281//281 255//255 282//282
f 282//282 255//255 256//256
f 282//282 283//283 281//281
f 283//283 282//282 256//256
f 283//283 280//280 281//281
f 283//283 256//256 260//260
f 277//277 284//284 268//268
f 284//284 274//274 268//268
f 285//285 284//284 277//277
f 284//284 285//285 274//274
f 274//274 285//285 286//286
f 286//286 285//285 277//277
f 287//287 274//274 286//286
f 287//287 270//270 274//274
f 288//288 280//280 283//283
f 95//95 283//283 260//260
f 95//95 288//288 283//283
f 260//260 289//289 95//95
f 289//289 260//260 258//258
f 95//95 289//289 90//90
f 95//95 290//290 288//288
f 291//291 280//280 288//288
f 291//291 278//278 280//280
f 288//288 292//292 291//291
f 292//292 288//288 290//290
f 291//291 292//292 278//278
f 292//292 290//290 278//278
f 289//289 258//258 293//293
f 293//293 258//258 91//91
f 294//294 90//90 289//289
f 293//293 294//294 289//289
f 91//91 90//90 294//294
f 293//293 295//295 294//294
f 293//293 91//91 295//295
f 295//295 91//91 294//294
f 278//278 290//290 296//296
f 278//278 296//296 297//297
f 277//277 278//278 297//297
f 296//296 290//290 298//298
f 290//290 299//299 298//298
f 300//300 296//296 298//298
f 297//297 296//296 300//300
f 298//298 299//299 301//301
f 301//301 300//300 298//298
f 301//301 299//299 302//302
f 303//303 302//302 299//299
f 301//301 304//304 300//300
f 301//301 302//302 304//304
f 297//297 300//300 305//305
f 305//305 300//300 304//304
f 297//297 306//306 277//277
f 306//306 297//297 305//305
f 305//305 304//304 307//307
f 307//307 306//306 305//305
f 304//304 302//302 307//307
f 308//308 277//277 306//306
f 306//306 307//307 308//308
f 308//308 286//286 277//277
f 302//302 309//309 307//307
f 307//307 309//309 308//308
f 286//286 308//308 310//310
f 308//308 309//309 310//310
f 309//309 302//302 310//310
f 303//303 310//310 302//302
f 286//286 310//310 287//287
f 287//287 310//310 303//303
f 311//311 287//287 303//303
f 311//311 270//270 287//287
f 270//270 311//311 223//223
f 223//223 312//312 270//270
f 312//312 223//223 222//222
f 312//312 313//313 270//270
f 313//313 265//265 270//270
f 222//222 314//314 312//312
f 314//314 222//222 224//224
f 312//312 315//315 313//313
f 315//315 312//312 314//314
f 316//316 265//265 313//313
f 265//265 316//316 246//246
f 315//315 317//317 313//313
f 317//317 315//315 314//314
f 318//318 314//314 224//224
f 318//318 224//224 226//226
f 314//314 318//318 319//319
f 318//318 226//226 319//319
f 319//319 317//317 314//314
f 226//226 243//243 319//319
f 319//319 243//243 317//317
f 320//320 313//313 317//317
f 313//313 320//320 316//316
f 317//317 243//243 320//320
f 246//246 316//316 321//321
f 316//316 320//320 321//321
f 321//321 242//242 246//246
f 243//243 242//242 322//322
f 320//320 243//243 322//322
f 242//242 321//321 322//322
f 322//322 321//321 320//320
