# rock_formation_large_b_COL
v 4.26403046 5.83492804 -4.71073771
v 4.26914787 5.59306431 -4.48288488
v 4.12033176 5.13418484 -4.64480972
v 4.26914787 5.59306431 -4.48288488
v 4.43987036 5.85984039 -4.51498508
v 4.12033176 5.13418484 -4.64480972
v 5.80915737 4.06090212 4.59541845
v 6.4055295 4.78058577 4.01230907
v 6.54581261 4.63326454 4.16534948
v 6.54581261 4.63326454 4.16534948
v 6.4055295 4.78058577 4.01230907
v 5.80915737 4.06090212 4.59541845
v 4.26403046 5.83492804 -4.71073771
v 4.12033176 5.13418484 -4.64480972
v 4.26914787 5.59306431 -4.48288488
v 3.5394702 5.10908413 -4.50938272
v 3.4502368 5.90693712 -4.82251644
v 3.05098629 4.74194431 -4.1742506
v 4.43987036 5.85984039 -4.51498508
v 3.58447504 4.47838259 -5.146173
v 3.02311039 4.12596321 -4.69858742
v 4.83454084 4.47504282 -3.8146832
v 5.17859602 5.00595379 -3.96056437
v 5.46244383 4.1934967 -3.88891959
v 5.41293955 4.99242449 -4.33328152
v 3.41527581 3.98654652 -5.26155519
v 5.35561275 6.29136944 -4.08625841
v 3.90192628 7.95693111 -5.64928627
v 3.72776604 6.51726341 -4.53000593
v 2.95910883 7.29045534 -5.50726938
v 2.43673325 7.08180666 -5.37733364
v 3.30433106 8.04587173 -3.80685973
v 1.59426999 7.26461172 -3.04364872
v 2.63821292 5.12902594 -4.3012619
v 4.15162325 2.93240452 -4.91738939
v 4.46092749 3.08945251 -5.19394016
v 5.47060776 9.42461872 -3.58915615
v 3.99005127 8.77109432 -2.93051529
v 4.48486328 9.24214745 -2.50986648
v 5.21677494 8.77004242 -5.14883232
v 5.14973879 7.66654301 -4.80210304
v 3.6206615 2.716712 -5.09894753
v 2.88318586 3.3873651 -4.82215118
v 2.55998778 4.02289534 -4.56261396
v 5.28763437 7.08586168 -4.46579409
v 5.58825445 6.35476112 -4.63824797
v 5.87513638 6.78402185 -4.86360359
v 5.45248508 8.15107727 -4.76768827
v 5.77637672 8.57460022 -5.03568077
v 6.65648174 9.6391449 -4.95521402
v 5.9141674 4.89111948 -3.93934035
v 7.05208969 6.62592745 -4.55815363
v 6.91144991 7.0737071 -4.42506361
v 6.87182856 7.22319984 -3.52036095
v 6.66981697 8.82129383 -4.79318953
v 6.80435514 10.0047617 -4.48604679
v 6.15926266 8.99668312 -3.04820037
v 5.92017078 9.54001522 -3.67959857
v 6.28700924 9.24680042 -3.3377409
v 6.22852993 3.44830322 -3.19234014
v 7.44401836 4.57281399 -3.05541372
v 7.1344552 5.31526947 -2.4376061
v 7.71160126 5.41658068 -1.94626832
v 7.67272425 3.25027704 -1.0135293
v 7.11997318 3.80490327 -2.67383671
v 7.41943359 4.06085348 -2.71714258
v 6.64452124 9.61356735 -2.27389121
v 6.22434807 10.3628693 -2.53779364
v 4.92375231 9.85206127 -1.65953553
v 2.21843004 8.01259518 -2.1937604
v 1.76176751 8.15646362 -0.921784937
v 1.1699121 7.21872044 -2.1942358
v 6.12958717 10.480792 -1.99305999
v 7.12988281 7.78887177 -1.73804319
v 5.98807621 9.16178989 -1.47318232
v 7.30291224 3.25216293 -2.22717214
v 7.83177471 2.57020903 -1.50143242
v 6.93885994 7.65316153 -1.72936273
v 7.95497036 5.6851716 -0.898717046
v 6.87279272 8.46657181 -1.20818603
v 6.53783417 7.58294296 -2.72189426
v 6.84757566 7.47381639 -2.16801238
v 6.64684057 8.43772793 -1.02905333
v 6.84029293 8.78958035 -0.288468629
v 6.50150108 9.86787319 -0.637010157
v 5.93812227 10.741045 -0.500366807
v 5.6890502 10.4614315 -1.06688964
v 7.49875736 5.04743481 -0.21047546
v 2.99226809 8.79988289 -1.01547265
v 2.19357181 8.98386478 0.790023804
v 4.12115717 10.4608831 1.79934382
v 7.83393526 6.10756779 0.055480957
v 8.33271503 4.37269926 0.442883909
v 7.68582726 5.05059195 -1.24201167
v 8.18827343 3.71311975 -1.04321742
v 7.70359135 3.49795985 -0.0143115232
v 7.76598597 4.40484953 0.256813347
v 8.27663803 4.40534687 0.992977858
v 8.28051758 5.66343069 0.538347185
v 8.00374031 4.28594875 0.705476642
v 7.8369751 3.05271196 -0.399589837
v 7.59554911 3.53056288 0.487294286
v 7.48624754 2.19808698 0.097020261
v 7.57537603 2.64050388 1.2999115
v 7.83567858 1.99168575 -0.899032593
v 7.62597895 3.37496567 0.99188596
v 7.44873047 2.92749834 1.3735888
v 7.22053957 2.437428 -1.52584624
v 7.23553467 2.31278014 -1.74669707
v 7.37107658 1.81337476 -0.559680462
v 7.44530249 1.48998964 -0.0238610841
v 7.10361052 1.57385051 -0.841076016
v 6.36487055 2.23951149 2.09493279
v 7.08743143 3.18823624 -2.47376513
v 6.50708246 3.08581638 -2.85693383
v 7.52614737 1.63464987 -1.40768063
v 6.97150135 1.28568709 -1.23170412
v 7.15532684 0.857361674 -1.15824282
v 6.46605206 2.3926301 -2.14458442
v 6.17780256 2.4754293 -3.08897352
v 6.97354984 1.22982395 -1.69331717
v 6.73780727 1.04127395 -1.71883059
v 6.50204802 1.57348156 -2.10917234
v 5.65842533 2.89247394 -3.31223083
v 6.11722898 1.73906195 -3.48569202
v 6.78047848 0.736647069 -2.58654666
v 5.92044687 2.37729263 -3.89426804
v 6.24148893 1.73779309 -4.91024685
v 6.71239233 0.767626464 -4.08204651
v 5.83890867 2.6940887 -5.61043119
v 5.05416965 2.19052744 -6.10035372
v 5.88979959 0.930941343 -4.77912092
v 5.13839579 0.991692722 -5.29560423
v 4.63307619 2.19084835 -5.84154654
v 4.5640626 1.96877587 -5.51985407
v 4.01512432 2.23114395 -5.18145847
v 4.53302479 1.50643432 -5.41991854
v 3.33146954 1.74435949 -5.57630157
v 3.96958494 1.62463701 -5.68408108
v 4.4912281 0.974973977 -5.79303598
v 3.99410629 1.02698994 -6.28179598
v 2.53628659 2.57621145 -5.71493626
v 5.00941133 0.805602074 -5.83605051
v 5.13276863 0.844386876 -6.24699831
v 3.31946516 1.33888364 -6.26796961
v 6.19530725 0.645889521 -5.68273687
v 6.85693836 0.690460801 -5.58713913
v 4.26766109 1.01485956 -6.81910753
v 1.8940624 1.24488688 -7.28392267
v 2.82921863 1.57254362 -6.32393789
v 7.75591516 -0.000219180205 -6.18769169
v 5.29046631 -0.000219180205 -8.12132645
v 8.55759239 -0.000219180205 -5.03498507
v 4.26981449 0.50043869 -8.06086254
v 4.21495342 -0.000219180205 -8.60947704
v 1.60069573 -0.000219180205 -8.31347847
v 7.7035861 0.723597407 -2.73536611
v 8.22181606 0.58948648 -1.0093472
v 9.79607868 -0.000219180205 0.0279101562
v 0.577602506 1.00288379 -7.58466148
v -1.47021484 -0.000219180205 -8.15520287
v 7.19563723 0.708636463 -2.83645797
v 7.11946535 0.739690781 -1.85758972
v 7.56108141 0.735676229 -1.88794887
v 7.89832258 0.835269809 -1.16325223
v 7.06644011 0.55623281 -0.0383300781
v 7.81866455 0.528897882 -0.364703983
v 8.47664547 0.355210483 -0.346180409
v 7.40156698 0.417611957 -0.195691526
v 7.73072481 0.449284613 0.800244749
v 8.94484806 0.337106287 0.614357889
v 8.39921379 0.676228344 0.580974102
v 8.90414524 0.582971573 1.02269411
v 9.65942383 -0.000219180205 2.17723989
v 7.10410118 0.885275126 0.221672356
v 8.41635227 0.726754725 2.03142691
v 7.62771463 0.92457515 0.893923342
v 7.26863241 0.766349912 1.20895815
v 8.2911005 0.439939141 2.38740349
v 6.95506811 0.387008458 1.07125175
v 8.327178 0.395859748 5.83054066
v 8.73953152 -0.000219180205 6.20197392
v 7.33849096 0.511002123 1.51297355
v 8.05545425 0.730248153 6.05992317
v 7.5975461 -0.000219180205 7.52067852
v 6.6733737 0.624871612 6.40259361
v 6.64869356 -0.000219180205 7.75247288
v 7.20209694 0.663314521 5.74231577
v 7.90566397 0.43415153 2.79547668
v 6.33677006 0.485167444 2.45304441
v 7.3737545 0.641395986 2.24709845
v 6.70567846 0.412955612 2.19918275
v 6.1449585 0.528198719 2.06556582
v 6.09327364 0.841661751 5.47675753
v 6.02740479 1.10139072 5.74034023
v 5.94157696 0.543509841 3.40155935
v 6.23670864 0.420978874 7.22525978
v 6.78866673 0.39814806 0.663931251
v 6.90537596 0.972985387 1.0388788
v 5.89106941 0.500049949 2.56426072
v 6.3040061 1.00551295 5.35387421
v 6.17633533 1.69699693 2.15748835
v 7.06655979 1.67839134 0.885014653
v 6.7750144 1.78198028 1.38876212
v 5.89488268 1.97758138 2.44969606
v 7.41076899 3.02518845 2.73585939
v 6.37248039 2.9057281 4.17559624
v 5.95325899 2.45353794 3.81015372
v 5.82378626 1.83831763 3.31971622
v 7.1410203 2.91189051 2.09891891
v 7.79366207 2.95242977 1.76405513
v 7.92293453 3.40826154 2.08144164
v 5.34324932 1.646559 3.67205548
v 5.52288055 2.08173823 4.73897314
v 5.67416477 2.48211241 4.30172825
v 4.890769 3.4345448 4.49928713
v 7.81714344 4.49188805 2.26798034
v 5.90203333 1.54931223 5.04506969
v 4.75944805 2.2208252 4.82267666
v 4.18245602 3.36114502 4.63674021
v 3.26201892 0.969113648 5.63419533
v 4.35314703 2.20129752 4.89294767
v 5.59062481 1.60089028 5.4265976
v 4.84087896 0.8650769 6.2693615
v 8.1158514 5.05883837 2.21890736
v 7.55681372 5.17865181 3.56844974
v 7.79627895 5.44480753 2.29660821
v 7.67252684 5.76358223 3.30996084
v 5.58125496 0.713036358 6.31152582
v 4.69862556 0.647669613 7.36120462
v 4.6607008 0.895897031 6.51021814
v 3.15303206 0.854396403 7.63015604
v 3.24020004 -0.000219180205 8.38288689
v 2.11638188 -0.000219180205 8.24930859
v 7.35521221 7.33382416 1.00323665
v 6.77645016 8.94983482 0.244519651
v 6.98882294 8.53141785 1.15637016
v 6.64215565 11.4591084 0.606479466
v 4.15331793 0.859520018 7.27527809
v 6.46880102 8.21790123 2.8187151
v 5.89865971 9.91185093 2.17137194
v 5.22806644 11.1920929 2.161654
v 6.48394775 7.17198038 3.53384757
v 5.53056622 8.41067696 3.50669861
v 4.47915506 9.78917122 3.46504927
v 4.92970467 7.41073847 4.2565155
v 6.54581261 4.63326454 4.16534948
v 6.03178692 8.81447411 3.16776776
v 5.54336643 9.86518097 2.61030746
v 6.096416 9.81051922 2.48795152
v 4.27226782 10.6059055 2.53472781
v 7.47684574 4.47322273 2.87596679
v 7.54358387 4.2406044 2.2592206
v 4.61079597 9.24644852 3.63607287
v 4.11667204 9.72423363 2.34598923
v 7.39219475 3.54662824 3.8647418
v 7.5405221 3.31238222 2.88307118
v 7.79570293 3.61322355 3.15096736
v 6.92056847 3.31841111 3.92103744
v 4.09379625 9.18252468 3.68205309
v 3.78112793 8.98902893 3.00281858
v 3.91114497 9.7393322 2.99780941
v 3.98746085 10.2624702 2.22245407
v 2.55037355 9.51856995 2.1708765
v 1.42600584 9.06223965 2.87967825
v 1.46290529 8.53538036 1.32010245
v 2.61623049 9.44067383 2.71397448
v 3.48623538 8.86217308 3.18999577
v 3.6937499 9.1798439 3.82452083
v 4.02874994 7.4423008 4.32948065
v 3.30110097 7.13627052 4.40105152
v 4.40262461 6.17048311 4.54907084
v 2.67641354 7.37230492 3.98622298
v 1.60814941 6.86260748 4.06769657
v 3.01073241 6.2346344 4.53525972
v 5.5708127 4.83864927 4.5450635
v 3.49182844 5.82315683 4.8282361
v 4.57401371 4.67625237 4.6952796
v 5.80915737 4.06090212 4.59541845
v 4.07867193 4.0164423 4.77073097
v 5.17717505 3.82866812 4.8750205
v 5.53585672 3.7311368 4.18493271
v 3.4192431 4.27052259 4.55089045
v 4.21619606 3.63444304 4.45793486
v 3.37444568 3.79877615 4.58280802
v 2.99749756 3.79857302 4.55592394
v 2.03011966 4.29987621 3.93977714
v 1.58447504 6.50982046 3.20317197
v 1.32155275 6.23060942 3.13514638
v 3.45095706 2.82656002 4.58986378
v 2.73373294 3.55593109 4.31780434
v 4.2311964 2.32306075 4.64542532
v 2.19687486 3.62616777 4.46709299
v 3.19408202 1.50976026 5.29798555
v 3.15470219 1.22459733 5.30234098
v 2.14683104 2.76633453 4.5313096
v 2.02924562 2.36081791 5.01757574
v 0.74722898 7.99368048 3.55724478
v 1.01413572 8.75298214 3.38938165
v 0.451801747 7.93335438 2.63574576
v 0.286450177 7.70556021 2.6575036
v 0.179775387 6.76499939 2.27452016
v 0.062595211 7.63989305 2.11901426
v 1.35675538 6.00537205 2.87687612
v 0.290908188 7.69465017 1.71681821
v -0.689394534 6.95223331 0.419743031
v 0.748674273 7.69414234 -0.280665278
v 0.145034179 6.87861919 -0.794212937
v 0.238837883 6.5337162 -2.01017761
v 0.924260259 6.59708929 -3.28193164
v 1.18701172 6.71890688 -2.76120019
v 1.44047356 6.66377783 -3.51801109
v 1.16608393 6.32973146 -4.4320097
v 0.00326660159 6.55186892 -1.40367365
v -0.216230467 6.10902834 -2.47681093
v -0.372380376 6.92066336 -0.385095209
v -1.26120603 6.18819857 -0.50470978
v -1.09091556 6.43658638 -0.176380605
v -1.49434328 6.35149527 0.563028574
v -0.881540537 6.76008272 0.475193471
v -1.64971185 6.5804553 1.00005794
v -1.1072681 6.44548512 0.782578111
v -1.32812989 6.08169842 -1.02200806
v -1.7682153 5.45164347 -1.94047356
v -0.686711431 5.9894433 -1.90785635
v -1.00204837 7.14773607 1.27042294
v -1.03181148 6.94878149 1.71942496
v -1.40978754 5.4639082 -2.5601294
v -0.57795167 7.03990746 2.19748473
v -1.90748537 6.5409441 1.56942689
v -1.57333004 6.74111605 2.14790392
v -0.789260209 6.53767204 2.67871332
v -1.89933836 6.84336281 2.48509026
v -1.24799311 6.48109674 2.62960696
v -0.621879876 5.2404542 3.66781116
v -2.07389402 6.17590761 1.12138116
v -3.77178454 5.32263041 1.58033264
v -4.07201672 4.96567059 1.13630855
v -5.77657938 3.22380233 0.0990979001
v -4.77993155 3.20971084 -2.27851534
v 0.190507814 5.65645981 3.10568285
v -3.70948243 2.6718719 -5.74683619
v -1.78555655 4.47497129 -4.16484737
v -2.63283443 3.56272817 -5.66264343
v -0.233012691 5.33277941 3.56996393
v 0.451906741 5.57543612 3.29903316
v 0.266491681 5.79480457 3.46159649
v 1.64057374 3.14247704 4.36242342
v -0.981752932 5.3016901 -3.25112081
v 1.63315916 2.49677348 4.7035656
v -0.115610346 5.65230131 -4.35547304
v 0.462485343 5.79641056 -4.68261433
v -0.174367666 4.86516428 -4.31919861
v -0.85562253 4.70489168 -3.26907587
v -0.874816895 4.35945511 -3.99589562
v 0.963195801 5.75006437 -4.59873343
v -1.67137933 4.1066885 -4.58692408
v 1.28636718 6.29507256 -4.87739468
v 2.11886215 6.00895262 -4.92940617
v 2.55600572 4.56690407 -3.80679464
v 1.45735836 6.18068647 -5.15795994
v 1.43202388 5.41700745 -4.44279432
v 1.77679932 4.75754642 -3.93817854
v 1.97364497 4.12997675 -4.26959419
v 0.836901844 3.26695609 -3.9001689
v 1.75601315 2.93392849 -5.46474648
v 2.45450687 2.93706417 -5.24346447
v 0.92517823 1.65806854 -6.23349857
v 1.95293701 1.81732321 -5.56800318
v 1.72001457 1.5747453 -6.33492231
v 1.4234643 1.32045853 -6.94966888
v 0.632207036 1.95827806 -5.71901798
v 0.41605711 3.09944749 -3.99740601
v -0.13775146 1.46692574 -6.78047609
v -0.25 1.97721374 -5.36232233
v -0.608574212 1.11340618 -7.24627876
v -0.26638183 4.46797037 -4.59294462
v -0.793698728 3.832623 -3.85096312
v -0.162939444 2.62728381 -3.69769573
v -1.97031486 1.75743496 -5.97020626
v -1.2612524 2.111341 -4.83196354
v -1.5334326 2.9905014 -5.19899845
v -2.05870605 3.45471787 -5.13185358
v -2.53336668 1.75850356 -6.2024188
v -2.45761704 1.13569832 -7.10265255
v -4.57274914 0.447723538 -7.66452742
v -5.81241465 -0.000219180205 -7.62042236
v -3.1110301 2.43988895 -6.21493864
v -3.13076162 1.23719728 -6.70142078
v -3.24916005 2.12100697 -6.18475342
v -3.93676996 2.24580979 -5.98925018
v -3.50877428 1.50763714 -6.52615643
v -4.29433346 1.29314935 -6.39801645
v -4.84071541 1.2761929 -6.55881071
v -5.84224367 0.983521879 -6.29660273
v -8.26733398 -0.000219180205 -5.8648119
v -5.57404518 1.12889183 -5.86384583
v -6.15450907 1.02080774 -5.73819828
v -4.91631079 1.83285093 -5.33695841
v -4.69735098 2.34709382 -4.76971245
v -8.71539783 0.632146537 -4.05244875
v -9.6369915 -0.000219180205 -4.30410719
v -4.87571287 2.81773973 -2.61989832
v -5.57620096 2.56391716 -2.60134602
v -7.14258528 0.893124998 -4.2510004
v -8.93447208 0.448004603 -0.564083219
v -9.81024647 -0.000219180205 1.73094535
v -9.38403511 0.316772312 0.912093461
v -8.7410984 0.571273386 -1.67491972
v -7.21998262 2.55937862 0.403421015
v -8.7743988 0.790985465 -0.0180084221
v -7.87625694 1.55908632 -0.713236094
v -8.30512428 1.41891146 0.296835929
v -8.44901848 0.873617828 0.707578719
v -7.74146223 1.97289658 -0.064017944
v -7.73158407 0.340618432 1.16306949
v -7.58487797 1.28818035 2.21430779
v -7.27376461 2.72246242 0.860803187
v -6.80494356 3.2961669 3.40509748
v -7.06005621 2.72670031 3.50148249
v -6.01930428 1.5595324 4.69662809
v -7.03079319 2.10902286 3.97870708
v -6.22413063 4.10819578 2.31502366
v -5.10713387 4.69969034 2.66729355
v -6.46065187 0.971829534 4.72022581
v -5.79187489 4.0729084 2.80627179
v -7.85334682 0.566169679 2.05420351
v -7.66749477 0.272799432 2.87184072
v -7.57438946 0.567298591 2.42603397
v -7.3376708 0.370448977 2.7129364
v -8.15242386 0.256650984 3.75553346
v -6.7237401 0.697950065 4.8527441
v -6.99231911 0.803895772 3.37293744
v -8.89967251 0.46039027 2.88915896
v -9.35330105 0.390587389 4.2674098
v -9.74185562 -0.000219180205 4.39341593
v -9.42476559 -0.000219180205 4.78981066
v -6.21646452 0.876325428 5.29912949
v -6.53078365 0.368027121 5.43276739
v -4.85735846 0.590411603 6.41074324
v -5.5600853 -0.000219180205 7.85566854
v -3.90455556 -0.000219180205 8.09519863
v -5.50474596 0.407717228 5.56778049
v -5.60713625 1.04545128 5.33317232
v -5.05923319 1.97985101 4.84441662
v -4.82139397 0.599052131 5.51395369
v -4.25240231 2.90829468 3.93938661
v -3.6432054 3.04995823 4.07312489
v -6.60143518 3.11832809 4.0118742
v -5.76263428 3.89951754 3.54012632
v -6.15397692 3.85395479 3.11262989
v -5.20233393 3.49457026 3.27230954
v -4.11617899 3.84131241 3.63563347
v -4.99063444 3.07230973 3.36028671
v -4.12006569 0.719975173 6.61932945
v -4.6975317 5.14189196 3.05502987
v -3.7258594 3.06654048 3.76045942
v -3.54847646 3.39241362 4.7460289
v -3.84308338 1.68856609 4.79776955
v -3.34710932 0.800391853 5.59693003
v -3.09023428 2.55722022 5.37968493
v -3.5399828 1.91136932 4.8112216
v -3.21597648 3.49759912 5.03776121
v -3.01852298 0.837879002 6.01088381
v -1.64865232 0.575345278 7.75808811
v -3.79252434 0.461583614 7.50252914
v -1.66325438 -0.000219180205 8.36117458
v -2.22731447 0.910410583 6.06224728
v -2.48762202 2.75047517 5.4093051
v -0.538325191 0.677317441 8.0523138
v -0.196240231 -0.000219180205 8.56628132
v 1.02536619 0.739259839 7.81879997
v 1.05725336 -0.000219180205 8.40550995
v -0.460004866 1.04546309 7.41597652
v -0.823974609 0.977071345 6.58336067
v -1.42370605 1.28185987 5.83502674
v -0.140278324 1.05583787 6.84460449
v 0.0320996083 1.01598382 7.31901836
v 1.42331541 1.2723037 7.21914673
v 0.31613037 1.14721739 6.67946863
v -0.660153806 0.88523525 6.14580441
v 1.56199217 0.847949445 7.48983145
v 2.7352612 1.15391374 7.16769266
v 3.65601563 1.22116125 6.43369865
v -0.715786099 1.43531168 6.07686853
v 0.117517084 1.05843782 5.69843483
v -1.78522706 2.2257421 5.68981695
v 0.892060518 1.52435112 6.32308817
v -0.545781255 2.05856729 5.48493528
v -2.79295158 3.69404411 5.19454575
v -1.44972169 3.07995605 5.3058567
v -2.88577867 4.02164936 4.68251944
v -1.96865475 4.499897 4.78531122
v -3.61883783 4.64860725 4.49155998
v -4.39848137 4.97650909 3.39066958
v -4.03576183 5.61647367 2.87757444
v -4.16723871 5.77633715 3.33941031
v -3.52923822 6.19989634 3.66884136
v -2.71676993 4.88568068 4.50472546
v -2.03918457 4.9389267 4.64845324
v -1.57282472 4.14063263 5.12725067
v -1.47862542 4.98798656 4.64412975
v -0.713608384 2.79858327 5.51496935
v 0.706269503 2.55149245 4.62738991
v 0.337497562 1.91477239 5.39780283
v 0.659687459 1.22676384 5.3236804
v -2.7805078 6.62071466 3.49246025
v -2.01278806 5.79070425 4.1411376
v -0.964938939 5.32269526 4.42676258
v 0.689335942 1.11171281 6.03543949
v 1.20672119 1.33449078 6.27508402
v 1.10943604 1.06732178 5.40081167
v 1.67929685 1.01997149 5.0251832
v 1.76186514 1.17769897 5.80016088
v 2.24922848 1.45332909 6.33352137
v 2.6215868 1.26181638 6.73518801
v 3.25005364 1.66652751 6.7979455
v 2.48869634 1.87189984 6.28409433
v 2.33282948 1.14682388 5.49962139
v 1.0823437 2.66393495 5.1672473
v 3.9939599 1.05530274 6.34790897
v 4.42533445 1.12192249 6.71589231
v 2.77431631 1.04753125 5.46119976
v 2.22023439 1.68871772 4.93696785
v 1.26767576 2.90558767 5.23014736
v 0.131428227 4.17289829 4.40570784
v 0.0371240228 4.73955822 3.90658307
v 0.0899926722 4.14090586 4.21583557
v -0.996081531 5.05854321 4.60926676
v -1.36017573 6.77368402 3.57994366
v -1.60891593 7.00161076 3.19971919
v -2.70577621 6.1920023 2.57509565
vn 0.943167031 -0.217084363 -0.251615167
vn 0.943167031 -0.217084363 -0.251615137
vn 0.943167031 -0.217084393 -0.251615167
vn -0.754164398 0.422093719 -0.503063619
vn -0.754164398 0.422093689 -0.503063619
vn -0.754164398 0.422093719 -0.503063679
vn 0.0942024216 -0.672691584 -0.733901978
vn 0.0942024216 -0.672691464 -0.733901978
vn 0.0942024216 -0.672691584 -0.733901978
vn -0.0942023844 0.672691584 0.733901978
vn -0.0942023695 0.672691584 0.733901918
vn -0.0942023695 0.672691584 0.733901918
vn -0.943167031 0.217084363 0.251615167
vn 0.229944408 0.205130517 -0.951339602
vn -0.458341628 -0.0328546204 -0.888168633
vn -0.340197325 0.129043773 -0.931457758
vn 0.20030427 -0.257322311 -0.945337772
vn -0.471819639 0.137963712 -0.870834291
vn 0.366432935 -0.19978869 -0.908741653
vn 0.0158425495 0.335153729 -0.942030251
vn -0.582875371 0.419535667 -0.695877969
vn 0.309326172 0.0625220165 -0.948898494
vn -0.239312053 -0.268173009 -0.933173656
vn 0.380168468 0.0416938923 -0.923977017
vn -0.250377864 -0.27218923 -0.929098487
vn -0.126955897 0.177222461 -0.975947917
vn -0.325364858 -0.24130924 -0.914279819
vn -0.155822948 0.307166278 -0.938812077
vn 0.192258373 -0.262019962 -0.945717812
vn -0.18358916 0.233357996 -0.954902649
vn -0.416931331 0.305111349 -0.856198192
vn -0.504701376 0.823852122 -0.257961541
vn -0.685094535 0.670682311 -0.284307271
vn -0.153038204 -0.55857563 -0.815213263
vn -0.110270061 0.328237027 -0.938136995
vn -0.452509165 0.571850598 -0.684267759
vn -0.285837531 0.928056777 -0.23876223
vn 0.631083548 0.197054967 -0.750268579
vn -0.497247905 0.804769218 -0.324177355
vn -0.121703573 0.435542881 -0.891902804
vn 0.254127741 -0.25396964 -0.933230162
vn 0.232665479 0.254035592 -0.938793182
vn -0.129316136 0.374383986 -0.918212354
vn -0.199830741 0.55663681 -0.806364179
vn -0.135226667 -0.435911745 -0.889772236
vn -0.459239393 -0.298504204 -0.83665663
vn -0.0629718006 -0.242474228 -0.968111992
vn -0.00260169897 -0.238348007 -0.971176386
vn 0.11176762 -0.209647104 -0.971368134
vn 0.352666616 0.528191864 -0.772424579
vn 0.453530222 -0.366831928 -0.812246621
vn 0.740032613 0.00820101518 -0.672520936
vn 0.828640342 0.221452773 -0.514114678
vn 0.966631591 0.2521936 0.044962991
vn 0.73500073 -0.113595419 -0.668483377
vn 0.449917793 0.882496834 -0.137015715
vn 0.9207322 0.375828981 -0.104904167
vn -0.14053978 0.926329851 0.349515945
vn 0.547038615 0.515200734 0.659785509
vn 0.524688244 -0.252376378 -0.813024163
vn 0.909031272 -0.206457078 -0.361991078
vn 0.943759799 -0.0337091945 -0.32890892
vn 0.944136262 0.0335503593 -0.32784304
vn 0.976781249 -0.169630617 -0.130858392
vn 0.459268928 -0.423439682 -0.780878305
vn 0.835515738 -0.230633989 -0.498719841
vn 0.942301273 0.305387259 -0.137138486
vn 0.347488672 0.816795647 -0.460539371
vn -0.380152076 0.895923436 -0.229794785
vn -0.522166431 0.796191752 -0.305648357
vn -0.539320409 0.798007667 -0.268918663
vn -0.597681642 0.737764299 -0.31381613
vn 0.215331316 0.909801364 0.354815334
vn 0.836915076 0.019863382 -0.546972334
vn 0.81616348 0.566637039 0.113135621
vn 0.572866023 -0.442698449 -0.689813435
vn 0.839144588 -0.34487927 -0.420588493
vn 0.671717107 -0.118860044 -0.731210232
vn 0.586556315 -0.258288205 -0.767619014
vn 0.744555175 0.634731412 0.206769392
vn 0.862046301 0.493717939 -0.114536859
vn 0.849404275 0.457873076 -0.262420684
vn 0.849824548 0.520694971 0.0817007571
vn 0.928776801 0.343055665 -0.140308544
vn 0.887975693 0.44378221 -0.1206505
vn 0.203795135 0.839541137 -0.503625095
vn 0.0886175856 0.793902695 -0.601552427
vn 0.767893553 -0.367274851 -0.52483207
vn -0.478775263 0.870109141 -0.116979755
vn -0.544181585 0.802588165 -0.244374067
vn -0.557874382 0.828047276 -0.0558026135
vn 0.923732996 0.253781736 -0.286901116
vn 0.787142813 -0.546671331 -0.285580993
vn 0.928764582 0.297608197 0.220965624
vn 0.943036318 -0.2463478 -0.223595932
vn 0.984706104 0.0504285395 0.16676566
vn 0.713656783 -0.395495355 -0.578167379
vn 0.819153428 -0.559925258 0.124383569
vn 0.936615467 0.0682509765 -0.343647122
vn 0.585314572 -0.787099719 -0.194630355
vn 0.98227787 -0.109908134 -0.151823699
vn 0.994550169 -0.0708065405 0.076526925
vn 0.937583864 -0.287675142 0.195395857
vn 0.819832742 -0.308273137 0.482537061
vn 0.790718555 -0.592008412 -0.155853167
vn 0.858557105 -0.443117529 -0.257927269
vn 0.850371838 -0.470093191 0.236389831
vn 0.839217901 -0.365617037 -0.402538776
vn 0.850701809 -0.151204005 -0.503432095
vn 0.758613467 -0.612756789 -0.22143808
vn 0.978398502 -0.194032684 0.0713272542
vn 0.971713781 -0.167304024 -0.166678339
vn 0.719031274 -0.591819048 0.364340663
vn 0.649476051 -0.347607672 -0.676276386
vn 0.658325136 -0.325871557 -0.678539455
vn 0.904479802 -0.34630549 -0.248975441
vn 0.923082888 -0.195776388 -0.331043333
vn 0.618208528 0.772277296 -0.14630799
vn 0.698870599 -0.337438405 -0.630646586
vn 0.799905837 0.0238041077 -0.599653244
vn 0.779716849 -0.489832401 -0.390007526
vn 0.844526112 0.294196546 -0.4474639
vn 0.876457691 0.135939181 -0.461890131
vn 0.853799641 0.0986181125 -0.511175692
vn 0.92128557 0.37364617 -0.107802883
vn 0.553244472 0.827942729 -0.0918228701
vn 0.945790231 0.29770577 0.129816085
vn 0.90556109 0.00204191892 -0.424210906
vn 0.50015831 0.85977149 -0.103124514
vn 0.630021334 0.392397612 -0.670147181
vn -0.0260623712 -0.0206920058 -0.999446094
vn 0.568751097 0.440742016 -0.694455624
vn 0.372690797 0.464746475 -0.80318886
vn -0.705409229 -0.155559495 -0.69151938
vn -0.632976532 -0.21398814 -0.744009376
vn -0.01157209 0.408342808 -0.912755251
vn 0.22591804 0.209205523 -0.95141685
vn 0.397437066 0.605921447 -0.689131916
vn 0.252295494 0.633512735 -0.731442869
vn 0.436927825 0.759593248 -0.481780261
vn 0.371013284 0.914575279 -0.160938591
vn -0.18898578 0.580439925 -0.792069376
vn -0.145128205 0.978538096 -0.146290779
vn 0.222254962 0.959858775 -0.171095744
vn 0.364037693 0.828894675 -0.424747258
vn 0.179471433 0.937036633 -0.299586982
vn 0.192183971 0.897296786 -0.397396237
vn 0.269112796 0.940417707 -0.207828701
vn 0.0137653528 0.845350444 -0.534034729
vn 0.186484858 0.721263468 -0.667084932
vn 0.355618417 0.859921277 -0.366156816
vn 0.34234035 0.834883928 -0.43101272
vn 0.429325312 0.887163877 -0.169174984
vn 0.217510745 0.815604746 -0.536169767
vn 0.116458438 0.708380938 -0.696156502
vn -0.0339576863 0.61971271 -0.784093797
vn 0.258354396 0.964799464 -0.0491427779
vn 0.401939899 0.91385901 0.0574977063
vn 0.407060742 0.910918474 -0.0672990531
vn -0.0247761961 0.73694551 -0.675498009
vn -0.0602714568 0.632480443 -0.772227883
vn 0.00963664241 0.9998492 0.0144440476
vn 0.139924169 0.819017649 -0.556445241
vn 0.158605501 0.983329952 -0.0889185295
vn 0.400996089 0.915343523 -0.0367206819
vn 0.869395018 0.493879914 0.0153261209
vn 0.224825367 0.800005972 0.556276917
vn -0.416757166 0.873405933 0.251943558
vn 0.358018011 0.730340898 0.58174336
vn -0.106943496 0.894324124 -0.434450865
vn 0.272569954 0.901635826 -0.335795254
vn 0.0851419196 0.996238351 -0.0161196105
vn 0.389369786 0.913075864 -0.121175393
vn 0.44978106 0.884691358 0.122548372
vn 0.98029536 -0.039284043 0.193591774
vn 0.123507611 0.910421789 0.394813865
vn -0.270448506 0.765447497 -0.583907425
vn -0.63329041 0.773697138 -0.0183292832
vn 0.138265595 0.951631188 0.274373263
vn -0.181454122 0.982329905 0.0458520688
vn 0.531234086 0.841810226 -0.0956334993
vn 0.638317525 0.721645176 0.267915815
vn -0.418718845 0.866580427 0.271501034
vn 0.374254137 0.925234914 -0.0622430593
vn 0.196219057 0.863459647 0.464688629
vn 0.192527279 0.937811136 0.288866043
vn 0.177121744 0.858979762 0.480397522
vn 0.100726254 0.993781388 -0.0474639721
vn 0.0644941628 0.995259821 0.0727902427
vn 0.0475680344 0.998473823 -0.0280564632
vn -0.0179836713 0.998907924 0.0431234278
vn -0.0816351324 0.96480298 -0.249981627
vn 0.712448537 0.592701375 0.375662267
vn 0.890010476 0.430490732 0.150196522
vn 0.543619871 0.739872754 0.396315187
vn 0.553830266 0.827244878 -0.0945404619
vn 0.213453114 0.883260429 0.417478949
vn 0.392289847 0.645951807 0.654870152
vn 0.863918126 -0.255917877 0.433764219
vn 0.730914414 0.660236299 0.172778308
vn 0.978946567 -0.0387759283 0.200399399
vn 0.77816546 -0.0686986819 0.624290824
vn 0.883924305 -0.0471787862 0.465244085
vn 0.766411602 0.261809498 0.586573958
vn 0.846992671 -0.351490915 0.398820132
vn 0.640886664 -0.726446211 0.248072818
vn 0.480873197 -0.460164279 0.746330857
vn 0.709718883 -0.645059705 0.283191115
vn 0.916960418 -0.199195027 0.345694721
vn 0.465554893 -0.882388115 0.068189688
vn 0.698960483 -0.711453497 -0.0727189705
vn 0.959441364 -0.156126782 0.234726533
vn 0.963882208 0.0101044718 0.266137302
vn 0.623214662 0.610126317 0.489233524
vn 0.603340328 0.0595519766 0.795257151
vn 0.219066873 -0.194297314 0.956168532
vn 0.798839569 -0.410905212 0.439331502
vn 0.781405926 0.620869696 0.0626552477
vn 0.217661873 0.346501291 0.912447274
vn 0.0809594244 0.278326631 0.957068443
vn 0.700212061 0.694649935 0.164816603
vn -0.13263844 0.388933659 0.911667585
vn 0.236586839 0.78555733 0.571774602
vn 0.0980908424 0.95075196 0.294022083
vn 0.940787733 0.0845915824 0.328272313
vn 0.741801023 -0.117056258 0.66032505
vn 0.952369869 0.147941321 0.266655236
vn 0.844858944 0.202428982 0.495212942
vn 0.0448176339 0.906195462 0.420477331
vn 0.222990885 0.899541795 0.375632256
vn 0.332484215 0.938074589 0.0973152518
vn 0.0314361975 0.796051264 0.604412258
vn 0.0277916472 0.662298381 0.74872452
vn 0.0180883333 0.679410756 0.733535111
vn 0.920424819 0.377460063 0.101696253
vn 0.955773294 0.264874279 -0.127824351
vn 0.940741718 0.307978153 0.14196597
vn 0.549744308 0.829424679 -0.099175632
vn 0.213334426 0.874590456 0.435407966
vn 0.81267786 0.412148416 0.411932528
vn 0.764348745 0.477221191 0.433625311
vn 0.0650175065 0.920004427 0.386477172
vn 0.348776668 0.232927248 0.907799482
vn 0.405679077 0.359981477 0.840141594
vn -0.132566392 0.579931855 0.803806603
vn 0.276595175 0.280191988 0.919232011
vn 0.513894379 0.0934471041 0.852748692
vn 0.588714302 0.499912828 0.635218561
vn 0.586855054 0.465499878 0.662503541
vn 0.762867451 0.577795684 0.290147275
vn -0.69177103 0.619146049 0.371632934
vn 0.891525149 -0.253756523 0.375220537
vn 0.742940128 -0.198428065 0.639270186
vn 0.25489825 0.34933266 0.901661515
vn -0.293900698 0.63984412 0.710085809
vn 0.693956196 -0.218073398 0.686198771
vn 0.88496834 -0.434282988 0.168015495
vn 0.979193747 -0.0106487824 0.202647969
vn 0.507283926 -0.430225492 0.746705472
vn -0.170805588 0.695183039 0.69824487
vn -0.435832769 0.777146697 0.453974366
vn -0.734036446 0.645782471 0.210132286
vn 0.25657323 0.764640927 0.591180503
vn -0.463670641 0.885646403 -0.0252960827
vn -0.399841845 0.856479883 0.326448649
vn -0.603913665 0.766115904 -0.219897181
vn -0.200732753 0.796950161 0.569716394
vn -0.381968021 0.699952066 0.603462934
vn -0.460331351 0.694757938 0.552635968
vn -0.0479359776 0.331638992 0.942187786
vn -0.21703963 0.380504847 0.898949385
vn 0.161854431 0.181464344 0.969986498
vn -0.214425981 0.465583771 0.858634531
vn -0.535905659 -0.0668493658 0.841627121
vn -0.360562325 0.115313694 0.925579548
vn 0.283063114 0.187656745 0.940563798
vn -0.234105036 0.0317873657 0.971691489
vn 0.100233153 0.126068503 0.986944735
vn 0.347990185 -0.200600117 0.915785193
vn -0.261228025 -0.350401103 0.89943254
vn 0.243034601 -0.376023918 0.894170165
vn 0.176001295 -0.429633975 0.885685205
vn -0.21702987 -0.0188465863 0.975983024
vn 0.0448312163 -0.0446318574 0.997996986
vn -0.12690261 0.0871164352 0.98808229
vn -0.292656749 0.271485448 0.916868448
vn -0.232685298 0.33423239 0.913316071
vn -0.182251915 -0.636295974 0.749607682
vn -0.665134192 -0.357666552 0.655493081
vn 0.00829629786 0.247137964 0.968944848
vn -0.165017202 0.252559483 0.953406036
vn -0.619025767 -0.194173723 0.760988533
vn -0.404566854 0.425185651 0.809656024
vn -0.0793149248 0.355231673 0.931407273
vn -0.37228933 0.768994927 0.51966089
vn -0.235223278 0.412635416 0.880001187
vn -0.272764266 0.363923579 0.8905949
vn -0.701680422 0.123854361 0.701644182
vn -0.299562901 0.749493599 0.590357006
vn -0.788000703 0.582087815 0.200570822
vn -0.878957808 0.173210576 0.444332361
vn -0.320419252 0.336630642 0.885444105
vn -0.960686862 0.255515903 -0.108592764
vn -0.646675646 0.0369459763 0.761869907
vn -0.634540677 0.769999146 -0.0667795092
vn -0.54125458 0.788284838 -0.29266116
vn -0.552690446 0.772331357 -0.313109636
vn -0.531399786 0.764124155 -0.365689039
vn -0.565044165 0.785618544 -0.252048582
vn -0.352807224 0.897964835 -0.263032526
vn -0.126778319 0.825275779 -0.550315559
vn -0.801779091 0.596970677 -0.0278630722
vn -0.624435723 0.700211763 -0.346097469
vn -0.52184242 0.805525184 -0.280730546
vn -0.507421553 0.825242162 -0.247989282
vn -0.283567578 0.907768726 -0.309104234
vn -0.349265844 0.906681955 -0.236518994
vn -0.60066247 0.760687232 -0.246088237
vn -0.463986695 0.845494747 -0.264300883
vn -0.692141533 0.587478936 -0.419295371
vn -0.570485651 0.720490873 -0.394257635
vn -0.673530996 0.532537937 -0.51260072
vn -0.491223276 0.837481856 -0.239423707
vn -0.517726839 0.809830844 -0.275921881
vn -0.443434894 0.84944272 -0.286028683
vn -0.520774603 0.853361011 -0.0238482375
vn -0.4571262 0.875304103 0.157728985
vn -0.477704555 0.814552605 -0.329093307
vn -0.174657643 0.792382717 0.584486306
vn -0.611607969 0.767871797 -0.190548345
vn -0.0763527974 0.995772064 0.0510716401
vn -0.028970845 0.667545021 0.74400568
vn -0.0602913648 0.98424685 -0.166202039
vn 0.0545586422 0.768577278 0.637426317
vn 0.292262286 0.850569248 0.437166572
vn -0.566839576 0.766461968 -0.302041352
vn -0.517205894 0.808753729 -0.280027807
vn -0.590322852 0.773411036 -0.230985478
vn -0.525013626 0.788629234 -0.320038617
vn -0.571778536 0.752628207 -0.326527387
vn 0.01428001 0.860929012 0.508524656
vn -0.493050009 0.700217426 -0.516330659
vn -0.160454616 0.832379162 -0.530470788
vn -0.0702008381 0.748842895 -0.659019053
vn 0.030600423 0.67611599 0.736159503
vn 0.4106704 0.795606852 0.44537577
vn 0.070194684 0.962862253 0.26070863
vn 0.355276912 0.437700361 0.825952053
vn -0.441270679 0.694811404 -0.567906141
vn 0.313827544 0.548439145 0.775065601
vn -0.6505813 0.448971629 -0.612509847
vn -0.239580125 0.289750427 -0.92663151
vn -0.393846691 0.129972801 -0.909940541
vn 0.111014031 0.49853012 -0.859734654
vn -0.121773794 0.408153355 -0.904755235
vn -0.0317838863 -0.139361113 -0.989731371
vn 0.4287121 0.584806561 -0.688627005
vn -0.711581886 0.350063145 -0.609185576
vn 0.0928791016 -0.459184617 -0.883472085
vn -0.169877976 0.655439436 -0.735894442
vn -0.224966198 0.270239621 -0.936141431
vn 0.165238827 -0.339089245 -0.926128805
vn 0.502168953 0.0668287128 -0.862183392
vn -0.181454107 0.42568773 -0.886489868
vn -0.222446397 0.3404378 -0.913575292
vn -0.124555737 0.607236683 -0.784696996
vn -0.00387866842 0.608366191 -0.793646872
vn -0.0111213354 0.852272093 -0.522980511
vn 0.0500547811 0.54510808 -0.836870134
vn 0.0186307617 0.941404819 -0.33676371
vn -0.0364951938 0.924576104 -0.379245371
vn -0.338798314 0.764101684 -0.548966467
vn -0.27319929 0.291214198 -0.916818619
vn -0.0299679246 0.891749024 -0.451536953
vn -0.0625235513 0.933217824 -0.353829741
vn -0.0863157958 0.772540212 -0.629071712
vn -0.00749777444 0.138929322 -0.990274012
vn 0.205256954 -0.143339455 -0.968154669
vn -0.0865151361 0.454985917 -0.88628608
vn 0.291454881 0.740317523 -0.605792165
vn 0.500772893 0.647824526 -0.574064314
vn 0.690494716 0.281475633 -0.666324735
vn 0.561286747 0.471669912 -0.680062234
vn 0.169527218 0.590192139 -0.78926158
vn -0.0801663846 0.764789641 -0.639273286
vn -0.154248461 0.576389253 -0.802485526
vn -0.320316374 0.704795003 -0.632978261
vn -0.0628022552 0.294127941 -0.953700423
vn -0.106517814 0.738372684 -0.665927768
vn -0.0931119472 0.245369658 -0.964947581
vn -0.0960772559 0.476799875 -0.873745441
vn -0.169909924 0.421546549 -0.890746415
vn 0.0326559171 0.596672773 -0.801819921
vn -0.233626306 0.775415123 -0.586643159
vn -0.343687683 0.855778337 -0.38668108
vn -0.400363863 0.817459404 -0.414087921
vn -0.335404903 0.858856857 -0.387128472
vn -0.385488778 0.866710365 -0.316562057
vn -0.474257588 0.744634628 -0.469679743
vn -0.516615689 0.798090816 -0.310095638
vn -0.385138243 0.912271261 -0.139390156
vn -0.51385361 0.837935448 -0.183898211
vn -0.526599526 0.724040568 -0.445486397
vn -0.505348265 0.815284252 -0.282727242
vn -0.367463201 0.91755569 -0.151862636
vn -0.684516668 0.725940704 -0.0666853786
vn -0.523558795 0.851875663 0.0139262797
vn -0.579254866 0.815116227 0.00702418713
vn -0.538353086 0.838661849 -0.0825974867
vn -0.688638687 0.701719463 -0.182664797
vn -0.733916163 0.677690446 -0.0458567664
vn -0.749426901 -0.215614825 0.625994861
vn -0.566680312 0.724838495 0.391768664
vn -0.342411727 0.683162332 0.645014286
vn -0.714663208 0.695243716 -0.0767630413
vn -0.625861228 0.704521 0.334586054
vn -0.95807296 0.173047587 0.228365108
vn -0.838016272 0.508539379 -0.197778761
vn -0.77277869 0.554730773 0.308361411
vn -0.832959533 0.389063239 0.393456787
vn -0.3731668 0.529702365 0.761683583
vn -0.723500967 0.266222775 0.63692373
vn -0.597019315 0.802214801 0.00437516905
vn -0.602156818 0.709073305 0.366908908
vn -0.718071699 0.527478576 0.454025656
vn -0.305292368 0.715054333 0.628883064
vn -0.994783103 0.01702483 0.10058137
vn -0.237545818 0.970154107 0.0487151928
vn -0.622755647 0.489985824 0.609991312
vn -0.592429042 0.679223537 0.433224171
vn -0.0265740268 0.99203378 -0.123137444
vn -0.477805018 0.813996553 0.330321133
vn -0.937498271 0.121119462 0.32623139
vn 0.0480809137 0.995371997 -0.083203882
vn -0.370852768 0.905342638 0.206937075
vn -0.650567353 0.722382903 0.234360889
vn -0.3346937 0.810906887 0.480010569
vn -0.406153917 0.546737671 0.732199967
vn -0.260720462 0.895464063 0.36078921
vn -0.184938118 0.967939496 0.169973746
vn -0.13855426 0.938506305 0.316241175
vn -0.167345971 0.842225909 0.512494743
vn -0.0950266942 0.889889657 0.446168542
vn -0.0663969517 0.473910093 0.87806648
vn -0.176114544 0.652425587 0.737105608
vn -0.129423246 0.838768005 0.528883576
vn -0.149723917 0.673603058 0.723769128
vn -0.857196987 0.29973653 0.418773592
vn -0.640994489 0.315596193 0.699660718
vn 0.113483064 0.94608891 0.303376704
vn -0.462235749 0.886657774 0.0132698473
vn 0.517706752 0.751304507 0.409293532
vn -0.684542239 0.0815205425 0.72440058
vn 0.376700491 0.901397705 0.213492095
vn -0.181391641 0.958470523 0.220071271
vn -0.718187451 0.58741194 0.373033583
vn -0.585227966 0.397373259 0.706825793
vn -0.834385097 0.206152335 0.511177838
vn -0.258975834 0.51211673 0.818943202
vn -0.460737735 0.734714985 0.497910231
vn -0.49056676 0.251866221 0.834210813
vn -0.737393081 0.626143992 0.253367513
vn -0.345518917 0.373636156 0.860820949
vn -0.258784324 0.836054325 0.483780742
vn -0.168969467 0.868978739 0.465107769
vn -0.314880848 0.834957719 0.451326489
vn -0.140383482 0.687995374 0.712007523
vn -0.0926229507 0.763445556 0.639196277
vn -0.223810941 0.229141027 0.947313607
vn -0.075094223 0.748617053 0.658736229
vn 0.0162882246 0.606963634 0.794562757
vn 0.100329332 0.718043268 0.688729227
vn 0.106823914 0.620808482 0.77665019
vn -0.107631393 0.963199139 0.246298343
vn -0.0477670766 0.997389257 0.0541580431
vn -0.170075491 0.454384148 0.874419391
vn -0.119668029 0.992782593 -0.0078938622
vn 0.00367238326 0.971683979 0.236255467
vn 0.0246900432 0.869767725 0.492843181
vn -0.286002398 0.951992095 0.109149411
vn 0.149925217 0.89644438 0.417025238
vn 0.181738541 0.642069638 0.744793713
vn 0.0174893681 0.833083212 0.552871168
vn 0.521892667 0.852914155 -0.0128657119
vn 0.141586453 0.328618258 0.93378979
vn 0.133360475 0.879849732 0.456157178
vn -0.12562573 0.212761998 0.968994558
vn 0.00617044605 0.96832943 -0.249599501
vn 0.19936657 0.282510638 0.938318014
vn -0.717114866 0.193625644 0.669518769
vn -0.0548327677 0.249528766 0.966813684
vn -0.184073716 0.470193505 0.863153994
vn -0.368477285 0.276644826 0.887520254
vn -0.515087783 0.233041301 0.824849248
vn -0.780155241 0.196900547 0.593791187
vn -0.59983182 0.755384088 -0.263811886
vn -0.78705126 0.613320529 0.066243805
vn -0.471556336 0.773315489 0.423813432
vn -0.163846895 0.372249186 0.913556039
vn -0.163122565 0.42692247 0.889453888
vn -0.180355027 0.299517006 0.936889291
vn 0.118785918 0.490700781 0.863193274
vn 0.117917165 0.21286191 0.96994096
vn -0.122849196 0.210702106 0.969800353
vn 0.439508617 0.212510735 0.872737885
vn 0.33485195 0.697954416 0.633035421
vn -0.357096732 0.875497639 0.32555449
vn -0.101366445 0.527223945 0.843658507
vn 0.635673404 0.0107729547 0.771882892
vn 0.153410703 0.840713382 -0.519293904
vn 0.0918737873 0.954120457 -0.284979731
vn 0.128019005 0.991218269 0.033127252
vn -0.281660169 0.672674835 0.684233904
vn -0.135350063 0.9366467 -0.323068619
vn -0.401884019 0.814495265 0.418433666
vn -0.237037852 0.858465672 0.454807371
vn 0.416570365 0.72801131 0.544489324
vn -0.290568799 0.946237862 0.14213945
vn -0.117999934 0.992911041 0.014268484
vn -0.325978816 0.182797343 0.927535951
vn 0.238176733 0.955800056 -0.172389492
vn 0.381165445 0.907032251 0.178900778
vn -0.825279236 0.520787239 -0.218391404
vn -0.18136318 0.319595337 0.930035651
vn 0.356264114 -0.128240764 0.925543189
vn -0.687731922 0.178606957 0.703650713
vn -0.436721891 0.437094033 0.786271453
vn -0.392020136 0.245902434 0.886483133
vn 0.153798386 0.557288468 0.815950751
vn 0.458995253 0.809494376 0.366117835
vn 0.401122361 0.9146896 0.0494357422
vn -0.563572884 0.792945027 -0.231568426
g submesh0
f 1//1 2//2 3//3
f 4//4 5//5 6//6
f 7//7 8//8 9//9
f 10//10 11//11 12//12
f 13//13 14//14 15//15
f 14//14 16//16 15//15
f 16//16 17//17 15//15
f 16//16 18//18 17//17
f 17//17 19//19 15//15
f 20//20 16//16 14//14
f 16//16 21//21 18//18
f 21//21 16//16 20//20
f 14//14 22//22 20//20
f 14//14 19//19 23//23
f 22//22 14//14 23//23
f 22//22 23//23 24//24
f 24//24 23//23 25//25
f 26//26 21//21 20//20
f 22//22 26//26 20//20
f 23//23 19//19 27//27
f 27//27 25//25 23//23
f 19//19 28//28 27//27
f 19//19 17//17 29//29
f 29//29 28//28 19//19
f 30//30 29//29 17//17
f 30//30 28//28 29//29
f 30//30 17//17 31//31
f 30//30 32//32 28//28
f 32//32 30//30 31//31
f 32//32 31//31 33//33
f 31//31 17//17 34//34
f 34//34 17//17 18//18
f 35//35 26//26 22//22
f 35//35 22//22 36//36
f 24//24 36//36 22//22
f 28//28 32//32 37//37
f 38//38 37//37 32//32
f 38//38 39//39 37//37
f 32//32 39//39 38//38
f 33//33 39//39 32//32
f 28//28 37//37 40//40
f 40//40 41//41 28//28
f 41//41 27//27 28//28
f 26//26 35//35 42//42
f 26//26 42//42 43//43
f 21//21 26//26 43//43
f 44//44 21//21 43//43
f 18//18 21//21 44//44
f 27//27 41//41 45//45
f 46//46 27//27 45//45
f 25//25 27//27 46//46
f 41//41 47//47 45//45
f 45//45 47//47 46//46
f 48//48 41//41 40//40
f 48//48 47//47 41//41
f 49//49 48//48 40//40
f 48//48 49//49 47//47
f 40//40 50//50 49//49
f 50//50 40//40 37//37
f 51//51 25//25 46//46
f 47//47 52//52 46//46
f 46//46 52//52 51//51
f 49//49 53//53 47//47
f 52//52 47//47 53//53
f 52//52 53//53 54//54
f 54//54 53//53 55//55
f 55//55 53//53 49//49
f 55//55 49//49 50//50
f 56//56 55//55 50//50
f 55//55 56//56 54//54
f 54//54 56//56 57//57
f 58//58 56//56 50//50
f 58//58 50//50 37//37
f 59//59 56//56 58//58
f 56//56 59//59 57//57
f 37//37 59//59 58//58
f 37//37 57//57 59//59
f 51//51 60//60 25//25
f 25//25 60//60 24//24
f 51//51 52//52 61//61
f 54//54 62//62 52//52
f 61//61 52//52 62//62
f 62//62 54//54 63//63
f 62//62 63//63 64//64
f 65//65 51//51 61//61
f 51//51 65//65 60//60
f 66//66 61//61 62//62
f 62//62 64//64 66//66
f 61//61 66//66 65//65
f 37//37 67//67 57//57
f 67//67 37//37 68//68
f 39//39 68//68 37//37
f 39//39 69//69 68//68
f 39//39 70//70 69//69
f 70//70 39//39 33//33
f 69//69 70//70 71//71
f 71//71 70//70 72//72
f 33//33 72//72 70//70
f 68//68 73//73 67//67
f 68//68 69//69 73//73
f 67//67 73//73 74//74
f 57//57 67//67 74//74
f 75//75 73//73 69//69
f 74//74 73//73 75//75
f 76//76 65//65 66//66
f 66//66 77//77 76//76
f 64//64 77//77 66//66
f 74//74 78//78 57//57
f 79//79 78//78 74//74
f 75//75 80//80 74//74
f 79//79 74//74 80//80
f 78//78 81//81 57//57
f 81//81 54//54 57//57
f 82//82 54//54 81//81
f 81//81 78//78 82//82
f 63//63 54//54 82//82
f 82//82 78//78 63//63
f 83//83 80//80 75//75
f 80//80 83//83 79//79
f 83//83 84//84 79//79
f 83//83 75//75 85//85
f 83//83 85//85 84//84
f 85//85 86//86 84//84
f 85//85 87//87 86//86
f 85//85 75//75 87//87
f 75//75 69//69 87//87
f 86//86 87//87 69//69
f 79//79 88//88 78//78
f 78//78 88//88 63//63
f 89//89 86//86 69//69
f 89//89 69//69 71//71
f 86//86 89//89 90//90
f 71//71 90//90 89//89
f 86//86 90//90 91//91
f 84//84 92//92 79//79
f 88//88 79//79 93//93
f 92//92 93//93 79//79
f 63//63 88//88 94//94
f 63//63 94//94 95//95
f 64//64 63//63 95//95
f 94//94 96//96 95//95
f 88//88 96//96 94//94
f 64//64 95//95 96//96
f 88//88 93//93 97//97
f 88//88 97//97 96//96
f 92//92 98//98 93//93
f 99//99 92//92 84//84
f 92//92 99//99 98//98
f 93//93 100//100 97//97
f 98//98 100//100 93//93
f 101//101 64//64 96//96
f 96//96 97//97 102//102
f 101//101 96//96 102//102
f 101//101 103//103 64//64
f 77//77 64//64 103//103
f 103//103 101//101 104//104
f 102//102 104//104 101//101
f 105//105 77//77 103//103
f 106//106 102//102 97//97
f 106//106 97//97 100//100
f 104//104 102//102 107//107
f 106//106 107//107 102//102
f 77//77 105//105 108//108
f 108//108 76//76 77//77
f 76//76 108//108 109//109
f 105//105 103//103 110//110
f 105//105 110//110 108//108
f 110//110 103//103 111//111
f 112//112 108//108 110//110
f 111//111 112//112 110//110
f 104//104 113//113 103//103
f 113//113 104//104 107//107
f 109//109 114//114 76//76
f 114//114 65//65 76//76
f 114//114 115//115 65//65
f 115//115 114//114 109//109
f 65//65 115//115 60//60
f 112//112 116//116 108//108
f 108//108 116//116 109//109
f 112//112 117//117 116//116
f 116//116 117//117 109//109
f 118//118 112//112 111//111
f 118//118 117//117 112//112
f 119//119 115//115 109//109
f 60//60 115//115 120//120
f 120//120 115//115 119//119
f 121//121 109//109 117//117
f 119//119 109//109 121//121
f 121//121 117//117 122//122
f 118//118 122//122 117//117
f 121//121 123//123 119//119
f 123//123 120//120 119//119
f 123//123 121//121 122//122
f 60//60 120//120 124//124
f 60//60 124//124 24//24
f 123//123 125//125 120//120
f 125//125 124//124 120//120
f 122//122 126//126 123//123
f 125//125 123//123 126//126
f 127//127 24//24 124//124
f 127//127 124//124 125//125
f 24//24 127//127 128//128
f 128//128 127//127 125//125
f 126//126 129//129 125//125
f 128//128 125//125 129//129
f 130//130 24//24 128//128
f 36//36 24//24 130//130
f 130//130 128//128 131//131
f 130//130 131//131 36//36
f 132//132 128//128 129//129
f 128//128 132//132 131//131
f 131//131 132//132 133//133
f 134//134 36//36 131//131
f 135//135 36//36 134//134
f 134//134 131//131 135//135
f 131//131 133//133 135//135
f 35//35 36//36 135//135
f 35//35 135//135 136//136
f 35//35 136//136 42//42
f 135//135 133//133 137//137
f 137//137 136//136 135//135
f 136//136 138//138 42//42
f 136//136 137//137 139//139
f 138//138 136//136 139//139
f 137//137 140//140 139//139
f 137//137 133//133 140//140
f 141//141 139//139 140//140
f 139//139 141//141 138//138
f 142//142 42//42 138//138
f 43//43 42//42 142//142
f 133//133 143//143 140//140
f 140//140 143//143 141//141
f 144//144 143//143 133//133
f 144//144 141//141 143//143
f 138//138 141//141 145//145
f 138//138 145//145 142//142
f 144//144 133//133 146//146
f 146//146 133//133 132//132
f 147//147 146//146 132//132
f 147//147 132//132 129//129
f 144//144 148//148 141//141
f 141//141 148//148 145//145
f 145//145 148//148 149//149
f 149//149 150//150 145//145
f 145//145 150//150 142//142
f 151//151 144//144 146//146
f 147//147 151//151 146//146
f 152//152 144//144 151//151
f 148//148 144//144 152//152
f 151//151 147//147 153//153
f 148//148 152//152 154//154
f 154//154 149//149 148//148
f 152//152 155//155 154//154
f 154//154 155//155 149//149
f 155//155 156//156 149//149
f 147//147 129//129 157//157
f 157//157 153//153 147//147
f 153//153 157//157 158//158
f 159//159 153//153 158//158
f 156//156 160//160 149//149
f 160//160 156//156 161//161
f 162//162 157//157 129//129
f 129//129 126//126 162//162
f 162//162 126//126 163//163
f 157//157 162//162 163//163
f 126//126 122//122 163//163
f 164//164 157//157 163//163
f 122//122 164//164 163//163
f 158//158 157//157 164//164
f 118//118 164//164 122//122
f 164//164 118//118 165//165
f 164//164 165//165 158//158
f 118//118 166//166 165//165
f 118//118 111//111 166//166
f 165//165 167//167 158//158
f 166//166 167//167 165//165
f 167//167 168//168 158//158
f 166//166 169//169 167//167
f 169//169 168//168 167//167
f 166//166 170//170 169//169
f 171//171 158//158 168//168
f 158//158 171//171 159//159
f 169//169 172//172 168//168
f 168//168 172//172 171//171
f 172//172 169//169 170//170
f 173//173 159//159 171//171
f 171//171 172//172 173//173
f 170//170 173//173 172//172
f 159//159 173//173 174//174
f 175//175 166//166 111//111
f 166//166 175//175 170//170
f 176//176 174//174 173//173
f 177//177 173//173 170//170
f 177//177 176//176 173//173
f 178//178 177//177 170//170
f 178//178 176//176 177//177
f 176//176 179//179 174//174
f 176//176 178//178 179//179
f 170//170 180//180 178//178
f 180//180 170//170 175//175
f 179//179 181//181 174//174
f 174//174 181//181 182//182
f 178//178 183//183 179//179
f 180//180 183//183 178//178
f 182//182 181//181 184//184
f 185//185 182//182 184//184
f 184//184 186//186 185//185
f 185//185 186//186 187//187
f 188//188 184//184 181//181
f 184//184 188//188 186//186
f 181//181 179//179 189//189
f 189//189 188//188 181//181
f 190//190 188//188 189//189
f 189//189 179//179 191//191
f 179//179 183//183 191//191
f 189//189 191//191 190//190
f 191//191 183//183 192//192
f 180//180 192//192 183//183
f 192//192 190//190 191//191
f 192//192 180//180 193//193
f 190//190 192//192 193//193
f 188//188 194//194 186//186
f 194//194 188//188 190//190
f 186//186 194//194 195//195
f 190//190 196//196 194//194
f 186//186 197//197 187//187
f 197//197 186//186 195//195
f 193//193 180//180 198//198
f 180//180 175//175 198//198
f 199//199 198//198 175//175
f 199//199 193//193 198//198
f 199//199 175//175 111//111
f 193//193 200//200 190//190
f 196//196 190//190 200//200
f 196//196 201//201 194//194
f 201//201 195//195 194//194
f 193//193 199//199 202//202
f 202//202 200//200 193//193
f 199//199 111//111 203//203
f 203//203 111//111 103//103
f 204//204 199//199 203//203
f 103//103 204//204 203//203
f 204//204 202//202 199//199
f 103//103 202//202 204//204
f 202//202 103//103 113//113
f 200//200 202//202 205//205
f 113//113 205//205 202//202
f 205//205 113//113 206//206
f 206//206 207//207 205//205
f 207//207 208//208 205//205
f 209//209 200//200 205//205
f 209//209 205//205 208//208
f 196//196 200//200 209//209
f 206//206 113//113 210//210
f 107//107 210//210 113//113
f 211//211 210//210 107//107
f 206//206 210//210 211//211
f 211//211 107//107 106//106
f 212//212 211//211 106//106
f 206//206 211//211 212//212
f 106//106 100//100 212//212
f 213//213 209//209 208//208
f 196//196 209//209 213//213
f 214//214 213//213 208//208
f 196//196 213//213 214//214
f 207//207 215//215 208//208
f 215//215 214//214 208//208
f 216//216 215//215 207//207
f 212//212 100//100 217//217
f 98//98 217//217 100//100
f 196//196 214//214 218//218
f 196//196 218//218 201//201
f 218//218 195//195 201//201
f 219//219 215//215 216//216
f 214//214 215//215 219//219
f 220//220 219//219 216//216
f 221//221 214//214 219//219
f 222//222 221//221 219//219
f 220//220 222//222 219//219
f 218//218 214//214 223//223
f 218//218 223//223 195//195
f 223//223 214//214 224//224
f 223//223 224//224 195//195
f 221//221 224//224 214//214
f 98//98 225//225 217//217
f 225//225 98//98 99//99
f 217//217 225//225 226//226
f 226//226 225//225 227//227
f 99//99 227//227 225//225
f 99//99 228//228 227//227
f 227//227 228//228 226//226
f 229//229 195//195 224//224
f 195//195 229//229 197//197
f 229//229 230//230 197//197
f 230//230 187//187 197//197
f 229//229 224//224 231//231
f 229//229 231//231 230//230
f 230//230 232//232 187//187
f 232//232 233//233 187//187
f 234//234 233//233 232//232
f 99//99 235//235 228//228
f 235//235 99//99 84//84
f 84//84 236//236 235//235
f 84//84 86//86 236//236
f 236//236 237//237 235//235
f 235//235 237//237 228//228
f 236//236 86//86 238//238
f 236//236 238//238 237//237
f 238//238 86//86 91//91
f 239//239 230//230 231//231
f 232//232 230//230 239//239
f 240//240 228//228 237//237
f 241//241 237//237 238//238
f 237//237 241//241 240//240
f 242//242 238//238 91//91
f 241//241 238//238 242//242
f 243//243 228//228 240//240
f 243//243 226//226 228//228
f 243//243 244//244 226//226
f 242//242 245//245 244//244
f 226//226 244//244 246//246
f 226//226 246//246 247//247
f 240//240 248//248 243//243
f 244//244 243//243 248//248
f 240//240 249//249 248//248
f 248//248 249//249 244//244
f 242//242 249//249 241//241
f 242//242 244//244 249//249
f 240//240 250//250 249//249
f 250//250 241//241 249//249
f 250//250 240//240 241//241
f 91//91 251//251 242//242
f 245//245 242//242 251//251
f 226//226 247//247 252//252
f 226//226 252//252 217//217
f 217//217 252//252 253//253
f 253//253 212//212 217//217
f 245//245 254//254 244//244
f 246//246 244//244 254//254
f 255//255 251//251 91//91
f 255//255 245//245 251//251
f 256//256 252//252 247//247
f 252//252 256//256 253//253
f 257//257 212//212 253//253
f 206//206 212//212 257//257
f 257//257 256//256 206//206
f 258//258 257//257 253//253
f 256//256 258//258 253//253
f 258//258 256//256 257//257
f 256//256 259//259 206//206
f 256//256 247//247 259//259
f 259//259 207//207 206//206
f 247//247 207//207 259//259
f 245//245 260//260 254//254
f 261//261 260//260 245//245
f 254//254 260//260 246//246
f 245//245 262//262 261//261
f 245//245 255//255 262//262
f 255//255 261//261 262//262
f 255//255 263//263 261//261
f 91//91 263//263 255//255
f 263//263 91//91 264//264
f 90//90 264//264 91//91
f 90//90 265//265 264//264
f 90//90 266//266 265//265
f 267//267 264//264 265//265
f 267//267 263//263 264//264
f 267//267 261//261 263//263
f 71//71 266//266 90//90
f 261//261 267//267 268//268
f 265//265 268//268 267//267
f 269//269 260//260 261//261
f 261//261 268//268 269//269
f 260//260 269//269 270//270
f 269//269 268//268 270//270
f 246//246 260//260 270//270
f 268//268 271//271 270//270
f 270//270 272//272 246//246
f 272//272 270//270 271//271
f 273//273 268//268 265//265
f 268//268 273//273 271//271
f 274//274 273//273 265//265
f 273//273 274//274 275//275
f 271//271 273//273 275//275
f 272//272 276//276 246//246
f 276//276 247//247 246//246
f 277//277 272//272 271//271
f 271//271 275//275 277//277
f 277//277 278//278 272//272
f 276//276 272//272 278//278
f 247//247 276//276 279//279
f 247//247 279//279 207//207
f 277//277 275//275 280//280
f 280//280 278//278 277//277
f 281//281 276//276 278//278
f 279//279 276//276 281//281
f 280//280 281//281 278//278
f 282//282 207//207 279//279
f 279//279 281//281 282//282
f 207//207 282//282 216//216
f 216//216 282//282 281//281
f 280//280 216//216 281//281
f 275//275 283//283 280//280
f 275//275 274//274 283//283
f 216//216 280//280 284//284
f 284//284 280//280 283//283
f 216//216 284//284 220//220
f 220//220 284//284 283//283
f 283//283 274//274 285//285
f 220//220 283//283 285//285
f 285//285 286//286 220//220
f 287//287 286//286 285//285
f 288//288 287//287 285//285
f 274//274 288//288 285//285
f 289//289 287//287 288//288
f 288//288 274//274 289//289
f 286//286 290//290 220//220
f 222//222 220//220 290//290
f 291//291 286//286 287//287
f 286//286 291//291 290//290
f 290//290 292//292 222//222
f 292//292 221//221 222//222
f 291//291 293//293 290//290
f 287//287 293//293 291//291
f 294//294 292//292 290//290
f 294//294 290//290 293//293
f 292//292 294//294 221//221
f 295//295 221//221 294//294
f 293//293 296//296 294//294
f 293//293 287//287 296//296
f 294//294 297//297 295//295
f 297//297 294//294 296//296
f 274//274 298//298 289//289
f 298//298 274//274 299//299
f 299//299 274//274 265//265
f 298//298 299//299 300//300
f 299//299 265//265 300//300
f 301//301 298//298 300//300
f 298//298 301//301 289//289
f 302//302 289//289 301//301
f 300//300 265//265 303//303
f 303//303 301//301 300//300
f 302//302 301//301 303//303
f 303//303 265//265 266//266
f 287//287 289//289 304//304
f 302//302 304//304 289//289
f 303//303 305//305 302//302
f 305//305 303//303 266//266
f 305//305 266//266 306//306
f 266//266 307//307 306//306
f 307//307 266//266 71//71
f 308//308 307//307 71//71
f 307//307 308//308 306//306
f 71//71 309//309 308//308
f 309//309 71//71 72//72
f 310//310 309//309 72//72
f 311//311 310//310 72//72
f 311//311 72//72 33//33
f 33//33 312//312 311//311
f 310//310 311//311 312//312
f 313//313 312//312 33//33
f 312//312 313//313 310//310
f 313//313 33//33 31//31
f 308//308 309//309 314//314
f 315//315 309//309 310//310
f 314//314 309//309 315//315
f 308//308 316//316 306//306
f 308//308 317//317 316//316
f 317//317 308//308 314//314
f 306//306 316//316 318//318
f 316//316 317//317 318//318
f 319//319 318//318 317//317
f 320//320 318//318 319//319
f 318//318 320//320 306//306
f 321//321 306//306 320//320
f 319//319 322//322 320//320
f 321//321 322//322 319//319
f 322//322 321//321 320//320
f 317//317 314//314 323//323
f 319//319 317//317 323//323
f 314//314 324//324 323//323
f 323//323 324//324 319//319
f 315//315 325//325 314//314
f 325//325 324//324 314//314
f 326//326 306//306 321//321
f 326//326 305//305 306//306
f 327//327 305//305 326//326
f 327//327 326//326 321//321
f 315//315 328//328 325//325
f 324//324 325//325 328//328
f 329//329 305//305 327//327
f 305//305 329//329 302//302
f 327//327 321//321 330//330
f 329//329 327//327 331//331
f 331//331 327//327 330//330
f 332//332 302//302 329//329
f 329//329 331//331 332//332
f 331//331 330//330 333//333
f 331//331 333//333 334//334
f 331//331 334//334 332//332
f 334//334 333//333 335//335
f 335//335 332//332 334//334
f 330//330 321//321 336//336
f 330//330 336//336 333//333
f 336//336 321//321 319//319
f 336//336 337//337 333//333
f 337//337 336//336 319//319
f 337//337 319//319 338//338
f 338//338 339//339 337//337
f 338//338 319//319 340//340
f 340//340 339//339 338//338
f 340//340 319//319 324//324
f 302//302 332//332 341//341
f 341//341 304//304 302//302
f 340//340 324//324 342//342
f 343//343 342//342 324//324
f 344//344 342//342 343//343
f 343//343 324//324 328//328
f 341//341 332//332 345//345
f 335//335 345//345 332//332
f 346//346 304//304 341//341
f 287//287 304//304 346//346
f 341//341 347//347 346//346
f 345//345 347//347 341//341
f 346//346 348//348 287//287
f 346//346 347//347 348//348
f 287//287 348//348 296//296
f 328//328 349//349 343//343
f 328//328 315//315 349//349
f 350//350 296//296 348//348
f 297//297 296//296 350//350
f 349//349 315//315 351//351
f 351//351 315//315 310//310
f 310//310 352//352 351//351
f 353//353 351//351 352//352
f 313//313 352//352 310//310
f 354//354 349//349 351//351
f 354//354 351//351 353//353
f 349//349 354//354 355//355
f 343//343 349//349 355//355
f 353//353 355//355 354//354
f 356//356 352//352 313//313
f 353//353 352//352 356//356
f 343//343 355//355 357//357
f 357//357 344//344 343//343
f 356//356 313//313 358//358
f 31//31 358//358 313//313
f 358//358 31//31 359//359
f 34//34 359//359 31//31
f 34//34 360//360 359//359
f 34//34 18//18 360//360
f 358//358 359//359 361//361
f 361//361 362//362 358//358
f 361//361 359//359 362//362
f 359//359 360//360 362//362
f 362//362 356//356 358//358
f 363//363 360//360 18//18
f 363//363 362//362 360//360
f 18//18 364//364 363//363
f 363//363 364//364 362//362
f 356//356 362//362 364//364
f 44//44 364//364 18//18
f 364//364 365//365 356//356
f 356//356 365//365 353//353
f 44//44 366//366 364//364
f 365//365 364//364 366//366
f 43//43 366//366 44//44
f 43//43 367//367 366//366
f 366//366 367//367 368//368
f 43//43 142//142 367//367
f 369//369 367//367 142//142
f 367//367 369//369 368//368
f 142//142 150//150 369//369
f 150//150 370//370 369//369
f 370//370 368//368 369//369
f 149//149 370//370 150//150
f 149//149 371//371 370//370
f 371//371 368//368 370//370
f 149//149 160//160 371//371
f 366//366 372//372 365//365
f 368//368 372//372 366//366
f 373//373 353//353 365//365
f 365//365 372//372 373//373
f 160//160 374//374 371//371
f 374//374 368//368 371//371
f 375//375 372//372 368//368
f 368//368 374//374 375//375
f 376//376 374//374 160//160
f 376//376 160//160 161//161
f 373//373 377//377 353//353
f 353//353 377//377 355//355
f 355//355 377//377 378//378
f 378//378 377//377 373//373
f 355//355 378//378 357//357
f 373//373 372//372 379//379
f 375//375 379//379 372//372
f 378//378 373//373 379//379
f 380//380 375//375 374//374
f 374//374 376//376 380//380
f 375//375 381//381 379//379
f 378//378 379//379 381//381
f 381//381 375//375 380//380
f 381//381 382//382 378//378
f 378//378 382//382 357//357
f 380//380 382//382 381//381
f 383//383 357//357 382//382
f 383//383 344//344 357//357
f 382//382 344//344 383//383
f 344//344 382//382 380//380
f 384//384 380//380 376//376
f 344//344 380//380 384//384
f 385//385 384//384 376//376
f 376//376 161//161 385//385
f 385//385 161//161 386//386
f 161//161 387//387 386//386
f 384//384 388//388 344//344
f 342//342 344//344 388//388
f 389//389 384//384 385//385
f 389//389 385//385 386//386
f 388//388 384//384 390//390
f 389//389 390//390 384//384
f 390//390 391//391 388//388
f 342//342 388//388 391//391
f 392//392 390//390 389//389
f 390//390 392//392 391//391
f 393//393 392//392 389//389
f 391//391 392//392 393//393
f 386//386 393//393 389//389
f 393//393 394//394 391//391
f 393//393 386//386 394//394
f 391//391 394//394 342//342
f 387//387 395//395 386//386
f 394//394 386//386 395//395
f 387//387 396//396 395//395
f 395//395 397//397 394//394
f 396//396 398//398 395//395
f 397//397 395//395 398//398
f 399//399 394//394 397//397
f 342//342 394//394 399//399
f 398//398 399//399 397//397
f 400//400 342//342 399//399
f 399//399 398//398 400//400
f 398//398 396//396 401//401
f 401//401 396//396 402//402
f 403//403 342//342 400//400
f 340//340 342//342 403//403
f 340//340 403//403 404//404
f 403//403 400//400 404//404
f 340//340 404//404 339//339
f 398//398 405//405 400//400
f 405//405 404//404 400//400
f 401//401 405//405 398//398
f 404//404 405//405 339//339
f 402//402 406//406 401//401
f 402//402 407//407 406//406
f 406//406 407//407 408//408
f 405//405 401//401 409//409
f 406//406 409//409 401//401
f 339//339 405//405 410//410
f 409//409 410//410 405//405
f 411//411 409//409 406//406
f 408//408 411//411 406//406
f 410//410 409//409 412//412
f 411//411 412//412 409//409
f 413//413 412//412 411//411
f 408//408 414//414 411//411
f 411//411 414//414 413//413
f 415//415 412//412 413//413
f 412//412 415//415 410//410
f 413//413 414//414 416//416
f 415//415 413//413 416//416
f 408//408 416//416 414//414
f 410//410 415//415 417//417
f 415//415 416//416 417//417
f 418//418 410//410 417//417
f 418//418 339//339 410//410
f 419//419 418//418 417//417
f 420//420 419//419 417//417
f 420//420 421//421 419//419
f 420//420 422//422 421//421
f 417//417 422//422 420//420
f 418//418 423//423 339//339
f 419//419 423//423 418//418
f 339//339 423//423 337//337
f 424//424 337//337 423//423
f 421//421 422//422 425//425
f 417//417 425//425 422//422
f 426//426 423//423 419//419
f 423//423 426//426 424//424
f 416//416 427//427 417//417
f 416//416 428//428 427//427
f 408//408 428//428 416//416
f 417//417 427//427 429//429
f 428//428 429//429 427//427
f 417//417 429//429 430//430
f 428//428 430//430 429//429
f 428//428 408//408 431//431
f 428//428 431//431 430//430
f 431//431 432//432 430//430
f 430//430 433//433 417//417
f 425//425 417//417 433//433
f 433//433 430//430 432//432
f 433//433 432//432 425//425
f 434//434 431//431 408//408
f 434//434 408//408 407//407
f 434//434 435//435 431//431
f 407//407 435//435 434//434
f 431//431 435//435 432//432
f 407//407 436//436 435//435
f 436//436 437//437 435//435
f 435//435 437//437 432//432
f 432//432 438//438 425//425
f 425//425 438//438 421//421
f 437//437 439//439 432//432
f 432//432 439//439 438//438
f 440//440 439//439 437//437
f 440//440 437//437 441//441
f 440//440 441//441 442//442
f 443//443 438//438 439//439
f 440//440 443//443 439//439
f 438//438 444//444 421//421
f 438//438 443//443 444//444
f 444//444 443//443 445//445
f 444//444 445//445 421//421
f 440//440 446//446 443//443
f 443//443 446//446 445//445
f 445//445 447//447 421//421
f 448//448 447//447 445//445
f 446//446 448//448 445//445
f 421//421 447//447 449//449
f 419//419 421//421 449//449
f 450//450 419//419 449//449
f 449//449 447//447 450//450
f 419//419 450//450 451//451
f 451//451 426//426 419//419
f 451//451 450//450 452//452
f 452//452 426//426 451//451
f 450//450 447//447 452//452
f 426//426 452//452 424//424
f 424//424 447//447 453//453
f 452//452 454//454 424//424
f 447//447 454//454 452//452
f 454//454 447//447 424//424
f 446//446 440//440 455//455
f 455//455 440//440 442//442
f 456//456 424//424 453//453
f 337//337 424//424 456//456
f 457//457 453//453 447//447
f 447//447 448//448 457//457
f 457//457 458//458 453//453
f 458//458 457//457 448//448
f 459//459 448//448 446//446
f 460//460 446//446 455//455
f 459//459 446//446 460//460
f 460//460 461//461 459//459
f 459//459 462//462 448//448
f 458//458 448//448 462//462
f 459//459 461//461 462//462
f 458//458 462//462 461//461
f 453//453 458//458 463//463
f 463//463 458//458 461//461
f 460//460 455//455 464//464
f 464//464 461//461 460//460
f 464//464 455//455 465//465
f 466//466 465//465 455//455
f 455//455 442//442 466//466
f 466//466 442//442 465//465
f 467//467 465//465 442//442
f 461//461 464//464 468//468
f 464//464 465//465 468//468
f 461//461 469//469 463//463
f 461//461 468//468 469//469
f 470//470 465//465 467//467
f 471//471 470//470 467//467
f 471//471 472//472 470//470
f 471//471 473//473 472//472
f 472//472 473//473 234//234
f 465//465 470//470 474//474
f 472//472 474//474 470//470
f 465//465 475//475 468//468
f 465//465 474//474 475//475
f 468//468 476//476 469//469
f 476//476 468//468 475//475
f 475//475 474//474 477//477
f 474//474 472//472 478//478
f 477//477 474//474 478//478
f 478//478 472//472 479//479
f 480//480 478//478 479//479
f 477//477 478//478 480//480
f 477//477 481//481 475//475
f 475//475 481//481 476//476
f 477//477 480//480 481//481
f 234//234 482//482 472//472
f 472//472 482//482 479//479
f 482//482 234//234 483//483
f 483//483 479//479 482//482
f 234//234 232//232 483//483
f 483//483 232//232 484//484
f 484//484 232//232 239//239
f 476//476 481//481 485//485
f 480//480 486//486 481//481
f 481//481 486//486 485//485
f 487//487 476//476 485//485
f 469//469 476//476 487//487
f 480//480 479//479 488//488
f 480//480 488//488 486//486
f 486//486 489//489 485//485
f 489//489 487//487 485//485
f 490//490 469//469 487//487
f 491//491 487//487 489//489
f 487//487 491//491 490//490
f 492//492 469//469 490//490
f 469//469 492//492 463//463
f 490//490 491//491 493//493
f 490//490 493//493 492//492
f 463//463 492//492 494//494
f 463//463 494//494 453//453
f 453//453 494//494 495//495
f 456//456 453//453 495//495
f 495//495 496//496 456//456
f 496//496 337//337 456//456
f 497//497 495//495 494//494
f 496//496 495//495 497//497
f 498//498 497//497 494//494
f 498//498 496//496 497//497
f 499//499 494//494 492//492
f 499//499 498//498 494//494
f 493//493 500//500 492//492
f 499//499 492//492 500//500
f 493//493 491//491 501//501
f 500//500 493//493 501//501
f 501//501 502//502 500//500
f 503//503 501//501 491//491
f 502//502 501//501 503//503
f 491//491 489//489 503//503
f 504//504 502//502 503//503
f 505//505 504//504 503//503
f 505//505 503//503 489//489
f 505//505 489//489 506//506
f 504//504 505//505 506//506
f 486//486 506//506 489//489
f 507//507 498//498 499//499
f 498//498 507//507 496//496
f 500//500 508//508 499//499
f 499//499 508//508 507//507
f 500//500 502//502 509//509
f 500//500 509//509 508//508
f 486//486 510//510 506//506
f 486//486 488//488 510//510
f 510//510 488//488 511//511
f 488//488 479//479 511//511
f 506//506 510//510 512//512
f 510//510 511//511 512//512
f 506//506 512//512 513//513
f 504//504 506//506 513//513
f 511//511 514//514 512//512
f 513//513 512//512 514//514
f 511//511 479//479 515//515
f 515//515 514//514 511//511
f 479//479 516//516 515//515
f 479//479 483//483 516//516
f 516//516 483//483 517//517
f 517//517 515//515 516//516
f 484//484 517//517 483//483
f 514//514 515//515 518//518
f 518//518 515//515 517//517
f 514//514 519//519 513//513
f 514//514 518//518 519//519
f 518//518 517//517 295//295
f 484//484 295//295 517//517
f 518//518 295//295 519//519
f 513//513 520//520 504//504
f 513//513 519//519 520//520
f 221//221 295//295 484//484
f 484//484 521//521 221//221
f 221//221 521//521 224//224
f 484//484 239//239 521//521
f 224//224 521//521 231//231
f 239//239 522//522 521//521
f 231//231 521//521 522//522
f 239//239 231//231 522//522
f 295//295 523//523 519//519
f 297//297 523//523 295//295
f 524//524 519//519 523//523
f 297//297 524//524 523//523
f 520//520 519//519 524//524
f 297//297 350//350 524//524
f 524//524 350//350 520//520
f 520//520 350//350 348//348
f 348//348 525//525 520//520
f 525//525 348//348 347//347
f 504//504 520//520 525//525
f 347//347 526//526 525//525
f 526//526 504//504 525//525
f 527//527 526//526 347//347
f 345//345 527//527 347//347
f 504//504 526//526 528//528
f 527//527 528//528 526//526
f 527//527 345//345 528//528
f 528//528 502//502 504//504
f 529//529 528//528 345//345
f 528//528 529//529 502//502
f 335//335 529//529 345//345
f 335//335 502//502 529//529
f 502//502 335//335 509//509
f 335//335 530//530 509//509
f 508//508 509//509 530//530
f 333//333 530//530 335//335
f 508//508 530//530 531//531
f 531//531 530//530 333//333
f 531//531 507//507 508//508
f 531//531 333//333 507//507
f 333//333 532//532 507//507
f 337//337 532//532 333//333
f 507//507 532//532 496//496
f 532//532 337//337 496//496
