# rock_formation_huge_b_COL
v 1.22946382 -0.55268991 -3.51995564
v 0.805326343 -0.401068062 -4.27880383
v 1.04500306 -0.280360699 -3.7120285
v 1.5831753 -1.28815699 -2.71962619
v 0.504382789 -1.06607568 -4.40344238
v 1.11995018 -0.183143452 -3.92689323
v 0.914639354 -0.330766529 -4.52374554
v 0.245919436 -0.331925154 -5.32653809
v 1.41436446 -0.470514596 -3.32333374
v 1.71262228 -0.61444658 -3.64788842
v 2.08706594 -0.583197176 -3.58891726
v 1.73759151 -0.33738482 -3.65094543
v 2.24203062 -0.437350899 -2.70157003
v 2.0623548 -0.604521155 -1.7746954
v 3.50218153 -1.05959213 0.828129411
v 0.434595793 -1.59466529 -0.063804768
v 2.92128754 -0.868214309 -0.430909306
v 0.540587842 -1.29230404 -3.30115223
v 0.345360696 -1.48745883 -0.862884939
v 0.942846179 -0.506974459 -5.67126942
v 2.15310764 -0.702944696 -6.42023611
v 1.31231093 -0.562711954 -6.01635933
v 2.3932817 -0.744576931 -5.96597767
v 0.855421722 -0.310407847 -5.27250242
v 0.248140991 -0.433778346 -5.8684411
v 0.262351781 -0.289094776 -5.79926395
v -0.311556727 -0.128391728 -5.80434322
v -0.631354451 -0.782503188 -5.57346582
v -1.35200584 -0.248965636 -5.95578671
v 0.363102406 -0.665919781 -7.42756224
v 1.07798922 -0.657743871 -6.53240347
v -0.944417953 -0.522916377 -6.83568001
v 1.57676423 -0.504088044 -6.51811266
v 1.38122797 -0.208433509 -6.95153284
v 1.06366777 -0.350474387 -7.62769222
v 1.27047813 -0.593758404 -7.29217768
v 1.00650799 -0.47986275 -8.54628849
v -0.231610313 -1.06350517 -4.48915243
v -0.88037014 -1.23928833 -4.839149
v -1.63157952 -0.471274316 -5.55537319
v -1.24122262 -0.617749572 -5.74822426
v -1.79376364 0.0476991273 -5.78679752
v -1.59887326 -0.189528957 -7.1633606
v -0.749940634 -0.388623863 -7.13147449
v -2.02685428 -0.188055798 -5.67843294
v -1.84426939 -0.872650027 -5.5043273
v -1.59399378 -0.733068168 -7.94076872
v -1.36835742 -0.898305058 -8.87979984
v -1.64620066 -0.741312087 -8.54135132
v 0.409008563 -0.517074168 -9.52067757
v -2.68919611 -0.434405953 -8.23250008
v -2.2718544 -0.357482076 -6.0015831
v -2.42965078 -0.745670199 -5.50018406
v -2.71575761 -0.193466425 -7.2354455
v -2.66896725 -0.725468099 -6.36633158
v -5.37321806 -0.854126692 -4.2404108
v -2.39860058 -0.733769298 -4.79426765
v -4.24228001 -0.646707535 -4.42538404
v -3.26844478 -0.764999509 -2.58519006
v -5.57877111 -0.916675866 0.150395408
v -8.1061058 -0.799900472 -2.98834896
v -8.4406538 -0.699005783 -6.17981482
v -5.76353884 -0.866071224 -6.40500975
v -3.763484 -0.744288325 -7.76966047
v -2.18170953 -1.07926869 -4.57809877
v -1.45088363 -1.48210537 -0.178801268
v -1.66380799 -1.39513886 -3.52731609
v -0.115206942 -1.4552114 -0.82624954
v -3.05103755 -0.517345071 -7.15945053
v -3.08978176 -0.380776137 -7.74069881
v -0.00205073133 -1.54290497 0.493473738
v -3.15828919 -0.32646957 -8.62438965
v -3.76120329 -0.371594101 -8.68310833
v -2.33016801 -0.418001175 -9.13983536
v -3.40310478 -0.340811729 -9.15617275
v -3.27073336 0.2258268 -9.3583746
v -1.79145133 -0.0363087393 -9.49007702
v -5.13946152 0.109394565 -8.64223099
v -5.67309332 0.929885149 -8.53216553
v -4.65830421 -0.399407029 -8.76580715
v -0.0606865697 -0.294024825 -9.7889061
v 1.2959559 -0.211157888 -9.88252258
v 1.19939697 -0.264677465 -9.35158348
v 2.63556433 -0.358448744 -8.78767109
v 2.58828306 -0.411637455 -9.32531643
v 2.63700485 -0.574433148 -8.38094234
v 2.84048343 -0.673054099 -9.95585155
v 2.90203691 -0.688853085 -8.69133949
v 2.87047362 -0.515768409 -6.78461599
v 3.4971745 -0.591083109 -6.23695612
v 2.98678327 -0.620479405 -6.07341766
v 2.91119742 -0.61402452 -3.20465851
v 4.36924171 -0.844751358 -3.95262742
v 4.27014017 -0.786560476 -1.08277583
v 3.36160827 -0.75093925 -2.06255221
v 2.53336668 -0.766011178 -2.59250474
v 3.35746336 -0.400846124 -1.39071333
v 3.66277766 -0.75370717 -1.3441937
v 4.21684456 -0.628429234 0.00484969746
v 4.13765907 -0.422872603 -0.291216016
v 4.3711381 -0.810508013 -0.500768661
v 4.38644886 -0.444654077 -0.452867717
v 4.64084291 -0.21833849 -0.182745904
v 3.86041522 -0.605014026 1.51851594
v 4.95157003 -0.933143318 -0.204081431
v 4.68328714 -0.70761472 0.67902267
v 3.98597836 -0.818882704 1.52630973
v 5.06356812 -1.28723383 0.486038208
v 5.03236437 -0.45338133 0.550047159
v 5.48646212 -1.0627768 -1.12886155
v 5.96907091 -0.813804209 -0.434543192
v 6.14118528 -1.08481967 -0.550516069
v 6.78162718 -1.27661407 -2.19635606
v 4.21102571 -0.976006389 2.09225988
v 3.22316527 -1.28926384 3.59268308
v 7.26577377 -1.20661759 -0.0647472739
v 4.80031586 -0.889440238 2.83577824
v 8.81911278 -1.05224144 2.17613149
v 4.5536828 -0.783996701 2.63760209
v 10.3861618 -1.59065986 0.760345995
v 7.09523678 -1.26089549 -1.32196403
v 4.06374931 -1.2774024 3.2558639
v 6.57990456 -1.26592755 -5.02643347
v 6.95308828 -1.05651104 -2.31053948
v 7.36360407 -1.32189119 -2.33538342
v 4.02418375 -0.750247657 -5.98614264
v 3.68672633 -0.474703968 -6.2556982
v 10.0957832 -1.65785182 -1.91464651
v 5.99337196 -1.19162178 -8.38623714
v 9.68450737 -1.44386458 -4.38448858
v 5.47446775 -1.12444901 -9.72319603
v 6.30051756 -1.05666757 -7.42494726
v 5.65582752 -0.810046434 -9.7015686
v 6.41734552 -1.23709488 -7.43324947
v 9.78419495 -1.56083047 -7.48289824
v 6.30247784 -1.01323009 -9.32612514
v 6.44306612 -1.01587677 -9.64487076
v 8.87687397 -1.35764289 -8.55155945
v 5.61315823 -0.764125526 -10.0064259
v 4.67096996 -0.483172566 -10.2662458
v 5.84327316 0.0557415672 -9.82461929
v 5.80180597 -0.352345079 -9.87659359
v 3.46352983 -0.719812453 -10.2196722
v 3.61488771 -0.337107033 -10.0482435
v 9.80870056 -1.32819343 -9.01477051
v 7.96122551 -1.09867704 -9.21620464
v 10.0882006 -1.25186181 -6.96382713
v 7.01321268 -0.450236261 -9.8405323
v 6.74657345 0.200715095 -10.1115255
v 7.42795753 -0.505864799 -9.61122704
v 5.92595625 0.0139064593 -9.7048378
v 5.92088127 -0.0158888176 -9.35404778
v 6.75723362 0.56208837 -8.61753654
v 8.0732975 1.00046039 -8.82884026
v 6.63221931 2.07293248 -9.26040649
v 8.74756241 1.35081363 -8.75429058
v 8.59470177 1.34243894 -7.99099588
v 7.38090181 -0.0375340953 -10.4456663
v 7.47859955 -0.421677232 -10.1791658
v 7.95774841 -0.272156239 -10.0869398
v 7.52429771 0.308454096 -10.3498363
v 8.1865778 0.400801241 -10.1863194
v 8.61267185 0.277560085 -9.28398323
v 8.65173054 0.683348536 -9.3524437
v 8.67799759 -0.475654244 -9.74435329
v 8.58194065 0.0106224986 -9.90888691
v 9.33838749 -0.771485806 -9.62478638
v 8.73533154 0.922102809 -7.77294397
v 9.15739441 0.731436968 -8.61505795
v 9.27236938 0.28367871 -9.61769104
v 10.3051243 -0.975793898 -9.07529259
v 10.0322418 -1.05790389 -9.3205862
v 10.3404636 -1.28209138 -8.62390041
v 9.88036633 -0.194876954 -8.47224426
v 9.80639553 0.598195612 -7.27147198
v 9.237216 1.04946661 -7.74673223
v 10.2253904 -0.629344225 -4.53669834
v 9.70448303 1.23525691 -7.30214787
v 9.62542629 1.74929881 -6.74380493
v 9.39246941 1.5287751 -7.45308447
v 8.89982128 1.50570309 -7.60772991
v 10.1586552 -0.966660976 -3.02919436
v 10.4954796 -0.806393564 -1.622455
v 10.3492107 0.130747139 -2.47241521
v 9.69172859 2.21191931 -5.54145241
v 9.16110897 1.82831955 -6.69013643
v 10.2105198 -1.66924202 -1.33476138
v 9.64744949 5.36910343 -3.39511681
v 9.0465765 3.68848252 -6.38464689
v 9.29214191 5.40277386 -5.07345867
v 9.26973248 2.07297993 -5.78848934
v 9.00985909 3.3990109 -6.88345432
v 9.12941837 2.10927796 -6.44413805
v 8.85687828 2.10509801 -6.56976986
v 9.09705257 1.77344263 -8.04601097
v 8.75745869 1.55600131 -8.54826736
v 8.68279076 3.65645862 -9.06171227
v 8.54779053 1.8273406 -8.81637669
v 8.36931038 5.44819689 -9.74472046
v 8.53789139 3.94422603 -9.01318073
v 6.73107052 4.2187953 -9.57867718
v 5.46803808 2.95710015 -9.18580818
v 6.7049222 4.57259321 -9.61982727
v 7.08942938 5.04571533 -9.32925987
v 5.57203579 2.1958046 -9.26946735
v 5.94295263 1.52208877 -9.13263798
v 5.1145463 2.3271699 -8.92501163
v 5.39762497 2.47945619 -8.82833195
v 5.6564908 1.31632936 -9.13161373
v 5.59431887 5.58229923 -9.703022
v 6.15633535 3.89435792 -9.5335474
v 4.75263739 2.8934114 -9.48600197
v 5.31445074 2.93744469 -8.97555447
v 4.78907442 2.38972449 -9.00346088
v 4.67389965 4.16994381 -10.3260107
v 4.48905373 5.22229719 -10.3114357
v 4.81058693 1.94657207 -8.57752705
v 5.01945686 1.80393493 -8.82709789
v 4.75637341 2.21747732 -9.34867001
v 4.78278351 1.53921664 -8.96660519
v 5.67272568 1.05549812 -8.7999506
v 5.69909763 0.745678365 -8.96588135
v 5.51740599 0.860366523 -8.69475937
v 6.05799961 0.382158041 -8.94706059
v 5.11718273 1.00177562 -9.53903008
v 5.82405424 0.335243136 -9.32442284
v 5.94856453 -0.0100384103 -9.08611584
v 5.08123732 0.518491447 -9.71266556
v 5.27544308 0.794172645 -9.9457159
v 4.73639059 2.12056494 -9.80112267
v 4.78764915 1.40290082 -9.91193771
v 4.53103685 1.35497844 -9.91403198
v 4.43642807 2.91673279 -9.72422981
v 4.62538242 1.28154695 -9.65869999
v 4.90589142 0.612658918 -9.89431095
v 3.67451739 3.38506699 -9.73046875
v 5.06188536 0.19103615 -9.71025276
v 5.1559844 0.00742567284 -10.0513783
v 5.0700407 0.402070165 -10.8623114
v 3.5327518 3.921875 -10.2119093
v 4.32006884 4.43029404 -10.4834852
v 3.43561816 4.3760643 -10.5016737
v 3.61325407 3.399436 -11.9710436
v 3.95287132 2.57399797 -10.295948
v 3.81833029 2.19293857 -11.6098328
v 4.51463604 1.3296721 -10.8472824
v 4.54873037 5.3713026 -10.8293343
v 4.34360218 5.51894665 -10.8132982
v 4.48473549 6.20609045 -11.0102272
v 4.4236536 6.46698904 -10.892807
v 5.82411051 5.68706512 -9.80060101
v 6.77848434 5.6387291 -9.58826351
v 7.21687889 6.67002201 -10.0019073
v 7.90773296 7.59571743 -10.9269619
v 4.98550415 7.06151724 -11.2702465
v 6.99650002 5.58745575 -8.8622303
v 7.60429001 5.49500847 -9.23656273
v 8.27228642 6.07857275 -9.36197567
v 8.26299095 7.3937645 -8.61074734
v 8.15904427 8.56869411 -8.09111023
v 8.68406963 6.82512236 -6.06299448
v 6.30895233 7.3896904 -11.2767839
v 7.7578125 8.2502594 -11.4412031
v 5.49403715 7.66013718 -11.6567993
v 8.33764839 7.97412777 -7.38878727
v 7.98863363 7.99955416 -7.59523344
v 7.14972782 8.40186214 -6.5298028
v 7.50250769 8.02967548 -6.18460178
v 6.32487917 8.88266468 -5.09840965
v 7.21337557 8.0189867 -6.7542367
v 8.02880573 7.51107216 -5.65906096
v 8.80511475 6.53943443 -5.51834869
v 8.2260828 7.29346037 -5.40631104
v 8.96157074 5.46176147 -5.25994205
v 9.04521179 6.01647282 -4.31676435
v 8.30905056 6.56621313 -2.13996506
v 5.75638819 8.40222454 -1.52772486
v 6.26641846 8.47162533 -3.78584862
v 6.18302679 9.04172039 -4.40383339
v 6.88717127 10.7119837 -4.42662191
v 5.05023527 9.01547527 -1.90040338
v 8.57601166 6.4272995 -1.4810257
v 7.86278343 11.0156593 -5.59701395
v 8.04912663 10.5777206 -5.87558508
v 6.73002386 8.97396755 -5.8096447
v 8.12503242 9.10151482 -7.73074341
v 8.56010342 11.3613548 -6.36295271
v 7.96761513 9.62438297 -9.13244247
v 8.52059269 9.58407021 -7.99936152
v 8.33183479 10.0748215 -9.18020535
v 8.26781559 11.8474398 -8.16093159
v 7.7530756 8.99041748 -11.4527435
v 8.46522045 11.6547022 -6.24631596
v 7.80882931 9.40019417 -10.5063601
v 7.9415288 10.2660475 -11.5353746
v 7.69715261 9.99361897 -11.2046852
v 7.04042053 9.00375271 -11.7677717
v 8.04755974 12.391489 -6.28227091
v 8.25513363 11.9541626 -6.89714289
v 6.89694691 11.7505989 -4.60325146
v 5.50112057 12.2292137 -1.79745054
v 7.99977875 12.4472237 -7.57407808
v 6.69248009 14.1465263 -5.23822784
v 7.20269871 13.0661497 -4.23769093
v 6.25054073 12.7698059 -3.31144238
v 5.54852819 14.5422983 -0.302315027
v 6.74226284 13.5328255 -4.1828661
v 6.82177162 13.841218 -4.1100235
v 4.39028788 15.8834229 -2.02834558
v 5.24389935 15.5097275 -4.68954182
v 5.88002777 11.9369612 -2.20188689
v 5.06252813 11.0601549 -0.78675735
v 7.06326628 14.16644 -9.65237904
v 6.73752785 14.3564472 -8.13283825
v 8.15034676 12.5710907 -7.93716335
v 4.87220526 11.0635767 -0.743947566
v 4.70226765 9.67484379 -0.141423419
v 5.11687136 12.2461128 -0.773388326
v 4.61779213 8.84837341 -0.557079673
v 3.11251092 10.7121553 0.981573522
v 4.66428471 11.7132416 0.164362803
v 3.32335138 10.9094019 1.01778901
v 4.440341 11.7743492 0.600188136
v 4.53548622 12.7020082 0.282800198
v 4.71319771 8.48654842 0.823313057
v 5.92190313 7.58719969 0.932848155
v 3.41058779 9.344244 0.120024905
v 3.56744719 8.78210354 1.24666941
v 3.47834277 8.79464912 1.59002268
v 3.87958741 8.91671753 1.60020137
v 3.89940166 8.98569393 2.8262341
v 4.79773712 7.87802172 2.56451893
v 3.38740206 10.1477957 1.34907532
v 1.79627228 10.5708752 1.23792124
v 4.11450338 8.46913147 2.55508518
v 4.27277946 7.60383606 4.71210766
v 4.30251598 7.81595945 3.02747583
v 4.51551485 7.49060583 2.89022541
v 4.90957832 7.55595303 2.65754294
v 6.31861067 6.60757685 2.85731864
v 5.5178709 7.09447622 3.80692744
v 6.45347166 6.2681284 2.93548203
v 7.47079563 5.8162694 2.10207677
v 10.1120911 5.03253603 -0.683894932
v 3.59344149 9.16088772 3.79318953
v 2.91234422 9.09958553 4.04480219
v 4.20415783 7.08684921 5.05492496
v 4.74298382 7.44985962 4.8774128
v 4.97975445 7.00904846 5.35091686
v 4.97834206 7.08329344 5.56521654
v 8.58395481 4.6376214 1.69401145
v 7.43081427 5.19400501 3.32197714
v 6.56224489 5.38914967 6.02882242
v 6.06015539 5.92965031 6.46306419
v 10.2130375 4.0979743 -0.248783201
v 9.31546593 4.09646893 1.01108086
v 9.9546175 3.53266048 -1.30461502
v 10.1895418 3.72839284 -0.307270944
v 8.10534096 4.55493498 3.74525023
v 8.42520142 4.18495798 2.19287872
v 10.4633102 3.7911644 0.579470038
v 10.6000071 3.18597889 0.982267261
v 9.58330345 3.30051994 1.20623767
v 9.61780643 3.6211369 2.30135822
v 8.53054142 4.52640486 3.08266401
v 10.8246117 2.54168653 1.7503022
v 11.0956287 0.891448319 1.95172644
v 10.4747992 3.06192493 2.44789147
v 8.59678459 3.7174685 4.63880444
v 10.9593763 2.64717484 3.24457645
v 10.1373787 2.59812641 4.57944584
v 6.77552795 4.4146986 6.02374172
v 6.26038551 4.32233 6.48672771
v 6.86702824 5.07240486 6.14633894
v 7.76140738 4.54605675 4.78317738
v 7.89445257 4.45604801 3.83574462
v 11.281764 2.05682182 2.83268189
v 11.4687204 1.75736856 3.71478295
v 11.3331738 0.677767634 2.91795063
v 11.5374794 1.54037797 4.63994694
v 11.6675243 0.973419487 4.45111179
v 11.597455 0.668024719 5.10671234
v 11.51898 1.10120809 5.96415281
v 10.6693516 1.65725672 5.55795336
v 11.0542469 -0.10911002 3.08626461
v 10.8439426 1.24093306 6.63326693
v 7.72624207 3.15655732 7.53127098
v 8.99495316 2.18119693 8.09808064
v 10.9129438 -0.347263932 1.43880963
v 10.5033913 -1.35342085 1.85541618
v 10.8108654 -0.37642473 0.213089868
v 10.7207775 -1.08618653 1.11501753
v 10.6408672 -0.276296586 3.43187189
v 10.1790161 -1.42536032 2.18780828
v 10.2215662 -1.22450221 2.44400859
v 9.677701 -1.33723128 2.34541917
v 10.1024237 -0.817999125 3.24385238
v 9.44895649 -0.951158822 2.61379957
v 10.0312147 -0.660586774 3.22956967
v 8.88602161 -0.766619802 3.3635149
v 9.54911804 -0.778025091 3.35817814
v 10.5365868 -0.521722317 3.97679257
v 10.7991028 0.0183694884 4.84057903
v 9.30795956 -0.642169654 3.84894705
v 10.4588947 -0.446550667 4.8086381
v 10.3306646 0.272609621 6.9607749
v 8.7182579 -0.516310275 4.34884739
v 8.0686779 -0.213242352 6.15314341
v 7.51141024 -0.222182035 6.04484367
v 10.0785666 0.0873884931 6.31805897
v 9.99753952 0.296762824 7.65325546
v 9.89777946 -0.226562023 6.44008303
v 9.726161 -0.214829862 8.00405312
v 9.75580215 0.572057307 8.2285614
v 8.85462666 -0.145458236 8.08552551
v 8.88900089 1.21531618 8.55241966
v 9.50555229 1.31477308 8.83857441
v 9.2069664 1.66482937 8.56322002
v 8.82993031 1.92854834 8.39093685
v 8.5063076 2.56966972 8.36559391
v 7.54787111 2.17714381 8.31967449
v 8.17672729 1.44004416 8.79239464
v 7.46827507 1.015324 8.67691994
v 8.53693295 0.517904639 8.35770226
v 7.98204041 0.0326163247 6.94768953
v 7.87824774 2.7638278 8.35829544
v 7.45369816 3.1836009 8.14612484
v 6.02794123 1.56089187 7.99527454
v 7.21885252 3.06349063 8.24805641
v 6.69147062 2.97821164 8.15067101
v 7.40727758 3.32687426 7.73432589
v 7.03982401 3.23481417 7.9152379
v 5.80086517 3.88339472 7.50442839
v 5.08282709 3.54582095 7.29730225
v 4.94121265 2.63242292 7.25014877
v 6.08845758 4.17003059 6.36356258
v 6.01071215 4.65009165 6.47814703
v 5.42191982 4.88181114 7.19266844
v 5.14068651 4.07016468 7.12467766
v 5.90499258 5.60317755 6.59259129
v 5.09266663 5.31837273 6.84239721
v 4.08911085 5.12266207 6.23566341
v 4.32373381 4.40304089 6.57631922
v 4.48253965 6.09055042 6.43926048
v 5.35976124 3.87656355 6.94776249
v 5.23090363 3.85639691 7.1168704
v 4.43813515 5.12263155 6.39134979
v 4.73130035 3.77933073 6.66906118
v 4.30418682 3.15426302 6.85436869
v 4.63171577 3.4809947 6.56995153
v 4.57104158 4.01388073 6.49013615
v 4.29016685 4.64835215 6.28898716
v 3.98001385 5.90324068 6.18452883
v 4.35034466 5.20098257 5.98482943
v 3.07152271 5.56215906 5.85619593
v 4.15765524 5.81793499 5.7743783
v 3.98001385 6.68595552 5.8991785
v 4.10249758 6.79773283 5.46699142
v 2.4320972 7.11465979 5.38144588
v 2.45873833 6.42159367 5.5882678
v -0.105879158 6.4556694 5.85359955
v 1.67889857 7.25335026 5.36907101
v 2.36554313 7.05674076 5.15888214
v 1.51695466 7.91028547 4.70132303
v 1.85571373 8.68495369 4.27903795
v 2.00216913 8.91256046 3.15594864
v 1.49399531 8.03663349 4.98185396
v 1.02698803 7.95765448 4.69440031
v 0.863488674 8.34378147 4.49677563
v 0.861135244 8.3237915 4.83135509
v 2.46673274 8.65376663 2.24323606
v -0.990179718 7.70965481 5.15632248
v 2.03095675 8.53708363 3.42599607
v 2.06716919 8.73612309 3.07818413
v 0.582739711 8.10035706 2.96070433
v 0.537906229 8.56392193 2.45175195
v 2.4932785 8.77974224 1.8430624
v 2.15051532 8.71721077 1.81840384
v 1.07345998 8.58202553 1.86587095
v 2.47458816 8.83277607 1.70395136
v 1.97395778 10.0421333 1.47195828
v 1.48183608 9.9252367 1.23358119
v 1.67505336 9.15493679 1.79669547
v 1.90866816 9.03851986 1.25455213
v 1.05720246 9.00119972 0.850387633
v 0.509381652 9.85157108 1.53017759
v 1.51431572 10.2263165 1.39975333
v 1.71340394 9.34951782 0.850604832
v 2.00712037 10.0479097 1.15662658
v 0.451336324 9.11134338 1.2439307
v 0.222694129 8.46257877 1.43440688
v -0.167713314 8.71190739 1.09523547
v -0.277089328 8.53751659 1.72425592
v -0.656921208 8.92426682 1.23430312
v -0.712368667 8.39038277 1.70445824
v -1.71838403 7.81519079 2.00980735
v 0.159813702 8.41618061 2.61660814
v -0.342192501 7.95865726 2.45395899
v 0.381671429 8.05707359 2.54178596
v -0.906311452 7.77943039 2.51377034
v -1.50027645 7.74146032 3.22934389
v -1.3446275 7.36577749 2.55954075
v -1.44869459 7.67230272 3.94211292
v -1.28538215 7.55752468 5.14278507
v -1.48271477 7.00286913 5.4292407
v -1.86180341 7.17329025 4.75111723
v -2.04382157 7.14496374 3.89542818
v -1.31258881 6.43299055 5.7057848
v -2.01757956 6.98501682 5.0859437
v -1.85167992 6.44892645 3.99557185
v -1.99743867 6.7551012 3.5411725
v -3.10647249 6.98717642 4.24149513
v -3.50094175 6.62547636 3.43763614
v 0.455960542 6.24679327 5.84745359
v -1.35530114 5.82789087 6.30392313
v -0.071670033 4.66564798 7.06461763
v -0.452220559 4.44395494 6.3190093
v 2.14263678 5.07706165 6.91647911
v -1.7604531 6.39111614 5.66250658
v -1.9913069 6.25652075 4.03153419
v -1.76825845 5.62341404 4.82269716
v -1.46664727 5.20308161 5.47859955
v 2.75877309 6.16452551 6.04023361
v 2.7302742 4.95085335 6.52170515
v 2.32445407 4.72829866 6.88130474
v 2.02621603 4.93701935 6.88100243
v 3.01859975 3.86361051 6.19095039
v -2.27653599 5.76653433 5.12514639
v -2.11012077 5.50083923 5.25130796
v -2.58799148 5.83193588 5.33295107
v 3.9848454 4.47144175 6.47441435
v 3.82887554 4.94954872 6.25964689
v 4.13834572 4.74215317 6.05938053
v 4.29218149 3.75859022 5.88215733
v 3.71228695 3.73051596 6.42663479
v 4.31859159 3.56925106 6.27057314
v 4.15205193 3.61094618 6.71946907
v 3.74278712 3.36551023 6.56508732
v 2.84946609 3.53627062 6.21302986
v 3.15586114 3.31996298 6.3862524
v 2.92497969 4.1046381 6.4221344
v 3.17510724 2.91554761 6.33544779
v 2.84707761 3.38989615 6.81263638
v 2.99812984 3.18109584 6.92401409
v 2.7552743 3.59485507 6.90564013
v 2.03839707 3.60189772 6.95402288
v 3.02375937 2.59966803 7.62449217
v 1.01071131 2.22024655 8.06694889
v 2.69083977 2.14096832 7.481915
v 3.06474876 2.159549 6.46146107
v 3.34210229 2.05381393 6.51309299
v 1.56824064 3.92496991 7.582901
v 1.05968559 3.07053375 7.41900063
v 2.93764591 1.74968278 6.68501329
v 1.25591326 3.6259892 7.40200424
v 4.55755568 1.6621747 7.34061527
v 3.52054119 1.40762126 6.93587589
v 4.78107977 1.21112132 7.39915276
v 3.71903014 1.41953301 7.66747904
v 4.90101719 0.892909288 8.47822571
v 5.34176302 0.788175166 7.88540077
v 5.56354713 0.758709371 8.24138641
v 3.0578289 1.28011179 8.4025259
v 3.51684093 -0.0630732924 9.48601055
v 6.53429842 0.733642638 8.30592632
v 5.33257914 0.525279939 8.7958374
v 5.99219084 0.221768141 7.89267015
v 4.98415279 0.0891121626 9.18906212
v 5.29932594 -0.0873449221 8.42848492
v 6.56510735 0.197443411 7.74078846
v 4.74574184 -0.40106535 9.11065006
v 4.16919613 -0.321742445 8.10341263
v 6.60673428 -0.295398593 6.00789738
v 6.89409208 -0.142599061 6.84365892
v 3.47851992 -0.391450346 9.40508652
v 7.01610327 0.209631622 7.52857018
v 7.16355658 0.0277747959 6.71240234
v 7.08139133 0.0284487456 6.32391787
v 7.769526 0.676826835 8.35217953
v 5.802526 -0.462540239 4.94806671
v 5.14702463 -0.448655546 4.67093754
v 3.97784233 -0.485828847 4.35662174
v 0.211703181 -0.596599936 7.88258123
v 5.41590214 -0.572405934 4.20679474
v 2.29599738 -0.467850089 8.41600227
v 4.91705751 -0.673783958 3.27494264
v 4.70338249 -0.750292599 3.9578557
v 4.76381159 -0.381490916 3.10969138
v 4.5836606 -0.770275414 3.43143892
v 4.8650279 -0.293789268 4.47105551
v 4.08705425 -0.437094957 4.17376518
v 3.84193039 -1.18919146 4.25767374
v 3.03067446 -1.29089212 4.75339699
v 2.44709802 -0.389496565 4.31884289
v 1.79664361 -0.505998254 4.79196119
v 2.26711631 -0.430163532 4.01158333
v 1.68580651 -0.785472631 4.67610168
v 2.12943053 -0.966733158 3.95721555
v 2.78258729 -1.55320609 4.05058908
v 2.26750112 -1.33371854 3.36394596
v 1.59865594 -1.57312226 2.71576262
v 1.44703746 -1.37164474 2.58848238
v 0.817067266 -1.62081742 1.20995975
v 0.646955311 -0.939128458 1.99228287
v 0.560538828 -1.33759058 0.893678546
v 0.400297105 -1.46652412 0.907617331
v 0.257961243 -1.51018643 1.39835894
v 0.194450796 -1.40626252 1.90221381
v 0.0723826587 -1.26642585 1.66886282
v -1.16111755 -1.18845904 0.676954508
v -1.54400361 -1.09400022 1.75394833
v -0.612061083 -1.38771057 1.58866668
v -1.95141232 -1.07442582 0.409983248
v -1.41985881 -1.47005868 0.974089026
v -1.44620287 -0.984291136 1.57618582
v -2.12337017 -1.09728551 1.6207757
v -2.49872422 -1.40249646 -0.140269861
v -2.23015428 -0.881291568 1.36104906
v -2.85825562 -0.956393778 0.119154215
v -3.45311117 -0.859495163 -0.73800087
v -3.74921894 -0.867013454 1.08754504
v -2.58827877 -0.877863288 1.50820279
v -2.51786184 -1.05712092 1.8106842
v -2.27178574 -0.760652304 2.10533285
v -2.44077349 -0.997146487 2.52677464
v -4.14067936 -0.943328738 0.48832655
v -2.8651433 -1.19382203 1.59573758
v -2.40603948 -1.17773163 2.0920403
v -3.62529659 -1.13460588 3.25263309
v -1.24937487 -0.935934424 4.17095566
v -3.05458546 -1.31537485 2.0648241
v -1.23131227 -0.49704361 7.13941574
v -2.1929636 -1.0954448 5.3687458
v -3.07755232 -1.09572673 8.77543831
v -4.2217741 -1.13125658 2.82752943
v -4.11100197 -1.26225007 1.89121008
v -6.03994751 -1.06177199 3.21751451
v -4.68602562 -1.12164009 6.18972397
v -4.35617256 -0.788928151 1.56284297
v -6.87272978 -0.340355635 9.15696049
v -3.93242598 -0.583896995 0.982436419
v -6.51060104 -1.09949791 0.067679286
v -6.31193352 -0.842425883 6.54484177
v -8.47143555 -0.290787131 9.07015324
v -3.22124076 -1.03264916 9.10591316
v -7.36473846 -0.993045628 -0.0546612069
v -7.49966049 -0.882142544 5.46590614
v -8.30266762 -0.858627915 5.97191858
v -9.50290775 -0.623251498 7.40906668
v -8.05436993 -1.20281076 5.35359049
v -9.98871422 -0.871039391 6.92170477
v -9.71755695 -0.464229882 8.57209778
v -7.63055897 -0.917292595 5.24457836
v -7.75843 -1.3566885 2.90541935
v -8.16055584 -0.943942845 0.712769687
v -7.28449821 -1.14867854 1.35632813
v -9.31867504 -1.1902616 4.94313335
v -8.88611507 -1.34170234 4.4514432
v -9.44296932 -1.67863524 3.75382495
v -9.34810925 -1.62225783 3.08244967
v -9.28498173 -1.39451671 1.94121456
v -9.60283279 -1.33122694 4.20671034
v -9.69630241 -0.907964885 5.08192444
v -9.72996521 -0.61552763 4.09585094
v -10.2997723 0.916743934 7.93788815
v -9.41300011 -1.28527045 3.04472017
v -10.0414333 -0.259255946 7.1971035
v -10.0896235 -0.257936656 8.32949257
v -10.0050888 0.325230628 8.56813812
v -9.14791584 -0.12693356 9.05606079
v -9.65962791 -1.24869907 2.93623996
v -9.56782436 -0.957763493 3.00862288
v -9.57619572 -0.237752259 2.38597083
v -9.31567574 4.24439716 4.40471935
v -9.37005997 4.68172789 3.51055312
v -9.59015179 -1.67839563 2.38460851
v -9.42797184 -1.1641289 1.99009001
v -9.35050964 -0.477358907 1.7494483
v -9.35080433 -1.32382715 0.691056371
v -9.24424934 -0.881414115 0.944351256
v -9.3616457 0.641190708 -0.166680098
v -9.13793945 -0.76191169 0.21789667
v -8.67355824 -1.15492094 0.054976739
v -9.28716278 4.7177639 0.923644722
v -9.3211813 4.49767399 1.29729855
v -9.09351158 1.09076393 -1.7501539
v -8.77291203 1.81504631 -5.88972712
v -8.84391212 2.84793019 -3.88828492
v -8.61950684 4.63150454 -5.83128262
v -9.1104269 5.75615692 -0.85026288
v -8.52846718 1.5472604 -7.39952087
v -8.61319542 1.9386071 -5.94769764
v -8.71335411 -0.888774455 -1.09666705
v -8.07451439 -0.741301119 -1.4544816
v -9.11303806 -0.786772847 -0.359844953
v -9.11692524 -0.452857167 -0.698643565
v -8.78653526 -0.737437189 -1.49510372
v -9.29566669 -0.262565792 -0.730691969
v -9.21665764 -0.519328773 -1.1570524
v -9.24405861 0.135343581 -1.00009656
v -8.74772644 -0.318420321 -1.30519569
v -9.00673103 -0.0154817272 -1.86543608
v -8.43176746 -0.750411034 -2.342484
v -8.86760521 -0.380550116 -4.38845205
v -8.71091938 -0.894524038 -3.54294801
v -8.4829092 -0.816715121 -4.70083952
v -8.81501102 -0.375029206 -5.44891977
v -8.75844765 0.148788497 -6.01565361
v -8.68283081 0.315796703 -6.67224979
v -8.45794106 1.17862618 -7.33251286
v -7.67383051 0.911721349 -8.00997639
v -8.50919724 1.55630493 -8.42147541
v -8.32263851 -0.48829183 -8.11980629
v -7.97601652 -0.38700366 -8.61693382
v -8.22104836 0.83095783 -7.7367487
v -8.3794241 0.00504575484 -8.46913815
v -8.18325806 0.802185118 -8.0229969
v -6.66665888 -0.240904152 -8.80775738
v -7.71012545 0.709021151 -8.35492611
v -6.69664001 0.8438133 -8.22146511
v -6.10994673 0.44694823 -8.55430603
v -6.48444796 0.997708797 -8.60562134
v -6.03884268 1.93506038 -9.73633766
v -4.98212862 1.41968822 -9.49860668
v -4.33405161 0.995959282 -9.01694393
v -3.70703459 1.30802 -9.43471432
v -3.29233384 1.07751513 -9.26528645
v -2.69818783 1.65212679 -9.95516014
v -2.72572923 0.875624895 -9.32902527
v -3.03322983 1.15881348 -9.69789124
v -2.51856089 0.91828382 -9.55757523
v -2.73989439 1.54049921 -9.80276203
v -1.9834044 0.769706309 -9.47223759
v -1.4917599 0.912949324 -9.77818203
v -1.59979534 0.87618041 -9.35978889
v 0.416844994 0.889749229 -10.2060642
v -2.09210896 0.895756185 -9.173769
v -2.28046536 1.14206839 -9.30106831
v -2.22272158 1.61470151 -9.58069515
v -1.53126848 1.05735934 -10.0265713
v 0.28837803 0.365209997 -10.0562191
v -1.96298993 1.35749865 -9.75897598
v -2.39507866 1.79810345 -9.77619267
v -1.99760282 1.97018063 -10.0796261
v -1.90492535 1.7115823 -10.0233002
v -1.91191006 1.758003 -10.208559
v -0.988103032 2.24303126 -10.3925819
v -2.21355963 2.4995532 -10.2001162
v -2.57310748 3.36174917 -10.2523603
v -2.63028121 2.73142672 -10.274497
v -1.73834205 2.48051119 -10.335577
v -2.16311812 3.39708853 -10.3349876
v -1.18608081 2.93716478 -10.4667511
v 0.0579398088 1.64566767 -10.3724022
v -2.17307734 3.65190673 -10.1367283
v -2.51131463 3.66482377 -9.85043812
v -1.85658503 3.51623774 -9.77039433
v -1.20555651 3.29507589 -10.2356129
v -0.949944258 2.55160522 -9.98470497
v -0.732331395 2.63003898 -9.73690796
v -0.434834212 2.51583576 -10.1056194
v -0.0713990182 2.41841817 -10.1919041
v -0.193403721 2.08969808 -9.92936897
v 0.0374956802 1.85451365 -10.2208462
v 0.460953295 1.88469291 -10.0735016
v 0.603479803 1.39052474 -10.4118567
v 1.58983564 1.15085411 -10.2300653
v 1.32787824 0.416248888 -10.0637779
v 0.920188189 2.00725579 -10.3608828
v 0.955288053 0.409234375 -9.73111153
v 0.953636229 0.211887658 -9.90497971
v 2.11823511 0.442155689 -10.0018959
v 1.92507529 1.29369962 -10.3412647
v 3.11983323 0.957831562 -10.5849895
v 4.17150497 1.17335582 -10.9970531
v 4.72830629 0.98003912 -11.1404152
v 1.02492368 2.12650108 -10.3337727
v 0.881027818 3.35454392 -11.0884771
v 3.2873013 3.44524717 -11.9873276
v 2.2747519 4.48220778 -12.304636
v 3.13031936 5.26949596 -12.3135204
v 2.64522815 5.68520069 -12.2048044
v 2.9029572 5.94623423 -11.6402245
v 3.01097679 5.98173141 -11.0449734
v 3.83923268 6.58327866 -11.2338133
v 2.83181787 6.18814087 -11.1456957
v 4.25061798 6.59345818 -11.1248274
v 2.78015399 6.59871674 -11.2187109
v 2.97246218 7.20704222 -11.4293823
v 3.59259892 7.30096292 -11.4168358
v 2.72059393 6.26589823 -11.0291176
v 3.98157001 6.81392097 -10.650279
v 4.41069698 6.85208702 -10.9523067
v 4.0089798 7.0536499 -10.7968721
v 3.64647627 7.51428223 -10.7809334
v 4.28338575 7.70797968 -11.144599
v 4.36644554 6.97219944 -11.2441416
v 3.42542434 7.37530613 -11.3427715
v 4.24530315 7.4838562 -11.3323345
v 4.78874969 7.35833645 -11.4220991
v 3.61092186 7.78291082 -11.1825733
v 5.23949194 7.81442547 -11.8440285
v 4.59217548 7.58578348 -11.4033957
v 3.27684474 7.87840271 -11.3562555
v 5.46430397 8.39586449 -12.0265522
v 5.07966566 8.40404129 -11.56005
v 3.55728388 8.07758427 -11.5655775
v 3.84460926 8.73485947 -12.0018206
v 3.23596215 8.91602135 -11.4489317
v 5.99863768 9.17573071 -11.8909283
v 5.21415329 8.65919304 -11.7919807
v 5.10797453 8.89320946 -12.1650362
v 6.22652102 9.85369682 -11.8888283
v 3.67857361 9.29986954 -12.2185936
v 5.0819993 10.3597593 -12.0478859
v 5.18121862 9.97127438 -11.8013935
v 5.89783669 9.56390667 -11.5707216
v 5.90271854 10.3941746 -11.2019472
v 5.22639751 8.98082352 -11.3834124
v 5.61186504 9.87872505 -11.9117632
v 5.90734482 10.1323767 -11.6159401
v 5.20207977 10.4203749 -10.7994976
v 3.05173635 9.36084843 -11.6346216
v 3.11324883 9.91246605 -11.9222631
v 3.63568234 10.2205868 -12.3742542
v 2.96383548 9.03615952 -11.6390209
v 2.75201249 8.4593544 -11.4935493
v 3.9395473 11.3911963 -12.2630663
v 3.00175357 11.4683332 -10.9878855
v 2.74569035 8.34080887 -12.344018
v 2.84382963 7.88090515 -12.2832832
v 2.99905276 8.59070492 -12.3032112
v 2.49264216 8.81346989 -12.4595518
v 1.3895601 7.91272879 -12.7591476
v 2.83872128 7.42796993 -12.2856855
v 2.8508873 8.95149803 -12.3485546
v 2.66452265 7.12979984 -12.2075758
v 2.34098649 7.13195276 -12.4465952
v 0.517572761 6.2980876 -12.0582905
v 2.80332279 9.02242088 -12.6483326
v 3.14270449 9.3851347 -12.3178558
v 3.10782957 10.3151722 -12.5395737
v 0.394822687 10.72019 -13.048315
v 0.0845920444 8.60896683 -13.0271606
v -1.04284751 8.00937462 -12.4529219
v -0.14057748 6.98756027 -12.2524433
v -1.42408705 9.34193993 -12.9349957
v 1.74320185 5.30648232 -12.2607908
v 1.68167722 6.30348206 -12.4754553
v 1.41866517 4.9992156 -12.0172167
v 0.680259287 4.81730986 -11.8275623
v 0.791178584 4.56928444 -11.6926899
v 0.460807711 4.48308992 -11.3138208
v 0.140162319 4.57829285 -11.5364943
v -0.139775127 4.97931957 -11.2673168
v -1.02875841 5.07368612 -11.5573997
v -0.867434502 3.54938889 -10.7222395
v -0.717560947 5.09271383 -11.3115368
v -1.42012489 4.63423777 -11.0837545
v -0.216120869 5.92447758 -12.1533089
v -0.444562972 5.6542697 -11.8888502
v -0.41268906 6.40902996 -12.1758699
v -0.515299082 5.1772027 -11.8128119
v -0.195610389 6.58694696 -12.0812721
v 0.0558307059 6.58109665 -12.2789488
v -0.342626601 6.84334373 -12.1229391
v -1.09449244 7.67088127 -12.5508289
v -1.91352701 7.47139549 -12.3937855
v -1.40477014 8.51833153 -12.5017061
v -1.63651216 6.78723145 -12.1901064
v -1.7638607 6.72163296 -11.9202642
v -2.00227833 8.92762566 -12.0655298
v -2.10773897 8.66477108 -12.6470814
v -1.75166535 9.7891407 -12.7661057
v -1.44660652 5.4250946 -11.7756367
v -2.47802615 7.01021719 -12.278718
v -2.15650034 7.07695532 -11.9197035
v -2.36942625 7.55983925 -12.2149134
v -1.51605356 4.806036 -10.9615402
v -2.1173811 4.49038553 -10.507988
v -2.11376476 4.957623 -11.1652927
v -2.15371776 6.11221313 -11.9062347
v -2.51714134 4.96113539 -10.8074188
v -3.07769394 8.04314518 -11.8655262
v -2.30862856 8.66783142 -10.9722824
v -1.79106522 3.85547924 -10.5525084
v -1.60341239 3.64735103 -10.1546755
v -2.40160537 3.91107512 -9.74304676
v -2.03359914 4.18813324 -10.4621239
v -2.69809628 4.04956722 -9.90360832
v -2.52933192 4.23503733 -10.4185982
v -3.01796985 3.58771467 -10.2947216
v -3.51901841 4.36246777 -10.2620144
v -2.76881504 4.50095272 -10.3824415
v -3.67426467 4.53855276 -9.95721531
v -3.08514714 4.58351755 -10.1653261
v -3.15489912 5.73177004 -11.0706215
v -3.39853024 5.34476805 -10.7521706
v -4.89346218 6.14399958 -10.6619024
v -5.18466091 5.45380306 -10.1394348
v -4.51722431 5.22766161 -10.2269506
v -4.66082191 3.39401126 -10.2509251
v -3.25749159 6.38165092 -11.3881941
v -3.54819584 6.43505621 -11.5242367
v -2.66313815 6.57183886 -11.7871466
v -3.24850488 6.81412458 -11.1812439
v -3.51654315 6.94063997 -11.3230486
v -4.17097664 6.61192608 -11.1939764
v -2.65213561 7.47868395 -12.3446999
v -3.08443403 7.69694185 -11.3440704
v -3.147506 7.28282309 -10.4256201
v -4.74517059 6.72096539 -10.1562433
v -3.35945916 7.93928099 -10.634387
v -4.92939901 6.37727165 -10.1545954
v -5.19019032 6.46424294 -10.0374451
v -3.56841993 7.47371054 -10.756094
v -3.35505128 8.14926434 -10.3730135
v -4.29583311 7.96077108 -10.4923229
v -3.45846391 8.74541473 -10.2368755
v -3.08763623 8.40535831 -10.6777878
v -5.04641771 7.86054134 -10.2069054
v -6.83770132 7.46355534 -8.07455921
v -4.95316982 8.63045692 -10.0172729
v -5.98924923 6.83837271 -8.63894653
v -2.55303764 8.83570862 -10.7838392
v -4.07715273 9.11577702 -10.2180967
v -4.60812664 8.93312454 -10.3067417
v -4.29608345 9.52605915 -9.71905041
v -4.82158661 9.33300781 -9.74486732
v -5.44912338 6.54418993 -9.38446236
v -5.29496384 6.30804348 -10.3454304
v -5.7796092 5.73747063 -10.0882378
v -6.51413679 5.00425243 -9.3763361
v -6.31146002 4.91200924 -9.33126736
v -6.87145138 5.79713964 -8.83083534
v -6.32460785 6.70361185 -8.49909973
v -6.35734653 7.03456354 -8.17930603
v -6.53982592 6.96136761 -8.42982864
v -7.07344913 6.57300043 -8.18096924
v -7.45217276 7.61232328 -6.92341852
v -6.21820307 9.74670982 -7.95416594
v -6.92796326 6.14838934 -8.31100082
v -7.44737816 4.81825304 -8.17890644
v -6.7456851 4.65134096 -9.12493992
v -7.10461187 4.70264721 -9.07284737
v -4.29771852 10.0334291 -7.78214025
v -5.15468597 10.3731661 -5.86877251
v -3.87959623 10.1733389 -7.12823486
v -4.10311508 9.62574387 -9.70552635
v -3.44227719 9.27306843 -9.5360384
v -7.40664005 4.51320171 -8.92655563
v -7.25286961 9.94804096 -5.66605282
v -3.40365529 9.69129848 -9.02516937
v -3.40566349 8.95955944 -9.96251202
v -3.44135976 9.29749489 -10.1783056
v -2.5814867 10.7213373 -8.32940674
v -2.89378071 9.43898392 -11.2088575
v -3.05743718 9.82313442 -10.565711
v -2.19964743 8.84802437 -11.5603685
v -2.75835323 9.33333969 -11.7357283
v -1.99770868 9.55980206 -12.4737225
v -1.91660988 9.78357315 -12.0315781
v -0.40994966 10.7690058 -12.1402855
v 1.4847883 11.5542583 -11.9593077
v -1.46976852 11.037632 -9.06865501
v 1.61619127 11.3646507 -12.7125998
v 2.69719601 11.6589985 -12.1923971
v -0.240037724 11.5653639 -9.6578064
v 2.14224267 12.1019678 -11.5670872
v 0.288031787 13.2655172 -4.54023838
v -3.00748706 11.5759773 -4.44427013
v 1.52220118 13.1310596 -6.38228178
v 2.39225721 11.7538071 -12.00317
v 2.66907668 11.3120995 -11.9860229
v 3.00746584 10.6330347 -11.6609955
v 2.8068285 10.7263441 -11.4125471
v 2.49543428 11.8482494 -10.8701849
v 2.72422409 11.9544296 -10.4618311
v -3.1506772 11.0906467 -6.23626137
v 2.55325127 12.5776434 -10.6257038
v 2.59406233 12.8753414 -9.46234417
v 3.07668781 12.0697041 -10.8498812
v 3.53052402 12.4377632 -10.9196119
v 4.32277966 12.7392035 -11.9931517
v -3.15662408 10.1321898 -6.83206272
v -3.00205922 10.0123024 -5.227633
v 2.41669536 13.2521591 -7.60142851
v 4.86274481 12.7140198 -11.8669453
v -2.94876027 10.1725006 -5.01229715
v -4.37317753 10.4765196 -4.92351246
v -5.03273773 10.4186115 -4.30118847
v -3.83104229 10.2574978 -4.05860329
v 4.87174177 13.1311378 -11.4224253
v 5.03886938 12.1229506 -11.3642235
v 4.01963043 13.2528429 -11.0666084
v 5.11646557 11.765974 -10.9533653
v 2.64145541 13.2223167 -9.24385071
v 3.96335626 14.1819687 -8.25560379
v 4.80192184 13.6511593 -10.1725006
v 2.51605058 13.4045916 -8.37275887
v 2.94274569 13.9181213 -7.4030261
v 3.64296675 14.0701122 -7.14253426
v 2.76141286 13.8370848 -7.38769388
v 2.60250306 13.3316154 -7.25029182
v 2.33787084 13.209631 -6.70221043
v 4.94675636 13.3028069 -10.8931808
v 5.06693363 13.753087 -10.9647741
v 5.34434605 13.3336353 -11.5248194
v 5.10561562 13.0356836 -11.6293211
v 5.48602772 12.1282129 -11.554697
v 5.721663 11.7849817 -11.1985865
v 5.6584568 10.8858681 -11.0304871
v 6.25638723 11.6291981 -11.764039
v 5.37316418 13.0863886 -11.7943287
v 6.24058008 11.0756979 -11.8068085
v 6.28837633 13.2267389 -11.8367157
v 6.65194798 12.1340952 -11.7539167
v 6.53345394 11.0287991 -11.7864418
v 6.93680048 11.2897959 -11.5712376
v 7.39043188 11.9981098 -11.6680365
v 7.4698472 11.5286779 -11.6364574
v 7.68764925 12.8164015 -10.7363634
v 7.44583702 13.080946 -11.3651867
v 6.91720676 12.8651609 -11.4890575
v 6.7619257 13.7796259 -11.315443
v 7.98352098 10.9973011 -11.4600811
v 7.95898914 12.1347361 -10.6226854
v 7.93756819 12.6979876 -10.626524
v 7.67747116 13.5279675 -10.121912
v 6.97589159 13.9657326 -10.1431847
v 6.67661953 14.0993385 -10.0614996
v 6.2996335 14.5831566 -10.2568007
v 6.28462267 14.9262676 -9.2776947
v 5.24810696 15.5074606 -5.65491867
v 4.60518932 15.6457691 -4.14457035
v 3.20299029 14.5523701 -5.53293324
v 2.85402775 14.7572165 -3.81069779
v 3.14736056 15.2281342 -2.55694914
v 2.4943862 13.7741671 -4.7043972
v 3.40133548 15.6394215 -1.53130305
v 2.93507051 14.9774847 -2.48302388
v 2.571419 14.4304552 -2.69472003
v 2.9183588 15.2518768 -2.02301812
v 2.66933799 14.1303329 -3.71594501
v 2.81108952 14.4739609 -2.63663578
v 2.36199331 14.1022072 -4.71500683
v 2.60454512 12.9993916 -5.72065783
v 2.44629073 13.7440929 -5.60647249
v 4.0999527 15.7191095 -1.36552048
v 2.97283196 15.3696337 -1.18413568
v 2.60337782 14.2115211 -0.508633792
v 2.78967166 14.4051342 -1.34009981
v 4.55109262 15.2761059 -1.16154635
v 2.52488303 14.3726511 -1.96921813
v 3.60444307 14.2965279 -0.586555481
v 4.91981125 15.1130705 -0.591534555
v 3.72269392 14.5092783 -0.386191517
v 3.20496535 13.9854708 -0.389876783
v 2.49709535 12.9939928 0.130388722
v -0.0746380389 13.882246 -0.188338995
v 2.74861312 11.8777485 0.596023977
v 2.87223649 11.5697832 0.7738024
v 2.96510267 11.0591602 1.00389206
v 1.94121242 11.0738087 1.00285399
v 3.01338863 10.6822481 0.75153631
v -1.85102463 13.0124245 0.326018244
v 1.47947049 14.371727 -0.576696813
v 2.5486865 14.4964952 -0.679646075
v 2.332798 14.6073666 -1.27788329
v 2.12218451 14.3352556 -1.7585485
v 2.60139847 14.0833082 -2.35887671
v 1.98946762 14.4455757 -2.44270253
v 1.04029381 14.5103168 -1.5281955
v 0.0969457775 13.9296265 -1.15327644
v -3.08129692 12.5600977 -0.248171896
v -0.210888654 13.8149118 -1.85345185
v 2.17696834 13.6287737 -5.98057365
v 2.61137533 12.9526424 -6.45080423
v -2.7592907 12.4563055 -2.42325521
v -3.21981144 12.1575365 -2.19162989
v -2.49869704 9.42528439 -0.648611963
v -2.70590448 12.0979595 0.579799891
v -2.0101645 8.23010921 0.731040478
v -2.3041389 10.3755627 1.22649217
v -1.93551576 8.84000874 1.28433037
v -2.00509953 8.25593567 1.07625282
v -3.20564938 11.4650631 -4.00182533
v -1.61088312 6.8030529 1.92419875
v -2.85425997 10.2838087 -3.88836789
v -3.01494408 10.0613718 -3.66304779
v -2.84046435 9.89874268 -2.73139429
v -2.81742311 9.78698158 -2.35081244
v -4.01860237 9.61714458 -1.87313926
v -5.38281107 10.0449152 -2.44926882
v -1.36901259 6.98853397 2.22835016
v -2.85485506 10.0449848 -1.63417578
v -6.09761143 10.6238775 -3.13170886
v -7.31318474 10.5269918 -1.87643647
v -7.43164158 10.592906 -3.39264894
v -5.68976259 10.1314726 -1.65625846
v -8.61639881 10.2564611 -3.45917892
v -8.33615112 10.5515671 -1.62806332
v -7.81891727 10.3640547 -0.868955135
v -8.65786457 10.4895086 -2.40496039
v -8.98330879 10.3784618 -2.81289816
v -9.05076599 10.020649 -1.79244828
v -8.05206966 9.72771263 -5.45401096
v -8.6644783 9.50996971 -5.10504675
v -7.85488796 8.30986023 -5.71595192
v -8.53262711 9.11425781 -5.47933197
v -8.51046658 8.36367512 -5.6073184
v -8.45232677 7.82725859 -4.53743649
v -9.00136757 9.12189579 -1.68685758
v -8.3288393 7.85698938 -5.61711454
v -9.01416111 10.328886 -1.18833339
v -7.93152332 7.57031298 -5.65395451
v -8.97357655 10.187851 -0.299555957
v -8.56773567 7.79615831 -5.77543545
v -8.90312576 9.61001682 -0.317125887
v -7.93133593 7.68858624 -6.19927883
v -8.41984177 7.43016052 -6.89997768
v -8.65516281 6.8567028 -5.1654892
v -8.77141571 5.89350748 -4.0425086
v -8.29277802 5.9897809 -7.44211054
v -7.71991444 6.9733181 -7.52442837
v -8.38671398 6.74754381 -7.3122344
v -8.21916008 5.29866314 -7.47578478
v -8.26416588 5.32222652 -6.7983079
v -8.36255836 4.96211529 -6.25289917
v -8.25822449 5.12443209 -6.82905769
v -8.30096436 4.62932968 -8.57845783
v -7.77293158 4.60554981 -8.94051743
v -8.29360676 4.15550375 -8.51361084
v -7.57263088 4.62102604 -9.40125179
v -7.95194817 4.13095856 -9.94112206
v -8.20792484 3.3815484 -10.0659781
v -7.77792692 3.16993451 -10.309618
v -7.68511295 4.21375275 -9.81004333
v -6.90961552 4.93407726 -10.1996613
v -6.3771534 2.53588796 -10.1238956
v -6.35605574 4.8422246 -9.67264462
v -6.15976381 4.30307865 -10.2941761
v -7.32093811 3.09018207 -10.2124577
v -7.03687954 3.34037733 -10.3121653
v -5.88512945 4.02482653 -10.54037
v -7.31144094 4.30003023 -10.7423382
v -6.69809008 4.48117399 -10.7777367
v -5.90122175 4.3442564 -10.6231575
v -5.16218758 5.26850557 -10.547678
v -4.43135691 4.80190372 -10.4360752
v 2.5677042 13.3345833 -6.77244186
v 2.91534257 12.9594049 -6.45824528
v -2.13327909 6.86283684 3.31131124
v -2.06608248 6.37076473 2.57768822
v -2.78834462 6.17501593 2.57270741
v -3.14478564 7.1922636 2.08020282
v -1.83557129 6.24785519 2.28357625
v -1.69270229 6.48833847 2.05428004
v -2.18257952 6.04837465 1.92202067
v -1.60211027 5.86017799 1.32776976
v -1.79156506 6.69467449 0.306524158
v -3.40612531 7.88882446 1.47372973
v -5.01893568 8.64663792 2.97316957
v -3.67208695 7.0254283 3.4114666
v -2.34882283 8.7316618 -0.311681211
v -3.1479342 9.56763554 -0.473610669
v -4.0272212 9.71444702 0.649317563
v -4.09264469 9.11233234 0.936955571
v -4.36208773 10.2746325 -0.161989361
v -4.74549627 8.9175806 1.56837368
v -5.13612175 8.98456001 2.26553226
v -4.50694609 9.53281116 1.65891945
v -5.28679752 9.67569542 2.38232732
v -5.23238039 10.0760202 1.08050907
v -4.95769596 10.0900183 0.407303065
v -5.28106356 8.94494343 2.19097185
v -5.52279329 10.2135754 1.44520676
v -5.59771967 10.1861506 -0.635180295
v -5.83985519 9.78608227 2.75079012
v -5.78645754 9.78733444 0.347911
v -6.37178564 10.2749414 -0.273083091
v -7.06198978 9.54982853 0.810414076
v -7.12029886 9.55516243 1.73981321
v -7.55613708 9.7517786 1.23851967
v -5.81915712 9.30123043 2.59935594
v -6.3810668 10.0671015 2.08939338
v -6.39563847 9.66400719 2.64932346
v -7.53321409 9.61272907 2.38679099
v -8.66258621 9.73703671 0.47223419
v -8.80359364 9.37551594 1.12284279
v -9.00018311 9.28477859 2.45798159
v -8.98701763 9.09017086 0.737561762
v -8.90133953 8.38335037 2.64476538
v -7.28768253 9.46733475 3.21950793
v -8.76008224 9.30622005 2.72431493
v -8.89665127 7.79934931 -1.76394665
v -8.81580734 6.94882917 0.629873812
v -8.73553467 6.53540945 3.1052115
v -6.54747057 9.28288651 3.33112049
v -6.48685646 8.97452641 3.22188783
v -5.7660923 9.00606632 3.27641106
v -7.43786526 7.21153021 3.52659631
v -6.05198669 8.52236366 3.58174253
v -5.74306393 8.67841911 3.91510677
v -4.65676832 7.08540344 4.76170206
v -5.31736517 7.05208158 4.23465109
v -8.12471676 6.11324501 3.78733563
v -7.80439425 5.75965786 3.8163898
v -8.55621815 6.45932961 1.54702759
v -6.99299526 6.12767029 4.26033592
v -6.93739557 5.97909546 4.11164379
v -5.59620476 6.71556282 4.46119356
v -5.23421621 6.35603094 4.20913076
v -5.9365654 6.11513758 4.43634319
v -5.93114328 6.02783728 4.99936962
v -7.57300329 5.73648596 4.73083067
v -7.41176796 5.73376989 4.44434547
v -7.63619328 5.61541653 4.08189487
v -7.52208281 5.27786303 3.79559374
v -4.6846056 6.56867361 4.39135265
v -4.72340918 6.21193123 4.72077036
v -4.3664856 6.70950222 4.61716175
v -4.20289612 6.59022427 4.54372168
v -4.05115366 6.78524876 4.0256443
v -3.36603141 6.61935949 3.69073153
v -3.5199554 6.88585138 4.42468548
v -4.45641756 6.37412691 4.87684059
v -4.28537941 6.01690769 5.17487669
v -4.06711578 6.32254457 4.85742712
v -3.75511956 5.94180632 4.65204954
v -3.42057514 5.9886241 5.16202545
v -3.07513452 4.29091501 6.57663441
v -1.71574318 4.46920443 6.33987665
v -3.44170523 4.32238436 6.55027819
v -1.01683414 4.66158581 5.81301546
v -0.886051536 4.73819494 6.08371925
v -2.66132998 3.92720866 6.86078596
v -1.16829681 3.13004661 7.43378401
v -1.9037416 2.99394584 7.70793676
v -3.96648622 5.32980537 5.74378872
v -4.21196413 4.89591074 6.12127876
v -4.03889322 4.28463554 6.35854006
v -4.15255785 2.98920918 6.57910204
v -5.55143642 5.67889071 5.52005434
v -5.3155241 3.75835872 6.12093496
v -6.39035034 4.58519077 5.95250654
v -6.57776833 4.52456713 5.69500065
v -6.56518459 5.53310156 5.21461773
v -6.4463644 4.89027929 5.76719332
v -6.8668828 5.126966 5.20449352
v -7.3071599 4.98427868 5.0691328
v -6.82217979 4.58668518 5.82018805
v -6.82829046 4.79332066 5.08698463
v -4.96676588 3.25302839 6.84473944
v -7.73194647 5.38462639 4.64550877
v -5.97498894 4.11692953 6.20795155
v -5.35487461 2.63484526 7.49672508
v -4.28386402 2.62465978 7.42074251
v -6.21926975 3.74020529 6.36693335
v -6.7847724 3.1815002 6.26357937
v -5.96929693 2.4835732 7.2185812
v -9.39865017 4.77785444 4.11276102
v -8.03800297 5.52044249 3.1653192
v -9.20832253 5.07922649 2.90335941
v -8.79014492 4.94899845 2.01590872
v -8.15274715 5.74229336 2.58359909
v -9.19334698 5.03196335 1.48351562
v -8.31161404 5.49409294 2.44339514
v -8.49045944 5.81139708 2.27649379
v -8.5970211 5.58960438 1.44351768
v -8.16591167 5.15632057 1.5936892
v -9.13525963 5.70028925 1.2204926
v -9.09193802 5.59242296 -0.0113941329
v -8.8349371 6.86122894 -0.479137719
v -8.70928383 6.37067938 1.03755677
v -8.4735651 6.40804434 1.02968597
v -8.50546169 6.8213377 -0.433125138
v -8.67487431 7.16197777 -0.745588362
v -8.57435894 7.35553694 -1.20105815
v -8.85710716 7.36484241 -0.854723692
v -8.64010048 7.51278305 -1.61042345
v -8.90132999 7.23363495 -1.50782752
v -8.94812012 5.97512865 -2.51915359
v -9.03096008 6.51222038 -0.98597163
v -8.89508915 5.46743202 -3.23605156
v -8.28980923 4.85855961 -5.8234601
v -7.18263245 3.93937087 5.865839
v -7.18888855 3.35699606 6.14426947
v -8.97592735 2.84746385 5.30397701
v -8.45539188 3.71277332 6.25191498
v -9.57380009 2.70675468 5.01074743
v -9.97687244 2.68289423 7.33945847
v -8.2861681 3.09164786 6.62377071
v -8.22659397 2.25359106 7.61326838
v -6.7656908 2.19979668 7.53299665
v -9.53577614 3.67951584 6.53856564
v -10.2640524 1.82878244 8.31581306
v -6.76888514 2.29512 7.17676735
v -10.3423433 1.22925937 8.3768301
v -8.32989502 0.922239006 8.95543289
v -6.74149132 0.866673112 8.91005802
v -6.68692112 0.420020282 9.09969807
v -4.72346926 0.184617966 8.9690094
v -5.41814518 0.772809207 8.52480984
v -3.20027208 -0.424645305 9.19337845
v -5.26166534 1.03617692 8.61441994
v -4.79759836 0.576764047 8.94709396
v -4.12256718 0.768230498 8.5138092
v -5.54766417 1.45137203 8.23024654
v -4.40381002 0.406877577 8.79635334
v -3.70824385 0.311230183 8.78360081
v -2.17930984 0.334230185 9.00430393
v -4.57885122 1.58104491 7.92885685
v -4.24689341 0.656748652 8.80241394
v -4.12374973 0.34214735 8.53242207
v -1.80022514 -0.271113306 9.11387062
v -5.35906839 2.06183195 7.59050941
v -5.35618114 2.32183957 7.27945852
v -5.12199497 2.1176827 7.95850897
v -4.13568354 1.55773866 7.89547586
v -3.84007525 0.904160917 8.4859972
v -3.95083237 1.87273622 8.11733532
v -3.68106651 1.26113772 8.11518669
v -3.32572341 0.671305895 8.71039295
v -3.49176598 2.22801948 7.75060034
v -2.80589962 1.23469591 8.64742756
v -3.08014274 0.56457448 8.54104614
v -2.9492867 0.600165725 8.89252186
v -2.26550841 0.827580094 8.97064686
v -2.54315615 0.796801746 8.48986816
v -2.33319092 0.979404747 8.0461607
v -1.55105758 1.24655998 7.85234594
v -2.14684677 1.06678772 7.32591915
v -2.43932152 1.52529776 8.36782551
v -3.88228726 2.80114746 7.23578739
v -2.96887469 1.91423881 7.45000887
v -3.31916475 2.06495953 7.32149744
v -2.87630844 2.40162802 7.02086735
v -2.3655448 1.93310273 7.18441772
v -2.41529632 1.5748812 7.05642128
v -1.82941735 1.63095236 7.6341424
v -1.22041821 1.35720038 7.10059452
v -0.281774491 1.68125069 8.25126362
v -0.882832408 1.43070018 8.46657372
v -0.803255916 0.86932385 8.826684
v -1.34401059 1.25572312 8.50438309
v -1.02022576 0.451635897 9.19483948
v 0.250991076 0.237610653 9.30676174
v -1.86632395 0.242133588 9.34111309
v -0.727890074 0.0822542384 8.9341011
v -1.55841005 -0.470571727 9.06535053
v -1.50098443 -0.18474187 8.37281704
v -0.229984492 -0.306184471 9.09415245
v 0.0301095285 -0.417594075 8.1044054
v -0.539177716 -0.167212442 6.98148489
v 0.285577089 -0.174668074 9.45551014
v 0.559136152 0.599346042 8.97361565
v -0.233308449 -0.44634369 6.70351648
v 0.186416239 -0.668212593 7.02803993
v 0.429370463 -0.554699481 5.87227869
v 1.63901055 -0.604827464 9.30721188
v 0.787396371 -0.341638178 9.21761227
v 1.01048553 0.319886684 8.67042828
v 1.08509552 1.31319511 8.3150568
v 2.21674228 -0.36809364 9.67813969
v 1.33444667 -0.356624275 9.4642849
v 1.50680172 0.362421602 8.87967777
v 2.63915491 -0.32080707 9.38790703
v 1.83625877 -0.0588349141 9.61586761
v 1.4940536 0.804548681 9.05531883
v 1.33470273 0.675545633 8.44073391
v 1.38458431 1.0570339 8.61545658
v 1.81073904 1.2276963 8.66656494
v 1.79305875 1.41824782 8.21853542
v 0.953565598 1.85653281 7.8651557
v 0.331076533 1.99393904 6.54334593
v 0.568441391 2.15561557 6.53809738
v 0.363893688 3.42797852 6.97483635
v 0.0802546069 3.21630859 6.28598547
v 0.465827465 3.23772645 7.34431362
v 0.800921023 3.26821399 7.31157064
v -0.477203518 2.98120379 6.58561707
v -0.183329746 3.86177516 6.76528358
v -0.0517172851 2.56976891 6.29606056
v 0.192577586 3.81950736 6.84993505
v 0.580878258 3.73758912 7.64420223
v 0.769758761 3.5355196 7.51995945
v 1.11757469 3.68471813 7.7958765
g submesh0
f 1 2 3
f 4 2 1
f 5 2 4
f 3 6 1
f 2 6 3
f 7 6 2
f 6 7 1
f 2 5 8
f 8 7 2
f 9 4 1
f 1 7 10
f 1 10 9
f 11 10 7
f 11 12 10
f 12 9 10
f 12 11 13
f 12 13 9
f 4 9 14
f 14 9 13
f 4 14 15
f 15 16 4
f 14 17 15
f 17 14 13
f 5 4 18
f 4 16 19
f 18 4 19
f 11 7 20
f 20 21 11
f 21 20 22
f 23 11 21
f 24 20 7
f 24 7 8
f 20 24 25
f 20 25 22
f 24 8 26
f 26 25 24
f 27 26 8
f 5 27 8
f 26 27 25
f 5 28 27
f 28 5 18
f 27 29 25
f 28 29 27
f 30 22 25
f 29 30 25
f 30 31 22
f 32 30 29
f 33 21 22
f 22 31 33
f 33 31 34
f 34 21 33
f 35 34 31
f 35 31 30
f 35 36 34
f 34 36 21
f 35 30 37
f 37 36 35
f 38 28 18
f 39 38 18
f 18 19 39
f 38 40 28
f 39 40 38
f 28 41 29
f 40 41 28
f 41 42 29
f 40 42 41
f 42 32 29
f 32 42 43
f 32 43 44
f 32 44 30
f 40 45 42
f 43 42 45
f 40 39 46
f 40 46 45
f 44 47 30
f 44 43 47
f 47 48 30
f 43 49 47
f 47 49 48
f 48 50 30
f 30 50 37
f 43 51 49
f 48 49 51
f 45 52 43
f 46 53 45
f 53 52 45
f 54 43 52
f 43 54 51
f 52 53 55
f 52 55 54
f 56 55 53
f 53 46 57
f 56 53 58
f 58 53 57
f 57 59 58
f 59 56 58
f 59 60 56
f 60 61 56
f 61 62 56
f 62 63 56
f 63 55 56
f 63 64 55
f 62 64 63
f 65 57 46
f 57 65 59
f 46 39 65
f 66 59 65
f 66 65 67
f 65 39 67
f 19 67 39
f 67 19 68
f 66 67 68
f 19 16 68
f 69 55 64
f 69 54 55
f 54 69 70
f 70 69 64
f 54 70 51
f 71 66 68
f 71 68 16
f 70 72 51
f 64 73 70
f 70 73 72
f 51 72 74
f 48 51 74
f 72 73 75
f 75 74 72
f 76 74 75
f 48 74 77
f 74 76 77
f 78 75 73
f 78 76 75
f 79 76 78
f 64 80 73
f 78 73 80
f 81 48 77
f 48 81 50
f 81 82 50
f 83 50 82
f 37 50 83
f 37 83 84
f 36 37 84
f 83 82 85
f 83 85 84
f 86 36 84
f 21 36 86
f 84 85 87
f 87 85 82
f 86 84 88
f 84 87 88
f 86 89 21
f 89 86 88
f 88 90 89
f 89 90 91
f 89 91 21
f 23 21 91
f 23 91 92
f 90 92 91
f 93 92 90
f 92 93 94
f 23 92 11
f 92 95 11
f 94 95 92
f 96 11 95
f 96 13 11
f 95 97 96
f 97 13 96
f 94 98 95
f 97 95 98
f 13 97 99
f 13 99 17
f 98 100 97
f 100 99 97
f 98 94 101
f 100 98 101
f 102 100 101
f 101 94 102
f 100 102 103
f 103 99 100
f 104 17 99
f 104 15 17
f 102 94 105
f 103 102 105
f 104 99 106
f 99 103 106
f 107 15 104
f 106 107 104
f 106 108 107
f 109 106 103
f 105 109 103
f 109 108 106
f 94 110 105
f 110 94 93
f 105 111 109
f 108 109 111
f 105 110 111
f 111 110 112
f 111 112 108
f 113 112 110
f 110 93 113
f 114 15 107
f 107 108 114
f 114 115 15
f 108 112 116
f 112 113 116
f 114 108 117
f 117 108 116
f 117 116 118
f 117 119 114
f 116 120 118
f 120 116 121
f 113 121 116
f 115 114 122
f 119 122 114
f 123 113 93
f 124 113 123
f 121 113 124
f 124 123 125
f 121 124 125
f 123 93 126
f 127 126 93
f 127 93 90
f 90 126 127
f 90 123 126
f 121 125 128
f 121 128 120
f 129 123 90
f 90 88 129
f 125 123 130
f 128 125 130
f 88 131 129
f 87 131 88
f 123 129 132
f 133 129 131
f 133 132 129
f 134 123 132
f 130 123 135
f 135 123 134
f 136 134 132
f 136 132 133
f 133 137 136
f 136 138 134
f 134 138 135
f 136 137 138
f 133 131 139
f 139 137 133
f 131 140 139
f 140 141 139
f 141 142 139
f 139 142 137
f 143 140 131
f 143 131 87
f 87 144 143
f 144 140 143
f 87 82 144
f 138 145 135
f 137 146 138
f 146 145 138
f 145 147 135
f 135 147 130
f 142 148 137
f 142 149 148
f 150 146 137
f 148 150 137
f 151 149 142
f 151 142 141
f 152 149 151
f 151 141 152
f 149 152 153
f 149 153 154
f 154 153 155
f 154 155 156
f 156 157 154
f 148 149 158
f 150 148 159
f 148 158 159
f 160 150 159
f 159 158 160
f 149 161 158
f 149 154 161
f 158 161 160
f 154 162 161
f 160 161 162
f 163 160 162
f 164 162 154
f 164 154 157
f 164 163 162
f 165 150 160
f 150 165 146
f 163 166 160
f 160 166 165
f 165 166 163
f 146 165 167
f 146 167 145
f 157 168 164
f 168 163 164
f 163 168 169
f 165 163 170
f 170 167 165
f 163 169 170
f 170 171 167
f 169 171 170
f 167 172 145
f 167 171 172
f 173 145 172
f 173 172 171
f 173 147 145
f 171 174 173
f 171 169 174
f 173 174 147
f 147 174 175
f 175 174 169
f 176 169 168
f 157 176 168
f 147 175 177
f 177 130 147
f 169 178 175
f 176 178 169
f 179 175 178
f 177 175 179
f 176 180 178
f 178 180 179
f 176 181 180
f 181 176 157
f 177 182 130
f 130 182 128
f 182 183 128
f 183 182 184
f 177 184 182
f 177 179 185
f 184 177 185
f 179 180 186
f 180 181 186
f 187 128 183
f 120 128 187
f 185 188 184
f 189 188 185
f 189 190 188
f 185 179 191
f 179 186 191
f 191 189 185
f 192 189 191
f 191 186 193
f 191 193 192
f 193 186 194
f 181 194 186
f 193 194 192
f 195 194 181
f 195 192 194
f 157 195 181
f 195 157 196
f 157 156 196
f 197 195 196
f 192 195 197
f 156 198 196
f 198 197 196
f 155 198 156
f 155 197 198
f 199 189 192
f 192 200 199
f 197 200 192
f 200 197 155
f 201 199 200
f 200 155 202
f 200 202 201
f 201 203 199
f 204 203 201
f 199 203 204
f 202 155 205
f 206 205 155
f 206 155 153
f 205 206 207
f 205 208 202
f 208 205 207
f 153 209 206
f 206 209 207
f 201 210 204
f 202 211 201
f 210 201 211
f 212 211 202
f 202 208 213
f 212 202 213
f 214 213 208
f 208 207 214
f 212 213 214
f 210 211 215
f 215 211 212
f 210 215 216
f 207 217 214
f 217 207 218
f 207 209 218
f 214 217 219
f 219 212 214
f 217 218 219
f 219 218 220
f 218 209 221
f 220 218 221
f 222 221 209
f 153 222 209
f 220 221 223
f 223 221 222
f 224 222 153
f 153 152 224
f 223 222 225
f 223 225 220
f 226 222 224
f 226 225 222
f 224 152 227
f 227 226 224
f 226 227 152
f 152 141 226
f 226 228 225
f 228 226 141
f 220 225 229
f 228 229 225
f 230 219 220
f 229 231 220
f 220 231 230
f 230 231 232
f 232 233 230
f 230 233 219
f 232 231 234
f 231 229 234
f 219 233 212
f 229 235 234
f 229 228 235
f 235 232 234
f 233 236 212
f 232 236 233
f 212 236 215
f 141 237 228
f 235 228 237
f 238 237 141
f 238 235 237
f 238 141 140
f 235 238 239
f 232 235 239
f 140 239 238
f 236 240 215
f 241 215 240
f 240 242 241
f 242 240 243
f 240 236 243
f 216 215 241
f 232 244 236
f 236 244 243
f 245 244 232
f 243 244 245
f 239 246 232
f 246 245 232
f 247 241 242
f 241 247 216
f 247 242 248
f 248 216 247
f 242 249 248
f 216 248 249
f 216 249 250
f 216 250 251
f 210 216 251
f 210 251 252
f 204 210 252
f 251 250 253
f 251 253 252
f 253 250 254
f 250 255 254
f 204 252 256
f 257 204 256
f 256 252 257
f 253 257 252
f 257 199 204
f 253 258 257
f 254 258 253
f 199 257 258
f 258 259 199
f 258 254 259
f 260 259 254
f 199 259 261
f 199 261 189
f 262 254 255
f 262 263 254
f 260 254 263
f 262 255 264
f 263 262 264
f 259 265 261
f 259 260 266
f 265 259 266
f 267 266 260
f 268 265 266
f 268 267 269
f 266 270 268
f 270 266 267
f 267 268 270
f 268 271 265
f 261 265 271
f 269 271 268
f 272 189 261
f 271 273 261
f 273 272 261
f 189 272 274
f 190 189 274
f 272 275 274
f 275 190 274
f 272 273 275
f 275 188 190
f 275 273 276
f 188 275 276
f 277 276 273
f 271 278 273
f 277 273 278
f 271 279 278
f 271 269 279
f 269 280 279
f 278 279 281
f 278 281 277
f 281 279 280
f 188 276 282
f 276 277 282
f 280 269 283
f 269 284 283
f 284 269 285
f 285 269 267
f 285 267 284
f 284 267 286
f 267 260 286
f 284 287 283
f 286 287 284
f 260 288 286
f 287 286 289
f 286 288 289
f 287 289 290
f 288 290 289
f 290 291 287
f 288 260 292
f 292 260 263
f 293 283 287
f 291 293 287
f 288 294 290
f 292 294 288
f 290 294 295
f 296 294 292
f 295 294 296
f 296 292 295
f 297 292 263
f 295 292 297
f 297 263 264
f 283 293 298
f 299 293 291
f 299 298 293
f 283 298 300
f 283 300 280
f 300 301 280
f 299 291 302
f 299 302 298
f 303 298 302
f 300 298 304
f 303 304 298
f 300 304 305
f 305 301 300
f 306 301 305
f 305 304 307
f 307 304 303
f 307 308 305
f 305 308 306
f 307 303 308
f 308 309 306
f 308 310 309
f 308 303 310
f 301 311 280
f 280 311 312
f 311 301 312
f 280 312 281
f 303 302 313
f 303 314 310
f 314 303 313
f 313 302 315
f 315 302 291
f 301 316 312
f 281 312 317
f 316 317 312
f 316 301 318
f 301 306 318
f 281 317 319
f 320 319 317
f 281 319 277
f 317 316 321
f 318 321 316
f 322 317 321
f 322 320 317
f 323 321 318
f 322 321 323
f 318 306 324
f 318 324 323
f 319 325 277
f 325 326 277
f 277 326 282
f 319 320 327
f 328 325 319
f 327 328 319
f 329 328 327
f 330 325 328
f 330 328 329
f 330 329 331
f 332 325 330
f 325 332 326
f 327 320 333
f 327 333 329
f 320 334 333
f 330 331 335
f 335 332 330
f 335 331 336
f 335 336 337
f 335 337 332
f 338 337 336
f 339 332 337
f 337 338 339
f 326 332 339
f 336 339 338
f 340 326 339
f 340 282 326
f 341 339 336
f 340 339 341
f 341 342 340
f 341 343 342
f 343 340 342
f 340 344 282
f 343 344 340
f 282 344 188
f 345 336 331
f 346 336 345
f 345 331 346
f 346 347 336
f 336 347 348
f 341 336 348
f 347 349 348
f 341 348 349
f 347 350 349
f 350 341 349
f 344 343 351
f 343 341 352
f 343 352 351
f 352 341 353
f 354 353 341
f 354 341 350
f 355 188 344
f 344 351 356
f 344 356 355
f 357 188 355
f 188 357 184
f 358 357 355
f 184 357 358
f 355 356 358
f 358 183 184
f 352 359 351
f 351 360 356
f 359 360 351
f 358 356 361
f 358 361 362
f 183 358 362
f 363 361 356
f 356 360 363
f 361 363 362
f 360 364 363
f 364 362 363
f 359 365 360
f 365 364 360
f 364 366 362
f 366 183 362
f 183 366 367
f 365 368 364
f 368 366 364
f 369 365 359
f 365 369 368
f 368 370 366
f 370 367 366
f 369 371 368
f 368 371 370
f 369 372 371
f 373 371 372
f 374 373 372
f 375 372 369
f 369 359 375
f 372 375 374
f 359 376 375
f 359 352 376
f 375 376 352
f 375 352 353
f 374 375 353
f 353 373 374
f 377 367 370
f 377 370 378
f 371 378 370
f 367 377 379
f 377 378 379
f 380 378 371
f 379 378 381
f 378 380 381
f 382 379 381
f 383 381 380
f 381 383 382
f 384 383 380
f 371 384 380
f 385 367 379
f 385 379 382
f 382 383 386
f 384 386 383
f 373 387 371
f 384 371 388
f 387 388 371
f 389 367 385
f 385 390 389
f 391 367 389
f 183 367 391
f 183 391 187
f 120 187 391
f 391 389 392
f 390 392 389
f 391 392 120
f 390 120 392
f 385 393 390
f 382 393 385
f 394 120 390
f 394 118 120
f 390 395 394
f 396 118 394
f 396 394 395
f 395 118 396
f 397 395 390
f 393 397 390
f 398 118 395
f 397 398 395
f 397 393 399
f 398 397 399
f 398 400 118
f 400 117 118
f 399 401 398
f 400 398 401
f 399 393 402
f 401 399 402
f 382 403 393
f 393 403 402
f 401 402 404
f 400 401 404
f 405 404 402
f 403 405 402
f 382 406 403
f 406 382 386
f 400 404 407
f 404 405 407
f 405 408 407
f 409 400 407
f 407 408 409
f 400 409 117
f 410 405 403
f 403 406 410
f 406 386 411
f 406 411 410
f 405 410 412
f 408 405 412
f 412 410 413
f 413 410 411
f 408 412 413
f 414 411 386
f 411 414 413
f 415 408 413
f 414 415 413
f 416 415 414
f 414 386 417
f 417 416 414
f 384 417 386
f 418 417 384
f 418 416 417
f 384 388 418
f 419 418 388
f 418 419 416
f 419 388 420
f 421 419 420
f 388 387 420
f 419 422 416
f 422 419 421
f 416 422 423
f 422 421 423
f 415 416 424
f 416 423 424
f 415 424 425
f 415 425 408
f 420 387 426
f 420 426 421
f 426 387 427
f 421 426 427
f 421 428 423
f 421 429 428
f 427 429 421
f 429 430 428
f 427 387 431
f 431 387 373
f 429 427 432
f 427 431 432
f 432 430 429
f 433 432 431
f 430 432 433
f 433 431 373
f 434 430 433
f 428 430 434
f 428 434 435
f 436 433 373
f 436 434 433
f 373 437 436
f 373 353 437
f 353 438 437
f 436 437 439
f 437 438 439
f 438 353 440
f 353 354 440
f 441 438 440
f 441 439 438
f 442 439 441
f 443 439 442
f 354 444 440
f 441 440 444
f 354 350 444
f 436 439 445
f 445 439 443
f 446 434 436
f 445 446 436
f 441 447 442
f 447 441 444
f 445 443 448
f 445 448 446
f 434 446 449
f 449 435 434
f 450 446 448
f 450 449 446
f 443 451 448
f 448 451 450
f 443 442 452
f 443 452 451
f 453 447 444
f 442 447 454
f 454 447 453
f 442 454 455
f 456 455 454
f 454 453 456
f 457 453 444
f 457 456 453
f 350 457 444
f 458 457 350
f 458 456 457
f 458 350 347
f 459 456 458
f 458 347 459
f 456 460 455
f 460 456 459
f 459 461 460
f 462 461 459
f 463 459 347
f 462 459 463
f 463 347 464
f 462 463 464
f 464 347 346
f 465 464 346
f 346 466 465
f 331 466 346
f 467 462 464
f 461 462 467
f 464 468 467
f 468 464 465
f 468 465 469
f 468 470 467
f 467 470 461
f 468 469 470
f 331 471 466
f 471 331 329
f 472 461 470
f 470 469 472
f 466 473 465
f 473 466 474
f 466 471 474
f 475 465 473
f 474 475 473
f 474 476 475
f 471 329 477
f 471 478 474
f 471 477 478
f 474 479 476
f 479 474 478
f 329 480 477
f 480 329 333
f 481 480 333
f 481 477 480
f 481 482 477
f 477 482 483
f 478 477 483
f 334 481 333
f 483 484 478
f 483 482 484
f 478 484 485
f 478 485 479
f 482 486 485
f 486 482 487
f 484 488 485
f 484 482 488
f 485 488 482
f 482 481 489
f 481 334 489
f 487 482 489
f 334 487 489
f 479 485 490
f 486 490 485
f 490 491 479
f 476 479 491
f 492 491 490
f 492 490 486
f 492 493 491
f 476 491 493
f 493 492 494
f 492 486 494
f 493 495 476
f 493 494 495
f 494 496 495
f 497 476 495
f 495 498 497
f 496 498 495
f 499 476 497
f 498 499 497
f 475 476 499
f 499 498 475
f 465 475 498
f 465 498 500
f 496 500 498
f 500 469 465
f 500 501 469
f 500 502 501
f 500 496 502
f 503 469 501
f 503 504 469
f 469 504 472
f 472 504 505
f 472 505 461
f 506 504 503
f 504 506 505
f 503 501 507
f 503 507 506
f 461 505 508
f 505 506 509
f 508 505 509
f 506 507 510
f 510 509 506
f 507 501 511
f 511 510 507
f 510 511 512
f 511 513 512
f 461 508 514
f 508 515 514
f 514 515 516
f 517 516 515
f 461 514 460
f 514 518 460
f 518 514 516
f 508 509 519
f 508 519 515
f 520 509 510
f 510 512 520
f 521 519 509
f 519 521 515
f 520 521 509
f 522 515 521
f 523 460 518
f 455 460 523
f 523 518 524
f 523 524 455
f 524 518 525
f 518 516 526
f 525 518 526
f 526 516 525
f 524 527 455
f 524 525 527
f 520 528 521
f 529 522 521
f 521 528 529
f 529 528 522
f 528 520 530
f 522 528 530
f 512 530 520
f 531 455 527
f 531 532 455
f 442 455 532
f 442 532 533
f 532 531 533
f 452 442 533
f 452 533 531
f 531 534 452
f 452 534 451
f 534 531 535
f 527 535 531
f 534 536 451
f 534 535 536
f 536 450 451
f 450 536 537
f 537 449 450
f 536 538 537
f 449 537 538
f 535 538 536
f 435 449 538
f 527 539 535
f 540 538 535
f 535 539 540
f 541 539 527
f 541 527 525
f 538 542 435
f 540 542 538
f 540 539 543
f 541 543 539
f 540 543 544
f 540 544 542
f 541 545 543
f 545 544 543
f 541 525 546
f 541 546 545
f 544 547 542
f 545 547 544
f 548 547 545
f 549 547 548
f 550 542 547
f 550 547 549
f 550 551 542
f 542 551 435
f 552 546 525
f 516 552 525
f 545 546 553
f 548 545 553
f 549 554 550
f 550 554 551
f 552 555 546
f 553 546 555
f 551 556 435
f 554 557 551
f 557 556 551
f 556 558 435
f 556 557 558
f 435 558 428
f 554 559 557
f 559 554 549
f 557 559 558
f 558 559 560
f 558 561 428
f 561 558 560
f 562 428 561
f 560 562 561
f 563 559 549
f 563 560 559
f 563 564 560
f 562 565 428
f 565 423 428
f 566 562 560
f 562 567 565
f 562 566 567
f 566 560 568
f 560 564 568
f 568 569 566
f 567 566 569
f 565 570 423
f 567 570 565
f 568 564 571
f 571 569 568
f 572 569 571
f 572 573 569
f 567 569 573
f 567 574 570
f 567 573 574
f 575 571 564
f 571 575 572
f 570 576 423
f 570 574 577
f 570 577 576
f 578 574 573
f 577 574 578
f 579 423 576
f 424 423 579
f 425 424 579
f 425 579 576
f 425 576 577
f 425 577 408
f 409 408 577
f 577 578 409
f 580 578 573
f 409 578 580
f 572 580 573
f 117 409 580
f 581 580 572
f 582 581 572
f 583 582 572
f 117 580 584
f 584 580 581
f 583 572 585
f 572 575 585
f 117 584 586
f 581 587 584
f 586 584 587
f 588 117 586
f 117 588 119
f 588 586 589
f 588 589 119
f 587 589 586
f 119 589 122
f 581 590 587
f 590 581 582
f 591 587 590
f 587 591 589
f 590 582 591
f 592 122 589
f 591 592 589
f 592 591 582
f 592 115 122
f 582 593 592
f 592 593 115
f 593 582 594
f 594 582 595
f 582 583 595
f 596 594 595
f 593 594 596
f 595 597 596
f 597 595 583
f 597 598 596
f 596 598 593
f 593 599 115
f 598 599 593
f 600 115 599
f 599 598 600
f 600 601 115
f 601 15 115
f 602 600 598
f 602 601 600
f 598 597 602
f 603 15 601
f 602 603 601
f 15 603 16
f 602 604 603
f 16 603 605
f 605 603 604
f 606 16 605
f 71 16 606
f 607 606 605
f 607 71 606
f 604 607 605
f 66 71 607
f 602 608 604
f 597 608 602
f 609 607 604
f 608 609 604
f 607 610 66
f 609 610 607
f 611 609 608
f 612 610 609
f 611 612 609
f 610 613 66
f 614 610 612
f 614 613 610
f 612 611 615
f 615 614 612
f 614 615 616
f 616 615 611
f 66 613 617
f 617 59 66
f 613 614 618
f 616 618 614
f 617 613 619
f 613 618 619
f 59 617 620
f 619 620 617
f 621 620 619
f 59 620 60
f 622 619 618
f 619 622 621
f 618 616 623
f 622 618 623
f 616 611 624
f 623 616 624
f 611 625 624
f 608 625 611
f 626 620 621
f 620 626 60
f 627 621 622
f 627 622 623
f 628 623 624
f 625 628 624
f 629 628 625
f 630 625 608
f 625 630 629
f 630 608 597
f 631 627 623
f 628 631 623
f 627 631 621
f 597 632 630
f 630 632 633
f 633 629 630
f 632 634 633
f 629 633 634
f 631 628 635
f 628 629 635
f 621 631 636
f 631 635 636
f 629 637 635
f 629 638 637
f 638 629 634
f 639 635 637
f 639 636 635
f 638 634 640
f 621 636 641
f 639 641 636
f 641 626 621
f 639 626 641
f 626 639 60
f 60 639 642
f 642 639 637
f 638 643 637
f 643 638 640
f 643 640 644
f 634 645 640
f 634 632 645
f 642 646 60
f 646 61 60
f 643 647 637
f 643 648 647
f 644 649 643
f 643 649 648
f 649 650 648
f 650 649 651
f 649 652 651
f 644 652 649
f 648 653 647
f 653 637 647
f 650 653 648
f 650 637 653
f 654 642 637
f 654 637 650
f 642 655 646
f 654 656 642
f 642 656 655
f 651 657 650
f 650 658 654
f 657 658 650
f 659 654 658
f 658 657 659
f 654 660 656
f 660 654 659
f 656 661 655
f 656 660 661
f 659 657 662
f 657 651 663
f 662 657 663
f 662 663 664
f 651 664 663
f 665 664 651
f 662 666 659
f 666 660 659
f 662 664 666
f 667 665 651
f 651 668 667
f 668 665 667
f 665 668 669
f 668 651 652
f 652 669 668
f 670 669 652
f 644 670 652
f 670 644 669
f 666 671 660
f 666 664 672
f 666 672 671
f 673 672 664
f 673 664 674
f 675 673 674
f 660 671 676
f 660 676 661
f 671 677 676
f 677 671 672
f 677 661 676
f 677 672 678
f 678 661 677
f 672 673 678
f 661 678 679
f 679 655 661
f 673 680 678
f 679 678 680
f 680 673 681
f 680 681 682
f 679 680 682
f 683 655 679
f 679 682 683
f 683 646 655
f 684 681 673
f 673 685 684
f 684 686 681
f 684 687 686
f 684 688 687
f 685 673 675
f 688 684 689
f 689 684 690
f 688 689 691
f 688 692 687
f 691 692 688
f 646 683 693
f 694 646 693
f 61 646 694
f 683 695 693
f 682 695 683
f 696 693 695
f 682 696 695
f 694 693 697
f 693 696 697
f 698 696 682
f 681 698 682
f 699 696 698
f 697 696 699
f 699 698 700
f 681 700 698
f 699 700 701
f 701 700 681
f 699 701 697
f 681 702 701
f 697 701 702
f 681 686 702
f 694 697 703
f 702 703 697
f 703 702 686
f 694 703 61
f 686 704 703
f 704 686 687
f 703 705 61
f 705 703 704
f 705 706 61
f 706 705 704
f 62 61 706
f 706 704 707
f 687 707 704
f 62 706 707
f 707 687 708
f 707 708 62
f 708 687 709
f 62 708 709
f 710 709 687
f 687 692 710
f 692 711 710
f 692 691 711
f 691 712 711
f 62 709 713
f 64 62 713
f 713 714 64
f 64 714 80
f 709 710 715
f 710 711 715
f 709 716 713
f 714 713 716
f 717 709 715
f 715 711 717
f 717 716 709
f 80 714 718
f 80 718 78
f 719 714 716
f 717 719 716
f 719 718 714
f 711 720 717
f 719 717 720
f 712 720 711
f 718 721 78
f 718 719 721
f 719 720 721
f 78 721 79
f 721 720 79
f 712 722 720
f 720 722 79
f 723 722 712
f 723 79 722
f 79 723 724
f 79 724 725
f 76 79 725
f 725 724 726
f 727 76 725
f 727 725 726
f 724 723 728
f 724 728 726
f 727 729 76
f 76 729 77
f 726 730 727
f 727 731 729
f 727 730 731
f 730 726 732
f 726 728 732
f 732 731 730
f 729 733 77
f 733 729 731
f 77 733 734
f 734 733 735
f 77 734 81
f 734 736 81
f 737 733 731
f 733 737 735
f 731 738 737
f 731 732 738
f 737 738 735
f 738 732 739
f 739 732 728
f 736 734 740
f 734 735 740
f 736 741 81
f 82 81 741
f 735 738 742
f 739 742 738
f 728 743 739
f 744 742 739
f 739 743 744
f 745 735 742
f 745 742 744
f 735 745 746
f 744 746 745
f 746 740 735
f 740 746 747
f 744 748 746
f 743 748 744
f 743 749 748
f 728 750 743
f 749 743 750
f 723 750 728
f 748 751 746
f 746 751 747
f 752 751 748
f 748 749 752
f 751 752 753
f 747 751 753
f 740 747 754
f 740 754 736
f 755 752 749
f 752 755 753
f 749 756 755
f 755 757 753
f 755 756 757
f 757 758 753
f 759 747 753
f 753 758 759
f 759 760 747
f 758 760 759
f 761 747 760
f 761 754 747
f 760 758 762
f 762 761 760
f 763 761 762
f 761 763 764
f 754 761 764
f 765 764 763
f 765 754 764
f 763 762 765
f 766 754 765
f 754 766 736
f 765 767 766
f 768 736 766
f 767 768 766
f 769 765 762
f 765 769 767
f 770 736 768
f 770 741 736
f 770 771 741
f 771 770 768
f 741 771 82
f 772 771 768
f 82 771 772
f 772 768 767
f 144 82 772
f 772 767 773
f 767 769 773
f 774 144 772
f 773 774 772
f 144 774 140
f 140 774 775
f 775 774 773
f 239 140 775
f 775 776 239
f 776 246 239
f 776 775 246
f 245 246 775
f 775 773 245
f 777 773 769
f 245 773 777
f 778 777 769
f 778 769 762
f 245 777 779
f 245 779 243
f 779 777 780
f 777 778 780
f 781 243 779
f 779 780 781
f 243 781 242
f 781 780 782
f 783 781 782
f 242 781 784
f 781 783 784
f 242 784 785
f 242 785 249
f 784 786 785
f 784 783 786
f 787 249 785
f 249 787 250
f 783 788 786
f 782 788 783
f 788 782 789
f 788 789 790
f 790 785 788
f 788 791 786
f 785 791 788
f 786 791 785
f 792 250 787
f 792 787 785
f 792 793 250
f 250 793 255
f 792 785 794
f 793 792 794
f 795 785 790
f 795 794 785
f 794 795 796
f 794 797 793
f 255 793 797
f 798 795 790
f 798 790 789
f 797 794 799
f 794 796 799
f 800 255 797
f 800 797 799
f 795 798 801
f 795 801 796
f 800 802 255
f 255 802 264
f 803 800 799
f 796 803 799
f 802 800 803
f 798 804 801
f 798 789 804
f 264 802 805
f 264 805 297
f 803 806 802
f 796 806 803
f 802 806 805
f 796 801 807
f 807 801 804
f 796 807 808
f 806 796 808
f 807 804 809
f 809 808 807
f 297 805 810
f 811 805 806
f 810 805 811
f 812 806 808
f 811 806 812
f 813 297 810
f 813 295 297
f 808 809 814
f 812 808 814
f 814 815 812
f 816 812 815
f 812 816 811
f 811 817 810
f 810 817 813
f 818 813 817
f 816 819 811
f 817 811 819
f 819 820 817
f 820 819 816
f 821 817 820
f 816 821 820
f 821 818 817
f 816 822 821
f 822 816 815
f 818 821 822
f 809 823 814
f 824 814 823
f 825 815 814
f 814 824 825
f 826 823 809
f 804 826 809
f 826 804 827
f 789 827 804
f 815 825 828
f 825 824 829
f 825 829 828
f 827 830 826
f 831 827 789
f 827 831 830
f 832 826 830
f 832 830 833
f 833 830 831
f 834 833 831
f 834 831 835
f 831 789 835
f 832 836 826
f 833 836 832
f 836 823 826
f 835 789 837
f 837 789 782
f 837 838 835
f 834 835 838
f 837 782 838
f 838 839 834
f 836 833 840
f 840 833 834
f 823 836 841
f 840 841 836
f 842 823 841
f 841 840 842
f 840 843 842
f 842 824 823
f 840 834 844
f 840 844 843
f 845 844 834
f 846 834 839
f 845 834 846
f 847 843 844
f 844 845 847
f 848 838 782
f 849 839 838
f 849 838 848
f 849 848 839
f 848 782 850
f 851 848 850
f 780 850 782
f 852 850 780
f 850 852 851
f 852 780 778
f 853 852 778
f 851 852 853
f 854 853 778
f 762 854 778
f 853 854 855
f 855 851 853
f 856 854 762
f 854 856 855
f 856 762 857
f 858 855 856
f 858 851 855
f 857 859 856
f 857 762 758
f 859 857 758
f 851 860 848
f 848 860 839
f 858 861 851
f 860 851 861
f 862 860 861
f 862 861 863
f 856 862 863
f 861 858 863
f 856 863 858
f 839 860 864
f 862 864 860
f 839 864 865
f 846 839 865
f 865 864 846
f 846 864 866
f 864 862 866
f 866 845 846
f 862 845 866
f 862 867 845
f 862 868 867
f 867 869 845
f 867 868 869
f 847 845 869
f 856 870 862
f 868 862 870
f 871 870 856
f 871 868 870
f 872 847 869
f 873 869 868
f 872 869 873
f 874 847 872
f 847 874 843
f 875 871 856
f 871 875 876
f 871 877 868
f 876 877 871
f 868 877 878
f 868 878 873
f 877 876 878
f 856 879 875
f 879 856 859
f 880 879 859
f 881 875 879
f 881 879 880
f 881 882 875
f 882 876 875
f 880 883 881
f 882 881 883
f 878 884 873
f 885 873 884
f 872 873 885
f 886 880 859
f 887 886 859
f 887 859 758
f 758 757 887
f 887 757 886
f 886 757 756
f 888 886 756
f 886 889 880
f 889 886 888
f 888 756 890
f 749 890 756
f 891 889 888
f 891 880 889
f 890 891 888
f 890 749 892
f 893 890 892
f 749 750 892
f 893 892 750
f 891 894 880
f 880 894 883
f 890 895 891
f 893 895 890
f 896 894 891
f 896 883 894
f 891 895 896
f 883 896 897
f 882 883 897
f 895 898 896
f 896 898 897
f 898 899 897
f 899 898 900
f 895 901 898
f 895 893 901
f 900 898 901
f 902 893 750
f 750 723 902
f 882 897 903
f 904 897 899
f 904 903 897
f 905 882 903
f 905 876 882
f 906 905 903
f 876 905 906
f 907 903 904
f 907 906 903
f 904 899 908
f 908 907 904
f 876 906 909
f 909 878 876
f 910 878 909
f 906 910 909
f 910 884 878
f 911 906 907
f 906 911 910
f 908 912 907
f 912 911 907
f 913 910 911
f 910 913 884
f 914 908 899
f 908 914 912
f 915 912 914
f 915 914 899
f 911 912 916
f 913 911 916
f 916 912 915
f 884 913 917
f 918 913 916
f 913 918 917
f 917 918 919
f 884 917 920
f 919 920 917
f 885 884 920
f 915 921 916
f 921 918 916
f 921 915 922
f 921 922 923
f 921 923 918
f 915 924 922
f 919 925 920
f 885 920 925
f 926 918 923
f 918 926 919
f 927 926 923
f 927 928 926
f 919 926 928
f 927 923 929
f 923 922 929
f 928 927 929
f 924 915 930
f 930 915 931
f 899 931 915
f 932 931 899
f 930 931 932
f 932 899 900
f 932 933 930
f 933 932 934
f 932 900 934
f 933 935 930
f 924 930 936
f 935 936 930
f 924 937 922
f 937 924 936
f 937 938 922
f 937 936 938
f 939 938 936
f 939 922 938
f 922 939 940
f 922 940 941
f 929 922 941
f 935 942 936
f 942 939 936
f 943 942 935
f 942 943 939
f 944 943 935
f 944 935 933
f 943 944 945
f 933 945 944
f 941 946 929
f 947 946 941
f 946 947 948
f 928 929 946
f 946 949 928
f 946 948 949
f 950 928 949
f 950 919 928
f 945 951 943
f 945 933 951
f 947 941 952
f 941 940 952
f 948 953 949
f 949 953 950
f 919 950 954
f 954 925 919
f 955 954 950
f 955 925 954
f 950 953 955
f 955 953 956
f 957 925 955
f 885 925 957
f 955 956 958
f 955 958 957
f 957 959 885
f 872 885 959
f 957 958 960
f 960 959 957
f 959 961 872
f 874 872 961
f 962 959 960
f 961 959 962
f 962 874 961
f 962 960 958
f 963 874 962
f 958 963 962
f 843 874 963
f 964 843 963
f 958 965 963
f 956 965 958
f 963 965 964
f 966 843 964
f 843 966 842
f 967 842 966
f 967 966 964
f 824 842 967
f 956 968 965
f 968 964 965
f 964 968 969
f 969 968 970
f 956 970 968
f 956 971 970
f 969 970 972
f 967 964 973
f 969 973 964
f 974 824 967
f 973 974 967
f 974 975 824
f 824 975 829
f 974 976 975
f 976 974 973
f 976 829 975
f 973 977 976
f 969 977 973
f 829 976 978
f 978 976 977
f 979 971 956
f 956 953 979
f 980 977 969
f 977 980 978
f 980 969 981
f 981 978 980
f 829 978 982
f 828 829 982
f 983 982 978
f 983 978 981
f 984 828 982
f 983 984 982
f 953 985 979
f 948 985 953
f 979 985 986
f 985 948 986
f 987 981 969
f 969 972 987
f 988 828 984
f 828 988 815
f 986 989 979
f 979 989 971
f 948 990 986
f 990 948 991
f 991 948 947
f 992 986 990
f 989 986 992
f 991 992 990
f 993 988 984
f 988 994 815
f 993 994 988
f 993 984 995
f 995 984 983
f 815 994 996
f 822 815 996
f 997 995 983
f 995 997 998
f 995 998 999
f 995 999 993
f 997 983 981
f 1000 997 981
f 1000 981 987
f 998 997 1001
f 997 1000 1001
f 1002 998 1001
f 1002 1001 1003
f 1000 1003 1001
f 1003 1000 1004
f 1004 1000 987
f 1002 1003 1004
f 1005 1004 987
f 987 972 1005
f 999 1006 993
f 999 998 1007
f 1007 1006 999
f 1007 1008 1006
f 1006 1009 993
f 1006 1008 1009
f 1009 994 993
f 994 1009 1010
f 1008 1010 1009
f 994 1010 996
f 1011 996 1010
f 996 1011 822
f 822 1011 1012
f 822 1012 818
f 1013 1011 1010
f 1013 1012 1011
f 1010 1008 1014
f 1013 1010 1014
f 1012 1015 818
f 1012 1013 1015
f 1016 1013 1014
f 1016 1014 1008
f 1015 1013 1017
f 1017 1013 1016
f 818 1015 1018
f 1018 1015 1017
f 818 1018 1019
f 813 818 1019
f 1018 1017 1020
f 1020 1019 1018
f 1019 1021 813
f 295 813 1021
f 1020 1022 1019
f 1019 1022 1021
f 1017 1023 1020
f 1022 1020 1023
f 1016 1024 1017
f 1017 1024 1023
f 1025 1016 1008
f 1016 1025 1024
f 295 1021 1026
f 290 295 1026
f 1021 1027 1026
f 1026 1027 290
f 1021 1022 1027
f 291 290 1027
f 1028 291 1027
f 1027 1022 1028
f 1028 315 291
f 1029 1028 1022
f 1028 1029 315
f 1023 1029 1022
f 315 1029 313
f 1030 1023 1024
f 1030 1029 1023
f 313 1029 1030
f 1024 1025 1030
f 1031 313 1030
f 1031 1030 1025
f 314 313 1031
f 1031 1025 1032
f 1025 1008 1032
f 1032 1008 1007
f 314 1031 1033
f 1032 1033 1031
f 1033 1032 1007
f 310 314 1033
f 1007 998 1033
f 310 1033 1034
f 1034 1033 998
f 1035 310 1034
f 309 310 1035
f 1036 1034 998
f 1035 1034 1036
f 998 1002 1036
f 1035 1036 1037
f 1038 309 1035
f 1037 1038 1035
f 1036 1002 1039
f 1036 1039 1037
f 1040 309 1038
f 1037 1041 1038
f 1042 1041 1037
f 1041 1043 1038
f 1038 1043 1040
f 1037 1039 1044
f 1037 1044 1042
f 1041 1042 1045
f 1043 1041 1045
f 1044 1039 1046
f 1046 1042 1044
f 1047 1039 1002
f 1048 1046 1039
f 1039 1047 1048
f 1049 309 1040
f 1049 1040 1050
f 1050 1040 1043
f 1051 1050 1043
f 1051 1043 1052
f 1043 1045 1052
f 1053 309 1049
f 1053 1049 1050
f 1054 1052 1045
f 1054 1045 1042
f 1055 1050 1051
f 1053 1050 1055
f 309 1053 1056
f 309 1056 306
f 1057 1056 1053
f 1057 306 1056
f 1053 1055 1057
f 324 306 1057
f 1058 1057 1055
f 1057 1058 324
f 1055 1051 1058
f 1058 1059 324
f 1051 1059 1058
f 323 324 1059
f 1059 1051 1060
f 1060 1061 1059
f 1059 1061 323
f 323 1061 322
f 322 1061 1062
f 322 1062 1063
f 322 1063 320
f 1064 1062 1061
f 1061 1060 1064
f 1064 1063 1062
f 320 1063 1065
f 1065 334 320
f 334 1065 1063
f 1064 334 1063
f 334 1064 487
f 1060 487 1064
f 487 1060 1066
f 1066 486 487
f 1067 1060 1051
f 1068 1067 1051
f 1052 1068 1051
f 1054 1068 1052
f 1069 1067 1068
f 1054 1069 1068
f 1069 1054 1070
f 1070 1067 1069
f 1054 1071 1070
f 1042 1071 1054
f 1042 1072 1071
f 1070 1071 1072
f 1072 1042 1046
f 1070 1073 1067
f 1070 1072 1073
f 970 1072 1046
f 1073 1072 970
f 1046 1048 970
f 1074 1060 1067
f 1074 1067 1073
f 1060 1074 1075
f 1060 1075 1066
f 1074 1073 1076
f 1073 970 1076
f 1075 1074 1076
f 1048 972 970
f 1077 972 1048
f 972 1077 1005
f 1077 1048 1047
f 1078 1005 1077
f 1047 1078 1077
f 1005 1078 1004
f 1076 970 1079
f 1079 970 971
f 1080 1076 1079
f 1080 1075 1076
f 1079 971 1080
f 1075 1080 1081
f 1075 1081 1082
f 1082 1066 1075
f 1082 1081 1083
f 1083 1084 1082
f 1084 1066 1082
f 486 1066 1084
f 1085 486 1084
f 1083 1085 1084
f 1085 494 486
f 1085 1086 494
f 1085 1083 1086
f 1086 496 494
f 1086 1083 496
f 1080 971 1087
f 1081 1080 1087
f 496 1083 1088
f 1088 502 496
f 1087 971 1089
f 971 989 1089
f 1089 989 1090
f 1090 1087 1089
f 1090 989 992
f 1091 1090 992
f 1090 1091 1087
f 992 991 1091
f 1087 1092 1081
f 1092 1087 1091
f 1091 1093 1092
f 991 1094 1091
f 1091 1094 1093
f 1095 502 1088
f 501 502 1095
f 1092 1096 1081
f 1093 1096 1092
f 991 1097 1094
f 947 1097 991
f 1098 1094 1097
f 1099 1097 947
f 1097 1099 1098
f 1093 1094 1100
f 1094 1098 1100
f 1101 1099 947
f 947 952 1101
f 1099 1102 1098
f 1103 1100 1098
f 1098 1102 1103
f 1101 1104 1099
f 1099 1104 1102
f 1105 1104 1101
f 1104 1106 1102
f 1106 1104 1105
f 1101 952 1107
f 1108 1105 1101
f 1107 1108 1101
f 1107 952 1109
f 940 1109 952
f 1108 1107 1110
f 1105 1108 1110
f 1109 1110 1107
f 1111 1105 1110
f 1109 1111 1110
f 1112 1105 1111
f 1112 1113 1105
f 1113 1106 1105
f 1112 1111 1114
f 1111 1109 1114
f 1102 1106 1115
f 1106 1113 1115
f 1116 1114 1109
f 1109 940 1116
f 1117 1102 1115
f 1102 1117 1103
f 1114 1116 1118
f 1114 1118 1112
f 1119 1115 1113
f 1115 1119 1117
f 1120 1116 940
f 1120 1118 1116
f 1120 940 1121
f 1121 1118 1120
f 1118 1122 1112
f 1121 1122 1118
f 1112 1122 1123
f 1122 1124 1123
f 1125 1121 940
f 1125 940 939
f 1125 939 1124
f 1126 1122 1121
f 1125 1126 1121
f 1122 1126 1124
f 1125 1124 1126
f 1124 939 1127
f 1123 1124 1127
f 939 943 1127
f 1123 1127 1128
f 1127 943 1128
f 1128 1129 1123
f 943 1130 1128
f 1129 1128 1130
f 943 1131 1130
f 1129 1130 689
f 689 1130 1131
f 1132 1131 943
f 951 1132 943
f 689 1131 1133
f 1132 1133 1131
f 951 1134 1132
f 951 933 1134
f 1133 691 689
f 691 1133 712
f 1133 1132 1135
f 1135 1132 1134
f 1136 712 1133
f 1133 1135 1136
f 712 1136 1137
f 1137 1136 1135
f 723 712 1137
f 1138 1135 1134
f 1138 1137 1135
f 1139 1134 933
f 1138 1134 1139
f 1140 723 1137
f 1140 902 723
f 1139 933 1141
f 933 934 1141
f 1142 1141 934
f 1141 1142 1139
f 934 900 1142
f 1137 1138 1143
f 1137 1143 1140
f 1138 1144 1143
f 1143 1144 1140
f 902 1140 1145
f 1144 1145 1140
f 1146 1144 1138
f 1146 1138 1139
f 1145 1144 1146
f 1146 1139 1147
f 1142 1147 1139
f 1146 1147 1145
f 1142 1145 1147
f 902 1145 1148
f 1145 1142 1148
f 1148 1142 900
f 1148 893 902
f 1148 900 1149
f 900 901 1149
f 1150 893 1148
f 1150 901 893
f 1150 1149 901
f 1150 1148 1149
f 1151 1002 1004
f 1151 1004 1078
f 1002 1151 1152
f 1078 1152 1151
f 1047 1002 1152
f 1047 1152 1078
f 1153 511 501
f 513 511 1153
f 1154 1153 501
f 1153 1155 513
f 1154 1155 1153
f 513 1155 1156
f 501 1157 1154
f 1157 501 1095
f 1158 1157 1095
f 1158 1154 1157
f 1095 1088 1158
f 1154 1159 1155
f 1159 1154 1158
f 1159 1156 1155
f 1159 1158 1160
f 1158 1088 1160
f 1159 1160 1156
f 1088 1161 1160
f 1161 1156 1160
f 1156 1161 1162
f 1088 1083 1161
f 1156 1162 1163
f 1156 1163 1164
f 1164 513 1156
f 1083 1165 1161
f 1161 1165 1162
f 1165 1083 1081
f 1166 1165 1081
f 1165 1166 1162
f 1166 1081 1096
f 1166 1096 1167
f 1162 1166 1168
f 1167 1168 1166
f 1167 1096 1169
f 1169 1096 1093
f 1170 1162 1168
f 1170 1171 1162
f 1163 1162 1171
f 1170 1168 1172
f 1168 1167 1172
f 1172 1171 1170
f 1167 1173 1172
f 1171 1172 1173
f 1167 1169 1174
f 1174 1173 1167
f 1169 1093 1175
f 1175 1174 1169
f 1163 1171 1176
f 1171 1173 1176
f 1174 1177 1173
f 1177 1174 1175
f 1178 1175 1093
f 1178 1093 1100
f 1173 1179 1176
f 1177 1179 1173
f 1175 1178 1180
f 1180 1177 1175
f 1181 1178 1100
f 1180 1178 1181
f 1100 1103 1181
f 1180 1181 1182
f 1182 1181 1103
f 1177 1180 1183
f 1180 1182 1183
f 1182 1103 1184
f 1184 1103 1117
f 1179 1185 1176
f 1163 1176 1185
f 1179 1177 1186
f 1177 1183 1186
f 1187 1179 1186
f 1185 1179 1187
f 1183 1187 1186
f 1182 1188 1183
f 1188 1182 1184
f 1189 1184 1117
f 1119 1189 1117
f 1190 1184 1189
f 1189 1119 1190
f 1191 1184 1190
f 1191 1188 1184
f 1190 1119 1192
f 1192 1191 1190
f 1191 1192 1193
f 1192 1119 1113
f 1188 1194 1183
f 1183 1194 1187
f 1191 1195 1188
f 1193 1195 1191
f 1194 1188 1195
f 1193 1194 1195
f 1113 1196 1192
f 1196 1113 1112
f 1193 1192 1197
f 1196 1197 1192
f 1198 1193 1197
f 1187 1194 1199
f 1200 1194 1193
f 1199 1194 1200
f 1201 1187 1199
f 1201 1185 1187
f 1201 1163 1185
f 1200 1193 1202
f 1193 1198 1202
f 1200 1203 1199
f 1201 1199 1203
f 1202 1203 1200
f 1201 1204 1163
f 1204 1201 1203
f 1163 1204 1205
f 1163 1205 1164
f 1206 1204 1203
f 1203 1202 1206
f 1204 1206 1205
f 1202 1198 1207
f 1207 1198 1208
f 1208 1198 1209
f 1198 1197 1209
f 1202 1207 1210
f 1206 1202 1210
f 1207 1208 1211
f 1207 1211 1210
f 1206 1210 1212
f 1213 1206 1212
f 1205 1206 1213
f 1210 1214 1212
f 1214 1210 1211
f 1212 1214 1213
f 1215 1214 1211
f 1215 1213 1214
f 1215 1211 1216
f 1211 1217 1216
f 1217 1211 1208
f 1217 1218 1216
f 1208 1218 1217
f 1219 1216 1218
f 1218 1208 1219
f 1220 1205 1213
f 1215 1221 1213
f 1221 1220 1213
f 1205 1220 1222
f 1205 1222 1164
f 1223 1222 1220
f 1221 1223 1220
f 1222 1224 1164
f 1222 1223 1224
f 1164 1224 513
f 1224 1225 513
f 512 513 1225
f 1226 1225 1224
f 1224 1223 1226
f 1226 512 1225
f 1227 1223 1221
f 1226 1223 1227
f 1228 1227 1221
f 1221 1215 1228
f 1228 1229 1227
f 1226 1227 1229
f 1230 1229 1228
f 512 1226 1231
f 1226 1229 1231
f 1229 1230 1231
f 1231 1230 1228
f 512 1231 530
f 530 1231 1232
f 1231 1228 1232
f 530 1232 522
f 1232 1233 522
f 1234 1232 1228
f 1233 1235 522
f 522 1235 515
f 1235 1236 515
f 1235 1233 1236
f 515 1236 517
f 517 1236 1233
f 1232 1237 1233
f 1237 517 1233
f 1238 517 1237
f 1237 1232 1239
f 1239 1238 1237
f 1240 1234 1228
f 1240 1241 1234
f 1240 1228 1241
f 1234 1242 1232
f 1241 1242 1234
f 1242 1243 1232
f 1228 1244 1241
f 1244 1228 1215
f 1241 1245 1242
f 1243 1242 1245
f 1241 1244 1246
f 1241 1246 1245
f 1246 1247 1245
f 1244 1215 1248
f 1248 1246 1244
f 1215 1216 1248
f 1249 1246 1248
f 1249 1247 1246
f 1250 1249 1248
f 1216 1250 1248
f 1216 1251 1250
f 1251 1252 1247
f 1250 1253 1249
f 1251 1253 1250
f 1253 1247 1249
f 1247 1253 1251
f 1254 1245 1247
f 1254 1243 1245
f 1251 1216 1255
f 1255 1216 1219
f 1252 1256 1247
f 1256 1254 1247
f 1256 1257 1254
f 1258 1243 1254
f 1254 1257 1258
f 1259 1256 1252
f 1256 1259 1257
f 1260 1259 1252
f 1257 1259 1261
f 1260 1261 1259
f 1255 1262 1251
f 1255 1219 675
f 675 1262 1255
f 674 1251 1262
f 1251 674 1252
f 1262 675 674
f 1219 1263 675
f 1263 1219 1208
f 1263 1264 675
f 1264 685 675
f 1265 685 1264
f 1265 1264 1263
f 1208 1266 1263
f 1208 1209 1266
f 1267 685 1265
f 1267 684 685
f 1263 1268 1265
f 1263 1266 1268
f 1268 1267 1265
f 1266 1209 1269
f 1268 1266 1269
f 1268 1269 1270
f 1270 1271 1268
f 1268 1271 1267
f 1267 1271 1270
f 1272 684 1267
f 1270 1272 1267
f 684 1272 1273
f 1273 1272 1270
f 690 684 1273
f 1270 690 1273
f 1274 690 1270
f 1270 1275 1274
f 1269 1275 1270
f 1209 1276 1269
f 1275 1269 1276
f 1209 1197 1276
f 1197 1275 1276
f 1275 1197 1274
f 1197 1277 1274
f 1278 1277 1197
f 1274 1277 1278
f 1197 1196 1278
f 1279 1278 1196
f 1280 1274 1278
f 1280 1278 1279
f 1281 1279 1196
f 1112 1281 1196
f 1282 1279 1281
f 1112 1282 1281
f 1282 1280 1279
f 1112 1123 1282
f 1280 1282 1283
f 1280 1283 1274
f 1283 1282 1123
f 1284 1274 1283
f 1274 1284 690
f 1283 690 1284
f 1283 1123 1285
f 690 1283 1285
f 1285 1123 1129
f 689 690 1285
f 689 1286 1129
f 1285 1286 689
f 1129 1286 1285
f 1287 1252 674
f 1287 1288 1252
f 1260 1252 1288
f 674 1289 1287
f 1288 1287 1290
f 1290 1287 1289
f 674 1291 1289
f 1291 1290 1289
f 674 664 1291
f 1292 1291 664
f 665 1292 664
f 1293 1260 1288
f 1293 1288 1290
f 1290 1294 1293
f 1260 1293 1294
f 1294 1295 1260
f 1296 1290 1291
f 1292 1296 1291
f 1296 1294 1290
f 1296 1292 1294
f 1292 665 1297
f 1297 1294 1292
f 1295 1298 1260
f 1261 1260 1298
f 1298 1295 1261
f 1297 665 1299
f 1299 665 669
f 1299 669 1297
f 669 1300 1297
f 1294 1297 1300
f 644 1300 669
f 1300 1301 1294
f 1301 1295 1294
f 644 1302 1300
f 1302 1301 1300
f 644 640 1302
f 1302 640 1303
f 1301 1302 1304
f 1303 1304 1302
f 1303 640 1305
f 645 1305 640
f 1304 1306 1301
f 1303 1307 1304
f 1307 1306 1304
f 1308 1306 1307
f 1306 1308 1309
f 1301 1306 1309
f 1309 1295 1301
f 1310 1307 1303
f 1305 1310 1303
f 1311 1310 1305
f 645 1312 1305
f 1312 1311 1305
f 1309 1313 1295
f 1308 1313 1309
f 1310 1314 1307
f 1314 1308 1307
f 1314 1310 1315
f 1315 1310 1311
f 1308 1314 1315
f 645 1316 1312
f 1316 645 632
f 1295 1313 1317
f 1317 1261 1295
f 1317 1318 1261
f 1261 1318 1257
f 1317 1257 1318
f 1317 1319 1257
f 1319 1317 1313
f 1319 1258 1257
f 1320 1319 1313
f 1320 1313 1308
f 1315 1321 1308
f 1321 1315 1311
f 1322 1319 1320
f 1258 1319 1322
f 1323 1320 1308
f 1308 1321 1323
f 1320 1323 1322
f 1323 1321 1324
f 1311 1324 1321
f 1323 1324 1322
f 1258 1322 1325
f 1322 1324 1326
f 1326 1325 1322
f 1324 1311 1327
f 1326 1324 1327
f 1311 1328 1327
f 1312 1328 1311
f 1312 1329 1328
f 1327 1328 1330
f 1326 1327 1330
f 1329 1330 1328
f 1326 1330 1331
f 1330 1329 1331
f 1332 1331 1329
f 1332 1333 1331
f 1334 1326 1331
f 1326 1334 1325
f 1331 1333 1334
f 1335 1258 1325
f 1258 1335 1243
f 1336 1325 1334
f 1336 1334 1333
f 1325 1337 1335
f 1243 1335 1337
f 1336 1337 1325
f 1243 1337 1338
f 1336 1338 1337
f 1232 1243 1338
f 1339 1232 1338
f 1336 1339 1338
f 1239 1232 1339
f 1333 1340 1336
f 1340 1339 1336
f 1333 1341 1340
f 1340 1341 1339
f 1239 1339 1341
f 1333 1332 1341
f 1342 1239 1341
f 1341 1332 1342
f 1238 1239 1342
f 1332 1343 1342
f 1342 1343 1238
f 1343 1332 1344
f 1332 1345 1344
f 1344 1345 1343
f 1346 1345 1332
f 1346 1332 1329
f 1347 1345 1346
f 1346 1329 1347
f 1345 1348 1343
f 1348 1345 1347
f 1349 1347 1329
f 1349 1329 1312
f 1316 1349 1312
f 1347 1349 1350
f 1316 1351 1349
f 1351 1350 1349
f 1351 1316 1352
f 1351 1352 1350
f 1352 1316 632
f 1347 1353 1348
f 1350 1353 1347
f 1353 1350 1354
f 1352 1355 1350
f 1352 632 1355
f 1350 1355 1354
f 1356 1348 1353
f 1356 1353 1354
f 1343 1348 1357
f 1357 1348 1356
f 1358 1355 632
f 1355 1358 1359
f 1354 1355 1359
f 1358 632 1360
f 1359 1358 1360
f 632 597 1360
f 597 1359 1360
f 583 1359 597
f 1359 583 1354
f 1354 583 1361
f 1361 583 585
f 1362 1356 1354
f 1362 1354 1361
f 1363 1357 1356
f 1363 1356 1362
f 1364 1343 1357
f 1364 1357 1363
f 1365 1361 585
f 1366 1362 1361
f 1361 1365 1366
f 1367 1363 1362
f 1362 1366 1367
f 585 1368 1365
f 575 1368 585
f 1368 575 1365
f 1365 575 564
f 1366 1365 1369
f 1365 564 1369
f 1366 1369 1367
f 564 1370 1369
f 1367 1369 1370
f 563 1370 564
f 1367 1371 1363
f 1364 1363 1371
f 1370 1371 1367
f 1372 1371 1370
f 1372 1364 1371
f 1370 563 1373
f 1372 1370 1373
f 1373 563 1374
f 1374 1372 1373
f 1364 1372 1374
f 563 549 1374
f 1364 1374 1375
f 1375 1374 549
f 1364 1375 1343
f 548 1375 549
f 1343 1375 1376
f 1343 1376 1238
f 1375 548 1377
f 1376 1375 1377
f 548 1378 1377
f 1376 1377 1379
f 1379 1377 1378
f 548 1380 1378
f 553 1380 548
f 553 1381 1380
f 1380 1381 1378
f 1381 553 555
f 1238 1376 1382
f 1382 1383 1238
f 1383 517 1238
f 1384 1382 1376
f 1384 1376 1379
f 1383 1382 1384
f 1379 1383 1384
f 517 1383 1385
f 1385 1383 1379
f 1385 1379 1378
f 517 1385 516
f 1385 1378 1386
f 1386 516 1385
f 1381 1386 1378
f 1386 552 516
f 1381 555 1387
f 1386 1381 1387
f 1386 1388 552
f 1388 555 552
f 1387 1388 1386
f 1387 555 1388
