# rocking_chair_legs_col
v 0.282829821 -0.419706792 0.508255601
v 0.340458602 -0.39666453 0.572265148
v 0.285385787 -0.3966721 0.57370007
v 0.341090262 -0.329022735 0.696553707
v 0.340458602 -0.39666453 0.572265148
v 0.34040603 -0.373884678 0.56356591
v 0.341008216 -0.315713465 0.690245628
v -0.20016776 -0.315692723 0.691560864
v -0.200414881 -0.329029083 0.697878003
v 0.341090262 -0.329022735 0.696553707
v 0.285385787 -0.3966721 0.57370007
v -0.193637505 -0.404885709 0.551410615
v 0.282829821 -0.419706792 0.508255601
v 0.336515486 -0.459270805 0.3197034
v 0.34040603 -0.373884678 0.56356591
v 0.336667955 -0.43502748 0.317102224
v -0.249293551 -0.404887199 0.549949467
v -0.193637505 -0.404885709 0.551410615
v 0.282829821 -0.419706792 0.508255601
v -0.248701245 -0.329024106 0.696629465
v 0.276109874 -0.459286064 0.321230501
v -0.244717777 -0.462807328 0.278143167
v -0.244903058 -0.438470751 0.276612133
v -0.249260664 -0.381935805 0.541728735
v -0.224200085 -0.332472593 -0.27501139
v -0.23170428 -0.387334019 -0.106114306
v -0.248618156 -0.315683186 0.690304577
v -0.200414881 -0.329029083 0.697878003
v -0.20016776 -0.315692723 0.691560864
v 0.341008216 -0.315713465 0.690245628
v -0.248701245 -0.329024106 0.696629465
v -0.249260664 -0.381935805 0.541728735
v -0.248618156 -0.315683186 0.690304577
v -0.244903058 -0.438470751 0.276612133
v -0.24082756 -0.461495489 0.140407935
v -0.241076887 -0.437228918 0.142503679
v -0.23170428 -0.387334019 -0.106114306
v -0.231353223 -0.410612911 -0.113369137
v -0.223962009 -0.343925238 -0.280114383
v -0.224200085 -0.332472593 -0.27501139
v 0.31483233 -0.343925178 -0.280114472
v 0.31483233 -0.343925178 -0.280114472
v 0.322223544 -0.410612851 -0.113369212
v 0.315070421 -0.332472533 -0.27501151
v -0.24082756 -0.461495489 0.140407935
v 0.322574615 -0.387333989 -0.10611435
v 0.322223544 -0.410612851 -0.113369212
v 0.331460953 -0.434168607 0.132758304
v 0.330967009 -0.458342284 0.141970903
v -0.183979407 -0.462804198 0.279742509
v 0.336667955 -0.43502748 0.317102224
v 0.271600604 -0.458661914 0.137512863
v 0.330967009 -0.458342284 0.141970903
v -0.183979407 -0.462804198 0.279742509
v -0.244717777 -0.462807328 0.278143167
v 0.336515486 -0.459270805 0.3197034
v 0.276109874 -0.459286064 0.321230501
v 0.322574615 -0.387333989 -0.10611435
v 0.331460953 -0.434168607 0.132758304
v 0.322574615 -0.387333989 -0.10611435
v 0.341008216 -0.315713465 0.690245628
v 0.315070421 -0.332472533 -0.27501151
v -0.224200085 -0.332472593 -0.27501139
v -0.248618156 -0.315683186 0.690304577
v 0.341008216 -0.315713465 0.690245628
vn 0.0407304838 -0.964245141 0.261863172
vn 0.693804622 -0.666894197 0.271822035
vn 0.00401342707 -0.914097607 0.405474335
vn 0.585379481 -0.253677666 0.770050883
vn 0.693804622 -0.666894197 0.271822035
vn 0.999592245 0.0220548194 -0.0181375258
vn 0.786774814 0.276492178 0.551849067
vn -0.00619077962 0.841393709 0.540387094
vn -0.0125016235 -0.314888746 0.949046195
vn 0.585379481 -0.253677666 0.770050883
vn 0.00401342707 -0.914097607 0.405474335
vn -0.00686904183 -0.931225836 0.364378065
vn 0.0407304838 -0.964245141 0.261863172
vn 0.684197187 -0.726653278 0.0620430708
vn 0.999592245 0.0220548194 -0.0181375258
vn 0.999570668 0.01604807 -0.024513308
vn -0.684797406 -0.687615871 0.241323113
vn -0.00686904183 -0.931225836 0.364378065
vn 0.0407304838 -0.964245141 0.261863172
vn -0.588729978 -0.259783775 0.765447199
vn -0.000639473321 -0.990358293 0.138528198
vn -0.684353352 -0.726994812 0.0560261793
vn -0.999503732 0.0199320894 -0.0243948158
vn -0.999411821 0.0304230601 -0.0158246886
vn -0.775047004 0.250522435 -0.580121219
vn -0.999121845 0.0233610831 -0.0347811691
vn -0.788379133 0.285149813 0.54511261
vn -0.0125016235 -0.314888746 0.949046195
vn -0.00619077962 0.841393709 0.540387094
vn 0.786774814 0.276492178 0.551849067
vn -0.588729978 -0.259783775 0.765447199
vn -0.999411821 0.0304230601 -0.0158246886
vn -0.788379133 0.285149813 0.54511261
vn -0.999503732 0.0199320894 -0.0243948158
vn -0.682567298 -0.724601269 -0.0951571241
vn -0.999337256 0.0190842431 -0.0309980325
vn -0.999121845 0.0233610831 -0.0347811691
vn -0.681812465 -0.694137037 -0.230880007
vn -0.556537628 -0.309670508 -0.770954013
vn -0.775047004 0.250522435 -0.580121219
vn 0.556562245 -0.309599668 -0.770964622
vn 0.556562245 -0.309599668 -0.770964622
vn 0.681875408 -0.694276214 -0.230274931
vn 0.775122881 0.250058025 -0.580220222
vn -0.682567298 -0.724601269 -0.0951571241
vn 0.999123633 0.0233856831 -0.0347131751
vn 0.681875408 -0.694276214 -0.230274931
vn 0.999445498 0.00633695954 -0.0326869972
vn 0.682115555 -0.726116359 -0.0864491686
vn 0.000429234031 -0.998596966 0.052951213
vn 0.999570668 0.01604807 -0.024513308
vn 0.00797476713 -0.994763494 -0.101892367
vn 0.682115555 -0.726116359 -0.0864491686
vn 0.000429234031 -0.998596966 0.052951213
vn -0.684353352 -0.726994812 0.0560261793
vn 0.684197187 -0.726653278 0.0620430708
vn -0.000639473321 -0.990358293 0.138528198
vn 0.999123633 0.0233856831 -0.0347131751
vn 0.999445498 0.00633695954 -0.0326869972
vn 0.999123633 0.0233856831 -0.0347131751
vn 0.786774814 0.276492178 0.551849067
vn 2.58323507E-05 0.999849081 -0.0173748899
vn 2.58323507E-05 0.999849081 -0.0173748899
vn 2.58323507E-05 0.999849081 -0.0173748899
vn 2.58323507E-05 0.999849081 -0.0173748899
vt 0.895878911 0.453299642
vt 0.923506498 0.492038995
vt 0.896145821 0.491925925
vt 0.400295615 0.71549654
vt 0.477313042 0.711894274
vt 0.476910353 0.722184539
vt 0.400295466 0.72149545
vt 0.0177813396 0.00280856714
vt 0.0175836962 0.00880954135
vt 0 0
vt 0.00151481945 0.478033096
vt 0.0989771336 0.0611737072
vt 0.00370744942 0.51577574
vt 0.620111585 0.712527812
vt 0.856724381 0.48909533
vt 0.620338678 0.722818017
vt 0.929766178 0.476942122
vt 0.107572235 0.015561806
vt 0 0
vt 0.00808378961 0.0867621005
vt 0.00328826578 0.618567765
vt 0.931715369 0.323817611
vt 0.255641788 0.0219740476
vt 0.104363129 0.0221233107
vt 0.570305288 0.0276409034
vt 0.47161305 0.0258094035
vt 0.0138291791 0.0234537851
vt 0.00809795223 0.0621931031
vt 0.0137643768 0.0484251864
vt 0 0
vt 0.935737491 0.566979706
vt 0.940071106 0.47702834
vt 0.941738605 0.566844344
vt 0.942018509 0.323925912
vt 0.933377922 0.247994661
vt 0.94366169 0.248179838
vt 0.942458272 0.105058357
vt 0.932156563 0.105335541
vt 0.931893229 0.00702681299
vt 0.936688185 0.0072241975
vt 0 0
vt 0.960157037 0.715527415
vt 0 0
vt 0.959821284 0.720307887
vt 0.330757737 0.0906638801
vt 0.860802293 0.723197937
vt 0.861860812 0.712779403
vt 0.724177539 0.723083079
vt 0.717996478 0.713208497
vt 0 0
vt 0.856740892 0.347573787
vt 0.89534831 0.244804278
vt 0.925510287 0.248019665
vt 0.253975958 0.060297884
vt 0.253824174 0.0908266306
vt 0.925566554 0.34716782
vt 0.895258546 0.347095162
vt 0.859208345 0.109511316
vt 0.857890725 0.244973555
vt 0 0
vt 0.857366681 0.566140354
vt 0.959821284 0.720307887
vt 0.570305288 0.0276409034
vt 0.0138291791 0.0234537851
vt 0 0
g submesh0
f 1/1/1 2/2/2 3/3/3
f 4/4/4 3/3/3 5/5/5
f 6/6/6 4/4/4 5/5/5
f 4/4/4 6/6/6 7/7/7
f 7/7/7 8/8/8 9/9/9
f 7/7/7 9/9/9 10/10/10
f 11/11/11 10/10/10 9/9/9
f 11/11/11 9/9/9 12/12/12
f 12/12/12 13/13/13 11/11/11
f 5/5/5 13/13/13 14/14/14
f 15/15/15 5/5/5 14/14/14
f 15/15/15 14/14/14 16/16/16
f 9/9/9 17/17/17 18/18/18
f 12/12/12 17/17/17 19/19/19
f 9/9/9 20/20/20 17/17/17
f 21/21/21 19/19/19 17/17/17
f 21/21/21 17/17/17 22/22/22
f 23/23/23 22/22/22 17/17/17
f 23/23/23 17/17/17 24/24/24
f 25/25/25 23/23/23 24/24/24
f 26/26/26 23/23/23 25/25/25
f 25/25/25 24/24/24 27/27/27
f 27/27/27 20/20/20 28/28/28
f 27/27/27 28/28/28 29/29/29
f 30/30/30 27/27/27 29/29/29
f 31/31/31 32/32/32 17/17/17
f 32/32/32 31/31/31 33/33/33
f 34/34/34 35/35/35 22/22/22
f 35/35/35 34/34/34 36/36/36
f 36/36/36 23/23/23 37/37/37
f 38/38/38 35/35/35 36/36/36
f 38/38/38 36/36/36 37/37/37
f 39/39/39 38/38/38 37/37/37
f 39/39/39 37/37/37 40/40/40
f 41/41/41 38/38/38 39/39/39
f 42/42/42 39/39/39 40/40/40
f 41/41/41 43/43/43 38/38/38
f 42/42/42 40/40/40 44/44/44
f 43/43/43 45/45/45 38/38/38
f 46/46/46 42/42/42 44/44/44
f 42/42/42 46/46/46 47/47/47
f 48/48/48 47/47/47 46/46/46
f 47/47/47 48/48/48 49/49/49
f 48/48/48 14/14/14 49/49/49
f 49/49/49 14/14/14 50/50/50
f 48/48/48 51/51/51 14/14/14
f 43/43/43 52/52/52 45/45/45
f 53/53/53 50/50/50 52/52/52
f 43/43/43 53/53/53 52/52/52
f 52/52/52 54/54/54 45/45/45
f 45/45/45 54/54/54 55/55/55
f 21/21/21 55/55/55 54/54/54
f 54/54/54 56/56/56 21/21/21
f 56/56/56 13/13/13 57/57/57
f 58/58/58 51/51/51 59/59/59
f 15/15/15 51/51/51 60/60/60
f 61/61/61 15/15/15 60/60/60
f 60/60/60 44/44/44 61/61/61
f 62/62/62 63/63/63 64/64/64
f 62/62/62 64/64/64 65/65/65
