# rock_formation_mid_a_COL
v 0.299560547 0.0607913397 2.86433291
v 0.774130821 -0.0561108962 3.08072805
v 0.747451127 0.00468223542 2.58996511
v 0.142304689 -0.0174659528 2.77621341
v 0.532685518 0.0378778651 2.30207205
v 0.695869148 0.0429915786 2.07697344
v 1.68182611 0.403897315 2.2269628
v 1.02083981 -0.0667871833 3.01412416
v 1.57714844 0.28143999 2.79308033
v 0.0231445301 0.0716763511 2.39373589
v -0.42991209 0.187757775 2.05063009
v -0.39084959 0.132304549 2.4649291
v 0.355332017 -0.115326606 3.16558027
v -0.040439453 -0.0189890862 2.96877551
v 0.749091804 -0.411275536 3.59524536
v 0.880683601 0.0403991118 3.17572737
v 1.89459956 -0.411275536 3.59981132
v -1.05077147 -0.411275536 3.17637801
v -0.416728497 0.0121335788 2.70056701
v 1.88846672 -0.153032809 2.78802299
v -0.675244153 0.230940834 2.37520266
v -0.703193367 0.368309855 1.89090872
v -0.0911816359 0.448855817 2.13650656
v -1.03021479 -0.170427114 2.99057603
v -2.50337887 -0.411275536 2.73285508
v 0.0148828123 0.607225299 1.74557304
v 0.660732388 -0.000611686672 1.82307851
v 0.709550738 -0.167996913 1.98272824
v 0.872011721 -0.0503354818 1.76703644
v 1.27341795 -0.208674461 1.94515347
v 2.07864261 -0.185216263 2.07298946
v 2.03948236 -0.237386778 2.31192064
v -1.5945214 0.0888637155 2.53122187
v -1.42458975 0.11491964 2.21064448
v -2.34507799 0.157643676 2.28171754
v -1.69552732 0.261305779 2.01883936
v 2.2383399 -0.164484441 2.60064936
v 2.13535142 -0.0649630278 2.3686657
v 2.14855456 -0.224610642 3.16502309
v 3.00217772 -0.411275536 2.50338006
v 2.52277327 -0.178478688 2.56944823
v 2.29559565 -0.108200669 2.2464745
v 2.23735356 -0.0683421493 1.94023001
v 2.40970707 -0.120862722 2.1077292
v 2.75047851 -0.060727004 1.807073
v 2.72176743 -0.108332925 2.18689275
v 2.80083966 0.131531432 1.83992553
v 3.26756835 -0.411275536 1.97284544
v 3.38657212 -0.135272324 0.834620655
v 2.84034181 -0.0264889132 1.1476022
v 2.51078129 -0.0589755811 1.59969389
v 2.59148431 -0.120420769 1.11632383
v 1.97335935 -0.0799238384 1.98719788
v 1.53899407 -0.26193276 1.86370087
v 2.17011714 -0.150738329 1.47891593
v 1.69220698 -0.0971697718 1.31486106
v 2.0818944 -0.086934872 1.37877679
v 1.73988283 -0.137691632 1.66176414
v 1.46516597 -0.0498516448 1.33958459
v 1.25558591 -0.262467027 1.82146299
v 1.27382815 -0.104028709 1.58330655
v 1.13411129 -0.179752186 1.81069946
v 1.88317382 -0.128862917 0.988920867
v 1.24560547 -0.0489458255 1.68370879
v 0.813876927 0.0524348803 1.39056885
v 1.25123048 -0.0644381419 1.28550386
v 1.15027344 -0.0573487096 1.07721651
v 1.28675783 0.0721827671 0.805041492
v 0.611835897 0.102925621 1.06716001
v 0.518456995 0.142230853 1.40651238
v 0.475654274 0.447652489 0.909754634
v 1.33524406 0.343961567 0.858724356
v 0.442011714 0.277536094 1.07007408
v 0.405273438 0.0639110357 1.58853579
v 0.149960935 0.134026662 1.65936422
v 0.218183592 0.306714475 1.53494656
v -0.0144921867 0.309261233 1.42482328
v -0.0986621082 0.466449052 1.19613314
v 0.44576171 1.13975739 1.09809995
v 0.174101561 1.55024672 0.265383601
v -0.128085941 1.26350141 1.12937319
v -0.171826169 1.20395839 1.24026453
v -0.738876939 1.77074122 1.11159122
v -0.140585929 1.53036749 0.891352236
v -0.420908183 1.71044981 0.331543267
v -0.288281232 0.726810277 1.67405641
v -0.926728487 0.860360682 1.95365715
v -0.977607429 0.66328609 1.8961215
v -0.960263669 0.844975233 1.79456174
v -1.80238283 1.14769852 1.94567406
v -0.846513629 1.32947505 1.72397304
v -1.78570306 0.480024189 1.89629054
v -2.22505856 0.35977453 1.73856747
v -1.87209952 0.74064678 1.91488123
v -1.98546875 0.600509882 1.75247312
v -0.0974218696 0.986765742 1.84278226
v 0.00937499944 0.971046329 1.65987945
v -0.91340816 1.15437126 1.43720734
v -0.892265618 1.32422864 1.12736142
v -2.30836916 0.27703023 1.87323725
v -2.09484363 0.802020609 1.77211237
v -0.77149415 1.75931406 1.22247124
v -1.19464839 1.9873445 1.56526637
v -1.01958978 1.97265041 1.18911409
v -1.33094728 2.03422213 1.0975982
v -1.40899408 1.54327011 1.64563894
v -2.17451167 1.12469089 1.89464688
v -2.05368161 1.43558466 1.69683218
v -2.62006831 0.767899632 1.42438662
v -2.17989254 0.67444855 1.50542474
v -2.31866217 1.66637862 1.69696653
v -2.69721675 0.444914699 1.44237149
v -2.34001946 2.2356298 1.4350332
v -2.29661131 2.2795136 1.20159483
v -2.40632796 2.07462358 1.56972504
v -2.61187506 2.12579179 1.34230649
v -2.51845694 1.57464457 1.01051843
v -2.67001939 1.77678025 1.46600914
v -2.70433593 1.54858363 1.49227297
v -2.80054688 1.09021103 1.721246
v -2.74119139 1.44953763 1.27246642
v -2.7362597 1.13585246 0.973482013
v -2.72072268 0.830559611 0.939867854
v -1.60655272 1.98460197 1.1678009
v -2.77957034 1.0176059 0.645654917
v -2.81902337 1.48979259 0.594008148
v -2.64508772 0.51672399 -0.106663205
v -2.51399398 0.40885359 1.24556613
v -3.03912091 0.321209639 1.24231386
v -3.35911131 0.071206972 1.89250576
v -3.44552732 0.269538254 0.961592972
v -2.70119143 0.368135989 0.727919579
v -2.70343733 0.392147452 0.997799337
v -2.93832994 0.227406323 1.87461662
v -2.62739253 0.150075391 2.08376002
v -3.02013659 -0.0143148229 2.33320975
v -2.79824209 0.0799332038 2.35289669
v -3.52970695 -0.411275536 2.28471613
v -3.86128902 -0.0842313543 2.02295899
v -4.17433596 -0.411275536 1.93808651
v -3.78996086 0.0383756049 1.774786
v -3.02512693 0.296835035 0.481596678
v -3.45159173 0.133630693 0.624819636
v -2.68017578 0.219942719 0.0972479209
v -3.19859362 0.270032555 0.353511035
v -3.18665028 0.210743427 0.426945478
v -3.40823245 0.171332493 0.42818144
v -3.85419917 0.0579164289 0.461650074
v -3.64484358 0.272031963 0.730697632
v -2.69303703 0.224008039 -0.209903553
v -4.02259779 0.222574472 0.854570925
v -4.33899403 -0.116356269 1.00878048
v -4.07637691 -0.00966012944 0.363117069
v -4.37185526 -0.411275536 -0.241879568
v -3.91580081 -0.0699746683 -0.261173993
v -4.55302715 -0.411275536 1.33377838
v -4.19894505 -0.411275238 -0.827749789
v -3.50263667 -0.0120798489 -0.858085632
v -3.91981435 0.311039895 1.16142297
v -4.36191416 0.0038913344 1.27346551
v -4.2461915 0.630665481 1.80055869
v -3.71573234 0.0235522836 -0.402988583
v -3.31806636 0.00456996914 -0.432121873
v -2.502285 0.20783022 -0.239891663
v -3.02114248 -0.0439019576 -0.696036994
v -2.75226545 0.160719424 -0.766579568
v -2.65524411 -0.0305817984 -0.837993324
v -3.07140613 -0.0079764938 -1.04557598
v -2.53201175 0.165084019 -0.879668713
v -2.80307603 0.871818364 -0.362635642
v -2.56614256 0.915824473 -0.586685598
v -2.8711133 1.35674334 -0.292903125
v -1.61441398 1.05558324 -0.425806731
v -2.9029882 1.95949388 -0.182490543
v -0.907460928 1.17307127 -0.460121453
v -2.70051742 1.4309144 -0.285869747
v -2.06349611 0.927639008 -0.463383466
v -2.08430648 0.692671418 -0.682833552
v -1.76208007 0.90449065 -0.630848348
v -2.24158192 0.359863132 -0.757597804
v -2.43457031 0.306230634 -1.11393201
v -2.25795889 0.755466819 -0.861093879
v -1.23957026 1.11883724 -0.582532346
v -0.601699233 0.830759108 -0.589405477
v -1.31044924 0.483661711 -0.87152189
v -2.54378891 0.230713934 -1.24456692
v -2.44865227 0.0318245701 -1.44773507
v -2.96726561 -0.0871652216 -1.17565894
v -2.57954097 0.821790278 -1.00811243
v -1.1284765 0.56716156 -1.5262506
v -2.52487302 -0.0148880761 -1.56380653
v -2.56617188 0.851777017 -1.64141476
v -2.32032228 0.956695437 -1.56263018
v -3.26357412 0.237945259 -1.23629832
v -3.03774405 0.0315706618 -1.50686049
v -3.22937489 0.0558106974 -1.12685168
v -3.64503908 -0.156120151 -1.10828638
v -3.49382806 -0.103646822 -1.33978021
v -3.30442381 -0.411275238 -2.20604753
v -2.95774412 -0.126586884 -1.86038446
v -2.49351549 -0.0612930842 -1.9410888
v -1.88096678 0.0209800713 -2.04321504
v -1.90953124 0.100577526 -2.19380236
v -2.99310541 0.0147943879 -1.90470648
v -1.95472658 -0.119839534 -2.65725374
v -2.56766605 -0.411275238 -2.67256427
v -1.24600577 0.156214505 -2.54981446
v -1.92394531 0.0127073666 -2.45354271
v -1.5675683 0.0977960378 -2.29265857
v -1.6328125 0.0644313768 -2.5313201
v -0.823691368 -0.218525827 -3.18332028
v -0.116337888 -0.411275238 -3.56284165
v -1.38466799 0.147876218 -2.21393991
v -1.35924804 0.0928769633 -1.94939494
v -1.09109378 0.165402502 -2.44399261
v -0.749726534 0.196556449 -2.51564622
v -0.898808599 0.169807151 -2.29890108
v -0.884169877 0.227620557 -2.89906049
v -1.21724606 0.102030121 -2.03100252
v -1.08165038 0.407889247 -1.54666686
v -1.14199221 0.316369534 -1.87669873
v -0.654355466 0.15215604 -2.19747043
v -0.432656229 0.117871262 -2.24014854
v -0.439326167 0.0618012995 -2.58674836
v -0.433837891 0.140992641 -2.76796818
v -0.905302703 0.415120989 -0.95760864
v -0.12338867 0.370417386 -1.24071527
v -0.0441992171 0.455052108 -1.48145103
v 0.0174609367 0.486390918 -1.13683712
v -0.268300772 0.228109494 -2.13634634
v -0.196845695 0.194037676 -2.26343584
v -0.866923809 0.229746684 -0.707436502
v -0.304921865 0.273778021 -0.851625204
v -0.0296874996 0.236891493 -2.52537966
v -0.0637402311 0.230387166 -2.38167524
v 0.0517089814 0.229050264 -1.88800776
v -0.304746091 0.302405447 -0.706596196
v 0.0817285106 0.376820445 -0.683134437
v -0.176474601 0.86041522 -0.547430694
v 0.389394522 0.224625945 -2.14176512
v 0.606816411 0.200406164 -2.34982824
v 0.119853511 0.157494336 -2.74072075
v 0.61002928 0.119703121 -2.819175
v 0.134199217 0.111045092 -3.00204301
v -0.537802696 0.920904875 -0.364024788
v 0.0688964799 0.783453882 -0.279249579
v 0.562040985 0.0791238174 -3.0927875
v 0.13499999 0.512131035 -0.440061927
v 0.115732417 0.633014977 -0.673700213
v 0.705761731 -0.0917887762 -3.30561399
v -0.581464827 1.76747108 0.0346462987
v -0.484023422 0.871574402 -0.129015803
v -0.840683579 1.87693894 -0.199016407
v -1.70887697 2.0367806 -0.33321166
v -1.80708003 2.14698625 0.160537109
v -0.773456991 1.93767631 0.416003406
v -1.14875972 2.1511426 0.491683036
v -1.85683584 2.33268476 0.722925067
v -2.54254866 2.20893264 0.647650719
v -1.74290037 2.14508629 1.06397676
v -2.31326175 2.23120117 0.997882664
v -2.80124998 2.10547304 0.665539563
v -2.08800769 1.70222557 1.0791198
v 0.115712889 0.869234324 -0.0947561637
v 0.467021465 0.860312462 -0.182985842
v 0.261728495 0.868817031 0.25534302
v 0.359521478 0.815158546 0.511818528
v 0.447119117 0.76936847 -0.59272033
v 0.664238274 1.23206675 -0.501020491
v 0.460185528 0.897037327 0.227927849
v 0.559726536 1.07318819 0.238646239
v 0.619238257 1.02089667 0.67552644
v 1.28228509 0.822808027 0.030498961
v 0.26214844 1.3632673 -0.519308031
v 1.45879877 0.778129816 0.747437119
v 1.34308589 0.709644556 0.304136664
v 1.46339846 0.614370346 0.483391404
v 1.36209953 0.227428481 0.470749199
v 1.32741213 0.334757388 0.397668451
v 1.21656251 0.597487271 -0.602284372
v 1.34342766 1.02763915 -0.468320161
v 1.46582031 1.18695068 -0.442986131
v 1.44941401 0.425615847 -0.0888595581
v 1.66580069 0.56161803 -0.553382397
v 1.44978511 1.2226001 -0.720836759
v 1.44916987 0.368682474 0.538372159
v 1.71647453 0.187080249 0.408688664
v 2.01874995 0.342723161 0.68026334
v 2.00635743 0.446487427 0.0351617411
v 1.91682613 -0.0850145519 0.338978887
v 1.98599601 -0.00166408531 0.6217978
v 2.20257807 0.00673852907 0.826562166
v 2.15779281 -0.0643937737 0.37653473
v 2.44786119 -0.0158331487 0.69665432
v 2.64154291 -0.0175556373 0.766467571
v 2.6687305 0.0366301164 0.0804849193
v 2.46080065 0.00112003321 0.269631356
v 2.25132799 -0.0941522866 0.0998922735
v 1.99771476 -0.0148129845 -0.0413079821
v 2.35054684 -0.0389897712 -0.051222533
v 2.04256821 0.142685488 -0.266398311
v 2.01364255 0.0761037245 -0.692398846
v 2.64657211 -0.0812005103 -0.0165240467
v 3.06597638 -0.00769533124 0.04909027
v 1.90197265 0.234880656 -0.638108075
v 2.95339847 -0.0705506727 0.50033325
v 3.09492183 0.0847715363 0.738514364
v 3.26151371 -0.0480475985 0.395119011
v 3.66117167 -0.0529301614 0.480226725
v 3.32338858 0.10461805 0.285629869
v 4.02623034 -0.307922542 0.363500655
v 3.84223628 -0.137647688 0.272772223
v 4.57542944 -0.411275536 -0.42786926
v 3.41230464 0.0906218886 -0.115960993
v 4.14313459 -0.0416796468 -0.548810244
v 3.50836897 0.0298111346 -0.266260356
v 3.23167968 0.122089937 -0.110829771
v 4.24670887 -0.0199286453 -0.602166116
v 2.96875978 0.0761567652 -0.0848773196
v 2.87785149 -0.00982269272 -0.380438238
v 3.05216789 0.122059494 -0.41271925
v 3.44714832 0.0627624914 -0.555105448
v 2.4797461 0.0749159008 -0.62598145
v 2.91761708 0.246989727 -1.01566827
v 2.92817378 0.0376588032 -0.748332798
v 3.47334957 0.117218532 -0.753172278
v 3.36015606 0.0124562262 -0.866423607
v 3.69836903 0.123447321 -0.862968862
v 3.27141595 0.181381285 -1.1223582
v 3.80067372 0.330550611 -0.993842781
v 4.02896452 0.0908792317 -1.22224045
v 4.31458998 -0.411275238 -1.90047204
v 3.85913086 0.0489904583 -1.19696498
v 3.48671865 0.14546904 -1.41001201
v 3.78772449 0.118893221 -1.45055628
v 2.98854494 0.654620111 -1.96462965
v 2.7921288 0.557735503 -1.44990599
v 3.97066402 0.0901992172 -1.69771051
v 3.7810936 0.0393690281 -1.89852262
v 3.79541016 0.0634037778 -2.19137335
v 3.75390625 -0.411275238 -3.06755304
v 2.69510746 0.56993866 -0.881951272
v 2.46832037 0.984889567 -1.4633795
v 3.10958004 0.375777423 -2.04953194
v 2.72237301 0.585199654 -2.12092423
v 3.48790026 0.112908646 -2.14819217
v 3.34962893 0.19251138 -2.33760118
v 2.83090806 0.25949955 -2.25395322
v 2.86454105 0.264886022 -2.45803666
v 3.13443351 0.423615873 -2.47409892
v 3.46094728 0.114119887 -2.64616394
v 3.53256822 -0.0498982035 -2.88814902
v 3.15098619 0.414155126 -2.8881526
v 2.86228514 0.229488924 -2.97725081
v 2.81207991 0.0929691494 -3.26141596
v 2.78349614 -0.411275238 -3.60458159
v 2.66199207 -0.227597684 -3.46083117
v 2.603369 0.199094906 -2.90846562
v 2.35281253 -0.276751965 -3.5209825
v 2.12073231 0.622955978 -3.29145741
v 1.43435538 0.16398558 -3.20202231
v 1.89526367 0.118347377 -3.17408013
v 2.60831046 0.259731948 -2.73182273
v 2.40046859 0.264419407 -2.91654253
v 2.08854485 0.178062752 -2.87084222
v 2.52318358 0.289356828 -2.33313656
v 2.1457715 0.204334155 -2.69630241
v 1.73623037 0.690977335 -2.48074102
v 1.949121 1.27709162 -2.15184069
v 1.75172853 1.29769909 -1.98366559
v 1.5265137 1.44900525 -1.60264766
v 2.15660143 1.28845477 -1.8419857
v 1.72622061 1.38387656 -1.58014095
v 1.6011523 1.49599028 -1.34669554
v 2.24928713 1.26789737 -1.2472657
v 1.81588864 0.260633647 -2.79926133
v 1.62444329 0.261991739 -2.66808128
v 1.95964837 0.338994354 -2.50645518
v 1.80240226 1.40404701 -1.16684365
v 2.62012696 1.00636315 -0.966495037
v 1.5120312 0.792335272 -1.03283536
v 2.04827142 0.902364492 -0.768435061
v 1.50578117 0.204653636 -2.91775417
v 1.20501947 0.091413632 -3.06221271
v 1.17915034 0.225867212 -2.78888321
v 0.92426753 0.209209949 -3.04803562
v 0.854746103 0.150883496 -2.5142858
v 1.27094722 0.104614884 -2.45598722
v 0.703671873 0.364145428 -2.57831264
v 0.900019526 0.172825485 -2.21546578
v 1.41114259 0.208505154 -2.34039664
v 0.709130824 0.191993922 -2.06360602
v 1.09233391 0.484074086 -1.883775
v 0.941933572 0.280684173 -2.27695179
v 1.69353509 0.426614076 -2.3348999
v 1.4093262 0.231800094 -2.03629136
v 1.15429688 0.158873916 -1.8886441
v 1.29685545 0.397284448 -1.72995174
v 0.524873018 0.3556436 -1.95739377
v -0.0066699218 0.57713455 -2.07679796
v -0.00752929691 1.42810464 -1.92645812
v 0.158330068 1.24795699 -0.757521033
v 0.844130814 1.70286179 -1.66594863
v 0.0168945305 1.76411784 -1.55663311
v 0.214833975 1.88632154 -0.808693826
v 0.346562505 1.44409645 -0.773888707
v 1.61823237 1.44315064 -0.872481227
v 1.35435545 0.764437377 -0.848149717
v 1.56951165 0.760532975 -0.861447871
v 2.12239242 0.804878652 -0.410860747
v 2.25610352 0.780408442 -0.829201043
v 2.29348636 0.663035929 -0.449944139
v 2.10646486 0.35681206 -0.932203472
vn -0.414942235 0.779225588 0.469713241
vn -0.186640531 0.96391356 0.189831331
vn -0.122883372 0.984328032 0.12648274
vn 0.0404544435 0.985635757 0.163968369
vn 0.0752569214 0.990446568 0.115550794
vn 0.30696854 0.921580613 -0.237612084
vn 0.314147741 0.891667962 -0.325943947
vn -0.00798239652 0.916283071 0.400451779
vn 0.202692464 0.895855486 0.395422339
vn 0.128078908 0.975287437 0.180028394
vn 0.0551863313 0.754020333 0.654528797
vn 0.147451028 0.952773213 0.265483499
vn -0.0686311945 0.867930412 0.491921335
vn -0.0358358994 0.907196462 0.419178247
vn -0.0226296838 0.805447936 0.592234373
vn 0.0870761573 0.960310698 0.264992356
vn 0.181431532 0.834813118 0.519778371
vn -0.123913892 0.677792907 0.724735916
vn -0.116570085 0.864726603 0.488527745
vn 0.522469521 0.836945891 0.16293329
vn 0.0743388683 0.940373778 0.331919879
vn 0.0129480474 0.540458679 0.841270864
vn -0.0105069261 0.524122536 0.851577997
vn -0.0197378788 0.701453328 0.7124421
vn -0.214062601 0.575899303 0.78899765
vn 0.641816914 0.741765976 0.194561332
vn 0.53897202 0.838865995 0.0762427747
vn 0.53106159 0.809657872 -0.249855354
vn 0.275837332 0.392556459 0.877389967
vn 0.192499086 0.79415834 -0.576417029
vn -0.00606486015 0.978038967 0.208333597
vn 0.0463630855 0.972152174 0.229718536
vn -0.0520817526 0.899436116 0.433938026
vn 0.0217642263 0.952223182 0.304626465
vn -0.116876706 0.867334604 0.483808428
vn -0.0174557958 0.780238807 0.625238121
vn -0.0392510407 0.985786319 0.163354382
vn -0.446029484 0.880572379 0.16015619
vn 0.246779472 0.871670544 0.423426956
vn 0.50922811 0.758936048 0.405835897
vn 0.279422402 0.92284137 0.265116811
vn 0.090268068 0.995734155 -0.0191119555
vn -0.0613781363 0.989649415 0.129717603
vn 0.0753126889 0.986863256 0.142930061
vn -0.0327239223 0.97652781 -0.212891087
vn 0.0496553257 0.932132304 0.358697265
vn -0.110172257 0.912822604 -0.39321366
vn 0.599544704 0.768554509 0.223316386
vn 0.117515393 0.974771976 0.189761862
vn -0.0575226285 0.965100229 -0.255484998
vn -0.0942062214 0.995281398 -0.0232414678
vn -0.0449819937 0.998984396 0.00260362122
vn -0.23290655 0.811959028 0.535235405
vn -0.106479488 0.994249463 -0.0114095444
vn -0.173240602 0.941221476 0.289982557
vn 0.114137627 0.99321413 0.0223202072
vn -0.108195022 0.943042397 0.314587027
vn -0.313382804 0.924202919 0.218266219
vn 0.0611828119 0.978755355 0.195690125
vn 0.70532459 0.708748281 0.0138934823
vn 0.43302682 0.845219493 0.313196033
vn 0.28939113 0.951121032 0.107803352
vn 0.0204359293 0.952508271 0.303826094
vn 0.765204012 0.197576284 0.612720549
vn 0.164596483 0.984066486 0.0672403127
vn 0.0650843084 0.995923996 0.0624460168
vn 0.138047352 0.898473501 0.416759104
vn 0.610422313 0.525243938 0.59287715
vn 0.398602694 0.771518588 0.495857805
vn 0.466703743 0.851086855 0.240497023
vn 0.655448973 0.34045431 0.674149513
vn 0.714483559 0.0351817347 0.698767066
vn 0.612278342 0.55926162 0.558875442
vn 0.204844609 0.92922616 0.307534456
vn 0.622705698 0.761510193 -0.179833114
vn 0.243655041 0.907919049 0.341050208
vn 0.712152421 0.700335562 0.0486728437
vn 0.767326474 0.376100451 0.519382775
vn 0.749773741 0.364559114 0.552210212
vn 0.58106786 0.698825419 -0.417136967
vn 0.444647521 0.491283804 0.748951852
vn 0.623761535 0.475603372 0.620260358
vn 0.283851743 0.604513884 0.744305849
vn 0.405728519 0.823236406 0.397071868
vn 0.525060415 0.812846303 -0.25217545
vn 0.444378823 0.58911407 0.674886763
vn -0.344400734 0.655842125 0.671758413
vn -0.137279078 0.0230307635 0.990264654
vn -0.0296320897 0.509548128 0.859931767
vn -0.0671887398 0.245084018 0.967170894
vn 0.530474663 0.488556057 0.692755044
vn -0.252488911 0.173462287 0.951924503
vn -0.293353587 0.656571209 0.69487977
vn -0.506245732 -0.0445988514 0.861235261
vn -0.371302783 0.00478405086 0.92849952
vn 0.584450006 0.152694643 0.796933174
vn 0.949363172 0.0742943361 -0.305270135
vn 0.794160604 0.60765028 0.00836471282
vn 0.647463024 0.349886507 0.6770311
vn -0.0983604565 0.916086257 0.388730407
vn -0.578164339 -0.242072389 0.779183447
vn 0.869814813 0.365984648 -0.330873817
vn 0.310436338 0.704330623 0.638394535
vn 0.496428937 0.737360775 -0.458101809
vn 0.219049901 0.87656647 0.428542167
vn 0.0344687253 0.338517219 0.940328658
vn -0.524044871 0.129564211 0.841777921
vn -0.151819393 0.277151972 0.94875586
vn -0.762890577 -0.347242445 0.545362949
vn -0.592356861 0.0706890151 0.802568674
vn -0.241091073 -0.0010821207 0.9705019
vn -0.507133007 0.854475319 0.112640992
vn -0.139943704 0.880693316 0.452542931
vn -0.278688312 0.929224133 -0.242642522
vn -0.309172183 0.464777976 0.829695046
vn -0.820848346 0.568817317 -0.0515249595
vn -0.925253093 0.379350364 -1.27456351E-05
vn -0.901753008 0.238003165 0.360826671
vn -0.804364741 0.251709998 0.538181603
vn -0.618259609 -0.210783511 0.757182539
vn -0.933226705 0.283880651 -0.220226273
vn -0.978898048 0.187678754 -0.0808412507
vn -0.981538177 -0.138598144 0.13180843
vn 0.199308902 0.956710637 -0.212086365
vn -0.997685671 -0.0311969146 0.0604164526
vn -0.937862694 -0.00587891601 0.346956789
vn -0.986057043 -0.149142057 -0.0738117993
vn -0.86343509 0.501744688 -0.0522681065
vn -0.270667166 0.961801887 0.0409445688
vn -0.278028786 0.86464256 0.418441623
vn 0.0320812464 0.995232999 -0.0920980871
vn -0.796255648 0.599322677 -0.0823970437
vn -0.696363509 0.697544754 0.168846846
vn -0.209690154 0.90260452 0.375945657
vn -0.140477896 0.939295828 0.313032299
vn -0.369825572 0.668616593 0.645120919
vn -0.261593848 0.828816354 0.494602948
vn -0.346876442 0.51353395 0.784830987
vn -0.457521141 0.656507671 0.599726677
vn -0.64779675 0.288497597 0.705073416
vn -0.029820146 0.904190958 0.426086217
vn -0.19412066 0.975918293 -0.0995018035
vn -0.0712467432 0.978279293 -0.194662839
vn -0.63181746 0.772432685 -0.0644552484
vn -0.228963584 0.963836908 0.136360496
vn -0.380483627 0.877153575 0.292974055
vn -0.179650843 0.901453853 0.393835485
vn -0.213245749 0.920999169 -0.326016366
vn 0.0472182669 0.941903651 -0.332547814
vn -0.288920105 0.770732462 -0.567887962
vn -0.432511806 0.877820849 0.205824941
vn -0.769122958 0.610893309 -0.187774569
vn -0.361127943 0.848896384 -0.385955334
vn -0.612963557 0.772636235 -0.165253878
vn -0.515092432 0.845311642 -0.141873211
vn -0.868562222 0.463602632 0.175134614
vn -0.539288938 0.807275832 -0.239735752
vn -0.251154929 0.959964871 -0.124050662
vn -0.246483862 0.958445668 -0.143623397
vn -0.785468876 0.617195487 -0.0459167399
vn -0.200125426 0.956076562 0.214167058
vn -0.350004613 0.913266361 -0.208425626
vn -0.0709819868 0.973834336 -0.215889409
vn -0.728328884 0.48463583 -0.484422565
vn -0.251837343 0.890234947 -0.379551917
vn -0.358196974 0.75272584 -0.552357435
vn -0.510455608 0.702911556 -0.495328575
vn 0.276526958 0.952304363 0.129032105
vn -0.716097057 0.66913408 -0.198657081
vn -0.890814364 -0.0712149218 -0.448751897
vn -0.449045658 0.680423379 -0.579121709
vn -0.767620802 0.00215565017 -0.640900612
vn -0.191343144 0.587561727 -0.786230803
vn -0.687122226 0.501169264 -0.52601552
vn 0.293301761 0.461296767 -0.837364614
vn -0.0545409806 0.186819911 -0.980878949
vn -0.122720189 0.753555 -0.645828724
vn -0.547701061 0.818462491 -0.173616588
vn -0.11130359 0.745704532 -0.656914175
vn -0.702540398 0.582739055 -0.40847528
vn -0.89958781 0.357111841 0.251421511
vn -0.381467909 0.820944667 0.424890727
vn -0.0665629134 0.745340765 -0.663352549
vn 0.196420372 0.521453083 -0.830364943
vn 0.259436518 0.891733468 -0.370815396
vn -0.608722389 0.628896058 -0.483680427
vn -0.938465297 0.199130699 0.28218767
vn 0.288601726 0.95738548 0.0110476613
vn -0.679410279 0.484248787 0.551275551
vn 0.546227336 0.747839272 -0.377322465
vn -0.712691009 0.700807154 -0.0306723416
vn -0.678206146 0.541824579 -0.496449888
vn 0.0785959437 0.926438928 -0.368148953
vn -0.114323653 0.991820097 0.0567710362
vn -0.012592731 0.962465882 -0.271110564
vn -0.166886464 0.711910486 0.682152748
vn -0.509460866 0.850624263 -0.129953638
vn -0.572475612 0.703533649 -0.421084434
vn -0.457777649 0.775255561 -0.435222238
vn -0.364905596 0.899144411 0.241626576
vn -0.368028253 0.92819494 -0.0548588634
vn -0.00232891715 0.966686547 -0.255952746
vn -0.0331060179 0.994903922 0.0952379107
vn -0.459658861 0.796400309 0.393014461
vn 0.0790702328 0.0478743613 -0.995718896
vn -0.32708478 0.738168895 -0.590018868
vn -0.241311878 0.937487602 -0.250770211
vn -0.210482061 0.895115137 -0.393021911
vn -0.185191885 0.981251359 -0.0533824302
vn -0.22812964 0.906617522 -0.354966998
vn -0.229929253 0.620165348 -0.750018358
vn -0.126135916 0.71507597 -0.687572539
vn -0.129383326 0.990377784 0.0491089784
vn -0.138314128 0.918373466 -0.370755136
vn -0.0809702277 0.996213377 0.0316652432
vn 0.153030008 0.987636805 0.033989761
vn -0.0101432148 0.990190089 0.139358804
vn -0.162558645 0.836083353 -0.523964942
vn -0.182375312 0.952391267 -0.244315788
vn 0.48261103 0.759071052 -0.436918378
vn -0.367200971 0.849283278 -0.379316896
vn 0.0201265998 0.960021377 -0.279202402
vn -0.058842998 0.927222729 -0.369858891
vn -0.0487024039 0.994463384 0.0931165665
vn -0.0760302693 0.987641692 -0.137052178
vn 0.19604452 0.930669069 0.308904022
vn -0.357236385 0.930437207 0.0816620514
vn -0.579961598 0.814614952 0.00687006209
vn -0.8489272 0.519932985 0.0948268846
vn -0.121276274 0.942525923 -0.311346918
vn -0.472051203 0.813389242 -0.33994931
vn 0.303697109 0.857926607 -0.41440326
vn -0.115815163 0.987444639 0.1074237
vn -0.0900244191 0.986561239 -0.136354178
vn -0.140551865 0.989938378 -0.016345175
vn -0.25972867 0.749596417 -0.608807266
vn -0.085442245 0.729333758 -0.678801775
vn -0.602767169 0.732278049 -0.316923767
vn 0.302766293 0.771768987 -0.559200525
vn -0.0297981463 0.972952306 -0.229076222
vn 0.0386726074 0.999105752 0.0170864724
vn 0.0402163193 0.973461509 -0.225289345
vn -0.0845675617 0.97094065 -0.223880813
vn -0.054500971 0.902794182 -0.426605672
vn 0.512538195 0.786849856 -0.343761295
vn 0.0425596349 0.926964939 -0.372725934
vn 0.222459897 0.889926732 -0.398173094
vn -0.442749172 0.615452111 -0.652067244
vn -0.950878561 0.247793138 0.185549349
vn -0.196990415 0.889873505 -0.411484867
vn 0.707576513 0.594469666 -0.382022828
vn 0.555713475 0.715089798 -0.424062639
vn 0.462544471 0.642377555 -0.611067712
vn 0.0155631546 0.667585194 -0.744370699
vn 0.02732132 0.963835597 -0.265093416
vn 0.520190358 0.853864849 0.0178008806
vn 0.33229503 0.942965627 -0.0198990908
vn 0.0631224662 0.996588469 0.053170491
vn -0.445350796 0.86722666 0.222666994
vn 0.219834864 0.821986556 0.525367141
vn -0.575680137 0.726823986 0.374592066
vn -0.585959196 0.465097696 0.663578153
vn -0.784421504 0.618103445 -0.0512929484
vn 0.175561383 0.833781958 -0.523436546
vn -0.283450812 0.958548427 -0.0289922599
vn 0.605595589 0.769252658 -0.203726172
vn 0.365280092 0.912520528 0.184056044
vn -0.584394455 0.621432662 0.521827996
vn -0.205092341 0.200719938 0.957939804
vn -0.610788286 0.790005982 -0.0531805158
vn -0.275331497 0.954383075 -0.115523301
vn -0.165892452 0.836193442 0.522742987
vn 0.800814033 0.58598429 0.123770818
vn -0.46788913 0.535690248 0.702933669
vn 0.713174105 0.603360116 0.356846184
vn 0.847849846 0.520090401 -0.103230268
vn 0.936982155 0.229205921 -0.263683707
vn 0.601717055 0.777178705 -0.184200555
vn 0.963118911 0.165277928 -0.212332606
vn 0.78392154 0.488976121 0.382582635
vn 0.437354743 -0.0296335146 0.898800731
vn 0.711874425 0.32389459 0.623158932
vn 0.0849499032 0.950149536 0.299999058
vn -0.00373609667 0.802896321 0.596106946
vn 0.759857118 0.276359797 0.588423729
vn -0.344150275 0.927761018 -0.144292071
vn 0.378400236 0.915163875 -0.138882458
vn 0.669168353 0.728115082 0.148533732
vn 0.659006059 0.69507581 0.287368268
vn 0.604699731 0.795605302 -0.0367466025
vn 0.742479742 0.667079031 -0.0610689372
vn -0.0177597385 0.995899141 0.0887099579
vn -0.0895829573 0.985571504 -0.143609747
vn -0.00760111492 0.997054696 0.0763166398
vn 0.00646173628 0.981714487 0.190249726
vn 0.0123879286 0.944300473 -0.328851342
vn -0.218151927 0.974369228 -0.0549031943
vn -0.0882667378 0.991379261 0.096830979
vn 0.742230892 0.621135831 0.251562446
vn -0.00158681907 0.993294239 0.115603663
vn 0.990803361 0.103046611 -0.0876924619
vn 0.397653639 0.47711885 0.783727765
vn -0.00673437351 0.944511473 -0.328409284
vn -0.142148614 0.9447155 0.295476705
vn 0.788098037 0.307593495 0.533186316
vn 0.0971106738 0.992233157 -0.077736035
vn 0.276719809 0.949494123 0.147942856
vn -0.177783743 0.907808185 0.379838496
vn 0.343300104 0.905870676 0.248079434
vn -0.158862993 0.92492938 0.345352262
vn 0.600274563 0.728298545 0.330532402
vn 0.445214689 0.880163133 0.164611056
vn 0.712938011 0.687744677 0.13684541
vn 0.233671963 0.971119821 -0.0482044779
vn 0.0687927157 0.941616058 0.329585552
vn 0.24633202 0.968866646 0.0248606391
vn 0.057145182 0.955528975 0.289307684
vn 0.582386672 0.812910557 0.00145965093
vn -0.264812112 0.939454675 0.217484504
vn -0.251515478 0.963041127 0.0963936299
vn -0.253692508 0.966881752 0.0279230028
vn 0.0813270584 0.988793552 0.125192583
vn 0.10234189 0.893507838 0.437229872
vn 0.377209872 0.71303463 0.591011226
vn 0.0716349259 0.952573717 0.29575628
vn -0.091897063 0.992196321 -0.0842701569
vn -0.103772365 0.993564785 0.0453909747
vn -0.176534981 0.953739405 0.243344724
vn 0.25575456 0.905951083 0.337404966
vn -0.299075574 0.949521005 -0.0946769416
vn 0.489735484 0.855732083 -0.166978091
vn 0.732708037 0.638683021 -0.234995633
vn -0.164118543 0.961425126 -0.220741585
vn 0.262077898 0.914308429 0.308796465
vn 0.179198414 0.976687193 0.118195325
vn 0.56157881 0.745112062 -0.359773904
vn 0.662409544 0.690280199 0.291078597
vn 0.422704458 0.860954344 -0.282981426
vn 0.486583531 0.851042032 -0.197392955
vn 0.527023494 0.843469203 -0.103951477
vn 0.598445296 0.594687045 -0.53685236
vn 0.570209146 0.0476342253 0.820117414
vn 0.755781054 0.65480715 0.00475304155
vn 0.350905538 0.625944436 -0.696461558
vn 0.349756151 0.525757015 -0.775403261
vn 0.372036815 0.927830338 -0.0268210378
vn 0.443142593 0.895411968 0.0431518778
vn 0.562823236 0.804578364 -0.189429745
vn -0.19183749 0.967669964 -0.163747489
vn 0.128074721 0.957648456 0.257887989
vn 0.561854184 0.772296965 -0.296440989
vn 0.539982617 0.690709293 -0.480977654
vn 0.245348945 0.710963786 -0.659040391
vn -0.0614625365 0.887806475 -0.456094444
vn -0.286589175 0.783297539 -0.551644444
vn 0.178391322 0.559559882 -0.809363544
vn 0.0473191366 0.591554165 -0.804875493
vn 0.243774623 0.924804151 -0.29208076
vn -0.0169390496 0.447963327 -0.893891454
vn -0.221936569 0.928553998 -0.297542423
vn -0.095365867 0.884373009 -0.456935167
vn -0.290039837 0.797184169 -0.529503822
vn 0.123521306 0.975197256 -0.183665037
vn 0.0230944641 0.898255825 0.438865781
vn -0.106084719 0.988293529 0.109644227
vn 0.120621465 0.786527514 -0.605660796
vn 0.0690802187 0.932979703 -0.353237569
vn -0.398853958 0.247603685 -0.882954121
vn 0.253912777 0.912781119 -0.319936097
vn -0.233252466 0.832732975 -0.502144516
vn 0.149526432 0.804309189 -0.575089991
vn 0.393702596 0.835606873 -0.383091867
vn 0.289313108 0.94519037 -0.151370987
vn 0.441696227 0.895107567 0.0607190095
vn 0.380793899 0.885138571 0.267442644
vn -0.00129910605 0.985312283 -0.17075716
vn -0.127727523 0.987062991 -0.0969146565
vn -0.628108919 0.262582958 -0.732481658
vn 0.0820999816 0.738004327 0.669782996
vn 0.743275642 0.546671748 0.385605127
vn 0.206761613 0.703409076 0.680048168
vn -0.0520752817 0.881745994 0.468841344
vn -0.033202894 0.972970724 -0.228528857
vn -0.0952439532 0.944192767 -0.315322965
vn -0.0317961723 0.999368131 -0.0158888958
vn -0.0762360692 0.893965065 -0.441604376
vn 0.2416168 0.969635189 0.0377995819
vn -0.143456489 0.977426112 -0.155108079
vn 0.0488050729 0.989771247 -0.134055659
vn -0.117617793 0.993022919 -0.0084558446
vn -0.294419795 0.919315338 -0.261106014
vn 0.233278796 0.778717577 -0.58239156
vn 0.394215107 0.127594769 -0.910117626
vn -0.67267853 0.697320282 -0.247483328
vn -0.59441483 0.0557704344 -0.802222252
vn -0.598648787 0.750831842 -0.279054224
vn 0.0367831178 0.816563308 -0.576082826
vn -0.172848135 0.3177751 -0.932278156
vn -0.0366996787 0.415212542 -0.908983886
vn -0.618402004 -0.0808275566 -0.781694233
vn -0.647654533 0.332739562 -0.685439944
vn -0.928157032 0.140572578 0.34462133
vn 0.218031928 0.785446465 -0.579254687
vn -0.691374123 0.68483454 -0.230224922
vn -0.383597761 0.724376738 0.57282728
vn -0.0574336089 0.517162204 0.853958249
vn 0.810258269 0.387185186 0.43996501
vn 0.719706833 0.391663313 0.573255539
vn -0.188017488 0.901795089 0.389120996
vn 0.11333175 0.541686118 0.832905769
vn 0.383597463 -0.53503722 0.752720475
vn 0.775579154 -0.0573635735 0.628638625
vn 0.623772204 0.128687426 0.770939469
g submesh0
f 1//1 2//2 3//3
f 4//4 1//1 3//3
f 4//4 2//2 1//1
f 5//5 4//4 3//3
f 5//5 3//3 6//6
f 6//6 3//3 7//7
f 3//3 2//2 8//8
f 9//9 7//7 3//3
f 3//3 8//8 9//9
f 4//4 5//5 10//10
f 10//10 5//5 11//11
f 5//5 6//6 11//11
f 4//4 10//10 12//12
f 11//11 12//12 10//10
f 4//4 13//13 2//2
f 14//14 13//13 4//4
f 4//4 12//12 14//14
f 2//2 13//13 15//15
f 15//15 13//13 14//14
f 2//2 16//16 8//8
f 2//2 15//15 16//16
f 8//8 16//16 15//15
f 17//17 8//8 15//15
f 17//17 9//9 8//8
f 15//15 14//14 18//18
f 14//14 12//12 19//19
f 19//19 18//18 14//14
f 20//20 9//9 17//17
f 9//9 20//20 7//7
f 21//21 19//19 12//12
f 12//12 11//11 21//21
f 22//22 21//21 11//11
f 23//23 22//22 11//11
f 11//11 6//6 23//23
f 19//19 24//24 18//18
f 19//19 21//21 24//24
f 25//25 18//18 24//24
f 26//26 22//22 23//23
f 23//23 6//6 26//26
f 26//26 6//6 27//27
f 6//6 28//28 27//27
f 28//28 6//6 7//7
f 28//28 29//29 27//27
f 30//30 28//28 7//7
f 28//28 30//30 29//29
f 7//7 31//31 30//30
f 7//7 32//32 31//31
f 20//20 32//32 7//7
f 24//24 21//21 33//33
f 34//34 21//21 22//22
f 34//34 33//33 21//21
f 24//24 33//33 35//35
f 24//24 35//35 25//25
f 33//33 34//34 36//36
f 36//36 34//34 22//22
f 36//36 35//35 33//33
f 37//37 32//32 20//20
f 31//31 32//32 38//38
f 37//37 38//38 32//32
f 39//39 37//37 20//20
f 17//17 39//39 20//20
f 17//17 40//40 39//39
f 37//37 39//39 41//41
f 37//37 41//41 38//38
f 41//41 39//39 40//40
f 42//42 31//31 38//38
f 41//41 42//42 38//38
f 42//42 43//43 31//31
f 42//42 41//41 44//44
f 42//42 44//44 43//43
f 44//44 45//45 43//43
f 44//44 41//41 46//46
f 41//41 40//40 46//46
f 45//45 44//44 46//46
f 47//47 46//46 40//40
f 47//47 45//45 46//46
f 48//48 47//47 40//40
f 48//48 45//45 47//47
f 49//49 45//45 48//48
f 49//49 50//50 45//45
f 51//51 45//45 50//50
f 51//51 43//43 45//45
f 49//49 52//52 50//50
f 51//51 50//50 52//52
f 43//43 53//53 31//31
f 31//31 53//53 54//54
f 31//31 54//54 30//30
f 55//55 43//43 51//51
f 56//56 53//53 43//43
f 56//56 43//43 55//55
f 55//55 51//51 57//57
f 57//57 51//51 52//52
f 57//57 56//56 55//55
f 58//58 54//54 53//53
f 58//58 53//53 56//56
f 58//58 59//59 54//54
f 58//58 56//56 59//59
f 30//30 54//54 60//60
f 54//54 59//59 60//60
f 30//30 60//60 61//61
f 59//59 61//61 60//60
f 62//62 30//30 61//61
f 29//29 30//30 62//62
f 29//29 62//62 61//61
f 57//57 63//63 56//56
f 59//59 56//56 63//63
f 29//29 61//61 64//64
f 29//29 64//64 27//27
f 61//61 65//65 64//64
f 65//65 27//27 64//64
f 66//66 61//61 59//59
f 65//65 61//61 66//66
f 66//66 59//59 67//67
f 67//67 65//65 66//66
f 68//68 59//59 63//63
f 59//59 68//68 67//67
f 69//69 27//27 65//65
f 69//69 65//65 67//67
f 70//70 27//27 69//69
f 67//67 71//71 69//69
f 67//67 72//72 71//71
f 68//68 72//72 67//67
f 69//69 73//73 70//70
f 69//69 71//71 73//73
f 74//74 27//27 70//70
f 75//75 27//27 74//74
f 70//70 75//75 74//74
f 75//75 26//26 27//27
f 76//76 75//75 70//70
f 75//75 76//76 77//77
f 70//70 77//77 76//76
f 77//77 26//26 75//75
f 70//70 78//78 77//77
f 73//73 78//78 70//70
f 78//78 26//26 77//77
f 71//71 79//79 73//73
f 78//78 73//73 79//79
f 79//79 71//71 80//80
f 79//79 81//81 78//78
f 82//82 26//26 78//78
f 81//81 82//82 78//78
f 81//81 83//83 82//82
f 84//84 81//81 79//79
f 84//84 79//79 80//80
f 81//81 84//84 83//83
f 84//84 80//80 85//85
f 85//85 83//83 84//84
f 26//26 82//82 86//86
f 87//87 26//26 86//86
f 87//87 22//22 26//26
f 88//88 22//22 87//87
f 89//89 87//87 86//86
f 87//87 89//89 88//88
f 89//89 90//90 88//88
f 90//90 89//89 91//91
f 22//22 88//88 92//92
f 92//92 36//36 22//22
f 93//93 36//36 92//92
f 92//92 88//88 94//94
f 88//88 90//90 94//94
f 92//92 94//94 95//95
f 93//93 92//92 95//95
f 90//90 95//95 94//94
f 89//89 86//86 96//96
f 91//91 89//89 96//96
f 97//97 96//96 86//86
f 91//91 96//96 97//97
f 97//97 86//86 98//98
f 98//98 91//91 97//97
f 86//86 82//82 98//98
f 99//99 98//98 82//82
f 99//99 82//82 83//83
f 36//36 93//93 100//100
f 100//100 35//35 36//36
f 95//95 90//90 101//101
f 95//95 101//101 93//93
f 91//91 98//98 102//102
f 102//102 98//98 99//99
f 102//102 103//103 91//91
f 99//99 104//104 102//102
f 103//103 102//102 104//104
f 105//105 99//99 83//83
f 104//104 99//99 105//105
f 106//106 90//90 91//91
f 103//103 106//106 91//91
f 90//90 107//107 101//101
f 90//90 106//106 108//108
f 108//108 107//107 90//90
f 109//109 107//107 108//108
f 107//107 110//110 101//101
f 101//101 110//110 93//93
f 110//110 107//107 109//109
f 110//110 109//109 93//93
f 103//103 111//111 106//106
f 111//111 108//108 106//106
f 93//93 109//109 112//112
f 112//112 100//100 93//93
f 113//113 103//103 104//104
f 114//114 113//113 104//104
f 103//103 113//113 115//115
f 111//111 103//103 115//115
f 116//116 115//115 113//113
f 113//113 114//114 116//116
f 117//117 116//116 114//114
f 118//118 116//116 117//117
f 118//118 115//115 116//116
f 118//118 111//111 115//115
f 108//108 111//111 119//119
f 118//118 119//119 111//111
f 108//108 119//119 120//120
f 109//109 108//108 120//120
f 121//121 119//119 118//118
f 121//121 118//118 117//117
f 120//120 119//119 121//121
f 121//121 122//122 120//120
f 121//121 117//117 122//122
f 120//120 123//123 109//109
f 120//120 122//122 123//123
f 104//104 124//124 114//114
f 105//105 124//124 104//104
f 117//117 125//125 122//122
f 125//125 123//123 122//122
f 125//125 117//117 126//126
f 126//126 127//127 125//125
f 109//109 123//123 128//128
f 112//112 109//109 128//128
f 128//128 129//129 112//112
f 129//129 130//130 112//112
f 130//130 129//129 131//131
f 125//125 132//132 123//123
f 132//132 125//125 127//127
f 133//133 128//128 123//123
f 128//128 133//133 129//129
f 133//133 123//123 132//132
f 133//133 132//132 129//129
f 134//134 112//112 130//130
f 134//134 100//100 112//112
f 135//135 100//100 134//134
f 100//100 135//135 35//35
f 136//136 135//135 134//134
f 130//130 136//136 134//134
f 135//135 137//137 35//35
f 135//135 136//136 137//137
f 25//25 35//35 137//137
f 136//136 25//25 137//137
f 138//138 25//25 136//136
f 138//138 136//136 130//130
f 130//130 139//139 138//138
f 139//139 140//140 138//138
f 141//141 139//139 130//130
f 139//139 141//141 140//140
f 131//131 141//141 130//130
f 129//129 132//132 142//142
f 131//131 129//129 143//143
f 143//143 129//129 142//142
f 144//144 142//142 132//132
f 145//145 142//142 144//144
f 146//146 142//142 145//145
f 142//142 146//146 143//143
f 127//127 144//144 132//132
f 145//145 147//147 146//146
f 146//146 147//147 143//143
f 143//143 147//147 148//148
f 147//147 145//145 148//148
f 131//131 143//143 149//149
f 143//143 148//148 149//149
f 150//150 144//144 127//127
f 145//145 144//144 150//150
f 151//151 131//131 149//149
f 148//148 151//151 149//149
f 131//131 151//151 152//152
f 151//151 148//148 153//153
f 152//152 151//151 153//153
f 148//148 154//154 153//153
f 152//152 153//153 154//154
f 155//155 154//154 148//148
f 148//148 145//145 155//155
f 154//154 156//156 152//152
f 157//157 154//154 155//155
f 158//158 157//157 155//155
f 159//159 131//131 152//152
f 141//141 131//131 159//159
f 160//160 152//152 156//156
f 159//159 152//152 160//160
f 159//159 160//160 141//141
f 156//156 140//140 160//160
f 161//161 140//140 141//141
f 161//161 160//160 140//140
f 141//141 160//160 161//161
f 162//162 155//155 145//145
f 158//158 155//155 162//162
f 145//145 163//163 162//162
f 162//162 163//163 158//158
f 150//150 163//163 145//145
f 163//163 150//150 164//164
f 127//127 164//164 150//150
f 163//163 165//165 158//158
f 164//164 166//166 163//163
f 166//166 165//165 163//163
f 167//167 165//165 166//166
f 158//158 165//165 168//168
f 165//165 167//167 168//168
f 166//166 164//164 169//169
f 167//167 166//166 169//169
f 164//164 127//127 170//170
f 169//169 164//164 171//171
f 164//164 170//170 171//171
f 170//170 127//127 172//172
f 173//173 170//170 172//172
f 172//172 127//127 126//126
f 172//172 126//126 174//174
f 174//174 175//175 173//173
f 172//172 176//176 173//173
f 176//176 172//172 174//174
f 174//174 173//173 176//176
f 170//170 177//177 171//171
f 173//173 177//177 170//170
f 177//177 178//178 171//171
f 177//177 173//173 179//179
f 178//178 177//177 179//179
f 178//178 180//180 171//171
f 180//180 169//169 171//171
f 181//181 169//169 180//180
f 182//182 180//180 178//178
f 178//178 179//179 182//182
f 181//181 180//180 182//182
f 175//175 183//183 173//173
f 183//183 179//179 173//173
f 183//183 184//184 179//179
f 184//184 183//183 175//175
f 185//185 182//182 179//179
f 185//185 179//179 184//184
f 186//186 169//169 181//181
f 167//167 169//169 186//186
f 167//167 186//186 187//187
f 181//181 187//187 186//186
f 167//167 187//187 188//188
f 167//167 188//188 168//168
f 182//182 189//189 181//181
f 185//185 189//189 182//182
f 189//189 185//185 190//190
f 181//181 191//191 187//187
f 187//187 191//191 188//188
f 192//192 181//181 189//189
f 181//181 192//192 191//191
f 190//190 193//193 189//189
f 193//193 192//192 189//189
f 193//193 190//190 192//192
f 188//188 194//194 168//168
f 191//191 195//195 188//188
f 194//194 188//188 195//195
f 196//196 168//168 194//194
f 158//158 168//168 196//196
f 197//197 158//158 196//196
f 196//196 194//194 197//197
f 197//197 157//157 158//158
f 194//194 198//198 197//197
f 198//198 157//157 197//197
f 195//195 198//198 194//194
f 198//198 199//199 157//157
f 198//198 195//195 200//200
f 200//200 195//195 191//191
f 198//198 200//200 199//199
f 192//192 201//201 191//191
f 200//200 191//191 201//201
f 201//201 192//192 202//202
f 192//192 190//190 202//202
f 200//200 201//201 203//203
f 203//203 201//201 202//202
f 199//199 200//200 204//204
f 200//200 203//203 204//204
f 204//204 205//205 199//199
f 206//206 199//199 205//205
f 206//206 205//205 207//207
f 203//203 208//208 204//204
f 208//208 205//205 204//204
f 208//208 203//203 209//209
f 202//202 209//209 203//203
f 210//210 205//205 208//208
f 205//205 210//210 207//207
f 208//208 209//209 210//210
f 209//209 207//207 210//210
f 207//207 211//211 206//206
f 206//206 211//211 212//212
f 213//213 209//209 202//202
f 202//202 190//190 214//214
f 214//214 213//213 202//202
f 209//209 215//215 207//207
f 209//209 213//213 215//215
f 215//215 216//216 207//207
f 213//213 217//217 215//215
f 217//217 216//216 215//215
f 218//218 211//211 207//207
f 207//207 216//216 218//218
f 213//213 214//214 219//219
f 217//217 213//213 219//219
f 190//190 220//220 214//214
f 219//219 214//214 221//221
f 214//214 220//220 221//221
f 219//219 222//222 217//217
f 221//221 222//222 219//219
f 223//223 216//216 217//217
f 217//217 222//222 223//223
f 224//224 218//218 216//216
f 224//224 216//216 223//223
f 225//225 211//211 218//218
f 224//224 225//225 218//218
f 226//226 220//220 190//190
f 226//226 190//190 185//185
f 220//220 227//227 221//221
f 220//220 226//226 227//227
f 228//228 222//222 221//221
f 227//227 228//228 221//221
f 228//228 227//227 229//229
f 222//222 230//230 223//223
f 230//230 222//222 228//228
f 223//223 231//231 224//224
f 231//231 223//223 230//230
f 232//232 226//226 185//185
f 184//184 232//232 185//185
f 227//227 226//226 233//233
f 232//232 233//233 226//226
f 227//227 233//233 229//229
f 231//231 234//234 224//224
f 224//224 234//234 225//225
f 235//235 231//231 230//230
f 235//235 234//234 231//231
f 228//228 236//236 230//230
f 235//235 230//230 236//236
f 233//233 232//232 237//237
f 232//232 184//184 237//237
f 233//233 237//237 238//238
f 238//238 229//229 233//233
f 237//237 184//184 239//239
f 237//237 239//239 238//238
f 240//240 234//234 235//235
f 235//235 236//236 240//240
f 241//241 234//234 240//240
f 242//242 225//225 234//234
f 234//234 241//241 242//242
f 242//242 241//241 243//243
f 244//244 225//225 242//242
f 242//242 243//243 244//244
f 211//211 225//225 244//244
f 244//244 212//212 211//211
f 239//239 184//184 245//245
f 245//245 246//246 239//239
f 184//184 175//175 245//245
f 247//247 244//244 243//243
f 212//212 244//244 247//247
f 246//246 248//248 239//239
f 248//248 238//238 239//239
f 248//248 249//249 238//238
f 249//249 248//248 246//246
f 238//238 249//249 229//229
f 250//250 247//247 243//243
f 250//250 212//212 247//247
f 245//245 175//175 251//251
f 246//246 245//245 252//252
f 245//245 251//251 252//252
f 253//253 251//251 175//175
f 85//85 252//252 251//251
f 253//253 85//85 251//251
f 254//254 253//253 175//175
f 175//175 174//174 254//254
f 255//255 253//253 254//254
f 174//174 255//255 254//254
f 80//80 252//252 85//85
f 85//85 253//253 256//256
f 83//83 85//85 256//256
f 253//253 257//257 256//256
f 257//257 83//83 256//256
f 253//253 255//255 257//257
f 83//83 257//257 105//105
f 255//255 258//258 257//257
f 105//105 257//257 258//258
f 255//255 174//174 259//259
f 258//258 255//255 259//259
f 105//105 258//258 260//260
f 124//124 105//105 260//260
f 114//114 124//124 260//260
f 258//258 261//261 260//260
f 260//260 261//261 114//114
f 258//258 259//259 261//261
f 259//259 174//174 262//262
f 174//174 126//126 262//262
f 259//259 262//262 126//126
f 259//259 126//126 261//261
f 126//126 117//117 261//261
f 114//114 261//261 263//263
f 114//114 263//263 117//117
f 263//263 261//261 117//117
f 264//264 252//252 80//80
f 246//246 252//252 264//264
f 265//265 246//246 264//264
f 264//264 80//80 266//266
f 265//265 264//264 266//266
f 80//80 267//267 266//266
f 267//267 80//80 71//71
f 246//246 265//265 268//268
f 249//249 246//246 268//268
f 269//269 249//249 268//268
f 269//269 268//268 265//265
f 270//270 266//266 267//267
f 266//266 270//270 265//265
f 270//270 267//267 271//271
f 271//271 265//265 270//270
f 267//267 71//71 272//272
f 272//272 271//271 267//267
f 271//271 273//273 265//265
f 265//265 273//273 269//269
f 249//249 269//269 274//274
f 274//274 229//229 249//249
f 272//272 71//71 275//275
f 71//71 72//72 275//275
f 276//276 271//271 272//272
f 271//271 276//276 273//273
f 277//277 272//272 275//275
f 275//275 72//72 277//277
f 277//277 276//276 272//272
f 278//278 277//277 72//72
f 68//68 278//278 72//72
f 277//277 279//279 276//276
f 273//273 276//276 279//279
f 278//278 279//279 277//277
f 280//280 273//273 279//279
f 273//273 280//280 281//281
f 273//273 281//281 269//269
f 282//282 269//269 281//281
f 280//280 282//282 281//281
f 282//282 274//274 269//269
f 279//279 278//278 283//283
f 280//280 279//279 283//283
f 283//283 284//284 280//280
f 274//274 282//282 285//285
f 280//280 285//285 282//282
f 278//278 68//68 286//286
f 283//283 278//278 287//287
f 278//278 286//286 287//287
f 68//68 288//288 286//286
f 287//287 286//286 288//288
f 63//63 288//288 68//68
f 289//289 283//283 287//287
f 289//289 284//284 283//283
f 287//287 288//288 290//290
f 287//287 290//290 289//289
f 63//63 291//291 288//288
f 290//290 288//288 291//291
f 63//63 292//292 291//291
f 57//57 292//292 63//63
f 292//292 293//293 291//291
f 290//290 291//291 293//293
f 292//292 57//57 294//294
f 294//294 293//293 292//292
f 294//294 57//57 52//52
f 294//294 52//52 295//295
f 294//294 295//295 296//296
f 295//295 52//52 49//49
f 297//297 293//293 294//294
f 296//296 297//297 294//294
f 297//297 298//298 293//293
f 298//298 290//290 293//293
f 298//298 297//297 296//296
f 299//299 289//289 290//290
f 298//298 299//299 290//290
f 300//300 298//298 296//296
f 300//300 299//299 298//298
f 301//301 289//289 299//299
f 284//284 289//289 301//301
f 299//299 300//300 302//302
f 302//302 301//301 299//299
f 303//303 300//300 296//296
f 300//300 303//303 302//302
f 296//296 304//304 303//303
f 305//305 301//301 302//302
f 284//284 301//301 305//305
f 304//304 296//296 306//306
f 306//306 296//296 295//295
f 306//306 295//295 307//307
f 307//307 295//295 49//49
f 306//306 307//307 49//49
f 308//308 306//306 49//49
f 304//304 306//306 308//308
f 308//308 49//49 309//309
f 49//49 48//48 309//309
f 309//309 310//310 308//308
f 310//310 304//304 308//308
f 48//48 311//311 309//309
f 309//309 312//312 310//310
f 313//313 311//311 48//48
f 304//304 310//310 314//314
f 312//312 314//314 310//310
f 315//315 312//312 311//311
f 316//316 314//314 312//312
f 315//315 316//316 312//312
f 304//304 314//314 317//317
f 314//314 316//316 317//317
f 311//311 313//313 318//318
f 315//315 311//311 318//318
f 304//304 317//317 319//319
f 303//303 304//304 319//319
f 317//317 320//320 319//319
f 320//320 303//303 319//319
f 317//317 316//316 321//321
f 317//317 321//321 320//320
f 322//322 316//316 315//315
f 316//316 322//322 321//321
f 303//303 320//320 323//323
f 302//302 303//303 323//323
f 323//323 305//305 302//302
f 324//324 305//305 323//323
f 323//323 325//325 324//324
f 323//323 320//320 325//325
f 325//325 320//320 321//321
f 321//321 322//322 325//325
f 315//315 326//326 322//322
f 325//325 322//322 326//326
f 315//315 318//318 326//326
f 326//326 327//327 325//325
f 325//325 327//327 324//324
f 318//318 328//328 326//326
f 326//326 328//328 327//327
f 324//324 327//327 329//329
f 327//327 328//328 329//329
f 330//330 328//328 318//318
f 330//330 318//318 313//313
f 330//330 313//313 331//331
f 313//313 332//332 331//331
f 328//328 330//330 333//333
f 331//331 333//333 330//330
f 329//329 328//328 334//334
f 328//328 333//333 334//334
f 335//335 333//333 331//331
f 334//334 333//333 335//335
f 335//335 336//336 334//334
f 337//337 334//334 336//336
f 334//334 337//337 329//329
f 324//324 329//329 337//337
f 331//331 338//338 335//335
f 332//332 338//338 331//331
f 338//338 339//339 335//335
f 338//338 332//332 339//339
f 339//339 336//336 335//335
f 340//340 339//339 332//332
f 332//332 341//341 340//340
f 342//342 324//324 337//337
f 337//337 336//336 343//343
f 343//343 342//342 337//337
f 344//344 336//336 339//339
f 345//345 336//336 344//344
f 346//346 339//339 340//340
f 339//339 346//346 344//344
f 344//344 346//346 347//347
f 347//347 346//346 340//340
f 348//348 345//345 344//344
f 348//348 344//344 347//347
f 349//349 345//345 348//348
f 350//350 348//348 347//347
f 348//348 350//350 349//349
f 347//347 340//340 351//351
f 350//350 347//347 351//351
f 341//341 352//352 340//340
f 352//352 351//351 340//340
f 350//350 351//351 353//353
f 349//349 350//350 353//353
f 354//354 353//353 351//351
f 351//351 352//352 354//354
f 349//349 353//353 354//354
f 355//355 352//352 341//341
f 354//354 352//352 355//355
f 355//355 341//341 356//356
f 354//354 355//355 357//357
f 357//357 355//355 356//356
f 358//358 349//349 354//354
f 357//357 358//358 354//354
f 359//359 357//357 356//356
f 356//356 212//212 359//359
f 360//360 358//358 357//357
f 360//360 357//357 359//359
f 359//359 212//212 361//361
f 212//212 250//250 361//361
f 359//359 362//362 360//360
f 362//362 359//359 361//361
f 363//363 349//349 358//358
f 364//364 358//358 360//360
f 364//364 363//363 358//358
f 360//360 365//365 364//364
f 365//365 360//360 362//362
f 365//365 363//363 364//364
f 366//366 349//349 363//363
f 349//349 366//366 345//345
f 363//363 365//365 367//367
f 366//366 363//363 367//367
f 366//366 368//368 345//345
f 366//366 367//367 368//368
f 368//368 369//369 345//345
f 345//345 369//369 370//370
f 368//368 370//370 369//369
f 368//368 371//371 370//370
f 336//336 345//345 370//370
f 370//370 372//372 336//336
f 372//372 343//343 336//336
f 370//370 373//373 372//372
f 371//371 373//373 370//370
f 371//371 374//374 373//373
f 343//343 372//372 375//375
f 372//372 373//373 375//375
f 367//367 365//365 376//376
f 367//367 376//376 377//377
f 365//365 362//362 376//376
f 377//377 376//376 362//362
f 367//367 378//378 368//368
f 378//378 367//367 377//377
f 373//373 374//374 379//379
f 373//373 379//379 375//375
f 343//343 375//375 380//380
f 343//343 380//380 342//342
f 379//379 381//381 375//375
f 379//379 374//374 381//381
f 375//375 382//382 380//380
f 380//380 382//382 342//342
f 381//381 382//382 375//375
f 383//383 377//377 362//362
f 362//362 361//361 383//383
f 383//383 361//361 384//384
f 384//384 361//361 250//250
f 383//383 384//384 385//385
f 377//377 383//383 385//385
f 386//386 384//384 250//250
f 384//384 386//386 385//385
f 386//386 250//250 243//243
f 387//387 385//385 386//386
f 386//386 243//243 387//387
f 388//388 377//377 385//385
f 385//385 387//387 388//388
f 387//387 243//243 389//389
f 243//243 241//241 389//389
f 387//387 389//389 241//241
f 387//387 241//241 390//390
f 390//390 388//388 387//387
f 377//377 388//388 391//391
f 378//378 377//377 391//391
f 241//241 392//392 390//390
f 241//241 240//240 392//392
f 240//240 393//393 392//392
f 394//394 391//391 388//388
f 394//394 388//388 390//390
f 391//391 395//395 378//378
f 368//368 378//378 395//395
f 396//396 391//391 394//394
f 391//391 396//396 395//395
f 390//390 396//396 394//394
f 368//368 395//395 396//396
f 390//390 392//392 397//397
f 397//397 396//396 390//390
f 393//393 397//397 392//392
f 398//398 368//368 396//396
f 397//397 398//398 396//396
f 398//398 397//397 393//393
f 368//368 398//398 371//371
f 398//398 393//393 371//371
f 240//240 399//399 393//393
f 240//240 236//236 399//399
f 400//400 399//399 236//236
f 400//400 393//393 399//399
f 236//236 228//228 400//400
f 400//400 228//228 229//229
f 393//393 401//401 371//371
f 400//400 401//401 393//393
f 400//400 229//229 402//402
f 401//401 400//400 402//402
f 274//274 402//402 229//229
f 371//371 401//401 403//403
f 403//403 374//374 371//371
f 401//401 404//404 403//403
f 401//401 402//402 404//404
f 403//403 404//404 405//405
f 405//405 404//404 402//402
f 403//403 405//405 374//374
f 274//274 406//406 402//402
f 405//405 402//402 406//406
f 406//406 274//274 285//285
f 406//406 407//407 405//405
f 374//374 405//405 407//407
f 285//285 407//407 406//406
f 374//374 407//407 408//408
f 285//285 408//408 407//407
f 381//381 374//374 408//408
f 408//408 285//285 280//280
f 381//381 408//408 409//409
f 408//408 280//280 409//409
f 382//382 381//381 409//409
f 409//409 280//280 284//284
f 409//409 410//410 382//382
f 284//284 410//410 409//409
f 411//411 382//382 410//410
f 342//342 382//382 411//411
f 324//324 342//342 411//411
f 412//412 410//410 284//284
f 411//411 410//410 412//412
f 305//305 412//412 284//284
f 413//413 324//324 411//411
f 305//305 324//324 413//413
f 412//412 413//413 411//411
f 412//412 305//305 413//413
