# rock_sculpture_COL
v -0.800190687 0.752590001 0.00230585993
v 0.0028536208 0.828449905 0.00230587251
v -0.69260323 0.752590001 -0.399216264
v -0.69260323 0.752590001 -0.399216264
v 0.0028536208 0.828449905 0.00230587251
v -0.398668557 0.752590001 -0.693150938
v -0.398668557 0.752590001 -0.693150938
v 0.0028536208 0.828449905 0.00230587251
v 0.00285358122 0.752590001 -0.800738454
v 0.00285358122 0.752590001 -0.800738454
v 0.0028536208 0.828449905 0.00230587251
v 0.404375702 0.752590001 -0.693150938
v 0.404375702 0.752590001 -0.693150938
v 0.0028536208 0.828449905 0.00230587251
v 0.698310316 0.752590001 -0.399216294
v 0.698310316 0.752590001 -0.399216294
v 0.0028536208 0.828449905 0.00230587251
v 0.805897832 0.752590001 0.00230573863
v 0.805897832 0.752590001 0.00230573863
v 0.0028536208 0.828449905 0.00230587251
v 0.698310375 0.752590001 0.403827846
v 0.698310375 0.752590001 0.403827846
v 0.0028536208 0.828449905 0.00230587251
v 0.404375911 0.752590001 0.69776243
v 0.404375911 0.752590001 0.69776243
v 0.0028536208 0.828449905 0.00230587251
v 0.00285391952 0.752590001 0.805350065
v 0.00285391952 0.752590001 0.805350065
v 0.0028536208 0.828449905 0.00230587251
v -0.39866817 0.752590001 0.697762787
v -0.39866817 0.752590001 0.697762787
v 0.0028536208 0.828449905 0.00230587251
v -0.692602932 0.752590001 0.403828502
v -0.692602932 0.752590001 0.403828502
v 0.0028536208 0.828449905 0.00230587251
v -0.800190687 0.752590001 0.00230585993
v -0.69260323 0.693474472 -0.399216264
v -0.398668557 0.752590001 -0.693150938
v -0.398668557 0.693474472 -0.693150938
v -0.69260323 0.752590001 -0.399216264
v -0.800190687 0.693474472 0.00230585993
v -0.800190687 0.752590001 0.00230585993
v -0.692602932 0.693474472 0.403828502
v -0.692602932 0.752590001 0.403828502
v -0.39866817 0.693474472 0.697762787
v -0.39866817 0.752590001 0.697762787
v 0.00285391952 0.693474472 0.805350065
v 0.00285391952 0.752590001 0.805350065
v 0.404375911 0.693474472 0.69776243
v 0.404375911 0.752590001 0.69776243
v 0.698310375 0.693474472 0.403827846
v 0.698310375 0.752590001 0.403827846
v 0.805897832 0.693474472 0.00230573863
v 0.805897832 0.752590001 0.00230573863
v 0.698310316 0.693474472 -0.399216294
v 0.698310316 0.752590001 -0.399216294
v 0.404375702 0.693474472 -0.693150938
v 0.404375702 0.752590001 -0.693150938
v 0.00285358122 0.693474472 -0.800738454
v 0.00285358122 0.752590001 -0.800738454
v -0.398668557 0.693474472 -0.693150938
v -0.398668557 0.752590001 -0.693150938
v -0.610618472 0.0150634758 0.00230587181
v -0.487316281 0.696646929 0.00230587227
v -0.421645999 0.696646929 -0.242779076
v -0.528428853 0.0150634758 -0.304430157
v -0.528428614 0.0150634758 0.309042275
v -0.42164579 0.696646929 0.24739109
v -0.487316281 0.696646929 0.00230587227
v -0.610618472 0.0150634758 0.00230587181
v -0.303882152 0.0150634758 0.533588409
v -0.242231056 0.696646929 0.426805615
v -0.42164579 0.696646929 0.24739109
v -0.528428614 0.0150634758 0.309042275
v 0.00285386015 0.0150634758 0.61577791
v 0.00285382499 0.696646929 0.492475778
v -0.242231056 0.696646929 0.426805615
v -0.303882152 0.0150634758 0.533588409
v 0.309589773 0.0150634758 0.533588171
v 0.247938678 0.696646929 0.426805377
v 0.00285382499 0.696646929 0.492475778
v 0.00285386015 0.0150634758 0.61577791
v 0.534136057 0.0150634758 0.309041768
v 0.427353173 0.696646929 0.247390687
v 0.247938678 0.696646929 0.426805377
v 0.309589773 0.0150634758 0.533588171
v 0.616325617 0.0150634758 0.00230577914
v 0.493023455 0.696646929 0.00230579847
v 0.427353173 0.696646929 0.247390687
v 0.534136057 0.0150634758 0.309041768
v 0.534135997 0.0150634758 -0.304430187
v 0.427353173 0.696646929 -0.242779091
v 0.493023455 0.696646929 0.00230579847
v 0.616325617 0.0150634758 0.00230577914
v 0.309589624 0.0150634758 -0.52897656
v 0.247938573 0.696646929 -0.422193676
v 0.427353173 0.696646929 -0.242779091
v 0.534135997 0.0150634758 -0.304430187
v 0.00285360171 0.0150634758 -0.611166179
v 0.00285361847 0.696646929 -0.487863958
v 0.247938573 0.696646929 -0.422193676
v 0.309589624 0.0150634758 -0.52897656
v -0.30388245 0.0150634758 -0.52897656
v -0.242231295 0.696646929 -0.422193676
v 0.00285361847 0.696646929 -0.487863958
v 0.00285360171 0.0150634758 -0.611166179
v -0.528428853 0.0150634758 -0.304430157
v -0.421645999 0.696646929 -0.242779076
v -0.242231295 0.696646929 -0.422193676
v -0.30388245 0.0150634758 -0.52897656
v -0.619097829 -0.00075027463 -0.356777906
v -0.356287569 0.036129456 -0.619588137
v -0.356287569 -0.00075027463 -0.619588137
v -0.619097829 0.036129456 -0.356777906
v -0.71529305 -0.00075027463 0.00222749589
v -0.71529305 0.036129456 0.00222749636
v -0.619097531 -0.00075027463 0.361233354
v -0.619097531 0.036129456 0.361233383
v -0.356287211 -0.00075027463 0.624043345
v -0.356287211 0.036129456 0.624043345
v 0.00271815318 -0.00075027463 0.720238328
v 0.00271815294 0.036129456 0.720238328
v 0.477567405 -0.00075027463 0.607890546
v 0.477567405 0.036129456 0.607890546
v 0.718696654 -0.00075027463 -0.265467852
v 0.718696654 0.036129456 -0.265467852
v 0.361723274 -0.00075027463 -0.619588137
v 0.361723274 0.036129456 -0.619588137
v 0.00271785073 -0.00075027463 -0.715783358
v 0.0027178477 0.036129456 -0.715783358
v -0.356287569 -0.00075027463 -0.619588137
v -0.356287569 0.036129456 -0.619588137
v 0.00271785073 -0.00075027463 -0.715783358
v -0.00874370523 -0.00075027463 -0.00438983273
v -0.356287569 -0.00075027463 -0.619588137
v 0.361723274 -0.00075027463 -0.619588137
v -0.619097829 -0.00075027463 -0.356777906
v 0.718696654 -0.00075027463 -0.265467852
v -0.71529305 -0.00075027463 0.00222749589
v 0.477567405 -0.00075027463 0.607890546
v -0.619097531 -0.00075027463 0.361233354
v 0.00271815318 -0.00075027463 0.720238328
v -0.00874370523 -0.00075027463 -0.00438983273
v -0.356287211 -0.00075027463 0.624043345
v -0.356287211 0.036129456 0.624043345
v 0.00271788589 0.036129456 0.00222750846
v -0.619097531 0.036129456 0.361233383
v 0.00271815294 0.036129456 0.720238328
v -0.71529305 0.036129456 0.00222749636
v 0.477567405 0.036129456 0.607890546
v -0.619097829 0.036129456 -0.356777906
v 0.718696654 0.036129456 -0.265467852
v -0.356287569 0.036129456 -0.619588137
v 0.361723274 0.036129456 -0.619588137
v 0.0027178477 0.036129456 -0.715783358
v 0.00285358122 0.693474472 -0.800738454
v -0.00996535737 0.693474472 -0.00509515312
v -0.398668557 0.693474472 -0.693150938
v 0.404375702 0.693474472 -0.693150938
v -0.69260323 0.693474472 -0.399216264
v 0.698310316 0.693474472 -0.399216294
v -0.800190687 0.693474472 0.00230585993
v 0.805897832 0.693474472 0.00230573863
v -0.692602932 0.693474472 0.403828502
v 0.698310375 0.693474472 0.403827846
v 0.404375911 0.693474472 0.69776243
v -0.00996535737 0.693474472 -0.00509515312
v -0.39866817 0.693474472 0.697762787
v 0.00285391952 0.693474472 0.805350065
vn -0.0940168574 0.995251775 -0.0251917318
vn -0.09401685 0.995251775 -0.0251917336
vn -0.0940168649 0.995251775 -0.0251917336
vn -0.0688251257 0.995251775 -0.0688251257
vn -0.0688251257 0.995251775 -0.0688251257
vn -0.0688251257 0.995251775 -0.0688251257
vn -0.0251917336 0.995251775 -0.09401685
vn -0.0251917336 0.995251775 -0.09401685
vn -0.0251917318 0.995251775 -0.0940168425
vn 0.0251917336 0.995251775 -0.0940168649
vn 0.0251917336 0.995251775 -0.0940168649
vn 0.0251917336 0.995251775 -0.0940168649
vn 0.0688251331 0.995251775 -0.0688251108
vn 0.0688251331 0.995251775 -0.0688251108
vn 0.0688251257 0.995251775 -0.0688251108
vn 0.0940168649 0.995251775 -0.0251917411
vn 0.0940168649 0.995251775 -0.0251917411
vn 0.0940168649 0.995251775 -0.0251917411
vn 0.0940168872 0.995251775 0.025191728
vn 0.0940168947 0.995251775 0.0251917243
vn 0.0940168947 0.995251775 0.0251917262
vn 0.068825148 0.995251775 0.0688251257
vn 0.068825148 0.995251775 0.0688251182
vn 0.068825148 0.995251775 0.0688251182
vn 0.0251917839 0.995251775 0.0940168649
vn 0.0251917839 0.995251775 0.0940168649
vn 0.0251917858 0.995251775 0.0940168723
vn -0.0251916889 0.995251775 0.0940168872
vn -0.0251916908 0.995251775 0.0940168947
vn -0.0251916926 0.995251775 0.0940168947
vn -0.0688250735 0.995251775 0.0688251704
vn -0.0688250735 0.995251775 0.0688251704
vn -0.068825081 0.995251775 0.0688251778
vn -0.09401685 0.995251775 0.0251917746
vn -0.09401685 0.995251775 0.0251917746
vn -0.09401685 0.995251775 0.0251917746
vn -0.866025448 0 -0.5
vn -0.5 0 -0.866025448
vn -0.5 0 -0.866025448
vn -0.866025448 0 -0.5
vn -1 0 1.86599323E-07
vn -1 0 1.86599323E-07
vn -0.86602515 0 0.500000477
vn -0.86602515 0 0.500000477
vn -0.499999493 0 0.866025686
vn -0.499999493 0 0.866025686
vn 4.61587774E-07 0 1
vn 4.61587774E-07 0 1
vn 0.500000238 0 0.866025269
vn 0.500000238 0 0.866025269
vn 0.866025507 0 0.499999791
vn 0.866025507 0 0.499999791
vn 1 0 -1.17852203E-07
vn 1 0 -1.17852203E-07
vn 0.866025448 0 -0.49999997
vn 0.866025448 0 -0.49999997
vn 0.5 0 -0.866025448
vn 0.5 0 -0.866025448
vn 0 0 -1
vn 0 0 -1
vn -0.5 0 -0.866025448
vn -0.5 0 -0.866025448
vn -0.951508224 0.172133029 -0.254955679
vn -0.951508224 0.172133043 -0.254955709
vn -0.951508164 0.172133073 -0.254955739
vn -0.951508224 0.172133029 -0.254955679
vn -0.951508045 0.172133043 0.254956156
vn -0.951508045 0.172133058 0.254956126
vn -0.951508045 0.172133058 0.254956126
vn -0.951508045 0.172133043 0.254956156
vn -0.696551859 0.172133058 0.696552694
vn -0.696551859 0.172133058 0.696552694
vn -0.696551859 0.172133058 0.696552694
vn -0.696551859 0.172133058 0.696552694
vn -0.254955351 0.172133029 0.951508343
vn -0.254955351 0.172132999 0.951508224
vn -0.254955351 0.172133014 0.951508343
vn -0.254955322 0.172133014 0.951508343
vn 0.254956126 0.172132999 0.951508045
vn 0.254956186 0.172132999 0.951508045
vn 0.254956126 0.172132999 0.951508045
vn 0.254956126 0.172132999 0.951508045
vn 0.696552634 0.172133043 0.696552038
vn 0.696552634 0.172133043 0.696551859
vn 0.696552634 0.172133043 0.696551919
vn 0.696552634 0.172133043 0.696551919
vn 0.951508164 0.172133073 0.254955709
vn 0.951508224 0.172133073 0.254955679
vn 0.951508224 0.172133073 0.254955679
vn 0.951508164 0.172133073 0.254955709
vn 0.951508164 0.172133073 -0.254955739
vn 0.951508164 0.172133073 -0.254955769
vn 0.951508164 0.172133073 -0.254955769
vn 0.951508164 0.172133073 -0.254955739
vn 0.696552157 0.172133029 -0.696552336
vn 0.696552157 0.172133043 -0.696552336
vn 0.696552157 0.172133043 -0.696552336
vn 0.696552157 0.172133029 -0.696552336
vn 0.254955709 0.172133073 -0.951508164
vn 0.254955739 0.172133118 -0.951508164
vn 0.254955709 0.172133073 -0.951508164
vn 0.254955679 0.172133088 -0.951508224
vn -0.254955709 0.172133073 -0.951508164
vn -0.254955739 0.172133118 -0.951508164
vn -0.254955709 0.172133073 -0.951508164
vn -0.254955679 0.172133088 -0.951508224
vn -0.696552277 0.172133073 -0.696552336
vn -0.696552277 0.172133073 -0.696552336
vn -0.696552157 0.172133058 -0.696552336
vn -0.696552157 0.172133073 -0.696552336
vn -0.866025448 0 -0.5
vn -0.5 0 -0.866025448
vn -0.5 0 -0.866025448
vn -0.866025448 0 -0.5
vn -1 0 1.66957278E-07
vn -1 0 1.66957278E-07
vn -0.866025269 -2.88118457E-07 0.500000238
vn -0.86602509 -2.88118599E-07 0.500000596
vn -0.499999493 -2.30494919E-07 0.866025805
vn -0.499999493 -2.30494919E-07 0.866025805
vn -0.0147365676 -2.91040124E-07 0.9998914
vn -0.0147365676 -2.91040124E-07 0.9998914
vn 0.693884075 -3.48678327E-07 0.720086694
vn 0.693883717 -3.48678526E-07 0.720087051
vn 0.966386497 0 -0.257093698
vn 0.966386497 0 -0.257093698
vn 0.49826166 0 -0.867026746
vn 0.49826166 0 -0.867026746
vn 0 0 -1
vn 0 0 -1
vn -0.5 0 -0.866025448
vn -0.5 0 -0.866025448
vn 0 -1 0
vn 0 -1 0
vn 0 -1 0
vn 0 -1 0
vn 0 -1 0
vn 0 -1 0
vn 0 -1 0
vn 0 -1 0
vn 0 -1 0
vn 0 -1 0
vn 0 -1 0
vn 0 -1 0
vn 0 1 0
vn 0 1 0
vn 0 1 0
vn 0 1 0
vn 0 1 0
vn 0 1 0
vn 0 1 0
vn 0 1 0
vn 0 1 0
vn 0 1 0
vn 0 1 0
vn 0 -1 0
vn 0 -1 0
vn 0 -1 0
vn 0 -1 0
vn 0 -1 0
vn 0 -1 0
vn 0 -1 0
vn 0 -1 0
vn 0 -1 0
vn 0 -1 0
vn 0 -1 0
vn 0 -1 0
vn 0 -1 0
vn 0 -1 0
vt 0.75 1
vt 0.525917053 1
vt 0.833333313 1
vt 0.833333313 1
vt 0.525917053 1
vt 0.916666687 1
vt 0.916666687 1
vt 0.525917053 1
vt 0.888354599 1
vt 0.888354599 1
vt 0.525917053 1
vt 0.755983233 1
vt 0.755983233 1
vt 0.525917053 1
vt 0.555021286 1
vt 0.555021286 1
vt 0.525917053 1
vt 0.339316487 1
vt 0.339316487 1
vt 0.525917053 1
vt 0.166666701 1
vt 0.166666701 1
vt 0.525917053 1
vt 0.0833332837 1
vt 0.0833332837 1
vt 0.525917053 1
vt 0.111645341 1
vt 0.111645341 1
vt 0.525917053 1
vt 0.244016647 1
vt 0.244016647 1
vt 0.525917053 1
vt 0.666666567 1
vt 0.666666567 1
vt 0.525917053 1
vt 0.75 1
vt 0.833333313 0
vt 0.916666687 1
vt 0.916666687 0
vt 0.833333313 1
vt 0.75 0
vt 0.75 1
vt 0.666666567 0
vt 0.666666567 1
vt 0.583333254 0
vt 0.583333254 1
vt 0.499999911 0
vt 0.499999911 1
vt 0.416666657 0
vt 0.416666657 1
vt 0.333333284 0
vt 0.333333284 1
vt 0.249999985 0
vt 0.249999985 1
vt 0.166666672 0
vt 0.166666672 1
vt 0.0833333507 0
vt 0.0833333507 1
vt 3.79454939E-08 0
vt 3.79454939E-08 1
vt -0.0833333135 0
vt -0.0833333135 1
vt 0.75 0
vt 0.75 0
vt 0.833333313 0
vt 0.833333313 0
vt 0.444978237 0
vt 0.444978237 0
vt 0.75 0
vt 0.75 0
vt 0.244016409 0
vt 0.244016409 0
vt 0.444978237 0
vt 0.444978237 0
vt 0.111645155 0
vt 0.111645155 0
vt 0.244016409 0
vt 0.244016409 0
vt 0.0833331943 0
vt 0.0833331943 0
vt 0.111645155 0
vt 0.111645155 0
vt 0.166666657 0
vt 0.166666657 0
vt 0.0833331943 0
vt 0.0833331943 0
vt 0.339316428 0
vt 0.339316428 0
vt 0.166666657 0
vt 0.166666657 0
vt 0.555021226 0
vt 0.555021226 0
vt 0.339316428 0
vt 0.339316428 0
vt 0.755983114 0
vt 0.755983114 0
vt 0.555021226 0
vt 0.555021226 0
vt 0.88835454 0
vt 0.88835454 0
vt 0.755983114 0
vt 0.755983114 0
vt 0.916666687 0
vt 0.916666687 0
vt 0.88835454 0
vt 0.88835454 0
vt 0.833333313 0
vt 0.833333313 0
vt 0.916666687 0
vt 0.916666687 0
vt 0.833333313 0
vt 0.916666687 1
vt 0.916666687 0
vt 0.833333313 1
vt 0.75 0
vt 0.75 1
vt 0.666666567 0
vt 0.666666567 1
vt 0.583333254 0
vt 0.583333254 1
vt 0.499999911 0
vt 0.499999911 1
vt 0.416666657 0
vt 0.333333284 1
vt 0.249999985 0
vt 0.166666672 1
vt 0.0833333507 0
vt 0.0833333507 1
vt 3.79454939E-08 0
vt 3.79454939E-08 1
vt -0.0833333135 0
vt -0.0833333135 1
vt 0.88835454 0
vt 0.58763057 0
vt 0.916666687 0
vt 0.755983114 0
vt 0.833333313 0
vt 0.339316428 0
vt 0.75 0
vt 0.0833331943 0
vt 0.444978237 0
vt 0.111645155 0
vt 0.266879946 0
vt 0.244016409 0
vt 0.244016647 1
vt 0.525917053 1
vt 0.666666567 1
vt 0.111645341 1
vt 0.75 1
vt 0.166666701 1
vt 0.833333313 1
vt 0.555021286 1
vt 0.916666687 1
vt 0.755983233 1
vt 0.888354599 1
vt 0.88835454 0
vt 0.58763057 0
vt 0.916666687 0
vt 0.755983114 0
vt 0.833333313 0
vt 0.555021226 0
vt 0.75 0
vt 0.339316428 0
vt 0.444978237 0
vt 0.166666657 0
vt 0.0833331943 0
vt 0.266879946 0
vt 0.244016409 0
vt 0.111645155 0
g submesh0
f 1/1/1 2/2/2 3/3/3
f 4/4/4 5/5/5 6/6/6
f 7/7/7 8/8/8 9/9/9
f 10/10/10 11/11/11 12/12/12
f 13/13/13 14/14/14 15/15/15
f 16/16/16 17/17/17 18/18/18
f 19/19/19 20/20/20 21/21/21
f 22/22/22 23/23/23 24/24/24
f 25/25/25 26/26/26 27/27/27
f 28/28/28 29/29/29 30/30/30
f 31/31/31 32/32/32 33/33/33
f 34/34/34 35/35/35 36/36/36
f 37/37/37 38/38/38 39/39/39
f 37/37/37 40/40/40 38/38/38
f 41/41/41 40/40/40 37/37/37
f 41/41/41 42/42/42 40/40/40
f 43/43/43 42/42/42 41/41/41
f 43/43/43 44/44/44 42/42/42
f 45/45/45 44/44/44 43/43/43
f 45/45/45 46/46/46 44/44/44
f 47/47/47 46/46/46 45/45/45
f 47/47/47 48/48/48 46/46/46
f 49/49/49 48/48/48 47/47/47
f 49/49/49 50/50/50 48/48/48
f 51/51/51 50/50/50 49/49/49
f 51/51/51 52/52/52 50/50/50
f 53/53/53 52/52/52 51/51/51
f 53/53/53 54/54/54 52/52/52
f 55/55/55 54/54/54 53/53/53
f 55/55/55 56/56/56 54/54/54
f 57/57/57 56/56/56 55/55/55
f 57/57/57 58/58/58 56/56/56
f 59/59/59 58/58/58 57/57/57
f 59/59/59 60/60/60 58/58/58
f 61/61/61 60/60/60 59/59/59
f 61/61/61 62/62/62 60/60/60
f 63/63/63 64/64/64 65/65/65
f 63/63/63 65/65/65 66/66/66
f 67/67/67 68/68/68 69/69/69
f 67/67/67 69/69/69 70/70/70
f 71/71/71 72/72/72 73/73/73
f 71/71/71 73/73/73 74/74/74
f 75/75/75 76/76/76 77/77/77
f 75/75/75 77/77/77 78/78/78
f 79/79/79 80/80/80 81/81/81
f 79/79/79 81/81/81 82/82/82
f 83/83/83 84/84/84 85/85/85
f 83/83/83 85/85/85 86/86/86
f 87/87/87 88/88/88 89/89/89
f 87/87/87 89/89/89 90/90/90
f 91/91/91 92/92/92 93/93/93
f 91/91/91 93/93/93 94/94/94
f 95/95/95 96/96/96 97/97/97
f 95/95/95 97/97/97 98/98/98
f 99/99/99 100/100/100 101/101/101
f 99/99/99 101/101/101 102/102/102
f 103/103/103 104/104/104 105/105/105
f 103/103/103 105/105/105 106/106/106
f 107/107/107 108/108/108 109/109/109
f 107/107/107 109/109/109 110/110/110
f 111/111/111 112/112/112 113/113/113
f 111/111/111 114/114/114 112/112/112
f 115/115/115 114/114/114 111/111/111
f 115/115/115 116/116/116 114/114/114
f 117/117/117 116/116/116 115/115/115
f 117/117/117 118/118/118 116/116/116
f 119/119/119 118/118/118 117/117/117
f 119/119/119 120/120/120 118/118/118
f 121/121/121 120/120/120 119/119/119
f 121/121/121 122/122/122 120/120/120
f 123/123/123 122/122/122 121/121/121
f 123/123/123 124/124/124 122/122/122
f 125/125/125 124/124/124 123/123/123
f 125/125/125 126/126/126 124/124/124
f 127/127/127 126/126/126 125/125/125
f 127/127/127 128/128/128 126/126/126
f 129/129/129 128/128/128 127/127/127
f 129/129/129 130/130/130 128/128/128
f 131/131/131 130/130/130 129/129/129
f 131/131/131 132/132/132 130/130/130
f 133/133/133 134/134/134 135/135/135
f 136/136/136 134/134/134 133/133/133
f 135/135/135 134/134/134 137/137/137
f 138/138/138 134/134/134 136/136/136
f 137/137/137 134/134/134 139/139/139
f 140/140/140 134/134/134 138/138/138
f 139/139/139 134/134/134 141/141/141
f 142/142/142 143/143/143 140/140/140
f 141/141/141 143/143/143 144/144/144
f 144/144/144 143/143/143 142/142/142
f 145/145/145 146/146/146 147/147/147
f 148/148/148 146/146/146 145/145/145
f 147/147/147 146/146/146 149/149/149
f 150/150/150 146/146/146 148/148/148
f 149/149/149 146/146/146 151/151/151
f 152/152/152 146/146/146 150/150/150
f 151/151/151 146/146/146 153/153/153
f 154/154/154 146/146/146 152/152/152
f 153/153/153 146/146/146 155/155/155
f 155/155/155 146/146/146 154/154/154
f 156/156/156 157/157/157 158/158/158
f 159/159/159 157/157/157 156/156/156
f 158/158/158 157/157/157 160/160/160
f 161/161/161 157/157/157 159/159/159
f 160/160/160 157/157/157 162/162/162
f 163/163/163 157/157/157 161/161/161
f 162/162/162 157/157/157 164/164/164
f 165/165/165 157/157/157 163/163/163
f 166/166/166 157/157/157 165/165/165
f 164/164/164 167/167/167 168/168/168
f 169/169/169 167/167/167 166/166/166
f 168/168/168 167/167/167 169/169/169
