# roof.wall.right.collision
v -0.102060236 -9.18485073E-17 1.5
v -0.102060236 3.00000381 1.5
v -0.102060236 9.18485073E-17 -1.5
v -0.102060236 9.18485073E-17 -1.5
v -0.102060236 3.00000381 1.5
v 0.102510147 3.00000381 1.5
v 0.102510147 9.18485073E-17 -1.5
v -0.102060236 -9.18485073E-17 1.5
v -0.00103027339 3.00000358 1.505
v 0.102510147 -9.18485073E-17 1.5
v -0.00103027339 -1.52587887E-07 1.505
vn -0.590087652 -0.579995036 0.561606765
vn -0.578791201 0.761788845 0.290995449
vn -0.547110975 -0.320168257 -0.773409247
vn -0.547110975 -0.320168257 -0.773409247
vn -0.578791201 0.761788845 0.290995449
vn 0.578051627 0.7620731 0.291720599
vn 0.547110975 -0.320168257 -0.773409247
vn -0.590087652 -0.579995036 0.561606765
vn -0.000792987586 0.909147024 0.416474432
vn 0.58978498 -0.579930007 0.56199193
vn -0.000429615291 -0.696279585 0.717770517
g submesh0
f 1//1 2//2 3//3
f 4//4 5//5 6//6
f 6//6 7//7 4//4
f 8//8 4//4 7//7
f 5//5 9//9 6//6
f 9//9 5//5 8//8
f 7//7 10//10 8//8
f 7//7 6//6 10//10
f 9//9 8//8 11//11
f 6//6 9//9 11//11
f 10//10 11//11 8//8
f 6//6 11//11 10//10
