# roof.corner.90.concave.L.top.line.collision
v 4.5181694 3.24271512 -1.49999487
v 4.5181694 3.41398239 -1.49999511
v 4.08529234 2.86686945 -1.06206036
v 1.49998558 2.86686945 -1.06206048
v 4.08529234 2.83358479 -1.09089434
v 1.49998558 3.41398239 -1.49999559
v 1.49998558 2.83358479 -1.09089446
v 1.49998558 3.24271512 -1.49999535
vn 0.810909092 -0.428886592 -0.398098856
vn 0.724777818 0.640712082 -0.253348112
vn 0.307714075 0.033129245 0.950901985
vn -0.587524056 -0.0157214552 0.809053957
vn 0.37398234 -0.90454185 0.204795748
vn -0.544320941 0.791550219 -0.277782291
vn -0.573680222 -0.81855619 0.0292717442
vn -0.630265415 -0.29709509 -0.717286527
g submesh0
f 1//1 2//2 3//3
f 2//2 4//4 3//3
f 1//1 3//3 5//5
f 5//5 3//3 4//4
f 2//2 6//6 4//4
f 6//6 2//2 1//1
f 5//5 4//4 7//7
f 6//6 7//7 4//4
f 8//8 1//1 5//5
f 6//6 1//1 8//8
f 8//8 5//5 7//7
f 6//6 8//8 7//7
