# roof.bottom.line.collision
v -1.49999809 4.75738346E-07 1.5
v -1.49999809 0.102212541 1.75294495
v -1.49999809 0.131110623 1.62493145
v 1.50000179 0.131110623 1.62493134
v -1.49999809 1.19961078E-05 1.84092271
v 1.50000179 1.19770339E-05 1.84092247
v 1.50000179 0.102212533 1.75294471
v 1.50000179 4.75738346E-07 1.5
vn -0.547538459 -0.329537749 -0.769159615
vn -0.642857194 0.656585515 0.394499809
vn -0.611130834 0.757623851 -0.229183868
vn 0.611130714 0.757623911 -0.229183927
vn -0.548903942 -0.348460793 0.759789109
vn 0.548903942 -0.348460764 0.759789109
vn 0.642857194 0.656585515 0.394499779
vn 0.547538698 -0.32953763 -0.769159496
g submesh0
f 1//1 2//2 3//3
f 4//4 1//1 3//3
f 4//4 3//3 2//2
f 1//1 5//5 2//2
f 6//6 5//5 1//1
f 6//6 2//2 5//5
f 4//4 2//2 7//7
f 6//6 7//7 2//2
f 6//6 1//1 8//8
f 4//4 8//8 1//1
f 8//8 4//4 7//7
f 8//8 7//7 6//6
