# roof.triangle.up.collision
v 1.50001085 0.250000954 0.866005242
v 1.11034478E-05 3.25000095 -1.73199677
v -1.49998856 0.250000954 0.866005242
v 1.11797417E-05 3.00000095 -1.73199677
v 1.50001085 9.85052566E-07 0.866005242
v -1.49998832 9.85052566E-07 0.866005242
vn 0.800442874 0.310579866 0.512670696
vn -2.2488031E-07 0.89254272 -0.450962871
vn -0.800443232 0.310579658 0.512670517
vn 3.24278318E-07 -0.160881549 -0.986973763
vn 0.631762087 -0.735403121 0.245069176
vn -0.631761968 -0.73540324 0.245069101
g submesh0
f 1//1 2//2 3//3
f 1//1 4//4 2//2
f 3//3 5//5 1//1
f 1//1 5//5 4//4
f 6//6 3//3 2//2
f 3//3 6//6 5//5
f 5//5 6//6 4//4
f 6//6 2//2 4//4
