# roof.triangle.down.collision
v 1.11412128E-05 0.250001013 1.72998476
v 1.50001085 3.25000095 -0.868017435
v -1.49998856 3.25000095 -0.868017256
v 1.50001085 3.00000095 -0.868017435
v -1.49998832 3.00000095 -0.868017256
v 1.12175067E-05 1.02282024E-06 1.72998476
vn -3.24278432E-07 0.160881177 0.986973763
vn 0.631761909 0.735403299 -0.245069012
vn -0.631762087 0.73540318 -0.245069027
vn 0.800442994 -0.310579747 -0.512670696
vn -0.800442815 -0.310579956 -0.512670815
vn 3.37320358E-07 -0.892543137 0.450961977
g submesh0
f 1//1 2//2 3//3
f 1//1 4//4 2//2
f 5//5 3//3 2//2
f 5//5 2//2 4//4
f 1//1 6//6 4//4
f 6//6 1//1 3//3
f 4//4 6//6 5//5
f 6//6 3//3 5//5
