# roof.top.line.collision
v -1.49999321 3.24271512 -1.49999022
v -1.49999321 2.86686945 -1.06206048
v -1.49999321 3.41398239 -1.49999034
v 1.50000668 2.86686945 -1.06206048
v -1.49999321 2.83358479 -1.09089446
v 1.50000668 3.41398239 -1.49999046
v 1.50000668 2.83358479 -1.09089446
v 1.50000668 3.24271512 -1.49999034
vn -0.630266011 -0.297092795 -0.717287004
vn -0.587524235 -0.0157249533 0.809053719
vn -0.544320881 0.791551054 -0.277780086
vn 0.587524176 -0.015724957 0.809053898
vn -0.573679984 -0.818556488 0.0292680971
vn 0.544320881 0.791551054 -0.277780086
vn 0.573680222 -0.818556368 0.0292680934
vn 0.630266011 -0.297092766 -0.717287004
g submesh0
f 1//1 2//2 3//3
f 3//3 2//2 4//4
f 1//1 5//5 2//2
f 5//5 4//4 2//2
f 3//3 4//4 6//6
f 6//6 1//1 3//3
f 5//5 7//7 4//4
f 6//6 4//4 7//7
f 8//8 5//5 1//1
f 6//6 8//8 1//1
f 8//8 7//7 5//5
f 6//6 7//7 8//8
