# roof.top.line.end.right.collision
v -1.50000429 3.24271512 -1.5
v -1.50000429 3.41398239 -1.50000012
v -1.50000429 2.86686945 -1.06206048
v -2.05165148 2.86686945 -1.06206048
v -1.50000429 2.83358479 -1.09089446
v -2.30484986 3.41398239 -1.50000012
v -2.05165148 2.83358479 -1.09089446
v -2.30484986 3.24271512 -1.5
vn 0.630264997 -0.297097266 -0.717285991
vn 0.544321001 0.791549444 -0.277784467
vn 0.587523818 -0.0157192778 0.809054196
vn -0.405582696 0.0150852231 0.913933873
vn 0.57368046 -0.818555892 0.0292741116
vn -0.653136492 0.707395673 -0.270192415
vn -0.460712194 -0.872387171 0.163355336
vn -0.772491932 -0.369654953 -0.516344249
g submesh0
f 1//1 2//2 3//3
f 2//2 4//4 3//3
f 1//1 3//3 5//5
f 5//5 3//3 4//4
f 2//2 6//6 4//4
f 6//6 2//2 1//1
f 5//5 4//4 7//7
f 6//6 7//7 4//4
f 8//8 1//1 5//5
f 6//6 1//1 8//8
f 8//8 5//5 7//7
f 6//6 8//8 7//7
