# roof.triangle.up.collision
v 9.76562478E-06 3.2586453 -1.73632658
v -1.49998534 0.244763643 0.868635714
v 1.50000978 0.244763181 0.868636012
v 1.50000978 7.62939408E-07 0.868637145
v -1.49998772 6.10351549E-07 0.868636549
v 7.32421859E-06 3.01391983 -1.73629129
v -1.49998534 0.244763643 0.868635714
v -1.49998772 6.10351549E-07 0.868636549
v 1.50000978 7.62939408E-07 0.868637145
v 1.50000978 0.244763181 0.868636012
v 1.50000978 0.244763181 0.868636012
v 1.50000978 7.62939408E-07 0.868637145
v 7.32421859E-06 3.01391983 -1.73629129
v 9.76562478E-06 3.2586453 -1.73632658
v 9.76562478E-06 3.2586453 -1.73632658
v 7.32421859E-06 3.01391983 -1.73629129
v -1.49998772 6.10351549E-07 0.868636549
v -1.49998534 0.244763643 0.868635714
vt 0.337798059 0.601614058
vt 0.560034156 0.0125805791
vt 0.115223549 0.0127083622
vt 0.0666886494 0.545173168
vt 0.564559519 0.545170188
vt 0.31524381 -0.113312468
vt 0.484012485 0.765330672
vt 0.484012544 0.727431178
vt 0.0460679084 0.727431178
vt 0.0460679084 0.765330672
vt 0.464280874 0.915599942
vt 0.483102411 0.89568609
vt 0.02069466 0.895659566
vt 0.00187374582 0.915599942
vt 0.497164339 0.915599942
vt 0.478343576 0.895660162
vt 0.0159358401 0.895680785
vt 0.0347571708 0.915599942
g submesh0
f 1/1 2/2 3/3
f 4/4 5/5 6/6
f 7/7 8/8 9/9
f 7/7 9/9 10/10
f 11/11 12/12 13/13
f 11/11 13/13 14/14
f 15/15 16/16 17/17
f 15/15 17/17 18/18
