# roof.top.line_COL
v 1.49999487 2.97773075 -1.22173655
v -1.50000441 2.97773075 -1.22173905
v -1.50000441 3.23491049 -1.50000632
v 1.49999487 3.23491049 -1.50000393
v -1.50000441 3.23491049 -1.50000632
v -1.50000441 3.46987104 -1.50000572
v 1.49999487 3.46987104 -1.50000334
v 1.49999487 3.23491049 -1.50000393
v 1.49999487 2.97773075 -1.22173655
v 1.49999487 3.07036614 -1.132182
v -1.50000441 3.07036614 -1.13218451
v -1.50000441 2.97773075 -1.22173905
v -1.50000441 3.46987104 -1.50000572
v 1.49999487 3.24715209 -1.21242189
v 1.49999487 3.46987104 -1.50000334
v -1.50000441 3.24715209 -1.2124244
v 1.49999487 3.07036614 -1.132182
v -1.50000441 3.07036614 -1.13218451
v -1.50000441 2.97773075 -1.22173905
v -1.50000441 3.07036614 -1.13218451
v -1.50000441 3.23491049 -1.50000632
v -1.50000441 3.46987104 -1.50000572
v -1.50000441 3.24715209 -1.2124244
v 1.49999487 2.97773075 -1.22173655
v 1.49999487 3.23491049 -1.50000393
v 1.49999487 3.07036614 -1.132182
v 1.49999487 3.46987104 -1.50000334
v 1.49999487 3.24715209 -1.21242189
vn 0.578540087 -0.815331161 0.0229466576
vn -0.578540206 -0.815331101 0.0229460075
vn -0.627043009 -0.312209308 -0.713682353
vn 0.627043545 -0.312209278 -0.713681936
vn -0.627043009 -0.312209308 -0.713682353
vn -0.550389171 0.749630511 -0.367594719
vn 0.550389409 0.74963063 -0.367594153
vn 0.627043545 -0.312209278 -0.713681936
vn 0.578540087 -0.815331161 0.0229466576
vn 0.599756777 -0.136327311 0.788483679
vn -0.599757433 -0.136327252 0.788483262
vn -0.578540206 -0.815331101 0.0229460075
vn -0.550389171 0.749630511 -0.367594719
vn 0.656769872 0.467660129 0.591563523
vn 0.550389409 0.74963063 -0.367594153
vn -0.656770289 0.46765998 0.591563106
vn 0.599756777 -0.136327311 0.788483679
vn -0.599757433 -0.136327252 0.788483262
vn -0.578540206 -0.815331101 0.0229460075
vn -0.599757433 -0.136327252 0.788483262
vn -0.627043009 -0.312209308 -0.713682353
vn -0.550389171 0.749630511 -0.367594719
vn -0.656770289 0.46765998 0.591563106
vn 0.578540087 -0.815331161 0.0229466576
vn 0.627043545 -0.312209278 -0.713681936
vn 0.599756777 -0.136327311 0.788483679
vn 0.550389409 0.74963063 -0.367594153
vn 0.656769872 0.467660129 0.591563523
vt 0.998994827 0.185108438
vt 0.500985622 0.185109034
vt 0.500985622 0.247305036
vt 0.998995066 0.247304469
vt 0.732657015 0.981378138
vt 0.767288566 0.981378138
vt 0.767288566 0.518412828
vt 0.732657015 0.518412828
vt 0.50129652 1.08334649
vt 0.50129652 1.12024665
vt 0.99879843 1.12024713
vt 0.99879843 1.08334625
vt 0.998684824 1.24690592
vt 0.501182914 1.19382417
vt 0.501182914 1.24690545
vt 0.998684824 1.19382465
vt 0.501182914 1.18247461
vt 0.998684824 1.18247509
vt 0.317893416 0.635629773
vt 0.347150624 0.638247669
vt 0.360824078 0.579811037
vt 0.404497147 0.581417382
vt 0.367916048 0.632832468
vt 0.372175992 0.565823197
vt 0.327075392 0.621454477
vt 0.381663412 0.594150424
vt 0.338961124 0.664281845
vt 0.381201804 0.615969837
g submesh0
f 1/1/1 2/2/2 3/3/3
f 1/1/1 3/3/3 4/4/4
f 5/5/5 6/6/6 7/7/7
f 5/5/5 7/7/7 8/8/8
f 9/9/9 10/10/10 11/11/11
f 9/9/9 11/11/11 12/12/12
f 13/13/13 14/14/14 15/15/15
f 13/13/13 16/16/16 14/14/14
f 17/17/17 14/14/14 16/16/16
f 17/17/17 16/16/16 18/18/18
f 19/19/19 20/20/20 21/21/21
f 21/21/21 20/20/20 22/22/22
f 22/22/22 20/20/20 23/23/23
f 24/24/24 25/25/25 26/26/26
f 25/25/25 27/27/27 26/26/26
f 27/27/27 28/28/28 26/26/26
