# roof.corner.90.concave.R.collision
v -1.4993844 0.00555526698 1.50237226
v -1.62191737 0.00556045538 1.50237286
v -4.71565914 3.13467145 -1.62385571
v -1.49999022 0.251559734 1.49998987
v -1.49968743 3.1320343 -1.62821007
v -1.49998903 3.25156069 -1.5000149
v -4.4999876 3.25156236 -1.50001574
vn 0.546134233 -0.772373021 0.324310482
vn -0.469427764 -0.790643215 0.39309147
vn -0.905775785 0.116775125 -0.407349676
vn 0.470480889 0.313179731 0.824964345
vn 0.575180948 0.0131539283 -0.817920387
vn 0.578961492 0.815240264 0.0136712817
vn -0.348927647 0.917472303 0.191034317
vt 150.237701 149.938446
vt 150.237762 162.191742
vt -162.384827 471.566101
vt 149.999496 149.999023
vt -162.820251 149.968903
vt -150.000717 149.999023
vt -150.000809 449.998932
g submesh0
f 1/1/1 2/2/2 3/3/3
f 2/2/2 1/1/1 4/4/4
f 4/4/4 3/3/3 2/2/2
f 1/1/1 3/3/3 5/5/5
f 5/5/5 4/4/4 1/1/1
f 3/3/3 6/6/6 5/5/5
f 5/5/5 6/6/6 4/4/4
f 3/3/3 7/7/7 6/6/6
f 7/7/7 4/4/4 6/6/6
f 4/4/4 7/7/7 3/3/3
