# roof.triangle.up.top.line.collision
v -3.9651988E-07 3.25377345 -1.73482919
v -0.225435331 2.90356135 -1.36493695
v -6.62863249E-06 3.43171692 -1.73482919
v -0.225435331 2.87027693 -1.39377081
v 0.222115785 2.90356135 -1.3649379
v 0.222115785 2.87027693 -1.39377165
vn 0.0031557912 -0.0877932534 -0.996133685
vn -0.758686185 -0.0976513922 0.644095778
vn 0.000614926859 0.978539467 -0.206058204
vn -0.590556264 -0.789052129 -0.169233665
vn 0.756765842 -0.0963873714 0.646540761
vn 0.59096092 -0.78922987 -0.16697742
g submesh0
f 1//1 2//2 3//3
f 1//1 4//4 2//2
f 3//3 2//2 5//5
f 4//4 5//5 2//2
f 1//1 6//6 4//4
f 3//3 6//6 1//1
f 4//4 6//6 5//5
f 3//3 5//5 6//6
