# roof.wall.right.collision
v 0.100000456 2.99999952 1.4999994
v 0.100000456 -1.35924461E-06 -1.50000024
v -0.0992315635 -1.35924461E-06 -1.50000024
v -0.0992315635 2.99999952 1.4999994
v 0.000384674058 2.99999928 1.50499809
v -0.09923172 -7.12884344E-07 1.49999893
v -0.0992315635 2.99999952 1.4999994
v -0.0992315635 -1.35924461E-06 -1.50000024
v 0.100000456 -1.35924461E-06 -1.50000024
v 0.000384674058 2.99999928 1.50499809
v 0.100000456 -7.12884344E-07 1.49999893
v 0.100000456 2.99999952 1.4999994
v 0.000384674058 -7.11552673E-07 1.50499892
vn 0 0.707400978 -0.706812382
vn 0 0.707401037 -0.706812322
vn 0 0.707401037 -0.706812322
vn 0 0.707401037 -0.706812322
vn 0 0.707400978 -0.706812382
vn -0.590262651 -0.580034375 0.561382353
vn -0.482467711 0 0.875913799
vn -0.44721359 -0.89442718 1.69998856E-07
vn 0.44721359 -0.89442718 1.92745318E-07
vn 1.32976126E-07 0 1
vn 0.590262711 -0.580034375 0.561382234
vn 0.48246792 0 0.87591362
vn 0 -0.695995808 0.718045831
g submesh0
f 1//1 2//2 3//3
f 3//3 4//4 1//1
f 4//4 5//5 1//1
f 6//6 7//7 8//8
f 6//6 8//8 9//9
f 6//6 10//10 7//7
f 9//9 11//11 6//6
f 11//11 9//9 12//12
f 13//13 12//12 10//10
f 6//6 13//13 10//10
f 11//11 13//13 6//6
f 13//13 11//11 12//12
