# roof.top.line_COL
v -1.49971163 3.28141117 -1.40140474
v 1.49988461 3.34136009 -1.50000012
v -1.49972343 3.34136009 -1.50000012
v 1.49987268 3.28141117 -1.40140474
v -1.50214601 3.07706881 -1.30644143
v 1.50230706 3.07706881 -1.30644143
v -1.49988735 3.22681975 -1.53189468
v -1.49972343 3.34136009 -1.50000012
v 1.49987268 3.28141117 -1.40140474
v 1.50000703 3.22681975 -1.53189468
v 1.49988461 3.34136009 -1.50000012
v -1.49988735 3.22681975 -1.53189468
v -1.49972343 3.34136009 -1.50000012
v 1.49988461 3.34136009 -1.50000012
v 1.50000703 3.22681975 -1.53189468
vt 0.660564065 0.546376944
vt 0.670606732 0.546376169
vt 0.669977844 0.54633832
vt 0.660830617 0.546369553
vt 0.645906866 0.546113491
vt 0.645891428 0.54610616
vt 0.676174402 0.565514922
vt 0.673221409 0.5761199
vt 0.669824123 0.570569396
vt 0.6577425 0.565514922
vt 0.660695493 0.5761199
vt 0.657201529 0.908899248
vt 0.668266296 0.909006119
vt 0.6696347 0.545800209
vt 0.658634782 0.545952797
g submesh0
f 1/1 2/2 3/3
f 1/1 4/4 2/2
f 5/5 4/4 1/1
f 5/5 6/6 4/4
f 7/7 5/5 1/1
f 7/7 1/1 8/8
f 9/9 6/6 10/10
f 9/9 10/10 11/11
f 12/12 13/13 14/14
f 12/12 14/14 15/15
