# roof.collision
v 1.50000107 0.272602141 1.5
v 1.50000107 3.27260184 -1.5
v -1.49999833 3.27260184 -1.5
v 1.50000107 2.99999881 -1.5
v -1.49999809 2.99999881 -1.5
v 1.50000107 -1.16348269E-06 1.5
v -1.49999833 0.272602141 1.5
v -1.49999809 -1.16348269E-06 1.5
vn 0.630262434 0.29710862 0.717283607
vn 0.546918154 0.773459136 -0.320377231
vn -0.546918273 0.773459017 -0.320377231
vn 0.630262494 -0.297108591 -0.717283547
vn -0.630262196 -0.297108829 -0.717283785
vn 0.546918154 -0.773459136 0.320377141
vn -0.630262733 0.297108412 0.717283428
vn -0.546918035 -0.773459256 0.320377082
g submesh0
f 1//1 2//2 3//3
f 1//1 4//4 2//2
f 5//5 2//2 4//4
f 5//5 3//3 2//2
f 1//1 6//6 4//4
f 6//6 5//5 4//4
f 1//1 3//3 7//7
f 7//7 6//6 1//1
f 6//6 8//8 5//5
f 8//8 3//3 5//5
f 7//7 8//8 6//6
f 8//8 7//7 3//3
