# roof.top.line.end.left.collision
v 1.49774134 3.4026022 -1.49999952
v 1.49669123 3.13505936 -1.49999952
v 1.49720943 3.26311278 -1.32138455
v 1.97841656 3.05666161 -1.49999952
v 2.14375734 3.24607968 -1.49999952
v 2.18647671 2.95580101 -1.49999952
v 2.05413294 2.95087099 -1.49999952
v 2.19427538 2.72842407 -1.49999952
v 2.03871155 2.72842455 -1.49999952
v 2.11649346 2.68002105 -1.49999952
v 1.86736321 3.12342119 -1.49999952
v 2.14375734 3.24607968 -1.49999952
v 1.90591002 3.38666368 -1.49999952
v 1.49774134 3.4026022 -1.49999952
v 1.49669123 3.13505936 -1.49999952
v 2.03871155 2.72842455 -1.49999952
v 2.11649346 2.68002105 -1.49999952
v 2.1027782 2.72842407 -1.41198802
v 2.11367297 2.95104337 -1.41431546
v 2.19427538 2.72842407 -1.49999952
v 2.18647671 2.95580101 -1.49999952
v 2.1027782 2.72842407 -1.41198802
v 2.11649346 2.68002105 -1.49999952
v 2.11367297 2.95104337 -1.41431546
v 2.05413294 2.95087099 -1.49999952
v 1.97841656 3.05666161 -1.49999952
v 2.05413294 2.95087099 -1.49999952
v 2.07263374 3.15069675 -1.35477686
v 2.18647671 2.95580101 -1.49999952
v 2.14375734 3.24607968 -1.49999952
v 2.14375734 3.24607968 -1.49999952
v 1.90591002 3.38666368 -1.49999952
v 2.07263374 3.15069675 -1.35477686
v 1.88712096 3.25195336 -1.31056774
v 1.49774134 3.4026022 -1.49999952
v 1.97841656 3.05666161 -1.49999952
v 1.49720943 3.26311278 -1.32138455
v 1.86736321 3.12342119 -1.49999952
v 1.49669123 3.13505936 -1.49999952
vn -0.999992371 0.00392498821 8.72094533E-05
vn -0.999992371 0.00392498728 8.72094461E-05
vn -0.999992371 0.00392498774 8.72094461E-05
vn 0 0 -1
vn 0 0 -1
vn 0 0 -1
vn 0 -1.19209304E-07 -1
vn 0 0 -1
vn 0 0 -1
vn 0 0 -1
vn 0 0 -1
vn 0.127882078 0.214679673 -0.968276262
vn 0.0354478471 0.24420628 -0.969075143
vn 0.0101374825 0.259611756 -0.965659857
vn 0 0 -1
vn -0.97925216 -0.00449569011 0.202595353
vn -0.493134767 -0.792440593 0.358965337
vn -0.0370995551 -0.0100764483 0.999260724
vn -0.0289429128 -0.0696924999 0.997148573
vn 0.897182584 -0.0115746744 0.441508025
vn 0.91001761 -0.0239218343 0.413878798
vn -0.551324308 -0.304371744 0.776787817
vn 0.0121588334 -0.99606967 0.0877340436
vn -0.278193116 -0.137142822 0.95068419
vn -0.981367052 0.0147033175 0.191579148
vn -0.688979626 -0.383269906 0.615151405
vn -0.688979626 -0.383269966 0.615151405
vn 0.447023094 -0.135677248 0.884173095
vn 0.831275821 0.0751851499 0.550751865
vn 0.831275821 0.0751851425 0.550751925
vn 0.520376444 0.80945915 0.272000372
vn 0.152689949 0.961366355 0.229042292
vn 0.234251514 0.052852653 0.970738292
vn 0.0696189627 0.0766567588 0.994624019
vn 0.0368840098 0.944566905 0.326240689
vn -0.533186853 -0.786364019 0.311999172
vn -0.027307272 0.01471218 0.999518752
vn -0.122899048 -0.967404783 0.221413419
vn -0.0304684807 -0.970410287 0.239531875
vt 0.541910946 0.602868557
vt 0.550691128 0.417371154
vt 0.552568913 0.508423507
vt 0.715470493 0.74413991
vt 0.78275162 0.668124914
vt 0.795401931 0.786031783
vt 0.744055629 0.786251307
vt 0.788624704 0.877686918
vt 0.727231264 0.869971395
vt 0.755383313 0.892895341
vt 0.670872927 0.719223082
vt 0.78275162 0.668124914
vt 0.687058568 0.611634195
vt 0.541910946 0.602868557
vt 0.542490304 0.714723349
vt 0.833709121 0.322733343
vt 0.873748839 0.310405761
vt 0.867380202 0.351509213
vt 0.816166401 0.428214937
vt 0.910868287 0.377723664
vt 0.859135568 0.451653481
vt 0.867380202 0.351509213
vt 0.900395036 0.336830199
vt 0.816166401 0.428214937
vt 0.785355091 0.394872725
vt 0.735148847 0.408280581
vt 0.785355091 0.394872725
vt 0.761416614 0.495151937
vt 0.859135568 0.451653481
vt 0.799419224 0.566453099
vt 0.799419224 0.566453099
vt 0.687058568 0.611634195
vt 0.761416614 0.495151937
vt 0.682146311 0.513969302
vt 0.541910946 0.602868557
vt 0.735148847 0.408280581
vt 0.552568913 0.508423507
vt 0.681575656 0.412944585
vt 0.550691128 0.417371154
g submesh0
f 1/1/1 2/2/2 3/3/3
f 4/4/4 5/5/5 6/6/6
f 6/6/6 7/7/7 4/4/4
f 6/6/6 8/8/8 7/7/7
f 7/7/7 8/8/8 9/9/9
f 8/8/8 10/10/10 9/9/9
f 4/4/4 11/11/11 12/12/12
f 12/12/12 11/11/11 13/13/13
f 14/14/14 13/13/13 11/11/11
f 11/11/11 15/15/15 14/14/14
f 16/16/16 17/17/17 18/18/18
f 19/19/19 18/18/18 20/20/20
f 21/21/21 19/19/19 20/20/20
f 22/22/22 23/23/23 20/20/20
f 16/16/16 22/22/22 24/24/24
f 24/24/24 25/25/25 16/16/16
f 26/26/26 27/27/27 24/24/24
f 26/26/26 24/24/24 28/28/28
f 28/28/28 24/24/24 29/29/29
f 28/28/28 29/29/29 30/30/30
f 31/31/31 32/32/32 33/33/33
f 32/32/32 34/34/34 33/33/33
f 35/35/35 34/34/34 32/32/32
f 36/36/36 33/33/33 34/34/34
f 35/35/35 37/37/37 34/34/34
f 34/34/34 38/38/38 36/36/36
f 37/37/37 38/38/38 34/34/34
f 37/37/37 39/39/39 38/38/38
