# roof.right.line.collision
v -2.08602905 0.249998882 1.49999976
v -1.49999809 0.249998882 1.49999976
v -1.49999809 3.24999881 -1.49999952
v -2.08602905 3.24999881 -1.49999964
v -2.08602905 -1.91833678E-07 1.5
v -1.49999809 3.13318849 -1.62570262
v -2.08602905 3.13318849 -1.62570274
v -1.49999809 -1.91833678E-07 1.5
vn -0.630262554 0.297108799 0.717283487
vn 0.630262494 0.297108769 0.717283487
vn 0.579302192 0.814975977 0.0149374064
vn -0.579302132 0.814975977 0.014937235
vn -0.546887755 -0.773668766 0.319922417
vn 0.575508714 0.0154754259 -0.817649186
vn -0.575508595 0.0154754762 -0.817649364
vn 0.546887875 -0.773668766 0.319922417
g submesh0
f 1//1 2//2 3//3
f 1//1 3//3 4//4
f 5//5 2//2 1//1
f 5//5 1//1 4//4
f 4//4 3//3 6//6
f 2//2 6//6 3//3
f 5//5 4//4 7//7
f 4//4 6//6 7//7
f 5//5 8//8 2//2
f 2//2 8//8 6//6
f 7//7 6//6 8//8
f 7//7 8//8 5//5
