# roof.top.line.collision
v 1.49999487 2.97773075 -1.22173655
v -1.50000441 2.97773075 -1.22173905
v -1.50000441 3.23491049 -1.50000632
v 1.49999487 3.23491049 -1.50000393
v -1.50000441 3.23491049 -1.50000632
v -1.50000441 3.46987104 -1.50000572
v 1.49999487 3.46987104 -1.50000334
v 1.49999487 3.23491049 -1.50000393
v 1.49999487 2.97773075 -1.22173655
v 1.49999487 3.131814 -1.26420021
v -1.50000441 3.13181424 -1.26420271
v -1.50000441 2.97773075 -1.22173905
v -1.50000441 3.46987104 -1.50000572
v 1.49999487 3.46579075 -1.3961165
v 1.49999487 3.46987104 -1.50000334
v -1.50000441 3.46579075 -1.39611888
v 1.49999487 3.131814 -1.26420021
v -1.50000441 3.13181424 -1.26420271
v -1.50000441 2.97773075 -1.22173905
v -1.50000441 3.13181424 -1.26420271
v -1.50000441 3.23491049 -1.50000632
v -1.50000441 3.46987104 -1.50000572
v -1.50000441 3.46579075 -1.39611888
v 1.49999487 2.97773075 -1.22173655
v 1.49999487 3.23491049 -1.50000393
v 1.49999487 3.131814 -1.26420021
v 1.49999487 3.46987104 -1.50000334
v 1.49999487 3.46579075 -1.3961165
vn 0.541965663 -0.717847705 0.436998725
vn -0.541966081 -0.717847884 0.43699801
vn -0.627043068 -0.312209308 -0.713682294
vn 0.627043486 -0.312209308 -0.713681936
vn -0.627043068 -0.312209308 -0.713682294
vn -0.575313807 0.589607 -0.566901684
vn 0.575314283 0.58960712 -0.566901207
vn 0.627043486 -0.312209308 -0.713681936
vn 0.541965663 -0.717847705 0.436998725
vn 0.695237756 0.227840036 0.681713581
vn -0.695238352 0.227839872 0.681713045
vn -0.541966081 -0.717847884 0.43699801
vn -0.575313807 0.589607 -0.566901684
vn 0.602398872 0.651050329 0.461788863
vn 0.575314283 0.58960712 -0.566901207
vn -0.602399111 0.651050448 0.461788565
vn 0.695237756 0.227840036 0.681713581
vn -0.695238352 0.227839872 0.681713045
vn -0.541966081 -0.717847884 0.43699801
vn -0.695238352 0.227839872 0.681713045
vn -0.627043068 -0.312209308 -0.713682294
vn -0.575313807 0.589607 -0.566901684
vn -0.602399111 0.651050448 0.461788565
vn 0.541965663 -0.717847705 0.436998725
vn 0.627043486 -0.312209308 -0.713681936
vn 0.695237756 0.227840036 0.681713581
vn 0.575314283 0.58960712 -0.566901207
vn 0.602398872 0.651050329 0.461788863
vt 0.998994827 0.185108438
vt 0.500985622 0.185109034
vt 0.500985622 0.247305036
vt 0.998995066 0.247304469
vt 0.732657015 0.981378138
vt 0.767288566 0.981378138
vt 0.767288566 0.518412828
vt 0.732657015 0.518412828
vt 0.50129652 1.08334649
vt 0.50129652 1.12024665
vt 0.99879843 1.12024713
vt 0.99879843 1.08334625
vt 0.998684824 1.24690592
vt 0.501182914 1.19382417
vt 0.501182914 1.24690545
vt 0.998684824 1.19382465
vt 0.501182914 1.18247461
vt 0.998684824 1.18247509
vt 0.317893416 0.635629773
vt 0.347150624 0.638247669
vt 0.360824078 0.579811037
vt 0.404497147 0.581417382
vt 0.367916048 0.632832468
vt 0.372175992 0.565823197
vt 0.327075392 0.621454477
vt 0.381663412 0.594150424
vt 0.338961124 0.664281845
vt 0.381201804 0.615969837
g submesh0
f 1/1/1 2/2/2 3/3/3
f 1/1/1 3/3/3 4/4/4
f 5/5/5 6/6/6 7/7/7
f 5/5/5 7/7/7 8/8/8
f 9/9/9 10/10/10 11/11/11
f 9/9/9 11/11/11 12/12/12
f 13/13/13 14/14/14 15/15/15
f 13/13/13 16/16/16 14/14/14
f 17/17/17 14/14/14 16/16/16
f 17/17/17 16/16/16 18/18/18
f 19/19/19 20/20/20 21/21/21
f 21/21/21 20/20/20 22/22/22
f 22/22/22 20/20/20 23/23/23
f 24/24/24 25/25/25 26/26/26
f 25/25/25 27/27/27 26/26/26
f 27/27/27 28/28/28 26/26/26
