# roof.corner.90.convex.R.collision
v 1.50000012 0.267526329 1.49999976
v 1.50000012 3.26752567 -1.50000048
v -1.49999917 0.267526478 1.5
v 1.5 2.99999738 -1.50000048
v 1.5 -2.05890638E-06 1.49999976
v -1.49999917 -1.89968239E-06 1.50000012
vn 0.630262494 0.29710871 0.717283487
vn 0.215827644 0.854787469 -0.471971154
vn -0.846308291 0.36980322 0.383415937
vn 0.37096101 -0.199251607 -0.907020807
vn 0.546918154 -0.773459196 0.320377201
vn -0.689106405 -0.689106405 0.224197969
g submesh0
f 1//1 2//2 3//3
f 1//1 4//4 2//2
f 3//3 5//5 1//1
f 1//1 5//5 4//4
f 6//6 3//3 2//2
f 3//3 6//6 5//5
f 5//5 6//6 4//4
f 6//6 2//2 4//4
