# roof.bottom.line.collision
v -1.49999833 -0.00335552334 1.5
v -1.49999833 -0.33565411 2.1006844
v -1.49999833 0.249998882 1.49999976
v 1.50000107 0.249998882 1.49999964
v 1.50000107 -0.33565411 2.10068417
v 1.50000107 -0.431878388 2.1006844
v -1.49999833 -0.431878388 2.1006844
v 1.50000107 -0.00335552334 1.5
vn -0.61711961 -0.36026457 -0.69955188
vn -0.62921983 0.301975816 0.716165602
vn -0.547242045 0.771218717 -0.325188696
vn 0.547241867 0.771218896 -0.325188845
vn 0.629220068 0.301975727 0.716165423
vn 0.551576853 -0.741562545 0.381900549
vn -0.551577449 -0.741562128 0.38190034
vn 0.61711961 -0.36026451 -0.699551761
g submesh0
f 1//1 2//2 3//3
f 4//4 1//1 3//3
f 3//3 2//2 5//5
f 3//3 5//5 4//4
f 6//6 5//5 2//2
f 4//4 5//5 6//6
f 1//1 7//7 2//2
f 6//6 2//2 7//7
f 4//4 6//6 8//8
f 4//4 8//8 1//1
f 8//8 6//6 7//7
f 8//8 7//7 1//1
