# roof.triangle.down.top.line_COL
v -1.50214612 3.07706881 -0.671387792
v 1.50230694 3.07706881 -0.671387792
v 1.49987257 3.28141117 -0.766350985
v -1.49971175 3.28141117 -0.766350985
v -1.49971175 3.28141117 -0.766350985
v 1.49987257 3.28141117 -0.766350985
v 1.49988449 3.34136009 -0.864946425
v -1.49972367 3.34136009 -0.864946425
v 1.49987257 3.28141117 -0.766350985
v 1.50230694 3.07706881 -0.671387792
v 1.50000679 3.22681975 -0.89684093
v 1.49988449 3.34136009 -0.864946425
v -1.49988747 3.22681975 -0.89684093
v -1.49972367 3.34136009 -0.864946425
v 1.49988449 3.34136009 -0.864946425
v 1.50000679 3.22681975 -0.89684093
v -1.49988747 3.22681975 -0.89684093
v -1.50214612 3.07706881 -0.671387792
v -1.49971175 3.28141117 -0.766350985
v -1.49972367 3.34136009 -0.864946425
vn 0 0.421440065 0.906856239
vn 0 0.421440065 0.906856239
vn 0 0.665924966 0.746018767
vn 0 0.665924966 0.746018767
vn 0 0.665924966 0.746018767
vn 0 0.665924966 0.746018767
vn 0 0.854451358 0.519531429
vn 0 0.854451358 0.519531429
vn 0.999968886 0.00759288622 -0.00214754976
vn 0.999968886 0.00759288622 -0.00214754976
vn 0.766951859 0.177111179 -0.616779089
vn 0.634884953 0.211370856 -0.743130922
vn -0.767091691 0.177242011 -0.616567612
vn -0.634858489 0.211521223 -0.743110597
vn 0.634884953 0.211370856 -0.743130922
vn 0.766951859 0.177111179 -0.616779089
vn -0.767091691 0.177242011 -0.616567612
vn -0.999968052 0.00777118094 -0.00190408994
vn -0.999968052 0.00777118048 -0.0019040897
vn -0.634858489 0.211521223 -0.743110597
vt 0.645906866 0.546113491
vt 0.645891428 0.54610616
vt 0.660830617 0.546369553
vt 0.660564065 0.546376944
vt 0.660564065 0.546376944
vt 0.660830617 0.546369553
vt 0.670606732 0.546376169
vt 0.669977844 0.54633832
vt 0.669824123 0.570569396
vt 0.645891428 0.54610616
vt 0.6577425 0.565514922
vt 0.660695493 0.5761199
vt 0.657201529 0.908899248
vt 0.668266296 0.909006119
vt 0.6696347 0.545800209
vt 0.658634782 0.545952797
vt 0.676174402 0.565514922
vt 0.645906866 0.546113491
vt 0.660564065 0.546376944
vt 0.673221409 0.5761199
g submesh0
f 1/1/1 2/2/2 3/3/3
f 1/1/1 3/3/3 4/4/4
f 5/5/5 6/6/6 7/7/7
f 5/5/5 7/7/7 8/8/8
f 9/9/9 10/10/10 11/11/11
f 9/9/9 11/11/11 12/12/12
f 13/13/13 14/14/14 15/15/15
f 13/13/13 15/15/15 16/16/16
f 17/17/17 18/18/18 19/19/19
f 17/17/17 19/19/19 20/20/20
