# roof.collision
v 1.50311983 3.25155973 -1.50000882
v -1.49687922 3.25156069 -1.50000918
v -1.49687922 0.244764701 1.50003004
v 1.50311983 0.244764328 1.50003052
v 1.50311983 1.90734863E-06 1.50003171
v 1.50311983 0.244764328 1.50003052
v -1.49687922 0.244764701 1.50003004
v -1.49687958 1.67846679E-06 1.50003135
v 1.50311983 3.00683379 -1.49997306
v 1.50311983 0.244764328 1.50003052
v 1.50311983 1.90734863E-06 1.50003171
v 1.50311983 3.25155973 -1.50000882
v 1.50311983 3.25155973 -1.50000882
v -1.49687922 3.00683475 -1.49997401
v -1.49687922 3.25156069 -1.50000918
v 1.50311983 3.00683379 -1.49997306
v -1.49687922 3.00683475 -1.49997401
v -1.49687958 1.67846679E-06 1.50003135
v -1.49687922 0.244764701 1.50003004
v -1.49687922 3.25156069 -1.50000918
v 1.50311983 3.00683379 -1.49997306
v 1.50311983 1.90734863E-06 1.50003171
v -1.49687958 1.67846679E-06 1.50003135
v -1.49687922 3.00683475 -1.49997401
vn 0.546885669 0.773635745 -0.320006192
vn -0.546886325 0.773635447 -0.320005536
vn -0.630355418 0.296678364 0.717379987
vn 0.630355775 0.296678036 0.717379689
vn 0.546889246 -0.77365762 0.319946945
vn 0.630355775 0.296678036 0.717379689
vn -0.630355418 0.296678364 0.717379987
vn -0.546889484 -0.77365762 0.319946498
vn 0.630368531 -0.296719939 -0.717351258
vn 0.630355775 0.296678036 0.717379689
vn 0.546889246 -0.77365762 0.319946945
vn 0.546885669 0.773635745 -0.320006192
vn 0.546885669 0.773635745 -0.320006192
vn -0.630368352 -0.2967197 -0.717351496
vn -0.546886325 0.773635447 -0.320005536
vn 0.630368531 -0.296719939 -0.717351258
vn -0.630368352 -0.2967197 -0.717351496
vn -0.546889484 -0.77365762 0.319946498
vn -0.630355418 0.296678364 0.717379987
vn -0.546886325 0.773635447 -0.320005536
vn 0.630368531 -0.296719939 -0.717351258
vn 0.546889246 -0.77365762 0.319946945
vn -0.546889484 -0.77365762 0.319946498
vn -0.630368352 -0.2967197 -0.717351496
vt -0.0497062951 0.533116281
vt 0.549668491 0.5331164
vt 0.549310386 -0.0331194401
vt -0.0496961027 -0.0331194326
vt 0.0302772522 0.726716638
vt 0.0302772522 0.766652346
vt 0.499803156 0.766652346
vt 0.499803156 0.726716638
vt 0.021982586 0.895911872
vt 0.461985976 0.915173233
vt 0.480654478 0.895911872
vt 0.00331426854 0.915167689
vt 0.499803156 0.766652346
vt 0.0302772522 0.726716638
vt 0.0302773304 0.766652346
vt 0.499803156 0.726716578
vt 0.480821282 0.895911813
vt 0.0221492536 0.895906329
vt 0.0408175997 0.915167868
vt 0.499489427 0.915167809
vt -0.0496755764 -0.0329591483
vt -0.0496755727 0.533115029
vt 0.549689114 0.533110201
vt 0.54933989 -0.0331195779
g submesh0
f 1/1/1 2/2/2 3/3/3
f 3/3/3 4/4/4 1/1/1
f 5/5/5 6/6/6 7/7/7
f 7/7/7 8/8/8 5/5/5
f 9/9/9 10/10/10 11/11/11
f 10/10/10 9/9/9 12/12/12
f 13/13/13 14/14/14 15/15/15
f 13/13/13 16/16/16 14/14/14
f 17/17/17 18/18/18 19/19/19
f 19/19/19 20/20/20 17/17/17
f 21/21/21 22/22/22 23/23/23
f 23/23/23 24/24/24 21/21/21
