# roof.collision
v -1.4999994 3.25156069 -1.50000894
v -1.4999994 0.244764552 1.50003004
v 1.49999964 0.244764253 1.50003052
v 1.49999964 3.25155997 -1.5000087
v -1.4999994 0.244764552 1.50003004
v -1.4999994 1.67846679E-06 1.50003135
v 1.49999964 1.83105465E-06 1.50003171
v 1.49999964 0.244764253 1.50003052
v 1.49999964 0.244764253 1.50003052
v 1.49999964 1.83105465E-06 1.50003171
v 1.49999964 3.13319063 -1.62571454
v 1.49999964 3.25155997 -1.5000087
v 1.49999964 3.25155997 -1.5000087
v 1.49999964 3.13319063 -1.62571454
v -1.4999994 3.13319135 -1.62571549
v -1.4999994 3.25156069 -1.50000894
v -1.4999994 3.25156069 -1.50000894
v -1.4999994 3.13319135 -1.62571549
v -1.4999994 1.67846679E-06 1.50003135
v -1.4999994 0.244764552 1.50003004
v 1.49999964 1.83105465E-06 1.50003171
v -1.4999994 1.67846679E-06 1.50003135
v -1.4999994 3.13319135 -1.62571549
v 1.49999964 3.13319063 -1.62571454
vn -0.578886807 0.815308809 0.0127099343
vn -0.630355835 0.296678036 0.717379689
vn 0.630355775 0.296678036 0.717379689
vn 0.57888639 0.815309107 0.012709978
vn -0.630355835 0.296678036 0.717379689
vn -0.546887875 -0.773666978 0.319926739
vn 0.546887994 -0.773666739 0.319926888
vn 0.630355775 0.296678036 0.717379689
vn 0.630355775 0.296678036 0.717379689
vn 0.546887994 -0.773666739 0.319926888
vn 0.575848103 0.0127694756 -0.817456901
vn 0.57888639 0.815309107 0.012709978
vn 0.57888639 0.815309107 0.012709978
vn 0.575848103 0.0127694756 -0.817456901
vn -0.575847328 0.0127697131 -0.817457557
vn -0.578886807 0.815308809 0.0127099343
vn -0.578886807 0.815308809 0.0127099343
vn -0.575847328 0.0127697131 -0.817457557
vn -0.546887875 -0.773666978 0.319926739
vn -0.630355835 0.296678036 0.717379689
vn 0.546887994 -0.773666739 0.319926888
vn -0.546887875 -0.773666978 0.319926739
vn -0.575847328 0.0127697131 -0.817457557
vn 0.575848103 0.0127694756 -0.817456901
vt 0.549668491 0.5331164
vt 0.549310386 -0.0331194401
vt -0.0496961027 -0.0331194326
vt -0.0497062951 0.533116281
vt 0.499803156 0.766652346
vt 0.499803156 0.726716638
vt 0.0302772522 0.726716638
vt 0.0302772522 0.766652346
vt 0.461985976 0.915173233
vt 0.480654478 0.895911872
vt 0.021982586 0.895911872
vt 0.00331426854 0.915167689
vt 0.499803156 0.766652346
vt 0.499803156 0.726716578
vt 0.0302772522 0.726716638
vt 0.0302773304 0.766652346
vt 0.499489427 0.915167809
vt 0.480821282 0.895911813
vt 0.0221492536 0.895906329
vt 0.0408175997 0.915167868
vt -0.0496755727 0.533115029
vt 0.549689114 0.533110201
vt 0.54933989 -0.0331195779
vt -0.0496755764 -0.0329591483
g submesh0
f 1/1/1 2/2/2 3/3/3
f 1/1/1 3/3/3 4/4/4
f 5/5/5 6/6/6 7/7/7
f 5/5/5 7/7/7 8/8/8
f 9/9/9 10/10/10 11/11/11
f 9/9/9 11/11/11 12/12/12
f 13/13/13 14/14/14 15/15/15
f 13/13/13 15/15/15 16/16/16
f 17/17/17 18/18/18 19/19/19
f 17/17/17 19/19/19 20/20/20
f 21/21/21 22/22/22 23/23/23
f 21/21/21 23/23/23 24/24/24
