# roof.wall.left.collision
v 0.100004114 2.99999905 -1.5
v 3.2043456E-06 2.99999905 -1.505
v -0.0999974012 2.99999905 -1.5
v 0.100004114 -9.547731E-07 1.5000006
v -0.0999974012 -9.547731E-07 1.5000006
v 0.100004271 -1.10736096E-06 -1.49999869
v 0.100004114 2.99999905 -1.5
v 0.100004114 -9.547731E-07 1.5000006
v -0.0999974012 -9.547731E-07 1.5000006
v 3.2043456E-06 2.99999905 -1.505
v -0.0999974012 -1.10736096E-06 -1.49999869
v -0.0999974012 2.99999905 -1.5
v 3.2043456E-06 -1.10736096E-06 -1.5049988
vn 0 0.707401276 0.706812143
vn 0 0.707401276 0.706812143
vn 0 0.707401276 0.706812143
vn 0 0.707401276 0.706812084
vn 0 0.707401276 0.706812084
vn 0.590216279 -0.580022931 -0.561442852
vn 0.48233822 -3.33016516E-07 -0.875985026
vn 0.44721365 -0.89442718 0
vn -0.44721365 -0.89442718 0
vn 0 -4.06261961E-07 -1
vn -0.590216339 -0.580022991 -0.561442792
vn -0.482338369 -3.56436999E-07 -0.875984967
vn 0 -0.696038008 -0.718004942
g submesh0
f 1//1 2//2 3//3
f 3//3 4//4 1//1
f 3//3 5//5 4//4
f 6//6 7//7 8//8
f 6//6 8//8 9//9
f 6//6 10//10 7//7
f 6//6 9//9 11//11
f 11//11 9//9 12//12
f 13//13 12//12 10//10
f 6//6 13//13 10//10
f 11//11 13//13 6//6
f 13//13 11//11 12//12
