# roof.wall.left_COL
v -0.102055356 -9.18485073E-17 1.5
v -0.102055356 3.00000381 -1.5
v -0.102055356 9.18485073E-17 -1.5
v -0.102055356 9.18485073E-17 -1.5
v -0.00102539058 9.215467E-17 -1.505
v 0.100002438 9.18485073E-17 -1.5
v -0.102055356 -9.18485073E-17 1.5
v -0.102055356 3.00000381 -1.5
v 0.100002438 -9.18485073E-17 1.5
v -0.00102539058 3.00000381 -1.505
v 0.100002438 3.00000381 -1.5
g submesh0
f 1 2 3
f 4 5 6
f 6 7 4
f 8 5 4
f 6 9 7
f 8 7 9
f 10 6 5
f 8 10 5
f 8 9 11
f 6 11 9
f 11 10 8
f 10 11 6
