# roof.triangle.up.left.line_COL
v 1.62961376 -0.0419499017 0.808293462
v 1.49997234 -0.0500691123 0.874748349
v 0.000148519743 2.95009065 -1.73341894
v 0.121497199 2.95809817 -1.81175363
v 0.121497199 2.95809817 -1.81175363
v 0.0826414078 3.14306521 -1.78645611
v 1.58804166 0.142989859 0.829685807
v 1.62961376 -0.0419499017 0.808293462
v 1.62961376 -0.0419499017 0.808293462
v 1.58804166 0.142989859 0.829685807
v 1.49997234 -0.0500691123 0.874748349
v 1.49998605 0.297214419 0.914507866
v 0.121497199 2.95809817 -1.81175363
v 0.000148519743 2.95009065 -1.73341894
v 0.0826414078 3.14306521 -1.78645611
v 9.91777415E-06 3.33968496 -1.73326218
v 0.000148519743 2.95009065 -1.73341894
v 1.49997234 -0.0500691123 0.874748349
v 1.49998605 0.297214419 0.914507866
v 9.91777415E-06 3.33968496 -1.73326218
v 1.58804166 0.142989859 0.829685807
v 0.0826414078 3.14306521 -1.78645611
v 9.91777415E-06 3.33968496 -1.73326218
v 1.49998605 0.297214419 0.914507866
vt 0.657460451 0.000715771399
vt 0.67801398 6.9347916E-05
vt 0.67801398 0.492745966
vt 0.65746361 0.494026214
vt 0.607019007 0.483844548
vt 0.588894725 0.492040902
vt 0.588894725 0.0132944621
vt 0.607019007 0.00512341317
vt 0.600474238 0.395428836
vt 0.580523729 0.386698097
vt 0.606379628 0.382333696
vt 0.575843692 0.373072475
vt 0.600474238 0.395428836
vt 0.606379628 0.382333696
vt 0.580523729 0.386698097
vt 0.575843692 0.373072475
vt 0.684895158 0.4851771
vt 0.684775174 0.00137426821
vt 0.691059709 0.00763847725
vt 0.691179693 0.49144128
vt 0.515588105 0.500666916
vt 0.515588105 0.999260545
vt 0.507377148 0.995803237
vt 0.505690694 0.502943873
g submesh0
f 1/1 2/2 3/3
f 1/1 3/3 4/4
f 5/5 6/6 7/7
f 5/5 7/7 8/8
f 9/9 10/10 11/11
f 10/10 12/12 11/11
f 13/13 14/14 15/15
f 14/14 16/16 15/15
f 17/17 18/18 19/19
f 17/17 19/19 20/20
f 21/21 22/22 23/23
f 21/21 23/23 24/24
