# roof.triangle.down.collision
v -1.50000715 3.25155926 -0.864992976
v -7.17163084E-06 0.244763553 1.73314178
v 1.49999261 3.25155878 -0.86499238
v 1.49999022 3.00683284 -0.864956617
v -7.17163084E-06 8.39233394E-07 1.73314297
v -1.50000715 3.00683308 -0.864957869
v -7.17163084E-06 0.244763553 1.73314178
v -7.17163084E-06 8.39233394E-07 1.73314297
v 1.49999022 3.00683284 -0.864956617
v 1.49999261 3.25155878 -0.86499238
v 1.49999261 3.25155878 -0.86499238
v 1.49999022 3.00683284 -0.864956617
v -1.50000715 3.00683308 -0.864957869
v -1.50000715 3.25155926 -0.864992976
v -1.50000715 3.25155926 -0.864992976
v -1.50000715 3.00683308 -0.864957869
v -7.17163084E-06 8.39233394E-07 1.73314297
v -7.17163084E-06 0.244763553 1.73314178
vt 0.559461832 0.544304967
vt 0.315265089 -0.100684561
vt 0.0717957839 0.544302166
vt -0.0535258502 -0.04333115
vt 0.164494887 0.611624181
vt 0.382183433 -0.043472413
vt 0.459735125 0.915599942
vt 0.478170782 0.895895481
vt 0.0252404194 0.895869255
vt 0.00680526067 0.915599942
vt 0.479524255 0.765330672
vt 0.479524255 0.727431178
vt 0.0505561382 0.727431178
vt 0.0505561866 0.765330672
vt 0.49223277 0.915599942
vt 0.473797888 0.89587003
vt 0.0208673552 0.895890117
vt 0.0393028371 0.915599942
g submesh0
f 1/1 2/2 3/3
f 4/4 5/5 6/6
f 7/7 8/8 9/9
f 7/7 9/9 10/10
f 11/11 12/12 13/13
f 11/11 13/13 14/14
f 15/15 16/16 17/17
f 15/15 17/17 18/18
