# roof.wall.right_COL
v -0.0530075058 7.62939436E-08 1.5
v -0.0530075058 9.18485073E-17 -1.5
v -0.0530075058 0.0625357032 -1.49998808
v -0.0530075058 3.00000358 1.5
v -0.0530075058 3.00000358 1.43999755
v 0.0551538058 0.0625357777 -1.49998772
v 0.0551538058 3.00000381 1.43999767
v -0.0530075058 3.00000358 1.43999755
v -0.0530075058 0.0625357032 -1.49998808
v -0.0530075058 3.00000358 1.5
v 0.0551538058 3.00000381 1.5
v 0.0551538058 9.18485073E-17 -1.5
v -0.0530075058 9.18485073E-17 -1.5
v 0.0551538058 -9.18485073E-17 1.5
v -0.0530075058 7.62939436E-08 1.5
v 0.00107421877 3.00000358 1.505
v 0.00107421877 1.52587887E-07 1.505
vn 0.600709617 0.582353652 -0.547733545
vn 0.577340364 0.577299595 0.577410936
vn 0.630242229 -0.297337294 0.717206597
vn 0.600710154 -0.582352817 -0.547733903
vn 0.630298257 -0.717320323 0.296943814
vn -0.630243778 -0.297337443 0.717205167
vn -0.630297661 -0.717321217 0.296943247
vn 0.630298257 -0.717320323 0.296943814
vn 0.630242229 -0.297337294 0.717206597
vn 0.600710154 -0.582352817 -0.547733903
vn -0.600709498 -0.582354903 -0.547732532
vn -0.577339888 0.577299714 0.577411056
vn 0.577340364 0.577299595 0.577410936
vn -0.600710392 0.582354248 -0.547732234
vn 0.600709617 0.582353652 -0.547733545
vn 4.98462043E-07 -0.686959803 -0.726695359
vn -1.10769463E-06 0.686960399 -0.726694882
g submesh0
f 1//1 2//2 3//3
f 3//3 4//4 1//1
f 3//3 5//5 4//4
f 6//6 7//7 8//8
f 6//6 8//8 9//9
f 10//10 8//8 7//7
f 11//11 7//7 6//6
f 7//7 11//11 10//10
f 12//12 6//6 9//9
f 11//11 6//6 12//12
f 12//12 9//9 13//13
f 14//14 12//12 13//13
f 12//12 14//14 11//11
f 13//13 15//15 14//14
f 11//11 16//16 10//10
f 16//16 11//11 14//14
f 15//15 17//17 14//14
f 10//10 17//17 15//15
f 16//16 14//14 17//17
f 10//10 16//16 17//17
