# rope_bridge_1200_COL
v -1.89534938 -0.800395012 5.89028502
v -2.02541018 1.24314249 9.67731285
v -2.06084323 0.56693542 9.75901794
v -1.89555597 -0.219756618 5.58670282
v -1.7000643 0.508981109 7.1754694
v -2.0184207 1.69031036 10.1202908
v -1.8464483 -0.118184812 5.19593191
v -1.64588439 -0.0981326476 5.19823551
v -1.67212522 1.21684432 9.09219742
v -1.51198089 0.469494969 7.27287149
v -1.8551178 -0.246924341 2.46777534
v -1.60765159 1.71768141 10.1327314
v -1.4265306 0.911597431 8.63816547
v -1.4292562 0.586341739 7.98268414
v -1.44270825 0.136566296 7.47424555
v -1.44517899 0.226732627 7.98841953
v -1.00851059 1.01830101 9.57226658
v -1.18443704 0.710075259 9.0626564
v -1.03745639 1.84780419 10.6392488
v -1.06630075 -0.0834450796 6.54502058
v -1.21214426 0.19028306 7.2896328
v -1.12830889 0.0710555017 7.77743435
v -0.609927893 0.979351938 9.62982559
v -1.06585538 0.469308585 9.29211617
v -0.181884483 0.516526818 9.052845
v -0.69616276 -0.0881417766 7.43675709
v -0.0489727855 -0.155552924 7.90523481
v -0.0735579282 0.224488974 7.21981621
v 0.112297915 -0.0558541715 5.9070425
v -0.269398808 -0.195434466 5.6850853
v -0.682196558 -0.358752459 5.02753305
v -0.30134806 -0.621787071 3.73336935
v -0.908976197 -0.599566042 3.26924706
v -1.45796549 -0.381652623 2.65313005
v -0.529422879 -0.878861845 2.53746176
v -1.57956231 -0.320567936 1.72449982
v -0.00199743151 -0.702561319 2.83765531
v -0.0164553858 -0.829559565 2.65503597
v -0.0349184237 -1.03709984 2.58042073
v 0.332521468 -0.501330733 2.76049042
v 0.32568416 -0.0695997402 5.69110823
v 0.35749054 0.463407248 7.235816
v 0.20549576 0.784343481 8.32312012
v -0.0677474663 0.385747254 7.98352623
v -2.99999928 -1.4166975E-06 3.15666193E-06
v -1.71428537 -0.00562886894 0.00320078968
v -1.59990418 -0.298371255 1.06858826
v -2.51080871 -0.250567228 2.00825882
v -2.43154097 -0.571058929 3.31100607
v -2.25145435 -0.23951833 2.67977095
v -2.40499067 -0.353437215 3.11842942
v -1.99492121 -0.246182948 4.93202829
v -1.82918489 -0.860688508 4.90983772
v -1.86872697 -1.00627363 5.25340033
v -0.823222995 -0.580887735 0.93300736
v -0.908561051 -0.89070189 1.58731759
v -1.55708647 -0.905930459 1.13187337
v -0.206914634 -0.269888997 0.349148691
v 0.428572297 -0.0225913003 0.0127686644
v -0.400239587 -0.741497457 1.34595072
v 0.2522946 -0.785908639 1.70021284
v 0.760045826 -0.314392805 1.55511653
v 0.206668198 -0.438005745 1.00477183
v 1.71428633 -0.005627234 0.00320078968
v 1.79926443 -0.363834828 2.70827103
v 2.48654485 -0.143520251 0.878291667
v 3.00000048 1.44432556E-06 3.15666193E-06
v 2.19589424 -0.357617587 1.97764337
v 2.6842916 -0.607089579 1.42670846
v 2.40653658 -1.04366243 2.18255019
v 1.97594666 -0.418287158 2.48489165
v 1.3718524 -0.424530208 3.12094831
v 1.81011283 -0.136181101 4.09803534
v 1.88400328 -0.4888587 3.01350737
v 1.82276487 -1.37054074 3.08507776
v 1.8162837 -0.782134056 2.84586143
v 1.97215033 -0.641054153 4.972188
v 1.98717082 0.0497535616 5.93331337
v 2.23274326 0.539196908 9.24036026
v 1.88892007 0.098562412 5.45231724
v 1.68698144 0.307727128 6.09173918
v 2.10738397 1.13703978 9.11018276
v 1.92692029 0.403367996 8.9570961
v 2.07682133 0.699956119 9.23655128
v 1.58268249 -0.119151153 4.28911114
v 1.67025614 1.04322374 8.69612789
v 2.21686745 1.35470426 9.54261971
v 1.46833932 -0.452891976 4.66421795
v 1.17692077 -0.476763576 3.11612296
v 1.40337491 -0.662285209 4.8876853
v 0.985741735 -0.456500649 4.90677023
v 1.5147258 0.144158363 5.7696538
v 1.56438529 -0.2692146 5.11328459
v 1.51394939 0.241791606 6.21449518
v 1.55517483 0.583782911 7.44606733
v 1.53326821 0.00980032608 6.68636131
v 0.779998124 -0.336358964 2.69464111
v 1.2418375 0.379202604 7.58737183
v 1.09253716 -0.0543964766 6.98341894
v 0.875086904 0.64730531 8.19014359
v 0.668801785 -0.0206807498 6.51224947
v 1.74239969 1.41518533 9.51398754
v 0.348913193 -0.673114777 2.02669191
v 0.463963002 -0.151471227 4.74691296
v 0.810564637 -0.387995571 5.46061707
v 0.442484915 -0.559895933 6.01019526
v 0.805044532 -0.311388522 3.58947134
v 0.300179392 1.20345747 9.15165234
v -0.0146716265 1.09324205 9.25235653
v 0.0947974473 0.912589908 8.72585964
v 0.596765757 2.34332633 11.0915012
v 0.428570867 2.98548794 11.9805965
v 1.15770602 1.60584927 9.9556694
v 2.35714269 2.97836852 11.9710674
v 3.00000024 2.99999881 11.9999971
v 2.63835931 1.18226886 9.89114952
v 0.0992592797 0.573851526 9.20770454
v -0.424641639 2.24067926 11.1879311
v -1.50000083 2.99999666 11.9999971
v -2.14285851 2.97836637 11.9710674
v -2.48303032 2.33586264 11.1059837
v -3.00000095 2.99999595 11.9999971
v -2.8281219 2.16304564 11.2617626
v -2.32626843 1.51258481 10.3337002
v -2.52292109 1.10587776 10.4472847
v -2.08255363 1.12541962 10.0153751
v -2.02541018 1.24314249 9.67731285
v -1.89534938 -0.800395012 5.89028502
v -2.06084323 0.56693542 9.75901794
v -1.89555597 -0.219756618 5.58670282
v -1.7000643 0.508981109 7.1754694
v -2.0184207 1.69031036 10.1202908
v -1.8464483 -0.118184812 5.19593191
v -1.64588439 -0.0981326476 5.19823551
v -1.67212522 1.21684432 9.09219742
v -1.51198089 0.469494969 7.27287149
v -1.8551178 -0.246924341 2.46777534
v -1.60765159 1.71768141 10.1327314
v -1.4265306 0.911597431 8.63816547
v -1.00851059 1.01830101 9.57226658
v -1.18443704 0.710075259 9.0626564
v -1.4292562 0.586341739 7.98268414
v -1.44270825 0.136566296 7.47424555
v -1.44517899 0.226732627 7.98841953
v -1.03745639 1.84780419 10.6392488
v -1.06630075 -0.0834450796 6.54502058
v -1.21214426 0.19028306 7.2896328
v -1.12830889 0.0710555017 7.77743435
v -0.609927893 0.979351938 9.62982559
v -1.06585538 0.469308585 9.29211617
v -0.181884483 0.516526818 9.052845
v -0.69616276 -0.0881417766 7.43675709
v -0.0489727855 -0.155552924 7.90523481
v -0.0735579282 0.224488974 7.21981621
v 0.112297915 -0.0558541715 5.9070425
v -0.269398808 -0.195434466 5.6850853
v -0.682196558 -0.358752459 5.02753305
v -0.30134806 -0.621787071 3.73336935
v -0.908976197 -0.599566042 3.26924706
v -1.45796549 -0.381652623 2.65313005
v -0.529422879 -0.878861845 2.53746176
v -1.57956231 -0.320567936 1.72449982
v -0.00199743151 -0.702561319 2.83765531
v -0.0164553858 -0.829559565 2.65503597
v -0.0349184237 -1.03709984 2.58042073
v 0.332521468 -0.501330733 2.76049042
v 0.32568416 -0.0695997402 5.69110823
v 0.35749054 0.463407248 7.235816
v 0.20549576 0.784343481 8.32312012
v -0.0677474663 0.385747254 7.98352623
v -2.99999928 -1.4166975E-06 3.15666193E-06
v -1.71428537 -0.00562886894 0.00320078968
v -1.59990418 -0.298371255 1.06858826
v -2.51080871 -0.250567228 2.00825882
v -2.43154097 -0.571058929 3.31100607
v -2.25145435 -0.23951833 2.67977095
v -2.40499067 -0.353437215 3.11842942
v -1.99492121 -0.246182948 4.93202829
v -1.82918489 -0.860688508 4.90983772
v -1.86872697 -1.00627363 5.25340033
v -0.823222995 -0.580887735 0.93300736
v -0.206914634 -0.269888997 0.349148691
v 0.428572297 -0.0225913003 0.0127686644
v -0.908561051 -0.89070189 1.58731759
v -1.55708647 -0.905930459 1.13187337
v -0.400239587 -0.741497457 1.34595072
v 0.2522946 -0.785908639 1.70021284
v 0.760045826 -0.314392805 1.55511653
v 0.206668198 -0.438005745 1.00477183
v 1.71428633 -0.005627234 0.00320078968
v 1.79926443 -0.363834828 2.70827103
v 2.48654485 -0.143520251 0.878291667
v 3.00000048 1.44432556E-06 3.15666193E-06
v 2.19589424 -0.357617587 1.97764337
v 2.6842916 -0.607089579 1.42670846
v 2.40653658 -1.04366243 2.18255019
v 1.97594666 -0.418287158 2.48489165
v 1.3718524 -0.424530208 3.12094831
v 1.17692077 -0.476763576 3.11612296
v 1.46833932 -0.452891976 4.66421795
v 1.40337491 -0.662285209 4.8876853
v 1.58268249 -0.119151153 4.28911114
v 0.985741735 -0.456500649 4.90677023
v 0.779998124 -0.336358964 2.69464111
v 1.81011283 -0.136181101 4.09803534
v 1.68698144 0.307727128 6.09173918
v 1.5147258 0.144158363 5.7696538
v 1.56438529 -0.2692146 5.11328459
v 1.51394939 0.241791606 6.21449518
v 0.348913193 -0.673114777 2.02669191
v 0.463963002 -0.151471227 4.74691296
v 0.810564637 -0.387995571 5.46061707
v 0.805044532 -0.311388522 3.58947134
v 1.55517483 0.583782911 7.44606733
v 1.53326821 0.00980032608 6.68636131
v 1.67025614 1.04322374 8.69612789
v 1.2418375 0.379202604 7.58737183
v 1.34172058 -0.145665064 6.9062314
v 1.09253716 -0.0543964766 6.98341894
v 0.875086904 0.64730531 8.19014359
v 0.668801785 -0.0206807498 6.51224947
v 0.442484915 -0.559895933 6.01019526
v 1.74239969 1.41518533 9.51398754
v 0.300179392 1.20345747 9.15165234
v -0.0146716265 1.09324205 9.25235653
v 0.0947974473 0.912589908 8.72585964
v 2.10738397 1.13703978 9.11018276
v 2.21686745 1.35470426 9.54261971
v 1.88892007 0.098562412 5.45231724
v 1.88400328 -0.4888587 3.01350737
v 1.82276487 -1.37054074 3.08507776
v 1.8162837 -0.782134056 2.84586143
v 1.97215033 -0.641054153 4.972188
v 1.98717082 0.0497535616 5.93331337
v 2.23274326 0.539196908 9.24036026
v 1.92692029 0.403367996 8.9570961
v 2.07682133 0.699956119 9.23655128
v 2.35714269 2.97836852 11.9710674
v 3.00000024 2.99999881 11.9999971
v 2.63835931 1.18226886 9.89114952
v 1.15770602 1.60584927 9.9556694
v 0.596765757 2.34332633 11.0915012
v 0.428570867 2.98548794 11.9805965
v 0.0992592797 0.573851526 9.20770454
v -0.424641639 2.24067926 11.1879311
v -1.50000083 2.99999666 11.9999971
v -2.14285851 2.97836637 11.9710674
v -2.48303032 2.33586264 11.1059837
v -3.00000095 2.99999595 11.9999971
v -2.8281219 2.16304564 11.2617626
v -2.32626843 1.51258481 10.3337002
v -2.08255363 1.12541962 10.0153751
v -2.52292109 1.10587776 10.4472847
vn 0.999524355 0.00888695195 0.0295318943
vn 0.975873768 -0.162545502 0.145771325
vn 0.997257531 -0.0451723337 0.0586252511
vn 0.972052813 -0.230718866 0.0433834717
vn 0.1113552 -0.938098252 0.327981055
vn 0.361917853 -0.693072617 0.623430729
vn 0.560561955 -0.828038573 0.0110603338
vn -0.116876036 -0.979580343 0.163592175
vn -0.339216918 -0.866992533 0.365042031
vn -0.612832844 -0.746546268 0.25904572
vn -0.163722187 -0.98646611 0.00891758967
vn -0.0922590718 -0.865869403 0.491689354
vn -0.563630641 -0.761088192 0.321038008
vn -0.967386723 -0.220827684 0.124089032
vn -0.992692292 -0.0761406571 0.0936195701
vn -0.998951674 0.0440315977 -0.0125216702
vn -0.39280811 -0.655896187 0.644594431
vn -0.888888538 -0.185340345 0.418958396
vn -0.19889845 -0.783876777 0.588197708
vn -0.348467886 -0.926087379 0.144680053
vn -0.787957549 -0.611677051 0.0705261454
vn -0.392569244 -0.912152231 0.11776083
vn 0.169798613 -0.703841448 0.689764917
vn 0.0921167061 -0.605663657 0.790370822
vn 0.108837277 -0.463213384 0.879538417
vn -0.0333941691 -0.998502254 0.0433354601
vn 0.096262522 -0.957808435 -0.270807058
vn 0.475597411 -0.870659471 0.125536159
vn 0.274509072 -0.936143756 0.219726667
vn 0.15270704 -0.972748637 0.17447257
vn -0.0874644145 -0.980238914 0.177430853
vn 0.0818245187 -0.978785753 0.187838122
vn -0.332799703 -0.93215102 0.142614543
vn -0.381180555 -0.922633708 0.0587233491
vn -0.162238896 -0.92502439 0.343523532
vn -0.243568599 -0.969439805 -0.0293417573
vn 0.296590388 -0.921073616 0.252304435
vn -0.112022385 -0.642412245 0.75812763
vn -0.182637185 -0.31820184 0.930264056
vn 0.453160048 -0.884463549 0.111221522
vn -0.268798769 -0.934715688 0.232494876
vn 0.0172105525 -0.932990611 0.359488964
vn 0.59538573 -0.748328686 0.292438209
vn 0.763934195 -0.632523239 0.127745718
vn 0.00221440499 -0.989167333 -0.146775916
vn -0.11177285 -0.951547086 -0.286469638
vn -0.693774104 -0.659665227 -0.288997084
vn 0.341415465 -0.923116922 -0.176891819
vn 0.951076627 -0.237233981 -0.197922304
vn 0.183219209 -0.982520998 -0.0329101309
vn 0.796230555 -0.594217956 -0.113674745
vn 0.922448754 -0.205953568 -0.326606035
vn 0.981201887 0.129205525 -0.143348366
vn 0.994119406 -0.0180289336 0.106778003
vn -0.125170216 -0.898333371 -0.421105355
vn 0.0538713709 -0.821613789 -0.56749326
vn 0.574841499 -0.0445941873 -0.817048788
vn 0.070560351 -0.87423414 -0.480349869
vn 0.114884399 -0.940209985 -0.320634931
vn 0.160036609 -0.906912804 -0.38974005
vn 0.317802131 -0.671356022 -0.669539452
vn 0.244750142 -0.952512145 -0.181157202
vn 0.338710189 -0.900246084 -0.2735551
vn 0.017099224 -0.987325907 -0.157782108
vn -0.302105606 -0.953258574 -0.0055066701
vn -0.0628902689 -0.981964529 -0.178298846
vn -0.155217275 -0.962255299 -0.223544881
vn -0.680365801 -0.623672962 -0.38488245
vn -0.745486736 -0.508904338 -0.430425256
vn -0.798254609 -0.383754641 -0.464243382
vn -0.7193923 -0.580543458 -0.381371111
vn 0.261410356 -0.965202749 -0.00693948334
vn -0.362451106 -0.908048928 0.209943846
vn -0.979014337 -0.138962418 0.149065018
vn -0.993374765 0.0726202652 0.0890673026
vn -0.922993004 -0.153608963 -0.35282892
vn -0.998411655 -0.0288313385 0.048404105
vn -0.96676898 -0.227536857 0.116553448
vn -0.423889458 -0.268035978 -0.865144134
vn -0.647233069 -0.74332583 0.168985695
vn 0.183694869 -0.951702237 0.246006161
vn -0.57414484 -0.750500143 0.327272475
vn 0.268806994 0.132936105 -0.953976393
vn -0.93059361 0.16022642 0.329124749
vn 0.552944064 -0.823213756 0.128732383
vn 0.191015258 -0.92205739 0.336635411
vn -0.283266127 -0.794246972 0.537524045
vn 0.87887603 -0.458006859 -0.133441344
vn -0.00654203398 -0.997261167 -0.0736702979
vn -0.00139281084 -0.994578838 -0.103976302
vn -0.498730272 -0.866162598 -0.0321025737
vn 0.573291481 -0.801260173 0.171228126
vn 0.997259021 0.0656649396 0.0340957306
vn 0.629710495 -0.756068587 0.178395644
vn 0.662451565 -0.713222861 0.229065686
vn 0.999299526 0.00970001332 -0.0361439399
vn -0.010342651 -0.999782503 0.0181096159
vn 0.426609904 -0.805117428 0.41205579
vn -0.242963195 -0.868278801 0.432505429
vn -0.107885554 -0.898300648 0.425930321
vn -0.630315483 -0.693439007 0.349062711
vn -0.0147701111 -0.874987483 0.483920306
vn 0.749825716 -0.640304685 0.166646644
vn 0.0301761888 -0.995395362 0.090980418
vn -0.573589563 -0.8151685 -0.0805936903
vn -0.922906756 0.0299560931 0.383856326
vn -0.576901257 -0.816077054 0.0346872248
vn 0.203146413 -0.862844586 0.46285063
vn 0.402472019 -0.700313449 0.589556932
vn 0.321912378 -0.87296921 0.366465956
vn -0.144144192 -0.826007783 0.544916213
vn 0.035939388 -0.791364729 0.610287011
vn -0.01252391 -0.863126755 0.504832089
vn 0.00748166768 -0.829965472 0.55776459
vn -0.0813405067 -0.816018939 0.572273374
vn -0.66291517 -0.507118464 0.550794244
vn -0.447745144 -0.173623502 0.877142608
vn 0.018166095 -0.767990291 0.640203774
vn -0.0424630865 -0.791724741 0.609400392
vn 0.0122520328 -0.814772844 0.57965076
vn 0.31968683 -0.70076555 0.637752235
vn 0.136997744 -0.755608439 0.640536785
vn 0.592008531 -0.471670151 0.653493106
vn 0.70432353 -0.259686798 0.660674751
vn 0.745548964 -0.181390926 0.641290963
vn 0.66830653 -0.173968047 0.723257482
vn -0.975873768 0.162545517 -0.145771325
vn -0.999524355 -0.00888695009 -0.0295318924
vn -0.997257531 0.04517233 -0.0586252436
vn -0.972052813 0.230718926 -0.0433834791
vn -0.111355156 0.938098252 -0.327981085
vn -0.361917853 0.693072557 -0.623430729
vn -0.560561955 0.828038573 -0.0110603403
vn 0.116876036 0.979580343 -0.163592175
vn 0.339216918 0.866992533 -0.365042031
vn 0.612832844 0.746546209 -0.25904572
vn 0.163722157 0.98646611 -0.00891758967
vn 0.0922590792 0.865869403 -0.491689354
vn 0.563630641 0.761088192 -0.321038008
vn 0.39280811 0.655896187 -0.644594431
vn 0.888888538 0.185340241 -0.418958396
vn 0.967386723 0.220827833 -0.124089085
vn 0.992692292 0.0761406794 -0.0936195999
vn 0.998951674 -0.0440316051 0.0125216702
vn 0.198898479 0.783876777 -0.588197708
vn 0.348467886 0.926087379 -0.144680053
vn 0.787957609 0.611677051 -0.0705261454
vn 0.392569274 0.912152231 -0.117760845
vn -0.169798613 0.703841507 -0.689764977
vn -0.0921166912 0.605663657 -0.790370822
vn -0.108837247 0.463213384 -0.879538417
vn 0.0333941691 0.998502254 -0.0433354601
vn -0.096262522 0.957808435 0.270807058
vn -0.475597411 0.870659351 -0.125536174
vn -0.274509043 0.936143756 -0.219726652
vn -0.15270704 0.972748637 -0.17447257
vn 0.0874644145 0.980238914 -0.177430823
vn -0.081824556 0.978785753 -0.187838122
vn 0.332799762 0.93215096 -0.142614543
vn 0.381180614 0.922633708 -0.0587233491
vn 0.162238941 0.92502439 -0.343523532
vn 0.243568599 0.969439805 0.0293417517
vn -0.296590418 0.921073616 -0.252304465
vn 0.1120224 0.642412245 -0.75812763
vn 0.182637185 0.31820184 -0.930264056
vn -0.453159988 0.884463549 -0.111221522
vn 0.268798798 0.934715629 -0.232494906
vn -0.0172105543 0.932990611 -0.359488964
vn -0.595385611 0.748328745 -0.292438209
vn -0.763934195 0.632523239 -0.127745718
vn -0.00221442082 0.989167333 0.146775901
vn 0.11177285 0.951547086 0.286469668
vn 0.693774104 0.659665227 0.288997084
vn -0.341415465 0.923116803 0.176891759
vn -0.951076627 0.237233967 0.197922304
vn -0.183219224 0.982520998 0.0329101346
vn -0.796230555 0.594217956 0.113674745
vn -0.922448754 0.205953553 0.326606035
vn -0.981201887 -0.129205495 0.143348321
vn -0.994119406 0.0180289354 -0.106778011
vn 0.125170216 0.898333371 0.421105355
vn -0.070560351 0.87423414 0.480349869
vn -0.114884391 0.940209985 0.320634872
vn -0.053871382 0.821613789 0.56749326
vn -0.574841499 0.0445941873 0.817048788
vn -0.160036609 0.906912804 0.38974008
vn -0.317802131 0.671356022 0.669539452
vn -0.244750142 0.952512145 0.181157202
vn -0.338710189 0.900246084 0.27355504
vn -0.0170992147 0.987325907 0.157782078
vn 0.302105606 0.953258574 0.00550667383
vn 0.062890254 0.981964529 0.178298861
vn 0.155217275 0.962255299 0.223544896
vn 0.680365741 0.623672962 0.38488245
vn 0.745486677 0.508904397 0.430425286
vn 0.79825455 0.383754671 0.464243442
vn 0.719392359 0.580543339 0.38137114
vn -0.261410356 0.965202749 0.00693948148
vn 0.00654201955 0.997261167 0.0736702979
vn -0.87887603 0.458006918 0.133441344
vn 0.00139281107 0.994578838 0.103976302
vn -0.552944064 0.823213756 -0.128732428
vn 0.498730242 0.866162598 0.0321025662
vn 0.0103426389 0.999782503 -0.0181096196
vn 0.362451106 0.908048928 -0.209943846
vn -0.183694869 0.951702237 -0.246006161
vn -0.573291361 0.801260233 -0.171228141
vn -0.997259021 -0.0656649321 -0.0340957306
vn -0.629710495 0.756068587 -0.178395644
vn -0.749825835 0.640304744 -0.166646674
vn -0.0301761925 0.995395362 -0.090980418
vn 0.573589623 0.81516844 0.0805936307
vn 0.576901197 0.816077054 -0.0346872285
vn -0.666616142 0.693734944 -0.272680998
vn -0.999299526 -0.00970001332 0.0361439399
vn -0.191015452 0.92205739 -0.336635351
vn -0.397255808 0.786432981 -0.472980976
vn -0.120493926 0.777717888 -0.616957128
vn 0.267926365 0.824422121 -0.498541504
vn 0.107885554 0.898300648 -0.425930381
vn 0.630315423 0.693439007 -0.349062681
vn 0.922906756 -0.0299560782 -0.383856326
vn 0.014770098 0.874987483 -0.483920306
vn -0.203146398 0.862844586 -0.46285063
vn -0.40247193 0.700313449 -0.589556932
vn -0.32191208 0.87296927 -0.366466045
vn 0.57414484 0.750500143 -0.327272475
vn 0.283266068 0.794246912 -0.537524045
vn 0.647233069 0.74332583 -0.168985695
vn 0.979014337 0.138962403 -0.149065003
vn 0.993374765 -0.0726202577 -0.0890672952
vn 0.922992885 0.153608993 0.352829039
vn 0.998411655 0.0288313422 -0.048404105
vn 0.96676898 0.227536932 -0.116553463
vn 0.423889399 0.268035978 0.865144134
vn -0.268806964 -0.13293609 0.953976393
vn 0.93059361 -0.16022642 -0.329124749
vn -0.00748166535 0.829965472 -0.55776453
vn 0.0813405067 0.816018939 -0.572273374
vn 0.66291523 0.507118464 -0.550794303
vn 0.0125239277 0.863126755 -0.504832089
vn 0.144144058 0.826007783 -0.544916093
vn -0.0359394066 0.79136467 -0.610287011
vn 0.447745144 0.173623487 -0.877142608
vn -0.0181661416 0.767990291 -0.640203774
vn 0.0424630903 0.791724741 -0.609400392
vn -0.0122520449 0.814772844 -0.579650819
vn -0.319686919 0.700765431 -0.637752295
vn -0.136997774 0.755608439 -0.640536785
vn -0.592008531 0.471670121 -0.653493047
vn -0.70432353 0.259686798 -0.660674751
vn -0.668306589 0.173968077 -0.723257482
vn -0.745548964 0.181390941 -0.641290963
vt -1.00000024 -0.476614475
vt -0.571428239 2.24459124
vt -0.999999523 2.17308998
vt -0.571428895 -0.527299225
vt -0.428571373 0.571429014
vt -0.428570867 2.57142901
vt -0.428571701 -0.714285374
vt -0.285714597 -0.714285374
vt -0.285713971 1.8571434
vt -0.285714269 0.625322461
vt -0.428572148 -2.42857122
vt -0.142856702 2.57142901
vt -0.142856956 1.48890805
vt -0.14285706 1.0542891
vt 1.02312086E-07 0.63917923
vt 0.094172053 0.966733158
vt 0.285714626 2
vt 0.182959959 1.61244774
vt 0.285714835 2.85714293
vt 0.142857045 0.142857075
vt 1.02312086E-07 0.63917923
vt 0.094172053 0.966733158
vt 0.571429014 2
vt 0.182959959 1.61244774
vt 0.857143283 1.48640954
vt 0.428571582 0.714285612
vt 0.857143164 1.07148767
vt 0.932154417 0.571428657
vt 0.999999881 -0.285714149
vt 0.714285493 -0.428571701
vt 0.428571194 -0.857142925
vt 0.714285195 -1.71428585
vt 0.285713673 -2
vt -0.142857879 -2.3432374
vt 0.571427882 -2.50785208
vt -0.17930299 -2.89068556
vt 0.952364385 -2.28571415
vt 0.936137676 -2.42857146
vt 0.944502592 -2.57142878
vt 1.22946143 -2.28571415
vt 1.14285696 -0.428571224
vt 1.28571439 0.571428776
vt 1.22600138 1.28571463
vt 0.926391006 1.06864464
vt -1.00000107 -3.99999952
vt -0.142858267 -3.99999976
vt -0.142858103 -3.28571415
vt -0.8571437 -2.71428537
vt -1.0000006 -1.85714245
vt -0.714286447 -2.28571415
vt -0.857143521 -1.99999952
vt -0.571428955 -0.857142448
vt -1.00000024 -0.714285374
vt -1.00000024 -0.476614475
vt 0.428570569 -3.28571463
vt 0.358906686 -2.81720543
vt -0.17930299 -2.89068556
vt 0.857141912 -3.71428585
vt 1.28571332 -4
vt 0.714284897 -3.00000048
vt 1.16455126 -2.76277113
vt 1.5714277 -3
vt 1.14285624 -3.28571439
vt 2.14285612 -4.00000048
vt 2.28571367 -2.28571463
vt 2.71428514 -3.42857194
vt 2.99999905 -4.00000048
vt 2.57142806 -2.71428633
vt 2.99999928 -3.00000048
vt 2.99999952 -2.42857194
vt 2.42857075 -2.3997798
vt 1.9999994 -2
vt 2.42857099 -1.42857194
vt 2.42857075 -2.14285755
vt 2.99999952 -2.28571463
vt 2.5714283 -2.32040739
vt 2.99999976 -1.00000048
vt 2.71428585 -0.285714626
vt 3.00000048 1.85714245
vt 2.57142854 -0.571429014
vt 2.42857122 -0.142857552
vt 2.57142901 1.85714245
vt 3.00000048 2.14285707
vt 2.62506628 2.14285707
vt 2.28571391 -1.28571463
vt 2.28571463 1.5714283
vt 2.62506628 2.14285707
vt 2.08314443 -1.00000024
vt 1.85714233 -2
vt 2.06257772 -0.794564962
vt 1.71428549 -0.857142687
vt 2.28571415 -0.347714663
vt 2.06257772 -0.794564962
vt 2.28571415 -0.0904156715
vt 2.28571439 0.714285374
vt 2.03376102 0.153099462
vt 1.57142794 -2.28571415
vt 2.00000024 0.714285851
vt 1.85714293 0.235564262
vt 1.71428597 1.14285707
vt 1.49667048 0
vt 2.28571486 2.14285707
vt 1.16455126 -2.76277113
vt 1.28571403 -1
vt 1.5714283 -0.513637483
vt 1.57143295 -0.49872157
vt 1.57142806 -1.71428561
vt 1.28571475 1.85714293
vt 1.04139376 1.85714293
vt 1.14285743 1.521644
vt 1.42857218 3.28571463
vt 1.28571522 4
vt 1.85714352 2.4285717
vt 2.57142949 3.99999952
vt 3.00000095 3.99999952
vt 3.00000048 2.23661184
vt 1.09699726 1.51598704
vt 0.714286387 3.28571439
vt 9.53674316E-07 4
vt -0.428570509 4.00000048
vt -0.714285076 3.28571486
vt -0.999999166 4.00000048
vt -0.999999344 3.28571486
vt -0.714285254 2.57142901
vt -0.999999523 2.42857194
vt -0.571428239 2.24459124
vt -0.571428239 2.24459124
vt -1.00000024 -0.476614475
vt -0.999999523 2.17308998
vt -0.571428895 -0.527299225
vt -0.428571373 0.571429014
vt -0.428570867 2.57142901
vt -0.428571701 -0.714285374
vt -0.285714597 -0.714285374
vt -0.285713971 1.8571434
vt -0.285714269 0.625322461
vt -0.428572148 -2.42857122
vt -0.142856702 2.57142901
vt -0.142856956 1.48890805
vt 0.285714626 2
vt 0.182959959 1.61244774
vt -0.14285706 1.0542891
vt 1.02312086E-07 0.63917923
vt 0.094172053 0.966733158
vt 0.285714835 2.85714293
vt 0.142857045 0.142857075
vt 1.02312086E-07 0.63917923
vt 0.094172053 0.966733158
vt 0.571429014 2
vt 0.182959959 1.61244774
vt 0.857143283 1.48640954
vt 0.428571582 0.714285612
vt 0.857143164 1.07148767
vt 0.932154417 0.571428657
vt 0.999999881 -0.285714149
vt 0.714285493 -0.428571701
vt 0.428571194 -0.857142925
vt 0.714285195 -1.71428585
vt 0.285713673 -2
vt -0.142857879 -2.3432374
vt 0.571427882 -2.50785208
vt -0.17930299 -2.89068556
vt 0.952364385 -2.28571415
vt 0.936137676 -2.42857146
vt 0.944502592 -2.57142878
vt 1.22946143 -2.28571415
vt 1.14285696 -0.428571224
vt 1.28571439 0.571428776
vt 1.22600138 1.28571463
vt 0.926391006 1.06864464
vt -1.00000107 -3.99999952
vt -0.142858267 -3.99999976
vt -0.142858103 -3.28571415
vt -0.8571437 -2.71428537
vt -1.0000006 -1.85714245
vt -0.714286447 -2.28571415
vt -0.857143521 -1.99999952
vt -0.571428955 -0.857142448
vt -1.00000024 -0.714285374
vt -1.00000024 -0.476614475
vt 0.428570569 -3.28571463
vt 0.857141912 -3.71428585
vt 1.28571332 -4
vt 0.358906686 -2.81720543
vt -0.17930299 -2.89068556
vt 0.714284897 -3.00000048
vt 1.16455126 -2.76277113
vt 1.5714277 -3
vt 1.14285624 -3.28571439
vt 2.14285612 -4.00000048
vt 2.28571367 -2.28571463
vt 2.71428514 -3.42857194
vt 2.99999905 -4.00000048
vt 2.57142806 -2.71428633
vt 2.99999928 -3.00000048
vt 2.99999952 -2.42857194
vt 2.42857075 -2.3997798
vt 1.9999994 -2
vt 1.85714233 -2
vt 2.08314443 -1.00000024
vt 2.06257772 -0.794564962
vt 2.28571391 -1.28571463
vt 1.71428549 -0.857142687
vt 1.57142794 -2.28571415
vt 2.42857099 -1.42857194
vt 2.42857122 -0.142857552
vt 2.28571415 -0.347714663
vt 2.06257772 -0.794564962
vt 2.28571415 -0.0904156715
vt 1.16455126 -2.76277113
vt 1.28571403 -1
vt 1.5714283 -0.513637483
vt 1.57142806 -1.71428561
vt 2.28571439 0.714285374
vt 2.03376102 0.153099462
vt 2.28571463 1.5714283
vt 2.00000024 0.714285851
vt 2.03376102 0.153099462
vt 1.85714293 0.235564262
vt 1.71428597 1.14285707
vt 1.49667048 0
vt 1.57143295 -0.49872157
vt 2.28571486 2.14285707
vt 1.28571475 1.85714293
vt 1.04139376 1.85714293
vt 1.14285743 1.521644
vt 2.57142901 1.85714245
vt 2.62506628 2.14285707
vt 2.57142854 -0.571429014
vt 2.42857075 -2.14285755
vt 2.99999952 -2.28571463
vt 2.5714283 -2.32040739
vt 2.99999976 -1.00000048
vt 2.71428585 -0.285714626
vt 3.00000048 1.85714245
vt 3.00000048 2.14285707
vt 2.62506628 2.14285707
vt 2.57142949 3.99999952
vt 3.00000095 3.99999952
vt 3.00000048 2.23661184
vt 1.85714352 2.4285717
vt 1.42857218 3.28571463
vt 1.28571522 4
vt 1.09699726 1.51598704
vt 0.714286387 3.28571439
vt 9.53674316E-07 4
vt -0.428570509 4.00000048
vt -0.714285076 3.28571486
vt -0.999999166 4.00000048
vt -0.999999344 3.28571486
vt -0.714285254 2.57142901
vt -0.571428239 2.24459124
vt -0.999999523 2.42857194
g submesh0
f 1/1/1 2/2/2 3/3/3
f 2/2/2 1/1/1 4/4/4
f 4/4/4 5/5/5 2/2/2
f 6/6/6 2/2/2 5/5/5
f 5/5/5 4/4/4 7/7/7
f 7/7/7 8/8/8 5/5/5
f 5/5/5 9/9/9 6/6/6
f 10/10/10 5/5/5 8/8/8
f 9/9/9 5/5/5 10/10/10
f 11/11/11 8/8/8 7/7/7
f 12/12/12 6/6/6 9/9/9
f 13/13/13 9/9/9 10/10/10
f 13/13/13 10/10/10 14/14/14
f 14/14/14 10/10/10 15/15/15
f 15/15/15 16/16/16 14/14/14
f 13/13/13 17/17/17 9/9/9
f 17/17/17 13/13/13 18/18/18
f 19/19/19 9/9/9 17/17/17
f 19/19/19 12/12/12 9/9/9
f 8/8/8 20/20/20 10/10/10
f 20/20/20 21/21/21 10/10/10
f 22/22/22 21/21/21 20/20/20
f 17/17/17 23/23/23 19/19/19
f 24/24/24 23/23/23 17/17/17
f 23/23/23 24/24/24 25/25/25
f 20/20/20 26/26/26 22/22/22
f 26/26/26 27/27/27 22/22/22
f 26/26/26 28/28/28 27/27/27
f 26/26/26 29/29/29 28/28/28
f 26/26/26 20/20/20 30/30/30
f 26/26/26 30/30/30 29/29/29
f 31/31/31 30/30/30 20/20/20
f 20/20/20 8/8/8 31/31/31
f 30/30/30 31/31/31 32/32/32
f 32/32/32 29/29/29 30/30/30
f 33/33/33 31/31/31 8/8/8
f 33/33/33 32/32/32 31/31/31
f 8/8/8 34/34/34 33/33/33
f 8/8/8 11/11/11 34/34/34
f 33/33/33 34/34/34 35/35/35
f 32/32/32 33/33/33 35/35/35
f 36/36/36 34/34/34 11/11/11
f 35/35/35 37/37/37 32/32/32
f 29/29/29 32/32/32 37/37/37
f 38/38/38 37/37/37 35/35/35
f 39/39/39 38/38/38 35/35/35
f 37/37/37 40/40/40 29/29/29
f 41/41/41 29/29/29 40/40/40
f 42/42/42 29/29/29 41/41/41
f 29/29/29 42/42/42 28/28/28
f 43/43/43 28/28/28 42/42/42
f 28/28/28 43/43/43 44/44/44
f 45/45/45 36/36/36 11/11/11
f 36/36/36 45/45/45 46/46/46
f 47/47/47 36/36/36 46/46/46
f 11/11/11 48/48/48 45/45/45
f 45/45/45 48/48/48 49/49/49
f 48/48/48 11/11/11 50/50/50
f 7/7/7 50/50/50 11/11/11
f 51/51/51 49/49/49 48/48/48
f 48/48/48 50/50/50 51/51/51
f 52/52/52 49/49/49 51/51/51
f 51/51/51 50/50/50 52/52/52
f 50/50/50 7/7/7 52/52/52
f 52/52/52 53/53/53 49/49/49
f 52/52/52 7/7/7 53/53/53
f 54/54/54 53/53/53 7/7/7
f 47/47/47 46/46/46 55/55/55
f 56/56/56 47/47/47 55/55/55
f 47/47/47 56/56/56 57/57/57
f 46/46/46 58/58/58 55/55/55
f 59/59/59 58/58/58 46/46/46
f 56/56/56 55/55/55 60/60/60
f 60/60/60 55/55/55 58/58/58
f 60/60/60 61/61/61 56/56/56
f 60/60/60 62/62/62 61/61/61
f 63/63/63 62/62/62 60/60/60
f 59/59/59 62/62/62 63/63/63
f 58/58/58 63/63/63 60/60/60
f 63/63/63 58/58/58 59/59/59
f 62/62/62 59/59/59 64/64/64
f 65/65/65 62/62/62 64/64/64
f 64/64/64 66/66/66 65/65/65
f 64/64/64 67/67/67 66/66/66
f 68/68/68 66/66/66 67/67/67
f 68/68/68 65/65/65 66/66/66
f 67/67/67 69/69/69 68/68/68
f 70/70/70 68/68/68 69/69/69
f 68/68/68 70/70/70 71/71/71
f 71/71/71 65/65/65 68/68/68
f 72/72/72 62/62/62 65/65/65
f 72/72/72 65/65/65 73/73/73
f 73/73/73 65/65/65 74/74/74
f 74/74/74 65/65/65 75/75/75
f 65/65/65 76/76/76 75/75/75
f 74/74/74 75/75/75 77/77/77
f 77/77/77 78/78/78 74/74/74
f 79/79/79 78/78/78 77/77/77
f 74/74/74 78/78/78 80/80/80
f 80/80/80 73/73/73 74/74/74
f 73/73/73 80/80/80 81/81/81
f 79/79/79 82/82/82 78/78/78
f 80/80/80 78/78/78 82/82/82
f 82/82/82 81/81/81 80/80/80
f 83/83/83 82/82/82 79/79/79
f 82/82/82 83/83/83 84/84/84
f 72/72/72 73/73/73 85/85/85
f 81/81/81 85/85/85 73/73/73
f 81/81/81 82/82/82 86/86/86
f 87/87/87 86/86/86 82/82/82
f 72/72/72 85/85/85 88/88/88
f 88/88/88 89/89/89 72/72/72
f 90/90/90 89/89/89 88/88/88
f 62/62/62 72/72/72 89/89/89
f 89/89/89 90/90/90 91/91/91
f 85/85/85 81/81/81 92/92/92
f 92/92/92 93/93/93 85/85/85
f 92/92/92 81/81/81 94/94/94
f 94/94/94 81/81/81 95/95/95
f 86/86/86 95/95/95 81/81/81
f 94/94/94 95/95/95 96/96/96
f 62/62/62 89/89/89 97/97/97
f 97/97/97 89/89/89 91/91/91
f 86/86/86 98/98/98 95/95/95
f 98/98/98 99/99/99 95/95/95
f 99/99/99 98/98/98 100/100/100
f 100/100/100 101/101/101 99/99/99
f 98/98/98 86/86/86 102/102/102
f 102/102/102 100/100/100 98/98/98
f 86/86/86 87/87/87 102/102/102
f 97/97/97 40/40/40 62/62/62
f 103/103/103 62/62/62 40/40/40
f 104/104/104 40/40/40 97/97/97
f 41/41/41 40/40/40 104/104/104
f 105/105/105 41/41/41 91/91/91
f 101/101/101 41/41/41 106/106/106
f 91/91/91 107/107/107 97/97/97
f 97/97/97 107/107/107 104/104/104
f 107/107/107 91/91/91 41/41/41
f 41/41/41 104/104/104 107/107/107
f 42/42/42 41/41/41 101/101/101
f 101/101/101 100/100/100 42/42/42
f 42/42/42 100/100/100 108/108/108
f 42/42/42 108/108/108 43/43/43
f 108/108/108 109/109/109 43/43/43
f 110/110/110 43/43/43 109/109/109
f 111/111/111 108/108/108 100/100/100
f 112/112/112 109/109/109 108/108/108
f 108/108/108 111/111/111 112/112/112
f 113/113/113 111/111/111 100/100/100
f 113/113/113 100/100/100 102/102/102
f 114/114/114 111/111/111 113/113/113
f 114/114/114 113/113/113 102/102/102
f 111/111/111 114/114/114 112/112/112
f 102/102/102 87/87/87 114/114/114
f 115/115/115 114/114/114 87/87/87
f 115/115/115 87/87/87 116/116/116
f 112/112/112 23/23/23 109/109/109
f 25/25/25 109/109/109 23/23/23
f 109/109/109 25/25/25 117/117/117
f 118/118/118 23/23/23 112/112/112
f 23/23/23 118/118/118 19/19/19
f 118/118/118 112/112/112 119/119/119
f 119/119/119 19/19/19 118/118/118
f 119/119/119 12/12/12 19/19/19
f 12/12/12 119/119/119 120/120/120
f 6/6/6 12/12/12 120/120/120
f 6/6/6 120/120/120 121/121/121
f 121/121/121 120/120/120 122/122/122
f 121/121/121 122/122/122 123/123/123
f 121/121/121 123/123/123 6/6/6
f 124/124/124 6/6/6 123/123/123
f 125/125/125 124/124/124 123/123/123
f 6/6/6 124/124/124 126/126/126
f 124/124/124 125/125/125 126/126/126
f 127/127/127 128/128/128 129/129/129
f 128/128/128 127/127/127 130/130/130
f 131/131/131 130/130/130 127/127/127
f 127/127/127 132/132/132 131/131/131
f 130/130/130 131/131/131 133/133/133
f 134/134/134 133/133/133 131/131/131
f 135/135/135 131/131/131 132/132/132
f 131/131/131 136/136/136 134/134/134
f 131/131/131 135/135/135 136/136/136
f 134/134/134 137/137/137 133/133/133
f 132/132/132 138/138/138 135/135/135
f 135/135/135 139/139/139 136/136/136
f 140/140/140 139/139/139 135/135/135
f 139/139/139 140/140/140 141/141/141
f 136/136/136 139/139/139 142/142/142
f 136/136/136 142/142/142 143/143/143
f 144/144/144 143/143/143 142/142/142
f 135/135/135 145/145/145 140/140/140
f 138/138/138 145/145/145 135/135/135
f 146/146/146 134/134/134 136/136/136
f 147/147/147 146/146/146 136/136/136
f 147/147/147 148/148/148 146/146/146
f 149/149/149 140/140/140 145/145/145
f 149/149/149 150/150/150 140/140/140
f 150/150/150 149/149/149 151/151/151
f 152/152/152 146/146/146 148/148/148
f 153/153/153 152/152/152 148/148/148
f 154/154/154 152/152/152 153/153/153
f 155/155/155 152/152/152 154/154/154
f 146/146/146 152/152/152 156/156/156
f 156/156/156 152/152/152 155/155/155
f 156/156/156 157/157/157 146/146/146
f 134/134/134 146/146/146 157/157/157
f 157/157/157 156/156/156 158/158/158
f 155/155/155 158/158/158 156/156/156
f 157/157/157 159/159/159 134/134/134
f 158/158/158 159/159/159 157/157/157
f 160/160/160 134/134/134 159/159/159
f 137/137/137 134/134/134 160/160/160
f 160/160/160 159/159/159 161/161/161
f 159/159/159 158/158/158 161/161/161
f 160/160/160 162/162/162 137/137/137
f 163/163/163 161/161/161 158/158/158
f 158/158/158 155/155/155 163/163/163
f 163/163/163 164/164/164 161/161/161
f 165/165/165 161/161/161 164/164/164
f 166/166/166 163/163/163 155/155/155
f 155/155/155 167/167/167 166/166/166
f 155/155/155 168/168/168 167/167/167
f 168/168/168 155/155/155 154/154/154
f 154/154/154 169/169/169 168/168/168
f 154/154/154 170/170/170 169/169/169
f 162/162/162 171/171/171 137/137/137
f 171/171/171 162/162/162 172/172/172
f 162/162/162 173/173/173 172/172/172
f 174/174/174 137/137/137 171/171/171
f 174/174/174 171/171/171 175/175/175
f 137/137/137 174/174/174 176/176/176
f 176/176/176 133/133/133 137/137/137
f 175/175/175 177/177/177 174/174/174
f 176/176/176 174/174/174 177/177/177
f 175/175/175 178/178/178 177/177/177
f 176/176/176 177/177/177 178/178/178
f 133/133/133 176/176/176 178/178/178
f 179/179/179 178/178/178 175/175/175
f 133/133/133 178/178/178 179/179/179
f 179/179/179 180/180/180 133/133/133
f 172/172/172 173/173/173 181/181/181
f 182/182/182 172/172/172 181/181/181
f 182/182/182 183/183/183 172/172/172
f 173/173/173 184/184/184 181/181/181
f 173/173/173 185/185/185 184/184/184
f 181/181/181 184/184/184 186/186/186
f 181/181/181 186/186/186 182/182/182
f 187/187/187 186/186/186 184/184/184
f 186/186/186 187/187/187 188/188/188
f 188/188/188 189/189/189 186/186/186
f 188/188/188 183/183/183 189/189/189
f 189/189/189 182/182/182 186/186/186
f 182/182/182 189/189/189 183/183/183
f 183/183/183 188/188/188 190/190/190
f 188/188/188 191/191/191 190/190/190
f 192/192/192 190/190/190 191/191/191
f 193/193/193 190/190/190 192/192/192
f 192/192/192 194/194/194 193/193/193
f 191/191/191 194/194/194 192/192/192
f 195/195/195 193/193/193 194/194/194
f 194/194/194 196/196/196 195/195/195
f 196/196/196 194/194/194 197/197/197
f 191/191/191 197/197/197 194/194/194
f 188/188/188 198/198/198 191/191/191
f 198/198/198 188/188/188 199/199/199
f 199/199/199 200/200/200 198/198/198
f 199/199/199 201/201/201 200/200/200
f 202/202/202 198/198/198 200/200/200
f 201/201/201 199/199/199 203/203/203
f 199/199/199 188/188/188 204/204/204
f 199/199/199 204/204/204 203/203/203
f 191/191/191 198/198/198 205/205/205
f 205/205/205 198/198/198 202/202/202
f 202/202/202 206/206/206 205/205/205
f 206/206/206 202/202/202 207/207/207
f 208/208/208 207/207/207 202/202/202
f 206/206/206 207/207/207 209/209/209
f 166/166/166 204/204/204 188/188/188
f 188/188/188 210/210/210 166/166/166
f 166/166/166 211/211/211 204/204/204
f 166/166/166 167/167/167 211/211/211
f 167/167/167 212/212/212 203/203/203
f 213/213/213 203/203/203 204/204/204
f 213/213/213 204/204/204 211/211/211
f 203/203/203 213/213/213 167/167/167
f 211/211/211 167/167/167 213/213/213
f 206/206/206 209/209/209 214/214/214
f 209/209/209 215/215/215 214/214/214
f 214/214/214 216/216/216 206/206/206
f 217/217/217 216/216/216 214/214/214
f 218/218/218 217/217/217 214/214/214
f 219/219/219 217/217/217 218/218/218
f 217/217/217 219/219/219 220/220/220
f 221/221/221 220/220/220 219/219/219
f 167/167/167 221/221/221 222/222/222
f 167/167/167 168/168/168 221/221/221
f 220/220/220 221/221/221 168/168/168
f 216/216/216 217/217/217 223/223/223
f 220/220/220 223/223/223 217/217/217
f 220/220/220 168/168/168 224/224/224
f 224/224/224 168/168/168 169/169/169
f 225/225/225 224/224/224 169/169/169
f 169/169/169 226/226/226 225/225/225
f 227/227/227 206/206/206 216/216/216
f 228/228/228 216/216/216 223/223/223
f 216/216/216 228/228/228 227/227/227
f 206/206/206 227/227/227 229/229/229
f 229/229/229 205/205/205 206/206/206
f 205/205/205 229/229/229 230/230/230
f 191/191/191 205/205/205 230/230/230
f 191/191/191 230/230/230 231/231/231
f 232/232/232 191/191/191 231/231/231
f 231/231/231 230/230/230 233/233/233
f 234/234/234 230/230/230 229/229/229
f 234/234/234 233/233/233 230/230/230
f 234/234/234 229/229/229 227/227/227
f 234/234/234 235/235/235 233/233/233
f 227/227/227 235/235/235 234/234/234
f 227/227/227 236/236/236 235/235/235
f 236/236/236 227/227/227 237/237/237
f 228/228/228 223/223/223 238/238/238
f 238/238/238 239/239/239 228/228/228
f 228/228/228 239/239/239 240/240/240
f 241/241/241 238/238/238 223/223/223
f 220/220/220 241/241/241 223/223/223
f 242/242/242 238/238/238 241/241/241
f 242/242/242 241/241/241 220/220/220
f 224/224/224 242/242/242 220/220/220
f 238/238/238 242/242/242 243/243/243
f 242/242/242 224/224/224 243/243/243
f 225/225/225 243/243/243 224/224/224
f 149/149/149 243/243/243 225/225/225
f 225/225/225 151/151/151 149/149/149
f 151/151/151 225/225/225 244/244/244
f 149/149/149 245/245/245 243/243/243
f 245/245/245 149/149/149 145/145/145
f 243/243/243 245/245/245 246/246/246
f 145/145/145 246/246/246 245/245/245
f 138/138/138 246/246/246 145/145/145
f 246/246/246 138/138/138 247/247/247
f 138/138/138 132/132/132 247/247/247
f 247/247/247 132/132/132 248/248/248
f 247/247/247 248/248/248 249/249/249
f 249/249/249 248/248/248 250/250/250
f 250/250/250 248/248/248 132/132/132
f 132/132/132 251/251/251 250/250/250
f 251/251/251 132/132/132 252/252/252
f 251/251/251 253/253/253 250/250/250
f 253/253/253 251/251/251 252/252/252
