# rope_bridge_600_COL
v 1.15841794 0.558763266 4.66328287
v 1.65723693 0.597670019 5.01873255
v 1.39219439 0.106585771 4.81233501
v 0.966205895 0.705670059 4.9098382
v 1.50330579 0.937593758 5.56193352
v 1.82528162 1.15347564 5.94107056
v 0.782263875 1.11970806 5.90714121
v 1.09154344 0.470192164 4.55593348
v 1.15595114 0.0291111302 4.5991044
v 1.06216323 0.213839397 3.80511856
v 1.10492516 -0.143093258 4.15400076
v 0.178145841 0.355507016 3.92016959
v 0.646856666 0.392832875 3.91629028
v 0.904786646 0.28260839 3.73928428
v 0.246330529 0.972967565 5.54460382
v 3.32596358E-07 1.15347469 5.9410696
v -0.0910930261 0.324781179 4.19554138
v -0.458994895 0.229082957 4.34696722
v -1.04301715 1.11970723 5.90714121
v -0.687290013 0.279215723 4.46576881
v -0.684404075 0.090521045 4.17499828
v -1.24950075 0.945026219 5.55296373
v -1.8252809 1.15347397 5.94107056
v -1.0535084 0.255456179 3.98996425
v -1.00828707 0.143337056 3.5587213
v -1.40024054 0.678000391 4.97340775
v -1.41879237 -0.0475178026 3.64703298
v -1.21308076 -0.0335847214 3.40869236
v -1.32941818 -0.355258733 3.19991946
v -1.03784311 0.0585985407 3.25695062
v -0.826151788 0.0271080397 3.09971976
v -0.375523299 -0.0458735563 3.49066186
v -0.816422105 -0.00671609631 3.61208606
v -0.364545584 -0.036556311 4.21123075
v 0.000869368378 0.093253918 4.11235285
v -1.0186609 -0.128807873 2.72617102
v -1.05797434 -0.448204935 3.14723015
v -1.26752651 -0.639555335 2.48062992
v -0.87416172 -0.0774317831 2.46515465
v -1.03800845 -0.274662852 2.33087301
v -0.932602048 -0.98478353 2.23279452
v -0.936352372 -0.454764038 2.13901234
v -0.790576458 -0.105673432 1.99883556
v 0.188941553 0.294579685 3.70321798
v -0.473987341 -0.0871730298 1.99194515
v -0.722803533 -0.100971699 1.3447578
v -0.946525574 -0.141746551 1.8688941
v 0.663011134 0.148755357 2.86060786
v -0.246418297 -0.0638427287 1.77409768
v -1.69969952 -0.239854679 0.880538642
v -1.57909513 -0.444864869 1.55652511
v 0.885621548 0.109168731 2.92387652
v 1.01679409 -0.0403499305 3.09059405
v 1.0319829 -0.448406905 3.31300855
v 1.06434977 -0.235696897 3.91874218
v 0.710767865 -0.00702818809 1.35204434
v 0.836001515 0.0580692142 2.82694674
v 0.873164952 -0.119193248 3.01667452
v 0.958432913 -0.108360447 1.36061764
v 0.964608431 -0.723824501 1.55719697
v 0.89169699 -0.583986402 2.89655638
v 0.996410251 -0.171266437 0.929968953
v 0.499835849 -0.0236376468 0.703799546
v 0.99740082 -0.068532519 0.701664746
v 8.83751568E-07 -0.00238136831 0.0534565151
v 1.04301906 -0.00238088146 0.0881480798
v -1.23400581 -0.139917374 0.684496343
v -1.82528043 -0.00238223886 0.0534565151
v 1.25475848 -0.0905647129 0.478215486
v 1.82528222 -0.00238049799 0.0534565151
v 1.67553627 -0.360244602 0.574993908
v 1.29586565 -1.05924213 0.644308448
v 1.08868289 -0.682765722 0.730654299
v 0.954969406 -0.511158526 0.674221456
v 1.65723693 0.597670019 5.01873255
v 1.15841794 0.558763266 4.66328287
v 1.39219439 0.106585771 4.81233501
v 0.966205895 0.705670059 4.9098382
v 1.09154344 0.470192164 4.55593348
v 1.15595114 0.0291111302 4.5991044
v 1.50330579 0.937593758 5.56193352
v 1.82528162 1.15347564 5.94107056
v 0.782263875 1.11970806 5.90714121
v 1.06216323 0.213839397 3.80511856
v 1.10492516 -0.143093258 4.15400076
v 0.178145841 0.355507016 3.92016959
v 0.646856666 0.392832875 3.91629028
v 0.904786646 0.28260839 3.73928428
v 0.246330529 0.972967565 5.54460382
v 3.32596358E-07 1.15347469 5.9410696
v -0.0910930261 0.324781179 4.19554138
v -0.458994895 0.229082957 4.34696722
v -1.04301715 1.11970723 5.90714121
v -0.687290013 0.279215723 4.46576881
v -0.684404075 0.090521045 4.17499828
v -1.24950075 0.945026219 5.55296373
v -1.8252809 1.15347397 5.94107056
v -1.0535084 0.255456179 3.98996425
v -1.00828707 0.143337056 3.5587213
v -1.40024054 0.678000391 4.97340775
v -1.41879237 -0.0475178026 3.64703298
v -1.21308076 -0.0335847214 3.40869236
v -1.32941818 -0.355258733 3.19991946
v -1.03784311 0.0585985407 3.25695062
v -0.826151788 0.0271080397 3.09971976
v -0.375523299 -0.0458735563 3.49066186
v -0.816422105 -0.00671609631 3.61208606
v -0.364545584 -0.036556311 4.21123075
v 0.000869368378 0.093253918 4.11235285
v -1.0186609 -0.128807873 2.72617102
v -1.05797434 -0.448204935 3.14723015
v -1.26752651 -0.639555335 2.48062992
v -0.87416172 -0.0774317831 2.46515465
v -1.03800845 -0.274662852 2.33087301
v -0.932602048 -0.98478353 2.23279452
v -0.936352372 -0.454764038 2.13901234
v -0.790576458 -0.105673432 1.99883556
v 0.188941553 0.294579685 3.70321798
v -0.473987341 -0.0871730298 1.99194515
v -0.722803533 -0.100971699 1.3447578
v -0.946525574 -0.141746551 1.8688941
v 0.663011134 0.148755357 2.86060786
v -0.246418297 -0.0638427287 1.77409768
v -1.69969952 -0.239854679 0.880538642
v -1.57909513 -0.444864869 1.55652511
v 0.885621548 0.109168731 2.92387652
v 1.01679409 -0.0403499305 3.09059405
v 1.0319829 -0.448406905 3.31300855
v 1.06434977 -0.235696897 3.91874218
v 0.710767865 -0.00702818809 1.35204434
v 0.836001515 0.0580692142 2.82694674
v 0.873164952 -0.119193248 3.01667452
v 0.958432913 -0.108360447 1.36061764
v 0.964608431 -0.723824501 1.55719697
v 0.89169699 -0.583986402 2.89655638
v 0.996410251 -0.171266437 0.929968953
v 0.499835849 -0.0236376468 0.703799546
v 0.99740082 -0.068532519 0.701664746
v 8.83751568E-07 -0.00238136831 0.0534565151
v -1.23400581 -0.139917374 0.684496343
v -1.82528043 -0.00238223886 0.0534565151
v 1.04301906 -0.00238088146 0.0881480798
v 1.25475848 -0.0905647129 0.478215486
v 1.82528222 -0.00238049799 0.0534565151
v 1.67553627 -0.360244602 0.574993908
v 1.29586565 -1.05924213 0.644308448
v 1.08868289 -0.682765722 0.730654299
v 0.954969406 -0.511158526 0.674221456
vn 0.291323334 0.677529573 -0.675340235
vn 0.327345163 0.703796566 -0.630488455
vn 0.578479111 0.0303806327 -0.815131187
vn 0.123108998 0.908260226 -0.399884462
vn 0.0546982177 0.878504992 -0.474591434
vn 0.00681100879 0.8664819 -0.499162048
vn 0.0225948114 0.918141603 -0.39560765
vn 0.689664125 0.553798854 -0.466551423
vn 0.983397067 0.0912718326 -0.156843111
vn 0.829524159 0.521318614 -0.200291172
vn 0.9932307 0.00558634941 -0.11602363
vn -0.308314145 0.93095845 -0.195598438
vn 0.0696955845 0.961366057 -0.266304314
vn 0.351798594 0.906192124 -0.234635055
vn -0.07018812 0.911030531 -0.406321347
vn -0.0278715547 0.886467755 -0.461950392
vn -0.391268104 0.863880038 -0.317207247
vn -0.172634095 0.868054628 -0.46548757
vn 0.0195205789 0.876995087 -0.480102718
vn 0.150463656 0.867986321 -0.473244488
vn 0.384752721 0.812153161 -0.438603133
vn 0.0675286427 0.891036391 -0.448880911
vn 0.00667030411 0.894986391 -0.4460437
vn 0.156786352 0.922030866 -0.353945166
vn -0.177271172 0.972905815 -0.148422495
vn -0.061260011 0.893577039 -0.444710314
vn -0.533731699 0.721250057 -0.44150725
vn -0.600616574 0.688346148 -0.406742394
vn -0.664053798 0.560977161 -0.494304687
vn -0.476355195 0.829697192 -0.291012496
vn 0.100426242 0.969715118 -0.222636759
vn -0.189196557 0.981892824 0.00954654347
vn 0.222641766 0.805951178 0.548519254
vn -0.205418199 0.97862798 -0.00952456705
vn -0.551701665 0.820363224 0.150430828
vn -0.771872818 0.630810082 -0.0793154538
vn -0.978535116 0.197595358 0.0585232116
vn -0.846259236 0.254019201 -0.468315601
vn -0.363314301 0.921835184 -0.134991109
vn -0.831844926 0.406746358 -0.37761271
vn -0.710763574 -0.00835442916 -0.70338136
vn -0.883192182 0.00112476968 -0.469009906
vn -0.283124804 0.95097363 -0.124456838
vn -0.251507699 0.94421798 -0.212594301
vn -0.135609567 0.989509821 -0.0498041362
vn -0.10695073 0.9941203 0.0169183612
vn -0.249258071 0.967141032 0.0500873774
vn 0.148270935 0.968938112 -0.197925553
vn -0.102292009 0.993061602 -0.0580081306
vn -0.207425132 0.956497788 0.205150351
vn -0.535730004 0.776745617 0.331148982
vn 0.655823529 0.645688772 -0.39112851
vn 0.939876437 0.298524797 -0.165877044
vn 0.998227537 -0.00127788377 -0.0595001131
vn 0.998688519 -0.00792708807 -0.0505803637
vn 0.17443721 0.981677055 -0.0766939074
vn 0.792736411 0.56206888 -0.23589763
vn 0.998114705 0.0557954237 -0.0255716741
vn 0.653443336 0.755165517 -0.0523161963
vn 0.998317719 0.0264875591 0.0515762866
vn 0.998317838 0.0264740102 0.0515819117
vn 0.262820721 0.961897254 0.0753586218
vn 0.043016836 0.998006046 0.0461904891
vn 0.166003942 0.861434758 0.479971737
vn -0.0316593722 0.997189105 0.0679077208
vn 0.0544578172 0.990162611 0.128889322
vn -0.0911275446 0.984851301 0.147524834
vn -0.0353148319 0.96905756 0.244295597
vn 0.259668827 0.90832454 0.32790029
vn 0.195771083 0.874156058 0.444437623
vn 0.306304365 0.449260175 0.839251459
vn 0.278712541 0.0283902753 0.959954858
vn 0.429828435 0.106195718 0.896643758
vn -0.407765865 -0.0175122712 0.912918568
vn -0.327345163 -0.703796566 0.630488455
vn -0.291323334 -0.677529573 0.675340235
vn -0.578479171 -0.0303806197 0.815131247
vn -0.123108998 -0.908260226 0.399884462
vn -0.689664125 -0.553798854 0.466551423
vn -0.983397067 -0.0912718326 0.156843111
vn -0.0546982214 -0.878504992 0.474591494
vn -0.00681101531 -0.8664819 0.499162048
vn -0.0225948133 -0.918141603 0.39560765
vn -0.829524159 -0.521318614 0.200291172
vn -0.9932307 -0.00558634941 0.11602363
vn 0.308314145 -0.93095845 0.195598438
vn -0.0696955845 -0.961366057 0.266304314
vn -0.351798594 -0.906192124 0.234635025
vn 0.0701880902 -0.911030531 0.406321317
vn 0.0278715286 -0.886467755 0.461950392
vn 0.391268075 -0.863880157 0.317207217
vn 0.172634065 -0.868054628 0.46548757
vn -0.0195205733 -0.876995087 0.480102658
vn -0.150463641 -0.867986321 0.473244458
vn -0.384752721 -0.812153161 0.438603133
vn -0.0675286055 -0.891036391 0.448880911
vn -0.00667025801 -0.894986391 0.4460437
vn -0.156786263 -0.922030866 0.353945166
vn 0.177271128 -0.972905815 0.14842248
vn 0.0612601824 -0.893577039 0.444710344
vn 0.533731699 -0.721250057 0.44150725
vn 0.600616574 -0.688346148 0.406742334
vn 0.664053738 -0.560977101 0.494304687
vn 0.476355135 -0.829697192 0.291012496
vn -0.100426242 -0.969715118 0.222636759
vn 0.189196572 -0.981892824 -0.00954654627
vn -0.222641766 -0.805951178 -0.548519254
vn 0.205418199 -0.97862798 0.00952456705
vn 0.551701665 -0.820363224 -0.150430828
vn 0.771872818 -0.630810082 0.0793154612
vn 0.978535116 -0.197595358 -0.0585232191
vn 0.846259236 -0.254019201 0.468315601
vn 0.363314301 -0.921835184 0.134991109
vn 0.831844926 -0.406746328 0.37761271
vn 0.710763574 0.00835442916 0.70338136
vn 0.883192182 -0.00112477702 0.469009906
vn 0.283124834 -0.95097363 0.124456838
vn 0.251507699 -0.94421798 0.212594286
vn 0.135609597 -0.989509821 0.0498041436
vn 0.106950723 -0.9941203 -0.0169183612
vn 0.249258071 -0.967141032 -0.0500873886
vn -0.148270935 -0.968938112 0.197925553
vn 0.102292009 -0.993061602 0.0580081306
vn 0.207425132 -0.956497788 -0.205150351
vn 0.535729945 -0.776745617 -0.331148982
vn -0.655823529 -0.645688713 0.39112854
vn -0.939876437 -0.298524797 0.165877059
vn -0.998227537 0.001277884 0.0595001057
vn -0.998688519 0.0079270862 0.0505803488
vn -0.174437165 -0.981677055 0.0766939297
vn -0.792736292 -0.56206882 0.23589763
vn -0.998114705 -0.0557954386 0.0255716816
vn -0.653443336 -0.755165517 0.0523161888
vn -0.998317719 -0.0264875591 -0.0515762866
vn -0.998317838 -0.0264740102 -0.0515819117
vn -0.262820721 -0.961897254 -0.0753586218
vn -0.043016836 -0.998006046 -0.046190504
vn -0.166003957 -0.861434758 -0.479971737
vn 0.0316593684 -0.997189105 -0.0679077506
vn 0.0911275521 -0.984851301 -0.147524893
vn 0.0353148356 -0.96905756 -0.244295597
vn -0.0544578284 -0.990162611 -0.128889322
vn -0.259668827 -0.90832454 -0.32790029
vn -0.195771083 -0.874156058 -0.444437623
vn -0.306304365 -0.449260175 -0.839251459
vn -0.278712571 -0.0283902586 -0.959954798
vn -0.429828435 -0.106195688 -0.896643758
vn 0.407765865 0.0175122712 -0.912918568
vt 1.71428609 1.07018185
vt 2.00000024 1.28571391
vt 2.00000024 0.890909731
vt 1.57142889 1.28571391
vt 1.85714328 1.71428537
vt 2.00000048 1.99999964
vt 1.42857194 1.99999976
vt 1.71428609 0.999999523
vt 2.00000024 0.890909731
vt 1.71428585 0.458520561
vt 2 0.571428061
vt 1.14285719 0.571428299
vt 1.42857158 0.571428299
vt 1.57142866 0.428570986
vt 1.14285755 1.71428561
vt 1.00000048 1.99999976
vt 0.955721021 0.714285493
vt 0.714285851 0.770996332
vt 0.428571939 1.99999988
vt 0.571428716 0.857142806
vt 0.571428657 0.626676321
vt 0.285714656 1.71428585
vt 3.57627869E-07 2
vt 0.285714328 0.571428537
vt 0.285714269 0.285714269
vt 0.142857358 1.28571439
vt -5.10896996E-08 0.285714269
vt 0.14285706 0.142857075
vt -1.38513656E-07 -0.0809683949
vt 0.285714209 0.0804163963
vt 0.428571343 -1.1920929E-07
vt 0.714285731 0.285714149
vt 0.369011164 0.428571373
vt 0.714285851 0.770996332
vt 0.955721021 0.714285493
vt 0.28571409 -0.285714388
vt -1.38513656E-07 -0.0809683949
vt -2.55448469E-07 -0.571428537
vt 0.428571224 -0.428571582
vt 0.28571403 -0.571428537
vt -3.45955812E-07 -0.951043844
vt 0.285713941 -0.776241899
vt 0.523359776 -0.71428597
vt 1.14285719 0.428571224
vt 0.714285433 -0.71428597
vt 0.57142818 -1.14285743
vt 0.428571135 -0.791825056
vt 1.42857134 -0.142857313
vt 0.857142568 -0.857143044
vt -4.59807268E-07 -1.42857146
vt -3.45955812E-07 -0.951043844
vt 1.57142854 -0.108322665
vt 1.71428585 -0.0449918658
vt 2 -4.76837158E-07
vt 2 0.428570986
vt 1.42857111 -1.14285743
vt 1.57142854 -0.142857552
vt 1.71428585 -0.0449918658
vt 1.62156487 -1.14285767
vt 1.99999964 -1.04091322
vt 1.99999988 -0.142857552
vt 1.63926232 -1.42857194
vt 1.28571379 -1.57142889
vt 1.57142806 -1.57142913
vt 0.999999404 -2.00000024
vt 1.57142794 -2.00000048
vt 0.285713732 -1.57142878
vt -5.96046448E-07 -2
vt 1.71428525 -1.71428633
vt 1.9999994 -2.00000048
vt 1.99999952 -1.57142913
vt 1.99999964 -1.04091322
vt 1.62156487 -1.14285767
vt 1.65462708 -1.28571486
vt 2.00000024 1.28571391
vt 1.71428609 1.07018185
vt 2.00000024 0.890909731
vt 1.57142889 1.28571391
vt 1.71428609 0.999999523
vt 2.00000024 0.890909731
vt 1.85714328 1.71428537
vt 2.00000048 1.99999964
vt 1.42857194 1.99999976
vt 1.71428585 0.458520561
vt 2 0.571428061
vt 1.14285719 0.571428299
vt 1.42857158 0.571428299
vt 1.57142866 0.428570986
vt 1.14285755 1.71428561
vt 1.00000048 1.99999976
vt 0.955721021 0.714285493
vt 0.714285851 0.770996332
vt 0.428571939 1.99999988
vt 0.571428716 0.857142806
vt 0.571428657 0.626676321
vt 0.285714656 1.71428585
vt 3.57627869E-07 2
vt 0.285714328 0.571428537
vt 0.285714269 0.285714269
vt 0.142857358 1.28571439
vt -5.10896996E-08 0.285714269
vt 0.14285706 0.142857075
vt -1.38513656E-07 -0.0809683949
vt 0.285714209 0.0804163963
vt 0.428571343 -1.1920929E-07
vt 0.714285731 0.285714149
vt 0.369011164 0.428571373
vt 0.714285851 0.770996332
vt 0.955721021 0.714285493
vt 0.28571409 -0.285714388
vt -1.38513656E-07 -0.0809683949
vt -2.55448469E-07 -0.571428537
vt 0.428571224 -0.428571582
vt 0.28571403 -0.571428537
vt -3.45955812E-07 -0.951043844
vt 0.285713941 -0.776241899
vt 0.523359776 -0.71428597
vt 1.14285719 0.428571224
vt 0.714285433 -0.71428597
vt 0.57142818 -1.14285743
vt 0.428571135 -0.791825056
vt 1.42857134 -0.142857313
vt 0.857142568 -0.857143044
vt -4.59807268E-07 -1.42857146
vt -3.45955812E-07 -0.951043844
vt 1.57142854 -0.108322665
vt 1.71428585 -0.0449918658
vt 2 -4.76837158E-07
vt 2 0.428570986
vt 1.42857111 -1.14285743
vt 1.57142854 -0.142857552
vt 1.71428585 -0.0449918658
vt 1.62156487 -1.14285767
vt 1.99999964 -1.04091322
vt 1.99999988 -0.142857552
vt 1.63926232 -1.42857194
vt 1.28571379 -1.57142889
vt 1.57142806 -1.57142913
vt 0.999999404 -2.00000024
vt 0.285713732 -1.57142878
vt -5.96046448E-07 -2
vt 1.57142794 -2.00000048
vt 1.71428525 -1.71428633
vt 1.9999994 -2.00000048
vt 1.99999952 -1.57142913
vt 1.99999964 -1.04091322
vt 1.62156487 -1.14285767
vt 1.65462708 -1.28571486
g submesh0
f 1/1/1 2/2/2 3/3/3
f 2/2/2 1/1/1 4/4/4
f 4/4/4 5/5/5 2/2/2
f 5/5/5 6/6/6 2/2/2
f 6/6/6 5/5/5 7/7/7
f 5/5/5 4/4/4 7/7/7
f 1/1/1 8/8/8 4/4/4
f 9/9/9 8/8/8 1/1/1
f 9/9/9 10/10/10 8/8/8
f 11/11/11 10/10/10 9/9/9
f 12/12/12 7/7/7 4/4/4
f 13/13/13 4/4/4 8/8/8
f 4/4/4 13/13/13 12/12/12
f 14/14/14 8/8/8 10/10/10
f 13/13/13 8/8/8 14/14/14
f 7/7/7 12/12/12 15/15/15
f 16/16/16 7/7/7 15/15/15
f 17/17/17 15/15/15 12/12/12
f 15/15/15 17/17/17 18/18/18
f 15/15/15 18/18/18 16/16/16
f 19/19/19 16/16/16 18/18/18
f 18/18/18 20/20/20 19/19/19
f 18/18/18 21/21/21 20/20/20
f 22/22/22 19/19/19 20/20/20
f 19/19/19 22/22/22 23/23/23
f 24/24/24 20/20/20 21/21/21
f 20/20/20 24/24/24 22/22/22
f 21/21/21 25/25/25 24/24/24
f 23/23/23 22/22/22 26/26/26
f 26/26/26 27/27/27 23/23/23
f 28/28/28 22/22/22 24/24/24
f 22/22/22 28/28/28 26/26/26
f 27/27/27 26/26/26 28/28/28
f 28/28/28 24/24/24 25/25/25
f 28/28/28 29/29/29 27/27/27
f 30/30/30 29/29/29 28/28/28
f 28/28/28 25/25/25 30/30/30
f 30/30/30 25/25/25 31/31/31
f 32/32/32 31/31/31 25/25/25
f 25/25/25 33/33/33 32/32/32
f 33/33/33 34/34/34 32/32/32
f 34/34/34 35/35/35 32/32/32
f 35/35/35 12/12/12 32/32/32
f 31/31/31 36/36/36 30/30/30
f 37/37/37 30/30/30 36/36/36
f 36/36/36 38/38/38 37/37/37
f 36/36/36 31/31/31 39/39/39
f 32/32/32 39/39/39 31/31/31
f 38/38/38 36/36/36 40/40/40
f 39/39/39 40/40/40 36/36/36
f 40/40/40 41/41/41 38/38/38
f 42/42/42 41/41/41 40/40/40
f 43/43/43 42/42/42 40/40/40
f 40/40/40 39/39/39 43/43/43
f 32/32/32 12/12/12 44/44/44
f 13/13/13 44/44/44 12/12/12
f 45/45/45 39/39/39 32/32/32
f 45/45/45 43/43/43 39/39/39
f 44/44/44 45/45/45 32/32/32
f 45/45/45 46/46/46 43/43/43
f 43/43/43 46/46/46 47/47/47
f 44/44/44 13/13/13 48/48/48
f 14/14/14 48/48/48 13/13/13
f 45/45/45 44/44/44 49/49/49
f 49/49/49 46/46/46 45/45/45
f 48/48/48 49/49/49 44/44/44
f 50/50/50 47/47/47 46/46/46
f 47/47/47 50/50/50 51/51/51
f 48/48/48 14/14/14 52/52/52
f 10/10/10 52/52/52 14/14/14
f 52/52/52 10/10/10 53/53/53
f 54/54/54 53/53/53 10/10/10
f 10/10/10 55/55/55 54/54/54
f 49/49/49 48/48/48 56/56/56
f 56/56/56 46/46/46 49/49/49
f 48/48/48 52/52/52 57/57/57
f 57/57/57 56/56/56 48/48/48
f 52/52/52 58/58/58 57/57/57
f 58/58/58 59/59/59 57/57/57
f 56/56/56 57/57/57 59/59/59
f 59/59/59 58/58/58 60/60/60
f 58/58/58 61/61/61 60/60/60
f 56/56/56 59/59/59 62/62/62
f 62/62/62 63/63/63 56/56/56
f 46/46/46 56/56/56 63/63/63
f 63/63/63 62/62/62 64/64/64
f 63/63/63 65/65/65 46/46/46
f 65/65/65 63/63/63 66/66/66
f 64/64/64 66/66/66 63/63/63
f 67/67/67 46/46/46 65/65/65
f 65/65/65 68/68/68 67/67/67
f 50/50/50 46/46/46 67/67/67
f 67/67/67 68/68/68 50/50/50
f 69/69/69 66/66/66 64/64/64
f 70/70/70 66/66/66 69/69/69
f 69/69/69 71/71/71 70/70/70
f 64/64/64 71/71/71 69/69/69
f 64/64/64 72/72/72 71/71/71
f 72/72/72 64/64/64 73/73/73
f 74/74/74 73/73/73 64/64/64
f 75/75/75 76/76/76 77/77/77
f 76/76/76 75/75/75 78/78/78
f 76/76/76 78/78/78 79/79/79
f 80/80/80 76/76/76 79/79/79
f 81/81/81 78/78/78 75/75/75
f 82/82/82 81/81/81 75/75/75
f 81/81/81 82/82/82 83/83/83
f 78/78/78 81/81/81 83/83/83
f 84/84/84 80/80/80 79/79/79
f 84/84/84 85/85/85 80/80/80
f 83/83/83 86/86/86 78/78/78
f 78/78/78 87/87/87 79/79/79
f 87/87/87 78/78/78 86/86/86
f 79/79/79 88/88/88 84/84/84
f 79/79/79 87/87/87 88/88/88
f 86/86/86 83/83/83 89/89/89
f 83/83/83 90/90/90 89/89/89
f 89/89/89 91/91/91 86/86/86
f 91/91/91 89/89/89 92/92/92
f 92/92/92 89/89/89 90/90/90
f 90/90/90 93/93/93 92/92/92
f 94/94/94 92/92/92 93/93/93
f 92/92/92 94/94/94 95/95/95
f 93/93/93 96/96/96 94/94/94
f 96/96/96 93/93/93 97/97/97
f 94/94/94 98/98/98 95/95/95
f 98/98/98 94/94/94 96/96/96
f 95/95/95 98/98/98 99/99/99
f 96/96/96 97/97/97 100/100/100
f 101/101/101 100/100/100 97/97/97
f 96/96/96 102/102/102 98/98/98
f 102/102/102 96/96/96 100/100/100
f 100/100/100 101/101/101 102/102/102
f 98/98/98 102/102/102 99/99/99
f 103/103/103 102/102/102 101/101/101
f 103/103/103 104/104/104 102/102/102
f 99/99/99 102/102/102 104/104/104
f 99/99/99 104/104/104 105/105/105
f 105/105/105 106/106/106 99/99/99
f 107/107/107 99/99/99 106/106/106
f 108/108/108 107/107/107 106/106/106
f 109/109/109 108/108/108 106/106/106
f 109/109/109 106/106/106 86/86/86
f 110/110/110 105/105/105 104/104/104
f 111/111/111 110/110/110 104/104/104
f 112/112/112 110/110/110 111/111/111
f 105/105/105 110/110/110 113/113/113
f 113/113/113 106/106/106 105/105/105
f 110/110/110 112/112/112 114/114/114
f 114/114/114 113/113/113 110/110/110
f 115/115/115 114/114/114 112/112/112
f 116/116/116 114/114/114 115/115/115
f 116/116/116 117/117/117 114/114/114
f 113/113/113 114/114/114 117/117/117
f 86/86/86 106/106/106 118/118/118
f 118/118/118 87/87/87 86/86/86
f 113/113/113 119/119/119 106/106/106
f 117/117/117 119/119/119 113/113/113
f 119/119/119 118/118/118 106/106/106
f 120/120/120 119/119/119 117/117/117
f 120/120/120 117/117/117 121/121/121
f 87/87/87 118/118/118 122/122/122
f 122/122/122 88/88/88 87/87/87
f 118/118/118 119/119/119 123/123/123
f 120/120/120 123/123/123 119/119/119
f 123/123/123 122/122/122 118/118/118
f 121/121/121 124/124/124 120/120/120
f 124/124/124 121/121/121 125/125/125
f 88/88/88 122/122/122 126/126/126
f 126/126/126 84/84/84 88/88/88
f 84/84/84 126/126/126 127/127/127
f 127/127/127 128/128/128 84/84/84
f 129/129/129 84/84/84 128/128/128
f 122/122/122 123/123/123 130/130/130
f 120/120/120 130/130/130 123/123/123
f 126/126/126 122/122/122 131/131/131
f 130/130/130 131/131/131 122/122/122
f 132/132/132 126/126/126 131/131/131
f 133/133/133 132/132/132 131/131/131
f 131/131/131 130/130/130 133/133/133
f 132/132/132 133/133/133 134/134/134
f 135/135/135 132/132/132 134/134/134
f 133/133/133 130/130/130 136/136/136
f 137/137/137 136/136/136 130/130/130
f 130/130/130 120/120/120 137/137/137
f 136/136/136 137/137/137 138/138/138
f 139/139/139 137/137/137 120/120/120
f 120/120/120 140/140/140 139/139/139
f 120/120/120 124/124/124 140/140/140
f 141/141/141 140/140/140 124/124/124
f 141/141/141 139/139/139 140/140/140
f 137/137/137 139/139/139 142/142/142
f 142/142/142 138/138/138 137/137/137
f 142/142/142 143/143/143 138/138/138
f 142/142/142 144/144/144 143/143/143
f 145/145/145 143/143/143 144/144/144
f 145/145/145 138/138/138 143/143/143
f 146/146/146 138/138/138 145/145/145
f 138/138/138 146/146/146 147/147/147
f 147/147/147 148/148/148 138/138/138
