# Round_Table_COL
v -0.225997537 0.577468812 0.546726763
v -0.029913187 0.577468753 0.565180898
v -0.0311398506 0.577468753 0.590150952
v -0.21643047 0.577468812 0.523630261
v -0.417588979 0.577468812 0.418709785
v -0.399911344 0.577468812 0.401032478
v -0.545606315 0.577468812 0.227118999
v -0.522509336 0.577468812 0.217552215
v -0.589019656 0.577468872 0.0324764885
v -0.56404978 0.577468872 0.0312500633
v 0.56404978 0.577468872 0.0312500633
v 0.589019656 0.577468872 0.0324764885
v 0.545606315 0.577468812 0.227118999
v 0.522509336 0.577468812 0.217552215
v 0.417588979 0.577468812 0.418709785
v 0.399911344 0.577468812 0.401032478
v 0.225997537 0.577468812 0.546726763
v 0.21643047 0.577468812 0.523630261
v 0.0311398506 0.577468753 0.590150952
v 0.029913187 0.577468753 0.565180898
v -0.56404978 0.577468872 -0.0312498752
v -0.589019656 0.577468872 -0.0324763022
v -0.545606315 0.577468932 -0.227118835
v -0.522509336 0.577468932 -0.217552051
v -0.417588979 0.577468932 -0.418709606
v -0.399911344 0.577468932 -0.401032299
v -0.225997537 0.577468932 -0.546726525
v -0.21643047 0.577468932 -0.523630023
v -0.0311398506 0.577468991 -0.590150714
v -0.029913187 0.577468991 -0.565180659
v 0.589019656 0.577468872 -0.0324763022
v 0.56404978 0.577468872 -0.0312498752
v 0.522509336 0.577468932 -0.217552051
v 0.545606315 0.577468932 -0.227118835
v 0.399911344 0.577468932 -0.401032299
v 0.417588979 0.577468932 -0.418709606
v 0.21643047 0.577468932 -0.523630023
v 0.225997537 0.577468932 -0.546726525
v 0.029913187 0.577468991 -0.565180659
v 0.0311398506 0.577468991 -0.590150714
v 0.589019656 0.700000048 -0.0324762799
v 0.589019656 0.577468872 -0.0324763022
v 0.545606315 0.577468932 -0.227118835
v 0.545606315 0.700000048 -0.22711879
v 0.417588979 0.700000048 -0.418709546
v 0.417588979 0.577468932 -0.418709606
v 0.225997537 0.700000048 -0.546726525
v 0.225997537 0.577468932 -0.546726525
v 0.0311398506 0.700000107 -0.590150714
v 0.0311398506 0.577468991 -0.590150714
v -0.61725682 5.09127185E-09 -0.0312500037
v -0.55475682 5.09127096E-09 -0.0312499944
v -0.55475682 -5.09127185E-09 0.0312500037
v -0.61725682 -5.09127096E-09 0.0312499944
v -0.55475682 0.700000048 0.0312501192
v -0.61725682 0.700000048 0.0312501118
v -0.61725682 -5.09127096E-09 0.0312499944
v -0.55475682 -5.09127185E-09 0.0312500037
v -0.0312500447 1.00563888E-07 -0.61725682
v -0.0312500447 0.700000107 -0.617256701
v 0.0312500447 0.700000107 -0.617256701
v 0.0312500447 1.00563888E-07 -0.61725682
v 0.61725682 5.09127185E-09 -0.0312500037
v 0.61725682 -5.09127096E-09 0.0312499944
v 0.55475682 -5.09127185E-09 0.0312500037
v 0.55475682 5.09127096E-09 -0.0312499944
v 0.61725682 0.700000048 0.0312501118
v 0.55475682 0.700000048 0.0312501192
v 0.55475682 -5.09127185E-09 0.0312500037
v 0.61725682 -5.09127096E-09 0.0312499944
v -0.55475682 0.700000048 -0.0312498827
v -0.55475682 5.09127096E-09 -0.0312499944
v -0.61725682 5.09127185E-09 -0.0312500037
v -0.61725682 0.700000048 -0.0312498901
v -0.0312500447 -1.00563888E-07 0.61725682
v -0.0312500447 -9.03813557E-08 0.55475682
v 0.0312500447 -9.03813557E-08 0.55475682
v 0.0312500447 -1.00563888E-07 0.61725682
v -0.0312500447 0.700000107 -0.554756701
v -0.0312500447 0.700000107 -0.617256701
v -0.0312500447 1.00563888E-07 -0.61725682
v -0.0312500447 9.03813557E-08 -0.55475682
v 0.0312500447 0.700000107 -0.617256701
v 0.0312500447 0.700000107 -0.554756701
v 0.0312500447 9.03813557E-08 -0.55475682
v 0.0312500447 1.00563888E-07 -0.61725682
v 0.61725682 0.700000048 -0.0312498901
v 0.61725682 5.09127185E-09 -0.0312500037
v 0.55475682 5.09127096E-09 -0.0312499944
v 0.55475682 0.700000048 -0.0312498827
v 0.0312500447 0.699999928 0.617256939
v -0.0312500447 0.699999928 0.617256939
v -0.0312500447 -1.00563888E-07 0.61725682
v 0.0312500447 -1.00563888E-07 0.61725682
v -0.0312500447 0.699999928 0.617256939
v -0.0312500447 0.699999928 0.554756939
v -0.0312500447 -9.03813557E-08 0.55475682
v -0.0312500447 -1.00563888E-07 0.61725682
v 0.0312500447 0.699999928 0.554756939
v 0.0312500447 -9.03813557E-08 0.55475682
v -0.0312500447 -9.03813557E-08 0.55475682
v -0.0312500447 0.699999928 0.554756939
v 0.0312500447 0.699999928 0.554756939
v 0.0312500447 0.699999928 0.617256939
v 0.0312500447 -1.00563888E-07 0.61725682
v 0.0312500447 -9.03813557E-08 0.55475682
v 0.239177167 0.750000119 -0.577424645
v 4.2984119E-10 0.700000107 -0.624999881
v 4.2984119E-10 0.750000119 -0.624999881
v 0.239177167 0.700000107 -0.577424645
v 0.441941738 0.700000048 -0.44194144
v 0.441941738 0.75000006 -0.44194144
v 0.577424705 0.700000048 -0.239177197
v 0.577424705 0.75000006 -0.239177197
v 0.625 0.700000048 1.14044482E-07
v 0.625 0.75 1.22190514E-07
v 0.577424705 0.699999988 0.239177451
v 0.577424705 0.749999881 0.239177451
v 0.441941738 0.699999988 0.441941708
v 0.441941738 0.749999881 0.441941708
v 0.239177167 0.699999928 0.577424884
v 0.239177167 0.749999821 0.577424884
v 4.2984119E-10 0.699999928 0.625000119
v 4.2984119E-10 0.749999821 0.625000119
v -0.239177167 0.699999928 0.577424884
v -0.239177167 0.749999821 0.577424884
v -0.441941738 0.699999988 0.441941708
v -0.441941738 0.749999881 0.441941708
v -0.577424705 0.699999988 0.239177451
v -0.577424705 0.749999881 0.239177451
v -0.625 0.700000048 1.14044482E-07
v -0.625 0.75 1.22190514E-07
v -0.577424705 0.700000048 -0.239177197
v -0.577424705 0.75000006 -0.239177197
v -0.441941738 0.700000048 -0.44194144
v -0.441941738 0.75000006 -0.44194144
v -0.239177167 0.700000107 -0.577424645
v -0.239177167 0.750000119 -0.577424645
v 4.2984119E-10 0.700000107 -0.624999881
v 4.2984119E-10 0.750000119 -0.624999881
v -0.589019656 0.577468872 -0.0324763022
v -0.589019656 0.700000048 -0.0324762799
v -0.545606315 0.700000048 -0.22711879
v -0.545606315 0.577468932 -0.227118835
v -0.417588979 0.700000048 -0.418709546
v -0.417588979 0.577468932 -0.418709606
v -0.225997537 0.700000048 -0.546726525
v -0.225997537 0.577468932 -0.546726525
v -0.0311398506 0.700000107 -0.590150714
v -0.0311398506 0.577468991 -0.590150714
v -0.589019656 0.700000048 0.0324765109
v -0.589019656 0.577468872 0.0324764885
v -0.545606315 0.577468812 0.227118999
v -0.545606315 0.699999988 0.227119043
v -0.417588979 0.699999988 0.418709815
v -0.417588979 0.577468812 0.418709785
v -0.225997537 0.699999988 0.546726763
v -0.225997537 0.577468812 0.546726763
v -0.0311398506 0.699999928 0.590150952
v -0.0311398506 0.577468753 0.590150952
v 0.589019656 0.700000048 0.0324765109
v 0.545606315 0.577468812 0.227118999
v 0.589019656 0.577468872 0.0324764885
v 0.545606315 0.699999988 0.227119043
v 0.417588979 0.699999988 0.418709815
v 0.417588979 0.577468812 0.418709785
v 0.225997537 0.699999988 0.546726763
v 0.225997537 0.577468812 0.546726763
v 0.0311398506 0.699999928 0.590150952
v 0.0311398506 0.577468753 0.590150952
v -0.56404978 0.700000048 -0.0312498566
v -0.56404978 0.577468872 -0.0312498752
v -0.522509336 0.577468932 -0.217552051
v -0.522509336 0.700000048 -0.217552006
v -0.399911344 0.700000048 -0.401032239
v -0.399911344 0.577468932 -0.401032299
v -0.21643047 0.700000048 -0.523630023
v -0.21643047 0.577468932 -0.523630023
v -0.029913187 0.700000107 -0.565180659
v -0.029913187 0.577468991 -0.565180659
v 0.56404978 0.700000048 -0.0312498566
v 0.522509336 0.577468932 -0.217552051
v 0.56404978 0.577468872 -0.0312498752
v 0.522509336 0.700000048 -0.217552006
v 0.399911344 0.700000048 -0.401032239
v 0.399911344 0.577468932 -0.401032299
v 0.21643047 0.700000048 -0.523630023
v 0.21643047 0.577468932 -0.523630023
v 0.029913187 0.700000107 -0.565180659
v 0.029913187 0.577468991 -0.565180659
v 0.56404978 0.700000048 0.0312500857
v 0.56404978 0.577468872 0.0312500633
v 0.522509336 0.577468812 0.217552215
v 0.522509336 0.699999988 0.21755226
v 0.399911344 0.699999988 0.401032507
v 0.399911344 0.577468812 0.401032478
v 0.21643047 0.699999988 0.523630261
v 0.21643047 0.577468812 0.523630261
v 0.029913187 0.699999928 0.565180898
v 0.029913187 0.577468753 0.565180898
v -0.0312500447 9.03813557E-08 -0.55475682
v -0.0312500447 1.00563888E-07 -0.61725682
v 0.0312500447 1.00563888E-07 -0.61725682
v 0.0312500447 9.03813557E-08 -0.55475682
v -0.56404978 0.700000048 0.0312500857
v -0.522509336 0.577468812 0.217552215
v -0.56404978 0.577468872 0.0312500633
v -0.522509336 0.699999988 0.21755226
v -0.399911344 0.699999988 0.401032507
v -0.399911344 0.577468812 0.401032478
v -0.21643047 0.699999988 0.523630261
v -0.21643047 0.577468812 0.523630261
v -0.029913187 0.699999928 0.565180898
v -0.029913187 0.577468753 0.565180898
v -0.0312500447 0.700000107 -0.554756701
v -0.0312500447 9.03813557E-08 -0.55475682
v 0.0312500447 9.03813557E-08 -0.55475682
v 0.0312500447 0.700000107 -0.554756701
v 0.55475682 0.700000048 -0.0312498827
v 0.55475682 5.09127096E-09 -0.0312499944
v 0.55475682 -5.09127185E-09 0.0312500037
v 0.55475682 0.700000048 0.0312501192
v 0.61725682 0.700000048 -0.0312498901
v 0.61725682 0.700000048 0.0312501118
v 0.61725682 -5.09127096E-09 0.0312499944
v 0.61725682 5.09127185E-09 -0.0312500037
v -0.55475682 0.700000048 0.0312501192
v -0.55475682 -5.09127185E-09 0.0312500037
v -0.55475682 5.09127096E-09 -0.0312499944
v -0.55475682 0.700000048 -0.0312498827
v -0.61725682 0.700000048 0.0312501118
v -0.61725682 0.700000048 -0.0312498901
v -0.61725682 5.09127185E-09 -0.0312500037
v -0.61725682 -5.09127096E-09 0.0312499944
v 0.441941738 0.700000048 -0.44194144
v 2.4794225E-10 0.700000048 1.14044482E-07
v 0.239177167 0.700000107 -0.577424645
v 0.577424705 0.700000048 -0.239177197
v 4.2984119E-10 0.700000107 -0.624999881
v 0.625 0.700000048 1.14044482E-07
v -0.239177167 0.700000107 -0.577424645
v 0.577424705 0.699999988 0.239177451
v -0.441941738 0.700000048 -0.44194144
v 0.441941738 0.699999988 0.441941708
v -0.577424705 0.700000048 -0.239177197
v 0.239177167 0.699999928 0.577424884
v -0.625 0.700000048 1.14044482E-07
v 4.2984119E-10 0.699999928 0.625000119
v -0.577424705 0.699999988 0.239177451
v -0.239177167 0.699999928 0.577424884
v -0.441941738 0.699999988 0.441941708
v -1.60742697E-09 0.75 1.22190514E-07
v 0.441941738 0.75000006 -0.44194144
v 0.239177167 0.750000119 -0.577424645
v 0.577424705 0.75000006 -0.239177197
v 4.2984119E-10 0.750000119 -0.624999881
v 0.625 0.75 1.22190514E-07
v -0.239177167 0.750000119 -0.577424645
v 0.577424705 0.749999881 0.239177451
v -0.441941738 0.75000006 -0.44194144
v 0.441941738 0.749999881 0.441941708
v -0.577424705 0.75000006 -0.239177197
v 0.239177167 0.749999821 0.577424884
v -0.625 0.75 1.22190514E-07
v 4.2984119E-10 0.749999821 0.625000119
v -0.577424705 0.749999881 0.239177451
v -0.239177167 0.749999821 0.577424884
v -0.441941738 0.749999881 0.441941708
vt 0.81324029 0.955953181
vt 0.844599664 0.959861517
vt 0.844599664 0.955953181
vt 0.81324029 0.959861517
vt 0.776999593 0.955953062
vt 0.776999593 0.959861517
vt 0.740758896 0.955953062
vt 0.740758896 0.959861517
vt 0.709433973 0.955953062
vt 0.709433973 0.959861517
vt 1.70943403 0.959861517
vt 1.70943403 0.955953062
vt 1.7407589 0.955953062
vt 1.7407589 0.959861517
vt 1.77699959 0.955953062
vt 1.77699959 0.959861517
vt 1.81324029 0.955953181
vt 1.81324029 0.959861517
vt 1.84459972 0.955953181
vt 1.84459972 0.959861517
vt 1.70943403 0.959861517
vt 1.70943403 0.955953062
vt 1.7407589 0.955953062
vt 1.7407589 0.959861517
vt 1.77699959 0.955953062
vt 1.77699959 0.959861517
vt 1.81324029 0.955953181
vt 1.81324029 0.959861517
vt 1.84459972 0.955953181
vt 1.84459972 0.959861517
vt 2.70943403 0.955953062
vt 2.70943403 0.959861517
vt 2.7407589 0.959861517
vt 2.7407589 0.955953062
vt 2.77699947 0.959861517
vt 2.77699947 0.955953062
vt 2.81324029 0.959861517
vt 2.81324029 0.955953181
vt 2.84459972 0.959861517
vt 2.84459972 0.955953181
vt 2.13632441 0.893954694
vt 2.13632441 0.913327813
vt 2.1680131 0.913327813
vt 2.1680131 0.893954694
vt 2.20466518 0.893954694
vt 2.20466518 0.913327813
vt 2.24131727 0.893954694
vt 2.24131727 0.913327813
vt 2.27303982 0.893954694
vt 2.27303982 0.913327813
vt 0.714550138 0.338834256
vt 0.724431813 0.338834256
vt 0.724431813 0.32895264
vt 0.714550138 0.32895264
vt 0.114588574 0.967958033
vt 0.114588574 0.977839768
vt 0.225263312 0.977839768
vt 0.225263312 0.967958033
vt 0.22721751 0.977829695
vt 0.337892324 0.977829695
vt 1.33789229 0.977829695
vt 1.22721756 0.977829695
vt 1.71455014 0.338834256
vt 1.71455014 0.32895264
vt 1.72443175 0.32895264
vt 1.72443175 0.338834256
vt 1.11458862 0.977839768
vt 1.11458862 0.967958033
vt 1.22526336 0.967958033
vt 1.22526336 0.977839768
vt 0.00195397995 0.977837741
vt 0.112629138 0.977837861
vt 0.112629138 0.967956185
vt 0.00195398089 0.967956126
vt 1.71455014 0.32895264
vt 1.72443175 0.32895264
vt 2.72443175 0.32895264
vt 2.71455002 0.32895264
vt 0.114588574 0.967958033
vt 0.114588574 0.977839768
vt 0.225263312 0.977839768
vt 0.225263312 0.967958033
vt 1.11458862 0.977839768
vt 1.11458862 0.967958033
vt 1.22526336 0.967958033
vt 1.22526336 0.977839768
vt 1.00195396 0.967956126
vt 1.11262918 0.967956185
vt 1.11262918 0.977837861
vt 1.00195396 0.977837741
vt 2.33789229 0.977829695
vt 1.33789229 0.977829695
vt 1.22721756 0.977829695
vt 2.22721767 0.977829695
vt 1.11458862 0.977839768
vt 1.11458862 0.967958033
vt 1.22526336 0.967958033
vt 1.22526336 0.977839768
vt 2.51341224 0.947832227
vt 2.62408733 0.947832525
vt 1.62408721 0.947832525
vt 1.51341224 0.947832227
vt 2.11458874 0.967958033
vt 2.11458874 0.977839768
vt 2.22526336 0.977839768
vt 2.22526336 0.967958033
vt 0.983869672 0.583797216
vt 0.975964367 0.622586906
vt 0.983869672 0.622586906
vt 0.975964367 0.583797216
vt 0.975964367 0.545007646
vt 0.983869672 0.545007646
vt 0.975964367 0.506218016
vt 0.983869672 0.506218016
vt 0.975964367 0.467428356
vt 0.983869731 0.467428356
vt 0.975964367 0.428638667
vt 0.983869731 0.428638667
vt 0.975964367 0.389849067
vt 0.983869672 0.389849067
vt 0.975964367 0.351059437
vt 0.983869672 0.351059437
vt 0.975964367 0.312269747
vt 0.983869672 0.312269747
vt 0.975964367 0.273480147
vt 0.983869672 0.273480147
vt 0.975964367 0.234690517
vt 0.983869672 0.234690517
vt 0.975964367 0.195900992
vt 0.983869672 0.195900992
vt 0.975964367 0.157111168
vt 0.983869672 0.157111168
vt 0.975964367 0.118321635
vt 0.983869672 0.118321635
vt 0.975964427 0.0795319825
vt 0.983869731 0.0795319825
vt 0.975964427 0.0407423489
vt 0.983869731 0.0407423489
vt 0.975964427 0.00195264444
vt 0.983869791 0.00195264502
vt 1.13632429 0.913327813
vt 1.13632429 0.893954694
vt 1.16801298 0.893954694
vt 1.16801298 0.913327813
vt 1.20466518 0.893954694
vt 1.20466518 0.913327813
vt 1.24131727 0.893954694
vt 1.24131727 0.913327813
vt 1.27303994 0.893954694
vt 1.27303994 0.913327813
vt 0.136324242 0.893954694
vt 0.136324242 0.913327813
vt 0.168012932 0.913327813
vt 0.168012932 0.893954694
vt 0.204665124 0.893954694
vt 0.204665124 0.913327813
vt 0.241317213 0.893954694
vt 0.241317213 0.913327813
vt 0.273039967 0.893954694
vt 0.273039967 0.913327813
vt 1.13632429 0.893954694
vt 1.16801298 0.913327813
vt 1.13632429 0.913327813
vt 1.16801298 0.893954694
vt 1.20466518 0.893954694
vt 1.20466518 0.913327813
vt 1.24131727 0.893954694
vt 1.24131727 0.913327813
vt 1.27303994 0.893954694
vt 1.27303994 0.913327813
vt 1.9859935 0.917949617
vt 1.98599362 0.937322736
vt 1.95566225 0.937322736
vt 1.95566225 0.917949677
vt 1.92056179 0.917949677
vt 1.92056179 0.937322736
vt 1.88546121 0.917949498
vt 1.88546121 0.937322617
vt 1.85509598 0.917949557
vt 1.85509598 0.937322617
vt 2.98599339 0.917949617
vt 2.95566225 0.937322736
vt 2.98599362 0.937322736
vt 2.95566225 0.917949677
vt 2.92056179 0.917949677
vt 2.92056179 0.937322736
vt 2.88546133 0.917949498
vt 2.88546133 0.937322617
vt 2.85509586 0.917949557
vt 2.85509586 0.937322617
vt 1.9859935 0.917949617
vt 1.98599362 0.937322736
vt 1.95566225 0.937322736
vt 1.95566225 0.917949677
vt 1.92056179 0.917949677
vt 1.92056179 0.937322736
vt 1.88546121 0.917949498
vt 1.88546121 0.937322617
vt 1.85509598 0.917949557
vt 1.85509598 0.937322617
vt 0.724431813 0.32895264
vt 0.714550138 0.32895264
vt 1.71455014 0.32895264
vt 1.72443175 0.32895264
vt 0.985993505 0.917949617
vt 0.955662251 0.937322736
vt 0.985993564 0.937322736
vt 0.955662251 0.917949677
vt 0.92056179 0.917949677
vt 0.92056179 0.937322736
vt 0.885461211 0.917949498
vt 0.885461211 0.937322617
vt 0.855095983 0.917949557
vt 0.855095983 0.937322617
vt 0.513412237 0.947832227
vt 0.624087214 0.947832525
vt 1.62408721 0.947832525
vt 1.51341224 0.947832227
vt 1.51341224 0.937950611
vt 1.62408721 0.93795073
vt 1.62408721 0.947832525
vt 1.51341224 0.947832227
vt 1.33789229 0.967948079
vt 1.33789229 0.977829695
vt 1.22721756 0.977829695
vt 1.22721756 0.967948079
vt 0.513412237 0.947832227
vt 0.624087214 0.947832525
vt 0.624087214 0.93795073
vt 0.513412237 0.937950611
vt 0.337892324 0.977829695
vt 0.337892324 0.967948079
vt 0.22721751 0.967948079
vt 0.22721751 0.977829695
vt 0.734962463 0.473057002
vt 0.80813843 0.406649053
vt 0.715119362 0.439998716
vt 0.765945792 0.496005207
vt 0.709437668 0.401863247
vt 0.803352714 0.505349815
vt 0.718782246 0.364456385
vt 0.841488183 0.499668121
vt 0.741730511 0.333472967
vt 0.874546409 0.47982505
vt 0.774788737 0.313629925
vt 0.897494674 0.448841631
vt 0.812924206 0.307948172
vt 0.906839252 0.41143477
vt 0.850331068 0.31729278
vt 0.901157498 0.373299301
vt 0.881314456 0.340241045
vt 0.408818096 0.50764668
vt 0.504673004 0.531657517
vt 0.506564975 0.493147582
vt 0.488187939 0.566511989
vt 0.493575871 0.456845015
vt 0.459619462 0.592404783
vt 0.467683047 0.428276569
vt 0.423316836 0.605393946
vt 0.432828575 0.411791444
vt 0.384806961 0.603501916
vt 0.394318581 0.409899473
vt 0.34995243 0.587016881
vt 0.358016044 0.422888607
vt 0.324059665 0.558448374
vt 0.329447597 0.448781401
vt 0.311070442 0.522145808
vt 0.312962532 0.483635873
g submesh0
f 1/1 2/2 3/3
f 1/1 4/4 2/2
f 5/5 4/4 1/1
f 5/5 6/6 4/4
f 7/7 6/6 5/5
f 7/7 8/8 6/6
f 9/9 8/8 7/7
f 9/9 10/10 8/8
f 11/11 12/12 13/13
f 11/11 13/13 14/14
f 14/14 13/13 15/15
f 14/14 15/15 16/16
f 16/16 15/15 17/17
f 16/16 17/17 18/18
f 18/18 17/17 19/19
f 18/18 19/19 20/20
f 21/21 22/22 23/23
f 21/21 23/23 24/24
f 24/24 23/23 25/25
f 24/24 25/25 26/26
f 26/26 25/25 27/27
f 26/26 27/27 28/28
f 28/28 27/27 29/29
f 28/28 29/29 30/30
f 31/31 32/32 33/33
f 31/31 33/33 34/34
f 34/34 33/33 35/35
f 34/34 35/35 36/36
f 36/36 35/35 37/37
f 36/36 37/37 38/38
f 38/38 37/37 39/39
f 38/38 39/39 40/40
f 41/41 42/42 43/43
f 41/41 43/43 44/44
f 43/43 45/45 44/44
f 43/43 46/46 45/45
f 46/46 47/47 45/45
f 46/46 48/48 47/47
f 48/48 49/49 47/47
f 48/48 50/50 49/49
f 51/51 52/52 53/53
f 51/51 53/53 54/54
f 55/55 56/56 57/57
f 55/55 57/57 58/58
f 59/59 60/60 61/61
f 59/59 61/61 62/62
f 63/63 64/64 65/65
f 63/63 65/65 66/66
f 67/67 68/68 69/69
f 67/67 69/69 70/70
f 71/71 72/72 73/73
f 71/71 73/73 74/74
f 75/75 76/76 77/77
f 75/75 77/77 78/78
f 79/79 80/80 81/81
f 79/79 81/81 82/82
f 83/83 84/84 85/85
f 83/83 85/85 86/86
f 87/87 88/88 89/89
f 87/87 89/89 90/90
f 91/91 92/92 93/93
f 91/91 93/93 94/94
f 95/95 96/96 97/97
f 95/95 97/97 98/98
f 99/99 100/100 101/101
f 99/99 101/101 102/102
f 103/103 104/104 105/105
f 103/103 105/105 106/106
f 107/107 108/108 109/109
f 107/107 110/110 108/108
f 111/111 110/110 107/107
f 111/111 107/107 112/112
f 113/113 111/111 112/112
f 113/113 112/112 114/114
f 115/115 113/113 114/114
f 115/115 114/114 116/116
f 117/117 115/115 116/116
f 117/117 116/116 118/118
f 119/119 117/117 118/118
f 119/119 118/118 120/120
f 121/121 119/119 120/120
f 121/121 120/120 122/122
f 123/123 121/121 122/122
f 123/123 122/122 124/124
f 125/125 123/123 124/124
f 125/125 124/124 126/126
f 127/127 125/125 126/126
f 127/127 126/126 128/128
f 129/129 127/127 128/128
f 129/129 128/128 130/130
f 131/131 129/129 130/130
f 131/131 130/130 132/132
f 133/133 131/131 132/132
f 133/133 132/132 134/134
f 135/135 133/133 134/134
f 135/135 134/134 136/136
f 137/137 135/135 136/136
f 137/137 136/136 138/138
f 139/139 137/137 138/138
f 139/139 138/138 140/140
f 141/141 142/142 143/143
f 141/141 143/143 144/144
f 144/144 143/143 145/145
f 144/144 145/145 146/146
f 146/146 145/145 147/147
f 146/146 147/147 148/148
f 148/148 147/147 149/149
f 148/148 149/149 150/150
f 151/151 152/152 153/153
f 151/151 153/153 154/154
f 153/153 155/155 154/154
f 153/153 156/156 155/155
f 156/156 157/157 155/155
f 156/156 158/158 157/157
f 158/158 159/159 157/157
f 158/158 160/160 159/159
f 161/161 162/162 163/163
f 161/161 164/164 162/162
f 162/162 164/164 165/165
f 162/162 165/165 166/166
f 166/166 165/165 167/167
f 166/166 167/167 168/168
f 168/168 167/167 169/169
f 168/168 169/169 170/170
f 171/171 172/172 173/173
f 171/171 173/173 174/174
f 173/173 175/175 174/174
f 173/173 176/176 175/175
f 176/176 177/177 175/175
f 176/176 178/178 177/177
f 178/178 179/179 177/177
f 178/178 180/180 179/179
f 181/181 182/182 183/183
f 181/181 184/184 182/182
f 182/182 184/184 185/185
f 182/182 185/185 186/186
f 186/186 185/185 187/187
f 186/186 187/187 188/188
f 188/188 187/187 189/189
f 188/188 189/189 190/190
f 191/191 192/192 193/193
f 191/191 193/193 194/194
f 193/193 195/195 194/194
f 193/193 196/196 195/195
f 196/196 197/197 195/195
f 196/196 198/198 197/197
f 198/198 199/199 197/197
f 198/198 200/200 199/199
f 201/201 202/202 203/203
f 201/201 203/203 204/204
f 205/205 206/206 207/207
f 205/205 208/208 206/206
f 206/206 208/208 209/209
f 206/206 209/209 210/210
f 210/210 209/209 211/211
f 210/210 211/211 212/212
f 212/212 211/211 213/213
f 212/212 213/213 214/214
f 215/215 216/216 217/217
f 215/215 217/217 218/218
f 219/219 220/220 221/221
f 219/219 221/221 222/222
f 223/223 224/224 225/225
f 223/223 225/225 226/226
f 227/227 228/228 229/229
f 227/227 229/229 230/230
f 231/231 232/232 233/233
f 231/231 233/233 234/234
f 235/235 236/236 237/237
f 238/238 236/236 235/235
f 237/237 236/236 239/239
f 240/240 236/236 238/238
f 239/239 236/236 241/241
f 242/242 236/236 240/240
f 241/241 236/236 243/243
f 244/244 236/236 242/242
f 243/243 236/236 245/245
f 246/246 236/236 244/244
f 245/245 236/236 247/247
f 248/248 236/236 246/246
f 247/247 236/236 249/249
f 250/250 236/236 248/248
f 249/249 236/236 251/251
f 251/251 236/236 250/250
f 252/252 253/253 254/254
f 252/252 255/255 253/253
f 252/252 254/254 256/256
f 252/252 257/257 255/255
f 256/256 258/258 252/252
f 252/252 259/259 257/257
f 252/252 258/258 260/260
f 252/252 261/261 259/259
f 252/252 260/260 262/262
f 252/252 263/263 261/261
f 252/252 262/262 264/264
f 252/252 265/265 263/263
f 252/252 264/264 266/266
f 252/252 267/267 265/265
f 252/252 266/266 268/268
f 252/252 268/268 267/267
