# rusty_cell_door_lod3
v 1.08628166 2.14456534 -0.0025996801
v 1.0743562 2.1448524 -0.0153564475
v 1.07435632 2.23410892 -0.00100508681
v 1.09186924 0.0962496176 -0.0155399246
v 1.0860101 0.0958001986 0.0143127497
v 1.07523894 0.0101597914 -0.000839505461
v 0.744238257 0.116751581 -0.00399816083
v 0.708573878 0.11685434 -0.0151560362
v 0.694389999 0.346317232 -0.014709088
v 0.220257029 0.0926276222 0.016206678
v 0.212265715 0.00770109566 -0.00409390265
v 0.231559753 0.092992641 -0.0118503952
v 0.912892461 0.0140637867 -0.00419383962
v 0.904889345 0.0954777524 -0.0231383611
v 0.92548877 0.0950089842 -0.00397747336
v 0.744238257 0.116751581 -0.00399816083
v 0.694389999 0.346317232 -0.014709088
v 0.720775962 0.117005497 0.00859026145
v 1.0743562 2.1448524 -0.0153564475
v 1.06243145 2.14443541 -0.0042268252
v 1.07435632 2.23410892 -0.00100508681
v 0.916693389 2.14206672 0.000197885427
v 0.904768944 2.14241171 -0.0125577534
v 0.904867828 2.23202491 0.000967663829
v 1.07435632 2.23410892 -0.00100508681
v 1.06243145 2.14443541 -0.0042268252
v 1.0743562 2.14414334 0.00849299226
v 1.0743562 2.14414334 0.00849299226
v 1.08628166 2.14456534 -0.0025996801
v 1.07435632 2.23410892 -0.00100508681
v 0.731138289 2.23392367 -0.00100552733
v 0.731138349 2.14540768 -0.0133542223
v 0.721216261 2.14499068 -0.00409373501
v 0.904867828 2.23202491 0.000967663829
v 0.904768944 2.14241171 -0.0125577534
v 0.892845273 2.14191055 -0.00142911577
v 0.741061032 2.14512038 -0.00273985625
v 0.731138349 2.14540768 -0.0133542223
v 0.731138289 2.23392367 -0.00100552733
v 0.892845273 2.14191055 -0.00142911577
v 0.904768944 2.1415596 0.0112895789
v 0.904867828 2.23202491 0.000967663829
v 0.904768944 2.1415596 0.0112895789
v 0.916693389 2.14206672 0.000197885427
v 0.904867828 2.23202491 0.000967663829
v 0.570951581 2.14707661 -0.00253243581
v 0.558062673 2.14744949 -0.0163197815
v 0.562021434 2.2355063 -0.00100503257
v 0.721216261 2.14499068 -0.00409373501
v 0.731138349 2.14469862 0.0064898883
v 0.731138289 2.23392367 -0.00100552733
v 0.731138349 2.14469862 0.0064898883
v 0.741061032 2.14512038 -0.00273985625
v 0.731138289 2.23392367 -0.00100552733
v 0.562021434 2.2355063 -0.00100503257
v 0.558062673 2.14744949 -0.0163197815
v 0.545174599 2.14690781 -0.00429103291
v 0.365494668 2.14840865 -0.00409382209
v 0.377469182 2.14805603 0.00648980169
v 0.373948008 2.23470306 -0.00333459279
v 0.389444411 2.14856529 -0.00273994287
v 0.377469182 2.14891171 -0.013354308
v 0.373948008 2.23470306 -0.00333459279
v 0.545174599 2.14690781 -0.00429103291
v 0.558062673 2.14652824 0.00945637934
v 0.562021434 2.2355063 -0.00100503257
v 0.558062673 2.14652824 0.00945637934
v 0.570951581 2.14707661 -0.00253243581
v 0.562021434 2.2355063 -0.00100503257
v 0.377469182 2.14805603 0.00648980169
v 0.389444411 2.14856529 -0.00273994287
v 0.373948008 2.23470306 -0.00333459279
v 0.377469182 2.14891171 -0.013354308
v 0.365494668 2.14840865 -0.00409382209
v 0.373948008 2.23470306 -0.00333459279
v 0.223440051 2.15084839 -0.00265241461
v 0.212265119 2.15113544 -0.0146062896
v 0.212265104 2.2409277 -0.00100542651
v 0.201090842 2.15071845 -0.00417714985
v 0.212265119 2.15042639 0.00774210179
v 0.212265104 2.2409277 -0.00100542651
v 0.212265119 2.15042639 0.00774210179
v 0.223440051 2.15084839 -0.00265241461
v 0.212265104 2.2409277 -0.00100542651
v 0.201090842 2.15071845 -0.00417714985
v 0.212265104 2.2409277 -0.00100542651
v 0.212265119 2.15113544 -0.0146062896
v 0.720775962 0.117005497 0.00859026145
v 0.694389999 0.346317232 -0.014709088
v 0.708573878 0.11685434 -0.0151560362
v 0.884291291 0.0951533169 -0.00116685755
v 0.904889345 0.0954777524 -0.0231383611
v 0.912892461 0.0140637867 -0.00419383962
v 1.0860101 0.0958001986 0.0143127497
v 1.05655396 0.095917061 0.0104820784
v 1.07523894 0.0101597914 -0.000839505461
v 0.884291291 0.0951533169 -0.00116685755
v 0.912892461 0.0140637867 -0.00419383962
v 0.904889345 0.0946900994 0.0180578437
v 0.388325602 0.092466034 0.0141059905
v 0.359084964 0.0927185193 0.00573439337
v 0.381862551 0.00776919117 -0.00458306773
v 0.92548877 0.0950089842 -0.00397747336
v 0.904889345 0.0946900994 0.0180578437
v 0.912892461 0.0140637867 -0.00419383962
v 0.715719461 0.0936494321 0.0104845297
v 0.720835686 0.0942118615 -0.0155850649
v 0.723659575 0.0102981478 -0.00426519988
v 0.723659575 0.0102981478 -0.00426519988
v 0.720835686 0.0942118615 -0.0155850649
v 0.746556997 0.0939398259 -0.0122380704
v 0.715719461 0.0936494321 0.0104845297
v 0.723659575 0.0102981478 -0.00426519988
v 0.741440713 0.0935473889 0.0138294967
v 0.359084964 0.0927185193 0.00573439337
v 0.371196628 0.0933186188 -0.0191769805
v 0.381862551 0.00776919117 -0.00458306773
v 0.554056883 0.0163788721 -0.0153360507
v 0.555809319 0.00897608045 -0.00276508625
v 0.538350701 0.0927363113 0.00573444879
v 0.554056883 0.0163788721 -0.0153360507
v 0.548386455 0.093233414 -0.0191769265
v 0.572615623 0.0928919986 -0.010807055
v 0.555809319 0.00897608045 -0.00276508625
v 0.554056883 0.0163788721 -0.0153360507
v 0.555809319 0.00897608045 -0.00276508625
v 0.562579513 0.0925269797 0.0141060436
v 0.538350701 0.0927363113 0.00573444879
v 0.746556997 0.0939398259 -0.0122380704
v 0.741440713 0.0935473889 0.0138294967
v 0.723659575 0.0102981478 -0.00426519988
v 0.371196628 0.0933186188 -0.0191769805
v 0.400437683 0.0929063931 -0.0108071053
v 0.381862551 0.00776919117 -0.00458306773
v 0.572615623 0.0928919986 -0.010807055
v 0.562579513 0.0925269797 0.0141060436
v 0.555809319 0.00897608045 -0.00276508625
v 0.192970634 0.0928369537 0.00677860947
v 0.204272851 0.0933340564 -0.0212765243
v 0.212265715 0.00770109566 -0.00409390265
v 0.204272851 0.0933340564 -0.0212765243
v 0.231559753 0.092992641 -0.0118503952
v 0.212265715 0.00770109566 -0.00409390265
v 0.212265715 0.00770109566 -0.00409390265
v 0.220257029 0.0926276222 0.016206678
v 0.192970634 0.0928369537 0.00677860947
v 0.400437683 0.0929063931 -0.0108071053
v 0.388325602 0.092466034 0.0141059905
v 0.381862551 0.00776919117 -0.00458306773
v -5.11990494E-09 0.0143435029 0.0169538762
v 2.83584174E-14 -0.0594792925 -1.60279399E-08
v 0.016953893 0.0143435029 -1.06517462E-08
v -0.016953893 0.0143435029 -2.08916333E-08
v 2.83584174E-14 -0.0594792925 -1.60279399E-08
v 5.11996179E-09 0.0143435029 -0.0169539098
v 2.83584174E-14 -0.0594792925 -1.60279399E-08
v 0.016953893 0.0143435029 -1.06517462E-08
v 2.83584174E-14 -0.0594792925 -1.60279399E-08
v -4.56276306E-09 2.21393204 0.0169538707
v 4.65688266E-10 2.28775501 -6.81554013E-09
v -0.0169538911 2.21393204 -2.31286901E-08
v -0.0169538911 2.21393204 -2.31286901E-08
v 4.65688266E-10 2.28775501 -6.81554013E-09
v 5.67710146E-09 2.21393204 -0.0169539098
v 5.67710146E-09 2.21393204 -0.0169539098
v 4.65688266E-10 2.28775501 -6.81554013E-09
v 0.0169538911 2.21393204 -1.28888038E-08
v 0.0169538911 2.21393204 -1.28888038E-08
v 4.65688266E-10 2.28775501 -6.81554013E-09
v -4.56276306E-09 2.21393204 0.0169538707
v 1.05655396 0.095917061 0.0104820784
v 1.06942272 0.0109875761 -0.013476681
v 1.07523894 0.0101597914 -0.000839505461
v 1.0624131 0.0965611562 -0.0193729177
v 1.06942272 0.0109875761 -0.013476681
v 1.09186924 0.0962496176 -0.0155399246
v 1.06942272 0.0109875761 -0.013476681
v 1.07523894 0.0101597914 -0.000839505461
v 0.0561579503 2.1512754 -0.0364372991
v 0.0540183708 2.1512754 0.0364378355
v 1.22965443 2.14853573 0.0354218557
v 1.22965443 2.14853573 -0.0354206041
v 0.907489121 1.22358704 -0.030133659
v 0.904008985 1.02116203 -0.0301336609
v 0.904008985 1.02116203 0.0301347077
v 0.907294154 1.22364974 0.0301347133
v 0.934577107 1.02116203 -0.0301336516
v 0.904008985 1.02116203 -0.0301336609
v 0.907489121 1.22358704 -0.030133659
v 0.937096 1.22389579 -0.0301336516
v 0.934577107 1.02116203 0.0301347207
v 0.937096 1.22389579 -0.0301336516
v 0.936932027 1.2239486 0.0301347207
v 0.0312693045 2.24382353 0.0337945074
v 0.0320575163 0.000272183068 0.0333051905
v 0.0530109294 0.000272183068 0.0333051942
v 0.0537991412 2.24382353 0.0337945148
v 1.25264859 2.24200654 -0.0339143015
v 1.25324154 0.00299418322 -0.0352579132
v 1.23097396 0.00299418322 -0.0352579206
v 1.23156691 2.24200654 -0.033914309
v 1.25264859 2.24200654 -0.0339143015
v 1.23156691 2.24200654 -0.033914309
v 1.23156691 2.24200654 0.0339155607
v 1.25264859 2.24200654 0.0339155681
v 1.25324154 0.00299418322 -0.0352579132
v 1.25324154 0.00299418322 0.0352591798
v 1.23097396 0.00299418322 0.0352591723
v 1.23097396 0.00299418322 -0.0352579206
v 1.25324154 0.00299418322 -0.0352579132
v 1.25264859 2.24200654 -0.0339143015
v 1.25264859 2.24200654 0.0339155681
v 1.25324154 0.00299418322 0.0352591798
v 0.0610512532 1.0208807 -0.0353704952
v 0.0567136928 1.02080941 0.0361001417
v 1.22952306 1.02110732 0.0356243923
v 1.22952306 1.02110732 -0.0356231406
v 1.23156691 2.24200654 0.0339155607
v 1.23097396 0.00299418322 0.0352591723
v 1.25324154 0.00299418322 0.0352591798
v 1.25264859 2.24200654 0.0339155681
v 1.23156691 2.24200654 0.0339155607
v 1.23156691 2.24200654 -0.033914309
v 1.23097396 0.00299418322 -0.0352579206
v 1.23097396 0.00299418322 0.0352591723
v 0.0312693194 2.24382353 -0.0337939858
v 0.0320575312 0.000272183068 -0.033304669
v 0.0320575163 0.000272183068 0.0333051905
v 0.0312693045 2.24382353 0.0337945074
v 0.0537991598 2.24382353 -0.0337939784
v 0.053010948 0.000272183068 -0.0333046615
v 0.0320575312 0.000272183068 -0.033304669
v 0.0312693194 2.24382353 -0.0337939858
v 0.0537991412 2.24382353 0.0337945148
v 0.0530109294 0.000272183068 0.0333051942
v 0.053010948 0.000272183068 -0.0333046615
v 0.0537991598 2.24382353 -0.0337939784
v 0.0312693194 2.24382353 -0.0337939858
v 0.0312693045 2.24382353 0.0337945074
v 0.0537991412 2.24382353 0.0337945148
v 0.0537991598 2.24382353 -0.0337939784
v 0.0320575312 0.000272183068 -0.033304669
v 0.053010948 0.000272183068 -0.0333046615
v 0.0530109294 0.000272183068 0.0333051942
v 0.0320575163 0.000272183068 0.0333051905
v 0.0610512532 1.0208807 -0.0353704952
v 1.22952306 1.02110732 -0.0356231406
v 1.22952306 1.00031912 -0.0356231406
v 0.0608149804 1.00067353 -0.0360633731
v 0.0552563705 0.514729619 -0.0362345651
v 0.0552563593 0.514729619 0.0362351015
v 1.2266289 0.512963235 0.0360858701
v 1.2266289 0.512963235 -0.0360846221
v 1.2307018 0.119430199 -0.0351985507
v 0.0545465983 0.118645683 -0.0370067842
v 0.0545465872 0.118645683 0.0370073207
v 1.2307018 0.119430199 0.0351998024
v 1.23024404 1.22409987 -0.0362431668
v 0.0599942245 1.22220838 -0.0367089063
v 0.0599942245 1.2448616 -0.0367089063
v 1.23024404 1.24297023 -0.0362431668
v 1.23024404 1.22409987 0.0362444185
v 0.0559016392 1.22220838 0.0361070037
v 0.0599942245 1.22220838 -0.0367089063
v 1.23024404 1.22409987 -0.0362431668
v 0.0552563705 0.493706107 -0.0362345651
v 0.0552563705 0.514729619 -0.0362345651
v 1.2266289 0.512963235 -0.0360846221
v 1.2266289 0.495472759 -0.0360846221
v 0.0545465983 0.118645683 -0.0370067842
v 1.2307018 0.119430199 -0.0351985507
v 1.2307018 0.0969369113 -0.0351985507
v 0.0545465983 0.0925289989 -0.0370067842
v 0.0540183708 2.12868834 0.0364378355
v 1.22965443 2.12956643 0.0354218557
v 1.22965443 2.14853573 0.0354218557
v 0.0540183708 2.1512754 0.0364378355
v 0.734396935 0.993909121 0.00825065561
v 0.720633745 0.993909121 0.00551298168
v 0.719890952 0.515486717 0.00600926485
v 0.734893143 0.515486717 0.0089933956
v 0.737134516 0.993909121 -0.00551254442
v 0.734396935 0.993909121 0.00825065561
v 0.734893143 0.515486717 0.0089933956
v 0.73787725 0.515486717 -0.00600882759
v 0.562262416 0.993480742 -0.00409426959
v 0.563814938 0.515486717 -0.00483510457
v 0.541104376 0.515486717 0.00457186252
v 0.543292224 0.993782699 0.00366563397
v 0.914415181 0.99862051 -0.000153210291
v 0.915226519 0.515486777 -0.000508808356
v 0.89301312 0.515486777 -0.000512130617
v 0.893136322 0.99862051 -0.000153216723
v 0.390761703 0.995004177 0.0147840632
v 0.37914753 0.997951806 0.0237040184
v 0.380159706 0.516147435 0.0166671481
v 0.392142862 0.515488088 0.00397783099
v 0.380159706 0.516147435 0.0166671481
v 0.37914753 0.997951806 0.0237040184
v 0.3686454 0.994788468 0.0119225867
v 0.36737442 0.515532374 0.00340656447
v 0.200411201 0.515486598 0.00901788007
v 0.200298935 0.998617709 0.017751839
v 0.220399678 0.995739818 0.00966030452
v 0.221659109 0.515486598 0.000154188267
v 0.559684753 2.12485313 0.00960391201
v 0.541171968 2.12485814 0.00193604943
v 0.543803811 1.74958003 -0.00573014654
v 0.56105274 1.74850059 -6.78478682E-05
v 0.559684753 2.12485313 0.00960391201
v 0.56105274 1.74850059 -6.78478682E-05
v 0.568165541 1.75029445 -0.0173216332
v 0.56735307 2.12485194 -0.0088881515
v 0.368426055 1.75040245 -0.00123961421
v 0.367831826 2.1263907 -0.000532961683
v 0.390640944 2.1263907 -0.000532954815
v 0.390046716 1.75025523 -0.00234351517
v 0.915961564 1.75038481 -0.0173938908
v 0.895852745 1.74902081 -0.0101593435
v 0.894974828 2.11931062 -0.000328250666
v 0.913309693 2.11932874 -0.00795633253
v 1.06304026 1.72797728 -0.00299925497
v 1.08245409 1.7282728 -0.00542797195
v 1.08458519 1.24254096 -0.00363969314
v 1.06092203 1.24249434 0.00108270429
v 0.719890952 0.515486717 0.00600926485
v 0.720633745 0.993909121 0.00551298168
v 0.737134516 0.993909121 -0.00551254442
v 0.73787725 0.515486717 -0.00600882759
v 0.390640944 2.1263907 -0.000532954815
v 0.3792364 2.1263907 0.0108715901
v 0.3792364 1.75017357 0.00907968078
v 0.390046716 1.75025523 -0.00234351517
v 0.3792364 2.1263907 0.0108715901
v 0.367831826 2.1263907 -0.000532961683
v 0.368426055 1.75040245 -0.00123961421
v 0.3792364 1.75017357 0.00907968078
v 0.369925797 1.23861206 0.00134556694
v 0.368281543 1.7279042 0.000914597244
v 0.391055018 1.72780895 -0.00488051027
v 0.389422894 1.23859215 -0.00252607721
v 0.21939531 1.72845292 -0.00633011432
v 0.216251805 1.72845292 0.0094738435
v 0.215923473 1.24373972 0.00898255687
v 0.218904018 1.24373972 -0.00600184686
v 0.369925797 1.23861206 0.00134556694
v 0.381593645 1.23861206 0.0091417972
v 0.381918579 1.72765017 0.00933357701
v 0.368281543 1.7279042 0.000914597244
v 0.200939178 1.24373972 0.0060019712
v 0.215923473 1.24373972 0.00898255687
v 0.216251805 1.72845292 0.0094738435
v 0.200447872 1.72845292 0.00633023959
v 0.200298935 0.998617709 0.017751839
v 0.200411201 0.515486598 0.00901788007
v 0.214796722 0.515510976 0.0150651811
v 0.214334846 1.00035441 0.0241857171
v 0.214796722 0.515510976 0.0150651811
v 0.221659109 0.515486598 0.000154188267
v 0.220399678 0.995739818 0.00966030452
v 0.214334846 1.00035441 0.0241857171
v 0.198136285 2.1277988 5.12324441E-08
v 0.199999005 1.75104392 5.17949665E-08
v 0.209921718 1.75104392 0.00992276799
v 0.209921718 2.1277988 0.0117854755
v 0.209921718 2.1277988 0.0117854755
v 0.209921718 1.75104392 0.00992276799
v 0.219844431 1.75104392 5.77881281E-08
v 0.22170715 2.1277988 5.83506505E-08
v 0.546355069 1.21335459 0.00193598156
v 0.544813931 1.01590943 0.00193598121
v 0.556481779 1.01590943 0.00973221194
v 0.558354259 1.23546433 0.00973221287
v 0.723498523 1.21347213 0.00398647226
v 0.742789447 1.23576796 -0.00399517827
v 0.739275813 1.01652539 -0.0037984252
v 0.720940888 1.01652539 0.00379608618
v 0.3686454 0.994788468 0.0119225867
v 0.390761703 0.995004177 0.0147840632
v 0.392142862 0.515488088 0.00397783099
v 0.36737442 0.515532374 0.00340656447
v 0.556481779 1.01590943 0.00973221194
v 0.564277947 1.01590943 -0.00193566317
v 0.566441715 1.23528945 -0.00193566259
v 0.558354259 1.23546433 0.00973221287
v 0.219653681 1.22100604 0.00139707339
v 0.221095026 1.01956177 0.00881278422
v 0.19874835 1.02093506 0.0131966565
v 0.20018965 1.22100604 0.00526871812
v 0.389812738 1.23848772 0.00526877493
v 0.378144801 1.23848772 0.0130649991
v 0.378144801 1.021685 0.0206029173
v 0.389812648 1.01927638 0.0129139619
v 0.369925797 1.23861206 0.00134556694
v 0.370348603 1.01808023 0.00909557939
v 0.378144801 1.021685 0.0206029173
v 0.378144801 1.23848772 0.0130649991
v 0.212144241 1.02370036 0.022024354
v 0.221095026 1.01956177 0.00881278422
v 0.219653681 1.22100604 0.00139707339
v 0.211857498 1.22100604 0.0130649479
v 0.212144241 1.02370036 0.022024354
v 0.211857498 1.22100604 0.0130649479
v 0.20018965 1.22100604 0.00526871812
v 0.19874835 1.02093506 0.0131966565
v 0.546355069 1.21335459 0.00193598156
v 0.566441715 1.23528945 -0.00193566259
v 0.564277947 1.01590943 -0.00193566317
v 0.544813931 1.01590943 0.00193598121
v 0.389422894 1.23859215 -0.00252607721
v 0.391055018 1.72780895 -0.00488051027
v 0.381918579 1.72765017 0.00933357701
v 0.381593645 1.23861206 0.0091417972
v 0.203591377 1.72845292 -0.00947372708
v 0.203919709 1.24373972 -0.00898243766
v 0.200939178 1.24373972 0.0060019712
v 0.200447872 1.72845292 0.00633023959
v 0.92748487 1.61080348 -0.0169227794
v 0.915869117 1.6103909 -0.0179417059
v 0.921646535 1.61122763 -0.023699509
v 0.922017634 1.24020278 -0.0068582464
v 0.902893662 1.23976958 -0.00685825199
v 0.559794903 1.72523606 -0.00156472693
v 0.559552789 1.2355895 0.00594612211
v 0.567685723 1.23538721 -0.00572175439
v 0.569000006 1.72657466 -0.0156426318
v 0.569000006 1.72657466 -0.0156426318
v 0.567685723 1.23538721 -0.00572175439
v 0.547498643 1.23582149 -0.00185010955
v 0.545971334 1.72646904 -0.00938831549
v 0.727457047 1.23623049 -0.00562465284
v 0.73734647 1.2362504 0.00429806439
v 0.737255335 1.72431672 -0.00809518155
v 0.726691067 1.72602105 -0.018572459
v 0.737255335 1.72431672 -0.00809518155
v 0.73734647 1.2362504 0.00429806439
v 0.747302353 1.23623049 -0.00562464632
v 0.747714043 1.72602594 -0.0185724515
v 0.369925797 1.23861206 0.00134556694
v 0.389812738 1.23848772 0.00526877493
v 0.389812648 1.01927638 0.0129139619
v 0.370348603 1.01808023 0.00909557939
v 0.921690285 1.60998344 -0.0113689583
v 0.915869117 1.6103909 -0.0179417059
v 0.902893662 1.23976958 -0.00685825199
v 0.912404299 1.24001694 0.00306446524
v 0.747714043 1.72602594 -0.0185724515
v 0.747302353 1.23623049 -0.00562464632
v 0.727457047 1.23623049 -0.00562465284
v 0.726691067 1.72602105 -0.018572459
v 0.921690285 1.60998344 -0.0113689583
v 0.912404299 1.24001694 0.00306446524
v 0.922017634 1.24020278 -0.0068582464
v 0.92748487 1.61080348 -0.0169227794
v 0.902782798 1.72677791 -0.0177833196
v 0.912302911 1.72823668 -0.0271720421
v 0.921646535 1.61122763 -0.023699509
v 0.915869117 1.6103909 -0.0179417059
v 0.912378609 1.72564781 -0.00737446873
v 0.902782798 1.72677791 -0.0177833196
v 0.915869117 1.6103909 -0.0179417059
v 0.921690285 1.60998344 -0.0113689583
v 0.92748487 1.61080348 -0.0169227794
v 0.921928585 1.72706819 -0.0164035242
v 0.912378609 1.72564781 -0.00737446873
v 0.921690285 1.60998344 -0.0113689583
v 0.921928585 1.72706819 -0.0164035242
v 0.92748487 1.61080348 -0.0169227794
v 0.921646535 1.61122763 -0.023699509
v 0.912302911 1.72823668 -0.0271720421
v 1.07465804 1.72782731 0.00564358803
v 1.06304026 1.72797728 -0.00299925497
v 1.06092203 1.24249434 0.00108270429
v 1.07507598 1.24254096 0.0105920751
v 1.07465804 1.72782731 0.00564358803
v 1.07507598 1.24254096 0.0105920751
v 1.08458519 1.24254096 -0.00363969314
v 1.08245409 1.7282728 -0.00542797195
v 0.723498523 1.21347213 0.00398647226
v 0.720940888 1.01652539 0.00379608618
v 0.733905613 1.01652539 0.00916623045
v 0.73710829 1.23579037 0.0096303653
v 0.543292224 0.993782699 0.00366563397
v 0.541104376 0.515486717 0.00457186252
v 0.557163119 0.515486717 0.0112236096
v 0.55625689 0.993782699 0.0090357773
v 0.562262416 0.993480742 -0.00409426959
v 0.55625689 0.993782699 0.0090357773
v 0.557163119 0.515486717 0.0112236096
v 0.563814938 0.515486717 -0.00483510457
v 1.06753623 0.515475571 0.00702462671
v 1.06748712 0.999294281 0.00677313423
v 1.08775949 0.999294281 -0.00677248277
v 1.08856142 0.515475571 -0.00702397432
v 1.08775949 0.999294281 -0.00677248277
v 1.08439612 0.999294281 0.010136554
v 1.08507311 0.515475571 0.0105129387
v 1.08856142 0.515475571 -0.00702397432
v 1.08439612 0.999294281 0.010136554
v 1.06748712 0.999294281 0.00677313423
v 1.06753623 0.515475571 0.00702462671
v 1.08507311 0.515475571 0.0105129387
v 0.893136322 0.99862051 -0.000153216723
v 0.89301312 0.515486777 -0.000512130617
v 0.904119849 0.515486777 0.0105955834
v 0.903775752 0.99862051 0.0104862303
v 0.914415181 0.99862051 -0.000153210291
v 0.903775752 0.99862051 0.0104862303
v 0.904119849 0.515486777 0.0105955834
v 0.915226519 0.515486777 -0.000508808356
v 0.895852745 1.74902081 -0.0101593435
v 0.910094738 1.7484777 -0.00321063213
v 0.907939494 2.11931825 0.00501501979
v 0.894974828 2.11931062 -0.000328250666
v 0.22170715 2.1277988 5.83506505E-08
v 0.219844431 1.75104392 5.77881281E-08
v 0.199999005 1.75104392 5.17949665E-08
v 0.198136285 2.1277988 5.12324441E-08
v 0.568165541 1.75029445 -0.0173216332
v 0.543803811 1.74958003 -0.00573014654
v 0.541171968 2.12485814 0.00193604943
v 0.56735307 2.12485194 -0.0088881515
v 1.0631578 1.75046837 -0.0023817108
v 1.07658386 1.75027335 0.00750333723
v 1.07629216 2.12187529 0.00856752694
v 1.06462431 2.12187529 0.000771296036
v 1.07629216 2.12187529 0.00856752694
v 1.07658386 1.75027335 0.00750333723
v 1.08555508 1.75077605 -0.00530433329
v 1.08408821 2.12187529 -0.0031003484
v 0.915961564 1.75038481 -0.0173938908
v 0.913309693 2.11932874 -0.00795633253
v 0.907939494 2.11931825 0.00501501979
v 0.910094738 1.7484777 -0.00321063213
v 0.369143814 0.11570546 -0.00220169709
v 0.369800091 0.492949069 -0.00193572207
v 0.389264166 0.492949069 0.00193593418
v 0.391282141 0.11570546 0.00220190967
v 0.549717546 0.492949128 0.00916755851
v 0.549195588 0.115601517 0.0104276622
v 0.563942373 0.115601517 0.00431937445
v 0.562682331 0.492949128 0.0037974217
v 1.08530545 0.492949069 -0.00217756163
v 1.08408821 0.119149767 -0.00193550624
v 1.06462431 0.119149767 0.00193613803
v 1.06340754 0.492949158 0.00217819377
v 0.369143814 0.11570546 -0.00220169709
v 0.378011167 0.11570546 0.0110693062
v 0.377596289 0.492949069 0.00973215792
v 0.369800091 0.492949069 -0.00193572207
v 0.378011167 0.11570546 0.0110693062
v 0.391282141 0.11570546 0.00220190967
v 0.389264166 0.492949069 0.00193593418
v 0.377596289 0.492949069 0.00973215792
v 1.06462431 0.119149767 0.00193613803
v 1.07629216 0.119149767 0.0097323684
v 1.07653451 0.492949069 0.0109492671
v 1.06340754 0.492949158 0.00217819377
v 1.07653451 0.492949069 0.0109492671
v 1.07629216 0.119149767 0.0097323684
v 1.08408821 0.119149767 -0.00193550624
v 1.08530545 0.492949069 -0.00217756163
v 0.544347405 0.492949128 -0.00379710039
v 0.562682331 0.492949128 0.0037974217
v 0.563942373 0.115601517 0.00431937445
v 0.543087304 0.115601517 -0.00431905175
v 0.934577107 1.02116203 0.0301347207
v 0.936932027 1.2239486 0.0301347207
v 0.907294154 1.22364974 0.0301347133
v 0.904008985 1.02116203 0.0301347077
v 0.0589506663 1.72865212 -0.0363328718
v 1.22987413 1.72943926 -0.0357454084
v 1.22987413 1.72943926 0.0357466713
v 0.0496518537 1.72865415 0.0369359925
v 0.05900741 1.75087225 -0.0363273472
v 0.0497087166 1.75087428 0.0369415283
v 1.22987413 1.7500869 0.0357466713
v 1.22987413 1.7500869 -0.0357454084
v 0.0497087166 1.75087428 0.0369415283
v 0.0496518537 1.72865415 0.0369359925
v 1.22987413 1.72943926 0.0357466713
v 1.22987413 1.7500869 0.0357466713
v 0.0608149804 1.00067353 -0.0360633731
v 1.22952306 1.00031912 -0.0356231406
v 1.22952306 1.00031912 0.0356243923
v 0.0566333458 1.00214136 0.0357718915
v 0.73710829 1.23579037 0.0096303653
v 0.733905613 1.01652539 0.00916623045
v 0.739275813 1.01652539 -0.0037984252
v 0.742789447 1.23576796 -0.00399517827
v 0.559794903 1.72523606 -0.00156472693
v 0.545971334 1.72646904 -0.00938831549
v 0.547498643 1.23582149 -0.00185010955
v 0.559552789 1.2355895 0.00594612211
v 0.203919709 1.24373972 -0.00898243766
v 0.203591377 1.72845292 -0.00947372708
v 0.21939531 1.72845292 -0.00633011432
v 0.218904018 1.24373972 -0.00600184686
v 0.0599942245 1.2448616 -0.0367089063
v 0.0554681942 1.2448616 0.0361070037
v 1.23024404 1.24297023 0.0362444185
v 1.23024404 1.24297023 -0.0362431668
v 0.0567136928 1.02080941 0.0361001417
v 0.0566333458 1.00214136 0.0357718915
v 1.22952306 1.00031912 0.0356243923
v 1.22952306 1.02110732 0.0356243923
v 1.23024404 1.24297023 0.0362444185
v 0.0554681942 1.2448616 0.0361070037
v 0.0559016392 1.22220838 0.0361070037
v 1.23024404 1.22409987 0.0362444185
v 0.544347405 0.492949128 -0.00379710039
v 0.543087304 0.115601517 -0.00431905175
v 0.549195588 0.115601517 0.0104276622
v 0.549717546 0.492949128 0.00916755851
v 1.22965443 2.14853573 -0.0354206041
v 1.22965443 2.12956643 -0.0354206041
v 0.0561579503 2.12868834 -0.0364372991
v 0.0561579503 2.1512754 -0.0364372991
v 0.0561579503 2.12868834 -0.0364372991
v 1.22965443 2.12956643 -0.0354206041
v 1.22965443 2.12956643 0.0354218557
v 0.0540183708 2.12868834 0.0364378355
v 0.05900741 1.75087225 -0.0363273472
v 1.22987413 1.7500869 -0.0357454084
v 1.22987413 1.72943926 -0.0357454084
v 0.0589506663 1.72865212 -0.0363328718
v 1.2266289 0.512963235 0.0360858701
v 0.0552563593 0.514729619 0.0362351015
v 0.0552563593 0.493706107 0.0362351015
v 1.2266289 0.495472759 0.0360858701
v 0.0545465872 0.118645683 0.0370073207
v 0.0545465872 0.0925289989 0.0370073207
v 1.2307018 0.0969369113 0.0351998024
v 1.2307018 0.119430199 0.0351998024
v 0.0545465872 0.0925289989 0.0370073207
v 0.0545465983 0.0925289989 -0.0370067842
v 1.2307018 0.0969369113 -0.0351985507
v 1.2307018 0.0969369113 0.0351998024
v 0.0552563705 0.493706107 -0.0362345651
v 1.2266289 0.495472759 -0.0360846221
v 1.2266289 0.495472759 0.0360858701
v 0.0552563593 0.493706107 0.0362351015
v 1.08555508 1.75077605 -0.00530433329
v 1.0631578 1.75046837 -0.0023817108
v 1.06462431 2.12187529 0.000771296036
v 1.08408821 2.12187529 -0.0031003484
v 0.924684882 0.492949158 0.00423766719
v 0.88519156 0.1179654 -0.00361751183
v 0.882073641 0.492949158 -0.00423813285
v 0.921566904 0.1179654 0.00361804082
v 0.899141192 0.492949158 0.0213054344
v 0.899761438 0.1179654 0.0181880314
v 0.882073641 0.492949158 -0.00423813285
v 0.88519156 0.1179654 -0.00361751183
v 0.0307303835 0.00754067302 -0.0284811631
v 5.64561553E-09 0.0517325327 -0.018694533
v 0.0307303835 0.0585353635 -0.0284811631
v 5.64561553E-09 0.0143435029 -0.018694533
v -0.0186945163 0.0517325327 -2.14172626E-08
v -0.0186945163 0.0143435029 -2.14172626E-08
v -5.64555869E-09 0.0517325327 0.0186944995
v -5.64555869E-09 0.0143435029 0.0186944995
v 0.0307303686 0.0585353635 0.0284811445
v 0.0307303686 0.00754067302 0.0284811445
v 0.0309667047 0.0585353635 -6.42000941E-09
v -5.64555869E-09 0.0517325327 0.0186944995
v 0.0307303686 0.0585353635 0.0284811445
v -0.000786866818 0.0517325327 -1.58501479E-08
v -0.0186945163 0.0517325327 -2.14172626E-08
v 5.64561553E-09 0.0517325327 -0.018694533
v 0.0307303835 0.0585353635 -0.0284811631
v 0.0318095274 2.22073507 0.0284811426
v -5.08841547E-09 2.17654324 0.0186944902
v 0.0318095274 2.1697402 0.028481137
v -5.0884168E-09 2.21393204 0.0186944958
v -0.0186945144 2.21393204 -2.36543212E-08
v -0.0186945144 2.17654324 -2.92998958E-08
v 6.20275564E-09 2.21393204 -0.018694533
v 6.20275831E-09 2.17654324 -0.0186945423
v 0.0318095423 2.22073507 -0.0284811594
v 0.0318095423 2.1697402 -0.0284811649
v 0.0320458673 2.1697402 -1.50039199E-08
v 6.20275831E-09 2.17654324 -0.0186945423
v 0.0318095423 2.1697402 -0.0284811649
v -0.0186945144 2.17654324 -2.92998958E-08
v -5.08841547E-09 2.17654324 0.0186944902
v 0.0318095274 2.1697402 0.028481137
v 0.0318095423 2.22073507 -0.0284811594
v 0.0169538911 2.21393204 -1.28888038E-08
v 0.0320458673 2.22073507 -7.303953E-09
v 0.0318095274 2.22073507 0.0284811426
v -4.56276306E-09 2.21393204 0.0169538707
v -5.0884168E-09 2.21393204 0.0186944958
v -0.0169538911 2.21393204 -2.31286901E-08
v -0.0186945144 2.21393204 -2.36543212E-08
v 5.67710146E-09 2.21393204 -0.0169539098
v 6.20275564E-09 2.21393204 -0.018694533
v 0.016953893 0.0143435029 -1.06517462E-08
v 0.0307303835 0.00754067302 -0.0284811631
v 0.0309667047 0.00754067302 -6.42000941E-09
v 0.0307303686 0.00754067302 0.0284811445
v 5.11996179E-09 0.0143435029 -0.0169539098
v 5.64561553E-09 0.0143435029 -0.018694533
v -0.016953893 0.0143435029 -2.08916333E-08
v -0.0186945163 0.0143435029 -2.14172626E-08
v -5.11990494E-09 0.0143435029 0.0169538762
v -5.64555869E-09 0.0143435029 0.0186944995
vn 0.818199158 0.574295878 0.02709998
vn 0.0557021163 0.564017653 -0.823881865
vn -0.539324641 0.0221470576 0.84180671
vn 0.535785139 -0.667969227 -0.51647985
vn 0.4280532 -0.700762451 0.570703387
vn 0.127148703 0.552981853 -0.823434412
vn 0.647521079 0.740706623 0.17908138
vn -0.717753887 0.666161597 -0.202628016
vn -0.547659755 0.011000053 -0.836628854
vn 0.272076696 -0.787285984 0.553312778
vn -0.97651428 -0.0759677067 0.201615632
vn 0.558197498 -0.790786505 -0.251141906
vn 0.952390492 -0.0600877255 -0.298900753
vn -0.0476165712 -0.778502584 -0.625832558
vn 0.610894442 -0.791612506 -0.0125517985
vn 0.647521079 0.740706623 0.17908138
vn -0.547659755 0.011000053 -0.836628854
vn -0.181552514 0.817374885 0.546751261
vn 0.0557021163 0.564017653 -0.823881865
vn -0.820992231 0.569840431 0.0354066715
vn -0.539324641 0.0221470576 0.84180671
vn 0.864619195 0.50170362 0.0269663446
vn 0.0602522083 0.456696153 -0.887579978
vn 0.0554756559 0.0292561054 0.998031318
vn -0.539324641 0.0221470576 0.84180671
vn -0.820992231 0.569840431 0.0354066715
vn -0.0619428307 0.58072567 0.811739385
vn -0.0619428307 0.58072567 0.811739385
vn 0.818199158 0.574295878 0.02709998
vn -0.539324641 0.0221470576 0.84180671
vn 0.802366376 0.0399391092 0.595494032
vn 0.0600434765 0.419362336 -0.905831039
vn -0.901332319 0.431685001 0.0353267565
vn 0.0554756559 0.0292561054 0.998031318
vn 0.0602522083 0.456696153 -0.887579978
vn -0.859772861 0.50955838 0.0337761492
vn 0.899472952 0.436018527 0.0289167147
vn 0.0600434765 0.419362336 -0.905831039
vn 0.802366376 0.0399391092 0.595494032
vn -0.859772861 0.50955838 0.0337761492
vn -0.0641725883 0.547496259 0.83434391
vn 0.0554756559 0.0292561054 0.998031318
vn -0.0641725883 0.547496259 0.83434391
vn 0.864619195 0.50170362 0.0269663446
vn 0.0554756559 0.0292561054 0.998031318
vn 0.761096001 0.647798657 0.0330117047
vn 0.0694770813 0.603459239 -0.794361293
vn 0.739216685 -0.0120196966 0.673360467
vn -0.901332319 0.431685001 0.0353267565
vn -0.0667625368 0.4429245 0.894069672
vn 0.802366376 0.0399391092 0.595494032
vn -0.0667625368 0.4429245 0.894069672
vn 0.899472952 0.436018527 0.0289167147
vn 0.802366376 0.0399391092 0.595494032
vn 0.739216685 -0.0120196966 0.673360467
vn 0.0694770813 0.603459239 -0.794361293
vn -0.813907981 0.579539597 0.0410799198
vn -0.794010758 0.606038332 0.047584042
vn -0.0741128474 0.426262021 0.901558697
vn 0.637064755 0.759452999 0.13183175
vn 0.878533006 0.476444572 0.0343584679
vn 0.0402407348 0.396184057 -0.917288899
vn 0.637064755 0.759452999 0.13183175
vn -0.813907981 0.579539597 0.0410799198
vn -0.0472324602 0.615264118 0.786904812
vn 0.739216685 -0.0120196966 0.673360467
vn -0.0472324602 0.615264118 0.786904812
vn 0.761096001 0.647798657 0.0330117047
vn 0.739216685 -0.0120196966 0.673360467
vn -0.0741128474 0.426262021 0.901558697
vn 0.878533006 0.476444572 0.0343584679
vn 0.637064755 0.759452999 0.13183175
vn 0.0402407348 0.396184057 -0.917288899
vn -0.794010758 0.606038332 0.047584042
vn 0.637064755 0.759452999 0.13183175
vn 0.823868513 0.5660097 0.0295570511
vn 0.0557604954 0.556761146 -0.828799009
vn -0.0395894945 0.222138092 0.974211156
vn -0.826736927 0.561403692 0.0364940651
vn -0.0625312626 0.571392417 0.818291247
vn -0.0395894945 0.222138092 0.974211156
vn -0.0625312626 0.571392417 0.818291247
vn 0.823868513 0.5660097 0.0295570511
vn -0.0395894945 0.222138092 0.974211156
vn -0.826736927 0.561403692 0.0364940651
vn -0.0395894945 0.222138092 0.974211156
vn 0.0557604954 0.556761146 -0.828799009
vn -0.181552514 0.817374885 0.546751261
vn -0.547659755 0.011000053 -0.836628854
vn -0.717753887 0.666161597 -0.202628016
vn -0.61458391 -0.788569629 -0.0210853182
vn -0.0476165712 -0.778502584 -0.625832558
vn 0.952390492 -0.0600877255 -0.298900753
vn 0.4280532 -0.700762451 0.570703387
vn -0.628070652 -0.695869625 0.348271012
vn 0.127148703 0.552981853 -0.823434412
vn -0.61458391 -0.788569629 -0.0210853182
vn 0.952390492 -0.0600877255 -0.298900753
vn 0.0417017639 -0.803426325 0.593942046
vn 0.270604402 -0.73666501 0.619756341
vn -0.48163411 -0.851051331 0.209141344
vn -0.971302688 -0.237474903 0.0132975876
vn 0.610894442 -0.791612506 -0.0125517985
vn 0.0417017639 -0.803426325 0.593942046
vn 0.952390492 -0.0600877255 -0.298900753
vn -0.582456708 -0.713321805 0.38976422
vn -0.452648371 -0.638601303 -0.622332513
vn 0.964079738 -0.16747652 0.20615986
vn 0.964079738 -0.16747652 0.20615986
vn -0.452648371 -0.638601303 -0.622332513
vn 0.571137011 -0.708108366 -0.415192723
vn -0.582456708 -0.713321805 0.38976422
vn 0.964079738 -0.16747652 0.20615986
vn 0.412531883 -0.726754844 0.549221933
vn -0.48163411 -0.851051331 0.209141344
vn -0.262921393 -0.739279509 -0.619950235
vn -0.971302688 -0.237474903 0.0132975876
vn -0.253036559 -0.548315108 -0.797071636
vn -0.303076953 0.928608358 0.214081392
vn -0.603347003 -0.773632288 0.193560079
vn -0.253036559 -0.548315108 -0.797071636
vn -0.381627589 -0.690714061 -0.614226758
vn 0.551181316 -0.753290713 -0.358820498
vn -0.303076953 0.928608358 0.214081392
vn -0.253036559 -0.548315108 -0.797071636
vn -0.303076953 0.928608358 0.214081392
vn 0.266760737 -0.797819018 0.540669501
vn -0.603347003 -0.773632288 0.193560079
vn 0.571137011 -0.708108366 -0.415192723
vn 0.412531883 -0.726754844 0.549221933
vn 0.964079738 -0.16747652 0.20615986
vn -0.262921393 -0.739279509 -0.619950235
vn 0.541853428 -0.793022037 -0.278407663
vn -0.971302688 -0.237474903 0.0132975876
vn 0.551181316 -0.753290713 -0.358820498
vn 0.266760737 -0.797819018 0.540669501
vn -0.303076953 0.928608358 0.214081392
vn -0.562400818 -0.796398938 0.222382456
vn -0.277967691 -0.766342163 -0.579183698
vn -0.97651428 -0.0759677067 0.201615632
vn -0.277967691 -0.766342163 -0.579183698
vn 0.558197498 -0.790786505 -0.251141906
vn -0.97651428 -0.0759677067 0.201615632
vn -0.97651428 -0.0759677067 0.201615632
vn 0.272076696 -0.787285984 0.553312778
vn -0.562400818 -0.796398938 0.222382456
vn 0.541853428 -0.793022037 -0.278407663
vn 0.270604402 -0.73666501 0.619756341
vn -0.971302688 -0.237474903 0.0132975876
vn -1.00992629E-05 -0.00115437817 0.999999404
vn -0.0906708017 3.31838928E-05 0.995880961
vn 0.983670473 -0.000938996673 0.17997615
vn -0.999999404 -0.00115433347 -1.00918123E-05
vn -0.0906708017 3.31838928E-05 0.995880961
vn 1.006201E-05 -0.00115437817 -0.999999404
vn -0.0906708017 3.31838928E-05 0.995880961
vn 0.983670473 -0.000938996673 0.17997615
vn -0.0906708017 3.31838928E-05 0.995880961
vn 8.46385956E-06 0.000836595835 0.999999642
vn -0.997733951 0.0672818497 -0.000232445891
vn -0.999999642 0.000837042928 7.17863441E-06
vn -0.999999642 0.000837042928 7.17863441E-06
vn -0.997733951 0.0672818497 -0.000232445891
vn -7.80448318E-06 0.000836953521 -0.999999642
vn -7.80448318E-06 0.000836953521 -0.999999642
vn -0.997733951 0.0672818497 -0.000232445891
vn 0.963063896 -0.269272953 3.16649639E-05
vn 0.963063896 -0.269272953 3.16649639E-05
vn -0.997733951 0.0672818497 -0.000232445891
vn 8.46385956E-06 0.000836595835 0.999999642
vn -0.628070652 -0.695869625 0.348271012
vn -0.321336269 -0.705189705 -0.632020891
vn 0.127148703 0.552981853 -0.823434412
vn -0.522197008 -0.582290113 -0.623095989
vn -0.321336269 -0.705189705 -0.632020891
vn 0.535785139 -0.667969227 -0.51647985
vn -0.321336269 -0.705189705 -0.632020891
vn 0.127148703 0.552981853 -0.823434412
vn 0.83912468 0.543664396 0.0172850471
vn 0.839149892 0.543625414 0.0172885563
vn -0.628249884 0.778011441 0.000546593859
vn -0.628247857 0.778012156 0.00129831396
vn -0.708875716 -0.705280781 0.00860712212
vn -0.879721701 0.47548905 0
vn -0.723320782 0.594250381 0.35167256
vn -0.709365785 -0.704793572 0.00813813228
vn 0.744071066 0.563615501 -0.358742088
vn 0.0121202767 0.399803579 -0.916520715
vn 0.0405305177 -0.29697603 -0.954024315
vn 0.0414998643 -0.296842128 -0.954024315
vn 0.876372278 0.48163411 0.000437067531
vn 0.849903762 -0.526934505 0.00190758565
vn 0.84970516 -0.527175605 0.00933040958
vn -4.71622261E-05 0.680352509 0.732884943
vn 0.000208419544 -0.675563395 0.737301826
vn -1.45629447E-05 -0.675563455 0.737301886
vn 0.000242833485 0.680352449 0.732884943
vn 5.79774087E-06 0.712947309 -0.701217592
vn 0.000173787863 -0.528210402 -0.849113524
vn -2.09788413E-05 -0.528210461 -0.849113524
vn 0.000200045164 0.712947309 -0.701217592
vn 4.83741076E-07 1 0
vn 0 1 0
vn 2.03811828E-06 1 0
vn 2.52185964E-06 1 0
vn 0 -1 0
vn 0 -1 0
vn 0 -1 0
vn 0 -1 0
vn 0.935324252 -0.353791714 -2.84319617E-06
vn 0.874427438 0.485156238 0.000259940978
vn 0.874427438 0.485156298 1.93289106E-05
vn 0.935324252 -0.353791624 0.000206769517
vn 0.615142941 0.787620723 0.035393808
vn 0.615430415 0.787392616 0.035472732
vn -0.601335824 0.798996329 0.000274373364
vn -0.601658106 0.79874599 -0.00350352679
vn -5.79774087E-06 0.712947309 0.701217592
vn -0.000173787863 -0.528210402 0.849113524
vn 2.09788413E-05 -0.528210461 0.849113524
vn -0.000200045164 0.712947309 0.701217592
vn -0.874427438 0.485156238 -0.000259940978
vn -0.874427438 0.485156298 -1.93289106E-05
vn -0.935324252 -0.353791654 -0.000206769531
vn -0.935324252 -0.353791684 2.84319594E-06
vn -0.955638707 0.294541597 -7.44209729E-06
vn -0.915244222 -0.402899414 0.000106371073
vn -0.915244222 -0.402899414 9.19338072E-06
vn -0.955638707 0.294541627 4.96162793E-05
vn 4.71622261E-05 0.680352509 -0.732884943
vn -0.000208419544 -0.675563395 -0.737301826
vn 1.45629447E-05 -0.675563455 -0.737301886
vn -0.000242833485 0.680352449 -0.732884943
vn 0.955638707 0.294541597 7.44209729E-06
vn 0.915244222 -0.402899414 -0.000106371073
vn 0.915244222 -0.402899414 -9.19338072E-06
vn 0.955638707 0.294541627 -4.96162793E-05
vn 4.8869299E-07 1 0
vn 2.38596931E-06 1 0
vn 1.89727621E-06 1 0
vn 0 1 0
vn 0 -1 0
vn 0 -1 0
vn 0 -1 0
vn 0 -1 0
vn 0.300715536 0.0330949165 -0.953139484
vn -0.321026891 0.0847951174 -0.943266451
vn -0.460553765 -0.244978175 -0.853156447
vn 0.340376019 0.0321195982 -0.939740658
vn 0.531949222 0.846776187 6.7929177E-05
vn 0.531908572 0.846801758 -0.0001691957
vn -0.54455775 0.838723361 6.95352137E-05
vn -0.54454875 0.838723361 0.00312265614
vn -0.647102594 0.762371242 0.00695039006
vn 0.731465042 0.68187803 0.00112526095
vn 0.731360614 0.681948066 -0.00764223747
vn -0.647139192 0.762371182 0.00099374319
vn -0.454340339 -0.224831551 -0.861989379
vn 0.495135218 -0.22278969 -0.83976531
vn 0.408859521 0.182029247 -0.894259095
vn -0.364663184 0.132695168 -0.921635866
vn -0.477203757 -0.878792226 -0.000924572698
vn 0.704152524 -0.708253205 0.0504641943
vn 0.704122126 -0.708286107 0.0504260585
vn -0.477245659 -0.878769875 -0.000190500476
vn 0.214412287 0.000323180342 -0.976743162
vn 0.214412391 0.000232150909 -0.976743162
vn -0.336643457 0.000507826859 -0.941632152
vn -0.336643606 0.000365348911 -0.941632152
vn 0.306402028 -0.000118565164 -0.951902151
vn -0.130114838 -8.78046339E-05 -0.991498888
vn -0.130114391 0.000354897638 -0.991498888
vn 0.306399882 0.00114281673 -0.951902151
vn 0.736650825 -0.170874685 0.654329717
vn -0.379776418 -0.182798624 0.906837702
vn -0.477780432 0.309695601 0.82207936
vn 0.60978806 0.0828720406 0.788219929
vn 0.484916806 -0.488088012 0.725689888
vn -0.740660191 -0.454298377 0.495010525
vn -0.714350581 0.565055311 0.412814468
vn 0.444597363 0.599634111 0.665411174
vn 0.716933846 -0.438757062 -0.541754663
vn 0.484916806 -0.488088012 0.725689888
vn 0.444597363 0.599634111 0.665411174
vn 0.644736171 0.631768823 -0.430329472
vn 0.772021234 -0.509614408 -0.379837453
vn 0.583834231 0.772573769 -0.249534622
vn -0.62951678 0.747017026 0.213715643
vn -0.822753966 -0.447423756 0.350553602
vn 0.907896399 -0.415944815 -0.0520949252
vn 0.759591103 0.650400758 0.000533776183
vn -0.791719079 0.609985411 -0.0331468768
vn -0.887553096 -0.459524751 -0.0329595394
vn 0.793500185 -0.575903058 0.196705759
vn -0.0475671776 -0.446213871 0.893661261
vn 0.0461439006 0.771201372 0.634916604
vn 0.654512882 0.750084758 -0.0947929695
vn 0.0461439006 0.771201372 0.634916604
vn -0.0475671776 -0.446213871 0.893661261
vn -0.871199012 -0.483621299 0.0843962282
vn -0.647440135 0.762105227 0.00412337249
vn -0.707602262 0.653095961 0.269749314
vn -0.732960165 -0.516593874 0.442606091
vn 0.753611326 -0.60954529 -0.246017471
vn 0.662178457 0.697612584 -0.273598909
vn 0.285690606 -0.63337177 0.719180882
vn -0.726517439 -0.64428091 0.238902658
vn -0.577001154 0.741494775 0.342425585
vn 0.269395828 0.758070886 0.593931317
vn 0.285690606 -0.63337177 0.719180882
vn 0.269395828 0.758070886 0.593931317
vn 0.638867557 0.73115629 -0.239287913
vn 0.65805614 -0.703199804 -0.269206792
vn -0.872334182 0.488309145 -0.0242349189
vn -0.766605675 -0.6419608 -0.0142167006
vn 0.816522837 -0.575798929 -0.0417854041
vn 0.838633299 0.544691324 -0.00234585511
vn 0.719160616 0.654460609 -0.233429432
vn -0.699211478 0.635104299 0.328246593
vn -0.858270347 -0.385152072 0.339160562
vn 0.824881196 -0.434617847 -0.361494482
vn -0.904775143 -0.415952504 0.0914631709
vn 0.882966757 -0.439637512 -0.164586037
vn 0.735843003 0.641583443 -0.216577485
vn -0.735084116 0.666159034 0.126029745
vn -0.714350581 0.565055311 0.412814468
vn -0.740660191 -0.454298377 0.495010525
vn 0.716933846 -0.438757062 -0.541754663
vn 0.644736171 0.631768823 -0.430329472
vn 0.816522837 -0.575798929 -0.0417854041
vn -0.00908894464 -0.606487393 0.795041144
vn 0.0577410646 0.511246741 0.857492149
vn 0.838633299 0.544691324 -0.00234585511
vn -0.00908894464 -0.606487393 0.795041144
vn -0.766605675 -0.6419608 -0.0142167006
vn -0.872334182 0.488309145 -0.0242349189
vn 0.0577410646 0.511246741 0.857492149
vn -0.925954103 0.360220134 0.113359809
vn -0.7539832 -0.637678504 0.157719895
vn 0.7719028 -0.596796632 -0.219088793
vn 0.850164652 0.491805434 -0.188009277
vn 0.71536231 -0.509720385 -0.477955997
vn 0.471849173 -0.527835011 0.706221342
vn 0.417096585 0.660511732 0.624303341
vn 0.598457038 0.69425261 -0.399827957
vn -0.925954103 0.360220134 0.113359809
vn 0.158617601 0.482298821 0.861526728
vn 0.202683166 -0.586690545 0.784036875
vn -0.7539832 -0.637678504 0.157719895
vn -0.639143229 0.639594078 0.427101076
vn 0.417096585 0.660511732 0.624303341
vn 0.471849173 -0.527835011 0.706221342
vn -0.690291643 -0.557493269 0.461192846
vn -0.732960165 -0.516593874 0.442606091
vn -0.707602262 0.653095961 0.269749314
vn 0.238631308 0.646191657 0.724907875
vn 0.200875416 -0.47506243 0.856717467
vn 0.238631308 0.646191657 0.724907875
vn 0.662178457 0.697612584 -0.273598909
vn 0.753611326 -0.60954529 -0.246017471
vn 0.200875416 -0.47506243 0.856717467
vn -0.809478879 -0.586216688 -0.0330751054
vn -0.813266814 0.580994487 -0.0322888009
vn -3.87011096E-05 0.589135408 0.80803436
vn -2.17042398E-05 -0.595280766 0.803517759
vn -2.17042398E-05 -0.595280766 0.803517759
vn -3.87011096E-05 0.589135408 0.80803436
vn 0.81390065 0.580071092 -0.0329138041
vn 0.808815479 -0.587168694 -0.0324095488
vn -0.923822463 -0.343377084 0.169245929
vn -0.845009327 0.507278681 0.169196472
vn 0.175165713 0.473149151 0.863392651
vn 0.752101123 -0.421910822 0.506295443
vn -0.8471753 -0.422461212 0.322211951
vn 0.774930716 -0.545582116 -0.319096327
vn 0.784874558 0.491768509 -0.377008855
vn -0.783531189 0.526729643 0.32959789
vn -0.871199012 -0.483621299 0.0843962282
vn 0.793500185 -0.575903058 0.196705759
vn 0.654512882 0.750084758 -0.0947929695
vn -0.647440135 0.762105227 0.00412337249
vn 0.175165713 0.473149151 0.863392651
vn 0.84870851 0.488540173 -0.202539384
vn 0.84915787 -0.510441661 -0.135573432
vn 0.752101123 -0.421910822 0.506295443
vn 0.873273611 -0.437866569 -0.213696331
vn 0.695992589 0.599216402 -0.3956438
vn -0.79997772 0.588425457 -0.11743582
vn -0.871790886 -0.465722978 0.151930347
vn 0.891307831 -0.425475359 0.156655833
vn -0.164543331 -0.476580441 0.863595128
vn -0.198097736 0.567234457 0.799376249
vn 0.858838439 0.505007267 -0.0858150348
vn -0.891813457 -0.40080604 -0.209817141
vn -0.762873054 0.511427224 -0.395559013
vn -0.198097736 0.567234457 0.799376249
vn -0.164543331 -0.476580441 0.863595128
vn 0.189093903 0.655148804 0.731453061
vn 0.695992589 0.599216402 -0.3956438
vn 0.873273611 -0.437866569 -0.213696331
vn 0.164099067 -0.522105098 0.836945474
vn 0.189093903 0.655148804 0.731453061
vn 0.164099067 -0.522105098 0.836945474
vn -0.871790886 -0.465722978 0.151930347
vn -0.79997772 0.588425457 -0.11743582
vn -0.923822463 -0.343377084 0.169245929
vn 0.84915787 -0.510441661 -0.135573432
vn 0.84870851 0.488540173 -0.202539384
vn -0.845009327 0.507278681 0.169196472
vn 0.850164652 0.491805434 -0.188009277
vn 0.7719028 -0.596796632 -0.219088793
vn 0.202683166 -0.586690545 0.784036875
vn 0.158617601 0.482298821 0.861526728
vn -0.471857339 -0.527834952 -0.706215858
vn -0.417101711 0.660511672 -0.624299884
vn -0.639143229 0.639594078 0.427101076
vn -0.690291643 -0.557493269 0.461192846
vn 0.997898102 -0.0609486438 0.022013301
vn -0.906452596 -0.421143413 -0.0313336365
vn 0.0878635719 -0.533717036 -0.841086328
vn 0.869247139 0.488670081 -0.074905403
vn -0.855304122 0.517479897 -0.0258737151
vn 0.229839042 -0.555753291 0.798944592
vn 0.164261967 0.419611692 0.892717183
vn 0.897162139 0.396732897 -0.194172934
vn 0.806388438 -0.502774656 -0.311376721
vn 0.806388438 -0.502774656 -0.311376721
vn 0.897162139 0.396732897 -0.194172934
vn -0.907517612 0.407062232 0.103499636
vn -0.777860165 -0.616853178 0.120107152
vn -0.90162462 0.427922904 -0.0628891587
vn -0.00197019265 0.503684223 0.863885581
vn 0.00160047435 -0.664993405 0.74684763
vn -0.733298898 -0.669182062 -0.120283425
vn 0.00160047435 -0.664993405 0.74684763
vn -0.00197019265 0.503684223 0.863885581
vn 0.91636622 0.39847222 -0.0386378467
vn 0.819823027 -0.55125469 -0.15494664
vn -0.891813457 -0.40080604 -0.209817141
vn 0.891307831 -0.425475359 0.156655833
vn 0.858838439 0.505007267 -0.0858150348
vn -0.762873054 0.511427224 -0.395559013
vn -0.110301375 0.045076102 0.992875457
vn -0.906452596 -0.421143413 -0.0313336365
vn -0.855304122 0.517479897 -0.0258737151
vn 0.00554067828 0.542689621 0.839915037
vn 0.819823027 -0.55125469 -0.15494664
vn 0.91636622 0.39847222 -0.0386378467
vn -0.90162462 0.427922904 -0.0628891587
vn -0.733298898 -0.669182062 -0.120283425
vn -0.110301375 0.045076102 0.992875457
vn 0.00554067828 0.542689621 0.839915037
vn 0.869247139 0.488670081 -0.074905403
vn 0.997898102 -0.0609486438 0.022013301
vn -0.861952126 -0.499274045 -0.0881134123
vn 0.098794505 -0.492555857 -0.864655077
vn 0.0878635719 -0.533717036 -0.841086328
vn -0.906452596 -0.421143413 -0.0313336365
vn -0.0194894411 -0.552439928 0.83332485
vn -0.861952126 -0.499274045 -0.0881134123
vn -0.906452596 -0.421143413 -0.0313336365
vn -0.110301375 0.045076102 0.992875457
vn 0.997898102 -0.0609486438 0.022013301
vn 0.840158165 -0.533597708 -0.0969931334
vn -0.0194894411 -0.552439928 0.83332485
vn -0.110301375 0.045076102 0.992875457
vn 0.840158165 -0.533597708 -0.0969931334
vn 0.997898102 -0.0609486438 0.022013301
vn 0.0878635719 -0.533717036 -0.841086328
vn 0.098794505 -0.492555857 -0.864655077
vn 0.109928027 -0.428395092 0.896879852
vn -0.904775143 -0.415952504 0.0914631709
vn -0.735084116 0.666159034 0.126029745
vn 0.148348689 0.710775733 0.687597632
vn 0.109928027 -0.428395092 0.896879852
vn 0.148348689 0.710775733 0.687597632
vn 0.735843003 0.641583443 -0.216577485
vn 0.882966757 -0.439637512 -0.164586037
vn -0.8471753 -0.422461212 0.322211951
vn -0.783531189 0.526729643 0.32959789
vn 0.332691461 0.514381409 0.790397525
vn 0.842379689 -0.399306118 0.36187166
vn -0.822753966 -0.447423756 0.350553602
vn -0.62951678 0.747017026 0.213715643
vn 0.268551618 0.708666623 0.652435184
vn 0.30990985 -0.499255598 0.809135199
vn 0.772021234 -0.509614408 -0.379837453
vn 0.30990985 -0.499255598 0.809135199
vn 0.268551618 0.708666623 0.652435184
vn 0.583834231 0.772573769 -0.249534622
vn -0.63111335 0.690029681 0.354337335
vn -0.641530633 -0.635798633 0.429183632
vn 0.613314748 -0.63094914 -0.475129575
vn 0.567997754 0.729970753 -0.380159318
vn 0.613314748 -0.63094914 -0.475129575
vn 0.418648392 -0.657779515 0.626146615
vn 0.395688653 0.701755702 0.592426777
vn 0.567997754 0.729970753 -0.380159318
vn 0.418648392 -0.657779515 0.626146615
vn -0.641530633 -0.635798633 0.429183632
vn -0.63111335 0.690029681 0.354337335
vn 0.395688653 0.701755702 0.592426777
vn -0.887553096 -0.459524751 -0.0329595394
vn -0.791719079 0.609985411 -0.0331468768
vn -0.000201880888 0.619759977 0.78479141
vn 0.000186356192 -0.481488645 0.876452386
vn 0.907896399 -0.415944815 -0.0520949252
vn 0.000186356192 -0.481488645 0.876452386
vn -0.000201880888 0.619759977 0.78479141
vn 0.759591103 0.650400758 0.000533776183
vn -0.699211478 0.635104299 0.328246593
vn 0.167706937 0.702373743 0.691769779
vn 0.374384552 -0.366662025 0.851701379
vn -0.858270347 -0.385152072 0.339160562
vn 0.808815479 -0.587168694 -0.0324095488
vn 0.81390065 0.580071092 -0.0329138041
vn -0.813266814 0.580994487 -0.0322888009
vn -0.809478879 -0.586216688 -0.0330751054
vn 0.638867557 0.73115629 -0.239287913
vn -0.577001154 0.741494775 0.342425585
vn -0.726517439 -0.64428091 0.238902658
vn 0.65805614 -0.703199804 -0.269206792
vn -0.835501313 0.532647669 0.134996042
vn 0.0825222656 0.556173801 0.826958776
vn 0.196466506 -0.360054463 0.912009716
vn -0.910816967 -0.376293212 0.16975221
vn 0.196466506 -0.360054463 0.912009716
vn 0.0825222656 0.556173801 0.826958776
vn 0.83536607 0.521466136 -0.173886955
vn 0.892781854 -0.4030388 -0.201246753
vn 0.719160616 0.654460609 -0.233429432
vn 0.824881196 -0.434617847 -0.361494482
vn 0.374384552 -0.366662025 0.851701379
vn 0.167706937 0.702373743 0.691769779
vn -0.769021988 0.604430079 -0.208013371
vn -0.762899697 -0.628432095 -0.151845634
vn 0.817752659 -0.565266848 0.108415492
vn 0.724904478 0.673570454 0.144278497
vn -0.306671411 -0.598248601 0.740304887
vn -0.303173482 0.610145092 0.731989563
vn 0.774200261 0.575743198 0.262932688
vn 0.717357159 -0.630083263 0.297310919
vn 0.814182103 -0.546825707 -0.195164442
vn 0.788125813 0.58516562 -0.190889612
vn -0.820980012 0.56041342 0.109218307
vn -0.795499086 -0.584933996 0.158219412
vn -0.769021988 0.604430079 -0.208013371
vn -0.149701625 0.640271187 0.753420353
vn -0.156002134 -0.597615004 0.786460221
vn -0.762899697 -0.628432095 -0.151845634
vn -0.149701625 0.640271187 0.753420353
vn 0.724904478 0.673570454 0.144278497
vn 0.817752659 -0.565266848 0.108415492
vn -0.156002134 -0.597615004 0.786460221
vn -0.820980012 0.56041342 0.109218307
vn 0.152108341 0.626017928 0.764829695
vn 0.164656326 -0.536127269 0.827922642
vn -0.795499086 -0.584933996 0.158219412
vn 0.164656326 -0.536127269 0.827922642
vn 0.152108341 0.626017928 0.764829695
vn 0.788125813 0.58516562 -0.190889612
vn 0.814182103 -0.546825707 -0.195164442
vn -0.740896761 -0.564205706 -0.364340335
vn 0.717357159 -0.630083263 0.297310919
vn 0.774200261 0.575743198 0.262932688
vn -0.708243906 0.642194688 -0.293217629
vn -0.0171221141 0.503551185 0.863795638
vn -0.0349177346 -0.6089046 0.792474568
vn -0.0348052382 -0.608911037 0.792474568
vn -0.725385904 0.591146469 0.352648735
vn 0.753405333 -0.650204122 0.0980562493
vn -0.801650286 -0.597793102 -0.00040239701
vn -0.801594615 -0.597867966 0.000155856207
vn 0.753465295 -0.650132537 0.0980698541
vn 0.715699434 0.693367541 0.0837596655
vn 0.715493202 0.693368256 0.0854986235
vn -0.769764006 0.638328135 0.000781225739
vn -0.769876182 0.638181448 0.00386556634
vn 0.463135421 0.180269733 0.867760539
vn 0.575331569 -0.260151118 0.775444984
vn -0.663627148 -0.19108361 0.723246872
vn -0.591926217 0.140954912 0.793571055
vn 0.487710208 -0.871979535 0.0423137099
vn -0.657613158 -0.753162146 -0.0170785673
vn -0.651497185 -0.758501649 -0.015053153
vn 0.49278295 -0.869080722 0.0431690849
vn 0.842379689 -0.399306118 0.36187166
vn 0.332691461 0.514381409 0.790397525
vn 0.784874558 0.491768509 -0.377008855
vn 0.774930716 -0.545582116 -0.319096327
vn 0.229839042 -0.555753291 0.798944592
vn -0.777860165 -0.616853178 0.120107152
vn -0.907517612 0.407062232 0.103499636
vn 0.164261967 0.419611692 0.892717183
vn -0.417101711 0.660511672 -0.624299884
vn -0.471857339 -0.527834952 -0.706215858
vn 0.71536231 -0.509720385 -0.477955997
vn 0.598457038 0.69425261 -0.399827957
vn 0.695002079 0.717964292 0.0387200229
vn 0.695034146 0.717932105 0.038742315
vn -0.475729734 0.879591525 -5.23343006E-05
vn -0.475677371 0.87961483 0.00294452673
vn 0.429034472 0.126789913 0.894345343
vn 0.254215091 -0.214969069 0.942954361
vn -0.45400691 -0.200534239 0.868138134
vn -0.359648317 0.127657473 0.924314201
vn -0.325539738 0.0857546702 0.941631615
vn 0.245102838 0.148748472 0.958018005
vn 0.460741073 -0.154646248 0.873957813
vn -0.402439862 -0.187695473 0.895998061
vn -0.740896761 -0.564205706 -0.364340335
vn -0.708243906 0.642194688 -0.293217629
vn -0.303173482 0.610145092 0.731989563
vn -0.306671411 -0.598248601 0.740304887
vn -0.617039144 0.568940818 -0.543662608
vn -0.369088501 -0.158922836 -0.9157058
vn 0.597162306 0.0158261023 -0.801964283
vn 0.558557808 -0.0315343849 -0.828866005
vn 0.86775738 -0.496136844 0.0290766899
vn -0.49380368 -0.869573236 -0.000428385567
vn -0.49383679 -0.869549453 0.00298729679
vn 0.867782533 -0.496095687 0.0290264878
vn 0.601514995 0.0250383429 -0.798469067
vn -0.500113785 0.148967236 -0.853050351
vn -0.658802152 -0.273659855 -0.700778067
vn 0.74490571 -0.16979304 -0.6452021
vn -0.494807661 0.120521262 0.860604465
vn 0.310820669 0.186906576 0.931910038
vn 0.417930424 -0.264797866 0.869031787
vn -0.660207331 -0.271063983 0.700464487
vn 0.356687069 0.0239245854 0.933917522
vn 0.654563189 -0.254569948 0.711857498
vn -0.421581477 -0.180003747 0.88874507
vn -0.463589162 0.271360993 0.843473911
vn 0.7650038 -0.64402473 -0.00117193407
vn 0.765057325 -0.643951476 0.0037276221
vn -0.645453155 -0.763799191 -0.00099671341
vn -0.64542675 -0.763799131 0.0059347623
vn 0.542498112 -0.840054452 0.00211874093
vn -0.57862395 -0.815594435 -7.42247357E-05
vn -0.578578651 -0.815594316 0.00724509545
vn 0.542582691 -0.840002358 -6.8961097E-05
vn 0.83536607 0.521466136 -0.173886955
vn -0.835501313 0.532647669 0.134996042
vn -0.910816967 -0.376293212 0.16975221
vn 0.892781854 -0.4030388 -0.201246753
vn 0.812330782 -0.568447888 0.130329013
vn -0.524348974 0.839962602 -0.139718115
vn -0.838952482 -0.506719351 -0.198479518
vn 0.532865942 0.843377113 0.0690576583
vn -0.164194703 -0.539403021 0.825884104
vn -0.102685265 0.85016346 0.516408622
vn -0.838952482 -0.506719351 -0.198479518
vn -0.524348974 0.839962602 -0.139718115
vn -0.638898551 2.43446066E-05 -0.769290984
vn -0.148300707 0.000589827134 -0.988942146
vn -0.638898551 3.19108367E-05 -0.769291043
vn -0.146053255 6.35534525E-06 -0.989276767
vn -1 0 -1.20203777E-05
vn -1 0 1.15642461E-05
vn -0.147512034 -6.33299396E-06 0.989060283
vn -0.148301139 0.000519745459 0.988942027
vn -0.638935745 3.20352192E-05 0.769260049
vn -0.638898909 2.44453568E-05 0.769290686
vn -0.592823327 0.805332482 -5.9948994E-05
vn -0.000860728382 0.999999404 0.000749006926
vn -0.593398869 0.804852188 -0.00953199808
vn 4.35039365E-05 1 9.83842256E-06
vn -1.73871044E-07 1 0
vn -0.000803175382 0.999998212 -0.00169859082
vn -0.593399882 0.804851949 0.00948316883
vn -0.596569061 -2.47899316E-05 0.80256176
vn -0.597548306 -0.253322631 0.760765135
vn -0.596569061 2.5562942E-05 0.802561641
vn -0.146374479 1.25840297E-05 0.989229262
vn -1 0 1.23959935E-05
vn -0.839035213 -0.538729727 -0.076092869
vn -0.144872725 -0.00049741898 -0.989450157
vn -0.596974552 -0.256440252 -0.760170877
vn -0.596568048 -7.54818248E-05 -0.802562416
vn -0.596568704 -2.53777525E-05 -0.802561939
vn -0.530228436 -0.847854853 1.76604372E-05
vn -0.596974552 -0.256440252 -0.760170877
vn -0.550928354 -0.834502935 0.00909403618
vn -0.839035213 -0.538729727 -0.076092869
vn -0.597548306 -0.253322631 0.760765135
vn -0.550931036 -0.834501088 -0.009105701
vn -0.561470389 0.827496767 0.000151534332
vn -0.0147182485 0.999891639 -1.4051795E-05
vn -0.672032177 0.740522087 -1.55675243E-05
vn -0.561460435 0.827503562 -0.000142559409
vn 0.032628864 0.999433219 0.0082755452
vn 0.0334904678 0.997361124 0.0644143671
vn 2.58000473E-05 1 0
vn 3.30725707E-05 1 0
vn 0.0315384455 0.999471247 -0.00791146606
vn 0.0347931646 0.997286081 -0.0648846477
vn -0.0217653364 -0.999763072 1.42455092E-05
vn -0.602780879 -0.797905028 0.00163234759
vn -0.720006406 -0.693967402 1.80001352E-05
vn -0.602783144 -0.797903359 -0.00164403638
vn 0.0349267013 -0.999350846 -0.00883726869
vn 0.0360355191 -0.997097015 -0.0670749918
vn 2.4782733E-07 -1 0
vn 2.39615275E-07 -1 0
vn 0.033805266 -0.999392867 0.00842746254
vn 0.0375002138 -0.997008622 0.0675839707
vt 0.867703021 0.839166164
vt 0.867617428 0.831254005
vt 0.809817493 0.830506742
vt 0.37748456 0.78951019
vt 0.391482651 0.78951019
vt 0.391482651 0.734619141
vt 0.772351623 0.474701136
vt 0.746979594 0.474700958
vt 0.74698025 0.631069124
vt 0.240834773 0.734623909
vt 0.240834773 0.790511847
vt 0.255044401 0.734623909
vt 0.802098989 0.874711514
vt 0.746980786 0.861445725
vt 0.746980786 0.874711514
vt 0.772351623 0.474701136
vt 0.772351563 0.631069183
vt 0.785131633 0.474701136
vt 0.867483497 0.823533177
vt 0.867607534 0.815906644
vt 0.809812903 0.816824496
vt 0.801995873 0.784677804
vt 0.794054687 0.784781277
vt 0.793560982 0.842968106
vt 0.809961915 0.802238822
vt 0.868040919 0.809163809
vt 0.868128717 0.80128181
vt 0.868095338 0.795594275
vt 0.86796844 0.787998915
vt 0.80991286 0.787272692
vt 0.84225291 0.103468224
vt 0.836026728 0.161253259
vt 0.843215227 0.161379054
vt 0.779588103 0.842976868
vt 0.786636949 0.784927309
vt 0.778981924 0.784777343
vt 0.821088135 0.161442772
vt 0.828539252 0.161355987
vt 0.829344988 0.103468314
vt 0.772178531 0.784520626
vt 0.764263034 0.784415007
vt 0.76496464 0.842873335
vt 0.75820446 0.784435809
vt 0.750579119 0.784588099
vt 0.750167191 0.842917383
vt 0.811120868 0.103936605
vt 0.802990079 0.104049444
vt 0.800948441 0.161647439
vt 0.849574089 0.161695018
vt 0.857000649 0.161783651
vt 0.85600239 0.103630289
vt 0.862165213 0.161772251
vt 0.869327724 0.16164428
vt 0.87011075 0.103586711
vt 0.786866367 0.161806598
vt 0.795167327 0.105144754
vt 0.787316561 0.104985721
vt 0.473165005 0.0641789064
vt 0.473277092 0.056717895
vt 0.41456601 0.0566786379
vt 0.472299665 0.0911584944
vt 0.472189695 0.0836632252
vt 0.414997816 0.0845143199
vt 0.778895199 0.104389593
vt 0.770777822 0.104276255
vt 0.773029685 0.161725104
vt 0.764763236 0.103615209
vt 0.756970286 0.103781208
vt 0.757649243 0.16151689
vt 0.472810119 0.0523360036
vt 0.472655892 0.045086056
vt 0.414339513 0.0426761135
vt 0.472753376 0.0771795511
vt 0.472912312 0.0699146315
vt 0.415264517 0.0717016682
vt 0.418716252 0.661810994
vt 0.418627828 0.654310703
vt 0.358699948 0.653567791
vt 0.41902712 0.633260369
vt 0.41911757 0.625789642
vt 0.358853608 0.626728892
vt 0.419092983 0.620458007
vt 0.418962419 0.613241315
vt 0.358805627 0.612518132
vt 0.418631732 0.639660835
vt 0.358697057 0.640565157
vt 0.418503493 0.64690876
vt 0.785131633 0.474701136
vt 0.785131335 0.631069183
vt 0.798030078 0.474701136
vt 0.746980786 0.847716868
vt 0.746980786 0.861445725
vt 0.802098989 0.861445308
vt 0.391482651 0.78951019
vt 0.405622661 0.78951019
vt 0.405622661 0.734619141
vt 0.746980786 0.901789069
vt 0.802099228 0.901788831
vt 0.746980786 0.888480484
vt 0.345134765 0.748339236
vt 0.345134765 0.734619915
vt 0.288045436 0.734619915
vt 0.746980786 0.874711514
vt 0.746980786 0.888480484
vt 0.802098989 0.888480484
vt 0.465704411 0.788738191
vt 0.465704411 0.775122762
vt 0.410589308 0.775122821
vt 0.410589308 0.761683643
vt 0.465704411 0.775122762
vt 0.465704411 0.761683762
vt 0.465704411 0.734626412
vt 0.410589308 0.734626472
vt 0.465704411 0.748067677
vt 0.345135182 0.789097726
vt 0.345135182 0.775584042
vt 0.288045555 0.775584042
vt 0.575051248 0.716762543
vt 0.560946286 0.716762543
vt 0.560946286 0.770854473
vt 0.575051248 0.716762543
vt 0.575051248 0.770854473
vt 0.588106692 0.770854473
vt 0.588106692 0.716762543
vt 0.575051248 0.716762543
vt 0.614664555 0.716762543
vt 0.601458371 0.770854473
vt 0.614664555 0.770854473
vt 0.465704411 0.761683762
vt 0.465704411 0.748067677
vt 0.410589308 0.748067737
vt 0.345135182 0.775584042
vt 0.345134765 0.761864781
vt 0.288045555 0.761864603
vt 0.588106692 0.770854473
vt 0.601458371 0.770854473
vt 0.601458371 0.716762543
vt 0.283090055 0.734623909
vt 0.268889129 0.734623909
vt 0.268889129 0.790511847
vt 0.268889129 0.734623909
vt 0.255044401 0.734623909
vt 0.255044401 0.790511847
vt 0.22698015 0.790511847
vt 0.240834773 0.734623909
vt 0.226980269 0.734623909
vt 0.345134765 0.761864781
vt 0.345134765 0.748339236
vt 0.288045436 0.748339236
vt 0.833864748 0.597723007
vt 0.833864868 0.626431346
vt 0.844154716 0.597723007
vt 0.823574841 0.597723007
vt 0.823574841 0.626431346
vt 0.813284874 0.597723007
vt 0.813284695 0.626431346
vt 0.802994609 0.597723007
vt 0.802994609 0.626431346
vt 0.478121579 0.0710523129
vt 0.50683254 0.0710523278
vt 0.478121579 0.0607612133
vt 0.478121579 0.0607612133
vt 0.50683254 0.0607611686
vt 0.478121638 0.0504702367
vt 0.478121638 0.0504702367
vt 0.50683254 0.0504702665
vt 0.478121638 0.0401793495
vt 0.478121579 0.0813427418
vt 0.5068326 0.0813428164
vt 0.478121579 0.0710523129
vt 0.350096583 0.78951019
vt 0.364057183 0.734619021
vt 0.350096583 0.734619021
vt 0.364057183 0.78951019
vt 0.364057183 0.734619021
vt 0.37748456 0.78951019
vt 0.364057183 0.734619021
vt 0.37748456 0.734619141
vt 0.62099117 0.931091309
vt 0.647526383 0.931091309
vt 0.647527039 0.474692255
vt 0.620991826 0.474692255
vt 0.592732072 0.859878063
vt 0.595792174 0.783510685
vt 0.573253095 0.776411533
vt 0.572157204 0.862994134
vt 0.424236178 0.633043349
vt 0.427510649 0.643962324
vt 0.50841552 0.644923031
vt 0.510929167 0.635163724
vt 0.430196017 0.611499608
vt 0.510866165 0.635150075
vt 0.50798732 0.613134027
vt 0.926569521 0.00247921539
vt 0.926567554 0.892611146
vt 0.936101913 0.892611146
vt 0.936103702 0.00247921492
vt 0.00247580116 0.964453518
vt 0.886074066 0.964455366
vt 0.886074066 0.954865217
vt 0.00247580139 0.954864442
vt 0.424169064 0.651292443
vt 0.424169064 0.659491837
vt 0.450548917 0.659491479
vt 0.450548917 0.651292443
vt 0.698636591 0.0666917488
vt 0.726060808 0.0666917488
vt 0.726060808 0.0580317341
vt 0.698636591 0.0580317304
vt 0.00248422008 0.0333127677
vt 0.873453021 0.0327107571
vt 0.873443902 0.00634256285
vt 0.0024788545 0.00589305954
vt 0.683878064 0.928667843
vt 0.710312128 0.928668261
vt 0.710312366 0.474707812
vt 0.683878481 0.474707752
vt 0.00247712689 0.948571086
vt 0.885730505 0.948573172
vt 0.885730505 0.938987851
vt 0.00247712736 0.938986123
vt 0.00247700512 0.918333471
vt 0.031396091 0.918333828
vt 0.0313972905 0.0401738659
vt 0.00247784704 0.0401736721
vt 0.907113552 0.889029443
vt 0.907114387 0.00248076068
vt 0.878415942 0.00248068804
vt 0.878415167 0.889029384
vt 0.912077129 0.00248456001
vt 0.91207546 0.892633855
vt 0.921609759 0.892633855
vt 0.921611905 0.00248456094
vt 0.555988729 0.924598813
vt 0.555989742 0.0381951295
vt 0.527295709 0.0381951332
vt 0.527295172 0.924598813
vt 0.478129119 0.0965626985
vt 0.504419804 0.0965626985
vt 0.504419804 0.0877992883
vt 0.478129119 0.0877992883
vt 0.866069078 0.169144779
vt 0.85792166 0.169144779
vt 0.857921541 0.195045799
vt 0.866069078 0.195045799
vt 0.870984375 0.988535166
vt 0.441056579 0.988524377
vt 0.441056609 0.993908525
vt 0.871020794 0.993920088
vt 0.742021739 0.474712253
vt 0.715271294 0.474712253
vt 0.715271294 0.923954844
vt 0.74202168 0.923954844
vt 0.492012709 0.671131074
vt 0.03635763 0.671129942
vt 0.0363576375 0.697728097
vt 0.492012739 0.697728634
vt 0.00248456001 0.978151858
vt 0.429684311 0.978152096
vt 0.429684341 0.972711086
vt 0.00248456001 0.972710848
vt 0.412317425 0.819936156
vt 0.0983109549 0.819945335
vt 0.0983116925 0.838308334
vt 0.412317902 0.838298857
vt 0.981466353 0.845939159
vt 0.987115681 0.845939219
vt 0.987115622 0.435021222
vt 0.981466472 0.435021222
vt 0.972575247 0.854624391
vt 0.972126603 0.448905319
vt 0.966377556 0.448905319
vt 0.966825962 0.854624391
vt 0.986167908 0.429401606
vt 0.985989571 0.00248091156
vt 0.980544686 0.00248091179
vt 0.980723619 0.429401606
vt 0.258787364 0.597248197
vt 0.266192049 0.597248375
vt 0.266192436 0.300112128
vt 0.258787453 0.300112039
vt 0.244949058 0.597248256
vt 0.252353787 0.597248316
vt 0.252353758 0.300112039
vt 0.244949043 0.300112009
vt 0.560995162 0.257486105
vt 0.865479648 0.257479668
vt 0.865471244 0.235890344
vt 0.560945094 0.23570466
vt 0.872317851 0.324088961
vt 0.560967088 0.324087709
vt 0.560958326 0.344773501
vt 0.872310281 0.344573945
vt 0.561328292 0.199755609
vt 0.560493886 0.207412586
vt 0.852981746 0.210301831
vt 0.85316813 0.202629536
vt 0.852955818 0.214693338
vt 0.5604406 0.217112884
vt 0.561335921 0.225223631
vt 0.853129625 0.222817987
vt 0.22498329 0.157446668
vt 0.52198267 0.153749838
vt 0.521320999 0.135246634
vt 0.225144848 0.133952498
vt 0.321332633 0.535356939
vt 0.329046488 0.535358548
vt 0.328628212 0.300152153
vt 0.320913315 0.299838185
vt 0.313143909 0.535621822
vt 0.316236317 0.299919665
vt 0.308423936 0.300441682
vt 0.305346906 0.535621345
vt 0.560940146 0.46483022
vt 0.801276684 0.464558721
vt 0.801285386 0.443934679
vt 0.560929894 0.443506122
vt 0.843927264 0.353943944
vt 0.820454121 0.353648901
vt 0.824741423 0.592298031
vt 0.842897534 0.592317045
vt 0.206712946 0.300169617
vt 0.184959307 0.300144166
vt 0.185568124 0.607989788
vt 0.205557853 0.607993662
vt 0.217273653 0.300112009
vt 0.217273429 0.597248316
vt 0.238515541 0.597248197
vt 0.238515615 0.300112069
vt 0.801237047 0.437583387
vt 0.801237047 0.430195123
vt 0.560909271 0.429758012
vt 0.56093353 0.437146574
vt 0.80124563 0.423479557
vt 0.801245749 0.416217804
vt 0.560962021 0.416485786
vt 0.560894012 0.423747838
vt 0.409945309 0.0436197706
vt 0.0968798324 0.0432649516
vt 0.09691149 0.0644218177
vt 0.409959465 0.0640637279
vt 0.45989418 0.26230517
vt 0.45989421 0.254526496
vt 0.171327859 0.254526347
vt 0.171327859 0.26230529
vt 0.40992555 0.0917386711
vt 0.40992558 0.0844992027
vt 0.0968706384 0.0842433721
vt 0.0967950523 0.0914824083
vt 0.171327785 0.239988536
vt 0.171327785 0.247767553
vt 0.45989415 0.247767687
vt 0.45989418 0.239988461
vt 0.520854056 0.104212485
vt 0.224840328 0.105604872
vt 0.224847287 0.113116473
vt 0.521348357 0.111719184
vt 0.224867344 0.117198817
vt 0.22486034 0.125361517
vt 0.520870686 0.129261225
vt 0.522194266 0.121136516
vt 0.516055882 0.478080451
vt 0.516056597 0.236585632
vt 0.508785129 0.236585632
vt 0.508784652 0.478080481
vt 0.502467036 0.478080422
vt 0.502467394 0.236585632
vt 0.495196104 0.236585632
vt 0.495195717 0.478080481
vt 0.511270106 0.607902944
vt 0.510602117 0.48465535
vt 0.502971053 0.484655201
vt 0.50379312 0.621770382
vt 0.0394127257 0.857661247
vt 0.0606099516 0.8714481
vt 0.0622011721 0.734577894
vt 0.0399494581 0.734734774
vt 0.560391545 0.173682377
vt 0.560377538 0.192910478
vt 0.852753937 0.195555493
vt 0.852786005 0.170934826
vt 0.496518314 0.484565377
vt 0.488907814 0.484565437
vt 0.489563912 0.621686041
vt 0.497182876 0.621741891
vt 0.731595039 0.0668297932
vt 0.85536772 0.0649119467
vt 0.855008781 0.0448871516
vt 0.731471419 0.0420289375
vt 0.23624213 0.758132219
vt 0.236168042 0.750566065
vt 0.0990947485 0.753005266
vt 0.0983918309 0.7605955
vt 0.236201912 0.740137815
vt 0.0982179865 0.736423492
vt 0.0992637128 0.744043589
vt 0.236091286 0.747704446
vt 0.854643106 0.0790505558
vt 0.855830789 0.0712330043
vt 0.731193662 0.0741039068
vt 0.731193721 0.0818666741
vt 0.854821026 0.0879181474
vt 0.731181026 0.0860428959
vt 0.731181026 0.0938059315
vt 0.855619431 0.0957060829
vt 0.460464954 0.607911646
vt 0.481888384 0.621702552
vt 0.482842416 0.484582663
vt 0.460906208 0.484674662
vt 0.409927666 0.0703602731
vt 0.0968082175 0.0709563345
vt 0.0968554839 0.0783506781
vt 0.409921467 0.0777546316
vt 0.45989427 0.283601642
vt 0.171327651 0.283602238
vt 0.171327651 0.29138121
vt 0.45989424 0.29138118
vt 0.276453316 0.642722845
vt 0.27688235 0.665698349
vt 0.277138352 0.659009457
vt 0.0364663899 0.643046618
vt 0.0363136902 0.658074498
vt 0.0765269771 0.354787797
vt 0.0733069777 0.0403122827
vt 0.065779686 0.0402519926
vt 0.0690091103 0.355187446
vt 0.0616870858 0.354486138
vt 0.0596821606 0.040064875
vt 0.0413349122 0.0401661359
vt 0.0384777337 0.354593277
vt 0.149205908 0.290387273
vt 0.142052293 0.290393293
vt 0.138079226 0.604700565
vt 0.145219415 0.605210781
vt 0.13571085 0.604698598
vt 0.131815612 0.290400177
vt 0.124665082 0.290394157
vt 0.128573731 0.605210185
vt 0.235456362 0.789367437
vt 0.235614613 0.763983786
vt 0.0989571214 0.767688453
vt 0.0986360535 0.786885798
vt 0.27668798 0.622644126
vt 0.276810139 0.615731716
vt 0.0370861851 0.615277529
vt 0.0371604189 0.622192979
vt 0.122344956 0.604405701
vt 0.118359268 0.290126204
vt 0.101908803 0.290127665
vt 0.0980515182 0.604392171
vt 0.276906997 0.625879645
vt 0.0363847613 0.633182168
vt 0.0364385322 0.639882743
vt 0.277157068 0.632515728
vt 0.352734506 0.661238551
vt 0.353170961 0.654449403
vt 0.276869923 0.658923388
vt 0.276619971 0.665619373
vt 0.353175521 0.625449479
vt 0.353518426 0.618552268
vt 0.276979864 0.615763962
vt 0.276856691 0.622663856
vt 0.277291417 0.632484317
vt 0.354204834 0.636937261
vt 0.35376966 0.630222321
vt 0.277040392 0.625833631
vt 0.354133338 0.639812827
vt 0.277146071 0.642529368
vt 0.27727595 0.649512768
vt 0.354492158 0.64678669
vt 0.166061819 0.300072432
vt 0.158768907 0.300028235
vt 0.158005729 0.607900381
vt 0.165299043 0.607886732
vt 0.171531528 0.300118953
vt 0.172363266 0.607922494
vt 0.179473728 0.607922494
vt 0.1786412 0.299987644
vt 0.0906533524 0.857610404
vt 0.0893701315 0.734659791
vt 0.0817507207 0.734659791
vt 0.0833268017 0.871539891
vt 0.560926557 0.285028875
vt 0.865466416 0.285028279
vt 0.865466356 0.277647585
vt 0.560926616 0.277648002
vt 0.560975909 0.263966978
vt 0.560886502 0.271315992
vt 0.865471959 0.271240145
vt 0.86547184 0.263890922
vt 0.178530797 0.227178946
vt 0.486228675 0.22714971
vt 0.486237615 0.205872446
vt 0.178540066 0.206021145
vt 0.486243546 0.199534908
vt 0.486243546 0.192143768
vt 0.178548485 0.192112908
vt 0.178548515 0.199504599
vt 0.486234605 0.185783431
vt 0.486234635 0.178392664
vt 0.178538606 0.178239092
vt 0.17853862 0.185629964
vt 0.872302115 0.297263205
vt 0.560949922 0.297267139
vt 0.560949922 0.304442555
vt 0.872302175 0.304438621
vt 0.872310162 0.317955017
vt 0.872310221 0.310777396
vt 0.560958087 0.31057626
vt 0.560958147 0.317753911
vt 0.869849622 0.353686273
vt 0.862623274 0.353524029
vt 0.863621712 0.591959
vt 0.87084657 0.591956496
vt 0.488878012 0.478080451
vt 0.48887834 0.236585662
vt 0.468018144 0.236585662
vt 0.468018264 0.478080422
vt 0.300079674 0.300249398
vt 0.276524872 0.299967229
vt 0.279108375 0.535705924
vt 0.299658835 0.53581351
vt 0.612510324 0.474703759
vt 0.605068088 0.47464636
vt 0.605793953 0.709870458
vt 0.613236427 0.709870517
vt 0.598497272 0.709897697
vt 0.599292576 0.474627882
vt 0.59200424 0.47477594
vt 0.591210902 0.709897637
vt 0.851310015 0.354091197
vt 0.847466648 0.592226803
vt 0.854620099 0.592223585
vt 0.858482063 0.353521079
vt 0.340154022 0.300110668
vt 0.340379834 0.548216045
vt 0.360591412 0.54823339
vt 0.360431731 0.300133556
vt 0.412713349 0.300083995
vt 0.4127132 0.52855438
vt 0.420380652 0.52855438
vt 0.42038098 0.300084025
vt 0.0605398268 0.598693609
vt 0.0605399944 0.361586541
vt 0.0395429134 0.361586481
vt 0.0395427905 0.598693669
vt 0.387092501 0.300106466
vt 0.3800188 0.300106436
vt 0.379862815 0.548212409
vt 0.386936575 0.548212469
vt 0.373910248 0.300128818
vt 0.366839528 0.300128818
vt 0.366606623 0.548230171
vt 0.373677075 0.548230171
vt 0.0878958181 0.361586571
vt 0.0805770606 0.361586571
vt 0.0805769563 0.598693609
vt 0.0878958479 0.598693609
vt 0.0742178783 0.598693609
vt 0.0742180347 0.361586571
vt 0.0668990612 0.361586571
vt 0.0668990165 0.598693609
vt 0.449040145 0.300083995
vt 0.427042931 0.300083995
vt 0.427042574 0.52855432
vt 0.449040294 0.52855432
vt 0.562289774 0.779771566
vt 0.561484933 0.861407459
vt 0.572239935 0.863115609
vt 0.573253095 0.776411533
vt 0.959350884 0.64044416
vt 0.959351003 0.323907912
vt 0.941066742 0.323907882
vt 0.941066563 0.640443802
vt 0.678916216 0.474705875
vt 0.652487636 0.474705905
vt 0.652486801 0.932178438
vt 0.678915679 0.932178438
vt 0.971747041 0.00248478632
vt 0.966380715 0.00247585145
vt 0.966380537 0.4430857
vt 0.971747041 0.44308573
vt 0.0983022675 0.861998856
vt 0.41214624 0.861997366
vt 0.412146389 0.843711615
vt 0.0983023196 0.843717694
vt 0.0761974081 0.871362925
vt 0.0755150318 0.734537363
vt 0.0678902119 0.734537423
vt 0.0685383379 0.87135613
vt 0.0802982748 0.354774326
vt 0.0876259655 0.355142385
vt 0.0894850791 0.0403456911
vt 0.0821535587 0.0402765684
vt 0.171327755 0.276843339
vt 0.45989418 0.276842624
vt 0.45989418 0.269063711
vt 0.171327829 0.269064099
vt 0.0363681167 0.70287466
vt 0.0363680385 0.729421496
vt 0.490313441 0.729421914
vt 0.49031353 0.702875733
vt 0.002484967 0.988670111
vt 0.00247247634 0.994024515
vt 0.436098725 0.99387002
vt 0.436098725 0.988516212
vt 0.0363621674 0.906718612
vt 0.464867562 0.906719685
vt 0.464801013 0.901280522
vt 0.0363621674 0.90127933
vt 0.398383796 0.300083995
vt 0.398383379 0.52855432
vt 0.406051159 0.52855438
vt 0.406051397 0.300083995
vt 0.0363585949 0.917061031
vt 0.0363585949 0.922505379
vt 0.463297129 0.922684193
vt 0.463297099 0.917239666
vt 0.0983074158 0.814490736
vt 0.414233327 0.814491272
vt 0.414233267 0.796135962
vt 0.098307386 0.796135366
vt 0.474273503 0.869513273
vt 0.0363611281 0.869512916
vt 0.0363611281 0.874877274
vt 0.474282384 0.874877512
vt 0.434641182 0.978439093
vt 0.8456043 0.978440404
vt 0.8456043 0.97279036
vt 0.434641182 0.972789228
vt 0.0363576375 0.885310888
vt 0.0363576375 0.891057611
vt 0.441910326 0.891506553
vt 0.441910326 0.885759771
vt 0.941066325 0.31765756
vt 0.959464431 0.31765756
vt 0.95946461 0.00246300478
vt 0.941066742 0.00246300478
vt 0.941060245 0.647326052
vt 0.941059768 0.958071649
vt 0.959563375 0.958071649
vt 0.959563851 0.647326231
vt 0.585579872 0.474736482
vt 0.563551724 0.474700004
vt 0.56465286 0.709951103
vt 0.584995151 0.709950984
vt 0.8145293 0.380333275
vt 0.560955107 0.407297432
vt 0.814529359 0.407297641
vt 0.560955048 0.380332887
vt 0.814529359 0.366974622
vt 0.560954988 0.366974473
vt 0.814529359 0.353671789
vt 0.560954988 0.35367164
vt 0.499010295 0.812000453
vt 0.516198099 0.825074017
vt 0.518844187 0.812000453
vt 0.501656234 0.825074017
vt 0.516198099 0.836421967
vt 0.501656234 0.836421907
vt 0.516198158 0.847770214
vt 0.501656175 0.847770214
vt 0.518844247 0.860843539
vt 0.499010295 0.86084336
vt 0.470661104 0.746108592
vt 0.483626783 0.738938153
vt 0.470831752 0.735030293
vt 0.483878434 0.746211052
vt 0.490843058 0.746264756
vt 0.483514547 0.753479481
vt 0.470660508 0.757189274
vt 0.498432428 0.756450951
vt 0.515615463 0.769849896
vt 0.518260598 0.756450951
vt 0.501077712 0.769849896
vt 0.50107789 0.781194925
vt 0.515615463 0.781194985
vt 0.501077652 0.792539537
vt 0.515615463 0.792539537
vt 0.498432428 0.80593884
vt 0.518260539 0.80593884
vt 0.849112988 0.609186769
vt 0.862424076 0.602019668
vt 0.849285066 0.598107994
vt 0.869766235 0.609352827
vt 0.86231035 0.616561174
vt 0.849111795 0.620266795
vt 0.141976833 0.264558256
vt 0.153106287 0.271046251
vt 0.153052941 0.264383256
vt 0.164131001 0.264380872
vt 0.159751669 0.277584106
vt 0.160428703 0.277578413
vt 0.153211594 0.284229755
vt 0.153217062 0.284906477
vt 0.146566629 0.277689338
vt 0.145889699 0.277694553
vt 0.86286068 0.682670057
vt 0.869186282 0.693698764
vt 0.869181335 0.682617962
vt 0.869004309 0.671537817
vt 0.856323361 0.689318597
vt 0.856329143 0.689995587
vt 0.849673927 0.682778716
vt 0.848996997 0.682784319
vt 0.856214404 0.676130056
vt 0.856208742 0.675452948
g submesh0
f 1/1/1 2/2/2 3/3/3
f 4/4/4 5/5/5 6/6/6
f 7/7/7 8/8/8 9/9/9
f 10/10/10 11/11/11 12/12/12
f 13/13/13 14/14/14 15/15/15
f 16/16/16 17/17/17 18/18/18
f 19/19/19 20/20/20 21/21/21
f 22/22/22 23/23/23 24/24/24
f 25/25/25 26/26/26 27/27/27
f 28/28/28 29/29/29 30/30/30
f 31/31/31 32/32/32 33/33/33
f 34/34/34 35/35/35 36/36/36
f 37/37/37 38/38/38 39/39/39
f 40/40/40 41/41/41 42/42/42
f 43/43/43 44/44/44 45/45/45
f 46/46/46 47/47/47 48/48/48
f 49/49/49 50/50/50 51/51/51
f 52/52/52 53/53/53 54/54/54
f 55/55/55 56/56/56 57/57/57
f 58/58/58 59/59/59 60/60/60
f 61/61/61 62/62/62 63/63/63
f 64/64/64 65/65/65 66/66/66
f 67/67/67 68/68/68 69/69/69
f 70/70/70 71/71/71 72/72/72
f 73/73/73 74/74/74 75/75/75
f 76/76/76 77/77/77 78/78/78
f 79/79/79 80/80/80 81/81/81
f 82/82/82 83/83/83 84/84/84
f 85/85/85 86/86/86 87/87/87
f 88/88/88 89/89/89 90/90/90
f 91/91/91 92/92/92 93/93/93
f 94/94/94 95/95/95 96/96/96
f 97/97/97 98/98/98 99/99/99
f 100/100/100 101/101/101 102/102/102
f 103/103/103 104/104/104 105/105/105
f 106/106/106 107/107/107 108/108/108
f 109/109/109 110/110/110 111/111/111
f 112/112/112 113/113/113 114/114/114
f 115/115/115 116/116/116 117/117/117
f 118/118/118 119/119/119 120/120/120
f 121/121/121 120/120/120 122/122/122
f 123/123/123 121/121/121 122/122/122
f 123/123/123 124/124/124 125/125/125
f 126/126/126 127/127/127 128/128/128
f 129/129/129 130/130/130 131/131/131
f 132/132/132 133/133/133 134/134/134
f 135/135/135 136/136/136 137/137/137
f 138/138/138 139/139/139 140/140/140
f 141/141/141 142/142/142 143/143/143
f 144/144/144 145/145/145 146/146/146
f 147/147/147 148/148/148 149/149/149
f 150/150/150 151/151/151 152/152/152
f 153/153/153 154/154/154 150/150/150
f 155/155/155 156/156/156 153/153/153
f 157/157/157 158/158/158 155/155/155
f 159/159/159 160/160/160 161/161/161
f 162/162/162 163/163/163 164/164/164
f 165/165/165 166/166/166 167/167/167
f 168/168/168 169/169/169 170/170/170
f 171/171/171 172/172/172 173/173/173
f 171/171/171 174/174/174 175/175/175
f 175/175/175 174/174/174 176/176/176
f 177/177/177 176/176/176 178/178/178
f 179/179/179 180/180/180 181/181/181
f 179/179/179 181/181/181 182/182/182
f 183/183/183 184/184/184 185/185/185
f 183/183/183 185/185/185 186/186/186
f 187/187/187 188/188/188 189/189/189
f 187/187/187 189/189/189 190/190/190
f 191/191/191 187/187/187 192/192/192
f 191/191/191 192/192/192 193/193/193
f 194/194/194 195/195/195 196/196/196
f 194/194/194 196/196/196 197/197/197
f 198/198/198 199/199/199 200/200/200
f 198/198/198 200/200/200 201/201/201
f 202/202/202 203/203/203 204/204/204
f 202/202/202 204/204/204 205/205/205
f 206/206/206 207/207/207 208/208/208
f 206/206/206 208/208/208 209/209/209
f 210/210/210 211/211/211 212/212/212
f 210/210/210 212/212/212 213/213/213
f 214/214/214 215/215/215 216/216/216
f 214/214/214 216/216/216 217/217/217
f 218/218/218 219/219/219 220/220/220
f 218/218/218 220/220/220 221/221/221
f 222/222/222 223/223/223 224/224/224
f 222/222/222 224/224/224 225/225/225
f 226/226/226 227/227/227 228/228/228
f 226/226/226 228/228/228 229/229/229
f 230/230/230 231/231/231 232/232/232
f 230/230/230 232/232/232 233/233/233
f 234/234/234 235/235/235 236/236/236
f 234/234/234 236/236/236 237/237/237
f 238/238/238 239/239/239 240/240/240
f 238/238/238 240/240/240 241/241/241
f 242/242/242 243/243/243 244/244/244
f 242/242/242 244/244/244 245/245/245
f 246/246/246 247/247/247 248/248/248
f 246/246/246 248/248/248 249/249/249
f 250/250/250 251/251/251 252/252/252
f 250/250/250 252/252/252 253/253/253
f 254/254/254 255/255/255 256/256/256
f 254/254/254 256/256/256 257/257/257
f 258/258/258 259/259/259 260/260/260
f 258/258/258 260/260/260 261/261/261
f 262/262/262 263/263/263 264/264/264
f 262/262/262 264/264/264 265/265/265
f 266/266/266 267/267/267 268/268/268
f 266/266/266 268/268/268 269/269/269
f 270/270/270 271/271/271 272/272/272
f 270/270/270 272/272/272 273/273/273
f 274/274/274 275/275/275 276/276/276
f 274/274/274 276/276/276 277/277/277
f 278/278/278 279/279/279 280/280/280
f 278/278/278 280/280/280 281/281/281
f 282/282/282 283/283/283 284/284/284
f 282/282/282 284/284/284 285/285/285
f 286/286/286 287/287/287 288/288/288
f 286/286/286 288/288/288 289/289/289
f 290/290/290 291/291/291 292/292/292
f 290/290/290 292/292/292 293/293/293
f 294/294/294 295/295/295 296/296/296
f 294/294/294 296/296/296 297/297/297
f 298/298/298 299/299/299 300/300/300
f 298/298/298 300/300/300 301/301/301
f 302/302/302 303/303/303 304/304/304
f 302/302/302 304/304/304 305/305/305
f 306/306/306 307/307/307 308/308/308
f 306/306/306 308/308/308 309/309/309
f 310/310/310 311/311/311 312/312/312
f 310/310/310 312/312/312 313/313/313
f 314/314/314 315/315/315 316/316/316
f 314/314/314 316/316/316 317/317/317
f 318/318/318 319/319/319 320/320/320
f 318/318/318 320/320/320 321/321/321
f 322/322/322 323/323/323 324/324/324
f 322/322/322 324/324/324 325/325/325
f 326/326/326 327/327/327 328/328/328
f 326/326/326 328/328/328 329/329/329
f 330/330/330 331/331/331 332/332/332
f 330/330/330 332/332/332 333/333/333
f 334/334/334 335/335/335 336/336/336
f 334/334/334 336/336/336 337/337/337
f 338/338/338 339/339/339 340/340/340
f 338/338/338 340/340/340 341/341/341
f 342/342/342 343/343/343 344/344/344
f 342/342/342 344/344/344 345/345/345
f 346/346/346 347/347/347 348/348/348
f 346/346/346 348/348/348 349/349/349
f 350/350/350 351/351/351 352/352/352
f 350/350/350 352/352/352 353/353/353
f 354/354/354 355/355/355 356/356/356
f 354/354/354 356/356/356 357/357/357
f 358/358/358 359/359/359 360/360/360
f 358/358/358 360/360/360 361/361/361
f 362/362/362 363/363/363 364/364/364
f 362/362/362 364/364/364 365/365/365
f 366/366/366 367/367/367 368/368/368
f 366/366/366 368/368/368 369/369/369
f 370/370/370 371/371/371 372/372/372
f 370/370/370 372/372/372 373/373/373
f 374/374/374 375/375/375 376/376/376
f 374/374/374 376/376/376 377/377/377
f 378/378/378 379/379/379 380/380/380
f 378/378/378 380/380/380 381/381/381
f 382/382/382 383/383/383 384/384/384
f 382/382/382 384/384/384 385/385/385
f 386/386/386 387/387/387 388/388/388
f 386/386/386 388/388/388 389/389/389
f 390/390/390 391/391/391 392/392/392
f 390/390/390 392/392/392 393/393/393
f 394/394/394 395/395/395 396/396/396
f 394/394/394 396/396/396 397/397/397
f 398/398/398 399/399/399 400/400/400
f 398/398/398 400/400/400 401/401/401
f 402/402/402 403/403/403 404/404/404
f 402/402/402 404/404/404 405/405/405
f 406/406/406 407/407/407 408/408/408
f 406/406/406 408/408/408 409/409/409
f 410/410/410 411/411/411 412/412/412
f 410/410/410 412/412/412 413/413/413
f 414/414/414 415/415/415 416/416/416
f 414/414/414 416/416/416 417/417/417
f 418/418/418 419/419/419 420/420/420
f 421/421/421 419/419/419 418/418/418
f 422/422/422 419/419/419 421/421/421
f 423/423/423 424/424/424 425/425/425
f 423/423/423 425/425/425 426/426/426
f 427/427/427 428/428/428 429/429/429
f 427/427/427 429/429/429 430/430/430
f 431/431/431 432/432/432 433/433/433
f 431/431/431 433/433/433 434/434/434
f 435/435/435 436/436/436 437/437/437
f 435/435/435 437/437/437 438/438/438
f 439/439/439 440/440/440 441/441/441
f 439/439/439 441/441/441 442/442/442
f 443/443/443 444/444/444 445/445/445
f 443/443/443 445/445/445 446/446/446
f 447/447/447 448/448/448 449/449/449
f 447/447/447 449/449/449 450/450/450
f 451/451/451 452/452/452 453/453/453
f 451/451/451 453/453/453 454/454/454
f 455/455/455 456/456/456 457/457/457
f 455/455/455 457/457/457 458/458/458
f 459/459/459 460/460/460 461/461/461
f 459/459/459 461/461/461 462/462/462
f 463/463/463 464/464/464 465/465/465
f 463/463/463 465/465/465 466/466/466
f 467/467/467 468/468/468 469/469/469
f 467/467/467 469/469/469 470/470/470
f 471/471/471 472/472/472 473/473/473
f 471/471/471 473/473/473 474/474/474
f 475/475/475 476/476/476 477/477/477
f 475/475/475 477/477/477 478/478/478
f 479/479/479 480/480/480 481/481/481
f 479/479/479 481/481/481 482/482/482
f 483/483/483 484/484/484 485/485/485
f 483/483/483 485/485/485 486/486/486
f 487/487/487 488/488/488 489/489/489
f 487/487/487 489/489/489 490/490/490
f 491/491/491 492/492/492 493/493/493
f 491/491/491 493/493/493 494/494/494
f 495/495/495 496/496/496 497/497/497
f 495/495/495 497/497/497 498/498/498
f 499/499/499 500/500/500 501/501/501
f 499/499/499 501/501/501 502/502/502
f 503/503/503 504/504/504 505/505/505
f 503/503/503 505/505/505 506/506/506
f 507/507/507 508/508/508 509/509/509
f 507/507/507 509/509/509 510/510/510
f 511/511/511 512/512/512 513/513/513
f 511/511/511 513/513/513 514/514/514
f 515/515/515 516/516/516 517/517/517
f 515/515/515 517/517/517 518/518/518
f 519/519/519 520/520/520 521/521/521
f 519/519/519 521/521/521 522/522/522
f 523/523/523 524/524/524 525/525/525
f 523/523/523 525/525/525 526/526/526
f 527/527/527 528/528/528 529/529/529
f 527/527/527 529/529/529 530/530/530
f 531/531/531 532/532/532 533/533/533
f 531/531/531 533/533/533 534/534/534
f 535/535/535 536/536/536 537/537/537
f 535/535/535 537/537/537 538/538/538
f 539/539/539 540/540/540 541/541/541
f 539/539/539 541/541/541 542/542/542
f 543/543/543 544/544/544 545/545/545
f 543/543/543 545/545/545 546/546/546
f 547/547/547 548/548/548 549/549/549
f 547/547/547 549/549/549 550/550/550
f 551/551/551 552/552/552 553/553/553
f 551/551/551 553/553/553 554/554/554
f 555/555/555 556/556/556 557/557/557
f 555/555/555 557/557/557 558/558/558
f 559/559/559 560/560/560 561/561/561
f 559/559/559 561/561/561 562/562/562
f 563/563/563 564/564/564 565/565/565
f 563/563/563 565/565/565 566/566/566
f 567/567/567 568/568/568 569/569/569
f 567/567/567 569/569/569 570/570/570
f 571/571/571 572/572/572 573/573/573
f 571/571/571 573/573/573 574/574/574
f 575/575/575 576/576/576 577/577/577
f 575/575/575 577/577/577 578/578/578
f 579/579/579 580/580/580 581/581/581
f 579/579/579 581/581/581 582/582/582
f 583/583/583 584/584/584 585/585/585
f 583/583/583 585/585/585 586/586/586
f 587/587/587 588/588/588 589/589/589
f 587/587/587 589/589/589 590/590/590
f 591/591/591 592/592/592 593/593/593
f 591/591/591 593/593/593 594/594/594
f 595/595/595 596/596/596 597/597/597
f 595/595/595 597/597/597 598/598/598
f 599/599/599 600/600/600 601/601/601
f 599/599/599 601/601/601 602/602/602
f 603/603/603 604/604/604 605/605/605
f 603/603/603 605/605/605 606/606/606
f 607/607/607 608/608/608 609/609/609
f 607/607/607 609/609/609 610/610/610
f 611/611/611 612/612/612 613/613/613
f 611/611/611 613/613/613 614/614/614
f 615/615/615 616/616/616 617/617/617
f 615/615/615 617/617/617 618/618/618
f 619/619/619 620/620/620 621/621/621
f 619/619/619 621/621/621 622/622/622
f 623/623/623 624/624/624 625/625/625
f 623/623/623 625/625/625 626/626/626
f 627/627/627 628/628/628 629/629/629
f 627/627/627 629/629/629 630/630/630
f 631/631/631 632/632/632 633/633/633
f 631/631/631 633/633/633 634/634/634
f 635/635/635 636/636/636 637/637/637
f 635/635/635 637/637/637 638/638/638
f 639/639/639 640/640/640 641/641/641
f 639/639/639 641/641/641 642/642/642
f 643/643/643 644/644/644 645/645/645
f 643/643/643 645/645/645 646/646/646
f 647/647/647 648/648/648 649/649/649
f 647/647/647 650/650/650 648/648/648
f 650/650/650 647/647/647 651/651/651
f 650/650/650 651/651/651 652/652/652
f 652/652/652 651/651/651 653/653/653
f 652/652/652 653/653/653 654/654/654
f 655/655/655 656/656/656 657/657/657
f 655/655/655 658/658/658 656/656/656
f 659/659/659 656/656/656 658/658/658
f 659/659/659 658/658/658 660/660/660
f 661/661/661 659/659/659 660/660/660
f 661/661/661 660/660/660 662/662/662
f 663/663/663 661/661/661 662/662/662
f 663/663/663 662/662/662 664/664/664
f 665/665/665 666/666/666 667/667/667
f 665/665/665 668/668/668 666/666/666
f 668/668/668 669/669/669 666/666/666
f 668/668/668 670/670/670 669/669/669
f 670/670/670 668/668/668 665/665/665
f 670/670/670 665/665/665 671/671/671
f 672/672/672 673/673/673 674/674/674
f 672/672/672 675/675/675 673/673/673
f 673/673/673 675/675/675 676/676/676
f 673/673/673 676/676/676 677/677/677
f 677/677/677 676/676/676 678/678/678
f 677/677/677 678/678/678 679/679/679
f 679/679/679 678/678/678 680/680/680
f 679/679/679 680/680/680 681/681/681
f 682/682/682 683/683/683 684/684/684
f 682/682/682 685/685/685 683/683/683
f 686/686/686 685/685/685 682/682/682
f 686/686/686 682/682/682 687/687/687
f 688/688/688 689/689/689 690/690/690
f 689/689/689 691/691/691 690/690/690
f 692/692/692 691/691/691 689/689/689
f 691/691/691 692/692/692 693/693/693
f 694/694/694 693/693/693 692/692/692
f 694/694/694 695/695/695 693/693/693
f 688/688/688 696/696/696 689/689/689
f 696/696/696 695/695/695 694/694/694
f 696/696/696 688/688/688 697/697/697
f 696/696/696 697/697/697 695/695/695
f 698/698/698 699/699/699 700/700/700
f 701/701/701 698/698/698 700/700/700
f 702/702/702 699/699/699 698/698/698
f 699/699/699 702/702/702 703/703/703
f 704/704/704 703/703/703 702/702/702
f 704/704/704 705/705/705 703/703/703
f 701/701/701 706/706/706 698/698/698
f 706/706/706 705/705/705 704/704/704
f 706/706/706 701/701/701 707/707/707
f 706/706/706 707/707/707 705/705/705
