# schizolobium_sapling_a_wood
v -0.0875021517 1.50645149 -0.0366556197
v -0.0681907833 1.38498008 -0.0110614365
v -0.106394559 1.66982329 0.0131060136
v -0.0755724087 1.50885355 -0.0587137751
v -0.0995945707 1.67723358 -0.0347693786
v -0.0652549714 1.5082891 0.00608059159
v -0.0765271708 1.67851198 -0.0448269397
v -0.0474564545 1.38359952 -0.0541917756
v -0.029380545 1.51569879 -0.06616541
v -0.00845929049 1.51877069 -0.036670804
v -0.0364250578 1.67469275 -0.0237319842
v -0.0517099984 1.83339548 -0.0133429216
v -0.070705533 1.83632624 -0.00310769491
v -0.0132712163 1.82597411 0.00105528207
v -0.000475410809 2.17011118 -0.0276081655
v 0.0159889329 1.98243654 -0.0134008937
v -0.00747637358 1.82401609 0.0229909364
v -0.0765898749 1.83649075 0.0175712854
v 0.0368416645 2.1654985 -0.0152166057
v 0.0347538926 2.16628933 0.0232507586
v -0.0149088604 1.82438076 0.0454104543
v -0.0168482307 2.1729002 0.0232842304
v -0.062596485 1.66606569 0.0335049294
v 0.0189200342 2.16847038 0.034467902
v -0.0360092521 1.82772577 0.0546762943
v -0.0580987111 1.83165801 0.0542355813
v -0.0751022547 1.83529794 0.0394528657
v -0.087812759 1.66685915 0.0305087771
v -0.0176008213 1.51532495 -0.000779447262
v -0.0117474115 1.38918602 0.0204307046
v 0.0115374131 1.38870907 -0.00793830026
v 0.00584545406 1.2666924 -0.0353171639
v -0.059732236 1.26473701 0.0223931689
v -0.00991140865 1.142223 -0.0673748776
v 0.019487543 1.01898706 -0.0486165807
v 0.0111764856 1.14334369 -0.0176552627
v -0.0821820796 1.13578582 -0.0406341888
v -0.0559022017 1.06325603 -0.063427642
v -0.00490520289 1.14168501 0.00547072571
v -0.0408682376 1.02447259 0.018940134
v 0.0272100195 1.02460849 -0.00961005874
v -0.0182529353 1.01425183 -0.0679064244
v -0.0770671666 0.807456791 -0.0072496119
v -0.0627183989 1.0183183 -0.017944824
v -0.00172870071 1.05039597 0.0213162564
v -0.0477871597 0.920030773 0.042913273
v -0.0243074168 0.809586167 -0.0377503298
v -0.0719429776 0.80571419 0.0263425503
v 0.0291306656 0.806872368 0.0226838086
v 0.0219121948 0.808451414 -0.00821537618
v 0.0102375802 0.805257797 0.0495856814
v 0.00456344197 0.809570968 -0.032308422
v -0.0205097459 0.804508924 0.058132384
v 0.0271942317 0.706240654 0.00404606527
v 0.0288322475 0.609392822 -0.0664461106
v 0.00908616744 0.700876892 0.0260876045
v 0.0485349931 0.610447228 -0.0407457948
v 0.0514888652 0.609041989 -0.00787733681
v -0.0291408692 0.59758842 0.0194417052
v 0.00130046066 0.601035476 0.0254080333
v -0.0499658249 0.596351624 -0.00545188272
v -0.0313905142 0.601780176 -0.0635268986
v -0.00188697875 0.60575062 -0.069429636
v 0.00228994968 0.410080671 -0.0711868256
v 0.0322091393 0.409673691 -0.0546049289
v 0.0555222258 0.409810811 -0.0311343968
v 0.0569159724 0.465670645 0.000548247655
v -0.0489127189 0.598215818 -0.0376317166
v -0.0454177447 0.413705736 -0.0285048615
v -0.0494958237 0.41527462 0.00438191276
v 0.0383760817 0.466076493 0.031831678
v -0.0295161139 0.465562284 0.0292482302
v -0.0337799825 0.147268906 0.0253973138
v 0.00328410021 0.466048956 0.0444469973
v -0.0573774129 0.232721284 -0.000375734031
v -0.000556350918 0.23071596 0.0457383618
v 0.0364969969 0.23236312 0.0318887122
v 0.0579581112 0.149055421 -0.00662963605
v 0.00243840669 0.148197278 0.0349358656
v -0.0562207252 0.235182375 -0.0366249494
v 0.0561832972 0.237427607 -0.0377390198
v -0.0451141261 0.146353036 -0.0397742465
v -0.0352037512 0.146218523 -0.0758019537
v 0.104091033 -0.0971400067 0.0339519978
v 0.0357867591 0.147898763 -0.0709736869
v 0.0020635738 0.146883532 -0.0948518068
v 0.0638266951 -0.108829029 -0.0832366347
v 0.00228932174 -0.108558297 -0.0836367384
v -0.0663368851 -0.1091609 -0.0929959193
v -0.115382455 -0.095517315 0.0390000157
v 0.0583283789 -0.0924642608 0.0777442381
v -0.0754337758 -0.0887748227 0.107430749
v 0.0023068036 -0.090722084 0.0921185538
g submesh0
f 1 2 3
f 1 4 2
f 3 5 1
f 4 1 5
f 2 6 3
f 5 7 4
f 8 2 4
f 9 4 7
f 4 9 8
f 10 8 9
f 7 11 9
f 10 9 11
f 7 5 12
f 5 3 13
f 13 12 5
f 11 7 14
f 12 14 7
f 12 13 15
f 14 12 16
f 16 12 15
f 16 17 14
f 14 17 11
f 18 13 3
f 13 18 15
f 17 16 19
f 15 19 16
f 19 20 17
f 19 15 20
f 17 21 11
f 21 17 20
f 20 15 22
f 22 15 18
f 23 11 21
f 11 23 10
f 20 24 21
f 20 22 24
f 25 21 24
f 24 22 25
f 21 25 23
f 26 25 22
f 18 26 22
f 25 26 23
f 27 18 3
f 26 18 27
f 3 28 27
f 26 27 28
f 28 23 26
f 28 3 6
f 23 28 29
f 29 10 23
f 6 29 28
f 29 6 30
f 10 29 31
f 30 31 29
f 10 31 32
f 30 32 31
f 33 30 6
f 6 2 33
f 32 34 10
f 34 32 35
f 34 8 10
f 36 32 30
f 36 35 32
f 2 8 37
f 33 2 37
f 34 38 8
f 38 37 8
f 30 39 36
f 30 33 39
f 37 40 33
f 40 39 33
f 36 39 41
f 36 41 35
f 35 42 34
f 42 38 34
f 38 42 43
f 37 38 44
f 44 40 37
f 43 44 38
f 39 40 45
f 45 41 39
f 40 44 46
f 45 40 46
f 42 35 47
f 47 43 42
f 48 46 44
f 43 48 44
f 41 45 49
f 35 41 50
f 49 50 41
f 46 51 45
f 51 49 45
f 52 47 35
f 35 50 52
f 46 48 53
f 53 51 46
f 49 51 54
f 54 50 49
f 52 50 55
f 55 47 52
f 51 53 56
f 56 54 51
f 50 54 57
f 57 55 50
f 54 56 58
f 58 57 54
f 53 48 59
f 60 56 53
f 59 60 53
f 61 59 48
f 48 43 61
f 43 47 62
f 47 55 63
f 63 62 47
f 63 55 64
f 62 63 64
f 55 57 65
f 65 64 55
f 57 58 66
f 66 65 57
f 58 56 67
f 67 66 58
f 62 68 43
f 68 61 43
f 68 62 69
f 64 69 62
f 61 68 70
f 69 70 68
f 71 67 56
f 56 60 71
f 70 72 61
f 72 70 73
f 59 61 72
f 60 59 74
f 72 74 59
f 74 71 60
f 70 69 75
f 75 73 70
f 74 72 76
f 73 76 72
f 71 74 77
f 76 77 74
f 67 71 78
f 77 78 71
f 77 76 79
f 76 73 79
f 79 78 77
f 80 75 69
f 69 64 80
f 78 81 67
f 66 67 81
f 75 80 82
f 82 73 75
f 83 80 64
f 80 83 82
f 78 79 84
f 81 78 84
f 81 85 66
f 65 66 85
f 64 65 86
f 86 83 64
f 85 86 65
f 85 81 87
f 84 87 81
f 87 88 85
f 86 85 88
f 88 87 84
f 83 86 89
f 88 89 86
f 89 90 83
f 88 90 89
f 82 83 90
f 88 84 90
f 91 84 79
f 90 84 91
f 90 92 82
f 90 91 92
f 73 82 92
f 79 73 93
f 93 91 79
f 92 93 73
f 92 91 93
