# server_gas_tank_col
v 0.657566488 2.70346236 -1.35855389
v -0.0852924362 3.92814755 -0.238135159
v 1.35512316 2.66630578 -1.37855482
v 1.3551234 2.6834619 1.34587216
v -0.657543302 2.70346236 -1.35855389
v -0.0852925852 3.92814684 0.238136187
v -0.561563909 3.92814755 -0.238135278
v -0.657543302 2.66346073 -1.35855389
v 1.33512223 2.64630485 -1.35855389
v -1.35510039 2.6834619 -1.34621692
v -1.33509946 2.66346097 -1.32621598
v -0.56156379 3.92814708 0.238136262
v -1.40348625 2.69873214 -0.575079679
v -1.38171995 2.64449525 -0.566544056
v -0.657543302 2.61463737 -0.00118469377
v 0.306439251 3.43086028 0.747196496
v -1.35510004 2.6834619 1.37855721
v -1.38018489 2.71255612 0.571176469
v -1.36526 2.6559937 0.555468798
v 0.657566488 2.70346284 1.35855591
v -1.3350991 2.66346097 1.35855603
v 0.657566488 2.66346097 1.35855591
v 0.657566488 2.61463737 -0.00118469377
v 1.33512247 2.66346097 1.32587123
g submesh0
f 1 2 3
f 4 3 2
f 1 5 2
f 1 3 5
f 6 4 2
f 5 7 2
f 6 2 7
f 8 5 3
f 9 3 4
f 8 3 9
f 8 10 5
f 5 10 7
f 8 9 11
f 8 11 10
f 12 6 7
f 13 7 10
f 13 12 7
f 11 14 10
f 14 13 10
f 11 15 14
f 11 9 15
f 16 4 6
f 16 6 12
f 16 12 17
f 18 12 13
f 18 17 12
f 18 13 17
f 19 13 14
f 19 14 15
f 19 17 13
f 20 4 16
f 20 16 17
f 19 21 17
f 19 15 21
f 20 17 22
f 21 22 17
f 20 22 4
f 21 15 22
f 9 23 15
f 22 15 23
f 24 9 4
f 24 4 22
f 24 23 9
f 24 22 23
