# ship_ladder_125_COL
v -0.246642947 1.42320299 -0.236335441
v -0.246642947 1.42320299 0.236336157
v -0.233779296 1.44548357 0.236336157
v -0.233779296 1.44548357 -0.236335441
v -0.220915616 1.42320299 0.236336157
v -0.246642947 1.42320299 0.236336157
v -0.220915616 1.42320299 -0.236335441
v -0.233779296 1.44548357 0.236336157
v -0.233779296 1.44548357 -0.236335441
v -0.246642947 0.11985565 -0.23633559
v -0.246642947 0.11985559 0.236335993
v -0.233779296 0.142136127 0.236335993
v -0.233779296 0.142136186 -0.23633559
v -0.220915616 0.11985559 0.236335993
v -0.246642947 0.11985559 0.236335993
v -0.220915616 0.11985565 -0.23633559
v -0.233779296 0.142136127 0.236335993
v -0.233779296 0.142136186 -0.23633559
v -5.23062408E-06 0.0869909301 0.0926083326
v -0.0086817313 0.0869909301 0.0926083326
v -0.0131505365 0.0869909078 0.231863931
v -0.0044740364 0.0869909078 0.24054043
v -0.0131505365 0.000225916534 0.231863871
v -0.0086817313 0.000225933138 0.0926082879
v -5.23062408E-06 0.000225933138 0.0926082879
v -0.0044740364 0.000225915501 0.240540385
v -0.272479713 0.00518614659 0.245009243
v -0.0044740364 0.0869909078 0.24054043
v -0.190125659 0.0869909078 0.245009214
v -0.0044740364 0.000225915501 0.240540385
v -5.23062408E-06 0.0869909301 0.0926083326
v -5.23062408E-06 0.000225933138 0.0926082879
v -0.0086817313 0.0869909301 0.0926083326
v -0.0086817313 0.000225933138 0.0926082879
v -0.0131505365 0.0869909078 0.231863931
v -0.0131505365 0.000225916534 0.231863871
v -0.190125659 0.0869909078 0.236332715
v -0.272479713 0.00518614752 0.236332729
v -0.190125659 0.0869909078 0.245009214
v -0.0044740364 0.0869909078 0.24054043
v -0.0131505365 0.0869909078 0.231863931
v -0.190125659 0.0869909078 0.236332715
v -0.0131505365 0.000225916534 0.231863871
v -0.0044740364 0.000225915501 0.240540385
v -0.272479713 0.00518614659 0.245009243
v -0.272479713 0.00518614752 0.236332729
v -5.23062408E-06 1.53207242 0.0926098898
v -0.0086817313 1.53207242 0.0926098898
v -0.0131505365 1.53207266 0.231865495
v -0.0044740364 1.53207266 0.24054198
v -0.0131505365 1.44530773 0.231865481
v -0.0086817313 1.44530761 0.0926098526
v -5.23062408E-06 1.44530761 0.0926098526
v -0.0044740364 1.44530773 0.240541965
v -0.190125659 1.44530678 0.245010301
v -0.0044740364 1.53207266 0.24054198
v -0.272479713 1.5271126 0.245010778
v -0.0044740364 1.44530773 0.240541965
v -5.23062408E-06 1.53207242 0.0926098898
v -5.23062408E-06 1.44530761 0.0926098526
v -0.0086817313 1.53207242 0.0926098898
v -0.0086817313 1.44530761 0.0926098526
v -0.0131505365 1.53207266 0.231865495
v -0.0131505365 1.44530773 0.231865481
v -0.272479713 1.5271126 0.236334279
v -0.190125659 1.44530678 0.236333802
v -0.272479713 1.5271126 0.245010778
v -0.0044740364 1.53207266 0.24054198
v -0.0131505365 1.53207266 0.231865495
v -0.272479713 1.5271126 0.236334279
v -0.0131505365 1.44530773 0.231865481
v -0.0044740364 1.44530773 0.240541965
v -0.190125659 1.44530678 0.245010301
v -0.190125659 1.44530678 0.236333802
v -0.190125659 0.0869909078 0.236332715
v -0.190125659 1.44530678 0.236333802
v -0.190125659 1.44530678 0.245010301
v -0.190125659 0.0869909078 0.245009214
v -0.190125659 0.0869909078 0.245009214
v -0.190125659 1.44530678 0.245010301
v -0.272479713 1.5271126 0.245010778
v -0.272479713 0.00518614659 0.245009243
v -0.272479713 0.00518614659 0.245009243
v -0.272479713 1.5271126 0.245010778
v -0.272479713 1.5271126 0.236334279
v -0.272479713 0.00518614752 0.236332729
v -0.272479713 0.00518614752 0.236332729
v -0.272479713 1.5271126 0.236334279
v -0.190125659 1.44530678 0.236333802
v -0.190125659 0.0869909078 0.236332715
v -5.23062408E-06 0.0869910792 -0.0926082432
v -0.0044740364 0.0869911015 -0.240540326
v -0.0131505365 0.0869911015 -0.231863841
v -0.0086817313 0.0869910792 -0.0926082432
v -0.0131505365 0.000226104195 -0.231863871
v -0.0044740364 0.000226105243 -0.240540385
v -5.23062408E-06 0.000226087606 -0.0926082879
v -0.0086817313 0.000226087606 -0.0926082879
v -0.272479713 0.0051862048 -0.245009214
v -0.190125659 0.0869911015 -0.245009154
v -0.0044740364 0.0869911015 -0.240540326
v -0.0044740364 0.000226105243 -0.240540385
v -5.23062408E-06 0.0869910792 -0.0926082432
v -5.23062408E-06 0.000226087606 -0.0926082879
v -0.0086817313 0.0869910792 -0.0926082432
v -0.0086817313 0.000226087606 -0.0926082879
v -0.0131505365 0.0869911015 -0.231863841
v -0.0131505365 0.000226104195 -0.231863871
v -0.190125659 0.0869911015 -0.236332655
v -0.272479713 0.0051862034 -0.2363327
v -0.190125659 0.0869911015 -0.245009154
v -0.190125659 0.0869911015 -0.236332655
v -0.0131505365 0.0869911015 -0.231863841
v -0.0044740364 0.0869911015 -0.240540326
v -0.0131505365 0.000226104195 -0.231863871
v -0.272479713 0.0051862034 -0.2363327
v -0.272479713 0.0051862048 -0.245009214
v -0.0044740364 0.000226105243 -0.240540385
v -5.23062408E-06 1.53207254 -0.092608586
v -0.0044740364 1.5320729 -0.240540653
v -0.0131505365 1.5320729 -0.231864139
v -0.0086817313 1.53207254 -0.092608586
v -0.0131505365 1.44530809 -0.231864184
v -0.0044740364 1.44530809 -0.240540683
v -5.23062408E-06 1.44530773 -0.0926086083
v -0.0086817313 1.44530773 -0.0926086083
v -0.190125659 1.44530714 -0.245009035
v -0.272479713 1.52711272 -0.245009467
v -0.0044740364 1.5320729 -0.240540653
v -0.0044740364 1.44530809 -0.240540683
v -5.23062408E-06 1.53207254 -0.092608586
v -5.23062408E-06 1.44530773 -0.0926086083
v -0.0086817313 1.53207254 -0.092608586
v -0.0086817313 1.44530773 -0.0926086083
v -0.0131505365 1.5320729 -0.231864139
v -0.0131505365 1.44530809 -0.231864184
v -0.272479713 1.52711272 -0.236332968
v -0.190125659 1.44530714 -0.236332521
v -0.272479713 1.52711272 -0.245009467
v -0.272479713 1.52711272 -0.236332968
v -0.0131505365 1.5320729 -0.231864139
v -0.0044740364 1.5320729 -0.240540653
v -0.0131505365 1.44530809 -0.231864184
v -0.190125659 1.44530714 -0.236332521
v -0.190125659 1.44530714 -0.245009035
v -0.0044740364 1.44530809 -0.240540683
v -0.190125659 0.0869911015 -0.236332655
v -0.190125659 0.0869911015 -0.245009154
v -0.190125659 1.44530714 -0.245009035
v -0.190125659 1.44530714 -0.236332521
v -0.190125659 0.0869911015 -0.245009154
v -0.272479713 0.0051862048 -0.245009214
v -0.272479713 1.52711272 -0.245009467
v -0.190125659 1.44530714 -0.245009035
v -0.272479713 0.0051862048 -0.245009214
v -0.272479713 0.0051862034 -0.2363327
v -0.272479713 1.52711272 -0.236332968
v -0.272479713 1.52711272 -0.245009467
v -0.272479713 0.0051862034 -0.2363327
v -0.190125659 0.0869911015 -0.236332655
v -0.190125659 1.44530714 -0.236332521
v -0.272479713 1.52711272 -0.236332968
v -0.246642947 0.555553019 -0.23633565
v -0.246642947 0.555553019 0.236335933
v -0.233779296 0.577833533 0.236335963
v -0.233779296 0.577833533 -0.23633565
v -0.220915616 0.555553019 0.236335933
v -0.246642947 0.555553019 0.236335933
v -0.220915616 0.555553019 -0.23633565
v -0.233779296 0.577833533 0.236335963
v -0.233779296 0.577833533 -0.23633565
v -0.246642947 0.989378035 -0.23633559
v -0.246642947 0.989377975 0.236335993
v -0.233779296 1.01165855 0.236335993
v -0.233779296 1.01165855 -0.236335561
v -0.220915616 0.989377975 0.236335993
v -0.246642947 0.989377975 0.236335993
v -0.220915616 0.989378035 -0.23633559
v -0.233779296 1.01165855 0.236335993
v -0.233779296 1.01165855 -0.236335561
vt 0.0898947716 0.440224349
vt 0.207658201 0.437450439
vt 0.170234784 0.427120745
vt 0.089963682 0.429894567
vt 0.254136175 0.450911224
vt 0.254136175 0.440224349
vt 0.0898947716 0.450911224
vt 0.254136175 0.461598098
vt 0.0898947716 0.461598098
vt 0.0898947716 0.440224349
vt 0.20765835 0.437450469
vt 0.170234933 0.427120775
vt 0.089963682 0.429894567
vt 0.254136175 0.450911224
vt 0.254136175 0.440224349
vt 0.0898947716 0.450911224
vt 0.254136175 0.461598098
vt 0.0898947716 0.461598098
vt 0.118775658 0.215643719
vt 0.118750513 0.21253331
vt 0.0704311728 0.212923899
vt 0.0673459247 0.216059476
vt 0.0375489369 0.211316377
vt -0.0123834163 0.212592378
vt -0.0124037303 0.215702832
vt 0.0406390801 0.214447126
vt 0.466154844 0.260347843
vt 0.534491181 0.228785962
vt 0.466154844 0.228790686
vt 0.534491181 0.260352582
vt 0.589139998 0.228783637
vt 0.589139998 0.260354906
vt 0.59229666 0.228782177
vt 0.59229666 0.260356367
vt 0.643797517 0.228781432
vt 0.643797517 0.260357112
vt 0.709003448 0.228784412
vt 0.709003448 0.260354042
vt -0.0103444289 0.215950996
vt 0.0562114529 0.214348972
vt 0.0531009398 0.211238444
vt -0.0103444289 0.212840483
vt 0.058598157 0.21277386
vt 0.0554876402 0.215884373
vt 0.134314269 0.215884328
vt 0.134314269 0.212773815
vt 0.152194858 0.21564275
vt 0.15216963 0.212532341
vt 0.102235265 0.211335197
vt 0.0991500989 0.214470863
vt 0.040481776 0.211315647
vt -0.00945049711 0.212594584
vt -0.00947062857 0.215705037
vt 0.0435721055 0.214446217
vt 0.466154963 0.260411561
vt 0.534491301 0.228849441
vt 0.466154963 0.228854164
vt 0.534491181 0.260416001
vt 0.589139998 0.228847086
vt 0.589139998 0.260418355
vt 0.5922966 0.228845611
vt 0.5922966 0.260419786
vt 0.643797517 0.228844851
vt 0.643797517 0.260420561
vt 0.709003448 0.228847951
vt 0.709003448 0.26041773
vt 0.0169821735 0.215884387
vt 0.0958087593 0.215884313
vt 0.0926982462 0.2127738
vt 0.679240704 0.236315936
vt 0.0632021576 0.212840497
vt 0.0600916445 0.215951011
vt 0.125045463 0.215950996
vt 0.125045463 0.212840483
vt 0.0097063724 0.215750813
vt 0.496661067 0.215750739
vt 0.496661067 0.212640226
vt 0.0097063724 0.2126403
vt 0.987711549 0.228616223
vt 0.493681788 0.228616223
vt 0.493681788 0.260373116
vt 1.00814831 0.249186128
vt 0.0296333712 0.215750813
vt 0.531785071 0.215750799
vt 0.531785071 0.212640285
vt 0.029633373 0.212640285
vt -0.00757680461 0.249259874
vt 0.506889701 0.260446787
vt 0.506889701 0.228689969
vt 0.0128599117 0.228689969
vt 0.118775658 0.215643719
vt 0.0673459247 0.216059476
vt 0.0704311728 0.212923899
vt 0.118750513 0.21253331
vt 0.0375489369 0.211316377
vt 0.0406390801 0.214447126
vt -0.0124037303 0.215702832
vt -0.0123834163 0.212592378
vt 0.466154844 0.260347843
vt 0.466154844 0.228790686
vt 0.534491181 0.228785962
vt 0.534491181 0.260352582
vt 0.589139998 0.228783637
vt 0.589139998 0.260354906
vt 0.59229666 0.228782177
vt 0.59229666 0.260356367
vt 0.643797517 0.228781432
vt 0.643797517 0.260357112
vt 0.709003448 0.228784412
vt 0.709003448 0.260354042
vt -0.0103444289 0.215950996
vt -0.0103444289 0.212840483
vt 0.0531009398 0.211238444
vt 0.0562114529 0.214348972
vt 0.058598157 0.21277386
vt 0.134314269 0.212773815
vt 0.134314269 0.215884328
vt 0.0554876402 0.215884373
vt 0.152194858 0.21564275
vt 0.0991500989 0.214470863
vt 0.102235265 0.211335197
vt 0.15216963 0.212532341
vt 0.040481776 0.211315647
vt 0.0435721055 0.214446217
vt -0.00947062857 0.215705037
vt -0.00945049711 0.212594584
vt 0.466154963 0.260411561
vt 0.466154963 0.228854164
vt 0.534491301 0.228849441
vt 0.534491181 0.260416001
vt 0.589139998 0.228847086
vt 0.589139998 0.260418355
vt 0.5922966 0.228845611
vt 0.5922966 0.260419786
vt 0.643797517 0.228844851
vt 0.643797517 0.260420561
vt 0.709003448 0.228847951
vt 0.709003448 0.26041773
vt 0.0169821735 0.215884387
vt 0.509276152 0.236610338
vt 0.0926982462 0.2127738
vt 0.0958087593 0.215884313
vt 0.0632021576 0.212840497
vt 0.125045463 0.212840483
vt 0.125045463 0.215950996
vt 0.0600916445 0.215951011
vt 0.0097063724 0.215750813
vt 0.0097063724 0.2126403
vt 0.496661067 0.212640226
vt 0.496661067 0.215750739
vt 0.987711549 0.228616223
vt 1.00814819 0.249186128
vt 0.493681788 0.260373116
vt 0.493681788 0.228616223
vt 0.0296333712 0.215750813
vt 0.029633373 0.212640285
vt 0.531785071 0.212640285
vt 0.531785071 0.215750799
vt -0.00757680461 0.249259874
vt 0.0128599117 0.228689969
vt 0.506889701 0.228689969
vt 0.506889701 0.260446787
vt 0.0898947716 0.440224349
vt 0.207658097 0.437450439
vt 0.17023468 0.427120745
vt 0.089963682 0.429894567
vt 0.254136175 0.450911224
vt 0.254136175 0.440224349
vt 0.0898947716 0.450911224
vt 0.254136175 0.461598098
vt 0.0898947716 0.461598098
vt 0.0898947716 0.440224349
vt 0.207658038 0.437450409
vt 0.170234621 0.427120715
vt 0.089963682 0.429894567
vt 0.254136175 0.450911224
vt 0.254136175 0.440224349
vt 0.0898947716 0.450911224
vt 0.254136175 0.461598098
vt 0.0898947716 0.461598098
g submesh0
f 1/1 2/2 3/3
f 1/1 3/3 4/4
f 5/5 6/6 1/1
f 5/5 1/1 7/7
f 8/8 5/5 7/7
f 8/8 7/7 9/9
f 10/10 11/11 12/12
f 10/10 12/12 13/13
f 14/14 15/15 10/10
f 14/14 10/10 16/16
f 17/17 14/14 16/16
f 17/17 16/16 18/18
f 19/19 20/20 21/21
f 19/19 21/21 22/22
f 23/23 24/24 25/25
f 23/23 25/25 26/26
f 27/27 28/28 29/29
f 27/27 30/30 28/28
f 30/30 31/31 28/28
f 30/30 32/32 31/31
f 32/32 33/33 31/31
f 32/32 34/34 33/33
f 35/35 33/33 34/34
f 35/35 34/34 36/36
f 37/37 35/35 36/36
f 37/37 36/36 38/38
f 39/39 40/40 41/41
f 39/39 41/41 42/42
f 43/43 44/44 45/45
f 43/43 45/45 46/46
f 47/47 48/48 49/49
f 47/47 49/49 50/50
f 51/51 52/52 53/53
f 51/51 53/53 54/54
f 55/55 56/56 57/57
f 55/55 58/58 56/56
f 58/58 59/59 56/56
f 58/58 60/60 59/59
f 60/60 61/61 59/59
f 60/60 62/62 61/61
f 63/63 61/61 62/62
f 63/63 62/62 64/64
f 65/65 63/63 64/64
f 65/65 64/64 66/66
f 67/67 68/68 69/69
f 67/67 69/69 70/70
f 71/71 72/72 73/73
f 71/71 73/73 74/74
f 75/75 76/76 77/77
f 75/75 77/77 78/78
f 79/79 80/80 81/81
f 79/79 81/81 82/82
f 83/83 84/84 85/85
f 83/83 85/85 86/86
f 87/87 88/88 89/89
f 87/87 89/89 90/90
f 91/91 92/92 93/93
f 91/91 93/93 94/94
f 95/95 96/96 97/97
f 95/95 97/97 98/98
f 99/99 100/100 101/101
f 99/99 101/101 102/102
f 102/102 101/101 103/103
f 102/102 103/103 104/104
f 104/104 103/103 105/105
f 104/104 105/105 106/106
f 107/107 106/106 105/105
f 107/107 108/108 106/106
f 109/109 108/108 107/107
f 109/109 110/110 108/108
f 111/111 112/112 113/113
f 111/111 113/113 114/114
f 115/115 116/116 117/117
f 115/115 117/117 118/118
f 119/119 120/120 121/121
f 119/119 121/121 122/122
f 123/123 124/124 125/125
f 123/123 125/125 126/126
f 127/127 128/128 129/129
f 127/127 129/129 130/130
f 130/130 129/129 131/131
f 130/130 131/131 132/132
f 132/132 131/131 133/133
f 132/132 133/133 134/134
f 135/135 134/134 133/133
f 135/135 136/136 134/134
f 137/137 136/136 135/135
f 137/137 138/138 136/136
f 139/139 140/140 141/141
f 139/139 141/141 142/142
f 143/143 144/144 145/145
f 143/143 145/145 146/146
f 147/147 148/148 149/149
f 147/147 149/149 150/150
f 151/151 152/152 153/153
f 151/151 153/153 154/154
f 155/155 156/156 157/157
f 155/155 157/157 158/158
f 159/159 160/160 161/161
f 159/159 161/161 162/162
f 163/163 164/164 165/165
f 163/163 165/165 166/166
f 167/167 168/168 163/163
f 167/167 163/163 169/169
f 170/170 167/167 169/169
f 170/170 169/169 171/171
f 172/172 173/173 174/174
f 172/172 174/174 175/175
f 176/176 177/177 172/172
f 176/176 172/172 178/178
f 179/179 176/176 178/178
f 179/179 178/178 180/180
