# SinglePlantPot_Col
v 1.35795397E-09 0 -0.211740464
v -0.149723127 0 -0.149723127
v -0.191642314 0.419967562 -0.191642314
v 0 0 0
v -0.271023184 0.419967562 0
v -1.86264515E-09 0.419967562 3.7252903E-09
v 1.73815162E-09 0.419967562 -0.271023184
v -0.211740464 0 0
v 0.149723127 0 -0.149723127
v -0.191642314 0.419967562 0.191642314
v 0.191642314 0.419967562 -0.191642314
v -0.149723127 0 0.149723127
v 0.211740464 0 0
v 1.73815162E-09 0.419967562 0.271023184
v 0.271023184 0.419967562 0
v 1.35795397E-09 0 0.211740464
v 0.191642314 0.419967562 0.191642314
v 0.149723127 0 0.149723127
g submesh0
f 1 2 3
f 1 4 2
f 2 5 3
f 5 6 3
f 1 3 7
f 3 6 7
f 2 8 5
f 2 4 8
f 9 1 7
f 9 4 1
f 8 10 5
f 10 6 5
f 9 7 11
f 7 6 11
f 8 12 10
f 8 4 12
f 13 9 11
f 13 4 9
f 12 14 10
f 14 6 10
f 11 6 15
f 13 11 15
f 12 4 16
f 12 16 14
f 17 6 14
f 15 6 17
f 16 17 14
f 18 13 15
f 18 4 13
f 16 4 18
f 16 18 17
f 18 15 17
