# SkullSpike3_COL
v 0.0193831325 -0.000584847992 -0.0225927476
v -0.0229787249 -0.000584847992 -0.0225927457
v -0.0181149896 1.61197615 -0.0145212989
v 0.0129520437 1.61197615 -0.0145213017
v 0.00173951196 0.952741563 0.0520698577
v -0.0484414846 0.925721407 -0.0191303771
v 0.0251092464 0.890437603 0.00251393998
v 0.0193831325 -0.000584847992 0.0204690378
v 0.0129520437 1.61197615 0.0140258139
v -0.0181149896 1.61197615 0.0140258167
v -0.0229787249 -0.000584847992 0.0204690378
v -0.0181149896 1.61197615 -0.0145212989
v -0.0181149896 1.61197615 0.0140258167
v 0.0129520437 1.61197615 0.0140258139
v 0.0129520437 1.61197615 -0.0145213017
v 0.0250358861 1.37275767 -0.0782594159
v -0.05080387 1.367679 -0.0189154837
v -0.0637658089 1.37979305 -0.0599162988
v -0.081447728 1.42550552 -0.0680814832
v 0.00830340665 1.44791543 -0.108095497
v -0.00754346047 1.49234927 -0.0890476629
v -0.0813247189 1.46768403 -0.0605635084
v 0.0121216374 1.51142883 -0.0285079945
v -0.0642816052 1.48808861 0.000424854225
v 0.0573258363 1.43537331 -0.0340698361
v 0.0638796762 1.4287771 0.0464012548
v 0.0490420088 1.35204029 0.0693001151
v 0.0337760672 1.49530172 0.045688238
v 0.0121216374 1.51142883 -0.0285079945
v -0.0642816052 1.48808861 0.000424854225
v -0.028291896 1.48224831 0.0686362386
v 0.0247489791 1.42310417 0.0858489871
v -0.00680868234 1.35930765 0.0692092627
v -0.0366716348 1.43590605 0.0738293901
v -0.028291896 1.48224831 0.0686362386
v -0.0642816052 1.48808861 0.000424854225
v -0.0731598511 1.4317174 0.0027293209
v -0.05080387 1.367679 -0.0189154837
v -0.0637658089 1.37979305 -0.0599162988
v -0.081447728 1.42550552 -0.0680814832
v -0.0642816052 1.48808861 0.000424854225
v -0.0813247189 1.46768403 -0.0605635084
v -0.05080387 1.367679 -0.0189154837
v 0.0490420088 1.35204029 0.0693001151
v -0.00680868234 1.35930765 0.0692092627
v 0.0250358861 1.37275767 -0.0782594159
v 0.0593236126 0.9290061 -0.136069432
v 0.0255433749 0.887281418 -0.158052638
v 0.0185754951 0.978842378 -0.148358226
v 0.0684053972 0.895826519 -0.0714611188
v 0.022269031 0.843219638 -0.0946101844
v 0.0251092464 0.890437603 0.00251393998
v 0.0722843707 0.983066738 -0.0466942526
v 0.0593236126 0.9290061 -0.136069432
v 0.0185754951 0.978842378 -0.148358226
v 0.038167648 1.02587414 -0.0878841728
v 0.00173951196 0.952741563 0.0520698577
v 0.0314129069 1.00699866 -0.0098464163
v 0.038167648 1.02587414 -0.0878841728
v -0.0230934415 1.00992918 -0.0442924649
v 0.0185754951 0.978842378 -0.148358226
v -0.0484414846 0.925721407 -0.0191303771
v -0.053498175 0.97104907 -0.105523594
v -0.0645367429 0.881254435 -0.0898194909
v -0.056204278 0.916767955 -0.140863895
v 0.0185754951 0.978842378 -0.148358226
v 0.0255433749 0.887281418 -0.158052638
v 0.022269031 0.843219638 -0.0946101844
v 0.0251092464 0.890437603 0.00251393998
v -0.093114011 1.13263834 -0.0690531209
v -0.0396886878 1.11108959 -0.0642172322
v -0.0361395217 1.08748233 -0.0156423058
v -0.0840806738 1.09222901 0.0227910783
v -0.115829557 1.1957351 -0.0442357585
v 0.0164398402 1.08501101 0.0165750906
v -0.102722518 1.15291548 0.056188684
v -0.0901314393 1.26691127 0.00513647217
v 0.0115448609 1.09341323 0.0727688298
v 0.0767435879 1.11348736 -0.0198046919
v -0.0828199908 1.23547292 0.068455562
v -0.02570921 1.2719574 0.035830237
v -0.0158392861 1.2388016 0.0933467448
v -0.00345260231 1.15606678 0.106870882
v 0.10620489 1.12943673 0.0417022295
v 0.093663238 1.19381046 0.0760938674
v 0.0472865999 1.2692554 0.0567868389
v -0.02570921 1.2719574 0.035830237
v 0.117249258 1.22641432 0.0100826705
v 0.125261366 1.16020739 -0.0226627551
v 0.0259910282 1.29942691 -0.0178156402
v -0.02570921 1.2719574 0.035830237
v 0.0709431022 1.18374419 -0.107378386
v 0.0473378785 1.13674891 -0.0827137157
v 0.0655355006 1.2512691 -0.0859312266
v -0.0281733647 1.17432284 -0.131306112
v -0.00455154339 1.13295269 -0.0949541479
v -0.0446975306 1.2425257 -0.112738431
v -0.093114011 1.13263834 -0.0690531209
v -0.0396886878 1.11108959 -0.0642172322
v -0.115829557 1.1957351 -0.0442357585
v -0.0421341844 1.2978766 -0.0405828357
v -0.02570921 1.2719574 0.035830237
v -0.0901314393 1.26691127 0.00513647217
v -0.02570921 1.2719574 0.035830237
v -0.00455154339 1.13295269 -0.0949541479
v 0.0127719296 1.1139003 -0.0425517783
v -0.0396886878 1.11108959 -0.0642172322
v 0.0473378785 1.13674891 -0.0827137157
v -0.0361395217 1.08748233 -0.0156423058
v 0.0767435879 1.11348736 -0.0198046919
v 0.0164398402 1.08501101 0.0165750906
v 0.0193831325 -0.000584847992 -0.0225927476
v 0.0193831325 -0.000584847992 0.0204690378
v -0.0229787249 -0.000584847992 0.0204690378
v -0.0229787249 -0.000584847992 -0.0225927457
v -0.0229787249 -0.000584847992 -0.0225927457
v -0.0229787249 -0.000584847992 0.0204690378
v -0.0181149896 1.61197615 0.0140258167
v -0.0181149896 1.61197615 -0.0145212989
v 0.0129520437 1.61197615 -0.0145213017
v 0.0129520437 1.61197615 0.0140258139
v 0.0193831325 -0.000584847992 0.0204690378
v 0.0193831325 -0.000584847992 -0.0225927476
vn 0.578340113 -0.574990332 -0.578713179
vn -0.578035235 -0.575244963 -0.578764617
vn -0.576661706 0.579454601 -0.575928569
vn 0.576354861 0.579709351 -0.575979352
vn -0.0708354786 0.0642010197 0.99541986
vn -0.849822998 -0.215131611 0.481164575
vn 0.263280511 -0.693394005 0.670737028
vn 0.578393996 -0.575255692 0.578395426
vn 0.576301515 0.579444826 0.576298654
vn -0.57660836 0.579191089 0.576246917
vn -0.578088224 -0.575510263 0.578447819
vn -0.576661706 0.579454601 -0.575928569
vn -0.57660836 0.579191089 0.576246917
vn 0.576301515 0.579444826 0.576298654
vn 0.576354861 0.579709351 -0.575979352
vn 0.410224289 -0.66043818 -0.628917813
vn -0.572003543 -0.817463696 0.0675658062
vn -0.616916299 -0.641026378 -0.456617564
vn -0.843764782 -0.154699787 -0.513934791
vn 0.276197851 0.104970448 -0.955351293
vn 0.07266251 0.724695742 -0.685227156
vn -0.503440976 0.857531428 -0.105768576
vn -0.503440976 0.857531428 -0.105768576
vn -0.503440976 0.857531428 -0.105768576
vn 0.959106147 0.0889505893 -0.26870659
vn 0.955774784 0.109987848 0.272758454
vn 0.546639442 -0.695028007 0.467034787
vn 0.0730653331 0.784593403 0.61569047
vn -0.503440976 0.857531428 -0.105768576
vn -0.503440976 0.857531428 -0.105768576
vn 0.0730653331 0.784593403 0.61569047
vn -0.565852523 -0.0225997753 0.824196696
vn -0.385706842 -0.70178169 0.598943055
vn -0.565852523 -0.0225997753 0.824196696
vn 0.0730653331 0.784593403 0.61569047
vn -0.503440976 0.857531428 -0.105768576
vn -0.565852523 -0.0225997753 0.824196696
vn -0.572003543 -0.817463696 0.0675658062
vn -0.616916299 -0.641026378 -0.456617564
vn -0.843764782 -0.154699787 -0.513934791
vn -0.503440976 0.857531428 -0.105768576
vn -0.503440976 0.857531428 -0.105768576
vn -0.572003543 -0.817463696 0.0675658062
vn 0.546639442 -0.695028007 0.467034787
vn -0.385706842 -0.70178169 0.598943055
vn 0.410224289 -0.66043818 -0.628917813
vn 0.568014383 0.315323472 -0.760217607
vn 0.230831742 -0.476052105 -0.848581791
vn 0.568014383 0.315323472 -0.760217607
vn 0.912653387 -0.399559766 0.0861141905
vn 0.163077295 -0.983119428 -0.0829586387
vn 0.263280511 -0.693394005 0.670737028
vn 0.937523127 0.301245332 0.174074069
vn 0.568014383 0.315323472 -0.760217607
vn 0.568014383 0.315323472 -0.760217607
vn -0.237820283 0.969867587 -0.0528994575
vn -0.0708354786 0.0642010197 0.99541986
vn 0.309333503 0.776462615 0.549015939
vn -0.237820283 0.969867587 -0.0528994575
vn -0.237820283 0.969867587 -0.0528994575
vn 0.568014383 0.315323472 -0.760217607
vn -0.849822998 -0.215131611 0.481164575
vn -0.790497363 0.547834992 -0.27384451
vn -0.803257704 -0.595358431 0.0180402193
vn -0.709031284 -0.115259454 -0.695693851
vn 0.568014383 0.315323472 -0.760217607
vn 0.230831742 -0.476052105 -0.848581791
vn 0.163077295 -0.983119428 -0.0829586387
vn 0.263280511 -0.693394005 0.670737028
vn -0.695697129 -0.493729651 -0.521762908
vn -0.0827352107 -0.844165862 -0.529659152
vn -0.062146835 -0.958350956 -0.278749228
vn -0.597085238 -0.776786387 0.200230047
vn -0.953425884 0.119003639 -0.277159184
vn 0.228040919 -0.972202241 -0.0531062931
vn -0.80796814 -0.204243451 0.552695274
vn -0.724277854 0.678744674 0.1213561
vn 0.10977073 -0.782618642 0.612746656
vn 0.458102584 -0.842747867 -0.282697827
vn -0.626315713 0.408174336 0.664170504
vn -0.256974459 0.835924268 0.484968752
vn -0.115841486 0.478704542 0.870300293
vn -0.0535840802 -0.19321312 0.979692459
vn 0.73720789 -0.554798901 0.385645986
vn 0.648517013 0.103440732 0.754139066
vn 0.332820028 0.765320659 0.550921977
vn -0.115127273 0.851923704 0.510853887
vn 0.891971767 0.442124605 0.0944050699
vn 0.935290337 -0.250308156 -0.25015536
vn 0.237336561 0.970203876 -0.0487413704
vn -0.0789270848 0.916127741 0.393039942
vn 0.564641058 -0.112634897 -0.817614734
vn 0.355284631 -0.725538492 -0.589378178
vn 0.516751349 0.593501151 -0.617028713
vn -0.175985456 -0.19317995 -0.965251625
vn 0.0805597752 -0.758145392 -0.647090137
vn -0.340726376 0.492776155 -0.800672948
vn -0.695697129 -0.493729651 -0.521762908
vn -0.0827352107 -0.844165862 -0.529659152
vn -0.953425884 0.119003639 -0.277159184
vn -0.292369366 0.924812198 -0.243398264
vn -0.136223286 0.928901315 0.344362527
vn -0.724277854 0.678744674 0.1213561
vn -0.241149157 0.90211153 0.357829303
vn 0.0805597752 -0.758145392 -0.647090137
vn 0.181990087 -0.89051342 -0.416971833
vn -0.0827352107 -0.844165862 -0.529659152
vn 0.355284631 -0.725538492 -0.589378178
vn -0.062146835 -0.958350956 -0.278749228
vn 0.458102584 -0.842747867 -0.282697827
vn 0.228040919 -0.972202241 -0.0531062931
vn 0.578340113 -0.574990332 -0.578713179
vn 0.578393996 -0.575255692 0.578395426
vn -0.578088224 -0.575510263 0.578447819
vn -0.578035235 -0.575244963 -0.578764617
vn -0.578035235 -0.575244963 -0.578764617
vn -0.578088224 -0.575510263 0.578447819
vn -0.57660836 0.579191089 0.576246917
vn -0.576661706 0.579454601 -0.575928569
vn 0.576354861 0.579709351 -0.575979352
vn 0.576301515 0.579444826 0.576298654
vn 0.578393996 -0.575255692 0.578395426
vn 0.578340113 -0.574990332 -0.578713179
vt 1 0
vt 0 0
vt 0 1
vt 1 1
vt 0.299728423 0.557805181
vt 0.2838929 0.606914878
vt 0.356266916 0.580684483
vt 0 0
vt 0 1
vt 1 1
vt 1 0
vt 0 0
vt 0 1
vt 1 1
vt 1 0
vt 0.124814905 0.44334209
vt 0.118616201 0.401267231
vt 0.0861718059 0.471714288
vt 0.0963441283 0.523436964
vt 0.12404345 0.513558984
vt 0.135907784 0.544440448
vt 0.120286338 0.563510835
vt 0.158848673 0.555532932
vt 0.146213502 0.582248449
vt 0.176448822 0.474894851
vt 0.239418179 0.434507072
vt 0.257192254 0.309374332
vt 0.26319176 0.510982394
vt 0.209190935 0.549677908
vt 0.232188165 0.580786705
vt 0.293767959 0.531325042
vt 0.313863426 0.425201625
vt 0.416488439 0.35257256
vt 0.384465188 0.460644573
vt 0.369054586 0.506652415
vt 0.430710912 0.535826564
vt 0.455941051 0.484722853
vt 0.525609136 0.393635511
vt 0.517294109 0.464441031
vt 0.509881139 0.497029006
vt 0.477968097 0.535956562
vt 0.501374841 0.52438581
vt 0.096035175 0.360071748
vt 0.15821524 0.31915009
vt 0.115453824 0.305655301
vt 0.119134724 0.370276809
vt 0.152835011 0.86863029
vt 0.0939186066 0.864046931
vt 0.140088722 0.915301621
vt 0.172751039 0.810195088
vt 0.0854217336 0.801507235
vt 0.168667912 0.720180154
vt 0.267806292 0.825225294
vt 0.22116673 0.898582578
vt 0.269867152 0.952836931
vt 0.317025542 0.900582373
vt 0.384324551 0.658883631
vt 0.337604254 0.785474718
vt 0.392370015 0.866550922
vt 0.407081395 0.818750143
vt 0.42686227 0.89829278
vt 0.483155519 0.765338302
vt 0.473884106 0.852499604
vt 0.528671265 0.813928008
vt 0.520630717 0.850928068
vt 0.488465548 0.885154665
vt 0.550200045 0.867333055
vt 0.56684947 0.811125517
vt 0.554749727 0.77163136
vt 0.686026514 0.0549410842
vt 0.670666218 0.0136694172
vt 0.605749547 0.0259770006
vt 0.604367435 0.0697739571
vt 0.70044446 0.122742817
vt 0.51222074 0.0236789174
vt 0.604156375 0.126979768
vt 0.686249852 0.222628832
vt 0.507193506 0.0692966282
vt 0.37128517 0.0260244999
vt 0.599298716 0.202273339
vt 0.409119397 0.257972002
vt 0.502224803 0.208169535
vt 0.506104648 0.127339482
vt 0.408470303 0.0697762072
vt 0.412565231 0.12731421
vt 0.385483384 0.20441401
vt 0.409119397 0.257972002
vt 0.353247046 0.127898857
vt 0.346717596 0.0732704997
vt 0.277702332 0.203784019
vt 0.409119397 0.257972002
vt 0.265095145 0.0788707286
vt 0.260662764 0.038986586
vt 0.26936686 0.127689004
vt 0.187174499 0.0776317939
vt 0.194613993 0.0399126634
vt 0.184220985 0.132251173
vt 0.131931037 0.0615768768
vt 0.152735621 0.0236304998
vt 0.11708954 0.130985126
vt 0.195079327 0.207496494
vt 0.409119397 0.257972002
vt 0.138324335 0.228588164
vt 0.409119397 0.257972002
vt 0.788931131 0.303811014
vt 0.835633576 0.324573785
vt 0.823864341 0.275867701
vt 0.791821063 0.350000292
vt 0.871000528 0.283185244
vt 0.847442627 0.383494854
vt 0.893191576 0.333269477
vt 0 0
vt 0 1
vt 1 1
vt 1 0
vt 0 0
vt 0 1
vt 1 1
vt 1 0
vt 0 0
vt 0 1
vt 1 1
vt 1 0
g submesh0
f 1/1/1 2/2/2 3/3/3
f 1/1/1 3/3/3 4/4/4
g submesh1
f 5/5/5 6/6/6 7/7/7
f 8/8/8 9/9/9 10/10/10
f 8/8/8 10/10/10 11/11/11
f 12/12/12 13/13/13 14/14/14
f 12/12/12 14/14/14 15/15/15
f 16/16/16 17/17/17 18/18/18
f 16/16/16 18/18/18 19/19/19
f 16/16/16 19/19/19 20/20/20
f 21/21/21 20/20/20 19/19/19
f 21/21/21 19/19/19 22/22/22
f 23/23/23 21/21/21 22/22/22
f 23/23/23 22/22/22 24/24/24
f 25/25/25 21/21/21 23/23/23
f 25/25/25 20/20/20 21/21/21
f 25/25/25 16/16/16 20/20/20
f 26/26/26 16/16/16 25/25/25
f 27/27/27 16/16/16 26/26/26
f 25/25/25 28/28/28 26/26/26
f 25/25/25 29/29/29 28/28/28
f 28/28/28 29/29/29 30/30/30
f 28/28/28 30/30/30 31/31/31
f 32/32/32 28/28/28 31/31/31
f 32/32/32 26/26/26 28/28/28
f 26/26/26 32/32/32 27/27/27
f 32/32/32 33/33/33 27/27/27
f 32/32/32 34/34/34 33/33/33
f 35/35/35 34/34/34 32/32/32
f 36/36/36 34/34/34 35/35/35
f 36/36/36 37/37/37 34/34/34
f 33/33/33 34/34/34 37/37/37
f 33/33/33 37/37/37 38/38/38
f 39/39/39 38/38/38 37/37/37
f 39/39/39 37/37/37 40/40/40
f 40/40/40 37/37/37 41/41/41
f 40/40/40 41/41/41 42/42/42
f 43/43/43 44/44/44 45/45/45
f 46/46/46 44/44/44 43/43/43
f 47/47/47 48/48/48 49/49/49
f 50/50/50 48/48/48 47/47/47
f 50/50/50 51/51/51 48/48/48
f 50/50/50 52/52/52 51/51/51
f 53/53/53 52/52/52 50/50/50
f 53/53/53 50/50/50 54/54/54
f 53/53/53 54/54/54 55/55/55
f 53/53/53 55/55/55 56/56/56
f 53/53/53 57/57/57 52/52/52
f 58/58/58 57/57/57 53/53/53
f 59/59/59 58/58/58 53/53/53
f 60/60/60 57/57/57 58/58/58
f 59/59/59 60/60/60 58/58/58
f 61/61/61 60/60/60 59/59/59
f 57/57/57 60/60/60 62/62/62
f 61/61/61 63/63/63 60/60/60
f 62/62/62 60/60/60 63/63/63
f 64/64/64 62/62/62 63/63/63
f 65/65/65 64/64/64 63/63/63
f 65/65/65 63/63/63 66/66/66
f 67/67/67 65/65/65 66/66/66
f 68/68/68 65/65/65 67/67/67
f 68/68/68 64/64/64 65/65/65
f 68/68/68 62/62/62 64/64/64
f 68/68/68 69/69/69 62/62/62
f 70/70/70 71/71/71 72/72/72
f 70/70/70 72/72/72 73/73/73
f 74/74/74 70/70/70 73/73/73
f 73/73/73 72/72/72 75/75/75
f 74/74/74 73/73/73 76/76/76
f 76/76/76 77/77/77 74/74/74
f 73/73/73 75/75/75 78/78/78
f 76/76/76 73/73/73 78/78/78
f 78/78/78 75/75/75 79/79/79
f 76/76/76 80/80/80 77/77/77
f 81/81/81 77/77/77 80/80/80
f 82/82/82 81/81/81 80/80/80
f 76/76/76 82/82/82 80/80/80
f 76/76/76 78/78/78 83/83/83
f 76/76/76 83/83/83 82/82/82
f 83/83/83 78/78/78 84/84/84
f 78/78/78 79/79/79 84/84/84
f 85/85/85 82/82/82 83/83/83
f 83/83/83 84/84/84 85/85/85
f 85/85/85 86/86/86 82/82/82
f 82/82/82 86/86/86 87/87/87
f 88/88/88 85/85/85 84/84/84
f 86/86/86 85/85/85 88/88/88
f 79/79/79 89/89/89 84/84/84
f 88/88/88 84/84/84 89/89/89
f 90/90/90 86/86/86 88/88/88
f 91/91/91 86/86/86 90/90/90
f 79/79/79 92/92/92 89/89/89
f 79/79/79 93/93/93 92/92/92
f 89/89/89 94/94/94 88/88/88
f 89/89/89 92/92/92 94/94/94
f 90/90/90 88/88/88 94/94/94
f 93/93/93 95/95/95 92/92/92
f 95/95/95 94/94/94 92/92/92
f 93/93/93 96/96/96 95/95/95
f 97/97/97 90/90/90 94/94/94
f 95/95/95 97/97/97 94/94/94
f 96/96/96 98/98/98 95/95/95
f 97/97/97 95/95/95 98/98/98
f 96/96/96 99/99/99 98/98/98
f 97/97/97 98/98/98 100/100/100
f 97/97/97 101/101/101 90/90/90
f 100/100/100 101/101/101 97/97/97
f 101/101/101 102/102/102 90/90/90
f 100/100/100 103/103/103 101/101/101
f 104/104/104 101/101/101 103/103/103
f 105/105/105 106/106/106 107/107/107
f 108/108/108 106/106/106 105/105/105
f 107/107/107 106/106/106 109/109/109
f 110/110/110 106/106/106 108/108/108
f 109/109/109 106/106/106 111/111/111
f 111/111/111 106/106/106 110/110/110
g submesh2
f 112/112/112 113/113/113 114/114/114
f 112/112/112 114/114/114 115/115/115
g submesh3
f 116/116/116 117/117/117 118/118/118
f 116/116/116 118/118/118 119/119/119
g submesh4
f 120/120/120 121/121/121 122/122/122
f 120/120/120 122/122/122 123/123/123
