# SkullSpike01_COL
v 0.0193831325 -0.000584847992 -0.0225927476
v -0.0229787249 -0.000584847992 -0.0225927457
v -0.0181149896 1.61197615 -0.0145212989
v 0.0129520437 1.61197615 -0.0145213017
v 0.00173951196 0.952741563 0.0520698577
v -0.0484414846 0.925721407 -0.0191303771
v 0.0251092464 0.890437603 0.00251393998
v 0.0193831325 -0.000584847992 0.0204690378
v 0.0129520437 1.61197615 0.0140258139
v -0.0181149896 1.61197615 0.0140258167
v -0.0229787249 -0.000584847992 0.0204690378
v -0.0181149896 1.61197615 -0.0145212989
v -0.0181149896 1.61197615 0.0140258167
v 0.0129520437 1.61197615 0.0140258139
v 0.0129520437 1.61197615 -0.0145213017
v 0.0250358861 1.37275767 -0.0782594159
v -0.05080387 1.367679 -0.0189154837
v -0.0637658089 1.37979305 -0.0599162988
v -0.081447728 1.42550552 -0.0680814832
v 0.00830340665 1.44791543 -0.108095497
v -0.00754346047 1.49234927 -0.0890476629
v -0.0813247189 1.46768403 -0.0605635084
v 0.0121216374 1.51142883 -0.0285079945
v -0.0642816052 1.48808861 0.000424854225
v 0.0573258363 1.43537331 -0.0340698361
v 0.0638796762 1.4287771 0.0464012548
v 0.0490420088 1.35204029 0.0693001151
v 0.0337760672 1.49530172 0.045688238
v 0.0121216374 1.51142883 -0.0285079945
v -0.0642816052 1.48808861 0.000424854225
v -0.028291896 1.48224831 0.0686362386
v 0.0247489791 1.42310417 0.0858489871
v -0.00680868234 1.35930765 0.0692092627
v -0.0366716348 1.43590605 0.0738293901
v -0.028291896 1.48224831 0.0686362386
v -0.0642816052 1.48808861 0.000424854225
v -0.0731598511 1.4317174 0.0027293209
v -0.05080387 1.367679 -0.0189154837
v -0.0637658089 1.37979305 -0.0599162988
v -0.081447728 1.42550552 -0.0680814832
v -0.0642816052 1.48808861 0.000424854225
v -0.0813247189 1.46768403 -0.0605635084
v -0.05080387 1.367679 -0.0189154837
v 0.0490420088 1.35204029 0.0693001151
v -0.00680868234 1.35930765 0.0692092627
v 0.0250358861 1.37275767 -0.0782594159
v 0.00559959747 1.23668003 -0.0835471377
v -0.0432648733 1.19136286 -0.0571146868
v -0.048106391 1.24362612 0.00691023702
v -0.0778808221 1.18757367 0.0214219205
v -0.0528234579 1.09348345 0.0526594184
v 0.0089422306 1.11841285 -0.0796834603
v 0.0149620194 1.17045259 -0.103823751
v 0.00559959747 1.23668003 -0.0835471377
v 0.00333459373 1.17922127 0.0931298435
v -0.0258926116 1.09409952 0.0773656443
v -0.048106391 1.24362612 0.00691023702
v 0.0831593052 1.12578344 -0.023944445
v 0.0105029624 1.24568057 0.0466158055
v 0.00559959747 1.23668003 -0.0835471377
v 0.0693185478 1.24764478 -0.0452503003
v 0.0712106824 1.20635474 0.0212609395
v 0.100833051 1.18837905 -0.0454226136
v 0.0149620194 1.17045259 -0.103823751
v 0.0089422306 1.11841285 -0.0796834603
v 0.0693185478 1.24764478 -0.0452503003
v 0.0712106824 1.20635474 0.0212609395
v 0.00559959747 1.23668003 -0.0835471377
v -0.0258926116 1.09409952 0.0773656443
v -0.0528234579 1.09348345 0.0526594184
v 0.0831593052 1.12578344 -0.023944445
v 0.0089422306 1.11841285 -0.0796834603
v 0.0593236126 0.9290061 -0.136069432
v 0.0255433749 0.887281418 -0.158052638
v 0.0185754951 0.978842378 -0.148358226
v 0.0684053972 0.895826519 -0.0714611188
v 0.022269031 0.843219638 -0.0946101844
v 0.0251092464 0.890437603 0.00251393998
v 0.0722843707 0.983066738 -0.0466942526
v 0.0593236126 0.9290061 -0.136069432
v 0.0185754951 0.978842378 -0.148358226
v 0.038167648 1.02587414 -0.0878841728
v 0.00173951196 0.952741563 0.0520698577
v 0.0314129069 1.00699866 -0.0098464163
v 0.038167648 1.02587414 -0.0878841728
v -0.0230934415 1.00992918 -0.0442924649
v 0.0185754951 0.978842378 -0.148358226
v -0.0484414846 0.925721407 -0.0191303771
v -0.053498175 0.97104907 -0.105523594
v -0.0645367429 0.881254435 -0.0898194909
v -0.056204278 0.916767955 -0.140863895
v 0.0185754951 0.978842378 -0.148358226
v 0.0255433749 0.887281418 -0.158052638
v 0.022269031 0.843219638 -0.0946101844
v 0.0251092464 0.890437603 0.00251393998
v 0.0193831325 -0.000584847992 -0.0225927476
v 0.0193831325 -0.000584847992 0.0204690378
v -0.0229787249 -0.000584847992 0.0204690378
v -0.0229787249 -0.000584847992 -0.0225927457
v -0.0229787249 -0.000584847992 -0.0225927457
v -0.0229787249 -0.000584847992 0.0204690378
v -0.0181149896 1.61197615 0.0140258167
v -0.0181149896 1.61197615 -0.0145212989
v 0.0129520437 1.61197615 -0.0145213017
v 0.0129520437 1.61197615 0.0140258139
v 0.0193831325 -0.000584847992 0.0204690378
v 0.0193831325 -0.000584847992 -0.0225927476
vn 0.578340113 -0.574990332 -0.578713179
vn -0.578035235 -0.575244963 -0.578764617
vn -0.576661706 0.579454601 -0.575928569
vn 0.576354861 0.579709351 -0.575979352
vn -0.0708354786 0.0642010197 0.99541986
vn -0.849822998 -0.215131611 0.481164575
vn 0.263280511 -0.693394005 0.670737028
vn 0.578393996 -0.575255692 0.578395426
vn 0.576301515 0.579444826 0.576298654
vn -0.57660836 0.579191089 0.576246917
vn -0.578088224 -0.575510263 0.578447819
vn -0.576661706 0.579454601 -0.575928569
vn -0.57660836 0.579191089 0.576246917
vn 0.576301515 0.579444826 0.576298654
vn 0.576354861 0.579709351 -0.575979352
vn 0.410224289 -0.66043818 -0.628917813
vn -0.572003543 -0.817463696 0.0675658062
vn -0.616916299 -0.641026378 -0.456617564
vn -0.843764782 -0.154699787 -0.513934791
vn 0.276197851 0.104970448 -0.955351293
vn 0.07266251 0.724695742 -0.685227156
vn -0.503440976 0.857531428 -0.105768576
vn -0.503440976 0.857531428 -0.105768576
vn -0.503440976 0.857531428 -0.105768576
vn 0.959106147 0.0889505893 -0.26870659
vn 0.955774784 0.109987848 0.272758454
vn 0.546639442 -0.695028007 0.467034787
vn 0.0730653331 0.784593403 0.61569047
vn -0.503440976 0.857531428 -0.105768576
vn -0.503440976 0.857531428 -0.105768576
vn 0.0730653331 0.784593403 0.61569047
vn -0.565852523 -0.0225997753 0.824196696
vn -0.385706842 -0.70178169 0.598943055
vn -0.565852523 -0.0225997753 0.824196696
vn 0.0730653331 0.784593403 0.61569047
vn -0.503440976 0.857531428 -0.105768576
vn -0.565852523 -0.0225997753 0.824196696
vn -0.572003543 -0.817463696 0.0675658062
vn -0.616916299 -0.641026378 -0.456617564
vn -0.843764782 -0.154699787 -0.513934791
vn -0.503440976 0.857531428 -0.105768576
vn -0.503440976 0.857531428 -0.105768576
vn -0.572003543 -0.817463696 0.0675658062
vn 0.546639442 -0.695028007 0.467034787
vn -0.385706842 -0.70178169 0.598943055
vn 0.410224289 -0.66043818 -0.628917813
vn 0.197033912 0.812220633 -0.549067795
vn -0.816984594 0.0435444601 -0.575013161
vn -0.600628555 0.794717371 0.0875768587
vn -0.976698339 0.130154088 0.170646578
vn -0.665284932 -0.711170971 0.227226228
vn -0.112062 -0.728762627 -0.675534725
vn -0.00452744123 -0.106844641 -0.994265497
vn 0.197033912 0.812220633 -0.549067795
vn 0.102394499 0.126328841 0.986689568
vn -0.070770435 -0.684568763 0.725504816
vn -0.600628555 0.794717371 0.0875768587
vn 0.764659762 -0.64383316 -0.0278299842
vn 0.0791789293 0.828072906 0.555000842
vn 0.197033912 0.812220633 -0.549067795
vn 0.197033912 0.812220633 -0.549067795
vn 0.798591733 0.252184272 0.546492696
vn 0.951912165 0.0453388132 -0.302997679
vn -0.00452744123 -0.106844641 -0.994265497
vn -0.112062 -0.728762627 -0.675534725
vn 0.197033912 0.812220633 -0.549067795
vn 0.798591733 0.252184272 0.546492696
vn 0.197033912 0.812220633 -0.549067795
vn -0.070770435 -0.684568763 0.725504816
vn -0.665284932 -0.711170971 0.227226228
vn 0.764659762 -0.64383316 -0.0278299842
vn -0.112062 -0.728762627 -0.675534725
vn 0.568014383 0.315323472 -0.760217607
vn 0.230831742 -0.476052105 -0.848581791
vn 0.568014383 0.315323472 -0.760217607
vn 0.912653387 -0.399559766 0.0861141905
vn 0.163077295 -0.983119428 -0.0829586387
vn 0.263280511 -0.693394005 0.670737028
vn 0.937523127 0.301245332 0.174074069
vn 0.568014383 0.315323472 -0.760217607
vn 0.568014383 0.315323472 -0.760217607
vn -0.237820283 0.969867587 -0.0528994575
vn -0.0708354786 0.0642010197 0.99541986
vn 0.309333503 0.776462615 0.549015939
vn -0.237820283 0.969867587 -0.0528994575
vn -0.237820283 0.969867587 -0.0528994575
vn 0.568014383 0.315323472 -0.760217607
vn -0.849822998 -0.215131611 0.481164575
vn -0.790497363 0.547834992 -0.27384451
vn -0.803257704 -0.595358431 0.0180402193
vn -0.709031284 -0.115259454 -0.695693851
vn 0.568014383 0.315323472 -0.760217607
vn 0.230831742 -0.476052105 -0.848581791
vn 0.163077295 -0.983119428 -0.0829586387
vn 0.263280511 -0.693394005 0.670737028
vn 0.578340113 -0.574990332 -0.578713179
vn 0.578393996 -0.575255692 0.578395426
vn -0.578088224 -0.575510263 0.578447819
vn -0.578035235 -0.575244963 -0.578764617
vn -0.578035235 -0.575244963 -0.578764617
vn -0.578088224 -0.575510263 0.578447819
vn -0.57660836 0.579191089 0.576246917
vn -0.576661706 0.579454601 -0.575928569
vn 0.576354861 0.579709351 -0.575979352
vn 0.576301515 0.579444826 0.576298654
vn 0.578393996 -0.575255692 0.578395426
vn 0.578340113 -0.574990332 -0.578713179
vt 1 0
vt 0 0
vt 0 1
vt 1 1
vt 0.299728423 0.557805181
vt 0.2838929 0.606914878
vt 0.356266916 0.580684483
vt 0 0
vt 0 1
vt 1 1
vt 1 0
vt 0 0
vt 0 1
vt 1 1
vt 1 0
vt 0.124814905 0.44334209
vt 0.118616201 0.401267231
vt 0.0861718059 0.471714288
vt 0.0963441283 0.523436964
vt 0.12404345 0.513558984
vt 0.135907784 0.544440448
vt 0.120286338 0.563510835
vt 0.158848673 0.555532932
vt 0.146213502 0.582248449
vt 0.176448822 0.474894851
vt 0.239418179 0.434507072
vt 0.257192254 0.309374332
vt 0.26319176 0.510982394
vt 0.209190935 0.549677908
vt 0.232188165 0.580786705
vt 0.293767959 0.531325042
vt 0.313863426 0.425201625
vt 0.416488439 0.35257256
vt 0.384465188 0.460644573
vt 0.369054586 0.506652415
vt 0.430710912 0.535826564
vt 0.455941051 0.484722853
vt 0.525609136 0.393635511
vt 0.517294109 0.464441031
vt 0.509881139 0.497029006
vt 0.477968097 0.535956562
vt 0.501374841 0.52438581
vt 0.096035175 0.360071748
vt 0.15821524 0.31915009
vt 0.115453824 0.305655301
vt 0.119134724 0.370276809
vt 0.878035724 0.731081963
vt 0.891098976 0.654844761
vt 0.783071756 0.715626717
vt 0.808105826 0.622534513
vt 0.801614583 0.464238286
vt 0.932537079 0.591959357
vt 0.951337814 0.653682292
vt 0.932177722 0.698959053
vt 0.689057708 0.609917581
vt 0.677476227 0.468618095
vt 0.697691262 0.709340096
vt 0.584381938 0.563138366
vt 0.671727538 0.684970319
vt 0.621649683 0.757959187
vt 0.608882725 0.727365494
vt 0.609870017 0.655672073
vt 0.548601151 0.65134871
vt 0.509928286 0.646388113
vt 0.546479464 0.55272305
vt 0.551580191 0.697051883
vt 0.570784926 0.68507427
vt 0.53366071 0.709679842
vt 0.198631853 0.612713456
vt 0.160602808 0.617621779
vt 0.201214522 0.666265726
vt 0.171639323 0.675800979
vt 0.152835011 0.86863029
vt 0.0939186066 0.864046931
vt 0.140088722 0.915301621
vt 0.172751039 0.810195088
vt 0.0854217336 0.801507235
vt 0.168667912 0.720180154
vt 0.267806292 0.825225294
vt 0.22116673 0.898582578
vt 0.269867152 0.952836931
vt 0.317025542 0.900582373
vt 0.384324551 0.658883631
vt 0.337604254 0.785474718
vt 0.392370015 0.866550922
vt 0.407081395 0.818750143
vt 0.42686227 0.89829278
vt 0.483155519 0.765338302
vt 0.473884106 0.852499604
vt 0.528671265 0.813928008
vt 0.520630717 0.850928068
vt 0.488465548 0.885154665
vt 0.550200045 0.867333055
vt 0.56684947 0.811125517
vt 0.554749727 0.77163136
vt 0 0
vt 0 1
vt 1 1
vt 1 0
vt 0 0
vt 0 1
vt 1 1
vt 1 0
vt 0 0
vt 0 1
vt 1 1
vt 1 0
g submesh0
f 1/1/1 2/2/2 3/3/3
f 1/1/1 3/3/3 4/4/4
g submesh1
f 5/5/5 6/6/6 7/7/7
f 8/8/8 9/9/9 10/10/10
f 8/8/8 10/10/10 11/11/11
f 12/12/12 13/13/13 14/14/14
f 12/12/12 14/14/14 15/15/15
f 16/16/16 17/17/17 18/18/18
f 16/16/16 18/18/18 19/19/19
f 16/16/16 19/19/19 20/20/20
f 21/21/21 20/20/20 19/19/19
f 21/21/21 19/19/19 22/22/22
f 23/23/23 21/21/21 22/22/22
f 23/23/23 22/22/22 24/24/24
f 25/25/25 21/21/21 23/23/23
f 25/25/25 20/20/20 21/21/21
f 25/25/25 16/16/16 20/20/20
f 26/26/26 16/16/16 25/25/25
f 27/27/27 16/16/16 26/26/26
f 25/25/25 28/28/28 26/26/26
f 25/25/25 29/29/29 28/28/28
f 28/28/28 29/29/29 30/30/30
f 28/28/28 30/30/30 31/31/31
f 32/32/32 28/28/28 31/31/31
f 32/32/32 26/26/26 28/28/28
f 26/26/26 32/32/32 27/27/27
f 32/32/32 33/33/33 27/27/27
f 32/32/32 34/34/34 33/33/33
f 35/35/35 34/34/34 32/32/32
f 36/36/36 34/34/34 35/35/35
f 36/36/36 37/37/37 34/34/34
f 33/33/33 34/34/34 37/37/37
f 33/33/33 37/37/37 38/38/38
f 39/39/39 38/38/38 37/37/37
f 39/39/39 37/37/37 40/40/40
f 40/40/40 37/37/37 41/41/41
f 40/40/40 41/41/41 42/42/42
f 43/43/43 44/44/44 45/45/45
f 46/46/46 44/44/44 43/43/43
f 47/47/47 48/48/48 49/49/49
f 48/48/48 50/50/50 49/49/49
f 48/48/48 51/51/51 50/50/50
f 51/51/51 48/48/48 52/52/52
f 52/52/52 48/48/48 53/53/53
f 53/53/53 48/48/48 54/54/54
f 55/55/55 50/50/50 51/51/51
f 55/55/55 51/51/51 56/56/56
f 55/55/55 57/57/57 50/50/50
f 56/56/56 58/58/58 55/55/55
f 55/55/55 59/59/59 57/57/57
f 59/59/59 60/60/60 57/57/57
f 59/59/59 61/61/61 60/60/60
f 59/59/59 62/62/62 61/61/61
f 62/62/62 59/59/59 55/55/55
f 58/58/58 62/62/62 55/55/55
f 62/62/62 58/58/58 63/63/63
f 58/58/58 64/64/64 63/63/63
f 58/58/58 65/65/65 64/64/64
f 66/66/66 63/63/63 64/64/64
f 63/63/63 66/66/66 67/67/67
f 66/66/66 64/64/64 68/68/68
f 69/69/69 70/70/70 71/71/71
f 72/72/72 71/71/71 70/70/70
f 73/73/73 74/74/74 75/75/75
f 76/76/76 74/74/74 73/73/73
f 76/76/76 77/77/77 74/74/74
f 76/76/76 78/78/78 77/77/77
f 79/79/79 78/78/78 76/76/76
f 79/79/79 76/76/76 80/80/80
f 79/79/79 80/80/80 81/81/81
f 79/79/79 81/81/81 82/82/82
f 79/79/79 83/83/83 78/78/78
f 84/84/84 83/83/83 79/79/79
f 85/85/85 84/84/84 79/79/79
f 86/86/86 83/83/83 84/84/84
f 85/85/85 86/86/86 84/84/84
f 87/87/87 86/86/86 85/85/85
f 83/83/83 86/86/86 88/88/88
f 87/87/87 89/89/89 86/86/86
f 88/88/88 86/86/86 89/89/89
f 90/90/90 88/88/88 89/89/89
f 91/91/91 90/90/90 89/89/89
f 91/91/91 89/89/89 92/92/92
f 93/93/93 91/91/91 92/92/92
f 94/94/94 91/91/91 93/93/93
f 94/94/94 90/90/90 91/91/91
f 94/94/94 88/88/88 90/90/90
f 94/94/94 95/95/95 88/88/88
g submesh2
f 96/96/96 97/97/97 98/98/98
f 96/96/96 98/98/98 99/99/99
g submesh3
f 100/100/100 101/101/101 102/102/102
f 100/100/100 102/102/102 103/103/103
g submesh4
f 104/104/104 105/105/105 106/106/106
f 104/104/104 106/106/106 107/107/107
