# SlotMachine_LOD2
v 0.215613604 1.51032639 0.108141243
v -0.211679474 1.51036513 -0.168965429
v -0.214105502 1.51114094 0.107917808
v 0.21455206 1.51083958 -0.16867359
v -0.212648571 1.13086474 0.209261864
v 0.216932788 0.675810218 0.237836063
v 0.215451211 1.13095927 0.208606616
v -0.219111815 0.675137341 0.236448839
v -0.211679474 1.51036513 -0.168965429
v -0.212648571 1.13086474 0.209261864
v -0.214105502 1.51114094 0.107917808
v -0.217075527 0.674804568 -0.155499607
v -0.219111815 0.675137341 0.236448839
v 0.21455206 1.51083958 -0.16867359
v 0.216834515 0.675161004 -0.154809743
v 0.215451211 1.13095927 0.208606616
v 0.215613604 1.51032639 0.108141243
v 0.216932788 0.675810218 0.237836063
v -0.20747903 0.622555554 0.288839787
v -0.296255022 0.699955642 0.290872127
v -0.298353136 0.623601675 0.290278614
v -0.209165618 0.699920952 0.290175855
v -0.297803611 0.699850321 -0.207619905
v -0.209956512 0.698341608 -0.207720459
v -0.297825336 0.622715831 -0.209228024
v -0.298353136 0.623601675 0.290278614
v -0.297825336 0.622715831 -0.209228024
v -0.208310366 0.623692811 -0.209306702
v 0.212767676 0.699405134 -0.209093899
v 0.301578373 0.622304976 -0.209258005
v 0.212983951 0.623227417 -0.209699601
v 0.301901042 0.69971627 -0.20931907
v 0.302759618 0.699693918 0.288811237
v 0.214077115 0.696337819 0.288550228
v 0.302980542 0.623156488 0.289836168
v 0.301578373 0.622304976 -0.209258005
v 0.302980542 0.623156488 0.289836168
v 0.213525772 0.622938395 0.29101938
v 0.259878546 1.39579833 0.133898601
v 0.259735584 0.821820438 0.134680584
v 0.439043343 0.822101653 0.133913383
v 0.439180493 1.39657664 0.134048194
v 0.259458601 1.39695275 -0.11928837
v 0.439252943 1.39680004 -0.118511088
v 0.439252943 1.39680004 -0.118511088
v 0.439077407 0.821509838 -0.1183616
v 0.259658247 0.821193635 -0.118911937
v 0.439252943 1.39680004 -0.118511088
v 0.439077407 0.821509838 -0.1183616
v 0.259458601 1.39695275 -0.11928837
v -0.251755208 1.33794129 0.174097493
v -0.252955854 0.708012104 -0.156598404
v -0.25224641 0.708561182 0.182444349
v -0.252069652 1.34882438 -0.148817971
v -0.251496285 1.44327819 -0.0758055821
v -0.250571072 1.45436132 0.0715530291
v -0.224241883 0.619455457 -0.160672069
v -0.286010236 0.00245472952 -0.160013154
v -0.224443853 0.00125510676 -0.161205977
v -0.286492527 0.620389998 -0.160756364
v -0.286508828 0.00154329184 -0.211592481
v -0.285725355 0.619602799 -0.212598354
v -0.225035876 0.00118621648 -0.211654618
v -0.225101635 0.619243324 -0.212531626
v -0.224443853 0.00125510676 -0.161205977
v -0.224241883 0.619455457 -0.160672069
v 0.22902821 0.00147038698 -0.161054254
v 0.291279852 0.61980027 -0.160718769
v 0.229318053 0.620390296 -0.160655126
v 0.291297972 0.00130381563 -0.161371574
v 0.2911883 0.00089851534 -0.210821912
v 0.290055841 0.619165957 -0.211068943
v 0.230238929 0.000665285916 -0.211539239
v 0.229728386 0.61794126 -0.209829167
v 0.22902821 0.00147038698 -0.161054254
v 0.229318053 0.620390296 -0.160655126
v 0.224241883 0.619455457 0.243220732
v 0.286010236 0.00245465874 0.242561698
v 0.224443853 0.00125505438 0.243754521
v 0.286492527 0.620389998 0.243305027
v 0.286508828 0.00154322397 0.294141024
v 0.285725355 0.619602799 0.295147032
v 0.225035876 0.00118613325 0.294203192
v 0.225101635 0.619243324 0.295080304
v 0.224443853 0.00125505438 0.243754521
v 0.224241883 0.619455457 0.243220732
v -0.217548564 0.00147035194 0.243602887
v -0.279800177 0.61980027 0.243267506
v -0.217838392 0.620390296 0.243203878
v -0.279818296 0.00130377174 0.243920207
v -0.279708624 0.000898437924 0.293370545
v -0.278576165 0.619165957 0.293617696
v -0.218759254 0.000665204541 0.294087857
v -0.21824871 0.61794126 0.292377919
v -0.217548564 0.00147035194 0.243602887
v -0.217838392 0.620390296 0.243203878
v 0.275263965 1.72415388 0.129731938
v -0.274744898 1.47171664 0.130450711
v 0.273856878 1.47124624 0.129980952
v -0.274877518 1.72480047 0.129906133
v -0.27447027 1.47151959 0.109647557
v 0.27293855 1.72179413 0.110504575
v 0.274438053 1.47103143 0.110261969
v -0.275967777 1.72333145 0.110034548
v -0.252955854 0.708012104 -0.156598404
v -0.220416069 1.35028923 -0.147776276
v -0.219842955 0.707711518 -0.156451091
v -0.252069652 1.34882438 -0.148817971
v -0.251496285 1.44327819 -0.0758055821
v -0.221251324 1.44366574 -0.0764416233
v -0.221983761 1.45490754 0.0699489415
v -0.250571072 1.45436132 0.0715530291
v -0.220793813 1.34029448 0.173126206
v -0.251755208 1.33794129 0.174097493
v -0.219954491 0.707989812 0.179367527
v -0.25224641 0.708561182 0.182444349
v 0.253464788 1.33794129 -0.143621221
v 0.254665375 0.708012104 0.187074557
v 0.25395599 0.708561182 -0.151968211
v 0.253779143 1.34882438 0.179294243
v 0.253205776 1.44327819 0.106281869
v 0.252280563 1.45436132 -0.0410767086
v 0.254665375 0.708012104 0.187074557
v 0.22212556 1.35028923 0.178252548
v 0.221552432 0.707711518 0.186927259
v 0.253779143 1.34882438 0.179294243
v 0.253205776 1.44327819 0.106281869
v 0.22296086 1.44366574 0.106917925
v 0.223693296 1.45490754 -0.0394726098
v 0.252280563 1.45436132 -0.0410767086
v 0.222503349 1.34029448 -0.142649919
v 0.253464788 1.33794129 -0.143621221
v 0.221664041 0.707989812 -0.148891389
v 0.25395599 0.708561182 -0.151968211
vn 0.760495663 0.649336874 -0.00281819166
vn -0.5739851 0.573432624 -0.584564924
vn -0.761964083 0.647563696 -0.00849076547
vn 0.57505697 0.574529767 -0.582430303
vn -0.88038367 0.034738116 0.472988307
vn 0.692704737 0.046785295 0.719702244
vn 0.882395267 0.0320477523 0.469416201
vn -0.699708581 0.0524286442 0.712502062
vn -0.5739851 0.573432624 -0.584564924
vn -0.88038367 0.034738116 0.472988307
vn -0.761964083 0.647563696 -0.00849076547
vn -0.71128428 -0.00394539256 -0.702893436
vn -0.699708581 0.0524286442 0.712502062
vn 0.57505697 0.574529767 -0.582430303
vn 0.711456835 -0.00950861257 -0.702665448
vn 0.882395267 0.0320477523 0.469416201
vn 0.760495663 0.649336874 -0.00281819166
vn 0.692704737 0.046785295 0.719702244
vn 0.0115430569 -0.0130139859 0.999848723
vn -0.565398276 0.581221282 0.585240602
vn -0.707554698 0.0139508927 0.706520796
vn 0.00732563948 0.697570384 0.716478825
vn -0.575297236 0.587157607 -0.569455087
vn 0.0111659653 0.704893172 -0.709225595
vn -0.705755711 0.016959643 -0.708252192
vn -0.707554698 0.0139508927 0.706520796
vn -0.705755711 0.016959643 -0.708252192
vn -0.00111032987 0.0212200973 -0.999774277
vn -0.00405699247 0.708597839 -0.705600917
vn 0.707624435 -0.000722692639 -0.706588447
vn 0.00506712403 0.00796523131 -0.999955416
vn 0.576178312 0.577197194 -0.578672528
vn 0.567280591 0.591280341 0.57321918
vn -0.0220164321 0.704555869 0.709306896
vn 0.70651412 0.0173000656 0.707487404
vn 0.707624435 -0.000722692639 -0.706588447
vn 0.70651412 0.0173000656 0.707487404
vn 0.0131369065 0.0335198343 0.99935168
vn -0.00295760273 0.70503521 0.70916611
vn 0.00427650474 0.0013613248 0.999989986
vn 0.708381057 0.000540678564 0.705829978
vn 0.576366246 0.57746172 0.578221262
vn 0.00222039968 0.706619442 -0.707590282
vn 0.578782737 0.577361643 -0.57590276
vn 0.578782737 0.577361643 -0.57590276
vn 0.707307398 -0.000399496697 -0.706905961
vn 0.00330988504 -0.000336327445 -0.999994516
vn 0.578782737 0.577361643 -0.57590276
vn 0.707307398 -0.000399496697 -0.706905961
vn 0.00222039968 0.706619442 -0.707590282
vn -0.634773374 0.264745474 0.725928843
vn -0.700916171 0.0103057558 -0.713169158
vn -0.664810717 0.0104247723 0.746939123
vn -0.636419237 0.247019395 -0.730720222
vn -0.632132471 0.68321085 -0.36555627
vn -0.612211704 0.728888512 0.306461036
vn 0.708471298 0.000547636591 0.705739439
vn -0.69637543 -0.00107056263 0.717676878
vn 0.722817481 -0.000560104789 0.691038668
vn -0.712745786 0.00166306796 0.701420486
vn -0.705736756 -0.00162744604 -0.708472371
vn -0.705556273 -0.00012157629 -0.708653927
vn 0.703968346 -0.00106918567 -0.710230529
vn 0.700951636 -0.00119987724 -0.713207841
vn 0.722817481 -0.000560104789 0.691038668
vn 0.708471298 0.000547636591 0.705739439
vn -0.716830611 -0.00123816216 0.697246253
vn 0.710407734 0.000744029589 0.703790009
vn -0.700095356 -0.000132629211 0.714049339
vn 0.712350965 -0.00071985909 0.701823056
vn 0.707904696 -0.000178874761 -0.706307948
vn 0.698759437 0.0030802465 -0.715350151
vn -0.691506684 -0.000660917256 -0.72236985
vn -0.718141854 0.00218796195 -0.695893228
vn -0.716830611 -0.00123816216 0.697246253
vn -0.700095356 -0.000132629211 0.714049339
vn -0.708471298 0.000547774835 -0.705739379
vn 0.69637543 -0.00107042165 -0.717676878
vn -0.722817659 -0.000559968874 -0.691038609
vn 0.712745965 0.00166320498 -0.701420367
vn 0.705736697 -0.00162758457 0.708472371
vn 0.705556512 -0.000121688987 0.708653748
vn -0.703968287 -0.00106932269 0.710230649
vn -0.700951576 -0.00119998946 0.713207841
vn -0.722817659 -0.000559968874 -0.691038609
vn -0.708471298 0.000547774835 -0.705739379
vn 0.716830552 -0.00123803853 -0.697246253
vn -0.710407615 0.000744167075 -0.703790128
vn 0.700095296 -0.000132489469 -0.714049339
vn -0.712351084 -0.000719735166 -0.701822817
vn -0.707904577 -0.000179013063 0.706308007
vn -0.698759258 0.00308010518 0.715350211
vn 0.691506386 -0.000661057828 0.722370088
vn 0.718142033 0.00218782621 0.695893109
vn 0.716830552 -0.00123803853 -0.697246253
vn 0.700095296 -0.000132489469 -0.714049339
vn 0.000708931009 0.00130269048 0.999998927
vn 0.000466681638 0.00183050055 0.999998212
vn 0.000857108796 0.000979842269 0.999999166
vn 0.000319156301 0.00215192605 0.999997616
vn 0.000931323506 0.00138729811 -0.999998689
vn 0.00104926899 0.00112932432 -0.999998808
vn 0.00112020073 0.000974180759 -0.999998927
vn 0.000860618835 0.00154194492 -0.99999845
vn -0.700916171 0.0103057558 -0.713169158
vn 0.012947713 0.338036388 -0.941043973
vn 0.00457059033 0.0135027403 -0.999898434
vn -0.636419237 0.247019395 -0.730720222
vn -0.632132471 0.68321085 -0.36555627
vn -0.0213547349 0.876143575 -0.481576979
vn 0.00283207605 0.9340747 0.357066453
vn -0.612211704 0.728888512 0.306461036
vn 0.00416902732 0.374569446 0.927189529
vn -0.634773374 0.264745474 0.725928843
vn 0.0930400416 0.0130255418 0.995577216
vn -0.664810717 0.0104247723 0.746939123
vn 0.634773195 0.264745712 -0.725928843
vn 0.70091635 0.01030563 0.713169038
vn 0.664810896 0.0104249297 -0.746939003
vn 0.636419237 0.247019365 0.730720222
vn 0.632132351 0.683210909 0.365556389
vn 0.612211645 0.728888571 -0.306460917
vn 0.70091635 0.01030563 0.713169038
vn -0.0129476683 0.338036239 0.941044092
vn -0.00457022013 0.0135025727 0.999898434
vn 0.636419237 0.247019365 0.730720222
vn 0.632132351 0.683210909 0.365556389
vn 0.021354977 0.876143396 0.481577188
vn -0.00283221342 0.934074759 -0.357066214
vn 0.612211645 0.728888571 -0.306460917
vn -0.00416937191 0.374569744 -0.92718941
vn 0.634773195 0.264745712 -0.725928843
vn -0.0930396318 0.0130257541 -0.995577216
vn 0.664810896 0.0104249297 -0.746939003
vt 0.253640831 0.350349009
vt 0.131297439 0.265088499
vt 0.134108976 0.350575686
vt 0.257143557 0.265251547
vt 0.736702204 0.816116273
vt 0.602350831 0.680438161
vt 0.601098895 0.814305305
vt 0.743022919 0.684696794
vt 0.131297439 0.265088499
vt 0.0476116724 0.155328006
vt 0.0456492193 0.261681616
vt 0.129476115 0.0185456313
vt 0.014343584 0.0170203708
vt 0.25721994 0.264994085
vt 0.252457857 0.0127090942
vt 0.367810756 0.150427282
vt 0.342784554 0.260994196
vt 0.372837543 0.0161633361
vt 0.194702089 0.847216249
vt 0.217756152 0.820931613
vt 0.194702089 0.820931733
vt 0.217756152 0.847216249
vt 0.364261121 0.820931613
vt 0.364261121 0.847216249
vt 0.364261121 0.798389137
vt 0.217756152 0.798389137
vt 0.386188507 0.820931613
vt 0.386188507 0.847216249
vt 0.218551427 0.954041243
vt 0.195954323 0.927860558
vt 0.195954323 0.954041243
vt 0.218551427 0.927860558
vt 0.365437657 0.927860558
vt 0.365437657 0.954041243
vt 0.365437657 0.904702246
vt 0.218551427 0.904702365
vt 0.386975288 0.927860558
vt 0.386975288 0.954041183
vt 0.590367675 0.180618763
vt 0.590439618 0.0116641894
vt 0.537614763 0.011743091
vt 0.537533998 0.180757403
vt 0.590476215 0.254988223
vt 0.537601233 0.254988223
vt 0.463216931 0.180713102
vt 0.463240236 0.0116602657
vt 0.392220974 0.00831880979
vt 0.445093483 0.177593663
vt 0.44498992 0.00839561224
vt 0.392213911 0.177654713
vt 0.744745851 0.852883577
vt 0.847931325 0.666232586
vt 0.743291557 0.665988743
vt 0.843046904 0.857729793
vt 0.81938976 0.887311995
vt 0.775847912 0.888486147
vt 0.0289006531 0.37235406
vt 0.210552394 0.390586197
vt 0.210552394 0.37235406
vt 0.0289006531 0.390601844
vt 0.210552394 0.405782759
vt 0.0289006531 0.405876517
vt 0.210552394 0.423912019
vt 0.0289006531 0.423912019
vt 0.210552394 0.438888192
vt 0.0289006531 0.438888192
vt 0.0311145782 0.450845391
vt 0.213220656 0.469059378
vt 0.213220656 0.450845391
vt 0.0311145782 0.469091356
vt 0.0311145782 0.483603269
vt 0.213220656 0.483839631
vt 0.0311145782 0.501864791
vt 0.213220656 0.501864791
vt 0.0311145782 0.51614368
vt 0.213220656 0.51614368
vt 0.0289006531 0.37235406
vt 0.210552394 0.390586197
vt 0.210552394 0.37235406
vt 0.0289006531 0.390601844
vt 0.210552394 0.405782759
vt 0.0289006531 0.405876517
vt 0.210552394 0.423912019
vt 0.0289006531 0.423912019
vt 0.210552394 0.438888192
vt 0.0289006531 0.438888192
vt 0.0311145782 0.450845391
vt 0.213220656 0.469059378
vt 0.213220656 0.450845391
vt 0.0311145782 0.469091356
vt 0.0311145782 0.483603269
vt 0.213220656 0.483839631
vt 0.0311145782 0.501864791
vt 0.213220656 0.501864791
vt 0.0311145782 0.51614368
vt 0.213220656 0.51614368
vt 0.571977377 0.658474326
vt 0.733586431 0.584075928
vt 0.572188795 0.584049404
vt 0.733749092 0.658476532
vt 0.382570714 0.585320175
vt 0.543523014 0.659028113
vt 0.544009745 0.585276723
vt 0.382084429 0.659380078
vt 0.904637694 0.171237439
vt 0.903581738 0.36908412
vt 0.910498142 0.163885683
vt 0.894745111 0.365086794
vt 0.872547984 0.389029682
vt 0.876012564 0.396681219
vt 0.831951857 0.397339374
vt 0.834375501 0.389807343
vt 0.797343671 0.36482957
vt 0.805312157 0.360650361
vt 0.79491818 0.164936155
vt 0.800563931 0.172580793
vt 0.744827867 0.852980494
vt 0.847945869 0.666232705
vt 0.743330181 0.665977478
vt 0.843044221 0.857792556
vt 0.819400489 0.887281299
vt 0.775734663 0.88522923
vt 0.904575825 0.171262801
vt 0.903581738 0.36908412
vt 0.910498142 0.163885683
vt 0.894554853 0.365180612
vt 0.872814715 0.388926089
vt 0.876012564 0.396681219
vt 0.831951857 0.397339374
vt 0.834210694 0.38999176
vt 0.797343671 0.36482957
vt 0.80554229 0.360678762
vt 0.79491818 0.164936155
vt 0.800311804 0.17280218
g submesh0
f 1/1/1 2/2/2 3/3/3
f 2/2/2 1/1/1 4/4/4
f 5/5/5 6/6/6 7/7/7
f 6/6/6 5/5/5 8/8/8
f 9/9/9 10/10/10 11/11/11
f 10/10/10 9/9/9 12/12/12
f 12/12/12 13/13/13 10/10/10
f 14/14/14 12/12/12 9/9/9
f 12/12/12 14/14/14 15/15/15
f 14/14/14 16/16/16 15/15/15
f 16/16/16 14/14/14 17/17/17
f 18/18/18 15/15/15 16/16/16
f 19/19/19 20/20/20 21/21/21
f 20/20/20 19/19/19 22/22/22
f 22/22/22 23/23/23 20/20/20
f 23/23/23 22/22/22 24/24/24
f 25/25/25 20/20/20 23/23/23
f 20/20/20 25/25/25 26/26/26
f 24/24/24 27/27/27 23/23/23
f 27/27/27 24/24/24 28/28/28
f 29/29/29 30/30/30 31/31/31
f 30/30/30 29/29/29 32/32/32
f 29/29/29 33/33/33 32/32/32
f 33/33/33 29/29/29 34/34/34
f 35/35/35 32/32/32 33/33/33
f 32/32/32 35/35/35 36/36/36
f 34/34/34 37/37/37 33/33/33
f 37/37/37 34/34/34 38/38/38
f 39/39/39 40/40/40 41/41/41
f 42/42/42 39/39/39 41/41/41
f 42/42/42 43/43/43 39/39/39
f 43/43/43 42/42/42 44/44/44
f 41/41/41 45/45/45 42/42/42
f 45/45/45 41/41/41 46/46/46
f 47/47/47 48/48/48 49/49/49
f 48/48/48 47/47/47 50/50/50
f 51/51/51 52/52/52 53/53/53
f 52/52/52 51/51/51 54/54/54
f 51/51/51 55/55/55 54/54/54
f 55/55/55 51/51/51 56/56/56
f 57/57/57 58/58/58 59/59/59
f 58/58/58 57/57/57 60/60/60
f 60/60/60 61/61/61 58/58/58
f 61/61/61 60/60/60 62/62/62
f 62/62/62 63/63/63 61/61/61
f 63/63/63 62/62/62 64/64/64
f 64/64/64 65/65/65 63/63/63
f 65/65/65 64/64/64 66/66/66
f 67/67/67 68/68/68 69/69/69
f 68/68/68 67/67/67 70/70/70
f 71/71/71 68/68/68 70/70/70
f 68/68/68 71/71/71 72/72/72
f 73/73/73 72/72/72 71/71/71
f 72/72/72 73/73/73 74/74/74
f 75/75/75 74/74/74 73/73/73
f 74/74/74 75/75/75 76/76/76
f 77/77/77 78/78/78 79/79/79
f 78/78/78 77/77/77 80/80/80
f 80/80/80 81/81/81 78/78/78
f 81/81/81 80/80/80 82/82/82
f 82/82/82 83/83/83 81/81/81
f 83/83/83 82/82/82 84/84/84
f 84/84/84 85/85/85 83/83/83
f 85/85/85 84/84/84 86/86/86
f 87/87/87 88/88/88 89/89/89
f 88/88/88 87/87/87 90/90/90
f 91/91/91 88/88/88 90/90/90
f 88/88/88 91/91/91 92/92/92
f 93/93/93 92/92/92 91/91/91
f 92/92/92 93/93/93 94/94/94
f 95/95/95 94/94/94 93/93/93
f 94/94/94 95/95/95 96/96/96
f 97/97/97 98/98/98 99/99/99
f 98/98/98 97/97/97 100/100/100
f 101/101/101 102/102/102 103/103/103
f 102/102/102 101/101/101 104/104/104
f 105/105/105 106/106/106 107/107/107
f 106/106/106 105/105/105 108/108/108
f 109/109/109 106/106/106 108/108/108
f 106/106/106 109/109/109 110/110/110
f 109/109/109 111/111/111 110/110/110
f 111/111/111 109/109/109 112/112/112
f 112/112/112 113/113/113 111/111/111
f 113/113/113 112/112/112 114/114/114
f 114/114/114 115/115/115 113/113/113
f 115/115/115 114/114/114 116/116/116
f 117/117/117 118/118/118 119/119/119
f 118/118/118 117/117/117 120/120/120
f 117/117/117 121/121/121 120/120/120
f 121/121/121 117/117/117 122/122/122
f 123/123/123 124/124/124 125/125/125
f 124/124/124 123/123/123 126/126/126
f 127/127/127 124/124/124 126/126/126
f 124/124/124 127/127/127 128/128/128
f 127/127/127 129/129/129 128/128/128
f 129/129/129 127/127/127 130/130/130
f 130/130/130 131/131/131 129/129/129
f 131/131/131 130/130/130 132/132/132
f 132/132/132 133/133/133 131/131/131
f 133/133/133 132/132/132 134/134/134
