# small_planter_soil_LOD1
v 0.00134307856 0.369132578 0.00660879118
v 1.39234602 0.308311731 0.464329779
v 1.39234602 0.324784815 0.00660879118
v -1.38965988 0.401553988 -0.457459539
v -1.38965988 0.368637711 0.00660879118
v 0.00134307856 0.305159956 -0.45745939
v 0.00134307856 0.369132578 0.00660879118
v 1.39234602 0.305159956 -0.45745939
v 0.00134307856 0.369132578 0.00660879118
v 1.39234602 0.324784815 0.00660879118
v 1.39234602 0.305159956 -0.45745939
v 0.00134307856 0.369132578 0.00660879118
v 0.00134307856 0.305159956 -0.45745939
v -1.38965988 0.401553988 -0.457459539
v 0.00134307856 0.369132578 0.00660879118
v -1.38965988 0.368637711 0.00660879118
v -1.38965988 0.262834162 0.481630623
v 0.0013431129 0.262834162 0.470837474
v 1.39234602 0.308311731 0.464329779
vn 0.0318450704 0.998846173 0.0359478779
vn 0.0318450667 0.998846173 0.0359478742
vn 0.0318450704 0.998846173 0.0359478779
vn -0.000354869961 0.997493863 0.0707520396
vn -0.00035486999 0.997493863 0.0707520321
vn 0 0.9906317 -0.136560351
vn 0 0.9906317 -0.136560351
vn 0 0.9906317 -0.136560366
vn 0.0318372324 0.998600543 -0.0422296003
vn 0.0318372324 0.998600543 -0.0422295965
vn 0.0318372324 0.998600543 -0.0422296003
vn 0.0684878454 0.988305688 -0.136239737
vn 0.0684878379 0.988305688 -0.136239722
vn 0.0684878379 0.988305688 -0.136239722
vn 0.00173187687 0.974770725 0.223201588
vn -0.000347249443 0.976081133 0.217406511
vn 0.00173187698 0.974770725 0.223201588
vn 0.00173187698 0.974770725 0.223201588
vn -0.0308104176 0.974309504 0.223096013
vt 0.500239611 0.207248941
vt -0.000596254889 0.0558116361
vt 0.000663714367 0.204461277
vt 1.00222421 0.36618948
vt 1.00001097 0.208512932
vt 0.500722766 0.37286669
vt 0.500239611 0.207248941
vt 0.000697475742 0.374346375
vt 0.500239611 0.207248941
vt 0.000663714367 0.204461277
vt 0.000697475742 0.374346375
vt 0.500239611 0.207248941
vt 0.500722766 0.37286669
vt 1.00222421 0.36618948
vt 0.500239611 0.207248941
vt 1.00001097 0.208512932
vt 0.999948442 0.0420332253
vt 0.499798536 0.0461539775
vt -0.000596254889 0.0558116361
g submesh0
f 1/1/1 2/2/2 3/3/3
f 1/1/1 4/4/4 5/5/5
f 6/6/6 7/7/7 8/8/8
f 9/9/9 10/10/10 11/11/11
f 12/12/12 13/13/13 14/14/14
f 15/15/15 16/16/16 17/17/17
f 18/18/18 15/15/15 17/17/17
f 15/15/15 18/18/18 19/19/19
