# small_boat_crane_wood
v 2.08232713 1.63829255 0.0992941633
v 2.08229065 1.63828611 -0.0404972844
v 2.14663029 1.64866781 0.0991910174
v 2.14663005 1.64866781 -0.0404013433
v 2.08229065 1.63828611 -0.0404972844
v 2.17629075 1.68502474 0.0992753208
v 2.17629051 1.68502474 -0.0404857993
v 2.18787265 1.7381804 -0.0405498892
v 2.18787265 1.73818052 0.0993397087
v 2.18374205 1.79624665 0.099370271
v 2.18374205 1.79624665 -0.0405805595
v 2.17350936 1.83281934 -0.0404605083
v 2.17350936 1.83281934 0.099250257
v 2.13784122 1.86098969 0.0992706269
v 2.13784122 1.86098969 -0.0404809937
v 2.0821929 1.86811662 0.0990700498
v 2.0821929 1.86811662 -0.0402803794
v 2.02644992 1.64477384 0.09916576
v 2.01776123 1.64868021 -0.0403447337
v 2.02644992 1.64477384 0.09916576
v 2.08229065 1.63828611 -0.0404972844
v 2.08232713 1.63829255 0.0992941633
v 1.98782349 1.68555045 -0.040417593
v 2.01776123 1.64868021 -0.0403447337
v 1.9878459 1.68546462 0.0991857499
v 1.97639573 1.73819292 -0.0404700078
v 1.97639573 1.73819304 0.0992596
v 1.98112512 1.79607713 -0.0404809564
v 1.98112524 1.79607689 0.0992707834
v 1.99870336 1.84105051 -0.0404111855
v 1.99870336 1.84105051 0.0992008597
v 2.03060603 1.86366928 -0.0404460505
v 2.03060603 1.86366928 0.0992356837
v 2.0821929 1.86811662 -0.0402803794
v 2.0821929 1.86811662 0.0990700498
v 2.08220434 2.38470745 0.106284104
v 2.12025094 2.49616003 0.0999299586
v 2.04419136 2.49680543 0.0999474674
v 2.10661507 2.21554184 0.09996517
v 2.08220434 2.38470745 0.106284104
v 2.05774474 2.21551585 0.0999460965
v 2.0821929 2.34770346 -0.106285647
v 2.10648847 2.21551609 -0.0999741554
v 2.05776763 2.21551728 -0.0999571756
v 2.12024736 2.49615335 -0.0999404341
v 2.04419494 2.49679852 -0.0999580547
v 2.04419136 2.49680543 0.0999474674
v 2.12024736 2.49615335 -0.0999404341
v 2.12025094 2.49616003 0.0999299586
v 1.99800599 2.4534111 -0.0999865532
v 2.04419494 2.49679852 -0.0999580547
v 1.99799943 2.45341229 0.0999780223
v 1.99800599 2.4534111 -0.0999865532
v 1.97630525 2.34244823 0.099968791
v 1.97633719 2.34243965 -0.100009285
v 1.99934149 2.25984931 -0.105841368
v 2.00072956 2.26207399 0.108637124
v 2.05776763 2.21551728 -0.0999571756
v 2.05774474 2.21551585 0.0999460965
v 2.17629075 1.68502474 0.0992753208
v 2.08232713 1.63829255 0.0992941633
v 2.14663029 1.64866781 0.0991910174
v 2.18787265 1.73818052 0.0993397087
v 2.18374205 1.79624665 0.099370271
v 2.0821929 1.86811662 0.0990700498
v 2.17350936 1.83281934 0.099250257
v 2.13784122 1.86098969 0.0992706269
v 1.9878459 1.68546462 0.0991857499
v 2.02644992 1.64477384 0.09916576
v 2.08232713 1.63829255 0.0992941633
v 1.97639573 1.73819304 0.0992596
v 1.98112524 1.79607689 0.0992707834
v 2.0821929 1.86811662 0.0990700498
v 1.99870336 1.84105051 0.0992008597
v 2.03060603 1.86366928 0.0992356837
v 2.17629051 1.68502474 -0.0404857993
v 2.14663005 1.64866781 -0.0404013433
v 2.08229065 1.63828611 -0.0404972844
v 2.18787265 1.7381804 -0.0405498892
v 2.18374205 1.79624665 -0.0405805595
v 2.0821929 1.86811662 -0.0402803794
v 2.17350936 1.83281934 -0.0404605083
v 2.13784122 1.86098969 -0.0404809937
v 2.08229065 1.63828611 -0.0404972844
v 2.01776123 1.64868021 -0.0403447337
v 1.98782349 1.68555045 -0.040417593
v 1.97639573 1.73819292 -0.0404700078
v 1.98112512 1.79607713 -0.0404809564
v 2.0821929 1.86811662 -0.0402803794
v 1.99870336 1.84105051 -0.0404111855
v 2.03060603 1.86366928 -0.0404460505
v 2.08220434 2.38470745 0.106284104
v 2.17447162 2.43543267 0.100024715
v 2.12025094 2.49616003 0.0999299586
v 2.19018865 2.34778404 0.0999895856
v 2.17456841 2.26442218 0.108586498
v 2.10661507 2.21554184 0.09996517
v 2.17447162 2.43543267 0.100024715
v 2.19018865 2.34778404 0.0999895856
v 2.19017076 2.34774923 -0.10002815
v 2.17446518 2.43543291 -0.100003466
v 2.12024736 2.49615335 -0.0999404341
v 2.12025094 2.49616003 0.0999299586
v 2.08220434 2.38470745 0.106284104
v 2.00072956 2.26207399 0.108637124
v 2.05774474 2.21551585 0.0999460965
v 1.97630525 2.34244823 0.099968791
v 1.99799943 2.45341229 0.0999780223
v 2.04419136 2.49680543 0.0999474674
v 2.19017076 2.34774923 -0.10002815
v 2.19018865 2.34778404 0.0999895856
v 2.17456841 2.26442218 0.108586498
v 2.17141771 2.25337481 -0.108647324
v 2.10648847 2.21551609 -0.0999741554
v 2.17456841 2.26442218 0.108586498
v 2.10661507 2.21554184 0.09996517
v 2.0821929 2.34770346 -0.106285647
v 2.05776763 2.21551728 -0.0999571756
v 1.99934149 2.25984931 -0.105841368
v 1.97633719 2.34243965 -0.100009285
v 1.99800599 2.4534111 -0.0999865532
v 2.04419494 2.49679852 -0.0999580547
v 2.10648847 2.21551609 -0.0999741554
v 2.10661507 2.21554184 0.09996517
v 2.05774474 2.21551585 0.0999460965
v 2.05776763 2.21551728 -0.0999571756
v 2.0821929 2.34770346 -0.106285647
v 2.12024736 2.49615335 -0.0999404341
v 2.17446518 2.43543291 -0.100003466
v 2.19017076 2.34774923 -0.10002815
v 2.17141771 2.25337481 -0.108647324
v 2.10648847 2.21551609 -0.0999741554
vt 0.563590288 0.296719164
vt 0.552624106 0.296532035
vt 0.551082015 0.307893276
vt 0.563407123 0.312745363
vt 0.55184412 0.29028976
vt 0.563629866 0.328835607
vt 0.563629866 0.328835607
vt 0.563476205 0.346651971
vt 0.563476205 0.346651971
vt 0.563473701 0.365731239
vt 0.563473701 0.365731239
vt 0.563440204 0.37799409
vt 0.563440204 0.37799409
vt 0.56332165 0.393419713
vt 0.56332165 0.393419713
vt 0.562942207 0.406274617
vt 0.562942207 0.406274617
vt 0.551117361 0.276138753
vt 0.55111742 0.276138753
vt 0.569797814 0.308928013
vt 0.580654442 0.296209633
vt 0.569847107 0.296150416
vt 0.569679976 0.328408957
vt 0.575910687 0.310558021
vt 0.569679976 0.328408957
vt 0.569679558 0.346226633
vt 0.569679558 0.346226633
vt 0.569691181 0.365472585
vt 0.569691181 0.365472585
vt 0.569728673 0.381475151
vt 0.569728673 0.381475151
vt 0.569928288 0.394793272
vt 0.569928288 0.394793272
vt 0.569999635 0.405938298
vt 0.569999635 0.405938298
vt 0.296879739 0.399748504
vt 0.289588362 0.434781224
vt 0.304275453 0.435440511
vt 0.289376616 0.345025271
vt 0.289377421 0.365027428
vt 0.304254293 0.345002681
vt 0.296811163 0.387271285
vt 0.289376855 0.347153336
vt 0.304253697 0.347129941
vt 0.289379478 0.436955929
vt 0.422118485 0.417404056
vt 0.504687548 0.400973737
vt 0.496486545 0.400732577
vt 0.496486545 0.400732577
vt 0.519325495 0.379808992
vt 0.53106457 0.394982457
vt 0.503334224 0.379310191
vt 0.503334224 0.379310191
vt 0.503099799 0.350741744
vt 0.503099799 0.350741744
vt 0.503990769 0.31259653
vt 0.503990769 0.31259653
vt 0.505299747 0.285576463
vt 0.505299747 0.285576463
vt 0.525599957 0.215021551
vt 0.552788138 0.241707131
vt 0.536236465 0.202024475
vt 0.521434426 0.234208882
vt 0.522901118 0.255325615
vt 0.552363515 0.280623913
vt 0.526717067 0.268413603
vt 0.539417863 0.278648853
vt 0.585002303 0.215189978
vt 0.571197152 0.200429142
vt 0.55772543 0.247579068
vt 0.589076638 0.234251112
vt 0.587413132 0.255280852
vt 0.558344126 0.281590253
vt 0.581027865 0.2714338
vt 0.569700837 0.279620111
vt 0.525599957 0.215021551
vt 0.536236465 0.202024475
vt 0.552788138 0.241707131
vt 0.521434426 0.234208882
vt 0.522901118 0.255325615
vt 0.552363515 0.280623913
vt 0.526717067 0.268413603
vt 0.539417863 0.278648853
vt 0.557734966 0.23633945
vt 0.574293315 0.201926529
vt 0.585002303 0.215189978
vt 0.589076638 0.234251112
vt 0.587413132 0.255280852
vt 0.558344126 0.281590253
vt 0.581027865 0.2714338
vt 0.569700837 0.279620111
vt 0.364002466 0.427161843
vt 0.390775144 0.387524962
vt 0.369720519 0.363411725
vt 0.396876395 0.411823153
vt 0.387863398 0.450146377
vt 0.364589155 0.474801064
vt 0.481635779 0.370918483
vt 0.473695457 0.346559584
vt 0.476147354 0.36413157
vt 0.47938177 0.383228809
vt 0.476761073 0.397541881
vt 0.477935284 0.391129017
vt 0.344460249 0.426616132
vt 0.321737528 0.454126
vt 0.343896389 0.474776477
vt 0.312448859 0.411947131
vt 0.32090193 0.380312324
vt 0.338706493 0.363486469
vt 0.498200536 0.350685447
vt 0.482896298 0.361036569
vt 0.478839129 0.320331454
vt 0.497119963 0.312631875
vt 0.495722413 0.285713553
vt 0.496556073 0.303954303
vt 0.495722413 0.285713553
vt 0.344503343 0.422421396
vt 0.343896389 0.474776477
vt 0.320848316 0.455263525
vt 0.312448859 0.411947131
vt 0.32090193 0.380312324
vt 0.338706493 0.363486469
vt 0.19538933 0.59523505
vt 0.195596278 0.544251323
vt 0.178758636 0.544243097
vt 0.178594798 0.591525674
vt 0.363953173 0.422424972
vt 0.369720519 0.363411725
vt 0.387570679 0.380311042
vt 0.396017253 0.411949396
vt 0.386739075 0.454177856
vt 0.364589155 0.474801064
g submesh0
f 1/1 2/2 3/3
f 4/4 3/3 5/5
f 4/4 6/6 3/3
f 4/4 7/7 6/6
f 8/8 6/6 7/7
f 8/8 9/9 6/6
f 8/8 10/10 9/9
f 8/8 11/11 10/10
f 10/10 11/11 12/12
f 10/10 12/12 13/13
f 14/14 13/13 12/12
f 14/14 12/12 15/15
f 16/16 14/14 15/15
f 16/16 15/15 17/17
f 5/5 18/18 19/19
f 20/20 21/21 22/22
f 23/23 24/24 20/20
f 23/23 20/20 25/25
f 25/25 26/26 23/23
f 25/25 27/27 26/26
f 27/27 28/28 26/26
f 27/27 29/29 28/28
f 29/29 30/30 28/28
f 29/29 31/31 30/30
f 32/32 30/30 31/31
f 32/32 31/31 33/33
f 34/34 32/32 33/33
f 34/34 33/33 35/35
f 36/36 37/37 38/38
f 39/39 40/40 41/41
f 42/42 43/43 44/44
f 45/45 42/42 46/46
f 47/47 48/48 46/46
f 47/47 49/49 48/48
f 50/50 47/47 51/51
f 50/50 52/52 47/47
f 53/53 54/54 52/52
f 53/53 55/55 54/54
f 56/56 54/54 55/55
f 56/56 57/57 54/54
f 57/57 56/56 58/58
f 57/57 58/58 59/59
f 60/60 61/61 62/62
f 63/63 61/61 60/60
f 64/64 61/61 63/63
f 65/65 61/61 64/64
f 65/65 64/64 66/66
f 67/67 65/65 66/66
f 68/68 69/69 70/70
f 68/68 70/70 71/71
f 71/71 70/70 72/72
f 72/72 70/70 73/73
f 72/72 73/73 74/74
f 75/75 74/74 73/73
f 76/76 77/77 78/78
f 79/79 76/76 78/78
f 80/80 79/79 78/78
f 81/81 80/80 78/78
f 81/81 82/82 80/80
f 83/83 82/82 81/81
f 84/84 85/85 86/86
f 86/86 87/87 84/84
f 87/87 88/88 84/84
f 88/88 89/89 84/84
f 88/88 90/90 89/89
f 91/91 89/89 90/90
f 92/92 93/93 94/94
f 92/92 95/95 93/93
f 95/95 92/92 96/96
f 96/96 92/92 97/97
f 98/98 99/99 100/100
f 98/98 100/100 101/101
f 98/98 101/101 102/102
f 98/98 102/102 103/103
f 104/104 105/105 106/106
f 105/105 104/104 107/107
f 107/107 104/104 108/108
f 108/108 104/104 109/109
f 110/110 111/111 112/112
f 110/110 112/112 113/113
f 114/114 113/113 115/115
f 114/114 115/115 116/116
f 117/117 118/118 119/119
f 117/117 119/119 120/120
f 120/120 121/121 117/117
f 117/117 121/121 122/122
f 123/123 124/124 125/125
f 123/123 125/125 126/126
f 127/127 128/128 129/129
f 127/127 129/129 130/130
f 127/127 130/130 131/131
f 127/127 131/131 132/132
