# sofa_COL
v 0.861619413 1.01389396 -0.273155123
v 0.699032128 0.929578781 -0.582655847
v -0.0205792617 1.07599652 -0.318146646
v -0.101872899 0.918174922 -0.573602676
v -0.90277797 0.983765721 -0.363138199
v -0.90277797 0.867752969 -0.564549446
v 0.716693223 0.502055645 -0.582655847
v 0.861619413 1.01389396 -0.273155123
v 0.861619413 0.502055645 -0.101911202
v -0.90277797 0.502055645 -0.571730494
v -0.90277797 0.867752969 -0.564549446
v -0.0930423364 0.502055645 -0.577193141
v 0.699032128 0.929578781 -0.582655847
v 0.716693223 0.502055645 -0.582655847
v -0.90277797 0.502055645 -0.109276958
v -0.90277797 0.983765721 -0.363138199
v -0.90277797 0.502055645 -0.571730494
v -0.0205793381 0.502055645 -0.105594061
v 0.716693223 0.502055645 -0.582655847
v -0.90277797 0.502055645 -0.571730494
v -0.0930423364 0.502055645 -0.577193141
v 0.861619413 0.502055645 -0.101911202
v 0.861619413 1.01389396 -0.273155123
v -0.0205792617 1.07599652 -0.318146646
v -0.90277797 0.502055645 -0.109276958
v -0.90277797 0.983765721 -0.363138199
v -0.766661644 0.177696526 0.470036715
v -0.766661644 0.689534903 0.470036715
v -0.986430347 0.689534903 0.470036715
v -0.986430347 0.177696526 0.470036715
v -0.986430347 0.177696526 0.470036715
v -0.986430347 0.689534903 0.470036715
v -0.986430347 0.689534903 -0.589888275
v -0.986430347 0.177696526 -0.589888275
v -0.766661644 0.689534903 0.470036715
v -0.986430347 0.689534903 0.470036715
v -0.766661644 0.689534903 -0.589888275
v -0.766661644 0.177696526 -0.589888275
v -0.766661644 0.689534903 0.470036715
v -0.766661644 0.177696526 0.470036715
v -0.986430347 0.177696526 -0.589888275
v -0.766661644 0.177696526 -0.589888275
v -0.986430347 0.177696526 -0.589888275
v -0.986430347 0.689534903 -0.589888275
v -0.766661644 0.689534903 -0.589888275
v -0.766661644 0.177696526 -0.589888275
v 0.980337203 -2.87814483E-17 0.470036715
v 0.980337203 0.511838377 0.470036715
v -0.974718928 0.511838377 0.470036715
v -0.974718928 -2.87814483E-17 0.470036715
v -0.974718928 -2.87814483E-17 0.470036715
v -0.974718928 0.511838377 0.470036715
v -0.974718928 0.511838377 -0.589888275
v -0.974718928 3.6120241E-17 -0.589888275
v 0.980337203 0.511838377 0.470036715
v -0.974718928 0.511838377 0.470036715
v 0.980337203 0.511838377 -0.589888275
v 0.980337203 3.6120241E-17 -0.589888275
v 0.980337203 0.511838377 0.470036715
v 0.980337203 -2.87814483E-17 0.470036715
v -0.974718928 3.6120241E-17 -0.589888275
v 0.980337203 3.6120241E-17 -0.589888275
v -0.974718928 3.6120241E-17 -0.589888275
v -0.974718928 0.511838377 -0.589888275
v 0.980337203 0.511838377 -0.589888275
v 0.980337203 3.6120241E-17 -0.589888275
v 0.970339477 0.257963836 0.470036715
v 0.970339477 0.769802213 0.470036715
v 0.750570834 0.769802213 0.470036715
v 0.750570834 0.257963836 0.470036715
v 0.750570834 0.257963836 0.470036715
v 0.750570834 0.769802213 0.470036715
v 0.750570834 0.769802213 -0.589888275
v 0.750570834 0.257963836 -0.589888275
v 0.970339477 0.769802213 0.470036715
v 0.750570834 0.769802213 0.470036715
v 0.970339477 0.769802213 -0.589888275
v 0.970339477 0.257963836 -0.589888275
v 0.970339477 0.769802213 0.470036715
v 0.970339477 0.257963836 0.470036715
v 0.750570834 0.257963836 -0.589888275
v 0.970339477 0.257963836 -0.589888275
v 0.750570834 0.257963836 -0.589888275
v 0.750570834 0.769802213 -0.589888275
v 0.970339477 0.769802213 -0.589888275
v 0.970339477 0.257963836 -0.589888275
vt 0 0
vt 0 1
vt 0.5 0
vt 0.5 1
vt 1 0
vt 1 1
vt 0 0
vt 1 1
vt 1 0
vt 0 0
vt 0 1
vt 0.5 0
vt 1 1
vt 1 0
vt 0 0
vt 0 1
vt 1 0
vt 0.5 0
vt 1 1
vt 0 1
vt 0.5 1
vt 0 0
vt 0 1
vt 0.5 1
vt 1 0
vt 1 1
vt 0 0
vt 0 1
vt 1 1
vt 1 0
vt 0 0
vt 0 1
vt 1 1
vt 1 0
vt 0 0
vt 1 0
vt 0 1
vt 0 0
vt 1 1
vt 1 0
vt 0 1
vt 1 1
vt 0 0
vt 0 1
vt 1 1
vt 1 0
vt 0 0
vt 0 1
vt 1 1
vt 1 0
vt 0 0
vt 0 1
vt 1 1
vt 1 0
vt 0 0
vt 1 0
vt 0 1
vt 0 0
vt 1 1
vt 1 0
vt 0 1
vt 1 1
vt 0 0
vt 0 1
vt 1 1
vt 1 0
vt 0 0
vt 0 1
vt 1 1
vt 1 0
vt 0 0
vt 0 1
vt 1 1
vt 1 0
vt 0 0
vt 1 0
vt 0 1
vt 0 0
vt 1 1
vt 1 0
vt 0 1
vt 1 1
vt 0 0
vt 0 1
vt 1 1
vt 1 0
g submesh0
f 1/1 2/2 3/3
f 3/3 2/2 4/4
f 3/3 4/4 5/5
f 5/5 4/4 6/6
f 7/7 2/2 8/8
f 7/7 8/8 9/9
f 10/10 11/11 4/4
f 10/10 4/4 12/12
f 12/12 4/4 13/13
f 12/12 13/13 14/14
f 15/15 16/16 6/6
f 15/15 6/6 17/17
f 9/9 18/18 19/19
f 20/20 18/18 15/15
f 19/19 18/18 21/21
f 21/21 18/18 20/20
f 22/22 23/23 18/18
f 18/18 23/23 24/24
f 18/18 24/24 25/25
f 25/25 24/24 26/26
f 27/27 28/28 29/29
f 27/27 29/29 30/30
f 31/31 32/32 33/33
f 31/31 33/33 34/34
f 35/35 33/33 36/36
f 35/35 37/37 33/33
f 38/38 37/37 39/39
f 38/38 39/39 40/40
f 40/40 31/31 41/41
f 40/40 41/41 42/42
f 43/43 44/44 45/45
f 43/43 45/45 46/46
f 47/47 48/48 49/49
f 47/47 49/49 50/50
f 51/51 52/52 53/53
f 51/51 53/53 54/54
f 55/55 53/53 56/56
f 55/55 57/57 53/53
f 58/58 57/57 59/59
f 58/58 59/59 60/60
f 60/60 51/51 61/61
f 60/60 61/61 62/62
f 63/63 64/64 65/65
f 63/63 65/65 66/66
f 67/67 68/68 69/69
f 67/67 69/69 70/70
f 71/71 72/72 73/73
f 71/71 73/73 74/74
f 75/75 73/73 76/76
f 75/75 77/77 73/73
f 78/78 77/77 79/79
f 78/78 79/79 80/80
f 80/80 71/71 81/81
f 80/80 81/81 82/82
f 83/83 84/84 85/85
f 83/83 85/85 86/86
