# SoloSubmarine_COL3
v -0.00791334175 0.101333909 -2.09313989
v 0.463175684 0.614419341 -2.09346414
v 0.316052526 0.22394681 -2.09197617
v -0.385314345 0.827006459 -2.0934155
v -0.429144442 0.386715084 -2.09283757
v -0.429144442 0.386715084 -2.09283757
v -0.00791334175 0.101333909 -2.09313989
v -0.184487939 0.139463365 -2.09277463
v -0.182624936 0.138976783 -1.85942018
v -0.00498834485 0.101953112 -1.85722542
v -0.429144442 0.386715084 -2.09283757
v -0.43173945 0.392979681 -1.85873508
v -0.375437707 0.828124285 -1.85702515
v -0.00498834485 0.101953112 -1.85722542
v 0.317154109 0.230590045 -1.85700035
v 0.316052526 0.22394681 -2.09197617
v -0.00791334175 0.101333909 -2.09313989
v 0.463175684 0.614419341 -2.09346414
v 0.462548822 0.619849265 -1.85769713
v 0.267578125 0.948151052 -2.09290695
v -0.385314345 0.827006459 -2.0934155
v -0.43173945 0.392979681 -1.85873508
v 0.267834336 0.948389351 -1.85949171
v -0.0836888477 1.02712667 -1.85802996
v -0.0836888477 1.02712667 -1.85802996
v -0.0909830332 1.02593994 -2.09137845
vn 0.69988215 -0.126380742 -0.702988505
vn 0.317414463 0.752865672 -0.576577127
vn 0.786796153 0.27153042 -0.554277062
vn -0.693365216 -0.46195218 -0.553032577
vn -0.11174009 -0.813186169 -0.571176469
vn -0.11174009 -0.813186169 -0.571176469
vn 0.69988215 -0.126380742 -0.702988505
vn 0.402559876 -0.727954865 -0.555002034
vn -0.836103916 -0.0356004238 0.54741466
vn -0.433812976 -0.0318151116 0.900441051
vn -0.11174009 -0.813186169 -0.571176469
vn -0.585956872 0.564668 0.581209719
vn 0.105262242 0.822415829 0.559063494
vn -0.433812976 -0.0318151116 0.900441051
vn -0.217474356 -0.784712374 0.580457985
vn 0.786796153 0.27153042 -0.554277062
vn 0.69988215 -0.126380742 -0.702988505
vn 0.317414463 0.752865672 -0.576577127
vn 0.412274599 -0.715407908 0.564110875
vn -0.380323768 0.735666692 -0.560489357
vn -0.693365216 -0.46195218 -0.553032577
vn -0.585956872 0.564668 0.581209719
vn 0.813219905 -0.0918584168 0.574661136
vn 0.627189875 0.529284656 0.571393549
vn 0.627189875 0.529284656 0.571393549
vn -0.79430896 0.239014968 -0.558520555
vt 0.904688179 0.349589735
vt 0.906700492 0.689276695
vt 0.905641496 0.758880556
vt 0.906476557 0.508022845
vt 0.905740023 0.434566259
vt 0.905740023 0.434566259
vt 0.904688179 0.349589735
vt 0.904794812 0.378417939
vt 0.868503749 0.378607988
vt 0.867213786 0.349966854
vt 0.905740023 0.434566259
vt 0.86912185 0.436089784
vt 0.869306386 0.509384513
vt 0.86725378 0.815135479
vt 0.868313313 0.757634819
vt 0.905641496 0.758880556
vt 0.905554891 0.816081107
vt 0.906700492 0.689276695
vt 0.869133651 0.688231051
vt 0.906300426 0.625347912
vt 0.906476557 0.508022845
vt 0.869152069 0.436115533
vt 0.869628608 0.625363708
vt 0.869773984 0.566813409
vt 0.869773924 0.56681335
vt 0.906244934 0.565635979
g submesh0
f 1/1/1 2/2/2 3/3/3
f 1/1/1 4/4/4 2/2/2
f 4/4/4 1/1/1 5/5/5
f 6/6/6 7/7/7 8/8/8
f 7/7/7 9/9/9 8/8/8
f 7/7/7 10/10/10 9/9/9
f 11/11/11 8/8/8 9/9/9
f 11/11/11 9/9/9 12/12/12
f 12/12/12 9/9/9 13/13/13
f 14/14/14 13/13/13 9/9/9
f 15/15/15 13/13/13 14/14/14
f 14/14/14 16/16/16 15/15/15
f 14/14/14 17/17/17 16/16/16
f 15/15/15 16/16/16 18/18/18
f 15/15/15 18/18/18 19/19/19
f 19/19/19 13/13/13 15/15/15
f 19/19/19 18/18/18 20/20/20
f 18/18/18 21/21/21 20/20/20
f 22/22/22 21/21/21 11/11/11
f 22/22/22 13/13/13 21/21/21
f 19/19/19 23/23/23 13/13/13
f 19/19/19 20/20/20 23/23/23
f 13/13/13 23/23/23 24/24/24
f 25/25/25 23/23/23 20/20/20
f 13/13/13 24/24/24 26/26/26
f 13/13/13 26/26/26 21/21/21
f 25/25/25 20/20/20 26/26/26
f 20/20/20 21/21/21 26/26/26
