# SoloSubmarineCOL
v 0.0239107795 0.410953075 1.59792709
v 0.12083324 0.457349896 1.59750414
v 0.113565423 0.462725908 1.63150978
v 0.0239107795 0.410953075 1.59792709
v 0.0225727726 0.419893682 1.63190687
v -0.0901630223 0.447982669 1.63171721
v -0.0955390185 0.440714866 1.59772551
v 0.000111835303 0.570019662 1.62428916
v 0.113565423 0.462725908 1.63150978
v -0.0901630223 0.447982669 1.63171721
v 0.148651257 0.55928123 1.63097978
v 0.12083324 0.457349896 1.59750414
v 0.130217671 0.648221314 1.63038635
v -0.150017187 0.547558784 1.63105237
v -0.126775965 0.661148131 1.63030124
v -0.0435861126 0.718953192 1.62533915
v 0.0549797937 0.712320328 1.63006449
v 0.137965485 0.652878523 1.59630716
v 0.0593251176 0.719844937 1.59596384
v -0.0447427966 0.726682425 1.59585071
v -0.134043753 0.666524112 1.59621644
v -0.158957765 0.546221375 1.59701669
v -0.126775965 0.661148131 1.63030124
v -0.134043753 0.666524112 1.59621644
v -0.0435861126 0.718953192 1.62533915
v -0.0955390185 0.440714866 1.59772551
v -0.150017187 0.547558784 1.63105237
v -0.158957765 0.546221375 1.59701669
v -0.158957765 0.546221375 1.59701669
v -0.126775965 0.661148131 1.63030124
v -0.134043753 0.666524112 1.59621644
v -0.695296228 0.479722083 -1.33616698
v -0.623335302 0.882644296 1.30393219
v -0.623334408 0.88264358 -1.3361671
v -0.465635747 0.103663705 -1.33616686
v -0.695297182 0.479722828 1.30393231
v -0.0250540562 -0.125460073 -1.33616662
v -0.46563676 0.103664443 1.30393243
v -0.695297182 0.479722828 1.30393231
v -0.623335302 0.882644296 1.30393219
v -0.574618936 0.476210207 1.49336433
v -0.0250550322 -0.125459328 1.30393267
v -0.46563676 0.103664443 1.30393243
v -0.242711022 0.0377082229 1.49393189
v 0.4230887 0.0754322186 -1.3361665
v -0.0250550322 -0.125459328 1.30393267
v -0.0250540562 -0.125460073 -1.33616662
v 0.423087716 0.0754329562 1.30393279
v -0.0250550322 -0.125459328 1.30393267
v 0.299450487 0.100563198 1.50116324
v 0.513788581 0.334081799 1.50170958
v -0.0214516576 -0.0146980891 1.49391472
v -0.0102874637 0.294056237 1.5843904
v -0.242711022 0.0377082229 1.49393189
v 0.275513053 0.556579053 1.58428431
v -0.478840649 0.273837179 1.50169778
v 0.18842715 0.367784142 1.58437788
v 0.12083324 0.457349896 1.59750414
v 0.157497585 0.558641791 1.59693944
v 0.18842715 0.367784142 1.58437788
v 0.0239107795 0.410953075 1.59792709
v -0.0955390185 0.440714866 1.59772551
v -0.200012416 0.405091435 1.58427668
v -0.574618936 0.476210207 1.49336433
v -0.158957765 0.546221375 1.59701669
v -0.259498268 0.575957894 1.5840801
v -0.461312473 0.90241605 1.49795473
v -0.186733022 0.759095252 1.58407807
v -0.265752017 1.07860851 1.49267983
v -0.134043753 0.666524112 1.59621644
v -0.0322786197 0.826188862 1.58378661
v 0.0235372223 1.15261531 1.49138594
v -0.0447427966 0.726682425 1.59585071
v 0.0593251176 0.719844937 1.59596384
v 0.241971448 1.09833205 1.492329
v 0.0239106398 1.26144826 1.30393243
v 0.202564523 0.758204222 1.58392358
v 0.137965485 0.652878523 1.59630716
v 0.275513053 0.556579053 1.58428431
v 0.426305115 0.964878321 1.49259162
v 0.558937728 0.638867855 1.49618566
v 0.611630619 0.922912002 1.30393255
v 0.699327052 0.460575044 1.30393279
v 0.611631632 0.922911286 -1.33616674
v 0.611630619 0.922912002 1.30393255
v 0.407181323 1.13389921 -1.33616686
v 0.611631632 0.922911286 -1.33616674
v -0.0152916154 1.24169564 -1.33616698
v -0.364824831 1.1622591 -1.3361671
v -0.411455065 1.12418664 1.30393231
v -0.265752017 1.07860851 1.49267983
v -0.623334408 0.88264358 -1.3361671
v -0.623335302 0.882644296 1.30393219
v -0.461312473 0.90241605 1.49795473
v 0.699327052 0.460575044 1.30393279
v 0.699328005 0.460574299 -1.3361665
v 0.423087716 0.0754329562 1.30393279
v 0.4230887 0.0754322186 -1.3361665
v 0.699327052 0.460575044 1.30393279
v 0.423087716 0.0754329562 1.30393279
v 0.513788581 0.334081799 1.50170958
v 0.558937728 0.638867855 1.49618566
v -0.695297182 0.479722828 1.30393231
v -0.478840649 0.273837179 1.50169778
v -0.574618936 0.476210207 1.49336433
v -0.0250550322 -0.125459328 1.30393267
v -0.0214516576 -0.0146980891 1.49391472
v -0.242711022 0.0377082229 1.49393189
v -0.46563676 0.103664443 1.30393243
v -0.242711022 0.0377082229 1.49393189
v -0.478840649 0.273837179 1.50169778
v -0.623335302 0.882644296 1.30393219
v -0.574618936 0.476210207 1.49336433
v -0.461312473 0.90241605 1.49795473
v -0.411455065 1.12418664 1.30393231
v -0.461312473 0.90241605 1.49795473
v -0.265752017 1.07860851 1.49267983
v 0.0239106398 1.26144826 1.30393243
v -0.265752017 1.07860851 1.49267983
v 0.0235372223 1.15261531 1.49138594
v 0.470869124 0.235726506 -1.48573291
v 0.699328005 0.460574299 -1.3361665
v 0.4230887 0.0754322186 -1.3361665
v 0.043723993 0.00146210263 -1.48864532
v 0.4230887 0.0754322186 -1.3361665
v -0.0250540562 -0.125460073 -1.33616662
v -0.290213823 0.0808669031 -1.49086869
v -0.0250540562 -0.125460073 -1.33616662
v -0.465635747 0.103663705 -1.33616686
v -0.498004109 0.266613692 -1.48996687
v -0.465635747 0.103663705 -1.33616686
v -0.695296228 0.479722083 -1.33616698
v -0.55379051 0.539812446 -1.49944234
v -0.695296228 0.479722083 -1.33616698
v -0.623334408 0.88264358 -1.3361671
v 0.120081887 0.676569164 -1.64621782
v 0.171939328 0.805937529 -1.58526444
v 0.288747221 0.615455449 -1.58580554
v 0.161798641 0.559734046 -1.6458956
v 0.236830354 0.397682458 -1.58666527
v 0.108912796 0.44788149 -1.64560163
v 0.0455941036 0.280126363 -1.58701754
v -0.0073060249 0.405895919 -1.64557207
v -0.119409405 0.458163798 -1.64586568
v -0.0073060249 0.405895919 -1.64557207
v -0.172698468 0.333153844 -1.5868423
v -0.161888167 0.574632823 -1.64615488
v -0.119409405 0.458163798 -1.64586568
v -0.288943589 0.524924576 -1.5861398
v -0.109380305 0.687244952 -1.64632165
v -0.235744506 0.742154658 -1.58545053
v 0.00760291051 0.72955519 -1.64633191
v -0.0450476594 0.858303666 -1.58505642
v 0.171939328 0.805937529 -1.58526444
v 0.120081887 0.676569164 -1.64621782
v 0.108912796 0.44788149 -1.64560163
v -0.0073060249 0.405895919 -1.64557207
v -0.0069718007 0.413034081 -1.70142913
v 0.104100809 0.453163296 -1.70140755
v 0.00213746377 0.568793535 -1.70086169
v -0.113887593 0.463198334 -1.70135057
v 0.153558239 0.560111463 -1.69986439
v -0.154016733 0.574271023 -1.70121872
v 0.114135906 0.671151757 -1.70116651
v 0.00722012669 0.72131592 -1.70108783
v -0.103852496 0.681186736 -1.70110989
v 0.00760291051 0.72955519 -1.64633191
v -0.109380305 0.687244952 -1.64632165
v -0.109380305 0.687244952 -1.64632165
v -0.161888167 0.574632823 -1.64615488
v -0.119409405 0.458163798 -1.64586568
v -0.0069718007 0.413034081 -1.70142913
v -0.0073060249 0.405895919 -1.64557207
v 0.161798641 0.559734046 -1.6458956
v 0.104100809 0.453163296 -1.70140755
v 0.108912796 0.44788149 -1.64560163
v -0.161888167 0.574632823 -1.64615488
v -0.113887593 0.463198334 -1.70135057
v -0.119409405 0.458163798 -1.64586568
v 0.120081887 0.676569164 -1.64621782
v 0.161798641 0.559734046 -1.6458956
v 0.153558239 0.560111463 -1.69986439
v 0.120081887 0.676569164 -1.64621782
v 0.00722012669 0.72131592 -1.70108783
v 0.00760291051 0.72955519 -1.64633191
v 0.157497585 0.558641791 1.59693944
v 0.137965485 0.652878523 1.59630716
v 0.148651257 0.55928123 1.63097978
v 0.12083324 0.457349896 1.59750414
v 0.288747221 0.615455449 -1.58580554
v 0.470869124 0.235726506 -1.48573291
v 0.236830354 0.397682458 -1.58666527
v 0.56783092 0.552224576 -1.48433864
v 0.171939328 0.805937529 -1.58526444
v 0.40767464 0.970939636 -1.49359179
v -0.0450476594 0.858303666 -1.58505642
v -0.0414471403 1.11129379 -1.50399268
v -0.235744506 0.742154658 -1.58545053
v -0.383653522 0.961406469 -1.49425972
v -0.288943589 0.524924576 -1.5861398
v -0.55379051 0.539812446 -1.49944234
v -0.623334408 0.88264358 -1.3361671
v -0.172698468 0.333153844 -1.5868423
v -0.498004109 0.266613692 -1.48996687
v -0.695296228 0.479722083 -1.33616698
v -0.465635747 0.103663705 -1.33616686
v -0.46563676 0.103664443 1.30393243
v -0.695297182 0.479722828 1.30393231
v -0.478840649 0.273837179 1.50169778
v 0.40767464 0.970939636 -1.49359179
v 0.407181323 1.13389921 -1.33616686
v 0.611631632 0.922911286 -1.33616674
v 0.56783092 0.552224576 -1.48433864
v 0.56783092 0.552224576 -1.48433864
v 0.611631632 0.922911286 -1.33616674
v 0.699328005 0.460574299 -1.3361665
v 0.470869124 0.235726506 -1.48573291
v 0.043723993 0.00146210263 -1.48864532
v 0.470869124 0.235726506 -1.48573291
v 0.4230887 0.0754322186 -1.3361665
v 0.236830354 0.397682458 -1.58666527
v 0.0455941036 0.280126363 -1.58701754
v -0.290213823 0.0808669031 -1.49086869
v -0.0250540562 -0.125460073 -1.33616662
v -0.172698468 0.333153844 -1.5868423
v -0.498004109 0.266613692 -1.48996687
v -0.465635747 0.103663705 -1.33616686
v -0.0414471403 1.11129379 -1.50399268
v 0.407181323 1.13389921 -1.33616686
v 0.40767464 0.970939636 -1.49359179
v -0.0152916154 1.24169564 -1.33616698
v -0.364824831 1.1622591 -1.3361671
v -0.383653522 0.961406469 -1.49425972
v -0.623334408 0.88264358 -1.3361671
vn 0.0982034728 -0.961993217 0.254803807
vn 0.721538424 -0.6435045 0.255507916
vn 0.498644799 -0.455138564 0.737700641
vn 0.0982034728 -0.961993217 0.254803807
vn 0.0634165481 -0.661809087 0.746985316
vn -0.402808905 -0.540829599 0.738409281
vn -0.576207221 -0.775841951 0.257010639
vn -0.00159916619 0.0128102573 0.999916673
vn 0.498644799 -0.455138564 0.737700641
vn -0.402808905 -0.540829599 0.738409281
vn 0.654714584 -0.0430565923 0.754648864
vn 0.721538424 -0.6435045 0.255507916
vn 0.572208285 0.342208475 0.74529922
vn -0.663124204 -0.1109014 0.740248084
vn -0.552432358 0.382149339 0.740797102
vn -0.183693722 0.66317904 0.725568831
vn 0.23108092 0.624201417 0.746307015
vn 0.830313623 0.494856238 0.256313443
vn 0.366070747 0.897045493 0.247591764
vn -0.246223196 0.935130239 0.254765689
vn -0.800699413 0.542006195 0.255166262
vn -0.953538835 -0.158988193 0.255903125
vn -0.552432358 0.382149339 0.740797102
vn -0.800699413 0.542006195 0.255166262
vn -0.183693722 0.66317904 0.725568831
vn -0.576207221 -0.775841951 0.257010639
vn -0.663124204 -0.1109014 0.740248084
vn -0.953538835 -0.158988193 0.255903125
vn -0.953538835 -0.158988193 0.255903125
vn -0.552432358 0.382149339 0.740797102
vn -0.800699413 0.542006195 0.255166262
vn -0.988732457 -0.095911257 0.114930548
vn -0.591224372 0.522313237 0.614526272
vn -0.827388465 0.504468143 0.246860877
vn -0.716279447 -0.674877524 0.177437171
vn -0.957600236 -0.159553453 -0.239884362
vn -0.0935364366 -0.990755618 0.0982554257
vn -0.269890547 -0.941659629 0.201087654
vn -0.957600236 -0.159553453 -0.239884362
vn -0.591224372 0.522313237 0.614526272
vn -0.307423592 0.0394081511 0.950756371
vn 0.43945998 -0.868507922 0.229279235
vn -0.269890547 -0.941659629 0.201087654
vn -0.645269275 -0.303781331 0.700959682
vn 0.545172811 -0.826655328 0.139382914
vn 0.43945998 -0.868507922 0.229279235
vn -0.0935364366 -0.990755618 0.0982554257
vn 0.614341795 -0.743414283 -0.264422745
vn 0.43945998 -0.868507922 0.229279235
vn 0.0488387048 -0.415495604 0.908283055
vn 0.293748498 -0.604775429 0.740242183
vn 0.0505148098 -0.322381914 0.945260882
vn -0.0151839936 -0.21078448 0.977414727
vn -0.645269275 -0.303781331 0.700959682
vn 0.210570216 -0.0115414746 0.977510631
vn -0.234745726 -0.236572608 0.942829728
vn 0.178586826 -0.157087937 0.971303344
vn 0.0877647996 -0.0734198615 0.993431866
vn 0.109559231 0.00351928803 0.99397403
vn 0.178586826 -0.157087937 0.971303344
vn 0.00806107558 -0.152184799 0.988319159
vn -0.0773948431 -0.10521324 0.991433382
vn -0.190316394 -0.147805467 0.970532477
vn -0.307423592 0.0394081511 0.950756371
vn -0.127593115 -0.0184887648 0.991654277
vn -0.211969584 0.0105495425 0.977219343
vn -0.250126153 0.206796989 0.945870996
vn -0.141557992 0.150062084 0.978489935
vn -0.217323795 0.308432192 0.926088512
vn -0.119912028 0.0661288127 0.990579665
vn -0.0224787332 0.219373763 0.975381851
vn -0.0704606771 0.309197813 0.948383987
vn -0.0476921238 0.126106858 0.990869641
vn 0.0403243899 0.125317246 0.991296887
vn 0.0606128983 0.422387332 0.90438652
vn 0.12318404 0.82964313 -0.544534683
vn 0.145486429 0.171138927 0.974446118
vn 0.107435249 0.049397517 0.992984176
vn 0.210570216 -0.0115414746 0.977510631
vn 0.208736435 0.223957896 0.951983154
vn 0.297169089 -0.00543680042 0.954809427
vn 0.786602914 0.532589257 -0.312417269
vn 0.911480546 0.299964637 0.281468302
vn 0.871892273 0.445449352 0.203417718
vn 0.786602914 0.532589257 -0.312417269
vn 0.853316605 0.367923558 -0.369436175
vn 0.871892273 0.445449352 0.203417718
vn -0.0551514402 0.884147823 0.463940591
vn 0.485731632 0.822593033 -0.295644045
vn -0.967483163 0.0698072612 0.243111745
vn -0.217323795 0.308432192 0.926088512
vn -0.827388465 0.504468143 0.246860877
vn -0.591224372 0.522313237 0.614526272
vn -0.250126153 0.206796989 0.945870996
vn 0.911480546 0.299964637 0.281468302
vn 0.96118629 -0.264188856 0.0795308873
vn 0.614341795 -0.743414283 -0.264422745
vn 0.545172811 -0.826655328 0.139382914
vn 0.911480546 0.299964637 0.281468302
vn 0.614341795 -0.743414283 -0.264422745
vn 0.293748498 -0.604775429 0.740242183
vn 0.297169089 -0.00543680042 0.954809427
vn -0.957600236 -0.159553453 -0.239884362
vn -0.234745726 -0.236572608 0.942829728
vn -0.307423592 0.0394081511 0.950756371
vn 0.43945998 -0.868507922 0.229279235
vn 0.0505148098 -0.322381914 0.945260882
vn -0.645269275 -0.303781331 0.700959682
vn -0.269890547 -0.941659629 0.201087654
vn -0.645269275 -0.303781331 0.700959682
vn -0.234745726 -0.236572608 0.942829728
vn -0.591224372 0.522313237 0.614526272
vn -0.307423592 0.0394081511 0.950756371
vn -0.250126153 0.206796989 0.945870996
vn -0.967483163 0.0698072612 0.243111745
vn -0.250126153 0.206796989 0.945870996
vn -0.217323795 0.308432192 0.926088512
vn 0.12318404 0.82964313 -0.544534683
vn -0.217323795 0.308432192 0.926088512
vn -0.0704606771 0.309197813 0.948383987
vn 0.347894937 -0.307405919 -0.885703564
vn 0.96118629 -0.264188856 0.0795308873
vn 0.545172811 -0.826655328 0.139382914
vn 0.339421988 -0.510517597 -0.790040851
vn 0.545172811 -0.826655328 0.139382914
vn -0.0935364366 -0.990755618 0.0982554257
vn -0.227139831 -0.37732929 -0.897791862
vn -0.0935364366 -0.990755618 0.0982554257
vn -0.716279447 -0.674877524 0.177437171
vn -0.273091167 -0.320625901 -0.906984091
vn -0.716279447 -0.674877524 0.177437171
vn -0.988732457 -0.095911257 0.114930548
vn -0.320691049 0.00931418035 -0.947138011
vn -0.988732457 -0.095911257 0.114930548
vn -0.827388465 0.504468143 0.246860877
vn 0.309725076 0.269352913 -0.911876857
vn 0.216380805 0.310061216 -0.925765276
vn 0.384503126 0.0933664888 -0.918389976
vn 0.409876466 -0.0262665376 -0.911762774
vn 0.300781399 -0.221064702 -0.927718103
vn 0.266397029 -0.307031453 -0.913654387
vn 0.0675399154 -0.361278504 -0.930008709
vn -0.0842965841 -0.449487031 -0.889300585
vn -0.362920105 -0.28616178 -0.886792183
vn -0.0842965841 -0.449487031 -0.889300585
vn -0.200154871 -0.274461567 -0.940536439
vn -0.463528275 0.0603050217 -0.884027541
vn -0.362920105 -0.28616178 -0.886792183
vn -0.352653682 -0.0562942438 -0.934059083
vn -0.28779006 0.368441373 -0.883984149
vn -0.313662052 0.203345522 -0.927505672
vn 0.000409730565 0.419892192 -0.907573938
vn -0.0604923032 0.349437058 -0.935005009
vn 0.216380805 0.310061216 -0.925765276
vn 0.309725076 0.269352913 -0.911876857
vn 0.666959167 -0.734195292 -0.12697497
vn -0.0440748595 -0.990935862 -0.126899078
vn -0.0331162848 -0.733571827 -0.678804636
vn 0.495913506 -0.539734662 -0.68026197
vn 0.00213812734 0.000954981835 -0.999997258
vn -0.540225565 -0.493231833 -0.681820154
vn 0.717777908 -0.0367739126 -0.695300281
vn -0.728993952 0.0333536789 -0.683707118
vn 0.541363478 0.487114459 -0.685306549
vn 0.0338314697 0.727113426 -0.685683191
vn -0.490399808 0.538032949 -0.685586333
vn 0.0463588424 0.987775087 -0.148832753
vn -0.667011738 0.730366349 -0.147174552
vn -0.667011738 0.730366349 -0.147174552
vn -0.989194751 0.0426443405 -0.14026843
vn -0.730610669 -0.669799626 -0.132576212
vn -0.0331162848 -0.733571827 -0.678804636
vn -0.0440748595 -0.990935862 -0.126899078
vn 0.987959385 -0.0460791774 -0.147692204
vn 0.495913506 -0.539734662 -0.68026197
vn 0.666959167 -0.734195292 -0.12697497
vn -0.989194751 0.0426443405 -0.14026843
vn -0.540225565 -0.493231833 -0.681820154
vn -0.730610669 -0.669799626 -0.132576212
vn 0.733384371 0.663875222 -0.146346152
vn 0.987959385 -0.0460791774 -0.147692204
vn 0.717777908 -0.0367739126 -0.695300281
vn 0.733384371 0.663875222 -0.146346152
vn 0.0338314697 0.727113426 -0.685683191
vn 0.0463588424 0.987775087 -0.148832753
vn 0.965394795 -0.0666498095 0.252132177
vn 0.830313623 0.494856238 0.256313443
vn 0.654714584 -0.0430565923 0.754648864
vn 0.721538424 -0.6435045 0.255507916
vn 0.384503126 0.0933664888 -0.918389976
vn 0.347894937 -0.307405919 -0.885703564
vn 0.300781399 -0.221064702 -0.927718103
vn 0.486028284 0.277254283 -0.828798294
vn 0.216380805 0.310061216 -0.925765276
vn 0.20451507 0.282430947 -0.937233388
vn -0.0604923032 0.349437058 -0.935005009
vn -0.243008375 0.505313277 -0.828013003
vn -0.313662052 0.203345522 -0.927505672
vn -0.497695744 0.193362877 -0.845523357
vn -0.352653682 -0.0562942438 -0.934059083
vn -0.320691049 0.00931418035 -0.947138011
vn -0.827388465 0.504468143 0.246860877
vn -0.200154871 -0.274461567 -0.940536439
vn -0.273091167 -0.320625901 -0.906984091
vn -0.988732457 -0.095911257 0.114930548
vn -0.716279447 -0.674877524 0.177437171
vn -0.269890547 -0.941659629 0.201087654
vn -0.957600236 -0.159553453 -0.239884362
vn -0.234745726 -0.236572608 0.942829728
vn 0.20451507 0.282430947 -0.937233388
vn 0.853316605 0.367923558 -0.369436175
vn 0.871892273 0.445449352 0.203417718
vn 0.486028284 0.277254283 -0.828798294
vn 0.486028284 0.277254283 -0.828798294
vn 0.871892273 0.445449352 0.203417718
vn 0.96118629 -0.264188856 0.0795308873
vn 0.347894937 -0.307405919 -0.885703564
vn 0.339421988 -0.510517597 -0.790040851
vn 0.347894937 -0.307405919 -0.885703564
vn 0.545172811 -0.826655328 0.139382914
vn 0.300781399 -0.221064702 -0.927718103
vn 0.0675399154 -0.361278504 -0.930008709
vn -0.227139831 -0.37732929 -0.897791862
vn -0.0935364366 -0.990755618 0.0982554257
vn -0.200154871 -0.274461567 -0.940536439
vn -0.273091167 -0.320625901 -0.906984091
vn -0.716279447 -0.674877524 0.177437171
vn -0.243008375 0.505313277 -0.828013003
vn 0.853316605 0.367923558 -0.369436175
vn 0.20451507 0.282430947 -0.937233388
vn -0.0551514402 0.884147823 0.463940591
vn 0.485731632 0.822593033 -0.295644045
vn -0.497695744 0.193362877 -0.845523357
vn -0.827388465 0.504468143 0.246860877
vt 0.575911522 0.100459605
vt 0.556574643 0.0949171409
vt 0.557442546 0.100865304
vt 0.575911522 0.100459605
vt 0.572190404 0.105371326
vt 0.581085742 0.12144196
vt 0.587117732 0.12091732
vt 0.557393849 0.124094218
vt 0.55739367 0.0996319577
vt 0.581085801 0.121441975
vt 0.542695522 0.106102116
vt 0.556363404 0.0933845192
vt 0.53466326 0.117729627
vt 0.575922728 0.138941497
vt 0.560389936 0.14825356
vt 0.545407355 0.144434839
vt 0.536069989 0.132602692
vt 0.528880417 0.116268039
vt 0.531423807 0.134368196
vt 0.542167187 0.148317695
vt 0.561024189 0.153852791
vt 0.580541134 0.142814144
vt 0.560163796 0.14772056
vt 0.560998917 0.153852746
vt 0.545407355 0.144434839
vt 0.587117732 0.12091732
vt 0.575922668 0.138941497
vt 0.580541193 0.142814159
vt 0.580541134 0.142814144
vt 0.560070157 0.147767082
vt 0.560581326 0.153726965
vt 0.00496281032 0.541974664
vt 0.427958399 0.476980269
vt 0.00496585434 0.476147711
vt 0.00498453854 0.614377737
vt 0.427958906 0.541806459
vt 0.00496515818 0.695938706
vt 0.427934378 0.614592493
vt 0.427954316 0.542610228
vt 0.427957118 0.476986945
vt 0.789148271 0.745818317
vt 0.427958101 0.696037114
vt 0.427957803 0.6147241
vt 0.804504514 0.66999644
vt 0.00501496997 0.0861073583
vt 0.427957684 0.00755581958
vt 0.00496473769 0.00522225769
vt 0.428024232 0.0866117626
vt 0.427957654 0.00755670108
vt 0.746897101 0.618981957
vt 0.702441931 0.618646383
vt 0.789317966 0.641638875
vt 0.75801897 0.667567611
vt 0.804504514 0.66999644
vt 0.700012982 0.661842585
vt 0.801414967 0.716818452
vt 0.729831636 0.652663529
vt 0.726575255 0.669268608
vt 0.711628437 0.675271273
vt 0.729831696 0.652663589
vt 0.741415977 0.67548871
vt 0.749979496 0.691819549
vt 0.764470518 0.699995339
vt 0.789148271 0.745818317
vt 0.744471312 0.709397733
vt 0.751176834 0.723686635
vt 0.733717144 0.773196101
vt 0.723387301 0.73371017
vt 0.696054637 0.770032883
vt 0.728527427 0.718539357
vt 0.700549126 0.723079443
vt 0.662674785 0.745751023
vt 0.712953925 0.714515269
vt 0.703402162 0.702241778
vt 0.648171425 0.717960596
vt 0.427957892 0.352924466
vt 0.684822083 0.690095246
vt 0.703064203 0.686828613
vt 0.700013041 0.661842704
vt 0.64510566 0.686456323
vt 0.666463077 0.642309248
vt 0.427837938 0.24499324
vt 0.428057343 0.167975277
vt 0.00515290163 0.245025009
vt 0.428583205 0.246961296
vt 0.00496506179 0.289181262
vt 0.00498404214 0.246127903
vt 0.0049650399 0.359631568
vt 0.0049650725 0.416727602
vt 0.427938879 0.426334083
vt 0.696054637 0.770032883
vt 0.00499408599 0.477428615
vt 0.427855968 0.478966206
vt 0.733717144 0.773196101
vt 0.427927047 0.167140767
vt 0.00504367799 0.166962206
vt 0.427964687 0.0906819478
vt 0.00496758847 0.0915670246
vt 0.427878916 0.166769817
vt 0.427928567 0.0908547342
vt 0.702441931 0.618646383
vt 0.666463017 0.642309189
vt 0.427954316 0.542610228
vt 0.801414967 0.716818392
vt 0.789148331 0.745818377
vt 0.427958101 0.696037114
vt 0.789317966 0.641638875
vt 0.804504514 0.66999644
vt 0.427851886 0.616479039
vt 0.804504514 0.66999644
vt 0.801414967 0.716818452
vt 0.427957118 0.476986945
vt 0.789148271 0.745818317
vt 0.733717144 0.773196101
vt 0.427938879 0.426334083
vt 0.733717144 0.773196101
vt 0.696054637 0.770032883
vt 0.427957892 0.352924466
vt 0.696054637 0.770032883
vt 0.662674785 0.745751023
vt 0.568235517 0.0453925654
vt 0.00496441545 0.16617693
vt 0.00496758847 0.0915670246
vt 0.503504515 0.0694920421
vt 0.00496371463 0.0860976279
vt 0.00496473769 0.00522225769
vt 0.480749011 0.112311453
vt 0.00496514561 0.695938885
vt 0.00498453854 0.614377737
vt 0.4809618 0.15177007
vt 0.00495286053 0.61523664
vt 0.00496659335 0.541680217
vt 0.504928052 0.183088928
vt 0.00496674981 0.541990936
vt 0.00496585434 0.476147711
vt 0.515001297 0.933472395
vt 0.540701628 0.954976618
vt 0.54667151 0.908862174
vt 0.513084888 0.911385775
vt 0.518159389 0.871434867
vt 0.496168107 0.897066593
vt 0.470722497 0.864974856
vt 0.473993629 0.899023116
vt 0.459673762 0.916142702
vt 0.473993659 0.899023175
vt 0.433014452 0.89572227
vt 0.461661935 0.938225389
vt 0.459673762 0.916142702
vt 0.428741187 0.942609906
vt 0.478761941 0.952450156
vt 0.458285093 0.979147077
vt 0.500833809 0.950452447
vt 0.504573584 0.983765066
vt 0.540701628 0.954976618
vt 0.515001237 0.933472335
vt 0.387884229 0.889537573
vt 0.363589108 0.886756599
vt 0.366051495 0.896087289
vt 0.383106351 0.898152828
vt 0.372419089 0.918063283
vt 0.352316678 0.906648576
vt 0.393984109 0.911564708
vt 0.350069284 0.923846602
vt 0.392012477 0.929038405
vt 0.378221333 0.939968944
vt 0.360785663 0.937797427
vt 0.380867153 0.949505687
vt 0.355874747 0.94642961
vt 0.355874747 0.94642961
vt 0.340566784 0.926228106
vt 0.34412095 0.901982427
vt 0.366051465 0.896087289
vt 0.363589108 0.886756599
vt 0.403176159 0.908738256
vt 0.383106321 0.898152828
vt 0.387884229 0.889537573
vt 0.340566784 0.926228106
vt 0.352316707 0.906648636
vt 0.344120979 0.901982486
vt 0.400864571 0.933889389
vt 0.403176188 0.908738315
vt 0.393984079 0.911564708
vt 0.400864571 0.933889389
vt 0.378221393 0.939969063
vt 0.380867153 0.949505687
vt 0.538866401 0.101631708
vt 0.528880417 0.116268039
vt 0.542695522 0.106102116
vt 0.556877434 0.0931236297
vt 0.594374418 0.099169828
vt 0.568235576 0.0453925654
vt 0.564514577 0.0834337771
vt 0.61126107 0.0646508411
vt 0.604376674 0.131367207
vt 0.640276432 0.121446237
vt 0.588717878 0.161216557
vt 0.613087773 0.18197307
vt 0.556535065 0.171278864
vt 0.56536293 0.204511762
vt 0.526598334 0.155659884
vt 0.504928052 0.183088928
vt 0.00499408599 0.477428615
vt 0.516446829 0.123386554
vt 0.4809618 0.15177007
vt 0.00496674981 0.541990936
vt 0.00494543463 0.615386307
vt 0.427851886 0.616479039
vt 0.427965552 0.541769624
vt 0.801414967 0.716818452
vt 0.640276432 0.121446237
vt 0.00496506179 0.289181262
vt 0.00498404214 0.246127903
vt 0.61126107 0.0646508411
vt 0.61126107 0.0646508411
vt 0.00496593304 0.24410592
vt 0.00499555143 0.166591242
vt 0.568235576 0.0453925654
vt 0.503504515 0.0694920421
vt 0.568235517 0.0453925654
vt 0.00496371463 0.0860976279
vt 0.564514577 0.0834337771
vt 0.532159209 0.0934036374
vt 0.480749011 0.112311453
vt 0.00496514561 0.695938885
vt 0.516446888 0.123386562
vt 0.4809618 0.15177007
vt 0.00495286053 0.61523664
vt 0.613087773 0.18197307
vt 0.00496506179 0.289181262
vt 0.640276432 0.121446222
vt 0.0049650399 0.359631568
vt 0.0049650725 0.416727602
vt 0.56536293 0.204511762
vt 0.00499408599 0.477428615
g submesh0
f 1/1/1 2/2/2 3/3/3
f 4/4/4 3/3/3 5/5/5
f 4/4/4 5/5/5 6/6/6
f 4/4/4 6/6/6 7/7/7
f 8/8/8 5/5/5 9/9/9
f 8/8/8 10/10/10 5/5/5
f 8/8/8 9/9/9 11/11/11
f 12/12/12 11/11/11 9/9/9
f 8/8/8 11/11/11 13/13/13
f 8/8/8 14/14/14 10/10/10
f 8/8/8 15/15/15 14/14/14
f 8/8/8 16/16/16 15/15/15
f 8/8/8 13/13/13 17/17/17
f 8/8/8 17/17/17 16/16/16
f 18/18/18 17/17/17 13/13/13
f 18/18/18 19/19/19 17/17/17
f 19/19/19 16/16/16 17/17/17
f 19/19/19 20/20/20 16/16/16
f 21/21/21 16/16/16 20/20/20
f 22/22/22 14/14/14 23/23/23
f 24/24/24 15/15/15 25/25/25
f 26/26/26 10/10/10 27/27/27
f 26/26/26 27/27/27 28/28/28
f 29/29/29 30/30/30 31/31/31
f 32/32/32 33/33/33 34/34/34
f 35/35/35 36/36/36 32/32/32
f 37/37/37 38/38/38 35/35/35
f 32/32/32 39/39/39 40/40/40
f 40/40/40 39/39/39 41/41/41
f 37/37/37 42/42/42 43/43/43
f 42/42/42 44/44/44 43/43/43
f 45/45/45 46/46/46 47/47/47
f 45/45/45 48/48/48 49/49/49
f 49/49/49 48/48/48 50/50/50
f 48/48/48 51/51/51 50/50/50
f 49/49/49 50/50/50 52/52/52
f 50/50/50 53/53/53 52/52/52
f 53/53/53 54/54/54 52/52/52
f 55/55/55 50/50/50 51/51/51
f 53/53/53 56/56/56 54/54/54
f 55/55/55 57/57/57 50/50/50
f 58/58/58 57/57/57 55/55/55
f 59/59/59 58/58/58 55/55/55
f 50/50/50 60/60/60 53/53/53
f 58/58/58 61/61/61 60/60/60
f 61/61/61 53/53/53 60/60/60
f 61/61/61 62/62/62 53/53/53
f 53/53/53 63/63/63 56/56/56
f 62/62/62 63/63/63 53/53/53
f 56/56/56 63/63/63 64/64/64
f 62/62/62 65/65/65 63/63/63
f 63/63/63 66/66/66 64/64/64
f 65/65/65 66/66/66 63/63/63
f 64/64/64 66/66/66 67/67/67
f 65/65/65 68/68/68 66/66/66
f 66/66/66 68/68/68 67/67/67
f 67/67/67 68/68/68 69/69/69
f 65/65/65 70/70/70 68/68/68
f 70/70/70 71/71/71 68/68/68
f 68/68/68 72/72/72 69/69/69
f 68/68/68 71/71/71 72/72/72
f 70/70/70 73/73/73 71/71/71
f 73/73/73 74/74/74 71/71/71
f 72/72/72 71/71/71 75/75/75
f 76/76/76 72/72/72 75/75/75
f 74/74/74 77/77/77 71/71/71
f 74/74/74 78/78/78 77/77/77
f 78/78/78 59/59/59 77/77/77
f 59/59/59 79/79/79 77/77/77
f 71/71/71 80/80/80 75/75/75
f 71/71/71 77/77/77 80/80/80
f 81/81/81 77/77/77 79/79/79
f 80/80/80 77/77/77 81/81/81
f 82/82/82 80/80/80 81/81/81
f 82/82/82 81/81/81 83/83/83
f 84/84/84 82/82/82 83/83/83
f 85/85/85 75/75/75 80/80/80
f 85/85/85 76/76/76 75/75/75
f 85/85/85 86/86/86 76/76/76
f 87/87/87 86/86/86 85/85/85
f 76/76/76 86/86/86 88/88/88
f 89/89/89 76/76/76 88/88/88
f 89/89/89 90/90/90 76/76/76
f 76/76/76 90/90/90 91/91/91
f 92/92/92 90/90/90 89/89/89
f 93/93/93 90/90/90 92/92/92
f 90/90/90 93/93/93 94/94/94
f 84/84/84 95/95/95 96/96/96
f 96/96/96 97/97/97 98/98/98
f 96/96/96 99/99/99 100/100/100
f 99/99/99 101/101/101 100/100/100
f 99/99/99 102/102/102 101/101/101
f 79/79/79 101/101/101 102/102/102
f 103/103/103 104/104/104 105/105/105
f 106/106/106 107/107/107 108/108/108
f 109/109/109 110/110/110 111/111/111
f 112/112/112 113/113/113 114/114/114
f 115/115/115 116/116/116 117/117/117
f 118/118/118 119/119/119 120/120/120
f 121/121/121 122/122/122 123/123/123
f 124/124/124 125/125/125 126/126/126
f 127/127/127 128/128/128 129/129/129
f 130/130/130 131/131/131 132/132/132
f 133/133/133 134/134/134 135/135/135
f 136/136/136 137/137/137 138/138/138
f 136/136/136 138/138/138 139/139/139
f 139/139/139 138/138/138 140/140/140
f 139/139/139 140/140/140 141/141/141
f 141/141/141 140/140/140 142/142/142
f 141/141/141 142/142/142 143/143/143
f 144/144/144 145/145/145 142/142/142
f 144/144/144 142/142/142 146/146/146
f 147/147/147 148/148/148 146/146/146
f 147/147/147 146/146/146 149/149/149
f 150/150/150 147/147/147 149/149/149
f 150/150/150 149/149/149 151/151/151
f 152/152/152 150/150/150 151/151/151
f 152/152/152 151/151/151 153/153/153
f 152/152/152 153/153/153 154/154/154
f 152/152/152 154/154/154 155/155/155
f 156/156/156 157/157/157 158/158/158
f 156/156/156 158/158/158 159/159/159
f 158/158/158 160/160/160 159/159/159
f 160/160/160 158/158/158 161/161/161
f 160/160/160 162/162/162 159/159/159
f 160/160/160 161/161/161 163/163/163
f 162/162/162 160/160/160 164/164/164
f 164/164/164 160/160/160 165/165/165
f 165/165/165 160/160/160 166/166/166
f 160/160/160 163/163/163 166/166/166
f 167/167/167 165/165/165 166/166/166
f 167/167/167 166/166/166 168/168/168
f 169/169/169 166/166/166 163/163/163
f 169/169/169 163/163/163 170/170/170
f 171/171/171 161/161/161 172/172/172
f 171/171/171 172/172/172 173/173/173
f 174/174/174 175/175/175 162/162/162
f 174/174/174 176/176/176 175/175/175
f 177/177/177 163/163/163 178/178/178
f 177/177/177 178/178/178 179/179/179
f 180/180/180 181/181/181 182/182/182
f 180/180/180 182/182/182 164/164/164
f 183/183/183 164/164/164 184/184/184
f 183/183/183 184/184/184 185/185/185
f 186/186/186 187/187/187 13/13/13
f 186/186/186 13/13/13 188/188/188
f 189/189/189 186/186/186 188/188/188
f 190/190/190 191/191/191 192/192/192
f 190/190/190 193/193/193 191/191/191
f 194/194/194 193/193/193 190/190/190
f 194/194/194 195/195/195 193/193/193
f 196/196/196 195/195/195 194/194/194
f 196/196/196 197/197/197 195/195/195
f 198/198/198 197/197/197 196/196/196
f 198/198/198 199/199/199 197/197/197
f 200/200/200 199/199/199 198/198/198
f 200/200/200 201/201/201 199/199/199
f 199/199/199 201/201/201 202/202/202
f 203/203/203 201/201/201 200/200/200
f 203/203/203 204/204/204 201/201/201
f 201/201/201 204/204/204 205/205/205
f 206/206/206 207/207/207 208/208/208
f 207/207/207 209/209/209 208/208/208
f 210/210/210 211/211/211 212/212/212
f 210/210/210 212/212/212 213/213/213
f 214/214/214 215/215/215 216/216/216
f 214/214/214 216/216/216 217/217/217
f 218/218/218 219/219/219 220/220/220
f 221/221/221 219/219/219 218/218/218
f 221/221/221 218/218/218 222/222/222
f 222/222/222 218/218/218 223/223/223
f 223/223/223 218/218/218 224/224/224
f 222/222/222 223/223/223 225/225/225
f 225/225/225 223/223/223 226/226/226
f 226/226/226 223/223/223 227/227/227
f 228/228/228 229/229/229 230/230/230
f 228/228/228 231/231/231 229/229/229
f 228/228/228 232/232/232 231/231/231
f 228/228/228 233/233/233 232/232/232
f 233/233/233 234/234/234 232/232/232
