# stairs.triangle.spiral.landing.collision
v 0.441576838 1.43800032 -1.85025656
v 0.441576838 1.50000024 -1.85025656
v 1.49997103 1.50000048 0.00471244799
v 1.49997103 1.43800044 0.00471244799
v 0.259436607 1.43800032 -1.73856103
v 0.259436607 1.50000024 -1.73856103
v 0.181717739 1.43800032 -1.65578079
v 0.181717739 1.50000024 -1.65578079
v 0.127613679 1.43800032 -1.54481447
v 0.127613679 1.50000024 -1.54481447
v 0.10712295 1.43800032 -1.40321088
v 0.10712295 1.50000024 -1.40321088
v 0.112986602 1.50000048 -0.00780540472
v 0.112986602 1.43800044 -0.00780540472
g submesh0
f 1 2 3
f 1 3 4
f 5 2 1
f 4 5 1
f 5 6 2
f 2 6 3
f 7 6 5
f 4 7 5
f 7 8 6
f 3 6 8
f 9 8 7
f 4 9 7
f 9 10 8
f 3 8 10
f 11 10 9
f 4 11 9
f 3 10 12
f 11 12 10
f 4 3 13
f 3 12 13
f 14 12 11
f 4 14 11
f 4 13 14
f 14 13 12
