# stairs.spiral.collision.detail
v 0.00130351656 1.50000024 -0.150265321
v 0.149994373 1.50000012 1.16735E-05
v 0.106983729 1.50000012 -0.105411276
v 0.105140463 1.5 0.106712759
v -0.00130328489 1.50000012 0.149723306
v -0.106983542 1.50000012 0.104869328
v -0.149994195 1.50000012 -2.1851958E-09
v -0.105140261 1.50000012 -0.107254609
v 0.00130348967 3.07070529E-08 -0.15026553
v 0.106983624 -6.35652384E-08 -0.105411634
v 0.149994269 -9.14396239E-08 1.15104667E-05
v 0.105140314 -1.89756619E-07 0.106712461
v -0.0013034041 -1.16152478E-07 0.149723038
v -0.106983632 -9.81741053E-08 0.104869075
v -0.149994373 -7.04303389E-08 -1.79469865E-07
v -0.105140321 -4.82767E-08 -0.107254826
v 1.08024347 0.759063423 1.3919673
v 0.0313748717 0.75906384 0.0961083174
v 0.133991003 0.75906384 0.0247293785
v 0.110372983 0.946751833 0.101205334
v 1.4010402 0.946751177 1.40480673
v 0.0631389394 0.946751833 0.135765374
v 0.977627337 0.759063423 1.46334624
v 0.655409396 0.946751297 1.39899552
v 0.409299374 0.572021306 1.42304337
v -0.0121414708 0.563200712 0.11676015
v 0.107993044 0.563200891 0.0822245777
v 0.0631385967 0.758207619 0.135765284
v 0.289164811 0.572021306 1.45757926
v 0.650497735 0.760148287 1.40463161
v 0.00962633546 0.760560811 1.39491224
v 0.00627552252 0.760565937 0.149619311
v -1.37056231 0.0157954581 1.08091486
v -0.101949602 0.0157955997 0.0390139297
v -0.0297654402 0.015795555 0.141065121
v -0.0986952186 0.202008381 0.109691106
v -1.44274628 0.0157954991 0.978863716
v -1.39869082 0.202008188 1.40331185
v -1.39604461 0.202008381 0.674653709
v -0.13257888 0.202008471 0.0638788939
v 1.41143751 1.31676507 -0.39634794
v 0.101847313 1.31676543 0.0038525057
v 0.0751171634 1.31676543 -0.118256055
v 0.1354554 1.5 -0.0644216239
v 1.39974976 1.50000024 -0.670569062
v 0.149747446 1.50000012 -0.00663601328
v 1.43816757 1.31676507 -0.274239242
v 1.39344573 1.49999976 -0.00682175998
v -0.0743879527 0.200942382 0.0689920187
v 0.0343832448 0.200942352 0.130586013
v -0.919631422 0.200942099 1.43738031
v -1.02840269 0.200942099 1.3757863
v -0.0986949056 0.388194263 0.109691314
v -1.38587451 0.388193965 1.39803946
v -0.0527686253 0.388194263 0.13794595
v -0.591900826 0.388193846 1.40524185
v -0.0574212261 0.385835856 0.097057499
v 0.0669804588 0.385835856 0.109273963
v -0.217106014 0.385813892 1.43544245
v -0.341507554 0.385856837 1.42322588
v -0.0527683385 0.57438004 0.137945995
v -0.581464827 0.574379742 1.39832282
v 0.00506838784 0.574380159 0.146907866
v 0.00191854057 0.574379683 1.4038583
v 0.0607030615 0.944393516 0.0698302165
v 0.134024084 0.944393516 -0.0314071774
v 1.46008301 0.944393039 0.935396016
v 1.3867619 0.944392979 1.03663337
v 0.110372998 1.13293779 0.101205379
v 1.39498746 1.13293719 1.39121211
v 0.140785784 1.13293779 0.0512008369
v 1.40022385 1.13293743 0.617847621
v 0.0875721499 1.13057923 0.0405211151
v 0.115848236 1.13057935 -0.0812387317
v 1.43929696 1.13057816 0.236757234
v 1.41102111 1.13057995 0.358516961
v 0.140785798 1.31912363 0.0512008816
v 1.39339316 1.31912339 0.60727042
v 0.149747446 1.31912363 -0.0066361404
v 1.40095901 1.31912351 0.000722266326
v 0.00130348967 3.07070529E-08 -0.15026553
v -0.105140321 -4.82767E-08 -0.107254826
v -0.105140261 1.50000012 -0.107254609
v 0.00130351656 1.50000024 -0.150265321
v -0.149994195 1.50000012 -2.1851958E-09
v 0.106983624 -6.35652384E-08 -0.105411634
v -0.149994373 -7.04303389E-08 -1.79469865E-07
v 0.106983729 1.50000012 -0.105411276
v -0.106983542 1.50000012 0.104869328
v 0.149994269 -9.14396239E-08 1.15104667E-05
v -0.106983632 -9.81741053E-08 0.104869075
v 0.149994373 1.50000012 1.16735E-05
v -0.00130328489 1.50000012 0.149723306
v 0.105140314 -1.89756619E-07 0.106712461
v -0.0013034041 -1.16152478E-07 0.149723038
v 0.105140463 1.5 0.106712759
vn 1.38207582E-07 1 4.35833215E-07
vn 1.15964234E-07 1 1.20575862E-06
vn 1.81626956E-06 1 -4.76600036E-07
vn 1.07041353E-06 1 1.0191651E-06
vn 7.84883866E-07 1 7.50693516E-07
vn -3.12980603E-07 1 6.71344992E-07
vn -8.14664645E-07 1 3.60525291E-07
vn -1.65497704E-06 1 -4.85560292E-07
vn -1.04116786E-07 -1 -3.35834727E-07
vn -9.43146688E-07 -1 1.20381273E-07
vn 0 -1 -7.20797743E-07
vn -5.70218901E-07 -1 -6.27501095E-07
vn -4.27454211E-07 -1 -4.93264963E-07
vn 1.21477996E-07 -1 -4.53590587E-07
vn 3.72319619E-07 -1 -2.98180765E-07
vn 7.92476328E-07 -1 1.24862993E-07
vn 0.503607094 -0.863710701 0.0195897575
vn -0.376925647 -0.899625063 0.22045809
vn 0.379830629 -0.868635356 -0.318121523
vn 0.651313424 0.527469218 -0.54549706
vn 0.859766543 0.510591209 0.00990696251
vn -0.769426107 0.453276545 0.450026512
vn -0.126759261 -0.542559803 0.830398023
vn -0.656816721 0.449789494 0.605211735
vn 0.522106767 -0.727922976 0.444446325
vn -0.430005044 -0.901115537 0.0555562265
vn 0.48579821 -0.859261453 -0.160218313
vn 0.786393404 0.557252347 -0.266561985
vn -0.282101512 -0.536511719 0.795345247
vn 0.842848718 0.49813199 0.203643262
vn -0.797674179 0.43799746 0.414577037
vn -0.855466664 0.507833421 0.101399563
vn 0.00797877368 -0.865244806 0.501286149
vn -0.230268508 -0.89297986 -0.386734277
vn 0.332531363 -0.857225776 0.393175572
vn 0.537061334 0.555276692 0.635006189
vn -0.807935536 -0.575694799 -0.125760183
vn -0.0251995027 0.51244092 0.858352721
vn -0.616124511 0.451350212 -0.645502508
vn -0.449317485 0.478178322 -0.75462532
vn 0.469769657 -0.740378857 -0.480786502
vn 0.0448705442 -0.908250213 0.416014522
vn -0.152792439 -0.880180538 -0.449373722
vn -0.27171436 0.53624475 -0.799132586
vn 0.188860312 0.479154259 -0.857171535
vn 0.09542007 0.456334025 0.88467747
vn 0.766031027 -0.575574636 0.286199719
vn 0.426819503 0.423111469 0.799250722
vn -0.314502686 -0.909569681 -0.271608293
vn 0.420846105 -0.873667181 0.244119108
vn 0.140900642 -0.57846123 0.803448558
vn -0.445797831 -0.893510103 0.0538889095
vn -0.667926073 0.470259041 -0.57682842
vn -0.904013991 0.426289618 0.0321844555
vn 0.750200152 0.497824669 0.435167134
vn 0.645771086 0.479154557 0.594466746
vn -0.425363749 -0.895099461 -0.133651555
vn 0.524288297 -0.84954375 0.0582864359
vn 0.341323674 -0.555190146 0.758460283
vn -0.465797931 -0.658946574 0.590611219
vn -0.813792884 0.52187115 -0.255717874
vn -0.858689666 0.45260942 0.240409851
vn 0.835435688 0.541680336 0.0928956419
vn 0.747436404 0.508153319 0.427924186
vn -0.273804665 -0.908134997 0.316736281
vn 0.248953551 -0.872828782 -0.419752479
vn 0.843326747 -0.520543635 -0.133545086
vn 0.019212164 -0.895311654 0.445025921
vn -0.585499346 0.445476145 0.677304626
vn 0.0153227374 0.426758558 0.90423578
vn 0.43870455 0.510299385 -0.739684284
vn 0.585984945 0.502041042 -0.636063218
vn -0.140272751 -0.899673223 0.413414627
vn 0.063395299 -0.862727821 -0.501678765
vn 0.781208158 -0.538509429 -0.315786928
vn 0.473634541 -0.739434898 0.478441536
vn -0.281525224 0.481991202 0.829715669
vn 0.232488796 0.436162353 0.869316638
vn 0.105108581 0.545084 -0.831766605
vn 0.421026856 0.508806884 -0.750900745
vn 0.00868943334 1.60365957E-07 -0.99996233
vn -0.702820241 1.4599361E-07 -0.711367548
vn -0.702820063 1.45993624E-07 -0.711367786
vn 0.0086894203 1.60365971E-07 -0.99996233
vn -0.999994159 0 -0.00344193983
vn 0.712046564 0 -0.702132165
vn -0.999994159 0 -0.00344189117
vn 0.712046385 0 -0.702132463
vn -0.711398065 0 0.702789247
vn 0.999986053 0 0.00528745772
vn -0.711398065 0 0.702789247
vn 0.999986053 0 0.00528724259
vn -0.00868994463 -1.83293778E-07 0.999962211
vn 0.702163339 -1.86131828E-07 0.712015927
vn -0.00868976768 -1.83293835E-07 0.99996233
vn 0.702163339 -1.86131814E-07 0.712015927
g submesh0
f 1//1 2//2 3//3
f 1//1 4//4 2//2
f 1//1 5//5 4//4
f 1//1 6//6 5//5
f 1//1 7//7 6//6
f 1//1 8//8 7//7
f 9//9 10//10 11//11
f 9//9 11//11 12//12
f 9//9 12//12 13//13
f 9//9 13//13 14//14
f 9//9 14//14 15//15
f 9//9 15//15 16//16
f 17//17 18//18 19//19
f 17//17 19//19 20//20
f 17//17 20//20 21//21
f 21//21 20//20 22//22
f 17//17 23//23 18//18
f 21//21 23//23 17//17
f 21//21 22//22 24//24
f 18//18 24//24 22//22
f 18//18 23//23 24//24
f 21//21 24//24 23//23
f 25//25 26//26 27//27
f 25//25 27//27 28//28
f 25//25 29//29 26//26
f 25//25 28//28 30//30
f 30//30 29//29 25//25
f 26//26 29//29 31//31
f 30//30 31//31 29//29
f 28//28 31//31 30//30
f 26//26 31//31 32//32
f 28//28 32//32 31//31
f 33//33 34//34 35//35
f 33//33 35//35 36//36
f 33//33 37//37 34//34
f 33//33 36//36 38//38
f 38//38 37//37 33//33
f 34//34 37//37 39//39
f 38//38 39//39 37//37
f 39//39 38//38 36//36
f 34//34 39//39 40//40
f 39//39 36//36 40//40
f 41//41 42//42 43//43
f 41//41 43//43 44//44
f 41//41 44//44 45//45
f 45//45 44//44 46//46
f 41//41 47//47 42//42
f 45//45 47//47 41//41
f 45//45 46//46 48//48
f 42//42 48//48 46//46
f 42//42 47//47 48//48
f 45//45 48//48 47//47
f 49//49 50//50 51//51
f 49//49 51//51 52//52
f 52//52 53//53 49//49
f 52//52 54//54 53//53
f 51//51 54//54 52//52
f 55//55 53//53 54//54
f 50//50 55//55 56//56
f 50//50 56//56 51//51
f 55//55 54//54 56//56
f 56//56 54//54 51//51
f 57//57 58//58 59//59
f 57//57 59//59 60//60
f 60//60 61//61 57//57
f 60//60 62//62 61//61
f 59//59 62//62 60//60
f 63//63 61//61 62//62
f 58//58 63//63 64//64
f 58//58 64//64 59//59
f 63//63 62//62 64//64
f 64//64 62//62 59//59
f 65//65 66//66 67//67
f 65//65 67//67 68//68
f 68//68 69//69 65//65
f 68//68 70//70 69//69
f 67//67 70//70 68//68
f 71//71 69//69 70//70
f 66//66 71//71 72//72
f 66//66 72//72 67//67
f 71//71 70//70 72//72
f 72//72 70//70 67//67
f 73//73 74//74 75//75
f 73//73 75//75 76//76
f 76//76 77//77 73//73
f 76//76 78//78 77//77
f 75//75 78//78 76//76
f 79//79 77//77 78//78
f 74//74 79//79 80//80
f 74//74 80//80 75//75
f 79//79 78//78 80//80
f 80//80 78//78 75//75
f 81//81 82//82 83//83
f 81//81 83//83 84//84
f 82//82 85//85 83//83
f 86//86 81//81 84//84
f 82//82 87//87 85//85
f 86//86 84//84 88//88
f 87//87 89//89 85//85
f 90//90 86//86 88//88
f 87//87 91//91 89//89
f 90//90 88//88 92//92
f 91//91 93//93 89//89
f 94//94 90//90 92//92
f 91//91 95//95 93//93
f 94//94 92//92 96//96
f 95//95 94//94 96//96
f 95//95 96//96 93//93
