# stairs.spiral.landing.collision.metal
v -0.670081794 1.69102263 -1.40797091
v -0.670311272 1.69102263 -1.46026587
v -0.670237124 1.75437224 -1.45851755
v -0.739150524 1.6910224 -1.46152747
v -0.670046687 1.75437224 -1.40601575
v -0.73908782 1.75437212 -1.45958817
v -0.739386857 1.69102263 -1.40330577
v -0.739345253 1.75437224 -1.40113962
v -0.688570857 1.69102263 -1.16851044
v -0.62650162 1.69102263 -1.20069265
v -0.626046062 1.75437224 -1.19962215
v -0.688066363 1.75437224 -1.16732454
v -0.0803329945 1.69102263 -0.132990494
v -0.138608679 1.69102263 -0.094796598
v -0.137565807 1.75437224 -0.0928628594
v -0.0793169066 1.75437248 -0.131043628
v -0.0607967116 1.69102263 -0.0108007034
v -0.0109633477 1.69102263 -0.0599597953
v -0.0591206811 1.75437248 -0.00910194591
v -0.0092876954 1.75437248 -0.0582615696
v -0.670081794 2.52293515 -1.40797091
v -0.670311272 2.52293563 -1.46026587
v -0.670236945 2.58628535 -1.45851755
v -0.739150226 2.52293563 -1.46152747
v -0.670046806 2.58628464 -1.40601563
v -0.739087641 2.58628535 -1.45958865
v -0.739386737 2.52293515 -1.40330565
v -0.739345074 2.58628464 -1.40113962
v -0.688570857 2.52293563 -1.16851044
v -0.626501501 2.52293563 -1.20069277
v -0.626046181 2.58628535 -1.19962227
v -0.688066363 2.58628535 -1.16732466
v -0.0802465975 2.52293563 -0.132774234
v -0.138526663 2.52293563 -0.0946046039
v -0.13748008 2.58628535 -0.0926608741
v -0.0792269185 2.58628535 -0.130817309
v -0.0607967563 2.52293563 -0.0108008934
v -0.0109632369 2.52293563 -0.059959989
v -0.0591207221 2.58628535 -0.0091021359
v -0.00928766094 2.58628535 -0.0582612269
v 0.00146468263 1.51800394 -0.077359587
v 0.00121740962 2.63049006 -0.066308789
v 0.0657297298 2.63049006 -0.00374798174
v 0.0767956823 1.51800394 -0.00430742046
v -0.0773180127 1.51800394 0.00347095076
v -0.00173852267 2.63049006 0.0654738173
v -0.00198710919 1.51800406 0.0765232518
v -0.0662506893 2.63049006 0.0029129379
v -0.000260399509 2.66356325 -0.000417904957
v -0.698056042 1.75266755 -1.28020942
v -0.70684582 2.52836514 -1.29763758
v -0.7242015 2.52662015 -1.33153915
v -0.662450552 1.75266755 -1.2984376
v -0.715411663 1.75092268 -1.31411111
v -0.671240389 2.52836514 -1.31586564
v -0.688596189 2.52662015 -1.34976733
v -0.679806173 1.75092268 -1.33233929
v -0.601278186 1.75266719 -1.04413331
v -0.625351906 2.5650146 -1.07502496
v -0.642707825 2.56326985 -1.10892665
v -0.565672874 1.75266755 -1.06236124
v -0.618633807 1.75092232 -1.07803476
v -0.589746714 2.5650146 -1.0932529
v -0.607102394 2.56326985 -1.12715483
v -0.583028734 1.75092256 -1.09626281
v -0.484644473 1.75128746 -0.88795507
v -0.477551758 2.5646503 -0.887679577
v -0.460179329 2.5646503 -0.853745759
v -0.520249784 1.75128746 -0.869727075
v -0.467272341 1.75128746 -0.854021192
v -0.51315707 2.5646503 -0.869451523
v -0.49578464 2.5646503 -0.835517704
v -0.502877653 1.75128746 -0.835793197
v -0.397956699 1.74481881 -0.628261983
v -0.376691461 2.56327009 -0.589308441
v -0.394047111 2.56501484 -0.623210013
v -0.362351358 1.74481869 -0.646490097
v -0.41531235 1.7465632 -0.662163556
v -0.34108603 2.56327009 -0.607536554
v -0.358441949 2.56501484 -0.641437888
v -0.379707187 1.7465632 -0.680391431
v -0.292770088 1.75128746 -0.430415422
v -0.29344517 2.5646503 -0.43455255
v -0.259511411 2.5646503 -0.451924682
v -0.274542183 1.75128746 -0.394810021
v -0.258836389 1.75128746 -0.447787553
v -0.275217175 2.5646503 -0.39894709
v -0.241283417 2.5646503 -0.41631946
v -0.240608454 1.75128746 -0.412182301
v -0.153058425 1.75266767 -0.169547886
v -0.179754868 2.5650146 -0.204625741
v -0.197110519 2.56326985 -0.238527343
v -0.117453113 1.75266767 -0.187775716
v -0.170414314 1.7509228 -0.203449011
v -0.144149542 2.5650146 -0.22285381
v -0.161505118 2.56326985 -0.256755561
v -0.134809002 1.7509228 -0.221677169
v -0.764315486 1.44434488 -1.4430052
v -0.75371182 2.63049006 -1.54431546
v -0.766042173 1.44434464 -1.55546212
v -0.645073831 1.44434464 -1.55701411
v -0.657057047 2.63049006 -1.54555583
v -0.752331972 2.63049006 -1.45446146
v -0.704694629 2.66356254 -1.5000087
v -0.655677199 2.63049006 -1.45570147
v -0.643346548 1.44434464 -1.44455731
vn 0.679165125 -0.730532706 -0.0711097121
vn 0.695411861 -0.718606114 -0.00278552505
vn 0.709230065 0.704971373 -0.00284286239
vn -0.703697562 -0.710493326 -0.00297722802
vn 0.678219318 0.731149077 -0.0737535357
vn -0.716032386 0.698060513 -0.0030313672
vn -0.726059377 -0.683542371 0.0748848394
vn -0.726085126 0.683125019 0.0783619806
vn -0.691200554 -0.679398 0.246292949
vn 0.63644731 -0.737902939 -0.224575296
vn 0.635565102 0.738086283 -0.226463333
vn -0.690761864 0.67895323 0.248738125
vn 0.549545407 -0.739915907 -0.38797453
vn -0.602754474 -0.678403258 0.420066774
vn -0.601791441 0.6762954 0.424819499
vn 0.544886291 0.742363513 -0.389865905
vn -0.527623653 -0.692881763 0.491454989
vn 0.515262902 -0.701321185 -0.492597997
vn -0.516441464 0.70844233 0.481038213
vn 0.501692116 0.719905853 -0.479625374
vn 0.679163575 -0.730533957 -0.0711124018
vn 0.695413888 -0.718604088 -0.00279243779
vn 0.7092278 0.704973698 -0.00283205393
vn -0.703701854 -0.710489154 -0.00298697432
vn 0.678220093 0.731148839 -0.073749356
vn -0.716029465 0.698063612 -0.00302363816
vn -0.726058066 -0.68354404 0.0748809278
vn -0.726086676 0.683123112 0.0783646032
vn -0.691199541 -0.679400623 0.246288449
vn 0.636454582 -0.737898171 -0.224570438
vn 0.635567009 0.738086045 -0.226458743
vn -0.690763712 0.678953409 0.248732626
vn 0.549302518 -0.740009665 -0.388139874
vn -0.602671981 -0.678350508 0.420270234
vn -0.601709366 0.676215351 0.425063074
vn 0.544594169 0.742489696 -0.390033633
vn -0.52719456 -0.693046212 0.491683692
vn 0.514983058 -0.701100588 -0.493204474
vn -0.516035736 0.708576024 0.481276751
vn 0.501399755 0.719729662 -0.480195463
vn -0.0139296353 0.00992885884 -0.99985373
vn -0.0106886588 0.444788188 -0.895572126
vn 0.895439148 0.444946498 -0.0145412665
vn 0.999848843 0.00995275564 -0.0142541658
vn -0.999848843 0.00995393097 0.0142519996
vn 0.0106880423 0.444789261 0.895571411
vn 0.0139283333 0.00992759969 0.99985373
vn -0.895438552 0.44494769 0.0145417545
vn 7.88003263E-07 1 -3.43459601E-06
vn -0.313541949 0.0177779756 0.949407935
vn -0.300955087 0.0180118326 0.953468263
vn -0.953516364 -0.0175637081 -0.300828904
vn 0.953515708 0.0175638665 0.300830901
vn -0.949510515 -0.0177969411 -0.313230127
vn 0.949509859 0.0177971013 0.313232243
vn 0.313541383 -0.017777862 -0.949408054
vn 0.300954729 -0.018011719 -0.953468382
vn -0.304200709 0.0271957852 0.952219725
vn -0.310604095 0.0269276109 0.950157821
vn -0.951855361 -0.0397670642 -0.303957254
vn 0.951854467 0.0397668667 0.303959996
vn -0.950388193 -0.0398962498 -0.308497459
vn 0.950387239 0.0398960374 0.30850026
vn 0.30419752 -0.0271961987 -0.952220678
vn 0.310601056 -0.0269280318 -0.950158894
vn 0.303582221 -0.00232467707 -0.95280242
vn 0.310781032 -0.002388241 -0.950478554
vn 0.951937973 -0.0084050335 0.306175321
vn -0.951937973 0.00840493944 -0.3061755
vn 0.951286316 -0.00840003416 0.308194429
vn -0.951286376 0.0083999401 -0.30819419
vn -0.303582013 0.00232458301 0.95280242
vn -0.310781181 0.0023881495 0.950478554
vn -0.310607314 -0.0371353216 0.949812591
vn -0.30466488 -0.0373807773 0.951725781
vn -0.951822639 0.0392054059 -0.3041327
vn 0.951824903 -0.0392052606 0.304125637
vn -0.950462937 0.0393700637 -0.308334529
vn 0.950465262 -0.039369911 0.308327436
vn 0.310603172 0.0371353701 -0.949813962
vn 0.304660857 0.0373808183 -0.951727092
vn -0.95227772 -0.00234287838 -0.305224091
vn -0.951009452 -0.0023618096 -0.309152842
vn 0.306183815 -0.00458807079 -0.951961339
vn -0.306182772 0.00458794041 0.951961756
vn 0.308199346 -0.00458308868 -0.951310754
vn -0.308198243 0.00458295783 0.951311111
vn 0.952278733 0.0023427289 0.305220723
vn 0.951010525 0.00236166012 0.309149563
vn -0.302299619 0.0312041957 0.952702045
vn -0.312679201 0.0307188593 0.94936198
vn -0.951180279 -0.0444472954 -0.30541864
vn 0.951179504 0.0444470868 0.305421054
vn -0.950793028 -0.0444862805 -0.306616277
vn 0.950792134 0.0444860868 0.306619078
vn 0.30229792 -0.0312045626 -0.952702701
vn 0.312677413 -0.0307192262 -0.949362516
vn -0.571765482 -0.572297633 0.58784318
vn -0.642803133 0.446671516 -0.622325242
vn -0.588241935 -0.572021425 -0.571631849
vn 0.571762621 -0.572300076 -0.587843537
vn 0.625073195 0.446509391 -0.640244305
vn -0.625074208 0.44650948 0.640243411
vn -1.39159454E-06 1 -1.0290305E-06
vn 0.642802775 0.446671724 0.62232554
vn 0.588242114 -0.572021604 0.571631372
g submesh0
f 1//1 2//2 3//3
f 4//4 2//2 1//1
f 1//1 3//3 5//5
f 5//5 3//3 6//6
f 6//6 4//4 7//7
f 4//4 1//1 7//7
f 6//6 7//7 8//8
f 5//5 6//6 8//8
f 9//9 7//7 1//1
f 9//9 8//8 7//7
f 10//10 1//1 5//5
f 9//9 1//1 10//10
f 11//11 5//5 8//8
f 10//10 5//5 11//11
f 9//9 12//12 8//8
f 11//11 8//8 12//12
f 11//11 13//13 10//10
f 10//10 14//14 9//9
f 10//10 13//13 14//14
f 9//9 15//15 12//12
f 9//9 14//14 15//15
f 12//12 16//16 11//11
f 11//11 16//16 13//13
f 12//12 15//15 16//16
f 13//13 17//17 14//14
f 17//17 15//15 14//14
f 13//13 18//18 17//17
f 16//16 18//18 13//13
f 17//17 19//19 15//15
f 19//19 16//16 15//15
f 16//16 20//20 18//18
f 19//19 20//20 16//16
f 21//21 22//22 23//23
f 24//24 22//22 21//21
f 21//21 23//23 25//25
f 25//25 23//23 26//26
f 26//26 24//24 27//27
f 24//24 21//21 27//27
f 26//26 27//27 28//28
f 25//25 26//26 28//28
f 29//29 27//27 21//21
f 29//29 28//28 27//27
f 30//30 21//21 25//25
f 29//29 21//21 30//30
f 31//31 25//25 28//28
f 30//30 25//25 31//31
f 29//29 32//32 28//28
f 31//31 28//28 32//32
f 31//31 33//33 30//30
f 30//30 34//34 29//29
f 30//30 33//33 34//34
f 29//29 35//35 32//32
f 29//29 34//34 35//35
f 32//32 36//36 31//31
f 31//31 36//36 33//33
f 32//32 35//35 36//36
f 33//33 37//37 34//34
f 37//37 35//35 34//34
f 33//33 38//38 37//37
f 36//36 38//38 33//33
f 37//37 39//39 35//35
f 39//39 36//36 35//35
f 36//36 40//40 38//38
f 39//39 40//40 36//36
f 41//41 42//42 43//43
f 41//41 43//43 44//44
f 45//45 42//42 41//41
f 44//44 43//43 46//46
f 44//44 46//46 47//47
f 47//47 48//48 45//45
f 45//45 48//48 42//42
f 47//47 46//46 48//48
f 42//42 49//49 43//43
f 43//43 49//49 46//46
f 46//46 49//49 48//48
f 48//48 49//49 42//42
f 50//50 51//51 52//52
f 53//53 51//51 50//50
f 50//50 52//52 54//54
f 53//53 55//55 51//51
f 54//54 52//52 56//56
f 57//57 55//55 53//53
f 54//54 56//56 57//57
f 57//57 56//56 55//55
f 58//58 59//59 60//60
f 61//61 59//59 58//58
f 58//58 60//60 62//62
f 61//61 63//63 59//59
f 62//62 60//60 64//64
f 65//65 63//63 61//61
f 62//62 64//64 65//65
f 65//65 64//64 63//63
f 66//66 67//67 68//68
f 69//69 67//67 66//66
f 66//66 68//68 70//70
f 69//69 71//71 67//67
f 70//70 68//68 72//72
f 73//73 71//71 69//69
f 70//70 72//72 73//73
f 73//73 72//72 71//71
f 74//74 75//75 76//76
f 77//77 75//75 74//74
f 74//74 76//76 78//78
f 77//77 79//79 75//75
f 78//78 76//76 80//80
f 81//81 79//79 77//77
f 78//78 80//80 81//81
f 81//81 80//80 79//79
f 82//82 83//83 84//84
f 85//85 83//83 82//82
f 82//82 84//84 86//86
f 85//85 87//87 83//83
f 86//86 84//84 88//88
f 89//89 87//87 85//85
f 86//86 88//88 89//89
f 89//89 88//88 87//87
f 90//90 91//91 92//92
f 93//93 91//91 90//90
f 90//90 92//92 94//94
f 93//93 95//95 91//91
f 94//94 92//92 96//96
f 97//97 95//95 93//93
f 94//94 96//96 97//97
f 97//97 96//96 95//95
f 98//98 99//99 100//100
f 101//101 98//98 100//100
f 100//100 99//99 102//102
f 100//100 102//102 101//101
f 98//98 103//103 99//99
f 99//99 104//104 102//102
f 103//103 104//104 99//99
f 102//102 104//104 105//105
f 101//101 102//102 105//105
f 105//105 104//104 103//103
f 106//106 103//103 98//98
f 101//101 106//106 98//98
f 101//101 105//105 106//106
f 106//106 105//105 103//103
