# stairs.spiral.collision.detail
v 1.41172254 1.49967587 0.0120266331
v 1.40975344 1.49967635 -0.68180424
v -0.0234162007 1.49967682 0.0120154684
v 1.40975344 1.46467614 -0.681712687
v 1.41172254 1.46467602 0.0120266313
v -0.0234161913 1.46467674 0.0120154666
v 1.41375744 1.3146975 0.613149703
v 1.40340674 1.31469786 -0.0080303615
v -0.0261309762 1.31469834 0.00134705729
v 1.40336835 1.27969778 -0.00794882141
v 1.41375744 1.27969766 0.613149703
v -0.0261309687 1.27969837 0.00134705566
v 1.41057587 1.1287446 1.42616212
v 1.40463328 1.13392329 0.585353136
v -0.0481832586 1.12874544 -0.0307221469
v 1.41057587 1.09374464 1.42616212
v -0.0481832512 1.09374535 -0.0307221673
v 1.40456891 1.09892333 0.585417509
v 0.625724375 0.942788005 1.4118855
v 1.40401042 0.942788422 1.38828182
v -0.0197378527 0.942788839 -0.0176841728
v 1.4039309 0.907788396 1.3883189
v 0.625724375 0.907788157 1.4118855
v -0.0197378434 0.907788813 -0.0176841747
v -0.0163766388 0.724620283 1.41031444
v -0.0163648501 0.724621177 -0.103746451
v 0.654147983 0.724620521 1.39413249
v -0.0163766462 0.759620249 1.41031444
v 0.654236197 0.759620488 1.39413118
v -0.0163648576 0.759621084 -0.103746377
v -0.609725833 0.573666871 1.4077903
v 0.00875339564 0.573667109 1.40159774
v 0.0118173491 0.573668003 -0.0612762161
v 0.00866879523 0.538667083 1.40156257
v -0.609725833 0.538666964 1.4077903
v 0.0118173575 0.538668036 -0.0612762161
v -1.42332208 0.387708813 1.40430856
v -0.578656197 0.387708932 1.39849961
v 0.0176104307 0.387709767 -0.0346161984
v -1.42332208 0.352708876 1.40430856
v 0.0176103618 0.352709681 -0.0346162207
v -0.578719139 0.352709085 1.39843667
v -1.41413891 0.166756243 0.626573503
v 0.019112071 0.166756913 -0.0211531371
v -1.38375545 0.166756362 1.40094972
v -1.41413891 0.20175609 0.626573443
v -1.38372159 0.201756358 1.40103126
v 0.0191119872 0.201756909 -0.0211530961
v 1.4070555 1.25354588 -0.00701297494
v 1.40705538 1.46783149 -0.00701296516
v 0.0319095664 1.46783125 0.00185744732
v 0.0319096148 1.25354552 0.00185743731
v 1.4068296 1.25354588 -0.0420122407
v 1.4070555 1.25354588 -0.00701297494
v 0.0319096148 1.25354552 0.00185743731
v 0.0316838622 1.25354552 -0.0331418291
v 1.4068296 1.46783149 -0.0420122333
v 1.40705538 1.46783149 -0.00701296516
v 1.4070555 1.25354588 -0.00701297494
v 1.4068296 1.25354588 -0.0420122407
v 0.0316838622 1.25354552 -0.0331418291
v 0.0319096148 1.25354552 0.00185743731
v 0.0319095664 1.46783125 0.00185744732
v 0.0316838101 1.46783125 -0.0331418179
v 1.40894699 1.27969909 0.549755991
v 1.40894711 1.06541324 0.549755991
v 0.046429541 1.065413 -0.0288897026
v 0.0464294888 1.27969885 -0.0288897194
v 0.046429541 1.065413 -0.0288897026
v 1.40894711 1.06541324 0.549755991
v 1.40741205 1.06541324 0.586542249
v 0.0327480622 1.065413 0.00332547934
v 0.0327480286 1.27969885 0.00332543184
v 0.0464294888 1.27969885 -0.0288897194
v 0.046429541 1.065413 -0.0288897026
v 0.0327480622 1.065413 0.00332547934
v 1.40741205 1.06541324 0.586542249
v 1.40894711 1.06541324 0.549755991
v 1.40894699 1.27969909 0.549755991
v 1.40741205 1.27969909 0.586542249
v 1.40739655 0.880253434 1.39315701
v 1.4073962 1.09453917 1.39315701
v 0.0165520124 1.09453881 0.0193900298
v 0.0165520832 0.880253077 0.0193900205
v 0.0165520124 1.09453881 0.0193900298
v 1.4073962 1.09453917 1.39315701
v 1.40577769 1.09453917 1.34208143
v 0.0411188416 1.09453881 -0.00553928316
v 0.0411189497 0.880253077 -0.00553921191
v 0.0165520832 0.880253077 0.0193900205
v 0.0165520124 1.09453881 0.0193900298
v 0.0411188416 1.09453881 -0.00553928316
v 1.40577769 1.09453917 1.34208143
v 1.4073962 1.09453917 1.39315701
v 1.40739655 0.880253434 1.39315701
v 1.40577769 0.880253434 1.34208143
v 0.0608837642 0.906390488 -0.00239483709
v 0.70044136 0.906391203 1.40341914
v 0.70044142 0.692105412 1.40341914
v 0.0608838163 0.692104757 -0.00239494233
v 0.70044136 0.906391203 1.40341914
v 0.658183813 0.906391203 1.40425789
v 0.658183932 0.692105412 1.40425789
v 0.70044142 0.692105412 1.40341914
v 0.0289895404 0.906390488 0.012018987
v 0.658183813 0.906391203 1.40425789
v 0.70044136 0.906391203 1.40341914
v 0.0608837642 0.906390488 -0.00239483709
v 0.0608838163 0.692104757 -0.00239494233
v 0.0289896503 0.692104757 0.012019014
v 0.0289895404 0.906390488 0.012018987
v 0.0608837642 0.906390488 -0.00239483709
v 0.044147566 0.725255311 1.40629256
v 0.0441476032 0.510969639 1.40629256
v 0.0441555679 0.510969579 0.0125970077
v 0.0441555344 0.725255251 0.0125970552
v 0.0441555679 0.510969579 0.0125970077
v 0.0441476032 0.510969639 1.40629256
v 0.00914761238 0.510969639 1.40629244
v 0.00915557146 0.510969579 0.0125967031
v 0.00915553886 0.725255251 0.0125965988
v 0.0441555344 0.725255251 0.0125970552
v 0.0441555679 0.510969579 0.0125970077
v 0.00915557146 0.510969579 0.0125967031
v 0.00914761238 0.510969639 1.40629244
v 0.0441476032 0.510969639 1.40629256
v 0.044147566 0.725255311 1.40629256
v 0.00914756954 0.725255311 1.4062922
v -0.580970049 0.324381441 1.40495574
v -0.580970049 0.538667142 1.40495598
v 0.00074257917 0.5386675 0.0032965662
v 0.000742621429 0.324381739 0.00329667074
v 0.00074257917 0.5386675 0.0032965662
v 0.0331016108 0.53866756 0.0166342854
v 0.0331016742 0.324381828 0.0166343525
v 0.000742621429 0.324381739 0.00329667074
v -0.580970049 0.538667142 1.40495598
v -0.539105594 0.538667142 1.40488434
v 0.0331016108 0.53866756 0.0166342854
v 0.00074257917 0.5386675 0.0032965662
v -0.580970049 0.324381441 1.40495574
v -0.539105535 0.324381441 1.40488434
v -0.539105594 0.538667142 1.40488434
v -0.580970049 0.538667142 1.40495598
v -1.33941424 0.352708727 1.40425539
v -1.33941424 0.138423026 1.40425539
v 0.0285516921 0.138423488 0.0191939939
v 0.02855164 0.352709234 0.0191940032
v -1.3866818 0.352708668 1.40334618
v -1.33941424 0.352708727 1.40425539
v 0.02855164 0.352709234 0.0191940032
v 0.0035709925 0.352709234 -0.00532057881
v -1.38668168 0.138422936 1.40334618
v -1.33941424 0.138423026 1.40425539
v -1.33941424 0.352708727 1.40425539
v -1.3866818 0.352708668 1.40334618
v 0.0035709925 0.352709234 -0.00532057881
v 0.02855164 0.352709234 0.0191940032
v 0.0285516921 0.138423488 0.0191939939
v 0.00357104372 0.138423473 -0.00532058906
v 0.0284839999 0.166756764 0.0332593881
v -1.41085494 0.166756481 0.682361722
v -1.41085494 -0.0475291871 0.682361722
v 0.028484052 -0.047529269 0.0332594253
v -1.41085494 0.166756481 0.682361722
v -1.4102751 0.166756481 0.646265268
v -1.41027498 -0.0475293323 0.646265268
v -1.41085494 -0.0475291871 0.682361722
v 0.0140478313 0.166756764 0.00137526658
v -1.4102751 0.166756481 0.646265268
v -1.41085494 0.166756481 0.682361722
v 0.0284839999 0.166756764 0.0332593881
v 0.028484052 -0.047529269 0.0332594253
v 0.0140478825 -0.0475292727 0.00137526612
v 0.0140478313 0.166756764 0.00137526658
v 0.0284839999 0.166756764 0.0332593881
v -1.4102751 0.166756481 0.646265268
v 0.0140478313 0.166756764 0.00137526658
v 0.0140478825 -0.0475292727 0.00137526612
v -1.41027498 -0.0475293323 0.646265268
v -1.41027498 -0.0475293323 0.646265268
v 0.0140478825 -0.0475292727 0.00137526612
v 0.028484052 -0.047529269 0.0332594253
v -1.41085494 -0.0475291871 0.682361722
v -1.3866818 0.352708668 1.40334618
v 0.0035709925 0.352709234 -0.00532057881
v 0.00357104372 0.138423473 -0.00532058906
v -1.38668168 0.138422936 1.40334618
v -1.38668168 0.138422936 1.40334618
v 0.00357104372 0.138423473 -0.00532058906
v 0.0285516921 0.138423488 0.0191939939
v -1.33941424 0.138423026 1.40425539
v -0.539105535 0.324381441 1.40488434
v 0.0331016742 0.324381828 0.0166343525
v 0.0331016108 0.53866756 0.0166342854
v -0.539105594 0.538667142 1.40488434
v -0.580970049 0.324381441 1.40495574
v 0.000742621429 0.324381739 0.00329667074
v 0.0331016742 0.324381828 0.0166343525
v -0.539105535 0.324381441 1.40488434
v 0.00914756954 0.725255311 1.4062922
v 0.00915553886 0.725255251 0.0125965988
v 0.00915557146 0.510969579 0.0125967031
v 0.00914761238 0.510969639 1.40629244
v 0.044147566 0.725255311 1.40629256
v 0.0441555344 0.725255251 0.0125970552
v 0.00915553886 0.725255251 0.0125965988
v 0.00914756954 0.725255311 1.4062922
v 0.658183813 0.906391203 1.40425789
v 0.0289895404 0.906390488 0.012018987
v 0.0289896503 0.692104757 0.012019014
v 0.658183932 0.692105412 1.40425789
v 0.658183932 0.692105412 1.40425789
v 0.0289896503 0.692104757 0.012019014
v 0.0608838163 0.692104757 -0.00239494233
v 0.70044142 0.692105412 1.40341914
v 1.40577769 0.880253434 1.34208143
v 0.0411189497 0.880253077 -0.00553921191
v 0.0411188416 1.09453881 -0.00553928316
v 1.40577769 1.09453917 1.34208143
v 1.40739655 0.880253434 1.39315701
v 0.0165520832 0.880253077 0.0193900205
v 0.0411189497 0.880253077 -0.00553921191
v 1.40577769 0.880253434 1.34208143
v 1.40741205 1.27969909 0.586542249
v 0.0327480286 1.27969885 0.00332543184
v 0.0327480622 1.065413 0.00332547934
v 1.40741205 1.06541324 0.586542249
v 1.40894699 1.27969909 0.549755991
v 0.0464294888 1.27969885 -0.0288897194
v 0.0327480286 1.27969885 0.00332543184
v 1.40741205 1.27969909 0.586542249
v 1.4068296 1.25354588 -0.0420122407
v 0.0316838622 1.25354552 -0.0331418291
v 0.0316838101 1.46783125 -0.0331418179
v 1.4068296 1.46783149 -0.0420122333
v 1.4068296 1.46783149 -0.0420122333
v 0.0316838101 1.46783125 -0.0331418179
v 0.0319095664 1.46783125 0.00185744732
v 1.40705538 1.46783149 -0.00701296516
v -0.0234161913 1.46467674 0.0120154666
v -0.0234162007 1.49967682 0.0120154684
v 1.40975344 1.49967635 -0.68180424
v 1.40975344 1.46467614 -0.681712687
v 1.41172254 1.49967587 0.0120266331
v 1.41172254 1.46467602 0.0120266313
v 1.40975344 1.46467614 -0.681712687
v 1.40975344 1.49967635 -0.68180424
v 1.41172254 1.49967587 0.0120266331
v -0.0234162007 1.49967682 0.0120154684
v -0.0234161913 1.46467674 0.0120154666
v 1.41172254 1.46467602 0.0120266313
v -0.0261309687 1.27969837 0.00134705566
v 1.41375744 1.27969766 0.613149703
v 1.41375744 1.3146975 0.613149703
v -0.0261309762 1.31469834 0.00134705729
v 1.41375744 1.3146975 0.613149703
v 1.41375744 1.27969766 0.613149703
v 1.40336835 1.27969778 -0.00794882141
v 1.40340674 1.31469786 -0.0080303615
v 1.41057587 1.1287446 1.42616212
v 1.41057587 1.09374464 1.42616212
v 1.40456891 1.09892333 0.585417509
v 1.40463328 1.13392329 0.585353136
v 1.41057587 1.1287446 1.42616212
v -0.0481832586 1.12874544 -0.0307221469
v -0.0481832512 1.09374535 -0.0307221673
v 1.41057587 1.09374464 1.42616212
v 0.625724375 0.942788005 1.4118855
v 0.625724375 0.907788157 1.4118855
v 1.4039309 0.907788396 1.3883189
v 1.40401042 0.942788422 1.38828182
v 0.625724375 0.942788005 1.4118855
v -0.0197378527 0.942788839 -0.0176841728
v -0.0197378434 0.907788813 -0.0176841747
v 0.625724375 0.907788157 1.4118855
v -0.0163648501 0.724621177 -0.103746451
v -0.0163766388 0.724620283 1.41031444
v -0.0163766462 0.759620249 1.41031444
v -0.0163648576 0.759621084 -0.103746377
v -0.0163766462 0.759620249 1.41031444
v -0.0163766388 0.724620283 1.41031444
v 0.654147983 0.724620521 1.39413249
v 0.654236197 0.759620488 1.39413118
v 0.0118173575 0.538668036 -0.0612762161
v -0.609725833 0.538666964 1.4077903
v -0.609725833 0.573666871 1.4077903
v 0.0118173491 0.573668003 -0.0612762161
v -0.609725833 0.573666871 1.4077903
v -0.609725833 0.538666964 1.4077903
v 0.00866879523 0.538667083 1.40156257
v 0.00875339564 0.573667109 1.40159774
v -1.42332208 0.387708813 1.40430856
v -1.42332208 0.352708876 1.40430856
v -0.578719139 0.352709085 1.39843667
v -0.578656197 0.387708932 1.39849961
v -1.42332208 0.387708813 1.40430856
v 0.0176104307 0.387709767 -0.0346161984
v 0.0176103618 0.352709681 -0.0346162207
v -1.42332208 0.352708876 1.40430856
v 0.019112071 0.166756913 -0.0211531371
v -1.41413891 0.166756243 0.626573503
v -1.41413891 0.20175609 0.626573443
v 0.0191119872 0.201756909 -0.0211530961
v -1.41413891 0.20175609 0.626573443
v -1.41413891 0.166756243 0.626573503
v -1.38375545 0.166756362 1.40094972
v -1.38372159 0.201756358 1.40103126
v -0.148840874 1.50221658 1.86677589E-05
v -0.108535267 1.50221658 -0.102523431
v -0.108501673 -4.73018881E-05 -0.102491565
v -0.148794517 -4.73162181E-05 1.80346888E-05
v 0.00141771289 -4.72734937E-05 -0.150202021
v -0.108501673 -4.73018881E-05 -0.102491565
v -0.108535267 1.50221658 -0.102523431
v 0.00141736073 1.50221658 -0.150248364
v 0.103927821 -4.72509309E-05 -0.10990902
v 0.103959851 1.50221658 -0.109942481
v 0.151649952 -4.70920459E-05 3.54280419E-05
v 0.103927821 -4.72509309E-05 -0.10990902
v 0.103959851 1.50221658 -0.109942481
v 0.151684791 1.50221658 9.97834195E-06
v 0.109785303 -4.71066851E-05 0.101162776
v 0.151649952 -4.70920459E-05 3.54280419E-05
v 0.151684791 1.50221658 9.97834195E-06
v 0.111380517 1.50221658 0.102553844
v 0.00149684632 -4.72872416E-05 0.148168609
v 0.109785303 -4.71066851E-05 0.101162776
v 0.00142610178 1.50221658 0.150279388
v -0.101073645 -4.73099208E-05 0.10996329
v 0.00149684632 -4.72872416E-05 0.148168609
v -0.101116061 1.50221658 0.109971374
v -0.148794517 -4.73162181E-05 1.80346888E-05
v -0.101073645 -4.73099208E-05 0.10996329
v -0.101116061 1.50221658 0.109971374
v -0.148840874 1.50221658 1.86677589E-05
v 0.00149684632 -4.72872416E-05 0.148168609
v -0.101073645 -4.73099208E-05 0.10996329
v 0.0014150776 -4.72804277E-05 -1.13037379E-06
v 0.109785303 -4.71066851E-05 0.101162776
v -0.148794517 -4.73162181E-05 1.80346888E-05
v 0.151649952 -4.70920459E-05 3.54280419E-05
v -0.108501673 -4.73018881E-05 -0.102491565
v 0.103927821 -4.72509309E-05 -0.10990902
v 0.00141771289 -4.72734937E-05 -0.150202021
v 0.00142610178 1.50221658 0.150279388
v 0.00142183865 1.50221658 1.44191536E-05
v -0.101116061 1.50221658 0.109971374
v 0.111380517 1.50221658 0.102553844
v -0.148840874 1.50221658 1.86677589E-05
v 0.151684791 1.50221658 9.97834195E-06
v -0.108535267 1.50221658 -0.102523431
v 0.103959851 1.50221658 -0.109942481
v 0.00141736073 1.50221658 -0.150248364
vn 5.85726013E-07 1 5.52363417E-07
vn 5.85726013E-07 1 5.52363417E-07
vn 5.85726013E-07 1 5.52363417E-07
vn -5.32566503E-07 -1 -3.32631231E-07
vn -5.32566446E-07 -1 -3.32631231E-07
vn -5.3256656E-07 -1 -3.32631259E-07
vn 4.17650966E-07 1 3.729632E-07
vn 4.17650966E-07 1 3.729632E-07
vn 4.17650966E-07 1 3.729632E-07
vn -4.29993008E-07 -1 -2.19212566E-07
vn -4.29993008E-07 -1 -2.19212566E-07
vn -4.2999298E-07 -1 -2.19212566E-07
vn -0.00619414123 0.999961615 0.00620270474
vn -0.00619414169 0.999961615 0.00620270474
vn -0.00619414123 0.999961615 0.00620270474
vn 0.00619525276 -0.999961615 -0.00620366167
vn 0.00619525369 -0.999961615 -0.00620366167
vn 0.00619525323 -0.999961615 -0.00620366167
vn -5.10021437E-07 1 7.82569714E-07
vn -5.1002138E-07 1 7.82569714E-07
vn -5.1002138E-07 1 7.82569714E-07
vn 3.19043352E-07 -1 -6.16288901E-07
vn 3.19043352E-07 -1 -6.16288901E-07
vn 3.19043352E-07 -1 -6.16288901E-07
vn 3.38676841E-07 -1 -6.004272E-07
vn 3.38676841E-07 -1 -6.004272E-07
vn 3.38676841E-07 -1 -6.004272E-07
vn -3.39878568E-07 1 5.50036987E-07
vn -3.39878568E-07 1 5.5003693E-07
vn -3.39878568E-07 1 5.5003693E-07
vn -3.55886954E-07 1 6.19576838E-07
vn -3.55886954E-07 1 6.19576838E-07
vn -3.55886954E-07 1 6.19576838E-07
vn 2.32493633E-07 -1 -6.19849345E-07
vn 2.32493633E-07 -1 -6.19849402E-07
vn 2.32493633E-07 -1 -6.19849402E-07
vn -1.44750288E-07 1 5.10937014E-07
vn -1.44750288E-07 1 5.10936957E-07
vn -1.44750288E-07 1 5.10937014E-07
vn 2.36415246E-07 -1 -3.13101111E-07
vn 2.36415246E-07 -1 -3.13101111E-07
vn 2.36415246E-07 -1 -3.13101168E-07
vn 5.34986327E-07 -1 1.39269346E-07
vn 5.34986327E-07 -1 1.39269346E-07
vn 5.34986327E-07 -1 1.3926936E-07
vn -7.27066379E-07 1 -3.28718158E-07
vn -7.27066379E-07 1 -3.28718158E-07
vn -7.27066379E-07 1 -3.28718158E-07
vn 0.00645039091 0 0.999979258
vn 0.00645039091 0 0.999979258
vn 0.00645039091 0 0.999979258
vn 0.00645039091 0 0.999979258
vn 2.38271298E-07 -1 0
vn 2.38271298E-07 -1 0
vn 2.38271298E-07 -1 0
vn 2.38271298E-07 -1 0
vn 0.999979258 2.38563956E-07 -0.00645013247
vn 0.999979258 2.38563956E-07 -0.00645013247
vn 0.999979258 2.38563956E-07 -0.00645013247
vn 0.999979258 2.38563956E-07 -0.00645013247
vn -0.999979258 -2.38563956E-07 0.00645013247
vn -0.999979258 -2.38563956E-07 0.00645013247
vn -0.999979258 -2.38563956E-07 0.00645013247
vn -0.999979258 -2.38563956E-07 0.00645013247
vn 0.3908979 0 -0.920434058
vn 0.3908979 0 -0.920434058
vn 0.3908979 0 -0.920434058
vn 0.3908979 0 -0.920434058
vn 3.51933892E-07 -1 -2.97491454E-07
vn 3.51933863E-07 -1 -2.97491454E-07
vn 3.51933863E-07 -1 -2.97491397E-07
vn 3.51933892E-07 -1 -2.97491425E-07
vn -0.920433462 -2.4022043E-07 -0.390899241
vn -0.920433462 -2.4022043E-07 -0.390899271
vn -0.920433462 -2.4022043E-07 -0.390899271
vn -0.920433462 -2.4022043E-07 -0.390899241
vn 0.999130666 2.36140849E-07 0.0416889153
vn 0.999130666 2.36140849E-07 0.0416889116
vn 0.999130666 2.36140849E-07 0.0416889153
vn 0.999130666 2.36140849E-07 0.0416889116
vn -0.70272553 -4.33382581E-07 0.711461127
vn -0.70272553 -4.33382581E-07 0.711461127
vn -0.70272553 -4.33382553E-07 0.711461008
vn -0.70272553 -4.33382553E-07 0.711461008
vn 0 1 -3.59799174E-07
vn 0 1 -3.59799174E-07
vn 0 1 -3.59799174E-07
vn 0 1 -3.59799174E-07
vn -0.712265372 -3.9641148E-07 -0.701910317
vn -0.712265372 -3.9641148E-07 -0.701910317
vn -0.712265372 -3.9641148E-07 -0.701910317
vn -0.712265372 -3.9641148E-07 -0.701910317
vn 0.999498248 5.95599829E-07 -0.0316747501
vn 0.999498248 5.95599772E-07 -0.0316747464
vn 0.999498248 5.95599829E-07 -0.0316747501
vn 0.999498248 5.95599829E-07 -0.0316747464
vn 0.910232008 3.0975508E-07 -0.41409868
vn 0.910232008 3.09755109E-07 -0.414098769
vn 0.910232008 3.09755109E-07 -0.41409874
vn 0.910232008 3.09755109E-07 -0.41409874
vn 0.0198431071 0 0.999803126
vn 0.0198431071 0 0.999803126
vn 0.0198431071 0 0.999803126
vn 0.0198431071 0 0.999803126
vn -3.15223161E-07 1 -3.27973936E-07
vn -3.15223161E-07 1 -3.27973936E-07
vn -3.15223161E-07 1 -3.27973964E-07
vn -3.15223161E-07 1 -3.27973936E-07
vn -0.411825508 0 -0.911262691
vn -0.411825508 0 -0.911262691
vn -0.411825508 0 -0.911262691
vn -0.411825508 0 -0.911262691
vn 1 1.70573202E-07 5.71419105E-06
vn 1 1.70573202E-07 5.7136449E-06
vn 1 1.70573202E-07 5.7136449E-06
vn 1 1.70573202E-07 5.7136449E-06
vn 2.38270474E-07 -1 0
vn 2.38270474E-07 -1 0
vn 2.38270474E-07 -1 0
vn 2.38270474E-07 -1 0
vn 1.08771746E-05 -1.32465274E-07 -1
vn 1.08771746E-05 -1.32465274E-07 -1
vn 1.08771746E-05 -1.32465274E-07 -1
vn 1.08771746E-05 -1.32465274E-07 -1
vn -8.69652831E-06 3.10187033E-07 1
vn -8.69691303E-06 3.10187005E-07 1
vn -8.69652831E-06 3.10187033E-07 1
vn -8.69691303E-06 3.10187005E-07 1
vn -0.923616886 1.3545106E-07 -0.383316875
vn -0.923616886 1.35451117E-07 -0.383316904
vn -0.923616886 1.3545106E-07 -0.383316875
vn -0.923616886 1.35451089E-07 -0.383316934
vn 0.381076872 -2.75831411E-07 -0.924543321
vn 0.381076843 -2.75831383E-07 -0.924543321
vn 0.381076872 -2.75831411E-07 -0.924543321
vn 0.381076843 -2.75831383E-07 -0.924543321
vn -1.20906464E-06 1 -2.73350622E-07
vn -1.20906464E-06 1 -2.73350622E-07
vn -1.20906464E-06 1 -2.73350651E-07
vn -1.20906464E-06 1 -2.73350622E-07
vn 0.00170826761 -7.56529857E-07 0.999998569
vn 0.00170826807 -7.56529857E-07 0.999998569
vn 0.00170826796 -7.56529801E-07 0.999998569
vn 0.00170826796 -7.56529801E-07 0.999998569
vn 0.711483955 1.37107065E-07 0.702702343
vn 0.711483955 1.37107037E-07 0.702702343
vn 0.711483955 1.37107065E-07 0.702702343
vn 0.711483955 1.37107037E-07 0.702702343
vn -1.04338551E-06 1 -6.66818892E-07
vn -1.04338562E-06 1 -6.66818892E-07
vn -1.04338562E-06 1 -6.66818892E-07
vn -1.04338562E-06 1 -6.66818949E-07
vn -0.0192300901 0 0.999815166
vn -0.0192300882 0 0.999815166
vn -0.0192300901 0 0.999815166
vn -0.0192300882 0 0.999815166
vn 0.70041734 1.99817435E-07 -0.713733554
vn 0.70041734 1.99817435E-07 -0.713733554
vn 0.70041734 1.99817435E-07 -0.713733554
vn 0.70041734 1.99817435E-07 -0.713733554
vn 0.411101818 2.00213023E-07 0.911589503
vn 0.411101818 2.00213023E-07 0.911589503
vn 0.411101818 2.00213009E-07 0.911589384
vn 0.411101818 2.00213023E-07 0.911589503
vn -0.999871016 -2.37499535E-07 -0.0160623211
vn -0.999871016 -2.37499535E-07 -0.0160623211
vn -0.999871016 -2.3749952E-07 -0.0160623211
vn -0.999871016 -2.37499535E-07 -0.0160623211
vn -1.89480858E-07 1 0
vn -1.89480858E-07 1 0
vn -1.89480858E-07 1 0
vn -1.89480858E-07 1 0
vn 0.91097486 1.82046662E-07 -0.412461758
vn 0.91097492 1.82046662E-07 -0.412461758
vn 0.91097486 1.82046662E-07 -0.412461758
vn 0.91097492 1.82046662E-07 -0.412461758
vn -0.412461638 -1.29119215E-07 -0.91097492
vn -0.412461638 -1.29119215E-07 -0.91097492
vn -0.412461638 -1.29119215E-07 -0.91097492
vn -0.412461638 -1.29119201E-07 -0.91097492
vn 9.23031791E-07 -1 2.05887136E-06
vn 9.23031791E-07 -1 2.05887136E-06
vn 9.23031848E-07 -1 2.05887159E-06
vn 9.23031791E-07 -1 2.05887136E-06
vn -0.711743414 -1.37181019E-07 -0.702439547
vn -0.711743414 -1.3718099E-07 -0.702439547
vn -0.711743414 -1.37181019E-07 -0.702439547
vn -0.711743414 -1.3718099E-07 -0.702439547
vn 1.04338608E-06 -1 6.66819517E-07
vn 1.04338619E-06 -1 6.66819517E-07
vn 1.04338619E-06 -1 6.6681946E-07
vn 1.04338619E-06 -1 6.66819517E-07
vn 0.924543202 1.64772956E-07 0.381077141
vn 0.924543202 1.6477297E-07 0.381077111
vn 0.924543202 1.64772942E-07 0.381077141
vn 0.924543202 1.64772956E-07 0.381077141
vn 1.20906282E-06 -1 2.73349912E-07
vn 1.20906282E-06 -1 2.7334994E-07
vn 1.20906282E-06 -1 2.73349912E-07
vn 1.20906282E-06 -1 2.7334994E-07
vn -1 -1.76321137E-07 -5.71317923E-06
vn -1 -1.76321151E-07 -5.71317923E-06
vn -1 -1.76321123E-07 -5.71279406E-06
vn -1 -1.76321137E-07 -5.71348301E-06
vn -2.38270246E-07 1 0
vn -2.38270246E-07 1 0
vn -2.38270246E-07 1 0
vn -2.38270246E-07 1 0
vn -0.911262214 -5.34415676E-07 0.41182664
vn -0.911262214 -5.34415676E-07 0.41182664
vn -0.911262214 -5.34415676E-07 0.41182667
vn -0.911262214 -5.34415676E-07 0.41182664
vn -6.36149991E-07 -1 7.04831848E-07
vn -6.36150048E-07 -1 7.04831791E-07
vn -6.36149991E-07 -1 7.04831848E-07
vn -6.36149991E-07 -1 7.04831848E-07
vn 0.702650964 2.00248209E-07 -0.711534798
vn 0.702650964 2.00248209E-07 -0.711534798
vn 0.702650964 2.00248209E-07 -0.711534798
vn 0.702650964 2.00248209E-07 -0.711534798
vn 0 -1 3.56580017E-07
vn 0 -1 3.56580045E-07
vn 0 -1 3.56580045E-07
vn 0 -1 3.56580017E-07
vn -0.390564531 0 0.9205755
vn -0.390564591 0 0.9205755
vn -0.390564531 0 0.9205755
vn -0.390564531 0 0.9205755
vn -3.01474529E-07 1 1.704082E-07
vn -3.014745E-07 1 1.704082E-07
vn -3.014745E-07 1 1.704082E-07
vn -3.014745E-07 1 1.704082E-07
vn -0.00645039231 0 -0.999979258
vn -0.00645039231 0 -0.999979258
vn -0.00645039231 0 -0.999979258
vn -0.00645039231 0 -0.999979258
vn -2.38271298E-07 1 0
vn -2.38271298E-07 1 0
vn -2.38271298E-07 1 0
vn -2.38271298E-07 1 0
vn -0.435715735 -0.00117697369 -0.900083601
vn -0.435715735 -0.00117697369 -0.900083601
vn -0.435715735 -0.00117697357 -0.900083482
vn -0.435715735 -0.00117697369 -0.900083601
vn 0.999995947 -3.75674858E-06 -0.0028381804
vn 0.999995947 -3.75674858E-06 -0.00283818017
vn 0.999995947 -3.75674881E-06 -0.00283817993
vn 0.999995947 -3.75674881E-06 -0.0028381804
vn -7.77957939E-06 0 1
vn -7.77966034E-06 0 1
vn -7.78004505E-06 0 1
vn -7.77966034E-06 0 1
vn -0.391059488 -1.35639297E-07 0.920365393
vn -0.391059488 -1.35639297E-07 0.920365393
vn -0.391059488 -1.35639297E-07 0.920365393
vn -0.391059518 -1.35639297E-07 0.920365393
vn 0.999860525 -0.000569663884 -0.0166925844
vn 0.999860525 -0.000569663884 -0.0166925844
vn 0.999860525 -0.000569663884 -0.0166925844
vn 0.999860525 -0.000569663884 -0.0166925825
vn 0.99997437 -0.000924615073 -0.0071116793
vn 0.99997437 -0.000924614898 -0.00711167883
vn 0.99997437 -0.000924614957 -0.0071116793
vn 0.99997437 -0.000924614957 -0.0071116793
vn -0.706651986 -2.0101821E-07 0.707561314
vn -0.706651866 -2.01018182E-07 0.707561314
vn -0.706651986 -2.0101821E-07 0.707561314
vn -0.706651986 -2.0101821E-07 0.707561314
vn 0.0302915592 0.000493612082 0.999541044
vn 0.030291561 0.000493612082 0.999541044
vn 0.0302915554 0.000493612024 0.999541044
vn 0.0302915592 0.000493612082 0.999541044
vn -0.911406457 -2.36146874E-07 0.411507308
vn -0.911406398 -2.3614686E-07 0.411507338
vn -0.911406457 -2.36146874E-07 0.411507308
vn -0.911406398 -2.3614686E-07 0.411507338
vn -1 -2.3107232E-07 -7.78524736E-06
vn -1 -2.3107232E-07 -7.78563299E-06
vn -1 -2.3107232E-07 -7.78524736E-06
vn -1 -2.3107232E-07 -7.7847817E-06
vn 0.0241257194 -1.14186214E-05 0.999708951
vn 0.0241257194 -1.14186223E-05 0.999708951
vn 0.0241257213 -1.14186241E-05 0.999708951
vn 0.0241257194 -1.14186223E-05 0.999708951
vn -0.920963883 -2.01462882E-07 -0.38964802
vn -0.920963883 -2.01462854E-07 -0.38964799
vn -0.920963883 -2.01462882E-07 -0.38964802
vn -0.920963883 -2.01462854E-07 -0.38964799
vn 0.0100411335 -0.000512269908 0.999949455
vn 0.0100411335 -0.000512269966 0.999949455
vn 0.0100411335 -0.000512269908 0.999949455
vn 0.0100411335 -0.000512269908 0.999949455
vn 0.00691466266 -0.000905090361 0.999975681
vn 0.00691466313 -0.000905090477 0.999975681
vn 0.00691466266 -0.000905090361 0.999975681
vn 0.00691466359 -0.000905090361 0.999975681
vn -0.70661366 5.49366575E-07 -0.707599521
vn -0.70661366 5.49366575E-07 -0.707599521
vn -0.70661366 5.49366575E-07 -0.707599521
vn -0.70661366 5.49366575E-07 -0.707599521
vn -0.411825418 -1.38658731E-06 -0.91126281
vn -0.411825448 -1.38658731E-06 -0.91126281
vn -0.411825418 -1.38658754E-06 -0.91126281
vn -0.411825418 -1.38658754E-06 -0.91126281
vn -0.999230266 0.000438615854 0.0392255224
vn -0.999230266 0.000438615854 0.0392255224
vn -0.999230266 0.000438615825 0.0392255224
vn -0.999230266 0.000438615854 0.0392255224
vn -0.999846935 -3.07483788E-05 0.0174961593
vn -0.930685878 -2.85704591E-05 -0.365819275
vn -0.930685878 -2.85704555E-05 -0.365819246
vn -0.999846935 -3.07483788E-05 0.0174962617
vn -0.0174980983 -3.08121889E-05 -0.999846935
vn -0.398160636 -2.83726113E-05 -0.917315781
vn -0.398160696 -2.83726131E-05 -0.917315722
vn -0.0174978748 -3.08121853E-05 -0.999846935
vn 0.365819484 -2.85770766E-05 -0.930685818
vn 0.365819454 -2.8577073E-05 -0.930685818
vn 0.91731441 -2.82273832E-05 -0.398163825
vn 0.91731441 -2.82273832E-05 -0.398163766
vn 0.91731441 -2.82273832E-05 -0.398163766
vn 0.91731441 -2.82273795E-05 -0.398163766
vn 0.716243923 -0.00105065049 0.697849274
vn 0.927372694 -0.000673183531 0.374138266
vn 0.927372694 -0.000673183531 0.374138355
vn 0.716270208 -0.00105062046 0.697822154
vn 0.0219919197 -0.00104947574 0.999757588
vn 0.716243923 -0.00105065049 0.697849274
vn 0.0219546147 -0.00104944629 0.999758422
vn -0.357486606 -0.000672086608 0.93391794
vn 0.0219919197 -0.00104947574 0.999757588
vn -0.357486606 -0.000672086433 0.93391794
vn -0.999846935 -3.07483788E-05 0.0174962617
vn -0.917317212 -2.826134E-05 0.398157269
vn -0.917317212 -2.826134E-05 0.398157299
vn -0.999846935 -3.07483788E-05 0.0174961593
vn 9.27264637E-07 -1 0
vn 2.38271298E-07 -1 0
vn 6.75890647E-07 -1 1.27670461E-07
vn 1.44614091E-06 -1 1.68277182E-07
vn 2.38271298E-07 -1 0
vn 1.25376766E-06 -1 6.35659433E-07
vn 2.38271298E-07 -1 0
vn 7.38528229E-07 -1 4.20462129E-07
vn 2.38271298E-07 -1 0
vn 0 1 1.09594687E-07
vn 0 1 1.3470887E-07
vn 0 1 1.09504732E-07
vn 0 1 1.15367705E-07
vn 0 1 1.27938307E-07
vn 0 1 1.28847617E-07
vn 0 1 1.59291957E-07
vn 0 1 1.55278116E-07
vn 0 1 1.73062361E-07
vt 0.000559860026 0.445961058
vt 0.00120916241 0.547237277
vt 0.472497225 0.445961058
vt 0.0012093382 0.423245996
vt 0.000559860026 0.525555193
vt 0.472497255 0.525555193
vt 0.0720444769 0.0901739076
vt 0.164126858 0.176336631
vt 0.586513221 0.0901739076
vt 0.154897466 0.0838497281
vt 0.0720444694 0.169859141
vt 0.586513281 0.169859186
vt 0.00344665349 0.267939806
vt 0.195640296 0.357869208
vt 0.670903027 0.267939806
vt 0.00344663858 0.347498834
vt 0.670903087 0.347498834
vt 0.19655484 0.257666171
vt 0.0671884716 0.445961058
vt -0.0299109817 0.550918043
vt 0.582991362 0.445961058
vt -0.0312408973 0.419526547
vt 0.0658072829 0.525555193
vt 0.581610203 0.525555193
vt 0.000559860026 0.169859156
vt 0.472497255 0.169859186
vt 0.0056847604 0.0690984428
vt 0.000559860026 0.0901739076
vt 0.00568506215 0.191111535
vt 0.472497225 0.0901739076
vt 0.0759223774 0.0901739076
vt 0.155228108 0.176594406
vt 0.586513221 0.0901739076
vt 0.155228034 0.0835105628
vt 0.0759224743 0.169914454
vt 0.586513281 0.169859186
vt 0.00489850342 0.267939806
vt 0.198327288 0.35818705
vt 0.670903027 0.267939806
vt 0.00558587909 0.347498834
vt 0.670903087 0.347498834
vt 0.198078007 0.25734821
vt 0.0693006292 0.169859141
vt 0.586513281 0.169859186
vt -0.0273135398 0.0619382858
vt 0.0693006217 0.0901739076
vt -0.0274332166 0.198283434
vt 0.586513221 0.0901739076
vt 0.983533859 0.347670168
vt 0.983533859 0.312608033
vt 0.533235967 0.312608004
vt 0.533235967 0.347670138
vt 0.983533859 0.355217427
vt 0.983533859 0.349490613
vt 0.533235967 0.349490643
vt 0.533235967 0.355217427
vt 0.987032235 0.30300194
vt 0.998485863 0.30300194
vt 0.998485863 0.267939806
vt 0.987032235 0.267939806
vt 0.998232901 0.312613994
vt 0.986779273 0.312613994
vt 0.986779273 0.347676128
vt 0.998232901 0.347676128
vt 0.000559860026 0.579312086
vt 0.000559860026 0.61437422
vt 0.484857887 0.61437428
vt 0.484857887 0.579312086
vt 0.484857887 0.616194785
vt 0.000559860026 0.616194785
vt 0.000559860026 0.621921599
vt 0.484857887 0.621921599
vt 0.987032235 0.569706023
vt 0.998485863 0.569706023
vt 0.998485863 0.534643948
vt 0.987032235 0.534643948
vt 0.998232901 0.579318166
vt 0.986779273 0.579318166
vt 0.986779273 0.61438024
vt 0.998232901 0.61438024
vt 0.000559860026 0.0455005094
vt 0.000559860026 0.0805626437
vt 0.629624009 0.0805626735
vt 0.629624009 0.0455005392
vt 0.629624009 0.0823831558
vt 0.000559860026 0.0823831633
vt 0.000559860026 0.0881099775
vt 0.629624009 0.0881099701
vt 0.987032235 0.0358944722
vt 0.998485863 0.0358944722
vt 0.998485863 0.000832337071
vt 0.987032235 0.000832337071
vt 0.998232901 0.0455065519
vt 0.986779273 0.0455065519
vt 0.986779273 0.0805686861
vt 0.998232901 0.0805686861
vt 0.48321104 0.0358944647
vt 0.983533859 0.0358944647
vt 0.983533859 0.000832329621
vt 0.483211011 0.000832329621
vt 0.987032235 0.0358944722
vt 0.998485863 0.0358944722
vt 0.998485863 0.000832337071
vt 0.987032235 0.000832337071
vt 0.483211011 0.0436277986
vt 0.983533859 0.0436278172
vt 0.983533859 0.0379010029
vt 0.48321104 0.0379009843
vt 0.998232901 0.0455065519
vt 0.986779273 0.0455065519
vt 0.986779273 0.0805686861
vt 0.998232901 0.0805686861
vt 0.000559860026 0.0455005094
vt 0.000559860026 0.0805626437
vt 0.455556929 0.0805626661
vt 0.455556929 0.0455005318
vt 0.455556929 0.0823831558
vt 0.000559860026 0.0823831633
vt 0.000559860026 0.0881099775
vt 0.455556929 0.0881099701
vt 0.987032235 0.0358944722
vt 0.998485863 0.0358944722
vt 0.998485863 0.000832337071
vt 0.987032235 0.000832337071
vt 0.998232901 0.0455065519
vt 0.986779273 0.0455065519
vt 0.986779273 0.0805686861
vt 0.998232901 0.0805686861
vt 0.000559860026 0.267939806
vt 0.000559860026 0.30300194
vt 0.492202699 0.30300194
vt 0.492202699 0.267939806
vt 0.987032235 0.30300194
vt 0.998485863 0.30300194
vt 0.998485863 0.267939806
vt 0.987032235 0.267939806
vt 0.000559860026 0.305008441
vt 0.000559860026 0.310735255
vt 0.492202699 0.310735255
vt 0.492202699 0.305008441
vt 0.998232901 0.312613994
vt 0.986779273 0.312613994
vt 0.986779273 0.347676128
vt 0.998232901 0.347676128
vt 0.983533859 0.347670168
vt 0.983533859 0.312608033
vt 0.349726975 0.312608004
vt 0.349726975 0.347670138
vt 0.983533859 0.355217427
vt 0.983533859 0.349490613
vt 0.349726975 0.349490613
vt 0.349726975 0.355217427
vt 0.987032235 0.30300194
vt 0.998485863 0.30300194
vt 0.998485863 0.267939806
vt 0.987032235 0.267939806
vt 0.998232901 0.312613994
vt 0.986779273 0.312613994
vt 0.986779273 0.347676128
vt 0.998232901 0.347676128
vt 0.471937299 0.569706023
vt 0.983533502 0.569706023
vt 0.983533502 0.534643948
vt 0.471937299 0.534643948
vt 0.987032235 0.569706023
vt 0.998485863 0.569706023
vt 0.998485863 0.534643948
vt 0.987032235 0.534643948
vt 0.471937299 0.577439368
vt 0.983533502 0.577439368
vt 0.983533502 0.571712554
vt 0.471937299 0.571712554
vt 0.998232901 0.579318166
vt 0.986779273 0.579318166
vt 0.986779273 0.61438024
vt 0.998232901 0.61438024
vt 0.983533502 0.579312146
vt 0.471937299 0.579312086
vt 0.471937299 0.61437428
vt 0.983533502 0.61437428
vt 0.983533502 0.616194785
vt 0.471937299 0.616194785
vt 0.471937299 0.621921599
vt 0.983533502 0.621921599
vt 0.983533859 0.267939806
vt 0.349726975 0.267939806
vt 0.349726975 0.30300194
vt 0.983533859 0.30300194
vt 0.983533859 0.305008441
vt 0.349726975 0.305008441
vt 0.349726975 0.310735255
vt 0.983533859 0.310735255
vt 0.000559860026 0.347670108
vt 0.492202699 0.347670138
vt 0.492202699 0.312608004
vt 0.000559860026 0.312607974
vt 0.000559860026 0.355217427
vt 0.492202699 0.355217427
vt 0.492202699 0.349490613
vt 0.000559860026 0.349490613
vt 0.000559860026 0.0358944647
vt 0.455556929 0.0358944647
vt 0.455556929 0.000832329621
vt 0.000559860026 0.000832329621
vt 0.000559860026 0.0436277799
vt 0.455556929 0.0436277986
vt 0.455556929 0.0379009843
vt 0.000559860026 0.0379009657
vt 0.983533859 0.0455005541
vt 0.483211011 0.0455005318
vt 0.48321104 0.0805626661
vt 0.983533859 0.0805626884
vt 0.983533859 0.0823831484
vt 0.48321104 0.0823831558
vt 0.483211011 0.0881099701
vt 0.983533859 0.0881099626
vt 0.000559860026 0.0358944647
vt 0.629624009 0.0358944647
vt 0.629624009 0.000832329621
vt 0.000559860026 0.000832329621
vt 0.000559860026 0.0436277799
vt 0.629624009 0.043627806
vt 0.629624009 0.0379009917
vt 0.000559860026 0.0379009657
vt 0.000559860026 0.569706023
vt 0.484857887 0.569706023
vt 0.484857887 0.534643948
vt 0.000559860026 0.534643948
vt 0.000559860026 0.577439368
vt 0.484857887 0.577439368
vt 0.484857887 0.571712554
vt 0.000559860026 0.571712554
vt 0.983533859 0.267939806
vt 0.533235967 0.267939806
vt 0.533235967 0.30300194
vt 0.983533859 0.30300194
vt 0.983533859 0.305008441
vt 0.533235967 0.305008441
vt 0.533235967 0.310735255
vt 0.983533859 0.310735255
vt 0.987032235 0.515196145
vt 0.998346865 0.515196145
vt 0.998346925 0.413904816
vt 0.987032294 0.413907349
vt 0.986779273 0.559635699
vt 0.998346865 0.559635699
vt 0.998346984 0.458877802
vt 0.986779332 0.45886451
vt 0.000559860026 0.532983541
vt 0.472497225 0.532983541
vt 0.472497255 0.527155101
vt 0.000559860026 0.527155101
vt 0.586513281 0.171679705
vt 0.0720444694 0.17167972
vt 0.0720444694 0.17740652
vt 0.586513221 0.17740652
vt 0.998346865 0.134803087
vt 0.986779273 0.134803087
vt 0.986779213 0.222333893
vt 0.998346806 0.222345352
vt 0.998346865 0.366356611
vt 0.986779273 0.366356611
vt 0.98849082 0.456671625
vt 1.00005841 0.45667842
vt 0.00344663858 0.355217427
vt 0.670903027 0.355217457
vt 0.670903087 0.349490613
vt 0.00344663858 0.349490643
vt 0.986779273 0.559436798
vt 0.998346865 0.559436798
vt 0.998346865 0.490713477
vt 0.987101972 0.490713477
vt 0.00164387003 0.532983541
vt 0.517446756 0.532983541
vt 0.517446816 0.527155101
vt 0.00164387003 0.527155101
vt 0.472497255 0.171679705
vt 0.000559860026 0.171679705
vt 0.000559860026 0.17740652
vt 0.472497225 0.17740652
vt 0.986779392 0.204580218
vt 0.998346984 0.204580218
vt 0.998346865 0.103936777
vt 0.986779273 0.103923544
vt 0.586513281 0.171679705
vt 0.0759223774 0.17167972
vt 0.0759223774 0.17740652
vt 0.586513221 0.17740652
vt 0.998346865 0.134803072
vt 0.986779273 0.134803072
vt 0.986779273 0.222181171
vt 0.998346865 0.222193107
vt 0.998346865 0.366464734
vt 0.986779273 0.366464734
vt 0.986779273 0.458632767
vt 0.998346865 0.458639622
vt 0.00489848852 0.355217427
vt 0.670903027 0.355217457
vt 0.670903087 0.349490613
vt 0.00489848852 0.349490643
vt 0.586513281 0.171679705
vt 0.0693006292 0.17167972
vt 0.0693006217 0.17740652
vt 0.586513221 0.17740652
vt 0.986779392 0.204612762
vt 0.998346925 0.204612762
vt 0.998346984 0.0985487476
vt 0.986779332 0.0985375643
vt 0.994975686 0.850310922
vt 0.995669603 0.819441378
vt 0.00796426088 0.820029974
vt 0.00935214106 0.850618303
vt 0.00796423294 0.787834644
vt 0.00796426088 0.820029974
vt 0.995669603 0.819441378
vt 0.995669603 0.786982417
vt 0.00796423294 0.755383193
vt 0.995669603 0.754192054
vt 0.00796424039 0.726083755
vt 0.00796423294 0.755383193
vt 0.995669603 0.754192054
vt 0.993587852 0.725823998
vt 0.00727030309 0.821203351
vt 0.00727027608 0.849633574
vt 0.99636364 0.850010276
vt 0.995669723 0.818815887
vt 0.00727031101 0.789021432
vt 0.00727028493 0.817675531
vt 0.995669603 0.78698051
vt 0.00796424598 0.755319476
vt 0.00727029145 0.785457253
vt 0.995669603 0.754459381
vt 0.00657635648 0.726214349
vt 0.00796424598 0.755319476
vt 0.995669603 0.754459381
vt 0.995669663 0.726537347
vt 0.101933256 0.956906319
vt 0.0755484179 0.956282258
vt 0.0880213529 0.974206686
vt 0.12282756 0.96750164
vt 0.0535476431 0.96703589
vt 0.12271753 0.981840849
vt 0.0521725789 0.98044312
vt 0.100494199 0.992131114
vt 0.0727530718 0.991554797
vt 0.104535028 0.957542539
vt 0.0880213529 0.974206686
vt 0.122827396 0.967616916
vt 0.0748416334 0.95680356
vt 0.121543765 0.982927978
vt 0.0546929687 0.965949893
vt 0.101200998 0.991609812
vt 0.0532151982 0.980796456
vt 0.0715076178 0.990870893
g submesh0
f 1/1/1 2/2/2 3/3/3
f 4/4/4 5/5/5 6/6/6
f 7/7/7 8/8/8 9/9/9
f 10/10/10 11/11/11 12/12/12
f 13/13/13 14/14/14 15/15/15
f 16/16/16 17/17/17 18/18/18
f 19/19/19 20/20/20 21/21/21
f 22/22/22 23/23/23 24/24/24
f 25/25/25 26/26/26 27/27/27
f 28/28/28 29/29/29 30/30/30
f 31/31/31 32/32/32 33/33/33
f 34/34/34 35/35/35 36/36/36
f 37/37/37 38/38/38 39/39/39
f 40/40/40 41/41/41 42/42/42
f 43/43/43 44/44/44 45/45/45
f 46/46/46 47/47/47 48/48/48
f 49/49/49 50/50/50 51/51/51
f 49/49/49 51/51/51 52/52/52
f 53/53/53 54/54/54 55/55/55
f 53/53/53 55/55/55 56/56/56
f 57/57/57 58/58/58 59/59/59
f 57/57/57 59/59/59 60/60/60
f 61/61/61 62/62/62 63/63/63
f 61/61/61 63/63/63 64/64/64
f 65/65/65 66/66/66 67/67/67
f 65/65/65 67/67/67 68/68/68
f 69/69/69 70/70/70 71/71/71
f 69/69/69 71/71/71 72/72/72
f 73/73/73 74/74/74 75/75/75
f 73/73/73 75/75/75 76/76/76
f 77/77/77 78/78/78 79/79/79
f 77/77/77 79/79/79 80/80/80
f 81/81/81 82/82/82 83/83/83
f 81/81/81 83/83/83 84/84/84
f 85/85/85 86/86/86 87/87/87
f 85/85/85 87/87/87 88/88/88
f 89/89/89 90/90/90 91/91/91
f 89/89/89 91/91/91 92/92/92
f 93/93/93 94/94/94 95/95/95
f 93/93/93 95/95/95 96/96/96
f 97/97/97 98/98/98 99/99/99
f 97/97/97 99/99/99 100/100/100
f 101/101/101 102/102/102 103/103/103
f 101/101/101 103/103/103 104/104/104
f 105/105/105 106/106/106 107/107/107
f 105/105/105 107/107/107 108/108/108
f 109/109/109 110/110/110 111/111/111
f 109/109/109 111/111/111 112/112/112
f 113/113/113 114/114/114 115/115/115
f 113/113/113 115/115/115 116/116/116
f 117/117/117 118/118/118 119/119/119
f 117/117/117 119/119/119 120/120/120
f 121/121/121 122/122/122 123/123/123
f 121/121/121 123/123/123 124/124/124
f 125/125/125 126/126/126 127/127/127
f 125/125/125 127/127/127 128/128/128
f 129/129/129 130/130/130 131/131/131
f 129/129/129 131/131/131 132/132/132
f 133/133/133 134/134/134 135/135/135
f 133/133/133 135/135/135 136/136/136
f 137/137/137 138/138/138 139/139/139
f 137/137/137 139/139/139 140/140/140
f 141/141/141 142/142/142 143/143/143
f 141/141/141 143/143/143 144/144/144
f 145/145/145 146/146/146 147/147/147
f 145/145/145 147/147/147 148/148/148
f 149/149/149 150/150/150 151/151/151
f 149/149/149 151/151/151 152/152/152
f 153/153/153 154/154/154 155/155/155
f 153/153/153 155/155/155 156/156/156
f 157/157/157 158/158/158 159/159/159
f 157/157/157 159/159/159 160/160/160
f 161/161/161 162/162/162 163/163/163
f 161/161/161 163/163/163 164/164/164
f 165/165/165 166/166/166 167/167/167
f 165/165/165 167/167/167 168/168/168
f 169/169/169 170/170/170 171/171/171
f 169/169/169 171/171/171 172/172/172
f 173/173/173 174/174/174 175/175/175
f 173/173/173 175/175/175 176/176/176
f 177/177/177 178/178/178 179/179/179
f 177/177/177 179/179/179 180/180/180
f 181/181/181 182/182/182 183/183/183
f 181/181/181 183/183/183 184/184/184
f 185/185/185 186/186/186 187/187/187
f 185/185/185 187/187/187 188/188/188
f 189/189/189 190/190/190 191/191/191
f 189/189/189 191/191/191 192/192/192
f 193/193/193 194/194/194 195/195/195
f 193/193/193 195/195/195 196/196/196
f 197/197/197 198/198/198 199/199/199
f 197/197/197 199/199/199 200/200/200
f 201/201/201 202/202/202 203/203/203
f 201/201/201 203/203/203 204/204/204
f 205/205/205 206/206/206 207/207/207
f 205/205/205 207/207/207 208/208/208
f 209/209/209 210/210/210 211/211/211
f 209/209/209 211/211/211 212/212/212
f 213/213/213 214/214/214 215/215/215
f 213/213/213 215/215/215 216/216/216
f 217/217/217 218/218/218 219/219/219
f 217/217/217 219/219/219 220/220/220
f 221/221/221 222/222/222 223/223/223
f 221/221/221 223/223/223 224/224/224
f 225/225/225 226/226/226 227/227/227
f 225/225/225 227/227/227 228/228/228
f 229/229/229 230/230/230 231/231/231
f 229/229/229 231/231/231 232/232/232
f 233/233/233 234/234/234 235/235/235
f 233/233/233 235/235/235 236/236/236
f 237/237/237 238/238/238 239/239/239
f 237/237/237 239/239/239 240/240/240
f 241/241/241 242/242/242 243/243/243
f 241/241/241 243/243/243 244/244/244
f 245/245/245 246/246/246 247/247/247
f 245/245/245 247/247/247 248/248/248
f 249/249/249 250/250/250 251/251/251
f 249/249/249 251/251/251 252/252/252
f 253/253/253 254/254/254 255/255/255
f 253/253/253 255/255/255 256/256/256
f 257/257/257 258/258/258 259/259/259
f 257/257/257 259/259/259 260/260/260
f 261/261/261 262/262/262 263/263/263
f 261/261/261 263/263/263 264/264/264
f 265/265/265 266/266/266 267/267/267
f 265/265/265 267/267/267 268/268/268
f 269/269/269 270/270/270 271/271/271
f 269/269/269 271/271/271 272/272/272
f 273/273/273 274/274/274 275/275/275
f 273/273/273 275/275/275 276/276/276
f 277/277/277 278/278/278 279/279/279
f 277/277/277 279/279/279 280/280/280
f 281/281/281 282/282/282 283/283/283
f 281/281/281 283/283/283 284/284/284
f 285/285/285 286/286/286 287/287/287
f 285/285/285 287/287/287 288/288/288
f 289/289/289 290/290/290 291/291/291
f 289/289/289 291/291/291 292/292/292
f 293/293/293 294/294/294 295/295/295
f 293/293/293 295/295/295 296/296/296
f 297/297/297 298/298/298 299/299/299
f 297/297/297 299/299/299 300/300/300
f 301/301/301 302/302/302 303/303/303
f 301/301/301 303/303/303 304/304/304
f 305/305/305 306/306/306 307/307/307
f 305/305/305 307/307/307 308/308/308
f 309/309/309 310/310/310 311/311/311
f 309/309/309 311/311/311 312/312/312
f 313/313/313 314/314/314 315/315/315
f 313/313/313 315/315/315 316/316/316
f 317/317/317 313/313/313 316/316/316
f 317/317/317 316/316/316 318/318/318
f 319/319/319 320/320/320 321/321/321
f 319/319/319 321/321/321 322/322/322
f 323/323/323 324/324/324 325/325/325
f 323/323/323 325/325/325 326/326/326
f 327/327/327 328/328/328 326/326/326
f 327/327/327 326/326/326 329/329/329
f 330/330/330 331/331/331 329/329/329
f 330/330/330 329/329/329 332/332/332
f 333/333/333 334/334/334 335/335/335
f 333/333/333 335/335/335 336/336/336
f 337/337/337 338/338/338 339/339/339
f 340/340/340 337/337/337 339/339/339
f 338/338/338 341/341/341 339/339/339
f 342/342/342 340/340/340 339/339/339
f 341/341/341 343/343/343 339/339/339
f 344/344/344 342/342/342 339/339/339
f 343/343/343 345/345/345 339/339/339
f 345/345/345 344/344/344 339/339/339
f 346/346/346 347/347/347 348/348/348
f 349/349/349 347/347/347 346/346/346
f 348/348/348 347/347/347 350/350/350
f 351/351/351 347/347/347 349/349/349
f 350/350/350 347/347/347 352/352/352
f 353/353/353 347/347/347 351/351/351
f 352/352/352 347/347/347 354/354/354
f 354/354/354 347/347/347 353/353/353
