# stairs.spiral.landing.collision
v 0.0186994933 1.7208755 -0.0133894347
v -0.000758972135 1.69399619 0.00515396101
v -0.111292109 1.69087541 -0.114082642
v -0.0866394043 1.72087538 -0.13169907
v -0.000758972135 1.74775481 0.00515396101
v -0.678767979 1.69087541 -1.23580515
v -0.11129196 1.75087535 -0.114082485
v -0.02021759 1.7208755 0.0236976612
v -0.650135636 1.72087538 -1.24476027
v -0.704228222 1.69445693 -1.50093758
v -0.677814603 1.72087801 -1.50157237
v -0.678767979 1.75087535 -1.23580515
v -0.704228222 1.74729931 -1.50093699
v -0.135944664 1.72087538 -0.096465908
v -0.000758972135 1.69399619 0.00515396101
v -0.111292109 1.69087541 -0.114082642
v -0.707400203 1.72087538 -1.22684979
v -0.730641782 1.72087812 -1.5003022
v -0.678767979 1.69087541 -1.23580515
v -0.704228222 1.69445693 -1.50093758
v -0.730209053 1.46552432 -1.51593733
v -0.719228208 1.46552432 -1.47495675
v -0.719229698 2.44073582 -1.47495735
v -0.730210543 2.44404483 -1.51593828
v -0.689228177 1.46552432 -1.52691841
v -0.718117177 2.5165894 -1.42871106
v -0.689229727 2.44484711 -1.52691901
v -0.678247333 1.46552444 -1.48593736
v -0.72856015 2.55325603 -1.44732618
v -0.678248882 2.4415381 -1.48593819
v -0.719228208 1.46552432 -1.47495675
v -0.706825554 2.56848502 -1.2263844
v -0.697404742 2.52722287 -1.22933114
v -0.687449038 2.5621407 -1.45288861
v -0.667444766 2.57835627 -1.23870194
v -0.677006185 2.52547383 -1.43427324
v -0.658023655 2.53709388 -1.24164867
v -0.719229698 2.44073582 -1.47495735
v -0.718117177 2.5165894 -1.42871106
v -0.697404742 2.52722287 -1.22933114
v -0.730209053 1.46552432 -1.51593733
v -0.678247333 1.46552444 -1.48593736
v -0.689228177 1.46552432 -1.52691841
v -0.706825554 2.56848502 -1.2263844
v -0.697404742 2.52722287 -1.22933114
v -0.124779202 2.52722287 -0.105998993
v -0.133261263 2.56848502 -0.100914918
v -0.667444766 2.57835627 -1.23870194
v -0.0618557744 2.5165801 -0.0387821943
v -0.0978047177 2.57835627 -0.122166596
v -0.658023655 2.53709388 -1.24164867
v -0.0559347533 2.55324316 -0.0182688907
v -0.0296881106 2.44073081 -0.00554336514
v -0.0893226638 2.53709388 -0.127250522
v -0.697404742 2.52722287 -1.22933114
v -0.124779202 2.52722287 -0.105998993
v -0.0231231693 2.56214476 -0.0436492898
v -0.00821075402 2.44404078 0.0310447682
v -0.0296874996 1.46552467 -0.00554153416
v -0.00820999127 1.46552467 0.0310469046
v -0.0290443413 2.5254817 -0.0641625971
v -0.0618557744 2.5165801 -0.0387821943
v 0.0283776857 2.44484425 0.00956726074
v 0.0283784475 1.46552467 0.0095693972
v 0.00690032961 2.44153428 -0.0270210262
v -0.0296881106 2.44073081 -0.00554336514
v 0.00690093962 1.46552467 -0.0270190425
v -0.0296874996 1.46552467 -0.00554153416
v 1.50000072 1.50000012 -0.716517448
v 1.49999976 1.43741989 -0.716520667
v 1.50000048 1.43741941 -1.50000131
v 1.50000012 1.49999774 -1.50000441
v 1.50000012 1.49999774 -1.50000441
v 1.50000048 1.43741941 -1.50000131
v -0.631277919 1.43742013 -1.49999976
v -0.631275773 1.50000048 -1.5000025
v -0.631275773 1.50000048 -1.5000025
v -0.631277919 1.43742013 -1.49999976
v -0.626986682 1.43742037 -1.3593117
v -0.626985788 1.4999994 -1.35931408
v -0.379980922 1.43742013 -1.09089434
v -0.379979253 1.49999964 -1.09089363
v -0.213338926 1.43741989 -0.843459904
v -0.213337392 1.50000012 -0.843458533
v -0.105315551 1.43742037 -0.609427333
v -0.105314329 1.50000131 -0.609429002
v -0.0365383886 1.43742001 -0.383746177
v -0.0365385413 1.49999976 -0.383746624
v -3.35693358E-06 1.43742001 -0.149163663
v -6.10351549E-07 1.50000012 -0.149158165
v 0.135539398 1.50000048 -0.0605363436
v 0.135541379 1.43741989 -0.0605328344
v 0.135539398 1.50000048 -0.0605363436
v 0.135541379 1.43741989 -0.0605328344
v 1.49999976 1.43741989 -0.716520667
v 1.50000072 1.50000012 -0.716517448
v 1.50000012 1.49999774 -1.50000441
v -0.631275773 1.50000048 -1.5000025
v -0.626985788 1.4999994 -1.35931408
v -0.379979253 1.49999964 -1.09089363
v -0.213337392 1.50000012 -0.843458533
v 1.50000072 1.50000012 -0.716517448
v -0.105314329 1.50000131 -0.609429002
v -0.0365385413 1.49999976 -0.383746624
v 0.135539398 1.50000048 -0.0605363436
v -6.10351549E-07 1.50000012 -0.149158165
v 0.135541379 1.43741989 -0.0605328344
v -3.35693358E-06 1.43742001 -0.149163663
v -0.0365383886 1.43742001 -0.383746177
v 1.49999976 1.43741989 -0.716520667
v -0.105315551 1.43742037 -0.609427333
v -0.213338926 1.43741989 -0.843459904
v 1.50000048 1.43741941 -1.50000131
v -0.379980922 1.43742013 -1.09089434
v -0.626986682 1.43742037 -1.3593117
v -0.631277919 1.43742013 -1.49999976
v -0.747424126 2.62127304 -1.4006114
v -0.744918644 1.66032791 -1.28352249
v -0.747461557 1.66032732 -1.402426
v -0.744490921 2.62127376 -1.28155625
v -0.71071595 1.66032767 -1.15828323
v -0.710705221 2.62127376 -1.15827227
v -0.159460902 2.6212728 -0.0921397358
v -0.159461215 1.6570816 -0.0921400413
v -0.756794393 1.66032743 -1.28180099
v -0.759420633 2.62127733 -1.40031898
v -0.759458601 1.66032708 -1.40216959
v -0.756363034 2.6212759 -1.27980816
v -0.721898615 1.66032708 -1.15392983
v -0.721886277 2.62127376 -1.15391493
v -0.170118704 2.6212728 -0.0866250619
v -0.170119017 1.6570816 -0.0866253674
v -0.756363034 2.6212759 -1.27980816
v -0.747424126 2.62127304 -1.4006114
v -0.759420633 2.62127733 -1.40031898
v -0.744490921 2.62127376 -1.28155625
v -0.721886277 2.62127376 -1.15391493
v -0.710705221 2.62127376 -1.15827227
v -0.170118704 2.6212728 -0.0866250619
v -0.159460902 2.6212728 -0.0921397358
v -0.759420633 2.62127733 -1.40031898
v -0.747424126 2.62127304 -1.4006114
v -0.747461557 1.66032732 -1.402426
v -0.759458601 1.66032708 -1.40216959
v -0.759458601 1.66032708 -1.40216959
v -0.747461557 1.66032732 -1.402426
v -0.744918644 1.66032791 -1.28352249
v -0.756794393 1.66032743 -1.28180099
v -0.71071595 1.66032767 -1.15828323
v -0.721898615 1.66032708 -1.15392983
v -0.159461215 1.6570816 -0.0921400413
v -0.170119017 1.6570816 -0.0866253674
v -0.170119017 1.6570816 -0.0866253674
v -0.159461215 1.6570816 -0.0921400413
v -0.159460902 2.6212728 -0.0921397358
v -0.170118704 2.6212728 -0.0866250619
vn 0.746578932 4.76178769E-07 -0.665296912
vn 0.00822279416 -0.999789894 0.0187802128
vn -0.0457083955 -0.998054028 0.0424123183
vn 0.827228785 -6.38181746E-07 -0.561865211
vn 0.0082209697 0.999789894 0.018778082
vn -0.0810614228 -0.996593058 0.0152116381
vn -0.0457088277 0.998054147 0.0424110517
vn -0.720233262 7.49352296E-07 0.693731964
vn 0.959089935 -2.93730773E-06 -0.283101439
vn -0.0339654386 -0.999380469 -0.00922409818
vn 0.99415189 -1.33696267E-06 -0.107990868
vn -0.0810588971 0.996593058 0.0152215483
vn -0.0339620933 0.999380708 -0.00920348149
vn -0.815392315 -1.16142225E-07 0.578908682
vn 0.00822279416 -0.999789894 0.0187802128
vn -0.0457083955 -0.998054028 0.0424123183
vn -0.96155715 -2.12706072E-06 0.274605066
vn -0.996503234 0 0.0835548416
vn -0.0810614228 -0.996593058 0.0152116381
vn -0.0339654386 -0.999380469 -0.00922409818
vn -0.707106709 -0.577352643 -0.408244997
vn -0.408246964 -0.577351511 0.707106531
vn -0.562655866 -0.234728754 0.792666852
vn -0.811971605 0.177665755 -0.556000888
vn 0.408247948 -0.577348888 -0.70710808
vn -0.638517857 -0.631100297 0.440462738
vn 0.451705486 0.234917015 -0.860683501
vn 0.707107723 -0.577347994 0.408249885
vn -0.784382105 0.547589183 -0.291360259
vn 0.918534994 -0.0991924256 0.382693499
vn -0.408246964 -0.577351511 0.707106531
vn -0.832745194 0.504169703 0.228797525
vn -0.558471859 -0.808694303 0.184723288
vn 0.41775474 0.771998703 -0.479060501
vn 0.426907301 0.88999182 -0.160202116
vn 0.946086049 -0.306632847 0.104390882
vn 0.800875485 -0.558493137 -0.216064185
vn -0.562655866 -0.234728754 0.792666852
vn -0.638517857 -0.631100297 0.440462738
vn -0.558471859 -0.808694303 0.184723288
vn -0.707106709 -0.577352643 -0.408244997
vn 0.707107723 -0.577347994 0.408249885
vn 0.408247948 -0.577348888 -0.70710808
vn -0.832745194 0.504169703 0.228797525
vn -0.558471859 -0.808694303 0.184723288
vn -0.499689698 -0.813961625 0.296271145
vn -0.682384849 0.517745256 0.516033649
vn 0.426907301 0.88999182 -0.160202116
vn -0.756998897 -0.641125441 0.126138598
vn 0.416176766 0.884761155 -0.20974867
vn 0.800875485 -0.558493137 -0.216064185
vn -0.317145944 0.526918888 0.788527071
vn -0.959472537 -0.234829918 -0.155779555
vn 0.66901356 -0.531092405 -0.519963145
vn -0.558471859 -0.808694303 0.184723288
vn -0.499689698 -0.813961625 0.296271145
vn 0.655638278 0.754185736 0.0366361775
vn -0.17398338 0.177594468 0.968602061
vn -0.967766762 -1.11780639E-06 -0.25184831
vn -0.251849353 1.90805599E-06 0.967766523
vn 0.555467188 -0.297466576 -0.776511371
vn -0.756998897 -0.641125441 0.126138598
vn 0.930062652 0.234954044 0.282453597
vn 0.967766404 1.28371687E-06 0.251849383
vn 0.372262329 -0.0990498737 -0.922827065
vn -0.959472537 -0.234829918 -0.155779555
vn 0.251848012 -1.74214904E-06 -0.967766762
vn -0.967766762 -1.11780639E-06 -0.25184831
vn 0.674261868 0.604653895 0.423986524
vn 0.674278617 -0.604642987 0.423975438
vn 0.577353001 -0.577364564 -0.577333331
vn 0.577347338 0.577335238 -0.5773682
vn 0.577347338 0.577335238 -0.5773682
vn 0.577353001 -0.577364564 -0.577333331
vn -0.586899042 -0.575769901 -0.569243729
vn -0.586875498 0.575760841 -0.569277287
vn -0.586875498 0.575760841 -0.569277287
vn -0.586899042 -0.575769901 -0.569243729
vn -0.714335203 -0.636299491 0.291287124
vn -0.714324415 0.63631779 0.291273564
vn -0.54099977 -0.724499106 0.427106827
vn -0.540990055 0.724512458 0.427096486
vn -0.599711061 -0.72557044 0.337482125
vn -0.599703133 0.72558105 0.337473363
vn -0.64575702 -0.722791851 0.246109173
vn -0.645741642 0.722807109 0.24610512
vn -0.673060596 -0.723342657 0.154158041
vn -0.673053503 0.723348975 0.154159695
vn -0.655207753 -0.626037836 0.422823131
vn -0.655186057 0.62603873 0.422855437
vn -0.0517798476 0.611442327 0.789593041
vn -0.0517618395 -0.611450374 0.789587915
vn -0.0517798476 0.611442327 0.789593041
vn -0.0517618395 -0.611450374 0.789587915
vn 0.674278617 -0.604642987 0.423975438
vn 0.674261868 0.604653895 0.423986524
vn 0.577347338 0.577335238 -0.5773682
vn -0.586875498 0.575760841 -0.569277287
vn -0.714324415 0.63631779 0.291273564
vn -0.540990055 0.724512458 0.427096486
vn -0.599703133 0.72558105 0.337473363
vn 0.674261868 0.604653895 0.423986524
vn -0.645741642 0.722807109 0.24610512
vn -0.673053503 0.723348975 0.154159695
vn -0.0517798476 0.611442327 0.789593041
vn -0.655186057 0.62603873 0.422855437
vn -0.0517618395 -0.611450374 0.789587915
vn -0.655207753 -0.626037836 0.422823131
vn -0.673060596 -0.723342657 0.154158041
vn 0.674278617 -0.604642987 0.423975438
vn -0.64575702 -0.722791851 0.246109173
vn -0.599711061 -0.72557044 0.337482125
vn 0.577353001 -0.577364564 -0.577333331
vn -0.54099977 -0.724499106 0.427106827
vn -0.714335203 -0.636299491 0.291287124
vn -0.586899042 -0.575769901 -0.569243729
vn 0.999735296 -0.000196671273 -0.0230066199
vn 0.989526033 -7.33166016E-05 -0.14435418
vn 0.999735296 -0.000196671288 -0.0230066199
vn 0.989479244 -7.29862077E-05 -0.144674927
vn 0.931527376 2.46576892E-05 -0.363671273
vn 0.931559563 2.46804666E-05 -0.363588631
vn 0.888285995 -2.36682308E-06 -0.459290773
vn 0.888285995 -2.36682263E-06 -0.459290743
vn -0.989485979 7.26470025E-05 0.144629076
vn -0.99971801 0.000196659559 0.0237468407
vn -0.99971801 0.000196659574 0.0237468407
vn -0.989438713 7.23119738E-05 0.144951358
vn -0.931570709 -2.53995604E-05 0.3635602
vn -0.931603014 -2.54228053E-05 0.363477588
vn -0.888311625 2.20599463E-06 0.459241301
vn -0.888311625 2.20599463E-06 0.459241301
vn 0.000190840015 1 -1.17335721E-05
vn 0.000280956621 1 -3.84112172E-06
vn 0.000280956592 1 -3.84112127E-06
vn 0.000190838051 1 -1.1733744E-05
vn 5.19398818E-05 1 -1.02164631E-05
vn 5.18977067E-05 1 -1.0208325E-05
vn 3.13307123E-06 1 -7.97336156E-07
vn 3.13307146E-06 1 -7.97336213E-07
vn -0.0228625536 0.00190744933 -0.999736726
vn -0.022862548 0.00190744922 -0.999736726
vn -0.0228625499 0.00190744933 -0.999736726
vn -0.0228625499 0.00190744933 -0.999736726
vn 2.10256876E-05 -1 3.04987952E-06
vn 2.10256894E-05 -1 3.0498793E-06
vn 3.191633E-05 -1 -5.14718568E-06
vn 3.19137471E-05 -1 -5.14524072E-06
vn -0.00052508642 -0.999999166 -0.00124614465
vn -0.00052465644 -0.999999166 -0.00124521134
vn -0.00109253335 -0.999996305 -0.00247797696
vn -0.00109253323 -0.999996305 -0.00247797696
vn 0.459555686 -4.26545256E-07 0.888148904
vn 0.459555686 -4.26545256E-07 0.888148904
vn 0.459555686 -4.26545256E-07 0.888148904
vn 0.459555686 -4.26545256E-07 0.888148904
vt 0.576560497 0.500283957
vt 0.57175684 0.500283957
vt 0.57175684 0.517692268
vt 0.576560497 0.517692268
vt 0.581359327 0.500283957
vt 0.57175684 0.653048337
vt 0.581359327 0.517692268
vt 0.586175919 0.500283957
vt 0.576560497 0.653048337
vt 0.571828842 0.68239212
vt 0.576592505 0.682455778
vt 0.581359327 0.653048337
vt 0.581351459 0.682519436
vt 0.586175919 0.517692268
vt 0.590983093 0.500283957
vt 0.590983093 0.517692268
vt 0.586175919 0.653048337
vt 0.586128056 0.682583451
vt 0.590983093 0.653048337
vt 0.590895236 0.682647228
vt 0.576586843 0.749590814
vt 0.57176733 0.749590814
vt 0.57176733 0.627795279
vt 0.576586843 0.627795279
vt 0.581397057 0.749590814
vt 0.57176733 0.612978816
vt 0.581397057 0.627795279
vt 0.586189687 0.749590814
vt 0.576586843 0.612978816
vt 0.586189687 0.627795279
vt 0.590994835 0.749590814
vt 0.57657814 0.585755467
vt 0.571768999 0.585741878
vt 0.581397057 0.612978816
vt 0.581377983 0.585768938
vt 0.586189687 0.612978816
vt 0.586160302 0.585782409
vt 0.590994835 0.627795279
vt 0.590994835 0.612978816
vt 0.590955079 0.585795939
vt 0.590994835 0.749590814
vt 0.590994835 0.749590814
vt 0.590994835 0.749590814
vt 0.586178601 0.749603331
vt 0.591006637 0.749603331
vt 0.591006637 0.625164032
vt 0.586178601 0.625164032
vt 0.581353545 0.749603331
vt 0.591006637 0.614532351
vt 0.581353545 0.625164032
vt 0.576554298 0.749603331
vt 0.586178601 0.614532351
vt 0.591006637 0.602157116
vt 0.576554298 0.625164032
vt 0.571752191 0.749603331
vt 0.571752191 0.625164032
vt 0.581353545 0.614532351
vt 0.586178601 0.602157116
vt 0.591006637 0.500254035
vt 0.586178601 0.500254035
vt 0.576554298 0.614532351
vt 0.571752191 0.614532351
vt 0.581353545 0.602157116
vt 0.581353545 0.500254035
vt 0.576554298 0.602157116
vt 0.571752191 0.602157116
vt 0.576554298 0.500254035
vt 0.571752191 0.500254035
vt 0.591067314 0.592191756
vt 0.60040009 0.592191458
vt 0.60040009 0.500516176
vt 0.591067314 0.500516772
vt 0.591067314 0.749649882
vt 0.60040009 0.749649882
vt 0.60040009 0.500268996
vt 0.591067314 0.500268996
vt 0.591067314 0.697028518
vt 0.60040009 0.69692421
vt 0.60040009 0.681340933
vt 0.591067314 0.681341648
vt 0.60040009 0.6392079
vt 0.591067314 0.6391294
vt 0.60040009 0.603627741
vt 0.591067314 0.603626907
vt 0.60040009 0.572804034
vt 0.591067314 0.572921813
vt 0.60040009 0.54480207
vt 0.591067314 0.544937432
vt 0.60040009 0.518282533
vt 0.591051459 0.518289685
vt 0.591067314 0.500357866
vt 0.60040009 0.500756085
vt 0.591067314 0.677684665
vt 0.60040009 0.677685678
vt 0.60040009 0.500537038
vt 0.591067314 0.500536084
vt 0.500515103 0.000295854581
vt 0.500515103 0.249601141
vt 0.517246485 0.249338493
vt 0.549113452 0.220899627
vt 0.578404963 0.201805681
vt 0.592395365 0.000295854581
vt 0.606039226 0.189537123
vt 0.63262409 0.18183665
vt 0.670692265 0.162189722
vt 0.660132289 0.17790629
vt 0.669956088 0.162258133
vt 0.659324288 0.177951336
vt 0.631900609 0.181755468
vt 0.592003584 0.000295854581
vt 0.605696917 0.189402193
vt 0.578500271 0.201654494
vt 0.500515103 0.000295854581
vt 0.549645782 0.220772311
vt 0.518200815 0.249326214
vt 0.500515103 0.249676511
vt 0.780598044 0.999991298
vt 0.716964841 0.5
vt 0.780516863 0.5
vt 0.717310667 0.999991298
vt 0.648446441 0.5
vt 0.649614453 0.999991298
vt -0.000588458031 0.999991298
vt -1.11758709E-08 0.5
vt 0.716964841 0.5
vt 0.780598044 0.999991298
vt 0.780516863 0.5
vt 0.717310667 0.999991298
vt 0.648446441 0.5
vt 0.649614453 0.999991298
vt -0.000588458031 0.999991298
vt -1.11758709E-08 0.5
vt 0.69734174 0.99842006
vt 0.759624898 1.00918329
vt 0.76007998 1.00291312
vt 0.697140396 1.00468254
vt 0.62952733 0.99894166
vt 0.629604757 1.00519669
vt 0.000480344519 0.999885321
vt 0.000470124185 1.00617182
vt 1.00025082 1.00008368
vt 1.00653744 1.00008023
vt 1.00653744 0.498281628
vt 1.00025082 0.498282671
vt 0.76107794 0.495796442
vt 0.760618627 0.489526659
vt 0.698220432 0.494079828
vt 0.698425055 0.500341892
vt 0.629635513 0.493544161
vt 0.629557133 0.499798894
vt 0.000491641462 0.492567897
vt 0.000501889735 0.498854518
vt 0.000114290102 0.498389512
vt -0.00617238646 0.498382181
vt -0.00617238646 0.999035239
vt 0.000114290102 0.99904263
g submesh0
f 1/1/1 2/2/2 3/3/3
f 1/1/1 3/3/3 4/4/4
f 5/5/5 1/1/1 4/4/4
f 4/4/4 3/3/3 6/6/6
f 5/5/5 4/4/4 7/7/7
f 8/8/8 5/5/5 7/7/7
f 4/4/4 6/6/6 9/9/9
f 7/7/7 4/4/4 9/9/9
f 9/9/9 6/6/6 10/10/10
f 9/9/9 10/10/10 11/11/11
f 12/12/12 9/9/9 11/11/11
f 7/7/7 9/9/9 12/12/12
f 12/12/12 11/11/11 13/13/13
f 8/8/8 7/7/7 14/14/14
f 14/14/14 7/7/7 12/12/12
f 15/15/15 8/8/8 14/14/14
f 15/15/15 14/14/14 16/16/16
f 17/17/17 12/12/12 13/13/13
f 14/14/14 12/12/12 17/17/17
f 16/16/16 14/14/14 17/17/17
f 17/17/17 13/13/13 18/18/18
f 16/16/16 17/17/17 19/19/19
f 19/19/19 17/17/17 18/18/18
f 19/19/19 18/18/18 20/20/20
f 21/21/21 22/22/22 23/23/23
f 21/21/21 23/23/23 24/24/24
f 25/25/25 21/21/21 24/24/24
f 24/24/24 23/23/23 26/26/26
f 25/25/25 24/24/24 27/27/27
f 28/28/28 25/25/25 27/27/27
f 24/24/24 26/26/26 29/29/29
f 27/27/27 24/24/24 29/29/29
f 28/28/28 27/27/27 30/30/30
f 31/31/31 28/28/28 30/30/30
f 32/32/32 29/29/29 26/26/26
f 32/32/32 26/26/26 33/33/33
f 27/27/27 29/29/29 34/34/34
f 34/34/34 29/29/29 32/32/32
f 30/30/30 27/27/27 34/34/34
f 34/34/34 32/32/32 35/35/35
f 36/36/36 34/34/34 35/35/35
f 30/30/30 34/34/34 36/36/36
f 36/36/36 35/35/35 37/37/37
f 31/31/31 30/30/30 38/38/38
f 38/38/38 30/30/30 36/36/36
f 38/38/38 36/36/36 39/39/39
f 39/39/39 36/36/36 37/37/37
f 39/39/39 37/37/37 40/40/40
f 41/41/41 42/42/42 31/31/31
f 41/41/41 43/43/43 42/42/42
f 44/44/44 45/45/45 46/46/46
f 44/44/44 46/46/46 47/47/47
f 48/48/48 44/44/44 47/47/47
f 47/47/47 46/46/46 49/49/49
f 48/48/48 47/47/47 50/50/50
f 51/51/51 48/48/48 50/50/50
f 47/47/47 49/49/49 52/52/52
f 50/50/50 47/47/47 52/52/52
f 52/52/52 49/49/49 53/53/53
f 51/51/51 50/50/50 54/54/54
f 55/55/55 51/51/51 54/54/54
f 55/55/55 54/54/54 56/56/56
f 50/50/50 52/52/52 57/57/57
f 54/54/54 50/50/50 57/57/57
f 52/52/52 53/53/53 58/58/58
f 57/57/57 52/52/52 58/58/58
f 58/58/58 53/53/53 59/59/59
f 58/58/58 59/59/59 60/60/60
f 56/56/56 54/54/54 61/61/61
f 54/54/54 57/57/57 61/61/61
f 56/56/56 61/61/61 62/62/62
f 57/57/57 58/58/58 63/63/63
f 63/63/63 58/58/58 60/60/60
f 61/61/61 57/57/57 63/63/63
f 63/63/63 60/60/60 64/64/64
f 62/62/62 61/61/61 65/65/65
f 61/61/61 63/63/63 65/65/65
f 65/65/65 63/63/63 64/64/64
f 62/62/62 65/65/65 66/66/66
f 65/65/65 64/64/64 67/67/67
f 66/66/66 65/65/65 67/67/67
f 66/66/66 67/67/67 68/68/68
f 69/69/69 70/70/70 71/71/71
f 69/69/69 71/71/71 72/72/72
f 73/73/73 74/74/74 75/75/75
f 73/73/73 75/75/75 76/76/76
f 77/77/77 78/78/78 79/79/79
f 77/77/77 79/79/79 80/80/80
f 80/80/80 79/79/79 81/81/81
f 80/80/80 81/81/81 82/82/82
f 82/82/82 81/81/81 83/83/83
f 82/82/82 83/83/83 84/84/84
f 84/84/84 83/83/83 85/85/85
f 84/84/84 85/85/85 86/86/86
f 86/86/86 85/85/85 87/87/87
f 86/86/86 87/87/87 88/88/88
f 88/88/88 87/87/87 89/89/89
f 88/88/88 89/89/89 90/90/90
f 91/91/91 90/90/90 89/89/89
f 91/91/91 89/89/89 92/92/92
f 93/93/93 94/94/94 95/95/95
f 93/93/93 95/95/95 96/96/96
f 97/97/97 98/98/98 99/99/99
f 97/97/97 99/99/99 100/100/100
f 97/97/97 100/100/100 101/101/101
f 102/102/102 97/97/97 101/101/101
f 102/102/102 101/101/101 103/103/103
f 102/102/102 103/103/103 104/104/104
f 102/102/102 104/104/104 105/105/105
f 105/105/105 104/104/104 106/106/106
f 107/107/107 108/108/108 109/109/109
f 110/110/110 107/107/107 109/109/109
f 110/110/110 109/109/109 111/111/111
f 110/110/110 111/111/111 112/112/112
f 110/110/110 112/112/112 113/113/113
f 113/113/113 112/112/112 114/114/114
f 113/113/113 114/114/114 115/115/115
f 113/113/113 115/115/115 116/116/116
f 117/117/117 118/118/118 119/119/119
f 117/117/117 120/120/120 118/118/118
f 120/120/120 121/121/121 118/118/118
f 120/120/120 122/122/122 121/121/121
f 123/123/123 121/121/121 122/122/122
f 123/123/123 124/124/124 121/121/121
f 125/125/125 126/126/126 127/127/127
f 125/125/125 128/128/128 126/126/126
f 129/129/129 128/128/128 125/125/125
f 129/129/129 130/130/130 128/128/128
f 131/131/131 130/130/130 129/129/129
f 131/131/131 129/129/129 132/132/132
f 133/133/133 134/134/134 135/135/135
f 133/133/133 136/136/136 134/134/134
f 137/137/137 136/136/136 133/133/133
f 137/137/137 138/138/138 136/136/136
f 139/139/139 138/138/138 137/137/137
f 139/139/139 140/140/140 138/138/138
f 141/141/141 142/142/142 143/143/143
f 141/141/141 143/143/143 144/144/144
f 145/145/145 146/146/146 147/147/147
f 145/145/145 147/147/147 148/148/148
f 148/148/148 147/147/147 149/149/149
f 148/148/148 149/149/149 150/150/150
f 151/151/151 150/150/150 149/149/149
f 151/151/151 152/152/152 150/150/150
f 153/153/153 154/154/154 155/155/155
f 153/153/153 155/155/155 156/156/156
