# stairs.triangle.spiral.collision.detail
v -0.010037018 0.759066403 0.114064261
v 0.113290966 0.759066403 0.0936870426
v 0.335950077 0.759066403 1.44127321
v 0.0561352819 0.946754336 0.127898797
v 0.552263916 0.946754277 1.45308244
v -0.00290217879 0.946754336 0.145428181
v 0.212622195 0.759066403 1.46165037
v 0.00694266055 0.946754277 1.44468546
v -0.938919485 0.200944826 0.773064613
v -0.110495403 0.200944871 0.0393249542
v -0.0387298092 0.200944871 0.141670927
v -0.0965664908 0.388196707 0.0977198407
v -1.01068521 0.200944826 0.67071867
v -0.12590231 0.388196707 0.0524765998
v -0.865711629 0.388196677 0.942854583
v -1.10577416 0.388196617 0.512812853
v -0.647427142 0.385816783 1.22696364
v -0.0935460553 0.3858383 0.0645594001
v 0.0135452859 0.3858383 0.12902993
v -0.0551092178 0.574382722 0.126858473
v -0.553255618 0.574382603 1.45211685
v -0.109704345 0.574382603 0.0957275555
v -0.754518509 0.385859758 1.16249311
v -0.856759906 0.574382544 0.943683505
v 1.01302016 1.1305809 0.673148394
v 0.0616742224 1.13058174 0.0757889599
v 0.139512405 1.13058174 -0.022018034
v 0.127093449 1.31912625 0.0490683801
v 0.935181916 1.13058269 0.770955563
v 0.100653246 1.31912625 0.10731639
v 1.0993613 1.31912625 0.504765987
v 0.847585201 1.31912625 0.927251518
v 0.0903168395 1.31676805 0.0488080271
v 0.11863222 1.31676805 -0.0729427412
v 1.25913966 1.31676805 0.192302927
v 0.149994433 1.5000025 0.0015907815
v 1.23082435 1.31676805 0.314053744
v 1.39060283 1.50000286 0.00159075588
v 1.09631193 1.5000025 0.495125085
v 0.126608059 1.50000274 0.054725945
v -0.0566002578 0.76056844 0.122330211
v -0.000553912483 0.760151267 1.4508661
v 0.000700346311 0.758210123 0.134245947
v 0.0653556436 0.572024226 0.112791277
v -0.552458167 0.76056844 1.4508661
v -0.0596442781 0.572024226 0.112635918
v 0.0624998659 0.572024167 2.4112041
v 0.540835083 0.758829892 1.45904601
v -0.0625001714 0.572024167 2.41104841
v 3.08866788E-06 0.760556459 2.39812636
v 0.848840952 1.13294029 0.939338028
v 0.0963060483 1.13294029 0.0987790674
v 0.0473619252 1.13294041 0.130870581
v 0.136986732 0.944396019 0.0339901112
v 0.75521636 0.944395959 1.16573584
v 0.0272869915 0.944396019 0.0939148962
v 0.552999556 1.13294029 1.4385525
v 0.645516634 0.944395959 1.22566056
v -0.108823247 0.0157980099 -0.00698377518
v -0.08747603 0.0157980099 0.116179913
v -1.23441422 0.0157980062 0.314971507
v -1.25576127 0.0157980062 0.191807851
v -0.136493713 0.2020109 -0.00312585547
v -1.39504015 0.202010795 0.0123288427
v -0.125574917 0.20201081 0.0527994521
v -1.11634171 0.20201087 0.509456575
v 0.106983595 1.50000274 -0.103832223
v 0.149994239 1.50000274 0.00159073039
v 0.149994239 2.33054152E-06 0.00159092108
v 0.106983595 2.33054152E-06 -0.103832223
v 0.00130337954 1.50000286 -0.148686275
v 0.105140314 2.25424765E-06 0.108291902
v 0.105140358 1.5000025 0.108291835
v -0.00130340527 2.33054152E-06 0.151302472
v -0.00130339118 1.50000274 0.151302397
v -0.106983632 2.33054152E-06 0.106448516
v -0.106983647 1.50000274 0.106448397
v -0.149994373 2.33054152E-06 0.00157925382
v -0.149994299 1.50000274 0.00157907722
v -0.105140351 2.33054152E-06 -0.105675422
v 0.00130345754 2.40683539E-06 -0.148686126
v -0.105140395 1.50000274 -0.105675548
g submesh0
f 1 2 3
f 4 3 2
f 4 5 3
f 6 5 4
f 1 3 7
f 5 7 3
f 6 8 5
f 8 6 1
f 8 1 7
f 5 8 7
f 9 10 11
f 12 9 11
f 9 13 10
f 14 10 13
f 12 15 9
f 15 12 14
f 15 13 9
f 15 14 16
f 14 13 16
f 15 16 13
f 17 18 19
f 20 17 19
f 20 21 17
f 21 20 22
f 17 23 18
f 21 23 17
f 21 22 24
f 24 22 18
f 24 18 23
f 21 24 23
f 25 26 27
f 28 25 27
f 25 29 26
f 30 26 29
f 31 28 30
f 28 31 25
f 30 29 32
f 31 30 32
f 31 32 25
f 25 32 29
f 33 34 35
f 36 35 34
f 33 35 37
f 36 38 35
f 38 37 35
f 39 33 37
f 38 39 37
f 39 38 36
f 39 40 33
f 39 36 40
f 41 42 43
f 44 43 42
f 41 45 42
f 41 46 45
f 46 44 47
f 44 42 47
f 48 42 45
f 48 47 42
f 46 47 49
f 45 46 49
f 48 45 50
f 47 48 50
f 47 50 49
f 45 49 50
f 51 52 53
f 51 54 52
f 51 55 54
f 55 56 54
f 51 53 57
f 51 57 55
f 55 58 56
f 53 56 58
f 53 58 57
f 55 57 58
f 59 60 61
f 59 61 62
f 63 59 62
f 63 62 64
f 61 64 62
f 64 65 63
f 66 61 60
f 66 64 61
f 64 66 65
f 66 60 65
f 67 68 69
f 67 69 70
f 71 67 70
f 71 68 67
f 68 72 69
f 70 69 72
f 68 73 72
f 71 73 68
f 73 74 72
f 70 72 74
f 73 75 74
f 71 75 73
f 75 76 74
f 70 74 76
f 75 77 76
f 71 77 75
f 77 78 76
f 70 76 78
f 77 79 78
f 71 79 77
f 70 78 80
f 79 80 78
f 71 70 81
f 70 80 81
f 79 82 80
f 71 82 79
f 82 71 81
f 82 81 80
