# stairs.triangle.spiral.collision.detail
v 0.856425703 1.27972674 0.967220068
v -0.0721158385 1.27972651 -0.0337597765
v 1.10543919 1.27972651 0.507075548
v 1.10543907 1.31472635 0.507075667
v -0.0721158087 1.31472635 -0.0337597579
v 0.856425583 1.31472671 0.967220068
v 0.550171614 1.09370625 1.48026001
v -0.0233248062 1.09370589 -0.0270962249
v 0.858036458 1.09370613 0.937040925
v 0.858036458 1.12870622 0.937040925
v -0.0233248156 1.12870586 -0.0270962454
v 0.550171614 1.12870622 1.48026001
v -0.0222276226 0.942734122 1.46047282
v 0.561398983 0.942734301 1.4391911
v -0.022227833 0.94273448 -0.0811018571
v 0.561398983 0.907734275 1.4391911
v -0.0222276319 0.907734096 1.46047282
v -0.022227833 0.907734513 -0.081101805
v -0.566884696 0.724945426 1.45639932
v 0.00817625597 0.72494632 -0.103209093
v 0.00980722904 0.724945724 1.4544282
v 0.00980731566 0.75994575 1.45442796
v 0.00817625597 0.759946346 -0.103209086
v -0.566884696 0.759945452 1.45639932
v 0.000379966456 0.717960238 2.41138124
v -0.549433112 0.723793685 1.45700574
v 0.550167501 0.723794103 1.45700586
v 0.000379975769 0.752960205 2.41138124
v 0.550167322 0.758794069 1.45700586
v -0.549433112 0.758793712 1.4570061
v -0.864770591 0.574677169 0.935946047
v -0.533712924 0.574677467 1.44610608
v 0.0456434079 0.574677825 -0.127754703
v -0.864770591 0.539677143 0.935946047
v 0.0456434377 0.539677858 -0.127754733
v -0.533712924 0.539677441 1.44610608
v -1.11577106 0.352860063 0.492801577
v 0.0391693339 0.352861136 -0.0425688624
v -0.845119238 0.352860451 0.954865098
v -0.845119238 0.387860447 0.954865038
v 0.0391693711 0.387861133 -0.0425689034
v -1.11577106 0.38785997 0.492801517
v -1.4046098 0.167245448 -0.0179076865
v 0.0388264358 0.167245895 -0.0179087166
v -1.09533548 0.167245671 0.510966301
v -1.09533548 0.202245668 0.51096642
v 0.0388264917 0.202245891 -0.0179086979
v -1.4046098 0.202245444 -0.0179076865
v 1.09916437 1.50182641 0.52687186
v 1.39092696 1.50182641 0.000554035883
v -0.0549768582 1.50182593 -0.00834593829
v 1.39092684 1.46682644 0.000554035883
v 1.09916437 1.46682644 0.52687186
v -0.0549769253 1.46682596 -0.00834593829
v -1.37328494 0.167245284 0.0338248238
v -1.37328494 -0.0470404476 0.0338248238
v 0.0837110579 -0.047040876 0.033825215
v 0.0837111175 0.167244852 0.033825215
v -1.39226544 0.167245284 -0.00117517821
v -1.37328494 0.167245284 0.0338248238
v 0.0837111175 0.167244852 0.033825215
v 0.0837111175 0.167244852 -0.00117477891
v -1.39226544 -0.0470404439 -0.00117517821
v -1.37328494 -0.0470404476 0.0338248238
v -1.37328494 0.167245284 0.0338248238
v -1.39226544 0.167245284 -0.00117517821
v 0.0837111175 0.167244852 -0.00117477891
v 0.0837111175 0.167244852 0.033825215
v 0.0837110579 -0.047040876 0.033825215
v 0.0837110579 -0.047040876 -0.00117477775
v -1.08827388 0.352860123 0.538563967
v -1.08827388 0.138574407 0.538563967
v 0.0790286809 0.138574168 -0.0015442383
v 0.0790287778 0.352859914 -0.00154424785
v -1.10611594 0.352860123 0.508254468
v -1.08827388 0.352860123 0.538563967
v 0.0790287778 0.352859914 -0.00154424785
v 0.0643312037 0.352859914 -0.0333087631
v -1.10611606 0.138574421 0.508254468
v -1.08827388 0.138574407 0.538563967
v -1.08827388 0.352860123 0.538563967
v -1.10611594 0.352860123 0.508254468
v -0.830526948 0.53967905 0.986497223
v -0.830527008 0.325393319 0.986497343
v 0.0773663819 0.325393111 -0.0413385108
v 0.0773664042 0.539678812 -0.0413385667
v -0.850231171 0.53967905 0.952151477
v -0.830526948 0.53967905 0.986497223
v 0.0773664042 0.539678812 -0.0413385667
v 0.0511772484 0.539678812 -0.0645576566
v -0.85023123 0.325393319 0.952151477
v -0.830527008 0.325393319 0.986497343
v -0.830526948 0.53967905 0.986497223
v -0.850231171 0.53967905 0.952151477
v -0.537945986 0.510660291 1.44996619
v -0.537945867 0.724946022 1.44996643
v 0.0280197561 0.724946201 -0.07512898
v 0.0280197002 0.510660529 -0.07512898
v -0.500426531 0.510660291 1.44946206
v -0.537945986 0.510660291 1.44996619
v 0.0280197002 0.510660529 -0.07512898
v 0.0608330853 0.510660529 -0.0629519001
v -0.500426471 0.724945962 1.44946206
v -0.537945867 0.724946022 1.44996643
v -0.537945986 0.510660291 1.44996619
v -0.500426531 0.510660291 1.44946206
v 0.00614306796 0.717765927 1.45733559
v 0.00614310894 0.907735407 1.45733559
v 0.00614264188 0.907735825 -0.0729988143
v 0.00614260044 0.717766166 -0.0729988143
v 0.0411430672 0.717765868 1.45733559
v 0.00614306796 0.717765927 1.45733559
v 0.00614260044 0.717766166 -0.0729988143
v 0.0411425978 0.717766106 -0.0729988143
v 0.0411431007 0.907735348 1.45733559
v 0.00614310894 0.907735407 1.45733559
v 0.00614306796 0.717765927 1.45733559
v 0.0411430672 0.717765868 1.45733559
v 0.0411425978 0.717766106 -0.0729988143
v 0.00614260044 0.717766166 -0.0729988143
v 0.00614264188 0.907735825 -0.0729988143
v 0.0411426313 0.907735705 -0.0729988143
v 0.562714577 0.879420519 1.44601226
v 0.562714636 1.09370625 1.44601238
v -0.0201380849 1.09370673 -0.066056639
v -0.0201381389 0.879420996 -0.0660566762
v 0.586264849 0.879420519 1.4097966
v 0.562714577 0.879420519 1.44601226
v -0.0201381389 0.879420996 -0.0660566762
v 0.0125196064 0.879420996 -0.0786451772
v 0.586264849 1.09370625 1.4097966
v 0.562714636 1.09370625 1.44601238
v 0.562714577 0.879420519 1.44601226
v 0.586264849 0.879420519 1.4097966
v -0.0247511864 1.27972865 -0.0612198524
v 0.881605387 1.27972806 0.912427366
v 0.881605387 1.06544232 0.912427247
v -0.0247512814 1.06544292 -0.0612199493
v 0.881605387 1.27972806 0.912427366
v 0.86318177 1.27972806 0.944003642
v 0.86318177 1.06544232 0.944003642
v 0.881605387 1.06544232 0.912427247
v -0.0503694713 1.27972865 -0.0373724103
v 0.86318177 1.27972806 0.944003642
v 0.881605387 1.27972806 0.912427366
v -0.0247511864 1.27972865 -0.0612198524
v -0.0315659381 1.46682763 -0.061101988
v 1.12287414 1.46682739 0.477223963
v 1.12287414 1.25254166 0.477223933
v -0.0315659977 1.25254202 -0.0611019991
v 1.12287414 1.46682739 0.477223963
v 1.10808253 1.46682739 0.50894469
v 1.10808241 1.25254166 0.50894469
v 1.12287414 1.25254166 0.477223933
v -0.0463575199 1.46682763 -0.0293812193
v 1.10808253 1.46682739 0.50894469
v 1.12287414 1.46682739 0.477223963
v -0.0315659381 1.46682763 -0.061101988
v 1.10808253 1.46682739 0.50894469
v -0.0463575199 1.46682763 -0.0293812193
v -0.0463575795 1.25254202 -0.0293812193
v 1.10808241 1.25254166 0.50894469
v 1.10808241 1.25254166 0.50894469
v -0.0463575795 1.25254202 -0.0293812193
v -0.0315659977 1.25254202 -0.0611019991
v 1.12287414 1.25254166 0.477223933
v 0.86318177 1.27972806 0.944003642
v -0.0503694713 1.27972865 -0.0373724103
v -0.0503693745 1.06544292 -0.0373723321
v 0.86318177 1.06544232 0.944003642
v 0.86318177 1.06544232 0.944003642
v -0.0503693745 1.06544292 -0.0373723321
v -0.0247512814 1.06544292 -0.0612199493
v 0.881605387 1.06544232 0.912427247
v 0.586264849 0.879420519 1.4097966
v 0.0125196064 0.879420996 -0.0786451772
v 0.0125196157 1.09370673 -0.0786452591
v 0.586264849 1.09370625 1.4097966
v 0.586264849 1.09370625 1.4097966
v 0.0125196157 1.09370673 -0.0786452591
v -0.0201380849 1.09370673 -0.066056639
v 0.562714636 1.09370625 1.44601238
v 0.0411430672 0.717765868 1.45733559
v 0.0411425978 0.717766106 -0.0729988143
v 0.0411426313 0.907735705 -0.0729988143
v 0.0411431007 0.907735348 1.45733559
v 0.0411431007 0.907735348 1.45733559
v 0.0411426313 0.907735705 -0.0729988143
v 0.00614264188 0.907735825 -0.0729988143
v 0.00614310894 0.907735407 1.45733559
v -0.500426531 0.510660291 1.44946206
v 0.0608330853 0.510660529 -0.0629519001
v 0.0608331412 0.724946141 -0.0629519001
v -0.500426471 0.724945962 1.44946206
v -0.500426471 0.724945962 1.44946206
v 0.0608331412 0.724946141 -0.0629519001
v 0.0280197561 0.724946201 -0.07512898
v -0.537945867 0.724946022 1.44996643
v -0.850231171 0.53967905 0.952151477
v 0.0511772484 0.539678812 -0.0645576566
v 0.0511772484 0.325393111 -0.0645576715
v -0.85023123 0.325393319 0.952151477
v -0.85023123 0.325393319 0.952151477
v 0.0511772484 0.325393111 -0.0645576715
v 0.0773663819 0.325393111 -0.0413385108
v -0.830527008 0.325393319 0.986497343
v -1.10611594 0.352860123 0.508254468
v 0.0643312037 0.352859914 -0.0333087631
v 0.0643311515 0.138574168 -0.0333087631
v -1.10611606 0.138574421 0.508254468
v -1.10611606 0.138574421 0.508254468
v 0.0643311515 0.138574168 -0.0333087631
v 0.0790286809 0.138574168 -0.0015442383
v -1.08827388 0.138574407 0.538563967
v -1.39226544 0.167245284 -0.00117517821
v 0.0837111175 0.167244852 -0.00117477891
v 0.0837110579 -0.047040876 -0.00117477775
v -1.39226544 -0.0470404439 -0.00117517821
v -1.39226544 -0.0470404439 -0.00117517821
v 0.0837110579 -0.047040876 -0.00117477775
v 0.0837110579 -0.047040876 0.033825215
v -1.37328494 -0.0470404476 0.0338248238
v 0.0409755856 0.616236687 2.27768087
v 0.0409755781 0.719691932 2.27768087
v -0.062479604 0.719691992 2.27768087
v -0.0624795966 0.616236746 2.27768087
v 0.0409755781 0.719691932 2.27768087
v -0.0652433932 0.722455204 0.0853760764
v -0.062479604 0.719691992 2.27768087
v 0.0437399857 0.722455204 0.0853760764
v 0.0409755856 0.616236687 2.27768087
v 0.0437399894 0.613471866 0.0853760913
v -0.0624795966 0.616236746 2.27768087
v -0.0652433634 0.613471866 0.0853760764
v -0.062479604 0.719691992 2.27768087
v -0.0652433932 0.722455204 0.0853760764
v 0.856425703 1.27972674 0.967220068
v 0.856425583 1.31472671 0.967220068
v -0.0721158087 1.31472635 -0.0337597579
v -0.0721158385 1.27972651 -0.0337597765
v 0.856425583 1.31472671 0.967220068
v 0.856425703 1.27972674 0.967220068
v 1.10543919 1.27972651 0.507075548
v 1.10543907 1.31472635 0.507075667
v 0.550171614 1.09370625 1.48026001
v 0.550171614 1.12870622 1.48026001
v -0.0233248156 1.12870586 -0.0270962454
v -0.0233248062 1.09370589 -0.0270962249
v 0.858036458 1.09370613 0.937040925
v 0.858036458 1.12870622 0.937040925
v 0.550171614 1.12870622 1.48026001
v 0.550171614 1.09370625 1.48026001
v -0.0222276226 0.942734122 1.46047282
v -0.0222276319 0.907734096 1.46047282
v 0.561398983 0.907734275 1.4391911
v 0.561398983 0.942734301 1.4391911
v -0.0222276226 0.942734122 1.46047282
v -0.022227833 0.94273448 -0.0811018571
v -0.022227833 0.907734513 -0.081101805
v -0.0222276319 0.907734096 1.46047282
v 0.00817625597 0.72494632 -0.103209093
v -0.566884696 0.724945426 1.45639932
v -0.566884696 0.759945452 1.45639932
v 0.00817625597 0.759946346 -0.103209086
v -0.566884696 0.759945452 1.45639932
v -0.566884696 0.724945426 1.45639932
v 0.00980722904 0.724945724 1.4544282
v 0.00980731566 0.75994575 1.45442796
v 0.000379966456 0.717960238 2.41138124
v 0.000379975769 0.752960205 2.41138124
v -0.549433112 0.758793712 1.4570061
v -0.549433112 0.723793685 1.45700574
v 0.000379975769 0.752960205 2.41138124
v 0.000379966456 0.717960238 2.41138124
v 0.550167501 0.723794103 1.45700586
v 0.550167322 0.758794069 1.45700586
v 0.550167501 0.723794103 1.45700586
v -0.549433112 0.723793685 1.45700574
v -0.549433112 0.758793712 1.4570061
v 0.550167322 0.758794069 1.45700586
v -0.864770591 0.574677169 0.935946047
v -0.864770591 0.539677143 0.935946047
v -0.533712924 0.539677441 1.44610608
v -0.533712924 0.574677467 1.44610608
v -0.864770591 0.574677169 0.935946047
v 0.0456434079 0.574677825 -0.127754703
v 0.0456434377 0.539677858 -0.127754733
v -0.864770591 0.539677143 0.935946047
v 0.0391693339 0.352861136 -0.0425688624
v -1.11577106 0.352860063 0.492801577
v -1.11577106 0.38785997 0.492801517
v 0.0391693711 0.387861133 -0.0425689034
v -1.11577106 0.38785997 0.492801517
v -1.11577106 0.352860063 0.492801577
v -0.845119238 0.352860451 0.954865098
v -0.845119238 0.387860447 0.954865038
v -1.4046098 0.167245448 -0.0179076865
v -1.09533548 0.167245671 0.510966301
v -1.09533548 0.202245668 0.51096642
v -1.4046098 0.202245444 -0.0179076865
v -1.4046098 0.202245444 -0.0179076865
v 0.0388264917 0.202245891 -0.0179086979
v 0.0388264358 0.167245895 -0.0179087166
v -1.4046098 0.167245448 -0.0179076865
v -0.0549769253 1.46682596 -0.00834593829
v -0.0549768582 1.50182593 -0.00834593829
v 1.39092696 1.50182641 0.000554035883
v 1.39092684 1.46682644 0.000554035883
v 1.09916437 1.50182641 0.52687186
v 1.09916437 1.46682644 0.52687186
v 1.39092684 1.46682644 0.000554035883
v 1.39092696 1.50182641 0.000554035883
v 1.09916437 1.50182641 0.52687186
v -0.0549768582 1.50182593 -0.00834593829
v -0.0549769253 1.46682596 -0.00834593829
v 1.09916437 1.46682644 0.52687186
v -0.148828328 1.50221932 8.70585427E-06
v -0.108523518 1.50221932 -0.102533728
v -0.108489759 -4.47078892E-05 -0.102501914
v -0.148781851 -4.46971571E-05 8.05735544E-06
v 0.00142933207 -4.45845726E-05 -0.150213197
v -0.108489759 -4.47078892E-05 -0.102501914
v -0.108523518 1.50221932 -0.102533728
v 0.00142883556 1.50221932 -0.150259525
v 0.103939608 -4.4611872E-05 -0.109920993
v 0.103971615 1.50221932 -0.109954461
v 0.151662618 -4.46245795E-05 2.30872629E-05
v 0.103939608 -4.4611872E-05 -0.109920993
v 0.103971615 1.50221932 -0.109954461
v 0.151697442 1.50221932 -2.33769401E-06
v 0.109798752 -4.46134327E-05 0.101150803
v 0.151662618 -4.46245795E-05 2.30872629E-05
v 0.151697442 1.50221932 -2.33769401E-06
v 0.111393891 1.50221932 0.102541856
v 0.00151076622 -4.47371822E-05 0.148157492
v 0.109798752 -4.46134327E-05 0.101150803
v 0.00143987907 1.50221932 0.150268272
v -0.101060122 -4.47098682E-05 0.109952956
v 0.00151076622 -4.47371822E-05 0.148157492
v -0.101102598 1.5022192 0.109961063
v -0.148781851 -4.46971571E-05 8.05735544E-06
v -0.101060122 -4.47098682E-05 0.109952956
v -0.101102598 1.5022192 0.109961063
v -0.148828328 1.50221932 8.70585427E-06
v 0.00151076622 -4.47371822E-05 0.148157492
v -0.101060122 -4.47098682E-05 0.109952956
v 0.00142777758 -4.47371604E-05 -1.22749807E-05
v 0.109798752 -4.46134327E-05 0.101150803
v -0.148781851 -4.46971571E-05 8.05735544E-06
v 0.151662618 -4.46245795E-05 2.30872629E-05
v -0.108489759 -4.47078892E-05 -0.102501914
v 0.103939608 -4.4611872E-05 -0.109920993
v 0.00142933207 -4.45845726E-05 -0.150213197
v 0.00143987907 1.50221932 0.150268272
v 0.00143447169 1.5022192 3.30805779E-06
v -0.101102598 1.5022192 0.109961063
v 0.111393891 1.50221932 0.102541856
v -0.148828328 1.50221932 8.70585427E-06
v 0.151697442 1.50221932 -2.33769401E-06
v -0.108523518 1.50221932 -0.102533728
v 0.103971615 1.50221932 -0.109954461
v 0.00142883556 1.50221932 -0.150259525
vn -2.41723257E-07 -1 5.10721748E-07
vn -2.41723257E-07 -1 5.10721748E-07
vn -2.41723257E-07 -1 5.10721748E-07
vn 2.41723313E-07 1 -5.10721804E-07
vn 2.41723313E-07 1 -5.10721804E-07
vn 2.41723313E-07 1 -5.10721804E-07
vn 1.07731999E-07 -1 2.1198862E-07
vn 1.07732028E-07 -1 2.1198862E-07
vn 1.07731999E-07 -1 2.1198862E-07
vn -1.07731999E-07 1 -2.1198862E-07
vn -1.07732028E-07 1 -2.11988649E-07
vn -1.07731999E-07 1 -2.1198862E-07
vn -2.47556073E-07 1 2.47454665E-07
vn -2.47556073E-07 1 2.47454665E-07
vn -2.47556017E-07 1 2.47454665E-07
vn 2.47556073E-07 -1 -2.47454636E-07
vn 2.47556073E-07 -1 -2.47454636E-07
vn 2.47556017E-07 -1 -2.47454636E-07
vn 5.26116651E-07 -1 -3.92674195E-07
vn 5.26116651E-07 -1 -3.92674224E-07
vn 5.26116651E-07 -1 -3.92674195E-07
vn -5.26116423E-07 1 3.92674337E-07
vn -5.2611648E-07 1 3.92674337E-07
vn -5.26116366E-07 1 3.92674337E-07
vn 3.588992E-07 -0.999981403 -0.00611239206
vn 3.588992E-07 -0.999981403 -0.00611239206
vn 3.588992E-07 -0.999981403 -0.00611239159
vn -3.57081916E-07 0.999981403 0.00611247262
vn -3.57082001E-07 0.999981403 0.00611247309
vn -3.57081973E-07 0.999981403 0.00611247309
vn -8.02544719E-07 1 0
vn -8.02544832E-07 1 0
vn -8.02544719E-07 1 0
vn 8.02544662E-07 -1 0
vn 8.02544662E-07 -1 0
vn 8.02544662E-07 -1 0
vn 1.02999911E-06 -1 2.31383055E-07
vn 1.02999923E-06 -1 2.31383055E-07
vn 1.02999911E-06 -1 2.31383069E-07
vn -1.14214606E-06 1 -3.30808803E-07
vn -1.14214629E-06 1 -3.30808803E-07
vn -1.14214629E-06 1 -3.30808831E-07
vn 3.15097594E-07 -1 2.37030761E-07
vn 3.15097594E-07 -1 2.37030775E-07
vn 3.15097651E-07 -1 2.37030775E-07
vn -3.15097594E-07 1 -2.37030861E-07
vn -3.15097651E-07 1 -2.37030832E-07
vn -3.15097537E-07 1 -2.37030832E-07
vn -2.59545317E-07 1 -2.91509423E-07
vn -2.59545203E-07 1 -2.91509423E-07
vn -2.5954526E-07 1 -2.91509423E-07
vn 2.59545317E-07 -1 2.91509451E-07
vn 2.59545374E-07 -1 2.9150948E-07
vn 2.59545317E-07 -1 2.91509451E-07
vn -2.70001209E-07 0 1
vn -2.70001209E-07 0 1
vn -2.70001209E-07 0 1
vn -2.70001209E-07 0 1
vn 2.92328622E-07 1 0
vn 2.92328622E-07 1 0
vn 2.92328622E-07 1 0
vn 2.92328622E-07 1 0
vn -0.879058123 2.34107333E-07 0.476714671
vn -0.879058123 2.34107333E-07 0.476714671
vn -0.879058123 2.34107333E-07 0.476714671
vn -0.879058123 2.34107333E-07 0.476714671
vn 1 -2.66316107E-07 0
vn 1 -2.66316107E-07 0
vn 1 -2.66316107E-07 0
vn 1 -2.66316107E-07 0
vn 0.419925332 0 0.90755862
vn 0.419925302 0 0.90755862
vn 0.419925332 0 0.90755862
vn 0.419925302 0 0.90755862
vn 2.13786009E-07 1 0
vn 2.13786009E-07 1 0
vn 2.13786009E-07 1 0
vn 2.13786009E-07 1 0
vn -0.861772776 2.29503968E-07 0.507294595
vn -0.861772776 2.29503968E-07 0.507294595
vn -0.861772776 2.29503968E-07 0.507294595
vn -0.861772776 2.29503968E-07 0.507294595
vn 0.749483407 2.15789527E-07 0.662023067
vn 0.749483466 2.15789541E-07 0.662023067
vn 0.749483407 2.15789569E-07 0.662023067
vn 0.749483407 2.15789569E-07 0.662023067
vn 2.66316107E-07 1 0
vn 2.66316107E-07 1 0
vn 2.66316107E-07 1 0
vn 2.66316107E-07 1 0
vn -0.867393017 3.19512168E-07 0.497623652
vn -0.867393017 3.19512168E-07 0.497623682
vn -0.867393017 3.19512139E-07 0.497623652
vn -0.867393017 3.19512168E-07 0.497623652
vn -0.937525213 3.89753779E-07 -0.347917348
vn -0.937525213 3.89753779E-07 -0.347917348
vn -0.937525213 3.89753779E-07 -0.347917318
vn -0.937525213 3.89753779E-07 -0.347917378
vn -2.27048517E-07 -1 -2.36600457E-07
vn -2.27048488E-07 -1 -2.36600457E-07
vn -2.27048488E-07 -1 -2.36600457E-07
vn -2.27048488E-07 -1 -2.36600457E-07
vn 0.0134378718 -3.59586039E-07 0.999909759
vn 0.0134378718 -3.59586039E-07 0.999909759
vn 0.0134378718 -3.59586039E-07 0.999909759
vn 0.0134378718 -3.59586039E-07 0.999909759
vn -1 2.16114671E-07 3.05358327E-07
vn -1 2.16114671E-07 3.05358384E-07
vn -1 2.16114671E-07 3.05358327E-07
vn -1 2.16114699E-07 3.05358355E-07
vn -2.66316107E-07 -1 -1.49563277E-07
vn -2.66316107E-07 -1 -1.49563263E-07
vn -2.66316107E-07 -1 -1.49563277E-07
vn -2.66316107E-07 -1 -1.49563263E-07
vn 0 0 1
vn 0 0 1
vn 0 0 1
vn 0 0 1
vn 0 0 -1
vn 0 0 -1
vn 0 0 -1
vn 0 0 -1
vn -0.933079123 1.78187804E-07 0.359671205
vn -0.933079123 1.78187804E-07 0.359671205
vn -0.933079123 1.78187804E-07 0.359671205
vn -0.933079123 1.78187804E-07 0.359671205
vn -3.98647359E-07 -1 -1.52406557E-07
vn -3.98647359E-07 -1 -1.52406542E-07
vn -3.98647359E-07 -1 -1.52406557E-07
vn -3.98647359E-07 -1 -1.52406557E-07
vn 0.838337839 -2.69622632E-07 0.545150936
vn 0.838337958 -2.69622632E-07 0.545150936
vn 0.838337958 -2.6962266E-07 0.545150936
vn 0.838337958 -2.6962266E-07 0.545150936
vn 0.731947422 0 -0.681361139
vn 0.731947362 0 -0.681361139
vn 0.731947422 0 -0.681361139
vn 0.731947482 0 -0.681361079
vn 0.863730371 -3.19806475E-07 0.503954232
vn 0.863730371 -3.19806475E-07 0.503954232
vn 0.863730371 -3.19806475E-07 0.503954232
vn 0.863730371 -3.19806475E-07 0.503954232
vn 4.47244304E-07 1 1.4377261E-07
vn 4.47244304E-07 1 1.4377261E-07
vn 4.47244304E-07 1 1.4377261E-07
vn 4.47244275E-07 1 1.43772624E-07
vn 0.422619313 0 -0.90630728
vn 0.422619313 0 -0.90630728
vn 0.422619313 0 -0.90630728
vn 0.422619313 0 -0.90630728
vn 0.906306863 -2.79511056E-07 0.422620326
vn 0.906306863 -2.79511028E-07 0.422620326
vn 0.906306863 -2.79511028E-07 0.422620326
vn 0.906306863 -2.79511028E-07 0.422620326
vn 2.66316107E-07 1 0
vn 2.66316107E-07 1 0
vn 2.66316107E-07 1 0
vn 2.66316107E-07 1 0
vn -0.422619373 1.12550346E-07 0.90630728
vn -0.422619373 1.12550346E-07 0.90630728
vn -0.422619373 1.12550346E-07 0.90630728
vn -0.422619313 1.12550346E-07 0.90630728
vn -3.20599838E-07 -1 0
vn -3.20599867E-07 -1 0
vn -3.20599838E-07 -1 0
vn -3.20599838E-07 -1 0
vn -0.731947422 0 0.681361139
vn -0.731947482 0 0.681361079
vn -0.731947362 0 0.681361079
vn -0.731947482 0 0.681361079
vn -4.472451E-07 -1 -1.43771913E-07
vn -4.472451E-07 -1 -1.43771913E-07
vn -4.472451E-07 -1 -1.43771913E-07
vn -4.472451E-07 -1 -1.43771913E-07
vn 0.933079123 -1.05649548E-07 -0.359671235
vn 0.933079123 -1.05649548E-07 -0.359671235
vn 0.933079123 -1.05649548E-07 -0.359671235
vn 0.933079123 -1.05649526E-07 -0.359671235
vn 3.98648041E-07 1 1.52406272E-07
vn 3.98648012E-07 1 1.52406272E-07
vn 3.98648012E-07 1 1.52406272E-07
vn 3.98648012E-07 1 1.52406272E-07
vn 1 -1.91013939E-07 -3.08474227E-07
vn 1 -1.91013925E-07 -3.08474256E-07
vn 1 -1.91013939E-07 -3.08474227E-07
vn 1 -1.91013939E-07 -3.08474256E-07
vn 2.66316107E-07 1 2.49272148E-07
vn 2.66316107E-07 1 2.49272119E-07
vn 2.66316107E-07 1 2.49272148E-07
vn 2.66316107E-07 1 2.49272119E-07
vn 0.937525213 -2.49678038E-07 0.347917378
vn 0.937525213 -2.49678095E-07 0.347917378
vn 0.937525213 -2.49678038E-07 0.347917378
vn 0.937525213 -2.49678038E-07 0.347917378
vn 2.34902288E-07 1 1.89280485E-07
vn 2.34902288E-07 1 1.89280485E-07
vn 2.34902288E-07 1 1.89280485E-07
vn 2.34902288E-07 1 1.89280485E-07
vn -0.748261273 0 -0.663404226
vn -0.748261333 0 -0.663404167
vn -0.748261273 0 -0.663404167
vn -0.748261273 0 -0.663404226
vn -2.66316107E-07 -1 0
vn -2.66316107E-07 -1 0
vn -2.66316107E-07 -1 0
vn -2.66316107E-07 -1 0
vn -0.419925421 1.11832897E-07 -0.90755862
vn -0.419925421 1.11832897E-07 -0.90755862
vn -0.419925421 1.11832897E-07 -0.90755862
vn -0.419925421 1.11832897E-07 -0.90755862
vn -2.20352248E-07 -1 0
vn -2.20352248E-07 -1 0
vn -2.20352248E-07 -1 0
vn -2.20352248E-07 -1 0
vn 2.70971242E-07 0 -1
vn 2.70971242E-07 0 -1
vn 2.70971242E-07 0 -1
vn 2.70971242E-07 0 -1
vn -2.92328622E-07 -1 0
vn -2.92328622E-07 -1 0
vn -2.92328622E-07 -1 0
vn -2.92328622E-07 -1 0
vn 0.577019095 -0.577019095 0.57801199
vn 0.577018976 0.577019274 0.57801187
vn -0.577019334 0.577019274 0.578011632
vn -0.577019274 -0.577018976 0.57801199
vn 0.577018976 0.577019274 0.57801187
vn -0.707105815 0.707105458 0.00178268726
vn -0.577019334 0.577019274 0.578011632
vn 0.707105637 0.707105637 0.00178289018
vn 0.577019095 -0.577019095 0.57801199
vn 0.707105577 -0.707105637 0.00178341323
vn -0.577019274 -0.577018976 0.57801199
vn -0.707105517 -0.707105756 0.00178320997
vn -0.577019334 0.577019274 0.578011632
vn -0.707105815 0.707105458 0.00178268726
vn -0.733136594 0 0.680081367
vn -0.733136594 0 0.680081367
vn -0.733136594 0 0.680081367
vn -0.733136594 0 0.680081367
vn 0.879477143 1.26565556E-06 0.475941092
vn 0.879477143 1.26565544E-06 0.475941151
vn 0.879477143 1.26565556E-06 0.475941092
vn 0.879477143 1.26565556E-06 0.475941151
vn -0.934639156 2.48909458E-07 0.355597585
vn -0.934639156 2.48909458E-07 0.355597585
vn -0.934639156 2.48909458E-07 0.355597585
vn -0.934639156 2.48909487E-07 0.355597556
vn 0.869994223 -2.31693505E-07 0.4930619
vn 0.869994223 -2.31693505E-07 0.4930619
vn 0.869994223 -2.31693505E-07 0.4930619
vn 0.869994223 -2.31693505E-07 0.4930619
vn 0.0364404283 0 0.999335825
vn 0.0364404283 0 0.999335825
vn 0.0364404283 0 0.999335825
vn 0.0364404283 0 0.999335825
vn -1 1.30076913E-07 1.33006822E-07
vn -1 1.30076913E-07 1.33006822E-07
vn -1 1.30076913E-07 1.33006822E-07
vn -1 1.30076913E-07 1.33006836E-07
vn -0.938251674 2.49871505E-07 -0.345953465
vn -0.938251674 2.49871533E-07 -0.345953465
vn -0.938251674 2.49871533E-07 -0.345953465
vn -0.938251674 2.49871533E-07 -0.345953494
vn 0.0034182393 4.3553764E-06 0.999994159
vn 0.00341823976 4.3553764E-06 0.999994159
vn 0.00341823976 4.3553764E-06 0.999994159
vn 0.0034182393 4.3553764E-06 0.999994159
vn -0.866495132 -1.98583871E-06 0.499185354
vn -0.866495132 -1.98583871E-06 0.499185354
vn -0.866495132 -1.98583871E-06 0.499185354
vn -0.866495252 -1.98583871E-06 0.499185383
vn 0.866505265 2.14419242E-06 0.499167949
vn 0.866505265 2.14419242E-06 0.499168009
vn 0.866505265 2.14419219E-06 0.499167949
vn 0.866505265 2.14419219E-06 0.499168009
vn 0 4.35965467E-06 -1
vn 0 4.35965467E-06 -1
vn 0 4.35965467E-06 -1
vn 0 4.35965467E-06 -1
vn -0.838853896 2.23400306E-07 0.544356644
vn -0.838853896 2.23400306E-07 0.544356644
vn -0.838853896 2.23400306E-07 0.544356644
vn -0.838853896 2.23400306E-07 0.544356644
vn -0.759725571 2.02327158E-07 -0.650243759
vn -0.759725571 2.02327158E-07 -0.650243759
vn -0.759725571 2.02327158E-07 -0.650243759
vn -0.759725571 2.02327158E-07 -0.650243759
vn -0.420560688 -1.39488077E-06 -0.907264471
vn -0.420560688 -1.394881E-06 -0.907264471
vn -0.420560688 -1.39488088E-06 -0.907264471
vn -0.420560658 -1.39488066E-06 -0.907264352
vn -0.862871468 5.55450981E-07 0.505423427
vn -0.862871468 5.55450981E-07 0.505423427
vn -0.862871468 5.55450981E-07 0.505423427
vn -0.862871468 5.55450981E-07 0.505423427
vn -0.863235295 -1.19328377E-06 0.50480181
vn -0.863235295 -1.19328365E-06 0.50480175
vn -0.863235295 -1.19328365E-06 0.50480175
vn -0.863235295 -1.19328365E-06 0.50480175
vn -7.06946139E-07 2.7247836E-07 -1
vn -7.06946082E-07 2.7247836E-07 -1
vn -7.06946082E-07 2.7247836E-07 -1
vn -7.06946082E-07 2.7247836E-07 -1
vn 0.0061551854 0 -0.999981046
vn 0.0061551854 0 -0.999981046
vn 0.0061551854 0 -0.999981046
vn 0.0061551854 0 -0.999981046
vn 0.874605775 -2.32921607E-07 0.484834701
vn 0.874605775 -2.32921607E-07 0.484834701
vn 0.874605775 -2.32921607E-07 0.484834701
vn 0.874605775 -2.32921607E-07 0.484834701
vn -0.420701563 6.60336184E-07 0.907199085
vn -0.420701593 6.60336298E-07 0.907199085
vn -0.420701593 6.60336298E-07 0.907199085
vn -0.420701593 6.60336241E-07 0.907199025
vn -0.999846816 -3.0823885E-05 0.0175040774
vn -0.930688798 -2.86507566E-05 -0.365812004
vn -0.930688798 -2.86507566E-05 -0.365812004
vn -0.999846816 -3.0823885E-05 0.0175041165
vn -0.0175056029 -3.08131384E-05 -0.999846816
vn -0.398167431 -2.83980753E-05 -0.917312801
vn -0.398167431 -2.83980753E-05 -0.917312801
vn -0.0175053068 -3.08131384E-05 -0.999846816
vn 0.365812331 -2.85533661E-05 -0.93068856
vn 0.365812331 -2.85533624E-05 -0.93068856
vn 0.917311251 -2.8208884E-05 -0.398171008
vn 0.917311192 -2.82088859E-05 -0.398171008
vn 0.917311251 -2.82088877E-05 -0.398171008
vn 0.917311251 -2.8208884E-05 -0.398171008
vn 0.716249287 -0.00105061673 0.697843671
vn 0.927375436 -0.000673154078 0.374131322
vn 0.927375555 -0.000673154078 0.374131352
vn 0.716275632 -0.00105058705 0.69781667
vn 0.0220000669 -0.00104947668 0.999757469
vn 0.716249287 -0.00105061673 0.697843671
vn 0.0219627153 -0.00104944699 0.999758184
vn -0.357479185 -0.000672119902 0.93392086
vn 0.0220000669 -0.00104947668 0.999757469
vn -0.357479185 -0.000672119961 0.93392086
vn -0.999846816 -3.0823885E-05 0.0175041165
vn -0.917313993 -2.83205973E-05 0.39816463
vn -0.917313993 -2.83205973E-05 0.3981646
vn -0.999846816 -3.0823885E-05 0.0175040774
vn 4.22677829E-07 -1 0
vn -2.66316107E-07 -1 0
vn 3.42722501E-07 -1 -2.61435702E-07
vn 9.41556038E-07 -1 2.14402377E-07
vn -2.66316107E-07 -1 0
vn 7.49347976E-07 -1 0
vn 2.00280653E-07 -1 -5.00413137E-07
vn 4.36688509E-07 -1 -7.32622482E-07
vn 4.02878698E-07 -1 -1.01588489E-06
vn -5.03317949E-07 1 -1.01543128E-06
vn -3.46467942E-07 1 0
vn -2.86188168E-07 1 -5.1521755E-07
vn -4.66053251E-07 1 -7.02730688E-07
vn 2.66316107E-07 1 0
vn -7.49155731E-07 1 0
vn -2.00172394E-07 1 5.00249882E-07
vn -4.36429588E-07 1 7.32375327E-07
vn -4.02683156E-07 1 1.01549847E-06
vt 0.000559860026 0.21415098
vt 0.447923809 0.21415098
vt 0.0555833802 0.132980168
vt 0.0555833988 0.304927707
vt 0.447923779 0.223757029
vt 0.000559860026 0.223757014
vt 0.000559860026 0.303001583
vt 0.528997302 0.30300194
vt 0.128296509 0.231581673
vt 0.128296405 0.384028256
vt 0.528997302 0.312608004
vt 0.000559860026 0.312608302
vt 0.000559860026 0.267939806
vt 0.0075296876 0.363487601
vt 0.505670011 0.267939806
vt 0.00752955675 0.252122104
vt 0.000559860026 0.347670108
vt 0.505670011 0.347670138
vt 0.000559860026 0.61437422
vt 0.545208454 0.61437428
vt 0.000560506247 0.526010811
vt 0.000560390763 0.623007298
vt 0.545208454 0.534643948
vt 0.000559860026 0.534643948
vt 0.524134934 0.371891201
vt 0.704793394 0.233198941
vt 0.344147593 0.233198956
vt 0.523040295 0.243718803
vt 0.343780965 0.382410973
vt 0.704426646 0.382410973
vt 0.000559860026 0.356691182
vt 0.00991211273 0.452795118
vt 0.462040156 0.356691182
vt 0.000559860026 0.436421454
vt 0.462040186 0.436421454
vt 0.00991206989 0.340317577
vt 0.000559860026 0.61437422
vt 0.41766569 0.61437428
vt 0.0042503858 0.525725007
vt 0.00425029686 0.623293042
vt 0.41766572 0.534643888
vt 0.000559860026 0.534643948
vt 0.923472345 0.153817251
vt 0.51058054 0.223757058
vt 0.970483541 0.413476974
vt 0.882018507 0.127445638
vt 0.51058048 0.21415098
vt 0.983533859 0.21415098
vt 0.000559860026 0.0455005094
vt 0.000560044777 0.144461304
vt 0.422204077 0.0455005318
vt 0.000560157932 -0.0630662963
vt 0.000559860026 0.0358944647
vt 0.422204107 0.0358944647
vt 0.983533859 0.347670168
vt 0.983533859 0.312608033
vt 0.499918163 0.312608004
vt 0.499918163 0.347670138
vt 0.983533859 0.355217427
vt 0.983533859 0.349490613
vt 0.499918163 0.349490613
vt 0.499918163 0.355217427
vt 0.987032235 0.30300194
vt 0.998485863 0.30300194
vt 0.998485863 0.267939806
vt 0.987032235 0.267939806
vt 0.998232901 0.312613994
vt 0.986779273 0.312613994
vt 0.986779273 0.347676128
vt 0.998232901 0.347676128
vt 0.983533859 0.436421514
vt 0.983533859 0.401359379
vt 0.560195565 0.401359379
vt 0.560195565 0.436421514
vt 0.983533859 0.443968803
vt 0.983533859 0.438241988
vt 0.560195565 0.438242018
vt 0.560195565 0.443968803
vt 0.987032235 0.391753316
vt 0.998485863 0.391753316
vt 0.998485863 0.356691182
vt 0.987032235 0.356691182
vt 0.983533859 0.258819193
vt 0.983533859 0.223757073
vt 0.538324118 0.223757058
vt 0.538324118 0.258819163
vt 0.983533859 0.266366482
vt 0.983533859 0.260639668
vt 0.538324118 0.260639668
vt 0.538324118 0.266366482
vt 0.987032235 0.21415098
vt 0.998485863 0.21415098
vt 0.998485863 0.179088846
vt 0.987032235 0.179088846
vt 0.983533859 0.258819193
vt 0.983533859 0.223757073
vt 0.450524539 0.223757043
vt 0.450524539 0.258819163
vt 0.983533859 0.266366482
vt 0.983533859 0.260639668
vt 0.450524539 0.260639668
vt 0.450524539 0.266366482
vt 0.987032235 0.21415098
vt 0.998485863 0.21415098
vt 0.998485863 0.179088846
vt 0.987032235 0.179088846
vt 0.983533859 0.436421514
vt 0.983533859 0.401359379
vt 0.482106566 0.401359349
vt 0.482106566 0.436421484
vt 0.983533859 0.443968803
vt 0.983533859 0.438241988
vt 0.482106566 0.438241988
vt 0.482106566 0.443968803
vt 0.987032235 0.391753316
vt 0.998485863 0.391753316
vt 0.998485863 0.356691182
vt 0.987032235 0.356691182
vt 0.998232901 0.401365399
vt 0.986779273 0.401365399
vt 0.986779273 0.436427534
vt 0.998232901 0.436427534
vt 0.983533859 0.347670168
vt 0.983533859 0.312608033
vt 0.452558875 0.312608004
vt 0.452558875 0.347670138
vt 0.983533859 0.355217427
vt 0.983533859 0.349490613
vt 0.452558875 0.349490613
vt 0.452558875 0.355217427
vt 0.987032235 0.30300194
vt 0.998485863 0.30300194
vt 0.998485863 0.267939806
vt 0.987032235 0.267939806
vt 0.544217348 0.0358944647
vt 0.983533859 0.0358944647
vt 0.983533859 0.000832329621
vt 0.544217348 0.000832329621
vt 0.987032235 0.0358944722
vt 0.998485863 0.0358944722
vt 0.998485863 0.000832337071
vt 0.987032235 0.000832337071
vt 0.544217348 0.0436277986
vt 0.983533859 0.0436278172
vt 0.983533859 0.0379010029
vt 0.544217348 0.0379009843
vt 0.566168845 0.125190973
vt 0.983533859 0.125190973
vt 0.983533859 0.090128839
vt 0.566168845 0.090128839
vt 0.987032235 0.125190988
vt 0.998485863 0.125190988
vt 0.998485863 0.0901288539
vt 0.987032235 0.0901288539
vt 0.566168845 0.132924303
vt 0.983533859 0.132924318
vt 0.983533859 0.127197504
vt 0.566168845 0.127197489
vt 0.983533859 0.134797081
vt 0.566168845 0.134797052
vt 0.566168845 0.169859186
vt 0.983533859 0.169859216
vt 0.983533859 0.171679676
vt 0.566168845 0.17167969
vt 0.566168845 0.177406505
vt 0.983533859 0.17740649
vt 0.983533859 0.0455005541
vt 0.544217348 0.0455005355
vt 0.544217348 0.0805626661
vt 0.983533859 0.0805626884
vt 0.983533859 0.0823831484
vt 0.544217348 0.0823831558
vt 0.544217348 0.0881099701
vt 0.983533859 0.0881099626
vt 0.983533859 0.267939806
vt 0.452558875 0.267939806
vt 0.452558875 0.30300194
vt 0.983533859 0.30300194
vt 0.983533859 0.305008441
vt 0.452558875 0.305008441
vt 0.452558875 0.310735255
vt 0.983533859 0.310735255
vt 0.983533859 0.356691182
vt 0.482106566 0.356691182
vt 0.482106566 0.391753316
vt 0.983533859 0.391753316
vt 0.983533859 0.393759817
vt 0.482106566 0.393759817
vt 0.482106566 0.399486631
vt 0.983533859 0.399486631
vt 0.983533859 0.179088846
vt 0.450524539 0.179088846
vt 0.450524539 0.21415098
vt 0.983533859 0.21415098
vt 0.983533859 0.216157511
vt 0.450524539 0.216157496
vt 0.450524539 0.22188431
vt 0.983533859 0.221884325
vt 0.983533859 0.179088846
vt 0.538324118 0.179088846
vt 0.538324118 0.214150995
vt 0.983533859 0.21415098
vt 0.983533859 0.216157511
vt 0.538324118 0.216157511
vt 0.538324118 0.22188431
vt 0.983533859 0.221884325
vt 0.983533859 0.356691182
vt 0.560195565 0.356691182
vt 0.560195565 0.391753316
vt 0.983533859 0.391753316
vt 0.983533859 0.393759817
vt 0.560195565 0.393759847
vt 0.560195565 0.399486631
vt 0.983533859 0.399486631
vt 0.983533859 0.267939806
vt 0.499918163 0.267939806
vt 0.499918163 0.30300194
vt 0.983533859 0.30300194
vt 0.983533859 0.305008441
vt 0.499918163 0.305008441
vt 0.499918163 0.310735255
vt 0.983533859 0.310735255
vt 0.211423665 0.957294941
vt 0.211423725 0.972410202
vt 0.241654307 0.972410142
vt 0.241654262 0.957294941
vt 0.000969802495 0.871631026
vt 0.731033087 0.856515825
vt 0.000969802495 0.856515825
vt 0.731033087 0.871631026
vt 0.000969802495 0.887633085
vt 0.731033087 0.887633085
vt 0.000969802495 0.903634906
vt 0.731033087 0.903634787
vt 0.000969802495 0.919637084
vt 0.731033087 0.919637084
vt 0.000559860026 0.216157481
vt 0.000559860026 0.221884295
vt 0.447923779 0.22188431
vt 0.447923809 0.216157496
vt 0.986779273 0.258825183
vt 0.998232901 0.258825183
vt 0.998232722 0.177654609
vt 0.986779094 0.177654624
vt 0.000559860026 0.305008441
vt 0.000559860026 0.310735255
vt 0.528997302 0.310735255
vt 0.528997302 0.305008441
vt 0.998232901 0.490379214
vt 0.986779273 0.490379214
vt 0.986779332 0.558701158
vt 0.998232961 0.558701158
vt 0.998232901 0.312613994
vt 0.986779273 0.312613994
vt 0.986779749 0.408161998
vt 0.998233378 0.408161968
vt 0.000559860026 0.355217427
vt 0.505670011 0.355217427
vt 0.505670011 0.349490613
vt 0.000559860026 0.349490613
vt 0.545208454 0.616194785
vt 0.000559860026 0.616194785
vt 0.000559860026 0.621921599
vt 0.545208454 0.621921599
vt 0.998232901 0.579318166
vt 0.986779273 0.579318166
vt 0.986778617 0.667681515
vt 0.998232245 0.667681515
vt 0.985123217 0.24819243
vt 0.996576846 0.24819243
vt 0.998485863 0.109028354
vt 0.987032235 0.10902831
vt 0.988688409 0.292844057
vt 1.00014198 0.292844057
vt 0.998232901 0.15377079
vt 0.986779273 0.153770775
vt 0.341866434 0.443968803
vt 0.702166915 0.443968803
vt 0.702166915 0.438241988
vt 0.341866523 0.438241988
vt 0.998232901 0.401365399
vt 0.986779273 0.401365399
vt 0.986778915 0.495979935
vt 0.998232543 0.495979935
vt 0.000559860026 0.443968803
vt 0.462040156 0.443968773
vt 0.462040186 0.438241988
vt 0.000559860026 0.438241988
vt 0.41766569 0.616194785
vt 0.000559860026 0.616194785
vt 0.000559860026 0.621921599
vt 0.41766572 0.621921599
vt 0.998232901 0.579318166
vt 0.986779273 0.579318166
vt 0.986779392 0.668102324
vt 0.99823302 0.668102324
vt 0.998232961 0.293743581
vt 0.998233199 0.206287712
vt 0.986779571 0.206287712
vt 0.986779332 0.293743551
vt 0.983533859 0.216157511
vt 0.51058048 0.216157496
vt 0.51058054 0.22188431
vt 0.983533859 0.221884325
vt 0.987032235 0.0358944722
vt 0.998485863 0.0358944722
vt 0.998486042 -0.0649286211
vt 0.987032413 -0.0649286211
vt 0.986779273 0.0805686861
vt 0.998232901 0.0805686861
vt 0.998232543 -0.018392073
vt 0.986778915 -0.018392073
vt 0.000559860026 0.0436277799
vt 0.422204077 0.0436277986
vt 0.422204107 0.0379009843
vt 0.000559860026 0.0379009657
vt 0.994975686 0.850310922
vt 0.995669603 0.819441378
vt 0.00796426088 0.820029974
vt 0.00935214106 0.850618303
vt 0.00796423294 0.787834644
vt 0.00796426088 0.820029974
vt 0.995669603 0.819441378
vt 0.995669603 0.786982417
vt 0.00796423294 0.755383193
vt 0.995669603 0.754192054
vt 0.00796424039 0.726083755
vt 0.00796423294 0.755383193
vt 0.995669603 0.754192054
vt 0.993587852 0.725823998
vt 0.00727030309 0.821203351
vt 0.00727027608 0.849633574
vt 0.99636364 0.850010276
vt 0.995669723 0.818815887
vt 0.00727031101 0.789021432
vt 0.00727028493 0.817675531
vt 0.995669603 0.78698051
vt 0.00796424598 0.755319476
vt 0.00727029145 0.785457253
vt 0.995669603 0.754459381
vt 0.00657635648 0.726214349
vt 0.00796424598 0.755319476
vt 0.995669603 0.754459381
vt 0.995669663 0.726537347
vt 0.101933256 0.956906319
vt 0.0755484179 0.956282258
vt 0.0880213529 0.974206686
vt 0.12282756 0.96750164
vt 0.0535476431 0.96703589
vt 0.12271753 0.981840849
vt 0.0521725789 0.98044312
vt 0.100494199 0.992131114
vt 0.0727530718 0.991554797
vt 0.104535028 0.957542539
vt 0.0880213529 0.974206686
vt 0.122827396 0.967616916
vt 0.0748416334 0.95680356
vt 0.121543765 0.982927978
vt 0.0546929687 0.965949893
vt 0.101200998 0.991609812
vt 0.0532151982 0.980796456
vt 0.0715076178 0.990870893
g submesh0
f 1/1/1 2/2/2 3/3/3
f 4/4/4 5/5/5 6/6/6
f 7/7/7 8/8/8 9/9/9
f 10/10/10 11/11/11 12/12/12
f 13/13/13 14/14/14 15/15/15
f 16/16/16 17/17/17 18/18/18
f 19/19/19 20/20/20 21/21/21
f 22/22/22 23/23/23 24/24/24
f 25/25/25 26/26/26 27/27/27
f 28/28/28 29/29/29 30/30/30
f 31/31/31 32/32/32 33/33/33
f 34/34/34 35/35/35 36/36/36
f 37/37/37 38/38/38 39/39/39
f 40/40/40 41/41/41 42/42/42
f 43/43/43 44/44/44 45/45/45
f 46/46/46 47/47/47 48/48/48
f 49/49/49 50/50/50 51/51/51
f 52/52/52 53/53/53 54/54/54
f 55/55/55 56/56/56 57/57/57
f 55/55/55 57/57/57 58/58/58
f 59/59/59 60/60/60 61/61/61
f 59/59/59 61/61/61 62/62/62
f 63/63/63 64/64/64 65/65/65
f 63/63/63 65/65/65 66/66/66
f 67/67/67 68/68/68 69/69/69
f 67/67/67 69/69/69 70/70/70
f 71/71/71 72/72/72 73/73/73
f 71/71/71 73/73/73 74/74/74
f 75/75/75 76/76/76 77/77/77
f 75/75/75 77/77/77 78/78/78
f 79/79/79 80/80/80 81/81/81
f 79/79/79 81/81/81 82/82/82
f 83/83/83 84/84/84 85/85/85
f 83/83/83 85/85/85 86/86/86
f 87/87/87 88/88/88 89/89/89
f 87/87/87 89/89/89 90/90/90
f 91/91/91 92/92/92 93/93/93
f 91/91/91 93/93/93 94/94/94
f 95/95/95 96/96/96 97/97/97
f 95/95/95 97/97/97 98/98/98
f 99/99/99 100/100/100 101/101/101
f 99/99/99 101/101/101 102/102/102
f 103/103/103 104/104/104 105/105/105
f 103/103/103 105/105/105 106/106/106
f 107/107/107 108/108/108 109/109/109
f 107/107/107 109/109/109 110/110/110
f 111/111/111 112/112/112 113/113/113
f 111/111/111 113/113/113 114/114/114
f 115/115/115 116/116/116 117/117/117
f 115/115/115 117/117/117 118/118/118
f 119/119/119 120/120/120 121/121/121
f 119/119/119 121/121/121 122/122/122
f 123/123/123 124/124/124 125/125/125
f 123/123/123 125/125/125 126/126/126
f 127/127/127 128/128/128 129/129/129
f 127/127/127 129/129/129 130/130/130
f 131/131/131 132/132/132 133/133/133
f 131/131/131 133/133/133 134/134/134
f 135/135/135 136/136/136 137/137/137
f 135/135/135 137/137/137 138/138/138
f 139/139/139 140/140/140 141/141/141
f 139/139/139 141/141/141 142/142/142
f 143/143/143 144/144/144 145/145/145
f 143/143/143 145/145/145 146/146/146
f 147/147/147 148/148/148 149/149/149
f 147/147/147 149/149/149 150/150/150
f 151/151/151 152/152/152 153/153/153
f 151/151/151 153/153/153 154/154/154
f 155/155/155 156/156/156 157/157/157
f 155/155/155 157/157/157 158/158/158
f 159/159/159 160/160/160 161/161/161
f 159/159/159 161/161/161 162/162/162
f 163/163/163 164/164/164 165/165/165
f 163/163/163 165/165/165 166/166/166
f 167/167/167 168/168/168 169/169/169
f 167/167/167 169/169/169 170/170/170
f 171/171/171 172/172/172 173/173/173
f 171/171/171 173/173/173 174/174/174
f 175/175/175 176/176/176 177/177/177
f 175/175/175 177/177/177 178/178/178
f 179/179/179 180/180/180 181/181/181
f 179/179/179 181/181/181 182/182/182
f 183/183/183 184/184/184 185/185/185
f 183/183/183 185/185/185 186/186/186
f 187/187/187 188/188/188 189/189/189
f 187/187/187 189/189/189 190/190/190
f 191/191/191 192/192/192 193/193/193
f 191/191/191 193/193/193 194/194/194
f 195/195/195 196/196/196 197/197/197
f 195/195/195 197/197/197 198/198/198
f 199/199/199 200/200/200 201/201/201
f 199/199/199 201/201/201 202/202/202
f 203/203/203 204/204/204 205/205/205
f 203/203/203 205/205/205 206/206/206
f 207/207/207 208/208/208 209/209/209
f 207/207/207 209/209/209 210/210/210
f 211/211/211 212/212/212 213/213/213
f 211/211/211 213/213/213 214/214/214
f 215/215/215 216/216/216 217/217/217
f 215/215/215 217/217/217 218/218/218
f 219/219/219 220/220/220 221/221/221
f 219/219/219 221/221/221 222/222/222
f 223/223/223 224/224/224 225/225/225
f 223/223/223 225/225/225 226/226/226
f 227/227/227 228/228/228 229/229/229
f 227/227/227 230/230/230 228/228/228
f 231/231/231 230/230/230 227/227/227
f 231/231/231 232/232/232 230/230/230
f 233/233/233 232/232/232 231/231/231
f 233/233/233 234/234/234 232/232/232
f 235/235/235 234/234/234 233/233/233
f 235/235/235 236/236/236 234/234/234
f 237/237/237 238/238/238 239/239/239
f 237/237/237 239/239/239 240/240/240
f 241/241/241 242/242/242 243/243/243
f 241/241/241 243/243/243 244/244/244
f 245/245/245 246/246/246 247/247/247
f 245/245/245 247/247/247 248/248/248
f 249/249/249 250/250/250 251/251/251
f 249/249/249 251/251/251 252/252/252
f 253/253/253 254/254/254 255/255/255
f 253/253/253 255/255/255 256/256/256
f 257/257/257 258/258/258 259/259/259
f 257/257/257 259/259/259 260/260/260
f 261/261/261 262/262/262 263/263/263
f 261/261/261 263/263/263 264/264/264
f 265/265/265 266/266/266 267/267/267
f 265/265/265 267/267/267 268/268/268
f 269/269/269 270/270/270 271/271/271
f 269/269/269 271/271/271 272/272/272
f 273/273/273 274/274/274 275/275/275
f 273/273/273 275/275/275 276/276/276
f 277/277/277 278/278/278 279/279/279
f 277/277/277 279/279/279 280/280/280
f 281/281/281 282/282/282 283/283/283
f 281/281/281 283/283/283 284/284/284
f 285/285/285 286/286/286 287/287/287
f 285/285/285 287/287/287 288/288/288
f 289/289/289 290/290/290 291/291/291
f 289/289/289 291/291/291 292/292/292
f 293/293/293 294/294/294 295/295/295
f 293/293/293 295/295/295 296/296/296
f 297/297/297 298/298/298 299/299/299
f 297/297/297 299/299/299 300/300/300
f 301/301/301 302/302/302 303/303/303
f 301/301/301 303/303/303 304/304/304
f 305/305/305 306/306/306 307/307/307
f 305/305/305 307/307/307 308/308/308
f 309/309/309 310/310/310 311/311/311
f 309/309/309 311/311/311 312/312/312
f 313/313/313 314/314/314 315/315/315
f 313/313/313 315/315/315 316/316/316
f 317/317/317 318/318/318 319/319/319
f 317/317/317 319/319/319 320/320/320
f 321/321/321 322/322/322 323/323/323
f 321/321/321 323/323/323 324/324/324
f 325/325/325 321/321/321 324/324/324
f 325/325/325 324/324/324 326/326/326
f 327/327/327 328/328/328 329/329/329
f 327/327/327 329/329/329 330/330/330
f 331/331/331 332/332/332 333/333/333
f 331/331/331 333/333/333 334/334/334
f 335/335/335 336/336/336 334/334/334
f 335/335/335 334/334/334 337/337/337
f 338/338/338 339/339/339 337/337/337
f 338/338/338 337/337/337 340/340/340
f 341/341/341 342/342/342 343/343/343
f 341/341/341 343/343/343 344/344/344
f 345/345/345 346/346/346 347/347/347
f 348/348/348 345/345/345 347/347/347
f 346/346/346 349/349/349 347/347/347
f 350/350/350 348/348/348 347/347/347
f 349/349/349 351/351/351 347/347/347
f 352/352/352 350/350/350 347/347/347
f 351/351/351 353/353/353 347/347/347
f 353/353/353 352/352/352 347/347/347
f 354/354/354 355/355/355 356/356/356
f 357/357/357 355/355/355 354/354/354
f 356/356/356 355/355/355 358/358/358
f 359/359/359 355/355/355 357/357/357
f 358/358/358 355/355/355 360/360/360
f 361/361/361 355/355/355 359/359/359
f 360/360/360 355/355/355 362/362/362
f 362/362/362 355/355/355 361/361/361
