# stairs.spiral.landing.collision
v -0.670081794 1.69102275 -1.40797091
v -0.670311272 1.69102275 -1.46026587
v -0.670237124 1.75437236 -1.45851755
v -0.739150524 1.69102263 -1.46152747
v -0.670046687 1.75437236 -1.40601575
v -0.73908782 1.75437224 -1.45958817
v -0.739386857 1.69102275 -1.40330577
v -0.739345253 1.75437236 -1.40113962
v -0.688570857 1.69102275 -1.16851044
v -0.62650162 1.69102275 -1.20069265
v -0.626046062 1.75437236 -1.19962215
v -0.688066363 1.75437236 -1.16732454
v -0.0803329945 1.69102275 -0.132990494
v -0.138608679 1.69102275 -0.094796598
v -0.137565807 1.75437236 -0.0928628594
v -0.0793169066 1.75437272 -0.131043628
v -0.0607967116 1.69102275 -0.0108007034
v -0.0109633477 1.69102275 -0.0599597953
v -0.0591206811 1.75437272 -0.00910194591
v -0.0092876954 1.75437272 -0.0582615696
v -0.670081794 2.52293539 -1.40797091
v -0.670311272 2.52293587 -1.46026587
v -0.670236945 2.58628559 -1.45851755
v -0.739150226 2.52293587 -1.46152747
v -0.670046806 2.58628511 -1.40601563
v -0.739087641 2.58628559 -1.45958865
v -0.739386737 2.52293539 -1.40330565
v -0.739345074 2.58628511 -1.40113962
v -0.688570857 2.52293587 -1.16851044
v -0.626501501 2.52293587 -1.20069277
v -0.626046181 2.58628559 -1.19962227
v -0.688066363 2.58628559 -1.16732466
v -0.0802465975 2.52293587 -0.132774234
v -0.138526663 2.52293587 -0.0946046039
v -0.13748008 2.58628535 -0.0926608741
v -0.0792269185 2.58628535 -0.130817309
v -0.0607967563 2.52293587 -0.0108008934
v -0.0109632369 2.52293587 -0.059959989
v -0.0591207221 2.58628535 -0.0091021359
v -0.00928766094 2.58628535 -0.0582612269
v 1.49999952 1.49999964 -0.712863088
v 1.49999952 1.43749976 -0.712862968
v 1.5000006 1.43749952 -1.5
v 1.5000006 1.4999994 -1.5
v -5.53639325E-07 1.43749976 1.2189148E-06
v -5.73927139E-07 1.49999976 1.21951086E-06
v -7.05593891E-07 1.43749952 -0.149908498
v -7.35418496E-07 1.49999952 -0.149908498
v -0.011522959 1.43749964 -0.272644043
v -0.0115229888 1.49999964 -0.272644043
v -0.0365391299 1.43749964 -0.383743167
v -0.0671313182 1.43749964 -0.495830983
v -0.631276488 1.43749952 -1.49999905
v -0.105315901 1.43749964 -0.609428406
v -0.036539007 1.49999964 -0.383743167
v -0.0671313107 1.49999964 -0.495830983
v -0.105315931 1.49999964 -0.609428406
v -0.631276488 1.49999952 -1.49999905
v -0.153271288 1.43749964 -0.725101054
v -0.631276608 1.49999964 -1.35750389
v -0.153271362 1.49999964 -0.725101054
v -0.631276667 1.43749964 -1.35750413
v -0.213338241 1.43749952 -0.843459129
v -0.492049277 1.49999964 -1.22141349
v -0.213338256 1.49999952 -0.843459249
v -0.492049247 1.43749964 -1.22141337
v -0.288019717 1.43749964 -0.965157092
v -0.379980803 1.49999952 -1.09089386
v -0.288019717 1.49999952 -0.965157092
v -0.379980803 1.43749964 -1.09089386
v 0.00146468263 1.51800406 -0.077359587
v 0.00121740962 2.63049006 -0.066308789
v 0.0657297298 2.63049006 -0.00374798174
v 0.0767956823 1.51800406 -0.00430742046
v -0.0773180127 1.51800406 0.00347095076
v -0.00173852267 2.63049006 0.0654738173
v -0.00198710919 1.5180043 0.0765232518
v -0.0662506893 2.63049006 0.0029129379
v -0.000260399509 2.66356325 -0.000417904957
v -0.698056042 1.75266767 -1.28020942
v -0.70684582 2.52836537 -1.29763758
v -0.7242015 2.52662039 -1.33153915
v -0.662450552 1.75266767 -1.2984376
v -0.715411663 1.7509228 -1.31411111
v -0.671240389 2.52836537 -1.31586564
v -0.688596189 2.52662039 -1.34976733
v -0.679806173 1.7509228 -1.33233929
v -0.601278186 1.75266731 -1.04413331
v -0.625351906 2.56501484 -1.07502496
v -0.642707825 2.56327009 -1.10892665
v -0.565672874 1.75266767 -1.06236124
v -0.618633807 1.75092256 -1.07803476
v -0.589746714 2.56501484 -1.0932529
v -0.607102394 2.56327009 -1.12715483
v -0.583028734 1.75092268 -1.09626281
v -0.484644473 1.7512877 -0.88795507
v -0.477551758 2.56465054 -0.887679577
v -0.460179329 2.56465054 -0.853745759
v -0.520249784 1.7512877 -0.869727075
v -0.467272341 1.7512877 -0.854021192
v -0.51315707 2.56465054 -0.869451523
v -0.49578464 2.56465054 -0.835517704
v -0.502877653 1.7512877 -0.835793197
v -0.397956699 1.74481905 -0.628261983
v -0.376691461 2.56327009 -0.589308441
v -0.394047111 2.56501484 -0.623210013
v -0.362351358 1.74481881 -0.646490097
v -0.41531235 1.74656343 -0.662163556
v -0.34108603 2.56327009 -0.607536554
v -0.358441949 2.56501484 -0.641437888
v -0.379707187 1.74656343 -0.680391431
v -0.292770088 1.7512877 -0.430415422
v -0.29344517 2.5646503 -0.43455255
v -0.259511411 2.5646503 -0.451924682
v -0.274542183 1.7512877 -0.394810021
v -0.258836389 1.7512877 -0.447787553
v -0.275217175 2.5646503 -0.39894709
v -0.241283417 2.5646503 -0.41631946
v -0.240608454 1.7512877 -0.412182301
v -0.153058425 1.75266778 -0.169547886
v -0.179754868 2.5650146 -0.204625741
v -0.197110519 2.56326985 -0.238527343
v -0.117453113 1.75266778 -0.187775716
v -0.170414314 1.75092292 -0.203449011
v -0.144149542 2.5650146 -0.22285381
v -0.161505118 2.56326985 -0.256755561
v -0.134809002 1.75092292 -0.221677169
v -0.764315486 1.44434512 -1.4430052
v -0.75371182 2.6304903 -1.54431546
v -0.766042173 1.44434476 -1.55546212
v -0.645073831 1.44434476 -1.55701411
v -0.657057047 2.6304903 -1.54555583
v -0.752331972 2.6304903 -1.45446146
v -0.704694629 2.66356277 -1.5000087
v -0.655677199 2.6304903 -1.45570147
v -0.643346548 1.44434476 -1.44455731
g submesh0
f 1 2 3
f 4 2 1
f 1 3 5
f 5 3 6
f 6 4 7
f 4 1 7
f 6 7 8
f 5 6 8
f 9 7 1
f 9 8 7
f 10 1 5
f 9 1 10
f 11 5 8
f 10 5 11
f 9 12 8
f 11 8 12
f 11 13 10
f 10 14 9
f 10 13 14
f 9 15 12
f 9 14 15
f 12 16 11
f 11 16 13
f 12 15 16
f 13 17 14
f 17 15 14
f 13 18 17
f 16 18 13
f 17 19 15
f 19 16 15
f 16 20 18
f 19 20 16
f 21 22 23
f 24 22 21
f 21 23 25
f 25 23 26
f 26 24 27
f 24 21 27
f 26 27 28
f 25 26 28
f 29 27 21
f 29 28 27
f 30 21 25
f 29 21 30
f 31 25 28
f 30 25 31
f 29 32 28
f 31 28 32
f 31 33 30
f 30 34 29
f 30 33 34
f 29 35 32
f 29 34 35
f 32 36 31
f 31 36 33
f 32 35 36
f 33 37 34
f 37 35 34
f 33 38 37
f 36 38 33
f 37 39 35
f 39 36 35
f 36 40 38
f 39 40 36
f 41 42 43
f 41 43 44
f 42 45 43
f 46 41 44
f 45 46 47
f 43 45 47
f 47 46 48
f 44 48 46
f 48 49 47
f 43 47 49
f 48 50 49
f 44 50 48
f 43 49 51
f 50 51 49
f 43 51 52
f 53 44 43
f 43 52 54
f 55 51 50
f 44 55 50
f 55 52 51
f 44 56 55
f 55 56 52
f 44 57 56
f 57 52 56
f 57 54 52
f 58 44 53
f 57 59 54
f 43 54 59
f 53 60 58
f 60 44 58
f 57 61 59
f 44 61 57
f 53 62 60
f 43 62 53
f 59 61 63
f 43 59 63
f 62 64 60
f 44 60 64
f 63 61 65
f 44 65 61
f 66 64 62
f 43 66 62
f 67 63 65
f 43 63 67
f 44 64 68
f 66 68 64
f 44 69 65
f 67 65 69
f 44 68 69
f 43 70 66
f 43 67 70
f 66 70 68
f 67 69 70
f 70 69 68
f 71 72 73
f 71 73 74
f 75 72 71
f 74 73 76
f 74 76 77
f 77 78 75
f 75 78 72
f 77 76 78
f 72 79 73
f 73 79 76
f 76 79 78
f 78 79 72
f 80 81 82
f 83 81 80
f 80 82 84
f 83 85 81
f 84 82 86
f 87 85 83
f 84 86 87
f 87 86 85
f 88 89 90
f 91 89 88
f 88 90 92
f 91 93 89
f 92 90 94
f 95 93 91
f 92 94 95
f 95 94 93
f 96 97 98
f 99 97 96
f 96 98 100
f 99 101 97
f 100 98 102
f 103 101 99
f 100 102 103
f 103 102 101
f 104 105 106
f 107 105 104
f 104 106 108
f 107 109 105
f 108 106 110
f 111 109 107
f 108 110 111
f 111 110 109
f 112 113 114
f 115 113 112
f 112 114 116
f 115 117 113
f 116 114 118
f 119 117 115
f 116 118 119
f 119 118 117
f 120 121 122
f 123 121 120
f 120 122 124
f 123 125 121
f 124 122 126
f 127 125 123
f 124 126 127
f 127 126 125
f 128 129 130
f 131 128 130
f 130 129 132
f 130 132 131
f 128 133 129
f 129 134 132
f 133 134 129
f 132 134 135
f 131 132 135
f 135 134 133
f 136 133 128
f 131 136 128
f 131 135 136
f 136 135 133
