# strangler_fig_roots_XS_collision
v 0.327548623 0.0108468626 2.19210196
v -0.241101205 0.0224047843 1.6809684
v -0.00481352303 0.0107884211 2.17423725
v -0.633913934 0.0120269777 1.93629313
v -0.0770892948 0.0187931824 1.6971221
v -0.067521207 0.126264036 0.985611618
v 0.530308187 0.0113626095 1.7504499
v 0.8223629 0.0117198182 2.1052866
v -0.308574378 0.0145425415 1.2728852
v -0.420960307 0.0139801018 0.817277789
v 0.0053128968 0.0111141969 1.3115989
v -0.257185102 0.00750335678 0.885115862
v 0.380309016 0.0123510743 1.25597262
v 0.647979975 0.0149465939 1.57130873
v 0.049683053 0.0726892054 0.922964096
v -0.182186157 0.081514582 0.637877166
v -0.0447051786 0.127678528 0.46340692
v -0.0894963592 0.505013108 0.232508704
v -0.326083094 0.049946744 0.720454514
v 0.122821026 0.0206343066 0.610536397
v 0.0987259671 0.35052824 0.395700186
v -0.0252671838 0.501243293 0.207091436
v 0.736065805 0.00388366682 1.38691723
v 0.499671668 0.039607849 1.21326387
v 0.396994233 0.00429290766 1.1144532
v 0.669441819 0.19610779 1.12780809
v 1.00571167 0.0406898484 1.3686552
v 1.42650342 0.0104501341 1.88709748
v 1.62458217 0.00876113866 1.58739531
v 0.988740385 0.0423588566 1.21808434
v 0.734143674 0.0280905142 0.761891246
v 1.7871058 0.00662094122 1.23158956
v 0.48767066 0.173148036 1.09827173
v 1.14667201 0.0107614137 0.866265774
v 0.336707115 0.212216333 0.720453382
v 0.40378958 0.223157495 0.684596837
v 1.56869447 0.0892817676 0.910996616
v 2.01267624 0.00657531712 0.921766043
v 1.40666103 0.0743028224 0.682564735
v 0.436951131 0.293219894 0.577456832
v 1.11334288 0.00270812982 0.683904529
v 1.55684304 0.0088058468 0.662441015
v 1.36512506 0.00789794885 0.43227163
v 2.31521773 0.0186642446 0.469338149
v 2.04985023 0.0323153697 0.323054522
v 2.19875813 0.0103363032 0.127533108
v 1.07944846 0.0921443179 0.464699149
v 0.864599109 0.076317139 0.593934476
v 0.627871513 0.0611192323 0.481499612
v 0.404747903 0.397112876 0.347587347
v 0.721402705 0.308615714 0.316392869
v 0.821562767 0.235003352 0.410947323
v 1.67658913 0.0797599778 0.184383318
v 1.81385744 0.00948852487 0.019776905
v 1.42459977 0.0111801149 -0.0499474332
v 0.994266272 0.00192596426 0.319773912
v 1.29557359 0.137908325 0.0831642672
v 1.16234958 0.00739456154 -0.0941800401
v 0.994975865 0.216616213 0.078791447
v 0.892208695 0.00666961633 -0.156636015
v 1.39900815 0.00960296579 0.297000587
v 1.16234982 0.135407254 0.133736178
v 1.0077951 -0.00689422572 0.270886928
v 0.882484853 0.0623962395 0.23949863
v 0.899797142 0.0992639139 0.152462736
v 0.744690359 0.294278413 0.219037965
v 0.793824732 0.239137113 0.136268839
v 0.337720722 0.489658952 0.219017476
v 0.289943635 0.520282269 0.117923446
v 0.648110211 0.134466097 0.0830890909
v 0.144891843 0.540391684 0.191676706
v 0.215976417 0.619605064 0.0496806167
v 0.779468775 0.180564567 -0.0182530601
v 0.519550264 0.152789921 -0.0308688022
v 0.491832525 -0.00583923329 -0.154300615
v 0.522038579 0.148428947 0.0197792556
v 0.392856717 0.219591364 0.019779494
v 0.388661981 0.195892021 -0.0370851234
v 0.177731737 0 -0.168946698
v 0.160380691 0.650325477 -0.0534236655
v 0.186755061 0.619596541 0.120344415
v 0.069833681 1.1137768 0.00299962517
v 0.0628412589 0.637371182 -0.130482748
v 0.0926060677 0 -0.215990141
v 0.0496984273 1.1137768 0.0455723591
v 0.0634594634 1.1137768 -0.0337355509
v 0.000274530059 1.1137768 -0.00385125517
v 0.023821719 1.1137768 -0.0696611479
v -0.0167087428 1.1137768 -0.0716522858
v -0.0345076621 0.628871739 -0.133532435
v -0.027935015 0 -0.185983047
v -0.113462903 0.619266629 -0.102508686
v -0.154058889 0 -0.143666372
v -0.345025957 0 -0.145916894
v -0.198156431 0.615035534 -0.0331661403
v -0.0558662787 1.1137768 -0.0454880707
v -0.0613680445 1.1137768 -0.0367998295
v -0.0696212277 1.1137768 -0.00385125517
v -0.374787956 0.318234563 -0.0558262244
v -0.505823553 0.229547724 -0.0560394898
v -0.621241152 0.000915222161 -0.137162983
v -1.02814424 0.140013725 0.0197795965
v -1.40884686 0.00995971635 -0.119502157
v -0.640598297 0.380310953 0.0197798237
v -0.329282522 0.489147931 0.0569350086
v -0.23128891 0.619882166 0.0501705743
v -1.28650749 0.109221801 0.0197794549
v -2.05911016 0.010672302 0.121193901
v -1.90236461 0.00856201164 0.260072827
v -0.889175177 0.0236656182 0.152462244
v -0.639820218 0.362869263 0.0514719747
v -0.316118628 0.531653762 0.132801473
v -0.19686605 0.619912267 0.121649705
v -1.00828683 0.0506603979 0.221394762
v -1.82734275 0.0228796378 0.464904726
v -0.754887223 0.117823638 0.170991108
v -0.421932429 0.485396564 0.143396869
v -0.949477494 0.197636098 0.415264398
v -0.591431856 0.438489527 0.266957939
v -0.0629105493 1.1137768 0.0260329638
v -0.174755022 0.564662158 0.154948965
v -0.29252404 0.519743621 0.189764157
v -0.836800337 0.0551531985 0.612098098
v -0.564330518 0.398769826 0.324258715
v -0.0356590822 1.1137768 0.0561003536
v -0.00657638675 1.1137768 0.0657079592
v 0.0754911974 0.5403561 0.231573269
v -0.254948854 0.423056006 0.30693239
v -0.568994105 0.0594842508 0.540299237
v -0.379456848 0.26146698 0.538579285
v -0.568354011 0.150466457 0.718792379
v -0.497076124 0.118692167 0.771655738
v -0.816797912 0.00189483643 0.841887891
v -0.658816516 0.0116445916 1.12781
v -0.841178417 0.0971852094 1.16113818
v -0.858054817 0.0404107645 1.46021903
v -1.10877144 0.0114216609 1.71570718
v -1.04758191 0.0125105279 0.974064767
v -1.78896558 0.00946838316 0.831002533
v -1.1360482 0.0199826043 0.86626792
v -1.13397241 0.0597676076 0.62873745
v -1.06882608 0.151366875 0.464700162
v -1.42687201 0.0737707466 0.613006473
v -1.23088324 0.00348251336 0.394772679
g submesh0
f 1 2 3
f 4 3 2
f 2 1 5
f 5 6 2
f 5 1 7
f 8 7 1
f 2 9 4
f 9 2 6
f 9 10 4
f 11 6 5
f 7 11 5
f 10 9 12
f 12 9 6
f 7 13 11
f 8 14 7
f 14 13 7
f 15 6 11
f 11 13 15
f 6 16 12
f 6 15 17
f 16 6 17
f 17 18 16
f 18 19 16
f 19 12 16
f 12 19 10
f 19 18 10
f 13 20 15
f 20 17 15
f 17 20 21
f 21 22 17
f 18 17 22
f 8 23 14
f 13 14 24
f 23 24 14
f 13 24 25
f 25 20 13
f 26 25 24
f 24 23 26
f 27 23 8
f 28 27 8
f 29 27 28
f 23 27 30
f 29 30 27
f 30 26 23
f 30 31 26
f 32 30 29
f 20 25 33
f 25 26 33
f 30 32 34
f 34 31 30
f 20 33 35
f 35 21 20
f 33 26 36
f 36 35 33
f 31 36 26
f 36 21 35
f 32 37 34
f 38 37 32
f 34 37 39
f 37 38 39
f 36 31 40
f 21 36 40
f 41 31 34
f 39 41 34
f 42 39 38
f 39 42 43
f 44 42 38
f 42 44 45
f 45 43 42
f 46 45 44
f 46 43 45
f 41 39 47
f 43 47 39
f 41 48 31
f 48 41 47
f 40 31 49
f 49 31 48
f 21 40 50
f 49 50 40
f 51 50 49
f 49 48 52
f 48 47 52
f 49 52 51
f 52 47 51
f 43 46 53
f 53 46 54
f 53 54 55
f 47 43 56
f 56 51 47
f 55 57 53
f 57 55 58
f 58 59 57
f 60 59 58
f 53 61 43
f 61 56 43
f 62 53 57
f 61 53 62
f 62 57 59
f 56 61 63
f 62 63 61
f 63 64 56
f 51 56 64
f 62 65 63
f 65 64 63
f 59 65 62
f 51 64 66
f 65 66 64
f 59 67 65
f 67 66 65
f 66 68 51
f 51 68 50
f 69 66 67
f 69 68 66
f 67 59 70
f 69 67 70
f 71 50 68
f 50 71 21
f 69 72 68
f 69 70 72
f 70 59 73
f 60 73 59
f 73 60 74
f 74 60 75
f 73 76 70
f 74 76 73
f 76 77 70
f 74 77 76
f 72 70 77
f 75 78 74
f 77 74 78
f 75 79 78
f 80 77 78
f 80 78 79
f 80 72 77
f 81 68 72
f 71 68 81
f 72 82 81
f 72 80 82
f 83 80 79
f 83 79 84
f 81 85 71
f 85 81 82
f 82 80 86
f 80 83 86
f 87 82 86
f 87 85 82
f 87 86 88
f 86 83 88
f 87 88 89
f 88 83 89
f 90 83 84
f 83 90 89
f 90 84 91
f 92 90 91
f 90 92 89
f 92 91 93
f 92 93 94
f 95 92 94
f 89 92 96
f 87 89 96
f 96 92 95
f 87 96 97
f 95 97 96
f 87 97 98
f 97 95 98
f 99 95 94
f 100 99 94
f 94 101 100
f 101 102 100
f 101 103 102
f 100 104 99
f 100 102 104
f 105 95 99
f 99 104 105
f 106 98 95
f 95 105 106
f 107 102 103
f 103 108 107
f 109 107 108
f 109 102 107
f 104 102 110
f 102 109 110
f 111 105 104
f 104 110 111
f 112 106 105
f 105 111 112
f 113 98 106
f 106 112 113
f 110 109 114
f 115 114 109
f 116 111 110
f 114 116 110
f 111 116 117
f 117 112 111
f 118 117 116
f 118 116 114
f 119 112 117
f 119 117 118
f 98 113 120
f 121 120 113
f 87 98 120
f 122 113 112
f 112 119 122
f 121 113 122
f 119 118 123
f 122 123 121
f 119 123 124
f 124 122 119
f 123 122 124
f 87 120 125
f 120 121 125
f 87 125 126
f 87 126 85
f 126 127 85
f 71 85 127
f 127 21 71
f 22 21 127
f 127 126 22
f 125 22 126
f 22 125 18
f 18 125 121
f 121 128 18
f 121 129 128
f 129 121 123
f 18 128 130
f 130 128 129
f 130 10 18
f 129 131 130
f 10 130 132
f 132 130 131
f 131 129 133
f 123 133 129
f 10 132 134
f 4 10 134
f 131 135 132
f 133 135 131
f 134 132 135
f 4 134 136
f 135 136 134
f 136 137 4
f 136 135 137
f 135 133 138
f 137 135 138
f 133 123 138
f 137 138 139
f 138 123 140
f 138 140 139
f 140 123 141
f 140 141 139
f 118 141 123
f 141 118 142
f 142 139 141
f 142 118 114
f 139 142 143
f 139 143 115
f 142 114 144
f 142 144 143
f 144 115 143
f 114 115 144
