# strangler_fig_trunk_SShape_L_collision
v 2.16925383 2.92067194 -0.104436435
v 1.86119366 4.04345274 -0.104436368
v 1.88726449 4.05123281 -0.131643414
v 2.21583056 2.95024872 -0.157526016
v 1.91333532 4.05901289 -0.104436375
v 1.88726449 4.05123281 -0.0772293285
v 2.26240706 2.97982526 -0.104436435
v 2.21583056 2.95024872 -0.0513468571
v 2.43376088 2.64884663 0.0239009298
v 2.48675323 2.70814753 -0.0556273609
v 2.53974533 2.76744843 0.0239009373
v 2.48675323 2.70814753 0.103429221
v 2.18280387 5.68518782 -0.166953713
v 2.14519048 6.38974953 -0.166953757
v 2.16971588 6.39154482 -0.191544741
v 2.22159481 5.68253422 -0.205447629
v 2.19424129 6.39333963 -0.166953757
v 2.16971588 6.39154482 -0.142362759
v 2.26038575 5.67988014 -0.166953713
v 2.22159481 5.68253422 -0.128459841
v 1.9278183 4.59087324 -0.126257896
v 1.99102211 4.59884262 -0.186419517
v 2.05422592 4.606812 -0.126257896
v 1.99102211 4.59884262 -0.0660962835
v 2.30905175 3.82291484 -0.11784479
v 2.3541739 3.8667748 -0.177757531
v 2.39929628 3.91063476 -0.11784479
v 2.3541739 3.8667748 -0.0579320528
v 2.58652067 3.65014386 -5.46713579E-07
v 2.6250968 3.72266674 -0.0821449012
v 2.66367269 3.79518962 -5.39532266E-07
v 2.6250968 3.72266674 0.0821438283
v 3.48385358 5.3167429 -0.0825491771
v 4.26961565 7.40088129 -0.0825491399
v 4.30251265 7.38877058 -0.117604375
v 3.53009415 5.29056072 -0.134987876
v 4.33540916 7.37666082 -0.0825491399
v 4.30251265 7.38877058 -0.0474939011
v 3.57633471 5.26437855 -0.0825491771
v 3.53009415 5.29056072 -0.0301104728
v 3.10064721 4.84816217 -0.0676505044
v 3.14964938 4.81788683 -0.124806732
v 3.19865131 4.78761101 -0.067650497
v 3.14964938 4.81788683 -0.0104942638
v 2.61893392 3.81649303 -3.71266935E-07
v 2.68273973 3.79760313 -0.0658801347
v 2.74654555 3.77871275 -3.65676186E-07
v 2.68273973 3.79760313 0.0658793971
v 2.45570946 2.76699185 0.0239009764
v 2.52710342 2.74273348 -0.0502691008
v 2.59849715 2.71847534 0.0239009801
v 2.52710342 2.74273348 0.0980710685
v 2.10611987 2.15185714 -3.99490887E-07
v 2.16395164 2.09136581 -0.0799685195
v 2.2217834 2.03087497 -3.93920118E-07
v 2.16395164 2.09136581 0.0799677297
v 1.22681367 1.72083139 -0.082292892
v 1.27624714 1.64751387 -0.169977397
v 1.32568061 1.57419634 -0.0822928771
v 1.27624714 1.64751387 0.00539166061
v 0.0596333295 0.706857741 0.0475319326
v 0.15220581 0.656051755 -0.0518056527
v 0.24477829 0.605245829 0.0475319363
v 0.15220581 0.656051755 0.146869555
v -0.127863154 -0.0437722765 -4.45306341E-07
v -0.0234555043 -0.0601791367 -0.105689354
v 0.0809521452 -0.0765859932 -4.36066756E-07
v -0.0234555043 -0.0601791367 0.105688475
v 0.124631882 3.00174403 -0.108388901
v 0.530674756 3.782269 -0.108388878
v 0.558811486 3.76612473 -0.140828028
v 0.169498667 2.98483443 -0.155720159
v 0.586948097 3.74998093 -0.108388878
v 0.558811486 3.76612473 -0.0759497061
v 0.214365378 2.96792507 -0.108388901
v 0.169498667 2.98483443 -0.0610576198
v -0.16794464 1.68141472 -0.108388945
v -0.095659785 1.67633522 -0.180242613
v -0.0233749393 1.67125571 -0.108388938
v -0.095659785 1.67633522 -0.0365352705
v -0.150447845 1.26910174 -0.108388968
v -0.0726025403 1.29012597 -0.187348932
v 0.00524292002 1.31115043 -0.108388945
v -0.0726025403 1.29012597 -0.0294289589
v 0.118002012 0.713453829 0.0475320555
v 0.198320389 0.754044771 -0.0424604826
v 0.278638691 0.794635773 0.047532063
v 0.198320314 0.754044771 0.13752462
v 1.44933212 3.14938664 -0.107861027
v 1.9428544 4.28651428 -0.107860975
v 1.96796489 4.27604103 -0.135068029
v 1.48952675 3.12894249 -0.152828023
v 1.99307537 4.26556826 -0.107860975
v 1.96796489 4.27604103 -0.0806539208
v 1.52972138 3.10849857 -0.10786102
v 1.48952675 3.12894249 -0.0628940165
v 1.06157207 2.530936 -0.107861049
v 1.11484635 2.51216078 -0.163140222
v 1.1681205 2.49338579 -0.107861057
v 1.11484635 2.51216078 -0.0525818877
v 0.987319946 2.02315974 -0.107861079
v 1.05143893 2.03372288 -0.170036584
v 1.11555791 2.04428577 -0.107861079
v 1.05143893 2.03372288 -0.0456855483
v 1.20278144 1.57084346 -0.0822928622
v 1.26471853 1.60139918 -0.151356906
v 1.32665551 1.63195491 -0.0822928473
v 1.26471853 1.60139918 -0.0132288057
g submesh0
f 1 2 3
f 1 3 4
f 5 3 2
f 4 3 5
f 5 2 6
f 7 5 6
f 4 5 7
f 8 6 2
f 8 2 1
f 7 6 8
f 9 1 4
f 10 4 7
f 9 4 10
f 10 7 11
f 11 7 8
f 11 9 10
f 12 8 1
f 11 8 12
f 12 1 9
f 11 12 9
f 13 14 15
f 13 15 16
f 17 15 14
f 16 15 17
f 17 14 18
f 19 17 18
f 16 17 19
f 20 18 14
f 20 14 13
f 19 18 20
f 21 13 16
f 22 16 19
f 21 16 22
f 23 19 20
f 22 19 23
f 24 20 13
f 24 13 21
f 23 20 24
f 25 21 22
f 26 22 23
f 25 22 26
f 27 23 24
f 26 23 27
f 28 24 21
f 28 21 25
f 27 24 28
f 29 25 26
f 30 26 27
f 29 26 30
f 30 27 31
f 31 27 28
f 31 29 30
f 32 28 25
f 31 28 32
f 32 25 29
f 31 32 29
f 33 34 35
f 33 35 36
f 37 35 34
f 36 35 37
f 37 34 38
f 39 37 38
f 36 37 39
f 40 38 34
f 40 34 33
f 39 38 40
f 41 33 36
f 42 36 39
f 41 36 42
f 43 39 40
f 42 39 43
f 44 40 33
f 44 33 41
f 43 40 44
f 45 41 42
f 46 42 43
f 45 42 46
f 47 43 44
f 46 43 47
f 48 44 41
f 48 41 45
f 47 44 48
f 49 45 46
f 50 46 47
f 49 46 50
f 51 47 48
f 50 47 51
f 52 48 45
f 52 45 49
f 51 48 52
f 53 49 50
f 54 50 51
f 53 50 54
f 55 51 52
f 54 51 55
f 56 52 49
f 56 49 53
f 55 52 56
f 57 53 54
f 58 54 55
f 57 54 58
f 59 55 56
f 58 55 59
f 60 56 53
f 60 53 57
f 59 56 60
f 61 57 58
f 62 58 59
f 61 58 62
f 63 59 60
f 62 59 63
f 64 60 57
f 64 57 61
f 63 60 64
f 65 61 62
f 66 62 63
f 65 62 66
f 66 63 67
f 67 63 64
f 67 65 66
f 68 64 61
f 67 64 68
f 68 61 65
f 67 68 65
f 69 70 71
f 69 71 72
f 73 71 70
f 72 71 73
f 73 70 74
f 75 73 74
f 72 73 75
f 76 74 70
f 76 70 69
f 75 74 76
f 77 69 72
f 78 72 75
f 77 72 78
f 79 75 76
f 78 75 79
f 80 76 69
f 80 69 77
f 79 76 80
f 81 77 78
f 82 78 79
f 81 78 82
f 83 79 80
f 82 79 83
f 84 80 77
f 84 77 81
f 83 80 84
f 85 81 82
f 86 82 83
f 85 82 86
f 86 83 87
f 87 83 84
f 87 85 86
f 88 84 81
f 87 84 88
f 88 81 85
f 87 88 85
f 89 90 91
f 89 91 92
f 93 91 90
f 92 91 93
f 93 90 94
f 95 93 94
f 92 93 95
f 96 94 90
f 96 90 89
f 95 94 96
f 97 89 92
f 98 92 95
f 97 92 98
f 99 95 96
f 98 95 99
f 100 96 89
f 100 89 97
f 99 96 100
f 101 97 98
f 102 98 99
f 101 98 102
f 103 99 100
f 102 99 103
f 104 100 97
f 104 97 101
f 103 100 104
f 105 101 102
f 106 102 103
f 105 102 106
f 106 103 107
f 107 103 104
f 107 105 106
f 108 104 101
f 107 104 108
f 108 101 105
f 107 108 105
