# submarine_greeble_300x200_02_outercorner_90bend_COL
v -1.20013523 0.00998829026 0.832741678
v -1.65712368 0.0099882884 0.885602295
v -1.44518983 0.00998829957 0.627116621
v -1.41650569 0.00998828374 0.980906487
v -1.41650569 0.14762339 0.980906487
v -1.65712368 0.2079124 0.885602295
v -1.65712368 0.0099882884 0.885602295
v -1.20013523 0.2079124 0.832741678
v -1.44518983 0.207912415 0.627116621
v -1.41650569 0.14762339 0.980906487
v -1.20013523 0.00998829026 0.832741678
v -1.20013523 0.2079124 0.832741678
v -1.41650569 0.14762339 0.980906487
v -1.41650569 0.00998828374 0.980906487
v -1.20013535 1.26829982 0.832741737
v -1.65712368 1.26829982 0.885602415
v -1.44518983 1.26829982 0.627116621
v -1.41650569 1.26829982 0.980906606
v -1.41650569 1.50692797 0.980906606
v -1.65712368 1.50692797 0.885602415
v -1.65712368 1.26829982 0.885602415
v -1.20013523 1.50692797 0.832741737
v -1.44518983 1.50692797 0.62711668
v -1.41650569 1.50692797 0.980906606
v -1.20013535 1.26829982 0.832741737
v -1.20013523 1.50692797 0.832741737
v -1.41650569 1.50692797 0.980906606
v -1.41650569 1.26829982 0.980906606
v -1.43888271 0.332652241 0.751649678
v -1.35474837 0.332652241 0.70300591
v -1.44518983 0.332652241 0.627116621
v -1.5180769 0.332652241 0.713980138
v -1.43888271 0.207744569 0.751649678
v -1.43888271 0.332652241 0.751649678
v -1.5180769 0.207744569 0.713980138
v -1.35474837 0.207744569 0.70300591
v -1.35474837 0.332652241 0.70300591
v -1.43888271 0.332652241 0.751649678
v -1.43888271 0.207744569 0.751649678
v -1.33656597 1.53383613 0.718262851
v -1.53506112 1.53383613 0.73422128
v -1.44518983 1.53383613 0.62711668
v -1.43559003 1.53383613 0.778490484
v -1.42006743 1.77044582 0.874292374
v -1.53506112 1.53383613 0.73422128
v -1.5705713 1.74680758 0.776540756
v -1.53978777 2.00726533 0.739854097
v -1.43309188 2.00726533 0.775347531
v -1.3263154 2.00726533 0.726863921
v -1.44518983 2.00726533 0.62711668
v -1.43309188 2.00726533 0.775347531
v -1.42006743 1.77044582 0.874292374
v -1.3263154 2.00726533 0.726863921
v -1.43309188 2.00726533 0.775347531
v -1.29454434 1.74466002 0.753523111
v -1.33656597 1.53383613 0.718262851
v -1.43559003 1.53383613 0.778490484
v -1.20013535 0.404695988 0.832741678
v -1.65712368 0.404695988 0.885602295
v -1.44518983 0.404695988 0.627116621
v -1.41650569 0.404695988 0.980906487
v -1.41650569 0.700748146 0.980906487
v -1.65712368 0.700748146 0.885602295
v -1.65712368 0.404695988 0.885602295
v -1.20013523 0.700748146 0.832741678
v -1.44518983 0.700748146 0.627116621
v -1.41650569 0.700748146 0.980906487
v -1.20013535 0.404695988 0.832741678
v -1.20013523 0.700748146 0.832741678
v -1.41650569 0.700748146 0.980906487
v -1.41650569 0.404695988 0.980906487
v 1.26211059 0.0099882884 0.869805455
v 1.48831117 0.00998829864 0.643604875
v 1.72196746 0.0099882884 0.882635951
v 1.49057126 0.00998828374 0.998548687
v 1.72196746 0.0099882884 0.882635951
v 1.72196746 0.2079124 0.882635772
v 1.49057126 0.14762339 0.998548567
v 1.26211083 0.2079124 0.869805455
v 1.48831117 0.207912415 0.643604875
v 1.49057126 0.14762339 0.998548567
v 1.26211059 0.0099882884 0.869805455
v 1.49057126 0.00998828374 0.998548687
v 1.49057126 0.14762339 0.998548567
v 1.26211083 0.2079124 0.869805455
v 1.26211083 1.26829982 0.869805515
v 1.48831141 1.26829982 0.643604934
v 1.72196746 1.26829982 0.882635832
v 1.49057162 1.26829982 0.998548627
v 1.72196746 1.26829982 0.882635832
v 1.72196746 1.50692797 0.882635832
v 1.49057162 1.50692797 0.998548627
v 1.26211083 1.50692797 0.869805515
v 1.49057162 1.50692797 0.998548627
v 1.48831141 1.50692797 0.643604934
v 1.26211083 1.26829982 0.869805515
v 1.49057162 1.26829982 0.998548627
v 1.49057162 1.50692797 0.998548627
v 1.26211083 1.50692797 0.869805515
v 1.48831141 0.332652241 0.643604875
v 1.40482819 0.332652241 0.727087855
v 1.49288177 0.332652241 0.768213809
v 1.56849182 0.332652241 0.7237854
v 1.49288177 0.207744554 0.768213928
v 1.56849146 0.207744569 0.7237854
v 1.49288177 0.332652241 0.768213809
v 1.40482819 0.207744569 0.727087855
v 1.49288177 0.207744554 0.768213928
v 1.49288177 0.332652241 0.768213809
v 1.40482819 0.332652241 0.727087855
v 1.38804471 1.53383613 0.743871391
v 1.48831141 1.53383613 0.643604934
v 1.58717561 1.53383613 0.742469072
v 1.49194121 1.53383613 0.795239449
v 1.48482728 1.77044582 0.892029643
v 1.58717561 1.53383613 0.742469072
v 1.62623894 1.74680758 0.781532526
v 1.5923748 2.00726533 0.747668684
v 1.48917878 2.00726533 0.792326093
v 1.37858307 2.00726533 0.753333211
v 1.48917878 2.00726533 0.792326093
v 1.48831141 2.00726533 0.643604934
v 1.48482728 1.77044582 0.892029643
v 1.48917878 2.00726533 0.792326093
v 1.37858307 2.00726533 0.753333211
v 1.34925628 1.74466002 0.782659948
v 1.38804471 1.53383613 0.743871391
v 1.49194121 1.53383613 0.795239449
v 1.26211083 0.404695988 0.869805455
v 1.48831141 0.404695988 0.643604875
v 1.72196746 0.404695988 0.882635772
v 1.49057126 0.404695988 0.998548567
v 1.72196746 0.404695988 0.882635772
v 1.72196746 0.700748146 0.882635951
v 1.49057126 0.700748026 0.998548567
v 1.26211083 0.700748146 0.869805455
v 1.49057126 0.700748026 0.998548567
v 1.48831141 0.700748146 0.643604934
v 1.26211083 0.404695988 0.869805455
v 1.49057126 0.404695988 0.998548567
v 1.49057126 0.700748026 0.998548567
v 1.26211083 0.700748146 0.869805455
vt 1 0
vt 0 1
vt 1 1
vt 0 0
vt 0 1
vt 1 1
vt 1 0
vt 0 0
vt 0 1
vt 1 0
vt 0 0
vt 0 1
vt 1 1
vt 1 0
vt 1 0
vt 0 1
vt 1 1
vt 0 0
vt 0 1
vt 1 1
vt 1 0
vt 0 0
vt 0 1
vt 1 0
vt 0 0
vt 0 1
vt 1 1
vt 1 0
vt 1 0
vt 0 0
vt 0 1
vt 1 1
vt 0 0
vt 0 1
vt 1 0
vt 0 0
vt 0 1
vt 1 1
vt 1 0
vt 1 0
vt 0 1
vt 1 1
vt 0 0
vt 0 0.581046224
vt 1 0
vt 1 0.449848354
vt 1 1
vt 0 1
vt 0 0
vt 0 1
vt 1 0
vt 1 0.581046224
vt 0 1
vt 1 1
vt 0 0.445312202
vt 0 0
vt 1 0
vt 1 0
vt 0 1
vt 1 1
vt 0 0
vt 0 1
vt 1 1
vt 1 0
vt 0 0
vt 0 1
vt 1 0
vt 0 0
vt 0 1
vt 1 1
vt 1 0
vt 1 0
vt 1 1
vt 0 1
vt 0 0
vt 1 0
vt 1 1
vt 0 1
vt 0 0
vt 0 1
vt 1 0
vt 0 0
vt 1 0
vt 1 1
vt 0 1
vt 1 0
vt 1 1
vt 0 1
vt 0 0
vt 1 0
vt 1 1
vt 0 1
vt 0 0
vt 1 0
vt 0 1
vt 0 0
vt 1 0
vt 1 1
vt 0 1
vt 0 1
vt 0 0
vt 1 0
vt 1 1
vt 0 0
vt 1 0
vt 0 1
vt 0 0
vt 1 0
vt 1 1
vt 0 1
vt 1 0
vt 1 1
vt 0 1
vt 0 0
vt 0 0.581046224
vt 1 0
vt 1 0.449848354
vt 1 1
vt 0 1
vt 0 0
vt 1 0
vt 0 1
vt 1 0.581046224
vt 1 1
vt 0 1
vt 0 0.445312202
vt 0 0
vt 1 0
vt 1 0
vt 1 1
vt 0 1
vt 0 0
vt 1 0
vt 1 1
vt 0 1
vt 0 0
vt 1 0
vt 0 1
vt 0 0
vt 1 0
vt 1 1
vt 0 1
g submesh0
f 1/1 2/2 3/3
f 1/1 4/4 2/2
f 4/4 5/5 6/6
f 4/4 6/6 7/7
f 8/8 9/9 6/6
f 8/8 6/6 10/10
f 11/11 12/12 13/13
f 11/11 13/13 14/14
f 15/15 16/16 17/17
f 15/15 18/18 16/16
f 18/18 19/19 20/20
f 18/18 20/20 21/21
f 22/22 23/23 20/20
f 22/22 20/20 24/24
f 25/25 26/26 27/27
f 25/25 27/27 28/28
f 29/29 30/30 31/31
f 29/29 31/31 32/32
f 33/33 34/34 32/32
f 33/33 32/32 35/35
f 36/36 37/37 38/38
f 36/36 38/38 39/39
f 40/40 41/41 42/42
f 40/40 43/43 41/41
f 44/44 45/45 43/43
f 44/44 46/46 45/45
f 44/44 47/47 46/46
f 47/47 44/44 48/48
f 49/49 50/50 47/47
f 49/49 47/47 51/51
f 52/52 53/53 54/54
f 52/52 55/55 53/53
f 55/55 52/52 56/56
f 56/56 52/52 57/57
f 58/58 59/59 60/60
f 58/58 61/61 59/59
f 61/61 62/62 63/63
f 61/61 63/63 64/64
f 65/65 66/66 63/63
f 65/65 63/63 67/67
f 68/68 69/69 70/70
f 68/68 70/70 71/71
f 72/72 73/73 74/74
f 72/72 74/74 75/75
f 75/75 76/76 77/77
f 75/75 77/77 78/78
f 79/79 77/77 80/80
f 79/79 81/81 77/77
f 82/82 83/83 84/84
f 82/82 84/84 85/85
f 86/86 87/87 88/88
f 86/86 88/88 89/89
f 89/89 90/90 91/91
f 89/89 91/91 92/92
f 93/93 94/94 91/91
f 93/93 91/91 95/95
f 96/96 97/97 98/98
f 96/96 98/98 99/99
f 100/100 101/101 102/102
f 100/100 102/102 103/103
f 104/104 105/105 103/103
f 104/104 103/103 106/106
f 107/107 108/108 109/109
f 107/107 109/109 110/110
f 111/111 112/112 113/113
f 111/111 113/113 114/114
f 115/115 114/114 116/116
f 115/115 116/116 117/117
f 115/115 117/117 118/118
f 118/118 119/119 115/115
f 120/120 121/121 118/118
f 120/120 118/118 122/122
f 123/123 124/124 125/125
f 123/123 125/125 126/126
f 126/126 127/127 123/123
f 127/127 128/128 123/123
f 129/129 130/130 131/131
f 129/129 131/131 132/132
f 132/132 133/133 134/134
f 132/132 134/134 135/135
f 136/136 137/137 134/134
f 136/136 134/134 138/138
f 139/139 140/140 141/141
f 139/139 141/141 142/142
