# SubmarineEndCap_COL
v -0.00114932808 -0.124244533 0.422673702
v -0.00114935974 -0.124244533 0.00267370627
v 0.268028945 -0.0707015917 0.00267405203
v -0.270327687 -0.0707016811 0.00267409254
v -0.270327657 -0.0707016811 0.42267409
v 0.268028975 -0.0707015917 0.42267406
v 0.688731909 0.716378868 0.0026806118
v -0.691031039 0.716378689 0.0026807161
v -0.586002588 0.969939232 0.00268675084
v 0.496227473 0.0817758068 0.00267458404
v 0.648704886 0.309974372 0.00267622084
v -0.13837494 1.26903427 0.00265925098
v -0.498526156 0.0817756429 0.00267465925
v 0.496227533 0.0817758068 0.422674596
v 0.238473833 0.00064219546 0.590516806
v 0.441616654 0.136377946 0.590516925
v 0.648704886 0.309974372 0.422676235
v 0.688732028 0.441926867 0.00267731631
v 0.577352464 0.339520872 0.590517461
v 0.688732147 0.441926867 0.422677338
v 0.612984717 0.456985235 0.590517819
v 0.46031183 0.487362385 0.667401016
v 0.178903803 0.14446564 0.667400956
v 0.390058279 0.840549588 0.667401135
v -0.435836315 0.39909929 0.667401195
v 0.612984717 0.701303065 0.590518951
v -0.00114932738 -0.0470218807 0.590516448
v 0.688731968 0.716378868 0.422680616
v -0.181202516 0.144465551 0.667400956
v -0.240772471 0.000642117462 0.590516806
v -0.443915367 0.136377811 0.590517104
v -0.498526096 0.0817756429 0.422674626
v 0.519488156 0.927023292 0.590520382
v -0.579651117 0.339520663 0.590517581
v -0.651003718 0.309974104 0.00267631887
v -0.651003659 0.309974104 0.422676355
v -0.627315164 0.579143941 0.590518296
v -0.704546571 0.579152644 0.00267888629
v -0.704546511 0.579152644 0.422678888
v 0.583703637 0.96993947 0.422686696
v 0.34672913 1.09978187 0.59051168
v 0.583703578 0.96993947 0.0026866626
v 0.389636576 1.16400611 0.422655016
v 0.389636517 1.16400611 0.00265499996
v 0.13607578 1.26903427 0.00265923049
v -0.615283549 0.701302826 0.590519071
v -0.69103092 0.716378689 0.422680736
v -0.65100354 0.848331034 0.00268346001
v -0.65100354 0.848331034 0.422683507
v -0.462610573 0.670942962 0.667401195
v -0.521787047 0.927023113 0.590520501
v -0.262546003 0.970360696 0.667401254
v -0.586002529 0.969939232 0.422686756
v -0.349028111 1.09978175 0.59051168
v 0.0906404257 1.04061389 0.667401254
v -0.391935647 1.16400611 0.422655046
v -0.123307884 1.19327819 0.59051311
v 0.121008784 1.19327819 0.59051311
v -0.391935676 1.16400611 0.00265505863
v -0.13837491 1.26903427 0.422659248
v 0.13607581 1.26903427 0.422659248
vn 1.87160637E-07 -0.851119101 0.524972618
vn -0.357239902 -0.664589763 -0.656277359
vn 0.358941555 -0.866556466 -0.346757621
vn -0.514240921 -0.538740754 -0.667319059
vn -0.591771543 -0.777704 0.212091878
vn 0.0413908623 -0.976800442 0.210113212
vn 0.733675122 -0.127863452 -0.667361796
vn -0.869572163 0.172981039 -0.462516755
vn -0.390531629 0.631804228 -0.669558465
vn 0.29955399 -0.681993544 -0.667197168
vn 0.482942969 -0.569638968 -0.66503942
vn 0.227652982 0.720319211 -0.655220866
vn -0.66352123 -0.663517296 -0.345664918
vn 0.632933438 -0.63294363 0.445844829
vn 0.235294819 -0.552361727 0.799707949
vn 0.435500681 -0.557367146 0.706881285
vn 0.726477087 -0.654384255 0.209790736
vn 0.875911593 -0.129920989 -0.464649796
vn 0.57996285 -0.405850172 0.706348956
vn 0.892105758 -0.128212273 0.433253765
vn 0.661946535 -0.234109521 0.712053061
vn 0.36643675 -0.0832206309 0.926713705
vn 0.194015816 -0.0956884027 0.976320446
vn 0.306993514 0.205122545 0.929343641
vn -0.325828552 -0.148437902 0.933703423
vn 0.718182683 0.0543112718 0.693731844
vn 0.0868151411 -0.715000451 0.693712771
vn 0.975330949 -0.061069753 0.212132052
vn -0.187953442 -0.127985507 0.973803461
vn -0.386492401 -0.595416248 0.704346001
vn -0.553962827 -0.553963721 0.621489644
vn -0.886614859 -0.412048459 0.210071951
vn 0.508549631 0.495219857 0.704368114
vn -0.693348348 -0.170688018 0.700095356
vn -0.866981626 -0.359109372 -0.345518976
vn -0.786329865 -0.325746834 0.524951696
vn -0.723141968 0.0172087569 0.69048512
vn -0.707026303 0.221110404 -0.671732068
vn -0.959619284 0.186043218 0.21099478
vn 0.715620637 0.47815606 0.509169817
vn 0.433633745 0.648990691 0.625118315
vn 0.776216865 0.518611193 -0.358510733
vn 0.740313351 0.637971222 0.211964637
vn 0.615626991 0.420545965 -0.666441679
vn 0.175866082 0.88413012 -0.432879984
vn -0.623429537 0.157106116 0.765932977
vn -0.86851269 0.195525482 0.455472797
vn -0.826223314 0.342252344 -0.447457582
vn -0.769592702 0.599979699 0.218521282
vn -0.226210594 -0.0588545613 0.972298801
vn -0.539284289 0.467178226 0.700654626
vn -0.209090471 0.0892463028 0.973815322
vn -0.624761701 0.749196768 0.219947577
vn -0.346193165 0.51811707 0.782115698
vn 0.159380928 0.162224844 0.973797143
vn -0.458422452 0.686044097 0.564971209
vn -0.152844697 0.768366396 0.621491432
vn 0.156352371 0.786096454 0.598002017
vn -0.529358864 0.792175055 -0.303706706
vn 0.15122208 0.965919614 0.21007438
vn 0.429568857 0.877773285 0.212095812
g submesh0
f 1//1 2//2 3//3
f 1//1 4//4 2//2
f 4//4 3//3 2//2
f 1//1 5//5 4//4
f 1//1 3//3 6//6
f 4//4 7//7 3//3
f 7//7 4//4 8//8
f 9//9 7//7 8//8
f 3//3 7//7 10//10
f 6//6 3//3 10//10
f 10//10 7//7 11//11
f 12//12 7//7 9//9
f 5//5 13//13 4//4
f 13//13 8//8 4//4
f 6//6 10//10 14//14
f 14//14 10//10 11//11
f 15//15 1//1 6//6
f 16//16 6//6 14//14
f 16//16 15//15 6//6
f 14//14 11//11 17//17
f 11//11 7//7 18//18
f 17//17 11//11 18//18
f 19//19 16//16 14//14
f 19//19 14//14 17//17
f 17//17 18//18 20//20
f 20//20 18//18 7//7
f 21//21 19//19 17//17
f 21//21 17//17 20//20
f 16//16 19//19 22//22
f 22//22 19//19 21//21
f 16//16 23//23 15//15
f 23//23 16//16 22//22
f 24//24 23//23 22//22
f 24//24 25//25 23//23
f 26//26 22//22 21//21
f 26//26 21//21 20//20
f 22//22 26//26 24//24
f 23//23 27//27 15//15
f 15//15 27//27 1//1
f 26//26 20//20 28//28
f 20//20 7//7 28//28
f 29//29 27//27 23//23
f 23//23 25//25 29//29
f 1//1 27//27 30//30
f 27//27 29//29 30//30
f 1//1 30//30 5//5
f 29//29 31//31 30//30
f 5//5 30//30 31//31
f 31//31 29//29 25//25
f 5//5 31//31 32//32
f 5//5 32//32 13//13
f 24//24 26//26 33//33
f 33//33 26//26 28//28
f 31//31 25//25 34//34
f 32//32 31//31 34//34
f 32//32 35//35 13//13
f 35//35 8//8 13//13
f 32//32 34//34 36//36
f 32//32 36//36 35//35
f 25//25 37//37 34//34
f 37//37 36//36 34//34
f 36//36 38//38 35//35
f 8//8 35//35 38//38
f 36//36 39//39 38//38
f 37//37 39//39 36//36
f 39//39 8//8 38//38
f 33//33 28//28 40//40
f 33//33 41//41 24//24
f 41//41 33//33 40//40
f 28//28 42//42 40//40
f 28//28 7//7 42//42
f 43//43 40//40 42//42
f 41//41 40//40 43//43
f 7//7 44//44 42//42
f 43//43 42//42 44//44
f 44//44 7//7 45//45
f 43//43 44//44 45//45
f 45//45 7//7 12//12
f 39//39 37//37 46//46
f 39//39 47//47 8//8
f 39//39 46//46 47//47
f 47//47 48//48 8//8
f 9//9 8//8 48//48
f 47//47 49//49 48//48
f 46//46 49//49 47//47
f 49//49 9//9 48//48
f 37//37 50//50 46//46
f 37//37 25//25 50//50
f 49//49 46//46 51//51
f 50//50 51//51 46//46
f 25//25 52//52 50//50
f 51//51 50//50 52//52
f 25//25 24//24 52//52
f 49//49 51//51 53//53
f 49//49 53//53 9//9
f 53//53 51//51 54//54
f 51//51 52//52 54//54
f 52//52 24//24 55//55
f 24//24 41//41 55//55
f 56//56 9//9 53//53
f 53//53 54//54 56//56
f 52//52 57//57 54//54
f 55//55 57//57 52//52
f 56//56 54//54 57//57
f 55//55 41//41 58//58
f 58//58 57//57 55//55
f 58//58 41//41 43//43
f 56//56 59//59 9//9
f 12//12 9//9 59//59
f 56//56 12//12 59//59
f 56//56 57//57 60//60
f 56//56 60//60 12//12
f 58//58 60//60 57//57
f 60//60 45//45 12//12
f 58//58 43//43 61//61
f 58//58 61//61 60//60
f 60//60 61//61 45//45
f 43//43 45//45 61//61
