# submarine_greeble_150x100_04_COL
v 0.749452889 0.453006744 6.67954591E-05
v -0.750833929 1.4378674 6.69989604E-05
v 0.749452889 1.4378674 6.69989604E-05
v -0.750833929 0.453006744 6.67954591E-05
v 0.749452889 1.4378674 6.69989604E-05
v 0.749452889 0.453006744 0.107615888
v 0.749452889 1.39349639 0.107616089
v -0.750833929 0.453006744 0.107615888
v -0.750833929 1.39349639 0.107616089
v -0.750833929 1.4378674 6.69989604E-05
v 0.749452889 0.453006744 0.107615888
v -0.750833929 0.453006744 0.107615888
v 0.749452889 0.453006744 6.67954591E-05
v 0.749452889 0.453006744 0.107615888
v -0.750833929 0.453006744 0.107615888
v -0.750833929 0.453006744 6.67954591E-05
v -0.750833929 1.4378674 6.69989604E-05
v -0.750833929 1.39349639 0.107616089
v 0.749452889 1.39349639 0.107616089
v 0.749452889 1.4378674 6.69989604E-05
v 0.503096998 0.993589461 0.193406507
v 0.114229314 1.32459903 0.193406582
v 0.503096998 1.32459903 0.193406582
v 0.114229314 0.993589461 0.193406507
v 0.503096998 1.32459903 0.193406582
v 0.503096998 0.993589401 0.366622448
v 0.503096998 1.36333251 0.366622597
v 0.114229314 0.993589401 0.366622448
v 0.114229314 1.36333251 0.366622597
v 0.114229314 1.32459903 0.193406582
v 0.503096998 0.993589401 0.366622448
v 0.114229314 0.993589401 0.366622448
v 0.503096998 0.993589461 0.193406507
v 0.503096998 0.993589401 0.366622448
v 0.114229314 0.993589401 0.366622448
v 0.114229314 0.993589461 0.193406507
v 0.114229314 1.32459903 0.193406582
v 0.114229314 1.36333251 0.366622597
v 0.503096998 1.36333251 0.366622597
v 0.503096998 1.32459903 0.193406582
v 0.631164551 1.14078212 0.217351511
v 0.630690396 1.1386205 0.0898846611
v 0.654191852 1.19827342 0.0922121853
v 0.654665947 1.20043504 0.219678715
v 0.591784239 1.21301246 0.09224879
v 0.592258334 1.2151742 0.219715387
v 0.568282783 1.15335941 0.0899214447
v 0.568756878 1.15552127 0.217388153
v 0.630690396 1.1386205 0.0898846611
v 0.631164551 1.14078212 0.217351511
v -0.627129674 1.14078212 0.219346255
v -0.627603769 1.13862026 0.0792017281
v -0.604102254 1.19827318 0.0815291703
v -0.603628159 1.20043504 0.221673489
v -0.666509867 1.21301234 0.0815657899
v -0.666035533 1.21517408 0.221710131
v -0.690011144 1.15335941 0.0792384297
v -0.689537168 1.15552127 0.219382912
v -0.627603769 1.13862026 0.0792017281
v -0.627129674 1.14078212 0.219346255
v -0.602475822 1.16654038 0.234054714
v -0.627129674 1.14078212 0.219346255
v -0.603628159 1.20043504 0.221673489
v -0.604498446 1.11987114 0.278021336
v 0.561374485 1.12203288 0.277547687
v 0.56339705 1.16870201 0.233581081
v 0.568756878 1.15552127 0.217388153
v 0.631164551 1.14078212 0.217351511
v 0.654665947 1.20043504 0.219678715
v 0.562861025 1.17221272 0.317465991
v 0.592258334 1.2151742 0.219715387
v -0.603011787 1.17005098 0.317939639
v -0.689537168 1.15552127 0.219382912
v 0.564883769 1.21888185 0.27349934
v 0.568756878 1.15552127 0.217388153
v 0.56339705 1.16870201 0.233581081
v -0.600988925 1.2167201 0.273972988
v -0.666035533 1.21517408 0.221710131
v -0.602475822 1.16654038 0.234054714
v -0.603628159 1.20043504 0.221673489
v 0.638599932 0.63056463 0.367901295
v 0.514874279 0.888635159 0.289905548
v 0.45775488 0.63056463 0.367901295
v 0.630116403 0.882177591 0.289905518
v 0.638599932 0.63056469 0.106331147
v 0.638599932 0.63056463 0.367901295
v 0.627774775 0.820394278 0.106331177
v 0.694235504 1.0068717 0.106331199
v 0.520307481 0.815936208 0.106331185
v 0.584482968 1.0068717 0.106331199
v 0.45775488 0.63056469 0.106331147
v 0.45775488 0.63056463 0.367901295
v 0.584482968 1.0068717 0.106331199
v 0.514874279 0.888635159 0.289905548
v 0.630116403 0.882177591 0.289905518
v 0.694235504 1.0068717 0.106331199
v 0.420050502 0.78623718 0.271044344
v 0.167458817 0.991598308 0.31585443
v 0.184215546 0.78623718 0.271044344
v 0.446083218 0.991598308 0.31585443
v 0.446083218 0.99383992 0.105731018
v 0.420050502 0.78623718 0.271044344
v 0.414867252 0.71943152 0.105730921
v 0.191482902 0.71943152 0.105730921
v 0.184215546 0.78623718 0.271044344
v 0.167458817 0.99383992 0.105731018
v 0.414867252 0.71943152 0.105730921
v 0.420050502 0.78623718 0.271044344
v 0.184215546 0.78623718 0.271044344
v 0.191482902 0.71943152 0.105730921
v -0.203608453 0.78623718 0.271044344
v -0.456200093 0.991598308 0.31585446
v -0.43944335 0.78623718 0.271044344
v -0.177575737 0.991598308 0.31585446
v -0.177575737 0.99383992 0.105731018
v -0.203608453 0.78623718 0.271044344
v -0.208791748 0.71943152 0.105730928
v -0.432176054 0.71943152 0.105730928
v -0.43944335 0.78623718 0.271044344
v -0.456200093 0.99383992 0.105731018
v -0.208791748 0.71943152 0.105730928
v -0.203608453 0.78623718 0.271044344
v -0.43944335 0.78623718 0.271044344
v -0.432176054 0.71943152 0.105730928
v -0.0818466768 0.63056469 0.367901295
v 0.098998338 0.63056469 0.367901295
v 0.0418789759 0.888635159 0.289905578
v -0.0733631849 0.882177651 0.289905548
v 0.0364457332 0.815936267 0.106331192
v -0.027729759 1.00687182 0.106331252
v 0.098998338 0.630564809 0.106331117
v 0.098998338 0.63056469 0.367901295
v -0.0818466768 0.630564809 0.106331117
v -0.0818466768 0.63056469 0.367901295
v -0.0710215718 0.820394278 0.106331177
v -0.137482315 1.00687182 0.106331252
v -0.027729759 1.00687182 0.106331252
v -0.137482315 1.00687182 0.106331252
v -0.0733631849 0.882177651 0.289905548
v 0.0418789759 0.888635159 0.289905578
v 0.638599932 0.454590648 0.447484195
v 0.45775488 0.631343603 0.447484344
v 0.45775488 0.454590648 0.447484195
v 0.638599932 0.631343603 0.447484344
v 0.638599932 0.631343663 0.106331185
v 0.638599932 0.454590648 0.447484195
v 0.638599932 0.454590738 0.10633114
v 0.45775488 0.454590738 0.10633114
v 0.45775488 0.454590648 0.447484195
v 0.45775488 0.631343663 0.106331185
v 0.638599932 0.454590738 0.10633114
v 0.638599932 0.454590648 0.447484195
v 0.45775488 0.454590648 0.447484195
v 0.45775488 0.454590738 0.10633114
v 0.45775488 0.631343663 0.106331185
v 0.45775488 0.631343603 0.447484344
v 0.638599932 0.631343603 0.447484344
v 0.638599932 0.631343663 0.106331185
v 0.0988456532 0.454590648 0.447484195
v -0.0819993541 0.631343603 0.447484344
v -0.0819993541 0.454590648 0.447484195
v 0.0988456532 0.631343603 0.447484344
v 0.0988456532 0.631343663 0.106331177
v 0.0988456532 0.454590648 0.447484195
v 0.0988456532 0.454590738 0.106331125
v -0.0819993541 0.454590738 0.106331125
v -0.0819993541 0.454590648 0.447484195
v -0.0819993541 0.631343663 0.106331177
v 0.0988456532 0.454590738 0.106331125
v 0.0988456532 0.454590648 0.447484195
v -0.0819993541 0.454590648 0.447484195
v -0.0819993541 0.454590738 0.106331125
v -0.0819993541 0.631343663 0.106331177
v -0.0819993541 0.631343603 0.447484344
v 0.0988456532 0.631343603 0.447484344
v 0.0988456532 0.631343663 0.106331177
v -0.443839639 0.454590648 0.447484195
v -0.624684691 0.631343603 0.447484344
v -0.624684691 0.454590648 0.447484195
v -0.443839639 0.631343603 0.447484344
v -0.443839639 0.631343663 0.106331177
v -0.443839639 0.454590648 0.447484195
v -0.443839639 0.454590738 0.106331125
v -0.624684691 0.454590738 0.106331125
v -0.624684691 0.454590648 0.447484195
v -0.624684691 0.631343663 0.106331177
v -0.443839639 0.454590738 0.106331125
v -0.443839639 0.454590648 0.447484195
v -0.624684691 0.454590648 0.447484195
v -0.624684691 0.454590738 0.106331125
v -0.624684691 0.631343663 0.106331177
v -0.624684691 0.631343603 0.447484344
v -0.443839639 0.631343603 0.447484344
v -0.443839639 0.631343663 0.106331177
v -0.625152349 0.63056469 0.367901295
v -0.444307327 0.63056469 0.367901295
v -0.501426697 0.888635159 0.289905578
v -0.61666882 0.882177651 0.289905548
v -0.506859899 0.815936267 0.106331192
v -0.571035385 1.00687182 0.106331252
v -0.444307327 0.630564809 0.106331117
v -0.444307327 0.63056469 0.367901295
v -0.625152349 0.630564809 0.106331117
v -0.625152349 0.63056469 0.367901295
v -0.614327252 0.820394278 0.106331177
v -0.680787921 1.00687182 0.106331252
v -0.571035385 1.00687182 0.106331252
v -0.680787921 1.00687182 0.106331252
v -0.61666882 0.882177651 0.289905548
v -0.501426697 0.888635159 0.289905578
v -0.121586338 0.993589461 0.193406507
v -0.510453999 1.32459903 0.193406582
v -0.121586338 1.32459903 0.193406582
v -0.510453999 0.993589461 0.193406507
v -0.121586338 1.32459903 0.193406582
v -0.121586338 0.993589401 0.366622448
v -0.121586338 1.36333251 0.366622597
v -0.510453999 0.993589401 0.366622448
v -0.510453999 1.36333251 0.366622597
v -0.510453999 1.32459903 0.193406582
v -0.121586338 0.993589401 0.366622448
v -0.510453999 0.993589401 0.366622448
v -0.121586338 0.993589461 0.193406507
v -0.121586338 0.993589401 0.366622448
v -0.510453999 0.993589401 0.366622448
v -0.510453999 0.993589461 0.193406507
v -0.510453999 1.32459903 0.193406582
v -0.510453999 1.36333251 0.366622597
v -0.121586338 1.36333251 0.366622597
v -0.121586338 1.32459903 0.193406582
vt 1 0
vt 0 1
vt 1 1
vt 0 0
vt 0 0
vt 1 1
vt 0 1
vt 0 1
vt 1 1
vt 1 0
vt 0 0
vt 1 0
vt 0 0
vt 0 1
vt 1 1
vt 1 0
vt 0 0
vt 0 1
vt 1 1
vt 1 0
vt 1 0
vt 0 1
vt 1 1
vt 0 0
vt 0 0
vt 1 1
vt 0 1
vt 0 1
vt 1 1
vt 1 0
vt 0 0
vt 1 0
vt 0 0
vt 0 1
vt 1 1
vt 1 0
vt 0 0
vt 0 1
vt 1 1
vt 1 0
vt -0.0833333135 0
vt -0.0833333135 1
vt 0.0833333507 1
vt 0.0833333507 0
vt 0.333333373 1
vt 0.333333373 0
vt 0.583333313 1
vt 0.583333313 0
vt 0.833333373 1
vt 0.833333373 0
vt -0.0833333135 0
vt -0.0833333135 1
vt 0.0833333507 1
vt 0.0833333507 0
vt 0.333333373 1
vt 0.333333373 0
vt 0.583333313 1
vt 0.583333313 0
vt 0.833333373 1
vt 0.833333373 0
vt 0.791666746 1
vt 0.75 1
vt 0.791666746 1
vt 0.75 1
vt 0.75 0
vt 0.791666627 0
vt 0.791666627 0
vt 0.75 0
vt 0.5 0
vt 0.5 0
vt 0.25000003 0
vt 0.361111134 1
vt 0.361111134 1
vt 0.25000003 0
vt 1.86264515E-08 0
vt 1.86264515E-08 0
vt 0.25000003 1
vt 0.25000003 1
vt 1.86264515E-08 1
vt 1.86264515E-08 1
vt 0 0
vt 1 1
vt 1 0
vt 0 1
vt 1 0
vt 1 1
vt 0.480193973 0
vt 0 0
vt 0.610058546 0
vt 1 0
vt 0 0
vt 0 1
vt 0 0
vt 0 1
vt 1 1
vt 1 0
vt 0 0
vt 1 1
vt 1 0
vt 0 1
vt 0 0
vt 1 1
vt 1 0
vt 0 0
vt 0 1
vt 1 0
vt 0 0
vt 0 1
vt 1 1
vt 1 0
vt 0 0
vt 1 1
vt 1 0
vt 0 1
vt 0 0
vt 1 1
vt 1 0
vt 0 0
vt 0 1
vt 1 0
vt 0 0
vt 0 1
vt 1 1
vt 1 0
vt 0 0
vt 1 0
vt 1 1
vt 0 1
vt 0.610058546 0
vt 1 0
vt 0 0
vt 0 1
vt 1 0
vt 1 1
vt 0.480193973 0
vt 0 0
vt 0 0
vt 1 0
vt 1 1
vt 0 1
vt 0 0
vt 1 1
vt 1 0
vt 0 1
vt 0 0
vt 1 1
vt 1 0
vt 0 0
vt 0 1
vt 1 0
vt 0 0
vt 0 1
vt 1 1
vt 1 0
vt 0 0
vt 0 1
vt 1 1
vt 1 0
vt 0 0
vt 1 1
vt 1 0
vt 0 1
vt 0 0
vt 1 1
vt 1 0
vt 0 0
vt 0 1
vt 1 0
vt 0 0
vt 0 1
vt 1 1
vt 1 0
vt 0 0
vt 0 1
vt 1 1
vt 1 0
vt 0 0
vt 1 1
vt 1 0
vt 0 1
vt 0 0
vt 1 1
vt 1 0
vt 0 0
vt 0 1
vt 1 0
vt 0 0
vt 0 1
vt 1 1
vt 1 0
vt 0 0
vt 0 1
vt 1 1
vt 1 0
vt 0 0
vt 1 0
vt 1 1
vt 0 1
vt 0.610058546 0
vt 1 0
vt 0 0
vt 0 1
vt 1 0
vt 1 1
vt 0.480193973 0
vt 0 0
vt 0 0
vt 1 0
vt 1 1
vt 0 1
vt 1 0
vt 0 1
vt 1 1
vt 0 0
vt 0 0
vt 1 1
vt 0 1
vt 0 1
vt 1 1
vt 1 0
vt 0 0
vt 1 0
vt 0 0
vt 0 1
vt 1 1
vt 1 0
vt 0 0
vt 0 1
vt 1 1
vt 1 0
g submesh0
f 1/1 2/2 3/3
f 1/1 4/4 2/2
f 5/5 6/6 1/1
f 5/5 7/7 6/6
f 4/4 8/8 9/9
f 4/4 9/9 10/10
f 11/11 7/7 9/9
f 11/11 9/9 12/12
f 13/13 14/14 15/15
f 13/13 15/15 16/16
f 17/17 18/18 19/19
f 17/17 19/19 20/20
f 21/21 22/22 23/23
f 21/21 24/24 22/22
f 25/25 26/26 21/21
f 25/25 27/27 26/26
f 24/24 28/28 29/29
f 24/24 29/29 30/30
f 31/31 27/27 29/29
f 31/31 29/29 32/32
f 33/33 34/34 35/35
f 33/33 35/35 36/36
f 37/37 38/38 39/39
f 37/37 39/39 40/40
f 41/41 42/42 43/43
f 41/41 43/43 44/44
f 44/44 43/43 45/45
f 44/44 45/45 46/46
f 46/46 45/45 47/47
f 46/46 47/47 48/48
f 48/48 47/47 49/49
f 48/48 49/49 50/50
f 51/51 52/52 53/53
f 51/51 53/53 54/54
f 54/54 53/53 55/55
f 54/54 55/55 56/56
f 56/56 55/55 57/57
f 56/56 57/57 58/58
f 58/58 57/57 59/59
f 58/58 59/59 60/60
f 61/61 62/62 63/63
f 61/61 64/64 62/62
f 65/65 64/64 61/61
f 65/65 61/61 66/66
f 65/65 66/66 67/67
f 65/65 67/67 68/68
f 65/65 68/68 69/69
f 65/65 69/69 70/70
f 70/70 64/64 65/65
f 70/70 69/69 71/71
f 72/72 62/62 64/64
f 70/70 72/72 64/64
f 72/72 73/73 62/62
f 70/70 71/71 74/74
f 74/74 72/72 70/70
f 74/74 71/71 75/75
f 74/74 75/75 76/76
f 77/77 73/73 72/72
f 74/74 77/77 72/72
f 76/76 77/77 74/74
f 77/77 78/78 73/73
f 76/76 79/79 77/77
f 77/77 80/80 78/78
f 77/77 79/79 80/80
f 81/81 82/82 83/83
f 81/81 84/84 82/82
f 85/85 84/84 86/86
f 85/85 87/87 84/84
f 84/84 87/87 88/88
f 89/89 82/82 90/90
f 82/82 89/89 91/91
f 82/82 91/91 92/92
f 93/93 94/94 95/95
f 93/93 95/95 96/96
f 97/97 98/98 99/99
f 97/97 100/100 98/98
f 101/101 100/100 102/102
f 101/101 102/102 103/103
f 104/104 105/105 98/98
f 104/104 98/98 106/106
f 107/107 108/108 109/109
f 107/107 109/109 110/110
f 111/111 112/112 113/113
f 111/111 114/114 112/112
f 115/115 114/114 116/116
f 115/115 116/116 117/117
f 118/118 119/119 112/112
f 118/118 112/112 120/120
f 121/121 122/122 123/123
f 121/121 123/123 124/124
f 125/125 126/126 127/127
f 125/125 127/127 128/128
f 129/129 130/130 127/127
f 127/127 131/131 129/129
f 127/127 132/132 131/131
f 128/128 133/133 134/134
f 128/128 135/135 133/133
f 128/128 136/136 135/135
f 137/137 138/138 139/139
f 137/137 139/139 140/140
f 141/141 142/142 143/143
f 141/141 144/144 142/142
f 145/145 144/144 146/146
f 145/145 146/146 147/147
f 148/148 149/149 142/142
f 148/148 142/142 150/150
f 151/151 152/152 153/153
f 151/151 153/153 154/154
f 155/155 156/156 157/157
f 155/155 157/157 158/158
f 159/159 160/160 161/161
f 159/159 162/162 160/160
f 163/163 162/162 164/164
f 163/163 164/164 165/165
f 166/166 167/167 160/160
f 166/166 160/160 168/168
f 169/169 170/170 171/171
f 169/169 171/171 172/172
f 173/173 174/174 175/175
f 173/173 175/175 176/176
f 177/177 178/178 179/179
f 177/177 180/180 178/178
f 181/181 180/180 182/182
f 181/181 182/182 183/183
f 184/184 185/185 178/178
f 184/184 178/178 186/186
f 187/187 188/188 189/189
f 187/187 189/189 190/190
f 191/191 192/192 193/193
f 191/191 193/193 194/194
f 195/195 196/196 197/197
f 195/195 197/197 198/198
f 199/199 200/200 197/197
f 197/197 201/201 199/199
f 197/197 202/202 201/201
f 198/198 203/203 204/204
f 198/198 205/205 203/203
f 198/198 206/206 205/205
f 207/207 208/208 209/209
f 207/207 209/209 210/210
f 211/211 212/212 213/213
f 211/211 214/214 212/212
f 215/215 216/216 211/211
f 215/215 217/217 216/216
f 214/214 218/218 219/219
f 214/214 219/219 220/220
f 221/221 217/217 219/219
f 221/221 219/219 222/222
f 223/223 224/224 225/225
f 223/223 225/225 226/226
f 227/227 228/228 229/229
f 227/227 229/229 230/230
