# submarine_greeble_150x200_04_outercorner_01_90bend_COL
v -0.70717746 1.79404426 0.207954034
v -0.95963645 1.79404426 0.162804827
v -0.794987023 1.79404426 0.0570318401
v -0.846771836 1.79404426 0.237750083
v -0.794987023 1.79404426 0.0570318401
v -0.70717746 2.01530623 0.207954064
v -0.794987023 2.01530623 0.0570318513
v -0.846771836 2.01530623 0.237750083
v -0.95963645 2.01530623 0.162804827
v -0.95963645 1.79404426 0.162804827
v -0.70717746 2.01530623 0.207954064
v -0.846771836 2.01530623 0.237750083
v -0.70717746 1.79404426 0.207954034
v -0.70717746 2.01530623 0.207954064
v -0.846771836 2.01530623 0.237750083
v -0.846771836 1.79404426 0.237750083
v -0.95963645 1.79404426 0.162804827
v -0.95963645 2.01530623 0.162804827
v -0.794987023 2.01530623 0.0570318513
v -0.794987023 1.79404426 0.0570318401
v 0.999156952 1.79404426 0.159472793
v 0.748531759 1.79404426 0.213888258
v 0.860480785 1.79404426 0.0533740707
v 0.881434917 1.79404426 0.240193978
v 0.860480785 1.79404426 0.0533740707
v 0.999156952 2.01530623 0.159472808
v 0.860480785 2.01530623 0.0533740781
v 0.881434917 2.01530623 0.240193978
v 0.748531759 2.01530623 0.213888273
v 0.748531759 1.79404426 0.213888258
v 0.999156952 2.01530623 0.159472808
v 0.881434917 2.01530623 0.240193978
v 0.999156952 1.79404426 0.159472793
v 0.999156952 2.01530623 0.159472808
v 0.881434917 2.01530623 0.240193978
v 0.881434917 1.79404426 0.240193978
v 0.748531759 1.79404426 0.213888258
v 0.748531759 2.01530623 0.213888273
v 0.860480785 2.01530623 0.0533740781
v 0.860480785 1.79404426 0.0533740707
vt 1 0
vt 0 1
vt 1 1
vt 0 0
vt 0 0
vt 1 1
vt 0 1
vt 0 1
vt 1 1
vt 1 0
vt 0 0
vt 1 0
vt 0 0
vt 0 1
vt 1 1
vt 1 0
vt 0 0
vt 0 1
vt 1 1
vt 1 0
vt 1 0
vt 0 1
vt 1 1
vt 0 0
vt 0 0
vt 1 1
vt 0 1
vt 0 1
vt 1 1
vt 1 0
vt 0 0
vt 1 0
vt 0 0
vt 0 1
vt 1 1
vt 1 0
vt 0 0
vt 0 1
vt 1 1
vt 1 0
g submesh0
f 1/1 2/2 3/3
f 1/1 4/4 2/2
f 5/5 6/6 1/1
f 5/5 7/7 6/6
f 4/4 8/8 9/9
f 4/4 9/9 10/10
f 11/11 7/7 9/9
f 11/11 9/9 12/12
f 13/13 14/14 15/15
f 13/13 15/15 16/16
f 17/17 18/18 19/19
f 17/17 19/19 20/20
f 21/21 22/22 23/23
f 21/21 24/24 22/22
f 25/25 26/26 21/21
f 25/25 27/27 26/26
f 24/24 28/28 29/29
f 24/24 29/29 30/30
f 31/31 27/27 29/29
f 31/31 29/29 32/32
f 33/33 34/34 35/35
f 33/33 35/35 36/36
f 37/37 38/38 39/39
f 37/37 39/39 40/40
