# Suitcase_a_COL
v 0.329735756 0 0.193695977
v 0.329735756 0 -0.193695977
v 0.331246555 0.203763083 -0.194540739
v 0.331246555 0.203763083 0.194540739
v 0.329735756 0 -0.193695977
v -0.329735756 0 -0.193695977
v -0.331246555 0.203763083 -0.194540739
v 0.331246555 0.203763083 -0.194540739
v -0.329735756 0 -0.193695977
v -0.329735756 0 0.193695977
v -0.331246555 0.203763083 0.194540739
v -0.331246555 0.203763083 -0.194540739
v -0.329735756 0 0.193695977
v 0.329735756 0 0.193695977
v 0.331246555 0.203763083 0.194540739
v -0.331246555 0.203763083 0.194540739
v 0.329735756 0 -0.193695977
v 0.329735756 0 0.193695977
v -0.329735756 0 0.193695977
v -0.329735756 0 -0.193695977
v -0.331246555 0.203763083 -0.194540739
v -0.331246555 0.203763083 0.194540739
v 0.331246555 0.203763083 0.194540739
v 0.331246555 0.203763083 -0.194540739
v -0.118619554 0.0892644748 0.25963527
v 0.10194061 0.0892644748 0.25963527
v 0.10238535 0.117572516 0.260367095
v -0.119064301 0.117572516 0.260367095
v -0.118619554 0.0897121876 0.237169012
v -0.119064301 0.118020229 0.237900823
v 0.10238535 0.118020229 0.237900823
v 0.10194061 0.0897121876 0.237169012
v -0.119064301 0.117572516 0.260367095
v 0.10238535 0.117572516 0.260367095
v 0.10238535 0.118020229 0.237900823
v -0.119064301 0.118020229 0.237900823
v -0.118619554 0.0892644748 0.25963527
v -0.119064301 0.117572516 0.260367095
v -0.119064301 0.118020229 0.237900823
v -0.118619554 0.0897121876 0.237169012
v 0.10194061 0.0892644748 0.25963527
v -0.118619554 0.0892644748 0.25963527
v -0.118619554 0.0897121876 0.237169012
v 0.10194061 0.0897121876 0.237169012
v 0.10238535 0.117572516 0.260367095
v 0.10194061 0.0892644748 0.25963527
v 0.10194061 0.0897121876 0.237169012
v 0.10238535 0.118020229 0.237900823
vn 0.999972582 -0.00741443178 0
vn 0.999972582 -0.00741443178 0
vn 0.999972582 -0.00741443178 0
vn 0.999972582 -0.00741443178 0
vn 0 -0.00414572237 -0.999991417
vn 0 -0.00414572237 -0.999991417
vn 0 -0.00414572237 -0.999991417
vn 0 -0.00414572237 -0.999991417
vn -0.999972582 -0.00741443178 0
vn -0.999972582 -0.00741443178 0
vn -0.999972582 -0.00741443178 0
vn -0.999972582 -0.00741443178 0
vn 0 -0.00414572237 0.999991417
vn 0 -0.00414572237 0.999991417
vn 0 -0.00414572237 0.999991417
vn 0 -0.00414572237 0.999991417
vn 0 -1 0
vn 0 -1 0
vn 0 -1 0
vn 0 -1 0
vn 0 1 0
vn 0 1 0
vn 0 1 0
vn 0 1 0
vn 0 -0.0258436222 0.999665976
vn 0 -0.0258436222 0.999665976
vn 0 -0.0258436222 0.999665976
vn 0 -0.0258436222 0.999665976
vn 0 0.0258436128 -0.999665976
vn 0 0.0258436128 -0.999665976
vn 0 0.0258436128 -0.999665976
vn 0 0.0258436128 -0.999665976
vn 0 0.999801576 0.0199242849
vn 0 0.999801576 0.0199242849
vn 0 0.999801576 0.0199242849
vn 0 0.999801576 0.0199242849
vn -0.999876738 -0.0157007109 -0.000312878692
vn -0.999876738 -0.0157007109 -0.000312878692
vn -0.999876738 -0.0157007109 -0.000312878692
vn -0.999876738 -0.0157007109 -0.000312878692
vn 0 -0.999801576 -0.0199242812
vn 0 -0.999801576 -0.0199242812
vn 0 -0.999801576 -0.0199242812
vn 0 -0.999801576 -0.0199242812
vn 0.999876738 -0.0157007109 -0.000312878692
vn 0.999876738 -0.0157007109 -0.000312878692
vn 0.999876738 -0.0157007109 -0.000312878692
vn 0.999876738 -0.0157007109 -0.000312878692
vt 0.375 0
vt 0.375 0.25
vt 0.625 0.25
vt 0.625 0
vt 0.375 0.25
vt 0.375 0.5
vt 0.625 0.5
vt 0.625 0.25
vt 0.375 0.5
vt 0.375 0.75
vt 0.625 0.75
vt 0.625 0.5
vt 0.375 0.75
vt 0.375 1
vt 0.625 1
vt 0.625 0.75
vt 0.125 0.5
vt 0.125 0.75
vt 0.375 0.75
vt 0.375 0.5
vt 0.625 0.5
vt 0.625 0.75
vt 0.875 0.75
vt 0.875 0.5
vt 0.375 0.75
vt 0.375 1
vt 0.625 1
vt 0.625 0.75
vt 0.375 0.75
vt 0.625 0.75
vt 0.625 1
vt 0.375 1
vt 0.625 0.75
vt 0.625 1
vt 0.625 1
vt 0.625 0.75
vt 0.375 0.75
vt 0.625 0.75
vt 0.625 0.75
vt 0.375 0.75
vt 0.375 1
vt 0.375 0.75
vt 0.375 0.75
vt 0.375 1
vt 0.625 1
vt 0.375 1
vt 0.375 1
vt 0.625 1
g submesh0
f 1/1/1 2/2/2 3/3/3
f 1/1/1 3/3/3 4/4/4
f 5/5/5 6/6/6 7/7/7
f 5/5/5 7/7/7 8/8/8
f 9/9/9 10/10/10 11/11/11
f 9/9/9 11/11/11 12/12/12
f 13/13/13 14/14/14 15/15/15
f 13/13/13 15/15/15 16/16/16
f 17/17/17 18/18/18 19/19/19
f 17/17/17 19/19/19 20/20/20
f 21/21/21 22/22/22 23/23/23
f 21/21/21 23/23/23 24/24/24
f 25/25/25 26/26/26 27/27/27
f 25/25/25 27/27/27 28/28/28
f 29/29/29 30/30/30 31/31/31
f 29/29/29 31/31/31 32/32/32
f 33/33/33 34/34/34 35/35/35
f 33/33/33 35/35/35 36/36/36
f 37/37/37 38/38/38 39/39/39
f 37/37/37 39/39/39 40/40/40
f 41/41/41 42/42/42 43/43/43
f 41/41/41 43/43/43 44/44/44
f 45/45/45 46/46/46 47/47/47
f 45/45/45 47/47/47 48/48/48
