# trawler_building_interior_wood
v 8.875 0.100000709 5.37499905
v -8.875 0.0999992862 -5.37499905
v -8.875 0.100000709 5.37499905
v 8.875 0.0999992862 -5.37499905
v 8.875 2.90000296 5.37499905
v -8.875 2.90000153 -5.375
v 8.875 2.90000153 -5.375
v -8.875 2.90000296 5.37499905
v 7.0806098 3.44878197 1.22021198
v 7.0806098 3.44878173 -1.22021294
v 6.12501526 3.44878125 -3.12499595
v 6.12501526 3.44878221 3.12499499
v -0.931746185 3.44878125 -3.12500143
v -0.931746185 3.44878221 3.12500095
v -8.67109871 3.09999943 -6.62499905
v -8.87214375 3.09999943 -6.42395449
v -4.01952267 3.09999943 -6.62499905
v -3.70955324 3.09999943 -6.45601845
v -3.70955324 3.10000086 6.45601845
v -8.87214375 3.10000086 6.42395449
v -1.57070613 3.09999895 -3.16888642
v -4.01952267 3.10000086 6.62499905
v -8.67109871 3.10000086 6.62499905
v -1.57070613 3.0999999 3.16888547
v -1.05674624 3.09999895 -3.16888642
v -1.05674624 3.0999999 3.16888547
v 6.12501526 6.256392 -3.12499619
v -0.931746185 6.25639248 3.12500048
v -0.931746185 6.256392 -3.12500167
v 6.12501526 6.25639248 3.12499475
v 7.0806098 6.256392 -1.22021329
v 7.0806098 6.25639248 1.22021163
v -8.67109871 6.60517502 6.62499857
v -3.70955324 6.60517502 6.45601797
v -4.01952267 6.60517502 6.62499857
v -8.87214375 6.60517502 6.42395353
v -1.57070613 6.60517502 3.2412734
v -8.87214375 6.60517311 -6.42395496
v -1.57070613 6.60517454 -3.24127483
v -1.05674624 6.60517454 -3.24127483
v -1.05674624 6.60517502 3.2412734
v -3.70955324 6.60517311 -6.45601892
v -4.01952267 6.60517311 -6.625
v -8.67109871 6.60517311 -6.625
v 2.25 -3.39499998 5.37499619
v -6.625 -3.39500022 -5.37499619
v -6.625 -3.39499998 5.37499619
v 2.25 -3.39500022 -5.37499619
v 14.375 -3.39500046 -7.62499905
v 2.25 -3.39500046 -7.62499905
v 14.375 -3.39500022 7.62499905
v 2.25 -3.39500022 7.62499905
vt 1.27695394 -3.8876276
vt -2.19069338 1.90641081
vt 1.3136034 1.91669881
vt -2.20899749 -3.90764666
vt 1.33333278 -3.95833397
vt -0.89425236 2.72205424
vt 1.33333278 -3.95833397
vt 1.79324758 2.72205424
vt -0.572428703 -2.50603437
vt -1.385903 -2.50603437
vt -2.02083063 -2.18750286
vt 0.0624990836 -2.18750286
vt -2.02083302 0.164750934
vt 0.0625014827 0.164750934
vt -3.18749905 2.74453497
vt -3.12048435 2.81154966
vt -3.18749857 1.19400942
vt -3.1311717 1.0906862
vt 1.17284083 1.0906862
vt 1.16215312 2.81154966
vt -2.0595901 0.377737641
vt 1.2291677 1.19400942
vt 1.22916794 2.74453497
vt 0.101259157 0.377737641
vt -2.0595901 0.20641768
vt 0.101259105 0.20641768
vt -0.505880237 1.78124881
vt 1.2583102 0.218749374
vt 1.2583102 1.7812506
vt -0.505880237 0.218751222
vt -0.744778574 1.30505288
vt -0.744778633 0.694947124
vt 3.25395083 -0.656250715
vt 2.01356459 -0.614005089
vt 2.09105682 -0.656250358
vt 3.30421209 -0.605989456
vt 1.47885299 0.189681113
vt 3.30421209 2.60598826
vt 1.47885299 1.81031775
vt 1.3503629 1.81031775
vt 1.3503629 0.189681143
vt 2.01356459 2.6140039
vt 2.09105682 2.65624928
vt 3.25395083 2.65624976
vt 0.0208327919 1.04166663
vt -3.56250024 4
vt 0.0208333768 4
vt -3.56249976 1.04166651
vt -4.3125 -3.00000048
vt -4.31250095 1.04166651
vt 0.770833015 -3.00000048
vt 0.77083379 1.04166639
g submesh0
f 1/1 2/2 3/3
f 2/2 1/1 4/4
f 5/5 6/6 7/7
f 6/6 5/5 8/8
f 9/9 10/10 11/11
f 11/11 12/12 9/9
f 13/13 12/12 11/11
f 12/12 13/13 14/14
f 15/15 16/16 17/17
f 16/16 18/18 17/17
f 16/16 19/19 18/18
f 19/19 16/16 20/20
f 19/19 21/21 18/18
f 20/20 22/22 19/19
f 22/22 20/20 23/23
f 21/21 19/19 24/24
f 24/24 25/25 21/21
f 25/25 24/24 26/26
f 27/27 28/28 29/29
f 28/28 27/27 30/30
f 31/31 30/30 27/27
f 30/30 31/31 32/32
f 33/33 34/34 35/35
f 34/34 33/33 36/36
f 36/36 37/37 34/34
f 38/38 37/37 36/36
f 37/37 38/38 39/39
f 40/40 37/37 39/39
f 37/37 40/40 41/41
f 39/39 38/38 42/42
f 38/38 43/43 42/42
f 43/43 38/38 44/44
f 45/45 46/46 47/47
f 46/46 45/45 48/48
f 45/45 49/49 48/48
f 48/48 49/49 50/50
f 49/49 45/45 51/51
f 51/51 45/45 52/52
