# trawler_building_mast_metal
v 1.11249757 2.50000119 0.549500883
v 0.38801837 8.50000095 0.549501479
v -1.36198151 2.50000119 0.549500883
v 1.11249757 8.50000095 0.549501479
v 1.11249757 8.50000095 -0.549498618
v 1.11249757 2.50000119 -0.549499214
v -1.36198151 2.50000119 -0.549499214
v 0.38801837 8.50000095 -0.549498618
v 0.38801837 8.50000095 0.549501479
v -1.36198151 2.50000119 -0.549499214
v -1.36198151 2.50000119 0.549500883
v 0.38801837 8.50000095 -0.549498618
v -2.65259361 5.50000048 0.531247973
v 2.39854956 5.50000095 0.631247103
v 2.49846101 5.50000095 0.531248093
v -2.65259361 5.50000048 0.631247938
v -2.65259361 5.30000067 0.631247938
v 2.39854956 5.50000095 0.631247103
v -2.65259361 5.50000048 0.631247938
v 2.39854956 5.30000114 0.631247103
v 2.39991117 5.50000048 2.14999747
v 2.39991093 5.30000067 2.14999747
v -0.966302931 5.50000095 2.14999771
v -0.966302931 5.30000114 2.14999747
v -2.65000105 5.5 0.869913936
v -2.65000081 5.29999971 0.869913936
v -2.64418817 5.5 -0.867031693
v -2.64418793 5.29999971 -0.867031634
v -0.966305077 5.50000048 -2.150002
v -0.966304958 5.30000067 -2.150002
v 2.38538909 5.50000048 -2.150002
v 2.38538885 5.30000067 -2.150002
v 2.40000081 5.50000048 -2.150002
v 2.40000057 5.30000067 -2.150002
v 2.40000081 5.50000048 -2.13539028
v 2.40000057 5.30000067 -2.13539004
v 2.39999938 5.50000048 -0.631250799
v 2.39999938 5.30000067 -0.631250978
v -2.65258718 5.5 -0.631250799
v -2.65258718 5.29999971 -0.631250978
v 2.39854956 5.30000114 0.631247103
v -2.65259361 5.30000067 0.531247973
v 2.49846101 5.30000114 0.531248093
v -2.65259361 5.30000067 0.631247938
v -2.65259361 5.50000048 0.531247973
v 2.49846101 5.30000114 0.531248093
v -2.65259361 5.30000067 0.531247973
v 2.49846101 5.50000095 0.531248093
v 2.50000048 5.30000067 2.24999762
v 2.50000048 5.50000048 2.24999762
v -1.00000024 5.30000114 2.24999762
v -1.00000048 5.50000095 2.24999762
v -2.75000095 5.29999971 0.919505119
v -2.75000119 5.5 0.919505119
v -2.74418807 5.29999971 -0.916622818
v -2.74418807 5.5 -0.916622877
v -1.00000238 5.30000067 -2.25000191
v -1.00000262 5.50000048 -2.25000215
v 2.48538899 5.30000067 -2.25000191
v 2.48538899 5.50000048 -2.25000215
v 2.50000095 5.30000067 -2.25000191
v 2.50000095 5.50000048 -2.25000215
v 2.50000095 5.30000067 -2.23539019
v 2.50000095 5.50000048 -2.23539019
v 2.49999928 5.30000067 -0.531251013
v 2.49999928 5.50000048 -0.531250834
v -2.65258718 5.29999971 -0.531251013
v -2.65258718 5.5 -0.531250834
v 2.50000048 5.50000048 2.24999762
v 2.39854956 5.50000095 0.631247103
v 2.39991117 5.50000048 2.14999747
v 2.49846101 5.50000095 0.531248093
v 2.50000048 5.30000067 2.24999762
v 2.39854956 5.30000114 0.631247103
v 2.49846101 5.30000114 0.531248093
v 2.39991093 5.30000067 2.14999747
v -1.00000048 5.50000095 2.24999762
v 2.39991117 5.50000048 2.14999747
v -0.966302931 5.50000095 2.14999771
v 2.50000048 5.50000048 2.24999762
v -1.00000024 5.30000114 2.24999762
v 2.39991093 5.30000067 2.14999747
v 2.50000048 5.30000067 2.24999762
v -0.966302931 5.30000114 2.14999747
v -2.75000119 5.5 0.919505119
v -0.966302931 5.50000095 2.14999771
v -2.65000105 5.5 0.869913936
v -1.00000048 5.50000095 2.24999762
v -2.75000095 5.29999971 0.919505119
v -0.966302931 5.30000114 2.14999747
v -1.00000024 5.30000114 2.24999762
v -2.65000081 5.29999971 0.869913936
v -2.74418807 5.5 -0.916622877
v -2.65000105 5.5 0.869913936
v -2.64418817 5.5 -0.867031693
v -2.75000119 5.5 0.919505119
v -2.74418807 5.29999971 -0.916622818
v -2.65000081 5.29999971 0.869913936
v -2.75000095 5.29999971 0.919505119
v -2.64418793 5.29999971 -0.867031634
v -1.00000262 5.50000048 -2.25000215
v -2.64418817 5.5 -0.867031693
v -0.966305077 5.50000048 -2.150002
v -2.74418807 5.5 -0.916622877
v -2.64418793 5.29999971 -0.867031634
v -1.00000238 5.30000067 -2.25000191
v -0.966304958 5.30000067 -2.150002
v -2.74418807 5.29999971 -0.916622818
v -0.966305077 5.50000048 -2.150002
v 2.48538899 5.50000048 -2.25000215
v -1.00000262 5.50000048 -2.25000215
v 2.38538909 5.50000048 -2.150002
v 2.50000095 5.50000048 -2.25000215
v 2.40000081 5.50000048 -2.150002
v 2.48538899 5.30000067 -2.25000191
v -0.966304958 5.30000067 -2.150002
v -1.00000238 5.30000067 -2.25000191
v 2.38538885 5.30000067 -2.150002
v 2.40000057 5.30000067 -2.150002
v 2.50000095 5.30000067 -2.25000191
v 2.49999928 5.50000048 -0.531250834
v 2.40000081 5.50000048 -2.13539028
v 2.39999938 5.50000048 -0.631250799
v 2.50000095 5.50000048 -2.23539019
v 2.40000081 5.50000048 -2.150002
v 2.50000095 5.50000048 -2.25000215
v 2.39999938 5.30000067 -0.631250978
v 2.50000095 5.30000067 -2.23539019
v 2.49999928 5.30000067 -0.531251013
v 2.40000057 5.30000067 -2.13539004
v 2.50000095 5.30000067 -2.25000191
v 2.40000057 5.30000067 -2.150002
v -2.65258718 5.5 -0.531250834
v 2.39999938 5.50000048 -0.631250799
v -2.65258718 5.5 -0.631250799
v 2.49999928 5.50000048 -0.531250834
v -2.65258718 5.29999971 -0.531251013
v 2.39999938 5.30000067 -0.631250978
v 2.49999928 5.30000067 -0.531251013
v -2.65258718 5.29999971 -0.631250978
v -0.340898663 5.47609377 2.1541152
v -0.393082201 5.47609282 0.6292606
v -0.393084407 5.47609377 2.15411496
v -0.340896457 5.47609282 0.629260302
v -0.393078059 5.47609234 -2.1538167
v -0.34089455 5.47609282 -0.628673077
v -0.340892315 5.47609234 -2.1538167
v -0.393080294 5.47609282 -0.628672779
v -0.393084407 5.47609377 2.15411496
v -0.393082201 5.32390738 0.6292606
v -0.393084407 5.32390785 2.15411496
v -0.393082201 5.47609282 0.6292606
v -0.393078059 5.3239069 -2.1538167
v -0.393080294 5.47609282 -0.628672779
v -0.393078059 5.47609234 -2.1538167
v -0.393080294 5.32390738 -0.628672779
v -0.393084407 5.32390785 2.15411496
v -0.340896457 5.32390738 0.629260778
v -0.340898663 5.32390785 2.1541152
v -0.393082201 5.32390738 0.6292606
v -0.340892315 5.3239069 -2.1538167
v -0.393080294 5.32390738 -0.628672779
v -0.393078059 5.3239069 -2.1538167
v -0.34089455 5.32390738 -0.6286726
v -0.340898663 5.32390785 2.1541152
v -0.340896457 5.47609282 0.629260302
v -0.340898663 5.47609377 2.1541152
v -0.340896457 5.32390738 0.629260778
v -0.340892315 5.47609234 -2.1538167
v -0.34089455 5.32390738 -0.6286726
v -0.340892315 5.3239069 -2.1538167
v -0.34089455 5.47609282 -0.628673077
v 1.00601006 5.47609377 2.1541152
v 0.953826666 5.47609282 0.6292606
v 0.953824461 5.47609377 2.15411496
v 1.00601244 5.47609282 0.629260302
v 0.953830779 5.47609234 -2.1538167
v 1.00601423 5.47609282 -0.628673077
v 1.00601649 5.47609234 -2.1538167
v 0.953828573 5.47609282 -0.628672779
v 0.953824461 5.47609377 2.15411496
v 0.953826666 5.32390738 0.6292606
v 0.953824461 5.32390785 2.15411496
v 0.953826666 5.47609282 0.6292606
v 0.953830779 5.3239069 -2.1538167
v 0.953828573 5.47609282 -0.628672779
v 0.953830779 5.47609234 -2.1538167
v 0.953828573 5.32390738 -0.628672779
v 0.953824461 5.32390785 2.15411496
v 1.00601244 5.32390738 0.629260778
v 1.00601006 5.32390785 2.1541152
v 0.953826666 5.32390738 0.6292606
v 1.00601649 5.3239069 -2.1538167
v 0.953828573 5.32390738 -0.628672779
v 0.953830779 5.3239069 -2.1538167
v 1.00601423 5.32390738 -0.6286726
v 1.00601006 5.32390785 2.1541152
v 1.00601244 5.47609282 0.629260302
v 1.00601006 5.47609377 2.1541152
v 1.00601244 5.32390738 0.629260778
v 1.00601649 5.47609234 -2.1538167
v 1.00601423 5.32390738 -0.6286726
v 1.00601649 5.3239069 -2.1538167
v 1.00601423 5.47609282 -0.628673077
v 2.14999986 8.5 -0.631249547
v 1.24999988 8.5 -0.531249702
v 2.24999976 8.5 -0.531249702
v 0.271542817 8.5 -0.631249666
v 1.24999988 8.30000019 -0.531249702
v 2.24999976 8.5 -0.531249702
v 1.24999988 8.5 -0.531249702
v 2.24995089 8.30000019 -0.531200886
v 2.25000286 8.49999905 -1.75000119
v 2.2500515 8.29999924 -1.7499522
v 0 8.49999905 -1.75000119
v 6.5155029E-05 8.29999924 -1.75002396
v -1.75 8.49999905 -0.347920835
v -1.74996996 8.29999924 -0.347982943
v -1.75000083 8.49999905 0.34792152
v -1.75003064 8.29999924 0.347859263
v -9.15527323E-07 8.5 1.74999869
v -6.58988938E-05 8.30000019 1.74997568
v 2.24999976 8.5 1.74999869
v 2.24995089 8.30000019 1.75004745
v 2.24999881 8.5 0.531249166
v 2.25004745 8.30000019 0.531298041
v 1.25000048 8.5 0.531249166
v 1.25000024 8.30000019 0.531249225
v 1.24999988 8.30000019 -0.531249702
v 1.24999988 8.5 -0.531249702
v 1.24999988 8.30000019 -0.531249702
v 2.14995098 8.30000019 -0.63120079
v 2.24995089 8.30000019 -0.531200886
v 0.271542817 8.30000019 -0.631249785
v 0.271542817 8.5 -0.631249666
v 2.14995098 8.30000019 -0.63120079
v 0.271542817 8.30000019 -0.631249785
v 2.14999986 8.5 -0.631249547
v 2.15005159 8.29999924 -1.64995217
v 2.15000272 8.49999905 -1.65000105
v 0.0351838693 8.29999924 -1.65002382
v 0.0351187326 8.49999905 -1.65000117
v -1.6499697 8.29999924 -0.299965471
v -1.64999986 8.49999905 -0.299903393
v -1.65003037 8.29999924 0.299841762
v -1.65000057 8.49999905 0.299903959
v 0.0350527577 8.30000019 1.64997566
v 0.0351177417 8.5 1.64999878
v 2.14995074 8.30000019 1.6500473
v 2.14999986 8.5 1.64999878
v 2.1500473 8.30000019 0.631297946
v 2.14999866 8.5 0.63124907
v 0.271543205 8.30000019 0.63124913
v 0.271543354 8.5 0.63124907
v 2.15000272 8.49999905 -1.65000105
v 2.24999976 8.5 -0.531249702
v 2.25000286 8.49999905 -1.75000119
v 2.14999986 8.5 -0.631249547
v 2.15005159 8.29999924 -1.64995217
v 2.24995089 8.30000019 -0.531200886
v 2.14995098 8.30000019 -0.63120079
v 2.2500515 8.29999924 -1.7499522
v 0.0351187326 8.49999905 -1.65000117
v 2.25000286 8.49999905 -1.75000119
v 0 8.49999905 -1.75000119
v 2.15000272 8.49999905 -1.65000105
v 0.0351838693 8.29999924 -1.65002382
v 2.2500515 8.29999924 -1.7499522
v 2.15005159 8.29999924 -1.64995217
v 6.5155029E-05 8.29999924 -1.75002396
v 0 8.49999905 -1.75000119
v -1.64999986 8.49999905 -0.299903393
v 0.0351187326 8.49999905 -1.65000117
v -1.75 8.49999905 -0.347920835
v -1.65000057 8.49999905 0.299903959
v -1.64999986 8.49999905 -0.299903393
v -1.75000083 8.49999905 0.34792152
v 0.0351177417 8.5 1.64999878
v -9.15527323E-07 8.5 1.74999869
v -1.65000057 8.49999905 0.299903959
v -1.6499697 8.29999924 -0.299965471
v 6.5155029E-05 8.29999924 -1.75002396
v 0.0351838693 8.29999924 -1.65002382
v -1.74996996 8.29999924 -0.347982943
v -1.65003037 8.29999924 0.299841762
v -1.6499697 8.29999924 -0.299965471
v -1.75003064 8.29999924 0.347859263
v 0.0350527577 8.30000019 1.64997566
v -1.65003037 8.29999924 0.299841762
v -6.58988938E-05 8.30000019 1.74997568
v 2.14999986 8.5 1.64999878
v -9.15527323E-07 8.5 1.74999869
v 2.24999976 8.5 1.74999869
v 0.0351177417 8.5 1.64999878
v 2.14995074 8.30000019 1.6500473
v -6.58988938E-05 8.30000019 1.74997568
v 0.0350527577 8.30000019 1.64997566
v 2.24995089 8.30000019 1.75004745
v 2.14999866 8.5 0.63124907
v 2.24999976 8.5 1.74999869
v 2.24999881 8.5 0.531249166
v 2.14999986 8.5 1.64999878
v 2.1500473 8.30000019 0.631297946
v 2.24995089 8.30000019 1.75004745
v 2.14995074 8.30000019 1.6500473
v 2.25004745 8.30000019 0.531298041
v 1.25000048 8.5 0.531249166
v 2.14999866 8.5 0.63124907
v 2.24999881 8.5 0.531249166
v 0.271543354 8.5 0.63124907
v 1.25000024 8.30000019 0.531249225
v 2.1500473 8.30000019 0.631297946
v 0.271543205 8.30000019 0.63124913
v 2.25004745 8.30000019 0.531298041
v 1.24999988 8.5 -0.531249702
v 0.271543354 8.5 0.63124907
v 1.25000048 8.5 0.531249166
v 0.271542817 8.5 -0.631249666
v 0.271542817 8.30000019 -0.631249785
v 1.25000024 8.30000019 0.531249225
v 0.271543205 8.30000019 0.63124913
v 1.24999988 8.30000019 -0.531249702
v 0.271542817 8.5 -0.631249666
v 0.271543205 8.30000019 0.63124913
v 0.271543354 8.5 0.63124907
v 0.271542817 8.30000019 -0.631249785
v 0.276520789 8.47908783 0.590902984
v -1.65568411 8.47908497 0.226412445
v -1.64864147 8.47682667 0.282660872
v 0.269424558 8.47682571 0.534653664
v 0.276522428 8.32090664 0.590946019
v -1.64864147 8.47682667 0.282660872
v -1.64864099 8.32317448 0.282648057
v 0.276520789 8.47908783 0.590902984
v 0.269424707 8.3231802 0.534696877
v -1.64864099 8.32317448 0.282648057
v -1.65568519 8.32091236 0.226399571
v 0.276522428 8.32090664 0.590946019
v 0.269424558 8.47682571 0.534653664
v -1.65568519 8.32091236 0.226399571
v -1.65568411 8.47908497 0.226412445
v 0.269424707 8.3231802 0.534696877
v 0.752326727 8.47786713 0.631446838
v 0.696579278 8.47786617 1.650455
v 0.75232482 8.47787094 1.65046155
v 0.696586072 8.47787285 0.631453395
v 0.696629405 8.32213211 0.631455541
v 0.752276421 8.3221302 1.65045941
v 0.696540654 8.32212543 1.65045714
v 0.752370059 8.32212734 0.631444752
v 0.752370059 8.32212734 0.631444752
v 0.75232482 8.47787094 1.65046155
v 0.752276421 8.3221302 1.65045941
v 0.752326727 8.47786713 0.631446838
v 0.696586072 8.47787285 0.631453395
v 0.696540654 8.32212543 1.65045714
v 0.696579278 8.47786617 1.650455
v 0.696629405 8.32213211 0.631455541
v 0.276520759 8.47908783 -0.590903759
v -1.65568411 8.47908497 -0.226413205
v 0.269424587 8.47682571 -0.534654438
v -1.64864147 8.47682667 -0.282661617
v 0.276522428 8.32090664 -0.590946674
v -1.64864147 8.47682667 -0.282661617
v 0.276520759 8.47908783 -0.590903759
v -1.64864099 8.32317448 -0.282648742
v 0.269424736 8.3231802 -0.534697533
v -1.64864099 8.32317448 -0.282648742
v 0.276522428 8.32090664 -0.590946674
v -1.65568519 8.32091236 -0.226400256
v 0.269424587 8.47682571 -0.534654438
v -1.65568519 8.32091236 -0.226400256
v 0.269424736 8.3231802 -0.534697533
v -1.65568411 8.47908497 -0.226413205
v 0.752326727 8.47786713 -0.631447613
v 0.696579278 8.47786522 -1.65045559
v 0.696586072 8.47787285 -0.63145417
v 0.75232482 8.47786999 -1.65046227
v 0.696629405 8.32213211 -0.631456196
v 0.752276421 8.3221302 -1.65046012
v 0.752370059 8.32212734 -0.631445467
v 0.696540654 8.32212448 -1.65045774
v 0.752370059 8.32212734 -0.631445467
v 0.75232482 8.47786999 -1.65046227
v 0.752326727 8.47786713 -0.631447613
v 0.752276421 8.3221302 -1.65046012
v 0.696586072 8.47787285 -0.63145417
v 0.696540654 8.32212448 -1.65045774
v 0.696629405 8.32213211 -0.631456196
v 0.696579278 8.47786522 -1.65045559
v -2.98632979 -0.249999613 1.9873327
v 2.23749876 2.25000095 1.53729856
v -1.86132872 2.25000095 1.53733218
v 2.23749876 -0.249999613 1.9872992
v -2.98632979 -0.250000387 -1.9873327
v -1.86132872 2.25000095 1.53733218
v -1.86132872 2.25000072 -1.53733277
v -2.98632979 -0.249999613 1.9873327
v 2.23749876 -0.250000387 -1.9872992
v -1.86132872 2.25000072 -1.53733277
v 2.23749876 2.25000072 -1.53729916
v -2.98632979 -0.250000387 -1.9873327
v 2.23749876 -0.249999613 1.9872992
v 2.23749876 2.25000072 -1.53729916
v 2.23749876 2.25000095 1.53729856
v 2.23749876 -0.250000387 -1.9872992
v -1.74993527 2.49778962 1.74371529
v 2.49999881 2.25000095 1.54999948
v 2.49999881 2.50000048 1.7500006
v -1.87271345 2.25221229 1.54724336
v -1.74993539 2.49778819 -1.74371386
v 2.49999881 2.25000072 -1.54999995
v -1.87271309 2.25221133 -1.54724371
v 2.49999881 2.49999952 -1.7499994
v -1.74993527 2.49778962 1.74371529
v -3.87500072 2.5 0.426476419
v -3.99215412 2.49785018 0.496674716
v -1.71760988 2.50000048 1.62500072
v -3.99215388 2.49785018 -0.496675581
v -3.87500072 2.5 0.426476419
v -3.87500072 2.5 -0.426477283
v -3.99215412 2.49785018 0.496674716
v -1.74993539 2.49778819 -1.74371386
v -3.87500072 2.5 -0.426477283
v -1.71760988 2.49999952 -1.62499917
v -3.99215388 2.49785018 -0.496675581
v 2.49999881 2.50000048 1.7500006
v -1.71760988 2.50000048 1.62500072
v -1.74993527 2.49778962 1.74371529
v 2.37499881 2.50000048 1.6250006
v 2.49999881 2.49999952 -1.7499994
v 2.37499881 2.49999952 -1.6249994
v -1.71760988 2.49999952 -1.62499917
v -1.74993539 2.49778819 -1.74371386
v -3.75000048 2.25000119 -0.499972284
v -3.99215412 2.49785018 0.496674716
v -3.99215388 2.49785018 -0.496675581
v -3.75000048 2.25000048 0.499971539
v 2.49999881 2.25000072 -1.54999995
v 2.49999881 2.50000048 1.7500006
v 2.49999881 2.25000095 1.54999948
v 2.49999881 2.49999952 -1.7499994
v -3.99215412 2.49785018 0.496674716
v -1.87271345 2.25221229 1.54724336
v -1.74993527 2.49778962 1.74371529
v -3.75000048 2.25000048 0.499971539
v -1.87271309 2.25221133 -1.54724371
v -3.75000048 2.25000048 0.499971539
v -3.75000048 2.25000119 -0.499972284
v -1.87271345 2.25221229 1.54724336
v 2.49999881 2.25000072 -1.54999995
v -1.87271309 2.25221133 -1.54724371
v 2.49999881 2.25000095 1.54999948
v -3.75000048 2.25000119 -0.499972284
v -1.74993539 2.49778819 -1.74371386
v -1.87271309 2.25221133 -1.54724371
v -3.99215388 2.49785018 -0.496675581
vt 0.65620333 -0.00112352427
vt 0.847168326 1.49020314
vt 1.26973355 -0.00094955659
vt 0.656203389 1.4900291
vt 0.37994951 1.4900291
vt 0.37994951 -0.00112352427
vt -0.233503044 -0.000949504843
vt 0.188326389 1.49020314
vt 0.384963781 1.4900291
vt 0.65141201 -0.00112352427
vt 0.38496381 -0.00112352427
vt 0.65141201 1.4900291
vt -1.47921693 0.22979641
vt 0.0628122017 0.260324568
vt 0.0933135375 0.229796574
vt -1.47921658 0.260324687
vt -2.08353543 0.109444417
vt -0.408365011 0.0441212431
vt -2.08353543 0.0441212431
vt -0.408365011 0.109444417
vt 0.150559425 0.0441212431
vt 0.150559425 0.109444417
vt 1.28892493 0.0441212431
vt 1.28892493 0.109444417
vt 2.00380993 0.0441212431
vt 2.00380993 0.109444417
vt 2.60180235 0.0441212431
vt 2.60180235 0.109444417
vt 3.31672907 0.0441212431
vt 3.31672907 0.109444417
vt 4.45015383 0.0441212431
vt 4.45015383 0.109444417
vt 4.45509481 0.0441212431
vt 4.45509481 0.109444417
vt 4.46047211 0.0441212431
vt 4.46047211 0.109444417
vt 5.01401949 0.0441212431
vt 5.01401949 0.109444417
vt 6.68967056 0.0441212431
vt 6.68967056 0.109444417
vt 0.0430160165 0.229012504
vt -1.49839342 0.259528309
vt 0.0735051036 0.25952825
vt -1.49839342 0.229012251
vt -2.08353543 0.109444417
vt -0.408365011 0.0441212431
vt -2.08353543 0.0441212431
vt -0.408365011 0.109444417
vt 0.150559425 0.0441212431
vt 0.150559425 0.109444417
vt 1.28892493 0.0441212431
vt 1.28892493 0.109444417
vt 2.00380993 0.0441212431
vt 2.00380993 0.109444417
vt 2.60184431 0.0441212431
vt 2.60184431 0.109444417
vt 3.31672907 0.0441212431
vt 3.31672907 0.109444417
vt 4.45034218 0.0441212431
vt 4.45034218 0.109444417
vt 4.45509481 0.0441212431
vt 4.45509481 0.109444417
vt 4.4598465 0.0441212431
vt 4.4598465 0.109444417
vt 5.01401949 0.0441212431
vt 5.01401949 0.109444417
vt 6.68967056 0.0441212431
vt 6.68967056 0.109444417
vt 0.60185051 0.227947101
vt 0.107768945 0.26040864
vt 0.571414471 0.258594632
vt 0.0771490857 0.229999542
vt 0.588855028 0.259734988
vt 0.0862592161 0.228686422
vt 0.0552405417 0.259733289
vt 0.557780623 0.22868821
vt 1.64701986 0.227932692
vt 0.609084249 0.258461058
vt 1.63673258 0.258460999
vt 0.578528643 0.227932736
vt 1.64717054 0.259696811
vt 0.600894988 0.228923231
vt 0.570093751 0.259696901
vt 1.63680053 0.228923187
vt 2.31544495 0.229456738
vt 1.6545527 0.258601427
vt 2.30024171 0.259953201
vt 1.64432943 0.228051662
vt 2.32068133 0.259852022
vt 1.64863634 0.228690803
vt 1.63816917 0.259735674
vt 2.30528998 0.228802785
vt 2.86603856 0.231331423
vt 2.32063699 0.260051519
vt 2.85089731 0.261858851
vt 2.30549955 0.229522273
vt 2.8726871 0.257867336
vt 2.32290506 0.228883475
vt 2.30764413 0.259657115
vt 2.85742593 0.227093697
vt 3.52810764 0.229229033
vt 2.87660265 0.260026515
vt 3.51783276 0.259761572
vt 2.86145067 0.229504436
vt 2.88046455 0.228778198
vt 3.54304981 0.259711802
vt 3.53258252 0.228666961
vt 2.86507344 0.259827465
vt 3.53566885 0.259636074
vt 4.58941269 0.229107663
vt 3.52538157 0.229107752
vt 4.55888462 0.259635985
vt 4.5938735 0.229107663
vt 4.56334543 0.259635985
vt 4.60662222 0.259657174
vt 3.54441118 0.228883594
vt 3.5340414 0.259657174
vt 4.57584858 0.22888355
vt 4.58034515 0.22888355
vt 4.61111879 0.259657174
vt 5.09526825 0.230594009
vt 4.60545969 0.259612143
vt 5.06464577 0.261028081
vt 4.57502556 0.228989869
vt 4.60099888 0.259598374
vt 4.57056475 0.228976116
vt 5.09494591 0.228776783
vt 4.59691429 0.259823471
vt 5.12599277 0.259823471
vt 4.62796116 0.228776753
vt 4.59237766 0.259823471
vt 4.62342453 0.228776753
vt 6.64723396 0.229609132
vt 5.10476446 0.260137439
vt 6.64723396 0.260137439
vt 5.07423639 0.229609132
vt 6.68006325 0.259528279
vt 5.13821316 0.22901237
vt 5.10769749 0.259528428
vt 6.68006325 0.229012236
vt -1.0802747 0.228914678
vt -1.46699274 0.259625882
vt -1.0802747 0.259625852
vt -1.46699274 0.228914738
vt -1.47436047 0.259625942
vt -1.08261645 0.228914738
vt -1.46781135 0.228914738
vt -1.08261645 0.259625882
vt -1.6320647 0.0441212431
vt -2.0465951 0.109444417
vt -1.6320647 0.109444417
vt -2.0465951 0.0441212431
vt -2.05449271 0.109444417
vt -1.63457465 0.0441212431
vt -2.05449271 0.0441212431
vt -1.63457465 0.109444417
vt -1.0802747 0.228914782
vt -1.46699274 0.259625882
vt -1.0802747 0.259625912
vt -1.46699274 0.228914738
vt -1.47436047 0.259625852
vt -1.08261645 0.228914738
vt -1.47436047 0.228914708
vt -1.08261645 0.259625882
vt -1.6320647 0.0441212431
vt -2.0465951 0.109444417
vt -1.6320647 0.109444417
vt -2.0465951 0.0441212431
vt -2.05449271 0.109444417
vt -1.63457465 0.0441212431
vt -2.05449271 0.0441212431
vt -1.63457465 0.109444417
vt -1.0802747 0.228914693
vt -1.46699274 0.259625882
vt -1.0802747 0.259625852
vt -1.46699274 0.228914738
vt -1.47436047 0.259625942
vt -1.08261645 0.228914738
vt -1.46781135 0.228914738
vt -1.08261645 0.259625882
vt -1.6320647 0.0441212431
vt -2.0465951 0.109444417
vt -1.6320647 0.109444417
vt -2.0465951 0.0441212431
vt -2.05449271 0.109444417
vt -1.63457465 0.0441212431
vt -2.05449271 0.0441212431
vt -1.63457465 0.109444417
vt -1.0802747 0.228914782
vt -1.46699274 0.259625882
vt -1.0802747 0.259625912
vt -1.46699274 0.228914738
vt -1.47436047 0.259625822
vt -1.08261645 0.228914738
vt -1.47436047 0.228914708
vt -1.08261645 0.259625882
vt -1.6320647 0.0441212431
vt -2.0465951 0.109444417
vt -1.6320647 0.109444417
vt -2.0465951 0.0441212431
vt -2.05449271 0.109444417
vt -1.63457465 0.0441212431
vt -2.05449271 0.0441212431
vt -1.63457465 0.109444417
vt -1.17536032 0.227119803
vt -1.48407006 0.261420876
vt -1.1410594 0.261420846
vt -1.51837122 0.227119789
vt -2.08353543 0.109444417
vt -1.71535373 0.0441212431
vt -2.08353543 0.0441212431
vt -1.71535373 0.109444417
vt -1.26662731 0.0441212431
vt -1.26662731 0.109444417
vt -0.438258648 0.0441212431
vt -0.438258648 0.109444417
vt 0.38738513 0.0441212431
vt 0.38738513 0.109444417
vt 0.643605232 0.0441212431
vt 0.643605232 0.109444417
vt 1.4691689 0.0441212431
vt 1.4691689 0.109444417
vt 2.29761791 0.0441212431
vt 2.29761791 0.109444417
vt 2.74634409 0.0441212431
vt 2.74634409 0.109444417
vt 3.11452579 0.0441212431
vt 3.11452579 0.109444417
vt 3.50570869 0.109444417
vt 3.50570869 0.0441212431
vt -1.48406172 0.227128193
vt -1.17536879 0.261412501
vt -1.14106774 0.227111459
vt -1.51836276 0.26142928
vt -2.08353543 0.109444417
vt -1.71535373 0.0441212431
vt -2.08353543 0.0441212431
vt -1.71535373 0.109444417
vt -1.26662731 0.0441212431
vt -1.26662731 0.109444417
vt -0.438258648 0.0441212431
vt -0.438258648 0.109444417
vt 0.38738513 0.0441212431
vt 0.38738513 0.109444417
vt 0.643605232 0.0441212431
vt 0.643605232 0.109444417
vt 1.4691689 0.0441212431
vt 1.4691689 0.109444417
vt 2.29761791 0.0441212431
vt 2.29761791 0.109444417
vt 2.74634409 0.0441212431
vt 2.74634409 0.109444417
vt 3.11452579 0.0441212431
vt 3.11452579 0.109444417
vt -0.773944616 0.227143645
vt -1.15768838 0.261444718
vt -0.739643395 0.261444688
vt -1.12338746 0.227143586
vt -0.773946106 0.261419326
vt -1.15768695 0.227118254
vt -1.12338901 0.261422366
vt -0.739641964 0.227121308
vt 0.0153166652 0.227119714
vt -0.744412661 0.261420816
vt 0.0273627937 0.261420816
vt -0.710111499 0.227119669
vt 0.0153138638 0.261408657
vt -0.7444098 0.227132171
vt -0.710108757 0.261433244
vt 0.0273599625 0.22710751
vt 0.0350790322 0.261393726
vt 0.787778139 0.227192774
vt 0.0471297503 0.227094233
vt 0.804244399 0.261495948
vt 1.0260669 0.227120027
vt 0.820326447 0.227119774
vt 1.04253745 0.261421204
vt 1.79922581 0.227070376
vt 1.81127644 0.261369824
vt 1.05857801 0.227168933
vt 0.787778199 0.261354446
vt 0.0350789726 0.227153629
vt 0.0471289158 0.26145345
vt 0.804245293 0.22705166
vt 1.02606523 0.261459708
vt 0.820324898 0.261461526
vt 1.042539 0.227160037
vt 1.79922485 0.261500001
vt 1.05857813 0.261401653
vt 1.81127644 0.227200791
vt 2.55646729 0.227119744
vt 1.81899357 0.261420906
vt 2.59076834 0.261420846
vt 1.83103967 0.227119818
vt 2.55646992 0.261368871
vt 1.81899083 0.227092355
vt 1.83103693 0.261393428
vt 2.59077096 0.227067754
vt 2.96978045 0.227089956
vt 2.58603692 0.261391073
vt 3.00408125 0.261391073
vt 2.6203382 0.227090001
vt 2.96977925 0.261443257
vt 2.58603907 0.22714214
vt 2.62033725 0.261446178
vt 3.0040834 0.227145121
vt 3.33046341 0.261420816
vt 3.02175426 0.227119744
vt 2.98745322 0.261420816
vt 3.36476445 0.227119744
vt 3.33047175 0.227111399
vt 3.02174592 0.26142922
vt 3.3647728 0.261412472
vt 2.98744488 0.227128178
vt 3.71254086 0.261420876
vt 3.31379128 0.227119803
vt 3.34809232 0.261420906
vt 3.74684191 0.227119803
vt 3.74684191 0.261420816
vt 3.34809232 0.227119729
vt 3.31379128 0.261420816
vt 3.71254086 0.227119759
vt -1.69355476 0.109444417
vt -2.08473778 0.0441212431
vt -2.08473778 0.109444417
vt -1.69355476 0.0441212431
vt -0.929867685 0.259625882
vt -1.46699274 0.228914738
vt -1.46699274 0.259625882
vt -0.929867685 0.228914738
vt -1.47084022 0.109444417
vt -2.0465951 0.0441212431
vt -2.0465951 0.109444417
vt -1.47084022 0.0441212431
vt -0.929867685 0.259625882
vt -1.46699274 0.228914738
vt -1.46699274 0.259625882
vt -0.929867685 0.228914738
vt -1.47084022 0.109444417
vt -2.0465951 0.0441212431
vt -2.0465951 0.109444417
vt -1.47084022 0.0441212431
vt -1.1804862 0.259625882
vt -1.46699274 0.228914738
vt -1.46699274 0.259625882
vt -1.1804862 0.228914738
vt -1.1804862 0.259625882
vt -1.46699274 0.228914738
vt -1.46699274 0.259625882
vt -1.1804862 0.228914738
vt -1.73948312 0.109444417
vt -2.04659486 0.0441212431
vt -2.04659486 0.109444417
vt -1.73948312 0.0441212431
vt -1.73948312 0.109444417
vt -2.04659486 0.0441212431
vt -2.04659486 0.109444417
vt -1.73948312 0.0441212431
vt -0.929867685 0.259625882
vt -1.46699274 0.228914738
vt -0.929867685 0.228914738
vt -1.46699274 0.259625882
vt -1.47084022 0.109444417
vt -2.0465951 0.0441212431
vt -1.47084022 0.0441212431
vt -2.0465951 0.109444417
vt -0.929867685 0.259625882
vt -1.46699274 0.228914738
vt -0.929867685 0.228914738
vt -1.46699274 0.259625882
vt -1.47084022 0.109444417
vt -2.0465951 0.0441212431
vt -1.47084022 0.0441212431
vt -2.0465951 0.109444417
vt -1.1804862 0.259625882
vt -1.46699274 0.228914738
vt -1.1804862 0.228914738
vt -1.46699274 0.259625882
vt -1.1804862 0.259625882
vt -1.46699274 0.228914738
vt -1.1804862 0.228914738
vt -1.46699274 0.259625882
vt -1.73948312 0.109444417
vt -2.0465951 0.0441212431
vt -1.73948312 0.0441212431
vt -2.0465951 0.109444417
vt -1.73948312 0.109444417
vt -2.0465951 0.0441212431
vt -1.73948312 0.0441212431
vt -2.0465951 0.109444417
vt 0.602025688 -0.00133460818
vt -0.40596199 0.520811021
vt 0.385175854 0.520533681
vt -0.406805277 -0.00105726987
vt 0.253135622 0.498099029
vt -0.471642643 1.02132499
vt 0.160766885 1.02132487
vt -0.564010978 0.498099029
vt 0.610862494 -0.00105725555
vt -0.184986874 0.520533681
vt 0.610014975 0.520811081
vt -0.402895898 -0.00133460818
vt 0.24894619 0.49739486
vt -0.469032794 1.02062082
vt 0.158913583 1.02062082
vt -0.559065461 0.49739486
vt 0.87233007 1.10737038
vt -0.0311380867 1.04406571
vt -0.0283965431 1.10881948
vt 0.898410797 1.04503679
vt 0.0187441632 1.10737038
vt 0.919461071 1.04410267
vt -0.00660670269 1.04551387
vt 0.919467866 1.10881948
vt 0.00128784985 1.23058021
vt 0.635068595 1.26124656
vt 0.650728345 1.23143792
vt 0.00801214576 1.26041842
vt 0.240351021 1.23058939
vt 0.00801214576 1.26041842
vt 0.224730402 1.26041842
vt -0.00857397262 1.23058939
vt 0.640943944 1.23227131
vt 0.00801217556 1.26041842
vt 0.635066569 1.26208508
vt -0.00849454664 1.23054528
vt -0.0555077046 1.2286582
vt 1.01610076 1.26041818
vt 1.0218991 1.23058939
vt -0.0237477794 1.26041842
vt -0.0555085391 2.11794424
vt -0.0237485543 2.08618402
vt 1.01609993 2.08618402
vt 1.02431309 2.11634731
vt 0.221175462 1.04408276
vt 0.0105969887 1.10741031
vt 0.22011207 1.10787416
vt 0.00899602938 1.04408276
vt 0.0405052081 1.04408276
vt 0.740736961 1.10880148
vt 0.698298395 1.04408276
vt -0.00193290599 1.10880148
vt 0.562172413 1.10787416
vt 0.0620532334 1.04503679
vt 0.0194750205 1.10784745
vt 0.517623007 1.04408276
vt 0.458306909 0.718440771
vt 0.15610534 0.995932341
vt 0.304197609 0.995932341
vt 0.00227102102 0.718931794
vt 0.813477278 0.442157805
vt -0.00686420361 1.04182506
vt 0.0293056052 1.06603074
vt 0.055577103 1.04408276
vt 0.553492248 1.10784745
vt 0.511139393 1.04503679
vt 0.0107965041 1.10787416
g submesh0
f 1/1 2/2 3/3
f 2/2 1/1 4/4
f 1/1 5/5 4/4
f 5/5 1/1 6/6
f 7/7 5/5 6/6
f 5/5 7/7 8/8
f 9/9 10/10 11/11
f 10/10 9/9 12/12
f 13/13 14/14 15/15
f 14/14 13/13 16/16
f 17/17 18/18 19/19
f 18/18 17/17 20/20
f 20/20 21/21 18/18
f 21/21 20/20 22/22
f 22/22 23/23 21/21
f 23/23 22/22 24/24
f 24/24 25/25 23/23
f 25/25 24/24 26/26
f 26/26 27/27 25/25
f 27/27 26/26 28/28
f 28/28 29/29 27/27
f 29/29 28/28 30/30
f 30/30 31/31 29/29
f 31/31 30/30 32/32
f 32/32 33/33 31/31
f 33/33 32/32 34/34
f 34/34 35/35 33/33
f 35/35 34/34 36/36
f 36/36 37/37 35/35
f 37/37 36/36 38/38
f 38/38 39/39 37/37
f 39/39 38/38 40/40
f 41/41 42/42 43/43
f 42/42 41/41 44/44
f 45/45 46/46 47/47
f 46/46 45/45 48/48
f 48/48 49/49 46/46
f 49/49 48/48 50/50
f 50/50 51/51 49/49
f 51/51 50/50 52/52
f 52/52 53/53 51/51
f 53/53 52/52 54/54
f 54/54 55/55 53/53
f 55/55 54/54 56/56
f 56/56 57/57 55/55
f 57/57 56/56 58/58
f 58/58 59/59 57/57
f 59/59 58/58 60/60
f 60/60 61/61 59/59
f 61/61 60/60 62/62
f 62/62 63/63 61/61
f 63/63 62/62 64/64
f 64/64 65/65 63/63
f 65/65 64/64 66/66
f 66/66 67/67 65/65
f 67/67 66/66 68/68
f 69/69 70/70 71/71
f 70/70 69/69 72/72
f 73/73 74/74 75/75
f 74/74 73/73 76/76
f 77/77 78/78 79/79
f 78/78 77/77 80/80
f 81/81 82/82 83/83
f 82/82 81/81 84/84
f 85/85 86/86 87/87
f 86/86 85/85 88/88
f 89/89 90/90 91/91
f 90/90 89/89 92/92
f 93/93 94/94 95/95
f 94/94 93/93 96/96
f 97/97 98/98 99/99
f 98/98 97/97 100/100
f 101/101 102/102 103/103
f 102/102 101/101 104/104
f 105/105 106/106 107/107
f 106/106 105/105 108/108
f 109/109 110/110 111/111
f 110/110 109/109 112/112
f 112/112 113/113 110/110
f 113/113 112/112 114/114
f 115/115 116/116 117/117
f 116/116 115/115 118/118
f 115/115 119/119 118/118
f 119/119 115/115 120/120
f 121/121 122/122 123/123
f 122/122 121/121 124/124
f 124/124 125/125 122/122
f 125/125 124/124 126/126
f 127/127 128/128 129/129
f 128/128 127/127 130/130
f 130/130 131/131 128/128
f 131/131 130/130 132/132
f 133/133 134/134 135/135
f 134/134 133/133 136/136
f 137/137 138/138 139/139
f 138/138 137/137 140/140
f 141/141 142/142 143/143
f 142/142 141/141 144/144
f 145/145 146/146 147/147
f 146/146 145/145 148/148
f 149/149 150/150 151/151
f 150/150 149/149 152/152
f 153/153 154/154 155/155
f 154/154 153/153 156/156
f 157/157 158/158 159/159
f 158/158 157/157 160/160
f 161/161 162/162 163/163
f 162/162 161/161 164/164
f 165/165 166/166 167/167
f 166/166 165/165 168/168
f 169/169 170/170 171/171
f 170/170 169/169 172/172
f 173/173 174/174 175/175
f 174/174 173/173 176/176
f 177/177 178/178 179/179
f 178/178 177/177 180/180
f 181/181 182/182 183/183
f 182/182 181/181 184/184
f 185/185 186/186 187/187
f 186/186 185/185 188/188
f 189/189 190/190 191/191
f 190/190 189/189 192/192
f 193/193 194/194 195/195
f 194/194 193/193 196/196
f 197/197 198/198 199/199
f 198/198 197/197 200/200
f 201/201 202/202 203/203
f 202/202 201/201 204/204
f 205/205 206/206 207/207
f 206/206 205/205 208/208
f 209/209 210/210 211/211
f 210/210 209/209 212/212
f 212/212 213/213 210/210
f 213/213 212/212 214/214
f 214/214 215/215 213/213
f 215/215 214/214 216/216
f 216/216 217/217 215/215
f 217/217 216/216 218/218
f 218/218 219/219 217/217
f 219/219 218/218 220/220
f 220/220 221/221 219/219
f 221/221 220/220 222/222
f 222/222 223/223 221/221
f 223/223 222/222 224/224
f 224/224 225/225 223/223
f 225/225 224/224 226/226
f 226/226 227/227 225/225
f 227/227 226/226 228/228
f 229/229 227/227 228/228
f 227/227 229/229 230/230
f 231/231 232/232 233/233
f 232/232 231/231 234/234
f 235/235 236/236 237/237
f 236/236 235/235 238/238
f 238/238 239/239 236/236
f 239/239 238/238 240/240
f 240/240 241/241 239/239
f 241/241 240/240 242/242
f 242/242 243/243 241/241
f 243/243 242/242 244/244
f 244/244 245/245 243/243
f 245/245 244/244 246/246
f 246/246 247/247 245/245
f 247/247 246/246 248/248
f 248/248 249/249 247/247
f 249/249 248/248 250/250
f 250/250 251/251 249/249
f 251/251 250/250 252/252
f 252/252 253/253 251/251
f 253/253 252/252 254/254
f 255/255 256/256 257/257
f 256/256 255/255 258/258
f 259/259 260/260 261/261
f 260/260 259/259 262/262
f 263/263 264/264 265/265
f 264/264 263/263 266/266
f 267/267 268/268 269/269
f 268/268 267/267 270/270
f 271/271 272/272 273/273
f 272/272 271/271 274/274
f 274/274 275/275 276/276
f 275/275 274/274 277/277
f 278/278 277/277 279/279
f 277/277 278/278 280/280
f 281/281 282/282 283/283
f 282/282 281/281 284/284
f 285/285 284/284 286/286
f 284/284 285/285 287/287
f 288/288 287/287 289/289
f 287/287 288/288 290/290
f 291/291 292/292 293/293
f 292/292 291/291 294/294
f 295/295 296/296 297/297
f 296/296 295/295 298/298
f 299/299 300/300 301/301
f 300/300 299/299 302/302
f 303/303 304/304 305/305
f 304/304 303/303 306/306
f 307/307 308/308 309/309
f 308/308 307/307 310/310
f 311/311 312/312 313/313
f 312/312 311/311 314/314
f 315/315 316/316 317/317
f 316/316 315/315 318/318
f 319/319 320/320 321/321
f 320/320 319/319 322/322
f 323/323 324/324 325/325
f 324/324 323/323 326/326
f 327/327 328/328 329/329
f 328/328 327/327 330/330
f 331/331 332/332 333/333
f 332/332 331/331 334/334
f 335/335 336/336 337/337
f 336/336 335/335 338/338
f 339/339 340/340 341/341
f 340/340 339/339 342/342
f 343/343 344/344 345/345
f 344/344 343/343 346/346
f 347/347 348/348 349/349
f 348/348 347/347 350/350
f 351/351 352/352 353/353
f 352/352 351/351 354/354
f 355/355 356/356 357/357
f 356/356 355/355 358/358
f 359/359 360/360 361/361
f 360/360 359/359 362/362
f 363/363 364/364 365/365
f 364/364 363/363 366/366
f 367/367 368/368 369/369
f 368/368 367/367 370/370
f 371/371 372/372 373/373
f 372/372 371/371 374/374
f 375/375 376/376 377/377
f 376/376 375/375 378/378
f 379/379 380/380 381/381
f 380/380 379/379 382/382
f 383/383 384/384 385/385
f 384/384 383/383 386/386
f 387/387 388/388 389/389
f 388/388 387/387 390/390
f 391/391 392/392 393/393
f 392/392 391/391 394/394
f 395/395 396/396 397/397
f 396/396 395/395 398/398
f 399/399 400/400 401/401
f 400/400 399/399 402/402
f 403/403 404/404 405/405
f 404/404 403/403 406/406
f 407/407 408/408 409/409
f 408/408 407/407 410/410
f 411/411 412/412 413/413
f 412/412 411/411 414/414
f 415/415 416/416 417/417
f 416/416 415/415 418/418
f 419/419 420/420 421/421
f 420/420 419/419 422/422
f 423/423 424/424 425/425
f 424/424 423/423 426/426
f 427/427 428/428 429/429
f 427/427 430/430 428/428
f 431/431 430/430 427/427
f 431/431 432/432 430/430
f 431/431 433/433 432/432
f 434/434 433/433 431/431
f 435/435 436/436 437/437
f 436/436 435/435 438/438
f 439/439 440/440 441/441
f 440/440 439/439 442/442
f 443/443 444/444 445/445
f 444/444 443/443 446/446
f 447/447 448/448 449/449
f 448/448 447/447 450/450
f 451/451 450/450 452/452
f 450/450 451/451 453/453
f 454/454 455/455 456/456
f 455/455 454/454 457/457
