# triangleplanter_COL
v 0.573761225 0.00346368551 -1.25412512
v 0.573761225 0.00346368551 1.25002956
v -1.62971663 0.00346368551 -0.00204783678
v -1.62971663 0.53189522 -0.00204783678
v 0.573761225 0.53189522 1.25002956
v 0.573761225 0.53189522 -1.25412512
v 0.573761225 0.53189522 1.25002956
v 0.573761225 0.00346368551 1.25002956
v 0.573761225 0.00346368551 -1.25412512
v 0.573761225 0.53189522 -1.25412512
v 0.573761225 0.53189522 -1.25412512
v 0.573761225 0.00346368551 -1.25412512
v -1.62971663 0.00346368551 -0.00204783678
v -1.62971663 0.53189522 -0.00204783678
v -1.62971663 0.53189522 -0.00204783678
v -1.62971663 0.00346368551 -0.00204783678
v 0.573761225 0.00346368551 1.25002956
v 0.573761225 0.53189522 1.25002956
vn 0 -1 0
vn 0 -1 0
vn 0 -1 0
vn 0 1 0
vn 0 1 0
vn 0 1 0
vn 1 0 0
vn 1 0 0
vn 1 0 0
vn 1 0 0
vn -0.494039625 0 -0.869439423
vn -0.494039625 0 -0.869439423
vn -0.494039625 0 -0.869439423
vn -0.494039625 0 -0.869439423
vn -0.494039625 0 0.869439423
vn -0.494039625 0 0.869439423
vn -0.494039625 0 0.869439423
vn -0.494039625 0 0.869439423
g submesh0
f 1//1 2//2 3//3
f 4//4 5//5 6//6
f 7//7 8//8 9//9
f 7//7 9//9 10//10
f 11//11 12//12 13//13
f 11//11 13//13 14//14
f 15//15 16//16 17//17
f 15//15 17//17 18//18
