# trumpet_tree_b_COL
v 0.0214788094 8.97934914 -0.250254631
v 0.0434340946 8.99034595 -0.140185684
v 0.071115762 8.60942936 -0.123587169
v -0.0281185675 8.992033 -0.049564559
v 0.0512565114 8.60600281 -0.232484847
v -0.0639811903 8.96532631 -0.316846251
v 0.0153690502 8.61041641 -0.028282756
v -0.093062669 8.60764503 -0.00640825508
v -0.139246523 8.98295784 -0.0374156907
v -0.192999735 8.60282326 -0.0604270771
v -0.227889419 8.96947098 -0.10285487
v -0.208272338 8.5990839 -0.172522143
v -0.247310907 8.95699787 -0.215090886
v -0.152209848 8.59843636 -0.265560389
v -0.174782485 8.95611095 -0.304660648
v -0.0448661223 8.6012907 -0.288835227
v 0.0623538382 8.21336269 -0.161013573
v 0.0169813968 8.21083736 -0.0517864227
v -0.0926857665 8.21890163 -0.0059092436
v -0.200124055 8.2319479 -0.0531995744
v -0.244379282 8.24270439 -0.160838768
v 0.0202837754 8.22385883 -0.272947162
v -0.200757384 8.24448967 -0.27051723
v -0.0913236961 8.23699188 -0.316850364
v 0.012600203 7.83529091 -0.121127367
v 0.050834287 7.85175419 -0.229769871
v -0.0151250213 7.86801434 -0.333959728
v -0.134883568 7.87180853 -0.350509703
v -0.223489583 7.86176443 -0.283796668
v -0.262309581 7.84541225 -0.176330715
v -0.197685346 7.82881641 -0.0711058378
v -0.0772298872 7.8258462 -0.0545969084
v 0.0296501201 7.45018244 -0.190473616
v 0.0332610011 7.46417093 -0.315542877
v -0.0545957275 7.47913504 -0.397375405
v -0.177199259 7.48937368 -0.414228767
v -0.266432971 7.48518276 -0.323036045
v -0.271281481 7.47114182 -0.200076535
v -0.299017578 7.13709354 -0.190233991
v -0.185881749 7.45562649 -0.115162179
v -0.0615830868 7.4455986 -0.0996233821
v -0.199595124 7.13213015 -0.114154279
v -0.0832837448 7.10104465 -0.1370942
v -0.312182009 7.11438179 -0.307619482
v -0.022443356 7.06698227 -0.229207113
v -0.259247065 6.78052855 0.016293468
v -0.0338848159 7.0433774 -0.345737219
v -0.133877739 7.05027437 -0.416687548
v -0.246647969 7.0798173 -0.396575779
v -0.137423992 6.67889404 -0.229764253
v -0.142912686 6.74956322 -0.0156140653
v -0.243211836 6.67866993 -0.288907588
v -0.3597579 6.70946932 -0.256491363
v -0.412808061 6.7533288 -0.150832817
v -0.364660412 6.77995157 -0.0417105183
v -0.416307777 6.36792898 -0.167304918
v -0.0939479396 6.70689869 -0.121277861
v -0.271856189 6.38859844 0.10136047
v -0.457105547 6.38286686 -0.0502001978
v -0.165718421 6.37476444 0.0308269057
v -0.127156824 6.35995102 -0.0864384025
v -0.192022145 6.35221672 -0.192443714
v -0.390495062 6.39049625 0.0548747443
v -0.311302841 6.35469913 -0.23662135
v -0.145789683 6.00124884 0.0301471092
v -0.243803039 5.99953985 0.111559272
v -0.368593395 5.99625349 0.0935787261
v -0.447409779 5.99195957 -0.0019163125
v -0.438162446 5.98995972 -0.127548948
v -0.130875379 5.99898624 -0.0964011326
v -0.340473711 5.9901309 -0.217867196
v -0.213083103 5.99476862 -0.190301642
v -0.322811306 5.61280489 0.112397589
v -0.423066348 5.60775137 0.0266261976
v -0.197461069 5.62131596 0.0939873755
v -0.43515715 5.60992718 -0.106643796
v -0.105695166 5.62956524 0.00508946646
v -0.11460916 5.63198948 -0.128773555
v -0.341893762 5.61784267 -0.195073739
v -0.217090085 5.62751675 -0.213447794
v -0.277313769 5.25861502 0.135845959
v -0.389432371 5.24784613 0.06019352
v -0.146662638 5.2597394 0.0955880359
v -0.426145047 5.23517561 -0.0675458834
v -0.077261582 5.25157881 -0.0186412688
v -0.113180727 5.23884583 -0.145848885
v -0.353134006 5.22830915 -0.17706649
v -0.225793794 5.22800159 -0.223047808
v -0.225386694 4.88007689 0.164142534
v -0.347021312 4.86408043 0.117105946
v -0.105407566 4.88847923 0.108427167
v -0.405766666 4.84888983 -0.00023656174
v -0.0556646623 4.88390541 -0.0157541074
v -0.110873789 4.86868191 -0.13930583
v -0.362636626 4.84340572 -0.130387038
v -0.237113237 4.85211849 -0.181605175
v -0.149858445 4.48586416 0.18219848
v -0.287123799 4.47442913 0.157742515
v -0.0315289684 4.50175714 0.104299277
v -0.369515806 4.47337151 0.043592032
v -0.0107948286 4.51212645 -0.037356656
v -0.0946170762 4.5108881 -0.148971811
v -0.345877349 4.48382711 -0.0954972282
v -0.230869472 4.499722 -0.176182896
v -0.206344977 4.09867382 0.146195889
v -0.0627387241 4.11876869 0.148301765
v 0.0382362157 4.14196682 0.0447968915
v 0.0316446759 4.15313101 -0.0988534987
v -0.0687110424 4.14755058 -0.200748503
v -0.211903811 4.12725973 -0.20051603
v -0.310498536 4.10463858 -0.0976775885
v 0.0927230716 3.76887727 -0.00408631936
v 0.0596752837 3.77053833 -0.1440835
v -0.0559515692 3.76084852 -0.218209907
v -0.306526273 4.09303331 0.0446098521
v -0.190805927 3.74588346 -0.19689405
v -0.27264598 3.73312545 -0.0827807114
v -0.24444513 3.73145866 0.0551973507
v -0.130222619 3.74043179 0.136738226
v 0.00649579056 3.75564408 0.109397493
v 0.072431989 3.38744307 -0.177726582
v -0.0566332266 3.37949872 -0.233811677
v -0.188004121 3.3707366 -0.184658259
v -0.239750549 3.366992 -0.0570365638
v 0.124082431 3.39019251 -0.0442801043
v -0.198398247 3.36871171 0.0756950676
v 0.0618620254 3.38548994 0.083049193
v -0.0685735494 3.37674928 0.132611409
v -0.0638866201 2.99737573 -0.232712537
v 0.0737457946 3.00873303 -0.197705105
v -0.187544018 2.99040008 -0.161261514
v 0.157301426 3.01817203 -0.0756915808
v -0.23704733 2.99120021 -0.0187238585
v -0.149283946 3.00134277 0.10329362
v 0.111047588 3.01911116 0.0653787851
v -0.0118385898 3.01207685 0.135629743
v -0.0713027939 2.62241149 -0.226214826
v 0.0831880644 2.63445187 -0.222218931
v -0.186419204 2.6153872 -0.127720371
v 0.177978531 2.64385247 -0.10039755
v -0.195464075 2.61723661 0.0232516546
v -0.100237235 2.62754989 0.143957064
v 0.169343814 2.6465838 0.0515546836
v 0.0516369231 2.63934278 0.144669697
v -0.0326861404 2.24986982 0.154044017
v 0.1160229 2.26078272 0.135625124
v 0.211504251 2.26730919 0.0199365038
v 0.191917002 2.26516891 -0.128038406
v 0.0785049126 2.25654936 -0.224475265
v -0.0712987334 2.24587846 -0.208384648
v -0.166228905 2.23955941 -0.0908837989
v -0.147190213 2.24128032 0.0576800443
v 0.157679915 1.87932658 0.12634033
v 0.237782627 1.87733352 -0.0070545082
v 0.18513611 1.8753041 -0.151847154
v 0.0547532104 1.87372732 -0.230811402
v 0.011191966 1.88027096 0.172533467
v -0.0927536562 1.87446177 -0.184619963
v -0.120362893 1.87935936 0.0950994641
v -0.171759695 1.87713373 -0.0504247397
v 0.227834314 1.49335217 -0.0367055535
v 0.169479102 1.49756742 0.10772112
v 0.159577265 1.49408627 -0.185244054
v 0.0344962962 1.50387049 0.17903547
v 0.00362274097 1.49950266 -0.225691393
v -0.128603235 1.50525582 -0.151634663
v -0.114256188 1.50871885 0.132729113
v -0.190866232 1.50957227 -0.00819967315
v 0.210176468 1.1238364 -0.0733055174
v 0.180036202 1.12336969 0.0775027126
v 0.113316439 1.12604463 -0.194786265
v 0.061998371 1.12407887 0.176872939
v -0.0405689888 1.12833917 -0.224699855
v -0.161838949 1.12974298 -0.12487863
v -0.0887698233 1.12680435 0.145662308
v -0.187611938 1.12894785 0.028521901
v 0.202730671 0.744278729 -0.110868916
v 0.202100337 0.748347819 0.0544242673
v 0.0810781568 0.745019436 -0.231100798
v 0.0889071822 0.75299412 0.165234447
v -0.083314009 0.748843491 -0.208492026
v -0.194774315 0.75424999 -0.0954677016
v -0.0720874891 0.757719457 0.185146332
v -0.197821826 0.757336617 0.0708857849
v 0.170086756 0.37237674 -0.124355733
v 0.214749545 0.378217578 0.0332158171
v 0.0380417518 0.367617607 -0.221939519
v 0.119812161 0.384581208 0.168256089
v -0.121589467 0.370531648 -0.179533154
v -0.224321529 0.375412792 -0.0455585979
v -0.0412772931 0.385123819 0.21450603
v -0.171667665 0.381900132 0.112843037
v 0.201423034 0.00397848012 -0.202012494
v -0.000124007624 0.00177064072 -0.26064387
v 0.260182142 0.00258303154 -0.000414904527
v -0.204577327 0.00365711353 -0.204724208
v -0.274763227 0.00253624097 0.00044081072
v 0.20438756 0.00475923764 0.204088748
v -0.203226998 0.00475268485 0.20522052
v 0.00027167736 0.00240546511 0.25464344
g submesh0
f 1 2 3
f 2 4 3
f 3 5 1
f 6 1 5
f 4 7 3
f 8 7 4
f 4 9 8
f 10 8 9
f 9 11 10
f 12 10 11
f 11 13 12
f 14 12 13
f 13 15 14
f 15 6 14
f 5 16 6
f 6 16 14
f 5 3 17
f 3 7 18
f 18 17 3
f 7 8 19
f 19 18 7
f 8 10 20
f 20 19 8
f 10 12 21
f 21 20 10
f 16 5 22
f 17 22 5
f 12 14 23
f 23 21 12
f 14 16 24
f 22 24 16
f 24 23 14
f 17 18 25
f 18 19 25
f 22 17 26
f 25 26 17
f 24 22 27
f 26 27 22
f 23 24 28
f 27 28 24
f 21 23 29
f 28 29 23
f 29 30 21
f 20 21 30
f 19 20 31
f 30 31 20
f 19 32 25
f 31 32 19
f 26 25 33
f 25 32 33
f 27 26 34
f 33 34 26
f 28 27 35
f 34 35 27
f 29 28 36
f 35 36 28
f 30 29 37
f 36 37 29
f 31 30 38
f 37 38 30
f 38 37 39
f 38 40 31
f 32 31 40
f 40 38 39
f 40 41 32
f 32 41 33
f 41 40 42
f 39 42 40
f 33 41 43
f 42 43 41
f 37 36 44
f 37 44 39
f 43 45 33
f 34 33 45
f 43 42 46
f 42 39 46
f 45 47 34
f 35 34 47
f 36 35 48
f 47 48 35
f 36 49 44
f 48 49 36
f 48 47 50
f 47 45 50
f 45 43 51
f 46 51 43
f 49 48 52
f 50 52 48
f 44 49 53
f 52 53 49
f 39 44 54
f 53 54 44
f 46 39 55
f 54 55 39
f 54 53 56
f 53 52 56
f 50 45 57
f 51 57 45
f 51 46 58
f 46 55 58
f 55 54 59
f 56 59 54
f 57 51 60
f 58 60 51
f 50 57 61
f 60 61 57
f 52 50 62
f 61 62 50
f 58 55 63
f 59 63 55
f 52 64 56
f 62 64 52
f 61 60 65
f 60 58 66
f 66 65 60
f 58 63 67
f 67 66 58
f 63 59 68
f 68 67 63
f 59 56 69
f 69 68 59
f 62 61 70
f 65 70 61
f 56 64 71
f 71 69 56
f 64 62 72
f 70 72 62
f 72 71 64
f 66 67 73
f 67 68 74
f 74 73 67
f 65 66 75
f 73 75 66
f 68 69 76
f 76 74 68
f 70 65 77
f 75 77 65
f 72 70 78
f 77 78 70
f 69 71 79
f 79 76 69
f 71 72 80
f 78 80 72
f 80 79 71
f 75 73 81
f 73 74 82
f 82 81 73
f 77 75 83
f 81 83 75
f 74 76 84
f 84 82 74
f 78 77 85
f 83 85 77
f 80 78 86
f 85 86 78
f 76 79 87
f 87 84 76
f 79 80 88
f 86 88 80
f 88 87 79
f 83 81 89
f 81 82 90
f 90 89 81
f 85 83 91
f 89 91 83
f 82 84 92
f 92 90 82
f 86 85 93
f 91 93 85
f 88 86 94
f 93 94 86
f 84 87 95
f 95 92 84
f 87 88 96
f 94 96 88
f 96 95 87
f 91 89 97
f 89 90 98
f 98 97 89
f 93 91 99
f 97 99 91
f 90 92 100
f 100 98 90
f 94 93 101
f 99 101 93
f 96 94 102
f 101 102 94
f 92 95 103
f 103 100 92
f 95 96 104
f 102 104 96
f 104 103 95
f 97 98 105
f 98 100 105
f 99 97 106
f 105 106 97
f 101 99 107
f 106 107 99
f 102 101 108
f 107 108 101
f 104 102 109
f 108 109 102
f 103 104 110
f 109 110 104
f 100 103 111
f 110 111 103
f 108 107 112
f 107 106 112
f 109 108 113
f 112 113 108
f 110 109 114
f 113 114 109
f 111 115 100
f 100 115 105
f 111 110 116
f 114 116 110
f 115 111 117
f 116 117 111
f 105 115 118
f 117 118 115
f 106 105 119
f 118 119 105
f 106 120 112
f 119 120 106
f 114 113 121
f 116 114 122
f 121 122 114
f 117 116 123
f 122 123 116
f 118 117 124
f 123 124 117
f 113 112 125
f 125 121 113
f 119 118 126
f 124 126 118
f 112 120 127
f 127 125 112
f 120 119 128
f 126 128 119
f 128 127 120
f 123 122 129
f 122 121 130
f 130 129 122
f 124 123 131
f 129 131 123
f 121 125 132
f 132 130 121
f 126 124 133
f 131 133 124
f 128 126 134
f 133 134 126
f 125 127 135
f 135 132 125
f 127 128 136
f 134 136 128
f 136 135 127
f 131 129 137
f 129 130 138
f 138 137 129
f 133 131 139
f 137 139 131
f 130 132 140
f 140 138 130
f 134 133 141
f 139 141 133
f 136 134 142
f 141 142 134
f 132 135 143
f 143 140 132
f 135 136 144
f 142 144 136
f 144 143 135
f 144 142 145
f 142 141 145
f 143 144 146
f 145 146 144
f 140 143 147
f 146 147 143
f 138 140 148
f 147 148 140
f 148 149 138
f 137 138 149
f 149 150 137
f 139 137 150
f 141 139 151
f 150 151 139
f 141 152 145
f 151 152 141
f 147 146 153
f 148 147 154
f 153 154 147
f 149 148 155
f 154 155 148
f 150 149 156
f 155 156 149
f 146 145 157
f 157 153 146
f 151 150 158
f 156 158 150
f 145 152 159
f 159 157 145
f 152 151 160
f 158 160 151
f 160 159 152
f 155 154 161
f 154 153 162
f 162 161 154
f 156 155 163
f 161 163 155
f 153 157 164
f 164 162 153
f 158 156 165
f 163 165 156
f 160 158 166
f 165 166 158
f 157 159 167
f 167 164 157
f 159 160 168
f 166 168 160
f 168 167 159
f 163 161 169
f 161 162 170
f 170 169 161
f 165 163 171
f 169 171 163
f 162 164 172
f 172 170 162
f 166 165 173
f 171 173 165
f 168 166 174
f 173 174 166
f 164 167 175
f 175 172 164
f 167 168 176
f 174 176 168
f 176 175 167
f 171 169 177
f 169 170 178
f 178 177 169
f 173 171 179
f 177 179 171
f 170 172 180
f 180 178 170
f 174 173 181
f 179 181 173
f 176 174 182
f 181 182 174
f 172 175 183
f 183 180 172
f 175 176 184
f 182 184 176
f 184 183 175
f 179 177 185
f 177 178 186
f 186 185 177
f 181 179 187
f 185 187 179
f 178 180 188
f 188 186 178
f 182 181 189
f 187 189 181
f 184 182 190
f 189 190 182
f 180 183 191
f 191 188 180
f 183 184 192
f 190 192 184
f 192 191 183
f 187 185 193
f 193 194 187
f 189 187 194
f 195 193 185
f 194 196 189
f 190 189 196
f 185 186 195
f 196 197 190
f 192 190 197
f 198 195 186
f 197 199 192
f 191 192 199
f 186 188 198
f 199 200 191
f 188 191 200
f 200 198 188
