# tunacan_walllight_LOD2
v 0.0795760155 0.180279717 0.0726209283
v 0.0792777389 -0.202781737 0.0718655363
v 0.0795523077 -0.201821879 -0.000549855991
v 0.0795523077 -0.201821879 -0.000549855991
v 0.0809130743 0.180863932 0.00095837086
v 0.0792777389 -0.202781737 0.0718655363
v -0.0907920226 -0.203717515 0.0728449896
v -0.090896681 -0.203384027 -0.000129208158
v -0.090896681 -0.203384027 -0.000129208158
v 0.0795523077 -0.201821879 -0.000549855991
v -0.090896681 -0.203384027 -0.000129208158
v -0.0907920226 -0.203717515 0.0728449896
v -0.0892887786 0.178846642 0.00171075715
v -0.0892887786 0.178846642 0.00171075715
v -0.0886583477 0.179655164 0.0739615709
v 0.0795760155 0.180279717 0.0726209283
v 0.0809130743 0.180863932 0.00095837086
v -0.0886583477 0.179655164 0.0739615709
v 0.0809130743 0.180863932 0.00095837086
v -0.0892887786 0.178846642 0.00171075715
v -0.0886583477 0.179655164 0.0739615709
v -0.0907920226 -0.203717515 0.0728449896
v 0.0792777389 -0.202781737 0.0718655363
v 0.0795760155 0.180279717 0.0726209283
v -0.0458682999 0.221295476 0.0808664113
v -0.15616475 0.221295476 0.178966641
v -0.15616475 0.661227167 0.178966612
v -0.0458682999 0.661227167 0.0808663964
v 0.0522319078 0.221295476 0.0914718434
v -0.0458682999 0.221295476 0.0808664113
v -0.0458682999 0.661227167 0.0808663964
v 0.0522319078 0.661227167 0.0914718285
v 0.134423971 0.221295476 0.187981248
v 0.0522319078 0.221295476 0.0914718434
v 0.0522319078 0.661227167 0.0914718285
v 0.134423971 0.661227167 0.187981203
v -0.15616475 0.221295476 0.178966641
v 0.134423971 0.221295476 0.187981248
v 0.134423971 0.661227167 0.187981203
v -0.15616475 0.661227167 0.178966612
v 0.0522319078 0.221295476 0.0914718434
v 0.134423971 0.221295476 0.187981248
v -0.15616475 0.221295476 0.178966641
v -0.0458682999 0.221295476 0.0808664113
v -0.15616475 0.661227167 0.178966612
v 0.134423971 0.661227167 0.187981203
v 0.0522319078 0.661227167 0.0914718285
v -0.0458682999 0.661227167 0.0808663964
v 0.0795523077 -0.201821879 -0.000549855991
v -0.090896681 -0.203384027 -0.000129208158
v -0.0892887786 0.178846642 0.00171075715
v 0.0809130743 0.180863932 0.00095837086
vn 0.9998523 -0.00329270074 0.0168692265
vn 0.999992609 -0.000786123623 0.00378106069
vn 0.999984145 -0.00111961074 0.00552312704
vn 0.0916705281 -0.691600025 -0.716439784
vn 0.695918262 0.185892999 -0.693643689
vn 0.00818431284 -0.999906301 -0.0109788124
vn 0.00547583308 -0.999974608 -0.00457751751
vn 0.0063912305 -0.999956846 -0.00674071861
vn -0.694976091 -0.17787981 -0.696682811
vn 0.0916705281 -0.691600025 -0.716439784
vn -0.694976091 -0.17787981 -0.696682811
vn -0.999988437 0.00432220986 0.002113058
vn -0.0957666114 0.695100486 -0.712505519
vn -0.999955416 0.00537364464 0.00776779093
vn -0.99994719 0.00554002263 0.00866325758
vn -0.00364784058 0.999960661 0.00808384363
vn -0.00578959752 0.999978423 0.00310822693
vn -0.00980953686 0.999932528 -0.00622570794
vn 0.695918262 0.185892999 -0.693643689
vn -0.0957666114 0.695100486 -0.712505519
vn 0.0073919287 -0.00223462051 0.999970198
vn 0.00577520858 -0.00294464012 0.999979019
vn 0.00635371078 -0.00269057974 0.999976277
vn 0.00797598995 -0.00197811262 0.999966264
vn -0.664586842 -9.50113872E-08 -0.747211039
vn -0.664586902 -1.10143255E-07 -0.747210979
vn -0.664586723 -5.18462997E-08 -0.747211158
vn -0.664586663 -3.67144324E-08 -0.747211218
vn 0.10748186 -5.10672251E-08 -0.994207025
vn 0.107481867 -5.49239587E-08 -0.994207025
vn 0.107481867 -3.1318713E-08 -0.994207025
vn 0.107481875 -2.74619829E-08 -0.994207025
vn 0.761319697 -5.03863298E-08 -0.648376584
vn 0.761319757 -4.27516014E-08 -0.648376524
vn 0.761319697 -7.78684921E-08 -0.648376644
vn 0.761319637 -8.5503217E-08 -0.648376703
vn -0.0310069583 7.45636726E-08 0.99951911
vn -0.0310069621 7.45636726E-08 0.99951911
vn -0.0310069546 7.45636726E-08 0.99951911
vn -0.0310069509 7.45636726E-08 0.99951911
vn -2.58064308E-08 -1 0
vn -3.27454863E-08 -1 0
vn -1.85132887E-08 -1 0
vn 0 -1 0
vn -1.440104E-07 1 0
vn 0 1 0
vn -7.02137442E-08 1 0
vn -3.31339493E-07 1 0
vn 0.0916705281 -0.691600025 -0.716439784
vn -0.694976091 -0.17787981 -0.696682811
vn -0.0957666114 0.695100486 -0.712505519
vn 0.695918262 0.185892999 -0.693643689
vt 0.925145924 0.468087465
vt 0.926164091 0.806855977
vt 0.990165055 0.805983245
vt 0.990165055 0.805983245
vt 0.988565028 0.467505723
vt 0.926164091 0.806855977
vt 0.775761962 0.808165133
vt 0.776634693 0.872747838
vt 0.776634693 0.872747838
vt 0.927327812 0.870856941
vt 0.711179197 0.808019638
vt 0.775761962 0.808165133
vt 0.712488353 0.469978452
vt 0.712488353 0.469978452
vt 0.776343822 0.469251126
vt 0.925145924 0.468087465
vt 0.926309586 0.404813915
vt 0.776343822 0.469251126
vt 0.926309586 0.404813915
vt 0.775907457 0.405250281
vt 0.776343822 0.469251126
vt 0.775761962 0.808165133
vt 0.926164091 0.806855977
vt 0.925145924 0.468087465
vt 0.188012093 0.488558114
vt 0.139302522 0.488558114
vt 0.139302522 0.633729517
vt 0.188012093 0.633729517
vt 0.220572442 0.488558114
vt 0.188012093 0.488558114
vt 0.188012093 0.633729517
vt 0.220572442 0.633729517
vt 0.262403458 0.488558114
vt 0.220572442 0.488558114
vt 0.220572442 0.633729517
vt 0.262403429 0.633729517
vt 0.0395064354 0.739159584
vt 0.109179825 0.805109739
vt 0.208975911 0.699679673
vt 0.139302522 0.633729517
vt 0.209874809 0.464429259
vt 0.208975881 0.422607899
vt 0.139302522 0.488558114
vt 0.188012093 0.488558114
vt 0.139302522 0.633729517
vt 0.208975911 0.699679673
vt 0.209874809 0.657858372
vt 0.188012093 0.633729517
vt 0.927327812 0.807150006
vt 0.776634693 0.809040904
vt 0.775907457 0.46926856
vt 0.927327812 0.46926856
g submesh0
f 1/1/1 2/2/2 3/3/3
f 1/1/1 4/4/4 5/5/5
f 6/6/6 7/7/7 8/8/8
f 6/6/6 9/9/9 10/10/10
f 11/11/11 12/12/12 13/13/13
f 14/14/14 12/12/12 15/15/15
f 16/16/16 17/17/17 18/18/18
f 18/18/18 19/19/19 20/20/20
f 21/21/21 22/22/22 23/23/23
f 21/21/21 23/23/23 24/24/24
f 25/25/25 26/26/26 27/27/27
f 25/25/25 27/27/27 28/28/28
f 29/29/29 30/30/30 31/31/31
f 29/29/29 31/31/31 32/32/32
f 33/33/33 34/34/34 35/35/35
f 33/33/33 35/35/35 36/36/36
f 37/37/37 38/38/38 39/39/39
f 37/37/37 39/39/39 40/40/40
f 41/41/41 42/42/42 43/43/43
f 41/41/41 43/43/43 44/44/44
f 45/45/45 46/46/46 47/47/47
f 45/45/45 47/47/47 48/48/48
f 49/49/49 50/50/50 51/51/51
f 49/49/49 51/51/51 52/52/52
