# twitchrivals2023_desk_chairback_COL
v 0.163516313 0.873550177 0.931458116
v -0.124681927 0.876269639 0.928856611
v -0.243786767 0.801201224 0.886247218
v 0.254510105 0.81060195 0.888599396
v -0.26414153 0.688394606 0.816220522
v 0.287866086 0.688394606 0.816220522
v 0.163516313 0.884883881 0.910295546
v -0.243786767 0.812534988 0.865084648
v -0.124681927 0.887603343 0.907693923
v 0.254510105 0.821935713 0.867436826
v -0.26414153 0.699728429 0.795057952
v 0.287866086 0.699728429 0.795057952
v 0.163516313 0.873550177 0.931458116
v 0.163516313 0.884883881 0.910295546
v -0.124681927 0.887603343 0.907693923
v -0.124681927 0.876269639 0.928856611
v -0.243786767 0.801201224 0.886247218
v -0.124681927 0.876269639 0.928856611
v -0.124681927 0.887603343 0.907693923
v -0.243786767 0.812534988 0.865084648
v -0.26414153 0.688394606 0.816220522
v -0.26414153 0.699728429 0.795057952
v -0.26414153 0.688394606 0.816220522
v -0.26414153 0.699728429 0.795057952
v 0.287866086 0.699728429 0.795057952
v 0.287866086 0.688394606 0.816220522
v 0.287866086 0.688394606 0.816220522
v 0.287866086 0.699728429 0.795057952
v 0.254510105 0.821935713 0.867436826
v 0.254510105 0.81060195 0.888599396
v 0.163516313 0.884883881 0.910295546
v 0.163516313 0.873550177 0.931458116
vn -0.000883915229 -0.526354551 0.850264728
vn -0.000883915229 -0.526354551 0.850264728
vn 0.00178834598 -0.520255446 0.854008853
vn 0.00168966514 -0.520481169 0.853871524
vn 0.00272194366 -0.518117368 0.855305135
vn 0.00272194389 -0.518117368 0.855305135
vn 0.000884084962 0.526354253 -0.850264907
vn -0.0017883057 0.520255506 -0.854008794
vn 0.000884084846 0.526354253 -0.850264907
vn -0.00168961997 0.520481229 -0.853871405
vn -0.00272194738 0.518117547 -0.855305076
vn -0.00272194738 0.518117607 -0.855305076
vn 0.00405664649 0.881532252 0.472106338
vn 0.00405664556 0.881532252 0.472106338
vn 0.00405664649 0.881532252 0.472106338
vn 0.00405664649 0.881532252 0.472106338
vn -0.848002434 0.467208594 0.250215739
vn -0.58670491 0.713870883 0.382316262
vn -0.586704969 0.713870883 0.382316321
vn -0.858752787 0.451691687 0.24190563
vn -0.988405824 0.133848473 0.0716838017
vn -0.988405824 0.133848503 0.0716838017
vn 0 -0.881536126 -0.472116441
vn 0 -0.881536126 -0.472116441
vn 0 -0.881536126 -0.472116441
vn 0 -0.881536126 -0.472116441
vn 0.973466933 0.201719925 0.108032972
vn 0.973466933 0.201719895 0.108032972
vn 0.856680632 0.454738885 0.243538365
vn 0.844370544 0.472292393 0.252939254
vn 0.639671862 0.677592635 0.362888545
vn 0.639671862 0.677592635 0.362888545
vt 1 0
vt 0 0
vt 0 0.491251409
vt 1 0.491251409
vt 0 1
vt 1 1
vt 0 0
vt 1 0.491251409
vt 1 0
vt 0 0.491251409
vt 1 1
vt 0 1
vt 0 0
vt 0 1
vt 1 1
vt 1 0
vt 0.491251409 0
vt 0 0
vt 0 1
vt 0.491251409 1
vt 1 0
vt 1 1
vt 0 0
vt 0 1
vt 1 1
vt 1 0
vt 0 0
vt 0 1
vt 0.508748591 1
vt 0.508748591 0
vt 1 1
vt 1 0
g submesh0
f 1/1/1 2/2/2 3/3/3
f 1/1/1 3/3/3 4/4/4
f 4/4/4 3/3/3 5/5/5
f 4/4/4 5/5/5 6/6/6
f 7/7/7 8/8/8 9/9/9
f 7/7/7 10/10/10 8/8/8
f 11/11/11 8/8/8 10/10/10
f 11/11/11 10/10/10 12/12/12
f 13/13/13 14/14/14 15/15/15
f 13/13/13 15/15/15 16/16/16
f 17/17/17 18/18/18 19/19/19
f 17/17/17 19/19/19 20/20/20
f 21/21/21 17/17/17 20/20/20
f 21/21/21 20/20/20 22/22/22
f 23/23/23 24/24/24 25/25/25
f 23/23/23 25/25/25 26/26/26
f 27/27/27 28/28/28 29/29/29
f 27/27/27 29/29/29 30/30/30
f 30/30/30 29/29/29 31/31/31
f 30/30/30 31/31/31 32/32/32
