# wall.window
v -0.0630618185 -0.011248474 -1.50820005
v -0.0630618185 -0.011248474 1.50443351
v -0.101191834 -0.0120846555 1.50919211
v -0.102033563 -0.011921539 -1.51066148
v -0.106802061 -9.18485073E-17 1.5
v -0.106802061 9.18485073E-17 -1.5
v -0.106802061 0.963222682 -1.18572497
v -0.106802061 3 -1.5
v -0.100531988 3.00926685 -1.5108844
v -0.102033563 -0.011921539 -1.51066148
v -0.0630618185 3.00447726 -1.50820017
v -0.0630618185 -0.011248474 -1.50820005
v -0.106802061 0.963222802 1.18572509
v -0.106802061 2.3355248 1.18572497
v -0.106802061 3 1.5
v -0.101191834 -0.0120846555 1.50919211
v -0.0995826721 3.00934911 1.50932908
v -0.0630618185 -0.011248474 1.50443351
v -0.0630618185 3.00447726 1.50443339
v -0.0995826721 3.00934911 1.50932908
v -0.100531988 3.00926685 -1.5108844
v -0.0630618185 3.00447726 1.50443339
v -0.0630618185 3.00447726 -1.50820017
v -0.106802061 2.3355248 -1.18572509
v -0.10122928 2.30942369 1.17242181
v -0.100763559 0.976193726 1.1582762
v -0.10122928 0.98799324 1.17242181
v -0.0630618259 1.03860104 1.11257362
v -0.0630618259 1.02860105 1.10257363
v -0.0630618259 2.25337601 1.11257362
v -0.0630618259 1.02860105 -1.10634029
v -0.101172298 2.32226014 1.15928459
v -0.0630618259 2.263376 1.10257363
v -0.100763559 0.976193666 -1.15910077
v -0.0630618259 1.03860104 -1.11634028
v -0.101172298 2.32226014 -1.16004121
v -0.0630618259 2.263376 -1.10634029
v -0.101010561 0.988455176 -1.17257273
v -0.0630618259 2.25337601 -1.11634028
v -0.101010561 2.30889678 -1.17257285
v -0.0630618185 -0.011248474 -1.50820005
v -0.0630618259 2.25337601 -1.11634028
v -0.0630618259 1.03860104 -1.11634028
v -0.0630618259 1.02860105 -1.10634029
v -0.0630618259 1.02860105 1.10257363
v -0.0630618185 3.00447726 -1.50820017
v -0.0630618185 -0.011248474 1.50443351
v -0.0630618259 2.263376 -1.10634029
v -0.0630618259 1.03860104 1.11257362
v -0.0630618185 3.00447726 1.50443339
v -0.0630618259 2.263376 1.10257363
v -0.0630618259 2.25337601 1.11257362
vn 0.0172680188 -0.999850869 0
vn 0.0219244771 -0.999759614 0
vn -0.16506584 -0.986282527 -7.26449298E-06
vn -0.152687296 -0.988274574 -1.08224049E-05
vn -0.999981403 -0.00393073773 0.00465648714
vn -0.999986172 -0.00360329705 -0.00383758801
vn -0.999999642 0.000773979991 0.000448753475
vn -0.999978065 0.00495950971 -0.00438616425
vn -0.0955850556 -2.59439785E-05 -0.995421231
vn -0.0757975951 -3.5904246E-05 -0.997123182
vn 0.0714518428 0 -0.997444034
vn 0.0630328506 0 -0.99801147
vn -0.999999642 0.000754186301 -0.000440005504
vn -0.999999642 -0.000730531698 -0.000421203731
vn -0.999973655 0.00517966133 0.00509328442
vn 0.00362024689 -4.72279098E-05 0.999993443
vn -0.0135970805 -3.80543606E-05 0.999907613
vn 0.123838812 0 0.992302299
vn 0.132861823 0 0.991134524
vn -0.0184135754 0.999830484 -2.13885742E-05
vn -0.00829147734 0.999965668 -2.45738429E-05
vn 0.132227167 0.991219461 0
vn 0.126796201 0.991928816 0
vn -0.999999642 -0.000748538529 0.000428915489
vn -0.878611565 -0.00535352109 -0.477507204
vn -0.856160998 0.516697288 -0.0034818768
vn -0.877198219 0.00494404277 -0.480102867
vn -0.844499409 0.00357631128 -0.535544515
vn -0.812774181 0.58257544 -0.00200695032
vn -0.844589055 -0.00344195892 -0.535403967
vn -0.812740564 0.58262223 0.00204759627
vn -0.875055194 -0.484013051 -0.00313446857
vn -0.840359151 -0.54202652 -0.00193643372
vn -0.855233371 0.518232286 0.00334318657
vn -0.830403745 0.00364646153 0.557150185
vn -0.874303222 -0.485370934 0.00300230179
vn -0.84033072 -0.542070448 0.00197661109
vn -0.867370665 0.00525337877 0.497634947
vn -0.830504 -0.00351087051 0.557001591
vn -0.868959367 -0.00567663833 0.494850725
vn 1 0 0
vn 1 0 0
vn 1 0 0
vn 1 0 0
vn 1 0 0
vn 1 0 0
vn 1 0 0
vn 1 0 0
vn 1 0 0
vn 1 0 0
vn 1 0 0
vn 1 0 0
vt 1.00231469 -0.0176756177
vt -0.00138625526 -0.0173913315
vt -0.00294155255 -0.00400827499
vt 1.00314236 -0.00367515977
vt 0 0
vt 1 0
vt 0.895408332 0.320932239
vt 1.00000083 0.999999046
vt 1.00361681 1.00320005
vt 1.00314236 -0.00367515977
vt 1.01686823 1.00145745
vt 1.01716948 -0.00362140429
vt 0.104739606 0.320932657
vt 0.104741946 0.778680623
vt 5.36012195E-08 1.00000012
vt -0.00294155255 -0.00400827499
vt -0.00336970505 1.00302696
vt -0.0164851137 -0.00366370659
vt -0.0162617657 1.00132298
vt -0.00336970505 1.00302696
vt 1.00361681 1.00320005
vt -0.0014200079 1.01602995
vt 1.00267339 1.01629758
vt 0.895404458 0.778682411
vt 0.108902931 0.769996285
vt 0.113927841 0.324929833
vt 0.108895667 0.32920143
vt 0.131634057 0.347247958
vt 0.133496478 0.345545858
vt 0.13162221 0.750232697
vt 0.86783731 0.345549971
vt 0.113592252 0.774596155
vt 0.133479849 0.752044261
vt 0.886477292 0.324926496
vt 0.86964196 0.347254753
vt 0.886789501 0.774599671
vt 0.867854357 0.752040684
vt 0.891292632 0.329356253
vt 0.869654238 0.750226855
vt 0.891285002 0.76982069
vt -1.54079771E-07 -5.75173544E-07
vt 0.130066067 0.750936151
vt 0.130066037 0.348117709
vt 0.13338542 0.344801754
vt 0.866608024 0.344801813
vt -8.39654604E-08 1.00000024
vt 1 1.63163349E-08
vt 0.133385465 0.754252195
vt 0.869927347 0.348117828
vt 1.0000006 1.0000006
vt 0.866608024 0.754252315
vt 0.869927347 0.75093627
g submesh0
f 1/1/1 2/2/2 3/3/3
f 1/1/1 3/3/3 4/4/4
f 5/5/5 4/4/4 3/3/3
f 5/5/5 6/6/6 4/4/4
f 5/5/5 7/7/7 6/6/6
f 8/8/8 6/6/6 7/7/7
f 9/9/9 6/6/6 8/8/8
f 9/9/9 10/10/10 6/6/6
f 11/11/11 10/10/10 9/9/9
f 11/11/11 12/12/12 10/10/10
f 5/5/5 13/13/13 7/7/7
f 5/5/5 14/14/14 13/13/13
f 5/5/5 15/15/15 14/14/14
f 8/8/8 14/14/14 15/15/15
f 15/15/15 5/5/5 16/16/16
f 15/15/15 16/16/16 17/17/17
f 17/17/17 16/16/16 18/18/18
f 17/17/17 18/18/18 19/19/19
f 8/8/8 15/15/15 20/20/20
f 8/8/8 20/20/20 21/21/21
f 21/21/21 20/20/20 22/22/22
f 21/21/21 22/22/22 23/23/23
f 8/8/8 7/7/7 24/24/24
f 8/8/8 24/24/24 14/14/14
f 13/13/13 14/14/14 25/25/25
f 7/7/7 13/13/13 26/26/26
f 13/13/13 25/25/25 27/27/27
f 26/26/26 13/13/13 27/27/27
f 25/25/25 28/28/28 27/27/27
f 27/27/27 28/28/28 29/29/29
f 27/27/27 29/29/29 26/26/26
f 25/25/25 30/30/30 28/28/28
f 26/26/26 29/29/29 31/31/31
f 32/32/32 30/30/30 25/25/25
f 14/14/14 32/32/32 25/25/25
f 32/32/32 33/33/33 30/30/30
f 26/26/26 31/31/31 34/34/34
f 7/7/7 26/26/26 34/34/34
f 34/34/34 31/31/31 35/35/35
f 14/14/14 36/36/36 32/32/32
f 36/36/36 33/33/33 32/32/32
f 14/14/14 24/24/24 36/36/36
f 36/36/36 37/37/37 33/33/33
f 7/7/7 34/34/34 38/38/38
f 34/34/34 35/35/35 38/38/38
f 24/24/24 7/7/7 38/38/38
f 38/38/38 35/35/35 39/39/39
f 36/36/36 24/24/24 40/40/40
f 40/40/40 37/37/37 36/36/36
f 24/24/24 38/38/38 40/40/40
f 38/38/38 39/39/39 40/40/40
f 40/40/40 39/39/39 37/37/37
f 41/41/41 42/42/42 43/43/43
f 44/44/44 41/41/41 43/43/43
f 41/41/41 44/44/44 45/45/45
f 41/41/41 46/46/46 42/42/42
f 41/41/41 45/45/45 47/47/47
f 46/46/46 48/48/48 42/42/42
f 47/47/47 45/45/45 49/49/49
f 50/50/50 48/48/48 46/46/46
f 50/50/50 47/47/47 49/49/49
f 50/50/50 51/51/51 48/48/48
f 50/50/50 49/49/49 52/52/52
f 51/51/51 50/50/50 52/52/52
