# wall.frame.cell.gate.door_COL
v 0.00294468389 0.0809658915 -1.23944926
v -0.102944717 0.0809658915 -1.23944926
v -0.102944717 0.0809658766 0.0505508408
v 0.00294468389 0.0809658766 0.0505508408
v -0.102944717 0.0250764415 -1.23944926
v 0.00294468389 0.0250764415 -1.23944926
v 0.00294468389 0.0250764415 0.0505508408
v -0.102944717 0.0250764415 0.0505508408
v 0.00294468389 0.0809658766 0.0505508408
v 0.00294468389 0.0250764415 0.0505508408
v 0.00294468389 0.0250764415 -1.23944926
v 0.00294468389 0.0809658915 -1.23944926
v -0.102944717 0.0809658915 -1.23944926
v -0.102944717 0.0250764415 -1.23944926
v -0.102944717 0.0250764415 0.0505508408
v -0.102944717 0.0809658766 0.0505508408
v -0.077700004 0.050000079 -1.11571074
v -0.0585641898 2.8000381 -1.12767088
v -0.0585553534 0.0500382632 -1.14204133
v -0.077700004 2.79999995 -1.10131311
v -0.0585641935 0.0499617457 -1.08935297
v -0.0585553534 2.79996181 -1.07498252
v -0.0275831092 0.0499764048 -1.099424
v -0.0275974367 2.79997611 -1.08503664
v -0.0275974348 0.0500236973 -1.13198709
v -0.0275831074 2.80002332 -1.11759996
v -0.0585553534 0.0500382632 -1.14204133
v -0.0585641898 2.8000381 -1.12767088
v -0.0777000189 0.049999997 -0.956883729
v -0.0585597828 2.79999995 -0.983227968
v -0.0585597828 0.049999997 -0.983227968
v -0.0777000189 2.79999995 -0.956883729
v -0.058559794 0.049999997 -0.930539429
v -0.058559794 2.79999995 -0.930539429
v -0.0275902487 0.049999997 -0.940602064
v -0.0275902487 2.79999995 -0.940602064
v -0.027590245 0.049999997 -0.973165393
v -0.027590245 2.79999995 -0.973165333
v -0.0585597828 0.049999997 -0.983227968
v -0.0585597828 2.79999995 -0.983227968
v -0.0777000189 0.049999997 -0.812439263
v -0.0585597865 2.79999995 -0.838783562
v -0.0585597865 0.049999997 -0.838783562
v -0.0777000189 2.79999995 -0.812439263
v -0.058559794 0.049999997 -0.786095023
v -0.058559794 2.79999995 -0.786095023
v -0.0275902506 0.049999997 -0.796157658
v -0.0275902506 2.79999995 -0.796157598
v -0.027590245 0.049999997 -0.828720927
v -0.027590245 2.79999995 -0.828720927
v -0.0585597865 0.049999997 -0.838783562
v -0.0585597865 2.79999995 -0.838783562
v -0.0585597865 0.049999997 -0.694339097
v -0.027590245 2.79999995 -0.684276462
v -0.027590245 0.049999997 -0.684276581
v -0.0585597865 2.79999995 -0.694339097
v -0.0777000189 0.049999997 -0.667994857
v -0.0777000189 2.79999995 -0.667994857
v -0.058559794 0.049999997 -0.641650617
v -0.058559794 2.79999995 -0.641650617
v -0.0275902506 0.049999997 -0.651713192
v -0.0275902506 2.79999995 -0.651713192
v -0.027590245 0.049999997 -0.684276581
v -0.027590245 2.79999995 -0.684276462
v -0.0777000114 0.0500000194 -0.516680777
v -0.0585576333 2.79998159 -0.549895346
v -0.0585619323 0.0499817282 -0.543031573
v -0.0777000114 2.79999995 -0.523557603
v -0.0585576855 0.0500182696 -0.490343034
v -0.0585618913 2.80001831 -0.497206837
v -0.0275936686 0.0500113033 -0.500401616
v -0.0275868401 2.80001116 -0.507273436
v -0.0275868364 0.0499887168 -0.532964945
v -0.0275936648 2.79998875 -0.539836764
v -0.0585619323 0.0499817282 -0.543031573
v -0.0585576333 2.79998159 -0.549895346
v -0.0777000189 0.049999997 -0.379105985
v -0.0585597828 2.79999995 -0.405450225
v -0.0585597828 0.049999997 -0.405450284
v -0.0777000189 2.79999995 -0.379105985
v -0.0585597865 0.049999997 -0.352761686
v -0.0585597865 2.79999995 -0.352761686
v -0.027590245 0.049999997 -0.362824351
v -0.027590245 2.79999995 -0.362824351
v -0.0275902413 0.049999997 -0.39538759
v -0.0275902413 2.79999995 -0.39538759
v -0.0585597828 0.049999997 -0.405450284
v -0.0585597828 2.79999995 -0.405450225
v -0.0777000189 0.049999997 -0.234661549
v -0.0585597828 2.79999995 -0.261005849
v -0.0585597828 0.049999997 -0.261005849
v -0.0777000189 2.79999995 -0.234661549
v -0.0585597865 0.049999997 -0.20831725
v -0.0585597865 2.79999995 -0.20831725
v -0.027590245 0.049999997 -0.21837993
v -0.027590245 2.79999995 -0.21837993
v -0.0275902413 0.049999997 -0.250943184
v -0.0275902413 2.79999995 -0.250943184
v -0.0585597828 0.049999997 -0.261005849
v -0.0585597828 2.79999995 -0.261005849
v -0.0777000189 0.049999997 -0.0902171284
v -0.0585597828 2.79999995 -0.116561428
v -0.0585597828 0.049999997 -0.116561428
v -0.0777000189 2.79999995 -0.0902171284
v -0.0585597865 0.049999997 -0.0638728291
v -0.0585597865 2.79999995 -0.0638728291
v -0.027590245 0.049999997 -0.0739355087
v -0.027590245 2.79999995 -0.0739355087
v -0.0275902413 0.049999997 -0.106498756
v -0.0275902413 2.79999995 -0.106498756
v -0.0585597828 0.049999997 -0.116561428
v -0.0585597828 2.79999995 -0.116561428
v 0.00294475071 0.0298472922 -1.23150444
v 0.00294475071 2.82174134 -1.23150444
v -0.102944694 2.82174134 -1.23150444
v -0.102944694 0.0298472922 -1.23150444
v -0.102944694 0.0298472922 -1.23150444
v -0.102944694 2.82174134 -1.23150444
v -0.102944694 2.82174134 -1.27239382
v -0.102944694 0.0298472922 -1.27239382
v -0.102944694 0.0298472922 -1.27239382
v -0.102944694 2.82174134 -1.27239382
v 0.00294475071 2.82174134 -1.27239382
v 0.00294475071 0.0298472922 -1.27239382
v 0.00294475071 0.0298472922 -1.27239382
v 0.00294475071 2.82174134 -1.27239382
v 0.00294475071 2.82174134 -1.23150444
v 0.00294475071 0.0298472922 -1.23150444
v 0.00294475071 0.0298472922 0.0830997452
v 0.00294475071 2.82174134 0.0830997452
v -0.102944694 2.82174134 0.0830997452
v -0.102944694 0.0298472922 0.0830997452
v -0.102944694 0.0298472922 0.0830997452
v -0.102944694 2.82174134 0.0830997452
v -0.102944694 2.82174134 0.0422103107
v -0.102944694 0.0298472922 0.0422103107
v -0.102944694 0.0298472922 0.0422103107
v -0.102944694 2.82174134 0.0422103107
v 0.00294475071 2.82174134 0.0422103107
v 0.00294475071 0.0298472922 0.0422103107
v 0.00294475071 0.0298472922 0.0422103107
v 0.00294475071 2.82174134 0.0422103107
v 0.00294475071 2.82174134 0.0830997452
v 0.00294475071 0.0298472922 0.0830997452
v -0.0222493503 0.592750609 -1.23444891
v -0.0777506456 0.592750609 -1.23444891
v -0.0777506456 0.592750609 0.0455509946
v -0.0222493503 0.592750609 0.0455509946
v -0.0777506456 0.537249386 -1.23444891
v -0.0222493503 0.537249386 -1.23444891
v -0.0222493503 0.537249386 0.0455509946
v -0.0777506456 0.537249386 0.0455509946
v -0.0222493503 0.592750609 0.0455509946
v -0.0222493503 0.537249386 0.0455509946
v -0.0222493503 0.537249386 -1.23444891
v -0.0222493503 0.592750609 -1.23444891
v -0.0777506456 0.592750609 -1.23444891
v -0.0777506456 0.537249386 -1.23444891
v -0.0777506456 0.537249386 0.0455509946
v -0.0777506456 0.592750609 0.0455509946
v 0.00294468389 1.13294458 -1.23944926
v -0.102944717 1.13294458 -1.23944926
v -0.102944717 1.13294458 0.0505508408
v 0.00294468389 1.13294458 0.0505508408
v -0.102944717 1.07705522 -1.23944926
v 0.00294468389 1.07705522 -1.23944926
v 0.00294468389 1.07705522 0.0505508408
v -0.102944717 1.07705522 0.0505508408
v 0.00294468389 1.13294458 0.0505508408
v 0.00294468389 1.07705522 0.0505508408
v 0.00294468389 1.07705522 -1.23944926
v 0.00294468389 1.13294458 -1.23944926
v -0.102944717 1.13294458 -1.23944926
v -0.102944717 1.07705522 -1.23944926
v -0.102944717 1.07705522 0.0505508408
v -0.102944717 1.13294458 0.0505508408
v -0.0611003861 1.08244836 -1.23659134
v -0.065888986 1.0824827 -1.03158677
v -0.0677014515 0.783404648 -1.0334419
v -0.0658778623 0.781552315 -1.236642
v -0.0979211032 0.781552315 -1.236642
v -0.0658778623 0.781552315 -1.236642
v -0.0677014515 0.783404648 -1.0334419
v -0.0960975215 0.783404648 -1.0334419
v -0.102698632 1.08244836 -1.23659134
v -0.0979100242 1.0824827 -1.03158677
v -0.065888986 1.0824827 -1.03158677
v -0.0677014515 0.783404648 -1.0334419
v -0.0777506456 1.67275047 -1.23444891
v -0.0777506456 1.61724913 -1.23444891
v -0.0777506456 1.61724913 0.0455509946
v -0.0777506456 1.67275047 0.0455509946
v -0.0222493503 1.61724913 -1.23444891
v -0.0222493503 1.67275047 -1.23444891
v -0.0222493503 1.67275047 0.0455509946
v -0.0222493503 1.61724913 0.0455509946
v -0.0777506456 1.67275047 0.0455509946
v -0.0222493503 1.67275047 0.0455509946
v -0.0222493503 1.67275047 -1.23444891
v -0.0777506456 1.67275047 -1.23444891
v -0.0777506456 1.61724913 -1.23444891
v -0.0222493503 1.61724913 -1.23444891
v -0.0222493503 1.61724913 0.0455509946
v -0.0777506456 1.61724913 0.0455509946
v -0.0222493503 2.10895109 -1.23444891
v -0.0777506456 2.10895109 -1.23444891
v -0.0777506456 2.10895109 0.0455509946
v -0.0222493503 2.10895109 0.0455509946
v -0.0777506456 2.05344963 -1.23444891
v -0.0222493503 2.05344963 -1.23444891
v -0.0222493503 2.05344963 0.0455509946
v -0.0777506456 2.05344963 0.0455509946
v -0.0222493503 2.10895109 0.0455509946
v -0.0222493503 2.05344963 0.0455509946
v -0.0222493503 2.05344963 -1.23444891
v -0.0222493503 2.10895109 -1.23444891
v -0.0777506456 2.10895109 -1.23444891
v -0.0777506456 2.05344963 -1.23444891
v -0.0777506456 2.05344963 0.0455509946
v -0.0777506456 2.10895109 0.0455509946
v -0.0777506456 2.5393548 -1.23444891
v -0.0777506456 2.48385334 -1.23444891
v -0.0777506456 2.48385334 0.0455509946
v -0.0777506456 2.5393548 0.0455509946
v -0.0222493503 2.48385334 -1.23444891
v -0.0222493503 2.5393548 -1.23444891
v -0.0222493503 2.5393548 0.0455509946
v -0.0222493503 2.48385334 0.0455509946
v -0.0777506456 2.5393548 0.0455509946
v -0.0222493503 2.5393548 0.0455509946
v -0.0222493503 2.5393548 -1.23444891
v -0.0777506456 2.5393548 -1.23444891
v -0.0777506456 2.48385334 -1.23444891
v -0.0222493503 2.48385334 -1.23444891
v -0.0222493503 2.48385334 0.0455509946
v -0.0777506456 2.48385334 0.0455509946
v 0.00294468389 2.82798386 -1.23944926
v -0.102944717 2.82798386 -1.23944926
v -0.102944717 2.82798386 0.0505508408
v 0.00294468389 2.82798386 0.0505508408
v -0.102944717 2.77209473 -1.23944926
v 0.00294468389 2.77209473 -1.23944926
v 0.00294468389 2.77209473 0.0505508408
v -0.102944717 2.77209473 0.0505508408
v 0.00294468389 2.82798386 0.0505508408
v 0.00294468389 2.77209473 0.0505508408
v 0.00294468389 2.77209473 -1.23944926
v 0.00294468389 2.82798386 -1.23944926
v -0.102944717 2.82798386 -1.23944926
v -0.102944717 2.77209473 -1.23944926
v -0.102944717 2.77209473 0.0505508408
v -0.102944717 2.82798386 0.0505508408
v -0.108142227 0.993282497 -1.10895145
v -0.108694226 1.02328467 -1.10912991
v -0.128939003 1.02118886 -1.1096499
v -0.115805291 0.99516201 -1.10789752
v -0.156335175 0.975433886 -1.10936666
v -0.127127796 0.969531834 -1.10856497
v -0.156335175 0.975433886 -1.14647675
v -0.128939018 1.02118886 -1.1461935
v -0.108694226 1.02328467 -1.10912991
v -0.108694233 1.02328467 -1.1467135
v -0.155998915 0.812289536 -1.14362121
v -0.1344098 0.812189102 -1.14363861
v -0.127127796 0.969531834 -1.14727843
v -0.155998901 0.812289536 -1.11222231
v -0.127127796 0.969531834 -1.10856497
v -0.134409785 0.812189102 -1.11220491
v -0.127127796 0.969531834 -1.14727843
v -0.156335175 0.975433886 -1.14647675
v -0.115805298 0.99516201 -1.147946
v -0.108694233 1.02328467 -1.1467135
v -0.108142227 0.993282497 -1.14689195
v -0.1344098 0.812189102 -1.14363861
v -0.134409785 0.812189102 -1.11220491
v -0.155998901 0.812289536 -1.11222231
v -0.127127796 0.969531834 -1.14727843
v -0.1344098 0.812189102 -1.14363861
v -0.127127796 0.969531834 -1.10856497
v -0.115805298 0.99516201 -1.147946
v -0.115805291 0.99516201 -1.10789752
v -0.108142227 0.993282497 -1.14689195
v -0.108142227 0.993282497 -1.10895145
vn 0.707106769 0.707106769 0
vn -0.707106769 0.707106769 0
vn -0.707106769 0.707106769 0
vn 0.707106769 0.707106769 0
vn -0.707106769 -0.707106769 0
vn 0.707106769 -0.707106769 0
vn 0.707106769 -0.707106769 0
vn -0.707106769 -0.707106769 0
vn 0.707106769 0.707106769 0
vn 0.707106769 -0.707106769 0
vn 0.707106769 -0.707106769 0
vn 0.707106769 0.707106769 0
vn -0.707106769 0.707106769 0
vn -0.707106769 -0.707106769 0
vn -0.707106769 -0.707106769 0
vn -0.707106769 0.707106769 0
vn -0.999999046 7.40174255E-06 -0.00141568203
vn -0.309432566 0.00497167651 -0.950908422
vn -0.308599383 0.00497309305 -0.951179147
vn -0.999999046 -7.40944779E-06 0.00141720835
vn -0.309431404 -0.00497167977 0.95090878
vn -0.308600575 -0.00497308979 0.95117873
vn 0.80968827 -0.00306826434 0.586852074
vn 0.808340967 -0.00307795964 0.588706434
vn 0.80834198 0.00307795219 -0.588705122
vn 0.80968827 0.00306826364 -0.586852014
vn -0.308599383 0.00497309305 -0.951179147
vn -0.309432566 0.00497167651 -0.950908422
vn -1 0 -4.69031988E-07
vn -0.309016585 0 -0.951056659
vn -0.309016585 0 -0.951056659
vn -1 0 -4.69031988E-07
vn -0.309017062 0 0.95105654
vn -0.309017062 0 0.95105654
vn 0.809017181 0 0.587784946
vn 0.809017181 0 0.587784946
vn 0.809017301 0 -0.587784946
vn 0.809017301 0 -0.587784946
vn -0.309016585 0 -0.951056659
vn -0.309016585 0 -0.951056659
vn -1 0 0
vn -0.309016854 0 -0.95105654
vn -0.309016854 0 -0.95105654
vn -1 0 0
vn -0.309017181 0 0.95105648
vn -0.309017181 0 0.95105648
vn 0.809016824 0 0.587785542
vn 0.809016824 0 0.587785542
vn 0.809017062 0 -0.587785125
vn 0.809017062 0 -0.587785125
vn -0.309016854 0 -0.95105654
vn -0.309016854 0 -0.95105654
vn -0.309017092 0 -0.95105648
vn 0.809017062 0 -0.587785125
vn 0.809017062 0 -0.587785125
vn -0.309017092 0 -0.95105648
vn -1 0 3.28322471E-07
vn -1 0 3.28322471E-07
vn -0.30901742 0 0.95105648
vn -0.30901742 0 0.95105648
vn 0.809016645 0 0.587785602
vn 0.809016645 0 0.587785602
vn 0.809017062 0 -0.587785125
vn 0.809017062 0 -0.587785125
vn -0.999999762 1.69575299E-06 0.000676156778
vn -0.308817953 -0.00237516291 -0.951118231
vn -0.309215397 -0.00237484067 -0.950989068
vn -0.999999762 -1.68008842E-06 -0.000675711432
vn -0.308818012 0.00237516477 0.951118231
vn -0.309215486 0.00237484183 0.950989068
vn 0.808695018 0.00146893447 0.588226318
vn 0.809338033 0.00146672444 0.587341428
vn 0.809338272 -0.00146672945 -0.58734107
vn 0.808695316 -0.00146893924 -0.588225901
vn -0.309215397 -0.00237484067 -0.950989068
vn -0.308817953 -0.00237516291 -0.951118231
vn -1 0 0
vn -0.309016526 0 -0.951056659
vn -0.309016526 0 -0.951056659
vn -1 0 0
vn -0.309016436 0 0.951056659
vn -0.309016436 0 0.951056659
vn 0.80901736 0 0.587784827
vn 0.80901736 0 0.587784827
vn 0.80901736 0 -0.587784648
vn 0.80901736 0 -0.587784648
vn -0.309016526 0 -0.951056659
vn -0.309016526 0 -0.951056659
vn -1 0 0
vn -0.309016317 0 -0.951056659
vn -0.309016317 0 -0.951056659
vn -1 0 0
vn -0.309016436 0 0.951056659
vn -0.309016436 0 0.951056659
vn 0.809017539 0 0.587784588
vn 0.809017539 0 0.587784588
vn 0.809017599 0 -0.587784469
vn 0.809017599 0 -0.587784469
vn -0.309016317 0 -0.951056659
vn -0.309016317 0 -0.951056659
vn -1 0 0
vn -0.309016317 0 -0.951056659
vn -0.309016317 0 -0.951056659
vn -1 0 0
vn -0.309016436 0 0.951056659
vn -0.309016436 0 0.951056659
vn 0.809017539 0 0.587784588
vn 0.809017539 0 0.587784588
vn 0.809017599 0 -0.587784469
vn 0.809017599 0 -0.587784469
vn -0.309016317 0 -0.951056659
vn -0.309016317 0 -0.951056659
vn 0.707106769 0 0.707106829
vn 0.707106769 0 0.707106829
vn -0.707106769 0 0.707106829
vn -0.707106769 0 0.707106829
vn -0.707106769 0 0.707106829
vn -0.707106769 0 0.707106829
vn -0.707106769 0 -0.707106829
vn -0.707106769 0 -0.707106829
vn -0.707106769 0 -0.707106829
vn -0.707106769 0 -0.707106829
vn 0.707106769 0 -0.707106829
vn 0.707106769 0 -0.707106829
vn 0.707106769 0 -0.707106829
vn 0.707106769 0 -0.707106829
vn 0.707106769 0 0.707106829
vn 0.707106769 0 0.707106829
vn 0.707106769 0 0.707106829
vn 0.707106769 0 0.707106829
vn -0.707106769 0 0.707106829
vn -0.707106769 0 0.707106829
vn -0.707106769 0 0.707106829
vn -0.707106769 0 0.707106829
vn -0.707106769 0 -0.707106829
vn -0.707106769 0 -0.707106829
vn -0.707106769 0 -0.707106829
vn -0.707106769 0 -0.707106829
vn 0.707106769 0 -0.707106829
vn 0.707106769 0 -0.707106829
vn 0.707106769 0 -0.707106829
vn 0.707106769 0 -0.707106829
vn 0.707106769 0 0.707106829
vn 0.707106769 0 0.707106829
vn 0.707106769 0.707106769 0
vn -0.707106769 0.707106769 0
vn -0.707106769 0.707106769 0
vn 0.707106769 0.707106769 0
vn -0.707106769 -0.707106769 0
vn 0.707106769 -0.707106769 0
vn 0.707106769 -0.707106769 0
vn -0.707106769 -0.707106769 0
vn 0.707106769 0.707106769 0
vn 0.707106769 -0.707106769 0
vn 0.707106769 -0.707106769 0
vn 0.707106769 0.707106769 0
vn -0.707106769 0.707106769 0
vn -0.707106769 -0.707106769 0
vn -0.707106769 -0.707106769 0
vn -0.707106769 0.707106769 0
vn 0.707106769 0.707106769 0
vn -0.707106769 0.707106769 0
vn -0.707106769 0.707106769 0
vn 0.707106769 0.707106769 0
vn -0.707106769 -0.707106769 0
vn 0.707106769 -0.707106769 0
vn 0.707106769 -0.707106769 0
vn -0.707106769 -0.707106769 0
vn 0.707106769 0.707106769 0
vn 0.707106769 -0.707106769 0
vn 0.707106769 -0.707106769 0
vn 0.707106769 0.707106769 0
vn -0.707106769 0.707106769 0
vn -0.707106769 -0.707106769 0
vn -0.707106769 -0.707106769 0
vn -0.707106769 0.707106769 0
vn 0.999807179 -0.0110332081 0.0162460674
vn 0.701235771 -0.0120892273 0.712826848
vn 0.571032882 -0.57867825 0.582282543
vn 0.70301342 -0.710952878 0.0178336184
vn -0.70301342 -0.710952938 0.0178336315
vn 0.70301342 -0.710952878 0.0178336184
vn 0.571032882 -0.57867825 0.582282543
vn -0.571032822 -0.57867825 0.582282484
vn -0.999807179 -0.0110333208 0.0162460823
vn -0.701235771 -0.0120893074 0.712826848
vn 0.701235771 -0.0120892273 0.712826848
vn 0.571032882 -0.57867825 0.582282543
vn -0.707106769 0.707106829 0
vn -0.707106769 -0.707106829 0
vn -0.707106769 -0.707106829 0
vn -0.707106769 0.707106829 0
vn 0.707106769 -0.707106829 0
vn 0.707106769 0.707106829 0
vn 0.707106769 0.707106829 0
vn 0.707106769 -0.707106829 0
vn -0.707106769 0.707106829 0
vn 0.707106769 0.707106829 0
vn 0.707106769 0.707106829 0
vn -0.707106769 0.707106829 0
vn -0.707106769 -0.707106829 0
vn 0.707106769 -0.707106829 0
vn 0.707106769 -0.707106829 0
vn -0.707106769 -0.707106829 0
vn 0.707106769 0.707106829 0
vn -0.707106769 0.707106829 0
vn -0.707106769 0.707106829 0
vn 0.707106769 0.707106829 0
vn -0.707106769 -0.707106829 0
vn 0.707106769 -0.707106829 0
vn 0.707106769 -0.707106829 0
vn -0.707106769 -0.707106829 0
vn 0.707106769 0.707106829 0
vn 0.707106769 -0.707106829 0
vn 0.707106769 -0.707106829 0
vn 0.707106769 0.707106829 0
vn -0.707106769 0.707106829 0
vn -0.707106769 -0.707106829 0
vn -0.707106769 -0.707106829 0
vn -0.707106769 0.707106829 0
vn -0.707106769 0.707106829 0
vn -0.707106769 -0.707106829 0
vn -0.707106769 -0.707106829 0
vn -0.707106769 0.707106829 0
vn 0.707106769 -0.707106829 0
vn 0.707106769 0.707106829 0
vn 0.707106769 0.707106829 0
vn 0.707106769 -0.707106829 0
vn -0.707106769 0.707106829 0
vn 0.707106769 0.707106829 0
vn 0.707106769 0.707106829 0
vn -0.707106769 0.707106829 0
vn -0.707106769 -0.707106829 0
vn 0.707106769 -0.707106829 0
vn 0.707106769 -0.707106829 0
vn -0.707106769 -0.707106829 0
vn 0.707106769 0.707106769 0
vn -0.707106769 0.707106769 0
vn -0.707106769 0.707106769 0
vn 0.707106769 0.707106769 0
vn -0.707106769 -0.707106769 0
vn 0.707106769 -0.707106769 0
vn 0.707106769 -0.707106769 0
vn -0.707106769 -0.707106769 0
vn 0.707106769 0.707106769 0
vn 0.707106769 -0.707106769 0
vn 0.707106769 -0.707106769 0
vn 0.707106769 0.707106769 0
vn -0.707106769 0.707106769 0
vn -0.707106769 -0.707106769 0
vn -0.707106769 -0.707106769 0
vn -0.707106769 0.707106769 0
vn -0.180811733 -0.760722756 0.623384297
vn -0.0600751378 0.730621517 0.680134773
vn -0.421748012 0.674860716 0.605550706
vn 0.202716574 -0.378517002 0.903122842
vn -0.738536716 0.197822541 0.644538403
vn 0.628245175 -0.155472994 0.762322843
vn -0.738536894 0.197822616 -0.644538105
vn -0.421748072 0.674860716 -0.605550706
vn -0.0600751378 0.730621517 0.680134773
vn -0.0600751452 0.730621517 -0.680134833
vn -0.585276723 -0.578594148 -0.568049252
vn 0.555958092 -0.599061728 -0.57622534
vn 0.628245056 -0.15547286 -0.762323022
vn -0.585276544 -0.578594029 0.56804955
vn 0.628245175 -0.155472994 0.762322843
vn 0.555958331 -0.599061966 0.576224804
vn 0.628245056 -0.15547286 -0.762323022
vn -0.738536894 0.197822616 -0.644538105
vn 0.202716604 -0.378516942 -0.903122842
vn -0.0600751452 0.730621517 -0.680134833
vn -0.180811733 -0.760722756 -0.623384297
vn 0.555958092 -0.599061728 -0.57622534
vn 0.555958331 -0.599061966 0.576224804
vn -0.585276544 -0.578594029 0.56804955
vn 0.628245056 -0.15547286 -0.762323022
vn 0.555958092 -0.599061728 -0.57622534
vn 0.628245175 -0.155472994 0.762322843
vn 0.202716604 -0.378516942 -0.903122842
vn 0.202716574 -0.378517002 0.903122842
vn -0.180811733 -0.760722756 -0.623384297
vn -0.180811733 -0.760722756 0.623384297
vt 0.986703396 0.349680305
vt 0.986703396 0.320358664
vt 0.577785671 0.320358545
vt 0.577785671 0.349680185
vt 0.986703396 0.349676013
vt 0.986703396 0.320354313
vt 0.577785671 0.320354432
vt 0.577785671 0.349676073
vt 0.577785671 0.320521504
vt 0.577785671 0.333993495
vt 0.986703396 0.333993614
vt 0.986703396 0.320521414
vt 0.986703396 0.334201992
vt 0.986703396 0.320729762
vt 0.577785671 0.320729882
vt 0.577785671 0.334201872
vt 0.50104028 0.467640638
vt 0.99932909 0.463159263
vt 0.50104028 0.463159263
vt 0.99932909 0.467640698
vt 0.50104028 0.472123981
vt 0.99932909 0.472123981
vt 0.50104028 0.476607561
vt 0.99932909 0.476607561
vt 0.501040339 0.48185423
vt 0.99932909 0.481089115
vt 0.501040339 0.485906273
vt 0.99932909 0.485141098
vt 1.0006876 0.472253501
vt 0.502398729 0.467772126
vt 1.0006876 0.467772126
vt 0.502398729 0.472253561
vt 1.0006876 0.476736844
vt 0.502398729 0.476736844
vt 1.0006876 0.481220424
vt 0.502398729 0.481220424
vt 1.0006876 0.485701919
vt 0.502398729 0.485701978
vt 1.0006876 0.489753962
vt 0.502398729 0.489753962
vt 0.00168454647 0.546198249
vt 0.499973357 0.541716874
vt 0.00168454647 0.541716874
vt 0.499973357 0.546198308
vt 0.00168454647 0.550681591
vt 0.499973357 0.550681591
vt 0.00168454647 0.555165172
vt 0.499973357 0.555165172
vt 0.00168454647 0.559646666
vt 0.499973357 0.559646726
vt 0.00168454647 0.563698709
vt 0.499973357 0.563698709
vt 0.50104028 0.256260335
vt 0.99932909 0.252208173
vt 0.50104028 0.252208233
vt 0.99932909 0.256260335
vt 0.50104028 0.260741711
vt 0.99932909 0.26074177
vt 0.50104028 0.265225053
vt 0.99932909 0.265225053
vt 0.50104028 0.269708633
vt 0.99932909 0.269708633
vt 0.50104028 0.274190128
vt 0.99932909 0.274190187
vt 1.0006876 0.470579207
vt 0.502398729 0.466097832
vt 1.0006876 0.466097832
vt 0.502398729 0.470579267
vt 1.0006876 0.475062549
vt 0.502398729 0.475062549
vt 1.0006876 0.47954613
vt 0.502398729 0.47954613
vt 1.0006876 0.483662158
vt 0.502398729 0.484027684
vt 1.0006876 0.487714201
vt 0.502398729 0.488079667
vt 0.50104028 0.273348898
vt 0.99932909 0.268867522
vt 0.50104028 0.268867522
vt 0.99932909 0.273348957
vt 0.50104028 0.27783224
vt 0.99932909 0.27783224
vt 0.50104028 0.28231582
vt 0.99932909 0.28231582
vt 0.50104028 0.286797315
vt 0.99932909 0.286797374
vt 0.50104028 0.290849358
vt 0.99932909 0.290849358
vt 0.50104028 0.472913295
vt 0.99932909 0.46843192
vt 0.50104028 0.46843192
vt 0.99932909 0.472913355
vt 0.50104028 0.477396637
vt 0.99932909 0.477396637
vt 0.50104028 0.481880218
vt 0.99932909 0.481880218
vt 0.50104028 0.486361712
vt 0.99932909 0.486361772
vt 0.50104028 0.490413755
vt 0.99932909 0.490413755
vt 0.50104028 0.299643099
vt 0.99932909 0.295161724
vt 0.50104028 0.295161724
vt 0.99932909 0.299643159
vt 0.50104028 0.304126441
vt 0.99932909 0.304126441
vt 0.50104028 0.308610022
vt 0.99932909 0.308610022
vt 0.50104028 0.313091516
vt 0.99932909 0.313091576
vt 0.50104028 0.317143559
vt 0.99932909 0.317143559
vt 0.505721807 0.306940019
vt 0.994059443 0.306939989
vt 0.994059443 0.290760577
vt 0.505721807 0.290760577
vt 0.505721807 0.306907058
vt 0.994059443 0.306906998
vt 0.994059443 0.302096874
vt 0.505721807 0.302096874
vt 0.505721807 0.30699423
vt 0.994059443 0.3069942
vt 0.994059443 0.290814757
vt 0.505721807 0.290814757
vt 0.505721807 0.306932211
vt 0.994059443 0.306932181
vt 0.994059443 0.302122086
vt 0.505721807 0.302122086
vt 0.505721807 0.30507496
vt 0.994059443 0.30507493
vt 0.994059443 0.288895518
vt 0.505721807 0.288895518
vt 0.505721807 0.305041969
vt 0.994059443 0.305041969
vt 0.994059443 0.300231814
vt 0.505721807 0.300231814
vt 0.505721807 0.30512917
vt 0.994059443 0.305129141
vt 0.994059443 0.288949698
vt 0.505721807 0.288949698
vt 0.505721807 0.305067152
vt 0.994059443 0.305067122
vt 0.994059443 0.300257027
vt 0.505721807 0.300257027
vt 0.999304831 0.348251522
vt 0.999304831 0.322328866
vt 0.500634789 0.322328866
vt 0.500634789 0.348251522
vt 0.500634789 0.322328866
vt 0.500634789 0.348251522
vt 0.999304831 0.348251522
vt 0.999304831 0.322328866
vt 0.500634789 0.32080543
vt 0.500634789 0.350289077
vt 0.999304831 0.350289077
vt 0.999304831 0.32080543
vt 0.500634789 0.320812166
vt 0.500634789 0.350295782
vt 0.999304831 0.350295782
vt 0.999304831 0.320812166
vt 0.986703396 0.29866755
vt 0.986703396 0.269345909
vt 0.577785671 0.26934579
vt 0.577785671 0.298667431
vt 0.986703396 0.298663259
vt 0.986703396 0.269341558
vt 0.577785671 0.269341677
vt 0.577785671 0.298663318
vt 0.577785671 0.269508749
vt 0.577785671 0.28298074
vt 0.986703396 0.282980859
vt 0.986703396 0.26950866
vt 0.986703396 0.283189237
vt 0.986703396 0.269717008
vt 0.577785671 0.269717127
vt 0.577785671 0.283189118
vt 0.628341019 0.714035392
vt 0.565995991 0.714035392
vt 0.565995991 0.621368527
vt 0.628341019 0.621368527
vt 0.627608001 0.619867325
vt 0.627449751 0.612507224
vt 0.565107226 0.6130988
vt 0.564276636 0.620227396
vt 0.628307819 0.713657379
vt 0.564840436 0.713976979
vt 0.557479322 0.713918746
vt 0.557054996 0.620637238
vt 0.999304831 0.348251522
vt 0.999304831 0.322328866
vt 0.500634789 0.322328866
vt 0.500634789 0.348251522
vt 0.500634789 0.322328866
vt 0.500634789 0.348251522
vt 0.999304831 0.348251522
vt 0.999304831 0.322328866
vt 0.500634789 0.32080543
vt 0.500634789 0.350289077
vt 0.999304831 0.350289077
vt 0.999304831 0.32080543
vt 0.500634789 0.320812166
vt 0.500634789 0.350295782
vt 0.999304831 0.350295782
vt 0.999304831 0.320812166
vt 0.999304831 0.297238767
vt 0.999304831 0.271316111
vt 0.500634789 0.271316111
vt 0.500634789 0.297238767
vt 0.500634789 0.271316111
vt 0.500634789 0.297238767
vt 0.999304831 0.297238767
vt 0.999304831 0.271316111
vt 0.500634789 0.269792676
vt 0.500634789 0.299276322
vt 0.999304831 0.299276322
vt 0.999304831 0.269792676
vt 0.500634789 0.269799411
vt 0.500634789 0.299283028
vt 0.999304831 0.299283028
vt 0.999304831 0.269799411
vt 0.999304831 0.348251522
vt 0.999304831 0.322328866
vt 0.500634789 0.322328866
vt 0.500634789 0.348251522
vt 0.500634789 0.322328866
vt 0.500634789 0.348251522
vt 0.999304831 0.348251522
vt 0.999304831 0.322328866
vt 0.500634789 0.32080543
vt 0.500634789 0.350289077
vt 0.999304831 0.350289077
vt 0.999304831 0.32080543
vt 0.500634789 0.320812166
vt 0.500634789 0.350295782
vt 0.999304831 0.350295782
vt 0.999304831 0.320812166
vt 0.986703396 0.29866755
vt 0.986703396 0.269345909
vt 0.577785671 0.26934579
vt 0.577785671 0.298667431
vt 0.986703396 0.298663259
vt 0.986703396 0.269341558
vt 0.577785671 0.269341677
vt 0.577785671 0.298663318
vt 0.577785671 0.269508749
vt 0.577785671 0.28298074
vt 0.986703396 0.282980859
vt 0.986703396 0.26950866
vt 0.986703396 0.283189237
vt 0.986703396 0.269717008
vt 0.577785671 0.269717127
vt 0.577785671 0.283189118
vt 0.678823948 0.711105347
vt 0.68141371 0.71575737
vt 0.686867177 0.713497996
vt 0.681966603 0.709258378
vt 0.687352777 0.695756316
vt 0.681816816 0.69847095
vt 0.699200332 0.69572407
vt 0.699651897 0.713396907
vt 0.687829554 0.7199862
vt 0.698887825 0.71998626
vt 0.698184609 0.640570641
vt 0.702591479 0.641409159
vt 0.705340981 0.694450736
vt 0.688573778 0.641454279
vt 0.68137753 0.694450736
vt 0.684126914 0.641409218
vt 0.704901338 0.698471367
vt 0.699742913 0.697064102
vt 0.704750955 0.709258795
vt 0.705303192 0.715757787
vt 0.707893252 0.711106062
vt 0.698224187 0.636100709
vt 0.688497066 0.635364115
vt 0.688621163 0.640151143
vt 0.698868513 0.581379592
vt 0.698218942 0.634872913
vt 0.687849522 0.581379652
vt 0.698864341 0.571254909
vt 0.687884271 0.570609748
vt 0.698887765 0.567860007
vt 0.68783021 0.567860067
g submesh0
f 1/1/1 2/2/2 3/3/3
f 1/1/1 3/3/3 4/4/4
f 5/5/5 6/6/6 7/7/7
f 5/5/5 7/7/7 8/8/8
f 9/9/9 10/10/10 11/11/11
f 9/9/9 11/11/11 12/12/12
f 13/13/13 14/14/14 15/15/15
f 13/13/13 15/15/15 16/16/16
f 17/17/17 18/18/18 19/19/19
f 17/17/17 20/20/20 18/18/18
f 21/21/21 20/20/20 17/17/17
f 21/21/21 22/22/22 20/20/20
f 23/23/23 22/22/22 21/21/21
f 23/23/23 24/24/24 22/22/22
f 25/25/25 24/24/24 23/23/23
f 25/25/25 26/26/26 24/24/24
f 27/27/27 26/26/26 25/25/25
f 27/27/27 28/28/28 26/26/26
f 29/29/29 30/30/30 31/31/31
f 29/29/29 32/32/32 30/30/30
f 33/33/33 32/32/32 29/29/29
f 33/33/33 34/34/34 32/32/32
f 35/35/35 34/34/34 33/33/33
f 35/35/35 36/36/36 34/34/34
f 37/37/37 36/36/36 35/35/35
f 37/37/37 38/38/38 36/36/36
f 39/39/39 38/38/38 37/37/37
f 39/39/39 40/40/40 38/38/38
f 41/41/41 42/42/42 43/43/43
f 41/41/41 44/44/44 42/42/42
f 45/45/45 44/44/44 41/41/41
f 45/45/45 46/46/46 44/44/44
f 47/47/47 46/46/46 45/45/45
f 47/47/47 48/48/48 46/46/46
f 49/49/49 48/48/48 47/47/47
f 49/49/49 50/50/50 48/48/48
f 51/51/51 50/50/50 49/49/49
f 51/51/51 52/52/52 50/50/50
f 53/53/53 54/54/54 55/55/55
f 53/53/53 56/56/56 54/54/54
f 57/57/57 56/56/56 53/53/53
f 57/57/57 58/58/58 56/56/56
f 59/59/59 58/58/58 57/57/57
f 59/59/59 60/60/60 58/58/58
f 61/61/61 60/60/60 59/59/59
f 61/61/61 62/62/62 60/60/60
f 63/63/63 62/62/62 61/61/61
f 63/63/63 64/64/64 62/62/62
f 65/65/65 66/66/66 67/67/67
f 65/65/65 68/68/68 66/66/66
f 69/69/69 68/68/68 65/65/65
f 69/69/69 70/70/70 68/68/68
f 71/71/71 70/70/70 69/69/69
f 71/71/71 72/72/72 70/70/70
f 73/73/73 72/72/72 71/71/71
f 73/73/73 74/74/74 72/72/72
f 75/75/75 74/74/74 73/73/73
f 75/75/75 76/76/76 74/74/74
f 77/77/77 78/78/78 79/79/79
f 77/77/77 80/80/80 78/78/78
f 81/81/81 80/80/80 77/77/77
f 81/81/81 82/82/82 80/80/80
f 83/83/83 82/82/82 81/81/81
f 83/83/83 84/84/84 82/82/82
f 85/85/85 84/84/84 83/83/83
f 85/85/85 86/86/86 84/84/84
f 87/87/87 86/86/86 85/85/85
f 87/87/87 88/88/88 86/86/86
f 89/89/89 90/90/90 91/91/91
f 89/89/89 92/92/92 90/90/90
f 93/93/93 92/92/92 89/89/89
f 93/93/93 94/94/94 92/92/92
f 95/95/95 94/94/94 93/93/93
f 95/95/95 96/96/96 94/94/94
f 97/97/97 96/96/96 95/95/95
f 97/97/97 98/98/98 96/96/96
f 99/99/99 98/98/98 97/97/97
f 99/99/99 100/100/100 98/98/98
f 101/101/101 102/102/102 103/103/103
f 101/101/101 104/104/104 102/102/102
f 105/105/105 104/104/104 101/101/101
f 105/105/105 106/106/106 104/104/104
f 107/107/107 106/106/106 105/105/105
f 107/107/107 108/108/108 106/106/106
f 109/109/109 108/108/108 107/107/107
f 109/109/109 110/110/110 108/108/108
f 111/111/111 110/110/110 109/109/109
f 111/111/111 112/112/112 110/110/110
f 113/113/113 114/114/114 115/115/115
f 113/113/113 115/115/115 116/116/116
f 117/117/117 118/118/118 119/119/119
f 117/117/117 119/119/119 120/120/120
f 121/121/121 122/122/122 123/123/123
f 121/121/121 123/123/123 124/124/124
f 125/125/125 126/126/126 127/127/127
f 125/125/125 127/127/127 128/128/128
f 129/129/129 130/130/130 131/131/131
f 129/129/129 131/131/131 132/132/132
f 133/133/133 134/134/134 135/135/135
f 133/133/133 135/135/135 136/136/136
f 137/137/137 138/138/138 139/139/139
f 137/137/137 139/139/139 140/140/140
f 141/141/141 142/142/142 143/143/143
f 141/141/141 143/143/143 144/144/144
f 145/145/145 146/146/146 147/147/147
f 145/145/145 147/147/147 148/148/148
f 149/149/149 150/150/150 151/151/151
f 149/149/149 151/151/151 152/152/152
f 153/153/153 154/154/154 155/155/155
f 153/153/153 155/155/155 156/156/156
f 157/157/157 158/158/158 159/159/159
f 157/157/157 159/159/159 160/160/160
f 161/161/161 162/162/162 163/163/163
f 161/161/161 163/163/163 164/164/164
f 165/165/165 166/166/166 167/167/167
f 165/165/165 167/167/167 168/168/168
f 169/169/169 170/170/170 171/171/171
f 169/169/169 171/171/171 172/172/172
f 173/173/173 174/174/174 175/175/175
f 173/173/173 175/175/175 176/176/176
f 177/177/177 178/178/178 179/179/179
f 177/177/177 179/179/179 180/180/180
f 181/181/181 182/182/182 183/183/183
f 181/181/181 183/183/183 184/184/184
f 184/184/184 185/185/185 181/181/181
f 184/184/184 186/186/186 185/185/185
f 184/184/184 187/187/187 186/186/186
f 184/184/184 188/188/188 187/187/187
f 189/189/189 190/190/190 191/191/191
f 189/189/189 191/191/191 192/192/192
f 193/193/193 194/194/194 195/195/195
f 193/193/193 195/195/195 196/196/196
f 197/197/197 198/198/198 199/199/199
f 197/197/197 199/199/199 200/200/200
f 201/201/201 202/202/202 203/203/203
f 201/201/201 203/203/203 204/204/204
f 205/205/205 206/206/206 207/207/207
f 205/205/205 207/207/207 208/208/208
f 209/209/209 210/210/210 211/211/211
f 209/209/209 211/211/211 212/212/212
f 213/213/213 214/214/214 215/215/215
f 213/213/213 215/215/215 216/216/216
f 217/217/217 218/218/218 219/219/219
f 217/217/217 219/219/219 220/220/220
f 221/221/221 222/222/222 223/223/223
f 221/221/221 223/223/223 224/224/224
f 225/225/225 226/226/226 227/227/227
f 225/225/225 227/227/227 228/228/228
f 229/229/229 230/230/230 231/231/231
f 229/229/229 231/231/231 232/232/232
f 233/233/233 234/234/234 235/235/235
f 233/233/233 235/235/235 236/236/236
f 237/237/237 238/238/238 239/239/239
f 237/237/237 239/239/239 240/240/240
f 241/241/241 242/242/242 243/243/243
f 241/241/241 243/243/243 244/244/244
f 245/245/245 246/246/246 247/247/247
f 245/245/245 247/247/247 248/248/248
f 249/249/249 250/250/250 251/251/251
f 249/249/249 251/251/251 252/252/252
f 253/253/253 254/254/254 255/255/255
f 253/253/253 255/255/255 256/256/256
f 256/256/256 255/255/255 257/257/257
f 256/256/256 257/257/257 258/258/258
f 255/255/255 259/259/259 257/257/257
f 255/255/255 260/260/260 259/259/259
f 261/261/261 260/260/260 255/255/255
f 261/261/261 262/262/262 260/260/260
f 257/257/257 259/259/259 263/263/263
f 259/259/259 264/264/264 263/263/263
f 259/259/259 265/265/265 264/264/264
f 257/257/257 263/263/263 266/266/266
f 267/267/267 257/257/257 266/266/266
f 267/267/267 266/266/266 268/268/268
f 260/260/260 269/269/269 270/270/270
f 260/260/260 271/271/271 269/269/269
f 272/272/272 271/271/271 260/260/260
f 272/272/272 273/273/273 271/271/271
f 263/263/263 274/274/274 275/275/275
f 263/263/263 275/275/275 276/276/276
f 277/277/277 275/275/275 278/278/278
f 277/277/277 279/279/279 275/275/275
f 280/280/280 279/279/279 277/277/277
f 280/280/280 281/281/281 279/279/279
f 282/282/282 281/281/281 280/280/280
f 282/282/282 283/283/283 281/281/281
