# wall.doorway
v -0.0630618185 -0.011248474 0.647795856
v -0.101441227 -0.0120363198 0.706680298
v -0.102035396 -0.00117222127 0.696012735
v -0.10203106 -0.0119210025 -0.708624423
v -0.0630618185 -0.0112483213 -0.640566707
v -0.102321945 -0.0011017517 -0.695465386
v -0.0630618185 -0.011248474 1.50443327
v -0.101441227 -0.0120363198 0.706680298
v -0.0630618185 -0.011248474 0.647795856
v -0.101191834 -0.0120846555 1.50919211
v -0.106802061 -9.18485073E-17 1.5
v -0.106802061 -4.36106328E-17 0.712215722
v -0.101191834 -0.0120846555 1.50919211
v -0.0630618185 -0.011248474 1.50443327
v -0.0630618185 3.00447726 1.50443387
v -0.0995826721 3.00934911 1.50932908
v -0.106802061 -9.18485073E-17 1.5
v -0.106802061 3 1.5
v -0.106802061 -4.36106328E-17 0.712215722
v -0.106802061 2.27309251 0.709879994
v -0.10199298 2.26710391 0.69594723
v -0.102035396 -0.00117222127 0.696012735
v -0.101441227 -0.0120363198 0.706680298
v -0.0630618185 2.26140499 0.647795856
v -0.0630618185 -0.011248474 0.647795856
v -0.101559035 2.32212663 0.632765055
v -0.106802061 2.33466172 0.639761627
v -0.106802061 3 -1.5
v -0.0995826721 3.00934911 1.50932908
v -0.101559035 2.32212663 -0.625964761
v -0.0630618185 2.26140499 -0.640566707
v -0.100531988 3.00926685 -1.5108844
v -0.0630618185 3.00447726 1.50443387
v -0.0630618185 3.0044775 -1.50820017
v -0.106802061 2.33463526 -0.632981658
v -0.102286786 2.26710391 -0.695406079
v -0.0630618185 -0.0112483213 -0.640566707
v -0.102321945 -0.0011017517 -0.695465386
v -0.106802061 2.27309084 -0.709522545
v -0.106802061 4.35886629E-17 -0.711856902
v -0.10203106 -0.0119210025 -0.708624423
v -0.106802061 9.18485073E-17 -1.5
v -0.102033563 -0.011921539 -1.51066148
v -0.100531988 3.00926685 -1.5108844
v -0.0630618185 -0.0112483213 -1.50820005
v -0.0630618185 3.0044775 -1.50820017
v -0.0630618185 -0.0112483213 -0.640566707
v -0.0630618185 -0.0112483213 -1.50820005
v -0.0630618185 3.0044775 -1.50820017
v -0.0630618185 2.26140499 -0.640566707
v -0.0630618185 3.00447726 1.50443387
v -0.0630618185 2.26140499 0.647795856
v -0.0630618185 -0.011248474 1.50443327
v -0.0630618185 -0.011248474 0.647795856
v -0.106802061 9.18485073E-17 -1.5
v -0.10203106 -0.0119210025 -0.708624423
v -0.106802061 4.35886629E-17 -0.711856902
v -0.102033563 -0.011921539 -1.51066148
v -0.0630618185 -0.0112483213 -0.640566707
v -0.0630618185 -0.0112483213 -1.50820005
vn 0.0170389805 -0.9998523 -0.00227196631
vn -0.113928586 -0.993486226 -0.0023247092
vn -0.719315529 -0.506343186 -0.47560671
vn -0.124761537 -0.992184818 0.00194350129
vn 0.0132007925 -0.999910235 0.00232443935
vn -0.730846465 -0.535057902 0.423764706
vn 0.0219244771 -0.999759614 0
vn -0.113928586 -0.993486226 -0.0023247092
vn 0.0170389805 -0.9998523 -0.00227196631
vn -0.161775872 -0.986827493 -9.16239333E-06
vn -0.90702343 -0.421080083 0
vn -0.913491428 -0.406858116 0
vn 0.0036279608 -4.72320171E-05 0.999993443
vn 0.123846635 -2.00831494E-07 0.992301345
vn 0.132849604 -2.00595693E-07 0.991136193
vn -0.013607692 -3.80487072E-05 0.999907374
vn -0.999988794 0 0.00474565243
vn -0.999973059 0.00523381447 0.00514651509
vn -0.999998331 -5.28327655E-06 -0.00185011385
vn -0.999999404 -2.96496692E-05 -0.00108741515
vn -0.831042051 -0.00672572665 -0.556169033
vn -0.820047498 -9.5226671E-05 -0.572295427
vn -0.922013283 -0.295751363 -0.249845177
vn -0.870636523 -0.206140354 -0.446652263
vn -0.777710915 0 -0.628622055
vn -0.861095488 -0.508395612 -0.00695780385
vn -0.999999881 -0.000561041234 -3.0000223E-05
vn -0.999977708 0.00501127401 -0.00443195738
vn -0.018412482 0.999830484 -2.13889161E-05
vn -0.861044288 -0.508479953 0.00713125151
vn -0.886493206 -0.194535583 0.419863909
vn -0.00829886366 0.999965549 -2.45715182E-05
vn 0.132227182 0.991219461 1.00409189E-07
vn 0.126788244 0.991929889 1.00481138E-07
vn -0.999999881 -0.000555018254 3.00767442E-05
vn -0.855224907 -0.00647283532 0.51821667
vn -0.813405514 0 0.581697106
vn -0.846812725 -8.15038948E-05 0.531891227
vn -0.999999523 -3.00388929E-05 0.00104188256
vn -0.999998569 -5.93047162E-06 0.00173395011
vn -0.923188627 -0.306645513 0.231713846
vn -0.999992371 0 -0.00391319022
vn -0.0757982805 -3.59038931E-05 -0.997123182
vn -0.095584631 -2.59441731E-05 -0.995421231
vn 0.0630328506 0 -0.99801147
vn 0.0714518577 0 -0.997444034
vn 1 0 0
vn 1 0 0
vn 1 0 0
vn 1 0 0
vn 1 0 0
vn 1 0 0
vn 1 0 0
vn 1 0 0
vn -0.92847991 -0.371382654 0
vn -0.124761537 -0.992184818 0.00194350129
vn -0.928406715 -0.371565402 0
vn -0.14124541 -0.989974558 1.10385224E-06
vn 0.0132007925 -0.999910235 0.00232443935
vn 0.0172719322 -0.999850869 0
vt 0.285359591 -0.00410394091
vt 0.264461547 -0.00383037655
vt 0.268017054 0
vt 0.736186504 -0.00380899291
vt 0.712479234 -0.00403067051
vt 0.731800616 0
vt -0.00138625526 -0.0173913315
vt 0.264461547 -0.00383037655
vt 0.284002513 -0.0172249768
vt -0.00294155255 -0.00400827499
vt 0 0
vt 0.262616575 0
vt -0.00294155255 -0.00400827499
vt -0.0164851137 -0.00366370659
vt -0.0162617657 1.00132298
vt -0.00336970505 1.00302696
vt 0 0
vt -2.43974512E-08 1
vt 0.262616575 0
vt 0.263395131 0.757671475
vt 0.268038958 0.755675793
vt 0.268017054 0
vt 0.264461547 -0.00383037655
vt 0.284722745 0.754230797
vt 0.285359591 -0.00410394091
vt 0.289097726 0.774012148
vt 0.286765724 0.77818948
vt 1 1
vt -0.00336970505 1.00302696
vt 0.708635867 0.774012089
vt 0.712708712 0.753825963
vt 1.00361681 1.00320005
vt -0.0014200079 1.01602995
vt 1.00267339 1.01629758
vt 0.710974634 0.778180659
vt 0.731780827 0.755675733
vt 0.712479234 -0.00403067051
vt 0.731800616 0
vt 0.736486018 0.75767082
vt 0.737264097 0
vt 0.736186504 -0.00380899291
vt 1 0
vt 1.00314236 -0.00367515977
vt 1.00361681 1.00320005
vt 1.01716948 -0.00362140429
vt 1.01686823 1.00145745
vt 0.287880331 -2.10270046E-09
vt 0 0
vt -2.43974512E-08 1
vt 0.287880093 0.753456354
vt 1 1
vt 0.715548456 0.753455162
vt 1 0
vt 0.715550601 0
vt 1 0
vt 0.736186504 -0.00380899291
vt 0.737264097 0
vt 1.00314236 -0.00367515977
vt 0.713496625 -0.0174658224
vt 1.00231469 -0.0176756177
g submesh0
f 1/1/1 2/2/2 3/3/3
f 4/4/4 5/5/5 6/6/6
f 7/7/7 8/8/8 9/9/9
f 7/7/7 10/10/10 8/8/8
f 8/8/8 10/10/10 11/11/11
f 8/8/8 11/11/11 12/12/12
f 13/13/13 14/14/14 15/15/15
f 13/13/13 15/15/15 16/16/16
f 17/17/17 13/13/13 16/16/16
f 17/17/17 16/16/16 18/18/18
f 19/19/19 17/17/17 18/18/18
f 19/19/19 18/18/18 20/20/20
f 19/19/19 20/20/20 21/21/21
f 19/19/19 21/21/21 22/22/22
f 19/19/19 22/22/22 23/23/23
f 22/22/22 21/21/21 24/24/24
f 22/22/22 24/24/24 25/25/25
f 20/20/20 26/26/26 21/21/21
f 26/26/26 24/24/24 21/21/21
f 20/20/20 18/18/18 27/27/27
f 20/20/20 27/27/27 26/26/26
f 28/28/28 27/27/27 18/18/18
f 28/28/28 18/18/18 29/29/29
f 30/30/30 24/24/24 26/26/26
f 27/27/27 30/30/30 26/26/26
f 30/30/30 31/31/31 24/24/24
f 28/28/28 29/29/29 32/32/32
f 32/32/32 29/29/29 33/33/33
f 32/32/32 33/33/33 34/34/34
f 27/27/27 35/35/35 30/30/30
f 28/28/28 35/35/35 27/27/27
f 30/30/30 36/36/36 31/31/31
f 35/35/35 36/36/36 30/30/30
f 36/36/36 37/37/37 31/31/31
f 36/36/36 38/38/38 37/37/37
f 35/35/35 39/39/39 36/36/36
f 38/38/38 36/36/36 39/39/39
f 28/28/28 39/39/39 35/35/35
f 38/38/38 39/39/39 40/40/40
f 40/40/40 41/41/41 38/38/38
f 39/39/39 42/42/42 40/40/40
f 39/39/39 28/28/28 42/42/42
f 43/43/43 42/42/42 28/28/28
f 43/43/43 28/28/28 44/44/44
f 45/45/45 43/43/43 44/44/44
f 45/45/45 44/44/44 46/46/46
f 47/47/47 48/48/48 49/49/49
f 47/47/47 49/49/49 50/50/50
f 51/51/51 50/50/50 49/49/49
f 51/51/51 52/52/52 50/50/50
f 52/52/52 51/51/51 53/53/53
f 52/52/52 53/53/53 54/54/54
f 55/55/55 56/56/56 57/57/57
f 55/55/55 58/58/58 56/56/56
f 59/59/59 56/56/56 58/58/58
f 59/59/59 58/58/58 60/60/60
