# wall.frame.fence.gate_COL_A
v -0.0348923877 1.52587887E-07 1.26727104
v -0.000764498545 1.52587887E-07 1.23366487
v 0.0333633795 1.52587887E-07 1.26727104
v -0.0348923951 1.52587887E-07 1.33066499
v 0.0333633684 1.52587887E-07 1.33066499
v 0.0333633795 2.83940005 1.26727104
v -0.000764498545 2.83940005 1.23366487
v -0.0348923877 2.83940005 1.26727104
v 0.0333633684 2.83940005 1.33066499
v -0.0348923951 2.83940005 1.33066499
v -0.0348923951 1.52587887E-07 1.33066499
v -0.0348923877 2.83940005 1.26727104
v -0.0348923877 1.52587887E-07 1.26727104
v -0.000764498545 2.83940005 1.23366487
v -0.000764498545 1.52587887E-07 1.23366487
v 0.0333633795 1.52587887E-07 1.26727104
v 0.0333633684 1.52587887E-07 1.33066499
v 0.0333633795 2.83940005 1.26727104
v -0.000764498545 1.52587887E-07 1.23366487
v -0.000764498545 2.83940005 1.23366487
v 0.0333633684 1.52587887E-07 1.33066499
v 0.0333633684 2.83940005 1.33066499
v -0.0348923951 2.83940005 1.33066499
v -0.0348923951 1.52587887E-07 1.33066499
v -0.0348920077 2.80789185 -1.25091577
v -0.0348923802 2.80789185 1.24236321
v 0.0333633833 2.80789185 1.24236321
v 0.0333637595 2.80789185 -1.25091577
v 0.0333637595 2.80789185 -1.25091577
v 0.0333633833 2.80789185 1.24236321
v 0.0333633833 2.70410037 1.24236321
v 0.0333637595 2.70410037 -1.25091577
v 0.0333637595 2.70410037 -1.25091577
v 0.0333633833 2.70410037 1.24236321
v -0.0348923802 2.70410037 1.24236321
v -0.0348920077 2.70410037 -1.25091577
v -0.0348920077 2.70410037 -1.25091577
v -0.0348923802 2.70410037 1.24236321
v -0.0348923802 2.80789185 1.24236321
v -0.0348920077 2.80789185 -1.25091577
v -0.034892302 2.35558748 0.704377115
v -0.0348923877 2.35558748 1.27306342
v 0.0333633795 2.35558748 1.27306342
v 0.0333634652 2.35558748 0.704377115
v 0.0333634652 2.35558748 0.704377115
v 0.0333633795 2.35558748 1.27306342
v 0.0333633795 2.20286322 1.27306342
v 0.0333634652 2.20286322 0.704377115
v 0.0333634652 2.20286322 0.704377115
v 0.0333633795 2.20286322 1.27306342
v -0.0348923877 2.20286322 1.27306342
v -0.034892302 2.20286322 0.704377115
v -0.034892302 2.20286322 0.704377115
v -0.0348923877 2.20286322 1.27306342
v -0.0348923877 2.35558748 1.27306342
v -0.034892302 2.35558748 0.704377115
v 0.0333637595 1.52587887E-07 -1.2657882
v -0.000764126191 1.52587887E-07 -1.23218203
v -0.034892004 1.52587887E-07 -1.2657882
v 0.0333637707 1.52587887E-07 -1.32918215
v -0.0348919965 1.52587887E-07 -1.32918215
v 0.0333637707 2.83940005 -1.32918215
v 0.0333637595 2.83940005 -1.2657882
v 0.0333637595 1.52587887E-07 -1.2657882
v -0.034892004 1.52587887E-07 -1.2657882
v -0.0348919965 2.83940005 -1.32918215
v -0.034892004 2.83940005 -1.2657882
v -0.000764126191 1.52587887E-07 -1.23218203
v -0.000764126191 2.83940005 -1.23218203
v 0.0333637595 2.83940005 -1.2657882
v 0.0333637707 2.83940005 -1.32918215
v -0.0348919965 2.83940005 -1.32918215
v -0.034892004 2.83940005 -1.2657882
v -0.000764126191 2.83940005 -1.23218203
v 0.0333637595 1.52587887E-07 -1.2657882
v 0.0333637595 2.83940005 -1.2657882
v -0.000764126191 1.52587887E-07 -1.23218203
v -0.0348919965 1.52587887E-07 -1.32918215
v -0.0348919965 2.83940005 -1.32918215
v 0.0333637707 2.83940005 -1.32918215
v 0.0333637707 1.52587887E-07 -1.32918215
v -0.0348920897 1.52587887E-07 -0.709560096
v -0.000764199998 1.52587887E-07 -0.743166327
v 0.0333636776 1.52587887E-07 -0.709560096
v -0.0348920934 1.13466443E-16 -0.669658482
v 0.0333636738 1.21825361E-16 -0.669658482
v -0.000764214667 1.52587887E-07 -0.646166205
v 0.0333636776 2.83940005 -0.709560215
v -0.000764199998 2.83940005 -0.743166506
v -0.0348920897 2.83940005 -0.709560215
v 0.0333636738 2.83940005 -0.66965878
v -0.0348920934 2.83940005 -0.66965878
v -0.000764214667 2.83940005 -0.646166384
v 0.0333636738 1.21825361E-16 -0.669658482
v 0.0333636738 2.83940005 -0.66965878
v -0.000764214667 1.52587887E-07 -0.646166205
v 0.0333636776 1.52587887E-07 -0.709560096
v 0.0333636738 2.83940005 -0.66965878
v 0.0333636738 1.21825361E-16 -0.669658482
v 0.0333636776 2.83940005 -0.709560215
v -0.000764199998 1.52587887E-07 -0.743166327
v -0.000764199998 2.83940005 -0.743166506
v -0.0348922946 1.52587887E-07 0.669855416
v -0.000764409837 1.52587887E-07 0.646363378
v 0.0333634689 1.52587887E-07 0.669855416
v -0.034892302 1.52587887E-07 0.709757268
v 0.0333634615 1.52587887E-07 0.709757268
v -0.000764424505 1.52587887E-07 0.7433635
v 0.0333634689 2.83940005 0.669855177
v -0.000764409837 2.83940005 0.64636308
v -0.0348922946 2.83940005 0.669855177
v 0.0333634615 2.83940005 0.70975709
v -0.034892302 2.83940005 0.70975697
v -0.000764424505 2.83940005 0.743363202
v 0.0333634615 1.52587887E-07 0.709757268
v 0.0333634615 2.83940005 0.70975709
v -0.000764424505 1.52587887E-07 0.7433635
v 0.0333634689 1.52587887E-07 0.669855416
v 0.0333634615 2.83940005 0.70975709
v 0.0333634615 1.52587887E-07 0.709757268
v 0.0333634689 2.83940005 0.669855177
v -0.000764409837 1.52587887E-07 0.646363378
v -0.000764409837 2.83940005 0.64636308
v -0.000764199998 2.83940005 -0.743166506
v -0.000764199998 1.52587887E-07 -0.743166327
v -0.0348920897 1.52587887E-07 -0.709560096
v -0.0348920897 2.83940005 -0.709560215
v -0.0348920934 1.13466443E-16 -0.669658482
v -0.0348920934 2.83940005 -0.66965878
v -0.000764214667 1.52587887E-07 -0.646166205
v -0.000764214667 2.83940005 -0.646166384
v -0.000764409837 2.83940005 0.64636308
v -0.000764409837 1.52587887E-07 0.646363378
v -0.0348922946 1.52587887E-07 0.669855416
v -0.0348922946 2.83940005 0.669855177
v -0.034892302 1.52587887E-07 0.709757268
v -0.034892302 2.83940005 0.70975697
v -0.000764424505 1.52587887E-07 0.7433635
v -0.000764424505 2.83940005 0.743363202
v -0.0348922834 1.22381103 0.575587451
v -0.034892302 1.22381103 0.712097168
v 0.0333634615 1.22381103 0.712097168
v 0.0333634838 1.22381103 0.575587451
v 0.0333634838 1.22381103 0.575587451
v 0.0333634838 1.09196317 0.575587451
v -0.0348922834 1.09196317 0.575587451
v 0.0333634615 1.22381103 0.712097168
v 0.0333634615 1.09196317 0.712097168
v 0.0333634838 1.09196317 0.575587451
v -0.034892302 1.09196317 0.712097168
v 0.0333634615 1.09196317 0.712097168
v -0.0348922834 1.09196317 0.575587451
v -0.034892302 1.22381103 0.712097168
v -0.034892302 1.09196317 0.712097168
v -0.0348922834 1.22381103 0.575587451
v -0.0348920897 0.40463829 -0.711975873
v -0.0348921157 0.40463829 -0.537811279
v 0.0333636515 0.40463829 -0.537811279
v 0.0333636776 0.40463829 -0.711975873
v -0.0348921157 0.40463829 -0.537811279
v -0.0348921157 0.343343467 -0.537811279
v 0.0333636515 0.343343467 -0.537811279
v -0.0348920897 0.343343496 -0.711975873
v -0.0348921157 0.343343467 -0.537811279
v -0.0348920897 0.40463829 -0.711975873
v 0.0333636776 0.343343496 -0.711975873
v 0.0333636515 0.343343467 -0.537811279
v -0.0348920897 0.343343496 -0.711975873
v 0.0333636776 0.40463829 -0.711975873
v 0.0333636515 0.40463829 -0.537811279
v 0.0333636776 0.343343496 -0.711975873
v -0.0348920897 1.98830819 -0.711975873
v -0.0348921157 1.98830819 -0.537811279
v 0.0333636515 1.98830819 -0.537811279
v 0.0333636776 1.98830819 -0.711975873
v -0.0348921157 1.98830819 -0.537811279
v -0.0348921157 1.92027891 -0.537811279
v 0.0333636515 1.92027891 -0.537811279
v -0.0348920897 1.92027903 -0.711975873
v -0.0348921157 1.92027891 -0.537811279
v -0.0348920897 1.98830819 -0.711975873
v 0.0333636776 1.92027903 -0.711975873
v 0.0333636515 1.92027891 -0.537811279
v -0.0348920897 1.92027903 -0.711975873
v 0.0333636776 1.98830819 -0.711975873
v 0.0333636515 1.98830819 -0.537811279
v 0.0333636776 1.92027903 -0.711975873
v -0.034892004 2.35558772 -1.27486145
v -0.0348920897 2.35558748 -0.706175089
v 0.0333636776 2.35558748 -0.706175089
v 0.0333637632 2.35558772 -1.27486145
v 0.0333637632 2.35558772 -1.27486145
v 0.0333636776 2.35558748 -0.706175089
v 0.0333636776 2.20286322 -0.706175089
v 0.0333637632 2.20286345 -1.27486145
v 0.0333637632 2.20286345 -1.27486145
v 0.0333636776 2.20286322 -0.706175089
v -0.0348920897 2.20286322 -0.706175089
v -0.034892004 2.20286345 -1.27486145
v -0.034892004 2.20286345 -1.27486145
v -0.0348920897 2.20286322 -0.706175089
v -0.0348920897 2.35558748 -0.706175089
v -0.034892004 2.35558772 -1.27486145
v -0.0348920934 2.35558772 -0.672041774
v -0.0348922983 2.35558748 0.676659703
v 0.0333634689 2.35558748 0.676659703
v 0.0333636738 2.35558772 -0.672041774
v 0.0333636738 2.35558772 -0.672041774
v 0.0333634689 2.35558748 0.676659703
v 0.0333634689 2.25252891 0.676659703
v 0.0333636738 2.25252891 -0.672041774
v 0.0333636738 2.25252891 -0.672041774
v 0.0333634689 2.25252891 0.676659703
v -0.0348922983 2.25252891 0.676659703
v -0.0348920934 2.25252891 -0.672041774
v -0.0348920934 2.25252891 -0.672041774
v -0.0348922983 2.25252891 0.676659703
v -0.0348922983 2.35558748 0.676659703
v -0.0348920934 2.35558772 -0.672041774
vn -0.716608822 -0.629627764 -0.300067604
vn 1.23200522E-07 -0.578164577 -0.815920234
vn 0.716609001 -0.629627764 -0.300067335
vn -0.577350318 -0.577350259 0.577350259
vn 0.577350259 -0.577350259 0.577350378
vn 0.716608942 0.629627824 -0.300067335
vn 1.23200536E-07 0.578164637 -0.815920234
vn -0.716608822 0.629627824 -0.300067604
vn 0.577350199 0.577350318 0.577350378
vn -0.577350259 0.577350259 0.577350199
vn -0.577350318 -0.577350259 0.577350259
vn -0.716608822 0.629627824 -0.300067604
vn -0.716608822 -0.629627764 -0.300067604
vn 1.23200536E-07 0.578164637 -0.815920234
vn 1.23200522E-07 -0.578164577 -0.815920234
vn 0.716609001 -0.629627764 -0.300067335
vn 0.577350259 -0.577350259 0.577350378
vn 0.716608942 0.629627824 -0.300067335
vn 1.23200522E-07 -0.578164577 -0.815920234
vn 1.23200536E-07 0.578164637 -0.815920234
vn 0.577350259 -0.577350259 0.577350378
vn 0.577350199 0.577350318 0.577350378
vn -0.577350259 0.577350259 0.577350199
vn -0.577350318 -0.577350259 0.577350259
vn -0.707106829 0.707106769 -1.06770152E-07
vn -0.707106829 0.707106769 -1.06770152E-07
vn 0.707106829 0.707106769 1.06770152E-07
vn 0.707106829 0.707106769 1.06770152E-07
vn 0.707106829 0.707106769 1.06770152E-07
vn 0.707106829 0.707106769 1.06770152E-07
vn 0.707106829 -0.707106769 1.06770152E-07
vn 0.707106829 -0.707106769 1.06770152E-07
vn 0.707106829 -0.707106769 1.06770152E-07
vn 0.707106829 -0.707106769 1.06770152E-07
vn -0.707106829 -0.707106769 -1.06770152E-07
vn -0.707106829 -0.707106769 -1.06770152E-07
vn -0.707106829 -0.707106769 -1.06770152E-07
vn -0.707106829 -0.707106769 -1.06770152E-07
vn -0.707106829 0.707106769 -1.06770152E-07
vn -0.707106829 0.707106769 -1.06770152E-07
vn -0.707106769 0.707106769 -1.06770145E-07
vn -0.707106769 0.707106769 -1.06770145E-07
vn 0.707106769 0.707106829 1.06770152E-07
vn 0.707106769 0.707106829 1.06770152E-07
vn 0.707106769 0.707106829 1.06770152E-07
vn 0.707106769 0.707106829 1.06770152E-07
vn 0.707106769 -0.707106829 1.06770152E-07
vn 0.707106769 -0.707106829 1.06770152E-07
vn 0.707106769 -0.707106829 1.06770152E-07
vn 0.707106769 -0.707106829 1.06770152E-07
vn -0.707106769 -0.707106769 -1.06770145E-07
vn -0.707106769 -0.707106769 -1.06770145E-07
vn -0.707106769 -0.707106769 -1.06770145E-07
vn -0.707106769 -0.707106769 -1.06770145E-07
vn -0.707106769 0.707106769 -1.06770145E-07
vn -0.707106769 0.707106769 -1.06770145E-07
vn 0.716609001 -0.629627824 0.300067127
vn -1.23200522E-07 -0.578164399 0.815920234
vn -0.716609061 -0.629627824 0.300066888
vn 0.577350318 -0.577350259 -0.577350199
vn -0.577350199 -0.577350318 -0.577350378
vn 0.577350318 0.577350259 -0.577350199
vn 0.716609001 0.629627824 0.300067127
vn 0.716609001 -0.629627824 0.300067127
vn -0.716609061 -0.629627824 0.300066888
vn -0.577350199 0.577350318 -0.577350378
vn -0.716609061 0.629627824 0.300066888
vn -1.23200522E-07 -0.578164399 0.815920234
vn -1.23200522E-07 0.578164399 0.815920234
vn 0.716609001 0.629627824 0.300067127
vn 0.577350318 0.577350259 -0.577350199
vn -0.577350199 0.577350318 -0.577350378
vn -0.716609061 0.629627824 0.300066888
vn -1.23200522E-07 0.578164399 0.815920234
vn 0.716609001 -0.629627824 0.300067127
vn 0.716609001 0.629627824 0.300067127
vn -1.23200522E-07 -0.578164399 0.815920234
vn -0.577350199 -0.577350318 -0.577350378
vn -0.577350199 0.577350318 -0.577350378
vn 0.577350318 0.577350259 -0.577350199
vn 0.577350318 -0.577350259 -0.577350199
vn -0.716609299 -0.629627347 -0.300067544
vn 1.66651972E-07 -0.57816422 -0.815920472
vn 0.716609478 -0.629627347 -0.300067276
vn -0.697384655 -0.615849495 0.366584212
vn 0.697384536 -0.615849435 0.36658445
vn -1.20908126E-07 -0.599014461 0.800738215
vn 0.716609061 0.629627824 -0.300066888
vn 1.66651972E-07 0.578164399 -0.815920293
vn -0.716609001 0.629627764 -0.300067127
vn 0.697384775 0.615848899 0.366585195
vn -0.697384834 0.615848839 0.366584897
vn -1.20908169E-07 0.599013865 0.800738573
vn 0.697384536 -0.615849435 0.36658445
vn 0.697384775 0.615848899 0.366585195
vn -1.20908126E-07 -0.599014461 0.800738215
vn 0.716609478 -0.629627347 -0.300067276
vn 0.697384775 0.615848899 0.366585195
vn 0.697384536 -0.615849435 0.36658445
vn 0.716609061 0.629627824 -0.300066888
vn 1.66651972E-07 -0.57816422 -0.815920472
vn 1.66651972E-07 0.578164399 -0.815920293
vn -0.697384119 -0.615848243 -0.36658743
vn 1.20907984E-07 -0.599015415 -0.800737441
vn 0.697384238 -0.615848184 -0.366587162
vn -0.716608942 -0.629627764 0.300067365
vn 0.716608822 -0.629627764 0.300067604
vn -1.23200522E-07 -0.578164577 0.815920234
vn 0.697384238 0.615848422 -0.366587162
vn 1.20908027E-07 0.599014997 -0.800737739
vn -0.697384059 0.615848362 -0.36658743
vn 0.716608882 0.629627764 0.300067574
vn -0.716609001 0.629627764 0.300067306
vn -1.23200508E-07 0.578164637 0.815920055
vn 0.716608822 -0.629627764 0.300067604
vn 0.716608882 0.629627764 0.300067574
vn -1.23200522E-07 -0.578164577 0.815920234
vn 0.697384238 -0.615848184 -0.366587162
vn 0.716608882 0.629627764 0.300067574
vn 0.716608822 -0.629627764 0.300067604
vn 0.697384238 0.615848422 -0.366587162
vn 1.20907984E-07 -0.599015415 -0.800737441
vn 1.20908027E-07 0.599014997 -0.800737739
vn 1.66651972E-07 0.578164399 -0.815920293
vn 1.66651972E-07 -0.57816422 -0.815920472
vn -0.716609299 -0.629627347 -0.300067544
vn -0.716609001 0.629627764 -0.300067127
vn -0.697384655 -0.615849495 0.366584212
vn -0.697384834 0.615848839 0.366584897
vn -1.20908126E-07 -0.599014461 0.800738215
vn -1.20908169E-07 0.599013865 0.800738573
vn 1.20908027E-07 0.599014997 -0.800737739
vn 1.20907984E-07 -0.599015415 -0.800737441
vn -0.697384119 -0.615848243 -0.36658743
vn -0.697384059 0.615848362 -0.36658743
vn -0.716608942 -0.629627764 0.300067365
vn -0.716609001 0.629627764 0.300067306
vn -1.23200522E-07 -0.578164577 0.815920234
vn -1.23200508E-07 0.578164637 0.815920055
vn -0.577350199 0.577350199 -0.577350318
vn -0.577350318 0.577350199 0.577350199
vn 0.577350199 0.577350199 0.577350318
vn 0.577350318 0.577350199 -0.577350199
vn 0.577350318 0.577350199 -0.577350199
vn 0.577350318 -0.577350199 -0.577350199
vn -0.577350199 -0.577350199 -0.577350318
vn 0.577350199 0.577350199 0.577350318
vn 0.577350199 -0.577350199 0.577350318
vn 0.577350318 -0.577350199 -0.577350199
vn -0.577350318 -0.577350199 0.577350199
vn 0.577350199 -0.577350199 0.577350318
vn -0.577350199 -0.577350199 -0.577350318
vn -0.577350318 0.577350199 0.577350199
vn -0.577350318 -0.577350199 0.577350199
vn -0.577350199 0.577350199 -0.577350318
vn -0.707106769 0.707106769 -1.06770145E-07
vn -0.577350318 0.577350259 0.577350199
vn 0.577350199 0.577350259 0.577350318
vn 0.707106769 0.707106769 1.06770145E-07
vn -0.577350318 0.577350259 0.577350199
vn -0.577350318 -0.577350378 0.57735014
vn 0.577350199 -0.577350378 0.577350259
vn -0.707106829 -0.707106769 -2.61646562E-07
vn -0.577350318 -0.577350378 0.57735014
vn -0.707106769 0.707106769 -1.06770145E-07
vn 0.707106829 -0.707106769 0
vn 0.577350199 -0.577350378 0.577350259
vn -0.707106829 -0.707106769 -2.61646562E-07
vn 0.707106769 0.707106769 1.06770145E-07
vn 0.577350199 0.577350259 0.577350318
vn 0.707106829 -0.707106769 0
vn -0.707106769 0.707106829 -1.06770152E-07
vn -0.577350259 0.577350259 0.577350199
vn 0.577350199 0.577350318 0.577350378
vn 0.707106769 0.707106829 1.06770152E-07
vn -0.577350259 0.577350259 0.577350199
vn -0.577350259 -0.577350557 0.57735002
vn 0.57735014 -0.577350497 0.57735014
vn -0.707106888 -0.70710659 -7.26275573E-07
vn -0.577350259 -0.577350557 0.57735002
vn -0.707106769 0.707106829 -1.06770152E-07
vn 0.707106888 -0.70710659 -5.12735198E-07
vn 0.57735014 -0.577350497 0.57735014
vn -0.707106888 -0.70710659 -7.26275573E-07
vn 0.707106769 0.707106829 1.06770152E-07
vn 0.577350199 0.577350318 0.577350378
vn 0.707106888 -0.70710659 -5.12735198E-07
vn -0.70710665 0.707106888 0
vn -0.707106829 0.707106769 0
vn 0.707106829 0.707106769 2.96498513E-07
vn 0.70710665 0.707106888 2.9649857E-07
vn 0.70710665 0.707106888 2.9649857E-07
vn 0.707106829 0.707106769 2.96498513E-07
vn 0.70710665 -0.707106888 0
vn 0.707106829 -0.707106769 0
vn 0.707106829 -0.707106769 0
vn 0.70710665 -0.707106888 0
vn -0.70710665 -0.707106888 -2.9649857E-07
vn -0.707106829 -0.707106769 -2.96498513E-07
vn -0.707106829 -0.707106769 -2.96498513E-07
vn -0.70710665 -0.707106888 -2.9649857E-07
vn -0.707106829 0.707106769 0
vn -0.70710665 0.707106888 0
vn -0.707106769 0.707106769 0
vn -0.707106829 0.70710665 0
vn 0.707106829 0.70710665 1.86770038E-07
vn 0.707106769 0.707106769 1.86770009E-07
vn 0.707106769 0.707106769 1.86770009E-07
vn 0.707106829 0.70710665 1.86770038E-07
vn 0.707106829 -0.707106769 1.06770152E-07
vn 0.707106829 -0.707106769 1.06770152E-07
vn 0.707106829 -0.707106769 1.06770152E-07
vn 0.707106829 -0.707106769 1.06770152E-07
vn -0.707106829 -0.707106769 -1.06770152E-07
vn -0.707106829 -0.707106769 -1.06770152E-07
vn -0.707106829 -0.707106769 -1.06770152E-07
vn -0.707106829 -0.707106769 -1.06770152E-07
vn -0.707106829 0.70710665 0
vn -0.707106769 0.707106769 0
vt 1 0.346455634
vt 0.5 0
vt 0 0.346455634
vt 1 1
vt 0 1
vt 1 0.346455634
vt 0.5 0
vt 0 0.346455634
vt 1 1
vt 0 1
vt 0 0
vt 0.653544366 1
vt 0.653544366 0
vt 0.528209925 1
vt 0.528210044 0
vt 0.346455634 0
vt 1 0
vt 0.346455634 1
vt 0.471789986 0
vt 0.471790045 1
vt 0 0
vt 0 1
vt 1 1
vt 1 0
vt 0 0
vt 0 1
vt 1 1
vt 1 0
vt 0 0
vt 0 1
vt 1 1
vt 1 0
vt 0 0
vt 0 1
vt 1 1
vt 1 0
vt 0 0
vt 0 1
vt 1 1
vt 1 0
vt 0 0
vt 0 1
vt 1 1
vt 1 0
vt 0 0
vt 0 1
vt 1 1
vt 1 0
vt 0 0
vt 0 1
vt 1 1
vt 1 0
vt 0 0
vt 0 1
vt 1 1
vt 1 0
vt 0 0.653544784
vt 0.5 1
vt 1 0.653544784
vt 0 0
vt 1 0
vt 0 1
vt 0.653544784 1
vt 0.653544784 0
vt 0.346455187 0
vt 1 1
vt 0.346455187 1
vt 0.471790045 0
vt 0.471790105 1
vt 1 0.653544784
vt 1 0
vt 0 0
vt 0 0.653544784
vt 0.5 1
vt 0.33198297 0
vt 0.33198303 1
vt 0.5 0
vt 0 0
vt 0 1
vt 1 1
vt 1 0
vt 1 0.346455187
vt 0.5 0
vt 0 0.346455187
vt 1 0.653544784
vt 0 0.653544784
vt 0.5 1
vt 1 0.346455187
vt 0.5 0
vt 0 0.346455187
vt 1 0.653544784
vt 0 0.653544784
vt 0.5 1
vt 0.33198297 0
vt 0.331983 1
vt 0.5 0
vt 0.346455187 0
vt 0.653544784 1
vt 0.653544784 0
vt 0.346455187 1
vt 0.471790045 0
vt 0.471790045 1
vt 1 0.346455187
vt 0.5 0
vt 0 0.346455187
vt 1 0.653544784
vt 0 0.653544784
vt 0.5 1
vt 1 0.346455187
vt 0.5 0
vt 0 0.346455187
vt 1 0.653544784
vt 0 0.653544784
vt 0.5 1
vt 0.33198297 0
vt 0.33198303 1
vt 0.5 0
vt 0.346455187 0
vt 0.653544784 1
vt 0.653544784 0
vt 0.346455187 1
vt 0.471790045 0
vt 0.471790105 1
vt 0.528209925 1
vt 0.528209925 0
vt 0.653544784 0
vt 0.653544784 1
vt 0.346455187 0
vt 0.346455187 1
vt 0.471790045 0
vt 0.471790045 1
vt 0.528209925 1
vt 0.528209925 0
vt 0.653544784 0
vt 0.653544784 1
vt 0.346455187 0
vt 0.346455187 1
vt 0.471790045 0
vt 0.471790105 1
vt 0 0
vt 0 1
vt 1 1
vt 1 0
vt 0 0
vt 0 0
vt 0 0
vt 0 1
vt 1 1
vt 1 0
vt 1 1
vt 0 1
vt 1 0
vt 1 1
vt 0 1
vt 1 0
vt 0 0
vt 0 1
vt 1 1
vt 1 0
vt 1 1
vt 1 1
vt 1 1
vt 0 0
vt 0 1
vt 1 0
vt 0 0
vt 0 1
vt 1 0
vt 0 0
vt 0 1
vt 1 0
vt 0 0
vt 0 1
vt 1 1
vt 1 0
vt 1 1
vt 1 1
vt 1 1
vt 0 0
vt 0 1
vt 1 0
vt 0 0
vt 0 1
vt 1 0
vt 0 0
vt 0 1
vt 1 0
vt 0 0
vt 0 1
vt 1 1
vt 1 0
vt 0 0
vt 0 1
vt 1 1
vt 1 0
vt 0 0
vt 0 1
vt 1 1
vt 1 0
vt 0 0
vt 0 1
vt 1 1
vt 1 0
vt 0 0
vt 0 1
vt 1 1
vt 1 0
vt 0 0
vt 0 1
vt 1 1
vt 1 0
vt 0 0
vt 0 1
vt 1 1
vt 1 0
vt 0 0
vt 0 1
vt 1 1
vt 1 0
g submesh0
f 1/1/1 2/2/2 3/3/3
f 3/3/3 4/4/4 1/1/1
f 3/3/3 5/5/5 4/4/4
f 6/6/6 7/7/7 8/8/8
f 8/8/8 9/9/9 6/6/6
f 8/8/8 10/10/10 9/9/9
f 11/11/11 10/10/10 12/12/12
f 11/11/11 12/12/12 13/13/13
f 14/14/14 13/13/13 12/12/12
f 14/14/14 15/15/15 13/13/13
f 16/16/16 9/9/9 17/17/17
f 16/16/16 18/18/18 9/9/9
f 19/19/19 18/18/18 16/16/16
f 19/19/19 20/20/20 18/18/18
f 21/21/21 22/22/22 23/23/23
f 21/21/21 23/23/23 24/24/24
f 25/25/25 26/26/26 27/27/27
f 25/25/25 27/27/27 28/28/28
f 29/29/29 30/30/30 31/31/31
f 29/29/29 31/31/31 32/32/32
f 33/33/33 34/34/34 35/35/35
f 33/33/33 35/35/35 36/36/36
f 37/37/37 38/38/38 39/39/39
f 37/37/37 39/39/39 40/40/40
f 41/41/41 42/42/42 43/43/43
f 41/41/41 43/43/43 44/44/44
f 45/45/45 46/46/46 47/47/47
f 45/45/45 47/47/47 48/48/48
f 49/49/49 50/50/50 51/51/51
f 49/49/49 51/51/51 52/52/52
f 53/53/53 54/54/54 55/55/55
f 53/53/53 55/55/55 56/56/56
f 57/57/57 58/58/58 59/59/59
f 60/60/60 57/57/57 59/59/59
f 59/59/59 61/61/61 60/60/60
f 60/60/60 62/62/62 63/63/63
f 60/60/60 63/63/63 64/64/64
f 65/65/65 66/66/66 61/61/61
f 65/65/65 67/67/67 66/66/66
f 68/68/68 67/67/67 65/65/65
f 68/68/68 69/69/69 67/67/67
f 70/70/70 71/71/71 72/72/72
f 72/72/72 73/73/73 70/70/70
f 73/73/73 74/74/74 70/70/70
f 75/75/75 76/76/76 74/74/74
f 75/75/75 74/74/74 77/77/77
f 78/78/78 79/79/79 80/80/80
f 78/78/78 80/80/80 81/81/81
f 82/82/82 83/83/83 84/84/84
f 84/84/84 85/85/85 82/82/82
f 84/84/84 86/86/86 85/85/85
f 86/86/86 87/87/87 85/85/85
f 88/88/88 89/89/89 90/90/90
f 90/90/90 91/91/91 88/88/88
f 90/90/90 92/92/92 91/91/91
f 92/92/92 93/93/93 91/91/91
f 94/94/94 95/95/95 93/93/93
f 94/94/94 93/93/93 96/96/96
f 97/97/97 98/98/98 99/99/99
f 97/97/97 100/100/100 98/98/98
f 101/101/101 100/100/100 97/97/97
f 101/101/101 102/102/102 100/100/100
f 103/103/103 104/104/104 105/105/105
f 105/105/105 106/106/106 103/103/103
f 105/105/105 107/107/107 106/106/106
f 107/107/107 108/108/108 106/106/106
f 109/109/109 110/110/110 111/111/111
f 111/111/111 112/112/112 109/109/109
f 111/111/111 113/113/113 112/112/112
f 113/113/113 114/114/114 112/112/112
f 115/115/115 116/116/116 114/114/114
f 115/115/115 114/114/114 117/117/117
f 118/118/118 119/119/119 120/120/120
f 118/118/118 121/121/121 119/119/119
f 122/122/122 121/121/121 118/118/118
f 122/122/122 123/123/123 121/121/121
f 124/124/124 125/125/125 126/126/126
f 124/124/124 126/126/126 127/127/127
f 128/128/128 127/127/127 126/126/126
f 128/128/128 129/129/129 127/127/127
f 130/130/130 129/129/129 128/128/128
f 130/130/130 131/131/131 129/129/129
f 132/132/132 133/133/133 134/134/134
f 132/132/132 134/134/134 135/135/135
f 136/136/136 135/135/135 134/134/134
f 136/136/136 137/137/137 135/135/135
f 138/138/138 137/137/137 136/136/136
f 138/138/138 139/139/139 137/137/137
f 140/140/140 141/141/141 142/142/142
f 140/140/140 142/142/142 143/143/143
f 140/140/140 144/144/144 145/145/145
f 140/140/140 145/145/145 146/146/146
f 144/144/144 147/147/147 148/148/148
f 144/144/144 148/148/148 149/149/149
f 142/142/142 150/150/150 148/148/148
f 145/145/145 151/151/151 150/150/150
f 145/145/145 150/150/150 152/152/152
f 142/142/142 153/153/153 150/150/150
f 146/146/146 154/154/154 153/153/153
f 146/146/146 153/153/153 155/155/155
f 156/156/156 157/157/157 158/158/158
f 156/156/156 158/158/158 159/159/159
f 158/158/158 160/160/160 161/161/161
f 158/158/158 161/161/161 162/162/162
f 163/163/163 164/164/164 160/160/160
f 163/163/163 160/160/160 165/165/165
f 166/166/166 167/167/167 161/161/161
f 166/166/166 161/161/161 168/168/168
f 169/169/169 170/170/170 162/162/162
f 169/169/169 162/162/162 171/171/171
f 172/172/172 173/173/173 174/174/174
f 172/172/172 174/174/174 175/175/175
f 174/174/174 176/176/176 177/177/177
f 174/174/174 177/177/177 178/178/178
f 179/179/179 180/180/180 176/176/176
f 179/179/179 176/176/176 181/181/181
f 182/182/182 183/183/183 177/177/177
f 182/182/182 177/177/177 184/184/184
f 185/185/185 186/186/186 178/178/178
f 185/185/185 178/178/178 187/187/187
f 188/188/188 189/189/189 190/190/190
f 188/188/188 190/190/190 191/191/191
f 192/192/192 193/193/193 194/194/194
f 192/192/192 194/194/194 195/195/195
f 196/196/196 197/197/197 198/198/198
f 196/196/196 198/198/198 199/199/199
f 200/200/200 201/201/201 202/202/202
f 200/200/200 202/202/202 203/203/203
f 204/204/204 205/205/205 206/206/206
f 204/204/204 206/206/206 207/207/207
f 208/208/208 209/209/209 210/210/210
f 208/208/208 210/210/210 211/211/211
f 212/212/212 213/213/213 214/214/214
f 212/212/212 214/214/214 215/215/215
f 216/216/216 217/217/217 218/218/218
f 216/216/216 218/218/218 219/219/219
