# wall.doorway.collision
v -0.1020578 2.31477499 -0.758139312
v -0.1020578 1.94927963E-14 -1.50000119
v -0.1020578 1.94473716E-14 -0.758139312
v -0.1020578 3.00000429 -1.50000107
v -0.1020578 2.31477499 0.784595072
v -0.1020578 3.00000429 1.49999893
v -0.1020578 1.93090986E-14 1.49999869
v -0.1020578 1.93529037E-14 0.784595072
v 0.0999975577 0.115550689 0.762647212
v 0.0999975577 0.115659863 -0.761731863
v 0.0294174608 0.12529847 -0.59113431
v -0.0697177127 0.125297695 -0.591134191
v 0.0294174608 0.125298217 0.601498485
v -0.0697128028 0.125297099 0.601498604
v -0.0697759166 2.19770646 -0.591167331
v -0.0697710142 2.19770575 0.6015293
v 0.0294174608 2.19770646 -0.591148078
v 0.0999975577 0.115659863 -0.761731863
v 0.0999975577 2.34865522 -0.761731923
v 0.0294174608 2.19770598 0.60151124
v 0.0294174608 2.19770646 -0.591148078
v 0.0999975577 2.34865522 -0.761731923
v 0.0999975577 2.34865522 0.762647212
v 0.0999975577 0.115550689 0.762647212
v -0.0697128028 0.125297099 0.601498604
v -0.176004425 2.16038442 0.917654753
v -0.0697710142 2.19770575 0.6015293
v -0.173618421 -4.1961664E-07 0.913462102
v -0.0697177127 0.125297695 -0.591134191
v -0.173618555 1.14440937E-07 -0.913462818
v -0.0879756436 -4.57763576E-07 0.935532808
v -0.0879756436 1.5794167E-07 -0.935533285
v -0.176004425 2.16038442 0.917654753
v -0.0879756436 2.17919564 0.943929553
v -0.0697177127 0.125297695 -0.591134191
v -0.0697759166 2.19770646 -0.591167331
v -0.176004484 2.16038489 -0.917654693
v -0.173618555 1.14440937E-07 -0.913462818
v -0.0879756436 1.5794167E-07 -0.935533285
v -0.176004484 2.16038489 -0.917654693
v -0.0879756436 2.17919636 -0.943929255
v -0.176004484 2.16038489 -0.917654693
v -0.0879756436 2.28290343 -0.924556851
v -0.0879756436 2.17919636 -0.943929255
v -0.176314965 2.25973558 -0.89767909
v -0.0697759166 2.19770646 -0.591167331
v -0.175606251 2.39018512 -0.815835238
v -0.0879756436 2.42331934 -0.842101097
v -0.174770921 2.47374392 -0.687264383
v -0.0879756436 2.50800323 -0.709216118
v -0.0879756436 2.53003979 -0.605105281
v -0.174805596 2.49574828 -0.588903785
v -0.0879756436 2.53003955 0.6051054
v -0.174805567 2.49574804 0.588903844
v -0.0697710142 2.19770575 0.6015293
v -0.174770892 2.47374344 0.687264264
v -0.0879756436 2.50800276 0.709216297
v -0.0879756436 2.4233191 0.842101395
v -0.175606191 2.39018488 0.815835238
v -0.0879756436 2.28290319 0.924557328
v -0.17631492 2.25973535 0.897679448
v -0.176004425 2.16038442 0.917654753
v -0.0879756436 2.17919564 0.943929553
v 0.0999975577 2.34865522 0.762647212
v 0.0999975577 1.93090986E-14 1.49999869
v 0.0999975577 0.115550689 0.762647212
v 0.0999975577 0.115659863 -0.761731863
v 0.0999975577 3.00000429 1.49999869
v 0.0999975577 2.34865522 -0.761731923
v 0.0999975577 1.94927963E-14 -1.50000119
v 0.0999975577 3.00000429 -1.50000119
v -0.00103027339 3.00000429 1.50499904
v -0.00103027339 3.00000429 -1.50500119
v -0.00103027339 1.52587901E-07 -1.50500119
v -0.00103027339 1.9308792E-14 1.50499904
v -0.1020578 1.94927963E-14 -1.50000119
v -0.1020578 1.93090986E-14 1.49999869
v -0.1020578 3.00000429 -1.50000107
v -0.1020578 3.00000429 1.49999893
vn -1 0 0
vn -0.590088308 -0.579995573 -0.561605752
vn -1 0 0
vn -0.590088248 0.579995513 -0.561605811
vn -1 0 0
vn -0.590088785 0.579995275 0.561605453
vn -0.590088367 -0.579995811 0.561605453
vn -1 0 0
vn 0.99285239 0.0673398823 -0.098536253
vn 0.993524909 0.063887924 0.0939494669
vn 0.482699513 0.583669722 0.652940094
vn -0.694976985 0.599849403 0.396469057
vn 0.47600925 0.584772348 -0.656853497
vn -0.693925083 0.59847331 -0.400371879
vn -0.788270116 -0.441454619 0.428658456
vn -0.785525799 -0.4414002 -0.433722287
vn 0.76667273 -0.466548741 0.441072702
vn 0.993524909 0.063887924 0.0939494669
vn 0.997153997 -0.0524396487 0.0541653149
vn 0.762558758 -0.464305133 -0.450471878
vn 0.76667273 -0.466548741 0.441072702
vn 0.997153997 -0.0524396487 0.0541653149
vn 0.996985376 -0.0543879792 -0.0553356111
vn 0.99285239 0.0673398823 -0.098536253
vn -0.693925083 0.59847331 -0.400371879
vn -0.871650934 0.0384572074 0.488616168
vn -0.785525799 -0.4414002 -0.433722287
vn -0.71492368 -0.561196327 0.417064369
vn -0.694976985 0.599849403 0.396469057
vn -0.713258684 -0.562245369 -0.418499917
vn -0.204928994 -0.644028425 0.737042367
vn -0.204926863 -0.644028783 -0.737042725
vn -0.871650934 0.0384572074 0.488616168
vn -0.299840987 0.0991114825 0.94882679
vn -0.694976985 0.599849403 0.396469057
vn -0.788270116 -0.441454619 0.428658456
vn -0.869373381 0.0387851037 -0.492631435
vn -0.713258684 -0.562245369 -0.418499917
vn -0.204926863 -0.644028783 -0.737042725
vn -0.869373381 0.0387851037 -0.492631435
vn -0.299839079 0.0991130546 -0.948827207
vn -0.869373381 0.0387851037 -0.492631435
vn -0.364749193 0.346446782 -0.864252627
vn -0.299839079 0.0991130546 -0.948827207
vn -0.8759951 0.164959818 -0.453233719
vn -0.788270116 -0.441454619 0.428658456
vn -0.887497067 0.319689214 -0.331885159
vn -0.41936028 0.638420105 -0.645412087
vn -0.893731415 0.417295277 -0.164647147
vn -0.41916728 0.83620882 -0.353628963
vn -0.385347694 0.916602015 -0.106525801
vn -0.895441115 0.443155944 -0.0424020588
vn -0.385348052 0.916601956 0.106526174
vn -0.895659089 0.44267565 0.0428129509
vn -0.785525799 -0.4414002 -0.433722287
vn -0.894613385 0.415415406 0.164611295
vn -0.419168383 0.836208403 0.353628904
vn -0.419362158 0.638419867 0.645411015
vn -0.889169216 0.317039073 0.32994619
vn -0.364751339 0.346446306 0.864251912
vn -0.878143489 0.163407028 0.449624419
vn -0.871650934 0.0384572074 0.488616168
vn -0.299840987 0.0991114825 0.94882679
vn 0.996985376 -0.0543879792 -0.0553356111
vn 0.590088665 -0.579995692 0.561605275
vn 0.99285239 0.0673398823 -0.098536253
vn 0.993524909 0.063887924 0.0939494669
vn 0.590088904 0.579995513 0.561605215
vn 0.997153997 -0.0524396487 0.0541653149
vn 0.59008801 -0.579995692 -0.56160593
vn 0.590088069 0.579995275 -0.56160605
vn 2.1478553E-07 0.696147859 0.717898428
vn -3.23882801E-07 0.696148276 -0.717898071
vn -3.2353941E-07 -0.696148157 -0.71789819
vn 2.1512821E-07 -0.69614774 0.717898607
vn -0.590088308 -0.579995573 -0.561605752
vn -0.590088367 -0.579995811 0.561605453
vn -0.590088248 0.579995513 -0.561605811
vn -0.590088785 0.579995275 0.561605453
vt 10.20578 59.1133194
vt 10.20578 150
vt 10.20578 59.1133156
vt 10.20578 149.999985
vt 10.20578 -60.1499672
vt 10.20578 -150.000015
vt 10.20578 -150
vt 10.20578 -60.149971
vt -9.99975586 -60.1161499
vt -9.99975586 59.0802498
vt -1.59680748 59.1133156
vt 10.20578 59.1133156
vt -1.59656334 -60.149971
vt 10.20578 -60.149971
vt 10.20578 59.1133194
vt 10.20578 -60.1499672
vt -1.59968853 59.1133194
vt -9.99975586 59.0802498
vt -9.99975586 64.4046555
vt -1.59944534 -60.1499672
vt -1.59968853 59.1133194
vt -9.99975586 64.4046555
vt -9.99975586 -65.4146118
vt -9.99975586 -60.1161499
vt 0.000196966197 0.552239895
vt 0.533076108 0.641941726
vt 0.535341799 0.548603415
vt 0.000242678507 0.64074266
vt 10.20578 59.1133156
vt 0.000196966197 0.552239895
vt 0.000251942169 0.666551471
vt 0.000242678507 0.64074266
vt 0.533072591 0.64016211
vt 0.533039033 0.658492029
vt 0.000196966197 0.552239895
vt 0.53534174 0.548603356
vt 0.533076346 0.641942263
vt 0.000242678507 0.64074266
vt 0.000251942169 0.666551471
vt 0.533072829 0.64016211
vt 0.533039093 0.658492029
vt 0.174641088 0.699358165
vt 0.18441011 0.680594146
vt 0.174641088 0.687611103
vt 0.18441011 0.699358165
vt 0.205994099 0.749979317
vt 0.199679822 0.699358165
vt 0.199679837 0.681654751
vt 0.21736671 0.699358165
vt 0.217366725 0.681654751
vt 0.231432095 0.681654751
vt 0.231432095 0.699358165
vt 0.423584044 0.681654751
vt 0.423584044 0.699358165
vt 0.449068248 0.749979317
vt 0.437649429 0.699358165
vt 0.437649429 0.681654751
vt 0.455336303 0.681652248
vt 0.455336332 0.699358165
vt 0.470606029 0.68059665
vt 0.470606029 0.699358165
vt 0.480375051 0.699358165
vt 0.480375051 0.687611103
vt -9.99975586 -65.4146118
vt -9.99975586 -150
vt -9.99975586 -60.1161499
vt -9.99975586 59.0802498
vt -9.99975586 -150
vt -9.99975586 64.4046555
vt -9.99975586 150
vt -9.99975586 150
vt 0.103027344 -150.500031
vt 0.103027344 150.5
vt 0.103027344 150.5
vt 0.103027344 -150.500031
vt 10.20578 150
vt 10.20578 -150
vt 10.20578 149.999985
vt 10.20578 -150.000015
g submesh0
f 1/1/1 2/2/2 3/3/3
f 1/1/1 4/4/4 2/2/2
f 4/4/4 1/1/1 5/5/5
f 4/4/4 5/5/5 6/6/6
f 7/7/7 6/6/6 5/5/5
f 7/7/7 5/5/5 8/8/8
f 9/9/9 10/10/10 11/11/11
f 11/11/11 12/12/12 9/9/9
f 12/12/12 13/13/13 9/9/9
f 14/14/14 13/13/13 12/12/12
f 15/15/15 12/12/12 11/11/11
f 16/16/16 13/13/13 14/14/14
f 15/15/15 11/11/11 17/17/17
f 18/18/18 17/17/17 11/11/11
f 18/18/18 19/19/19 17/17/17
f 20/20/20 16/16/16 15/15/15
f 16/16/16 20/20/20 13/13/13
f 20/20/20 15/15/15 21/21/21
f 22/22/22 20/20/20 21/21/21
f 22/22/22 23/23/23 20/20/20
f 23/23/23 13/13/13 20/20/20
f 23/23/23 24/24/24 13/13/13
f 25/25/25 26/26/26 27/27/27
f 25/25/25 28/28/28 26/26/26
f 29/29/29 28/28/28 25/25/25
f 29/29/29 30/30/30 28/28/28
f 30/30/30 31/31/31 28/28/28
f 30/30/30 32/32/32 31/31/31
f 33/33/33 28/28/28 31/31/31
f 33/33/33 31/31/31 34/34/34
f 35/35/35 36/36/36 37/37/37
f 35/35/35 37/37/37 38/38/38
f 39/39/39 38/38/38 40/40/40
f 39/39/39 40/40/40 41/41/41
f 42/42/42 43/43/43 44/44/44
f 42/42/42 45/45/45 43/43/43
f 46/46/46 45/45/45 42/42/42
f 47/47/47 43/43/43 45/45/45
f 46/46/46 47/47/47 45/45/45
f 47/47/47 48/48/48 43/43/43
f 49/49/49 48/48/48 47/47/47
f 46/46/46 49/49/49 47/47/47
f 49/49/49 50/50/50 48/48/48
f 49/49/49 51/51/51 50/50/50
f 49/49/49 52/52/52 51/51/51
f 46/46/46 52/52/52 49/49/49
f 52/52/52 53/53/53 51/51/51
f 54/54/54 52/52/52 46/46/46
f 52/52/52 54/54/54 53/53/53
f 54/54/54 46/46/46 55/55/55
f 56/56/56 53/53/53 54/54/54
f 54/54/54 55/55/55 56/56/56
f 56/56/56 57/57/57 53/53/53
f 56/56/56 58/58/58 57/57/57
f 56/56/56 59/59/59 58/58/58
f 59/59/59 56/56/56 55/55/55
f 59/59/59 60/60/60 58/58/58
f 61/61/61 59/59/59 55/55/55
f 59/59/59 61/61/61 60/60/60
f 61/61/61 55/55/55 62/62/62
f 62/62/62 60/60/60 61/61/61
f 62/62/62 63/63/63 60/60/60
f 64/64/64 65/65/65 66/66/66
f 67/67/67 66/66/66 65/65/65
f 64/64/64 68/68/68 65/65/65
f 68/68/68 64/64/64 69/69/69
f 70/70/70 69/69/69 67/67/67
f 67/67/67 65/65/65 70/70/70
f 68/68/68 69/69/69 71/71/71
f 70/70/70 71/71/71 69/69/69
f 71/71/71 72/72/72 68/68/68
f 65/65/65 68/68/68 72/72/72
f 70/70/70 73/73/73 71/71/71
f 71/71/71 73/73/73 72/72/72
f 74/74/74 70/70/70 65/65/65
f 70/70/70 74/74/74 73/73/73
f 74/74/74 65/65/65 75/75/75
f 65/65/65 72/72/72 75/75/75
f 76/76/76 74/74/74 75/75/75
f 76/76/76 73/73/73 74/74/74
f 76/76/76 75/75/75 77/77/77
f 77/77/77 75/75/75 72/72/72
f 76/76/76 78/78/78 73/73/73
f 77/77/77 72/72/72 79/79/79
f 73/73/73 78/78/78 79/79/79
f 73/73/73 79/79/79 72/72/72
