# wall.third_COL
v 0.062497776 -3.12566726E-06 -1.50421929
v 0.0624973178 -3.27825546E-06 1.50461304
v -9.80283494E-06 -3.43084321E-06 1.50961173
v 0.0624973178 1.00600004 1.50461304
v 0.062497776 1.00599992 -1.50421929
v -9.80283494E-06 1.00599992 1.50961173
v -9.34700438E-06 1.0059998 -1.50921869
v -9.34700438E-06 -3.27825501E-06 -1.50921869
v -0.0625145435 1.00600004 1.50461304
v -0.0625145435 -3.35454934E-06 1.50461304
v -0.0625140816 1.00599992 -1.50421929
v -0.0625140816 -3.12566726E-06 -1.50421929
vn 0.597671151 -0.581662893 -0.551776767
vn 0.597668588 -0.581662357 0.551779985
vn -1.01908267E-06 -0.689596891 0.724193454
vn 0.597667575 0.581663549 0.551779807
vn 0.597670078 0.581664026 -0.551776588
vn -1.20860898E-06 0.689596176 0.72419399
vn -9.9290321E-07 0.68959409 -0.724196136
vn -7.83837777E-07 -0.689594984 -0.724195361
vn -0.597668529 0.581663787 0.551778674
vn -0.597669423 -0.581662893 0.551778615
vn -0.597670734 0.581664205 -0.551775694
vn -0.597671449 -0.581663191 -0.551775992
g submesh0
f 1//1 2//2 3//3
f 4//4 2//2 1//1
f 3//3 2//2 4//4
f 4//4 1//1 5//5
f 6//6 4//4 5//5
f 3//3 4//4 6//6
f 7//7 5//5 1//1
f 6//6 5//5 7//7
f 1//1 3//3 8//8
f 7//7 1//1 8//8
f 9//9 6//6 7//7
f 10//10 3//3 6//6
f 10//10 6//6 9//9
f 9//9 7//7 11//11
f 11//11 7//7 8//8
f 11//11 10//10 9//9
f 12//12 8//8 3//3
f 11//11 8//8 12//12
f 11//11 12//12 10//10
f 12//12 3//3 10//10
