# wall.frame.fence.gate_COL_B
v -0.0137002012 0.0269635003 1.2470299
v -0.0137003874 2.25841522 0.71128279
v -0.0137004303 0.0269635003 0.711282849
v -0.0137002012 2.71977711 1.2470299
v -0.0136999246 2.25841522 -0.721568108
v -0.0137001919 2.71977711 -1.25731528
v -0.0136999628 0.0269635003 -0.721568227
v -0.0137001919 0.0269635003 -1.25731528
v 0.0069856015 0.0269635003 1.2470299
v -0.0137002012 0.0269635003 1.2470299
v -0.0137004303 0.0269635003 0.711282849
v 0.00698537054 0.0269635003 0.711282849
v 0.00698537054 0.0269635003 0.711282849
v -0.0137004303 0.0269635003 0.711282849
v -0.0137003874 2.25841522 0.71128279
v 0.00698541338 2.25841522 0.71128279
v 0.00698587811 2.25841522 -0.721568108
v -0.0136999246 2.25841522 -0.721568108
v -0.0136999628 0.0269635003 -0.721568227
v 0.00698583759 0.0269635003 -0.721568227
v 0.0069856015 0.0269635003 1.2470299
v 0.00698541338 2.25841522 0.71128279
v 0.00698560383 2.71977711 1.2470299
v 0.00698561361 2.71977711 -1.25731528
v 0.00698587811 2.25841522 -0.721568108
v 0.00698560895 0.0269635003 -1.25731528
v 0.00698560383 2.71977711 1.2470299
v -0.0137002012 0.0269635003 1.2470299
v -0.0137002012 2.71977711 1.2470299
v -0.0137001919 0.0269635003 -1.25731528
v -0.0137001919 2.71977711 -1.25731528
v 0.00698561361 2.71977711 -1.25731528
v 0.00698583759 0.0269635003 -0.721568227
v -0.0136999628 0.0269635003 -0.721568227
v -0.0137001919 0.0269635003 -1.25731528
v 0.00698560895 0.0269635003 -1.25731528
v -0.0137001919 2.71977711 -1.25731528
v -0.0137002012 2.71977711 1.2470299
v 0.00698560383 2.71977711 1.2470299
v 0.00698561361 2.71977711 -1.25731528
vn -0.577350199 -0.577350259 0.577350318
vn -0.904534042 -0.301511317 -0.301511228
vn -0.577350378 -0.577350259 -0.57735014
vn -0.577350259 0.577350199 0.577350318
vn -0.904534042 -0.301511437 0.301511496
vn -0.577350318 0.577350318 -0.577350199
vn -0.577350199 -0.577350318 0.577350318
vn -0.577350378 -0.577350259 -0.57735014
vn 0.577350378 -0.577350199 0.577350199
vn -0.577350199 -0.577350259 0.577350318
vn -0.577350378 -0.577350259 -0.57735014
vn 0.577350199 -0.577350259 -0.577350318
vn 0.577350199 -0.577350259 -0.577350318
vn -0.577350378 -0.577350259 -0.57735014
vn -0.904534042 -0.301511317 -0.301511228
vn 0.904534042 -0.301511377 -0.301511437
vn 0.904534042 -0.301511288 0.301511168
vn -0.904534042 -0.301511437 0.301511496
vn -0.577350199 -0.577350318 0.577350318
vn 0.577350378 -0.577350259 0.57735008
vn 0.577350378 -0.577350199 0.577350199
vn 0.904534042 -0.301511377 -0.301511437
vn 0.577350318 0.577350318 0.577350199
vn 0.577350259 0.577350199 -0.577350318
vn 0.904534042 -0.301511288 0.301511168
vn 0.57735014 -0.577350259 -0.577350378
vn 0.577350318 0.577350318 0.577350199
vn -0.577350199 -0.577350259 0.577350318
vn -0.577350259 0.577350199 0.577350318
vn -0.577350378 -0.577350259 -0.57735014
vn -0.577350318 0.577350318 -0.577350199
vn 0.577350259 0.577350199 -0.577350318
vn 0.577350378 -0.577350259 0.57735008
vn -0.577350199 -0.577350318 0.577350318
vn -0.577350378 -0.577350259 -0.57735014
vn 0.57735014 -0.577350259 -0.577350378
vn -0.577350318 0.577350318 -0.577350199
vn -0.577350259 0.577350199 0.577350318
vn 0.577350318 0.577350318 0.577350199
vn 0.577350259 0.577350199 -0.577350318
vt 0 0
vt 1 0.5
vt 1 0
vt 0.228983745 0.933896244
vt 0 0.5
vt 0.802174747 0.933896244
vt 0 0
vt 1 0
vt 0 0
vt 0 1
vt 1 1
vt 1 0
vt 0 0
vt 0 1
vt 0.5 1
vt 0.5 0
vt 0.5 0
vt 0.5 1
vt 1 1
vt 1 0
vt 1 0
vt 0 0.5
vt 0.77101624 0.933896244
vt 0.197825179 0.933896244
vt 1 0.5
vt 0 0
vt 0.0991557389 1.0869195E-06
vt 1 1
vt 0.0991557389 1.00000048
vt 0 1
vt 0.900844276 1.00000119
vt 0.900844276 4.3221425E-07
vt 0 0
vt 0 1
vt 1 1
vt 1 0
vt 0.29673785 1.00000274
vt 0.656524301 0.999992371
vt 0.656524301 -2.76617016E-06
vt 0.29673785 6.69291239E-06
g submesh0
f 1/1/1 2/2/2 3/3/3
f 1/1/1 4/4/4 2/2/2
f 5/5/5 2/2/2 4/4/4
f 5/5/5 4/4/4 6/6/6
f 7/7/7 5/5/5 6/6/6
f 7/7/7 6/6/6 8/8/8
f 9/9/9 10/10/10 11/11/11
f 9/9/9 11/11/11 12/12/12
f 13/13/13 14/14/14 15/15/15
f 13/13/13 15/15/15 16/16/16
f 17/17/17 16/16/16 15/15/15
f 17/17/17 15/15/15 18/18/18
f 17/17/17 18/18/18 19/19/19
f 17/17/17 19/19/19 20/20/20
f 21/21/21 13/13/13 22/22/22
f 21/21/21 22/22/22 23/23/23
f 24/24/24 23/23/23 22/22/22
f 24/24/24 22/22/22 25/25/25
f 20/20/20 24/24/24 25/25/25
f 20/20/20 26/26/26 24/24/24
f 27/27/27 28/28/28 21/21/21
f 27/27/27 29/29/29 28/28/28
f 26/26/26 30/30/30 31/31/31
f 26/26/26 31/31/31 32/32/32
f 33/33/33 34/34/34 35/35/35
f 33/33/33 35/35/35 36/36/36
f 37/37/37 38/38/38 39/39/39
f 37/37/37 39/39/39 40/40/40
