# wall.doorway.collision
v 0.175766602 2.2283771 -0.95481962
v 0.0717666075 2.2283771 -0.954819858
v 0.175766602 2.397017 -0.755144656
v 0.175766543 2.22837758 -0.566719592
v 0.175766602 2.2283771 -0.95481962
v 0.0717666075 1.98250258 -0.87248528
v 0.0717666075 2.2283771 -0.954819858
v 0.125751644 1.98250258 -0.872485042
v 0.175766543 2.22837758 -0.566719592
v 0.0106885238 1.98250282 -0.63941139
v 0.125751585 1.98250282 -0.625997424
v 0.0106885238 2.22837758 -0.595434546
v 0.175766602 2.22837758 0.954828918
v 0.175766602 2.39701724 0.755153775
v 0.0717666075 2.22837758 0.954829156
v 0.175766543 2.22837758 0.56672883
v 0.175766602 2.22837758 0.954828918
v 0.0717666075 2.22837758 0.954829156
v 0.0717666075 1.98250282 0.872494578
v 0.125751644 1.98250282 0.87249434
v 0.175766543 2.22837758 0.56672883
v 0.0106885238 1.98250282 0.639420688
v 0.125751585 1.98250282 0.626006782
v 0.0106885238 2.22837758 0.595443785
v -0.102052912 2.16695046 -0.591134429
v 0.0743002295 0.113863215 -0.591134608
v 0.0743002295 2.1669507 -0.591134608
v -0.102052912 0.113863081 -0.591134369
v 0.0743002295 0.113863066 0.601498306
v -0.102052912 0.113863081 0.601498485
v -0.102052912 1.94927963E-14 -1.50000119
v -0.102052912 1.93090986E-14 1.49999869
v -0.102052912 3.00000429 -1.50000107
v -0.102052912 2.16695046 0.601498425
v -0.102052912 3.00000429 1.49999893
v 0.0743002295 2.16695023 0.601498246
v 0.0743002295 2.1669507 -0.591134608
v 0.0743002295 1.52587901E-07 -1.50000119
v 0.0743002295 0.113863215 -0.591134608
v 0.0743002295 1.93090986E-14 1.49999869
v 0.0743002295 0.113863066 0.601498306
v 0.0743002295 2.16695023 0.601498246
v 0.0743002295 3.00000429 1.49999857
v 0.0743002295 3.00000429 -1.50000119
v -0.00102539058 3.00000429 1.50499904
v -0.00102539058 3.00000429 -1.50500119
v -0.00102539058 1.52587901E-07 -1.50500119
v -0.00102539058 1.9308792E-14 1.50499904
v -0.102052912 1.94927963E-14 -1.50000119
v -0.102052912 1.93090986E-14 1.49999869
v -0.102052912 3.00000429 -1.50000107
v -0.102052912 3.00000429 1.49999893
v 0.0728255287 0.675542355 -0.65255934
v 0.122370794 1.98149562 -0.727174819
v 0.0728252232 1.98149562 -0.652559698
v 0.122371159 0.675542355 -0.727174461
v 0.119746089 1.98149598 -0.807309926
v 0.119746454 0.675542355 -0.807309687
v 0.0730430186 1.98149562 -0.872481644
v 0.0730433464 0.675542355 -0.872481346
v 0.175766602 2.397017 -0.755144656
v 0.0717666075 2.2283771 -0.954819858
v 0.0717526153 2.99996185 4.52518907E-06
v 0.175752595 2.99996185 4.52518907E-06
v 0.0717539787 2.83910251 4.54436531E-06
v 0.0717663392 2.31023693 -0.653747559
v 0.175766602 2.39701724 0.755153775
v 0.0717666075 2.22837758 0.954829156
v 0.0717663392 2.31023717 0.653756678
v -0.09859512 0.0999992713 -0.921702862
v 0.132781908 0.0999992713 -0.921703041
v 0.132580191 0.0999993235 -0.586865783
v -0.0985951051 0.0999993011 -0.737636328
v -0.0985950828 0.0999993235 -0.586865664
v 0.140862837 0.675545275 -0.588334799
v -0.0985951796 0.675544977 -0.588334739
v -0.0985950828 0.0999993235 -0.586865664
v 0.132580191 0.0999993235 -0.586865783
v 0.140862808 0.675544322 -0.922687709
v 0.132781908 0.0999992713 -0.921703041
v -0.09859512 0.0999992713 -0.921702862
v -0.0985952169 0.675544322 -0.922687709
v 0.140862837 0.675545275 -0.588334799
v 0.140862808 0.675544322 -0.922687709
v -0.0985952169 0.675544322 -0.922687709
v -0.0985952169 0.675544322 -0.737636685
v -0.0985951796 0.675544977 -0.588334739
v 0.175766543 2.22837758 -0.566719592
v 0.175766602 2.397017 -0.755144656
v 0.0717663392 2.31023693 -0.653747559
v 0.0717665553 2.22837758 -0.583970785
v 0.132781908 0.0999992713 -0.921703041
v 0.140862808 0.675544322 -0.922687709
v 0.140862837 0.675545275 -0.588334799
v 0.132580191 0.0999993235 -0.586865783
v 0.122370794 1.98149598 0.727184117
v 0.0728255287 0.675542533 0.652568936
v 0.0728252232 1.98149598 0.652569056
v 0.122371159 0.675542533 0.727184057
v 0.119746089 1.98149621 0.807319224
v 0.119746454 0.675542533 0.807319343
v 0.0730430186 1.98149598 0.872491002
v 0.0730433464 0.675542533 0.872491002
v -0.0985951051 0.0999994725 0.737646103
v -0.0985950828 0.0999994576 0.586875439
v 0.132580191 0.0999994576 0.586875498
v 0.132781908 0.0999995023 0.921712756
v -0.09859512 0.0999995023 0.921712637
v 0.140862837 0.675545394 0.588344395
v 0.132580191 0.0999994576 0.586875498
v -0.0985950828 0.0999994576 0.586875439
v -0.0985951796 0.675545096 0.588344336
v -0.09859512 0.0999995023 0.921712637
v 0.132781908 0.0999995023 0.921712756
v 0.140862808 0.6755445 0.922697365
v -0.0985952169 0.6755445 0.922697365
v 0.140862837 0.675545394 0.588344395
v -0.0985951796 0.675545096 0.588344336
v -0.0985952169 0.6755445 0.737646341
v 0.140862808 0.6755445 0.922697365
v -0.0985952169 0.6755445 0.922697365
v 0.175766543 2.22837758 0.56672883
v 0.0717665553 2.22837758 0.583980024
v 0.0717663392 2.31023717 0.653756678
v 0.175766602 2.39701724 0.755153775
v 0.132781908 0.0999995023 0.921712756
v 0.132580191 0.0999994576 0.586875498
v 0.140862837 0.675545394 0.588344395
v 0.140862808 0.6755445 0.922697365
vn 0.630140245 0.167134404 -0.758280575
vn -0.0044519119 0.272668153 -0.962097824
vn 0.74781251 0.610091329 -0.261849403
vn 0.609934747 0.174075156 0.773095906
vn 0.630140245 0.167134404 -0.758280575
vn 1.49092364E-06 -0.842115581 -0.539297163
vn -0.0044519119 0.272668153 -0.962097824
vn 0.523380041 -0.709087431 -0.472512811
vn 0.609934747 0.174075156 0.773095906
vn -0.0984487459 -0.749496222 0.65464741
vn 0.47764352 -0.683277786 0.552257419
vn -0.146030828 -0.189042866 0.971049905
vn 0.630140245 0.167134553 0.758280516
vn 0.74781251 0.610091388 0.261849046
vn -0.00445189513 0.272668302 0.962097824
vn 0.609935045 0.174074352 -0.773096025
vn 0.630140245 0.167134553 0.758280516
vn -0.00445189513 0.272668302 0.962097824
vn 1.55706323E-06 -0.842115164 0.5392977
vn 0.52338016 -0.709087074 0.472513139
vn 0.609935045 0.174074352 -0.773096025
vn -0.0984487161 -0.749496758 -0.654646873
vn 0.47764343 -0.683278203 -0.552256882
vn -0.146030799 -0.189043179 -0.971049786
vn -0.904533863 -0.301511735 0.301511735
vn 0.904534161 0.30151096 0.301511437
vn 0.90453434 -0.30151099 0.30151087
vn -0.904533923 0.301511675 0.301511258
vn 0.904533923 0.301511675 -0.301511437
vn -0.904534161 0.301511139 -0.301511317
vn -0.590088308 -0.579995573 -0.561605752
vn -0.590088487 -0.579995751 0.561605394
vn -0.590088308 0.579995513 -0.561605752
vn -0.904534161 -0.301511139 -0.301511228
vn -0.590088785 0.579995275 0.561605453
vn 0.904533863 -0.301511556 -0.301511586
vn 0.90453434 -0.30151099 0.30151087
vn 0.59431386 -0.580915987 -0.556172252
vn 0.904534161 0.30151096 0.301511437
vn 0.594315469 -0.580915987 0.556170583
vn 0.904533923 0.301511675 -0.301511437
vn 0.904533863 -0.301511556 -0.301511586
vn 0.594315171 0.580916464 0.556170464
vn 0.594313979 0.580915987 -0.556172192
vn 0.00605698582 0.69431752 0.719643295
vn 0.00605570944 0.694318235 -0.719642639
vn 0.00605595252 -0.694318235 -0.719642639
vn 0.00605724892 -0.694317579 0.719643176
vn -0.590088308 -0.579995573 -0.561605752
vn -0.590088487 -0.579995751 0.561605394
vn -0.590088308 0.579995513 -0.561605752
vn -0.590088785 0.579995275 0.561605453
vn 0.833068132 3.7504563E-07 0.553170383
vn 0.961959183 3.38437474E-07 0.273193508
vn 0.833068132 3.75045573E-07 0.553170383
vn 0.961958945 3.38437559E-07 0.273193955
vn 0.946924567 1.90160435E-07 -0.321455657
vn 0.946924567 1.90160478E-07 -0.321455568
vn 0.812836587 0 -0.582491755
vn 0.812836587 0 -0.582491755
vn 0.74781251 0.610091329 -0.261849403
vn -0.0044519119 0.272668153 -0.962097824
vn -0.0390788801 0.999236107 -1.94682613E-07
vn 0.716963291 0.697111011 -1.29251944E-07
vn 0.845317423 -0.534264326 1.06720989E-07
vn 0.448813438 0.322766423 0.833299696
vn 0.74781251 0.610091388 0.261849046
vn -0.00445189513 0.272668302 0.962097824
vn 0.448814005 0.322765052 -0.833299875
vn -2.32594132E-07 -0.707711577 -0.706501365
vn 0.573099554 -0.581446409 -0.577474713
vn 0.572575986 -0.580450594 0.578993857
vn 0 -1 1.42408638E-07
vn 2.24664717E-07 -0.70620364 0.708008766
vn 0.581914365 0.574228346 0.575879753
vn -7.20383298E-07 0.708009183 0.706203282
vn 2.24664717E-07 -0.70620364 0.708008766
vn 0.572575986 -0.580450594 0.578993857
vn 0.581756949 0.573192656 -0.577069402
vn 0.573099554 -0.581446409 -0.577474713
vn -2.32594132E-07 -0.707711577 -0.706501365
vn -1.17948059E-06 0.706500769 -0.707712233
vn 0.581914365 0.574228346 0.575879753
vn 0.581756949 0.573192656 -0.577069402
vn -1.17948059E-06 0.706500769 -0.707712233
vn -1.34257596E-06 1 -2.28183831E-06
vn -7.20383298E-07 0.708009183 0.706203282
vn 0.609934747 0.174075156 0.773095906
vn 0.74781251 0.610091329 -0.261849403
vn 0.448813438 0.322766423 0.833299696
vn -0.0177487973 0.717618585 0.696210206
vn 0.573099554 -0.581446409 -0.577474713
vn 0.581756949 0.573192656 -0.577069402
vn 0.581914365 0.574228346 0.575879753
vn 0.572575986 -0.580450594 0.578993857
vn 0.961959064 2.74406489E-07 -0.273193538
vn 0.833068132 2.45410234E-07 -0.553170383
vn 0.833068132 2.45410234E-07 -0.553170383
vn 0.961958945 2.74406517E-07 -0.273193926
vn 0.946924567 2.65543548E-07 0.321455628
vn 0.946924567 2.65543548E-07 0.321455628
vn 0.812836587 2.30884368E-07 0.582491755
vn 0.812836587 2.30884339E-07 0.582491755
vn 0 -1 1.42408638E-07
vn 2.32128997E-07 -0.706203938 -0.708008587
vn 0.572575986 -0.580450773 -0.578993678
vn 0.573099613 -0.581446171 0.577474833
vn -2.2530125E-07 -0.707711399 0.706501663
vn 0.581914365 0.574228227 -0.575879812
vn 0.572575986 -0.580450773 -0.578993678
vn 2.32128997E-07 -0.706203938 -0.708008587
vn -7.20258981E-07 0.708009064 -0.706203341
vn -2.2530125E-07 -0.707711399 0.706501663
vn 0.573099613 -0.581446171 0.577474833
vn 0.581756949 0.573192716 0.577069283
vn -1.17951197E-06 0.706500828 0.707712173
vn 0.581914365 0.574228227 -0.575879812
vn -7.20258981E-07 0.708009064 -0.706203341
vn -1.34257596E-06 1 2.28183831E-06
vn 0.581756949 0.573192716 0.577069283
vn -1.17951197E-06 0.706500828 0.707712173
vn 0.609935045 0.174074352 -0.773096025
vn -0.0177479144 0.717617452 -0.696211278
vn 0.448814005 0.322765052 -0.833299875
vn 0.74781251 0.610091388 0.261849046
vn 0.573099613 -0.581446171 0.577474833
vn 0.572575986 -0.580450773 -0.578993678
vn 0.581914365 0.574228227 -0.575879812
vn 0.581756949 0.573192716 0.577069283
vt 0.749679744 0.0264054481
vt 0.727914214 0.0426767059
vt 0.706335485 0.0256758332
vt 0.997839749 0.0244659055
vt 0.624635518 0.0256758332
vt 0.624822319 0.0426767059
vt 0.624822319 0.0426767059
vt 0.624635518 0.0264054481
vt 0.562226117 0.0264054481
vt 0.562413275 0.0426767059
vt 0.562226117 0.0264054481
vt 0.562413275 0.0426767059
vt 0.749679744 0.0264054481
vt 0.706335485 0.0256758332
vt 0.727914214 0.0426767059
vt 0.997839749 0.0244659055
vt 0.624635518 0.0256758332
vt 0.624822319 0.0426767059
vt 0.624822319 0.0426767059
vt 0.624635518 0.0264054481
vt 0.562226117 0.0264054481
vt 0.562413275 0.0426767059
vt 0.562226117 0.0264054481
vt 0.562413275 0.0426767059
vt 10.20578 59.1133194
vt -7.42953491 59.1133423
vt -7.42953491 59.1133423
vt 10.20578 59.1133156
vt -7.42953491 -60.1499557
vt 10.20578 -60.149971
vt 10.20578 150
vt 10.20578 -150
vt 10.20578 149.999985
vt 10.20578 -60.1499672
vt 10.20578 -150.000015
vt -7.42953491 -60.1499481
vt -7.42953491 59.1133423
vt -7.42953491 150
vt -7.42953491 59.1133423
vt -7.42953491 -150
vt -7.42953491 -60.1499557
vt -7.42953491 -60.1499481
vt -7.42953491 -149.999985
vt -7.42953491 150
vt 0.103027344 -150.500031
vt 0.103027344 150.5
vt 0.103027344 150.5
vt 0.103027344 -150.500031
vt 10.20578 150
vt 10.20578 -150
vt 10.20578 149.999985
vt 10.20578 -150.000015
vt 0.624694109 0.292917907
vt 0.908950806 0.310965955
vt 0.908950806 0.292917877
vt 0.624694109 0.310965985
vt 0.908950806 0.329014063
vt 0.624694109 0.329014063
vt 0.908950806 0.347062171
vt 0.624694109 0.347062171
vt 0.75008738 0.0264054481
vt 0.75008738 0.0426767059
vt 0.905031502 0.0426767059
vt 0.905003965 0.0264054481
vt 0.887516081 0.00125715637
vt 0.749296486 0.0013433788
vt 0.75008738 0.0264054481
vt 0.75008738 0.0426767059
vt 0.749296486 0.0013433788
vt 0.606427073 0.345817983
vt 0.650409639 0.345817953
vt 0.650365889 0.276018679
vt 0.606315911 0.307434857
vt 0.606430054 0.276018739
vt 0.624255776 0.343838364
vt 0.624206901 0.298514813
vt 0.50044322 0.298651427
vt 0.500444889 0.342087775
vt 0.624288619 0.277630806
vt 0.50058502 0.279400527
vt 0.500585079 0.322879285
vt 0.624288738 0.322962791
vt 0.627637982 0.276248902
vt 0.627629161 0.345944077
vt 0.673486233 0.34594968
vt 0.673588932 0.307356685
vt 0.673494935 0.276258469
vt 0.999066412 0.0263154656
vt 0.95699507 0.0263028815
vt 0.978873074 0.0425867215
vt 0.999066412 0.0425867215
vt 0.500428319 0.345971316
vt 0.62426579 0.345971316
vt 0.62426579 0.275960654
vt 0.500428319 0.275960654
vt 0.908950806 0.310965955
vt 0.624694109 0.292917907
vt 0.908950806 0.292917877
vt 0.624694109 0.310965985
vt 0.908950806 0.329014063
vt 0.624694109 0.329014063
vt 0.908950806 0.347062171
vt 0.624694109 0.347062171
vt 0.606315911 0.307434857
vt 0.606430054 0.276018739
vt 0.650365889 0.276018679
vt 0.650409639 0.345817953
vt 0.606427073 0.345817983
vt 0.624255776 0.343838364
vt 0.500444889 0.342087775
vt 0.50044322 0.298651427
vt 0.624206901 0.298514813
vt 0.500585079 0.322879285
vt 0.50058502 0.279400527
vt 0.624288619 0.277630806
vt 0.624288738 0.322962791
vt 0.627637982 0.276248902
vt 0.673494935 0.276258469
vt 0.673588932 0.307356685
vt 0.627629161 0.345944077
vt 0.673486233 0.34594968
vt 0.999066412 0.0263154656
vt 0.999066412 0.0425867215
vt 0.978873074 0.0425867215
vt 0.95699507 0.0263028815
vt 0.500428319 0.345971316
vt 0.500428319 0.275960654
vt 0.62426579 0.275960654
vt 0.62426579 0.345971316
g submesh0
f 1/1/1 2/2/2 3/3/3
f 4/4/4 5/5/5 3/3/3
f 5/5/5 6/6/6 7/7/7
f 5/5/5 8/8/8 6/6/6
f 9/9/9 8/8/8 5/5/5
f 8/8/8 10/10/10 6/6/6
f 9/9/9 11/11/11 8/8/8
f 8/8/8 11/11/11 10/10/10
f 12/12/12 11/11/11 9/9/9
f 12/12/12 10/10/10 11/11/11
f 13/13/13 14/14/14 15/15/15
f 16/16/16 14/14/14 17/17/17
f 17/17/17 18/18/18 19/19/19
f 17/17/17 19/19/19 20/20/20
f 21/21/21 17/17/17 20/20/20
f 22/22/22 20/20/20 19/19/19
f 21/21/21 20/20/20 23/23/23
f 22/22/22 23/23/23 20/20/20
f 24/24/24 21/21/21 23/23/23
f 24/24/24 23/23/23 22/22/22
f 25/25/25 26/26/26 27/27/27
f 25/25/25 28/28/28 26/26/26
f 28/28/28 29/29/29 26/26/26
f 28/28/28 30/30/30 29/29/29
f 25/25/25 31/31/31 28/28/28
f 31/31/31 30/30/30 28/28/28
f 31/31/31 32/32/32 30/30/30
f 25/25/25 33/33/33 31/31/31
f 34/34/34 29/29/29 30/30/30
f 32/32/32 34/34/34 30/30/30
f 33/33/33 25/25/25 34/34/34
f 32/32/32 35/35/35 34/34/34
f 33/33/33 34/34/34 35/35/35
f 34/34/34 36/36/36 29/29/29
f 36/36/36 34/34/34 25/25/25
f 36/36/36 25/25/25 37/37/37
f 38/38/38 37/37/37 39/39/39
f 39/39/39 40/40/40 38/38/38
f 39/39/39 41/41/41 40/40/40
f 42/42/42 40/40/40 41/41/41
f 43/43/43 42/42/42 37/37/37
f 42/42/42 43/43/43 40/40/40
f 43/43/43 37/37/37 44/44/44
f 38/38/38 44/44/44 37/37/37
f 44/44/44 45/45/45 43/43/43
f 40/40/40 43/43/43 45/45/45
f 38/38/38 46/46/46 44/44/44
f 44/44/44 46/46/46 45/45/45
f 47/47/47 38/38/38 40/40/40
f 38/38/38 47/47/47 46/46/46
f 47/47/47 40/40/40 48/48/48
f 40/40/40 45/45/45 48/48/48
f 49/49/49 47/47/47 48/48/48
f 49/49/49 46/46/46 47/47/47
f 49/49/49 48/48/48 50/50/50
f 50/50/50 48/48/48 45/45/45
f 49/49/49 51/51/51 46/46/46
f 50/50/50 45/45/45 52/52/52
f 46/46/46 51/51/51 52/52/52
f 46/46/46 52/52/52 45/45/45
f 53/53/53 54/54/54 55/55/55
f 53/53/53 56/56/56 54/54/54
f 57/57/57 54/54/54 56/56/56
f 57/57/57 56/56/56 58/58/58
f 59/59/59 57/57/57 58/58/58
f 59/59/59 58/58/58 60/60/60
f 61/61/61 62/62/62 63/63/63
f 61/61/61 63/63/63 64/64/64
f 61/61/61 64/64/64 65/65/65
f 61/61/61 65/65/65 66/66/66
f 67/67/67 64/64/64 63/63/63
f 65/65/65 64/64/64 67/67/67
f 67/67/67 63/63/63 68/68/68
f 65/65/65 67/67/67 69/69/69
f 70/70/70 71/71/71 72/72/72
f 72/72/72 73/73/73 70/70/70
f 72/72/72 74/74/74 73/73/73
f 75/75/75 76/76/76 77/77/77
f 75/75/75 77/77/77 78/78/78
f 79/79/79 80/80/80 81/81/81
f 79/79/79 81/81/81 82/82/82
f 83/83/83 84/84/84 85/85/85
f 85/85/85 86/86/86 83/83/83
f 86/86/86 87/87/87 83/83/83
f 88/88/88 89/89/89 90/90/90
f 88/88/88 90/90/90 91/91/91
f 92/92/92 93/93/93 94/94/94
f 92/92/92 94/94/94 95/95/95
f 96/96/96 97/97/97 98/98/98
f 96/96/96 99/99/99 97/97/97
f 99/99/99 96/96/96 100/100/100
f 99/99/99 100/100/100 101/101/101
f 101/101/101 100/100/100 102/102/102
f 101/101/101 102/102/102 103/103/103
f 104/104/104 105/105/105 106/106/106
f 106/106/106 107/107/107 104/104/104
f 107/107/107 108/108/108 104/104/104
f 109/109/109 110/110/110 111/111/111
f 109/109/109 111/111/111 112/112/112
f 113/113/113 114/114/114 115/115/115
f 113/113/113 115/115/115 116/116/116
f 117/117/117 118/118/118 119/119/119
f 119/119/119 120/120/120 117/117/117
f 119/119/119 121/121/121 120/120/120
f 122/122/122 123/123/123 124/124/124
f 122/122/122 124/124/124 125/125/125
f 126/126/126 127/127/127 128/128/128
f 126/126/126 128/128/128 129/129/129
