# wall.window_COL
v -0.102052912 2.28706527 -1.25954437
v -0.102052912 0.885147214 -1.25367486
v -0.0634112954 1.05228281 -1.09334409
v -0.0634112954 2.24072576 -1.09334385
v 0.0735171884 1.05228281 -1.09334409
v 0.0735171884 2.24072576 -1.09334385
v 0.100002438 0.886612654 -1.20799541
v 0.100002438 2.28706527 -1.21386492
v 0.0735171884 1.05228317 1.08842194
v -0.0634112954 1.05228317 1.08842194
v -0.102052912 0.885147214 -1.25367486
v -0.102052912 0.885224819 1.27600253
v -0.0634112954 2.24072623 1.08842218
v -0.102052912 0.885224819 1.27600253
v -0.102052912 2.28694034 1.28190565
v -0.102052912 2.28706527 -1.25954437
v 0.0735171884 2.24072623 1.08842218
v 0.0735171884 2.24072576 -1.09334385
v 0.100002438 2.28706527 -1.21386492
v 0.100002438 2.28694034 1.21185195
v 0.100002438 0.886690259 1.20594871
v -0.102052912 1.93090986E-14 1.49999869
v -0.102052912 3.00000429 1.49999893
v -0.102052912 3.00000429 -1.50000107
v -0.102052912 0.885224819 1.27600253
v -0.102052912 2.28706527 -1.25954437
v -0.102052912 1.94927963E-14 -1.50000119
v -0.102052912 0.885147214 -1.25367486
v 0.0735171884 1.05228281 -1.09334409
v 0.0735171884 1.05228317 1.08842194
v 0.100002438 0.886690259 1.20594871
v 0.100002438 0.886612654 -1.20799541
v 0.100002438 1.93090986E-14 1.49999869
v 0.100002438 2.28694034 1.21185195
v 0.100002438 1.94927963E-14 -1.50000119
v 0.100002438 2.28706527 -1.21386492
v 0.100002438 3.00000429 1.49999869
v 0.100002438 3.00000429 -1.50000119
v -0.00102539058 3.00000429 1.5049994
v -0.00102539058 3.00000429 -1.50500059
v -0.00102539058 1.94931029E-14 -1.50500119
v -0.00102539058 -1.52587873E-07 1.5049988
v -0.102052912 1.94927963E-14 -1.50000119
v -0.102052912 1.93090986E-14 1.49999869
v -0.102052912 3.00000429 -1.50000107
v -0.102052912 3.00000429 1.49999893
g submesh0
f 1 2 3
f 1 3 4
f 4 3 5
f 4 5 6
f 7 6 5
f 7 8 6
f 3 9 5
f 3 10 9
f 11 10 3
f 11 12 10
f 13 9 10
f 14 13 10
f 14 15 13
f 15 4 13
f 15 16 4
f 17 13 4
f 13 17 9
f 17 4 18
f 19 17 18
f 19 20 17
f 20 9 17
f 20 21 9
f 22 23 15
f 24 15 23
f 22 15 25
f 24 26 15
f 27 22 25
f 26 24 27
f 27 25 28
f 26 27 28
f 29 30 31
f 29 31 32
f 32 31 33
f 34 33 31
f 32 33 35
f 35 36 32
f 37 34 36
f 34 37 33
f 37 36 38
f 35 38 36
f 38 39 37
f 33 37 39
f 35 40 38
f 38 40 39
f 41 35 33
f 35 41 40
f 41 33 42
f 33 39 42
f 43 41 42
f 43 40 41
f 43 42 44
f 44 42 39
f 43 45 40
f 44 39 46
f 40 45 46
f 40 46 39
