# wall.half.corner.L.collision
v 0.113768272 0.612027705 -1.16640627
v 0.113768421 0.640291095 -0.257265627
v 0.113768406 0.534303069 -0.264331043
v 0.113768287 0.713305175 -1.15934074
v 0.113768205 0.642646492 -1.61626947
v 0.113768257 0.51546073 -1.16640627
v 0.11376822 0.755700529 -1.6115576
v 0.113768183 0.659133494 -1.74109864
v 0.113768205 0.765121698 -1.73167968
v 0.11376825 0.806055188 -1.6070323
v 0.113768138 0.225759849 -1.61790156
v 0.113768309 0.840490997 -1.15698731
v 0.113768078 -0.000348129252 -1.73638666
v 0.113768116 0.218694001 -1.73403311
v 0.113768242 -0.00741401641 -0.735390604
v 0.113768324 0.489552528 -0.730678678
v 0.113768309 1.2785753 -1.59542429
v 0.113768242 0.81236583 -1.65200162
v 0.113768458 1.27621996 -0.657666028
v 0.113768362 0.774542749 -0.749521494
v 0.113768518 1.49290657 -0.511635721
v 0.113768488 1.2809304 -0.511635721
v 0.113768339 1.50468314 -1.67043936
v 0.113768302 1.2809304 -1.69634759
v 0.103768423 0.640291095 -0.257265627
v 0.103768267 0.612027705 -1.16640627
v 0.103768401 0.534303069 -0.264331043
v 0.103768289 0.713305295 -1.15934074
v 0.1037682 0.642646492 -1.61626947
v 0.103768252 0.51546073 -1.16640627
v 0.103768222 0.755700529 -1.6115576
v 0.103768185 0.659133494 -1.74109864
v 0.1037682 0.765121698 -1.73167968
v 0.103768252 0.806055188 -1.6070323
v 0.10376814 0.225759849 -1.61790156
v 0.103768311 0.840490997 -1.15698731
v 0.10376808 -0.000348129252 -1.73638666
v 0.103768118 0.218694001 -1.73403311
v 0.103768244 -0.00741401641 -0.735390604
v 0.103768326 0.489552528 -0.730678678
v 0.103768311 1.2785753 -1.59542429
v 0.103768244 0.81236583 -1.65200162
v 0.10376846 1.27621996 -0.657666028
v 0.103768364 0.774542749 -0.749521494
v 0.10376852 1.49290657 -0.511635721
v 0.10376849 1.2809304 -0.511635721
v 0.103768334 1.50468314 -1.67043936
v 0.103768297 1.2809304 -1.69634759
vn 1 -1.64637811E-07 -1.63406128E-07
vn 1 -1.62920728E-07 -1.62920685E-07
vn 1 -1.62920713E-07 -1.62920685E-07
vn 1 -1.98359544E-07 -1.56310321E-07
vn 1 -1.64572896E-07 -1.63387853E-07
vn 1 -1.64325115E-07 -1.64397818E-07
vn 1 -1.99822992E-07 -1.56037331E-07
vn 1 -1.62920529E-07 -1.62920728E-07
vn 1 -1.62920543E-07 -1.62920742E-07
vn 1 -1.82246438E-07 -1.78256784E-07
vn 1 -1.62637619E-07 -1.59583422E-07
vn 1 -1.86672381E-07 -1.50962833E-07
vn 1 -1.61242539E-07 -1.57799519E-07
vn 1 -1.63159811E-07 -1.40656056E-07
vn 1 -1.61528817E-07 -1.64180207E-07
vn 1 -1.62920628E-07 -1.62920685E-07
vn 1 -1.59588851E-07 -1.52967871E-07
vn 1 -1.12487506E-07 -2.47739052E-07
vn 1 -1.63482071E-07 -1.61956308E-07
vn 1 -1.62920728E-07 -1.62920657E-07
vn 1 -1.67589292E-07 -1.63973795E-07
vn 1 -1.62920685E-07 -1.62920628E-07
vn 1 -1.69469189E-07 -1.55363452E-07
vn 1 -1.66842796E-07 -1.29047947E-07
vn -1 1.61445101E-07 1.6281848E-07
vn -1 1.6284325E-07 1.6354663E-07
vn -1 1.61445101E-07 1.6281848E-07
vn -1 1.97227649E-07 1.56488383E-07
vn -1 1.61729361E-07 1.6195041E-07
vn -1 1.63611418E-07 1.64184499E-07
vn -1 1.9782803E-07 1.54524429E-07
vn -1 1.58524784E-07 1.5789999E-07
vn -1 1.58524799E-07 1.5789999E-07
vn -1 1.8369532E-07 1.72211173E-07
vn -1 1.59868804E-07 1.60111668E-07
vn -1 1.87677529E-07 1.51316968E-07
vn -1 1.5735651E-07 1.58552268E-07
vn -1 1.56274467E-07 1.44467023E-07
vn -1 1.59487669E-07 1.63819436E-07
vn -1 1.61570512E-07 1.62815525E-07
vn -1 1.6061334E-07 1.5100315E-07
vn -1 1.12974249E-07 2.2792581E-07
vn -1 1.64611762E-07 1.62970721E-07
vn -1 1.62481825E-07 1.63802071E-07
vn -1 1.69140179E-07 1.65388343E-07
vn -1 1.63087648E-07 1.66169059E-07
vn -1 1.71276355E-07 1.537679E-07
vn -1 1.67014434E-07 1.22016289E-07
g submesh0
f 1//1 2//2 3//3
f 1//1 4//4 2//2
f 5//5 4//4 1//1
f 5//5 1//1 6//6
f 5//5 7//7 4//4
f 8//8 7//7 5//5
f 8//8 9//9 7//7
f 4//4 7//7 10//10
f 5//5 6//6 11//11
f 4//4 10//10 12//12
f 6//6 13//13 11//11
f 11//11 13//13 14//14
f 6//6 15//15 13//13
f 15//15 6//6 16//16
f 17//17 12//12 10//10
f 17//17 10//10 18//18
f 17//17 19//19 12//12
f 12//12 19//19 20//20
f 17//17 21//21 19//19
f 19//19 21//21 22//22
f 17//17 23//23 21//21
f 23//23 17//17 24//24
f 25//25 26//26 27//27
f 25//25 28//28 26//26
f 28//28 29//29 26//26
f 30//30 26//26 29//29
f 28//28 31//31 29//29
f 31//31 32//32 29//29
f 31//31 33//33 32//32
f 34//34 31//31 28//28
f 30//30 29//29 35//35
f 34//34 28//28 36//36
f 37//37 30//30 35//35
f 37//37 35//35 38//38
f 37//37 39//39 30//30
f 30//30 39//39 40//40
f 36//36 41//41 34//34
f 34//34 41//41 42//42
f 36//36 43//43 41//41
f 43//43 36//36 44//44
f 45//45 41//41 43//43
f 45//45 43//43 46//46
f 45//45 47//47 41//41
f 41//41 47//47 48//48
