# wall.half.corner.L.collision
v 0.0692200661 1.50365674 -1.64086783
v 0.211195976 1.50365663 -1.59443676
v 0.21807915 0.00263960566 -1.59877038
v 0.0692190677 0.00259461626 -1.64848566
v 0.146008149 1.50365663 -1.24540341
v 0.21807915 0.00263960566 -1.59877038
v 0.211195976 1.50365663 -1.59443676
v 0.152191788 0.00266815023 -1.23709834
v 0.042237632 1.50365663 -1.23825991
v 0.042237103 0.00263246265 -1.23048592
v 0.0692190677 0.00259461626 -1.64848566
v 0.21807915 0.00263960566 -1.59877038
v 0.152191788 0.00266815023 -1.23709834
v 0.042237103 0.00263246265 -1.23048592
v 0.146008149 1.50365663 -1.24540341
v 0.211195976 1.50365663 -1.59443676
v 0.0692200661 1.50365674 -1.64086783
v 0.042237632 1.50365663 -1.23825991
v 0.042237632 1.50365663 -1.23825991
v 0.0692200661 1.50365674 -1.64086783
v 0.0692190677 0.00259461626 -1.64848566
v 0.042237103 0.00263246265 -1.23048592
vn -0.460991472 0.567714632 -0.682046235
vn 0.697296143 0.585986316 -0.412792921
vn 0.698711753 -0.583676279 -0.413671255
vn -0.460896462 -0.562791228 -0.686178327
vn 0.533860862 0.595140755 0.600666344
vn 0.698711753 -0.583676279 -0.413671255
vn 0.697296143 0.585986316 -0.412792921
vn 0.537247419 -0.587661386 0.604995251
vn -0.581957161 0.570921004 0.579115808
vn -0.579997003 -0.570708156 0.58128798
vn -0.460896462 -0.562791228 -0.686178327
vn 0.698711753 -0.583676279 -0.413671255
vn 0.537247419 -0.587661386 0.604995251
vn -0.579997003 -0.570708156 0.58128798
vn 0.533860862 0.595140755 0.600666344
vn 0.697296143 0.585986316 -0.412792921
vn -0.460991472 0.567714632 -0.682046235
vn -0.581957161 0.570921004 0.579115808
vn -0.581957161 0.570921004 0.579115808
vn -0.460991472 0.567714632 -0.682046235
vn -0.460896462 -0.562791228 -0.686178327
vn -0.579997003 -0.570708156 0.58128798
vt 0.70346874 0.187788486
vt 0.687790692 0.187788486
vt 0.687791169 0.000753462315
vt 0.703468859 0.000753462315
vt 0.612802327 0.186232209
vt 0.563011229 -0.000598698854
vt 0.563010752 0.186232209
vt 0.612792909 -0.000598698854
vt 0.625699341 0.186232209
vt 0.625699222 -0.000598698854
vt 0.943778336 0.148458764
vt 0.937717378 0.139371917
vt 0.909525871 0.145938054
vt 0.910111785 0.154889807
vt 0.944923043 0.137521461
vt 0.972145498 0.143688872
vt 0.977801859 0.135083511
vt 0.945337653 0.12905933
vt 0.959414482 0.127539918
vt 0.960063338 0.158414707
vt 0.831763506 0.161768302
vt 0.829438329 0.127226874
g submesh0
f 1/1/1 2/2/2 3/3/3
f 1/1/1 3/3/3 4/4/4
f 5/5/5 6/6/6 7/7/7
f 5/5/5 8/8/8 6/6/6
f 9/9/9 8/8/8 5/5/5
f 9/9/9 10/10/10 8/8/8
f 11/11/11 12/12/12 13/13/13
f 11/11/11 13/13/13 14/14/14
f 15/15/15 16/16/16 17/17/17
f 15/15/15 17/17/17 18/18/18
f 19/19/19 20/20/20 21/21/21
f 19/19/19 21/21/21 22/22/22
