# wall.foundation.collision
v 0.127991557 2.80005765 1.48796487
v 0.127991557 2.80005765 -1.487975
v 0.00296001439 3.02488041 -1.487975
v 0.00296001439 3.02488041 1.48796487
v 0.127991557 2.80005765 -1.487975
v 0.127991557 1.96270263 1.48796487
v 0.127991557 1.96270263 -1.487975
v 0.00296001439 3.02488041 -1.487975
v -0.016423339 1.96270263 -1.487975
v -0.016423339 1.96270263 1.48796487
v 0.127991557 1.96270263 1.48796487
v -0.016423339 1.96270263 1.48796487
v 0.127991557 2.80005765 1.48796487
v 0.00296001439 3.02488041 1.48796487
v -0.016423339 1.96270263 1.48796487
v 0.127991557 1.96270263 1.48796487
v 0.00296001439 3.02488041 -1.487975
v 0.127991557 2.80005765 -1.487975
v 0.127991557 1.96270263 -1.487975
v -0.016423339 1.96270263 -1.487975
vn 0.731660426 0.189764753 0.654723167
vn 0.731660426 0.189764753 -0.654723167
vn -0.203637898 0.815701663 -0.541444778
vn -0.203637898 0.815701663 0.541444659
vn 0.731660426 0.189764753 -0.654723167
vn 0.577350259 -0.577350259 0.577350199
vn 0.577350259 -0.577350259 -0.577350259
vn -0.203637898 0.815701663 -0.541444778
vn -0.583073974 -0.572530687 -0.576396823
vn -0.583074033 -0.572530746 0.576396823
vn 0.577350259 -0.577350259 0.577350199
vn -0.583074033 -0.572530746 0.576396823
vn 0.731660426 0.189764753 0.654723167
vn -0.203637898 0.815701663 0.541444659
vn -0.583074033 -0.572530746 0.576396823
vn 0.577350259 -0.577350259 0.577350199
vn -0.203637898 0.815701663 -0.541444778
vn 0.731660426 0.189764753 -0.654723167
vn 0.577350259 -0.577350259 -0.577350259
vn -0.583073974 -0.572530687 -0.576396823
vt 1 0
vt 1 1
vt 0 1
vt 0 0
vt 0 0
vt 1 1
vt 0 1
vt 1 0
vt 1 1
vt 0 1
vt 0 0
vt 1 0
vt 0 0
vt 1 0
vt 1 1
vt 0 1
vt 0 0
vt 1 0
vt 1 1
vt 0 1
g submesh0
f 1/1/1 2/2/2 3/3/3
f 1/1/1 3/3/3 4/4/4
f 5/5/5 1/1/1 6/6/6
f 5/5/5 6/6/6 7/7/7
f 4/4/4 8/8/8 9/9/9
f 4/4/4 9/9/9 10/10/10
f 11/11/11 9/9/9 7/7/7
f 11/11/11 12/12/12 9/9/9
f 13/13/13 14/14/14 15/15/15
f 13/13/13 15/15/15 16/16/16
f 17/17/17 18/18/18 19/19/19
f 17/17/17 19/19/19 20/20/20
