# wall.corner.R_COL
v 0.0618460067 -0.00400295248 1.37818849
v 0.142497867 -0.00400295248 1.47621095
v 0.0491445921 -0.00400287611 1.61448729
v -0.0708691403 -0.00400299067 1.61628294
v 0.0618460067 -0.00400295248 1.37818849
v -0.105244748 -0.00400299067 1.57038939
v 0.0618457012 3.00405574 1.37818849
v 0.0618460067 -0.00400295248 1.37818849
v -0.105244748 -0.00400299067 1.57038939
v -0.105247803 3.0040555 1.57039428
v 0.0618460067 -0.00400295248 1.37818849
v 0.0618457012 3.00405574 1.37818849
v 0.142497867 3.0040555 1.47620964
v 0.142497867 -0.00400295248 1.47621095
v 0.0491445921 -0.00400287611 1.61448729
v 0.0491452031 3.0040555 1.61448729
v 0.142497867 3.0040555 1.47620964
v 0.0618457012 3.00405574 1.37818849
v 0.0491452031 3.0040555 1.61448729
v -0.0708691403 3.0040555 1.61628902
v -0.105247803 3.0040555 1.57039428
v 0.0491445921 -0.00400287611 1.61448729
v 0.0491452031 3.0040555 1.61448729
v -0.0708691403 3.0040555 1.61628902
v -0.0708691403 -0.00400299067 1.61628294
v -0.105247803 3.0040555 1.57039428
v -0.105244748 -0.00400299067 1.57038939
vn -3.68346235E-07 -1 3.03071431E-07
vn -3.68346264E-07 -1 3.03071431E-07
vn 6.30191039E-07 -1 3.56744323E-07
vn 5.21105846E-07 -1 1.30249376E-07
vn 0 -1 2.80972131E-07
vn 1.22637459E-07 -1 0
vn -0.408493638 0 -0.912761152
vn -0.408493787 0 -0.912761152
vn -0.75468564 1.11539045E-07 -0.656086564
vn -0.7546857 1.11539059E-07 -0.656086504
vn 0.433108538 0 -0.901341796
vn 0.433108181 0 -0.901341915
vn 0.998880208 0 -0.0473120958
vn 0.998880208 0 -0.0473113097
vn 0.828804195 0 0.559538782
vn 0.828804195 0 0.559538782
vn 2.07846733E-06 1 1.40319526E-06
vn 2.07846711E-06 1 1.40319526E-06
vn 2.07846711E-06 1 1.40319526E-06
vn -9.8105113E-07 1 7.3488161E-07
vn -9.8105113E-07 1 7.3488161E-07
vn 0.0149857812 -1.01593753E-06 0.999887705
vn 0.0149857812 -1.01593753E-06 0.999887705
vn -0.440771103 -1.41246881E-06 0.897619486
vn -0.440771699 -1.41246949E-06 0.897619247
vn -0.800363839 -1.50083736E-06 0.599514425
vn -0.800363839 -1.50083736E-06 0.599514425
vt 0.0625205114 0.444845349
vt 0.104954049 0.437545866
vt 0.109528646 0.416480631
vt 0.0824578926 0.403599888
vt 0.0784437656 0.425311148
vt 0.0649015158 0.405217916
vt 0.990008116 0.430625379
vt 0.134219557 0.430623829
vt 0.134219557 0.443725228
vt 0.990008116 0.443721116
vt 0.134219557 0.413587093
vt 0.990008116 0.413501799
vt 0.990008116 0.395371735
vt 0.134219557 0.395366073
vt 0.134219557 0.383374572
vt 0.990008116 0.383375406
vt 0.105900839 0.41135639
vt 0.0778552294 0.423208475
vt 0.108747736 0.432703406
vt 0.0803592354 0.445130229
vt 0.0627831295 0.443129987
vt 0.134219557 0.383374572
vt 0.990008116 0.383375406
vt 0.990008116 0.397907406
vt 0.134219557 0.397907913
vt 0.990008116 0.403730452
vt 0.134219557 0.403730571
g submesh0
f 1/1/1 2/2/2 3/3/3
f 3/3/3 4/4/4 5/5/5
f 4/4/4 6/6/6 5/5/5
f 7/7/7 8/8/8 9/9/9
f 7/7/7 9/9/9 10/10/10
f 11/11/11 12/12/12 13/13/13
f 11/11/11 13/13/13 14/14/14
f 13/13/13 15/15/15 14/14/14
f 13/13/13 16/16/16 15/15/15
f 17/17/17 18/18/18 19/19/19
f 18/18/18 20/20/20 19/19/19
f 18/18/18 21/21/21 20/20/20
f 22/22/22 23/23/23 24/24/24
f 22/22/22 24/24/24 25/25/25
f 25/25/25 24/24/24 26/26/26
f 25/25/25 26/26/26 27/27/27
