# wall.corner.R.collision
v 0.148839086 0.396370381 1.58689451
v 0.148839191 1.23876977 1.74889648
v 0.148839086 0.409330428 1.71001458
v 0.148839191 1.23228991 1.6452148
v 0.148839131 0.976330101 1.09765625
v 0.148839101 0.879130244 0.725053668
v 0.148838997 0.00109069818 0.728295863
v 0.148839027 -0.0151094049 1.60633302
v 0.14883928 2.27232933 1.12357414
v 0.148839295 2.19456935 1.60957515
v 0.148839295 2.17836928 1.73593259
v 0.14883934 2.51208925 1.60633302
v 0.14883931 2.59308934 0.796332896
v 0.14883928 2.27232933 0.929174781
v 0.148839399 3.02400875 1.78777337
v 0.14883934 2.50236893 1.74241209
v 0.148839369 3.02400899 0.838456988
v 0.138839185 1.23876977 1.74889648
v 0.138839081 0.396370381 1.58689451
v 0.138839096 0.409330428 1.71001458
v 0.138839185 1.23228991 1.6452148
v 0.138839126 0.976330101 1.09765625
v 0.138839096 0.879130244 0.725053668
v 0.138838992 0.00109069818 0.728295863
v 0.138839036 -0.0151094049 1.60633302
v 0.138839275 2.27232933 1.12357414
v 0.138839304 2.19456935 1.60957515
v 0.138839304 2.17836928 1.73593259
v 0.138839334 2.51208925 1.60633302
v 0.138839304 2.59308934 0.796332896
v 0.138839275 2.27232933 0.929174781
v 0.138839409 3.02400875 1.78777337
v 0.138839364 3.02400899 0.838456988
v 0.138839334 2.50236893 1.74241209
vn 1 -1.19314478E-07 0
vn 1 -1.19217546E-07 0
vn 1 -1.19217546E-07 0
vn 1 -1.19152148E-07 0
vn 1 -1.19195491E-07 0
vn 1 -1.19527314E-07 0
vn 1 -1.19578132E-07 0
vn 1 -1.19424385E-07 0
vn 1 -1.1930392E-07 0
vn 1 -1.19665941E-07 0
vn 1 -1.19302825E-07 0
vn 1 -1.19749785E-07 0
vn 1 -1.19535684E-07 0
vn 1 -1.18121946E-07 0
vn 1 -1.19670844E-07 0
vn 1 -1.19615024E-07 0
vn 1 -1.20191245E-07 0
vn -1 1.19217546E-07 0
vn -1 1.19660996E-07 0
vn -1 1.19217546E-07 0
vn -1 1.18900552E-07 0
vn -1 1.1943726E-07 0
vn -1 1.19993601E-07 0
vn -1 1.19989451E-07 0
vn -1 1.20874191E-07 0
vn -1 1.19223358E-07 0
vn -1 1.19563154E-07 0
vn -1 1.19302811E-07 0
vn -1 1.19749785E-07 0
vn -1 1.19535699E-07 0
vn -1 1.18121946E-07 0
vn -1 1.19670844E-07 0
vn -1 1.2019126E-07 0
vn -1 1.19615024E-07 0
g submesh0
f 1//1 2//2 3//3
f 1//1 4//4 2//2
f 4//4 1//1 5//5
f 5//5 1//1 6//6
f 6//6 1//1 7//7
f 7//7 1//1 8//8
f 9//9 4//4 5//5
f 9//9 10//10 4//4
f 4//4 10//10 11//11
f 10//10 9//9 12//12
f 12//12 9//9 13//13
f 13//13 9//9 14//14
f 12//12 13//13 15//15
f 12//12 15//15 16//16
f 15//15 13//13 17//17
f 18//18 19//19 20//20
f 18//18 21//21 19//19
f 19//19 21//21 22//22
f 19//19 22//22 23//23
f 19//19 23//23 24//24
f 19//19 24//24 25//25
f 21//21 26//26 22//22
f 21//21 27//27 26//26
f 27//27 21//21 28//28
f 26//26 27//27 29//29
f 30//30 26//26 29//29
f 26//26 30//30 31//31
f 30//30 29//29 32//32
f 30//30 32//32 33//33
f 32//32 29//29 34//34
