# wall.frame.shopfront_COL
v -0.0750979707 2.20198607 1.34638536
v -0.0750975311 2.2019856 -1.34638548
v 0.0750979707 2.2019856 -1.34638548
v 0.0750975236 2.2019856 1.34638548
v 0.0750975534 2.29490137 1.34638548
v 0.0750975236 2.2019856 1.34638548
v 0.0750979707 2.2019856 -1.34638548
v 0.0750979707 2.29490137 -1.34638548
v 0.0750975236 2.2019856 1.34638548
v 0.0750975534 2.29490137 1.34638548
v -0.0750979483 2.29490185 1.34638536
v -0.0750979707 2.20198607 1.34638536
v -0.0750979707 2.20198607 1.34638536
v -0.0750979483 2.29490185 1.34638536
v -0.0750975311 2.29490137 -1.34638548
v -0.0750975311 2.2019856 -1.34638548
v 0.0750979707 2.29490137 -1.34638548
v 0.0750979707 2.2019856 -1.34638548
v -0.0750975311 2.2019856 -1.34638548
v -0.0750975311 2.29490137 -1.34638548
v -0.0750975311 2.29490137 -1.34638548
v -0.0750979483 2.29490185 1.34638536
v 0.0750975534 2.29490137 1.34638548
v 0.0750979707 2.29490137 -1.34638548
v -0.0551988073 2.84392381 -1.28140593
v -0.0628802776 2.25491619 -1.27372468
v 0.0626809373 2.25491619 -1.27372468
v 0.0626809448 2.84392381 -1.27372468
v 0.0626809373 2.25491619 -1.34906137
v 0.0626809373 2.84392381 -1.34906137
v 0.0626809448 2.84392381 -1.27372468
v 0.0626809373 2.25491619 -1.27372468
v -0.0628802851 2.25491619 -1.34906137
v -0.0628802851 2.84392381 -1.34906137
v 0.0626809373 2.84392381 -1.34906137
v 0.0626809373 2.25491619 -1.34906137
v -0.0551988073 2.84392381 -1.28140593
v -0.0628802851 2.84392381 -1.34906137
v -0.0628802851 2.25491619 -1.34906137
v -0.0628802776 2.25491619 -1.27372468
v -0.0628430992 2.25644779 1.27585304
v -0.0628431216 2.25644779 1.35118973
v -0.0628431216 2.84075499 1.35118973
v -0.0577819794 2.84075499 1.28091407
v 0.0627181008 2.25644779 1.35118973
v 0.0627181306 2.25644779 1.27585304
v 0.0627181232 2.84075499 1.27585304
v 0.0624493584 2.84075499 1.35092103
v -0.0628431216 2.84075499 1.35118973
v -0.0628431216 2.25644779 1.35118973
v 0.0627181008 2.25644779 1.35118973
v 0.0624493584 2.84075499 1.35092103
v 0.0627181232 2.84075499 1.27585304
v 0.0627181306 2.25644779 1.27585304
v -0.0628430992 2.25644779 1.27585304
v -0.0577819794 2.84075499 1.28091407
v 0.0764013007 2.75943565 -1.3463856
v 0.0764008462 2.75943565 1.34638512
v -0.0764013231 2.75943565 1.34638512
v -0.076400876 2.75943565 -1.34638572
v -0.0764008611 2.8521626 -1.34638572
v -0.076400876 2.75943565 -1.34638572
v -0.0764013231 2.75943565 1.34638512
v -0.0764012858 2.85216308 1.34638512
v -0.076400876 2.75943565 -1.34638572
v -0.0764008611 2.8521626 -1.34638572
v 0.0764013156 2.8521626 -1.3463856
v 0.0764013007 2.75943565 -1.3463856
v 0.0764013007 2.75943565 -1.3463856
v 0.0764013156 2.8521626 -1.3463856
v 0.0764008909 2.85216331 1.34638512
v 0.0764008462 2.75943565 1.34638512
v -0.0764012858 2.85216308 1.34638512
v -0.0764013231 2.75943565 1.34638512
v 0.0764008462 2.75943565 1.34638512
v 0.0764008909 2.85216331 1.34638512
v 0.0764008909 2.85216331 1.34638512
v 0.0764013156 2.8521626 -1.3463856
v -0.0764008611 2.8521626 -1.34638572
v -0.0764012858 2.85216308 1.34638512
v -0.0617770031 0.000111923218 1.27493906
v -0.0617770031 2.20452237 1.27493894
v 0.0617766455 2.20452237 1.27493882
v 0.0617766492 0.000111999507 1.27493906
v 0.0617766492 0.000111923218 1.34971511
v 0.0617766492 0.000111999507 1.27493906
v 0.0617766455 2.20452237 1.27493882
v 0.0617766306 2.20452237 1.34971511
v 0.0617766492 0.000111999507 1.27493906
v 0.0617766492 0.000111923218 1.34971511
v -0.0617770143 0.000111923218 1.34971511
v -0.0617770031 0.000111923218 1.27493906
v -0.0617770031 0.000111923218 1.27493906
v -0.0617770143 0.000111923218 1.34971511
v -0.0617770143 2.20452237 1.34971511
v -0.0617770031 2.20452237 1.27493894
v 0.0617766306 2.20452237 1.34971511
v 0.0617766455 2.20452237 1.27493882
v -0.0617770031 2.20452237 1.27493894
v -0.0617770143 2.20452237 1.34971511
v -0.0617770143 2.20452237 1.34971511
v -0.0617770143 0.000111923218 1.34971511
v 0.0617766492 0.000111923218 1.34971511
v 0.0617766306 2.20452237 1.34971511
v -0.0617768243 0.000111923218 0.095872879
v -0.0617768429 0.000111923218 0.170649022
v -0.0617768429 2.20452213 0.170648918
v -0.0617768243 2.20452213 0.0958727449
v -0.0617768429 0.000111923218 0.170649022
v -0.0617768243 0.000111923218 0.095872879
v 0.0617768243 0.000111923218 0.0958728939
v 0.0617768131 0.000111923218 0.170648992
v 0.0617768429 2.20452213 0.0958727747
v 0.0617768243 0.000111923218 0.0958728939
v -0.0617768243 0.000111923218 0.095872879
v -0.0617768243 2.20452213 0.0958727449
v -0.0617768243 2.20452213 0.0958727449
v -0.0617768429 2.20452213 0.170648918
v 0.0617768131 2.20452213 0.170648873
v 0.0617768429 2.20452213 0.0958727747
v -0.0617768429 2.20452213 0.170648918
v -0.0617768429 0.000111923218 0.170649022
v 0.0617768131 0.000111923218 0.170648992
v 0.0617768131 2.20452213 0.170648873
v 0.0617768131 2.20452213 0.170648873
v 0.0617768131 0.000111923218 0.170648992
v 0.0617768243 0.000111923218 0.0958728939
v 0.0617768429 2.20452213 0.0958727747
v -0.0617766194 2.20452213 -1.27410448
v -0.061776612 0.000111770627 -1.2741046
v 0.0617770515 0.000111770627 -1.2741046
v 0.0617770515 2.20452213 -1.27410448
v 0.0617770515 2.20452213 -1.34888041
v 0.0617770515 2.20452213 -1.27410448
v 0.0617770515 0.000111770627 -1.2741046
v 0.0617770478 0.000111770627 -1.34888077
v 0.0617770515 2.20452213 -1.27410448
v 0.0617770515 2.20452213 -1.34888041
v -0.061776612 2.20452213 -1.34888041
v -0.0617766194 2.20452213 -1.27410448
v -0.0617766194 2.20452213 -1.27410448
v -0.061776612 2.20452213 -1.34888041
v -0.0617766231 0.000111770627 -1.34888077
v -0.061776612 0.000111770627 -1.2741046
v -0.0617766231 0.000111770627 -1.34888077
v -0.061776612 2.20452213 -1.34888041
v 0.0617770515 2.20452213 -1.34888041
v 0.0617770478 0.000111770627 -1.34888077
v 0.0617770478 0.000111770627 -1.34888077
v 0.0617770515 0.000111770627 -1.2741046
v -0.061776612 0.000111770627 -1.2741046
v -0.0617766231 0.000111770627 -1.34888077
v 0.040440131 1.03657985 -1.28194857
v 0.0404403955 1.03657973 0.0982071012
v -0.0408941917 1.03657973 0.0982070789
v -0.030204922 1.04187953 -1.2817471
v -0.0408942029 1.15664029 0.0982070789
v -0.0408944637 1.15664041 -1.28194857
v -0.030204922 1.04187953 -1.2817471
v -0.0408941917 1.03657973 0.0982070789
v 0.0404403806 1.15664029 0.0982071012
v 0.0404401198 1.15664041 -1.28194857
v -0.0408944637 1.15664041 -1.28194857
v -0.0408942029 1.15664029 0.0982070789
v 0.0404403955 1.03657973 0.0982071012
v 0.040440131 1.03657985 -1.28194857
v 0.0404401198 1.15664041 -1.28194857
v 0.0404403806 1.15664029 0.0982071012
v 0.0393213555 0.131219178 0.101812564
v 0.0393215753 0.131218895 -1.2783432
v -0.0386170521 0.131218895 -1.2783432
v -0.0321164839 0.124718398 0.101812467
v -0.0386170521 0.131218895 -1.2783432
v -0.0386170596 0.00936190132 -1.27834308
v -0.0386171229 0.00936202053 -0.898634493
v -0.0386172719 0.00936223939 0.101812504
v -0.0321164839 0.124718398 0.101812467
v -0.0386170596 0.00936190132 -1.27834308
v 0.0393215641 0.00936190598 -1.2783432
v 0.0393213518 0.00936223939 0.101812564
v -0.0386171229 0.00936202053 -0.898634493
v -0.0386172719 0.00936223939 0.101812504
v 0.0393215753 0.131218895 -1.2783432
v 0.0393213555 0.131219178 0.101812564
v 0.0393213518 0.00936223939 0.101812564
v 0.0393215641 0.00936190598 -1.2783432
v -0.0175040755 0.746875525 -1.281546
v -0.0175041035 0.121166609 -1.281546
v -0.0175038725 0.121166684 0.107022628
v -0.0175038446 0.746875584 0.107022703
v -0.030204922 1.04187953 -1.2817471
v -0.0175038315 1.04383302 0.107022703
v 0.0154622821 0.121166684 0.107022628
v 0.0154620511 0.121166572 -1.281546
v 0.0154620772 0.746875525 -1.28154588
v 0.015462311 0.746875584 0.107022703
v 0.015462094 1.04383278 -1.28154588
v 0.0154623259 1.04383302 0.107022703
v 0.144111425 1.15774894 -1.21137941
v -0.213704988 1.15809536 -1.27805758
v 0.124158248 1.15806067 -1.27861023
v -0.194604337 1.15747678 -1.22960305
v -0.186754927 1.15743184 -1.1395179
v -0.209017843 1.15774786 -1.09177458
v 0.143995389 1.15783286 0.086717315
v -0.227201283 1.15754771 0.0209065694
v 0.128506318 1.1578294 0.103065051
v -0.201872692 1.15783334 0.0950068384
v 0.124510072 1.18600953 0.102650315
v 0.143995389 1.15783286 0.086717315
v 0.142754808 1.1860466 0.0832045898
v -0.227217242 1.18258667 0.0208996236
v -0.201881886 1.1823051 0.0950106531
v 0.128506318 1.1578294 0.103065051
v -0.201872692 1.15783334 0.0950068384
v -0.227201283 1.15754771 0.0209065694
v -0.2062255 1.18616641 -1.09060395
v 0.140477166 1.1862371 -1.21096802
v -0.209017843 1.15774786 -1.09177458
v -0.183010414 1.18649876 -1.14015484
v -0.186754927 1.15743184 -1.1395179
v -0.192421466 1.18639648 -1.23159373
v -0.194604337 1.15747678 -1.22960305
v -0.212168381 1.18584704 -1.2745645
v -0.213704988 1.15809536 -1.27805758
v 0.144111425 1.15774894 -1.21137941
v 0.143995389 1.15783286 0.086717315
v 0.124158248 1.15806067 -1.27861023
v 0.121336721 1.186041 -1.27485013
v -0.213704988 1.15809536 -1.27805758
v 0.124158248 1.15806067 -1.27861023
v 0.0266130399 2.34071398 -1.27354407
v 0.026612591 2.27900457 1.25550973
v 0.0266130362 2.27900457 -1.2461431
v 0.0266125798 2.52118349 1.27637148
v 0.0266130306 2.52118301 -1.27354407
v 0.0266130157 2.76336169 -1.22794604
v 0.0266125705 2.76336241 1.27637136
v 0.0266127922 2.76336241 0.00172802375
v -0.0242307298 2.76336241 1.27637148
v -0.02423051 2.76336241 0.00172800641
v -0.0242302883 2.76336169 -1.22794604
v -0.0242307186 2.52118349 1.27637148
v -0.0242302809 2.52118301 -1.27354395
v -0.0242302753 2.34071398 -1.27354395
v -0.0242302679 2.27900457 -1.24614298
v -0.0242307112 2.27900457 1.25550961
vn -0.577350855 -0.577349603 0.577350378
vn -0.577350736 -0.577349961 -0.57735002
vn 0.577349722 -0.577350676 -0.577350497
vn 0.577349663 -0.577350914 0.577350259
vn 0.577350199 0.577349544 0.577350974
vn 0.577349663 -0.577350914 0.577350259
vn 0.577349722 -0.577350676 -0.577350497
vn 0.577350914 0.577349961 -0.577349961
vn 0.577349663 -0.577350914 0.577350259
vn 0.577350199 0.577349544 0.577350974
vn -0.577350318 0.577351093 0.577349484
vn -0.577350855 -0.577349603 0.577350378
vn -0.577350855 -0.577349603 0.577350378
vn -0.577350318 0.577351093 0.577349484
vn -0.577349603 0.577350616 -0.577350616
vn -0.577350736 -0.577349961 -0.57735002
vn 0.577350914 0.577349961 -0.577349961
vn 0.577349722 -0.577350676 -0.577350497
vn -0.577350736 -0.577349961 -0.57735002
vn -0.577349603 0.577350616 -0.577350616
vn -0.577349603 0.577350616 -0.577350616
vn -0.577350318 0.577351093 0.577349484
vn 0.577350199 0.577349544 0.577350974
vn 0.577350914 0.577349961 -0.577349961
vn -0.699070334 0.00922054797 0.714993477
vn -0.69921124 0.00922056939 0.714855731
vn 0.695867538 0.00483049219 0.718153834
vn 0.695867538 0.00483049219 0.718153834
vn 0.707106829 0 -0.707106769
vn 0.707106829 0 -0.707106769
vn 0.695867538 0.00483049219 0.718153834
vn 0.695867538 0.00483049219 0.718153834
vn -0.725806832 0.00498699583 -0.687880576
vn -0.725806832 0.00498699583 -0.687880576
vn 0.707106829 0 -0.707106769
vn 0.707106829 0 -0.707106769
vn -0.699070334 0.00922054797 0.714993477
vn -0.725806832 0.00498699583 -0.687880576
vn -0.725806832 0.00498699583 -0.687880576
vn -0.69921124 0.00922056939 0.714855731
vn -0.702062845 0.006124462 -0.712088645
vn -0.718903422 0.0033909129 0.695101738
vn -0.718903422 0.0033909129 0.695101738
vn -0.702004492 0.00612445874 -0.712146163
vn 0.706853569 0.000325202622 0.70735991
vn 0.700436294 0.00332490192 -0.713707089
vn 0.700436294 0.00332490192 -0.713707089
vn 0.70685339 0.000325202622 0.707360029
vn -0.718903422 0.0033909129 0.695101738
vn -0.718903422 0.0033909129 0.695101738
vn 0.706853569 0.000325202622 0.70735991
vn 0.70685339 0.000325202622 0.707360029
vn 0.700436294 0.00332490192 -0.713707089
vn 0.700436294 0.00332490192 -0.713707089
vn -0.702062845 0.006124462 -0.712088645
vn -0.702004492 0.00612445874 -0.712146163
vn 0.577350497 -0.577350378 -0.577349842
vn 0.57735008 -0.577350318 0.577350378
vn -0.577350438 -0.577350199 0.57735014
vn -0.57735002 -0.57735014 -0.577350736
vn -0.577350259 0.57735008 -0.577350497
vn -0.57735002 -0.57735014 -0.577350736
vn -0.577350438 -0.577350199 0.57735014
vn -0.577350378 0.577349961 0.577350497
vn -0.57735002 -0.57735014 -0.577350736
vn -0.577350259 0.57735008 -0.577350497
vn 0.577350378 0.577350378 -0.57735014
vn 0.577350497 -0.577350378 -0.577349842
vn 0.577350497 -0.577350378 -0.577349842
vn 0.577350378 0.577350378 -0.57735014
vn 0.577350199 0.577350736 0.577349961
vn 0.57735008 -0.577350318 0.577350378
vn -0.577350378 0.577349961 0.577350497
vn -0.577350438 -0.577350199 0.57735014
vn 0.57735008 -0.577350318 0.577350378
vn 0.577350199 0.577350736 0.577349961
vn 0.577350199 0.577350736 0.577349961
vn 0.577350378 0.577350378 -0.57735014
vn -0.577350259 0.57735008 -0.577350497
vn -0.577350378 0.577349961 0.577350497
vn -0.577350259 -0.577350259 -0.577350318
vn -0.577350259 0.577350318 -0.577350199
vn 0.577350259 0.57735014 -0.577350378
vn 0.577350378 -0.577349961 -0.577350378
vn 0.577350199 -0.577350318 0.577350199
vn 0.577350378 -0.577349961 -0.577350378
vn 0.577350259 0.57735014 -0.577350378
vn 0.577350199 0.577350259 0.577350259
vn 0.577350378 -0.577349961 -0.577350378
vn 0.577350199 -0.577350318 0.577350199
vn -0.577350318 -0.577350378 0.57735014
vn -0.577350259 -0.577350259 -0.577350318
vn -0.577350259 -0.577350259 -0.577350318
vn -0.577350318 -0.577350378 0.57735014
vn -0.577350318 0.577350259 0.577350259
vn -0.577350259 0.577350318 -0.577350199
vn 0.577350199 0.577350259 0.577350259
vn 0.577350259 0.57735014 -0.577350378
vn -0.577350259 0.577350318 -0.577350199
vn -0.577350318 0.577350259 0.577350259
vn -0.577350318 0.577350259 0.577350259
vn -0.577350318 -0.577350378 0.57735014
vn 0.577350199 -0.577350318 0.577350199
vn 0.577350199 0.577350259 0.577350259
vn -0.57735008 -0.577350318 -0.577350378
vn -0.577350259 -0.577350199 0.577350318
vn -0.577350259 0.577350259 0.577350259
vn -0.57735008 0.577350259 -0.577350378
vn -0.577350259 -0.577350199 0.577350318
vn -0.57735008 -0.577350318 -0.577350378
vn 0.577350378 -0.577350318 -0.57735014
vn 0.577350259 -0.577350199 0.577350318
vn 0.577350438 0.577350199 -0.577350199
vn 0.577350378 -0.577350318 -0.57735014
vn -0.57735008 -0.577350318 -0.577350378
vn -0.57735008 0.577350259 -0.577350378
vn -0.57735008 0.577350259 -0.577350378
vn -0.577350259 0.577350259 0.577350259
vn 0.577350259 0.577350318 0.577350259
vn 0.577350438 0.577350199 -0.577350199
vn -0.577350259 0.577350259 0.577350259
vn -0.577350259 -0.577350199 0.577350318
vn 0.577350259 -0.577350199 0.577350318
vn 0.577350259 0.577350318 0.577350259
vn 0.577350259 0.577350318 0.577350259
vn 0.577350259 -0.577350199 0.577350318
vn 0.577350378 -0.577350318 -0.57735014
vn 0.577350438 0.577350199 -0.577350199
vn -0.577350199 0.57735014 0.577350438
vn -0.57735014 -0.577350318 0.577350318
vn 0.577350378 -0.57735014 0.577350259
vn 0.577350259 0.577350318 0.577350199
vn 0.577350199 0.577350318 -0.577350259
vn 0.577350259 0.577350318 0.577350199
vn 0.577350378 -0.57735014 0.577350259
vn 0.577350199 -0.577350199 -0.577350318
vn 0.577350259 0.577350318 0.577350199
vn 0.577350199 0.577350318 -0.577350259
vn -0.577350199 0.577350259 -0.577350199
vn -0.577350199 0.57735014 0.577350438
vn -0.577350199 0.57735014 0.577350438
vn -0.577350199 0.577350259 -0.577350199
vn -0.577350318 -0.577350199 -0.577350378
vn -0.57735014 -0.577350318 0.577350318
vn -0.577350318 -0.577350199 -0.577350378
vn -0.577350199 0.577350259 -0.577350199
vn 0.577350199 0.577350318 -0.577350259
vn 0.577350199 -0.577350199 -0.577350318
vn 0.577350199 -0.577350199 -0.577350318
vn 0.577350378 -0.57735014 0.577350259
vn -0.57735014 -0.577350318 0.577350318
vn -0.577350318 -0.577350199 -0.577350378
vn 0.695349455 -0.718670309 -0.0014771776
vn 0.694675207 -0.719322026 -0.00147851696
vn -0.704147339 -0.710042179 -0.00409034314
vn -0.887386382 -0.461022198 -0.0019869383
vn -0.723001182 0.6908409 -0.00286311097
vn -0.722598851 0.691261709 -0.00286151725
vn -0.887386382 -0.461022198 -0.0019869383
vn -0.704147339 -0.710042179 -0.00409034314
vn 0.707106829 0.707106769 0
vn 0.70710665 0.707106888 0
vn -0.722598851 0.691261709 -0.00286151725
vn -0.723001182 0.6908409 -0.00286311097
vn 0.694675207 -0.719322026 -0.00147851696
vn 0.695349455 -0.718670309 -0.0014771776
vn 0.70710665 0.707106888 0
vn 0.707106829 0.707106769 0
vn 0.691564322 0.722312629 0.00177509955
vn 0.691564202 0.722312808 0.00177510036
vn -0.712769806 0.701390028 0.00333021698
vn -0.712805808 0.70135355 0.00333021628
vn -0.712769806 0.701390028 0.00333021698
vn -0.716724575 -0.697354198 0.00173426792
vn -0.716724753 -0.697354078 0.00173426839
vn -0.716724634 -0.697354198 0.00173426804
vn -0.712805808 0.70135355 0.00333021628
vn -0.716724575 -0.697354198 0.00173426792
vn 0.707106829 -0.70710665 2.81904136E-07
vn 0.707106829 -0.70710665 2.81904164E-07
vn -0.716724753 -0.697354078 0.00173426839
vn -0.716724634 -0.697354198 0.00173426804
vn 0.691564202 0.722312808 0.00177510036
vn 0.691564322 0.722312629 0.00177509955
vn 0.707106829 -0.70710665 2.81904164E-07
vn 0.707106829 -0.70710665 2.81904136E-07
vn -0.999975204 -0.00688961195 0.00147357967
vn -0.999975204 -0.00688961241 0.00147357967
vn -0.999975204 -0.00688961195 0.00147357956
vn -0.999975204 -0.00688961195 0.00147357932
vn -0.887386382 -0.461022198 -0.0019869383
vn -0.999975204 -0.00688961195 0.00147357944
vn 1 0 -1.67509583E-07
vn 1 0 -1.67509583E-07
vn 1 0 -1.67509555E-07
vn 1 0 -1.67509583E-07
vn 1 0 -1.67509583E-07
vn 1 0 -1.67509555E-07
vn 0.762881577 -0.636552453 -0.113192536
vn -0.707857251 -0.494254827 -0.504628956
vn 0.504426241 -0.531232238 -0.680695593
vn -0.678341687 -0.716080129 0.164565191
vn -0.66679734 -0.73607403 -0.116517767
vn -0.753626943 -0.633630335 -0.17481117
vn 0.744473517 -0.588576674 0.315177143
vn -0.741884828 -0.66013974 0.117569268
vn 0.331417382 -0.599647045 0.728413224
vn -0.474573076 -0.595178843 0.648492634
vn 0.264760017 0.649809539 0.712495446
vn 0.744473517 -0.588576674 0.315177143
vn 0.68990171 0.676241577 0.258327305
vn -0.7265172 0.677293837 0.115956023
vn -0.476735681 0.594346285 0.647669315
vn 0.331417382 -0.599647045 0.728413224
vn -0.474573076 -0.595178843 0.648492634
vn -0.741884828 -0.66013974 0.117569268
vn -0.704458356 0.691567957 -0.159599751
vn 0.691715479 0.714809239 -0.102846831
vn -0.753626943 -0.633630335 -0.17481117
vn -0.583571613 0.806687117 -0.0932736471
vn -0.66679734 -0.73607403 -0.116517767
vn -0.615805447 0.772378385 0.155612618
vn -0.678341687 -0.716080129 0.164565191
vn -0.676583052 0.614394307 -0.40590024
vn -0.707857251 -0.494254827 -0.504628956
vn 0.762881577 -0.636552453 -0.113192536
vn 0.744473517 -0.588576674 0.315177143
vn 0.504426241 -0.531232238 -0.680695593
vn 0.451321185 0.652018011 -0.60924691
vn -0.707857251 -0.494254827 -0.504628956
vn 0.504426241 -0.531232238 -0.680695593
vn 1 0 1.76770712E-07
vn 1 0 1.77420247E-07
vn 1 0 1.77420247E-07
vn 1 0 1.77146319E-07
vn 1 0 1.76568662E-07
vn 1 0 1.76940418E-07
vn 1 0 1.76940418E-07
vn 1 0 1.76940418E-07
vn -1 0 -1.73166669E-07
vn -1 0 -1.73166669E-07
vn -1 0 -1.73166669E-07
vn -1 0 -1.73071271E-07
vn -1 0 -1.71818954E-07
vn -1 0 -1.71734371E-07
vn -1 0 -1.73087244E-07
vn -1 0 -1.73087244E-07
vt 0.375112593 0.76560688
vt 0.499690026 0.76560688
vt 0.499690026 0.759653389
vt 0.375112593 0.759653389
vt 0.375137001 0.850481808
vt 0.375137001 0.854248166
vt 0.499667019 0.854248166
vt 0.499667019 0.850481808
vt 0.456476331 0.866783917
vt 0.456476331 0.860910296
vt 0.44619742 0.860910296
vt 0.44619742 0.866783917
vt 0.375137001 0.854661763
vt 0.375137001 0.858428121
vt 0.499667019 0.85842818
vt 0.499667019 0.854661763
vt 0.456476331 0.866862953
vt 0.456476331 0.860989332
vt 0.44619742 0.860989332
vt 0.44619742 0.866862953
vt 0.499690026 0.759482086
vt 0.375112593 0.759482086
vt 0.375112593 0.765435576
vt 0.499690026 0.765435576
vt 0.469554663 0.76560688
vt 0.499477386 0.76560688
vt 0.499477386 0.759653389
vt 0.469555736 0.759645522
vt 0.499521911 0.850444436
vt 0.469576836 0.850445092
vt 0.46957612 0.85428679
vt 0.499521911 0.854285419
vt 0.499477386 0.759482086
vt 0.469561011 0.759441674
vt 0.469554663 0.765435576
vt 0.499477386 0.765435576
vt 0.469578087 0.85462451
vt 0.46957773 0.858465314
vt 0.499521911 0.858465493
vt 0.499521911 0.85462451
vt 0.375282049 0.850444436
vt 0.375282049 0.854285419
vt 0.404986769 0.854285598
vt 0.404986918 0.850444436
vt 0.375282049 0.85462451
vt 0.375282049 0.858465493
vt 0.40498355 0.858463883
vt 0.404865503 0.85462451
vt 0.405018419 0.759584486
vt 0.375325203 0.759653389
vt 0.375325203 0.76560688
vt 0.404887795 0.76560688
vt 0.405009627 0.759478807
vt 0.375325203 0.759482086
vt 0.375325203 0.765435576
vt 0.405009121 0.765435576
vt 0.375112593 0.76560688
vt 0.499690026 0.76560688
vt 0.499690026 0.759653389
vt 0.375112593 0.759653389
vt 0.375137001 0.850481808
vt 0.375137001 0.854248166
vt 0.499667019 0.854248166
vt 0.499667019 0.850481808
vt 0.456476331 0.866783917
vt 0.456476331 0.860910296
vt 0.44619742 0.860910296
vt 0.44619742 0.866783917
vt 0.375137001 0.854661763
vt 0.375137001 0.858428121
vt 0.499667019 0.85842818
vt 0.499667019 0.854661763
vt 0.456476331 0.866862953
vt 0.456476331 0.860989332
vt 0.44619742 0.860989332
vt 0.44619742 0.866862953
vt 0.499690026 0.759482086
vt 0.375112593 0.759482086
vt 0.375112593 0.765435576
vt 0.499690026 0.765435576
vt 0.375112593 0.76560688
vt 0.499690026 0.76560688
vt 0.499690026 0.759653389
vt 0.375112593 0.759653389
vt 0.375137001 0.850481808
vt 0.375137001 0.854248166
vt 0.499667019 0.854248166
vt 0.499667019 0.850481808
vt 0.456476331 0.866783917
vt 0.456476331 0.860910296
vt 0.44619742 0.860910296
vt 0.44619742 0.866783917
vt 0.375137001 0.854661763
vt 0.375137001 0.858428121
vt 0.499667019 0.85842818
vt 0.499667019 0.854661763
vt 0.456476331 0.866862953
vt 0.456476331 0.860989332
vt 0.44619742 0.860989332
vt 0.44619742 0.866862953
vt 0.499690026 0.759482086
vt 0.375112593 0.759482086
vt 0.375112593 0.765435576
vt 0.499690026 0.765435576
vt 0.375137001 0.850481808
vt 0.375137001 0.854248166
vt 0.499667019 0.854248166
vt 0.499667019 0.850481808
vt 0.456476331 0.866783917
vt 0.456476331 0.860910296
vt 0.44619742 0.860910296
vt 0.44619742 0.866783917
vt 0.499690026 0.759482086
vt 0.375112593 0.759482086
vt 0.375112593 0.765435576
vt 0.499690026 0.765435576
vt 0.456476331 0.866862953
vt 0.456476331 0.860989332
vt 0.44619742 0.860989332
vt 0.44619742 0.866862953
vt 0.499690026 0.759653389
vt 0.375112593 0.759653389
vt 0.375112593 0.76560688
vt 0.499690026 0.76560688
vt 0.499667019 0.854661763
vt 0.375137001 0.854661763
vt 0.375137001 0.858428121
vt 0.499667019 0.85842818
vt 0.375112593 0.76560688
vt 0.499690026 0.76560688
vt 0.499690026 0.759653389
vt 0.375112593 0.759653389
vt 0.375137001 0.850481808
vt 0.375137001 0.854248166
vt 0.499667019 0.854248166
vt 0.499667019 0.850481808
vt 0.456476331 0.866783917
vt 0.456476331 0.860910296
vt 0.44619742 0.860910296
vt 0.44619742 0.866783917
vt 0.375137001 0.854661763
vt 0.375137001 0.858428121
vt 0.499667019 0.85842818
vt 0.499667019 0.854661763
vt 0.499690026 0.759482086
vt 0.375112593 0.759482086
vt 0.375112593 0.765435576
vt 0.499690026 0.765435576
vt 0.456476331 0.866862953
vt 0.456476331 0.860989332
vt 0.44619742 0.860989332
vt 0.44619742 0.866862953
vt 0.421209276 0.858464241
vt 0.499521911 0.858465493
vt 0.499521911 0.85462451
vt 0.421206832 0.854628503
vt 0.499477386 0.759653389
vt 0.421229899 0.759599864
vt 0.42121619 0.765553296
vt 0.499477386 0.76560688
vt 0.499521911 0.850444436
vt 0.42121163 0.850444615
vt 0.421211272 0.854285896
vt 0.499521911 0.854285419
vt 0.499477386 0.759482086
vt 0.421224594 0.75946945
vt 0.421222597 0.765435576
vt 0.499477386 0.765435576
vt 0.421209276 0.858464241
vt 0.499521911 0.858465493
vt 0.499521911 0.85462451
vt 0.421206832 0.854628503
vt 0.499477386 0.76560688
vt 0.499477386 0.759653389
vt 0.477947921 0.759653389
vt 0.421229899 0.759599864
vt 0.42121619 0.765553296
vt 0.499521911 0.854285419
vt 0.499521911 0.850444436
vt 0.42121163 0.850444615
vt 0.47797507 0.854286909
vt 0.421211272 0.854285896
vt 0.499477386 0.759482086
vt 0.421224594 0.75946945
vt 0.421222597 0.765435576
vt 0.499477386 0.765435576
vt 0.464174032 0.782865107
vt 0.464174032 0.750081837
vt 0.393921465 0.750081837
vt 0.393921465 0.782865107
vt 0.464174032 0.798423827
vt 0.393921465 0.798423827
vt 0.393921465 0.750081837
vt 0.464174032 0.750081837
vt 0.464174032 0.782865107
vt 0.393921465 0.782865107
vt 0.464174032 0.798423827
vt 0.393921465 0.798423827
vt 0.432738602 0.798220694
vt 0.435404122 0.783834279
vt 0.435404122 0.797441602
vt 0.433515519 0.784611344
vt 0.429809898 0.78493011
vt 0.427857399 0.784033537
vt 0.379923105 0.798220694
vt 0.381507009 0.783863783
vt 0.379309595 0.79764086
vt 0.379624307 0.784292579
vt 0.378631949 0.797993362
vt 0.378910065 0.797489643
vt 0.379110396 0.798403084
vt 0.380681396 0.783789277
vt 0.37871784 0.784415543
vt 0.3778494 0.798206449
vt 0.377936989 0.784350157
vt 0.380472869 0.783061206
vt 0.428282619 0.784040213
vt 0.433288842 0.798379183
vt 0.428462327 0.783163309
vt 0.430368334 0.78489238
vt 0.430434257 0.783934116
vt 0.434292525 0.784587324
vt 0.434063226 0.783695281
vt 0.436007589 0.783793747
vt 0.435961992 0.782984376
vt 0.433368862 0.79923588
vt 0.378966153 0.799238026
vt 0.436225802 0.798540473
vt 0.435933471 0.797635317
vt 0.436884731 0.783735037
vt 0.436884731 0.797728956
vt 0.499926895 0.82502526
vt 0.375693321 0.828930736
vt 0.499054492 0.829036295
vt 0.374833852 0.81360203
vt 0.499926895 0.81360203
vt 0.497917622 0.798363149
vt 0.374833852 0.798272669
vt 0.437364936 0.798272669
vt 0.374833852 0.798272669
vt 0.437364936 0.798272669
vt 0.497561336 0.79839927
vt 0.374833852 0.81360203
vt 0.499926895 0.81360203
vt 0.499926895 0.82502526
vt 0.498518199 0.828805208
vt 0.375866026 0.828929543
g submesh0
f 1/1/1 2/2/2 3/3/3
f 1/1/1 3/3/3 4/4/4
f 5/5/5 6/6/6 7/7/7
f 5/5/5 7/7/7 8/8/8
f 9/9/9 10/10/10 11/11/11
f 9/9/9 11/11/11 12/12/12
f 13/13/13 14/14/14 15/15/15
f 13/13/13 15/15/15 16/16/16
f 17/17/17 18/18/18 19/19/19
f 17/17/17 19/19/19 20/20/20
f 21/21/21 22/22/22 23/23/23
f 21/21/21 23/23/23 24/24/24
f 25/25/25 26/26/26 27/27/27
f 25/25/25 27/27/27 28/28/28
f 29/29/29 30/30/30 31/31/31
f 29/29/29 31/31/31 32/32/32
f 33/33/33 34/34/34 35/35/35
f 33/33/33 35/35/35 36/36/36
f 37/37/37 38/38/38 39/39/39
f 37/37/37 39/39/39 40/40/40
f 41/41/41 42/42/42 43/43/43
f 41/41/41 43/43/43 44/44/44
f 45/45/45 46/46/46 47/47/47
f 45/45/45 47/47/47 48/48/48
f 49/49/49 50/50/50 51/51/51
f 49/49/49 51/51/51 52/52/52
f 53/53/53 54/54/54 55/55/55
f 53/53/53 55/55/55 56/56/56
f 57/57/57 58/58/58 59/59/59
f 57/57/57 59/59/59 60/60/60
f 61/61/61 62/62/62 63/63/63
f 61/61/61 63/63/63 64/64/64
f 65/65/65 66/66/66 67/67/67
f 65/65/65 67/67/67 68/68/68
f 69/69/69 70/70/70 71/71/71
f 69/69/69 71/71/71 72/72/72
f 73/73/73 74/74/74 75/75/75
f 73/73/73 75/75/75 76/76/76
f 77/77/77 78/78/78 79/79/79
f 77/77/77 79/79/79 80/80/80
f 81/81/81 82/82/82 83/83/83
f 81/81/81 83/83/83 84/84/84
f 85/85/85 86/86/86 87/87/87
f 85/85/85 87/87/87 88/88/88
f 89/89/89 90/90/90 91/91/91
f 89/89/89 91/91/91 92/92/92
f 93/93/93 94/94/94 95/95/95
f 93/93/93 95/95/95 96/96/96
f 97/97/97 98/98/98 99/99/99
f 97/97/97 99/99/99 100/100/100
f 101/101/101 102/102/102 103/103/103
f 101/101/101 103/103/103 104/104/104
f 105/105/105 106/106/106 107/107/107
f 105/105/105 107/107/107 108/108/108
f 109/109/109 110/110/110 111/111/111
f 109/109/109 111/111/111 112/112/112
f 113/113/113 114/114/114 115/115/115
f 113/113/113 115/115/115 116/116/116
f 117/117/117 118/118/118 119/119/119
f 117/117/117 119/119/119 120/120/120
f 121/121/121 122/122/122 123/123/123
f 121/121/121 123/123/123 124/124/124
f 125/125/125 126/126/126 127/127/127
f 125/125/125 127/127/127 128/128/128
f 129/129/129 130/130/130 131/131/131
f 129/129/129 131/131/131 132/132/132
f 133/133/133 134/134/134 135/135/135
f 133/133/133 135/135/135 136/136/136
f 137/137/137 138/138/138 139/139/139
f 137/137/137 139/139/139 140/140/140
f 141/141/141 142/142/142 143/143/143
f 141/141/141 143/143/143 144/144/144
f 145/145/145 146/146/146 147/147/147
f 145/145/145 147/147/147 148/148/148
f 149/149/149 150/150/150 151/151/151
f 149/149/149 151/151/151 152/152/152
f 153/153/153 154/154/154 155/155/155
f 153/153/153 155/155/155 156/156/156
f 157/157/157 158/158/158 159/159/159
f 157/157/157 159/159/159 160/160/160
f 161/161/161 162/162/162 163/163/163
f 161/161/161 163/163/163 164/164/164
f 165/165/165 166/166/166 167/167/167
f 165/165/165 167/167/167 168/168/168
f 169/169/169 170/170/170 171/171/171
f 169/169/169 171/171/171 172/172/172
f 173/173/173 174/174/174 175/175/175
f 175/175/175 176/176/176 173/173/173
f 176/176/176 177/177/177 173/173/173
f 178/178/178 179/179/179 180/180/180
f 180/180/180 181/181/181 178/178/178
f 180/180/180 182/182/182 181/181/181
f 183/183/183 184/184/184 185/185/185
f 183/183/183 185/185/185 186/186/186
f 187/187/187 188/188/188 189/189/189
f 189/189/189 190/190/190 187/187/187
f 190/190/190 191/191/191 187/187/187
f 190/190/190 192/192/192 191/191/191
f 193/193/193 194/194/194 195/195/195
f 195/195/195 196/196/196 193/193/193
f 195/195/195 197/197/197 196/196/196
f 197/197/197 198/198/198 196/196/196
f 199/199/199 200/200/200 201/201/201
f 199/199/199 202/202/202 200/200/200
f 202/202/202 199/199/199 203/203/203
f 203/203/203 199/199/199 204/204/204
f 204/204/204 199/199/199 205/205/205
f 205/205/205 206/206/206 204/204/204
f 205/205/205 207/207/207 206/206/206
f 206/206/206 207/207/207 208/208/208
f 209/209/209 207/207/207 210/210/210
f 209/209/209 210/210/210 211/211/211
f 211/211/211 212/212/212 209/209/209
f 209/209/209 212/212/212 213/213/213
f 213/213/213 214/214/214 209/209/209
f 213/213/213 215/215/215 214/214/214
f 212/212/212 215/215/215 213/213/213
f 212/212/212 216/216/216 215/215/215
f 217/217/217 216/216/216 212/212/212
f 211/211/211 217/217/217 212/212/212
f 211/211/211 218/218/218 217/217/217
f 217/217/217 219/219/219 216/216/216
f 220/220/220 219/219/219 217/217/217
f 218/218/218 220/220/220 217/217/217
f 220/220/220 221/221/221 219/219/219
f 222/222/222 221/221/221 220/220/220
f 218/218/218 222/222/222 220/220/220
f 222/222/222 223/223/223 221/221/221
f 224/224/224 223/223/223 222/222/222
f 224/224/224 222/222/222 218/218/218
f 224/224/224 225/225/225 223/223/223
f 211/211/211 226/226/226 218/218/218
f 211/211/211 227/227/227 226/226/226
f 218/218/218 226/226/226 228/228/228
f 218/218/218 228/228/228 229/229/229
f 224/224/224 218/218/218 229/229/229
f 229/229/229 230/230/230 224/224/224
f 229/229/229 231/231/231 230/230/230
f 232/232/232 233/233/233 234/234/234
f 232/232/232 235/235/235 233/233/233
f 232/232/232 236/236/236 235/235/235
f 235/235/235 236/236/236 237/237/237
f 237/237/237 238/238/238 235/235/235
f 237/237/237 239/239/239 238/238/238
f 240/240/240 241/241/241 242/242/242
f 243/243/243 240/240/240 242/242/242
f 242/242/242 244/244/244 243/243/243
f 244/244/244 245/245/245 243/243/243
f 243/243/243 245/245/245 246/246/246
f 243/243/243 246/246/246 247/247/247
