# wall.third.corner.L_COL
v 0.0910418704 1.00573909 -1.50229311
v 0.150003806 0.946784437 -1.5
v 0.0870453119 0.946784317 -1.58735466
v -5.38002632E-06 0.946784019 -1.62351799
v -5.40357496E-06 1.00573206 -1.5
v -5.19492869E-06 -2.45179854E-06 -1.62351739
v -5.35466916E-06 -1.23109567E-06 -1.5
v 0.150003806 0.946784437 -1.5
v 0.150004148 3.05671092E-05 -1.5
v 0.0938210785 -7.53513305E-05 -1.59414184
v 0.0870453119 0.946784317 -1.58735466
v -5.19492869E-06 -2.45179854E-06 -1.62351739
v -5.38002632E-06 0.946784019 -1.62351799
v -5.40357496E-06 1.00573206 -1.5
v 0.150003806 0.946784437 -1.5
v 0.0910418704 1.00573909 -1.50229311
v -5.35466916E-06 -1.23109567E-06 -1.5
v 0.150004148 3.05671092E-05 -1.5
vt 0.588767409 0.0152139403
vt 0.5999735 -1.5285259E-05
vt 0.5999735 0.0311961956
vt 0.5999735 0.0624078773
vt 0.57692188 0.0313120373
vt 0.5999735 0.0624078773
vt 0.57692188 0.0313120373
vt 0.622475624 0.062599197
vt 0.622475624 0.0474837646
vt 0.778138995 0.173307478
vt 0.791960359 0.154551804
vt 0.797684073 0.135754734
vt 0.57692188 0.0313120373
vt 0.5999735 -1.5285259E-05
vt 0.791960359 0.154551804
vt 0.622475624 0.062599197
vt 0.622475624 0.0474837646
vt 0.707217991 0.101017788
g submesh0
f 1/1 2/2 3/3
f 3/3 4/4 1/1
f 4/4 5/5 1/1
f 5/5 4/4 6/6
f 5/5 6/6 7/7
f 8/8 9/9 10/10
f 8/8 10/10 11/11
f 11/11 10/10 12/12
f 11/11 12/12 13/13
f 14/14 15/15 16/16
f 14/14 17/17 15/15
f 15/15 17/17 18/18
