# wall.window.bars_LOD1
v 0.0451553278 1.24130273 -1.09672952
v 0.0401553251 1.19233835 -1.04776514
v 0.0401557423 0.100818709 -1.04776514
v 0.0451557487 0.0518542454 -1.09672952
v 0.0401553251 1.19233835 -1.04776514
v -0.0248446371 1.19233835 -1.04776514
v -0.0248442162 0.100818709 -1.04776514
v 0.0401557423 0.100818709 -1.04776514
v -0.0248446371 1.19233835 -1.04776514
v -0.0298445877 1.24130273 -1.09672952
v -0.0298441686 0.0518542454 -1.09672952
v -0.0248442162 0.100818709 -1.04776514
v 0.0451557487 0.0518542454 -1.09672952
v 0.0401557423 0.100818709 -1.04776514
v 0.0401553996 0.100818709 1.04794586
v 0.0451553911 0.0518542454 1.09691036
v 0.0401557423 0.100818709 -1.04776514
v -0.0248442162 0.100818709 -1.04776514
v -0.0248445775 0.100818709 1.04794586
v 0.0401553996 0.100818709 1.04794586
v -0.0248442162 0.100818709 -1.04776514
v -0.0298441686 0.0518542454 -1.09672952
v -0.0298445653 0.0518542454 1.09691036
v -0.0248445775 0.100818709 1.04794586
v 0.0451553911 0.0518542454 1.09691036
v 0.0401553996 0.100818709 1.04794586
v 0.0401549824 1.19233835 1.04794586
v 0.0451549701 1.24130273 1.09691036
v 0.0401553996 0.100818709 1.04794586
v -0.0248445775 0.100818709 1.04794586
v -0.0248449966 1.19233835 1.04794586
v 0.0401549824 1.19233835 1.04794586
v -0.0248445775 0.100818709 1.04794586
v -0.0298445653 0.0518542454 1.09691036
v -0.0298449844 1.24130273 1.09691036
v -0.0248449966 1.19233835 1.04794586
v 0.0451549701 1.24130273 1.09691036
v 0.0401549824 1.19233835 1.04794586
v 0.0401553251 1.19233835 -1.04776514
v 0.0451553278 1.24130273 -1.09672952
v 0.0401549824 1.19233835 1.04794586
v -0.0248449966 1.19233835 1.04794586
v -0.0248446371 1.19233835 -1.04776514
v 0.0401553251 1.19233835 -1.04776514
v -0.0248449966 1.19233835 1.04794586
v -0.0298449844 1.24130273 1.09691036
v -0.0298445877 1.24130273 -1.09672952
v -0.0248446371 1.19233835 -1.04776514
v -0.00359949702 0.636271238 0.506376863
v -0.00621786807 0.0949302241 0.513128281
v -0.00622071372 0.0949211195 0.540939987
v -0.00513924239 0.636240602 0.546773314
v -0.0061985068 0.675107777 0.506702662
v -0.00764257973 0.675151646 0.546461999
v -0.00621748064 1.19822192 0.513127625
v -0.00622043107 1.19823134 0.540940523
v -0.00513924239 0.636240602 0.546773314
v -0.00622071372 0.0949211195 0.540939987
v 0.0215318743 0.0949208736 0.540940225
v 0.0201604404 0.636240542 0.546773314
v 0.0201604404 0.636240542 0.546773314
v 0.0215318743 0.0949208736 0.540940225
v 0.0215290003 0.0949299783 0.5131284
v 0.0186193604 0.63627094 0.506376803
v 0.0212181415 0.675108016 0.506702542
v 0.0226628259 0.675151825 0.546462059
v 0.0215312149 1.19823158 0.540940762
v 0.0215282254 1.19822204 0.513127685
v 0.0186193604 0.63627094 0.506376803
v 0.0215290003 0.0949299783 0.5131284
v -0.00621786807 0.0949302241 0.513128281
v -0.00359949702 0.636271238 0.506376863
v -0.00360668707 0.627207279 -0.0201945305
v -0.00621891301 0.0949280336 -0.0138159944
v -0.00621895818 0.0949279889 0.0139963897
v -0.00597681617 0.627288759 0.0200816412
v -0.00342018716 0.666141331 0.0204028394
v -0.0056239753 0.66605413 -0.0199375767
v -0.00621905504 1.19822931 -0.0138160437
v -0.0062191207 1.19822931 0.0139964204
v -0.00597681617 0.627288759 0.0200816412
v -0.00621895818 0.0949279889 0.0139963897
v 0.0215303712 0.0949279889 0.0139963906
v 0.0214242507 0.627288759 0.0200813971
v 0.0214242507 0.627288759 0.0200813971
v 0.0215303712 0.0949279889 0.0139963906
v 0.0215303116 0.0949280336 -0.0138160037
v 0.0190526918 0.627207279 -0.0201945305
v 0.0188675262 0.666141391 0.0204025842
v 0.0210699402 0.66605413 -0.0199375786
v 0.0215301514 1.19822931 0.0139964223
v 0.0215300824 1.19822931 -0.0138160437
v 0.0190526918 0.627207279 -0.0201945305
v 0.0215303116 0.0949280336 -0.0138160037
v -0.00621891301 0.0949280336 -0.0138159944
v -0.00360668707 0.627207279 -0.0201945305
v -0.00716726808 0.619684696 -0.546307385
v -0.00622007949 0.0949254036 -0.5407601
v -0.00621718867 0.0949348062 -0.512947202
v -0.00589890033 0.619724691 -0.506501377
v -0.00502216909 0.658590078 -0.546570122
v -0.00362991868 0.65856564 -0.506221116
v -0.0062206029 1.19823587 -0.540759683
v -0.00621778285 1.19822669 -0.512947679
v -0.00589890033 0.619724691 -0.506501377
v -0.00621718867 0.0949348062 -0.512947202
v 0.0215287823 0.0949347988 -0.512947083
v 0.021347193 0.619724691 -0.506501377
v 0.021347193 0.619724691 -0.506501377
v 0.0215287823 0.0949347988 -0.512947083
v 0.0215316769 0.0949254036 -0.54076004
v 0.0226160567 0.619684696 -0.546307385
v 0.0190781541 0.658565581 -0.506221056
v 0.0204709768 0.658590138 -0.546570122
v 0.0215289965 1.19822669 -0.512947619
v 0.0215318203 1.19823587 -0.540759623
v 0.0226160567 0.619684696 -0.546307385
v 0.0215316769 0.0949254036 -0.54076004
v -0.00622007949 0.0949254036 -0.5407601
v -0.00716726808 0.619684696 -0.546307385
v -0.0056239753 0.66605413 -0.0199375767
v -0.00362991868 0.65856564 -0.506221116
v -0.00589890033 0.619724691 -0.506501377
v -0.00360668707 0.627207279 -0.0201945305
v -0.00360668707 0.627207279 -0.0201945305
v -0.00589890033 0.619724691 -0.506501377
v 0.021347193 0.619724691 -0.506501377
v 0.0190526918 0.627207279 -0.0201945305
v 0.0190526918 0.627207279 -0.0201945305
v 0.021347193 0.619724691 -0.506501377
v 0.0190781541 0.658565581 -0.506221056
v 0.0210699402 0.66605413 -0.0199375786
v 0.0210699402 0.66605413 -0.0199375786
v 0.0190781541 0.658565581 -0.506221056
v -0.00362991868 0.65856564 -0.506221116
v -0.0056239753 0.66605413 -0.0199375767
v -0.00622043107 1.19823134 0.540940523
v -0.00764257973 0.675151646 0.546461999
v 0.0226628259 0.675151825 0.546462059
v 0.0215312149 1.19823158 0.540940762
v 0.0215282254 1.19822204 0.513127685
v 0.0212181415 0.675108016 0.506702542
v -0.0061985068 0.675107777 0.506702662
v -0.00621748064 1.19822192 0.513127625
v -0.0062191207 1.19822931 0.0139964204
v -0.00342018716 0.666141331 0.0204028394
v 0.0188675262 0.666141391 0.0204025842
v 0.0215301514 1.19822931 0.0139964223
v 0.0215300824 1.19822931 -0.0138160437
v 0.0210699402 0.66605413 -0.0199375786
v -0.0056239753 0.66605413 -0.0199375767
v -0.00621905504 1.19822931 -0.0138160437
v -0.00621778285 1.19822669 -0.512947679
v -0.00362991868 0.65856564 -0.506221116
v 0.0190781541 0.658565581 -0.506221056
v 0.0215289965 1.19822669 -0.512947619
v 0.0215318203 1.19823587 -0.540759623
v 0.0204709768 0.658590138 -0.546570122
v -0.00502216909 0.658590078 -0.546570122
v -0.0062206029 1.19823587 -0.540759683
v -0.00506873429 0.659415603 1.05229366
v -0.00764257973 0.675151646 0.546461999
v -0.00513924239 0.636240602 0.546773314
v -0.00514901849 0.633828759 1.05255163
v -0.0061985068 0.675107777 0.506702662
v -0.00342018716 0.666141331 0.0204028394
v -0.00597681617 0.627288759 0.0200816412
v -0.00359949702 0.636271238 0.506376863
v -0.00507560186 0.633750081 -1.05213678
v -0.00716726808 0.619684696 -0.546307385
v -0.00502216909 0.658590078 -0.546570122
v -0.00514104078 0.659336329 -1.0523473
v -0.00514901849 0.633828759 1.05255163
v -0.00513924239 0.636240602 0.546773314
v 0.0201604404 0.636240542 0.546773314
v 0.0204598717 0.633828759 1.05255187
v -0.00359949702 0.636271238 0.506376863
v -0.00597681617 0.627288759 0.0200816412
v 0.0214242507 0.627288759 0.0200813971
v 0.0186193604 0.63627094 0.506376803
v 0.0203871559 0.633750081 -1.05213678
v 0.0226160567 0.619684696 -0.546307385
v -0.00716726808 0.619684696 -0.546307385
v -0.00507560186 0.633750081 -1.05213678
v 0.0204598717 0.633828759 1.05255187
v 0.0201604404 0.636240542 0.546773314
v 0.0226628259 0.675151825 0.546462059
v 0.0203795098 0.659415662 1.05229402
v 0.0186193604 0.63627094 0.506376803
v 0.0214242507 0.627288759 0.0200813971
v 0.0188675262 0.666141391 0.0204025842
v 0.0212181415 0.675108016 0.506702542
v 0.0204525944 0.659336329 -1.0523473
v 0.0204709768 0.658590138 -0.546570122
v 0.0226160567 0.619684696 -0.546307385
v 0.0203871559 0.633750081 -1.05213678
v 0.0203795098 0.659415662 1.05229402
v 0.0226628259 0.675151825 0.546462059
v -0.00764257973 0.675151646 0.546461999
v -0.00506873429 0.659415603 1.05229366
v 0.0212181415 0.675108016 0.506702542
v 0.0188675262 0.666141391 0.0204025842
v -0.00342018716 0.666141331 0.0204028394
v -0.0061985068 0.675107777 0.506702662
v -0.00514104078 0.659336329 -1.0523473
v -0.00502216909 0.658590078 -0.546570122
v 0.0204709768 0.658590138 -0.546570122
v 0.0204525944 0.659336329 -1.0523473
vn 0.997403204 -0.0509247258 0.0509250201
vn 0.997403204 -0.0509247296 0.0509250239
vn 0.997403204 0.0509250164 0.0509250239
vn 0.997403204 0.0509250127 0.0509250164
vn 5.86876808E-07 0 1
vn 5.86876808E-07 0 1
vn 5.86876808E-07 0 1
vn 5.86876808E-07 0 1
vn -0.997403324 -0.0509248339 0.0509242676
vn -0.997403324 -0.0509247631 0.0509243384
vn -0.997403324 0.0509243719 0.0509242788
vn -0.997403324 0.0509243757 0.0509242788
vn 0.997403204 0.0509250127 0.0509250164
vn 0.997403204 0.0509250164 0.0509250239
vn 0.997403204 0.0509250239 -0.0509245768
vn 0.997403204 0.0509249568 -0.0509246513
vn 0 1 0
vn 0 1 0
vn 0 1 0
vn 0 1 0
vn -0.997403324 0.0509243757 0.0509242788
vn -0.997403324 0.0509243719 0.0509242788
vn -0.997403324 0.0509243198 -0.0509247966
vn -0.997403324 0.0509243906 -0.0509247333
vn 0.997403204 0.0509249568 -0.0509246513
vn 0.997403204 0.0509250239 -0.0509245768
vn 0.997403204 -0.0509247519 -0.0509245656
vn 0.997403204 -0.0509246178 -0.0509247035
vn 0 0 -1
vn 0 0 -1
vn 0 0 -1
vn 0 0 -1
vn -0.997403324 0.0509243906 -0.0509247333
vn -0.997403324 0.0509243198 -0.0509247966
vn -0.997403204 -0.0509247184 -0.050924845
vn -0.997403204 -0.050924845 -0.0509247109
vn 0.997403204 -0.0509246178 -0.0509247035
vn 0.997403204 -0.0509247519 -0.0509245656
vn 0.997403204 -0.0509247296 0.0509250239
vn 0.997403204 -0.0509247258 0.0509250201
vn 0 -1 0
vn 0 -1 0
vn 0 -1 0
vn 0 -1 0
vn -0.997403204 -0.050924845 -0.0509247109
vn -0.997403204 -0.0509247184 -0.050924845
vn -0.997403324 -0.0509247631 0.0509243384
vn -0.997403324 -0.0509248339 0.0509242676
vn -0.999587119 -0.0207312908 -0.0198976509
vn -0.999738634 0.00339729642 -0.0226080641
vn -0.999738634 0.00339729642 -0.0226080641
vn -0.999262393 -0.0332507156 -0.0192079134
vn -0.999565065 -0.0218505953 -0.0198032819
vn -0.999241114 -0.0339557305 -0.0190837495
vn -0.999769866 0.00135939964 -0.0214106049
vn -0.999769866 0.00135939964 -0.0214106049
vn -5.08882522E-06 -0.0107753081 0.999941945
vn -5.08882522E-06 -0.0107753091 0.999941945
vn -5.08882613E-06 -0.01077531 0.999941945
vn -5.08882567E-06 -0.01077531 0.999941945
vn 0.999264657 -0.0330637842 -0.0194153804
vn 0.999736249 0.0039339764 -0.0226276312
vn 0.999736249 0.0039339764 -0.0226276312
vn 0.999596417 -0.0205502734 -0.0196143929
vn 0.999566615 -0.02203108 -0.0195241421
vn 0.999231219 -0.0341323465 -0.0192825776
vn 0.999770224 0.00080357882 -0.0214196742
vn 0.999770224 0.00080357882 -0.0214196742
vn -1.26918735E-07 -0.0124708703 -0.999922276
vn -1.26918749E-07 -0.0124708703 -0.999922276
vn -1.26918735E-07 -0.0124708703 -0.999922276
vn -1.26918749E-07 -0.0124708703 -0.999922276
vn -0.999917388 0.00428079674 -0.0121245673
vn -0.99939096 0.00266984594 -0.0347921625
vn -0.99939096 0.00266984617 -0.0347921625
vn -0.999918222 0.00305550615 -0.0124168796
vn -0.999950647 0.001061438 0.00987840537
vn -0.999945879 0.00235653622 0.0101355091
vn -0.999472439 -0.00317873876 0.032321997
vn -0.999472439 -0.00317873899 0.032321997
vn 4.38805864E-06 -0.011429715 0.999934673
vn 4.38805864E-06 -0.011429714 0.999934673
vn 4.38805819E-06 -0.0114297159 0.999934673
vn 4.38805864E-06 -0.011429715 0.999934673
vn 0.999921799 0.0029705991 -0.0121454997
vn 0.99939096 0.00241579092 -0.0348131843
vn 0.99939096 0.00241579092 -0.0348131843
vn 0.999917507 0.00419770041 -0.0121415388
vn 0.999947786 0.00114531291 0.0101580545
vn 0.999945879 0.00244233641 0.0101184826
vn 0.99947387 -0.00292402273 0.0323016569
vn 0.99947387 -0.00292402273 0.0323016532
vn -1.88365149E-07 -0.0119825704 -0.999928236
vn -1.88365163E-07 -0.0119825713 -0.999928236
vn -1.88365163E-07 -0.0119825713 -0.999928236
vn -1.88365163E-07 -0.0119825713 -0.999928236
vn -0.99942112 0.0294919405 0.0169624574
vn -0.999823153 -0.000615196652 0.0187974572
vn -0.999823153 -0.000615196652 0.0187974572
vn -0.999647021 0.0199823063 0.0175091941
vn -0.999443471 0.0285123121 0.0173142198
vn -0.999665618 0.0187260583 0.0178324077
vn -0.999784529 -0.00348995952 0.0204611551
vn -0.999784529 -0.00348995952 0.0204611551
vn -1.38781365E-06 -0.0122816479 0.999924541
vn -1.38781365E-06 -0.012281647 0.999924541
vn -1.38781354E-06 -0.012281647 0.999924541
vn -1.38781365E-06 -0.012281647 0.999924541
vn 0.999648571 0.0198961236 0.0175178088
vn 0.999822795 -0.000876114063 0.0188050289
vn 0.999822795 -0.000876114005 0.0188050251
vn 0.999425054 0.029404277 0.0168804061
vn 0.99966383 0.0188106522 0.0178411976
vn 0.999442518 0.0285960902 0.0172303412
vn 0.999785244 -0.00323557737 0.0204696879
vn 0.999785244 -0.00323557691 0.0204696897
vn 1.3249969E-06 -0.0105706034 -0.99994421
vn 1.32499713E-06 -0.0105706044 -0.99994421
vn 1.32499702E-06 -0.0105706053 -0.99994421
vn 1.32499702E-06 -0.0105706053 -0.99994421
vn -0.999945879 0.00235653622 0.0101355091
vn -0.999665618 0.0187260583 0.0178324077
vn -0.999647021 0.0199823063 0.0175091941
vn -0.999917388 0.00428079674 -0.0121245673
vn 0 -0.999881625 0.01538477
vn 0 -0.999881625 0.01538477
vn 0 -0.999881625 0.01538477
vn 0 -0.999881625 0.01538477
vn 0.999917507 0.00419770041 -0.0121415388
vn 0.999648571 0.0198961236 0.0175178088
vn 0.99966383 0.0188106522 0.0178411976
vn 0.999945879 0.00244233641 0.0101184826
vn 1.56787621E-06 0.999881506 -0.0153976632
vn 1.5678761E-06 0.999881506 -0.0153976632
vn 1.5678761E-06 0.999881506 -0.0153976642
vn 1.5678761E-06 0.999881506 -0.0153976642
vn -4.66629081E-06 0.0105549246 0.999944329
vn -4.66629081E-06 0.0105549246 0.999944329
vn -4.66629172E-06 0.0105549255 0.999944329
vn -4.66629172E-06 0.0105549246 0.999944329
vn -1.48049219E-06 0.0122813229 -0.99992466
vn -1.4804923E-06 0.0122813238 -0.99992466
vn -1.4804923E-06 0.0122813238 -0.99992466
vn -1.4804923E-06 0.0122813238 -0.99992466
vn 5.05741718E-06 0.0120390374 0.999927521
vn 5.05741764E-06 0.0120390384 0.999927521
vn 5.05741764E-06 0.0120390365 0.999927521
vn 5.05741673E-06 0.0120390365 0.999927521
vn 0 0.0115020927 -0.999933839
vn 0 0.0115020927 -0.999933839
vn 0 0.0115020927 -0.999933839
vn 0 0.0115020936 -0.999933839
vn -3.00489728E-06 0.0124634653 0.999922395
vn -3.00489728E-06 0.0124634653 0.999922395
vn -3.00489705E-06 0.0124634663 0.999922395
vn -3.00489728E-06 0.0124634663 0.999922395
vn 1.41547332E-06 0.0107665686 -0.999942064
vn 1.41547332E-06 0.0107665686 -0.999942064
vn 1.41547332E-06 0.0107665686 -0.999942064
vn 1.41547332E-06 0.0107665695 -0.999942064
vn -0.999293923 -0.0375250131 0.00185966643
vn -0.999241114 -0.0339557305 -0.0190837495
vn -0.999262393 -0.0332507156 -0.0192079134
vn -0.999293923 -0.0375250131 0.00185966666
vn -0.999565065 -0.0218505953 -0.0198032819
vn -0.999950647 0.001061438 0.00987840537
vn -0.999918222 0.00305550615 -0.0124168796
vn -0.999587119 -0.0207312908 -0.0198976509
vn -0.999479711 0.0322193652 -0.00147740101
vn -0.99942112 0.0294919405 0.0169624574
vn -0.999443471 0.0285123121 0.0173142198
vn -0.999479711 0.032219369 -0.00147740112
vn -7.24087045E-07 -0.999988675 -0.00476848334
vn -7.24086988E-07 -0.999988675 -0.00476848381
vn -7.24086931E-07 -0.999988675 -0.00476848381
vn -7.24086988E-07 -0.999988675 -0.00476848381
vn -5.27139628E-06 -0.999829412 0.0184677914
vn -5.27139628E-06 -0.999829412 0.0184677914
vn -5.27139673E-06 -0.999829412 0.0184677932
vn -5.27139582E-06 -0.999829412 0.0184677914
vn 0 -0.999613702 -0.0277957916
vn 0 -0.999613702 -0.0277957898
vn 0 -0.999613702 -0.0277957898
vn 0 -0.999613702 -0.0277957898
vn 0.999295235 -0.0375140086 0.00128674507
vn 0.999264657 -0.0330637842 -0.0194153804
vn 0.999231219 -0.0341323465 -0.0192825776
vn 0.999295235 -0.0375140123 0.00128674507
vn 0.999596417 -0.0205502734 -0.0196143929
vn 0.999921799 0.0029705991 -0.0121454997
vn 0.999947786 0.00114531291 0.0101580545
vn 0.999566615 -0.02203108 -0.0195241421
vn 0.999479353 0.0322170407 -0.0017486345
vn 0.999442518 0.0285960902 0.0172303412
vn 0.999425054 0.029404277 0.0168804061
vn 0.999479353 0.0322170407 -0.00174863462
vn -4.29929969E-06 0.999516487 0.0310943518
vn -4.29929969E-06 0.999516487 0.0310943518
vn -4.29929969E-06 0.999516487 0.0310943518
vn -4.29930014E-06 0.999516487 0.0310943555
vn -6.28015823E-06 0.999830008 -0.0184351224
vn -6.28015778E-06 0.999830008 -0.0184351224
vn -6.28015778E-06 0.999830008 -0.0184351224
vn -6.28015823E-06 0.999830008 -0.0184351224
vn -1.49342918E-06 0.999998927 0.00147533766
vn -1.49342895E-06 0.999998927 0.00147533766
vn -1.49342907E-06 0.999998927 0.00147533766
vn -1.49342884E-06 0.999998927 0.00147533766
vt 0.118833005 0.784210086
vt 0.120237209 0.782930076
vt 0.120237187 0.753727317
vt 0.118832991 0.752447426
vt 0.120237209 0.782930076
vt 0.122171313 0.782930076
vt 0.12217129 0.753727317
vt 0.120237187 0.753727317
vt 0.122171313 0.782930076
vt 0.123575523 0.784209967
vt 0.123575501 0.752447426
vt 0.12217129 0.753727317
vt 0.102278896 0.874131918
vt 0.103654817 0.872774184
vt 0.103654824 0.817615926
vt 0.102278896 0.816258073
vt 0.103654817 0.872774184
vt 0.105541065 0.872774184
vt 0.10554108 0.817615926
vt 0.103654824 0.817615926
vt 0.105541065 0.872774184
vt 0.106916964 0.874131918
vt 0.106916972 0.816258073
vt 0.10554108 0.817615926
vt 0.124285474 0.815149665
vt 0.122881293 0.816429615
vt 0.122881286 0.845633864
vt 0.12428546 0.846913815
vt 0.122881293 0.816429615
vt 0.120947398 0.816429615
vt 0.120947391 0.845633864
vt 0.122881286 0.845633864
vt 0.120947398 0.816429615
vt 0.119543202 0.815149665
vt 0.11954318 0.846913815
vt 0.120947391 0.845633864
vt 0.112392046 0.815637589
vt 0.111016192 0.816995382
vt 0.111016192 0.87215668
vt 0.112392023 0.873514533
vt 0.111016192 0.816995382
vt 0.109130114 0.816995382
vt 0.109130114 0.87215668
vt 0.111016192 0.87215668
vt 0.109130114 0.816995382
vt 0.107754208 0.815637589
vt 0.107754208 0.873514533
vt 0.109130114 0.87215668
vt 0.0950052887 0.850751102
vt 0.0949171931 0.836694539
vt 0.0935887694 0.836690605
vt 0.0933681354 0.850722313
vt 0.095005773 0.852313101
vt 0.0933686197 0.852342606
vt 0.0949172974 0.865892053
vt 0.0935892388 0.865895867
vt 0.0988317579 0.850493073
vt 0.0987643003 0.836627543
vt 0.0976499841 0.836668491
vt 0.0978234857 0.850744188
vt 0.0978234857 0.850744188
vt 0.0976499841 0.836668491
vt 0.096285753 0.836690605
vt 0.096200414 0.85074836
vt 0.0962002054 0.852317035
vt 0.0978232473 0.852321863
vt 0.0976493508 0.865919292
vt 0.0962854996 0.865896702
vt 0.096200414 0.85074836
vt 0.096285753 0.836690605
vt 0.0949171931 0.836694539
vt 0.0950052887 0.850751102
vt 0.0889513269 0.85065639
vt 0.088869065 0.836817205
vt 0.0875400007 0.836812794
vt 0.0873115435 0.850626528
vt 0.0872985274 0.852248132
vt 0.0889512822 0.852220178
vt 0.088891916 0.866054654
vt 0.0876349136 0.866060853
vt 0.0927855372 0.850398719
vt 0.0927232429 0.836749136
vt 0.091623269 0.836790204
vt 0.0917714834 0.850647509
vt 0.0917714834 0.850647509
vt 0.091623269 0.836790204
vt 0.0902481973 0.836812198
vt 0.0901471898 0.850652337
vt 0.0917773247 0.852226496
vt 0.0901516303 0.852222562
vt 0.0916105136 0.866079509
vt 0.0902490839 0.866058946
vt 0.0901471898 0.850652337
vt 0.0902481973 0.836812198
vt 0.088869065 0.836817205
vt 0.0889513269 0.85065639
vt 0.120434657 0.798753381
vt 0.120367602 0.785130918
vt 0.119035333 0.785126865
vt 0.118797854 0.798724353
vt 0.120435558 0.800315976
vt 0.11879757 0.800344884
vt 0.120356783 0.81433028
vt 0.119030818 0.814333379
vt 0.124265358 0.798498929
vt 0.124202423 0.785066426
vt 0.123101406 0.785106838
vt 0.123252973 0.798747659
vt 0.123252973 0.798747659
vt 0.123101406 0.785106838
vt 0.12172962 0.785126746
vt 0.121631108 0.798750639
vt 0.123251662 0.800324559
vt 0.121629886 0.800320148
vt 0.123099573 0.814356327
vt 0.121727273 0.814335406
vt 0.121631108 0.798750639
vt 0.12172962 0.785126746
vt 0.120367602 0.785130918
vt 0.120434657 0.798753381
vt 0.122194074 0.847708225
vt 0.122194283 0.859989226
vt 0.123445459 0.86000675
vt 0.123445377 0.847725809
vt 0.123445377 0.847725809
vt 0.123445459 0.86000675
vt 0.124507591 0.860008776
vt 0.12450739 0.847727835
vt 0.119682252 0.847726285
vt 0.119681701 0.860007226
vt 0.120933101 0.859989464
vt 0.120933361 0.847708344
vt 0.120933361 0.847708344
vt 0.120933101 0.859989464
vt 0.122194283 0.859989226
vt 0.122194074 0.847708225
vt 0.0987635031 0.865960538
vt 0.0988306627 0.852573574
vt 0.0978232473 0.852321863
vt 0.0976493508 0.865919292
vt 0.0962854996 0.865896702
vt 0.0962002054 0.852317035
vt 0.095005773 0.852313101
vt 0.0949172974 0.865892053
vt 0.0927224755 0.866120219
vt 0.0927881375 0.852476299
vt 0.0917773247 0.852226496
vt 0.0916105136 0.866079509
vt 0.0902490839 0.866058946
vt 0.0901516303 0.852222562
vt 0.0889512822 0.852220178
vt 0.088891916 0.866054654
vt 0.124200754 0.814397156
vt 0.124263011 0.800572813
vt 0.123251662 0.800324559
vt 0.123099573 0.814356327
vt 0.121727273 0.814335406
vt 0.121629886 0.800320148
vt 0.120435558 0.800315976
vt 0.120356783 0.81433028
vt 0.0664075091 0.854340911
vt 0.0527197421 0.854343295
vt 0.0527407043 0.855546057
vt 0.0664280504 0.855548561
vt 0.0523860641 0.854249418
vt 0.0397452936 0.854249299
vt 0.039723251 0.855464935
vt 0.0523640253 0.855464935
vt 0.123560898 0.873950303
vt 0.123558581 0.860652089
vt 0.122320555 0.860668361
vt 0.122318149 0.873966217
vt 0.0664280504 0.855548561
vt 0.0527407043 0.855546057
vt 0.0527431741 0.856571555
vt 0.0664305612 0.856556714
vt 0.0523640253 0.855464935
vt 0.039723251 0.855464935
vt 0.0397206359 0.856497109
vt 0.0523614362 0.856496632
vt 0.124598399 0.873948395
vt 0.124613613 0.860650182
vt 0.123558581 0.860652089
vt 0.123560898 0.873950303
vt 0.0664308891 0.851944685
vt 0.0527435616 0.85190922
vt 0.0527200215 0.853124738
vt 0.0664077699 0.853139579
vt 0.0523635112 0.85180825
vt 0.0397227556 0.851808727
vt 0.039745152 0.853024185
vt 0.0523859411 0.853024185
vt 0.121081777 0.873966217
vt 0.12106654 0.860668242
vt 0.119815633 0.860653877
vt 0.119851872 0.873952091
vt 0.0664077699 0.853139579
vt 0.0527200215 0.853124738
vt 0.0527197421 0.854343295
vt 0.0664075091 0.854340911
vt 0.0523859411 0.853024185
vt 0.039745152 0.853024185
vt 0.0397452936 0.854249299
vt 0.0523860641 0.854249418
vt 0.122318149 0.873966217
vt 0.122320555 0.860668361
vt 0.12106654 0.860668242
vt 0.121081777 0.873966217
g submesh0
f 1/1/1 2/2/2 3/3/3
f 1/1/1 3/3/3 4/4/4
f 5/5/5 6/6/6 7/7/7
f 5/5/5 7/7/7 8/8/8
f 9/9/9 10/10/10 11/11/11
f 9/9/9 11/11/11 12/12/12
f 13/13/13 14/14/14 15/15/15
f 13/13/13 15/15/15 16/16/16
f 17/17/17 18/18/18 19/19/19
f 17/17/17 19/19/19 20/20/20
f 21/21/21 22/22/22 23/23/23
f 21/21/21 23/23/23 24/24/24
f 25/25/25 26/26/26 27/27/27
f 25/25/25 27/27/27 28/28/28
f 29/29/29 30/30/30 31/31/31
f 29/29/29 31/31/31 32/32/32
f 33/33/33 34/34/34 35/35/35
f 33/33/33 35/35/35 36/36/36
f 37/37/37 38/38/38 39/39/39
f 37/37/37 39/39/39 40/40/40
f 41/41/41 42/42/42 43/43/43
f 41/41/41 43/43/43 44/44/44
f 45/45/45 46/46/46 47/47/47
f 45/45/45 47/47/47 48/48/48
f 49/49/49 50/50/50 51/51/51
f 49/49/49 51/51/51 52/52/52
f 53/53/53 49/49/49 52/52/52
f 53/53/53 52/52/52 54/54/54
f 55/55/55 53/53/53 54/54/54
f 55/55/55 54/54/54 56/56/56
f 57/57/57 58/58/58 59/59/59
f 57/57/57 59/59/59 60/60/60
f 61/61/61 62/62/62 63/63/63
f 61/61/61 63/63/63 64/64/64
f 65/65/65 61/61/61 64/64/64
f 65/65/65 66/66/66 61/61/61
f 67/67/67 66/66/66 65/65/65
f 67/67/67 65/65/65 68/68/68
f 69/69/69 70/70/70 71/71/71
f 69/69/69 71/71/71 72/72/72
f 73/73/73 74/74/74 75/75/75
f 73/73/73 75/75/75 76/76/76
f 73/73/73 76/76/76 77/77/77
f 73/73/73 77/77/77 78/78/78
f 79/79/79 78/78/78 77/77/77
f 79/79/79 77/77/77 80/80/80
f 81/81/81 82/82/82 83/83/83
f 81/81/81 83/83/83 84/84/84
f 85/85/85 86/86/86 87/87/87
f 85/85/85 87/87/87 88/88/88
f 88/88/88 89/89/89 85/85/85
f 88/88/88 90/90/90 89/89/89
f 91/91/91 89/89/89 90/90/90
f 91/91/91 90/90/90 92/92/92
f 93/93/93 94/94/94 95/95/95
f 93/93/93 95/95/95 96/96/96
f 97/97/97 98/98/98 99/99/99
f 97/97/97 99/99/99 100/100/100
f 101/101/101 97/97/97 100/100/100
f 101/101/101 100/100/100 102/102/102
f 103/103/103 101/101/101 102/102/102
f 103/103/103 102/102/102 104/104/104
f 105/105/105 106/106/106 107/107/107
f 105/105/105 107/107/107 108/108/108
f 109/109/109 110/110/110 111/111/111
f 109/109/109 111/111/111 112/112/112
f 112/112/112 113/113/113 109/109/109
f 112/112/112 114/114/114 113/113/113
f 115/115/115 113/113/113 114/114/114
f 115/115/115 114/114/114 116/116/116
f 117/117/117 118/118/118 119/119/119
f 117/117/117 119/119/119 120/120/120
f 121/121/121 122/122/122 123/123/123
f 121/121/121 123/123/123 124/124/124
f 125/125/125 126/126/126 127/127/127
f 125/125/125 127/127/127 128/128/128
f 129/129/129 130/130/130 131/131/131
f 129/129/129 131/131/131 132/132/132
f 133/133/133 134/134/134 135/135/135
f 133/133/133 135/135/135 136/136/136
f 137/137/137 138/138/138 139/139/139
f 137/137/137 139/139/139 140/140/140
f 141/141/141 142/142/142 143/143/143
f 141/141/141 143/143/143 144/144/144
f 145/145/145 146/146/146 147/147/147
f 145/145/145 147/147/147 148/148/148
f 149/149/149 150/150/150 151/151/151
f 149/149/149 151/151/151 152/152/152
f 153/153/153 154/154/154 155/155/155
f 153/153/153 155/155/155 156/156/156
f 157/157/157 158/158/158 159/159/159
f 157/157/157 159/159/159 160/160/160
f 161/161/161 162/162/162 163/163/163
f 161/161/161 163/163/163 164/164/164
f 165/165/165 166/166/166 167/167/167
f 165/165/165 167/167/167 168/168/168
f 169/169/169 170/170/170 171/171/171
f 169/169/169 171/171/171 172/172/172
f 173/173/173 174/174/174 175/175/175
f 173/173/173 175/175/175 176/176/176
f 177/177/177 178/178/178 179/179/179
f 177/177/177 179/179/179 180/180/180
f 181/181/181 182/182/182 183/183/183
f 181/181/181 183/183/183 184/184/184
f 185/185/185 186/186/186 187/187/187
f 185/185/185 187/187/187 188/188/188
f 189/189/189 190/190/190 191/191/191
f 189/189/189 191/191/191 192/192/192
f 193/193/193 194/194/194 195/195/195
f 193/193/193 195/195/195 196/196/196
f 197/197/197 198/198/198 199/199/199
f 197/197/197 199/199/199 200/200/200
f 201/201/201 202/202/202 203/203/203
f 201/201/201 203/203/203 204/204/204
f 205/205/205 206/206/206 207/207/207
f 205/205/205 207/207/207 208/208/208
