# wall.doorway.collision
v -0.1020578 2.19770646 -0.591134429
v 0.0999975577 0.125299007 -0.591134369
v 0.0999975577 2.19770646 -0.591134429
v -0.1020578 0.125299007 -0.591134369
v 0.0999975577 0.125299007 0.601498485
v -0.1020578 0.125299007 0.601498485
v -0.1020578 1.94927963E-14 -1.50000119
v -0.1020578 1.93090986E-14 1.49999869
v -0.1020578 3.00000429 -1.50000107
v -0.1020578 2.19770646 0.601498425
v -0.1020578 3.00000429 1.49999893
v 0.0999975577 2.19770646 0.601498425
v 0.0999975577 2.19770646 -0.591134429
v 0.0999975577 1.94927963E-14 -1.50000119
v 0.0999975577 0.125299007 -0.591134369
v 0.0999975577 1.93090986E-14 1.49999869
v 0.0999975577 0.125299007 0.601498485
v 0.0999975577 2.19770646 0.601498425
v 0.0999975577 3.00000429 1.49999869
v 0.0999975577 3.00000429 -1.50000119
v -0.00103027339 3.00000429 1.50499904
v -0.00103027339 3.00000429 -1.50500119
v -0.00103027339 1.52587901E-07 -1.50500119
v -0.00103027339 1.9308792E-14 1.50499904
v -0.1020578 1.94927963E-14 -1.50000119
v -0.1020578 1.93090986E-14 1.49999869
v -0.1020578 3.00000429 -1.50000107
v -0.1020578 3.00000429 1.49999893
g submesh0
f 1 2 3
f 1 4 2
f 4 5 2
f 4 6 5
f 1 7 4
f 7 6 4
f 7 8 6
f 1 9 7
f 10 5 6
f 8 10 6
f 9 1 10
f 8 11 10
f 9 10 11
f 10 12 5
f 12 10 1
f 12 1 13
f 14 13 15
f 15 16 14
f 15 17 16
f 18 16 17
f 19 18 13
f 18 19 16
f 19 13 20
f 14 20 13
f 20 21 19
f 16 19 21
f 14 22 20
f 20 22 21
f 23 14 16
f 14 23 22
f 23 16 24
f 16 21 24
f 25 23 24
f 25 22 23
f 25 24 26
f 26 24 21
f 25 27 22
f 26 21 28
f 22 27 28
f 22 28 21
