# wall.corner.L_foundation.collision
v 0.232651979 -0.00253753667 -1.72314465
v -0.31752196 -0.00253753667 -1.1823833
v -0.31752196 -0.00253753667 -1.71332502
v 0.222644031 -0.00253753667 -1.1823833
v 0.109728999 1.00876498 -1.1823833
v 0.100002438 -0.00253784168 -1.1823833
v 0.109728999 1.00876498 -1.59739053
v 0.0779272467 -0.00253753667 -1.57747018
v 0.0779272467 1.00876498 -1.57747018
v 0.0779272467 2.08033442 -1.57747018
v 0.109728999 2.08033442 -1.59739053
v 0.0779272467 3.11960912 -1.57747018
v 0.109728999 2.08033442 -1.1823833
v 0.149728999 3.11960912 -1.63562727
v 0.149728999 3.11960912 -1.1823833
v -0.317523181 3.11960745 -1.18238389
v -0.31752196 3.11960912 -1.63562727
g submesh0
f 1 2 3
f 1 4 2
f 1 5 4
f 4 5 6
f 1 7 5
f 8 7 1
f 8 9 7
f 10 7 9
f 11 5 7
f 10 11 7
f 12 11 10
f 11 13 5
f 12 14 11
f 14 13 11
f 14 15 13
f 13 15 16
f 14 16 15
f 14 17 16
