# wall.third.collision
v -0.100005127 1.00091815 -1.50000012
v -0.100004591 1.29938098E-06 1.49999857
v -0.100005418 1.00083518 1.49999857
v -0.0031343475 1.00134134 -1.505
v -0.00313480222 0.999534607 1.5049988
v -0.10000433 8.034703E-07 -1.50000012
v -0.00313480222 1.33752792E-06 1.5049988
v -0.0031343475 8.79764229E-07 -1.505
v 0.100261942 0.998234093 1.49999857
v 0.100262746 1.10864607E-06 -1.50000012
v 0.100262672 1.00176454 -1.50000012
v 0.100262009 1.41382191E-06 1.49999857
vn -0.588500738 0.58053261 -0.56271553
vn -0.5906232 -0.580111086 0.560923696
vn -0.590282321 0.582592845 0.558706045
vn 0.00198322325 0.69627744 -0.71776998
vn 0.00158792175 0.695731997 0.718299747
vn -0.590622246 -0.580111027 -0.56092459
vn -0.0011661672 -0.696040392 0.718001664
vn -0.00116591027 -0.696041346 -0.71800077
vn 0.590161741 0.577241898 0.56435889
vn 0.589802086 -0.579933167 -0.561970592
vn 0.591740847 0.579897881 -0.559965432
vn 0.589802861 -0.579933465 0.561969578
g submesh0
f 1//1 2//2 3//3
f 3//3 4//4 1//1
f 2//2 5//5 3//3
f 3//3 5//5 4//4
f 1//1 6//6 2//2
f 2//2 7//7 5//5
f 6//6 7//7 2//2
f 8//8 6//6 1//1
f 8//8 1//1 4//4
f 6//6 8//8 7//7
f 9//9 4//4 5//5
f 7//7 9//9 5//5
f 10//10 7//7 8//8
f 10//10 8//8 4//4
f 9//9 11//11 4//4
f 10//10 4//4 11//11
f 10//10 12//12 7//7
f 7//7 12//12 9//9
f 12//12 10//10 11//11
f 12//12 11//11 9//9
