# wall.window_exception_COL
v -0.0895615965 2.23799562 1.08668482
v -0.0895615965 2.23799586 -1.08668029
v 0.0917218849 2.23799586 -1.08668029
v 0.0917218849 2.23799562 1.08668458
v -0.0895615965 2.23799586 -1.08668029
v -0.0895615965 1.06045318 -1.08668053
v 0.0917218849 1.06045318 -1.08668053
v 0.0917218849 2.23799586 -1.08668029
v -0.0895615965 1.06045318 -1.08668053
v -0.0895615667 1.06045306 1.08668435
v 0.0917218849 1.06045282 1.08668435
v 0.0917218849 1.06045318 -1.08668053
v -0.0895615667 1.06045306 1.08668435
v -0.0895615965 2.23799562 1.08668482
v 0.0917218849 2.23799562 1.08668458
v 0.0917218849 1.06045282 1.08668435
v -0.0895615667 1.06045306 1.08668435
v -0.0895615965 8.1008875E-07 -1.49999964
v -0.0895615965 4.1061466E-07 1.49999964
v -0.0895615965 3.00000381 1.49999976
v -0.0895615965 1.06045318 -1.08668053
v -0.0895615965 2.23799562 1.08668482
v -0.0895615965 3.00000453 -1.49999964
v -0.0895615965 2.23799586 -1.08668029
v -0.0895615965 8.1008875E-07 -1.49999964
v -0.0895615965 3.00000453 -1.49999964
v 0.00108398439 3.00000381 -1.50499976
v -0.0895615965 3.00000381 1.49999976
v 0.00108398439 6.58166641E-07 -1.50499964
v -0.0895615965 4.1061466E-07 1.49999964
v 0.00108398439 3.00000358 1.50499892
v 0.00108398439 4.09948882E-07 1.50499964
v 0.0917218849 4.1061466E-07 1.49999964
v 0.0917218849 3.00000381 1.5
v 0.0917218849 8.1008875E-07 -1.49999964
v 0.0917218849 3.00000453 -1.49999952
v 0.0917218849 1.06045318 -1.08668053
v 0.0917218849 1.06045282 1.08668435
v 0.0917218849 2.23799586 -1.08668029
v 0.0917218849 2.23799562 1.08668458
vn 0 -1 -1.33158053E-07
vn 0 -1 -1.33158053E-07
vn 0 -1 -1.33158053E-07
vn 0 -1 -1.33158053E-07
vn 0 -2.62739661E-07 1
vn 0 -2.62739661E-07 1
vn 0 -2.62739661E-07 1
vn 0 -2.62739661E-07 1
vn 4.20854406E-07 1 0
vn 4.20854406E-07 1 0
vn 4.20854406E-07 1 0
vn 4.20854406E-07 1 0
vn -4.20854349E-07 3.27530472E-07 -1
vn -4.20854292E-07 3.27530472E-07 -1
vn -4.20854292E-07 3.27530472E-07 -1
vn -4.20854349E-07 3.27530472E-07 -1
vn -1 0 0
vn -0.591514289 -0.580302894 -0.559785187
vn -0.591512084 -0.580304146 0.559786081
vn -0.591511607 0.580303371 0.559787512
vn -1 0 0
vn -1 0 0
vn -0.59151274 0.580305457 -0.559784114
vn -1 0 0
vn -0.591514289 -0.580302894 -0.559785187
vn -0.59151274 0.580305457 -0.559784114
vn 1.98354746E-06 0.694915414 -0.719091535
vn -0.591511607 0.580303371 0.559787512
vn 1.98166481E-06 -0.694917679 -0.71908921
vn -0.591512084 -0.580304146 0.559786081
vn 1.37209975E-06 0.694919169 0.719087899
vn 1.37362269E-06 -0.694917381 0.719089568
vn 0.591513157 -0.580304563 0.559784651
vn 0.59151262 0.580303431 0.559786379
vn 0.591515779 -0.580303013 -0.559783578
vn 0.591513932 0.580305994 -0.559782267
vn 1 0 0
vn 1 0 0
vn 1 0 0
vn 1 0 0
g submesh0
f 1//1 2//2 3//3
f 1//1 3//3 4//4
f 5//5 6//6 7//7
f 5//5 7//7 8//8
f 9//9 10//10 11//11
f 9//9 11//11 12//12
f 13//13 14//14 15//15
f 13//13 15//15 16//16
f 17//17 18//18 19//19
f 20//20 17//17 19//19
f 17//17 21//21 18//18
f 20//20 22//22 17//17
f 23//23 18//18 21//21
f 20//20 24//24 22//22
f 23//23 21//21 24//24
f 20//20 23//23 24//24
f 25//25 26//26 27//27
f 28//28 27//27 26//26
f 25//25 27//27 29//29
f 30//30 25//25 29//29
f 30//30 31//31 28//28
f 28//28 31//31 27//27
f 30//30 29//29 32//32
f 30//30 32//32 31//31
f 33//33 32//32 29//29
f 33//33 31//31 32//32
f 34//34 27//27 31//31
f 33//33 34//34 31//31
f 35//35 29//29 27//27
f 33//33 29//29 35//35
f 35//35 27//27 36//36
f 34//34 36//36 27//27
f 37//37 33//33 35//35
f 36//36 37//37 35//35
f 37//37 38//38 33//33
f 34//34 33//33 38//38
f 36//36 39//39 37//37
f 34//34 38//38 40//40
f 36//36 34//34 40//40
f 36//36 40//40 39//39
