# wall.half.corner.R.collision
v 0.138383821 -0.00129852875 1.58246636
v 0.082324028 -0.00130127289 1.00000381
v 0.0823239908 1.50005555 1.00000393
v 0.138383865 1.50005591 1.58246636
v 0.000291196542 1.50005639 1.62743771
v 0.000291208475 -0.00129592896 1.62743771
v 0.138383865 1.50005591 1.58246636
v 0.000292371493 1.50011241 1.00000381
v 0.0823239908 1.50005555 1.00000393
v 0.000291208475 -0.00129592896 1.62743771
v -3.06854213E-06 -0.00129730219 1.00000381
v 0.138383821 -0.00129852875 1.58246636
v 0.082324028 -0.00130127289 1.00000381
vn 0.675511539 -0.589747369 0.442585737
vn 0.682674944 -0.727762461 -0.0657014921
vn 0.682961464 0.727490783 -0.0657331049
vn 0.675529182 0.589710414 0.442607999
vn 0.24185805 0.624463141 0.742664516
vn 0.241804421 -0.624630809 0.742540836
vn 0.675529182 0.589710414 0.442607999
vn 0.000595324324 0.999999881 -4.43328063E-05
vn 0.682961464 0.727490783 -0.0657331049
vn 0.241804421 -0.624630809 0.742540836
vn -4.37662129E-05 -1 8.29260989E-06
vn 0.675511539 -0.589747369 0.442585737
vn 0.682674944 -0.727762461 -0.0657014921
vt 0.690505266 0.500002742
vt 0.643978775 0.500000358
vt 0.643979788 0.624981463
vt 0.69050318 0.624979436
vt 0.699939013 0.624880075
vt 0.700239539 0.500002742
vt 0.698278189 0.634487271
vt 0.644121706 0.625104606
vt 0.644148827 0.632404029
vt 0.687186599 0.511831641
vt 0.647233725 0.506696343
vt 0.68677187 0.502976298
vt 0.648088098 0.500077724
g submesh0
f 1/1/1 2/2/2 3/3/3
f 1/1/1 3/3/3 4/4/4
f 1/1/1 4/4/4 5/5/5
f 1/1/1 5/5/5 6/6/6
f 7/7/7 8/8/8 5/5/5
f 7/7/7 9/9/9 8/8/8
f 10/10/10 11/11/11 12/12/12
f 12/12/12 11/11/11 13/13/13
