# wall.third.corner.L.collision
v 0.0692194998 1.00986254 -1.63350976
v 0.000296002545 5.44800932E-05 -1.63350976
v 0.000296180195 1.00986254 -1.63350952
v 0.000291463046 -2.16612625E-05 -1.28300261
v 0.0692193434 5.4477081E-05 -1.63351011
v 0.000291507196 1.00986254 -1.28300226
v 0.143467084 1.00986254 -1.28869534
v 0.143466949 -2.16675217E-05 -1.28869569
v 0.143466949 -2.16675217E-05 -1.54952109
v 0.143467084 1.00986254 -1.54952085
g submesh0
f 1 2 3
f 3 2 4
f 1 5 2
f 4 2 5
f 1 3 6
f 3 4 6
f 4 7 6
f 1 6 7
f 5 8 4
f 4 8 7
f 1 9 5
f 5 9 8
f 10 7 8
f 10 1 7
f 1 10 9
f 10 8 9
