# wall.half.corner.L_COL
v 0.0413134769 -6.43485336E-08 -1.56672609
v 0.0982373059 -6.43485336E-08 -1.37983823
v 0.0616894513 -6.43485336E-08 -1.37186885
v 0.0413134769 1.5 -1.56672609
v 0.0616894513 1.5 -1.37186885
v 0.0982373059 1.5 -1.37983823
v 0.0782275349 -6.43485336E-08 -1.57309699
v 0.0782275349 1.5 -1.57309699
vn -0.649027228 -0.580939949 -0.491195023
vn 0.657929659 -0.58344245 0.476154745
vn -0.480662107 -0.571761012 0.664870799
vn -0.649027169 0.580939949 -0.491194934
vn -0.480662167 0.571760952 0.664870858
vn 0.657929659 0.58344239 0.476154774
vn 0.494544238 -0.573871791 -0.652761221
vn 0.494544238 0.573871851 -0.652761161
g submesh0
f 1//1 2//2 3//3
f 4//4 1//1 3//3
f 5//5 3//3 2//2
f 4//4 3//3 5//5
f 5//5 2//2 6//6
f 6//6 4//4 5//5
f 1//1 7//7 2//2
f 6//6 2//2 7//7
f 6//6 8//8 4//4
f 8//8 1//1 4//4
f 6//6 7//7 8//8
f 8//8 7//7 1//1
