# wall.half.collision
v -0.0936033055 1.50000489 -1.50000119
v -0.0936030522 1.48534775E-06 1.49997401
v -0.0936030522 1.50000513 1.49997401
v 0.106564701 1.60455704E-06 1.49997389
v -0.0936033055 1.7571449E-06 -1.50000119
v 0.106564708 1.50000489 1.49997401
v 0.106565148 1.50000489 -1.50000119
v 0.106565155 1.7571449E-06 -1.50000119
vn -0.577349961 0.577350318 -0.577350378
vn -0.57735014 -0.577350378 0.577350318
vn -0.57735002 0.577350736 0.57735008
vn 0.577350318 -0.577350259 0.577350199
vn -0.57735014 -0.577350318 -0.577350378
vn 0.577350497 0.577349901 0.577350438
vn 0.577350557 0.57735008 -0.57735008
vn 0.577350438 -0.577350199 -0.577350199
g submesh0
f 1//1 2//2 3//3
f 4//4 3//3 2//2
f 1//1 5//5 2//2
f 4//4 2//2 5//5
f 6//6 1//1 3//3
f 4//4 6//6 3//3
f 7//7 5//5 1//1
f 6//6 7//7 1//1
f 4//4 5//5 8//8
f 6//6 4//4 8//8
f 7//7 8//8 5//5
f 6//6 8//8 7//7
