# wall.doorway.collision
v 0.100000061 3.00000143 -1.49999976
v 0.0999997333 1.90973287E-06 -1.49999976
v -0.100000173 1.7571449E-06 -1.49999964
v -0.100000106 1.68085091E-06 -0.572890282
v -0.0999998376 3.00000143 -1.49999964
v 0.0999999717 1.60455704E-06 -0.572889149
v -0.0999999866 2.18747211 -0.572890103
v -0.100000076 3.00000215 1.50000048
v 0.100000009 2.18747211 -0.572890103
v 0.0999998227 3.00000215 1.50000012
v -0.0999999866 2.18747187 0.588401377
v 0.0999999866 2.18747187 0.588401318
v 0.0999999866 1.60455704E-06 1.49999964
v -0.0999999195 1.45196907E-06 1.49999976
v 0.0999999344 1.45196907E-06 0.588399827
v -0.0999999866 1.52826306E-06 0.588401139
vn 0.57735008 0.57735014 -0.577350616
vn 0.577349961 -0.57735008 -0.577350736
vn -0.577350497 -0.577350378 -0.577349961
vn -0.577350557 -0.577351093 0.577349126
vn -0.577350378 0.577350259 -0.57735014
vn 0.577349901 -0.577349424 0.577351332
vn -0.904534221 -0.301511079 0.301511049
vn -0.57735002 0.57735014 0.577350616
vn 0.904534042 -0.301511496 0.301511437
vn 0.577350438 0.577350438 0.577349842
vn -0.904534221 -0.30151093 -0.301511168
vn 0.904533923 -0.301511526 -0.301511616
vn 0.577350616 -0.57735008 0.57735014
vn -0.577349901 -0.577350378 0.577350378
vn 0.577349782 -0.577349305 -0.577351809
vn -0.577350736 -0.577351034 -0.577349007
g submesh0
f 1//1 2//2 3//3
f 2//2 4//4 3//3
f 1//1 3//3 5//5
f 4//4 5//5 3//3
f 2//2 6//6 4//4
f 6//6 2//2 1//1
f 4//4 7//7 5//5
f 6//6 7//7 4//4
f 1//1 5//5 8//8
f 8//8 5//5 7//7
f 6//6 1//1 9//9
f 6//6 9//9 7//7
f 1//1 8//8 10//10
f 10//10 9//9 1//1
f 9//9 11//11 7//7
f 8//8 7//7 11//11
f 10//10 12//12 9//9
f 9//9 12//12 11//11
f 13//13 10//10 8//8
f 13//13 12//12 10//10
f 14//14 8//8 11//11
f 13//13 8//8 14//14
f 13//13 15//15 12//12
f 15//15 13//13 14//14
f 14//14 11//11 16//16
f 12//12 16//16 11//11
f 15//15 14//14 16//16
f 12//12 15//15 16//16
