# wall.doorway.collision
v 0.131891862 0.000390357949 -0.650469065
v 0.131891862 0.0935328752 0.651449978
v 0.131891862 0.000390357949 0.648677051
v 0.131891862 0.0935329497 -0.653241992
v 0.0945200101 0.128643841 -0.653599858
v 0.094517149 0.128642306 0.652191162
v -0.0808448493 0.12135952 -0.650863647
v -0.0805561319 0.121360898 0.652195632
v -0.122545771 0.0983646587 -0.650870442
v -0.122545771 0.0982891098 0.651809692
v -0.122545771 0.000390357949 0.650444865
v -0.122545771 0.000390357949 -0.6522367
v 0.0496274419 2.25085688 -0.653324008
v 0.0496274419 0.100390434 -0.596933484
v 0.0496274419 0.100390472 -0.653324008
v 0.0496274419 2.18677068 -0.596933484
v 0.0496274419 2.18677068 0.59514153
v 0.0496274419 2.25085688 0.65632683
v 0.0496274419 0.100390397 0.65632689
v 0.0496274419 0.100390278 0.59514153
v -0.0760740787 0.100390278 0.59514147
v -0.0760742947 2.18677068 -0.596933365
v -0.0760738775 0.100390434 -0.596933484
v -0.0975402966 0.109767072 -0.653349698
v -0.0860742927 2.25117254 -0.653349757
v -0.0760744959 2.18677068 0.59514153
v -0.097248055 0.10976696 0.652212441
v -0.0860745013 2.25117254 0.652212262
v -0.122545771 0.000390357949 0.650444865
v 0.134376869 0.000390357949 0.751811147
v -0.125060856 0.000390357949 0.751811147
v 0.131891862 0.000390357949 0.648677051
v 0.131891862 0.000390357949 -0.650469065
v -0.122545771 0.000390357949 -0.6522367
v -0.125060618 0.000390357949 -0.754887164
v 0.134377092 0.000390357949 -0.754887283
v -0.123641014 2.24650621 -0.651488841
v -0.122545771 0.000390357949 -0.6522367
v 0.131891862 0.000390357949 -0.650469065
v -0.125060618 0.000390357949 -0.754887164
v 0.13437669 2.24650621 -0.647969186
v -0.125060424 2.2512784 0.646176875
v -0.123393536 2.34811425 -0.752732515
v 0.13271001 2.34811425 -0.752732754
v 0.134377092 0.000390357949 -0.754887283
v 0.127547726 2.24650621 0.654902577
v 0.132709801 2.34811425 0.749656141
v -0.123393781 2.34811425 0.7496562
v 0.131891862 0.000390357949 0.648677051
v 0.134376869 0.000390357949 0.751811147
v -0.122545771 0.000390357949 0.650444865
v -0.125060856 0.000390357949 0.751811147
v 0.0136057027 1.6451462E-06 0.701976001
v -0.0999999195 1.45196907E-06 1.49997401
v -0.0999999866 1.52206076E-06 0.69975692
v -0.099999994 2.28713989 0.699757159
v 0.0136071406 1.7571449E-06 1.50497341
v 0.0999998227 0.187502667 0.701976597
v -0.100000076 3.00000215 1.49997461
v -0.099999994 2.28714013 -0.704171062
v 0.0999996439 0.187502667 1.50006914
v 0.0999998227 2.28714108 0.701976776
v 0.0136071406 3.00000215 1.50497401
v 0.0999996439 2.81250262 1.50006938
v 0.100000173 2.28714108 -0.701951444
v -0.0999998376 3.00000143 -1.50438809
v -0.100000106 1.64503194E-06 -0.7041713
v 0.100000359 2.81250262 -1.50004375
v 0.0136063751 3.00000143 -1.50494945
v 0.100000359 0.187502667 -1.50004411
v 0.100000173 0.187502667 -0.701951563
v 0.0136051541 1.7571449E-06 -1.50495005
v 0.0136055816 1.71655563E-06 -0.701952219
v -0.100000173 1.71512363E-06 -1.50438845
vn 1 0 0
vn 0.91534853 0.402662486 6.67649317E-07
vn 1 0 0
vn 0.915759623 0.401726723 6.66109202E-07
vn 0.34991762 0.936780512 3.14945214E-06
vn 0.347005546 0.937863111 3.1631123E-06
vn -0.267928511 0.963438809 4.2437121E-05
vn -0.268395901 0.963308632 4.25153412E-05
vn -0.862207472 0.506555319 4.53082757E-05
vn -0.85876739 0.51236558 4.58280265E-05
vn -1 0 0
vn -1 0 0
vn 1 0 0
vn 0.70710665 0 0.707106888
vn 1 0 0
vn 0.904534042 -0.301511228 0.301511377
vn 0.904534042 -0.301511377 -0.301511317
vn 1 0 0
vn 1 0 0
vn 0.707106411 0 -0.707107067
vn -0.574779212 0.00151902239 -0.818307161
vn -0.842119575 -0.351957142 0.408608317
vn -0.572465479 0.00155249808 0.819927394
vn -0.962798059 0.00261107017 0.270209461
vn -0.988617361 -0.0827886462 0.125625685
vn -0.843151152 -0.352289319 -0.406187624
vn -0.964245379 0.00254828972 -0.264998585
vn -0.988855541 -0.082229957 -0.124108791
vn 0 -1 0
vn 0 -1 0
vn 0 -1 0
vn 0 -1 0
vn 0 -1 0
vn 0 -1 0
vn 0 -1 0
vn 0 -1 0
vn -0.905790567 -0.293652892 0.305469245
vn -0.706766248 -0.000421426899 0.707447052
vn 0.702082813 -0.000639614707 0.712095082
vn -0.710997164 0.000736120914 -0.703194559
vn 0.899825394 -0.311728299 0.30518803
vn -0.904495895 -0.303709805 -0.299411982
vn -0.577367365 0.580415785 -0.574251175
vn 0.579549551 0.574839652 -0.577651799
vn 0.708406925 0.000521378068 -0.70580399
vn 0.89874202 -0.300395578 -0.3194139
vn 0.58248204 0.577592015 0.571928442
vn -0.576915026 0.579683959 0.575443745
vn 0.697834969 0.00123918662 -0.716257513
vn 0.720815837 0.00163057691 0.693124771
vn -0.700968504 0.000189056067 -0.713192284
vn -0.708487213 0.000515823544 0.705723464
vn 0.535887182 -0.844289601 -3.8558008E-07
vn -0.588701308 -0.57969898 0.563364744
vn -0.711515725 -0.702670217 0
vn -1 0 0
vn 0.41823411 -0.668371141 0.615109921
vn 0.976787508 -0.214210942 -2.3100381E-07
vn -0.588701785 0.579698205 0.563365161
vn -1 0 0
vn 0.751406252 -0.158042461 0.640633404
vn 1 0 2.34702441E-07
vn 0.418231785 0.668372512 0.61510998
vn 0.751406372 0.158043683 0.640633106
vn 1 0 2.38645214E-07
vn -0.578644931 0.577610314 -0.575791955
vn -0.702724397 -0.7114622 0
vn 0.751411915 0.158043355 -0.64062649
vn 0.430063486 0.66945821 -0.605698824
vn 0.751411796 -0.158044547 -0.640626431
vn 0.976786792 -0.214213967 0
vn 0.430062592 -0.669458508 -0.605699182
vn 0.542590022 -0.839997649 -1.263423E-07
vn -0.578644574 -0.57761097 -0.575791657
g submesh0
f 1//1 2//2 3//3
f 1//1 4//4 2//2
f 2//2 4//4 5//5
f 2//2 5//5 6//6
f 7//7 6//6 5//5
f 7//7 8//8 6//6
f 8//8 7//7 9//9
f 8//8 9//9 10//10
f 9//9 11//11 10//10
f 9//9 12//12 11//11
f 13//13 14//14 15//15
f 13//13 16//16 14//14
f 17//17 16//16 13//13
f 17//17 13//13 18//18
f 17//17 18//18 19//19
f 17//17 19//19 20//20
f 17//17 20//20 21//21
f 22//22 14//14 16//16
f 22//22 16//16 17//17
f 22//22 23//23 14//14
f 22//22 24//24 23//23
f 22//22 25//25 24//24
f 17//17 21//21 26//26
f 22//22 17//17 26//26
f 25//25 22//22 26//26
f 27//27 26//26 21//21
f 25//25 26//26 28//28
f 27//27 28//28 26//26
f 29//29 30//30 31//31
f 29//29 32//32 30//30
f 29//29 33//33 32//32
f 29//29 34//34 33//33
f 35//35 33//33 34//34
f 35//35 36//36 33//33
f 37//37 38//38 39//39
f 40//40 38//38 37//37
f 37//37 39//39 41//41
f 41//41 42//42 37//37
f 40//40 37//37 43//43
f 43//43 37//37 42//42
f 39//39 44//44 41//41
f 40//40 43//43 44//44
f 39//39 45//45 44//44
f 40//40 44//44 45//45
f 44//44 46//46 41//41
f 41//41 46//46 42//42
f 47//47 44//44 43//43
f 44//44 47//47 46//46
f 43//43 42//42 48//48
f 47//47 43//43 48//48
f 47//47 49//49 46//46
f 42//42 46//46 49//49
f 47//47 50//50 49//49
f 50//50 47//47 48//48
f 42//42 49//49 51//51
f 50//50 48//48 52//52
f 52//52 48//48 42//42
f 52//52 42//42 51//51
f 53//53 54//54 55//55
f 54//54 56//56 55//55
f 53//53 57//57 54//54
f 57//57 53//53 58//58
f 54//54 59//59 56//56
f 57//57 59//59 54//54
f 59//59 60//60 56//56
f 57//57 58//58 61//61
f 61//61 58//58 62//62
f 61//61 63//63 57//57
f 57//57 63//63 59//59
f 61//61 62//62 64//64
f 61//61 64//64 63//63
f 64//64 62//62 65//65
f 59//59 66//66 60//60
f 67//67 60//60 66//66
f 68//68 63//63 64//64
f 64//64 65//65 68//68
f 69//69 59//59 63//63
f 69//69 66//66 59//59
f 68//68 69//69 63//63
f 70//70 68//68 65//65
f 70//70 69//69 68//68
f 70//70 65//65 71//71
f 72//72 70//70 71//71
f 70//70 72//72 69//69
f 72//72 71//71 73//73
f 72//72 73//73 67//67
f 69//69 74//74 66//66
f 69//69 72//72 74//74
f 72//72 67//67 74//74
f 67//67 66//66 74//74
