# wall.half.corner.L.collision
v 0.0692194775 1.49615562 -1.63351011
v 0.000296002545 5.44800932E-05 -1.63350976
v 0.000296144222 1.49615562 -1.63350976
v 0.0961949453 1.49615562 -1.28300261
v 0.0961947963 -2.16654535E-05 -1.28300261
v 0.0692193434 5.4477081E-05 -1.63351011
v 0.143467084 1.49615562 -1.28869569
v 0.143466949 -2.16675217E-05 -1.28869569
v 0.143466949 -2.16675217E-05 -1.54952109
v 0.143467084 1.49615562 -1.54952109
v 0.00158883166 -0.0076304567 -1.49532866
v 0.247128844 -0.00520431995 -1.49532866
v 0.245859072 0.104724273 -1.4942416
v 0.245850503 0.105590358 -1.59664094
v 0.247120276 -0.00433792546 -1.59772789
v 0.000319809682 0.514828503 -1.49424219
v 0.145527318 -0.00408981321 -1.74571717
v 0.00156790821 -0.0055122315 -1.74571717
v 0.144257575 0.105838619 -1.7446301
v 0.000298124272 0.10441605 -1.7446301
v 0.144257575 1.39037156 -1.7446301
v 0.000319801475 0.981381655 -1.49424219
v 0.000298132858 1.39179409 -1.7446301
v 0.145527333 1.50029993 -1.74571717
v 0.00156790728 1.50172234 -1.74571717
v 0.245850518 1.39061975 -1.59664094
v 0.247120276 1.50054801 -1.59772789
v 0.00158883107 1.50384057 -1.49532866
v 0.247128829 1.50141442 -1.49532866
v 0.245859072 1.39148605 -1.4942416
v -0.0825014785 1.50054836 -1.41231871
v -0.182735816 1.50054836 -1.31238091
v -0.0825014785 1.50054836 -1.31238091
v -0.0825014934 0.105044104 -1.31238091
v -0.182735875 0.105044104 -1.31238091
v -0.0825014934 0.105044104 -1.41231871
v -0.182735816 1.50054836 -1.41231871
v -0.182735875 0.105044104 -1.41231871
g submesh0
f 1 2 3
f 1 3 4
f 4 3 2
f 5 4 2
f 1 6 2
f 2 6 5
f 5 7 4
f 1 4 7
f 6 8 5
f 5 8 7
f 1 9 6
f 6 9 8
f 10 7 8
f 10 1 7
f 1 10 9
f 10 8 9
f 11 12 13
f 12 14 13
f 15 12 11
f 12 15 14
f 11 13 16
f 16 13 14
f 17 15 11
f 17 14 15
f 18 11 16
f 11 18 17
f 14 19 16
f 17 19 14
f 17 18 20
f 18 16 20
f 19 20 16
f 17 20 19
f 21 22 23
f 24 21 23
f 25 23 22
f 24 23 25
f 24 26 21
f 26 22 21
f 27 24 25
f 24 27 26
f 25 22 28
f 25 28 27
f 29 26 27
f 28 29 27
f 28 22 30
f 22 26 30
f 28 30 29
f 29 30 26
f 31 32 33
f 34 31 33
f 35 34 33
f 35 33 32
f 34 36 31
f 36 34 35
f 31 37 32
f 36 37 31
f 36 35 38
f 38 35 32
f 36 38 37
f 38 32 37
