# wall.half.collision
v -0.100005113 1.50092173 -1.49995756
v -0.100004591 4.93322432E-06 1.49898064
v -0.100005396 1.50083876 1.49898064
v -0.00352253136 1.50062966 -1.50495601
v -0.00352054415 1.50058877 1.50448239
v -0.10000433 4.47546063E-06 -1.49995756
v -0.00352054415 4.99963744E-06 1.50448239
v -0.00352253136 4.54187375E-06 -1.50495601
v 0.102192715 1.50033891 1.49998546
v 0.102193236 4.77075582E-06 -1.49995494
v 0.102193333 1.50033796 -1.49995482
v 0.102192856 5.15222519E-06 1.49998498
g submesh0
f 1 2 3
f 3 4 1
f 2 5 3
f 3 5 4
f 1 6 2
f 2 7 5
f 6 7 2
f 8 6 1
f 8 1 4
f 6 8 7
f 9 4 5
f 7 9 5
f 10 7 8
f 10 8 4
f 9 11 4
f 10 4 11
f 10 12 7
f 7 12 9
f 12 10 11
f 12 11 9
