# wall.half.corner.R.collision
v 0.0692207888 1.50365674 1.64087033
v 0.069219254 0.0220637526 1.64833796
v 0.216074333 0.0219876077 1.59525108
v 0.209191188 1.50365674 1.59124291
v 0.152194723 0.0219876096 1.23765039
v 0.209191188 1.50365674 1.59124291
v 0.216074333 0.0219876077 1.59525108
v 0.146008775 1.50365674 1.24540401
v 0.0422372632 0.0219876133 1.23109496
v 0.0422383696 1.50365674 1.2382617
v 0.216074333 0.0219876077 1.59525108
v 0.069219254 0.0220637526 1.64833796
v 0.0422372632 0.0219876133 1.23109496
v 0.152194723 0.0219876096 1.23765039
v 0.209191188 1.50365674 1.59124291
v 0.146008775 1.50365674 1.24540401
v 0.0422383696 1.50365674 1.2382617
v 0.0692207888 1.50365674 1.64087033
v 0.069219254 0.0220637526 1.64833796
v 0.0692207888 1.50365674 1.64087033
v 0.0422383696 1.50365674 1.2382617
v 0.0422372632 0.0219876133 1.23109496
vn -0.452932417 0.566650569 0.688301742
vn -0.452916801 -0.561475575 0.69253993
vn 0.701857269 -0.585461557 0.405747652
vn 0.700492263 0.587679625 0.404898912
vn 0.538245082 -0.587682307 -0.604087532
vn 0.700492263 0.587679625 0.404898912
vn 0.701857269 -0.585461557 0.405747652
vn 0.534977019 0.594841897 -0.599969029
vn -0.580229402 -0.57078743 -0.580978155
vn -0.582048833 0.570792913 -0.579149961
vn 0.701857269 -0.585461557 0.405747652
vn -0.452916801 -0.561475575 0.69253993
vn -0.580229402 -0.57078743 -0.580978155
vn 0.538245082 -0.587682307 -0.604087532
vn 0.700492263 0.587679625 0.404898912
vn 0.534977019 0.594841897 -0.599969029
vn -0.582048833 0.570792913 -0.579149961
vn -0.452932417 0.566650569 0.688301742
vn -0.452916801 -0.561475575 0.69253993
vn -0.452932417 0.566650569 0.688301742
vn -0.582048833 0.570792913 -0.579149961
vn -0.580229402 -0.57078743 -0.580978155
vt 0.578468859 0.18588078
vt 0.578468859 0.000691473484
vt 0.563011229 0.000691473484
vt 0.563011229 0.18588078
vt 0.735967338 0.000691473484
vt 0.687791169 0.187437654
vt 0.687791169 0.000691473484
vt 0.73597765 0.187437654
vt 0.748402119 0.000691473484
vt 0.748402059 0.187437654
vt 0.772542953 0.132385626
vt 0.770085752 0.143037364
vt 0.804386973 0.136955723
vt 0.801661849 0.128139868
vt 0.806836724 0.137563035
vt 0.834986806 0.14165239
vt 0.837645531 0.133353993
vt 0.804535389 0.127524719
vt 0.831763506 0.161768302
vt 0.960063338 0.158414707
vt 0.959414482 0.127539918
vt 0.829438329 0.127226874
g submesh0
f 1/1/1 2/2/2 3/3/3
f 1/1/1 3/3/3 4/4/4
f 5/5/5 6/6/6 7/7/7
f 5/5/5 8/8/8 6/6/6
f 9/9/9 8/8/8 5/5/5
f 9/9/9 10/10/10 8/8/8
f 11/11/11 12/12/12 13/13/13
f 11/11/11 13/13/13 14/14/14
f 15/15/15 16/16/16 17/17/17
f 15/15/15 17/17/17 18/18/18
f 19/19/19 20/20/20 21/21/21
f 19/19/19 21/21/21 22/22/22
