# wall.third.corner.R_COL
v 0.0618460067 -0.00400295248 1.37818849
v 0.141640931 -0.00400299067 1.4768554
v 0.0491445921 -0.00400287611 1.61448729
v -0.0708691403 -0.00400299067 1.61628294
v 0.0618460067 -0.00400295248 1.37818849
v -0.105244748 -0.00400299067 1.57038939
v 0.0618450902 1.08510685 1.37818849
v 0.0618460067 -0.00400295248 1.37818849
v -0.105244748 -0.00400299067 1.57038939
v -0.105248414 1.08510613 1.57039428
v 0.141640618 1.08510673 1.4768554
v 0.141640931 -0.00400299067 1.4768554
v 0.0618460067 -0.00400295248 1.37818849
v 0.0618450902 1.08510685 1.37818849
v 0.141640618 1.08510673 1.4768554
v 0.0491445921 1.08510685 1.61448729
v 0.0491445921 -0.00400287611 1.61448729
v 0.141640931 -0.00400299067 1.4768554
v 0.141640618 1.08510673 1.4768554
v 0.0618450902 1.08510685 1.37818849
v 0.0491445921 1.08510685 1.61448729
v -0.0708697513 1.08510613 1.61628902
v -0.105248414 1.08510613 1.57039428
v 0.0491445921 -0.00400287611 1.61448729
v 0.0491445921 1.08510685 1.61448729
v -0.0708697513 1.08510613 1.61628902
v -0.0708691403 -0.00400299067 1.61628294
v -0.105248414 1.08510613 1.57039428
v -0.105244748 -0.00400299067 1.57038939
vn -8.22619825E-07 -1 2.78653573E-07
vn -8.22619825E-07 -1 2.78653602E-07
vn 5.18913112E-07 -1 3.50763003E-07
vn 5.21105846E-07 -1 1.30249376E-07
vn -3.71980633E-07 -1 2.63793311E-07
vn 1.22637459E-07 -1 0
vn -0.406565875 0 -0.913621426
vn -0.406566232 0 -0.913621366
vn -0.7546857 -1.15524195E-07 -0.656086504
vn -0.7546857 -1.15524202E-07 -0.656086504
vn 0.777545571 4.36113453E-07 -0.628826618
vn 0.777545571 4.3611351E-07 -0.628826618
vn 0.777545571 4.3611351E-07 -0.628826618
vn 0.777545571 4.3611351E-07 -0.628826618
vn 0.829980314 1.16171613E-07 0.557792544
vn 0.829980314 1.16171599E-07 0.557792544
vn 0.829980314 1.16171627E-07 0.557792544
vn 0.829980314 1.16171613E-07 0.557792544
vn 1.79307051E-06 1 0
vn 1.79307074E-06 1 0
vn 1.79307051E-06 1 0
vn -2.452628E-06 1 1.83720419E-06
vn -2.452628E-06 1 1.83720408E-06
vn 0.0149857821 -2.79757205E-06 0.999887705
vn 0.0149857821 -2.79757182E-06 0.999887705
vn -0.440769821 -4.14819897E-06 0.897620201
vn -0.440771878 -4.14820352E-06 0.897619128
vn -0.800363839 -4.5938059E-06 0.599514484
vn -0.800363839 -4.59380544E-06 0.599514544
vt 0.0625205114 0.444845349
vt 0.0989868715 0.440776676
vt 0.109528646 0.416480631
vt 0.0824578926 0.403599888
vt 0.0784437656 0.425311148
vt 0.0649015158 0.405217916
vt 0.472986907 0.43062517
vt 0.134219557 0.430623829
vt 0.134219557 0.443725228
vt 0.472986639 0.443724006
vt 0.472986907 0.399382532
vt 0.134219557 0.399340749
vt 0.134219557 0.413587093
vt 0.472986907 0.413527578
vt 0.472986907 0.399382532
vt 0.472986907 0.383375138
vt 0.134219557 0.383374572
vt 0.134219557 0.399340749
vt 0.100151882 0.407972217
vt 0.0778548867 0.423209131
vt 0.108747125 0.432703912
vt 0.0803586394 0.445131153
vt 0.0627824962 0.443130851
vt 0.134219557 0.383374572
vt 0.472986907 0.383375138
vt 0.472986668 0.397907794
vt 0.134219557 0.397907913
vt 0.472986639 0.403730482
vt 0.134219557 0.403730571
g submesh0
f 1/1/1 2/2/2 3/3/3
f 3/3/3 4/4/4 5/5/5
f 4/4/4 6/6/6 5/5/5
f 7/7/7 8/8/8 9/9/9
f 7/7/7 9/9/9 10/10/10
f 11/11/11 12/12/12 13/13/13
f 11/11/11 13/13/13 14/14/14
f 15/15/15 16/16/16 17/17/17
f 15/15/15 17/17/17 18/18/18
f 19/19/19 20/20/20 21/21/21
f 20/20/20 22/22/22 21/21/21
f 20/20/20 23/23/23 22/22/22
f 24/24/24 25/25/25 26/26/26
f 24/24/24 26/26/26 27/27/27
f 27/27/27 26/26/26 28/28/28
f 27/27/27 28/28/28 29/29/29
