# wall.frame.twig_COL
v -0.0418273546 0.00938592292 -1.52554131
v 0.0418273695 2.81292439 -1.52554131
v 0.0418273695 0.00761208776 -1.52554131
v -0.0418273546 2.81478715 -1.52554131
v -0.100980178 2.81099296 -1.46638846
v -0.100980178 0.00577263348 -1.46638846
v -0.100980192 2.80521178 -1.38273394
v -0.100980192 0.00464299647 -1.38273394
v -0.0418273732 0.00662556384 -1.32358086
v -0.0418273732 2.81188869 -1.32358086
v 0.0418273732 0.00732422108 -1.32358086
v 0.0418273732 2.80000424 -1.32358086
v 0.100980185 0.0118354624 -1.3827337
v 0.100980185 2.81735921 -1.3827337
v 0.100980178 0.00964379869 -1.46638846
v 0.100980178 2.81505799 -1.46638846
v 0.0418273695 0.00761208776 -1.52554131
v 0.0418273695 2.81292439 -1.52554131
v -0.100980192 0.00464299647 -1.38273394
v 0.0418273732 0.00732422108 -1.32358086
v -0.0418273732 0.00662556384 -1.32358086
v 0.100980185 0.0118354624 -1.3827337
v 0.100980178 0.00964379869 -1.46638846
v 0.0418273695 0.00761208776 -1.52554131
v -0.0418273546 0.00938592292 -1.52554131
v -0.100980178 0.00577263348 -1.46638846
v -0.100980178 2.81099296 -1.46638846
v 0.0418273695 2.81292439 -1.52554131
v -0.0418273546 2.81478715 -1.52554131
v 0.100980178 2.81505799 -1.46638846
v 0.0418273732 2.80000424 -1.32358086
v 0.100980185 2.81735921 -1.3827337
v -0.100980192 2.80521178 -1.38273394
v -0.0418273732 2.81188869 -1.32358086
v -0.0418273546 2.82143664 1.51406372
v 0.0418273471 2.82143664 -1.50468898
v 0.0418273695 2.82143664 1.51572657
v -0.0418273546 2.82143664 -1.50635171
v -0.100980192 2.88058949 -1.50296485
v -0.100980163 2.88058949 1.51745081
v -0.100980192 2.96424413 -1.4978044
v -0.100980185 2.96424437 1.51850951
v -0.0418273546 3.02339721 1.51665127
v -0.0418273807 3.02339673 -1.50376427
v 0.0418273695 3.02339721 1.51599634
v 0.0418273471 3.02339673 -1.50249779
v 0.100980192 2.96424437 1.51176786
v 0.100980148 2.96424413 -1.50864792
v 0.100980185 2.88058949 1.51382196
v 0.100980133 2.88058949 -1.50659347
v 0.0418273695 2.82143664 1.51572657
v 0.0418273471 2.82143664 -1.50468898
v -0.100980185 2.96424437 1.51850951
v 0.0418273695 3.02339721 1.51599634
v -0.0418273546 3.02339721 1.51665127
v 0.100980192 2.96424437 1.51176786
v 0.100980185 2.88058949 1.51382196
v 0.0418273695 2.82143664 1.51572657
v -0.0418273546 2.82143664 1.51406372
v -0.100980163 2.88058949 1.51745081
v -0.100980192 2.88058949 -1.50296485
v 0.0418273471 2.82143664 -1.50468898
v -0.0418273546 2.82143664 -1.50635171
v 0.100980133 2.88058949 -1.50659347
v 0.0418273471 3.02339673 -1.50249779
v 0.100980148 2.96424413 -1.50864792
v -0.100980192 2.96424413 -1.4978044
v -0.0418273807 3.02339673 -1.50376427
v 0.108884372 2.82317376 1.41506922
v 0.070256643 0.010008459 1.34086692
v 0.0702569187 2.82200432 1.34086668
v 0.108884096 0.0111223506 1.41506958
v 0.0837286338 0.00931895804 1.49485254
v 0.0837289095 2.82128024 1.49485195
v 0.00952630769 2.82155085 1.53347957
v 0.0157985259 0.00957660936 1.52600455
v -0.070256643 2.82567048 1.50832391
v -0.0639844313 0.0156026483 1.50084925
v -0.108884104 2.81407523 1.43412137
v -0.108884379 0.00778651005 1.43412173
v -0.0837286338 2.81840253 1.35433865
v -0.0837289095 0.00657839747 1.354339
v -0.00952599943 2.81637025 1.31571102
v -0.00952627324 0.0046429825 1.31571138
v 0.0702569187 2.82200432 1.34086668
v 0.070256643 0.010008459 1.34086692
v 0.00952630769 2.82155085 1.53347957
v -0.108884104 2.81407523 1.43412137
v -0.070256643 2.82567048 1.50832391
v 0.0837289095 2.82128024 1.49485195
v -0.0837286338 2.81840253 1.35433865
v -0.00952599943 2.81637025 1.31571102
v 0.0702569187 2.82200432 1.34086668
v 0.108884372 2.82317376 1.41506922
v 0.108884096 0.0111223506 1.41506958
v -0.00952627324 0.0046429825 1.31571138
v 0.070256643 0.010008459 1.34086692
v -0.0837289095 0.00657839747 1.354339
v -0.108884379 0.00778651005 1.43412173
v 0.0837286338 0.00931895804 1.49485254
v -0.0639844313 0.0156026483 1.50084925
v 0.0157985259 0.00957660936 1.52600455
vn -0.302131295 -0.610536098 -0.732094467
vn 0.291902542 0.626264334 -0.722901046
vn 0.300357163 -0.631664634 -0.714692414
vn -0.2911731 0.664960384 -0.68778336
vn -0.721061885 0.639089286 -0.267646581
vn -0.700203121 -0.645500124 -0.305032969
vn -0.719366908 0.618485689 0.316206634
vn -0.70827651 -0.641765833 0.294076622
vn -0.292615503 -0.622136116 0.726169884
vn -0.242956132 0.736644924 0.631131232
vn 0.311616719 -0.640130818 0.702230453
vn 0.293680131 0.58713913 0.754333854
vn 0.733549714 -0.609732926 0.300217777
vn 0.600759685 0.740047038 0.302354366
vn 0.726957858 -0.623269379 -0.288214505
vn 0.703215897 0.653942943 -0.279008985
vn 0.300357163 -0.631664634 -0.714692414
vn 0.291902542 0.626264334 -0.722901046
vn -0.70827651 -0.641765833 0.294076622
vn 0.311616719 -0.640130818 0.702230453
vn -0.292615503 -0.622136116 0.726169884
vn 0.733549714 -0.609732926 0.300217777
vn 0.726957858 -0.623269379 -0.288214505
vn 0.300357163 -0.631664634 -0.714692414
vn -0.302131295 -0.610536098 -0.732094467
vn -0.700203121 -0.645500124 -0.305032969
vn -0.721061885 0.639089286 -0.267646581
vn 0.291902542 0.626264334 -0.722901046
vn -0.2911731 0.664960384 -0.68778336
vn 0.703215897 0.653942943 -0.279008985
vn 0.293680131 0.58713913 0.754333854
vn 0.600759685 0.740047038 0.302354366
vn -0.719366908 0.618485689 0.316206634
vn -0.242956132 0.736644924 0.631131232
vn -0.301821649 -0.73118329 0.611779809
vn 0.292456359 -0.722298443 -0.626701176
vn 0.300152272 -0.714852214 0.631581306
vn -0.291811168 -0.69102174 -0.661313236
vn -0.724247217 -0.280742586 -0.629801273
vn -0.701283872 -0.304521322 0.644567907
vn -0.738279641 0.314519584 -0.596674621
vn -0.708845019 0.294268101 0.641049981
vn -0.292892069 0.725616872 0.622650981
vn -0.295799702 0.676789582 -0.674135327
vn 0.31069237 0.703178704 0.639538944
vn 0.28484574 0.727319777 -0.624394774
vn 0.732547939 0.300021946 0.611032248
vn 0.672550857 0.29217878 -0.679931521
vn 0.726355731 -0.288764775 0.623716533
vn 0.708338737 -0.29659 -0.640539289
vn 0.300152272 -0.714852214 0.631581306
vn 0.292456359 -0.722298443 -0.626701176
vn -0.708845019 0.294268101 0.641049981
vn 0.31069237 0.703178704 0.639538944
vn -0.292892069 0.725616872 0.622650981
vn 0.732547939 0.300021946 0.611032248
vn 0.726355731 -0.288764775 0.623716533
vn 0.300152272 -0.714852214 0.631581306
vn -0.301821649 -0.73118329 0.611779809
vn -0.701283872 -0.304521322 0.644567907
vn -0.724247217 -0.280742586 -0.629801273
vn 0.292456359 -0.722298443 -0.626701176
vn -0.291811168 -0.69102174 -0.661313236
vn 0.708338737 -0.29659 -0.640539289
vn 0.28484574 0.727319777 -0.624394774
vn 0.672550857 0.29217878 -0.679931521
vn -0.738279641 0.314519584 -0.596674621
vn -0.295799702 0.676789582 -0.674135327
vn 0.757864237 0.649249017 -0.0641685501
vn 0.5261724 -0.603040934 -0.599570096
vn 0.470409185 0.652330935 -0.594289005
vn 0.782671988 -0.61889571 -0.0662768409
vn 0.581142962 -0.631719291 0.513033748
vn 0.586296797 0.6374771 0.499878913
vn 0.0655956194 0.647503018 0.759234488
vn 0.026951503 -0.672085643 0.739982843
vn -0.463960201 0.720417917 0.515498757
vn -0.472044379 -0.584015071 0.660378993
vn -0.796207726 0.601312757 0.0669048578
vn -0.766914606 -0.628738165 0.128569782
vn -0.595860243 0.635215104 -0.491378099
vn -0.593926132 -0.638826072 -0.489032686
vn -0.0744634345 0.612886846 -0.786654234
vn -0.0620740913 -0.654881597 -0.753177881
vn 0.470409185 0.652330935 -0.594289005
vn 0.5261724 -0.603040934 -0.599570096
vn 0.0655956194 0.647503018 0.759234488
vn -0.796207726 0.601312757 0.0669048578
vn -0.463960201 0.720417917 0.515498757
vn 0.586296797 0.6374771 0.499878913
vn -0.595860243 0.635215104 -0.491378099
vn -0.0744634345 0.612886846 -0.786654234
vn 0.470409185 0.652330935 -0.594289005
vn 0.757864237 0.649249017 -0.0641685501
vn 0.782671988 -0.61889571 -0.0662768409
vn -0.0620740913 -0.654881597 -0.753177881
vn 0.5261724 -0.603040934 -0.599570096
vn -0.593926132 -0.638826072 -0.489032686
vn -0.766914606 -0.628738165 0.128569782
vn 0.581142962 -0.631719291 0.513033748
vn -0.472044379 -0.584015071 0.660378993
vn 0.026951503 -0.672085643 0.739982843
vt 0.560237825 0.385547251
vt 0.976824641 0.371130943
vt 0.558528602 0.371130943
vt 0.978544295 0.38554731
vt 0.980160654 0.40053612
vt 0.561854184 0.40053612
vt 0.980160654 0.415527582
vt 0.561854184 0.415527523
vt 0.561854184 0.430520982
vt 0.980160654 0.430520982
vt 0.561854184 0.445512652
vt 0.980160654 0.445512652
vt 0.561854184 0.460502744
vt 0.980160654 0.460502744
vt 0.561854184 0.475491434
vt 0.980160654 0.475491554
vt 0.564278781 0.490478843
vt 0.982585251 0.490478903
vt 0.53129828 0.413827568
vt 0.542426586 0.386961401
vt 0.542426586 0.402699292
vt 0.53129828 0.375833094
vt 0.515560448 0.375833094
vt 0.504432082 0.386961401
vt 0.504432082 0.402699232
vt 0.515560448 0.413827568
vt 0.515560448 0.413827568
vt 0.504432082 0.386961401
vt 0.504432082 0.402699232
vt 0.515560448 0.375833094
vt 0.542426586 0.386961401
vt 0.53129828 0.375833094
vt 0.53129828 0.413827568
vt 0.542426586 0.402699292
vt 0.560237825 0.385547251
vt 0.97685498 0.371130973
vt 0.55854851 0.371130943
vt 0.978544295 0.38554731
vt 0.980160654 0.40053612
vt 0.561854184 0.40053612
vt 0.980160654 0.415527582
vt 0.561854184 0.415527523
vt 0.561854184 0.430520982
vt 0.980160654 0.430520982
vt 0.561854184 0.445512652
vt 0.980160654 0.445512652
vt 0.561854184 0.460502744
vt 0.980160654 0.460502744
vt 0.561854184 0.475491434
vt 0.980160654 0.475491554
vt 0.564278781 0.490478843
vt 0.982585251 0.490478903
vt 0.53129828 0.413827568
vt 0.542426586 0.386961401
vt 0.542426586 0.402699292
vt 0.53129828 0.375833094
vt 0.515560448 0.375833094
vt 0.504432082 0.386961401
vt 0.504432082 0.402699232
vt 0.515560448 0.413827568
vt 0.515560448 0.413827568
vt 0.504432082 0.386961401
vt 0.504432082 0.402699232
vt 0.515560448 0.375833094
vt 0.542426586 0.386961401
vt 0.53129828 0.375833094
vt 0.53129828 0.413827568
vt 0.542426586 0.402699292
vt 0.561854184 0.393041313
vt 0.977736056 0.378053904
vt 0.559429586 0.378053904
vt 0.980160654 0.393041372
vt 0.980160654 0.408031583
vt 0.561854184 0.408031523
vt 0.561759472 0.423024058
vt 0.980255365 0.423024535
vt 0.561034799 0.435478687
vt 0.979436159 0.435478717
vt 0.56275475 0.447932005
vt 0.980636716 0.447453082
vt 0.562748909 0.462907642
vt 0.980676889 0.462429166
vt 0.562766075 0.477882147
vt 0.980694056 0.477403671
vt 0.566551328 0.492851138
vt 0.984479308 0.492372572
vt 0.537969172 0.409370184
vt 0.537969172 0.380290478
vt 0.543991804 0.394830346
vt 0.523429334 0.415392816
vt 0.523429334 0.374267876
vt 0.508889496 0.380290478
vt 0.502866864 0.394830346
vt 0.508889496 0.409370184
vt 0.508889496 0.409370184
vt 0.508889496 0.380290478
vt 0.502866864 0.394830346
vt 0.523429334 0.374267876
vt 0.537969172 0.380290478
vt 0.523429334 0.415392816
vt 0.543991804 0.394830346
vt 0.537969172 0.409370184
g submesh0
f 1/1/1 2/2/2 3/3/3
f 2/2/2 1/1/1 4/4/4
f 1/1/1 5/5/5 4/4/4
f 5/5/5 1/1/1 6/6/6
f 6/6/6 7/7/7 5/5/5
f 7/7/7 6/6/6 8/8/8
f 9/9/9 7/7/7 8/8/8
f 7/7/7 9/9/9 10/10/10
f 11/11/11 10/10/10 9/9/9
f 10/10/10 11/11/11 12/12/12
f 13/13/13 12/12/12 11/11/11
f 12/12/12 13/13/13 14/14/14
f 15/15/15 14/14/14 13/13/13
f 14/14/14 15/15/15 16/16/16
f 17/17/17 16/16/16 15/15/15
f 16/16/16 17/17/17 18/18/18
f 19/19/19 20/20/20 21/21/21
f 19/19/19 22/22/22 20/20/20
f 19/19/19 23/23/23 22/22/22
f 19/19/19 24/24/24 23/23/23
f 19/19/19 25/25/25 24/24/24
f 19/19/19 26/26/26 25/25/25
f 27/27/27 28/28/28 29/29/29
f 27/27/27 30/30/30 28/28/28
f 27/27/27 31/31/31 30/30/30
f 30/30/30 31/31/31 32/32/32
f 27/27/27 33/33/33 31/31/31
f 31/31/31 33/33/33 34/34/34
f 35/35/35 36/36/36 37/37/37
f 36/36/36 35/35/35 38/38/38
f 35/35/35 39/39/39 38/38/38
f 39/39/39 35/35/35 40/40/40
f 40/40/40 41/41/41 39/39/39
f 41/41/41 40/40/40 42/42/42
f 43/43/43 41/41/41 42/42/42
f 41/41/41 43/43/43 44/44/44
f 45/45/45 44/44/44 43/43/43
f 44/44/44 45/45/45 46/46/46
f 47/47/47 46/46/46 45/45/45
f 46/46/46 47/47/47 48/48/48
f 49/49/49 48/48/48 47/47/47
f 48/48/48 49/49/49 50/50/50
f 51/51/51 50/50/50 49/49/49
f 50/50/50 51/51/51 52/52/52
f 53/53/53 54/54/54 55/55/55
f 53/53/53 56/56/56 54/54/54
f 53/53/53 57/57/57 56/56/56
f 53/53/53 58/58/58 57/57/57
f 53/53/53 59/59/59 58/58/58
f 53/53/53 60/60/60 59/59/59
f 61/61/61 62/62/62 63/63/63
f 61/61/61 64/64/64 62/62/62
f 61/61/61 65/65/65 64/64/64
f 64/64/64 65/65/65 66/66/66
f 61/61/61 67/67/67 65/65/65
f 65/65/65 67/67/67 68/68/68
f 69/69/69 70/70/70 71/71/71
f 70/70/70 69/69/69 72/72/72
f 69/69/69 73/73/73 72/72/72
f 73/73/73 69/69/69 74/74/74
f 75/75/75 73/73/73 74/74/74
f 73/73/73 75/75/75 76/76/76
f 77/77/77 76/76/76 75/75/75
f 76/76/76 77/77/77 78/78/78
f 79/79/79 78/78/78 77/77/77
f 78/78/78 79/79/79 80/80/80
f 81/81/81 80/80/80 79/79/79
f 80/80/80 81/81/81 82/82/82
f 83/83/83 82/82/82 81/81/81
f 82/82/82 83/83/83 84/84/84
f 85/85/85 84/84/84 83/83/83
f 84/84/84 85/85/85 86/86/86
f 87/87/87 88/88/88 89/89/89
f 87/87/87 90/90/90 88/88/88
f 88/88/88 90/90/90 91/91/91
f 91/91/91 90/90/90 92/92/92
f 92/92/92 90/90/90 93/93/93
f 93/93/93 90/90/90 94/94/94
f 95/95/95 96/96/96 97/97/97
f 95/95/95 98/98/98 96/96/96
f 95/95/95 99/99/99 98/98/98
f 100/100/100 99/99/99 95/95/95
f 100/100/100 101/101/101 99/99/99
f 100/100/100 102/102/102 101/101/101
