# wall.frame.cell_COL
v 0.0529447943 0.0529446676 -1.27662027
v -0.052944608 0.0529446676 -1.27662027
v -0.052944608 0.0529447198 1.28053308
v 0.0529447943 0.0529447198 1.28053308
v -0.052944608 -0.00294477935 -1.27662027
v 0.0529447943 -0.00294477935 -1.27662027
v 0.0529447943 -0.00294472207 1.28053308
v -0.052944608 -0.00294472207 1.28053308
v 0.0529447943 0.0529447198 1.28053308
v 0.0529447943 -0.00294472207 1.28053308
v 0.0529447943 -0.00294477935 -1.27662027
v 0.0529447943 0.0529446676 -1.27662027
v -0.052944608 0.0529446676 -1.27662027
v -0.052944608 -0.00294477935 -1.27662027
v -0.052944608 -0.00294472207 1.28053308
v -0.052944608 0.0529447198 1.28053308
v -0.0277505368 0.592750549 -1.27738154
v -0.0277505368 0.537249267 -1.27738154
v -0.0277505349 0.537249386 1.2825259
v -0.0277505349 0.592750728 1.2825259
v 0.027750764 0.537249267 -1.27738154
v 0.027750764 0.592750549 -1.27738154
v 0.027750764 0.592750728 1.2825259
v 0.027750764 0.537249386 1.2825259
v -0.0277505349 0.592750728 1.2825259
v 0.027750764 0.592750728 1.2825259
v 0.027750764 0.592750549 -1.27738154
v -0.0277505368 0.592750549 -1.27738154
v -0.0277505368 0.537249267 -1.27738154
v 0.027750764 0.537249267 -1.27738154
v 0.027750764 0.537249386 1.2825259
v -0.0277505349 0.537249386 1.2825259
v 0.027750764 1.13275051 -1.27713442
v -0.0277505387 1.13275051 -1.27713442
v -0.0277505349 1.13275063 1.2825259
v 0.027750764 1.13275063 1.2825259
v -0.0277505387 1.07724929 -1.27713442
v 0.027750764 1.07724929 -1.27713442
v 0.027750764 1.07724941 1.2825259
v -0.0277505349 1.07724941 1.2825259
v 0.027750764 1.13275063 1.2825259
v 0.027750764 1.07724941 1.2825259
v 0.027750764 1.07724929 -1.27713442
v 0.027750764 1.13275051 -1.27713442
v -0.0277505387 1.13275051 -1.27713442
v -0.0277505387 1.07724929 -1.27713442
v -0.0277505349 1.07724941 1.2825259
v -0.0277505349 1.13275063 1.2825259
v -0.0277505387 1.67275071 -1.27941799
v -0.0277505387 1.61724925 -1.27941799
v -0.0277505349 1.61724925 1.2825259
v -0.0277505349 1.67275071 1.2825259
v 0.027750764 1.61724925 -1.27941799
v 0.027750764 1.67275071 -1.27941799
v 0.027750764 1.67275071 1.2825259
v 0.027750764 1.61724925 1.2825259
v -0.0277505349 1.67275071 1.2825259
v 0.027750764 1.67275071 1.2825259
v 0.027750764 1.67275071 -1.27941799
v -0.0277505387 1.67275071 -1.27941799
v -0.0277505387 1.61724925 -1.27941799
v 0.027750764 1.61724925 -1.27941799
v 0.027750764 1.61724925 1.2825259
v -0.0277505349 1.61724925 1.2825259
v -0.0224096775 0.049999997 0.133611843
v 0.00855987519 2.79999995 0.123549223
v 0.00855987519 0.049999997 0.12354923
v -0.0224096775 2.79999995 0.133611828
v -0.0224100389 2.79999995 0.166174635
v -0.0224100389 0.049999997 0.166174635
v 0.00856045261 0.049999997 0.176237553
v 0.00856045261 2.79999995 0.176237553
v 0.0277000945 0.049999997 0.149893492
v 0.0277000945 2.79999995 0.149893492
v 0.00855987519 0.049999997 0.12354923
v 0.00855987519 2.79999995 0.123549223
v -0.022405941 0.0500123575 0.27054888
v 0.00856213085 2.80001974 0.267994434
v 0.00855759624 0.0500199795 0.260490686
v -0.0224134028 2.80001211 0.27806145
v -0.022405941 2.79998732 0.310624719
v -0.0224134028 0.0499876663 0.303112149
v 0.00856213085 0.0499800257 0.313179135
v 0.00855759624 2.79998016 0.320682913
v 0.0277000889 0.0500000194 0.286827862
v 0.0277000889 2.79999995 0.294345707
v 0.00855759624 0.0500199795 0.260490686
v 0.00856213085 2.80001974 0.267994434
v -0.0224096738 0.049999997 0.42250073
v 0.00855987519 2.79999995 0.412438154
v 0.00855987519 0.049999997 0.412438124
v -0.0224096738 2.79999995 0.422500759
v -0.0224096775 2.79999995 0.455064088
v -0.0224096775 0.049999997 0.455064029
v 0.00855987519 0.049999997 0.465126634
v 0.00855987519 2.79999995 0.465126663
v 0.0277000945 0.049999997 0.438782364
v 0.0277000945 2.79999995 0.438782424
v 0.00855987519 0.049999997 0.412438124
v 0.00855987519 2.79999995 0.412438154
v -0.0224096738 0.049999997 0.566945136
v 0.00855987985 2.79999995 0.55688256
v 0.00855987985 0.049999997 0.55688256
v -0.0224096738 2.79999995 0.566945195
v -0.0224096719 2.79999995 0.599508524
v -0.0224096719 0.049999997 0.599508464
v 0.00855987053 0.049999997 0.60957104
v 0.00855987053 2.79999995 0.609571099
v 0.0277000945 0.049999997 0.5832268
v 0.0277000945 2.79999995 0.58322686
v 0.00855987985 0.049999997 0.55688256
v 0.00855987985 2.79999995 0.55688256
v -0.0224096738 0.049999997 0.711389542
v 0.00855987519 2.79999995 0.701326966
v 0.00855987519 0.049999997 0.701326966
v -0.0224096738 2.79999995 0.711389542
v -0.0224096738 2.79999995 0.74395299
v -0.0224096738 0.049999997 0.74395299
v 0.00855987519 0.049999997 0.754015565
v 0.00855987519 2.79999995 0.754015565
v 0.0277000945 0.049999997 0.727671266
v 0.0277000945 2.79999995 0.727671266
v 0.00855987519 0.049999997 0.701326966
v 0.00855987519 2.79999995 0.701326966
v -0.0224100444 0.049999997 0.855834544
v 0.00856045261 2.79999995 0.845771611
v 0.00856045261 0.049999997 0.845771611
v -0.0224100444 2.79999995 0.855834544
v -0.0224100463 2.79999995 0.8883968
v -0.0224100463 0.049999997 0.8883968
v 0.00856045261 0.049999997 0.898459733
v 0.00856045261 2.79999995 0.898459733
v 0.0277000945 0.049999997 0.872115672
v 0.0277000945 2.79999995 0.872115672
v 0.00856045261 0.049999997 0.845771611
v 0.00856045261 2.79999995 0.845771611
v -0.0224096868 0.049999997 1.00027847
v 0.00855986588 2.79999995 0.990215838
v 0.00855986588 0.049999997 0.990215838
v -0.0224096868 2.79999995 1.00027847
v -0.022409685 2.79999995 1.03284168
v -0.022409685 0.049999997 1.03284168
v 0.00855986122 0.049999997 1.04290438
v 0.00855986122 2.79999995 1.04290438
v 0.0277000945 0.049999997 1.01656008
v 0.0277000945 2.79999995 1.01656008
v 0.00855986588 0.049999997 0.990215838
v 0.00855986588 2.79999995 0.990215838
v -0.0224100444 0.049999997 1.14472342
v 0.00856045261 2.79999995 1.13466048
v 0.00856045261 0.049999997 1.13466048
v -0.0224100444 2.79999995 1.14472342
v -0.0224100444 2.79999995 1.17728567
v -0.0224100444 0.049999997 1.17728567
v 0.00856045261 0.049999997 1.1873486
v 0.00856045261 2.79999995 1.1873486
v 0.0277000945 0.049999997 1.16100454
v 0.0277000945 2.79999995 1.16100454
v 0.00856045261 0.049999997 1.13466048
v 0.00856045261 2.79999995 1.13466048
v 0.027750764 2.10895109 -1.27946389
v -0.0277505387 2.10895109 -1.27946389
v -0.0277505349 2.10895109 1.28252578
v 0.027750764 2.10895109 1.28252578
v -0.0277505387 2.05344963 -1.27946389
v 0.027750764 2.05344963 -1.27946389
v 0.027750764 2.05344963 1.28252578
v -0.0277505349 2.05344963 1.28252578
v 0.027750764 2.10895109 1.28252578
v 0.027750764 2.05344963 1.28252578
v 0.027750764 2.05344963 -1.27946389
v 0.027750764 2.10895109 -1.27946389
v -0.0277505387 2.10895109 -1.27946389
v -0.0277505387 2.05344963 -1.27946389
v -0.0277505349 2.05344963 1.28252578
v -0.0277505349 2.10895109 1.28252578
v -0.0277505387 2.5393548 -1.27946091
v -0.0277505387 2.48385334 -1.27946091
v -0.0277505349 2.48385334 1.28252578
v -0.0277505349 2.5393548 1.28252578
v 0.027750764 2.48385334 -1.27946091
v 0.027750764 2.5393548 -1.27946091
v 0.027750764 2.5393548 1.28252578
v 0.027750764 2.48385334 1.28252578
v -0.0277505349 2.5393548 1.28252578
v 0.027750764 2.5393548 1.28252578
v 0.027750764 2.5393548 -1.27946091
v -0.0277505387 2.5393548 -1.27946091
v -0.0277505387 2.48385334 -1.27946091
v 0.027750764 2.48385334 -1.27946091
v 0.027750764 2.48385334 1.28252578
v -0.0277505349 2.48385334 1.28252578
v -0.0529446006 1.7490499E-09 1.27238786
v -0.0529446006 2.84999967 1.27238882
v 0.0529448316 2.84999967 1.27238882
v 0.0529448316 1.74904979E-09 1.27238786
v 0.0529448316 1.74904979E-09 1.27238786
v 0.0529448316 2.84999967 1.27238882
v 0.0529448316 2.84999967 1.35314119
v 0.0529448316 -1.74905013E-09 1.35314023
v 0.0529448316 -1.74905013E-09 1.35314023
v 0.0529448316 2.84999967 1.35314119
v -0.0529446118 2.84999967 1.35314119
v -0.0529446118 -1.74905013E-09 1.35314023
v -0.0529446118 -1.74905013E-09 1.35314023
v -0.0529446118 2.84999967 1.35314119
v -0.0529446006 2.84999967 1.27238882
v -0.0529446006 1.7490499E-09 1.27238786
v 0.0529447943 2.85294461 -1.27982545
v -0.052944608 2.85294461 -1.27982545
v -0.052944608 2.85294461 1.28047025
v 0.0529447943 2.85294461 1.28047025
v -0.052944608 2.79705524 -1.27982545
v 0.0529447943 2.79705524 -1.27982545
v 0.0529447943 2.79705524 1.28047025
v -0.052944608 2.79705524 1.28047025
v 0.0529447943 2.85294461 1.28047025
v 0.0529447943 2.79705524 1.28047025
v 0.0529447943 2.79705524 -1.27982545
v 0.0529447943 2.85294461 -1.27982545
v -0.052944608 2.85294461 -1.27982545
v -0.052944608 2.79705524 -1.27982545
v -0.052944608 2.79705524 1.28047025
v -0.052944608 2.85294461 1.28047025
v -0.0529447943 1.7490499E-09 -1.34932995
v -0.0529447943 2.84999967 -1.34932899
v 0.0529446602 2.84999967 -1.34932899
v 0.0529446602 1.74905013E-09 -1.34932995
v 0.0529446602 1.74905013E-09 -1.34932995
v 0.0529446602 2.84999967 -1.34932899
v 0.0529446602 2.84999967 -1.26857698
v 0.0529446602 -5.83016579E-10 -1.26857722
v 0.0529446602 -5.83016579E-10 -1.26857722
v 0.0529446602 2.84999967 -1.26857698
v -0.0529447831 2.84999967 -1.26857698
v -0.0529447831 -5.83016579E-10 -1.26857722
v -0.0529447831 -5.83016579E-10 -1.26857722
v -0.0529447831 2.84999967 -1.26857698
v -0.0529447943 2.84999967 -1.34932899
v -0.0529447943 1.7490499E-09 -1.34932995
v -0.0224096812 0.049999997 -1.17475033
v 0.00855987053 2.79999995 -1.18481302
v 0.00855987053 0.049999997 -1.18481302
v -0.0224096812 2.79999995 -1.17475033
v -0.0224096794 2.79999995 -1.14218712
v -0.0224096794 0.049999997 -1.14218712
v 0.00855986588 0.049999997 -1.13212442
v 0.00855986588 2.79999995 -1.13212442
v 0.0277000945 0.049999997 -1.15846872
v 0.0277000945 2.79999995 -1.15846872
v 0.00855987053 0.049999997 -1.18481302
v 0.00855987053 2.79999995 -1.18481302
v -0.0224100444 0.049999997 -1.0303055
v 0.00856045261 2.79999995 -1.04036844
v 0.00856045261 0.049999997 -1.04036844
v -0.0224100444 2.79999995 -1.0303055
v -0.0224100444 2.79999995 -0.997743189
v -0.0224100444 0.049999997 -0.997743189
v 0.00856045261 0.049999997 -0.987680256
v 0.00856045261 2.79999995 -0.987680256
v 0.0277000945 0.049999997 -1.01402438
v 0.0277000945 2.79999995 -1.01402438
v 0.00856045261 0.049999997 -1.04036844
v 0.00856045261 2.79999995 -1.04036844
v -0.0224096738 0.049999997 -0.885861576
v 0.00855987053 2.79999995 -0.895924151
v 0.00855987053 0.049999997 -0.895924151
v -0.0224096738 2.79999995 -0.885861576
v -0.0224096775 2.79999995 -0.853298187
v -0.0224096775 0.049999997 -0.853298187
v 0.00855987519 0.049999997 -0.843235612
v 0.00855987519 2.79999995 -0.843235612
v 0.0277000945 0.049999997 -0.869579911
v 0.0277000945 2.79999995 -0.869579911
v 0.00855987053 0.049999997 -0.895924151
v 0.00855987053 2.79999995 -0.895924151
v -0.0224096738 0.049999997 -0.74141717
v 0.00855928846 2.79999995 -0.751479864
v 0.00855928846 0.049999997 -0.751479864
v -0.0224096738 2.79999995 -0.74141717
v -0.0224096719 2.79999995 -0.708853722
v -0.0224096719 0.049999997 -0.708853722
v 0.00855987519 0.049999997 -0.698791206
v 0.00855987519 2.79999995 -0.698791206
v 0.0277000945 0.049999997 -0.72513485
v 0.0277000945 2.79999995 -0.72513485
v 0.00855928846 0.049999997 -0.751479864
v 0.00855928846 2.79999995 -0.751479864
v -0.0224096738 0.049999997 -0.596972704
v 0.00855987519 2.79999995 -0.60703522
v 0.00855987519 0.049999997 -0.607035279
v -0.0224096738 2.79999995 -0.596972644
v -0.0224096738 2.79999995 -0.564409256
v -0.0224096738 0.049999997 -0.564409256
v 0.00855987519 0.049999997 -0.554346681
v 0.00855987519 2.79999995 -0.554346621
v 0.0277000945 0.049999997 -0.58069098
v 0.0277000945 2.79999995 -0.58069092
v 0.00855987519 0.049999997 -0.607035279
v 0.00855987519 2.79999995 -0.60703522
v -0.0224093217 0.049999997 -0.452528685
v 0.00855927914 2.79999995 -0.462591022
v 0.00856045261 0.049999997 -0.462590665
v -0.0224100444 2.79999995 -0.452527642
v -0.0224093236 2.79999995 -0.419964403
v -0.0224100463 0.049999997 -0.419965416
v 0.00855927914 0.049999997 -0.409902066
v 0.00856045261 2.79999995 -0.409902424
v 0.0277000945 0.049999997 -0.436246544
v 0.0277000945 2.79999995 -0.436246514
v 0.00856045261 0.049999997 -0.462590665
v 0.00855927914 2.79999995 -0.462591022
v -0.0224096812 0.049999997 -0.308083743
v 0.00855987053 2.79999995 -0.318146408
v 0.00855987053 0.049999997 -0.318146408
v -0.0224096812 2.79999995 -0.308083743
v -0.0224096794 2.79999995 -0.275520504
v -0.0224096794 0.049999997 -0.275520504
v 0.00855986588 0.049999997 -0.265457839
v 0.00855986588 2.79999995 -0.265457839
v 0.0277000945 0.049999997 -0.291802138
v 0.0277000945 2.79999995 -0.291802138
v 0.00855987053 0.049999997 -0.318146408
v 0.00855987053 2.79999995 -0.318146408
v -0.0224140901 0.0499856211 -0.154887021
v 0.00855723862 2.79997683 -0.173702806
v 0.00856247917 0.0499767102 -0.164954901
v -0.0224052574 2.79998565 -0.163645372
v -0.0224140882 2.80001426 -0.131082192
v -0.0224052574 0.0500144139 -0.122323819
v 0.00855723862 0.0500232913 -0.112266392
v 0.00856247917 2.80002308 -0.121014319
v 0.0277000889 0.0500000268 -0.138602287
v 0.0277000889 2.79999995 -0.147366911
v 0.00856247917 0.0499767102 -0.164954901
v 0.00855723862 2.79997683 -0.173702806
v -0.0529446006 1.74905024E-09 -0.0403836854
v -0.0529446006 2.84999967 -0.040382769
v 0.0529448316 2.84999967 -0.0403827652
v 0.0529448316 1.7490499E-09 -0.0403836817
v 0.0529448316 1.7490499E-09 -0.0403836817
v 0.0529448316 2.84999967 -0.0403827652
v 0.0529448316 2.84999967 0.0403694957
v 0.0529448316 -1.7490499E-09 0.0403685793
v 0.0529448316 -1.7490499E-09 0.0403685793
v 0.0529448316 2.84999967 0.0403694957
v -0.0529446118 2.84999967 0.0403694957
v -0.0529446118 -1.7490499E-09 0.0403685793
v -0.0529446118 -1.7490499E-09 0.0403685793
v -0.0529446118 2.84999967 0.0403694957
v -0.0529446006 2.84999967 -0.040382769
v -0.0529446006 1.74905024E-09 -0.0403836854
vn 0.707106769 0.707106829 0
vn -0.707106769 0.707106829 0
vn -0.70710665 0.707106829 0
vn 0.70710665 0.707106829 0
vn -0.70710665 -0.707106829 0
vn 0.70710665 -0.707106829 0
vn 0.707106769 -0.707106829 0
vn -0.707106769 -0.707106829 0
vn 0.70710665 0.707106829 0
vn 0.707106769 -0.707106829 0
vn 0.70710665 -0.707106829 0
vn 0.707106769 0.707106829 0
vn -0.707106769 0.707106829 0
vn -0.70710665 -0.707106829 0
vn -0.707106769 -0.707106829 0
vn -0.70710665 0.707106829 0
vn -0.707106769 0.707106769 0
vn -0.707106769 -0.707106829 0
vn -0.707106769 -0.707106769 0
vn -0.707106769 0.707106829 0
vn 0.707106769 -0.707106829 0
vn 0.707106769 0.707106769 0
vn 0.707106769 0.707106829 0
vn 0.707106769 -0.707106769 0
vn -0.707106769 0.707106829 0
vn 0.707106769 0.707106829 0
vn 0.707106769 0.707106769 0
vn -0.707106769 0.707106769 0
vn -0.707106769 -0.707106829 0
vn 0.707106769 -0.707106829 0
vn 0.707106769 -0.707106769 0
vn -0.707106769 -0.707106769 0
vn 0.707106769 0.707106829 0
vn -0.707106769 0.707106829 0
vn -0.70710665 0.707106829 0
vn 0.70710665 0.707106829 0
vn -0.70710665 -0.707106829 0
vn 0.70710665 -0.707106829 0
vn 0.707106769 -0.707106829 0
vn -0.707106769 -0.707106829 0
vn 0.70710665 0.707106829 0
vn 0.707106769 -0.707106829 0
vn 0.70710665 -0.707106829 0
vn 0.707106769 0.707106829 0
vn -0.707106769 0.707106829 0
vn -0.70710665 -0.707106829 0
vn -0.707106769 -0.707106829 0
vn -0.70710665 0.707106829 0
vn -0.707106769 0.707106769 0
vn -0.707106769 -0.707106769 0
vn -0.707106769 -0.707106769 0
vn -0.707106769 0.707106769 0
vn 0.707106769 -0.707106769 0
vn 0.707106769 0.707106769 0
vn 0.707106769 0.707106769 0
vn 0.707106769 -0.707106769 0
vn -0.707106769 0.707106769 0
vn 0.707106769 0.707106769 0
vn 0.707106769 0.707106769 0
vn -0.707106769 0.707106769 0
vn -0.707106769 -0.707106769 0
vn 0.707106769 -0.707106769 0
vn 0.707106769 -0.707106769 0
vn -0.707106769 -0.707106769 0
vn -0.809013724 0 -0.587789893
vn 0.309017181 0 -0.95105648
vn 0.309017181 0 -0.95105648
vn -0.809013724 0 -0.587789893
vn -0.80902034 0 0.587780714
vn -0.80902034 0 0.587780714
vn 0.309022278 0 0.951054811
vn 0.309022278 0 0.951054811
vn 1 0 -5.41729923E-06
vn 1 0 -5.41729923E-06
vn 0.309017181 0 -0.95105648
vn 0.309017181 0 -0.95105648
vn -0.808664918 0.00160601037 -0.588267446
vn 0.309234768 0.00259624561 -0.950982153
vn 0.308799356 0.00259663211 -0.951123655
vn -0.809367895 0.00160336855 -0.587299824
vn -0.808663785 -0.00160601456 0.588268995
vn -0.809367895 -0.00160336832 0.587299705
vn 0.309233874 -0.00259624701 0.950982511
vn 0.308800578 -0.00259663118 0.951123297
vn 0.999999762 2.01812213E-06 -0.000739171694
vn 0.999999762 -2.02343585E-06 0.000741235621
vn 0.308799356 0.00259663211 -0.951123655
vn 0.309234768 0.00259624561 -0.950982153
vn -0.809016824 0 -0.587785482
vn 0.309017301 0 -0.95105648
vn 0.309017301 0 -0.95105648
vn -0.809016824 0 -0.587785482
vn -0.809016883 0 0.587785423
vn -0.809016883 0 0.587785423
vn 0.309017301 0 0.95105648
vn 0.309017301 0 0.95105648
vn 1 0 0
vn 1 0 0
vn 0.309017301 0 -0.95105648
vn 0.309017301 0 -0.95105648
vn -0.809016883 0 -0.587785423
vn 0.30901739 0 -0.951056361
vn 0.30901739 0 -0.951056361
vn -0.809016883 0 -0.587785423
vn -0.809016824 0 0.587785423
vn -0.809016824 0 0.587785423
vn 0.309017241 0 0.95105648
vn 0.309017241 0 0.95105648
vn 1 0 1.40709616E-07
vn 1 0 1.40709616E-07
vn 0.30901739 0 -0.951056361
vn 0.30901739 0 -0.951056361
vn -0.809016526 0 -0.5877859
vn 0.309018105 0 -0.951056123
vn 0.309018105 0 -0.951056123
vn -0.809016526 0 -0.5877859
vn -0.809016526 0 0.5877859
vn -0.809016526 0 0.5877859
vn 0.309018105 0 0.951056123
vn 0.309018105 0 0.951056123
vn 1 0 0
vn 1 0 0
vn 0.309018105 0 -0.951056123
vn 0.309018105 0 -0.951056123
vn -0.809017122 0 -0.587785125
vn 0.30902198 0 -0.951054811
vn 0.30902198 0 -0.951054811
vn -0.809017122 0 -0.587785125
vn -0.809017181 0 0.587784946
vn -0.809017181 0 0.587784946
vn 0.309022069 0 0.951054811
vn 0.309022069 0 0.951054811
vn 1 0 0
vn 1 0 0
vn 0.30902198 0 -0.951054811
vn 0.30902198 0 -0.951054811
vn -0.809017837 0 -0.587784111
vn 0.30901593 0 -0.951056898
vn 0.30901593 0 -0.951056898
vn -0.809017837 0 -0.587784111
vn -0.809017837 0 0.587784111
vn -0.809017837 0 0.587784111
vn 0.30901587 0 0.951056898
vn 0.30901587 0 0.951056898
vn 1 0 0
vn 1 0 0
vn 0.30901593 0 -0.951056898
vn 0.30901593 0 -0.951056898
vn -0.809017122 0 -0.587785006
vn 0.30902198 0 -0.951054811
vn 0.30902198 0 -0.951054811
vn -0.809017122 0 -0.587785006
vn -0.809017122 0 0.587785006
vn -0.809017122 0 0.587785006
vn 0.30902198 0 0.951054811
vn 0.30902198 0 0.951054811
vn 1 0 0
vn 1 0 0
vn 0.30902198 0 -0.951054811
vn 0.30902198 0 -0.951054811
vn 0.707106769 0.707106829 0
vn -0.707106769 0.707106829 0
vn -0.707106769 0.707106829 0
vn 0.707106769 0.707106829 0
vn -0.707106769 -0.707106829 0
vn 0.707106769 -0.707106829 0
vn 0.707106769 -0.707106829 0
vn -0.707106769 -0.707106829 0
vn 0.707106769 0.707106829 0
vn 0.707106769 -0.707106829 0
vn 0.707106769 -0.707106829 0
vn 0.707106769 0.707106829 0
vn -0.707106769 0.707106829 0
vn -0.707106769 -0.707106829 0
vn -0.707106769 -0.707106829 0
vn -0.707106769 0.707106829 0
vn -0.707106769 0.707106769 0
vn -0.707106769 -0.707106769 0
vn -0.707106769 -0.707106769 0
vn -0.707106769 0.707106769 0
vn 0.707106769 -0.707106769 0
vn 0.707106769 0.707106769 0
vn 0.707106769 0.707106769 0
vn 0.707106769 -0.707106769 0
vn -0.707106769 0.707106769 0
vn 0.707106769 0.707106769 0
vn 0.707106769 0.707106769 0
vn -0.707106769 0.707106769 0
vn -0.707106769 -0.707106769 0
vn 0.707106769 -0.707106769 0
vn 0.707106769 -0.707106769 0
vn -0.707106769 -0.707106769 0
vn -0.70710665 2.271494E-07 -0.707106888
vn -0.707106769 2.27149343E-07 -0.707106769
vn 0.707106829 2.27149314E-07 -0.70710665
vn 0.70710665 2.27149371E-07 -0.707106829
vn 0.70710665 2.27149371E-07 -0.707106829
vn 0.707106829 2.27149314E-07 -0.70710665
vn 0.70710665 -2.27149371E-07 0.707106829
vn 0.707106829 -2.27149314E-07 0.70710665
vn 0.707106829 -2.27149314E-07 0.70710665
vn 0.70710665 -2.27149371E-07 0.707106829
vn -0.707106769 -2.27149371E-07 0.707106829
vn -0.707106888 -2.27149357E-07 0.70710665
vn -0.707106888 -2.27149357E-07 0.70710665
vn -0.707106769 -2.27149371E-07 0.707106829
vn -0.707106769 2.27149343E-07 -0.707106769
vn -0.70710665 2.271494E-07 -0.707106888
vn 0.707106769 0.707106769 0
vn -0.707106769 0.707106769 0
vn -0.707106769 0.707106769 0
vn 0.707106769 0.707106769 0
vn -0.707106769 -0.707106769 0
vn 0.707106769 -0.707106769 0
vn 0.707106769 -0.707106769 0
vn -0.707106769 -0.707106769 0
vn 0.707106769 0.707106769 0
vn 0.707106769 -0.707106769 0
vn 0.707106769 -0.707106769 0
vn 0.707106769 0.707106769 0
vn -0.707106769 0.707106769 0
vn -0.707106769 -0.707106769 0
vn -0.707106769 -0.707106769 0
vn -0.707106769 0.707106769 0
vn -0.70710665 2.27149371E-07 -0.707106829
vn -0.707106888 2.27149329E-07 -0.70710665
vn 0.707106829 2.27149314E-07 -0.70710665
vn 0.70710665 2.27149371E-07 -0.707106829
vn 0.70710665 2.27149371E-07 -0.707106829
vn 0.707106829 2.27149314E-07 -0.70710665
vn 0.707106769 0 0.707106829
vn 0.707106769 0 0.707106769
vn 0.707106769 0 0.707106769
vn 0.707106769 0 0.707106829
vn -0.70710665 0 0.707106829
vn -0.707106769 0 0.707106829
vn -0.707106769 0 0.707106829
vn -0.70710665 0 0.707106829
vn -0.707106888 2.27149329E-07 -0.70710665
vn -0.70710665 2.27149371E-07 -0.707106829
vn -0.809017837 0 -0.587784111
vn 0.309016019 0 -0.951056778
vn 0.309016019 0 -0.951056778
vn -0.809017837 0 -0.587784111
vn -0.809017837 0 0.587784111
vn -0.809017837 0 0.587784111
vn 0.30901596 0 0.951056898
vn 0.30901596 0 0.951056898
vn 1 0 0
vn 1 0 0
vn 0.309016019 0 -0.951056778
vn 0.309016019 0 -0.951056778
vn -0.809017122 0 -0.587785006
vn 0.30902198 0 -0.951054811
vn 0.30902198 0 -0.951054811
vn -0.809017122 0 -0.587785006
vn -0.809017122 0 0.587785006
vn -0.809017122 0 0.587785006
vn 0.30902198 0 0.951054811
vn 0.30902198 0 0.951054811
vn 1 0 0
vn 1 0 0
vn 0.30902198 0 -0.951054811
vn 0.30902198 0 -0.951054811
vn -0.809016526 0 -0.587785959
vn 0.30901745 0 -0.951056361
vn 0.30901745 0 -0.951056361
vn -0.809016526 0 -0.587785959
vn -0.809016526 0 0.5877859
vn -0.809016526 0 0.5877859
vn 0.309018105 0 0.951056123
vn 0.309018105 0 0.951056123
vn 1 0 -7.26999701E-07
vn 1 0 -7.26999701E-07
vn 0.30901745 0 -0.951056361
vn 0.30901745 0 -0.951056361
vn -0.809019566 0 -0.587781847
vn 0.309012383 0 -0.951057971
vn 0.309012383 0 -0.951057971
vn -0.809019566 0 -0.587781847
vn -0.809016526 0 0.587785959
vn -0.809016526 0 0.587785959
vn 0.30901289 0 0.951057851
vn 0.30901289 0 0.951057851
vn 1 0 4.38546886E-06
vn 1 0 4.38546886E-06
vn 0.309012383 0 -0.951057971
vn 0.309012383 0 -0.951057971
vn -0.809016824 0 -0.587785482
vn 0.309017628 0 -0.951056361
vn 0.309017628 0 -0.951056361
vn -0.809016824 0 -0.587785482
vn -0.809016824 0 0.587785482
vn -0.809016824 0 0.587785482
vn 0.309017599 0 0.951056361
vn 0.309017599 0 0.951056361
vn 1 0 0
vn 1 0 0
vn 0.309017628 0 -0.951056361
vn 0.309017628 0 -0.951056361
vn -0.80901736 0 -0.587784767
vn 0.309016287 0 -0.951056778
vn 0.309016615 0 -0.951056659
vn -0.809017599 0 -0.587784469
vn -0.80901742 0 0.587784648
vn -0.809017599 0 0.58778441
vn 0.309016287 0 0.951056778
vn 0.309016556 0 0.951056659
vn 1 0 0
vn 1 0 0
vn 0.309016615 0 -0.951056659
vn 0.309016287 0 -0.951056778
vn -0.80901736 0 -0.587784827
vn 0.309016615 0 -0.95105654
vn 0.309016615 0 -0.95105654
vn -0.80901736 0 -0.587784827
vn -0.80901736 0 0.587784827
vn -0.80901736 0 0.587784827
vn 0.309016526 0 0.951056659
vn 0.309016526 0 0.951056659
vn 1 0 1.17257997E-07
vn 1 0 1.17257997E-07
vn 0.309016615 0 -0.95105654
vn 0.309016615 0 -0.95105654
vn -0.809426546 -0.00186896487 -0.587217987
vn 0.308762312 -0.00302723236 -0.951134443
vn 0.309269071 -0.00302670803 -0.950969756
vn -0.808606446 -0.00187255815 -0.588346958
vn -0.809427261 0.00186896627 0.587217271
vn -0.808606923 0.00187256001 0.588346303
vn 0.308762729 0.00302723609 0.951134205
vn 0.309269607 0.00302671222 0.950969636
vn 0.999999642 2.74429703E-06 0.0008618703
vn 0.999999642 -2.74567242E-06 -0.000863090216
vn 0.309269071 -0.00302670803 -0.950969756
vn 0.308762312 -0.00302723236 -0.951134443
vn -0.70710665 2.271494E-07 -0.707106888
vn -0.707106769 2.27149357E-07 -0.707106829
vn 0.707106888 2.27149329E-07 -0.70710665
vn 0.70710665 2.271494E-07 -0.707106829
vn 0.70710665 2.271494E-07 -0.707106829
vn 0.707106888 2.27149329E-07 -0.70710665
vn 0.70710665 -2.27149371E-07 0.707106829
vn 0.707106829 -2.27149314E-07 0.70710665
vn 0.707106829 -2.27149314E-07 0.70710665
vn 0.70710665 -2.27149371E-07 0.707106829
vn -0.707106769 -2.27149371E-07 0.707106829
vn -0.707106888 -2.27149357E-07 0.70710665
vn -0.707106888 -2.27149357E-07 0.70710665
vn -0.707106769 -2.27149371E-07 0.707106829
vn -0.707106769 2.27149357E-07 -0.707106829
vn -0.70710665 2.271494E-07 -0.707106888
vt 0.501440406 0.285636395
vt 0.501440406 0.321308643
vt 0.998923957 0.321308762
vt 0.998923957 0.285636455
vt 0.501440346 0.285641581
vt 0.501440287 0.321313858
vt 0.998923957 0.321313858
vt 0.998923957 0.285641581
vt 0.998923957 0.321110666
vt 0.998923957 0.3047207
vt 0.501440346 0.30472061
vt 0.501440346 0.321110576
vt 0.501440346 0.304467142
vt 0.501440346 0.320857108
vt 0.998923957 0.320857108
vt 0.998923957 0.304467142
vt 0.999304831 0.305148095
vt 0.999304831 0.279225439
vt 0.500634789 0.279225439
vt 0.500634789 0.305148095
vt 0.500634789 0.279225439
vt 0.500634789 0.305148095
vt 0.999304831 0.305148095
vt 0.999304831 0.279225439
vt 0.500634789 0.277702004
vt 0.500634789 0.30718565
vt 0.999304831 0.30718565
vt 0.999304831 0.277702004
vt 0.500634789 0.277708739
vt 0.500634789 0.307192355
vt 0.999304831 0.307192355
vt 0.999304831 0.277708739
vt 0.999304831 0.348251522
vt 0.999304831 0.322328866
vt 0.500634789 0.322328866
vt 0.500634789 0.348251522
vt 0.500634789 0.322328866
vt 0.500634789 0.348251522
vt 0.999304831 0.348251522
vt 0.999304831 0.322328866
vt 0.500634789 0.32080543
vt 0.500634789 0.350289077
vt 0.999304831 0.350289077
vt 0.999304831 0.32080543
vt 0.500634789 0.320812166
vt 0.500634789 0.350295782
vt 0.999304831 0.350295782
vt 0.999304831 0.320812166
vt 0.999304831 0.305148095
vt 0.999304831 0.279225439
vt 0.500634789 0.279225439
vt 0.500634789 0.305148095
vt 0.500634789 0.279225439
vt 0.500634789 0.305148095
vt 0.999304831 0.305148095
vt 0.999304831 0.279225439
vt 0.500634789 0.277702004
vt 0.500634789 0.30718565
vt 0.999304831 0.30718565
vt 0.999304831 0.277702004
vt 0.500634789 0.277708739
vt 0.500634789 0.307192355
vt 0.999304831 0.307192355
vt 0.999304831 0.277708739
vt 0.50104028 0.465399742
vt 0.99932909 0.460919261
vt 0.50104028 0.460919321
vt 0.99932909 0.465399742
vt 0.99932909 0.469882131
vt 0.50104028 0.469882071
vt 0.50104028 0.474366069
vt 0.99932909 0.474366069
vt 0.50104028 0.478848577
vt 0.99932909 0.478848577
vt 0.50104028 0.483328998
vt 0.99932909 0.483328998
vt 0.50104028 0.330886304
vt 0.99932909 0.326405823
vt 0.50104028 0.326405883
vt 0.99932909 0.330886304
vt 0.99932909 0.335368693
vt 0.50104028 0.335368633
vt 0.50104028 0.339852631
vt 0.99932909 0.339852631
vt 0.50104028 0.344335139
vt 0.99932909 0.344335139
vt 0.50104028 0.34881556
vt 0.99932909 0.34881556
vt 0.00168454647 0.543957353
vt 0.499973357 0.539476871
vt 0.00168454647 0.539476931
vt 0.499973357 0.543957353
vt 0.499973357 0.548439741
vt 0.00168454647 0.548439682
vt 0.00168454647 0.552923679
vt 0.499973357 0.552923679
vt 0.00168454647 0.557406187
vt 0.499973357 0.557406187
vt 0.00168454647 0.561886609
vt 0.499973357 0.561886609
vt 0.50104028 0.258500814
vt 0.99932909 0.254020333
vt 0.50104028 0.254020393
vt 0.99932909 0.258500814
vt 0.99932909 0.262983203
vt 0.50104028 0.262983143
vt 0.50104028 0.267467141
vt 0.99932909 0.267467141
vt 0.50104028 0.271949649
vt 0.99932909 0.271949649
vt 0.50104028 0.27643007
vt 0.99932909 0.27643007
vt 0.50104028 0.297150046
vt 0.99932909 0.292669564
vt 0.50104028 0.292669624
vt 0.99932909 0.297150046
vt 0.99932909 0.301632434
vt 0.50104028 0.301632375
vt 0.50104028 0.306116372
vt 0.99932909 0.306116372
vt 0.50104028 0.31059888
vt 0.99932909 0.31059888
vt 0.50104028 0.315079302
vt 0.99932909 0.315079302
vt 0.50104028 0.271108001
vt 0.99932909 0.26662752
vt 0.50104028 0.26662758
vt 0.99932909 0.271108001
vt 0.99932909 0.27559039
vt 0.50104028 0.27559033
vt 0.50104028 0.280074328
vt 0.99932909 0.280074328
vt 0.50104028 0.284556836
vt 0.99932909 0.284556836
vt 0.50104028 0.289037257
vt 0.99932909 0.289037257
vt 0.50104028 0.470672399
vt 0.99932909 0.466191918
vt 0.50104028 0.466191977
vt 0.99932909 0.470672399
vt 0.99932909 0.475154787
vt 0.50104028 0.475154728
vt 0.50104028 0.479638726
vt 0.99932909 0.479638726
vt 0.50104028 0.484121233
vt 0.99932909 0.484121233
vt 0.50104028 0.488601655
vt 0.99932909 0.488601655
vt 0.50104028 0.297402203
vt 0.99932909 0.292921722
vt 0.50104028 0.292921782
vt 0.99932909 0.297402203
vt 0.99932909 0.301884592
vt 0.50104028 0.301884532
vt 0.50104028 0.30636853
vt 0.99932909 0.30636853
vt 0.50104028 0.310851038
vt 0.99932909 0.310851038
vt 0.50104028 0.315331459
vt 0.99932909 0.315331459
vt 0.999304831 0.348251522
vt 0.999304831 0.322328866
vt 0.500634789 0.322328866
vt 0.500634789 0.348251522
vt 0.500634789 0.322328866
vt 0.500634789 0.348251522
vt 0.999304831 0.348251522
vt 0.999304831 0.322328866
vt 0.500634789 0.32080543
vt 0.500634789 0.350289077
vt 0.999304831 0.350289077
vt 0.999304831 0.32080543
vt 0.500634789 0.320812166
vt 0.500634789 0.350295782
vt 0.999304831 0.350295782
vt 0.999304831 0.320812166
vt 0.999304831 0.305148095
vt 0.999304831 0.279225439
vt 0.500634789 0.279225439
vt 0.500634789 0.305148095
vt 0.500634789 0.279225439
vt 0.500634789 0.305148095
vt 0.999304831 0.305148095
vt 0.999304831 0.279225439
vt 0.500634789 0.277702004
vt 0.500634789 0.30718565
vt 0.999304831 0.30718565
vt 0.999304831 0.277702004
vt 0.500634789 0.277708739
vt 0.500634789 0.307192355
vt 0.999304831 0.307192355
vt 0.999304831 0.277708739
vt 0.500501156 0.318831205
vt 0.999002218 0.318831205
vt 0.999002218 0.305266529
vt 0.500501156 0.305266529
vt 0.500501156 0.319872737
vt 0.999002218 0.319872737
vt 0.999002218 0.310704798
vt 0.500501156 0.310704798
vt 0.500501156 0.321500152
vt 0.999002218 0.321500152
vt 0.999002218 0.30532071
vt 0.500501156 0.30532071
vt 0.500501156 0.321438134
vt 0.999002218 0.321438134
vt 0.999002218 0.309655547
vt 0.500501156 0.309655547
vt 0.501440406 0.285636395
vt 0.501440406 0.321308643
vt 0.998923957 0.321308762
vt 0.998923957 0.285636455
vt 0.501440346 0.285641581
vt 0.501440287 0.321313858
vt 0.998923957 0.321313858
vt 0.998923957 0.285641581
vt 0.998923957 0.321110666
vt 0.998923957 0.3047207
vt 0.501440346 0.30472061
vt 0.501440346 0.321110576
vt 0.501440346 0.304467142
vt 0.501440346 0.320857108
vt 0.998923957 0.320857108
vt 0.998923957 0.304467142
vt 0.500501156 0.318831205
vt 0.999002218 0.318831205
vt 0.999002218 0.305266529
vt 0.500501156 0.305266529
vt 0.500501156 0.319872737
vt 0.999002218 0.319872737
vt 0.999002218 0.310704798
vt 0.500501156 0.310704798
vt 0.500501156 0.321500152
vt 0.999002218 0.321500152
vt 0.999002218 0.30532071
vt 0.500501156 0.30532071
vt 0.500501156 0.321438134
vt 0.999002218 0.321438134
vt 0.999002218 0.309655547
vt 0.500501156 0.309655547
vt 0.50104028 0.465399742
vt 0.99932909 0.460919261
vt 0.50104028 0.460919321
vt 0.99932909 0.465399742
vt 0.99932909 0.469882131
vt 0.50104028 0.469882071
vt 0.50104028 0.474366069
vt 0.99932909 0.474366069
vt 0.50104028 0.478848577
vt 0.99932909 0.478848577
vt 0.50104028 0.483328998
vt 0.99932909 0.483328998
vt 0.50104028 0.330886304
vt 0.99932909 0.326405823
vt 0.50104028 0.326405883
vt 0.99932909 0.330886304
vt 0.99932909 0.335368693
vt 0.50104028 0.335368633
vt 0.50104028 0.339852631
vt 0.99932909 0.339852631
vt 0.50104028 0.344335139
vt 0.99932909 0.344335139
vt 0.50104028 0.34881556
vt 0.99932909 0.34881556
vt 0.00168454647 0.543957353
vt 0.499973357 0.539476871
vt 0.00168454647 0.539476931
vt 0.499973357 0.543957353
vt 0.499973357 0.548439741
vt 0.00168454647 0.548439682
vt 0.00168454647 0.552923679
vt 0.499973357 0.552923679
vt 0.00168454647 0.557406187
vt 0.499973357 0.557406187
vt 0.00168454647 0.561886609
vt 0.499973357 0.561886609
vt 0.50104028 0.258500814
vt 0.99932909 0.254020333
vt 0.50104028 0.254020393
vt 0.99932909 0.258500814
vt 0.99932909 0.262983203
vt 0.50104028 0.262983143
vt 0.50104028 0.267467141
vt 0.99932909 0.267467141
vt 0.50104028 0.271949649
vt 0.99932909 0.271949649
vt 0.50104028 0.27643007
vt 0.99932909 0.27643007
vt 0.50104028 0.297150046
vt 0.99932909 0.292669564
vt 0.50104028 0.292669624
vt 0.99932909 0.297150046
vt 0.99932909 0.301632434
vt 0.50104028 0.301632375
vt 0.50104028 0.306116372
vt 0.99932909 0.306116372
vt 0.50104028 0.31059888
vt 0.99932909 0.31059888
vt 0.50104028 0.315079302
vt 0.99932909 0.315079302
vt 0.50104028 0.271108001
vt 0.99932909 0.26662752
vt 0.50104028 0.26662758
vt 0.99932909 0.271108001
vt 0.99932909 0.27559039
vt 0.50104028 0.27559033
vt 0.50104028 0.280074328
vt 0.99932909 0.280074328
vt 0.50104028 0.284556836
vt 0.99932909 0.284556836
vt 0.50104028 0.289037257
vt 0.99932909 0.289037257
vt 0.50104028 0.470672399
vt 0.99932909 0.466191918
vt 0.50104028 0.466191977
vt 0.99932909 0.470672399
vt 0.99932909 0.475154787
vt 0.50104028 0.475154728
vt 0.50104028 0.479638726
vt 0.99932909 0.479638726
vt 0.50104028 0.484121233
vt 0.99932909 0.484121233
vt 0.50104028 0.488601655
vt 0.99932909 0.488601655
vt 0.50104028 0.297402203
vt 0.99932909 0.292921722
vt 0.50104028 0.292921782
vt 0.99932909 0.297402203
vt 0.99932909 0.301884592
vt 0.50104028 0.301884532
vt 0.50104028 0.30636853
vt 0.99932909 0.30636853
vt 0.50104028 0.310851038
vt 0.99932909 0.310851038
vt 0.50104028 0.315331459
vt 0.99932909 0.315331459
vt 0.500501156 0.318831205
vt 0.999002218 0.318831205
vt 0.999002218 0.305266529
vt 0.500501156 0.305266529
vt 0.500501156 0.319872737
vt 0.999002218 0.319872737
vt 0.999002218 0.310704798
vt 0.500501156 0.310704798
vt 0.500501156 0.321500152
vt 0.999002218 0.321500152
vt 0.999002218 0.30532071
vt 0.500501156 0.30532071
vt 0.500501156 0.321438134
vt 0.999002218 0.321438134
vt 0.999002218 0.309655547
vt 0.500501156 0.309655547
g submesh0
f 1/1/1 2/2/2 3/3/3
f 1/1/1 3/3/3 4/4/4
f 5/5/5 6/6/6 7/7/7
f 5/5/5 7/7/7 8/8/8
f 9/9/9 10/10/10 11/11/11
f 9/9/9 11/11/11 12/12/12
f 13/13/13 14/14/14 15/15/15
f 13/13/13 15/15/15 16/16/16
f 17/17/17 18/18/18 19/19/19
f 17/17/17 19/19/19 20/20/20
f 21/21/21 22/22/22 23/23/23
f 21/21/21 23/23/23 24/24/24
f 25/25/25 26/26/26 27/27/27
f 25/25/25 27/27/27 28/28/28
f 29/29/29 30/30/30 31/31/31
f 29/29/29 31/31/31 32/32/32
f 33/33/33 34/34/34 35/35/35
f 33/33/33 35/35/35 36/36/36
f 37/37/37 38/38/38 39/39/39
f 37/37/37 39/39/39 40/40/40
f 41/41/41 42/42/42 43/43/43
f 41/41/41 43/43/43 44/44/44
f 45/45/45 46/46/46 47/47/47
f 45/45/45 47/47/47 48/48/48
f 49/49/49 50/50/50 51/51/51
f 49/49/49 51/51/51 52/52/52
f 53/53/53 54/54/54 55/55/55
f 53/53/53 55/55/55 56/56/56
f 57/57/57 58/58/58 59/59/59
f 57/57/57 59/59/59 60/60/60
f 61/61/61 62/62/62 63/63/63
f 61/61/61 63/63/63 64/64/64
f 65/65/65 66/66/66 67/67/67
f 65/65/65 68/68/68 66/66/66
f 65/65/65 69/69/69 68/68/68
f 65/65/65 70/70/70 69/69/69
f 71/71/71 69/69/69 70/70/70
f 71/71/71 72/72/72 69/69/69
f 73/73/73 72/72/72 71/71/71
f 73/73/73 74/74/74 72/72/72
f 75/75/75 74/74/74 73/73/73
f 75/75/75 76/76/76 74/74/74
f 77/77/77 78/78/78 79/79/79
f 77/77/77 80/80/80 78/78/78
f 77/77/77 81/81/81 80/80/80
f 77/77/77 82/82/82 81/81/81
f 83/83/83 81/81/81 82/82/82
f 83/83/83 84/84/84 81/81/81
f 85/85/85 84/84/84 83/83/83
f 85/85/85 86/86/86 84/84/84
f 87/87/87 86/86/86 85/85/85
f 87/87/87 88/88/88 86/86/86
f 89/89/89 90/90/90 91/91/91
f 89/89/89 92/92/92 90/90/90
f 89/89/89 93/93/93 92/92/92
f 89/89/89 94/94/94 93/93/93
f 95/95/95 93/93/93 94/94/94
f 95/95/95 96/96/96 93/93/93
f 97/97/97 96/96/96 95/95/95
f 97/97/97 98/98/98 96/96/96
f 99/99/99 98/98/98 97/97/97
f 99/99/99 100/100/100 98/98/98
f 101/101/101 102/102/102 103/103/103
f 101/101/101 104/104/104 102/102/102
f 101/101/101 105/105/105 104/104/104
f 101/101/101 106/106/106 105/105/105
f 107/107/107 105/105/105 106/106/106
f 107/107/107 108/108/108 105/105/105
f 109/109/109 108/108/108 107/107/107
f 109/109/109 110/110/110 108/108/108
f 111/111/111 110/110/110 109/109/109
f 111/111/111 112/112/112 110/110/110
f 113/113/113 114/114/114 115/115/115
f 113/113/113 116/116/116 114/114/114
f 113/113/113 117/117/117 116/116/116
f 113/113/113 118/118/118 117/117/117
f 119/119/119 117/117/117 118/118/118
f 119/119/119 120/120/120 117/117/117
f 121/121/121 120/120/120 119/119/119
f 121/121/121 122/122/122 120/120/120
f 123/123/123 122/122/122 121/121/121
f 123/123/123 124/124/124 122/122/122
f 125/125/125 126/126/126 127/127/127
f 125/125/125 128/128/128 126/126/126
f 125/125/125 129/129/129 128/128/128
f 125/125/125 130/130/130 129/129/129
f 131/131/131 129/129/129 130/130/130
f 131/131/131 132/132/132 129/129/129
f 133/133/133 132/132/132 131/131/131
f 133/133/133 134/134/134 132/132/132
f 135/135/135 134/134/134 133/133/133
f 135/135/135 136/136/136 134/134/134
f 137/137/137 138/138/138 139/139/139
f 137/137/137 140/140/140 138/138/138
f 137/137/137 141/141/141 140/140/140
f 137/137/137 142/142/142 141/141/141
f 143/143/143 141/141/141 142/142/142
f 143/143/143 144/144/144 141/141/141
f 145/145/145 144/144/144 143/143/143
f 145/145/145 146/146/146 144/144/144
f 147/147/147 146/146/146 145/145/145
f 147/147/147 148/148/148 146/146/146
f 149/149/149 150/150/150 151/151/151
f 149/149/149 152/152/152 150/150/150
f 149/149/149 153/153/153 152/152/152
f 149/149/149 154/154/154 153/153/153
f 155/155/155 153/153/153 154/154/154
f 155/155/155 156/156/156 153/153/153
f 157/157/157 156/156/156 155/155/155
f 157/157/157 158/158/158 156/156/156
f 159/159/159 158/158/158 157/157/157
f 159/159/159 160/160/160 158/158/158
f 161/161/161 162/162/162 163/163/163
f 161/161/161 163/163/163 164/164/164
f 165/165/165 166/166/166 167/167/167
f 165/165/165 167/167/167 168/168/168
f 169/169/169 170/170/170 171/171/171
f 169/169/169 171/171/171 172/172/172
f 173/173/173 174/174/174 175/175/175
f 173/173/173 175/175/175 176/176/176
f 177/177/177 178/178/178 179/179/179
f 177/177/177 179/179/179 180/180/180
f 181/181/181 182/182/182 183/183/183
f 181/181/181 183/183/183 184/184/184
f 185/185/185 186/186/186 187/187/187
f 185/185/185 187/187/187 188/188/188
f 189/189/189 190/190/190 191/191/191
f 189/189/189 191/191/191 192/192/192
f 193/193/193 194/194/194 195/195/195
f 193/193/193 195/195/195 196/196/196
f 197/197/197 198/198/198 199/199/199
f 197/197/197 199/199/199 200/200/200
f 201/201/201 202/202/202 203/203/203
f 201/201/201 203/203/203 204/204/204
f 205/205/205 206/206/206 207/207/207
f 205/205/205 207/207/207 208/208/208
f 209/209/209 210/210/210 211/211/211
f 209/209/209 211/211/211 212/212/212
f 213/213/213 214/214/214 215/215/215
f 213/213/213 215/215/215 216/216/216
f 217/217/217 218/218/218 219/219/219
f 217/217/217 219/219/219 220/220/220
f 221/221/221 222/222/222 223/223/223
f 221/221/221 223/223/223 224/224/224
f 225/225/225 226/226/226 227/227/227
f 225/225/225 227/227/227 228/228/228
f 229/229/229 230/230/230 231/231/231
f 229/229/229 231/231/231 232/232/232
f 233/233/233 234/234/234 235/235/235
f 233/233/233 235/235/235 236/236/236
f 237/237/237 238/238/238 239/239/239
f 237/237/237 239/239/239 240/240/240
f 241/241/241 242/242/242 243/243/243
f 241/241/241 244/244/244 242/242/242
f 241/241/241 245/245/245 244/244/244
f 241/241/241 246/246/246 245/245/245
f 247/247/247 245/245/245 246/246/246
f 247/247/247 248/248/248 245/245/245
f 249/249/249 248/248/248 247/247/247
f 249/249/249 250/250/250 248/248/248
f 251/251/251 250/250/250 249/249/249
f 251/251/251 252/252/252 250/250/250
f 253/253/253 254/254/254 255/255/255
f 253/253/253 256/256/256 254/254/254
f 253/253/253 257/257/257 256/256/256
f 253/253/253 258/258/258 257/257/257
f 259/259/259 257/257/257 258/258/258
f 259/259/259 260/260/260 257/257/257
f 261/261/261 260/260/260 259/259/259
f 261/261/261 262/262/262 260/260/260
f 263/263/263 262/262/262 261/261/261
f 263/263/263 264/264/264 262/262/262
f 265/265/265 266/266/266 267/267/267
f 265/265/265 268/268/268 266/266/266
f 265/265/265 269/269/269 268/268/268
f 265/265/265 270/270/270 269/269/269
f 271/271/271 269/269/269 270/270/270
f 271/271/271 272/272/272 269/269/269
f 273/273/273 272/272/272 271/271/271
f 273/273/273 274/274/274 272/272/272
f 275/275/275 274/274/274 273/273/273
f 275/275/275 276/276/276 274/274/274
f 277/277/277 278/278/278 279/279/279
f 277/277/277 280/280/280 278/278/278
f 277/277/277 281/281/281 280/280/280
f 277/277/277 282/282/282 281/281/281
f 283/283/283 281/281/281 282/282/282
f 283/283/283 284/284/284 281/281/281
f 285/285/285 284/284/284 283/283/283
f 285/285/285 286/286/286 284/284/284
f 287/287/287 286/286/286 285/285/285
f 287/287/287 288/288/288 286/286/286
f 289/289/289 290/290/290 291/291/291
f 289/289/289 292/292/292 290/290/290
f 289/289/289 293/293/293 292/292/292
f 289/289/289 294/294/294 293/293/293
f 295/295/295 293/293/293 294/294/294
f 295/295/295 296/296/296 293/293/293
f 297/297/297 296/296/296 295/295/295
f 297/297/297 298/298/298 296/296/296
f 299/299/299 298/298/298 297/297/297
f 299/299/299 300/300/300 298/298/298
f 301/301/301 302/302/302 303/303/303
f 301/301/301 304/304/304 302/302/302
f 301/301/301 305/305/305 304/304/304
f 301/301/301 306/306/306 305/305/305
f 307/307/307 305/305/305 306/306/306
f 307/307/307 308/308/308 305/305/305
f 309/309/309 308/308/308 307/307/307
f 309/309/309 310/310/310 308/308/308
f 311/311/311 310/310/310 309/309/309
f 311/311/311 312/312/312 310/310/310
f 313/313/313 314/314/314 315/315/315
f 313/313/313 316/316/316 314/314/314
f 313/313/313 317/317/317 316/316/316
f 313/313/313 318/318/318 317/317/317
f 319/319/319 317/317/317 318/318/318
f 319/319/319 320/320/320 317/317/317
f 321/321/321 320/320/320 319/319/319
f 321/321/321 322/322/322 320/320/320
f 323/323/323 322/322/322 321/321/321
f 323/323/323 324/324/324 322/322/322
f 325/325/325 326/326/326 327/327/327
f 325/325/325 328/328/328 326/326/326
f 325/325/325 329/329/329 328/328/328
f 325/325/325 330/330/330 329/329/329
f 331/331/331 329/329/329 330/330/330
f 331/331/331 332/332/332 329/329/329
f 333/333/333 332/332/332 331/331/331
f 333/333/333 334/334/334 332/332/332
f 335/335/335 334/334/334 333/333/333
f 335/335/335 336/336/336 334/334/334
f 337/337/337 338/338/338 339/339/339
f 337/337/337 339/339/339 340/340/340
f 341/341/341 342/342/342 343/343/343
f 341/341/341 343/343/343 344/344/344
f 345/345/345 346/346/346 347/347/347
f 345/345/345 347/347/347 348/348/348
f 349/349/349 350/350/350 351/351/351
f 349/349/349 351/351/351 352/352/352
