# wall.collision
v -0.1020578 3.00000381 -1.50000048
v -0.1020578 9.79232175E-15 -1.5000006
v -0.1020578 9.60862571E-15 1.4999994
v -0.1020578 3.00000381 1.49999952
v -0.1020578 3.00000381 -1.50000048
v -0.1020578 3.00000381 1.49999952
v -0.00103027339 3.00000381 1.50499916
v -0.1020578 9.60862571E-15 1.4999994
v -0.00103027339 9.60831908E-15 1.5049994
v -0.1020578 9.79232175E-15 -1.5000006
v -0.00103027339 9.79262837E-15 -1.50500059
v -0.00103027339 3.00000381 -1.50500071
v 0.0999975577 9.60862571E-15 1.4999994
v 0.0999975577 3.00000381 1.4999994
v 0.0999975577 3.00000381 -1.5000006
v 0.0999975577 9.79232175E-15 -1.5000006
vn -0.590088367 0.579995811 -0.561605453
vn -0.590088725 -0.579995036 -0.561605811
vn -0.590087593 -0.579995573 0.561606407
vn -0.59008795 0.579994798 0.561606824
vn -0.590088367 0.579995811 -0.561605453
vn -0.59008795 0.579994798 0.561606824
vn 2.16489852E-07 0.696148872 0.717897475
vn -0.590087593 -0.579995573 0.561606407
vn 2.16489994E-07 -0.696148396 0.717897892
vn -0.590088725 -0.579995036 -0.561605811
vn -3.23882716E-07 -0.696148396 -0.717897832
vn -3.23882972E-07 0.696147859 -0.717898428
vn 0.590087891 -0.579995453 0.561606288
vn 0.590088069 0.579995155 0.561606467
vn 0.590088248 0.579995513 -0.561605811
vn 0.590088487 -0.579995155 -0.56160599
g submesh0
f 1//1 2//2 3//3
f 3//3 4//4 1//1
f 5//5 6//6 7//7
f 8//8 7//7 6//6
f 7//7 8//8 9//9
f 9//9 8//8 10//10
f 5//5 11//11 10//10
f 10//10 11//11 9//9
f 7//7 12//12 5//5
f 11//11 5//5 12//12
f 13//13 9//9 11//11
f 9//9 14//14 7//7
f 14//14 9//9 13//13
f 15//15 7//7 14//14
f 7//7 15//15 12//12
f 15//15 14//14 13//13
f 11//11 16//16 13//13
f 12//12 16//16 11//11
f 16//16 12//12 15//15
f 13//13 16//16 15//15
