# wall.external.high.stone_LOD2
v -3.10105681 5.25120211 -0.344651222
v -3 5.26360178 4.95910626E-07
v -3.02772975 5.25120211 -0.396406323
v -3.10206294 5.25120211 0.342648029
v -3.00002527 5.25120211 0.396407723
v -3.1478703 5.25120163 7.24792471E-07
v -3.10105681 5.25120211 -0.344651222
v -3.08314633 4.78219223 -0.277240276
v -3.12996006 4.78219223 6.86645478E-07
v -3.02772975 5.25120211 -0.396406323
v -3.00981927 4.78219223 -0.318872511
v 3.10105681 5.25120211 0.344651282
v 3 5.26360178 7.62939436E-08
v 3.02772975 5.25120211 0.396406442
v 3.10206294 5.25120211 -0.34264788
v 3.00002527 5.25120211 -0.396407127
v 3.1478703 5.25120163 -6.10351549E-07
v 3.10105681 5.25120211 0.344651282
v 3.08314633 4.78219223 0.277240336
v 3.12996006 4.78219223 -6.10351549E-07
v 3.02772975 5.25120211 0.396406442
v 3.00981927 4.78219223 0.318872631
v 2.94084525 -0.936254263 -0.857261419
v -3.09633851 -0.952191114 -0.754141986
v -3.02830434 0.515841842 -0.579102218
v 2.96210623 0.552906454 -0.617028952
v 2.99571538 1.33260834 -0.424349695
v -3.02830434 1.26461804 -0.398126721
v -3.01043725 1.95872009 -0.358443111
v 3 1.99374533 -0.318907022
v -3 5.26360178 4.95910626E-07
v 3 5.26360178 7.62939436E-08
v 3.00002527 5.25120211 -0.396407127
v -3.02772975 5.25120211 -0.396406323
v -3.00981927 4.78219223 -0.318872511
v 3.00000238 4.79689646 -0.318154186
v 3 1.99374533 -0.318907022
v -3.01043725 1.95872009 -0.358443111
v -3.09633851 -0.952191114 -0.754141986
v -3.19272017 -0.944222689 7.24792471E-07
v -3.18318892 0.513081193 6.86645478E-07
v -3.1016314 0.515841842 -0.503494203
v -3.02830434 0.515841842 -0.579102218
v -3.02830434 1.26461804 -0.398126721
v -3.1016314 1.26461804 -0.346146971
v -3.13692045 1.27789652 6.86645478E-07
v -3.01043725 1.95872009 -0.358443111
v -3.13057804 1.95871985 7.24792471E-07
v -3.08376408 1.95872009 -0.311644465
v -3.00981927 4.78219223 -0.318872511
v -3.12996006 4.78219223 6.86645478E-07
v -3.08314633 4.78219223 -0.277240276
v -3.00000238 4.79689646 0.318154782
v -3.08916092 1.95779872 0.318361998
v -3 1.99374533 0.31890735
v -3.08931136 4.83460283 0.318628728
v -3.00002527 5.25120211 0.396407723
v -3.13057804 1.95871985 7.24792471E-07
v -3.10206294 5.25120211 0.342648029
v -3.12996006 4.78219223 6.86645478E-07
v -3.1478703 5.25120163 7.24792471E-07
v -2.99571538 1.33260834 0.424349934
v -3 1.99374533 0.31890735
v -3.08916092 1.95779872 0.318361998
v -3.11035848 1.33260834 0.363910168
v -2.96210647 0.552906454 0.61702913
v -3.13692045 1.27789652 6.86645478E-07
v -3.13057804 1.95871985 7.24792471E-07
v -3.18318892 0.513081193 6.86645478E-07
v -3.16644859 0.552906454 0.513507724
v -2.94084525 -0.936254263 0.857261479
v -3.19272017 -0.944222689 7.24792471E-07
v -3.24228811 -0.936254263 0.684212923
v -2.94084525 -0.936254263 0.857261479
v 3.09633851 -0.952191114 0.754141629
v 3.02830434 0.515841842 0.57910198
v -2.96210647 0.552906454 0.61702913
v -2.99571538 1.33260834 0.424349934
v 3.02830434 1.26461804 0.398126483
v 3.01043725 1.95872009 0.358442932
v -3 1.99374533 0.31890735
v 3 5.26360178 7.62939436E-08
v -3 5.26360178 4.95910626E-07
v -3.00002527 5.25120211 0.396407723
v 3.02772975 5.25120211 0.396406442
v 3.00981927 4.78219223 0.318872631
v -3.00000238 4.79689646 0.318154782
v -3 1.99374533 0.31890735
v 3.01043725 1.95872009 0.358442932
v 3.09633851 -0.952191114 0.754141629
v 3.19272017 -0.944222689 -1.14440911E-06
v 3.18318892 0.513081193 -9.91821253E-07
v 3.1016314 0.515841842 0.503493905
v 3.02830434 0.515841842 0.57910198
v 3.02830434 1.26461804 0.398126483
v 3.1016314 1.26461804 0.346146733
v 3.13692045 1.27789652 -9.15527323E-07
v 3.01043725 1.95872009 0.358442932
v 3.13057804 1.95871985 -8.7738033E-07
v 3.08376408 1.95872009 0.311644316
v 3.00981927 4.78219223 0.318872631
v 3.12996006 4.78219223 -6.10351549E-07
v 3.08314633 4.78219223 0.277240336
v 3.00000238 4.79689646 -0.318154186
v 3.08916092 1.95779884 -0.318362147
v 3 1.99374533 -0.318907022
v 3.08931136 4.83460283 -0.318628639
v 3.00002527 5.25120211 -0.396407127
v 3.13057804 1.95871985 -8.7738033E-07
v 3.10206294 5.25120211 -0.34264788
v 3.12996006 4.78219223 -6.10351549E-07
v 3.1478703 5.25120163 -6.10351549E-07
v 2.99571538 1.33260834 -0.424349695
v 3 1.99374533 -0.318907022
v 3.08916092 1.95779884 -0.318362147
v 3.11035848 1.33260834 -0.363910407
v 2.96210623 0.552906454 -0.617028952
v 3.13692045 1.27789652 -9.15527323E-07
v 3.13057804 1.95871985 -8.7738033E-07
v 3.18318892 0.513081193 -9.91821253E-07
v 3.16644859 0.552906632 -0.513508022
v 2.94084525 -0.936254263 -0.857261419
v 3.19272017 -0.944222689 -1.14440911E-06
v 3.24228787 -0.936254263 -0.6842134
v 3.36076069 0.554897606 -0.76938796
v 3.33514786 -0.859049678 -1.01862431
v 0.94524771 -0.910999119 -1.02317071
v 0.982224584 0.503195345 -0.773912668
v 3.20373559 1.48045576 -0.605904341
v 1.69435692 1.44764626 -0.608775675
v 1.53592312 -0.82603699 -1.00438392
v -1.01293492 -0.960133672 -0.929051042
v -1.11544931 1.55414009 -0.461711764
v 1.46210718 1.04405105 -0.621148229
v 0.796658397 -0.930688441 -1.06304681
v 0.0842649043 -0.859163821 -1.0192492
v 0.136169255 0.723007739 -0.734368861
v 0.195596084 0.712555826 -0.712848961
v 0.938611984 0.637943387 -0.763746262
v -2.48687911 -1.2879529 -1.15121734
v -3.12310338 -1.3053906 -1.16735852
v -3.18515611 1.23552299 -0.605287433
v -2.54893279 1.2529608 -0.589146435
v -0.767572701 -1.23107481 -1.10543609
v -0.836144865 1.30983901 -0.689459205
v -2.37405872 -0.854260206 1.07136834
v -1.03757143 -0.872597635 0.983861983
v -1.00375307 1.48711467 0.603090525
v -2.34024048 1.50545251 0.690596759
v -3.40883207 -0.735470891 1.12234437
v -3.38747334 0.754841685 0.881861985
v -1.78717017 -0.626874387 0.946836531
v 0.609940231 -1.49473262 1.09182918
v 1.47588527 0.857594907 0.574938536
v -1.14275742 1.12176585 0.52667743
v 0.803299069 -1.28261101 1.09578168
v 3.15982938 -1.25410891 1.15770447
v 3.11099029 1.28709328 0.595633864
v 0.760972798 1.25887597 0.679805338
vn -0.987696946 -0.0484043583 -0.148699939
vn 0 1 0
vn 0 0.999511123 -0.0312646739
vn -0.990459204 -0.0378856696 0.132496625
vn 0 0.999511123 0.0312646851
vn -0.999016523 -0.0435785465 -0.00818307139
vn -0.987696946 -0.0484043583 -0.148699939
vn -0.987958074 -0.0236232728 -0.15290767
vn -0.999703228 -0.0214821231 -0.0114811705
vn 0 0.999511123 -0.0312646739
vn 0.00331912725 0.00716594839 -0.999968886
vn 0.987696946 -0.048404377 0.148699954
vn 0 1 0
vn 0 0.999511123 0.0312646851
vn 0.990459204 -0.0378856473 -0.132496625
vn 0 0.999511123 -0.0312646739
vn 0.999016523 -0.043578539 0.00818307884
vn 0.987696946 -0.048404377 0.148699954
vn 0.987958074 -0.0236232858 0.152907684
vn 0.999703228 -0.0214821193 0.011481178
vn 0 0.999511123 0.0312646851
vn -0.00331904995 0.00716585387 0.999968886
vn -0.0122258253 0.139414966 -0.990158498
vn -0.0122258253 0.139414966 -0.990158498
vn -0.0122258253 0.139414966 -0.990158498
vn -0.0122258253 0.139414966 -0.990158498
vn -0.00354563538 0.172427252 -0.985015869
vn -0.00354563538 0.172427252 -0.985015869
vn 0.00175600755 0.0568902232 -0.998378873
vn 0.00175600755 0.0568902232 -0.998378873
vn 0 1 0
vn 0 1 0
vn 0 0.999511123 -0.0312646739
vn 0 0.999511123 -0.0312646739
vn 0.00331912725 0.00716594839 -0.999968886
vn 0.00331912725 0.00716594839 -0.999968886
vn 0.00175600755 0.0568902232 -0.998378873
vn 0.00175600755 0.0568902232 -0.998378873
vn -0.0122258253 0.139414966 -0.990158498
vn -0.996219695 0.0204039775 -0.0844396725
vn -0.997051716 0.038944602 -0.066114977
vn -0.989952147 0.0289525986 -0.138407469
vn -0.0122258253 0.139414966 -0.990158498
vn -0.00354563538 0.172427252 -0.985015869
vn -0.990920663 0.032524202 -0.130454496
vn -0.998724997 0.0400913507 -0.0306747723
vn 0.00175600755 0.0568902232 -0.998378873
vn -0.999831557 0.0116471294 -0.0141848223
vn -0.989998996 0.010881179 -0.140654117
vn 0.00331912725 0.00716594839 -0.999968886
vn -0.999703228 -0.0214821231 -0.0114811705
vn -0.987958074 -0.0236232728 -0.15290767
vn -0.00331904995 0.00716585387 0.999968886
vn -0.993574917 0.012225654 0.112513714
vn -0.00175593141 0.0568901189 0.998378873
vn -0.99131304 -0.0189086143 0.130157769
vn 0 0.999511123 0.0312646851
vn -0.999831557 0.0116471294 -0.0141848223
vn -0.990459204 -0.0378856696 0.132496625
vn -0.999703228 -0.0214821231 -0.0114811705
vn -0.999016523 -0.0435785465 -0.00818307139
vn 0.00354570989 0.172427177 0.985015869
vn -0.00175593141 0.0568901189 0.998378873
vn -0.993574917 0.012225654 0.112513714
vn -0.996464074 0.0472585037 0.0694698095
vn 0.0122259073 0.139414892 0.990158617
vn -0.998724997 0.0400913507 -0.0306747723
vn -0.999831557 0.0116471294 -0.0141848223
vn -0.997051716 0.038944602 -0.066114977
vn -0.998790085 0.0487342253 0.00658563571
vn 0.0122259073 0.139414892 0.990158617
vn -0.996219695 0.0204039775 -0.0844396725
vn -0.999221563 0.027301617 -0.0284764059
vn 0.0122259073 0.139414892 0.990158617
vn 0.0122259073 0.139414892 0.990158617
vn 0.0122259073 0.139414892 0.990158617
vn 0.0122259073 0.139414892 0.990158617
vn 0.00354570989 0.172427177 0.985015869
vn 0.00354570989 0.172427177 0.985015869
vn -0.00175593141 0.0568901189 0.998378873
vn -0.00175593141 0.0568901189 0.998378873
vn 0 1 0
vn 0 1 0
vn 0 0.999511123 0.0312646851
vn 0 0.999511123 0.0312646851
vn -0.00331904995 0.00716585387 0.999968886
vn -0.00331904995 0.00716585387 0.999968886
vn -0.00175593141 0.0568901189 0.998378873
vn -0.00175593141 0.0568901189 0.998378873
vn 0.0122259073 0.139414892 0.990158617
vn 0.996219695 0.0204039272 0.0844395459
vn 0.997051716 0.0389445797 0.0661149099
vn 0.989952147 0.0289525911 0.138407469
vn 0.0122259073 0.139414892 0.990158617
vn 0.00354570989 0.172427177 0.985015869
vn 0.990920663 0.0325241908 0.13045451
vn 0.998724997 0.0400913507 0.0306747872
vn -0.00175593141 0.0568901189 0.998378873
vn 0.999831557 0.0116471266 0.014184827
vn 0.989998996 0.010881166 0.140654117
vn -0.00331904995 0.00716585387 0.999968886
vn 0.999703228 -0.0214821193 0.011481178
vn 0.987958074 -0.0236232858 0.152907684
vn 0.00331912725 0.00716594839 -0.999968886
vn 0.993574917 0.0122256661 -0.112513714
vn 0.00175600755 0.0568902232 -0.998378873
vn 0.99131304 -0.0189086013 -0.130157769
vn 0 0.999511123 -0.0312646739
vn 0.999831557 0.0116471266 0.014184827
vn 0.990459204 -0.0378856473 -0.132496625
vn 0.999703228 -0.0214821193 0.011481178
vn 0.999016523 -0.043578539 0.00818307884
vn -0.00354563538 0.172427252 -0.985015869
vn 0.00175600755 0.0568902232 -0.998378873
vn 0.993574917 0.0122256661 -0.112513714
vn 0.996464074 0.0472585149 -0.0694698021
vn -0.0122258253 0.139414966 -0.990158498
vn 0.998724997 0.0400913507 0.0306747872
vn 0.999831557 0.0116471266 0.014184827
vn 0.997051716 0.0389445797 0.0661149099
vn 0.998790085 0.0487341844 -0.00658575632
vn -0.0122258253 0.139414966 -0.990158498
vn 0.996219695 0.0204039272 0.0844395459
vn 0.999221563 0.0273015276 0.0284761544
vn -0.00190071308 0.173626855 -0.984809697
vn -0.00190070481 0.173626781 -0.984809697
vn -0.00190070481 0.173626781 -0.984809697
vn -0.00190071086 0.173626825 -0.984809697
vn -0.00190072181 0.173626944 -0.984809697
vn -0.00190072169 0.17362693 -0.984809697
vn -0.0310733914 0.18915461 -0.981455505
vn -0.0310733877 0.189154595 -0.981455505
vn -0.031073384 0.18915461 -0.981455505
vn -0.0310733914 0.18915461 -0.981455505
vn -0.0275727212 0.19167833 -0.981070399
vn -0.0275727212 0.19167833 -0.981070399
vn -0.0275727231 0.19167833 -0.981070399
vn -0.0275727231 0.191678345 -0.981070399
vn -0.0275727212 0.191678315 -0.981070399
vn -0.00135960185 0.202559248 -0.979269087
vn 0.0188336801 0.216387033 -0.976125956
vn 0.0188336801 0.216387004 -0.976125956
vn -0.00153422786 0.202439129 -0.979293644
vn -0.0218449403 0.188404873 -0.981848478
vn -0.0218449403 0.188404873 -0.981848478
vn 0.0666728467 0.158017114 0.985182941
vn 0.0666728243 0.158017084 0.985182941
vn 0.0666728243 0.158017069 0.985182941
vn 0.0666728467 0.158017114 0.985182941
vn 0.0666728541 0.158017144 0.985182941
vn 0.0666728541 0.158017144 0.985182941
vn 0.0117478287 0.218624488 0.975738347
vn 0.0117478278 0.218624488 0.975738347
vn 0.0117478305 0.218624488 0.975738347
vn 0.0117478287 0.218624488 0.975738347
vn 0.0023642818 0.18900083 0.981974125
vn 0.0023642818 0.18900083 0.981974125
vn 0.00236428156 0.18900083 0.981974125
vn 0.0023642818 0.18900083 0.981974125
vt 0.244132936 0.510104239
vt 0.225635245 0.539018273
vt 0.247163847 0.527176857
vt 0.206112087 0.527499735
vt 0.204106614 0.550858736
vt 0.224380359 0.509842873
vt 0.244132936 0.510104239
vt 0.244248956 0.454661876
vt 0.224190697 0.453005522
vt 0.248219818 0.514430285
vt 0.248219818 0.452474415
vt 0.244132936 0.510104239
vt 0.225635245 0.539018273
vt 0.247163847 0.527176857
vt 0.206112087 0.527499735
vt 0.204106614 0.550858736
vt 0.224380359 0.509842873
vt 0.244132936 0.510104239
vt 0.244248956 0.454661876
vt 0.224190697 0.453005522
vt 0.248219818 0.514430285
vt 0.248219818 0.452474415
vt 0.247312859 0.288609445
vt 0.000888788782 0.280853957
vt 0.00347733777 0.527595222
vt 0.247312859 0.528085291
vt 0.247312859 0.659572124
vt 0.00382492947 0.65053761
vt 0.00381647004 0.760775924
vt 0.24733308 0.768568635
vt 0.00382492947 0.458795935
vt 0.247312859 0.458795935
vt 0.247312859 0.507964373
vt 0.00478765462 0.507407725
vt 0.00384411169 0.455158532
vt 0.247362688 0.453188628
vt 0.24733308 0.0208595842
vt 0.00381647004 0.0130663561
vt 0.243966728 0.29789871
vt 0.224634618 0.277760059
vt 0.224450991 0.522061884
vt 0.244248956 0.526818752
vt 0.248219818 0.530364454
vt 0.248219818 0.650484443
vt 0.244248956 0.649697304
vt 0.224014789 0.65075773
vt 0.248219818 0.763546169
vt 0.224156424 0.759667933
vt 0.244248956 0.760496616
vt 0.248219818 1.20018375
vt 0.224190697 1.20071459
vt 0.244248956 1.202371
vt 0.00019992888 0.454947561
vt 0.0044169426 0.0118126925
vt 0.00019992888 0.0232461039
vt 0.0044169426 0.46334812
vt 0.00019992888 0.507379353
vt 0.02590397 0.0119585739
vt 0.0044169426 0.507379353
vt 0.0259382427 0.453005522
vt 0.026011914 0.507379353
vt 0.00019992888 0.660658896
vt 0.00019992888 0.770955682
vt 0.0044169426 0.759522021
vt 0.00695675611 0.659029365
vt 0.00019992888 0.528736472
vt 0.0257623196 0.65075773
vt 0.02590397 0.759667933
vt 0.0261985362 0.515499294
vt 0.00812366605 0.523487031
vt 0.00019992888 0.287967175
vt 0.0263821781 0.283502609
vt 0.0105948746 0.283561379
vt 0.247312859 0.288609445
vt 0.000888788782 0.280853957
vt 0.00347733777 0.527595222
vt 0.247312859 0.528085291
vt 0.247312859 0.659572124
vt 0.00382492947 0.65053761
vt 0.00381647004 0.760775924
vt 0.24733308 0.768568635
vt 0.00382492947 0.458795935
vt 0.247312859 0.458795935
vt 0.247312859 0.507964373
vt 0.00478765462 0.507407725
vt 0.00384411169 0.455158532
vt 0.247362688 0.453188628
vt 0.24733308 0.0208595842
vt 0.00381647004 0.0130663561
vt 0.243966728 0.29789871
vt 0.224634618 0.277760059
vt 0.224450991 0.522061884
vt 0.244248956 0.526818752
vt 0.248219818 0.530364454
vt 0.248219818 0.650484443
vt 0.244248956 0.649697304
vt 0.224014789 0.65075773
vt 0.248219818 0.763546169
vt 0.224156424 0.759667933
vt 0.244248956 0.760496616
vt 0.248219818 1.20018375
vt 0.224190697 1.20071459
vt 0.244248956 1.202371
vt 0.00019992888 0.454947561
vt 0.0044169426 0.0118126925
vt 0.00019992888 0.0232461039
vt 0.0044169426 0.46334812
vt 0.00019992888 0.507379353
vt 0.02590397 0.0119585739
vt 0.0044169426 0.507379353
vt 0.0259382427 0.453005522
vt 0.026011914 0.507379353
vt 0.00019992888 0.660658896
vt 0.00019992888 0.770955682
vt 0.0044169426 0.759522021
vt 0.00695675611 0.659029365
vt 0.00019992888 0.528736472
vt 0.0257623196 0.65075773
vt 0.02590397 0.759667933
vt 0.0261985362 0.515499294
vt 0.00812366605 0.523487031
vt 0.00019992888 0.287967175
vt 0.0263821781 0.283502609
vt 0.0105948746 0.283561379
vt 0.799906015 0.00237805163
vt 0.874901414 0.00237805163
vt 0.874901414 0.500090361
vt 0.799906135 0.497723579
vt 0.750614285 0.00237805163
vt 0.750614285 0.329782039
vt 0.999926388 0.998243928
vt 0.875200272 0.998243928
vt 0.875200272 0.501394987
vt 0.999926388 0.628984272
vt 0.81290555 0.993844867
vt 0.867304683 0.993844867
vt 0.875296652 0.496995956
vt 0.870678782 0.496995956
vt 0.81290555 0.496995956
vt 0.841335177 0.00237805163
vt 0.874901414 0.00237805163
vt 0.874901414 0.500090361
vt 0.841335177 0.500090361
vt 0.750614285 0.00237805163
vt 0.750614285 0.500090361
vt 0.804895163 0.00237805163
vt 0.874901414 0.00237805163
vt 0.874901414 0.500090361
vt 0.804895163 0.500090361
vt 0.750614285 0.00237805163
vt 0.750614285 0.329782039
vt 0.999926388 0.998243928
vt 0.875200272 0.998243928
vt 0.875200272 0.501394987
vt 0.999926388 0.628984272
vt 0.750614285 0.00237805163
vt 0.874901414 0.00237805163
vt 0.874901414 0.500090361
vt 0.750614285 0.500090361
g submesh0
f 1/1/1 2/2/2 3/3/3
f 2/2/2 4/4/4 5/5/5
f 2/2/2 6/6/6 4/4/4
f 7/7/7 6/6/6 2/2/2
f 6/6/6 7/7/7 8/8/8
f 6/6/6 8/8/8 9/9/9
f 10/10/10 8/8/8 7/7/7
f 10/10/10 11/11/11 8/8/8
f 12/12/12 13/13/13 14/14/14
f 13/13/13 15/15/15 16/16/16
f 13/13/13 17/17/17 15/15/15
f 18/18/18 17/17/17 13/13/13
f 17/17/17 18/18/18 19/19/19
f 17/17/17 19/19/19 20/20/20
f 21/21/21 19/19/19 18/18/18
f 21/21/21 22/22/22 19/19/19
f 23/23/23 24/24/24 25/25/25
f 23/23/23 25/25/25 26/26/26
f 27/27/27 26/26/26 25/25/25
f 27/27/27 25/25/25 28/28/28
f 29/29/29 27/27/27 28/28/28
f 29/29/29 30/30/30 27/27/27
f 31/31/31 32/32/32 33/33/33
f 31/31/31 33/33/33 34/34/34
f 33/33/33 35/35/35 34/34/34
f 33/33/33 36/36/36 35/35/35
f 35/35/35 36/36/36 37/37/37
f 35/35/35 37/37/37 38/38/38
f 39/39/39 40/40/40 41/41/41
f 39/39/39 41/41/41 42/42/42
f 43/43/43 39/39/39 42/42/42
f 44/44/44 43/43/43 42/42/42
f 45/45/45 42/42/42 41/41/41
f 44/44/44 42/42/42 45/45/45
f 45/45/45 41/41/41 46/46/46
f 47/47/47 44/44/44 45/45/45
f 48/48/48 45/45/45 46/46/46
f 47/47/47 45/45/45 49/49/49
f 48/48/48 49/49/49 45/45/45
f 50/50/50 47/47/47 49/49/49
f 51/51/51 49/49/49 48/48/48
f 50/50/50 49/49/49 52/52/52
f 51/51/51 52/52/52 49/49/49
f 53/53/53 54/54/54 55/55/55
f 53/53/53 56/56/56 54/54/54
f 57/57/57 56/56/56 53/53/53
f 56/56/56 58/58/58 54/54/54
f 57/57/57 59/59/59 56/56/56
f 56/56/56 60/60/60 58/58/58
f 56/56/56 59/59/59 61/61/61
f 56/56/56 61/61/61 60/60/60
f 62/62/62 63/63/63 64/64/64
f 62/62/62 64/64/64 65/65/65
f 66/66/66 62/62/62 65/65/65
f 64/64/64 67/67/67 65/65/65
f 64/64/64 68/68/68 67/67/67
f 65/65/65 67/67/67 69/69/69
f 66/66/66 65/65/65 70/70/70
f 65/65/65 69/69/69 70/70/70
f 71/71/71 66/66/66 70/70/70
f 70/70/70 69/69/69 72/72/72
f 71/71/71 70/70/70 73/73/73
f 70/70/70 72/72/72 73/73/73
f 74/74/74 75/75/75 76/76/76
f 74/74/74 76/76/76 77/77/77
f 78/78/78 77/77/77 76/76/76
f 78/78/78 76/76/76 79/79/79
f 80/80/80 78/78/78 79/79/79
f 80/80/80 81/81/81 78/78/78
f 82/82/82 83/83/83 84/84/84
f 82/82/82 84/84/84 85/85/85
f 84/84/84 86/86/86 85/85/85
f 84/84/84 87/87/87 86/86/86
f 86/86/86 87/87/87 88/88/88
f 86/86/86 88/88/88 89/89/89
f 90/90/90 91/91/91 92/92/92
f 90/90/90 92/92/92 93/93/93
f 94/94/94 90/90/90 93/93/93
f 95/95/95 94/94/94 93/93/93
f 96/96/96 93/93/93 92/92/92
f 95/95/95 93/93/93 96/96/96
f 96/96/96 92/92/92 97/97/97
f 98/98/98 95/95/95 96/96/96
f 99/99/99 96/96/96 97/97/97
f 98/98/98 96/96/96 100/100/100
f 99/99/99 100/100/100 96/96/96
f 101/101/101 98/98/98 100/100/100
f 102/102/102 100/100/100 99/99/99
f 101/101/101 100/100/100 103/103/103
f 102/102/102 103/103/103 100/100/100
f 104/104/104 105/105/105 106/106/106
f 104/104/104 107/107/107 105/105/105
f 108/108/108 107/107/107 104/104/104
f 107/107/107 109/109/109 105/105/105
f 108/108/108 110/110/110 107/107/107
f 107/107/107 111/111/111 109/109/109
f 107/107/107 110/110/110 112/112/112
f 107/107/107 112/112/112 111/111/111
f 113/113/113 114/114/114 115/115/115
f 113/113/113 115/115/115 116/116/116
f 117/117/117 113/113/113 116/116/116
f 115/115/115 118/118/118 116/116/116
f 115/115/115 119/119/119 118/118/118
f 116/116/116 118/118/118 120/120/120
f 117/117/117 116/116/116 121/121/121
f 116/116/116 120/120/120 121/121/121
f 122/122/122 117/117/117 121/121/121
f 121/121/121 120/120/120 123/123/123
f 122/122/122 121/121/121 124/124/124
f 121/121/121 123/123/123 124/124/124
f 125/125/125 126/126/126 127/127/127
f 125/125/125 127/127/127 128/128/128
f 128/128/128 129/129/129 125/125/125
f 128/128/128 130/130/130 129/129/129
f 131/131/131 132/132/132 133/133/133
f 131/131/131 133/133/133 134/134/134
f 135/135/135 136/136/136 137/137/137
f 137/137/137 138/138/138 135/135/135
f 138/138/138 139/139/139 135/135/135
f 140/140/140 141/141/141 142/142/142
f 140/140/140 142/142/142 143/143/143
f 143/143/143 144/144/144 140/140/140
f 143/143/143 145/145/145 144/144/144
f 146/146/146 147/147/147 148/148/148
f 146/146/146 148/148/148 149/149/149
f 149/149/149 150/150/150 146/146/146
f 149/149/149 151/151/151 150/150/150
f 152/152/152 153/153/153 154/154/154
f 152/152/152 154/154/154 155/155/155
f 156/156/156 157/157/157 158/158/158
f 156/156/156 158/158/158 159/159/159
