# wall.third.corner.R.collision
v 0.113705181 -6.20512566E-08 1.43551445
v 0.0728956163 3.59629757E-06 1.34768367
v 0.0728996471 0.456140816 1.34768188
v 0.113697536 0.456141651 1.43584895
v 0.124530233 0.456141412 1.523525
v 0.124569766 1.3844699E-06 1.52316773
v 0.0597980432 0.456144512 1.59025538
v 0.0599867366 3.96072846E-06 1.59008265
v 0.00370109873 2.437175E-06 1.60868967
v 0.00390773825 0.456142068 1.60874426
v -0.00890221074 0.456142694 1.50355828
v -0.00890197884 2.37957283E-06 1.50356019
v -0.00890221074 0.456142694 1.50355828
v 0.00390773825 0.456142068 1.60874426
v 0.0597980432 0.456144512 1.59025538
v 0.0715932325 0.453973562 1.50005078
v 0.124530233 0.456141412 1.523525
v 0.113697536 0.456141651 1.43584895
v 0.0728996471 0.456140816 1.34768188
v 0.00370109873 2.437175E-06 1.60868967
v -0.00890197884 2.37957283E-06 1.50356019
v 0.0715932772 -6.82838117E-06 1.50005174
v 0.0599867366 3.96072846E-06 1.59008265
v 0.124569766 1.3844699E-06 1.52316773
v 0.113705181 -6.20512566E-08 1.43551445
v 0.0728956163 3.59629757E-06 1.34768367
vn 0.710487187 -0.673692644 -0.203337401
vn 0.873118401 -0.271570653 -0.404862493
vn 0.872664511 0.273339033 -0.404651135
vn 0.700166166 0.685769558 -0.198714733
vn 0.734413087 0.632770658 0.245435864
vn 0.742729843 -0.621825218 0.248365998
vn 0.405415684 0.66061902 0.631839275
vn 0.40089637 -0.656958342 0.638504386
vn -0.441462874 -0.567382753 0.695116699
vn -0.436469764 0.572255075 0.69427532
vn -0.715263009 0.694278896 0.0798476189
vn -0.719219029 -0.689322531 0.0869398415
vn -0.715263009 0.694278896 0.0798476189
vn -0.436469764 0.572255075 0.69427532
vn 0.405415684 0.66061902 0.631839275
vn -0.0204396304 0.999761641 -0.00767729618
vn 0.734413087 0.632770658 0.245435864
vn 0.700166166 0.685769558 -0.198714733
vn 0.872664511 0.273339033 -0.404651135
vn -0.441462874 -0.567382753 0.695116699
vn -0.719219029 -0.689322531 0.0869398415
vn 6.67159547E-05 -1 4.41635348E-05
vn 0.40089637 -0.656958342 0.638504386
vn 0.742729843 -0.621825218 0.248365998
vn 0.710487187 -0.673692644 -0.203337401
vn 0.873118401 -0.271570653 -0.404862493
vt 0.478907943 0.245609149
vt 0.499228895 0.245609149
vt 0.49965179 0.414829224
vt 0.478928536 0.414829105
vt 0.464167118 0.414829135
vt 0.46415031 0.245609149
vt 0.450972527 0.414829224
vt 0.45096004 0.245609149
vt 0.441521108 0.245609149
vt 0.441515684 0.414829105
vt 0.428610265 0.414829195
vt 0.429440558 0.245609149
vt 0.479525805 0.4463211
vt 0.476750523 0.473152012
vt 0.463095516 0.467570961
vt 0.460229516 0.446326226
vt 0.449197292 0.451791078
vt 0.451755375 0.431085646
vt 0.459917843 0.41034016
vt 0.476272285 0.474014759
vt 0.47924459 0.447149903
vt 0.460229516 0.446326226
vt 0.462978572 0.467592716
vt 0.449194551 0.451791137
vt 0.451800942 0.431082219
vt 0.45991376 0.410333902
g submesh0
f 1/1/1 2/2/2 3/3/3
f 1/1/1 3/3/3 4/4/4
f 5/5/5 1/1/1 4/4/4
f 5/5/5 6/6/6 1/1/1
f 7/7/7 6/6/6 5/5/5
f 7/7/7 8/8/8 6/6/6
f 9/9/9 8/8/8 7/7/7
f 9/9/9 7/7/7 10/10/10
f 11/11/11 9/9/9 10/10/10
f 11/11/11 12/12/12 9/9/9
f 13/13/13 14/14/14 15/15/15
f 13/13/13 15/15/15 16/16/16
f 16/16/16 15/15/15 17/17/17
f 16/16/16 17/17/17 18/18/18
f 16/16/16 18/18/18 19/19/19
f 20/20/20 21/21/21 22/22/22
f 20/20/20 22/22/22 23/23/23
f 22/22/22 24/24/24 23/23/23
f 22/22/22 25/25/25 24/24/24
f 22/22/22 26/26/26 25/25/25
