# wall.half_COL
v 0.0483473875 -3.12566749E-06 -1.5042218
v 0.0483469293 -3.27825546E-06 1.50461054
v -0.00232913881 -3.43084321E-06 1.50960934
v 0.0483469293 1.50701261 1.50461054
v 0.0483473875 1.50701261 -1.5042218
v -0.00232913881 1.50701261 1.50960934
v -0.00232868292 1.50701249 -1.5092212
v -0.00232868292 -3.27825546E-06 -1.5092212
v -0.053007707 1.50701261 1.50461054
v -0.053007707 -3.35454934E-06 1.50461054
v -0.0530072488 1.50701261 -1.5042218
v -0.0530072488 -3.12566749E-06 -1.5042218
vn 0.602207303 -0.582697272 -0.545719922
vn 0.602204323 -0.582696617 0.545723975
vn 1.87111732E-06 -0.685666084 0.727916241
vn 0.602202892 0.582697868 0.545724094
vn 0.60220623 0.582699001 -0.545719326
vn 1.64213543E-06 0.685665548 0.727916837
vn 1.86113903E-06 0.68566227 -0.727919757
vn 2.12168197E-06 -0.68566364 -0.727918446
vn -0.602201879 0.58269769 0.545725584
vn -0.602203131 -0.582696795 0.545725167
vn -0.602204919 0.582698703 -0.545721114
vn -0.602205753 -0.582697153 -0.545721769
g submesh0
f 1//1 2//2 3//3
f 4//4 2//2 1//1
f 3//3 2//2 4//4
f 4//4 1//1 5//5
f 6//6 4//4 5//5
f 3//3 4//4 6//6
f 7//7 5//5 1//1
f 6//6 5//5 7//7
f 1//1 3//3 8//8
f 7//7 1//1 8//8
f 9//9 6//6 7//7
f 10//10 3//3 6//6
f 10//10 6//6 9//9
f 9//9 7//7 11//11
f 11//11 7//7 8//8
f 11//11 10//10 9//9
f 12//12 8//8 3//3
f 11//11 8//8 12//12
f 11//11 12//12 10//10
f 12//12 3//3 10//10
