# wall.frame.netting_COL
v 0.00111777359 2.98418307 -1.29579771
v 0.00111778325 2.9868021 -1.23585701
v 0.00111771864 1.56791556 -1.17170632
v 0.00111769955 1.56823969 -1.23178077
v 0.00111766928 0.171938166 -1.25043774
v 0.00111765042 0.175203249 -1.31034577
v 0.00111755903 0.382786095 -1.45524228
v 0.00111756148 0.441767871 -1.45515776
v 0.00112792302 0.43770811 1.4634819
v 0.00110720668 0.378726482 1.46339703
v 0.00111756194 0.678652108 1.4522059
v 0.0011175595 0.61969918 1.45407486
v 0.00111756707 0.57512325 -0.00109733583
v 0.0011175744 0.63413763 -0.000962295511
v 0.00111755973 0.6257779 -1.44597077
v 0.0011175765 0.684722126 -1.44383204
v 0.00111756462 0.854558766 -1.43672729
v 0.00111756229 0.913540423 -1.43659818
v 0.00111757638 0.907466054 1.42848825
v 0.00111755484 0.848484457 1.42835915
v 0.00111756462 1.0813365 -1.42235255
v 0.00111757661 1.14031792 -1.42213464
v 0.00111755717 1.13019419 1.41617501
v 0.00111755461 1.07121253 1.41595709
v 0.00111756788 1.38329101 1.41597879
v 0.00111756055 1.32430947 1.41615367
v 0.00110720808 1.31620026 -1.40567803
v 0.00112792919 1.37518167 -1.40585327
v 0.00111757463 1.54500985 -1.41187954
v 0.0011175723 1.60399139 -1.41201079
v 0.00111756311 1.61006594 1.41394114
v 0.00111756055 1.55108428 1.41407204
v 0.00111756276 1.82874525 1.40988696
v 0.00111756974 1.76976347 1.40988696
v 0.0011175602 1.76976347 -1.40988588
v 0.0011175723 1.82874525 -1.40988612
v 0.00111756125 2.01881075 -1.43256402
v 0.00111757324 2.07779241 -1.43252099
v 0.00111756357 2.07576799 1.4222666
v 0.00111756113 2.0167861 1.42222333
v 0.00111757766 2.29646397 1.42070782
v 0.00111756567 2.23749089 1.41966295
v 0.00111757626 2.2617774 0.0011392975
v 0.00111757871 2.32077193 0.000921859697
v 0.00111757475 2.22737145 -1.41738462
v 0.00111757242 2.28633547 -1.41886473
v 0.00111756101 2.46832705 -1.42742515
v 0.00111756835 2.52727628 -1.42942107
v 0.0011175751 2.57387996 -0.00510902377
v 0.00111757743 2.51486278 -0.00518806465
v 0.00111756334 2.52322388 1.42950118
v 0.00111756567 2.46428013 1.42734718
v 0.00111756916 2.77431846 1.4365989
v 0.00111756672 2.7153368 1.43672836
v 0.00111756648 2.70926237 -1.43041742
v 0.00111756893 2.76824427 -1.43054712
v 0.00398747344 2.95223498 -1.45936036
v 0.00398747623 3.01121664 -1.45927644
v 0.00399783766 3.00715733 1.47584057
v 0.00397712132 2.94817567 1.47575629
v 0.00458597904 0.200197756 1.48094916
v 0.00458597671 0.141216427 1.48112595
v 0.00458596647 0.132625878 -1.49294519
v 0.00458598323 0.191607356 -1.49312127
v 0.00111762155 0.169615775 -1.05816078
v 0.00111763598 0.171798855 -1.11811996
v 0.00111768977 1.56241906 -1.06572616
v 0.00111769454 1.56228232 -1.0056901
v 0.00111775415 2.97594762 -1.11229897
v 0.00111776381 2.97785664 -1.05233049
v 0.0011177304 2.97684169 -0.899672747
v 0.00111773983 2.97696257 -0.839673042
v 0.00111759326 0.176494434 -0.833847106
v 0.00111761235 0.176373899 -0.893846929
v 0.00111770711 2.99029088 -0.678277671
v 0.00111770246 2.99214721 -0.618307531
v 0.00111767161 2.26351118 -0.59496206
v 0.0011176765 2.26428747 -0.65501672
v 0.00111763761 1.57030022 -0.635757327
v 0.0011176425 1.5715822 -0.695782363
v 0.0011175836 0.173993677 -0.615382731
v 0.00111756928 0.173147738 -0.675376356
v 0.00111768278 2.97916532 -0.468557358
v 0.00111768756 2.98036551 -0.408570021
v 0.00111762353 1.57380271 -0.379428178
v 0.0011176283 1.57380641 -0.439440995
v 0.00111754553 0.175829917 -0.408570021
v 0.00111756462 0.177038416 -0.468557358
v 0.00111765426 2.98256922 -0.247183144
v 0.00111763994 2.9826889 -0.187183455
v 0.00111752632 0.173630819 -0.181357652
v 0.00111753587 0.173510581 -0.241357341
v 0.00111750688 0.162206724 0.0341966227
v 0.00111750211 0.162026972 -0.0258026887
v 0.00111762085 2.98253942 -0.0345415473
v 0.00111763517 2.98271871 0.025458144
v 0.00111760641 2.97681141 0.186838984
v 0.00111760641 2.97699237 0.246838674
v 0.00111748837 0.176524654 0.255577385
v 0.00111747882 0.176343679 0.195577547
v 0.00111745484 0.173630983 0.471131891
v 0.00111745484 0.173510432 0.411132187
v 0.00111757289 2.97397828 0.40530622
v 0.00111758232 2.97409868 0.465306222
v 0.00111754413 2.96929812 0.620877802
v 0.00111755833 2.96732569 0.680844128
v 0.00111752469 2.2839222 0.657573819
v 0.00111752946 2.28396535 0.59754163
v 0.00111749454 1.56804574 0.680876911
v 0.00111748977 1.56810939 0.62084502
v 0.00111744658 0.884048581 0.657586515
v 0.00111746567 0.883371055 0.597528994
v 0.00111742667 0.183833614 0.69829011
v 0.00111744076 0.180488884 0.638386667
v 0.00111739815 0.188069612 0.910979271
v 0.0011173886 0.187706903 0.85098052
v 0.00111752551 2.9824481 0.833503067
v 0.00111752551 2.98281026 0.893501878
v 0.00111736404 0.168991238 1.12068605
v 0.00111737824 0.166696623 1.06073153
v 0.0011174276 1.56520951 1.00534117
v 0.00111743715 1.56521893 1.0653863
v 0.00111750618 2.97517705 1.06073117
v 0.00111748697 2.97290039 1.12068665
v 0.00111747766 2.9783504 1.24425769
v 0.00111748709 2.97545338 1.30418503
v 0.00111742353 1.57965553 1.23435426
v 0.00111742353 1.57940757 1.17426944
v 0.00111736963 0.189584494 1.31582344
v 0.00111734564 0.186191857 1.25592268
v -0.00439940393 2.98418331 -1.29579771
v -0.00439946819 1.56791592 -1.17170632
v -0.00439940859 2.9868021 -1.23585677
v -0.00439948263 1.56823969 -1.23178053
v -0.00439953199 0.171938166 -1.25043774
v -0.00439952686 0.175203249 -1.31034541
v -0.00439963769 0.382786095 -1.45524228
v -0.00440998981 0.378726423 1.46339703
v -0.00438926369 0.437707961 1.4634819
v -0.00439963024 0.441767871 -1.455158
v -0.00439962512 0.678652167 1.4522059
v -0.00439962465 0.57512325 -0.00109748833
v -0.00439962745 0.619699061 1.45407486
v -0.00439961767 0.63413769 -0.000962142949
v -0.00439963676 0.6257779 -1.44597101
v -0.00439962 0.684721947 -1.44383204
v -0.00439963676 0.854558825 -1.43672729
v -0.0043996321 0.848484457 1.42835915
v -0.00439963443 0.907465875 1.42848825
v -0.00439962465 0.913540244 -1.43659782
v -0.00439963164 1.08133662 -1.42235291
v -0.00439963257 1.07121265 1.41595709
v -0.00439963443 1.13019395 1.41617501
v -0.00439962465 1.14031792 -1.42213464
v -0.00439962884 1.38329101 1.41597879
v -0.00438926276 1.37518167 -1.40585327
v -0.00440998841 1.31620026 -1.40567803
v -0.00439963583 1.32430935 1.41615367
v -0.00439962698 1.54500985 -1.41187954
v -0.00439962186 1.55108416 1.41407204
v -0.00439962884 1.61006606 1.41394114
v -0.00439962419 1.60399139 -1.41201043
v -0.00439963397 1.82874537 1.40988696
v -0.00439962419 1.82874525 -1.40988553
v -0.00439963164 1.76976359 -1.40988553
v -0.00439962186 1.76976347 1.40988696
v -0.00439963071 2.01881075 -1.43256438
v -0.00439963071 2.0167861 1.42222333
v -0.00439962326 2.07576752 1.4222666
v -0.00439962326 2.07779217 -1.43252099
v -0.00439962326 2.29646373 1.42070782
v -0.00439962978 2.2617774 0.00113914488
v -0.00439964514 2.23749089 1.41966295
v -0.00439961767 2.32077193 0.000921859697
v -0.00439963117 2.22737169 -1.41738462
v -0.00439962419 2.28633547 -1.41886473
v -0.00439964002 2.46832728 -1.42742491
v -0.00439962605 2.57387996 -0.00510902377
v -0.00439962326 2.52727628 -1.42942107
v -0.00439962884 2.51486278 -0.00518821692
v -0.00439962326 2.52322388 1.42950118
v -0.00439963583 2.46428013 1.42734718
v -0.00439962279 2.77431846 1.4365989
v -0.00439962745 2.76824427 -1.43054652
v -0.0043996349 2.70926261 -1.43041778
v -0.00439962978 2.71533656 1.43672836
v -0.00152972294 2.95223498 -1.4593606
v -0.00154007541 2.94817591 1.47575629
v -0.00151934952 3.00715756 1.47584057
v -0.00152971095 3.01121664 -1.45927608
v -0.000931217626 0.200197756 1.48094916
v -0.000931208488 0.191607356 -1.49312067
v -0.000931220478 0.132625878 -1.49294496
v -0.000931210583 0.141216427 1.48112595
v -0.00439955574 0.169615775 -1.05816078
v -0.00439949706 1.5624193 -1.06572616
v -0.00439956039 0.171798855 -1.11811996
v -0.00439949706 1.5622822 -1.0056901
v -0.00439943746 2.97594762 -1.11229897
v -0.0043994328 2.9778564 -1.05233026
v -0.00439946121 2.97684169 -0.899672925
v -0.00439957483 0.176373899 -0.893847227
v -0.0043995888 0.176494434 -0.833847106
v -0.00439945655 2.97696257 -0.839673042
v -0.00439948915 2.99029088 -0.678277671
v -0.004399525 2.26351142 -0.59496206
v -0.00439949427 2.99214816 -0.61830765
v -0.004399525 2.26428747 -0.65501672
v -0.00439955899 1.57030046 -0.635757804
v -0.00439955899 1.57158232 -0.695782363
v -0.00439961767 0.173993677 -0.61538285
v -0.00439962745 0.173147738 -0.675376356
v -0.00439950405 2.97916508 -0.468557507
v -0.00439956831 1.57380271 -0.379428327
v -0.00439950917 2.98036551 -0.408569872
v -0.00439956831 1.57380641 -0.439440995
v -0.00439962698 0.175829917 -0.408570021
v -0.00439962698 0.177038416 -0.468557358
v -0.00439953757 2.98256922 -0.247183144
v -0.00439966563 0.173510581 -0.241357192
v -0.00439966051 0.173630819 -0.181357652
v -0.00439953757 2.98268914 -0.187183455
v -0.00439968472 0.162206724 0.0341966227
v -0.00439956132 2.98271871 0.0254584495
v -0.00439957529 2.98253942 -0.0345417
v -0.00439968007 0.162026972 -0.0258026887
v -0.00439959019 2.97681141 0.186838984
v -0.00439971266 0.176343679 0.195577547
v -0.00439971266 0.176524654 0.255577385
v -0.00439959019 2.97699285 0.246838674
v -0.00439973688 0.173630983 0.471131891
v -0.00439961441 2.97409868 0.465306222
v -0.00439961907 2.97397828 0.40530622
v -0.00439973222 0.173510432 0.411132187
v -0.00439965259 2.96929836 0.620877981
v -0.00439967168 2.2839222 0.657573819
v -0.00439963816 2.96732497 0.680844247
v -0.00439966703 2.28396535 0.597541809
v -0.00439970195 1.56804574 0.68087709
v -0.00439970661 1.56810939 0.620844841
v -0.00439973082 0.884048522 0.657586634
v -0.00439973082 0.883371174 0.597528994
v -0.00439976482 0.183833614 0.69829011
v -0.00439976528 0.180488884 0.638386667
v -0.00439978391 0.188069612 0.910979271
v -0.00439967541 2.98281026 0.893501878
v -0.0043996661 2.98244786 0.833503067
v -0.00439978391 0.187706903 0.85098052
v -0.00439981325 0.168991238 1.12068605
v -0.00439976435 1.56520951 1.00534117
v -0.00439981837 0.166696623 1.06073153
v -0.00439975457 1.56521893 1.0653863
v -0.00439969497 2.97517705 1.06073117
v -0.00439969543 2.97290063 1.12068665
v -0.00439969962 2.97835112 1.24425769
v -0.00439976854 1.57965589 1.23435426
v -0.00439971406 2.97545338 1.30418503
v -0.0043997732 1.57940757 1.17426944
v -0.00439982675 0.189584494 1.31582344
v -0.00439983187 0.186191857 1.25592268
vn 1 0 -2.38053914E-07
vn 1 0 -2.38053929E-07
vn 1 0 -2.77621183E-07
vn 1 0 -2.77630448E-07
vn 1 0 -3.17198015E-07
vn 1 0 -3.17198015E-07
vn 1 -0.000175636975 -2.45877175E-07
vn 1 -0.000175636975 -2.45877146E-07
vn 1 -0.000175636975 -2.45877175E-07
vn 1 -0.000175636989 -2.45877203E-07
vn 1 0 0
vn 1 0 0
vn 1 -1.43052986E-07 0
vn 1 -1.43046975E-07 0
vn 1 -2.03670496E-07 0
vn 1 -2.03670496E-07 0
vn 1 -1.63412096E-07 0
vn 1 -1.63412096E-07 0
vn 1 -1.63412096E-07 0
vn 1 -1.63412096E-07 0
vn 1 -1.23009599E-07 0
vn 1 -1.23009599E-07 0
vn 1 -1.23009599E-07 0
vn 1 -1.23009599E-07 0
vn 1 -0.00017571736 5.06539095E-07
vn 1 -0.00017571733 5.06539152E-07
vn 1 -0.000175717345 5.06539095E-07
vn 1 -0.000175717345 5.06539038E-07
vn 1 0 0
vn 1 0 0
vn 1 0 0
vn 1 0 0
vn 1 0 0
vn 1 0 0
vn 1 0 0
vn 1 0 0
vn 1 -1.22992873E-07 0
vn 1 -1.22992873E-07 0
vn 1 -1.22992859E-07 0
vn 1 -1.22992873E-07 0
vn 1 -1.23002593E-07 0
vn 1 -1.23002607E-07 0
vn 1 0 0
vn 1 0 0
vn 1 0 0
vn 1 0 0
vn 1 0 0
vn 1 0 0
vn 1 0 0
vn 1 0 0
vn 1 0 0
vn 1 0 0
vn 1 0 0
vn 1 0 0
vn 1 0 0
vn 1 0 0
vn 1 -0.000175637208 -2.44483459E-07
vn 1 -0.000175637222 -2.44483459E-07
vn 1 -0.000175637237 -2.44483459E-07
vn 1 -0.000175637237 -2.44483459E-07
vn 1 -1.63416232E-07 0
vn 1 -1.63416232E-07 0
vn 1 -1.63416232E-07 0
vn 1 -1.63416232E-07 0
vn 1 0 0
vn 1 0 0
vn 1 0 0
vn 1 0 0
vn 1 0 -1.19072119E-07
vn 1 0 -1.19072119E-07
vn 1 0 0
vn 1 0 0
vn 1 0 0
vn 1 0 0
vn 1 0 0
vn 1 0 0
vn 1 0 0
vn 1 0 0
vn 1 0 0
vn 1 0 0
vn 1 0 0
vn 1 0 0
vn 1 0 0
vn 1 0 0
vn 1 0 0
vn 1 0 0
vn 1 0 1.9855392E-07
vn 1 0 1.98553934E-07
vn 1 0 1.98680652E-07
vn 1 0 1.98680638E-07
vn 1 0 1.98680652E-07
vn 1 0 1.98680624E-07
vn 1 0 -1.58940509E-07
vn 1 0 -1.58940495E-07
vn 1 0 -1.58940495E-07
vn 1 0 -1.58940495E-07
vn 1 0 0
vn 1 0 0
vn 1 0 0
vn 1 0 0
vn 1 0 0
vn 1 0 0
vn 1 0 0
vn 1 0 0
vn 1 0 0
vn 1 0 0
vn 1 0 0
vn 1 0 0
vn 1 0 0
vn 1 0 0
vn 1 0 1.98314723E-07
vn 1 0 1.98240954E-07
vn 1 0 2.77363114E-07
vn 1 0 2.77363114E-07
vn 1 0 0
vn 1 0 0
vn 1 0 0
vn 1 0 0
vn 1 0 0
vn 1 0 0
vn 1 0 0
vn 1 0 0
vn 1 0 0
vn 1 0 0
vn 1 0 0
vn 1 0 0
vn 1 0 -1.38792799E-07
vn 1 0 -1.38781459E-07
vn 1 0 -1.98197498E-07
vn 1 0 -1.98197498E-07
vn -1 0 0
vn -1 0 0
vn -1 0 0
vn -1 0 0
vn -1 0 0
vn -1 0 0
vn -1 0.000175758338 2.46869632E-07
vn -1 0.000175758352 2.46869661E-07
vn -1 0.000175758352 2.46869632E-07
vn -1 0.000175758352 2.46869632E-07
vn -1 0 0
vn -1 1.43045455E-07 0
vn -1 0 0
vn -1 1.4303906E-07 0
vn -1 2.03606902E-07 0
vn -1 2.03606902E-07 0
vn -1 0 0
vn -1 0 0
vn -1 0 0
vn -1 0 0
vn -1 0 0
vn -1 0 0
vn -1 0 0
vn -1 0 0
vn -1 0.000175757523 -5.0749469E-07
vn -1 0.000175757508 -5.07494633E-07
vn -1 0.000175757523 -5.0749469E-07
vn -1 0.000175757508 -5.07494747E-07
vn -1 0 0
vn -1 0 0
vn -1 0 0
vn -1 0 0
vn -1 0 0
vn -1 0 0
vn -1 0 0
vn -1 0 0
vn -1 1.22992262E-07 0
vn -1 1.22992247E-07 0
vn -1 1.22992262E-07 0
vn -1 1.22992247E-07 0
vn -1 2.84691765E-07 0
vn -1 2.24051078E-07 0
vn -1 2.84691765E-07 0
vn -1 2.24041997E-07 0
vn -1 1.63401424E-07 0
vn -1 1.63401424E-07 0
vn -1 1.63374182E-07 0
vn -1 1.43156186E-07 0
vn -1 1.63374182E-07 0
vn -1 1.43157436E-07 0
vn -1 1.22939454E-07 0
vn -1 1.22939454E-07 0
vn -1 1.22994948E-07 0
vn -1 1.22994948E-07 0
vn -1 1.22994948E-07 0
vn -1 1.22994933E-07 0
vn -1 0.000175798865 2.44688692E-07
vn -1 0.000175798894 2.44688692E-07
vn -1 0.000175798879 2.44688692E-07
vn -1 0.000175798894 2.44688692E-07
vn -1 0 0
vn -1 0 0
vn -1 0 0
vn -1 0 0
vn -1 0 0
vn -1 0 0
vn -1 0 0
vn -1 0 0
vn -1 0 0
vn -1 0 0
vn -1 0 0
vn -1 0 0
vn -1 0 0
vn -1 0 0
vn -1 0 0
vn -1 0 0
vn -1 0 0
vn -1 0 0
vn -1 0 0
vn -1 0 0
vn -1 0 0
vn -1 0 0
vn -1 0 0
vn -1 0 0
vn -1 0 0
vn -1 0 0
vn -1 0 0
vn -1 0 0
vn -1 0 0
vn -1 0 0
vn -1 0 0
vn -1 0 0
vn -1 0 0
vn -1 0 0
vn -1 0 0
vn -1 0 0
vn -1 0 0
vn -1 0 0
vn -1 0 0
vn -1 0 0
vn -1 0 0
vn -1 0 0
vn -1 0 0
vn -1 0 0
vn -1 0 0
vn -1 0 0
vn -1 0 0
vn -1 0 0
vn -1 0 0
vn -1 0 0
vn -1 0 0
vn -1 0 0
vn -1 0 0
vn -1 0 0
vn -1 0 0
vn -1 0 0
vn -1 0 0
vn -1 0 0
vn -1 0 1.19151736E-07
vn -1 0 0
vn -1 0 1.19151743E-07
vn -1 0 0
vn -1 0 0
vn -1 0 0
vn -1 0 0
vn -1 0 0
vn -1 0 0
vn -1 0 0
vn -1 0 0
vn -1 0 0
g submesh0
f 1//1 2//2 3//3
f 1//1 3//3 4//4
f 4//4 3//3 5//5
f 4//4 5//5 6//6
f 7//7 8//8 9//9
f 7//7 9//9 10//10
f 11//11 12//12 13//13
f 11//11 13//13 14//14
f 14//14 13//13 15//15
f 14//14 15//15 16//16
f 17//17 18//18 19//19
f 17//17 19//19 20//20
f 21//21 22//22 23//23
f 21//21 23//23 24//24
f 25//25 26//26 27//27
f 25//25 27//27 28//28
f 29//29 30//30 31//31
f 29//29 31//31 32//32
f 33//33 34//34 35//35
f 33//33 35//35 36//36
f 37//37 38//38 39//39
f 37//37 39//39 40//40
f 41//41 42//42 43//43
f 41//41 43//43 44//44
f 44//44 43//43 45//45
f 44//44 45//45 46//46
f 47//47 48//48 49//49
f 47//47 49//49 50//50
f 50//50 49//49 51//51
f 50//50 51//51 52//52
f 53//53 54//54 55//55
f 53//53 55//55 56//56
f 57//57 58//58 59//59
f 57//57 59//59 60//60
f 61//61 62//62 63//63
f 61//61 63//63 64//64
f 65//65 66//66 67//67
f 65//65 67//67 68//68
f 68//68 67//67 69//69
f 68//68 69//69 70//70
f 71//71 72//72 73//73
f 71//71 73//73 74//74
f 75//75 76//76 77//77
f 75//75 77//77 78//78
f 78//78 77//77 79//79
f 78//78 79//79 80//80
f 80//80 79//79 81//81
f 80//80 81//81 82//82
f 83//83 84//84 85//85
f 83//83 85//85 86//86
f 86//86 85//85 87//87
f 86//86 87//87 88//88
f 89//89 90//90 91//91
f 89//89 91//91 92//92
f 93//93 94//94 95//95
f 93//93 95//95 96//96
f 97//97 98//98 99//99
f 97//97 99//99 100//100
f 101//101 102//102 103//103
f 101//101 103//103 104//104
f 105//105 106//106 107//107
f 105//105 107//107 108//108
f 108//108 107//107 109//109
f 108//108 109//109 110//110
f 110//110 109//109 111//111
f 110//110 111//111 112//112
f 112//112 111//111 113//113
f 112//112 113//113 114//114
f 115//115 116//116 117//117
f 115//115 117//117 118//118
f 119//119 120//120 121//121
f 119//119 121//121 122//122
f 122//122 121//121 123//123
f 122//122 123//123 124//124
f 125//125 126//126 127//127
f 125//125 127//127 128//128
f 128//128 127//127 129//129
f 128//128 129//129 130//130
f 131//131 132//132 133//133
f 131//131 134//134 132//132
f 134//134 135//135 132//132
f 134//134 136//136 135//135
f 137//137 138//138 139//139
f 137//137 139//139 140//140
f 141//141 142//142 143//143
f 141//141 144//144 142//142
f 144//144 145//145 142//142
f 144//144 146//146 145//145
f 147//147 148//148 149//149
f 147//147 149//149 150//150
f 151//151 152//152 153//153
f 151//151 153//153 154//154
f 155//155 156//156 157//157
f 155//155 157//157 158//158
f 159//159 160//160 161//161
f 159//159 161//161 162//162
f 163//163 164//164 165//165
f 163//163 165//165 166//166
f 167//167 168//168 169//169
f 167//167 169//169 170//170
f 171//171 172//172 173//173
f 171//171 174//174 172//172
f 174//174 175//175 172//172
f 174//174 176//176 175//175
f 177//177 178//178 179//179
f 177//177 180//180 178//178
f 180//180 181//181 178//178
f 180//180 182//182 181//181
f 183//183 184//184 185//185
f 183//183 185//185 186//186
f 187//187 188//188 189//189
f 187//187 189//189 190//190
f 191//191 192//192 193//193
f 191//191 193//193 194//194
f 195//195 196//196 197//197
f 195//195 198//198 196//196
f 198//198 199//199 196//196
f 198//198 200//200 199//199
f 201//201 202//202 203//203
f 201//201 203//203 204//204
f 205//205 206//206 207//207
f 205//205 208//208 206//206
f 208//208 209//209 206//206
f 208//208 210//210 209//209
f 210//210 211//211 209//209
f 210//210 212//212 211//211
f 213//213 214//214 215//215
f 213//213 216//216 214//214
f 216//216 217//217 214//214
f 216//216 218//218 217//217
f 219//219 220//220 221//221
f 219//219 221//221 222//222
f 223//223 224//224 225//225
f 223//223 225//225 226//226
f 227//227 228//228 229//229
f 227//227 229//229 230//230
f 231//231 232//232 233//233
f 231//231 233//233 234//234
f 235//235 236//236 237//237
f 235//235 238//238 236//236
f 238//238 239//239 236//236
f 238//238 240//240 239//239
f 240//240 241//241 239//239
f 240//240 242//242 241//241
f 242//242 243//243 241//241
f 242//242 244//244 243//243
f 245//245 246//246 247//247
f 245//245 247//247 248//248
f 249//249 250//250 251//251
f 249//249 252//252 250//250
f 252//252 253//253 250//250
f 252//252 254//254 253//253
f 255//255 256//256 257//257
f 255//255 258//258 256//256
f 258//258 259//259 256//256
f 258//258 260//260 259//259
