# wall.corner.R.collision
v 0.085630618 3.00365806 1.59430504
v 0.0522639267 3.00365806 1.56330931
v 0.0522637926 5.44778195E-05 1.56330895
v 0.102772087 3.00365806 1.26028192
v 0.10277196 -2.16657427E-05 1.26028168
v 0.0856304839 5.44763607E-05 1.5943048
v 0.153047159 3.00365782 1.25967193
v 0.15304704 -2.16679418E-05 1.25967157
v 0.153540194 -2.16679618E-05 1.52549255
v 0.153540328 3.00365782 1.52549279
vn 0.0177006554 0.578955889 0.815166652
vn -0.748102248 0.61262393 0.255019814
vn -0.946509957 -0.00359245786 0.322654754
vn -0.52793926 0.585061133 -0.615616441
vn -0.537915349 -0.563614726 -0.626885653
vn -0.341673791 -0.308263421 0.887824714
vn 0.573565185 0.576811671 -0.58164531
vn 0.57336235 -0.576943636 -0.581714511
vn 0.718005598 -0.63090241 0.293990076
vn 0.718238592 0.630654693 0.293952495
g submesh0
f 1//1 2//2 3//3
f 1//1 4//4 2//2
f 3//3 2//2 4//4
f 3//3 4//4 5//5
f 1//1 3//3 6//6
f 5//5 6//6 3//3
f 5//5 4//4 7//7
f 1//1 7//7 4//4
f 6//6 5//5 8//8
f 5//5 7//7 8//8
f 1//1 6//6 9//9
f 6//6 8//8 9//9
f 10//10 8//8 7//7
f 10//10 7//7 1//1
f 1//1 9//9 10//10
f 10//10 9//9 8//8
