# wall.collision
v -0.102053538 3.00091863 -1.49999917
v -0.102052741 1.29938121E-06 -1.4999994
v -0.102053009 1.60455704E-06 1.49999976
v -0.102053814 3.00083542 1.5
v -0.102053814 3.00083542 1.5
v -0.00259280996 3.00058556 1.50499976
v -0.00259235525 3.00062656 -1.5049994
v -0.102053538 3.00091863 -1.49999917
v -0.102053009 1.60455704E-06 1.49999976
v -0.00259280996 1.60455704E-06 1.50499964
v -0.102052741 1.29938121E-06 -1.4999994
v -0.00259235525 1.45196907E-06 -1.50499952
v 0.0968672559 3.00033522 1.49999964
v 0.0968674272 1.60455704E-06 -1.49999964
v 0.0968675986 3.00033474 -1.49999952
v 0.0968673304 1.7571449E-06 1.49999952
vn -1 -2.65361905E-07 0
vn -1 -2.65361905E-07 0
vn -1 -2.65361933E-07 0
vn -1 -2.65361905E-07 0
vn -0.0329531878 0.718739986 0.694497526
vn 0.00183965312 0.695971906 0.718066633
vn 0.00182812975 0.695980847 -0.71805805
vn -0.0329505578 0.718849063 -0.694384754
vn -0.0349377431 -0.718145013 0.695015848
vn 1.86437967E-06 -0.69597894 0.718062282
vn -0.0349395424 -0.718146026 -0.695014656
vn 0 -0.69597882 -0.718062341
vn 0.591044545 0.579186976 0.561434567
vn 0.590284884 -0.580037117 -0.561356187
vn 0.591002107 0.579138339 -0.561529458
vn 0.59028548 -0.580037177 0.561355293
g submesh0
f 1//1 2//2 3//3
f 1//1 3//3 4//4
f 5//5 6//6 7//7
f 5//5 7//7 8//8
f 9//9 6//6 5//5
f 9//9 10//10 6//6
f 11//11 10//10 9//9
f 12//12 11//11 8//8
f 12//12 8//8 7//7
f 11//11 12//12 10//10
f 13//13 7//7 6//6
f 10//10 13//13 6//6
f 14//14 10//10 12//12
f 14//14 12//12 7//7
f 13//13 15//15 7//7
f 14//14 7//7 15//15
f 14//14 16//16 10//10
f 10//10 16//16 13//13
f 16//16 14//14 15//15
f 16//16 15//15 13//13
