# wall.half.corner.R.collision
v 0.0536433496 1.50290251 1.61750913
v 0.000720987387 1.50290251 1.62851739
v 0.000720845361 5.44800751E-05 1.62851799
v 0.0834459364 1.50290251 1.27549803
v 0.053643208 5.44777577E-05 1.61751032
v 0.132715151 1.50290251 1.42799556
v 0.0834457949 -2.16648987E-05 1.27549803
v 0.132715017 -2.16670524E-05 1.42799556
v 0.132715002 -2.16670524E-05 1.52947319
v 0.132715121 1.50290251 1.52947259
vn 0.381803662 0.643221915 0.663695395
vn -0.598271787 0.549114108 0.583561957
vn -0.715770066 -0.0151588591 0.698171496
vn -0.034859661 0.523320019 -0.851422966
vn -0.1419072 -0.294974148 0.944908857
vn 0.73000133 0.673701346 -0.114998616
vn -0.0365720242 -0.450685233 -0.891933441
vn 0.729801595 -0.673925817 -0.114950992
vn 0.721315563 -0.634998441 0.276551604
vn 0.721570015 0.634743512 0.276473016
g submesh0
f 1//1 2//2 3//3
f 3//3 2//2 4//4
f 1//1 4//4 2//2
f 1//1 3//3 5//5
f 5//5 3//3 4//4
f 1//1 6//6 4//4
f 4//4 7//7 5//5
f 7//7 4//4 6//6
f 5//5 7//7 8//8
f 7//7 6//6 8//8
f 1//1 5//5 9//9
f 5//5 8//8 9//9
f 10//10 8//8 6//6
f 10//10 6//6 1//1
f 1//1 9//9 10//10
f 10//10 9//9 8//8
