# wall.corner.R.collision
v 0.104690738 2.24965119 1.50000381
v -0.098423101 2.24965119 1.83524895
v -0.100000836 2.24965072 1.5000025
v 0.104691073 2.24965119 1.83524954
v 0.104694851 2.62465072 1.49999893
v 0.104690909 2.62482667 1.83525062
v -0.098423101 2.62482667 1.83525062
v -0.100002617 2.62464929 1.50000846
v 0.104690909 2.62482667 1.83525062
v -0.098423101 2.62482667 1.83525062
v -0.098423101 2.24965119 1.83524895
v 0.104691073 2.24965119 1.83524954
v -0.098423101 2.24965119 1.83524895
v -0.098423101 2.62482667 1.83525062
v -0.100002617 2.62464929 1.50000846
v -0.100000836 2.24965072 1.5000025
v 0.104691796 1.49964809 1.50000334
v -0.098422192 1.49964857 1.83524942
v -0.0999992862 1.49964845 1.50000274
v 0.104692101 1.49964821 1.83524942
v 0.104687393 1.87465036 1.50000358
v 0.104691654 1.87482393 1.83525062
v -0.0984223709 1.87482393 1.83524942
v -0.0999996662 1.87465048 1.50000763
v 0.104691654 1.87482393 1.83525062
v -0.0984223709 1.87482393 1.83524942
v -0.098422192 1.49964857 1.83524942
v 0.104692101 1.49964821 1.83524942
v -0.098422192 1.49964857 1.83524942
v -0.0984223709 1.87482393 1.83524942
v -0.0999996662 1.87465048 1.50000763
v -0.0999992862 1.49964845 1.50000274
v 0.103218146 2.02599054E-07 1.50000787
v -0.0984222591 -0.000526827818 1.8352493
v -0.0999985188 6.27477277E-07 1.50000715
v 0.1046919 -0.000527252676 1.8352493
v 0.1046919 0.374648511 1.50000286
v 0.1046919 0.374648899 1.83525038
v -0.0984222591 0.374649048 1.8352493
v -0.100002117 0.374654084 1.50000775
v 0.1046919 0.374648899 1.83525038
v -0.0984222591 0.374649048 1.8352493
v -0.0984222591 -0.000526827818 1.8352493
v 0.1046919 -0.000527252676 1.8352493
v -0.0984222591 -0.000526827818 1.8352493
v -0.0984222591 0.374649048 1.8352493
v -0.100002117 0.374654084 1.50000775
v -0.0999985188 6.27477277E-07 1.50000715
v 0.104690947 0.7496472 1.50000346
v -0.0984230712 0.74964726 1.8352499
v -0.100002617 0.74965024 1.50000298
v 0.104691237 0.749647141 1.8352499
v 0.104691252 1.12465215 1.50000405
v 0.10469079 1.12482285 1.8352505
v -0.0984232426 1.12482285 1.8352499
v -0.100000769 1.12465012 1.50000298
v 0.10469079 1.12482285 1.8352505
v -0.0984232426 1.12482285 1.8352499
v -0.0984230712 0.74964726 1.8352499
v 0.104691237 0.749647141 1.8352499
v -0.0984230712 0.74964726 1.8352499
v -0.0984232426 1.12482285 1.8352499
v -0.100000769 1.12465012 1.50000298
v -0.100002617 0.74965024 1.50000298
vn 0.707106471 -0.707107008 4.60165938E-06
vn -0.575865924 -0.577599466 0.578582108
vn -0.708155036 -0.706049025 0.00333545939
vn 0.577348471 -0.577351451 0.577350914
vn 0.707235932 0.706977546 -0.000368853682
vn 0.577319682 0.577515602 0.577215493
vn -0.575839221 0.577762723 0.578445673
vn -0.70827508 0.705930352 0.00296310801
vn 0.577319682 0.577515602 0.577215493
vn -0.575839221 0.577762723 0.578445673
vn -0.575865924 -0.577599466 0.578582108
vn 0.577348471 -0.577351451 0.577350914
vn -0.575865924 -0.577599466 0.578582108
vn -0.575839221 0.577762723 0.578445673
vn -0.70827508 0.705930352 0.00296310801
vn -0.708155036 -0.706049025 0.00333545939
vn 0.707107484 -0.707106054 -4.52677614E-06
vn -0.575867891 -0.577597797 0.57858181
vn -0.708156407 -0.706047773 0.0033318738
vn 0.577352166 -0.57735008 0.57734865
vn 0.707222879 0.706990659 -0.00037075585
vn 0.577323794 0.577512681 0.57721436
vn -0.575840771 0.577761531 0.578445435
vn -0.708274484 0.705930948 0.00296675228
vn 0.577323794 0.577512681 0.57721436
vn -0.575840771 0.577761531 0.578445435
vn -0.575867891 -0.577597797 0.57858181
vn 0.577352166 -0.57735008 0.57734865
vn -0.575867891 -0.577597797 0.57858181
vn -0.575840771 0.577761531 0.578445435
vn -0.708274484 0.705930948 0.00296675228
vn -0.708156407 -0.706047773 0.0033318738
vn 0.705772221 -0.708433807 -0.00266483938
vn -0.575785398 -0.578094423 0.578167796
vn -0.708513498 -0.705693781 0.00222482439
vn 0.577848077 -0.577948749 0.576252282
vn 0.707807064 0.70640409 -0.00155193952
vn 0.578153849 0.577012122 0.576884031
vn -0.575864017 0.577597558 0.578585982
vn -0.708148777 0.706055343 0.00333836605
vn 0.578153849 0.577012122 0.576884031
vn -0.575864017 0.577597558 0.578585982
vn -0.575785398 -0.578094423 0.578167796
vn 0.577848077 -0.577948749 0.576252282
vn -0.575785398 -0.578094423 0.578167796
vn -0.575864017 0.577597558 0.578585982
vn -0.708148777 0.706055343 0.00333836605
vn -0.708513498 -0.705693781 0.00222482439
vn 0.707102835 -0.707110703 -3.0580884E-06
vn -0.575867772 -0.577598453 0.578581333
vn -0.70816642 -0.7060377 0.00333119184
vn 0.577348053 -0.57735312 0.577349722
vn 0.707219064 0.706994414 -0.000361861137
vn 0.577321351 0.577511668 0.577217579
vn -0.575840473 0.577759624 0.578447521
vn -0.708277524 0.705927908 0.00297346525
vn 0.577321351 0.577511668 0.577217579
vn -0.575840473 0.577759624 0.578447521
vn -0.575867772 -0.577598453 0.578581333
vn 0.577348053 -0.57735312 0.577349722
vn -0.575867772 -0.577598453 0.578581333
vn -0.575840473 0.577759624 0.578447521
vn -0.708277524 0.705927908 0.00297346525
vn -0.70816642 -0.7060377 0.00333119184
vt 0.499936879 0.68695271
vt 0.471780568 0.694602728
vt 0.499936879 0.694602668
vt 0.47178936 0.688644826
vt 0.499936879 0.718108535
vt 0.471780598 0.71810776
vt 0.471780598 0.709782124
vt 0.499936879 0.709802926
vt 0.988669932 0.0658600852
vt 0.966870785 0.0656328723
vt 0.966691852 0.121387295
vt 0.98846364 0.121380977
vt 0.249881655 0.687081397
vt 0.249881893 0.718143046
vt 0.221789569 0.718143046
vt 0.221789569 0.687081397
vt 0.499936879 0.624634683
vt 0.471780866 0.632657707
vt 0.499936879 0.632657528
vt 0.471789509 0.626327991
vt 0.499936879 0.655807197
vt 0.471780837 0.655806541
vt 0.471780837 0.647835732
vt 0.499936879 0.647855639
vt 0.988011301 0.067287676
vt 0.967848003 0.065988712
vt 0.967848837 0.120967679
vt 0.987887621 0.120206639
vt 0.249495894 0.626517355
vt 0.249496073 0.657049537
vt 0.221778929 0.657049537
vt 0.221778929 0.626517355
vt 0.499936879 0.500044048
vt 0.472005427 0.508370161
vt 0.499936879 0.508370101
vt 0.472006559 0.501745701
vt 0.499936879 0.53117764
vt 0.472005486 0.531177759
vt 0.472005516 0.522085369
vt 0.499936879 0.522108138
vt 0.988011479 0.0673721358
vt 0.967848063 0.066075258
vt 0.967849612 0.121054225
vt 0.987888694 0.120292589
vt 0.249495953 0.500107169
vt 0.249496102 0.534426808
vt 0.22179389 0.534426808
vt 0.22179389 0.500098825
vt 0.499936879 0.562324882
vt 0.471780866 0.570149124
vt 0.499936879 0.570148945
vt 0.47178936 0.564027429
vt 0.499936879 0.593493164
vt 0.471780837 0.593492448
vt 0.471780956 0.58581686
vt 0.499936879 0.585836053
vt 0.988011122 0.0672877952
vt 0.967847884 0.0659888312
vt 0.967848837 0.120967738
vt 0.987887681 0.120206647
vt 0.222164989 0.565572083
vt 0.222164899 0.595917046
vt 0.249881923 0.595917046
vt 0.249881923 0.565572023
g submesh0
f 1/1/1 2/2/2 3/3/3
f 1/1/1 4/4/4 2/2/2
f 4/4/4 1/1/1 5/5/5
f 4/4/4 5/5/5 6/6/6
f 7/7/7 6/6/6 5/5/5
f 7/7/7 5/5/5 8/8/8
f 9/9/9 10/10/10 11/11/11
f 9/9/9 11/11/11 12/12/12
f 13/13/13 14/14/14 15/15/15
f 13/13/13 15/15/15 16/16/16
f 17/17/17 18/18/18 19/19/19
f 17/17/17 20/20/20 18/18/18
f 20/20/20 17/17/17 21/21/21
f 20/20/20 21/21/21 22/22/22
f 23/23/23 22/22/22 21/21/21
f 23/23/23 21/21/21 24/24/24
f 25/25/25 26/26/26 27/27/27
f 25/25/25 27/27/27 28/28/28
f 29/29/29 30/30/30 31/31/31
f 29/29/29 31/31/31 32/32/32
f 33/33/33 34/34/34 35/35/35
f 33/33/33 36/36/36 34/34/34
f 36/36/36 33/33/33 37/37/37
f 36/36/36 37/37/37 38/38/38
f 39/39/39 38/38/38 37/37/37
f 39/39/39 37/37/37 40/40/40
f 41/41/41 42/42/42 43/43/43
f 41/41/41 43/43/43 44/44/44
f 45/45/45 46/46/46 47/47/47
f 45/45/45 47/47/47 48/48/48
f 49/49/49 50/50/50 51/51/51
f 49/49/49 52/52/52 50/50/50
f 52/52/52 49/49/49 53/53/53
f 52/52/52 53/53/53 54/54/54
f 55/55/55 54/54/54 53/53/53
f 55/55/55 53/53/53 56/56/56
f 57/57/57 58/58/58 59/59/59
f 57/57/57 59/59/59 60/60/60
f 61/61/61 62/62/62 63/63/63
f 61/61/61 63/63/63 64/64/64
