# wall.third.corner.L.collision
v 0.125842154 0.983035028 -0.451147437
v 0.12584202 1.11205184 -1.40029776
v 0.12584202 1.15382648 -1.39159667
v 0.125841916 0.653784752 -1.60390615
v 0.125841975 1.11164212 -1.62852049
v 0.12584196 0.614026964 -1.20914054
v 0.125842065 0.555714548 -0.54166013
v 0.125841945 0.472167015 -1.19695795
v 0.125841781 -0.0379245356 -1.643291
v 0.125841886 0.643938422 -1.69744623
v 0.12584196 -0.0352216698 -0.545097709
v 0.12584205 0.442576557 -0.565986335
v 0.115842015 1.11205184 -1.40029776
v 0.115842149 0.983035028 -0.451147437
v 0.115842022 1.15382648 -1.39159667
v 0.11584191 0.653784752 -1.60390615
v 0.115841977 1.11164212 -1.62852049
v 0.11584197 0.614026964 -1.20914054
v 0.115842067 0.555714548 -0.54166013
v 0.11584194 0.472167015 -1.19695795
v 0.115841784 -0.0379245356 -1.643291
v 0.115841888 0.643938422 -1.69744623
v 0.11584197 -0.0352216698 -0.545097709
v 0.115842044 0.442576557 -0.565986335
vn 1 -1.62920728E-07 -1.62920728E-07
vn 1 -1.62920813E-07 -1.62920728E-07
vn 1 -1.6292104E-07 -1.62920756E-07
vn 1 -1.62920699E-07 -1.62920657E-07
vn 1 -1.62920713E-07 -1.62920699E-07
vn 1 -1.62920713E-07 -1.62920685E-07
vn 1 -1.62920728E-07 -1.62920728E-07
vn 1 -1.62920685E-07 -1.62920685E-07
vn 1 -1.62920685E-07 -1.62920685E-07
vn 1 -1.62920657E-07 -1.62920585E-07
vn 1 -1.62920699E-07 -1.62920699E-07
vn 1 -1.62920713E-07 -1.62920713E-07
vn -1 1.63746009E-07 1.63251144E-07
vn -1 1.63314269E-07 1.63916127E-07
vn -1 1.65506989E-07 1.64420385E-07
vn -1 1.62608188E-07 1.62405144E-07
vn -1 1.62303706E-07 1.61633338E-07
vn -1 1.60863934E-07 1.62487765E-07
vn -1 1.63270414E-07 1.64284188E-07
vn -1 1.62071871E-07 1.62372856E-07
vn -1 1.6355466E-07 1.62784801E-07
vn -1 1.63159186E-07 1.61244103E-07
vn -1 1.64178559E-07 1.62538058E-07
vn -1 1.64293013E-07 1.62627146E-07
g submesh0
f 1//1 2//2 3//3
f 1//1 4//4 2//2
f 2//2 4//4 5//5
f 1//1 6//6 4//4
f 6//6 1//1 7//7
f 8//8 4//4 6//6
f 4//4 8//8 9//9
f 4//4 9//9 10//10
f 9//9 8//8 11//11
f 11//11 8//8 12//12
f 13//13 14//14 15//15
f 16//16 14//14 13//13
f 16//16 13//13 17//17
f 16//16 18//18 14//14
f 14//14 18//18 19//19
f 16//16 20//20 18//18
f 20//20 16//16 21//21
f 21//21 16//16 22//22
f 20//20 21//21 23//23
f 20//20 23//23 24//24
