# wall.corner.R.collision
v 0.225549802 0.021987604 1.59915733
v 0.208612129 3.00365782 1.58905637
v 0.0692195669 3.00365806 1.62911367
v 0.069219254 0.0220637526 1.64833796
v 0.152194723 0.0219876096 1.23765039
v 0.208612129 3.00365782 1.58905637
v 0.225549802 0.021987604 1.59915733
v 0.138820022 3.00365806 1.25484431
v 0.0422372632 0.0219876133 1.23109496
v 0.0422373936 3.00365806 1.25001466
v 0.152194723 0.0219876096 1.23765039
v 0.225549802 0.021987604 1.59915733
v 0.069219254 0.0220637526 1.64833796
v 0.0422372632 0.0219876133 1.23109496
v 0.0692195669 3.00365806 1.62911367
v 0.208612129 3.00365782 1.58905637
v 0.138820022 3.00365806 1.25484431
v 0.0422373936 3.00365806 1.25001466
v 0.0692195669 3.00365806 1.62911367
v 0.0422373936 3.00365806 1.25001466
v 0.0422372632 0.0219876133 1.23109496
v 0.069219254 0.0220637526 1.64833796
vn 0.697998524 -0.582879007 0.415992856
vn 0.698978603 0.581315756 0.416534185
vn -0.467570722 0.572590411 0.673437297
vn -0.46980238 -0.560523152 0.68198204
vn 0.527086318 -0.589920282 -0.611697614
vn 0.698978603 0.581315756 0.416534185
vn 0.697998524 -0.582879007 0.415992856
vn 0.525179982 0.594363451 -0.609030485
vn -0.583952725 -0.569033206 -0.578964889
vn -0.584210098 0.573379517 -0.574399233
vn 0.527086318 -0.589920282 -0.611697614
vn 0.697998524 -0.582879007 0.415992856
vn -0.46980238 -0.560523152 0.68198204
vn -0.583952725 -0.569033206 -0.578964889
vn -0.467570722 0.572590411 0.673437297
vn 0.698978603 0.581315756 0.416534185
vn 0.525179982 0.594363451 -0.609030485
vn -0.584210098 0.573379517 -0.574399233
vn -0.467570722 0.572590411 0.673437297
vn -0.584210098 0.573379517 -0.574399233
vn -0.583952725 -0.569033206 -0.578964889
vn -0.46980238 -0.560523152 0.68198204
vt 0.563011229 0.000691473484
vt 0.562438011 0.374606788
vt 0.578249574 0.374615103
vt 0.578468859 0.000691473484
vt 0.735967338 0.000691473484
vt 0.687144399 0.376811564
vt 0.687791169 0.000691473484
vt 0.736282706 0.37683326
vt 0.748402119 0.000691473484
vt 0.748631895 0.376805633
vt 0.865766168 0.129682705
vt 0.83709836 0.133859977
vt 0.834678292 0.144346461
vt 0.868448257 0.138361976
vt 0.963068008 0.13596873
vt 0.965093374 0.144950256
vt 0.991519213 0.148845419
vt 0.99379921 0.141202435
vt 0.998477757 0.157010242
vt 0.998107076 0.125505537
vt 0.75095576 0.126847252
vt 0.751369774 0.161501631
g submesh0
f 1/1/1 2/2/2 3/3/3
f 1/1/1 3/3/3 4/4/4
f 5/5/5 6/6/6 7/7/7
f 5/5/5 8/8/8 6/6/6
f 8/8/8 5/5/5 9/9/9
f 8/8/8 9/9/9 10/10/10
f 11/11/11 12/12/12 13/13/13
f 11/11/11 13/13/13 14/14/14
f 15/15/15 16/16/16 17/17/17
f 15/15/15 17/17/17 18/18/18
f 19/19/19 20/20/20 21/21/21
f 19/19/19 21/21/21 22/22/22
