# wall.third.corner.R.collision
v 0.0858210623 1.00986254 1.59431422
v 0.0527034402 1.00986254 1.56306612
v 0.0527032465 5.44778013E-05 1.56306732
v 0.105247699 1.00986254 1.2750814
v 0.105247542 -2.166585E-05 1.2750814
v 0.0858209133 5.44763534E-05 1.59431517
v 0.152519807 1.00986254 1.2750814
v 0.152519688 -2.16679182E-05 1.2750814
v 0.152519688 -2.16679182E-05 1.5245043
v 0.152519807 1.00986254 1.52450371
vn 0.0211515352 0.577679336 0.815989673
vn -0.753984869 0.608529568 0.247383401
vn -0.950109065 -0.0107557494 0.311732352
vn -0.521317959 0.580892861 -0.625132859
vn -0.527688563 -0.567122102 -0.632390201
vn -0.343931109 -0.307698965 0.887148678
vn 0.577350378 0.57735014 -0.577350318
vn 0.577141643 -0.57748723 -0.577421784
vn 0.718952835 -0.632408619 0.288385332
vn 0.719193935 0.632154167 0.288342267
g submesh0
f 1//1 2//2 3//3
f 1//1 4//4 2//2
f 3//3 2//2 4//4
f 3//3 4//4 5//5
f 1//1 3//3 6//6
f 5//5 6//6 3//3
f 5//5 4//4 7//7
f 1//1 7//7 4//4
f 6//6 5//5 8//8
f 5//5 7//7 8//8
f 1//1 6//6 9//9
f 6//6 8//8 9//9
f 10//10 8//8 7//7
f 10//10 7//7 1//1
f 1//1 9//9 10//10
f 10//10 9//9 8//8
