# wall.corner.R.collision
v -0.0089021977 3.0000031 1.50355494
v -0.00890197884 1.94245877E-06 1.50355887
v 0.0037010985 1.99667625E-06 1.59999657
v 0.00369988522 3.00000167 1.59999633
v 0.0599867366 3.52361462E-06 1.59008145
v 0.0037010985 1.99667625E-06 1.59999657
v 0.0599867515 3.00000572 1.59008086
v 0.126550019 9.10060578E-07 1.5249089
v 0.126550019 3.00000095 1.5249083
v 0.107446745 3.00000238 1.43551278
v 0.10744679 -4.99712371E-07 1.43551326
v 0.0728956163 3.15918373E-06 1.34768248
v 0.0729002729 2.99999881 1.34767914
v -0.0089021977 3.0000031 1.50355494
v 0.00369988522 3.00000167 1.59999633
v 0.0599867515 3.00000572 1.59008086
v 0.0715932846 2.99766803 1.50004935
v 0.126550019 3.00000095 1.5249083
v 0.107446745 3.00000238 1.43551278
v 0.0729002729 2.99999881 1.34767914
v 0.0037010985 1.99667625E-06 1.59999657
v -0.00890197884 1.94245877E-06 1.50355887
v 0.0715932772 -7.26549524E-06 1.50005043
v 0.0599867366 3.52361462E-06 1.59008145
v 0.126550019 9.10060578E-07 1.5249089
v 0.10744679 -4.99712371E-07 1.43551326
v 0.0728956163 3.15918373E-06 1.34768248
vn -0.716036201 0.692712665 0.0862630457
vn -0.720697641 -0.686817527 0.0942153409
vn -0.484146059 -0.57503438 0.659498394
vn -0.479460269 0.580272853 0.658332109
vn 0.34874022 -0.646176696 0.678848982
vn -0.484146059 -0.57503438 0.659498394
vn 0.35370931 0.650384426 0.672227621
vn 0.756522775 -0.612932861 0.228005975
vn 0.748064399 0.624419034 0.224723145
vn 0.680698574 0.703605533 -0.203933269
vn 0.693877935 -0.689070821 -0.209081084
vn 0.90406251 -0.237072483 -0.355622888
vn 0.903553903 0.239300326 -0.355423391
vn -0.716036201 0.692712665 0.0862630457
vn -0.479460269 0.580272853 0.658332109
vn 0.35370931 0.650384426 0.672227621
vn -0.0222639609 0.999726951 -0.00709470129
vn 0.748064399 0.624419034 0.224723145
vn 0.680698574 0.703605533 -0.203933269
vn 0.903553903 0.239300326 -0.355423391
vn -0.484146059 -0.57503438 0.659498394
vn -0.720697641 -0.686817527 0.0942153409
vn 6.6491848E-05 -1 4.05310275E-05
vn 0.34874022 -0.646176696 0.678848982
vn 0.756522775 -0.612932861 0.228005975
vn 0.693877935 -0.689070821 -0.209081084
vn 0.90406251 -0.237072483 -0.355622888
vt 0.429440558 0.245609149
vt 0.426522493 -0.24580951
vt 0.440015882 -0.24580954
vt 0.441521108 0.245609149
vt 0.45097366 -0.245809481
vt 0.441255689 -0.245809734
vt 0.45096004 0.245609149
vt 0.464580953 -0.245809793
vt 0.46415031 0.245609149
vt 0.478907943 0.245609149
vt 0.479453921 -0.245809987
vt 0.500275195 -0.245809406
vt 0.499228895 0.245609149
vt 0.479525805 0.4463211
vt 0.476750523 0.473152012
vt 0.463095516 0.467570961
vt 0.460229516 0.446326226
vt 0.449197292 0.451791078
vt 0.451755375 0.431085646
vt 0.459917843 0.41034016
vt 0.476272285 0.474014759
vt 0.47924459 0.447149903
vt 0.460229516 0.446326226
vt 0.462978572 0.467592716
vt 0.449194551 0.451791137
vt 0.451800942 0.431082219
vt 0.45991376 0.410333902
g submesh0
f 1/1/1 2/2/2 3/3/3
f 1/1/1 3/3/3 4/4/4
f 5/5/5 4/4/4 6/6/6
f 5/5/5 7/7/7 4/4/4
f 7/7/7 5/5/5 8/8/8
f 7/7/7 8/8/8 9/9/9
f 8/8/8 10/10/10 9/9/9
f 8/8/8 11/11/11 10/10/10
f 10/10/10 11/11/11 12/12/12
f 10/10/10 12/12/12 13/13/13
f 14/14/14 15/15/15 16/16/16
f 14/14/14 16/16/16 17/17/17
f 17/17/17 16/16/16 18/18/18
f 17/17/17 18/18/18 19/19/19
f 17/17/17 19/19/19 20/20/20
f 21/21/21 22/22/22 23/23/23
f 21/21/21 23/23/23 24/24/24
f 23/23/23 25/25/25 24/24/24
f 23/23/23 26/26/26 25/25/25
f 23/23/23 27/27/27 26/26/26
