# wall.half.corner.R.collision
v 0.103218146 2.02599054E-07 1.50000787
v -0.0984222591 -0.000526827818 1.8352493
v -0.0999985188 6.27477277E-07 1.50000715
v 0.1046919 -0.000527252676 1.8352493
v 0.1046919 0.374648511 1.50000286
v 0.1046919 0.374648899 1.83525038
v -0.0984222591 0.374649048 1.8352493
v -0.100002117 0.374654084 1.50000775
v 0.1046919 0.374648899 1.83525038
v -0.0984222591 0.374649048 1.8352493
v -0.0984222591 -0.000526827818 1.8352493
v 0.1046919 -0.000527252676 1.8352493
v -0.0984222591 -0.000526827818 1.8352493
v -0.0984222591 0.374649048 1.8352493
v -0.100002117 0.374654084 1.50000775
v -0.0999985188 6.27477277E-07 1.50000715
v 0.104690947 0.7496472 1.50000346
v -0.0984230712 0.74964726 1.8352499
v -0.100002617 0.74965024 1.50000298
v 0.104691237 0.749647141 1.8352499
v 0.104691252 1.12465215 1.50000405
v 0.10469079 1.12482285 1.8352505
v -0.0984232426 1.12482285 1.8352499
v -0.100000769 1.12465012 1.50000298
v 0.10469079 1.12482285 1.8352505
v -0.0984232426 1.12482285 1.8352499
v -0.0984230712 0.74964726 1.8352499
v 0.104691237 0.749647141 1.8352499
v -0.0984230712 0.74964726 1.8352499
v -0.0984232426 1.12482285 1.8352499
v -0.100000769 1.12465012 1.50000298
v -0.100002617 0.74965024 1.50000298
vn 0.705772221 -0.708433807 -0.00266483938
vn -0.575785398 -0.578094423 0.578167796
vn -0.708513498 -0.705693781 0.00222482439
vn 0.577848077 -0.577948749 0.576252282
vn 0.707807064 0.70640409 -0.00155193952
vn 0.578153849 0.577012122 0.576884031
vn -0.575864017 0.577597558 0.578585982
vn -0.708148777 0.706055343 0.00333836605
vn 0.578153849 0.577012122 0.576884031
vn -0.575864017 0.577597558 0.578585982
vn -0.575785398 -0.578094423 0.578167796
vn 0.577848077 -0.577948749 0.576252282
vn -0.575785398 -0.578094423 0.578167796
vn -0.575864017 0.577597558 0.578585982
vn -0.708148777 0.706055343 0.00333836605
vn -0.708513498 -0.705693781 0.00222482439
vn 0.707102835 -0.707110703 -3.0580884E-06
vn -0.575867772 -0.577598453 0.578581333
vn -0.70816642 -0.7060377 0.00333119184
vn 0.577348053 -0.57735312 0.577349722
vn 0.707219064 0.706994414 -0.000361861137
vn 0.577321351 0.577511668 0.577217579
vn -0.575840473 0.577759624 0.578447521
vn -0.708277524 0.705927908 0.00297346525
vn 0.577321351 0.577511668 0.577217579
vn -0.575840473 0.577759624 0.578447521
vn -0.575867772 -0.577598453 0.578581333
vn 0.577348053 -0.57735312 0.577349722
vn -0.575867772 -0.577598453 0.578581333
vn -0.575840473 0.577759624 0.578447521
vn -0.708277524 0.705927908 0.00297346525
vn -0.70816642 -0.7060377 0.00333119184
vt 0.499936879 0.500044048
vt 0.472005427 0.508370161
vt 0.499936879 0.508370101
vt 0.472006559 0.501745701
vt 0.499936879 0.53117764
vt 0.472005486 0.531177759
vt 0.472005516 0.522085369
vt 0.499936879 0.522108138
vt 0.988011479 0.0673721358
vt 0.967848063 0.066075258
vt 0.967849612 0.121054225
vt 0.987888694 0.120292589
vt 0.249495953 0.500107169
vt 0.249496102 0.534426808
vt 0.22179389 0.534426808
vt 0.22179389 0.500098825
vt 0.499936879 0.562324882
vt 0.471780866 0.570149124
vt 0.499936879 0.570148945
vt 0.47178936 0.564027429
vt 0.499936879 0.593493164
vt 0.471780837 0.593492448
vt 0.471780956 0.58581686
vt 0.499936879 0.585836053
vt 0.988011122 0.0672877952
vt 0.967847884 0.0659888312
vt 0.967848837 0.120967738
vt 0.987887681 0.120206647
vt 0.222164989 0.565572083
vt 0.222164899 0.595917046
vt 0.249881923 0.595917046
vt 0.249881923 0.565572023
g submesh0
f 1/1/1 2/2/2 3/3/3
f 1/1/1 4/4/4 2/2/2
f 4/4/4 1/1/1 5/5/5
f 4/4/4 5/5/5 6/6/6
f 7/7/7 6/6/6 5/5/5
f 7/7/7 5/5/5 8/8/8
f 9/9/9 10/10/10 11/11/11
f 9/9/9 11/11/11 12/12/12
f 13/13/13 14/14/14 15/15/15
f 13/13/13 15/15/15 16/16/16
f 17/17/17 18/18/18 19/19/19
f 17/17/17 20/20/20 18/18/18
f 20/20/20 17/17/17 21/21/21
f 20/20/20 21/21/21 22/22/22
f 23/23/23 22/22/22 21/21/21
f 23/23/23 21/21/21 24/24/24
f 25/25/25 26/26/26 27/27/27
f 25/25/25 27/27/27 28/28/28
f 29/29/29 30/30/30 31/31/31
f 29/29/29 31/31/31 32/32/32
