# wall.half
v -0.0630618185 -0.011248474 -1.50819945
v -0.0630618185 -0.011248474 1.50443351
v -0.101191834 -0.0120846555 1.50919211
v -0.102033563 -0.011921539 -1.51066148
v -0.106802061 9.18485073E-17 -1.5
v -0.106802061 -9.18485073E-17 1.5
v -0.106802061 1.50040483 -1.5
v -0.102033563 -0.011921539 -1.51066148
v -0.100531988 1.50967181 -1.5108844
v -0.0630618185 -0.011248474 -1.50819945
v -0.0630618185 1.50488198 -1.50819945
v -0.106802061 1.50040483 1.5
v -0.100531988 1.50967181 -1.5108844
v -0.0995826721 1.50975382 1.50932908
v -0.0995826721 1.50975382 1.50932908
v -0.0630618185 1.50488198 -1.50819945
v -0.0630618185 1.50488198 1.50443351
v -0.101191834 -0.0120846555 1.50919211
v -0.0630618185 1.50488198 1.50443351
v -0.0630618185 -0.011248474 1.50443351
v -0.0630618185 -0.011248474 -1.50819945
v -0.0630618185 1.50488198 -1.50819945
v -0.0630618185 1.50488198 1.50443351
v -0.0630618185 -0.011248474 1.50443351
vn 0.0172680169 -0.999850869 0
vn 0.0219244771 -0.999759614 0
vn -0.16506575 -0.986282527 -7.26451253E-06
vn -0.152688846 -0.988274336 -1.08219556E-05
vn -0.99998641 -0.00460221851 -0.00246004201
vn -0.999982953 -0.00501947384 0.00298451842
vn -0.999976039 0.00633513927 -0.00281202351
vn -0.0755017549 -7.15846254E-05 -0.997145593
vn -0.0951228961 -5.19754249E-05 -0.995465577
vn 0.0630484372 0 -0.998010457
vn 0.0714720562 0 -0.997442603
vn -0.99997282 0.00661504548 0.00326482928
vn -0.00829324685 0.999965668 -2.45732754E-05
vn -0.0132046184 -7.59679679E-05 0.999912858
vn -0.0184132811 0.999830484 -2.13886669E-05
vn 0.126796186 0.991928816 0
vn 0.132227167 0.991219461 0
vn 0.00386131718 -9.40203608E-05 0.999992609
vn 0.132857785 0 0.99113512
vn 0.123838812 0 0.992302299
vn 1 0 0
vn 1 0 0
vn 1 0 0
vn 1 0 0
vt 1.00231469 -0.0176756177
vt -0.00138625526 -0.0173913315
vt -0.00294155255 -0.00400827499
vt 1.00314236 -0.00367515977
vt 1 0
vt 0 0
vt 1 0.499967128
vt 1.00314236 -0.00367515977
vt 1.0035665 0.503055453
vt 1.01716948 -0.00362140429
vt 1.01678574 0.501444817
vt 0 0.500133514
vt 1.0035665 0.503055453
vt -0.00312831532 0.503047466
vt -0.00312831532 0.503047466
vt 1.00263345 0.516258955
vt -0.00151221652 0.515970111
vt -0.00294155255 -0.00400827499
vt -0.0159839578 0.501374483
vt -0.0164851137 -0.00366370659
vt 0 1.06403775E-12
vt 0 0.500158608
vt 1 0.499968469
vt 1 1.06403775E-12
g submesh0
f 1/1/1 2/2/2 3/3/3
f 1/1/1 3/3/3 4/4/4
f 5/5/5 4/4/4 3/3/3
f 5/5/5 3/3/3 6/6/6
f 6/6/6 7/7/7 5/5/5
f 8/8/8 5/5/5 7/7/7
f 8/8/8 7/7/7 9/9/9
f 10/10/10 8/8/8 9/9/9
f 10/10/10 9/9/9 11/11/11
f 6/6/6 12/12/12 7/7/7
f 12/12/12 13/13/13 7/7/7
f 6/6/6 14/14/14 12/12/12
f 12/12/12 15/15/15 13/13/13
f 15/15/15 16/16/16 13/13/13
f 15/15/15 17/17/17 16/16/16
f 6/6/6 18/18/18 14/14/14
f 18/18/18 19/19/19 14/14/14
f 18/18/18 20/20/20 19/19/19
f 21/21/21 22/22/22 23/23/23
f 21/21/21 23/23/23 24/24/24
