# wall.doorway.collision
v -0.047852058 2.31326008 0.69641602
v -0.0688105077 0.100012742 0.699345291
v -0.0478525199 0.100025706 0.710977674
v -0.0683587939 2.30556822 0.688531935
v -0.0478520766 2.31326008 -0.692590415
v -0.0690324306 2.20758915 0.599419177
v -0.068160139 0.0999900028 0.599419177
v -0.0683587939 2.30556822 -0.692590415
v -0.0478525348 0.100025706 -0.692590296
v -0.06881053 0.100012816 -0.692590296
v -0.0681601465 0.0999900773 -0.594698906
v -0.069032453 2.20758915 -0.594698906
v 0.128479347 0.0999900028 -0.594698906
v 0.129351601 2.20758915 -0.594698906
v 0.129580304 0.100003056 -0.696703613
v 0.0540053509 0.100007169 -0.80789727
v 0.0543161109 2.41561341 -0.801786304
v 0.129531637 2.3081789 -0.694345355
v 0.129531652 2.30817866 0.694345772
v 0.0543161146 2.41561341 0.801786661
v 0.129351601 2.20758915 0.599419177
v 0.129580289 0.100002751 0.696703315
v 0.0540053509 0.10000702 0.807896912
v 0.128479347 0.0999897718 0.599419177
v 0.106849782 3.01692414 -1.50000536
v 0.106849648 2.26321673 -0.630278289
v 0.106849648 0.117560044 -0.630278587
v 0.106849462 2.26321673 0.630302668
v 0.106849328 3.01690149 1.49999428
v 0.106849328 -0.00988258142 1.49999416
v 0.106849462 0.11746078 0.630302906
v -0.0559535399 0.112091728 -0.632498026
v -0.0559535399 0.112091728 0.628084242
v 0.106849782 -0.00990501139 -1.50000548
v 0.00662349863 -0.00494041201 1.50499415
v 0.00662349863 3.01195955 1.50499451
v 0.00662395265 3.01197076 -1.50500488
v 0.00662395265 -0.00495155063 -1.50500548
v -0.0936005116 1.7571449E-06 -1.50000536
v -0.0936005116 3.00701737 -1.50000513
v -0.093600966 1.45196907E-06 1.49999428
v -0.0559535399 2.29231262 -0.632498026
v -0.0559535399 2.29231262 0.628084242
v -0.093600966 3.00701785 1.49999452
vn -0.512065768 0.616780519 0.597804725
vn -0.843854368 0.00304919435 0.536563575
vn -0.426652789 0.00523721147 0.904400349
vn -0.774661422 0.457902521 0.436147749
vn -0.278056234 0.741304517 -0.610861957
vn -0.905390501 -0.29879716 -0.301642627
vn -0.640232205 -0.424320966 -0.640354812
vn -0.657879651 0.457522482 -0.598220348
vn 1.57412487E-07 0 -1
vn -0.707283974 -6.89908193E-05 -0.706929505
vn -0.639151454 -0.427559048 0.639279783
vn -0.905406475 -0.298739642 0.301651925
vn 0.574729919 -0.578838527 0.578473508
vn 0.903534353 -0.30207625 0.30393371
vn 0.729944587 -0.645467997 -0.224837393
vn 0.670995533 -0.579599798 -0.462416559
vn 0.897428691 0.313485444 -0.310400724
vn 0.945512414 0.232000604 -0.228434026
vn 0.945517004 0.231994569 0.228421092
vn 0.897428632 0.31348598 0.310400426
vn 0.90348959 -0.302054286 -0.304088503
vn 0.730027437 -0.645407796 0.224741295
vn 0.669032753 -0.582935095 0.461065978
vn 0.574605703 -0.578908563 -0.578526676
vn 0.576569438 0.595674932 -0.559230685
vn 1 0 1.50995803E-07
vn 0.946817577 0.321770817 1.28119336E-05
vn 1 0 1.50995803E-07
vn 0.576559007 0.595657527 0.55926007
vn 0.576558828 -0.595657587 0.55926007
vn 0.948514581 0.316733599 1.26138621E-05
vn -0.877420187 0.479516327 0.0140664307
vn -0.875255942 0.483459443 -0.0139297564
vn 0.576568365 -0.595676422 -0.559230268
vn -0.0331995562 -0.695254803 0.71799612
vn -0.0331987776 0.695254445 0.717996538
vn -0.0331972875 0.695258617 -0.717992604
vn -0.0331980065 -0.695257127 -0.717994034
vn -0.615731359 -0.560702026 -0.553613782
vn -0.612102747 0.559600711 -0.558728218
vn -0.615685344 -0.56073314 0.553633392
vn -0.999408245 -0.0273907371 0.0208049826
vn -0.999410152 -0.0274183843 -0.0206776876
vn -0.612089097 0.559636116 0.558707654
g submesh0
f 1//1 2//2 3//3
f 1//1 4//4 2//2
f 5//5 4//4 1//1
f 2//2 4//4 6//6
f 2//2 6//6 7//7
f 5//5 8//8 4//4
f 9//9 8//8 5//5
f 9//9 10//10 8//8
f 8//8 10//10 11//11
f 4//4 8//8 12//12
f 4//4 12//12 6//6
f 8//8 11//11 12//12
f 13//13 12//12 11//11
f 14//14 6//6 12//12
f 13//13 14//14 12//12
f 11//11 15//15 13//13
f 11//11 16//16 15//15
f 17//17 15//15 16//16
f 18//18 13//13 15//15
f 17//17 18//18 15//15
f 18//18 14//14 13//13
f 19//19 18//18 17//17
f 19//19 14//14 18//18
f 19//19 17//17 20//20
f 14//14 21//21 6//6
f 19//19 21//21 14//14
f 22//22 19//19 20//20
f 22//22 21//21 19//19
f 22//22 20//20 23//23
f 7//7 22//22 23//23
f 24//24 7//7 6//6
f 24//24 6//6 21//21
f 22//22 24//24 21//21
f 7//7 24//24 22//22
f 25//25 26//26 27//27
f 28//28 26//26 25//25
f 28//28 25//25 29//29
f 28//28 29//29 30//30
f 28//28 30//30 31//31
f 30//30 27//27 31//31
f 31//31 27//27 32//32
f 31//31 32//32 33//33
f 30//30 34//34 27//27
f 25//25 27//27 34//34
f 35//35 30//30 29//29
f 34//34 30//30 35//35
f 25//25 36//36 29//29
f 35//35 29//29 36//36
f 34//34 37//37 25//25
f 25//25 37//37 36//36
f 34//34 35//35 38//38
f 34//34 38//38 37//37
f 39//39 38//38 35//35
f 39//39 37//37 38//38
f 40//40 36//36 37//37
f 39//39 40//40 37//37
f 41//41 35//35 36//36
f 39//39 35//35 41//41
f 41//41 33//33 32//32
f 41//41 32//32 39//39
f 39//39 32//32 42//42
f 39//39 42//42 40//40
f 40//40 42//42 43//43
f 40//40 44//44 36//36
f 41//41 36//36 44//44
f 33//33 41//41 44//44
f 33//33 44//44 43//43
f 40//40 43//43 44//44
