# water_catcher_large_col
v 2.2804749 2.83467412 2.23336291
v -2.18625069 2.83467412 -2.23336291
v 2.2804749 2.83467412 -2.23336291
v -2.18625069 2.83467412 2.23336291
v 2.2804749 2.83467412 2.23336291
v 2.46892309 4.06732941 2.46892309
v 0 3.83947825 2.46892309
v -2.18625069 2.83467412 2.23336291
v -2.46892309 4.06732941 2.46892309
v -2.18625069 2.83467412 2.23336291
v -2.46892309 4.06732941 2.46892309
v -2.46892309 3.83947825 1.07716042E-16
v -2.18625069 2.83467412 -2.23336291
v -2.46892309 4.06732941 -2.46892309
v -2.18625069 2.83467412 -2.23336291
v -2.46892309 4.06732941 -2.46892309
v 0 3.83947825 -2.46892309
v 2.2804749 2.83467412 -2.23336291
v 2.46892309 4.06732941 -2.46892309
v 2.2804749 2.83467412 -2.23336291
v 2.46892309 4.06732941 -2.46892309
v 2.46892309 3.83947825 1.07716042E-16
v 2.2804749 2.83467412 2.23336291
v 2.46892309 4.06732941 2.46892309
v -2.01314521 0.664418936 2.19765568
v -0.594060957 0.664418936 0.577778816
v -0.52538532 0.664418936 0.643521309
v -2.08182073 0.664418936 2.13191319
v -2.01314521 0.752113044 2.19765568
v -0.594060957 0.752113044 0.577778757
v -2.08182073 0.752113044 2.13191319
v -0.525385261 0.752113044 0.643521249
v -2.08182073 0.664418936 2.13191319
v -0.594060957 0.752113044 0.577778757
v -0.594060957 0.664418936 0.577778816
v -2.08182073 0.752113044 2.13191319
v -0.52538532 0.664418936 0.643521309
v -2.01314521 0.752113044 2.19765568
v -2.01314521 0.664418936 2.19765568
v -0.525385261 0.752113044 0.643521249
v -2.01314497 0.664418936 -2.19765615
v -0.594060957 0.664418936 -0.577779233
v -2.08182073 0.664418936 -2.1319139
v -0.52538532 0.664418936 -0.643521726
v -2.01314497 0.752113044 -2.19765615
v -0.594060779 0.752113044 -0.577779055
v -0.525385141 0.752113044 -0.643521547
v -2.08182096 0.752113044 -2.13191366
v -2.08182073 0.664418936 -2.1319139
v -0.594060779 0.752113044 -0.577779055
v -2.08182096 0.752113044 -2.13191366
v -0.594060957 0.664418936 -0.577779233
v -0.52538532 0.664418936 -0.643521726
v -2.01314497 0.752113044 -2.19765615
v -0.525385141 0.752113044 -0.643521547
v -2.01314497 0.664418936 -2.19765615
v 2.01314545 0.696798563 2.19765592
v 0.594061434 0.696798563 0.577778757
v 2.0818212 0.696798563 2.13191366
v 0.525385737 0.696798563 0.643521249
v 2.01314545 0.784492612 2.19765592
v 0.594061255 0.784492612 0.577778697
v 0.525385261 0.784492612 0.643521249
v 2.08182144 0.784492612 2.13191366
v 2.0818212 0.696798563 2.13191366
v 0.594061255 0.784492612 0.577778697
v 2.08182144 0.784492612 2.13191366
v 0.594061434 0.696798563 0.577778757
v 0.525385737 0.696798563 0.643521249
v 2.01314545 0.784492612 2.19765592
v 0.525385261 0.784492612 0.643521249
v 2.01314545 0.696798563 2.19765592
v 2.01314545 0.695215583 -2.19765615
v 0.594061136 0.695215583 -0.577779233
v 0.525385559 0.695215583 -0.643521726
v 2.08182073 0.695215583 -2.1319139
v 2.01314545 0.782909691 -2.19765615
v 0.594060779 0.782909691 -0.577779055
v 2.0818212 0.782909691 -2.13191366
v 0.525385261 0.782909691 -0.643521547
v 2.08182073 0.695215583 -2.1319139
v 0.594060779 0.782909691 -0.577779055
v 0.594061136 0.695215583 -0.577779233
v 2.0818212 0.782909691 -2.13191366
v 0.525385559 0.695215583 -0.643521726
v 2.01314545 0.782909691 -2.19765615
v 2.01314545 0.695215583 -2.19765615
v 0.525385261 0.782909691 -0.643521547
v -1.83387935 -0.09046188 -1.92740011
v -2.20328975 -0.09046188 -2.29681063
v -1.83387935 -0.09046188 -2.29681063
v -2.20328975 -0.09046188 -1.92740011
v -1.83387935 3.93246269 -1.92740011
v -2.20328975 3.93246269 -2.29681063
v -2.20328975 3.93246269 -1.92740011
v -1.83387935 3.93246269 -2.29681063
v -1.83387935 -0.09046188 -1.92740011
v -2.20328975 3.93246269 -1.92740011
v -2.20328975 -0.09046188 -1.92740011
v -1.83387935 3.93246269 -1.92740011
v -2.20328975 -0.09046188 -1.92740011
v -2.20328975 3.93246269 -2.29681063
v -2.20328975 -0.09046188 -2.29681063
v -2.20328975 3.93246269 -1.92740011
v -2.20328975 -0.09046188 -2.29681063
v -1.83387935 3.93246269 -2.29681063
v -1.83387935 -0.09046188 -2.29681063
v -2.20328975 3.93246269 -2.29681063
v -1.83387935 -0.09046188 -2.29681063
v -1.83387935 3.93246269 -1.92740011
v -1.83387935 -0.09046188 -1.92740011
v -1.83387935 3.93246269 -2.29681063
v -1.83387935 -0.09046188 2.30845356
v -2.20328975 -0.09046188 1.93904328
v -1.83387935 -0.09046188 1.93904328
v -2.20328975 -0.09046188 2.30845356
v -1.83387935 3.93246269 2.30845356
v -2.20328975 3.93246269 1.93904328
v -2.20328975 3.93246269 2.30845356
v -1.83387935 3.93246269 1.93904328
v -1.83387935 -0.09046188 2.30845356
v -2.20328975 3.93246269 2.30845356
v -2.20328975 -0.09046188 2.30845356
v -1.83387935 3.93246269 2.30845356
v -2.20328975 -0.09046188 2.30845356
v -2.20328975 3.93246269 1.93904328
v -2.20328975 -0.09046188 1.93904328
v -2.20328975 3.93246269 2.30845356
v -2.20328975 -0.09046188 1.93904328
v -1.83387935 3.93246269 1.93904328
v -1.83387935 -0.09046188 1.93904328
v -2.20328975 3.93246269 1.93904328
v -1.83387935 -0.09046188 1.93904328
v -1.83387935 3.93246269 2.30845356
v -1.83387935 -0.09046188 2.30845356
v -1.83387935 3.93246269 1.93904328
v 2.19861746 -0.09046188 2.30845356
v 1.82920706 -0.09046188 1.93904328
v 2.19861746 -0.09046188 1.93904328
v 1.82920706 -0.09046188 2.30845356
v 2.19861746 3.93246269 2.30845356
v 1.82920706 3.93246269 1.93904328
v 1.82920706 3.93246269 2.30845356
v 2.19861746 3.93246269 1.93904328
v 2.19861746 -0.09046188 2.30845356
v 1.82920706 3.93246269 2.30845356
v 1.82920706 -0.09046188 2.30845356
v 2.19861746 3.93246269 2.30845356
v 1.82920706 -0.09046188 2.30845356
v 1.82920706 3.93246269 1.93904328
v 1.82920706 -0.09046188 1.93904328
v 1.82920706 3.93246269 2.30845356
v 1.82920706 -0.09046188 1.93904328
v 2.19861746 3.93246269 1.93904328
v 2.19861746 -0.09046188 1.93904328
v 1.82920706 3.93246269 1.93904328
v 2.19861746 -0.09046188 1.93904328
v 2.19861746 3.93246269 2.30845356
v 2.19861746 -0.09046188 2.30845356
v 2.19861746 3.93246269 1.93904328
v 2.19861746 -0.09046188 -1.92740011
v 1.82920706 -0.09046188 -2.29681063
v 2.19861746 -0.09046188 -2.29681063
v 1.82920706 -0.09046188 -1.92740011
v 2.19861746 3.93246269 -1.92740011
v 1.82920706 3.93246269 -2.29681063
v 1.82920706 3.93246269 -1.92740011
v 2.19861746 3.93246269 -2.29681063
v 2.19861746 -0.09046188 -1.92740011
v 1.82920706 3.93246269 -1.92740011
v 1.82920706 -0.09046188 -1.92740011
v 2.19861746 3.93246269 -1.92740011
v 1.82920706 -0.09046188 -1.92740011
v 1.82920706 3.93246269 -2.29681063
v 1.82920706 -0.09046188 -2.29681063
v 1.82920706 3.93246269 -1.92740011
v 1.82920706 -0.09046188 -2.29681063
v 2.19861746 3.93246269 -2.29681063
v 2.19861746 -0.09046188 -2.29681063
v 1.82920706 3.93246269 -2.29681063
v 2.19861746 -0.09046188 -2.29681063
v 2.19861746 3.93246269 -1.92740011
v 2.19861746 -0.09046188 -1.92740011
v 2.19861746 3.93246269 -2.29681063
v 1.78385878 4.0137105 -1.78385878
v 2.46892309 3.83947825 1.07716042E-16
v 2.46892309 4.06732941 -2.46892309
v 0 3.83947825 -2.46892309
v 1.78385878 3.78585935 1.04432823E-16
v 0 3.0583477 5.98855933E-17
v 1.78385878 4.0137105 1.78385878
v 2.46892309 4.06732941 2.46892309
v 0 3.83947825 2.46892309
v 0 3.78585935 -1.78385878
v -1.78385878 4.0137105 -1.78385878
v -2.46892309 4.06732941 -2.46892309
v -2.46892309 3.83947825 1.07716042E-16
v 0 3.78585935 1.78385878
v -1.78385878 4.0137105 1.78385878
v -2.46892309 4.06732941 2.46892309
v -1.78385878 3.78585935 1.04432823E-16
vn 0.534182429 -0.668071628 0.518005133
vn -0.505627811 -0.687079132 -0.521788061
vn 0.534182429 -0.668071628 -0.518005192
vn -0.505627871 -0.687079132 0.52178812
vn 0.534182429 -0.668071628 0.518005133
vn 0.593454719 0.530797362 0.605033696
vn -8.89175426E-05 0.618204355 0.786017299
vn -0.505627871 -0.687079132 0.52178812
vn -0.612528861 0.513072968 0.601302326
vn -0.505627871 -0.687079132 0.52178812
vn -0.612528861 0.513072968 0.601302326
vn -0.799519956 0.600639582 0
vn -0.505627811 -0.687079132 -0.521788061
vn -0.612528801 0.513072968 -0.601302326
vn -0.505627811 -0.687079132 -0.521788061
vn -0.612528801 0.513072968 -0.601302326
vn -8.89125222E-05 0.618204355 -0.786017299
vn 0.534182429 -0.668071628 -0.518005192
vn 0.593454719 0.530797303 -0.605033636
vn 0.534182429 -0.668071628 -0.518005192
vn 0.593454719 0.530797303 -0.605033636
vn 0.771837115 0.635820448 0
vn 0.534182429 -0.668071628 0.518005133
vn 0.593454719 0.530797362 0.605033696
vn 0.510787904 -0.707107484 0.488973022
vn -0.510787964 -0.707107544 -0.488973022
vn 0.510788918 -0.707106173 0.488973916
vn -0.510788739 -0.707106352 -0.488973737
vn 0.510788083 0.707107365 0.488973141
vn -0.510788023 0.707107365 -0.488973051
vn -0.510788321 0.707107008 -0.488973349
vn 0.5107885 0.707106769 0.488973469
vn -0.510788739 -0.707106352 -0.488973737
vn -0.510788023 0.707107365 -0.488973051
vn -0.510787964 -0.707107544 -0.488973022
vn -0.510788321 0.707107008 -0.488973349
vn 0.510788918 -0.707106173 0.488973916
vn 0.510788083 0.707107365 0.488973141
vn 0.510787904 -0.707107484 0.488973022
vn 0.5107885 0.707106769 0.488973469
vn 0.510787785 -0.707107723 -0.488972872
vn -0.510789096 -0.707105935 0.488973945
vn -0.510787964 -0.707107484 0.488973022
vn 0.510789037 -0.707105994 -0.488974005
vn 0.510788083 0.707107246 -0.488973081
vn -0.510788083 0.707107365 0.488973022
vn 0.510788381 0.707106948 -0.48897332
vn -0.510790169 0.707104385 0.488975197
vn -0.510787964 -0.707107484 0.488973022
vn -0.510788083 0.707107365 0.488973022
vn -0.510790169 0.707104385 0.488975197
vn -0.510789096 -0.707105935 0.488973945
vn 0.510789037 -0.707105994 -0.488974005
vn 0.510788083 0.707107246 -0.488973081
vn 0.510788381 0.707106948 -0.48897332
vn 0.510787785 -0.707107723 -0.488972872
vn -0.510788321 -0.707107008 0.48897326
vn 0.510788918 -0.707106352 -0.488973737
vn 0.510788083 -0.707107365 -0.488973081
vn -0.510788441 -0.707106829 0.488973528
vn -0.510787845 0.707107663 0.488972872
vn 0.510787308 0.707108438 -0.488972306
vn -0.510789335 0.707105517 0.488974333
vn 0.510789275 0.707105637 -0.488974273
vn 0.510788083 -0.707107365 -0.488973081
vn 0.510787308 0.707108438 -0.488972306
vn 0.510789275 0.707105637 -0.488974273
vn 0.510788918 -0.707106352 -0.488973737
vn -0.510788441 -0.707106829 0.488973528
vn -0.510787845 0.707107663 0.488972872
vn -0.510789335 0.707105517 0.488974333
vn -0.510788321 -0.707107008 0.48897326
vn -0.510788023 -0.707107365 -0.488973022
vn 0.510789514 -0.707105517 0.488974273
vn -0.510788918 -0.707106173 -0.488974005
vn 0.510787308 -0.707108259 0.488972485
vn -0.5107885 0.70710665 -0.488973618
vn 0.510787725 0.707107902 0.488972694
vn 0.510789812 0.707104921 0.488974869
vn -0.510788202 0.707107008 -0.48897332
vn 0.510787308 -0.707108259 0.488972485
vn 0.510787725 0.707107902 0.488972694
vn 0.510789514 -0.707105517 0.488974273
vn 0.510789812 0.707104921 0.488974869
vn -0.510788918 -0.707106173 -0.488974005
vn -0.5107885 0.70710665 -0.488973618
vn -0.510788023 -0.707107365 -0.488973022
vn -0.510788202 0.707107008 -0.48897332
vn 0.577350318 -0.577350259 0.577350259
vn -0.577350318 -0.577350259 -0.577350259
vn 0.577350259 -0.577350259 -0.577350318
vn -0.577350259 -0.577350259 0.577350318
vn 0.577350259 0.577350259 0.577350318
vn -0.577350259 0.577350259 -0.577350318
vn -0.577350318 0.577350259 0.577350259
vn 0.577350318 0.577350259 -0.577350259
vn 0.577350318 -0.577350259 0.577350259
vn -0.577350318 0.577350259 0.577350259
vn -0.577350259 -0.577350259 0.577350318
vn 0.577350259 0.577350259 0.577350318
vn -0.577350259 -0.577350259 0.577350318
vn -0.577350259 0.577350259 -0.577350318
vn -0.577350318 -0.577350259 -0.577350259
vn -0.577350318 0.577350259 0.577350259
vn -0.577350318 -0.577350259 -0.577350259
vn 0.577350318 0.577350259 -0.577350259
vn 0.577350259 -0.577350259 -0.577350318
vn -0.577350259 0.577350259 -0.577350318
vn 0.577350259 -0.577350259 -0.577350318
vn 0.577350259 0.577350259 0.577350318
vn 0.577350318 -0.577350259 0.577350259
vn 0.577350318 0.577350259 -0.577350259
vn 0.577350318 -0.577350259 0.577350259
vn -0.577350318 -0.577350259 -0.577350259
vn 0.577350259 -0.577350259 -0.577350318
vn -0.577350259 -0.577350259 0.577350318
vn 0.577350259 0.577350259 0.577350318
vn -0.577350259 0.577350259 -0.577350318
vn -0.577350318 0.577350259 0.577350259
vn 0.577350318 0.577350259 -0.577350259
vn 0.577350318 -0.577350259 0.577350259
vn -0.577350318 0.577350259 0.577350259
vn -0.577350259 -0.577350259 0.577350318
vn 0.577350259 0.577350259 0.577350318
vn -0.577350259 -0.577350259 0.577350318
vn -0.577350259 0.577350259 -0.577350318
vn -0.577350318 -0.577350259 -0.577350259
vn -0.577350318 0.577350259 0.577350259
vn -0.577350318 -0.577350259 -0.577350259
vn 0.577350318 0.577350259 -0.577350259
vn 0.577350259 -0.577350259 -0.577350318
vn -0.577350259 0.577350259 -0.577350318
vn 0.577350259 -0.577350259 -0.577350318
vn 0.577350259 0.577350259 0.577350318
vn 0.577350318 -0.577350259 0.577350259
vn 0.577350318 0.577350259 -0.577350259
vn 0.577350318 -0.577350259 0.577350259
vn -0.577350318 -0.577350259 -0.577350259
vn 0.577350259 -0.577350259 -0.577350318
vn -0.577350259 -0.577350259 0.577350318
vn 0.577350259 0.577350259 0.577350318
vn -0.577350259 0.577350259 -0.577350318
vn -0.577350318 0.577350259 0.577350259
vn 0.577350318 0.577350259 -0.577350259
vn 0.577350318 -0.577350259 0.577350259
vn -0.577350318 0.577350259 0.577350259
vn -0.577350259 -0.577350259 0.577350318
vn 0.577350259 0.577350259 0.577350318
vn -0.577350259 -0.577350259 0.577350318
vn -0.577350259 0.577350259 -0.577350318
vn -0.577350318 -0.577350259 -0.577350259
vn -0.577350318 0.577350259 0.577350259
vn -0.577350318 -0.577350259 -0.577350259
vn 0.577350318 0.577350259 -0.577350259
vn 0.577350259 -0.577350259 -0.577350318
vn -0.577350259 0.577350259 -0.577350318
vn 0.577350259 -0.577350259 -0.577350318
vn 0.577350259 0.577350259 0.577350318
vn 0.577350318 -0.577350259 0.577350259
vn 0.577350318 0.577350259 -0.577350259
vn 0.577350318 -0.577350259 0.577350259
vn -0.577350318 -0.577350259 -0.577350259
vn 0.577350259 -0.577350259 -0.577350318
vn -0.577350259 -0.577350259 0.577350318
vn 0.577350259 0.577350259 0.577350318
vn -0.577350259 0.577350259 -0.577350318
vn -0.577350318 0.577350259 0.577350259
vn 0.577350318 0.577350259 -0.577350259
vn 0.577350318 -0.577350259 0.577350259
vn -0.577350318 0.577350259 0.577350259
vn -0.577350259 -0.577350259 0.577350318
vn 0.577350259 0.577350259 0.577350318
vn -0.577350259 -0.577350259 0.577350318
vn -0.577350259 0.577350259 -0.577350318
vn -0.577350318 -0.577350259 -0.577350259
vn -0.577350318 0.577350259 0.577350259
vn -0.577350318 -0.577350259 -0.577350259
vn 0.577350318 0.577350259 -0.577350259
vn 0.577350259 -0.577350259 -0.577350318
vn -0.577350259 0.577350259 -0.577350318
vn 0.577350259 -0.577350259 -0.577350318
vn 0.577350259 0.577350259 0.577350318
vn 0.577350318 -0.577350259 0.577350259
vn 0.577350318 0.577350259 -0.577350259
vn -0.0999214053 0.98996532 0.0999214053
vn 0.771837115 0.635820448 0
vn 0.593454719 0.530797303 -0.605033636
vn -8.89125222E-05 0.618204355 -0.786017299
vn -0.233415991 0.972377002 0
vn 0 1 0
vn -0.0999214053 0.98996532 -0.0999214053
vn 0.593454719 0.530797362 0.605033696
vn -8.89175426E-05 0.618204355 0.786017299
vn 0 0.972377002 0.233415991
vn 0.0999214053 0.98996532 0.0999214053
vn -0.612528801 0.513072968 -0.601302326
vn -0.799519956 0.600639582 0
vn 0 0.972377002 -0.233415991
vn 0.0999214053 0.98996532 -0.0999214053
vn -0.612528861 0.513072968 0.601302326
vn 0.233415991 0.972377002 0
vt 1 0
vt 0 1
vt 1 1
vt 0 0
vt 0 0
vt 0 1
vt 0.5 1
vt 1 0
vt 1 1
vt 0 0
vt 0 1
vt 0.5 1
vt 1 0
vt 1 1
vt 0 0
vt 0 1
vt 0.5 1
vt 1 0
vt 1 1
vt 0 0
vt 0 1
vt 0.5 1
vt 1 0
vt 1 1
vt 1 0
vt 0 1
vt 1 1
vt 0 0
vt 0 0
vt 1 1
vt 1 0
vt 0 1
vt 0 0
vt 1 1
vt 1 0
vt 0 1
vt 0 0
vt 1 1
vt 1 0
vt 0 1
vt 1 0
vt 0 1
vt 0 0
vt 1 1
vt 0 0
vt 1 1
vt 0 1
vt 1 0
vt 0 0
vt 1 1
vt 0 1
vt 1 0
vt 0 0
vt 1 1
vt 0 1
vt 1 0
vt 1 0
vt 0 1
vt 0 0
vt 1 1
vt 0 0
vt 1 1
vt 0 1
vt 1 0
vt 0 0
vt 1 1
vt 0 1
vt 1 0
vt 0 0
vt 1 1
vt 0 1
vt 1 0
vt 1 0
vt 0 1
vt 1 1
vt 0 0
vt 0 0
vt 1 1
vt 1 0
vt 0 1
vt 0 0
vt 1 1
vt 1 0
vt 0 1
vt 0 0
vt 1 1
vt 1 0
vt 0 1
vt 1 0
vt 0 1
vt 1 1
vt 0 0
vt 0 0
vt 1 1
vt 1 0
vt 0 1
vt 0 0
vt 1 1
vt 1 0
vt 0 1
vt 0 0
vt 1 1
vt 1 0
vt 0 1
vt 0 0
vt 1 1
vt 1 0
vt 0 1
vt 0 0
vt 1 1
vt 1 0
vt 0 1
vt 1 0
vt 0 1
vt 1 1
vt 0 0
vt 0 0
vt 1 1
vt 1 0
vt 0 1
vt 0 0
vt 1 1
vt 1 0
vt 0 1
vt 0 0
vt 1 1
vt 1 0
vt 0 1
vt 0 0
vt 1 1
vt 1 0
vt 0 1
vt 0 0
vt 1 1
vt 1 0
vt 0 1
vt 1 0
vt 0 1
vt 1 1
vt 0 0
vt 0 0
vt 1 1
vt 1 0
vt 0 1
vt 0 0
vt 1 1
vt 1 0
vt 0 1
vt 0 0
vt 1 1
vt 1 0
vt 0 1
vt 0 0
vt 1 1
vt 1 0
vt 0 1
vt 0 0
vt 1 1
vt 1 0
vt 0 1
vt 1 0
vt 0 1
vt 1 1
vt 0 0
vt 0 0
vt 1 1
vt 1 0
vt 0 1
vt 0 0
vt 1 1
vt 1 0
vt 0 1
vt 0 0
vt 1 1
vt 1 0
vt 0 1
vt 0 0
vt 1 1
vt 1 0
vt 0 1
vt 0 0
vt 1 1
vt 1 0
vt 0 1
vt 0.249999985 0.75
vt 0 0.5
vt 0 1
vt 0.5 1
vt 0.249999985 0.5
vt 0.5 0.5
vt 0.249999985 0.249999985
vt 0 0
vt 0.5 0
vt 0.5 0.75
vt 0.75 0.75
vt 1 1
vt 1 0.5
vt 0.5 0.249999985
vt 0.75 0.249999985
vt 1 0
vt 0.75 0.5
g submesh0
f 1/1/1 2/2/2 3/3/3
f 2/2/2 1/1/1 4/4/4
f 5/5/5 6/6/6 7/7/7
f 5/5/5 7/7/7 8/8/8
f 8/8/8 7/7/7 9/9/9
f 10/10/10 11/11/11 12/12/12
f 10/10/10 12/12/12 13/13/13
f 13/13/13 12/12/12 14/14/14
f 15/15/15 16/16/16 17/17/17
f 15/15/15 17/17/17 18/18/18
f 18/18/18 17/17/17 19/19/19
f 20/20/20 21/21/21 22/22/22
f 20/20/20 22/22/22 23/23/23
f 23/23/23 22/22/22 24/24/24
f 25/25/25 26/26/26 27/27/27
f 26/26/26 25/25/25 28/28/28
f 29/29/29 30/30/30 31/31/31
f 30/30/30 29/29/29 32/32/32
f 33/33/33 34/34/34 35/35/35
f 34/34/34 33/33/33 36/36/36
f 37/37/37 38/38/38 39/39/39
f 38/38/38 37/37/37 40/40/40
f 41/41/41 42/42/42 43/43/43
f 42/42/42 41/41/41 44/44/44
f 45/45/45 46/46/46 47/47/47
f 46/46/46 45/45/45 48/48/48
f 49/49/49 50/50/50 51/51/51
f 50/50/50 49/49/49 52/52/52
f 53/53/53 54/54/54 55/55/55
f 54/54/54 53/53/53 56/56/56
f 57/57/57 58/58/58 59/59/59
f 58/58/58 57/57/57 60/60/60
f 61/61/61 62/62/62 63/63/63
f 62/62/62 61/61/61 64/64/64
f 65/65/65 66/66/66 67/67/67
f 66/66/66 65/65/65 68/68/68
f 69/69/69 70/70/70 71/71/71
f 70/70/70 69/69/69 72/72/72
f 73/73/73 74/74/74 75/75/75
f 74/74/74 73/73/73 76/76/76
f 77/77/77 78/78/78 79/79/79
f 78/78/78 77/77/77 80/80/80
f 81/81/81 82/82/82 83/83/83
f 82/82/82 81/81/81 84/84/84
f 85/85/85 86/86/86 87/87/87
f 86/86/86 85/85/85 88/88/88
f 89/89/89 90/90/90 91/91/91
f 90/90/90 89/89/89 92/92/92
f 93/93/93 94/94/94 95/95/95
f 94/94/94 93/93/93 96/96/96
f 97/97/97 98/98/98 99/99/99
f 98/98/98 97/97/97 100/100/100
f 101/101/101 102/102/102 103/103/103
f 102/102/102 101/101/101 104/104/104
f 105/105/105 106/106/106 107/107/107
f 106/106/106 105/105/105 108/108/108
f 109/109/109 110/110/110 111/111/111
f 110/110/110 109/109/109 112/112/112
f 113/113/113 114/114/114 115/115/115
f 114/114/114 113/113/113 116/116/116
f 117/117/117 118/118/118 119/119/119
f 118/118/118 117/117/117 120/120/120
f 121/121/121 122/122/122 123/123/123
f 122/122/122 121/121/121 124/124/124
f 125/125/125 126/126/126 127/127/127
f 126/126/126 125/125/125 128/128/128
f 129/129/129 130/130/130 131/131/131
f 130/130/130 129/129/129 132/132/132
f 133/133/133 134/134/134 135/135/135
f 134/134/134 133/133/133 136/136/136
f 137/137/137 138/138/138 139/139/139
f 138/138/138 137/137/137 140/140/140
f 141/141/141 142/142/142 143/143/143
f 142/142/142 141/141/141 144/144/144
f 145/145/145 146/146/146 147/147/147
f 146/146/146 145/145/145 148/148/148
f 149/149/149 150/150/150 151/151/151
f 150/150/150 149/149/149 152/152/152
f 153/153/153 154/154/154 155/155/155
f 154/154/154 153/153/153 156/156/156
f 157/157/157 158/158/158 159/159/159
f 158/158/158 157/157/157 160/160/160
f 161/161/161 162/162/162 163/163/163
f 162/162/162 161/161/161 164/164/164
f 165/165/165 166/166/166 167/167/167
f 166/166/166 165/165/165 168/168/168
f 169/169/169 170/170/170 171/171/171
f 170/170/170 169/169/169 172/172/172
f 173/173/173 174/174/174 175/175/175
f 174/174/174 173/173/173 176/176/176
f 177/177/177 178/178/178 179/179/179
f 178/178/178 177/177/177 180/180/180
f 181/181/181 182/182/182 183/183/183
f 182/182/182 181/181/181 184/184/184
f 185/185/185 186/186/186 187/187/187
f 188/188/188 185/185/185 187/187/187
f 186/186/186 185/185/185 189/189/189
f 190/190/190 189/189/189 185/185/185
f 191/191/191 186/186/186 189/189/189
f 191/191/191 189/189/189 190/190/190
f 186/186/186 191/191/191 192/192/192
f 191/191/191 193/193/193 192/192/192
f 185/185/185 188/188/188 194/194/194
f 185/185/185 194/194/194 190/190/190
f 188/188/188 195/195/195 194/194/194
f 190/190/190 194/194/194 195/195/195
f 195/195/195 188/188/188 196/196/196
f 197/197/197 195/195/195 196/196/196
f 193/193/193 191/191/191 198/198/198
f 190/190/190 198/198/198 191/191/191
f 199/199/199 193/193/193 198/198/198
f 199/199/199 198/198/198 190/190/190
f 193/193/193 199/199/199 200/200/200
f 199/199/199 197/197/197 200/200/200
f 195/195/195 201/201/201 190/190/190
f 190/190/190 201/201/201 199/199/199
f 197/197/197 199/199/199 201/201/201
f 195/195/195 197/197/197 201/201/201
