# water_pump_COL
v -0.391481608 0.141822666 -0.239985093
v 0.643209696 0.141822666 0.361788481
v -0.391481549 0.141822621 0.361788541
v 0.643209696 0.14182274 -0.239985213
v -0.391481549 0.141822621 0.361788541
v -0.391481698 0.659466207 -0.239985079
v -0.391481608 0.659466207 0.361788541
v 0.643209696 0.659466207 -0.239985153
v 0.643209696 0.659466207 0.361788481
v 0.643209696 0.141822666 0.361788481
v -0.391481608 0.756302476 0.243458897
v 0.643209696 0.756302476 0.243458793
v 0.643209696 0.659466207 -0.239985153
v -0.391481698 0.756302476 -0.121655427
v -0.391481698 0.659466207 -0.239985079
v 0.643209696 0.756302476 -0.121655501
v -0.391481608 0.141822666 -0.239985093
v -0.391481698 0.659466207 -0.239985079
v 0.643209696 0.659466207 -0.239985153
v 0.643209696 0.14182274 -0.239985213
v 0.643209696 0.141822666 0.361788481
v 0.643209696 0.659466207 0.361788481
v -0.391481608 0.659466207 0.361788541
v -0.391481549 0.141822621 0.361788541
v -0.391998827 -1.14602578 0.243764102
v -0.272599697 -1.14602578 0.353564203
v -0.391998827 -1.14602578 0.353564262
v -0.272599697 -1.14602578 0.243764088
v -0.391998827 -1.14602578 0.353564262
v -0.391998738 0.14252682 0.243764162
v -0.391998738 0.142526731 0.353564292
v -0.272599667 0.14252682 0.243764147
v -0.272599667 0.142526731 0.353564292
v -0.272599697 -1.14602578 0.353564203
v -0.391998738 0.14252682 0.243764162
v -0.272599667 0.14252682 0.243764147
v -0.391998827 -1.14602578 0.243764102
v -0.391998738 0.14252682 0.243764162
v -0.272599667 0.14252682 0.243764147
v -0.272599697 -1.14602578 0.243764088
v -0.272599697 -1.14602578 0.353564203
v -0.272599667 0.142526731 0.353564292
v -0.391998738 0.142526731 0.353564292
v -0.391998827 -1.14602578 0.353564262
v 0.534525216 -1.14602578 0.243764058
v 0.653924406 -1.14602578 0.346052289
v 0.534525216 -1.14602578 0.346052319
v 0.653924406 -1.14602578 0.243763998
v 0.534525216 -1.14602578 0.346052319
v 0.534525275 0.14252685 0.243764088
v 0.534525275 0.14252685 0.346052378
v 0.653924406 0.14252685 0.243764058
v 0.653924406 0.14252685 0.346052378
v 0.653924406 -1.14602578 0.346052289
v 0.534525275 0.14252685 0.243764088
v 0.653924406 0.14252685 0.243764058
v 0.534525216 -1.14602578 0.243764058
v 0.534525275 0.14252685 0.243764088
v 0.653924406 0.14252685 0.243764058
v 0.653924406 -1.14602578 0.243763998
v 0.653924406 -1.14602578 0.346052289
v 0.653924406 0.14252685 0.346052378
v 0.534525275 0.14252685 0.346052378
v 0.534525216 -1.14602578 0.346052319
v -0.373047024 -1.14602578 -0.221079007
v -0.272599757 -1.14602578 -0.109643266
v -0.373047024 -1.14602578 -0.109643228
v -0.272599757 -1.14602578 -0.221079037
v -0.373047024 -1.14602578 -0.109643228
v -0.373046935 0.14252685 -0.221078932
v -0.373046935 0.14252685 -0.109643154
v -0.272599727 0.14252685 -0.221078962
v -0.272599727 0.14252685 -0.109643191
v -0.272599757 -1.14602578 -0.109643266
v -0.373046935 0.14252685 -0.221078932
v -0.272599727 0.14252685 -0.221078962
v -0.373047024 -1.14602578 -0.221079007
v -0.373046935 0.14252685 -0.221078932
v -0.272599727 0.14252685 -0.221078962
v -0.272599757 -1.14602578 -0.221079037
v -0.272599757 -1.14602578 -0.109643266
v -0.272599727 0.14252685 -0.109643191
v -0.373046935 0.14252685 -0.109643154
v -0.373047024 -1.14602578 -0.109643228
v 0.534525156 -1.14602578 -0.221079081
v 0.643865168 -1.14602578 -0.109643303
v 0.534525156 -1.14602578 -0.109643303
v 0.643865168 -1.14602578 -0.221079081
v 0.534525156 -1.14602578 -0.109643303
v 0.534525216 0.142526895 -0.221079007
v 0.534525216 0.142526895 -0.109643228
v 0.643865168 0.142526895 -0.221079037
v 0.643865168 0.142526895 -0.109643266
v 0.643865168 -1.14602578 -0.109643303
v 0.534525216 0.142526895 -0.221079007
v 0.643865168 0.142526895 -0.221079037
v 0.534525156 -1.14602578 -0.221079081
v 0.534525216 0.142526895 -0.221079007
v 0.643865168 0.142526895 -0.221079037
v 0.643865168 -1.14602578 -0.221079081
v 0.643865168 -1.14602578 -0.109643303
v 0.643865168 0.142526895 -0.109643266
v 0.534525216 0.142526895 -0.109643228
v 0.534525156 -1.14602578 -0.109643303
v -0.369768292 -0.0590042397 -0.2402042
v -0.374996245 -0.184740484 -0.216150433
v -0.369768351 -0.0590042397 -0.216150463
v -0.374996185 -0.184740484 -0.240204155
v -0.369768351 -0.0590042397 -0.216150463
v 0.638933241 -0.114503294 -0.240204275
v 0.638933241 -0.114503317 -0.216150507
v 0.633705258 -0.24023959 -0.24020426
v 0.633705258 -0.24023959 -0.216150522
v -0.374996245 -0.184740484 -0.216150433
v 0.638933241 -0.114503294 -0.240204275
v 0.633705258 -0.24023959 -0.24020426
v -0.369768292 -0.0590042397 -0.2402042
v 0.638933241 -0.114503294 -0.240204275
v 0.633705258 -0.24023959 -0.24020426
v -0.374996185 -0.184740484 -0.240204155
v -0.374996245 -0.184740484 -0.216150433
v 0.633705258 -0.24023959 -0.216150522
v 0.638933241 -0.114503317 -0.216150507
v -0.369768351 -0.0590042397 -0.216150463
v -0.376698613 -0.114848629 0.345435619
v -0.368038177 -0.240395278 0.369489342
v -0.376698613 -0.114848629 0.369489342
v -0.368038177 -0.240395278 0.345435619
v -0.376698613 -0.114848629 0.369489342
v 0.631975472 -0.0588486008 0.34543553
v 0.631975472 -0.0588486083 0.369489253
v 0.640635669 -0.184395254 0.34543556
v 0.640635669 -0.184395254 0.369489282
v -0.368038177 -0.240395278 0.369489342
v 0.631975472 -0.0588486008 0.34543553
v 0.640635669 -0.184395254 0.34543556
v -0.376698613 -0.114848629 0.345435619
v 0.631975472 -0.0588486008 0.34543553
v 0.640635669 -0.184395254 0.34543556
v -0.368038177 -0.240395278 0.345435619
v -0.368038177 -0.240395278 0.369489342
v 0.640635669 -0.184395254 0.369489282
v 0.631975472 -0.0588486083 0.369489253
v -0.376698613 -0.114848629 0.369489342
v -0.667671978 -1.13865364 -0.107495628
v -0.567224741 -1.13865364 0.00394015294
v -0.667671978 -1.13865364 0.00394016271
v -0.567224741 -1.13865364 -0.107495591
v -0.667671978 -1.13865364 0.00394016271
v -0.482038856 0.453388274 0.0148305269
v -0.482038856 0.453388274 0.126266301
v -0.381591648 0.453388274 0.0148305129
v -0.381591648 0.453388274 0.126266286
v -0.567224741 -1.13865364 0.00394015294
v -0.482038856 0.453388274 0.0148305269
v -0.381591648 0.453388274 0.0148305129
v -0.667671978 -1.13865364 -0.107495628
v -0.482038856 0.453388274 0.0148305269
v -0.381591648 0.453388274 0.0148305129
v -0.567224741 -1.13865364 -0.107495591
v -0.567224741 -1.13865364 0.00394015294
v -0.381591648 0.453388274 0.126266286
v -0.482038856 0.453388274 0.126266301
v -0.667671978 -1.13865364 0.00394016271
vt 1 0
vt 0 1
vt 1 1
vt 0 0
vt 0 0
vt 1 1
vt 0 1
vt 0 1
vt 1 1
vt 1 0
vt 0 1
vt 1 1
vt 1 0
vt 0 0
vt 0 0
vt 1 0
vt 0 0
vt 0 1
vt 1 1
vt 1 0
vt 0 0
vt 0 1
vt 1 1
vt 1 0
vt 1 0
vt 0 1
vt 1 1
vt 0 0
vt 0 0
vt 1 1
vt 0 1
vt 0 1
vt 1 1
vt 1 0
vt 0 0
vt 1 0
vt 0 0
vt 0 1
vt 1 1
vt 1 0
vt 0 0
vt 0 1
vt 1 1
vt 1 0
vt 1 0
vt 0 1
vt 1 1
vt 0 0
vt 0 0
vt 1 1
vt 0 1
vt 0 1
vt 1 1
vt 1 0
vt 0 0
vt 1 0
vt 0 0
vt 0 1
vt 1 1
vt 1 0
vt 0 0
vt 0 1
vt 1 1
vt 1 0
vt 1 0
vt 0 1
vt 1 1
vt 0 0
vt 0 0
vt 1 1
vt 0 1
vt 0 1
vt 1 1
vt 1 0
vt 0 0
vt 1 0
vt 0 0
vt 0 1
vt 1 1
vt 1 0
vt 0 0
vt 0 1
vt 1 1
vt 1 0
vt 1 0
vt 0 1
vt 1 1
vt 0 0
vt 0 0
vt 1 1
vt 0 1
vt 0 1
vt 1 1
vt 1 0
vt 0 0
vt 1 0
vt 0 0
vt 0 1
vt 1 1
vt 1 0
vt 0 0
vt 0 1
vt 1 1
vt 1 0
vt 1 0
vt 0 1
vt 1 1
vt 0 0
vt 0 0
vt 1 1
vt 0 1
vt 0 1
vt 1 1
vt 1 0
vt 0 0
vt 1 0
vt 0 0
vt 0 1
vt 1 1
vt 1 0
vt 0 0
vt 0 1
vt 1 1
vt 1 0
vt 1 0
vt 0 1
vt 1 1
vt 0 0
vt 0 0
vt 1 1
vt 0 1
vt 0 1
vt 1 1
vt 1 0
vt 0 0
vt 1 0
vt 0 0
vt 0 1
vt 1 1
vt 1 0
vt 0 0
vt 0 1
vt 1 1
vt 1 0
vt 1 0
vt 0 1
vt 1 1
vt 0 0
vt 0 0
vt 1 1
vt 0 1
vt 0 1
vt 1 1
vt 1 0
vt 0 0
vt 1 0
vt 0 0
vt 0 1
vt 1 1
vt 1 0
vt 0 0
vt 0 1
vt 1 1
vt 1 0
g submesh0
f 1/1 2/2 3/3
f 1/1 4/4 2/2
f 5/5 6/6 1/1
f 5/5 7/7 6/6
f 4/4 8/8 9/9
f 4/4 9/9 10/10
f 9/9 11/11 7/7
f 9/9 12/12 11/11
f 13/13 12/12 9/9
f 7/7 11/11 14/14
f 14/14 11/11 12/12
f 7/7 14/14 15/15
f 15/15 16/16 13/13
f 13/13 16/16 12/12
f 14/14 12/12 16/16
f 15/15 14/14 16/16
f 17/17 18/18 19/19
f 17/17 19/19 20/20
f 21/21 22/22 23/23
f 21/21 23/23 24/24
f 25/25 26/26 27/27
f 25/25 28/28 26/26
f 29/29 30/30 25/25
f 29/29 31/31 30/30
f 28/28 32/32 33/33
f 28/28 33/33 34/34
f 35/35 31/31 33/33
f 35/35 33/33 36/36
f 37/37 38/38 39/39
f 37/37 39/39 40/40
f 41/41 42/42 43/43
f 41/41 43/43 44/44
f 45/45 46/46 47/47
f 45/45 48/48 46/46
f 49/49 50/50 45/45
f 49/49 51/51 50/50
f 48/48 52/52 53/53
f 48/48 53/53 54/54
f 55/55 51/51 53/53
f 55/55 53/53 56/56
f 57/57 58/58 59/59
f 57/57 59/59 60/60
f 61/61 62/62 63/63
f 61/61 63/63 64/64
f 65/65 66/66 67/67
f 65/65 68/68 66/66
f 69/69 70/70 65/65
f 69/69 71/71 70/70
f 68/68 72/72 73/73
f 68/68 73/73 74/74
f 75/75 71/71 73/73
f 75/75 73/73 76/76
f 77/77 78/78 79/79
f 77/77 79/79 80/80
f 81/81 82/82 83/83
f 81/81 83/83 84/84
f 85/85 86/86 87/87
f 85/85 88/88 86/86
f 89/89 90/90 85/85
f 89/89 91/91 90/90
f 88/88 92/92 93/93
f 88/88 93/93 94/94
f 95/95 91/91 93/93
f 95/95 93/93 96/96
f 97/97 98/98 99/99
f 97/97 99/99 100/100
f 101/101 102/102 103/103
f 101/101 103/103 104/104
f 105/105 106/106 107/107
f 105/105 108/108 106/106
f 109/109 110/110 105/105
f 109/109 111/111 110/110
f 108/108 112/112 113/113
f 108/108 113/113 114/114
f 115/115 111/111 113/113
f 115/115 113/113 116/116
f 117/117 118/118 119/119
f 117/117 119/119 120/120
f 121/121 122/122 123/123
f 121/121 123/123 124/124
f 125/125 126/126 127/127
f 125/125 128/128 126/126
f 129/129 130/130 125/125
f 129/129 131/131 130/130
f 128/128 132/132 133/133
f 128/128 133/133 134/134
f 135/135 131/131 133/133
f 135/135 133/133 136/136
f 137/137 138/138 139/139
f 137/137 139/139 140/140
f 141/141 142/142 143/143
f 141/141 143/143 144/144
f 145/145 146/146 147/147
f 145/145 148/148 146/146
f 149/149 150/150 145/145
f 149/149 151/151 150/150
f 148/148 152/152 153/153
f 148/148 153/153 154/154
f 155/155 151/151 153/153
f 155/155 153/153 156/156
f 157/157 158/158 159/159
f 157/157 159/159 160/160
f 161/161 162/162 163/163
f 161/161 163/163 164/164
