# windmill_main_collision
v 1.06401908 0.0513989255 -1.10915816
v 0.106483057 0.719227254 -1.07988167
v -1.0420624 0.0506883226 -1.1138953
v -1.04687631 0.0538919047 -1.18727028
v 0.101669289 0.722431004 -1.15325677
v 1.05920529 0.0546025075 -1.18253326
v -1.05120158 0.0532937609 1.19004273
v -0.37988022 0.761119187 1.11509573
v -1.05120158 1.05983913 1.14609599
v -1.05601549 0.0500901788 1.11666763
v -1.05601549 1.05663562 1.07272089
v -0.38469404 0.757915616 1.04172063
v 0.793116152 1.48071897 1.01396525
v -0.938827813 1.48071897 1.01396525
v -0.938827813 1.48071897 0.895922422
v 0.793116152 1.48071897 0.895922422
v 0.793116152 1.66511774 1.01396525
v 0.793116152 1.66511774 0.895922422
v -0.938827813 1.66511774 0.895922422
v -0.938827813 1.66511774 1.01396525
v 0.793116152 1.48071897 1.01396525
v 0.793116152 1.66511774 1.01396525
v -0.938827813 1.66511774 1.01396525
v -0.938827813 1.48071897 1.01396525
v -0.938827813 1.48071897 0.895922422
v -0.938827813 1.66511774 0.895922422
v 0.793116152 1.66511774 0.895922422
v 0.793116152 1.48071897 0.895922422
v 0.793116152 1.48071897 -1.01396549
v 0.793116152 1.48071897 -0.895922542
v -0.938827813 1.48071897 -0.895922542
v -0.938827813 1.48071897 -1.01396549
v 0.793116152 1.66511774 -1.01396549
v -0.938827813 1.66511774 -1.01396549
v -0.938827813 1.66511774 -0.895922542
v 0.793116152 1.66511774 -0.895922542
v 0.793116152 1.48071897 -1.01396549
v -0.938827813 1.48071897 -1.01396549
v -0.938827813 1.66511774 -1.01396549
v 0.793116152 1.66511774 -1.01396549
v -0.938827813 1.48071897 -0.895922542
v 0.793116152 1.48071897 -0.895922542
v 0.793116152 1.66511774 -0.895922542
v -0.938827813 1.66511774 -0.895922542
v 0.51127255 1.44844902 -0.901482344
v 0.51127255 1.44844902 0.901482224
v -0.51127255 1.44844902 0.901482224
v -0.51127255 1.44844902 -0.901482344
v -0.51127255 1.78064263 -0.901482344
v 0.51127255 1.78064263 -0.901482344
v 0.51127255 1.44844902 -0.901482344
v -0.51127255 1.44844902 -0.901482344
v -0.51127255 1.78064263 0.901482224
v -0.51127255 1.44844902 0.901482224
v 0.51127255 1.78064263 0.901482224
v -0.51127255 1.78064263 -0.901482344
v -0.51127255 1.78064263 0.901482224
v 0.51127255 1.44844902 0.901482224
v 0.51127255 1.78064263 -0.901482344
v 0.51127255 1.78064263 0.901482224
v 0.847150087 1.8546536 1.01396525
v -0.884793818 1.8546536 1.01396525
v -0.884793818 1.8546536 0.841605663
v 0.847150087 1.8546536 0.841605663
v 0.847150087 2.14843154 1.01396525
v 0.847150087 2.14843154 0.841605663
v -0.884793818 2.14843154 0.841605663
v -0.884793818 2.14843154 1.01396525
v 0.847150087 1.8546536 1.01396525
v 0.847150087 2.14843154 1.01396525
v -0.884793818 2.14843154 1.01396525
v -0.884793818 1.8546536 1.01396525
v -0.884793818 1.8546536 0.841605663
v -0.884793818 2.14843154 0.841605663
v 0.847150087 2.14843154 0.841605663
v 0.847150087 1.8546536 0.841605663
v -0.947447419 1.8546536 0.847150266
v -0.947447419 1.8546536 -0.884793997
v -0.775087893 1.8546536 -0.884793997
v -0.775087953 1.8546536 0.847150266
v -0.947447419 2.14843202 0.847150266
v -0.775087953 2.14843202 0.847150266
v -0.775087893 2.14843202 -0.884793997
v -0.947447419 2.14843202 -0.884793997
v -0.947447419 1.8546536 0.847150266
v -0.947447419 2.14843202 0.847150266
v -0.947447419 2.14843202 -0.884793997
v -0.947447419 1.8546536 -0.884793997
v -0.775087893 1.8546536 -0.884793997
v -0.775087893 2.14843202 -0.884793997
v -0.775087953 2.14843202 0.847150266
v -0.775087953 1.8546536 0.847150266
v 0.957318604 1.8546536 -0.847150266
v 0.957318962 1.8546536 0.884794056
v 0.784959376 1.8546536 0.884794056
v 0.784959137 1.8546536 -0.847150266
v 0.957318604 2.14843202 -0.847150266
v 0.784959137 2.14843202 -0.847150266
v 0.784959376 2.14843202 0.884794056
v 0.957318962 2.14843202 0.884794056
v 0.957318604 1.8546536 -0.847150266
v 0.957318604 2.14843202 -0.847150266
v 0.957318962 2.14843202 0.884794056
v 0.957318962 1.8546536 0.884794056
v 0.784959376 1.8546536 0.884794056
v 0.784959376 2.14843202 0.884794056
v 0.784959137 2.14843202 -0.847150266
v 0.784959137 1.8546536 -0.847150266
v -0.847150266 1.8546536 -1.01396513
v 0.884793699 1.8546536 -1.01396549
v 0.884793699 1.8546536 -0.841605842
v -0.847150266 1.8546536 -0.841605484
v -0.847150266 2.14843202 -1.01396513
v -0.847150266 2.14843202 -0.841605484
v 0.884793699 2.14843202 -0.841605842
v 0.884793699 2.14843202 -1.01396549
v -0.847150266 1.8546536 -1.01396513
v -0.847150266 2.14843202 -1.01396513
v 0.884793699 2.14843202 -1.01396549
v 0.884793699 1.8546536 -1.01396549
v 0.884793699 1.8546536 -0.841605842
v 0.884793699 2.14843202 -0.841605842
v -0.847150266 2.14843202 -0.841605484
v -0.847150266 1.8546536 -0.841605484
v 0.865971982 0.552816749 1.07628
v -0.865971982 0.552816749 1.07628
v -0.865971982 0.552816749 0.958237112
v 0.865971982 0.552816749 0.958237112
v 0.865971982 0.663456082 1.07628
v 0.865971982 0.663456082 0.958237112
v -0.865971982 0.663456082 0.958237112
v -0.865971982 0.663456082 1.07628
v 0.865971982 0.552816749 1.07628
v 0.865971982 0.663456082 1.07628
v -0.865971982 0.663456082 1.07628
v -0.865971982 0.552816749 1.07628
v -0.865971982 0.552816749 0.958237112
v -0.865971982 0.663456082 0.958237112
v 0.865971982 0.663456082 0.958237112
v 0.865971982 0.552816749 0.958237112
v 0.865971982 0.552816749 -1.07368147
v 0.865971982 0.552816749 -0.955638587
v -0.865971982 0.552816749 -0.955638587
v -0.865971982 0.552816749 -1.07368147
v 0.865971982 0.663456082 -1.07368147
v -0.865971982 0.663456082 -1.07368147
v -0.865971982 0.663456082 -0.955638587
v 0.865971982 0.663456082 -0.955638587
v 0.865971982 0.552816749 -1.07368147
v -0.865971982 0.552816749 -1.07368147
v -0.865971982 0.663456082 -1.07368147
v 0.865971982 0.663456082 -1.07368147
v -0.865971982 0.552816749 -0.955638587
v 0.865971982 0.552816749 -0.955638587
v 0.865971982 0.663456082 -0.955638587
v -0.865971982 0.663456082 -0.955638587
v 1.12776423 0.0542999245 -1.08809733
v 1.09605503 0.822793245 -0.458216697
v 1.08177376 1.05983913 1.05789948
v 1.12572062 0.0532937609 1.05789948
v 1.12572062 0.0532937609 1.05789948
v 1.08177376 1.05983913 1.05789948
v 1.00839877 1.05663562 1.06271327
v 1.05234551 0.0500901788 1.06271338
v 1.08325994 1.0578084 -0.458216548
v 1.08177376 1.05983913 1.05789948
v 1.09605503 0.822793245 -0.458216697
v 1.02268004 0.819589674 -0.453402996
v 1.00988483 1.05460477 -0.453402847
v 1.09605503 0.822793245 -0.458216697
v 1.02323747 0.82262665 -1.08328319
v 1.05438912 0.0510963425 -1.08328331
v 1.09661257 0.82583034 -1.08809721
v 1.12776423 0.0542999245 -1.08809733
v 1.05234551 0.0500901788 1.06271338
v 1.00839877 1.05663562 1.06271327
v 1.02268004 0.819589674 -0.453402996
v 1.05438912 0.0510963425 -1.08328331
v -1.05120158 0.0532937609 1.19004273
v -1.05120158 1.05983913 1.14609599
v -1.05601549 1.05663562 1.07272089
v -1.05601549 0.0500901788 1.11666763
v -0.36638847 1.05788124 1.10125363
v -1.05120158 1.05983913 1.14609599
v -0.37988022 0.761119187 1.11509573
v -0.38469404 0.757915616 1.04172063
v -0.37120232 1.05467772 1.02787852
v 1.06725109 0.0510963425 1.13971794
v -1.05601549 0.0500901788 1.11666763
v 1.06725109 0.764585555 1.10856628
v -0.37988022 0.761119187 1.11509573
v 1.07206476 0.767789304 1.18194139
v 1.07206476 0.0542999245 1.21309304
v -1.05120158 0.0532937609 1.19004273
v -0.276268005 0.05199112 -0.271963388
v -0.276268005 1.11047626 -0.271963358
v -0.437417239 1.46206355 -0.271963388
v -0.437417239 0.05199112 -0.271963388
v -0.437417239 0.05199112 -0.271963388
v -0.437417239 1.46206355 -0.271963388
v -0.437417239 1.46206355 -0.447294831
v -0.437417239 0.05199112 -0.447294772
v -0.437417239 0.05199112 -0.447294772
v -0.437417239 1.46206355 -0.447294831
v -0.276268005 1.11047626 -0.447294772
v -0.276268005 0.05199112 -0.447294772
v -0.276268005 0.05199112 -0.447294772
v -0.276268005 1.11047626 -0.271963358
v -0.276268005 0.05199112 -0.271963388
v -0.276268005 1.11047626 -0.447294772
v 0.276268005 1.11047626 -0.271963358
v 0.437417179 1.46206355 -0.271963388
v -0.437417239 1.46206355 -0.271963388
v 0.276268005 1.11047626 -0.447294772
v -0.437417239 1.46206355 -0.447294831
v 0.437417179 1.46206355 -0.447294831
v 0.276268005 0.05199112 -0.447294772
v 0.276268005 0.05199112 -0.271963388
v 0.276268005 0.05199112 -0.271963388
v 0.437417179 0.05199112 -0.271963388
v 0.437417179 1.46206355 -0.271963388
v 0.276268005 1.11047626 -0.271963358
v 0.437417179 0.05199112 -0.271963388
v 0.437417179 0.05199112 -0.447294772
v 0.437417179 1.46206355 -0.447294831
v 0.437417179 1.46206355 -0.271963388
v 0.437417179 0.05199112 -0.447294772
v 0.276268005 0.05199112 -0.447294772
v 0.276268005 1.11047626 -0.447294772
v 0.437417179 1.46206355 -0.447294831
v -0.276268005 0.05199112 0.443334252
v -0.276268005 1.11047626 0.443334252
v -0.437417239 1.46206355 0.443334192
v -0.437417239 0.05199112 0.443334252
v -0.437417239 0.05199112 0.443334252
v -0.437417239 1.46206355 0.443334192
v -0.437417239 1.46206355 0.268002868
v -0.437417239 0.05199112 0.268002898
v -0.437417239 0.05199112 0.268002898
v -0.437417239 1.46206355 0.268002868
v -0.276268005 1.11047626 0.268002898
v -0.276268005 0.05199112 0.268002898
v -0.276268005 0.05199112 0.268002898
v -0.276268005 1.11047626 0.443334252
v -0.276268005 0.05199112 0.443334252
v -0.276268005 1.11047626 0.268002898
v 0.276268005 1.11047626 0.443334252
v 0.437417179 1.46206355 0.443334192
v -0.437417239 1.46206355 0.443334192
v 0.276268005 1.11047626 0.268002898
v -0.437417239 1.46206355 0.268002868
v 0.437417179 1.46206355 0.268002868
v 0.276268005 0.05199112 0.268002898
v 0.276268005 0.05199112 0.443334252
v 0.276268005 0.05199112 0.443334252
v 0.437417179 0.05199112 0.443334252
v 0.437417179 1.46206355 0.443334192
v 0.276268005 1.11047626 0.443334252
v 0.437417179 0.05199112 0.443334252
v 0.437417179 0.05199112 0.268002898
v 0.437417179 1.46206355 0.268002868
v 0.437417179 1.46206355 0.443334192
v 0.437417179 0.05199112 0.268002898
v 0.276268005 0.05199112 0.268002898
v 0.276268005 1.11047626 0.268002898
v 0.437417179 1.46206355 0.268002868
v -0.724959552 5.78844309 -0.848699033
v -0.724959373 5.78844309 -0.714377582
v 0.737410367 5.78844309 -0.714377582
v 0.737410128 5.78844309 -0.848699033
v 0.737410128 5.65412092 -0.848699033
v -0.724959552 5.65412092 -0.848699033
v -0.724959373 5.65412092 -0.714377582
v 0.737410367 5.65412092 -0.714377284
v -0.724959373 5.78844309 -0.714377582
v 0.737410367 5.78844309 -0.714377582
v 0.423444122 2.09323573 -1.000314
v 0.382487029 2.09198785 -0.930200756
v 0.320311487 5.70694304 -0.783405006
v 0.360609263 5.7081995 -0.854013801
v 0.442234248 5.70870638 -0.85416317
v 0.504310906 2.09371662 -1.00014067
v 0.544996917 2.09297705 -0.930196226
v 0.482821733 5.707932 -0.783400536
v 0.382487029 2.09198785 -0.930200756
v 0.360997766 5.70620346 -0.713460207
v 0.320311487 5.70694304 -0.783405006
v 0.423074484 2.09121323 -0.859438479
v 0.441864759 5.70668459 -0.713287652
v 0.504699171 2.09172034 -0.859587669
v 0.482821733 5.707932 -0.783400536
v 0.544996917 2.09297705 -0.930196226
v -0.501353621 2.09426975 -0.999939084
v -0.219344229 5.70761538 -0.853838325
v -0.420507491 2.0927248 -1.00049531
v -0.300948828 5.70924425 -0.854318976
v -0.341826767 5.70902586 -0.783396602
v -0.541711569 2.09406948 -0.930190384
v -0.541711569 2.09406948 -0.930190384
v -0.501763165 2.09230471 -0.859763145
v -0.300599575 5.70719481 -0.713105917
v -0.341826767 5.70902586 -0.783396602
v -0.501763165 2.09230471 -0.859763145
v -0.219753549 5.70565033 -0.713662088
v -0.300599575 5.70719481 -0.713105917
v -0.420158684 2.09067583 -0.859282792
v -0.179395705 5.70585012 -0.783411264
v -0.379280895 2.0908947 -0.93020457
v -0.219344229 5.70761538 -0.853838325
v -0.420507491 2.0927248 -1.00049531
v -0.790859759 5.78844213 0.724960685
v -0.790860057 5.78844309 -0.737409055
v -0.790860057 5.65412092 -0.737409055
v -0.790859759 5.65411997 0.724960625
v -0.656538308 5.65411997 0.724960446
v -0.656538427 5.65412092 -0.737409174
v -0.656538308 5.78844213 0.724960566
v -0.656538546 5.78844309 -0.737409174
v -0.790859759 5.78844213 0.724960685
v -0.790860057 5.78844309 -0.737409055
v -0.942473888 2.09323502 -0.423443288
v -0.872360766 2.09198737 -0.382486403
v -0.725566089 5.70694256 -0.320310801
v -0.796174765 5.70819855 -0.36060822
v -0.796323836 5.7087059 -0.442233115
v -0.942300916 2.09371614 -0.504310429
v -0.872356117 2.09297633 -0.5449965
v -0.725561678 5.70793152 -0.482820421
v -0.872360766 2.09198737 -0.382486403
v -0.655621648 5.70620203 -0.360996842
v -0.725566089 5.70694256 -0.320310801
v -0.801598191 2.09121275 -0.423073888
v -0.655448735 5.70668316 -0.441863686
v -0.80174762 2.09171987 -0.504698455
v -0.725561678 5.70793152 -0.482820421
v -0.872356117 2.09297633 -0.5449965
v -0.942098916 2.09426904 0.501354396
v -0.79599905 5.70761442 0.219345525
v -0.942655146 2.09272432 0.420508236
v -0.796479702 5.70924282 0.300949901
v -0.725557566 5.70902443 0.341827571
v -0.872350156 2.09406877 0.541712403
v -0.872350156 2.09406877 0.541712403
v -0.801923215 2.09230399 0.501763761
v -0.655267239 5.70719385 0.300600469
v -0.725557566 5.70902443 0.341827571
v -0.801923215 2.09230399 0.501763761
v -0.655823588 5.70564938 0.21975477
v -0.655267239 5.70719385 0.300600469
v -0.801442802 2.09067535 0.420159489
v -0.725572109 5.70584965 0.179397106
v -0.87236464 2.09089422 0.379281491
v -0.79599905 5.70761442 0.219345525
v -0.942655146 2.09272432 0.420508236
v 0.798851669 5.78844309 -0.724960029
v 0.664530218 5.78844309 -0.724960029
v 0.664530993 5.78844309 0.737410009
v 0.798852503 5.78844309 0.737409651
v 0.798852503 5.65412092 0.737409711
v 0.798851669 5.65412092 -0.724960029
v 0.664530337 5.65412092 -0.724959671
v 0.664530933 5.65412092 0.737410009
v 0.664530218 5.78844309 -0.724960029
v 0.664530993 5.78844309 0.737410009
v 0.950466871 2.09323549 0.423444062
v 0.880353689 2.09198761 0.38248691
v 0.733558416 5.70694304 0.320311397
v 0.804167151 5.7081995 0.360608816
v 0.804316223 5.7087059 0.442233622
v 0.950293839 2.09371638 0.504310787
v 0.880349159 2.09297657 0.544996917
v 0.733554065 5.707932 0.482820958
v 0.880353689 2.09198761 0.38248691
v 0.663614035 5.70620346 0.360997528
v 0.733558416 5.70694304 0.320311397
v 0.809591353 2.09121299 0.423074484
v 0.663441122 5.70668459 0.441864133
v 0.809740603 2.09172034 0.504699171
v 0.733554065 5.707932 0.482820958
v 0.880349159 2.09297657 0.544996917
v 0.9500916 2.09426928 -0.501353741
v 0.803991377 5.70761442 -0.21934472
v 0.95064795 2.09272456 -0.42050764
v 0.80447185 5.70924377 -0.300949275
v 0.733549654 5.70902443 -0.341826916
v 0.880342841 2.09406924 -0.541711867
v 0.880342841 2.09406924 -0.541711867
v 0.809915662 2.09230423 -0.501763284
v 0.663259327 5.70719385 -0.300599992
v 0.733549654 5.70902443 -0.341826916
v 0.809915662 2.09230423 -0.501763284
v 0.663815379 5.70565033 -0.21975404
v 0.663259327 5.70719385 -0.300599992
v 0.809435308 2.09067559 -0.420158833
v 0.733564198 5.70585012 -0.179396227
v 0.880357265 2.09089446 -0.379280835
v 0.803991377 5.70761442 -0.21934472
v 0.95064795 2.09272456 -0.42050764
v 0.724958837 5.78844213 0.848700643
v 0.724958718 5.78844213 0.714379191
v -0.737411022 5.78844213 0.714379311
v -0.737410784 5.78844213 0.848700941
v -0.737410784 5.65412092 0.848700941
v 0.724958837 5.65412045 0.848700643
v 0.724958718 5.65412045 0.714379191
v -0.737411022 5.65412092 0.714379251
v 0.724958718 5.78844213 0.714379191
v -0.737411022 5.78844213 0.714379311
v -0.423443824 2.09323502 1.00031495
v -0.382486671 2.09198737 0.930201769
v -0.320312202 5.70694256 0.783407032
v -0.360609949 5.7081995 0.854015648
v -0.442234874 5.7087059 0.854164958
v -0.504310727 2.09371614 1.00014198
v -0.544996798 2.09297609 0.930197179
v -0.482822329 5.707932 0.783402443
v -0.382486671 2.09198737 0.930201769
v -0.360998422 5.70620298 0.713462174
v -0.320312202 5.70694256 0.783407032
v -0.423074245 2.09121275 0.859439313
v -0.441865385 5.70668316 0.71328932
v -0.504698992 2.09171963 0.859588683
v -0.482822329 5.707932 0.783402443
v -0.544996798 2.09297609 0.930197179
v 0.501353979 2.09426928 0.999940097
v 0.219343618 5.70761442 0.853840172
v 0.420507729 2.09272432 1.00049639
v 0.300948143 5.70924377 0.854320645
v 0.341826171 5.70902491 0.783398509
v 0.541712046 2.09406924 0.930191338
v 0.541712046 2.09406924 0.930191338
v 0.501763463 2.09230399 0.859764159
v 0.30059889 5.70719481 0.713107824
v 0.341826171 5.70902491 0.783398509
v 0.501763463 2.09230399 0.859764159
v 0.219752893 5.70564985 0.713664174
v 0.30059889 5.70719481 0.713107824
v 0.420158982 2.09067559 0.859283745
v 0.179395035 5.70584965 0.783412993
v 0.379281074 2.09089422 0.930205643
v 0.219343618 5.70761442 0.853840172
v 0.420507729 2.09272432 1.00049639
v 1.07572007 -0.0029519652 -0.944975972
v 1.07572079 0.0027780151 -1.07626736
v 0.794524074 6.06020308 -0.803616464
v 0.794580877 6.05447817 -0.694863617
v 0.96201849 -0.0107752988 -0.879548013
v 1.07572007 -0.0029519652 -0.944975972
v 0.794580877 6.05447817 -0.694863617
v 0.700374842 6.04665375 -0.640557289
v 0.848317921 -0.0128678894 -0.945409536
v 0.96201849 -0.0107752988 -0.879548013
v 0.700374842 6.04665375 -0.640557289
v 0.606052756 6.04455853 -0.695167243
v 0.848317564 -0.00713745086 -1.07670021
v 0.848317921 -0.0128678894 -0.945409536
v 0.606052756 6.04455853 -0.695167243
v 0.606115162 6.05029392 -0.804038763
v 0.962018311 0.000685577397 -1.14212966
v 0.848317564 -0.00713745086 -1.07670021
v 0.606115162 6.05029392 -0.804038763
v 0.700365186 6.05811262 -0.858182073
v 1.07572079 0.0027780151 -1.07626736
v 0.962018311 0.000685577397 -1.14212966
v 0.700365186 6.05811262 -0.858182073
v 0.794524074 6.06020308 -0.803616464
v -0.896053731 -0.0029519652 -1.12430453
v -1.02734482 0.0027778626 -1.12430525
v -0.754697502 6.06020355 -0.843107879
v -0.645944715 6.05447912 -0.843164682
v -0.830625415 -0.0107752988 -1.01060295
v -0.896053731 -0.0029519652 -1.12430453
v -0.645944715 6.05447912 -0.843164682
v -0.591638386 6.0466547 -0.748958588
v -0.896487236 -0.0128678894 -0.896902204
v -0.830625415 -0.0107752988 -1.01060295
v -0.591638386 6.0466547 -0.748958588
v -0.646248102 6.04455853 -0.654636621
v -1.02777791 -0.00713775633 -0.896901786
v -0.896487236 -0.0128678894 -0.896902204
v -0.646248102 6.04455853 -0.654636621
v -0.75511986 6.05029488 -0.654698908
v -1.09320748 0.000685119594 -1.01060283
v -1.02777791 -0.00713775633 -0.896901786
v -0.75511986 6.05029488 -0.654698908
v -0.80926311 6.05811405 -0.748949051
v -1.02734482 0.0027778626 -1.12430525
v -1.09320748 0.000685119594 -1.01060283
v -0.80926311 6.05811405 -0.748949051
v -0.754697502 6.06020355 -0.843107879
v 0.848368645 -0.00714508025 1.09354675
v 0.961944759 0.000680084224 1.15919268
v 0.700577915 6.05810881 0.874996841
v 0.606431365 6.05028677 0.820674181
v 0.848618805 -0.0128700249 0.962256134
v 0.848368645 -0.00714508025 1.09354675
v 0.606431365 6.05028677 0.820674181
v 0.606576324 6.04455662 0.711802125
v 0.962444603 -0.0107693477 0.896610916
v 0.848618805 -0.0128700249 0.962256134
v 0.606576324 6.04455662 0.711802125
v 0.701001823 6.04666138 0.657372117
v 1.07602119 -0.0029441833 0.962256014
v 0.962444603 -0.0107693477 0.896610916
v 0.701001823 6.04666138 0.657372117
v 0.795104325 6.05448818 0.711857736
v 1.07577133 0.00278045656 1.09354699
v 1.07602119 -0.0029441833 0.962256014
v 0.795104325 6.05448818 0.711857736
v 0.794840515 6.06020689 0.820610166
v 0.961944759 0.000680084224 1.15919268
v 1.07577133 0.00278045656 1.09354699
v 0.794840515 6.06020689 0.820610166
v 0.700577915 6.05810881 0.874996841
v -1.07560027 -0.0029519652 0.962253034
v -1.07560122 0.0027780151 1.09354448
v -0.794407308 6.06020355 0.820894897
v -0.79446435 6.05447865 0.712141931
v -0.961898804 -0.0107752988 0.896824777
v -1.07560027 -0.0029519652 0.962253034
v -0.79446435 6.05447865 0.712141931
v -0.700257838 6.04665375 0.657835662
v -0.848198295 -0.0128678894 0.962686598
v -0.961898804 -0.0107752988 0.896824777
v -0.700257838 6.04665375 0.657835662
v -0.60593605 6.04455805 0.712445438
v -0.848197997 -0.00713775633 1.09397721
v -0.848198295 -0.0128678894 0.962686598
v -0.60593605 6.04455805 0.712445438
v -0.605998456 6.05029392 0.821317017
v -0.961898923 0.000685272214 1.1594069
v -0.605998456 6.05029392 0.821317017
v -0.70024842 6.05811405 0.875460386
v -1.07560122 0.0027780151 1.09354448
v -0.961898923 0.000685272214 1.1594069
v -0.70024842 6.05811405 0.875460386
v -0.794407308 6.06020355 0.820894897
v -0.993513405 2.32885504 0.991666019
v -0.932097018 3.711483 0.901328623
v -0.929917872 3.76053953 -0.906795621
v -0.993513405 2.42704678 -1.00033855
v -0.932847023 3.22908664 -0.997019768
v -0.904471636 4.2309289 -0.964110553
v 0.903333008 4.2799859 -0.961931288
v 0.961804092 3.11042714 -1.00251091
v 0.993513405 2.39207125 -0.998336792
v 0.933178127 3.68714213 -0.902919114
v 0.932892203 3.69817615 0.911170304
v 0.993513525 2.23127651 1.0206089
v 0.906228483 2.38905382 1.07001054
v 0.900998294 3.52520466 1.00859416
v -0.9067958 3.55833673 1.01305461
v -0.906216562 2.2341733 1.07001054
v -0.900539637 3.75746989 -0.90683943
v -0.902711689 3.70856547 0.901328623
v -0.9641307 2.32588005 0.991649628
v -0.964137554 2.42392635 -1.00039697
v 0.903349161 4.27753782 -0.934879303
v -0.904481709 4.22858286 -0.937054873
v -0.932848394 3.22670674 -0.969965518
v 0.961827397 3.1079514 -0.975459754
v 0.903502226 3.69536805 0.911108017
v 0.903799355 3.68408251 -0.902916074
v 0.964130104 2.38910937 -0.998359203
v 0.964120388 2.22854543 1.02052653
v -0.906736374 3.55506778 0.986035466
v 0.900888026 3.52135086 0.981604278
v 0.906183541 2.38542509 1.04300869
v -0.9060992 2.23110342 1.0429827
v 0.271569252 6.10736179 0.261596262
v -0.270603508 6.10736179 -0.311498106
v 0.271569252 6.10736179 -0.311498106
v -0.270603508 6.10736179 0.261596262
v 0.271569252 6.10736179 -0.311498106
v 0.271569252 6.57650661 0.261596262
v 0.271569252 6.57650661 -0.311498106
v -0.270603508 6.57650661 0.261596262
v -0.270603508 6.57650661 -0.311498106
v -0.270603508 6.10736179 -0.311498106
v 0.271569252 6.57650661 0.261596262
v -0.270603508 6.57650661 0.261596262
v 0.271569252 6.10736179 0.261596262
v 0.271569252 6.57650661 0.261596262
v -0.270603508 6.57650661 0.261596262
v -0.270603508 6.10736179 0.261596262
v 0.389558554 6.10736179 -0.204819426
v -0.388592869 6.10736179 -0.341971129
v 0.389558643 6.10736179 -0.341971129
v -0.388592869 6.10736179 -0.204819426
v 0.389558643 6.10736179 -0.341971129
v 0.389558554 6.88794518 -0.204819426
v 0.389558643 6.88794518 -0.341971129
v -0.388592869 6.88794518 -0.204819426
v -0.388592869 6.88794518 -0.341971129
v -0.388592869 6.10736179 -0.341971129
v 0.389558554 6.88794518 -0.204819426
v -0.388592869 6.88794518 -0.204819426
v 0.389558554 6.10736179 -0.204819426
v 0.389558554 6.88794518 -0.204819426
v -0.388592869 6.88794518 -0.204819426
v -0.388592869 6.10736179 -0.204819426
v -0.388592869 6.10736179 -0.341971129
v -0.388592869 6.88794518 -0.341971129
v 0.389558643 6.88794518 -0.341971129
v 0.389558643 6.10736179 -0.341971129
v 0.0601721369 6.43222952 1.85942602
v -0.0592064001 6.43222952 -1.48969936
v 0.0601721369 6.43222952 -1.48969936
v -0.0592064001 6.43222952 1.85942602
v 0.0601721369 6.43222952 -1.48969936
v 0.0601721369 6.57205439 1.85942602
v 0.0601721369 6.57205439 -1.48969936
v -0.0592064001 6.57205439 1.85942602
v -0.0592064001 6.57205439 -1.48969936
v -0.0592064001 6.43222952 -1.48969936
v 0.0601721369 6.57205439 1.85942602
v -0.0592064001 6.57205439 1.85942602
v 0.115856528 6.07225084 -2.41281509
v -0.114890762 6.07225084 -1.27175307
v -0.114890762 6.07225084 -2.41281486
v 0.115856528 6.07225084 -1.27175307
v -0.114890762 6.07225084 -2.41281486
v 0.115856528 7.2272172 -2.41281509
v -0.114890762 7.2272172 -2.41281486
v 0.115856528 7.2272172 -1.27175307
v -0.114890762 7.2272172 -1.27175307
v -0.114890762 6.07225084 -1.27175307
v 0.115856528 7.2272172 -2.41281509
v 0.115856528 7.2272172 -1.27175307
v 0.115856528 6.07225084 -2.41281509
v 0.115856528 7.2272172 -2.41281509
v 0.115856528 7.2272172 -1.27175307
v 0.115856528 6.07225084 -1.27175307
v -0.114890762 6.07225084 -1.27175307
v -0.114890762 7.2272172 -1.27175307
v -0.114890762 7.2272172 -2.41281486
v -0.114890762 6.07225084 -2.41281486
v 0.863391101 5.09421539 -0.0432684459
v -0.863391221 5.09421539 0.0432684161
v -0.863391161 5.09421539 -0.0432684459
v 0.863391101 5.09421539 0.0432684161
v -0.863391161 5.09421539 -0.0432684459
v 0.863391101 5.23403978 -0.0432684459
v -0.863391161 5.23403978 -0.0432684459
v 0.863391101 5.23403978 0.0432684161
v -0.863391221 5.23403978 0.0432684161
v -0.863391221 5.09421539 0.0432684161
v 0.863391101 5.23403978 -0.0432684459
v 0.863391101 5.23403978 0.0432684161
v -1.20073879 6.0268383 -0.641807973
v -1.30287838 6.02683687 0.395221829
v -1.30287838 6.30442142 0.395221829
v -1.20073879 6.30442238 -0.641807973
v -0.395223677 6.0268383 -1.30287743
v -0.395223677 6.30442238 -1.30287719
v 0.641808152 6.0268383 -1.20073855
v 0.641808152 6.30442238 -1.20073819
v 1.30287766 6.0268383 -0.395222783
v 1.30287766 6.30442238 -0.395222783
v 1.20073831 6.02683687 0.641808689
v 1.20073831 6.30442142 0.641808689
v 0.395222306 6.02683687 1.30287874
v 0.395222306 6.30442142 1.30287874
v -0.64181 6.02683687 1.20073831
v -0.64181 6.30442142 1.20073831
v -1.30287838 6.02683687 0.395221829
v -1.30287838 6.30442142 0.395221829
v -1.30287838 6.02683687 0.395221829
v -0.411179185 6.02683592 0.76925987
v -0.64181 6.02683687 1.20073831
v -0.834696651 6.02683592 0.25320074
v -1.20073879 6.0268383 -0.641807973
v -0.769260228 6.0268383 -0.411177963
v -0.395223677 6.0268383 -1.30287743
v -0.253202528 6.0268383 -0.834695697
v -0.64181 6.02683687 1.20073831
v -0.411179185 6.02683592 0.76925987
v 0.253201425 6.02683592 0.834696412
v 0.395222306 6.02683687 1.30287874
v 0.76925993 6.02683592 0.411179185
v 1.20073831 6.02683687 0.641808689
v 0.834696054 6.0268383 -0.253202379
v 1.30287766 6.0268383 -0.395222783
v 0.411177963 6.0268383 -0.769260228
v 0.641808152 6.0268383 -1.20073855
v -0.253202528 6.0268383 -0.834695697
v -0.395223677 6.0268383 -1.30287743
v -0.769260228 6.0268383 -0.411177963
v -0.834696651 6.30441999 0.25320074
v -0.834696651 6.02683592 0.25320074
v -0.769260228 6.30442238 -0.411177963
v -0.253202528 6.0268383 -0.834695697
v -0.253202528 6.30442238 -0.834695697
v 0.411177963 6.0268383 -0.769260228
v 0.411177963 6.30442238 -0.769260228
v 0.834696054 6.0268383 -0.253202379
v 0.834696054 6.30442238 -0.253202379
v 0.76925993 6.02683592 0.411179185
v 0.76925993 6.30441999 0.411179185
v 0.253201425 6.02683592 0.834696412
v 0.253201425 6.30441999 0.834696412
v -0.411179185 6.02683592 0.76925987
v -0.411179185 6.30441999 0.76925987
v -0.834696651 6.02683592 0.25320074
v -0.834696651 6.30441999 0.25320074
v 1.30287766 6.30442238 -0.395222783
v 0.76925993 6.30441999 0.411179185
v 1.20073831 6.30442142 0.641808689
v 0.834696054 6.30442238 -0.253202379
v 0.641808152 6.30442238 -1.20073819
v 0.411177963 6.30442238 -0.769260228
v -0.395223677 6.30442238 -1.30287719
v -0.253202528 6.30442238 -0.834695697
v -1.20073879 6.30442238 -0.641807973
v -0.769260228 6.30442238 -0.411177963
v -1.30287838 6.30442142 0.395221829
v -0.834696651 6.30441999 0.25320074
v 1.20073831 6.30442142 0.641808689
v 0.76925993 6.30441999 0.411179185
v 0.253201425 6.30441999 0.834696412
v 0.395222306 6.30442142 1.30287874
v -0.411179185 6.30441999 0.76925987
v -0.64181 6.30442142 1.20073831
v -0.834696651 6.30441999 0.25320074
v -1.30287838 6.30442142 0.395221829
v -0.874469578 6.33716297 -0.467412859
v -0.948855579 6.33715916 0.287831008
v -0.948855579 6.61474419 0.287831008
v -0.874469578 6.614748 -0.467412859
v -0.287832052 6.33716297 -0.94885391
v -0.287832052 6.614748 -0.948853731
v 0.467413634 6.33716297 -0.874468684
v 0.467413634 6.614748 -0.874468386
v 0.948854983 6.33716297 -0.287830889
v 0.948854983 6.614748 -0.287831515
v 0.87446928 6.33715916 0.467414081
v 0.87446928 6.61474419 0.467414081
v 0.287831098 6.33715916 0.948855817
v 0.287831098 6.61474419 0.948855817
v -0.467415154 6.33715916 0.874469638
v -0.467415154 6.61474419 0.874469638
v -0.948855579 6.33715916 0.287831008
v -0.948855579 6.61474419 0.287831008
v -0.948855579 6.33715916 0.287831008
v -0.411179185 6.33716059 0.76925987
v -0.467415154 6.33715916 0.874469638
v -0.834696651 6.33716059 0.25320074
v -0.874469578 6.33716297 -0.467412859
v -0.769260228 6.33716297 -0.411177963
v -0.287832052 6.33716297 -0.94885391
v -0.253202528 6.33716297 -0.834695399
v -0.467415154 6.33715916 0.874469638
v -0.411179185 6.33716059 0.76925987
v 0.253201425 6.33716059 0.834696412
v 0.287831098 6.33715916 0.948855817
v 0.76925993 6.33716059 0.411179185
v 0.87446928 6.33715916 0.467414081
v 0.834696054 6.33716297 -0.253202379
v 0.948854983 6.33716297 -0.287830889
v 0.411177963 6.33716297 -0.769260228
v 0.467413634 6.33716297 -0.874468684
v -0.253202528 6.33716297 -0.834695399
v -0.287832052 6.33716297 -0.94885391
v -0.769260228 6.33716297 -0.411177963
v -0.834696651 6.61474466 0.25320074
v -0.834696651 6.33716059 0.25320074
v -0.769260228 6.614748 -0.411177963
v -0.253202528 6.33716297 -0.834695399
v -0.253202528 6.614748 -0.834695399
v 0.411177963 6.33716297 -0.769260228
v 0.411177963 6.614748 -0.769260228
v 0.834696054 6.33716297 -0.253202379
v 0.834696054 6.614748 -0.253202379
v 0.76925993 6.33716059 0.411179185
v 0.76925993 6.61474466 0.411179185
v 0.253201425 6.33716059 0.834696412
v 0.253201425 6.61474466 0.834696412
v -0.411179185 6.33716059 0.76925987
v -0.411179185 6.61474466 0.76925987
v -0.834696651 6.33716059 0.25320074
v -0.834696651 6.61474466 0.25320074
v 0.948854983 6.614748 -0.287831515
v 0.76925993 6.61474466 0.411179185
v 0.87446928 6.61474419 0.467414081
v 0.834696054 6.614748 -0.253202379
v 0.467413634 6.614748 -0.874468386
v 0.411177963 6.614748 -0.769260228
v -0.287832052 6.614748 -0.948853731
v -0.253202528 6.614748 -0.834695399
v -0.874469578 6.614748 -0.467412859
v -0.769260228 6.614748 -0.411177963
v -0.948855579 6.61474419 0.287831008
v -0.834696651 6.61474466 0.25320074
v 0.87446928 6.61474419 0.467414081
v 0.76925993 6.61474466 0.411179185
v 0.253201425 6.61474466 0.834696412
v 0.287831098 6.61474419 0.948855817
v -0.411179185 6.61474466 0.76925987
v -0.467415154 6.61474419 0.874469638
v -0.834696651 6.61474466 0.25320074
v -0.948855579 6.61474419 0.287831008
v -0.0470077693 1.71165156 -0.0528098419
v -0.0470077693 6.11996031 0.0528098904
v -0.0470077693 6.11996031 -0.052809231
v -0.0470077693 1.71165156 0.0528093576
v 0.0470077321 1.71165156 0.0528093576
v 0.0470077321 6.11996031 0.0528098904
v 0.0470077321 1.71165156 -0.0528098419
v 0.0470077321 6.11996031 -0.052809231
v -0.0470077693 1.71165156 -0.0528098419
v -0.0470077693 6.11996031 -0.052809231
v 1.05920529 0.0546025075 -1.18253326
v 1.06401896 0.713525653 -1.0777148
v 1.06401908 0.0513989255 -1.10915816
v 0.106483057 0.719227254 -1.07988167
v 1.05920517 0.716729105 -1.15108991
v 0.101669289 0.722431004 -1.15325677
v -1.04687631 0.0538919047 -1.18727028
v 0.10166914 0.974192619 -1.14479887
v -1.04687631 0.976383924 -1.1469934
v -1.0420624 0.0506883226 -1.1138953
v 0.106482983 0.970988929 -1.07142377
v 0.106483057 0.719227254 -1.07988167
v -1.04206252 0.973180354 -1.07361829
v 1.04810882 1.98461485 -1.08177888
v 1.04810882 1.9532665 -1.08177888
v -1.04810882 1.9532665 -1.08177888
v 1.04810882 1.98461485 1.08177865
v -1.04810882 1.98461485 -1.08177888
v 1.04810882 1.9532665 1.08177865
v -1.04810882 1.98461485 1.08177865
v -1.04810882 1.9532665 1.08177865
vt 0 0
vt 0 1
vt 1 0.5
vt 0 0.5
vt 1 1
vt 1 0
vt 0.5 0
vt 0 1
vt 1 1
vt 0.5 0
vt 0 1
vt 1 1
vt 1 0
vt 0 0
vt 0 1
vt 1 1
vt 0 0
vt 0 1
vt 1 1
vt 1 0
vt 0 0
vt 0 1
vt 1 1
vt 1 0
vt 0 0
vt 0 1
vt 1 1
vt 1 0
vt 1 0
vt 1 1
vt 0 1
vt 0 0
vt 0 0
vt 1 0
vt 1 1
vt 0 1
vt 0 0
vt 1 0
vt 1 1
vt 0 1
vt 0 0
vt 1 0
vt 1 1
vt 0 1
vt 0 0
vt 0 0
vt 0 1
vt 0 1
vt 0 1
vt 1 0
vt 1 0
vt 0 0
vt 0 1
vt 0 0
vt 1 0
vt 1 1
vt 1 1
vt 1 0
vt 1 1
vt 1 1
vt 1 0
vt 0 0
vt 0 1
vt 1 1
vt 0 0
vt 0 1
vt 1 1
vt 1 0
vt 0 0
vt 0 1
vt 1 1
vt 1 0
vt 0 0
vt 0 1
vt 1 1
vt 1 0
vt 1 0
vt 0 0
vt 0 1
vt 1 1
vt 0 0
vt 0 1
vt 1 1
vt 1 0
vt 0 0
vt 0 1
vt 1 1
vt 1 0
vt 0 0
vt 0 1
vt 1 1
vt 1 0
vt 1 0
vt 0 0
vt 0 1
vt 1 1
vt 0 0
vt 0 1
vt 1 1
vt 1 0
vt 0 0
vt 0 1
vt 1 1
vt 1 0
vt 0 0
vt 0 1
vt 1 1
vt 1 0
vt 1 0
vt 0 0
vt 0 1
vt 1 1
vt 0 0
vt 0 1
vt 1 1
vt 1 0
vt 0 0
vt 0 1
vt 1 1
vt 1 0
vt 0 0
vt 0 1
vt 1 1
vt 1 0
vt 1 0
vt 0 0
vt 0 1
vt 1 1
vt 0 0
vt 0 1
vt 1 1
vt 1 0
vt 0 0
vt 0 1
vt 1 1
vt 1 0
vt 0 0
vt 0 1
vt 1 1
vt 1 0
vt 1 0
vt 1 1
vt 0 1
vt 0 0
vt 0 0
vt 1 0
vt 1 1
vt 0 1
vt 0 0
vt 1 0
vt 1 1
vt 0 1
vt 0 0
vt 1 0
vt 1 1
vt 0 1
vt 0 0
vt 0 1
vt 1 1
vt 1 0
vt 0 0
vt 0 1
vt 1 1
vt 1 0
vt 0 0
vt 1 0
vt 0 0
vt 0 1
vt 0 1
vt 1 1
vt 0 1
vt 0 0
vt 1 1
vt 1 0
vt 0 0
vt 0 1
vt 1 1
vt 1 0
vt 0 0
vt 0 1
vt 1 1
vt 1 0
vt 0 0
vt 1 0
vt 0 0
vt 0 1
vt 0 1
vt 0 0
vt 0 0
vt 0 1
vt 1 1
vt 1 1
vt 1 0
vt 1 0
vt 0 0
vt 0 0.768936217
vt 0.666666687 0.922978759
vt 1 0
vt 0 0
vt 0 0.884468079
vt 1 0.884468079
vt 1 0
vt 0 0
vt 0.333333343 0.922978759
vt 1 0.768936217
vt 1 0
vt 0 0
vt 1 0.768936217
vt 1 0
vt 0 0.768936217
vt 1 0.768936217
vt 1 1
vt 1 1
vt 0 0.768936217
vt 0 1
vt 0 1
vt 0 0
vt 1 0
vt 0 0
vt 1 0
vt 0.666666687 0.922978759
vt 0 0.768936217
vt 0 0
vt 1 0
vt 1 0.884468079
vt 0 0.884468079
vt 0 0
vt 1 0
vt 1 0.768936217
vt 0.333333343 0.922978759
vt 0 0
vt 0 0.768936217
vt 0.666666687 0.922978759
vt 1 0
vt 0 0
vt 0 0.884468079
vt 1 0.884468079
vt 1 0
vt 0 0
vt 0.333333343 0.922978759
vt 1 0.768936217
vt 1 0
vt 0 0
vt 1 0.768936217
vt 1 0
vt 0 0.768936217
vt 1 0.768936217
vt 1 1
vt 1 1
vt 0 0.768936217
vt 0 1
vt 0 1
vt 0 0
vt 1 0
vt 0 0
vt 1 0
vt 0.666666687 0.922978759
vt 0 0.768936217
vt 0 0
vt 1 0
vt 1 0.884468079
vt 0 0.884468079
vt 0 0
vt 1 0
vt 1 0.768936217
vt 0.333333343 0.922978759
vt 0.11480999 0.876089811
vt 0.114809982 1.07117152
vt 0.998806 1.07117128
vt 0.998806 0.876089811
vt 0.998806 0.62739259
vt 0.114809752 0.62739259
vt 0.114809752 0.364420474
vt 0.998806 0.364419132
vt 0.109155603 0.115720525
vt 0.993151844 0.115720525
vt -0.422140419 0.831266522
vt -0.421975195 0.981453657
vt 2.25570703 0.981524765
vt 2.25554252 0.831212163
vt 2.25554204 0.672980666
vt -0.4221403 0.672915399
vt -0.42214036 0.513482451
vt 2.25554228 0.513499618
vt 2.24302459 0.00928204507
vt 1.00670481 0.175054625
vt 0.995524824 0.00928175077
vt 2.25420094 0.174988583
vt 1.00981033 0.345698744
vt 2.25731039 0.345642447
vt 1.00988722 0.504728138
vt 2.25738716 0.504792333
vt -0.425569415 0.828064442
vt 2.25882697 0.668126225
vt -0.425569892 0.668088377
vt 2.25882626 0.828025818
vt 2.25882673 0.990264058
vt -0.425569952 0.990364969
vt -0.439855427 0.0131496489
vt -0.428675115 0.181663811
vt 2.25572109 0.181654409
vt 2.24454594 0.0132199824
vt 2.2506752 0.182254344
vt 1.01255488 0.347376823
vt 1.00944936 0.18225345
vt 2.25377941 0.347292304
vt 1.01255488 0.50886935
vt 2.25378084 0.508771062
vt 1.01255488 0.668686032
vt 2.25378036 0.66866976
vt 0.11480999 0.876089811
vt 0.998806 0.876089811
vt 0.998806 0.62739259
vt 0.114809752 0.62739259
vt 0.114809752 0.364420474
vt 0.998806 0.364419132
vt 0.109155603 0.115720525
vt 0.993151844 0.115720525
vt 0.096607551 -0.0618966185
vt 0.980603695 -0.0618969314
vt -0.422140479 0.831266582
vt -0.421975404 0.981453538
vt 2.25570679 0.981525064
vt 2.25554252 0.831212103
vt 2.25554204 0.672980726
vt -0.422140181 0.672915637
vt -0.422140539 0.513482213
vt 2.25554204 0.51349932
vt 2.24302435 0.00928290933
vt 1.00670481 0.175054625
vt 0.995524824 0.00928175077
vt 2.2542007 0.174989596
vt 1.00981033 0.345698744
vt 2.25731039 0.34564209
vt 1.00988722 0.504728377
vt 2.2573874 0.504792571
vt -0.425569475 0.828064561
vt 2.25882673 0.668125987
vt -0.425569952 0.668088436
vt 2.25882649 0.828025699
vt 2.25882673 0.990263879
vt -0.425570011 0.990365922
vt -0.439855397 0.013150543
vt -0.428675175 0.181663439
vt 2.25572109 0.181653991
vt 2.2445457 0.0132204741
vt 2.25067496 0.182254001
vt 1.01255488 0.347376823
vt 1.00944936 0.18225345
vt 2.25377941 0.347291797
vt 1.01255488 0.50886935
vt 2.25378084 0.508771479
vt 1.01255488 0.668686032
vt 2.25378036 0.66866982
vt 0.11480999 0.876089811
vt 0.11480996 1.0711714
vt 0.998805881 1.0711714
vt 0.998806 0.876089811
vt 0.998806 0.62739259
vt 0.114809752 0.62739259
vt 0.114809752 0.364420474
vt 0.998806 0.364419132
vt 0.109155603 0.115720525
vt 0.993151844 0.115720525
vt -0.42214036 0.831266403
vt -0.421975434 0.981453776
vt 2.25570726 0.981525421
vt 2.25554252 0.831211805
vt 2.25554204 0.672980726
vt -0.422140062 0.672915459
vt -0.422140539 0.513482153
vt 2.25554228 0.513499796
vt 2.24302459 0.00928262621
vt 1.00670481 0.175054625
vt 0.995524824 0.00928175077
vt 2.2542007 0.17498903
vt 1.00981033 0.345698744
vt 2.25731039 0.345642507
vt 1.00988722 0.504728496
vt 2.25738764 0.504792154
vt -0.425569415 0.82806462
vt 2.25882697 0.668126166
vt -0.425569892 0.668088257
vt 2.25882578 0.828025043
vt 2.25882673 0.990263522
vt -0.425570011 0.990365386
vt -0.439855486 0.0131499618
vt -0.428675115 0.181663528
vt 2.25572062 0.181653947
vt 2.24454546 0.0132205486
vt 2.2506752 0.182254091
vt 1.01255488 0.347376823
vt 1.00944936 0.18225345
vt 2.25377965 0.347292095
vt 1.01255488 0.50886935
vt 2.25378084 0.508771658
vt 1.01255488 0.668686032
vt 2.25378013 0.668669462
vt 0.11480999 0.876089811
vt 0.114809982 1.0711714
vt 0.998806 1.07117152
vt 0.998806 0.876089811
vt 0.998806 0.62739259
vt 0.114809752 0.62739259
vt 0.114809752 0.364420474
vt 0.998806 0.364419132
vt 0.109155603 0.115720525
vt 0.993151844 0.115720525
vt -0.42214036 0.831266522
vt -0.421975642 0.981453776
vt 2.25570679 0.981525302
vt 2.25554252 0.831211984
vt 2.25554228 0.672980547
vt -0.4221403 0.672915518
vt -0.422140539 0.513482153
vt 2.25554228 0.513499677
vt 2.24302459 0.009282507
vt 1.00670481 0.175054625
vt 0.995524824 0.00928175077
vt 2.25420046 0.174989179
vt 1.00981033 0.345698744
vt 2.25731039 0.345642447
vt 1.00988722 0.504728258
vt 2.25738764 0.504792094
vt -0.425569415 0.828064561
vt 2.25882673 0.668125987
vt -0.425569892 0.668088496
vt 2.25882626 0.828025699
vt 2.25882649 0.99026382
vt -0.425570011 0.990365565
vt -0.439855367 0.0131500959
vt -0.428675115 0.181663468
vt 2.25572085 0.18165423
vt 2.24454546 0.0132202655
vt 2.25067472 0.182254121
vt 1.01255488 0.347376823
vt 1.00944936 0.18225345
vt 2.25377941 0.347292066
vt 1.01255488 0.50886935
vt 2.25378084 0.508771181
vt 1.01255488 0.668686032
vt 2.25378036 0.668669522
vt 1.63561368 0.828004241
vt 1.63556731 0.667819023
vt -0.550582528 0.688256145
vt -0.550191522 0.819483101
vt 1.635746 0.971888363
vt 1.63591158 0.808928967
vt -0.549961269 0.828139722
vt -0.549617052 0.961714506
vt 1.63519216 0.165577561
vt 1.62168729 0.00265607517
vt -0.561687887 0.022646945
vt -0.550516427 0.155909941
vt 1.63591957 0.329919219
vt 1.6358788 0.169510722
vt -0.54883641 0.206213102
vt -0.549159408 0.33765918
vt 1.63563561 0.491446853
vt 1.63560379 0.331029445
vt -0.549706042 0.367693096
vt -0.550166011 0.499262512
vt 1.63550711 0.649929941
vt 1.63556087 0.486129552
vt -0.550407946 0.507619202
vt -0.55058074 0.641792655
vt 1.6356138 0.828003824
vt 1.63556802 0.667821646
vt -0.550582767 0.688256443
vt -0.5501917 0.819483221
vt 1.635746 0.971888185
vt 1.63591135 0.808928967
vt -0.549961209 0.828138947
vt -0.549615502 0.961346924
vt 1.63519144 0.165577963
vt 1.62168682 0.00265609287
vt -0.561687469 0.0226462223
vt -0.550516486 0.155908257
vt 1.63591933 0.329918653
vt 1.63587856 0.169507295
vt -0.548836112 0.206212461
vt -0.549158812 0.337658793
vt 1.63563585 0.491446286
vt 1.63560426 0.330934137
vt -0.549705982 0.367693156
vt -0.550166249 0.499262512
vt 1.63550794 0.649929762
vt 1.63556099 0.486129254
vt -0.550408185 0.507618964
vt -0.550579548 0.641427219
vt 1.63557804 0.905617952
vt 1.63560867 0.7421664
vt -0.55041945 0.747755289
vt -0.549959481 0.881643832
vt 1.63574755 1.03922403
vt 1.63597608 0.890071392
vt -0.549501181 0.907874584
vt -0.549324632 1.02992666
vt 1.63593757 0.249230027
vt 1.63174319 0.0890014395
vt -0.552022219 0.12516214
vt -0.548717499 0.256470025
vt 1.63576913 0.410683215
vt 1.63572967 0.25031963
vt -0.549205303 0.287076265
vt -0.549659133 0.418642342
vt 1.63559568 0.569203615
vt 1.63563883 0.405405253
vt -0.549938202 0.427362621
vt -0.550327241 0.56136632
vt 1.63560891 0.733587921
vt 1.63556898 0.573149741
vt -0.550727427 0.607937038
vt -0.550563753 0.739450395
vt 1.63561368 0.828004241
vt 1.63556731 0.667910337
vt -0.550582767 0.688256681
vt -0.550191581 0.819483638
vt 1.63574517 0.971888304
vt 1.63591111 0.808928967
vt -0.549961448 0.828139603
vt -0.549616933 0.961592078
vt 1.63519108 0.165577188
vt 1.62168682 0.00265559182
vt -0.561687946 0.0226467792
vt -0.550507367 0.156025827
vt 1.63591909 0.32991901
vt 1.63587904 0.169325233
vt -0.548836052 0.206212923
vt -0.549159288 0.337659299
vt 1.63563573 0.491446823
vt -0.549705446 0.367693394
vt -0.550166011 0.49926284
vt 1.63550699 0.649929762
vt 1.63556087 0.486129522
vt -0.550408125 0.507619202
vt -0.55058068 0.641797781
vt 0 0
vt 0 1
vt 1 1
vt 1 0
vt 0 0
vt 0 1
vt 1 1
vt 1 0
vt 0 0
vt 0 1
vt 1 1
vt 1 0
vt 0 0
vt 0 1
vt 1 1
vt 1 0
vt 1 1
vt 0 1
vt 0 0
vt 1 0
vt 1 1
vt 0 1
vt 0 0
vt 1 0
vt 1 1
vt 0 1
vt 0 0
vt 1 0
vt 1 1
vt 0 1
vt 0 0
vt 1 0
vt 1 0
vt 0 1
vt 1 1
vt 0 0
vt 0 0
vt 1 1
vt 0 1
vt 0 1
vt 1 1
vt 1 0
vt 0 0
vt 1 0
vt 0 0
vt 0 1
vt 1 1
vt 1 0
vt 1 0
vt 0 1
vt 1 1
vt 0 0
vt 0 0
vt 1 1
vt 0 1
vt 0 1
vt 1 1
vt 1 0
vt 0 0
vt 1 0
vt 0 0
vt 0 1
vt 1 1
vt 1 0
vt 0 0
vt 0 1
vt 1 1
vt 1 0
vt 1 0
vt 0 1
vt 1 1
vt 0 0
vt 0 0
vt 1 1
vt 0 1
vt 0 1
vt 1 1
vt 1 0
vt 0 0
vt 1 0
vt 1 0
vt 0 1
vt 1 1
vt 0 0
vt 0 0
vt 1 1
vt 0 1
vt 0 1
vt 1 1
vt 1 0
vt 0 0
vt 1 0
vt 0 0
vt 0 1
vt 1 1
vt 1 0
vt 0 0
vt 0 1
vt 1 1
vt 1 0
vt 1 0
vt 0 1
vt 1 1
vt 0 0
vt 0 0
vt 1 1
vt 0 1
vt 0 1
vt 1 1
vt 1 0
vt 0 0
vt 1 0
vt -2.71935225 1.14265943
vt -3.16910028 1.14265943
vt -3.16910028 1.45851398
vt -2.71935225 1.45851398
vt -2.21918654 1.14265943
vt -2.21918654 1.45851398
vt -1.71902072 1.14265943
vt -1.71902072 1.45851398
vt -1.21885455 1.14265943
vt -1.21885455 1.45851398
vt -0.718688428 1.14265943
vt -0.718688428 1.45851398
vt -0.218522027 1.14265943
vt -0.218522027 1.45851398
vt 0.281643897 1.14265943
vt 0.281643897 1.45851398
vt 0.781810164 1.14265943
vt 0.781810164 1.45851398
vt -0.80210197 1.60366678
vt -0.318624496 1.99727964
vt -0.282918334 1.60366678
vt -0.803009331 1.99727964
vt -1.32333398 1.60366678
vt -1.32095206 1.99727964
vt -1.84538424 1.60366678
vt -1.78071022 1.99727964
vt 0.28891629 1.81172574
vt 0.1644831 2.14644861
vt -0.224944666 1.99795997
vt -0.207852319 1.60312724
vt -0.688466847 1.99795997
vt -0.683583915 1.60312724
vt -1.18487954 1.99795997
vt -1.18813372 1.60312724
vt -1.66069651 1.99795997
vt -1.66920841 1.60312724
vt -2.02263665 1.99795997
vt -2.07276106 1.60312724
vt -2.81104064 1.14267254
vt -3.17190766 1.45973277
vt -3.17190766 1.14267254
vt -2.81104064 1.45973277
vt -2.31084609 1.14267254
vt -2.31084609 1.45973277
vt -1.81065154 1.14267254
vt -1.81065154 1.45973277
vt -1.31045699 1.14267254
vt -1.31045699 1.45973277
vt -0.810261846 1.14267254
vt -0.810261846 1.45973277
vt -0.310067505 1.14267254
vt -0.310067505 1.45973277
vt 0.190127254 1.14267254
vt 0.190127254 1.45973277
vt 0.690322042 1.14267254
vt 0.690322042 1.45973277
vt 0.950194359 1.59984052
vt 1.03161633 2.14737177
vt 1.04462123 1.81005526
vt 0.950478435 1.99773264
vt 0.729037523 1.59984052
vt 0.728067875 1.99773264
vt 0.427691162 1.59984052
vt 0.425905347 1.99773264
vt 0.148306519 1.59984052
vt 0.146790028 1.99773264
vt 0.00858539343 1.59984052
vt 0.00257405406 1.99773264
vt 0.114424974 1.59895062
vt 0.124200016 2.0010705
vt 0.42648676 2.0010705
vt 0.419861257 1.59895062
vt 0.758534372 2.0010705
vt 0.759071946 1.59895062
vt 0.975905001 2.0010705
vt 0.980383217 1.59895062
vt -2.71935225 1.14265943
vt -3.16910028 1.14265943
vt -3.16910028 1.45851398
vt -2.71935225 1.45851398
vt -2.21918654 1.14265943
vt -2.21918654 1.45851398
vt -1.71902072 1.14265943
vt -1.71902072 1.45851398
vt -1.21885455 1.14265943
vt -1.21885455 1.45851398
vt -0.718688428 1.14265943
vt -0.718688428 1.45851398
vt -0.218522027 1.14265943
vt -0.218522027 1.45851398
vt 0.281643897 1.14265943
vt 0.281643897 1.45851398
vt 0.781810164 1.14265943
vt 0.781810164 1.45851398
vt -0.80210197 1.60366678
vt -0.318624496 1.99727964
vt -0.282918334 1.60366678
vt -0.803009331 1.99727964
vt -1.32333398 1.60366678
vt -1.32095206 1.99727964
vt -1.84538424 1.60366678
vt -1.78071022 1.99727964
vt 0.28891629 1.81172574
vt 0.1644831 2.14644861
vt -0.224944666 1.99795997
vt -0.207852319 1.60312724
vt -0.688466847 1.99795997
vt -0.683583915 1.60312724
vt -1.18487954 1.99795997
vt -1.18813372 1.60312724
vt -1.66069651 1.99795997
vt -1.66920841 1.60312724
vt -2.02263665 1.99795997
vt -2.07276106 1.60312724
vt -2.81104064 1.14267254
vt -3.17190766 1.45973277
vt -3.17190766 1.14267254
vt -2.81104064 1.45973277
vt -2.31084609 1.14267254
vt -2.31084609 1.45973277
vt -1.81065154 1.14267254
vt -1.81065154 1.45973277
vt -1.31045699 1.14267254
vt -1.31045699 1.45973277
vt -0.810261846 1.14267254
vt -0.810261846 1.45973277
vt -0.310067505 1.14267254
vt -0.310067505 1.45973277
vt 0.190127254 1.14267254
vt 0.190127254 1.45973277
vt 0.690322042 1.14267254
vt 0.690322042 1.45973277
vt 0.950194359 1.59984052
vt 1.03161633 2.14737177
vt 1.04462123 1.81005526
vt 0.950478435 1.99773264
vt 0.729037523 1.59984052
vt 0.728067875 1.99773264
vt 0.427691162 1.59984052
vt 0.425905347 1.99773264
vt 0.148306519 1.59984052
vt 0.146790028 1.99773264
vt 0.00858539343 1.59984052
vt 0.00257405406 1.99773264
vt 0.114424974 1.59895062
vt 0.124200016 2.0010705
vt 0.42648676 2.0010705
vt 0.419861257 1.59895062
vt 0.758534372 2.0010705
vt 0.759071946 1.59895062
vt 0.975905001 2.0010705
vt 0.980383217 1.59895062
vt -0.74826026 0.0535017848
vt 1.00017452 0.252681226
vt 1.00017452 0.0535022616
vt -0.74826026 0.252680749
vt -0.74826026 0.352271169
vt 1.00017452 0.352271646
vt -0.74826026 0.551444173
vt 1.00017452 0.551445127
vt -0.748260379 0.644357383
vt 1.00017452 0.644358337
vt 0 0
vt 1 1
vt 1 0
vt 1 1
vt 0 1
vt 0 1
vt 1 1
vt 0 1
vt 1 1
vt 1 0
vt 0 0
vt 0 0
vt 1 0
vt 1 0
vt 1 0
vt 1 1
vt 1 0
vt 1 1
vt 1 0
vt 1 1
vt 1 1
g submesh0
f 1/1 2/2 3/3
f 4/4 5/5 6/6
f 7/7 8/8 9/9
f 10/10 11/11 12/12
f 13/13 14/14 15/15
f 13/13 15/15 16/16
f 17/17 18/18 19/19
f 17/17 19/19 20/20
f 21/21 22/22 23/23
f 21/21 23/23 24/24
f 25/25 26/26 27/27
f 25/25 27/27 28/28
f 29/29 30/30 31/31
f 29/29 31/31 32/32
f 33/33 34/34 35/35
f 33/33 35/35 36/36
f 37/37 38/38 39/39
f 37/37 39/39 40/40
f 41/41 42/42 43/43
f 41/41 43/43 44/44
f 45/45 46/46 47/47
f 45/45 47/47 48/48
f 48/48 49/49 50/50
f 48/48 50/50 51/51
f 52/52 53/53 49/49
f 52/52 54/54 53/53
f 47/47 55/55 53/53
f 55/55 50/50 56/56
f 55/55 56/56 57/57
f 47/47 58/58 55/55
f 58/58 51/51 59/59
f 58/58 59/59 60/60
f 61/61 62/62 63/63
f 61/61 63/63 64/64
f 65/65 66/66 67/67
f 65/65 67/67 68/68
f 69/69 70/70 71/71
f 69/69 71/71 72/72
f 73/73 74/74 75/75
f 73/73 75/75 76/76
f 77/77 78/78 79/79
f 77/77 79/79 80/80
f 81/81 82/82 83/83
f 81/81 83/83 84/84
f 85/85 86/86 87/87
f 85/85 87/87 88/88
f 89/89 90/90 91/91
f 89/89 91/91 92/92
f 93/93 94/94 95/95
f 93/93 95/95 96/96
f 97/97 98/98 99/99
f 97/97 99/99 100/100
f 101/101 102/102 103/103
f 101/101 103/103 104/104
f 105/105 106/106 107/107
f 105/105 107/107 108/108
f 109/109 110/110 111/111
f 109/109 111/111 112/112
f 113/113 114/114 115/115
f 113/113 115/115 116/116
f 117/117 118/118 119/119
f 117/117 119/119 120/120
f 121/121 122/122 123/123
f 121/121 123/123 124/124
f 125/125 126/126 127/127
f 125/125 127/127 128/128
f 129/129 130/130 131/131
f 129/129 131/131 132/132
f 133/133 134/134 135/135
f 133/133 135/135 136/136
f 137/137 138/138 139/139
f 137/137 139/139 140/140
f 141/141 142/142 143/143
f 141/141 143/143 144/144
f 145/145 146/146 147/147
f 145/145 147/147 148/148
f 149/149 150/150 151/151
f 149/149 151/151 152/152
f 153/153 154/154 155/155
f 153/153 155/155 156/156
f 157/157 158/158 159/159
f 157/157 159/159 160/160
f 161/161 162/162 163/163
f 161/161 163/163 164/164
f 165/165 163/163 166/166
f 167/167 165/165 166/166
f 168/168 165/165 167/167
f 165/165 169/169 163/163
f 163/163 169/169 168/168
f 168/168 169/169 165/165
f 170/170 171/171 168/168
f 168/168 171/171 172/172
f 170/170 173/173 171/171
f 172/172 171/171 173/173
f 174/174 173/173 170/170
f 172/172 173/173 174/174
f 175/175 176/176 177/177
f 175/175 177/177 178/178
f 179/179 180/180 181/181
f 179/179 181/181 182/182
f 183/183 181/181 184/184
f 185/185 183/183 184/184
f 186/186 183/183 185/185
f 183/183 187/187 181/181
f 181/181 187/187 186/186
f 186/186 187/187 183/183
f 186/186 188/188 189/189
f 186/186 190/190 188/188
f 191/191 190/190 186/186
f 188/188 190/190 192/192
f 191/191 192/192 190/190
f 188/188 192/192 193/193
f 194/194 192/192 191/191
f 194/194 193/193 192/192
f 195/195 196/196 197/197
f 195/195 197/197 198/198
f 199/199 200/200 201/201
f 199/199 201/201 202/202
f 203/203 204/204 205/205
f 203/203 205/205 206/206
f 207/207 208/208 209/209
f 207/207 210/210 208/208
f 210/210 211/211 208/208
f 208/208 211/211 212/212
f 208/208 212/212 213/213
f 210/210 214/214 211/211
f 215/215 214/214 210/210
f 215/215 216/216 214/214
f 217/217 211/211 214/214
f 217/217 218/218 211/211
f 219/219 220/220 221/221
f 219/219 221/221 222/222
f 223/223 224/224 225/225
f 223/223 225/225 226/226
f 227/227 228/228 229/229
f 227/227 229/229 230/230
f 231/231 232/232 233/233
f 231/231 233/233 234/234
f 235/235 236/236 237/237
f 235/235 237/237 238/238
f 239/239 240/240 241/241
f 239/239 241/241 242/242
f 243/243 244/244 245/245
f 243/243 246/246 244/244
f 246/246 247/247 244/244
f 244/244 247/247 248/248
f 244/244 248/248 249/249
f 246/246 250/250 247/247
f 251/251 250/250 246/246
f 251/251 252/252 250/250
f 253/253 247/247 250/250
f 253/253 254/254 247/247
f 255/255 256/256 257/257
f 255/255 257/257 258/258
f 259/259 260/260 261/261
f 259/259 261/261 262/262
f 263/263 264/264 265/265
f 263/263 265/265 266/266
f 267/267 268/268 269/269
f 267/267 269/269 270/270
f 267/267 270/270 271/271
f 267/267 271/271 272/272
f 273/273 272/272 271/271
f 273/273 271/271 274/274
f 275/275 273/273 274/274
f 275/275 274/274 276/276
f 277/277 278/278 279/279
f 277/277 279/279 280/280
f 277/277 280/280 281/281
f 277/277 281/281 282/282
f 283/283 282/282 281/281
f 283/283 281/281 284/284
f 285/285 286/286 287/287
f 285/285 288/288 286/286
f 288/288 289/289 286/286
f 288/288 290/290 289/289
f 290/290 291/291 289/289
f 290/290 292/292 291/291
f 293/293 294/294 295/295
f 293/293 296/296 294/294
f 293/293 297/297 296/296
f 293/293 298/298 297/297
f 299/299 300/300 301/301
f 299/299 301/301 302/302
f 303/303 304/304 305/305
f 303/303 306/306 304/304
f 306/306 307/307 304/304
f 306/306 308/308 307/307
f 308/308 309/309 307/307
f 308/308 310/310 309/309
f 311/311 312/312 313/313
f 311/311 313/313 314/314
f 315/315 314/314 313/313
f 315/315 313/313 316/316
f 317/317 315/315 316/316
f 317/317 316/316 318/318
f 319/319 317/317 318/318
f 319/319 318/318 320/320
f 321/321 322/322 323/323
f 321/321 323/323 324/324
f 321/321 324/324 325/325
f 321/321 325/325 326/326
f 327/327 326/326 325/325
f 327/327 325/325 328/328
f 329/329 330/330 331/331
f 329/329 332/332 330/330
f 332/332 333/333 330/330
f 332/332 334/334 333/333
f 334/334 335/335 333/333
f 334/334 336/336 335/335
f 337/337 338/338 339/339
f 337/337 340/340 338/338
f 337/337 341/341 340/340
f 337/337 342/342 341/341
f 343/343 344/344 345/345
f 343/343 345/345 346/346
f 347/347 348/348 349/349
f 347/347 350/350 348/348
f 350/350 351/351 348/348
f 350/350 352/352 351/351
f 352/352 353/353 351/351
f 352/352 354/354 353/353
f 355/355 356/356 357/357
f 355/355 357/357 358/358
f 355/355 358/358 359/359
f 355/355 359/359 360/360
f 361/361 360/360 359/359
f 361/361 359/359 362/362
f 363/363 361/361 362/362
f 363/363 362/362 364/364
f 365/365 366/366 367/367
f 365/365 367/367 368/368
f 365/365 368/368 369/369
f 365/365 369/369 370/370
f 371/371 370/370 369/369
f 371/371 369/369 372/372
f 373/373 374/374 375/375
f 373/373 376/376 374/374
f 376/376 377/377 374/374
f 376/376 378/378 377/377
f 378/378 379/379 377/377
f 378/378 380/380 379/379
f 381/381 382/382 383/383
f 381/381 384/384 382/382
f 381/381 385/385 384/384
f 381/381 386/386 385/385
f 387/387 388/388 389/389
f 387/387 389/389 390/390
f 391/391 392/392 393/393
f 391/391 394/394 392/392
f 394/394 395/395 392/392
f 394/394 396/396 395/395
f 396/396 397/397 395/395
f 396/396 398/398 397/397
f 399/399 400/400 401/401
f 399/399 401/401 402/402
f 399/399 402/402 403/403
f 399/399 403/403 404/404
f 405/405 404/404 403/403
f 405/405 403/403 406/406
f 407/407 405/405 406/406
f 407/407 406/406 408/408
f 409/409 410/410 411/411
f 409/409 411/411 412/412
f 409/409 412/412 413/413
f 409/409 413/413 414/414
f 415/415 414/414 413/413
f 415/415 413/413 416/416
f 417/417 418/418 419/419
f 417/417 420/420 418/418
f 420/420 421/421 418/418
f 420/420 422/422 421/421
f 422/422 423/423 421/421
f 422/422 424/424 423/423
f 425/425 426/426 427/427
f 425/425 428/428 426/426
f 425/425 429/429 428/428
f 425/425 430/430 429/429
f 431/431 432/432 433/433
f 431/431 433/433 434/434
f 435/435 436/436 437/437
f 435/435 438/438 436/436
f 438/438 439/439 436/436
f 438/438 440/440 439/439
f 440/440 441/441 439/439
f 440/440 442/442 441/441
f 443/443 444/444 445/445
f 443/443 445/445 446/446
f 447/447 448/448 449/449
f 447/447 449/449 450/450
f 451/451 452/452 453/453
f 451/451 453/453 454/454
f 455/455 456/456 457/457
f 455/455 457/457 458/458
f 459/459 460/460 461/461
f 459/459 461/461 462/462
f 463/463 464/464 465/465
f 463/463 465/465 466/466
f 467/467 468/468 469/469
f 467/467 469/469 470/470
f 471/471 472/472 473/473
f 471/471 473/473 474/474
f 475/475 476/476 477/477
f 475/475 477/477 478/478
f 479/479 480/480 481/481
f 479/479 481/481 482/482
f 483/483 484/484 485/485
f 483/483 485/485 486/486
f 487/487 488/488 489/489
f 487/487 489/489 490/490
f 491/491 492/492 493/493
f 491/491 493/493 494/494
f 495/495 496/496 497/497
f 495/495 497/497 498/498
f 499/499 500/500 501/501
f 499/499 501/501 502/502
f 503/503 504/504 505/505
f 503/503 505/505 506/506
f 507/507 508/508 509/509
f 507/507 509/509 510/510
f 511/511 512/512 513/513
f 511/511 513/513 514/514
f 515/515 516/516 517/517
f 515/515 517/517 518/518
f 519/519 520/520 521/521
f 519/519 521/521 522/522
f 523/523 524/524 525/525
f 523/523 525/525 526/526
f 527/527 528/528 529/529
f 527/527 529/529 530/530
f 531/531 527/527 532/532
f 531/531 532/532 533/533
f 534/534 535/535 536/536
f 534/534 536/536 537/537
f 538/538 539/539 540/540
f 538/538 540/540 541/541
f 542/542 543/543 544/544
f 542/542 544/544 545/545
f 546/546 547/547 548/548
f 546/546 548/548 549/549
f 550/550 551/551 552/552
f 550/550 552/552 553/553
f 554/554 555/555 556/556
f 554/554 556/556 557/557
f 558/558 559/559 560/560
f 558/558 560/560 561/561
f 562/562 563/563 564/564
f 562/562 564/564 565/565
f 566/566 567/567 568/568
f 566/566 568/568 569/569
f 570/570 571/571 572/572
f 570/570 573/573 571/571
f 574/574 575/575 570/570
f 574/574 576/576 575/575
f 573/573 577/577 578/578
f 573/573 578/578 579/579
f 580/580 576/576 578/578
f 580/580 578/578 581/581
f 582/582 583/583 584/584
f 582/582 584/584 585/585
f 586/586 587/587 588/588
f 586/586 589/589 587/587
f 590/590 591/591 586/586
f 590/590 592/592 591/591
f 589/589 593/593 594/594
f 589/589 594/594 595/595
f 596/596 592/592 594/594
f 596/596 594/594 597/597
f 598/598 599/599 600/600
f 598/598 600/600 601/601
f 602/602 603/603 604/604
f 602/602 604/604 605/605
f 606/606 607/607 608/608
f 606/606 609/609 607/607
f 610/610 611/611 606/606
f 610/610 612/612 611/611
f 609/609 613/613 614/614
f 609/609 614/614 615/615
f 616/616 612/612 614/614
f 616/616 614/614 617/617
f 618/618 619/619 620/620
f 618/618 621/621 619/619
f 622/622 623/623 618/618
f 622/622 624/624 623/623
f 621/621 625/625 626/626
f 621/621 626/626 627/627
f 628/628 624/624 626/626
f 628/628 626/626 629/629
f 630/630 631/631 632/632
f 630/630 632/632 633/633
f 634/634 635/635 636/636
f 634/634 636/636 637/637
f 638/638 639/639 640/640
f 638/638 641/641 639/639
f 642/642 643/643 638/638
f 642/642 644/644 643/643
f 641/641 645/645 646/646
f 641/641 646/646 647/647
f 648/648 644/644 646/646
f 648/648 646/646 649/649
f 650/650 651/651 652/652
f 650/650 652/652 653/653
f 654/654 650/650 653/653
f 654/654 653/653 655/655
f 656/656 654/654 655/655
f 656/656 655/655 657/657
f 658/658 656/656 657/657
f 658/658 657/657 659/659
f 660/660 658/658 659/659
f 660/660 659/659 661/661
f 662/662 660/660 661/661
f 662/662 661/661 663/663
f 664/664 662/662 663/663
f 664/664 663/663 665/665
f 666/666 664/664 665/665
f 666/666 665/665 667/667
f 668/668 669/669 670/670
f 668/668 671/671 669/669
f 672/672 671/671 668/668
f 672/672 673/673 671/671
f 674/674 673/673 672/672
f 674/674 675/675 673/673
f 676/676 677/677 678/678
f 676/676 678/678 679/679
f 679/679 678/678 680/680
f 679/679 680/680 681/681
f 681/681 680/680 682/682
f 681/681 682/682 683/683
f 683/683 682/682 684/684
f 683/683 684/684 685/685
f 685/685 684/684 686/686
f 685/685 686/686 687/687
f 688/688 689/689 690/690
f 688/688 691/691 689/689
f 692/692 691/691 688/688
f 692/692 693/693 691/691
f 694/694 693/693 692/692
f 694/694 695/695 693/693
f 696/696 695/695 694/694
f 696/696 697/697 695/695
f 698/698 697/697 696/696
f 698/698 699/699 697/697
f 700/700 699/699 698/698
f 700/700 701/701 699/699
f 702/702 701/701 700/700
f 702/702 703/703 701/701
f 704/704 703/703 702/702
f 704/704 705/705 703/703
f 706/706 707/707 708/708
f 706/706 709/709 707/707
f 710/710 709/709 706/706
f 710/710 711/711 709/709
f 712/712 711/711 710/710
f 712/712 713/713 711/711
f 714/714 713/713 712/712
f 714/714 715/715 713/713
f 716/716 715/715 714/714
f 716/716 717/717 715/715
f 718/718 719/719 720/720
f 718/718 720/720 721/721
f 721/721 720/720 722/722
f 721/721 722/722 723/723
f 723/723 722/722 724/724
f 723/723 724/724 725/725
f 726/726 727/727 728/728
f 726/726 728/728 729/729
f 730/730 726/726 729/729
f 730/730 729/729 731/731
f 732/732 730/730 731/731
f 732/732 731/731 733/733
f 734/734 732/732 733/733
f 734/734 733/733 735/735
f 736/736 734/734 735/735
f 736/736 735/735 737/737
f 738/738 736/736 737/737
f 738/738 737/737 739/739
f 740/740 738/738 739/739
f 740/740 739/739 741/741
f 742/742 740/740 741/741
f 742/742 741/741 743/743
f 744/744 745/745 746/746
f 744/744 747/747 745/745
f 748/748 747/747 744/744
f 748/748 749/749 747/747
f 750/750 749/749 748/748
f 750/750 751/751 749/749
f 752/752 753/753 754/754
f 752/752 754/754 755/755
f 755/755 754/754 756/756
f 755/755 756/756 757/757
f 757/757 756/756 758/758
f 757/757 758/758 759/759
f 759/759 758/758 760/760
f 759/759 760/760 761/761
f 761/761 760/760 762/762
f 761/761 762/762 763/763
f 764/764 765/765 766/766
f 764/764 767/767 765/765
f 768/768 767/767 764/764
f 768/768 769/769 767/767
f 770/770 769/769 768/768
f 770/770 771/771 769/769
f 772/772 771/771 770/770
f 772/772 773/773 771/771
f 774/774 773/773 772/772
f 774/774 775/775 773/773
f 776/776 775/775 774/774
f 776/776 777/777 775/775
f 778/778 777/777 776/776
f 778/778 779/779 777/777
f 780/780 779/779 778/778
f 780/780 781/781 779/779
f 782/782 783/783 784/784
f 782/782 785/785 783/783
f 786/786 785/785 782/782
f 786/786 787/787 785/785
f 788/788 787/787 786/786
f 788/788 789/789 787/787
f 790/790 789/789 788/788
f 790/790 791/791 789/789
f 792/792 791/791 790/790
f 792/792 793/793 791/791
f 794/794 795/795 796/796
f 794/794 796/796 797/797
f 797/797 796/796 798/798
f 797/797 798/798 799/799
f 799/799 798/798 800/800
f 799/799 800/800 801/801
f 802/802 803/803 804/804
f 802/802 805/805 803/803
f 806/806 803/803 805/805
f 806/806 807/807 803/803
f 808/808 807/807 806/806
f 808/808 809/809 807/807
f 810/810 809/809 808/808
f 810/810 811/811 809/809
f 812/812 813/813 814/814
f 814/814 813/813 815/815
f 812/812 816/816 813/813
f 815/815 813/813 816/816
f 817/817 816/816 812/812
f 815/815 816/816 817/817
f 818/818 819/819 817/817
f 818/818 820/820 819/819
f 821/821 820/820 818/818
f 817/817 819/819 822/822
f 822/822 819/819 820/820
f 817/817 822/822 823/823
f 823/823 824/824 821/821
f 821/821 824/824 820/820
f 822/822 820/820 824/824
f 823/823 822/822 824/824
f 825/825 826/826 827/827
f 828/828 826/826 825/825
f 825/825 827/827 829/829
f 828/828 825/825 829/829
f 828/828 830/830 826/826
f 830/830 827/827 826/826
f 828/828 829/829 831/831
f 831/831 830/830 828/828
f 829/829 827/827 832/832
f 829/829 832/832 831/831
f 831/831 832/832 830/830
f 830/830 832/832 827/827
