# wooden_walkway_large_stairs_LOD2
v 1.39391351 -18.8366871 -1.37350655
v 1.35471857 0.157944337 -1.18522537
v 1.35606134 -18.8366871 -1.1832124
v 1.39190245 0.157943115 -1.37216568
v 1.20361876 -18.8366871 -1.41135943
v 1.20496321 0.157944947 -1.40934753
v 1.1657666 -18.8366871 -1.22106397
v 1.1677798 0.157944337 -1.22240984
v 1.35606134 -18.8366871 -1.1832124
v 1.35471857 0.157944337 -1.18522537
v 1.35471857 0.157944337 -1.18522537
v 1.39190245 0.157943115 -1.37216568
v 1.20496321 0.157944947 -1.40934753
v 1.1677798 0.157944337 -1.22240984
v 1.39391291 -17.876543 1.22345865
v 1.35471845 1.11808836 1.41174114
v 1.35606134 -17.876543 1.41375411
v 1.39190233 1.11808717 1.22480083
v 1.20361876 -17.876543 1.18560708
v 1.20496309 1.11808896 1.18761897
v 1.1657666 -17.876543 1.37590253
v 1.16777968 1.11808836 1.37455666
v 1.35606134 -17.876543 1.41375411
v 1.35471845 1.11808836 1.41174114
v 1.35471845 1.11808836 1.41174114
v 1.39190233 1.11808717 1.22480083
v 1.20496309 1.11808896 1.18761897
v 1.16777968 1.11808836 1.37455666
v -1.16414797 -18.8366871 -1.37350655
v -1.20334196 0.157944947 -1.18522537
v -1.20199943 -18.8366871 -1.1832124
v -1.16615808 0.157943726 -1.37216568
v -1.35444212 -18.8366871 -1.41135943
v -1.35309756 0.157945558 -1.40934753
v -1.39229369 -18.8366871 -1.22106397
v -1.39028072 0.157944947 -1.22240984
v -1.20199943 -18.8366871 -1.1832124
v -1.20334196 0.157944947 -1.18522537
v -1.20334196 0.157944947 -1.18522537
v -1.16615808 0.157943726 -1.37216568
v -1.35309756 0.157945558 -1.40934753
v -1.39028072 0.157944947 -1.22240984
v -1.16414666 -17.876543 1.22211587
v -1.20334184 1.11808896 1.41039836
v -1.20199943 -17.876543 1.41241133
v -1.16615796 1.11808777 1.22345805
v -1.35444212 -17.876543 1.1842643
v -1.3530972 1.11808956 1.1862762
v -1.39229369 -17.876543 1.37455976
v -1.39028037 1.11808896 1.37321389
v -1.20199943 -17.876543 1.41241133
v -1.20334184 1.11808896 1.41039836
v -1.20334184 1.11808896 1.41039836
v -1.16615796 1.11808777 1.22345805
v -1.3530972 1.11808956 1.1862762
v -1.39028037 1.11808896 1.37321389
v 1.27917719 1.5 1.52635515
v 1.27917826 6.10351549E-07 -1.51567626
v -1.27748787 6.10351549E-07 -1.51567626
v -1.27748775 1.5 1.52635515
v 1.27917719 1.5 1.52635515
v 1.27917719 0.644229114 1.52635515
v 1.27917814 -0.795982063 -1.51567614
v 1.27917826 6.10351549E-07 -1.51567626
v -1.27748787 6.10351549E-07 -1.51567626
v -1.27748811 -0.795981407 -1.51567614
v -1.27748787 0.644229114 1.52635515
v -1.27748775 1.5 1.52635515
v -1.27748811 -0.795981407 -1.51567614
v -1.27748787 6.10351549E-07 -1.51567626
v 1.27917826 6.10351549E-07 -1.51567626
v 1.27917814 -0.795982063 -1.51567614
v -1.27748775 1.5 1.52635515
v -1.27748787 0.644229114 1.52635515
v 1.27917719 0.644229114 1.52635515
v 1.27917719 1.5 1.52635515
v 1.27917719 1.15484679 1.52635515
v -1.27748775 1.15484679 1.52635515
v -1.27748811 -0.345153183 -1.51567614
v 1.27917826 -0.345153183 -1.51567614
v 1.27917719 1.5 1.52635515
v -1.27748775 1.5 1.52635515
v -1.27748787 6.10351549E-07 -1.51567626
v 1.27917826 6.10351549E-07 -1.51567626
v 1.27917719 1.5 1.52635515
v 1.27917826 6.10351549E-07 -1.51567626
v 1.27917814 -0.795982063 -1.51567614
v 1.27917719 0.644229114 1.52635515
v -1.27748787 6.10351549E-07 -1.51567626
v -1.27748775 1.5 1.52635515
v -1.27748787 0.644229114 1.52635515
v -1.27748811 -0.795981407 -1.51567614
v -1.27748811 -0.795981407 -1.51567614
v 1.27917814 -0.795982063 -1.51567614
v 1.27917826 6.10351549E-07 -1.51567626
v -1.27748787 6.10351549E-07 -1.51567626
v -1.27748775 1.5 1.52635515
v 1.27917719 1.5 1.52635515
v 1.27917719 0.644229114 1.52635515
v -1.27748787 0.644229114 1.52635515
v 1.27917719 1.15484679 1.52635515
v 1.27917826 -0.345153183 -1.51567614
v -1.27748811 -0.345153183 -1.51567614
v -1.27748775 1.15484679 1.52635515
vn 0.831467986 0.00012729819 -0.555572629
vn 0.555569589 0.000127422289 0.831470132
vn 0.555571198 0.000127422274 0.83146894
vn 0.83146733 0.000127298175 -0.555573642
vn -0.555573106 0.000127345542 -0.831467748
vn -0.555574715 0.000127345527 -0.831466556
vn -0.831468701 0.000127469961 0.555571556
vn -0.831469297 0.00012746999 0.555570722
vn 0.555571198 0.000127422274 0.83146894
vn 0.555569589 0.000127422289 0.831470132
vn 5.02343073E-06 1 -6.33289403E-07
vn 5.02342982E-06 1 -6.3328946E-07
vn 5.02342982E-06 1 -6.33289289E-07
vn 5.02342982E-06 1 -6.33289403E-07
vn 0.831466556 0.0001273081 -0.555574775
vn 0.555570424 0.000127408071 0.831469476
vn 0.555572093 0.000127408086 0.831468403
vn 0.831466019 0.000127308114 -0.555575669
vn -0.555574238 0.000127359323 -0.831466913
vn -0.555575967 0.000127359323 -0.831465721
vn -0.831468701 0.000127459687 0.555571556
vn -0.831469297 0.000127459702 0.555570722
vn 0.555572093 0.000127408086 0.831468403
vn 0.555570424 0.000127408071 0.831469476
vn 5.02343073E-06 1 -6.33289119E-07
vn 5.02343073E-06 1 -6.33289119E-07
vn 5.02343073E-06 1 -6.33289119E-07
vn 5.02343073E-06 1 -6.33289119E-07
vn 0.831467569 0.000127271953 -0.555573285
vn 0.555570185 0.000127400228 0.831469595
vn 0.555571795 0.000127400242 0.831468642
vn 0.831466913 0.000127271953 -0.555574238
vn -0.555573702 0.00012733895 -0.831467211
vn -0.55557543 0.000127338979 -0.831466138
vn -0.831468284 0.000127467036 0.555572212
vn -0.83146888 0.00012746705 0.555571318
vn 0.555571795 0.000127400242 0.831468642
vn 0.555570185 0.000127400228 0.831469595
vn 5.02342891E-06 1 -6.33292359E-07
vn 5.02342846E-06 1 -6.33292302E-07
vn 5.02342846E-06 1 -6.33292359E-07
vn 5.02342846E-06 1 -6.33292359E-07
vn 0.831467748 0.000127307969 -0.555573046
vn 0.555569053 0.000127410472 0.83147037
vn 0.555570722 0.000127410472 0.831469297
vn 0.831466556 0.000127307954 -0.555574834
vn -0.555575311 0.000127373598 -0.831466258
vn -0.555576921 0.000127373583 -0.831465065
vn -0.831467748 0.000127476669 0.555573046
vn -0.83146888 0.00012747664 0.555571258
vn 0.555570722 0.000127410472 0.831469297
vn 0.555569053 0.000127410472 0.83147037
vn 5.0234321E-06 1 -6.33291108E-07
vn 5.0234321E-06 1 -6.33291108E-07
vn 5.0234321E-06 1 -6.33291108E-07
vn 5.0234321E-06 1 -6.33291108E-07
vn 0 0.896891952 -0.442249715
vn 0 0.896891952 -0.442249656
vn 0 0.896891952 -0.442249686
vn 0 0.896891952 -0.442249686
vn 1 -1.51018568E-07 4.0129882E-07
vn 1 -1.51018583E-07 4.0129882E-07
vn 1 -1.51018568E-07 4.0129882E-07
vn 1 -1.51018583E-07 4.0129882E-07
vn -1 1.84758761E-07 0
vn -1 1.84758733E-07 0
vn -1 1.84758761E-07 0
vn -1 1.84758761E-07 0
vn 0 0 -1
vn 0 0 -1
vn 0 0 -1
vn 0 0 -1
vn 0 0 1
vn 0 0 1
vn 0 0 1
vn 0 0 1
vn 0 -0.896891832 0.442249864
vn 0 -0.896891952 0.442249864
vn 0 -0.896891832 0.442249864
vn 0 -0.896891832 0.442249864
vn 0 -0.896891952 0.442249715
vn 0 -0.896891952 0.442249715
vn 0 -0.896891952 0.442249715
vn 0 -0.896891952 0.442249715
vn -1 1.5101854E-07 -4.01298792E-07
vn -1 1.51018554E-07 -4.01298792E-07
vn -1 1.5101854E-07 -4.01298735E-07
vn -1 1.51018554E-07 -4.01298792E-07
vn 1 -1.84758761E-07 0
vn 1 -1.84758733E-07 0
vn 1 -1.84758733E-07 0
vn 1 -1.84758733E-07 0
vn 0 0 1
vn 0 0 1
vn 0 0 1
vn 0 0 1
vn 0 0 -1
vn 0 0 -1
vn 0 0 -1
vn 0 0 -1
vn 0 0.896891952 -0.442249864
vn 0 0.896891952 -0.442249805
vn 0 0.896891952 -0.442249835
vn 0 0.896891952 -0.442249835
vt 0.0182836652 0.557196617
vt 0.0135774119 0.34126687
vt 0.0134409256 0.557194471
vt 0.0183348879 0.341269016
vt 0.0231018011 0.557197094
vt 0.0231166296 0.341269493
vt 0.0278960131 0.557197571
vt 0.0278983694 0.341270208
vt 0.0327141508 0.557198048
vt 0.0326801091 0.341270447
vt 0.0278872494 0.33668232
vt 0.0231301077 0.336681128
vt 0.0231166296 0.341269493
vt 0.0278983694 0.341270208
vt 0.0182836652 0.557196617
vt 0.0135774119 0.34126687
vt 0.0134409256 0.557194471
vt 0.0183348879 0.341269016
vt 0.0231018011 0.557197094
vt 0.0231166296 0.341269493
vt 0.0278960131 0.557197571
vt 0.0278983694 0.341270208
vt 0.0327141508 0.557198048
vt 0.0326801091 0.341270447
vt 0.0278872494 0.33668232
vt 0.0231301077 0.336681128
vt 0.0231166296 0.341269493
vt 0.0278983694 0.341270208
vt 0.0182836652 0.557196617
vt 0.0135774119 0.34126687
vt 0.0134409256 0.557194471
vt 0.0183348879 0.341269016
vt 0.0231018011 0.557197094
vt 0.0231166296 0.341269493
vt 0.0278960131 0.557197571
vt 0.0278983694 0.341270208
vt 0.0327141508 0.557198048
vt 0.0326801091 0.341270447
vt 0.0278872494 0.33668232
vt 0.0231301077 0.336681128
vt 0.0231166296 0.341269493
vt 0.0278983694 0.341270208
vt 0.0182836652 0.557196617
vt 0.0135774119 0.34126687
vt 0.0134409256 0.557194471
vt 0.0183348879 0.341269016
vt 0.0231018011 0.557197094
vt 0.0231166296 0.341269493
vt 0.0278960131 0.557197571
vt 0.0278983694 0.341270208
vt 0.0327141508 0.557198048
vt 0.0326801091 0.341270447
vt 0.0278872494 0.33668232
vt 0.0231301077 0.336681128
vt 0.0231166296 0.341269493
vt 0.0278983694 0.341270208
vt 0.473881662 0.103458405
vt 0.389224887 0.103447437
vt 0.389224887 0.164993763
vt 0.473881662 0.165004611
vt 0.473881662 0.103458405
vt 0.464437634 0.0849812031
vt 0.380440056 0.0862594843
vt 0.389224887 0.103447437
vt 0.389224887 0.164993763
vt 0.380436361 0.182177544
vt 0.46443361 0.18348074
vt 0.473881662 0.165004611
vt 0.369359016 0.164993644
vt 0.389224887 0.164993763
vt 0.389224887 0.103447437
vt 0.369356185 0.10344708
vt 0.473881662 0.165004611
vt 0.495242596 0.165005326
vt 0.495240271 0.103458762
vt 0.473881662 0.103458405
vt 0.473881662 0.103458405
vt 0.473881662 0.165004611
vt 0.389224887 0.164993763
vt 0.389224887 0.103447437
vt 0.473881662 0.103458405
vt 0.473881662 0.165004611
vt 0.389224887 0.164993763
vt 0.389224887 0.103447437
vt 0.473881662 0.103458405
vt 0.389224887 0.103447437
vt 0.380440056 0.0862594843
vt 0.464437634 0.0849812031
vt 0.389224887 0.164993763
vt 0.473881662 0.165004611
vt 0.46443361 0.18348074
vt 0.380436361 0.182177544
vt 0.369359016 0.164993644
vt 0.369356185 0.10344708
vt 0.389224887 0.103447437
vt 0.389224887 0.164993763
vt 0.473881662 0.165004611
vt 0.473881662 0.103458405
vt 0.495240271 0.103458762
vt 0.495242596 0.165005326
vt 0.473881662 0.103458405
vt 0.389224887 0.103447437
vt 0.389224887 0.164993763
vt 0.473881662 0.165004611
g submesh0
f 1/1/1 2/2/2 3/3/3
f 1/1/1 4/4/4 2/2/2
f 5/5/5 4/4/4 1/1/1
f 5/5/5 6/6/6 4/4/4
f 7/7/7 6/6/6 5/5/5
f 7/7/7 8/8/8 6/6/6
f 9/9/9 8/8/8 7/7/7
f 9/9/9 10/10/10 8/8/8
f 11/11/11 12/12/12 13/13/13
f 11/11/11 13/13/13 14/14/14
f 15/15/15 16/16/16 17/17/17
f 15/15/15 18/18/18 16/16/16
f 19/19/19 18/18/18 15/15/15
f 19/19/19 20/20/20 18/18/18
f 21/21/21 20/20/20 19/19/19
f 21/21/21 22/22/22 20/20/20
f 23/23/23 22/22/22 21/21/21
f 23/23/23 24/24/24 22/22/22
f 25/25/25 26/26/26 27/27/27
f 25/25/25 27/27/27 28/28/28
f 29/29/29 30/30/30 31/31/31
f 29/29/29 32/32/32 30/30/30
f 33/33/33 32/32/32 29/29/29
f 33/33/33 34/34/34 32/32/32
f 35/35/35 34/34/34 33/33/33
f 35/35/35 36/36/36 34/34/34
f 37/37/37 36/36/36 35/35/35
f 37/37/37 38/38/38 36/36/36
f 39/39/39 40/40/40 41/41/41
f 39/39/39 41/41/41 42/42/42
f 43/43/43 44/44/44 45/45/45
f 43/43/43 46/46/46 44/44/44
f 47/47/47 46/46/46 43/43/43
f 47/47/47 48/48/48 46/46/46
f 49/49/49 48/48/48 47/47/47
f 49/49/49 50/50/50 48/48/48
f 51/51/51 50/50/50 49/49/49
f 51/51/51 52/52/52 50/50/50
f 53/53/53 54/54/54 55/55/55
f 53/53/53 55/55/55 56/56/56
f 57/57/57 58/58/58 59/59/59
f 57/57/57 59/59/59 60/60/60
f 61/61/61 62/62/62 63/63/63
f 61/61/61 63/63/63 64/64/64
f 65/65/65 66/66/66 67/67/67
f 65/65/65 67/67/67 68/68/68
f 69/69/69 70/70/70 71/71/71
f 69/69/69 71/71/71 72/72/72
f 73/73/73 74/74/74 75/75/75
f 73/73/73 75/75/75 76/76/76
f 77/77/77 78/78/78 79/79/79
f 77/77/77 79/79/79 80/80/80
f 81/81/81 82/82/82 83/83/83
f 81/81/81 83/83/83 84/84/84
f 85/85/85 86/86/86 87/87/87
f 85/85/85 87/87/87 88/88/88
f 89/89/89 90/90/90 91/91/91
f 89/89/89 91/91/91 92/92/92
f 93/93/93 94/94/94 95/95/95
f 93/93/93 95/95/95 96/96/96
f 97/97/97 98/98/98 99/99/99
f 97/97/97 99/99/99 100/100/100
f 101/101/101 102/102/102 103/103/103
f 101/101/101 103/103/103 104/104/104
