# wooden_crate_a_COL
v 0.503712595 -1.66576619E-08 0.503598571
v -0.505116701 -1.66576619E-08 -0.504420996
v 0.503712595 -1.66576619E-08 -0.504420936
v -0.505116701 -1.66576619E-08 0.503598571
v 0.503712595 -1.66576619E-08 -0.504420936
v 0.503712595 1.01865661 0.503598571
v 0.503712595 1.01865661 -0.504420936
v -0.505116701 1.01865661 0.503598571
v -0.505116701 1.01865661 -0.504420996
v -0.505116701 -1.66576619E-08 -0.504420996
v 0.503712595 1.01865661 0.503598571
v -0.505116701 1.01865661 0.503598571
v 0.503712595 -1.66576619E-08 0.503598571
v 0.503712595 1.01865661 0.503598571
v -0.505116701 1.01865661 0.503598571
v -0.505116701 -1.66576619E-08 0.503598571
v -0.505116701 -1.66576619E-08 -0.504420996
v -0.505116701 1.01865661 -0.504420996
v 0.503712595 1.01865661 -0.504420936
v 0.503712595 -1.66576619E-08 -0.504420936
vt 1 0
vt 0 1
vt 1 1
vt 0 0
vt 0 0
vt 1 1
vt 0 1
vt 0 1
vt 1 1
vt 1 0
vt 0 0
vt 1 0
vt 0 0
vt 0 1
vt 1 1
vt 1 0
vt 0 0
vt 0 1
vt 1 1
vt 1 0
g submesh0
f 1/1 2/2 3/3
f 1/1 4/4 2/2
f 5/5 6/6 1/1
f 5/5 7/7 6/6
f 4/4 8/8 9/9
f 4/4 9/9 10/10
f 11/11 7/7 9/9
f 11/11 9/9 12/12
f 13/13 14/14 15/15
f 13/13 15/15 16/16
f 17/17 18/18 19/19
f 17/17 19/19 20/20
