# wooden_walkway_large_300_LOD1
v 1.41971564 -0.561999321 -1.18357289
v 1.419716 -0.311998546 -1.18357289
v 1.41971564 -0.311998546 -1.11949539
v 1.41971564 -0.561999321 -1.11949539
v -1.45814109 -0.311999023 -1.11949658
v 1.41971564 -0.311998546 -1.11949539
v 1.419716 -0.311998546 -1.18357289
v -1.45814097 -0.311999172 -1.18357396
v -1.45814097 -0.311999172 -1.18357396
v -1.45814097 -0.56199944 -1.18357384
v -1.45814109 -0.56199944 -1.11949646
v -1.45814109 -0.311999023 -1.11949658
v -1.45814097 -0.56199944 -1.18357384
v 1.41971564 -0.561999321 -1.18357289
v 1.41971564 -0.561999321 -1.11949539
v -1.45814109 -0.56199944 -1.11949646
v 1.419716 -0.311998546 -1.18357289
v 1.41971564 -0.561999321 -1.18357289
v -1.45814097 -0.56199944 -1.18357384
v -1.45814097 -0.311999172 -1.18357396
v 1.41971564 -0.561999321 -1.11949539
v 1.41971564 -0.311998546 -1.11949539
v -1.45814109 -0.311999023 -1.11949658
v -1.45814109 -0.56199944 -1.11949646
v -0.993553162 -0.315933496 1.49999976
v -0.993553877 -0.315933794 -1.49999964
v -0.993553877 -0.0582233779 -1.49999964
v -0.993553162 -0.0582235307 1.49999976
v -1.05763054 -0.0582235307 1.49999952
v -1.05763137 -0.0582233779 -1.49999964
v -1.05763137 -0.315933794 -1.49999964
v -1.05763054 -0.315933496 1.49999952
v -0.993553877 -0.0582233779 -1.49999964
v -0.993553877 -0.315933794 -1.49999964
v -1.05763137 -0.315933794 -1.49999964
v -1.05763137 -0.0582233779 -1.49999964
v -1.05763137 -0.0582233779 -1.49999964
v -1.05763054 -0.0582235307 1.49999952
v -0.993553162 -0.0582235307 1.49999976
v -0.993553877 -0.0582233779 -1.49999964
v -0.993553162 -0.315933496 1.49999976
v -0.993553162 -0.0582235307 1.49999976
v -1.05763054 -0.0582235307 1.49999952
v -1.05763054 -0.315933496 1.49999952
v -1.05763054 -0.315933496 1.49999952
v -1.05763137 -0.315933794 -1.49999964
v -0.993553877 -0.315933794 -1.49999964
v -0.993553162 -0.315933496 1.49999976
v 1.41971564 -0.561999321 -1.5019896
v 1.41971588 -0.311998546 -1.5019896
v 1.41971564 -0.311998546 -1.43791211
v 1.41971564 -0.561999321 -1.43791211
v -1.45814145 -0.311999023 -1.4379133
v 1.41971564 -0.311998546 -1.43791211
v 1.41971588 -0.311998546 -1.5019896
v -1.45814133 -0.311999172 -1.50199068
v -1.45814133 -0.311999172 -1.50199068
v -1.45814133 -0.56199944 -1.50199068
v -1.45814133 -0.56199944 -1.43791318
v -1.45814145 -0.311999023 -1.4379133
v -1.45814133 -0.56199944 -1.50199068
v 1.41971564 -0.561999321 -1.5019896
v 1.41971564 -0.561999321 -1.43791211
v -1.45814133 -0.56199944 -1.43791318
v 1.41971588 -0.311998546 -1.5019896
v 1.41971564 -0.561999321 -1.5019896
v -1.45814133 -0.56199944 -1.50199068
v -1.45814133 -0.311999172 -1.50199068
v 1.41971564 -0.561999321 -1.43791211
v 1.41971564 -0.311998546 -1.43791211
v -1.45814145 -0.311999023 -1.4379133
v -1.45814133 -0.56199944 -1.43791318
v 1.38594234 -18.8366852 -1.22639573
v 1.30473554 0.148586616 -1.17213404
v 1.30473614 -18.8366852 -1.17213547
v 1.38594127 0.148586616 -1.2263943
v 1.40499604 -18.8366871 -1.32218552
v 1.40499508 0.148586914 -1.32218337
v 1.3507359 -18.8366852 -1.40339148
v 1.35073495 0.148587078 -1.40338945
v 1.25494671 -18.8366871 -1.42244554
v 1.25494599 0.148586914 -1.42244303
v 1.17374063 -18.8366871 -1.36818528
v 1.17373979 0.148586914 -1.36818278
v 1.15468705 -18.8366852 -1.27239549
v 1.15468621 0.148586616 -1.27239394
v 1.20894706 -18.8366852 -1.19118941
v 1.20894635 0.148587078 -1.19118762
v 1.30473614 -18.8366852 -1.17213547
v 1.30473554 0.148586616 -1.17213404
v -1.17211795 -18.8366871 -1.22639573
v -1.25332439 0.148586467 -1.17213404
v -1.25332391 -18.8366871 -1.17213547
v -1.17211831 0.148586616 -1.2263943
v -1.15306389 -18.8366871 -1.32218552
v -1.15306473 0.148586914 -1.32218325
v -1.20732391 -18.8366871 -1.40339148
v -1.20732498 0.148586914 -1.40338922
v -1.3031131 -18.8366871 -1.42244422
v -1.30311394 0.148586765 -1.42244303
v -1.38431907 -18.8366871 -1.36818397
v -1.3843199 0.148586765 -1.36818278
v -1.40337276 -18.8366871 -1.27239549
v -1.40337384 0.148586467 -1.27239394
v -1.34911287 -18.8366871 -1.19118941
v -1.34911358 0.148586765 -1.19118762
v -1.25332391 -18.8366871 -1.17213547
v -1.25332439 0.148586467 -1.17213404
v 1.0555681 -0.315933019 1.49999917
v 1.0555675 -0.315933347 -1.49999976
v 1.05556726 -0.0582230762 -1.49999976
v 1.0555681 -0.0582235307 1.49999917
v 0.991490602 -0.0582235307 1.49999917
v 0.991489828 -0.0582230762 -1.49999976
v 0.991490006 -0.315933347 -1.49999976
v 0.991490602 -0.315933019 1.49999917
v 1.05556726 -0.0582230762 -1.49999976
v 1.0555675 -0.315933347 -1.49999976
v 0.991490006 -0.315933347 -1.49999976
v 0.991489828 -0.0582230762 -1.49999976
v 0.991489828 -0.0582230762 -1.49999976
v 0.991490602 -0.0582235307 1.49999917
v 1.0555681 -0.0582235307 1.49999917
v 1.05556726 -0.0582230762 -1.49999976
v 1.0555681 -0.315933019 1.49999917
v 1.0555681 -0.0582235307 1.49999917
v 0.991490602 -0.0582235307 1.49999917
v 0.991490602 -0.315933019 1.49999917
v 0.991490602 -0.315933019 1.49999917
v 0.991490006 -0.315933347 -1.49999976
v 1.0555675 -0.315933347 -1.49999976
v 1.0555681 -0.315933019 1.49999917
v -1.20732498 0.148586914 -1.40338922
v -1.30311394 0.148586765 -1.42244303
v -1.29825854 0.17546238 -1.39803433
v -1.22115171 0.175461918 -1.38269687
v -1.27821922 0.187998384 -1.29728937
v -1.15306473 0.148586914 -1.32218325
v -1.36362672 0.175462067 -1.35435677
v -1.3843199 0.148586765 -1.36818278
v -1.17747438 0.175462216 -1.31732857
v -1.17211831 0.148586616 -1.2263943
v -1.37896419 0.175461918 -1.27725005
v -1.40337384 0.148586467 -1.27239394
v -1.19281185 0.175462216 -1.24022186
v -1.25332439 0.148586467 -1.17213404
v -1.33528674 0.175461769 -1.21188211
v -1.34911358 0.148586765 -1.19118762
v -1.25817978 0.175461769 -1.19654441
v 1.35073495 0.148587078 -1.40338945
v 1.25494599 0.148586914 -1.42244303
v 1.25980127 0.175462529 -1.39803433
v 1.3369081 0.175461918 -1.38269699
v 1.27984071 0.187998533 -1.29728937
v 1.40499508 0.148586914 -1.32218337
v 1.19443321 0.175462216 -1.35435677
v 1.17373979 0.148586914 -1.36818278
v 1.38058543 0.175462216 -1.31732881
v 1.38594127 0.148586616 -1.2263943
v 1.17909575 0.175462216 -1.27725005
v 1.15468621 0.148586616 -1.27239394
v 1.36524808 0.175462216 -1.24022198
v 1.30473554 0.148586616 -1.17213404
v 1.22277343 0.175461918 -1.21188211
v 1.20894635 0.148587078 -1.19118762
v 1.29988003 0.175461918 -1.19654441
v -1.46080244 -0.861512125 1.97944748
v -1.46080267 -0.550988555 -1.52178109
v -1.46080267 -0.686025202 -1.5335952
v -1.46080244 -0.992147624 1.96801829
v -1.40391028 -0.861512125 1.97944748
v -1.40391028 -0.992147624 1.96801829
v -1.40391064 -0.686025381 -1.5335952
v -1.40391064 -0.550988555 -1.52178109
v -1.40391028 -0.861512125 1.97944748
v -1.40391064 -0.550988555 -1.52178109
v -1.46080267 -0.550988555 -1.52178109
v -1.46080244 -0.861512125 1.97944748
v -1.40391064 -0.686025381 -1.5335952
v -1.40391028 -0.992147624 1.96801829
v -1.46080244 -0.992147624 1.96801829
v -1.46080267 -0.686025202 -1.5335952
v -1.40391064 -0.686025381 -1.5335952
v -1.46080267 -0.686025202 -1.5335952
v -1.46080267 -0.550988555 -1.52178109
v -1.40391064 -0.550988555 -1.52178109
v -1.40391028 -0.861512125 1.97944748
v -1.46080244 -0.861512125 1.97944748
v -1.46080244 -0.992147624 1.96801829
v -1.40391028 -0.992147624 1.96801829
v 1.41322541 -0.953122556 1.93739212
v 1.41322505 -0.0393334553 -1.45672119
v 1.41322505 -0.170267135 -1.49180472
v 1.41322553 -1.07978868 1.90345192
v 1.47011757 -0.953122556 1.93739212
v 1.47011757 -1.07978868 1.90345192
v 1.47011721 -0.170267135 -1.49180472
v 1.47011721 -0.0393334553 -1.45672119
v 1.47011757 -0.953122556 1.93739212
v 1.47011721 -0.0393334553 -1.45672119
v 1.41322505 -0.0393334553 -1.45672119
v 1.41322541 -0.953122556 1.93739212
v 1.47011721 -0.170267135 -1.49180472
v 1.47011757 -1.07978868 1.90345192
v 1.41322553 -1.07978868 1.90345192
v 1.41322505 -0.170267135 -1.49180472
v 1.47011721 -0.170267135 -1.49180472
v 1.41322505 -0.170267135 -1.49180472
v 1.41322505 -0.0393334553 -1.45672119
v 1.47011721 -0.0393334553 -1.45672119
v 1.47011757 -0.953122556 1.93739212
v 1.41322541 -0.953122556 1.93739212
v 1.41322553 -1.07978868 1.90345192
v 1.47011757 -1.07978868 1.90345192
v -1.24540234 -0.000978507916 0.0354875922
v -1.24633908 0.0142015452 -0.338314056
v -1.24633908 -0.0497544482 -0.341106415
v -1.24540234 -0.0649338886 0.0326953866
v 1.21289349 0.0195335764 -0.341766357
v 1.21289361 0.0158710089 0.0352040082
v 1.21289361 -0.0481757708 0.0147269433
v 1.21289349 -0.0444219597 -0.33897385
v -1.24540234 -0.000978507916 0.0354875922
v -1.24540234 -0.0649338886 0.0326953866
v -1.26006854 -0.0646885261 0.412888795
v -1.26006854 -0.000733146677 0.410096288
v 1.21289361 -0.0481757708 0.0147269433
v 1.21289361 0.0158710089 0.0352040082
v 1.2386539 0.00826480892 0.417243332
v 1.2386539 -0.0557825826 0.415845931
v -1.24633908 0.0142015452 -0.338314056
v 1.21289349 0.0195335764 -0.341766357
v 1.23710001 0.00451114634 -0.7134161
v -1.25307786 -0.000978660537 -0.711282492
v -1.25307786 -0.0649340451 -0.71407479
v -1.24633908 -0.0497544482 -0.341106415
v -1.24633908 0.0142015452 -0.338314056
v -1.25307786 -0.000978660537 -0.711282492
v 1.21289349 -0.0444219597 -0.33897385
v 1.23710024 -0.0594448447 -0.710623741
v 1.23710001 0.00451114634 -0.7134161
v 1.21289349 0.0195335764 -0.341766357
v -1.24540234 -0.000978507916 0.0354875922
v 1.21289361 0.0158710089 0.0352040082
v 1.21289349 0.0195335764 -0.341766357
v -1.24633908 0.0142015452 -0.338314056
v -1.24633908 -0.0497544482 -0.341106415
v 1.21289349 -0.0444219597 -0.33897385
v 1.21289361 -0.0481757708 0.0147269433
v -1.24540234 -0.0649338886 0.0326953866
v -1.21443284 -0.04975399 -1.09180725
v -1.25307786 -0.0649340451 -0.71407479
v -1.25307786 -0.000978660537 -0.711282492
v -1.21443248 0.0142020034 -1.08901477
v 1.23710024 -0.0594448447 -0.710623741
v 1.19279826 -0.0665343851 -1.09904659
v 1.19279826 -0.00273052207 -1.09225976
v 1.23710001 0.00451114634 -0.7134161
v -1.23896623 -0.0640780255 1.16154158
v -1.23896623 3.81469718E-08 1.16154158
v -1.23160982 0.0139563363 0.779360175
v -1.23160982 -0.0499996543 0.782152534
v 1.20922554 0.0233267583 1.1587044
v 1.20922554 -0.0404766463 1.16288614
v 1.21360123 -0.0632378757 0.788541853
v 1.21360123 0.000565986615 0.784360051
v -1.26006854 -0.000733146677 0.410096288
v -1.23160982 0.0139563363 0.779360175
v 1.21360123 0.000565986615 0.784360051
v 1.2386539 0.00826480892 0.417243332
v -1.26006854 -0.0646885261 0.412888795
v 1.2386539 -0.0557825826 0.415845931
v 1.21360123 -0.0632378757 0.788541853
v -1.23160982 -0.0499996543 0.782152534
v -1.23160982 0.0139563363 0.779360175
v -1.26006854 -0.000733146677 0.410096288
v -1.26006854 -0.0646885261 0.412888795
v -1.23160982 -0.0499996543 0.782152534
v 1.2386539 0.00826480892 0.417243332
v 1.21360123 0.000565986615 0.784360051
v 1.21360123 -0.0632378757 0.788541853
v 1.2386539 -0.0557825826 0.415845931
v -1.2327038 -5.72204556E-07 1.51873755
v 1.23317516 -5.72204556E-07 1.51873732
v 1.20922554 0.0233267583 1.1587044
v -1.23896623 3.81469718E-08 1.16154158
v -1.23896623 -0.0640780255 1.16154158
v 1.20922554 -0.0404766463 1.16288614
v 1.23317528 -0.0640778691 1.51873732
v -1.2327038 -0.0640786365 1.51873755
v -1.2327038 -5.72204556E-07 1.51873755
v -1.23896623 3.81469718E-08 1.16154158
v -1.23896623 -0.0640780255 1.16154158
v -1.2327038 -0.0640786365 1.51873755
v 1.23317528 -0.0640778691 1.51873732
v 1.23317516 -5.72204556E-07 1.51873732
v -1.2327038 -5.72204556E-07 1.51873755
v -1.2327038 -0.0640786365 1.51873755
v 1.20922554 0.0233267583 1.1587044
v 1.23317516 -5.72204556E-07 1.51873732
v 1.23317528 -0.0640778691 1.51873732
v 1.20922554 -0.0404766463 1.16288614
v -1.25307786 -0.0649340451 -0.71407479
v -1.21443284 -0.04975399 -1.09180725
v 1.19279826 -0.0665343851 -1.09904659
v 1.23710024 -0.0594448447 -0.710623741
v -1.21443248 0.0142020034 -1.08901477
v -1.25307786 -0.000978660537 -0.711282492
v 1.23710001 0.00451114634 -0.7134161
v 1.19279826 -0.00273052207 -1.09225976
v 1.21289361 -0.0481757708 0.0147269433
v 1.2386539 -0.0557825826 0.415845931
v -1.26006854 -0.0646885261 0.412888795
v -1.24540234 -0.0649338886 0.0326953866
v 1.2386539 0.00826480892 0.417243332
v 1.21289361 0.0158710089 0.0352040082
v -1.24540234 -0.000978507916 0.0354875922
v -1.26006854 -0.000733146677 0.410096288
v 1.21289349 -0.0444219597 -0.33897385
v -1.24633908 -0.0497544482 -0.341106415
v -1.25307786 -0.0649340451 -0.71407479
v 1.23710024 -0.0594448447 -0.710623741
v 1.21360123 0.000565986615 0.784360051
v -1.23160982 0.0139563363 0.779360175
v -1.23896623 3.81469718E-08 1.16154158
v 1.20922554 0.0233267583 1.1587044
v 1.21360123 -0.0632378757 0.788541853
v 1.20922554 -0.0404766463 1.16288614
v -1.23896623 -0.0640780255 1.16154158
v -1.23160982 -0.0499996543 0.782152534
v -1.13928819 -0.06407772 -1.44411898
v 1.14247847 -0.0249343477 -1.45617211
v 1.19279826 -0.0665343851 -1.09904659
v -1.21443284 -0.04975399 -1.09180725
v -1.21443248 0.0142020034 -1.08901477
v 1.19279826 -0.00273052207 -1.09225976
v 1.14247847 0.0385947041 -1.44780838
v -1.13928783 -4.19616697E-07 -1.44411874
v -1.13928819 -0.06407772 -1.44411898
v -1.21443284 -0.04975399 -1.09180725
v -1.21443248 0.0142020034 -1.08901477
v -1.13928783 -4.19616697E-07 -1.44411874
v 1.14247847 0.0385947041 -1.44780838
v 1.14247847 -0.0249343477 -1.45617211
v -1.13928819 -0.06407772 -1.44411898
v -1.13928783 -4.19616697E-07 -1.44411874
v 1.19279826 -0.0665343851 -1.09904659
v 1.14247847 -0.0249343477 -1.45617211
v 1.14247847 0.0385947041 -1.44780838
v 1.19279826 -0.00273052207 -1.09225976
vn 1 -6.10349275E-07 2.38130428E-06
vn 1 -6.10349218E-07 2.38130451E-06
vn 1 -6.10349275E-07 2.38130428E-06
vn 1 -6.10349218E-07 2.38130451E-06
vn -1.85574336E-07 1 -1.19065294E-06
vn -1.85574322E-07 1 -1.19065294E-06
vn -1.85574322E-07 1 -1.19065294E-06
vn -1.85574294E-07 1 -1.19065294E-06
vn -1 0 -2.38130497E-06
vn -1 0 -2.38130519E-06
vn -1 0 -2.38130497E-06
vn -1 0 -2.38130497E-06
vn 0 -1 0
vn 0 -1 0
vn 0 -1 0
vn 0 -1 0
vn 3.62864995E-07 -1.90734809E-07 -1
vn 3.6286491E-07 -1.90734809E-07 -1
vn 3.62864967E-07 -1.90734809E-07 -1
vn 3.62864995E-07 -1.90734823E-07 -1
vn -3.73220672E-07 2.24112895E-07 1
vn -3.73220672E-07 2.24112895E-07 1
vn -3.73220701E-07 2.24112924E-07 1
vn -3.73220672E-07 2.24112895E-07 1
vn 1 0 -2.54313193E-07
vn 1 0 -2.54313193E-07
vn 1 0 -2.54313193E-07
vn 1 0 -2.54313193E-07
vn -1 0 2.54313221E-07
vn -1 0 2.54313221E-07
vn -1 0 2.54313221E-07
vn -1 0 2.54313221E-07
vn 0 0 -1
vn 0 0 -1
vn 0 0 -1
vn 0 0 -1
vn 0 1 0
vn 0 1 0
vn 0 1 0
vn 0 1 0
vn -4.76260766E-06 0 1
vn -4.76260766E-06 0 1
vn -4.76260766E-06 0 1
vn -4.76260766E-06 0 1
vn 0 -1 1.01725284E-07
vn 0 -1 1.01725284E-07
vn 0 -1 1.01725291E-07
vn 0 -1 1.01725284E-07
vn 1 -3.05174893E-07 1.1906518E-06
vn 1 -3.05174893E-07 1.1906518E-06
vn 1 -3.05174893E-07 1.1906518E-06
vn 1 -3.05174893E-07 1.1906518E-06
vn -1.85574279E-07 1 -1.19065339E-06
vn -1.85574265E-07 1 -1.19065339E-06
vn -1.85574279E-07 1 -1.19065339E-06
vn -1.85574265E-07 1 -1.19065339E-06
vn -1 -3.05175661E-07 -1.1906526E-06
vn -1 -3.05175632E-07 -1.1906526E-06
vn -1 -3.05175632E-07 -1.1906526E-06
vn -1 -3.05175661E-07 -1.1906526E-06
vn 0 -1 0
vn 0 -1 0
vn 0 -1 0
vn 0 -1 0
vn 3.97660159E-07 0 -1
vn 3.97660102E-07 0 -1
vn 3.97660159E-07 0 -1
vn 3.97660159E-07 0 -1
vn -4.24170935E-07 3.05174893E-07 1
vn -4.24170935E-07 3.05174893E-07 1
vn -4.24170963E-07 3.05174922E-07 1
vn -4.24170935E-07 3.05174893E-07 1
vn 0.831470788 0 0.555568516
vn 0.195089787 0 0.98078537
vn 0.195090413 0 0.980785251
vn 0.831470132 0 0.555569589
vn 0.98078537 0 -0.195089996
vn 0.980785251 0 -0.195090547
vn 0.555571198 1.2447245E-07 -0.831469059
vn 0.555571139 1.24472436E-07 -0.831469059
vn -0.195091203 1.12531019E-07 -0.980785131
vn -0.195089355 1.12531112E-07 -0.980785429
vn -0.831469119 0 -0.555571079
vn -0.831469774 0 -0.555569947
vn -0.980785668 0 0.195088521
vn -0.980785251 0 0.195090368
vn -0.555571258 0 0.83146894
vn -0.555571198 0 0.83146894
vn 0.195090413 0 0.980785251
vn 0.195089787 0 0.98078537
vn 0.83147043 0 0.555568933
vn 0.195089892 0 0.98078537
vn 0.195090115 0 0.98078537
vn 0.831469893 0 0.555569887
vn 0.980785429 0 -0.195089623
vn 0.98078537 0 -0.195089981
vn 0.555569947 1.11605772E-07 -0.831469774
vn 0.555568695 1.11605779E-07 -0.831470609
vn -0.195092976 0 -0.980784774
vn -0.195092767 0 -0.980784774
vn -0.831469178 0 -0.555570781
vn -0.831469059 0 -0.555571198
vn -0.980785668 0 0.195088476
vn -0.980785668 0 0.195088521
vn -0.555571318 0 0.83146888
vn -0.555571318 0 0.83146888
vn 0.195090115 0 0.98078537
vn 0.195089892 0 0.98078537
vn 1 2.96045897E-07 -2.28881902E-07
vn 1 2.96045897E-07 -2.28881902E-07
vn 1 2.96045897E-07 -2.28881902E-07
vn 1 2.96045926E-07 -2.2888193E-07
vn -1 -2.96045926E-07 2.2888193E-07
vn -1 -2.96045897E-07 2.28881902E-07
vn -1 -2.96045897E-07 2.28881902E-07
vn -1 -2.96045897E-07 2.28881902E-07
vn 5.95326014E-07 0 -1
vn 5.95326014E-07 0 -1
vn 5.95326014E-07 0 -1
vn 5.95326014E-07 0 -1
vn 0 1 1.52587944E-07
vn 0 1 1.52587944E-07
vn 0 1 1.52587958E-07
vn 0 1 1.52587944E-07
vn 0 0 1
vn 0 0 1
vn 0 0 1
vn 0 0 1
vn 0 -1 1.01725298E-07
vn 0 -1 1.01725306E-07
vn 0 -1 1.01725298E-07
vn 0 -1 1.01725298E-07
vn 0.407637596 0.679444909 -0.610070646
vn -0.143145368 0.679441452 -0.719630957
vn -0.101016708 0.855501175 -0.50785166
vn 0.287673801 0.855500996 -0.430536836
vn -1.00294073E-06 1 1.74791353E-06
vn 0.719621301 0.679453373 -0.14313741
vn -0.430533826 0.855502009 -0.287675112
vn -0.610072255 0.679446042 -0.407633394
vn 0.507843673 0.855505586 -0.101019777
vn 0.610056698 0.679460764 0.407631993
vn -0.507843375 0.855506539 0.10101331
vn -0.719615936 0.679458022 0.143142298
vn 0.43052578 0.855508506 0.287667692
vn 0.143138677 0.679468513 0.719606757
vn -0.287667692 0.85551095 0.430521101
vn -0.407621831 0.679469407 0.610053957
vn 0.101015031 0.855510235 0.507836819
vn 0.407637954 0.679446697 -0.610068381
vn -0.14314422 0.679442465 -0.719630241
vn -0.101016536 0.855501652 -0.507850826
vn 0.287673831 0.855501235 -0.430536062
vn 2.92926217E-07 1 1.46764478E-06
vn 0.719621837 0.679453075 -0.143136263
vn -0.43053326 0.855502188 -0.287675351
vn -0.610072613 0.679446518 -0.407631844
vn 0.507844448 0.855505168 -0.101019196
vn 0.610058129 0.679459035 0.407632798
vn -0.507842898 0.855506718 0.101013571
vn -0.719616234 0.679457664 0.14314279
vn 0.430528313 0.855507374 0.287667513
vn 0.143141031 0.679468095 0.719606698
vn -0.287666947 0.855510652 0.430522025
vn -0.407622814 0.679469049 0.610053599
vn 0.101015776 0.855510235 0.507836759
vn -1 0 0
vn -1 0 0
vn -1 0 0
vn -1 0 0
vn 1 0 0
vn 1 0 0
vn 1 0 0
vn 1 0 0
vn 0 0.996090114 0.0883431286
vn 0 0.996090114 0.0883431286
vn 0 0.996090114 0.088343136
vn 0 0.996090114 0.088343136
vn -7.32517265E-07 -0.996200383 -0.0870910287
vn -7.32517265E-07 -0.996200383 -0.0870910212
vn -7.32517265E-07 -0.996200383 -0.0870910287
vn -7.32517265E-07 -0.996200383 -0.0870910212
vn 7.26521421E-07 0.0871552601 -0.99619472
vn 7.26521364E-07 0.0871552527 -0.99619472
vn 7.26521421E-07 0.0871552601 -0.99619472
vn 7.26521364E-07 0.0871552527 -0.99619472
vn 0 -0.0871558636 0.99619472
vn 0 -0.0871558636 0.99619472
vn 0 -0.0871558636 0.99619472
vn 0 -0.0871558636 0.99619472
vn -1 -5.80670644E-07 0
vn -1 -5.80670644E-07 0
vn -1 -5.80670644E-07 0
vn -1 -5.80670644E-07 0
vn 1 0 -1.25795111E-07
vn 1 0 -1.25795111E-07
vn 1 0 -1.25795111E-07
vn 1 0 -1.25795111E-07
vn 0 0.965616524 0.259970605
vn 0 0.965616524 0.259970635
vn 0 0.965616524 0.259970605
vn 0 0.965616524 0.259970605
vn 0 -0.965942502 -0.258756697
vn 0 -0.965942502 -0.258756727
vn 0 -0.965942502 -0.258756697
vn 0 -0.965942502 -0.258756727
vn 0 0.258819431 -0.965925694
vn 0 0.258819431 -0.965925694
vn 0 0.258819431 -0.965925694
vn 0 0.258819431 -0.965925694
vn 0 -0.258819342 0.965925694
vn 0 -0.258819342 0.965925694
vn 0 -0.258819342 0.965925694
vn 0 -0.258819342 0.965925694
vn -0.999829292 -5.3854008E-05 -0.0184760671
vn -0.999949098 -0.000439965108 0.0100770434
vn -0.999944687 -0.000458909053 0.0105109364
vn -0.999840617 -5.5497334E-05 -0.0178536195
vn 0.999452651 0.00144375104 0.0330513716
vn 0.999221683 0.00663992018 -0.0388825685
vn 0.999635458 0.00454476196 -0.0266136024
vn 0.999490976 0.00139227952 0.0318729877
vn -0.999829292 -5.3854008E-05 -0.0184760671
vn -0.999840617 -5.5497334E-05 -0.0178536195
vn -0.999801695 0.00170269236 0.0198432952
vn -0.999834418 0.00165268627 0.0181182679
vn 0.999635458 0.00454476196 -0.0266136024
vn 0.999221683 0.00663992018 -0.0388825685
vn 0.999979377 0.00633212039 0.00115017721
vn 0.999979377 0.00634357613 0.000993057736
vn -0.00335579156 0.999962926 -0.00793135818
vn -0.00333826896 0.999958873 -0.00844062585
vn 2.01663934E-05 0.999880075 -0.0154871494
vn -6.11819405E-06 0.999875546 -0.0157802589
vn -0.999049604 0.00190248271 -0.0435452163
vn -0.999944687 -0.000458909053 0.0105109364
vn -0.999949098 -0.000439965108 0.0100770434
vn -0.99919039 0.00175609323 -0.040193893
vn 0.999490976 0.00139227952 0.0318729877
vn 0.999701202 0.00322152721 -0.0242298003
vn 0.99966085 0.00322829653 -0.02583896
vn 0.999452651 0.00144375104 0.0330513716
vn -0.00486331899 0.999837399 0.0173610095
vn -0.00486670248 0.999838591 0.0172908492
vn -0.00333826896 0.999958873 -0.00844062585
vn -0.00335579156 0.999962926 -0.00793135818
vn 0.00326667423 -0.999966383 0.00751728797
vn 0.00325232395 -0.999963284 0.00793868583
vn 0.00440685498 -0.99965167 -0.0260216128
vn 0.00440685544 -0.99965167 -0.0260216128
vn -0.987677753 0.00449766684 -0.156436458
vn -0.999049604 0.00190248271 -0.0435452163
vn -0.99919039 0.00175609323 -0.040193893
vn -0.988133132 0.00449486077 -0.153533846
vn 0.999701202 0.00322152721 -0.0242298003
vn 0.991874516 0.0102438265 -0.126807123
vn 0.991986513 0.00977756269 -0.125965208
vn 0.99966085 0.00322829653 -0.02583896
vn -0.999999762 -0.000208316342 -0.000680790399
vn -0.999999404 -0.000213256062 -0.00111267227
vn -0.999547541 0.00151722529 0.0300388299
vn -0.999621987 0.00141590962 0.0274584275
vn 0.999664307 -0.000646490254 -0.0258983094
vn 0.999570668 -0.000773803855 -0.0292885117
vn 0.999245882 0.0011076536 0.038814608
vn 0.999181807 0.00112809148 0.040427126
vn -0.00220225705 0.999997616 0.000292661774
vn -0.000528781849 0.999944091 -0.0105621684
vn -0.000521900423 0.99994421 -0.0105570806
vn -0.00215316401 0.999997735 0.000138318981
vn 0.00216765213 -0.999997735 -5.47549234E-07
vn 0.0021276616 -0.999997735 0.000126825864
vn 0.000567803276 -0.999943376 0.0106315687
vn 0.000573363563 -0.999943256 0.0106349094
vn -0.999547541 0.00151722529 0.0300388299
vn -0.999834418 0.00165268627 0.0181182679
vn -0.999801695 0.00170269236 0.0198432952
vn -0.999621987 0.00141590962 0.0274584275
vn 0.999979377 0.00633212039 0.00115017721
vn 0.999181807 0.00112809148 0.040427126
vn 0.999245882 0.0011076536 0.038814608
vn 0.999979377 0.00634357613 0.000993057736
vn -0.00472544692 0.999453843 0.0327063799
vn -0.00472544692 0.999453843 0.0327063799
vn -0.00339811994 0.999935031 0.0108818747
vn -0.00337808998 0.999938607 0.0105526997
vn 0.00345572294 -0.999934912 -0.0108773811
vn 0.00347899855 -0.999930501 -0.0112624848
vn 0.00480935955 -0.999434292 -0.0332850181
vn 0.00480936002 -0.999434292 -0.0332850181
vn -0.999846339 0 0.0175293013
vn -0.999999404 -0.000213256062 -0.00111267227
vn -0.999999762 -0.000208316342 -0.000680790399
vn -0.999846339 0 0.0175293032
vn 1.23759435E-07 0 1
vn 1.23759435E-07 0 1
vn 1.23759435E-07 0 1
vn 1.23759435E-07 0 1
vn 0.999664307 -0.000646490254 -0.0258983094
vn 0.997757137 -0.0021865929 -0.0669026002
vn 0.997757137 -0.00218659267 -0.0669025853
vn 0.999570668 -0.000773803855 -0.0292885117
vn -2.76364462E-05 -0.999876618 0.0157085564
vn 0.000784739095 -0.999736249 -0.0229501035
vn 0.00087272469 -0.999728024 -0.0233024191
vn -4.86997851E-05 -0.999880433 0.0154667282
vn -0.000750113861 0.999739468 0.0228111148
vn -6.11819405E-06 0.999875546 -0.0157802589
vn 2.01663934E-05 0.999880075 -0.0154871494
vn -0.000824839866 0.999732554 0.0231086332
vn 0.00514826458 -0.999941707 -0.00949445553
vn 0.0021276616 -0.999997735 0.000126825864
vn 0.00216765213 -0.999997735 -5.47549234E-07
vn 0.00514826458 -0.999941707 -0.00949445553
vn -0.00215316401 0.999997735 0.000138318981
vn -0.00486670248 0.999838591 0.0172908492
vn -0.00486331899 0.999837399 0.0173610095
vn -0.00220225705 0.999997616 0.000292661774
vn 0.00325232395 -0.999963284 0.00793868583
vn 0.00326667423 -0.999966383 0.00751728797
vn -2.76364462E-05 -0.999876618 0.0157085564
vn -4.86997851E-05 -0.999880433 0.0154667282
vn -0.000521900423 0.99994421 -0.0105570806
vn -0.000528781849 0.999944091 -0.0105621684
vn -0.00337808998 0.999938607 0.0105526997
vn -0.00339811994 0.999935031 0.0108818747
vn 0.000567803276 -0.999943376 0.0106315687
vn 0.00347899855 -0.999930501 -0.0112624848
vn 0.00345572294 -0.999934912 -0.0108773811
vn 0.000573363563 -0.999943256 0.0106349094
vn 0.0046082926 -0.999257267 -0.03825799
vn 0.00460829353 -0.999257267 -0.0382579938
vn 0.00087272469 -0.999728024 -0.0233024191
vn 0.000784739095 -0.999736249 -0.0229501035
vn -0.000750113861 0.999739468 0.0228111148
vn -0.000824839866 0.999732554 0.0231086332
vn -0.00456033042 0.999268115 0.0379788056
vn -0.00456033088 0.999268115 0.0379788093
vn -0.978121758 0.00454119407 -0.207983524
vn -0.987677753 0.00449766684 -0.156436458
vn -0.988133132 0.00449486077 -0.153533846
vn -0.978121758 0.00454119407 -0.207983524
vn -0.00455642864 0.0654039606 -0.997848511
vn -0.00455642818 0.0654039532 -0.997848511
vn -0.00455642818 0.0654039532 -0.997848511
vn -0.00455642818 0.0654039532 -0.997848511
vn 0.991874516 0.0102438265 -0.126807123
vn 0.990305185 0.0164121408 -0.13793534
vn 0.990305185 0.0164121408 -0.13793534
vn 0.991986513 0.00977756269 -0.125965208
vt 0.189610764 0.165119335
vt 0.0488983989 0.165119335
vt 0.0488983989 0.132598251
vt 0.189610764 0.132598251
vt -0.000869326293 0.917298079
vt 2.40263844 0.917298079
vt 2.40263844 0.999231398
vt -0.000869326293 0.999231398
vt 0.0488983989 0.132598251
vt 0.189610764 0.132598251
vt 0.189610764 0.165119335
vt 0.0488983989 0.165119335
vt -0.000869326293 0.917298079
vt 2.40263844 0.917298079
vt 2.40263844 0.999231398
vt -0.000869326293 0.999231398
vt 1.24439669 0.759047747
vt 1.24439669 0.914284348
vt 5.35056461E-05 0.914284348
vt 5.35056461E-05 0.759047747
vt 1.24439669 0.759047747
vt 1.24439669 0.914284348
vt 5.35056461E-05 0.914284348
vt 5.35056461E-05 0.759047747
vt 0.787218451 0.750887394
vt -1.13398552 0.750887394
vt -1.13398552 0.915926218
vt 0.787218451 0.915926218
vt 0.787218451 0.750887394
vt -1.13398552 0.750887394
vt -1.13398552 0.915926218
vt 0.787218451 0.915926218
vt 0.219480053 0.143694162
vt 0.211101815 0.0300354362
vt 0.182841763 0.0321186781
vt 0.191219971 0.145777404
vt -1.67901254 0.999620676
vt 2.05200958 0.999620676
vt 2.05200958 0.919926882
vt -1.67901254 0.919926882
vt 0.18127124 0.0287049115
vt 0.186120972 0.142568737
vt 0.214432821 0.141362876
vt 0.209583178 0.0274990499
vt 2.05200958 0.919926882
vt -1.67901254 0.919926882
vt -1.67901254 0.999620676
vt 2.05200958 0.999620676
vt 0.189610764 0.165119335
vt 0.0488983989 0.165119335
vt 0.0488983989 0.132598251
vt 0.189610764 0.132598251
vt -0.000869326293 0.917298079
vt 2.40263844 0.917298079
vt 2.40263844 0.999231398
vt -0.000869326293 0.999231398
vt 0.0488983989 0.132598251
vt 0.189610764 0.132598251
vt 0.189610764 0.165119335
vt 0.0488983989 0.165119335
vt -0.000869326293 0.917298079
vt 2.40263844 0.917298079
vt 2.40263844 0.999231398
vt -0.000869326293 0.999231398
vt 1.24439669 0.759047747
vt 1.24439669 0.914284348
vt 5.35056461E-05 0.914284348
vt 5.35056461E-05 0.759047747
vt 1.24439669 0.759047747
vt 1.24439669 0.914284348
vt 5.35056461E-05 0.914284348
vt 5.35056461E-05 0.759047747
vt -5.0241847 0.213953853
vt 3.00239563 0.186306849
vt -5.0241847 0.186306864
vt 3.00239563 0.213953823
vt -5.0241847 0.250816494
vt 3.00239563 0.250816494
vt -5.0241847 0.287679195
vt 3.00239587 0.287679195
vt -5.0241847 0.324541867
vt 3.00239587 0.324541867
vt -5.0241847 0.361404568
vt 3.00239587 0.361404538
vt -5.0241847 0.398267269
vt 3.00239587 0.398267239
vt -5.0241847 0.435129911
vt 3.00239587 0.435129911
vt -5.0241847 0.471992582
vt 3.00239587 0.471992582
vt -5.0241847 0.213953853
vt 3.00239563 0.186306849
vt -5.0241847 0.186306864
vt 3.00239563 0.213953823
vt -5.0241847 0.250816494
vt 3.00239563 0.250816494
vt -5.0241847 0.287679195
vt 3.00239587 0.287679195
vt -5.0241847 0.324541867
vt 3.00239587 0.324541867
vt -5.0241847 0.361404568
vt 3.00239587 0.361404538
vt -5.0241847 0.398267269
vt 3.00239587 0.398267239
vt -5.0241847 0.435129911
vt 3.00239587 0.435129911
vt -5.0241847 0.471992582
vt 3.00239587 0.471992582
vt 0.787218451 0.750887394
vt -1.13398552 0.750887394
vt -1.13398552 0.915926218
vt 0.787218451 0.915926218
vt 0.787218451 0.750887394
vt -1.13398552 0.750887394
vt -1.13398552 0.915926218
vt 0.787218451 0.915926218
vt 0.219480053 0.143694162
vt 0.211101815 0.0300354362
vt 0.182841763 0.0321186781
vt 0.191219971 0.145777404
vt -1.67901254 0.999620676
vt 2.05200958 0.999620676
vt 2.05200958 0.919926882
vt -1.67901254 0.919926882
vt 0.18127124 0.0287049115
vt 0.186120972 0.142568737
vt 0.214432821 0.141362876
vt 0.209583178 0.0274990499
vt 2.05200958 0.919926882
vt -1.67901254 0.919926882
vt -1.67901254 0.999620676
vt 2.05200958 0.999620676
vt 0.384320647 0.12292067
vt 0.397267938 0.072287567
vt 0.383140385 0.0752981007
vt 0.372718245 0.116055995
vt 0.324830204 0.08443892
vt 0.336524308 0.150240973
vt 0.35940522 0.0396496505
vt 0.367781937 0.0280018561
vt 0.334243953 0.138047859
vt 0.281877577 0.138244584
vt 0.315416455 0.0299930181
vt 0.313135147 0.0160054825
vt 0.290255159 0.128391162
vt 0.252391517 0.0939588696
vt 0.276942134 0.0519848615
vt 0.265338868 0.0433257818
vt 0.266519994 0.0927427411
vt 0.384320647 0.12292067
vt 0.397267938 0.072287567
vt 0.383140385 0.0752981007
vt 0.372718245 0.116055995
vt 0.324830204 0.08443892
vt 0.336524308 0.150240973
vt 0.35940522 0.0396496505
vt 0.367781937 0.0280018561
vt 0.334243953 0.138047859
vt 0.281877577 0.138244584
vt 0.315416455 0.0299930181
vt 0.313135147 0.0160054825
vt 0.290255159 0.128391162
vt 0.252391517 0.0939588696
vt 0.276942134 0.0519848615
vt 0.265338868 0.0433257818
vt 0.266519994 0.0927427411
vt 0.878063142 0.0210858546
vt 0.875559747 0.790731728
vt 0.926474214 0.79136616
vt 0.926849842 0.0220313109
vt 0.987587512 0.0200891122
vt 0.937130392 0.0219386034
vt 0.939324617 0.791230977
vt 0.989661634 0.791488528
vt 0.864812613 0.0213749018
vt 0.862073183 0.790269136
vt 0.875559747 0.790731728
vt 0.878063142 0.0210858546
vt 0.939324617 0.791230977
vt 0.937130392 0.0219386034
vt 0.926849842 0.0220313109
vt 0.926474214 0.79136616
vt 0.939324617 0.791230977
vt 0.926474214 0.79136616
vt 0.875559747 0.790731728
vt 0.862073183 0.790269136
vt 0.987587512 0.0200891122
vt 0.880679727 0.0236925893
vt 0.926849842 0.0220313109
vt 0.930733979 0.00894791167
vt 0.878063142 0.0210858546
vt 0.875559747 0.790731728
vt 0.926474214 0.79136616
vt 0.926849842 0.0220313109
vt 0.987587512 0.0200891122
vt 0.937130392 0.0219386034
vt 0.939324617 0.791230977
vt 0.989661634 0.791488528
vt 0.864812613 0.0213749018
vt 0.862073183 0.790269136
vt 0.875559747 0.790731728
vt 0.878063142 0.0210858546
vt 0.939324617 0.791230977
vt 0.937130392 0.0219386034
vt 0.926849842 0.0220313109
vt 0.926474214 0.79136616
vt 0.939324617 0.791230977
vt 0.926474214 0.79136616
vt 0.875559747 0.790731728
vt 0.862073183 0.790269136
vt 0.987587512 0.0200891122
vt 0.880679727 0.0236925893
vt 0.926849842 0.0220313109
vt 0.930733979 0.00894791167
vt 0.000334882177 0.374554425
vt 0.00396071933 0.470145613
vt 0.0303972587 0.470101714
vt 0.034155339 0.377066195
vt 0.824026227 0.467302769
vt 0.82953006 0.376651078
vt 0.799753428 0.377066195
vt 0.7959342 0.470101714
vt 0.0140581448 0.221275851
vt 0.0462922975 0.222324908
vt 0.0478905663 0.123550609
vt 0.0111521501 0.1225079
vt 0.806709945 0.222324908
vt 0.841067314 0.221878752
vt 0.841335893 0.125529557
vt 0.800640762 0.123550609
vt 0.0370375402 0.599598229
vt 0.78671968 0.599598229
vt 0.783945441 0.502094984
vt 0.0668166429 0.502094984
vt 0.0419270098 0.71809411
vt 0.0345222279 0.625678658
vt 0.00713453908 0.624505103
vt 0.0148962736 0.717824876
vt 0.786894321 0.625678658
vt 0.796466231 0.721613169
vt 0.824668944 0.718885958
vt 0.825092793 0.628566146
vt 0.0360150151 0.350278229
vt 0.811328411 0.350278229
vt 0.800253749 0.251784831
vt 0.0416124724 0.251784831
vt 0.0303972587 0.470101714
vt 0.7959342 0.470101714
vt 0.799753428 0.377066195
vt 0.034155339 0.377066195
vt 0.000334882177 0.374554425
vt 0.00396071933 0.470145613
vt 0.0303972587 0.470101714
vt 0.034155339 0.377066195
vt 0.824026227 0.467302769
vt 0.82953006 0.376651078
vt 0.799753428 0.377066195
vt 0.7959342 0.470101714
vt 0.0140581448 0.221275851
vt 0.0462922975 0.222324908
vt 0.0478905663 0.123550609
vt 0.0111521501 0.1225079
vt 0.806709945 0.222324908
vt 0.841067314 0.221878752
vt 0.841335893 0.125529557
vt 0.800640762 0.123550609
vt 0.0329492912 0.876776814
vt 0.0426596068 0.970567465
vt 0.78944695 0.970567465
vt 0.789258361 0.876776814
vt 0.036377117 0.849050045
vt 0.788167477 0.849050045
vt 0.786632538 0.755424201
vt 0.044412192 0.755424201
vt 0.0426596068 0.970567465
vt 0.0329492912 0.876776814
vt 0.00509999599 0.870651543
vt 0.0125155048 0.984100461
vt 0.789258361 0.876776814
vt 0.78944695 0.970567465
vt 0.816557586 0.974933863
vt 0.818574548 0.8731879
vt 0.0419270098 0.71809411
vt 0.796466231 0.721613169
vt 0.786894321 0.625678658
vt 0.0345222279 0.625678658
vt 0.0370375402 0.599598229
vt 0.78671968 0.599598229
vt 0.783945441 0.502094984
vt 0.0668166429 0.502094984
vt 0.0419270098 0.71809411
vt 0.0345222279 0.625678658
vt 0.00713453908 0.624505103
vt 0.0148962736 0.717824876
vt 0.796839774 0.745371044
vt 0.796466231 0.721613169
vt 0.0419270098 0.71809411
vt 0.0444751903 0.745371044
vt 0.786894321 0.625678658
vt 0.796466231 0.721613169
vt 0.824668944 0.718885958
vt 0.825092793 0.628566146
vt 0.0416124724 0.251784831
vt 0.0360150151 0.350278229
vt 0.811328411 0.350278229
vt 0.800253749 0.251784831
vt 0.034155339 0.377066195
vt 0.0303972587 0.470101714
vt 0.7959342 0.470101714
vt 0.799753428 0.377066195
vt 0.806709945 0.222324908
vt 0.800640762 0.123550609
vt 0.0478905663 0.123550609
vt 0.0462922975 0.222324908
vt 0.806393743 0.0993501097
vt 0.806873322 0.00114294328
vt 0.0431381799 0.00114294328
vt 0.0435358696 0.0993501097
vt 0.786894321 0.625678658
vt 0.0345222279 0.625678658
vt 0.0419270098 0.71809411
vt 0.796466231 0.721613169
vt 0.800640762 0.123550609
vt 0.0478905663 0.123550609
vt 0.0462922975 0.222324908
vt 0.806709945 0.222324908
vt 0.806393743 0.0993501097
vt 0.806873322 0.00114294328
vt 0.0431381799 0.00114294328
vt 0.0435358696 0.0993501097
vt 0.0426596068 0.970567465
vt 0.78944695 0.970567465
vt 0.789258361 0.876776814
vt 0.0329492912 0.876776814
vt 0.036377117 0.849050045
vt 0.788167477 0.849050045
vt 0.786632538 0.755424201
vt 0.044412192 0.755424201
vt 0.0426596068 0.970567465
vt 0.0329492912 0.876776814
vt 0.00509999599 0.870651543
vt 0.0125155048 0.984100461
vt 0.788509727 0.997955084
vt 0.78944695 0.970567465
vt 0.0426596068 0.970567465
vt 0.0446948223 0.997955084
vt 0.789258361 0.876776814
vt 0.78944695 0.970567465
vt 0.816557586 0.974933863
vt 0.818574548 0.8731879
g submesh0
f 1/1/1 2/2/2 3/3/3
f 1/1/1 3/3/3 4/4/4
f 5/5/5 6/6/6 7/7/7
f 5/5/5 7/7/7 8/8/8
f 9/9/9 10/10/10 11/11/11
f 9/9/9 11/11/11 12/12/12
f 13/13/13 14/14/14 15/15/15
f 13/13/13 15/15/15 16/16/16
f 17/17/17 18/18/18 19/19/19
f 17/17/17 19/19/19 20/20/20
f 21/21/21 22/22/22 23/23/23
f 21/21/21 23/23/23 24/24/24
f 25/25/25 26/26/26 27/27/27
f 25/25/25 27/27/27 28/28/28
f 29/29/29 30/30/30 31/31/31
f 29/29/29 31/31/31 32/32/32
f 33/33/33 34/34/34 35/35/35
f 33/33/33 35/35/35 36/36/36
f 37/37/37 38/38/38 39/39/39
f 37/37/37 39/39/39 40/40/40
f 41/41/41 42/42/42 43/43/43
f 41/41/41 43/43/43 44/44/44
f 45/45/45 46/46/46 47/47/47
f 45/45/45 47/47/47 48/48/48
f 49/49/49 50/50/50 51/51/51
f 49/49/49 51/51/51 52/52/52
f 53/53/53 54/54/54 55/55/55
f 53/53/53 55/55/55 56/56/56
f 57/57/57 58/58/58 59/59/59
f 57/57/57 59/59/59 60/60/60
f 61/61/61 62/62/62 63/63/63
f 61/61/61 63/63/63 64/64/64
f 65/65/65 66/66/66 67/67/67
f 65/65/65 67/67/67 68/68/68
f 69/69/69 70/70/70 71/71/71
f 69/69/69 71/71/71 72/72/72
f 73/73/73 74/74/74 75/75/75
f 73/73/73 76/76/76 74/74/74
f 77/77/77 76/76/76 73/73/73
f 77/77/77 78/78/78 76/76/76
f 79/79/79 78/78/78 77/77/77
f 79/79/79 80/80/80 78/78/78
f 81/81/81 80/80/80 79/79/79
f 81/81/81 82/82/82 80/80/80
f 83/83/83 82/82/82 81/81/81
f 83/83/83 84/84/84 82/82/82
f 85/85/85 84/84/84 83/83/83
f 85/85/85 86/86/86 84/84/84
f 87/87/87 86/86/86 85/85/85
f 87/87/87 88/88/88 86/86/86
f 89/89/89 88/88/88 87/87/87
f 89/89/89 90/90/90 88/88/88
f 91/91/91 92/92/92 93/93/93
f 91/91/91 94/94/94 92/92/92
f 95/95/95 94/94/94 91/91/91
f 95/95/95 96/96/96 94/94/94
f 97/97/97 96/96/96 95/95/95
f 97/97/97 98/98/98 96/96/96
f 99/99/99 98/98/98 97/97/97
f 99/99/99 100/100/100 98/98/98
f 101/101/101 100/100/100 99/99/99
f 101/101/101 102/102/102 100/100/100
f 103/103/103 102/102/102 101/101/101
f 103/103/103 104/104/104 102/102/102
f 105/105/105 104/104/104 103/103/103
f 105/105/105 106/106/106 104/104/104
f 107/107/107 106/106/106 105/105/105
f 107/107/107 108/108/108 106/106/106
f 109/109/109 110/110/110 111/111/111
f 109/109/109 111/111/111 112/112/112
f 113/113/113 114/114/114 115/115/115
f 113/113/113 115/115/115 116/116/116
f 117/117/117 118/118/118 119/119/119
f 117/117/117 119/119/119 120/120/120
f 121/121/121 122/122/122 123/123/123
f 121/121/121 123/123/123 124/124/124
f 125/125/125 126/126/126 127/127/127
f 125/125/125 127/127/127 128/128/128
f 129/129/129 130/130/130 131/131/131
f 129/129/129 131/131/131 132/132/132
f 133/133/133 134/134/134 135/135/135
f 133/133/133 135/135/135 136/136/136
f 136/136/136 135/135/135 137/137/137
f 138/138/138 133/133/133 136/136/136
f 134/134/134 139/139/139 135/135/135
f 135/135/135 139/139/139 137/137/137
f 134/134/134 140/140/140 139/139/139
f 138/138/138 136/136/136 141/141/141
f 141/141/141 136/136/136 137/137/137
f 142/142/142 138/138/138 141/141/141
f 140/140/140 143/143/143 139/139/139
f 139/139/139 143/143/143 137/137/137
f 140/140/140 144/144/144 143/143/143
f 142/142/142 141/141/141 145/145/145
f 145/145/145 141/141/141 137/137/137
f 146/146/146 142/142/142 145/145/145
f 144/144/144 147/147/147 143/143/143
f 143/143/143 147/147/147 137/137/137
f 144/144/144 148/148/148 147/147/147
f 146/146/146 145/145/145 149/149/149
f 149/149/149 145/145/145 137/137/137
f 148/148/148 146/146/146 149/149/149
f 148/148/148 149/149/149 147/147/147
f 147/147/147 149/149/149 137/137/137
f 150/150/150 151/151/151 152/152/152
f 150/150/150 152/152/152 153/153/153
f 153/153/153 152/152/152 154/154/154
f 155/155/155 150/150/150 153/153/153
f 151/151/151 156/156/156 152/152/152
f 152/152/152 156/156/156 154/154/154
f 151/151/151 157/157/157 156/156/156
f 155/155/155 153/153/153 158/158/158
f 158/158/158 153/153/153 154/154/154
f 159/159/159 155/155/155 158/158/158
f 157/157/157 160/160/160 156/156/156
f 156/156/156 160/160/160 154/154/154
f 157/157/157 161/161/161 160/160/160
f 159/159/159 158/158/158 162/162/162
f 162/162/162 158/158/158 154/154/154
f 163/163/163 159/159/159 162/162/162
f 161/161/161 164/164/164 160/160/160
f 160/160/160 164/164/164 154/154/154
f 161/161/161 165/165/165 164/164/164
f 163/163/163 162/162/162 166/166/166
f 166/166/166 162/162/162 154/154/154
f 165/165/165 163/163/163 166/166/166
f 165/165/165 166/166/166 164/164/164
f 164/164/164 166/166/166 154/154/154
g submesh1
f 167/167/167 168/168/168 169/169/169
f 167/167/167 169/169/169 170/170/170
f 171/171/171 172/172/172 173/173/173
f 171/171/171 173/173/173 174/174/174
f 175/175/175 176/176/176 177/177/177
f 175/175/175 177/177/177 178/178/178
f 179/179/179 180/180/180 181/181/181
f 179/179/179 181/181/181 182/182/182
f 183/183/183 184/184/184 185/185/185
f 183/183/183 185/185/185 186/186/186
f 187/187/187 188/188/188 189/189/189
f 187/187/187 189/189/189 190/190/190
f 191/191/191 192/192/192 193/193/193
f 191/191/191 193/193/193 194/194/194
f 195/195/195 196/196/196 197/197/197
f 195/195/195 197/197/197 198/198/198
f 199/199/199 200/200/200 201/201/201
f 199/199/199 201/201/201 202/202/202
f 203/203/203 204/204/204 205/205/205
f 203/203/203 205/205/205 206/206/206
f 207/207/207 208/208/208 209/209/209
f 207/207/207 209/209/209 210/210/210
f 211/211/211 212/212/212 213/213/213
f 211/211/211 213/213/213 214/214/214
f 215/215/215 216/216/216 217/217/217
f 215/215/215 217/217/217 218/218/218
f 219/219/219 220/220/220 221/221/221
f 219/219/219 221/221/221 222/222/222
f 223/223/223 224/224/224 225/225/225
f 223/223/223 225/225/225 226/226/226
f 227/227/227 228/228/228 229/229/229
f 227/227/227 229/229/229 230/230/230
f 231/231/231 232/232/232 233/233/233
f 231/231/231 233/233/233 234/234/234
f 235/235/235 236/236/236 237/237/237
f 235/235/235 237/237/237 238/238/238
f 239/239/239 240/240/240 241/241/241
f 239/239/239 241/241/241 242/242/242
f 243/243/243 244/244/244 245/245/245
f 243/243/243 245/245/245 246/246/246
f 247/247/247 248/248/248 249/249/249
f 247/247/247 249/249/249 250/250/250
f 251/251/251 252/252/252 253/253/253
f 251/251/251 253/253/253 254/254/254
f 255/255/255 256/256/256 257/257/257
f 255/255/255 257/257/257 258/258/258
f 259/259/259 260/260/260 261/261/261
f 259/259/259 261/261/261 262/262/262
f 263/263/263 264/264/264 265/265/265
f 263/263/263 265/265/265 266/266/266
f 267/267/267 268/268/268 269/269/269
f 267/267/267 269/269/269 270/270/270
f 271/271/271 272/272/272 273/273/273
f 271/271/271 273/273/273 274/274/274
f 275/275/275 276/276/276 277/277/277
f 275/275/275 277/277/277 278/278/278
f 279/279/279 280/280/280 281/281/281
f 279/279/279 281/281/281 282/282/282
f 283/283/283 284/284/284 285/285/285
f 283/283/283 285/285/285 286/286/286
f 287/287/287 288/288/288 289/289/289
f 287/287/287 289/289/289 290/290/290
f 291/291/291 292/292/292 293/293/293
f 291/291/291 293/293/293 294/294/294
f 295/295/295 296/296/296 297/297/297
f 295/295/295 297/297/297 298/298/298
f 299/299/299 300/300/300 301/301/301
f 299/299/299 301/301/301 302/302/302
f 303/303/303 304/304/304 305/305/305
f 303/303/303 305/305/305 306/306/306
f 307/307/307 308/308/308 309/309/309
f 307/307/307 309/309/309 310/310/310
f 311/311/311 312/312/312 313/313/313
f 311/311/311 313/313/313 314/314/314
f 315/315/315 316/316/316 317/317/317
f 315/315/315 317/317/317 318/318/318
f 319/319/319 320/320/320 321/321/321
f 319/319/319 321/321/321 322/322/322
f 323/323/323 324/324/324 325/325/325
f 323/323/323 325/325/325 326/326/326
f 327/327/327 328/328/328 329/329/329
f 327/327/327 329/329/329 330/330/330
f 331/331/331 332/332/332 333/333/333
f 331/331/331 333/333/333 334/334/334
f 335/335/335 336/336/336 337/337/337
f 335/335/335 337/337/337 338/338/338
f 339/339/339 340/340/340 341/341/341
f 339/339/339 341/341/341 342/342/342
f 343/343/343 344/344/344 345/345/345
f 343/343/343 345/345/345 346/346/346
f 347/347/347 348/348/348 349/349/349
f 347/347/347 349/349/349 350/350/350
