# wooden_walkway_barrier_300_LOD0
v -2.99147463 0.292191803 0.0947640762
v -3.00011826 0.217717439 0.0465004854
v -2.95048404 0.248030841 0.0947640687
v -2.99147463 0.981474578 0.0465006158
v -3.00011826 1.05594897 0.0947642028
v -2.95048404 1.02563548 0.0465006158
v -2.99147463 0.292191803 0.0947640762
v -2.95048404 0.248030841 0.0947640687
v -2.87365651 0.217717439 0.0947640687
v -2.9751513 0.441140592 0.0947640985
v -2.86578608 0.515614927 0.0947641358
v -2.93096542 0.515614927 0.094764106
v -0.0569982901 0.515614569 0.094764106
v -0.0325033553 0.217717052 0.0947640687
v -0.01164917 0.350735515 0.0947640762
v 0.00281433109 0.481405467 0.0947640985
v -0.0025033569 0.238236457 0.0947640687
v -3.01075792 0.441140592 0.0465005226
v -2.95944595 0.515614927 0.0465005301
v -2.86587834 0.515614927 0.0465005562
v -2.90146899 0.217717439 0.0465004928
v -3.0151794 0.292191833 0.0465005003
v -3.00011826 0.217717439 0.0465004854
v -0.0325032026 0.217717052 0.0465004928
v -0.0569984429 0.515614569 0.0465005338
v -0.01164917 0.350735515 0.046500504
v -0.0025033569 0.238236457 0.0465004928
v 0.00281433109 0.481405467 0.0465005301
v -0.0025033569 0.238236457 0.0465004928
v -0.01164917 0.350735515 0.0947640762
v -0.0025033569 0.238236457 0.0947640687
v -0.01164917 0.350735515 0.046500504
v 0.00281433109 0.481405467 0.0947640985
v 0.00281433109 0.481405467 0.0465005301
v -2.86587834 0.515614927 0.0465005562
v -2.95944595 0.515614927 0.0465005301
v -2.93096542 0.515614927 0.094764106
v -2.86578608 0.515614927 0.0947641358
v -0.0569984429 0.515614569 0.0465005338
v -0.0569982901 0.515614569 0.094764106
v -2.87365651 0.217717439 0.0947640687
v -0.0325032026 0.217717052 0.0465004928
v -0.0325033553 0.217717052 0.0947640687
v -2.90146899 0.217717439 0.0465004928
v -2.95048404 0.248030841 0.0947640687
v -3.00011826 0.217717439 0.0465004854
v -0.0569982901 0.515614569 0.094764106
v 0.00281433109 0.481405467 0.0947640985
v 0.00281433109 0.481405467 0.0465005301
v -0.0569984429 0.515614569 0.0465005338
v -0.0325032026 0.217717052 0.0465004928
v -0.0025033569 0.238236457 0.0465004928
v -0.0025033569 0.238236457 0.0947640687
v -0.0325033553 0.217717052 0.0947640687
v -2.99147463 0.292191803 0.0947640762
v -3.0151794 0.292191833 0.0465005003
v -3.00011826 0.217717439 0.0465004854
v -3.01075792 0.441140592 0.0465005226
v -2.9751513 0.441140592 0.0947640985
v -2.95944595 0.515614927 0.0465005301
v -2.93096542 0.515614927 0.094764106
v -2.99147463 0.981474578 0.0465006158
v -2.95048404 1.02563548 0.0465006158
v -2.87365651 1.05594897 0.0465006195
v -2.9751513 0.83252579 0.0465006046
v -2.86578608 0.758051455 0.0465005785
v -2.93096542 0.758051455 0.0465006046
v -0.0569982901 0.758051753 0.0465006009
v -0.0325033553 1.05594933 0.0465006195
v -0.01164917 0.922930896 0.0465006158
v 0.00281433109 0.792260885 0.0465006046
v -0.0025033569 1.03542995 0.0465006195
v -3.01075792 0.83252579 0.0947641805
v -2.95944595 0.758051455 0.0947641805
v -2.86587834 0.758051455 0.0947641507
v -2.90146899 1.05594897 0.0947641954
v -3.0151794 0.981474578 0.0947641954
v -3.00011826 1.05594897 0.0947642028
v -0.0325032026 1.05594933 0.0947641954
v -0.0569984429 0.758051753 0.094764173
v -0.01164917 0.922930896 0.0947641954
v -0.0025033569 1.03542995 0.0947641954
v 0.00281433109 0.792260885 0.094764173
v -0.0025033569 1.03542995 0.0947641954
v -0.01164917 0.922930896 0.0465006158
v -0.0025033569 1.03542995 0.0465006195
v -0.01164917 0.922930896 0.0947641954
v 0.00281433109 0.792260885 0.0465006046
v 0.00281433109 0.792260885 0.094764173
v -2.86587834 0.758051455 0.0947641507
v -2.95944595 0.758051455 0.0947641805
v -2.93096542 0.758051455 0.0465006046
v -2.86578608 0.758051455 0.0465005785
v -0.0569984429 0.758051753 0.094764173
v -0.0569982901 0.758051753 0.0465006009
v -2.87365651 1.05594897 0.0465006195
v -0.0325032026 1.05594933 0.0947641954
v -0.0325033553 1.05594933 0.0465006195
v -2.90146899 1.05594897 0.0947641954
v -2.95048404 1.02563548 0.0465006158
v -3.00011826 1.05594897 0.0947642028
v -0.0569982901 0.758051753 0.0465006009
v 0.00281433109 0.792260885 0.0465006046
v 0.00281433109 0.792260885 0.094764173
v -0.0569984429 0.758051753 0.094764173
v -0.0325032026 1.05594933 0.0947641954
v -0.0025033569 1.03542995 0.0947641954
v -0.0025033569 1.03542995 0.0465006195
v -0.0325033553 1.05594933 0.0465006195
v -2.99147463 0.981474578 0.0465006158
v -3.0151794 0.981474578 0.0947641954
v -3.00011826 1.05594897 0.0947642028
v -3.01075792 0.83252579 0.0947641805
v -2.9751513 0.83252579 0.0465006046
v -2.95944595 0.758051455 0.0947641805
v -2.93096542 0.758051455 0.0465006046
v -2.92002106 0.742003441 0.0496110655
v -2.96489 0.741469085 0.0496110655
v -2.96489 0.741469085 0.0856819898
v -2.92002106 0.742003441 0.0856819972
v -0.091450043 0.735783994 0.0496110618
v -0.091450043 0.735783994 0.0856819898
v -0.0499130227 0.735545337 0.0496110618
v -0.0499130227 0.735545337 0.0856819898
v -0.091450043 0.541174233 0.049611032
v -0.0336114503 0.563900232 0.0496110395
v -0.0336114503 0.563900232 0.0856819674
v -0.091450043 0.541174233 0.08568196
v -2.92002106 0.540836573 0.049611032
v -2.92002106 0.540836573 0.08568196
v -2.95096135 0.546712875 0.049611032
v -2.95096135 0.546712875 0.08568196
v -2.98650289 0.597603202 0.0496110432
v -2.95096135 0.546712875 0.049611032
v -2.95096135 0.546712875 0.08568196
v -2.98650289 0.597603202 0.0856819674
v -2.99274659 0.657469988 0.0496110469
v -2.99274659 0.657469988 0.0856819823
v -2.96489 0.741469085 0.0496110655
v -2.96489 0.741469085 0.0856819898
v -0.0162910465 0.670239449 0.0496110506
v -0.0499130227 0.735545337 0.0496110618
v -0.0499130227 0.735545337 0.0856819898
v -0.0162910465 0.670239449 0.0856819823
v -0.0190080255 0.607215643 0.0496110432
v -0.0190080255 0.607215643 0.0856819674
v -0.0336114503 0.563900232 0.0496110395
v -0.0336114503 0.563900232 0.0856819674
v -0.091450043 0.735783994 0.0856819898
v -0.0162910465 0.670239449 0.0856819823
v -0.0499130227 0.735545337 0.0856819898
v -0.0190080255 0.607215643 0.0856819674
v -0.091450043 0.541174233 0.08568196
v -0.0336114503 0.563900232 0.0856819674
v -2.92002106 0.540836573 0.08568196
v -2.92002106 0.742003441 0.0856819972
v -2.98650289 0.597603202 0.0856819674
v -2.95096135 0.546712875 0.08568196
v -2.99274659 0.657469988 0.0856819823
v -2.96489 0.741469085 0.0856819898
v -0.0162910465 0.670239449 0.0496110506
v -0.091450043 0.735783994 0.0496110618
v -0.0499130227 0.735545337 0.0496110618
v -0.0190080255 0.607215643 0.0496110432
v -0.091450043 0.541174233 0.049611032
v -0.0336114503 0.563900232 0.0496110395
v -2.92002106 0.540836573 0.049611032
v -2.92002106 0.742003441 0.0496110655
v -2.99274659 0.657469988 0.0496110469
v -2.96489 0.741469085 0.0496110655
v -2.98650289 0.597603202 0.0496110432
v -2.95096135 0.546712875 0.049611032
v -2.92002106 1.06847572 0.0856820494
v -2.96489 1.06901002 0.0856820494
v -2.96489 1.06901002 0.0496111177
v -2.92002106 1.06847572 0.0496111177
v -0.091450043 1.07469523 0.0856820494
v -0.091450043 1.07469523 0.0496111177
v -0.0499130227 1.07493389 0.0856820494
v -0.0499130227 1.07493389 0.0496111177
v -0.091450043 1.26930499 0.0856820568
v -0.0336114503 1.24657905 0.0856820568
v -0.0336114503 1.24657905 0.0496111289
v -0.091450043 1.26930499 0.0496111326
v -2.92002106 1.26964271 0.0856820568
v -2.92002106 1.26964271 0.0496111326
v -2.95096135 1.26376641 0.0856820568
v -2.95096135 1.26376641 0.0496111326
v -2.98650289 1.21287608 0.0856820568
v -2.95096135 1.26376641 0.0856820568
v -2.95096135 1.26376641 0.0496111326
v -2.98650289 1.21287608 0.0496111289
v -2.99274659 1.1530093 0.0856820568
v -2.99274659 1.1530093 0.0496111289
v -2.96489 1.06901002 0.0856820494
v -2.96489 1.06901002 0.0496111177
v -0.0162910465 1.14023972 0.0856820494
v -0.0499130227 1.07493389 0.0856820494
v -0.0499130227 1.07493389 0.0496111177
v -0.0162910465 1.14023972 0.0496111177
v -0.0190080255 1.20326364 0.0856820568
v -0.0190080255 1.20326364 0.0496111289
v -0.0336114503 1.24657905 0.0856820568
v -0.0336114503 1.24657905 0.0496111289
v -0.091450043 1.07469523 0.0496111177
v -0.0162910465 1.14023972 0.0496111177
v -0.0499130227 1.07493389 0.0496111177
v -0.0190080255 1.20326364 0.0496111289
v -0.091450043 1.26930499 0.0496111326
v -0.0336114503 1.24657905 0.0496111289
v -2.92002106 1.26964271 0.0496111326
v -2.92002106 1.06847572 0.0496111177
v -2.98650289 1.21287608 0.0496111289
v -2.95096135 1.26376641 0.0496111326
v -2.99274659 1.1530093 0.0496111289
v -2.96489 1.06901002 0.0496111177
v -0.0162910465 1.14023972 0.0856820494
v -0.091450043 1.07469523 0.0856820494
v -0.0499130227 1.07493389 0.0856820494
v -0.0190080255 1.20326364 0.0856820568
v -0.091450043 1.26930499 0.0856820568
v -0.0336114503 1.24657905 0.0856820568
v -2.92002106 1.26964271 0.0856820568
v -2.92002106 1.06847572 0.0856820494
v -2.99274659 1.1530093 0.0856820568
v -2.96489 1.06901002 0.0856820494
v -2.98650289 1.21287608 0.0856820568
v -2.95096135 1.26376641 0.0856820568
v -2.88008595 -0.349797964 0.00785314105
v -2.88008595 1.31060529 0.00120988837
v -2.6198504 1.31060529 0.00120981212
v -2.6198504 -0.349797964 0.00785306934
v -2.6198504 -0.349797964 0.0537316203
v -2.6198504 1.31060541 0.047088366
v -2.88008595 1.31060517 0.0470884368
v -2.88008595 -0.349797964 0.0537317023
v -2.6198504 1.31060541 0.047088366
v -2.6198504 1.31060529 0.00120981212
v -2.88008595 1.31060529 0.00120988837
v -2.88008595 1.31060517 0.0470884368
v -2.6198504 1.31060529 0.00120981212
v -2.6198504 1.31060541 0.047088366
v -2.6198504 -0.349797964 0.0537316203
v -2.6198504 -0.349797964 0.00785306934
v -2.6198504 -0.349797964 0.00785306934
v -2.6198504 -0.349797964 0.0537316203
v -2.88008595 -0.349797964 0.0537317023
v -2.88008595 -0.349797964 0.00785314105
v -2.88008595 -0.349797964 0.00785314105
v -2.88008595 -0.349797964 0.0537317023
v -2.88008595 1.31060517 0.0470884368
v -2.88008595 1.31060529 0.00120988837
v -0.399897516 -0.349797964 0.00785582513
v -0.399897516 1.31060541 0.00121257303
v -0.139662012 1.31060529 0.00121250155
v -0.139662012 -0.349797964 0.00785575807
v -0.139662012 -0.349797964 0.0537343174
v -0.139662012 1.31060541 0.0470910557
v -0.399897516 1.31060529 0.0470911264
v -0.399897516 -0.349797815 0.0537343882
v -0.139662012 1.31060541 0.0470910557
v -0.139662012 1.31060529 0.00121250155
v -0.399897516 1.31060541 0.00121257303
v -0.399897516 1.31060529 0.0470911264
v -0.139662012 1.31060529 0.00121250155
v -0.139662012 1.31060541 0.0470910557
v -0.139662012 -0.349797964 0.0537343174
v -0.139662012 -0.349797964 0.00785575807
v -0.139662012 -0.349797964 0.00785575807
v -0.139662012 -0.349797964 0.0537343174
v -0.399897516 -0.349797815 0.0537343882
v -0.399897516 -0.349797964 0.00785582513
v -0.399897516 -0.349797964 0.00785582513
v -0.399897516 -0.349797815 0.0537343882
v -0.399897516 1.31060529 0.0470911264
v -0.399897516 1.31060541 0.00121257303
vn -0.473610789 -0.439611346 0.763174057
vn -0.473610848 -0.439611346 0.763174057
vn -0.473610789 -0.439611286 0.763174057
vn -0.473610759 0.439611435 -0.763173997
vn -0.473610759 0.439611435 -0.763173997
vn -0.473610759 0.439611435 -0.763173997
vn -1.32339977E-07 -1.96338945E-07 1
vn 0 -1.24924114E-07 1
vn 0 -1.92442542E-07 1
vn -1.99867131E-07 -1.47539524E-07 1
vn -1.32184184E-07 -1.30169738E-07 1
vn -4.75524416E-07 1.54075508E-07 1
vn 0 -1.75477965E-07 1
vn 0 -1.70376339E-07 1
vn 0 -1.39237656E-07 1
vn 0 -1.49724656E-07 1
vn 0 -1.40536045E-07 1
vn 1.45513937E-07 1.29322856E-07 -1
vn 3.31250817E-07 -1.64200799E-07 -1
vn 0 1.38280555E-07 -1
vn 0 1.94522187E-07 -1
vn 0 1.99780757E-07 -1
vn 0 2.01856238E-07 -1
vn 0 1.65625693E-07 -1
vn 0 1.81668128E-07 -1
vn -1.3412631E-07 1.37202377E-07 -1
vn -1.71411187E-07 1.34415387E-07 -1
vn 0 1.79894371E-07 -1
vn 0.996711731 0.0810294896 0
vn 0.999894023 -0.0145595418 0
vn 0.996711731 0.0810294896 0
vn 0.999894023 -0.0145595418 0
vn 0.993929863 -0.110015392 0
vn 0.993929863 -0.110015377 0
vn 0 1 0
vn 0 1 0
vn 0 1 0
vn 0 1 0
vn 1.32415451E-07 1 0
vn 1.32415451E-07 1 0
vn -0.0543960594 -0.988294601 0.142529771
vn -1.26931241E-07 -1 0
vn -1.26931241E-07 -1 0
vn -0.105986863 -0.954800606 0.277709454
vn -0.155464441 -0.899941862 0.407352
vn -0.155464455 -0.899941742 0.407351971
vn 0.496471882 0.868052781 -7.88616944E-07
vn 0.496471941 0.868052781 -7.88616944E-07
vn 0.496471882 0.868052781 -7.88616887E-07
vn 0.496471882 0.868052781 -7.88616944E-07
vn 0.564555407 -0.825395226 8.90232911E-07
vn 0.564555407 -0.825395226 8.90232911E-07
vn 0.564555407 -0.825395226 8.90232798E-07
vn 0.564555407 -0.825395226 8.90232911E-07
vn -0.869857669 -0.0326162055 0.492223382
vn -0.873613477 -0.0572480112 0.48324132
vn -0.883148849 -0.178602025 0.433761805
vn -0.818863511 0.244366214 0.519372523
vn -0.804841042 0.2946316 0.51519227
vn -0.734843493 0.4711411 0.487884343
vn -0.734843493 0.4711411 0.487884343
vn -1.15415226E-07 0 -1
vn 0 0 -1
vn 0 1.00268473E-07 -1
vn -1.85169938E-07 0 -1
vn -1.22275893E-07 0 -1
vn -4.38945563E-07 -1.96400251E-07 -1
vn 0 0 -1
vn 0 0 -1
vn 0 0 -1
vn 0 0 -1
vn 0 0 -1
vn 1.57853634E-07 0 1
vn 3.56731647E-07 2.45783866E-07 1
vn 0 0 1
vn 0 -1.11535471E-07 1
vn 0 -1.15724063E-07 1
vn 0 -1.37829318E-07 1
vn 0 0 1
vn 0 0 1
vn 0 0 1
vn -1.16482887E-07 0 1
vn 0 0 1
vn 0.996711731 -0.0810294226 0
vn 0.999894023 0.0145595707 0
vn 0.996711731 -0.0810294226 0
vn 0.999894023 0.0145595605 0
vn 0.993929863 0.11001537 0
vn 0.993929863 0.11001537 0
vn 0 -1 0
vn 0 -1 0
vn 0 -1 0
vn 0 -1 0
vn 1.2222965E-07 -1 0
vn 1.2222965E-07 -1 0
vn -0.0543960668 0.988294601 -0.142529771
vn -1.33611834E-07 1 0
vn -1.33611834E-07 1 0
vn -0.105986871 0.954800606 -0.277709454
vn -0.155464441 0.899941862 -0.407352
vn -0.155464455 0.899941742 -0.407351971
vn 0.496472001 -0.868052721 7.8861666E-07
vn 0.496472001 -0.868052721 7.8861666E-07
vn 0.496472001 -0.868052721 7.8861666E-07
vn 0.496472001 -0.868052721 7.88616717E-07
vn 0.564554036 0.825396121 -8.90233991E-07
vn 0.564553976 0.825396121 -8.90233878E-07
vn 0.564553976 0.825396121 -8.90233878E-07
vn 0.564553976 0.825396121 -8.90233991E-07
vn -0.869857669 0.0326161794 -0.492223501
vn -0.873613477 0.057248015 -0.483241379
vn -0.883148849 0.178602055 -0.433761835
vn -0.818863511 -0.244366258 -0.519372463
vn -0.804840982 -0.29463172 -0.51519227
vn -0.734843493 -0.471141279 -0.487884194
vn -0.734843493 -0.471141219 -0.487884194
vn -0.0048550074 0.999988198 0
vn -0.0119085731 0.99992907 0
vn -0.0119085731 0.99992907 0
vn -0.00485500647 0.999988198 0
vn 0.00397206796 0.999992132 0
vn 0.00397206796 0.999992132 0
vn 0.00574532105 0.999983549 0
vn 0.00574532105 0.999983549 0
vn 0.186161637 -0.98251915 0
vn 0.365703702 -0.930731356 0
vn 0.365703613 -0.930731356 0
vn 0.186161637 -0.98251915 0
vn -0.0936469957 -0.995605409 0
vn -0.0936469957 -0.995605409 0
vn -0.186588198 -0.982438266 0
vn -0.186588198 -0.982438266 0
vn -0.937025249 -0.349261612 0
vn -0.819849789 -0.572578609 0
vn -0.819849789 -0.572578609 0
vn -0.937025249 -0.349261582 0
vn -0.994157434 0.107939124 0
vn -0.994157434 0.107939161 0
vn -0.949166894 0.31477344 0
vn -0.949166894 0.31477344 0
vn 0.976723552 0.214501977 0
vn 0.889087975 0.457736373 0
vn 0.889087975 0.457736403 0
vn 0.976723552 0.214502007 0
vn 0.983096123 -0.183090076 0
vn 0.983096123 -0.183090076 0
vn 0.947595179 -0.319473535 0
vn 0.947595179 -0.319473475 0
vn 0 -1.63192951E-07 1
vn 0 -1.58400084E-07 1
vn 0 -1.64773212E-07 1
vn 0 -1.51881196E-07 1
vn 0 -1.58004667E-07 1
vn 0 -1.26579081E-07 1
vn 0 -1.60725364E-07 1
vn 0 -1.56932941E-07 1
vn 0 -1.6587326E-07 1
vn 0 -1.31018737E-07 1
vn 0 -1.63937955E-07 1
vn 0 -1.301905E-07 1
vn 0 1.47840296E-07 -1
vn 0 1.48975715E-07 -1
vn 0 1.46465084E-07 -1
vn 0 1.52720816E-07 -1
vn 0 1.52968639E-07 -1
vn 0 1.74322267E-07 -1
vn 0 1.55753497E-07 -1
vn 0 1.66658751E-07 -1
vn 0 1.43121781E-07 -1
vn 0 2.27967973E-07 -1
vn 0 1.37307367E-07 -1
vn 0 2.16055852E-07 -1
vn -0.0048550074 -0.999988198 0
vn -0.0119085731 -0.99992907 0
vn -0.0119085731 -0.99992907 0
vn -0.00485500647 -0.999988198 0
vn 0.00397206796 -0.999992132 0
vn 0.00397206796 -0.999992132 0
vn 0.00574532105 -0.999983549 0
vn 0.00574532105 -0.999983549 0
vn 0.186161637 0.98251915 0
vn 0.365703702 0.930731356 0
vn 0.365703613 0.930731356 0
vn 0.186161637 0.98251915 0
vn -0.0936469808 0.995605409 0
vn -0.0936469808 0.995605409 0
vn -0.186588198 0.982438266 0
vn -0.186588198 0.982438266 0
vn -0.937025249 0.349261552 0
vn -0.819849849 0.572578549 0
vn -0.819849849 0.57257849 0
vn -0.937025249 0.349261582 0
vn -0.994157434 -0.107939102 0
vn -0.994157434 -0.107939109 0
vn -0.949166894 -0.314773381 0
vn -0.949166894 -0.314773411 0
vn 0.976723552 -0.214501932 0
vn 0.889088035 -0.457736284 0
vn 0.889088035 -0.457736284 0
vn 0.976723552 -0.214501932 0
vn 0.983096123 0.183090106 0
vn 0.983096123 0.183090076 0
vn 0.947595179 0.319473565 0
vn 0.947595179 0.319473505 0
vn 0 0 -1
vn 0 0 -1
vn 0 0 -1
vn 0 0 -1
vn 0 0 -1
vn 0 1.10874993E-07 -1
vn 0 0 -1
vn 0 0 -1
vn 0 0 -1
vn 0 0 -1
vn 0 0 -1
vn 0 0 -1
vn 0 0 1
vn 0 0 1
vn 0 0 1
vn 0 0 1
vn 0 0 1
vn 0 0 1
vn 0 0 1
vn 0 0 1
vn 0 0 1
vn 0 -1.13983972E-07 1
vn 0 0 1
vn 0 0 1
vn -2.83829593E-07 -0.00400095619 -0.999992013
vn -2.83829593E-07 -0.00400095619 -0.999992013
vn -2.83829593E-07 -0.00400095619 -0.999992013
vn -2.83829593E-07 -0.00400095619 -0.999992013
vn 2.81843228E-07 0.00400096038 0.999992013
vn 2.81843228E-07 0.00400095992 0.999992013
vn 2.81843228E-07 0.00400095992 0.999992013
vn 2.81843228E-07 0.00400096038 0.999992013
vn -5.86345664E-07 1 0
vn -5.86345664E-07 1 0
vn -5.86345664E-07 1 0
vn -5.86345664E-07 1 0
vn 1 0 0
vn 1 0 0
vn 1 0 0
vn 1 0 0
vn 0 -1 0
vn 0 -1 0
vn 0 -1 0
vn 0 -1 0
vn -1 0 0
vn -1 0 0
vn -1 0 0
vn -1 0 0
vn -2.66614251E-07 -0.00400095619 -0.999992013
vn -2.66614251E-07 -0.00400095619 -0.999992013
vn -2.66614251E-07 -0.00400095619 -0.999992013
vn -2.66614251E-07 -0.00400095619 -0.999992013
vn 2.77208215E-07 0.00400096038 0.999992013
vn 2.77208215E-07 0.00400096038 0.999992013
vn 2.77208215E-07 0.00400096038 0.999992013
vn 2.77208215E-07 0.00400096038 0.999992013
vn 0 1 0
vn 0 1 0
vn 0 1 0
vn 0 1 0
vn 1 0 0
vn 1 0 0
vn 1 0 0
vn 1 0 0
vn -2.93172235E-07 -1 1.66295422E-06
vn -2.93172235E-07 -1 1.66295433E-06
vn -2.93172235E-07 -1 1.66295422E-06
vn -2.93172235E-07 -1 1.66295433E-06
vn -1 0 0
vn -1 0 0
vn -1 0 0
vn -1 0 0
vt 0.808168828 0.395375043
vt 0.830764532 0.368796945
vt 0.799222469 0.379140764
vt 0.808168828 0.395375043
vt 0.830764532 0.368796945
vt 0.799222469 0.379140764
vt 0.808168828 0.395375043
vt 0.799222469 0.379140764
vt 0.777502298 0.373367846
vt 0.804253995 0.444039464
vt 0.777281344 0.470172167
vt 0.795148015 0.469435424
vt 0.0449832939 0.470312774
vt 0.0356833339 0.373885989
vt 0.0295490585 0.417193651
vt 0.0284861363 0.462256163
vt 0.0269624237 0.377938479
vt 0.813777804 0.275591403
vt 0.80026716 0.251141816
vt 0.77580744 0.25121358
vt 0.785501778 0.349047124
vt 0.815283775 0.324757606
vt 0.811323702 0.34964788
vt 0.0360805541 0.349900961
vt 0.0416124687 0.252439559
vt 0.0294577759 0.307149082
vt 0.0270570498 0.347004712
vt 0.0258842874 0.263910085
vt 0.00100000005 0.380733222
vt 0.0295490585 0.417193651
vt 0.0269624237 0.377938479
vt 0.00337171834 0.417679429
vt 0.0284861363 0.462256163
vt 0.00246345089 0.460754961
vt 0.777453184 0.495934278
vt 0.802070916 0.495923787
vt 0.795148015 0.469435424
vt 0.777281344 0.470172167
vt 0.0422750376 0.495132506
vt 0.0449832939 0.470312774
vt 0.777502298 0.373367846
vt 0.0360805541 0.349900961
vt 0.0356833339 0.373885989
vt 0.785501778 0.349047124
vt 0.799222469 0.379140764
vt 0.811323702 0.34964788
vt 0.0449832939 0.470312774
vt 0.0284861363 0.462256163
vt 0.0220831875 0.489884228
vt 0.0422750376 0.495132506
vt 0.0360805541 0.349900961
vt 0.0270570498 0.347004712
vt 0.0269624237 0.377938479
vt 0.0356833339 0.373885989
vt 0.808168828 0.395375043
vt 0.834363103 0.395342141
vt 0.830764532 0.368796945
vt 0.831414461 0.446247339
vt 0.804253995 0.444039464
vt 0.822869122 0.473778188
vt 0.795148015 0.469435424
vt 0.808168828 0.395375043
vt 0.799222469 0.379140764
vt 0.777502298 0.373367846
vt 0.804253995 0.444039464
vt 0.777281344 0.470172167
vt 0.795148015 0.469435424
vt 0.0449832939 0.470312774
vt 0.0356833339 0.373885989
vt 0.0295490585 0.417193651
vt 0.0284861363 0.462256163
vt 0.0269624237 0.377938479
vt 0.813777804 0.275591403
vt 0.80026716 0.251141816
vt 0.77580744 0.25121358
vt 0.785501778 0.349047124
vt 0.815283775 0.324757606
vt 0.811323702 0.34964788
vt 0.0360805541 0.349900961
vt 0.0416124687 0.252439559
vt 0.0294577759 0.307149082
vt 0.0270570498 0.347004712
vt 0.0258842874 0.263910085
vt 0.00100000005 0.380733222
vt 0.0295490585 0.417193651
vt 0.0269624237 0.377938479
vt 0.00337171834 0.417679429
vt 0.0284861363 0.462256163
vt 0.00246345089 0.460754961
vt 0.777453184 0.495934278
vt 0.802070916 0.495923787
vt 0.795148015 0.469435424
vt 0.777281344 0.470172167
vt 0.0422750376 0.495132506
vt 0.0449832939 0.470312774
vt 0.777502298 0.373367846
vt 0.0360805541 0.349900961
vt 0.0356833339 0.373885989
vt 0.785501778 0.349047124
vt 0.799222469 0.379140764
vt 0.811323702 0.34964788
vt 0.0449832939 0.470312774
vt 0.0284861363 0.462256163
vt 0.0220831875 0.489884228
vt 0.0422750376 0.495132506
vt 0.0360805541 0.349900961
vt 0.0270570498 0.347004712
vt 0.0269624237 0.377938479
vt 0.0356833339 0.373885989
vt 0.808168828 0.395375043
vt 0.834363103 0.395342141
vt 0.830764532 0.368796945
vt 0.831414461 0.446247339
vt 0.804253995 0.444039464
vt 0.822869122 0.473778188
vt 0.795148015 0.469435424
vt 0.862065136 0.774658024
vt 0.862238228 0.786581933
vt 0.875058174 0.786801755
vt 0.874550581 0.774606943
vt 0.864367425 0.0357073434
vt 0.876791418 0.0359922871
vt 0.864801228 0.0245801099
vt 0.87773186 0.0245236047
vt 0.938619971 0.0367830507
vt 0.939767241 0.02098969
vt 0.924154699 0.0209881514
vt 0.927144825 0.0371291488
vt 0.938741386 0.774960518
vt 0.927055061 0.774933219
vt 0.939554751 0.78316319
vt 0.925943136 0.783713579
vt 0.914241195 0.802543581
vt 0.930310667 0.796350777
vt 0.925943136 0.783713579
vt 0.911499381 0.790761292
vt 0.896596372 0.804440856
vt 0.897064269 0.792377472
vt 0.872835636 0.799795449
vt 0.875058174 0.786801755
vt 0.894034743 0.00613023248
vt 0.874538898 0.0116262166
vt 0.87773186 0.0245236047
vt 0.895612717 0.0180224776
vt 0.912353754 0.00581041817
vt 0.911765218 0.0179715678
vt 0.925008237 0.00755381398
vt 0.924154699 0.0209881514
vt 0.876791418 0.0359922871
vt 0.895612717 0.0180224776
vt 0.87773186 0.0245236047
vt 0.911765218 0.0179715678
vt 0.927144825 0.0371291488
vt 0.924154699 0.0209881514
vt 0.927055061 0.774933219
vt 0.874550581 0.774606943
vt 0.911499381 0.790761292
vt 0.925943136 0.783713579
vt 0.897064269 0.792377472
vt 0.875058174 0.786801755
vt 0.970726252 0.0159080885
vt 0.988814831 0.0353306085
vt 0.988224208 0.0243021473
vt 0.952741086 0.0161314122
vt 0.938619971 0.0367830507
vt 0.939767241 0.02098969
vt 0.938741386 0.774960518
vt 0.991029322 0.77481252
vt 0.969003022 0.793855488
vt 0.990910351 0.786554754
vt 0.953317583 0.792303801
vt 0.939554751 0.78316319
vt 0.862065136 0.774658024
vt 0.862238228 0.786581933
vt 0.875058174 0.786801755
vt 0.874550581 0.774606943
vt 0.864367425 0.0357073434
vt 0.876791418 0.0359922871
vt 0.864801228 0.0245801099
vt 0.87773186 0.0245236047
vt 0.938619971 0.0367830507
vt 0.939767241 0.02098969
vt 0.924154699 0.0209881514
vt 0.927144825 0.0371291488
vt 0.938741386 0.774960518
vt 0.927055061 0.774933219
vt 0.939554751 0.78316319
vt 0.925943136 0.783713579
vt 0.914241195 0.802543581
vt 0.930310667 0.796350777
vt 0.925943136 0.783713579
vt 0.911499381 0.790761292
vt 0.896596372 0.804440856
vt 0.897064269 0.792377472
vt 0.872835636 0.799795449
vt 0.875058174 0.786801755
vt 0.894034743 0.00613023248
vt 0.874538898 0.0116262166
vt 0.87773186 0.0245236047
vt 0.895612717 0.0180224776
vt 0.912353754 0.00581041817
vt 0.911765218 0.0179715678
vt 0.925008237 0.00755381398
vt 0.924154699 0.0209881514
vt 0.876791418 0.0359922871
vt 0.895612717 0.0180224776
vt 0.87773186 0.0245236047
vt 0.911765218 0.0179715678
vt 0.927144825 0.0371291488
vt 0.924154699 0.0209881514
vt 0.927055061 0.774933219
vt 0.874550581 0.774606943
vt 0.911499381 0.790761292
vt 0.925943136 0.783713579
vt 0.897064269 0.792377472
vt 0.875058174 0.786801755
vt 0.970726252 0.0159080885
vt 0.988814831 0.0353306085
vt 0.988224208 0.0243021473
vt 0.952741086 0.0161314122
vt 0.938619971 0.0367830507
vt 0.939767241 0.02098969
vt 0.938741386 0.774960518
vt 0.991029322 0.77481252
vt 0.969003022 0.793855488
vt 0.990910351 0.786554754
vt 0.953317583 0.792303801
vt 0.939554751 0.78316319
vt 0.800640762 0.123550609
vt 0.0478905663 0.123550609
vt 0.0462922975 0.222324908
vt 0.806709945 0.222324908
vt 0.806873322 0.00114294328
vt 0.0431381799 0.00114294328
vt 0.0435358696 0.0993501097
vt 0.806393743 0.0993501097
vt 0.0140581448 0.221275851
vt 0.0462922975 0.222324908
vt 0.0478905663 0.123550609
vt 0.0111521501 0.1225079
vt 0.0462922975 0.222324908
vt 0.0462922975 0.246573985
vt 0.806425989 0.246573985
vt 0.806709945 0.222324908
vt 0.806709945 0.222324908
vt 0.841067314 0.221878752
vt 0.841335893 0.125529557
vt 0.800640762 0.123550609
vt 0.800640762 0.123550609
vt 0.806393743 0.0993501097
vt 0.0435358696 0.0993501097
vt 0.0478905663 0.123550609
vt 0.800640762 0.123550609
vt 0.0478905663 0.123550609
vt 0.0462922975 0.222324908
vt 0.806709945 0.222324908
vt 0.806873322 0.00114294328
vt 0.0431381799 0.00114294328
vt 0.0435358696 0.0993501097
vt 0.806393743 0.0993501097
vt 0.0140581448 0.221275851
vt 0.0462922975 0.222324908
vt 0.0478905663 0.123550609
vt 0.0111521501 0.1225079
vt 0.0462922975 0.222324908
vt 0.0462922975 0.246573985
vt 0.806425989 0.246573985
vt 0.806709945 0.222324908
vt 0.806709945 0.222324908
vt 0.841067314 0.221878752
vt 0.841335893 0.125529557
vt 0.800640762 0.123550609
vt 0.800640762 0.123550609
vt 0.806393743 0.0993501097
vt 0.0435358696 0.0993501097
vt 0.0478905663 0.123550609
g submesh0
f 1/1/1 2/2/2 3/3/3
f 4/4/4 5/5/5 6/6/6
f 7/7/7 8/8/8 9/9/9
f 9/9/9 10/10/10 7/7/7
f 9/9/9 11/11/11 10/10/10
f 10/10/10 11/11/11 12/12/12
f 9/9/9 13/13/13 11/11/11
f 9/9/9 14/14/14 13/13/13
f 15/15/15 13/13/13 14/14/14
f 15/15/15 16/16/16 13/13/13
f 15/15/15 14/14/14 17/17/17
f 18/18/18 19/19/19 20/20/20
f 21/21/21 18/18/18 20/20/20
f 21/21/21 22/22/22 18/18/18
f 22/22/22 21/21/21 23/23/23
f 20/20/20 24/24/24 21/21/21
f 20/20/20 25/25/25 24/24/24
f 26/26/26 24/24/24 25/25/25
f 26/26/26 27/27/27 24/24/24
f 26/26/26 25/25/25 28/28/28
f 29/29/29 30/30/30 31/31/31
f 29/29/29 32/32/32 30/30/30
f 32/32/32 33/33/33 30/30/30
f 32/32/32 34/34/34 33/33/33
f 35/35/35 36/36/36 37/37/37
f 35/35/35 37/37/37 38/38/38
f 38/38/38 39/39/39 35/35/35
f 38/38/38 40/40/40 39/39/39
f 41/41/41 42/42/42 43/43/43
f 41/41/41 44/44/44 42/42/42
f 45/45/45 44/44/44 41/41/41
f 45/45/45 46/46/46 44/44/44
f 47/47/47 48/48/48 49/49/49
f 47/47/47 49/49/49 50/50/50
f 51/51/51 52/52/52 53/53/53
f 51/51/51 53/53/53 54/54/54
f 55/55/55 56/56/56 57/57/57
f 58/58/58 56/56/56 55/55/55
f 58/58/58 55/55/55 59/59/59
f 59/59/59 60/60/60 58/58/58
f 59/59/59 61/61/61 60/60/60
f 62/62/62 63/63/63 64/64/64
f 64/64/64 65/65/65 62/62/62
f 64/64/64 66/66/66 65/65/65
f 65/65/65 66/66/66 67/67/67
f 64/64/64 68/68/68 66/66/66
f 64/64/64 69/69/69 68/68/68
f 70/70/70 68/68/68 69/69/69
f 70/70/70 71/71/71 68/68/68
f 70/70/70 69/69/69 72/72/72
f 73/73/73 74/74/74 75/75/75
f 76/76/76 73/73/73 75/75/75
f 76/76/76 77/77/77 73/73/73
f 77/77/77 76/76/76 78/78/78
f 75/75/75 79/79/79 76/76/76
f 75/75/75 80/80/80 79/79/79
f 81/81/81 79/79/79 80/80/80
f 81/81/81 82/82/82 79/79/79
f 81/81/81 80/80/80 83/83/83
f 84/84/84 85/85/85 86/86/86
f 84/84/84 87/87/87 85/85/85
f 87/87/87 88/88/88 85/85/85
f 87/87/87 89/89/89 88/88/88
f 90/90/90 91/91/91 92/92/92
f 90/90/90 92/92/92 93/93/93
f 93/93/93 94/94/94 90/90/90
f 93/93/93 95/95/95 94/94/94
f 96/96/96 97/97/97 98/98/98
f 96/96/96 99/99/99 97/97/97
f 100/100/100 99/99/99 96/96/96
f 100/100/100 101/101/101 99/99/99
f 102/102/102 103/103/103 104/104/104
f 102/102/102 104/104/104 105/105/105
f 106/106/106 107/107/107 108/108/108
f 106/106/106 108/108/108 109/109/109
f 110/110/110 111/111/111 112/112/112
f 113/113/113 111/111/111 110/110/110
f 113/113/113 110/110/110 114/114/114
f 114/114/114 115/115/115 113/113/113
f 114/114/114 116/116/116 115/115/115
f 117/117/117 118/118/118 119/119/119
f 117/117/117 119/119/119 120/120/120
f 121/121/121 117/117/117 120/120/120
f 121/121/121 120/120/120 122/122/122
f 122/122/122 123/123/123 121/121/121
f 122/122/122 124/124/124 123/123/123
f 125/125/125 126/126/126 127/127/127
f 125/125/125 127/127/127 128/128/128
f 129/129/129 125/125/125 128/128/128
f 129/129/129 128/128/128 130/130/130
f 130/130/130 131/131/131 129/129/129
f 130/130/130 132/132/132 131/131/131
f 133/133/133 134/134/134 135/135/135
f 133/133/133 135/135/135 136/136/136
f 137/137/137 133/133/133 136/136/136
f 137/137/137 136/136/136 138/138/138
f 138/138/138 139/139/139 137/137/137
f 138/138/138 140/140/140 139/139/139
f 141/141/141 142/142/142 143/143/143
f 141/141/141 143/143/143 144/144/144
f 145/145/145 141/141/141 144/144/144
f 145/145/145 144/144/144 146/146/146
f 146/146/146 147/147/147 145/145/145
f 146/146/146 148/148/148 147/147/147
f 149/149/149 150/150/150 151/151/151
f 152/152/152 150/150/150 149/149/149
f 152/152/152 149/149/149 153/153/153
f 152/152/152 153/153/153 154/154/154
f 149/149/149 155/155/155 153/153/153
f 149/149/149 156/156/156 155/155/155
f 156/156/156 157/157/157 155/155/155
f 155/155/155 157/157/157 158/158/158
f 156/156/156 159/159/159 157/157/157
f 159/159/159 156/156/156 160/160/160
f 161/161/161 162/162/162 163/163/163
f 162/162/162 161/161/161 164/164/164
f 162/162/162 164/164/164 165/165/165
f 165/165/165 164/164/164 166/166/166
f 162/162/162 165/165/165 167/167/167
f 162/162/162 167/167/167 168/168/168
f 167/167/167 169/169/169 168/168/168
f 168/168/168 169/169/169 170/170/170
f 167/167/167 171/171/171 169/169/169
f 171/171/171 167/167/167 172/172/172
f 173/173/173 174/174/174 175/175/175
f 173/173/173 175/175/175 176/176/176
f 177/177/177 173/173/173 176/176/176
f 177/177/177 176/176/176 178/178/178
f 178/178/178 179/179/179 177/177/177
f 178/178/178 180/180/180 179/179/179
f 181/181/181 182/182/182 183/183/183
f 181/181/181 183/183/183 184/184/184
f 185/185/185 181/181/181 184/184/184
f 185/185/185 184/184/184 186/186/186
f 186/186/186 187/187/187 185/185/185
f 186/186/186 188/188/188 187/187/187
f 189/189/189 190/190/190 191/191/191
f 189/189/189 191/191/191 192/192/192
f 193/193/193 189/189/189 192/192/192
f 193/193/193 192/192/192 194/194/194
f 194/194/194 195/195/195 193/193/193
f 194/194/194 196/196/196 195/195/195
f 197/197/197 198/198/198 199/199/199
f 197/197/197 199/199/199 200/200/200
f 201/201/201 197/197/197 200/200/200
f 201/201/201 200/200/200 202/202/202
f 202/202/202 203/203/203 201/201/201
f 202/202/202 204/204/204 203/203/203
f 205/205/205 206/206/206 207/207/207
f 208/208/208 206/206/206 205/205/205
f 208/208/208 205/205/205 209/209/209
f 208/208/208 209/209/209 210/210/210
f 205/205/205 211/211/211 209/209/209
f 205/205/205 212/212/212 211/211/211
f 212/212/212 213/213/213 211/211/211
f 211/211/211 213/213/213 214/214/214
f 212/212/212 215/215/215 213/213/213
f 215/215/215 212/212/212 216/216/216
f 217/217/217 218/218/218 219/219/219
f 218/218/218 217/217/217 220/220/220
f 218/218/218 220/220/220 221/221/221
f 221/221/221 220/220/220 222/222/222
f 218/218/218 221/221/221 223/223/223
f 218/218/218 223/223/223 224/224/224
f 223/223/223 225/225/225 224/224/224
f 224/224/224 225/225/225 226/226/226
f 223/223/223 227/227/227 225/225/225
f 227/227/227 223/223/223 228/228/228
f 229/229/229 230/230/230 231/231/231
f 229/229/229 231/231/231 232/232/232
f 233/233/233 234/234/234 235/235/235
f 233/233/233 235/235/235 236/236/236
f 237/237/237 238/238/238 239/239/239
f 237/237/237 239/239/239 240/240/240
f 241/241/241 242/242/242 243/243/243
f 241/241/241 243/243/243 244/244/244
f 245/245/245 246/246/246 247/247/247
f 245/245/245 247/247/247 248/248/248
f 249/249/249 250/250/250 251/251/251
f 249/249/249 251/251/251 252/252/252
f 253/253/253 254/254/254 255/255/255
f 253/253/253 255/255/255 256/256/256
f 257/257/257 258/258/258 259/259/259
f 257/257/257 259/259/259 260/260/260
f 261/261/261 262/262/262 263/263/263
f 261/261/261 263/263/263 264/264/264
f 265/265/265 266/266/266 267/267/267
f 265/265/265 267/267/267 268/268/268
f 269/269/269 270/270/270 271/271/271
f 269/269/269 271/271/271 272/272/272
f 273/273/273 274/274/274 275/275/275
f 273/273/273 275/275/275 276/276/276
