# wooden_walkway_large_300_COL
v -1.31813824 -0.0846999884 -1.48186517
v 1.27094376 -0.0846999884 -1.48186517
v 1.27094376 -0.0846999884 1.53742671
v -1.31813824 -0.0846999884 1.53742671
v 1.35471845 0.157943115 -1.18522656
v 1.35606122 -18.8120003 -1.18321526
v 1.39391303 -18.8120003 -1.37350953
v 1.39190233 0.157941893 -1.37216675
v 1.20361865 -18.8120003 -1.41136229
v 1.20496309 0.157943726 -1.40934861
v 1.16576672 -18.8120003 -1.22106814
v 1.16777968 0.157943115 -1.22241104
v 1.35606122 -18.8120003 -1.18321526
v 1.35471845 0.157943115 -1.18522656
v 1.35471845 0.157943115 -1.18522656
v 1.39190233 0.157941893 -1.37216675
v -1.2033422 0.157943726 -1.18522692
v -1.20199966 -18.8119984 -1.18321526
v -1.1641469 -18.8119984 -1.37350953
v -1.16615844 0.157942504 -1.37216651
v -1.35444224 -18.8119984 -1.41136229
v -1.35309827 0.157944337 -1.4093492
v -1.39229381 -18.8119984 -1.22106683
v -1.39028084 0.157943726 -1.22241068
v -1.20199966 -18.8119984 -1.18321526
v -1.2033422 0.157943726 -1.18522692
v -1.2033422 0.157943726 -1.18522692
v -1.16615844 0.157942504 -1.37216651
v 1.41971564 -0.311998904 -1.11949551
v 1.41971564 -0.5619995 -1.11949539
v 1.41971564 -0.5619995 -1.18357277
v 1.419716 -0.311998904 -1.18357301
v 1.419716 -0.311998904 -1.18357301
v -1.45814097 -0.3119995 -1.18357408
v -1.45814097 -0.3119995 -1.11949658
v 1.41971564 -0.311998904 -1.11949551
v -1.45814097 -0.5619995 -1.11949646
v -1.45814097 -0.3119995 -1.11949658
v -1.45814097 -0.3119995 -1.18357408
v -1.45814097 -0.562000096 -1.18357384
v 1.41971564 -0.5619995 -1.11949539
v -1.45814097 -0.5619995 -1.11949646
v -1.45814097 -0.562000096 -1.18357384
v 1.41971564 -0.5619995 -1.18357277
v -1.45814097 -0.562000096 -1.18357384
v -1.45814097 -0.3119995 -1.18357408
v 1.419716 -0.311998904 -1.18357301
v 1.41971564 -0.5619995 -1.18357277
v -1.45814097 -0.3119995 -1.11949658
v -1.45814097 -0.5619995 -1.11949646
v 1.41971564 -0.5619995 -1.11949539
v 1.41971564 -0.311998904 -1.11949551
v -1.40391064 -0.686025977 -1.5335952
v -1.40391064 -0.550989389 -1.52178109
v -1.40391028 -0.861511827 1.9794476
v -1.40391028 -0.992147207 1.96801841
v -1.46080244 -0.992147207 1.96801841
v -1.40391028 -0.992147207 1.96801841
v -1.46080244 -0.861511827 1.9794476
v -1.46080267 -0.686025977 -1.5335952
v -1.46080244 -0.861511827 1.9794476
v -1.46080267 -0.550989389 -1.52178109
v -1.40391064 -0.550989389 -1.52178109
v -1.40391028 -0.861511827 1.9794476
v -0.993553877 -0.0582238771 -1.49999976
v -0.993553162 -0.0582232662 1.49999964
v -0.993553162 -0.315933228 1.5
v -0.993553877 -0.315934449 -1.49999964
v -1.05763137 -0.315934449 -1.49999964
v -1.05763054 -0.315933228 1.49999964
v -1.05763054 -0.0582232662 1.4999994
v -1.05763137 -0.0582238771 -1.49999976
v -1.05763137 -0.315934449 -1.49999964
v -1.05763137 -0.0582238771 -1.49999976
v -0.993553877 -0.0582238771 -1.49999976
v -0.993553877 -0.315934449 -1.49999964
v -0.993553162 -0.0582232662 1.49999964
v -0.993553877 -0.0582238771 -1.49999976
v -1.05763137 -0.0582238771 -1.49999976
v -1.05763054 -0.0582232662 1.4999994
v -1.05763054 -0.0582232662 1.4999994
v -1.05763054 -0.315933228 1.49999964
v -0.993553162 -0.315933228 1.5
v -0.993553162 -0.0582232662 1.49999964
v -0.993553877 -0.315934449 -1.49999964
v -0.993553162 -0.315933228 1.5
v -1.05763054 -0.315933228 1.49999964
v -1.05763137 -0.315934449 -1.49999964
v 1.41971564 -0.311998904 -1.43791211
v 1.41971564 -0.5619995 -1.43791199
v 1.41971564 -0.562000096 -1.50198936
v 1.41971588 -0.311998904 -1.5019896
v 1.41971588 -0.311998904 -1.5019896
v -1.45814133 -0.3119995 -1.5019908
v -1.45814157 -0.3119995 -1.4379133
v 1.41971564 -0.311998904 -1.43791211
v -1.45814133 -0.562000096 -1.43791318
v -1.45814157 -0.3119995 -1.4379133
v -1.45814133 -0.3119995 -1.5019908
v -1.45814133 -0.562000096 -1.50199068
v 1.41971564 -0.5619995 -1.43791199
v -1.45814133 -0.562000096 -1.43791318
v -1.45814133 -0.562000096 -1.50199068
v 1.41971564 -0.562000096 -1.50198936
v -1.45814133 -0.562000096 -1.50199068
v -1.45814133 -0.3119995 -1.5019908
v 1.41971588 -0.311998904 -1.5019896
v 1.41971564 -0.562000096 -1.50198936
v -1.45814157 -0.3119995 -1.4379133
v -1.45814133 -0.562000096 -1.43791318
v 1.41971564 -0.5619995 -1.43791199
v 1.41971564 -0.311998904 -1.43791211
v 1.47011721 -0.17026794 -1.49180472
v 1.47011721 -0.0393341035 -1.45672119
v 1.47011757 -0.953121901 1.93739223
v 1.47011757 -1.07978821 1.90345216
v 1.41322553 -1.07978821 1.90345216
v 1.47011757 -1.07978821 1.90345216
v 1.41322541 -0.953121901 1.93739223
v 1.41322505 -0.17026794 -1.49180472
v 1.41322541 -0.953121901 1.93739223
v 1.41322505 -0.0393341035 -1.45672119
v 1.47011721 -0.0393341035 -1.45672119
v 1.47011757 -0.953121901 1.93739223
v 1.05556726 -0.0582238771 -1.5
v 1.0555681 -0.0582232662 1.49999905
v 1.0555681 -0.315932602 1.4999994
v 1.0555675 -0.315933824 -1.49999976
v 0.991490006 -0.315933824 -1.49999976
v 0.991490602 -0.315932602 1.4999994
v 0.991490602 -0.0582232662 1.49999905
v 0.991489828 -0.0582238771 -1.5
v 0.991490006 -0.315933824 -1.49999976
v 0.991489828 -0.0582238771 -1.5
v 1.05556726 -0.0582238771 -1.5
v 1.0555675 -0.315933824 -1.49999976
v 1.0555681 -0.0582232662 1.49999905
v 1.05556726 -0.0582238771 -1.5
v 0.991489828 -0.0582238771 -1.5
v 0.991490602 -0.0582232662 1.49999905
v 0.991490602 -0.0582232662 1.49999905
v 0.991490602 -0.315932602 1.4999994
v 1.0555681 -0.315932602 1.4999994
v 1.0555681 -0.0582232662 1.49999905
v 1.0555675 -0.315933824 -1.49999976
v 1.0555681 -0.315932602 1.4999994
v 0.991490602 -0.315932602 1.4999994
v 0.991490006 -0.315933824 -1.49999976
v -1.31813824 1.21433585E-09 -1.48186517
v -1.31813824 -0.0846999884 -1.48186517
v -1.31813824 -0.0846999884 1.53742671
v 1.27094376 1.21433585E-09 -1.48186517
v 1.27094376 -0.0846999884 -1.48186517
v 1.27094376 1.21433552E-09 1.53742671
v 1.27094376 -0.0846999884 1.53742671
v -1.31813824 1.21433552E-09 1.53742671
vt 1 1
vt 0 1
vt 0 0
vt 1 0
vt 0.0135774119 0.34126687
vt 0.0134409256 0.557194471
vt 0.0182836652 0.557196617
vt 0.0183348879 0.341269016
vt 0.0231018011 0.557197094
vt 0.0231166296 0.341269493
vt 0.0278960131 0.557197571
vt 0.0278983694 0.341270208
vt 0.0327141508 0.557198048
vt 0.0326801091 0.341270447
vt 0.0278872494 0.33668232
vt 0.0231301077 0.336681128
vt 0.0135774119 0.34126687
vt 0.0134409256 0.557194471
vt 0.0182836652 0.557196617
vt 0.0183348879 0.341269016
vt 0.0231018011 0.557197094
vt 0.0231166296 0.341269493
vt 0.0278960131 0.557197571
vt 0.0278983694 0.341270208
vt 0.0327141508 0.557198048
vt 0.0326801091 0.341270447
vt 0.0278872494 0.33668232
vt 0.0231301077 0.336681128
vt 0.0488983989 0.132598251
vt 0.189610764 0.132598251
vt 0.189610764 0.165119335
vt 0.0488983989 0.165119335
vt 2.40263844 0.999231398
vt -0.000869326293 0.999231398
vt -0.000869326293 0.917298079
vt 2.40263844 0.917298079
vt 0.189610764 0.165119335
vt 0.0488983989 0.165119335
vt 0.0488983989 0.132598251
vt 0.189610764 0.132598251
vt 2.40263844 0.999231398
vt -0.000869326293 0.999231398
vt -0.000869326293 0.917298079
vt 2.40263844 0.917298079
vt 5.35056461E-05 0.914284348
vt 5.35056461E-05 0.759047747
vt 1.24439669 0.759047747
vt 1.24439669 0.914284348
vt 5.35056461E-05 0.914284348
vt 5.35056461E-05 0.759047747
vt 1.24439669 0.759047747
vt 1.24439669 0.914284348
vt 0.939324617 0.791230977
vt 0.989661634 0.791488528
vt 0.987587512 0.0200891122
vt 0.937130392 0.0219386034
vt 0.926849842 0.0220313109
vt 0.930733979 0.00894791167
vt 0.880679727 0.0236925893
vt 0.926474214 0.79136616
vt 0.878063142 0.0210858546
vt 0.875559747 0.790731728
vt 0.862073183 0.790269136
vt 0.864812613 0.0213749018
vt -1.13398552 0.915926218
vt 0.787218451 0.915926218
vt 0.787218451 0.750887394
vt -1.13398552 0.750887394
vt -1.13398552 0.915926218
vt 0.787218451 0.915926218
vt 0.787218451 0.750887394
vt -1.13398552 0.750887394
vt 0.182841763 0.0321186781
vt 0.191219971 0.145777404
vt 0.219480053 0.143694162
vt 0.211101815 0.0300354362
vt 2.05200958 0.919926882
vt -1.67901254 0.919926882
vt -1.67901254 0.999620676
vt 2.05200958 0.999620676
vt 0.214432821 0.141362876
vt 0.209583178 0.0274990499
vt 0.18127124 0.0287049115
vt 0.186120972 0.142568737
vt -1.67901254 0.999620676
vt 2.05200958 0.999620676
vt 2.05200958 0.919926882
vt -1.67901254 0.919926882
vt 0.0488983989 0.132598251
vt 0.189610764 0.132598251
vt 0.189610764 0.165119335
vt 0.0488983989 0.165119335
vt 2.40263844 0.999231398
vt -0.000869326293 0.999231398
vt -0.000869326293 0.917298079
vt 2.40263844 0.917298079
vt 0.189610764 0.165119335
vt 0.0488983989 0.165119335
vt 0.0488983989 0.132598251
vt 0.189610764 0.132598251
vt 2.40263844 0.999231398
vt -0.000869326293 0.999231398
vt -0.000869326293 0.917298079
vt 2.40263844 0.917298079
vt 5.35056461E-05 0.914284348
vt 5.35056461E-05 0.759047747
vt 1.24439669 0.759047747
vt 1.24439669 0.914284348
vt 5.35056461E-05 0.914284348
vt 5.35056461E-05 0.759047747
vt 1.24439669 0.759047747
vt 1.24439669 0.914284348
vt 0.939324617 0.791230977
vt 0.989661634 0.791488528
vt 0.987587512 0.0200891122
vt 0.937130392 0.0219386034
vt 0.926849842 0.0220313109
vt 0.930733979 0.00894791167
vt 0.880679727 0.0236925893
vt 0.926474214 0.79136616
vt 0.878063142 0.0210858546
vt 0.875559747 0.790731728
vt 0.862073183 0.790269136
vt 0.864812613 0.0213749018
vt -1.13398552 0.915926218
vt 0.787218451 0.915926218
vt 0.787218451 0.750887394
vt -1.13398552 0.750887394
vt -1.13398552 0.915926218
vt 0.787218451 0.915926218
vt 0.787218451 0.750887394
vt -1.13398552 0.750887394
vt 0.182841763 0.0321186781
vt 0.191219971 0.145777404
vt 0.219480053 0.143694162
vt 0.211101815 0.0300354362
vt 2.05200958 0.919926882
vt -1.67901254 0.919926882
vt -1.67901254 0.999620676
vt 2.05200958 0.999620676
vt 0.214432821 0.141362876
vt 0.209583178 0.0274990499
vt 0.18127124 0.0287049115
vt 0.186120972 0.142568737
vt -1.67901254 0.999620676
vt 2.05200958 0.999620676
vt 2.05200958 0.919926882
vt -1.67901254 0.919926882
vt 1 1
vt 1.04999995 1.04999995
vt 1.04999995 -0.0500000007
vt 0 1
vt -0.0500000007 1.04999995
vt 0 0
vt -0.0500000007 -0.0500000007
vt 1 0
g submesh0
f 1/1 2/2 3/3
f 1/1 3/3 4/4
f 5/5 6/6 7/7
f 5/5 7/7 8/8
f 8/8 7/7 9/9
f 8/8 9/9 10/10
f 10/10 9/9 11/11
f 10/10 11/11 12/12
f 12/12 11/11 13/13
f 12/12 13/13 14/14
f 10/10 12/12 15/15
f 10/10 15/15 16/16
f 17/17 18/18 19/19
f 17/17 19/19 20/20
f 20/20 19/19 21/21
f 20/20 21/21 22/22
f 22/22 21/21 23/23
f 22/22 23/23 24/24
f 24/24 23/23 25/25
f 24/24 25/25 26/26
f 22/22 24/24 27/27
f 22/22 27/27 28/28
f 29/29 30/30 31/31
f 29/29 31/31 32/32
f 33/33 34/34 35/35
f 33/33 35/35 36/36
f 37/37 38/38 39/39
f 37/37 39/39 40/40
f 41/41 42/42 43/43
f 41/41 43/43 44/44
f 45/45 46/46 47/47
f 45/45 47/47 48/48
f 49/49 50/50 51/51
f 49/49 51/51 52/52
f 53/53 54/54 55/55
f 53/53 55/55 56/56
f 57/57 53/53 56/56
f 57/57 58/58 55/55
f 57/57 55/55 59/59
f 57/57 60/60 53/53
f 60/60 57/57 61/61
f 62/62 53/53 60/60
f 60/60 61/61 62/62
f 62/62 63/63 53/53
f 62/62 61/61 64/64
f 62/62 64/64 63/63
f 65/65 66/66 67/67
f 65/65 67/67 68/68
f 69/69 70/70 71/71
f 69/69 71/71 72/72
f 73/73 74/74 75/75
f 73/73 75/75 76/76
f 77/77 78/78 79/79
f 77/77 79/79 80/80
f 81/81 82/82 83/83
f 81/81 83/83 84/84
f 85/85 86/86 87/87
f 85/85 87/87 88/88
f 89/89 90/90 91/91
f 89/89 91/91 92/92
f 93/93 94/94 95/95
f 93/93 95/95 96/96
f 97/97 98/98 99/99
f 97/97 99/99 100/100
f 101/101 102/102 103/103
f 101/101 103/103 104/104
f 105/105 106/106 107/107
f 105/105 107/107 108/108
f 109/109 110/110 111/111
f 109/109 111/111 112/112
f 113/113 114/114 115/115
f 113/113 115/115 116/116
f 117/117 113/113 116/116
f 117/117 118/118 115/115
f 117/117 115/115 119/119
f 117/117 120/120 113/113
f 120/120 117/117 121/121
f 122/122 113/113 120/120
f 120/120 121/121 122/122
f 122/122 123/123 113/113
f 122/122 121/121 124/124
f 122/122 124/124 123/123
f 125/125 126/126 127/127
f 125/125 127/127 128/128
f 129/129 130/130 131/131
f 129/129 131/131 132/132
f 133/133 134/134 135/135
f 133/133 135/135 136/136
f 137/137 138/138 139/139
f 137/137 139/139 140/140
f 141/141 142/142 143/143
f 141/141 143/143 144/144
f 145/145 146/146 147/147
f 145/145 147/147 148/148
f 149/149 150/150 151/151
f 152/152 150/150 149/149
f 152/152 153/153 150/150
f 154/154 153/153 152/152
f 154/154 152/152 149/149
f 154/154 155/155 153/153
f 149/149 151/151 156/156
f 154/154 149/149 156/156
f 156/156 151/151 155/155
f 156/156 155/155 154/154
