# wood_col
v 2.57089663 -2.30165291 0.0131503679
v 0.0118466187 -2.30165291 0.0131503679
v 0.0118466187 -2.30165291 -0.109204635
v 2.57089686 -2.30165291 -0.109204635
v 2.57089686 2.73870778 0.0131505579
v 2.57089663 2.7387085 -0.109204441
v 0.0118466187 2.7387085 -0.109204441
v 0.0118466187 2.7387085 0.0131505579
v 2.57089663 -2.30165291 0.0131503679
v 2.57089686 2.73870778 0.0131505579
v 0.0118466187 2.7387085 0.0131505579
v 0.0118466187 -2.30165291 0.0131503679
v 0.0118466187 -2.30165291 0.0131503679
v 0.0118466187 2.7387085 0.0131505579
v 0.0118466187 2.7387085 -0.109204441
v 0.0118466187 -2.30165291 -0.109204635
v 0.0118466187 -2.30165291 -0.109204635
v 0.0118466187 2.7387085 -0.109204441
v 2.57089663 2.7387085 -0.109204441
v 2.57089686 -2.30165291 -0.109204635
v 2.57089686 -2.30165291 -0.109204635
v 2.57089663 2.7387085 -0.109204441
v 2.57089686 2.73870778 0.0131505579
v 2.57089663 -2.30165291 0.0131503679
vn 0 -1 0
vn 0 -1 0
vn 0 -1 0
vn 0 -1 0
vn 1.19253542E-07 1 2.49418304E-06
vn 1.19253542E-07 1 2.49418304E-06
vn 1.19253542E-07 1 2.49418281E-06
vn 1.19253542E-07 1 2.49418281E-06
vn 0 0 1
vn 0 0 1
vn 0 0 1
vn 0 0 1
vn -1 0 0
vn -1 0 0
vn -1 0 0
vn -1 0 0
vn 0 0 -1
vn 0 0 -1
vn 0 0 -1
vn 0 0 -1
vn 1 0 0
vn 1 0 0
vn 1 0 0
vn 1 0 0
vt 1 0
vt 0 0
vt 0 1
vt 1 1
vt 0 0
vt 0 1
vt 1 1
vt 1 0
vt 0 0
vt 0 1
vt 1 1
vt 1 0
vt 0 0
vt 0 1
vt 1 1
vt 1 0
vt 0 0
vt 0 1
vt 1 1
vt 1 0
vt 0 0
vt 0 1
vt 1 1
vt 1 0
g submesh0
f 1/1/1 2/2/2 3/3/3
f 1/1/1 3/3/3 4/4/4
f 5/5/5 6/6/6 7/7/7
f 5/5/5 7/7/7 8/8/8
f 9/9/9 10/10/10 11/11/11
f 9/9/9 11/11/11 12/12/12
f 13/13/13 14/14/14 15/15/15
f 13/13/13 15/15/15 16/16/16
f 17/17/17 18/18/18 19/19/19
f 17/17/17 19/19/19 20/20/20
f 21/21/21 22/22/22 23/23/23
f 21/21/21 23/23/23 24/24/24
