# wooden_walkway_barrier_900_LOD0
v -8.88008308 -0.349797428 0.00785285886
v -8.88008308 1.310606 0.00120949745
v -8.6198473 1.31060588 0.00120938534
v -8.6198473 -0.349797428 0.00785275176
v -8.6198473 -0.349797428 0.0537313074
v -8.6198473 1.310606 0.0470879413
v -8.88008308 1.31060588 0.0470880494
v -8.88008308 -0.349797368 0.0537314229
v -8.6198473 1.310606 0.0470879413
v -8.6198473 1.31060588 0.00120938534
v -8.88008308 1.310606 0.00120949745
v -8.88008308 1.31060588 0.0470880494
v -8.6198473 1.31060588 0.00120938534
v -8.6198473 1.310606 0.0470879413
v -8.6198473 -0.349797428 0.0537313074
v -8.6198473 -0.349797428 0.00785275176
v -8.6198473 -0.349797428 0.00785275176
v -8.6198473 -0.349797428 0.0537313074
v -8.88008308 -0.349797368 0.0537314229
v -8.88008308 -0.349797428 0.00785285886
v -8.88008308 -0.349797428 0.00785285886
v -8.88008308 -0.349797368 0.0537314229
v -8.88008308 1.31060588 0.0470880494
v -8.88008308 1.310606 0.00120949745
v -0.3799707 -0.349798203 0.007852301
v -0.3799707 1.31060529 0.00120894192
v -0.119735107 1.31060517 0.00120882748
v -0.119735107 -0.349798203 0.0078521939
v -0.119735107 -0.349798203 0.0537307449
v -0.119735107 1.31060529 0.0470873825
v -0.3799707 1.31060517 0.0470874868
v -0.3799707 -0.349798113 0.0537308678
v -0.119735107 1.31060529 0.0470873825
v -0.119735107 1.31060517 0.00120882748
v -0.3799707 1.31060529 0.00120894192
v -0.3799707 1.31060517 0.0470874868
v -0.119735107 1.31060517 0.00120882748
v -0.119735107 1.31060529 0.0470873825
v -0.119735107 -0.349798203 0.0537307449
v -0.119735107 -0.349798203 0.0078521939
v -0.119735107 -0.349798203 0.0078521939
v -0.119735107 -0.349798203 0.0537307449
v -0.3799707 -0.349798113 0.0537308678
v -0.3799707 -0.349798203 0.007852301
v -0.3799707 -0.349798203 0.007852301
v -0.3799707 -0.349798113 0.0537308678
v -0.3799707 1.31060517 0.0470874868
v -0.3799707 1.31060529 0.00120894192
v -5.69540501 0.690383673 0.0484947972
v -5.6978941 0.753404438 0.0484948307
v -5.6978941 0.753404498 0.0814576671
v -5.69540501 0.690383613 0.0814576298
v -5.70777702 0.645960212 0.0484947674
v -5.70777702 0.645960212 0.0814576
v -8.98768711 0.481268615 0.0484953187
v -8.97556591 0.422173828 0.0484952815
v -8.97556591 0.422173709 0.0814581066
v -8.98768711 0.481268615 0.0814581588
v -8.9642086 0.567376018 0.0484953634
v -8.96420956 0.567375898 0.0814582035
v -8.91464615 0.571819067 0.0484953597
v -8.9642086 0.567376018 0.0484953634
v -8.96420956 0.567375898 0.0814582035
v -8.91464615 0.571819007 0.081458196
v -5.78670645 0.812149048 0.0484948754
v -5.78670502 0.812149048 0.0814577192
v -5.74075985 0.815531433 0.048494868
v -5.74075985 0.815531492 0.0814576969
v -5.76974487 0.618279696 0.0484947674
v -5.70777702 0.645960212 0.0484947674
v -5.70777702 0.645960212 0.0814576
v -5.76974487 0.618279696 0.0814576
v -8.89711285 0.371417493 0.0484952331
v -8.89711285 0.371417493 0.0814580694
v -8.93183422 0.37457481 0.0484952442
v -8.93183422 0.37457481 0.0814580768
v -8.97556591 0.422173828 0.0484952815
v -8.93183422 0.37457481 0.0484952442
v -8.93183422 0.37457481 0.0814580768
v -8.97556591 0.422173709 0.0814581066
v -5.6978941 0.753404438 0.0484948307
v -5.74075985 0.815531433 0.048494868
v -5.74075985 0.815531492 0.0814576969
v -5.6978941 0.753404498 0.0814576671
v -5.78670502 0.812149048 0.0814577192
v -5.6978941 0.753404498 0.0814576671
v -5.74075985 0.815531492 0.0814576969
v -5.69540501 0.690383613 0.0814576298
v -5.76974487 0.618279696 0.0814576
v -5.70777702 0.645960212 0.0814576
v -8.89711285 0.371417493 0.0814580694
v -8.91464615 0.571819007 0.081458196
v -8.97556591 0.422173709 0.0814581066
v -8.93183422 0.37457481 0.0814580768
v -8.98768711 0.481268615 0.0814581588
v -8.96420956 0.567375898 0.0814582035
v -5.6978941 0.753404438 0.0484948307
v -5.78670645 0.812149048 0.0484948754
v -5.74075985 0.815531433 0.048494868
v -5.69540501 0.690383673 0.0484947972
v -5.76974487 0.618279696 0.0484947674
v -5.70777702 0.645960212 0.0484947674
v -8.89711285 0.371417493 0.0484952331
v -8.91464615 0.571819067 0.0484953597
v -8.98768711 0.481268615 0.0484953187
v -8.9642086 0.567376018 0.0484953634
v -8.97556591 0.422173828 0.0484952815
v -8.93183422 0.37457481 0.0484952442
v -5.70741892 1.11553216 0.118796766
v -5.70500708 1.05250823 0.118830852
v -5.70500708 1.05250835 0.0858680233
v -5.70741892 1.11553216 0.085833922
v -5.72320175 1.15884757 0.118613392
v -5.72320032 1.15884769 0.0856505632
v -9.00587749 1.06527817 0.081458427
v -8.99838257 1.12514484 0.0815368369
v -8.99838257 1.12514472 0.0485739894
v -9.00587654 1.06527817 0.0484955981
v -8.97578526 0.981278956 0.0818081871
v -8.97578526 0.981278956 0.048845347
v -8.92602921 0.98074466 0.0823715702
v -8.97578526 0.981278956 0.0818081871
v -8.97578526 0.981278956 0.048845347
v -8.92602921 0.98074466 0.0494087227
v -5.78898525 0.986963809 0.117887169
v -5.78898525 0.986963809 0.0849243253
v -5.74291754 0.987202406 0.118408695
v -5.74291754 0.987202406 0.0854458585
v -5.78712988 1.18157351 0.117887191
v -5.72320175 1.15884757 0.118613392
v -5.72320032 1.15884769 0.0856505632
v -5.78712988 1.18157351 0.0849243551
v -8.92410946 1.18191171 0.0823715776
v -8.92410946 1.18191171 0.0494087487
v -8.95847988 1.1760354 0.0819830969
v -8.95847988 1.1760354 0.0490202494
v -8.99838257 1.12514484 0.0815368369
v -8.95847988 1.1760354 0.0819830969
v -8.95847988 1.1760354 0.0490202494
v -8.99838257 1.12514472 0.0485739894
v -5.70500708 1.05250823 0.118830852
v -5.74291754 0.987202406 0.118408695
v -5.74291754 0.987202406 0.0854458585
v -5.70500708 1.05250835 0.0858680233
v -5.78898525 0.986963809 0.0849243253
v -5.70500708 1.05250835 0.0858680233
v -5.74291754 0.987202406 0.0854458585
v -5.70741892 1.11553216 0.085833922
v -5.78712988 1.18157351 0.0849243551
v -5.72320032 1.15884769 0.0856505632
v -8.92410946 1.18191171 0.0494087487
v -8.92602921 0.98074466 0.0494087227
v -8.99838257 1.12514472 0.0485739894
v -8.95847988 1.1760354 0.0490202494
v -9.00587654 1.06527817 0.0484955981
v -8.97578526 0.981278956 0.048845347
v -5.70500708 1.05250823 0.118830852
v -5.78898525 0.986963809 0.117887169
v -5.74291754 0.987202406 0.118408695
v -5.70741892 1.11553216 0.118796766
v -5.78712988 1.18157351 0.117887191
v -5.72320175 1.15884757 0.118613392
v -8.92410946 1.18191171 0.0823715776
v -8.92602921 0.98074466 0.0823715702
v -9.00587749 1.06527817 0.081458427
v -8.97578526 0.981278956 0.0818081871
v -8.99838257 1.12514484 0.0815368369
v -8.95847988 1.1760354 0.0819830969
v -0.015850829 1.2032634 0.0814568475
v -0.0134387203 1.1402396 0.08145684
v -0.0134387203 1.1402396 0.0484939963
v -0.015850829 1.2032634 0.0484940074
v -0.0316332988 1.24657881 0.0814568475
v -0.0316332988 1.24657881 0.0484940037
v -3.31431031 1.15300941 0.0814573616
v -3.30681396 1.2128762 0.0814573616
v -3.30681396 1.2128762 0.0484945178
v -3.31431031 1.1530093 0.0484945104
v -3.28421736 1.06901026 0.0814573392
v -3.28421736 1.06901014 0.0484945066
v -3.23446035 1.06847584 0.0814573392
v -3.28421736 1.06901026 0.0814573392
v -3.28421736 1.06901014 0.0484945066
v -3.23446035 1.06847596 0.0484944955
v -0.0974182114 1.07469511 0.08145684
v -0.0974182114 1.07469511 0.0484940037
v -0.0513488762 1.07493377 0.08145684
v -0.0513488762 1.07493365 0.048494
v -0.0955615193 1.26930487 0.0814568698
v -0.0316332988 1.24657881 0.0814568475
v -0.0316332988 1.24657881 0.0484940037
v -0.0955615193 1.26930475 0.0484940186
v -3.23254275 1.26964271 0.0814573541
v -3.23254275 1.26964295 0.0484945178
v -3.26691151 1.26376653 0.0814573616
v -3.26691151 1.26376653 0.0484945327
v -3.30681396 1.2128762 0.0814573616
v -3.26691151 1.26376653 0.0814573616
v -3.26691151 1.26376653 0.0484945327
v -3.30681396 1.2128762 0.0484945178
v -0.0134387203 1.1402396 0.08145684
v -0.0513488762 1.07493377 0.08145684
v -0.0513488762 1.07493365 0.048494
v -0.0134387203 1.1402396 0.0484939963
v -0.0974182114 1.07469511 0.0484940037
v -0.0134387203 1.1402396 0.0484939963
v -0.0513488762 1.07493365 0.048494
v -0.015850829 1.2032634 0.0484940074
v -0.0955615193 1.26930475 0.0484940186
v -0.0316332988 1.24657881 0.0484940037
v -3.23254275 1.26964295 0.0484945178
v -3.23446035 1.06847596 0.0484944955
v -3.30681396 1.2128762 0.0484945178
v -3.26691151 1.26376653 0.0484945327
v -3.31431031 1.1530093 0.0484945104
v -3.28421736 1.06901014 0.0484945066
v -0.0134387203 1.1402396 0.08145684
v -0.0974182114 1.07469511 0.08145684
v -0.0513488762 1.07493377 0.08145684
v -0.015850829 1.2032634 0.0814568475
v -0.0955615193 1.26930487 0.0814568698
v -0.0316332988 1.24657881 0.0814568475
v -3.23254275 1.26964271 0.0814573541
v -3.23446035 1.06847584 0.0814573392
v -3.31431031 1.15300941 0.0814573616
v -3.28421736 1.06901026 0.0814573392
v -3.30681396 1.2128762 0.0814573616
v -3.26691151 1.26376653 0.0814573616
v -0.0101379389 0.608912826 0.0510834679
v -0.00520141609 0.810526133 0.0510834865
v -0.00520141609 0.810526431 0.0914826766
v -0.0101379389 0.608912826 0.0914826691
v -3.2929039 0.791901231 0.0510840006
v -3.29457021 0.617383122 0.0510839932
v -3.29457021 0.617383003 0.0914831683
v -3.2929039 0.791901231 0.0914831907
v -3.24756837 0.573301017 0.0510839745
v -3.29457021 0.617383122 0.0510839932
v -3.11250234 0.566557407 0.0510839447
v -3.10988641 0.840767622 0.051083982
v -3.2929039 0.791901231 0.0510840006
v -3.2531395 0.83278805 0.0510840118
v -0.366906732 0.566557288 0.0510835163
v -0.364289552 0.840767622 0.0510835536
v -0.0101379389 0.608912826 0.0510834679
v -0.0985473618 0.580070078 0.0510834865
v -0.00520141609 0.810526133 0.0510834865
v -0.0637158155 0.840767741 0.0510835052
v -3.2531395 0.832788169 0.0914831907
v -3.2929039 0.791901231 0.0914831907
v -3.10988641 0.840767622 0.0914831683
v -3.29457021 0.617383003 0.0914831683
v -3.11250234 0.566557288 0.0914831311
v -3.24756837 0.573301017 0.0914831534
v -0.364289552 0.840767622 0.0914827362
v -0.366906732 0.566557229 0.0914826915
v -0.0101379389 0.608912826 0.0914826691
v -0.0985473618 0.580070019 0.0914826542
v -0.00520141609 0.810526431 0.0914826766
v -0.0637158155 0.840767801 0.091482684
v -3.11250234 0.566557288 0.0914831311
v -3.24756837 0.573301017 0.0914831534
v -3.24756837 0.573301017 0.0510839745
v -3.11250234 0.566557407 0.0510839447
v -0.366906732 0.566557229 0.0914826915
v -0.366906732 0.566557288 0.0510835163
v -0.0985473618 0.580070019 0.0914826542
v -0.0985473618 0.580070078 0.0510834865
v -0.364289552 0.840767622 0.0914827362
v -0.0637158155 0.840767801 0.091482684
v -0.0637158155 0.840767741 0.0510835052
v -0.364289552 0.840767622 0.0510835536
v -3.10988641 0.840767622 0.0914831683
v -3.10988641 0.840767622 0.051083982
v -3.2531395 0.832788169 0.0914831907
v -3.2531395 0.83278805 0.0510840118
v -3.29457021 0.617383122 0.0510839932
v -3.24756837 0.573301017 0.0510839745
v -3.24756837 0.573301017 0.0914831534
v -3.29457021 0.617383003 0.0914831683
v -3.2929039 0.791901231 0.0914831907
v -3.2531395 0.832788169 0.0914831907
v -3.2531395 0.83278805 0.0510840118
v -3.2929039 0.791901231 0.0510840006
v -0.00520141609 0.810526133 0.0510834865
v -0.0637158155 0.840767741 0.0510835052
v -0.0637158155 0.840767801 0.091482684
v -0.00520141609 0.810526431 0.0914826766
v -0.0101379389 0.608912826 0.0914826691
v -0.0985473618 0.580070019 0.0914826542
v -0.0985473618 0.580070078 0.0510834865
v -0.0101379389 0.608912826 0.0510834679
v -2.8153038 0.404063553 0.0510838889
v -2.81466413 0.471162975 0.0510838889
v -2.81466413 0.471162975 0.0914830863
v -2.8153038 0.404063702 0.091483064
v -6.14184666 0.462933689 0.0510844216
v -6.14322186 0.318798959 0.0510844029
v -6.14322186 0.318798929 0.0914835781
v -6.1418457 0.462933749 0.0914836079
v -6.11069918 0.287575662 0.0510844029
v -6.14322186 0.318798959 0.0510844029
v -6.04860115 0.272712231 0.0510843843
v -6.14184666 0.462933689 0.0510844216
v -6.04593229 0.552449703 0.0510844141
v -6.09770632 0.532710075 0.0510844216
v -3.00355697 0.272712439 0.0510838963
v -3.00088859 0.552449763 0.0510839261
v -2.8153038 0.404063553 0.0510838889
v -2.90172243 0.315357953 0.0510838777
v -2.81466413 0.471162975 0.0510838889
v -2.87610841 0.552449942 0.0510839075
v -6.09770632 0.532710075 0.0914836004
v -6.1418457 0.462933749 0.0914836079
v -6.04593134 0.552449763 0.0914836004
v -6.04860115 0.272712409 0.0914835632
v -6.14322186 0.318798929 0.0914835781
v -6.11069918 0.287575632 0.0914835706
v -3.00088739 0.552449703 0.0914831161
v -3.00355697 0.272712409 0.0914830789
v -2.8153038 0.404063702 0.091483064
v -2.90172243 0.315357745 0.091483064
v -2.81466413 0.471162975 0.0914830863
v -2.87610841 0.552449942 0.0914830863
v -6.04860115 0.272712409 0.0914835632
v -6.11069918 0.287575632 0.0914835706
v -6.11069918 0.287575662 0.0510844029
v -6.04860115 0.272712231 0.0510843843
v -3.00355697 0.272712409 0.0914830789
v -3.00355697 0.272712439 0.0510838963
v -2.90172243 0.315357745 0.091483064
v -2.90172243 0.315357953 0.0510838777
v -3.00088739 0.552449703 0.0914831161
v -2.87610841 0.552449942 0.0914830863
v -2.87610841 0.552449942 0.0510839075
v -3.00088859 0.552449763 0.0510839261
v -6.04593134 0.552449763 0.0914836004
v -6.04593229 0.552449703 0.0510844141
v -6.09770632 0.532710075 0.0914836004
v -6.09770632 0.532710075 0.0510844216
v -6.14322186 0.318798959 0.0510844029
v -6.11069918 0.287575662 0.0510844029
v -6.11069918 0.287575632 0.0914835706
v -6.14322186 0.318798929 0.0914835781
v -6.1418457 0.462933749 0.0914836079
v -6.09770632 0.532710075 0.0914836004
v -6.09770632 0.532710075 0.0510844216
v -6.14184666 0.462933689 0.0510844216
v -2.81466413 0.471162975 0.0510838889
v -2.87610841 0.552449942 0.0510839075
v -2.87610841 0.552449942 0.0914830863
v -2.81466413 0.471162975 0.0914830863
v -2.8153038 0.404063702 0.091483064
v -2.90172243 0.315357745 0.091483064
v -2.90172243 0.315357953 0.0510838777
v -2.8153038 0.404063553 0.0510838889
v -2.81732059 0.917304039 0.0484936796
v -2.81066155 0.980149508 0.0484937169
v -2.81066155 0.980149508 0.0814565644
v -2.81732059 0.917304039 0.0814565346
v -2.83600211 0.874666929 0.048493661
v -2.83600211 0.87466687 0.0814565048
v -6.10801363 1.09722435 0.0484942421
v -6.10456467 1.03714228 0.0484942012
v -6.10456467 1.03714228 0.0814570487
v -6.10801363 1.09722435 0.0814570859
v -6.0722971 1.17992842 0.0484942794
v -6.07229662 1.17992842 0.0814571232
v -6.02257061 1.17850506 0.0484942719
v -6.0722971 1.17992842 0.0484942794
v -6.07229662 1.17992842 0.0814571232
v -6.02257109 1.17850494 0.0814571157
v -2.89010978 1.04891002 0.0484937578
v -2.89010978 1.04891002 0.0814566091
v -2.8441186 1.04685986 0.0484937616
v -2.8441186 1.04685986 0.0814565942
v -2.90137935 0.854485631 0.0484936573
v -2.83600211 0.874666929 0.048493661
v -2.83600211 0.87466687 0.0814565048
v -2.90137935 0.854485631 0.0814564973
v -6.03421974 0.977529645 0.0484941602
v -6.03422117 0.977529585 0.081457004
v -6.06814671 0.984750032 0.0484941788
v -6.06814671 0.984750032 0.0814570114
v -6.10456467 1.03714228 0.0484942012
v -6.06814671 0.984750032 0.0484941788
v -6.06814671 0.984750032 0.0814570114
v -6.10456467 1.03714228 0.0814570487
v -2.81066155 0.980149508 0.0484937169
v -2.8441186 1.04685986 0.0484937616
v -2.8441186 1.04685986 0.0814565942
v -2.81066155 0.980149508 0.0814565644
v -2.89010978 1.04891002 0.0814566091
v -2.81066155 0.980149508 0.0814565644
v -2.8441186 1.04685986 0.0814565942
v -2.81732059 0.917304039 0.0814565346
v -2.90137935 0.854485631 0.0814564973
v -2.83600211 0.87466687 0.0814565048
v -6.03422117 0.977529585 0.081457004
v -6.02257109 1.17850494 0.0814571157
v -6.10456467 1.03714228 0.0814570487
v -6.06814671 0.984750032 0.0814570114
v -6.10801363 1.09722435 0.0814570859
v -6.07229662 1.17992842 0.0814571232
v -2.81066155 0.980149508 0.0484937169
v -2.89010978 1.04891002 0.0484937578
v -2.8441186 1.04685986 0.0484937616
v -2.81732059 0.917304039 0.0484936796
v -2.90137935 0.854485631 0.0484936573
v -2.83600211 0.874666929 0.048493661
v -6.03421974 0.977529645 0.0484941602
v -6.02257061 1.17850506 0.0484942719
v -6.10801363 1.09722435 0.0484942421
v -6.0722971 1.17992842 0.0484942794
v -6.10456467 1.03714228 0.0484942012
v -6.06814671 0.984750032 0.0484941788
v -3.13008666 -0.349798054 0.00785200298
v -3.13008666 1.31060541 0.00120864867
v -2.86985111 1.31060517 0.00120853179
v -2.86985111 -0.349798054 0.00785189401
v -2.86985111 -0.349798054 0.0537304468
v -2.86985111 1.31060541 0.0470870771
v -3.13008666 1.31060517 0.0470871925
v -3.13008666 -0.349797875 0.0537305623
v -2.86985111 1.31060541 0.0470870771
v -2.86985111 1.31060517 0.00120853179
v -3.13008666 1.31060541 0.00120864867
v -3.13008666 1.31060517 0.0470871925
v -2.86985111 1.31060517 0.00120853179
v -2.86985111 1.31060541 0.0470870771
v -2.86985111 -0.349798054 0.0537304468
v -2.86985111 -0.349798054 0.00785189401
v -2.86985111 -0.349798054 0.00785189401
v -2.86985111 -0.349798054 0.0537304468
v -3.13008666 -0.349797875 0.0537305623
v -3.13008666 -0.349798054 0.00785200298
v -3.13008666 -0.349798054 0.00785200298
v -3.13008666 -0.349797875 0.0537305623
v -3.13008666 1.31060517 0.0470871925
v -3.13008666 1.31060541 0.00120864867
v -5.95995569 -0.349797666 0.00785335246
v -5.95995569 1.31060576 0.00120999094
v -5.69972086 1.31060541 0.00120988127
v -5.69972086 -0.349797666 0.0078532435
v -5.69972086 -0.349797666 0.0537317917
v -5.69972134 1.31060576 0.0470884331
v -5.95995569 1.31060541 0.0470885374
v -5.95995569 -0.349797517 0.0537319072
v -5.69972134 1.31060576 0.0470884331
v -5.69972086 1.31060541 0.00120988127
v -5.95995569 1.31060576 0.00120999094
v -5.95995569 1.31060541 0.0470885374
v -5.69972086 1.31060541 0.00120988127
v -5.69972134 1.31060576 0.0470884331
v -5.69972086 -0.349797666 0.0537317917
v -5.69972086 -0.349797666 0.0078532435
v -5.69972086 -0.349797666 0.0078532435
v -5.69972086 -0.349797666 0.0537317917
v -5.95995569 -0.349797517 0.0537319072
v -5.95995569 -0.349797666 0.00785335246
v -5.95995569 -0.349797666 0.00785335246
v -5.95995569 -0.349797517 0.0537319072
v -5.95995569 1.31060541 0.0470885374
v -5.95995569 1.31060576 0.00120999094
vn -4.22433601E-07 -0.00400102232 -0.999992013
vn -4.22433629E-07 -0.00400102232 -0.999992013
vn -4.22433601E-07 -0.00400102232 -0.999992013
vn -4.22433601E-07 -0.00400102232 -0.999992013
vn 4.33910401E-07 0.00400102558 0.999992013
vn 4.33910429E-07 0.00400102558 0.999992013
vn 4.33910401E-07 0.00400102558 0.999992013
vn 4.33910401E-07 0.00400102558 0.999992013
vn 0 1 0
vn 0 1 0
vn 0 1 0
vn 0 1 0
vn 1 0 0
vn 1 0 0
vn 1 0 0
vn 1 0 0
vn -1.46586032E-07 -1 8.31477166E-07
vn -1.46586018E-07 -1 8.31477166E-07
vn -1.46586032E-07 -1 8.31477166E-07
vn -1.46586018E-07 -1 8.31477166E-07
vn -1 0 0
vn -1 0 0
vn -1 0 0
vn -1 0 0
vn -4.27068244E-07 -0.00400102139 -0.999992013
vn -4.27068187E-07 -0.00400102139 -0.999992013
vn -4.27068187E-07 -0.00400102139 -0.999992013
vn -4.27068244E-07 -0.00400102139 -0.999992013
vn 4.29275275E-07 0.00400102464 0.999992013
vn 4.29275275E-07 0.00400102464 0.999992013
vn 4.29275275E-07 0.00400102464 0.999992013
vn 4.29275303E-07 0.00400102511 0.999992013
vn 0 1 0
vn 0 1 0
vn 0 1 0
vn 0 1 0
vn 1 0 0
vn 1 0 0
vn 1 0 0
vn 1 0 0
vn -1.46585933E-07 -1 8.31477166E-07
vn -1.46585933E-07 -1 8.31477166E-07
vn -1.46585933E-07 -1 8.31477166E-07
vn -1.46585933E-07 -1 8.31477166E-07
vn -1 0 0
vn -1 0 0
vn -1 0 0
vn -1 0 0
vn 0.993271649 -0.115807392 -4.72726197E-06
vn 0.999220848 0.0394691601 -9.26195389E-06
vn 0.999220848 0.0394691639 -9.26195389E-06
vn 0.993271649 -0.115807392 -4.72726197E-06
vn 0.963338792 -0.268287629 0
vn 0.963338792 -0.268287629 0
vn -0.999489903 0.0319345854 -9.62046761E-06
vn -0.979606092 -0.200927541 -3.59698646E-07
vn -0.979606092 -0.200927541 -3.59698646E-07
vn -0.999489903 0.0319345444 -9.62046579E-06
vn -0.964781582 0.263052404 -1.8355764E-05
vn -0.964781582 0.263052404 -1.8355764E-05
vn -0.0829480663 0.996553898 7.73846637E-07
vn -0.0892852172 0.996006072 8.393896E-07
vn -0.0892852247 0.996006072 8.39389656E-07
vn -0.0829480663 0.996553898 7.73846637E-07
vn -0.0750135109 0.997182488 1.17174572E-07
vn -0.0750134885 0.997182488 1.17160745E-07
vn -0.0734192804 0.997301161 -4.73937263E-07
vn -0.0734192804 0.997301161 -4.73937263E-07
vn 0.246856898 -0.969051957 -5.59427804E-07
vn 0.407849938 -0.913048923 -3.94314952E-07
vn 0.407849938 -0.913048923 -3.94314952E-07
vn 0.246856779 -0.969051957 -5.59427804E-07
vn -0.00595430145 -0.999982357 -4.99858174E-07
vn -0.00595432054 -0.999982357 -4.99858174E-07
vn -0.0905572101 -0.995891213 -2.8784379E-07
vn -0.0905572101 -0.995891213 -2.8784379E-07
vn -0.736390293 -0.676556885 -1.07422989E-06
vn -0.736390293 -0.676556885 -1.07422977E-06
vn -0.736390233 -0.676556945 -1.07422977E-06
vn -0.736390233 -0.676557004 -1.07422977E-06
vn 0.823092878 0.567906737 -8.2793722E-06
vn 0.823092878 0.567906857 -8.27937401E-06
vn 0.823092878 0.567906797 -8.27937311E-06
vn 0.823092878 0.567906737 -8.2793722E-06
vn 2.23190995E-07 -5.08938399E-07 1
vn 2.13114831E-07 -5.23180063E-07 1
vn 3.33938289E-07 -3.06855725E-07 1
vn 2.07337379E-07 -5.70610041E-07 1
vn 2.03816853E-07 -5.68835446E-07 1
vn 2.73797752E-07 -6.12947701E-07 1
vn 1.65325289E-07 -5.8707235E-07 1
vn 1.99802173E-07 -5.88887076E-07 1
vn 1.51623865E-07 -6.08599919E-07 1
vn 0 -6.27497457E-07 1
vn 1.73033499E-07 -6.08852872E-07 1
vn 2.48116294E-07 -6.21419133E-07 1
vn -1.61508254E-07 5.39087125E-07 -1
vn -1.9172316E-07 5.39813641E-07 -1
vn -2.40546711E-07 4.48047587E-07 -1
vn -1.59988588E-07 5.72674253E-07 -1
vn -1.83093732E-07 5.74854312E-07 -1
vn -2.13295593E-07 6.4976723E-07 -1
vn -2.01621418E-07 5.6691448E-07 -1
vn -1.96803171E-07 5.73270029E-07 -1
vn -1.97848493E-07 5.75338504E-07 -1
vn -1.96268672E-07 5.79596701E-07 -1
vn -2.00769705E-07 5.716293E-07 -1
vn -2.25150856E-07 5.44477757E-07 -1
vn 0.981317163 0.192397416 4.71855537E-06
vn 0.999268591 0.0382400937 0
vn 0.999268591 0.0382400937 0
vn 0.98123014 0.192840323 4.73202408E-06
vn 0.939574242 0.342345119 9.29200905E-06
vn 0.939574242 0.342345119 9.29200905E-06
vn -0.993964493 -0.10970211 -5.79211974E-06
vn -0.992253959 0.124225967 -2.36167466E-06
vn -0.992253959 0.124225959 -2.36167489E-06
vn -0.994008064 -0.109306626 -5.78651543E-06
vn -0.941414118 -0.337252796 -8.90068168E-06
vn -0.941414118 -0.337252796 -8.90068168E-06
vn -0.00433130097 -0.999990702 0
vn -0.0107365642 -0.999942422 0
vn -0.010736566 -0.999942422 0
vn -0.00442297291 -0.999990225 0
vn 0.00359268044 -0.999993563 -2.91376352E-07
vn 0.00356963789 -0.999993682 -2.87206575E-07
vn 0.00517983967 -0.999986649 -5.78582274E-07
vn 0.00517984107 -0.999986649 -5.7858233E-07
vn 0.171193659 0.98523742 3.27921862E-06
vn 0.334954202 0.942234457 5.27697375E-06
vn 0.334954202 0.942234457 5.27697375E-06
vn 0.168811515 0.985648394 3.24990992E-06
vn -0.0839076564 0.996473491 -1.92828395E-07
vn -0.0851177275 0.996370912 -2.12333063E-07
vn -0.168526873 0.985697031 -1.5609404E-06
vn -0.168526858 0.985697031 -1.56094052E-06
vn -0.786938429 0.617031455 -2.5053389E-06
vn -0.786938429 0.617031455 -2.50533913E-06
vn -0.786938488 0.617031455 -2.50533935E-06
vn -0.786938429 0.617031455 -2.50533913E-06
vn 0.864839435 -0.502048373 -5.74711407E-07
vn 0.864839435 -0.502048373 -5.74711407E-07
vn 0.864839435 -0.502048373 -5.74711407E-07
vn 0.864839435 -0.502048433 -5.74711407E-07
vn 0.0113208173 -0.000107870306 -0.999935985
vn 0.011320767 -0.000107869739 -0.999935985
vn 0.011320807 -0.000107868669 -0.999935985
vn 0.011320726 -0.000107894615 -0.999935985
vn 0.0113207912 -0.000107887157 -0.999935985
vn 0.0113205956 -0.000108001914 -0.999935985
vn 0.0113208955 -0.00010796119 -0.999935985
vn 0.0113208154 -0.000107892163 -0.999935985
vn 0.0113208443 -0.000107920547 -0.999935985
vn 0.0113212019 -0.000108436536 -0.999935985
vn 0.0113207968 -0.000107879423 -0.999935985
vn 0.0113207456 -0.000107958869 -0.999935985
vn -0.011320686 0.000107810709 0.999935985
vn -0.0113207577 0.00010787334 0.999935985
vn -0.0113205994 0.000107895437 0.999935985
vn -0.0113206515 0.000107898115 0.999935985
vn -0.0113207549 0.000107926804 0.999935985
vn -0.0113204354 0.000108341977 0.999935985
vn -0.0113207903 0.000107885513 0.999935985
vn -0.0113208313 0.000107904125 0.999935985
vn -0.0113207838 0.000107900662 0.999935985
vn -0.0113208415 0.000107899526 0.999935985
vn -0.0113207549 0.000107889355 0.999935985
vn -0.0113206105 0.000107782806 0.999935985
vn 0.981273174 0.192621186 2.24975437E-07
vn 0.999268353 0.0382449888 0
vn 0.999268353 0.0382449888 0
vn 0.981273174 0.192621663 2.24975977E-07
vn 0.939574361 0.34234491 4.0007788E-07
vn 0.939574361 0.34234488 4.0007788E-07
vn -0.993986964 -0.109498538 3.26079004E-07
vn -0.992251337 0.124246605 -1.43857349E-07
vn -0.992251337 0.124246605 -1.43857349E-07
vn -0.993986845 -0.109499261 3.26080396E-07
vn -0.941411078 -0.337261438 7.78199762E-07
vn -0.941411078 -0.337261409 7.78199762E-07
vn -0.00437805429 -0.999990463 0
vn -0.0107384324 -0.999942422 5.78702156E-07
vn -0.0107384315 -0.999942422 5.78702156E-07
vn -0.00437805289 -0.999990463 0
vn 0.00358089525 -0.999993563 2.8909966E-07
vn 0.00358089549 -0.999993563 2.89099802E-07
vn 0.00517928321 -0.999986649 1.1573793E-06
vn 0.00517928274 -0.999986649 1.15737919E-06
vn 0.170003653 0.985443413 -1.10883036E-06
vn 0.334956646 0.942233503 -2.18542141E-06
vn 0.334956646 0.942233503 -2.18542095E-06
vn 0.170003861 0.985443413 -1.10883184E-06
vn -0.0845152959 0.996422291 1.14502905E-06
vn -0.0845152289 0.996422291 1.14502814E-06
vn -0.168532014 0.985696197 2.28184308E-06
vn -0.168531999 0.985696197 2.28184285E-06
vn -0.786940873 0.617028356 0
vn -0.786940873 0.617028356 0
vn -0.786940873 0.617028356 0
vn -0.786940873 0.617028356 0
vn 0.86484313 -0.502042294 5.74713454E-07
vn 0.864843011 -0.502042294 5.74713397E-07
vn 0.86484313 -0.502042294 5.74713454E-07
vn 0.86484313 -0.502042294 5.74713454E-07
vn -1.19631324E-07 0 -1
vn 0 0 -1
vn 0 0 -1
vn -1.39087419E-07 0 -1
vn -1.58219166E-07 0 -1
vn -3.02022812E-07 -2.20130673E-07 -1
vn -2.15895483E-07 2.10969333E-07 -1
vn -1.5329374E-07 0 -1
vn -1.53274556E-07 1.76704987E-07 -1
vn -6.16274463E-07 7.64308197E-07 -1
vn -1.1695542E-07 0 -1
vn -1.91488368E-07 0 -1
vn 0 -1.21048586E-07 1
vn 1.0398152E-07 -1.13881136E-07 1
vn 0 0 1
vn 1.34843532E-07 0 1
vn 1.57849797E-07 0 1
vn 3.42754134E-07 1.24886384E-07 1
vn 2.06588652E-07 -1.30610687E-07 1
vn 1.59024935E-07 -1.45034349E-07 1
vn 2.11257145E-07 -1.07571957E-07 1
vn 0 -2.5046603E-07 1
vn 2.41364347E-07 0 1
vn 3.2043971E-07 -2.5125189E-07 1
vn 0.999700427 -0.0244777519 0
vn 0.999700427 -0.0244777519 0
vn 0.999700427 -0.0244777519 0
vn 0.999700427 -0.0244777538 0
vn -0.999954462 0.00954733882 0
vn -0.999954462 0.00954733882 0
vn -0.999954462 0.00954733882 0
vn -0.999954462 0.00954733696 0
vn -2.00917114E-07 2.18455682E-07 -1
vn -1.86149279E-07 1.30962704E-07 -1
vn -1.71378431E-07 1.32419416E-07 -1
vn -1.69902208E-07 1.37109907E-07 -1
vn -1.82400399E-07 1.50184107E-07 -1
vn -1.82832579E-07 2.94437058E-07 -1
vn -1.55266704E-07 1.25176101E-07 -1
vn -1.56824356E-07 1.37551609E-07 -1
vn -1.48354857E-07 0 -1
vn 0 -3.95555958E-07 -1
vn -1.56070826E-07 1.39217718E-07 -1
vn -1.58642365E-07 1.66071018E-07 -1
vn 1.40771263E-07 -1.3690665E-07 1
vn 1.52584931E-07 -1.30793495E-07 1
vn 1.56939137E-07 -1.35489586E-07 1
vn 1.49865613E-07 -1.64128537E-07 1
vn 1.55792165E-07 -1.47032523E-07 1
vn 1.26338648E-07 -2.9797431E-07 1
vn 1.41577701E-07 -1.18767893E-07 1
vn 1.42584042E-07 -1.39474679E-07 1
vn 1.28455127E-07 -1.85130347E-07 1
vn 1.87780969E-07 -9.06236892E-07 1
vn 1.28817163E-07 0 1
vn 1.58642337E-07 0 1
vn -0.0249409769 -0.999688983 -1.65152244E-06
vn -0.0498663932 -0.998755932 -1.64957828E-06
vn -0.0498663932 -0.998755932 -1.64957794E-06
vn -0.0249409731 -0.999688983 -1.65152244E-06
vn 0.0251527876 -0.999683619 -1.17800789E-06
vn 0.0251527932 -0.999683619 -1.17800766E-06
vn 0.181815282 -0.983332753 -6.93841969E-07
vn 0.181815326 -0.983332753 -6.93841969E-07
vn -1.90370699E-07 1 4.72125578E-07
vn 0.236251876 0.971691847 -1.5122157E-06
vn 0.23625198 0.971691847 -1.51221661E-06
vn -1.90370741E-07 1 4.72125464E-07
vn -0.0278187953 0.999612987 2.35701805E-07
vn -0.0278187916 0.999612987 2.35701947E-07
vn -0.0556160472 0.998452187 -4.73029587E-07
vn -0.055616051 0.998452187 -4.73029587E-07
vn -0.684087873 -0.729399562 -1.02573495E-06
vn -0.684087813 -0.729399562 -1.02573495E-06
vn -0.684087873 -0.729399562 -1.02573495E-06
vn -0.684087873 -0.729399562 -1.02573506E-06
vn -0.716878474 0.697198153 -9.72651151E-07
vn -0.716878474 0.697198153 -9.72651151E-07
vn -0.716878474 0.697198153 -9.72651264E-07
vn -0.716878474 0.697198153 -9.72651151E-07
vn 0.459128469 0.888369799 -2.9388159E-06
vn 0.23625198 0.971691847 -1.51221661E-06
vn 0.236251876 0.971691847 -1.5122157E-06
vn 0.459128469 0.888369918 -2.9388159E-06
vn 0.310152531 -0.950686753 -6.72685815E-07
vn 0.181815282 -0.983332753 -6.93841969E-07
vn 0.181815326 -0.983332753 -6.93841969E-07
vn 0.310152531 -0.950686872 -6.72685871E-07
vn 0.999954581 -0.00953242276 0
vn 0.999954581 -0.00953242369 0
vn 0.999954581 -0.00953242369 0
vn 0.999954581 -0.00953242369 0
vn -0.999954462 0.00954432879 1.51002641E-05
vn -0.999954462 0.00954432879 1.51002641E-05
vn -0.999954462 0.00954432879 1.51002641E-05
vn -0.999954462 0.00954432879 1.51002632E-05
vn -4.09151085E-07 -4.26173017E-07 -1
vn -2.11855351E-07 0 -1
vn -1.86413217E-07 0 -1
vn -1.87395102E-07 1.3838924E-07 -1
vn -1.77139157E-07 1.25178659E-07 -1
vn -2.42744989E-07 1.53559654E-07 -1
vn -1.6995071E-07 1.31668131E-07 -1
vn -1.50554882E-07 1.02599166E-07 -1
vn -1.58736796E-07 1.16110975E-07 -1
vn -3.92416524E-07 4.89808599E-07 -1
vn -1.41488769E-07 0 -1
vn -1.52856757E-07 1.19100775E-07 -1
vn 0 1.80115663E-07 1
vn 1.61229167E-07 -1.25708752E-07 1
vn 1.35729337E-07 0 1
vn 1.66147117E-07 -1.50380615E-07 1
vn 1.75836718E-07 -1.63898889E-07 1
vn 1.07190914E-07 -1.93786406E-07 1
vn 1.55578618E-07 -1.07638265E-07 1
vn 1.47244435E-07 -1.48952225E-07 1
vn 1.26795157E-07 -1.65202778E-07 1
vn 1.58183482E-07 -1.54104285E-07 1
vn 1.45758264E-07 0 1
vn 2.2928684E-07 1.73315925E-07 1
vn -0.117194705 -0.993108869 1.64162373E-06
vn -0.232774198 -0.972530782 1.60818354E-06
vn -0.232774183 -0.972530782 1.60818331E-06
vn -0.117194623 -0.993108988 1.64162395E-06
vn 0.196994483 -0.980404675 -4.98530255E-07
vn 0.196994543 -0.980404675 -4.98530994E-07
vn 0.562594235 -0.826733232 -1.57542036E-06
vn 0.562594831 -0.826732814 -1.57541638E-06
vn -7.95702817E-07 1 4.72143171E-07
vn -1.58589467E-06 1 7.67227959E-07
vn -1.58589467E-06 1 7.67227903E-07
vn -7.9567252E-07 1 4.72131859E-07
vn -0.181117296 0.983461499 1.40582802E-06
vn -0.181120694 0.983460903 1.40585087E-06
vn -0.356247038 0.934391797 2.58812975E-06
vn -0.356247008 0.934391797 2.58812952E-06
vn -0.692553818 -0.721366107 -3.40342126E-07
vn -0.692553818 -0.721366107 -3.40342126E-07
vn -0.692553878 -0.721366048 -3.40342126E-07
vn -0.692553818 -0.721366107 -3.40342126E-07
vn -0.845103562 0.534602523 1.23656E-05
vn -0.845103562 0.534602582 1.23656009E-05
vn -0.845103681 0.534602582 1.23656009E-05
vn -0.845103681 0.534602582 1.23656009E-05
vn 0.797738492 0.603003502 0
vn 0.797738552 0.603003383 0
vn 0.797738552 0.603003442 0
vn 0.797738552 0.603003383 0
vn 0.716281474 -0.697811544 -4.57478222E-07
vn 0.562594235 -0.826733232 -1.57542036E-06
vn 0.562594831 -0.826732814 -1.57541638E-06
vn 0.716281474 -0.697811425 -4.57478166E-07
vn 0.966579616 -0.2563667 -4.10646038E-07
vn 0.994433343 -0.105367467 -1.20172871E-07
vn 0.994433343 -0.105367482 -1.20172871E-07
vn 0.966579616 -0.25636664 -4.10645811E-07
vn 0.915937185 -0.40132153 -6.91437378E-07
vn 0.915937185 -0.40132153 -6.91437322E-07
vn -0.984698236 0.174267992 6.56817701E-06
vn -0.998356283 -0.0573119819 0
vn -0.998356283 -0.0573119782 0
vn -0.984698236 0.174268171 6.56818202E-06
vn -0.918047726 0.396469802 1.27498352E-05
vn -0.918047726 0.396469742 1.27498352E-05
vn 0.0349752381 0.999388218 1.27988471E-06
vn 0.0286126435 0.999590576 1.02413458E-06
vn 0.0286126416 0.999590576 1.02413446E-06
vn 0.0349750854 0.999388218 1.27987857E-06
vn 0.0429339781 0.999077916 7.67789402E-07
vn 0.0429339707 0.999077916 7.67789516E-07
vn 0.0445315652 0.999008 0
vn 0.0445315652 0.999008 0
vn 0.129711121 -0.991551876 -1.60580259E-06
vn 0.294957101 -0.955510497 -1.65967947E-06
vn 0.294957161 -0.955510497 -1.65967947E-06
vn 0.129711136 -0.991551876 -1.60580271E-06
vn -0.124155343 -0.99226284 -2.57782631E-06
vn -0.124157339 -0.992262602 -2.57785155E-06
vn -0.208166212 -0.978093505 -3.63097502E-06
vn -0.208166212 -0.978093505 -3.63097502E-06
vn -0.821115196 -0.570762455 0
vn -0.821115196 -0.570762455 0
vn -0.821115196 -0.570762455 0
vn -0.821115196 -0.570762455 0
vn 0.893880665 0.448304862 5.0397017E-07
vn 0.893880665 0.448304862 5.0397017E-07
vn 0.893880665 0.448304862 5.03970114E-07
vn 0.893880665 0.448304862 5.03970227E-07
vn 1.34369671E-07 -5.23828021E-07 1
vn 0 -5.29953297E-07 1
vn 2.9859828E-07 -2.79116989E-07 1
vn 0 -5.98253791E-07 1
vn 0 -6.04127933E-07 1
vn 0 -7.02056411E-07 1
vn 1.56628928E-07 -6.18526201E-07 1
vn 1.39798431E-07 -5.71173359E-07 1
vn 1.96655833E-07 -6.05100752E-07 1
vn 1.25311232E-07 -7.3201204E-07 1
vn 1.86127465E-07 -5.76723778E-07 1
vn 0 -4.96522318E-07 1
vn 0 5.62568744E-07 -1
vn 0 5.76245895E-07 -1
vn 0 7.21169499E-07 -1
vn 0 5.2086358E-07 -1
vn -1.09350552E-07 5.27888517E-07 -1
vn 0 4.61880234E-07 -1
vn -2.11591555E-07 4.54034023E-07 -1
vn -1.49515557E-07 5.4609302E-07 -1
vn -1.45974568E-07 5.65651021E-07 -1
vn -1.76399666E-07 5.37426274E-07 -1
vn -1.83615356E-07 5.10166103E-07 -1
vn -5.6888058E-07 0 -1
vn -4.36337928E-07 -0.00400101906 -0.999992013
vn -4.36337871E-07 -0.00400101859 -0.999992013
vn -4.36337871E-07 -0.00400101859 -0.999992013
vn -4.36337928E-07 -0.00400101906 -0.999992013
vn 4.30820251E-07 0.00400102511 0.999992013
vn 4.30820251E-07 0.00400102511 0.999992013
vn 4.30820279E-07 0.00400102464 0.999992013
vn 4.30820279E-07 0.00400102464 0.999992013
vn 0 1 0
vn 0 1 0
vn 0 1 0
vn 0 1 0
vn 1 0 0
vn 1 0 0
vn 1 0 0
vn 1 0 0
vn -2.93171865E-07 -1 1.66295433E-06
vn -2.93171865E-07 -1 1.66295433E-06
vn -2.93171865E-07 -1 1.66295433E-06
vn -2.93171865E-07 -1 1.66295433E-06
vn -1 0 0
vn -1 0 0
vn -1 0 0
vn -1 0 0
vn -4.23316692E-07 -0.00400102045 -0.999992013
vn -4.2331672E-07 -0.00400102045 -0.999992013
vn -4.2331672E-07 -0.00400102092 -0.999992013
vn -4.23316692E-07 -0.00400102045 -0.999992013
vn 4.25524036E-07 0.00400102651 0.999992013
vn 4.25524036E-07 0.00400102604 0.999992013
vn 4.25524036E-07 0.00400102651 0.999992013
vn 4.25524036E-07 0.00400102604 0.999992013
vn 0 1 0
vn 0 1 0
vn 0 1 0
vn 0 1 0
vn 1 1.05205245E-07 3.32590912E-06
vn 1 1.05205238E-07 3.32590889E-06
vn 1 1.05205238E-07 3.32590889E-06
vn 1 1.05205238E-07 3.32590889E-06
vn -2.93172207E-07 -1 1.66295422E-06
vn -2.93172235E-07 -1 1.66295445E-06
vn -2.93172207E-07 -1 1.66295422E-06
vn -2.93172235E-07 -1 1.66295445E-06
vn -1 0 0
vn -1 0 0
vn -1 0 0
vn -1 0 0
vt 0.800640762 0.123550609
vt 0.0478905663 0.123550609
vt 0.0462922975 0.222324908
vt 0.806709945 0.222324908
vt 0.806873322 0.00114294328
vt 0.0431381799 0.00114294328
vt 0.0435358696 0.0993501097
vt 0.806393743 0.0993501097
vt 0.0140581448 0.221275851
vt 0.0462922975 0.222324908
vt 0.0478905663 0.123550609
vt 0.0111521501 0.1225079
vt 0.0462922975 0.222324908
vt 0.0462922975 0.246573985
vt 0.806425989 0.246573985
vt 0.806709945 0.222324908
vt 0.806709945 0.222324908
vt 0.841067314 0.221878752
vt 0.841335893 0.125529557
vt 0.800640762 0.123550609
vt 0.800640762 0.123550609
vt 0.806393743 0.0993501097
vt 0.0435358696 0.0993501097
vt 0.0478905663 0.123550609
vt 0.800640762 0.123550609
vt 0.0478905663 0.123550609
vt 0.0462922975 0.222324908
vt 0.806709945 0.222324908
vt 0.806873322 0.00114294328
vt 0.0431381799 0.00114294328
vt 0.0435358696 0.0993501097
vt 0.806393743 0.0993501097
vt 0.0140581448 0.221275851
vt 0.0462922975 0.222324908
vt 0.0478905663 0.123550609
vt 0.0111521501 0.1225079
vt 0.0462922975 0.222324908
vt 0.0462922975 0.246573985
vt 0.806425989 0.246573985
vt 0.806709945 0.222324908
vt 0.806709945 0.222324908
vt 0.841067314 0.221878752
vt 0.841335893 0.125529557
vt 0.800640762 0.123550609
vt 0.800640762 0.123550609
vt 0.806393743 0.0993501097
vt 0.0435358696 0.0993501097
vt 0.0478905663 0.123550609
vt 0.912353754 0.00581041817
vt 0.894034743 0.00613023248
vt 0.895612717 0.0180224776
vt 0.911765218 0.0179715678
vt 0.925008237 0.00755381398
vt 0.924154699 0.0209881514
vt 0.896596372 0.804440856
vt 0.914241195 0.802543581
vt 0.911499381 0.790761292
vt 0.897064269 0.792377472
vt 0.872835636 0.799795449
vt 0.875058174 0.786801755
vt 0.862065136 0.774658024
vt 0.862238228 0.786581933
vt 0.875058174 0.786801755
vt 0.874550581 0.774606943
vt 0.864367425 0.0357073434
vt 0.876791418 0.0359922871
vt 0.864801228 0.0245801099
vt 0.87773186 0.0245236047
vt 0.938619971 0.0367830507
vt 0.939767241 0.02098969
vt 0.924154699 0.0209881514
vt 0.927144825 0.0371291488
vt 0.938741386 0.774960518
vt 0.927055061 0.774933219
vt 0.939554751 0.78316319
vt 0.925943136 0.783713579
vt 0.914241195 0.802543581
vt 0.930310667 0.796350777
vt 0.925943136 0.783713579
vt 0.911499381 0.790761292
vt 0.894034743 0.00613023248
vt 0.874538898 0.0116262166
vt 0.87773186 0.0245236047
vt 0.895612717 0.0180224776
vt 0.876791418 0.0359922871
vt 0.895612717 0.0180224776
vt 0.87773186 0.0245236047
vt 0.911765218 0.0179715678
vt 0.927144825 0.0371291488
vt 0.924154699 0.0209881514
vt 0.927055061 0.774933219
vt 0.874550581 0.774606943
vt 0.911499381 0.790761292
vt 0.925943136 0.783713579
vt 0.897064269 0.792377472
vt 0.875058174 0.786801755
vt 0.970726252 0.0159080885
vt 0.988814831 0.0353306085
vt 0.988224208 0.0243021473
vt 0.952741086 0.0161314122
vt 0.938619971 0.0367830507
vt 0.939767241 0.02098969
vt 0.938741386 0.774960518
vt 0.991029322 0.77481252
vt 0.969003022 0.793855488
vt 0.990910351 0.786554754
vt 0.953317583 0.792303801
vt 0.939554751 0.78316319
vt 0.912353754 0.00581041817
vt 0.894034743 0.00613023248
vt 0.895612717 0.0180224776
vt 0.911765218 0.0179715678
vt 0.925008237 0.00755381398
vt 0.924154699 0.0209881514
vt 0.896596372 0.804440856
vt 0.914241195 0.802543581
vt 0.911499381 0.790761292
vt 0.897064269 0.792377472
vt 0.872835636 0.799795449
vt 0.875058174 0.786801755
vt 0.862065136 0.774658024
vt 0.862238228 0.786581933
vt 0.875058174 0.786801755
vt 0.874550581 0.774606943
vt 0.864367425 0.0357073434
vt 0.876791418 0.0359922871
vt 0.864801228 0.0245801099
vt 0.87773186 0.0245236047
vt 0.938619971 0.0367830507
vt 0.939767241 0.02098969
vt 0.924154699 0.0209881514
vt 0.927144825 0.0371291488
vt 0.938741386 0.774960518
vt 0.927055061 0.774933219
vt 0.939554751 0.78316319
vt 0.925943136 0.783713579
vt 0.914241195 0.802543581
vt 0.930310667 0.796350777
vt 0.925943136 0.783713579
vt 0.911499381 0.790761292
vt 0.894034743 0.00613023248
vt 0.874538898 0.0116262166
vt 0.87773186 0.0245236047
vt 0.895612717 0.0180224776
vt 0.876791418 0.0359922871
vt 0.895612717 0.0180224776
vt 0.87773186 0.0245236047
vt 0.911765218 0.0179715678
vt 0.927144825 0.0371291488
vt 0.924154699 0.0209881514
vt 0.927055061 0.774933219
vt 0.874550581 0.774606943
vt 0.911499381 0.790761292
vt 0.925943136 0.783713579
vt 0.897064269 0.792377472
vt 0.875058174 0.786801755
vt 0.970726252 0.0159080885
vt 0.988814831 0.0353306085
vt 0.988224208 0.0243021473
vt 0.952741086 0.0161314122
vt 0.938619971 0.0367830507
vt 0.939767241 0.02098969
vt 0.938741386 0.774960518
vt 0.991029322 0.77481252
vt 0.969003022 0.793855488
vt 0.990910351 0.786554754
vt 0.953317583 0.792303801
vt 0.939554751 0.78316319
vt 0.912353754 0.00581041817
vt 0.894034743 0.00613023248
vt 0.895612717 0.0180224776
vt 0.911765218 0.0179715678
vt 0.925008237 0.00755381398
vt 0.924154699 0.0209881514
vt 0.896596372 0.804440856
vt 0.914241195 0.802543581
vt 0.911499381 0.790761292
vt 0.897064269 0.792377472
vt 0.872835636 0.799795449
vt 0.875058174 0.786801755
vt 0.862065136 0.774658024
vt 0.862238228 0.786581933
vt 0.875058174 0.786801755
vt 0.874550581 0.774606943
vt 0.864367425 0.0357073434
vt 0.876791418 0.0359922871
vt 0.864801228 0.0245801099
vt 0.87773186 0.0245236047
vt 0.938619971 0.0367830507
vt 0.939767241 0.02098969
vt 0.924154699 0.0209881514
vt 0.927144825 0.0371291488
vt 0.938741386 0.774960518
vt 0.927055061 0.774933219
vt 0.939554751 0.78316319
vt 0.925943136 0.783713579
vt 0.914241195 0.802543581
vt 0.930310667 0.796350777
vt 0.925943136 0.783713579
vt 0.911499381 0.790761292
vt 0.894034743 0.00613023248
vt 0.874538898 0.0116262166
vt 0.87773186 0.0245236047
vt 0.895612717 0.0180224776
vt 0.876791418 0.0359922871
vt 0.895612717 0.0180224776
vt 0.87773186 0.0245236047
vt 0.911765218 0.0179715678
vt 0.927144825 0.0371291488
vt 0.924154699 0.0209881514
vt 0.927055061 0.774933219
vt 0.874550581 0.774606943
vt 0.911499381 0.790761292
vt 0.925943136 0.783713579
vt 0.897064269 0.792377472
vt 0.875058174 0.786801755
vt 0.970726252 0.0159080885
vt 0.988814831 0.0353306085
vt 0.988224208 0.0243021473
vt 0.952741086 0.0161314122
vt 0.938619971 0.0367830507
vt 0.939767241 0.02098969
vt 0.938741386 0.774960518
vt 0.991029322 0.77481252
vt 0.969003022 0.793855488
vt 0.990910351 0.786554754
vt 0.953317583 0.792303801
vt 0.939554751 0.78316319
vt 0.0270781536 0.95910114
vt 0.0251815859 0.889201641
vt 0.00100000005 0.887723029
vt 0.00443191547 0.964524686
vt 0.795652151 0.892308772
vt 0.795793593 0.953267634
vt 0.820495427 0.955573678
vt 0.820556283 0.890452862
vt 0.787991941 0.970291376
vt 0.795793593 0.953267634
vt 0.754900575 0.972986877
vt 0.75416857 0.875024319
vt 0.795652151 0.892308772
vt 0.789160371 0.87651068
vt 0.108855791 0.972988784
vt 0.107697092 0.875371158
vt 0.0270781536 0.95910114
vt 0.043592032 0.972712219
vt 0.0251815859 0.889201641
vt 0.0348616429 0.875859857
vt 0.788198769 0.848950088
vt 0.797709823 0.833659053
vt 0.754312277 0.849677444
vt 0.797772229 0.770632386
vt 0.75473702 0.752079964
vt 0.786633134 0.754762888
vt 0.10732054 0.849378526
vt 0.1076212 0.751425505
vt 0.0236144215 0.766355097
vt 0.0444143154 0.756099999
vt 0.0226449426 0.838437855
vt 0.0362859964 0.849373162
vt 0.756017029 0.998850942
vt 0.788509727 0.996928215
vt 0.787991941 0.970291376
vt 0.754900575 0.972986877
vt 0.108366735 0.999000013
vt 0.108855791 0.972988784
vt 0.0446948223 0.998981893
vt 0.043592032 0.972712219
vt 0.10732054 0.849378526
vt 0.0362859964 0.849373162
vt 0.0348616429 0.875859857
vt 0.107697092 0.875371158
vt 0.754312277 0.849677444
vt 0.75416857 0.875024319
vt 0.788198769 0.848950088
vt 0.789160371 0.87651068
vt 0.795793593 0.953267634
vt 0.787991941 0.970291376
vt 0.815752506 0.975951076
vt 0.820495427 0.955573678
vt 0.820556283 0.890452862
vt 0.817015707 0.872122824
vt 0.789160371 0.87651068
vt 0.795652151 0.892308772
vt 0.0251815859 0.889201641
vt 0.0348616429 0.875859857
vt 0.00623634411 0.868727744
vt 0.00100000005 0.887723029
vt 0.00443191547 0.964524686
vt 0.0176184252 0.98751545
vt 0.043592032 0.972712219
vt 0.0270781536 0.95910114
vt 0.0269150659 0.676404059
vt 0.0258817431 0.655492961
vt 0.00100000005 0.653734148
vt 0.00262245536 0.681507826
vt 0.803195536 0.655264914
vt 0.804435968 0.705267549
vt 0.829525411 0.705697298
vt 0.828387856 0.653012276
vt 0.799619436 0.718122065
vt 0.804435968 0.705267549
vt 0.783495128 0.721746683
vt 0.803195536 0.655264914
vt 0.783231497 0.62421906
vt 0.797041714 0.628412962
vt 0.0678449571 0.722795963
vt 0.0668792948 0.624822378
vt 0.0269150659 0.676404059
vt 0.0425275154 0.710198104
vt 0.0258817431 0.655492961
vt 0.036096029 0.626030087
vt 0.7965101 0.597416103
vt 0.806432068 0.570403337
vt 0.783459902 0.600430071
vt 0.783941627 0.502891839
vt 0.806337833 0.519237995
vt 0.798619807 0.508222938
vt 0.0664744377 0.599205494
vt 0.0668166354 0.501283646
vt 0.0226289593 0.547110796
vt 0.042884063 0.516130209
vt 0.0225351322 0.570604861
vt 0.0369818918 0.599194109
vt 0.784271717 0.747240365
vt 0.800662339 0.745692432
vt 0.799619436 0.718122065
vt 0.783495128 0.721746683
vt 0.0641595572 0.746895075
vt 0.0678449571 0.722795963
vt 0.0349998437 0.737504125
vt 0.0425275154 0.710198104
vt 0.0664744377 0.599205494
vt 0.0369818918 0.599194109
vt 0.036096029 0.626030087
vt 0.0668792948 0.624822378
vt 0.783459902 0.600430071
vt 0.783231497 0.62421906
vt 0.7965101 0.597416103
vt 0.797041714 0.628412962
vt 0.804435968 0.705267549
vt 0.799619436 0.718122065
vt 0.82777822 0.720066309
vt 0.829525411 0.705697298
vt 0.828387856 0.653012276
vt 0.824223995 0.625585973
vt 0.797041714 0.628412962
vt 0.803195536 0.655264914
vt 0.0258817431 0.655492961
vt 0.036096029 0.626030087
vt 0.00878029689 0.620407999
vt 0.00100000005 0.653734148
vt 0.00262245536 0.681507826
vt 0.0160741974 0.718501747
vt 0.0425275154 0.710198104
vt 0.0269150659 0.676404059
vt 0.912353754 0.00581041817
vt 0.894034743 0.00613023248
vt 0.895612717 0.0180224776
vt 0.911765218 0.0179715678
vt 0.925008237 0.00755381398
vt 0.924154699 0.0209881514
vt 0.896596372 0.804440856
vt 0.914241195 0.802543581
vt 0.911499381 0.790761292
vt 0.897064269 0.792377472
vt 0.872835636 0.799795449
vt 0.875058174 0.786801755
vt 0.862065136 0.774658024
vt 0.862238228 0.786581933
vt 0.875058174 0.786801755
vt 0.874550581 0.774606943
vt 0.864367425 0.0357073434
vt 0.876791418 0.0359922871
vt 0.864801228 0.0245801099
vt 0.87773186 0.0245236047
vt 0.938619971 0.0367830507
vt 0.939767241 0.02098969
vt 0.924154699 0.0209881514
vt 0.927144825 0.0371291488
vt 0.938741386 0.774960518
vt 0.927055061 0.774933219
vt 0.939554751 0.78316319
vt 0.925943136 0.783713579
vt 0.914241195 0.802543581
vt 0.930310667 0.796350777
vt 0.925943136 0.783713579
vt 0.911499381 0.790761292
vt 0.894034743 0.00613023248
vt 0.874538898 0.0116262166
vt 0.87773186 0.0245236047
vt 0.895612717 0.0180224776
vt 0.876791418 0.0359922871
vt 0.895612717 0.0180224776
vt 0.87773186 0.0245236047
vt 0.911765218 0.0179715678
vt 0.927144825 0.0371291488
vt 0.924154699 0.0209881514
vt 0.927055061 0.774933219
vt 0.874550581 0.774606943
vt 0.911499381 0.790761292
vt 0.925943136 0.783713579
vt 0.897064269 0.792377472
vt 0.875058174 0.786801755
vt 0.970726252 0.0159080885
vt 0.988814831 0.0353306085
vt 0.988224208 0.0243021473
vt 0.952741086 0.0161314122
vt 0.938619971 0.0367830507
vt 0.939767241 0.02098969
vt 0.938741386 0.774960518
vt 0.991029322 0.77481252
vt 0.969003022 0.793855488
vt 0.990910351 0.786554754
vt 0.953317583 0.792303801
vt 0.939554751 0.78316319
vt 0.800640762 0.123550609
vt 0.0478905663 0.123550609
vt 0.0462922975 0.222324908
vt 0.806709945 0.222324908
vt 0.806873322 0.00114294328
vt 0.0431381799 0.00114294328
vt 0.0435358696 0.0993501097
vt 0.806393743 0.0993501097
vt 0.0140581448 0.221275851
vt 0.0462922975 0.222324908
vt 0.0478905663 0.123550609
vt 0.0111521501 0.1225079
vt 0.0462922975 0.222324908
vt 0.0462922975 0.246573985
vt 0.806425989 0.246573985
vt 0.806709945 0.222324908
vt 0.806709945 0.222324908
vt 0.841067314 0.221878752
vt 0.841335893 0.125529557
vt 0.800640762 0.123550609
vt 0.800640762 0.123550609
vt 0.806393743 0.0993501097
vt 0.0435358696 0.0993501097
vt 0.0478905663 0.123550609
vt 0.800640762 0.123550609
vt 0.0478905663 0.123550609
vt 0.0462922975 0.222324908
vt 0.806709945 0.222324908
vt 0.806873322 0.00114294328
vt 0.0431381799 0.00114294328
vt 0.0435358696 0.0993501097
vt 0.806393743 0.0993501097
vt 0.0140581448 0.221275851
vt 0.0462922975 0.222324908
vt 0.0478905663 0.123550609
vt 0.0111521501 0.1225079
vt 0.0462922975 0.222324908
vt 0.0462922975 0.246573985
vt 0.806425989 0.246573985
vt 0.806709945 0.222324908
vt 0.806709945 0.222324908
vt 0.841067314 0.221878752
vt 0.841335893 0.125529557
vt 0.800640762 0.123550609
vt 0.800640762 0.123550609
vt 0.806393743 0.0993501097
vt 0.0435358696 0.0993501097
vt 0.0478905663 0.123550609
g submesh0
f 1/1/1 2/2/2 3/3/3
f 1/1/1 3/3/3 4/4/4
f 5/5/5 6/6/6 7/7/7
f 5/5/5 7/7/7 8/8/8
f 9/9/9 10/10/10 11/11/11
f 9/9/9 11/11/11 12/12/12
f 13/13/13 14/14/14 15/15/15
f 13/13/13 15/15/15 16/16/16
f 17/17/17 18/18/18 19/19/19
f 17/17/17 19/19/19 20/20/20
f 21/21/21 22/22/22 23/23/23
f 21/21/21 23/23/23 24/24/24
f 25/25/25 26/26/26 27/27/27
f 25/25/25 27/27/27 28/28/28
f 29/29/29 30/30/30 31/31/31
f 29/29/29 31/31/31 32/32/32
f 33/33/33 34/34/34 35/35/35
f 33/33/33 35/35/35 36/36/36
f 37/37/37 38/38/38 39/39/39
f 37/37/37 39/39/39 40/40/40
f 41/41/41 42/42/42 43/43/43
f 41/41/41 43/43/43 44/44/44
f 45/45/45 46/46/46 47/47/47
f 45/45/45 47/47/47 48/48/48
f 49/49/49 50/50/50 51/51/51
f 49/49/49 51/51/51 52/52/52
f 52/52/52 53/53/53 49/49/49
f 52/52/52 54/54/54 53/53/53
f 55/55/55 56/56/56 57/57/57
f 55/55/55 57/57/57 58/58/58
f 58/58/58 59/59/59 55/55/55
f 58/58/58 60/60/60 59/59/59
f 61/61/61 62/62/62 63/63/63
f 61/61/61 63/63/63 64/64/64
f 65/65/65 61/61/61 64/64/64
f 65/65/65 64/64/64 66/66/66
f 66/66/66 67/67/67 65/65/65
f 66/66/66 68/68/68 67/67/67
f 69/69/69 70/70/70 71/71/71
f 69/69/69 71/71/71 72/72/72
f 73/73/73 69/69/69 72/72/72
f 73/73/73 72/72/72 74/74/74
f 74/74/74 75/75/75 73/73/73
f 74/74/74 76/76/76 75/75/75
f 77/77/77 78/78/78 79/79/79
f 77/77/77 79/79/79 80/80/80
f 81/81/81 82/82/82 83/83/83
f 81/81/81 83/83/83 84/84/84
f 85/85/85 86/86/86 87/87/87
f 88/88/88 86/86/86 85/85/85
f 88/88/88 85/85/85 89/89/89
f 88/88/88 89/89/89 90/90/90
f 85/85/85 91/91/91 89/89/89
f 85/85/85 92/92/92 91/91/91
f 92/92/92 93/93/93 91/91/91
f 91/91/91 93/93/93 94/94/94
f 92/92/92 95/95/95 93/93/93
f 95/95/95 92/92/92 96/96/96
f 97/97/97 98/98/98 99/99/99
f 98/98/98 97/97/97 100/100/100
f 98/98/98 100/100/100 101/101/101
f 101/101/101 100/100/100 102/102/102
f 98/98/98 101/101/101 103/103/103
f 98/98/98 103/103/103 104/104/104
f 103/103/103 105/105/105 104/104/104
f 104/104/104 105/105/105 106/106/106
f 103/103/103 107/107/107 105/105/105
f 107/107/107 103/103/103 108/108/108
f 109/109/109 110/110/110 111/111/111
f 109/109/109 111/111/111 112/112/112
f 112/112/112 113/113/113 109/109/109
f 112/112/112 114/114/114 113/113/113
f 115/115/115 116/116/116 117/117/117
f 115/115/115 117/117/117 118/118/118
f 118/118/118 119/119/119 115/115/115
f 118/118/118 120/120/120 119/119/119
f 121/121/121 122/122/122 123/123/123
f 121/121/121 123/123/123 124/124/124
f 125/125/125 121/121/121 124/124/124
f 125/125/125 124/124/124 126/126/126
f 126/126/126 127/127/127 125/125/125
f 126/126/126 128/128/128 127/127/127
f 129/129/129 130/130/130 131/131/131
f 129/129/129 131/131/131 132/132/132
f 133/133/133 129/129/129 132/132/132
f 133/133/133 132/132/132 134/134/134
f 134/134/134 135/135/135 133/133/133
f 134/134/134 136/136/136 135/135/135
f 137/137/137 138/138/138 139/139/139
f 137/137/137 139/139/139 140/140/140
f 141/141/141 142/142/142 143/143/143
f 141/141/141 143/143/143 144/144/144
f 145/145/145 146/146/146 147/147/147
f 148/148/148 146/146/146 145/145/145
f 148/148/148 145/145/145 149/149/149
f 148/148/148 149/149/149 150/150/150
f 145/145/145 151/151/151 149/149/149
f 145/145/145 152/152/152 151/151/151
f 152/152/152 153/153/153 151/151/151
f 151/151/151 153/153/153 154/154/154
f 152/152/152 155/155/155 153/153/153
f 155/155/155 152/152/152 156/156/156
f 157/157/157 158/158/158 159/159/159
f 158/158/158 157/157/157 160/160/160
f 158/158/158 160/160/160 161/161/161
f 161/161/161 160/160/160 162/162/162
f 158/158/158 161/161/161 163/163/163
f 158/158/158 163/163/163 164/164/164
f 163/163/163 165/165/165 164/164/164
f 164/164/164 165/165/165 166/166/166
f 163/163/163 167/167/167 165/165/165
f 167/167/167 163/163/163 168/168/168
f 169/169/169 170/170/170 171/171/171
f 169/169/169 171/171/171 172/172/172
f 172/172/172 173/173/173 169/169/169
f 172/172/172 174/174/174 173/173/173
f 175/175/175 176/176/176 177/177/177
f 175/175/175 177/177/177 178/178/178
f 178/178/178 179/179/179 175/175/175
f 178/178/178 180/180/180 179/179/179
f 181/181/181 182/182/182 183/183/183
f 181/181/181 183/183/183 184/184/184
f 185/185/185 181/181/181 184/184/184
f 185/185/185 184/184/184 186/186/186
f 186/186/186 187/187/187 185/185/185
f 186/186/186 188/188/188 187/187/187
f 189/189/189 190/190/190 191/191/191
f 189/189/189 191/191/191 192/192/192
f 193/193/193 189/189/189 192/192/192
f 193/193/193 192/192/192 194/194/194
f 194/194/194 195/195/195 193/193/193
f 194/194/194 196/196/196 195/195/195
f 197/197/197 198/198/198 199/199/199
f 197/197/197 199/199/199 200/200/200
f 201/201/201 202/202/202 203/203/203
f 201/201/201 203/203/203 204/204/204
f 205/205/205 206/206/206 207/207/207
f 208/208/208 206/206/206 205/205/205
f 208/208/208 205/205/205 209/209/209
f 208/208/208 209/209/209 210/210/210
f 205/205/205 211/211/211 209/209/209
f 205/205/205 212/212/212 211/211/211
f 212/212/212 213/213/213 211/211/211
f 211/211/211 213/213/213 214/214/214
f 212/212/212 215/215/215 213/213/213
f 215/215/215 212/212/212 216/216/216
f 217/217/217 218/218/218 219/219/219
f 218/218/218 217/217/217 220/220/220
f 218/218/218 220/220/220 221/221/221
f 221/221/221 220/220/220 222/222/222
f 218/218/218 221/221/221 223/223/223
f 218/218/218 223/223/223 224/224/224
f 223/223/223 225/225/225 224/224/224
f 224/224/224 225/225/225 226/226/226
f 223/223/223 227/227/227 225/225/225
f 227/227/227 223/223/223 228/228/228
f 229/229/229 230/230/230 231/231/231
f 229/229/229 231/231/231 232/232/232
f 233/233/233 234/234/234 235/235/235
f 233/233/233 235/235/235 236/236/236
f 237/237/237 238/238/238 239/239/239
f 238/238/238 240/240/240 239/239/239
f 238/238/238 241/241/241 240/240/240
f 240/240/240 241/241/241 242/242/242
f 240/240/240 243/243/243 239/239/239
f 240/240/240 244/244/244 243/243/243
f 245/245/245 243/243/243 244/244/244
f 243/243/243 245/245/245 246/246/246
f 245/245/245 244/244/244 247/247/247
f 248/248/248 247/247/247 244/244/244
f 249/249/249 250/250/250 251/251/251
f 252/252/252 251/251/251 250/250/250
f 252/252/252 253/253/253 251/251/251
f 253/253/253 252/252/252 254/254/254
f 253/253/253 255/255/255 251/251/251
f 253/253/253 256/256/256 255/255/255
f 257/257/257 255/255/255 256/256/256
f 258/258/258 257/257/257 256/256/256
f 257/257/257 259/259/259 255/255/255
f 255/255/255 259/259/259 260/260/260
f 261/261/261 262/262/262 263/263/263
f 261/261/261 263/263/263 264/264/264
f 265/265/265 261/261/261 264/264/264
f 265/265/265 264/264/264 266/266/266
f 266/266/266 267/267/267 265/265/265
f 266/266/266 268/268/268 267/267/267
f 269/269/269 270/270/270 271/271/271
f 269/269/269 271/271/271 272/272/272
f 273/273/273 269/269/269 272/272/272
f 273/273/273 272/272/272 274/274/274
f 274/274/274 275/275/275 273/273/273
f 274/274/274 276/276/276 275/275/275
f 277/277/277 278/278/278 279/279/279
f 277/277/277 279/279/279 280/280/280
f 281/281/281 282/282/282 283/283/283
f 281/281/281 283/283/283 284/284/284
f 285/285/285 286/286/286 287/287/287
f 285/285/285 287/287/287 288/288/288
f 289/289/289 290/290/290 291/291/291
f 289/289/289 291/291/291 292/292/292
f 293/293/293 294/294/294 295/295/295
f 293/293/293 295/295/295 296/296/296
f 297/297/297 298/298/298 299/299/299
f 297/297/297 299/299/299 300/300/300
f 301/301/301 302/302/302 303/303/303
f 304/304/304 303/303/303 302/302/302
f 304/304/304 305/305/305 303/303/303
f 305/305/305 304/304/304 306/306/306
f 305/305/305 307/307/307 303/303/303
f 305/305/305 308/308/308 307/307/307
f 309/309/309 307/307/307 308/308/308
f 307/307/307 309/309/309 310/310/310
f 309/309/309 308/308/308 311/311/311
f 312/312/312 311/311/311 308/308/308
f 313/313/313 314/314/314 315/315/315
f 314/314/314 316/316/316 315/315/315
f 314/314/314 317/317/317 316/316/316
f 316/316/316 317/317/317 318/318/318
f 316/316/316 319/319/319 315/315/315
f 316/316/316 320/320/320 319/319/319
f 321/321/321 319/319/319 320/320/320
f 322/322/322 321/321/321 320/320/320
f 321/321/321 323/323/323 319/319/319
f 319/319/319 323/323/323 324/324/324
f 325/325/325 326/326/326 327/327/327
f 325/325/325 327/327/327 328/328/328
f 329/329/329 325/325/325 328/328/328
f 329/329/329 328/328/328 330/330/330
f 330/330/330 331/331/331 329/329/329
f 330/330/330 332/332/332 331/331/331
f 333/333/333 334/334/334 335/335/335
f 333/333/333 335/335/335 336/336/336
f 337/337/337 333/333/333 336/336/336
f 337/337/337 336/336/336 338/338/338
f 338/338/338 339/339/339 337/337/337
f 338/338/338 340/340/340 339/339/339
f 341/341/341 342/342/342 343/343/343
f 341/341/341 343/343/343 344/344/344
f 345/345/345 346/346/346 347/347/347
f 345/345/345 347/347/347 348/348/348
f 349/349/349 350/350/350 351/351/351
f 349/349/349 351/351/351 352/352/352
f 353/353/353 354/354/354 355/355/355
f 353/353/353 355/355/355 356/356/356
f 357/357/357 358/358/358 359/359/359
f 357/357/357 359/359/359 360/360/360
f 360/360/360 361/361/361 357/357/357
f 360/360/360 362/362/362 361/361/361
f 363/363/363 364/364/364 365/365/365
f 363/363/363 365/365/365 366/366/366
f 366/366/366 367/367/367 363/363/363
f 366/366/366 368/368/368 367/367/367
f 369/369/369 370/370/370 371/371/371
f 369/369/369 371/371/371 372/372/372
f 373/373/373 369/369/369 372/372/372
f 373/373/373 372/372/372 374/374/374
f 374/374/374 375/375/375 373/373/373
f 374/374/374 376/376/376 375/375/375
f 377/377/377 378/378/378 379/379/379
f 377/377/377 379/379/379 380/380/380
f 381/381/381 377/377/377 380/380/380
f 381/381/381 380/380/380 382/382/382
f 382/382/382 383/383/383 381/381/381
f 382/382/382 384/384/384 383/383/383
f 385/385/385 386/386/386 387/387/387
f 385/385/385 387/387/387 388/388/388
f 389/389/389 390/390/390 391/391/391
f 389/389/389 391/391/391 392/392/392
f 393/393/393 394/394/394 395/395/395
f 396/396/396 394/394/394 393/393/393
f 396/396/396 393/393/393 397/397/397
f 396/396/396 397/397/397 398/398/398
f 393/393/393 399/399/399 397/397/397
f 393/393/393 400/400/400 399/399/399
f 400/400/400 401/401/401 399/399/399
f 399/399/399 401/401/401 402/402/402
f 400/400/400 403/403/403 401/401/401
f 403/403/403 400/400/400 404/404/404
f 405/405/405 406/406/406 407/407/407
f 406/406/406 405/405/405 408/408/408
f 406/406/406 408/408/408 409/409/409
f 409/409/409 408/408/408 410/410/410
f 406/406/406 409/409/409 411/411/411
f 406/406/406 411/411/411 412/412/412
f 411/411/411 413/413/413 412/412/412
f 412/412/412 413/413/413 414/414/414
f 411/411/411 415/415/415 413/413/413
f 415/415/415 411/411/411 416/416/416
f 417/417/417 418/418/418 419/419/419
f 417/417/417 419/419/419 420/420/420
f 421/421/421 422/422/422 423/423/423
f 421/421/421 423/423/423 424/424/424
f 425/425/425 426/426/426 427/427/427
f 425/425/425 427/427/427 428/428/428
f 429/429/429 430/430/430 431/431/431
f 429/429/429 431/431/431 432/432/432
f 433/433/433 434/434/434 435/435/435
f 433/433/433 435/435/435 436/436/436
f 437/437/437 438/438/438 439/439/439
f 437/437/437 439/439/439 440/440/440
f 441/441/441 442/442/442 443/443/443
f 441/441/441 443/443/443 444/444/444
f 445/445/445 446/446/446 447/447/447
f 445/445/445 447/447/447 448/448/448
f 449/449/449 450/450/450 451/451/451
f 449/449/449 451/451/451 452/452/452
f 453/453/453 454/454/454 455/455/455
f 453/453/453 455/455/455 456/456/456
f 457/457/457 458/458/458 459/459/459
f 457/457/457 459/459/459 460/460/460
f 461/461/461 462/462/462 463/463/463
f 461/461/461 463/463/463 464/464/464
