# wooden_walkway_barrier_300_COL
v -2.89319229 0.214075387 0.00240965909
v -2.89319229 0.214075401 0.0702454299
v -3.01058984 0.221147552 0.0702454299
v -3.01058984 0.221147537 0.00240965909
v -2.99927449 1.269238 0.0702454299
v -2.99927449 1.26923788 0.00240965909
v -2.61879349 0.216904268 0.0702454299
v -0.0148348995 1.26075172 0.0702454299
v -2.61879349 0.216904253 0.00240965909
v -0.0148348995 1.26075172 0.00240965909
v -2.89319229 -0.351695359 0.00240965909
v -2.61879349 -0.351695359 0.00240965909
v -2.89319229 -0.351695359 0.0702454299
v -2.61879349 -0.351695359 0.0702454299
v -0.400972575 0.216904253 0.00240965909
v -0.400972575 0.216904268 0.0702454299
v -0.0204928592 0.209832609 0.0702454299
v -0.137889102 0.215489835 0.0702454299
v -0.0204928592 0.209832594 0.00240965909
v -0.137889102 0.21548982 0.00240965909
v -0.137889102 -0.344623208 0.0702454299
v -0.137889102 -0.344623208 0.00240965909
v -0.400972575 -0.344623208 0.0702454299
v -0.400972575 -0.344623208 0.00240965909
g submesh0
f 1 2 3
f 1 3 4
f 4 3 5
f 2 5 3
f 6 1 4
f 4 5 6
f 7 5 2
f 6 5 8
f 7 8 5
f 6 9 1
f 6 8 10
f 10 9 6
f 11 2 1
f 1 12 11
f 1 9 12
f 11 13 2
f 12 13 11
f 14 2 13
f 12 14 13
f 14 7 2
f 9 14 12
f 9 7 14
f 15 7 9
f 10 15 9
f 7 16 8
f 15 16 7
f 10 8 17
f 8 18 17
f 18 8 16
f 10 17 19
f 19 17 18
f 20 10 19
f 19 18 20
f 15 10 20
f 20 18 21
f 21 18 16
f 15 20 22
f 20 21 22
f 21 16 23
f 22 21 23
f 24 16 15
f 15 22 24
f 22 23 24
f 24 23 16
