# wooden_walkway_barrier_900_COL
v -0.0059899902 0.602334738 0.00615231693
v -0.102171019 0.859760404 0.00615231693
v -0.000332031253 0.822985291 0.00615231693
v -0.0059899902 0.602334738 0.0929523036
v -0.000332031253 0.822985291 0.0929523036
v -0.102171019 0.859760404 0.0929523036
v -0.0993420407 0.568388462 0.0929523036
v -0.0993420407 0.568388462 0.00615231693
v -0.383598 0.845601261 0.0929522812
v -0.387878418 0.554244101 0.0929523036
v -0.383598 1.07163537 0.0929522514
v -2.82296681 0.845601261 0.0929522663
v -2.82296681 0.845601261 0.00615228945
v -0.0993420407 -0.35381785 0.0929523036
v -0.383598 0.845601261 0.00615228945
v -0.383598 1.07163537 0.00615226245
v -0.387878418 0.554244101 0.00615231693
v -0.104999997 1.05495131 0.00615231693
v -0.0993420407 -0.35381785 0.00615231693
v -0.387878418 -0.359475732 0.0929523036
v -0.387878418 -0.359475732 0.00615231693
v -2.84049797 0.554244101 0.0929523036
v -3.30363202 0.559587717 0.0929523185
v -2.84049797 0.554244101 0.00615231693
v -3.30363202 0.559587717 0.00615232391
v -5.69099331 0.55858767 0.00615232391
v -5.69099331 0.55858767 0.0929523185
v -5.69099331 0.954647422 0.00615227688
v -5.69099331 0.954647422 0.0929522589
v -2.82296681 1.06663477 0.00615226338
v -3.30363202 0.861633182 0.00615228759
v -3.14318967 0.271359205 0.0929523036
v -2.86878657 -0.34815973 0.0929523036
v -2.86878657 -0.34815973 0.00615231693
v -3.14318967 0.271359205 0.00615231693
v -3.14318967 -0.34815973 0.0929523036
v -3.14318967 -0.34815973 0.00615231693
v -5.69481564 0.271359205 0.0929523036
v -5.69481564 0.271359205 0.00615231693
v -3.30363202 0.861633182 0.0929522812
v -5.96921492 0.268530369 0.00615231693
v -6.15308952 0.574046552 0.00615231693
v -5.96921492 0.268530369 0.0929523036
v -6.15308952 0.574046552 0.0929523036
v -5.69481564 -0.34815973 0.0929523036
v -2.82296681 1.06663477 0.0929522514
v -5.69481564 -0.34815973 0.00615231693
v -5.96921492 -0.34815973 0.0929523036
v -5.96921492 -0.34815973 0.00615231693
v -6.1389451 0.268530369 0.0929523036
v -6.1389451 0.268530369 0.00615231693
v -3.34686637 1.09172642 0.0929523036
v -5.67501307 1.17659199 0.0929523036
v -5.96648788 0.967887163 0.0929522663
v -5.67501307 1.17659199 0.00615231693
v -5.96648788 0.809863329 0.0929522887
v -8.61789036 0.600831866 0.0929523036
v -8.61789036 0.600831866 0.00615231879
v -8.60004902 0.378855646 0.0929523036
v -5.96648788 0.809863329 0.00615229364
v -5.96648788 0.967887163 0.00615227502
v -8.60004902 0.378855646 0.00615231693
v -3.34686637 1.09172642 0.00615231693
v -3.27048707 1.28408837 0.0929523036
v -3.27048707 1.28408837 0.00615231693
v -0.116315305 1.28408837 0.00615231693
v -0.116315305 1.28408837 0.0929523036
v -0.104999997 1.05495131 0.0929523036
v -0.0484228507 1.07475328 0.00615231693
v -0.0484228507 1.07475328 0.0929523036
v -0.011647339 1.25297105 0.00615231693
v -0.011647339 1.25297105 0.0929523036
v -5.96638393 1.19073629 0.00615231693
v -8.60570621 1.19073629 0.00615231693
v -5.96638393 1.3208636 0.00615231693
v -5.67501307 1.3208636 0.00615231693
v -5.67501307 1.3208636 0.0929523036
v -5.96638393 1.3208636 0.0929523036
v -5.96638393 1.19073629 0.0929523036
v -8.60570621 1.19073629 0.0929523036
v -8.61789036 0.973888159 0.0929522663
v -8.61789036 0.973888159 0.00615227455
v -8.89990711 1.20205212 0.0929522961
v -8.90839291 0.964428365 0.0929523036
v -8.90839291 0.964428365 0.00615231693
v -8.89990711 1.20205212 0.00615231693
v -8.89990711 0.593848586 0.0929523036
v -8.89990711 0.361882538 0.0929523036
v -8.89990711 0.593848586 0.00615231693
v -8.89990711 0.361882538 0.00615231693
v -8.60004902 -0.350988567 0.0929523036
v -8.98760128 0.582533121 0.00615231693
v -8.60004902 -0.350988567 0.00615231693
v -8.98760128 0.582533121 0.0929523036
v -8.89990711 -0.350988567 0.0929523036
v -8.89990711 -0.350988567 0.00615231693
v -8.98477268 0.356224865 0.00615231693
v -8.98477268 0.356224865 0.0929523036
v -9.00457478 1.17942131 0.0929523036
v -9.00740337 0.97574383 0.0929523036
v -9.00740337 0.97574383 0.00615231693
v -9.00457478 1.17942131 0.00615231693
v -8.89990711 1.33217943 0.0929523036
v -8.89990711 1.33217943 0.00615231693
v -8.60570621 1.33217943 0.0929523036
v -8.60570621 1.33217943 0.00615231693
g submesh0
f 1 2 3
f 4 1 3
f 5 3 2
f 4 3 5
f 6 4 5
f 5 2 6
f 7 1 4
f 6 7 4
f 1 8 2
f 7 8 1
f 7 6 9
f 7 9 10
f 6 11 9
f 10 9 12
f 9 13 12
f 14 8 7
f 14 7 10
f 11 15 9
f 9 15 13
f 15 2 8
f 16 2 15
f 11 16 15
f 15 8 17
f 13 15 17
f 6 2 18
f 16 18 2
f 14 19 8
f 17 8 19
f 20 19 14
f 14 10 20
f 20 21 19
f 17 19 21
f 10 21 20
f 10 17 21
f 22 17 10
f 10 12 22
f 23 22 12
f 13 17 24
f 22 24 17
f 13 24 25
f 23 25 26
f 23 26 27
f 27 26 28
f 27 28 29
f 12 13 30
f 13 25 31
f 30 13 31
f 29 28 31
f 22 23 32
f 33 24 22
f 33 22 32
f 33 34 24
f 25 24 35
f 35 24 34
f 36 34 33
f 33 32 36
f 36 37 34
f 35 34 37
f 32 37 36
f 32 35 37
f 38 35 32
f 38 32 23
f 25 35 39
f 38 39 35
f 40 25 23
f 40 31 25
f 29 31 40
f 25 39 26
f 26 39 41
f 26 41 42
f 23 12 40
f 38 23 27
f 38 27 43
f 44 43 27
f 45 39 38
f 45 38 43
f 40 12 46
f 12 30 46
f 45 47 39
f 41 39 47
f 48 47 45
f 45 43 48
f 48 49 47
f 41 47 49
f 43 49 48
f 43 41 49
f 50 41 43
f 43 44 50
f 50 51 41
f 44 51 50
f 42 41 51
f 44 42 51
f 40 46 52
f 29 40 52
f 29 52 53
f 54 29 53
f 52 55 53
f 56 29 54
f 44 56 57
f 56 58 57
f 56 27 29
f 44 27 56
f 59 42 44
f 44 57 59
f 54 60 56
f 56 60 58
f 58 60 42
f 54 61 60
f 26 42 60
f 28 26 60
f 28 60 61
f 55 28 61
f 59 62 42
f 58 42 62
f 63 28 55
f 63 31 28
f 30 31 63
f 52 63 55
f 64 63 52
f 52 46 64
f 30 63 65
f 64 65 63
f 46 30 16
f 65 16 30
f 11 64 46
f 46 16 11
f 65 66 16
f 18 16 66
f 67 65 64
f 11 67 64
f 67 66 65
f 11 68 67
f 6 68 11
f 6 18 68
f 68 18 69
f 69 18 66
f 67 68 70
f 68 69 70
f 69 66 71
f 70 69 71
f 67 70 72
f 72 66 67
f 72 71 66
f 70 71 72
f 55 61 73
f 61 74 73
f 55 73 75
f 55 75 76
f 53 55 76
f 77 76 75
f 53 76 77
f 77 75 78
f 78 75 73
f 78 53 77
f 78 73 79
f 78 79 53
f 79 73 74
f 79 74 80
f 54 53 79
f 80 54 79
f 81 61 54
f 80 81 54
f 61 82 74
f 81 82 61
f 83 81 80
f 83 84 81
f 57 82 81
f 84 57 81
f 57 58 82
f 58 85 82
f 82 86 74
f 82 85 86
f 84 87 57
f 59 57 87
f 59 87 88
f 58 89 85
f 84 85 89
f 84 89 87
f 89 58 62
f 89 62 90
f 91 62 59
f 91 59 88
f 87 89 92
f 92 89 90
f 91 93 62
f 90 62 93
f 87 92 94
f 88 87 94
f 95 93 91
f 91 88 95
f 95 96 93
f 90 93 96
f 88 96 95
f 88 90 96
f 92 90 97
f 94 92 97
f 88 94 98
f 98 90 88
f 98 97 90
f 94 97 98
f 84 83 99
f 84 99 100
f 100 85 84
f 99 101 100
f 100 101 85
f 99 102 101
f 102 85 101
f 83 102 99
f 102 86 85
f 83 86 102
f 103 86 83
f 103 83 80
f 103 104 86
f 74 86 104
f 103 80 105
f 105 104 103
f 74 104 106
f 80 74 106
f 105 106 104
f 80 106 105
